<?xml version="1.0" encoding="UTF-8" standalone="no"?>
<!-- Created with Inkscape (http://www.inkscape.org/) -->

<svg
   version="1.1"
   id="svg2"
   width="1440"
   height="1344"
   viewBox="0 0 1440 1344"
   xmlns="http://www.w3.org/2000/svg"
   xmlns:svg="http://www.w3.org/2000/svg">
  <defs
     id="defs6" />
  <g
     id="g10">
    <path
       d="m 758.974,317.458 c -0.087,-2.323 -3.505,-0.506 -6.828,0.831 -2.61,1.052 -4.388,1.578 -4.135,2.916 0.242,1.288 1.932,0.636 4.495,-0.09 3.23,-0.915 6.551,-1.462 6.468,-3.657"
       style="fill:#ffffff;fill-opacity:1;fill-rule:nonzero;stroke:none;stroke-width:0.1"
       id="path670" />
    <path
       d="m 758.974,317.458 c -0.087,-2.323 -3.505,-0.506 -6.828,0.831 -2.61,1.052 -4.388,1.578 -4.135,2.916 0.242,1.288 1.932,0.636 4.495,-0.09 3.23,-0.915 6.551,-1.462 6.468,-3.657 z"
       style="fill:none;stroke:#231f20;stroke-width:0.5;stroke-linecap:butt;stroke-linejoin:miter;stroke-miterlimit:4;stroke-dasharray:none;stroke-opacity:1"
       id="path672" />
    <path
       d="m 321.029,317.458 c 0.087,-2.323 3.506,-0.506 6.828,0.831 2.61,1.052 4.389,1.578 4.136,2.916 -0.243,1.288 -1.932,0.636 -4.496,-0.09 -3.229,-0.915 -6.551,-1.462 -6.468,-3.657"
       style="fill:#ffffff;fill-opacity:1;fill-rule:nonzero;stroke:none;stroke-width:0.1"
       id="path674" />
    <path
       d="m 321.029,317.458 c 0.087,-2.323 3.506,-0.506 6.828,0.831 2.61,1.052 4.389,1.578 4.136,2.916 -0.243,1.288 -1.932,0.636 -4.496,-0.09 -3.229,-0.915 -6.551,-1.462 -6.468,-3.657 z"
       style="fill:none;stroke:#231f20;stroke-width:0.5;stroke-linecap:butt;stroke-linejoin:miter;stroke-miterlimit:4;stroke-dasharray:none;stroke-opacity:1"
       id="path676" />
    <path
       d="m 599.072,347.275 c 0,-1.277 -1.036,-2.315 -2.314,-2.315 -1.277,0 -2.313,1.038 -2.313,2.315 0,1.277 1.036,2.313 2.313,2.313 1.278,0 2.314,-1.036 2.314,-2.313"
       style="fill:#ffffff;fill-opacity:1;fill-rule:nonzero;stroke:none;stroke-width:0.1"
       id="path678" />
    <path
       d="m 599.072,347.275 c 0,-1.277 -1.036,-2.315 -2.314,-2.315 -1.277,0 -2.313,1.038 -2.313,2.315 0,1.277 1.036,2.313 2.313,2.313 1.278,0 2.314,-1.036 2.314,-2.313 z"
       style="fill:none;stroke:#231f20;stroke-width:0.5;stroke-linecap:butt;stroke-linejoin:miter;stroke-miterlimit:4;stroke-dasharray:none;stroke-opacity:1"
       id="path680" />
    <path
       d="m 485.559,347.275 c 0,-1.277 -1.036,-2.315 -2.313,-2.315 -1.278,0 -2.314,1.038 -2.314,2.315 0,1.277 1.036,2.313 2.314,2.313 1.277,0 2.313,-1.036 2.313,-2.313"
       style="fill:#ffffff;fill-opacity:1;fill-rule:nonzero;stroke:none;stroke-width:0.1"
       id="path682" />
    <path
       d="m 485.559,347.275 c 0,-1.277 -1.036,-2.315 -2.313,-2.315 -1.278,0 -2.314,1.038 -2.314,2.315 0,1.277 1.036,2.313 2.314,2.313 1.277,0 2.313,-1.036 2.313,-2.313 z"
       style="fill:none;stroke:#231f20;stroke-width:0.5;stroke-linecap:butt;stroke-linejoin:miter;stroke-miterlimit:4;stroke-dasharray:none;stroke-opacity:1"
       id="path684" />
    <path
       d="m 540.002,334.576 c -4.876,0 -16.483,-0.928 -30.411,2.32 -13.926,3.251 -6.964,13.466 -6.964,13.466 -10.677,-5.106 -16.251,-0.465 -16.251,-0.465 -11.142,0 -16.25,-2.32 -24.607,-8.357 -8.357,-6.037 -18.107,-6.5 -18.107,-6.5 2.786,-11.142 -22.749,-18.106 -45.499,-19.5 -22.75,-1.392 -44.108,2.321 -49.215,3.714 -5.109,1.393 -11.287,5.613 -21.822,2.321 -14.857,-4.641 -18.106,-6.035 -51.535,2.323 -33.428,8.357 -58.037,29.25 -78.465,54.321 -20.429,25.071 -28.786,56.643 -29.714,60.356 -0.465,1.858 -0.812,6.096 -2.786,9.288 -1.972,3.19 -5.572,5.337 -6.5,6.964 -12.471,21.819 -39,77.07 -15.322,166.213 23.679,89.143 55.25,126.751 84.849,148.339 29.598,21.59 98.545,64.769 170.973,62.679 77.997,-2.249 111.563,-20.027 126.166,-36.181 14.604,-16.153 15.21,-33.855 15.21,-42.707 0,8.852 0.605,26.554 15.209,42.707 14.604,16.154 48.17,33.932 126.166,36.181 72.429,2.09 141.375,-41.089 170.974,-62.679 29.598,-21.588 61.17,-59.196 84.849,-148.339 23.678,-89.143 -2.852,-144.394 -15.322,-166.213 -0.929,-1.627 -4.528,-3.774 -6.501,-6.964 -1.973,-3.192 -2.32,-7.43 -2.786,-9.288 -0.928,-3.713 -9.284,-35.285 -29.714,-60.356 -20.428,-25.071 -45.036,-45.964 -78.464,-54.321 -33.429,-8.358 -36.679,-6.964 -51.537,-2.323 -10.533,3.292 -16.712,-0.928 -21.82,-2.321 -5.107,-1.393 -26.466,-5.106 -49.215,-3.714 -22.75,1.394 -48.285,8.358 -45.5,19.5 0,0 -9.75,0.463 -18.106,6.5 -8.358,6.037 -13.465,8.357 -24.609,8.357 0,0 -5.572,-4.641 -16.25,0.465 0,0 6.963,-10.215 -6.964,-13.466 -13.927,-3.248 -25.536,-2.32 -30.41,-2.32"
       style="fill:#ffffff;fill-opacity:1;fill-rule:nonzero;stroke:none;stroke-width:0.1"
       id="path686" />
    <path
       d="m 540.002,334.576 c -4.876,0 -16.483,-0.928 -30.411,2.32 -13.926,3.251 -6.964,13.466 -6.964,13.466 -10.677,-5.106 -16.251,-0.465 -16.251,-0.465 -11.142,0 -16.25,-2.32 -24.607,-8.357 -8.357,-6.037 -18.107,-6.5 -18.107,-6.5 2.786,-11.142 -22.749,-18.106 -45.499,-19.5 -22.75,-1.392 -44.108,2.321 -49.215,3.714 -5.109,1.393 -11.287,5.613 -21.822,2.321 -14.857,-4.641 -18.106,-6.035 -51.535,2.323 -33.428,8.357 -58.037,29.25 -78.465,54.321 -20.429,25.071 -28.786,56.643 -29.714,60.356 -0.465,1.858 -0.812,6.096 -2.786,9.288 -1.972,3.19 -5.572,5.337 -6.5,6.964 -12.471,21.819 -39,77.07 -15.322,166.213 23.679,89.143 55.25,126.751 84.849,148.339 29.598,21.59 98.545,64.769 170.973,62.679 77.997,-2.249 111.563,-20.027 126.166,-36.181 14.604,-16.153 15.21,-33.855 15.21,-42.707 0,8.852 0.605,26.554 15.209,42.707 14.604,16.154 48.17,33.932 126.166,36.181 72.429,2.09 141.375,-41.089 170.974,-62.679 29.598,-21.588 61.17,-59.196 84.849,-148.339 23.678,-89.143 -2.852,-144.394 -15.322,-166.213 -0.929,-1.627 -4.528,-3.774 -6.501,-6.964 -1.973,-3.192 -2.32,-7.43 -2.786,-9.288 -0.928,-3.713 -9.284,-35.285 -29.714,-60.356 -20.428,-25.071 -45.036,-45.964 -78.464,-54.321 -33.429,-8.358 -36.679,-6.964 -51.537,-2.323 -10.533,3.292 -16.712,-0.928 -21.82,-2.321 -5.107,-1.393 -26.466,-5.106 -49.215,-3.714 -22.75,1.394 -48.285,8.358 -45.5,19.5 0,0 -9.75,0.463 -18.106,6.5 -8.358,6.037 -13.465,8.357 -24.609,8.357 0,0 -5.572,-4.641 -16.25,0.465 0,0 6.963,-10.215 -6.964,-13.466 -13.927,-3.248 -25.536,-2.32 -30.41,-2.32 z"
       style="fill:none;stroke:#231f20;stroke-width:0.75;stroke-linecap:round;stroke-linejoin:round;stroke-miterlimit:4;stroke-dasharray:none;stroke-opacity:1"
       id="path688" />
    <path
       d="m 633.671,555.923 c -3.133,-12.883 -9.401,-25.071 -12.883,-29.598 -1.052,-1.366 -3.151,-3.138 -5.9,-5.406 l 0.002,-10e-4 c 4.641,3.854 14.086,9.028 16.692,11.675 1.511,1.535 1.742,3.251 1.742,4.875 0,1.625 -0.116,14.741 0.347,18.455"
       style="fill:#b2b1b1;fill-opacity:1;fill-rule:nonzero;stroke:none;stroke-width:0.1"
       id="path690" />
    <path
       d="m 635.064,573.334 c 2.09,7.661 6.616,51.537 10.795,64.42 4.179,12.884 10.099,21.938 13.581,27.162 3.481,5.222 14.391,11.607 14.042,13.696 0,1.392 -5.337,0.928 -10.212,1.276 -4.875,0.349 -15.67,-2.437 -25.42,-6.615 0,0 5.224,2.785 11.143,2.785 5.92,0 12.707,-0.319 10.795,-4.179 -1.912,-3.86 -4.965,-6.762 -8.009,-11.839 -5.224,-8.706 -9.403,-21.241 -11.143,-27.857 -1.741,-6.616 -3.831,-40.044 -4.178,-48.401 l -1.394,-10.448"
       style="fill:#b2b1b1;fill-opacity:1;fill-rule:nonzero;stroke:none;stroke-width:0.1"
       id="path692" />
    <path
       d="m 761.31,319.085 c -0.54,2.027 5.961,4.813 11.996,6.668 6.035,1.858 15.669,3.483 19.152,2.438 3.482,-1.045 6.54,-4.438 15.805,-3.262"
       style="fill:none;stroke:#231f20;stroke-width:0.5;stroke-linecap:butt;stroke-linejoin:miter;stroke-miterlimit:4;stroke-dasharray:none;stroke-opacity:1"
       id="path694" />
    <path
       d="m 540.002,361.271 v 63.027"
       style="fill:none;stroke:#231f20;stroke-width:0.75;stroke-linecap:round;stroke-linejoin:round;stroke-miterlimit:4;stroke-dasharray:none;stroke-opacity:1"
       id="path696" />
    <path
       d="m 544.18,428.477 c 0,-2.308 -1.871,-4.179 -4.178,-4.179 -2.307,0 -4.179,1.871 -4.179,4.179 0,2.31 1.872,4.178 4.179,4.178 2.307,0 4.178,-1.868 4.178,-4.178 z"
       style="fill:none;stroke:#231f20;stroke-width:0.5;stroke-linecap:butt;stroke-linejoin:miter;stroke-miterlimit:4;stroke-dasharray:none;stroke-opacity:1"
       id="path698" />
    <path
       d="m 580.395,475.137 c -0.91,-2.365 -1.045,-8.009 4.526,-12.884 5.572,-4.875 13.581,-10.795 20.893,-8.705 7.312,2.089 9.75,3.483 15.67,2.438 5.92,-1.045 20.196,-4.875 28.554,-8.009 8.357,-3.135 31.687,-12.885 36.214,-16.366 4.527,-3.483 21.938,-11.144 22.982,-9.403 1.045,1.742 -10.098,10.447 -18.455,16.019 -8.358,5.571 -12.536,9.75 -25.071,16.018 -12.537,6.267 -26.465,13.928 -31.34,16.017 -4.875,2.09 -14.277,3.134 -18.455,5.572 -4.179,2.437 -11.492,5.223 -15.322,5.223 -3.83,0 -18.455,-1.392 -20.196,-5.92 z"
       style="fill:none;stroke:#231f20;stroke-width:0.5;stroke-linecap:butt;stroke-linejoin:miter;stroke-miterlimit:4;stroke-dasharray:none;stroke-opacity:1"
       id="path700" />
    <path
       d="m 821.708,460.861 c -3.134,-7.313 -12.536,-26.116 -18.108,-33.081 -5.571,-6.964 -18.803,-20.544 -26.812,-25.419 -8.009,-4.875 -30.294,-22.635 -33.08,-29.599 -2.787,-6.964 -4.527,-13.58 -4.527,-13.58"
       style="fill:none;stroke:#231f20;stroke-width:0.5;stroke-linecap:butt;stroke-linejoin:miter;stroke-miterlimit:4;stroke-dasharray:none;stroke-opacity:1"
       id="path702" />
    <path
       d="m 643.074,523.542 c 0.696,-2.786 3.134,-17.065 2.437,-24.03 -0.696,-6.964 0,-17.41 -0.348,-20.196 -0.348,-2.785 0.552,-8.273 1.045,-9.75 1.044,-3.134 7.312,-6.616 12.535,-6.964 5.223,-0.349 4.875,3.83 4.178,7.313 -0.696,3.481 -6.267,27.16 -8.356,34.821 -2.09,7.66 -4.875,18.806 -11.491,18.806 z"
       style="fill:none;stroke:#231f20;stroke-width:0.5;stroke-linecap:butt;stroke-linejoin:miter;stroke-miterlimit:4;stroke-dasharray:none;stroke-opacity:1"
       id="path704" />
    <path
       d="M 540.002,753.17 V 672.924"
       style="fill:none;stroke:#231f20;stroke-width:0.75;stroke-linecap:round;stroke-linejoin:round;stroke-miterlimit:4;stroke-dasharray:none;stroke-opacity:1"
       id="path706" />
    <path
       d="m 685.555,661.433 c -3.714,-2.786 -19.034,-25.071 -17.178,-43.179"
       style="fill:none;stroke:#231f20;stroke-width:0.5;stroke-linecap:butt;stroke-linejoin:miter;stroke-miterlimit:4;stroke-dasharray:none;stroke-opacity:1"
       id="path708" />
    <path
       d="m 659.091,608.504 c -6.035,-5.106 -11.142,-27.392 -11.142,-38.071"
       style="fill:none;stroke:#231f20;stroke-width:0.5;stroke-linecap:butt;stroke-linejoin:miter;stroke-miterlimit:4;stroke-dasharray:none;stroke-opacity:1"
       id="path710" />
    <path
       d="m 588.055,671.183 c 7.429,4.644 12.751,6.232 24.36,21.553 9.097,12.009 33.211,22.091 57.123,18.143"
       style="fill:none;stroke:#231f20;stroke-width:0.5;stroke-linecap:butt;stroke-linejoin:miter;stroke-miterlimit:4;stroke-dasharray:none;stroke-opacity:1"
       id="path712" />
    <path
       d="m 583.18,647.157 c 6.965,2.437 47.706,21.589 54.67,26.116 0,0 5.224,2.785 11.143,2.785 5.92,0 12.707,-0.319 10.795,-4.179 -1.912,-3.86 -4.963,-6.762 -8.009,-11.839 -5.224,-8.706 -9.403,-21.241 -11.143,-27.857 -1.741,-6.616 -3.831,-40.044 -4.178,-48.401 l -1.394,-10.448 c 0,0 -2.785,14.626 -13.58,30.296 -10.795,15.669 -30.991,38.652 -38.304,43.527"
       style="fill:#706d6e;fill-opacity:1;fill-rule:nonzero;stroke:none;stroke-width:0.1"
       id="path714" />
    <path
       d="m 583.18,647.157 c 6.965,2.437 47.706,21.589 54.67,26.116 0,0 5.224,2.785 11.143,2.785 5.92,0 12.707,-0.319 10.795,-4.179 -1.912,-3.86 -4.963,-6.762 -8.009,-11.839 -5.224,-8.706 -9.403,-21.241 -11.143,-27.857 -1.741,-6.616 -3.831,-40.044 -4.178,-48.401 l -1.394,-10.448 c 0,0 -2.785,14.626 -13.58,30.296 -10.795,15.669 -30.991,38.652 -38.304,43.527 z"
       style="fill:none;stroke:#231f20;stroke-width:0.5;stroke-linecap:round;stroke-linejoin:round;stroke-miterlimit:4;stroke-dasharray:none;stroke-opacity:1"
       id="path716" />
    <path
       d="m 637.85,673.273 c 9.75,4.178 20.545,6.964 25.42,6.615 4.875,-0.348 10.214,0.116 10.214,-1.276"
       style="fill:none;stroke:#231f20;stroke-width:0.5;stroke-linecap:butt;stroke-linejoin:miter;stroke-miterlimit:4;stroke-dasharray:none;stroke-opacity:1"
       id="path718" />
    <path
       d="m 632.164,546.754 c 0,0 -0.235,-8.821 -0.466,-10.214 -0.232,-1.393 -0.929,-3.25 -2.785,-4.411 -1.858,-1.16 -6.231,-5.77 -3.018,0 2.731,4.907 4.875,9.983 6.269,14.625"
       style="fill:#706d6e;fill-opacity:1;fill-rule:nonzero;stroke:none;stroke-width:0.1"
       id="path720" />
    <path
       d="m 632.164,546.754 c 0,0 -0.235,-8.821 -0.466,-10.214 -0.232,-1.393 -0.929,-3.25 -2.785,-4.411 -1.858,-1.16 -6.231,-5.77 -3.018,0 2.731,4.907 4.875,9.983 6.269,14.625 z"
       style="fill:none;stroke:#231f20;stroke-width:0.5;stroke-linecap:round;stroke-linejoin:round;stroke-miterlimit:4;stroke-dasharray:none;stroke-opacity:1"
       id="path722" />
    <path
       d="m 543.484,669.906 c 0,-1.667 -1.559,-3.019 -3.482,-3.019 -1.923,0 -3.482,1.352 -3.482,3.019 0,1.667 1.559,3.018 3.482,3.018 1.923,0 3.482,-1.351 3.482,-3.018 z"
       style="fill:none;stroke:#231f20;stroke-width:0.5;stroke-linecap:butt;stroke-linejoin:miter;stroke-miterlimit:4;stroke-dasharray:none;stroke-opacity:1"
       id="path724" />
    <path
       d="m 540.002,665.612 c 0.837,1.365 3.713,3.714 7.661,0.928"
       style="fill:none;stroke:#231f20;stroke-width:0.75;stroke-linecap:round;stroke-linejoin:round;stroke-miterlimit:4;stroke-dasharray:none;stroke-opacity:1"
       id="path726" />
    <path
       d="m 446.332,555.923 c 3.134,-12.883 9.402,-25.071 12.884,-29.598 1.051,-1.366 3.15,-3.138 5.899,-5.406 l -0.001,-10e-4 c -4.641,3.854 -14.086,9.028 -16.693,11.675 -1.511,1.535 -1.741,3.251 -1.741,4.875 0,1.625 0.115,14.741 -0.348,18.455"
       style="fill:#b2b1b1;fill-opacity:1;fill-rule:nonzero;stroke:none;stroke-width:0.1"
       id="path728" />
    <path
       d="m 444.939,573.334 c -2.089,7.661 -6.616,51.537 -10.795,64.42 -4.179,12.884 -10.098,21.938 -13.58,27.162 -3.482,5.222 -14.391,11.607 -14.043,13.696 0,1.392 5.338,0.928 10.213,1.276 4.875,0.349 15.669,-2.437 25.42,-6.615 0,0 -5.224,2.785 -11.144,2.785 -5.92,0 -12.707,-0.319 -10.795,-4.179 1.913,-3.86 4.965,-6.762 8.01,-11.839 5.223,-8.706 9.401,-21.241 11.143,-27.857 1.741,-6.616 3.83,-40.044 4.178,-48.401 l 1.393,-10.448"
       style="fill:#b2b1b1;fill-opacity:1;fill-rule:nonzero;stroke:none;stroke-width:0.1"
       id="path730" />
    <path
       d="m 318.694,319.085 c 0.54,2.027 -5.961,4.813 -11.996,6.668 -6.035,1.858 -15.67,3.483 -19.153,2.438 -3.481,-1.045 -6.539,-4.438 -15.805,-3.262"
       style="fill:none;stroke:#231f20;stroke-width:0.5;stroke-linecap:butt;stroke-linejoin:miter;stroke-miterlimit:4;stroke-dasharray:none;stroke-opacity:1"
       id="path732" />
    <path
       d="m 502.627,350.362 c 3.367,3.365 11.258,2.204 17.178,5.686 5.92,3.482 14.974,5.223 20.197,5.223 5.223,0 14.277,-1.741 20.196,-5.223 5.92,-3.482 13.812,-2.321 17.178,-5.686"
       style="fill:none;stroke:#231f20;stroke-width:0.5;stroke-linecap:butt;stroke-linejoin:miter;stroke-miterlimit:4;stroke-dasharray:none;stroke-opacity:1"
       id="path734" />
    <path
       d="m 499.609,475.137 c 0.91,-2.365 1.045,-8.009 -4.527,-12.884 -5.572,-4.875 -13.581,-10.795 -20.893,-8.705 -7.313,2.089 -9.75,3.483 -15.67,2.438 -5.919,-1.045 -20.196,-4.875 -28.554,-8.009 -8.356,-3.135 -31.687,-12.885 -36.214,-16.366 -4.526,-3.483 -21.937,-11.144 -22.982,-9.403 -1.044,1.742 10.099,10.447 18.456,16.019 8.357,5.571 12.535,9.75 25.071,16.018 12.536,6.267 26.464,13.928 31.339,16.017 4.875,2.09 14.278,3.134 18.456,5.572 4.178,2.437 11.491,5.223 15.322,5.223 3.83,0 18.455,-1.392 20.196,-5.92 z"
       style="fill:none;stroke:#231f20;stroke-width:0.5;stroke-linecap:butt;stroke-linejoin:miter;stroke-miterlimit:4;stroke-dasharray:none;stroke-opacity:1"
       id="path736" />
    <path
       d="m 258.295,460.861 c 3.135,-7.313 12.537,-26.116 18.108,-33.081 5.571,-6.964 18.804,-20.544 26.812,-25.419 8.009,-4.875 30.295,-22.635 33.081,-29.599 2.786,-6.964 4.527,-13.58 4.527,-13.58"
       style="fill:none;stroke:#231f20;stroke-width:0.5;stroke-linecap:butt;stroke-linejoin:miter;stroke-miterlimit:4;stroke-dasharray:none;stroke-opacity:1"
       id="path738" />
    <path
       d="m 436.93,523.542 c -0.696,-2.786 -3.134,-17.065 -2.437,-24.03 0.696,-6.964 0,-17.41 0.348,-20.196 0.348,-2.785 -0.552,-8.273 -1.045,-9.75 -1.045,-3.134 -7.312,-6.616 -12.536,-6.964 -5.222,-0.349 -4.875,3.83 -4.178,7.313 0.696,3.481 6.268,27.16 8.357,34.821 2.089,7.66 4.875,18.806 11.491,18.806 z"
       style="fill:none;stroke:#231f20;stroke-width:0.5;stroke-linecap:butt;stroke-linejoin:miter;stroke-miterlimit:4;stroke-dasharray:none;stroke-opacity:1"
       id="path740" />
    <path
       d="m 406.52,678.612 c -45.965,6.501 -65.465,3.714 -97.966,-30.643 -32.501,-34.357 -45.035,-68.716 -54.785,-108.643 -9.75,-39.928 4.526,-78.465 4.526,-78.465 -8.145,17.06 -11.954,58.036 -11.954,67.322 0,9.286 6.035,32.5 7.892,41.32 1.856,8.823 10.215,43.645 29.482,67.555 26.176,32.484 35.519,41.09 61.634,54.67 26.116,13.58 56.76,17.41 65.116,19.151 8.358,1.742 21.938,5.92 34.823,8.009 12.883,2.09 19.847,-5.222 22.981,-10.794 3.135,-5.571 11.491,-25.768 23.679,-36.911 12.187,-11.143 28.902,-9.401 32.384,-9.054 3.482,0.349 13.581,-0.696 15.67,-0.696 2.089,0 12.187,1.045 15.669,0.696 3.483,-0.347 20.197,-2.089 32.384,9.054 12.188,11.143 20.545,31.34 23.679,36.911 3.134,5.572 10.098,12.884 22.982,10.794 12.884,-2.089 26.464,-6.267 34.822,-8.009 8.357,-1.741 39,-5.571 65.116,-19.151 26.116,-13.58 35.458,-22.186 61.634,-54.67 19.267,-23.91 27.626,-58.732 29.483,-67.555 1.856,-8.82 7.892,-32.034 7.892,-41.32 0,-9.286 -3.809,-50.262 -11.955,-67.322 0,0 14.277,38.537 4.527,78.465 -9.75,39.927 -22.285,74.286 -54.786,108.643 -32.501,34.357 -52.001,37.144 -97.965,30.643"
       style="fill:none;stroke:#231f20;stroke-width:0.5;stroke-linecap:butt;stroke-linejoin:miter;stroke-miterlimit:4;stroke-dasharray:none;stroke-opacity:1"
       id="path742" />
    <path
       d="m 394.448,661.433 c 3.715,-2.786 19.035,-25.071 17.178,-43.179"
       style="fill:none;stroke:#231f20;stroke-width:0.5;stroke-linecap:butt;stroke-linejoin:miter;stroke-miterlimit:4;stroke-dasharray:none;stroke-opacity:1"
       id="path744" />
    <path
       d="m 420.913,608.504 c 6.035,-5.106 11.142,-27.392 11.142,-38.071"
       style="fill:none;stroke:#231f20;stroke-width:0.5;stroke-linecap:butt;stroke-linejoin:miter;stroke-miterlimit:4;stroke-dasharray:none;stroke-opacity:1"
       id="path746" />
    <path
       d="m 491.948,671.183 c -7.428,4.644 -12.75,6.232 -24.359,21.553 -9.098,12.009 -33.212,22.091 -57.124,18.143"
       style="fill:none;stroke:#231f20;stroke-width:0.5;stroke-linecap:butt;stroke-linejoin:miter;stroke-miterlimit:4;stroke-dasharray:none;stroke-opacity:1"
       id="path748" />
    <path
       d="m 496.823,647.157 c -6.964,2.437 -47.705,21.589 -54.669,26.116 0,0 -5.224,2.785 -11.144,2.785 -5.92,0 -12.707,-0.319 -10.795,-4.179 1.913,-3.86 4.964,-6.762 8.01,-11.839 5.223,-8.706 9.401,-21.241 11.143,-27.857 1.741,-6.616 3.83,-40.044 4.178,-48.401 l 1.393,-10.448 c 0,0 2.786,14.626 13.58,30.296 10.795,15.669 30.991,38.652 38.304,43.527"
       style="fill:#706d6e;fill-opacity:1;fill-rule:nonzero;stroke:none;stroke-width:0.1"
       id="path750" />
    <path
       d="m 496.823,647.157 c -6.964,2.437 -47.705,21.589 -54.669,26.116 0,0 -5.224,2.785 -11.144,2.785 -5.92,0 -12.707,-0.319 -10.795,-4.179 1.913,-3.86 4.964,-6.762 8.01,-11.839 5.223,-8.706 9.401,-21.241 11.143,-27.857 1.741,-6.616 3.83,-40.044 4.178,-48.401 l 1.393,-10.448 c 0,0 2.786,14.626 13.58,30.296 10.795,15.669 30.991,38.652 38.304,43.527 z"
       style="fill:none;stroke:#231f20;stroke-width:0.5;stroke-linecap:round;stroke-linejoin:round;stroke-miterlimit:4;stroke-dasharray:none;stroke-opacity:1"
       id="path752" />
    <path
       d="m 442.154,673.273 c -9.751,4.178 -20.545,6.964 -25.42,6.615 -4.875,-0.348 -10.214,0.116 -10.214,-1.276"
       style="fill:none;stroke:#231f20;stroke-width:0.5;stroke-linecap:butt;stroke-linejoin:miter;stroke-miterlimit:4;stroke-dasharray:none;stroke-opacity:1"
       id="path754" />
    <path
       d="m 496.823,647.157 c 7.087,-2.951 26.812,-8.706 43.179,-8.706 16.366,0 36.091,5.755 43.178,8.706"
       style="fill:none;stroke:#231f20;stroke-width:0.5;stroke-linecap:butt;stroke-linejoin:miter;stroke-miterlimit:4;stroke-dasharray:none;stroke-opacity:1"
       id="path756" />
    <path
       d="m 447.84,546.754 c 0,0 0.235,-8.821 0.465,-10.214 0.232,-1.393 0.93,-3.25 2.786,-4.411 1.857,-1.16 6.23,-5.77 3.017,0 -2.732,4.907 -4.875,9.983 -6.268,14.625"
       style="fill:#706d6e;fill-opacity:1;fill-rule:nonzero;stroke:none;stroke-width:0.1"
       id="path758" />
    <path
       d="m 447.84,546.754 c 0,0 0.235,-8.821 0.465,-10.214 0.232,-1.393 0.93,-3.25 2.786,-4.411 1.857,-1.16 6.23,-5.77 3.017,0 -2.732,4.907 -4.875,9.983 -6.268,14.625 z"
       style="fill:none;stroke:#231f20;stroke-width:0.5;stroke-linecap:round;stroke-linejoin:round;stroke-miterlimit:4;stroke-dasharray:none;stroke-opacity:1"
       id="path760" />
    <path
       d="m 540.002,665.612 c -0.838,1.365 -3.713,3.714 -7.661,0.928"
       style="fill:none;stroke:#231f20;stroke-width:0.75;stroke-linecap:round;stroke-linejoin:round;stroke-miterlimit:4;stroke-dasharray:none;stroke-opacity:1"
       id="path762" />
    <path
       d="m 614.933,520.954 c 2.732,2.254 4.809,4.012 5.855,5.371 3.482,4.527 9.75,16.715 12.883,29.598"
       style="fill:none;stroke:#231f20;stroke-width:0.5;stroke-linecap:butt;stroke-linejoin:miter;stroke-miterlimit:4;stroke-dasharray:none;stroke-opacity:1"
       id="path764" />
    <path
       d="m 673.484,678.612 c 0.348,-2.089 -10.563,-8.474 -14.044,-13.696 -3.482,-5.224 -9.402,-14.278 -13.581,-27.162 -4.179,-12.883 -8.705,-56.759 -10.795,-64.42"
       style="fill:none;stroke:#231f20;stroke-width:0.5;stroke-linecap:butt;stroke-linejoin:miter;stroke-miterlimit:4;stroke-dasharray:none;stroke-opacity:1"
       id="path766" />
    <path
       d="m 635.064,573.334 c 0,0 -0.929,-13.696 -1.393,-17.411 -0.463,-3.714 -0.347,-16.83 -0.347,-18.455 0,-1.624 -0.231,-3.34 -1.742,-4.875 -2.606,-2.647 -12.051,-7.821 -16.692,-11.675"
       style="fill:none;stroke:#231f20;stroke-width:0.5;stroke-linecap:butt;stroke-linejoin:miter;stroke-miterlimit:4;stroke-dasharray:none;stroke-opacity:1"
       id="path768" />
    <path
       d="m 465.07,520.954 c -2.731,2.254 -4.808,4.012 -5.854,5.371 -3.482,4.527 -9.75,16.715 -12.884,29.598"
       style="fill:none;stroke:#231f20;stroke-width:0.5;stroke-linecap:butt;stroke-linejoin:miter;stroke-miterlimit:4;stroke-dasharray:none;stroke-opacity:1"
       id="path770" />
    <path
       d="m 406.52,678.612 c -0.349,-2.089 10.562,-8.474 14.044,-13.696 3.482,-5.224 9.401,-14.278 13.58,-27.162 4.179,-12.883 8.706,-56.759 10.795,-64.42"
       style="fill:none;stroke:#231f20;stroke-width:0.5;stroke-linecap:butt;stroke-linejoin:miter;stroke-miterlimit:4;stroke-dasharray:none;stroke-opacity:1"
       id="path772" />
    <path
       d="m 444.939,573.334 c 0,0 0.929,-13.696 1.393,-17.411 0.463,-3.714 0.348,-16.83 0.348,-18.455 0,-1.624 0.23,-3.34 1.741,-4.875 2.607,-2.647 12.052,-7.821 16.693,-11.675"
       style="fill:none;stroke:#231f20;stroke-width:0.5;stroke-linecap:butt;stroke-linejoin:miter;stroke-miterlimit:4;stroke-dasharray:none;stroke-opacity:1"
       id="path774" />
    <path
       d="m 569.923,353.129 c -1.715,6.053 5.597,13.713 13.953,13.017 8.358,-0.696 16.367,-5.555 13.582,-16.357"
       style="fill:none;stroke:#231f20;stroke-width:0.5;stroke-linecap:round;stroke-linejoin:round;stroke-miterlimit:4;stroke-dasharray:2.8, 1.8;stroke-dashoffset:0;stroke-opacity:1"
       id="path776" />
    <path
       d="m 544.893,419.148 c 0.332,-6.341 1.706,-34.144 7.966,-48.322"
       style="fill:none;stroke:#231f20;stroke-width:0.5;stroke-linecap:round;stroke-linejoin:round;stroke-miterlimit:4;stroke-dasharray:2.8, 1.8;stroke-dashoffset:0;stroke-opacity:1"
       id="path778" />
    <path
       d="m 633.671,555.923 c -3.83,-3.482 -13.232,-9.75 -22.633,-14.276 -9.402,-4.527 -21.938,-13.927 -30.643,-18.105 -8.706,-4.181 -31.556,-19.944 -32.493,-39.223"
       style="fill:none;stroke:#231f20;stroke-width:0.5;stroke-linecap:round;stroke-linejoin:round;stroke-miterlimit:4;stroke-dasharray:2.8, 1.8;stroke-dashoffset:0;stroke-opacity:1"
       id="path780" />
    <path
       d="m 552.361,447.278 c 2.962,0 16.194,4.18 22.114,22.984 5.92,18.804 17.411,29.25 26.464,38.304 5.242,5.242 10.237,9.286 13.994,12.388"
       style="fill:none;stroke:#231f20;stroke-width:0.5;stroke-linecap:round;stroke-linejoin:round;stroke-miterlimit:4;stroke-dasharray:2.8, 1.8;stroke-dashoffset:0;stroke-opacity:1"
       id="path782" />
    <path
       d="m 527.643,447.278 c -2.963,0 -16.195,4.18 -22.114,22.984 -5.92,18.804 -17.411,29.25 -26.465,38.304 -5.242,5.242 -10.237,9.286 -13.994,12.388"
       style="fill:none;stroke:#231f20;stroke-width:0.5;stroke-linecap:round;stroke-linejoin:round;stroke-miterlimit:4;stroke-dasharray:2.8, 1.8;stroke-dashoffset:0;stroke-opacity:1"
       id="path784" />
    <path
       d="m 552.39,439.269 c 3.281,-5.917 16.862,-18.104 22.781,-14.274 5.999,3.881 0,11.142 -4.526,16.017 -4.527,4.875 -6.937,7.398 -8.866,10.317"
       style="fill:none;stroke:#231f20;stroke-width:0.5;stroke-linecap:round;stroke-linejoin:round;stroke-miterlimit:4;stroke-dasharray:2.8, 1.8;stroke-dashoffset:0;stroke-opacity:1"
       id="path786" />
    <path
       d="m 616.792,432.263 c -1.742,-4.875 -0.879,-19.845 8.174,-27.158"
       style="fill:none;stroke:#231f20;stroke-width:0.5;stroke-linecap:round;stroke-linejoin:round;stroke-miterlimit:4;stroke-dasharray:2.8, 1.8;stroke-dashoffset:0;stroke-opacity:1"
       id="path788" />
    <path
       d="m 574.475,470.262 c 0.349,-4.875 6.964,-16.366 13.929,-21.241 6.964,-4.875 12.884,-6.268 22.285,-2.785 0,0 22.199,-5.398 25.097,6.267"
       style="fill:none;stroke:#231f20;stroke-width:0.5;stroke-linecap:round;stroke-linejoin:round;stroke-miterlimit:4;stroke-dasharray:2.8, 1.8;stroke-dashoffset:0;stroke-opacity:1"
       id="path790" />
    <path
       d="m 588.404,449.021 c -2.438,-4.526 -1.637,-13.289 4.526,-16.714 6.269,-3.482 17.063,-4.179 19.766,3.085"
       style="fill:none;stroke:#231f20;stroke-width:0.5;stroke-linecap:round;stroke-linejoin:round;stroke-miterlimit:4;stroke-dasharray:2.8, 1.8;stroke-dashoffset:0;stroke-opacity:1"
       id="path792" />
    <path
       d="m 610.689,446.236 c -0.696,-3.134 0.128,-10.036 3.831,-12.884 4.526,-3.482 22.242,-2.609 16.519,13.321"
       style="fill:none;stroke:#231f20;stroke-width:0.5;stroke-linecap:round;stroke-linejoin:round;stroke-miterlimit:4;stroke-dasharray:2.8, 1.8;stroke-dashoffset:0;stroke-opacity:1"
       id="path794" />
    <path
       d="m 578.912,428.09 c 2.876,1.431 9.492,3.521 14.018,4.217"
       style="fill:none;stroke:#231f20;stroke-width:0.5;stroke-linecap:round;stroke-linejoin:round;stroke-miterlimit:4;stroke-dasharray:2.8, 1.8;stroke-dashoffset:0;stroke-opacity:1"
       id="path796" />
    <path
       d="m 575.484,466.418 c 1.777,0.014 4.327,-0.296 6.417,-0.644"
       style="fill:none;stroke:#231f20;stroke-width:0.5;stroke-linecap:round;stroke-linejoin:round;stroke-miterlimit:4;stroke-dasharray:2.8, 1.8;stroke-dashoffset:0;stroke-opacity:1"
       id="path798" />
    <path
       d="m 645.163,378.334 c 10.098,-5.223 27.161,-8.706 34.473,-10.098 7.313,-1.394 17.874,-4.239 16.83,-7.721 -1.045,-3.482 -7.08,-12.128 -28.321,-14.217 -21.241,-2.09 -28.902,-5.92 -39,-3.482 -10.099,2.437 -27.161,13.232 -30.295,21.241 -3.134,8.009 -3.83,10.098 -3.83,10.098 -4.179,26.465 -16.413,55.783 -19.088,60.214"
       style="fill:none;stroke:#231f20;stroke-width:0.5;stroke-linecap:round;stroke-linejoin:round;stroke-miterlimit:4;stroke-dasharray:2.8, 1.8;stroke-dashoffset:0;stroke-opacity:1"
       id="path800" />
    <path
       d="m 599.099,363.49 c -2.719,7.06 -0.9,25.76 12.68,22.626"
       style="fill:none;stroke:#231f20;stroke-width:0.5;stroke-linecap:round;stroke-linejoin:round;stroke-miterlimit:4;stroke-dasharray:2.8, 1.8;stroke-dashoffset:0;stroke-opacity:1"
       id="path802" />
    <path
       d="m 645.163,378.334 c -12.884,-4.179 -30.643,4.874 -35.867,9.75 0,0 -7.312,8.357 0,14.277 7.313,5.919 13.929,5.223 22.286,-1.394 8.357,-6.615 11.143,-14.972 13.581,-22.633"
       style="fill:none;stroke:#231f20;stroke-width:0.5;stroke-linecap:round;stroke-linejoin:round;stroke-miterlimit:4;stroke-dasharray:2.8, 1.8;stroke-dashoffset:0;stroke-opacity:1"
       id="path804" />
    <path
       d="m 645.163,378.334 c 0,-4.876 0.696,-25.072 -16.018,-35.518"
       style="fill:none;stroke:#231f20;stroke-width:0.5;stroke-linecap:round;stroke-linejoin:round;stroke-miterlimit:4;stroke-dasharray:2.8, 1.8;stroke-dashoffset:0;stroke-opacity:1"
       id="path806" />
    <path
       d="m 434.841,378.334 c -10.098,-5.223 -27.161,-8.706 -34.473,-10.098 -7.313,-1.394 -17.875,-4.239 -16.83,-7.721 1.045,-3.482 7.08,-12.128 28.321,-14.217 21.241,-2.09 28.901,-5.92 39,-3.482 10.098,2.437 27.16,13.232 30.295,21.241 3.134,8.009 3.83,10.098 3.83,10.098 4.179,26.465 16.412,55.783 19.088,60.214"
       style="fill:none;stroke:#231f20;stroke-width:0.5;stroke-linecap:round;stroke-linejoin:round;stroke-miterlimit:4;stroke-dasharray:2.8, 1.8;stroke-dashoffset:0;stroke-opacity:1"
       id="path808" />
    <path
       d="m 480.905,363.49 c 2.719,7.06 0.9,25.76 -12.681,22.626"
       style="fill:none;stroke:#231f20;stroke-width:0.5;stroke-linecap:round;stroke-linejoin:round;stroke-miterlimit:4;stroke-dasharray:2.8, 1.8;stroke-dashoffset:0;stroke-opacity:1"
       id="path810" />
    <path
       d="m 434.841,378.334 c 12.884,-4.179 30.643,4.874 35.866,9.75 0,0 7.312,8.357 0,14.277 -7.313,5.919 -13.928,5.223 -22.286,-1.394 -8.357,-6.615 -11.142,-14.972 -13.58,-22.633"
       style="fill:none;stroke:#231f20;stroke-width:0.5;stroke-linecap:round;stroke-linejoin:round;stroke-miterlimit:4;stroke-dasharray:2.8, 1.8;stroke-dashoffset:0;stroke-opacity:1"
       id="path812" />
    <path
       d="m 434.841,378.334 c 0,-4.876 -0.697,-25.072 16.018,-35.518"
       style="fill:none;stroke:#231f20;stroke-width:0.5;stroke-linecap:round;stroke-linejoin:round;stroke-miterlimit:4;stroke-dasharray:2.8, 1.8;stroke-dashoffset:0;stroke-opacity:1"
       id="path814" />
    <path
       d="m 610.99,455.099 c -0.997,-2.943 -1.075,-6.956 -0.301,-8.863"
       style="fill:none;stroke:#231f20;stroke-width:0.5;stroke-linecap:round;stroke-linejoin:round;stroke-miterlimit:4;stroke-dasharray:2.8, 1.8;stroke-dashoffset:0;stroke-opacity:1"
       id="path816" />
    <path
       d="m 671.591,451.127 c 7.697,-1.41 24.411,-7.677 32.42,-13.597 8.009,-5.919 17.41,-16.018 22.634,-17.759 5.224,-1.741 19.849,-4.179 24.375,-5.571 4.526,-1.393 9.75,-7.66 8.705,-11.492 -1.044,-3.83 -5.919,-6.267 -20.544,-6.616 -14.625,-0.347 -34.822,0 -42.482,6.965 -7.661,6.964 -8.197,18.858 -9.496,27.884"
       style="fill:none;stroke:#231f20;stroke-width:0.5;stroke-linecap:round;stroke-linejoin:round;stroke-miterlimit:4;stroke-dasharray:2.8, 1.8;stroke-dashoffset:0;stroke-opacity:1"
       id="path818" />
    <path
       d="m 636.341,335.04 c 1.161,2.205 4.227,5.404 9.136,7.983"
       style="fill:none;stroke:#231f20;stroke-width:0.5;stroke-linecap:round;stroke-linejoin:round;stroke-miterlimit:4;stroke-dasharray:2.8, 1.8;stroke-dashoffset:0;stroke-opacity:1"
       id="path820" />
    <path
       d="m 668.145,346.298 c 6.964,-0.348 38.304,-2.437 44.571,1.741 6.268,4.178 11.143,8.357 14.278,19.848 3.133,11.491 -1.051,25.273 8.006,28.132"
       style="fill:none;stroke:#231f20;stroke-width:0.5;stroke-linecap:round;stroke-linejoin:round;stroke-miterlimit:4;stroke-dasharray:2.8, 1.8;stroke-dashoffset:0;stroke-opacity:1"
       id="path822" />
    <path
       d="m 712.716,348.039 c 5.572,2.089 17.411,6.964 26.465,11.143"
       style="fill:none;stroke:#231f20;stroke-width:0.5;stroke-linecap:round;stroke-linejoin:round;stroke-miterlimit:4;stroke-dasharray:2.8, 1.8;stroke-dashoffset:0;stroke-opacity:1"
       id="path824" />
    <path
       d="m 741.156,365.722 c -0.931,7.389 -0.479,18.42 11.953,30.023 10.447,9.75 24.057,8.811 25.609,7.888"
       style="fill:none;stroke:#231f20;stroke-width:0.5;stroke-linecap:round;stroke-linejoin:round;stroke-miterlimit:4;stroke-dasharray:2.8, 1.8;stroke-dashoffset:0;stroke-opacity:1"
       id="path826" />
    <path
       d="m 739.181,359.182 c -1.045,-3.482 -0.349,-8.009 3.83,-2.437 4.179,5.571 14.625,15.669 24.375,21.241 9.75,5.571 27.629,13.702 33.897,15.096"
       style="fill:none;stroke:#231f20;stroke-width:0.5;stroke-linecap:round;stroke-linejoin:round;stroke-miterlimit:4;stroke-dasharray:2.8, 1.8;stroke-dashoffset:0;stroke-opacity:1"
       id="path828" />
    <path
       d="m 800.057,423.618 c -3.421,-6.981 -7.251,-16.382 -7.599,-19.865 -0.348,-3.482 -0.348,-7.312 4.874,-9.401 5.224,-2.09 16.367,-4.527 27.162,0.348 10.794,4.875 10.794,13.928 3.481,34.125"
       style="fill:none;stroke:#231f20;stroke-width:0.5;stroke-linecap:round;stroke-linejoin:round;stroke-miterlimit:4;stroke-dasharray:2.8, 1.8;stroke-dashoffset:0;stroke-opacity:1"
       id="path830" />
    <path
       d="m 581.788,524.274 c 6.658,3.778 22.141,-12.814 15.311,-19.527"
       style="fill:none;stroke:#231f20;stroke-width:0.5;stroke-linecap:round;stroke-linejoin:round;stroke-miterlimit:4;stroke-dasharray:2.8, 1.8;stroke-dashoffset:0;stroke-opacity:1"
       id="path832" />
    <path
       d="m 643.074,523.542 c -1.045,9.75 -9.75,10.792 -11.492,9.051 -1.741,-1.741 -2.437,-5.571 -3.133,-10.098 -0.697,-4.527 -3.483,-24.375 -4.875,-28.902 -1.394,-4.527 -1.956,-16.23 2.678,-20.999"
       style="fill:none;stroke:#231f20;stroke-width:0.5;stroke-linecap:round;stroke-linejoin:round;stroke-miterlimit:4;stroke-dasharray:2.8, 1.8;stroke-dashoffset:0;stroke-opacity:1"
       id="path834" />
    <path
       d="m 646.208,469.566 c 0,0 0.714,-3.765 1.228,-5.887"
       style="fill:none;stroke:#231f20;stroke-width:0.5;stroke-linecap:round;stroke-linejoin:round;stroke-miterlimit:4;stroke-dasharray:2.8, 1.8;stroke-dashoffset:7.5975;stroke-opacity:1"
       id="path836" />
    <path
       d="m 643.431,521.869 c -1.402,1.673 -3.143,5.501 -5.929,-0.071 -2.786,-5.571 -4.876,-16.366 -5.223,-21.937 -0.349,-5.571 -0.349,-17.759 3.134,-17.759 3.482,0 6.316,1.741 9.774,9.054"
       style="fill:none;stroke:#231f20;stroke-width:0.5;stroke-linecap:round;stroke-linejoin:round;stroke-miterlimit:4;stroke-dasharray:2.8, 1.8;stroke-dashoffset:0;stroke-opacity:1"
       id="path838" />
    <path
       d="m 565.898,621.476 c 7.532,-0.088 35.369,-1.132 49.994,-10.186"
       style="fill:none;stroke:#231f20;stroke-width:0.5;stroke-linecap:round;stroke-linejoin:round;stroke-miterlimit:4;stroke-dasharray:2.8, 1.8;stroke-dashoffset:0;stroke-opacity:1"
       id="path840" />
    <path
       d="m 580.426,620.664 c 6.237,-5.892 36.474,-40.646 41.726,-72.922"
       style="fill:none;stroke:#231f20;stroke-width:0.5;stroke-linecap:round;stroke-linejoin:round;stroke-miterlimit:4;stroke-dasharray:2.8, 1.8;stroke-dashoffset:0;stroke-opacity:1"
       id="path842" />
    <path
       d="m 740.45,354.263 c 1.516,-7.617 3.258,-11.796 3.606,-14.929 0.348,-3.134 1.393,-6.964 1.74,-9.054 0.349,-2.089 1.385,-4.815 -3.137,-7.631"
       style="fill:none;stroke:#231f20;stroke-width:0.5;stroke-linecap:round;stroke-linejoin:round;stroke-miterlimit:4;stroke-dasharray:2.8, 1.8;stroke-dashoffset:0;stroke-opacity:1"
       id="path844" />
    <path
       d="m 653.099,344.304 c -3.409,-2.533 -6.891,-7.059 -6.891,-9.846 0,-2.785 4.874,-4.178 10.794,-4.874 5.919,-0.697 27.161,-4.876 35.866,-4.876 8.706,0 47.357,4.528 52.928,5.572 5.573,1.045 19.849,10.446 29.599,14.277 9.75,3.83 20.196,5.223 34.821,3.83 14.625,-1.392 34.474,6.964 45.269,15.67 10.794,8.705 25.419,36.214 26.116,39.348 0.696,3.135 2.438,6.616 -1.045,7.661 -3.482,1.045 -5.224,-1.741 -9.054,-8.358 -3.83,-6.616 -18.455,-28.205 -27.857,-33.08 -9.401,-4.875 -18.455,-8.357 -30.991,-6.964 -12.535,1.393 -31.688,2.786 -42.134,-4.178 -10.446,-6.965 -25.071,-20.894 -37.259,-22.635 -12.187,-1.74 -38.303,-3.83 -45.616,-3.481 -7.313,0.347 -42.577,-0.164 -21.985,13.674"
       style="fill:none;stroke:#231f20;stroke-width:0.5;stroke-linecap:round;stroke-linejoin:round;stroke-miterlimit:4;stroke-dasharray:2.8, 1.8;stroke-dashoffset:0;stroke-opacity:1"
       id="path846" />
    <path
       d="m 833.663,528.183 c 0.928,-12.652 12.06,-51.437 7.534,-63.625"
       style="fill:none;stroke:#231f20;stroke-width:0.5;stroke-linecap:round;stroke-linejoin:round;stroke-miterlimit:4;stroke-dasharray:2.8, 1.8;stroke-dashoffset:0;stroke-opacity:1"
       id="path848" />
    <path
       d="m 827.111,477.695 c 4.695,-2.905 14.097,-9.174 15.489,-17.183 1.394,-8.009 -0.696,-24.026 -5.223,-28.554 -4.527,-4.526 -10.098,-5.222 -14.277,0.697 -4.178,5.92 -7.684,9.067 -10.11,10.455"
       style="fill:none;stroke:#231f20;stroke-width:0.5;stroke-linecap:round;stroke-linejoin:round;stroke-miterlimit:4;stroke-dasharray:2.8, 1.8;stroke-dashoffset:0;stroke-opacity:1"
       id="path850" />
    <path
       d="m 837.377,431.958 c 7.661,-5.222 35.791,-22.584 63.337,-25.22"
       style="fill:none;stroke:#231f20;stroke-width:0.5;stroke-linecap:round;stroke-linejoin:round;stroke-miterlimit:4;stroke-dasharray:2.8, 1.8;stroke-dashoffset:0;stroke-opacity:1"
       id="path852" />
    <path
       d="m 842.013,468.554 c 10.686,-3.167 65.703,-18.371 73.364,-20.691"
       style="fill:none;stroke:#231f20;stroke-width:0.5;stroke-linecap:round;stroke-linejoin:round;stroke-miterlimit:4;stroke-dasharray:2.8, 1.8;stroke-dashoffset:0;stroke-opacity:1"
       id="path854" />
    <path
       d="m 839.818,494.577 c 15.318,-4.466 73.775,-19.886 90.337,-23.493"
       style="fill:none;stroke:#231f20;stroke-width:0.5;stroke-linecap:round;stroke-linejoin:round;stroke-miterlimit:4;stroke-dasharray:2.8, 1.8;stroke-dashoffset:0;stroke-opacity:1"
       id="path856" />
    <path
       d="m 834.663,521.053 c 7.589,-1.692 89.733,-16.677 105.421,-21.721"
       style="fill:none;stroke:#231f20;stroke-width:0.5;stroke-linecap:round;stroke-linejoin:round;stroke-miterlimit:4;stroke-dasharray:2.8, 1.8;stroke-dashoffset:0;stroke-opacity:1"
       id="path858" />
    <path
       d="m 821.004,587.5 c 11.15,2.898 97.624,27.969 116.196,33.54"
       style="fill:none;stroke:#231f20;stroke-width:0.5;stroke-linecap:round;stroke-linejoin:round;stroke-miterlimit:4;stroke-dasharray:2.8, 1.8;stroke-dashoffset:0;stroke-opacity:1"
       id="path860" />
    <path
       d="m 779.38,657.29 c 7.855,9.25 79.169,84.292 89.708,98.075"
       style="fill:none;stroke:#231f20;stroke-width:0.5;stroke-linecap:round;stroke-linejoin:round;stroke-miterlimit:4;stroke-dasharray:2.8, 1.8;stroke-dashoffset:0;stroke-opacity:1"
       id="path862" />
    <path
       d="m 771.301,665.926 c 11.291,15.007 67.237,84.651 81.05,103.453"
       style="fill:none;stroke:#231f20;stroke-width:0.5;stroke-linecap:round;stroke-linejoin:round;stroke-miterlimit:4;stroke-dasharray:2.8, 1.8;stroke-dashoffset:0;stroke-opacity:1"
       id="path864" />
    <path
       d="m 540.002,738.04 78.14,-22.628"
       style="fill:none;stroke:#231f20;stroke-width:0.5;stroke-linecap:round;stroke-linejoin:round;stroke-miterlimit:4;stroke-dasharray:2.8, 1.8;stroke-dashoffset:0;stroke-opacity:1"
       id="path866" />
    <path
       d="M 555.211,795.877 620.3,716.765"
       style="fill:none;stroke:#231f20;stroke-width:0.5;stroke-linecap:round;stroke-linejoin:round;stroke-miterlimit:4;stroke-dasharray:2.8, 1.8;stroke-dashoffset:0;stroke-opacity:1"
       id="path868" />
    <path
       d="M 624.205,826.618 636.354,718.61"
       style="fill:none;stroke:#231f20;stroke-width:0.5;stroke-linecap:round;stroke-linejoin:round;stroke-miterlimit:4;stroke-dasharray:2.8, 1.8;stroke-dashoffset:0;stroke-opacity:1"
       id="path870" />
    <path
       d="M 681.377,832.058 674.908,709.895"
       style="fill:none;stroke:#231f20;stroke-width:0.5;stroke-linecap:round;stroke-linejoin:round;stroke-miterlimit:4;stroke-dasharray:2.8, 1.8;stroke-dashoffset:0;stroke-opacity:1"
       id="path872" />
    <path
       d="M 734.843,826.096 708.72,702.126"
       style="fill:none;stroke:#231f20;stroke-width:0.5;stroke-linecap:round;stroke-linejoin:round;stroke-miterlimit:4;stroke-dasharray:2.8, 1.8;stroke-dashoffset:0;stroke-opacity:1"
       id="path874" />
    <path
       d="m 544.443,661.708 c -1.865,-0.135 -5.138,1.814 -2.12,2.511 3.019,0.697 10.229,-0.403 9.526,-2.058"
       style="fill:none;stroke:#231f20;stroke-width:0.5;stroke-linecap:round;stroke-linejoin:round;stroke-miterlimit:4;stroke-dasharray:2.8, 1.8;stroke-dashoffset:0;stroke-opacity:1"
       id="path876" />
    <path
       d="m 510.08,353.129 c 1.716,6.053 -5.596,13.713 -13.954,13.017 -8.357,-0.696 -16.366,-5.555 -13.58,-16.357"
       style="fill:none;stroke:#231f20;stroke-width:0.5;stroke-linecap:round;stroke-linejoin:round;stroke-miterlimit:4;stroke-dasharray:2.8, 1.8;stroke-dashoffset:0;stroke-opacity:1"
       id="path878" />
    <path
       d="m 518.547,355.392 c -1.605,5.612 1.258,8.316 5.088,12.495 3.831,4.179 10.099,6.616 16.367,6.616 6.268,0 12.536,-2.437 16.366,-6.616 3.83,-4.179 6.693,-6.883 5.087,-12.495"
       style="fill:none;stroke:#231f20;stroke-width:0.5;stroke-linecap:round;stroke-linejoin:round;stroke-miterlimit:4;stroke-dasharray:2.8, 1.8;stroke-dashoffset:0;stroke-opacity:1"
       id="path880" />
    <path
       d="m 540.002,490.111 c -4.527,0 -9.054,-4.875 -10.447,-13.58 -1.392,-8.706 -2.437,-32.385 -1.741,-42.831 0.696,-10.447 8.357,-16.714 12.188,-16.714 3.83,0 11.491,6.267 12.187,16.714 0.696,10.446 -0.348,34.125 -1.741,42.831 -1.393,8.705 -5.919,13.58 -10.446,13.58 z"
       style="fill:none;stroke:#231f20;stroke-width:0.5;stroke-linecap:round;stroke-linejoin:round;stroke-miterlimit:4;stroke-dasharray:2.8, 1.8;stroke-dashoffset:0;stroke-opacity:1"
       id="path882" />
    <path
       d="m 535.111,419.148 c -0.332,-6.341 -1.706,-34.144 -7.967,-48.322"
       style="fill:none;stroke:#231f20;stroke-width:0.5;stroke-linecap:round;stroke-linejoin:round;stroke-miterlimit:4;stroke-dasharray:2.8, 1.8;stroke-dashoffset:0;stroke-opacity:1"
       id="path884" />
    <path
       d="m 529.208,494.986 c -0.349,4.526 -1.742,35.17 -0.698,46.312 1.045,11.143 7.661,35.17 11.492,35.17 3.83,0 10.446,-24.027 11.491,-35.17 1.045,-11.142 -0.348,-41.786 -0.697,-46.312"
       style="fill:none;stroke:#231f20;stroke-width:0.5;stroke-linecap:round;stroke-linejoin:round;stroke-miterlimit:4;stroke-dasharray:2.8, 1.8;stroke-dashoffset:0;stroke-opacity:1"
       id="path886" />
    <path
       d="m 446.332,555.923 c 3.831,-3.482 13.232,-9.75 22.634,-14.276 9.402,-4.527 21.938,-13.927 30.643,-18.105 8.705,-4.181 31.556,-19.944 32.493,-39.223"
       style="fill:none;stroke:#231f20;stroke-width:0.5;stroke-linecap:round;stroke-linejoin:round;stroke-miterlimit:4;stroke-dasharray:2.8, 1.8;stroke-dashoffset:0;stroke-opacity:1"
       id="path888" />
    <path
       d="m 527.613,439.269 c -3.281,-5.917 -16.862,-18.104 -22.78,-14.274 -5.999,3.881 0,11.142 4.526,16.017 4.526,4.875 6.935,7.398 8.865,10.317"
       style="fill:none;stroke:#231f20;stroke-width:0.5;stroke-linecap:round;stroke-linejoin:round;stroke-miterlimit:4;stroke-dasharray:2.8, 1.8;stroke-dashoffset:0;stroke-opacity:1"
       id="path890" />
    <path
       d="m 463.212,432.263 c 1.742,-4.875 0.879,-19.845 -8.174,-27.158"
       style="fill:none;stroke:#231f20;stroke-width:0.5;stroke-linecap:round;stroke-linejoin:round;stroke-miterlimit:4;stroke-dasharray:2.8, 1.8;stroke-dashoffset:0;stroke-opacity:1"
       id="path892" />
    <path
       d="m 505.529,470.262 c -0.349,-4.875 -6.965,-16.366 -13.929,-21.241 -6.965,-4.875 -12.884,-6.268 -22.286,-2.785 0,0 -22.198,-5.398 -25.096,6.267"
       style="fill:none;stroke:#231f20;stroke-width:0.5;stroke-linecap:round;stroke-linejoin:round;stroke-miterlimit:4;stroke-dasharray:2.8, 1.8;stroke-dashoffset:0;stroke-opacity:1"
       id="path894" />
    <path
       d="m 491.6,449.021 c 2.438,-4.526 1.636,-13.289 -4.527,-16.714 -6.268,-3.482 -17.063,-4.179 -19.765,3.085"
       style="fill:none;stroke:#231f20;stroke-width:0.5;stroke-linecap:round;stroke-linejoin:round;stroke-miterlimit:4;stroke-dasharray:2.8, 1.8;stroke-dashoffset:0;stroke-opacity:1"
       id="path896" />
    <path
       d="m 469.314,446.236 c 0.696,-3.134 -0.128,-10.036 -3.83,-12.884 -4.527,-3.482 -22.242,-2.609 -16.519,13.321"
       style="fill:none;stroke:#231f20;stroke-width:0.5;stroke-linecap:round;stroke-linejoin:round;stroke-miterlimit:4;stroke-dasharray:2.8, 1.8;stroke-dashoffset:0;stroke-opacity:1"
       id="path898" />
    <path
       d="m 501.091,428.09 c -2.875,1.431 -9.491,3.521 -14.018,4.217"
       style="fill:none;stroke:#231f20;stroke-width:0.5;stroke-linecap:round;stroke-linejoin:round;stroke-miterlimit:4;stroke-dasharray:2.8, 1.8;stroke-dashoffset:0;stroke-opacity:1"
       id="path900" />
    <path
       d="m 504.519,466.418 c -1.776,0.014 -4.292,-0.29 -6.381,-0.637"
       style="fill:none;stroke:#231f20;stroke-width:0.5;stroke-linecap:round;stroke-linejoin:round;stroke-miterlimit:4;stroke-dasharray:2.8, 1.8;stroke-dashoffset:0;stroke-opacity:1"
       id="path902" />
    <path
       d="m 469.013,455.099 c 0.997,-2.943 1.076,-6.956 0.301,-8.863"
       style="fill:none;stroke:#231f20;stroke-width:0.5;stroke-linecap:round;stroke-linejoin:round;stroke-miterlimit:4;stroke-dasharray:2.8, 1.8;stroke-dashoffset:0;stroke-opacity:1"
       id="path904" />
    <path
       d="m 408.412,451.127 c -7.697,-1.41 -24.411,-7.677 -32.419,-13.597 -8.009,-5.919 -17.411,-16.018 -22.634,-17.759 -5.224,-1.741 -19.849,-4.179 -24.375,-5.571 -4.527,-1.393 -9.75,-7.66 -8.706,-11.492 1.045,-3.83 5.92,-6.267 20.545,-6.616 14.625,-0.347 34.821,0 42.482,6.965 7.66,6.964 8.196,18.858 9.495,27.884"
       style="fill:none;stroke:#231f20;stroke-width:0.5;stroke-linecap:round;stroke-linejoin:round;stroke-miterlimit:4;stroke-dasharray:2.8, 1.8;stroke-dashoffset:0;stroke-opacity:1"
       id="path906" />
    <path
       d="m 443.662,335.04 c -1.161,2.205 -4.226,5.404 -9.135,7.983"
       style="fill:none;stroke:#231f20;stroke-width:0.5;stroke-linecap:round;stroke-linejoin:round;stroke-miterlimit:4;stroke-dasharray:2.8, 1.8;stroke-dashoffset:0;stroke-opacity:1"
       id="path908" />
    <path
       d="m 411.859,346.298 c -6.965,-0.348 -38.304,-2.437 -44.571,1.741 -6.269,4.178 -11.144,8.357 -14.278,19.848 -3.134,11.491 1.05,25.273 -8.006,28.132"
       style="fill:none;stroke:#231f20;stroke-width:0.5;stroke-linecap:round;stroke-linejoin:round;stroke-miterlimit:4;stroke-dasharray:2.8, 1.8;stroke-dashoffset:0;stroke-opacity:1"
       id="path910" />
    <path
       d="m 367.288,348.039 c -5.573,2.089 -17.412,6.964 -26.465,11.143"
       style="fill:none;stroke:#231f20;stroke-width:0.5;stroke-linecap:round;stroke-linejoin:round;stroke-miterlimit:4;stroke-dasharray:2.8, 1.8;stroke-dashoffset:0;stroke-opacity:1"
       id="path912" />
    <path
       d="m 338.848,365.722 c 0.93,7.389 0.479,18.42 -11.954,30.023 -10.446,9.75 -24.057,8.811 -25.608,7.888"
       style="fill:none;stroke:#231f20;stroke-width:0.5;stroke-linecap:round;stroke-linejoin:round;stroke-miterlimit:4;stroke-dasharray:2.8, 1.8;stroke-dashoffset:0;stroke-opacity:1"
       id="path914" />
    <path
       d="m 340.823,359.182 c 1.045,-3.482 0.348,-8.009 -3.83,-2.437 -4.179,5.571 -14.625,15.669 -24.375,21.241 -9.75,5.571 -27.629,13.702 -33.897,15.096"
       style="fill:none;stroke:#231f20;stroke-width:0.5;stroke-linecap:round;stroke-linejoin:round;stroke-miterlimit:4;stroke-dasharray:2.8, 1.8;stroke-dashoffset:0;stroke-opacity:1"
       id="path916" />
    <path
       d="m 279.947,423.618 c 3.421,-6.981 7.251,-16.382 7.598,-19.865 0.349,-3.482 0.349,-7.312 -4.875,-9.401 -5.222,-2.09 -16.365,-4.527 -27.16,0.348 -10.795,4.875 -10.795,13.928 -3.482,34.125"
       style="fill:none;stroke:#231f20;stroke-width:0.5;stroke-linecap:round;stroke-linejoin:round;stroke-miterlimit:4;stroke-dasharray:2.8, 1.8;stroke-dashoffset:0;stroke-opacity:1"
       id="path918" />
    <path
       d="m 498.216,524.274 c -6.658,3.778 -22.141,-12.814 -15.312,-19.527"
       style="fill:none;stroke:#231f20;stroke-width:0.5;stroke-linecap:round;stroke-linejoin:round;stroke-miterlimit:4;stroke-dasharray:2.8, 1.8;stroke-dashoffset:0;stroke-opacity:1"
       id="path920" />
    <path
       d="m 436.93,523.542 c 1.045,9.75 9.75,10.792 11.491,9.051 1.742,-1.741 2.438,-5.571 3.134,-10.098 0.696,-4.527 3.483,-24.375 4.875,-28.902 1.393,-4.527 1.956,-16.23 -2.679,-20.999"
       style="fill:none;stroke:#231f20;stroke-width:0.5;stroke-linecap:round;stroke-linejoin:round;stroke-miterlimit:4;stroke-dasharray:2.8, 1.8;stroke-dashoffset:0;stroke-opacity:1"
       id="path922" />
    <path
       d="m 433.796,469.566 c 0,0 -0.715,-3.765 -1.228,-5.887"
       style="fill:none;stroke:#231f20;stroke-width:0.5;stroke-linecap:round;stroke-linejoin:round;stroke-miterlimit:4;stroke-dasharray:2.8, 1.8;stroke-dashoffset:7.5038;stroke-opacity:1"
       id="path924" />
    <path
       d="m 436.573,521.869 c 1.402,1.673 3.143,5.501 5.928,-0.071 2.787,-5.571 4.875,-16.366 5.224,-21.937 0.348,-5.571 0.348,-17.759 -3.134,-17.759 -3.482,0 -6.317,1.741 -9.775,9.054"
       style="fill:none;stroke:#231f20;stroke-width:0.5;stroke-linecap:round;stroke-linejoin:round;stroke-miterlimit:4;stroke-dasharray:2.8, 1.8;stroke-dashoffset:0;stroke-opacity:1"
       id="path926" />
    <path
       d="m 528.312,516.581 c -32.233,3.833 -32.882,22.628 -32.186,30.985 0.697,8.357 17.412,33.777 21.59,39.698 4.179,5.92 15.669,12.188 22.286,12.188 6.616,0 18.107,-6.268 22.286,-12.188 4.178,-5.921 20.892,-31.341 21.588,-39.698 0.698,-8.357 0.048,-27.152 -32.184,-30.985"
       style="fill:none;stroke:#231f20;stroke-width:0.5;stroke-linecap:round;stroke-linejoin:round;stroke-miterlimit:4;stroke-dasharray:2.8, 1.8;stroke-dashoffset:0;stroke-opacity:1"
       id="path928" />
    <path
       d="m 478.746,536.124 c -0.666,37.305 50.462,77.604 61.256,85.96 10.794,-8.356 61.922,-48.655 61.255,-85.96"
       style="fill:none;stroke:#231f20;stroke-width:0.5;stroke-linecap:round;stroke-linejoin:round;stroke-miterlimit:4;stroke-dasharray:2.8, 1.8;stroke-dashoffset:0;stroke-opacity:1"
       id="path930" />
    <path
       d="m 552.057,631.955 c 21.579,-14.287 57.586,-48.706 61.49,-89.057"
       style="fill:none;stroke:#231f20;stroke-width:0.5;stroke-linecap:round;stroke-linejoin:round;stroke-miterlimit:4;stroke-dasharray:2.8, 1.8;stroke-dashoffset:0;stroke-opacity:1"
       id="path932" />
    <path
       d="m 466.457,542.898 c 3.902,40.344 39.9,74.761 61.48,89.05"
       style="fill:none;stroke:#231f20;stroke-width:0.5;stroke-linecap:round;stroke-linejoin:round;stroke-miterlimit:4;stroke-dasharray:2.8, 1.8;stroke-dashoffset:0;stroke-opacity:1"
       id="path934" />
    <path
       d="m 514.106,621.476 c -7.533,-0.088 -35.37,-1.132 -49.995,-10.186"
       style="fill:none;stroke:#231f20;stroke-width:0.5;stroke-linecap:round;stroke-linejoin:round;stroke-miterlimit:4;stroke-dasharray:2.8, 1.8;stroke-dashoffset:0;stroke-opacity:1"
       id="path936" />
    <path
       d="m 499.578,620.664 c -6.237,-5.892 -36.475,-40.646 -41.726,-72.922"
       style="fill:none;stroke:#231f20;stroke-width:0.5;stroke-linecap:round;stroke-linejoin:round;stroke-miterlimit:4;stroke-dasharray:2.8, 1.8;stroke-dashoffset:0;stroke-opacity:1"
       id="path938" />
    <path
       d="m 339.553,354.263 c -1.516,-7.617 -3.257,-11.796 -3.605,-14.929 -0.349,-3.134 -1.393,-6.964 -1.741,-9.054 -0.348,-2.089 -1.385,-4.815 3.137,-7.631"
       style="fill:none;stroke:#231f20;stroke-width:0.5;stroke-linecap:round;stroke-linejoin:round;stroke-miterlimit:4;stroke-dasharray:2.8, 1.8;stroke-dashoffset:0;stroke-opacity:1"
       id="path940" />
    <path
       d="m 426.904,344.304 c 3.41,-2.533 6.892,-7.059 6.892,-9.846 0,-2.785 -4.875,-4.178 -10.795,-4.874 -5.919,-0.697 -27.161,-4.876 -35.866,-4.876 -8.705,0 -47.357,4.528 -52.928,5.572 -5.572,1.045 -19.848,10.446 -29.598,14.277 -9.751,3.83 -20.197,5.223 -34.822,3.83 -14.625,-1.392 -34.473,6.964 -45.268,15.67 -10.795,8.705 -25.42,36.214 -26.116,39.348 -0.696,3.135 -2.438,6.616 1.045,7.661 3.481,1.045 5.222,-1.741 9.053,-8.358 3.831,-6.616 18.456,-28.205 27.857,-33.08 9.402,-4.875 18.456,-8.357 30.991,-6.964 12.536,1.393 31.688,2.786 42.135,-4.178 10.446,-6.965 25.071,-20.894 37.259,-22.635 12.187,-1.74 38.303,-3.83 45.616,-3.481 7.312,0.347 42.577,-0.164 21.984,13.674"
       style="fill:none;stroke:#231f20;stroke-width:0.5;stroke-linecap:round;stroke-linejoin:round;stroke-miterlimit:4;stroke-dasharray:2.8, 1.8;stroke-dashoffset:0;stroke-opacity:1"
       id="path942" />
    <path
       d="m 246.341,528.183 c -0.929,-12.652 -12.061,-51.437 -7.534,-63.625"
       style="fill:none;stroke:#231f20;stroke-width:0.5;stroke-linecap:round;stroke-linejoin:round;stroke-miterlimit:4;stroke-dasharray:2.8, 1.8;stroke-dashoffset:0;stroke-opacity:1"
       id="path944" />
    <path
       d="m 252.893,477.695 c -4.695,-2.905 -14.098,-9.174 -15.49,-17.183 -1.393,-8.009 0.696,-24.026 5.223,-28.554 4.527,-4.526 10.098,-5.222 14.277,0.697 4.179,5.92 7.685,9.067 10.11,10.455"
       style="fill:none;stroke:#231f20;stroke-width:0.5;stroke-linecap:round;stroke-linejoin:round;stroke-miterlimit:4;stroke-dasharray:2.8, 1.8;stroke-dashoffset:0;stroke-opacity:1"
       id="path946" />
    <path
       d="m 242.626,431.958 c -7.661,-5.222 -35.79,-22.584 -63.336,-25.22"
       style="fill:none;stroke:#231f20;stroke-width:0.5;stroke-linecap:round;stroke-linejoin:round;stroke-miterlimit:4;stroke-dasharray:2.8, 1.8;stroke-dashoffset:0;stroke-opacity:1"
       id="path948" />
    <path
       d="m 237.991,468.554 c -10.686,-3.167 -65.704,-18.371 -73.365,-20.691"
       style="fill:none;stroke:#231f20;stroke-width:0.5;stroke-linecap:round;stroke-linejoin:round;stroke-miterlimit:4;stroke-dasharray:2.8, 1.8;stroke-dashoffset:0;stroke-opacity:1"
       id="path950" />
    <path
       d="m 240.186,494.577 c -15.319,-4.466 -73.775,-19.886 -90.338,-23.493"
       style="fill:none;stroke:#231f20;stroke-width:0.5;stroke-linecap:round;stroke-linejoin:round;stroke-miterlimit:4;stroke-dasharray:2.8, 1.8;stroke-dashoffset:0;stroke-opacity:1"
       id="path952" />
    <path
       d="m 245.341,521.053 c -7.59,-1.692 -89.733,-16.677 -105.421,-21.721"
       style="fill:none;stroke:#231f20;stroke-width:0.5;stroke-linecap:round;stroke-linejoin:round;stroke-miterlimit:4;stroke-dasharray:2.8, 1.8;stroke-dashoffset:0;stroke-opacity:1"
       id="path954" />
    <path
       d="m 259,587.5 c -11.151,2.898 -97.624,27.969 -116.196,33.54"
       style="fill:none;stroke:#231f20;stroke-width:0.5;stroke-linecap:round;stroke-linejoin:round;stroke-miterlimit:4;stroke-dasharray:2.8, 1.8;stroke-dashoffset:0;stroke-opacity:1"
       id="path956" />
    <path
       d="m 300.623,657.29 c -7.854,9.25 -79.168,84.292 -89.707,98.075"
       style="fill:none;stroke:#231f20;stroke-width:0.5;stroke-linecap:round;stroke-linejoin:round;stroke-miterlimit:4;stroke-dasharray:2.8, 1.8;stroke-dashoffset:0;stroke-opacity:1"
       id="path958" />
    <path
       d="m 308.703,665.926 c -11.291,15.007 -67.237,84.651 -81.05,103.453"
       style="fill:none;stroke:#231f20;stroke-width:0.5;stroke-linecap:round;stroke-linejoin:round;stroke-miterlimit:4;stroke-dasharray:2.8, 1.8;stroke-dashoffset:0;stroke-opacity:1"
       id="path960" />
    <path
       d="m 540.002,738.04 -78.14,-22.628"
       style="fill:none;stroke:#231f20;stroke-width:0.5;stroke-linecap:round;stroke-linejoin:round;stroke-miterlimit:4;stroke-dasharray:2.8, 1.8;stroke-dashoffset:0;stroke-opacity:1"
       id="path962" />
    <path
       d="M 524.792,795.877 459.703,716.765"
       style="fill:none;stroke:#231f20;stroke-width:0.5;stroke-linecap:round;stroke-linejoin:round;stroke-miterlimit:4;stroke-dasharray:2.8, 1.8;stroke-dashoffset:0;stroke-opacity:1"
       id="path964" />
    <path
       d="M 455.799,826.618 443.65,718.61"
       style="fill:none;stroke:#231f20;stroke-width:0.5;stroke-linecap:round;stroke-linejoin:round;stroke-miterlimit:4;stroke-dasharray:2.8, 1.8;stroke-dashoffset:0;stroke-opacity:1"
       id="path966" />
    <path
       d="m 398.626,832.058 6.469,-122.163"
       style="fill:none;stroke:#231f20;stroke-width:0.5;stroke-linecap:round;stroke-linejoin:round;stroke-miterlimit:4;stroke-dasharray:2.8, 1.8;stroke-dashoffset:0;stroke-opacity:1"
       id="path968" />
    <path
       d="m 345.161,826.096 26.123,-123.97"
       style="fill:none;stroke:#231f20;stroke-width:0.5;stroke-linecap:round;stroke-linejoin:round;stroke-miterlimit:4;stroke-dasharray:2.8, 1.8;stroke-dashoffset:0;stroke-opacity:1"
       id="path970" />
    <path
       d="m 535.561,661.708 c 1.864,-0.135 5.137,1.814 2.12,2.511 -3.019,0.697 -10.23,-0.403 -9.527,-2.058"
       style="fill:none;stroke:#231f20;stroke-width:0.5;stroke-linecap:round;stroke-linejoin:round;stroke-miterlimit:4;stroke-dasharray:2.8, 1.8;stroke-dashoffset:0;stroke-opacity:1"
       id="path972" />
    <path
       d="m 576.246,351.222 c 2.408,1.692 10.417,1.923 17.38,-1.325"
       style="fill:none;stroke:#231f20;stroke-width:0.5;stroke-linecap:round;stroke-linejoin:round;stroke-miterlimit:4;stroke-dasharray:2.8, 1.8;stroke-dashoffset:0;stroke-opacity:1"
       id="path974" />
    <path
       d="m 503.757,351.222 c -2.407,1.692 -10.416,1.923 -17.381,-1.325"
       style="fill:none;stroke:#231f20;stroke-width:0.5;stroke-linecap:round;stroke-linejoin:round;stroke-miterlimit:4;stroke-dasharray:2.8, 1.8;stroke-dashoffset:0;stroke-opacity:1"
       id="path976" />
    <path
       d="m 526.958,639.542 c 0,-16.584 11.119,-17.458 13.044,-17.458 1.923,0 13.042,0.874 13.042,17.458"
       style="fill:none;stroke:#231f20;stroke-width:0.5;stroke-linecap:round;stroke-linejoin:round;stroke-miterlimit:4;stroke-dasharray:2.8, 1.8;stroke-dashoffset:0;stroke-opacity:1"
       id="path978" />
  </g>
</svg>
