<?xml version="1.0" encoding="UTF-8" standalone="no"?>
<!-- Created with Inkscape (http://www.inkscape.org/) -->

<svg
   version="1.1"
   id="svg2"
   width="1440"
   height="1344"
   viewBox="0 0 1440 1344"
   xmlns="http://www.w3.org/2000/svg"
   xmlns:svg="http://www.w3.org/2000/svg">
  <defs
     id="defs6" />
  <g
     id="g10">
    <path
       d="m 286.076,336.553 c 0,-2.115 1.715,-3.83 3.83,-3.83 2.115,0 3.83,1.715 3.83,3.83 0,2.115 -1.715,3.83 -3.83,3.83 -2.115,0 -3.83,-1.715 -3.83,-3.83"
       style="fill:#ffffff;fill-opacity:1;fill-rule:nonzero;stroke:none;stroke-width:0.1"
       id="path670" />
    <path
       d="m 286.076,336.553 c 0,-2.115 1.715,-3.83 3.83,-3.83 2.115,0 3.83,1.715 3.83,3.83 0,2.115 -1.715,3.83 -3.83,3.83 -2.115,0 -3.83,-1.715 -3.83,-3.83 z"
       style="fill:none;stroke:#231f20;stroke-width:0.5;stroke-linecap:butt;stroke-linejoin:miter;stroke-miterlimit:4;stroke-dasharray:none;stroke-opacity:1"
       id="path672" />
    <path
       d="m 793.928,336.553 c 0,-2.115 -1.716,-3.83 -3.831,-3.83 -2.114,0 -3.83,1.715 -3.83,3.83 0,2.115 1.716,3.83 3.83,3.83 2.115,0 3.831,-1.715 3.831,-3.83"
       style="fill:#ffffff;fill-opacity:1;fill-rule:nonzero;stroke:none;stroke-width:0.1"
       id="path674" />
    <path
       d="m 793.928,336.553 c 0,-2.115 -1.716,-3.83 -3.831,-3.83 -2.114,0 -3.83,1.715 -3.83,3.83 0,2.115 1.716,3.83 3.83,3.83 2.115,0 3.831,-1.715 3.831,-3.83 z"
       style="fill:none;stroke:#231f20;stroke-width:0.5;stroke-linecap:butt;stroke-linejoin:miter;stroke-miterlimit:4;stroke-dasharray:none;stroke-opacity:1"
       id="path676" />
    <path
       d="m 593.86,355.934 c 0,-2.052 -1.664,-3.717 -3.715,-3.717 -2.052,0 -3.715,1.665 -3.715,3.717 0,2.051 1.663,3.713 3.715,3.713 2.051,0 3.715,-1.662 3.715,-3.713"
       style="fill:#ffffff;fill-opacity:1;fill-rule:nonzero;stroke:none;stroke-width:0.1"
       id="path678" />
    <path
       d="m 593.86,355.934 c 0,-2.052 -1.664,-3.717 -3.715,-3.717 -2.052,0 -3.715,1.665 -3.715,3.717 0,2.051 1.663,3.713 3.715,3.713 2.051,0 3.715,-1.662 3.715,-3.713 z"
       style="fill:none;stroke:#231f20;stroke-width:0.5;stroke-linecap:butt;stroke-linejoin:miter;stroke-miterlimit:4;stroke-dasharray:none;stroke-opacity:1"
       id="path680" />
    <path
       d="m 486.144,355.934 c 0,-2.052 1.663,-3.717 3.715,-3.717 2.051,0 3.715,1.665 3.715,3.717 0,2.051 -1.664,3.713 -3.715,3.713 -2.052,0 -3.715,-1.662 -3.715,-3.713"
       style="fill:#ffffff;fill-opacity:1;fill-rule:nonzero;stroke:none;stroke-width:0.1"
       id="path682" />
    <path
       d="m 486.144,355.934 c 0,-2.052 1.663,-3.717 3.715,-3.717 2.051,0 3.715,1.665 3.715,3.717 0,2.051 -1.664,3.713 -3.715,3.713 -2.052,0 -3.715,-1.662 -3.715,-3.713 z"
       style="fill:none;stroke:#231f20;stroke-width:0.5;stroke-linecap:butt;stroke-linejoin:miter;stroke-miterlimit:4;stroke-dasharray:none;stroke-opacity:1"
       id="path684" />
    <path
       d="m 540.002,340.626 c -13.232,0 -28.09,6.716 -34.126,11.361 -6.035,4.64 -3.249,10.911 -3.249,10.911 0,0 -12.072,-1.858 -20.893,-5.109 -8.82,-3.249 -28.786,-16.714 -32.965,-25.072 -4.178,-8.356 -22.285,-15.321 -61.749,-16.714 -39.464,-1.392 -87.286,17.18 -132.322,42.251 -45.035,25.072 -62.215,52.929 -64.536,69.643 -2.323,16.715 -9.75,25.537 -15.322,32.036 -5.572,6.499 -32.5,46.428 -25.536,136.036 6.965,89.608 62.215,171.322 144.858,208.929 82.642,37.607 185.353,30.638 216.65,3.83 29.19,-25.001 29.438,-40.831 29.19,-50.349 0,9.519 0,25.348 29.19,50.349 31.299,26.807 134.007,33.777 216.649,-3.83 82.643,-37.607 137.894,-119.321 144.858,-208.929 6.965,-89.608 -19.964,-129.537 -25.535,-136.036 -5.572,-6.499 -12.999,-15.321 -15.322,-32.036 -2.322,-16.714 -19.502,-44.571 -64.537,-69.643 -45.035,-25.071 -92.857,-43.643 -132.321,-42.251 -39.464,1.393 -57.571,8.358 -61.75,16.714 -4.179,8.358 -24.144,21.823 -32.965,25.072 -8.82,3.251 -20.893,5.109 -20.893,5.109 0,0 2.786,-6.271 -3.25,-10.911 -6.035,-4.645 -20.892,-11.361 -34.124,-11.361"
       style="fill:#ffffff;fill-opacity:1;fill-rule:nonzero;stroke:none;stroke-width:0.1"
       id="path686" />
    <path
       d="m 540.002,340.626 c -13.232,0 -28.09,6.716 -34.126,11.361 -6.035,4.64 -3.249,10.911 -3.249,10.911 0,0 -12.072,-1.858 -20.893,-5.109 -8.82,-3.249 -28.786,-16.714 -32.965,-25.072 -4.178,-8.356 -22.285,-15.321 -61.749,-16.714 -39.464,-1.392 -87.286,17.18 -132.322,42.251 -45.035,25.072 -62.215,52.929 -64.536,69.643 -2.323,16.715 -9.75,25.537 -15.322,32.036 -5.572,6.499 -32.5,46.428 -25.536,136.036 6.965,89.608 62.215,171.322 144.858,208.929 82.642,37.607 185.353,30.638 216.65,3.83 29.19,-25.001 29.438,-40.831 29.19,-50.349 0,9.519 0,25.348 29.19,50.349 31.299,26.807 134.007,33.777 216.649,-3.83 82.643,-37.607 137.894,-119.321 144.858,-208.929 6.965,-89.608 -19.964,-129.537 -25.535,-136.036 -5.572,-6.499 -12.999,-15.321 -15.322,-32.036 -2.322,-16.714 -19.502,-44.571 -64.537,-69.643 -45.035,-25.071 -92.857,-43.643 -132.321,-42.251 -39.464,1.393 -57.571,8.358 -61.75,16.714 -4.179,8.358 -24.144,21.823 -32.965,25.072 -8.82,3.251 -20.893,5.109 -20.893,5.109 0,0 2.786,-6.271 -3.25,-10.911 -6.035,-4.645 -20.892,-11.361 -34.124,-11.361 z"
       style="fill:none;stroke:#231f20;stroke-width:0.75;stroke-linecap:round;stroke-linejoin:round;stroke-miterlimit:4;stroke-dasharray:none;stroke-opacity:1"
       id="path688" />
    <path
       d="m 774.54,333.697 c 2.015,6.45 8.739,15.56 15.944,20.843 6.964,5.107 20.684,9.016 26.708,-0.714"
       style="fill:none;stroke:#231f20;stroke-width:0.5;stroke-linecap:butt;stroke-linejoin:miter;stroke-miterlimit:4;stroke-dasharray:none;stroke-opacity:1"
       id="path690" />
    <path
       d="M 540.002,758.379 V 654.469"
       style="fill:none;stroke:#231f20;stroke-width:0.75;stroke-linecap:round;stroke-linejoin:round;stroke-miterlimit:4;stroke-dasharray:none;stroke-opacity:1"
       id="path692" />
    <path
       d="m 590.145,663.522 c 6.616,6.616 12.884,15.67 18.455,30.295 5.571,14.625 11.839,24.027 23.679,23.331 11.839,-0.697 38.651,-3.482 51.536,-10.099"
       style="fill:none;stroke:#231f20;stroke-width:0.5;stroke-linecap:butt;stroke-linejoin:miter;stroke-miterlimit:4;stroke-dasharray:none;stroke-opacity:1"
       id="path694" />
    <path
       d="m 628.1,579.253 c 0.478,-6.206 1.068,-12.151 0.811,-17.642 -0.257,-5.491 -2.072,-24.547 -2.416,-27.555 -0.345,-3.007 -3.276,-19.392 -4.779,-22.356 1.394,3.018 3.714,19.5 3.947,22.518 0.232,3.019 1.626,21.59 1.392,27.625 0,0 -2.072,24.027 -2.089,29.251 0,0 -0.348,24.375 2.089,37.955 2.438,13.58 9.403,35.17 18.456,45.964 0,0 6.964,3.483 9.75,3.135 0,0 -5.223,-3.482 -11.491,-12.189 -6.268,-8.705 -11.491,-19.5 -13.929,-37.606 -2.437,-18.107 -2.786,-35.518 -1.741,-49.1"
       style="fill:#b2b1b1;fill-opacity:1;fill-rule:nonzero;stroke:none;stroke-width:0.1"
       id="path696" />
    <path
       d="m 645.511,675.013 c 0,0 6.964,3.483 9.75,3.135 16.018,2.089 51.535,3.83 92.625,-17.76 41.089,-21.589 61.634,-73.126 67.205,-108.991 5.572,-35.866 -4.875,-70.689 -10.747,-84.782"
       style="fill:none;stroke:#231f20;stroke-width:0.5;stroke-linecap:butt;stroke-linejoin:miter;stroke-miterlimit:4;stroke-dasharray:none;stroke-opacity:1"
       id="path698" />
    <path
       d="m 645.511,675.013 c -4.875,-3.134 -21.59,-13.231 -30.643,-20.544 -9.054,-7.312 -19.848,-15.322 -25.072,-17.411 0,0 31.688,-39.348 35.17,-45.964 0,0 -0.348,24.375 2.089,37.955 2.438,13.58 9.403,35.17 18.456,45.964"
       style="fill:#706d6e;fill-opacity:1;fill-rule:nonzero;stroke:none;stroke-width:0.1"
       id="path700" />
    <path
       d="m 645.511,675.013 c -4.875,-3.134 -21.59,-13.231 -30.643,-20.544 -9.054,-7.312 -19.848,-15.322 -25.072,-17.411 0,0 31.688,-39.348 35.17,-45.964 0,0 -0.348,24.375 2.089,37.955 2.438,13.58 9.403,35.17 18.456,45.964"
       style="fill:none;stroke:#231f20;stroke-width:0.5;stroke-linecap:round;stroke-linejoin:round;stroke-miterlimit:4;stroke-dasharray:none;stroke-opacity:1"
       id="path702" />
    <path
       d="m 634.252,457.727 c -1.233,4.858 -3.25,11.26 -8.126,14.509 -4.408,2.939 -14.276,3.018 -17.411,-3.715 -3.396,-7.296 1.426,-15.563 8.59,-17.642 7.197,-2.089 12.75,-1.063 14.859,-0.696 2.668,0.465 4.177,-0.696 8.82,-3.947 4.642,-3.248 17.875,-11.144 18.571,-9.75 0.697,1.392 -11.364,8.903 -15.785,12.304 -4.036,3.104 -6.731,4.527 -9.518,8.937 z"
       style="fill:none;stroke:#231f20;stroke-width:0.5;stroke-linecap:butt;stroke-linejoin:miter;stroke-miterlimit:4;stroke-dasharray:none;stroke-opacity:1"
       id="path704" />
    <path
       d="m 502.627,362.898 c 11.873,2.416 32.499,4.179 37.375,4.179 4.874,0 25.501,-1.763 37.374,-4.179"
       style="fill:none;stroke:#231f20;stroke-width:0.5;stroke-linecap:butt;stroke-linejoin:miter;stroke-miterlimit:4;stroke-dasharray:none;stroke-opacity:1"
       id="path706" />
    <path
       d="m 305.464,333.697 c -2.016,6.45 -8.739,15.56 -15.944,20.843 -6.965,5.107 -20.684,9.016 -26.708,-0.714"
       style="fill:none;stroke:#231f20;stroke-width:0.5;stroke-linecap:butt;stroke-linejoin:miter;stroke-miterlimit:4;stroke-dasharray:none;stroke-opacity:1"
       id="path708" />
    <path
       d="m 343.609,357.558 c 4.526,4.875 2.785,13.463 2.089,20.776 -0.697,7.312 -5.92,12.187 -5.92,12.187 -5.223,1.741 -12.884,8.357 -19.152,15.67 -6.267,7.312 -18.107,15.67 -23.33,20.893 -5.223,5.223 -7.313,11.143 -11.491,17.411 -4.179,6.267 -5.24,15.31 -11.84,24.723 -21.241,30.294 -23.33,69.294 -8.357,121.876 4.75,16.679 13.083,31.268 21.901,44.946 6.478,10.045 9.376,15.389 15.359,21.563 6.45,6.655 14.172,13.399 21.589,18.107 28.283,17.953 55.868,30.798 71.732,31.339 39.769,1.357 56.062,-3.482 63.027,-13.58 6.964,-10.098 15.669,-19.5 30.643,-29.947 14.974,-10.446 39,-13.58 50.143,-13.58 11.143,0 35.169,3.134 50.143,13.58 14.973,10.447 23.679,19.849 30.643,29.947 6.964,10.098 23.256,14.937 63.027,13.58 15.864,-0.541 43.449,-13.386 71.731,-31.339 7.418,-4.708 15.14,-11.452 21.59,-18.107 5.983,-6.174 8.881,-11.518 15.359,-21.563 8.818,-13.678 17.15,-28.267 21.9,-44.946 14.974,-52.582 12.884,-91.582 -8.357,-121.876 -6.6,-9.413 -7.661,-18.456 -11.839,-24.723 -4.179,-6.268 -6.268,-12.188 -11.491,-17.411 -5.224,-5.223 -17.063,-13.581 -23.331,-20.893 -6.268,-7.313 -13.928,-13.929 -19.152,-15.67 0,0 -5.223,-4.875 -5.919,-12.187 -0.697,-7.313 -2.437,-15.901 2.089,-20.776"
       style="fill:none;stroke:#231f20;stroke-width:0.5;stroke-linecap:butt;stroke-linejoin:miter;stroke-miterlimit:4;stroke-dasharray:none;stroke-opacity:1"
       id="path710" />
    <path
       d="m 489.859,663.522 c -6.616,6.616 -12.884,15.67 -18.455,30.295 -5.572,14.625 -11.84,24.027 -23.679,23.331 -11.84,-0.697 -38.652,-3.482 -51.536,-10.099"
       style="fill:none;stroke:#231f20;stroke-width:0.5;stroke-linecap:butt;stroke-linejoin:miter;stroke-miterlimit:4;stroke-dasharray:none;stroke-opacity:1"
       id="path712" />
    <path
       d="m 451.904,579.253 c -0.478,-6.206 -1.069,-12.151 -0.812,-17.642 0.258,-5.491 2.073,-24.547 2.416,-27.555 0.346,-3.007 3.276,-19.392 4.779,-22.356 -1.393,3.018 -3.713,19.5 -3.946,22.518 -0.233,3.019 -1.626,21.59 -1.393,27.625 0,0 2.073,24.027 2.09,29.251 0,0 0.347,24.375 -2.09,37.955 -2.438,13.58 -9.402,35.17 -18.455,45.964 0,0 -6.965,3.483 -9.75,3.135 0,0 5.222,-3.482 11.491,-12.189 6.267,-8.705 11.491,-19.5 13.929,-37.606 2.437,-18.107 2.785,-35.518 1.741,-49.1"
       style="fill:#b2b1b1;fill-opacity:1;fill-rule:nonzero;stroke:none;stroke-width:0.1"
       id="path714" />
    <path
       d="m 434.493,675.013 c 0,0 -6.965,3.483 -9.75,3.135 -16.018,2.089 -51.536,3.83 -92.625,-17.76 -41.09,-21.589 -61.635,-73.126 -67.206,-108.991 -5.572,-35.866 4.875,-70.689 10.747,-84.782"
       style="fill:none;stroke:#231f20;stroke-width:0.5;stroke-linecap:butt;stroke-linejoin:miter;stroke-miterlimit:4;stroke-dasharray:none;stroke-opacity:1"
       id="path716" />
    <path
       d="m 434.493,675.013 c 4.875,-3.134 21.589,-13.231 30.642,-20.544 9.054,-7.312 19.849,-15.322 25.072,-17.411 0,0 -31.688,-39.348 -35.169,-45.964 0,0 0.347,24.375 -2.09,37.955 -2.438,13.58 -9.402,35.17 -18.455,45.964"
       style="fill:#706d6e;fill-opacity:1;fill-rule:nonzero;stroke:none;stroke-width:0.1"
       id="path718" />
    <path
       d="m 434.493,675.013 c 4.875,-3.134 21.589,-13.231 30.642,-20.544 9.054,-7.312 19.849,-15.322 25.072,-17.411 0,0 -31.688,-39.348 -35.169,-45.964 0,0 0.347,24.375 -2.09,37.955 -2.438,13.58 -9.402,35.17 -18.455,45.964"
       style="fill:none;stroke:#231f20;stroke-width:0.5;stroke-linecap:round;stroke-linejoin:round;stroke-miterlimit:4;stroke-dasharray:none;stroke-opacity:1"
       id="path720" />
    <path
       d="m 490.207,637.058 c 9.75,-3.83 34.125,-9.054 37.259,-9.75 3.134,-0.696 6.616,-1.045 12.536,-1.045 5.919,0 9.402,0.349 12.536,1.045 3.133,0.696 27.508,5.92 37.258,9.75"
       style="fill:none;stroke:#231f20;stroke-width:0.5;stroke-linecap:butt;stroke-linejoin:miter;stroke-miterlimit:4;stroke-dasharray:none;stroke-opacity:1"
       id="path722" />
    <path
       d="m 532.341,656.558 c 2.089,1.625 5.803,2.089 7.661,-2.089 1.858,4.178 5.571,3.714 7.661,2.089"
       style="fill:none;stroke:#231f20;stroke-width:0.75;stroke-linecap:round;stroke-linejoin:round;stroke-miterlimit:4;stroke-dasharray:none;stroke-opacity:1"
       id="path724" />
    <path
       d="m 445.751,457.727 c 1.234,4.858 3.251,11.26 8.126,14.509 4.409,2.939 14.277,3.018 17.411,-3.715 3.396,-7.296 -1.426,-15.563 -8.59,-17.642 -7.197,-2.089 -12.749,-1.063 -14.858,-0.696 -2.669,0.465 -4.178,-0.696 -8.821,-3.947 -4.642,-3.248 -17.874,-11.144 -18.57,-9.75 -0.697,1.392 11.364,8.903 15.785,12.304 4.035,3.104 6.731,4.527 9.517,8.937 z"
       style="fill:none;stroke:#231f20;stroke-width:0.5;stroke-linecap:butt;stroke-linejoin:miter;stroke-miterlimit:4;stroke-dasharray:none;stroke-opacity:1"
       id="path726" />
    <path
       d="m 540.002,367.077 -2.307,-0.072 c 0,0 0.449,16.784 0.449,19.803 0,3.017 0.93,8.357 1.858,8.357 0.927,0 1.858,-5.34 1.858,-8.357 0,-3.019 0.449,-19.803 0.449,-19.803 l -2.307,0.072"
       style="fill:#706d6e;fill-opacity:1;fill-rule:nonzero;stroke:none;stroke-width:0.1"
       id="path728" />
    <path
       d="m 540.002,367.077 -2.307,-0.072 c 0,0 0.449,16.784 0.449,19.803 0,3.017 0.93,8.357 1.858,8.357 0.927,0 1.858,-5.34 1.858,-8.357 0,-3.019 0.449,-19.803 0.449,-19.803 z"
       style="fill:none;stroke:#231f20;stroke-width:0.5;stroke-linecap:round;stroke-linejoin:round;stroke-miterlimit:4;stroke-dasharray:none;stroke-opacity:1"
       id="path730" />
    <path
       d="m 655.261,678.148 c 0,0 -5.223,-3.482 -11.491,-12.189 -6.268,-8.705 -11.491,-19.5 -13.929,-37.606 -2.437,-18.107 -2.786,-35.518 -1.741,-49.1 0.478,-6.206 1.068,-12.151 0.811,-17.642 -0.257,-5.491 -2.072,-24.547 -2.416,-27.555 -0.345,-3.007 -3.276,-19.392 -4.779,-22.356 1.394,3.018 3.714,19.5 3.947,22.518 0.232,3.019 1.626,21.59 1.392,27.625 0,0 -2.072,24.027 -2.089,29.251"
       style="fill:none;stroke:#231f20;stroke-width:0.5;stroke-linecap:butt;stroke-linejoin:miter;stroke-miterlimit:4;stroke-dasharray:none;stroke-opacity:1"
       id="path732" />
    <path
       d="m 424.743,678.148 c 0,0 5.222,-3.482 11.491,-12.189 6.267,-8.705 11.491,-19.5 13.929,-37.606 2.437,-18.107 2.785,-35.518 1.741,-49.1 -0.478,-6.206 -1.069,-12.151 -0.812,-17.642 0.258,-5.491 2.073,-24.547 2.416,-27.555 0.346,-3.007 3.276,-19.392 4.779,-22.356 -1.393,3.018 -3.713,19.5 -3.946,22.518 -0.233,3.019 -1.626,21.59 -1.393,27.625 0,0 2.073,24.027 2.09,29.251"
       style="fill:none;stroke:#231f20;stroke-width:0.5;stroke-linecap:butt;stroke-linejoin:miter;stroke-miterlimit:4;stroke-dasharray:none;stroke-opacity:1"
       id="path734" />
    <path
       d="m 571.109,402.594 c 2.157,5.177 9.98,7.43 18.803,4.179 3.865,-1.426 9.666,-6.325 16.424,-10.855 8.673,-5.81 18.475,-11.624 23.041,-15.147 8.125,-6.268 23.213,-19.962 24.839,-22.285 1.625,-2.321 2.321,-3.249 -3.714,-4.179 -6.036,-0.928 -11.839,-1.162 -14.626,-2.32 0,0 -5.338,-2.09 -15.088,0.23 -9.75,2.323 -18.63,5.224 -26.29,12.884 -6.874,6.875 -14.799,15.67 -17.585,19.152 -2.787,3.483 -8.126,12.77 -5.804,18.341 z"
       style="fill:none;stroke:#231f20;stroke-width:0.5;stroke-linecap:round;stroke-linejoin:round;stroke-miterlimit:4;stroke-dasharray:2.8, 1.8;stroke-dashoffset:0;stroke-opacity:1"
       id="path736" />
    <path
       d="m 571.44,500.09 c 2.454,9.521 28.223,42.487 55.615,53.861"
       style="fill:none;stroke:#231f20;stroke-width:0.5;stroke-linecap:round;stroke-linejoin:round;stroke-miterlimit:4;stroke-dasharray:2.8, 1.8;stroke-dashoffset:0;stroke-opacity:1"
       id="path738" />
    <path
       d="m 706.913,343.861 c 0,-1.155 -1.143,-2.09 -2.554,-2.09 -1.41,0 -2.553,0.935 -2.553,2.09 0,1.153 1.143,2.089 2.553,2.089 1.411,0 2.554,-0.936 2.554,-2.089 z"
       style="fill:none;stroke:#231f20;stroke-width:0.5;stroke-linecap:round;stroke-linejoin:round;stroke-miterlimit:4;stroke-dasharray:2.8, 1.8;stroke-dashoffset:0;stroke-opacity:1"
       id="path740" />
    <path
       d="m 672.137,340.615 c 0.274,-2.674 3.438,-2.791 6.687,-1.861 3.25,0.928 6.035,2.321 5.339,4.875 -0.697,2.555 -3.713,2.089 -7.428,0.928 -3.715,-1.159 -4.81,-1.864 -4.598,-3.942 z"
       style="fill:none;stroke:#231f20;stroke-width:0.5;stroke-linecap:round;stroke-linejoin:round;stroke-miterlimit:4;stroke-dasharray:2.8, 1.8;stroke-dashoffset:0;stroke-opacity:1"
       id="path742" />
    <path
       d="m 552.538,627.308 c 0.347,-5.571 8.008,-6.268 15.321,-8.009 7.312,-1.741 30.295,-10.098 35.17,-13.58 4.875,-3.482 11.205,-7.614 17.441,-7.987"
       style="fill:none;stroke:#231f20;stroke-width:0.5;stroke-linecap:round;stroke-linejoin:round;stroke-miterlimit:4;stroke-dasharray:2.8, 1.8;stroke-dashoffset:0;stroke-opacity:1"
       id="path744" />
    <path
       d="m 547.957,602.86 c 3.536,4.948 4.581,9.823 2.839,15.047 -1.741,5.222 0.349,8.009 1.742,9.401"
       style="fill:none;stroke:#231f20;stroke-width:0.5;stroke-linecap:round;stroke-linejoin:round;stroke-miterlimit:4;stroke-dasharray:2.8, 1.8;stroke-dashoffset:0;stroke-opacity:1"
       id="path746" />
    <path
       d="m 551.621,613.036 c 7.533,-5.924 29.055,-23.887 35.738,-30.823 9.227,-9.576 16.017,-25.071 13.918,-44.933"
       style="fill:none;stroke:#231f20;stroke-width:0.5;stroke-linecap:round;stroke-linejoin:round;stroke-miterlimit:4;stroke-dasharray:2.8, 1.8;stroke-dashoffset:0;stroke-opacity:1"
       id="path748" />
    <path
       d="m 586.364,613.16 c 8.307,-9.182 34.302,-36.76 34.188,-62.319"
       style="fill:none;stroke:#231f20;stroke-width:0.5;stroke-linecap:round;stroke-linejoin:round;stroke-miterlimit:4;stroke-dasharray:2.8, 1.8;stroke-dashoffset:0;stroke-opacity:1"
       id="path750" />
    <path
       d="m 625.004,525.416 c -0.518,-6.294 -0.702,-13.994 1.819,-22.537 4.179,-14.161 10.68,-22.75 16.483,-32.036 5.803,-9.286 14.625,-19.732 20.66,-24.607 6.036,-4.875 14.161,-10.446 17.411,-13.233 3.249,-2.786 20.429,-13.928 19.733,-15.552 -0.696,-1.624 -25.458,-11.839 -41.708,1.858"
       style="fill:none;stroke:#231f20;stroke-width:0.5;stroke-linecap:round;stroke-linejoin:round;stroke-miterlimit:4;stroke-dasharray:2.8, 1.8;stroke-dashoffset:0;stroke-opacity:1"
       id="path752" />
    <path
       d="m 455,525.416 c 0.517,-6.294 0.701,-13.994 -1.82,-22.537 -4.178,-14.161 -10.68,-22.75 -16.482,-32.036 -5.803,-9.286 -14.625,-19.732 -20.66,-24.607 -6.037,-4.875 -14.162,-10.446 -17.412,-13.233 -3.25,-2.786 -20.428,-13.928 -19.732,-15.552 0.696,-1.624 25.458,-11.839 41.708,1.858"
       style="fill:none;stroke:#231f20;stroke-width:0.5;stroke-linecap:round;stroke-linejoin:round;stroke-miterlimit:4;stroke-dasharray:2.8, 1.8;stroke-dashoffset:0;stroke-opacity:1"
       id="path754" />
    <path
       d="m 621.463,510.778 c -0.908,-4.881 -3.264,-23.336 1.842,-37.265"
       style="fill:none;stroke:#231f20;stroke-width:0.5;stroke-linecap:round;stroke-linejoin:round;stroke-miterlimit:4;stroke-dasharray:2.8, 1.8;stroke-dashoffset:0;stroke-opacity:1"
       id="path756" />
    <path
       d="m 577.189,510.743 c 4.366,3.279 8.778,0.957 11.796,-3.222 3.017,-4.178 9.747,-14.769 7.774,-25.838"
       style="fill:none;stroke:#231f20;stroke-width:0.5;stroke-linecap:round;stroke-linejoin:round;stroke-miterlimit:4;stroke-dasharray:2.8, 1.8;stroke-dashoffset:0;stroke-opacity:1"
       id="path758" />
    <path
       d="m 565.91,453.638 c 3.109,-2.99 18.409,-6.012 23.991,5.364"
       style="fill:none;stroke:#231f20;stroke-width:0.5;stroke-linecap:round;stroke-linejoin:round;stroke-miterlimit:4;stroke-dasharray:2.8, 1.8;stroke-dashoffset:0;stroke-opacity:1"
       id="path760" />
    <path
       d="m 589.901,459.002 c 1.869,-11.605 -0.22,-15.086 0.244,-26.695 0.464,-11.605 5.397,-25.071 11.396,-33.037"
       style="fill:none;stroke:#231f20;stroke-width:0.5;stroke-linecap:round;stroke-linejoin:round;stroke-miterlimit:4;stroke-dasharray:2.8, 1.8;stroke-dashoffset:0;stroke-opacity:1"
       id="path762" />
    <path
       d="m 591.538,454.593 c 2.088,-5.803 24.756,-58.609 35.477,-72.018"
       style="fill:none;stroke:#231f20;stroke-width:0.5;stroke-linecap:round;stroke-linejoin:round;stroke-miterlimit:4;stroke-dasharray:2.8, 1.8;stroke-dashoffset:0;stroke-opacity:1"
       id="path764" />
    <path
       d="m 596.784,442.019 c 1.785,-4.083 9.379,-6.461 16.342,-6.461 6.965,0 22.054,0.234 29.948,-2.32 7.892,-2.555 11.84,-5.107 14.161,-9.75 2.32,-4.645 6.964,-14.86 9.75,-21.127 2.785,-6.269 11.374,-15.091 18.57,-14.857 7.197,0.232 14.395,0.232 16.947,-1.858 2.553,-2.089 3.9,-6.504 3.714,-9.75 -0.159,-2.78 -0.464,-3.83 -0.464,-4.875 0,-1.045 2.321,-2.555 3.25,3.251 0.928,5.803 3.946,15.553 11.142,16.018 7.197,0.465 6.965,-11.143 7.661,-18.107 0.697,-6.965 2.089,-13.232 2.322,-16.249"
       style="fill:none;stroke:#231f20;stroke-width:0.5;stroke-linecap:round;stroke-linejoin:round;stroke-miterlimit:4;stroke-dasharray:2.8, 1.8;stroke-dashoffset:0;stroke-opacity:1"
       id="path766" />
    <path
       d="m 762.124,409.131 c 1.896,2.98 6.54,9.247 -0.425,6.461 -6.964,-2.785 -14.626,-9.515 -17.876,-13.694 -3.249,-4.179 -6.035,-8.591 -3.598,-11.377"
       style="fill:none;stroke:#231f20;stroke-width:0.5;stroke-linecap:round;stroke-linejoin:round;stroke-miterlimit:4;stroke-dasharray:2.8, 1.8;stroke-dashoffset:0;stroke-opacity:1"
       id="path768" />
    <path
       d="m 610.314,455.751 c -1.714,-4.989 -3.265,-14.477 -3.447,-19.57"
       style="fill:none;stroke:#231f20;stroke-width:0.5;stroke-linecap:round;stroke-linejoin:round;stroke-miterlimit:4;stroke-dasharray:2.8, 1.8;stroke-dashoffset:0;stroke-opacity:1"
       id="path770" />
    <path
       d="m 641.973,472.951 c -0.815,-3.733 -1.751,-14.843 -1.805,-21.476"
       style="fill:none;stroke:#231f20;stroke-width:0.5;stroke-linecap:round;stroke-linejoin:round;stroke-miterlimit:4;stroke-dasharray:2.8, 1.8;stroke-dashoffset:0;stroke-opacity:1"
       id="path772" />
    <path
       d="m 623.6,449.709 c 1.366,-3.125 7.543,-14.015 12.499,-15.041 5.05,-1.044 10.483,1.538 7.859,9.601"
       style="fill:none;stroke:#231f20;stroke-width:0.5;stroke-linecap:round;stroke-linejoin:round;stroke-miterlimit:4;stroke-dasharray:2.8, 1.8;stroke-dashoffset:0;stroke-opacity:1"
       id="path774" />
    <path
       d="m 624.429,340.762 c 1.697,2.171 5.933,10.936 14.634,12.049 8.702,1.115 17.937,0.802 22.581,0.337 4.645,-0.465 15.555,-0.696 21.126,0 5.571,0.696 12.305,0 16.947,-0.931 4.642,-0.927 15.786,0 21.589,1.394 5.803,1.392 11.143,2.32 15.089,3.947 3.946,1.624 9.052,2.323 15.089,13.001 6.036,10.678 17.411,33.586 45.268,42.64"
       style="fill:none;stroke:#231f20;stroke-width:0.5;stroke-linecap:round;stroke-linejoin:round;stroke-miterlimit:4;stroke-dasharray:2.8, 1.8;stroke-dashoffset:0;stroke-opacity:1"
       id="path776" />
    <path
       d="m 743.146,360.659 c 2.535,-0.781 4.394,-0.781 7.41,-6.583 3.017,-5.803 7.31,-15.338 7.661,-17.411 0.551,-3.251 -0.405,-7.601 -3.337,-10.185"
       style="fill:none;stroke:#231f20;stroke-width:0.5;stroke-linecap:round;stroke-linejoin:round;stroke-miterlimit:4;stroke-dasharray:2.8, 1.8;stroke-dashoffset:0;stroke-opacity:1"
       id="path778" />
    <path
       d="m 781.775,426.183 c 2.441,-5.018 7.781,-13.373 17.531,-13.143 9.75,0.232 32.036,13.233 23.446,35.519"
       style="fill:none;stroke:#231f20;stroke-width:0.5;stroke-linecap:round;stroke-linejoin:round;stroke-miterlimit:4;stroke-dasharray:2.8, 1.8;stroke-dashoffset:0;stroke-opacity:1"
       id="path780" />
    <path
       d="m 802.326,462.95 c 2.319,-6.964 7.892,-10.678 10.213,-12.535 2.32,-1.856 10.213,-4.875 15.088,1.161 4.875,6.037 6.966,12.767 7.894,18.571 0.928,5.804 0.694,13.696 0.928,16.018 0.232,2.322 5.715,35.491 -12.464,49.896"
       style="fill:none;stroke:#231f20;stroke-width:0.5;stroke-linecap:round;stroke-linejoin:round;stroke-miterlimit:4;stroke-dasharray:2.8, 1.8;stroke-dashoffset:0;stroke-opacity:1"
       id="path782" />
    <path
       d="m 817.327,490.609 c 2.175,2.52 13.639,4.814 19.05,-5.618"
       style="fill:none;stroke:#231f20;stroke-width:0.5;stroke-linecap:round;stroke-linejoin:round;stroke-miterlimit:4;stroke-dasharray:2.8, 1.8;stroke-dashoffset:0;stroke-opacity:1"
       id="path784" />
    <path
       d="m 540.002,745.647 c 0,0 70.07,-28.582 79.432,-33.067"
       style="fill:none;stroke:#231f20;stroke-width:0.5;stroke-linecap:round;stroke-linejoin:round;stroke-miterlimit:4;stroke-dasharray:2.8, 1.8;stroke-dashoffset:0;stroke-opacity:1"
       id="path786" />
    <path
       d="m 561.533,801.654 c 8.142,-10.576 58.915,-77.912 63.437,-85.562"
       style="fill:none;stroke:#231f20;stroke-width:0.5;stroke-linecap:round;stroke-linejoin:round;stroke-miterlimit:4;stroke-dasharray:2.8, 1.8;stroke-dashoffset:0;stroke-opacity:1"
       id="path788" />
    <path
       d="m 635.41,829.651 c 1.048,-17.093 5.583,-105.802 5.23,-113.157"
       style="fill:none;stroke:#231f20;stroke-width:0.5;stroke-linecap:round;stroke-linejoin:round;stroke-miterlimit:4;stroke-dasharray:2.8, 1.8;stroke-dashoffset:0;stroke-opacity:1"
       id="path790" />
    <path
       d="M 704.014,828.253 C 701.225,810.121 687.683,717.578 685.923,706.916"
       style="fill:none;stroke:#231f20;stroke-width:0.5;stroke-linecap:round;stroke-linejoin:round;stroke-miterlimit:4;stroke-dasharray:2.8, 1.8;stroke-dashoffset:0;stroke-opacity:1"
       id="path792" />
    <path
       d="M 744.827,819.789 C 739.529,800.719 716.022,713.137 711.156,699.58"
       style="fill:none;stroke:#231f20;stroke-width:0.5;stroke-linecap:round;stroke-linejoin:round;stroke-miterlimit:4;stroke-dasharray:2.8, 1.8;stroke-dashoffset:0;stroke-opacity:1"
       id="path794" />
    <path
       d="M 856.446,756.068 C 845.386,743.264 781.824,673.91 771.798,662.844"
       style="fill:none;stroke:#231f20;stroke-width:0.5;stroke-linecap:round;stroke-linejoin:round;stroke-miterlimit:4;stroke-dasharray:2.8, 1.8;stroke-dashoffset:0;stroke-opacity:1"
       id="path796" />
    <path
       d="M 871.668,739.572 C 859.315,727.594 789.88,663.413 779.74,654.667"
       style="fill:none;stroke:#231f20;stroke-width:0.5;stroke-linecap:round;stroke-linejoin:round;stroke-miterlimit:4;stroke-dasharray:2.8, 1.8;stroke-dashoffset:0;stroke-opacity:1"
       id="path798" />
    <path
       d="m 817.085,581.059 c 10.194,1.328 96.551,12.473 113.614,14.91"
       style="fill:none;stroke:#231f20;stroke-width:0.5;stroke-linecap:round;stroke-linejoin:round;stroke-miterlimit:4;stroke-dasharray:2.8, 1.8;stroke-dashoffset:0;stroke-opacity:1"
       id="path800" />
    <path
       d="m 827.62,532.586 c 11.15,-1.734 78.171,-12.336 100.027,-14.696"
       style="fill:none;stroke:#231f20;stroke-width:0.5;stroke-linecap:round;stroke-linejoin:round;stroke-miterlimit:4;stroke-dasharray:2.8, 1.8;stroke-dashoffset:0;stroke-opacity:1"
       id="path802" />
    <path
       d="m 836.928,508.555 c 16.816,-3.123 68.156,-14.894 83.574,-18.409"
       style="fill:none;stroke:#231f20;stroke-width:0.5;stroke-linecap:round;stroke-linejoin:round;stroke-miterlimit:4;stroke-dasharray:2.8, 1.8;stroke-dashoffset:0;stroke-opacity:1"
       id="path804" />
    <path
       d="M 836.602,487.379 C 850.958,482.45 895.5,468.54 908.398,464.354"
       style="fill:none;stroke:#231f20;stroke-width:0.5;stroke-linecap:round;stroke-linejoin:round;stroke-miterlimit:4;stroke-dasharray:2.8, 1.8;stroke-dashoffset:0;stroke-opacity:1"
       id="path806" />
    <path
       d="m 834.705,466.144 c 12.074,-5.979 41.482,-20.885 57.943,-26.489"
       style="fill:none;stroke:#231f20;stroke-width:0.5;stroke-linecap:round;stroke-linejoin:round;stroke-miterlimit:4;stroke-dasharray:2.8, 1.8;stroke-dashoffset:0;stroke-opacity:1"
       id="path808" />
    <path
       d="m 823.337,446.897 c 10.21,-6.93 45.826,-27.344 60.924,-35.069"
       style="fill:none;stroke:#231f20;stroke-width:0.5;stroke-linecap:round;stroke-linejoin:round;stroke-miterlimit:4;stroke-dasharray:2.8, 1.8;stroke-dashoffset:0;stroke-opacity:1"
       id="path810" />
    <path
       d="m 753.06,349.062 c 5.585,3.705 10.148,16.736 16.764,23.352 6.616,6.616 19.848,13.928 37.258,13.928 17.412,0 37.334,1.508 42.483,13.581 5.311,12.449 3.211,24.375 9.489,24.375 6.268,0 5.256,-5.386 5.136,-11.84 -0.091,-4.92 0,-16.366 -12.188,-25.418 -12.187,-9.054 -21.589,-11.84 -42.482,-12.537 -20.893,-0.696 -36.562,-9.75 -42.482,-19.152 -5.919,-9.401 -9.665,-11.452 -11.101,-12.517 -1.435,-1.063 -4.221,-1.063 -6.658,0.33 -2.438,1.393 -5.92,-1.393 -9.054,-4.875 -3.134,-3.482 -12.884,-12.188 -20.544,-14.625 -7.661,-2.438 -15.67,-2.438 -21.938,-1.044 -6.268,1.392 -12.535,0.696 -19.152,0.347 -6.616,-0.347 -11.142,1.045 -23.33,3.134 -12.187,2.09 -21.59,4.179 -21.241,9.054 0.348,4.875 3.482,4.527 6.964,4.527 3.482,0 8.706,-1.045 8.706,-3.134 0,-2.09 -4.875,-2.786 -4.875,-2.786 0,0 1.044,-2.089 5.223,-2.089 4.178,0 11.142,0 15.67,-0.348 4.526,-0.349 13.928,-3.134 16.366,0.696 2.437,3.83 3.134,7.661 6.616,7.313 3.481,-0.348 3.134,-3.483 4.875,-5.92 1.74,-2.438 4.875,-5.919 8.009,-6.268 3.134,-0.348 8.531,-1.566 11.839,0.349 2.557,1.479 5.945,3.473 8.357,3.83 4.701,0.696 8.009,2.437 9.75,6.616 1.741,4.179 4.622,7.951 8.009,10.446 3.308,2.438 6.267,3.83 7.661,1.045 1.392,-2.786 2.687,-2.484 5.87,-0.37 z"
       style="fill:none;stroke:#231f20;stroke-width:0.5;stroke-linecap:round;stroke-linejoin:round;stroke-miterlimit:4;stroke-dasharray:2.8, 1.8;stroke-dashoffset:0;stroke-opacity:1"
       id="path812" />
    <path
       d="m 644.815,333.762 c -2.09,0.696 -5.572,1.915 -10.795,1.393"
       style="fill:none;stroke:#231f20;stroke-width:0.5;stroke-linecap:round;stroke-linejoin:round;stroke-miterlimit:4;stroke-dasharray:2.8, 1.8;stroke-dashoffset:0;stroke-opacity:1"
       id="path814" />
    <path
       d="m 532.341,394.7 c -1.393,-7.427 -8.59,-17.642 -14.393,-17.642 -8.358,0 -8.938,9.372 -7.429,16.714 1.216,5.914 9.751,23.214 14.626,33.894 4.875,10.677 9.285,10.212 14.857,10.212 5.571,0 9.981,0.465 14.856,-10.212 4.875,-10.68 13.41,-27.98 14.627,-33.894 1.508,-7.342 0.929,-16.714 -7.429,-16.714 -5.806,0 -13.001,10.215 -14.393,17.642"
       style="fill:none;stroke:#231f20;stroke-width:0.5;stroke-linecap:round;stroke-linejoin:round;stroke-miterlimit:4;stroke-dasharray:2.8, 1.8;stroke-dashoffset:0;stroke-opacity:1"
       id="path816" />
    <path
       d="m 531.204,366.565 c 0,7.475 1.137,20.006 1.137,28.135 0.53,2.824 0,13.001 7.661,13.001 7.661,0 7.131,-10.177 7.661,-13.001 0,-8.129 1.136,-20.66 1.136,-28.135"
       style="fill:none;stroke:#231f20;stroke-width:0.5;stroke-linecap:round;stroke-linejoin:round;stroke-miterlimit:4;stroke-dasharray:2.8, 1.8;stroke-dashoffset:0;stroke-opacity:1"
       id="path818" />
    <path
       d="m 508.895,402.594 c -2.157,5.177 -9.981,7.43 -18.804,4.179 -3.864,-1.426 -9.666,-6.325 -16.425,-10.855 -8.672,-5.81 -18.474,-11.624 -23.04,-15.147 -8.125,-6.268 -23.213,-19.962 -24.838,-22.285 -1.626,-2.321 -2.322,-3.249 3.714,-4.179 6.036,-0.928 11.839,-1.162 14.625,-2.32 0,0 5.339,-2.09 15.089,0.23 9.75,2.323 18.629,5.224 26.29,12.884 6.873,6.875 14.799,15.67 17.585,19.152 2.785,3.483 8.126,12.77 5.804,18.341 z"
       style="fill:none;stroke:#231f20;stroke-width:0.5;stroke-linecap:round;stroke-linejoin:round;stroke-miterlimit:4;stroke-dasharray:2.8, 1.8;stroke-dashoffset:0;stroke-opacity:1"
       id="path820" />
    <path
       d="m 526.273,429.949 c -9.55,0 -12.039,13.153 -12.039,20.117 0,6.965 -2.089,19.849 -4.179,27.509 -2.089,7.661 -1.741,28.206 -0.696,34.473 1.045,6.268 12.536,30.643 16.017,39 3.483,8.358 12.537,25.42 14.626,25.42 2.089,0 11.143,-17.062 14.624,-25.42 3.483,-8.357 14.974,-32.732 16.019,-39 1.044,-6.267 1.393,-26.812 -0.697,-34.473 -2.089,-7.66 -4.178,-20.544 -4.178,-27.509 0,-6.964 -2.489,-20.117 -12.04,-20.117"
       style="fill:none;stroke:#231f20;stroke-width:0.5;stroke-linecap:round;stroke-linejoin:round;stroke-miterlimit:4;stroke-dasharray:2.8, 1.8;stroke-dashoffset:0;stroke-opacity:1"
       id="path822" />
    <path
       d="m 508.563,500.09 c -2.454,9.521 -28.222,42.487 -55.615,53.861"
       style="fill:none;stroke:#231f20;stroke-width:0.5;stroke-linecap:round;stroke-linejoin:round;stroke-miterlimit:4;stroke-dasharray:2.8, 1.8;stroke-dashoffset:0;stroke-opacity:1"
       id="path824" />
    <path
       d="m 373.091,343.861 c 0,-1.155 1.143,-2.09 2.553,-2.09 1.411,0 2.554,0.935 2.554,2.09 0,1.153 -1.143,2.089 -2.554,2.089 -1.41,0 -2.553,-0.936 -2.553,-2.089 z"
       style="fill:none;stroke:#231f20;stroke-width:0.5;stroke-linecap:round;stroke-linejoin:round;stroke-miterlimit:4;stroke-dasharray:2.8, 1.8;stroke-dashoffset:0;stroke-opacity:1"
       id="path826" />
    <path
       d="m 407.867,340.615 c -0.274,-2.674 -3.438,-2.791 -6.688,-1.861 -3.249,0.928 -6.035,2.321 -5.339,4.875 0.698,2.555 3.714,2.089 7.429,0.928 3.715,-1.159 4.81,-1.864 4.598,-3.942 z"
       style="fill:none;stroke:#231f20;stroke-width:0.5;stroke-linecap:round;stroke-linejoin:round;stroke-miterlimit:4;stroke-dasharray:2.8, 1.8;stroke-dashoffset:0;stroke-opacity:1"
       id="path828" />
    <path
       d="m 527.466,627.308 c -0.348,-5.571 -8.008,-6.268 -15.321,-8.009 -7.312,-1.741 -30.295,-10.098 -35.17,-13.58 -4.875,-3.482 -11.206,-7.614 -17.442,-7.987"
       style="fill:none;stroke:#231f20;stroke-width:0.5;stroke-linecap:round;stroke-linejoin:round;stroke-miterlimit:4;stroke-dasharray:2.8, 1.8;stroke-dashoffset:0;stroke-opacity:1"
       id="path830" />
    <path
       d="m 493.379,522.724 c 0,5.573 0.451,22.119 1.703,30.762 1.741,12.014 8.357,20.892 21.241,34.823 12.885,13.928 22.635,19.499 23.679,19.499 1.044,0 10.794,-5.571 23.678,-19.499 12.884,-13.931 19.5,-22.809 21.241,-34.823 1.253,-8.643 1.703,-25.189 1.703,-30.762"
       style="fill:none;stroke:#231f20;stroke-width:0.5;stroke-linecap:round;stroke-linejoin:round;stroke-miterlimit:4;stroke-dasharray:2.8, 1.8;stroke-dashoffset:0;stroke-opacity:1"
       id="path832" />
    <path
       d="m 510.436,515.868 c -1.012,9.739 -0.032,24.038 2.057,29.957 2.09,5.92 8.705,19.848 15.67,34.125 6.963,14.278 10.097,22.287 11.839,22.287 1.741,0 4.874,-8.009 11.839,-22.287 6.964,-14.277 13.58,-28.205 15.669,-34.125 2.09,-5.919 3.07,-20.218 2.057,-29.957"
       style="fill:none;stroke:#231f20;stroke-width:0.5;stroke-linecap:round;stroke-linejoin:round;stroke-miterlimit:4;stroke-dasharray:2.8, 1.8;stroke-dashoffset:0;stroke-opacity:1"
       id="path834" />
    <path
       d="m 532.047,602.86 c -3.537,4.948 -4.581,9.823 -2.839,15.047 1.74,5.222 -0.349,8.009 -1.742,9.401"
       style="fill:none;stroke:#231f20;stroke-width:0.5;stroke-linecap:round;stroke-linejoin:round;stroke-miterlimit:4;stroke-dasharray:2.8, 1.8;stroke-dashoffset:0;stroke-opacity:1"
       id="path836" />
    <path
       d="m 528.382,613.036 c -7.532,-5.924 -29.054,-23.887 -35.738,-30.823 -9.228,-9.576 -16.018,-25.071 -13.917,-44.933"
       style="fill:none;stroke:#231f20;stroke-width:0.5;stroke-linecap:round;stroke-linejoin:round;stroke-miterlimit:4;stroke-dasharray:2.8, 1.8;stroke-dashoffset:0;stroke-opacity:1"
       id="path838" />
    <path
       d="m 493.64,613.16 c -8.308,-9.182 -34.302,-36.76 -34.188,-62.319"
       style="fill:none;stroke:#231f20;stroke-width:0.5;stroke-linecap:round;stroke-linejoin:round;stroke-miterlimit:4;stroke-dasharray:2.8, 1.8;stroke-dashoffset:0;stroke-opacity:1"
       id="path840" />
    <path
       d="m 458.54,510.778 c 0.909,-4.881 3.264,-23.336 -1.842,-37.265"
       style="fill:none;stroke:#231f20;stroke-width:0.5;stroke-linecap:round;stroke-linejoin:round;stroke-miterlimit:4;stroke-dasharray:2.8, 1.8;stroke-dashoffset:0;stroke-opacity:1"
       id="path842" />
    <path
       d="m 502.815,510.743 c -4.366,3.279 -8.779,0.957 -11.796,-3.222 -3.017,-4.178 -9.747,-14.769 -7.775,-25.838"
       style="fill:none;stroke:#231f20;stroke-width:0.5;stroke-linecap:round;stroke-linejoin:round;stroke-miterlimit:4;stroke-dasharray:2.8, 1.8;stroke-dashoffset:0;stroke-opacity:1"
       id="path844" />
    <path
       d="m 514.093,453.638 c -3.109,-2.99 -18.408,-6.012 -23.991,5.364"
       style="fill:none;stroke:#231f20;stroke-width:0.5;stroke-linecap:round;stroke-linejoin:round;stroke-miterlimit:4;stroke-dasharray:2.8, 1.8;stroke-dashoffset:0;stroke-opacity:1"
       id="path846" />
    <path
       d="m 490.102,459.002 c -1.869,-11.605 0.221,-15.086 -0.243,-26.695 -0.464,-11.605 -5.398,-25.071 -11.396,-33.037"
       style="fill:none;stroke:#231f20;stroke-width:0.5;stroke-linecap:round;stroke-linejoin:round;stroke-miterlimit:4;stroke-dasharray:2.8, 1.8;stroke-dashoffset:0;stroke-opacity:1"
       id="path848" />
    <path
       d="m 488.466,454.593 c -2.09,-5.803 -24.758,-58.609 -35.477,-72.018"
       style="fill:none;stroke:#231f20;stroke-width:0.5;stroke-linecap:round;stroke-linejoin:round;stroke-miterlimit:4;stroke-dasharray:2.8, 1.8;stroke-dashoffset:0;stroke-opacity:1"
       id="path850" />
    <path
       d="m 483.219,442.019 c -1.784,-4.083 -9.378,-6.461 -16.343,-6.461 -6.963,0 -22.052,0.234 -29.946,-2.32 -7.893,-2.555 -11.841,-5.107 -14.161,-9.75 -2.32,-4.645 -6.965,-14.86 -9.75,-21.127 -2.786,-6.269 -11.374,-15.091 -18.571,-14.857 -7.197,0.232 -14.394,0.232 -16.948,-1.858 -2.552,-2.089 -3.899,-6.504 -3.712,-9.75 0.159,-2.78 0.463,-3.83 0.463,-4.875 0,-1.045 -2.32,-2.555 -3.25,3.251 -0.928,5.803 -3.945,15.553 -11.142,16.018 -7.197,0.465 -6.964,-11.143 -7.66,-18.107 -0.698,-6.965 -2.09,-13.232 -2.323,-16.249"
       style="fill:none;stroke:#231f20;stroke-width:0.5;stroke-linecap:round;stroke-linejoin:round;stroke-miterlimit:4;stroke-dasharray:2.8, 1.8;stroke-dashoffset:0;stroke-opacity:1"
       id="path852" />
    <path
       d="m 317.88,409.131 c -1.896,2.98 -6.54,9.247 0.424,6.461 6.965,-2.785 14.627,-9.515 17.876,-13.694 3.25,-4.179 6.035,-8.591 3.598,-11.377"
       style="fill:none;stroke:#231f20;stroke-width:0.5;stroke-linecap:round;stroke-linejoin:round;stroke-miterlimit:4;stroke-dasharray:2.8, 1.8;stroke-dashoffset:0;stroke-opacity:1"
       id="path854" />
    <path
       d="m 469.69,455.751 c 1.714,-4.989 3.264,-14.477 3.446,-19.57"
       style="fill:none;stroke:#231f20;stroke-width:0.5;stroke-linecap:round;stroke-linejoin:round;stroke-miterlimit:4;stroke-dasharray:2.8, 1.8;stroke-dashoffset:0;stroke-opacity:1"
       id="path856" />
    <path
       d="m 438.031,472.951 c 0.814,-3.733 1.75,-14.843 1.804,-21.476"
       style="fill:none;stroke:#231f20;stroke-width:0.5;stroke-linecap:round;stroke-linejoin:round;stroke-miterlimit:4;stroke-dasharray:2.8, 1.8;stroke-dashoffset:0;stroke-opacity:1"
       id="path858" />
    <path
       d="m 456.403,449.709 c -1.365,-3.125 -7.542,-14.015 -12.499,-15.041 -5.049,-1.044 -10.484,1.538 -7.858,9.601"
       style="fill:none;stroke:#231f20;stroke-width:0.5;stroke-linecap:round;stroke-linejoin:round;stroke-miterlimit:4;stroke-dasharray:2.8, 1.8;stroke-dashoffset:0;stroke-opacity:1"
       id="path860" />
    <path
       d="m 455.575,340.762 c -1.698,2.171 -5.934,10.936 -14.635,12.049 -8.701,1.115 -17.938,0.802 -22.581,0.337 -4.644,-0.465 -15.554,-0.696 -21.125,0 -5.571,0.696 -12.305,0 -16.947,-0.931 -4.643,-0.927 -15.787,0 -21.589,1.394 -5.803,1.392 -11.144,2.32 -15.089,3.947 -3.946,1.624 -9.053,2.323 -15.089,13.001 -6.037,10.678 -17.411,33.586 -45.269,42.64"
       style="fill:none;stroke:#231f20;stroke-width:0.5;stroke-linecap:round;stroke-linejoin:round;stroke-miterlimit:4;stroke-dasharray:2.8, 1.8;stroke-dashoffset:0;stroke-opacity:1"
       id="path862" />
    <path
       d="m 336.858,360.659 c -2.535,-0.781 -4.394,-0.781 -7.41,-6.583 -3.018,-5.803 -7.311,-15.338 -7.661,-17.411 -0.551,-3.251 0.405,-7.601 3.337,-10.185"
       style="fill:none;stroke:#231f20;stroke-width:0.5;stroke-linecap:round;stroke-linejoin:round;stroke-miterlimit:4;stroke-dasharray:2.8, 1.8;stroke-dashoffset:0;stroke-opacity:1"
       id="path864" />
    <path
       d="m 298.229,426.183 c -2.441,-5.018 -7.782,-13.373 -17.532,-13.143 -9.75,0.232 -32.035,13.233 -23.446,35.519"
       style="fill:none;stroke:#231f20;stroke-width:0.5;stroke-linecap:round;stroke-linejoin:round;stroke-miterlimit:4;stroke-dasharray:2.8, 1.8;stroke-dashoffset:0;stroke-opacity:1"
       id="path866" />
    <path
       d="m 277.677,462.95 c -2.319,-6.964 -7.891,-10.678 -10.212,-12.535 -2.321,-1.856 -10.214,-4.875 -15.089,1.161 -4.875,6.037 -6.965,12.767 -7.893,18.571 -0.928,5.804 -0.695,13.696 -0.928,16.018 -0.232,2.322 -5.716,35.491 12.464,49.896"
       style="fill:none;stroke:#231f20;stroke-width:0.5;stroke-linecap:round;stroke-linejoin:round;stroke-miterlimit:4;stroke-dasharray:2.8, 1.8;stroke-dashoffset:0;stroke-opacity:1"
       id="path868" />
    <path
       d="m 262.677,490.609 c -2.177,2.52 -13.64,4.814 -19.051,-5.618"
       style="fill:none;stroke:#231f20;stroke-width:0.5;stroke-linecap:round;stroke-linejoin:round;stroke-miterlimit:4;stroke-dasharray:2.8, 1.8;stroke-dashoffset:0;stroke-opacity:1"
       id="path870" />
    <path
       d="m 540.002,745.647 c 0,0 -70.07,-28.582 -79.433,-33.067"
       style="fill:none;stroke:#231f20;stroke-width:0.5;stroke-linecap:round;stroke-linejoin:round;stroke-miterlimit:4;stroke-dasharray:2.8, 1.8;stroke-dashoffset:0;stroke-opacity:1"
       id="path872" />
    <path
       d="m 518.439,801.69 c -8.142,-10.576 -58.883,-77.948 -63.405,-85.598"
       style="fill:none;stroke:#231f20;stroke-width:0.5;stroke-linecap:round;stroke-linejoin:round;stroke-miterlimit:4;stroke-dasharray:2.8, 1.8;stroke-dashoffset:0;stroke-opacity:1"
       id="path874" />
    <path
       d="m 444.593,829.651 c -1.047,-17.093 -5.582,-105.802 -5.229,-113.157"
       style="fill:none;stroke:#231f20;stroke-width:0.5;stroke-linecap:round;stroke-linejoin:round;stroke-miterlimit:4;stroke-dasharray:2.8, 1.8;stroke-dashoffset:0;stroke-opacity:1"
       id="path876" />
    <path
       d="m 375.99,828.253 c 2.788,-18.132 16.331,-110.675 18.091,-121.337"
       style="fill:none;stroke:#231f20;stroke-width:0.5;stroke-linecap:round;stroke-linejoin:round;stroke-miterlimit:4;stroke-dasharray:2.8, 1.8;stroke-dashoffset:0;stroke-opacity:1"
       id="path878" />
    <path
       d="m 335.176,819.789 c 5.298,-19.07 28.806,-106.652 33.671,-120.209"
       style="fill:none;stroke:#231f20;stroke-width:0.5;stroke-linecap:round;stroke-linejoin:round;stroke-miterlimit:4;stroke-dasharray:2.8, 1.8;stroke-dashoffset:0;stroke-opacity:1"
       id="path880" />
    <path
       d="m 223.557,756.068 c 11.061,-12.804 74.623,-82.158 84.648,-93.224"
       style="fill:none;stroke:#231f20;stroke-width:0.5;stroke-linecap:round;stroke-linejoin:round;stroke-miterlimit:4;stroke-dasharray:2.8, 1.8;stroke-dashoffset:0;stroke-opacity:1"
       id="path882" />
    <path
       d="m 208.336,739.572 c 12.353,-11.978 81.788,-76.159 91.928,-84.905"
       style="fill:none;stroke:#231f20;stroke-width:0.5;stroke-linecap:round;stroke-linejoin:round;stroke-miterlimit:4;stroke-dasharray:2.8, 1.8;stroke-dashoffset:0;stroke-opacity:1"
       id="path884" />
    <path
       d="m 262.918,581.059 c -10.194,1.328 -96.551,12.473 -113.614,14.91"
       style="fill:none;stroke:#231f20;stroke-width:0.5;stroke-linecap:round;stroke-linejoin:round;stroke-miterlimit:4;stroke-dasharray:2.8, 1.8;stroke-dashoffset:0;stroke-opacity:1"
       id="path886" />
    <path
       d="M 252.384,532.586 C 241.233,530.852 174.212,520.25 152.357,517.89"
       style="fill:none;stroke:#231f20;stroke-width:0.5;stroke-linecap:round;stroke-linejoin:round;stroke-miterlimit:4;stroke-dasharray:2.8, 1.8;stroke-dashoffset:0;stroke-opacity:1"
       id="path888" />
    <path
       d="M 243.075,508.555 C 226.26,505.432 174.92,493.661 159.5,490.146"
       style="fill:none;stroke:#231f20;stroke-width:0.5;stroke-linecap:round;stroke-linejoin:round;stroke-miterlimit:4;stroke-dasharray:2.8, 1.8;stroke-dashoffset:0;stroke-opacity:1"
       id="path890" />
    <path
       d="M 243.402,487.379 C 229.045,482.45 184.504,468.54 171.605,464.354"
       style="fill:none;stroke:#231f20;stroke-width:0.5;stroke-linecap:round;stroke-linejoin:round;stroke-miterlimit:4;stroke-dasharray:2.8, 1.8;stroke-dashoffset:0;stroke-opacity:1"
       id="path892" />
    <path
       d="m 245.299,466.144 c -12.075,-5.979 -41.482,-20.885 -57.944,-26.489"
       style="fill:none;stroke:#231f20;stroke-width:0.5;stroke-linecap:round;stroke-linejoin:round;stroke-miterlimit:4;stroke-dasharray:2.8, 1.8;stroke-dashoffset:0;stroke-opacity:1"
       id="path894" />
    <path
       d="m 256.667,446.897 c -10.21,-6.93 -45.827,-27.344 -60.924,-35.069"
       style="fill:none;stroke:#231f20;stroke-width:0.5;stroke-linecap:round;stroke-linejoin:round;stroke-miterlimit:4;stroke-dasharray:2.8, 1.8;stroke-dashoffset:0;stroke-opacity:1"
       id="path896" />
    <path
       d="m 326.943,349.062 c -5.585,3.705 -10.147,16.736 -16.763,23.352 -6.616,6.616 -19.848,13.928 -37.26,13.928 -17.41,0 -37.332,1.508 -42.481,13.581 -5.311,12.449 -3.212,24.375 -9.489,24.375 -6.268,0 -5.256,-5.386 -5.136,-11.84 0.091,-4.92 0,-16.366 12.187,-25.418 12.188,-9.054 21.589,-11.84 42.482,-12.537 20.893,-0.696 36.563,-9.75 42.482,-19.152 5.92,-9.401 9.666,-11.452 11.101,-12.517 1.435,-1.063 4.221,-1.063 6.658,0.33 2.438,1.393 5.92,-1.393 9.054,-4.875 3.134,-3.482 12.884,-12.188 20.545,-14.625 7.661,-2.438 15.67,-2.438 21.937,-1.044 6.268,1.392 12.536,0.696 19.153,0.347 6.615,-0.347 11.142,1.045 23.33,3.134 12.187,2.09 21.589,4.179 21.241,9.054 -0.349,4.875 -3.483,4.527 -6.965,4.527 -3.481,0 -8.705,-1.045 -8.705,-3.134 0,-2.09 4.875,-2.786 4.875,-2.786 0,0 -1.045,-2.089 -5.224,-2.089 -4.177,0 -11.142,0 -15.669,-0.348 -4.527,-0.349 -13.928,-3.134 -16.366,0.696 -2.437,3.83 -3.134,7.661 -6.616,7.313 -3.482,-0.348 -3.134,-3.483 -4.875,-5.92 -1.741,-2.438 -4.875,-5.919 -8.009,-6.268 -3.134,-0.348 -8.531,-1.566 -11.84,0.349 -2.556,1.479 -5.945,3.473 -8.356,3.83 -4.701,0.696 -8.01,2.437 -9.75,6.616 -1.741,4.179 -4.622,7.951 -8.01,10.446 -3.308,2.438 -6.267,3.83 -7.66,1.045 -1.393,-2.786 -2.688,-2.484 -5.871,-0.37 z"
       style="fill:none;stroke:#231f20;stroke-width:0.5;stroke-linecap:round;stroke-linejoin:round;stroke-miterlimit:4;stroke-dasharray:2.8, 1.8;stroke-dashoffset:0;stroke-opacity:1"
       id="path898" />
    <path
       d="m 435.189,333.762 c 2.09,0.696 5.571,1.915 10.795,1.393"
       style="fill:none;stroke:#231f20;stroke-width:0.5;stroke-linecap:round;stroke-linejoin:round;stroke-miterlimit:4;stroke-dasharray:2.8, 1.8;stroke-dashoffset:0;stroke-opacity:1"
       id="path900" />
    <path
       d="m 543.263,650.02 c 0.452,2.592 2.079,3.057 4.864,3.52"
       style="fill:none;stroke:#231f20;stroke-width:0.5;stroke-linecap:round;stroke-linejoin:round;stroke-miterlimit:4;stroke-dasharray:2.8, 1.8;stroke-dashoffset:0;stroke-opacity:1"
       id="path902" />
    <path
       d="m 536.74,650.02 c -0.451,2.592 -2.078,3.057 -4.864,3.52"
       style="fill:none;stroke:#231f20;stroke-width:0.5;stroke-linecap:round;stroke-linejoin:round;stroke-miterlimit:4;stroke-dasharray:2.8, 1.8;stroke-dashoffset:0;stroke-opacity:1"
       id="path904" />
    <path
       d="m 621.716,511.7 c -1.392,-3.017 -6.499,-6.732 -11.142,-11.607 -4.644,-4.875 -12.769,-16.017 -16.948,-23.678 -4.177,-7.661 -6.267,-12.769 -2.088,-21.822 0,0 -2.323,10.215 3.25,19.036 5.571,8.821 14.391,20.893 17.41,24.142 3.018,3.251 7.896,7.239 9.518,13.929"
       style="fill:none;stroke:#231f20;stroke-width:0.5;stroke-linecap:round;stroke-linejoin:round;stroke-miterlimit:4;stroke-dasharray:2.8, 1.8;stroke-dashoffset:0;stroke-opacity:1"
       id="path906" />
    <path
       d="m 458.287,511.7 c 1.393,-3.017 6.499,-6.732 11.143,-11.607 4.644,-4.875 12.768,-16.017 16.946,-23.678 4.179,-7.661 6.268,-12.769 2.09,-21.822 0,0 2.322,10.215 -3.25,19.036 -5.571,8.821 -14.392,20.893 -17.411,24.142 -3.017,3.251 -7.895,7.239 -9.518,13.929"
       style="fill:none;stroke:#231f20;stroke-width:0.5;stroke-linecap:round;stroke-linejoin:round;stroke-miterlimit:4;stroke-dasharray:2.8, 1.8;stroke-dashoffset:0;stroke-opacity:1"
       id="path908" />
  </g>
</svg>
