<?xml version="1.0" encoding="UTF-8" standalone="no"?>
<!-- Created with Inkscape (http://www.inkscape.org/) -->

<svg
   version="1.1"
   id="svg2"
   width="1440"
   height="1344"
   viewBox="0 0 1440 1344"
   xmlns="http://www.w3.org/2000/svg"
   xmlns:svg="http://www.w3.org/2000/svg">
  <defs
     id="defs6" />
  <g
     id="g10">
    <path
       d="m 543.484,655.514 c 0,-1.923 -1.559,-3.482 -3.482,-3.482 -1.923,0 -3.482,1.559 -3.482,3.482 0,1.924 1.559,3.483 3.482,3.483 1.923,0 3.482,-1.559 3.482,-3.483"
       style="fill:#ffffff;fill-opacity:1;fill-rule:nonzero;stroke:none;stroke-width:0.1"
       id="path670" />
    <path
       d="m 543.484,655.514 c 0,-1.923 -1.559,-3.482 -3.482,-3.482 -1.923,0 -3.482,1.559 -3.482,3.482 0,1.924 1.559,3.483 3.482,3.483 1.923,0 3.482,-1.559 3.482,-3.483 z"
       style="fill:none;stroke:#231f20;stroke-width:0.5;stroke-linecap:butt;stroke-linejoin:miter;stroke-miterlimit:4;stroke-dasharray:none;stroke-opacity:1"
       id="path672" />
    <path
       d="m 314.938,332.085 c 0,-0.77 0.623,-1.393 1.393,-1.393 0.77,0 1.392,0.623 1.392,1.393 0,0.77 -0.622,1.393 -1.392,1.393 -0.77,0 -1.393,-0.623 -1.393,-1.393"
       style="fill:#ffffff;fill-opacity:1;fill-rule:nonzero;stroke:none;stroke-width:0.1"
       id="path674" />
    <path
       d="m 314.938,332.085 c 0,-0.77 0.623,-1.393 1.393,-1.393 0.77,0 1.392,0.623 1.392,1.393 0,0.77 -0.622,1.393 -1.392,1.393 -0.77,0 -1.393,-0.623 -1.393,-1.393 z"
       style="fill:none;stroke:#231f20;stroke-width:0.5;stroke-linecap:butt;stroke-linejoin:miter;stroke-miterlimit:4;stroke-dasharray:none;stroke-opacity:1"
       id="path676" />
    <path
       d="m 765.066,332.085 c 0,-0.77 -0.623,-1.393 -1.394,-1.393 -0.769,0 -1.392,0.623 -1.392,1.393 0,0.77 0.623,1.393 1.392,1.393 0.771,0 1.394,-0.623 1.394,-1.393"
       style="fill:#ffffff;fill-opacity:1;fill-rule:nonzero;stroke:none;stroke-width:0.1"
       id="path678" />
    <path
       d="m 765.066,332.085 c 0,-0.77 -0.623,-1.393 -1.394,-1.393 -0.769,0 -1.392,0.623 -1.392,1.393 0,0.77 0.623,1.393 1.392,1.393 0.771,0 1.394,-0.623 1.394,-1.393 z"
       style="fill:none;stroke:#231f20;stroke-width:0.5;stroke-linecap:butt;stroke-linejoin:miter;stroke-miterlimit:4;stroke-dasharray:none;stroke-opacity:1"
       id="path680" />
    <path
       d="m 815.44,351.174 c 0,-2.115 -1.716,-3.83 -3.83,-3.83 -2.115,0 -3.831,1.715 -3.831,3.83 0,2.116 1.716,3.83 3.831,3.83 2.114,0 3.83,-1.714 3.83,-3.83"
       style="fill:#ffffff;fill-opacity:1;fill-rule:nonzero;stroke:none;stroke-width:0.1"
       id="path682" />
    <path
       d="m 815.44,351.174 c 0,-2.115 -1.716,-3.83 -3.83,-3.83 -2.115,0 -3.831,1.715 -3.831,3.83 0,2.116 1.716,3.83 3.831,3.83 2.114,0 3.83,-1.714 3.83,-3.83 z"
       style="fill:none;stroke:#231f20;stroke-width:0.5;stroke-linecap:butt;stroke-linejoin:miter;stroke-miterlimit:4;stroke-dasharray:none;stroke-opacity:1"
       id="path684" />
    <path
       d="m 763.904,329.585 c 0,-1.539 -1.247,-2.786 -2.785,-2.786 -1.539,0 -2.787,1.247 -2.787,2.786 0,1.539 1.248,2.786 2.787,2.786 1.538,0 2.785,-1.247 2.785,-2.786"
       style="fill:#ffffff;fill-opacity:1;fill-rule:nonzero;stroke:none;stroke-width:0.1"
       id="path686" />
    <path
       d="m 763.904,329.585 c 0,-1.539 -1.247,-2.786 -2.785,-2.786 -1.539,0 -2.787,1.247 -2.787,2.786 0,1.539 1.248,2.786 2.787,2.786 1.538,0 2.785,-1.247 2.785,-2.786 z"
       style="fill:none;stroke:#231f20;stroke-width:0.5;stroke-linecap:butt;stroke-linejoin:miter;stroke-miterlimit:4;stroke-dasharray:none;stroke-opacity:1"
       id="path688" />
    <path
       d="m 585.618,351.523 c 0,-1.924 -1.559,-3.483 -3.482,-3.483 -1.924,0 -3.482,1.559 -3.482,3.483 0,1.923 1.558,3.481 3.482,3.481 1.923,0 3.482,-1.558 3.482,-3.481"
       style="fill:#ffffff;fill-opacity:1;fill-rule:nonzero;stroke:none;stroke-width:0.1"
       id="path690" />
    <path
       d="m 585.618,351.523 c 0,-1.924 -1.559,-3.483 -3.482,-3.483 -1.924,0 -3.482,1.559 -3.482,3.483 0,1.923 1.558,3.481 3.482,3.481 1.923,0 3.482,-1.558 3.482,-3.481 z"
       style="fill:none;stroke:#231f20;stroke-width:0.5;stroke-linecap:butt;stroke-linejoin:miter;stroke-miterlimit:4;stroke-dasharray:none;stroke-opacity:1"
       id="path692" />
    <path
       d="m 264.564,351.174 c 0,-2.114 1.715,-3.83 3.83,-3.83 2.115,0 3.83,1.716 3.83,3.83 0,2.116 -1.715,3.83 -3.83,3.83 -2.115,0 -3.83,-1.714 -3.83,-3.83"
       style="fill:#ffffff;fill-opacity:1;fill-rule:nonzero;stroke:none;stroke-width:0.1"
       id="path694" />
    <path
       d="m 264.564,351.174 c 0,-2.114 1.715,-3.83 3.83,-3.83 2.115,0 3.83,1.716 3.83,3.83 0,2.116 -1.715,3.83 -3.83,3.83 -2.115,0 -3.83,-1.714 -3.83,-3.83 z"
       style="fill:none;stroke:#231f20;stroke-width:0.5;stroke-linecap:butt;stroke-linejoin:miter;stroke-miterlimit:4;stroke-dasharray:none;stroke-opacity:1"
       id="path696" />
    <path
       d="m 316.099,329.585 c 0,-1.537 1.248,-2.786 2.786,-2.786 1.538,0 2.786,1.249 2.786,2.786 0,1.539 -1.248,2.786 -2.786,2.786 -1.538,0 -2.786,-1.247 -2.786,-2.786"
       style="fill:#ffffff;fill-opacity:1;fill-rule:nonzero;stroke:none;stroke-width:0.1"
       id="path698" />
    <path
       d="m 316.099,329.585 c 0,-1.537 1.248,-2.786 2.786,-2.786 1.538,0 2.786,1.249 2.786,2.786 0,1.539 -1.248,2.786 -2.786,2.786 -1.538,0 -2.786,-1.247 -2.786,-2.786 z"
       style="fill:none;stroke:#231f20;stroke-width:0.5;stroke-linecap:butt;stroke-linejoin:miter;stroke-miterlimit:4;stroke-dasharray:none;stroke-opacity:1"
       id="path700" />
    <path
       d="m 494.385,351.523 c 0,-1.924 1.56,-3.483 3.483,-3.483 1.924,0 3.482,1.559 3.482,3.483 0,1.923 -1.558,3.481 -3.482,3.481 -1.923,0 -3.483,-1.558 -3.483,-3.481"
       style="fill:#ffffff;fill-opacity:1;fill-rule:nonzero;stroke:none;stroke-width:0.1"
       id="path702" />
    <path
       d="m 494.385,351.523 c 0,-1.924 1.56,-3.483 3.483,-3.483 1.924,0 3.482,1.559 3.482,3.483 0,1.923 -1.558,3.481 -3.482,3.481 -1.923,0 -3.483,-1.558 -3.483,-3.481 z"
       style="fill:none;stroke:#231f20;stroke-width:0.5;stroke-linecap:butt;stroke-linejoin:miter;stroke-miterlimit:4;stroke-dasharray:none;stroke-opacity:1"
       id="path704" />
    <path
       d="m 540.002,337.942 c -1.742,0 -11.841,0.161 -16.714,1.045 -5.746,1.042 -15.67,6.964 -18.455,11.839 -2.787,4.875 -1.045,7.312 -1.045,7.312 -2.09,-0.348 -6.965,-2.785 -12.188,-5.919 -5.224,-3.134 -21.59,-11.143 -25.768,-13.581 -4.178,-2.437 -8.357,-10.794 -11.839,-15.321 -3.483,-4.527 -19.849,-6.616 -26.813,-6.964 -6.965,-0.349 -27.509,0.696 -30.295,0.696 -2.785,0 -8.009,2.089 -9.75,2.089 -1.741,0 -6.964,-3.83 -28.553,-0.348 -21.589,3.482 -30.643,10.098 -37.259,12.884 -6.616,2.786 -20.545,6.616 -27.161,7.661 -3.785,0.598 -17.933,1.812 -21.242,9.75 -2.611,6.268 -5.571,5.919 -5.571,5.919 -25.767,3.483 -47.473,25.072 -53.044,32.967 -5.571,7.892 -15.321,35.749 -22.751,54.783 -7.429,19.038 -18.107,8.822 -30.642,68.716 -12.536,59.893 -1.858,135.57 32.501,201.035 34.357,65.464 101.678,89.608 125.821,98.429 24.142,8.822 79.392,20.08 126.056,20.08 56.06,0 76.542,-26.807 84.614,-36.562 8.356,-10.098 10.098,-25.419 10.098,-29.947 0,4.528 1.741,19.849 10.098,29.947 8.071,9.755 28.554,36.562 84.613,36.562 46.664,0 101.914,-11.258 126.057,-20.08 24.143,-8.821 91.464,-32.965 125.821,-98.429 34.358,-65.465 45.037,-141.142 32.501,-201.035 -12.536,-59.894 -23.214,-49.678 -30.642,-68.716 -7.43,-19.036 -17.18,-46.891 -22.751,-54.785 -5.573,-7.893 -27.277,-29.482 -53.045,-32.965 0,0 -2.96,0.349 -5.572,-5.919 -3.307,-7.94 -17.456,-9.153 -21.241,-9.75 -6.616,-1.045 -20.545,-4.875 -27.16,-7.661 -6.616,-2.786 -15.67,-9.402 -37.26,-12.884 -21.589,-3.482 -26.812,0.348 -28.553,0.348 -1.741,0 -6.964,-2.089 -9.75,-2.089 -2.786,0 -23.33,-1.045 -30.294,-0.696 -6.965,0.348 -23.331,2.437 -26.813,6.964 -3.482,4.527 -7.661,12.884 -11.84,15.321 -4.178,2.438 -20.545,10.447 -25.767,13.581 -5.224,3.134 -10.099,5.571 -12.188,5.919 0,0 1.742,-2.437 -1.045,-7.312 -2.786,-4.875 -12.361,-10.971 -18.455,-11.839 -5.242,-0.747 -14.973,-1.045 -16.714,-1.045 z m 6.093,317.398 c -3.307,1.044 -6.093,5.05 -6.093,8.01 0,-2.96 -2.786,-6.966 -6.094,-8.01 3.308,-0.696 6.094,-5.746 6.094,-7.138 0,1.392 2.786,6.442 6.093,7.138"
       style="fill:#ffffff;fill-opacity:1;fill-rule:nonzero;stroke:none;stroke-width:0.1"
       id="path706" />
    <path
       d="m 540.002,337.942 c -1.742,0 -11.841,0.161 -16.714,1.045 -5.746,1.042 -15.67,6.964 -18.455,11.839 -2.787,4.875 -1.045,7.312 -1.045,7.312 -2.09,-0.348 -6.965,-2.785 -12.188,-5.919 -5.224,-3.134 -21.59,-11.143 -25.768,-13.581 -4.178,-2.437 -8.357,-10.794 -11.839,-15.321 -3.483,-4.527 -19.849,-6.616 -26.813,-6.964 -6.965,-0.349 -27.509,0.696 -30.295,0.696 -2.785,0 -8.009,2.089 -9.75,2.089 -1.741,0 -6.964,-3.83 -28.553,-0.348 -21.589,3.482 -30.643,10.098 -37.259,12.884 -6.616,2.786 -20.545,6.616 -27.161,7.661 -3.785,0.598 -17.933,1.812 -21.242,9.75 -2.611,6.268 -5.571,5.919 -5.571,5.919 -25.767,3.483 -47.473,25.072 -53.044,32.967 -5.571,7.892 -15.321,35.749 -22.751,54.783 -7.429,19.038 -18.107,8.822 -30.642,68.716 -12.536,59.893 -1.858,135.57 32.501,201.035 34.357,65.464 101.678,89.608 125.821,98.429 24.142,8.822 79.392,20.08 126.056,20.08 56.06,0 76.542,-26.807 84.614,-36.562 8.356,-10.098 10.098,-25.419 10.098,-29.947 0,4.528 1.741,19.849 10.098,29.947 8.071,9.755 28.554,36.562 84.613,36.562 46.664,0 101.914,-11.258 126.057,-20.08 24.143,-8.821 91.464,-32.965 125.821,-98.429 34.358,-65.465 45.037,-141.142 32.501,-201.035 -12.536,-59.894 -23.214,-49.678 -30.642,-68.716 -7.43,-19.036 -17.18,-46.891 -22.751,-54.785 -5.573,-7.893 -27.277,-29.482 -53.045,-32.965 0,0 -2.96,0.349 -5.572,-5.919 -3.307,-7.94 -17.456,-9.153 -21.241,-9.75 -6.616,-1.045 -20.545,-4.875 -27.16,-7.661 -6.616,-2.786 -15.67,-9.402 -37.26,-12.884 -21.589,-3.482 -26.812,0.348 -28.553,0.348 -1.741,0 -6.964,-2.089 -9.75,-2.089 -2.786,0 -23.33,-1.045 -30.294,-0.696 -6.965,0.348 -23.331,2.437 -26.813,6.964 -3.482,4.527 -7.661,12.884 -11.84,15.321 -4.178,2.438 -20.545,10.447 -25.767,13.581 -5.224,3.134 -10.099,5.571 -12.188,5.919 0,0 1.742,-2.437 -1.045,-7.312 -2.786,-4.875 -12.361,-10.971 -18.455,-11.839 -5.242,-0.747 -14.973,-1.045 -16.714,-1.045 z m 6.093,317.398 c -3.307,1.044 -6.093,5.05 -6.093,8.01 0,-2.96 -2.786,-6.966 -6.094,-8.01 3.308,-0.696 6.094,-5.746 6.094,-7.138 0,1.392 2.786,6.442 6.093,7.138 z"
       style="fill:none;stroke:#231f20;stroke-width:0.75;stroke-linecap:round;stroke-linejoin:round;stroke-miterlimit:4;stroke-dasharray:none;stroke-opacity:1"
       id="path708" />
    <path
       d="M 540.002,764.505 V 663.35"
       style="fill:none;stroke:#231f20;stroke-width:0.75;stroke-linecap:round;stroke-linejoin:round;stroke-miterlimit:4;stroke-dasharray:none;stroke-opacity:1"
       id="path710" />
    <path
       d="m 623.921,710.88 c 8.081,4.04 21.938,2.786 52.233,-10.098 0,0 -11.143,0.348 -19.849,1.741 -8.705,1.393 -23.794,1.974 -30.294,-5.223 -5.469,-6.054 -13.97,-16.327 -23.679,-25.768 -8.853,-8.611 -14.973,-10.447 -14.973,-10.447 0,0 11.84,10.447 17.759,22.287 5.92,11.838 10.446,23.33 18.803,27.508 z"
       style="fill:none;stroke:#231f20;stroke-width:0.5;stroke-linecap:butt;stroke-linejoin:miter;stroke-miterlimit:4;stroke-dasharray:none;stroke-opacity:1"
       id="path712" />
    <path
       d="m 675.143,701.209 c 9.368,-3.561 13.547,-4.954 29.565,-9.48 16.017,-4.527 44.919,-14.974 65.463,-33.429 20.545,-18.456 34.823,-42.831 40.742,-63.723 5.919,-20.893 8.009,-46.661 7.661,-59.894 -0.349,-13.231 -3.483,-42.134 -20.545,-68.946 0,0 14.625,35.518 14.625,60.937 0,25.42 -5.919,60.242 -16.366,81.483 -10.447,21.241 -25.072,36.562 -47.706,49.446 -22.633,12.885 -47.008,21.59 -79.392,19.501"
       style="fill:none;stroke:#231f20;stroke-width:0.5;stroke-linecap:butt;stroke-linejoin:miter;stroke-miterlimit:4;stroke-dasharray:none;stroke-opacity:1"
       id="path714" />
    <path
       d="m 798.029,465.737 c -3.405,-7.957 -8.357,-20.893 -11.839,-29.947 -3.482,-9.053 -11.84,-17.758 -19.5,-21.241 -7.661,-3.482 -18.108,-14.276 -21.938,-26.116 -3.831,-11.839 -6.311,-14.874 -8.357,-17.062 -1.443,-1.544 -0.71,-4.45 0.696,-5.223"
       style="fill:none;stroke:#231f20;stroke-width:0.5;stroke-linecap:butt;stroke-linejoin:miter;stroke-miterlimit:4;stroke-dasharray:none;stroke-opacity:1"
       id="path716" />
    <path
       d="m 773.969,336.626 c 3.052,9.092 28.587,30.914 36.879,17.769"
       style="fill:none;stroke:#231f20;stroke-width:0.5;stroke-linecap:butt;stroke-linejoin:miter;stroke-miterlimit:4;stroke-dasharray:none;stroke-opacity:1"
       id="path718" />
    <path
       d="M 540.002,391.916 V 364.407"
       style="fill:none;stroke:#231f20;stroke-width:0.75;stroke-linecap:round;stroke-linejoin:round;stroke-miterlimit:4;stroke-dasharray:none;stroke-opacity:1"
       id="path720" />
    <path
       d="m 638.546,668.05 c 1.789,1.443 1.77,-1.135 -0.696,-4.527 -3.715,-5.107 -7.995,-15.369 -9.401,-19.5 -1.741,-5.111 -4.354,-15.321 -4.875,-19.848 -0.456,-3.944 -1.207,-10.058 -0.698,-12.885 0.689,-3.814 1.795,-11.142 1.742,-13.58 -0.092,-4.295 -0.697,-10.272 -0.348,-13.057 0.035,-0.286 0.069,-0.567 0.102,-0.845 0.28,-2.429 0.484,-4.655 1.639,-8.731 1.044,19.847 0.219,30.177 -0.697,35.866 -0.673,4.182 0.349,13.232 2.09,19.847 1.741,6.617 6.986,23.664 13.928,33.778 6.341,9.238 13.929,9.401 16.367,9.75 2.437,0.348 11.385,1.509 11.491,2.786 0.115,1.393 -8.041,0.215 -11.144,-0.349 -3.663,-0.666 -11.838,-2.089 -19.5,-8.705"
       style="fill:#b2b1b1;fill-opacity:1;fill-rule:nonzero;stroke:none;stroke-width:0.1"
       id="path722" />
    <path
       d="m 638.546,668.05 c 1.789,1.443 1.77,-1.135 -0.696,-4.527 -3.715,-5.107 -7.995,-15.369 -9.401,-19.5 -1.741,-5.111 -4.354,-15.321 -4.875,-19.848 -0.456,-3.944 -1.207,-10.058 -0.698,-12.885 0.689,-3.814 1.795,-11.142 1.742,-13.58 -0.092,-4.295 -0.697,-10.272 -0.348,-13.057 0.035,-0.286 0.069,-0.567 0.102,-0.845 -4.124,12.85 -16,23.734 -22.388,29.92 -5.156,4.994 -11.491,15.322 -12.884,22.982 11.143,5.92 41.786,24.724 49.446,31.34"
       style="fill:#706d6e;fill-opacity:1;fill-rule:nonzero;stroke:none;stroke-width:0.1"
       id="path724" />
    <path
       d="m 638.546,668.05 c 1.789,1.443 1.77,-1.135 -0.696,-4.527 -3.715,-5.107 -7.995,-15.369 -9.401,-19.5 -1.741,-5.111 -4.354,-15.321 -4.875,-19.848 -0.456,-3.944 -1.207,-10.058 -0.698,-12.885 0.689,-3.814 1.795,-11.142 1.742,-13.58 -0.092,-4.295 -0.697,-10.272 -0.348,-13.057 0.035,-0.286 0.069,-0.567 0.102,-0.845 -4.124,12.85 -16,23.734 -22.388,29.92 -5.156,4.994 -11.491,15.322 -12.884,22.982 11.143,5.92 41.786,24.724 49.446,31.34 z"
       style="fill:none;stroke:#231f20;stroke-width:0.5;stroke-linecap:butt;stroke-linejoin:miter;stroke-miterlimit:4;stroke-dasharray:none;stroke-opacity:1"
       id="path726" />
    <path
       d="m 626.011,575.077 c -0.116,-3.948 -1.276,-35.984 -1.509,-40.859 -0.232,-4.875 -0.463,-22.052 0,-24.837 0.464,-2.786 2.553,-8.474 0,-9.053 -3.021,-0.688 -2.288,8.24 -2.322,12.07 -0.028,3.259 1.727,28.132 1.974,33.986 0.301,7.103 1.857,28.693 1.857,28.693"
       style="fill:#b2b1b1;fill-opacity:1;fill-rule:nonzero;stroke:none;stroke-width:0.1"
       id="path728" />
    <path
       d="m 617.538,473.863 c 4.403,2.555 10.212,-0.465 12.767,-5.806 2.555,-5.337 7.195,-16.946 4.179,-19.964 -3.018,-3.016 -13.52,-2.372 -19.5,4.179 -4.875,5.341 -4.642,17.412 2.554,21.591 z"
       style="fill:none;stroke:#231f20;stroke-width:0.5;stroke-linecap:butt;stroke-linejoin:miter;stroke-miterlimit:4;stroke-dasharray:none;stroke-opacity:1"
       id="path730" />
    <path
       d="m 644.703,445.143 c -0.551,-1.942 6.379,-9.353 7.772,-6.566 1.393,2.785 -6.95,9.461 -7.772,6.566 z"
       style="fill:none;stroke:#231f20;stroke-width:0.5;stroke-linecap:butt;stroke-linejoin:miter;stroke-miterlimit:4;stroke-dasharray:none;stroke-opacity:1"
       id="path732" />
    <path
       d="m 657.463,436.755 c -0.019,-2.017 7.526,-7.454 8.058,-4.412 0.534,3.046 -8.032,7.419 -8.058,4.412 z"
       style="fill:none;stroke:#231f20;stroke-width:0.5;stroke-linecap:butt;stroke-linejoin:miter;stroke-miterlimit:4;stroke-dasharray:none;stroke-opacity:1"
       id="path734" />
    <path
       d="m 669.19,677.104 c 0.115,1.393 -8.041,0.215 -11.144,-0.349 -3.663,-0.666 -11.838,-2.089 -19.5,-8.705"
       style="fill:none;stroke:#231f20;stroke-width:0.5;stroke-linecap:butt;stroke-linejoin:miter;stroke-miterlimit:4;stroke-dasharray:none;stroke-opacity:1"
       id="path736" />
    <path
       d="m 503.788,358.138 c 9.876,4.568 31.687,6.269 36.214,6.269 4.527,0 26.337,-1.702 36.214,-6.269"
       style="fill:none;stroke:#231f20;stroke-width:0.5;stroke-linecap:butt;stroke-linejoin:miter;stroke-miterlimit:4;stroke-dasharray:none;stroke-opacity:1"
       id="path738" />
    <path
       d="m 492.644,661.085 c 17.76,-10.097 41.09,-14.276 47.358,-14.276 6.268,0 29.598,4.179 47.357,14.276"
       style="fill:none;stroke:#231f20;stroke-width:0.5;stroke-linecap:butt;stroke-linejoin:miter;stroke-miterlimit:4;stroke-dasharray:none;stroke-opacity:1"
       id="path740" />
    <path
       d="m 456.082,710.88 c -8.08,4.04 -21.938,2.786 -52.232,-10.098 0,0 11.143,0.348 19.848,1.741 8.705,1.393 23.794,1.974 30.295,-5.223 5.469,-6.054 13.97,-16.327 23.678,-25.768 8.854,-8.611 14.973,-10.447 14.973,-10.447 0,0 -11.839,10.447 -17.759,22.287 -5.919,11.838 -10.446,23.33 -18.803,27.508 z"
       style="fill:none;stroke:#231f20;stroke-width:0.5;stroke-linecap:butt;stroke-linejoin:miter;stroke-miterlimit:4;stroke-dasharray:none;stroke-opacity:1"
       id="path742" />
    <path
       d="m 404.86,701.209 c -9.367,-3.561 -13.546,-4.954 -29.564,-9.48 -16.018,-4.527 -44.92,-14.974 -65.464,-33.429 -20.545,-18.456 -34.822,-42.831 -40.742,-63.723 -5.92,-20.893 -8.008,-46.661 -7.66,-59.894 0.348,-13.231 3.482,-42.134 20.544,-68.946 0,0 -14.625,35.518 -14.625,60.937 0,25.42 5.92,60.242 16.366,81.483 10.447,21.241 25.072,36.562 47.706,49.446 22.634,12.885 47.009,21.59 79.393,19.501"
       style="fill:none;stroke:#231f20;stroke-width:0.5;stroke-linecap:butt;stroke-linejoin:miter;stroke-miterlimit:4;stroke-dasharray:none;stroke-opacity:1"
       id="path744" />
    <path
       d="m 281.974,465.737 c 3.405,-7.957 8.358,-20.893 11.84,-29.947 3.482,-9.053 11.839,-17.758 19.5,-21.241 7.66,-3.482 18.107,-14.276 21.937,-26.116 3.831,-11.839 6.312,-14.872 8.358,-17.062 1.442,-1.542 0.71,-4.448 -0.697,-5.223"
       style="fill:none;stroke:#231f20;stroke-width:0.5;stroke-linecap:butt;stroke-linejoin:miter;stroke-miterlimit:4;stroke-dasharray:none;stroke-opacity:1"
       id="path746" />
    <path
       d="m 306.034,336.628 c -3.051,9.092 -28.586,30.912 -36.878,17.767"
       style="fill:none;stroke:#231f20;stroke-width:0.5;stroke-linecap:butt;stroke-linejoin:miter;stroke-miterlimit:4;stroke-dasharray:none;stroke-opacity:1"
       id="path748" />
    <path
       d="m 441.457,668.05 c -1.789,1.443 -1.77,-1.135 0.697,-4.527 3.714,-5.107 7.995,-15.369 9.401,-19.5 1.741,-5.111 4.353,-15.321 4.875,-19.848 0.456,-3.944 1.206,-10.058 0.696,-12.885 -0.688,-3.814 -1.793,-11.142 -1.741,-13.58 0.093,-4.295 0.697,-10.272 0.349,-13.057 -0.035,-0.286 -0.069,-0.567 -0.103,-0.845 -0.28,-2.429 -0.483,-4.655 -1.638,-8.731 -1.045,19.847 -0.219,30.177 0.696,35.866 0.674,4.182 -0.348,13.232 -2.089,19.847 -1.741,6.617 -6.986,23.664 -13.929,33.778 -6.341,9.238 -13.928,9.401 -16.366,9.75 -2.437,0.348 -11.385,1.509 -11.491,2.786 -0.115,1.393 8.04,0.215 11.143,-0.349 3.663,-0.666 11.839,-2.089 19.5,-8.705"
       style="fill:#b2b1b1;fill-opacity:1;fill-rule:nonzero;stroke:none;stroke-width:0.1"
       id="path750" />
    <path
       d="m 441.457,668.05 c -1.789,1.443 -1.77,-1.135 0.697,-4.527 3.714,-5.107 7.995,-15.369 9.401,-19.5 1.741,-5.111 4.353,-15.321 4.875,-19.848 0.456,-3.944 1.206,-10.058 0.696,-12.885 -0.688,-3.814 -1.793,-11.142 -1.741,-13.58 0.093,-4.295 0.697,-10.272 0.349,-13.057 -0.035,-0.286 -0.069,-0.567 -0.103,-0.845 4.125,12.85 16.001,23.734 22.388,29.92 5.157,4.994 11.491,15.322 12.885,22.982 -11.144,5.92 -41.786,24.724 -49.447,31.34"
       style="fill:#706d6e;fill-opacity:1;fill-rule:nonzero;stroke:none;stroke-width:0.1"
       id="path752" />
    <path
       d="m 441.457,668.05 c -1.789,1.443 -1.77,-1.135 0.697,-4.527 3.714,-5.107 7.995,-15.369 9.401,-19.5 1.741,-5.111 4.353,-15.321 4.875,-19.848 0.456,-3.944 1.206,-10.058 0.696,-12.885 -0.688,-3.814 -1.793,-11.142 -1.741,-13.58 0.093,-4.295 0.697,-10.272 0.349,-13.057 -0.035,-0.286 -0.069,-0.567 -0.103,-0.845 4.125,12.85 16.001,23.734 22.388,29.92 5.157,4.994 11.491,15.322 12.885,22.982 -11.144,5.92 -41.786,24.724 -49.447,31.34 z"
       style="fill:none;stroke:#231f20;stroke-width:0.5;stroke-linecap:butt;stroke-linejoin:miter;stroke-miterlimit:4;stroke-dasharray:none;stroke-opacity:1"
       id="path754" />
    <path
       d="m 490.904,636.71 c 11.142,-5.92 25.767,-8.705 30.991,-9.75 5.223,-1.044 16.018,-4.526 18.107,-4.526 2.089,0 12.883,3.482 18.107,4.526 5.223,1.045 19.849,3.83 30.991,9.75"
       style="fill:none;stroke:#231f20;stroke-width:0.5;stroke-linecap:butt;stroke-linejoin:miter;stroke-miterlimit:4;stroke-dasharray:none;stroke-opacity:1"
       id="path756" />
    <path
       d="m 453.993,575.077 c 0.115,-3.948 1.275,-35.984 1.508,-40.859 0.233,-4.875 0.464,-22.052 0,-24.837 -0.463,-2.786 -2.553,-8.474 0,-9.053 3.021,-0.688 2.288,8.24 2.322,12.07 0.029,3.259 -1.726,28.132 -1.974,33.986 -0.301,7.103 -1.856,28.693 -1.856,28.693"
       style="fill:#b2b1b1;fill-opacity:1;fill-rule:nonzero;stroke:none;stroke-width:0.1"
       id="path758" />
    <path
       d="m 462.465,473.863 c -4.403,2.555 -10.212,-0.465 -12.766,-5.806 -2.555,-5.337 -7.197,-16.946 -4.179,-19.964 3.017,-3.016 13.519,-2.372 19.5,4.179 4.875,5.341 4.641,17.412 -2.555,21.591 z"
       style="fill:none;stroke:#231f20;stroke-width:0.5;stroke-linecap:butt;stroke-linejoin:miter;stroke-miterlimit:4;stroke-dasharray:none;stroke-opacity:1"
       id="path760" />
    <path
       d="m 435.3,445.143 c 0.551,-1.942 -6.379,-9.353 -7.772,-6.566 -1.393,2.785 6.951,9.461 7.772,6.566 z"
       style="fill:none;stroke:#231f20;stroke-width:0.5;stroke-linecap:butt;stroke-linejoin:miter;stroke-miterlimit:4;stroke-dasharray:none;stroke-opacity:1"
       id="path762" />
    <path
       d="m 422.541,436.755 c 0.018,-2.017 -7.527,-7.453 -8.058,-4.412 -0.535,3.046 8.031,7.419 8.058,4.412 z"
       style="fill:none;stroke:#231f20;stroke-width:0.5;stroke-linecap:butt;stroke-linejoin:miter;stroke-miterlimit:4;stroke-dasharray:none;stroke-opacity:1"
       id="path764" />
    <path
       d="m 410.814,677.104 c -0.115,1.393 8.04,0.215 11.143,-0.349 3.663,-0.666 11.839,-2.089 19.5,-8.705"
       style="fill:none;stroke:#231f20;stroke-width:0.5;stroke-linecap:butt;stroke-linejoin:miter;stroke-miterlimit:4;stroke-dasharray:none;stroke-opacity:1"
       id="path766" />
    <path
       d="m 624.372,583.808 c 0.28,-2.429 0.484,-4.655 1.639,-8.731 1.044,19.847 0.219,30.177 -0.697,35.866 -0.673,4.182 0.349,13.232 2.09,19.847 1.741,6.617 6.986,23.664 13.928,33.778 6.341,9.238 13.929,9.401 16.367,9.75 2.437,0.348 11.385,1.509 11.491,2.786"
       style="fill:none;stroke:#231f20;stroke-width:0.5;stroke-linecap:butt;stroke-linejoin:miter;stroke-miterlimit:4;stroke-dasharray:none;stroke-opacity:1"
       id="path768" />
    <path
       d="m 455.631,583.808 c -0.28,-2.429 -0.483,-4.655 -1.638,-8.731 -1.045,19.847 -0.219,30.177 0.696,35.866 0.674,4.182 -0.348,13.232 -2.089,19.847 -1.741,6.617 -6.986,23.664 -13.929,33.778 -6.341,9.238 -13.928,9.401 -16.366,9.75 -2.437,0.348 -11.385,1.509 -11.491,2.786"
       style="fill:none;stroke:#231f20;stroke-width:0.5;stroke-linecap:butt;stroke-linejoin:miter;stroke-miterlimit:4;stroke-dasharray:none;stroke-opacity:1"
       id="path770" />
    <path
       d="m 626.011,575.077 c -0.116,-3.948 -1.276,-35.984 -1.509,-40.859 -0.232,-4.875 -0.463,-22.052 0,-24.837 0.464,-2.786 2.553,-8.474 0,-9.053 -3.021,-0.688 -2.288,8.24 -2.322,12.07 -0.028,3.259 1.727,28.132 1.974,33.986 0.301,7.103 1.857,28.693 1.857,28.693 z"
       style="fill:none;stroke:#231f20;stroke-width:0.5;stroke-linecap:butt;stroke-linejoin:miter;stroke-miterlimit:4;stroke-dasharray:none;stroke-opacity:1"
       id="path772" />
    <path
       d="m 453.993,575.077 c 0.115,-3.948 1.275,-35.984 1.508,-40.859 0.233,-4.875 0.464,-22.052 0,-24.837 -0.463,-2.786 -2.553,-8.474 0,-9.053 3.021,-0.688 2.288,8.24 2.322,12.07 0.029,3.259 -1.726,28.132 -1.974,33.986 -0.301,7.103 -1.856,28.693 -1.856,28.693 z"
       style="fill:none;stroke:#231f20;stroke-width:0.5;stroke-linecap:butt;stroke-linejoin:miter;stroke-miterlimit:4;stroke-dasharray:none;stroke-opacity:1"
       id="path774" />
    <path
       d="m 540.002,749.533 c 0,0 66.663,-38.316 76.846,-44.759"
       style="fill:none;stroke:#231f20;stroke-width:0.5;stroke-linecap:round;stroke-linejoin:round;stroke-miterlimit:4;stroke-dasharray:2.8, 1.8;stroke-dashoffset:0;stroke-opacity:1"
       id="path776" />
    <path
       d="m 559.671,805.083 c 0,0 60.072,-86.541 64.25,-94.203"
       style="fill:none;stroke:#231f20;stroke-width:0.5;stroke-linecap:round;stroke-linejoin:round;stroke-miterlimit:4;stroke-dasharray:2.8, 1.8;stroke-dashoffset:0;stroke-opacity:1"
       id="path778" />
    <path
       d="m 637.157,831.003 c 0,0 5.19,-102.541 4.509,-118.818"
       style="fill:none;stroke:#231f20;stroke-width:0.5;stroke-linecap:round;stroke-linejoin:round;stroke-miterlimit:4;stroke-dasharray:2.8, 1.8;stroke-dashoffset:0;stroke-opacity:1"
       id="path780" />
    <path
       d="m 798.029,465.737 c -1.741,-3.134 -1.393,-9.054 2.09,-12.535 3.481,-3.483 14.376,-8.487 18.455,-5.224 5.223,4.179 5.571,19.849 6.267,28.554 0.697,8.705 -2.785,52.928 -6.339,66.841"
       style="fill:none;stroke:#231f20;stroke-width:0.5;stroke-linecap:round;stroke-linejoin:round;stroke-miterlimit:4;stroke-dasharray:2.8, 1.8;stroke-dashoffset:0;stroke-opacity:1"
       id="path782" />
    <path
       d="m 806.881,482.386 c 1.042,2.443 16.007,4.557 17.855,-7.264"
       style="fill:none;stroke:#231f20;stroke-width:0.5;stroke-linecap:round;stroke-linejoin:round;stroke-miterlimit:4;stroke-dasharray:2.8, 1.8;stroke-dashoffset:0;stroke-opacity:1"
       id="path784" />
    <path
       d="m 779.973,425.354 c 4.012,-6.741 8.191,-12.314 21.653,-10.92 13.402,1.386 24.018,26.558 11.255,32.662"
       style="fill:none;stroke:#231f20;stroke-width:0.5;stroke-linecap:round;stroke-linejoin:round;stroke-miterlimit:4;stroke-dasharray:2.8, 1.8;stroke-dashoffset:0;stroke-opacity:1"
       id="path786" />
    <path
       d="m 790.611,415.25 c -8.019,-5.46 -26.591,-20.318 -29.841,-26.353 -3.25,-6.035 -8.821,-13.463 -10.214,-18.571 -1.392,-5.108 -4.643,-6.036 -9.286,-7.893 -4.643,-1.857 -14.856,-4.179 -18.571,-6.965 -3.715,-2.785 -7.43,-3.715 -11.608,-2.785 -4.178,0.929 -6.499,0.001 -9.285,-2.321 -2.786,-2.322 -5.571,-2.323 -7.893,-1.858 -2.322,0.465 -3.715,0.464 -5.572,2.786 -1.856,2.322 -5.57,4.178 -8.821,0.929 -3.251,-3.25 -6.036,-4.642 -12.071,-3.25 -6.035,1.393 -10.216,7.43 -14.859,5.571 -4.641,-1.857 -30.674,-13.597 -36.926,-17.013"
       style="fill:none;stroke:#231f20;stroke-width:0.5;stroke-linecap:round;stroke-linejoin:round;stroke-miterlimit:4;stroke-dasharray:2.8, 1.8;stroke-dashoffset:0;stroke-opacity:1"
       id="path788" />
    <path
       d="m 737.091,366.148 c 6.035,-3.715 22.286,-10.911 21.59,-34.474"
       style="fill:none;stroke:#231f20;stroke-width:0.5;stroke-linecap:round;stroke-linejoin:round;stroke-miterlimit:4;stroke-dasharray:2.8, 1.8;stroke-dashoffset:0;stroke-opacity:1"
       id="path790" />
    <path
       d="m 702.282,824.941 c 0,0 -16.385,-122.548 -16.787,-127.474"
       style="fill:none;stroke:#231f20;stroke-width:0.5;stroke-linecap:round;stroke-linejoin:round;stroke-miterlimit:4;stroke-dasharray:2.8, 1.8;stroke-dashoffset:0;stroke-opacity:1"
       id="path792" />
    <path
       d="M 849.462,760.384 C 838.306,747.327 780.17,680.799 763.042,664.152"
       style="fill:none;stroke:#231f20;stroke-width:0.5;stroke-linecap:round;stroke-linejoin:round;stroke-miterlimit:4;stroke-dasharray:2.8, 1.8;stroke-dashoffset:0;stroke-opacity:1"
       id="path794" />
    <path
       d="M 867.395,741.456 C 852.699,728.292 790.973,667.967 776.336,652.397"
       style="fill:none;stroke:#231f20;stroke-width:0.5;stroke-linecap:round;stroke-linejoin:round;stroke-miterlimit:4;stroke-dasharray:2.8, 1.8;stroke-dashoffset:0;stroke-opacity:1"
       id="path796" />
    <path
       d="m 812.813,587.158 c 16.671,3.705 94.435,14.14 108.481,16.815"
       style="fill:none;stroke:#231f20;stroke-width:0.5;stroke-linecap:round;stroke-linejoin:round;stroke-miterlimit:4;stroke-dasharray:2.8, 1.8;stroke-dashoffset:0;stroke-opacity:1"
       id="path798" />
    <path
       d="m 820.237,534.296 c 17.14,-3.326 72.573,-9.554 100.34,-15.029"
       style="fill:none;stroke:#231f20;stroke-width:0.5;stroke-linecap:round;stroke-linejoin:round;stroke-miterlimit:4;stroke-dasharray:2.8, 1.8;stroke-dashoffset:0;stroke-opacity:1"
       id="path800" />
    <path
       d="m 822.948,511.466 92.197,-16.892"
       style="fill:none;stroke:#231f20;stroke-width:0.5;stroke-linecap:round;stroke-linejoin:round;stroke-miterlimit:4;stroke-dasharray:2.8, 1.8;stroke-dashoffset:0;stroke-opacity:1"
       id="path802" />
    <path
       d="m 824.79,485.485 79.909,-19.191"
       style="fill:none;stroke:#231f20;stroke-width:0.5;stroke-linecap:round;stroke-linejoin:round;stroke-miterlimit:4;stroke-dasharray:2.8, 1.8;stroke-dashoffset:0;stroke-opacity:1"
       id="path804" />
    <path
       d="m 823.708,462.799 c 11.813,-4.722 45.754,-13.494 65.23,-18.858"
       style="fill:none;stroke:#231f20;stroke-width:0.5;stroke-linecap:round;stroke-linejoin:round;stroke-miterlimit:4;stroke-dasharray:2.8, 1.8;stroke-dashoffset:0;stroke-opacity:1"
       id="path806" />
    <path
       d="m 816.717,443.828 c 9.518,-5.715 30.66,-15.815 61.94,-26.772"
       style="fill:none;stroke:#231f20;stroke-width:0.5;stroke-linecap:round;stroke-linejoin:round;stroke-miterlimit:4;stroke-dasharray:2.8, 1.8;stroke-dashoffset:0;stroke-opacity:1"
       id="path808" />
    <path
       d="m 259.766,534.296 c -17.14,-3.326 -72.573,-9.554 -100.339,-15.029"
       style="fill:none;stroke:#231f20;stroke-width:0.5;stroke-linecap:round;stroke-linejoin:round;stroke-miterlimit:4;stroke-dasharray:2.8, 1.8;stroke-dashoffset:0;stroke-opacity:1"
       id="path810" />
    <path
       d="M 257.055,511.466 164.859,494.574"
       style="fill:none;stroke:#231f20;stroke-width:0.5;stroke-linecap:round;stroke-linejoin:round;stroke-miterlimit:4;stroke-dasharray:2.8, 1.8;stroke-dashoffset:0;stroke-opacity:1"
       id="path812" />
    <path
       d="M 255.213,485.485 175.305,466.294"
       style="fill:none;stroke:#231f20;stroke-width:0.5;stroke-linecap:round;stroke-linejoin:round;stroke-miterlimit:4;stroke-dasharray:2.8, 1.8;stroke-dashoffset:0;stroke-opacity:1"
       id="path814" />
    <path
       d="m 256.296,462.799 c -11.813,-4.722 -45.754,-13.494 -65.23,-18.858"
       style="fill:none;stroke:#231f20;stroke-width:0.5;stroke-linecap:round;stroke-linejoin:round;stroke-miterlimit:4;stroke-dasharray:2.8, 1.8;stroke-dashoffset:0;stroke-opacity:1"
       id="path816" />
    <path
       d="m 263.287,443.828 c -9.518,-5.715 -30.661,-15.815 -61.941,-26.772"
       style="fill:none;stroke:#231f20;stroke-width:0.5;stroke-linecap:round;stroke-linejoin:round;stroke-miterlimit:4;stroke-dasharray:2.8, 1.8;stroke-dashoffset:0;stroke-opacity:1"
       id="path818" />
    <path
       d="m 851.456,427.334 c -2.311,0.951 -4.792,0.099 -4.792,-4.08 0,-4.177 1.855,-11.607 -4.644,-14.857 -6.499,-3.249 -14.857,-6.499 -19.5,-12.999 -4.643,-6.501 -13.928,-7.893 -20.428,-7.429 -6.501,0.464 -22.751,1.394 -31.108,-8.357 -8.358,-9.75 -9.286,-17.179 -9.75,-21.358 -0.464,-4.178 -1.917,-6.529 -6.066,-8.836 -4.148,-2.306 -13.434,-6.951 -16.22,-9.271 -2.785,-2.32 -11.606,-6.499 -20.428,-6.499 -8.822,0 -21.821,0.465 -30.179,0 -8.357,-0.465 -19.035,-2.32 -22.75,-1.393 -3.714,0.928 -8.82,2.322 -13.927,0 -5.109,-2.322 -8.824,-3.251 -15.788,-0.465 -6.963,2.786 -11.831,3.735 -6.612,12.314"
       style="fill:none;stroke:#231f20;stroke-width:0.5;stroke-linecap:round;stroke-linejoin:round;stroke-miterlimit:4;stroke-dasharray:2.8, 1.8;stroke-dashoffset:0;stroke-opacity:1"
       id="path820" />
    <path
       d="m 620.972,330.831 c 6.083,-2.754 14.441,-6.469 17.227,-6.469 2.785,0 5.569,-0.929 7.427,-1.393 1.859,-0.464 4.644,0.464 6.038,1.857 1.392,1.392 4.641,2.787 7.427,1.858 2.786,-0.93 18.108,-1.394 25.072,0.463 6.964,1.857 12.072,2.785 18.107,1.857 6.035,-0.927 16.713,0.465 26.928,2.322 10.216,1.857 13.464,4.177 15.322,6.035 1.857,1.858 6.156,4.666 13.524,3.263 7.369,-1.405 12.012,3.237 12.012,9.273 0,6.037 5.107,18.572 11.607,22.751 6.501,4.179 12.072,6.499 21.822,2.32 9.75,-4.178 18.107,-1.392 22.75,5.108 4.641,6.501 15.785,11.141 23.678,18.571 7.893,7.43 11.553,23.314 5.777,26.979"
       style="fill:none;stroke:#231f20;stroke-width:0.5;stroke-linecap:round;stroke-linejoin:round;stroke-miterlimit:4;stroke-dasharray:2.8, 1.8;stroke-dashoffset:0;stroke-opacity:1"
       id="path822" />
    <path
       d="m 701.921,344.907 c 0,-1.154 -0.935,-2.09 -2.089,-2.09 -1.153,0 -2.089,0.936 -2.089,2.09 0,1.153 0.936,2.089 2.089,2.089 1.154,0 2.089,-0.936 2.089,-2.089 z"
       style="fill:none;stroke:#231f20;stroke-width:0.5;stroke-linecap:round;stroke-linejoin:round;stroke-miterlimit:4;stroke-dasharray:2.8, 1.8;stroke-dashoffset:0;stroke-opacity:1"
       id="path824" />
    <path
       d="m 710.975,345.951 c 0,-1.154 -0.935,-2.089 -2.089,-2.089 -1.153,0 -2.09,0.935 -2.09,2.089 0,1.154 0.937,2.089 2.09,2.089 1.154,0 2.089,-0.935 2.089,-2.089 z"
       style="fill:none;stroke:#231f20;stroke-width:0.5;stroke-linecap:round;stroke-linejoin:round;stroke-miterlimit:4;stroke-dasharray:2.8, 1.8;stroke-dashoffset:0;stroke-opacity:1"
       id="path826" />
    <path
       d="m 648.296,343.513 c 2.493,0.466 6.965,0.697 7.313,-1.044 0.349,-1.741 -2.089,-3.482 -5.919,-4.527 -3.831,-1.044 -5.572,-1.393 -6.269,1.393 -0.696,2.786 2.998,3.828 4.875,4.178 z"
       style="fill:none;stroke:#231f20;stroke-width:0.5;stroke-linecap:round;stroke-linejoin:round;stroke-miterlimit:4;stroke-dasharray:2.8, 1.8;stroke-dashoffset:0;stroke-opacity:1"
       id="path828" />
    <path
       d="m 676.154,345.603 c 2.006,0.908 5.92,3.83 6.964,1.393 1.045,-2.438 -1.044,-5.223 -5.572,-6.617 -4.526,-1.392 -7.312,0.349 -6.964,2.787 0.348,2.437 4.159,1.796 5.572,2.437 z"
       style="fill:none;stroke:#231f20;stroke-width:0.5;stroke-linecap:round;stroke-linejoin:round;stroke-miterlimit:4;stroke-dasharray:2.8, 1.8;stroke-dashoffset:0;stroke-opacity:1"
       id="path830" />
    <path
       d="m 595.111,455.668 c -3.134,-9.054 -2.877,-24.056 6.525,-42.511 9.402,-18.456 22.634,-30.991 29.946,-36.215 7.313,-5.223 13.581,-6.616 16.367,-7.66 2.785,-1.045 8.705,-4.875 11.142,-10.795 0.89,-2.16 4.179,-8.24 8.358,-9.518"
       style="fill:none;stroke:#231f20;stroke-width:0.5;stroke-linecap:round;stroke-linejoin:round;stroke-miterlimit:4;stroke-dasharray:2.8, 1.8;stroke-dashoffset:0;stroke-opacity:1"
       id="path832" />
    <path
       d="m 633.324,433.702 c 4.875,-1.394 13.231,-4.528 14.972,-8.358 1.742,-3.83 2.786,-14.625 4.179,-19.848 1.393,-5.223 6.616,-13.58 11.84,-16.018 5.223,-2.438 10.098,-3.83 14.973,-3.134 4.875,0.696 7.312,-1.045 6.964,-5.92 -0.348,-4.875 -2.437,-13.58 1.741,-14.276 4.178,-0.697 5.92,3.481 6.616,11.49 0.696,8.01 4.875,12.188 6.965,11.84 2.089,-0.349 4.178,-3.482 3.481,-6.616 -0.696,-3.134 -5.571,-13.233 2.09,-14.625 7.661,-1.393 7.661,4.179 7.661,9.401 0,5.224 0.348,10.099 3.134,10.447 2.785,0.348 4.875,-2.786 4.875,-6.268 0,-3.482 0.696,-9.75 2.785,-12.188 2.09,-2.437 5.616,-6.055 5.269,-10.582"
       style="fill:none;stroke:#231f20;stroke-width:0.5;stroke-linecap:round;stroke-linejoin:round;stroke-miterlimit:4;stroke-dasharray:2.8, 1.8;stroke-dashoffset:0;stroke-opacity:1"
       id="path834" />
    <path
       d="m 546.876,387.349 c 0,0 0.086,-17.074 -0.261,-23.316"
       style="fill:none;stroke:#231f20;stroke-width:0.5;stroke-linecap:round;stroke-linejoin:round;stroke-miterlimit:4;stroke-dasharray:2.8, 1.8;stroke-dashoffset:0;stroke-opacity:1"
       id="path836" />
    <path
       d="m 594.22,434.452 c -3.4,-4.233 -8.548,-23.591 -1.959,-34.805"
       style="fill:none;stroke:#231f20;stroke-width:0.5;stroke-linecap:round;stroke-linejoin:round;stroke-miterlimit:4;stroke-dasharray:2.8, 1.8;stroke-dashoffset:0;stroke-opacity:1"
       id="path838" />
    <path
       d="m 568.703,443.494 c -1.522,6.298 -23.13,-4.57 -16.903,-35.928"
       style="fill:none;stroke:#231f20;stroke-width:0.5;stroke-linecap:round;stroke-linejoin:round;stroke-miterlimit:4;stroke-dasharray:2.8, 1.8;stroke-dashoffset:0;stroke-opacity:1"
       id="path840" />
    <path
       d="m 589.378,403.265 c -2.539,3.625 -11.073,3.624 -15.599,0.489 -4.527,-3.133 -11.166,-18.999 -3.483,-28.205 7.733,-9.264 26.465,-24.375 37.259,-27.857 10.795,-3.482 22.286,-2.089 26.465,6.965 4.179,9.053 -3.164,18.798 -7.676,21.133"
       style="fill:none;stroke:#231f20;stroke-width:0.5;stroke-linecap:round;stroke-linejoin:round;stroke-miterlimit:4;stroke-dasharray:2.8, 1.8;stroke-dashoffset:0;stroke-opacity:1"
       id="path842" />
    <path
       d="m 576.913,535.728 c 4.923,2.462 9.75,-2.785 11.142,-10.795 1.394,-8.009 -0.696,-14.625 -4.526,-15.669 -3.83,-1.045 -7.661,1.393 -9.75,10.446 -2.09,9.054 0.347,14.625 3.134,16.018 z"
       style="fill:none;stroke:#231f20;stroke-width:0.5;stroke-linecap:round;stroke-linejoin:round;stroke-miterlimit:4;stroke-dasharray:2.8, 1.8;stroke-dashoffset:0;stroke-opacity:1"
       id="path844" />
    <path
       d="m 624.308,549.657 c -5.571,-0.697 -9.788,-7.313 -13.967,-11.839 -4.178,-4.528 -41.271,-48.043 -43.269,-57.799"
       style="fill:none;stroke:#231f20;stroke-width:0.5;stroke-linecap:round;stroke-linejoin:round;stroke-miterlimit:4;stroke-dasharray:2.8, 1.8;stroke-dashoffset:0;stroke-opacity:1"
       id="path846" />
    <path
       d="m 622.75,523.542 c -4.527,-4.876 -19.721,-23.332 -24.945,-36.215 -5.223,-12.884 -8.705,-36.911 8.706,-44.224 17.41,-7.313 26.813,-9.401 26.813,-9.401"
       style="fill:none;stroke:#231f20;stroke-width:0.5;stroke-linecap:round;stroke-linejoin:round;stroke-miterlimit:4;stroke-dasharray:2.8, 1.8;stroke-dashoffset:0;stroke-opacity:1"
       id="path848" />
    <path
       d="m 565.732,464.692 c 0.063,-3.813 1.082,-10.446 6.306,-12.535 5.223,-2.09 16.48,-3.741 22.169,7.009"
       style="fill:none;stroke:#231f20;stroke-width:0.5;stroke-linecap:round;stroke-linejoin:round;stroke-miterlimit:4;stroke-dasharray:2.8, 1.8;stroke-dashoffset:0;stroke-opacity:1"
       id="path850" />
    <path
       d="m 589.71,513.164 c -2.036,-2.553 -5.973,-16.294 7.607,-27.089"
       style="fill:none;stroke:#231f20;stroke-width:0.5;stroke-linecap:round;stroke-linejoin:round;stroke-miterlimit:4;stroke-dasharray:2.8, 1.8;stroke-dashoffset:0;stroke-opacity:1"
       id="path852" />
    <path
       d="m 549.44,624.739 c -1.777,-3.35 -1.777,-8.573 -0.732,-13.449"
       style="fill:none;stroke:#231f20;stroke-width:0.5;stroke-linecap:round;stroke-linejoin:round;stroke-miterlimit:4;stroke-dasharray:2.8, 1.8;stroke-dashoffset:0;stroke-opacity:1"
       id="path854" />
    <path
       d="m 548.708,611.29 c 1.392,-5.918 1.48,-15.843 -6.225,-20.631"
       style="fill:none;stroke:#231f20;stroke-width:0.5;stroke-linecap:round;stroke-linejoin:round;stroke-miterlimit:4;stroke-dasharray:2.8, 1.8;stroke-dashoffset:0;stroke-opacity:1"
       id="path856" />
    <path
       d="m 589.1,636.71 c 1.393,-7.66 7.728,-17.988 12.884,-22.982 6.388,-6.186 18.281,-17.236 22.405,-30.086 -9.695,15.461 -26.584,19.988 -35.985,23.122 -9.402,3.134 -20.196,2.438 -23.679,3.483 -3.482,1.043 -11.84,1.741 -16.017,1.043"
       style="fill:none;stroke:#231f20;stroke-width:0.5;stroke-linecap:round;stroke-linejoin:round;stroke-miterlimit:4;stroke-dasharray:2.8, 1.8;stroke-dashoffset:0;stroke-opacity:1"
       id="path858" />
    <path
       d="m 623.013,501.211 c -5.011,-2.277 -38.678,-33.263 -14.416,-58.976"
       style="fill:none;stroke:#231f20;stroke-width:0.5;stroke-linecap:round;stroke-linejoin:round;stroke-miterlimit:4;stroke-dasharray:2.8, 1.8;stroke-dashoffset:0;stroke-opacity:1"
       id="path860" />
    <path
       d="m 625.151,500.623 c 3.53,-6.564 9.774,-20.822 11.654,-23.974 2.773,-4.652 9.053,-14.627 8.821,-22.287 -0.231,-7.661 -0.975,-18.07 -10.817,-21.107"
       style="fill:none;stroke:#231f20;stroke-width:0.5;stroke-linecap:round;stroke-linejoin:round;stroke-miterlimit:4;stroke-dasharray:2.8, 1.8;stroke-dashoffset:0;stroke-opacity:1"
       id="path862" />
    <path
       d="m 645.619,455.279 c 5.579,-4.167 29.026,-19.781 36.222,-24.193 7.196,-4.411 13.928,-10.212 13.232,-11.838 -0.697,-1.625 -3.159,-3.674 -12.445,-0.656 -9.285,3.018 -32.442,13.55 -42.794,17.42"
       style="fill:none;stroke:#231f20;stroke-width:0.5;stroke-linecap:round;stroke-linejoin:round;stroke-miterlimit:4;stroke-dasharray:2.8, 1.8;stroke-dashoffset:0;stroke-opacity:1"
       id="path864" />
    <path
       d="m 434.385,455.279 c -5.58,-4.167 -29.027,-19.781 -36.222,-24.193 -7.196,-4.411 -13.929,-10.212 -13.233,-11.838 0.696,-1.625 3.16,-3.674 12.446,-0.656 9.284,3.018 32.442,13.55 42.794,17.42"
       style="fill:none;stroke:#231f20;stroke-width:0.5;stroke-linecap:round;stroke-linejoin:round;stroke-miterlimit:4;stroke-dasharray:2.8, 1.8;stroke-dashoffset:0;stroke-opacity:1"
       id="path866" />
    <path
       d="m 626.189,498.616 c -2.849,-2.467 -5.976,-15.716 -5.512,-23.842"
       style="fill:none;stroke:#231f20;stroke-width:0.5;stroke-linecap:round;stroke-linejoin:round;stroke-miterlimit:4;stroke-dasharray:2.8, 1.8;stroke-dashoffset:0;stroke-opacity:1"
       id="path868" />
    <path
       d="m 633.723,447.506 c 2.386,-2.429 2.845,-9.063 0.059,-13.938"
       style="fill:none;stroke:#231f20;stroke-width:0.5;stroke-linecap:round;stroke-linejoin:round;stroke-miterlimit:4;stroke-dasharray:2.8, 1.8;stroke-dashoffset:0;stroke-opacity:1"
       id="path870" />
    <path
       d="m 540.002,749.533 c 0,0 -66.663,-38.316 -76.847,-44.759"
       style="fill:none;stroke:#231f20;stroke-width:0.5;stroke-linecap:round;stroke-linejoin:round;stroke-miterlimit:4;stroke-dasharray:2.8, 1.8;stroke-dashoffset:0;stroke-opacity:1"
       id="path872" />
    <path
       d="m 520.332,805.083 c 0,0 -60.072,-86.541 -64.25,-94.203"
       style="fill:none;stroke:#231f20;stroke-width:0.5;stroke-linecap:round;stroke-linejoin:round;stroke-miterlimit:4;stroke-dasharray:2.8, 1.8;stroke-dashoffset:0;stroke-opacity:1"
       id="path874" />
    <path
       d="m 442.847,831.003 c 0,0 -5.19,-102.541 -4.509,-118.818"
       style="fill:none;stroke:#231f20;stroke-width:0.5;stroke-linecap:round;stroke-linejoin:round;stroke-miterlimit:4;stroke-dasharray:2.8, 1.8;stroke-dashoffset:0;stroke-opacity:1"
       id="path876" />
    <path
       d="m 281.974,465.737 c 1.741,-3.134 1.394,-9.054 -2.089,-12.535 -3.482,-3.483 -14.376,-8.487 -18.455,-5.224 -5.223,4.179 -5.572,19.849 -6.268,28.554 -0.697,8.705 2.786,52.928 6.339,66.841"
       style="fill:none;stroke:#231f20;stroke-width:0.5;stroke-linecap:round;stroke-linejoin:round;stroke-miterlimit:4;stroke-dasharray:2.8, 1.8;stroke-dashoffset:0;stroke-opacity:1"
       id="path878" />
    <path
       d="m 273.123,482.386 c -1.042,2.443 -16.008,4.557 -17.855,-7.264"
       style="fill:none;stroke:#231f20;stroke-width:0.5;stroke-linecap:round;stroke-linejoin:round;stroke-miterlimit:4;stroke-dasharray:2.8, 1.8;stroke-dashoffset:0;stroke-opacity:1"
       id="path880" />
    <path
       d="m 300.03,425.355 c -4.011,-6.741 -8.19,-12.313 -21.654,-10.92 -13.4,1.385 -24.017,26.557 -11.253,32.661"
       style="fill:none;stroke:#231f20;stroke-width:0.5;stroke-linecap:round;stroke-linejoin:round;stroke-miterlimit:4;stroke-dasharray:2.8, 1.8;stroke-dashoffset:0;stroke-opacity:1"
       id="path882" />
    <path
       d="m 289.393,415.251 c 8.019,-5.459 26.591,-20.319 29.841,-26.352 3.249,-6.037 8.82,-13.464 10.214,-18.573 1.392,-5.106 4.643,-6.036 9.286,-7.892 4.642,-1.858 14.855,-4.179 18.57,-6.964 3.715,-2.786 7.43,-3.717 11.609,-2.786 4.178,0.928 6.499,0 9.285,-2.32 2.785,-2.324 5.571,-2.324 7.892,-1.859 2.323,0.466 3.715,0.463 5.573,2.787 1.856,2.32 5.569,4.178 8.82,0.927 3.251,-3.248 6.037,-4.641 12.072,-3.248 6.035,1.393 10.215,7.429 14.858,5.571 4.642,-1.858 30.675,-13.599 36.926,-17.013"
       style="fill:none;stroke:#231f20;stroke-width:0.5;stroke-linecap:round;stroke-linejoin:round;stroke-miterlimit:4;stroke-dasharray:2.8, 1.8;stroke-dashoffset:0;stroke-opacity:1"
       id="path884" />
    <path
       d="m 342.912,366.148 c -6.036,-3.714 -22.286,-10.909 -21.589,-34.474"
       style="fill:none;stroke:#231f20;stroke-width:0.5;stroke-linecap:round;stroke-linejoin:round;stroke-miterlimit:4;stroke-dasharray:2.8, 1.8;stroke-dashoffset:0;stroke-opacity:1"
       id="path886" />
    <path
       d="m 377.721,824.941 c 0,0 16.386,-122.548 16.788,-127.474"
       style="fill:none;stroke:#231f20;stroke-width:0.5;stroke-linecap:round;stroke-linejoin:round;stroke-miterlimit:4;stroke-dasharray:2.8, 1.8;stroke-dashoffset:0;stroke-opacity:1"
       id="path888" />
    <path
       d="m 230.541,760.384 c 11.156,-13.057 69.292,-79.585 86.42,-96.232"
       style="fill:none;stroke:#231f20;stroke-width:0.5;stroke-linecap:round;stroke-linejoin:round;stroke-miterlimit:4;stroke-dasharray:2.8, 1.8;stroke-dashoffset:0;stroke-opacity:1"
       id="path890" />
    <path
       d="m 212.609,741.456 c 14.696,-13.164 76.421,-73.489 91.059,-89.059"
       style="fill:none;stroke:#231f20;stroke-width:0.5;stroke-linecap:round;stroke-linejoin:round;stroke-miterlimit:4;stroke-dasharray:2.8, 1.8;stroke-dashoffset:0;stroke-opacity:1"
       id="path892" />
    <path
       d="m 267.19,587.158 c -16.671,3.705 -94.434,14.14 -108.481,16.815"
       style="fill:none;stroke:#231f20;stroke-width:0.5;stroke-linecap:round;stroke-linejoin:round;stroke-miterlimit:4;stroke-dasharray:2.8, 1.8;stroke-dashoffset:0;stroke-opacity:1"
       id="path894" />
    <path
       d="m 228.548,427.335 c 2.311,0.95 4.792,0.098 4.792,-4.081 0,-4.177 -1.855,-11.607 4.644,-14.855 6.499,-3.251 14.857,-6.499 19.5,-13.001 4.642,-6.499 13.927,-7.893 20.428,-7.427 6.5,0.462 22.751,1.393 31.108,-8.357 8.356,-9.75 9.286,-17.18 9.75,-21.359 0.464,-4.178 1.916,-6.529 6.064,-8.836 4.15,-2.306 13.436,-6.95 16.221,-9.271 2.786,-2.32 11.606,-6.499 20.428,-6.499 8.822,0 21.822,0.466 30.18,0 8.356,-0.465 19.034,-2.32 22.749,-1.393 3.714,0.928 8.821,2.321 13.928,0 5.108,-2.323 8.823,-3.251 15.787,-0.464 6.964,2.785 11.831,3.735 6.612,12.312"
       style="fill:none;stroke:#231f20;stroke-width:0.5;stroke-linecap:round;stroke-linejoin:round;stroke-miterlimit:4;stroke-dasharray:2.8, 1.8;stroke-dashoffset:0;stroke-opacity:1"
       id="path896" />
    <path
       d="m 459.031,330.831 c -6.083,-2.753 -14.44,-6.469 -17.226,-6.469 -2.786,0 -5.57,-0.928 -7.428,-1.393 -1.858,-0.463 -4.644,0.465 -6.037,1.858 -1.392,1.393 -4.642,2.786 -7.427,1.858 -2.787,-0.931 -18.108,-1.393 -25.073,0.462 -6.964,1.858 -12.071,2.786 -18.106,1.858 -6.035,-0.927 -16.713,0.466 -26.929,2.321 -10.215,1.858 -13.463,4.178 -15.321,6.037 -1.858,1.858 -6.156,4.665 -13.524,3.261 -7.369,-1.403 -12.013,3.238 -12.013,9.274 0,6.037 -5.106,18.573 -11.607,22.751 -6.5,4.179 -12.071,6.5 -21.821,2.321 -9.75,-4.178 -18.107,-1.393 -22.75,5.106 -4.643,6.502 -15.785,11.143 -23.679,18.573 -7.893,7.429 -11.553,23.313 -5.776,26.978"
       style="fill:none;stroke:#231f20;stroke-width:0.5;stroke-linecap:round;stroke-linejoin:round;stroke-miterlimit:4;stroke-dasharray:2.8, 1.8;stroke-dashoffset:0;stroke-opacity:1"
       id="path898" />
    <path
       d="m 378.082,344.907 c 0,-1.154 0.936,-2.09 2.089,-2.09 1.154,0 2.089,0.936 2.089,2.09 0,1.153 -0.935,2.089 -2.089,2.089 -1.153,0 -2.089,-0.936 -2.089,-2.089 z"
       style="fill:none;stroke:#231f20;stroke-width:0.5;stroke-linecap:round;stroke-linejoin:round;stroke-miterlimit:4;stroke-dasharray:2.8, 1.8;stroke-dashoffset:0;stroke-opacity:1"
       id="path900" />
    <path
       d="m 369.028,345.951 c 0,-1.154 0.936,-2.089 2.09,-2.089 1.153,0 2.089,0.935 2.089,2.089 0,1.154 -0.936,2.089 -2.089,2.089 -1.154,0 -2.09,-0.935 -2.09,-2.089 z"
       style="fill:none;stroke:#231f20;stroke-width:0.5;stroke-linecap:round;stroke-linejoin:round;stroke-miterlimit:4;stroke-dasharray:2.8, 1.8;stroke-dashoffset:0;stroke-opacity:1"
       id="path902" />
    <path
       d="m 431.707,343.513 c -2.492,0.466 -6.964,0.697 -7.313,-1.044 -0.348,-1.741 2.09,-3.482 5.92,-4.527 3.83,-1.044 5.571,-1.393 6.268,1.393 0.697,2.786 -2.998,3.828 -4.875,4.178 z"
       style="fill:none;stroke:#231f20;stroke-width:0.5;stroke-linecap:round;stroke-linejoin:round;stroke-miterlimit:4;stroke-dasharray:2.8, 1.8;stroke-dashoffset:0;stroke-opacity:1"
       id="path904" />
    <path
       d="m 403.85,345.603 c -2.007,0.908 -5.92,3.83 -6.965,1.393 -1.045,-2.438 1.045,-5.223 5.572,-6.617 4.527,-1.392 7.312,0.349 6.964,2.787 -0.348,2.437 -4.158,1.797 -5.571,2.437 z"
       style="fill:none;stroke:#231f20;stroke-width:0.5;stroke-linecap:round;stroke-linejoin:round;stroke-miterlimit:4;stroke-dasharray:2.8, 1.8;stroke-dashoffset:0;stroke-opacity:1"
       id="path906" />
    <path
       d="m 484.893,455.668 c 3.134,-9.054 2.876,-24.056 -6.525,-42.511 -9.402,-18.456 -22.634,-30.991 -29.947,-36.215 -7.312,-5.223 -13.58,-6.616 -16.366,-7.66 -2.786,-1.045 -8.705,-4.875 -11.142,-10.795 -0.89,-2.16 -4.179,-8.24 -8.358,-9.516"
       style="fill:none;stroke:#231f20;stroke-width:0.5;stroke-linecap:round;stroke-linejoin:round;stroke-miterlimit:4;stroke-dasharray:2.8, 1.8;stroke-dashoffset:0;stroke-opacity:1"
       id="path908" />
    <path
       d="m 446.68,433.702 c -4.875,-1.394 -13.232,-4.528 -14.973,-8.358 -1.742,-3.83 -2.786,-14.625 -4.179,-19.848 -1.393,-5.223 -6.615,-13.58 -11.839,-16.018 -5.224,-2.438 -10.099,-3.83 -14.974,-3.134 -4.875,0.696 -7.312,-1.045 -6.964,-5.92 0.349,-4.875 2.438,-13.58 -1.741,-14.276 -4.178,-0.697 -5.92,3.481 -6.616,11.49 -0.696,8.01 -4.875,12.188 -6.964,11.84 -2.09,-0.349 -4.179,-3.482 -3.482,-6.616 0.696,-3.134 5.571,-13.233 -2.089,-14.625 -7.661,-1.393 -7.661,4.179 -7.661,9.401 0,5.224 -0.348,10.099 -3.134,10.447 -2.786,0.348 -4.875,-2.786 -4.875,-6.268 0,-3.482 -0.696,-9.75 -2.786,-12.188 -2.089,-2.437 -5.616,-6.055 -5.268,-10.582"
       style="fill:none;stroke:#231f20;stroke-width:0.5;stroke-linecap:round;stroke-linejoin:round;stroke-miterlimit:4;stroke-dasharray:2.8, 1.8;stroke-dashoffset:0;stroke-opacity:1"
       id="path910" />
    <path
       d="m 533.127,387.35 c 0,0 -0.085,-17.075 0.261,-23.316"
       style="fill:none;stroke:#231f20;stroke-width:0.5;stroke-linecap:round;stroke-linejoin:round;stroke-miterlimit:4;stroke-dasharray:2.8, 1.8;stroke-dashoffset:0;stroke-opacity:1"
       id="path912" />
    <path
       d="m 496.211,354.852 c 14.361,12.381 27.424,42.983 32.648,54.126 5.223,11.143 8.705,16.018 11.143,16.018 2.437,0 5.919,-4.875 11.143,-16.018 5.223,-11.143 18.286,-41.745 32.647,-54.127"
       style="fill:none;stroke:#231f20;stroke-width:0.5;stroke-linecap:round;stroke-linejoin:round;stroke-miterlimit:4;stroke-dasharray:2.8, 1.8;stroke-dashoffset:0;stroke-opacity:1"
       id="path914" />
    <path
       d="m 507.593,368.368 c 10.82,0.217 14.65,3.351 18.828,8.574 4.179,5.224 7.733,11.989 10.099,17.411 0.984,2.258 1.393,5.92 3.482,5.92 2.089,0 2.498,-3.663 3.482,-5.92 2.365,-5.422 5.92,-12.187 10.098,-17.411 4.178,-5.223 8.009,-8.357 18.829,-8.576"
       style="fill:none;stroke:#231f20;stroke-width:0.5;stroke-linecap:round;stroke-linejoin:round;stroke-miterlimit:4;stroke-dasharray:2.8, 1.8;stroke-dashoffset:0;stroke-opacity:1"
       id="path916" />
    <path
       d="m 448.421,376.942 c 11.143,-5.454 25.248,9.644 36.214,19.5 10.114,9.092 21.241,33.081 24.724,41.437 3.482,8.358 5.92,22.287 4.526,32.037 -1.392,9.75 -1.74,27.508 -1.74,43.527 0,16.017 16.018,54.321 19.5,63.375 3.481,9.054 5.571,15.669 8.357,15.669 2.786,0 4.874,-6.615 8.357,-15.669 3.482,-9.054 19.5,-47.358 19.5,-63.375 0,-16.019 -0.349,-33.777 -1.741,-43.527 -1.393,-9.75 1.045,-23.679 4.527,-32.037 3.481,-8.356 14.609,-32.346 24.723,-41.437 10.966,-9.858 25.071,-24.955 36.214,-19.5"
       style="fill:none;stroke:#231f20;stroke-width:0.5;stroke-linecap:round;stroke-linejoin:round;stroke-miterlimit:4;stroke-dasharray:2.8, 1.8;stroke-dashoffset:0;stroke-opacity:1"
       id="path918" />
    <path
       d="m 485.784,434.452 c 3.4,-4.233 8.548,-23.591 1.959,-34.805"
       style="fill:none;stroke:#231f20;stroke-width:0.5;stroke-linecap:round;stroke-linejoin:round;stroke-miterlimit:4;stroke-dasharray:2.8, 1.8;stroke-dashoffset:0;stroke-opacity:1"
       id="path920" />
    <path
       d="m 511.301,443.494 c 1.521,6.298 23.129,-4.57 16.903,-35.928"
       style="fill:none;stroke:#231f20;stroke-width:0.5;stroke-linecap:round;stroke-linejoin:round;stroke-miterlimit:4;stroke-dasharray:2.8, 1.8;stroke-dashoffset:0;stroke-opacity:1"
       id="path922" />
    <path
       d="m 490.625,403.265 c 2.54,3.626 11.073,3.624 15.6,0.489 4.526,-3.133 11.166,-18.999 3.483,-28.205 -7.734,-9.262 -26.465,-24.375 -37.26,-27.857 -10.794,-3.482 -22.285,-2.089 -26.464,6.965 -4.179,9.053 3.164,18.798 7.676,21.135"
       style="fill:none;stroke:#231f20;stroke-width:0.5;stroke-linecap:round;stroke-linejoin:round;stroke-miterlimit:4;stroke-dasharray:2.8, 1.8;stroke-dashoffset:0;stroke-opacity:1"
       id="path924" />
    <path
       d="m 512.145,513.443 c 8.705,0 16.365,21.937 18.107,28.205 1.741,6.268 6.964,13.58 9.75,13.58 2.786,0 8.008,-7.312 9.75,-13.58 1.741,-6.268 9.402,-28.205 18.107,-28.205"
       style="fill:none;stroke:#231f20;stroke-width:0.5;stroke-linecap:round;stroke-linejoin:round;stroke-miterlimit:4;stroke-dasharray:2.8, 1.8;stroke-dashoffset:0;stroke-opacity:1"
       id="path926" />
    <path
       d="m 503.091,535.728 c -4.925,2.462 -9.75,-2.785 -11.143,-10.795 -1.393,-8.009 0.696,-14.625 4.527,-15.669 3.83,-1.045 7.66,1.393 9.75,10.446 2.089,9.054 -0.349,14.625 -3.134,16.018 z"
       style="fill:none;stroke:#231f20;stroke-width:0.5;stroke-linecap:round;stroke-linejoin:round;stroke-miterlimit:4;stroke-dasharray:2.8, 1.8;stroke-dashoffset:0;stroke-opacity:1"
       id="path928" />
    <path
       d="m 455.696,549.657 c 5.571,-0.697 9.788,-7.313 13.967,-11.839 4.178,-4.528 41.271,-48.043 43.269,-57.799"
       style="fill:none;stroke:#231f20;stroke-width:0.5;stroke-linecap:round;stroke-linejoin:round;stroke-miterlimit:4;stroke-dasharray:2.8, 1.8;stroke-dashoffset:0;stroke-opacity:1"
       id="path930" />
    <path
       d="m 457.253,523.542 c 4.527,-4.876 19.722,-23.332 24.945,-36.215 5.223,-12.884 8.706,-36.911 -8.705,-44.224 -17.411,-7.313 -26.813,-9.401 -26.813,-9.401"
       style="fill:none;stroke:#231f20;stroke-width:0.5;stroke-linecap:round;stroke-linejoin:round;stroke-miterlimit:4;stroke-dasharray:2.8, 1.8;stroke-dashoffset:0;stroke-opacity:1"
       id="path932" />
    <path
       d="m 514.272,464.692 c -0.064,-3.813 -1.083,-10.446 -6.306,-12.535 -5.223,-2.09 -16.48,-3.741 -22.169,7.009"
       style="fill:none;stroke:#231f20;stroke-width:0.5;stroke-linecap:round;stroke-linejoin:round;stroke-miterlimit:4;stroke-dasharray:2.8, 1.8;stroke-dashoffset:0;stroke-opacity:1"
       id="path934" />
    <path
       d="m 490.294,513.164 c 2.035,-2.553 5.973,-16.294 -7.608,-27.089"
       style="fill:none;stroke:#231f20;stroke-width:0.5;stroke-linecap:round;stroke-linejoin:round;stroke-miterlimit:4;stroke-dasharray:2.8, 1.8;stroke-dashoffset:0;stroke-opacity:1"
       id="path936" />
    <path
       d="m 530.563,624.739 c 1.778,-3.35 1.778,-8.573 0.733,-13.449"
       style="fill:none;stroke:#231f20;stroke-width:0.5;stroke-linecap:round;stroke-linejoin:round;stroke-miterlimit:4;stroke-dasharray:2.8, 1.8;stroke-dashoffset:0;stroke-opacity:1"
       id="path938" />
    <path
       d="m 531.296,611.29 c -1.392,-5.918 -1.481,-15.843 6.225,-20.631"
       style="fill:none;stroke:#231f20;stroke-width:0.5;stroke-linecap:round;stroke-linejoin:round;stroke-miterlimit:4;stroke-dasharray:2.8, 1.8;stroke-dashoffset:0;stroke-opacity:1"
       id="path940" />
    <path
       d="m 490.904,636.71 c -1.394,-7.66 -7.728,-17.988 -12.885,-22.982 -6.387,-6.186 -18.281,-17.236 -22.405,-30.086 9.696,15.461 26.584,19.988 35.986,23.122 9.401,3.134 20.196,2.438 23.679,3.483 3.481,1.043 11.839,1.741 16.017,1.043"
       style="fill:none;stroke:#231f20;stroke-width:0.5;stroke-linecap:round;stroke-linejoin:round;stroke-miterlimit:4;stroke-dasharray:2.8, 1.8;stroke-dashoffset:0;stroke-opacity:1"
       id="path942" />
    <path
       d="m 456.991,501.211 c 5.01,-2.277 38.677,-33.263 14.415,-58.976"
       style="fill:none;stroke:#231f20;stroke-width:0.5;stroke-linecap:round;stroke-linejoin:round;stroke-miterlimit:4;stroke-dasharray:2.8, 1.8;stroke-dashoffset:0;stroke-opacity:1"
       id="path944" />
    <path
       d="m 454.852,500.623 c -3.529,-6.564 -9.774,-20.822 -11.654,-23.974 -2.772,-4.652 -9.052,-14.627 -8.821,-22.287 0.231,-7.661 0.975,-18.07 10.818,-21.107"
       style="fill:none;stroke:#231f20;stroke-width:0.5;stroke-linecap:round;stroke-linejoin:round;stroke-miterlimit:4;stroke-dasharray:2.8, 1.8;stroke-dashoffset:0;stroke-opacity:1"
       id="path946" />
    <path
       d="m 453.815,498.616 c 2.848,-2.467 5.975,-15.716 5.511,-23.842"
       style="fill:none;stroke:#231f20;stroke-width:0.5;stroke-linecap:round;stroke-linejoin:round;stroke-miterlimit:4;stroke-dasharray:2.8, 1.8;stroke-dashoffset:0;stroke-opacity:1"
       id="path948" />
    <path
       d="m 446.28,447.506 c -2.386,-2.429 -2.844,-9.063 -0.058,-13.938"
       style="fill:none;stroke:#231f20;stroke-width:0.5;stroke-linecap:round;stroke-linejoin:round;stroke-miterlimit:4;stroke-dasharray:2.8, 1.8;stroke-dashoffset:0;stroke-opacity:1"
       id="path950" />
    <path
       d="m 543.484,649.943 c 2.264,0.696 6.964,1.392 12.06,-0.726"
       style="fill:none;stroke:#231f20;stroke-width:0.5;stroke-linecap:round;stroke-linejoin:round;stroke-miterlimit:4;stroke-dasharray:2.8, 1.8;stroke-dashoffset:0;stroke-opacity:1"
       id="path952" />
    <path
       d="m 536.52,649.943 c -2.264,0.696 -6.965,1.392 -12.06,-0.726"
       style="fill:none;stroke:#231f20;stroke-width:0.5;stroke-linecap:round;stroke-linejoin:round;stroke-miterlimit:4;stroke-dasharray:2.8, 1.8;stroke-dashoffset:0;stroke-opacity:1"
       id="path954" />
    <path
       d="m 757.71,419.483 c -0.739,0.738 -12.537,-2.786 -19.152,-12.188 -6.616,-9.401 -9.054,-15.321 -7.312,-16.366 1.74,-1.045 8.356,4.179 13.231,10.447 4.875,6.268 14.277,17.062 13.233,18.107 z"
       style="fill:none;stroke:#231f20;stroke-width:0.5;stroke-linecap:round;stroke-linejoin:round;stroke-miterlimit:4;stroke-dasharray:2.8, 1.8;stroke-dashoffset:0;stroke-opacity:1"
       id="path956" />
    <path
       d="m 322.293,419.483 c 0.74,0.738 12.537,-2.786 19.153,-12.188 6.616,-9.401 9.054,-15.321 7.312,-16.366 -1.741,-1.045 -8.357,4.179 -13.232,10.447 -4.875,6.268 -14.276,17.062 -13.233,18.107 z"
       style="fill:none;stroke:#231f20;stroke-width:0.5;stroke-linecap:round;stroke-linejoin:round;stroke-miterlimit:4;stroke-dasharray:2.8, 1.8;stroke-dashoffset:0;stroke-opacity:1"
       id="path958" />
  </g>
</svg>
