<?xml version="1.0" encoding="UTF-8" standalone="no"?>
<!-- Created with Inkscape (http://www.inkscape.org/) -->

<svg
   version="1.1"
   id="svg2"
   width="1440"
   height="1344"
   viewBox="0 0 1440 1344"
   xmlns="http://www.w3.org/2000/svg"
   xmlns:svg="http://www.w3.org/2000/svg">
  <defs
     id="defs6" />
  <g
     id="g10">
    <path
       d="m 543.484,655.027 c 0,-1.924 -1.559,-3.483 -3.482,-3.483 -1.923,0 -3.482,1.559 -3.482,3.483 0,1.923 1.559,3.481 3.482,3.481 1.923,0 3.482,-1.558 3.482,-3.481"
       style="fill:#ffffff;fill-opacity:1;fill-rule:nonzero;stroke:none;stroke-width:0.1"
       id="path670" />
    <path
       d="m 543.484,655.027 c 0,-1.924 -1.559,-3.483 -3.482,-3.483 -1.923,0 -3.482,1.559 -3.482,3.483 0,1.923 1.559,3.481 3.482,3.481 1.923,0 3.482,-1.558 3.482,-3.481 z"
       style="fill:none;stroke:#231f20;stroke-width:0.5;stroke-linecap:butt;stroke-linejoin:miter;stroke-miterlimit:4;stroke-dasharray:none;stroke-opacity:1"
       id="path672" />
    <path
       d="m 540.002,413.968 c 0,-9.518 -16.483,-30.874 -19.964,-33.428 -3.483,-2.554 -5.804,-4.178 -13.001,-9.519 -7.197,-5.337 -16.946,-12.998 -23.91,-15.321 -6.964,-2.321 -9.75,-8.588 -15.554,-17.411 -5.804,-8.82 -18.34,-15.322 -38.071,-16.714 -19.731,-1.393 -40.858,0 -48.053,2.554 -7.197,2.552 -10.448,2.321 -16.948,2.089 -6.501,-0.233 -21.589,1.859 -29.713,5.341 -8.125,3.481 -17.876,9.981 -22.751,12.07 -4.875,2.089 -14.857,1.858 -22.75,4.875 -7.893,3.017 -19.733,14.394 -19.733,14.394 -2.321,0.696 -10.331,6.268 -13.347,8.819 -3.017,2.555 -17.759,13.929 -22.867,18.573 -5.108,4.641 -19.964,13.463 -26,28.785 -6.035,15.321 -7.892,23.678 -13.464,32.501 -3.88,6.142 -28.787,46.892 -34.358,83.571 -5.571,36.68 -3.249,78.465 14.395,125.357 17.642,46.894 40.507,75.447 86.82,113.054 46.313,37.608 102.376,60.59 169.581,59.197 67.205,-1.393 95.759,-27.22 103.259,-41.614 6.643,-12.751 6.429,-23.679 6.429,-27.857 0,4.178 -0.231,15.114 6.428,27.857 7.036,13.464 36.054,40.221 103.26,41.614 67.205,1.393 123.268,-21.589 169.58,-59.197 46.312,-37.607 69.178,-66.16 86.821,-113.054 17.644,-46.892 19.965,-88.677 14.394,-125.357 -5.571,-36.679 -30.477,-77.429 -34.358,-83.571 -5.571,-8.823 -7.429,-17.18 -13.464,-32.501 -6.036,-15.322 -20.892,-24.144 -25.999,-28.785 -5.108,-4.644 -19.85,-16.018 -22.867,-18.573 -3.017,-2.551 -11.026,-8.123 -13.348,-8.819 0,0 -11.839,-11.377 -19.733,-14.394 -7.893,-3.017 -17.874,-2.786 -22.749,-4.875 -4.875,-2.089 -14.627,-8.589 -22.751,-12.07 -8.125,-3.482 -23.214,-5.574 -29.714,-5.341 -6.5,0.232 -9.752,0.463 -16.947,-2.089 -7.195,-2.554 -28.322,-3.947 -48.053,-2.554 -19.732,1.392 -32.267,7.894 -38.072,16.714 -5.804,8.823 -8.59,15.09 -15.554,17.411 -6.964,2.323 -16.712,9.984 -23.91,15.321 -7.196,5.341 -9.517,6.965 -12.999,9.519 -3.482,2.554 -19.965,23.91 -19.965,33.428 z m 0,249.015 c 0,-3.374 -4.644,-7.817 -6.733,-8.05 0,0 6.733,-3.891 6.733,-7.143 0,3.252 6.733,7.143 6.733,7.143 -2.089,0.233 -6.733,4.676 -6.733,8.05"
       style="fill:#ffffff;fill-opacity:1;fill-rule:nonzero;stroke:none;stroke-width:0.1"
       id="path674" />
    <path
       d="m 540.002,413.968 c 0,-9.518 -16.483,-30.874 -19.964,-33.428 -3.483,-2.554 -5.804,-4.178 -13.001,-9.519 -7.197,-5.337 -16.946,-12.998 -23.91,-15.321 -6.964,-2.321 -9.75,-8.588 -15.554,-17.411 -5.804,-8.82 -18.34,-15.322 -38.071,-16.714 -19.731,-1.393 -40.858,0 -48.053,2.554 -7.197,2.552 -10.448,2.321 -16.948,2.089 -6.501,-0.233 -21.589,1.859 -29.713,5.341 -8.125,3.481 -17.876,9.981 -22.751,12.07 -4.875,2.089 -14.857,1.858 -22.75,4.875 -7.893,3.017 -19.733,14.394 -19.733,14.394 -2.321,0.696 -10.331,6.268 -13.347,8.819 -3.017,2.555 -17.759,13.929 -22.867,18.573 -5.108,4.641 -19.964,13.463 -26,28.785 -6.035,15.321 -7.892,23.678 -13.464,32.501 -3.88,6.142 -28.787,46.892 -34.358,83.571 -5.571,36.68 -3.249,78.465 14.395,125.357 17.642,46.894 40.507,75.447 86.82,113.054 46.313,37.608 102.376,60.59 169.581,59.197 67.205,-1.393 95.759,-27.22 103.259,-41.614 6.643,-12.751 6.429,-23.679 6.429,-27.857 0,4.178 -0.231,15.114 6.428,27.857 7.036,13.464 36.054,40.221 103.26,41.614 67.205,1.393 123.268,-21.589 169.58,-59.197 46.312,-37.607 69.178,-66.16 86.821,-113.054 17.644,-46.892 19.965,-88.677 14.394,-125.357 -5.571,-36.679 -30.477,-77.429 -34.358,-83.571 -5.571,-8.823 -7.429,-17.18 -13.464,-32.501 -6.036,-15.322 -20.892,-24.144 -25.999,-28.785 -5.108,-4.644 -19.85,-16.018 -22.867,-18.573 -3.017,-2.551 -11.026,-8.123 -13.348,-8.819 0,0 -11.839,-11.377 -19.733,-14.394 -7.893,-3.017 -17.874,-2.786 -22.749,-4.875 -4.875,-2.089 -14.627,-8.589 -22.751,-12.07 -8.125,-3.482 -23.214,-5.574 -29.714,-5.341 -6.5,0.232 -9.752,0.463 -16.947,-2.089 -7.195,-2.554 -28.322,-3.947 -48.053,-2.554 -19.732,1.392 -32.267,7.894 -38.072,16.714 -5.804,8.823 -8.59,15.09 -15.554,17.411 -6.964,2.323 -16.712,9.984 -23.91,15.321 -7.196,5.341 -9.517,6.965 -12.999,9.519 -3.482,2.554 -19.965,23.91 -19.965,33.428 z m 0,249.015 c 0,-3.374 -4.644,-7.817 -6.733,-8.05 0,0 6.733,-3.891 6.733,-7.143 0,3.252 6.733,7.143 6.733,7.143 -2.089,0.233 -6.733,4.676 -6.733,8.05 z"
       style="fill:none;stroke:#231f20;stroke-width:0.75;stroke-linecap:round;stroke-linejoin:round;stroke-miterlimit:4;stroke-dasharray:none;stroke-opacity:1"
       id="path676" />
    <path
       d="m 631.234,656.907 c -3.945,-5.224 -12.537,-25.653 -12.769,-37.491 -0.23,-11.84 1.859,-16.715 1.626,-19.964 -0.232,-3.251 -1.685,-20.226 -1.221,-23.475 l 0.003,-0.031 c 2.438,-8.871 2.445,-14.41 1.413,-17.977 l 0.001,-0.021 c -0.231,-3.714 0.501,-9.105 0.268,-13.283 -0.232,-4.179 -2.32,-19.037 -3.25,-27.394 -0.929,-8.356 -0.232,-21.356 1.858,-28.553 2.089,-7.196 4.875,-2.321 3.947,0.929 -0.928,3.249 -3.019,16.018 -3.483,26.231 -0.463,10.216 3.713,32.733 2.786,51.769 -0.927,19.036 2.089,32.036 2.089,32.036 -4.41,8.588 -3.482,13.232 0,27.857 3.483,14.626 11.374,30.179 17.178,38.072"
       style="fill:#b2b1b1;fill-opacity:1;fill-rule:nonzero;stroke:none;stroke-width:0.1"
       id="path678" />
    <path
       d="m 448.769,656.907 c 3.946,-5.224 12.537,-25.653 12.769,-37.491 0.231,-11.84 -1.858,-16.715 -1.625,-19.964 0.232,-3.251 1.684,-20.226 1.22,-23.475 l -0.002,-0.031 c -2.439,-8.871 -2.446,-14.41 -1.413,-17.977 l -0.002,-0.021 c 0.232,-3.714 -0.5,-9.105 -0.267,-13.283 0.232,-4.179 2.32,-19.037 3.249,-27.394 0.929,-8.356 0.232,-21.356 -1.857,-28.553 -2.089,-7.196 -4.875,-2.321 -3.947,0.929 0.928,3.249 3.019,16.018 3.482,26.231 0.464,10.216 -3.713,32.733 -2.786,51.769 0.928,19.036 -2.089,32.036 -2.089,32.036 4.41,8.588 3.482,13.232 0,27.857 -3.482,14.626 -11.374,30.179 -17.178,38.072"
       style="fill:#b2b1b1;fill-opacity:1;fill-rule:nonzero;stroke:none;stroke-width:0.1"
       id="path680" />
    <path
       d="m 620.091,599.452 c 0.233,3.249 -1.856,8.124 -1.626,19.964 0.232,11.838 8.824,32.267 12.769,37.491 -3.83,-3.831 -25.768,-17.063 -44.571,-25.769 6.035,-5.455 23.751,-26.257 31.802,-53.741 0.145,-0.491 0.272,-0.959 0.402,-1.431 l 0.003,0.011 c -0.464,3.249 0.989,20.224 1.221,23.475"
       style="fill:#706d6e;fill-opacity:1;fill-rule:nonzero;stroke:none;stroke-width:0.1"
       id="path682" />
    <path
       d="m 620.091,599.452 c 0.233,3.249 -1.856,8.124 -1.626,19.964 0.232,11.838 8.824,32.267 12.769,37.491 -3.83,-3.831 -25.768,-17.063 -44.571,-25.769 6.035,-5.455 23.751,-26.257 31.802,-53.741 0.145,-0.491 0.272,-0.959 0.402,-1.431 l 0.003,0.011 c -0.464,3.249 0.989,20.224 1.221,23.475 z"
       style="fill:none;stroke:#231f20;stroke-width:0.5;stroke-linecap:round;stroke-linejoin:round;stroke-miterlimit:4;stroke-dasharray:none;stroke-opacity:1"
       id="path684" />
    <path
       d="m 775.045,345.267 c 2.091,3.12 7.992,15.567 13.234,19.66 5.571,4.353 19.326,5.746 22.17,-2.029"
       style="fill:none;stroke:#231f20;stroke-width:0.5;stroke-linecap:butt;stroke-linejoin:miter;stroke-miterlimit:4;stroke-dasharray:none;stroke-opacity:1"
       id="path686" />
    <path
       d="m 586.199,656.79 c 4.178,3.134 13,9.518 21.356,27.277 9.445,20.069 18.456,32.732 64.769,18.107 0,0 -24.724,2.786 -43.528,-9.75 -18.803,-12.536 -28.321,-32.5 -42.597,-35.634 z"
       style="fill:none;stroke:#231f20;stroke-width:0.5;stroke-linecap:butt;stroke-linejoin:miter;stroke-miterlimit:4;stroke-dasharray:none;stroke-opacity:1"
       id="path688" />
    <path
       d="m 791.761,473.396 c -1.973,-5.339 -4.294,-19.266 -9.169,-27.16 -4.875,-7.893 -8.59,-16.019 -23.678,-31.571 -7.614,-7.848 -16.874,-22.423 -14.801,-33.648"
       style="fill:none;stroke:#231f20;stroke-width:0.5;stroke-linecap:butt;stroke-linejoin:miter;stroke-miterlimit:4;stroke-dasharray:none;stroke-opacity:1"
       id="path690" />
    <path
       d="m 622.413,475.022 c -3.714,0 -6.268,-7.429 -5.34,-14.624 0.914,-7.092 5.571,-11.374 8.59,-13.232 3.018,-1.858 12.768,-5.572 14.625,-3.02 1.856,2.555 -1.393,12.536 -2.786,15.787 -1.393,3.249 -2.553,6.499 -5.338,8.821 -2.787,2.322 -7.103,6.268 -9.751,6.268 z"
       style="fill:none;stroke:#231f20;stroke-width:0.5;stroke-linecap:butt;stroke-linejoin:miter;stroke-miterlimit:4;stroke-dasharray:none;stroke-opacity:1"
       id="path692" />
    <path
       d="m 666.604,432.53 c -0.529,-0.829 -2.444,-0.552 -4.279,0.62 -1.834,1.173 -2.892,2.794 -2.365,3.624 0.528,0.83 2.446,0.553 4.279,-0.62 1.835,-1.173 2.894,-2.794 2.365,-3.624 z"
       style="fill:none;stroke:#231f20;stroke-width:0.5;stroke-linecap:butt;stroke-linejoin:miter;stroke-miterlimit:4;stroke-dasharray:none;stroke-opacity:1"
       id="path694" />
    <path
       d="m 679.603,427.19 c -0.529,-0.83 -2.444,-0.553 -4.279,0.62 -1.833,1.173 -2.892,2.794 -2.364,3.624 0.528,0.829 2.446,0.552 4.278,-0.62 1.835,-1.173 2.894,-2.794 2.365,-3.624 z"
       style="fill:none;stroke:#231f20;stroke-width:0.5;stroke-linecap:butt;stroke-linejoin:miter;stroke-miterlimit:4;stroke-dasharray:none;stroke-opacity:1"
       id="path696" />
    <path
       d="m 725.297,416.662 c 0.035,-0.707 -1.203,-1.338 -2.764,-1.414 -1.562,-0.077 -2.854,0.434 -2.889,1.142 -0.035,0.704 1.202,1.338 2.761,1.411 1.561,0.076 2.856,-0.434 2.892,-1.139 z"
       style="fill:none;stroke:#231f20;stroke-width:0.5;stroke-linecap:butt;stroke-linejoin:miter;stroke-miterlimit:4;stroke-dasharray:none;stroke-opacity:1"
       id="path698" />
    <path
       d="m 459.913,599.452 c -0.233,3.249 1.856,8.124 1.625,19.964 -0.232,11.838 -8.823,32.267 -12.769,37.491 3.831,-3.831 25.769,-17.063 44.572,-25.769 -6.035,-5.455 -23.751,-26.257 -31.803,-53.741 -0.144,-0.491 -0.271,-0.959 -0.402,-1.431 l -0.003,0.011 c 0.464,3.249 -0.988,20.224 -1.22,23.475"
       style="fill:#706d6e;fill-opacity:1;fill-rule:nonzero;stroke:none;stroke-width:0.1"
       id="path700" />
    <path
       d="m 459.913,599.452 c -0.233,3.249 1.856,8.124 1.625,19.964 -0.232,11.838 -8.823,32.267 -12.769,37.491 3.831,-3.831 25.769,-17.063 44.572,-25.769 -6.035,-5.455 -23.751,-26.257 -31.803,-53.741 -0.144,-0.491 -0.271,-0.959 -0.402,-1.431 l -0.003,0.011 c 0.464,3.249 -0.988,20.224 -1.22,23.475 z"
       style="fill:none;stroke:#231f20;stroke-width:0.5;stroke-linecap:round;stroke-linejoin:round;stroke-miterlimit:4;stroke-dasharray:none;stroke-opacity:1"
       id="path702" />
    <path
       d="m 304.958,345.267 c -2.09,3.12 -7.992,15.567 -13.234,19.66 -5.571,4.353 -19.325,5.746 -22.17,-2.029"
       style="fill:none;stroke:#231f20;stroke-width:0.5;stroke-linecap:butt;stroke-linejoin:miter;stroke-miterlimit:4;stroke-dasharray:none;stroke-opacity:1"
       id="path704" />
    <path
       d="m 493.805,656.79 c 15.321,-8.589 40.394,-9.75 46.197,-9.75 5.802,0 30.875,1.161 46.197,9.75"
       style="fill:none;stroke:#231f20;stroke-width:0.5;stroke-linecap:butt;stroke-linejoin:miter;stroke-miterlimit:4;stroke-dasharray:none;stroke-opacity:1"
       id="path706" />
    <path
       d="m 493.805,656.79 c -4.179,3.134 -13,9.518 -21.357,27.277 -9.444,20.069 -18.455,32.732 -64.768,18.107 0,0 24.723,2.786 43.527,-9.75 18.803,-12.536 28.321,-32.5 42.598,-35.634 z"
       style="fill:none;stroke:#231f20;stroke-width:0.5;stroke-linecap:butt;stroke-linejoin:miter;stroke-miterlimit:4;stroke-dasharray:none;stroke-opacity:1"
       id="path708" />
    <path
       d="m 288.243,473.396 c 1.973,-5.339 4.294,-19.266 9.169,-27.16 4.875,-7.893 8.589,-16.019 23.678,-31.571 7.674,-7.913 17.022,-22.659 14.748,-33.919"
       style="fill:none;stroke:#231f20;stroke-width:0.5;stroke-linecap:butt;stroke-linejoin:miter;stroke-miterlimit:4;stroke-dasharray:none;stroke-opacity:1"
       id="path710" />
    <path
       d="m 457.59,475.022 c 3.715,0 6.268,-7.429 5.34,-14.624 -0.914,-7.092 -5.571,-11.374 -8.589,-13.232 -3.018,-1.858 -12.768,-5.572 -14.625,-3.02 -1.857,2.555 1.393,12.536 2.785,15.787 1.393,3.249 2.553,6.499 5.339,8.821 2.786,2.322 7.102,6.268 9.75,6.268 z"
       style="fill:none;stroke:#231f20;stroke-width:0.5;stroke-linecap:butt;stroke-linejoin:miter;stroke-miterlimit:4;stroke-dasharray:none;stroke-opacity:1"
       id="path712" />
    <path
       d="m 413.4,432.53 c 0.529,-0.829 2.444,-0.552 4.279,0.62 1.833,1.173 2.892,2.794 2.364,3.624 -0.528,0.83 -2.446,0.553 -4.278,-0.62 -1.835,-1.173 -2.894,-2.794 -2.365,-3.624 z"
       style="fill:none;stroke:#231f20;stroke-width:0.5;stroke-linecap:butt;stroke-linejoin:miter;stroke-miterlimit:4;stroke-dasharray:none;stroke-opacity:1"
       id="path714" />
    <path
       d="m 400.4,427.19 c 0.529,-0.83 2.444,-0.553 4.279,0.62 1.834,1.173 2.892,2.794 2.364,3.624 -0.527,0.829 -2.445,0.552 -4.278,-0.62 -1.834,-1.173 -2.894,-2.794 -2.365,-3.624 z"
       style="fill:none;stroke:#231f20;stroke-width:0.5;stroke-linecap:butt;stroke-linejoin:miter;stroke-miterlimit:4;stroke-dasharray:none;stroke-opacity:1"
       id="path716" />
    <path
       d="m 354.707,416.662 c -0.036,-0.707 1.202,-1.338 2.763,-1.414 1.562,-0.077 2.854,0.434 2.89,1.142 0.035,0.704 -1.203,1.338 -2.762,1.411 -1.561,0.076 -2.856,-0.434 -2.891,-1.139 z"
       style="fill:none;stroke:#231f20;stroke-width:0.5;stroke-linecap:butt;stroke-linejoin:miter;stroke-miterlimit:4;stroke-dasharray:none;stroke-opacity:1"
       id="path718" />
    <path
       d="m 408.414,702.404 c -14.314,-4.06 -60.279,-15.203 -87.44,-40.275 -27.16,-25.071 -39.696,-53.276 -45.616,-74.867 -5.919,-21.589 -8.705,-55.017 1.741,-89.491 0,0 0.958,-4.439 11.144,-24.375 0,0 -5.224,18.456 -8.706,29.947 -3.482,11.491 -5.223,16.365 -4.179,41.089 1.045,24.724 10.099,76.608 50.143,106.902 40.045,30.295 78,27.51 90.884,25.073 14.029,-2.655 21.938,-10.795 21.938,-10.795 0,0 6.616,-4.875 10.446,-8.705 3.831,-3.831 25.769,-17.063 44.572,-25.769 18.804,-8.705 41.089,-12.535 46.661,-12.535 5.571,0 27.857,3.83 46.661,12.535 18.803,8.706 40.741,21.938 44.571,25.769 3.83,3.83 10.446,8.705 10.446,8.705 0,0 7.91,8.14 21.938,10.795 12.884,2.437 50.84,5.222 90.884,-25.073 40.045,-30.294 49.098,-82.178 50.143,-106.902 1.045,-24.724 -0.696,-29.598 -4.179,-41.089 -3.481,-11.491 -8.705,-29.947 -8.705,-29.947 10.186,19.936 11.143,24.375 11.143,24.375 10.446,34.474 7.661,67.902 1.741,89.491 -5.92,21.591 -18.455,49.796 -45.616,74.867 -27.16,25.072 -73.125,36.215 -87.439,40.275"
       style="fill:none;stroke:#231f20;stroke-width:0.5;stroke-linecap:butt;stroke-linejoin:miter;stroke-miterlimit:4;stroke-dasharray:none;stroke-opacity:1"
       id="path720" />
    <path
       d="m 540.002,763.284 c 0,0 0,-99.025 0,-100.301"
       style="fill:none;stroke:#231f20;stroke-width:0.75;stroke-linecap:round;stroke-linejoin:round;stroke-miterlimit:4;stroke-dasharray:none;stroke-opacity:1"
       id="path722" />
    <path
       d="m 618.87,575.977 0.003,-0.031 c 2.438,-8.871 2.445,-14.41 1.413,-17.977 l 0.001,-0.021 c -0.231,-3.714 0.501,-9.105 0.268,-13.283 -0.232,-4.179 -2.32,-19.037 -3.25,-27.394 -0.929,-8.356 -0.232,-21.356 1.858,-28.553 2.089,-7.196 4.875,-2.321 3.947,0.929 -0.928,3.249 -3.019,16.018 -3.483,26.231 -0.463,10.216 3.713,32.733 2.786,51.769 -0.927,19.036 2.089,32.036 2.089,32.036 -4.41,8.588 -3.482,13.232 0,27.857 3.483,14.626 11.374,30.179 17.178,38.072"
       style="fill:none;stroke:#231f20;stroke-width:0.5;stroke-linecap:butt;stroke-linejoin:miter;stroke-miterlimit:4;stroke-dasharray:none;stroke-opacity:1"
       id="path724" />
    <path
       d="m 459.718,557.969 -0.002,-0.021 c 0.232,-3.714 -0.5,-9.105 -0.267,-13.283 0.232,-4.179 2.32,-19.037 3.249,-27.394 0.929,-8.356 0.232,-21.356 -1.857,-28.553 -2.089,-7.196 -4.875,-2.321 -3.947,0.929 0.928,3.249 3.019,16.018 3.482,26.231 0.464,10.216 -3.713,32.733 -2.786,51.769 0.928,19.036 -2.089,32.036 -2.089,32.036 4.41,8.588 3.482,13.232 0,27.857 -3.482,14.626 -11.374,30.179 -17.178,38.072"
       style="fill:none;stroke:#231f20;stroke-width:0.5;stroke-linecap:butt;stroke-linejoin:miter;stroke-miterlimit:4;stroke-dasharray:none;stroke-opacity:1"
       id="path726" />
    <path
       d="m 255.204,372.205 c 2.474,-1.988 3.995,-4.203 3.399,-4.944 -0.597,-0.741 -3.085,0.27 -5.558,2.257 -2.474,1.987 -3.995,4.2 -3.399,4.943 0.598,0.743 3.085,-0.266 5.558,-2.256"
       style="fill:#ffffff;fill-opacity:1;fill-rule:nonzero;stroke:none;stroke-width:0.1"
       id="path728" />
    <path
       d="m 255.204,372.205 c 2.474,-1.988 3.995,-4.203 3.399,-4.944 -0.597,-0.741 -3.085,0.27 -5.558,2.257 -2.474,1.987 -3.995,4.2 -3.399,4.943 0.598,0.743 3.085,-0.266 5.558,-2.256 z"
       style="fill:none;stroke:#231f20;stroke-width:0.5;stroke-linecap:butt;stroke-linejoin:miter;stroke-miterlimit:4;stroke-dasharray:none;stroke-opacity:1"
       id="path730" />
    <path
       d="m 824.799,372.205 c -2.473,-1.988 -3.995,-4.203 -3.399,-4.944 0.598,-0.741 3.085,0.27 5.558,2.257 2.474,1.987 3.995,4.2 3.399,4.943 -0.597,0.743 -3.085,-0.266 -5.558,-2.256"
       style="fill:#ffffff;fill-opacity:1;fill-rule:nonzero;stroke:none;stroke-width:0.1"
       id="path732" />
    <path
       d="m 824.799,372.205 c -2.473,-1.988 -3.995,-4.203 -3.399,-4.944 0.598,-0.741 3.085,0.27 5.558,2.257 2.474,1.987 3.995,4.2 3.399,4.943 -0.597,0.743 -3.085,-0.266 -5.558,-2.256 z"
       style="fill:none;stroke:#231f20;stroke-width:0.5;stroke-linecap:butt;stroke-linejoin:miter;stroke-miterlimit:4;stroke-dasharray:none;stroke-opacity:1"
       id="path734" />
    <path
       d="m 584.82,360.782 c 0,-1.284 -1.041,-2.323 -2.323,-2.323 -1.282,0 -2.322,1.039 -2.322,2.323 0,1.282 1.04,2.321 2.322,2.321 1.282,0 2.323,-1.039 2.323,-2.321"
       style="fill:#ffffff;fill-opacity:1;fill-rule:nonzero;stroke:none;stroke-width:0.1"
       id="path736" />
    <path
       d="m 584.82,360.782 c 0,-1.284 -1.041,-2.323 -2.323,-2.323 -1.282,0 -2.322,1.039 -2.322,2.323 0,1.282 1.04,2.321 2.322,2.321 1.282,0 2.323,-1.039 2.323,-2.321 z"
       style="fill:none;stroke:#231f20;stroke-width:0.5;stroke-linecap:butt;stroke-linejoin:miter;stroke-miterlimit:4;stroke-dasharray:none;stroke-opacity:1"
       id="path738" />
    <path
       d="m 495.183,360.782 c 0,-1.284 1.041,-2.323 2.323,-2.323 1.282,0 2.321,1.039 2.321,2.323 0,1.282 -1.039,2.321 -2.321,2.321 -1.282,0 -2.323,-1.039 -2.323,-2.321"
       style="fill:#ffffff;fill-opacity:1;fill-rule:nonzero;stroke:none;stroke-width:0.1"
       id="path740" />
    <path
       d="m 495.183,360.782 c 0,-1.284 1.041,-2.323 2.323,-2.323 1.282,0 2.321,1.039 2.321,2.323 0,1.282 -1.039,2.321 -2.321,2.321 -1.282,0 -2.323,-1.039 -2.323,-2.321 z"
       style="fill:none;stroke:#231f20;stroke-width:0.5;stroke-linecap:butt;stroke-linejoin:miter;stroke-miterlimit:4;stroke-dasharray:none;stroke-opacity:1"
       id="path742" />
    <path
       d="m 545.114,647.204 c -0.006,2.854 8.226,7.169 11.423,1.065"
       style="fill:none;stroke:#231f20;stroke-width:0.5;stroke-linecap:round;stroke-linejoin:round;stroke-miterlimit:4;stroke-dasharray:2.8, 1.8;stroke-dashoffset:0;stroke-opacity:1"
       id="path744" />
    <path
       d="m 540.002,754.754 c 0,0 66.802,-44.673 80.293,-52.045"
       style="fill:none;stroke:#231f20;stroke-width:0.5;stroke-linecap:round;stroke-linejoin:round;stroke-miterlimit:4;stroke-dasharray:2.8, 1.8;stroke-dashoffset:0;stroke-opacity:1"
       id="path746" />
    <path
       d="m 578.334,818.043 c 0,0 42.778,-101.714 48.187,-111.751"
       style="fill:none;stroke:#231f20;stroke-width:0.5;stroke-linecap:round;stroke-linejoin:round;stroke-miterlimit:4;stroke-dasharray:2.8, 1.8;stroke-dashoffset:0;stroke-opacity:1"
       id="path748" />
    <path
       d="m 640.269,832.327 c -0.678,-17.331 1.414,-112.35 1.413,-123.863"
       style="fill:none;stroke:#231f20;stroke-width:0.5;stroke-linecap:round;stroke-linejoin:round;stroke-miterlimit:4;stroke-dasharray:2.8, 1.8;stroke-dashoffset:0;stroke-opacity:1"
       id="path750" />
    <path
       d="m 554.945,620.831 c -2.176,-4.665 -2.756,-10.934 7.343,-14.067 10.097,-3.134 24.652,1.289 49.027,-10.898"
       style="fill:none;stroke:#231f20;stroke-width:0.5;stroke-linecap:round;stroke-linejoin:round;stroke-miterlimit:4;stroke-dasharray:2.8, 1.8;stroke-dashoffset:0;stroke-opacity:1"
       id="path752" />
    <path
       d="m 586.663,631.138 c 6.035,-5.455 23.751,-26.257 31.802,-53.741 6.734,-22.982 -2.089,-24.839 -4.875,-26.697 -2.785,-1.857 -16.973,-13.23 -19.513,-27.158 -2.539,-13.931 -0.217,-27.29 -1.147,-32.165"
       style="fill:none;stroke:#231f20;stroke-width:0.5;stroke-linecap:round;stroke-linejoin:round;stroke-miterlimit:4;stroke-dasharray:2.8, 1.8;stroke-dashoffset:0;stroke-opacity:1"
       id="path754" />
    <path
       d="m 567.163,475.486 c 3.946,0 15.089,3.018 21.125,10.446 6.036,7.43 21.589,23.912 28.553,26.93"
       style="fill:none;stroke:#231f20;stroke-width:0.5;stroke-linecap:round;stroke-linejoin:round;stroke-miterlimit:4;stroke-dasharray:2.8, 1.8;stroke-dashoffset:0;stroke-opacity:1"
       id="path756" />
    <path
       d="m 567.859,539.326 c 3.743,1.559 14.828,-8.123 15.539,-15.784 0.712,-7.664 -1.284,-17.196 -6.485,-20.663 -4.179,-2.786 -6.501,0.233 -6.501,4.875 0,5.128 -0.929,11.84 -2.089,16.947 -1.16,5.106 -3.25,13.465 -0.464,14.625 z"
       style="fill:none;stroke:#231f20;stroke-width:0.5;stroke-linecap:round;stroke-linejoin:round;stroke-miterlimit:4;stroke-dasharray:2.8, 1.8;stroke-dashoffset:0;stroke-opacity:1"
       id="path758" />
    <path
       d="m 702.734,828.559 c 0,0 -21.027,-123.001 -22.421,-128.572"
       style="fill:none;stroke:#231f20;stroke-width:0.5;stroke-linecap:round;stroke-linejoin:round;stroke-miterlimit:4;stroke-dasharray:2.8, 1.8;stroke-dashoffset:0;stroke-opacity:1"
       id="path760" />
    <path
       d="m 848.112,748.344 c 0,0 -77.941,-76.465 -89.083,-86.215"
       style="fill:none;stroke:#231f20;stroke-width:0.5;stroke-linecap:round;stroke-linejoin:round;stroke-miterlimit:4;stroke-dasharray:2.8, 1.8;stroke-dashoffset:0;stroke-opacity:1"
       id="path762" />
    <path
       d="m 863.033,732.968 c 0,0 -72.491,-64.483 -93.732,-81.198"
       style="fill:none;stroke:#231f20;stroke-width:0.5;stroke-linecap:round;stroke-linejoin:round;stroke-miterlimit:4;stroke-dasharray:2.8, 1.8;stroke-dashoffset:0;stroke-opacity:1"
       id="path764" />
    <path
       d="m 804.645,587.262 c 0,0 92.524,16.03 115.507,20.905"
       style="fill:none;stroke:#231f20;stroke-width:0.5;stroke-linecap:round;stroke-linejoin:round;stroke-miterlimit:4;stroke-dasharray:2.8, 1.8;stroke-dashoffset:0;stroke-opacity:1"
       id="path766" />
    <path
       d="m 809.613,535.64 c 3.482,-9.054 11.398,-27.77 12.095,-43.788 0.334,-7.68 -1.574,-21.552 -8.009,-27.857 -6.985,-6.845 -18.676,-5.278 -21.938,9.401"
       style="fill:none;stroke:#231f20;stroke-width:0.5;stroke-linecap:round;stroke-linejoin:round;stroke-miterlimit:4;stroke-dasharray:2.8, 1.8;stroke-dashoffset:0;stroke-opacity:1"
       id="path768" />
    <path
       d="m 809.835,540.593 c 9.087,-3.125 76.78,-23.711 106.308,-24.385"
       style="fill:none;stroke:#231f20;stroke-width:0.5;stroke-linecap:round;stroke-linejoin:round;stroke-miterlimit:4;stroke-dasharray:2.8, 1.8;stroke-dashoffset:0;stroke-opacity:1"
       id="path770" />
    <path
       d="m 816.002,518.389 c 20.33,-8.778 51,-22.718 91.032,-26.89"
       style="fill:none;stroke:#231f20;stroke-width:0.5;stroke-linecap:round;stroke-linejoin:round;stroke-miterlimit:4;stroke-dasharray:2.8, 1.8;stroke-dashoffset:0;stroke-opacity:1"
       id="path772" />
    <path
       d="m 821.544,494.305 c 10.262,-6.284 39.713,-21.733 74.783,-24.977"
       style="fill:none;stroke:#231f20;stroke-width:0.5;stroke-linecap:round;stroke-linejoin:round;stroke-miterlimit:4;stroke-dasharray:2.8, 1.8;stroke-dashoffset:0;stroke-opacity:1"
       id="path774" />
    <path
       d="m 818.401,471.519 c 8.181,-5.087 39.314,-21.851 64.315,-26.179"
       style="fill:none;stroke:#231f20;stroke-width:0.5;stroke-linecap:round;stroke-linejoin:round;stroke-miterlimit:4;stroke-dasharray:2.8, 1.8;stroke-dashoffset:0;stroke-opacity:1"
       id="path776" />
    <path
       d="m 803.641,460.145 c 5.531,-5.204 12.844,-22.963 6.228,-31.668 -6.617,-8.706 -27.743,-9.168 -32.848,-6.616 -4.236,2.119 -4.336,4.619 -5.38,7.404"
       style="fill:none;stroke:#231f20;stroke-width:0.5;stroke-linecap:round;stroke-linejoin:round;stroke-miterlimit:4;stroke-dasharray:2.8, 1.8;stroke-dashoffset:0;stroke-opacity:1"
       id="path778" />
    <path
       d="m 805.535,457.96 c 9.209,-7.198 32.92,-23.145 68.422,-35.542"
       style="fill:none;stroke:#231f20;stroke-width:0.5;stroke-linecap:round;stroke-linejoin:round;stroke-miterlimit:4;stroke-dasharray:2.8, 1.8;stroke-dashoffset:0;stroke-opacity:1"
       id="path780" />
    <path
       d="m 784.458,420.539 c -7.206,-4.481 -23.456,-17.945 -27.867,-30.714 -3.571,-10.34 -5.571,-12.071 -9.75,-15.088 -4.178,-3.02 -15.089,-12.535 -25.767,-12.77 -10.68,-0.23 -18.339,-2.551 -24.839,-4.178 -6.501,-1.624 -12.304,-2.786 -25.769,-2.786 -13.464,0 -26.435,4.789 -41.858,0.895"
       style="fill:none;stroke:#231f20;stroke-width:0.5;stroke-linecap:round;stroke-linejoin:round;stroke-miterlimit:4;stroke-dasharray:2.8, 1.8;stroke-dashoffset:0;stroke-opacity:1"
       id="path782" />
    <path
       d="m 601.419,353.248 c 2.887,0.828 8.922,2.683 14.494,2.917 5.571,0.231 13.929,0 16.251,-0.928 2.32,-0.93 -0.466,-2.554 -2.555,-3.02 -2.09,-0.462 -8.125,-3.016 -6.035,-9.053 2.089,-6.034 13.23,-9.519 27.624,-9.981 14.393,-0.466 27.161,1.626 34.125,5.34 6.965,3.713 14.392,7.43 25.071,5.571 10.68,-1.858 16.483,-5.108 19.037,-1.161 2.553,3.947 4.644,4.409 7.196,4.875 2.554,0.465 3.019,1.858 3.483,3.713 0.464,1.858 1.624,7.43 5.339,9.75 3.715,2.323 9.325,1.107 10.678,2.09 2.555,1.857 2.555,12.769 4.179,16.714 1.624,3.947 6.267,11.142 9.982,13.697 3.714,2.555 14.856,6.499 25.767,6.268 10.912,-0.231 22.983,-1.393 28.786,5.802 5.805,7.198 12.304,16.484 15.089,19.735 2.786,3.248 7.6,7.533 9.882,6.509 2.283,-1.025 3.014,-1.351 3.878,-1.727 0.865,-0.375 0.865,-2.924 -0.991,-5.479 -1.857,-2.554 -19.733,-26.002 -25.072,-31.108 -5.338,-5.106 -13.697,-8.357 -29.482,-6.732 -15.785,1.626 -24.143,-5.338 -26.232,-13.929 -2.089,-8.589 -3.946,-22.983 -12.303,-19.035 -8.358,3.947 -10.679,1.624 -11.376,-2.555 -0.696,-4.179 -1.624,-7.66 -6.732,-9.285 -5.107,-1.624 -7.662,-4.178 -8.822,-6.733 -1.16,-2.551 -3.018,-4.872 -5.571,-1.855 -2.553,3.017 -3.481,1.855 -7.892,1.855 -4.411,0 -10.215,1.162 -21.358,-2.089 -11.143,-3.248 -28.785,-8.357 -45.499,-7.196 -16.715,1.162 -49.216,12.998 -36.447,29.947"
       style="fill:none;stroke:#231f20;stroke-width:0.5;stroke-linecap:round;stroke-linejoin:round;stroke-miterlimit:4;stroke-dasharray:2.8, 1.8;stroke-dashoffset:0;stroke-opacity:1"
       id="path784" />
    <path
       d="m 746.841,374.737 c 2.555,-3.017 18.716,-24.802 14.349,-34.688"
       style="fill:none;stroke:#231f20;stroke-width:0.5;stroke-linecap:round;stroke-linejoin:round;stroke-miterlimit:4;stroke-dasharray:2.8, 1.8;stroke-dashoffset:0;stroke-opacity:1"
       id="path786" />
    <path
       d="m 639.359,343.164 c 1.644,-5.209 16.018,0.465 14.393,6.037 -1.625,5.571 -15.787,-1.624 -14.393,-6.037 z"
       style="fill:none;stroke:#231f20;stroke-width:0.5;stroke-linecap:round;stroke-linejoin:round;stroke-miterlimit:4;stroke-dasharray:2.8, 1.8;stroke-dashoffset:0;stroke-opacity:1"
       id="path788" />
    <path
       d="m 673.949,355.034 c -2.787,-0.026 -6.268,-3.047 -5.804,-6.995 0.464,-3.945 3.249,-4.178 7.428,-3.017 4.179,1.162 4.179,3.947 3.715,5.34 -0.464,1.393 -1.857,4.698 -5.339,4.672 z"
       style="fill:none;stroke:#231f20;stroke-width:0.5;stroke-linecap:round;stroke-linejoin:round;stroke-miterlimit:4;stroke-dasharray:2.8, 1.8;stroke-dashoffset:0;stroke-opacity:1"
       id="path790" />
    <path
       d="m 703.336,359.579 c -2.403,-0.327 -4.781,-2.021 -4.084,-4.342 0.696,-2.323 3.947,-1.393 5.34,-0.93 1.393,0.465 3.248,2.089 3.017,3.482 -0.232,1.393 -1.35,2.184 -4.273,1.79 z"
       style="fill:none;stroke:#231f20;stroke-width:0.5;stroke-linecap:round;stroke-linejoin:round;stroke-miterlimit:4;stroke-dasharray:2.8, 1.8;stroke-dashoffset:0;stroke-opacity:1"
       id="path792" />
    <path
       d="m 715.7,361.666 c -2.763,-0.302 -4.84,-4.804 -2.287,-6.198 2.553,-1.392 8.821,0 11.606,1.394 2.786,1.392 3.866,5.157 -1.2,5.364"
       style="fill:none;stroke:#231f20;stroke-width:0.5;stroke-linecap:round;stroke-linejoin:round;stroke-miterlimit:4;stroke-dasharray:2.8, 1.8;stroke-dashoffset:0;stroke-opacity:1"
       id="path794" />
    <path
       d="m 588.93,486.713 c -1.613,-1.886 -3.893,-6.352 -3.66,-20.048 0.232,-13.697 4.642,-35.054 5.339,-37.84 0.696,-2.785 6.964,-18.108 16.946,-33.66 9.983,-15.553 22.095,-33.538 31.361,-37.779"
       style="fill:none;stroke:#231f20;stroke-width:0.5;stroke-linecap:round;stroke-linejoin:round;stroke-miterlimit:4;stroke-dasharray:2.8, 1.8;stroke-dashoffset:0;stroke-opacity:1"
       id="path796" />
    <path
       d="m 610.805,377.986 c 3.251,-1.624 7.972,-2.849 14.549,-8.274"
       style="fill:none;stroke:#231f20;stroke-width:0.5;stroke-linecap:round;stroke-linejoin:round;stroke-miterlimit:4;stroke-dasharray:2.8, 1.8;stroke-dashoffset:0;stroke-opacity:1"
       id="path798" />
    <path
       d="m 586.306,453.679 c 0.465,-3.515 -0.572,-14.873 -1.732,-19.513 -1.161,-4.645 -3.527,-14.506 -0.895,-18.394"
       style="fill:none;stroke:#231f20;stroke-width:0.5;stroke-linecap:round;stroke-linejoin:round;stroke-miterlimit:4;stroke-dasharray:2.8, 1.8;stroke-dashoffset:0;stroke-opacity:1"
       id="path800" />
    <path
       d="m 591.052,489.202 c -1.608,-1.874 -3.692,-7.216 -1.371,-14.412 2.321,-7.197 7.427,-21.587 8.588,-24.838 1.162,-3.251 2.091,-5.806 6.733,-8.591 4.643,-2.786 12.767,-7.427 18.338,-2.09"
       style="fill:none;stroke:#231f20;stroke-width:0.5;stroke-linecap:round;stroke-linejoin:round;stroke-miterlimit:4;stroke-dasharray:2.8, 1.8;stroke-dashoffset:0;stroke-opacity:1"
       id="path802" />
    <path
       d="m 616.844,436.836 c 4.814,-1.918 7.581,-7.704 8.906,-9.578 1.325,-1.875 5.02,-6.878 6.18,-11.056 1.16,-4.178 3.25,-11.056 10.446,-18.948 7.198,-7.891 13.929,-11.142 17.412,-12.766 3.482,-1.627 7.197,-4.645 9.286,-6.965 2.09,-2.323 5.571,-3.947 7.661,-0.696 2.089,3.248 6.267,9.053 8.124,8.357 1.857,-0.696 2.321,-3.251 2.554,-6.037 0.232,-2.785 1.856,-8.822 5.571,-4.179 3.715,4.644 9.054,13.464 10.679,13.464 1.626,0 4.642,-0.694 4.178,-5.338 -0.464,-4.643 -2.089,-13.232 0,-13.466 2.089,-0.231 2.565,0.476 4.643,6.502 2.322,6.731 13.697,9.285 15.554,9.75 1.856,0.462 6.035,0.232 6.035,-3.947 0,-4.179 3.673,-10.553 10.078,-1.099"
       style="fill:none;stroke:#231f20;stroke-width:0.5;stroke-linecap:round;stroke-linejoin:round;stroke-miterlimit:4;stroke-dasharray:2.8, 1.8;stroke-dashoffset:0;stroke-opacity:1"
       id="path804" />
    <path
       d="m 621.696,496.841 c 3.503,-6.034 11.86,-17.408 20.914,-23.675 9.054,-6.269 23.213,-15.788 25.999,-20.663 2.785,-4.875 3.251,-15.784 0.232,-19.963 -3.018,-4.177 -5.803,-6.036 -12.768,-4.177 -6.964,1.854 -26.928,9.053 -32.733,10.908 -5.803,1.858 -15.786,8.126 -17.41,16.019 -1.624,7.892 -1.162,25.071 13.233,33.428"
       style="fill:none;stroke:#231f20;stroke-width:0.5;stroke-linecap:round;stroke-linejoin:round;stroke-miterlimit:4;stroke-dasharray:2.8, 1.8;stroke-dashoffset:0;stroke-opacity:1"
       id="path806" />
    <path
       d="m 623.069,486.702 c 1.665,-3.323 3.292,-10.055 3.522,-13.536"
       style="fill:none;stroke:#231f20;stroke-width:0.5;stroke-linecap:round;stroke-linejoin:round;stroke-miterlimit:4;stroke-dasharray:2.8, 1.8;stroke-dashoffset:0;stroke-opacity:1"
       id="path808" />
    <path
       d="m 624.922,447.659 c 0.741,-2.119 0.442,-6.269 -1.582,-8.388"
       style="fill:none;stroke:#231f20;stroke-width:0.5;stroke-linecap:round;stroke-linejoin:round;stroke-miterlimit:4;stroke-dasharray:2.8, 1.8;stroke-dashoffset:0;stroke-opacity:1"
       id="path810" />
    <path
       d="m 802.397,496.205 c 1.154,3.77 19.195,6.441 19.147,-1.9"
       style="fill:none;stroke:#231f20;stroke-width:0.5;stroke-linecap:round;stroke-linejoin:round;stroke-miterlimit:4;stroke-dasharray:2.8, 1.8;stroke-dashoffset:0;stroke-opacity:1"
       id="path812" />
    <path
       d="m 534.89,647.204 c 0.005,2.854 -8.225,7.169 -11.423,1.065"
       style="fill:none;stroke:#231f20;stroke-width:0.5;stroke-linecap:round;stroke-linejoin:round;stroke-miterlimit:4;stroke-dasharray:2.8, 1.8;stroke-dashoffset:0;stroke-opacity:1"
       id="path814" />
    <path
       d="m 540.002,754.754 c 0,0 -66.803,-44.673 -80.294,-52.045"
       style="fill:none;stroke:#231f20;stroke-width:0.5;stroke-linecap:round;stroke-linejoin:round;stroke-miterlimit:4;stroke-dasharray:2.8, 1.8;stroke-dashoffset:0;stroke-opacity:1"
       id="path816" />
    <path
       d="m 501.493,818.126 c 0,0 -42.601,-101.797 -48.01,-111.834"
       style="fill:none;stroke:#231f20;stroke-width:0.5;stroke-linecap:round;stroke-linejoin:round;stroke-miterlimit:4;stroke-dasharray:2.8, 1.8;stroke-dashoffset:0;stroke-opacity:1"
       id="path818" />
    <path
       d="m 439.735,832.327 c 0.678,-17.331 -1.415,-112.35 -1.413,-123.863"
       style="fill:none;stroke:#231f20;stroke-width:0.5;stroke-linecap:round;stroke-linejoin:round;stroke-miterlimit:4;stroke-dasharray:2.8, 1.8;stroke-dashoffset:0;stroke-opacity:1"
       id="path820" />
    <path
       d="m 525.058,620.831 c 7.343,-9.959 -0.029,-18.942 -0.029,-25.558 0,-6.616 9.401,-9.751 14.973,-9.751 5.571,0 14.973,3.135 14.973,9.751 0,6.616 -7.372,15.599 -0.03,25.558"
       style="fill:none;stroke:#231f20;stroke-width:0.5;stroke-linecap:round;stroke-linejoin:round;stroke-miterlimit:4;stroke-dasharray:2.8, 1.8;stroke-dashoffset:0;stroke-opacity:1"
       id="path822" />
    <path
       d="m 525.058,620.831 c 2.176,-4.665 2.756,-10.934 -7.342,-14.067 -10.098,-3.134 -24.653,1.289 -49.028,-10.898"
       style="fill:none;stroke:#231f20;stroke-width:0.5;stroke-linecap:round;stroke-linejoin:round;stroke-miterlimit:4;stroke-dasharray:2.8, 1.8;stroke-dashoffset:0;stroke-opacity:1"
       id="path824" />
    <path
       d="m 493.341,631.138 c -6.035,-5.455 -23.751,-26.257 -31.803,-53.741 -6.733,-22.982 2.089,-24.839 4.875,-26.697 2.786,-1.857 16.974,-13.23 19.513,-27.158 2.54,-13.931 0.218,-27.29 1.147,-32.165"
       style="fill:none;stroke:#231f20;stroke-width:0.5;stroke-linecap:round;stroke-linejoin:round;stroke-miterlimit:4;stroke-dasharray:2.8, 1.8;stroke-dashoffset:0;stroke-opacity:1"
       id="path826" />
    <path
       d="m 512.841,475.486 c -3.946,0 -15.091,3.018 -21.126,10.446 -6.035,7.43 -21.589,23.912 -28.553,26.93"
       style="fill:none;stroke:#231f20;stroke-width:0.5;stroke-linecap:round;stroke-linejoin:round;stroke-miterlimit:4;stroke-dasharray:2.8, 1.8;stroke-dashoffset:0;stroke-opacity:1"
       id="path828" />
    <path
       d="m 512.145,539.326 c -3.744,1.559 -14.828,-8.123 -15.54,-15.784 -0.711,-7.664 1.284,-17.196 6.486,-20.663 4.179,-2.786 6.5,0.233 6.5,4.875 0,5.128 0.929,11.84 2.09,16.947 1.16,5.106 3.249,13.465 0.464,14.625 z"
       style="fill:none;stroke:#231f20;stroke-width:0.5;stroke-linecap:round;stroke-linejoin:round;stroke-miterlimit:4;stroke-dasharray:2.8, 1.8;stroke-dashoffset:0;stroke-opacity:1"
       id="path830" />
    <path
       d="m 514.234,505.201 c -0.232,17.876 9.054,40.624 12.536,48.981 3.482,8.358 11.607,22.751 13.232,30.427 1.624,-7.676 9.75,-22.069 13.232,-30.427 3.482,-8.357 12.766,-31.105 12.536,-48.981"
       style="fill:none;stroke:#231f20;stroke-width:0.5;stroke-linecap:round;stroke-linejoin:round;stroke-miterlimit:4;stroke-dasharray:2.8, 1.8;stroke-dashoffset:0;stroke-opacity:1"
       id="path832" />
    <path
       d="m 514.234,505.201 c 2.554,-3.948 6.732,-3.019 7.892,0.231 1.161,3.251 9.984,25.537 12.304,31.572 2.32,6.036 3.483,13.015 5.572,13.015 2.089,0 3.25,-6.979 5.571,-13.015 2.321,-6.035 11.143,-28.321 12.304,-31.572 1.16,-3.25 5.338,-4.179 7.893,-0.231"
       style="fill:none;stroke:#231f20;stroke-width:0.5;stroke-linecap:round;stroke-linejoin:round;stroke-miterlimit:4;stroke-dasharray:2.8, 1.8;stroke-dashoffset:0;stroke-opacity:1"
       id="path834" />
    <path
       d="m 514.234,505.201 c 0.231,-2.785 0.232,-16.018 0,-19.5 -0.233,-3.483 -1.857,-9.983 -2.089,-16.483 -0.233,-6.5 -2.554,-33.426 -14.393,-51.302 -11.839,-17.876 -23.917,-33.404 -28.553,-39.93 -6.269,-8.82 -1.351,-22.874 11.142,-20.197 9.75,2.089 21.823,13.232 28.554,19.269 6.731,6.036 15.321,20.196 19.036,27.857 3.714,7.661 8.589,20.907 12.071,20.907 3.482,0 8.357,-13.246 12.071,-20.907 3.714,-7.661 12.303,-21.821 19.036,-27.857 6.731,-6.037 18.803,-17.18 28.554,-19.269 12.493,-2.677 17.41,11.377 11.142,20.197 -4.637,6.526 -16.715,22.054 -28.553,39.93 -11.84,17.876 -14.161,44.802 -14.393,51.302 -0.233,6.5 -1.857,13 -2.089,16.483 -0.233,3.482 -0.231,16.715 0,19.5"
       style="fill:none;stroke:#231f20;stroke-width:0.5;stroke-linecap:round;stroke-linejoin:round;stroke-miterlimit:4;stroke-dasharray:2.8, 1.8;stroke-dashoffset:0;stroke-opacity:1"
       id="path836" />
    <path
       d="m 377.27,828.559 c 0,0 21.027,-123.001 22.42,-128.572"
       style="fill:none;stroke:#231f20;stroke-width:0.5;stroke-linecap:round;stroke-linejoin:round;stroke-miterlimit:4;stroke-dasharray:2.8, 1.8;stroke-dashoffset:0;stroke-opacity:1"
       id="path838" />
    <path
       d="m 231.891,748.344 c 0,0 77.941,-76.465 89.083,-86.215"
       style="fill:none;stroke:#231f20;stroke-width:0.5;stroke-linecap:round;stroke-linejoin:round;stroke-miterlimit:4;stroke-dasharray:2.8, 1.8;stroke-dashoffset:0;stroke-opacity:1"
       id="path840" />
    <path
       d="m 216.971,732.968 c 0,0 72.49,-64.483 93.732,-81.198"
       style="fill:none;stroke:#231f20;stroke-width:0.5;stroke-linecap:round;stroke-linejoin:round;stroke-miterlimit:4;stroke-dasharray:2.8, 1.8;stroke-dashoffset:0;stroke-opacity:1"
       id="path842" />
    <path
       d="m 275.358,587.262 c 0,0 -92.524,16.03 -115.506,20.905"
       style="fill:none;stroke:#231f20;stroke-width:0.5;stroke-linecap:round;stroke-linejoin:round;stroke-miterlimit:4;stroke-dasharray:2.8, 1.8;stroke-dashoffset:0;stroke-opacity:1"
       id="path844" />
    <path
       d="m 270.391,535.64 c -3.482,-9.054 -11.398,-27.77 -12.096,-43.788 -0.334,-7.68 1.575,-21.552 8.01,-27.857 6.985,-6.845 18.676,-5.278 21.938,9.401"
       style="fill:none;stroke:#231f20;stroke-width:0.5;stroke-linecap:round;stroke-linejoin:round;stroke-miterlimit:4;stroke-dasharray:2.8, 1.8;stroke-dashoffset:0;stroke-opacity:1"
       id="path846" />
    <path
       d="M 270.168,540.593 C 261.082,537.468 193.389,516.882 163.86,516.208"
       style="fill:none;stroke:#231f20;stroke-width:0.5;stroke-linecap:round;stroke-linejoin:round;stroke-miterlimit:4;stroke-dasharray:2.8, 1.8;stroke-dashoffset:0;stroke-opacity:1"
       id="path848" />
    <path
       d="M 264.001,518.389 C 243.67,509.611 213,495.671 172.969,491.499"
       style="fill:none;stroke:#231f20;stroke-width:0.5;stroke-linecap:round;stroke-linejoin:round;stroke-miterlimit:4;stroke-dasharray:2.8, 1.8;stroke-dashoffset:0;stroke-opacity:1"
       id="path850" />
    <path
       d="m 258.459,494.305 c -10.261,-6.284 -39.712,-21.733 -74.782,-24.977"
       style="fill:none;stroke:#231f20;stroke-width:0.5;stroke-linecap:round;stroke-linejoin:round;stroke-miterlimit:4;stroke-dasharray:2.8, 1.8;stroke-dashoffset:0;stroke-opacity:1"
       id="path852" />
    <path
       d="M 261.602,471.519 C 253.42,466.432 222.289,449.668 197.288,445.34"
       style="fill:none;stroke:#231f20;stroke-width:0.5;stroke-linecap:round;stroke-linejoin:round;stroke-miterlimit:4;stroke-dasharray:2.8, 1.8;stroke-dashoffset:0;stroke-opacity:1"
       id="path854" />
    <path
       d="m 276.362,460.145 c -5.53,-5.204 -12.843,-22.963 -6.227,-31.668 6.616,-8.706 27.741,-9.168 32.848,-6.616 4.235,2.119 4.335,4.619 5.38,7.404"
       style="fill:none;stroke:#231f20;stroke-width:0.5;stroke-linecap:round;stroke-linejoin:round;stroke-miterlimit:4;stroke-dasharray:2.8, 1.8;stroke-dashoffset:0;stroke-opacity:1"
       id="path856" />
    <path
       d="m 274.469,457.96 c -9.209,-7.198 -32.92,-23.145 -68.422,-35.542"
       style="fill:none;stroke:#231f20;stroke-width:0.5;stroke-linecap:round;stroke-linejoin:round;stroke-miterlimit:4;stroke-dasharray:2.8, 1.8;stroke-dashoffset:0;stroke-opacity:1"
       id="path858" />
    <path
       d="m 295.545,420.539 c 7.206,-4.481 23.455,-17.945 27.867,-30.714 3.572,-10.34 5.572,-12.071 9.75,-15.088 4.178,-3.02 15.088,-12.535 25.768,-12.77 10.679,-0.23 18.338,-2.551 24.839,-4.178 6.5,-1.624 12.303,-2.786 25.768,-2.786 13.464,0 26.435,4.789 41.859,0.895"
       style="fill:none;stroke:#231f20;stroke-width:0.5;stroke-linecap:round;stroke-linejoin:round;stroke-miterlimit:4;stroke-dasharray:2.8, 1.8;stroke-dashoffset:0;stroke-opacity:1"
       id="path860" />
    <path
       d="m 478.584,353.248 c -2.886,0.828 -8.921,2.683 -14.493,2.917 -5.572,0.231 -13.93,0 -16.251,-0.928 -2.32,-0.93 0.465,-2.554 2.555,-3.02 2.089,-0.462 8.124,-3.016 6.035,-9.053 -2.089,-6.034 -13.23,-9.519 -27.625,-9.981 -14.393,-0.466 -27.16,1.626 -34.125,5.34 -6.964,3.713 -14.392,7.43 -25.071,5.571 -10.679,-1.858 -16.483,-5.108 -19.036,-1.161 -2.553,3.947 -4.644,4.409 -7.197,4.875 -2.553,0.465 -3.018,1.858 -3.482,3.713 -0.464,1.858 -1.624,7.43 -5.339,9.75 -3.715,2.323 -9.326,1.107 -10.679,2.09 -2.554,1.857 -2.554,12.769 -4.178,16.714 -1.625,3.947 -6.267,11.142 -9.982,13.697 -3.715,2.555 -14.856,6.499 -25.768,6.268 -10.911,-0.231 -22.982,-1.393 -28.786,5.802 -5.804,7.198 -12.303,16.484 -15.089,19.735 -2.785,3.248 -7.6,7.533 -9.882,6.509 -2.282,-1.025 -3.013,-1.351 -3.878,-1.727 -0.865,-0.375 -0.865,-2.924 0.992,-5.479 1.857,-2.554 19.733,-26.002 25.071,-31.108 5.339,-5.106 13.698,-8.357 29.483,-6.732 15.785,1.626 24.142,-5.338 26.231,-13.929 2.09,-8.589 3.947,-22.983 12.304,-19.035 8.356,3.947 10.679,1.624 11.375,-2.555 0.696,-4.179 1.624,-7.66 6.731,-9.285 5.109,-1.624 7.663,-4.178 8.824,-6.733 1.16,-2.551 3.017,-4.872 5.571,-1.855 2.553,3.017 3.481,1.855 7.892,1.855 4.411,0 10.214,1.162 21.358,-2.089 11.143,-3.248 28.784,-8.357 45.499,-7.196 16.714,1.162 49.215,12.998 36.447,29.947"
       style="fill:none;stroke:#231f20;stroke-width:0.5;stroke-linecap:round;stroke-linejoin:round;stroke-miterlimit:4;stroke-dasharray:2.8, 1.8;stroke-dashoffset:0;stroke-opacity:1"
       id="path862" />
    <path
       d="m 333.162,374.737 c -2.554,-3.017 -18.715,-24.802 -14.349,-34.688"
       style="fill:none;stroke:#231f20;stroke-width:0.5;stroke-linecap:round;stroke-linejoin:round;stroke-miterlimit:4;stroke-dasharray:2.8, 1.8;stroke-dashoffset:0;stroke-opacity:1"
       id="path864" />
    <path
       d="m 440.645,343.164 c -1.645,-5.209 -16.019,0.465 -14.394,6.037 1.625,5.571 15.787,-1.624 14.394,-6.037 z"
       style="fill:none;stroke:#231f20;stroke-width:0.5;stroke-linecap:round;stroke-linejoin:round;stroke-miterlimit:4;stroke-dasharray:2.8, 1.8;stroke-dashoffset:0;stroke-opacity:1"
       id="path866" />
    <path
       d="m 406.054,355.034 c 2.787,-0.026 6.269,-3.047 5.805,-6.995 -0.464,-3.945 -3.25,-4.178 -7.429,-3.017 -4.179,1.162 -4.179,3.947 -3.715,5.34 0.464,1.393 1.858,4.698 5.339,4.672 z"
       style="fill:none;stroke:#231f20;stroke-width:0.5;stroke-linecap:round;stroke-linejoin:round;stroke-miterlimit:4;stroke-dasharray:2.8, 1.8;stroke-dashoffset:0;stroke-opacity:1"
       id="path868" />
    <path
       d="m 376.668,359.579 c 2.403,-0.327 4.781,-2.021 4.083,-4.342 -0.696,-2.323 -3.947,-1.393 -5.339,-0.93 -1.393,0.465 -3.248,2.089 -3.017,3.482 0.231,1.393 1.349,2.184 4.273,1.79 z"
       style="fill:none;stroke:#231f20;stroke-width:0.5;stroke-linecap:round;stroke-linejoin:round;stroke-miterlimit:4;stroke-dasharray:2.8, 1.8;stroke-dashoffset:0;stroke-opacity:1"
       id="path870" />
    <path
       d="m 364.304,361.666 c 2.763,-0.302 4.84,-4.804 2.286,-6.198 -2.552,-1.392 -8.82,0 -11.606,1.394 -2.785,1.392 -3.865,5.157 1.201,5.364"
       style="fill:none;stroke:#231f20;stroke-width:0.5;stroke-linecap:round;stroke-linejoin:round;stroke-miterlimit:4;stroke-dasharray:2.8, 1.8;stroke-dashoffset:0;stroke-opacity:1"
       id="path872" />
    <path
       d="m 491.074,486.713 c 1.613,-1.886 3.892,-6.352 3.66,-20.048 -0.233,-13.697 -4.643,-35.054 -5.339,-37.84 -0.696,-2.785 -6.965,-18.108 -16.947,-33.66 -9.983,-15.553 -22.094,-33.538 -31.36,-37.779"
       style="fill:none;stroke:#231f20;stroke-width:0.5;stroke-linecap:round;stroke-linejoin:round;stroke-miterlimit:4;stroke-dasharray:2.8, 1.8;stroke-dashoffset:0;stroke-opacity:1"
       id="path874" />
    <path
       d="m 469.199,377.986 c -3.251,-1.624 -7.973,-2.849 -14.549,-8.274"
       style="fill:none;stroke:#231f20;stroke-width:0.5;stroke-linecap:round;stroke-linejoin:round;stroke-miterlimit:4;stroke-dasharray:2.8, 1.8;stroke-dashoffset:0;stroke-opacity:1"
       id="path876" />
    <path
       d="m 493.698,453.679 c -0.466,-3.515 0.572,-14.873 1.732,-19.513 1.16,-4.645 3.526,-14.506 0.894,-18.394"
       style="fill:none;stroke:#231f20;stroke-width:0.5;stroke-linecap:round;stroke-linejoin:round;stroke-miterlimit:4;stroke-dasharray:2.8, 1.8;stroke-dashoffset:0;stroke-opacity:1"
       id="path878" />
    <path
       d="m 488.952,489.202 c 1.607,-1.874 3.691,-7.216 1.371,-14.412 -2.321,-7.197 -7.427,-21.587 -8.589,-24.838 -1.161,-3.251 -2.09,-5.806 -6.733,-8.591 -4.642,-2.786 -12.767,-7.427 -18.338,-2.09"
       style="fill:none;stroke:#231f20;stroke-width:0.5;stroke-linecap:round;stroke-linejoin:round;stroke-miterlimit:4;stroke-dasharray:2.8, 1.8;stroke-dashoffset:0;stroke-opacity:1"
       id="path880" />
    <path
       d="m 463.159,436.836 c -4.814,-1.918 -7.58,-7.704 -8.906,-9.578 -1.324,-1.875 -5.02,-6.878 -6.18,-11.056 -1.16,-4.178 -3.249,-11.056 -10.447,-18.948 -7.197,-7.891 -13.928,-11.142 -17.411,-12.766 -3.481,-1.627 -7.196,-4.645 -9.286,-6.965 -2.089,-2.323 -5.571,-3.947 -7.66,-0.696 -2.09,3.248 -6.268,9.053 -8.125,8.357 -1.856,-0.696 -2.32,-3.251 -2.553,-6.037 -0.232,-2.785 -1.856,-8.822 -5.571,-4.179 -3.715,4.644 -9.054,13.464 -10.68,13.464 -1.625,0 -4.641,-0.694 -4.177,-5.338 0.463,-4.643 2.088,-13.232 0,-13.466 -2.09,-0.231 -2.565,0.476 -4.643,6.502 -2.322,6.731 -13.697,9.285 -15.555,9.75 -1.856,0.462 -6.035,0.232 -6.035,-3.947 0,-4.179 -3.673,-10.553 -10.077,-1.099"
       style="fill:none;stroke:#231f20;stroke-width:0.5;stroke-linecap:round;stroke-linejoin:round;stroke-miterlimit:4;stroke-dasharray:2.8, 1.8;stroke-dashoffset:0;stroke-opacity:1"
       id="path882" />
    <path
       d="m 458.307,496.841 c -3.502,-6.034 -11.859,-17.408 -20.913,-23.675 -9.054,-6.269 -23.214,-15.788 -25.999,-20.663 -2.786,-4.875 -3.251,-15.784 -0.232,-19.963 3.017,-4.177 5.803,-6.036 12.767,-4.177 6.965,1.854 26.929,9.053 32.733,10.908 5.803,1.858 15.787,8.126 17.411,16.019 1.624,7.892 1.161,25.071 -13.233,33.428"
       style="fill:none;stroke:#231f20;stroke-width:0.5;stroke-linecap:round;stroke-linejoin:round;stroke-miterlimit:4;stroke-dasharray:2.8, 1.8;stroke-dashoffset:0;stroke-opacity:1"
       id="path884" />
    <path
       d="m 456.935,486.702 c -1.665,-3.323 -3.292,-10.055 -3.523,-13.536"
       style="fill:none;stroke:#231f20;stroke-width:0.5;stroke-linecap:round;stroke-linejoin:round;stroke-miterlimit:4;stroke-dasharray:2.8, 1.8;stroke-dashoffset:0;stroke-opacity:1"
       id="path886" />
    <path
       d="m 455.081,447.659 c -0.74,-2.119 -0.441,-6.269 1.582,-8.388"
       style="fill:none;stroke:#231f20;stroke-width:0.5;stroke-linecap:round;stroke-linejoin:round;stroke-miterlimit:4;stroke-dasharray:2.8, 1.8;stroke-dashoffset:0;stroke-opacity:1"
       id="path888" />
    <path
       d="m 277.607,496.205 c -1.155,3.77 -19.195,6.441 -19.148,-1.9"
       style="fill:none;stroke:#231f20;stroke-width:0.5;stroke-linecap:round;stroke-linejoin:round;stroke-miterlimit:4;stroke-dasharray:2.8, 1.8;stroke-dashoffset:0;stroke-opacity:1"
       id="path890" />
    <path
       d="m 335.838,380.746 c -0.435,-2.156 -1.296,-4.182 -2.676,-6.009"
       style="fill:none;stroke:#231f20;stroke-width:0.5;stroke-linecap:round;stroke-linejoin:round;stroke-miterlimit:4;stroke-dasharray:2.8, 1.8;stroke-dashoffset:0;stroke-opacity:1"
       id="path892" />
    <path
       d="m 744.113,381.017 c 0.416,-2.256 1.291,-4.377 2.728,-6.28"
       style="fill:none;stroke:#231f20;stroke-width:0.5;stroke-linecap:round;stroke-linejoin:round;stroke-miterlimit:4;stroke-dasharray:2.8, 1.8;stroke-dashoffset:0;stroke-opacity:1"
       id="path894" />
    <path
       d="m 753.458,424.996 c -0.739,0.739 -12.537,-2.786 -19.152,-12.188 -6.616,-9.401 -9.054,-15.321 -7.312,-16.366 1.74,-1.044 8.356,4.179 13.231,10.447 4.875,6.268 14.277,17.063 13.233,18.107 z"
       style="fill:none;stroke:#231f20;stroke-width:0.5;stroke-linecap:round;stroke-linejoin:round;stroke-miterlimit:4;stroke-dasharray:2.8, 1.8;stroke-dashoffset:0;stroke-opacity:1"
       id="path896" />
    <path
       d="m 326.546,424.996 c 0.739,0.739 12.536,-2.786 19.152,-12.188 6.616,-9.401 9.053,-15.321 7.312,-16.366 -1.741,-1.044 -8.357,4.179 -13.232,10.447 -4.875,6.268 -14.277,17.063 -13.232,18.107 z"
       style="fill:none;stroke:#231f20;stroke-width:0.5;stroke-linecap:round;stroke-linejoin:round;stroke-miterlimit:4;stroke-dasharray:2.8, 1.8;stroke-dashoffset:0;stroke-opacity:1"
       id="path898" />
  </g>
</svg>
