<?xml version="1.0" encoding="UTF-8" standalone="no"?>
<!-- Created with Inkscape (http://www.inkscape.org/) -->

<svg
   version="1.1"
   id="svg2"
   width="1440"
   height="1344"
   viewBox="0 0 1440 1344"
   xmlns="http://www.w3.org/2000/svg"
   xmlns:svg="http://www.w3.org/2000/svg">
  <defs
     id="defs6" />
  <g
     id="g10">
    <path
       d="m 839.955,393.281 c 1.707,1.543 12.28,10.939 6.709,1.653 -5.572,-9.286 -13.323,-15.018 -14.858,-13.001 -1.536,2.017 5.925,9.338 8.149,11.348"
       style="fill:#ffffff;fill-opacity:1;fill-rule:nonzero;stroke:none;stroke-width:0.1"
       id="path670" />
    <path
       d="m 839.955,393.281 c 1.707,1.543 12.28,10.939 6.709,1.653 -5.572,-9.286 -13.323,-15.018 -14.858,-13.001 -1.536,2.017 5.925,9.338 8.149,11.348 z"
       style="fill:none;stroke:#231f20;stroke-width:0.5;stroke-linecap:round;stroke-linejoin:round;stroke-miterlimit:4;stroke-dasharray:none;stroke-opacity:1"
       id="path672" />
    <path
       d="m 886.886,477.646 c 0.885,2.148 3.092,7.494 3.888,9.407 0.796,1.912 4.175,3.058 2.781,-1.584 -1.392,-4.643 -2.321,-8.356 -4.178,-13.001 -1.857,-4.641 -3.773,-6.753 -6.036,-9.75 -1.397,-1.852 -3.189,-1.603 -1.471,2.631 1.718,4.235 5.016,12.297 5.016,12.297"
       style="fill:#ffffff;fill-opacity:1;fill-rule:nonzero;stroke:none;stroke-width:0.1"
       id="path674" />
    <path
       d="m 886.886,477.646 c 0.885,2.148 3.092,7.494 3.888,9.407 0.796,1.912 4.175,3.058 2.781,-1.584 -1.392,-4.643 -2.321,-8.356 -4.178,-13.001 -1.857,-4.641 -3.773,-6.753 -6.036,-9.75 -1.397,-1.852 -3.189,-1.603 -1.471,2.631 1.718,4.235 5.016,12.297 5.016,12.297 z"
       style="fill:none;stroke:#231f20;stroke-width:0.5;stroke-linecap:round;stroke-linejoin:round;stroke-miterlimit:4;stroke-dasharray:none;stroke-opacity:1"
       id="path676" />
    <path
       d="m 240.048,393.281 c -1.707,1.543 -12.28,10.939 -6.708,1.653 5.572,-9.286 13.322,-15.018 14.858,-13.001 1.535,2.017 -5.925,9.338 -8.15,11.348"
       style="fill:#ffffff;fill-opacity:1;fill-rule:nonzero;stroke:none;stroke-width:0.1"
       id="path678" />
    <path
       d="m 240.048,393.281 c -1.707,1.543 -12.28,10.939 -6.708,1.653 5.572,-9.286 13.322,-15.018 14.858,-13.001 1.535,2.017 -5.925,9.338 -8.15,11.348 z"
       style="fill:none;stroke:#231f20;stroke-width:0.5;stroke-linecap:round;stroke-linejoin:round;stroke-miterlimit:4;stroke-dasharray:none;stroke-opacity:1"
       id="path680" />
    <path
       d="m 193.117,477.646 c -0.884,2.148 -3.092,7.494 -3.887,9.407 -0.796,1.912 -4.175,3.058 -2.782,-1.584 1.392,-4.643 2.322,-8.356 4.178,-13.001 1.857,-4.641 3.774,-6.753 6.036,-9.75 1.398,-1.852 3.189,-1.603 1.471,2.631 -1.717,4.235 -5.016,12.297 -5.016,12.297"
       style="fill:#ffffff;fill-opacity:1;fill-rule:nonzero;stroke:none;stroke-width:0.1"
       id="path682" />
    <path
       d="m 193.117,477.646 c -0.884,2.148 -3.092,7.494 -3.887,9.407 -0.796,1.912 -4.175,3.058 -2.782,-1.584 1.392,-4.643 2.322,-8.356 4.178,-13.001 1.857,-4.641 3.774,-6.753 6.036,-9.75 1.398,-1.852 3.189,-1.603 1.471,2.631 -1.717,4.235 -5.016,12.297 -5.016,12.297 z"
       style="fill:none;stroke:#231f20;stroke-width:0.5;stroke-linecap:round;stroke-linejoin:round;stroke-miterlimit:4;stroke-dasharray:none;stroke-opacity:1"
       id="path684" />
    <path
       d="m 560.664,374.968 c 0,-1.282 -1.041,-2.321 -2.324,-2.321 -1.281,0 -2.32,1.039 -2.32,2.321 0,1.283 1.039,2.322 2.32,2.322 1.283,0 2.324,-1.039 2.324,-2.322"
       style="fill:#ffffff;fill-opacity:1;fill-rule:nonzero;stroke:none;stroke-width:0.1"
       id="path686" />
    <path
       d="m 560.664,374.968 c 0,-1.282 -1.041,-2.321 -2.324,-2.321 -1.281,0 -2.32,1.039 -2.32,2.321 0,1.283 1.039,2.322 2.32,2.322 1.283,0 2.324,-1.039 2.324,-2.322 z"
       style="fill:none;stroke:#231f20;stroke-width:0.5;stroke-linecap:butt;stroke-linejoin:miter;stroke-miterlimit:4;stroke-dasharray:none;stroke-opacity:1"
       id="path688" />
    <path
       d="m 540.002,410.255 c -5.34,-27.392 -38.304,-44.107 -48.983,-48.286 -10.679,-4.179 -16.249,-9.75 -22.286,-15.321 -6.036,-5.572 -23.679,-17.644 -34.821,-20.43 -11.143,-2.785 -32.963,-4.178 -45.964,-2.32 -13.001,1.858 -38.072,6.964 -45.5,9.285 -7.428,2.32 -24.608,10.215 -33.428,13.001 -8.821,2.785 -24.144,11.606 -30.18,16.714 -6.035,5.107 -17.177,11.606 -25.071,17.642 -7.893,6.036 -27.857,26.929 -34.357,35.75 -6.501,8.822 -7.429,16.25 -32.036,75.215 -24.608,58.964 -22.928,89.694 -20.142,115.229 2.785,25.536 11.32,54.235 19.678,73.271 8.357,19.037 25.841,49.797 57.602,81.22 38.97,38.554 70.447,52.978 105.362,62.416 33.808,9.14 83.804,11.608 114.448,8.358 30.067,-3.189 47.821,-13 59.428,-29.715 11.607,-16.714 16.25,-32.671 16.25,-41.029 0,8.358 4.642,24.315 16.248,41.029 11.609,16.715 29.363,26.526 59.43,29.715 30.643,3.25 80.639,0.782 114.447,-8.358 34.915,-9.438 66.392,-23.862 105.363,-62.416 31.76,-31.423 49.245,-62.183 57.601,-81.22 8.358,-19.036 16.893,-47.735 19.679,-73.271 2.786,-25.535 4.466,-56.265 -20.143,-115.229 -24.607,-58.965 -25.535,-66.393 -32.035,-75.215 -6.501,-8.821 -26.465,-29.714 -34.357,-35.75 -7.894,-6.036 -19.036,-12.535 -25.072,-17.642 -6.036,-5.108 -21.358,-13.929 -30.179,-16.714 -8.821,-2.786 -26.001,-10.681 -33.429,-13.001 -7.428,-2.321 -32.498,-7.427 -45.499,-9.285 -13.001,-1.858 -34.821,-0.465 -45.965,2.32 -11.142,2.786 -28.784,14.858 -34.821,20.43 -6.036,5.571 -11.606,11.142 -22.285,15.321 -10.68,4.179 -43.643,20.894 -48.983,48.286"
       style="fill:#ffffff;fill-opacity:1;fill-rule:nonzero;stroke:none;stroke-width:0.1"
       id="path690" />
    <path
       d="m 540.002,410.255 c -5.34,-27.392 -38.304,-44.107 -48.983,-48.286 -10.679,-4.179 -16.249,-9.75 -22.286,-15.321 -6.036,-5.572 -23.679,-17.644 -34.821,-20.43 -11.143,-2.785 -32.963,-4.178 -45.964,-2.32 -13.001,1.858 -38.072,6.964 -45.5,9.285 -7.428,2.32 -24.608,10.215 -33.428,13.001 -8.821,2.785 -24.144,11.606 -30.18,16.714 -6.035,5.107 -17.177,11.606 -25.071,17.642 -7.893,6.036 -27.857,26.929 -34.357,35.75 -6.501,8.822 -7.429,16.25 -32.036,75.215 -24.608,58.964 -22.928,89.694 -20.142,115.229 2.785,25.536 11.32,54.235 19.678,73.271 8.357,19.037 25.841,49.797 57.602,81.22 38.97,38.554 70.447,52.978 105.362,62.416 33.808,9.14 83.804,11.608 114.448,8.358 30.067,-3.189 47.821,-13 59.428,-29.715 11.607,-16.714 16.25,-32.671 16.25,-41.029 0,8.358 4.642,24.315 16.248,41.029 11.609,16.715 29.363,26.526 59.43,29.715 30.643,3.25 80.639,0.782 114.447,-8.358 34.915,-9.438 66.392,-23.862 105.363,-62.416 31.76,-31.423 49.245,-62.183 57.601,-81.22 8.358,-19.036 16.893,-47.735 19.679,-73.271 2.786,-25.535 4.466,-56.265 -20.143,-115.229 -24.607,-58.965 -25.535,-66.393 -32.035,-75.215 -6.501,-8.821 -26.465,-29.714 -34.357,-35.75 -7.894,-6.036 -19.036,-12.535 -25.072,-17.642 -6.036,-5.108 -21.358,-13.929 -30.179,-16.714 -8.821,-2.786 -26.001,-10.681 -33.429,-13.001 -7.428,-2.321 -32.498,-7.427 -45.499,-9.285 -13.001,-1.858 -34.821,-0.465 -45.965,2.32 -11.142,2.786 -28.784,14.858 -34.821,20.43 -6.036,5.571 -11.606,11.142 -22.285,15.321 -10.68,4.179 -43.643,20.894 -48.983,48.286 z"
       style="fill:none;stroke:#231f20;stroke-width:0.75;stroke-linecap:round;stroke-linejoin:round;stroke-miterlimit:4;stroke-dasharray:none;stroke-opacity:1"
       id="path692" />
    <path
       d="m 543.949,659.113 c 0,-2.18 -1.768,-3.947 -3.947,-3.947 -2.179,0 -3.948,1.767 -3.948,3.947 0,2.179 1.769,3.946 3.948,3.946 2.179,0 3.947,-1.767 3.947,-3.946"
       style="fill:#ffffff;fill-opacity:1;fill-rule:nonzero;stroke:none;stroke-width:0.1"
       id="path694" />
    <path
       d="m 543.949,659.113 c 0,-2.18 -1.768,-3.947 -3.947,-3.947 -2.179,0 -3.948,1.767 -3.948,3.947 0,2.179 1.769,3.946 3.948,3.946 2.179,0 3.947,-1.767 3.947,-3.946 z"
       style="fill:none;stroke:#231f20;stroke-width:0.5;stroke-linecap:butt;stroke-linejoin:miter;stroke-miterlimit:4;stroke-dasharray:none;stroke-opacity:1"
       id="path696" />
    <path
       d="m 519.34,374.968 c 0,-1.282 1.04,-2.321 2.323,-2.321 1.282,0 2.322,1.039 2.322,2.321 0,1.283 -1.04,2.322 -2.322,2.322 -1.283,0 -2.323,-1.039 -2.323,-2.322"
       style="fill:#ffffff;fill-opacity:1;fill-rule:nonzero;stroke:none;stroke-width:0.1"
       id="path698" />
    <path
       d="m 519.34,374.968 c 0,-1.282 1.04,-2.321 2.323,-2.321 1.282,0 2.322,1.039 2.322,2.321 0,1.283 -1.04,2.322 -2.322,2.322 -1.283,0 -2.323,-1.039 -2.323,-2.322 z"
       style="fill:none;stroke:#231f20;stroke-width:0.5;stroke-linecap:butt;stroke-linejoin:miter;stroke-miterlimit:4;stroke-dasharray:none;stroke-opacity:1"
       id="path700" />
    <path
       d="m 770.984,346.184 c 1.858,7.428 6.966,18.106 14.393,22.749 7.429,4.643 15.753,5.156 21.341,-1.832"
       style="fill:none;stroke:#231f20;stroke-width:0.5;stroke-linecap:butt;stroke-linejoin:miter;stroke-miterlimit:4;stroke-dasharray:none;stroke-opacity:1"
       id="path702" />
    <path
       d="m 664.943,432.736 c -0.492,-1.321 -2.058,-1.956 -3.497,-1.419 -1.44,0.538 -2.208,2.046 -1.715,3.365 0.493,1.323 2.059,1.957 3.498,1.419 1.439,-0.536 2.208,-2.043 1.714,-3.365 z"
       style="fill:none;stroke:#231f20;stroke-width:0.5;stroke-linecap:butt;stroke-linejoin:miter;stroke-miterlimit:4;stroke-dasharray:none;stroke-opacity:1"
       id="path704" />
    <path
       d="m 678.027,429.014 c -0.342,-1.236 -1.82,-1.906 -3.303,-1.496 -1.484,0.407 -2.409,1.742 -2.067,2.979 0.34,1.236 1.82,1.905 3.303,1.498 1.482,-0.411 2.409,-1.745 2.067,-2.981 z"
       style="fill:none;stroke:#231f20;stroke-width:0.5;stroke-linecap:butt;stroke-linejoin:miter;stroke-miterlimit:4;stroke-dasharray:none;stroke-opacity:1"
       id="path706" />
    <path
       d="m 721.77,418.381 c 0,-1.281 -1.247,-2.32 -2.786,-2.32 -1.538,0 -2.785,1.039 -2.785,2.32 0,1.282 1.247,2.321 2.785,2.321 1.539,0 2.786,-1.039 2.786,-2.321 z"
       style="fill:none;stroke:#231f20;stroke-width:0.5;stroke-linecap:butt;stroke-linejoin:miter;stroke-miterlimit:4;stroke-dasharray:none;stroke-opacity:1"
       id="path708" />
    <path
       d="m 541.743,652.728 c -0.697,1.045 0.696,6.965 7.661,5.572"
       style="fill:none;stroke:#231f20;stroke-width:0.75;stroke-linecap:round;stroke-linejoin:round;stroke-miterlimit:4;stroke-dasharray:none;stroke-opacity:1"
       id="path710" />
    <path
       d="m 589.1,637.755 c 3.404,2.212 13.929,10.098 19.849,15.322 5.919,5.223 17.759,16.017 20.544,19.5 2.786,3.482 9.053,12.536 21.241,13.58 0,0 2.09,0.697 2.09,-1.044 0,-1.741 -6.616,-0.697 -11.492,-4.179 -4.874,-3.482 -16.018,-16.366 -17.411,-24.027 -1.392,-7.66 -3.83,-16.714 -5.222,-21.589 -1.394,-4.875 -2.09,-18.455 -1.045,-25.071 1.045,-6.617 0.348,-29.599 -3.134,-40.742 0,0 -2.786,17.411 -7.661,25.768 -4.875,8.357 -14.277,28.554 -16.018,31.34 -1.741,2.785 -3.168,6.73 -3.946,8.125 -0.778,1.393 0.561,1.949 2.205,3.017"
       style="fill:#b2b1b1;fill-opacity:1;fill-rule:nonzero;stroke:none;stroke-width:0.1"
       id="path712" />
    <path
       d="m 589.912,635.434 c 1.898,1.578 4.412,3.482 8.59,6.732 4.178,3.25 13.464,11.143 14.858,12.072 1.392,0.928 6.033,4.178 6.499,3.714 0.465,-0.465 0.26,-4.412 -0.696,-8.822 -0.888,-4.09 -5.107,-18.338 -5.339,-23.446 -0.234,-5.107 2.089,-16.946 2.089,-21.59 0,-4.642 0.464,-22.286 -1.161,-27.857 0,0 -1.626,8.126 -3.018,11.839 -1.393,3.714 -7.428,15.09 -9.518,19.5 -2.089,4.412 -10.679,21.358 -11.607,22.983 -0.928,1.625 -2.259,3.576 -0.697,4.875"
       style="fill:#706d6e;fill-opacity:1;fill-rule:nonzero;stroke:none;stroke-width:0.1"
       id="path714" />
    <path
       d="m 589.912,635.434 c 1.898,1.578 4.412,3.482 8.59,6.732 4.178,3.25 13.464,11.143 14.858,12.072 1.392,0.928 6.033,4.178 6.499,3.714 0.465,-0.465 0.26,-4.412 -0.696,-8.822 -0.888,-4.09 -5.107,-18.338 -5.339,-23.446 -0.234,-5.107 2.089,-16.946 2.089,-21.59 0,-4.642 0.464,-22.286 -1.161,-27.857 0,0 -1.626,8.126 -3.018,11.839 -1.393,3.714 -7.428,15.09 -9.518,19.5 -2.089,4.412 -10.679,21.358 -11.607,22.983 -0.928,1.625 -2.259,3.576 -0.697,4.875 z"
       style="fill:none;stroke:#231f20;stroke-width:0.5;stroke-linecap:round;stroke-linejoin:round;stroke-miterlimit:4;stroke-dasharray:none;stroke-opacity:1"
       id="path716" />
    <path
       d="m 614.52,569.505 c 0,-4.527 0.696,-10.795 0.348,-13.928 -0.348,-3.134 -0.697,-14.278 -1.044,-16.018"
       style="fill:none;stroke:#231f20;stroke-width:0.5;stroke-linecap:butt;stroke-linejoin:miter;stroke-miterlimit:4;stroke-dasharray:none;stroke-opacity:1"
       id="path718" />
    <path
       d="m 613.824,539.559 c 1.76,0.22 0.696,-5.92 0.347,-8.357 -0.347,-2.438 -2.059,-11.841 -2.059,-16.02 0,-4.179 3.452,-29.249 3.801,-32.034 0.348,-2.786 -1.742,-3.134 -2.089,-0.349 -0.349,2.786 -3.967,27.802 -3.831,32.036 0.175,5.398 1.045,13.581 1.741,17.063 0.696,3.482 0.696,7.486 2.09,7.661"
       style="fill:#b2b1b1;fill-opacity:1;fill-rule:nonzero;stroke:none;stroke-width:0.1"
       id="path720" />
    <path
       d="m 613.824,539.559 c 1.76,0.22 0.696,-5.92 0.347,-8.357 -0.347,-2.438 -2.059,-11.841 -2.059,-16.02 0,-4.179 3.452,-29.249 3.801,-32.034 0.348,-2.786 -1.742,-3.134 -2.089,-0.349 -0.349,2.786 -3.967,27.802 -3.831,32.036 0.175,5.398 1.045,13.581 1.741,17.063 0.696,3.482 0.696,7.486 2.09,7.661 z"
       style="fill:none;stroke:#231f20;stroke-width:0.5;stroke-linecap:butt;stroke-linejoin:miter;stroke-miterlimit:4;stroke-dasharray:none;stroke-opacity:1"
       id="path722" />
    <path
       d="m 628.1,471.308 c 6.616,-6.268 13.58,-23.33 10.099,-26.464 -4.245,-3.821 -15.323,3.483 -19.153,9.75 -3.83,6.268 -7.981,18.847 -1.741,21.241 3.929,1.507 8.061,-1.935 10.795,-4.527 z"
       style="fill:none;stroke:#231f20;stroke-width:0.5;stroke-linecap:butt;stroke-linejoin:miter;stroke-miterlimit:4;stroke-dasharray:none;stroke-opacity:1"
       id="path724" />
    <path
       d="m 783.52,483.148 c -1.16,-4.527 -3.599,-24.724 -11.955,-35.866 -8.357,-11.143 -18.456,-26.116 -24.724,-36.911 -6.267,-10.794 -9.75,-21.589 -6.964,-25.072 2.786,-3.482 5.919,-6.964 5.919,-6.964"
       style="fill:none;stroke:#231f20;stroke-width:0.5;stroke-linecap:butt;stroke-linejoin:miter;stroke-miterlimit:4;stroke-dasharray:none;stroke-opacity:1"
       id="path726" />
    <path
       d="M 540.002,761.255 V 670.967"
       style="fill:none;stroke:#231f20;stroke-width:0.75;stroke-linecap:round;stroke-linejoin:round;stroke-miterlimit:4;stroke-dasharray:none;stroke-opacity:1"
       id="path728" />
    <path
       d="m 309.02,346.184 c -1.858,7.428 -6.966,18.106 -14.394,22.749 -7.428,4.643 -15.752,5.156 -21.34,-1.832"
       style="fill:none;stroke:#231f20;stroke-width:0.5;stroke-linecap:butt;stroke-linejoin:miter;stroke-miterlimit:4;stroke-dasharray:none;stroke-opacity:1"
       id="path730" />
    <path
       d="m 415.061,432.736 c 0.492,-1.321 2.058,-1.956 3.497,-1.419 1.439,0.538 2.207,2.046 1.715,3.365 -0.494,1.323 -2.06,1.957 -3.498,1.419 -1.44,-0.536 -2.208,-2.043 -1.714,-3.365 z"
       style="fill:none;stroke:#231f20;stroke-width:0.5;stroke-linecap:butt;stroke-linejoin:miter;stroke-miterlimit:4;stroke-dasharray:none;stroke-opacity:1"
       id="path732" />
    <path
       d="m 401.977,429.014 c 0.341,-1.236 1.819,-1.906 3.302,-1.496 1.484,0.407 2.409,1.742 2.068,2.979 -0.341,1.236 -1.82,1.905 -3.303,1.498 -1.482,-0.411 -2.409,-1.745 -2.067,-2.981 z"
       style="fill:none;stroke:#231f20;stroke-width:0.5;stroke-linecap:butt;stroke-linejoin:miter;stroke-miterlimit:4;stroke-dasharray:none;stroke-opacity:1"
       id="path734" />
    <path
       d="m 358.234,418.381 c 0,-1.281 1.247,-2.32 2.785,-2.32 1.539,0 2.786,1.039 2.786,2.32 0,1.282 -1.247,2.321 -2.786,2.321 -1.538,0 -2.785,-1.039 -2.785,-2.321 z"
       style="fill:none;stroke:#231f20;stroke-width:0.5;stroke-linecap:butt;stroke-linejoin:miter;stroke-miterlimit:4;stroke-dasharray:none;stroke-opacity:1"
       id="path736" />
    <path
       d="m 499.841,661.434 c 8.358,-4.179 35.285,-12.071 40.161,-12.071 4.874,0 31.803,7.892 40.16,12.071"
       style="fill:none;stroke:#231f20;stroke-width:0.5;stroke-linecap:butt;stroke-linejoin:miter;stroke-miterlimit:4;stroke-dasharray:none;stroke-opacity:1"
       id="path738" />
    <path
       d="m 452.948,722.255 c -5.091,-0.614 -22.749,-3.656 -26.464,-4.585 -3.715,-0.927 -17.644,-4.701 -17.644,-4.701 0,0 8.358,0.929 13.465,1.394 5.108,0.464 24.153,-0.75 30.643,-4.179 6.268,-3.31 10.032,-9.276 15.321,-19.965 2.028,-4.098 7.429,-17.642 31.572,-28.785 0,0 -13.001,9.75 -18.572,19.5 -5.571,9.75 -12.07,27.393 -13,30.643 -0.929,3.25 -3.196,12.14 -15.321,10.678 z"
       style="fill:none;stroke:#231f20;stroke-width:0.5;stroke-linecap:butt;stroke-linejoin:miter;stroke-miterlimit:4;stroke-dasharray:none;stroke-opacity:1"
       id="path740" />
    <path
       d="m 627.055,722.255 c 5.092,-0.614 22.75,-3.656 26.465,-4.585 3.715,-0.927 17.644,-4.701 17.644,-4.701 0,0 -8.358,0.929 -13.465,1.394 -5.109,0.464 -24.153,-0.75 -30.644,-4.179 -6.267,-3.31 -10.031,-9.276 -15.321,-19.965 -2.028,-4.098 -7.428,-17.642 -31.572,-28.785 0,0 13.001,9.75 18.573,19.5 5.571,9.75 12.07,27.393 12.999,30.643 0.929,3.25 3.196,12.14 15.321,10.678 z"
       style="fill:none;stroke:#231f20;stroke-width:0.5;stroke-linecap:butt;stroke-linejoin:miter;stroke-miterlimit:4;stroke-dasharray:none;stroke-opacity:1"
       id="path742" />
    <path
       d="m 538.26,652.728 c 0.698,1.045 -0.696,6.965 -7.66,5.572"
       style="fill:none;stroke:#231f20;stroke-width:0.75;stroke-linecap:round;stroke-linejoin:round;stroke-miterlimit:4;stroke-dasharray:none;stroke-opacity:1"
       id="path744" />
    <path
       d="m 490.904,637.755 c -3.405,2.212 -13.929,10.098 -19.849,15.322 -5.92,5.223 -17.759,16.017 -20.545,19.5 -2.785,3.482 -9.053,12.536 -21.241,13.58 0,0 -2.089,0.697 -2.089,-1.044 0,-1.741 6.616,-0.697 11.491,-4.179 4.875,-3.482 16.018,-16.366 17.411,-24.027 1.393,-7.66 3.831,-16.714 5.223,-21.589 1.393,-4.875 2.089,-18.455 1.045,-25.071 -1.045,-6.617 -0.349,-29.599 3.134,-40.742 0,0 2.785,17.411 7.66,25.768 4.875,8.357 14.277,28.554 16.019,31.34 1.741,2.785 3.168,6.73 3.945,8.125 0.778,1.393 -0.56,1.949 -2.204,3.017"
       style="fill:#b2b1b1;fill-opacity:1;fill-rule:nonzero;stroke:none;stroke-width:0.1"
       id="path746" />
    <path
       d="m 490.091,635.434 c -1.897,1.578 -4.411,3.482 -8.59,6.732 -4.178,3.25 -13.464,11.143 -14.857,12.072 -1.393,0.928 -6.034,4.178 -6.499,3.714 -0.465,-0.465 -0.26,-4.412 0.696,-8.822 0.887,-4.09 5.107,-18.338 5.339,-23.446 0.233,-5.107 -2.089,-16.946 -2.089,-21.59 0,-4.642 -0.465,-22.286 1.16,-27.857 0,0 1.625,8.126 3.018,11.839 1.394,3.714 7.429,15.09 9.518,19.5 2.089,4.412 10.68,21.358 11.608,22.983 0.928,1.625 2.258,3.576 0.696,4.875"
       style="fill:#706d6e;fill-opacity:1;fill-rule:nonzero;stroke:none;stroke-width:0.1"
       id="path748" />
    <path
       d="m 490.091,635.434 c -1.897,1.578 -4.411,3.482 -8.59,6.732 -4.178,3.25 -13.464,11.143 -14.857,12.072 -1.393,0.928 -6.034,4.178 -6.499,3.714 -0.465,-0.465 -0.26,-4.412 0.696,-8.822 0.887,-4.09 5.107,-18.338 5.339,-23.446 0.233,-5.107 -2.089,-16.946 -2.089,-21.59 0,-4.642 -0.465,-22.286 1.16,-27.857 0,0 1.625,8.126 3.018,11.839 1.394,3.714 7.429,15.09 9.518,19.5 2.089,4.412 10.68,21.358 11.608,22.983 0.928,1.625 2.258,3.576 0.696,4.875 z"
       style="fill:none;stroke:#231f20;stroke-width:0.5;stroke-linecap:round;stroke-linejoin:round;stroke-miterlimit:4;stroke-dasharray:none;stroke-opacity:1"
       id="path750" />
    <path
       d="m 465.484,569.505 c 0,-4.527 -0.696,-10.795 -0.349,-13.928 0.349,-3.134 0.697,-14.278 1.045,-16.018"
       style="fill:none;stroke:#231f20;stroke-width:0.5;stroke-linecap:butt;stroke-linejoin:miter;stroke-miterlimit:4;stroke-dasharray:none;stroke-opacity:1"
       id="path752" />
    <path
       d="m 466.18,539.559 c -1.762,0.22 -0.696,-5.92 -0.348,-8.357 0.348,-2.438 2.059,-11.841 2.059,-16.02 0,-4.179 -3.452,-29.249 -3.8,-32.034 -0.348,-2.786 1.741,-3.134 2.089,-0.349 0.349,2.786 3.967,27.802 3.83,32.036 -0.174,5.398 -1.044,13.581 -1.741,17.063 -0.696,3.482 -0.696,7.486 -2.089,7.661"
       style="fill:#b2b1b1;fill-opacity:1;fill-rule:nonzero;stroke:none;stroke-width:0.1"
       id="path754" />
    <path
       d="m 466.18,539.559 c -1.762,0.22 -0.696,-5.92 -0.348,-8.357 0.348,-2.438 2.059,-11.841 2.059,-16.02 0,-4.179 -3.452,-29.249 -3.8,-32.034 -0.348,-2.786 1.741,-3.134 2.089,-0.349 0.349,2.786 3.967,27.802 3.83,32.036 -0.174,5.398 -1.044,13.581 -1.741,17.063 -0.696,3.482 -0.696,7.486 -2.089,7.661 z"
       style="fill:none;stroke:#231f20;stroke-width:0.5;stroke-linecap:butt;stroke-linejoin:miter;stroke-miterlimit:4;stroke-dasharray:none;stroke-opacity:1"
       id="path756" />
    <path
       d="m 451.904,471.308 c -6.616,-6.268 -13.581,-23.33 -10.099,-26.464 4.245,-3.821 15.321,3.483 19.152,9.75 3.831,6.268 7.982,18.847 1.741,21.241 -3.928,1.507 -8.061,-1.935 -10.794,-4.527 z"
       style="fill:none;stroke:#231f20;stroke-width:0.5;stroke-linecap:butt;stroke-linejoin:miter;stroke-miterlimit:4;stroke-dasharray:none;stroke-opacity:1"
       id="path758" />
    <path
       d="m 296.484,483.148 c 1.16,-4.527 3.598,-24.724 11.955,-35.866 8.357,-11.143 18.455,-26.116 24.723,-36.911 6.268,-10.794 9.75,-21.589 6.964,-25.072 -2.786,-3.482 -5.919,-6.964 -5.919,-6.964"
       style="fill:none;stroke:#231f20;stroke-width:0.5;stroke-linecap:butt;stroke-linejoin:miter;stroke-miterlimit:4;stroke-dasharray:none;stroke-opacity:1"
       id="path760" />
    <path
       d="m 538.688,662.822 c 0,3.012 0.386,8.145 1.314,8.145 0.927,0 1.314,-5.133 1.314,-8.145"
       style="fill:none;stroke:#231f20;stroke-width:0.75;stroke-linecap:round;stroke-linejoin:round;stroke-miterlimit:4;stroke-dasharray:none;stroke-opacity:1"
       id="path762" />
    <path
       d="m 408.84,712.969 c -14.856,-4.177 -65.929,-16.249 -90.536,-41.321 -24.606,-25.071 -34.82,-59.428 -38.534,-77.071 -3.715,-17.644 -2.786,-40.392 -1.394,-51.073 1.394,-10.677 7.427,-34.821 10.678,-41.32 3.251,-6.501 6.966,-14.857 7.43,-19.036 0,0 -3.716,21.356 -6.037,28.786 -2.321,7.428 -6.036,20.893 -4.178,44.571 1.857,23.679 4.18,54.787 26.929,85.893 22.75,31.107 42.422,38.478 69.178,43.642 26.464,5.108 43.178,1.045 46.893,0.117 12.188,-1.044 18.456,-10.098 21.241,-13.58 2.786,-3.483 14.625,-14.277 20.545,-19.5 5.92,-5.224 16.444,-13.11 19.849,-15.322 7.079,-3.947 28.436,-10.446 33.545,-13.463 3.222,-1.905 12.071,-3.715 15.553,-3.715 3.482,0 12.33,1.81 15.552,3.715 5.11,3.017 26.466,9.516 33.546,13.463 3.404,2.212 13.929,10.098 19.849,15.322 5.919,5.223 17.759,16.017 20.544,19.5 2.786,3.482 9.053,12.536 21.241,13.58 3.715,0.928 20.43,4.991 46.893,-0.117 26.757,-5.164 46.429,-12.535 69.178,-43.642 22.75,-31.106 25.071,-62.214 26.93,-85.893 1.858,-23.678 -1.859,-37.143 -4.179,-44.571 -2.32,-7.43 -6.036,-28.786 -6.036,-28.786 0.464,4.179 4.178,12.535 7.429,19.036 3.251,6.499 9.285,30.643 10.677,41.32 1.394,10.681 2.323,33.429 -1.392,51.073 -3.715,17.643 -13.929,52 -38.535,77.071 -24.606,25.072 -75.68,37.144 -90.535,41.321"
       style="fill:none;stroke:#231f20;stroke-width:0.5;stroke-linecap:butt;stroke-linejoin:miter;stroke-miterlimit:4;stroke-dasharray:none;stroke-opacity:1"
       id="path764" />
    <path
       d="m 650.734,686.157 c 0,0 2.09,0.697 2.09,-1.044 0,-1.741 -6.616,-0.697 -11.492,-4.179 -4.874,-3.482 -16.018,-16.366 -17.411,-24.027 -1.392,-7.66 -3.83,-16.714 -5.222,-21.589 -1.394,-4.875 -2.09,-18.455 -1.045,-25.071 1.045,-6.617 0.348,-29.599 -3.134,-40.742 0,0 -2.786,17.411 -7.661,25.768 -4.875,8.357 -14.277,28.554 -16.018,31.34 -1.741,2.785 -3.168,6.73 -3.946,8.125 -0.778,1.393 0.561,1.949 2.205,3.017"
       style="fill:none;stroke:#231f20;stroke-width:0.5;stroke-linecap:butt;stroke-linejoin:miter;stroke-miterlimit:4;stroke-dasharray:none;stroke-opacity:1"
       id="path766" />
    <path
       d="m 429.269,686.157 c 0,0 -2.089,0.697 -2.089,-1.044 0,-1.741 6.616,-0.697 11.491,-4.179 4.875,-3.482 16.018,-16.366 17.411,-24.027 1.393,-7.66 3.831,-16.714 5.223,-21.589 1.393,-4.875 2.089,-18.455 1.045,-25.071 -1.045,-6.617 -0.349,-29.599 3.134,-40.742 0,0 2.785,17.411 7.66,25.768 4.875,8.357 14.277,28.554 16.019,31.34 1.741,2.785 3.168,6.73 3.945,8.125 0.778,1.393 -0.56,1.949 -2.204,3.017"
       style="fill:none;stroke:#231f20;stroke-width:0.5;stroke-linecap:butt;stroke-linejoin:miter;stroke-miterlimit:4;stroke-dasharray:none;stroke-opacity:1"
       id="path768" />
    <path
       d="m 555.554,624.292 c 0,-6.965 5.573,-11.144 10.216,-12.538 4.642,-1.392 12.071,-3.712 17.643,-6.035 5.572,-2.321 21.355,-11.606 26,-16.25"
       style="fill:none;stroke:#231f20;stroke-width:0.5;stroke-linecap:round;stroke-linejoin:round;stroke-miterlimit:4;stroke-dasharray:2.8, 1.8;stroke-dashoffset:0;stroke-opacity:1"
       id="path770" />
    <path
       d="m 614.389,547.905 c -4.048,0.707 -14.843,0.707 -17.976,-5.561 -3.134,-6.267 -11.143,-22.982 -16.367,-30.642 -5.222,-7.662 -8.357,-23.679 4.875,-22.286"
       style="fill:none;stroke:#231f20;stroke-width:0.5;stroke-linecap:round;stroke-linejoin:round;stroke-miterlimit:4;stroke-dasharray:2.8, 1.8;stroke-dashoffset:0;stroke-opacity:1"
       id="path772" />
    <path
       d="m 610.703,504.434 c -6.282,-0.741 -17.077,-7.357 -20.558,-9.795 -3.482,-2.437 -10.795,-10.795 -11.143,-16.715 -0.348,-5.919 0.348,-22.982 0,-26.464 -0.348,-3.482 -1.958,-33.072 2.437,-37.956"
       style="fill:none;stroke:#231f20;stroke-width:0.5;stroke-linecap:round;stroke-linejoin:round;stroke-miterlimit:4;stroke-dasharray:2.8, 1.8;stroke-dashoffset:0;stroke-opacity:1"
       id="path774" />
    <path
       d="m 579.002,451.46 c -0.269,-4.147 5.222,-17.566 11.49,-28.36 6.267,-10.795 15.671,-27.702 21.938,-35.015 6.269,-7.312 11.144,-12.884 10.446,-13.928 -0.696,-1.045 -5.891,-1.524 -13.044,6.376"
       style="fill:none;stroke:#231f20;stroke-width:0.5;stroke-linecap:round;stroke-linejoin:round;stroke-miterlimit:4;stroke-dasharray:2.8, 1.8;stroke-dashoffset:0;stroke-opacity:1"
       id="path776" />
    <path
       d="m 579.084,453.208 c -0.082,-1.748 2.355,-4.534 7.927,-7.668 5.571,-3.133 14.88,-11.542 17.759,-14.276 3.482,-3.308 15.849,-17.826 18.106,-23.331 2.787,-6.79 7.662,-13.929 12.188,-17.062 4.527,-3.134 11.144,-6.964 12.885,-7.661 1.741,-0.697 4.875,0.348 5.919,2.089 1.045,1.741 6.616,9.75 10.447,8.009 3.83,-1.741 3.83,-7.66 2.785,-11.142 -1.045,-3.483 -1.045,-11.143 3.134,-6.617 4.179,4.527 6.965,8.009 9.75,7.661 2.786,-0.348 6.268,0 6.965,-2.437 0.696,-2.438 2.089,-6.616 4.526,-1.394 2.438,5.224 4.875,10.795 9.402,11.144 4.527,0.348 12.536,0 13.232,-5.92 0.697,-5.92 2.09,-10.795 4.875,-10.446 2.786,0.347 3.482,2.089 2.437,6.267 -1.044,4.179 2.09,6.616 4.528,4.527 2.437,-2.089 11.142,-7.661 -1.045,-19.848"
       style="fill:none;stroke:#231f20;stroke-width:0.5;stroke-linecap:round;stroke-linejoin:round;stroke-miterlimit:4;stroke-dasharray:2.8, 1.8;stroke-dashoffset:0;stroke-opacity:1"
       id="path778" />
    <path
       d="m 613.225,503.053 c 6.866,-9.11 17.661,-21.995 34.375,-33.834 16.715,-11.84 24.375,-16.017 24.472,-25.31 0.07,-6.761 -2.882,-12.993 -14.373,-13.69 -13.596,-0.824 -29.965,3.969 -43.197,17.55"
       style="fill:none;stroke:#231f20;stroke-width:0.5;stroke-linecap:round;stroke-linejoin:round;stroke-miterlimit:4;stroke-dasharray:2.8, 1.8;stroke-dashoffset:0;stroke-opacity:1"
       id="path780" />
    <path
       d="m 617.305,475.835 c 0.697,5.223 -5.223,7.313 -5.571,3.483 -0.52,-5.72 -1.393,-11.144 -2.438,-15.67 -1.044,-4.527 -4.526,-16.715 0,-16.366 4.528,0.347 9.403,0.696 13.58,2.785"
       style="fill:none;stroke:#231f20;stroke-width:0.5;stroke-linecap:round;stroke-linejoin:round;stroke-miterlimit:4;stroke-dasharray:2.8, 1.8;stroke-dashoffset:0;stroke-opacity:1"
       id="path782" />
    <path
       d="m 552.866,542.339 c 0.007,-2.872 7.22,-14.645 8.029,-17.754 1.207,-4.65 3.686,-15.181 8.357,-17.411 5.108,-2.437 9.062,-1.84 8.589,3.134 -0.628,6.623 -5.107,23.331 -8.589,27.161 -3.482,3.83 -16.407,13.57 -16.386,4.87 z"
       style="fill:none;stroke:#231f20;stroke-width:0.5;stroke-linecap:round;stroke-linejoin:round;stroke-miterlimit:4;stroke-dasharray:2.8, 1.8;stroke-dashoffset:0;stroke-opacity:1"
       id="path784" />
    <path
       d="m 745.796,378.335 c 2.09,-3.482 8.358,-12.536 10.795,-15.669 2.438,-3.134 8.222,-12.042 8.116,-18.731"
       style="fill:none;stroke:#231f20;stroke-width:0.5;stroke-linecap:round;stroke-linejoin:round;stroke-miterlimit:4;stroke-dasharray:2.8, 1.8;stroke-dashoffset:0;stroke-opacity:1"
       id="path786" />
    <path
       d="m 791.862,504.276 c 4.078,0.461 17.658,-2.673 21.488,-14.512 3.831,-11.84 1.741,-21.59 -6.615,-26.812 -8.358,-5.224 -27.131,-6.208 -24.187,15.35"
       style="fill:none;stroke:#231f20;stroke-width:0.5;stroke-linecap:round;stroke-linejoin:round;stroke-miterlimit:4;stroke-dasharray:2.8, 1.8;stroke-dashoffset:0;stroke-opacity:1"
       id="path788" />
    <path
       d="m 801.829,545.173 c 5.602,-7.355 14.846,-25.579 8.657,-49.896"
       style="fill:none;stroke:#231f20;stroke-width:0.5;stroke-linecap:round;stroke-linejoin:round;stroke-miterlimit:4;stroke-dasharray:2.8, 1.8;stroke-dashoffset:0;stroke-opacity:1"
       id="path790" />
    <path
       d="m 771.565,447.282 c -0.349,-5.92 2.089,-13.233 6.267,-16.715 4.179,-3.482 8.358,-9.053 18.456,-6.615 10.098,2.437 9.053,9.401 6.964,16.017 -2.089,6.616 -5.498,18.351 -10.37,20.036"
       style="fill:none;stroke:#231f20;stroke-width:0.5;stroke-linecap:round;stroke-linejoin:round;stroke-miterlimit:4;stroke-dasharray:2.8, 1.8;stroke-dashoffset:0;stroke-opacity:1"
       id="path792" />
    <path
       d="m 798.332,453.528 c 11.537,-10.425 46.358,-27.05 66.207,-30.75"
       style="fill:none;stroke:#231f20;stroke-width:0.5;stroke-linecap:round;stroke-linejoin:round;stroke-miterlimit:4;stroke-dasharray:2.8, 1.8;stroke-dashoffset:0;stroke-opacity:1"
       id="path794" />
    <path
       d="m 813.065,469.715 c 11.08,-6.763 38.423,-20.341 60.269,-25.74"
       style="fill:none;stroke:#231f20;stroke-width:0.5;stroke-linecap:round;stroke-linejoin:round;stroke-miterlimit:4;stroke-dasharray:2.8, 1.8;stroke-dashoffset:0;stroke-opacity:1"
       id="path796" />
    <path
       d="m 811.363,494.009 c 5.469,-3.201 36.112,-20.611 69.889,-29.665"
       style="fill:none;stroke:#231f20;stroke-width:0.5;stroke-linecap:round;stroke-linejoin:round;stroke-miterlimit:4;stroke-dasharray:2.8, 1.8;stroke-dashoffset:0;stroke-opacity:1"
       id="path798" />
    <path
       d="m 812.344,516.203 c 14.406,-6.402 53.806,-21.526 78.43,-29.15"
       style="fill:none;stroke:#231f20;stroke-width:0.5;stroke-linecap:round;stroke-linejoin:round;stroke-miterlimit:4;stroke-dasharray:2.8, 1.8;stroke-dashoffset:0;stroke-opacity:1"
       id="path800" />
    <path
       d="m 805.414,539.598 c 15.185,-6.004 63.67,-21.781 94.469,-29.702"
       style="fill:none;stroke:#231f20;stroke-width:0.5;stroke-linecap:round;stroke-linejoin:round;stroke-miterlimit:4;stroke-dasharray:2.8, 1.8;stroke-dashoffset:0;stroke-opacity:1"
       id="path802" />
    <path
       d="m 274.589,539.598 c -15.184,-6.004 -63.67,-21.781 -94.468,-29.702"
       style="fill:none;stroke:#231f20;stroke-width:0.5;stroke-linecap:round;stroke-linejoin:round;stroke-miterlimit:4;stroke-dasharray:2.8, 1.8;stroke-dashoffset:0;stroke-opacity:1"
       id="path804" />
    <path
       d="M 800.234,594.577 912.77,606.734"
       style="fill:none;stroke:#231f20;stroke-width:0.5;stroke-linecap:round;stroke-linejoin:round;stroke-miterlimit:4;stroke-dasharray:2.8, 1.8;stroke-dashoffset:0;stroke-opacity:1"
       id="path806" />
    <path
       d="m 772.087,659.474 c 12.71,8.228 71.804,49.023 94.273,66.053"
       style="fill:none;stroke:#231f20;stroke-width:0.5;stroke-linecap:round;stroke-linejoin:round;stroke-miterlimit:4;stroke-dasharray:2.8, 1.8;stroke-dashoffset:0;stroke-opacity:1"
       id="path808" />
    <path
       d="m 761.699,671.648 c 11.259,7.894 79.49,59.023 91.877,70.065"
       style="fill:none;stroke:#231f20;stroke-width:0.5;stroke-linecap:round;stroke-linejoin:round;stroke-miterlimit:4;stroke-dasharray:2.8, 1.8;stroke-dashoffset:0;stroke-opacity:1"
       id="path810" />
    <path
       d="m 701.27,829.408 c 0,0 -17.388,-107.347 -19.337,-119.379"
       style="fill:none;stroke:#231f20;stroke-width:0.5;stroke-linecap:round;stroke-linejoin:round;stroke-miterlimit:4;stroke-dasharray:2.8, 1.8;stroke-dashoffset:0;stroke-opacity:1"
       id="path812" />
    <path
       d="m 378.733,829.408 c 0,0 17.388,-107.347 19.337,-119.379"
       style="fill:none;stroke:#231f20;stroke-width:0.5;stroke-linecap:round;stroke-linejoin:round;stroke-miterlimit:4;stroke-dasharray:2.8, 1.8;stroke-dashoffset:0;stroke-opacity:1"
       id="path814" />
    <path
       d="m 652.374,833.305 c 0,0 -6.52,-100.046 -7.214,-113.96"
       style="fill:none;stroke:#231f20;stroke-width:0.5;stroke-linecap:round;stroke-linejoin:round;stroke-miterlimit:4;stroke-dasharray:2.8, 1.8;stroke-dashoffset:0;stroke-opacity:1"
       id="path816" />
    <path
       d="m 582.732,824.542 c 4.619,-14.834 29.783,-85.323 36.705,-102.974"
       style="fill:none;stroke:#231f20;stroke-width:0.5;stroke-linecap:round;stroke-linejoin:round;stroke-miterlimit:4;stroke-dasharray:2.8, 1.8;stroke-dashoffset:0;stroke-opacity:1"
       id="path818" />
    <path
       d="m 540.002,757.542 c 17.062,-8.707 65.277,-32.903 75.643,-38.389"
       style="fill:none;stroke:#231f20;stroke-width:0.5;stroke-linecap:round;stroke-linejoin:round;stroke-miterlimit:4;stroke-dasharray:2.8, 1.8;stroke-dashoffset:0;stroke-opacity:1"
       id="path820" />
    <path
       d="m 753.458,424.996 c -0.739,0.739 -12.537,-2.786 -19.152,-12.188 -6.616,-9.401 -9.054,-15.321 -7.312,-16.366 1.74,-1.044 8.356,4.179 13.231,10.447 4.875,6.268 14.277,17.063 13.233,18.107 z"
       style="fill:none;stroke:#231f20;stroke-width:0.5;stroke-linecap:round;stroke-linejoin:round;stroke-miterlimit:4;stroke-dasharray:2.8, 1.8;stroke-dashoffset:0;stroke-opacity:1"
       id="path822" />
    <path
       d="m 784.827,425.047 c -5.253,-0.051 -17.441,-4.578 -24.753,-15.72 -7.313,-11.144 -9.403,-19.153 -10.099,-21.939 -0.696,-2.785 0,-6.964 -6.964,-10.446 -6.965,-3.482 -16.715,-10.794 -19.5,-12.884 -2.786,-2.089 -5.92,-6.268 -12.187,-4.875 -6.269,1.393 -18.456,2.09 -24.028,1.741 -5.571,-0.348 -15.669,1.045 -20.196,-1.045 -4.526,-2.089 -10.446,-4.526 -15.321,-1.392 -4.875,3.134 -11.143,1.741 -16.018,2.786 -4.875,1.044 -13.581,4.875 -19.5,1.044 -5.92,-3.83 -8.417,-8.771 -8.735,-12.22"
       style="fill:none;stroke:#231f20;stroke-width:0.5;stroke-linecap:round;stroke-linejoin:round;stroke-miterlimit:4;stroke-dasharray:2.8, 1.8;stroke-dashoffset:0;stroke-opacity:1"
       id="path824" />
    <path
       d="m 611.034,357.74 c 4.879,1.792 13.584,2.836 13.932,0.05 0.16,-1.28 -2.403,-3.734 -4.527,-6.616 -2.494,-3.388 -2.785,-7.661 -6.622,-6.706"
       style="fill:none;stroke:#231f20;stroke-width:0.5;stroke-linecap:round;stroke-linejoin:round;stroke-miterlimit:4;stroke-dasharray:2.8, 1.8;stroke-dashoffset:0;stroke-opacity:1"
       id="path826" />
    <path
       d="m 622.876,374.157 c 4.179,-3.483 15.219,-11.374 16.037,-13.278 1.026,-2.392 2.164,-10.907 2.767,-15.276 0.334,-2.415 0,-4.527 3.831,-5.571 4.891,-1.335 25.071,-5.92 39.348,-1.045 14.277,4.875 29.947,12.884 42.831,7.312 0,0 4.875,7.661 9.75,12.884 4.875,5.224 7.437,9.995 17.125,6.217 0,0 1.679,-0.297 2.026,8.757 0.349,9.053 9.403,22.285 11.143,24.722 1.741,2.438 7.661,9.75 19.848,5.224 12.188,-4.526 19.849,-9.75 29.25,0 9.403,9.75 11.84,22.634 12.884,25.071 1.045,2.438 2.24,4.77 4.086,3.968 1.848,-0.801 4.272,-1.182 3.227,-5.709 -1.065,-4.615 -3.134,-16.017 -12.188,-26.116 -9.053,-10.098 -14.972,-14.973 -27.856,-12.535 -12.885,2.437 -21.241,4.875 -26.116,-5.92 -4.875,-10.795 -4.528,-16.714 -4.179,-19.849 0.348,-3.134 -2.609,-8.313 -6.528,-5.723 -3.918,2.589 -3.222,1.197 -2.178,-1.241 1.045,-2.437 -1.74,-2.786 -3.83,-1.045 -2.089,1.742 -6.268,5.572 -7.313,0.697 -1.045,-4.875 -4.526,-9.402 -8.705,-10.098 -4.178,-0.696 -3.711,-8.431 -1.681,-12.747"
       style="fill:none;stroke:#231f20;stroke-width:0.5;stroke-linecap:round;stroke-linejoin:round;stroke-miterlimit:4;stroke-dasharray:2.8, 1.8;stroke-dashoffset:0;stroke-opacity:1"
       id="path828" />
    <path
       d="m 731.871,331.662 c -0.351,2.798 -1.047,7.325 -5.922,8.021 -4.875,0.696 -12.188,3.134 -21.59,-1.741 -9.401,-4.875 -20.196,-8.705 -38.304,-7.313 -18.106,1.394 -40.727,8.948 -49.628,14.208"
       style="fill:none;stroke:#231f20;stroke-width:0.5;stroke-linecap:round;stroke-linejoin:round;stroke-miterlimit:4;stroke-dasharray:2.8, 1.8;stroke-dashoffset:0;stroke-opacity:1"
       id="path830" />
    <path
       d="m 671.975,348.388 c 0,-2.437 6.965,-3.83 6.965,-0.348 0,3.483 -6.965,2.786 -6.965,0.348 z"
       style="fill:none;stroke:#231f20;stroke-width:0.5;stroke-linecap:round;stroke-linejoin:round;stroke-miterlimit:4;stroke-dasharray:2.8, 1.8;stroke-dashoffset:0;stroke-opacity:1"
       id="path832" />
    <path
       d="m 646.555,344.79 c 1.916,-1.798 3.135,-1.624 5.92,0.813 2.786,2.437 5.571,6.964 3.134,8.357 -2.438,1.393 -6.616,2.089 -8.705,-1.044 -2.089,-3.134 -2.874,-5.751 -0.349,-8.126 z"
       style="fill:none;stroke:#231f20;stroke-width:0.5;stroke-linecap:round;stroke-linejoin:round;stroke-miterlimit:4;stroke-dasharray:2.8, 1.8;stroke-dashoffset:0;stroke-opacity:1"
       id="path834" />
    <path
       d="m 697.857,360.782 c -1.389,0.074 -3.016,-2.759 0.695,-2.24 2.083,0.292 5.807,-0.288 7.897,-0.984 2.089,-0.696 5.803,-1.393 7.196,-1.16 1.394,0.232 2.979,1.835 0.224,2.516"
       style="fill:none;stroke:#231f20;stroke-width:0.5;stroke-linecap:round;stroke-linejoin:round;stroke-miterlimit:4;stroke-dasharray:2.8, 1.8;stroke-dashoffset:0;stroke-opacity:1"
       id="path836" />
    <path
       d="m 524.449,624.292 c 0.928,-5.108 2.785,-7.894 3.714,-10.68 0.927,-2.785 0.927,-8.822 0,-18.107 -0.929,-9.287 7.429,-12.071 11.839,-12.071 4.41,0 12.767,2.784 11.839,12.071 -0.927,9.285 -0.927,15.322 0,18.107 0.928,2.786 2.785,5.572 3.713,10.68"
       style="fill:none;stroke:#231f20;stroke-width:0.5;stroke-linecap:round;stroke-linejoin:round;stroke-miterlimit:4;stroke-dasharray:2.8, 1.8;stroke-dashoffset:0;stroke-opacity:1"
       id="path838" />
    <path
       d="m 524.449,624.292 c 0,-6.965 -5.573,-11.144 -10.215,-12.538 -4.643,-1.392 -12.072,-3.712 -17.644,-6.035 -5.571,-2.321 -21.355,-11.606 -25.999,-16.25"
       style="fill:none;stroke:#231f20;stroke-width:0.5;stroke-linecap:round;stroke-linejoin:round;stroke-miterlimit:4;stroke-dasharray:2.8, 1.8;stroke-dashoffset:0;stroke-opacity:1"
       id="path840" />
    <path
       d="m 465.615,547.905 c 4.048,0.707 14.842,0.707 17.976,-5.561 3.134,-6.267 11.143,-22.982 16.366,-30.642 5.223,-7.662 8.357,-23.679 -4.875,-22.286"
       style="fill:none;stroke:#231f20;stroke-width:0.5;stroke-linecap:round;stroke-linejoin:round;stroke-miterlimit:4;stroke-dasharray:2.8, 1.8;stroke-dashoffset:0;stroke-opacity:1"
       id="path842" />
    <path
       d="m 520.85,505.085 c 1.045,22.634 10.098,51.188 12.535,59.197 2.438,8.008 4.875,13.094 6.617,13.094 1.741,0 4.178,-5.086 6.616,-13.094 2.437,-8.009 11.491,-36.563 12.536,-59.197"
       style="fill:none;stroke:#231f20;stroke-width:0.5;stroke-linecap:round;stroke-linejoin:round;stroke-miterlimit:4;stroke-dasharray:2.8, 1.8;stroke-dashoffset:0;stroke-opacity:1"
       id="path844" />
    <path
       d="m 520.85,505.085 c 2.785,18.108 16.366,46.662 19.152,46.662 2.786,0 16.366,-28.554 19.152,-46.662"
       style="fill:none;stroke:#231f20;stroke-width:0.5;stroke-linecap:round;stroke-linejoin:round;stroke-miterlimit:4;stroke-dasharray:2.8, 1.8;stroke-dashoffset:0;stroke-opacity:1"
       id="path846" />
    <path
       d="m 520.85,505.085 c 0,-6.267 -1.122,-30.966 -1.392,-39.348 -0.349,-10.795 -5.567,-34.861 -20.894,-52.233 -5.223,-5.919 -19.848,-21.588 -23.33,-25.767 -3.483,-4.179 -10.446,-13.929 -7.661,-19.849 2.786,-5.919 6.965,-8.705 16.715,-3.134 9.75,5.572 21.588,11.144 30.642,19.153 9.054,8.009 16.018,18.107 18.804,24.375 2.786,6.267 2.437,13.928 6.268,13.928 3.83,0 3.482,-7.661 6.268,-13.928 2.785,-6.268 9.75,-16.366 18.803,-24.375 9.053,-8.009 20.893,-13.581 30.643,-19.153 9.75,-5.571 13.929,-2.785 16.714,3.134 2.786,5.92 -4.178,15.67 -7.66,19.849 -3.482,4.179 -18.107,19.848 -23.331,25.767 -15.326,17.372 -20.544,41.438 -20.893,52.233 -0.27,8.382 -1.392,33.081 -1.392,39.348"
       style="fill:none;stroke:#231f20;stroke-width:0.5;stroke-linecap:round;stroke-linejoin:round;stroke-miterlimit:4;stroke-dasharray:2.8, 1.8;stroke-dashoffset:0;stroke-opacity:1"
       id="path848" />
    <path
       d="m 469.3,504.434 c 6.282,-0.741 17.076,-7.357 20.559,-9.795 3.482,-2.437 10.795,-10.795 11.142,-16.715 0.349,-5.919 -0.347,-22.982 0,-26.464 0.349,-3.482 1.959,-33.072 -2.437,-37.956"
       style="fill:none;stroke:#231f20;stroke-width:0.5;stroke-linecap:round;stroke-linejoin:round;stroke-miterlimit:4;stroke-dasharray:2.8, 1.8;stroke-dashoffset:0;stroke-opacity:1"
       id="path850" />
    <path
       d="m 501.001,451.46 c 0.27,-4.147 -5.221,-17.566 -11.489,-28.36 -6.268,-10.795 -15.671,-27.702 -21.939,-35.015 -6.268,-7.312 -11.143,-12.884 -10.447,-13.928 0.697,-1.045 5.893,-1.524 13.045,6.376"
       style="fill:none;stroke:#231f20;stroke-width:0.5;stroke-linecap:round;stroke-linejoin:round;stroke-miterlimit:4;stroke-dasharray:2.8, 1.8;stroke-dashoffset:0;stroke-opacity:1"
       id="path852" />
    <path
       d="m 500.92,453.208 c 0.081,-1.748 -2.356,-4.534 -7.927,-7.668 -5.572,-3.133 -14.881,-11.542 -17.759,-14.276 -3.483,-3.308 -15.85,-17.826 -18.108,-23.331 -2.785,-6.79 -7.66,-13.929 -12.187,-17.062 -4.526,-3.134 -11.143,-6.964 -12.884,-7.661 -1.741,-0.697 -4.875,0.348 -5.92,2.089 -1.045,1.741 -6.616,9.75 -10.446,8.009 -3.83,-1.741 -3.83,-7.66 -2.786,-11.142 1.045,-3.483 1.045,-11.143 -3.134,-6.617 -4.179,4.527 -6.964,8.009 -9.75,7.661 -2.785,-0.348 -6.268,0 -6.964,-2.437 -0.696,-2.438 -2.09,-6.616 -4.527,-1.394 -2.438,5.224 -4.875,10.795 -9.402,11.144 -4.526,0.348 -12.536,0 -13.232,-5.92 -0.696,-5.92 -2.089,-10.795 -4.875,-10.446 -2.785,0.347 -3.482,2.089 -2.437,6.267 1.044,4.179 -2.089,6.616 -4.527,4.527 -2.437,-2.089 -11.143,-7.661 1.044,-19.848"
       style="fill:none;stroke:#231f20;stroke-width:0.5;stroke-linecap:round;stroke-linejoin:round;stroke-miterlimit:4;stroke-dasharray:2.8, 1.8;stroke-dashoffset:0;stroke-opacity:1"
       id="path854" />
    <path
       d="m 466.779,503.053 c -6.866,-9.11 -17.661,-21.995 -34.376,-33.834 -16.714,-11.84 -24.375,-16.017 -24.471,-25.31 -0.071,-6.761 2.882,-12.993 14.373,-13.69 13.596,-0.824 29.964,3.969 43.196,17.55"
       style="fill:none;stroke:#231f20;stroke-width:0.5;stroke-linecap:round;stroke-linejoin:round;stroke-miterlimit:4;stroke-dasharray:2.8, 1.8;stroke-dashoffset:0;stroke-opacity:1"
       id="path856" />
    <path
       d="m 462.698,475.835 c -0.697,5.223 5.223,7.313 5.571,3.483 0.52,-5.72 1.394,-11.144 2.438,-15.67 1.044,-4.527 4.527,-16.715 0,-16.366 -4.527,0.347 -9.402,0.696 -13.581,2.785"
       style="fill:none;stroke:#231f20;stroke-width:0.5;stroke-linecap:round;stroke-linejoin:round;stroke-miterlimit:4;stroke-dasharray:2.8, 1.8;stroke-dashoffset:0;stroke-opacity:1"
       id="path858" />
    <path
       d="m 527.138,542.339 c -0.007,-2.872 -7.222,-14.645 -8.029,-17.754 -1.209,-4.65 -3.686,-15.181 -8.358,-17.411 -5.107,-2.437 -9.061,-1.84 -8.589,3.134 0.629,6.623 5.108,23.331 8.589,27.161 3.483,3.83 16.408,13.57 16.387,4.87 z"
       style="fill:none;stroke:#231f20;stroke-width:0.5;stroke-linecap:round;stroke-linejoin:round;stroke-miterlimit:4;stroke-dasharray:2.8, 1.8;stroke-dashoffset:0;stroke-opacity:1"
       id="path860" />
    <path
       d="m 334.207,378.335 c -2.089,-3.482 -8.358,-12.536 -10.795,-15.669 -2.438,-3.134 -8.221,-12.042 -8.115,-18.731"
       style="fill:none;stroke:#231f20;stroke-width:0.5;stroke-linecap:round;stroke-linejoin:round;stroke-miterlimit:4;stroke-dasharray:2.8, 1.8;stroke-dashoffset:0;stroke-opacity:1"
       id="path862" />
    <path
       d="m 288.142,504.276 c -4.078,0.461 -17.659,-2.673 -21.489,-14.512 -3.83,-11.84 -1.741,-21.59 6.616,-26.812 8.357,-5.224 27.131,-6.208 24.186,15.35"
       style="fill:none;stroke:#231f20;stroke-width:0.5;stroke-linecap:round;stroke-linejoin:round;stroke-miterlimit:4;stroke-dasharray:2.8, 1.8;stroke-dashoffset:0;stroke-opacity:1"
       id="path864" />
    <path
       d="m 278.175,545.173 c -5.602,-7.355 -14.846,-25.579 -8.657,-49.896"
       style="fill:none;stroke:#231f20;stroke-width:0.5;stroke-linecap:round;stroke-linejoin:round;stroke-miterlimit:4;stroke-dasharray:2.8, 1.8;stroke-dashoffset:0;stroke-opacity:1"
       id="path866" />
    <path
       d="m 308.439,447.282 c 0.348,-5.92 -2.09,-13.233 -6.268,-16.715 -4.178,-3.482 -8.357,-9.053 -18.456,-6.615 -10.097,2.437 -9.053,9.401 -6.964,16.017 2.089,6.616 5.499,18.351 10.371,20.036"
       style="fill:none;stroke:#231f20;stroke-width:0.5;stroke-linecap:round;stroke-linejoin:round;stroke-miterlimit:4;stroke-dasharray:2.8, 1.8;stroke-dashoffset:0;stroke-opacity:1"
       id="path868" />
    <path
       d="m 281.671,453.528 c -11.536,-10.425 -46.357,-27.05 -66.206,-30.75"
       style="fill:none;stroke:#231f20;stroke-width:0.5;stroke-linecap:round;stroke-linejoin:round;stroke-miterlimit:4;stroke-dasharray:2.8, 1.8;stroke-dashoffset:0;stroke-opacity:1"
       id="path870" />
    <path
       d="m 266.939,469.715 c -11.081,-6.763 -38.424,-20.341 -60.271,-25.74"
       style="fill:none;stroke:#231f20;stroke-width:0.5;stroke-linecap:round;stroke-linejoin:round;stroke-miterlimit:4;stroke-dasharray:2.8, 1.8;stroke-dashoffset:0;stroke-opacity:1"
       id="path872" />
    <path
       d="m 268.64,494.009 c -5.47,-3.201 -36.112,-20.611 -69.889,-29.665"
       style="fill:none;stroke:#231f20;stroke-width:0.5;stroke-linecap:round;stroke-linejoin:round;stroke-miterlimit:4;stroke-dasharray:2.8, 1.8;stroke-dashoffset:0;stroke-opacity:1"
       id="path874" />
    <path
       d="m 267.66,516.203 c -12.498,-6.591 -54.175,-22.807 -78.43,-29.15"
       style="fill:none;stroke:#231f20;stroke-width:0.5;stroke-linecap:round;stroke-linejoin:round;stroke-miterlimit:4;stroke-dasharray:2.8, 1.8;stroke-dashoffset:0;stroke-opacity:1"
       id="path876" />
    <path
       d="M 279.77,594.577 167.234,606.734"
       style="fill:none;stroke:#231f20;stroke-width:0.5;stroke-linecap:round;stroke-linejoin:round;stroke-miterlimit:4;stroke-dasharray:2.8, 1.8;stroke-dashoffset:0;stroke-opacity:1"
       id="path878" />
    <path
       d="m 307.916,659.474 c -12.709,8.228 -71.71,49.153 -94.178,66.184"
       style="fill:none;stroke:#231f20;stroke-width:0.5;stroke-linecap:round;stroke-linejoin:round;stroke-miterlimit:4;stroke-dasharray:2.8, 1.8;stroke-dashoffset:0;stroke-opacity:1"
       id="path880" />
    <path
       d="m 318.304,671.648 c -11.258,7.894 -79.379,59.155 -91.765,70.197"
       style="fill:none;stroke:#231f20;stroke-width:0.5;stroke-linecap:round;stroke-linejoin:round;stroke-miterlimit:4;stroke-dasharray:2.8, 1.8;stroke-dashoffset:0;stroke-opacity:1"
       id="path882" />
    <path
       d="m 427.63,833.291 c 0,0 6.52,-100.032 7.213,-113.946"
       style="fill:none;stroke:#231f20;stroke-width:0.5;stroke-linecap:round;stroke-linejoin:round;stroke-miterlimit:4;stroke-dasharray:2.8, 1.8;stroke-dashoffset:0;stroke-opacity:1"
       id="path884" />
    <path
       d="M 497.11,824.041 C 492.49,809.207 467.489,739.219 460.567,721.568"
       style="fill:none;stroke:#231f20;stroke-width:0.5;stroke-linecap:round;stroke-linejoin:round;stroke-miterlimit:4;stroke-dasharray:2.8, 1.8;stroke-dashoffset:0;stroke-opacity:1"
       id="path886" />
    <path
       d="m 540.002,757.542 c -17.063,-8.707 -65.277,-32.903 -75.643,-38.389"
       style="fill:none;stroke:#231f20;stroke-width:0.5;stroke-linecap:round;stroke-linejoin:round;stroke-miterlimit:4;stroke-dasharray:2.8, 1.8;stroke-dashoffset:0;stroke-opacity:1"
       id="path888" />
    <path
       d="m 326.546,424.996 c 0.739,0.739 12.536,-2.786 19.152,-12.188 6.616,-9.401 9.053,-15.321 7.312,-16.366 -1.741,-1.044 -8.357,4.179 -13.232,10.447 -4.875,6.268 -14.277,17.063 -13.232,18.107 z"
       style="fill:none;stroke:#231f20;stroke-width:0.5;stroke-linecap:round;stroke-linejoin:round;stroke-miterlimit:4;stroke-dasharray:2.8, 1.8;stroke-dashoffset:0;stroke-opacity:1"
       id="path890" />
    <path
       d="m 295.176,425.047 c 5.254,-0.051 17.442,-4.578 24.754,-15.72 7.313,-11.144 9.402,-19.153 10.098,-21.939 0.696,-2.785 0,-6.964 6.965,-10.446 6.964,-3.482 16.714,-10.794 19.5,-12.884 2.785,-2.089 5.919,-6.268 12.187,-4.875 6.268,1.393 18.455,2.09 24.027,1.741 5.571,-0.348 15.669,1.045 20.196,-1.045 4.527,-2.089 10.447,-4.526 15.322,-1.392 4.875,3.134 11.143,1.741 16.018,2.786 4.875,1.044 13.58,4.875 19.5,1.044 5.92,-3.83 8.417,-8.771 8.735,-12.22"
       style="fill:none;stroke:#231f20;stroke-width:0.5;stroke-linecap:round;stroke-linejoin:round;stroke-miterlimit:4;stroke-dasharray:2.8, 1.8;stroke-dashoffset:0;stroke-opacity:1"
       id="path892" />
    <path
       d="m 468.97,357.74 c -4.879,1.792 -13.585,2.836 -13.932,0.05 -0.162,-1.28 2.403,-3.734 4.526,-6.616 2.495,-3.388 2.786,-7.661 6.623,-6.706"
       style="fill:none;stroke:#231f20;stroke-width:0.5;stroke-linecap:round;stroke-linejoin:round;stroke-miterlimit:4;stroke-dasharray:2.8, 1.8;stroke-dashoffset:0;stroke-opacity:1"
       id="path894" />
    <path
       d="m 457.126,374.157 c -4.178,-3.483 -15.217,-11.374 -16.035,-13.278 -1.027,-2.392 -2.164,-10.907 -2.768,-15.276 -0.333,-2.415 0,-4.527 -3.83,-5.571 -4.892,-1.335 -25.072,-5.92 -39.349,-1.045 -14.276,4.875 -29.946,12.884 -42.83,7.312 0,0 -4.875,7.661 -9.75,12.884 -4.875,5.224 -7.438,9.995 -17.125,6.217 0,0 -1.679,-0.297 -2.027,8.757 -0.348,9.053 -9.402,22.285 -11.143,24.722 -1.741,2.438 -7.66,9.75 -19.849,5.224 -12.187,-4.526 -19.847,-9.75 -29.25,0 -9.401,9.75 -11.838,22.634 -12.883,25.071 -1.044,2.438 -2.239,4.77 -4.086,3.968 -1.847,-0.801 -4.271,-1.182 -3.227,-5.709 1.066,-4.615 3.134,-16.017 12.188,-26.116 9.053,-10.098 14.973,-14.973 27.857,-12.535 12.884,2.437 21.241,4.875 26.116,-5.92 4.875,-10.795 4.527,-16.714 4.179,-19.849 -0.349,-3.134 2.608,-8.313 6.527,-5.723 3.919,2.589 3.223,1.197 2.178,-1.241 -1.045,-2.437 1.741,-2.786 3.83,-1.045 2.09,1.742 6.269,5.572 7.313,0.697 1.045,-4.875 4.527,-9.402 8.706,-10.098 4.178,-0.696 3.71,-8.431 1.68,-12.747"
       style="fill:none;stroke:#231f20;stroke-width:0.5;stroke-linecap:round;stroke-linejoin:round;stroke-miterlimit:4;stroke-dasharray:2.8, 1.8;stroke-dashoffset:0;stroke-opacity:1"
       id="path896" />
    <path
       d="m 348.132,331.662 c 0.352,2.798 1.048,7.325 5.923,8.021 4.875,0.696 12.188,3.134 21.589,-1.741 9.402,-4.875 20.196,-8.705 38.304,-7.313 18.107,1.394 40.727,8.948 49.629,14.208"
       style="fill:none;stroke:#231f20;stroke-width:0.5;stroke-linecap:round;stroke-linejoin:round;stroke-miterlimit:4;stroke-dasharray:2.8, 1.8;stroke-dashoffset:0;stroke-opacity:1"
       id="path898" />
    <path
       d="m 408.028,348.388 c 0,-2.437 -6.964,-3.83 -6.964,-0.348 0,3.483 6.964,2.786 6.964,0.348 z"
       style="fill:none;stroke:#231f20;stroke-width:0.5;stroke-linecap:round;stroke-linejoin:round;stroke-miterlimit:4;stroke-dasharray:2.8, 1.8;stroke-dashoffset:0;stroke-opacity:1"
       id="path900" />
    <path
       d="m 433.448,344.79 c -1.915,-1.798 -3.134,-1.624 -5.92,0.813 -2.785,2.437 -5.571,6.964 -3.134,8.357 2.438,1.393 6.616,2.089 8.706,-1.044 2.089,-3.134 2.874,-5.751 0.348,-8.126 z"
       style="fill:none;stroke:#231f20;stroke-width:0.5;stroke-linecap:round;stroke-linejoin:round;stroke-miterlimit:4;stroke-dasharray:2.8, 1.8;stroke-dashoffset:0;stroke-opacity:1"
       id="path902" />
    <path
       d="m 382.146,360.782 c 1.389,0.074 3.016,-2.759 -0.695,-2.24 -2.082,0.292 -5.807,-0.288 -7.896,-0.984 -2.09,-0.696 -5.805,-1.393 -7.197,-1.16 -1.393,0.232 -2.979,1.835 -0.223,2.516"
       style="fill:none;stroke:#231f20;stroke-width:0.5;stroke-linecap:round;stroke-linejoin:round;stroke-miterlimit:4;stroke-dasharray:2.8, 1.8;stroke-dashoffset:0;stroke-opacity:1"
       id="path904" />
    <path
       d="m 544.646,650.085 c 0.579,2.643 5.908,6.806 12.123,3.158"
       style="fill:none;stroke:#231f20;stroke-width:0.5;stroke-linecap:round;stroke-linejoin:round;stroke-miterlimit:4;stroke-dasharray:2.8, 1.8;stroke-dashoffset:0;stroke-opacity:1"
       id="path906" />
    <path
       d="m 535.358,650.085 c -0.579,2.643 -5.909,6.806 -12.123,3.158"
       style="fill:none;stroke:#231f20;stroke-width:0.5;stroke-linecap:round;stroke-linejoin:round;stroke-miterlimit:4;stroke-dasharray:2.8, 1.8;stroke-dashoffset:0;stroke-opacity:1"
       id="path908" />
  </g>
</svg>
