<?xml version="1.0" encoding="UTF-8" standalone="no"?>
<!-- Created with Inkscape (http://www.inkscape.org/) -->

<svg
   version="1.1"
   id="svg2"
   width="1440"
   height="1344"
   viewBox="0 0 1440 1344"
   xmlns="http://www.w3.org/2000/svg"
   xmlns:svg="http://www.w3.org/2000/svg">
  <defs
     id="defs6" />
  <g
     id="g10">
    <path
       d="m 225.911,729.22 c 20.196,28.492 44.209,45.697 71.513,60.971 24.375,13.635 70.559,27.244 113.274,34.208 42.715,6.965 80.785,-4.643 103.535,-19.035 C 536.983,790.971 540,776.12 540,771.935 c 0,4.185 3.019,19.036 25.769,33.429 22.749,14.392 60.82,26 103.535,19.035 42.715,-6.964 90.846,-21.564 115.221,-35.198 27.306,-15.274 49.369,-31.489 69.565,-59.981 23.253,-32.804 41.787,-66.856 48.286,-110.5 6.5,-43.642 -0.928,-85.428 -7.892,-106.321 -6.965,-20.893 -19.966,-43.644 -23.215,-49.215 -3.25,-5.571 -9.285,-19.035 -12.07,-26.465 -2.786,-7.429 -7.429,-20.429 -8.358,-25.536 -0.929,-5.106 -6.965,-18.57 -20.893,-28.785 -13.928,-10.215 -33.428,-20.428 -45.5,-21.82 -12.072,-1.393 -23.679,-7.895 -29.25,-12.074 -5.572,-4.178 -22.287,-13.464 -48.286,-18.57 -25.999,-5.108 -58.964,-10.098 -85.777,7.661 -26.812,17.759 -35.227,28.45 -48.053,35.518 -17.063,9.402 -30.644,25.768 -33.082,43.527 -2.437,-17.759 -16.017,-34.125 -33.08,-43.527 -12.827,-7.068 -21.241,-17.759 -48.053,-35.518 -26.813,-17.759 -59.778,-12.769 -85.777,-7.661 -25.999,5.106 -42.714,14.392 -48.286,18.57 -5.571,4.179 -17.178,10.681 -29.25,12.074 -12.072,1.392 -31.572,11.605 -45.501,21.82 -13.928,10.215 -19.964,23.679 -20.892,28.785 -0.93,5.107 -5.572,18.107 -8.358,25.536 -2.786,7.43 -8.821,20.894 -12.07,26.465 -3.25,5.571 -16.251,28.322 -23.215,49.215 -6.965,20.893 -14.392,62.679 -7.893,106.321 6.499,43.644 24.607,78 48.286,110.5"
       style="fill:#ffffff;fill-opacity:1;fill-rule:nonzero;stroke:none;stroke-width:0.1"
       id="path670" />
    <path
       d="m 225.911,729.22 c 20.196,28.492 44.209,45.697 71.513,60.971 24.375,13.635 70.559,27.244 113.274,34.208 42.715,6.965 80.785,-4.643 103.535,-19.035 C 536.983,790.971 540,776.12 540,771.935 c 0,4.185 3.019,19.036 25.769,33.429 22.749,14.392 60.82,26 103.535,19.035 42.715,-6.964 90.846,-21.564 115.221,-35.198 27.306,-15.274 49.369,-31.489 69.565,-59.981 23.253,-32.804 41.787,-66.856 48.286,-110.5 6.5,-43.642 -0.928,-85.428 -7.892,-106.321 -6.965,-20.893 -19.966,-43.644 -23.215,-49.215 -3.25,-5.571 -9.285,-19.035 -12.07,-26.465 -2.786,-7.429 -7.429,-20.429 -8.358,-25.536 -0.929,-5.106 -6.965,-18.57 -20.893,-28.785 -13.928,-10.215 -33.428,-20.428 -45.5,-21.82 -12.072,-1.393 -23.679,-7.895 -29.25,-12.074 -5.572,-4.178 -22.287,-13.464 -48.286,-18.57 -25.999,-5.108 -58.964,-10.098 -85.777,7.661 -26.812,17.759 -35.227,28.45 -48.053,35.518 -17.063,9.402 -30.644,25.768 -33.082,43.527 -2.437,-17.759 -16.017,-34.125 -33.08,-43.527 -12.827,-7.068 -21.241,-17.759 -48.053,-35.518 -26.813,-17.759 -59.778,-12.769 -85.777,-7.661 -25.999,5.106 -42.714,14.392 -48.286,18.57 -5.571,4.179 -17.178,10.681 -29.25,12.074 -12.072,1.392 -31.572,11.605 -45.501,21.82 -13.928,10.215 -19.964,23.679 -20.892,28.785 -0.93,5.107 -5.572,18.107 -8.358,25.536 -2.786,7.43 -8.821,20.894 -12.07,26.465 -3.25,5.571 -16.251,28.322 -23.215,49.215 -6.965,20.893 -14.392,62.679 -7.893,106.321 6.499,43.644 24.607,78 48.286,110.5 z"
       style="fill:none;stroke:#231f20;stroke-width:0.75;stroke-linecap:round;stroke-linejoin:round;stroke-miterlimit:4;stroke-dasharray:none;stroke-opacity:1"
       id="path672" />
    <path
       d="m 642.724,672.925 c 1.045,-1.972 -0.797,-2.657 -4.526,-5.222 -5.236,-3.601 -9.038,-7.696 -13.581,-13.581 -4.308,-5.582 -8.009,-10.447 -10.794,-21.241 -2.786,-10.795 -1.741,-29.25 -1.394,-38.651 0.349,-9.402 1.045,-21.59 0,-26.465 -1.044,-4.875 -2.089,-42.482 -2.089,-51.535 0,-9.054 1.393,-18.456 2.089,-23.331 0.697,-4.875 2.438,-16.366 1.045,-16.714 -1.392,-0.349 -5.224,17.759 -5.224,24.723 0,6.965 -0.347,28.902 -1.74,39.697 -1.393,10.794 -6.268,35.866 -9.75,45.964 -3.482,10.098 -11.491,26.464 -13.232,29.946 -1.741,3.482 -1.741,5.919 0.348,7.66 2.089,1.741 22.982,14.278 32.036,24.028 9.053,9.75 16.035,17.692 18.455,20.196 3.367,3.482 7.703,5.763 8.357,4.526"
       style="fill:#b2b1b1;fill-opacity:1;fill-rule:nonzero;stroke:none;stroke-width:0.1"
       id="path674" />
    <path
       d="m 642.724,672.925 c 1.045,-1.972 -0.797,-2.657 -4.526,-5.222 -5.236,-3.601 -9.038,-7.696 -13.581,-13.581 -4.308,-5.582 -8.009,-10.447 -10.794,-21.241 -2.786,-10.795 -1.741,-29.25 -1.394,-38.651 0.349,-9.402 1.045,-21.59 0,-26.465 -1.044,-4.875 -2.089,-42.482 -2.089,-51.535 0,-9.054 1.393,-18.456 2.089,-23.331 0.697,-4.875 2.438,-16.366 1.045,-16.714 -1.392,-0.349 -5.224,17.759 -5.224,24.723 0,6.965 -0.347,28.902 -1.74,39.697 -1.393,10.794 -6.268,35.866 -9.75,45.964 -3.482,10.098 -11.491,26.464 -13.232,29.946 -1.741,3.482 -1.741,5.919 0.348,7.66 2.089,1.741 22.982,14.278 32.036,24.028 9.053,9.75 16.035,17.692 18.455,20.196 3.367,3.482 7.703,5.763 8.357,4.526 z"
       style="fill:none;stroke:#231f20;stroke-width:0.5;stroke-linecap:butt;stroke-linejoin:miter;stroke-miterlimit:4;stroke-dasharray:none;stroke-opacity:1"
       id="path676" />
    <path
       d="M 540,771.935 V 655.94"
       style="fill:none;stroke:#231f20;stroke-width:0.75;stroke-linecap:round;stroke-linejoin:round;stroke-miterlimit:4;stroke-dasharray:none;stroke-opacity:1"
       id="path678" />
    <path
       d="m 585.733,654.47 c 9.75,11.143 12.767,13.58 16.25,24.608 3.188,10.095 9.752,27.856 13.465,31.107 3.714,3.25 1.858,8.357 44.571,-3.715 0,0 -5.572,-0.465 -15.786,-0.928 -10.214,-0.464 -20.894,-1.857 -25.071,-9.286 -4.179,-7.428 -12.91,-22.571 -15.697,-27.214 -2.785,-4.641 -10.768,-12.25 -17.732,-14.572 z"
       style="fill:none;stroke:#231f20;stroke-width:0.5;stroke-linecap:butt;stroke-linejoin:miter;stroke-miterlimit:4;stroke-dasharray:none;stroke-opacity:1"
       id="path680" />
    <path
       d="m 585.617,622.783 c 1.715,1.087 24.027,15.67 28.206,20.196 0,0 -2.902,-10.446 -3.947,-18.455 -1.044,-8.009 0.116,-22.634 0.116,-28.901 0,-6.268 0.696,-17.063 0,-21.938 -0.697,-4.875 -1.393,-22.982 -2.089,-25.071 0,0 -2.786,14.625 -4.527,21.589 -1.741,6.964 -6.268,23.331 -8.357,28.206 -2.09,4.875 -7.987,17.246 -9.402,19.847 -0.832,1.53 -1.148,3.799 0,4.527"
       style="fill:#706d6e;fill-opacity:1;fill-rule:nonzero;stroke:none;stroke-width:0.1"
       id="path682" />
    <path
       d="m 585.617,622.783 c 1.715,1.087 24.027,15.67 28.206,20.196 0,0 -2.902,-10.446 -3.947,-18.455 -1.044,-8.009 0.116,-22.634 0.116,-28.901 0,-6.268 0.696,-17.063 0,-21.938 -0.697,-4.875 -1.393,-22.982 -2.089,-25.071 0,0 -2.786,14.625 -4.527,21.589 -1.741,6.964 -6.268,23.331 -8.357,28.206 -2.09,4.875 -7.987,17.246 -9.402,19.847 -0.832,1.53 -1.148,3.799 0,4.527 z"
       style="fill:none;stroke:#231f20;stroke-width:0.5;stroke-linecap:round;stroke-linejoin:round;stroke-miterlimit:4;stroke-dasharray:none;stroke-opacity:1"
       id="path684" />
    <path
       d="m 625.662,466.435 c -3.228,-2.261 -1.045,-10.446 3.83,-17.062 4.875,-6.617 13.928,-12.188 17.76,-9.403 3.83,2.786 -0.349,13.581 -3.135,17.759 -2.785,4.179 -11.491,13.581 -18.455,8.706 z"
       style="fill:none;stroke:#231f20;stroke-width:0.5;stroke-linecap:butt;stroke-linejoin:miter;stroke-miterlimit:4;stroke-dasharray:none;stroke-opacity:1"
       id="path686" />
    <path
       d="m 706.099,419.774 c 0,-1.153 -1.403,-2.089 -3.134,-2.089 -1.73,0 -3.133,0.936 -3.133,2.089 0,1.153 1.403,2.09 3.133,2.09 1.731,0 3.134,-0.937 3.134,-2.09 z"
       style="fill:none;stroke:#231f20;stroke-width:0.5;stroke-linecap:butt;stroke-linejoin:miter;stroke-miterlimit:4;stroke-dasharray:none;stroke-opacity:1"
       id="path688" />
    <path
       d="m 688.958,426.958 c 1.047,-1.376 1.154,-3.06 0.235,-3.759 -0.918,-0.699 -2.512,-0.147 -3.56,1.229 -1.049,1.377 -1.153,3.061 -0.235,3.76 0.918,0.696 2.513,0.147 3.56,-1.23 z"
       style="fill:none;stroke:#231f20;stroke-width:0.5;stroke-linecap:butt;stroke-linejoin:miter;stroke-miterlimit:4;stroke-dasharray:none;stroke-opacity:1"
       id="path690" />
    <path
       d="m 775.394,493.595 c -1.392,-8.009 -4.526,-25.071 -8.009,-34.472 -3.482,-9.403 -5.223,-14.278 -9.75,-20.197 -4.527,-5.92 -18.803,-26.116 -21.59,-29.947 -2.785,-3.83 -3.481,-11.491 -1.74,-14.276 1.74,-2.787 7.66,-10.795 7.66,-10.795"
       style="fill:none;stroke:#231f20;stroke-width:0.5;stroke-linecap:butt;stroke-linejoin:miter;stroke-miterlimit:4;stroke-dasharray:none;stroke-opacity:1"
       id="path692" />
    <path
       d="m 814.149,372.232 c -4.63,3.667 -28.312,14.823 -38.06,-13.39"
       style="fill:none;stroke:#231f20;stroke-width:0.5;stroke-linecap:butt;stroke-linejoin:miter;stroke-miterlimit:4;stroke-dasharray:none;stroke-opacity:1"
       id="path694" />
    <path
       d="M 542.322,646.054 C 540.436,644.416 540,643.104 540,641.006"
       style="fill:none;stroke:#231f20;stroke-width:0.75;stroke-linecap:round;stroke-linejoin:round;stroke-miterlimit:4;stroke-dasharray:none;stroke-opacity:1"
       id="path696" />
    <path
       d="m 437.278,672.925 c -1.045,-1.972 0.797,-2.657 4.526,-5.222 5.236,-3.601 9.037,-7.696 13.58,-13.581 4.308,-5.582 8.009,-10.447 10.795,-21.241 2.786,-10.795 1.741,-29.25 1.393,-38.651 -0.348,-9.402 -1.044,-21.59 0,-26.465 1.045,-4.875 2.09,-42.482 2.09,-51.535 0,-9.054 -1.394,-18.456 -2.09,-23.331 -0.696,-4.875 -2.438,-16.366 -1.044,-16.714 1.392,-0.349 5.222,17.759 5.222,24.723 0,6.965 0.349,28.902 1.742,39.697 1.392,10.794 6.267,35.866 9.75,45.964 3.482,10.098 11.491,26.464 13.232,29.946 1.741,3.482 1.741,5.919 -0.348,7.66 -2.089,1.741 -22.983,14.278 -32.036,24.028 -9.053,9.75 -16.036,17.692 -18.456,20.196 -3.366,3.482 -7.703,5.763 -8.356,4.526"
       style="fill:#b2b1b1;fill-opacity:1;fill-rule:nonzero;stroke:none;stroke-width:0.1"
       id="path698" />
    <path
       d="m 437.278,672.925 c -1.045,-1.972 0.797,-2.657 4.526,-5.222 5.236,-3.601 9.037,-7.696 13.58,-13.581 4.308,-5.582 8.009,-10.447 10.795,-21.241 2.786,-10.795 1.741,-29.25 1.393,-38.651 -0.348,-9.402 -1.044,-21.59 0,-26.465 1.045,-4.875 2.09,-42.482 2.09,-51.535 0,-9.054 -1.394,-18.456 -2.09,-23.331 -0.696,-4.875 -2.438,-16.366 -1.044,-16.714 1.392,-0.349 5.222,17.759 5.222,24.723 0,6.965 0.349,28.902 1.742,39.697 1.392,10.794 6.267,35.866 9.75,45.964 3.482,10.098 11.491,26.464 13.232,29.946 1.741,3.482 1.741,5.919 -0.348,7.66 -2.089,1.741 -22.983,14.278 -32.036,24.028 -9.053,9.75 -16.036,17.692 -18.456,20.196 -3.366,3.482 -7.703,5.763 -8.356,4.526 z"
       style="fill:none;stroke:#231f20;stroke-width:0.5;stroke-linecap:butt;stroke-linejoin:miter;stroke-miterlimit:4;stroke-dasharray:none;stroke-opacity:1"
       id="path700" />
    <path
       d="m 494.269,654.47 c 11.143,-9.75 37.605,-13.464 45.731,-13.464 8.126,0 34.589,3.714 45.733,13.464"
       style="fill:none;stroke:#231f20;stroke-width:0.5;stroke-linecap:butt;stroke-linejoin:miter;stroke-miterlimit:4;stroke-dasharray:none;stroke-opacity:1"
       id="path702" />
    <path
       d="m 494.269,654.47 c -9.75,11.143 -12.769,13.58 -16.251,24.608 -3.187,10.095 -9.751,27.856 -13.464,31.107 -3.714,3.25 -1.858,8.357 -44.572,-3.715 0,0 5.573,-0.465 15.787,-0.928 10.214,-0.464 20.893,-1.857 25.071,-9.286 4.179,-7.428 12.91,-22.571 15.696,-27.214 2.786,-4.641 10.769,-12.25 17.733,-14.572 z"
       style="fill:none;stroke:#231f20;stroke-width:0.5;stroke-linecap:butt;stroke-linejoin:miter;stroke-miterlimit:4;stroke-dasharray:none;stroke-opacity:1"
       id="path704" />
    <path
       d="m 494.384,622.783 c -1.715,1.087 -24.026,15.67 -28.205,20.196 0,0 2.902,-10.446 3.947,-18.455 1.043,-8.009 -0.117,-22.634 -0.117,-28.901 0,-6.268 -0.696,-17.063 0,-21.938 0.697,-4.875 1.394,-22.982 2.09,-25.071 0,0 2.785,14.625 4.527,21.589 1.741,6.964 6.267,23.331 8.357,28.206 2.089,4.875 7.987,17.246 9.401,19.847 0.833,1.53 1.149,3.799 0,4.527"
       style="fill:#706d6e;fill-opacity:1;fill-rule:nonzero;stroke:none;stroke-width:0.1"
       id="path706" />
    <path
       d="m 494.384,622.783 c -1.715,1.087 -24.026,15.67 -28.205,20.196 0,0 2.902,-10.446 3.947,-18.455 1.043,-8.009 -0.117,-22.634 -0.117,-28.901 0,-6.268 -0.696,-17.063 0,-21.938 0.697,-4.875 1.394,-22.982 2.09,-25.071 0,0 2.785,14.625 4.527,21.589 1.741,6.964 6.267,23.331 8.357,28.206 2.089,4.875 7.987,17.246 9.401,19.847 0.833,1.53 1.149,3.799 0,4.527 z"
       style="fill:none;stroke:#231f20;stroke-width:0.5;stroke-linecap:round;stroke-linejoin:round;stroke-miterlimit:4;stroke-dasharray:none;stroke-opacity:1"
       id="path708" />
    <path
       d="m 454.34,466.435 c 3.228,-2.261 1.044,-10.446 -3.831,-17.062 -4.875,-6.617 -13.928,-12.188 -17.759,-9.403 -3.83,2.786 0.349,13.581 3.134,17.759 2.786,4.179 11.492,13.581 18.456,8.706 z"
       style="fill:none;stroke:#231f20;stroke-width:0.5;stroke-linecap:butt;stroke-linejoin:miter;stroke-miterlimit:4;stroke-dasharray:none;stroke-opacity:1"
       id="path710" />
    <path
       d="m 373.902,419.774 c 0,-1.153 1.404,-2.089 3.135,-2.089 1.729,0 3.133,0.936 3.133,2.089 0,1.153 -1.404,2.09 -3.133,2.09 -1.731,0 -3.135,-0.937 -3.135,-2.09 z"
       style="fill:none;stroke:#231f20;stroke-width:0.5;stroke-linecap:butt;stroke-linejoin:miter;stroke-miterlimit:4;stroke-dasharray:none;stroke-opacity:1"
       id="path712" />
    <path
       d="m 391.043,426.958 c -1.046,-1.376 -1.153,-3.06 -0.235,-3.759 0.918,-0.699 2.513,-0.147 3.56,1.229 1.048,1.377 1.153,3.061 0.235,3.76 -0.918,0.696 -2.512,0.147 -3.56,-1.23 z"
       style="fill:none;stroke:#231f20;stroke-width:0.5;stroke-linecap:butt;stroke-linejoin:miter;stroke-miterlimit:4;stroke-dasharray:none;stroke-opacity:1"
       id="path714" />
    <path
       d="m 304.608,493.595 c 1.392,-8.009 4.526,-25.071 8.009,-34.472 3.481,-9.403 5.222,-14.278 9.75,-20.197 4.526,-5.92 18.803,-26.116 21.589,-29.947 2.786,-3.83 3.482,-11.491 1.741,-14.276 -1.741,-2.787 -7.661,-10.795 -7.661,-10.795"
       style="fill:none;stroke:#231f20;stroke-width:0.5;stroke-linecap:butt;stroke-linejoin:miter;stroke-miterlimit:4;stroke-dasharray:none;stroke-opacity:1"
       id="path716" />
    <path
       d="m 265.852,372.232 c 4.63,3.667 28.312,14.823 38.061,-13.39"
       style="fill:none;stroke:#231f20;stroke-width:0.5;stroke-linecap:butt;stroke-linejoin:miter;stroke-miterlimit:4;stroke-dasharray:none;stroke-opacity:1"
       id="path718" />
    <path
       d="m 538.143,650.369 c 1.161,0.696 1.857,4.657 1.857,5.571 0,-0.914 0.697,-4.875 1.859,-5.571"
       style="fill:none;stroke:#231f20;stroke-width:0.75;stroke-linecap:round;stroke-linejoin:round;stroke-miterlimit:4;stroke-dasharray:none;stroke-opacity:1"
       id="path720" />
    <path
       d="m 537.68,646.054 c 1.886,-1.638 2.32,-2.95 2.32,-5.048"
       style="fill:none;stroke:#231f20;stroke-width:0.75;stroke-linecap:round;stroke-linejoin:round;stroke-miterlimit:4;stroke-dasharray:none;stroke-opacity:1"
       id="path722" />
    <path
       d="m 419.982,706.47 c -8.124,-2.205 -47.473,-13.347 -63.839,-20.312 -16.366,-6.964 -33.776,-18.804 -43.179,-32.036 -9.401,-13.232 -22.982,-37.607 -26.464,-63.723 -3.482,-26.115 -4.178,-40.393 0,-55.018 4.179,-14.625 6.617,-20.545 10.447,-25.42 3.83,-4.875 6.616,-11.491 7.661,-16.366 0,0 -7.313,35.866 -9.402,53.625 -2.089,17.76 -2.438,42.135 5.571,63.027 8.009,20.893 22.286,39.697 39.696,52.232 17.411,12.536 55.296,18.77 73.822,18.107 9.75,-0.348 20.545,-6.616 22.983,-7.661 0.653,1.237 4.99,-1.044 8.356,-4.526 2.42,-2.504 9.403,-10.446 18.456,-20.196 9.053,-9.75 29.947,-22.287 32.036,-24.028 15.832,-10.707 37.956,-18.106 43.874,-18.106 5.92,0 28.042,7.399 43.876,18.106 2.089,1.741 22.982,14.278 32.036,24.028 9.053,9.75 16.035,17.692 18.455,20.196 3.367,3.482 7.703,5.763 8.357,4.526 2.438,1.045 13.233,7.313 22.983,7.661 18.526,0.663 56.411,-5.571 73.821,-18.107 17.411,-12.535 31.687,-31.339 39.696,-52.232 8.01,-20.892 7.661,-45.267 5.572,-63.027 -2.089,-17.759 -9.402,-53.625 -9.402,-53.625 1.045,4.875 3.83,11.491 7.661,16.366 3.83,4.875 6.268,10.795 10.447,25.42 4.178,14.625 3.482,28.903 0,55.018 -3.483,26.116 -17.063,50.491 -26.465,63.723 -9.402,13.232 -26.813,25.072 -43.179,32.036 -16.366,6.965 -55.714,18.107 -63.839,20.312"
       style="fill:none;stroke:#231f20;stroke-width:0.5;stroke-linecap:butt;stroke-linejoin:miter;stroke-miterlimit:4;stroke-dasharray:none;stroke-opacity:1"
       id="path724" />
    <path
       d="m 543.018,647.976 c 0,-1.666 -1.35,-3.018 -3.018,-3.018 -1.666,0 -3.016,1.352 -3.016,3.018 0,1.667 1.35,3.019 3.016,3.019 1.668,0 3.018,-1.352 3.018,-3.019"
       style="fill:#ffffff;fill-opacity:1;fill-rule:nonzero;stroke:none;stroke-width:0.1"
       id="path726" />
    <path
       d="m 543.018,647.976 c 0,-1.666 -1.35,-3.018 -3.018,-3.018 -1.666,0 -3.016,1.352 -3.016,3.018 0,1.667 1.35,3.019 3.016,3.019 1.668,0 3.018,-1.352 3.018,-3.019 z"
       style="fill:none;stroke:#231f20;stroke-width:0.5;stroke-linecap:butt;stroke-linejoin:miter;stroke-miterlimit:4;stroke-dasharray:none;stroke-opacity:1"
       id="path728" />
    <path
       d="m 551.144,388.572 c 0,-1.73 -1.404,-3.134 -3.135,-3.134 -1.729,0 -3.133,1.404 -3.133,3.134 0,1.73 1.404,3.134 3.133,3.134 1.731,0 3.135,-1.404 3.135,-3.134"
       style="fill:#ffffff;fill-opacity:1;fill-rule:nonzero;stroke:none;stroke-width:0.1"
       id="path730" />
    <path
       d="m 551.144,388.572 c 0,-1.73 -1.404,-3.134 -3.135,-3.134 -1.729,0 -3.133,1.404 -3.133,3.134 0,1.73 1.404,3.134 3.133,3.134 1.731,0 3.135,-1.404 3.135,-3.134 z"
       style="fill:none;stroke:#231f20;stroke-width:0.5;stroke-linecap:butt;stroke-linejoin:miter;stroke-miterlimit:4;stroke-dasharray:none;stroke-opacity:1"
       id="path732" />
    <path
       d="m 528.858,388.572 c 0,-1.73 1.403,-3.134 3.134,-3.134 1.73,0 3.134,1.404 3.134,3.134 0,1.73 -1.404,3.134 -3.134,3.134 -1.731,0 -3.134,-1.404 -3.134,-3.134"
       style="fill:#ffffff;fill-opacity:1;fill-rule:nonzero;stroke:none;stroke-width:0.1"
       id="path734" />
    <path
       d="m 528.858,388.572 c 0,-1.73 1.403,-3.134 3.134,-3.134 1.73,0 3.134,1.404 3.134,3.134 0,1.73 -1.404,3.134 -3.134,3.134 -1.731,0 -3.134,-1.404 -3.134,-3.134 z"
       style="fill:none;stroke:#231f20;stroke-width:0.5;stroke-linecap:butt;stroke-linejoin:miter;stroke-miterlimit:4;stroke-dasharray:none;stroke-opacity:1"
       id="path736" />
    <path
       d="m 902.549,524.818 c -0.378,-2.373 -1.53,-4.163 -2.576,-3.996 -1.044,0.166 -1.583,2.226 -1.205,4.6 0.378,2.373 1.53,4.163 2.576,3.996 1.045,-0.166 1.585,-2.226 1.205,-4.6"
       style="fill:#ffffff;fill-opacity:1;fill-rule:nonzero;stroke:none;stroke-width:0.1"
       id="path738" />
    <path
       d="m 902.549,524.818 c -0.378,-2.373 -1.53,-4.163 -2.576,-3.996 -1.044,0.166 -1.583,2.226 -1.205,4.6 0.378,2.373 1.53,4.163 2.576,3.996 1.045,-0.166 1.585,-2.226 1.205,-4.6 z"
       style="fill:none;stroke:#231f20;stroke-width:0.5;stroke-linecap:butt;stroke-linejoin:miter;stroke-miterlimit:4;stroke-dasharray:none;stroke-opacity:1"
       id="path740" />
    <path
       d="m 908.09,608.117 c 0.175,-2.396 -0.536,-4.404 -1.591,-4.479 -1.055,-0.077 -2.05,1.807 -2.226,4.203 -0.174,2.398 0.537,4.404 1.593,4.48 1.054,0.076 2.052,-1.807 2.224,-4.204"
       style="fill:#ffffff;fill-opacity:1;fill-rule:nonzero;stroke:none;stroke-width:0.1"
       id="path742" />
    <path
       d="m 908.09,608.117 c 0.175,-2.396 -0.536,-4.404 -1.591,-4.479 -1.055,-0.077 -2.05,1.807 -2.226,4.203 -0.174,2.398 0.537,4.404 1.593,4.48 1.054,0.076 2.052,-1.807 2.224,-4.204 z"
       style="fill:none;stroke:#231f20;stroke-width:0.5;stroke-linecap:butt;stroke-linejoin:miter;stroke-miterlimit:4;stroke-dasharray:none;stroke-opacity:1"
       id="path744" />
    <path
       d="m 177.452,524.818 c 0.378,-2.373 1.53,-4.163 2.576,-3.996 1.045,0.166 1.584,2.226 1.205,4.6 -0.378,2.373 -1.53,4.163 -2.576,3.996 -1.044,-0.166 -1.584,-2.226 -1.205,-4.6"
       style="fill:#ffffff;fill-opacity:1;fill-rule:nonzero;stroke:none;stroke-width:0.1"
       id="path746" />
    <path
       d="m 177.452,524.818 c 0.378,-2.373 1.53,-4.163 2.576,-3.996 1.045,0.166 1.584,2.226 1.205,4.6 -0.378,2.373 -1.53,4.163 -2.576,3.996 -1.044,-0.166 -1.584,-2.226 -1.205,-4.6 z"
       style="fill:none;stroke:#231f20;stroke-width:0.5;stroke-linecap:butt;stroke-linejoin:miter;stroke-miterlimit:4;stroke-dasharray:none;stroke-opacity:1"
       id="path748" />
    <path
       d="m 171.912,608.117 c -0.176,-2.396 0.536,-4.404 1.591,-4.479 1.054,-0.077 2.05,1.807 2.225,4.203 0.175,2.398 -0.537,4.404 -1.593,4.48 -1.053,0.076 -2.051,-1.807 -2.223,-4.204"
       style="fill:#ffffff;fill-opacity:1;fill-rule:nonzero;stroke:none;stroke-width:0.1"
       id="path750" />
    <path
       d="m 171.912,608.117 c -0.176,-2.396 0.536,-4.404 1.591,-4.479 1.054,-0.077 2.05,1.807 2.225,4.203 0.175,2.398 -0.537,4.404 -1.593,4.48 -1.053,0.076 -2.051,-1.807 -2.223,-4.204 z"
       style="fill:none;stroke:#231f20;stroke-width:0.5;stroke-linecap:butt;stroke-linejoin:miter;stroke-miterlimit:4;stroke-dasharray:none;stroke-opacity:1"
       id="path752" />
    <path
       d="m 542.577,641.096 c 0.21,1.767 3.683,3.16 9.728,2.696"
       style="fill:none;stroke:#231f20;stroke-width:0.5;stroke-linecap:round;stroke-linejoin:round;stroke-miterlimit:4;stroke-dasharray:2.8, 1.8;stroke-dashoffset:0;stroke-opacity:1"
       id="path754" />
    <path
       d="m 537.424,641.096 c -0.209,1.767 -3.683,3.16 -9.728,2.696"
       style="fill:none;stroke:#231f20;stroke-width:0.5;stroke-linecap:round;stroke-linejoin:round;stroke-miterlimit:4;stroke-dasharray:2.8, 1.8;stroke-dashoffset:0;stroke-opacity:1"
       id="path756" />
    <path
       d="m 548.146,607.678 c 1.537,-4.836 6.249,-23.315 4.391,-30.047 -1.859,-6.732 -4.179,-10.447 -6.965,-11.376 -1.982,-0.661 -8.124,-0.463 -4.409,-12.999 3.713,-12.536 8.39,-31.795 9.053,-34.589 1.549,-6.548 3.248,-24.217 3.713,-33.04"
       style="fill:none;stroke:#231f20;stroke-width:0.5;stroke-linecap:round;stroke-linejoin:round;stroke-miterlimit:4;stroke-dasharray:2.8, 1.8;stroke-dashoffset:0;stroke-opacity:1"
       id="path758" />
    <path
       d="m 550.447,556.042 c 0.697,-16.018 8.533,-54.901 16.947,-50.839 6.732,3.249 -3.715,24.839 -5.339,28.32 -1.627,3.482 -9.287,19.966 -11.608,22.519 z"
       style="fill:none;stroke:#231f20;stroke-width:0.5;stroke-linecap:round;stroke-linejoin:round;stroke-miterlimit:4;stroke-dasharray:2.8, 1.8;stroke-dashoffset:0;stroke-opacity:1"
       id="path760" />
    <path
       d="m 603.376,559.066 c -4.876,-1.399 -13.581,-1.747 -14.626,-5.577 -1.043,-3.831 -2.088,-10.447 -0.696,-17.063 1.394,-6.616 1.394,-20.196 -0.347,-26.116 -1.742,-5.919 -2.129,-13.153 -1.782,-16.287"
       style="fill:none;stroke:#231f20;stroke-width:0.5;stroke-linecap:round;stroke-linejoin:round;stroke-miterlimit:4;stroke-dasharray:2.8, 1.8;stroke-dashoffset:0;stroke-opacity:1"
       id="path762" />
    <path
       d="m 609.62,489.475 c -2.762,-6.326 -6.244,-33.835 6.64,-51.594 12.884,-17.758 30.643,-24.375 47.009,-22.982 16.366,1.393 22.983,7.312 20.196,17.411 -2.786,10.098 -10.098,28.205 -24.026,38.651 -13.929,10.447 -45.585,28.145 -49.087,47.361"
       style="fill:none;stroke:#231f20;stroke-width:0.5;stroke-linecap:round;stroke-linejoin:round;stroke-miterlimit:4;stroke-dasharray:2.8, 1.8;stroke-dashoffset:0;stroke-opacity:1"
       id="path764" />
    <path
       d="m 607.9,519.374 c -5.221,-4.189 -19.15,-22.296 -24.721,-28.564 -5.571,-6.268 -11.839,-18.456 -8.705,-32.036"
       style="fill:none;stroke:#231f20;stroke-width:0.5;stroke-linecap:round;stroke-linejoin:round;stroke-miterlimit:4;stroke-dasharray:2.8, 1.8;stroke-dashoffset:0;stroke-opacity:1"
       id="path766" />
    <path
       d="m 585.925,494.023 c -1.04,-10.012 -3.093,-19.579 -5.183,-24.803 -2.089,-5.222 -4.179,-8.356 -6.268,-10.446 -2.09,-2.089 -0.929,-6.036 0.115,-10.215 3.019,-12.07 13.001,-31.57 22.055,-41.09"
       style="fill:none;stroke:#231f20;stroke-width:0.5;stroke-linecap:round;stroke-linejoin:round;stroke-miterlimit:4;stroke-dasharray:2.8, 1.8;stroke-dashoffset:0;stroke-opacity:1"
       id="path768" />
    <path
       d="m 540,750.925 75.448,-40.74"
       style="fill:none;stroke:#231f20;stroke-width:0.5;stroke-linecap:round;stroke-linejoin:round;stroke-miterlimit:4;stroke-dasharray:2.8, 1.8;stroke-dashoffset:0;stroke-opacity:1"
       id="path770" />
    <path
       d="M 582.845,814.269 619.571,713.5"
       style="fill:none;stroke:#231f20;stroke-width:0.5;stroke-linecap:round;stroke-linejoin:round;stroke-miterlimit:4;stroke-dasharray:2.8, 1.8;stroke-dashoffset:0;stroke-opacity:1"
       id="path772" />
    <path
       d="M 652.46,826.232 640.952,711.439"
       style="fill:none;stroke:#231f20;stroke-width:0.5;stroke-linecap:round;stroke-linejoin:round;stroke-miterlimit:4;stroke-dasharray:2.8, 1.8;stroke-dashoffset:0;stroke-opacity:1"
       id="path774" />
    <path
       d="M 711.12,815.624 681.672,700.259"
       style="fill:none;stroke:#231f20;stroke-width:0.5;stroke-linecap:round;stroke-linejoin:round;stroke-miterlimit:4;stroke-dasharray:2.8, 1.8;stroke-dashoffset:0;stroke-opacity:1"
       id="path776" />
    <path
       d="M 854.09,729.22 765.103,656.685"
       style="fill:none;stroke:#231f20;stroke-width:0.5;stroke-linecap:round;stroke-linejoin:round;stroke-miterlimit:4;stroke-dasharray:2.8, 1.8;stroke-dashoffset:0;stroke-opacity:1"
       id="path778" />
    <path
       d="M 867.575,709.071 773.157,644.768"
       style="fill:none;stroke:#231f20;stroke-width:0.5;stroke-linecap:round;stroke-linejoin:round;stroke-miterlimit:4;stroke-dasharray:2.8, 1.8;stroke-dashoffset:0;stroke-opacity:1"
       id="path780" />
    <path
       d="M 795.758,570.593 903.578,558.01"
       style="fill:none;stroke:#231f20;stroke-width:0.5;stroke-linecap:round;stroke-linejoin:round;stroke-miterlimit:4;stroke-dasharray:2.8, 1.8;stroke-dashoffset:0;stroke-opacity:1"
       id="path782" />
    <path
       d="m 795.722,546.247 c 1.958,-6.687 5.788,-24.794 5.092,-40.116 -0.696,-15.321 -3.482,-25.42 -6.268,-28.902 -2.786,-3.481 -7.312,-8.356 -21.938,0.697"
       style="fill:none;stroke:#231f20;stroke-width:0.5;stroke-linecap:round;stroke-linejoin:round;stroke-miterlimit:4;stroke-dasharray:2.8, 1.8;stroke-dashoffset:0;stroke-opacity:1"
       id="path784" />
    <path
       d="m 775.227,492.641 c 0.613,2.761 6.783,6.874 9.569,8.615 2.786,1.742 13.928,8.705 16.018,4.875"
       style="fill:none;stroke:#231f20;stroke-width:0.5;stroke-linecap:round;stroke-linejoin:round;stroke-miterlimit:4;stroke-dasharray:2.8, 1.8;stroke-dashoffset:0;stroke-opacity:1"
       id="path786" />
    <path
       d="m 782.437,473.334 c 5.145,-3.765 15.591,-15.256 18.028,-26.051 2.438,-10.794 4.528,-18.455 -8.705,-19.152 -13.232,-0.696 -27.609,4.361 -32.434,13.148"
       style="fill:none;stroke:#231f20;stroke-width:0.5;stroke-linecap:round;stroke-linejoin:round;stroke-miterlimit:4;stroke-dasharray:2.8, 1.8;stroke-dashoffset:0;stroke-opacity:1"
       id="path788" />
    <path
       d="m 800.465,447.283 c 8.706,-7.313 26.334,-21.073 52.516,-28.295"
       style="fill:none;stroke:#231f20;stroke-width:0.5;stroke-linecap:round;stroke-linejoin:round;stroke-miterlimit:4;stroke-dasharray:2.8, 1.8;stroke-dashoffset:0;stroke-opacity:1"
       id="path790" />
    <path
       d="m 794.546,477.229 c 10.098,-7.313 39.71,-24.729 67.212,-34.127"
       style="fill:none;stroke:#231f20;stroke-width:0.5;stroke-linecap:round;stroke-linejoin:round;stroke-miterlimit:4;stroke-dasharray:2.8, 1.8;stroke-dashoffset:0;stroke-opacity:1"
       id="path792" />
    <path
       d="m 800.147,497.461 c 12.855,-8.044 47.72,-26.23 72.072,-32.632"
       style="fill:none;stroke:#231f20;stroke-width:0.5;stroke-linecap:round;stroke-linejoin:round;stroke-miterlimit:4;stroke-dasharray:2.8, 1.8;stroke-dashoffset:0;stroke-opacity:1"
       id="path794" />
    <path
       d="m 800.7,516.221 c 16.132,-7.304 66.536,-26.578 82.424,-30.87"
       style="fill:none;stroke:#231f20;stroke-width:0.5;stroke-linecap:round;stroke-linejoin:round;stroke-miterlimit:4;stroke-dasharray:2.8, 1.8;stroke-dashoffset:0;stroke-opacity:1"
       id="path796" />
    <path
       d="m 796.761,542.292 c 11.017,-4.125 61.857,-22.581 97.723,-29.893"
       style="fill:none;stroke:#231f20;stroke-width:0.5;stroke-linecap:round;stroke-linejoin:round;stroke-miterlimit:4;stroke-dasharray:2.8, 1.8;stroke-dashoffset:0;stroke-opacity:1"
       id="path798" />
    <path
       d="m 777.645,429.492 c -7.126,-2.406 -15.135,-6.932 -20.706,-16.682 -5.571,-9.75 -14.974,-28.902 -14.974,-28.902"
       style="fill:none;stroke:#231f20;stroke-width:0.5;stroke-linecap:round;stroke-linejoin:round;stroke-miterlimit:4;stroke-dasharray:2.8, 1.8;stroke-dashoffset:0;stroke-opacity:1"
       id="path800" />
    <path
       d="m 736.214,379.128 c -2.088,4.527 -10.266,11.745 -16.534,13.485 -6.268,1.741 -16.715,-2.785 -20.197,-4.527 -3.481,-1.741 -6.964,-2.437 -10.446,-3.133 -3.483,-0.697 -5.223,-5.92 -6.964,-9.75 -1.741,-3.83 -5.92,-4.005 -9.403,-3.483 -3.099,0.465 -3.83,8.358 -5.222,12.536 -1.394,4.179 -6.965,4.875 -10.099,4.875 -3.134,0 -9.401,-4.527 -13.232,-6.965 -3.83,-2.437 -5.919,0.697 -7.66,1.742 -1.742,1.045 -7.488,3.482 -12.188,4.875 -4.78,1.415 -6.854,2.125 -9.75,2.786 -2.401,0.547 -2.09,8.009 -2.786,11.142 -0.696,3.134 -6.616,4.875 -8.705,5.572 -2.09,0.696 -5.571,2.437 -6.965,-2.438 -1.393,-4.875 -2.089,-10.795 -1.393,-14.972 0.697,-4.179 2.839,-9.843 11.197,-14.022"
       style="fill:none;stroke:#231f20;stroke-width:0.5;stroke-linecap:round;stroke-linejoin:round;stroke-miterlimit:4;stroke-dasharray:2.8, 1.8;stroke-dashoffset:0;stroke-opacity:1"
       id="path802" />
    <path
       d="m 589.689,361.143 c 2.893,3.613 10.553,12.667 12.99,14.407 2.438,1.742 6.616,2.09 8.358,0 1.741,-2.089 3.83,-8.356 5.571,-9.052 1.741,-0.698 11.491,1.044 12.187,-5.573 0,0 8.358,-0.347 10.795,-3.481 2.438,-3.134 6.268,-7.313 10.447,-3.831"
       style="fill:none;stroke:#231f20;stroke-width:0.5;stroke-linecap:round;stroke-linejoin:round;stroke-miterlimit:4;stroke-dasharray:2.8, 1.8;stroke-dashoffset:0;stroke-opacity:1"
       id="path804" />
    <path
       d="m 643.153,353.719 c 0.616,-3.936 -0.429,-10.553 7.58,-12.294 8.009,-1.741 26.812,-1.741 36.215,-0.347 9.401,1.392 17.41,3.83 20.892,6.964 3.483,3.133 8.93,9.251 14.974,8.008 5.919,-1.218 11.143,-3.656 12.188,-5.571 0.6,-1.102 3.83,-6.616 8.008,-2.089 4.179,4.526 5.223,10.425 5.223,13.233 0,3.656 -1.74,4.526 -1.044,7.312 0.696,2.785 5.919,-1.045 6.964,1.74 1.045,2.786 5.223,17.76 6.616,22.983 1.393,5.223 6.616,12.884 16.018,15.321 9.402,2.437 15.322,0.696 19.848,-1.393 4.527,-2.088 15.01,-9.047 20.893,-4.178 7.236,5.99 9.402,8.008 11.491,10.795 2.09,2.786 6.218,11.006 9.403,9.753 3.186,-1.257 2.437,-3.833 -0.349,-9.753 -2.786,-5.92 -6.964,-14.974 -12.884,-19.849 -5.92,-4.875 -8.705,-6.616 -17.411,-3.134 -8.705,3.483 -13.619,5.836 -18.804,8.358 -6.441,3.133 -15.321,-1.219 -17.759,-8.358 -2.068,-6.058 -5.222,-15.67 -6.267,-18.804 -1.045,-3.133 -5.224,-7.66 -6.965,-8.356 -1.74,-0.697 -4.875,1.74 -4.526,-3.482 0.348,-5.224 -2.667,-15.238 -6.992,-17.36 -4.324,-2.119 -10.071,-2.489 -13.205,0.297 -3.134,2.785 -9.75,8.358 -14.625,3.134 -4.875,-5.224 -8.706,-8.357 -16.715,-10.446 -8.008,-2.09 -20.196,-2.787 -34.125,-2.438 -13.928,0.348 -39.004,1.091 -57.527,16.233"
       style="fill:none;stroke:#231f20;stroke-width:0.5;stroke-linecap:round;stroke-linejoin:round;stroke-miterlimit:4;stroke-dasharray:2.8, 1.8;stroke-dashoffset:0;stroke-opacity:1"
       id="path806" />
    <path
       d="m 602.679,375.55 c -1.837,-1.648 -5.222,-15.495 4.179,-22.634"
       style="fill:none;stroke:#231f20;stroke-width:0.5;stroke-linecap:round;stroke-linejoin:round;stroke-miterlimit:4;stroke-dasharray:2.8, 1.8;stroke-dashoffset:0;stroke-opacity:1"
       id="path808" />
    <path
       d="m 626.713,364.577 c -1.968,0.941 -5.23,-0.517 -8.015,-1.562 -2.786,-1.045 -2.786,-2.786 -5.572,-4.527 -2.786,-1.74 -8.009,-3.482 -6.268,-5.572 1.741,-2.088 3.83,-4.178 7.661,-3.133 3.83,1.045 7.077,2.62 9.401,3.133 2.04,0.45 5.224,3.134 4.875,8.009"
       style="fill:none;stroke:#231f20;stroke-width:0.5;stroke-linecap:round;stroke-linejoin:round;stroke-miterlimit:4;stroke-dasharray:2.8, 1.8;stroke-dashoffset:0;stroke-opacity:1"
       id="path810" />
    <path
       d="m 655.608,362.319 c 2.412,-0.36 4.527,-1.045 4.179,-5.224 -0.348,-4.179 -2.438,-6.616 -6.964,-6.616 -4.528,0 -2.09,5.224 -1.741,7.313 0.347,2.089 2.659,4.804 4.526,4.527 z"
       style="fill:none;stroke:#231f20;stroke-width:0.5;stroke-linecap:round;stroke-linejoin:round;stroke-miterlimit:4;stroke-dasharray:2.8, 1.8;stroke-dashoffset:0;stroke-opacity:1"
       id="path812" />
    <path
       d="m 658.298,361.472 c 3.926,1.543 17.499,2.936 26.902,1.891"
       style="fill:none;stroke:#231f20;stroke-width:0.5;stroke-linecap:round;stroke-linejoin:round;stroke-miterlimit:4;stroke-dasharray:2.8, 1.8;stroke-dashoffset:0;stroke-opacity:1"
       id="path814" />
    <path
       d="m 741.965,383.908 c 3.83,-4.179 18.052,-18.363 19.092,-31.584"
       style="fill:none;stroke:#231f20;stroke-width:0.5;stroke-linecap:round;stroke-linejoin:round;stroke-miterlimit:4;stroke-dasharray:2.8, 1.8;stroke-dashoffset:0;stroke-opacity:1"
       id="path816" />
    <path
       d="m 741.965,383.908 c -3.482,-3.83 -8.144,-6.091 -10.446,-8.009 -4.179,-3.483 -4.875,-10.768 -7.661,-11.115"
       style="fill:none;stroke:#231f20;stroke-width:0.5;stroke-linecap:round;stroke-linejoin:round;stroke-miterlimit:4;stroke-dasharray:2.8, 1.8;stroke-dashoffset:0;stroke-opacity:1"
       id="path818" />
    <path
       d="m 698.09,366.498 c 5.121,-1.027 11.492,1.392 15.322,1.044 3.831,-0.348 18.107,-4.179 17.062,-7.661 -1.044,-3.482 -8.009,2.785 -13.929,2.089 -5.919,-0.696 -12.535,-1.741 -18.803,-1.741 -6.268,0 -12.884,0.349 -12.884,4.527 0,4.179 9.75,2.438 13.232,1.742 z"
       style="fill:none;stroke:#231f20;stroke-width:0.5;stroke-linecap:round;stroke-linejoin:round;stroke-miterlimit:4;stroke-dasharray:2.8, 1.8;stroke-dashoffset:0;stroke-opacity:1"
       id="path820" />
    <path
       d="m 727.34,413.506 c -1.665,-3.866 -4.875,-12.187 -3.133,-13.232 1.741,-1.045 5.223,4.875 7.312,9.054 2.089,4.178 7.661,12.883 6.268,13.58 -1.393,0.696 -6.147,-3.485 -7.661,-4.527 -1.283,-0.884 -1.991,-3.033 -2.786,-4.875 z"
       style="fill:none;stroke:#231f20;stroke-width:0.5;stroke-linecap:round;stroke-linejoin:round;stroke-miterlimit:4;stroke-dasharray:2.8, 1.8;stroke-dashoffset:0;stroke-opacity:1"
       id="path822" />
    <path
       d="m 550.183,600.06 c 14.191,-6.522 35.735,-17.819 49.733,-24.894"
       style="fill:none;stroke:#231f20;stroke-width:0.5;stroke-linecap:round;stroke-linejoin:round;stroke-miterlimit:4;stroke-dasharray:2.8, 1.8;stroke-dashoffset:0;stroke-opacity:1"
       id="path824" />
    <path
       d="m 480.086,575.166 c 14.062,7.109 35.741,18.477 49.929,24.983"
       style="fill:none;stroke:#231f20;stroke-width:0.5;stroke-linecap:round;stroke-linejoin:round;stroke-miterlimit:4;stroke-dasharray:2.8, 1.8;stroke-dashoffset:0;stroke-opacity:1"
       id="path826" />
    <path
       d="m 532.072,607.618 c -1.537,-4.836 -6.464,-23.255 -4.607,-29.987 1.858,-6.732 4.179,-10.447 6.964,-11.376 1.983,-0.661 8.125,-0.463 4.41,-12.999 -3.713,-12.536 -8.391,-31.795 -9.053,-34.589 -1.55,-6.548 -3.249,-24.217 -3.714,-33.04"
       style="fill:none;stroke:#231f20;stroke-width:0.5;stroke-linecap:round;stroke-linejoin:round;stroke-miterlimit:4;stroke-dasharray:2.8, 1.8;stroke-dashoffset:0;stroke-opacity:1"
       id="path828" />
    <path
       d="m 529.554,556.042 c -0.696,-16.018 -8.532,-54.901 -16.947,-50.839 -6.731,3.249 3.715,24.839 5.34,28.32 1.626,3.482 9.286,19.966 11.607,22.519 z"
       style="fill:none;stroke:#231f20;stroke-width:0.5;stroke-linecap:round;stroke-linejoin:round;stroke-miterlimit:4;stroke-dasharray:2.8, 1.8;stroke-dashoffset:0;stroke-opacity:1"
       id="path830" />
    <path
       d="m 476.626,559.066 c 4.874,-1.399 13.58,-1.747 14.624,-5.577 1.045,-3.831 2.09,-10.447 0.697,-17.063 -1.393,-6.616 -1.393,-20.196 0.348,-26.116 1.742,-5.919 2.129,-13.153 1.781,-16.287"
       style="fill:none;stroke:#231f20;stroke-width:0.5;stroke-linecap:round;stroke-linejoin:round;stroke-miterlimit:4;stroke-dasharray:2.8, 1.8;stroke-dashoffset:0;stroke-opacity:1"
       id="path832" />
    <path
       d="m 470.382,489.475 c 2.761,-6.326 6.244,-33.835 -6.64,-51.594 -12.884,-17.758 -30.643,-24.375 -47.009,-22.982 -16.366,1.393 -22.983,7.312 -20.196,17.411 2.785,10.098 10.097,28.205 24.026,38.651 13.929,10.447 45.585,28.145 49.086,47.361"
       style="fill:none;stroke:#231f20;stroke-width:0.5;stroke-linecap:round;stroke-linejoin:round;stroke-miterlimit:4;stroke-dasharray:2.8, 1.8;stroke-dashoffset:0;stroke-opacity:1"
       id="path834" />
    <path
       d="m 472.102,519.374 c 5.22,-4.189 19.148,-22.296 24.72,-28.564 5.571,-6.268 11.84,-18.456 8.706,-32.036"
       style="fill:none;stroke:#231f20;stroke-width:0.5;stroke-linecap:round;stroke-linejoin:round;stroke-miterlimit:4;stroke-dasharray:2.8, 1.8;stroke-dashoffset:0;stroke-opacity:1"
       id="path836" />
    <path
       d="m 494.076,494.023 c 1.041,-10.012 3.094,-19.579 5.183,-24.803 2.09,-5.222 4.179,-8.356 6.269,-10.446 2.089,-2.089 0.929,-6.036 -0.116,-10.215 -3.019,-12.07 -13.001,-31.57 -22.055,-41.09"
       style="fill:none;stroke:#231f20;stroke-width:0.5;stroke-linecap:round;stroke-linejoin:round;stroke-miterlimit:4;stroke-dasharray:2.8, 1.8;stroke-dashoffset:0;stroke-opacity:1"
       id="path838" />
    <path
       d="m 485.679,393.31 c 1.393,3.017 7.894,9.75 11.839,16.018 3.946,6.267 9.054,17.873 12.536,26.464 3.483,8.588 8.358,29.017 9.983,35.75 1.624,6.731 7.196,15.786 10.213,21.821 3.018,6.035 8.126,23.679 9.75,29.714 1.624,-6.035 6.734,-23.679 9.75,-29.714 3.018,-6.035 8.59,-15.09 10.216,-21.821 1.624,-6.733 6.499,-27.162 9.981,-35.75 3.482,-8.591 8.59,-20.197 12.536,-26.464 3.946,-6.268 10.446,-13.001 11.84,-16.018"
       style="fill:none;stroke:#231f20;stroke-width:0.5;stroke-linecap:round;stroke-linejoin:round;stroke-miterlimit:4;stroke-dasharray:2.8, 1.8;stroke-dashoffset:0;stroke-opacity:1"
       id="path840" />
    <path
       d="m 482.893,384.025 c 0,-6.907 4.412,-9.057 12.536,-8.36 8.125,0.697 16.947,6.037 24.144,12.304 7.196,6.269 13.695,21.124 15.784,26.93 2.089,5.803 2.089,7.195 4.643,7.195 2.555,0 2.555,-1.392 4.645,-7.195 2.089,-5.806 8.588,-20.661 15.783,-26.93 7.198,-6.267 16.02,-11.607 24.145,-12.304 8.124,-0.697 12.535,1.453 12.535,8.36"
       style="fill:none;stroke:#231f20;stroke-width:0.5;stroke-linecap:round;stroke-linejoin:round;stroke-miterlimit:4;stroke-dasharray:2.8, 1.8;stroke-dashoffset:0;stroke-opacity:1"
       id="path842" />
    <path
       d="m 540,750.925 -75.446,-40.74"
       style="fill:none;stroke:#231f20;stroke-width:0.5;stroke-linecap:round;stroke-linejoin:round;stroke-miterlimit:4;stroke-dasharray:2.8, 1.8;stroke-dashoffset:0;stroke-opacity:1"
       id="path844" />
    <path
       d="M 497.157,814.269 460.431,713.5"
       style="fill:none;stroke:#231f20;stroke-width:0.5;stroke-linecap:round;stroke-linejoin:round;stroke-miterlimit:4;stroke-dasharray:2.8, 1.8;stroke-dashoffset:0;stroke-opacity:1"
       id="path846" />
    <path
       d="M 427.541,826.232 439.049,711.439"
       style="fill:none;stroke:#231f20;stroke-width:0.5;stroke-linecap:round;stroke-linejoin:round;stroke-miterlimit:4;stroke-dasharray:2.8, 1.8;stroke-dashoffset:0;stroke-opacity:1"
       id="path848" />
    <path
       d="M 368.815,815.73 398.329,700.259"
       style="fill:none;stroke:#231f20;stroke-width:0.5;stroke-linecap:round;stroke-linejoin:round;stroke-miterlimit:4;stroke-dasharray:2.8, 1.8;stroke-dashoffset:0;stroke-opacity:1"
       id="path850" />
    <path
       d="m 225.911,729.22 88.988,-72.535"
       style="fill:none;stroke:#231f20;stroke-width:0.5;stroke-linecap:round;stroke-linejoin:round;stroke-miterlimit:4;stroke-dasharray:2.8, 1.8;stroke-dashoffset:0;stroke-opacity:1"
       id="path852" />
    <path
       d="m 212.261,709.183 94.584,-64.415"
       style="fill:none;stroke:#231f20;stroke-width:0.5;stroke-linecap:round;stroke-linejoin:round;stroke-miterlimit:4;stroke-dasharray:2.8, 1.8;stroke-dashoffset:0;stroke-opacity:1"
       id="path854" />
    <path
       d="M 284.244,570.593 176.423,558.01"
       style="fill:none;stroke:#231f20;stroke-width:0.5;stroke-linecap:round;stroke-linejoin:round;stroke-miterlimit:4;stroke-dasharray:2.8, 1.8;stroke-dashoffset:0;stroke-opacity:1"
       id="path856" />
    <path
       d="m 284.279,546.247 c -1.957,-6.687 -5.787,-24.794 -5.091,-40.116 0.696,-15.321 3.481,-25.42 6.268,-28.902 2.786,-3.481 7.312,-8.356 21.937,0.697"
       style="fill:none;stroke:#231f20;stroke-width:0.5;stroke-linecap:round;stroke-linejoin:round;stroke-miterlimit:4;stroke-dasharray:2.8, 1.8;stroke-dashoffset:0;stroke-opacity:1"
       id="path858" />
    <path
       d="m 304.775,492.641 c -0.613,2.761 -6.783,6.874 -9.569,8.615 -2.787,1.742 -13.929,8.705 -16.018,4.875"
       style="fill:none;stroke:#231f20;stroke-width:0.5;stroke-linecap:round;stroke-linejoin:round;stroke-miterlimit:4;stroke-dasharray:2.8, 1.8;stroke-dashoffset:0;stroke-opacity:1"
       id="path860" />
    <path
       d="m 297.564,473.334 c -5.145,-3.765 -15.591,-15.256 -18.028,-26.051 -2.438,-10.794 -4.527,-18.455 8.706,-19.152 13.231,-0.696 27.609,4.361 32.433,13.148"
       style="fill:none;stroke:#231f20;stroke-width:0.5;stroke-linecap:round;stroke-linejoin:round;stroke-miterlimit:4;stroke-dasharray:2.8, 1.8;stroke-dashoffset:0;stroke-opacity:1"
       id="path862" />
    <path
       d="M 279.536,447.283 C 270.831,439.97 253.203,426.21 227.021,418.988"
       style="fill:none;stroke:#231f20;stroke-width:0.5;stroke-linecap:round;stroke-linejoin:round;stroke-miterlimit:4;stroke-dasharray:2.8, 1.8;stroke-dashoffset:0;stroke-opacity:1"
       id="path864" />
    <path
       d="M 285.456,477.229 C 275.357,469.916 245.746,452.5 218.244,443.102"
       style="fill:none;stroke:#231f20;stroke-width:0.5;stroke-linecap:round;stroke-linejoin:round;stroke-miterlimit:4;stroke-dasharray:2.8, 1.8;stroke-dashoffset:0;stroke-opacity:1"
       id="path866" />
    <path
       d="M 279.854,497.461 C 267,489.417 232.135,471.231 207.782,464.829"
       style="fill:none;stroke:#231f20;stroke-width:0.5;stroke-linecap:round;stroke-linejoin:round;stroke-miterlimit:4;stroke-dasharray:2.8, 1.8;stroke-dashoffset:0;stroke-opacity:1"
       id="path868" />
    <path
       d="m 279.302,516.221 c -16.133,-7.304 -66.536,-26.578 -82.424,-30.87"
       style="fill:none;stroke:#231f20;stroke-width:0.5;stroke-linecap:round;stroke-linejoin:round;stroke-miterlimit:4;stroke-dasharray:2.8, 1.8;stroke-dashoffset:0;stroke-opacity:1"
       id="path870" />
    <path
       d="m 283.24,542.292 c -11.017,-4.125 -61.856,-22.581 -97.722,-29.893"
       style="fill:none;stroke:#231f20;stroke-width:0.5;stroke-linecap:round;stroke-linejoin:round;stroke-miterlimit:4;stroke-dasharray:2.8, 1.8;stroke-dashoffset:0;stroke-opacity:1"
       id="path872" />
    <path
       d="m 302.356,429.492 c 7.127,-2.406 15.136,-6.932 20.707,-16.682 5.571,-9.75 14.973,-28.902 14.973,-28.902"
       style="fill:none;stroke:#231f20;stroke-width:0.5;stroke-linecap:round;stroke-linejoin:round;stroke-miterlimit:4;stroke-dasharray:2.8, 1.8;stroke-dashoffset:0;stroke-opacity:1"
       id="path874" />
    <path
       d="m 343.787,379.128 c 2.089,4.527 10.267,11.745 16.535,13.485 6.267,1.741 16.715,-2.785 20.196,-4.527 3.482,-1.741 6.965,-2.437 10.446,-3.133 3.483,-0.697 5.224,-5.92 6.965,-9.75 1.741,-3.83 5.92,-4.005 9.402,-3.483 3.1,0.465 3.831,8.358 5.223,12.536 1.393,4.179 6.964,4.875 10.098,4.875 3.135,0 9.402,-4.527 13.232,-6.965 3.831,-2.437 5.92,0.697 7.661,1.742 1.742,1.045 7.487,3.482 12.188,4.875 4.779,1.415 6.853,2.125 9.75,2.786 2.4,0.547 2.089,8.009 2.785,11.142 0.697,3.134 6.616,4.875 8.706,5.572 2.089,0.696 5.571,2.437 6.964,-2.438 1.393,-4.875 2.09,-10.795 1.393,-14.972 -0.697,-4.179 -2.838,-9.843 -11.196,-14.022"
       style="fill:none;stroke:#231f20;stroke-width:0.5;stroke-linecap:round;stroke-linejoin:round;stroke-miterlimit:4;stroke-dasharray:2.8, 1.8;stroke-dashoffset:0;stroke-opacity:1"
       id="path876" />
    <path
       d="m 490.312,361.143 c -2.892,3.613 -10.553,12.667 -12.99,14.407 -2.438,1.742 -6.616,2.09 -8.357,0 -1.741,-2.089 -3.831,-8.356 -5.572,-9.052 -1.74,-0.698 -11.49,1.044 -12.187,-5.573 0,0 -8.357,-0.347 -10.794,-3.481 -2.438,-3.134 -6.269,-7.313 -10.448,-3.831"
       style="fill:none;stroke:#231f20;stroke-width:0.5;stroke-linecap:round;stroke-linejoin:round;stroke-miterlimit:4;stroke-dasharray:2.8, 1.8;stroke-dashoffset:0;stroke-opacity:1"
       id="path878" />
    <path
       d="m 436.849,353.719 c -0.616,-3.936 0.429,-10.553 -7.581,-12.294 -8.009,-1.741 -26.812,-1.741 -36.214,-0.347 -9.402,1.392 -17.411,3.83 -20.892,6.964 -3.483,3.133 -8.931,9.251 -14.974,8.008 -5.92,-1.218 -11.143,-3.656 -12.188,-5.571 -0.601,-1.102 -3.83,-6.616 -8.008,-2.089 -4.179,4.526 -5.224,10.425 -5.224,13.233 0,3.656 1.741,4.526 1.045,7.312 -0.696,2.785 -5.92,-1.045 -6.965,1.74 -1.044,2.786 -5.222,17.76 -6.615,22.983 -1.394,5.223 -6.616,12.884 -16.019,15.321 -9.401,2.437 -15.321,0.696 -19.847,-1.393 -4.528,-2.088 -15.011,-9.047 -20.894,-4.178 -7.236,5.99 -9.401,8.008 -11.491,10.795 -2.089,2.786 -6.217,11.006 -9.402,9.753 -3.187,-1.257 -2.437,-3.833 0.349,-9.753 2.785,-5.92 6.964,-14.974 12.884,-19.849 5.919,-4.875 8.705,-6.616 17.41,-3.134 8.706,3.483 13.62,5.836 18.804,8.358 6.442,3.133 15.321,-1.219 17.759,-8.358 2.069,-6.058 5.223,-15.67 6.268,-18.804 1.044,-3.133 5.223,-7.66 6.964,-8.356 1.741,-0.697 4.875,1.74 4.527,-3.482 -0.348,-5.224 2.667,-15.238 6.992,-17.36 4.324,-2.119 10.071,-2.489 13.205,0.297 3.134,2.785 9.75,8.358 14.625,3.134 4.875,-5.224 8.705,-8.357 16.714,-10.446 8.008,-2.09 20.196,-2.787 34.125,-2.438 13.928,0.348 39.005,1.091 57.528,16.233"
       style="fill:none;stroke:#231f20;stroke-width:0.5;stroke-linecap:round;stroke-linejoin:round;stroke-miterlimit:4;stroke-dasharray:2.8, 1.8;stroke-dashoffset:0;stroke-opacity:1"
       id="path880" />
    <path
       d="m 477.322,375.55 c 1.838,-1.648 5.223,-15.495 -4.179,-22.634"
       style="fill:none;stroke:#231f20;stroke-width:0.5;stroke-linecap:round;stroke-linejoin:round;stroke-miterlimit:4;stroke-dasharray:2.8, 1.8;stroke-dashoffset:0;stroke-opacity:1"
       id="path882" />
    <path
       d="m 453.289,364.577 c 1.967,0.941 5.229,-0.517 8.015,-1.562 2.786,-1.045 2.786,-2.786 5.572,-4.527 2.786,-1.74 8.008,-3.482 6.267,-5.572 -1.74,-2.088 -3.83,-4.178 -7.66,-3.133 -3.83,1.045 -7.077,2.62 -9.402,3.133 -2.04,0.45 -5.223,3.134 -4.875,8.009"
       style="fill:none;stroke:#231f20;stroke-width:0.5;stroke-linecap:round;stroke-linejoin:round;stroke-miterlimit:4;stroke-dasharray:2.8, 1.8;stroke-dashoffset:0;stroke-opacity:1"
       id="path884" />
    <path
       d="m 424.393,362.319 c -2.411,-0.36 -4.526,-1.045 -4.179,-5.224 0.349,-4.179 2.438,-6.616 6.965,-6.616 4.527,0 2.089,5.224 1.741,7.313 -0.348,2.089 -2.659,4.804 -4.527,4.527 z"
       style="fill:none;stroke:#231f20;stroke-width:0.5;stroke-linecap:round;stroke-linejoin:round;stroke-miterlimit:4;stroke-dasharray:2.8, 1.8;stroke-dashoffset:0;stroke-opacity:1"
       id="path886" />
    <path
       d="m 421.703,361.472 c -3.926,1.543 -17.499,2.936 -26.901,1.891"
       style="fill:none;stroke:#231f20;stroke-width:0.5;stroke-linecap:round;stroke-linejoin:round;stroke-miterlimit:4;stroke-dasharray:2.8, 1.8;stroke-dashoffset:0;stroke-opacity:1"
       id="path888" />
    <path
       d="m 338.036,383.908 c -3.83,-4.179 -18.051,-18.363 -19.092,-31.584"
       style="fill:none;stroke:#231f20;stroke-width:0.5;stroke-linecap:round;stroke-linejoin:round;stroke-miterlimit:4;stroke-dasharray:2.8, 1.8;stroke-dashoffset:0;stroke-opacity:1"
       id="path890" />
    <path
       d="m 338.036,383.908 c 3.482,-3.83 8.145,-6.091 10.447,-8.009 4.178,-3.483 4.875,-10.768 7.66,-11.115"
       style="fill:none;stroke:#231f20;stroke-width:0.5;stroke-linecap:round;stroke-linejoin:round;stroke-miterlimit:4;stroke-dasharray:2.8, 1.8;stroke-dashoffset:0;stroke-opacity:1"
       id="path892" />
    <path
       d="m 381.912,366.498 c -5.122,-1.027 -11.492,1.392 -15.323,1.044 -3.83,-0.348 -18.106,-4.179 -17.062,-7.661 1.045,-3.482 8.009,2.785 13.929,2.089 5.92,-0.696 12.536,-1.741 18.803,-1.741 6.268,0 12.884,0.349 12.884,4.527 0,4.179 -9.75,2.438 -13.231,1.742 z"
       style="fill:none;stroke:#231f20;stroke-width:0.5;stroke-linecap:round;stroke-linejoin:round;stroke-miterlimit:4;stroke-dasharray:2.8, 1.8;stroke-dashoffset:0;stroke-opacity:1"
       id="path894" />
    <path
       d="m 352.661,413.506 c 1.665,-3.866 4.875,-12.187 3.134,-13.232 -1.741,-1.045 -5.223,4.875 -7.312,9.054 -2.09,4.178 -7.661,12.883 -6.269,13.58 1.394,0.696 6.148,-3.485 7.662,-4.527 1.282,-0.884 1.991,-3.033 2.785,-4.875 z"
       style="fill:none;stroke:#231f20;stroke-width:0.5;stroke-linecap:round;stroke-linejoin:round;stroke-miterlimit:4;stroke-dasharray:2.8, 1.8;stroke-dashoffset:0;stroke-opacity:1"
       id="path896" />
    <path
       d="m 575.381,445.742 c -0.277,-5.45 -1.488,-12.566 -1.314,-19.685"
       style="fill:none;stroke:#231f20;stroke-width:0.5;stroke-linecap:round;stroke-linejoin:round;stroke-miterlimit:4;stroke-dasharray:2.8, 1.8;stroke-dashoffset:0;stroke-opacity:1"
       id="path898" />
    <path
       d="m 504.621,445.742 c 0.277,-5.45 1.487,-12.566 1.313,-19.685"
       style="fill:none;stroke:#231f20;stroke-width:0.5;stroke-linecap:round;stroke-linejoin:round;stroke-miterlimit:4;stroke-dasharray:2.8, 1.8;stroke-dashoffset:0;stroke-opacity:1"
       id="path900" />
  </g>
</svg>
