<?xml version="1.0" encoding="UTF-8" standalone="no"?>
<!-- Created with Inkscape (http://www.inkscape.org/) -->

<svg
   version="1.1"
   id="svg2"
   width="1440"
   height="1344"
   viewBox="0 0 1440 1344"
   xmlns="http://www.w3.org/2000/svg"
   xmlns:svg="http://www.w3.org/2000/svg">
  <defs
     id="defs6" />
  <g
     id="g10">
    <path
       d="m 540,412.576 c -2.088,-3.251 -58.267,-62.214 -66.624,-69.178 -8.357,-6.964 -40.393,-18.572 -78.929,-15.787 -38.536,2.786 -68.25,17.642 -68.25,17.642 -29.714,6.964 -52,22.751 -70.572,39.931 -18.573,17.179 -24.143,35.283 -31.107,58.5 -6.965,23.213 -60.711,74.819 -54.785,170.392 3.713,59.893 42.249,124.429 102.143,167.143 58.589,41.785 112.821,51.536 171.321,51.072 58.5,-0.465 83.34,-28.614 89.491,-43.759 5.931,-14.603 7.312,-43.405 7.312,-52.234 0,8.829 1.315,37.659 7.313,52.234 6.616,16.073 30.991,43.294 89.491,43.759 58.5,0.464 112.733,-9.287 171.322,-51.072 59.893,-42.714 98.429,-107.25 102.143,-167.143 5.925,-95.573 -47.821,-147.179 -54.785,-170.392 -6.965,-23.217 -12.535,-41.321 -31.108,-58.5 -18.572,-17.18 -40.857,-32.967 -70.571,-39.931 0,0 -29.714,-14.856 -68.251,-17.642 -38.536,-2.785 -70.571,8.823 -78.928,15.787 -8.358,6.964 -64.536,65.927 -66.626,69.178"
       style="fill:#ffffff;fill-opacity:1;fill-rule:nonzero;stroke:none;stroke-width:0.1"
       id="path670" />
    <path
       d="m 540,412.576 c -2.088,-3.251 -58.267,-62.214 -66.624,-69.178 -8.357,-6.964 -40.393,-18.572 -78.929,-15.787 -38.536,2.786 -68.25,17.642 -68.25,17.642 -29.714,6.964 -52,22.751 -70.572,39.931 -18.573,17.179 -24.143,35.283 -31.107,58.5 -6.965,23.213 -60.711,74.819 -54.785,170.392 3.713,59.893 42.249,124.429 102.143,167.143 58.589,41.785 112.821,51.536 171.321,51.072 58.5,-0.465 83.34,-28.614 89.491,-43.759 5.931,-14.603 7.312,-43.405 7.312,-52.234 0,8.829 1.315,37.659 7.313,52.234 6.616,16.073 30.991,43.294 89.491,43.759 58.5,0.464 112.733,-9.287 171.322,-51.072 59.893,-42.714 98.429,-107.25 102.143,-167.143 5.925,-95.573 -47.821,-147.179 -54.785,-170.392 -6.965,-23.217 -12.535,-41.321 -31.108,-58.5 -18.572,-17.18 -40.857,-32.967 -70.571,-39.931 0,0 -29.714,-14.856 -68.251,-17.642 -38.536,-2.785 -70.571,8.823 -78.928,15.787 -8.358,6.964 -64.536,65.927 -66.626,69.178 z"
       style="fill:none;stroke:#231f20;stroke-width:0.75;stroke-linecap:round;stroke-linejoin:round;stroke-miterlimit:4;stroke-dasharray:none;stroke-opacity:1"
       id="path672" />
    <path
       d="m 663.617,680.237 c 0,0 -6.836,-3.736 -11.258,-7.197 -5.993,-4.691 -8.939,-7.428 -13.465,-11.956 -4.527,-4.526 -15.67,-15.668 -20.196,-27.508 -4.528,-11.839 -6.616,-29.249 -7.313,-39.696 -0.697,-10.448 -4.875,-36.564 -4.875,-45.269 0,-8.705 1.393,-30.991 2.438,-41.786 1.044,-10.794 2.089,-20.197 1.044,-20.544 -1.044,-0.349 -2.785,15.669 -3.134,20.544 -0.348,4.875 -1.741,26.812 -2.438,32.036 -0.696,5.223 -4.178,26.812 -4.875,29.598 -0.696,2.786 -4.178,17.063 -5.919,21.243 -1.741,4.178 -8.706,18.802 -9.402,20.544 -0.696,1.741 -2.786,6.267 -0.348,7.661 2.437,1.392 19.848,13.58 25.419,17.759 5.572,4.178 17.412,16.366 24.028,24.026 6.615,7.661 14.857,14.045 20.087,16.883 4.362,2.368 10.207,3.662 10.207,3.662"
       style="fill:#b2b1b1;fill-opacity:1;fill-rule:nonzero;stroke:none;stroke-width:0.1"
       id="path674" />
    <path
       d="m 416.384,680.237 c 0,0 6.837,-3.736 11.259,-7.197 5.993,-4.691 8.938,-7.428 13.465,-11.956 4.526,-4.526 15.67,-15.668 20.196,-27.508 4.527,-11.839 6.616,-29.249 7.313,-39.696 0.696,-10.448 4.875,-36.564 4.875,-45.269 0,-8.705 -1.393,-30.991 -2.438,-41.786 -1.045,-10.794 -2.089,-20.197 -1.045,-20.544 1.045,-0.349 2.786,15.669 3.134,20.544 0.349,4.875 1.741,26.812 2.438,32.036 0.697,5.223 4.178,26.812 4.875,29.598 0.697,2.786 4.178,17.063 5.92,21.243 1.741,4.178 8.705,18.802 9.402,20.544 0.696,1.741 2.785,6.267 0.348,7.661 -2.438,1.392 -19.848,13.58 -25.42,17.759 -5.572,4.178 -17.411,16.366 -24.027,24.026 -6.616,7.661 -14.857,14.045 -20.088,16.883 -4.362,2.368 -10.207,3.662 -10.207,3.662"
       style="fill:#b2b1b1;fill-opacity:1;fill-rule:nonzero;stroke:none;stroke-width:0.1"
       id="path676" />
    <path
       d="m 547.662,400.62 c 0,-1.731 -1.405,-3.134 -3.134,-3.134 -1.731,0 -3.134,1.403 -3.134,3.134 0,1.73 1.403,3.133 3.134,3.133 1.729,0 3.134,-1.403 3.134,-3.133"
       style="fill:#ffffff;fill-opacity:1;fill-rule:nonzero;stroke:none;stroke-width:0.1"
       id="path678" />
    <path
       d="m 547.662,400.62 c 0,-1.731 -1.405,-3.134 -3.134,-3.134 -1.731,0 -3.134,1.403 -3.134,3.134 0,1.73 1.403,3.133 3.134,3.133 1.729,0 3.134,-1.403 3.134,-3.133 z"
       style="fill:none;stroke:#231f20;stroke-width:0.5;stroke-linecap:butt;stroke-linejoin:miter;stroke-miterlimit:4;stroke-dasharray:none;stroke-opacity:1"
       id="path680" />
    <path
       d="m 532.34,400.62 c 0,-1.731 1.404,-3.134 3.134,-3.134 1.731,0 3.134,1.403 3.134,3.134 0,1.73 -1.403,3.133 -3.134,3.133 -1.73,0 -3.134,-1.403 -3.134,-3.133"
       style="fill:#ffffff;fill-opacity:1;fill-rule:nonzero;stroke:none;stroke-width:0.1"
       id="path682" />
    <path
       d="m 532.34,400.62 c 0,-1.731 1.404,-3.134 3.134,-3.134 1.731,0 3.134,1.403 3.134,3.134 0,1.73 -1.403,3.133 -3.134,3.133 -1.73,0 -3.134,-1.403 -3.134,-3.133 z"
       style="fill:none;stroke:#231f20;stroke-width:0.5;stroke-linecap:butt;stroke-linejoin:miter;stroke-miterlimit:4;stroke-dasharray:none;stroke-opacity:1"
       id="path684" />
    <path
       d="m 540,656.558 c 1.45,-0.245 7.662,-2.786 8.707,-3.134"
       style="fill:none;stroke:#231f20;stroke-width:0.75;stroke-linecap:round;stroke-linejoin:round;stroke-miterlimit:4;stroke-dasharray:none;stroke-opacity:1"
       id="path686" />
    <path
       d="m 540,656.558 v 79.74"
       style="fill:none;stroke:#231f20;stroke-width:0.75;stroke-linecap:round;stroke-linejoin:round;stroke-miterlimit:4;stroke-dasharray:none;stroke-opacity:1"
       id="path688" />
    <path
       d="m 587.01,657.951 c 0,0 14.973,13.581 19.5,20.545 4.527,6.964 11.49,22.633 13.58,27.857 2.089,5.223 8.705,14.625 21.938,12.187 13.232,-2.437 30.991,-10.098 41.089,-14.624 0,0 -27.857,6.267 -37.955,4.178 -10.099,-2.09 -21.589,-13.928 -27.858,-22.634 -6.267,-8.706 -17.759,-23.331 -30.294,-27.509 z"
       style="fill:none;stroke:#231f20;stroke-width:0.5;stroke-linecap:butt;stroke-linejoin:miter;stroke-miterlimit:4;stroke-dasharray:none;stroke-opacity:1"
       id="path690" />
    <path
       d="m 760.372,466.089 c -0.348,-7.661 -8.308,-29.255 -11.442,-33.434 -3.135,-4.178 -15.322,-19.848 -18.804,-26.464 -3.482,-6.616 -3.831,-15.67 -1.044,-20.196"
       style="fill:none;stroke:#231f20;stroke-width:0.5;stroke-linecap:butt;stroke-linejoin:miter;stroke-miterlimit:4;stroke-dasharray:none;stroke-opacity:1"
       id="path692" />
    <path
       d="m 753.805,345.253 c 3.134,2.786 8.755,9.149 12.884,17.063 4.179,8.009 18.066,11.018 33.931,3.768"
       style="fill:none;stroke:#231f20;stroke-width:0.5;stroke-linecap:butt;stroke-linejoin:miter;stroke-miterlimit:4;stroke-dasharray:none;stroke-opacity:1"
       id="path694" />
    <path
       d="m 585.965,615.817 c 0,0 25.072,17.062 30.643,22.634 0,0 -4.526,-13.58 -6.616,-26.117 -2.089,-12.535 -1.393,-24.375 -2.089,-30.643 -0.696,-6.268 -3.483,-29.598 -3.134,-35.169 0,0 -2.205,20.755 -5.92,34.125 -4.062,14.626 -9.245,24.218 -11.839,29.25 -0.93,1.806 -2.554,4.887 -1.045,5.92"
       style="fill:#706d6e;fill-opacity:1;fill-rule:nonzero;stroke:none;stroke-width:0.1"
       id="path696" />
    <path
       d="m 585.965,615.817 c 0,0 25.072,17.062 30.643,22.634 0,0 -4.526,-13.58 -6.616,-26.117 -2.089,-12.535 -1.393,-24.375 -2.089,-30.643 -0.696,-6.268 -3.483,-29.598 -3.134,-35.169 0,0 -2.205,20.755 -5.92,34.125 -4.062,14.626 -9.245,24.218 -11.839,29.25 -0.93,1.806 -2.554,4.887 -1.045,5.92 z"
       style="fill:none;stroke:#231f20;stroke-width:0.5;stroke-linecap:round;stroke-linejoin:round;stroke-miterlimit:4;stroke-dasharray:none;stroke-opacity:1"
       id="path698" />
    <path
       d="M 540,566.37 V 528.762"
       style="fill:none;stroke:#231f20;stroke-width:0.75;stroke-linecap:round;stroke-linejoin:round;stroke-miterlimit:4;stroke-dasharray:none;stroke-opacity:1"
       id="path700" />
    <path
       d="M 540,427.084 V 412.576"
       style="fill:none;stroke:#231f20;stroke-width:0.75;stroke-linecap:round;stroke-linejoin:round;stroke-miterlimit:4;stroke-dasharray:none;stroke-opacity:1"
       id="path702" />
    <path
       d="m 627.054,468.173 c 2.773,1.764 9.75,-1.045 15.67,-9.053 5.92,-8.009 6.965,-20.545 4.875,-21.938 -2.089,-1.392 -12.884,5.223 -17.759,12.884 -4.875,7.661 -6.616,15.67 -2.786,18.107 z"
       style="fill:none;stroke:#231f20;stroke-width:0.5;stroke-linecap:butt;stroke-linejoin:miter;stroke-miterlimit:4;stroke-dasharray:none;stroke-opacity:1"
       id="path704" />
    <path
       d="m 680.332,428.825 c 0,-1.347 -1.091,-2.438 -2.438,-2.438 -1.347,0 -2.437,1.091 -2.437,2.438 0,1.346 1.09,2.437 2.437,2.437 1.347,0 2.438,-1.091 2.438,-2.437 z"
       style="fill:none;stroke:#231f20;stroke-width:0.5;stroke-linecap:butt;stroke-linejoin:miter;stroke-miterlimit:4;stroke-dasharray:none;stroke-opacity:1"
       id="path706" />
    <path
       d="m 696.698,423.602 c 0,-1.537 -1.247,-2.786 -2.786,-2.786 -1.538,0 -2.786,1.249 -2.786,2.786 0,1.539 1.248,2.785 2.786,2.785 1.539,0 2.786,-1.246 2.786,-2.785 z"
       style="fill:none;stroke:#231f20;stroke-width:0.5;stroke-linecap:butt;stroke-linejoin:miter;stroke-miterlimit:4;stroke-dasharray:none;stroke-opacity:1"
       id="path708" />
    <path
       d="m 492.992,657.951 c 9.401,-8.705 39,-11.492 47.008,-11.492 8.009,0 37.608,2.787 47.01,11.492"
       style="fill:none;stroke:#231f20;stroke-width:0.5;stroke-linecap:butt;stroke-linejoin:miter;stroke-miterlimit:4;stroke-dasharray:none;stroke-opacity:1"
       id="path710" />
    <path
       d="m 540,656.558 c -1.448,-0.245 -7.66,-2.786 -8.705,-3.134"
       style="fill:none;stroke:#231f20;stroke-width:0.75;stroke-linecap:round;stroke-linejoin:round;stroke-miterlimit:4;stroke-dasharray:none;stroke-opacity:1"
       id="path712" />
    <path
       d="m 492.992,657.951 c 0,0 -14.974,13.581 -19.5,20.545 -4.527,6.964 -11.492,22.633 -13.58,27.857 -2.09,5.223 -8.706,14.625 -21.938,12.187 -13.232,-2.437 -30.991,-10.098 -41.09,-14.624 0,0 27.858,6.267 37.956,4.178 10.098,-2.09 21.589,-13.928 27.857,-22.634 6.268,-8.706 17.759,-23.331 30.295,-27.509 z"
       style="fill:none;stroke:#231f20;stroke-width:0.5;stroke-linecap:butt;stroke-linejoin:miter;stroke-miterlimit:4;stroke-dasharray:none;stroke-opacity:1"
       id="path714" />
    <path
       d="m 319.629,466.089 c 0.349,-7.661 8.309,-29.255 11.443,-33.434 3.134,-4.178 15.321,-19.848 18.804,-26.464 3.482,-6.616 3.83,-15.67 1.044,-20.196"
       style="fill:none;stroke:#231f20;stroke-width:0.5;stroke-linecap:butt;stroke-linejoin:miter;stroke-miterlimit:4;stroke-dasharray:none;stroke-opacity:1"
       id="path716" />
    <path
       d="m 326.197,345.253 c -3.134,2.786 -8.756,9.149 -12.884,17.063 -4.179,8.009 -18.066,11.018 -33.931,3.768"
       style="fill:none;stroke:#231f20;stroke-width:0.5;stroke-linecap:butt;stroke-linejoin:miter;stroke-miterlimit:4;stroke-dasharray:none;stroke-opacity:1"
       id="path718" />
    <path
       d="m 494.037,615.817 c 0,0 -25.072,17.062 -30.644,22.634 0,0 4.527,-13.58 6.616,-26.117 2.09,-12.535 1.394,-24.375 2.09,-30.643 0.696,-6.268 3.482,-29.598 3.134,-35.169 0,0 2.205,20.755 5.92,34.125 4.062,14.626 9.245,24.218 11.839,29.25 0.93,1.806 2.554,4.887 1.045,5.92"
       style="fill:#706d6e;fill-opacity:1;fill-rule:nonzero;stroke:none;stroke-width:0.1"
       id="path720" />
    <path
       d="m 494.037,615.817 c 0,0 -25.072,17.062 -30.644,22.634 0,0 4.527,-13.58 6.616,-26.117 2.09,-12.535 1.394,-24.375 2.09,-30.643 0.696,-6.268 3.482,-29.598 3.134,-35.169 0,0 2.205,20.755 5.92,34.125 4.062,14.626 9.245,24.218 11.839,29.25 0.93,1.806 2.554,4.887 1.045,5.92 z"
       style="fill:none;stroke:#231f20;stroke-width:0.5;stroke-linecap:round;stroke-linejoin:round;stroke-miterlimit:4;stroke-dasharray:none;stroke-opacity:1"
       id="path722" />
    <path
       d="m 452.947,468.173 c -2.772,1.764 -9.75,-1.045 -15.669,-9.053 -5.92,-8.009 -6.965,-20.545 -4.876,-21.938 2.09,-1.392 12.885,5.223 17.76,12.884 4.875,7.661 6.616,15.67 2.785,18.107 z"
       style="fill:none;stroke:#231f20;stroke-width:0.5;stroke-linecap:butt;stroke-linejoin:miter;stroke-miterlimit:4;stroke-dasharray:none;stroke-opacity:1"
       id="path724" />
    <path
       d="m 399.67,428.825 c 0,-1.347 1.091,-2.438 2.438,-2.438 1.347,0 2.437,1.091 2.437,2.438 0,1.346 -1.09,2.437 -2.437,2.437 -1.347,0 -2.438,-1.091 -2.438,-2.437 z"
       style="fill:none;stroke:#231f20;stroke-width:0.5;stroke-linecap:butt;stroke-linejoin:miter;stroke-miterlimit:4;stroke-dasharray:none;stroke-opacity:1"
       id="path726" />
    <path
       d="m 383.304,423.602 c 0,-1.537 1.247,-2.786 2.785,-2.786 1.539,0 2.787,1.249 2.787,2.786 0,1.539 -1.248,2.785 -2.787,2.785 -1.538,0 -2.785,-1.246 -2.785,-2.785 z"
       style="fill:none;stroke:#231f20;stroke-width:0.5;stroke-linecap:butt;stroke-linejoin:miter;stroke-miterlimit:4;stroke-dasharray:none;stroke-opacity:1"
       id="path728" />
    <path
       d="m 396.884,703.916 c -9.053,-2.438 -40.741,-11.84 -66.161,-32.037 -25.419,-20.196 -34.125,-45.267 -41.437,-75.213 -7.313,-29.948 -0.348,-62.332 8.357,-82.529 8.705,-20.196 10.446,-21.241 11.84,-23.33 1.393,-2.089 5.223,-9.054 6.615,-12.536 1.394,-3.481 1.741,-11.839 1.741,-15.321 l 1.79,3.139 c 0,0 0.648,11.834 -6.665,25.067 -7.312,13.231 -15.321,34.821 -17.758,63.026 -2.438,28.205 3.482,71.734 36.214,97.85 32.732,26.116 63.027,30.991 84.964,28.205 0,0 5.845,-1.294 10.207,-3.662 5.231,-2.838 13.472,-9.222 20.088,-16.883 6.616,-7.66 18.455,-19.848 24.027,-24.026 5.572,-4.179 22.982,-16.367 25.42,-17.759 6.964,-2.786 26.464,-9.75 33.428,-11.839 6.965,-2.09 9.054,-0.349 10.446,-0.349 1.394,0 3.483,-1.741 10.447,0.349 6.965,2.089 26.465,9.053 33.429,11.839 2.437,1.392 19.848,13.58 25.419,17.759 5.572,4.178 17.412,16.366 24.028,24.026 6.615,7.661 14.857,14.045 20.087,16.883 4.362,2.368 10.207,3.662 10.207,3.662 21.937,2.786 52.232,-2.089 84.965,-28.205 32.732,-26.116 38.652,-69.645 36.214,-97.85 -2.437,-28.205 -10.447,-49.795 -17.759,-63.026 -7.313,-13.233 -6.665,-25.067 -6.665,-25.067 l 1.79,-3.139 c 0,3.482 0.348,11.84 1.741,15.321 1.392,3.482 5.223,10.447 6.616,12.536 1.393,2.089 3.134,3.134 11.84,23.33 8.705,20.197 15.669,52.581 8.356,82.529 -7.312,29.946 -16.017,55.017 -41.437,75.213 -25.42,20.197 -57.108,29.599 -66.161,32.037"
       style="fill:none;stroke:#231f20;stroke-width:0.5;stroke-linecap:butt;stroke-linejoin:miter;stroke-miterlimit:4;stroke-dasharray:none;stroke-opacity:1"
       id="path730" />
    <path
       d="m 663.617,680.237 c 0,0 -6.836,-3.736 -11.258,-7.197 -5.993,-4.691 -8.939,-7.428 -13.465,-11.956 -4.527,-4.526 -15.67,-15.668 -20.196,-27.508 -4.528,-11.839 -6.616,-29.249 -7.313,-39.696 -0.697,-10.448 -4.875,-36.564 -4.875,-45.269 0,-8.705 1.393,-30.991 2.438,-41.786 1.044,-10.794 2.089,-20.197 1.044,-20.544 -1.044,-0.349 -2.785,15.669 -3.134,20.544 -0.348,4.875 -1.741,26.812 -2.438,32.036 -0.696,5.223 -4.178,26.812 -4.875,29.598 -0.696,2.786 -4.178,17.063 -5.919,21.243 -1.741,4.178 -8.706,18.802 -9.402,20.544 -0.696,1.741 -2.786,6.267 -0.348,7.661"
       style="fill:none;stroke:#231f20;stroke-width:0.5;stroke-linecap:butt;stroke-linejoin:miter;stroke-miterlimit:4;stroke-dasharray:none;stroke-opacity:1"
       id="path732" />
    <path
       d="m 416.384,680.237 c 0,0 6.837,-3.736 11.259,-7.197 5.993,-4.691 8.938,-7.428 13.465,-11.956 4.526,-4.526 15.67,-15.668 20.196,-27.508 4.527,-11.839 6.616,-29.249 7.313,-39.696 0.696,-10.448 4.875,-36.564 4.875,-45.269 0,-8.705 -1.393,-30.991 -2.438,-41.786 -1.045,-10.794 -2.089,-20.197 -1.045,-20.544 1.045,-0.349 2.786,15.669 3.134,20.544 0.349,4.875 1.741,26.812 2.438,32.036 0.697,5.223 4.178,26.812 4.875,29.598 0.697,2.786 4.178,17.063 5.92,21.243 1.741,4.178 8.705,18.802 9.402,20.544 0.696,1.741 2.785,6.267 0.348,7.661"
       style="fill:none;stroke:#231f20;stroke-width:0.5;stroke-linecap:butt;stroke-linejoin:miter;stroke-miterlimit:4;stroke-dasharray:none;stroke-opacity:1"
       id="path734" />
    <path
       d="m 543.832,652.728 c 0,-2.115 -1.716,-3.831 -3.832,-3.831 -2.115,0 -3.83,1.716 -3.83,3.831 0,2.115 1.715,3.83 3.83,3.83 2.116,0 3.832,-1.715 3.832,-3.83"
       style="fill:#ffffff;fill-opacity:1;fill-rule:nonzero;stroke:none;stroke-width:0.1"
       id="path736" />
    <path
       d="m 543.832,652.728 c 0,-2.115 -1.716,-3.831 -3.832,-3.831 -2.115,0 -3.83,1.716 -3.83,3.831 0,2.115 1.715,3.83 3.83,3.83 2.116,0 3.832,-1.715 3.832,-3.83 z"
       style="fill:none;stroke:#231f20;stroke-width:0.5;stroke-linecap:butt;stroke-linejoin:miter;stroke-miterlimit:4;stroke-dasharray:none;stroke-opacity:1"
       id="path738" />
    <path
       d="m 541.775,759.079 81.553,-47.236"
       style="fill:none;stroke:#231f20;stroke-width:0.5;stroke-linecap:round;stroke-linejoin:round;stroke-miterlimit:4;stroke-dasharray:2.8, 1.8;stroke-dashoffset:0;stroke-opacity:1"
       id="path740" />
    <path
       d="M 588.33,824.029 634.016,718.552"
       style="fill:none;stroke:#231f20;stroke-width:0.5;stroke-linecap:round;stroke-linejoin:round;stroke-miterlimit:4;stroke-dasharray:2.8, 1.8;stroke-dashoffset:0;stroke-opacity:1"
       id="path742" />
    <path
       d="M 662.941,831.732 654.517,715.261"
       style="fill:none;stroke:#231f20;stroke-width:0.5;stroke-linecap:round;stroke-linejoin:round;stroke-miterlimit:4;stroke-dasharray:2.8, 1.8;stroke-dashoffset:0;stroke-opacity:1"
       id="path744" />
    <path
       d="M 726.271,821.529 694.238,700.54"
       style="fill:none;stroke:#231f20;stroke-width:0.5;stroke-linecap:round;stroke-linejoin:round;stroke-miterlimit:4;stroke-dasharray:2.8, 1.8;stroke-dashoffset:0;stroke-opacity:1"
       id="path746" />
    <path
       d="m 834.783,759.517 -82.531,-90.09"
       style="fill:none;stroke:#231f20;stroke-width:0.5;stroke-linecap:round;stroke-linejoin:round;stroke-miterlimit:4;stroke-dasharray:2.8, 1.8;stroke-dashoffset:0;stroke-opacity:1"
       id="path748" />
    <path
       d="M 849.925,744.321 761.694,660.247"
       style="fill:none;stroke:#231f20;stroke-width:0.5;stroke-linecap:round;stroke-linejoin:round;stroke-miterlimit:4;stroke-dasharray:2.8, 1.8;stroke-dashoffset:0;stroke-opacity:1"
       id="path750" />
    <path
       d="M 885.097,695.759 776.994,637.508"
       style="fill:none;stroke:#231f20;stroke-width:0.5;stroke-linecap:round;stroke-linejoin:round;stroke-miterlimit:4;stroke-dasharray:2.8, 1.8;stroke-dashoffset:0;stroke-opacity:1"
       id="path752" />
    <path
       d="M 894.305,677.177 781.342,627.667"
       style="fill:none;stroke:#231f20;stroke-width:0.5;stroke-linecap:round;stroke-linejoin:round;stroke-miterlimit:4;stroke-dasharray:2.8, 1.8;stroke-dashoffset:0;stroke-opacity:1"
       id="path754" />
    <path
       d="M 538.227,759.079 456.674,711.843"
       style="fill:none;stroke:#231f20;stroke-width:0.5;stroke-linecap:round;stroke-linejoin:round;stroke-miterlimit:4;stroke-dasharray:2.8, 1.8;stroke-dashoffset:0;stroke-opacity:1"
       id="path756" />
    <path
       d="M 491.672,824.029 445.986,718.552"
       style="fill:none;stroke:#231f20;stroke-width:0.5;stroke-linecap:round;stroke-linejoin:round;stroke-miterlimit:4;stroke-dasharray:2.8, 1.8;stroke-dashoffset:0;stroke-opacity:1"
       id="path758" />
    <path
       d="m 417.06,831.732 8.424,-116.471"
       style="fill:none;stroke:#231f20;stroke-width:0.5;stroke-linecap:round;stroke-linejoin:round;stroke-miterlimit:4;stroke-dasharray:2.8, 1.8;stroke-dashoffset:0;stroke-opacity:1"
       id="path760" />
    <path
       d="M 353.73,821.529 385.763,700.54"
       style="fill:none;stroke:#231f20;stroke-width:0.5;stroke-linecap:round;stroke-linejoin:round;stroke-miterlimit:4;stroke-dasharray:2.8, 1.8;stroke-dashoffset:0;stroke-opacity:1"
       id="path762" />
    <path
       d="m 245.219,759.517 82.531,-90.09"
       style="fill:none;stroke:#231f20;stroke-width:0.5;stroke-linecap:round;stroke-linejoin:round;stroke-miterlimit:4;stroke-dasharray:2.8, 1.8;stroke-dashoffset:0;stroke-opacity:1"
       id="path764" />
    <path
       d="m 230.076,744.321 88.231,-84.074"
       style="fill:none;stroke:#231f20;stroke-width:0.5;stroke-linecap:round;stroke-linejoin:round;stroke-miterlimit:4;stroke-dasharray:2.8, 1.8;stroke-dashoffset:0;stroke-opacity:1"
       id="path766" />
    <path
       d="M 194.905,695.759 303.008,637.508"
       style="fill:none;stroke:#231f20;stroke-width:0.5;stroke-linecap:round;stroke-linejoin:round;stroke-miterlimit:4;stroke-dasharray:2.8, 1.8;stroke-dashoffset:0;stroke-opacity:1"
       id="path768" />
    <path
       d="M 185.696,677.177 298.66,627.667"
       style="fill:none;stroke:#231f20;stroke-width:0.5;stroke-linecap:round;stroke-linejoin:round;stroke-miterlimit:4;stroke-dasharray:2.8, 1.8;stroke-dashoffset:0;stroke-opacity:1"
       id="path770" />
    <path
       d="m 792.553,551.825 c 0.6,-8.089 3.037,-45.697 3.037,-51.964 0,-6.268 -0.927,-12.415 -3.481,-21.417 -1.506,-5.308 -3.171,-8.931 -6.501,-13.232 -2.527,-3.264 -4.643,-5.572 -12.303,-6.036 -4.873,-0.295 -11.143,3.774 -11.143,3.774"
       style="fill:none;stroke:#231f20;stroke-width:0.5;stroke-linecap:round;stroke-linejoin:round;stroke-miterlimit:4;stroke-dasharray:2.8, 1.8;stroke-dashoffset:0;stroke-opacity:1"
       id="path772" />
    <path
       d="m 766.339,483.408 c 2.661,4.885 8.254,11.354 11.144,13.667 5.224,4.178 15.628,5.906 18.065,1.031"
       style="fill:none;stroke:#231f20;stroke-width:0.5;stroke-linecap:round;stroke-linejoin:round;stroke-miterlimit:4;stroke-dasharray:2.8, 1.8;stroke-dashoffset:0;stroke-opacity:1"
       id="path774" />
    <path
       d="m 792.736,549.279 c 24.096,-12.159 65,-28.335 100.959,-34.35"
       style="fill:none;stroke:#231f20;stroke-width:0.5;stroke-linecap:round;stroke-linejoin:round;stroke-miterlimit:4;stroke-dasharray:2.8, 1.8;stroke-dashoffset:0;stroke-opacity:1"
       id="path776" />
    <path
       d="m 794.395,523.542 c 11.99,-6.271 58.36,-25.479 87.93,-32.241"
       style="fill:none;stroke:#231f20;stroke-width:0.5;stroke-linecap:round;stroke-linejoin:round;stroke-miterlimit:4;stroke-dasharray:2.8, 1.8;stroke-dashoffset:0;stroke-opacity:1"
       id="path778" />
    <path
       d="m 795.545,501.95 c 12.233,-8.009 27.255,-19.263 72.847,-34.354"
       style="fill:none;stroke:#231f20;stroke-width:0.5;stroke-linecap:round;stroke-linejoin:round;stroke-miterlimit:4;stroke-dasharray:2.8, 1.8;stroke-dashoffset:0;stroke-opacity:1"
       id="path780" />
    <path
       d="m 791.314,475.864 c 16.313,-9.832 37.417,-20.261 64.407,-31.446"
       style="fill:none;stroke:#231f20;stroke-width:0.5;stroke-linecap:round;stroke-linejoin:round;stroke-miterlimit:4;stroke-dasharray:2.8, 1.8;stroke-dashoffset:0;stroke-opacity:1"
       id="path782" />
    <path
       d="m 774.457,459.265 c 12.574,-8.537 58.213,-36.936 71.187,-44.135"
       style="fill:none;stroke:#231f20;stroke-width:0.5;stroke-linecap:round;stroke-linejoin:round;stroke-miterlimit:4;stroke-dasharray:2.8, 1.8;stroke-dashoffset:0;stroke-opacity:1"
       id="path784" />
    <path
       d="m 729.082,385.995 c 2.786,-4.528 6.267,-3.134 9.401,2.437 3.135,5.571 15.36,28.1 26.851,31.93"
       style="fill:none;stroke:#231f20;stroke-width:0.5;stroke-linecap:round;stroke-linejoin:round;stroke-miterlimit:4;stroke-dasharray:2.8, 1.8;stroke-dashoffset:0;stroke-opacity:1"
       id="path786" />
    <path
       d="m 748.93,432.655 c 2.785,-3.482 5.919,-8.705 8.705,-10.098 1.97,-0.985 4.527,-2.786 12.884,-2.09 8.357,0.698 17.411,1.394 19.152,5.224 1.741,3.83 0.494,16.681 -15.214,33.574"
       style="fill:none;stroke:#231f20;stroke-width:0.5;stroke-linecap:round;stroke-linejoin:round;stroke-miterlimit:4;stroke-dasharray:2.8, 1.8;stroke-dashoffset:0;stroke-opacity:1"
       id="path788" />
    <path
       d="m 600.404,563.962 c -4.689,-2.467 -11.654,-11.521 -13.046,-17.44 -1.393,-5.92 0,-14.625 -1.741,-17.411 -1.741,-2.786 -2.785,-11.84 -2.785,-14.625 0,-2.786 1.044,-4.528 4.178,-4.528"
       style="fill:none;stroke:#231f20;stroke-width:0.5;stroke-linecap:round;stroke-linejoin:round;stroke-miterlimit:4;stroke-dasharray:2.8, 1.8;stroke-dashoffset:0;stroke-opacity:1"
       id="path790" />
    <path
       d="m 552.188,541.995 c 3.902,1.952 6.965,-3.134 9.402,-8.358 2.438,-5.222 9.266,-26.127 4.179,-28.901 -3.831,-2.09 -11.143,13.232 -12.187,16.017 -1.045,2.789 -5.573,19.153 -1.394,21.242 z"
       style="fill:none;stroke:#231f20;stroke-width:0.5;stroke-linecap:round;stroke-linejoin:round;stroke-miterlimit:4;stroke-dasharray:2.8, 1.8;stroke-dashoffset:0;stroke-opacity:1"
       id="path792" />
    <path
       d="m 606.002,519.399 c -4.367,0.658 -11.332,0.309 -15.162,-4.565 -3.83,-4.876 -5.92,-11.143 -9.053,-14.277 -3.134,-3.134 -6.964,-6.267 -8.358,-10.446 -1.392,-4.179 -3.83,-6.268 -4.875,-9.75 -1.045,-3.483 -2.437,-13.233 0.696,-19.153 3.134,-5.918 1.742,-9.401 2.09,-12.535 0.348,-3.133 0.348,-9.053 5.92,-12.536 0,0 3.134,-2.785 2.785,-9.401 -0.347,-6.616 6.268,-29.25 20.545,-36.563 14.277,-7.312 16.018,-10.795 16.018,-10.795"
       style="fill:none;stroke:#231f20;stroke-width:0.5;stroke-linecap:round;stroke-linejoin:round;stroke-miterlimit:4;stroke-dasharray:2.8, 1.8;stroke-dashoffset:0;stroke-opacity:1"
       id="path794" />
    <path
       d="m 570.547,484.463 c 2.535,-7.932 4.276,-16.29 4.276,-21.165 0,-4.875 2.785,-11.142 3.134,-13.581 0.347,-2.437 0.347,-10.446 -0.697,-13.58"
       style="fill:none;stroke:#231f20;stroke-width:0.5;stroke-linecap:round;stroke-linejoin:round;stroke-miterlimit:4;stroke-dasharray:2.8, 1.8;stroke-dashoffset:0;stroke-opacity:1"
       id="path796" />
    <path
       d="m 608.755,508.898 c 9.594,-11.127 37.452,-33.226 53.469,-44.021 16.018,-10.795 27.161,-20.196 25.071,-30.991 -2.088,-10.795 -16.598,-24.852 -30.991,-23.516 -19.182,1.78 -37.606,11.142 -46.66,25.071 -9.054,13.929 -12.44,37.106 -0.823,54.767"
       style="fill:none;stroke:#231f20;stroke-width:0.5;stroke-linecap:round;stroke-linejoin:round;stroke-miterlimit:4;stroke-dasharray:2.8, 1.8;stroke-dashoffset:0;stroke-opacity:1"
       id="path798" />
    <path
       d="m 287.449,551.825 c -0.601,-8.089 -3.038,-45.697 -3.038,-51.964 0,-6.268 0.927,-12.415 3.482,-21.417 1.506,-5.308 3.171,-8.931 6.501,-13.232 2.526,-3.264 4.642,-5.572 12.303,-6.036 4.872,-0.295 11.142,3.774 11.142,3.774"
       style="fill:none;stroke:#231f20;stroke-width:0.5;stroke-linecap:round;stroke-linejoin:round;stroke-miterlimit:4;stroke-dasharray:2.8, 1.8;stroke-dashoffset:0;stroke-opacity:1"
       id="path800" />
    <path
       d="M 284.456,501.95 C 272.223,493.941 257.202,482.687 211.61,467.596"
       style="fill:none;stroke:#231f20;stroke-width:0.5;stroke-linecap:round;stroke-linejoin:round;stroke-miterlimit:4;stroke-dasharray:2.8, 1.8;stroke-dashoffset:0;stroke-opacity:1"
       id="path802" />
    <path
       d="M 288.687,475.864 C 272.375,466.032 251.271,455.603 224.28,444.418"
       style="fill:none;stroke:#231f20;stroke-width:0.5;stroke-linecap:round;stroke-linejoin:round;stroke-miterlimit:4;stroke-dasharray:2.8, 1.8;stroke-dashoffset:0;stroke-opacity:1"
       id="path804" />
    <path
       d="M 305.544,459.265 C 292.971,450.728 247.332,422.329 234.358,415.13"
       style="fill:none;stroke:#231f20;stroke-width:0.5;stroke-linecap:round;stroke-linejoin:round;stroke-miterlimit:4;stroke-dasharray:2.8, 1.8;stroke-dashoffset:0;stroke-opacity:1"
       id="path806" />
    <path
       d="m 331.072,432.655 c -2.786,-3.482 -5.92,-8.705 -8.705,-10.098 -1.97,-0.985 -4.528,-2.786 -12.884,-2.09 -8.357,0.698 -17.411,1.394 -19.152,5.224 -1.742,3.83 -0.495,16.681 15.213,33.574"
       style="fill:none;stroke:#231f20;stroke-width:0.5;stroke-linecap:round;stroke-linejoin:round;stroke-miterlimit:4;stroke-dasharray:2.8, 1.8;stroke-dashoffset:0;stroke-opacity:1"
       id="path808" />
    <path
       d="m 471.246,508.898 c -9.593,-11.127 -37.451,-33.226 -53.469,-44.021 -16.018,-10.795 -27.16,-20.196 -25.071,-30.991 2.089,-10.795 16.598,-24.852 30.991,-23.516 19.183,1.78 37.607,11.142 46.661,25.071 9.054,13.929 12.44,37.106 0.823,54.767"
       style="fill:none;stroke:#231f20;stroke-width:0.5;stroke-linecap:round;stroke-linejoin:round;stroke-miterlimit:4;stroke-dasharray:2.8, 1.8;stroke-dashoffset:0;stroke-opacity:1"
       id="path810" />
    <path
       d="m 728.634,386.827 c -4.776,2.301 -14.177,8.918 -17.66,2.998 -3.482,-5.92 -1.392,-10.795 -11.839,-15.67 -10.446,-4.875 -17.062,0 -17.411,4.527 -0.348,4.526 0.696,9.75 -7.312,8.009 -8.009,-1.741 -25.42,-8.009 -30.992,-8.705 -5.571,-0.697 -17.41,1.74 -20.196,2.437 -2.786,0.697 -5.92,1.393 -6.616,-1.045 -0.696,-2.437 1.045,-5.92 3.134,-6.616 2.09,-0.696 7.661,-2.089 10.795,-4.526 3.133,-2.438 12.536,-3.135 18.107,-1.741 5.571,1.392 12.535,-2.09 18.108,-2.09 5.571,0 8.705,5.223 15.321,3.831 6.616,-1.394 22.634,-5.572 33.08,-2.438 10.446,3.134 18.836,9.239 16.208,17.852"
       style="fill:none;stroke:#231f20;stroke-width:0.5;stroke-linecap:round;stroke-linejoin:round;stroke-miterlimit:4;stroke-dasharray:2.8, 1.8;stroke-dashoffset:0;stroke-opacity:1"
       id="path812" />
    <path
       d="m 648.644,366.495 c -2.437,-2.438 -2.786,-12.188 3.134,-12.188 5.92,0 2.786,4.179 1.741,5.223 -1.045,1.045 -0.411,4.04 6.759,5.851"
       style="fill:none;stroke:#231f20;stroke-width:0.5;stroke-linecap:round;stroke-linejoin:round;stroke-miterlimit:4;stroke-dasharray:2.8, 1.8;stroke-dashoffset:0;stroke-opacity:1"
       id="path814" />
    <path
       d="m 619.742,372.762 c -1.742,-1.392 -0.697,-2.786 1.045,-3.134 1.741,-0.348 3.83,-1.392 1.392,-2.786 -2.437,-1.392 -3.481,-3.481 -1.044,-4.178 2.438,-0.697 9.053,-2.089 9.402,5.572"
       style="fill:none;stroke:#231f20;stroke-width:0.5;stroke-linecap:round;stroke-linejoin:round;stroke-miterlimit:4;stroke-dasharray:2.8, 1.8;stroke-dashoffset:0;stroke-opacity:1"
       id="path816" />
    <path
       d="m 666.752,364.405 c 3.83,-0.348 8.356,-1.393 10.097,-3.134 1.741,-1.741 5.224,-5.571 9.403,-5.223 4.177,0.348 8.615,5.087 2.566,10.727"
       style="fill:none;stroke:#231f20;stroke-width:0.5;stroke-linecap:round;stroke-linejoin:round;stroke-miterlimit:4;stroke-dasharray:2.8, 1.8;stroke-dashoffset:0;stroke-opacity:1"
       id="path818" />
    <path
       d="m 734.653,429.521 c 2.805,0.112 -2.049,-8.395 -4.875,-12.884 -2.96,-4.701 -5.571,-9.75 -5.92,-14.276 -0.348,-4.527 1.467,-12.46 -1.704,-12.15 -3.171,0.31 -3.171,8.667 -1.778,15.631 1.393,6.965 5.572,23.334 14.277,23.679 z"
       style="fill:none;stroke:#231f20;stroke-width:0.5;stroke-linecap:round;stroke-linejoin:round;stroke-miterlimit:4;stroke-dasharray:2.8, 1.8;stroke-dashoffset:0;stroke-opacity:1"
       id="path820" />
    <path
       d="m 731.831,380.078 c 5.956,-2.441 9.089,-5.575 11.876,-10.45 2.786,-4.875 9.053,-19.5 10.098,-24.375"
       style="fill:none;stroke:#231f20;stroke-width:0.5;stroke-linecap:round;stroke-linejoin:round;stroke-miterlimit:4;stroke-dasharray:2.8, 1.8;stroke-dashoffset:0;stroke-opacity:1"
       id="path822" />
    <path
       d="m 590.719,385.757 c 1.859,-2.785 2.443,-6.379 2.443,-8.003 0,-1.624 -0.465,-4.41 1.857,-6.733 2.321,-2.32 19.268,-16.481 27.857,-19.266 8.589,-2.786 19.498,-3.713 32.5,-4.178 13,-0.465 33.893,-1.162 39.232,-0.465 5.339,0.696 13.465,3.944 17.644,5.571 4.178,1.624 10.134,3.196 12.303,1.161 2.285,-2.146 4.418,-4.575 5.571,-6.267 1.054,-1.548 3.068,-3.361 4.179,-2.787 1.915,0.986 -0.431,7.208 -1.393,10.213 -1.393,4.353 0,10.215 2.553,11.143 2.553,0.931 6.095,-0.928 6.733,-0.462 0.638,0.462 -1.858,4.409 -0.465,5.337 1.393,0.931 4.412,0.931 7.43,1.393 3.016,0.465 6.035,1.044 6.499,3.716 0.436,2.514 2.088,6.961 3.714,9.285 1.626,2.321 10.679,12.536 19.037,10.677 8.357,-1.854 16.016,-5.571 23.91,-4.409 7.892,1.161 11.839,4.875 14.625,12.07 2.785,7.199 10.551,21.997 13.751,20.093 2.001,-1.188 3.891,-1.638 0.41,-9.994 -3.483,-8.357 -6.616,-16.366 -12.885,-22.635 -6.267,-6.267 -20.544,-12.187 -28.553,-8.356 -8.009,3.83 -15.676,7.389 -20.197,2.089 -5.049,-5.92 -8.009,-10.795 -10.446,-14.277 -2.438,-3.482 -3.366,-5.686 -5.223,-6.616 -1.857,-0.928 -5.462,0.392 -7.026,-0.618 -1.564,-1.006 -1.46,-2.59 -0.867,-4.257 0.928,-2.612 -1.393,-4.41 -3.483,-2.552 -2.089,1.856 -3.48,2.321 -5.106,0.928 -1.625,-1.393 -0.697,-3.714 0.231,-5.106 0.929,-1.393 3.251,-5.572 4.411,-7.199 1.161,-1.624 0.548,-4.837 -2.229,-5.827 -2.778,-0.987 -6.822,-2.065 -10.073,1.883 -3.251,3.944 -4.411,8.357 -8.358,8.819 -3.947,0.465 -8.125,-1.392 -8.357,-4.41 -0.233,-3.016 -0.755,-14.285 -3.734,-14.858 -2.979,-0.571 -4.16,0.699 -4.856,2.788 -0.696,2.089 -2.554,7.892 -10.679,7.195 -8.125,-0.696 -24.375,-2.089 -34.125,-1.857 -9.75,0.233 -28.785,-0.928 -42.017,6.964 -13.232,7.894 -32.732,26.002 -37.607,31.573"
       style="fill:none;stroke:#231f20;stroke-width:0.5;stroke-linecap:round;stroke-linejoin:round;stroke-miterlimit:4;stroke-dasharray:2.8, 1.8;stroke-dashoffset:0;stroke-opacity:1"
       id="path824" />
    <path
       d="m 576.912,401.665 c 2.09,-2.561 6.333,-7.572 8.124,-9.286 1.678,-1.605 6.05,-5.862 6.159,-8.156 0.109,-2.29 -0.123,-5.772 -2.677,-7.165 -2.553,-1.393 -6.268,-1.855 -9.518,1.161 -3.248,3.018 -9.516,9.051 -10.91,10.678 -1.392,1.624 -3.018,3.944 -2.321,6.965 0.696,3.016 3.017,4.643 3.945,5.34 0.93,0.696 5.09,3.044 7.198,0.463 z"
       style="fill:none;stroke:#231f20;stroke-width:0.5;stroke-linecap:round;stroke-linejoin:round;stroke-miterlimit:4;stroke-dasharray:2.8, 1.8;stroke-dashoffset:0;stroke-opacity:1"
       id="path826" />
    <path
       d="m 588.423,389.046 c 2.65,-0.614 9.117,1.007 12.847,0.776"
       style="fill:none;stroke:#231f20;stroke-width:0.5;stroke-linecap:round;stroke-linejoin:round;stroke-miterlimit:4;stroke-dasharray:2.8, 1.8;stroke-dashoffset:0;stroke-opacity:1"
       id="path828" />
    <path
       d="m 565.913,392.498 c -0.144,-1.743 -0.758,-5.6 0.013,-7.85"
       style="fill:none;stroke:#231f20;stroke-width:0.5;stroke-linecap:round;stroke-linejoin:round;stroke-miterlimit:4;stroke-dasharray:2.8, 1.8;stroke-dashoffset:0;stroke-opacity:1"
       id="path830" />
    <path
       d="m 482.432,575.772 c 8.009,7.66 39.113,22.287 43.64,23.68 4.527,1.392 11.143,2.785 13.928,2.785 2.787,0 9.403,-1.393 13.929,-2.785 4.528,-1.393 35.631,-16.02 43.64,-23.68"
       style="fill:none;stroke:#231f20;stroke-width:0.5;stroke-linecap:round;stroke-linejoin:round;stroke-miterlimit:4;stroke-dasharray:2.8, 1.8;stroke-dashoffset:0;stroke-opacity:1"
       id="path832" />
    <path
       d="m 529.554,606.068 c -1.741,-3.134 -6.267,-9.402 -5.571,-19.85 0.696,-10.446 8.009,-22.982 16.017,-22.982 8.009,0 15.322,12.536 16.019,22.982 0.696,10.448 -3.831,16.716 -5.572,19.85"
       style="fill:none;stroke:#231f20;stroke-width:0.5;stroke-linecap:round;stroke-linejoin:round;stroke-miterlimit:4;stroke-dasharray:2.8, 1.8;stroke-dashoffset:0;stroke-opacity:1"
       id="path834" />
    <path
       d="m 313.663,483.408 c -2.662,4.885 -8.254,11.354 -11.145,13.667 -5.223,4.178 -15.627,5.906 -18.064,1.031"
       style="fill:none;stroke:#231f20;stroke-width:0.5;stroke-linecap:round;stroke-linejoin:round;stroke-miterlimit:4;stroke-dasharray:2.8, 1.8;stroke-dashoffset:0;stroke-opacity:1"
       id="path836" />
    <path
       d="M 287.266,549.279 C 263.169,537.12 222.265,520.944 186.307,514.929"
       style="fill:none;stroke:#231f20;stroke-width:0.5;stroke-linecap:round;stroke-linejoin:round;stroke-miterlimit:4;stroke-dasharray:2.8, 1.8;stroke-dashoffset:0;stroke-opacity:1"
       id="path838" />
    <path
       d="m 285.607,523.542 c -11.99,-6.271 -58.36,-25.479 -87.93,-32.241"
       style="fill:none;stroke:#231f20;stroke-width:0.5;stroke-linecap:round;stroke-linejoin:round;stroke-miterlimit:4;stroke-dasharray:2.8, 1.8;stroke-dashoffset:0;stroke-opacity:1"
       id="path840" />
    <path
       d="m 350.92,385.995 c -2.786,-4.528 -6.268,-3.134 -9.402,2.437 -3.134,5.571 -15.359,28.1 -26.85,31.93"
       style="fill:none;stroke:#231f20;stroke-width:0.5;stroke-linecap:round;stroke-linejoin:round;stroke-miterlimit:4;stroke-dasharray:2.8, 1.8;stroke-dashoffset:0;stroke-opacity:1"
       id="path842" />
    <path
       d="m 479.598,563.962 c 4.689,-2.467 11.652,-11.521 13.045,-17.44 1.394,-5.92 0,-14.625 1.741,-17.411 1.742,-2.786 2.786,-11.84 2.786,-14.625 0,-2.786 -1.044,-4.528 -4.178,-4.528"
       style="fill:none;stroke:#231f20;stroke-width:0.5;stroke-linecap:round;stroke-linejoin:round;stroke-miterlimit:4;stroke-dasharray:2.8, 1.8;stroke-dashoffset:0;stroke-opacity:1"
       id="path844" />
    <path
       d="m 527.813,541.995 c -3.902,1.952 -6.964,-3.134 -9.401,-8.358 -2.438,-5.222 -9.266,-26.127 -4.179,-28.901 3.83,-2.09 11.143,13.232 12.187,16.017 1.045,2.789 5.572,19.153 1.393,21.242 z"
       style="fill:none;stroke:#231f20;stroke-width:0.5;stroke-linecap:round;stroke-linejoin:round;stroke-miterlimit:4;stroke-dasharray:2.8, 1.8;stroke-dashoffset:0;stroke-opacity:1"
       id="path846" />
    <path
       d="m 540,430.217 c -2.785,0 -3.83,-2.785 -3.83,-6.267 0,-6.964 -2.437,-13.233 -10.794,-18.804 -8.357,-5.571 -14.277,3.831 -15.322,8.706 -1.045,4.875 5.224,18.106 9.054,27.16 3.83,9.054 2.786,22.634 1.392,32.384 -1.392,9.75 0.697,15.322 1.394,21.241 0.696,5.92 7.66,20.545 10.098,28.206 2.437,7.66 4.875,8.705 8.008,8.705 3.134,0 5.572,-1.045 8.009,-8.705 2.438,-7.661 9.403,-22.286 10.099,-28.206 0.696,-5.919 2.786,-11.491 1.392,-21.241 -1.392,-9.75 -2.437,-23.33 1.394,-32.384 3.83,-9.054 10.098,-22.285 9.053,-27.16 -1.044,-4.875 -6.964,-14.277 -15.321,-8.706 -8.357,5.571 -10.794,11.84 -10.794,18.804 0,3.482 -1.045,6.267 -3.832,6.267 z"
       style="fill:none;stroke:#231f20;stroke-width:0.5;stroke-linecap:round;stroke-linejoin:round;stroke-miterlimit:4;stroke-dasharray:2.8, 1.8;stroke-dashoffset:0;stroke-opacity:1"
       id="path848" />
    <path
       d="m 474,519.399 c 4.367,0.658 11.331,0.309 15.162,-4.565 3.83,-4.876 5.919,-11.143 9.053,-14.277 3.134,-3.134 6.964,-6.267 8.357,-10.446 1.393,-4.179 3.831,-6.268 4.875,-9.75 1.045,-3.483 2.437,-13.233 -0.697,-19.153 -3.133,-5.918 -1.741,-9.401 -2.088,-12.535 -0.349,-3.133 -0.349,-9.053 -5.92,-12.536 0,0 -3.134,-2.785 -2.786,-9.401 0.348,-6.616 -6.268,-29.25 -20.544,-36.563 -14.278,-7.312 -16.019,-10.795 -16.019,-10.795"
       style="fill:none;stroke:#231f20;stroke-width:0.5;stroke-linecap:round;stroke-linejoin:round;stroke-miterlimit:4;stroke-dasharray:2.8, 1.8;stroke-dashoffset:0;stroke-opacity:1"
       id="path850" />
    <path
       d="m 509.455,484.463 c -2.535,-7.932 -4.276,-16.29 -4.276,-21.165 0,-4.875 -2.786,-11.142 -3.134,-13.581 -0.348,-2.437 -0.348,-10.446 0.697,-13.58"
       style="fill:none;stroke:#231f20;stroke-width:0.5;stroke-linecap:round;stroke-linejoin:round;stroke-miterlimit:4;stroke-dasharray:2.8, 1.8;stroke-dashoffset:0;stroke-opacity:1"
       id="path852" />
    <path
       d="m 351.368,386.827 c 4.775,2.301 14.177,8.918 17.659,2.998 3.482,-5.92 1.393,-10.795 11.84,-15.67 10.446,-4.875 17.062,0 17.41,4.527 0.349,4.526 -0.696,9.75 7.312,8.009 8.01,-1.741 25.42,-8.009 30.992,-8.705 5.572,-0.697 17.411,1.74 20.197,2.437 2.785,0.697 5.919,1.393 6.615,-1.045 0.697,-2.437 -1.044,-5.92 -3.134,-6.616 -2.089,-0.696 -7.66,-2.089 -10.794,-4.526 -3.134,-2.438 -12.536,-3.135 -18.107,-1.741 -5.571,1.392 -12.536,-2.09 -18.108,-2.09 -5.571,0 -8.705,5.223 -15.321,3.831 -6.616,-1.394 -22.634,-5.572 -33.08,-2.438 -10.447,3.134 -18.837,9.239 -16.209,17.852"
       style="fill:none;stroke:#231f20;stroke-width:0.5;stroke-linecap:round;stroke-linejoin:round;stroke-miterlimit:4;stroke-dasharray:2.8, 1.8;stroke-dashoffset:0;stroke-opacity:1"
       id="path854" />
    <path
       d="m 431.358,366.495 c 2.437,-2.438 2.785,-12.188 -3.134,-12.188 -5.92,0 -2.786,4.179 -1.741,5.223 1.044,1.045 0.41,4.04 -6.759,5.851"
       style="fill:none;stroke:#231f20;stroke-width:0.5;stroke-linecap:round;stroke-linejoin:round;stroke-miterlimit:4;stroke-dasharray:2.8, 1.8;stroke-dashoffset:0;stroke-opacity:1"
       id="path856" />
    <path
       d="m 460.259,372.762 c 1.741,-1.392 0.697,-2.786 -1.044,-3.134 -1.741,-0.348 -3.831,-1.392 -1.393,-2.786 2.437,-1.392 3.482,-3.481 1.045,-4.178 -2.438,-0.697 -9.054,-2.089 -9.402,5.572"
       style="fill:none;stroke:#231f20;stroke-width:0.5;stroke-linecap:round;stroke-linejoin:round;stroke-miterlimit:4;stroke-dasharray:2.8, 1.8;stroke-dashoffset:0;stroke-opacity:1"
       id="path858" />
    <path
       d="m 413.25,364.405 c -3.83,-0.348 -8.357,-1.393 -10.098,-3.134 -1.74,-1.741 -5.223,-5.571 -9.402,-5.223 -4.178,0.348 -8.615,5.087 -2.566,10.727"
       style="fill:none;stroke:#231f20;stroke-width:0.5;stroke-linecap:round;stroke-linejoin:round;stroke-miterlimit:4;stroke-dasharray:2.8, 1.8;stroke-dashoffset:0;stroke-opacity:1"
       id="path860" />
    <path
       d="m 345.348,429.521 c -2.805,0.112 2.049,-8.395 4.875,-12.884 2.96,-4.701 5.572,-9.75 5.92,-14.276 0.349,-4.527 -1.466,-12.46 1.704,-12.15 3.171,0.31 3.171,8.667 1.779,15.631 -1.393,6.965 -5.572,23.334 -14.278,23.679 z"
       style="fill:none;stroke:#231f20;stroke-width:0.5;stroke-linecap:round;stroke-linejoin:round;stroke-miterlimit:4;stroke-dasharray:2.8, 1.8;stroke-dashoffset:0;stroke-opacity:1"
       id="path862" />
    <path
       d="m 348.171,380.078 c -5.957,-2.441 -9.09,-5.575 -11.876,-10.45 -2.786,-4.875 -9.053,-19.5 -10.098,-24.375"
       style="fill:none;stroke:#231f20;stroke-width:0.5;stroke-linecap:round;stroke-linejoin:round;stroke-miterlimit:4;stroke-dasharray:2.8, 1.8;stroke-dashoffset:0;stroke-opacity:1"
       id="path864" />
    <path
       d="m 489.283,385.757 c -1.859,-2.785 -2.444,-6.379 -2.444,-8.003 0,-1.624 0.466,-4.41 -1.856,-6.733 -2.322,-2.32 -19.268,-16.481 -27.857,-19.266 -8.59,-2.786 -19.5,-3.713 -32.5,-4.178 -13,-0.465 -33.894,-1.162 -39.233,-0.465 -5.339,0.696 -13.465,3.944 -17.643,5.571 -4.178,1.624 -10.135,3.196 -12.303,1.161 -2.285,-2.146 -4.418,-4.575 -5.571,-6.267 -1.055,-1.548 -3.068,-3.361 -4.179,-2.787 -1.915,0.986 0.429,7.208 1.392,10.213 1.394,4.353 0,10.215 -2.552,11.143 -2.553,0.931 -6.095,-0.928 -6.734,-0.462 -0.637,0.462 1.859,4.409 0.466,5.337 -1.393,0.931 -4.413,0.931 -7.43,1.393 -3.017,0.465 -6.035,1.044 -6.499,3.716 -0.436,2.514 -2.09,6.961 -3.714,9.285 -1.626,2.321 -10.68,12.536 -19.037,10.677 -8.357,-1.854 -16.016,-5.571 -23.91,-4.409 -7.893,1.161 -11.839,4.875 -14.625,12.07 -2.786,7.199 -10.551,21.997 -13.752,20.093 -2.001,-1.188 -3.891,-1.638 -0.409,-9.994 3.483,-8.357 6.616,-16.366 12.884,-22.635 6.267,-6.267 20.545,-12.187 28.554,-8.356 8.008,3.83 15.676,7.389 20.196,2.089 5.05,-5.92 8.009,-10.795 10.446,-14.277 2.438,-3.482 3.367,-5.686 5.224,-6.616 1.856,-0.928 5.461,0.392 7.025,-0.618 1.565,-1.006 1.461,-2.59 0.868,-4.257 -0.929,-2.612 1.393,-4.41 3.482,-2.552 2.09,1.856 3.481,2.321 5.106,0.928 1.626,-1.393 0.698,-3.714 -0.231,-5.106 -0.929,-1.393 -3.25,-5.572 -4.411,-7.199 -1.16,-1.624 -0.548,-4.837 2.229,-5.827 2.778,-0.987 6.823,-2.065 10.074,1.883 3.251,3.944 4.411,8.357 8.358,8.819 3.947,0.465 8.124,-1.392 8.356,-4.41 0.234,-3.016 0.755,-14.285 3.735,-14.858 2.978,-0.571 4.159,0.699 4.855,2.788 0.696,2.089 2.555,7.892 10.68,7.195 8.124,-0.696 24.375,-2.089 34.125,-1.857 9.75,0.233 28.784,-0.928 42.016,6.964 13.233,7.894 32.733,26.002 37.608,31.573"
       style="fill:none;stroke:#231f20;stroke-width:0.5;stroke-linecap:round;stroke-linejoin:round;stroke-miterlimit:4;stroke-dasharray:2.8, 1.8;stroke-dashoffset:0;stroke-opacity:1"
       id="path866" />
    <path
       d="m 503.09,401.665 c -2.09,-2.561 -6.334,-7.572 -8.125,-9.286 -1.678,-1.605 -6.049,-5.862 -6.159,-8.156 -0.108,-2.29 0.124,-5.772 2.677,-7.165 2.554,-1.393 6.268,-1.855 9.517,1.161 3.25,3.018 9.518,9.051 10.911,10.678 1.393,1.624 3.018,3.944 2.322,6.965 -0.696,3.016 -3.017,4.643 -3.946,5.34 -0.929,0.696 -5.09,3.044 -7.197,0.463 z"
       style="fill:none;stroke:#231f20;stroke-width:0.5;stroke-linecap:round;stroke-linejoin:round;stroke-miterlimit:4;stroke-dasharray:2.8, 1.8;stroke-dashoffset:0;stroke-opacity:1"
       id="path868" />
    <path
       d="m 491.579,389.046 c -2.65,-0.614 -9.117,1.007 -12.848,0.776"
       style="fill:none;stroke:#231f20;stroke-width:0.5;stroke-linecap:round;stroke-linejoin:round;stroke-miterlimit:4;stroke-dasharray:2.8, 1.8;stroke-dashoffset:0;stroke-opacity:1"
       id="path870" />
    <path
       d="m 514.088,392.498 c 0.145,-1.743 0.758,-5.6 -0.013,-7.85"
       style="fill:none;stroke:#231f20;stroke-width:0.5;stroke-linecap:round;stroke-linejoin:round;stroke-miterlimit:4;stroke-dasharray:2.8, 1.8;stroke-dashoffset:0;stroke-opacity:1"
       id="path872" />
    <path
       d="m 545.92,649.246 c 1.393,1.392 5.16,3.205 8.706,1.044"
       style="fill:none;stroke:#231f20;stroke-width:0.5;stroke-linecap:round;stroke-linejoin:round;stroke-miterlimit:4;stroke-dasharray:2.8, 1.8;stroke-dashoffset:0;stroke-opacity:1"
       id="path874" />
    <path
       d="m 534.082,649.246 c -1.394,1.392 -5.161,3.205 -8.706,1.044"
       style="fill:none;stroke:#231f20;stroke-width:0.5;stroke-linecap:round;stroke-linejoin:round;stroke-miterlimit:4;stroke-dasharray:2.8, 1.8;stroke-dashoffset:0;stroke-opacity:1"
       id="path876" />
  </g>
</svg>
