<?xml version="1.0" encoding="UTF-8" standalone="no"?>
<!-- Created with Inkscape (http://www.inkscape.org/) -->

<svg
   version="1.1"
   id="svg2"
   width="1440"
   height="1344"
   viewBox="0 0 1440 1344"
   xmlns="http://www.w3.org/2000/svg"
   xmlns:svg="http://www.w3.org/2000/svg">
  <defs
     id="defs6" />
  <g
     id="g10">
    <path
       d="m 540,490.458 c 0,-37.606 -7.661,-67.205 -12.536,-73.124 -4.176,-5.074 -17.08,-14.661 -27.615,-20.776 -10.535,-6.118 -8.836,-8.156 -23.107,-21.07 -14.272,-12.911 -31.263,-20.39 -42.478,-21.747 -11.216,-1.361 -23.107,-3.058 -28.885,0 -5.776,3.057 -35.001,8.496 -47.574,12.234 -12.574,3.737 -44.856,20.387 -68.643,35.341 -23.787,14.951 -29.904,24.125 -31.264,44.515 -1.359,20.391 -13.931,26.847 -35.68,71.705 -21.748,44.855 -26.506,101.604 -22.088,132.188 4.418,30.583 22.767,69.322 38.739,89.372 15.971,20.05 42.477,47.914 73.061,63.206 30.584,15.291 62.187,25.487 116.218,34.322 54.032,8.835 82.915,-4.078 93.109,-12.234 10.196,-8.155 18.743,-27.856 18.743,-34.661 0,6.805 8.548,26.506 18.742,34.661 10.196,8.156 39.079,21.069 93.109,12.234 54.033,-8.835 85.634,-19.031 116.22,-34.322 30.583,-15.292 57.088,-43.156 73.059,-63.206 15.972,-20.05 34.322,-58.789 38.74,-89.372 4.418,-30.584 -0.34,-87.333 -22.087,-132.188 -21.75,-44.858 -34.322,-51.314 -35.682,-71.704 -1.36,-20.388 -7.475,-29.562 -31.263,-44.516 -23.788,-14.951 -56.068,-31.604 -68.642,-35.341 -12.573,-3.738 -41.799,-9.177 -47.574,-12.234 -5.779,-3.058 -17.67,-1.358 -28.886,0 -11.214,1.36 -28.205,8.836 -42.477,21.75 -14.271,12.911 -12.574,14.951 -23.107,21.067 -10.536,6.118 -23.44,15.705 -27.615,20.776 C 547.662,423.253 540,452.852 540,490.458 Z m -6.686,152.728 c 3.345,-1.046 4.18,-4.18 4.433,-6.097 h 4.507 c 0.253,1.917 1.089,5.051 4.434,6.097 0,0 -6.688,4.164 -6.688,12.326 0,-8.162 -6.686,-12.326 -6.686,-12.326"
       style="fill:#ffffff;fill-opacity:1;fill-rule:nonzero;stroke:none;stroke-width:0.1"
       id="path670" />
    <path
       d="m 540,490.458 c 0,-37.606 -7.661,-67.205 -12.536,-73.124 -4.176,-5.074 -17.08,-14.661 -27.615,-20.776 -10.535,-6.118 -8.836,-8.156 -23.107,-21.07 -14.272,-12.911 -31.263,-20.39 -42.478,-21.747 -11.216,-1.361 -23.107,-3.058 -28.885,0 -5.776,3.057 -35.001,8.496 -47.574,12.234 -12.574,3.737 -44.856,20.387 -68.643,35.341 -23.787,14.951 -29.904,24.125 -31.264,44.515 -1.359,20.391 -13.931,26.847 -35.68,71.705 -21.748,44.855 -26.506,101.604 -22.088,132.188 4.418,30.583 22.767,69.322 38.739,89.372 15.971,20.05 42.477,47.914 73.061,63.206 30.584,15.291 62.187,25.487 116.218,34.322 54.032,8.835 82.915,-4.078 93.109,-12.234 10.196,-8.155 18.743,-27.856 18.743,-34.661 0,6.805 8.548,26.506 18.742,34.661 10.196,8.156 39.079,21.069 93.109,12.234 54.033,-8.835 85.634,-19.031 116.22,-34.322 30.583,-15.292 57.088,-43.156 73.059,-63.206 15.972,-20.05 34.322,-58.789 38.74,-89.372 4.418,-30.584 -0.34,-87.333 -22.087,-132.188 -21.75,-44.858 -34.322,-51.314 -35.682,-71.704 -1.36,-20.388 -7.475,-29.562 -31.263,-44.516 -23.788,-14.951 -56.068,-31.604 -68.642,-35.341 -12.573,-3.738 -41.799,-9.177 -47.574,-12.234 -5.779,-3.058 -17.67,-1.358 -28.886,0 -11.214,1.36 -28.205,8.836 -42.477,21.75 -14.271,12.911 -12.574,14.951 -23.107,21.067 -10.536,6.118 -23.44,15.705 -27.615,20.776 C 547.662,423.253 540,452.852 540,490.458 Z m -6.686,152.728 c 3.345,-1.046 4.18,-4.18 4.433,-6.097 h 4.507 c 0.253,1.917 1.089,5.051 4.434,6.097 0,0 -6.688,4.164 -6.688,12.326 0,-8.162 -6.686,-12.326 -6.686,-12.326 z"
       style="fill:none;stroke:#231f20;stroke-width:0.75;stroke-linecap:round;stroke-linejoin:round;stroke-miterlimit:4;stroke-dasharray:none;stroke-opacity:1"
       id="path672" />
    <path
       d="m 637.849,662.826 c -6.385,-5.339 -26.116,-32.036 -33.429,-41.438 -7.312,-9.401 -13.928,-17.061 -18.455,-21.59 -4.527,-4.526 -5.571,-7.774 -5.341,-11.722 0.232,-3.948 0.232,-9.983 1.163,-14.161 0.927,-4.179 6.963,-22.981 7.195,-27.625 0.231,-4.643 -0.465,-12.768 -0.928,-15.554 0,0 3.714,0.233 5.572,-0.696 l 0.927,1.16 c 0,0 0.697,33.198 2.555,50.84 1.855,17.643 5.688,33.544 13.35,43.759 7.66,10.214 15.163,19.838 17.252,22.392 2.089,2.553 10.139,14.635 10.139,14.635"
       style="fill:#b2b1b1;fill-opacity:1;fill-rule:nonzero;stroke:none;stroke-width:0.1"
       id="path674" />
    <path
       d="m 442.152,662.826 c 6.384,-5.339 26.116,-32.036 33.429,-41.438 7.312,-9.401 13.928,-17.061 18.455,-21.59 4.527,-4.526 5.57,-7.774 5.339,-11.722 -0.232,-3.948 -0.232,-9.983 -1.161,-14.161 -0.928,-4.179 -6.965,-22.981 -7.197,-27.625 -0.23,-4.643 0.466,-12.768 0.93,-15.554 0,0 -3.715,0.233 -5.572,-0.696 l -0.929,1.16 c 0,0 -0.696,33.198 -2.553,50.84 -1.856,17.643 -5.688,33.544 -13.35,43.759 -7.66,10.214 -15.163,19.838 -17.252,22.392 -2.089,2.553 -10.139,14.635 -10.139,14.635"
       style="fill:#b2b1b1;fill-opacity:1;fill-rule:nonzero;stroke:none;stroke-width:0.1"
       id="path676" />
    <path
       d="m 658.22,716.103 c 0,0 -18.282,11.665 -31.513,4.004 -13.233,-7.66 -14.625,-17.933 -17.759,-27.857 -3.135,-9.924 -9.054,-21.937 -18.979,-31.513 -9.924,-9.576 -12.361,-12.536 -22.807,-19.849 0,0 11.838,5.398 17.411,9.75 5.44,4.252 14.276,12.362 20.892,22.809 6.617,10.446 14.277,28.379 19.152,32.21 4.875,3.83 11.665,10.794 33.603,10.446 z"
       style="fill:none;stroke:#231f20;stroke-width:0.5;stroke-linecap:butt;stroke-linejoin:miter;stroke-miterlimit:4;stroke-dasharray:none;stroke-opacity:1"
       id="path678" />
    <path
       d="m 658.22,716.103 c 10.272,-5.224 49.62,-27.509 59.023,-34.125 9.401,-6.616 18.106,-10.795 26.464,-31.34 8.357,-20.544 13.928,-46.66 16.017,-59.893 0,0 2.438,-19.848 -14.276,-43.527 -16.717,-23.676 -21.938,-33.428 -24.028,-39.697 -2.088,-6.268 -4.177,-14.276 -4.177,-20.893 0,-6.616 -0.654,-19.957 -2.786,-22.982 -4.179,-5.919 -10.099,-16.366 -19.153,-22.634 0,0 15.67,20.196 16.715,25.42 1.045,5.224 2.786,35.518 5.92,45.616 3.134,10.099 9.054,18.804 16.366,40.393 7.313,21.59 7.313,44.92 3.482,67.903 -3.83,22.982 -13.58,32.732 -28.902,41.438 -15.321,8.705 -41.046,19.714 -58.848,9.75 -9.734,-5.448 -12.188,-8.706 -12.188,-8.706"
       style="fill:none;stroke:#231f20;stroke-width:0.5;stroke-linecap:butt;stroke-linejoin:miter;stroke-miterlimit:4;stroke-dasharray:none;stroke-opacity:1"
       id="path680" />
    <path
       d="m 594.088,602.934 c 2.278,0.206 2.786,-3.25 1.393,-9.983 -1.393,-6.733 -3.017,-20.887 -3.017,-25.536 0,-5.803 0.232,-22.287 0.232,-24.143 0,-1.856 -0.463,-9.054 -2.09,-9.054 -1.393,0 -0.462,8.59 -0.462,12.304 0,3.714 -3.482,18.108 -4.644,23.447 -1.162,5.339 -2.786,13.232 -2.554,16.714 0.233,3.483 0.696,9.054 3.019,11.143 2.321,2.09 5.569,4.875 8.123,5.108"
       style="fill:#706d6e;fill-opacity:1;fill-rule:nonzero;stroke:none;stroke-width:0.1"
       id="path682" />
    <path
       d="m 594.088,602.934 c 2.278,0.206 2.786,-3.25 1.393,-9.983 -1.393,-6.733 -3.017,-20.887 -3.017,-25.536 0,-5.803 0.232,-22.287 0.232,-24.143 0,-1.856 -0.463,-9.054 -2.09,-9.054 -1.393,0 -0.462,8.59 -0.462,12.304 0,3.714 -3.482,18.108 -4.644,23.447 -1.162,5.339 -2.786,13.232 -2.554,16.714 0.233,3.483 0.696,9.054 3.019,11.143 2.321,2.09 5.569,4.875 8.123,5.108 z"
       style="fill:none;stroke:#231f20;stroke-width:0.5;stroke-linecap:round;stroke-linejoin:round;stroke-miterlimit:4;stroke-dasharray:none;stroke-opacity:1"
       id="path684" />
    <path
       d="m 540,582.968 c 2.509,0 6.962,-0.176 10.961,-0.676 3.491,-0.481 7.272,-1.319 9.467,-2.573 3.972,-2.269 15.649,-5.31 20.477,2.103"
       style="fill:none;stroke:#231f20;stroke-width:0.5;stroke-linecap:butt;stroke-linejoin:miter;stroke-miterlimit:4;stroke-dasharray:none;stroke-opacity:1"
       id="path686" />
    <path
       d="m 649.803,466.665 c 4.499,-1.636 11.167,-8.062 11.376,-11.607 0.232,-3.947 -1.626,-8.819 -8.591,-7.195 -6.964,1.624 -19.265,9.747 -18.569,14.623 0.696,4.875 5.568,7.893 15.784,4.179 z"
       style="fill:none;stroke:#231f20;stroke-width:0.5;stroke-linecap:butt;stroke-linejoin:miter;stroke-miterlimit:4;stroke-dasharray:none;stroke-opacity:1"
       id="path688" />
    <path
       d="m 730.611,369.112 c 1.139,3.767 6.479,7.712 10.889,10.731 4.41,3.018 10.215,6.734 12.536,11.609 2.321,4.875 11.143,12.998 15.09,14.16 3.945,1.158 17.194,1.161 21.712,-4.296"
       style="fill:none;stroke:#231f20;stroke-width:0.5;stroke-linecap:butt;stroke-linejoin:miter;stroke-miterlimit:4;stroke-dasharray:none;stroke-opacity:1"
       id="path690" />
    <path
       d="m 547.011,421.861 c 0,-1.924 -1.403,-3.483 -3.134,-3.483 -1.73,0 -3.133,1.559 -3.133,3.483 0,1.923 1.403,3.481 3.133,3.481 1.731,0 3.134,-1.558 3.134,-3.481"
       style="fill:#ffffff;fill-opacity:1;fill-rule:nonzero;stroke:none;stroke-width:0.1"
       id="path692" />
    <path
       d="m 547.011,421.861 c 0,-1.924 -1.403,-3.483 -3.134,-3.483 -1.73,0 -3.133,1.559 -3.133,3.483 0,1.923 1.403,3.481 3.133,3.481 1.731,0 3.134,-1.558 3.134,-3.481 z"
       style="fill:none;stroke:#231f20;stroke-width:0.5;stroke-linecap:butt;stroke-linejoin:miter;stroke-miterlimit:4;stroke-dasharray:none;stroke-opacity:1"
       id="path694" />
    <path
       d="m 532.99,421.861 c 0,-1.924 1.402,-3.483 3.134,-3.483 1.73,0 3.134,1.559 3.134,3.483 0,1.923 -1.404,3.481 -3.134,3.481 -1.732,0 -3.134,-1.558 -3.134,-3.481"
       style="fill:#ffffff;fill-opacity:1;fill-rule:nonzero;stroke:none;stroke-width:0.1"
       id="path696" />
    <path
       d="m 532.99,421.861 c 0,-1.924 1.402,-3.483 3.134,-3.483 1.73,0 3.134,1.559 3.134,3.483 0,1.923 -1.404,3.481 -3.134,3.481 -1.732,0 -3.134,-1.558 -3.134,-3.481 z"
       style="fill:none;stroke:#231f20;stroke-width:0.5;stroke-linecap:butt;stroke-linejoin:miter;stroke-miterlimit:4;stroke-dasharray:none;stroke-opacity:1"
       id="path698" />
    <path
       d="m 512.839,640.888 c 9.498,-5.649 24.375,-8.009 27.161,-8.009 2.787,0 17.662,2.36 27.162,8.009"
       style="fill:none;stroke:#231f20;stroke-width:0.5;stroke-linecap:butt;stroke-linejoin:miter;stroke-miterlimit:4;stroke-dasharray:none;stroke-opacity:1"
       id="path700" />
    <path
       d="m 421.781,716.103 c 0,0 18.281,11.665 31.513,4.004 13.233,-7.66 14.625,-17.933 17.759,-27.857 3.134,-9.924 9.054,-21.937 18.978,-31.513 9.925,-9.576 12.362,-12.536 22.808,-19.849 0,0 -11.839,5.398 -17.411,9.75 -5.44,4.252 -14.276,12.362 -20.892,22.809 -6.617,10.446 -14.277,28.379 -19.152,32.21 -4.875,3.83 -11.666,10.794 -33.603,10.446 z"
       style="fill:none;stroke:#231f20;stroke-width:0.5;stroke-linecap:butt;stroke-linejoin:miter;stroke-miterlimit:4;stroke-dasharray:none;stroke-opacity:1"
       id="path702" />
    <path
       d="m 421.781,716.103 c -10.273,-5.224 -49.62,-27.509 -59.023,-34.125 -9.401,-6.616 -18.106,-10.795 -26.464,-31.34 -8.357,-20.544 -13.928,-46.66 -16.017,-59.893 0,0 -2.44,-19.848 14.276,-43.527 16.716,-23.676 21.938,-33.428 24.028,-39.697 2.088,-6.268 4.177,-14.276 4.177,-20.893 0,-6.616 0.653,-19.957 2.786,-22.982 4.179,-5.919 10.099,-16.366 19.152,-22.634 0,0 -15.669,20.196 -16.714,25.42 -1.045,5.224 -2.786,35.518 -5.92,45.616 -3.134,10.099 -9.054,18.804 -16.366,40.393 -7.313,21.59 -7.313,44.92 -3.482,67.903 3.83,22.982 13.58,32.732 28.902,41.438 15.321,8.705 41.045,19.714 58.848,9.75 9.734,-5.448 12.188,-8.706 12.188,-8.706"
       style="fill:none;stroke:#231f20;stroke-width:0.5;stroke-linecap:butt;stroke-linejoin:miter;stroke-miterlimit:4;stroke-dasharray:none;stroke-opacity:1"
       id="path704" />
    <path
       d="m 485.912,602.934 c -2.278,0.206 -2.786,-3.25 -1.394,-9.983 1.394,-6.733 3.018,-20.887 3.018,-25.536 0,-5.803 -0.232,-22.287 -0.232,-24.143 0,-1.856 0.464,-9.054 2.089,-9.054 1.394,0 0.464,8.59 0.464,12.304 0,3.714 3.481,18.108 4.643,23.447 1.162,5.339 2.787,13.232 2.554,16.714 -0.232,3.483 -0.696,9.054 -3.018,11.143 -2.323,2.09 -5.571,4.875 -8.124,5.108"
       style="fill:#706d6e;fill-opacity:1;fill-rule:nonzero;stroke:none;stroke-width:0.1"
       id="path706" />
    <path
       d="m 485.912,602.934 c -2.278,0.206 -2.786,-3.25 -1.394,-9.983 1.394,-6.733 3.018,-20.887 3.018,-25.536 0,-5.803 -0.232,-22.287 -0.232,-24.143 0,-1.856 0.464,-9.054 2.089,-9.054 1.394,0 0.464,8.59 0.464,12.304 0,3.714 3.481,18.108 4.643,23.447 1.162,5.339 2.787,13.232 2.554,16.714 -0.232,3.483 -0.696,9.054 -3.018,11.143 -2.323,2.09 -5.571,4.875 -8.124,5.108 z"
       style="fill:none;stroke:#231f20;stroke-width:0.5;stroke-linecap:round;stroke-linejoin:round;stroke-miterlimit:4;stroke-dasharray:none;stroke-opacity:1"
       id="path708" />
    <path
       d="m 540,582.968 c -2.508,0 -6.961,-0.176 -10.961,-0.676 -3.49,-0.481 -7.272,-1.319 -9.467,-2.573 -3.971,-2.269 -15.649,-5.31 -20.476,2.103"
       style="fill:none;stroke:#231f20;stroke-width:0.5;stroke-linecap:butt;stroke-linejoin:miter;stroke-miterlimit:4;stroke-dasharray:none;stroke-opacity:1"
       id="path710" />
    <path
       d="m 430.197,466.665 c -4.498,-1.636 -11.166,-8.062 -11.376,-11.61 -0.233,-3.947 1.626,-8.819 8.59,-7.195 6.965,1.624 19.267,9.75 18.571,14.625 -0.696,4.876 -5.57,7.894 -15.785,4.18 z"
       style="fill:none;stroke:#231f20;stroke-width:0.5;stroke-linecap:butt;stroke-linejoin:miter;stroke-miterlimit:4;stroke-dasharray:none;stroke-opacity:1"
       id="path712" />
    <path
       d="m 349.389,369.112 c -1.139,3.764 -6.48,7.712 -10.889,10.728 -4.411,3.021 -10.216,6.734 -12.537,11.609 -2.32,4.875 -11.142,13.001 -15.088,14.16 -3.947,1.161 -17.195,1.161 -21.713,-4.293"
       style="fill:none;stroke:#231f20;stroke-width:0.5;stroke-linecap:butt;stroke-linejoin:miter;stroke-miterlimit:4;stroke-dasharray:none;stroke-opacity:1"
       id="path714" />
    <path
       d="M 540,789.729 V 655.512"
       style="fill:none;stroke:#231f20;stroke-width:0.75;stroke-linecap:round;stroke-linejoin:round;stroke-miterlimit:4;stroke-dasharray:none;stroke-opacity:1"
       id="path716" />
    <path
       d="m 540,582.968 c 0,0 0,-54.902 0,-92.51"
       style="fill:none;stroke:#231f20;stroke-width:0.75;stroke-linecap:round;stroke-linejoin:round;stroke-miterlimit:4;stroke-dasharray:none;stroke-opacity:1"
       id="path718" />
    <path
       d="m 637.849,662.826 c -6.385,-5.339 -26.116,-32.036 -33.429,-41.438 -7.312,-9.401 -13.928,-17.061 -18.455,-21.59 -4.527,-4.526 -5.571,-7.774 -5.341,-11.722 0.232,-3.948 0.232,-9.983 1.163,-14.161 0.927,-4.179 6.963,-22.981 7.195,-27.625 0.231,-4.643 -0.465,-12.768 -0.928,-15.554 0,0 3.714,0.233 5.572,-0.696 l 0.927,1.16 c 0,0 0.697,33.198 2.555,50.84 1.855,17.643 5.688,33.544 13.35,43.759 7.66,10.214 15.163,19.838 17.252,22.392 2.089,2.553 10.139,14.635 10.139,14.635 z"
       style="fill:none;stroke:#231f20;stroke-width:0.5;stroke-linecap:butt;stroke-linejoin:miter;stroke-miterlimit:4;stroke-dasharray:none;stroke-opacity:1"
       id="path720" />
    <path
       d="m 442.152,662.826 c 6.384,-5.339 26.116,-32.036 33.429,-41.438 7.312,-9.401 13.928,-17.061 18.455,-21.59 4.527,-4.526 5.57,-7.774 5.339,-11.722 -0.232,-3.948 -0.232,-9.983 -1.161,-14.161 -0.928,-4.179 -6.965,-22.981 -7.197,-27.625 -0.23,-4.643 0.466,-12.768 0.93,-15.554 0,0 -3.715,0.233 -5.572,-0.696 l -0.929,1.16 c 0,0 -0.696,33.198 -2.553,50.84 -1.856,17.643 -5.688,33.544 -13.35,43.759 -7.66,10.214 -15.163,19.838 -17.252,22.392 -2.089,2.553 -10.139,14.635 -10.139,14.635 z"
       style="fill:none;stroke:#231f20;stroke-width:0.5;stroke-linecap:butt;stroke-linejoin:miter;stroke-miterlimit:4;stroke-dasharray:none;stroke-opacity:1"
       id="path722" />
    <path
       d="m 645.858,449.487 c 2.422,-1.412 7.37,-6.007 4.875,-9.054 -2.089,-2.555 -5.805,0 -7.66,1.393 -1.859,1.392 -5.806,4.875 -3.717,7.661 2.09,2.785 5.379,0.652 6.502,0 z"
       style="fill:none;stroke:#231f20;stroke-width:0.5;stroke-linecap:butt;stroke-linejoin:miter;stroke-miterlimit:4;stroke-dasharray:none;stroke-opacity:1"
       id="path724" />
    <path
       d="m 677.66,444.612 c -4.426,-3.646 4.413,-10.446 7.198,-6.965 2.786,3.482 -3.251,10.213 -7.198,6.965 z"
       style="fill:none;stroke:#231f20;stroke-width:0.5;stroke-linecap:butt;stroke-linejoin:miter;stroke-miterlimit:4;stroke-dasharray:none;stroke-opacity:1"
       id="path726" />
    <path
       d="m 434.143,449.484 c -2.423,-1.412 -7.37,-6.004 -4.875,-9.054 2.089,-2.552 5.804,0 7.66,1.393 1.857,1.393 5.805,4.875 3.715,7.661 -2.089,2.786 -5.378,0.655 -6.5,0 z"
       style="fill:none;stroke:#231f20;stroke-width:0.5;stroke-linecap:butt;stroke-linejoin:miter;stroke-miterlimit:4;stroke-dasharray:none;stroke-opacity:1"
       id="path728" />
    <path
       d="m 402.339,444.609 c 4.427,-3.643 -4.411,-10.446 -7.196,-6.965 -2.786,3.482 3.251,10.216 7.196,6.965 z"
       style="fill:none;stroke:#231f20;stroke-width:0.5;stroke-linecap:butt;stroke-linejoin:miter;stroke-miterlimit:4;stroke-dasharray:none;stroke-opacity:1"
       id="path730" />
    <path
       d="m 543.872,637.756 c 0,-1.976 -1.733,-3.58 -3.872,-3.58 -2.138,0 -3.873,1.604 -3.873,3.58 0,1.978 1.735,3.581 3.873,3.581 2.139,0 3.872,-1.603 3.872,-3.581"
       style="fill:#ffffff;fill-opacity:1;fill-rule:nonzero;stroke:none;stroke-width:0.1"
       id="path732" />
    <path
       d="m 543.872,637.756 c 0,-1.976 -1.733,-3.58 -3.872,-3.58 -2.138,0 -3.873,1.604 -3.873,3.58 0,1.978 1.735,3.581 3.873,3.581 2.139,0 3.872,-1.603 3.872,-3.581 z"
       style="fill:none;stroke:#231f20;stroke-width:0.5;stroke-linecap:butt;stroke-linejoin:miter;stroke-miterlimit:4;stroke-dasharray:none;stroke-opacity:1"
       id="path734" />
    <path
       d="m 540,737.692 c 4.876,-1.567 64.728,-20.61 78.066,-24.581"
       style="fill:none;stroke:#231f20;stroke-width:0.5;stroke-linecap:round;stroke-linejoin:round;stroke-miterlimit:4;stroke-dasharray:2.8, 1.8;stroke-dashoffset:0;stroke-opacity:1"
       id="path736" />
    <path
       d="m 557.855,823.647 c 5.128,-8.303 58.057,-89.089 68.852,-103.54"
       style="fill:none;stroke:#231f20;stroke-width:0.5;stroke-linecap:round;stroke-linejoin:round;stroke-miterlimit:4;stroke-dasharray:2.8, 1.8;stroke-dashoffset:0;stroke-opacity:1"
       id="path738" />
    <path
       d="m 648.331,837.173 c -1.428,-13.471 -7.457,-94.898 -8.447,-114.6"
       style="fill:none;stroke:#231f20;stroke-width:0.5;stroke-linecap:round;stroke-linejoin:round;stroke-miterlimit:4;stroke-dasharray:2.8, 1.8;stroke-dashoffset:0;stroke-opacity:1"
       id="path740" />
    <path
       d="m 561.353,579.246 c -0.229,-2.545 -0.054,-8.17 0.702,-10.439 0.928,-2.785 3.714,-6.035 11.141,-8.124 7.428,-2.09 13.487,-6.435 15.207,-10.886"
       style="fill:none;stroke:#231f20;stroke-width:0.5;stroke-linecap:round;stroke-linejoin:round;stroke-miterlimit:4;stroke-dasharray:2.8, 1.8;stroke-dashoffset:0;stroke-opacity:1"
       id="path742" />
    <path
       d="m 576.752,559.469 c -1.002,-2.036 -1.233,-6.447 -1.233,-9.233 0,-2.785 0.231,-30.875 -0.234,-35.054"
       style="fill:none;stroke:#231f20;stroke-width:0.5;stroke-linecap:round;stroke-linejoin:round;stroke-miterlimit:4;stroke-dasharray:2.8, 1.8;stroke-dashoffset:0;stroke-opacity:1"
       id="path744" />
    <path
       d="m 552.808,505.4 c 1.587,-5.771 5.531,-20.86 5.531,-23.647 0,-2.785 -2.32,-21.358 1.161,-29.481 3.483,-8.126 9.749,-21.357 12.302,-24.375 2.555,-3.017 6.037,-3.481 13.001,-9.284 6.965,-5.806 11.144,-13.001 12.768,-17.646"
       style="fill:none;stroke:#231f20;stroke-width:0.5;stroke-linecap:round;stroke-linejoin:round;stroke-miterlimit:4;stroke-dasharray:2.8, 1.8;stroke-dashoffset:0;stroke-opacity:1"
       id="path746" />
    <path
       d="m 561.176,448.453 c -1.302,2.952 -3.764,8.694 -7.712,8.925 -3.531,0.21 -8.34,-1.069 -11.151,-2.341"
       style="fill:none;stroke:#231f20;stroke-width:0.5;stroke-linecap:round;stroke-linejoin:round;stroke-miterlimit:4;stroke-dasharray:2.8, 1.8;stroke-dashoffset:0;stroke-opacity:1"
       id="path748" />
    <path
       d="m 565.538,439.114 c -3.02,0.391 -9.968,2.731 -11.84,4.104 -3.482,2.555 -7.198,2.786 -7.66,2.09 -0.466,-0.696 2.32,-10.234 5.571,-13.482"
       style="fill:none;stroke:#231f20;stroke-width:0.5;stroke-linecap:round;stroke-linejoin:round;stroke-miterlimit:4;stroke-dasharray:2.8, 1.8;stroke-dashoffset:0;stroke-opacity:1"
       id="path750" />
    <path
       d="m 571.802,427.897 c -3.944,1.162 -8.354,2.32 -10.908,2.786 -2.555,0.465 -10.216,1.624 -10.678,0.928 -0.466,-0.696 2.802,-8.105 4.875,-9.982 7.427,-6.733 11.804,-7.78 20.194,-14.625 8.686,-7.086 8.822,-9.518 21.127,-19.5 12.301,-9.981 14.608,-10.699 17.873,-13.232 4.032,-3.128 14.568,-12.767 35.461,-9.285"
       style="fill:none;stroke:#231f20;stroke-width:0.5;stroke-linecap:round;stroke-linejoin:round;stroke-miterlimit:4;stroke-dasharray:2.8, 1.8;stroke-dashoffset:0;stroke-opacity:1"
       id="path752" />
    <path
       d="m 588.054,530.736 c -4.178,-3.249 -10.911,-11.839 -14.162,-18.34 -3.248,-6.499 -6.73,-15.783 -8.123,-22.517 -1.393,-6.733 -2.09,-16.252 -1.624,-25.303 0.462,-9.053 3.226,-20.775 6.033,-26.001 3.02,-5.617 4.476,-8.314 7.661,-12.071 3.292,-3.884 10.911,-9.981 15.09,-11.374 4.179,-1.392 9.051,-2.786 12.998,-8.59 3.949,-5.803 9.285,-8.124 15.323,-8.358 6.036,-0.231 14.159,0.696 16.713,-0.231 2.555,-0.928 4.179,-3.948 3.02,-5.572"
       style="fill:none;stroke:#231f20;stroke-width:0.5;stroke-linecap:round;stroke-linejoin:round;stroke-miterlimit:4;stroke-dasharray:2.8, 1.8;stroke-dashoffset:0;stroke-opacity:1"
       id="path754" />
    <path
       d="m 566.615,493.383 c 1.706,-6.289 2.867,-16.273 3.332,-23.932 0.463,-7.659 1.855,-15.321 2.786,-19.734 0.928,-4.409 0.816,-9.11 -2.555,-11.142"
       style="fill:none;stroke:#231f20;stroke-width:0.5;stroke-linecap:round;stroke-linejoin:round;stroke-miterlimit:4;stroke-dasharray:2.8, 1.8;stroke-dashoffset:0;stroke-opacity:1"
       id="path756" />
    <path
       d="m 593.626,530.04 c -0.944,-6.498 0.231,-38.535 6.964,-58.037 6.733,-19.5 12.767,-27.391 25.999,-34.125 13.233,-6.73 19.269,-7.195 29.25,-3.248 9.982,3.945 17.876,15.785 11.839,29.946 -6.036,14.161 -27.856,33.892 -39.23,44.339 -11.377,10.446 -32.061,23.116 -33.895,22.285"
       style="fill:none;stroke:#231f20;stroke-width:0.5;stroke-linecap:round;stroke-linejoin:round;stroke-miterlimit:4;stroke-dasharray:2.8, 1.8;stroke-dashoffset:0;stroke-opacity:1"
       id="path758" />
    <path
       d="m 597.571,400.967 c 1.431,0.615 3.481,-1.624 6.502,-3.481 3.016,-1.856 5.105,-4.41 11.604,-5.338 6.502,-0.931 15.323,-1.858 16.715,-2.785 1.393,-0.931 3.251,-1.627 2.785,-3.251 -0.462,-1.624 -2.785,-1.394 -5.337,-0.466 -2.554,0.931 -6.499,1.627 -10.912,1.627 -4.409,0 -9.284,-0.003 -12.535,0.928 -3.251,0.927 -7.893,3.016 -8.589,5.571 -0.696,2.555 -1.857,6.499 -0.233,7.195 z"
       style="fill:none;stroke:#231f20;stroke-width:0.5;stroke-linecap:round;stroke-linejoin:round;stroke-miterlimit:4;stroke-dasharray:2.8, 1.8;stroke-dashoffset:0;stroke-opacity:1"
       id="path760" />
    <path
       d="m 611.754,387.418 c 2.531,-1.772 8.798,-6.413 10.888,-9.432 2.089,-3.018 4.412,-4.179 6.502,-4.875 2.089,-0.697 6.964,-2.555 8.356,-0.232 1.394,2.321 8.707,10.215 16.155,3.034"
       style="fill:none;stroke:#231f20;stroke-width:0.5;stroke-linecap:round;stroke-linejoin:round;stroke-miterlimit:4;stroke-dasharray:2.8, 1.8;stroke-dashoffset:0;stroke-opacity:1"
       id="path762" />
    <path
       d="m 632.392,389.363 c 3.02,0.462 7.195,1.624 10.446,4.409 3.251,2.786 7.196,4.179 10.447,3.947 3.251,-0.233 6.499,0.463 8.357,0.928 1.858,0.466 10.678,-2.089 13.929,-2.555 3.251,-0.462 7.429,-1.857 9.518,-0.927 2.09,0.927 5.107,3.251 8.126,3.713 3.017,0.465 6.035,0.928 8.82,1.162 2.786,0.231 7.894,0.465 11.377,7.892 3.482,7.43 8.588,13.234 9.981,14.858 1.393,1.626 4.179,6.731 5.803,10.213 1.627,3.483 7.198,9.753 11.377,11.377 4.179,1.624 10.443,2.784 11.605,7.892 1.161,5.106 -3.482,16.018 -4.641,18.571"
       style="fill:none;stroke:#231f20;stroke-width:0.5;stroke-linecap:round;stroke-linejoin:round;stroke-miterlimit:4;stroke-dasharray:2.8, 1.8;stroke-dashoffset:0;stroke-opacity:1"
       id="path764" />
    <path
       d="m 637.218,398.138 c 2.834,-0.419 5.62,-1.115 7.71,-0.419 2.089,0.697 2.324,2.552 2.324,3.946 0,1.392 1.624,5.571 6.033,5.339 4.413,-0.231 9.288,-2.089 11.608,1.393 2.32,3.482 5.803,7.661 9.285,7.661 4.644,0 9.056,-6.268 10.911,-9.054 1.859,-2.786 2.732,-8.381 2.759,-10.342"
       style="fill:none;stroke:#231f20;stroke-width:0.5;stroke-linecap:round;stroke-linejoin:round;stroke-miterlimit:4;stroke-dasharray:2.8, 1.8;stroke-dashoffset:0;stroke-opacity:1"
       id="path766" />
    <path
       d="m 675.571,396.092 c -1.159,-1.854 -1.159,-6.964 0.465,-7.66 1.624,-0.696 5.571,-0.928 6.733,0 1.159,0.931 1.836,4.497 0.686,6.428"
       style="fill:none;stroke:#231f20;stroke-width:0.5;stroke-linecap:round;stroke-linejoin:round;stroke-miterlimit:4;stroke-dasharray:2.8, 1.8;stroke-dashoffset:0;stroke-opacity:1"
       id="path768" />
    <path
       d="m 694.143,407.932 c 1.627,3.947 0,13.001 -0.928,15.321 -0.93,2.324 1.624,5.11 2.787,8.358 1.158,3.251 0.573,8.675 -1.394,9.518 -1.627,0.697 -3.716,0 -4.412,-3.251 -0.849,-3.963 -2.166,-11.368 -2.32,-14.625 -0.232,-4.875 1.624,-10.446 3.25,-12.07 1.624,-1.624 6.73,-7.894 10.909,-11.143 4.178,-3.25 17.569,-15.433 20.161,-34.065"
       style="fill:none;stroke:#231f20;stroke-width:0.5;stroke-linecap:round;stroke-linejoin:round;stroke-miterlimit:4;stroke-dasharray:2.8, 1.8;stroke-dashoffset:0;stroke-opacity:1"
       id="path770" />
    <path
       d="m 718.241,379.359 c -6.222,5.359 -54.161,14.364 -47.545,-11.635"
       style="fill:none;stroke:#231f20;stroke-width:0.5;stroke-linecap:round;stroke-linejoin:round;stroke-miterlimit:4;stroke-dasharray:2.8, 1.8;stroke-dashoffset:0;stroke-opacity:1"
       id="path772" />
    <path
       d="m 675.968,365.218 c 1.858,6.037 7.497,10.216 11.211,9.519 3.713,-0.697 7.892,-3.947 8.823,-3.716 0.927,0.234 3.712,6.271 10.677,5.109 6.964,-1.162 11.978,-4.105 15.044,-7.391"
       style="fill:none;stroke:#231f20;stroke-width:0.5;stroke-linecap:round;stroke-linejoin:round;stroke-miterlimit:4;stroke-dasharray:2.8, 1.8;stroke-dashoffset:0;stroke-opacity:1"
       id="path774" />
    <path
       d="m 663.269,375.2 c 1.624,0.465 4.179,-1.624 3.713,-3.945 -0.465,-2.323 -2.089,-5.34 -4.409,-5.109 -2.323,0.234 -4.413,2.09 -3.02,4.875 1.393,2.786 2.092,3.716 3.716,4.179 z"
       style="fill:none;stroke:#231f20;stroke-width:0.5;stroke-linecap:round;stroke-linejoin:round;stroke-miterlimit:4;stroke-dasharray:2.8, 1.8;stroke-dashoffset:0;stroke-opacity:1"
       id="path776" />
    <path
       d="m 654.912,374.737 c 1.616,-1.866 3.248,-6.501 3.482,-8.591 0.232,-2.089 3.19,-3.343 5.106,-2.785 2.786,0.813 4.876,2.554 6.037,3.481 1.159,0.931 3.016,2.324 4.178,2.09 1.159,-0.231 2.787,-2.32 2.089,-5.106 -0.696,-2.786 -2.554,-5.572 -3.716,-5.34 -1.159,0.233 -1.161,3.251 -4.875,1.392 -3.713,-1.855 -7.66,-2.551 -9.515,0 -1.859,2.555 -2.789,2.324 -4.413,2.324 -1.624,0 -5.569,2.32 -2.321,5.571 3.251,3.248 1.624,4.41 0.928,5.803 -0.696,1.392 0,4.643 3.02,1.161 z"
       style="fill:none;stroke:#231f20;stroke-width:0.5;stroke-linecap:round;stroke-linejoin:round;stroke-miterlimit:4;stroke-dasharray:2.8, 1.8;stroke-dashoffset:0;stroke-opacity:1"
       id="path778" />
    <path
       d="m 719.68,375.896 c 0,4.179 -0.348,14.625 4.875,17.759 5.223,3.135 12.884,5.92 13.928,14.973 1.045,9.054 1.393,19.152 9.054,20.893 7.661,1.741 18.803,3.831 26.116,2.09 7.312,-1.741 17.062,-6.269 21.241,-2.09 4.179,4.179 4.179,16.019 0.696,20.196 -3.481,4.179 -2.437,9.751 2.09,5.224 4.527,-4.526 8.357,-12.884 6.964,-21.938 -1.392,-9.053 -5.92,-17.411 -13.232,-15.321 -7.313,2.089 -27.16,9.75 -33.429,6.268 -6.268,-3.483 -8.009,-7.66 -9.401,-14.973 -1.393,-7.312 -5.224,-11.143 -10.099,-13.232 -4.875,-2.09 -12.884,-8.705 -12.535,-13.929 0.347,-5.224 0.513,-12.389 -0.441,-14.726"
       style="fill:none;stroke:#231f20;stroke-width:0.5;stroke-linecap:round;stroke-linejoin:round;stroke-miterlimit:4;stroke-dasharray:2.8, 1.8;stroke-dashoffset:0;stroke-opacity:1"
       id="path780" />
    <path
       d="m 712.767,461.176 c -0.748,-4.842 -5.517,-34.247 13.869,-33.2"
       style="fill:none;stroke:#231f20;stroke-width:0.5;stroke-linecap:round;stroke-linejoin:round;stroke-miterlimit:4;stroke-dasharray:2.8, 1.8;stroke-dashoffset:0;stroke-opacity:1"
       id="path782" />
    <path
       d="m 759.496,592.158 c 2.318,-6.288 5.452,-22.306 6.148,-29.618 0.696,-7.313 0.696,-15.322 -3.134,-23.331 -3.83,-8.009 -10.446,-21.241 -18.803,-29.598 -8.358,-8.358 -13.929,-13.929 -16.018,-13.58 -2.09,0.347 -8.355,6.798 -3.309,18.372"
       style="fill:none;stroke:#231f20;stroke-width:0.5;stroke-linecap:round;stroke-linejoin:round;stroke-miterlimit:4;stroke-dasharray:2.8, 1.8;stroke-dashoffset:0;stroke-opacity:1"
       id="path784" />
    <path
       d="m 727.689,496.031 c 0,-5.224 2.089,-11.84 11.839,-19.153 9.75,-7.312 21.59,-16.017 41.786,-17.062 19.473,-1.007 37.126,-9.069 40.847,-13.24"
       style="fill:none;stroke:#231f20;stroke-width:0.5;stroke-linecap:round;stroke-linejoin:round;stroke-miterlimit:4;stroke-dasharray:2.8, 1.8;stroke-dashoffset:0;stroke-opacity:1"
       id="path786" />
    <path
       d="m 746.345,512.472 c 6.415,-7.736 20.602,-22.25 30.79,-28.281 17.063,-10.098 35.984,-15.92 50.723,-19.276"
       style="fill:none;stroke:#231f20;stroke-width:0.5;stroke-linecap:round;stroke-linejoin:round;stroke-miterlimit:4;stroke-dasharray:2.8, 1.8;stroke-dashoffset:0;stroke-opacity:1"
       id="path788" />
    <path
       d="m 757.385,529.087 c 7.563,-7.637 41.299,-35.545 82.059,-45.096"
       style="fill:none;stroke:#231f20;stroke-width:0.5;stroke-linecap:round;stroke-linejoin:round;stroke-miterlimit:4;stroke-dasharray:2.8, 1.8;stroke-dashoffset:0;stroke-opacity:1"
       id="path790" />
    <path
       d="m 745.448,547.218 c 1.79,2.633 18.575,8.817 16.252,-9.693"
       style="fill:none;stroke:#231f20;stroke-width:0.5;stroke-linecap:round;stroke-linejoin:round;stroke-miterlimit:4;stroke-dasharray:2.8, 1.8;stroke-dashoffset:0;stroke-opacity:1"
       id="path792" />
    <path
       d="m 764.605,544.81 c 8.003,-6.298 55.092,-32.294 85.519,-42.278"
       style="fill:none;stroke:#231f20;stroke-width:0.5;stroke-linecap:round;stroke-linejoin:round;stroke-miterlimit:4;stroke-dasharray:2.8, 1.8;stroke-dashoffset:0;stroke-opacity:1"
       id="path794" />
    <path
       d="m 765.323,565.285 c 9.375,-6.228 55.465,-30.981 94.053,-44.37"
       style="fill:none;stroke:#231f20;stroke-width:0.5;stroke-linecap:round;stroke-linejoin:round;stroke-miterlimit:4;stroke-dasharray:2.8, 1.8;stroke-dashoffset:0;stroke-opacity:1"
       id="path796" />
    <path
       d="m 751.536,627.423 c 11.088,4.76 87.445,29.688 124.481,40.206"
       style="fill:none;stroke:#231f20;stroke-width:0.5;stroke-linecap:round;stroke-linejoin:round;stroke-miterlimit:4;stroke-dasharray:2.8, 1.8;stroke-dashoffset:0;stroke-opacity:1"
       id="path798" />
    <path
       d="m 747.913,639.196 c 16.104,5.987 100.758,38.905 121.576,47.982"
       style="fill:none;stroke:#231f20;stroke-width:0.5;stroke-linecap:round;stroke-linejoin:round;stroke-miterlimit:4;stroke-dasharray:2.8, 1.8;stroke-dashoffset:0;stroke-opacity:1"
       id="path800" />
    <path
       d="m 386.77,696.582 c -11.584,16.675 -69.921,108.236 -69.921,108.236"
       style="fill:none;stroke:#231f20;stroke-width:0.5;stroke-linecap:round;stroke-linejoin:round;stroke-miterlimit:4;stroke-dasharray:2.8, 1.8;stroke-dashoffset:0;stroke-opacity:1"
       id="path802" />
    <path
       d="m 693.232,696.582 c 11.583,16.675 69.92,108.236 69.92,108.236"
       style="fill:none;stroke:#231f20;stroke-width:0.5;stroke-linecap:round;stroke-linejoin:round;stroke-miterlimit:4;stroke-dasharray:2.8, 1.8;stroke-dashoffset:0;stroke-opacity:1"
       id="path804" />
    <path
       d="m 728.295,673.928 c 18.081,20.005 71.972,75.772 87.508,93.156"
       style="fill:none;stroke:#231f20;stroke-width:0.5;stroke-linecap:round;stroke-linejoin:round;stroke-miterlimit:4;stroke-dasharray:2.8, 1.8;stroke-dashoffset:0;stroke-opacity:1"
       id="path806" />
    <path
       d="m 736.135,665.13 c 21.383,19.053 69.159,66.37 93.325,87.747"
       style="fill:none;stroke:#231f20;stroke-width:0.5;stroke-linecap:round;stroke-linejoin:round;stroke-miterlimit:4;stroke-dasharray:2.8, 1.8;stroke-dashoffset:0;stroke-opacity:1"
       id="path808" />
    <path
       d="m 540,737.692 c -4.874,-1.567 -64.727,-20.61 -78.067,-24.581"
       style="fill:none;stroke:#231f20;stroke-width:0.5;stroke-linecap:round;stroke-linejoin:round;stroke-miterlimit:4;stroke-dasharray:2.8, 1.8;stroke-dashoffset:0;stroke-opacity:1"
       id="path810" />
    <path
       d="m 522.145,823.647 c -5.127,-8.303 -58.056,-89.089 -68.851,-103.54"
       style="fill:none;stroke:#231f20;stroke-width:0.5;stroke-linecap:round;stroke-linejoin:round;stroke-miterlimit:4;stroke-dasharray:2.8, 1.8;stroke-dashoffset:0;stroke-opacity:1"
       id="path812" />
    <path
       d="m 431.669,837.173 c 1.429,-13.471 7.457,-94.898 8.448,-114.6"
       style="fill:none;stroke:#231f20;stroke-width:0.5;stroke-linecap:round;stroke-linejoin:round;stroke-miterlimit:4;stroke-dasharray:2.8, 1.8;stroke-dashoffset:0;stroke-opacity:1"
       id="path814" />
    <path
       d="m 518.647,579.246 c 0.229,-2.545 0.055,-8.17 -0.701,-10.439 -0.928,-2.785 -3.714,-6.035 -11.142,-8.124 -7.428,-2.09 -13.488,-6.435 -15.206,-10.886"
       style="fill:none;stroke:#231f20;stroke-width:0.5;stroke-linecap:round;stroke-linejoin:round;stroke-miterlimit:4;stroke-dasharray:2.8, 1.8;stroke-dashoffset:0;stroke-opacity:1"
       id="path816" />
    <path
       d="m 518.206,569.819 c -0.027,-4.725 4.152,-29.797 7.633,-36.297 3.484,-6.5 7.197,-12.303 14.161,-12.303 6.965,0 10.678,5.803 14.161,12.303 3.482,6.5 7.661,31.572 7.633,36.297"
       style="fill:none;stroke:#231f20;stroke-width:0.5;stroke-linecap:round;stroke-linejoin:round;stroke-miterlimit:4;stroke-dasharray:2.8, 1.8;stroke-dashoffset:0;stroke-opacity:1"
       id="path818" />
    <path
       d="m 525.839,533.522 c -6.036,-7.197 -7.66,-32.732 14.161,-32.732 21.822,0 20.197,25.535 14.161,32.732"
       style="fill:none;stroke:#231f20;stroke-width:0.5;stroke-linecap:round;stroke-linejoin:round;stroke-miterlimit:4;stroke-dasharray:2.8, 1.8;stroke-dashoffset:0;stroke-opacity:1"
       id="path820" />
    <path
       d="m 503.25,559.469 c 1,-2.036 1.232,-6.447 1.232,-9.233 0,-2.785 -0.232,-30.875 0.232,-35.054"
       style="fill:none;stroke:#231f20;stroke-width:0.5;stroke-linecap:round;stroke-linejoin:round;stroke-miterlimit:4;stroke-dasharray:2.8, 1.8;stroke-dashoffset:0;stroke-opacity:1"
       id="path822" />
    <path
       d="m 527.191,505.4 c -1.584,-5.771 -5.53,-20.86 -5.53,-23.647 0,-2.785 2.321,-21.358 -1.161,-29.483 -3.482,-8.124 -9.749,-21.358 -12.303,-24.376 -2.555,-3.017 -6.036,-3.478 -13.001,-9.284 -6.964,-5.803 -11.142,-13.001 -12.767,-17.643"
       style="fill:none;stroke:#231f20;stroke-width:0.5;stroke-linecap:round;stroke-linejoin:round;stroke-miterlimit:4;stroke-dasharray:2.8, 1.8;stroke-dashoffset:0;stroke-opacity:1"
       id="path824" />
    <path
       d="m 518.825,448.45 c 1.301,2.955 3.765,8.697 7.711,8.928 3.535,0.21 8.331,-1.069 11.143,-2.341"
       style="fill:none;stroke:#231f20;stroke-width:0.5;stroke-linecap:round;stroke-linejoin:round;stroke-miterlimit:4;stroke-dasharray:2.8, 1.8;stroke-dashoffset:0;stroke-opacity:1"
       id="path826" />
    <path
       d="m 514.464,439.111 c 3.018,0.391 9.968,2.731 11.839,4.105 3.482,2.554 7.197,2.785 7.66,2.089 0.465,-0.696 -2.32,-10.231 -5.571,-13.482"
       style="fill:none;stroke:#231f20;stroke-width:0.5;stroke-linecap:round;stroke-linejoin:round;stroke-miterlimit:4;stroke-dasharray:2.8, 1.8;stroke-dashoffset:0;stroke-opacity:1"
       id="path828" />
    <path
       d="m 508.197,427.894 c 3.946,1.162 8.356,2.321 10.91,2.786 2.554,0.465 10.214,1.627 10.678,0.931 0.465,-0.696 -2.803,-8.108 -4.874,-9.985 -7.429,-6.73 -11.806,-7.78 -20.197,-14.625 -8.685,-7.083 -8.822,-9.518 -21.125,-19.5 -12.303,-9.981 -14.608,-10.696 -17.875,-13.232 -4.031,-3.125 -14.566,-12.767 -35.459,-9.284"
       style="fill:none;stroke:#231f20;stroke-width:0.5;stroke-linecap:round;stroke-linejoin:round;stroke-miterlimit:4;stroke-dasharray:2.8, 1.8;stroke-dashoffset:0;stroke-opacity:1"
       id="path830" />
    <path
       d="m 491.947,530.736 c 4.179,-3.249 10.911,-11.839 14.161,-18.34 3.249,-6.499 6.731,-15.783 8.124,-22.517 1.394,-6.733 2.089,-16.252 1.625,-25.305 -0.464,-9.051 -3.229,-20.773 -6.036,-25.999 -3.019,-5.62 -4.475,-8.314 -7.66,-12.074 -3.292,-3.881 -10.911,-9.981 -15.089,-11.374 -4.179,-1.392 -9.053,-2.786 -13,-8.587 -3.947,-5.806 -9.285,-8.126 -15.322,-8.358 -6.037,-0.234 -14.16,0.694 -16.714,-0.234 -2.554,-0.928 -4.178,-3.948 -3.018,-5.572"
       style="fill:none;stroke:#231f20;stroke-width:0.5;stroke-linecap:round;stroke-linejoin:round;stroke-miterlimit:4;stroke-dasharray:2.8, 1.8;stroke-dashoffset:0;stroke-opacity:1"
       id="path832" />
    <path
       d="m 513.385,493.383 c -1.706,-6.289 -2.868,-16.273 -3.332,-23.932 -0.464,-7.659 -1.856,-15.324 -2.785,-19.734 -0.93,-4.412 -0.816,-9.11 2.553,-11.142"
       style="fill:none;stroke:#231f20;stroke-width:0.5;stroke-linecap:round;stroke-linejoin:round;stroke-miterlimit:4;stroke-dasharray:2.8, 1.8;stroke-dashoffset:0;stroke-opacity:1"
       id="path834" />
    <path
       d="m 486.375,530.04 c 0.944,-6.498 -0.231,-38.535 -6.964,-58.037 -6.734,-19.5 -12.769,-27.394 -26,-34.125 -13.233,-6.733 -19.27,-7.195 -29.251,-3.251 -9.981,3.948 -17.876,15.788 -11.839,29.947 6.037,14.163 27.857,33.894 39.232,44.341 11.376,10.446 32.061,23.116 33.893,22.285"
       style="fill:none;stroke:#231f20;stroke-width:0.5;stroke-linecap:round;stroke-linejoin:round;stroke-miterlimit:4;stroke-dasharray:2.8, 1.8;stroke-dashoffset:0;stroke-opacity:1"
       id="path836" />
    <path
       d="m 482.429,400.967 c -1.43,0.613 -3.482,-1.626 -6.501,-3.481 -3.017,-1.859 -5.105,-4.41 -11.606,-5.341 -6.5,-0.928 -15.322,-1.855 -16.714,-2.785 -1.394,-0.928 -3.25,-1.627 -2.786,-3.251 0.464,-1.624 2.786,-1.393 5.339,-0.463 2.552,0.928 6.499,1.624 10.91,1.624 4.411,0 9.285,0 12.536,0.928 3.251,0.93 7.893,3.017 8.59,5.571 0.696,2.555 1.857,6.502 0.232,7.198 z"
       style="fill:none;stroke:#231f20;stroke-width:0.5;stroke-linecap:round;stroke-linejoin:round;stroke-miterlimit:4;stroke-dasharray:2.8, 1.8;stroke-dashoffset:0;stroke-opacity:1"
       id="path838" />
    <path
       d="m 468.245,387.415 c -2.531,-1.769 -8.798,-6.413 -10.887,-9.429 -2.09,-3.021 -4.411,-4.179 -6.501,-4.875 -2.089,-0.697 -6.964,-2.555 -8.357,-0.235 -1.393,2.324 -8.706,10.215 -16.156,3.037"
       style="fill:none;stroke:#231f20;stroke-width:0.5;stroke-linecap:round;stroke-linejoin:round;stroke-miterlimit:4;stroke-dasharray:2.8, 1.8;stroke-dashoffset:0;stroke-opacity:1"
       id="path840" />
    <path
       d="m 447.608,389.36 c -3.019,0.465 -7.196,1.624 -10.447,4.409 -3.251,2.786 -7.196,4.182 -10.447,3.947 -3.251,-0.23 -6.499,0.463 -8.356,0.928 -1.858,0.466 -10.678,-2.089 -13.929,-2.552 -3.251,-0.465 -7.429,-1.857 -9.519,-0.929 -2.089,0.929 -5.106,3.251 -8.124,3.715 -3.019,0.463 -6.036,0.928 -8.822,1.16 -2.785,0.233 -7.893,0.464 -11.375,7.894 -3.482,7.427 -8.589,13.233 -9.983,14.857 -1.393,1.624 -4.177,6.732 -5.802,10.214 -1.626,3.483 -7.197,9.75 -11.376,11.374 -4.178,1.624 -10.445,2.787 -11.606,7.893 -1.162,5.108 3.481,16.02 4.642,18.573"
       style="fill:none;stroke:#231f20;stroke-width:0.5;stroke-linecap:round;stroke-linejoin:round;stroke-miterlimit:4;stroke-dasharray:2.8, 1.8;stroke-dashoffset:0;stroke-opacity:1"
       id="path842" />
    <path
       d="m 442.782,398.135 c -2.835,-0.419 -5.621,-1.115 -7.71,-0.419 -2.089,0.698 -2.322,2.555 -2.322,3.949 0,1.392 -1.624,5.568 -6.036,5.336 -4.411,-0.231 -9.287,-2.088 -11.607,1.393 -2.321,3.482 -5.803,7.661 -9.285,7.661 -4.644,0 -9.055,-6.267 -10.912,-9.054 -1.857,-2.785 -2.731,-8.378 -2.758,-10.339"
       style="fill:none;stroke:#231f20;stroke-width:0.5;stroke-linecap:round;stroke-linejoin:round;stroke-miterlimit:4;stroke-dasharray:2.8, 1.8;stroke-dashoffset:0;stroke-opacity:1"
       id="path844" />
    <path
       d="m 404.429,396.092 c 1.16,-1.857 1.158,-6.964 -0.466,-7.66 -1.624,-0.696 -5.571,-0.931 -6.731,0 -1.16,0.928 -1.838,4.497 -0.687,6.426"
       style="fill:none;stroke:#231f20;stroke-width:0.5;stroke-linecap:round;stroke-linejoin:round;stroke-miterlimit:4;stroke-dasharray:2.8, 1.8;stroke-dashoffset:0;stroke-opacity:1"
       id="path846" />
    <path
       d="m 385.857,407.932 c -1.626,3.944 0,12.998 0.929,15.321 0.928,2.321 -1.626,5.107 -2.786,8.358 -1.161,3.248 -0.576,8.673 1.393,9.515 1.625,0.697 3.714,0 4.411,-3.248 0.849,-3.963 2.165,-11.371 2.321,-14.625 0.232,-4.875 -1.625,-10.449 -3.25,-12.073 -1.625,-1.624 -6.732,-7.891 -10.911,-11.142 -4.178,-3.248 -17.568,-15.431 -20.159,-34.063"
       style="fill:none;stroke:#231f20;stroke-width:0.5;stroke-linecap:round;stroke-linejoin:round;stroke-miterlimit:4;stroke-dasharray:2.8, 1.8;stroke-dashoffset:0;stroke-opacity:1"
       id="path848" />
    <path
       d="m 361.759,379.357 c 6.223,5.359 54.161,14.363 47.545,-11.636"
       style="fill:none;stroke:#231f20;stroke-width:0.5;stroke-linecap:round;stroke-linejoin:round;stroke-miterlimit:4;stroke-dasharray:2.8, 1.8;stroke-dashoffset:0;stroke-opacity:1"
       id="path850" />
    <path
       d="m 404.032,365.215 c -1.859,6.037 -7.498,10.216 -11.211,9.52 -3.714,-0.696 -7.892,-3.947 -8.821,-3.714 -0.929,0.231 -3.715,6.268 -10.679,5.106 -6.965,-1.162 -11.979,-4.102 -15.043,-7.391"
       style="fill:none;stroke:#231f20;stroke-width:0.5;stroke-linecap:round;stroke-linejoin:round;stroke-miterlimit:4;stroke-dasharray:2.8, 1.8;stroke-dashoffset:0;stroke-opacity:1"
       id="path852" />
    <path
       d="m 416.732,375.2 c -1.624,0.463 -4.18,-1.624 -3.715,-3.948 0.466,-2.32 2.09,-5.339 4.411,-5.106 2.322,0.231 4.411,2.09 3.019,4.875 -1.393,2.786 -2.091,3.714 -3.715,4.179 z"
       style="fill:none;stroke:#231f20;stroke-width:0.5;stroke-linecap:round;stroke-linejoin:round;stroke-miterlimit:4;stroke-dasharray:2.8, 1.8;stroke-dashoffset:0;stroke-opacity:1"
       id="path854" />
    <path
       d="m 425.089,374.735 c -1.617,-1.864 -3.25,-6.499 -3.482,-8.589 -0.232,-2.089 -3.192,-3.346 -5.107,-2.785 -2.787,0.81 -4.875,2.552 -6.036,3.481 -1.16,0.928 -3.018,2.322 -4.178,2.09 -1.16,-0.234 -2.786,-2.323 -2.09,-5.109 0.697,-2.785 2.554,-5.572 3.715,-5.337 1.16,0.23 1.162,3.248 4.875,1.392 3.714,-1.858 7.661,-2.554 9.517,0 1.857,2.552 2.787,2.321 4.411,2.321 1.624,0 5.571,2.323 2.321,5.571 -3.249,3.251 -1.624,4.41 -0.927,5.803 0.696,1.392 0,4.643 -3.019,1.162 z"
       style="fill:none;stroke:#231f20;stroke-width:0.5;stroke-linecap:round;stroke-linejoin:round;stroke-miterlimit:4;stroke-dasharray:2.8, 1.8;stroke-dashoffset:0;stroke-opacity:1"
       id="path856" />
    <path
       d="m 360.321,375.896 c 0,4.179 0.348,14.625 -4.875,17.759 -5.223,3.135 -12.884,5.92 -13.929,14.973 -1.044,9.054 -1.392,19.152 -9.053,20.893 -7.661,1.741 -18.803,3.831 -26.116,2.09 -7.312,-1.741 -17.062,-6.269 -21.241,-2.09 -4.179,4.179 -4.179,16.019 -0.696,20.196 3.481,4.179 2.437,9.751 -2.09,5.224 -4.527,-4.526 -8.358,-12.884 -6.964,-21.938 1.393,-9.053 5.919,-17.411 13.232,-15.321 7.313,2.089 27.161,9.75 33.428,6.268 6.269,-3.483 8.01,-7.66 9.402,-14.973 1.393,-7.312 5.223,-11.143 10.098,-13.232 4.875,-2.09 12.885,-8.705 12.536,-13.929 -0.348,-5.224 -0.513,-12.389 0.44,-14.726"
       style="fill:none;stroke:#231f20;stroke-width:0.5;stroke-linecap:round;stroke-linejoin:round;stroke-miterlimit:4;stroke-dasharray:2.8, 1.8;stroke-dashoffset:0;stroke-opacity:1"
       id="path858" />
    <path
       d="m 367.234,461.176 c 0.748,-4.842 5.516,-34.25 -13.869,-33.2"
       style="fill:none;stroke:#231f20;stroke-width:0.5;stroke-linecap:round;stroke-linejoin:round;stroke-miterlimit:4;stroke-dasharray:2.8, 1.8;stroke-dashoffset:0;stroke-opacity:1"
       id="path860" />
    <path
       d="m 320.505,592.158 c -2.318,-6.288 -5.452,-22.306 -6.148,-29.618 -0.696,-7.313 -0.696,-15.322 3.134,-23.331 3.83,-8.009 10.446,-21.241 18.803,-29.598 8.358,-8.358 13.929,-13.929 16.018,-13.58 2.09,0.347 8.354,6.798 3.307,18.372"
       style="fill:none;stroke:#231f20;stroke-width:0.5;stroke-linecap:round;stroke-linejoin:round;stroke-miterlimit:4;stroke-dasharray:2.8, 1.8;stroke-dashoffset:0;stroke-opacity:1"
       id="path862" />
    <path
       d="m 352.312,496.031 c 0,-5.224 -2.089,-11.84 -11.839,-19.153 -9.75,-7.312 -21.59,-16.017 -41.786,-17.062 -19.474,-1.007 -37.126,-9.069 -40.849,-13.24"
       style="fill:none;stroke:#231f20;stroke-width:0.5;stroke-linecap:round;stroke-linejoin:round;stroke-miterlimit:4;stroke-dasharray:2.8, 1.8;stroke-dashoffset:0;stroke-opacity:1"
       id="path864" />
    <path
       d="m 333.654,512.472 c -6.413,-7.736 -20.601,-22.25 -30.788,-28.281 -17.063,-10.098 -35.984,-15.92 -50.724,-19.276"
       style="fill:none;stroke:#231f20;stroke-width:0.5;stroke-linecap:round;stroke-linejoin:round;stroke-miterlimit:4;stroke-dasharray:2.8, 1.8;stroke-dashoffset:0;stroke-opacity:1"
       id="path866" />
    <path
       d="m 322.615,529.087 c -7.562,-7.637 -41.298,-35.545 -82.06,-45.096"
       style="fill:none;stroke:#231f20;stroke-width:0.5;stroke-linecap:round;stroke-linejoin:round;stroke-miterlimit:4;stroke-dasharray:2.8, 1.8;stroke-dashoffset:0;stroke-opacity:1"
       id="path868" />
    <path
       d="m 334.553,547.218 c -1.79,2.633 -18.575,8.817 -16.252,-9.693"
       style="fill:none;stroke:#231f20;stroke-width:0.5;stroke-linecap:round;stroke-linejoin:round;stroke-miterlimit:4;stroke-dasharray:2.8, 1.8;stroke-dashoffset:0;stroke-opacity:1"
       id="path870" />
    <path
       d="m 315.395,544.81 c -8.003,-6.298 -55.091,-32.294 -85.519,-42.278"
       style="fill:none;stroke:#231f20;stroke-width:0.5;stroke-linecap:round;stroke-linejoin:round;stroke-miterlimit:4;stroke-dasharray:2.8, 1.8;stroke-dashoffset:0;stroke-opacity:1"
       id="path872" />
    <path
       d="m 314.676,565.285 c -9.373,-6.228 -55.463,-30.981 -94.051,-44.37"
       style="fill:none;stroke:#231f20;stroke-width:0.5;stroke-linecap:round;stroke-linejoin:round;stroke-miterlimit:4;stroke-dasharray:2.8, 1.8;stroke-dashoffset:0;stroke-opacity:1"
       id="path874" />
    <path
       d="m 328.465,627.423 c -11.089,4.76 -87.447,29.688 -124.483,40.206"
       style="fill:none;stroke:#231f20;stroke-width:0.5;stroke-linecap:round;stroke-linejoin:round;stroke-miterlimit:4;stroke-dasharray:2.8, 1.8;stroke-dashoffset:0;stroke-opacity:1"
       id="path876" />
    <path
       d="m 332.087,639.196 c -16.105,5.987 -100.757,38.905 -121.575,47.982"
       style="fill:none;stroke:#231f20;stroke-width:0.5;stroke-linecap:round;stroke-linejoin:round;stroke-miterlimit:4;stroke-dasharray:2.8, 1.8;stroke-dashoffset:0;stroke-opacity:1"
       id="path878" />
    <path
       d="m 351.706,673.928 c -18.081,20.005 -71.973,75.772 -87.51,93.156"
       style="fill:none;stroke:#231f20;stroke-width:0.5;stroke-linecap:round;stroke-linejoin:round;stroke-miterlimit:4;stroke-dasharray:2.8, 1.8;stroke-dashoffset:0;stroke-opacity:1"
       id="path880" />
    <path
       d="m 343.864,665.13 c -21.383,19.053 -69.158,66.37 -93.324,87.747"
       style="fill:none;stroke:#231f20;stroke-width:0.5;stroke-linecap:round;stroke-linejoin:round;stroke-miterlimit:4;stroke-dasharray:2.8, 1.8;stroke-dashoffset:0;stroke-opacity:1"
       id="path882" />
    <path
       d="m 550.55,582.344 c -2.437,-16.189 -6.602,-50.646 -6.602,-60.393 v -0.011 c 0.813,0.31 1.573,0.715 2.291,1.202 1.822,11.571 4.13,40.956 5.131,59.093"
       style="fill:none;stroke:#231f20;stroke-width:0.5;stroke-linecap:round;stroke-linejoin:round;stroke-miterlimit:4;stroke-dasharray:2.8, 1.8;stroke-dashoffset:0;stroke-opacity:1"
       id="path884" />
    <path
       d="m 529.449,582.343 c 2.439,-16.189 6.604,-50.645 6.604,-60.392 v -0.011 c -0.813,0.31 -1.574,0.715 -2.291,1.202 -1.824,11.571 -4.13,40.956 -5.132,59.093"
       style="fill:none;stroke:#231f20;stroke-width:0.5;stroke-linecap:round;stroke-linejoin:round;stroke-miterlimit:4;stroke-dasharray:2.8, 1.8;stroke-dashoffset:0;stroke-opacity:1"
       id="path886" />
    <path
       d="m 544.876,636.013 c 0.927,2.903 4.874,4.179 7.661,3.134"
       style="fill:none;stroke:#231f20;stroke-width:0.5;stroke-linecap:round;stroke-linejoin:round;stroke-miterlimit:4;stroke-dasharray:2.8, 1.8;stroke-dashoffset:0;stroke-opacity:1"
       id="path888" />
    <path
       d="m 535.126,636.013 c -0.928,2.903 -4.876,4.179 -7.662,3.134"
       style="fill:none;stroke:#231f20;stroke-width:0.5;stroke-linecap:round;stroke-linejoin:round;stroke-miterlimit:4;stroke-dasharray:2.8, 1.8;stroke-dashoffset:0;stroke-opacity:1"
       id="path890" />
  </g>
</svg>
