<?xml version="1.0" encoding="UTF-8" standalone="no"?>
<!-- Created with Inkscape (http://www.inkscape.org/) -->

<svg
   version="1.1"
   id="svg2"
   width="1440"
   height="1344"
   viewBox="0 0 1440 1344"
   xmlns="http://www.w3.org/2000/svg"
   xmlns:svg="http://www.w3.org/2000/svg">
  <defs
     id="defs6" />
  <g
     id="g10">
    <path
       d="m 537.497,634.232 c -0.282,2.131 -1.209,5.612 -4.926,6.773 0,0 7.429,4.628 7.429,13.697 v 108.062 c 0,7.314 -2.437,27.858 -10.446,41.09 -8.009,13.232 -29.25,32.384 -60.241,34.821 -30.991,2.438 -115.258,-4.526 -167.259,-36.562 -52.001,-32.036 -94.252,-98.429 -100.751,-170.858 -6.499,-72.427 17.644,-112.357 20.429,-118.392 2.786,-6.036 37.606,-60.359 40.857,-65.93 3.251,-5.571 7.428,-20.895 12.536,-27.394 5.107,-6.499 26.001,-25.535 38.072,-29.713 12.071,-4.178 40.391,-15.322 42.714,-16.714 2.322,-1.393 6.267,-4.878 14.161,-7.198 7.893,-2.321 23.447,-3.483 26.697,-3.248 3.249,0.231 4.411,2.086 6.964,1.855 2.554,-0.231 3.25,-2.555 6.035,-2.786 2.786,-0.232 14.204,-0.361 15.785,0 1.464,-0.596 1.974,-0.942 8.823,-1.624 9.287,-0.922 25.534,-1.859 37.838,2.555 12.305,4.41 17.644,8.587 20.429,10.909 2.786,2.323 2.091,6.732 3.715,7.894 1.624,1.158 3.018,2.552 5.803,1.856 2.786,-0.698 7.428,3.251 10.679,8.591 3.25,5.336 8.822,10.446 12.536,13.232 3.713,2.785 11.374,19.497 12.07,25.533 0.697,6.037 1.162,18.342 0,25.072 -1.158,6.733 0.233,17.166 1.393,24.377 1.161,7.211 1.161,47.111 1.161,55.715 0,8.602 0,49.678 0,49.678 0,0 0,-41.076 0,-49.678 0,-8.604 0,-48.504 1.163,-55.715 1.16,-7.211 2.551,-17.644 1.392,-24.376 -1.161,-6.731 -0.696,-19.035 0,-25.071 0.697,-6.037 8.358,-22.75 12.071,-25.535 3.713,-2.786 9.285,-7.894 12.536,-13.232 3.251,-5.339 7.893,-9.287 10.678,-8.59 2.786,0.696 4.179,-0.697 5.803,-1.857 1.624,-1.16 0.93,-5.571 3.715,-7.893 2.786,-2.323 8.125,-6.499 20.429,-10.91 12.304,-4.412 28.552,-3.477 37.839,-2.554 6.848,0.681 7.358,1.028 8.822,1.625 1.582,-0.363 13,-0.232 15.785,0 2.786,0.23 3.482,2.553 6.035,2.785 2.554,0.231 3.715,-1.624 6.965,-1.856 3.249,-0.233 18.804,0.928 26.696,3.249 7.894,2.321 11.84,5.804 14.162,7.197 2.322,1.392 30.643,12.536 42.713,16.714 12.07,4.178 32.965,23.214 38.072,29.714 5.108,6.5 9.286,21.822 12.537,27.393 3.251,5.571 38.071,59.894 40.856,65.93 2.786,6.035 26.929,45.965 20.43,118.392 -6.499,72.429 -48.751,138.822 -100.752,170.858 -52.001,32.036 -136.268,39 -167.259,36.562 -30.99,-2.437 -52.231,-21.589 -60.241,-34.821 C 542.438,790.622 540,770.078 540,762.764 V 654.702 c 0,-9.069 7.43,-13.697 7.43,-13.697 -3.716,-1.161 -4.643,-4.642 -4.925,-6.773 h -5.008"
       style="fill:#ffffff;fill-opacity:1;fill-rule:nonzero;stroke:none;stroke-width:0.1"
       id="path670" />
    <path
       d="m 537.497,634.232 c -0.282,2.131 -1.209,5.612 -4.926,6.773 0,0 7.429,4.628 7.429,13.697 v 108.062 c 0,7.314 -2.437,27.858 -10.446,41.09 -8.009,13.232 -29.25,32.384 -60.241,34.821 -30.991,2.438 -115.258,-4.526 -167.259,-36.562 -52.001,-32.036 -94.252,-98.429 -100.751,-170.858 -6.499,-72.427 17.644,-112.357 20.429,-118.392 2.786,-6.036 37.606,-60.359 40.857,-65.93 3.251,-5.571 7.428,-20.895 12.536,-27.394 5.107,-6.499 26.001,-25.535 38.072,-29.713 12.071,-4.178 40.391,-15.322 42.714,-16.714 2.322,-1.393 6.267,-4.878 14.161,-7.198 7.893,-2.321 23.447,-3.483 26.697,-3.248 3.249,0.231 4.411,2.086 6.964,1.855 2.554,-0.231 3.25,-2.555 6.035,-2.786 2.786,-0.232 14.204,-0.361 15.785,0 1.464,-0.596 1.974,-0.942 8.823,-1.624 9.287,-0.922 25.534,-1.859 37.838,2.555 12.305,4.41 17.644,8.587 20.429,10.909 2.786,2.323 2.091,6.732 3.715,7.894 1.624,1.158 3.018,2.552 5.803,1.856 2.786,-0.698 7.428,3.251 10.679,8.591 3.25,5.336 8.822,10.446 12.536,13.232 3.713,2.785 11.374,19.497 12.07,25.533 0.697,6.037 1.162,18.342 0,25.072 -1.158,6.733 0.233,17.166 1.393,24.377 1.161,7.211 1.161,47.111 1.161,55.715 0,8.602 0,49.678 0,49.678 0,0 0,-41.076 0,-49.678 0,-8.604 0,-48.504 1.163,-55.715 1.16,-7.211 2.551,-17.644 1.392,-24.376 -1.161,-6.731 -0.696,-19.035 0,-25.071 0.697,-6.037 8.358,-22.75 12.071,-25.535 3.713,-2.786 9.285,-7.894 12.536,-13.232 3.251,-5.339 7.893,-9.287 10.678,-8.59 2.786,0.696 4.179,-0.697 5.803,-1.857 1.624,-1.16 0.93,-5.571 3.715,-7.893 2.786,-2.323 8.125,-6.499 20.429,-10.91 12.304,-4.412 28.552,-3.477 37.839,-2.554 6.848,0.681 7.358,1.028 8.822,1.625 1.582,-0.363 13,-0.232 15.785,0 2.786,0.23 3.482,2.553 6.035,2.785 2.554,0.231 3.715,-1.624 6.965,-1.856 3.249,-0.233 18.804,0.928 26.696,3.249 7.894,2.321 11.84,5.804 14.162,7.197 2.322,1.392 30.643,12.536 42.713,16.714 12.07,4.178 32.965,23.214 38.072,29.714 5.108,6.5 9.286,21.822 12.537,27.393 3.251,5.571 38.071,59.894 40.856,65.93 2.786,6.035 26.929,45.965 20.43,118.392 -6.499,72.429 -48.751,138.822 -100.752,170.858 -52.001,32.036 -136.268,39 -167.259,36.562 -30.99,-2.437 -52.231,-21.589 -60.241,-34.821 C 542.438,790.622 540,770.078 540,762.764 V 654.702 c 0,-9.069 7.43,-13.697 7.43,-13.697 -3.716,-1.161 -4.643,-4.642 -4.925,-6.773 z"
       style="fill:none;stroke:#231f20;stroke-width:0.75;stroke-linecap:round;stroke-linejoin:round;stroke-miterlimit:4;stroke-dasharray:none;stroke-opacity:1"
       id="path672" />
    <path
       d="m 543.252,632.184 c 0,-1.795 -1.456,-3.251 -3.252,-3.251 -1.794,0 -3.25,1.456 -3.25,3.251 0,1.795 1.456,3.25 3.25,3.25 1.796,0 3.252,-1.455 3.252,-3.25"
       style="fill:#ffffff;fill-opacity:1;fill-rule:nonzero;stroke:none;stroke-width:0.1"
       id="path674" />
    <path
       d="m 543.252,632.184 c 0,-1.795 -1.456,-3.251 -3.252,-3.251 -1.794,0 -3.25,1.456 -3.25,3.251 0,1.795 1.456,3.25 3.25,3.25 1.796,0 3.252,-1.455 3.252,-3.25 z"
       style="fill:none;stroke:#231f20;stroke-width:0.5;stroke-linecap:butt;stroke-linejoin:miter;stroke-miterlimit:4;stroke-dasharray:none;stroke-opacity:1"
       id="path676" />
    <path
       d="m 544.04,424.299 c 0,-2.691 -1.808,-4.875 -4.04,-4.875 -2.23,0 -4.037,2.184 -4.037,4.875 0,2.693 1.807,4.875 4.037,4.875 2.232,0 4.04,-2.182 4.04,-4.875"
       style="fill:#ffffff;fill-opacity:1;fill-rule:nonzero;stroke:none;stroke-width:0.1"
       id="path678" />
    <path
       d="m 544.04,424.299 c 0,-2.691 -1.808,-4.875 -4.04,-4.875 -2.23,0 -4.037,2.184 -4.037,4.875 0,2.693 1.807,4.875 4.037,4.875 2.232,0 4.04,-2.182 4.04,-4.875 z"
       style="fill:none;stroke:#231f20;stroke-width:0.5;stroke-linecap:butt;stroke-linejoin:miter;stroke-miterlimit:4;stroke-dasharray:none;stroke-opacity:1"
       id="path680" />
    <path
       d="m 532.604,416.512 c 0,-0.983 0.773,-1.777 1.728,-1.777 0.955,0 1.729,0.794 1.729,1.777 0,0.984 -0.774,1.78 -1.729,1.78 -0.955,0 -1.728,-0.796 -1.728,-1.78"
       style="fill:#ffffff;fill-opacity:1;fill-rule:nonzero;stroke:none;stroke-width:0.1"
       id="path682" />
    <path
       d="m 532.604,416.512 c 0,-0.983 0.773,-1.777 1.728,-1.777 0.955,0 1.729,0.794 1.729,1.777 0,0.984 -0.774,1.78 -1.729,1.78 -0.955,0 -1.728,-0.796 -1.728,-1.78 z"
       style="fill:none;stroke:#231f20;stroke-width:0.5;stroke-linecap:butt;stroke-linejoin:miter;stroke-miterlimit:4;stroke-dasharray:none;stroke-opacity:1"
       id="path684" />
    <path
       d="m 547.398,416.512 c 0,-0.983 -0.774,-1.777 -1.73,-1.777 -0.953,0 -1.728,0.794 -1.728,1.777 0,0.984 0.775,1.78 1.728,1.78 0.956,0 1.73,-0.796 1.73,-1.78"
       style="fill:#ffffff;fill-opacity:1;fill-rule:nonzero;stroke:none;stroke-width:0.1"
       id="path686" />
    <path
       d="m 547.398,416.512 c 0,-0.983 -0.774,-1.777 -1.73,-1.777 -0.953,0 -1.728,0.794 -1.728,1.777 0,0.984 0.775,1.78 1.728,1.78 0.956,0 1.73,-0.796 1.73,-1.78 z"
       style="fill:none;stroke:#231f20;stroke-width:0.5;stroke-linecap:butt;stroke-linejoin:miter;stroke-miterlimit:4;stroke-dasharray:none;stroke-opacity:1"
       id="path688" />
    <path
       d="m 550.447,628.005 c 0,0 19.035,6.733 30.411,16.018 11.375,9.286 28.088,26.697 34.125,39.465 6.036,12.767 9.287,24.142 13.697,27.392 4.409,3.25 15.785,6.268 37.374,-2.786 0,0 -15.089,1.858 -22.981,0.233 -7.894,-1.625 -10.216,-7.893 -14.161,-14.161 -3.947,-6.268 -11.84,-21.588 -28.554,-37.143 -16.715,-15.554 -27.858,-24.607 -49.911,-29.018 z"
       style="fill:none;stroke:#231f20;stroke-width:0.5;stroke-linecap:butt;stroke-linejoin:miter;stroke-miterlimit:4;stroke-dasharray:none;stroke-opacity:1"
       id="path690" />
    <path
       d="m 666.054,708.094 c 11.144,-3.83 42.483,-17.41 59.198,-33.776 16.713,-16.366 22.633,-35.518 27.16,-49.099 4.527,-13.58 8.706,-37.955 3.133,-54.321 -5.571,-16.366 -17.758,-29.946 -28.552,-39.349 -10.795,-9.401 -12.885,-18.455 -14.278,-22.981 -1.392,-4.528 -5.648,-18.423 -6.267,-29.25 -0.696,-12.189 -3.134,-21.59 -5.92,-25.072 -2.786,-3.482 -4.76,-5.689 -8.938,-8.938 -4.178,-3.25 -8.823,-8.357 -9.053,-12.536 0,0 -0.466,5.571 7.66,13.232 8.126,7.662 12.801,13.013 14.161,33.43 1.16,17.411 5.803,32.732 8.125,39.463 2.322,6.733 13.929,31.108 16.25,42.251 2.322,11.142 10.68,21.589 9.983,33.429 -0.697,11.839 -1.973,25.767 -11.376,41.786 -9.401,16.017 -30.991,31.339 -45.616,33.08 -5.966,0.71 -11.469,0.377 -16.864,-1.259"
       style="fill:none;stroke:#231f20;stroke-width:0.5;stroke-linecap:butt;stroke-linejoin:miter;stroke-miterlimit:4;stroke-dasharray:none;stroke-opacity:1"
       id="path692" />
    <path
       d="m 723.041,372.43 c 0,0 2.558,2.771 3.952,5.208 0,0 7.66,2.438 12.535,7.661 4.875,5.224 9.75,17.411 15.67,19.153 5.92,1.74 18.033,-3.381 25.694,-6.515"
       style="fill:none;stroke:#231f20;stroke-width:0.5;stroke-linecap:butt;stroke-linejoin:miter;stroke-miterlimit:4;stroke-dasharray:none;stroke-opacity:1"
       id="path694" />
    <path
       d="m 635.76,470.612 c -4.854,-1.132 -6.117,-7.463 -2.437,-10.446 4.294,-3.483 16.714,-12.537 21.589,-10.099 4.875,2.437 4.294,8.821 -2.089,13.929 -6.037,4.83 -10.099,8.24 -17.063,6.616 z"
       style="fill:none;stroke:#231f20;stroke-width:0.5;stroke-linecap:butt;stroke-linejoin:miter;stroke-miterlimit:4;stroke-dasharray:none;stroke-opacity:1"
       id="path696" />
    <path
       d="m 585.269,576.818 c 1.393,-5.571 7.66,-36.911 0.348,-47.706 l 8.706,5.223 c 4.526,4.527 4.177,16.367 4.526,25.072 0.349,8.705 2.786,25.071 3.83,33.777 1.045,8.705 6.965,16.366 12.536,25.071 5.572,8.705 14.277,19.152 16.714,20.545 2.438,1.393 8.706,7.66 11.144,11.143 2.437,3.482 16.683,14.03 21.787,18.241 -7.826,-2.374 -15.425,-7.493 -23.877,-16.152 -14.276,-14.625 -30.991,-36.91 -37.259,-46.66 -6.267,-9.75 -10.795,-13.582 -13.929,-16.367 -3.133,-2.786 -5.222,-7.312 -4.526,-12.187"
       style="fill:#b2b1b1;fill-opacity:1;fill-rule:nonzero;stroke:none;stroke-width:0.1"
       id="path698" />
    <path
       d="m 494.733,576.818 c -1.393,-5.571 -7.661,-36.911 -0.349,-47.706 l -8.705,5.223 c -4.526,4.527 -4.179,16.367 -4.526,25.072 -0.349,8.705 -2.786,25.071 -3.831,33.777 -1.044,8.705 -6.964,16.366 -12.535,25.071 -5.572,8.705 -14.278,19.152 -16.715,20.545 -2.438,1.393 -8.705,7.66 -11.143,11.143 -2.437,3.482 -16.684,14.03 -21.788,18.241 7.827,-2.374 15.425,-7.493 23.877,-16.152 14.277,-14.625 30.991,-36.91 37.26,-46.66 6.267,-9.75 10.794,-13.582 13.928,-16.367 3.134,-2.786 5.223,-7.312 4.527,-12.187"
       style="fill:#b2b1b1;fill-opacity:1;fill-rule:nonzero;stroke:none;stroke-width:0.1"
       id="path700" />
    <path
       d="m 529.554,628.005 c 0,0 -19.035,6.733 -30.41,16.018 -11.376,9.286 -28.089,26.697 -34.125,39.465 -6.037,12.767 -9.288,24.142 -13.697,27.392 -4.41,3.25 -15.785,6.268 -37.375,-2.786 0,0 15.089,1.858 22.982,0.233 7.894,-1.625 10.215,-7.893 14.161,-14.161 3.947,-6.268 11.839,-21.588 28.554,-37.143 16.714,-15.554 27.857,-24.607 49.91,-29.018 z"
       style="fill:none;stroke:#231f20;stroke-width:0.5;stroke-linecap:butt;stroke-linejoin:miter;stroke-miterlimit:4;stroke-dasharray:none;stroke-opacity:1"
       id="path702" />
    <path
       d="m 494.733,576.818 c 0,0 3.83,-6.965 10.099,-0.696 6.267,6.267 19.151,9.401 35.168,9.401 16.019,0 28.903,-3.134 35.17,-9.401 6.268,-6.269 10.099,0.696 10.099,0.696"
       style="fill:none;stroke:#231f20;stroke-width:0.5;stroke-linecap:butt;stroke-linejoin:miter;stroke-miterlimit:4;stroke-dasharray:none;stroke-opacity:1"
       id="path704" />
    <path
       d="m 413.947,708.094 c -11.143,-3.83 -42.483,-17.41 -59.197,-33.776 -16.714,-16.366 -22.633,-35.518 -27.161,-49.099 -4.526,-13.58 -8.705,-37.955 -3.133,-54.321 5.571,-16.366 17.758,-29.946 28.553,-39.349 10.795,-9.401 12.884,-18.455 14.278,-22.981 1.392,-4.528 5.648,-18.423 6.267,-29.25 0.696,-12.189 3.134,-21.59 5.92,-25.072 2.785,-3.482 4.759,-5.689 8.938,-8.94 4.178,-3.248 8.822,-8.356 9.053,-12.535 0,0 0.465,5.571 -7.661,13.232 -8.126,7.661 -12.801,13.014 -14.161,33.431 -1.16,17.411 -5.803,32.732 -8.124,39.463 -2.322,6.733 -13.929,31.108 -16.251,42.251 -2.321,11.142 -10.679,21.589 -9.982,33.429 0.696,11.839 1.973,25.767 11.375,41.786 9.402,16.017 30.991,31.339 45.616,33.08 5.967,0.71 11.47,0.377 16.864,-1.259"
       style="fill:none;stroke:#231f20;stroke-width:0.5;stroke-linecap:butt;stroke-linejoin:miter;stroke-miterlimit:4;stroke-dasharray:none;stroke-opacity:1"
       id="path706" />
    <path
       d="m 356.96,372.429 c 0,0 -2.558,2.772 -3.951,5.209 0,0 -7.661,2.438 -12.536,7.661 -4.875,5.224 -9.75,17.411 -15.669,19.153 -5.92,1.74 -18.034,-3.382 -25.694,-6.516"
       style="fill:none;stroke:#231f20;stroke-width:0.5;stroke-linecap:butt;stroke-linejoin:miter;stroke-miterlimit:4;stroke-dasharray:none;stroke-opacity:1"
       id="path708" />
    <path
       d="m 444.242,470.612 c 4.854,-1.132 6.117,-7.463 2.437,-10.446 -4.294,-3.483 -16.715,-12.537 -21.59,-10.099 -4.875,2.437 -4.294,8.821 2.09,13.929 6.036,4.83 10.099,8.24 17.063,6.616 z"
       style="fill:none;stroke:#231f20;stroke-width:0.5;stroke-linecap:butt;stroke-linejoin:miter;stroke-miterlimit:4;stroke-dasharray:none;stroke-opacity:1"
       id="path710" />
    <path
       d="m 593.094,588.309 c 2.621,0 5.059,-2.09 4.014,-8.706 -1.045,-6.616 -2.438,-34.125 -4.179,-41.089 0,0 -0.696,8.009 -1.044,14.973 -0.348,6.965 -2.243,22.33 -2.786,25.768 -0.522,3.308 0.68,9.054 3.995,9.054"
       style="fill:#706d6e;fill-opacity:1;fill-rule:nonzero;stroke:none;stroke-width:0.1"
       id="path712" />
    <path
       d="m 593.094,588.309 c 2.621,0 5.059,-2.09 4.014,-8.706 -1.045,-6.616 -2.438,-34.125 -4.179,-41.089 0,0 -0.696,8.009 -1.044,14.973 -0.348,6.965 -2.243,22.33 -2.786,25.768 -0.522,3.308 0.68,9.054 3.995,9.054 z"
       style="fill:none;stroke:#231f20;stroke-width:0.5;stroke-linecap:butt;stroke-linejoin:miter;stroke-miterlimit:4;stroke-dasharray:none;stroke-opacity:1"
       id="path714" />
    <path
       d="m 486.908,588.309 c -2.621,0 -5.059,-2.09 -4.015,-8.706 1.045,-6.616 2.438,-34.125 4.179,-41.089 0,0 0.696,8.009 1.045,14.973 0.348,6.965 2.243,22.33 2.786,25.768 0.521,3.308 -0.681,9.054 -3.995,9.054"
       style="fill:#706d6e;fill-opacity:1;fill-rule:nonzero;stroke:none;stroke-width:0.1"
       id="path716" />
    <path
       d="m 486.908,588.309 c -2.621,0 -5.059,-2.09 -4.015,-8.706 1.045,-6.616 2.438,-34.125 4.179,-41.089 0,0 0.696,8.009 1.045,14.973 0.348,6.965 2.243,22.33 2.786,25.768 0.521,3.308 -0.681,9.054 -3.995,9.054 z"
       style="fill:none;stroke:#231f20;stroke-width:0.5;stroke-linecap:butt;stroke-linejoin:miter;stroke-miterlimit:4;stroke-dasharray:none;stroke-opacity:1"
       id="path718" />
    <path
       d="m 634.367,452.853 c -2.696,-2.632 8.357,-12.187 10.447,-9.75 2.089,2.437 -5.572,14.51 -10.447,9.75 z"
       style="fill:none;stroke:#231f20;stroke-width:0.5;stroke-linecap:butt;stroke-linejoin:miter;stroke-miterlimit:4;stroke-dasharray:none;stroke-opacity:1"
       id="path720" />
    <path
       d="m 674.064,443.103 c 0,-1.538 -1.248,-2.786 -2.786,-2.786 -1.538,0 -2.786,1.248 -2.786,2.786 0,1.538 1.248,2.786 2.786,2.786 1.538,0 2.786,-1.248 2.786,-2.786 z"
       style="fill:none;stroke:#231f20;stroke-width:0.5;stroke-linecap:butt;stroke-linejoin:miter;stroke-miterlimit:4;stroke-dasharray:none;stroke-opacity:1"
       id="path722" />
    <path
       d="m 445.634,452.853 c 2.697,-2.634 -8.356,-12.187 -10.446,-9.75 -2.089,2.437 5.571,14.508 10.446,9.75 z"
       style="fill:none;stroke:#231f20;stroke-width:0.5;stroke-linecap:butt;stroke-linejoin:miter;stroke-miterlimit:4;stroke-dasharray:none;stroke-opacity:1"
       id="path724" />
    <path
       d="m 405.938,443.103 c 0,-1.54 1.247,-2.786 2.786,-2.786 1.538,0 2.785,1.246 2.785,2.786 0,1.537 -1.247,2.786 -2.785,2.786 -1.539,0 -2.786,-1.249 -2.786,-2.786 z"
       style="fill:none;stroke:#231f20;stroke-width:0.5;stroke-linecap:butt;stroke-linejoin:miter;stroke-miterlimit:4;stroke-dasharray:none;stroke-opacity:1"
       id="path726" />
    <path
       d="m 529.554,628.005 c 4.886,-0.697 17.156,-0.752 20.893,0"
       style="fill:none;stroke:#231f20;stroke-width:0.5;stroke-linecap:butt;stroke-linejoin:miter;stroke-miterlimit:4;stroke-dasharray:none;stroke-opacity:1"
       id="path728" />
    <path
       d="m 585.269,576.818 c 1.393,-5.571 7.66,-36.911 0.348,-47.706 l 8.706,5.223 c 4.526,4.527 4.177,16.367 4.526,25.072 0.349,8.705 2.786,25.071 3.83,33.777 1.045,8.705 6.965,16.366 12.536,25.071 5.572,8.705 14.277,19.152 16.714,20.545 2.438,1.393 8.706,7.66 11.144,11.143 2.437,3.482 16.683,14.03 21.787,18.241 -7.826,-2.374 -15.425,-7.493 -23.877,-16.152 -14.276,-14.625 -30.991,-36.91 -37.259,-46.66 -6.267,-9.75 -10.795,-13.582 -13.929,-16.367 -3.133,-2.786 -5.222,-7.312 -4.526,-12.187 z"
       style="fill:none;stroke:#231f20;stroke-width:0.5;stroke-linecap:butt;stroke-linejoin:miter;stroke-miterlimit:4;stroke-dasharray:none;stroke-opacity:1"
       id="path730" />
    <path
       d="m 494.733,576.818 c -1.393,-5.571 -7.661,-36.911 -0.349,-47.706 l -8.705,5.223 c -4.526,4.527 -4.179,16.367 -4.526,25.072 -0.349,8.705 -2.786,25.071 -3.831,33.777 -1.044,8.705 -6.964,16.366 -12.535,25.071 -5.572,8.705 -14.278,19.152 -16.715,20.545 -2.438,1.393 -8.705,7.66 -11.143,11.143 -2.437,3.482 -16.684,14.03 -21.788,18.241 7.827,-2.374 15.425,-7.493 23.877,-16.152 14.277,-14.625 30.991,-36.91 37.26,-46.66 6.267,-9.75 10.794,-13.582 13.928,-16.367 3.134,-2.786 5.223,-7.312 4.527,-12.187 z"
       style="fill:none;stroke:#231f20;stroke-width:0.5;stroke-linecap:butt;stroke-linejoin:miter;stroke-miterlimit:4;stroke-dasharray:none;stroke-opacity:1"
       id="path732" />
    <path
       d="m 540,738.738 c 0,0 49.761,-14.603 86.284,-30.516"
       style="fill:none;stroke:#231f20;stroke-width:0.5;stroke-linecap:round;stroke-linejoin:round;stroke-miterlimit:4;stroke-dasharray:2.8, 1.8;stroke-dashoffset:0;stroke-opacity:1"
       id="path734" />
    <path
       d="m 564.205,819.495 c 9.457,-12.042 53.709,-87.423 66.985,-107.189"
       style="fill:none;stroke:#231f20;stroke-width:0.5;stroke-linecap:round;stroke-linejoin:round;stroke-miterlimit:4;stroke-dasharray:2.8, 1.8;stroke-dashoffset:0;stroke-opacity:1"
       id="path736" />
    <path
       d="m 649.773,837.98 c -0.084,-12.188 -2.206,-102.696 -4.279,-124.126"
       style="fill:none;stroke:#231f20;stroke-width:0.5;stroke-linecap:round;stroke-linejoin:round;stroke-miterlimit:4;stroke-dasharray:2.8, 1.8;stroke-dashoffset:0;stroke-opacity:1"
       id="path738" />
    <path
       d="m 545.803,523.542 c 2.308,0 9.519,2.088 12.073,11.373 2.552,9.288 7.893,19.038 9.982,22.519 2.089,3.482 7.894,10.213 7.312,18.688"
       style="fill:none;stroke:#231f20;stroke-width:0.5;stroke-linecap:round;stroke-linejoin:round;stroke-miterlimit:4;stroke-dasharray:2.8, 1.8;stroke-dashoffset:0;stroke-opacity:1"
       id="path740" />
    <path
       d="m 540,523.542 c 1.146,0 5.122,0 5.803,0"
       style="fill:none;stroke:#231f20;stroke-width:0.5;stroke-linecap:round;stroke-linejoin:round;stroke-miterlimit:4;stroke-dasharray:2.8, 1.8;stroke-dashoffset:0;stroke-opacity:1"
       id="path742" />
    <path
       d="m 558.015,535.407 c 3.344,-3.509 5.199,-19.758 1.717,-29.046 -3.134,-8.361 -9.285,-17.41 -19.5,-1.624"
       style="fill:none;stroke:#231f20;stroke-width:0.5;stroke-linecap:round;stroke-linejoin:round;stroke-miterlimit:4;stroke-dasharray:2.8, 1.8;stroke-dashoffset:0;stroke-opacity:1"
       id="path744" />
    <path
       d="m 753.823,566.396 c 0.679,-5.944 2.071,-22.659 -2.108,-31.364 -4.178,-8.705 -17.062,-24.724 -20.196,-28.902 -3.134,-4.178 -10.544,-14.551 -16.603,-6.157"
       style="fill:none;stroke:#231f20;stroke-width:0.5;stroke-linecap:round;stroke-linejoin:round;stroke-miterlimit:4;stroke-dasharray:2.8, 1.8;stroke-dashoffset:0;stroke-opacity:1"
       id="path746" />
    <path
       d="m 714.175,513.195 c -0.855,-2.617 -2.572,-9.987 3.764,-18.208 5.455,-7.081 22.285,-25.189 33.776,-32.733 11.482,-7.538 21.59,-12.883 27.858,-10.794 6.267,2.089 11.839,5.572 16.366,4.527 4.526,-1.045 16.991,-5.528 21.902,-8.335"
       style="fill:none;stroke:#231f20;stroke-width:0.5;stroke-linecap:round;stroke-linejoin:round;stroke-miterlimit:4;stroke-dasharray:2.8, 1.8;stroke-dashoffset:0;stroke-opacity:1"
       id="path748" />
    <path
       d="m 754.47,558.361 c 10.478,-3.481 81.924,-29.964 106.964,-39.183"
       style="fill:none;stroke:#231f20;stroke-width:0.5;stroke-linecap:round;stroke-linejoin:round;stroke-miterlimit:4;stroke-dasharray:2.8, 1.8;stroke-dashoffset:0;stroke-opacity:1"
       id="path750" />
    <path
       d="m 754.464,548.286 c 11.18,-9.772 60.485,-45.506 90.328,-57.76"
       style="fill:none;stroke:#231f20;stroke-width:0.5;stroke-linecap:round;stroke-linejoin:round;stroke-miterlimit:4;stroke-dasharray:2.8, 1.8;stroke-dashoffset:0;stroke-opacity:1"
       id="path752" />
    <path
       d="m 749.528,531.05 c 14.461,-15.771 59.866,-49.913 81.581,-60.438"
       style="fill:none;stroke:#231f20;stroke-width:0.5;stroke-linecap:round;stroke-linejoin:round;stroke-miterlimit:4;stroke-dasharray:2.8, 1.8;stroke-dashoffset:0;stroke-opacity:1"
       id="path754" />
    <path
       d="m 738.302,514.971 c 9.235,-14.413 57.742,-54.871 79.539,-67.319"
       style="fill:none;stroke:#231f20;stroke-width:0.5;stroke-linecap:round;stroke-linejoin:round;stroke-miterlimit:4;stroke-dasharray:2.8, 1.8;stroke-dashoffset:0;stroke-opacity:1"
       id="path756" />
    <path
       d="m 732.432,536.561 c 7.417,7.896 21.028,3.804 18.055,-3.864"
       style="fill:none;stroke:#231f20;stroke-width:0.5;stroke-linecap:round;stroke-linejoin:round;stroke-miterlimit:4;stroke-dasharray:2.8, 1.8;stroke-dashoffset:0;stroke-opacity:1"
       id="path758" />
    <path
       d="m 706.067,474.482 c 0.381,-4.566 0.233,-25.555 15.629,-33.516"
       style="fill:none;stroke:#231f20;stroke-width:0.5;stroke-linecap:round;stroke-linejoin:round;stroke-miterlimit:4;stroke-dasharray:2.8, 1.8;stroke-dashoffset:0;stroke-opacity:1"
       id="path760" />
    <path
       d="m 682.537,432.772 c 0.232,-3.598 -0.117,-13.695 2.67,-18.223 2.785,-4.526 5.462,-6.134 8.705,-9.053 3.482,-3.134 9.402,-3.83 12.883,-6.268 3.483,-2.438 9.75,-5.571 13.929,-8.705 4.179,-3.135 9.402,-7.313 6.269,-12.885"
       style="fill:none;stroke:#231f20;stroke-width:0.5;stroke-linecap:round;stroke-linejoin:round;stroke-miterlimit:4;stroke-dasharray:2.8, 1.8;stroke-dashoffset:0;stroke-opacity:1"
       id="path762" />
    <path
       d="m 594.323,534.335 c 9.053,-2.437 21.24,-12.536 34.821,-25.767 13.58,-13.233 32.335,-36.725 34.125,-42.831 1.974,-6.732 3.483,-22.634 -13.929,-30.295 -17.411,-7.66 -39.696,2.786 -50.147,30.727 -9.266,24.776 -9.683,51.35 -9.018,65.677"
       style="fill:none;stroke:#231f20;stroke-width:0.5;stroke-linecap:round;stroke-linejoin:round;stroke-miterlimit:4;stroke-dasharray:2.8, 1.8;stroke-dashoffset:0;stroke-opacity:1"
       id="path764" />
    <path
       d="m 545.605,432.463 c 0.348,-3.83 0.664,-13.735 7.279,-18.261 6.616,-4.528 15.323,-11.84 18.804,-17.412 3.482,-5.571 12.188,-12.883 14.974,-14.973 2.786,-2.089 11.142,-9.401 14.625,-11.143 3.482,-1.741 10.098,-2.786 14.276,-2.089 4.179,0.697 8.357,2.089 12.885,-0.348 4.526,-2.438 14.276,-7.661 20.196,-6.616 5.92,1.045 12.884,3.133 13.58,7.312 0.696,4.179 -1.045,9.054 3.483,8.009 4.526,-1.044 8.705,-2.089 15.321,-1.044 6.616,1.044 15.67,2.785 18.107,2.089 2.438,-0.697 7.313,-3.483 9.75,-1.393 2.438,2.089 1.044,7.66 3.482,9.402 2.438,1.741 4.579,3.906 7.339,5.261 2.759,1.355 11.117,4.837 15.296,9.364 4.178,4.527 7.312,8.706 8.356,14.625 1.045,5.92 4.527,12.883 12.536,11.491 8.009,-1.393 18.455,-8.009 22.982,-10.098 4.527,-2.09 8.706,-1.741 13.581,4.875 4.875,6.615 9.053,16.714 4.875,22.285 -4.179,5.572 -11.143,9.403 -13.58,5.572 -2.438,-3.831 2.437,-4.179 3.83,-11.143 1.392,-6.964 0.348,-16.366 -6.964,-13.58 -7.313,2.785 -16.865,6.855 -21.86,8.923 -7.043,2.916 -14.703,-0.914 -19.578,-7.531 -4.875,-6.616 -6.965,-11.491 -10.795,-16.713 -3.83,-5.224 -10.452,-12.085 -13.06,-15.271 -2.61,-3.185 -8.877,-9.802 -16.19,-9.453 -7.312,0.348 -12.536,-0.349 -14.277,-1.741 -1.741,-1.393 -5.223,-0.696 -6.964,-0.349 -1.741,0.349 -3.134,-1.74 -5.224,-2.089 -2.088,-0.348 -3.133,3.483 -8.008,3.134 -4.875,-0.348 -10.795,-2.437 -10.447,-4.526 0.349,-2.09 4.179,-3.134 4.179,-6.269 0,-3.134 -1.045,-4.178 -10.446,-4.875 -9.403,-0.696 -16.366,1.045 -21.241,4.875 -4.875,3.831 -9.75,2.09 -12.884,1.394 -3.135,-0.697 -7.661,-1.741 -13.233,5.222 -5.571,6.965 -8.006,8.738 -11.142,9.054 -3.413,0.346 -7.313,0.174 -10.341,4.057"
       style="fill:none;stroke:#231f20;stroke-width:0.5;stroke-linecap:round;stroke-linejoin:round;stroke-miterlimit:4;stroke-dasharray:2.8, 1.8;stroke-dashoffset:0;stroke-opacity:1"
       id="path766" />
    <path
       d="m 585.617,529.112 c -4.179,-3.83 -19.848,-33.08 -21.589,-49.794"
       style="fill:none;stroke:#231f20;stroke-width:0.5;stroke-linecap:round;stroke-linejoin:round;stroke-miterlimit:4;stroke-dasharray:2.8, 1.8;stroke-dashoffset:0;stroke-opacity:1"
       id="path768" />
    <path
       d="m 556.425,499.821 c -1.799,-12.147 -1.103,-35.477 -0.058,-41.048 1.045,-5.571 2.807,-18.2 3.504,-26.905"
       style="fill:none;stroke:#231f20;stroke-width:0.5;stroke-linecap:round;stroke-linejoin:round;stroke-miterlimit:4;stroke-dasharray:2.8, 1.8;stroke-dashoffset:0;stroke-opacity:1"
       id="path770" />
    <path
       d="m 542.915,459.114 c 2.309,1.748 9.969,3.489 13.452,-0.341"
       style="fill:none;stroke:#231f20;stroke-width:0.5;stroke-linecap:round;stroke-linejoin:round;stroke-miterlimit:4;stroke-dasharray:2.8, 1.8;stroke-dashoffset:0;stroke-opacity:1"
       id="path772" />
    <path
       d="m 690.197,446.004 c -6.035,1.974 -11.607,1.278 -14.74,-5.338 -3.134,-6.617 -3.134,-10.795 -4.875,-14.277 -1.742,-3.482 -3.483,-8.01 -2.09,-10.447"
       style="fill:none;stroke:#231f20;stroke-width:0.5;stroke-linecap:round;stroke-linejoin:round;stroke-miterlimit:4;stroke-dasharray:2.8, 1.8;stroke-dashoffset:0;stroke-opacity:1"
       id="path774" />
    <path
       d="m 684.112,417.082 c 0.39,-1.121 -1.343,-4.622 -3.084,-6.015"
       style="fill:none;stroke:#231f20;stroke-width:0.5;stroke-linecap:round;stroke-linejoin:round;stroke-miterlimit:4;stroke-dasharray:2.8, 1.8;stroke-dashoffset:0;stroke-opacity:1"
       id="path776" />
    <path
       d="m 751.715,462.254 c 0.697,-4.526 -2.089,-11.142 -9.401,-12.883 -7.312,-1.742 -21.241,-6.268 -25.42,-13.232 -4.179,-6.965 -6.268,-20.197 -22.982,-30.643 -2.642,-1.652 -6.268,-3.83 -8.009,-8.009 -1.741,-4.179 -8.767,-9.179 -10.446,-7.313 -3.134,3.483 2.785,10.447 -4.875,8.705 -5.601,-1.272 -13.58,-1.741 -21.938,-1.044 -8.357,0.697 -16.366,-0.348 -24.027,-3.134"
       style="fill:none;stroke:#231f20;stroke-width:0.5;stroke-linecap:round;stroke-linejoin:round;stroke-miterlimit:4;stroke-dasharray:2.8, 1.8;stroke-dashoffset:0;stroke-opacity:1"
       id="path778" />
    <path
       d="m 649.683,397.757 c -3.139,0.213 -7.655,4.257 -6.959,7.042 0.696,2.786 1.393,4.875 4.875,3.483 3.483,-1.393 8.358,-3.483 12.188,0.347 3.83,3.831 7.312,7.661 11.491,7.661 4.179,0 8.705,-2.786 10.795,-7.312 2.089,-4.526 4.684,-11.186 2.697,-13.424"
       style="fill:none;stroke:#231f20;stroke-width:0.5;stroke-linecap:round;stroke-linejoin:round;stroke-miterlimit:4;stroke-dasharray:2.8, 1.8;stroke-dashoffset:0;stroke-opacity:1"
       id="path780" />
    <path
       d="m 560.285,430.415 c 1.74,-3.134 7.573,-13.08 16.278,-20.741 8.706,-7.66 13.232,-12.536 20.894,-14.973 7.66,-2.438 15.321,-3.482 19.151,-3.134 3.83,0.349 10.099,2.09 9.054,6.616 -1.045,4.527 -11.143,3.134 -14.974,2.09 -3.83,-1.045 -15.669,-0.696 -18.455,3.83 -2.785,4.526 -4.526,9.75 -8.357,10.795 -3.831,1.044 -11.143,4.875 -13.929,9.75 -2.785,4.875 -2.256,6.268 -3.457,10.104"
       style="fill:none;stroke:#231f20;stroke-width:0.5;stroke-linecap:round;stroke-linejoin:round;stroke-miterlimit:4;stroke-dasharray:2.8, 1.8;stroke-dashoffset:0;stroke-opacity:1"
       id="path782" />
    <path
       d="m 576.563,409.674 c -1.393,-2.437 -0.668,-7.301 0,-9.053 1.394,-3.657 -1.728,-9.197 6.965,-8.705 8.321,0.47 13.929,-1.742 19.151,-2.787 5.224,-1.044 16.63,-3.228 13.191,2.391"
       style="fill:none;stroke:#231f20;stroke-width:0.5;stroke-linecap:round;stroke-linejoin:round;stroke-miterlimit:4;stroke-dasharray:2.8, 1.8;stroke-dashoffset:0;stroke-opacity:1"
       id="path784" />
    <path
       d="m 545.92,443.103 c 2.313,0.771 6.268,-2.786 8.009,-4.875 1.741,-2.089 8.705,-7.312 5.571,-8.705 -3.133,-1.394 -5.571,-2.09 -9.75,0.348 -4.178,2.437 -5.222,3.133 -5.571,5.223 -0.347,2.089 -0.347,7.313 1.741,8.009 z"
       style="fill:none;stroke:#231f20;stroke-width:0.5;stroke-linecap:round;stroke-linejoin:round;stroke-miterlimit:4;stroke-dasharray:2.8, 1.8;stroke-dashoffset:0;stroke-opacity:1"
       id="path786" />
    <path
       d="m 564.028,479.318 c -1.894,-5.878 -5.92,-19.501 -4.528,-24.724 1.394,-5.223 5.045,-13.17 6.99,-19.842 0,0 2.064,4.869 1.368,14.619 -0.696,9.75 -3.83,29.947 -3.83,29.947 z"
       style="fill:none;stroke:#231f20;stroke-width:0.5;stroke-linecap:round;stroke-linejoin:round;stroke-miterlimit:4;stroke-dasharray:2.8, 1.8;stroke-dashoffset:0;stroke-opacity:1"
       id="path788" />
    <path
       d="m 556.552,457.76 c 0,0 1.068,2.34 2.878,2.721"
       style="fill:none;stroke:#231f20;stroke-width:0.5;stroke-linecap:round;stroke-linejoin:round;stroke-miterlimit:4;stroke-dasharray:2.8, 1.8;stroke-dashoffset:0;stroke-opacity:1"
       id="path790" />
    <path
       d="m 777.947,802.113 c 0,0 -51.712,-80.304 -74.607,-111.653"
       style="fill:none;stroke:#231f20;stroke-width:0.5;stroke-linecap:round;stroke-linejoin:round;stroke-miterlimit:4;stroke-dasharray:2.8, 1.8;stroke-dashoffset:0;stroke-opacity:1"
       id="path792" />
    <path
       d="m 826.111,759.212 c 0,0 -68.406,-63.194 -95.659,-90.468"
       style="fill:none;stroke:#231f20;stroke-width:0.5;stroke-linecap:round;stroke-linejoin:round;stroke-miterlimit:4;stroke-dasharray:2.8, 1.8;stroke-dashoffset:0;stroke-opacity:1"
       id="path794" />
    <path
       d="m 839.331,741.357 c 0,0 -71.053,-57.584 -102.665,-80.825"
       style="fill:none;stroke:#231f20;stroke-width:0.5;stroke-linecap:round;stroke-linejoin:round;stroke-miterlimit:4;stroke-dasharray:2.8, 1.8;stroke-dashoffset:0;stroke-opacity:1"
       id="path796" />
    <path
       d="m 749.544,633.711 c 22.832,8.687 103.077,34.664 120.294,43.033"
       style="fill:none;stroke:#231f20;stroke-width:0.5;stroke-linecap:round;stroke-linejoin:round;stroke-miterlimit:4;stroke-dasharray:2.8, 1.8;stroke-dashoffset:0;stroke-opacity:1"
       id="path798" />
    <path
       d="m 753.124,622.974 c 19.252,5.031 102.149,27.178 122.218,31.658"
       style="fill:none;stroke:#231f20;stroke-width:0.5;stroke-linecap:round;stroke-linejoin:round;stroke-miterlimit:4;stroke-dasharray:2.8, 1.8;stroke-dashoffset:0;stroke-opacity:1"
       id="path800" />
    <path
       d="m 540,738.738 c 0,0 -49.76,-14.603 -86.282,-30.516"
       style="fill:none;stroke:#231f20;stroke-width:0.5;stroke-linecap:round;stroke-linejoin:round;stroke-miterlimit:4;stroke-dasharray:2.8, 1.8;stroke-dashoffset:0;stroke-opacity:1"
       id="path802" />
    <path
       d="m 515.797,819.495 c -9.458,-12.042 -53.71,-87.423 -66.985,-107.189"
       style="fill:none;stroke:#231f20;stroke-width:0.5;stroke-linecap:round;stroke-linejoin:round;stroke-miterlimit:4;stroke-dasharray:2.8, 1.8;stroke-dashoffset:0;stroke-opacity:1"
       id="path804" />
    <path
       d="m 430.229,837.98 c 0.084,-12.188 2.206,-102.696 4.279,-124.126"
       style="fill:none;stroke:#231f20;stroke-width:0.5;stroke-linecap:round;stroke-linejoin:round;stroke-miterlimit:4;stroke-dasharray:2.8, 1.8;stroke-dashoffset:0;stroke-opacity:1"
       id="path806" />
    <path
       d="m 534.198,523.542 c -2.307,0 -9.52,2.088 -12.072,11.373 -2.553,9.288 -7.893,19.038 -9.982,22.519 -2.09,3.482 -7.894,10.213 -7.312,18.688"
       style="fill:none;stroke:#231f20;stroke-width:0.5;stroke-linecap:round;stroke-linejoin:round;stroke-miterlimit:4;stroke-dasharray:2.8, 1.8;stroke-dashoffset:0;stroke-opacity:1"
       id="path808" />
    <path
       d="m 540,523.542 c -1.144,0 -5.121,0 -5.802,0"
       style="fill:none;stroke:#231f20;stroke-width:0.5;stroke-linecap:round;stroke-linejoin:round;stroke-miterlimit:4;stroke-dasharray:2.8, 1.8;stroke-dashoffset:0;stroke-opacity:1"
       id="path810" />
    <path
       d="m 521.986,535.407 c -3.343,-3.509 -5.199,-19.758 -1.717,-29.046 3.135,-8.361 9.285,-17.41 19.501,-1.624"
       style="fill:none;stroke:#231f20;stroke-width:0.5;stroke-linecap:round;stroke-linejoin:round;stroke-miterlimit:4;stroke-dasharray:2.8, 1.8;stroke-dashoffset:0;stroke-opacity:1"
       id="path812" />
    <path
       d="m 326.179,566.396 c -0.679,-5.944 -2.071,-22.659 2.107,-31.364 4.178,-8.705 17.062,-24.724 20.197,-28.902 3.134,-4.178 10.544,-14.551 16.602,-6.157"
       style="fill:none;stroke:#231f20;stroke-width:0.5;stroke-linecap:round;stroke-linejoin:round;stroke-miterlimit:4;stroke-dasharray:2.8, 1.8;stroke-dashoffset:0;stroke-opacity:1"
       id="path814" />
    <path
       d="m 365.827,513.195 c 0.855,-2.617 2.572,-9.987 -3.764,-18.208 -5.456,-7.081 -22.286,-25.189 -33.777,-32.733 -11.482,-7.538 -21.589,-12.883 -27.857,-10.794 -6.268,2.089 -11.84,5.572 -16.366,4.527 -4.527,-1.045 -16.992,-5.528 -21.902,-8.335"
       style="fill:none;stroke:#231f20;stroke-width:0.5;stroke-linecap:round;stroke-linejoin:round;stroke-miterlimit:4;stroke-dasharray:2.8, 1.8;stroke-dashoffset:0;stroke-opacity:1"
       id="path816" />
    <path
       d="M 325.532,558.361 C 315.054,554.88 243.607,528.397 218.567,519.178"
       style="fill:none;stroke:#231f20;stroke-width:0.5;stroke-linecap:round;stroke-linejoin:round;stroke-miterlimit:4;stroke-dasharray:2.8, 1.8;stroke-dashoffset:0;stroke-opacity:1"
       id="path818" />
    <path
       d="m 325.537,548.286 c -11.179,-9.772 -60.485,-45.506 -90.328,-57.76"
       style="fill:none;stroke:#231f20;stroke-width:0.5;stroke-linecap:round;stroke-linejoin:round;stroke-miterlimit:4;stroke-dasharray:2.8, 1.8;stroke-dashoffset:0;stroke-opacity:1"
       id="path820" />
    <path
       d="m 330.473,531.05 c -14.46,-15.771 -59.865,-49.913 -81.58,-60.438"
       style="fill:none;stroke:#231f20;stroke-width:0.5;stroke-linecap:round;stroke-linejoin:round;stroke-miterlimit:4;stroke-dasharray:2.8, 1.8;stroke-dashoffset:0;stroke-opacity:1"
       id="path822" />
    <path
       d="M 341.699,514.971 C 332.464,500.558 283.958,460.1 262.161,447.652"
       style="fill:none;stroke:#231f20;stroke-width:0.5;stroke-linecap:round;stroke-linejoin:round;stroke-miterlimit:4;stroke-dasharray:2.8, 1.8;stroke-dashoffset:0;stroke-opacity:1"
       id="path824" />
    <path
       d="m 347.57,536.561 c -7.417,7.896 -21.028,3.804 -18.056,-3.864"
       style="fill:none;stroke:#231f20;stroke-width:0.5;stroke-linecap:round;stroke-linejoin:round;stroke-miterlimit:4;stroke-dasharray:2.8, 1.8;stroke-dashoffset:0;stroke-opacity:1"
       id="path826" />
    <path
       d="m 373.935,474.482 c -0.381,-4.566 -0.234,-25.555 -15.629,-33.518"
       style="fill:none;stroke:#231f20;stroke-width:0.5;stroke-linecap:round;stroke-linejoin:round;stroke-miterlimit:4;stroke-dasharray:2.8, 1.8;stroke-dashoffset:0;stroke-opacity:1"
       id="path828" />
    <path
       d="m 397.465,432.771 c -0.232,-3.597 0.116,-13.694 -2.67,-18.222 -2.786,-4.526 -5.462,-6.134 -8.706,-9.053 -3.481,-3.134 -9.401,-3.83 -12.883,-6.268 -3.482,-2.438 -9.75,-5.571 -13.929,-8.705 -4.179,-3.135 -9.401,-7.313 -6.268,-12.885"
       style="fill:none;stroke:#231f20;stroke-width:0.5;stroke-linecap:round;stroke-linejoin:round;stroke-miterlimit:4;stroke-dasharray:2.8, 1.8;stroke-dashoffset:0;stroke-opacity:1"
       id="path830" />
    <path
       d="m 485.679,534.335 c -9.053,-2.437 -21.241,-12.536 -34.821,-25.767 -13.58,-13.233 -32.335,-36.725 -34.125,-42.831 -1.974,-6.732 -3.483,-22.634 13.929,-30.295 17.41,-7.66 39.696,2.786 50.146,30.727 9.266,24.776 9.684,51.35 9.019,65.677"
       style="fill:none;stroke:#231f20;stroke-width:0.5;stroke-linecap:round;stroke-linejoin:round;stroke-miterlimit:4;stroke-dasharray:2.8, 1.8;stroke-dashoffset:0;stroke-opacity:1"
       id="path832" />
    <path
       d="m 534.397,432.463 c -0.349,-3.83 -0.664,-13.735 -7.28,-18.261 -6.617,-4.528 -15.322,-11.84 -18.804,-17.412 -3.481,-5.571 -12.187,-12.883 -14.973,-14.973 -2.786,-2.089 -11.143,-9.401 -14.625,-11.143 -3.482,-1.741 -10.098,-2.786 -14.277,-2.089 -4.179,0.697 -8.357,2.089 -12.884,-0.348 -4.526,-2.438 -14.276,-7.661 -20.196,-6.616 -5.92,1.045 -12.884,3.133 -13.581,7.312 -0.696,4.179 1.045,9.054 -3.482,8.009 -4.527,-1.044 -8.706,-2.089 -15.321,-1.044 -6.616,1.044 -15.67,2.785 -18.107,2.089 -2.438,-0.697 -7.313,-3.483 -9.75,-1.393 -2.438,2.089 -1.045,7.66 -3.483,9.402 -2.437,1.741 -4.578,3.906 -7.338,5.261 -2.76,1.355 -11.117,4.837 -15.296,9.364 -4.178,4.527 -7.312,8.706 -8.357,14.625 -1.045,5.92 -4.526,12.883 -12.535,11.491 -8.01,-1.393 -18.456,-8.009 -22.982,-10.098 -4.528,-2.09 -8.707,-1.741 -13.582,4.875 -4.875,6.615 -9.052,16.714 -4.875,22.285 4.179,5.572 11.144,9.403 13.581,5.572 2.438,-3.831 -2.437,-4.179 -3.831,-11.143 -1.392,-6.964 -0.347,-16.366 6.965,-13.58 7.313,2.785 16.865,6.855 21.859,8.923 7.043,2.916 14.704,-0.914 19.579,-7.531 4.875,-6.616 6.964,-11.491 10.795,-16.713 3.83,-5.224 10.451,-12.085 13.06,-15.271 2.61,-3.185 8.877,-9.802 16.19,-9.453 7.312,0.348 12.535,-0.349 14.276,-1.741 1.741,-1.393 5.224,-0.696 6.965,-0.349 1.741,0.349 3.134,-1.74 5.223,-2.089 2.089,-0.348 3.133,3.483 8.008,3.134 4.875,-0.348 10.795,-2.437 10.448,-4.526 -0.349,-2.09 -4.179,-3.134 -4.179,-6.269 0,-3.134 1.044,-4.178 10.446,-4.875 9.402,-0.696 16.366,1.045 21.241,4.875 4.875,3.831 9.75,2.09 12.884,1.394 3.134,-0.697 7.661,-1.741 13.233,5.222 5.571,6.965 8.006,8.736 11.142,9.054 3.413,0.346 7.313,0.174 10.341,4.057"
       style="fill:none;stroke:#231f20;stroke-width:0.5;stroke-linecap:round;stroke-linejoin:round;stroke-miterlimit:4;stroke-dasharray:2.8, 1.8;stroke-dashoffset:0;stroke-opacity:1"
       id="path834" />
    <path
       d="m 494.384,529.112 c 4.179,-3.83 19.849,-33.08 21.59,-49.794"
       style="fill:none;stroke:#231f20;stroke-width:0.5;stroke-linecap:round;stroke-linejoin:round;stroke-miterlimit:4;stroke-dasharray:2.8, 1.8;stroke-dashoffset:0;stroke-opacity:1"
       id="path836" />
    <path
       d="m 523.577,499.821 c 1.799,-12.147 1.102,-35.477 0.057,-41.048 -1.044,-5.571 -2.806,-18.2 -3.503,-26.905"
       style="fill:none;stroke:#231f20;stroke-width:0.5;stroke-linecap:round;stroke-linejoin:round;stroke-miterlimit:4;stroke-dasharray:2.8, 1.8;stroke-dashoffset:0;stroke-opacity:1"
       id="path838" />
    <path
       d="m 537.087,459.114 c -2.309,1.748 -9.97,3.489 -13.453,-0.341"
       style="fill:none;stroke:#231f20;stroke-width:0.5;stroke-linecap:round;stroke-linejoin:round;stroke-miterlimit:4;stroke-dasharray:2.8, 1.8;stroke-dashoffset:0;stroke-opacity:1"
       id="path840" />
    <path
       d="m 389.804,446.003 c 6.035,1.975 11.608,1.279 14.741,-5.337 3.134,-6.617 3.134,-10.795 4.875,-14.277 1.742,-3.482 3.482,-8.01 2.089,-10.447"
       style="fill:none;stroke:#231f20;stroke-width:0.5;stroke-linecap:round;stroke-linejoin:round;stroke-miterlimit:4;stroke-dasharray:2.8, 1.8;stroke-dashoffset:0;stroke-opacity:1"
       id="path842" />
    <path
       d="m 395.89,417.082 c -0.39,-1.121 1.343,-4.622 3.084,-6.015"
       style="fill:none;stroke:#231f20;stroke-width:0.5;stroke-linecap:round;stroke-linejoin:round;stroke-miterlimit:4;stroke-dasharray:2.8, 1.8;stroke-dashoffset:0;stroke-opacity:1"
       id="path844" />
    <path
       d="m 328.286,462.254 c -0.697,-4.526 2.09,-11.142 9.402,-12.883 7.312,-1.742 21.241,-6.268 25.42,-13.232 4.179,-6.965 6.268,-20.197 22.981,-30.643 2.642,-1.652 6.269,-3.83 8.01,-8.009 1.74,-4.179 8.767,-9.179 10.446,-7.313 3.134,3.483 -2.786,10.447 4.875,8.705 5.6,-1.272 13.58,-1.741 21.938,-1.044 8.357,0.697 16.366,-0.348 24.026,-3.134"
       style="fill:none;stroke:#231f20;stroke-width:0.5;stroke-linecap:round;stroke-linejoin:round;stroke-miterlimit:4;stroke-dasharray:2.8, 1.8;stroke-dashoffset:0;stroke-opacity:1"
       id="path846" />
    <path
       d="m 430.319,397.756 c 3.139,0.212 7.655,4.258 6.959,7.043 -0.697,2.786 -1.394,4.875 -4.876,3.483 -3.482,-1.393 -8.357,-3.483 -12.188,0.347 -3.83,3.831 -7.312,7.661 -11.49,7.661 -4.179,0 -8.706,-2.786 -10.795,-7.312 -2.09,-4.526 -4.684,-11.186 -2.697,-13.426"
       style="fill:none;stroke:#231f20;stroke-width:0.5;stroke-linecap:round;stroke-linejoin:round;stroke-miterlimit:4;stroke-dasharray:2.8, 1.8;stroke-dashoffset:0;stroke-opacity:1"
       id="path848" />
    <path
       d="m 519.716,430.415 c -1.741,-3.134 -7.572,-13.08 -16.278,-20.741 -8.705,-7.66 -13.232,-12.536 -20.893,-14.973 -7.661,-2.438 -15.321,-3.482 -19.152,-3.134 -3.83,0.349 -10.098,2.09 -9.053,6.616 1.044,4.527 11.143,3.134 14.973,2.09 3.83,-1.045 15.67,-0.696 18.455,3.83 2.786,4.526 4.527,9.75 8.358,10.795 3.83,1.044 11.143,4.875 13.928,9.75 2.786,4.875 2.257,6.268 3.458,10.103"
       style="fill:none;stroke:#231f20;stroke-width:0.5;stroke-linecap:round;stroke-linejoin:round;stroke-miterlimit:4;stroke-dasharray:2.8, 1.8;stroke-dashoffset:0;stroke-opacity:1"
       id="path850" />
    <path
       d="m 503.438,409.674 c 1.394,-2.437 0.668,-7.301 0,-9.053 -1.393,-3.657 1.728,-9.198 -6.964,-8.705 -8.322,0.47 -13.929,-1.742 -19.152,-2.787 -5.223,-1.044 -16.63,-3.228 -13.19,2.389"
       style="fill:none;stroke:#231f20;stroke-width:0.5;stroke-linecap:round;stroke-linejoin:round;stroke-miterlimit:4;stroke-dasharray:2.8, 1.8;stroke-dashoffset:0;stroke-opacity:1"
       id="path852" />
    <path
       d="m 534.082,443.103 c -2.313,0.77 -6.269,-2.786 -8.01,-4.875 -1.74,-2.089 -8.705,-7.312 -5.572,-8.705 3.134,-1.394 5.572,-2.09 9.75,0.348 4.179,2.437 5.224,3.133 5.572,5.223 0.348,2.089 0.348,7.313 -1.74,8.009 z"
       style="fill:none;stroke:#231f20;stroke-width:0.5;stroke-linecap:round;stroke-linejoin:round;stroke-miterlimit:4;stroke-dasharray:2.8, 1.8;stroke-dashoffset:0;stroke-opacity:1"
       id="path854" />
    <path
       d="m 515.974,479.318 c 1.894,-5.878 5.92,-19.501 4.526,-24.724 -1.392,-5.223 -5.044,-13.17 -6.988,-19.843 0,0 -2.065,4.87 -1.368,14.62 0.696,9.75 3.83,29.947 3.83,29.947 z"
       style="fill:none;stroke:#231f20;stroke-width:0.5;stroke-linecap:round;stroke-linejoin:round;stroke-miterlimit:4;stroke-dasharray:2.8, 1.8;stroke-dashoffset:0;stroke-opacity:1"
       id="path856" />
    <path
       d="m 523.451,457.76 c 0,0 -1.069,2.34 -2.88,2.721"
       style="fill:none;stroke:#231f20;stroke-width:0.5;stroke-linecap:round;stroke-linejoin:round;stroke-miterlimit:4;stroke-dasharray:2.8, 1.8;stroke-dashoffset:0;stroke-opacity:1"
       id="path858" />
    <path
       d="m 302.054,802.113 c 0,0 51.713,-80.304 74.607,-111.653"
       style="fill:none;stroke:#231f20;stroke-width:0.5;stroke-linecap:round;stroke-linejoin:round;stroke-miterlimit:4;stroke-dasharray:2.8, 1.8;stroke-dashoffset:0;stroke-opacity:1"
       id="path860" />
    <path
       d="m 253.89,759.212 c 0,0 68.407,-63.194 95.66,-90.468"
       style="fill:none;stroke:#231f20;stroke-width:0.5;stroke-linecap:round;stroke-linejoin:round;stroke-miterlimit:4;stroke-dasharray:2.8, 1.8;stroke-dashoffset:0;stroke-opacity:1"
       id="path862" />
    <path
       d="m 240.67,741.357 c 0,0 71.054,-57.584 102.665,-80.825"
       style="fill:none;stroke:#231f20;stroke-width:0.5;stroke-linecap:round;stroke-linejoin:round;stroke-miterlimit:4;stroke-dasharray:2.8, 1.8;stroke-dashoffset:0;stroke-opacity:1"
       id="path864" />
    <path
       d="m 330.458,633.711 c -22.832,8.687 -103.077,34.664 -120.294,43.033"
       style="fill:none;stroke:#231f20;stroke-width:0.5;stroke-linecap:round;stroke-linejoin:round;stroke-miterlimit:4;stroke-dasharray:2.8, 1.8;stroke-dashoffset:0;stroke-opacity:1"
       id="path866" />
    <path
       d="m 326.876,622.974 c -19.25,5.031 -102.147,27.178 -122.217,31.658"
       style="fill:none;stroke:#231f20;stroke-width:0.5;stroke-linecap:round;stroke-linejoin:round;stroke-miterlimit:4;stroke-dasharray:2.8, 1.8;stroke-dashoffset:0;stroke-opacity:1"
       id="path868" />
    <path
       d="m 550.447,628.005 c -1.832,-0.293 -4.875,0.697 -2.089,3.483 2.786,2.785 7.433,3.374 7.313,-1.448"
       style="fill:none;stroke:#231f20;stroke-width:0.5;stroke-linecap:round;stroke-linejoin:round;stroke-miterlimit:4;stroke-dasharray:2.8, 1.8;stroke-dashoffset:0;stroke-opacity:1"
       id="path870" />
    <path
       d="m 529.554,628.005 c 2.428,-0.401 4.875,0.697 2.09,3.483 -2.786,2.785 -7.432,3.374 -7.314,-1.448"
       style="fill:none;stroke:#231f20;stroke-width:0.5;stroke-linecap:round;stroke-linejoin:round;stroke-miterlimit:4;stroke-dasharray:2.8, 1.8;stroke-dashoffset:0;stroke-opacity:1"
       id="path872" />
    <path
       d="m 548.388,585.212 c 0.435,-5.029 0.899,-26.153 0.435,-30.797 -0.465,-4.641 -2.323,-13.463 -3.02,-16.481 -0.696,-3.019 -1.842,-14.392 0,-14.392 1.844,0 2.555,10.214 3.717,14.392 1.158,4.179 2.785,13.464 3.017,16.481 0.231,3.019 1.423,24.599 0.711,30.292"
       style="fill:none;stroke:#231f20;stroke-width:0.5;stroke-linecap:round;stroke-linejoin:round;stroke-miterlimit:4;stroke-dasharray:2.8, 1.8;stroke-dashoffset:0;stroke-opacity:1"
       id="path874" />
    <path
       d="m 531.614,585.212 c -0.436,-5.029 -0.9,-26.153 -0.436,-30.797 0.466,-4.641 2.324,-13.463 3.02,-16.481 0.696,-3.019 1.842,-14.392 0,-14.392 -1.843,0 -2.554,10.214 -3.716,14.392 -1.159,4.179 -2.786,13.464 -3.017,16.481 -0.232,3.019 -1.423,24.599 -0.712,30.292"
       style="fill:none;stroke:#231f20;stroke-width:0.5;stroke-linecap:round;stroke-linejoin:round;stroke-miterlimit:4;stroke-dasharray:2.8, 1.8;stroke-dashoffset:0;stroke-opacity:1"
       id="path876" />
  </g>
</svg>
