<?xml version="1.0" encoding="UTF-8" standalone="no"?>
<!-- Created with Inkscape (http://www.inkscape.org/) -->

<svg
   version="1.1"
   id="svg2"
   width="1440"
   height="1344"
   viewBox="0 0 1440 1344"
   xmlns="http://www.w3.org/2000/svg"
   xmlns:svg="http://www.w3.org/2000/svg">
  <defs
     id="defs6" />
  <g
     id="g10">
    <path
       d="m 540,591.443 v -78.349 c 0,-10.098 -6.918,-70.34 -11.792,-83.223 -4.875,-12.884 -18.108,-21.589 -28.902,-33.777 -10.795,-12.187 -24.375,-22.286 -51.187,-29.598 -26.813,-7.313 -82.528,12.883 -95.064,18.455 -12.535,5.572 -48.054,16.715 -67.901,29.251 -19.849,12.535 -24.028,33.08 -24.724,41.785 -0.696,8.705 -14.972,10.795 -41.437,59.893 -26.464,49.098 -26.117,112.473 -8.358,167.143 17.76,54.67 51.885,92.974 82.876,114.562 30.99,21.59 79.044,33.778 102.375,36.564 23.33,2.785 64.768,10.446 96.455,1.044 31.688,-9.401 37.956,-32.035 41.786,-40.741 3.831,-8.705 5.873,-25.419 5.873,-32.036 0,0 0,-94.311 0,-104.757 0,-10.447 -3.517,-18.511 -7.035,-24.082 0,0 7.035,1.045 7.035,-6.964 0,8.009 7.036,6.964 7.036,6.964 -3.518,5.571 -7.036,13.635 -7.036,24.082 0,10.446 0,104.757 0,104.757 0,6.617 2.044,23.331 5.874,32.036 3.831,8.706 10.098,31.34 41.786,40.741 31.687,9.402 73.125,1.741 96.456,-1.044 23.33,-2.786 71.384,-14.974 102.375,-36.564 30.991,-21.588 65.116,-59.892 82.875,-114.562 17.758,-54.67 18.107,-118.045 -8.358,-167.143 -26.464,-49.098 -40.74,-51.188 -41.437,-59.893 -0.697,-8.705 -4.875,-29.25 -24.723,-41.785 -19.848,-12.536 -55.366,-23.679 -67.902,-29.251 -12.535,-5.572 -68.25,-25.768 -95.063,-18.455 -26.812,7.312 -40.392,17.411 -51.187,29.598 -10.795,12.188 -24.028,20.893 -28.902,33.777 C 546.918,442.754 540,502.996 540,513.094 v 78.349"
       style="fill:#ffffff;fill-opacity:1;fill-rule:nonzero;stroke:none;stroke-width:0.1"
       id="path670" />
    <path
       d="m 540,591.443 v -78.349 c 0,-10.098 -6.918,-70.34 -11.792,-83.223 -4.875,-12.884 -18.108,-21.589 -28.902,-33.777 -10.795,-12.187 -24.375,-22.286 -51.187,-29.598 -26.813,-7.313 -82.528,12.883 -95.064,18.455 -12.535,5.572 -48.054,16.715 -67.901,29.251 -19.849,12.535 -24.028,33.08 -24.724,41.785 -0.696,8.705 -14.972,10.795 -41.437,59.893 -26.464,49.098 -26.117,112.473 -8.358,167.143 17.76,54.67 51.885,92.974 82.876,114.562 30.99,21.59 79.044,33.778 102.375,36.564 23.33,2.785 64.768,10.446 96.455,1.044 31.688,-9.401 37.956,-32.035 41.786,-40.741 3.831,-8.705 5.873,-25.419 5.873,-32.036 0,0 0,-94.311 0,-104.757 0,-10.447 -3.517,-18.511 -7.035,-24.082 0,0 7.035,1.045 7.035,-6.964 0,8.009 7.036,6.964 7.036,6.964 -3.518,5.571 -7.036,13.635 -7.036,24.082 0,10.446 0,104.757 0,104.757 0,6.617 2.044,23.331 5.874,32.036 3.831,8.706 10.098,31.34 41.786,40.741 31.687,9.402 73.125,1.741 96.456,-1.044 23.33,-2.786 71.384,-14.974 102.375,-36.564 30.991,-21.588 65.116,-59.892 82.875,-114.562 17.758,-54.67 18.107,-118.045 -8.358,-167.143 -26.464,-49.098 -40.74,-51.188 -41.437,-59.893 -0.697,-8.705 -4.875,-29.25 -24.723,-41.785 -19.848,-12.536 -55.366,-23.679 -67.902,-29.251 -12.535,-5.572 -68.25,-25.768 -95.063,-18.455 -26.812,7.312 -40.392,17.411 -51.187,29.598 -10.795,12.188 -24.028,20.893 -28.902,33.777 C 546.918,442.754 540,502.996 540,513.094 Z"
       style="fill:none;stroke:#231f20;stroke-width:0.75;stroke-linecap:round;stroke-linejoin:round;stroke-miterlimit:4;stroke-dasharray:none;stroke-opacity:1"
       id="path672" />
    <path
       d="m 543.832,622.782 c 0,-2.116 -1.716,-3.83 -3.832,-3.83 -2.115,0 -3.83,1.714 -3.83,3.83 0,2.115 1.715,3.831 3.83,3.831 2.116,0 3.832,-1.716 3.832,-3.831 z"
       style="fill:none;stroke:#231f20;stroke-width:0.5;stroke-linecap:butt;stroke-linejoin:miter;stroke-miterlimit:4;stroke-dasharray:none;stroke-opacity:1"
       id="path674" />
    <path
       d="m 668.84,710.88 c -7.661,4.875 -28.039,14.076 -39,5.224 -9.053,-7.312 -8.705,-28.206 -26.812,-55.019 -10.328,-15.293 -17.063,-21.241 -19.849,-23.33 0,0 12.188,7.661 22.983,22.634 5.376,7.457 17.411,29.599 21.241,37.608 3.83,8.008 12.281,18.456 24.375,17.062 12.094,-1.393 17.062,-4.179 17.062,-4.179 z"
       style="fill:none;stroke:#231f20;stroke-width:0.5;stroke-linecap:butt;stroke-linejoin:miter;stroke-miterlimit:4;stroke-dasharray:none;stroke-opacity:1"
       id="path676" />
    <path
       d="m 668.84,710.88 c 11.839,-6.267 54.335,-30.313 65.465,-45.267 11.143,-14.974 18.455,-39 20.893,-51.885 2.437,-12.884 5.222,-27.16 -1.045,-40.741 -6.268,-13.58 -14.625,-23.678 -26.116,-30.99 -11.492,-7.314 -18.455,-13.233 -20.545,-21.59 -2.089,-8.358 -2.164,-27.504 -2.438,-31.339 -0.696,-9.75 -4.178,-28.554 -12.187,-34.474 0,0 8.009,15.67 8.009,34.822 0,19.152 2.438,40.044 4.527,46.661 1.831,5.799 4.875,9.053 9.402,14.276 4.527,5.224 15.321,15.321 18.455,30.991 3.134,15.67 2.785,20.893 1.045,33.429 -0.959,6.906 -5.223,19.152 -11.143,27.857 -5.919,8.705 -24.375,26.464 -46.66,24.375 -22.287,-2.089 -31.688,-13.232 -33.082,-14.277"
       style="fill:none;stroke:#231f20;stroke-width:0.5;stroke-linecap:butt;stroke-linejoin:miter;stroke-miterlimit:4;stroke-dasharray:none;stroke-opacity:1"
       id="path678" />
    <path
       d="m 724.669,383.977 c 1.279,3.063 13.814,13.161 19.038,16.644 5.223,3.482 17.411,14.277 24.375,14.625 6.963,0.348 14.393,-2.293 17.991,-6.022"
       style="fill:none;stroke:#231f20;stroke-width:0.5;stroke-linecap:butt;stroke-linejoin:miter;stroke-miterlimit:4;stroke-dasharray:none;stroke-opacity:1"
       id="path680" />
    <path
       d="m 640.75,457.613 c -3.617,-3.134 0.465,-9.518 4.412,-11.84 3.946,-2.321 8.286,-0.676 9.053,1.624 1.393,4.179 -9.982,13.232 -13.465,10.216 z"
       style="fill:none;stroke:#231f20;stroke-width:0.5;stroke-linecap:butt;stroke-linejoin:miter;stroke-miterlimit:4;stroke-dasharray:none;stroke-opacity:1"
       id="path682" />
    <path
       d="m 638.662,472.005 c -4.076,-2.222 -1.443,-10.418 6.824,-14.495 8.266,-4.076 15.692,-7.326 18.943,-4.772 3.251,2.552 3.02,5.756 0.929,9.748 -2.553,4.875 -16.482,15.091 -26.696,9.519 z"
       style="fill:none;stroke:#231f20;stroke-width:0.5;stroke-linecap:butt;stroke-linejoin:miter;stroke-miterlimit:4;stroke-dasharray:none;stroke-opacity:1"
       id="path684" />
    <path
       d="m 545.341,433.252 c 0,-2.564 -2.391,-4.643 -5.341,-4.643 -2.948,0 -5.339,2.079 -5.339,4.643 0,2.564 2.391,4.644 5.339,4.644 2.95,0 5.341,-2.08 5.341,-4.644"
       style="fill:#ffffff;fill-opacity:1;fill-rule:nonzero;stroke:none;stroke-width:0.1"
       id="path686" />
    <path
       d="m 545.341,433.252 c 0,-2.564 -2.391,-4.643 -5.341,-4.643 -2.948,0 -5.339,2.079 -5.339,4.643 0,2.564 2.391,4.644 5.339,4.644 2.95,0 5.341,-2.08 5.341,-4.644 z"
       style="fill:none;stroke:#231f20;stroke-width:0.5;stroke-linecap:butt;stroke-linejoin:miter;stroke-miterlimit:4;stroke-dasharray:none;stroke-opacity:1"
       id="path688" />
    <path
       d="m 608.25,599.916 c -0.792,-2.69 -1.856,-8.126 -2.552,-13.231 -0.696,-5.109 -1.859,-11.608 -3.019,-18.804 -1.16,-7.198 -3.251,-17.645 -4.411,-21.823 -1.16,-4.179 -3.713,-9.285 -4.642,-11.375 -0.929,-2.089 -1.352,-4.825 -3.018,-4.643 -1.667,0.183 -0.466,8.591 0,13.697 0.465,5.106 0.929,17.642 0.696,20.893 -0.232,3.251 1.394,12.768 3.948,18.573 2.552,5.802 8.704,14.159 12.418,20.196 3.715,6.034 14.973,21.82 17.295,25.303 2.323,3.482 15.437,21.472 16.599,23.097 1.161,1.625 1.856,0.929 1.856,0.929 0,0 0.466,-0.696 -0.463,-2.321 -0.929,-1.625 -5.919,-11.724 -8.938,-15.669 -2.919,-3.818 -6.966,-8.358 -12.769,-15.322 -5.802,-6.963 -11.952,-15.944 -13,-19.5"
       style="fill:#b2b1b1;fill-opacity:1;fill-rule:nonzero;stroke:none;stroke-width:0.1"
       id="path690" />
    <path
       d="m 608.25,599.916 c -0.792,-2.69 -1.856,-8.126 -2.552,-13.231 -0.696,-5.109 -1.859,-11.608 -3.019,-18.804 -1.16,-7.198 -3.251,-17.645 -4.411,-21.823 -1.16,-4.179 -3.713,-9.285 -4.642,-11.375 -0.929,-2.089 -1.352,-4.825 -3.018,-4.643 -1.667,0.183 -0.466,8.591 0,13.697 0.465,5.106 0.929,17.642 0.696,20.893 -0.232,3.251 1.394,12.768 3.948,18.573 2.552,5.802 8.704,14.159 12.418,20.196 3.715,6.034 14.973,21.82 17.295,25.303 2.323,3.482 15.437,21.472 16.599,23.097 1.161,1.625 1.856,0.929 1.856,0.929 0,0 0.466,-0.696 -0.463,-2.321 -0.929,-1.625 -5.919,-11.724 -8.938,-15.669 -2.919,-3.818 -6.966,-8.358 -12.769,-15.322 -5.802,-6.963 -11.952,-15.944 -13,-19.5 z"
       style="fill:none;stroke:#231f20;stroke-width:0.5;stroke-linecap:butt;stroke-linejoin:miter;stroke-miterlimit:4;stroke-dasharray:none;stroke-opacity:1"
       id="path692" />
    <path
       d="m 601.054,587.381 c 1.62,0.133 2.555,-3.716 1.161,-10.215 -1.392,-6.5 -4.179,-17.642 -4.643,-19.732 -0.464,-2.089 -0.696,-9.75 -1.16,-11.607 -0.464,-1.859 -3.019,-7.893 -3.715,-9.054 0,0 0.929,6.267 0.929,10.911 0,4.642 -1.264,14.838 -0.697,18.804 0.93,6.499 5.339,20.66 8.125,20.893"
       style="fill:#706d6e;fill-opacity:1;fill-rule:nonzero;stroke:none;stroke-width:0.1"
       id="path694" />
    <path
       d="m 601.054,587.381 c 1.62,0.133 2.555,-3.716 1.161,-10.215 -1.392,-6.5 -4.179,-17.642 -4.643,-19.732 -0.464,-2.089 -0.696,-9.75 -1.16,-11.607 -0.464,-1.859 -3.019,-7.893 -3.715,-9.054 0,0 0.929,6.267 0.929,10.911 0,4.642 -1.264,14.838 -0.697,18.804 0.93,6.499 5.339,20.66 8.125,20.893 z"
       style="fill:none;stroke:#231f20;stroke-width:0.5;stroke-linecap:butt;stroke-linejoin:miter;stroke-miterlimit:4;stroke-dasharray:none;stroke-opacity:1"
       id="path696" />
    <path
       d="m 411.162,710.88 c 7.66,4.875 28.039,14.076 39,5.224 9.053,-7.312 8.705,-28.206 26.812,-55.019 10.328,-15.293 17.063,-21.241 19.848,-23.33 0,0 -12.188,7.661 -22.982,22.634 -5.376,7.457 -17.411,29.599 -21.241,37.608 -3.831,8.008 -12.281,18.456 -24.375,17.062 -12.094,-1.393 -17.062,-4.179 -17.062,-4.179 z"
       style="fill:none;stroke:#231f20;stroke-width:0.5;stroke-linecap:butt;stroke-linejoin:miter;stroke-miterlimit:4;stroke-dasharray:none;stroke-opacity:1"
       id="path698" />
    <path
       d="m 411.162,710.88 c -11.84,-6.267 -54.336,-30.313 -65.465,-45.267 -11.143,-14.974 -18.455,-39 -20.893,-51.885 -2.437,-12.884 -5.223,-27.16 1.044,-40.741 6.269,-13.58 14.625,-23.678 26.116,-30.99 11.492,-7.314 18.456,-13.233 20.545,-21.59 2.09,-8.358 2.164,-27.504 2.438,-31.339 0.696,-9.75 4.179,-28.554 12.187,-34.474 0,0 -8.008,15.67 -8.008,34.822 0,19.152 -2.438,40.044 -4.527,46.661 -1.831,5.799 -4.875,9.053 -9.402,14.276 -4.527,5.224 -15.321,15.321 -18.455,30.991 -3.134,15.67 -2.786,20.893 -1.045,33.429 0.959,6.906 5.223,19.152 11.142,27.857 5.92,8.705 24.375,26.464 46.661,24.375 22.287,-2.089 31.688,-13.232 33.081,-14.277"
       style="fill:none;stroke:#231f20;stroke-width:0.5;stroke-linecap:butt;stroke-linejoin:miter;stroke-miterlimit:4;stroke-dasharray:none;stroke-opacity:1"
       id="path700" />
    <path
       d="m 496.822,637.755 c 16.366,-15.553 36.562,-20.892 43.178,-20.892 6.617,0 26.813,5.339 43.179,20.892"
       style="fill:none;stroke:#231f20;stroke-width:0.5;stroke-linecap:butt;stroke-linejoin:miter;stroke-miterlimit:4;stroke-dasharray:none;stroke-opacity:1"
       id="path702" />
    <path
       d="m 355.333,383.977 c -1.279,3.063 -13.815,13.161 -19.038,16.644 -5.223,3.482 -17.411,14.277 -24.375,14.625 -6.964,0.348 -14.394,-2.293 -17.992,-6.023"
       style="fill:none;stroke:#231f20;stroke-width:0.5;stroke-linecap:butt;stroke-linejoin:miter;stroke-miterlimit:4;stroke-dasharray:none;stroke-opacity:1"
       id="path704" />
    <path
       d="m 488.698,564.63 c 0.465,1.624 1.624,5.106 5.106,9.519 3.482,4.41 11.375,10.678 20.66,14.625 9.286,3.946 20.43,4.875 25.536,2.669 5.107,2.206 16.252,1.277 25.538,-2.669 9.285,-3.947 17.177,-10.215 20.66,-14.625 3.482,-4.413 4.64,-7.895 5.106,-9.519"
       style="fill:none;stroke:#231f20;stroke-width:0.5;stroke-linecap:butt;stroke-linejoin:miter;stroke-miterlimit:4;stroke-dasharray:none;stroke-opacity:1"
       id="path706" />
    <path
       d="m 439.251,457.613 c 3.617,-3.134 -0.465,-9.518 -4.411,-11.841 -3.946,-2.32 -8.287,-0.675 -9.053,1.624 -1.394,4.179 9.982,13.233 13.464,10.217 z"
       style="fill:none;stroke:#231f20;stroke-width:0.5;stroke-linecap:butt;stroke-linejoin:miter;stroke-miterlimit:4;stroke-dasharray:none;stroke-opacity:1"
       id="path708" />
    <path
       d="m 441.34,472.005 c 4.076,-2.222 1.442,-10.418 -6.824,-14.495 -8.266,-4.078 -15.692,-7.326 -18.943,-4.774 -3.251,2.554 -3.021,5.758 -0.93,9.75 2.554,4.875 16.483,15.091 26.697,9.519 z"
       style="fill:none;stroke:#231f20;stroke-width:0.5;stroke-linecap:butt;stroke-linejoin:miter;stroke-miterlimit:4;stroke-dasharray:none;stroke-opacity:1"
       id="path710" />
    <path
       d="m 471.75,599.916 c 0.793,-2.69 1.857,-8.126 2.554,-13.231 0.696,-5.109 1.858,-11.608 3.018,-18.804 1.16,-7.198 3.251,-17.645 4.411,-21.823 1.16,-4.179 3.714,-9.285 4.643,-11.375 0.929,-2.089 1.352,-4.825 3.018,-4.643 1.666,0.183 0.465,8.591 0,13.697 -0.465,5.106 -0.929,17.642 -0.696,20.893 0.232,3.251 -1.395,12.768 -3.948,18.573 -2.553,5.802 -8.704,14.159 -12.418,20.196 -3.715,6.034 -14.974,21.82 -17.295,25.303 -2.323,3.482 -15.438,21.472 -16.599,23.097 -1.162,1.625 -1.857,0.929 -1.857,0.929 0,0 -0.465,-0.696 0.463,-2.321 0.93,-1.625 5.92,-11.724 8.939,-15.669 2.919,-3.818 6.966,-8.358 12.768,-15.322 5.803,-6.963 11.953,-15.944 12.999,-19.5"
       style="fill:#b2b1b1;fill-opacity:1;fill-rule:nonzero;stroke:none;stroke-width:0.1"
       id="path712" />
    <path
       d="m 471.75,599.916 c 0.793,-2.69 1.857,-8.126 2.554,-13.231 0.696,-5.109 1.858,-11.608 3.018,-18.804 1.16,-7.198 3.251,-17.645 4.411,-21.823 1.16,-4.179 3.714,-9.285 4.643,-11.375 0.929,-2.089 1.352,-4.825 3.018,-4.643 1.666,0.183 0.465,8.591 0,13.697 -0.465,5.106 -0.929,17.642 -0.696,20.893 0.232,3.251 -1.395,12.768 -3.948,18.573 -2.553,5.802 -8.704,14.159 -12.418,20.196 -3.715,6.034 -14.974,21.82 -17.295,25.303 -2.323,3.482 -15.438,21.472 -16.599,23.097 -1.162,1.625 -1.857,0.929 -1.857,0.929 0,0 -0.465,-0.696 0.463,-2.321 0.93,-1.625 5.92,-11.724 8.939,-15.669 2.919,-3.818 6.966,-8.358 12.768,-15.322 5.803,-6.963 11.953,-15.944 12.999,-19.5 z"
       style="fill:none;stroke:#231f20;stroke-width:0.5;stroke-linecap:butt;stroke-linejoin:miter;stroke-miterlimit:4;stroke-dasharray:none;stroke-opacity:1"
       id="path714" />
    <path
       d="m 478.948,587.381 c -1.62,0.133 -2.555,-3.716 -1.162,-10.215 1.393,-6.5 4.18,-17.642 4.643,-19.732 0.464,-2.089 0.697,-9.75 1.161,-11.607 0.464,-1.859 3.018,-7.893 3.715,-9.054 0,0 -0.929,6.267 -0.929,10.911 0,4.642 1.263,14.838 0.696,18.804 -0.929,6.499 -5.339,20.66 -8.124,20.893"
       style="fill:#706d6e;fill-opacity:1;fill-rule:nonzero;stroke:none;stroke-width:0.1"
       id="path716" />
    <path
       d="m 478.948,587.381 c -1.62,0.133 -2.555,-3.716 -1.162,-10.215 1.393,-6.5 4.18,-17.642 4.643,-19.732 0.464,-2.089 0.697,-9.75 1.161,-11.607 0.464,-1.859 3.018,-7.893 3.715,-9.054 0,0 -0.929,6.267 -0.929,10.911 0,4.642 1.263,14.838 0.696,18.804 -0.929,6.499 -5.339,20.66 -8.124,20.893 z"
       style="fill:none;stroke:#231f20;stroke-width:0.5;stroke-linecap:butt;stroke-linejoin:miter;stroke-miterlimit:4;stroke-dasharray:none;stroke-opacity:1"
       id="path718" />
    <path
       d="m 529.323,420.176 c 0.394,-0.817 0.096,-1.763 -0.629,-2.139 -0.706,-0.366 -1.605,-0.081 -2.044,0.661 -0.46,0.775 -0.26,1.788 0.488,2.228 0.773,0.46 1.768,0.109 2.185,-0.75"
       style="fill:#ffffff;fill-opacity:1;fill-rule:nonzero;stroke:none;stroke-width:0.1"
       id="path720" />
    <path
       d="m 529.323,420.176 c 0.394,-0.817 0.096,-1.763 -0.629,-2.139 -0.706,-0.366 -1.605,-0.081 -2.044,0.661 -0.46,0.775 -0.26,1.788 0.488,2.228 0.773,0.46 1.768,0.109 2.185,-0.75 z"
       style="fill:none;stroke:#231f20;stroke-width:0.5;stroke-linecap:round;stroke-linejoin:round;stroke-miterlimit:4;stroke-dasharray:none;stroke-opacity:1"
       id="path722" />
    <path
       d="m 550.678,420.176 c -0.394,-0.817 -0.094,-1.763 0.629,-2.139 0.707,-0.366 1.605,-0.081 2.046,0.661 0.459,0.775 0.258,1.788 -0.49,2.228 -0.773,0.46 -1.769,0.109 -2.185,-0.75"
       style="fill:#ffffff;fill-opacity:1;fill-rule:nonzero;stroke:none;stroke-width:0.1"
       id="path724" />
    <path
       d="m 550.678,420.176 c -0.394,-0.817 -0.094,-1.763 0.629,-2.139 0.707,-0.366 1.605,-0.081 2.046,0.661 0.459,0.775 0.258,1.788 -0.49,2.228 -0.773,0.46 -1.769,0.109 -2.185,-0.75 z"
       style="fill:none;stroke:#231f20;stroke-width:0.5;stroke-linecap:round;stroke-linejoin:round;stroke-miterlimit:4;stroke-dasharray:none;stroke-opacity:1"
       id="path726" />
    <path
       d="m 540,737.693 c 8.707,-3.483 64.949,-22.859 83.836,-30.755"
       style="fill:none;stroke:#231f20;stroke-width:0.5;stroke-linecap:round;stroke-linejoin:round;stroke-miterlimit:4;stroke-dasharray:2.8, 1.8;stroke-dashoffset:0;stroke-opacity:1"
       id="path728" />
    <path
       d="m 562.332,821.238 c 5.875,-9.028 66.837,-100.302 68.927,-104.133"
       style="fill:none;stroke:#231f20;stroke-width:0.5;stroke-linecap:round;stroke-linejoin:round;stroke-miterlimit:4;stroke-dasharray:2.8, 1.8;stroke-dashoffset:0;stroke-opacity:1"
       id="path730" />
    <path
       d="m 647.968,838.542 c -0.716,-10.313 -0.102,-104.678 -0.235,-119.304"
       style="fill:none;stroke:#231f20;stroke-width:0.5;stroke-linecap:round;stroke-linejoin:round;stroke-miterlimit:4;stroke-dasharray:2.8, 1.8;stroke-dashoffset:0;stroke-opacity:1"
       id="path732" />
    <path
       d="M 778.897,802.495 C 769.126,787.835 710.613,697.11 705.918,688.847"
       style="fill:none;stroke:#231f20;stroke-width:0.5;stroke-linecap:round;stroke-linejoin:round;stroke-miterlimit:4;stroke-dasharray:2.8, 1.8;stroke-dashoffset:0;stroke-opacity:1"
       id="path734" />
    <path
       d="M 835.158,749.694 C 821.01,737.344 741.965,672.577 734.305,665.613"
       style="fill:none;stroke:#231f20;stroke-width:0.5;stroke-linecap:round;stroke-linejoin:round;stroke-miterlimit:4;stroke-dasharray:2.8, 1.8;stroke-dashoffset:0;stroke-opacity:1"
       id="path736" />
    <path
       d="M 846.3,733.166 C 832.153,723.068 749.782,661.027 740.825,655.137"
       style="fill:none;stroke:#231f20;stroke-width:0.5;stroke-linecap:round;stroke-linejoin:round;stroke-miterlimit:4;stroke-dasharray:2.8, 1.8;stroke-dashoffset:0;stroke-opacity:1"
       id="path738" />
    <path
       d="M 874.853,663.576 C 856.876,658.3 757.107,629.553 751.626,628.082"
       style="fill:none;stroke:#231f20;stroke-width:0.5;stroke-linecap:round;stroke-linejoin:round;stroke-miterlimit:4;stroke-dasharray:2.8, 1.8;stroke-dashoffset:0;stroke-opacity:1"
       id="path740" />
    <path
       d="M 878.541,645.428 C 860.707,641.585 764.7,619.322 754.551,616.874"
       style="fill:none;stroke:#231f20;stroke-width:0.5;stroke-linecap:round;stroke-linejoin:round;stroke-miterlimit:4;stroke-dasharray:2.8, 1.8;stroke-dashoffset:0;stroke-opacity:1"
       id="path742" />
    <path
       d="m 752.593,569.766 c 1.093,2.234 5.39,6.356 7.827,5.658 2.438,-0.696 5.224,-2.437 3.832,-10.794 -1.394,-8.357 -2.438,-17.062 -8.009,-21.241 -5.573,-4.179 -14.278,-10.099 -20.894,-16.366 -6.616,-6.268 -12.884,-16.018 -16.017,-20.893 -3.134,-4.875 -6.405,-13.224 -13.649,-1.389"
       style="fill:none;stroke:#231f20;stroke-width:0.5;stroke-linecap:round;stroke-linejoin:round;stroke-miterlimit:4;stroke-dasharray:2.8, 1.8;stroke-dashoffset:0;stroke-opacity:1"
       id="path744" />
    <path
       d="m 763.096,573.874 c 6.03,-1.584 100.252,-26.156 110.248,-28.32"
       style="fill:none;stroke:#231f20;stroke-width:0.5;stroke-linecap:round;stroke-linejoin:round;stroke-miterlimit:4;stroke-dasharray:2.8, 1.8;stroke-dashoffset:0;stroke-opacity:1"
       id="path746" />
    <path
       d="m 763.065,557.693 c 11.284,-5.599 80.514,-41.17 94.476,-48.109"
       style="fill:none;stroke:#231f20;stroke-width:0.5;stroke-linecap:round;stroke-linejoin:round;stroke-miterlimit:4;stroke-dasharray:2.8, 1.8;stroke-dashoffset:0;stroke-opacity:1"
       id="path748" />
    <path
       d="m 757.378,544.362 c 7.917,-5.848 66.851,-52.838 81.608,-63.468"
       style="fill:none;stroke:#231f20;stroke-width:0.5;stroke-linecap:round;stroke-linejoin:round;stroke-miterlimit:4;stroke-dasharray:2.8, 1.8;stroke-dashoffset:0;stroke-opacity:1"
       id="path750" />
    <path
       d="m 739.26,530.505 c 11.759,-11.839 70.156,-60.513 82.395,-69.605"
       style="fill:none;stroke:#231f20;stroke-width:0.5;stroke-linecap:round;stroke-linejoin:round;stroke-miterlimit:4;stroke-dasharray:2.8, 1.8;stroke-dashoffset:0;stroke-opacity:1"
       id="path752" />
    <path
       d="m 714.089,499.196 c 4.894,-5.602 19.171,-21.968 21.956,-25.798 2.787,-3.83 6.965,-13.929 1.394,-17.759 -5.571,-3.831 -13.929,-8.706 -16.019,-11.84 -2.088,-3.133 -10.097,-19.151 -11.838,-22.633 -1.742,-3.483 -3.531,-8.706 -8.753,-9.75"
       style="fill:none;stroke:#231f20;stroke-width:0.5;stroke-linecap:round;stroke-linejoin:round;stroke-miterlimit:4;stroke-dasharray:2.8, 1.8;stroke-dashoffset:0;stroke-opacity:1"
       id="path754" />
    <path
       d="m 700.453,466.588 c 2.512,-3.985 14.7,-20.699 20.967,-22.789"
       style="fill:none;stroke:#231f20;stroke-width:0.5;stroke-linecap:round;stroke-linejoin:round;stroke-miterlimit:4;stroke-dasharray:2.8, 1.8;stroke-dashoffset:0;stroke-opacity:1"
       id="path756" />
    <path
       d="m 819.507,455.269 c -0.934,3.504 -18.693,17.084 -32.622,3.504 0,0 6.268,-3.831 7.661,-12.188 1.393,-8.357 0.348,-16.018 -9.053,-14.277 -9.403,1.741 -24.375,10.446 -32.385,7.661 -8.009,-2.786 -14.625,-7.661 -16.365,-13.232 -1.741,-5.571 -2.786,-11.491 -7.661,-13.233 -4.875,-1.74 -9.402,-3.481 -10.795,-7.892 -1.276,-4.04 -1.423,-8.147 0.667,-10.933"
       style="fill:none;stroke:#231f20;stroke-width:0.5;stroke-linecap:round;stroke-linejoin:round;stroke-miterlimit:4;stroke-dasharray:2.8, 1.8;stroke-dashoffset:0;stroke-opacity:1"
       id="path758" />
    <path
       d="m 736.045,473.398 c 11.492,-2.786 25.769,-8.009 31.688,-10.099 5.92,-2.089 16.366,-4.526 19.152,-4.526 2.786,0 11.233,0.465 16.125,-4.879 4.884,-5.335 3.26,-22.282 -5.678,-25.765 -11.208,-4.366 -22.983,1.394 -29.25,3.831 -6.268,2.438 -10.099,4.179 -16.018,0 -5.92,-4.178 -8.938,-7.544 -9.402,-13.928 -0.328,-4.515 -3.018,-10.563 -8.577,-11.353 -6.243,-0.889 -11.62,-2.461 -11.967,-7.102 -0.287,-3.836 1.044,-5.224 2.089,-6.617 1.045,-1.393 -1.455,-4.078 -2.5,-2.336"
       style="fill:none;stroke:#231f20;stroke-width:0.5;stroke-linecap:round;stroke-linejoin:round;stroke-miterlimit:4;stroke-dasharray:2.8, 1.8;stroke-dashoffset:0;stroke-opacity:1"
       id="path760" />
    <path
       d="m 693.164,455.205 c -2.501,-3.163 -5.055,-7.112 -5.288,-8.968 -0.232,-1.857 -0.696,-14.393 0.697,-18.108 1.392,-3.713 4.642,-8.82 6.731,-11.142 2.09,-2.322 6.5,-7.197 10.214,-9.75 3.715,-2.553 10.527,-8.534 11.376,-9.75 2.62,-3.754 5.571,-6.732 7.775,-13.51"
       style="fill:none;stroke:#231f20;stroke-width:0.5;stroke-linecap:round;stroke-linejoin:round;stroke-miterlimit:4;stroke-dasharray:2.8, 1.8;stroke-dashoffset:0;stroke-opacity:1"
       id="path762" />
    <path
       d="m 565.538,588.774 c -0.235,-6.037 -3.484,-19.965 -7.199,-21.59"
       style="fill:none;stroke:#231f20;stroke-width:0.5;stroke-linecap:round;stroke-linejoin:round;stroke-miterlimit:4;stroke-dasharray:2.8, 1.8;stroke-dashoffset:0;stroke-opacity:1"
       id="path764" />
    <path
       d="m 556.947,555.111 c -2.09,-3.713 -9.737,-21.069 -7.88,-40.106"
       style="fill:none;stroke:#231f20;stroke-width:0.5;stroke-linecap:round;stroke-linejoin:round;stroke-miterlimit:4;stroke-dasharray:2.8, 1.8;stroke-dashoffset:0;stroke-opacity:1"
       id="path766" />
    <path
       d="m 540.768,501.704 c 1.787,-3.466 14.09,-12.288 17.108,0.944"
       style="fill:none;stroke:#231f20;stroke-width:0.5;stroke-linecap:round;stroke-linejoin:round;stroke-miterlimit:4;stroke-dasharray:2.8, 1.8;stroke-dashoffset:0;stroke-opacity:1"
       id="path768" />
    <path
       d="m 584.688,575.884 c 0.814,-4.058 0.812,-14.271 -3.83,-19.842 -4.643,-5.572 -14.673,-10.519 -17.222,-10.904 0,0 -2.277,-7.436 -3.439,-14.168 -1.161,-6.733 -2.553,-21.589 -2.321,-28.322 0.232,-6.733 3.91,-34.678 7.392,-48.606"
       style="fill:none;stroke:#231f20;stroke-width:0.5;stroke-linecap:round;stroke-linejoin:round;stroke-miterlimit:4;stroke-dasharray:2.8, 1.8;stroke-dashoffset:0;stroke-opacity:1"
       id="path770" />
    <path
       d="m 589.824,531.68 c -5.122,-7.427 -42.394,-66.175 -6.181,-100.301"
       style="fill:none;stroke:#231f20;stroke-width:0.5;stroke-linecap:round;stroke-linejoin:round;stroke-miterlimit:4;stroke-dasharray:2.8, 1.8;stroke-dashoffset:0;stroke-opacity:1"
       id="path772" />
    <path
       d="m 595.373,538.397 c 9.982,-4.641 28.2,-16.018 50.485,-37.142 22.286,-21.125 30.642,-35.287 31.107,-46.893 0.465,-11.608 -0.927,-15.32 -1.857,-16.946 -0.929,-1.626 -7.698,-8.131 -13.929,-8.823 -8.356,-0.927 -46.662,13.465 -58.036,40.161 -11.374,26.699 -11.375,59.484 -10.446,63.429"
       style="fill:none;stroke:#231f20;stroke-width:0.5;stroke-linecap:round;stroke-linejoin:round;stroke-miterlimit:4;stroke-dasharray:2.8, 1.8;stroke-dashoffset:0;stroke-opacity:1"
       id="path774" />
    <path
       d="m 546.16,457.596 c 2.429,0.481 15.731,4.802 26.955,-12.1"
       style="fill:none;stroke:#231f20;stroke-width:0.5;stroke-linecap:round;stroke-linejoin:round;stroke-miterlimit:4;stroke-dasharray:2.8, 1.8;stroke-dashoffset:0;stroke-opacity:1"
       id="path776" />
    <path
       d="m 578.768,416.987 c -0.929,9.517 -6.499,12.536 -8.821,13.696 -2.321,1.16 -4.644,2.321 -8.125,3.019 -3.483,0.696 -5.338,3.945 -5.803,5.571 -0.466,1.625 2.785,4.643 3.947,6.035 1.16,1.393 0.231,6.036 0,8.59 -0.232,2.553 -1.293,3.567 -2.728,3.971 -1.434,0.402 -3.309,-1.651 -4.47,-6.293 -1.159,-4.643 -2.321,-14.391 -1.159,-16.946 1.159,-2.554 5.106,-7.198 10.446,-10.912 5.339,-3.713 9.75,-8.356 11.607,-10.91 1.857,-2.553 4.411,-9.981 6.268,-12.303 1.857,-2.322 7.66,-4.875 9.054,-6.267 1.392,-1.394 7.892,-7.896 12.535,-10.216 4.643,-2.32 8.821,-5.107 10.91,-6.268 2.09,-1.16 5.339,-1.858 7.429,0 2.089,1.858 7.195,3.017 11.142,1.393 3.948,-1.624 8.358,-4.179 9.75,-6.268 1.393,-2.089 4.179,-3.944 8.358,-3.017 4.179,0.928 2.089,2.554 0,3.946 -2.09,1.393 0.929,5.107 3.018,6.732 2.089,1.626 9.053,5.572 13.696,6.268 4.642,0.696 8.561,0.897 10.912,-1.16 3.713,-3.25 -0.232,-10.447 6.964,-9.983 5.143,0.332 5.57,4.411 6.499,6.501 0.929,2.088 3.018,4.41 5.805,3.946 2.785,-0.464 5.803,-0.696 8.589,2.554 2.785,3.25 6.499,0.465 8.588,2.089 2.089,1.624 6.143,1.495 6.902,2.372"
       style="fill:none;stroke:#231f20;stroke-width:0.5;stroke-linecap:round;stroke-linejoin:round;stroke-miterlimit:4;stroke-dasharray:2.8, 1.8;stroke-dashoffset:0;stroke-opacity:1"
       id="path778" />
    <path
       d="m 657.234,373.576 c 0,-2.553 2.554,-5.108 7.66,-2.786 5.106,2.322 8.077,4.701 5.571,6.268 -1.857,1.161 -13.231,-0.93 -13.231,-3.482 z"
       style="fill:none;stroke:#231f20;stroke-width:0.5;stroke-linecap:round;stroke-linejoin:round;stroke-miterlimit:4;stroke-dasharray:2.8, 1.8;stroke-dashoffset:0;stroke-opacity:1"
       id="path780" />
    <path
       d="m 583.876,416.754 c 2.069,-0.548 7.66,-4.177 7.428,-7.891 -0.231,-3.715 -1.858,-7.198 -5.571,-6.734 -3.714,0.465 -6.733,2.555 -7.429,7.198 -0.696,4.641 -2.321,9.516 5.572,7.427 z"
       style="fill:none;stroke:#231f20;stroke-width:0.5;stroke-linecap:round;stroke-linejoin:round;stroke-miterlimit:4;stroke-dasharray:2.8, 1.8;stroke-dashoffset:0;stroke-opacity:1"
       id="path782" />
    <path
       d="m 578.768,416.987 c -0.232,3.482 0.696,8.59 2.09,10.446 1.392,1.857 4.18,6.035 6.732,5.339 2.554,-0.696 3.714,-2.089 3.714,-4.643 0,-2.552 1.393,-5.339 2.322,-6.5 0.929,-1.16 2.54,-6.279 -4.418,-8.362"
       style="fill:none;stroke:#231f20;stroke-width:0.5;stroke-linecap:round;stroke-linejoin:round;stroke-miterlimit:4;stroke-dasharray:2.8, 1.8;stroke-dashoffset:0;stroke-opacity:1"
       id="path784" />
    <path
       d="m 593.697,416.172 c 3.643,-0.578 12.697,-4.524 14.553,-6.149"
       style="fill:none;stroke:#231f20;stroke-width:0.5;stroke-linecap:round;stroke-linejoin:round;stroke-miterlimit:4;stroke-dasharray:2.8, 1.8;stroke-dashoffset:0;stroke-opacity:1"
       id="path786" />
    <path
       d="m 586.21,402.099 c 6.487,-2.522 15.076,-6.005 19.719,-8.791 4.644,-2.785 12.77,-5.571 16.483,-6.268 3.714,-0.696 7.427,0.002 11.375,-1.856 3.947,-1.858 6.732,-4.41 9.518,-3.482 2.785,0.927 2.785,3.251 3.483,5.571 0.696,2.32 2.553,5.339 6.964,6.731 4.41,1.394 10.912,3.714 14.624,3.25 3.714,-0.464 8.126,-0.696 8.822,-3.946 0.696,-3.249 2.089,-9.75 5.571,-9.75 3.483,0 4.643,4.643 6.035,6.732 1.393,2.089 5.004,2.876 7.43,3.482 3.713,0.929 4.179,4.413 6.964,5.341 2.786,0.927 8.432,2.143 12.108,0.026"
       style="fill:none;stroke:#231f20;stroke-width:0.5;stroke-linecap:round;stroke-linejoin:round;stroke-miterlimit:4;stroke-dasharray:2.8, 1.8;stroke-dashoffset:0;stroke-opacity:1"
       id="path788" />
    <path
       d="m 695.012,459.544 c -6.672,-6.806 -8.76,-10.754 -10.154,-16.092 -1.393,-5.339 -4.875,-23.447 -2.089,-24.375 2.785,-0.93 4.068,1.088 5.633,9.597"
       style="fill:none;stroke:#231f20;stroke-width:0.5;stroke-linecap:round;stroke-linejoin:round;stroke-miterlimit:4;stroke-dasharray:2.8, 1.8;stroke-dashoffset:0;stroke-opacity:1"
       id="path790" />
    <path
       d="m 622.412,407.237 c 2.553,1.626 20.893,3.946 25.072,4.179"
       style="fill:none;stroke:#231f20;stroke-width:0.5;stroke-linecap:round;stroke-linejoin:round;stroke-miterlimit:4;stroke-dasharray:2.8, 1.8;stroke-dashoffset:0;stroke-opacity:1"
       id="path792" />
    <path
       d="m 613.589,419.54 c 2.959,0.643 4.181,-1.159 5.341,-3.713 1.16,-2.555 3.944,-8.823 4.409,-10.679 0.466,-1.858 -1.161,-4.645 -4.875,-4.411 -3.712,0.232 -4.875,-0.463 -6.035,-0.928 -1.16,-0.466 -3.945,0.465 -3.945,4.179 0,3.713 -0.234,14.39 5.105,15.552 z"
       style="fill:none;stroke:#231f20;stroke-width:0.5;stroke-linecap:round;stroke-linejoin:round;stroke-miterlimit:4;stroke-dasharray:2.8, 1.8;stroke-dashoffset:0;stroke-opacity:1"
       id="path794" />
    <path
       d="m 615.662,400.719 c 2.019,0.56 6.983,-0.91 6.75,-3.232 -0.233,-2.322 -3.482,-6.964 -7.893,-3.483 -4.411,3.483 -1.43,6 1.143,6.715 z"
       style="fill:none;stroke:#231f20;stroke-width:0.5;stroke-linecap:round;stroke-linejoin:round;stroke-miterlimit:4;stroke-dasharray:2.8, 1.8;stroke-dashoffset:0;stroke-opacity:1"
       id="path796" />
    <path
       d="m 653.519,416.058 c 2.075,-1.558 6.094,-0.986 9.054,1.393 2.063,1.658 6.489,4.875 9.053,4.875 3.482,0 10.445,-2.555 14.392,-4.875 3.947,-2.321 7.198,-5.108 8.126,-6.964 0.928,-1.858 1.388,-7.159 -1.625,-7.661 -2.786,-0.464 -6.501,-0.465 -9.75,1.392 -3.25,1.859 -8.125,6.965 -13,5.572 -4.875,-1.393 -13.929,-2.089 -17.41,-1.161 -3.483,0.93 -5.107,2.554 -5.107,5.573 0,3.017 4.177,6.964 6.267,5.803 2.089,-1.162 -1.856,-2.554 0,-3.947 z"
       style="fill:none;stroke:#231f20;stroke-width:0.5;stroke-linecap:round;stroke-linejoin:round;stroke-miterlimit:4;stroke-dasharray:2.8, 1.8;stroke-dashoffset:0;stroke-opacity:1"
       id="path798" />
    <path
       d="m 686.506,402.858 c 1.598,-0.209 3.229,-1.193 2.763,-3.515 -0.465,-2.32 -2.206,-8.681 -6.5,-6.964 -2.322,0.929 -1.393,11.153 3.737,10.479 z"
       style="fill:none;stroke:#231f20;stroke-width:0.5;stroke-linecap:round;stroke-linejoin:round;stroke-miterlimit:4;stroke-dasharray:2.8, 1.8;stroke-dashoffset:0;stroke-opacity:1"
       id="path800" />
    <path
       d="m 557.183,436.922 c -0.631,1.052 1.621,4.788 3.711,4.788 2.089,0 8.705,-1.393 10.446,-4.875 1.742,-3.482 -0.322,-6.618 -2.326,-5.688"
       style="fill:none;stroke:#231f20;stroke-width:0.5;stroke-linecap:round;stroke-linejoin:round;stroke-miterlimit:4;stroke-dasharray:2.8, 1.8;stroke-dashoffset:0;stroke-opacity:1"
       id="path802" />
    <path
       d="m 540,737.693 c -8.705,-3.483 -64.947,-22.859 -83.834,-30.755"
       style="fill:none;stroke:#231f20;stroke-width:0.5;stroke-linecap:round;stroke-linejoin:round;stroke-miterlimit:4;stroke-dasharray:2.8, 1.8;stroke-dashoffset:0;stroke-opacity:1"
       id="path804" />
    <path
       d="M 517.668,821.238 C 511.795,812.21 450.832,720.936 448.743,717.105"
       style="fill:none;stroke:#231f20;stroke-width:0.5;stroke-linecap:round;stroke-linejoin:round;stroke-miterlimit:4;stroke-dasharray:2.8, 1.8;stroke-dashoffset:0;stroke-opacity:1"
       id="path806" />
    <path
       d="m 432.034,838.542 c 0.716,-10.313 0.101,-104.678 0.235,-119.304"
       style="fill:none;stroke:#231f20;stroke-width:0.5;stroke-linecap:round;stroke-linejoin:round;stroke-miterlimit:4;stroke-dasharray:2.8, 1.8;stroke-dashoffset:0;stroke-opacity:1"
       id="path808" />
    <path
       d="m 301.105,802.495 c 9.771,-14.66 68.284,-105.385 72.979,-113.648"
       style="fill:none;stroke:#231f20;stroke-width:0.5;stroke-linecap:round;stroke-linejoin:round;stroke-miterlimit:4;stroke-dasharray:2.8, 1.8;stroke-dashoffset:0;stroke-opacity:1"
       id="path810" />
    <path
       d="m 244.843,749.694 c 14.149,-12.35 93.193,-77.117 100.854,-84.081"
       style="fill:none;stroke:#231f20;stroke-width:0.5;stroke-linecap:round;stroke-linejoin:round;stroke-miterlimit:4;stroke-dasharray:2.8, 1.8;stroke-dashoffset:0;stroke-opacity:1"
       id="path812" />
    <path
       d="m 233.701,733.166 c 14.147,-10.098 96.519,-72.139 105.476,-78.029"
       style="fill:none;stroke:#231f20;stroke-width:0.5;stroke-linecap:round;stroke-linejoin:round;stroke-miterlimit:4;stroke-dasharray:2.8, 1.8;stroke-dashoffset:0;stroke-opacity:1"
       id="path814" />
    <path
       d="M 205.149,663.576 C 223.126,658.3 322.894,629.553 328.376,628.082"
       style="fill:none;stroke:#231f20;stroke-width:0.5;stroke-linecap:round;stroke-linejoin:round;stroke-miterlimit:4;stroke-dasharray:2.8, 1.8;stroke-dashoffset:0;stroke-opacity:1"
       id="path816" />
    <path
       d="m 201.461,645.428 c 17.833,-3.843 113.84,-26.106 123.989,-28.554"
       style="fill:none;stroke:#231f20;stroke-width:0.5;stroke-linecap:round;stroke-linejoin:round;stroke-miterlimit:4;stroke-dasharray:2.8, 1.8;stroke-dashoffset:0;stroke-opacity:1"
       id="path818" />
    <path
       d="m 327.409,569.766 c -1.094,2.234 -5.391,6.356 -7.828,5.658 -2.438,-0.696 -5.223,-2.437 -3.831,-10.794 1.393,-8.357 2.438,-17.062 8.009,-21.241 5.572,-4.179 14.277,-10.099 20.893,-16.366 6.616,-6.268 12.884,-16.018 16.018,-20.893 3.134,-4.875 6.404,-13.224 13.649,-1.389"
       style="fill:none;stroke:#231f20;stroke-width:0.5;stroke-linecap:round;stroke-linejoin:round;stroke-miterlimit:4;stroke-dasharray:2.8, 1.8;stroke-dashoffset:0;stroke-opacity:1"
       id="path820" />
    <path
       d="M 316.905,573.874 C 310.876,572.29 216.653,547.718 206.657,545.554"
       style="fill:none;stroke:#231f20;stroke-width:0.5;stroke-linecap:round;stroke-linejoin:round;stroke-miterlimit:4;stroke-dasharray:2.8, 1.8;stroke-dashoffset:0;stroke-opacity:1"
       id="path822" />
    <path
       d="m 316.936,557.693 c -11.284,-5.599 -80.514,-41.17 -94.475,-48.109"
       style="fill:none;stroke:#231f20;stroke-width:0.5;stroke-linecap:round;stroke-linejoin:round;stroke-miterlimit:4;stroke-dasharray:2.8, 1.8;stroke-dashoffset:0;stroke-opacity:1"
       id="path824" />
    <path
       d="m 322.624,544.362 c -7.918,-5.848 -66.851,-52.838 -81.608,-63.468"
       style="fill:none;stroke:#231f20;stroke-width:0.5;stroke-linecap:round;stroke-linejoin:round;stroke-miterlimit:4;stroke-dasharray:2.8, 1.8;stroke-dashoffset:0;stroke-opacity:1"
       id="path826" />
    <path
       d="M 340.742,530.505 C 328.983,518.666 270.585,469.992 258.346,460.9"
       style="fill:none;stroke:#231f20;stroke-width:0.5;stroke-linecap:round;stroke-linejoin:round;stroke-miterlimit:4;stroke-dasharray:2.8, 1.8;stroke-dashoffset:0;stroke-opacity:1"
       id="path828" />
    <path
       d="m 365.913,499.196 c -4.895,-5.602 -19.171,-21.968 -21.957,-25.798 -2.786,-3.83 -6.964,-13.929 -1.393,-17.759 5.571,-3.831 13.929,-8.706 16.018,-11.84 2.089,-3.133 10.098,-19.151 11.839,-22.633 1.742,-3.483 3.53,-8.706 8.753,-9.75"
       style="fill:none;stroke:#231f20;stroke-width:0.5;stroke-linecap:round;stroke-linejoin:round;stroke-miterlimit:4;stroke-dasharray:2.8, 1.8;stroke-dashoffset:0;stroke-opacity:1"
       id="path830" />
    <path
       d="m 379.548,466.588 c -2.511,-3.985 -14.699,-20.699 -20.967,-22.789"
       style="fill:none;stroke:#231f20;stroke-width:0.5;stroke-linecap:round;stroke-linejoin:round;stroke-miterlimit:4;stroke-dasharray:2.8, 1.8;stroke-dashoffset:0;stroke-opacity:1"
       id="path832" />
    <path
       d="m 260.495,455.269 c 0.934,3.504 18.693,17.084 32.622,3.504 0,0 -6.269,-3.831 -7.661,-12.188 -1.393,-8.357 -0.349,-16.018 9.053,-14.277 9.402,1.741 24.375,10.446 32.384,7.661 8.009,-2.786 14.625,-7.661 16.366,-13.232 1.741,-5.571 2.786,-11.491 7.661,-13.233 4.875,-1.74 9.402,-3.481 10.794,-7.894 1.277,-4.04 1.423,-8.145 -0.666,-10.931"
       style="fill:none;stroke:#231f20;stroke-width:0.5;stroke-linecap:round;stroke-linejoin:round;stroke-miterlimit:4;stroke-dasharray:2.8, 1.8;stroke-dashoffset:0;stroke-opacity:1"
       id="path834" />
    <path
       d="m 343.956,473.398 c -11.492,-2.786 -25.768,-8.009 -31.688,-10.099 -5.92,-2.089 -16.366,-4.526 -19.151,-4.526 -2.786,0 -11.234,0.465 -16.126,-4.881 -4.883,-5.335 -3.259,-22.28 5.678,-25.763 11.207,-4.366 22.983,1.394 29.251,3.831 6.268,2.438 10.098,4.179 16.018,0 5.92,-4.178 8.938,-7.546 9.401,-13.928 0.329,-4.516 3.019,-10.564 8.577,-11.353 6.244,-0.889 11.62,-2.462 11.968,-7.102 0.287,-3.836 -1.045,-5.224 -2.089,-6.617 -1.045,-1.393 1.455,-4.078 2.5,-2.336"
       style="fill:none;stroke:#231f20;stroke-width:0.5;stroke-linecap:round;stroke-linejoin:round;stroke-miterlimit:4;stroke-dasharray:2.8, 1.8;stroke-dashoffset:0;stroke-opacity:1"
       id="path836" />
    <path
       d="m 386.837,455.205 c 2.502,-3.165 5.055,-7.113 5.289,-8.968 0.232,-1.858 0.696,-14.394 -0.698,-18.108 -1.392,-3.715 -4.641,-8.822 -6.731,-11.142 -2.089,-2.323 -6.499,-7.198 -10.214,-9.75 -3.715,-2.555 -10.526,-8.534 -11.375,-9.75 -2.62,-3.754 -5.572,-6.734 -7.775,-13.51"
       style="fill:none;stroke:#231f20;stroke-width:0.5;stroke-linecap:round;stroke-linejoin:round;stroke-miterlimit:4;stroke-dasharray:2.8, 1.8;stroke-dashoffset:0;stroke-opacity:1"
       id="path838" />
    <path
       d="m 514.464,588.774 c 0.234,-6.037 3.484,-19.965 7.198,-21.59"
       style="fill:none;stroke:#231f20;stroke-width:0.5;stroke-linecap:round;stroke-linejoin:round;stroke-miterlimit:4;stroke-dasharray:2.8, 1.8;stroke-dashoffset:0;stroke-opacity:1"
       id="path840" />
    <path
       d="m 524.448,566.488 c 2.321,-0.234 9.516,-1.858 15.552,2.321 6.038,-4.179 13.233,-2.555 15.553,-2.321"
       style="fill:none;stroke:#231f20;stroke-width:0.5;stroke-linecap:round;stroke-linejoin:round;stroke-miterlimit:4;stroke-dasharray:2.8, 1.8;stroke-dashoffset:0;stroke-opacity:1"
       id="path842" />
    <path
       d="m 516.365,545.138 c -1.625,6.268 3.904,9.277 6.689,9.973 2.786,0.697 8.82,0.234 12.303,-0.696 3.482,-0.928 4.643,-4.859 4.643,-6.499 0,1.64 1.163,5.571 4.645,6.499 3.481,0.93 9.516,1.393 12.302,0.696 2.785,-0.696 8.315,-3.705 6.689,-9.973"
       style="fill:none;stroke:#231f20;stroke-width:0.5;stroke-linecap:round;stroke-linejoin:round;stroke-miterlimit:4;stroke-dasharray:2.8, 1.8;stroke-dashoffset:0;stroke-opacity:1"
       id="path844" />
    <path
       d="m 523.054,555.111 c 2.09,-3.713 9.738,-21.069 7.881,-40.106"
       style="fill:none;stroke:#231f20;stroke-width:0.5;stroke-linecap:round;stroke-linejoin:round;stroke-miterlimit:4;stroke-dasharray:2.8, 1.8;stroke-dashoffset:0;stroke-opacity:1"
       id="path846" />
    <path
       d="m 521.477,517.042 c 6.733,-5.572 15.738,0 18.523,2.786 2.787,-2.786 11.792,-8.358 18.524,-2.786"
       style="fill:none;stroke:#231f20;stroke-width:0.5;stroke-linecap:round;stroke-linejoin:round;stroke-miterlimit:4;stroke-dasharray:2.8, 1.8;stroke-dashoffset:0;stroke-opacity:1"
       id="path848" />
    <path
       d="m 539.234,501.704 c -1.788,-3.466 -14.091,-12.288 -17.108,0.944"
       style="fill:none;stroke:#231f20;stroke-width:0.5;stroke-linecap:round;stroke-linejoin:round;stroke-miterlimit:4;stroke-dasharray:2.8, 1.8;stroke-dashoffset:0;stroke-opacity:1"
       id="path850" />
    <path
       d="m 495.314,575.884 c -0.814,-4.058 -0.813,-14.271 3.83,-19.842 4.643,-5.572 14.673,-10.519 17.221,-10.904 0,0 2.278,-7.436 3.439,-14.168 1.161,-6.733 2.554,-21.589 2.322,-28.322 -0.232,-6.733 -3.911,-34.678 -7.393,-48.606"
       style="fill:none;stroke:#231f20;stroke-width:0.5;stroke-linecap:round;stroke-linejoin:round;stroke-miterlimit:4;stroke-dasharray:2.8, 1.8;stroke-dashoffset:0;stroke-opacity:1"
       id="path852" />
    <path
       d="m 490.177,531.68 c 5.123,-7.427 42.394,-66.175 6.181,-100.302"
       style="fill:none;stroke:#231f20;stroke-width:0.5;stroke-linecap:round;stroke-linejoin:round;stroke-miterlimit:4;stroke-dasharray:2.8, 1.8;stroke-dashoffset:0;stroke-opacity:1"
       id="path854" />
    <path
       d="m 484.629,538.397 c -9.982,-4.641 -28.2,-16.018 -50.486,-37.142 -22.285,-21.125 -30.642,-35.287 -31.106,-46.895 -0.465,-11.606 0.927,-15.318 1.856,-16.945 0.93,-1.625 7.699,-8.131 13.929,-8.823 8.357,-0.927 46.662,13.466 58.036,40.162 11.374,26.699 11.376,59.484 10.447,63.429"
       style="fill:none;stroke:#231f20;stroke-width:0.5;stroke-linecap:round;stroke-linejoin:round;stroke-miterlimit:4;stroke-dasharray:2.8, 1.8;stroke-dashoffset:0;stroke-opacity:1"
       id="path856" />
    <path
       d="m 533.841,457.596 c -2.428,0.481 -15.73,4.802 -26.955,-12.101"
       style="fill:none;stroke:#231f20;stroke-width:0.5;stroke-linecap:round;stroke-linejoin:round;stroke-miterlimit:4;stroke-dasharray:2.8, 1.8;stroke-dashoffset:0;stroke-opacity:1"
       id="path858" />
    <path
       d="m 501.233,416.987 c 0.93,9.516 6.499,12.536 8.821,13.694 2.322,1.162 4.644,2.323 8.125,3.021 3.483,0.696 5.339,3.944 5.804,5.571 0.465,1.624 -2.786,4.641 -3.946,6.033 -1.161,1.394 -0.233,6.037 0,8.592 0.231,2.553 1.292,3.567 2.726,3.971 1.436,0.402 3.31,-1.651 4.47,-6.294 1.16,-4.642 2.321,-14.392 1.16,-16.946 -1.16,-2.554 -5.106,-7.199 -10.446,-10.912 -5.34,-3.714 -9.751,-8.357 -11.608,-10.909 -1.856,-2.555 -4.411,-9.981 -6.267,-12.305 -1.857,-2.32 -7.661,-4.875 -9.054,-6.267 -1.392,-1.393 -7.893,-7.895 -12.536,-10.215 -4.642,-2.32 -8.82,-5.106 -10.91,-6.269 -2.089,-1.158 -5.339,-1.857 -7.428,0 -2.09,1.859 -7.195,3.018 -11.143,1.394 -3.948,-1.624 -8.357,-4.179 -9.75,-6.269 -1.393,-2.088 -4.178,-3.944 -8.357,-3.016 -4.179,0.928 -2.09,2.555 0,3.947 2.089,1.393 -0.93,5.107 -3.018,6.731 -2.089,1.627 -9.054,5.571 -13.697,6.267 -4.641,0.696 -8.56,0.899 -10.911,-1.158 -3.714,-3.251 0.232,-10.447 -6.965,-9.984 -5.142,0.332 -5.569,4.412 -6.499,6.502 -0.928,2.088 -3.017,4.41 -5.804,3.944 -2.786,-0.462 -5.803,-0.694 -8.589,2.555 -2.786,3.251 -6.499,0.464 -8.588,2.088 -2.09,1.624 -6.144,1.497 -6.903,2.373"
       style="fill:none;stroke:#231f20;stroke-width:0.5;stroke-linecap:round;stroke-linejoin:round;stroke-miterlimit:4;stroke-dasharray:2.8, 1.8;stroke-dashoffset:0;stroke-opacity:1"
       id="path860" />
    <path
       d="m 422.768,373.575 c 0,-2.552 -2.555,-5.107 -7.661,-2.786 -5.107,2.323 -8.077,4.701 -5.571,6.267 1.858,1.162 13.232,-0.928 13.232,-3.481 z"
       style="fill:none;stroke:#231f20;stroke-width:0.5;stroke-linecap:round;stroke-linejoin:round;stroke-miterlimit:4;stroke-dasharray:2.8, 1.8;stroke-dashoffset:0;stroke-opacity:1"
       id="path862" />
    <path
       d="m 496.126,416.753 c -2.069,-0.547 -7.66,-4.176 -7.428,-7.892 0.231,-3.713 1.857,-7.198 5.571,-6.733 3.713,0.465 6.731,2.554 7.428,7.199 0.696,4.64 2.322,9.515 -5.571,7.426 z"
       style="fill:none;stroke:#231f20;stroke-width:0.5;stroke-linecap:round;stroke-linejoin:round;stroke-miterlimit:4;stroke-dasharray:2.8, 1.8;stroke-dashoffset:0;stroke-opacity:1"
       id="path864" />
    <path
       d="m 501.233,416.987 c 0.233,3.482 -0.696,8.589 -2.089,10.446 -1.393,1.856 -4.18,6.034 -6.733,5.338 -2.553,-0.696 -3.713,-2.09 -3.713,-4.642 0,-2.553 -1.393,-5.339 -2.322,-6.501 -0.929,-1.159 -2.54,-6.279 4.417,-8.363"
       style="fill:none;stroke:#231f20;stroke-width:0.5;stroke-linecap:round;stroke-linejoin:round;stroke-miterlimit:4;stroke-dasharray:2.8, 1.8;stroke-dashoffset:0;stroke-opacity:1"
       id="path866" />
    <path
       d="m 486.305,416.17 c -3.644,-0.576 -12.698,-4.523 -14.555,-6.147"
       style="fill:none;stroke:#231f20;stroke-width:0.5;stroke-linecap:round;stroke-linejoin:round;stroke-miterlimit:4;stroke-dasharray:2.8, 1.8;stroke-dashoffset:0;stroke-opacity:1"
       id="path868" />
    <path
       d="m 493.792,402.098 c -6.487,-2.521 -15.076,-6.004 -19.719,-8.79 -4.644,-2.785 -12.77,-5.571 -16.484,-6.268 -3.713,-0.696 -7.426,0 -11.374,-1.858 -3.947,-1.857 -6.733,-4.409 -9.518,-3.481 -2.786,0.926 -2.786,3.25 -3.483,5.571 -0.696,2.32 -2.554,5.34 -6.964,6.732 -4.41,1.394 -10.912,3.714 -14.624,3.248 -3.714,-0.462 -8.126,-0.696 -8.822,-3.944 -0.696,-3.251 -2.09,-9.75 -5.571,-9.75 -3.483,0 -4.643,4.642 -6.035,6.731 -1.394,2.088 -5.005,2.876 -7.43,3.482 -3.714,0.93 -4.179,4.412 -6.965,5.34 -2.785,0.928 -8.431,2.143 -12.108,0.027"
       style="fill:none;stroke:#231f20;stroke-width:0.5;stroke-linecap:round;stroke-linejoin:round;stroke-miterlimit:4;stroke-dasharray:2.8, 1.8;stroke-dashoffset:0;stroke-opacity:1"
       id="path870" />
    <path
       d="m 384.99,459.544 c 6.672,-6.808 8.76,-10.755 10.153,-16.092 1.394,-5.341 4.875,-23.449 2.09,-24.375 -2.786,-0.931 -4.068,1.088 -5.633,9.597"
       style="fill:none;stroke:#231f20;stroke-width:0.5;stroke-linecap:round;stroke-linejoin:round;stroke-miterlimit:4;stroke-dasharray:2.8, 1.8;stroke-dashoffset:0;stroke-opacity:1"
       id="path872" />
    <path
       d="m 457.589,407.237 c -2.552,1.624 -20.892,3.944 -25.071,4.179"
       style="fill:none;stroke:#231f20;stroke-width:0.5;stroke-linecap:round;stroke-linejoin:round;stroke-miterlimit:4;stroke-dasharray:2.8, 1.8;stroke-dashoffset:0;stroke-opacity:1"
       id="path874" />
    <path
       d="m 466.412,419.539 c -2.958,0.644 -4.18,-1.16 -5.34,-3.713 -1.16,-2.555 -3.945,-8.823 -4.41,-10.678 -0.465,-1.858 1.162,-4.645 4.875,-4.413 3.713,0.234 4.875,-0.462 6.035,-0.928 1.16,-0.465 3.946,0.466 3.946,4.179 0,3.714 0.234,14.391 -5.106,15.553 z"
       style="fill:none;stroke:#231f20;stroke-width:0.5;stroke-linecap:round;stroke-linejoin:round;stroke-miterlimit:4;stroke-dasharray:2.8, 1.8;stroke-dashoffset:0;stroke-opacity:1"
       id="path876" />
    <path
       d="m 464.34,400.719 c -2.02,0.56 -6.983,-0.912 -6.751,-3.232 0.233,-2.323 3.483,-6.964 7.894,-3.483 4.411,3.483 1.43,5.999 -1.143,6.715 z"
       style="fill:none;stroke:#231f20;stroke-width:0.5;stroke-linecap:round;stroke-linejoin:round;stroke-miterlimit:4;stroke-dasharray:2.8, 1.8;stroke-dashoffset:0;stroke-opacity:1"
       id="path878" />
    <path
       d="m 426.483,416.056 c -2.076,-1.556 -6.094,-0.984 -9.054,1.394 -2.063,1.659 -6.489,4.875 -9.053,4.875 -3.483,0 -10.446,-2.555 -14.393,-4.875 -3.947,-2.322 -7.198,-5.107 -8.126,-6.965 -0.928,-1.856 -1.387,-7.157 1.626,-7.66 2.785,-0.463 6.5,-0.466 9.75,1.392 3.249,1.859 8.124,6.964 12.999,5.572 4.875,-1.393 13.929,-2.089 17.411,-1.16 3.483,0.928 5.107,2.552 5.107,5.573 0,3.016 -4.178,6.964 -6.267,5.801 -2.09,-1.161 1.856,-2.553 0,-3.947 z"
       style="fill:none;stroke:#231f20;stroke-width:0.5;stroke-linecap:round;stroke-linejoin:round;stroke-miterlimit:4;stroke-dasharray:2.8, 1.8;stroke-dashoffset:0;stroke-opacity:1"
       id="path880" />
    <path
       d="m 393.495,402.857 c -1.597,-0.209 -3.228,-1.194 -2.763,-3.515 0.466,-2.32 2.206,-8.68 6.501,-6.965 2.321,0.931 1.393,11.155 -3.738,10.48 z"
       style="fill:none;stroke:#231f20;stroke-width:0.5;stroke-linecap:round;stroke-linejoin:round;stroke-miterlimit:4;stroke-dasharray:2.8, 1.8;stroke-dashoffset:0;stroke-opacity:1"
       id="path882" />
    <path
       d="m 522.819,436.922 c 0.632,1.05 -1.622,4.788 -3.711,4.788 -2.089,0 -8.705,-1.393 -10.446,-4.875 -1.742,-3.482 0.322,-6.619 2.326,-5.688"
       style="fill:none;stroke:#231f20;stroke-width:0.5;stroke-linecap:round;stroke-linejoin:round;stroke-miterlimit:4;stroke-dasharray:2.8, 1.8;stroke-dashoffset:0;stroke-opacity:1"
       id="path884" />
    <path
       d="m 552.61,619.416 c -0.77,3.714 0.972,6.152 2.481,7.428 1.317,1.114 4.179,2.089 6.268,1.625 1.602,-0.355 1.482,-1.321 -0.149,-1.507 -2.057,-0.233 -5.249,-2.895 -4.639,-6.149"
       style="fill:none;stroke:#231f20;stroke-width:0.5;stroke-linecap:round;stroke-linejoin:round;stroke-miterlimit:4;stroke-dasharray:2.8, 1.8;stroke-dashoffset:0;stroke-opacity:1"
       id="path886" />
    <path
       d="m 527.391,619.416 c 0.771,3.714 -0.971,6.152 -2.479,7.428 -1.318,1.114 -4.179,2.089 -6.269,1.625 -1.601,-0.355 -1.483,-1.321 0.148,-1.507 2.058,-0.233 5.25,-2.895 4.64,-6.149"
       style="fill:none;stroke:#231f20;stroke-width:0.5;stroke-linecap:round;stroke-linejoin:round;stroke-miterlimit:4;stroke-dasharray:2.8, 1.8;stroke-dashoffset:0;stroke-opacity:1"
       id="path888" />
    <path
       d="m 554.878,591.905 c -0.717,-2.9 -1.645,-10.561 -1.414,-13.115 0.234,-2.552 1.858,-11.142 2.089,-12.302 l 2.786,0.696 c 0,0 0.294,17.886 -0.201,24.033"
       style="fill:none;stroke:#231f20;stroke-width:0.5;stroke-linecap:round;stroke-linejoin:round;stroke-miterlimit:4;stroke-dasharray:2.8, 1.8;stroke-dashoffset:0;stroke-opacity:1"
       id="path890" />
    <path
       d="m 525.123,591.905 c 0.717,-2.9 1.646,-10.561 1.414,-13.115 -0.233,-2.552 -1.857,-11.142 -2.089,-12.302 l -2.786,0.696 c 0,0 -0.292,17.886 0.202,24.033"
       style="fill:none;stroke:#231f20;stroke-width:0.5;stroke-linecap:round;stroke-linejoin:round;stroke-miterlimit:4;stroke-dasharray:2.8, 1.8;stroke-dashoffset:0;stroke-opacity:1"
       id="path892" />
  </g>
</svg>
