<?xml version="1.0" encoding="UTF-8" standalone="no"?>
<!-- Created with Inkscape (http://www.inkscape.org/) -->

<svg
   version="1.1"
   id="svg2"
   width="1440"
   height="1344"
   viewBox="0 0 1440 1344"
   xmlns="http://www.w3.org/2000/svg"
   xmlns:svg="http://www.w3.org/2000/svg">
  <defs
     id="defs6" />
  <g
     id="g10">
    <path
       d="m 540,781.916 c 0,7.312 -1.043,20.196 18.108,38.652 19.152,18.455 57.455,27.16 109.687,19.5 52.233,-7.661 96.457,-30.991 138.939,-69.644 42.481,-38.651 69.294,-98.545 65.464,-152.171 -3.83,-53.625 -24.607,-89.142 -39.464,-107.25 -14.858,-18.107 -20.895,-34.356 -50.608,-47.357 0,0 7.893,-1.39 6.5,-8.819 -1.392,-7.43 -6.964,-26.464 -19.5,-34.822 -12.536,-8.357 -52,-19.965 -59.893,-24.143 -7.893,-4.179 -22.751,-9.75 -42.715,-12.072 -19.964,-2.323 -30.642,-5.571 -42.713,-5.571 -12.072,0 -28.786,7.427 -37.143,15.784 -8.358,8.358 -13.58,16.367 -19.5,26.117 -5.92,9.75 -12.536,21.588 -14.625,24.722 -2.09,3.135 -1.393,4.875 -3.483,14.278 -2.089,9.401 -5.571,19.5 -7.312,24.026 C 540,487.673 540,493.941 540,497.423 c 0,3.483 0,284.493 0,284.493"
       style="fill:#ffffff;fill-opacity:1;fill-rule:nonzero;stroke:none;stroke-width:0.1"
       id="path670" />
    <path
       d="m 540,781.916 c 0,7.312 -1.043,20.196 18.108,38.652 19.152,18.455 57.455,27.16 109.687,19.5 52.233,-7.661 96.457,-30.991 138.939,-69.644 42.481,-38.651 69.294,-98.545 65.464,-152.171 -3.83,-53.625 -24.607,-89.142 -39.464,-107.25 -14.858,-18.107 -20.895,-34.356 -50.608,-47.357 0,0 7.893,-1.39 6.5,-8.819 -1.392,-7.43 -6.964,-26.464 -19.5,-34.822 -12.536,-8.357 -52,-19.965 -59.893,-24.143 -7.893,-4.179 -22.751,-9.75 -42.715,-12.072 -19.964,-2.323 -30.642,-5.571 -42.713,-5.571 -12.072,0 -28.786,7.427 -37.143,15.784 -8.358,8.358 -13.58,16.367 -19.5,26.117 -5.92,9.75 -12.536,21.588 -14.625,24.722 -2.09,3.135 -1.393,4.875 -3.483,14.278 -2.089,9.401 -5.571,19.5 -7.312,24.026 C 540,487.673 540,493.941 540,497.423 c 0,3.483 0,284.493 0,284.493 z"
       style="fill:none;stroke:#231f20;stroke-width:0.75;stroke-linecap:round;stroke-linejoin:round;stroke-miterlimit:4;stroke-dasharray:none;stroke-opacity:1"
       id="path672" />
    <path
       d="m 540,781.916 c 0,7.312 1.045,20.196 -18.106,38.652 -19.152,18.455 -57.456,27.16 -109.688,19.5 -52.233,-7.661 -96.456,-30.991 -138.938,-69.644 -42.482,-38.651 -69.295,-98.545 -65.465,-152.171 3.831,-53.625 24.607,-89.142 39.465,-107.25 14.858,-18.107 20.894,-34.356 50.608,-47.357 0,0 -7.894,-1.39 -6.5,-8.819 1.392,-7.43 6.963,-26.464 19.5,-34.822 12.535,-8.357 51.999,-19.965 59.892,-24.143 7.894,-4.179 22.751,-9.75 42.715,-12.072 19.964,-2.323 30.642,-5.571 42.714,-5.571 12.071,0 28.786,7.427 37.143,15.784 8.357,8.358 13.58,16.367 19.5,26.117 5.919,9.75 12.536,21.588 14.625,24.722 2.089,3.135 1.393,4.875 3.482,14.278 2.09,9.401 5.572,19.5 7.312,24.026 1.741,4.527 1.741,10.795 1.741,14.277 0,3.483 0,284.493 0,284.493"
       style="fill:#ffffff;fill-opacity:1;fill-rule:nonzero;stroke:none;stroke-width:0.1"
       id="path674" />
    <path
       d="m 540,781.916 c 0,7.312 1.045,20.196 -18.106,38.652 -19.152,18.455 -57.456,27.16 -109.688,19.5 -52.233,-7.661 -96.456,-30.991 -138.938,-69.644 -42.482,-38.651 -69.295,-98.545 -65.465,-152.171 3.831,-53.625 24.607,-89.142 39.465,-107.25 14.858,-18.107 20.894,-34.356 50.608,-47.357 0,0 -7.894,-1.39 -6.5,-8.819 1.392,-7.43 6.963,-26.464 19.5,-34.822 12.535,-8.357 51.999,-19.965 59.892,-24.143 7.894,-4.179 22.751,-9.75 42.715,-12.072 19.964,-2.323 30.642,-5.571 42.714,-5.571 12.071,0 28.786,7.427 37.143,15.784 8.357,8.358 13.58,16.367 19.5,26.117 5.919,9.75 12.536,21.588 14.625,24.722 2.089,3.135 1.393,4.875 3.482,14.278 2.09,9.401 5.572,19.5 7.312,24.026 1.741,4.527 1.741,10.795 1.741,14.277 0,3.483 0,284.493 0,284.493 z"
       style="fill:none;stroke:#231f20;stroke-width:0.75;stroke-linecap:round;stroke-linejoin:round;stroke-miterlimit:4;stroke-dasharray:none;stroke-opacity:1"
       id="path676" />
    <path
       d="m 544.528,463.298 c 0,-2.5 -2.028,-4.527 -4.528,-4.527 -2.5,0 -4.526,2.027 -4.526,4.527 0,2.5 2.026,4.527 4.526,4.527 2.5,0 4.528,-2.027 4.528,-4.527"
       style="fill:#ffffff;fill-opacity:1;fill-rule:nonzero;stroke:none;stroke-width:0.1"
       id="path678" />
    <path
       d="m 544.528,463.298 c 0,-2.5 -2.028,-4.527 -4.528,-4.527 -2.5,0 -4.526,2.027 -4.526,4.527 0,2.5 2.026,4.527 4.526,4.527 2.5,0 4.528,-2.027 4.528,-4.527 z"
       style="fill:none;stroke:#231f20;stroke-width:0.5;stroke-linecap:butt;stroke-linejoin:miter;stroke-miterlimit:4;stroke-dasharray:none;stroke-opacity:1"
       id="path680" />
    <path
       d="m 542.787,609.548 c 0,-3.077 -1.247,-5.571 -2.787,-5.571 -1.538,0 -2.785,2.494 -2.785,5.571 0,3.077 1.247,5.572 2.785,5.572 1.54,0 2.787,-2.495 2.787,-5.572"
       style="fill:#ffffff;fill-opacity:1;fill-rule:nonzero;stroke:none;stroke-width:0.1"
       id="path682" />
    <path
       d="m 542.787,609.548 c 0,-3.077 -1.247,-5.571 -2.787,-5.571 -1.538,0 -2.785,2.494 -2.785,5.571 0,3.077 1.247,5.572 2.785,5.572 1.54,0 2.787,-2.495 2.787,-5.572 z"
       style="fill:none;stroke:#231f20;stroke-width:0.5;stroke-linecap:butt;stroke-linejoin:miter;stroke-miterlimit:4;stroke-dasharray:none;stroke-opacity:1"
       id="path684" />
    <path
       d="m 646.207,716.103 c -5.572,2.554 -13.465,-0.813 -15.322,-5.224 -1.456,-3.456 -14.973,-33.428 -19.152,-41.785 -4.179,-8.357 -17.41,-32.732 -21.241,-38.304 -3.83,-5.571 -9.054,-21.242 -6.964,-31.339 0,0 1.741,13.58 6.267,22.285 4.528,8.706 20.545,35.867 25.42,45.268 4.875,9.403 18.108,35.17 20.545,39 2.438,3.831 4.178,9.286 10.447,10.099 z"
       style="fill:none;stroke:#231f20;stroke-width:0.5;stroke-linecap:butt;stroke-linejoin:miter;stroke-miterlimit:4;stroke-dasharray:none;stroke-opacity:1"
       id="path686" />
    <path
       d="m 646.207,716.103 c 6.963,-3.482 58.151,-26.116 71.732,-55.715 13.58,-29.598 14.276,-68.25 2.089,-84.616 -10.654,-14.306 -41.534,-17.482 -51.188,-24.724 -6.964,-5.223 -17.758,-20.545 -12.536,-33.08 0,0 -9.332,9.497 -17.41,16.366 -7.216,6.137 -11.84,19.152 -11.84,25.419 0,6.269 2.786,12.537 10.795,14.974 8.009,2.438 32.384,7.66 44.92,18.107 12.535,10.447 12.188,26.117 10.795,35.17 -1.394,9.054 -11.262,29.448 -31.688,24.724 -9.038,-2.09 -16.366,-5.92 -20.544,-10.099"
       style="fill:none;stroke:#231f20;stroke-width:0.5;stroke-linecap:butt;stroke-linejoin:miter;stroke-miterlimit:4;stroke-dasharray:none;stroke-opacity:1"
       id="path688" />
    <path
       d="m 583.528,599.451 c 1.741,-13.929 4.179,-12.885 4.526,-26.814 0.271,-10.813 -4.875,-40.044 -4.526,-50.142"
       style="fill:none;stroke:#231f20;stroke-width:0.5;stroke-linecap:butt;stroke-linejoin:miter;stroke-miterlimit:4;stroke-dasharray:none;stroke-opacity:1"
       id="path690" />
    <path
       d="m 636.108,478.271 c 4.985,1.813 18.456,-3.481 22.982,-5.919 4.527,-2.437 8.009,-6.965 2.438,-10.099 -5.571,-3.133 -17.759,-8.705 -21.938,-9.75 -4.178,-1.045 -8.926,-2.116 -8.705,5.92 0.241,8.72 1.393,18.455 5.223,19.848 z"
       style="fill:none;stroke:#231f20;stroke-width:0.5;stroke-linecap:butt;stroke-linejoin:miter;stroke-miterlimit:4;stroke-dasharray:none;stroke-opacity:1"
       id="path692" />
    <path
       d="m 782.126,463.646 -10.911,2.786"
       style="fill:none;stroke:#231f20;stroke-width:0.5;stroke-linecap:butt;stroke-linejoin:miter;stroke-miterlimit:4;stroke-dasharray:none;stroke-opacity:1"
       id="path694" />
    <path
       d="m 706.401,394.453 c 3.528,4.077 6.663,6.514 11.538,8.952 4.875,2.437 10.794,4.875 14.276,9.75 3.483,4.875 8.705,10.795 12.537,11.491 3.83,0.696 12.883,-0.23 24.374,-4.641"
       style="fill:none;stroke:#231f20;stroke-width:0.5;stroke-linecap:butt;stroke-linejoin:miter;stroke-miterlimit:4;stroke-dasharray:none;stroke-opacity:1"
       id="path696" />
    <path
       d="m 433.795,716.103 c 5.572,2.554 13.465,-0.813 15.322,-5.224 1.455,-3.456 14.973,-33.428 19.151,-41.785 4.179,-8.357 17.411,-32.732 21.241,-38.304 3.831,-5.571 9.054,-21.242 6.965,-31.339 0,0 -1.741,13.58 -6.268,22.285 -4.527,8.706 -20.544,35.867 -25.419,45.268 -4.875,9.403 -18.108,35.17 -20.545,39 -2.438,3.831 -4.179,9.286 -10.447,10.099 z"
       style="fill:none;stroke:#231f20;stroke-width:0.5;stroke-linecap:butt;stroke-linejoin:miter;stroke-miterlimit:4;stroke-dasharray:none;stroke-opacity:1"
       id="path698" />
    <path
       d="m 433.795,716.103 c -6.964,-3.482 -58.152,-26.116 -71.732,-55.715 -13.58,-29.598 -14.277,-68.25 -2.09,-84.616 10.653,-14.306 41.534,-17.482 51.189,-24.724 6.964,-5.223 17.758,-20.545 12.535,-33.08 0,0 9.333,9.497 17.411,16.366 7.216,6.137 11.839,19.152 11.839,25.419 0,6.269 -2.785,12.537 -10.794,14.974 -8.01,2.438 -32.385,7.66 -44.92,18.107 -12.536,10.447 -12.188,26.117 -10.795,35.17 1.393,9.054 11.261,29.448 31.688,24.724 9.037,-2.09 16.366,-5.92 20.544,-10.099"
       style="fill:none;stroke:#231f20;stroke-width:0.5;stroke-linecap:butt;stroke-linejoin:miter;stroke-miterlimit:4;stroke-dasharray:none;stroke-opacity:1"
       id="path700" />
    <path
       d="m 496.474,599.451 c -1.741,-13.929 -4.179,-12.885 -4.527,-26.814 -0.271,-10.813 4.875,-40.044 4.527,-50.142"
       style="fill:none;stroke:#231f20;stroke-width:0.5;stroke-linecap:butt;stroke-linejoin:miter;stroke-miterlimit:4;stroke-dasharray:none;stroke-opacity:1"
       id="path702" />
    <path
       d="m 443.893,478.271 c -4.984,1.813 -18.455,-3.481 -22.981,-5.919 -4.528,-2.437 -8.01,-6.965 -2.438,-10.099 5.571,-3.133 17.759,-8.705 21.938,-9.75 4.178,-1.045 8.926,-2.116 8.705,5.92 -0.241,8.72 -1.393,18.455 -5.224,19.848 z"
       style="fill:none;stroke:#231f20;stroke-width:0.5;stroke-linecap:butt;stroke-linejoin:miter;stroke-miterlimit:4;stroke-dasharray:none;stroke-opacity:1"
       id="path704" />
    <path
       d="m 297.876,463.646 10.91,2.786"
       style="fill:none;stroke:#231f20;stroke-width:0.5;stroke-linecap:butt;stroke-linejoin:miter;stroke-miterlimit:4;stroke-dasharray:none;stroke-opacity:1"
       id="path706" />
    <path
       d="m 373.6,394.453 c -3.528,4.077 -6.662,6.514 -11.537,8.952 -4.875,2.437 -10.795,4.875 -14.277,9.75 -3.482,4.875 -8.705,10.795 -12.536,11.491 -3.83,0.696 -12.883,-0.23 -24.374,-4.641"
       style="fill:none;stroke:#231f20;stroke-width:0.5;stroke-linecap:butt;stroke-linejoin:miter;stroke-miterlimit:4;stroke-dasharray:none;stroke-opacity:1"
       id="path708" />
    <path
       d="m 586.662,526.673 c 0,0 -0.349,16.018 1.741,21.589 2.089,5.572 12.884,18.804 15.321,26.116 2.438,7.313 7.313,19.849 11.143,25.769 3.831,5.919 14.625,25.072 17.411,29.947 2.785,4.875 9.054,12.535 9.054,12.535 0,0 -5.572,-8.008 -10.099,-18.107 -4.526,-10.099 -11.143,-22.634 -14.625,-32.732 -3.482,-10.099 -6.022,-16.425 -9.054,-28.554 -1.392,-5.571 -3.134,-12.188 -3.134,-12.188 0,0 -17.062,-5.92 -17.758,-24.375"
       style="fill:#b2b1b1;fill-opacity:1;fill-rule:nonzero;stroke:none;stroke-width:0.1"
       id="path710" />
    <path
       d="m 586.662,526.673 c 0,0 -0.349,16.018 1.741,21.589 2.089,5.572 12.884,18.804 15.321,26.116 2.438,7.313 7.313,19.849 11.143,25.769 3.831,5.919 14.625,25.072 17.411,29.947 2.785,4.875 9.054,12.535 9.054,12.535 0,0 -5.572,-8.008 -10.099,-18.107 -4.526,-10.099 -11.143,-22.634 -14.625,-32.732 -3.482,-10.099 -6.022,-16.425 -9.054,-28.554 -1.392,-5.571 -3.134,-12.188 -3.134,-12.188 0,0 -17.062,-5.92 -17.758,-24.375 z"
       style="fill:none;stroke:#231f20;stroke-width:0.5;stroke-linecap:round;stroke-linejoin:round;stroke-miterlimit:4;stroke-dasharray:none;stroke-opacity:1"
       id="path712" />
    <path
       d="m 493.34,526.673 c 0,0 0.348,16.018 -1.741,21.589 -2.09,5.572 -12.884,18.804 -15.321,26.116 -2.438,7.313 -7.313,19.849 -11.144,25.769 -3.83,5.919 -14.625,25.072 -17.41,29.947 -2.786,4.875 -9.054,12.535 -9.054,12.535 0,0 5.572,-8.008 10.098,-18.107 4.527,-10.099 11.144,-22.634 14.625,-32.732 3.483,-10.099 6.023,-16.425 9.054,-28.554 1.393,-5.571 3.134,-12.188 3.134,-12.188 0,0 17.062,-5.92 17.759,-24.375"
       style="fill:#b2b1b1;fill-opacity:1;fill-rule:nonzero;stroke:none;stroke-width:0.1"
       id="path714" />
    <path
       d="m 493.34,526.673 c 0,0 0.348,16.018 -1.741,21.589 -2.09,5.572 -12.884,18.804 -15.321,26.116 -2.438,7.313 -7.313,19.849 -11.144,25.769 -3.83,5.919 -14.625,25.072 -17.41,29.947 -2.786,4.875 -9.054,12.535 -9.054,12.535 0,0 5.572,-8.008 10.098,-18.107 4.527,-10.099 11.144,-22.634 14.625,-32.732 3.483,-10.099 6.023,-16.425 9.054,-28.554 1.393,-5.571 3.134,-12.188 3.134,-12.188 0,0 17.062,-5.92 17.759,-24.375 z"
       style="fill:none;stroke:#231f20;stroke-width:0.5;stroke-linecap:round;stroke-linejoin:round;stroke-miterlimit:4;stroke-dasharray:none;stroke-opacity:1"
       id="path716" />
    <path
       d="m 604.42,551.048 c 0,0 -17.062,-5.92 -17.758,-24.375 5.92,3.134 15.67,16.018 17.758,24.375"
       style="fill:#706d6e;fill-opacity:1;fill-rule:nonzero;stroke:none;stroke-width:0.1"
       id="path718" />
    <path
       d="m 604.42,551.048 c 0,0 -17.062,-5.92 -17.758,-24.375 5.92,3.134 15.67,16.018 17.758,24.375 z"
       style="fill:none;stroke:#231f20;stroke-width:0.5;stroke-linecap:round;stroke-linejoin:round;stroke-miterlimit:4;stroke-dasharray:none;stroke-opacity:1"
       id="path720" />
    <path
       d="m 493.34,526.673 c -0.697,18.455 -17.759,24.375 -17.759,24.375 2.089,-8.357 11.838,-21.241 17.759,-24.375"
       style="fill:#706d6e;fill-opacity:1;fill-rule:nonzero;stroke:none;stroke-width:0.1"
       id="path722" />
    <path
       d="m 493.34,526.673 c -0.697,18.455 -17.759,24.375 -17.759,24.375 2.089,-8.357 11.838,-21.241 17.759,-24.375 z"
       style="fill:none;stroke:#231f20;stroke-width:0.5;stroke-linecap:round;stroke-linejoin:round;stroke-miterlimit:4;stroke-dasharray:none;stroke-opacity:1"
       id="path724" />
    <path
       d="m 526.072,436.659 c 0.394,-0.818 0.098,-1.765 -0.628,-2.14 -0.705,-0.366 -1.606,-0.082 -2.043,0.661 -0.46,0.776 -0.262,1.787 0.486,2.228 0.774,0.46 1.769,0.109 2.185,-0.749"
       style="fill:#ffffff;fill-opacity:1;fill-rule:nonzero;stroke:none;stroke-width:0.1"
       id="path726" />
    <path
       d="m 526.072,436.659 c 0.394,-0.818 0.098,-1.765 -0.628,-2.14 -0.705,-0.366 -1.606,-0.082 -2.043,0.661 -0.46,0.776 -0.262,1.787 0.486,2.228 0.774,0.46 1.769,0.109 2.185,-0.749 z"
       style="fill:none;stroke:#231f20;stroke-width:0.5;stroke-linecap:round;stroke-linejoin:round;stroke-miterlimit:4;stroke-dasharray:none;stroke-opacity:1"
       id="path728" />
    <path
       d="m 553.929,436.659 c -0.394,-0.818 -0.097,-1.765 0.629,-2.14 0.704,-0.366 1.605,-0.082 2.043,0.661 0.46,0.776 0.261,1.787 -0.487,2.228 -0.773,0.46 -1.769,0.109 -2.185,-0.749"
       style="fill:#ffffff;fill-opacity:1;fill-rule:nonzero;stroke:none;stroke-width:0.1"
       id="path730" />
    <path
       d="m 553.929,436.659 c -0.394,-0.818 -0.097,-1.765 0.629,-2.14 0.704,-0.366 1.605,-0.082 2.043,0.661 0.46,0.776 0.261,1.787 -0.487,2.228 -0.773,0.46 -1.769,0.109 -2.185,-0.749 z"
       style="fill:none;stroke:#231f20;stroke-width:0.5;stroke-linecap:round;stroke-linejoin:round;stroke-miterlimit:4;stroke-dasharray:none;stroke-opacity:1"
       id="path732" />
    <path
       d="m 540,724.112 c 9.403,-3.83 67.587,-22.807 84.807,-26.899"
       style="fill:none;stroke:#231f20;stroke-width:0.5;stroke-linecap:round;stroke-linejoin:round;stroke-miterlimit:4;stroke-dasharray:2.8, 1.8;stroke-dashoffset:0;stroke-opacity:1"
       id="path734" />
    <path
       d="m 551.832,813.908 c 9.062,-12.492 70.347,-90.841 79.053,-103.029"
       style="fill:none;stroke:#231f20;stroke-width:0.5;stroke-linecap:round;stroke-linejoin:round;stroke-miterlimit:4;stroke-dasharray:2.8, 1.8;stroke-dashoffset:0;stroke-opacity:1"
       id="path736" />
    <path
       d="m 641.336,842.635 c -0.004,-21.023 2.126,-106.722 1.072,-125.661"
       style="fill:none;stroke:#231f20;stroke-width:0.5;stroke-linecap:round;stroke-linejoin:round;stroke-miterlimit:4;stroke-dasharray:2.8, 1.8;stroke-dashoffset:0;stroke-opacity:1"
       id="path738" />
    <path
       d="m 777.832,794.102 c -7.313,-9.749 -73.066,-95.684 -82.149,-107.56"
       style="fill:none;stroke:#231f20;stroke-width:0.5;stroke-linecap:round;stroke-linejoin:round;stroke-miterlimit:4;stroke-dasharray:2.8, 1.8;stroke-dashoffset:0;stroke-opacity:1"
       id="path740" />
    <path
       d="M 832.972,741.265 C 818.921,732.469 728.037,667.701 717.939,660.388"
       style="fill:none;stroke:#231f20;stroke-width:0.5;stroke-linecap:round;stroke-linejoin:round;stroke-miterlimit:4;stroke-dasharray:2.8, 1.8;stroke-dashoffset:0;stroke-opacity:1"
       id="path742" />
    <path
       d="M 846.267,720.937 C 835.984,715.058 736.827,657.863 722.334,649.202"
       style="fill:none;stroke:#231f20;stroke-width:0.5;stroke-linecap:round;stroke-linejoin:round;stroke-miterlimit:4;stroke-dasharray:2.8, 1.8;stroke-dashoffset:0;stroke-opacity:1"
       id="path744" />
    <path
       d="m 718.931,574.427 c 1.768,2.297 13.284,8.309 16.071,5.523 2.785,-2.785 1.392,-12.884 -5.92,-20.893 -7.313,-8.009 -22.455,-16.401 -38.314,-23.662 -16.008,-7.329 -19.839,-19.517 -22.973,-24.043 -3.133,-4.527 -5.919,-4.527 -7.312,-2.09 -1.393,2.438 -4.179,8.706 -4.179,8.706"
       style="fill:none;stroke:#231f20;stroke-width:0.5;stroke-linecap:round;stroke-linejoin:round;stroke-miterlimit:4;stroke-dasharray:2.8, 1.8;stroke-dashoffset:0;stroke-opacity:1"
       id="path746" />
    <path
       d="m 734.032,580.502 c 7.586,0.145 118.652,-5.968 130.499,-6.567"
       style="fill:none;stroke:#231f20;stroke-width:0.5;stroke-linecap:round;stroke-linejoin:round;stroke-miterlimit:4;stroke-dasharray:2.8, 1.8;stroke-dashoffset:0;stroke-opacity:1"
       id="path748" />
    <path
       d="m 735.879,571.705 c 16.019,-5.224 113.305,-35.904 113.305,-35.904"
       style="fill:none;stroke:#231f20;stroke-width:0.5;stroke-linecap:round;stroke-linejoin:round;stroke-miterlimit:4;stroke-dasharray:2.8, 1.8;stroke-dashoffset:0;stroke-opacity:1"
       id="path750" />
    <path
       d="m 732.046,562.878 c 10.964,-7.651 94.221,-60.256 94.221,-60.256"
       style="fill:none;stroke:#231f20;stroke-width:0.5;stroke-linecap:round;stroke-linejoin:round;stroke-miterlimit:4;stroke-dasharray:2.8, 1.8;stroke-dashoffset:0;stroke-opacity:1"
       id="path752" />
    <path
       d="m 719.466,551.01 c 8.571,-8.319 80.43,-77.442 80.43,-77.442"
       style="fill:none;stroke:#231f20;stroke-width:0.5;stroke-linecap:round;stroke-linejoin:round;stroke-miterlimit:4;stroke-dasharray:2.8, 1.8;stroke-dashoffset:0;stroke-opacity:1"
       id="path754" />
    <path
       d="M 344.122,571.705 C 328.104,566.481 230.817,535.801 230.817,535.801"
       style="fill:none;stroke:#231f20;stroke-width:0.5;stroke-linecap:round;stroke-linejoin:round;stroke-miterlimit:4;stroke-dasharray:2.8, 1.8;stroke-dashoffset:0;stroke-opacity:1"
       id="path756" />
    <path
       d="m 347.955,562.878 c -10.963,-7.651 -94.221,-60.256 -94.221,-60.256"
       style="fill:none;stroke:#231f20;stroke-width:0.5;stroke-linecap:round;stroke-linejoin:round;stroke-miterlimit:4;stroke-dasharray:2.8, 1.8;stroke-dashoffset:0;stroke-opacity:1"
       id="path758" />
    <path
       d="m 360.536,551.01 c -8.572,-8.319 -80.43,-77.442 -80.43,-77.442"
       style="fill:none;stroke:#231f20;stroke-width:0.5;stroke-linecap:round;stroke-linejoin:round;stroke-miterlimit:4;stroke-dasharray:2.8, 1.8;stroke-dashoffset:0;stroke-opacity:1"
       id="path760" />
    <path
       d="m 688.337,534.198 c 10.795,-11.839 35.173,-41.65 41.441,-50.007 6.267,-8.357 5.92,-14.276 5.224,-16.366"
       style="fill:none;stroke:#231f20;stroke-width:0.5;stroke-linecap:round;stroke-linejoin:round;stroke-miterlimit:4;stroke-dasharray:2.8, 1.8;stroke-dashoffset:0;stroke-opacity:1"
       id="path762" />
    <path
       d="m 596.373,536.105 c 1.713,2.348 23.982,5.079 39.735,-6.298 18.804,-13.58 21.796,-19.399 23.086,-18.056"
       style="fill:none;stroke:#231f20;stroke-width:0.5;stroke-linecap:round;stroke-linejoin:round;stroke-miterlimit:4;stroke-dasharray:2.8, 1.8;stroke-dashoffset:0;stroke-opacity:1"
       id="path764" />
    <path
       d="m 586.662,526.673 c -0.697,-5.571 -0.349,-27.857 5.571,-40.392 5.92,-12.536 9.75,-21.59 21.241,-29.599 11.491,-8.009 16.018,-11.491 20.893,-9.054 4.875,2.438 9.053,6.132 9.053,6.132"
       style="fill:none;stroke:#231f20;stroke-width:0.5;stroke-linecap:round;stroke-linejoin:round;stroke-miterlimit:4;stroke-dasharray:2.8, 1.8;stroke-dashoffset:0;stroke-opacity:1"
       id="path766" />
    <path
       d="m 662.116,507.776 c 3.591,-10.353 11.914,-33.675 2.262,-41.338"
       style="fill:none;stroke:#231f20;stroke-width:0.5;stroke-linecap:round;stroke-linejoin:round;stroke-miterlimit:4;stroke-dasharray:2.8, 1.8;stroke-dashoffset:0;stroke-opacity:1"
       id="path768" />
    <path
       d="m 663.776,502.932 c 13.422,-6.901 46.502,-23.964 53.467,-27.446 6.964,-3.483 14.276,-6.268 17.759,-7.661 3.481,-1.393 6.267,-2.785 8.008,-3.83 1.742,-1.045 4.179,0 5.223,3.133 1.045,3.134 6.269,5.572 10.447,3.83 4.178,-1.74 12.535,-4.526 12.535,-4.526"
       style="fill:none;stroke:#231f20;stroke-width:0.5;stroke-linecap:round;stroke-linejoin:round;stroke-miterlimit:4;stroke-dasharray:2.8, 1.8;stroke-dashoffset:0;stroke-opacity:1"
       id="path770" />
    <path
       d="m 540,621.388 c 10.447,-2.437 21.938,-5.92 28.554,-4.875 6.616,1.044 14.469,8.884 21.421,13.472"
       style="fill:none;stroke:#231f20;stroke-width:0.5;stroke-linecap:round;stroke-linejoin:round;stroke-miterlimit:4;stroke-dasharray:2.8, 1.8;stroke-dashoffset:0;stroke-opacity:1"
       id="path772" />
    <path
       d="m 540,565.673 c 9.403,-1.392 15.322,-3.482 21.938,-2.089 6.616,1.393 19.786,6.614 26.085,10.098"
       style="fill:none;stroke:#231f20;stroke-width:0.5;stroke-linecap:round;stroke-linejoin:round;stroke-miterlimit:4;stroke-dasharray:2.8, 1.8;stroke-dashoffset:0;stroke-opacity:1"
       id="path774" />
    <path
       d="m 540,540.95 c 10.795,-2.089 21.59,-3.83 26.117,-3.134 4.527,0.696 14.715,5.476 19.545,8.659"
       style="fill:none;stroke:#231f20;stroke-width:0.5;stroke-linecap:round;stroke-linejoin:round;stroke-miterlimit:4;stroke-dasharray:2.8, 1.8;stroke-dashoffset:0;stroke-opacity:1"
       id="path776" />
    <path
       d="m 540,498.476 c 10.099,-1.045 30.18,3.01 36.215,12.876 5.645,9.228 10.447,15.321 10.447,15.321"
       style="fill:none;stroke:#231f20;stroke-width:0.5;stroke-linecap:round;stroke-linejoin:round;stroke-miterlimit:4;stroke-dasharray:2.8, 1.8;stroke-dashoffset:0;stroke-opacity:1"
       id="path778" />
    <path
       d="m 546.645,539.717 c -0.725,-5.731 -1.366,-33.088 1.392,-41.173"
       style="fill:none;stroke:#231f20;stroke-width:0.5;stroke-linecap:round;stroke-linejoin:round;stroke-miterlimit:4;stroke-dasharray:2.8, 1.8;stroke-dashoffset:0;stroke-opacity:1"
       id="path780" />
    <path
       d="m 553.252,538.64 c -0.019,-7.44 -2.108,-16.145 -0.368,-23.458 1.742,-7.312 3.392,-10.898 1.869,-15.547"
       style="fill:none;stroke:#231f20;stroke-width:0.5;stroke-linecap:round;stroke-linejoin:round;stroke-miterlimit:4;stroke-dasharray:2.8, 1.8;stroke-dashoffset:0;stroke-opacity:1"
       id="path782" />
    <path
       d="m 577.54,513.368 c -2.37,-5.15 -11.423,-22.212 -8.986,-33.703 2.438,-11.492 7.187,-35.184 9.624,-44.934"
       style="fill:none;stroke:#231f20;stroke-width:0.5;stroke-linecap:round;stroke-linejoin:round;stroke-miterlimit:4;stroke-dasharray:2.8, 1.8;stroke-dashoffset:0;stroke-opacity:1"
       id="path784" />
    <path
       d="m 556.715,446.236 c 1.459,-1.823 0.697,-6.616 2.785,-9.75 2.09,-3.134 6.617,-8.706 8.009,-10.795 1.394,-2.089 3.483,-3.83 5.92,-2.089 2.438,1.74 1.045,3.482 -0.696,6.268 -1.741,2.785 -7.661,9.053 -8.705,10.795 -1.045,1.74 -3.134,3.133 -3.831,4.875 -0.697,1.74 0.697,5.571 -1.74,8.356 -2.438,2.786 -4.88,2.149 -6.617,1.045 -1.737,-1.105 -1.443,-3.368 -1.125,-4.829 0.604,-2.775 4.607,-2.135 6,-3.876 z"
       style="fill:none;stroke:#231f20;stroke-width:0.5;stroke-linecap:round;stroke-linejoin:round;stroke-miterlimit:4;stroke-dasharray:2.8, 1.8;stroke-dashoffset:0;stroke-opacity:1"
       id="path786" />
    <path
       d="m 556.321,455.537 c 5.617,-1.989 7.707,-6.167 11.886,-11.042 4.177,-4.875 8.356,-9.054 17.062,-14.974 8.705,-5.919 17.41,-9.054 26.464,-7.66 9.054,1.392 24.724,4.875 37.259,4.875 12.536,0 22.286,0 29.25,-3.134 6.965,-3.135 14.342,-7.101 17.824,-10.234"
       style="fill:none;stroke:#231f20;stroke-width:0.5;stroke-linecap:round;stroke-linejoin:round;stroke-miterlimit:4;stroke-dasharray:2.8, 1.8;stroke-dashoffset:0;stroke-opacity:1"
       id="path788" />
    <path
       d="m 700.947,408.498 c 3.482,-3.482 6.929,-7.974 8.652,-10.71"
       style="fill:none;stroke:#231f20;stroke-width:0.5;stroke-linecap:round;stroke-linejoin:round;stroke-miterlimit:4;stroke-dasharray:2.8, 1.8;stroke-dashoffset:0;stroke-opacity:1"
       id="path790" />
    <path
       d="m 654.215,418.727 c 8.351,-0.49 23.679,-2.09 23.679,-6.965 0,-4.875 -5.224,-3.83 -12.536,-1.392 -7.313,2.437 -12.884,2.088 -17.41,1.741 -4.528,-0.349 -16.715,-1.394 -16.715,3.481 0,4.875 19.489,3.341 22.982,3.135 z"
       style="fill:none;stroke:#231f20;stroke-width:0.5;stroke-linecap:round;stroke-linejoin:round;stroke-miterlimit:4;stroke-dasharray:2.8, 1.8;stroke-dashoffset:0;stroke-opacity:1"
       id="path792" />
    <path
       d="m 649.392,456.307 c 2.386,-7.982 3.778,-12.509 7.261,-16.687 3.482,-4.179 12.062,-13.146 15.95,-14.231"
       style="fill:none;stroke:#231f20;stroke-width:0.5;stroke-linecap:round;stroke-linejoin:round;stroke-miterlimit:4;stroke-dasharray:2.8, 1.8;stroke-dashoffset:0;stroke-opacity:1"
       id="path794" />
    <path
       d="m 667.449,490.035 c 12.883,-3.058 31.686,-8.282 34.471,-17.335 2.787,-9.054 2.438,-16.714 -6.267,-23.33 -8.705,-6.617 -16.309,-14.084 -20.516,-24.625"
       style="fill:none;stroke:#231f20;stroke-width:0.5;stroke-linecap:round;stroke-linejoin:round;stroke-miterlimit:4;stroke-dasharray:2.8, 1.8;stroke-dashoffset:0;stroke-opacity:1"
       id="path796" />
    <path
       d="m 665.902,467.958 c 6.421,-9.883 16.518,-22.767 29.751,-18.588"
       style="fill:none;stroke:#231f20;stroke-width:0.5;stroke-linecap:round;stroke-linejoin:round;stroke-miterlimit:4;stroke-dasharray:2.8, 1.8;stroke-dashoffset:0;stroke-opacity:1"
       id="path798" />
    <path
       d="m 574.704,425.316 c 2.904,0.026 6.038,-1.714 10.565,-5.545 4.526,-3.83 8.009,-8.356 9.401,-10.446 1.393,-2.089 2.09,-4.179 3.483,-6.617 1.392,-2.437 4.701,-5.222 6.616,-1.741 l 0.812,0.466 c 0,0 1.626,0.928 3.714,-0.466 2.09,-1.392 4.875,-0.696 8.358,0 3.482,0.698 8.705,-2.089 11.839,-1.74 3.134,0.348 4.178,1.044 8.531,3.481 4.353,2.438 9.925,7.488 20.197,4.876 10.272,-2.612 12.884,-4.876 22.112,-3.657 9.227,1.219 12.187,2.09 13.232,2.264 1.044,0.174 2.321,0.696 2.089,3.482 -0.358,4.28 1.567,5.745 3.83,9.924 2.264,4.179 5.05,9.576 8.531,14.974 3.483,5.396 9.054,13.057 12.536,14.799 3.483,1.741 8.183,2.263 15.844,1.741 7.661,-0.523 13.58,-2.613 16.889,-4.353 3.307,-1.741 6.385,-4.092 8.531,-5.397 2.67,-1.624 6.616,1.741 4.352,6.094 -2.263,4.352 -5.746,6.963 -9.053,9.923 -3.308,2.96 -10.29,7.334 -8.729,10.11 1.315,2.331 7.787,-3.542 10.296,-5.757 2.959,-2.611 8.802,-7.008 12.013,-10.446 3.309,-3.539 4.527,-4.527 2.612,-9.054 -1.916,-4.526 -4.179,-11.316 -10.272,-7.66 -6.094,3.656 -12.014,7.66 -18.804,9.75 -6.79,2.089 -14.799,2.785 -20.022,-1.916 -5.224,-4.7 -5.92,-6.79 -9.228,-12.535 -3.309,-5.746 -7.835,-11.492 -10.795,-13.929 -2.96,-2.438 -3.83,-5.92 -2.96,-8.88 0.871,-2.959 1.045,-5.223 -1.741,-5.745 -2.785,-0.523 -8.879,-0.349 -11.317,-1.393 -2.437,-1.045 -3.351,-3.797 -6.268,-4.527 -4.178,-1.044 -9.75,0.696 -13.58,2.438 -3.83,1.741 -11.839,6.093 -15.321,5.571 -3.483,-0.522 -8.009,-3.308 -10.969,-6.094 -2.96,-2.785 -4.701,-6.268 -8.705,-6.79 -4.005,-0.523 -4.179,-2.263 -9.75,0.522 -5.573,2.787 -9.054,1.568 -10.447,1.219 -1.393,-0.347 -4.004,1.393 -7.487,2.786 -3.482,1.393 -9.75,2.438 -11.142,4.7 -1.393,2.264 -3.309,5.398 -5.747,6.443 -2.437,1.045 -5.048,4.005 -6.441,6.267 -1.393,2.264 -3.309,3.483 -4.527,4.179 -1.219,0.697 -5.109,4.639 -4.818,6.674"
       style="fill:none;stroke:#231f20;stroke-width:0.5;stroke-linecap:round;stroke-linejoin:round;stroke-miterlimit:4;stroke-dasharray:2.8, 1.8;stroke-dashoffset:0;stroke-opacity:1"
       id="path800" />
    <path
       d="m 598.414,402.306 c -0.724,1.243 0.734,7.264 1.654,9.805 0.986,2.728 1.524,4.412 2.628,4.352 1.391,-0.073 1.877,-2.385 2.362,-4.875 0.837,-4.29 1.626,-6.964 -0.289,-10.621"
       style="fill:none;stroke:#231f20;stroke-width:0.5;stroke-linecap:round;stroke-linejoin:round;stroke-miterlimit:4;stroke-dasharray:2.8, 1.8;stroke-dashoffset:0;stroke-opacity:1"
       id="path802" />
    <path
       d="m 540,724.112 c -9.401,-3.83 -67.585,-22.807 -84.806,-26.899"
       style="fill:none;stroke:#231f20;stroke-width:0.5;stroke-linecap:round;stroke-linejoin:round;stroke-miterlimit:4;stroke-dasharray:2.8, 1.8;stroke-dashoffset:0;stroke-opacity:1"
       id="path804" />
    <path
       d="M 528.169,813.908 C 519.108,801.416 457.822,723.067 449.117,710.879"
       style="fill:none;stroke:#231f20;stroke-width:0.5;stroke-linecap:round;stroke-linejoin:round;stroke-miterlimit:4;stroke-dasharray:2.8, 1.8;stroke-dashoffset:0;stroke-opacity:1"
       id="path806" />
    <path
       d="m 438.665,842.635 c 0.005,-21.023 -2.126,-106.722 -1.071,-125.661"
       style="fill:none;stroke:#231f20;stroke-width:0.5;stroke-linecap:round;stroke-linejoin:round;stroke-miterlimit:4;stroke-dasharray:2.8, 1.8;stroke-dashoffset:0;stroke-opacity:1"
       id="path808" />
    <path
       d="m 302.17,794.102 c 7.313,-9.749 73.065,-95.684 82.149,-107.56"
       style="fill:none;stroke:#231f20;stroke-width:0.5;stroke-linecap:round;stroke-linejoin:round;stroke-miterlimit:4;stroke-dasharray:2.8, 1.8;stroke-dashoffset:0;stroke-opacity:1"
       id="path810" />
    <path
       d="m 247.03,741.265 c 14.051,-8.796 104.934,-73.564 115.033,-80.877"
       style="fill:none;stroke:#231f20;stroke-width:0.5;stroke-linecap:round;stroke-linejoin:round;stroke-miterlimit:4;stroke-dasharray:2.8, 1.8;stroke-dashoffset:0;stroke-opacity:1"
       id="path812" />
    <path
       d="m 233.735,720.937 c 10.283,-5.879 109.44,-63.074 123.933,-71.735"
       style="fill:none;stroke:#231f20;stroke-width:0.5;stroke-linecap:round;stroke-linejoin:round;stroke-miterlimit:4;stroke-dasharray:2.8, 1.8;stroke-dashoffset:0;stroke-opacity:1"
       id="path814" />
    <path
       d="m 361.07,574.427 c -1.767,2.297 -13.284,8.309 -16.07,5.523 -2.786,-2.785 -1.392,-12.884 5.92,-20.893 7.313,-8.009 22.455,-16.401 38.313,-23.662 16.009,-7.329 19.839,-19.517 22.973,-24.043 3.133,-4.527 5.92,-4.527 7.312,-2.09 1.394,2.438 4.179,8.706 4.179,8.706"
       style="fill:none;stroke:#231f20;stroke-width:0.5;stroke-linecap:round;stroke-linejoin:round;stroke-miterlimit:4;stroke-dasharray:2.8, 1.8;stroke-dashoffset:0;stroke-opacity:1"
       id="path816" />
    <path
       d="m 345.97,580.502 c -7.586,0.145 -118.653,-5.968 -130.499,-6.567"
       style="fill:none;stroke:#231f20;stroke-width:0.5;stroke-linecap:round;stroke-linejoin:round;stroke-miterlimit:4;stroke-dasharray:2.8, 1.8;stroke-dashoffset:0;stroke-opacity:1"
       id="path818" />
    <path
       d="M 391.664,534.198 C 380.87,522.359 356.492,492.548 350.223,484.191 343.956,475.834 344.304,469.915 345,467.825"
       style="fill:none;stroke:#231f20;stroke-width:0.5;stroke-linecap:round;stroke-linejoin:round;stroke-miterlimit:4;stroke-dasharray:2.8, 1.8;stroke-dashoffset:0;stroke-opacity:1"
       id="path820" />
    <path
       d="m 483.629,536.105 c -1.713,2.348 -23.983,5.079 -39.736,-6.298 -18.804,-13.58 -21.796,-19.399 -23.085,-18.056"
       style="fill:none;stroke:#231f20;stroke-width:0.5;stroke-linecap:round;stroke-linejoin:round;stroke-miterlimit:4;stroke-dasharray:2.8, 1.8;stroke-dashoffset:0;stroke-opacity:1"
       id="path822" />
    <path
       d="m 493.34,526.673 c 0.697,-5.571 0.348,-27.857 -5.572,-40.392 -5.919,-12.536 -9.75,-21.59 -21.24,-29.599 -11.491,-8.009 -16.019,-11.491 -20.894,-9.054 -4.875,2.438 -9.053,6.132 -9.053,6.132"
       style="fill:none;stroke:#231f20;stroke-width:0.5;stroke-linecap:round;stroke-linejoin:round;stroke-miterlimit:4;stroke-dasharray:2.8, 1.8;stroke-dashoffset:0;stroke-opacity:1"
       id="path824" />
    <path
       d="m 417.886,507.776 c -3.591,-10.353 -11.914,-33.675 -2.263,-41.338"
       style="fill:none;stroke:#231f20;stroke-width:0.5;stroke-linecap:round;stroke-linejoin:round;stroke-miterlimit:4;stroke-dasharray:2.8, 1.8;stroke-dashoffset:0;stroke-opacity:1"
       id="path826" />
    <path
       d="m 416.225,502.932 c -13.421,-6.901 -46.501,-23.964 -53.466,-27.446 -6.964,-3.483 -14.276,-6.268 -17.759,-7.661 -3.482,-1.393 -6.267,-2.785 -8.008,-3.83 -1.742,-1.045 -4.179,0 -5.224,3.133 -1.045,3.134 -6.268,5.572 -10.446,3.83 -4.179,-1.74 -12.536,-4.526 -12.536,-4.526"
       style="fill:none;stroke:#231f20;stroke-width:0.5;stroke-linecap:round;stroke-linejoin:round;stroke-miterlimit:4;stroke-dasharray:2.8, 1.8;stroke-dashoffset:0;stroke-opacity:1"
       id="path828" />
    <path
       d="m 540,621.388 c -10.446,-2.437 -21.937,-5.92 -28.553,-4.875 -6.615,1.044 -14.468,8.884 -21.42,13.472"
       style="fill:none;stroke:#231f20;stroke-width:0.5;stroke-linecap:round;stroke-linejoin:round;stroke-miterlimit:4;stroke-dasharray:2.8, 1.8;stroke-dashoffset:0;stroke-opacity:1"
       id="path830" />
    <path
       d="m 540,565.673 c -9.401,-1.392 -15.321,-3.482 -21.937,-2.089 -6.616,1.393 -19.785,6.614 -26.085,10.098"
       style="fill:none;stroke:#231f20;stroke-width:0.5;stroke-linecap:round;stroke-linejoin:round;stroke-miterlimit:4;stroke-dasharray:2.8, 1.8;stroke-dashoffset:0;stroke-opacity:1"
       id="path832" />
    <path
       d="m 540,540.95 c -10.793,-2.089 -21.588,-3.83 -26.116,-3.134 -4.526,0.696 -14.715,5.476 -19.545,8.659"
       style="fill:none;stroke:#231f20;stroke-width:0.5;stroke-linecap:round;stroke-linejoin:round;stroke-miterlimit:4;stroke-dasharray:2.8, 1.8;stroke-dashoffset:0;stroke-opacity:1"
       id="path834" />
    <path
       d="m 540,498.476 c -10.097,-1.045 -30.178,3.01 -36.213,12.876 -5.646,9.228 -10.447,15.321 -10.447,15.321"
       style="fill:none;stroke:#231f20;stroke-width:0.5;stroke-linecap:round;stroke-linejoin:round;stroke-miterlimit:4;stroke-dasharray:2.8, 1.8;stroke-dashoffset:0;stroke-opacity:1"
       id="path836" />
    <path
       d="m 533.356,539.717 c 0.726,-5.731 1.367,-33.088 -1.392,-41.173"
       style="fill:none;stroke:#231f20;stroke-width:0.5;stroke-linecap:round;stroke-linejoin:round;stroke-miterlimit:4;stroke-dasharray:2.8, 1.8;stroke-dashoffset:0;stroke-opacity:1"
       id="path838" />
    <path
       d="m 526.75,538.64 c 0.019,-7.44 2.108,-16.145 0.367,-23.458 -1.741,-7.312 -3.391,-10.898 -1.869,-15.547"
       style="fill:none;stroke:#231f20;stroke-width:0.5;stroke-linecap:round;stroke-linejoin:round;stroke-miterlimit:4;stroke-dasharray:2.8, 1.8;stroke-dashoffset:0;stroke-opacity:1"
       id="path840" />
    <path
       d="m 502.461,513.368 c 2.371,-5.15 11.423,-22.212 8.986,-33.703 -2.438,-11.492 -7.186,-35.184 -9.623,-44.934"
       style="fill:none;stroke:#231f20;stroke-width:0.5;stroke-linecap:round;stroke-linejoin:round;stroke-miterlimit:4;stroke-dasharray:2.8, 1.8;stroke-dashoffset:0;stroke-opacity:1"
       id="path842" />
    <path
       d="m 523.287,446.236 c -1.46,-1.823 -0.697,-6.616 -2.787,-9.75 -2.088,-3.134 -6.616,-8.706 -8.008,-10.795 -1.393,-2.089 -3.483,-3.83 -5.92,-2.089 -2.438,1.74 -1.044,3.482 0.697,6.268 1.74,2.785 7.66,9.053 8.705,10.795 1.045,1.74 3.134,3.133 3.83,4.875 0.696,1.74 -0.696,5.571 1.741,8.356 2.438,2.786 4.879,2.149 6.617,1.045 1.737,-1.105 1.443,-3.368 1.125,-4.829 -0.605,-2.775 -4.608,-2.135 -6,-3.876 z"
       style="fill:none;stroke:#231f20;stroke-width:0.5;stroke-linecap:round;stroke-linejoin:round;stroke-miterlimit:4;stroke-dasharray:2.8, 1.8;stroke-dashoffset:0;stroke-opacity:1"
       id="path844" />
    <path
       d="m 523.681,455.537 c -5.618,-1.989 -7.707,-6.167 -11.886,-11.042 -4.178,-4.875 -8.357,-9.054 -17.062,-14.974 -8.705,-5.919 -17.411,-9.054 -26.465,-7.66 -9.053,1.392 -24.723,4.875 -37.259,4.875 -12.535,0 -22.285,0 -29.25,-3.134 -6.964,-3.135 -14.341,-7.101 -17.824,-10.234"
       style="fill:none;stroke:#231f20;stroke-width:0.5;stroke-linecap:round;stroke-linejoin:round;stroke-miterlimit:4;stroke-dasharray:2.8, 1.8;stroke-dashoffset:0;stroke-opacity:1"
       id="path846" />
    <path
       d="m 379.055,408.498 c -3.482,-3.482 -6.929,-7.974 -8.652,-10.71"
       style="fill:none;stroke:#231f20;stroke-width:0.5;stroke-linecap:round;stroke-linejoin:round;stroke-miterlimit:4;stroke-dasharray:2.8, 1.8;stroke-dashoffset:0;stroke-opacity:1"
       id="path848" />
    <path
       d="m 425.787,418.727 c -8.351,-0.49 -23.679,-2.09 -23.679,-6.965 0,-4.875 5.223,-3.83 12.535,-1.392 7.313,2.437 12.884,2.088 17.411,1.741 4.527,-0.349 16.714,-1.394 16.714,3.481 0,4.875 -19.489,3.341 -22.981,3.135 z"
       style="fill:none;stroke:#231f20;stroke-width:0.5;stroke-linecap:round;stroke-linejoin:round;stroke-miterlimit:4;stroke-dasharray:2.8, 1.8;stroke-dashoffset:0;stroke-opacity:1"
       id="path850" />
    <path
       d="m 430.61,456.307 c -2.386,-7.982 -3.779,-12.509 -7.261,-16.687 -3.482,-4.179 -12.062,-13.146 -15.95,-14.231"
       style="fill:none;stroke:#231f20;stroke-width:0.5;stroke-linecap:round;stroke-linejoin:round;stroke-miterlimit:4;stroke-dasharray:2.8, 1.8;stroke-dashoffset:0;stroke-opacity:1"
       id="path852" />
    <path
       d="m 412.552,490.035 c -12.882,-3.058 -31.685,-8.282 -34.471,-17.335 -2.786,-9.054 -2.438,-16.714 6.268,-23.33 8.705,-6.617 16.309,-14.084 20.516,-24.625"
       style="fill:none;stroke:#231f20;stroke-width:0.5;stroke-linecap:round;stroke-linejoin:round;stroke-miterlimit:4;stroke-dasharray:2.8, 1.8;stroke-dashoffset:0;stroke-opacity:1"
       id="path854" />
    <path
       d="m 414.099,467.958 c -6.42,-9.883 -16.518,-22.767 -29.75,-18.588"
       style="fill:none;stroke:#231f20;stroke-width:0.5;stroke-linecap:round;stroke-linejoin:round;stroke-miterlimit:4;stroke-dasharray:2.8, 1.8;stroke-dashoffset:0;stroke-opacity:1"
       id="path856" />
    <path
       d="m 505.297,425.316 c -2.904,0.026 -6.038,-1.714 -10.564,-5.545 -4.527,-3.83 -8.009,-8.356 -9.402,-10.446 -1.393,-2.089 -2.089,-4.179 -3.482,-6.617 -1.393,-2.437 -4.701,-5.222 -6.616,-1.741 l -0.813,0.466 c 0,0 -1.625,0.928 -3.714,-0.466 -2.089,-1.392 -4.875,-0.696 -8.357,0 -3.482,0.698 -8.706,-2.089 -11.84,-1.74 -3.133,0.348 -4.178,1.044 -8.531,3.481 -4.352,2.438 -9.924,7.488 -20.196,4.876 -10.273,-2.612 -12.884,-4.876 -22.112,-3.657 -9.227,1.219 -12.187,2.09 -13.232,2.264 -1.045,0.174 -2.322,0.696 -2.089,3.482 0.358,4.28 -1.567,5.745 -3.831,9.924 -2.263,4.179 -5.049,9.576 -8.531,14.974 -3.482,5.396 -9.054,13.057 -12.535,14.799 -3.483,1.741 -8.184,2.263 -15.844,1.741 -7.661,-0.523 -13.581,-2.613 -16.889,-4.353 -3.308,-1.741 -6.386,-4.092 -8.531,-5.397 -2.67,-1.624 -6.616,1.741 -4.353,6.094 2.263,4.352 5.746,6.963 9.054,9.923 3.308,2.96 10.29,7.334 8.729,10.11 -1.315,2.331 -7.788,-3.542 -10.296,-5.757 -2.96,-2.611 -8.802,-7.008 -12.014,-10.446 -3.308,-3.539 -4.526,-4.527 -2.611,-9.054 1.915,-4.526 4.179,-11.316 10.272,-7.66 6.094,3.656 12.014,7.66 18.804,9.75 6.79,2.089 14.799,2.785 20.022,-1.916 5.223,-4.7 5.919,-6.79 9.228,-12.535 3.308,-5.746 7.835,-11.492 10.795,-13.929 2.959,-2.438 3.83,-5.92 2.959,-8.88 -0.87,-2.959 -1.044,-5.223 1.741,-5.745 2.786,-0.523 8.88,-0.349 11.317,-1.393 2.438,-1.045 3.352,-3.797 6.268,-4.527 4.179,-1.044 9.75,0.696 13.58,2.438 3.831,1.741 11.84,6.093 15.322,5.571 3.482,-0.522 8.009,-3.308 10.969,-6.094 2.96,-2.785 4.7,-6.268 8.705,-6.79 4.005,-0.523 4.179,-2.263 9.75,0.522 5.571,2.787 9.054,1.568 10.447,1.219 1.392,-0.347 4.004,1.393 7.486,2.786 3.482,1.393 9.75,2.438 11.143,4.7 1.393,2.264 3.308,5.398 5.745,6.443 2.438,1.045 5.049,4.005 6.443,6.267 1.392,2.264 3.307,3.483 4.526,4.179 1.219,0.697 5.11,4.639 4.819,6.674"
       style="fill:none;stroke:#231f20;stroke-width:0.5;stroke-linecap:round;stroke-linejoin:round;stroke-miterlimit:4;stroke-dasharray:2.8, 1.8;stroke-dashoffset:0;stroke-opacity:1"
       id="path858" />
    <path
       d="m 481.587,402.306 c 0.724,1.243 -0.734,7.264 -1.653,9.805 -0.986,2.728 -1.525,4.412 -2.628,4.352 -1.391,-0.073 -1.878,-2.385 -2.363,-4.875 -0.836,-4.29 -1.625,-6.964 0.29,-10.621"
       style="fill:none;stroke:#231f20;stroke-width:0.5;stroke-linecap:round;stroke-linejoin:round;stroke-miterlimit:4;stroke-dasharray:2.8, 1.8;stroke-dashoffset:0;stroke-opacity:1"
       id="path860" />
  </g>
</svg>
