<?xml version="1.0" encoding="UTF-8" standalone="no"?>
<!-- Created with Inkscape (http://www.inkscape.org/) -->

<svg
   version="1.1"
   id="svg2"
   width="1440"
   height="1344"
   viewBox="0 0 1440 1344"
   xmlns="http://www.w3.org/2000/svg"
   xmlns:svg="http://www.w3.org/2000/svg">
  <defs
     id="defs6" />
  <g
     id="g10">
    <path
       d="m 853.332,721.846 c 5.616,-10.332 9.665,-22.215 11.901,-36.613 7.429,-47.821 0.929,-89.608 -25.071,-135.107 -26.001,-45.502 -35.751,-60.822 -58.036,-61.286 0,0 20.428,-4.643 14.857,-19.5 -5.571,-14.857 -7.894,-16.716 -12.536,-20.894 -4.642,-4.179 -13.929,-10.678 -15.321,-12.07 -1.393,-1.393 -5.573,-5.11 -12.072,-8.823 -6.5,-3.714 -36.678,-19.035 -40.857,-21.356 -4.179,-2.323 -9.284,-6.035 -11.607,-8.358 -2.322,-2.322 -13.928,-7.429 -26.464,-5.107 -12.536,2.321 -20.43,1.857 -26.929,0.929 -6.499,-0.929 -25.457,3.334 -33.893,6.267 -8.009,2.786 -20.893,13.929 -25.071,17.411 -4.179,3.483 -14.974,11.492 -18.804,14.974 -3.831,3.481 -6.965,8.009 -11.491,18.106 -3.958,8.829 -10.446,18.108 -14.277,29.599 -3.83,11.491 -7.661,45.616 -7.661,56.063 0,10.446 0,233.652 0,240.964 0,7.313 -0.232,7.485 11.374,24.431 7.718,11.267 25.581,23.208 45.5,28.786 26.002,5.45 49.494,9.049 106.646,-4.105 59.338,-13.658 126.767,-59.397 149.812,-104.311"
       style="fill:#ffffff;fill-opacity:1;fill-rule:nonzero;stroke:none;stroke-width:0.1"
       id="path670" />
    <path
       d="m 853.332,721.846 c 5.616,-10.332 9.665,-22.215 11.901,-36.613 7.429,-47.821 0.929,-89.608 -25.071,-135.107 -26.001,-45.502 -35.751,-60.822 -58.036,-61.286 0,0 20.428,-4.643 14.857,-19.5 -5.571,-14.857 -7.894,-16.716 -12.536,-20.894 -4.642,-4.179 -13.929,-10.678 -15.321,-12.07 -1.393,-1.393 -5.573,-5.11 -12.072,-8.823 -6.5,-3.714 -36.678,-19.035 -40.857,-21.356 -4.179,-2.323 -9.284,-6.035 -11.607,-8.358 -2.322,-2.322 -13.928,-7.429 -26.464,-5.107 -12.536,2.321 -20.43,1.857 -26.929,0.929 -6.499,-0.929 -25.457,3.334 -33.893,6.267 -8.009,2.786 -20.893,13.929 -25.071,17.411 -4.179,3.483 -14.974,11.492 -18.804,14.974 -3.831,3.481 -6.965,8.009 -11.491,18.106 -3.958,8.829 -10.446,18.108 -14.277,29.599 -3.83,11.491 -7.661,45.616 -7.661,56.063 0,10.446 0,233.652 0,240.964 0,7.313 -0.232,7.485 11.374,24.431 7.718,11.267 25.581,23.208 45.5,28.786 26.002,5.45 49.494,9.049 106.646,-4.105 59.338,-13.658 126.767,-59.397 149.812,-104.311 z"
       style="fill:none;stroke:#231f20;stroke-width:0.75;stroke-linecap:round;stroke-linejoin:round;stroke-miterlimit:4;stroke-dasharray:none;stroke-opacity:1"
       id="path672" />
    <path
       d="m 226.668,721.846 c -5.615,-10.332 -9.665,-22.215 -11.901,-36.613 -7.428,-47.821 -0.929,-89.608 25.072,-135.107 26,-45.502 35.75,-60.822 58.037,-61.286 0,0 -20.43,-4.643 -14.859,-19.5 5.572,-14.857 7.894,-16.716 12.536,-20.894 4.643,-4.179 13.929,-10.678 15.322,-12.07 1.393,-1.393 5.573,-5.11 12.072,-8.823 6.499,-3.714 36.678,-19.035 40.856,-21.356 4.179,-2.323 9.285,-6.035 11.607,-8.358 2.322,-2.322 13.928,-7.429 26.465,-5.107 12.536,2.321 20.43,1.857 26.929,0.929 6.499,-0.929 25.456,3.334 33.893,6.267 8.009,2.786 20.892,13.929 25.071,17.411 4.179,3.483 14.973,11.492 18.804,14.974 3.83,3.481 6.964,8.009 11.491,18.106 3.958,8.829 10.446,18.108 14.276,29.599 3.83,11.491 7.661,45.616 7.661,56.063 0,10.446 0,233.652 0,240.964 0,7.313 0.233,7.485 -11.374,24.431 -7.717,11.267 -25.581,23.208 -45.5,28.786 -26,5.45 -49.494,9.049 -106.645,-4.105 C 317.143,812.499 249.714,766.76 226.668,721.846"
       style="fill:#ffffff;fill-opacity:1;fill-rule:nonzero;stroke:none;stroke-width:0.1"
       id="path674" />
    <path
       d="m 226.668,721.846 c -5.615,-10.332 -9.665,-22.215 -11.901,-36.613 -7.428,-47.821 -0.929,-89.608 25.072,-135.107 26,-45.502 35.75,-60.822 58.037,-61.286 0,0 -20.43,-4.643 -14.859,-19.5 5.572,-14.857 7.894,-16.716 12.536,-20.894 4.643,-4.179 13.929,-10.678 15.322,-12.07 1.393,-1.393 5.573,-5.11 12.072,-8.823 6.499,-3.714 36.678,-19.035 40.856,-21.356 4.179,-2.323 9.285,-6.035 11.607,-8.358 2.322,-2.322 13.928,-7.429 26.465,-5.107 12.536,2.321 20.43,1.857 26.929,0.929 6.499,-0.929 25.456,3.334 33.893,6.267 8.009,2.786 20.892,13.929 25.071,17.411 4.179,3.483 14.973,11.492 18.804,14.974 3.83,3.481 6.964,8.009 11.491,18.106 3.958,8.829 10.446,18.108 14.276,29.599 3.83,11.491 7.661,45.616 7.661,56.063 0,10.446 0,233.652 0,240.964 0,7.313 0.233,7.485 -11.374,24.431 -7.717,11.267 -25.581,23.208 -45.5,28.786 -26,5.45 -49.494,9.049 -106.645,-4.105 C 317.143,812.499 249.714,766.76 226.668,721.846 Z"
       style="fill:none;stroke:#231f20;stroke-width:0.75;stroke-linecap:round;stroke-linejoin:round;stroke-miterlimit:4;stroke-dasharray:none;stroke-opacity:1"
       id="path676" />
    <path
       d="m 434.143,718.893 c 0,0 5.571,-2.437 13.233,-14.625 6.634,-10.556 28.901,-66.16 31.687,-76.955 2.785,-10.795 2.089,-24.724 2.785,-30.643 0.696,-5.92 5.571,-65.116 12.188,-83.572 0,0 -9.75,67.206 -9.75,83.572 0,16.367 0.348,23.33 -2.786,33.777 -3.134,10.446 -22.286,63.027 -24.723,69.295 -2.438,6.267 -9.054,21.589 -22.634,19.151 z"
       style="fill:none;stroke:#231f20;stroke-width:0.5;stroke-linecap:butt;stroke-linejoin:miter;stroke-miterlimit:4;stroke-dasharray:none;stroke-opacity:1"
       id="path678" />
    <path
       d="m 434.143,718.893 c -9.402,-2.089 -19.5,-6.268 -32.384,-14.276 -12.884,-8.009 -22.982,-19.5 -30.991,-35.867 -8.01,-16.366 -7.661,-40.741 -5.572,-48.75 2.09,-8.008 10.098,-19.151 18.804,-22.286 8.706,-3.133 27.857,-7.66 38.303,-12.535 10.447,-4.875 18.108,-8.357 19.849,-22.634 1.741,-14.277 0,-27.509 -1.741,-32.036"
       style="fill:none;stroke:#231f20;stroke-width:0.5;stroke-linecap:butt;stroke-linejoin:miter;stroke-miterlimit:4;stroke-dasharray:none;stroke-opacity:1"
       id="path680" />
    <path
       d="m 297.876,488.84 c 4.293,-0.117 16.713,0 23.097,0.232"
       style="fill:none;stroke:#231f20;stroke-width:0.5;stroke-linecap:butt;stroke-linejoin:miter;stroke-miterlimit:4;stroke-dasharray:none;stroke-opacity:1"
       id="path682" />
    <path
       d="m 375.41,397.839 c -5.687,6.964 -19.964,17.759 -26.579,25.42 -6.617,7.66 -12.537,16.714 -19.849,16.714 -7.313,0 -13.232,-1.275 -18.107,-3.597"
       style="fill:none;stroke:#231f20;stroke-width:0.5;stroke-linecap:butt;stroke-linejoin:miter;stroke-miterlimit:4;stroke-dasharray:none;stroke-opacity:1"
       id="path684" />
    <path
       d="m 482.197,529.464 c 0,0 -4.179,12.536 -17.411,14.974 0,0 6.616,15.321 6.964,20.196 0.348,4.875 3.134,1.393 5.572,-4.526 2.437,-5.92 7.312,-25.42 4.875,-30.644"
       style="fill:#b2b1b1;fill-opacity:1;fill-rule:nonzero;stroke:none;stroke-width:0.1"
       id="path686" />
    <path
       d="m 482.197,529.464 c 0,0 -4.179,12.536 -17.411,14.974 0,0 6.616,15.321 6.964,20.196 0.348,4.875 3.134,1.393 5.572,-4.526 2.437,-5.92 7.312,-25.42 4.875,-30.644 z"
       style="fill:none;stroke:#231f20;stroke-width:0.5;stroke-linecap:round;stroke-linejoin:round;stroke-miterlimit:4;stroke-dasharray:none;stroke-opacity:1"
       id="path688" />
    <path
       d="m 435.536,487.331 c -4.663,3.664 -9.054,1.741 -15.67,-0.349 -6.616,-2.089 -8.009,-2.785 -11.143,-3.83 -3.134,-1.045 -5.92,-3.483 -0.696,-5.92 5.223,-2.438 17.759,-9.401 19.848,-12.884 2.089,-3.481 9.402,-5.92 11.143,-0.696 2.532,7.598 1.393,19.848 -3.482,23.679 z"
       style="fill:none;stroke:#231f20;stroke-width:0.5;stroke-linecap:butt;stroke-linejoin:miter;stroke-miterlimit:4;stroke-dasharray:none;stroke-opacity:1"
       id="path690" />
    <path
       d="m 544.527,471.313 c 0,-2.5 -2.027,-4.527 -4.527,-4.527 -2.5,0 -4.527,2.027 -4.527,4.527 0,2.5 2.027,4.526 4.527,4.526 2.5,0 4.527,-2.026 4.527,-4.526"
       style="fill:#ffffff;fill-opacity:1;fill-rule:nonzero;stroke:none;stroke-width:0.1"
       id="path692" />
    <path
       d="m 544.527,471.313 c 0,-2.5 -2.027,-4.527 -4.527,-4.527 -2.5,0 -4.527,2.027 -4.527,4.527 0,2.5 2.027,4.526 4.527,4.526 2.5,0 4.527,-2.026 4.527,-4.526 z"
       style="fill:none;stroke:#231f20;stroke-width:0.5;stroke-linecap:butt;stroke-linejoin:miter;stroke-miterlimit:4;stroke-dasharray:none;stroke-opacity:1"
       id="path694" />
    <path
       d="m 645.858,718.893 c 0,0 -5.572,-2.437 -13.232,-14.625 -6.635,-10.556 -28.903,-66.16 -31.688,-76.955 -2.786,-10.795 -2.09,-24.724 -2.786,-30.643 -0.696,-5.92 -5.571,-65.116 -12.188,-83.572 0,0 9.75,67.206 9.75,83.572 0,16.367 -0.347,23.33 2.786,33.777 3.134,10.446 22.286,63.027 24.723,69.295 2.438,6.267 9.054,21.589 22.635,19.151 z"
       style="fill:none;stroke:#231f20;stroke-width:0.5;stroke-linecap:butt;stroke-linejoin:miter;stroke-miterlimit:4;stroke-dasharray:none;stroke-opacity:1"
       id="path696" />
    <path
       d="m 645.858,718.893 c 9.401,-2.089 19.5,-6.268 32.384,-14.276 12.884,-8.009 22.982,-19.5 30.991,-35.867 8.009,-16.366 7.66,-40.741 5.571,-48.75 -2.09,-8.008 -10.098,-19.151 -18.804,-22.286 -8.705,-3.133 -27.857,-7.66 -38.303,-12.535 -10.447,-4.875 -18.108,-8.357 -19.849,-22.634 -1.74,-14.277 0,-27.509 1.741,-32.036"
       style="fill:none;stroke:#231f20;stroke-width:0.5;stroke-linecap:butt;stroke-linejoin:miter;stroke-miterlimit:4;stroke-dasharray:none;stroke-opacity:1"
       id="path698" />
    <path
       d="m 782.126,488.84 c -4.295,-0.117 -16.715,0 -23.098,0.232"
       style="fill:none;stroke:#231f20;stroke-width:0.5;stroke-linecap:butt;stroke-linejoin:miter;stroke-miterlimit:4;stroke-dasharray:none;stroke-opacity:1"
       id="path700" />
    <path
       d="m 542.438,589.009 c 0,-3.077 -1.248,-5.571 -2.786,-5.571 -1.538,0 -2.785,2.494 -2.785,5.571 0,3.077 1.247,5.572 2.785,5.572 1.538,0 2.786,-2.495 2.786,-5.572"
       style="fill:#ffffff;fill-opacity:1;fill-rule:nonzero;stroke:none;stroke-width:0.1"
       id="path702" />
    <path
       d="m 542.438,589.009 c 0,-3.077 -1.248,-5.571 -2.786,-5.571 -1.538,0 -2.785,2.494 -2.785,5.571 0,3.077 1.247,5.572 2.785,5.572 1.538,0 2.786,-2.495 2.786,-5.572 z"
       style="fill:none;stroke:#231f20;stroke-width:0.5;stroke-linecap:butt;stroke-linejoin:miter;stroke-miterlimit:4;stroke-dasharray:none;stroke-opacity:1"
       id="path704" />
    <path
       d="m 704.59,397.839 c 5.687,6.964 19.964,17.759 26.58,25.42 6.617,7.66 12.536,16.714 19.848,16.714 7.313,0 13.232,-1.275 18.108,-3.597"
       style="fill:none;stroke:#231f20;stroke-width:0.5;stroke-linecap:butt;stroke-linejoin:miter;stroke-miterlimit:4;stroke-dasharray:none;stroke-opacity:1"
       id="path706" />
    <path
       d="m 597.804,529.464 c 0,0 4.179,12.536 17.41,14.974 0,0 -6.616,15.321 -6.964,20.196 -0.348,4.875 -3.133,1.393 -5.571,-4.526 -2.437,-5.92 -7.312,-25.42 -4.875,-30.644"
       style="fill:#b2b1b1;fill-opacity:1;fill-rule:nonzero;stroke:none;stroke-width:0.1"
       id="path708" />
    <path
       d="m 597.804,529.464 c 0,0 4.179,12.536 17.41,14.974 0,0 -6.616,15.321 -6.964,20.196 -0.348,4.875 -3.133,1.393 -5.571,-4.526 -2.437,-5.92 -7.312,-25.42 -4.875,-30.644 z"
       style="fill:none;stroke:#231f20;stroke-width:0.5;stroke-linecap:round;stroke-linejoin:round;stroke-miterlimit:4;stroke-dasharray:none;stroke-opacity:1"
       id="path710" />
    <path
       d="m 644.464,487.331 c 4.663,3.664 9.054,1.741 15.67,-0.349 6.616,-2.089 8.009,-2.785 11.143,-3.83 3.135,-1.045 5.92,-3.483 0.697,-5.92 -5.224,-2.438 -17.76,-9.401 -19.848,-12.884 -2.089,-3.481 -9.403,-5.92 -11.143,-0.696 -2.533,7.598 -1.394,19.848 3.481,23.679 z"
       style="fill:none;stroke:#231f20;stroke-width:0.5;stroke-linecap:butt;stroke-linejoin:miter;stroke-miterlimit:4;stroke-dasharray:none;stroke-opacity:1"
       id="path712" />
    <path
       d="m 524.401,455.857 c 0.394,-0.818 0.097,-1.765 -0.628,-2.14 -0.706,-0.366 -1.605,-0.082 -2.045,0.661 -0.459,0.775 -0.26,1.788 0.488,2.228 0.774,0.46 1.769,0.108 2.185,-0.749"
       style="fill:#ffffff;fill-opacity:1;fill-rule:nonzero;stroke:none;stroke-width:0.1"
       id="path714" />
    <path
       d="m 524.401,455.857 c 0.394,-0.818 0.097,-1.765 -0.628,-2.14 -0.706,-0.366 -1.605,-0.082 -2.045,0.661 -0.459,0.775 -0.26,1.788 0.488,2.228 0.774,0.46 1.769,0.108 2.185,-0.749 z"
       style="fill:none;stroke:#231f20;stroke-width:0.5;stroke-linecap:round;stroke-linejoin:round;stroke-miterlimit:4;stroke-dasharray:none;stroke-opacity:1"
       id="path716" />
    <path
       d="m 555.599,455.857 c -0.394,-0.818 -0.097,-1.765 0.629,-2.14 0.705,-0.366 1.604,-0.082 2.044,0.661 0.46,0.775 0.26,1.788 -0.488,2.228 -0.773,0.46 -1.769,0.108 -2.185,-0.749"
       style="fill:#ffffff;fill-opacity:1;fill-rule:nonzero;stroke:none;stroke-width:0.1"
       id="path718" />
    <path
       d="m 555.599,455.857 c -0.394,-0.818 -0.097,-1.765 0.629,-2.14 0.705,-0.366 1.604,-0.082 2.044,0.661 0.46,0.775 0.26,1.788 -0.488,2.228 -0.773,0.46 -1.769,0.108 -2.185,-0.749 z"
       style="fill:none;stroke:#231f20;stroke-width:0.5;stroke-linecap:round;stroke-linejoin:round;stroke-miterlimit:4;stroke-dasharray:none;stroke-opacity:1"
       id="path720" />
    <path
       d="m 374.915,603.894 c -6.616,0 -14.594,-8.617 -13.549,-16.626 1.045,-8.009 7.661,-12.884 13.928,-12.884 6.268,0 32.384,0.697 41.787,-6.616 9.401,-7.312 11.491,-15.321 12.187,-22.634 0.696,-7.312 6.094,-8.474 13.145,-4.237"
       style="fill:none;stroke:#231f20;stroke-width:0.5;stroke-linecap:round;stroke-linejoin:round;stroke-miterlimit:4;stroke-dasharray:2.8, 1.8;stroke-dashoffset:0;stroke-opacity:1"
       id="path722" />
    <path
       d="m 422.303,645.42 c -8.705,0 -16.366,-3.482 -16.366,-13.581 0,-10.097 7.313,-11.142 13.929,-11.142 6.616,0 14.973,2.786 14.973,10.795 0,8.008 -6.749,13.928 -12.536,13.928 z"
       style="fill:none;stroke:#231f20;stroke-width:0.5;stroke-linecap:round;stroke-linejoin:round;stroke-miterlimit:4;stroke-dasharray:2.8, 1.8;stroke-dashoffset:0;stroke-opacity:1"
       id="path724" />
    <path
       d="m 540,721.679 c 0,0 -65.812,-14.625 -83.223,-21.937"
       style="fill:none;stroke:#231f20;stroke-width:0.5;stroke-linecap:round;stroke-linejoin:round;stroke-miterlimit:4;stroke-dasharray:2.8, 1.8;stroke-dashoffset:0;stroke-opacity:1"
       id="path726" />
    <path
       d="M 374.915,603.894 226.982,575.99"
       style="fill:none;stroke:#231f20;stroke-width:0.5;stroke-linecap:round;stroke-linejoin:round;stroke-miterlimit:4;stroke-dasharray:2.8, 1.8;stroke-dashoffset:0;stroke-opacity:1"
       id="path728" />
    <path
       d="M 361.514,589.325 243.029,544.556"
       style="fill:none;stroke:#231f20;stroke-width:0.5;stroke-linecap:round;stroke-linejoin:round;stroke-miterlimit:4;stroke-dasharray:2.8, 1.8;stroke-dashoffset:0;stroke-opacity:1"
       id="path730" />
    <path
       d="M 363.885,580.606 261.297,514.403"
       style="fill:none;stroke:#231f20;stroke-width:0.5;stroke-linecap:round;stroke-linejoin:round;stroke-miterlimit:4;stroke-dasharray:2.8, 1.8;stroke-dashoffset:0;stroke-opacity:1"
       id="path732" />
    <path
       d="M 370.621,575.271 C 358.232,560.804 304.468,499.296 292.35,489.308"
       style="fill:none;stroke:#231f20;stroke-width:0.5;stroke-linecap:round;stroke-linejoin:round;stroke-miterlimit:4;stroke-dasharray:2.8, 1.8;stroke-dashoffset:0;stroke-opacity:1"
       id="path734" />
    <path
       d="m 415.192,569.011 c 0,0 -38.505,-51.386 -47.558,-59.394 -9.053,-8.01 -20.197,-20.545 -46.661,-20.545"
       style="fill:none;stroke:#231f20;stroke-width:0.5;stroke-linecap:round;stroke-linejoin:round;stroke-miterlimit:4;stroke-dasharray:2.8, 1.8;stroke-dashoffset:0;stroke-opacity:1"
       id="path736" />
    <path
       d="m 540,599.843 c -9.75,-2.785 -32.445,-2.44 -55.643,4.862"
       style="fill:none;stroke:#231f20;stroke-width:0.5;stroke-linecap:round;stroke-linejoin:round;stroke-miterlimit:4;stroke-dasharray:2.8, 1.8;stroke-dashoffset:0;stroke-opacity:1"
       id="path738" />
    <path
       d="m 540,556.625 c -10.446,-0.696 -35.945,2.306 -53.142,10.73"
       style="fill:none;stroke:#231f20;stroke-width:0.5;stroke-linecap:round;stroke-linejoin:round;stroke-miterlimit:4;stroke-dasharray:2.8, 1.8;stroke-dashoffset:0;stroke-opacity:1"
       id="path740" />
    <path
       d="m 539.304,524.242 c -12.187,2.437 -34.941,6.298 -48.984,15.684"
       style="fill:none;stroke:#231f20;stroke-width:0.5;stroke-linecap:round;stroke-linejoin:round;stroke-miterlimit:4;stroke-dasharray:2.8, 1.8;stroke-dashoffset:0;stroke-opacity:1"
       id="path742" />
    <path
       d="m 534.374,488.11 c -11.088,2.007 -27.802,6.184 -40.338,24.988"
       style="fill:none;stroke:#231f20;stroke-width:0.5;stroke-linecap:round;stroke-linejoin:round;stroke-miterlimit:4;stroke-dasharray:2.8, 1.8;stroke-dashoffset:0;stroke-opacity:1"
       id="path744" />
    <path
       d="m 527.938,526.576 c 0.223,-7.558 -0.907,-28.702 -5.392,-35.54"
       style="fill:none;stroke:#231f20;stroke-width:0.5;stroke-linecap:round;stroke-linejoin:round;stroke-miterlimit:4;stroke-dasharray:2.8, 1.8;stroke-dashoffset:0;stroke-opacity:1"
       id="path746" />
    <path
       d="m 519.804,528.417 c 1.044,-9.748 -1.457,-27.286 -4.908,-34.186"
       style="fill:none;stroke:#231f20;stroke-width:0.5;stroke-linecap:round;stroke-linejoin:round;stroke-miterlimit:4;stroke-dasharray:2.8, 1.8;stroke-dashoffset:0;stroke-opacity:1"
       id="path748" />
    <path
       d="m 464.786,544.438 c -8.009,-1.393 -17.41,-4.875 -24.375,-13.929 -5.011,-6.513 -15.322,-21.241 -17.411,-25.767 -2.089,-4.528 -3.831,-12.885 -3.134,-17.76"
       style="fill:none;stroke:#231f20;stroke-width:0.5;stroke-linecap:round;stroke-linejoin:round;stroke-miterlimit:4;stroke-dasharray:2.8, 1.8;stroke-dashoffset:0;stroke-opacity:1"
       id="path750" />
    <path
       d="m 482.197,529.464 c 2.437,-9.75 -10.447,-59.892 -43.179,-65.812"
       style="fill:none;stroke:#231f20;stroke-width:0.5;stroke-linecap:round;stroke-linejoin:round;stroke-miterlimit:4;stroke-dasharray:2.8, 1.8;stroke-dashoffset:0;stroke-opacity:1"
       id="path752" />
    <path
       d="m 482.197,529.464 c 7.66,-5.222 18.803,-27.508 14.625,-47.357 -4.179,-19.848 -14.974,-34.821 -30.295,-37.259 -15.321,-2.437 -25.42,-2.089 -34.821,4.528"
       style="fill:none;stroke:#231f20;stroke-width:0.5;stroke-linecap:round;stroke-linejoin:round;stroke-miterlimit:4;stroke-dasharray:2.8, 1.8;stroke-dashoffset:0;stroke-opacity:1"
       id="path754" />
    <path
       d="m 394.238,498.542 c -9.194,-8.425 -14.069,-14.694 -10.935,-21.31 3.134,-6.615 23.679,-32.732 33.081,-37.955"
       style="fill:none;stroke:#231f20;stroke-width:0.5;stroke-linecap:round;stroke-linejoin:round;stroke-miterlimit:4;stroke-dasharray:2.8, 1.8;stroke-dashoffset:0;stroke-opacity:1"
       id="path756" />
    <path
       d="m 427.875,464.348 c 0.5,-7.171 2.786,-12.884 3.831,-14.972 1.044,-2.09 3.83,-10.448 -1.394,-9.75"
       style="fill:none;stroke:#231f20;stroke-width:0.5;stroke-linecap:round;stroke-linejoin:round;stroke-miterlimit:4;stroke-dasharray:2.8, 1.8;stroke-dashoffset:0;stroke-opacity:1"
       id="path758" />
    <path
       d="m 405.388,480.983 c -5.37,-1.661 -11.638,-4.099 -22.085,-3.751"
       style="fill:none;stroke:#231f20;stroke-width:0.5;stroke-linecap:round;stroke-linejoin:round;stroke-miterlimit:4;stroke-dasharray:2.8, 1.8;stroke-dashoffset:0;stroke-opacity:1"
       id="path760" />
    <path
       d="m 514.608,443.279 c 1.341,2.626 3.455,8.882 -2.465,9.578 -5.92,0.696 -16.715,-1.741 -25.071,-5.571 -8.358,-3.83 -16.019,-9.402 -28.554,-9.402 -12.536,0 -27.161,2.089 -31.34,2.089 -4.178,0 -7.66,0.349 -14.972,-2.437 -7.313,-2.786 -33.076,-10.441 -41.784,-34.471"
       style="fill:none;stroke:#231f20;stroke-width:0.5;stroke-linecap:round;stroke-linejoin:round;stroke-miterlimit:4;stroke-dasharray:2.8, 1.8;stroke-dashoffset:0;stroke-opacity:1"
       id="path762" />
    <path
       d="m 466.527,444.848 c -1.393,-2.437 -3.803,-5.114 -5.906,-6.91"
       style="fill:none;stroke:#231f20;stroke-width:0.5;stroke-linecap:round;stroke-linejoin:round;stroke-miterlimit:4;stroke-dasharray:2.8, 1.8;stroke-dashoffset:0;stroke-opacity:1"
       id="path764" />
    <path
       d="m 509.706,445.197 c -1.732,3.271 -16.715,1.392 -19.5,-6.616 -2.787,-8.009 2.437,-12.537 9.401,-9.403 6.965,3.135 13.232,10.099 10.099,16.019 z"
       style="fill:none;stroke:#231f20;stroke-width:0.5;stroke-linecap:round;stroke-linejoin:round;stroke-miterlimit:4;stroke-dasharray:2.8, 1.8;stroke-dashoffset:0;stroke-opacity:1"
       id="path766" />
    <path
       d="m 478.947,431.5 c -1.728,1.153 -10.911,-0.927 -10.215,-3.482 0.696,-2.554 2.089,-9.518 8.357,-7.892 6.268,1.624 3.948,9.982 1.858,11.374 z"
       style="fill:none;stroke:#231f20;stroke-width:0.5;stroke-linecap:round;stroke-linejoin:round;stroke-miterlimit:4;stroke-dasharray:2.8, 1.8;stroke-dashoffset:0;stroke-opacity:1"
       id="path768" />
    <path
       d="m 429.068,422.958 c 0,-2.18 2.638,-3.351 5.893,-2.614 3.255,0.736 5.895,3.1 5.895,5.28 0,2.181 -2.64,3.351 -5.895,2.615 -3.255,-0.738 -5.893,-3.1 -5.893,-5.281 z"
       style="fill:none;stroke:#231f20;stroke-width:0.5;stroke-linecap:round;stroke-linejoin:round;stroke-miterlimit:4;stroke-dasharray:2.8, 1.8;stroke-dashoffset:0;stroke-opacity:1"
       id="path770" />
    <path
       d="m 440.23,423.718 c 2.733,-2.896 4.823,-5.218 10.627,-3.826 5.805,1.394 16.947,4.875 16.947,7.894 0,3.018 -2.09,4.41 -8.59,3.946 -6.501,-0.464 -21.82,-1.16 -32.5,-0.464 -10.678,0.696 -19.964,-1.394 -20.661,-6.501 -0.696,-5.105 6.655,-14.613 23.408,-3.128"
       style="fill:none;stroke:#231f20;stroke-width:0.5;stroke-linecap:round;stroke-linejoin:round;stroke-miterlimit:4;stroke-dasharray:2.8, 1.8;stroke-dashoffset:0;stroke-opacity:1"
       id="path772" />
    <path
       d="m 491.168,429.787 c -2.704,0.089 -5.256,-1.073 -7.579,-5.484 -2.322,-4.411 -6.266,-10.679 -13,-9.053 -6.732,1.626 -11.839,2.088 -16.713,1.161 -4.876,-0.928 -9.75,-1.624 -16.25,-1.858 -6.501,-0.232 -9.053,-1.857 -13,-4.411 -3.948,-2.553 -8.589,-9.054 -13.929,-8.124 -5.34,0.929 -6.27,5.106 -7.43,7.428 -1.16,2.322 -2.784,3.482 -5.803,2.322 -3.017,-1.16 -5.802,-3.481 -7.66,2.321 -1.858,5.803 0.232,8.126 -7.197,11.144 -7.428,3.017 -11.838,7.891 -15.785,12.767 -3.947,4.874 -6.734,14.161 -10.446,18.339 -3.714,4.179 -9.289,9.75 -19.269,8.589 -9.981,-1.159 -24.145,-4.875 -28.554,-4.41 -4.41,0.465 -6.266,4.644 -3.714,6.964 2.554,2.321 19.499,8.822 24.607,11.144 5.107,2.32 13.347,5.222 15.902,7.312 0,0 -10.805,-2.977 -16.83,-4.296 -7.43,-1.624 -13.769,-4.018 -19.732,-5.571 -5.558,-1.447 -16.019,-4.875 -14.625,-9.285 1.392,-4.41 4.873,-10.91 10.91,-11.839 6.036,-0.93 16.947,2.089 25.304,3.481 8.357,1.394 13.93,-10e-4 17.643,-5.107 3.714,-5.106 9.054,-14.857 14.625,-21.124 5.571,-6.268 8.899,-10.751 16.985,-13.965 8.086,-3.215 5.998,-10.41 5.998,-12.499 0,-2.09 1.392,-2.323 3.946,-1.162 2.553,1.162 5.571,3.482 9.053,2.09 3.482,-1.394 6.036,-6.269 7.661,-7.429 1.625,-1.16 4.411,-3.713 9.286,0.232 4.875,3.947 15.09,10.214 21.59,8.125 6.499,-2.089 11.838,-0.232 16.481,0.464 4.643,0.697 11.374,1.859 15.089,1.859 3.715,0 9.982,1.158 11.375,4.409 1.393,3.251 3.946,4.875 7.429,7.661 3.481,2.785 7.156,4.872 6.828,6.266"
       style="fill:none;stroke:#231f20;stroke-width:0.5;stroke-linecap:round;stroke-linejoin:round;stroke-miterlimit:4;stroke-dasharray:2.8, 1.8;stroke-dashoffset:0;stroke-opacity:1"
       id="path774" />
    <path
       d="m 440.589,539.913 c -5.053,-7.663 -28.204,-32.296 -43.705,-40.046 -18.107,-9.054 -23.678,-12.188 -51.536,-13.929 -9.924,-0.352 -18.98,1.923 -23.854,3.137"
       style="fill:none;stroke:#231f20;stroke-width:0.5;stroke-linecap:round;stroke-linejoin:round;stroke-miterlimit:4;stroke-dasharray:2.8, 1.8;stroke-dashoffset:0;stroke-opacity:1"
       id="path776" />
    <path
       d="m 705.085,603.894 c 6.617,0 14.594,-8.617 13.549,-16.626 -1.044,-8.009 -7.66,-12.884 -13.928,-12.884 -6.268,0 -32.384,0.697 -41.786,-6.616 -9.402,-7.312 -11.491,-15.321 -12.187,-22.634 -0.696,-7.312 -6.094,-8.474 -13.146,-4.237"
       style="fill:none;stroke:#231f20;stroke-width:0.5;stroke-linecap:round;stroke-linejoin:round;stroke-miterlimit:4;stroke-dasharray:2.8, 1.8;stroke-dashoffset:0;stroke-opacity:1"
       id="path778" />
    <path
       d="m 657.697,645.42 c 8.705,0 16.366,-3.482 16.366,-13.581 0,-10.097 -7.313,-11.142 -13.929,-11.142 -6.616,0 -14.973,2.786 -14.973,10.795 0,8.008 6.75,13.928 12.536,13.928 z"
       style="fill:none;stroke:#231f20;stroke-width:0.5;stroke-linecap:round;stroke-linejoin:round;stroke-miterlimit:4;stroke-dasharray:2.8, 1.8;stroke-dashoffset:0;stroke-opacity:1"
       id="path780" />
    <path
       d="m 556.467,807.565 c 0,0 67.72,-77.284 79.426,-90.29"
       style="fill:none;stroke:#231f20;stroke-width:0.5;stroke-linecap:round;stroke-linejoin:round;stroke-miterlimit:4;stroke-dasharray:2.8, 1.8;stroke-dashoffset:0;stroke-opacity:1"
       id="path782" />
    <path
       d="m 540,721.679 c 0,0 65.813,-14.625 83.223,-21.937"
       style="fill:none;stroke:#231f20;stroke-width:0.5;stroke-linecap:round;stroke-linejoin:round;stroke-miterlimit:4;stroke-dasharray:2.8, 1.8;stroke-dashoffset:0;stroke-opacity:1"
       id="path784" />
    <path
       d="m 637.593,835.187 c 0,0 5.117,-96.503 8.265,-116.294"
       style="fill:none;stroke:#231f20;stroke-width:0.5;stroke-linecap:round;stroke-linejoin:round;stroke-miterlimit:4;stroke-dasharray:2.8, 1.8;stroke-dashoffset:0;stroke-opacity:1"
       id="path786" />
    <path
       d="m 757.704,806.085 c 0,0 -51.502,-74.299 -75.058,-104.424"
       style="fill:none;stroke:#231f20;stroke-width:0.5;stroke-linecap:round;stroke-linejoin:round;stroke-miterlimit:4;stroke-dasharray:2.8, 1.8;stroke-dashoffset:0;stroke-opacity:1"
       id="path788" />
    <path
       d="m 695.71,689.647 c 0,0 71.458,78.072 92.236,98.849"
       style="fill:none;stroke:#231f20;stroke-width:0.5;stroke-linecap:round;stroke-linejoin:round;stroke-miterlimit:4;stroke-dasharray:2.8, 1.8;stroke-dashoffset:0;stroke-opacity:1"
       id="path790" />
    <path
       d="m 523.534,807.565 c 0,0 -67.72,-77.284 -79.426,-90.29"
       style="fill:none;stroke:#231f20;stroke-width:0.5;stroke-linecap:round;stroke-linejoin:round;stroke-miterlimit:4;stroke-dasharray:2.8, 1.8;stroke-dashoffset:0;stroke-opacity:1"
       id="path792" />
    <path
       d="m 442.408,835.187 c 0,0 -5.117,-96.503 -8.265,-116.294"
       style="fill:none;stroke:#231f20;stroke-width:0.5;stroke-linecap:round;stroke-linejoin:round;stroke-miterlimit:4;stroke-dasharray:2.8, 1.8;stroke-dashoffset:0;stroke-opacity:1"
       id="path794" />
    <path
       d="m 322.296,806.085 c 0,0 51.502,-74.299 75.058,-104.424"
       style="fill:none;stroke:#231f20;stroke-width:0.5;stroke-linecap:round;stroke-linejoin:round;stroke-miterlimit:4;stroke-dasharray:2.8, 1.8;stroke-dashoffset:0;stroke-opacity:1"
       id="path796" />
    <path
       d="m 384.29,689.647 c 0,0 -71.457,78.072 -92.235,98.849"
       style="fill:none;stroke:#231f20;stroke-width:0.5;stroke-linecap:round;stroke-linejoin:round;stroke-miterlimit:4;stroke-dasharray:2.8, 1.8;stroke-dashoffset:0;stroke-opacity:1"
       id="path798" />
    <path
       d="M 705.085,603.894 853.018,575.99"
       style="fill:none;stroke:#231f20;stroke-width:0.5;stroke-linecap:round;stroke-linejoin:round;stroke-miterlimit:4;stroke-dasharray:2.8, 1.8;stroke-dashoffset:0;stroke-opacity:1"
       id="path800" />
    <path
       d="M 718.486,589.325 836.972,544.556"
       style="fill:none;stroke:#231f20;stroke-width:0.5;stroke-linecap:round;stroke-linejoin:round;stroke-miterlimit:4;stroke-dasharray:2.8, 1.8;stroke-dashoffset:0;stroke-opacity:1"
       id="path802" />
    <path
       d="M 716.116,580.606 818.703,514.403"
       style="fill:none;stroke:#231f20;stroke-width:0.5;stroke-linecap:round;stroke-linejoin:round;stroke-miterlimit:4;stroke-dasharray:2.8, 1.8;stroke-dashoffset:0;stroke-opacity:1"
       id="path804" />
    <path
       d="m 709.379,575.271 c 12.389,-14.467 66.154,-75.975 78.272,-85.963"
       style="fill:none;stroke:#231f20;stroke-width:0.5;stroke-linecap:round;stroke-linejoin:round;stroke-miterlimit:4;stroke-dasharray:2.8, 1.8;stroke-dashoffset:0;stroke-opacity:1"
       id="path806" />
    <path
       d="m 664.808,569.011 c 0,0 38.505,-51.386 47.559,-59.394 9.053,-8.01 20.196,-20.545 46.661,-20.545"
       style="fill:none;stroke:#231f20;stroke-width:0.5;stroke-linecap:round;stroke-linejoin:round;stroke-miterlimit:4;stroke-dasharray:2.8, 1.8;stroke-dashoffset:0;stroke-opacity:1"
       id="path808" />
    <path
       d="m 540,599.843 c 9.75,-2.785 32.446,-2.44 55.644,4.862"
       style="fill:none;stroke:#231f20;stroke-width:0.5;stroke-linecap:round;stroke-linejoin:round;stroke-miterlimit:4;stroke-dasharray:2.8, 1.8;stroke-dashoffset:0;stroke-opacity:1"
       id="path810" />
    <path
       d="m 540,556.625 c 10.447,-0.696 35.945,2.306 53.142,10.73"
       style="fill:none;stroke:#231f20;stroke-width:0.5;stroke-linecap:round;stroke-linejoin:round;stroke-miterlimit:4;stroke-dasharray:2.8, 1.8;stroke-dashoffset:0;stroke-opacity:1"
       id="path812" />
    <path
       d="m 540.697,524.242 c 12.187,2.437 34.941,6.298 48.984,15.684"
       style="fill:none;stroke:#231f20;stroke-width:0.5;stroke-linecap:round;stroke-linejoin:round;stroke-miterlimit:4;stroke-dasharray:2.8, 1.8;stroke-dashoffset:0;stroke-opacity:1"
       id="path814" />
    <path
       d="m 545.626,488.11 c 11.088,2.007 27.803,6.184 40.338,24.988"
       style="fill:none;stroke:#231f20;stroke-width:0.5;stroke-linecap:round;stroke-linejoin:round;stroke-miterlimit:4;stroke-dasharray:2.8, 1.8;stroke-dashoffset:0;stroke-opacity:1"
       id="path816" />
    <path
       d="m 552.063,526.576 c -0.224,-7.558 0.907,-28.702 5.392,-35.54"
       style="fill:none;stroke:#231f20;stroke-width:0.5;stroke-linecap:round;stroke-linejoin:round;stroke-miterlimit:4;stroke-dasharray:2.8, 1.8;stroke-dashoffset:0;stroke-opacity:1"
       id="path818" />
    <path
       d="m 560.197,528.417 c -1.045,-9.748 1.457,-27.286 4.907,-34.186"
       style="fill:none;stroke:#231f20;stroke-width:0.5;stroke-linecap:round;stroke-linejoin:round;stroke-miterlimit:4;stroke-dasharray:2.8, 1.8;stroke-dashoffset:0;stroke-opacity:1"
       id="path820" />
    <path
       d="m 615.214,544.438 c 8.009,-1.393 17.412,-4.875 24.375,-13.929 5.012,-6.513 15.323,-21.241 17.411,-25.767 2.089,-4.528 3.831,-12.885 3.134,-17.76"
       style="fill:none;stroke:#231f20;stroke-width:0.5;stroke-linecap:round;stroke-linejoin:round;stroke-miterlimit:4;stroke-dasharray:2.8, 1.8;stroke-dashoffset:0;stroke-opacity:1"
       id="path822" />
    <path
       d="m 597.804,529.464 c -2.437,-9.75 10.446,-59.892 43.179,-65.812"
       style="fill:none;stroke:#231f20;stroke-width:0.5;stroke-linecap:round;stroke-linejoin:round;stroke-miterlimit:4;stroke-dasharray:2.8, 1.8;stroke-dashoffset:0;stroke-opacity:1"
       id="path824" />
    <path
       d="m 597.804,529.464 c -7.661,-5.222 -18.804,-27.508 -14.625,-47.357 4.179,-19.848 14.973,-34.821 30.294,-37.259 15.322,-2.437 25.42,-2.089 34.822,4.528"
       style="fill:none;stroke:#231f20;stroke-width:0.5;stroke-linecap:round;stroke-linejoin:round;stroke-miterlimit:4;stroke-dasharray:2.8, 1.8;stroke-dashoffset:0;stroke-opacity:1"
       id="path826" />
    <path
       d="m 685.762,498.542 c 9.194,-8.425 14.069,-14.694 10.935,-21.31 -3.134,-6.615 -23.679,-32.732 -33.08,-37.955"
       style="fill:none;stroke:#231f20;stroke-width:0.5;stroke-linecap:round;stroke-linejoin:round;stroke-miterlimit:4;stroke-dasharray:2.8, 1.8;stroke-dashoffset:0;stroke-opacity:1"
       id="path828" />
    <path
       d="m 652.126,464.348 c -0.5,-7.171 -2.787,-12.884 -3.831,-14.972 -1.045,-2.09 -3.831,-10.448 1.393,-9.75"
       style="fill:none;stroke:#231f20;stroke-width:0.5;stroke-linecap:round;stroke-linejoin:round;stroke-miterlimit:4;stroke-dasharray:2.8, 1.8;stroke-dashoffset:0;stroke-opacity:1"
       id="path830" />
    <path
       d="m 674.613,480.983 c 5.37,-1.661 11.637,-4.099 22.084,-3.751"
       style="fill:none;stroke:#231f20;stroke-width:0.5;stroke-linecap:round;stroke-linejoin:round;stroke-miterlimit:4;stroke-dasharray:2.8, 1.8;stroke-dashoffset:0;stroke-opacity:1"
       id="path832" />
    <path
       d="m 565.393,443.279 c -1.342,2.626 -3.455,8.882 2.464,9.578 5.92,0.696 16.715,-1.741 25.072,-5.571 8.357,-3.83 16.018,-9.402 28.554,-9.402 12.535,0 27.16,2.089 31.339,2.089 4.178,0 7.661,0.349 14.973,-2.437 7.313,-2.786 33.075,-10.441 41.784,-34.471"
       style="fill:none;stroke:#231f20;stroke-width:0.5;stroke-linecap:round;stroke-linejoin:round;stroke-miterlimit:4;stroke-dasharray:2.8, 1.8;stroke-dashoffset:0;stroke-opacity:1"
       id="path834" />
    <path
       d="m 613.473,444.848 c 1.394,-2.437 3.804,-5.114 5.906,-6.91"
       style="fill:none;stroke:#231f20;stroke-width:0.5;stroke-linecap:round;stroke-linejoin:round;stroke-miterlimit:4;stroke-dasharray:2.8, 1.8;stroke-dashoffset:0;stroke-opacity:1"
       id="path836" />
    <path
       d="m 570.294,445.197 c 1.733,3.271 16.715,1.392 19.501,-6.616 2.786,-8.009 -2.437,-12.537 -9.402,-9.403 -6.964,3.135 -13.232,10.099 -10.099,16.019 z"
       style="fill:none;stroke:#231f20;stroke-width:0.5;stroke-linecap:round;stroke-linejoin:round;stroke-miterlimit:4;stroke-dasharray:2.8, 1.8;stroke-dashoffset:0;stroke-opacity:1"
       id="path838" />
    <path
       d="m 601.053,431.5 c 1.728,1.153 10.912,-0.927 10.216,-3.482 -0.697,-2.554 -2.09,-9.518 -8.357,-7.892 -6.268,1.624 -3.948,9.982 -1.859,11.374 z"
       style="fill:none;stroke:#231f20;stroke-width:0.5;stroke-linecap:round;stroke-linejoin:round;stroke-miterlimit:4;stroke-dasharray:2.8, 1.8;stroke-dashoffset:0;stroke-opacity:1"
       id="path840" />
    <path
       d="m 650.932,422.958 c 0,-2.18 -2.637,-3.351 -5.893,-2.614 -3.255,0.736 -5.894,3.1 -5.894,5.28 0,2.181 2.639,3.351 5.894,2.615 3.256,-0.738 5.893,-3.1 5.893,-5.281 z"
       style="fill:none;stroke:#231f20;stroke-width:0.5;stroke-linecap:round;stroke-linejoin:round;stroke-miterlimit:4;stroke-dasharray:2.8, 1.8;stroke-dashoffset:0;stroke-opacity:1"
       id="path842" />
    <path
       d="m 639.771,423.718 c -2.734,-2.896 -4.823,-5.218 -10.628,-3.826 -5.804,1.394 -16.946,4.875 -16.946,7.894 0,3.018 2.089,4.41 8.589,3.946 6.501,-0.464 21.821,-1.16 32.5,-0.464 10.678,0.696 19.964,-1.394 20.662,-6.501 0.696,-5.105 -6.654,-14.613 -23.408,-3.128"
       style="fill:none;stroke:#231f20;stroke-width:0.5;stroke-linecap:round;stroke-linejoin:round;stroke-miterlimit:4;stroke-dasharray:2.8, 1.8;stroke-dashoffset:0;stroke-opacity:1"
       id="path844" />
    <path
       d="m 588.832,429.787 c 2.704,0.089 5.257,-1.073 7.579,-5.484 2.322,-4.411 6.266,-10.679 13,-9.053 6.733,1.626 11.839,2.088 16.713,1.161 4.876,-0.928 9.75,-1.624 16.252,-1.858 6.5,-0.232 9.051,-1.857 12.998,-4.411 3.949,-2.553 8.589,-9.054 13.929,-8.124 5.341,0.929 6.27,5.106 7.43,7.428 1.16,2.322 2.784,3.482 5.803,2.322 3.018,-1.16 5.802,-3.481 7.661,2.321 1.857,5.803 -0.232,8.126 7.196,11.144 7.429,3.017 11.838,7.891 15.785,12.767 3.948,4.874 6.734,14.161 10.448,18.339 3.712,4.179 9.287,9.75 19.268,8.589 9.982,-1.159 24.144,-4.875 28.554,-4.41 4.409,0.465 6.266,4.644 3.713,6.964 -2.553,2.321 -19.498,8.822 -24.607,11.144 -5.107,2.32 -13.347,5.222 -15.901,7.312 0,0 10.804,-2.977 16.829,-4.296 7.43,-1.624 13.77,-4.018 19.733,-5.571 5.558,-1.447 16.018,-4.875 14.625,-9.285 -1.393,-4.41 -4.874,-10.91 -10.91,-11.839 -6.037,-0.93 -16.947,2.089 -25.304,3.481 -8.358,1.394 -13.93,-10e-4 -17.644,-5.107 -3.713,-5.106 -9.054,-14.857 -14.625,-21.124 -5.571,-6.268 -8.899,-10.751 -16.984,-13.965 -8.087,-3.215 -5.997,-10.41 -5.997,-12.499 0,-2.09 -1.394,-2.323 -3.947,-1.162 -2.553,1.162 -5.571,3.482 -9.053,2.09 -3.483,-1.394 -6.036,-6.269 -7.662,-7.429 -1.625,-1.16 -4.411,-3.713 -9.286,0.232 -4.875,3.947 -15.09,10.214 -21.589,8.125 -6.499,-2.089 -11.839,-0.232 -16.481,0.464 -4.643,0.697 -11.374,1.859 -15.089,1.859 -3.715,0 -9.983,1.158 -11.376,4.409 -1.393,3.251 -3.946,4.875 -7.428,7.661 -3.482,2.785 -7.156,4.872 -6.828,6.266"
       style="fill:none;stroke:#231f20;stroke-width:0.5;stroke-linecap:round;stroke-linejoin:round;stroke-miterlimit:4;stroke-dasharray:2.8, 1.8;stroke-dashoffset:0;stroke-opacity:1"
       id="path846" />
    <path
       d="m 639.412,539.913 c 5.052,-7.663 28.204,-32.296 43.705,-40.046 18.107,-9.054 23.678,-12.188 51.536,-13.929 9.924,-0.352 18.98,1.923 23.853,3.137"
       style="fill:none;stroke:#231f20;stroke-width:0.5;stroke-linecap:round;stroke-linejoin:round;stroke-miterlimit:4;stroke-dasharray:2.8, 1.8;stroke-dashoffset:0;stroke-opacity:1"
       id="path848" />
  </g>
</svg>
