<?xml version="1.0" encoding="UTF-8" standalone="no"?>
<!-- Created with Inkscape (http://www.inkscape.org/) -->

<svg
   version="1.1"
   id="svg2"
   width="1440"
   height="1344"
   viewBox="0 0 1440 1344"
   xmlns="http://www.w3.org/2000/svg"
   xmlns:svg="http://www.w3.org/2000/svg">
  <defs
     id="defs6" />
  <g
     id="g10">
    <path
       d="m 540,595.965 c 0,0 0,-23.676 0,-30.642 0,-6.965 -4.178,-11.84 -4.178,-16.366 0,-4.528 -2.786,-27.162 -8.009,-39.697 -5.224,-12.536 -22.286,-24.027 -28.206,-28.206 -5.919,-4.178 -26.464,-19.848 -38.304,-22.981 -11.839,-3.135 -54.321,-3.483 -66.509,-0.697 -12.187,2.786 -34.125,12.536 -57.455,28.206 -23.331,15.669 -32.036,30.642 -35.518,41.088 -3.482,10.447 10.098,14.278 10.098,14.278 -8.008,-3.483 -19.152,3.83 -36.562,22.634 -17.411,18.803 -32.036,45.616 -41.09,94.017 -9.054,48.403 3.135,97.501 11.144,116.305 8.008,18.804 29.25,53.277 63.722,74.518 45.66,28.134 88.448,36.738 129.885,39.871 41.438,3.134 68.599,-13.232 84.268,-33.081 C 538.956,835.365 540,824.395 540,814.994 v -191.52 c 0,0 -3.017,-7.195 -3.017,-13.463 0,-6.267 3.017,-14.046 3.017,-14.046"
       style="fill:#ffffff;fill-opacity:1;fill-rule:nonzero;stroke:none;stroke-width:0.1"
       id="path616" />
    <path
       d="m 540,595.965 c 0,0 0,-23.676 0,-30.642 0,-6.965 -4.178,-11.84 -4.178,-16.366 0,-4.528 -2.786,-27.162 -8.009,-39.697 -5.224,-12.536 -22.286,-24.027 -28.206,-28.206 -5.919,-4.178 -26.464,-19.848 -38.304,-22.981 -11.839,-3.135 -54.321,-3.483 -66.509,-0.697 -12.187,2.786 -34.125,12.536 -57.455,28.206 -23.331,15.669 -32.036,30.642 -35.518,41.088 -3.482,10.447 10.098,14.278 10.098,14.278 -8.008,-3.483 -19.152,3.83 -36.562,22.634 -17.411,18.803 -32.036,45.616 -41.09,94.017 -9.054,48.403 3.135,97.501 11.144,116.305 8.008,18.804 29.25,53.277 63.722,74.518 45.66,28.134 88.448,36.738 129.885,39.871 41.438,3.134 68.599,-13.232 84.268,-33.081 C 538.956,835.365 540,824.395 540,814.994 v -191.52 c 0,0 -3.017,-7.195 -3.017,-13.463 0,-6.267 3.017,-14.046 3.017,-14.046 z"
       style="fill:none;stroke:#231f20;stroke-width:0.75;stroke-linecap:round;stroke-linejoin:round;stroke-miterlimit:4;stroke-dasharray:none;stroke-opacity:1"
       id="path618" />
    <path
       d="m 540,595.965 c 0,0 0,-23.676 0,-30.642 0,-6.965 4.179,-11.84 4.179,-16.366 0,-4.528 2.785,-27.162 8.009,-39.697 5.223,-12.536 22.285,-24.027 28.205,-28.206 5.92,-4.178 26.465,-19.848 38.304,-22.981 11.839,-3.135 54.321,-3.483 66.509,-0.697 12.187,2.786 34.125,12.536 57.456,28.206 23.33,15.669 32.035,30.642 35.517,41.088 3.483,10.447 -10.098,14.278 -10.098,14.278 8.009,-3.483 19.152,3.83 36.563,22.634 17.41,18.803 32.035,45.616 41.089,94.017 9.054,48.403 -3.134,97.501 -11.143,116.305 -8.008,18.804 -29.25,53.277 -63.723,74.518 -45.659,28.134 -88.447,36.738 -129.884,39.871 -41.438,3.134 -68.599,-13.232 -84.269,-33.081 C 541.044,835.365 540,824.395 540,814.994 v -191.52 c 0,0 3.017,-7.195 3.017,-13.463 0,-6.267 -3.017,-14.046 -3.017,-14.046"
       style="fill:#ffffff;fill-opacity:1;fill-rule:nonzero;stroke:none;stroke-width:0.1"
       id="path620" />
    <path
       d="m 540,595.965 c 0,0 0,-23.676 0,-30.642 0,-6.965 4.179,-11.84 4.179,-16.366 0,-4.528 2.785,-27.162 8.009,-39.697 5.223,-12.536 22.285,-24.027 28.205,-28.206 5.92,-4.178 26.465,-19.848 38.304,-22.981 11.839,-3.135 54.321,-3.483 66.509,-0.697 12.187,2.786 34.125,12.536 57.456,28.206 23.33,15.669 32.035,30.642 35.517,41.088 3.483,10.447 -10.098,14.278 -10.098,14.278 8.009,-3.483 19.152,3.83 36.563,22.634 17.41,18.803 32.035,45.616 41.089,94.017 9.054,48.403 -3.134,97.501 -11.143,116.305 -8.008,18.804 -29.25,53.277 -63.723,74.518 -45.659,28.134 -88.447,36.738 -129.884,39.871 -41.438,3.134 -68.599,-13.232 -84.269,-33.081 C 541.044,835.365 540,824.395 540,814.994 v -191.52 c 0,0 3.017,-7.195 3.017,-13.463 0,-6.267 -3.017,-14.046 -3.017,-14.046 z"
       style="fill:none;stroke:#231f20;stroke-width:0.75;stroke-linecap:round;stroke-linejoin:round;stroke-miterlimit:4;stroke-dasharray:none;stroke-opacity:1"
       id="path622" />
    <path
       d="m 596.411,614.769 c -4.156,-31.274 -8.705,-61.634 -8.705,-61.634 3.133,18.804 13.232,40.741 21.937,61.983 8.705,21.241 19.152,36.562 36.215,43.526 17.062,6.965 46.34,12.137 52.231,15.321 5.05,2.73 4.875,4.006 5.573,11.492 0.488,5.248 1.624,17.47 -3.019,28.149 -4.643,10.678 -27.276,35.923 -34.589,40.798 -4.406,2.937 -11.972,6.633 -18.816,6.974 -4.513,0.226 -8.71,-1.009 -11.479,-4.884 -6.964,-9.75 -26.812,-59.545 -33.776,-96.457 -2.378,-12.601 -3.419,-29.057 -5.572,-45.268 z"
       style="fill:none;stroke:#231f20;stroke-width:0.5;stroke-linecap:butt;stroke-linejoin:miter;stroke-miterlimit:4;stroke-dasharray:none;stroke-opacity:1"
       id="path624" />
    <path
       d="m 483.589,614.769 c 4.156,-31.274 8.705,-61.634 8.705,-61.634 -3.133,18.804 -13.231,40.741 -21.937,61.983 -8.705,21.241 -19.151,36.562 -36.214,43.526 -17.062,6.965 -46.34,12.137 -52.232,15.321 -5.049,2.73 -4.875,4.006 -5.572,11.492 -0.488,5.248 -1.624,17.47 3.019,28.149 4.642,10.678 27.276,35.923 34.589,40.798 4.405,2.937 11.972,6.633 18.815,6.974 4.514,0.226 8.711,-1.009 11.479,-4.884 6.965,-9.75 26.812,-59.545 33.777,-96.457 2.378,-12.601 3.418,-29.057 5.571,-45.268 z"
       style="fill:none;stroke:#231f20;stroke-width:0.5;stroke-linecap:butt;stroke-linejoin:miter;stroke-miterlimit:4;stroke-dasharray:none;stroke-opacity:1"
       id="path626" />
    <path
       d="m 647.238,761.378 c -5.559,1.731 -14.265,2.08 -18.791,-6.626 -4.527,-8.706 -22.983,-55.714 -26.464,-94.715"
       style="fill:none;stroke:#231f20;stroke-width:0.5;stroke-linecap:butt;stroke-linejoin:miter;stroke-miterlimit:4;stroke-dasharray:none;stroke-opacity:1"
       id="path628" />
    <path
       d="m 543.948,544.082 c 0,-2.655 -1.769,-4.807 -3.948,-4.807 -2.179,0 -3.947,2.152 -3.947,4.807 0,2.655 1.768,4.806 3.947,4.806 2.179,0 3.948,-2.151 3.948,-4.806"
       style="fill:#ffffff;fill-opacity:1;fill-rule:nonzero;stroke:none;stroke-width:0.1"
       id="path630" />
    <path
       d="m 543.948,544.082 c 0,-2.655 -1.769,-4.807 -3.948,-4.807 -2.179,0 -3.947,2.152 -3.947,4.807 0,2.655 1.768,4.806 3.947,4.806 2.179,0 3.948,-2.151 3.948,-4.806 z"
       style="fill:none;stroke:#231f20;stroke-width:0.5;stroke-linecap:butt;stroke-linejoin:miter;stroke-miterlimit:4;stroke-dasharray:none;stroke-opacity:1"
       id="path632" />
    <path
       d="m 542.675,612.681 c 0,-2.001 -1.198,-3.622 -2.675,-3.622 -1.478,0 -2.676,1.621 -2.676,3.622 0,2.001 1.198,3.622 2.676,3.622 1.477,0 2.675,-1.621 2.675,-3.622"
       style="fill:#ffffff;fill-opacity:1;fill-rule:nonzero;stroke:none;stroke-width:0.1"
       id="path634" />
    <path
       d="m 542.675,612.681 c 0,-2.001 -1.198,-3.622 -2.675,-3.622 -1.478,0 -2.676,1.621 -2.676,3.622 0,2.001 1.198,3.622 2.676,3.622 1.477,0 2.675,-1.621 2.675,-3.622 z"
       style="fill:none;stroke:#231f20;stroke-width:0.5;stroke-linecap:butt;stroke-linejoin:miter;stroke-miterlimit:4;stroke-dasharray:none;stroke-opacity:1"
       id="path636" />
    <path
       d="m 761.479,500.892 c -1.871,2.334 -6.746,6.744 -13.246,4.423 -6.501,-2.323 -10.467,-7.353 -16.251,-13.001 -6.571,-6.417 -25.134,-21.353 -36.594,-31.802"
       style="fill:none;stroke:#231f20;stroke-width:0.5;stroke-linecap:butt;stroke-linejoin:miter;stroke-miterlimit:4;stroke-dasharray:none;stroke-opacity:1"
       id="path638" />
    <path
       d="m 768.081,540.948 c -5.583,2.615 -19.654,8.926 -24.955,11.26"
       style="fill:none;stroke:#231f20;stroke-width:0.5;stroke-linecap:butt;stroke-linejoin:miter;stroke-miterlimit:4;stroke-dasharray:none;stroke-opacity:1"
       id="path640" />
    <path
       d="m 653.518,543.618 c 0,0 1.201,-0.344 5.571,-3.483 4.533,-3.255 5.574,-6.035 0.93,-12.535 -4.645,-6.501 -19.162,-14.475 -21.59,-13.928 -3.63,0.817 -5.572,0.232 -6.036,3.483 -0.464,3.248 2.323,14.392 5.34,19.035 3.017,4.642 7.661,9.517 15.785,7.428 z"
       style="fill:none;stroke:#231f20;stroke-width:0.5;stroke-linecap:butt;stroke-linejoin:miter;stroke-miterlimit:4;stroke-dasharray:none;stroke-opacity:1"
       id="path642" />
    <path
       d="m 432.762,761.378 c 5.56,1.731 14.265,2.08 18.791,-6.626 4.528,-8.706 22.983,-55.714 26.465,-94.715"
       style="fill:none;stroke:#231f20;stroke-width:0.5;stroke-linecap:butt;stroke-linejoin:miter;stroke-miterlimit:4;stroke-dasharray:none;stroke-opacity:1"
       id="path644" />
    <path
       d="m 318.522,500.892 c 1.87,2.334 6.745,6.744 13.246,4.423 6.5,-2.323 10.467,-7.353 16.25,-13.001 6.571,-6.417 25.134,-21.353 36.594,-31.802"
       style="fill:none;stroke:#231f20;stroke-width:0.5;stroke-linecap:butt;stroke-linejoin:miter;stroke-miterlimit:4;stroke-dasharray:none;stroke-opacity:1"
       id="path646" />
    <path
       d="m 311.919,540.948 c 5.584,2.615 19.654,8.926 24.957,11.26"
       style="fill:none;stroke:#231f20;stroke-width:0.5;stroke-linecap:butt;stroke-linejoin:miter;stroke-miterlimit:4;stroke-dasharray:none;stroke-opacity:1"
       id="path648" />
    <path
       d="m 426.482,543.618 c 0,0 -1.201,-0.344 -5.571,-3.483 -4.533,-3.255 -5.574,-6.035 -0.929,-12.535 4.644,-6.501 19.161,-14.475 21.589,-13.928 3.631,0.817 5.573,0.232 6.037,3.483 0.464,3.248 -2.323,14.392 -5.341,19.035 -3.017,4.642 -7.66,9.517 -15.785,7.428 z"
       style="fill:none;stroke:#231f20;stroke-width:0.5;stroke-linecap:butt;stroke-linejoin:miter;stroke-miterlimit:4;stroke-dasharray:none;stroke-opacity:1"
       id="path650" />
    <path
       d="m 611.841,586.09 c -1.038,1.635 -2.663,3.955 -3.823,1.867 -1.16,-2.089 -6.732,-13.464 -7.892,-15.322 -1.161,-1.856 -1.162,-5.57 2.321,-2.32 3.481,3.249 8.124,8.124 11.142,7.195 3.019,-0.928 4.876,-1.392 6.037,-2.786 l 0.463,1.741 -8.248,9.625"
       style="fill:#b2b1b1;fill-opacity:1;fill-rule:nonzero;stroke:none;stroke-width:0.1"
       id="path652" />
    <path
       d="m 611.841,586.09 c -1.038,1.635 -2.663,3.955 -3.823,1.867 -1.16,-2.089 -6.732,-13.464 -7.892,-15.322 -1.161,-1.856 -1.162,-5.57 2.321,-2.32 3.481,3.249 8.124,8.124 11.142,7.195 3.019,-0.928 4.876,-1.392 6.037,-2.786 l 0.463,1.741 z"
       style="fill:none;stroke:#231f20;stroke-width:0.5;stroke-linecap:butt;stroke-linejoin:miter;stroke-miterlimit:4;stroke-dasharray:none;stroke-opacity:1"
       id="path654" />
    <path
       d="m 468.159,586.09 c 1.038,1.635 2.664,3.955 3.824,1.867 1.16,-2.089 6.731,-13.464 7.892,-15.322 1.16,-1.856 1.162,-5.57 -2.321,-2.32 -3.482,3.249 -8.125,8.124 -11.142,7.195 -3.019,-0.928 -4.877,-1.392 -6.037,-2.786 l -0.464,1.741 8.248,9.625"
       style="fill:#b2b1b1;fill-opacity:1;fill-rule:nonzero;stroke:none;stroke-width:0.1"
       id="path656" />
    <path
       d="m 468.159,586.09 c 1.038,1.635 2.664,3.955 3.824,1.867 1.16,-2.089 6.731,-13.464 7.892,-15.322 1.16,-1.856 1.162,-5.57 -2.321,-2.32 -3.482,3.249 -8.125,8.124 -11.142,7.195 -3.019,-0.928 -4.877,-1.392 -6.037,-2.786 l -0.464,1.741 z"
       style="fill:none;stroke:#231f20;stroke-width:0.5;stroke-linecap:butt;stroke-linejoin:miter;stroke-miterlimit:4;stroke-dasharray:none;stroke-opacity:1"
       id="path658" />
    <path
       d="m 527.347,502.436 c 0.395,-0.817 0.098,-1.765 -0.629,-2.14 -0.704,-0.366 -1.604,-0.082 -2.043,0.662 -0.46,0.775 -0.26,1.787 0.488,2.227 0.772,0.46 1.767,0.109 2.184,-0.749"
       style="fill:#ffffff;fill-opacity:1;fill-rule:nonzero;stroke:none;stroke-width:0.1"
       id="path660" />
    <path
       d="m 527.347,502.436 c 0.395,-0.817 0.098,-1.765 -0.629,-2.14 -0.704,-0.366 -1.604,-0.082 -2.043,0.662 -0.46,0.775 -0.26,1.787 0.488,2.227 0.772,0.46 1.767,0.109 2.184,-0.749 z"
       style="fill:none;stroke:#231f20;stroke-width:0.5;stroke-linecap:round;stroke-linejoin:round;stroke-miterlimit:4;stroke-dasharray:none;stroke-opacity:1"
       id="path662" />
    <path
       d="m 552.656,502.436 c -0.395,-0.817 -0.098,-1.765 0.628,-2.14 0.705,-0.366 1.605,-0.082 2.043,0.662 0.46,0.775 0.261,1.787 -0.487,2.227 -0.772,0.46 -1.768,0.109 -2.184,-0.749"
       style="fill:#ffffff;fill-opacity:1;fill-rule:nonzero;stroke:none;stroke-width:0.1"
       id="path664" />
    <path
       d="m 552.656,502.436 c -0.395,-0.817 -0.098,-1.765 0.628,-2.14 0.705,-0.366 1.605,-0.082 2.043,0.662 0.46,0.775 0.261,1.787 -0.487,2.227 -0.772,0.46 -1.768,0.109 -2.184,-0.749 z"
       style="fill:none;stroke:#231f20;stroke-width:0.5;stroke-linecap:round;stroke-linejoin:round;stroke-miterlimit:4;stroke-dasharray:none;stroke-opacity:1"
       id="path666" />
    <path
       d="M 510.231,868.464 C 489.05,837.973 478.018,816.155 468.268,802.226 458.518,788.297 444.59,767.968 439.483,762.347"
       style="fill:none;stroke:#231f20;stroke-width:0.5;stroke-linecap:round;stroke-linejoin:round;stroke-miterlimit:4;stroke-dasharray:2.8, 1.8;stroke-dashoffset:0;stroke-opacity:1"
       id="path668" />
    <path
       d="m 439.018,888.293 c 1.393,-35.518 -6.256,-126.915 -6.256,-126.915"
       style="fill:none;stroke:#231f20;stroke-width:0.5;stroke-linecap:round;stroke-linejoin:round;stroke-miterlimit:4;stroke-dasharray:2.8, 1.8;stroke-dashoffset:0;stroke-opacity:1"
       id="path670" />
    <path
       d="m 309.133,848.422 c 6.849,-8.126 90.785,-107.388 90.785,-107.388"
       style="fill:none;stroke:#231f20;stroke-width:0.5;stroke-linecap:round;stroke-linejoin:round;stroke-miterlimit:4;stroke-dasharray:2.8, 1.8;stroke-dashoffset:0;stroke-opacity:1"
       id="path672" />
    <path
       d="m 282.749,827.571 c 14.197,-10.953 99.564,-87.632 107.024,-97.81"
       style="fill:none;stroke:#231f20;stroke-width:0.5;stroke-linecap:round;stroke-linejoin:round;stroke-miterlimit:4;stroke-dasharray:2.8, 1.8;stroke-dashoffset:0;stroke-opacity:1"
       id="path674" />
    <path
       d="m 609.643,615.118 c 2.09,-9.75 12.762,-22.39 18.804,-19.5 8.009,3.83 2.493,18.008 4.526,27.16 2.786,12.536 20.197,26.465 38.653,25.42 24.537,-1.388 45.142,12.723 27.794,26.558"
       style="fill:none;stroke:#231f20;stroke-width:0.5;stroke-linecap:round;stroke-linejoin:round;stroke-miterlimit:4;stroke-dasharray:2.8, 1.8;stroke-dashoffset:0;stroke-opacity:1"
       id="path676" />
    <path
       d="m 569.77,868.464 c 21.18,-30.491 32.213,-52.309 41.963,-66.238 9.75,-13.929 23.677,-34.258 28.784,-39.879"
       style="fill:none;stroke:#231f20;stroke-width:0.5;stroke-linecap:round;stroke-linejoin:round;stroke-miterlimit:4;stroke-dasharray:2.8, 1.8;stroke-dashoffset:0;stroke-opacity:1"
       id="path678" />
    <path
       d="m 640.983,888.293 c -1.394,-35.518 6.255,-126.915 6.255,-126.915"
       style="fill:none;stroke:#231f20;stroke-width:0.5;stroke-linecap:round;stroke-linejoin:round;stroke-miterlimit:4;stroke-dasharray:2.8, 1.8;stroke-dashoffset:0;stroke-opacity:1"
       id="path680" />
    <path
       d="M 770.867,848.422 C 764.018,840.296 680.084,741.034 680.084,741.034"
       style="fill:none;stroke:#231f20;stroke-width:0.5;stroke-linecap:round;stroke-linejoin:round;stroke-miterlimit:4;stroke-dasharray:2.8, 1.8;stroke-dashoffset:0;stroke-opacity:1"
       id="path682" />
    <path
       d="M 797.252,827.571 C 783.054,816.618 697.687,739.939 690.228,729.761"
       style="fill:none;stroke:#231f20;stroke-width:0.5;stroke-linecap:round;stroke-linejoin:round;stroke-miterlimit:4;stroke-dasharray:2.8, 1.8;stroke-dashoffset:0;stroke-opacity:1"
       id="path684" />
    <path
       d="m 540,779.011 c 23.448,-1.857 62.912,-14.393 70.339,-18.107 7.429,-3.714 14.393,-5.804 18.108,-6.152"
       style="fill:none;stroke:#231f20;stroke-width:0.5;stroke-linecap:round;stroke-linejoin:round;stroke-miterlimit:4;stroke-dasharray:2.8, 1.8;stroke-dashoffset:0;stroke-opacity:1"
       id="path686" />
    <path
       d="m 540,661.082 c 13.232,0.464 15.089,-2.321 25.768,-2.321 10.679,0 31.526,4.65 37.12,9.289"
       style="fill:none;stroke:#231f20;stroke-width:0.5;stroke-linecap:round;stroke-linejoin:round;stroke-miterlimit:4;stroke-dasharray:2.8, 1.8;stroke-dashoffset:0;stroke-opacity:1"
       id="path688" />
    <path
       d="m 701.145,676.138 c 10.873,-5.77 111.605,-38.886 137.386,-49.025"
       style="fill:none;stroke:#231f20;stroke-width:0.5;stroke-linecap:round;stroke-linejoin:round;stroke-miterlimit:4;stroke-dasharray:2.8, 1.8;stroke-dashoffset:0;stroke-opacity:1"
       id="path690" />
    <path
       d="m 705.325,661.296 c 14.122,-9.5 104.656,-63.248 117.801,-72.07"
       style="fill:none;stroke:#231f20;stroke-width:0.5;stroke-linecap:round;stroke-linejoin:round;stroke-miterlimit:4;stroke-dasharray:2.8, 1.8;stroke-dashoffset:0;stroke-opacity:1"
       id="path692" />
    <path
       d="m 701.172,655.722 c 11.776,-13.676 79.291,-82.802 93.38,-102.398"
       style="fill:none;stroke:#231f20;stroke-width:0.5;stroke-linecap:round;stroke-linejoin:round;stroke-miterlimit:4;stroke-dasharray:2.8, 1.8;stroke-dashoffset:0;stroke-opacity:1"
       id="path694" />
    <path
       d="m 694.567,651.794 c 7.237,-11.605 38.343,-76.604 42.987,-96.104"
       style="fill:none;stroke:#231f20;stroke-width:0.5;stroke-linecap:round;stroke-linejoin:round;stroke-miterlimit:4;stroke-dasharray:2.8, 1.8;stroke-dashoffset:0;stroke-opacity:1"
       id="path696" />
    <path
       d="m 640.046,635.082 c 6.972,-18.107 20.465,-58.036 81.288,-80.322"
       style="fill:none;stroke:#231f20;stroke-width:0.5;stroke-linecap:round;stroke-linejoin:round;stroke-miterlimit:4;stroke-dasharray:2.8, 1.8;stroke-dashoffset:0;stroke-opacity:1"
       id="path698" />
    <path
       d="m 543.017,610.011 c 7.43,-0.466 38.958,-1.556 54.068,10.134"
       style="fill:none;stroke:#231f20;stroke-width:0.5;stroke-linecap:round;stroke-linejoin:round;stroke-miterlimit:4;stroke-dasharray:2.8, 1.8;stroke-dashoffset:0;stroke-opacity:1"
       id="path700" />
    <path
       d="m 540,571.475 c 7.661,-0.93 39.76,4.902 52.497,14.754"
       style="fill:none;stroke:#231f20;stroke-width:0.5;stroke-linecap:round;stroke-linejoin:round;stroke-miterlimit:4;stroke-dasharray:2.8, 1.8;stroke-dashoffset:0;stroke-opacity:1"
       id="path702" />
    <path
       d="m 546.442,530.882 c 4.236,1.826 15.38,6.7 17.702,5.538 2.32,-1.16 5.803,-4.176 7.892,-7.195"
       style="fill:none;stroke:#231f20;stroke-width:0.5;stroke-linecap:round;stroke-linejoin:round;stroke-miterlimit:4;stroke-dasharray:2.8, 1.8;stroke-dashoffset:0;stroke-opacity:1"
       id="path704" />
    <path
       d="m 556.884,573.189 c 0,-4.875 1.089,-34.311 2.2,-37.397"
       style="fill:none;stroke:#231f20;stroke-width:0.5;stroke-linecap:round;stroke-linejoin:round;stroke-miterlimit:4;stroke-dasharray:2.8, 1.8;stroke-dashoffset:0;stroke-opacity:1"
       id="path706" />
    <path
       d="m 564.144,536.42 c 1.393,2.323 0.313,28.704 0.156,38.379"
       style="fill:none;stroke:#231f20;stroke-width:0.5;stroke-linecap:round;stroke-linejoin:round;stroke-miterlimit:4;stroke-dasharray:2.8, 1.8;stroke-dashoffset:0;stroke-opacity:1"
       id="path708" />
    <path
       d="m 633.643,514.785 c -9.259,1.439 -13.554,3.994 -17.269,7.94 -3.713,3.945 -18.57,22.982 -20.196,25.071 -1.625,2.089 -5.793,5.339 -8.472,5.339 -4.294,0 -12.94,-6.963 -14.741,-14.856 -1.8,-7.894 -1.16,-13.929 2.785,-18.804 3.947,-4.875 13.464,-11.839 22.518,-15.786 9.054,-3.945 17.41,-6.034 31.571,-6.269"
       style="fill:none;stroke:#231f20;stroke-width:0.5;stroke-linecap:round;stroke-linejoin:round;stroke-miterlimit:4;stroke-dasharray:2.8, 1.8;stroke-dashoffset:0;stroke-opacity:1"
       id="path710" />
    <path
       d="m 638.429,513.672 c 3.018,-0.464 10.179,-2.725 9.982,-6.502 -0.232,-4.409 -0.464,-7.66 -18.572,-9.75"
       style="fill:none;stroke:#231f20;stroke-width:0.5;stroke-linecap:round;stroke-linejoin:round;stroke-miterlimit:4;stroke-dasharray:2.8, 1.8;stroke-dashoffset:0;stroke-opacity:1"
       id="path712" />
    <path
       d="m 568.473,489.945 c 3.33,0.512 14.475,3.297 15.635,3.763 1.16,0.464 2.784,0 5.106,-0.466 2.322,-0.462 21.358,-4.176 30.179,-4.641 8.821,-0.465 19.268,-1.858 21.357,0.696 2.089,2.552 -0.695,7.661 -10.911,8.123"
       style="fill:none;stroke:#231f20;stroke-width:0.5;stroke-linecap:round;stroke-linejoin:round;stroke-miterlimit:4;stroke-dasharray:2.8, 1.8;stroke-dashoffset:0;stroke-opacity:1"
       id="path714" />
    <path
       d="m 641.995,512.761 c 3.565,-0.468 7.112,-1.874 16.862,-9.072 9.75,-7.196 19.731,-15.088 22.982,-17.178"
       style="fill:none;stroke:#231f20;stroke-width:0.5;stroke-linecap:round;stroke-linejoin:round;stroke-miterlimit:4;stroke-dasharray:2.8, 1.8;stroke-dashoffset:0;stroke-opacity:1"
       id="path716" />
    <path
       d="m 640.75,489.297 c 1.162,0.463 1.626,0.928 6.5,0.697 4.876,-0.234 27.626,-1.858 34.589,-3.483"
       style="fill:none;stroke:#231f20;stroke-width:0.5;stroke-linecap:round;stroke-linejoin:round;stroke-miterlimit:4;stroke-dasharray:2.8, 1.8;stroke-dashoffset:0;stroke-opacity:1"
       id="path718" />
    <path
       d="m 620.089,576.465 c 4.179,-2.785 17.063,-13.928 19.153,-15.321 2.089,-1.393 10.097,-9.75 11.142,-11.491 0,0 26.465,-16.249 42.83,-19.964"
       style="fill:none;stroke:#231f20;stroke-width:0.5;stroke-linecap:round;stroke-linejoin:round;stroke-miterlimit:4;stroke-dasharray:2.8, 1.8;stroke-dashoffset:0;stroke-opacity:1"
       id="path720" />
    <path
       d="m 665.736,498.542 c 2.871,6.308 7.748,10.255 14.479,13.503 6.732,3.251 13.233,8.59 12.999,17.644 -0.232,9.054 -6.265,23.446 -13.695,28.321 -7.43,4.875 -19.036,6.036 -32.269,12.535 -13.232,6.501 -16.017,11.376 -22.982,14.162 -6.964,2.786 -12.071,4.411 -13.465,3.018"
       style="fill:none;stroke:#231f20;stroke-width:0.5;stroke-linecap:round;stroke-linejoin:round;stroke-miterlimit:4;stroke-dasharray:2.8, 1.8;stroke-dashoffset:0;stroke-opacity:1"
       id="path722" />
    <path
       d="m 679.519,558.01 c 4.409,-2.09 19.864,-9.053 38.9,-11.607"
       style="fill:none;stroke:#231f20;stroke-width:0.5;stroke-linecap:round;stroke-linejoin:round;stroke-miterlimit:4;stroke-dasharray:2.8, 1.8;stroke-dashoffset:0;stroke-opacity:1"
       id="path724" />
    <path
       d="m 731.286,541.992 c 2.322,0.929 8.126,2.787 12.304,1.162 4.179,-1.626 7.894,-3.017 9.75,-4.179 1.857,-1.161 5.803,-2.785 9.518,-10.446 3.715,-7.661 3.947,-9.982 2.321,-12.071 -1.625,-2.089 -3.713,-4.413 -10.446,-0.696 -6.733,3.713 -14.161,5.337 -21.125,3.481 -6.965,-1.857 -9.982,-9.286 -11.606,-14.161 -1.626,-4.875 -4.179,-10.213 -8.59,-13.696 -4.412,-3.481 -9.286,-5.34 -13.233,-5.108 -3.946,0.233 -5.57,0.699 -7.429,3.019 -1.857,2.321 -3.945,0 -2.785,-1.392 1.161,-1.394 2.785,-2.789 0.928,-3.947 -1.856,-1.163 -3.715,-2.787 -1.393,-3.252 2.322,-0.462 5.34,-2.086 6.5,-3.945 1.161,-1.857 1.163,-5.571 -1.16,-4.177 -2.322,1.392 -4.179,2.785 -4.643,-0.698 -0.464,-3.481 -2.088,-4.409 -3.714,-5.571 -1.625,-1.161 -4.643,-1.857 -5.571,-0.696 -0.929,1.159 -1.859,0.696 -3.251,-1.627 -1.393,-2.321 -8.356,-5.107 -11.374,-3.248 -3.019,1.855 -10.681,6.037 -16.484,6.267 -5.803,0.232 -10.444,0.466 -12.07,1.394 -1.625,0.927 -3.715,1.392 -5.804,-1.394 -2.09,-2.785 -10.677,-8.126 -13.696,-6.732 -3.019,1.392 -11.401,8.055 -17.411,13.463 -2.322,2.09 -8.822,6.037 -11.375,7.661 -2.553,1.627 -0.465,3.947 1.856,2.785 2.323,-1.158 9.288,-5.568 12.305,-8.123 3.016,-2.554 8.819,-7.429 11.374,-8.357 2.555,-0.93 11.377,-3.017 13.001,1.393 1.624,4.41 -0.464,10.678 3.482,12.998 3.946,2.323 9.285,0.465 10.214,-3.017 0.929,-3.482 0.928,-5.802 4.643,-6.733 3.715,-0.928 8.358,-2.32 9.518,-2.552 1.16,-0.234 1.858,2.087 4.179,1.624 2.32,-0.465 4.177,-2.089 5.107,-3.713 0.928,-1.626 5.804,-1.626 8.124,0.231 2.322,1.858 4.179,3.02 6.733,1.858 2.553,-1.161 6.267,0.928 5.339,3.714 -0.928,2.785 -4.178,7.429 -2.322,9.981 1.858,2.554 0.928,5.109 0.928,5.109 -0.928,3.017 1.394,7.661 3.948,8.357 2.554,0.697 6.5,-0.234 12.767,2.552 6.268,2.785 12.071,11.839 15.554,18.341 3.482,6.499 6.035,6.499 11.143,7.427 5.108,0.929 9.286,2.089 12.999,1.161 3.714,-0.927 12.537,-3.714 16.948,-3.018 4.411,0.697 1.856,4.643 -0.233,7.894 -2.09,3.25 -7.661,4.642 -9.981,4.875 -2.321,0.232 -10.216,3.713 -12.769,4.875 -2.552,1.161 -8.799,1.825 -12.013,2.494 -4.179,0.87 -4.701,4.875 -3.745,6.494 1.145,1.94 3.356,5.531 4.616,7.261 1.392,1.915 4.641,3.251 7.892,1.857 3.251,-1.392 9.322,-5.375 12.072,-6.963"
       style="fill:none;stroke:#231f20;stroke-width:0.5;stroke-linecap:round;stroke-linejoin:round;stroke-miterlimit:4;stroke-dasharray:2.8, 1.8;stroke-dashoffset:0;stroke-opacity:1"
       id="path726" />
    <path
       d="m 681.839,486.511 c 3.483,-1.857 17.261,-8.182 23.14,-17.557"
       style="fill:none;stroke:#231f20;stroke-width:0.5;stroke-linecap:round;stroke-linejoin:round;stroke-miterlimit:4;stroke-dasharray:2.8, 1.8;stroke-dashoffset:0;stroke-opacity:1"
       id="path728" />
    <path
       d="m 620.809,488.519 c 2.54,-0.171 5.317,-0.846 5.781,-4.793 0.464,-3.947 -2.322,-6.965 -5.107,-6.502 -2.786,0.465 -6.966,-0.231 -6.501,4.179 0.465,4.412 2.357,7.347 5.827,7.116 z"
       style="fill:none;stroke:#231f20;stroke-width:0.5;stroke-linecap:round;stroke-linejoin:round;stroke-miterlimit:4;stroke-dasharray:2.8, 1.8;stroke-dashoffset:0;stroke-opacity:1"
       id="path730" />
    <path
       d="m 651.197,487.439 c 3.474,-0.32 5.803,-0.696 5.107,-4.409 -0.696,-3.717 -2.554,-6.037 -7.197,-5.572 -4.643,0.462 -4.643,3.251 -3.946,6.268 0.697,3.017 4.4,3.863 6.036,3.713 z"
       style="fill:none;stroke:#231f20;stroke-width:0.5;stroke-linecap:round;stroke-linejoin:round;stroke-miterlimit:4;stroke-dasharray:2.8, 1.8;stroke-dashoffset:0;stroke-opacity:1"
       id="path732" />
    <path
       d="m 671.431,488.022 c 2.798,-0.033 7.392,-2.207 7.158,-6.619 -0.232,-4.41 -0.465,-7.427 -7.892,-6.965 -7.429,0.466 -8.821,4.41 -8.821,6.733 0,2.321 3.785,6.918 9.555,6.851 z"
       style="fill:none;stroke:#231f20;stroke-width:0.5;stroke-linecap:round;stroke-linejoin:round;stroke-miterlimit:4;stroke-dasharray:2.8, 1.8;stroke-dashoffset:0;stroke-opacity:1"
       id="path734" />
    <path
       d="m 640.008,560.551 c -1.569,1.186 -2.972,0.71 -3.436,-2.308 -0.464,-3.019 -2.555,-12.769 -5.572,-18.804 -3.017,-6.035 -10.358,-14.207 2.643,-24.654"
       style="fill:none;stroke:#231f20;stroke-width:0.5;stroke-linecap:round;stroke-linejoin:round;stroke-miterlimit:4;stroke-dasharray:2.8, 1.8;stroke-dashoffset:0;stroke-opacity:1"
       id="path736" />
    <path
       d="m 650.972,549.296 c 0.797,-2.366 2.546,-5.678 2.546,-5.678"
       style="fill:none;stroke:#231f20;stroke-width:0.5;stroke-linecap:round;stroke-linejoin:round;stroke-miterlimit:4;stroke-dasharray:2.8, 1.8;stroke-dashoffset:0;stroke-opacity:1"
       id="path738" />
    <path
       d="m 599.619,569.425 c -3.967,-2.71 -8.047,-8.806 -7.369,-18.118"
       style="fill:none;stroke:#231f20;stroke-width:0.5;stroke-linecap:round;stroke-linejoin:round;stroke-miterlimit:4;stroke-dasharray:2.8, 1.8;stroke-dashoffset:0;stroke-opacity:1"
       id="path740" />
    <path
       d="m 470.357,615.118 c -2.089,-9.75 -12.762,-22.39 -18.804,-19.5 -8.009,3.83 -2.493,18.008 -4.526,27.16 -2.786,12.536 -20.196,26.465 -38.652,25.42 -24.537,-1.388 -45.143,12.723 -27.794,26.558"
       style="fill:none;stroke:#231f20;stroke-width:0.5;stroke-linecap:round;stroke-linejoin:round;stroke-miterlimit:4;stroke-dasharray:2.8, 1.8;stroke-dashoffset:0;stroke-opacity:1"
       id="path742" />
    <path
       d="m 540,779.011 c -23.447,-1.857 -62.911,-14.393 -70.339,-18.107 -7.428,-3.714 -14.393,-5.804 -18.108,-6.152"
       style="fill:none;stroke:#231f20;stroke-width:0.5;stroke-linecap:round;stroke-linejoin:round;stroke-miterlimit:4;stroke-dasharray:2.8, 1.8;stroke-dashoffset:0;stroke-opacity:1"
       id="path744" />
    <path
       d="m 540,661.082 c -13.232,0.464 -15.088,-2.321 -25.768,-2.321 -10.679,0 -31.525,4.65 -37.12,9.289"
       style="fill:none;stroke:#231f20;stroke-width:0.5;stroke-linecap:round;stroke-linejoin:round;stroke-miterlimit:4;stroke-dasharray:2.8, 1.8;stroke-dashoffset:0;stroke-opacity:1"
       id="path746" />
    <path
       d="m 378.856,676.138 c -10.874,-5.77 -108.35,-49.099 -134.13,-59.239"
       style="fill:none;stroke:#231f20;stroke-width:0.5;stroke-linecap:round;stroke-linejoin:round;stroke-miterlimit:4;stroke-dasharray:2.8, 1.8;stroke-dashoffset:0;stroke-opacity:1"
       id="path748" />
    <path
       d="m 374.675,661.296 c -14.121,-9.5 -99.259,-72.175 -112.405,-80.998"
       style="fill:none;stroke:#231f20;stroke-width:0.5;stroke-linecap:round;stroke-linejoin:round;stroke-miterlimit:4;stroke-dasharray:2.8, 1.8;stroke-dashoffset:0;stroke-opacity:1"
       id="path750" />
    <path
       d="M 378.829,655.722 C 367.053,642.046 305.161,567.954 291.072,548.357"
       style="fill:none;stroke:#231f20;stroke-width:0.5;stroke-linecap:round;stroke-linejoin:round;stroke-miterlimit:4;stroke-dasharray:2.8, 1.8;stroke-dashoffset:0;stroke-opacity:1"
       id="path752" />
    <path
       d="M 385.433,651.794 C 378.196,640.189 347.09,575.19 342.447,555.69"
       style="fill:none;stroke:#231f20;stroke-width:0.5;stroke-linecap:round;stroke-linejoin:round;stroke-miterlimit:4;stroke-dasharray:2.8, 1.8;stroke-dashoffset:0;stroke-opacity:1"
       id="path754" />
    <path
       d="M 439.954,635.082 C 432.983,616.975 419.489,577.046 358.668,554.76"
       style="fill:none;stroke:#231f20;stroke-width:0.5;stroke-linecap:round;stroke-linejoin:round;stroke-miterlimit:4;stroke-dasharray:2.8, 1.8;stroke-dashoffset:0;stroke-opacity:1"
       id="path756" />
    <path
       d="m 536.983,610.011 c -7.429,-0.466 -38.958,-1.556 -54.068,10.134"
       style="fill:none;stroke:#231f20;stroke-width:0.5;stroke-linecap:round;stroke-linejoin:round;stroke-miterlimit:4;stroke-dasharray:2.8, 1.8;stroke-dashoffset:0;stroke-opacity:1"
       id="path758" />
    <path
       d="m 540,571.475 c -7.661,-0.93 -39.76,4.902 -52.496,14.754"
       style="fill:none;stroke:#231f20;stroke-width:0.5;stroke-linecap:round;stroke-linejoin:round;stroke-miterlimit:4;stroke-dasharray:2.8, 1.8;stroke-dashoffset:0;stroke-opacity:1"
       id="path760" />
    <path
       d="m 533.558,530.882 c -4.235,1.826 -15.38,6.7 -17.701,5.538 -2.321,-1.16 -5.803,-4.176 -7.893,-7.195"
       style="fill:none;stroke:#231f20;stroke-width:0.5;stroke-linecap:round;stroke-linejoin:round;stroke-miterlimit:4;stroke-dasharray:2.8, 1.8;stroke-dashoffset:0;stroke-opacity:1"
       id="path762" />
    <path
       d="m 523.116,573.189 c 0,-4.875 -1.088,-34.311 -2.2,-37.397"
       style="fill:none;stroke:#231f20;stroke-width:0.5;stroke-linecap:round;stroke-linejoin:round;stroke-miterlimit:4;stroke-dasharray:2.8, 1.8;stroke-dashoffset:0;stroke-opacity:1"
       id="path764" />
    <path
       d="m 515.857,536.42 c -1.393,2.323 -0.315,28.704 -0.157,38.379"
       style="fill:none;stroke:#231f20;stroke-width:0.5;stroke-linecap:round;stroke-linejoin:round;stroke-miterlimit:4;stroke-dasharray:2.8, 1.8;stroke-dashoffset:0;stroke-opacity:1"
       id="path766" />
    <path
       d="m 446.358,514.785 c 9.259,1.439 13.553,3.994 17.268,7.94 3.714,3.945 18.571,22.982 20.196,25.071 1.626,2.089 5.793,5.339 8.472,5.339 4.295,0 12.941,-6.963 14.742,-14.856 1.8,-7.894 1.16,-13.929 -2.786,-18.804 -3.947,-4.875 -13.463,-11.839 -22.517,-15.786 -9.054,-3.945 -17.411,-6.034 -31.572,-6.269"
       style="fill:none;stroke:#231f20;stroke-width:0.5;stroke-linecap:round;stroke-linejoin:round;stroke-miterlimit:4;stroke-dasharray:2.8, 1.8;stroke-dashoffset:0;stroke-opacity:1"
       id="path768" />
    <path
       d="m 441.571,513.672 c -3.017,-0.464 -10.179,-2.725 -9.982,-6.502 0.232,-4.409 0.464,-7.66 18.572,-9.75"
       style="fill:none;stroke:#231f20;stroke-width:0.5;stroke-linecap:round;stroke-linejoin:round;stroke-miterlimit:4;stroke-dasharray:2.8, 1.8;stroke-dashoffset:0;stroke-opacity:1"
       id="path770" />
    <path
       d="m 511.527,489.945 c -3.33,0.512 -14.474,3.297 -15.635,3.763 -1.16,0.464 -2.784,0 -5.105,-0.466 -2.323,-0.462 -21.359,-4.176 -30.18,-4.641 -8.82,-0.465 -19.268,-1.858 -21.357,0.696 -2.088,2.552 0.696,7.661 10.911,8.123"
       style="fill:none;stroke:#231f20;stroke-width:0.5;stroke-linecap:round;stroke-linejoin:round;stroke-miterlimit:4;stroke-dasharray:2.8, 1.8;stroke-dashoffset:0;stroke-opacity:1"
       id="path772" />
    <path
       d="m 438.006,512.761 c -3.565,-0.468 -7.113,-1.874 -16.863,-9.072 -9.75,-7.196 -19.731,-15.088 -22.982,-17.178"
       style="fill:none;stroke:#231f20;stroke-width:0.5;stroke-linecap:round;stroke-linejoin:round;stroke-miterlimit:4;stroke-dasharray:2.8, 1.8;stroke-dashoffset:0;stroke-opacity:1"
       id="path774" />
    <path
       d="m 439.25,489.297 c -1.162,0.463 -1.624,0.928 -6.5,0.697 -4.875,-0.234 -27.624,-1.858 -34.589,-3.483"
       style="fill:none;stroke:#231f20;stroke-width:0.5;stroke-linecap:round;stroke-linejoin:round;stroke-miterlimit:4;stroke-dasharray:2.8, 1.8;stroke-dashoffset:0;stroke-opacity:1"
       id="path776" />
    <path
       d="m 459.911,576.465 c -4.179,-2.785 -17.063,-13.928 -19.152,-15.321 -2.09,-1.393 -10.098,-9.75 -11.143,-11.491 0,0 -26.464,-16.249 -42.83,-19.964"
       style="fill:none;stroke:#231f20;stroke-width:0.5;stroke-linecap:round;stroke-linejoin:round;stroke-miterlimit:4;stroke-dasharray:2.8, 1.8;stroke-dashoffset:0;stroke-opacity:1"
       id="path778" />
    <path
       d="m 414.265,498.542 c -2.872,6.308 -7.748,10.255 -14.479,13.503 -6.733,3.251 -13.233,8.592 -13,17.644 0.232,9.054 6.266,23.446 13.696,28.321 7.429,4.875 19.036,6.036 32.268,12.535 13.232,6.501 16.018,11.376 22.982,14.162 6.965,2.786 12.072,4.411 13.465,3.018"
       style="fill:none;stroke:#231f20;stroke-width:0.5;stroke-linecap:round;stroke-linejoin:round;stroke-miterlimit:4;stroke-dasharray:2.8, 1.8;stroke-dashoffset:0;stroke-opacity:1"
       id="path780" />
    <path
       d="m 400.482,558.01 c -4.41,-2.09 -19.865,-9.053 -38.901,-11.607"
       style="fill:none;stroke:#231f20;stroke-width:0.5;stroke-linecap:round;stroke-linejoin:round;stroke-miterlimit:4;stroke-dasharray:2.8, 1.8;stroke-dashoffset:0;stroke-opacity:1"
       id="path782" />
    <path
       d="m 348.714,541.992 c -2.321,0.929 -8.126,2.787 -12.304,1.162 -4.178,-1.626 -7.893,-3.017 -9.75,-4.179 -1.857,-1.161 -5.803,-2.785 -9.517,-10.446 -3.715,-7.661 -3.948,-9.982 -2.322,-12.071 1.625,-2.089 3.713,-4.413 10.446,-0.696 6.733,3.713 14.161,5.337 21.126,3.482 6.964,-1.858 9.981,-9.287 11.607,-14.162 1.625,-4.875 4.178,-10.213 8.589,-13.696 4.411,-3.481 9.287,-5.34 13.233,-5.108 3.945,0.233 5.569,0.699 7.428,3.019 1.858,2.321 3.946,0 2.786,-1.392 -1.161,-1.394 -2.786,-2.789 -0.928,-3.947 1.856,-1.163 3.714,-2.787 1.392,-3.252 -2.322,-0.462 -5.339,-2.086 -6.5,-3.945 -1.161,-1.857 -1.162,-5.571 1.161,-4.177 2.321,1.392 4.179,2.785 4.643,-0.698 0.464,-3.481 2.088,-4.409 3.713,-5.571 1.626,-1.161 4.643,-1.857 5.571,-0.696 0.93,1.159 1.859,0.696 3.251,-1.627 1.394,-2.321 8.357,-5.107 11.374,-3.248 3.019,1.855 10.681,6.037 16.484,6.267 5.803,0.232 10.445,0.466 12.07,1.394 1.626,0.927 3.715,1.392 5.805,-1.394 2.089,-2.785 10.678,-8.126 13.695,-6.732 3.019,1.392 11.401,8.055 17.411,13.463 2.322,2.09 8.822,6.037 11.375,7.661 2.554,1.627 0.466,3.947 -1.856,2.785 -2.321,-1.158 -9.287,-5.568 -12.305,-8.123 -3.016,-2.554 -8.819,-7.429 -11.374,-8.357 -2.554,-0.93 -11.377,-3.017 -13.001,1.393 -1.624,4.41 0.464,10.678 -3.481,12.998 -3.947,2.323 -9.286,0.465 -10.214,-3.017 -0.93,-3.482 -0.928,-5.802 -4.643,-6.733 -3.715,-0.928 -8.358,-2.32 -9.518,-2.552 -1.161,-0.234 -1.859,2.087 -4.179,1.624 -2.321,-0.465 -4.178,-2.089 -5.106,-3.713 -0.929,-1.626 -5.806,-1.626 -8.126,0.231 -2.321,1.858 -4.179,3.02 -6.732,1.858 -2.554,-1.161 -6.267,0.928 -5.339,3.714 0.928,2.785 4.177,7.429 2.321,9.981 -1.857,2.554 -0.928,5.109 -0.928,5.109 0.928,3.017 -1.393,7.661 -3.947,8.357 -2.555,0.697 -6.499,-0.234 -12.767,2.552 -6.269,2.785 -12.072,11.839 -15.555,18.341 -3.482,6.499 -6.035,6.499 -11.142,7.427 -5.108,0.929 -9.286,2.089 -13,1.161 -3.713,-0.927 -12.535,-3.714 -16.947,-3.018 -4.411,0.697 -1.857,4.643 0.233,7.894 2.089,3.25 7.66,4.642 9.981,4.875 2.321,0.232 10.215,3.713 12.768,4.875 2.554,1.161 8.8,1.825 12.014,2.494 4.178,0.87 4.701,4.875 3.745,6.494 -1.146,1.94 -3.356,5.531 -4.616,7.261 -1.393,1.915 -4.642,3.251 -7.893,1.857 -3.251,-1.392 -9.321,-5.375 -12.07,-6.963"
       style="fill:none;stroke:#231f20;stroke-width:0.5;stroke-linecap:round;stroke-linejoin:round;stroke-miterlimit:4;stroke-dasharray:2.8, 1.8;stroke-dashoffset:0;stroke-opacity:1"
       id="path784" />
    <path
       d="m 398.161,486.511 c -3.482,-1.857 -17.261,-8.182 -23.14,-17.557"
       style="fill:none;stroke:#231f20;stroke-width:0.5;stroke-linecap:round;stroke-linejoin:round;stroke-miterlimit:4;stroke-dasharray:2.8, 1.8;stroke-dashoffset:0;stroke-opacity:1"
       id="path786" />
    <path
       d="m 459.191,488.519 c -2.539,-0.171 -5.316,-0.846 -5.78,-4.793 -0.464,-3.947 2.321,-6.965 5.107,-6.502 2.785,0.465 6.966,-0.231 6.5,4.179 -0.465,4.412 -2.357,7.347 -5.827,7.116 z"
       style="fill:none;stroke:#231f20;stroke-width:0.5;stroke-linecap:round;stroke-linejoin:round;stroke-miterlimit:4;stroke-dasharray:2.8, 1.8;stroke-dashoffset:0;stroke-opacity:1"
       id="path788" />
    <path
       d="m 428.804,487.439 c -3.475,-0.32 -5.804,-0.696 -5.107,-4.409 0.696,-3.717 2.553,-6.037 7.196,-5.572 4.643,0.462 4.643,3.251 3.946,6.268 -0.696,3.017 -4.4,3.863 -6.035,3.713 z"
       style="fill:none;stroke:#231f20;stroke-width:0.5;stroke-linecap:round;stroke-linejoin:round;stroke-miterlimit:4;stroke-dasharray:2.8, 1.8;stroke-dashoffset:0;stroke-opacity:1"
       id="path790" />
    <path
       d="m 408.57,488.022 c -2.798,-0.033 -7.392,-2.207 -7.159,-6.619 0.232,-4.41 0.465,-7.427 7.893,-6.965 7.428,0.466 8.821,4.41 8.821,6.733 0,2.321 -3.786,6.918 -9.555,6.851 z"
       style="fill:none;stroke:#231f20;stroke-width:0.5;stroke-linecap:round;stroke-linejoin:round;stroke-miterlimit:4;stroke-dasharray:2.8, 1.8;stroke-dashoffset:0;stroke-opacity:1"
       id="path792" />
    <path
       d="m 439.992,560.551 c 1.569,1.186 2.973,0.71 3.437,-2.308 0.464,-3.019 2.555,-12.769 5.571,-18.804 3.017,-6.035 10.359,-14.207 -2.642,-24.654"
       style="fill:none;stroke:#231f20;stroke-width:0.5;stroke-linecap:round;stroke-linejoin:round;stroke-miterlimit:4;stroke-dasharray:2.8, 1.8;stroke-dashoffset:0;stroke-opacity:1"
       id="path794" />
    <path
       d="m 429.029,549.296 c -0.798,-2.366 -2.547,-5.678 -2.547,-5.678"
       style="fill:none;stroke:#231f20;stroke-width:0.5;stroke-linecap:round;stroke-linejoin:round;stroke-miterlimit:4;stroke-dasharray:2.8, 1.8;stroke-dashoffset:0;stroke-opacity:1"
       id="path796" />
    <path
       d="m 480.382,569.425 c 3.966,-2.71 8.047,-8.806 7.368,-18.118"
       style="fill:none;stroke:#231f20;stroke-width:0.5;stroke-linecap:round;stroke-linejoin:round;stroke-miterlimit:4;stroke-dasharray:2.8, 1.8;stroke-dashoffset:0;stroke-opacity:1"
       id="path798" />
  </g>
</svg>
