<?xml version="1.0" encoding="UTF-8" standalone="no"?>
<!-- Created with Inkscape (http://www.inkscape.org/) -->

<svg
   version="1.1"
   id="svg2"
   width="1440"
   height="1344"
   viewBox="0 0 1440 1344"
   xmlns="http://www.w3.org/2000/svg"
   xmlns:svg="http://www.w3.org/2000/svg">
  <defs
     id="defs6" />
  <g
     id="g10">
    <path
       d="m 231.482,745.092 c 12.071,39.464 27.857,71.5 65,98.893 37.144,27.392 88.679,41.322 128.607,44.571 39.929,3.25 66.394,-11.606 90.071,-30.642 23.678,-19.037 24.84,-26.43 24.84,-32.473 0,0 0,-135.01 0,-221.814 -1.923,0 -3.482,-2.494 -3.482,-5.571 0,-3.077 1.559,-5.571 3.482,-5.571 0,-7.069 0,-13.729 0,-19.849 -1.923,0 -3.482,-2.961 -3.482,-6.616 0,-3.654 1.559,-6.616 3.482,-6.616 0,-14.204 0,-23.808 0,-26.464 0,-16.257 -26.232,-36.215 -29.946,-38.536 -3.715,-2.322 -17.643,-20.428 -22.75,-26.929 -5.106,-6.5 -29.25,-9.75 -39.466,-10.214 -10.214,-0.464 -12.999,2.321 -27.391,6.965 -14.393,4.644 -68.25,29.25 -90.072,51.07 -21.822,21.821 -8.357,32.501 -8.357,32.501 -38.537,-8.357 -73.358,73.822 -83.572,101.679 -10.214,27.858 -19.036,56.152 -6.964,95.616"
       style="fill:#ffffff;fill-opacity:1;fill-rule:nonzero;stroke:none;stroke-width:0.1"
       id="path616" />
    <path
       d="m 231.482,745.092 c 12.071,39.464 27.857,71.5 65,98.893 37.144,27.392 88.679,41.322 128.607,44.571 39.929,3.25 66.394,-11.606 90.071,-30.642 23.678,-19.037 24.84,-26.43 24.84,-32.473 0,0 0,-135.01 0,-221.814 -1.923,0 -3.482,-2.494 -3.482,-5.571 0,-3.077 1.559,-5.571 3.482,-5.571 0,-7.069 0,-13.729 0,-19.849 -1.923,0 -3.482,-2.961 -3.482,-6.616 0,-3.654 1.559,-6.616 3.482,-6.616 0,-14.204 0,-23.808 0,-26.464 0,-16.257 -26.232,-36.215 -29.946,-38.536 -3.715,-2.322 -17.643,-20.428 -22.75,-26.929 -5.106,-6.5 -29.25,-9.75 -39.466,-10.214 -10.214,-0.464 -12.999,2.321 -27.391,6.965 -14.393,4.644 -68.25,29.25 -90.072,51.07 -21.822,21.821 -8.357,32.501 -8.357,32.501 -38.537,-8.357 -73.358,73.822 -83.572,101.679 -10.214,27.858 -19.036,56.152 -6.964,95.616 z"
       style="fill:none;stroke:#231f20;stroke-width:0.75;stroke-linecap:round;stroke-linejoin:round;stroke-miterlimit:4;stroke-dasharray:none;stroke-opacity:1"
       id="path618" />
    <path
       d="m 476.626,628.584 c 3.249,9.285 2.321,20.427 -1.394,39.927 -3.715,19.5 -15.321,52.929 -16.714,57.571 -1.392,4.644 -6.731,25.363 -12.072,30.644 -4.03,3.985 -13.927,7.429 -21.82,0.464 -7.894,-6.964 -23.266,-24.044 -27.394,-30.643 -6.5,-10.388 -8.588,-21.415 3.482,-31.165 12.071,-9.75 35.982,-18.048 45.268,-25.478 9.286,-7.428 23.215,-22.749 30.644,-41.32 z"
       style="fill:none;stroke:#231f20;stroke-width:0.5;stroke-linecap:butt;stroke-linejoin:miter;stroke-miterlimit:4;stroke-dasharray:none;stroke-opacity:1"
       id="path620" />
    <path
       d="m 848.519,745.092 c -12.072,39.464 -27.857,71.5 -65.001,98.893 -37.144,27.392 -88.678,41.322 -128.606,44.571 -39.93,3.25 -66.394,-11.606 -90.072,-30.642 C 541.162,838.877 540,831.484 540,825.441 c 0,0 0,-135.01 0,-221.814 1.923,0 3.482,-2.494 3.482,-5.571 0,-3.077 -1.559,-5.571 -3.482,-5.571 0,-7.069 0,-13.729 0,-19.849 1.923,0 3.482,-2.961 3.482,-6.616 0,-3.654 -1.559,-6.616 -3.482,-6.616 0,-14.204 0,-23.808 0,-26.464 0,-16.257 26.232,-36.215 29.947,-38.536 3.715,-2.322 17.643,-20.428 22.749,-26.929 5.106,-6.5 29.251,-9.75 39.466,-10.214 10.214,-0.464 12.999,2.321 27.391,6.965 14.393,4.644 68.25,29.25 90.073,51.07 21.822,21.821 8.357,32.501 8.357,32.501 38.536,-8.357 73.357,73.822 83.571,101.679 10.214,27.858 19.036,56.152 6.965,95.616"
       style="fill:#ffffff;fill-opacity:1;fill-rule:nonzero;stroke:none;stroke-width:0.1"
       id="path622" />
    <path
       d="m 848.519,745.092 c -12.072,39.464 -27.857,71.5 -65.001,98.893 -37.144,27.392 -88.678,41.322 -128.606,44.571 -39.93,3.25 -66.394,-11.606 -90.072,-30.642 C 541.162,838.877 540,831.484 540,825.441 c 0,0 0,-135.01 0,-221.814 1.923,0 3.482,-2.494 3.482,-5.571 0,-3.077 -1.559,-5.571 -3.482,-5.571 0,-7.069 0,-13.729 0,-19.849 1.923,0 3.482,-2.961 3.482,-6.616 0,-3.654 -1.559,-6.616 -3.482,-6.616 0,-14.204 0,-23.808 0,-26.464 0,-16.257 26.232,-36.215 29.947,-38.536 3.715,-2.322 17.643,-20.428 22.749,-26.929 5.106,-6.5 29.251,-9.75 39.466,-10.214 10.214,-0.464 12.999,2.321 27.391,6.965 14.393,4.644 68.25,29.25 90.073,51.07 21.822,21.821 8.357,32.501 8.357,32.501 38.536,-8.357 73.357,73.822 83.571,101.679 10.214,27.858 19.036,56.152 6.965,95.616 z"
       style="fill:none;stroke:#231f20;stroke-width:0.75;stroke-linecap:round;stroke-linejoin:round;stroke-miterlimit:4;stroke-dasharray:none;stroke-opacity:1"
       id="path624" />
    <path
       d="m 603.376,628.584 c -3.25,9.285 -2.323,20.427 1.392,39.927 3.715,19.5 15.321,52.929 16.715,57.571 1.393,4.644 6.731,25.363 12.071,30.644 4.03,3.985 13.928,7.429 21.82,0.464 7.894,-6.964 23.266,-24.044 27.394,-30.643 6.501,-10.388 8.589,-21.415 -3.481,-31.165 -12.072,-9.75 -35.983,-18.048 -45.269,-25.478 -9.286,-7.428 -23.215,-22.749 -30.642,-41.32 z"
       style="fill:none;stroke:#231f20;stroke-width:0.5;stroke-linecap:butt;stroke-linejoin:miter;stroke-miterlimit:4;stroke-dasharray:none;stroke-opacity:1"
       id="path626" />
    <path
       d="m 710.262,562.557 c 5.572,-1.741 38.319,-11.046 47.721,-14.76"
       style="fill:none;stroke:#231f20;stroke-width:0.5;stroke-linecap:butt;stroke-linejoin:miter;stroke-miterlimit:4;stroke-dasharray:none;stroke-opacity:1"
       id="path628" />
    <path
       d="m 730.015,499.85 c -6.506,2.447 -16.256,8.715 -24.265,2.447 -8.008,-6.268 -15.373,-16.693 -26.463,-23.331 -11.214,-6.711 -19.618,-12.766 -19.734,-14.74"
       style="fill:none;stroke:#231f20;stroke-width:0.5;stroke-linecap:butt;stroke-linejoin:miter;stroke-miterlimit:4;stroke-dasharray:none;stroke-opacity:1"
       id="path630" />
    <path
       d="m 637.037,550.815 c 3.705,0.239 11.375,-3.714 12.536,-9.75 1.16,-6.036 -2.09,-11.375 -9.75,-12.768 -7.661,-1.392 -11.375,-3.018 -18.804,1.161 -7.43,4.178 -7.429,12.072 -4.179,14.624 3.249,2.554 12.999,6.269 20.197,6.733 z"
       style="fill:none;stroke:#231f20;stroke-width:0.5;stroke-linecap:butt;stroke-linejoin:miter;stroke-miterlimit:4;stroke-dasharray:none;stroke-opacity:1"
       id="path632" />
    <path
       d="m 599.661,560.565 c 0,0 2.819,-0.245 5.9,2.934 1.857,1.915 4.953,2.521 11.511,0.547 -1.858,2.555 -9.881,11.168 -13,10.68 -2.786,-0.436 -3.345,-2.901 -4.643,-5.108 -1.177,-1.999 -5.34,-9.516 0.232,-9.053"
       style="fill:#b2b1b1;fill-opacity:1;fill-rule:nonzero;stroke:none;stroke-width:0.1"
       id="path634" />
    <path
       d="m 599.661,560.565 c 0,0 2.819,-0.245 5.9,2.934 1.857,1.915 4.953,2.521 11.511,0.547 -1.858,2.555 -9.881,11.168 -13,10.68 -2.786,-0.436 -3.345,-2.901 -4.643,-5.108 -1.177,-1.999 -5.34,-9.516 0.232,-9.053 z"
       style="fill:none;stroke:#231f20;stroke-width:0.5;stroke-linecap:butt;stroke-linejoin:miter;stroke-miterlimit:4;stroke-dasharray:none;stroke-opacity:1"
       id="path636" />
    <path
       d="m 369.738,562.557 c -5.572,-1.741 -38.319,-11.046 -47.72,-14.76"
       style="fill:none;stroke:#231f20;stroke-width:0.5;stroke-linecap:butt;stroke-linejoin:miter;stroke-miterlimit:4;stroke-dasharray:none;stroke-opacity:1"
       id="path638" />
    <path
       d="m 349.985,499.85 c 6.506,2.447 16.256,8.715 24.265,2.447 8.009,-6.268 15.373,-16.693 26.464,-23.331 11.214,-6.711 19.618,-12.766 19.733,-14.74"
       style="fill:none;stroke:#231f20;stroke-width:0.5;stroke-linecap:butt;stroke-linejoin:miter;stroke-miterlimit:4;stroke-dasharray:none;stroke-opacity:1"
       id="path640" />
    <path
       d="m 442.963,550.815 c -3.705,0.239 -11.375,-3.714 -12.535,-9.75 -1.16,-6.036 2.089,-11.375 9.75,-12.768 7.66,-1.392 11.374,-3.018 18.804,1.161 7.43,4.178 7.428,12.072 4.179,14.624 -3.25,2.554 -13,6.269 -20.198,6.733 z"
       style="fill:none;stroke:#231f20;stroke-width:0.5;stroke-linecap:butt;stroke-linejoin:miter;stroke-miterlimit:4;stroke-dasharray:none;stroke-opacity:1"
       id="path642" />
    <path
       d="m 480.339,560.565 c 0,0 -2.819,-0.245 -5.9,2.934 -1.856,1.915 -4.952,2.521 -11.51,0.547 1.857,2.555 9.881,11.168 12.999,10.68 2.786,-0.436 3.345,-2.901 4.643,-5.108 1.177,-1.999 5.341,-9.516 -0.232,-9.053"
       style="fill:#b2b1b1;fill-opacity:1;fill-rule:nonzero;stroke:none;stroke-width:0.1"
       id="path644" />
    <path
       d="m 480.339,560.565 c 0,0 -2.819,-0.245 -5.9,2.934 -1.856,1.915 -4.952,2.521 -11.51,0.547 1.857,2.555 9.881,11.168 12.999,10.68 2.786,-0.436 3.345,-2.901 4.643,-5.108 1.177,-1.999 5.341,-9.516 -0.232,-9.053 z"
       style="fill:none;stroke:#231f20;stroke-width:0.5;stroke-linecap:butt;stroke-linejoin:miter;stroke-miterlimit:4;stroke-dasharray:none;stroke-opacity:1"
       id="path646" />
    <path
       d="m 529.032,508.147 c 0.394,-0.817 0.096,-1.764 -0.628,-2.14 -0.706,-0.365 -1.606,-0.081 -2.045,0.661 -0.459,0.776 -0.26,1.788 0.488,2.229 0.774,0.46 1.769,0.108 2.185,-0.75"
       style="fill:#ffffff;fill-opacity:1;fill-rule:nonzero;stroke:none;stroke-width:0.1"
       id="path648" />
    <path
       d="m 529.032,508.147 c 0.394,-0.817 0.096,-1.764 -0.628,-2.14 -0.706,-0.365 -1.606,-0.081 -2.045,0.661 -0.459,0.776 -0.26,1.788 0.488,2.229 0.774,0.46 1.769,0.108 2.185,-0.75 z"
       style="fill:none;stroke:#231f20;stroke-width:0.5;stroke-linecap:round;stroke-linejoin:round;stroke-miterlimit:4;stroke-dasharray:none;stroke-opacity:1"
       id="path650" />
    <path
       d="m 550.969,508.147 c -0.394,-0.817 -0.098,-1.764 0.628,-2.14 0.705,-0.365 1.606,-0.081 2.043,0.661 0.46,0.776 0.262,1.788 -0.486,2.229 -0.773,0.46 -1.769,0.108 -2.185,-0.75"
       style="fill:#ffffff;fill-opacity:1;fill-rule:nonzero;stroke:none;stroke-width:0.1"
       id="path652" />
    <path
       d="m 550.969,508.147 c -0.394,-0.817 -0.098,-1.764 0.628,-2.14 0.705,-0.365 1.606,-0.081 2.043,0.661 0.46,0.776 0.262,1.788 -0.486,2.229 -0.773,0.46 -1.769,0.108 -2.185,-0.75 z"
       style="fill:none;stroke:#231f20;stroke-width:0.5;stroke-linecap:round;stroke-linejoin:round;stroke-miterlimit:4;stroke-dasharray:none;stroke-opacity:1"
       id="path654" />
    <path
       d="m 421.026,683.427 c -11.399,1.46 -31.107,3.947 -31.222,-8.416 -0.087,-9.285 1.755,-12.961 20.428,-17.177 12.438,-2.811 23.566,-8.006 32.231,-14.439 6.374,-4.732 11.415,-10.133 14.663,-15.74 6.709,-11.591 6.267,-17.875 9.75,-19.964 1.876,-1.127 10.678,-1.394 9.75,20.893"
       style="fill:none;stroke:#231f20;stroke-width:0.5;stroke-linecap:round;stroke-linejoin:round;stroke-miterlimit:4;stroke-dasharray:2.8, 1.8;stroke-dashoffset:0;stroke-opacity:1"
       id="path656" />
    <path
       d="m 511.138,861.081 c -5.57,-7.428 -66.447,-97.138 -68.921,-101.516"
       style="fill:none;stroke:#231f20;stroke-width:0.5;stroke-linecap:round;stroke-linejoin:round;stroke-miterlimit:4;stroke-dasharray:2.8, 1.8;stroke-dashoffset:0;stroke-opacity:1"
       id="path658" />
    <path
       d="m 425.089,888.556 c 0.464,-13.464 6.623,-119.743 7.954,-127.643"
       style="fill:none;stroke:#231f20;stroke-width:0.5;stroke-linecap:round;stroke-linejoin:round;stroke-miterlimit:4;stroke-dasharray:2.8, 1.8;stroke-dashoffset:0;stroke-opacity:1"
       id="path660" />
    <path
       d="m 406.494,738.303 c -12.815,8.609 -120.157,80.013 -130.476,88.048"
       style="fill:none;stroke:#231f20;stroke-width:0.5;stroke-linecap:round;stroke-linejoin:round;stroke-miterlimit:4;stroke-dasharray:2.8, 1.8;stroke-dashoffset:0;stroke-opacity:1"
       id="path662" />
    <path
       d="M 399.811,730.187 C 384.739,737.289 265.22,791.548 252.91,796.292"
       style="fill:none;stroke:#231f20;stroke-width:0.5;stroke-linecap:round;stroke-linejoin:round;stroke-miterlimit:4;stroke-dasharray:2.8, 1.8;stroke-dashoffset:0;stroke-opacity:1"
       id="path664" />
    <path
       d="M 400.359,684.29 C 384.373,683.213 273.854,649.871 244.775,633.423"
       style="fill:none;stroke:#231f20;stroke-width:0.5;stroke-linecap:round;stroke-linejoin:round;stroke-miterlimit:4;stroke-dasharray:2.8, 1.8;stroke-dashoffset:0;stroke-opacity:1"
       id="path666" />
    <path
       d="M 389.664,672.681 C 364.848,664.217 280.97,617.313 258.78,603.68"
       style="fill:none;stroke:#231f20;stroke-width:0.5;stroke-linecap:round;stroke-linejoin:round;stroke-miterlimit:4;stroke-dasharray:2.8, 1.8;stroke-dashoffset:0;stroke-opacity:1"
       id="path668" />
    <path
       d="M 390.116,668.598 C 370.072,657.949 299.584,596.428 279.693,570.951"
       style="fill:none;stroke:#231f20;stroke-width:0.5;stroke-linecap:round;stroke-linejoin:round;stroke-miterlimit:4;stroke-dasharray:2.8, 1.8;stroke-dashoffset:0;stroke-opacity:1"
       id="path670" />
    <path
       d="m 392.065,665.157 c -29.19,-22.181 -60.297,-75.11 -75.15,-117.945"
       style="fill:none;stroke:#231f20;stroke-width:0.5;stroke-linecap:round;stroke-linejoin:round;stroke-miterlimit:4;stroke-dasharray:2.8, 1.8;stroke-dashoffset:0;stroke-opacity:1"
       id="path672" />
    <path
       d="m 658.974,683.427 c 11.399,1.46 31.107,3.947 31.223,-8.416 0.087,-9.285 -1.755,-12.961 -20.428,-17.177 -12.439,-2.811 -23.567,-8.006 -32.231,-14.439 -6.374,-4.732 -11.415,-10.133 -14.662,-15.74 -6.71,-11.591 -6.268,-17.875 -9.75,-19.964 -1.877,-1.127 -10.679,-1.394 -9.75,20.893"
       style="fill:none;stroke:#231f20;stroke-width:0.5;stroke-linecap:round;stroke-linejoin:round;stroke-miterlimit:4;stroke-dasharray:2.8, 1.8;stroke-dashoffset:0;stroke-opacity:1"
       id="path674" />
    <path
       d="m 540,797.119 c 10.447,-4.643 81.916,-38.778 90.985,-43.764"
       style="fill:none;stroke:#231f20;stroke-width:0.5;stroke-linecap:round;stroke-linejoin:round;stroke-miterlimit:4;stroke-dasharray:2.8, 1.8;stroke-dashoffset:0;stroke-opacity:1"
       id="path676" />
    <path
       d="m 568.863,861.081 c 5.57,-7.428 66.446,-97.138 68.921,-101.516"
       style="fill:none;stroke:#231f20;stroke-width:0.5;stroke-linecap:round;stroke-linejoin:round;stroke-miterlimit:4;stroke-dasharray:2.8, 1.8;stroke-dashoffset:0;stroke-opacity:1"
       id="path678" />
    <path
       d="m 654.912,888.556 c -0.464,-13.464 -6.623,-119.743 -7.955,-127.643"
       style="fill:none;stroke:#231f20;stroke-width:0.5;stroke-linecap:round;stroke-linejoin:round;stroke-miterlimit:4;stroke-dasharray:2.8, 1.8;stroke-dashoffset:0;stroke-opacity:1"
       id="path680" />
    <path
       d="m 673.506,738.303 c 12.815,8.609 120.157,80.013 130.477,88.048"
       style="fill:none;stroke:#231f20;stroke-width:0.5;stroke-linecap:round;stroke-linejoin:round;stroke-miterlimit:4;stroke-dasharray:2.8, 1.8;stroke-dashoffset:0;stroke-opacity:1"
       id="path682" />
    <path
       d="m 680.189,730.187 c 15.073,7.102 134.591,61.361 146.902,66.105"
       style="fill:none;stroke:#231f20;stroke-width:0.5;stroke-linecap:round;stroke-linejoin:round;stroke-miterlimit:4;stroke-dasharray:2.8, 1.8;stroke-dashoffset:0;stroke-opacity:1"
       id="path684" />
    <path
       d="m 679.641,684.29 c 15.986,-1.077 126.506,-34.419 155.584,-50.867"
       style="fill:none;stroke:#231f20;stroke-width:0.5;stroke-linecap:round;stroke-linejoin:round;stroke-miterlimit:4;stroke-dasharray:2.8, 1.8;stroke-dashoffset:0;stroke-opacity:1"
       id="path686" />
    <path
       d="M 690.336,672.681 C 715.152,664.217 799.03,617.313 821.22,603.68"
       style="fill:none;stroke:#231f20;stroke-width:0.5;stroke-linecap:round;stroke-linejoin:round;stroke-miterlimit:4;stroke-dasharray:2.8, 1.8;stroke-dashoffset:0;stroke-opacity:1"
       id="path688" />
    <path
       d="m 689.885,668.598 c 20.044,-10.649 90.531,-72.17 110.422,-97.647"
       style="fill:none;stroke:#231f20;stroke-width:0.5;stroke-linecap:round;stroke-linejoin:round;stroke-miterlimit:4;stroke-dasharray:2.8, 1.8;stroke-dashoffset:0;stroke-opacity:1"
       id="path690" />
    <path
       d="m 687.936,665.157 c 29.19,-22.181 60.297,-75.11 75.15,-117.945"
       style="fill:none;stroke:#231f20;stroke-width:0.5;stroke-linecap:round;stroke-linejoin:round;stroke-miterlimit:4;stroke-dasharray:2.8, 1.8;stroke-dashoffset:0;stroke-opacity:1"
       id="path692" />
    <path
       d="m 660.671,655.286 c -0.884,-8.828 -4.329,-62.487 30.455,-82.997 12.785,-7.54 17.047,-9.036 19.136,-9.732"
       style="fill:none;stroke:#231f20;stroke-width:0.5;stroke-linecap:round;stroke-linejoin:round;stroke-miterlimit:4;stroke-dasharray:2.8, 1.8;stroke-dashoffset:0;stroke-opacity:1"
       id="path694" />
    <path
       d="m 540,667.699 c 8.706,0 58.5,0.581 64.768,0.812"
       style="fill:none;stroke:#231f20;stroke-width:0.5;stroke-linecap:round;stroke-linejoin:round;stroke-miterlimit:4;stroke-dasharray:2.8, 1.8;stroke-dashoffset:0;stroke-opacity:1"
       id="path696" />
    <path
       d="m 540,610.592 c 11.143,0.697 59.838,1.82 65.263,1.954"
       style="fill:none;stroke:#231f20;stroke-width:0.5;stroke-linecap:round;stroke-linejoin:round;stroke-miterlimit:4;stroke-dasharray:2.8, 1.8;stroke-dashoffset:0;stroke-opacity:1"
       id="path698" />
    <path
       d="m 607.622,608.92 c -1.113,-5.293 -0.764,-20.433 4.807,-32.272"
       style="fill:none;stroke:#231f20;stroke-width:0.5;stroke-linecap:round;stroke-linejoin:round;stroke-miterlimit:4;stroke-dasharray:2.8, 1.8;stroke-dashoffset:0;stroke-opacity:1"
       id="path700" />
    <path
       d="m 691.839,571.868 c 0,0 -2.106,-13.16 -2.455,-16.294 -0.347,-3.134 2.786,-6.384 8.705,-7.66 3.807,-0.821 26.117,-6.269 30.992,-7.313 4.875,-1.045 14.973,-4.179 14.277,-8.01 -0.696,-3.83 -10.099,-2.901 -16.018,-2.901 -5.92,0 -24.376,-0.929 -28.553,-1.276 -4.179,-0.349 -8.59,-0.582 -9.403,-6.037 -0.842,-5.668 -1.246,-7.21 -2.437,-9.866 -1.51,-3.365 -2.902,-4.991 -4.875,-4.991 -1.393,0 -6.268,1.045 -6.268,-2.089 0,-3.134 0.348,-7.312 -3.83,-6.965 -4.179,0.349 -10.447,1.742 -12.885,-1.044 -2.437,-2.786 -3.83,-5.223 -7.66,-2.437 -3.83,2.785 -10.605,2.437 -9.561,-1.741"
       style="fill:none;stroke:#231f20;stroke-width:0.5;stroke-linecap:round;stroke-linejoin:round;stroke-miterlimit:4;stroke-dasharray:2.8, 1.8;stroke-dashoffset:0;stroke-opacity:1"
       id="path702" />
    <path
       d="m 643.249,489.065 c 0.522,-1.619 1.912,-3.134 8.18,-2.09 6.268,1.045 20.893,4.875 22.634,5.224 1.741,0.348 5.92,2.089 6.268,4.875 0.348,2.786 0.348,5.223 0.348,5.223 0,0 5.571,-2.786 8.705,1.393 3.134,4.179 7.661,14.625 11.143,17.062 3.482,2.438 14.277,3.134 22.635,3.134 8.356,0 15.321,0 20.196,0.349 4.875,0.347 6.964,2.437 7.312,7.312 0.348,4.875 -0.696,7.661 -10.446,11.143 -9.75,3.482 -39.362,8.913 -50.673,14.207"
       style="fill:none;stroke:#231f20;stroke-width:0.5;stroke-linecap:round;stroke-linejoin:round;stroke-miterlimit:4;stroke-dasharray:2.8, 1.8;stroke-dashoffset:0;stroke-opacity:1"
       id="path704" />
    <path
       d="m 658.742,551.744 c 6.267,0.347 27.734,0.683 30.691,2.499"
       style="fill:none;stroke:#231f20;stroke-width:0.5;stroke-linecap:round;stroke-linejoin:round;stroke-miterlimit:4;stroke-dasharray:2.8, 1.8;stroke-dashoffset:0;stroke-opacity:1"
       id="path706" />
    <path
       d="m 570.843,493.716 c 3.63,-1.866 6.765,-5 16.515,-4.651 9.75,0.348 27.856,3.134 33.08,3.83 5.223,0.696 11.839,2.437 11.491,5.224 -0.348,2.785 -3.047,2.698 -6.268,1.762"
       style="fill:none;stroke:#231f20;stroke-width:0.5;stroke-linecap:round;stroke-linejoin:round;stroke-miterlimit:4;stroke-dasharray:2.8, 1.8;stroke-dashoffset:0;stroke-opacity:1"
       id="path708" />
    <path
       d="M 580.498,512.666 C 577.016,510.228 566.495,501.37 564.216,498.7"
       style="fill:none;stroke:#231f20;stroke-width:0.5;stroke-linecap:round;stroke-linejoin:round;stroke-miterlimit:4;stroke-dasharray:2.8, 1.8;stroke-dashoffset:0;stroke-opacity:1"
       id="path710" />
    <path
       d="m 593.277,482.797 c 3.286,-1.346 6.965,-4.178 5.92,-7.312 -1.045,-3.135 -5.859,-3.363 -10.099,-0.697 -4.239,2.666 -4.875,5.223 -3.83,6.964 1.045,1.742 5.273,2.167 8.009,1.045 z"
       style="fill:none;stroke:#231f20;stroke-width:0.5;stroke-linecap:round;stroke-linejoin:round;stroke-miterlimit:4;stroke-dasharray:2.8, 1.8;stroke-dashoffset:0;stroke-opacity:1"
       id="path712" />
    <path
       d="m 634.714,526.905 c 0,0 2.088,-10.448 3.25,-16.484 1.162,-6.035 3.715,-16.946 4.412,-18.803 0.696,-1.857 1.624,-6.268 3.946,-8.357 2.321,-2.09 11.142,-7.892 13.231,-19.035"
       style="fill:none;stroke:#231f20;stroke-width:0.5;stroke-linecap:round;stroke-linejoin:round;stroke-miterlimit:4;stroke-dasharray:2.8, 1.8;stroke-dashoffset:0;stroke-opacity:1"
       id="path714" />
    <path
       d="m 618,488.832 c -2.01,-1.532 -1.536,-4.098 1.626,-7.661 3.26,-3.674 8.822,-11.608 11.839,-13.928 3.017,-2.321 4.869,-3.2 6.732,-3.017 2.96,0.29 5.31,3.162 6.035,5.106 0.799,2.142 0.816,9.201 0.696,11.376 -0.09,1.639 -0.386,3.97 -1.913,3.832 -2.094,-0.191 -2.031,-2.672 -1.8,-5.225 0.232,-2.554 0.495,-5.211 -1.392,-6.731 -2.236,-1.8 -6.036,-1.626 -9.75,3.248 -3.715,4.876 -9.026,15.322 -12.073,13 z"
       style="fill:none;stroke:#231f20;stroke-width:0.5;stroke-linecap:round;stroke-linejoin:round;stroke-miterlimit:4;stroke-dasharray:2.8, 1.8;stroke-dashoffset:0;stroke-opacity:1"
       id="path716" />
    <path
       d="m 623.852,493.479 c 4.838,0.188 14.034,-0.421 18.717,-2.417"
       style="fill:none;stroke:#231f20;stroke-width:0.5;stroke-linecap:round;stroke-linejoin:round;stroke-miterlimit:4;stroke-dasharray:2.8, 1.8;stroke-dashoffset:0;stroke-opacity:1"
       id="path718" />
    <path
       d="m 601.053,578.208 c 2.555,1.16 7.661,0.696 13.929,-2.786 6.268,-3.482 39.813,-21.357 43.76,-23.678 3.945,-2.323 17.758,-8.822 15.902,-17.875 -0.759,-3.703 -3.369,-8.034 -7.894,-11.839 -7.918,-6.667 -20.528,-10.792 -30.42,-3.254"
       style="fill:none;stroke:#231f20;stroke-width:0.5;stroke-linecap:round;stroke-linejoin:round;stroke-miterlimit:4;stroke-dasharray:2.8, 1.8;stroke-dashoffset:0;stroke-opacity:1"
       id="path720" />
    <path
       d="m 648.643,543.85 c 8.59,-3.946 18.806,-7.43 26.001,-9.981"
       style="fill:none;stroke:#231f20;stroke-width:0.5;stroke-linecap:round;stroke-linejoin:round;stroke-miterlimit:4;stroke-dasharray:2.8, 1.8;stroke-dashoffset:0;stroke-opacity:1"
       id="path722" />
    <path
       d="m 604.072,574.726 c -1.393,1.856 -6.021,7.427 -11.607,6.5 -5.587,-0.928 -10.679,-5.106 -14.161,-8.126 -3.482,-3.016 -9.286,-4.875 -10.68,-2.785 -1.392,2.089 -2.321,5.108 -4.411,4.875 -2.089,-0.232 -4.409,-4.179 -4.409,-10.214 0,-6.036 0.696,-12.537 -1.162,-17.875 -1.855,-5.34 -1.392,-14.161 2.323,-13.465 3.714,0.696 4.497,-0.087 5.107,-1.16"
       style="fill:none;stroke:#231f20;stroke-width:0.5;stroke-linecap:round;stroke-linejoin:round;stroke-miterlimit:4;stroke-dasharray:2.8, 1.8;stroke-dashoffset:0;stroke-opacity:1"
       id="path724" />
    <path
       d="m 567.624,570.315 c 1.163,-3.25 1.626,-9.52 -0.927,-16.25 -2.553,-6.733 -3.947,-13.231 -0.929,-12.535 3.019,0.696 4.788,0.115 5.571,-1.162"
       style="fill:none;stroke:#231f20;stroke-width:0.5;stroke-linecap:round;stroke-linejoin:round;stroke-miterlimit:4;stroke-dasharray:2.8, 1.8;stroke-dashoffset:0;stroke-opacity:1"
       id="path726" />
    <path
       d="m 600.221,556.619 c -4.875,0 -11.007,-1.626 -16.578,-5.572 -5.572,-3.946 -15.32,-13.465 -18.571,-18.571"
       style="fill:none;stroke:#231f20;stroke-width:0.5;stroke-linecap:round;stroke-linejoin:round;stroke-miterlimit:4;stroke-dasharray:2.8, 1.8;stroke-dashoffset:0;stroke-opacity:1"
       id="path728" />
    <path
       d="m 572.732,526.672 c 2.786,-4.411 7.429,-13.464 10.214,-18.571 2.786,-5.107 4.875,-9.054 14.858,-10.446 9.983,-1.393 36.446,-0.698 40.16,12.766"
       style="fill:none;stroke:#231f20;stroke-width:0.5;stroke-linecap:round;stroke-linejoin:round;stroke-miterlimit:4;stroke-dasharray:2.8, 1.8;stroke-dashoffset:0;stroke-opacity:1"
       id="path730" />
    <path
       d="m 571.339,540.368 c 4.411,-7.428 4.179,-11.839 1.393,-13.696 -1.723,-1.149 -5.571,0.697 -7.66,5.804"
       style="fill:none;stroke:#231f20;stroke-width:0.5;stroke-linecap:round;stroke-linejoin:round;stroke-miterlimit:4;stroke-dasharray:2.8, 1.8;stroke-dashoffset:0;stroke-opacity:1"
       id="path732" />
    <path
       d="m 617.072,564.046 c 6.036,-2.32 13.231,-6.964 14.161,-7.891 0.929,-0.929 2.185,-3.474 0.977,-6.031"
       style="fill:none;stroke:#231f20;stroke-width:0.5;stroke-linecap:round;stroke-linejoin:round;stroke-miterlimit:4;stroke-dasharray:2.8, 1.8;stroke-dashoffset:0;stroke-opacity:1"
       id="path734" />
    <path
       d="m 616.84,544.082 c -14.79,5.819 -18.803,14.162 -17.179,16.483"
       style="fill:none;stroke:#231f20;stroke-width:0.5;stroke-linecap:round;stroke-linejoin:round;stroke-miterlimit:4;stroke-dasharray:2.8, 1.8;stroke-dashoffset:0;stroke-opacity:1"
       id="path736" />
    <path
       d="m 540,797.119 c -10.446,-4.643 -81.916,-38.778 -90.985,-43.764"
       style="fill:none;stroke:#231f20;stroke-width:0.5;stroke-linecap:round;stroke-linejoin:round;stroke-miterlimit:4;stroke-dasharray:2.8, 1.8;stroke-dashoffset:0;stroke-opacity:1"
       id="path738" />
    <path
       d="m 419.329,655.286 c 0.885,-8.828 4.33,-62.487 -30.454,-82.997 -12.785,-7.54 -17.047,-9.036 -19.137,-9.732"
       style="fill:none;stroke:#231f20;stroke-width:0.5;stroke-linecap:round;stroke-linejoin:round;stroke-miterlimit:4;stroke-dasharray:2.8, 1.8;stroke-dashoffset:0;stroke-opacity:1"
       id="path740" />
    <path
       d="m 540,667.699 c -8.706,0 -58.5,0.581 -64.768,0.812"
       style="fill:none;stroke:#231f20;stroke-width:0.5;stroke-linecap:round;stroke-linejoin:round;stroke-miterlimit:4;stroke-dasharray:2.8, 1.8;stroke-dashoffset:0;stroke-opacity:1"
       id="path742" />
    <path
       d="m 540,610.592 c -11.143,0.697 -59.838,1.82 -65.263,1.954"
       style="fill:none;stroke:#231f20;stroke-width:0.5;stroke-linecap:round;stroke-linejoin:round;stroke-miterlimit:4;stroke-dasharray:2.8, 1.8;stroke-dashoffset:0;stroke-opacity:1"
       id="path744" />
    <path
       d="m 472.378,608.92 c 1.113,-5.293 0.765,-20.433 -4.806,-32.272"
       style="fill:none;stroke:#231f20;stroke-width:0.5;stroke-linecap:round;stroke-linejoin:round;stroke-miterlimit:4;stroke-dasharray:2.8, 1.8;stroke-dashoffset:0;stroke-opacity:1"
       id="path746" />
    <path
       d="m 388.161,571.868 c 0,0 2.107,-13.16 2.455,-16.294 0.348,-3.134 -2.785,-6.384 -8.705,-7.66 -3.806,-0.821 -26.117,-6.269 -30.992,-7.313 -4.875,-1.045 -14.973,-4.179 -14.276,-8.01 0.696,-3.83 10.098,-2.901 16.018,-2.901 5.92,0 24.375,-0.929 28.553,-1.276 4.179,-0.349 8.59,-0.582 9.402,-6.037 0.844,-5.668 1.246,-7.21 2.437,-9.866 1.51,-3.365 2.902,-4.991 4.875,-4.991 1.394,0 6.269,1.045 6.269,-2.089 0,-3.134 -0.349,-7.312 3.83,-6.965 4.179,0.349 10.446,1.742 12.884,-1.044 2.437,-2.786 3.83,-5.223 7.661,-2.437 3.83,2.785 10.605,2.437 9.56,-1.741"
       style="fill:none;stroke:#231f20;stroke-width:0.5;stroke-linecap:round;stroke-linejoin:round;stroke-miterlimit:4;stroke-dasharray:2.8, 1.8;stroke-dashoffset:0;stroke-opacity:1"
       id="path748" />
    <path
       d="m 436.751,489.065 c -0.522,-1.619 -1.912,-3.134 -8.179,-2.09 -6.269,1.045 -20.894,4.875 -22.635,5.224 -1.74,0.348 -5.919,2.089 -6.268,4.875 -0.347,2.786 -0.347,5.223 -0.347,5.223 0,0 -5.572,-2.786 -8.706,1.393 -3.134,4.179 -7.66,14.625 -11.143,17.062 -3.482,2.438 -14.277,3.134 -22.634,3.134 -8.357,0 -15.321,0 -20.196,0.349 -4.875,0.347 -6.965,2.437 -7.312,7.312 -0.349,4.875 0.696,7.661 10.446,11.143 9.75,3.482 39.361,8.913 50.672,14.207"
       style="fill:none;stroke:#231f20;stroke-width:0.5;stroke-linecap:round;stroke-linejoin:round;stroke-miterlimit:4;stroke-dasharray:2.8, 1.8;stroke-dashoffset:0;stroke-opacity:1"
       id="path750" />
    <path
       d="m 421.259,551.744 c -6.268,0.347 -27.735,0.683 -30.692,2.499"
       style="fill:none;stroke:#231f20;stroke-width:0.5;stroke-linecap:round;stroke-linejoin:round;stroke-miterlimit:4;stroke-dasharray:2.8, 1.8;stroke-dashoffset:0;stroke-opacity:1"
       id="path752" />
    <path
       d="m 509.158,493.716 c -3.631,-1.866 -6.765,-5 -16.515,-4.651 -9.75,0.348 -27.857,3.134 -33.08,3.83 -5.224,0.696 -11.84,2.437 -11.491,5.224 0.347,2.785 3.047,2.698 6.267,1.762"
       style="fill:none;stroke:#231f20;stroke-width:0.5;stroke-linecap:round;stroke-linejoin:round;stroke-miterlimit:4;stroke-dasharray:2.8, 1.8;stroke-dashoffset:0;stroke-opacity:1"
       id="path754" />
    <path
       d="m 499.502,512.666 c 3.483,-2.438 14.004,-11.296 16.283,-13.966"
       style="fill:none;stroke:#231f20;stroke-width:0.5;stroke-linecap:round;stroke-linejoin:round;stroke-miterlimit:4;stroke-dasharray:2.8, 1.8;stroke-dashoffset:0;stroke-opacity:1"
       id="path756" />
    <path
       d="m 486.723,482.797 c -3.286,-1.346 -6.964,-4.178 -5.92,-7.312 1.045,-3.135 5.859,-3.363 10.099,-0.697 4.24,2.666 4.875,5.223 3.83,6.964 -1.044,1.742 -5.272,2.167 -8.009,1.045 z"
       style="fill:none;stroke:#231f20;stroke-width:0.5;stroke-linecap:round;stroke-linejoin:round;stroke-miterlimit:4;stroke-dasharray:2.8, 1.8;stroke-dashoffset:0;stroke-opacity:1"
       id="path758" />
    <path
       d="m 445.286,526.905 c 0,0 -2.088,-10.448 -3.249,-16.484 -1.162,-6.035 -3.715,-16.946 -4.411,-18.803 -0.698,-1.857 -1.626,-6.268 -3.947,-8.357 -2.322,-2.09 -11.142,-7.892 -13.232,-19.035"
       style="fill:none;stroke:#231f20;stroke-width:0.5;stroke-linecap:round;stroke-linejoin:round;stroke-miterlimit:4;stroke-dasharray:2.8, 1.8;stroke-dashoffset:0;stroke-opacity:1"
       id="path760" />
    <path
       d="m 462,488.832 c 2.01,-1.532 1.536,-4.098 -1.625,-7.661 -3.261,-3.674 -8.823,-11.608 -11.839,-13.928 -3.018,-2.321 -4.87,-3.2 -6.733,-3.017 -2.959,0.29 -5.309,3.162 -6.035,5.106 -0.798,2.142 -0.815,9.201 -0.696,11.376 0.09,1.639 0.386,3.97 1.914,3.832 2.093,-0.191 2.03,-2.672 1.8,-5.225 -0.232,-2.554 -0.495,-5.211 1.392,-6.731 2.235,-1.8 6.035,-1.626 9.75,3.248 3.715,4.876 9.026,15.322 12.072,13 z"
       style="fill:none;stroke:#231f20;stroke-width:0.5;stroke-linecap:round;stroke-linejoin:round;stroke-miterlimit:4;stroke-dasharray:2.8, 1.8;stroke-dashoffset:0;stroke-opacity:1"
       id="path762" />
    <path
       d="m 456.148,493.479 c -4.838,0.188 -14.034,-0.421 -18.716,-2.417"
       style="fill:none;stroke:#231f20;stroke-width:0.5;stroke-linecap:round;stroke-linejoin:round;stroke-miterlimit:4;stroke-dasharray:2.8, 1.8;stroke-dashoffset:0;stroke-opacity:1"
       id="path764" />
    <path
       d="m 478.947,578.208 c -2.555,1.16 -7.66,0.696 -13.929,-2.786 -6.268,-3.482 -39.813,-21.357 -43.759,-23.678 -3.946,-2.323 -17.759,-8.822 -15.902,-17.875 0.759,-3.703 3.369,-8.034 7.893,-11.839 7.919,-6.667 20.528,-10.792 30.421,-3.254"
       style="fill:none;stroke:#231f20;stroke-width:0.5;stroke-linecap:round;stroke-linejoin:round;stroke-miterlimit:4;stroke-dasharray:2.8, 1.8;stroke-dashoffset:0;stroke-opacity:1"
       id="path766" />
    <path
       d="m 431.357,543.85 c -8.59,-3.946 -18.805,-7.43 -26,-9.981"
       style="fill:none;stroke:#231f20;stroke-width:0.5;stroke-linecap:round;stroke-linejoin:round;stroke-miterlimit:4;stroke-dasharray:2.8, 1.8;stroke-dashoffset:0;stroke-opacity:1"
       id="path768" />
    <path
       d="m 475.928,574.726 c 1.394,1.856 6.021,7.427 11.608,6.5 5.586,-0.928 10.678,-5.106 14.161,-8.126 3.481,-3.016 9.286,-4.875 10.679,-2.785 1.392,2.089 2.321,5.108 4.41,4.875 2.09,-0.232 4.411,-4.179 4.411,-10.214 0,-6.036 -0.697,-12.537 1.161,-17.875 1.856,-5.34 1.392,-14.161 -2.322,-13.465 -3.714,0.696 -4.497,-0.087 -5.107,-1.16"
       style="fill:none;stroke:#231f20;stroke-width:0.5;stroke-linecap:round;stroke-linejoin:round;stroke-miterlimit:4;stroke-dasharray:2.8, 1.8;stroke-dashoffset:0;stroke-opacity:1"
       id="path770" />
    <path
       d="m 512.376,570.315 c -1.162,-3.25 -1.626,-9.52 0.927,-16.25 2.554,-6.733 3.947,-13.231 0.929,-12.535 -3.018,0.696 -4.787,0.115 -5.571,-1.162"
       style="fill:none;stroke:#231f20;stroke-width:0.5;stroke-linecap:round;stroke-linejoin:round;stroke-miterlimit:4;stroke-dasharray:2.8, 1.8;stroke-dashoffset:0;stroke-opacity:1"
       id="path772" />
    <path
       d="m 479.78,556.619 c 4.875,0 11.007,-1.626 16.578,-5.572 5.571,-3.946 15.32,-13.465 18.571,-18.571"
       style="fill:none;stroke:#231f20;stroke-width:0.5;stroke-linecap:round;stroke-linejoin:round;stroke-miterlimit:4;stroke-dasharray:2.8, 1.8;stroke-dashoffset:0;stroke-opacity:1"
       id="path774" />
    <path
       d="m 507.268,526.672 c -2.786,-4.411 -7.428,-13.464 -10.214,-18.571 -2.786,-5.107 -4.875,-9.054 -14.857,-10.446 -9.983,-1.393 -36.447,-0.698 -40.16,12.766"
       style="fill:none;stroke:#231f20;stroke-width:0.5;stroke-linecap:round;stroke-linejoin:round;stroke-miterlimit:4;stroke-dasharray:2.8, 1.8;stroke-dashoffset:0;stroke-opacity:1"
       id="path776" />
    <path
       d="m 508.661,540.368 c -4.411,-7.428 -4.179,-11.839 -1.393,-13.696 1.724,-1.149 5.571,0.697 7.661,5.804"
       style="fill:none;stroke:#231f20;stroke-width:0.5;stroke-linecap:round;stroke-linejoin:round;stroke-miterlimit:4;stroke-dasharray:2.8, 1.8;stroke-dashoffset:0;stroke-opacity:1"
       id="path778" />
    <path
       d="m 462.929,564.046 c -6.037,-2.32 -13.232,-6.964 -14.161,-7.891 -0.93,-0.929 -2.186,-3.474 -0.976,-6.031"
       style="fill:none;stroke:#231f20;stroke-width:0.5;stroke-linecap:round;stroke-linejoin:round;stroke-miterlimit:4;stroke-dasharray:2.8, 1.8;stroke-dashoffset:0;stroke-opacity:1"
       id="path780" />
    <path
       d="m 463.161,544.082 c 14.789,5.819 18.803,14.162 17.178,16.483"
       style="fill:none;stroke:#231f20;stroke-width:0.5;stroke-linecap:round;stroke-linejoin:round;stroke-miterlimit:4;stroke-dasharray:2.8, 1.8;stroke-dashoffset:0;stroke-opacity:1"
       id="path782" />
  </g>
</svg>
