<?xml version="1.0" encoding="UTF-8" standalone="no"?>
<!-- Created with Inkscape (http://www.inkscape.org/) -->

<svg
   version="1.1"
   id="svg2"
   width="1440"
   height="1344"
   viewBox="0 0 1440 1344"
   xmlns="http://www.w3.org/2000/svg"
   xmlns:svg="http://www.w3.org/2000/svg">
  <defs
     id="defs6" />
  <g
     id="g10">
    <path
       d="m 540,799.905 c 0,10.685 -2.089,22.749 -7.661,34.821 -5.571,12.072 -21.356,26.987 -37.607,35.809 -16.25,8.82 -36.216,15.263 -80.321,9.691 -44.107,-5.571 -80.786,-23.678 -107.251,-41.785 -26.464,-18.108 -40.857,-39.929 -54.785,-76.608 -7.883,-20.758 -9.965,-40.03 -7.089,-61.012 1.303,-9.522 2.684,-18.046 5.696,-30.394 1.802,-7.388 3.249,-11.84 6.731,-22.751 2.482,-7.773 5.236,-15.014 7.894,-21.357 13.091,-31.243 25.393,-46.812 30.41,-52.987 6.037,-7.427 16.249,-23.214 34.821,-14.392 0,0 -13.464,-9.75 1.394,-31.571 14.857,-21.823 33.892,-38.999 73.821,-46.429 39.929,-7.429 71.034,-4.179 90.536,2.786 19.501,6.964 43.411,26.463 43.411,54.327 0,7.423 -0.696,15.779 -2.554,22.281 -1.856,6.498 -1.14,22.883 1.45,32.163 1.452,5.211 1.104,85.764 1.104,85.764 0,25.073 0,121.644 0,121.644"
       style="fill:#ffffff;fill-opacity:1;fill-rule:nonzero;stroke:none;stroke-width:0.1"
       id="path616" />
    <path
       d="m 540,799.905 c 0,10.685 -2.089,22.749 -7.661,34.821 -5.571,12.072 -21.356,26.987 -37.607,35.809 -16.25,8.82 -36.216,15.263 -80.321,9.691 -44.107,-5.571 -80.786,-23.678 -107.251,-41.785 -26.464,-18.108 -40.857,-39.929 -54.785,-76.608 -7.883,-20.758 -9.965,-40.03 -7.089,-61.012 1.303,-9.522 2.684,-18.046 5.696,-30.394 1.802,-7.388 3.249,-11.84 6.731,-22.751 2.482,-7.773 5.236,-15.014 7.894,-21.357 13.091,-31.243 25.393,-46.812 30.41,-52.987 6.037,-7.427 16.249,-23.214 34.821,-14.392 0,0 -13.464,-9.75 1.394,-31.571 14.857,-21.823 33.892,-38.999 73.821,-46.429 39.929,-7.429 71.034,-4.179 90.536,2.786 19.501,6.964 43.411,26.463 43.411,54.327 0,7.423 -0.696,15.779 -2.554,22.281 -1.856,6.498 -1.14,22.883 1.45,32.163 1.452,5.211 1.104,85.764 1.104,85.764 0,25.073 0,121.644 0,121.644 z"
       style="fill:none;stroke:#231f20;stroke-width:0.75;stroke-linecap:round;stroke-linejoin:round;stroke-miterlimit:4;stroke-dasharray:none;stroke-opacity:1"
       id="path618" />
    <path
       d="m 542.555,583.084 c 0,-1.539 -1.142,-2.786 -2.555,-2.786 -1.412,0 -2.554,1.247 -2.554,2.786 0,1.539 1.142,2.786 2.554,2.786 1.413,0 2.555,-1.247 2.555,-2.786"
       style="fill:#ffffff;fill-opacity:1;fill-rule:nonzero;stroke:none;stroke-width:0.1"
       id="path620" />
    <path
       d="m 542.555,583.084 c 0,-1.539 -1.142,-2.786 -2.555,-2.786 -1.412,0 -2.554,1.247 -2.554,2.786 0,1.539 1.142,2.786 2.554,2.786 1.413,0 2.555,-1.247 2.555,-2.786 z"
       style="fill:none;stroke:#231f20;stroke-width:0.5;stroke-linecap:round;stroke-linejoin:round;stroke-miterlimit:4;stroke-dasharray:none;stroke-opacity:1"
       id="path622" />
    <path
       d="m 540,799.905 c 0,10.685 2.089,22.749 7.661,34.821 5.571,12.072 21.357,26.987 37.607,35.809 16.251,8.82 36.216,15.263 80.322,9.691 44.107,-5.571 80.786,-23.678 107.25,-41.785 26.465,-18.108 40.857,-39.929 54.786,-76.608 7.882,-20.758 9.964,-40.03 7.089,-61.012 -1.304,-9.522 -2.685,-18.046 -5.696,-30.394 -1.803,-7.388 -3.25,-11.84 -6.732,-22.751 -2.481,-7.773 -5.236,-15.014 -7.893,-21.357 -13.091,-31.243 -25.392,-46.812 -30.411,-52.987 -6.036,-7.427 -16.249,-23.214 -34.821,-14.392 0,0 13.464,-9.75 -1.393,-31.571 -14.857,-21.823 -33.893,-38.999 -73.821,-46.429 -39.93,-7.429 -71.035,-4.179 -90.536,2.786 C 563.91,490.69 540,510.189 540,538.053 c 0,7.423 0.697,15.779 2.555,22.281 1.855,6.498 1.14,22.883 -1.45,32.163 -1.453,5.211 -1.105,85.764 -1.105,85.764 0,25.073 0,121.644 0,121.644"
       style="fill:#ffffff;fill-opacity:1;fill-rule:nonzero;stroke:none;stroke-width:0.1"
       id="path624" />
    <path
       d="m 540,799.905 c 0,10.685 2.089,22.749 7.661,34.821 5.571,12.072 21.357,26.987 37.607,35.809 16.251,8.82 36.216,15.263 80.322,9.691 44.107,-5.571 80.786,-23.678 107.25,-41.785 26.465,-18.108 40.857,-39.929 54.786,-76.608 7.882,-20.758 9.964,-40.03 7.089,-61.012 -1.304,-9.522 -2.685,-18.046 -5.696,-30.394 -1.803,-7.388 -3.25,-11.84 -6.732,-22.751 -2.481,-7.773 -5.236,-15.014 -7.893,-21.357 -13.091,-31.243 -25.392,-46.812 -30.411,-52.987 -6.036,-7.427 -16.249,-23.214 -34.821,-14.392 0,0 13.464,-9.75 -1.393,-31.571 -14.857,-21.823 -33.893,-38.999 -73.821,-46.429 -39.93,-7.429 -71.035,-4.179 -90.536,2.786 C 563.91,490.69 540,510.189 540,538.053 c 0,7.423 0.697,15.779 2.555,22.281 1.855,6.498 1.14,22.883 -1.45,32.163 -1.453,5.211 -1.105,85.764 -1.105,85.764 0,25.073 0,121.644 0,121.644 z"
       style="fill:none;stroke:#231f20;stroke-width:0.75;stroke-linecap:round;stroke-linejoin:round;stroke-miterlimit:4;stroke-dasharray:none;stroke-opacity:1"
       id="path626" />
    <path
       d="m 595.018,647.619 c 9.803,36.532 15.321,56.178 19.5,70.571 4.179,14.394 10.214,28.322 13.929,37.142 3.715,8.822 13.465,8.823 16.251,8.358 2.785,-0.464 22.749,-4.236 32.035,-18.571 6.25,-9.648 6.035,-27.857 1.393,-37.143 0,0 -25.536,-6.499 -44.572,-19.965 -19.036,-13.464 -34.821,-28.785 -38.536,-40.392 z"
       style="fill:none;stroke:#231f20;stroke-width:0.5;stroke-linecap:butt;stroke-linejoin:miter;stroke-miterlimit:4;stroke-dasharray:none;stroke-opacity:1"
       id="path628" />
    <path
       d="m 484.982,647.619 c -9.803,36.532 -15.321,56.178 -19.5,70.571 -4.179,14.394 -10.214,28.322 -13.929,37.142 -3.715,8.822 -13.465,8.823 -16.25,8.358 -2.786,-0.464 -22.75,-4.236 -32.036,-18.571 -6.25,-9.648 -6.035,-27.857 -1.392,-37.143 0,0 25.535,-6.499 44.571,-19.965 19.036,-13.464 34.821,-28.785 38.536,-40.392 z"
       style="fill:none;stroke:#231f20;stroke-width:0.5;stroke-linecap:butt;stroke-linejoin:miter;stroke-miterlimit:4;stroke-dasharray:none;stroke-opacity:1"
       id="path630" />
    <path
       d="m 595.018,647.619 c -1.856,-5.107 -5.146,-17.36 -6.164,-30.711"
       style="fill:none;stroke:#231f20;stroke-width:0.5;stroke-linecap:butt;stroke-linejoin:miter;stroke-miterlimit:4;stroke-dasharray:none;stroke-opacity:1"
       id="path632" />
    <path
       d="m 681.839,589.118 c 17.644,-10.214 47.477,-21.443 53.858,-23.678 6.407,-2.245 9.982,-3.482 13.465,-6.5"
       style="fill:none;stroke:#231f20;stroke-width:0.5;stroke-linecap:butt;stroke-linejoin:miter;stroke-miterlimit:4;stroke-dasharray:none;stroke-opacity:1"
       id="path634" />
    <path
       d="m 749.074,529.367 c -1.305,-1.998 -5.02,-4.785 -10.243,-4.785 -5.223,0 -12.536,-1.043 -16.714,-3.481 -4.179,-2.437 -4.875,-6.965 -6.965,-10.447 -2.089,-3.482 -5.541,-10.569 -15.321,-16.366 -10.891,-6.456 -17.267,-12.269 -30.376,-14.145"
       style="fill:none;stroke:#231f20;stroke-width:0.5;stroke-linecap:butt;stroke-linejoin:miter;stroke-miterlimit:4;stroke-dasharray:none;stroke-opacity:1"
       id="path636" />
    <path
       d="m 627.983,554.296 c 2.786,1.162 10.213,2.09 17.641,-0.927 7.43,-3.018 13.448,-6.777 12.073,-13.001 -1.219,-5.513 -3.947,-6.73 -7.197,-8.357 -3.25,-1.624 -8.356,-3.714 -14.16,-2.553 -5.804,1.16 -13.588,6.532 -15.09,9.75 -1.624,3.482 -0.695,9.982 1.162,12.768"
       style="fill:none;stroke:#231f20;stroke-width:0.5;stroke-linecap:butt;stroke-linejoin:miter;stroke-miterlimit:4;stroke-dasharray:none;stroke-opacity:1"
       id="path638" />
    <path
       d="m 614.982,558.708 c 4.063,0 13.116,-1.567 13.001,-4.412 -0.097,-2.365 -1.624,-2.32 -6.268,-2.32 -4.643,0 -11.144,0.696 -13.697,1.16 -2.554,0.464 -4.178,2.322 -0.231,3.946 3.946,1.626 6.273,1.626 7.195,1.626"
       style="fill:#b2b1b1;fill-opacity:1;fill-rule:nonzero;stroke:none;stroke-width:0.1"
       id="path640" />
    <path
       d="m 614.982,558.708 c 4.063,0 13.116,-1.567 13.001,-4.412 -0.097,-2.365 -1.624,-2.32 -6.268,-2.32 -4.643,0 -11.144,0.696 -13.697,1.16 -2.554,0.464 -4.178,2.322 -0.231,3.946 3.946,1.626 6.273,1.626 7.195,1.626 z"
       style="fill:none;stroke:#231f20;stroke-width:0.5;stroke-linecap:butt;stroke-linejoin:miter;stroke-miterlimit:4;stroke-dasharray:none;stroke-opacity:1"
       id="path642" />
    <path
       d="m 484.982,647.619 c 1.857,-5.107 5.147,-17.36 6.165,-30.711"
       style="fill:none;stroke:#231f20;stroke-width:0.5;stroke-linecap:butt;stroke-linejoin:miter;stroke-miterlimit:4;stroke-dasharray:none;stroke-opacity:1"
       id="path644" />
    <path
       d="m 398.161,589.118 c -17.643,-10.214 -47.477,-21.443 -53.858,-23.678 -6.406,-2.245 -9.982,-3.482 -13.465,-6.5"
       style="fill:none;stroke:#231f20;stroke-width:0.5;stroke-linecap:butt;stroke-linejoin:miter;stroke-miterlimit:4;stroke-dasharray:none;stroke-opacity:1"
       id="path646" />
    <path
       d="m 330.927,529.367 c 1.305,-1.998 5.019,-4.785 10.242,-4.785 5.224,0 12.537,-1.043 16.714,-3.481 4.179,-2.437 4.875,-6.965 6.965,-10.447 2.089,-3.482 5.541,-10.569 15.321,-16.366 10.892,-6.456 17.267,-12.269 30.376,-14.145"
       style="fill:none;stroke:#231f20;stroke-width:0.5;stroke-linecap:butt;stroke-linejoin:miter;stroke-miterlimit:4;stroke-dasharray:none;stroke-opacity:1"
       id="path648" />
    <path
       d="m 452.017,554.296 c -2.785,1.162 -10.212,2.09 -17.641,-0.927 -7.43,-3.018 -13.448,-6.777 -12.073,-13.001 1.219,-5.513 3.947,-6.73 7.197,-8.357 3.25,-1.624 8.356,-3.714 14.161,-2.553 5.803,1.16 13.588,6.532 15.089,9.75 1.625,3.482 0.696,9.982 -1.161,12.768"
       style="fill:none;stroke:#231f20;stroke-width:0.5;stroke-linecap:butt;stroke-linejoin:miter;stroke-miterlimit:4;stroke-dasharray:none;stroke-opacity:1"
       id="path650" />
    <path
       d="m 465.018,558.708 c -4.062,0 -13.116,-1.567 -13.001,-4.412 0.097,-2.365 1.624,-2.32 6.269,-2.32 4.643,0 11.143,0.696 13.697,1.16 2.553,0.464 4.177,2.322 0.231,3.946 -3.946,1.626 -6.273,1.626 -7.196,1.626"
       style="fill:#b2b1b1;fill-opacity:1;fill-rule:nonzero;stroke:none;stroke-width:0.1"
       id="path652" />
    <path
       d="m 465.018,558.708 c -4.062,0 -13.116,-1.567 -13.001,-4.412 0.097,-2.365 1.624,-2.32 6.269,-2.32 4.643,0 11.143,0.696 13.697,1.16 2.553,0.464 4.177,2.322 0.231,3.946 -3.946,1.626 -6.273,1.626 -7.196,1.626 z"
       style="fill:none;stroke:#231f20;stroke-width:0.5;stroke-linecap:butt;stroke-linejoin:miter;stroke-miterlimit:4;stroke-dasharray:none;stroke-opacity:1"
       id="path654" />
    <path
       d="m 533.871,508.488 c 0.394,-0.819 0.098,-1.765 -0.628,-2.14 -0.705,-0.366 -1.606,-0.082 -2.043,0.66 -0.46,0.776 -0.262,1.788 0.487,2.229 0.773,0.46 1.768,0.108 2.184,-0.749"
       style="fill:#ffffff;fill-opacity:1;fill-rule:nonzero;stroke:none;stroke-width:0.1"
       id="path656" />
    <path
       d="m 533.871,508.488 c 0.394,-0.819 0.098,-1.765 -0.628,-2.14 -0.705,-0.366 -1.606,-0.082 -2.043,0.66 -0.46,0.776 -0.262,1.788 0.487,2.229 0.773,0.46 1.768,0.108 2.184,-0.749 z"
       style="fill:none;stroke:#231f20;stroke-width:0.5;stroke-linecap:round;stroke-linejoin:round;stroke-miterlimit:4;stroke-dasharray:none;stroke-opacity:1"
       id="path658" />
    <path
       d="m 546.126,508.488 c -0.394,-0.819 -0.096,-1.765 0.629,-2.14 0.706,-0.366 1.605,-0.082 2.044,0.66 0.46,0.776 0.26,1.788 -0.488,2.229 -0.772,0.46 -1.769,0.108 -2.185,-0.749"
       style="fill:#ffffff;fill-opacity:1;fill-rule:nonzero;stroke:none;stroke-width:0.1"
       id="path660" />
    <path
       d="m 546.126,508.488 c -0.394,-0.819 -0.096,-1.765 0.629,-2.14 0.706,-0.366 1.605,-0.082 2.044,0.66 0.46,0.776 0.26,1.788 -0.488,2.229 -0.772,0.46 -1.769,0.108 -2.185,-0.749 z"
       style="fill:none;stroke:#231f20;stroke-width:0.5;stroke-linecap:round;stroke-linejoin:round;stroke-miterlimit:4;stroke-dasharray:none;stroke-opacity:1"
       id="path662" />
    <path
       d="m 399.953,713.215 c -13.119,0.671 -115.598,-6.283 -155.035,-9.475"
       style="fill:none;stroke:#231f20;stroke-width:0.5;stroke-linecap:round;stroke-linejoin:round;stroke-miterlimit:4;stroke-dasharray:2.8, 1.8;stroke-dashoffset:0;stroke-opacity:1"
       id="path664" />
    <path
       d="M 396.358,706.796 C 377.787,699.832 283.871,659.258 257.87,647.188"
       style="fill:none;stroke:#231f20;stroke-width:0.5;stroke-linecap:round;stroke-linejoin:round;stroke-miterlimit:4;stroke-dasharray:2.8, 1.8;stroke-dashoffset:0;stroke-opacity:1"
       id="path666" />
    <path
       d="M 393.306,691.883 C 381.447,679.654 304.497,596.45 289.092,582.472"
       style="fill:none;stroke:#231f20;stroke-width:0.5;stroke-linecap:round;stroke-linejoin:round;stroke-miterlimit:4;stroke-dasharray:2.8, 1.8;stroke-dashoffset:0;stroke-opacity:1"
       id="path668" />
    <path
       d="M 397.924,686.915 C 386.089,670.37 322.725,572.374 311.925,558.228"
       style="fill:none;stroke:#231f20;stroke-width:0.5;stroke-linecap:round;stroke-linejoin:round;stroke-miterlimit:4;stroke-dasharray:2.8, 1.8;stroke-dashoffset:0;stroke-opacity:1"
       id="path670" />
    <path
       d="m 678.126,707.976 c 4.642,0 12.072,-3.251 11.143,-8.357 -0.93,-5.108 -2.322,-12.535 -16.251,-17.179 -13.929,-4.643 -45.964,-9.75 -62.679,-29.714 -16.713,-19.964 -19.963,-28.786 -21.356,-34.357 0,0 -1.393,-15.323 -1.393,-20.894 0,-5.571 -0.002,-12.04 -3.251,-15.755"
       style="fill:none;stroke:#231f20;stroke-width:0.5;stroke-linecap:round;stroke-linejoin:round;stroke-miterlimit:4;stroke-dasharray:2.8, 1.8;stroke-dashoffset:0;stroke-opacity:1"
       id="path672" />
    <path
       d="m 540,773.905 c 11.839,-1.858 65.384,-14.188 86.434,-23.344"
       style="fill:none;stroke:#231f20;stroke-width:0.5;stroke-linecap:round;stroke-linejoin:round;stroke-miterlimit:4;stroke-dasharray:2.8, 1.8;stroke-dashoffset:0;stroke-opacity:1"
       id="path674" />
    <path
       d="m 553.835,844.471 c 11.086,-11.228 61.507,-64.208 79.899,-82.941"
       style="fill:none;stroke:#231f20;stroke-width:0.5;stroke-linecap:round;stroke-linejoin:round;stroke-miterlimit:4;stroke-dasharray:2.8, 1.8;stroke-dashoffset:0;stroke-opacity:1"
       id="path676" />
    <path
       d="m 644.698,763.69 c 2.32,18.572 17.642,101.215 20.892,116.536"
       style="fill:none;stroke:#231f20;stroke-width:0.5;stroke-linecap:round;stroke-linejoin:round;stroke-miterlimit:4;stroke-dasharray:2.8, 1.8;stroke-dashoffset:0;stroke-opacity:1"
       id="path678" />
    <path
       d="m 680.048,713.215 c 13.118,0.671 115.598,-6.283 155.034,-9.475"
       style="fill:none;stroke:#231f20;stroke-width:0.5;stroke-linecap:round;stroke-linejoin:round;stroke-miterlimit:4;stroke-dasharray:2.8, 1.8;stroke-dashoffset:0;stroke-opacity:1"
       id="path680" />
    <path
       d="M 683.643,706.796 C 702.214,699.832 796.13,659.258 822.13,647.188"
       style="fill:none;stroke:#231f20;stroke-width:0.5;stroke-linecap:round;stroke-linejoin:round;stroke-miterlimit:4;stroke-dasharray:2.8, 1.8;stroke-dashoffset:0;stroke-opacity:1"
       id="path682" />
    <path
       d="M 686.694,691.883 C 698.553,679.654 775.503,596.45 790.908,582.472"
       style="fill:none;stroke:#231f20;stroke-width:0.5;stroke-linecap:round;stroke-linejoin:round;stroke-miterlimit:4;stroke-dasharray:2.8, 1.8;stroke-dashoffset:0;stroke-opacity:1"
       id="path684" />
    <path
       d="m 682.076,686.915 c 11.836,-16.545 75.2,-114.541 86,-128.687"
       style="fill:none;stroke:#231f20;stroke-width:0.5;stroke-linecap:round;stroke-linejoin:round;stroke-miterlimit:4;stroke-dasharray:2.8, 1.8;stroke-dashoffset:0;stroke-opacity:1"
       id="path686" />
    <path
       d="m 655.068,677.336 c -4.335,-13.467 -10.37,-34.824 -4.799,-51.075 5.571,-16.25 13.927,-26.927 31.57,-37.143"
       style="fill:none;stroke:#231f20;stroke-width:0.5;stroke-linecap:round;stroke-linejoin:round;stroke-miterlimit:4;stroke-dasharray:2.8, 1.8;stroke-dashoffset:0;stroke-opacity:1"
       id="path688" />
    <path
       d="m 540,652.726 c 7.196,0.464 46.791,0.305 56.244,-0.544"
       style="fill:none;stroke:#231f20;stroke-width:0.5;stroke-linecap:round;stroke-linejoin:round;stroke-miterlimit:4;stroke-dasharray:2.8, 1.8;stroke-dashoffset:0;stroke-opacity:1"
       id="path690" />
    <path
       d="m 540.697,612.796 c 7.891,0.466 39.001,-0.638 47.822,0.145"
       style="fill:none;stroke:#231f20;stroke-width:0.5;stroke-linecap:round;stroke-linejoin:round;stroke-miterlimit:4;stroke-dasharray:2.8, 1.8;stroke-dashoffset:0;stroke-opacity:1"
       id="path692" />
    <path
       d="m 543.495,575.423 c 4.862,0.696 26.452,-0.349 32.023,-1.046"
       style="fill:none;stroke:#231f20;stroke-width:0.5;stroke-linecap:round;stroke-linejoin:round;stroke-miterlimit:4;stroke-dasharray:2.8, 1.8;stroke-dashoffset:0;stroke-opacity:1"
       id="path694" />
    <path
       d="m 575.518,574.377 c 3.134,3.484 12.536,10.795 18.108,13.233 5.571,2.437 25.071,9.401 34.472,8.705 9.402,-0.696 21.88,-5.165 33.489,-18.139"
       style="fill:none;stroke:#231f20;stroke-width:0.5;stroke-linecap:round;stroke-linejoin:round;stroke-miterlimit:4;stroke-dasharray:2.8, 1.8;stroke-dashoffset:0;stroke-opacity:1"
       id="path696" />
    <path
       d="m 660.134,577.511 c -1.045,-1.741 1.045,-3.482 3.83,-4.875 2.786,-1.392 11.84,-6.964 17.76,-9.75 5.919,-2.785 20.196,-8.009 28.902,-9.401 8.705,-1.394 20.892,-4.875 20.544,-7.661 -0.348,-2.785 -4.352,-4.353 -12.883,-3.83 -7.665,0.468 -14.974,-3.134 -17.76,-8.358 -2.785,-5.222 -6.615,-14.972 -10.098,-17.759 -3.482,-2.786 -5.92,-3.482 -10.795,-3.482 -4.875,0 -5.813,-2.217 -8.008,-4.875 -3.308,-4.004 -8.009,-5.397 -14.277,-5.571 -4.874,-0.136 -11.84,-0.697 -11.84,-3.134 0,-2.438 2.096,-3.767 8.009,-3.483 6.098,0.294 16.002,1.252 18.456,1.393 2.085,0.12 5.919,0.697 6.268,2.786 0.347,2.089 1.395,3.019 4.178,3.134 4.179,0.174 7.313,1.045 12.536,5.224 5.223,4.178 8.706,10.446 10.446,15.67 1.741,5.222 5.224,10.097 10.795,11.142 5.571,1.045 14.641,1.482 16.715,1.741 4.178,0.523 8.356,4.179 8.008,9.75 -0.348,5.572 -6.964,9.054 -21.589,12.188 -14.625,3.134 -28.205,6.616 -38.652,11.839 -10.446,5.223 -18.946,9.732 -20.545,7.312 z"
       style="fill:none;stroke:#231f20;stroke-width:0.5;stroke-linecap:round;stroke-linejoin:round;stroke-miterlimit:4;stroke-dasharray:2.8, 1.8;stroke-dashoffset:0;stroke-opacity:1"
       id="path698" />
    <path
       d="m 659.982,575.946 c 0,0 -8.718,-6.581 -11.503,-8.67"
       style="fill:none;stroke:#231f20;stroke-width:0.5;stroke-linecap:round;stroke-linejoin:round;stroke-miterlimit:4;stroke-dasharray:2.8, 1.8;stroke-dashoffset:0;stroke-opacity:1"
       id="path700" />
    <path
       d="m 603.442,561.521 c 3.018,2.785 8.17,4.809 13.63,6.008 5.804,1.277 22.981,1.624 28.552,0.465 5.573,-1.162 30.413,-8.823 32.269,-19.733 1.857,-10.91 -2.227,-27.857 -28.458,-24.375"
       style="fill:none;stroke:#231f20;stroke-width:0.5;stroke-linecap:round;stroke-linejoin:round;stroke-miterlimit:4;stroke-dasharray:2.8, 1.8;stroke-dashoffset:0;stroke-opacity:1"
       id="path702" />
    <path
       d="m 645.394,529.921 c 1.856,-3.249 13.803,-15.684 2.839,-28.966"
       style="fill:none;stroke:#231f20;stroke-width:0.5;stroke-linecap:round;stroke-linejoin:round;stroke-miterlimit:4;stroke-dasharray:2.8, 1.8;stroke-dashoffset:0;stroke-opacity:1"
       id="path704" />
    <path
       d="m 575.518,574.377 c 2.786,-0.232 18.514,-3.344 21.59,-4.062 3.481,-0.813 6.615,-1.683 6.035,-4.875 -0.556,-3.047 0.696,-5.572 3.715,-8.821"
       style="fill:none;stroke:#231f20;stroke-width:0.5;stroke-linecap:round;stroke-linejoin:round;stroke-miterlimit:4;stroke-dasharray:2.8, 1.8;stroke-dashoffset:0;stroke-opacity:1"
       id="path706" />
    <path
       d="m 576.447,573.566 c 1.412,-0.404 2.189,-2.294 1.393,-6.269 -0.929,-4.643 -2.786,-9.75 -7.197,-15.553 -4.411,-5.804 -7.661,-9.752 -9.519,-11.607 -1.855,-1.858 -1.624,-4.875 0,-5.108 1.628,-0.233 6.735,1.394 6.966,-0.233 0.231,-1.624 -6.035,-4.643 -8.125,-5.106 -2.089,-0.465 -7.66,-0.465 -7.66,5.106 0,5.572 3.735,13.167 7.427,19.733 4.178,7.429 12.768,17.411 13.464,18.107 0.697,0.696 1.627,1.392 3.251,0.93 z"
       style="fill:none;stroke:#231f20;stroke-width:0.5;stroke-linecap:round;stroke-linejoin:round;stroke-miterlimit:4;stroke-dasharray:2.8, 1.8;stroke-dashoffset:0;stroke-opacity:1"
       id="path708" />
    <path
       d="m 542.342,523.273 c 4.622,1.542 12.316,3.928 19.147,6.912"
       style="fill:none;stroke:#231f20;stroke-width:0.5;stroke-linecap:round;stroke-linejoin:round;stroke-miterlimit:4;stroke-dasharray:2.8, 1.8;stroke-dashoffset:0;stroke-opacity:1"
       id="path710" />
    <path
       d="m 606.322,553.6 c -6.501,-0.696 -27.322,-5.571 -35.446,-16.714 -8.124,-11.143 -8.59,-17.41 -7.894,-21.124 0.697,-3.715 10.214,-19.267 20.894,-22.982 10.678,-3.715 42.292,-8.596 63.745,3.247"
       style="fill:none;stroke:#231f20;stroke-width:0.5;stroke-linecap:round;stroke-linejoin:round;stroke-miterlimit:4;stroke-dasharray:2.8, 1.8;stroke-dashoffset:0;stroke-opacity:1"
       id="path712" />
    <path
       d="m 570.089,535.79 c 0.787,1.096 4.5,1.561 6.589,-0.064 2.09,-1.626 4.411,-5.805 2.322,-8.357 -2.089,-2.554 -5.802,-7.661 -6.035,-9.75 -0.233,-2.09 1.393,-7.43 3.946,-9.287 2.553,-1.857 10.679,-7.893 13.232,-6.964 2.553,0.929 3.946,2.322 4.643,4.411 0,0 13.853,-12.441 4.605,-16.319"
       style="fill:none;stroke:#231f20;stroke-width:0.5;stroke-linecap:round;stroke-linejoin:round;stroke-miterlimit:4;stroke-dasharray:2.8, 1.8;stroke-dashoffset:0;stroke-opacity:1"
       id="path714" />
    <path
       d="m 579,527.369 c 3.25,-0.697 7.661,-2.554 9.75,-4.411 2.089,-1.857 6.732,-13.697 6.036,-17.179"
       style="fill:none;stroke:#231f20;stroke-width:0.5;stroke-linecap:round;stroke-linejoin:round;stroke-miterlimit:4;stroke-dasharray:2.8, 1.8;stroke-dashoffset:0;stroke-opacity:1"
       id="path716" />
    <path
       d="m 588.75,522.958 c 3.946,-0.464 25.837,2.088 34.426,13.928"
       style="fill:none;stroke:#231f20;stroke-width:0.5;stroke-linecap:round;stroke-linejoin:round;stroke-miterlimit:4;stroke-dasharray:2.8, 1.8;stroke-dashoffset:0;stroke-opacity:1"
       id="path718" />
    <path
       d="m 655.828,547.09 c 3.725,0.242 17.19,0.939 22.065,1.171"
       style="fill:none;stroke:#231f20;stroke-width:0.5;stroke-linecap:round;stroke-linejoin:round;stroke-miterlimit:4;stroke-dasharray:2.8, 1.8;stroke-dashoffset:0;stroke-opacity:1"
       id="path720" />
    <path
       d="m 401.875,707.976 c -4.643,0 -12.073,-3.251 -11.143,-8.357 0.929,-5.108 2.321,-12.535 16.25,-17.179 13.929,-4.643 45.965,-9.75 62.679,-29.714 16.715,-19.964 19.964,-28.786 21.356,-34.357 0,0 1.394,-15.323 1.394,-20.894 0,-5.571 10e-4,-12.04 3.251,-15.755"
       style="fill:none;stroke:#231f20;stroke-width:0.5;stroke-linecap:round;stroke-linejoin:round;stroke-miterlimit:4;stroke-dasharray:2.8, 1.8;stroke-dashoffset:0;stroke-opacity:1"
       id="path722" />
    <path
       d="m 540,773.905 c -11.839,-1.858 -65.384,-14.188 -86.433,-23.344"
       style="fill:none;stroke:#231f20;stroke-width:0.5;stroke-linecap:round;stroke-linejoin:round;stroke-miterlimit:4;stroke-dasharray:2.8, 1.8;stroke-dashoffset:0;stroke-opacity:1"
       id="path724" />
    <path
       d="M 526.164,844.471 C 515.079,833.242 464.658,780.263 446.266,761.53"
       style="fill:none;stroke:#231f20;stroke-width:0.5;stroke-linecap:round;stroke-linejoin:round;stroke-miterlimit:4;stroke-dasharray:2.8, 1.8;stroke-dashoffset:0;stroke-opacity:1"
       id="path726" />
    <path
       d="m 435.303,763.69 c -2.32,18.572 -17.643,101.215 -20.892,116.536"
       style="fill:none;stroke:#231f20;stroke-width:0.5;stroke-linecap:round;stroke-linejoin:round;stroke-miterlimit:4;stroke-dasharray:2.8, 1.8;stroke-dashoffset:0;stroke-opacity:1"
       id="path728" />
    <path
       d="m 424.933,677.336 c 4.335,-13.467 10.37,-34.824 4.799,-51.075 -5.571,-16.25 -13.928,-26.927 -31.571,-37.143"
       style="fill:none;stroke:#231f20;stroke-width:0.5;stroke-linecap:round;stroke-linejoin:round;stroke-miterlimit:4;stroke-dasharray:2.8, 1.8;stroke-dashoffset:0;stroke-opacity:1"
       id="path730" />
    <path
       d="m 540,652.726 c -7.196,0.464 -46.79,0.305 -56.244,-0.544"
       style="fill:none;stroke:#231f20;stroke-width:0.5;stroke-linecap:round;stroke-linejoin:round;stroke-miterlimit:4;stroke-dasharray:2.8, 1.8;stroke-dashoffset:0;stroke-opacity:1"
       id="path732" />
    <path
       d="m 539.304,612.796 c -7.892,0.466 -39.002,-0.638 -47.823,0.145"
       style="fill:none;stroke:#231f20;stroke-width:0.5;stroke-linecap:round;stroke-linejoin:round;stroke-miterlimit:4;stroke-dasharray:2.8, 1.8;stroke-dashoffset:0;stroke-opacity:1"
       id="path734" />
    <path
       d="m 536.505,575.423 c -4.862,0.696 -26.451,-0.349 -32.023,-1.046"
       style="fill:none;stroke:#231f20;stroke-width:0.5;stroke-linecap:round;stroke-linejoin:round;stroke-miterlimit:4;stroke-dasharray:2.8, 1.8;stroke-dashoffset:0;stroke-opacity:1"
       id="path736" />
    <path
       d="m 504.482,574.377 c -3.134,3.484 -12.535,10.795 -18.106,13.233 -5.573,2.437 -25.073,9.401 -34.474,8.705 -9.402,-0.696 -21.879,-5.165 -33.488,-18.139"
       style="fill:none;stroke:#231f20;stroke-width:0.5;stroke-linecap:round;stroke-linejoin:round;stroke-miterlimit:4;stroke-dasharray:2.8, 1.8;stroke-dashoffset:0;stroke-opacity:1"
       id="path738" />
    <path
       d="m 419.866,577.511 c 1.045,-1.741 -1.044,-3.482 -3.83,-4.875 -2.786,-1.392 -11.839,-6.964 -17.759,-9.75 -5.92,-2.785 -20.196,-8.009 -28.902,-9.401 -8.706,-1.394 -20.893,-4.875 -20.544,-7.661 0.347,-2.785 4.352,-4.353 12.883,-3.83 7.665,0.468 14.973,-3.134 17.759,-8.358 2.786,-5.222 6.616,-14.972 10.099,-17.759 3.481,-2.786 5.919,-3.482 10.794,-3.482 4.875,0 5.813,-2.217 8.009,-4.875 3.308,-4.004 8.009,-5.397 14.277,-5.571 4.874,-0.136 11.839,-0.697 11.839,-3.134 0,-2.438 -2.096,-3.767 -8.009,-3.483 -6.098,0.294 -16.001,1.252 -18.455,1.393 -2.085,0.12 -5.92,0.697 -6.268,2.786 -0.348,2.089 -1.396,3.019 -4.178,3.134 -4.179,0.174 -7.313,1.045 -12.537,5.224 -5.222,4.178 -8.705,10.446 -10.446,15.67 -1.741,5.222 -5.223,10.097 -10.795,11.142 -5.571,1.045 -14.641,1.482 -16.714,1.741 -4.178,0.523 -8.357,4.179 -8.008,9.75 0.347,5.572 6.963,9.054 21.588,12.188 14.625,3.134 28.206,6.616 38.653,11.839 10.446,5.223 18.946,9.732 20.544,7.312 z"
       style="fill:none;stroke:#231f20;stroke-width:0.5;stroke-linecap:round;stroke-linejoin:round;stroke-miterlimit:4;stroke-dasharray:2.8, 1.8;stroke-dashoffset:0;stroke-opacity:1"
       id="path740" />
    <path
       d="m 420.018,575.946 c 0,0 8.718,-6.581 11.504,-8.67"
       style="fill:none;stroke:#231f20;stroke-width:0.5;stroke-linecap:round;stroke-linejoin:round;stroke-miterlimit:4;stroke-dasharray:2.8, 1.8;stroke-dashoffset:0;stroke-opacity:1"
       id="path742" />
    <path
       d="m 476.558,561.521 c -3.017,2.785 -8.169,4.809 -13.629,6.008 -5.803,1.277 -22.982,1.624 -28.553,0.465 -5.572,-1.162 -30.413,-8.823 -32.269,-19.733 -1.857,-10.91 2.227,-27.857 28.459,-24.375"
       style="fill:none;stroke:#231f20;stroke-width:0.5;stroke-linecap:round;stroke-linejoin:round;stroke-miterlimit:4;stroke-dasharray:2.8, 1.8;stroke-dashoffset:0;stroke-opacity:1"
       id="path744" />
    <path
       d="m 434.607,529.921 c -1.857,-3.249 -13.804,-15.684 -2.839,-28.966"
       style="fill:none;stroke:#231f20;stroke-width:0.5;stroke-linecap:round;stroke-linejoin:round;stroke-miterlimit:4;stroke-dasharray:2.8, 1.8;stroke-dashoffset:0;stroke-opacity:1"
       id="path746" />
    <path
       d="m 504.482,574.377 c -2.785,-0.232 -18.514,-3.344 -21.589,-4.062 -3.482,-0.813 -6.616,-1.683 -6.035,-4.875 0.555,-3.047 -0.696,-5.572 -3.715,-8.821"
       style="fill:none;stroke:#231f20;stroke-width:0.5;stroke-linecap:round;stroke-linejoin:round;stroke-miterlimit:4;stroke-dasharray:2.8, 1.8;stroke-dashoffset:0;stroke-opacity:1"
       id="path748" />
    <path
       d="m 503.553,573.566 c -1.412,-0.404 -2.188,-2.294 -1.392,-6.269 0.928,-4.643 2.785,-9.75 7.196,-15.553 4.411,-5.804 7.662,-9.752 9.519,-11.607 1.856,-1.858 1.624,-4.875 0,-5.108 -1.626,-0.233 -6.734,1.394 -6.965,-0.233 -0.232,-1.624 6.036,-4.643 8.125,-5.106 2.089,-0.465 7.66,-0.465 7.66,5.106 0,5.572 -3.735,13.167 -7.428,19.733 -4.179,7.429 -12.768,17.411 -13.464,18.107 -0.696,0.696 -1.627,1.392 -3.251,0.93 z"
       style="fill:none;stroke:#231f20;stroke-width:0.5;stroke-linecap:round;stroke-linejoin:round;stroke-miterlimit:4;stroke-dasharray:2.8, 1.8;stroke-dashoffset:0;stroke-opacity:1"
       id="path750" />
    <path
       d="m 537.658,523.273 c -4.622,1.542 -12.316,3.928 -19.147,6.912"
       style="fill:none;stroke:#231f20;stroke-width:0.5;stroke-linecap:round;stroke-linejoin:round;stroke-miterlimit:4;stroke-dasharray:2.8, 1.8;stroke-dashoffset:0;stroke-opacity:1"
       id="path752" />
    <path
       d="m 473.679,553.6 c 6.5,-0.696 27.321,-5.571 35.446,-16.714 8.125,-11.143 8.589,-17.41 7.893,-21.124 -0.696,-3.715 -10.214,-19.267 -20.892,-22.982 -10.68,-3.715 -42.294,-8.596 -63.746,3.247"
       style="fill:none;stroke:#231f20;stroke-width:0.5;stroke-linecap:round;stroke-linejoin:round;stroke-miterlimit:4;stroke-dasharray:2.8, 1.8;stroke-dashoffset:0;stroke-opacity:1"
       id="path754" />
    <path
       d="m 509.911,535.79 c -0.786,1.096 -4.499,1.561 -6.589,-0.064 -2.089,-1.626 -4.411,-5.805 -2.322,-8.357 2.089,-2.554 5.803,-7.661 6.036,-9.75 0.232,-2.09 -1.394,-7.43 -3.947,-9.287 -2.552,-1.857 -10.678,-7.893 -13.232,-6.964 -2.553,0.929 -3.945,2.322 -4.643,4.411 0,0 -13.853,-12.441 -4.605,-16.319"
       style="fill:none;stroke:#231f20;stroke-width:0.5;stroke-linecap:round;stroke-linejoin:round;stroke-miterlimit:4;stroke-dasharray:2.8, 1.8;stroke-dashoffset:0;stroke-opacity:1"
       id="path756" />
    <path
       d="m 501,527.369 c -3.25,-0.697 -7.661,-2.554 -9.75,-4.411 -2.089,-1.857 -6.732,-13.697 -6.036,-17.179"
       style="fill:none;stroke:#231f20;stroke-width:0.5;stroke-linecap:round;stroke-linejoin:round;stroke-miterlimit:4;stroke-dasharray:2.8, 1.8;stroke-dashoffset:0;stroke-opacity:1"
       id="path758" />
    <path
       d="m 491.25,522.958 c -3.946,-0.464 -25.837,2.088 -34.425,13.928"
       style="fill:none;stroke:#231f20;stroke-width:0.5;stroke-linecap:round;stroke-linejoin:round;stroke-miterlimit:4;stroke-dasharray:2.8, 1.8;stroke-dashoffset:0;stroke-opacity:1"
       id="path760" />
    <path
       d="m 424.172,547.09 c -3.725,0.242 -17.19,0.939 -22.065,1.171"
       style="fill:none;stroke:#231f20;stroke-width:0.5;stroke-linecap:round;stroke-linejoin:round;stroke-miterlimit:4;stroke-dasharray:2.8, 1.8;stroke-dashoffset:0;stroke-opacity:1"
       id="path762" />
  </g>
</svg>
