<?xml version="1.0" encoding="UTF-8" standalone="no"?>
<!-- Created with Inkscape (http://www.inkscape.org/) -->

<svg
   version="1.1"
   id="svg2"
   width="1440"
   height="1344"
   viewBox="0 0 1440 1344"
   xmlns="http://www.w3.org/2000/svg"
   xmlns:svg="http://www.w3.org/2000/svg">
  <defs
     id="defs6" />
  <g
     id="g10">
    <path
       d="m 603.723,840.412 c 13.575,1.114 38.884,-3.714 48.403,-16.714 8.337,-11.39 24.723,-39.698 23.678,-59.894 -1.045,-20.196 -19.5,-17.062 -24.723,-15.67 -5.223,1.394 -15.322,3.831 -18.804,5.224 -3.482,1.392 -10.384,4.318 -25.594,2.089 -20.196,-2.959 -34.714,-16.512 -38.826,-19.848 -3.637,-2.952 -9.981,-1.973 -13.231,4.991 -3.252,6.964 -5.339,26.697 3.25,53.16 8.588,26.465 23.213,44.804 45.847,46.662"
       style="fill:#ffffff;fill-opacity:1;fill-rule:nonzero;stroke:none;stroke-width:0.1"
       id="path496" />
    <path
       d="m 603.723,840.412 c 13.575,1.114 38.884,-3.714 48.403,-16.714 8.337,-11.39 24.723,-39.698 23.678,-59.894 -1.045,-20.196 -19.5,-17.062 -24.723,-15.67 -5.223,1.394 -15.322,3.831 -18.804,5.224 -3.482,1.392 -10.384,4.318 -25.594,2.089 -20.196,-2.959 -34.714,-16.512 -38.826,-19.848 -3.637,-2.952 -9.981,-1.973 -13.231,4.991 -3.252,6.964 -5.339,26.697 3.25,53.16 8.588,26.465 23.213,44.804 45.847,46.662 z"
       style="fill:none;stroke:#231f20;stroke-width:0.75;stroke-linecap:round;stroke-linejoin:round;stroke-miterlimit:4;stroke-dasharray:none;stroke-opacity:1"
       id="path498" />
    <path
       d="m 632.277,753.358 c -3.482,1.392 -10.384,4.318 -25.594,2.089 -20.196,-2.959 -34.714,-16.512 -38.826,-19.848 -1.044,-1.392 -9.703,-13.25 -11.49,-17.062 -2.613,-5.572 -4.354,-14.278 -5.224,-16.193 -0.87,-1.915 -6.79,-12.885 -8.705,-27.51 C 540.523,660.209 540,644.195 540,637.055 c 0,-7.139 2.612,-21.067 7.487,-32.732 4.875,-11.665 13.262,-18.7 23.679,-19.5 6.79,-0.523 9.053,1.219 10.62,1.741 0,0 10.795,1.741 18.803,4.526 8.009,2.786 18.282,7.661 32.21,16.889 13.929,9.228 17.238,17.236 19.153,21.241 1.915,4.004 4.349,11.083 7.6,24.084 3.251,12.999 5.515,27.335 5.98,36.853 0.465,9.518 -5.049,17.005 -7.835,21.183 -2.785,4.179 -9.037,10.686 -11.377,12.999 -1.289,1.276 -2.726,2.206 -3.771,6.908 -1.045,4.7 -4.173,20.214 -10.272,22.111"
       style="fill:#ffffff;fill-opacity:1;fill-rule:nonzero;stroke:none;stroke-width:0.1"
       id="path500" />
    <path
       d="m 632.277,753.358 c -3.482,1.392 -10.384,4.318 -25.594,2.089 -20.196,-2.959 -34.714,-16.512 -38.826,-19.848 -1.044,-1.392 -9.703,-13.25 -11.49,-17.062 -2.613,-5.572 -4.354,-14.278 -5.224,-16.193 -0.87,-1.915 -6.79,-12.885 -8.705,-27.51 C 540.523,660.209 540,644.195 540,637.055 c 0,-7.139 2.612,-21.067 7.487,-32.732 4.875,-11.665 13.262,-18.7 23.679,-19.5 6.79,-0.523 9.053,1.219 10.62,1.741 0,0 10.795,1.741 18.803,4.526 8.009,2.786 18.282,7.661 32.21,16.889 13.929,9.228 17.238,17.236 19.153,21.241 1.915,4.004 4.349,11.083 7.6,24.084 3.251,12.999 5.515,27.335 5.98,36.853 0.465,9.518 -5.049,17.005 -7.835,21.183 -2.785,4.179 -9.037,10.686 -11.377,12.999 -1.289,1.276 -2.726,2.206 -3.771,6.908 -1.045,4.7 -4.173,20.214 -10.272,22.111 z"
       style="fill:none;stroke:#231f20;stroke-width:0.75;stroke-linecap:round;stroke-linejoin:round;stroke-miterlimit:4;stroke-dasharray:none;stroke-opacity:1"
       id="path502" />
    <path
       d="m 561.799,727.05 c 1.262,-3.638 4.492,-6.425 7.974,-6.25 3.481,0.174 8.183,2.089 8.531,-1.741 0.348,-3.831 1.044,-7.312 1.393,-8.88 0.348,-1.566 2.611,-2.785 6.616,-2.263 4.004,0.522 22.982,6.093 32.035,11.317 9.054,5.224 22.158,15.446 21.612,22.174"
       style="fill:none;stroke:#231f20;stroke-width:0.5;stroke-linecap:butt;stroke-linejoin:miter;stroke-miterlimit:4;stroke-dasharray:none;stroke-opacity:1"
       id="path504" />
    <path
       d="m 550.942,701.919 c 0.55,-2.709 -0.148,-9.847 -1.54,-18.553 -1.393,-8.705 -4.179,-22.808 -4.875,-31.163 -0.696,-8.358 -0.174,-23.505 1.915,-33.604 2.09,-10.098 14.94,-34.302 34.892,-32.211"
       style="fill:none;stroke:#231f20;stroke-width:0.5;stroke-linecap:butt;stroke-linejoin:miter;stroke-miterlimit:4;stroke-dasharray:none;stroke-opacity:1"
       id="path506" />
    <path
       d="m 628.541,605.219 c -3.577,-1.419 -13.327,-4.901 -36.657,2.76 0,0 14.451,-0.871 26.987,1.566 12.536,2.438 19.848,6.791 25.768,16.193 5.919,9.402 10.62,22.808 13.929,40.218 3.308,17.41 3.83,25.245 0.521,33.951 -3.307,8.706 -10.271,13.755 -11.665,13.755 -1.392,0 -13.232,-4.702 -14.625,-5.398 -1.392,-0.696 -13.057,-6.79 -20.718,-13.058 -7.661,-6.268 -22.035,-13.929 -35.789,-13.059"
       style="fill:none;stroke:#231f20;stroke-width:0.5;stroke-linecap:butt;stroke-linejoin:miter;stroke-miterlimit:4;stroke-dasharray:none;stroke-opacity:1"
       id="path508" />
    <path
       d="m 647.248,723.408 c -4.176,-1.911 -18.801,-13.576 -25.069,-18.278 -6.268,-4.701 -19.679,-14.604 -31.513,-17.933 -5.572,-1.568 -8.712,-1.709 -10.621,-1.568 -2.322,0.174 -3.714,-0.986 -3.753,-3.471"
       style="fill:none;stroke:#231f20;stroke-width:0.5;stroke-linecap:butt;stroke-linejoin:miter;stroke-miterlimit:4;stroke-dasharray:none;stroke-opacity:1"
       id="path510" />
    <path
       d="m 607.067,664.53 c 2.054,1.599 8.67,6.474 11.107,3.514 2.438,-2.96 -5.397,-10.793 -9.053,-13.926 -3.657,-3.134 -16.192,-12.363 -20.893,-15.148 -4.701,-2.786 -6.79,-4.005 -7.661,-7.661 -0.87,-3.656 -1.393,-6.441 -1.044,-9.227 0,0 -4.715,3.819 -4.736,10.296"
       style="fill:none;stroke:#231f20;stroke-width:0.5;stroke-linecap:butt;stroke-linejoin:miter;stroke-miterlimit:4;stroke-dasharray:none;stroke-opacity:1"
       id="path512" />
    <path
       d="m 476.277,840.412 c -13.575,1.114 -38.885,-3.714 -48.402,-16.714 -8.338,-11.39 -24.723,-39.698 -23.678,-59.894 1.044,-20.196 19.5,-17.062 24.722,-15.67 5.224,1.394 15.322,3.831 18.804,5.224 3.483,1.392 10.384,4.318 25.594,2.089 20.196,-2.959 34.714,-16.512 38.826,-19.848 3.637,-2.952 9.982,-1.973 13.233,4.991 3.25,6.964 5.338,26.697 -3.251,53.16 -8.589,26.465 -23.214,44.804 -45.848,46.662"
       style="fill:#ffffff;fill-opacity:1;fill-rule:nonzero;stroke:none;stroke-width:0.1"
       id="path514" />
    <path
       d="m 476.277,840.412 c -13.575,1.114 -38.885,-3.714 -48.402,-16.714 -8.338,-11.39 -24.723,-39.698 -23.678,-59.894 1.044,-20.196 19.5,-17.062 24.722,-15.67 5.224,1.394 15.322,3.831 18.804,5.224 3.483,1.392 10.384,4.318 25.594,2.089 20.196,-2.959 34.714,-16.512 38.826,-19.848 3.637,-2.952 9.982,-1.973 13.233,4.991 3.25,6.964 5.338,26.697 -3.251,53.16 -8.589,26.465 -23.214,44.804 -45.848,46.662 z"
       style="fill:none;stroke:#231f20;stroke-width:0.75;stroke-linecap:round;stroke-linejoin:round;stroke-miterlimit:4;stroke-dasharray:none;stroke-opacity:1"
       id="path516" />
    <path
       d="m 447.723,753.358 c 3.483,1.392 10.384,4.318 25.594,2.089 20.196,-2.959 34.714,-16.512 38.826,-19.848 1.045,-1.392 9.704,-13.25 11.491,-17.062 2.612,-5.572 4.353,-14.278 5.223,-16.193 0.871,-1.915 6.791,-12.885 8.706,-27.51 1.915,-14.625 2.437,-30.639 2.437,-37.779 0,-7.139 -2.612,-21.067 -7.487,-32.732 -4.875,-11.665 -13.262,-18.7 -23.678,-19.5 -6.791,-0.523 -9.053,1.219 -10.621,1.741 0,0 -10.795,1.741 -18.803,4.526 -8.009,2.786 -18.282,7.661 -32.21,16.889 -13.929,9.228 -17.237,17.236 -19.152,21.241 -1.915,4.004 -4.351,11.083 -7.602,24.084 -3.251,12.999 -5.513,27.335 -5.979,36.853 -0.465,9.518 5.05,17.005 7.835,21.183 2.786,4.179 9.037,10.686 11.376,12.999 1.289,1.276 2.727,2.206 3.772,6.908 1.045,4.7 4.174,20.214 10.272,22.111"
       style="fill:#ffffff;fill-opacity:1;fill-rule:nonzero;stroke:none;stroke-width:0.1"
       id="path518" />
    <path
       d="m 447.723,753.358 c 3.483,1.392 10.384,4.318 25.594,2.089 20.196,-2.959 34.714,-16.512 38.826,-19.848 1.045,-1.392 9.704,-13.25 11.491,-17.062 2.612,-5.572 4.353,-14.278 5.223,-16.193 0.871,-1.915 6.791,-12.885 8.706,-27.51 1.915,-14.625 2.437,-30.639 2.437,-37.779 0,-7.139 -2.612,-21.067 -7.487,-32.732 -4.875,-11.665 -13.262,-18.7 -23.678,-19.5 -6.791,-0.523 -9.053,1.219 -10.621,1.741 0,0 -10.795,1.741 -18.803,4.526 -8.009,2.786 -18.282,7.661 -32.21,16.889 -13.929,9.228 -17.237,17.236 -19.152,21.241 -1.915,4.004 -4.351,11.083 -7.602,24.084 -3.251,12.999 -5.513,27.335 -5.979,36.853 -0.465,9.518 5.05,17.005 7.835,21.183 2.786,4.179 9.037,10.686 11.376,12.999 1.289,1.276 2.727,2.206 3.772,6.908 1.045,4.7 4.174,20.214 10.272,22.111 z"
       style="fill:none;stroke:#231f20;stroke-width:0.75;stroke-linecap:round;stroke-linejoin:round;stroke-miterlimit:4;stroke-dasharray:none;stroke-opacity:1"
       id="path520" />
    <path
       d="m 518.202,727.05 c -1.263,-3.638 -4.492,-6.425 -7.974,-6.25 -3.482,0.174 -8.184,2.089 -8.531,-1.741 -0.349,-3.831 -1.045,-7.312 -1.394,-8.88 -0.347,-1.566 -2.611,-2.785 -6.615,-2.263 -4.005,0.522 -22.982,6.093 -32.036,11.317 -9.054,5.224 -22.158,15.446 -21.612,22.174"
       style="fill:none;stroke:#231f20;stroke-width:0.5;stroke-linecap:butt;stroke-linejoin:miter;stroke-miterlimit:4;stroke-dasharray:none;stroke-opacity:1"
       id="path522" />
    <path
       d="m 529.059,701.919 c -0.55,-2.709 0.147,-9.847 1.539,-18.553 1.394,-8.705 4.179,-22.808 4.875,-31.163 0.696,-8.358 0.175,-23.505 -1.915,-33.604 -2.089,-10.098 -14.94,-34.302 -34.892,-32.211"
       style="fill:none;stroke:#231f20;stroke-width:0.5;stroke-linecap:butt;stroke-linejoin:miter;stroke-miterlimit:4;stroke-dasharray:none;stroke-opacity:1"
       id="path524" />
    <path
       d="m 451.46,605.219 c 3.576,-1.419 13.326,-4.901 36.656,2.76 0,0 -14.45,-0.871 -26.987,1.566 -12.535,2.438 -19.847,6.791 -25.767,16.193 -5.92,9.402 -10.621,22.808 -13.929,40.218 -3.308,17.41 -3.83,25.245 -0.522,33.951 3.307,8.706 10.272,13.755 11.665,13.755 1.392,0 13.232,-4.702 14.625,-5.398 1.393,-0.696 13.058,-6.79 20.718,-13.058 7.662,-6.268 22.035,-13.929 35.789,-13.059"
       style="fill:none;stroke:#231f20;stroke-width:0.5;stroke-linecap:butt;stroke-linejoin:miter;stroke-miterlimit:4;stroke-dasharray:none;stroke-opacity:1"
       id="path526" />
    <path
       d="m 432.751,723.408 c 4.177,-1.911 18.802,-13.576 25.071,-18.278 6.267,-4.701 19.678,-14.604 31.512,-17.933 5.573,-1.568 8.713,-1.709 10.622,-1.568 2.322,0.174 3.714,-0.986 3.752,-3.471"
       style="fill:none;stroke:#231f20;stroke-width:0.5;stroke-linecap:butt;stroke-linejoin:miter;stroke-miterlimit:4;stroke-dasharray:none;stroke-opacity:1"
       id="path528" />
    <path
       d="m 472.933,664.53 c -2.054,1.599 -8.67,6.474 -11.107,3.514 -2.438,-2.96 5.397,-10.793 9.053,-13.926 3.657,-3.134 16.193,-12.363 20.893,-15.148 4.701,-2.786 6.791,-4.005 7.661,-7.661 0.87,-3.656 1.393,-6.441 1.045,-9.227 0,0 4.714,3.819 4.736,10.296"
       style="fill:none;stroke:#231f20;stroke-width:0.5;stroke-linecap:butt;stroke-linejoin:miter;stroke-miterlimit:4;stroke-dasharray:none;stroke-opacity:1"
       id="path530" />
    <path
       d="m 576.737,651.854 c -1.915,-1.915 -3.656,-9.228 -3.83,-11.143 -0.175,-1.915 -2.241,-10.343 -1.219,-10.621 1.915,-0.522 3.83,3.657 4.875,5.05 1.045,1.393 5.397,9.575 8.009,11.317 2.611,1.741 15.67,11.837 16.888,12.882 1.219,1.045 6.964,6.094 6.79,6.79 -0.173,0.697 -5.397,-1.218 -6.79,-1.915 -1.393,-0.696 -22.974,-10.611 -24.723,-12.36"
       style="fill:#b2b1b1;fill-opacity:1;fill-rule:nonzero;stroke:none;stroke-width:0.1"
       id="path532" />
    <path
       d="m 576.737,651.854 c -1.915,-1.915 -3.656,-9.228 -3.83,-11.143 -0.175,-1.915 -2.241,-10.343 -1.219,-10.621 1.915,-0.522 3.83,3.657 4.875,5.05 1.045,1.393 5.397,9.575 8.009,11.317 2.611,1.741 15.67,11.837 16.888,12.882 1.219,1.045 6.964,6.094 6.79,6.79 -0.173,0.697 -5.397,-1.218 -6.79,-1.915 -1.393,-0.696 -22.974,-10.611 -24.723,-12.36 z"
       style="fill:none;stroke:#b2b1b1;stroke-width:0.5;stroke-linecap:butt;stroke-linejoin:miter;stroke-miterlimit:4;stroke-dasharray:none;stroke-opacity:1"
       id="path534" />
    <path
       d="m 581.786,647.501 c 0,-0.865 -0.702,-1.567 -1.567,-1.567 -0.865,0 -1.567,0.702 -1.567,1.567 0,0.866 0.702,1.567 1.567,1.567 0.865,0 1.567,-0.701 1.567,-1.567"
       style="fill:#706d6e;fill-opacity:1;fill-rule:nonzero;stroke:none;stroke-width:0.1"
       id="path536" />
    <path
       d="m 581.786,647.501 c 0,-0.865 -0.702,-1.567 -1.567,-1.567 -0.865,0 -1.567,0.702 -1.567,1.567 0,0.866 0.702,1.567 1.567,1.567 0.865,0 1.567,-0.701 1.567,-1.567 z"
       style="fill:none;stroke:#706d6e;stroke-width:0.75;stroke-linecap:round;stroke-linejoin:round;stroke-miterlimit:4;stroke-dasharray:none;stroke-opacity:1"
       id="path538" />
    <path
       d="m 503.263,651.854 c 1.915,-1.915 3.656,-9.228 3.831,-11.143 0.174,-1.915 2.24,-10.343 1.219,-10.621 -1.916,-0.522 -3.831,3.657 -4.875,5.05 -1.045,1.393 -5.397,9.575 -8.01,11.317 -2.611,1.741 -15.669,11.837 -16.887,12.882 -1.219,1.045 -6.965,6.094 -6.791,6.79 0.174,0.697 5.397,-1.218 6.791,-1.915 1.392,-0.696 22.973,-10.611 24.722,-12.36"
       style="fill:#b2b1b1;fill-opacity:1;fill-rule:nonzero;stroke:none;stroke-width:0.1"
       id="path540" />
    <path
       d="m 503.263,651.854 c 1.915,-1.915 3.656,-9.228 3.831,-11.143 0.174,-1.915 2.24,-10.343 1.219,-10.621 -1.916,-0.522 -3.831,3.657 -4.875,5.05 -1.045,1.393 -5.397,9.575 -8.01,11.317 -2.611,1.741 -15.669,11.837 -16.887,12.882 -1.219,1.045 -6.965,6.094 -6.791,6.79 0.174,0.697 5.397,-1.218 6.791,-1.915 1.392,-0.696 22.973,-10.611 24.722,-12.36 z"
       style="fill:none;stroke:#b2b1b1;stroke-width:0.5;stroke-linecap:butt;stroke-linejoin:miter;stroke-miterlimit:4;stroke-dasharray:none;stroke-opacity:1"
       id="path542" />
    <path
       d="m 498.214,647.501 c 0,-0.865 0.702,-1.567 1.568,-1.567 0.864,0 1.566,0.702 1.566,1.567 0,0.866 -0.702,1.567 -1.566,1.567 -0.866,0 -1.568,-0.701 -1.568,-1.567"
       style="fill:#706d6e;fill-opacity:1;fill-rule:nonzero;stroke:none;stroke-width:0.1"
       id="path544" />
    <path
       d="m 498.214,647.501 c 0,-0.865 0.702,-1.567 1.568,-1.567 0.864,0 1.566,0.702 1.566,1.567 0,0.866 -0.702,1.567 -1.566,1.567 -0.866,0 -1.568,-0.701 -1.568,-1.567 z"
       style="fill:none;stroke:#706d6e;stroke-width:0.75;stroke-linecap:round;stroke-linejoin:round;stroke-miterlimit:4;stroke-dasharray:none;stroke-opacity:1"
       id="path546" />
    <path
       d="m 520.269,608.036 c 3.482,3.831 5.454,12.768 7.078,24.144 1.626,11.374 1.279,17.759 0.349,23.794 -0.928,6.036 -4.41,21.589 -5.571,26.928 -0.892,4.101 -2.534,9.698 -3.617,12.764 l -0.002,0.004 c -1.023,-1.508 -1.256,-4.295 -0.327,-7.081 0.928,-2.786 4.41,-17.875 5.803,-24.839 1.394,-6.964 2.076,-20.196 1.858,-23.446 -0.218,-3.249 -1.625,-17.874 -3.482,-22.982 -1.858,-5.108 -5.805,-13.464 -16.716,-19.848 4.295,-1.856 11.145,6.732 14.627,10.562"
       style="fill:#d3d2d2;fill-opacity:1;fill-rule:nonzero;stroke:none;stroke-width:0.1"
       id="path548" />
    <path
       d="m 520.269,608.036 c 3.482,3.831 5.454,12.768 7.078,24.144 1.626,11.374 1.279,17.759 0.349,23.794 -0.928,6.036 -4.41,21.589 -5.571,26.928 -0.892,4.101 -2.534,9.698 -3.617,12.764 l -0.002,0.004 c -1.023,-1.508 -1.256,-4.295 -0.327,-7.081 0.928,-2.786 4.41,-17.875 5.803,-24.839 1.394,-6.964 2.076,-20.196 1.858,-23.446 -0.218,-3.249 -1.625,-17.874 -3.482,-22.982 -1.858,-5.108 -5.805,-13.464 -16.716,-19.848 4.295,-1.856 11.145,6.732 14.627,10.562 z"
       style="fill:none;stroke:#d3d2d2;stroke-width:0.5;stroke-linecap:butt;stroke-linejoin:miter;stroke-miterlimit:4;stroke-dasharray:none;stroke-opacity:1"
       id="path550" />
    <path
       d="m 559.732,608.036 c -3.482,3.831 -5.455,12.768 -7.079,24.144 -1.625,11.374 -1.279,17.759 -0.348,23.794 0.927,6.036 4.409,21.589 5.571,26.928 0.891,4.101 2.533,9.698 3.616,12.764 l 0.003,0.004 c 1.022,-1.508 1.255,-4.295 0.326,-7.081 -0.928,-2.786 -4.41,-17.875 -5.803,-24.839 -1.392,-6.964 -2.075,-20.196 -1.858,-23.446 0.219,-3.249 1.626,-17.874 3.482,-22.982 1.858,-5.108 5.806,-13.464 16.716,-19.848 -4.294,-1.856 -11.145,6.732 -14.626,10.562"
       style="fill:#d3d2d2;fill-opacity:1;fill-rule:nonzero;stroke:none;stroke-width:0.1"
       id="path552" />
    <path
       d="m 559.732,608.036 c -3.482,3.831 -5.455,12.768 -7.079,24.144 -1.625,11.374 -1.279,17.759 -0.348,23.794 0.927,6.036 4.409,21.589 5.571,26.928 0.891,4.101 2.533,9.698 3.616,12.764 l 0.003,0.004 c 1.022,-1.508 1.255,-4.295 0.326,-7.081 -0.928,-2.786 -4.41,-17.875 -5.803,-24.839 -1.392,-6.964 -2.075,-20.196 -1.858,-23.446 0.219,-3.249 1.626,-17.874 3.482,-22.982 1.858,-5.108 5.806,-13.464 16.716,-19.848 -4.294,-1.856 -11.145,6.732 -14.626,10.562 z"
       style="fill:none;stroke:#d3d2d2;stroke-width:0.5;stroke-linecap:butt;stroke-linejoin:miter;stroke-miterlimit:4;stroke-dasharray:none;stroke-opacity:1"
       id="path554" />
    <path
       d="m 577.467,720.84 c -1.392,-1.741 -9.915,-13.051 -13.222,-21.583"
       style="fill:none;stroke:#231f20;stroke-width:0.5;stroke-linecap:round;stroke-linejoin:round;stroke-miterlimit:4;stroke-dasharray:2.8, 1.8;stroke-dashoffset:0;stroke-opacity:1"
       id="path556" />
    <path
       d="m 566.551,702.598 c 0.697,1.568 6.703,3.229 9.663,2.532 2.96,-0.696 7.139,-2.786 8.358,-3.482 1.219,-0.696 4.875,-0.87 8.531,-0.174 3.656,0.696 9.75,1.915 18.804,7.313 9.053,5.397 19.847,12.013 22.111,13.406 2.264,1.392 8.009,4.179 8.88,2.785 0.87,-1.393 -3.309,-3.83 -7.139,-6.441 -3.83,-2.612 -12.71,-9.403 -20.37,-14.452 -7.661,-5.048 -26.977,-14.582 -46.129,-5.005"
       style="fill:none;stroke:#231f20;stroke-width:0.5;stroke-linecap:round;stroke-linejoin:round;stroke-miterlimit:4;stroke-dasharray:2.8, 1.8;stroke-dashoffset:0;stroke-opacity:1"
       id="path558" />
    <path
       d="m 576.292,682.158 c -0.04,-2.616 -0.251,-16.725 4.972,-15.158 0,0 8.009,3.831 17.584,12.709 9.576,8.88 20.371,17.238 24.724,20.024 4.352,2.786 10.501,6.267 9.603,8.705"
       style="fill:none;stroke:#231f20;stroke-width:0.5;stroke-linecap:round;stroke-linejoin:round;stroke-miterlimit:4;stroke-dasharray:2.8, 1.8;stroke-dashoffset:0;stroke-opacity:1"
       id="path560" />
    <path
       d="m 623.572,699.733 c 3.148,1.99 9.75,4.701 13.58,4.526 3.831,-0.174 12.362,-4.177 14.8,-13.232 2.437,-9.054 3.588,-21.772 6.27,-26.843"
       style="fill:none;stroke:#231f20;stroke-width:0.5;stroke-linecap:round;stroke-linejoin:round;stroke-miterlimit:4;stroke-dasharray:2.8, 1.8;stroke-dashoffset:0;stroke-opacity:1"
       id="path562" />
    <path
       d="m 581.264,667 c -1.393,-2.786 0,-9.922 6.79,-8.009 6.79,1.915 10.098,3.656 10.098,3.656"
       style="fill:none;stroke:#231f20;stroke-width:0.5;stroke-linecap:round;stroke-linejoin:round;stroke-miterlimit:4;stroke-dasharray:2.8, 1.8;stroke-dashoffset:0;stroke-opacity:1"
       id="path564" />
    <path
       d="m 579.523,622.082 c 0.696,-4.353 2.611,-12.71 12.361,-14.103"
       style="fill:none;stroke:#231f20;stroke-width:0.5;stroke-linecap:round;stroke-linejoin:round;stroke-miterlimit:4;stroke-dasharray:2.8, 1.8;stroke-dashoffset:0;stroke-opacity:1"
       id="path566" />
    <path
       d="m 565.597,702.343 c -0.612,-0.346 -0.525,-2.959 1.216,-2.436 1.741,0.522 0.846,3.604 -1.216,2.436 z"
       style="fill:none;stroke:#231f20;stroke-width:0.5;stroke-linecap:round;stroke-linejoin:round;stroke-miterlimit:4;stroke-dasharray:2.8, 1.8;stroke-dashoffset:6.8475;stroke-opacity:1"
       id="path568" />
    <path
       d="m 502.533,720.84 c 1.393,-1.741 9.915,-13.051 13.222,-21.583"
       style="fill:none;stroke:#231f20;stroke-width:0.5;stroke-linecap:round;stroke-linejoin:round;stroke-miterlimit:4;stroke-dasharray:2.8, 1.8;stroke-dashoffset:0;stroke-opacity:1"
       id="path570" />
    <path
       d="m 513.449,702.598 c -0.697,1.568 -6.703,3.229 -9.663,2.532 -2.96,-0.696 -7.139,-2.786 -8.358,-3.482 -1.218,-0.696 -4.875,-0.87 -8.531,-0.174 -3.656,0.696 -9.75,1.915 -18.803,7.313 -9.053,5.397 -19.848,12.013 -22.112,13.406 -2.263,1.392 -8.009,4.179 -8.879,2.785 -0.871,-1.393 3.308,-3.83 7.138,-6.441 3.831,-2.612 12.71,-9.403 20.371,-14.452 7.66,-5.048 26.976,-14.582 46.129,-5.005"
       style="fill:none;stroke:#231f20;stroke-width:0.5;stroke-linecap:round;stroke-linejoin:round;stroke-miterlimit:4;stroke-dasharray:2.8, 1.8;stroke-dashoffset:0;stroke-opacity:1"
       id="path572" />
    <path
       d="m 503.708,682.158 c 0.04,-2.616 0.252,-16.725 -4.971,-15.158 0,0 -8.009,3.831 -17.585,12.709 -9.576,8.88 -20.37,17.238 -24.724,20.024 -4.352,2.786 -10.5,6.267 -9.602,8.705"
       style="fill:none;stroke:#231f20;stroke-width:0.5;stroke-linecap:round;stroke-linejoin:round;stroke-miterlimit:4;stroke-dasharray:2.8, 1.8;stroke-dashoffset:0;stroke-opacity:1"
       id="path574" />
    <path
       d="m 456.428,699.733 c -3.148,1.99 -9.75,4.701 -13.58,4.526 -3.83,-0.174 -12.361,-4.177 -14.799,-13.232 -2.437,-9.054 -3.589,-21.772 -6.272,-26.843"
       style="fill:none;stroke:#231f20;stroke-width:0.5;stroke-linecap:round;stroke-linejoin:round;stroke-miterlimit:4;stroke-dasharray:2.8, 1.8;stroke-dashoffset:0;stroke-opacity:1"
       id="path576" />
    <path
       d="m 498.737,667 c 1.392,-2.786 0,-9.922 -6.79,-8.009 -6.79,1.915 -10.099,3.656 -10.099,3.656"
       style="fill:none;stroke:#231f20;stroke-width:0.5;stroke-linecap:round;stroke-linejoin:round;stroke-miterlimit:4;stroke-dasharray:2.8, 1.8;stroke-dashoffset:0;stroke-opacity:1"
       id="path578" />
    <path
       d="m 500.478,622.082 c -0.696,-4.353 -2.612,-12.71 -12.362,-14.103"
       style="fill:none;stroke:#231f20;stroke-width:0.5;stroke-linecap:round;stroke-linejoin:round;stroke-miterlimit:4;stroke-dasharray:2.8, 1.8;stroke-dashoffset:0;stroke-opacity:1"
       id="path580" />
    <path
       d="m 514.404,702.343 c 0.612,-0.346 0.525,-2.959 -1.216,-2.436 -1.741,0.522 -0.847,3.604 1.216,2.436 z"
       style="fill:none;stroke:#231f20;stroke-width:0.5;stroke-linecap:round;stroke-linejoin:round;stroke-miterlimit:4;stroke-dasharray:2.8, 1.8;stroke-dashoffset:6.8475;stroke-opacity:1"
       id="path582" />
    <path
       d="m 518.506,695.67 0.002,-0.004 c -0.327,0.924 -0.605,1.627 -0.794,1.978 -0.813,1.509 -3.946,2.901 -6.616,1.624 -2.67,-1.277 -4.54,-4.936 -4.642,-6.848 -0.117,-2.206 1.508,-4.179 2.901,-4.179 1.045,0 1.626,1.162 2.322,2.09 0.697,0.928 2.321,0.347 3.366,-4.528 1.342,-6.254 6.383,-24.839 6.848,-38.07 0.571,-16.255 -1.162,-24.143 -4.526,-31.804 -3.366,-7.66 -10.214,-11.839 -12.652,-13.232 -2.437,-1.393 -6.152,-2.438 -5.688,-4.759 0.464,-2.322 6.615,-0.464 6.615,-0.464"
       style="fill:none;stroke:#231f20;stroke-width:0.5;stroke-linecap:round;stroke-linejoin:round;stroke-miterlimit:4;stroke-dasharray:2.8, 1.8;stroke-dashoffset:0;stroke-opacity:1"
       id="path584" />
    <path
       d="m 561.495,695.67 -0.003,-0.004 c 0.328,0.924 0.606,1.627 0.794,1.978 0.813,1.509 3.946,2.901 6.616,1.624 2.67,-1.277 4.541,-4.936 4.642,-6.848 0.118,-2.206 -1.508,-4.179 -2.901,-4.179 -1.045,0 -1.625,1.162 -2.322,2.09 -0.697,0.928 -2.321,0.347 -3.366,-4.528 -1.341,-6.254 -6.382,-24.839 -6.848,-38.07 -0.571,-16.255 1.162,-24.143 4.527,-31.804 3.366,-7.66 10.214,-11.839 12.652,-13.232 2.437,-1.393 6.152,-2.438 5.688,-4.759 -0.464,-2.322 -6.616,-0.464 -6.616,-0.464"
       style="fill:none;stroke:#231f20;stroke-width:0.5;stroke-linecap:round;stroke-linejoin:round;stroke-miterlimit:4;stroke-dasharray:2.8, 1.8;stroke-dashoffset:0;stroke-opacity:1"
       id="path586" />
  </g>
</svg>
