<?xml version="1.0" encoding="UTF-8" standalone="no"?>
<!-- Created with Inkscape (http://www.inkscape.org/) -->

<svg
   version="1.1"
   id="svg2"
   width="1440"
   height="1344"
   viewBox="0 0 1440 1344"
   xmlns="http://www.w3.org/2000/svg"
   xmlns:svg="http://www.w3.org/2000/svg">
  <defs
     id="defs6" />
  <g
     id="g10">
    <path
       d="m 605.117,844.242 c 14.259,0.707 28.552,-13.929 37.606,-29.599 9.054,-15.67 15.321,-47.705 17.411,-67.205 2.089,-19.5 -3.134,-39 -3.134,-48.054 0,-9.053 -4.178,-23.678 -14.624,-36.911 -10.447,-13.231 -26.117,-26.812 -29.947,-31.687 -3.831,-4.875 -11.84,-21.242 -22.635,-24.375 -10.794,-3.134 -24.026,-4.179 -32.731,11.839 -8.706,16.018 -13.929,44.572 -14.625,57.456 -0.696,12.883 -1.741,47.008 -1.394,59.544 0.349,12.536 2.09,49.098 4.528,61.634 2.437,12.535 17.41,45.268 59.545,47.358"
       style="fill:#ffffff;fill-opacity:1;fill-rule:nonzero;stroke:none;stroke-width:0.1"
       id="path496" />
    <path
       d="m 605.117,844.242 c 14.259,0.707 28.552,-13.929 37.606,-29.599 9.054,-15.67 15.321,-47.705 17.411,-67.205 2.089,-19.5 -3.134,-39 -3.134,-48.054 0,-9.053 -4.178,-23.678 -14.624,-36.911 -10.447,-13.231 -26.117,-26.812 -29.947,-31.687 -3.831,-4.875 -11.84,-21.242 -22.635,-24.375 -10.794,-3.134 -24.026,-4.179 -32.731,11.839 -8.706,16.018 -13.929,44.572 -14.625,57.456 -0.696,12.883 -1.741,47.008 -1.394,59.544 0.349,12.536 2.09,49.098 4.528,61.634 2.437,12.535 17.41,45.268 59.545,47.358 z"
       style="fill:none;stroke:#231f20;stroke-width:0.75;stroke-linecap:round;stroke-linejoin:round;stroke-miterlimit:4;stroke-dasharray:none;stroke-opacity:1"
       id="path498" />
    <path
       d="m 657.033,700.649 c -3.449,8.347 -1.426,20.904 -0.496,26.709 0.928,5.803 1.624,13.929 1.624,19.267 0,5.338 -1.161,11.839 -3.947,20.893 -2.785,9.054 -8.124,18.107 -10.91,23.679 -2.786,5.571 -4.178,12.303 -4.178,12.303 -2.786,3.25 -4.876,9.286 -4.876,9.286 -5.802,0.928 -5.571,6.501 -5.571,6.501 -7.661,-0.698 -9.518,7.427 -9.518,7.427 -3.715,-0.928 -7.094,1.606 -7.429,4.179 -0.326,2.51 -1.856,0.929 -1.856,0.929 -3.713,-3.947 -19.384,-2.554 -19.384,-2.554 -2.786,-5.224 -11.144,-6.964 -16.715,-5.224 0,0 -5.92,-13.347 -8.705,-18.222 -2.786,-4.875 -6.037,-7.429 -6.037,-9.286 0,-1.858 3.251,-10.911 -0.697,-17.643 0,0 5.11,-4.875 3.251,-11.375 -1.858,-6.5 -5.571,-10.446 -6.036,-11.375 -0.463,-0.929 1.393,-2.786 -3.714,-10.911 0,0 -0.852,-1.39 -0.927,-10.678 -0.081,-9.926 -0.698,-17.876 -0.234,-29.947 0.465,-12.07 1.161,-31.107 1.626,-40.624 0.463,-9.519 1.856,-25.072 3.946,-31.573 2.088,-6.499 5.804,-15.322 13.233,-18.338 7.428,-3.017 14.856,-4.41 21.356,0 6.501,4.41 13.642,9.793 19.822,14.182"
       style="fill:none;stroke:#231f20;stroke-width:0.5;stroke-linecap:butt;stroke-linejoin:miter;stroke-miterlimit:4;stroke-dasharray:none;stroke-opacity:1"
       id="path500" />
    <path
       d="m 589.214,660.267 c -2.322,1.162 -2.09,10.681 -1.857,17.18 0.233,6.499 2.554,18.338 4.875,20.892 2.322,2.555 9.518,4.411 15.555,6.965 6.036,2.554 10.677,5.34 12.766,6.268 -1.392,-4.41 -9.053,-12.072 -16.017,-19.269 -6.965,-7.196 -13.465,-25.768 -15.322,-32.036"
       style="fill:#b2b1b1;fill-opacity:1;fill-rule:nonzero;stroke:none;stroke-width:0.1"
       id="path502" />
    <path
       d="m 589.214,660.267 c -2.322,1.162 -2.09,10.681 -1.857,17.18 0.233,6.499 2.554,18.338 4.875,20.892 2.322,2.555 9.518,4.411 15.555,6.965 6.036,2.554 10.677,5.34 12.766,6.268 -1.392,-4.41 -9.053,-12.072 -16.017,-19.269 -6.965,-7.196 -13.465,-25.768 -15.322,-32.036 z"
       style="fill:none;stroke:#b2b1b1;stroke-width:0.5;stroke-linecap:butt;stroke-linejoin:miter;stroke-miterlimit:4;stroke-dasharray:none;stroke-opacity:1"
       id="path504" />
    <path
       d="m 599.197,687.893 c 0,-0.897 -0.728,-1.624 -1.626,-1.624 -0.898,0 -1.625,0.727 -1.625,1.624 0,0.897 0.727,1.627 1.625,1.627 0.898,0 1.626,-0.73 1.626,-1.627"
       style="fill:#706d6e;fill-opacity:1;fill-rule:nonzero;stroke:none;stroke-width:0.1"
       id="path506" />
    <path
       d="m 599.197,687.893 c 0,-0.897 -0.728,-1.624 -1.626,-1.624 -0.898,0 -1.625,0.727 -1.625,1.624 0,0.897 0.727,1.627 1.625,1.627 0.898,0 1.626,-0.73 1.626,-1.627 z"
       style="fill:none;stroke:#706d6e;stroke-width:0.75;stroke-linecap:round;stroke-linejoin:round;stroke-miterlimit:4;stroke-dasharray:none;stroke-opacity:1"
       id="path508" />
    <path
       d="m 653.678,726.632 c -0.088,-2.032 -0.215,-4.205 -0.392,-6.472 -0.93,-11.839 2.088,-17.177 3.701,-21.588"
       style="fill:none;stroke:#231f20;stroke-width:0.5;stroke-linecap:butt;stroke-linejoin:miter;stroke-miterlimit:4;stroke-dasharray:none;stroke-opacity:1"
       id="path510" />
    <path
       d="m 474.884,844.242 c -14.258,0.707 -28.553,-13.929 -37.607,-29.599 -9.054,-15.67 -15.321,-47.705 -17.41,-67.205 -2.09,-19.5 3.133,-39 3.133,-48.054 0,-9.053 4.179,-23.678 14.626,-36.911 10.446,-13.231 26.116,-26.812 29.946,-31.687 3.83,-4.875 11.839,-21.242 22.634,-24.375 10.794,-3.134 24.026,-4.179 32.732,11.839 8.705,16.018 13.929,44.572 14.625,57.456 0.696,12.883 1.741,47.008 1.393,59.544 -0.349,12.536 -2.089,49.098 -4.527,61.634 -2.437,12.535 -17.411,45.268 -59.545,47.358"
       style="fill:#ffffff;fill-opacity:1;fill-rule:nonzero;stroke:none;stroke-width:0.1"
       id="path512" />
    <path
       d="m 474.884,844.242 c -14.258,0.707 -28.553,-13.929 -37.607,-29.599 -9.054,-15.67 -15.321,-47.705 -17.41,-67.205 -2.09,-19.5 3.133,-39 3.133,-48.054 0,-9.053 4.179,-23.678 14.626,-36.911 10.446,-13.231 26.116,-26.812 29.946,-31.687 3.83,-4.875 11.839,-21.242 22.634,-24.375 10.794,-3.134 24.026,-4.179 32.732,11.839 8.705,16.018 13.929,44.572 14.625,57.456 0.696,12.883 1.741,47.008 1.393,59.544 -0.349,12.536 -2.089,49.098 -4.527,61.634 -2.437,12.535 -17.411,45.268 -59.545,47.358 z"
       style="fill:none;stroke:#231f20;stroke-width:0.75;stroke-linecap:round;stroke-linejoin:round;stroke-miterlimit:4;stroke-dasharray:none;stroke-opacity:1"
       id="path514" />
    <path
       d="m 422.967,700.649 c 3.451,8.347 1.426,20.904 0.497,26.709 -0.929,5.803 -1.624,13.929 -1.624,19.267 0,5.338 1.16,11.839 3.946,20.893 2.786,9.054 8.125,18.107 10.91,23.679 2.786,5.571 4.179,12.303 4.179,12.303 2.786,3.25 4.875,9.286 4.875,9.286 5.802,0.928 5.571,6.501 5.571,6.501 7.661,-0.698 9.519,7.427 9.519,7.427 3.715,-0.928 7.093,1.606 7.428,4.179 0.326,2.51 1.857,0.929 1.857,0.929 3.713,-3.947 19.384,-2.554 19.384,-2.554 2.785,-5.224 11.143,-6.964 16.714,-5.224 0,0 5.92,-13.347 8.706,-18.222 2.785,-4.875 6.035,-7.429 6.035,-9.286 0,-1.858 -3.249,-10.911 0.698,-17.643 0,0 -5.109,-4.875 -3.251,-11.375 1.857,-6.5 5.572,-10.446 6.036,-11.375 0.464,-0.929 -1.393,-2.786 3.714,-10.911 0,0 0.853,-1.39 0.927,-10.678 0.082,-9.926 0.699,-17.876 0.235,-29.947 -0.466,-12.07 -1.162,-31.107 -1.626,-40.624 -0.464,-9.519 -1.858,-25.072 -3.947,-31.573 -2.088,-6.499 -5.804,-15.322 -13.232,-18.338 -7.429,-3.017 -14.856,-4.41 -21.357,0 -6.5,4.41 -13.642,9.793 -19.821,14.182"
       style="fill:none;stroke:#231f20;stroke-width:0.5;stroke-linecap:butt;stroke-linejoin:miter;stroke-miterlimit:4;stroke-dasharray:none;stroke-opacity:1"
       id="path516" />
    <path
       d="m 490.787,660.267 c 2.321,1.162 2.089,10.681 1.856,17.18 -0.232,6.499 -2.553,18.338 -4.875,20.892 -2.322,2.555 -9.518,4.411 -15.554,6.965 -6.037,2.554 -10.677,5.34 -12.767,6.268 1.393,-4.41 9.053,-12.072 16.018,-19.269 6.964,-7.196 13.465,-25.768 15.322,-32.036"
       style="fill:#b2b1b1;fill-opacity:1;fill-rule:nonzero;stroke:none;stroke-width:0.1"
       id="path518" />
    <path
       d="m 490.787,660.267 c 2.321,1.162 2.089,10.681 1.856,17.18 -0.232,6.499 -2.553,18.338 -4.875,20.892 -2.322,2.555 -9.518,4.411 -15.554,6.965 -6.037,2.554 -10.677,5.34 -12.767,6.268 1.393,-4.41 9.053,-12.072 16.018,-19.269 6.964,-7.196 13.465,-25.768 15.322,-32.036 z"
       style="fill:none;stroke:#b2b1b1;stroke-width:0.5;stroke-linecap:butt;stroke-linejoin:miter;stroke-miterlimit:4;stroke-dasharray:none;stroke-opacity:1"
       id="path520" />
    <path
       d="m 480.804,687.893 c 0,-0.897 0.728,-1.624 1.625,-1.624 0.898,0 1.626,0.727 1.626,1.624 0,0.897 -0.728,1.627 -1.626,1.627 -0.897,0 -1.625,-0.73 -1.625,-1.627"
       style="fill:#706d6e;fill-opacity:1;fill-rule:nonzero;stroke:none;stroke-width:0.1"
       id="path522" />
    <path
       d="m 480.804,687.893 c 0,-0.897 0.728,-1.624 1.625,-1.624 0.898,0 1.626,0.727 1.626,1.624 0,0.897 -0.728,1.627 -1.626,1.627 -0.897,0 -1.625,-0.73 -1.625,-1.627 z"
       style="fill:none;stroke:#706d6e;stroke-width:0.75;stroke-linecap:round;stroke-linejoin:round;stroke-miterlimit:4;stroke-dasharray:none;stroke-opacity:1"
       id="path524" />
    <path
       d="m 426.322,726.632 c 0.089,-2.032 0.215,-4.205 0.393,-6.472 0.929,-11.839 -2.089,-17.177 -3.701,-21.588"
       style="fill:none;stroke:#231f20;stroke-width:0.5;stroke-linecap:butt;stroke-linejoin:miter;stroke-miterlimit:4;stroke-dasharray:none;stroke-opacity:1"
       id="path526" />
    <path
       d="m 443.104,655.983 c 4.039,-3.143 18.431,-10.572 20.057,-11.037 1.625,-0.463 3.482,1.394 4.411,2.323 -3.483,1.159 -15.089,6.499 -21.59,14.391 -6.5,7.895 -6.035,5.805 -9.75,13.001 -3.714,7.196 -8.124,14.16 -6.732,21.821 1.393,7.66 3.715,14.162 5.572,22.75 1.857,8.589 3.714,22.055 5.106,29.018 1.393,6.964 4.644,14.858 6.501,20.197 1.857,5.339 5.108,11.375 8.589,9.982 3.482,-1.393 0.93,-6.964 0,-13.465 -0.929,-6.5 -2.553,-16.017 2.786,-24.839 5.339,-8.822 7.892,-13.232 16.946,-16.714 9.053,-3.482 21.126,-4.527 14.857,-12.71 l 6.501,0.639 c 0,0 0.801,2.445 0.696,5.107 -0.093,2.326 -1.361,5.172 -0.928,7.66 0,0 -3.947,-4.178 -14.393,0.928 -10.446,5.109 -17.411,8.359 -21.126,21.823 -3.714,13.464 -2.276,25.668 0,32.499 1.626,4.875 -6.731,6.268 -11.839,0 -5.491,-6.737 -6.499,-9.749 -9.518,-19.964 -3.018,-10.214 -7.608,-30.032 -8.822,-35.751 -1.367,-6.44 -3.356,-12.31 -4.36,-15.976 l 7.453,5.108"
       style="fill:none;stroke:#231f20;stroke-width:0.5;stroke-linecap:butt;stroke-linejoin:miter;stroke-miterlimit:4;stroke-dasharray:none;stroke-opacity:1"
       id="path528" />
    <path
       d="m 636.896,655.983 c -4.038,-3.143 -18.431,-10.572 -20.056,-11.037 -1.626,-0.463 -3.482,1.394 -4.411,2.323 3.482,1.159 15.089,6.499 21.589,14.391 6.5,7.895 6.035,5.805 9.75,13.001 3.715,7.196 8.125,14.16 6.732,21.821 -1.393,7.66 -3.715,14.162 -5.572,22.75 -1.856,8.589 -3.713,22.055 -5.106,29.018 -1.393,6.964 -4.644,14.858 -6.5,20.197 -1.857,5.339 -5.108,11.375 -8.59,9.982 -3.482,-1.393 -0.929,-6.964 0,-13.465 0.929,-6.5 2.553,-16.017 -2.786,-24.839 -5.339,-8.822 -7.892,-13.232 -16.946,-16.714 -9.053,-3.482 -21.124,-4.527 -14.857,-12.71 l -6.5,0.639 c 0,0 -0.802,2.445 -0.697,5.107 0.093,2.326 1.362,5.172 0.93,7.66 0,0 3.945,-4.178 14.392,0.928 10.446,5.109 17.41,8.359 21.125,21.823 3.715,13.464 2.277,25.668 0,32.499 -1.625,4.875 6.731,6.268 11.839,0 5.491,-6.737 6.499,-9.749 9.518,-19.964 3.018,-10.214 7.609,-30.032 8.822,-35.751 1.367,-6.44 3.357,-12.31 4.361,-15.976 l -7.454,5.108"
       style="fill:none;stroke:#231f20;stroke-width:0.5;stroke-linecap:butt;stroke-linejoin:miter;stroke-miterlimit:4;stroke-dasharray:none;stroke-opacity:1"
       id="path530" />
    <path
       d="m 614.557,645.478 c 1.191,-0.535 0.425,-2.156 -0.735,-3.78 -1.16,-1.627 -8.356,-11.609 -10.91,-13.698 -2.555,-2.089 -12.536,-10.679 -21.823,-9.518 -9.286,1.161 -14.625,4.876 -17.41,14.858 -2.786,9.982 -1.858,27.623 -1.858,40.856 0,13.232 -0.384,27.199 0.931,44.109 1.449,18.687 2.552,30.177 5.105,45.034 2.554,14.858 2.596,18.044 4.875,25.536 2.437,8.009 9.228,17.585 14.392,21.589 5.19,4.024 14.858,7.198 24.376,4.179 9.517,-3.019 20.777,-13.929 25.537,-21.357 4.236,-6.615 10.213,-21.589 12.999,-31.572 2.786,-9.981 4.875,-20.196 3.714,-20.427 -1.16,-0.233 -2.32,7.195 -3.482,11.606 -1.161,4.411 -5.105,18.804 -7.66,24.839 -2.555,6.036 -6.732,15.322 -13.232,21.59 -6.5,6.267 -13.002,11.607 -19.965,13 -6.965,1.392 -15.785,0.464 -22.054,-5.34 -6.268,-5.803 -10.911,-12.303 -14.161,-29.482 -3.249,-17.178 -6.267,-40.626 -7.428,-57.571 -1.162,-16.946 -1.162,-33.894 -1.162,-51.305 0,-17.411 1.858,-32.732 3.251,-36.911 1.393,-4.178 6.036,-10.908 13.232,-10.908 7.198,0 12.347,0.62 19.037,7.195 3.746,3.681 14.431,17.478 14.431,17.478"
       style="fill:#d3d2d2;fill-opacity:1;fill-rule:nonzero;stroke:none;stroke-width:0.1"
       id="path532" />
    <path
       d="m 465.443,645.478 c -1.191,-0.535 -0.425,-2.156 0.736,-3.78 1.16,-1.627 8.356,-11.609 10.91,-13.698 2.554,-2.089 12.536,-10.679 21.822,-9.518 9.286,1.161 14.625,4.876 17.411,14.858 2.785,9.982 1.857,27.623 1.857,40.856 0,13.232 0.384,27.199 -0.929,44.109 -1.451,18.687 -2.554,30.177 -5.107,45.034 -2.553,14.858 -2.596,18.044 -4.875,25.536 -2.437,8.009 -9.227,17.585 -14.392,21.589 -5.19,4.024 -14.858,7.198 -24.376,4.179 -9.517,-3.019 -20.777,-13.929 -25.536,-21.357 -4.237,-6.615 -10.214,-21.589 -13,-31.572 -2.785,-9.981 -4.875,-20.196 -3.714,-20.427 1.16,-0.233 2.32,7.195 3.482,11.606 1.161,4.411 5.106,18.804 7.661,24.839 2.554,6.036 6.732,15.322 13.232,21.59 6.501,6.267 13.001,11.607 19.965,13 6.964,1.392 15.786,0.464 22.053,-5.34 6.268,-5.803 10.912,-12.303 14.161,-29.482 3.25,-17.178 6.267,-40.626 7.428,-57.571 1.161,-16.946 1.161,-33.894 1.161,-51.305 0,-17.411 -1.857,-32.732 -3.25,-36.911 -1.393,-4.178 -6.035,-10.908 -13.232,-10.908 -7.197,0 -12.347,0.62 -19.036,7.195 -3.747,3.681 -14.432,17.478 -14.432,17.478"
       style="fill:#d3d2d2;fill-opacity:1;fill-rule:nonzero;stroke:none;stroke-width:0.1"
       id="path534" />
    <path
       d="m 634.947,716.678 c 3.461,0.386 6.268,-1.624 5.571,-10.446 -0.696,-8.82 -3.019,-15.553 -15.786,-28.785 -12.767,-13.233 -18.106,-17.875 -21.82,-14.857 -3.715,3.017 -1.394,6.499 -0.233,9.982 1.16,3.482 4.642,10.215 9.75,15.321 5.108,5.107 9.053,8.357 11.143,12.536 2.089,4.178 7.196,15.785 11.375,16.249 z"
       style="fill:none;stroke:#231f20;stroke-width:0.5;stroke-linecap:round;stroke-linejoin:round;stroke-miterlimit:4;stroke-dasharray:2.8, 1.8;stroke-dashoffset:0;stroke-opacity:1"
       id="path536" />
    <path
       d="m 589.214,660.267 c 2.322,-1.159 7.429,-9.054 14.394,-6.267 0,0 -0.929,-1.393 0.464,-2.09 1.392,-0.697 8.357,-4.641 8.357,-4.641"
       style="fill:none;stroke:#231f20;stroke-width:0.5;stroke-linecap:round;stroke-linejoin:round;stroke-miterlimit:4;stroke-dasharray:2.8, 1.8;stroke-dashoffset:0;stroke-opacity:1"
       id="path538" />
    <path
       d="m 603.608,654 c 5.571,2.785 20.661,11.376 29.25,24.839 8.588,13.464 8.991,23.445 8.821,28.554 -0.233,6.964 3.249,11.839 3.249,11.839"
       style="fill:none;stroke:#231f20;stroke-width:0.5;stroke-linecap:round;stroke-linejoin:round;stroke-miterlimit:4;stroke-dasharray:2.8, 1.8;stroke-dashoffset:0;stroke-opacity:1"
       id="path540" />
    <path
       d="m 583.643,711.34 c 1.393,-3.251 5.106,-6.733 7.66,-7.894 2.555,-1.159 4.179,-1.624 9.983,1.858 5.804,3.482 19.5,10.215 25.768,22.054 6.268,11.839 9.053,27.625 6.268,41.089"
       style="fill:none;stroke:#231f20;stroke-width:0.5;stroke-linecap:round;stroke-linejoin:round;stroke-miterlimit:4;stroke-dasharray:2.8, 1.8;stroke-dashoffset:0;stroke-opacity:1"
       id="path542" />
    <path
       d="m 619.393,779.357 c -3.715,4.643 -16.25,12.305 -29.482,0.232 -13.233,-12.071 -19.035,-42.017 -6.035,-55.482"
       style="fill:none;stroke:#231f20;stroke-width:0.5;stroke-linecap:round;stroke-linejoin:round;stroke-miterlimit:4;stroke-dasharray:2.8, 1.8;stroke-dashoffset:0;stroke-opacity:1"
       id="path544" />
    <path
       d="m 576.619,743.607 c 19.731,-8.125 47.586,1.349 28.146,42.448"
       style="fill:none;stroke:#231f20;stroke-width:0.5;stroke-linecap:round;stroke-linejoin:round;stroke-miterlimit:4;stroke-dasharray:2.8, 1.8;stroke-dashoffset:0;stroke-opacity:1"
       id="path546" />
    <path
       d="m 445.053,716.678 c -3.46,0.386 -6.267,-1.624 -5.571,-10.446 0.696,-8.82 3.019,-15.553 15.786,-28.785 12.768,-13.233 18.107,-17.875 21.821,-14.857 3.715,3.017 1.393,6.499 0.233,9.982 -1.16,3.482 -4.643,10.215 -9.75,15.321 -5.108,5.107 -9.054,8.357 -11.143,12.536 -2.09,4.178 -7.197,15.785 -11.376,16.249 z"
       style="fill:none;stroke:#231f20;stroke-width:0.5;stroke-linecap:round;stroke-linejoin:round;stroke-miterlimit:4;stroke-dasharray:2.8, 1.8;stroke-dashoffset:0;stroke-opacity:1"
       id="path548" />
    <path
       d="m 490.787,660.267 c -2.323,-1.159 -7.43,-9.054 -14.394,-6.267 0,0 0.929,-1.393 -0.464,-2.09 -1.393,-0.697 -8.357,-4.641 -8.357,-4.641"
       style="fill:none;stroke:#231f20;stroke-width:0.5;stroke-linecap:round;stroke-linejoin:round;stroke-miterlimit:4;stroke-dasharray:2.8, 1.8;stroke-dashoffset:0;stroke-opacity:1"
       id="path550" />
    <path
       d="m 476.393,654 c -5.572,2.785 -20.662,11.376 -29.25,24.839 -8.589,13.464 -8.991,23.445 -8.821,28.554 0.232,6.964 -3.25,11.839 -3.25,11.839"
       style="fill:none;stroke:#231f20;stroke-width:0.5;stroke-linecap:round;stroke-linejoin:round;stroke-miterlimit:4;stroke-dasharray:2.8, 1.8;stroke-dashoffset:0;stroke-opacity:1"
       id="path552" />
    <path
       d="m 496.358,711.34 c -1.393,-3.251 -5.107,-6.733 -7.661,-7.894 -2.554,-1.159 -4.179,-1.624 -9.983,1.858 -5.803,3.482 -19.5,10.215 -25.767,22.054 -6.268,11.839 -9.054,27.625 -6.268,41.089"
       style="fill:none;stroke:#231f20;stroke-width:0.5;stroke-linecap:round;stroke-linejoin:round;stroke-miterlimit:4;stroke-dasharray:2.8, 1.8;stroke-dashoffset:0;stroke-opacity:1"
       id="path554" />
    <path
       d="m 460.607,779.357 c 3.715,4.643 16.251,12.305 29.483,0.232 13.232,-12.071 19.035,-42.017 6.036,-55.482"
       style="fill:none;stroke:#231f20;stroke-width:0.5;stroke-linecap:round;stroke-linejoin:round;stroke-miterlimit:4;stroke-dasharray:2.8, 1.8;stroke-dashoffset:0;stroke-opacity:1"
       id="path556" />
    <path
       d="m 503.382,743.607 c -19.731,-8.125 -47.586,1.349 -28.147,42.448"
       style="fill:none;stroke:#231f20;stroke-width:0.5;stroke-linecap:round;stroke-linejoin:round;stroke-miterlimit:4;stroke-dasharray:2.8, 1.8;stroke-dashoffset:0;stroke-opacity:1"
       id="path558" />
    <path
       d="m 612.429,647.269 c -5.572,-10.912 -14.161,-18.107 -21.357,-22.286 -7.196,-4.178 -13.372,-0.593 -16.25,1.855 -5.049,4.296 -5.499,10.895 -5.804,22.055 -0.29,10.62 0.058,12.361 0.465,23.679 0.399,11.145 -1.162,28.322 0,46.195 1.161,17.876 2.785,35.751 4.643,47.591 1.856,11.839 4.642,21.589 9.053,29.946 4.411,8.358 11.299,9.676 20.197,10.446 8.705,0.754 12.361,0.232 19.267,-4.178 8.525,-5.445 12.535,-13.465 19.733,-30.875 7.196,-17.411 10.213,-35.993 11.302,-45.065 l 0.072,14.655"
       style="fill:none;stroke:#231f20;stroke-width:0.5;stroke-linecap:round;stroke-linejoin:round;stroke-miterlimit:4;stroke-dasharray:2.8, 1.8;stroke-dashoffset:0;stroke-opacity:1"
       id="path560" />
    <path
       d="m 467.572,647.269 c 5.571,-10.912 14.161,-18.107 21.356,-22.286 7.196,-4.178 13.372,-0.593 16.251,1.855 5.049,4.296 5.499,10.895 5.804,22.055 0.29,10.62 -0.059,12.361 -0.465,23.679 -0.4,11.145 1.161,28.322 0,46.195 -1.162,17.876 -2.786,35.751 -4.642,47.591 -1.858,11.839 -4.643,21.589 -9.054,29.946 -4.411,8.358 -11.3,9.676 -20.196,10.446 -8.707,0.754 -12.363,0.232 -19.268,-4.178 -8.524,-5.445 -12.536,-13.465 -19.732,-30.875 -7.198,-17.411 -10.214,-35.993 -11.304,-45.065 l -0.072,14.655"
       style="fill:none;stroke:#231f20;stroke-width:0.5;stroke-linecap:round;stroke-linejoin:round;stroke-miterlimit:4;stroke-dasharray:2.8, 1.8;stroke-dashoffset:0;stroke-opacity:1"
       id="path562" />
    <path
       d="m 601.369,669.008 c -1.476,-5.081 -0.962,-13.754 0.871,-15.424"
       style="fill:none;stroke:#231f20;stroke-width:0.5;stroke-linecap:round;stroke-linejoin:round;stroke-miterlimit:4;stroke-dasharray:2.8, 1.8;stroke-dashoffset:0;stroke-opacity:1"
       id="path564" />
    <path
       d="m 478.631,669.008 c 1.476,-5.081 0.962,-13.754 -0.87,-15.424"
       style="fill:none;stroke:#231f20;stroke-width:0.5;stroke-linecap:round;stroke-linejoin:round;stroke-miterlimit:4;stroke-dasharray:2.8, 1.8;stroke-dashoffset:0;stroke-opacity:1"
       id="path566" />
  </g>
</svg>
