<?xml version="1.0" encoding="UTF-8" standalone="no"?>
<!-- Created with Inkscape (http://www.inkscape.org/) -->

<svg
   version="1.1"
   id="svg2"
   width="1440"
   height="1344"
   viewBox="0 0 1440 1344"
   xmlns="http://www.w3.org/2000/svg"
   xmlns:svg="http://www.w3.org/2000/svg">
  <defs
     id="defs6" />
  <g
     id="g10">
    <path
       d="m 592.463,855.269 c 17.368,1.259 39.466,-16.715 50.609,-38.536 11.142,-21.821 16.714,-70.804 16.714,-85.66 0,-14.858 -0.93,-29.715 -3.02,-41.554 -2.089,-11.84 -21.82,-37.375 -29.946,-47.125 -8.123,-9.75 -27.161,-29.714 -40.856,-33.893 -13.697,-4.178 -26.464,-7.894 -30.177,7.893 -3.716,15.786 -6.502,42.018 -7.895,55.482 -1.392,13.464 -3.016,34.357 -4.179,49.911 -1.159,15.554 -2.32,20.66 -2.089,40.16 0.234,19.5 2.555,39.928 11.143,60.59 8.591,20.661 23.679,31.571 39.696,32.732"
       style="fill:#ffffff;fill-opacity:1;fill-rule:nonzero;stroke:none;stroke-width:0.1"
       id="path496" />
    <path
       d="m 592.463,855.269 c 17.368,1.259 39.466,-16.715 50.609,-38.536 11.142,-21.821 16.714,-70.804 16.714,-85.66 0,-14.858 -0.93,-29.715 -3.02,-41.554 -2.089,-11.84 -21.82,-37.375 -29.946,-47.125 -8.123,-9.75 -27.161,-29.714 -40.856,-33.893 -13.697,-4.178 -26.464,-7.894 -30.177,7.893 -3.716,15.786 -6.502,42.018 -7.895,55.482 -1.392,13.464 -3.016,34.357 -4.179,49.911 -1.159,15.554 -2.32,20.66 -2.089,40.16 0.234,19.5 2.555,39.928 11.143,60.59 8.591,20.661 23.679,31.571 39.696,32.732 z"
       style="fill:none;stroke:#231f20;stroke-width:0.75;stroke-linecap:round;stroke-linejoin:round;stroke-miterlimit:4;stroke-dasharray:none;stroke-opacity:1"
       id="path498" />
    <path
       d="m 597.804,847.028 c 2.552,-3.946 7.427,-5.919 14.391,-6.848 0,0 9.984,-15.09 15.786,-13.001 0,0 1.314,-10.169 11.375,-18.804 0,0 0.538,-15.444 7.429,-26.928 1.393,-2.322 0.927,-11.608 2.321,-18.107 1.393,-6.5 3.947,-11.84 4.178,-14.161 0.234,-2.321 -1.158,-6.732 -1.158,-12.304 0,-5.571 -0.232,-11.142 2.32,-14.392 0,0 -4.41,-20.429 -2.786,-32.964 0,0 -10.773,-17.414 -15.786,-29.947 -1.393,-3.482 -3.714,-3.249 -7.662,-7.428 -3.944,-4.179 -9.75,-15.785 -24.375,-26.928 -14.625,-11.143 -20.658,-13.465 -27.623,-12.536 -6.964,0.928 -11.377,3.483 -14.393,12.303 -1.358,3.968 -3.411,10.151 -4.642,18.34 -1.507,10.011 -2.124,22.677 -3.019,33.66 -1.624,19.965 -0.928,13.232 -1.158,16.25 -0.235,3.018 -1.628,12.768 -0.698,17.411 0.928,4.643 -0.465,8.821 -0.696,11.606 -0.234,2.787 2.786,3.483 2.786,11.84 0,8.357 2.785,11.608 3.017,16.947 0.231,5.338 -1.161,9.75 -1.161,9.75 0,0 3.481,5.338 3.481,8.821 0,3.482 -2.089,8.821 -2.089,8.821 0,0 3.482,2.554 3.716,6.269 0.231,3.714 -2.554,7.659 -2.323,9.981 0,0 7.661,4.875 0,21.358 0,0 9.902,3.318 6.965,13.463 0,0 6.963,-1.857 9.981,9.054 0,0 17.867,1.033 21.823,8.474 z"
       style="fill:none;stroke:#231f20;stroke-width:0.5;stroke-linecap:butt;stroke-linejoin:miter;stroke-miterlimit:4;stroke-dasharray:none;stroke-opacity:1"
       id="path500" />
    <path
       d="m 603.141,719.698 c 3.947,1.625 6.037,7.427 7.895,9.75 1.855,2.321 4.178,4.875 5.802,4.411 1.624,-0.465 2.09,-4.411 0.697,-8.59 -1.393,-4.179 -6.499,-19.732 -10.678,-26.464 -4.178,-6.732 -6.964,-11.376 -7.66,-15.555 -0.697,-4.178 -5.564,-17.41 -8.591,-17.41 -1.856,0 1.161,17.179 2.089,25.304 0.928,8.125 1.627,16.713 1.858,19.268 0.231,2.554 0.217,5.84 8.588,9.286"
       style="fill:#b2b1b1;fill-opacity:1;fill-rule:nonzero;stroke:none;stroke-width:0.1"
       id="path502" />
    <path
       d="m 603.141,719.698 c 3.947,1.625 6.037,7.427 7.895,9.75 1.855,2.321 4.178,4.875 5.802,4.411 1.624,-0.465 2.09,-4.411 0.697,-8.59 -1.393,-4.179 -6.499,-19.732 -10.678,-26.464 -4.178,-6.732 -6.964,-11.376 -7.66,-15.555 -0.697,-4.178 -5.564,-17.41 -8.591,-17.41 -1.856,0 1.161,17.179 2.089,25.304 0.928,8.125 1.627,16.713 1.858,19.268 0.231,2.554 0.217,5.84 8.588,9.286 z"
       style="fill:none;stroke:#b2b1b1;stroke-width:0.5;stroke-linecap:butt;stroke-linejoin:miter;stroke-miterlimit:4;stroke-dasharray:none;stroke-opacity:1"
       id="path504" />
    <path
       d="m 602.448,700.894 c 0,-0.897 -0.73,-1.625 -1.627,-1.625 -0.898,0 -1.624,0.728 -1.624,1.625 0,0.898 0.726,1.625 1.624,1.625 0.897,0 1.627,-0.727 1.627,-1.625"
       style="fill:#706d6e;fill-opacity:1;fill-rule:nonzero;stroke:none;stroke-width:0.1"
       id="path506" />
    <path
       d="m 602.448,700.894 c 0,-0.897 -0.73,-1.625 -1.627,-1.625 -0.898,0 -1.624,0.728 -1.624,1.625 0,0.898 0.726,1.625 1.624,1.625 0.897,0 1.627,-0.727 1.627,-1.625 z"
       style="fill:none;stroke:#706d6e;stroke-width:0.75;stroke-linecap:round;stroke-linejoin:round;stroke-miterlimit:4;stroke-dasharray:none;stroke-opacity:1"
       id="path508" />
    <path
       d="m 590.606,829.733 c 6.537,0.934 11.376,1.625 16.482,-1.858 5.107,-3.481 16.715,-16.714 20.197,-22.053 3.482,-5.339 9.516,-15.554 12.767,-28.553 3.251,-13 3.713,-18.804 4.179,-32.269 0.465,-13.463 0.696,-22.053 -0.697,-36.212 -1.393,-14.162 -6.036,-27.626 -11.839,-38.073 -5.803,-10.446 -16.249,-23.678 -22.052,-30.643 -5.806,-6.964 -12.073,-14.159 -16.948,-16.249 -4.875,-2.089 -19.5,-1.393 -24.375,5.339 -4.872,6.732 -6.034,12.536 -3.48,28.786 2.552,16.249 1.624,26.232 1.624,29.946 0,3.714 -1.392,18.107 -1.624,22.982 -0.234,4.875 2.784,24.607 4.176,31.804 1.393,7.195 4.413,23.909 4.644,32.499 0.231,8.59 -0.928,27.161 -0.697,35.983 0.232,8.821 7.893,17.178 17.643,18.571 z m -15.553,-32.732 c 0.93,-12.303 1.233,-28.933 -1.624,-41.786 -4.179,-18.803 -5.572,-32.035 -6.037,-43.875 -0.463,-11.839 1.624,-24.839 1.393,-35.517 -0.231,-10.679 -2.089,-19.036 -2.554,-31.107 -0.452,-11.716 6.741,-17.737 14.162,-18.572 6.697,-0.756 14.095,3.014 17.177,5.107 6.499,4.412 15.786,15.786 27.857,33.662 12.071,17.874 14.625,32.035 15.786,37.837 1.163,5.803 1.624,30.18 0.466,49.215 -1.162,19.035 -4.413,30.875 -11.608,44.34 -7.195,13.464 -19.269,26.232 -22.751,29.482 -3.483,3.25 -12.066,2.765 -16.018,1.857 -17.179,-3.946 -17.176,-18.34 -16.249,-30.643"
       style="fill:#d3d2d2;fill-opacity:1;fill-rule:nonzero;stroke:none;stroke-width:0.1"
       id="path510" />
    <path
       d="m 487.536,855.269 c -17.367,1.259 -39.464,-16.715 -50.607,-38.536 -11.143,-21.821 -16.715,-70.804 -16.715,-85.66 0,-14.858 0.929,-29.715 3.019,-41.554 2.089,-11.84 21.822,-37.375 29.946,-47.125 8.125,-9.75 27.161,-29.714 40.857,-33.893 13.696,-4.178 26.464,-7.894 30.177,7.893 3.717,15.786 6.502,42.018 7.895,55.482 1.394,13.464 3.018,34.357 4.179,49.911 1.159,15.554 2.32,20.66 2.089,40.16 -0.234,19.5 -2.554,39.928 -11.143,60.59 -8.591,20.661 -23.68,31.571 -39.697,32.732"
       style="fill:#ffffff;fill-opacity:1;fill-rule:nonzero;stroke:none;stroke-width:0.1"
       id="path512" />
    <path
       d="m 487.536,855.269 c -17.367,1.259 -39.464,-16.715 -50.607,-38.536 -11.143,-21.821 -16.715,-70.804 -16.715,-85.66 0,-14.858 0.929,-29.715 3.019,-41.554 2.089,-11.84 21.822,-37.375 29.946,-47.125 8.125,-9.75 27.161,-29.714 40.857,-33.893 13.696,-4.178 26.464,-7.894 30.177,7.893 3.717,15.786 6.502,42.018 7.895,55.482 1.394,13.464 3.018,34.357 4.179,49.911 1.159,15.554 2.32,20.66 2.089,40.16 -0.234,19.5 -2.554,39.928 -11.143,60.59 -8.591,20.661 -23.68,31.571 -39.697,32.732 z"
       style="fill:none;stroke:#231f20;stroke-width:0.75;stroke-linecap:round;stroke-linejoin:round;stroke-miterlimit:4;stroke-dasharray:none;stroke-opacity:1"
       id="path514" />
    <path
       d="m 482.197,847.028 c -2.554,-3.946 -7.429,-5.919 -14.393,-6.848 0,0 -9.984,-15.09 -15.786,-13.001 0,0 -1.314,-10.169 -11.375,-18.804 0,0 -0.538,-15.444 -7.429,-26.928 -1.393,-2.322 -0.927,-11.608 -2.321,-18.107 -1.393,-6.5 -3.945,-11.84 -4.178,-14.161 -0.233,-2.321 1.161,-6.732 1.161,-12.304 0,-5.571 0.231,-11.142 -2.323,-14.392 0,0 4.41,-20.429 2.786,-32.964 0,0 10.773,-17.414 15.787,-29.947 1.392,-3.482 3.714,-3.249 7.661,-7.428 3.945,-4.179 9.75,-15.785 24.375,-26.928 14.625,-11.143 20.66,-13.465 27.624,-12.536 6.964,0.928 11.376,3.483 14.394,12.303 1.358,3.968 3.411,10.151 4.641,18.34 1.506,10.011 2.125,22.677 3.019,33.66 1.624,19.965 0.928,13.232 1.16,16.25 0.233,3.018 1.624,12.768 0.696,17.411 -0.928,4.643 0.465,8.821 0.696,11.606 0.234,2.787 -2.785,3.483 -2.785,11.84 0,8.357 -2.786,11.608 -3.018,16.947 -0.231,5.338 1.162,9.75 1.162,9.75 0,0 -3.482,5.338 -3.482,8.821 0,3.482 2.089,8.821 2.089,8.821 0,0 -3.483,2.554 -3.716,6.269 -0.231,3.714 2.555,7.659 2.323,9.981 0,0 -7.66,4.875 0,21.358 0,0 -9.903,3.318 -6.965,13.463 0,0 -6.963,-1.857 -9.982,9.054 0,0 -17.866,1.033 -21.821,8.474 z"
       style="fill:none;stroke:#231f20;stroke-width:0.5;stroke-linecap:butt;stroke-linejoin:miter;stroke-miterlimit:4;stroke-dasharray:none;stroke-opacity:1"
       id="path516" />
    <path
       d="m 476.858,719.698 c -3.947,1.625 -6.037,7.427 -7.894,9.75 -1.856,2.321 -4.179,4.875 -5.803,4.411 -1.624,-0.465 -2.09,-4.411 -0.697,-8.59 1.393,-4.179 6.5,-19.732 10.679,-26.464 4.179,-6.732 6.964,-11.376 7.661,-15.555 0.696,-4.178 5.563,-17.41 8.589,-17.41 1.857,0 -1.161,17.179 -2.089,25.304 -0.928,8.125 -1.627,16.713 -1.858,19.268 -0.231,2.554 -0.216,5.84 -8.588,9.286"
       style="fill:#b2b1b1;fill-opacity:1;fill-rule:nonzero;stroke:none;stroke-width:0.1"
       id="path518" />
    <path
       d="m 476.858,719.698 c -3.947,1.625 -6.037,7.427 -7.894,9.75 -1.856,2.321 -4.179,4.875 -5.803,4.411 -1.624,-0.465 -2.09,-4.411 -0.697,-8.59 1.393,-4.179 6.5,-19.732 10.679,-26.464 4.179,-6.732 6.964,-11.376 7.661,-15.555 0.696,-4.178 5.563,-17.41 8.589,-17.41 1.857,0 -1.161,17.179 -2.089,25.304 -0.928,8.125 -1.627,16.713 -1.858,19.268 -0.231,2.554 -0.216,5.84 -8.588,9.286 z"
       style="fill:none;stroke:#b2b1b1;stroke-width:0.5;stroke-linecap:butt;stroke-linejoin:miter;stroke-miterlimit:4;stroke-dasharray:none;stroke-opacity:1"
       id="path520" />
    <path
       d="m 477.553,700.894 c 0,-0.897 0.728,-1.625 1.625,-1.625 0.898,0 1.626,0.728 1.626,1.625 0,0.898 -0.728,1.625 -1.626,1.625 -0.897,0 -1.625,-0.727 -1.625,-1.625"
       style="fill:#706d6e;fill-opacity:1;fill-rule:nonzero;stroke:none;stroke-width:0.1"
       id="path522" />
    <path
       d="m 477.553,700.894 c 0,-0.897 0.728,-1.625 1.625,-1.625 0.898,0 1.626,0.728 1.626,1.625 0,0.898 -0.728,1.625 -1.626,1.625 -0.897,0 -1.625,-0.727 -1.625,-1.625 z"
       style="fill:none;stroke:#706d6e;stroke-width:0.75;stroke-linecap:round;stroke-linejoin:round;stroke-miterlimit:4;stroke-dasharray:none;stroke-opacity:1"
       id="path524" />
    <path
       d="m 507.036,811.162 c 0.231,-8.822 -0.928,-27.393 -0.697,-35.983 0.231,-8.59 3.251,-25.304 4.644,-32.499 1.393,-7.197 4.411,-26.929 4.177,-31.804 -0.231,-4.875 -1.624,-19.268 -1.624,-22.982 0,-3.714 -0.929,-13.697 1.624,-29.946 2.554,-16.25 1.393,-22.054 -3.481,-28.786 -4.874,-6.732 -19.5,-7.428 -24.375,-5.339 -4.875,2.09 -11.142,9.285 -16.947,16.249 -5.804,6.965 -16.25,20.197 -22.053,30.643 -5.803,10.447 -10.446,23.911 -11.839,38.073 -1.393,14.159 -1.162,22.749 -0.697,36.212 0.466,13.465 0.928,19.269 4.179,32.269 3.251,12.999 9.285,23.214 12.767,28.553 3.482,5.339 15.09,18.572 20.197,22.053 5.106,3.483 9.945,2.792 16.482,1.858 9.75,-1.393 17.411,-9.75 17.643,-18.571 z m -18.339,16.482 c -3.952,0.908 -12.535,1.393 -16.018,-1.857 -3.482,-3.25 -15.555,-16.018 -22.751,-29.482 -7.195,-13.465 -10.446,-25.305 -11.606,-44.34 -1.16,-19.035 -0.698,-43.412 0.464,-49.215 1.161,-5.802 3.715,-19.963 15.786,-37.837 12.071,-17.876 21.358,-29.25 27.857,-33.662 3.084,-2.093 10.481,-5.863 17.178,-5.107 7.42,0.835 14.613,6.856 14.161,18.572 -0.465,12.071 -2.323,20.428 -2.554,31.107 -0.231,10.678 1.857,23.678 1.393,35.517 -0.464,11.84 -1.857,25.072 -6.035,43.875 -2.857,12.853 -2.555,29.483 -1.626,41.786 0.93,12.303 0.93,26.697 -16.249,30.643"
       style="fill:#d3d2d2;fill-opacity:1;fill-rule:nonzero;stroke:none;stroke-width:0.1"
       id="path526" />
    <path
       d="m 605,778.662 c 4.874,0 11.142,-13.929 11.142,-20.893 0,-6.965 -2.32,-36.911 -21.124,-36.911 -16.483,0 -4.173,35.445 -2.089,42.018 1.308,4.134 6.964,15.786 12.071,15.786 z"
       style="fill:none;stroke:#231f20;stroke-width:0.5;stroke-linecap:round;stroke-linejoin:round;stroke-miterlimit:4;stroke-dasharray:2.8, 1.8;stroke-dashoffset:0;stroke-opacity:1"
       id="path528" />
    <path
       d="m 579.231,812.554 c -1.158,-5.571 -1.393,-22.285 -0.696,-35.982 0.696,-13.697 -2.089,-21.124 -3.948,-29.25 -1.857,-8.126 -3.481,-33.196 -2.32,-46.196 1.162,-13.001 -0.231,-32.035 -1.624,-51.071 -1.393,-19.036 6.964,-21.126 12.998,-20.893 6.037,0.232 15.321,5.107 29.946,23.678 14.625,18.572 21.359,35.518 23.679,46.894 2.32,11.374 3.02,24.142 2.786,39.928 -0.231,15.785 -2.321,30.875 -7.661,45.732 -5.34,14.856 -18.107,30.178 -23.213,34.356 -5.106,4.179 -12.085,6.782 -17.642,5.34 -6.268,-1.625 -11.143,-6.965 -12.305,-12.536 z"
       style="fill:none;stroke:#231f20;stroke-width:0.5;stroke-linecap:round;stroke-linejoin:round;stroke-miterlimit:4;stroke-dasharray:2.8, 1.8;stroke-dashoffset:0;stroke-opacity:1"
       id="path530" />
    <path
       d="m 475,778.662 c -4.875,0 -11.143,-13.929 -11.143,-20.893 0,-6.965 2.322,-36.911 21.125,-36.911 16.482,0 4.174,35.445 2.09,42.018 -1.31,4.134 -6.966,15.786 -12.072,15.786 z"
       style="fill:none;stroke:#231f20;stroke-width:0.5;stroke-linecap:round;stroke-linejoin:round;stroke-miterlimit:4;stroke-dasharray:2.8, 1.8;stroke-dashoffset:0;stroke-opacity:1"
       id="path532" />
    <path
       d="m 500.768,812.554 c 1.16,-5.571 1.393,-22.285 0.696,-35.982 -0.696,-13.697 2.089,-21.124 3.948,-29.25 1.857,-8.126 3.481,-33.196 2.32,-46.196 -1.162,-13.001 0.232,-32.035 1.625,-51.071 1.393,-19.036 -6.964,-21.126 -12.999,-20.893 -6.035,0.232 -15.321,5.107 -29.946,23.678 -14.625,18.572 -21.359,35.518 -23.679,46.894 -2.32,11.374 -3.019,24.142 -2.786,39.928 0.233,15.785 2.321,30.875 7.661,45.732 5.34,14.856 18.107,30.178 23.213,34.356 5.106,4.179 12.085,6.782 17.643,5.34 6.268,-1.625 11.143,-6.965 12.304,-12.536 z"
       style="fill:none;stroke:#231f20;stroke-width:0.5;stroke-linecap:round;stroke-linejoin:round;stroke-miterlimit:4;stroke-dasharray:2.8, 1.8;stroke-dashoffset:0;stroke-opacity:1"
       id="path534" />
  </g>
</svg>
