<?xml version="1.0" encoding="UTF-8" standalone="no"?>
<!-- Created with Inkscape (http://www.inkscape.org/) -->

<svg
   version="1.1"
   id="svg2"
   width="1440"
   height="1344"
   viewBox="0 0 1440 1344"
   xmlns="http://www.w3.org/2000/svg"
   xmlns:svg="http://www.w3.org/2000/svg">
  <defs
     id="defs6" />
  <g
     id="g10">
    <path
       d="m 591.884,865.831 c 11.143,0 26.813,-5.92 41.785,-24.027 14.974,-18.107 25.42,-52.232 25.42,-83.92 0,-31.687 -6.963,-70.34 -35.17,-105.509 -28.205,-35.169 -59.543,-44.919 -65.115,-36.562 -5.572,8.356 -12.885,26.812 -14.625,45.964 -1.741,19.152 -2.437,50.491 -2.786,67.902 -0.495,24.727 -0.601,44.346 -0.601,58.5 0,20.591 1.369,45.071 14.252,59.695 12.884,14.626 26.394,17.957 36.84,17.957"
       style="fill:#ffffff;fill-opacity:1;fill-rule:nonzero;stroke:none;stroke-width:0.1"
       id="path496" />
    <path
       d="m 591.884,865.831 c 11.143,0 26.813,-5.92 41.785,-24.027 14.974,-18.107 25.42,-52.232 25.42,-83.92 0,-31.687 -6.963,-70.34 -35.17,-105.509 -28.205,-35.169 -59.543,-44.919 -65.115,-36.562 -5.572,8.356 -12.885,26.812 -14.625,45.964 -1.741,19.152 -2.437,50.491 -2.786,67.902 -0.495,24.727 -0.601,44.346 -0.601,58.5 0,20.591 1.369,45.071 14.252,59.695 12.884,14.626 26.394,17.957 36.84,17.957 z"
       style="fill:none;stroke:#231f20;stroke-width:0.75;stroke-linecap:round;stroke-linejoin:round;stroke-miterlimit:4;stroke-dasharray:none;stroke-opacity:1"
       id="path498" />
    <path
       d="m 582.25,852.482 c 0.696,-4.41 8.821,-4.643 13.928,0.465 0,0 3.579,-4.155 12.769,-1.858 3.715,0.929 4.643,-1.392 5.803,-3.482 1.161,-2.089 4.179,-6.5 8.358,-8.357 0,0 0.232,-7.661 8.357,-9.982 0,0 0.697,-3.018 2.089,-4.179 0,0 -0.232,-10.677 7.428,-16.946 0,0 -1.856,-10.214 4.179,-17.179 0,0 -4.179,-11.141 2.089,-22.517 0,0 -1.626,-5.572 -0.232,-11.839 1.393,-6.268 1.393,-11.608 0.232,-14.162 -1.16,-2.552 -0.695,-10.213 -0.463,-16.249 0,0 -6.27,-7.428 -2.555,-18.339 0,0 -3.25,-0.697 -4.643,-9.287 -1.392,-8.589 -5.107,-18.57 -16.017,-33.195 -10.91,-14.625 -18.339,-23.913 -27.625,-31.804 -9.286,-7.892 -18.571,-12.536 -25.071,-11.143 -6.5,1.393 -9.055,3.715 -9.752,5.34 -0.696,1.624 -2.786,7.663 -5.571,9.286 0,0 2.554,9.749 -0.927,13.462 0,0 6.267,10.679 -2.09,20.196 0,0 5.804,7.894 1.162,13.233 0,0 6.499,6.036 -0.466,13.466 0,0 5.106,7.195 -0.696,13.463 0,0 3.25,4.41 0.231,11.143 -3.017,6.733 -1.855,12.072 -0.462,16.483 1.393,4.41 2.088,7.427 0.462,9.285 -1.624,1.858 -2.785,4.41 -2.785,4.41 0,0 9.053,7.429 2.785,21.358 0,0 4.413,2.786 -0.928,13.696 0,0 6.268,6.732 0,15.089 0,0 5.664,5.159 0.232,18.108 0,0 5.34,3.251 4.412,8.59 0,0 5.185,0.239 4.875,5.802 -0.116,2.09 3.85,6.141 7.008,9.015 2.564,2.332 9.472,8.396 13.884,8.628 z"
       style="fill:none;stroke:#231f20;stroke-width:0.5;stroke-linecap:butt;stroke-linejoin:miter;stroke-miterlimit:4;stroke-dasharray:none;stroke-opacity:1"
       id="path500" />
    <path
       d="m 488.117,865.831 c -11.144,0 -26.813,-5.92 -41.786,-24.027 -14.974,-18.107 -25.42,-52.232 -25.42,-83.92 0,-31.687 6.965,-70.34 35.17,-105.509 28.205,-35.169 59.545,-44.919 65.116,-36.562 5.571,8.356 12.884,26.812 14.625,45.964 1.741,19.152 2.437,50.491 2.785,67.902 0.495,24.727 0.601,44.346 0.601,58.5 0,20.591 -1.368,45.071 -14.251,59.695 -12.884,14.626 -26.394,17.957 -36.84,17.957"
       style="fill:#ffffff;fill-opacity:1;fill-rule:nonzero;stroke:none;stroke-width:0.1"
       id="path502" />
    <path
       d="m 488.117,865.831 c -11.144,0 -26.813,-5.92 -41.786,-24.027 -14.974,-18.107 -25.42,-52.232 -25.42,-83.92 0,-31.687 6.965,-70.34 35.17,-105.509 28.205,-35.169 59.545,-44.919 65.116,-36.562 5.571,8.356 12.884,26.812 14.625,45.964 1.741,19.152 2.437,50.491 2.785,67.902 0.495,24.727 0.601,44.346 0.601,58.5 0,20.591 -1.368,45.071 -14.251,59.695 -12.884,14.626 -26.394,17.957 -36.84,17.957 z"
       style="fill:none;stroke:#231f20;stroke-width:0.75;stroke-linecap:round;stroke-linejoin:round;stroke-miterlimit:4;stroke-dasharray:none;stroke-opacity:1"
       id="path504" />
    <path
       d="m 497.75,852.482 c -0.696,-4.41 -8.82,-4.643 -13.928,0.465 0,0 -3.578,-4.155 -12.768,-1.858 -3.715,0.929 -4.644,-1.392 -5.804,-3.482 -1.161,-2.089 -4.179,-6.5 -8.357,-8.357 0,0 -0.233,-7.661 -8.357,-9.982 0,0 -0.697,-3.018 -2.09,-4.179 0,0 0.233,-10.677 -7.428,-16.946 0,0 1.857,-10.214 -4.179,-17.179 0,0 4.179,-11.141 -2.089,-22.517 0,0 1.626,-5.572 0.233,-11.839 -1.393,-6.268 -1.393,-11.608 -0.233,-14.162 1.161,-2.552 0.696,-10.213 0.464,-16.249 0,0 6.269,-7.428 2.555,-18.339 0,0 3.249,-0.697 4.642,-9.287 1.393,-8.589 5.108,-18.57 16.018,-33.195 10.91,-14.625 18.338,-23.913 27.624,-31.804 9.286,-7.892 18.572,-12.536 25.072,-11.143 6.501,1.393 9.055,3.715 9.751,5.34 0.697,1.624 2.786,7.663 5.572,9.286 0,0 -2.555,9.749 0.928,13.462 0,0 -6.269,10.679 2.088,20.196 0,0 -5.803,7.894 -1.161,13.233 0,0 -6.499,6.036 0.465,13.466 0,0 -5.106,7.195 0.696,13.463 0,0 -3.249,4.41 -0.231,11.143 3.017,6.733 1.855,12.072 0.463,16.483 -1.393,4.41 -2.088,7.427 -0.463,9.285 1.624,1.858 2.786,4.41 2.786,4.41 0,0 -9.054,7.429 -2.786,21.358 0,0 -4.412,2.786 0.928,13.696 0,0 -6.268,6.732 0,15.089 0,0 -5.664,5.159 -0.231,18.108 0,0 -5.341,3.251 -4.413,8.59 0,0 -5.183,0.239 -4.875,5.802 0.117,2.09 -3.85,6.141 -7.008,9.015 -2.563,2.332 -9.472,8.396 -13.884,8.628 z"
       style="fill:none;stroke:#231f20;stroke-width:0.5;stroke-linecap:butt;stroke-linejoin:miter;stroke-miterlimit:4;stroke-dasharray:none;stroke-opacity:1"
       id="path506" />
    <path
       d="m 485.446,800.25 c -3.263,1.905 -6.964,-5.338 -6.268,-12.303 0.697,-6.964 -2.785,-22.518 -3.482,-34.124 -0.696,-11.609 -1.857,-20.895 2.322,-33.663 4.179,-12.767 4.876,-23.91 8.59,-32.036 3.713,-8.123 9.054,-13.232 8.357,-3.482 -0.909,12.718 -6.732,24.609 -9.053,38.538 -2.323,13.928 -0.928,15.089 -2.09,22.285 -1.161,7.196 -2.553,16.249 -0.696,24.607 1.856,8.357 5.106,28.552 2.32,30.178"
       style="fill:#b2b1b1;fill-opacity:1;fill-rule:nonzero;stroke:none;stroke-width:0.1"
       id="path508" />
    <path
       d="m 485.446,800.25 c -3.263,1.905 -6.964,-5.338 -6.268,-12.303 0.697,-6.964 -2.785,-22.518 -3.482,-34.124 -0.696,-11.609 -1.857,-20.895 2.322,-33.663 4.179,-12.767 4.876,-23.91 8.59,-32.036 3.713,-8.123 9.054,-13.232 8.357,-3.482 -0.909,12.718 -6.732,24.609 -9.053,38.538 -2.323,13.928 -0.928,15.089 -2.09,22.285 -1.161,7.196 -2.553,16.249 -0.696,24.607 1.856,8.357 5.106,28.552 2.32,30.178 z"
       style="fill:none;stroke:#b2b1b1;stroke-width:0.5;stroke-linecap:butt;stroke-linejoin:miter;stroke-miterlimit:4;stroke-dasharray:none;stroke-opacity:1"
       id="path510" />
    <path
       d="m 487.456,698.8 c 0,-0.86 0.561,-1.558 1.254,-1.558 0.695,0 1.256,0.698 1.256,1.558 0,0.862 -0.561,1.56 -1.256,1.56 -0.693,0 -1.254,-0.698 -1.254,-1.56"
       style="fill:#706d6e;fill-opacity:1;fill-rule:nonzero;stroke:none;stroke-width:0.1"
       id="path512" />
    <path
       d="m 487.456,698.8 c 0,-0.86 0.561,-1.558 1.254,-1.558 0.695,0 1.256,0.698 1.256,1.558 0,0.862 -0.561,1.56 -1.256,1.56 -0.693,0 -1.254,-0.698 -1.254,-1.56 z"
       style="fill:none;stroke:#706d6e;stroke-width:0.75;stroke-linecap:round;stroke-linejoin:round;stroke-miterlimit:4;stroke-dasharray:none;stroke-opacity:1"
       id="path514" />
    <path
       d="m 594.554,800.25 c 3.264,1.905 6.965,-5.338 6.268,-12.303 -0.696,-6.964 2.786,-22.518 3.482,-34.124 0.696,-11.609 1.857,-20.895 -2.322,-33.663 -4.178,-12.767 -4.876,-23.91 -8.589,-32.036 -3.714,-8.123 -9.054,-13.232 -8.357,-3.482 0.908,12.718 6.731,24.609 9.053,38.538 2.322,13.928 0.928,15.089 2.089,22.285 1.162,7.196 2.554,16.249 0.696,24.607 -1.856,8.357 -5.105,28.552 -2.32,30.178"
       style="fill:#b2b1b1;fill-opacity:1;fill-rule:nonzero;stroke:none;stroke-width:0.1"
       id="path516" />
    <path
       d="m 594.554,800.25 c 3.264,1.905 6.965,-5.338 6.268,-12.303 -0.696,-6.964 2.786,-22.518 3.482,-34.124 0.696,-11.609 1.857,-20.895 -2.322,-33.663 -4.178,-12.767 -4.876,-23.91 -8.589,-32.036 -3.714,-8.123 -9.054,-13.232 -8.357,-3.482 0.908,12.718 6.731,24.609 9.053,38.538 2.322,13.928 0.928,15.089 2.089,22.285 1.162,7.196 2.554,16.249 0.696,24.607 -1.856,8.357 -5.105,28.552 -2.32,30.178 z"
       style="fill:none;stroke:#b2b1b1;stroke-width:0.5;stroke-linecap:butt;stroke-linejoin:miter;stroke-miterlimit:4;stroke-dasharray:none;stroke-opacity:1"
       id="path518" />
    <path
       d="m 592.545,698.8 c 0,-0.86 -0.561,-1.558 -1.255,-1.558 -0.694,0 -1.255,0.698 -1.255,1.558 0,0.862 0.561,1.56 1.255,1.56 0.694,0 1.255,-0.698 1.255,-1.56"
       style="fill:#706d6e;fill-opacity:1;fill-rule:nonzero;stroke:none;stroke-width:0.1"
       id="path520" />
    <path
       d="m 592.545,698.8 c 0,-0.86 -0.561,-1.558 -1.255,-1.558 -0.694,0 -1.255,0.698 -1.255,1.558 0,0.862 0.561,1.56 1.255,1.56 0.694,0 1.255,-0.698 1.255,-1.56 z"
       style="fill:none;stroke:#706d6e;stroke-width:0.75;stroke-linecap:round;stroke-linejoin:round;stroke-miterlimit:4;stroke-dasharray:none;stroke-opacity:1"
       id="path522" />
    <path
       d="m 586.197,841.572 c 8.589,0 18.107,-1.858 25.768,-11.608 7.661,-9.75 13.695,-21.821 16.249,-43.178 2.555,-21.358 3.482,-34.356 2.089,-57.338 -1.392,-22.983 -6.732,-42.483 -16.017,-59.893 C 605,652.144 591.767,632.41 575.982,632.41 c -15.785,0 -17.875,21.126 -16.017,36.214 1.856,15.09 2.554,31.108 2.787,37.145 0.23,6.034 6.035,25.534 5.802,32.498 -0.233,6.965 -0.233,9.75 0.696,18.107 0.929,8.358 -0.927,26 -1.856,33.429 -0.93,7.429 -3.715,16.715 -3.715,23.447 0,6.733 2.321,28.322 22.518,28.322 z m -16.25,-14.161 c -5.021,-9.564 -2.786,-25.072 0,-39 2.785,-13.929 2.553,-27.624 2.553,-38.536 0,-10.912 -2.553,-20.662 -5.339,-34.356 -2.785,-13.697 -1.393,-21.127 -2.785,-30.181 -1.394,-9.053 -3.483,-24.375 0.464,-39.231 3.947,-14.856 19.499,-9.75 26.929,-3.947 7.429,5.804 19.731,26.698 23.213,33.894 3.482,7.196 8.126,24.144 10.215,35.983 2.09,11.839 3.25,19.731 3.25,32.963 0,13.232 -2.323,37.375 -5.339,50.839 -3.017,13.464 -8.126,24.84 -13.929,32.268 -5.803,7.429 -18.107,10.215 -23.215,10.215 -4.39,0 -11.142,-1.625 -16.017,-10.911"
       style="fill:#d3d2d2;fill-opacity:1;fill-rule:nonzero;stroke:none;stroke-width:0.1"
       id="path524" />
    <path
       d="m 516.322,813.25 c 0,-6.732 -2.786,-16.018 -3.715,-23.447 -0.929,-7.429 -2.786,-25.071 -1.857,-33.429 0.929,-8.357 0.929,-11.142 0.697,-18.107 -0.233,-6.964 5.571,-26.464 5.803,-32.498 0.232,-6.037 0.93,-22.055 2.785,-37.145 1.858,-15.088 -0.231,-36.214 -16.016,-36.214 -15.786,0 -29.019,19.734 -38.304,37.145 -9.285,17.41 -14.625,36.91 -16.018,59.893 -1.393,22.982 -0.465,35.98 2.09,57.338 2.554,21.357 8.588,33.428 16.249,43.178 7.66,9.75 17.179,11.608 25.767,11.608 20.197,0 22.519,-21.589 22.519,-28.322 z m -22.286,25.072 c -5.108,0 -17.412,-2.786 -23.215,-10.215 -5.802,-7.428 -10.911,-18.804 -13.928,-32.268 -3.017,-13.464 -5.339,-37.607 -5.339,-50.839 0,-13.232 1.16,-21.124 3.249,-32.963 2.09,-11.839 6.734,-28.787 10.216,-35.983 3.481,-7.196 15.783,-28.09 23.213,-33.894 7.43,-5.803 22.982,-10.909 26.928,3.947 3.947,14.856 1.858,30.178 0.466,39.231 -1.394,9.054 0,16.484 -2.787,30.181 -2.785,13.694 -5.339,23.444 -5.339,34.356 0,10.912 -0.232,24.607 2.554,38.536 2.785,13.928 5.021,29.436 0,39 -4.875,9.286 -11.628,10.911 -16.018,10.911"
       style="fill:#d3d2d2;fill-opacity:1;fill-rule:nonzero;stroke:none;stroke-width:0.1"
       id="path526" />
    <path
       d="m 504.946,828.803 c -3.407,3.571 -13.695,5.341 -21.124,3.019 -7.429,-2.322 -12.999,-10.215 -18.107,-21.822 -5.108,-11.607 -9.75,-22.75 -10.679,-50.143 -0.929,-27.393 0.929,-41.321 9.053,-67.089 8.125,-25.768 23.444,-53.44 36.215,-52.463 12.771,0.975 14.858,17.873 12.535,33.659 -2.321,15.787 -1.856,22.75 -3.249,30.874 -1.393,8.126 -5.108,33.431 -6.501,44.806 -1.392,11.374 -1.857,10.213 -0.232,25.303 1.625,15.09 5.106,26.696 6.268,32.964 1.162,6.267 0.696,15.785 -4.179,20.892 z"
       style="fill:none;stroke:#231f20;stroke-width:0.5;stroke-linecap:round;stroke-linejoin:round;stroke-miterlimit:4;stroke-dasharray:2.8, 1.8;stroke-dashoffset:0;stroke-opacity:1"
       id="path528" />
    <path
       d="m 570.876,807.911 c 1.162,-6.268 4.642,-17.874 6.268,-32.964 1.625,-15.09 1.16,-13.929 -0.233,-25.303 -1.393,-11.375 -5.108,-36.68 -6.5,-44.806 -1.393,-8.124 -0.928,-15.087 -3.25,-30.874 -2.322,-15.786 -0.236,-32.684 12.536,-33.659 12.77,-0.977 28.09,26.695 36.214,52.463 8.125,25.768 9.983,39.696 9.053,67.089 -0.928,27.393 -5.571,38.536 -10.678,50.143 -5.108,11.607 -10.678,19.5 -18.108,21.822 -7.429,2.322 -17.717,0.552 -21.124,-3.019 -4.875,-5.107 -5.34,-14.625 -4.178,-20.892 z"
       style="fill:none;stroke:#231f20;stroke-width:0.5;stroke-linecap:round;stroke-linejoin:round;stroke-miterlimit:4;stroke-dasharray:2.8, 1.8;stroke-dashoffset:0;stroke-opacity:1"
       id="path530" />
  </g>
</svg>
