<?xml version="1.0" encoding="UTF-8" standalone="no"?>
<!-- Created with Inkscape (http://www.inkscape.org/) -->

<svg
   version="1.1"
   id="svg42758"
   width="1440"
   height="1344"
   viewBox="0 0 1440 1344"
   xmlns="http://www.w3.org/2000/svg"
   xmlns:svg="http://www.w3.org/2000/svg">
  <defs
     id="defs42762" />
  <g
     id="g42766">
    <path
       d="m 540.002,379.933 c -3.017,0 -9.516,0.408 -17.876,0 -9.321,-0.457 -24.607,-2.322 -42.25,2.32 -17.643,4.645 -11.143,9.75 -11.143,9.75 -2.785,2.325 -6.964,1.395 -12.07,0.467 -5.107,-0.931 -8.358,1.393 -8.358,1.393 0,0 -6.036,-1.86 -18.106,-5.573 -12.072,-3.714 -27.394,-9.287 -35.751,-9.75 -8.358,-0.464 -20.893,-7.429 -27.394,-9.287 -6.5,-1.857 -10.678,-0.927 -20.428,-2.32 -9.75,-1.393 -19.036,-6.965 -36.679,-6.5 -54.335,1.43 -83.489,34.434 -95.155,46.914 -13.619,14.571 -25.715,31.705 -32.679,44.705 -6.964,12.998 -14.611,25.381 -16.931,33.738 -2.32,8.358 -0.929,16.25 -1.858,18.57 -0.929,2.321 -6.499,2.323 -11.143,10.68 -4.643,8.358 -14.392,37.608 -15.785,76.609 -1.393,39.002 15.321,140.678 80.786,214.035 65.464,73.357 158.23,87.344 226.016,83.165 67.786,-4.178 91.464,-38.129 93.787,-42.307 2.32,-4.179 3.017,-9.744 3.017,-12.537 0,2.793 0.696,8.358 3.016,12.537 2.324,4.178 26.001,38.129 93.787,42.307 67.786,4.179 160.499,-12.912 225.963,-86.269 65.465,-73.357 82.179,-175.034 80.786,-214.035 -1.392,-39.002 -11.141,-68.252 -15.785,-76.609 -4.643,-8.357 -10.214,-8.357 -11.143,-10.679 -0.929,-2.32 0.462,-10.213 -1.858,-18.57 -2.32,-8.357 -9.913,-17.635 -16.878,-30.635 -6.964,-13 -19.06,-30.133 -32.679,-44.705 -11.665,-12.48 -40.82,-45.484 -95.155,-46.914 -17.643,-0.463 -26.93,5.107 -36.68,6.502 -9.75,1.393 -13.926,0.461 -20.427,2.32 -6.5,1.858 -19.036,8.823 -27.394,9.285 -8.356,0.465 -23.679,6.036 -35.75,9.75 -12.07,3.715 -18.107,5.573 -18.107,5.573 0,0 -3.251,-2.323 -8.358,-1.393 -5.106,0.928 -9.284,1.858 -12.07,-0.465 0,0 6.501,-5.105 -11.143,-9.75 -17.643,-4.642 -32.929,-2.779 -42.25,-2.322 -8.359,0.41 -14.859,0 -17.875,0"
       style="fill:#ffffff;fill-opacity:1;fill-rule:nonzero;stroke:none;stroke-width:0.1"
       id="path43426" />
    <path
       d="m 540.002,379.933 c -3.017,0 -9.516,0.408 -17.876,0 -9.321,-0.457 -24.607,-2.322 -42.25,2.32 -17.643,4.645 -11.143,9.75 -11.143,9.75 -2.785,2.325 -6.964,1.395 -12.07,0.467 -5.107,-0.931 -8.358,1.393 -8.358,1.393 0,0 -6.036,-1.86 -18.106,-5.573 -12.072,-3.714 -27.394,-9.287 -35.751,-9.75 -8.358,-0.464 -20.893,-7.429 -27.394,-9.287 -6.5,-1.857 -10.678,-0.927 -20.428,-2.32 -9.75,-1.393 -19.036,-6.965 -36.679,-6.5 -54.335,1.43 -83.489,34.434 -95.155,46.914 -13.619,14.571 -25.715,31.705 -32.679,44.705 -6.964,12.998 -14.611,25.381 -16.931,33.738 -2.32,8.358 -0.929,16.25 -1.858,18.57 -0.929,2.321 -6.499,2.323 -11.143,10.68 -4.643,8.358 -14.392,37.608 -15.785,76.609 -1.393,39.002 15.321,140.678 80.786,214.035 65.464,73.357 158.23,87.344 226.016,83.165 67.786,-4.178 91.464,-38.129 93.787,-42.307 2.32,-4.179 3.017,-9.744 3.017,-12.537 0,2.793 0.696,8.358 3.016,12.537 2.324,4.178 26.001,38.129 93.787,42.307 67.786,4.179 160.499,-12.912 225.963,-86.269 65.465,-73.357 82.179,-175.034 80.786,-214.035 -1.392,-39.002 -11.141,-68.252 -15.785,-76.609 -4.643,-8.357 -10.214,-8.357 -11.143,-10.679 -0.929,-2.32 0.462,-10.213 -1.858,-18.57 -2.32,-8.357 -9.913,-17.635 -16.878,-30.635 -6.964,-13 -19.06,-30.133 -32.679,-44.705 -11.665,-12.48 -40.82,-45.484 -95.155,-46.914 -17.643,-0.463 -26.93,5.107 -36.68,6.502 -9.75,1.393 -13.926,0.461 -20.427,2.32 -6.5,1.858 -19.036,8.823 -27.394,9.285 -8.356,0.465 -23.679,6.036 -35.75,9.75 -12.07,3.715 -18.107,5.573 -18.107,5.573 0,0 -3.251,-2.323 -8.358,-1.393 -5.106,0.928 -9.284,1.858 -12.07,-0.465 0,0 6.501,-5.105 -11.143,-9.75 -17.643,-4.642 -32.929,-2.779 -42.25,-2.322 -8.359,0.41 -14.859,0 -17.875,0 z"
       style="fill:none;stroke:#231f20;stroke-width:0.75;stroke-linecap:round;stroke-linejoin:round;stroke-miterlimit:4;stroke-dasharray:none;stroke-opacity:1"
       id="path43428" />
    <path
       d="m 655.841,739.755 c 5.572,-1.857 14.857,-5.571 10.214,-11.607 0,0 12.072,8.357 28.786,8.357"
       style="fill:#b2b1b1;fill-opacity:1;fill-rule:nonzero;stroke:none;stroke-width:0.1"
       id="path43430" />
    <path
       d="m 653.858,617.398 c -2.272,-2.83 -6.766,-6.8 -16.123,-15.535 -7.924,-7.397 -17.18,-13.001 -26.465,-15.786 -9.285,-2.787 -10.679,-1.393 -11.143,0.465 -0.463,1.857 5.572,7.426 14.857,17.176 9.284,9.75 3.714,33.895 1.857,39.466 -1.856,5.571 -8.357,21.358 -8.357,21.358 0,0 -3.25,7.892 -5.571,14.392 -2.321,6.499 -7.893,19.5 -14.858,29.25 10.214,4.179 28.786,14.858 40.393,23.215 11.607,8.356 24.142,8.356 27.393,8.356 5.572,-1.857 14.857,-5.571 10.214,-11.607 -3.715,-4.179 -10.214,-20.429 -11.142,-35.286 -0.929,-14.857 -3.25,-41.784 -4.179,-49.214 -0.929,-7.429 -0.388,-16.368 3.791,-22.404 l -0.667,-3.846"
       style="fill:#706d6e;fill-opacity:1;fill-rule:nonzero;stroke:none;stroke-width:0.1"
       id="path43432" />
    <path
       d="m 653.858,617.398 c -2.272,-2.83 -6.766,-6.8 -16.123,-15.535 -7.924,-7.397 -17.18,-13.001 -26.465,-15.786 -9.285,-2.787 -10.679,-1.393 -11.143,0.465 -0.463,1.857 5.572,7.426 14.857,17.176 9.284,9.75 3.714,33.895 1.857,39.466 -1.856,5.571 -8.357,21.358 -8.357,21.358 0,0 -3.25,7.892 -5.571,14.392 -2.321,6.499 -7.893,19.5 -14.858,29.25 10.214,4.179 28.786,14.858 40.393,23.215 11.607,8.356 24.142,8.356 27.393,8.356 5.572,-1.857 14.857,-5.571 10.214,-11.607 -3.715,-4.179 -10.214,-20.429 -11.142,-35.286 -0.929,-14.857 -3.25,-41.784 -4.179,-49.214 -0.929,-7.429 -0.388,-16.368 3.791,-22.404 z"
       style="fill:none;stroke:#231f20;stroke-width:0.5;stroke-linecap:round;stroke-linejoin:round;stroke-miterlimit:4;stroke-dasharray:none;stroke-opacity:1"
       id="path43434" />
    <path
       d="m 579.234,728.148 c 12.487,5.652 18.643,16.62 20.893,21.821 4.967,11.489 6.097,15.463 9.285,25.536 2.041,6.446 6.502,9.75 21.358,6.965 14.856,-2.786 32.301,-8.556 42.123,-11.326"
       style="fill:none;stroke:#231f20;stroke-width:0.5;stroke-linecap:butt;stroke-linejoin:miter;stroke-miterlimit:4;stroke-dasharray:none;stroke-opacity:1"
       id="path43436" />
    <path
       d="M 540.002,834.005 V 735.113"
       style="fill:none;stroke:#231f20;stroke-width:0.75;stroke-linecap:round;stroke-linejoin:round;stroke-miterlimit:4;stroke-dasharray:none;stroke-opacity:1"
       id="path43438" />
    <path
       d="m 817.414,515.504 c -3.019,-4.989 -8.939,-14.739 -10.332,-17.874 -1.392,-3.134 -0.348,-9.052 -10.794,-19.847 -10.447,-10.795 -17.759,-18.805 -32.733,-17.76"
       style="fill:none;stroke:#231f20;stroke-width:0.5;stroke-linecap:butt;stroke-linejoin:miter;stroke-miterlimit:4;stroke-dasharray:none;stroke-opacity:1"
       id="path43440" />
    <path
       d="m 733.376,366.935 c 6.153,2.553 17.644,6.383 22.867,4.99 5.223,-1.392 16.018,-6.617 23.678,-6.965 7.661,-0.347 18.804,1.045 25.42,3.483 6.617,2.437 23.418,10.012 33.429,17.41 9.753,7.209 22.515,16.979 27.851,23.018"
       style="fill:none;stroke:#231f20;stroke-width:0.5;stroke-linecap:butt;stroke-linejoin:miter;stroke-miterlimit:4;stroke-dasharray:none;stroke-opacity:1"
       id="path43442" />
    <path
       d="m 678.345,379.412 c -2.394,1.031 -5.674,-0.174 -6.37,-2.264 -0.696,-2.09 0.696,-5.658 3.83,-6.965 2.448,-1.019 9.991,-3.992 12.188,-3.83 2.35,0.174 5.197,3.141 1.393,6.268 -3.898,3.205 -6.581,4.871 -11.041,6.791"
       style="fill:#ffffff;fill-opacity:1;fill-rule:nonzero;stroke:none;stroke-width:0.1"
       id="path43444" />
    <path
       d="m 678.345,379.412 c -2.394,1.031 -5.674,-0.174 -6.37,-2.264 -0.696,-2.09 0.696,-5.658 3.83,-6.965 2.448,-1.019 9.991,-3.992 12.188,-3.83 2.35,0.174 5.197,3.141 1.393,6.268 -3.898,3.205 -6.581,4.871 -11.041,6.791 z"
       style="fill:none;stroke:#231f20;stroke-width:0.5;stroke-linecap:butt;stroke-linejoin:miter;stroke-miterlimit:4;stroke-dasharray:none;stroke-opacity:1"
       id="path43446" />
    <path
       d="m 540.002,486.488 c 0,-6.268 0,-83.92 0,-83.92"
       style="fill:#231f20;fill-opacity:1;fill-rule:nonzero;stroke:none;stroke-width:0.1"
       id="path43448" />
    <path
       d="m 540.002,486.488 c 0,-6.268 0,-83.92 0,-83.92"
       style="fill:none;stroke:#231f20;stroke-width:0.75;stroke-linecap:round;stroke-linejoin:round;stroke-miterlimit:4;stroke-dasharray:none;stroke-opacity:1"
       id="path43450" />
    <path
       d="m 626.708,386.55 c 0,-1.73 -1.56,-3.134 -3.483,-3.134 -1.924,0 -3.482,1.404 -3.482,3.134 0,1.731 1.558,3.133 3.482,3.133 1.923,0 3.483,-1.402 3.483,-3.133"
       style="fill:#ffffff;fill-opacity:1;fill-rule:nonzero;stroke:none;stroke-width:0.1"
       id="path43452" />
    <path
       d="m 626.708,386.55 c 0,-1.73 -1.56,-3.134 -3.483,-3.134 -1.924,0 -3.482,1.404 -3.482,3.134 0,1.731 1.558,3.133 3.482,3.133 1.923,0 3.483,-1.402 3.483,-3.133 z"
       style="fill:none;stroke:#231f20;stroke-width:0.5;stroke-linecap:butt;stroke-linejoin:miter;stroke-miterlimit:4;stroke-dasharray:none;stroke-opacity:1"
       id="path43454" />
    <path
       d="m 661.876,509.12 c -5.571,8.01 -11.49,26.465 -11.838,51.885 -0.349,25.419 1.741,47.358 5.571,65.813 3.83,18.455 12.489,41.102 13.58,44.92 1.393,4.875 9.402,7.312 10.099,-1.394 0.696,-8.705 -1.122,-29.645 -4.527,-48.054 -4.334,-23.433 -7.852,-39.967 -9.053,-50.491 -1.757,-15.383 -5.224,-53.972 -3.832,-62.679"
       style="fill:none;stroke:#231f20;stroke-width:0.5;stroke-linecap:butt;stroke-linejoin:miter;stroke-miterlimit:4;stroke-dasharray:none;stroke-opacity:1"
       id="path43456" />
    <path
       d="m 705.055,488.578 c -1.044,-1.395 12.188,-18.108 18.108,-21.59 5.919,-3.483 17.758,-7.313 22.286,-8.01 4.526,-0.695 17.759,-1.045 18.106,1.045 0.349,2.09 -3.481,0.697 -11.839,4.527 -8.357,3.83 -19.5,9.053 -24.026,11.49 -4.527,2.438 -22.635,12.538 -22.635,12.538 z"
       style="fill:none;stroke:#231f20;stroke-width:0.5;stroke-linecap:butt;stroke-linejoin:miter;stroke-miterlimit:4;stroke-dasharray:none;stroke-opacity:1"
       id="path43458" />
    <path
       d="m 424.162,739.755 c -5.572,-1.857 -14.857,-5.571 -10.214,-11.607 0,0 -12.072,8.357 -28.786,8.357"
       style="fill:#b2b1b1;fill-opacity:1;fill-rule:nonzero;stroke:none;stroke-width:0.1"
       id="path43460" />
    <path
       d="m 426.145,617.398 c 2.271,-2.83 6.766,-6.8 16.124,-15.535 7.923,-7.397 17.18,-13.001 26.464,-15.786 9.285,-2.787 10.68,-1.393 11.143,0.465 0.464,1.857 -5.572,7.426 -14.856,17.176 -9.285,9.75 -3.715,33.895 -1.858,39.466 1.856,5.571 8.357,21.358 8.357,21.358 0,0 3.251,7.892 5.571,14.392 2.321,6.499 7.894,19.5 14.858,29.25 -10.214,4.179 -28.786,14.858 -40.393,23.215 -11.606,8.356 -24.142,8.356 -27.393,8.356 -5.572,-1.857 -14.857,-5.571 -10.214,-11.607 3.715,-4.179 10.214,-20.429 11.142,-35.286 0.93,-14.857 3.25,-41.784 4.179,-49.214 0.93,-7.429 0.388,-16.368 -3.791,-22.404 l 0.667,-3.846"
       style="fill:#706d6e;fill-opacity:1;fill-rule:nonzero;stroke:none;stroke-width:0.1"
       id="path43462" />
    <path
       d="m 426.145,617.398 c 2.271,-2.83 6.766,-6.8 16.124,-15.535 7.923,-7.397 17.18,-13.001 26.464,-15.786 9.285,-2.787 10.68,-1.393 11.143,0.465 0.464,1.857 -5.572,7.426 -14.856,17.176 -9.285,9.75 -3.715,33.895 -1.858,39.466 1.856,5.571 8.357,21.358 8.357,21.358 0,0 3.251,7.892 5.571,14.392 2.321,6.499 7.894,19.5 14.858,29.25 -10.214,4.179 -28.786,14.858 -40.393,23.215 -11.606,8.356 -24.142,8.356 -27.393,8.356 -5.572,-1.857 -14.857,-5.571 -10.214,-11.607 3.715,-4.179 10.214,-20.429 11.142,-35.286 0.93,-14.857 3.25,-41.784 4.179,-49.214 0.93,-7.429 0.388,-16.368 -3.791,-22.404 z"
       style="fill:none;stroke:#231f20;stroke-width:0.5;stroke-linecap:round;stroke-linejoin:round;stroke-miterlimit:4;stroke-dasharray:none;stroke-opacity:1"
       id="path43464" />
    <path
       d="m 540.002,697.505 c -12.305,0 -37.84,6.5 -48.054,10.679 -10.214,4.179 -28.786,14.858 -40.393,23.215 -11.606,8.356 -24.142,8.356 -27.393,8.356 -3.251,0 -11.607,-1.392 -19.036,-2.321 -7.427,-0.93 -19.964,-0.929 -19.964,-0.929 0,0 -40.857,-1.857 -73.822,-33.428 -34.646,-33.182 -47.821,-58.5 -57.571,-111.428 -8.547,-46.393 8.821,-76.146 8.821,-76.146 l -6.5,11.143 c -13.927,32.037 -7.428,80.789 1.394,110.038 8.822,29.25 29.25,60.356 45.035,75.679 15.785,15.321 40.857,32.035 58.036,40.857 17.18,8.822 42.25,17.643 47.821,18.107 5.572,0.465 22.286,0 32.037,0.465 9.75,0.464 19.5,-2.787 25.071,-13 5.571,-10.215 14.392,-23.679 35.285,-30.644 20.893,-6.964 33.43,-7.893 39.233,-7.893 5.802,0 18.339,0.929 39.232,7.893 20.893,6.965 29.714,20.429 35.286,30.644 5.571,10.213 15.321,13.464 25.071,13 9.75,-0.465 26.464,0 32.035,-0.465 5.573,-0.464 30.642,-9.285 47.822,-18.107 17.179,-8.822 42.251,-25.536 58.036,-40.857 15.785,-15.323 36.213,-46.429 45.036,-75.679 8.822,-29.249 15.321,-78.001 1.393,-110.037 l -6.499,-11.143 c 0,0 17.367,29.752 8.82,76.145 -9.75,52.928 -22.925,78.246 -57.57,111.428 -32.965,31.571 -73.823,33.428 -73.823,33.428 0,0 -12.537,-10e-4 -19.965,0.929 -7.427,0.929 -15.784,2.321 -19.035,2.321 -3.251,0 -15.786,0 -27.393,-8.356 -11.607,-8.357 -30.179,-19.036 -40.393,-23.215 -10.214,-4.179 -35.749,-10.679 -48.053,-10.679 z"
       style="fill:none;stroke:#231f20;stroke-width:0.5;stroke-linecap:butt;stroke-linejoin:miter;stroke-miterlimit:4;stroke-dasharray:none;stroke-opacity:1"
       id="path43466" />
    <path
       d="m 500.769,728.148 c -12.487,5.652 -18.643,16.62 -20.893,21.821 -4.967,11.489 -6.096,15.463 -9.285,25.536 -2.04,6.446 -6.502,9.75 -21.358,6.965 -14.857,-2.786 -32.301,-8.556 -42.123,-11.326"
       style="fill:none;stroke:#231f20;stroke-width:0.5;stroke-linecap:butt;stroke-linejoin:miter;stroke-miterlimit:4;stroke-dasharray:none;stroke-opacity:1"
       id="path43468" />
    <path
       d="m 540.002,720.255 c 0,4.425 -7.196,5.572 -7.196,5.572 2.785,0 7.196,5.339 7.196,9.286 0,-3.947 4.41,-9.286 7.195,-9.286 0,0 -7.195,-1.147 -7.195,-5.572 z"
       style="fill:none;stroke:#231f20;stroke-width:0.75;stroke-linecap:round;stroke-linejoin:round;stroke-miterlimit:4;stroke-dasharray:none;stroke-opacity:1"
       id="path43470" />
    <path
       d="m 262.59,515.503 c 3.018,-4.988 8.938,-14.738 10.33,-17.873 1.394,-3.134 0.349,-9.052 10.795,-19.847 10.447,-10.795 17.759,-18.805 32.733,-17.76"
       style="fill:none;stroke:#231f20;stroke-width:0.5;stroke-linecap:butt;stroke-linejoin:miter;stroke-miterlimit:4;stroke-dasharray:none;stroke-opacity:1"
       id="path43472" />
    <path
       d="m 346.626,366.933 c -6.152,2.555 -17.643,6.385 -22.866,4.992 -5.223,-1.392 -16.017,-6.617 -23.678,-6.965 -7.662,-0.347 -18.804,1.045 -25.42,3.483 -6.617,2.437 -23.417,10.012 -33.429,17.41 -9.753,7.209 -22.514,16.979 -27.851,23.018"
       style="fill:none;stroke:#231f20;stroke-width:0.5;stroke-linecap:butt;stroke-linejoin:miter;stroke-miterlimit:4;stroke-dasharray:none;stroke-opacity:1"
       id="path43474" />
    <path
       d="m 401.659,379.412 c 2.393,1.031 5.673,-0.174 6.369,-2.264 0.696,-2.09 -0.696,-5.658 -3.83,-6.965 -2.448,-1.019 -9.991,-3.992 -12.188,-3.83 -2.35,0.174 -5.197,3.141 -1.392,6.268 3.898,3.205 6.58,4.871 11.041,6.791"
       style="fill:#ffffff;fill-opacity:1;fill-rule:nonzero;stroke:none;stroke-width:0.1"
       id="path43476" />
    <path
       d="m 401.659,379.412 c 2.393,1.031 5.673,-0.174 6.369,-2.264 0.696,-2.09 -0.696,-5.658 -3.83,-6.965 -2.448,-1.019 -9.991,-3.992 -12.188,-3.83 -2.35,0.174 -5.197,3.141 -1.392,6.268 3.898,3.205 6.58,4.871 11.041,6.791 z"
       style="fill:none;stroke:#231f20;stroke-width:0.5;stroke-linecap:butt;stroke-linejoin:miter;stroke-miterlimit:4;stroke-dasharray:none;stroke-opacity:1"
       id="path43478" />
    <path
       d="m 468.733,392.003 c 2.322,2.295 16.251,3.95 22.518,4.645 6.268,0.697 19.153,2.437 24.724,-0.348 5.571,-2.785 11.491,-3.83 16.366,-3.482 4.875,0.348 6.616,6.267 7.661,9.75 1.044,-3.483 2.786,-9.402 7.661,-9.75 4.875,-0.348 10.794,0.697 16.366,3.482 5.571,2.785 18.455,1.045 24.723,0.348 6.268,-0.695 20.196,-2.35 22.518,-4.643"
       style="fill:none;stroke:#231f20;stroke-width:0.5;stroke-linecap:butt;stroke-linejoin:miter;stroke-miterlimit:4;stroke-dasharray:none;stroke-opacity:1"
       id="path43480" />
    <path
       d="m 540.002,523.747 c -3.134,0 -7.661,-1.394 -7.313,-10.795 0.349,-9.402 7.313,-20.197 7.313,-26.464 0,6.267 6.964,17.062 7.312,26.464 0.349,9.401 -4.179,10.795 -7.312,10.795"
       style="fill:#706d6e;fill-opacity:1;fill-rule:nonzero;stroke:none;stroke-width:0.1"
       id="path43482" />
    <path
       d="m 540.002,523.747 c -3.134,0 -7.661,-1.394 -7.313,-10.795 0.349,-9.402 7.313,-20.197 7.313,-26.464 0,6.267 6.964,17.062 7.312,26.464 0.349,9.401 -4.179,10.795 -7.312,10.795 z"
       style="fill:none;stroke:#231f20;stroke-width:0.75;stroke-linecap:round;stroke-linejoin:round;stroke-miterlimit:4;stroke-dasharray:none;stroke-opacity:1"
       id="path43484" />
    <path
       d="m 453.296,386.55 c 0,-1.73 1.559,-3.134 3.482,-3.134 1.924,0 3.482,1.404 3.482,3.134 0,1.731 -1.558,3.133 -3.482,3.133 -1.923,0 -3.482,-1.402 -3.482,-3.133"
       style="fill:#ffffff;fill-opacity:1;fill-rule:nonzero;stroke:none;stroke-width:0.1"
       id="path43486" />
    <path
       d="m 453.296,386.55 c 0,-1.73 1.559,-3.134 3.482,-3.134 1.924,0 3.482,1.404 3.482,3.134 0,1.731 -1.558,3.133 -3.482,3.133 -1.923,0 -3.482,-1.402 -3.482,-3.133 z"
       style="fill:none;stroke:#231f20;stroke-width:0.5;stroke-linecap:butt;stroke-linejoin:miter;stroke-miterlimit:4;stroke-dasharray:none;stroke-opacity:1"
       id="path43488" />
    <path
       d="m 540.002,525.487 c -5.572,0 -11.492,0 -17.411,-0.348 -5.92,-0.349 -14.626,0 -19.848,1.393 -5.224,1.392 -12.884,3.83 -21.59,4.875 -8.705,1.045 -22.285,5.223 -25.768,7.661 -3.482,2.437 -5.222,9.75 -5.222,9.75 4.177,-5.571 10.446,-7.661 20.196,-11.84 9.75,-4.179 15.321,-2.785 25.071,-0.348 9.75,2.438 20.196,3.134 24.375,3.134 4.179,0 14.974,-2.437 20.197,-2.437 5.223,0 16.017,2.437 20.196,2.437 4.178,0 14.625,-0.696 24.375,-3.134 9.75,-2.437 15.322,-3.831 25.072,0.348 9.75,4.179 16.018,6.269 20.196,11.84 0,0 -1.741,-7.313 -5.223,-9.75 -3.483,-2.438 -17.063,-6.616 -25.768,-7.661 -8.705,-1.045 -16.366,-3.483 -21.59,-4.875 -5.222,-1.393 -13.928,-1.742 -19.847,-1.393 -5.92,0.348 -11.84,0.348 -17.411,0.348 z"
       style="fill:none;stroke:#231f20;stroke-width:0.5;stroke-linecap:butt;stroke-linejoin:miter;stroke-miterlimit:4;stroke-dasharray:none;stroke-opacity:1"
       id="path43490" />
    <path
       d="m 418.126,509.12 c 5.572,8.01 11.492,26.465 11.839,51.885 0.349,25.419 -1.741,47.358 -5.571,65.813 -3.83,18.455 -12.489,41.102 -13.58,44.92 -1.393,4.875 -9.402,7.312 -10.099,-1.394 -0.696,-8.705 1.122,-29.645 4.528,-48.054 4.333,-23.433 7.852,-39.967 9.053,-50.491 1.756,-15.383 5.223,-53.972 3.83,-62.679"
       style="fill:none;stroke:#231f20;stroke-width:0.5;stroke-linecap:butt;stroke-linejoin:miter;stroke-miterlimit:4;stroke-dasharray:none;stroke-opacity:1"
       id="path43492" />
    <path
       d="m 374.948,488.578 c 1.045,-1.395 -12.188,-18.108 -18.108,-21.59 -5.92,-3.483 -17.758,-7.313 -22.285,-8.01 -4.527,-0.695 -17.76,-1.045 -18.107,1.045 -0.349,2.09 3.482,0.697 11.839,4.527 8.357,3.83 19.5,9.053 24.027,11.49 4.526,2.438 22.634,12.538 22.634,12.538 z"
       style="fill:none;stroke:#231f20;stroke-width:0.5;stroke-linecap:butt;stroke-linejoin:miter;stroke-miterlimit:4;stroke-dasharray:none;stroke-opacity:1"
       id="path43494" />
    <path
       d="m 540.002,541.538 c -3.831,0 -12.019,0.348 -14.456,1.741 -2.437,1.392 -4.277,2.786 -2.188,8.009 3.019,5.386 6.284,13.025 7.59,20.86 1.091,6.543 2.193,14.593 2.943,20.548 2.09,2.437 5.066,2.089 6.111,2.089 1.044,0 4.02,0.348 6.11,-2.089 0.751,-5.955 1.852,-14.005 2.943,-20.548 1.306,-7.835 4.571,-15.474 7.59,-20.86 2.09,-5.223 0.25,-6.617 -2.187,-8.009 -2.438,-1.393 -10.626,-1.741 -14.456,-1.741"
       style="fill:#706d6e;fill-opacity:1;fill-rule:nonzero;stroke:none;stroke-width:0.1"
       id="path43496" />
    <path
       d="m 540.002,541.538 c -3.831,0 -12.019,0.348 -14.456,1.741 -2.437,1.392 -4.277,2.786 -2.188,8.009 3.019,5.386 6.284,13.025 7.59,20.86 1.091,6.543 2.193,14.593 2.943,20.548 2.09,2.437 5.066,2.089 6.111,2.089 1.044,0 4.02,0.348 6.11,-2.089 0.751,-5.955 1.852,-14.005 2.943,-20.548 1.306,-7.835 4.571,-15.474 7.59,-20.86 2.09,-5.223 0.25,-6.617 -2.187,-8.009 -2.438,-1.393 -10.626,-1.741 -14.456,-1.741 z"
       style="fill:none;stroke:#231f20;stroke-width:0.5;stroke-linecap:round;stroke-linejoin:round;stroke-miterlimit:4;stroke-dasharray:none;stroke-opacity:1"
       id="path43498" />
    <path
       d="m 533.891,592.696 c 0.446,3.553 0.769,6.361 0.888,7.657 0.347,3.831 0.347,8.01 -1.741,8.706 -1.364,0.454 -4.179,-4.179 -6.269,-7.661 -2.089,-3.482 -11.015,-17.797 -16.018,-21.589 -5.397,-4.092 -10.911,-9.925 -12.536,-14.981 -1.815,-5.654 -1.16,-14.211 0.349,-17.055 1.346,-2.537 6.268,-3.483 8.705,-4.179 2.438,-0.696 9.75,-1.741 13.232,3.134 0.872,1.219 1.85,2.765 2.857,4.56"
       style="fill:none;stroke:#231f20;stroke-width:0.5;stroke-linecap:butt;stroke-linejoin:miter;stroke-miterlimit:4;stroke-dasharray:none;stroke-opacity:1"
       id="path43500" />
    <path
       d="m 546.112,592.696 c -0.446,3.553 -0.769,6.361 -0.887,7.657 -0.349,3.831 -0.349,8.01 1.741,8.706 1.363,0.454 4.178,-4.179 6.268,-7.661 2.089,-3.482 11.015,-17.797 16.018,-21.589 5.397,-4.092 10.912,-9.925 12.536,-14.981 1.815,-5.654 1.161,-14.211 -0.349,-17.055 -1.347,-2.537 -6.268,-3.483 -8.705,-4.179 -2.438,-0.696 -9.75,-1.741 -13.232,3.134 -0.871,1.219 -1.85,2.765 -2.857,4.56"
       style="fill:none;stroke:#231f20;stroke-width:0.5;stroke-linecap:butt;stroke-linejoin:miter;stroke-miterlimit:4;stroke-dasharray:none;stroke-opacity:1"
       id="path43502" />
    <path
       d="m 666.055,728.148 c 0,0 12.072,8.357 28.786,8.357"
       style="fill:none;stroke:#231f20;stroke-width:0.5;stroke-linecap:butt;stroke-linejoin:miter;stroke-miterlimit:4;stroke-dasharray:none;stroke-opacity:1"
       id="path43504" />
    <path
       d="m 413.948,728.148 c 0,0 -12.072,8.357 -28.786,8.357"
       style="fill:none;stroke:#231f20;stroke-width:0.5;stroke-linecap:butt;stroke-linejoin:miter;stroke-miterlimit:4;stroke-dasharray:none;stroke-opacity:1"
       id="path43506" />
    <path
       d="m 620.439,579.46 c -1.459,2.399 0,4.179 4.875,7.313 4.875,3.134 11.491,8.009 13.929,9.054 2.437,1.045 6.616,2.44 5.571,-4.178 -1.044,-6.617 -4.875,-12.885 -7.188,-15.091 0,0 0.92,4.295 -2.562,5.689 -3.482,1.392 -6.616,-0.698 -9.054,-2.09 -2.437,-1.393 -4.352,-2.699 -5.571,-0.697 z"
       style="fill:none;stroke:#231f20;stroke-width:0.5;stroke-linecap:butt;stroke-linejoin:miter;stroke-miterlimit:4;stroke-dasharray:none;stroke-opacity:1"
       id="path43508" />
    <path
       d="m 459.564,579.46 c 1.46,2.399 0,4.179 -4.875,7.313 -4.875,3.134 -11.491,8.009 -13.929,9.054 -2.437,1.045 -6.616,2.44 -5.571,-4.178 1.045,-6.617 4.875,-12.885 7.187,-15.091 0,0 -0.919,4.295 2.563,5.689 3.482,1.392 6.616,-0.698 9.054,-2.09 2.437,-1.393 4.352,-2.699 5.571,-0.697 z"
       style="fill:none;stroke:#231f20;stroke-width:0.5;stroke-linecap:butt;stroke-linejoin:miter;stroke-miterlimit:4;stroke-dasharray:none;stroke-opacity:1"
       id="path43510" />
    <path
       d="m 543.443,697.646 c 3.754,-5.712 13.506,-8.498 23.256,-12.677 9.75,-4.177 43.643,-26.929 50.142,-41.785"
       style="fill:none;stroke:#231f20;stroke-width:0.5;stroke-linecap:round;stroke-linejoin:round;stroke-miterlimit:4;stroke-dasharray:2.8, 1.8;stroke-dashoffset:0;stroke-opacity:1"
       id="path43512" />
    <path
       d="m 545.984,694.858 c 5.204,-3.325 17.292,-4.779 23.035,-7.103 9.178,-3.713 32.656,-15.069 38.847,-21.695"
       style="fill:none;stroke:#231f20;stroke-width:0.5;stroke-linecap:round;stroke-linejoin:round;stroke-miterlimit:4;stroke-dasharray:2.8, 1.8;stroke-dashoffset:0;stroke-opacity:1"
       id="path43514" />
    <path
       d="m 540.002,790.892 68.274,-18.986"
       style="fill:none;stroke:#231f20;stroke-width:0.5;stroke-linecap:round;stroke-linejoin:round;stroke-miterlimit:4;stroke-dasharray:2.8, 1.8;stroke-dashoffset:0;stroke-opacity:1"
       id="path43516" />
    <path
       d="m 559.626,863.676 53.738,-82.257"
       style="fill:none;stroke:#231f20;stroke-width:0.5;stroke-linecap:round;stroke-linejoin:round;stroke-miterlimit:4;stroke-dasharray:2.8, 1.8;stroke-dashoffset:0;stroke-opacity:1"
       id="path43518" />
    <path
       d="M 616.703,886.586 626.781,782.47"
       style="fill:none;stroke:#231f20;stroke-width:0.5;stroke-linecap:round;stroke-linejoin:round;stroke-miterlimit:4;stroke-dasharray:2.8, 1.8;stroke-dashoffset:0;stroke-opacity:1"
       id="path43520" />
    <path
       d="M 668.649,889.363 659.657,775.064"
       style="fill:none;stroke:#231f20;stroke-width:0.5;stroke-linecap:round;stroke-linejoin:round;stroke-miterlimit:4;stroke-dasharray:2.8, 1.8;stroke-dashoffset:0;stroke-opacity:1"
       id="path43522" />
    <path
       d="M 745.533,877.425 710.937,757.315"
       style="fill:none;stroke:#231f20;stroke-width:0.5;stroke-linecap:round;stroke-linejoin:round;stroke-miterlimit:4;stroke-dasharray:2.8, 1.8;stroke-dashoffset:0;stroke-opacity:1"
       id="path43524" />
    <path
       d="M 834.443,828.844 755.306,730.732"
       style="fill:none;stroke:#231f20;stroke-width:0.5;stroke-linecap:round;stroke-linejoin:round;stroke-miterlimit:4;stroke-dasharray:2.8, 1.8;stroke-dashoffset:0;stroke-opacity:1"
       id="path43526" />
    <path
       d="m 766.126,722.392 84.204,93.227"
       style="fill:none;stroke:#231f20;stroke-width:0.5;stroke-linecap:round;stroke-linejoin:round;stroke-miterlimit:4;stroke-dasharray:2.8, 1.8;stroke-dashoffset:0;stroke-opacity:1"
       id="path43528" />
    <path
       d="m 799.922,684.023 103.701,58.852"
       style="fill:none;stroke:#231f20;stroke-width:0.5;stroke-linecap:round;stroke-linejoin:round;stroke-miterlimit:4;stroke-dasharray:2.8, 1.8;stroke-dashoffset:0;stroke-opacity:1"
       id="path43530" />
    <path
       d="m 822.52,636.684 109.709,32.13"
       style="fill:none;stroke:#231f20;stroke-width:0.5;stroke-linecap:round;stroke-linejoin:round;stroke-miterlimit:4;stroke-dasharray:2.8, 1.8;stroke-dashoffset:0;stroke-opacity:1"
       id="path43532" />
    <path
       d="M 831.801,581.534 941.76,565.891"
       style="fill:none;stroke:#231f20;stroke-width:0.5;stroke-linecap:round;stroke-linejoin:round;stroke-miterlimit:4;stroke-dasharray:2.8, 1.8;stroke-dashoffset:0;stroke-opacity:1"
       id="path43534" />
    <path
       d="m 831.992,573.193 c 2.599,-8.706 8.867,-38.653 8.171,-56.411 -0.697,-17.759 0.696,-27.509 -9.402,-27.857 0,0 4.179,-3.482 4.875,-8.357 0.696,-4.875 -1.392,-7.66 -1.045,-9.053 0.349,-1.394 3.83,-7.312 -4.526,-13.93 -8.357,-6.615 -13.233,-6.615 -19.5,-6.615 -6.269,0 -14.625,3.133 -14.625,9.401 0,6.269 3.505,17.759 6.987,25.769"
       style="fill:none;stroke:#231f20;stroke-width:0.5;stroke-linecap:round;stroke-linejoin:round;stroke-miterlimit:4;stroke-dasharray:2.8, 1.8;stroke-dashoffset:0;stroke-opacity:1"
       id="path43536" />
    <path
       d="m 822.596,524.389 c 1.317,2.258 9.558,8.759 17.567,-7.607"
       style="fill:none;stroke:#231f20;stroke-width:0.5;stroke-linecap:round;stroke-linejoin:round;stroke-miterlimit:4;stroke-dasharray:2.8, 1.8;stroke-dashoffset:0;stroke-opacity:1"
       id="path43538" />
    <path
       d="m 808.358,500.132 c -0.231,-3.547 4.992,-12.252 22.403,-11.207"
       style="fill:none;stroke:#231f20;stroke-width:0.5;stroke-linecap:round;stroke-linejoin:round;stroke-miterlimit:4;stroke-dasharray:2.8, 1.8;stroke-dashoffset:0;stroke-opacity:1"
       id="path43540" />
    <path
       d="m 836.45,553.301 c 0,0 72.814,-13.31 99.861,-16.856"
       style="fill:none;stroke:#231f20;stroke-width:0.5;stroke-linecap:round;stroke-linejoin:round;stroke-miterlimit:4;stroke-dasharray:2.8, 1.8;stroke-dashoffset:0;stroke-opacity:1"
       id="path43542" />
    <path
       d="m 839.804,528.941 c 0,0 77.555,-17.555 87.108,-18.44"
       style="fill:none;stroke:#231f20;stroke-width:0.5;stroke-linecap:round;stroke-linejoin:round;stroke-miterlimit:4;stroke-dasharray:2.8, 1.8;stroke-dashoffset:0;stroke-opacity:1"
       id="path43544" />
    <path
       d="M 520.376,863.676 466.64,781.419"
       style="fill:none;stroke:#231f20;stroke-width:0.5;stroke-linecap:round;stroke-linejoin:round;stroke-miterlimit:4;stroke-dasharray:2.8, 1.8;stroke-dashoffset:0;stroke-opacity:1"
       id="path43546" />
    <path
       d="M 463.3,886.586 453.222,782.47"
       style="fill:none;stroke:#231f20;stroke-width:0.5;stroke-linecap:round;stroke-linejoin:round;stroke-miterlimit:4;stroke-dasharray:2.8, 1.8;stroke-dashoffset:0;stroke-opacity:1"
       id="path43548" />
    <path
       d="m 411.354,889.363 8.992,-114.299"
       style="fill:none;stroke:#231f20;stroke-width:0.5;stroke-linecap:round;stroke-linejoin:round;stroke-miterlimit:4;stroke-dasharray:2.8, 1.8;stroke-dashoffset:0;stroke-opacity:1"
       id="path43550" />
    <path
       d="m 334.47,877.425 34.596,-120.11"
       style="fill:none;stroke:#231f20;stroke-width:0.5;stroke-linecap:round;stroke-linejoin:round;stroke-miterlimit:4;stroke-dasharray:2.8, 1.8;stroke-dashoffset:0;stroke-opacity:1"
       id="path43552" />
    <path
       d="m 245.56,828.844 79.138,-98.112"
       style="fill:none;stroke:#231f20;stroke-width:0.5;stroke-linecap:round;stroke-linejoin:round;stroke-miterlimit:4;stroke-dasharray:2.8, 1.8;stroke-dashoffset:0;stroke-opacity:1"
       id="path43554" />
    <path
       d="m 313.876,722.392 -84.202,93.227"
       style="fill:none;stroke:#231f20;stroke-width:0.5;stroke-linecap:round;stroke-linejoin:round;stroke-miterlimit:4;stroke-dasharray:2.8, 1.8;stroke-dashoffset:0;stroke-opacity:1"
       id="path43556" />
    <path
       d="M 280.081,684.023 176.38,742.875"
       style="fill:none;stroke:#231f20;stroke-width:0.5;stroke-linecap:round;stroke-linejoin:round;stroke-miterlimit:4;stroke-dasharray:2.8, 1.8;stroke-dashoffset:0;stroke-opacity:1"
       id="path43558" />
    <path
       d="m 257.484,636.684 -109.71,32.13"
       style="fill:none;stroke:#231f20;stroke-width:0.5;stroke-linecap:round;stroke-linejoin:round;stroke-miterlimit:4;stroke-dasharray:2.8, 1.8;stroke-dashoffset:0;stroke-opacity:1"
       id="path43560" />
    <path
       d="M 248.202,581.534 138.243,565.891"
       style="fill:none;stroke:#231f20;stroke-width:0.5;stroke-linecap:round;stroke-linejoin:round;stroke-miterlimit:4;stroke-dasharray:2.8, 1.8;stroke-dashoffset:0;stroke-opacity:1"
       id="path43562" />
    <path
       d="m 243.553,553.301 c 0,0 -72.814,-13.31 -99.861,-16.856"
       style="fill:none;stroke:#231f20;stroke-width:0.5;stroke-linecap:round;stroke-linejoin:round;stroke-miterlimit:4;stroke-dasharray:2.8, 1.8;stroke-dashoffset:0;stroke-opacity:1"
       id="path43564" />
    <path
       d="m 240.2,528.941 c 0,0 -77.556,-17.555 -87.109,-18.44"
       style="fill:none;stroke:#231f20;stroke-width:0.5;stroke-linecap:round;stroke-linejoin:round;stroke-miterlimit:4;stroke-dasharray:2.8, 1.8;stroke-dashoffset:0;stroke-opacity:1"
       id="path43566" />
    <path
       d="m 838.975,496.271 c 5.715,-5.605 26.809,-19.963 67.449,-25.842"
       style="fill:none;stroke:#231f20;stroke-width:0.5;stroke-linecap:round;stroke-linejoin:round;stroke-miterlimit:4;stroke-dasharray:2.8, 1.8;stroke-dashoffset:0;stroke-opacity:1"
       id="path43568" />
    <path
       d="m 795.964,461.177 c -7.312,-4.179 -18.016,-14.387 -21.498,-17.869 -3.482,-3.48 -6.732,-6.5 -4.642,-10.445 0.922,-1.742 3.83,-5.92 9.511,-1.213 3.987,3.303 17.301,13.053 32.273,19.322"
       style="fill:none;stroke:#231f20;stroke-width:0.5;stroke-linecap:round;stroke-linejoin:round;stroke-miterlimit:4;stroke-dasharray:2.8, 1.8;stroke-dashoffset:0;stroke-opacity:1"
       id="path43570" />
    <path
       d="m 780.755,432.787 c 4.39,-3.754 12.747,-23.604 13.095,-33.702 0.349,-10.097 8.009,-23.373 3.134,-32.773"
       style="fill:none;stroke:#231f20;stroke-width:0.5;stroke-linecap:round;stroke-linejoin:round;stroke-miterlimit:4;stroke-dasharray:2.8, 1.8;stroke-dashoffset:0;stroke-opacity:1"
       id="path43572" />
    <path
       d="m 882.308,475.382 c -2.85,0.823 -4.886,-0.386 -7.672,-4.912 -2.786,-4.527 -11.491,-19.5 -22.982,-32.732 -11.491,-13.233 -18.455,-20.545 -29.25,-27.858 -10.795,-7.312 -20.069,-11.89 -28.489,-11.865 -8.422,0.025 -13.994,2.463 -22.699,1.768 -8.705,-0.698 -24.375,-0.698 -30.295,-6.965 -5.919,-6.268 -5.571,-14.625 3.831,-12.535 9.402,2.088 25.072,6.963 37.607,5.92 12.536,-1.045 24.027,-1.743 33.429,3.83 9.402,5.57 22.982,16.017 39,33.427 16.018,17.411 25.652,35.618 27.857,41.09 1.848,4.584 4.534,9.43 -0.337,10.832 z"
       style="fill:none;stroke:#231f20;stroke-width:0.5;stroke-linecap:round;stroke-linejoin:round;stroke-miterlimit:4;stroke-dasharray:2.8, 1.8;stroke-dashoffset:0;stroke-opacity:1"
       id="path43574" />
    <path
       d="M 771.482,431.037 C 764.949,427.64 733.22,400.753 737.245,386.513"
       style="fill:none;stroke:#231f20;stroke-width:0.5;stroke-linecap:round;stroke-linejoin:round;stroke-miterlimit:4;stroke-dasharray:2.8, 1.8;stroke-dashoffset:0;stroke-opacity:1"
       id="path43576" />
    <path
       d="m 740.764,400.365 c -5.414,6.033 -16.905,1.855 -20.039,-2.325 -3.134,-4.177 -2.786,-10.097 -1.045,-12.535 1.741,-2.437 3.967,-7.482 5.708,-9.572"
       style="fill:none;stroke:#231f20;stroke-width:0.5;stroke-linecap:round;stroke-linejoin:round;stroke-miterlimit:4;stroke-dasharray:2.8, 1.8;stroke-dashoffset:0;stroke-opacity:1"
       id="path43578" />
    <path
       d="m 699.569,374.574 c -0.085,2.574 0.611,4.664 5.835,4.664 5.222,0 13.232,-1.742 15.67,-2.09 2.437,-0.348 10.097,-2.09 12.302,-10.213"
       style="fill:none;stroke:#231f20;stroke-width:0.5;stroke-linecap:round;stroke-linejoin:round;stroke-miterlimit:4;stroke-dasharray:2.8, 1.8;stroke-dashoffset:0;stroke-opacity:1"
       id="path43580" />
    <path
       d="m 705.404,402.884 c 3.134,0.348 8.839,-2.076 12.968,-12.156"
       style="fill:none;stroke:#231f20;stroke-width:0.5;stroke-linecap:round;stroke-linejoin:round;stroke-miterlimit:4;stroke-dasharray:2.8, 1.8;stroke-dashoffset:0;stroke-opacity:1"
       id="path43582" />
    <path
       d="m 604.341,394.5 c -0.268,2.845 5.304,5.63 10.875,4.238 5.572,-1.393 12.071,-2.09 16.482,-4.875"
       style="fill:none;stroke:#231f20;stroke-width:0.5;stroke-linecap:round;stroke-linejoin:round;stroke-miterlimit:4;stroke-dasharray:2.8, 1.8;stroke-dashoffset:0;stroke-opacity:1"
       id="path43584" />
    <path
       d="m 610.356,398.968 c -4.193,1.51 -5.586,4.992 -4.161,7.514 1.846,3.266 6.584,2.353 11.459,1.308 4.875,-1.044 11.142,-2.785 13.231,-4.525 2.09,-1.742 3.469,-6.652 -2.792,-7.68"
       style="fill:none;stroke:#231f20;stroke-width:0.5;stroke-linecap:round;stroke-linejoin:round;stroke-miterlimit:4;stroke-dasharray:2.8, 1.8;stroke-dashoffset:0;stroke-opacity:1"
       id="path43586" />
    <path
       d="m 686.252,396.3 c -3.482,-1.742 -6.964,-8.357 -5.92,-17.062"
       style="fill:none;stroke:#231f20;stroke-width:0.5;stroke-linecap:round;stroke-linejoin:round;stroke-miterlimit:4;stroke-dasharray:2.8, 1.8;stroke-dashoffset:0;stroke-opacity:1"
       id="path43588" />
    <path
       d="m 728.402,421.017 c 2.422,4.533 7.18,9.268 16.233,9.965"
       style="fill:none;stroke:#231f20;stroke-width:0.5;stroke-linecap:round;stroke-linejoin:round;stroke-miterlimit:4;stroke-dasharray:2.8, 1.8;stroke-dashoffset:0;stroke-opacity:1"
       id="path43590" />
    <path
       d="m 681.376,435.3 c 10.448,4.528 25.073,1.393 33.429,0.696 8.358,-0.696 13.929,-4.526 14.277,-10.098 0.348,-5.57 -4.178,-13.58 -8.705,-18.108 -4.527,-4.525 -10.628,-4.808 -14.973,-4.874 -3.874,-0.059 -10.099,-2.088 -13.233,-3.831 -3.133,-1.74 -11.142,-4.875 -14.625,-6.267 -3.482,-1.393 -10.852,-3.313 -17.41,-2.438 -5.223,0.698 -7.312,1.741 -12.188,5.223 -4.875,3.482 -11.333,4.373 -17.063,7.662 -4.7,2.697 -7.312,10.793 -5.919,16.713 1.393,5.92 3.83,13.93 12.188,13.93 8.356,0 17.759,-1.742 22.285,-8.01 4.527,-6.268 7.893,-25.324 -5.63,-33.902"
       style="fill:none;stroke:#231f20;stroke-width:0.5;stroke-linecap:round;stroke-linejoin:round;stroke-miterlimit:4;stroke-dasharray:2.8, 1.8;stroke-dashoffset:0;stroke-opacity:1"
       id="path43592" />
    <path
       d="m 588.752,493.103 c 7.312,-4.875 9.75,-17.063 10.446,-37.607 0.697,-20.543 6.861,-39.977 13.18,-46.801"
       style="fill:none;stroke:#231f20;stroke-width:0.5;stroke-linecap:round;stroke-linejoin:round;stroke-miterlimit:4;stroke-dasharray:2.8, 1.8;stroke-dashoffset:0;stroke-opacity:1"
       id="path43594" />
    <path
       d="m 545.331,416.191 c 3.028,1.349 18.698,-1.783 18.698,-19.891"
       style="fill:none;stroke:#231f20;stroke-width:0.5;stroke-linecap:round;stroke-linejoin:round;stroke-miterlimit:4;stroke-dasharray:2.8, 1.8;stroke-dashoffset:0;stroke-opacity:1"
       id="path43596" />
    <path
       d="m 568.904,511.907 c 1.392,-2.437 9.053,-16.714 19.848,-18.804"
       style="fill:none;stroke:#231f20;stroke-width:0.5;stroke-linecap:round;stroke-linejoin:round;stroke-miterlimit:4;stroke-dasharray:2.8, 1.8;stroke-dashoffset:0;stroke-opacity:1"
       id="path43598" />
    <path
       d="m 568.904,511.907 c -0.935,1.794 0.696,3.482 4.875,2.786 4.178,-0.697 13.929,-5.921 17.759,-9.053 3.83,-3.135 9.335,-10.541 6.267,-12.187 -2.257,-1.213 -4.875,-1.743 -9.053,-0.35"
       style="fill:none;stroke:#231f20;stroke-width:0.5;stroke-linecap:round;stroke-linejoin:round;stroke-miterlimit:4;stroke-dasharray:2.8, 1.8;stroke-dashoffset:0;stroke-opacity:1"
       id="path43600" />
    <path
       d="m 567.905,513.837 c -5.617,2.248 -11.886,2.248 -16.412,-4.02 -4.527,-6.267 -4.875,-15.669 -1.393,-19.499 3.482,-3.83 10.446,-7.313 17.41,-2.438 6.965,4.875 9.155,9.766 7.537,14.807"
       style="fill:none;stroke:#231f20;stroke-width:0.5;stroke-linecap:round;stroke-linejoin:round;stroke-miterlimit:4;stroke-dasharray:2.8, 1.8;stroke-dashoffset:0;stroke-opacity:1"
       id="path43602" />
    <path
       d="m 545.573,480.916 c 3.134,2.437 10.098,4.527 21.241,1.742 11.143,-2.787 19.849,-7.313 21.938,-16.715 2.089,-9.403 4.874,-36.215 0.696,-44.92 -4.178,-8.705 -9.402,-13.928 -15.669,-12.535 -6.269,1.392 -13.929,4.527 -17.411,6.965 -3.483,2.437 -8.009,0 -10.447,16.017"
       style="fill:none;stroke:#231f20;stroke-width:0.5;stroke-linecap:round;stroke-linejoin:round;stroke-miterlimit:4;stroke-dasharray:2.8, 1.8;stroke-dashoffset:0;stroke-opacity:1"
       id="path43604" />
    <path
       d="m 566.814,482.658 c 5.896,-1.742 11.491,-6.268 10.446,-15.323 -1.044,-9.052 -5.919,-37.955 -9.401,-42.83 -3.483,-4.875 -7.135,-8.648 -12.294,-8.582"
       style="fill:none;stroke:#231f20;stroke-width:0.5;stroke-linecap:round;stroke-linejoin:round;stroke-miterlimit:4;stroke-dasharray:2.8, 1.8;stroke-dashoffset:0;stroke-opacity:1"
       id="path43606" />
    <path
       d="m 556.716,469.773 c 5.223,2.785 11.143,2.09 12.536,0.697 1.392,-1.392 1.868,-3.57 -0.348,-6.617 -2.786,-3.83 -5.92,-5.223 -9.054,-6.268 -3.134,-1.045 -7.661,-1.045 -9.054,2.09 -1.392,3.133 2.169,8.098 5.92,10.098 z"
       style="fill:none;stroke:#231f20;stroke-width:0.5;stroke-linecap:round;stroke-linejoin:round;stroke-miterlimit:4;stroke-dasharray:2.8, 1.8;stroke-dashoffset:0;stroke-opacity:1"
       id="path43608" />
    <path
       d="m 643.421,508.772 c -1.045,-4.875 -2.786,-21.239 0.349,-26.812 3.134,-5.57 8.014,-9.16 17.41,-13.232 10.446,-4.525 12.536,-21.24 11.491,-28.205"
       style="fill:none;stroke:#231f20;stroke-width:0.5;stroke-linecap:round;stroke-linejoin:round;stroke-miterlimit:4;stroke-dasharray:2.8, 1.8;stroke-dashoffset:0;stroke-opacity:1"
       id="path43610" />
    <path
       d="m 650.298,474.656 c -4.439,-3.49 -19.064,-25.078 -5.484,-35.526"
       style="fill:none;stroke:#231f20;stroke-width:0.5;stroke-linecap:round;stroke-linejoin:round;stroke-miterlimit:4;stroke-dasharray:2.8, 1.8;stroke-dashoffset:0;stroke-opacity:1"
       id="path43612" />
    <path
       d="m 674.761,622.29 c 33.777,-20.833 43.527,-57.106 41.785,-74.168 -1.741,-17.063 -9.75,-33.778 -12.883,-42.832 -3.134,-9.052 -4.527,-16.365 -4.527,-19.847"
       style="fill:none;stroke:#231f20;stroke-width:0.5;stroke-linecap:round;stroke-linejoin:round;stroke-miterlimit:4;stroke-dasharray:2.8, 1.8;stroke-dashoffset:0;stroke-opacity:1"
       id="path43614" />
    <path
       d="m 405.243,622.29 c -33.778,-20.833 -43.528,-57.106 -41.786,-74.168 1.741,-17.063 9.75,-33.778 12.883,-42.832 3.134,-9.052 4.528,-16.365 4.528,-19.847"
       style="fill:none;stroke:#231f20;stroke-width:0.5;stroke-linecap:round;stroke-linejoin:round;stroke-miterlimit:4;stroke-dasharray:2.8, 1.8;stroke-dashoffset:0;stroke-opacity:1"
       id="path43616" />
    <path
       d="m 699.136,485.443 c -12.536,0 -30.643,12.187 -37.26,23.677"
       style="fill:none;stroke:#231f20;stroke-width:0.5;stroke-linecap:round;stroke-linejoin:round;stroke-miterlimit:4;stroke-dasharray:2.8, 1.8;stroke-dashoffset:0;stroke-opacity:1"
       id="path43618" />
    <path
       d="m 660.832,502.505 c 3.134,0 6.268,-4.527 5.572,-13.927 -0.721,-9.729 -2.786,-13.582 -6.965,-13.233 -4.178,0.348 -3.83,5.571 -3.481,13.58 0.347,8.008 2.413,13.58 4.874,13.58 z"
       style="fill:none;stroke:#231f20;stroke-width:0.5;stroke-linecap:round;stroke-linejoin:round;stroke-miterlimit:4;stroke-dasharray:2.8, 1.8;stroke-dashoffset:0;stroke-opacity:1"
       id="path43620" />
    <path
       d="m 652.808,431.089 c -3.92,1.403 -8.839,4.241 -7.994,8.041 0.696,3.135 3.831,2.438 5.572,2.438 1.74,0 7.313,-0.697 9.402,1.045 2.088,1.74 7.312,4.875 8.357,4.875 1.044,0 1.847,-4.582 4.526,-6.965 3.134,-2.785 9.414,-4.826 9.054,-6.268 -0.519,-2.074 -5.638,-8.086 -25.414,-5.215"
       style="fill:none;stroke:#231f20;stroke-width:0.5;stroke-linecap:round;stroke-linejoin:round;stroke-miterlimit:4;stroke-dasharray:2.8, 1.8;stroke-dashoffset:0;stroke-opacity:1"
       id="path43622" />
    <path
       d="m 736.526,471.65 c -4.527,5.223 -15.452,13.096 -18.587,15.185 -3.134,2.09 -9.75,10.795 -15.807,13.729 0,0 6.754,-5.024 10.932,-16.166"
       style="fill:none;stroke:#231f20;stroke-width:0.5;stroke-linecap:round;stroke-linejoin:round;stroke-miterlimit:4;stroke-dasharray:2.8, 1.8;stroke-dashoffset:0;stroke-opacity:1"
       id="path43624" />
    <path
       d="m 747.957,430.019 c -7.732,1.451 -8.428,5.629 -8.777,11.897 -0.348,6.267 11.729,13.9 18.108,14.624 5.107,0.583 13.58,-1.74 11.491,-6.962 -2.089,-5.225 -16.018,-12.885 -21.589,-20.545 -5.572,-7.662 -7.977,-20.075 -6.426,-28.668"
       style="fill:none;stroke:#231f20;stroke-width:0.5;stroke-linecap:round;stroke-linejoin:round;stroke-miterlimit:4;stroke-dasharray:2.8, 1.8;stroke-dashoffset:0;stroke-opacity:1"
       id="path43626" />
    <path
       d="m 699.136,485.443 c -0.348,-6.965 1.044,-16.715 4.875,-21.59 3.83,-4.875 11.839,-12.187 19.5,-14.275 7.66,-2.09 15.274,-3.039 20.533,0.57"
       style="fill:none;stroke:#231f20;stroke-width:0.5;stroke-linecap:round;stroke-linejoin:round;stroke-miterlimit:4;stroke-dasharray:2.8, 1.8;stroke-dashoffset:0;stroke-opacity:1"
       id="path43628" />
    <path
       d="m 714.382,454.146 c 5.995,-4.568 12.606,-14.705 3.206,-18.518"
       style="fill:none;stroke:#231f20;stroke-width:0.5;stroke-linecap:round;stroke-linejoin:round;stroke-miterlimit:4;stroke-dasharray:2.8, 1.8;stroke-dashoffset:0;stroke-opacity:1"
       id="path43630" />
    <path
       d="m 720.359,469.105 c 0.018,-2.815 13.599,-12.912 15.687,-13.609 2.09,-0.696 8.464,-2.827 12.415,-2.457"
       style="fill:none;stroke:#231f20;stroke-width:0.5;stroke-linecap:round;stroke-linejoin:round;stroke-miterlimit:4;stroke-dasharray:2.8, 1.8;stroke-dashoffset:0;stroke-opacity:1"
       id="path43632" />
    <path
       d="m 652.666,534.509 c 0,0 -8.896,-1.361 -10.986,-1.71 -2.089,-0.347 -10.446,-12.535 -9.401,-14.625 1.044,-2.089 5.223,-10.097 11.142,-9.402 5.92,0.698 7.745,2.989 13.157,11.241"
       style="fill:none;stroke:#231f20;stroke-width:0.5;stroke-linecap:round;stroke-linejoin:round;stroke-miterlimit:4;stroke-dasharray:2.8, 1.8;stroke-dashoffset:0;stroke-opacity:1"
       id="path43634" />
    <path
       d="m 637.85,577.372 c -1.392,-4.179 -3.098,-25.049 1.236,-46.825"
       style="fill:none;stroke:#231f20;stroke-width:0.5;stroke-linecap:round;stroke-linejoin:round;stroke-miterlimit:4;stroke-dasharray:2.8, 1.8;stroke-dashoffset:0;stroke-opacity:1"
       id="path43636" />
    <path
       d="m 602.116,590.148 c -1.873,3.59 -10.578,6.375 -16.15,-0.241 -5.571,-6.617 -0.701,-19.152 13.576,-17.41"
       style="fill:none;stroke:#231f20;stroke-width:0.5;stroke-linecap:round;stroke-linejoin:round;stroke-miterlimit:4;stroke-dasharray:2.8, 1.8;stroke-dashoffset:0;stroke-opacity:1"
       id="path43638" />
    <path
       d="m 600.255,534.416 c 7.997,5.348 29.423,20.918 36.469,35.592"
       style="fill:none;stroke:#231f20;stroke-width:0.5;stroke-linecap:round;stroke-linejoin:round;stroke-miterlimit:4;stroke-dasharray:2.8, 1.8;stroke-dashoffset:0;stroke-opacity:1"
       id="path43640" />
    <path
       d="m 595.368,546.032 c 13.232,8.705 35.748,30.036 37.837,36.652"
       style="fill:none;stroke:#231f20;stroke-width:0.5;stroke-linecap:round;stroke-linejoin:round;stroke-miterlimit:4;stroke-dasharray:2.8, 1.8;stroke-dashoffset:0;stroke-opacity:1"
       id="path43642" />
    <path
       d="m 652.018,604.117 c 0,0 -4.255,-7.245 -7.041,-10.728"
       style="fill:none;stroke:#231f20;stroke-width:0.5;stroke-linecap:round;stroke-linejoin:round;stroke-miterlimit:4;stroke-dasharray:2.8, 1.8;stroke-dashoffset:0;stroke-opacity:1"
       id="path43644" />
    <path
       d="m 536.56,697.646 c -3.754,-5.712 -13.506,-8.498 -23.256,-12.677 -9.75,-4.177 -43.643,-26.929 -50.142,-41.785"
       style="fill:none;stroke:#231f20;stroke-width:0.5;stroke-linecap:round;stroke-linejoin:round;stroke-miterlimit:4;stroke-dasharray:2.8, 1.8;stroke-dashoffset:0;stroke-opacity:1"
       id="path43646" />
    <path
       d="m 534.019,694.858 c -5.204,-3.325 -17.292,-4.779 -23.035,-7.103 -9.177,-3.713 -32.656,-15.069 -38.846,-21.695"
       style="fill:none;stroke:#231f20;stroke-width:0.5;stroke-linecap:round;stroke-linejoin:round;stroke-miterlimit:4;stroke-dasharray:2.8, 1.8;stroke-dashoffset:0;stroke-opacity:1"
       id="path43648" />
    <path
       d="m 490.433,592.797 c 3.249,18.572 16.372,48.53 20.551,53.172 4.179,4.644 25.535,24.144 29.018,24.144 3.482,0 24.838,-19.5 29.017,-24.144 4.179,-4.642 17.302,-34.6 20.552,-53.172"
       style="fill:none;stroke:#231f20;stroke-width:0.5;stroke-linecap:round;stroke-linejoin:round;stroke-miterlimit:4;stroke-dasharray:2.8, 1.8;stroke-dashoffset:0;stroke-opacity:1"
       id="path43650" />
    <path
       d="M 540.002,790.892 471.727,771.906"
       style="fill:none;stroke:#231f20;stroke-width:0.5;stroke-linecap:round;stroke-linejoin:round;stroke-miterlimit:4;stroke-dasharray:2.8, 1.8;stroke-dashoffset:0;stroke-opacity:1"
       id="path43652" />
    <path
       d="m 248.011,573.193 c -2.599,-8.706 -8.867,-38.653 -8.171,-56.411 0.697,-17.759 -0.696,-27.509 9.402,-27.857 0,0 -4.178,-3.482 -4.875,-8.357 -0.697,-4.875 1.393,-7.66 1.045,-9.053 -0.348,-1.394 -3.83,-7.312 4.527,-13.93 8.356,-6.615 13.231,-6.615 19.5,-6.615 6.268,0 14.625,3.133 14.625,9.401 0,6.269 -3.506,17.759 -6.988,25.769"
       style="fill:none;stroke:#231f20;stroke-width:0.5;stroke-linecap:round;stroke-linejoin:round;stroke-miterlimit:4;stroke-dasharray:2.8, 1.8;stroke-dashoffset:0;stroke-opacity:1"
       id="path43654" />
    <path
       d="m 257.408,524.388 c -1.318,2.258 -9.559,8.76 -17.568,-7.606"
       style="fill:none;stroke:#231f20;stroke-width:0.5;stroke-linecap:round;stroke-linejoin:round;stroke-miterlimit:4;stroke-dasharray:2.8, 1.8;stroke-dashoffset:0;stroke-opacity:1"
       id="path43656" />
    <path
       d="m 271.645,500.13 c 0.231,-3.545 -4.992,-12.25 -22.403,-11.205"
       style="fill:none;stroke:#231f20;stroke-width:0.5;stroke-linecap:round;stroke-linejoin:round;stroke-miterlimit:4;stroke-dasharray:2.8, 1.8;stroke-dashoffset:0;stroke-opacity:1"
       id="path43658" />
    <path
       d="m 241.028,496.271 c -5.714,-5.605 -26.809,-19.963 -67.449,-25.842"
       style="fill:none;stroke:#231f20;stroke-width:0.5;stroke-linecap:round;stroke-linejoin:round;stroke-miterlimit:4;stroke-dasharray:2.8, 1.8;stroke-dashoffset:0;stroke-opacity:1"
       id="path43660" />
    <path
       d="m 284.04,461.177 c 7.312,-4.179 18.015,-14.387 21.498,-17.869 3.481,-3.48 6.731,-6.502 4.642,-10.445 -0.923,-1.742 -3.831,-5.92 -9.512,-1.213 -3.987,3.303 -17.301,13.053 -32.273,19.322"
       style="fill:none;stroke:#231f20;stroke-width:0.5;stroke-linecap:round;stroke-linejoin:round;stroke-miterlimit:4;stroke-dasharray:2.8, 1.8;stroke-dashoffset:0;stroke-opacity:1"
       id="path43662" />
    <path
       d="m 299.248,432.787 c -4.39,-3.754 -12.747,-23.604 -13.095,-33.702 -0.349,-10.097 -8.009,-23.373 -3.134,-32.775"
       style="fill:none;stroke:#231f20;stroke-width:0.5;stroke-linecap:round;stroke-linejoin:round;stroke-miterlimit:4;stroke-dasharray:2.8, 1.8;stroke-dashoffset:0;stroke-opacity:1"
       id="path43664" />
    <path
       d="m 197.696,475.382 c 2.849,0.823 4.886,-0.386 7.671,-4.912 2.786,-4.527 11.491,-19.5 22.982,-32.732 11.491,-13.233 18.455,-20.545 29.25,-27.858 10.795,-7.312 20.069,-11.89 28.49,-11.867 8.421,0.027 13.993,2.465 22.698,1.77 8.706,-0.698 24.375,-0.698 30.295,-6.965 5.919,-6.268 5.571,-14.625 -3.831,-12.535 -9.402,2.088 -25.071,6.963 -37.607,5.92 -12.536,-1.045 -24.027,-1.743 -33.429,3.83 -9.401,5.57 -22.982,16.017 -39,33.427 -16.017,17.411 -25.652,35.616 -27.857,41.09 -1.847,4.584 -4.533,9.43 0.338,10.832 z"
       style="fill:none;stroke:#231f20;stroke-width:0.5;stroke-linecap:round;stroke-linejoin:round;stroke-miterlimit:4;stroke-dasharray:2.8, 1.8;stroke-dashoffset:0;stroke-opacity:1"
       id="path43666" />
    <path
       d="m 308.522,431.037 c 6.533,-3.397 38.261,-30.284 34.236,-44.526"
       style="fill:none;stroke:#231f20;stroke-width:0.5;stroke-linecap:round;stroke-linejoin:round;stroke-miterlimit:4;stroke-dasharray:2.8, 1.8;stroke-dashoffset:0;stroke-opacity:1"
       id="path43668" />
    <path
       d="m 339.24,400.365 c 5.413,6.033 16.904,1.855 20.038,-2.325 3.134,-4.177 2.786,-10.097 1.045,-12.535 -1.741,-2.437 -3.967,-7.484 -5.708,-9.574"
       style="fill:none;stroke:#231f20;stroke-width:0.5;stroke-linecap:round;stroke-linejoin:round;stroke-miterlimit:4;stroke-dasharray:2.8, 1.8;stroke-dashoffset:0;stroke-opacity:1"
       id="path43670" />
    <path
       d="m 380.435,374.572 c 0.084,2.576 -0.612,4.666 -5.836,4.666 -5.223,0 -13.231,-1.742 -15.669,-2.09 -2.437,-0.348 -10.098,-2.09 -12.304,-10.215"
       style="fill:none;stroke:#231f20;stroke-width:0.5;stroke-linecap:round;stroke-linejoin:round;stroke-miterlimit:4;stroke-dasharray:2.8, 1.8;stroke-dashoffset:0;stroke-opacity:1"
       id="path43672" />
    <path
       d="m 374.599,402.884 c -3.134,0.348 -8.838,-2.076 -12.968,-12.156"
       style="fill:none;stroke:#231f20;stroke-width:0.5;stroke-linecap:round;stroke-linejoin:round;stroke-miterlimit:4;stroke-dasharray:2.8, 1.8;stroke-dashoffset:0;stroke-opacity:1"
       id="path43674" />
    <path
       d="m 475.662,394.5 c 0.268,2.845 -5.303,5.63 -10.874,4.238 -5.573,-1.393 -12.072,-2.09 -16.483,-4.875"
       style="fill:none;stroke:#231f20;stroke-width:0.5;stroke-linecap:round;stroke-linejoin:round;stroke-miterlimit:4;stroke-dasharray:2.8, 1.8;stroke-dashoffset:0;stroke-opacity:1"
       id="path43676" />
    <path
       d="m 469.647,398.968 c 4.193,1.51 5.587,4.992 4.161,7.514 -1.846,3.266 -6.583,2.353 -11.458,1.308 -4.875,-1.044 -11.143,-2.785 -13.232,-4.525 -2.09,-1.742 -3.469,-6.652 2.792,-7.681"
       style="fill:none;stroke:#231f20;stroke-width:0.5;stroke-linecap:round;stroke-linejoin:round;stroke-miterlimit:4;stroke-dasharray:2.8, 1.8;stroke-dashoffset:0;stroke-opacity:1"
       id="path43678" />
    <path
       d="m 393.751,396.3 c 3.483,-1.742 6.964,-8.357 5.92,-17.062"
       style="fill:none;stroke:#231f20;stroke-width:0.5;stroke-linecap:round;stroke-linejoin:round;stroke-miterlimit:4;stroke-dasharray:2.8, 1.8;stroke-dashoffset:0;stroke-opacity:1"
       id="path43680" />
    <path
       d="m 351.601,421.017 c -2.421,4.533 -7.18,9.266 -16.233,9.963"
       style="fill:none;stroke:#231f20;stroke-width:0.5;stroke-linecap:round;stroke-linejoin:round;stroke-miterlimit:4;stroke-dasharray:2.8, 1.8;stroke-dashoffset:0;stroke-opacity:1"
       id="path43682" />
    <path
       d="m 398.626,435.3 c -10.446,4.528 -25.071,1.393 -33.428,0.696 -8.358,-0.696 -13.929,-4.526 -14.278,-10.098 -0.347,-5.57 4.179,-13.58 8.706,-18.108 4.527,-4.525 10.629,-4.808 14.973,-4.874 3.874,-0.059 10.099,-2.088 13.233,-3.831 3.133,-1.74 11.142,-4.875 14.625,-6.267 3.482,-1.393 10.853,-3.315 17.411,-2.438 5.222,0.698 7.312,1.741 12.187,5.223 4.875,3.482 11.333,4.373 17.063,7.662 4.701,2.697 7.312,10.793 5.92,16.713 -1.394,5.92 -3.831,13.93 -12.188,13.93 -8.357,0 -17.76,-1.742 -22.286,-8.01 -4.527,-6.268 -7.892,-25.324 5.63,-33.904"
       style="fill:none;stroke:#231f20;stroke-width:0.5;stroke-linecap:round;stroke-linejoin:round;stroke-miterlimit:4;stroke-dasharray:2.8, 1.8;stroke-dashoffset:0;stroke-opacity:1"
       id="path43684" />
    <path
       d="m 491.251,493.103 c -7.312,-4.875 -9.75,-17.063 -10.446,-37.607 -0.696,-20.543 -6.861,-39.977 -13.18,-46.801"
       style="fill:none;stroke:#231f20;stroke-width:0.5;stroke-linecap:round;stroke-linejoin:round;stroke-miterlimit:4;stroke-dasharray:2.8, 1.8;stroke-dashoffset:0;stroke-opacity:1"
       id="path43686" />
    <path
       d="m 537.502,495.865 c -2.822,-5.864 -3.508,-10.449 -3.072,-14.949 0.425,-4.385 0.696,-10.446 1.045,-18.803 0.348,-8.358 -0.696,-22.983 -1.393,-30.643 -0.697,-7.662 0,-14.277 2.089,-21.937 2.089,-7.662 3.831,-6.965 3.831,-6.965 0,0 1.741,-0.697 3.83,6.965 2.089,7.66 2.786,14.275 2.089,21.937 -0.696,7.66 -1.741,22.285 -1.392,30.643 0.347,8.357 0.62,14.42 1.044,18.803 0.436,4.501 -0.25,9.085 -3.073,14.951"
       style="fill:none;stroke:#231f20;stroke-width:0.5;stroke-linecap:round;stroke-linejoin:round;stroke-miterlimit:4;stroke-dasharray:2.8, 1.8;stroke-dashoffset:0;stroke-opacity:1"
       id="path43688" />
    <path
       d="m 534.672,416.189 c -3.028,1.351 -18.697,-1.781 -18.697,-19.889"
       style="fill:none;stroke:#231f20;stroke-width:0.5;stroke-linecap:round;stroke-linejoin:round;stroke-miterlimit:4;stroke-dasharray:2.8, 1.8;stroke-dashoffset:0;stroke-opacity:1"
       id="path43690" />
    <path
       d="m 511.1,511.907 c -1.393,-2.437 -9.054,-16.714 -19.849,-18.804"
       style="fill:none;stroke:#231f20;stroke-width:0.5;stroke-linecap:round;stroke-linejoin:round;stroke-miterlimit:4;stroke-dasharray:2.8, 1.8;stroke-dashoffset:0;stroke-opacity:1"
       id="path43692" />
    <path
       d="m 511.1,511.907 c 0.935,1.793 -0.696,3.482 -4.875,2.786 -4.179,-0.697 -13.929,-5.921 -17.76,-9.053 -3.83,-3.135 -9.335,-10.543 -6.267,-12.187 2.257,-1.215 4.875,-1.743 9.053,-0.35"
       style="fill:none;stroke:#231f20;stroke-width:0.5;stroke-linecap:round;stroke-linejoin:round;stroke-miterlimit:4;stroke-dasharray:2.8, 1.8;stroke-dashoffset:0;stroke-opacity:1"
       id="path43694" />
    <path
       d="m 512.098,513.835 c 5.618,2.25 11.886,2.25 16.412,-4.018 4.528,-6.267 4.875,-15.669 1.394,-19.499 -3.483,-3.83 -10.447,-7.313 -17.411,-2.438 -6.965,4.875 -9.155,9.766 -7.537,14.807"
       style="fill:none;stroke:#231f20;stroke-width:0.5;stroke-linecap:round;stroke-linejoin:round;stroke-miterlimit:4;stroke-dasharray:2.8, 1.8;stroke-dashoffset:0;stroke-opacity:1"
       id="path43696" />
    <path
       d="m 534.43,480.916 c -3.134,2.437 -10.098,4.527 -21.241,1.742 -11.143,-2.787 -19.849,-7.313 -21.938,-16.715 -2.088,-9.403 -4.875,-36.215 -0.696,-44.92 4.179,-8.705 9.402,-13.928 15.67,-12.535 6.268,1.392 13.929,4.527 17.41,6.965 3.483,2.437 8.009,0 10.447,16.017"
       style="fill:none;stroke:#231f20;stroke-width:0.5;stroke-linecap:round;stroke-linejoin:round;stroke-miterlimit:4;stroke-dasharray:2.8, 1.8;stroke-dashoffset:0;stroke-opacity:1"
       id="path43698" />
    <path
       d="m 513.189,482.658 c -5.896,-1.742 -11.491,-6.268 -10.446,-15.323 1.045,-9.052 5.92,-37.955 9.401,-42.83 3.482,-4.875 7.135,-8.648 12.295,-8.584"
       style="fill:none;stroke:#231f20;stroke-width:0.5;stroke-linecap:round;stroke-linejoin:round;stroke-miterlimit:4;stroke-dasharray:2.8, 1.8;stroke-dashoffset:0;stroke-opacity:1"
       id="path43700" />
    <path
       d="m 523.288,469.773 c -5.224,2.785 -11.144,2.09 -12.537,0.697 -1.392,-1.392 -1.867,-3.572 0.349,-6.617 2.785,-3.83 5.919,-5.223 9.054,-6.268 3.134,-1.045 7.66,-1.045 9.053,2.09 1.393,3.133 -2.169,8.096 -5.919,10.098 z"
       style="fill:none;stroke:#231f20;stroke-width:0.5;stroke-linecap:round;stroke-linejoin:round;stroke-miterlimit:4;stroke-dasharray:2.8, 1.8;stroke-dashoffset:0;stroke-opacity:1"
       id="path43702" />
    <path
       d="m 492.339,529.323 c -4.206,0.941 -9.201,-4.671 -11.181,-6.864 -2.658,-2.943 -21.594,-14.382 -34.478,-6.374"
       style="fill:none;stroke:#231f20;stroke-width:0.5;stroke-linecap:round;stroke-linejoin:round;stroke-miterlimit:4;stroke-dasharray:2.8, 1.8;stroke-dashoffset:0;stroke-opacity:1"
       id="path43704" />
    <path
       d="m 436.582,508.772 c 1.044,-4.875 2.786,-21.239 -0.348,-26.812 -3.135,-5.57 -8.015,-9.16 -17.411,-13.232 -10.447,-4.525 -12.536,-21.24 -11.491,-28.205"
       style="fill:none;stroke:#231f20;stroke-width:0.5;stroke-linecap:round;stroke-linejoin:round;stroke-miterlimit:4;stroke-dasharray:2.8, 1.8;stroke-dashoffset:0;stroke-opacity:1"
       id="path43706" />
    <path
       d="m 429.705,474.656 c 4.439,-3.49 19.064,-25.078 5.484,-35.526"
       style="fill:none;stroke:#231f20;stroke-width:0.5;stroke-linecap:round;stroke-linejoin:round;stroke-miterlimit:4;stroke-dasharray:2.8, 1.8;stroke-dashoffset:0;stroke-opacity:1"
       id="path43708" />
    <path
       d="m 419.171,502.505 c -3.134,0 -6.268,-4.527 -5.572,-13.927 0.722,-9.729 2.786,-13.582 6.965,-13.233 4.179,0.348 3.83,5.571 3.482,13.58 -0.348,8.008 -2.413,13.58 -4.875,13.58 z"
       style="fill:none;stroke:#231f20;stroke-width:0.5;stroke-linecap:round;stroke-linejoin:round;stroke-miterlimit:4;stroke-dasharray:2.8, 1.8;stroke-dashoffset:0;stroke-opacity:1"
       id="path43710" />
    <path
       d="m 427.195,431.089 c 3.92,1.401 8.839,4.241 7.994,8.041 -0.696,3.135 -3.83,2.438 -5.571,2.438 -1.742,0 -7.313,-0.697 -9.403,1.045 -2.089,1.74 -7.312,4.875 -8.356,4.875 -1.045,0 -1.848,-4.584 -4.527,-6.965 -3.134,-2.785 -9.414,-4.828 -9.054,-6.268 0.519,-2.076 5.638,-8.086 25.414,-5.215"
       style="fill:none;stroke:#231f20;stroke-width:0.5;stroke-linecap:round;stroke-linejoin:round;stroke-miterlimit:4;stroke-dasharray:2.8, 1.8;stroke-dashoffset:0;stroke-opacity:1"
       id="path43712" />
    <path
       d="m 343.478,471.648 c 4.526,5.223 15.452,13.098 18.586,15.187 3.134,2.09 9.75,10.795 15.807,13.729 0,0 -6.753,-5.024 -10.932,-16.166"
       style="fill:none;stroke:#231f20;stroke-width:0.5;stroke-linecap:round;stroke-linejoin:round;stroke-miterlimit:4;stroke-dasharray:2.8, 1.8;stroke-dashoffset:0;stroke-opacity:1"
       id="path43714" />
    <path
       d="m 332.046,430.017 c 7.732,1.453 8.428,5.631 8.777,11.899 0.347,6.267 -11.728,13.898 -18.108,14.624 -5.107,0.581 -13.58,-1.74 -11.491,-6.962 2.09,-5.225 16.019,-12.885 21.59,-20.545 5.571,-7.662 7.976,-20.075 6.426,-28.668"
       style="fill:none;stroke:#231f20;stroke-width:0.5;stroke-linecap:round;stroke-linejoin:round;stroke-miterlimit:4;stroke-dasharray:2.8, 1.8;stroke-dashoffset:0;stroke-opacity:1"
       id="path43716" />
    <path
       d="m 380.868,485.443 c 0.347,-6.965 -1.045,-16.715 -4.875,-21.59 -3.831,-4.875 -11.84,-12.187 -19.5,-14.275 -7.661,-2.09 -15.275,-3.039 -20.535,0.57"
       style="fill:none;stroke:#231f20;stroke-width:0.5;stroke-linecap:round;stroke-linejoin:round;stroke-miterlimit:4;stroke-dasharray:2.8, 1.8;stroke-dashoffset:0;stroke-opacity:1"
       id="path43718" />
    <path
       d="m 365.621,454.144 c -5.995,-4.566 -12.606,-14.703 -3.206,-18.516"
       style="fill:none;stroke:#231f20;stroke-width:0.5;stroke-linecap:round;stroke-linejoin:round;stroke-miterlimit:4;stroke-dasharray:2.8, 1.8;stroke-dashoffset:0;stroke-opacity:1"
       id="path43720" />
    <path
       d="m 359.644,469.105 c -0.018,-2.815 -13.599,-12.912 -15.687,-13.609 -2.089,-0.696 -8.463,-2.827 -12.415,-2.459"
       style="fill:none;stroke:#231f20;stroke-width:0.5;stroke-linecap:round;stroke-linejoin:round;stroke-miterlimit:4;stroke-dasharray:2.8, 1.8;stroke-dashoffset:0;stroke-opacity:1"
       id="path43722" />
    <path
       d="m 427.337,534.509 c 0,0 8.897,-1.361 10.986,-1.71 2.09,-0.347 10.446,-12.535 9.402,-14.625 -1.045,-2.089 -5.224,-10.097 -11.143,-9.402 -5.92,0.698 -7.746,2.989 -13.157,11.241"
       style="fill:none;stroke:#231f20;stroke-width:0.5;stroke-linecap:round;stroke-linejoin:round;stroke-miterlimit:4;stroke-dasharray:2.8, 1.8;stroke-dashoffset:0;stroke-opacity:1"
       id="path43724" />
    <path
       d="m 442.153,577.372 c 1.393,-4.179 3.098,-25.049 -1.237,-46.825"
       style="fill:none;stroke:#231f20;stroke-width:0.5;stroke-linecap:round;stroke-linejoin:round;stroke-miterlimit:4;stroke-dasharray:2.8, 1.8;stroke-dashoffset:0;stroke-opacity:1"
       id="path43726" />
    <path
       d="m 534.76,606.273 c 0,4.179 3.5,4.875 5.242,4.875 1.741,0 5.241,-0.696 5.241,-4.875"
       style="fill:none;stroke:#231f20;stroke-width:0.5;stroke-linecap:round;stroke-linejoin:round;stroke-miterlimit:4;stroke-dasharray:2.8, 1.8;stroke-dashoffset:0;stroke-opacity:1"
       id="path43728" />
    <path
       d="m 477.887,590.148 c 1.873,3.59 10.578,6.375 16.151,-0.241 5.571,-6.617 0.7,-19.152 -13.578,-17.41"
       style="fill:none;stroke:#231f20;stroke-width:0.5;stroke-linecap:round;stroke-linejoin:round;stroke-miterlimit:4;stroke-dasharray:2.8, 1.8;stroke-dashoffset:0;stroke-opacity:1"
       id="path43730" />
    <path
       d="m 471.802,585.235 c 2.038,-4.033 7.232,-15.87 25.339,-27.361"
       style="fill:none;stroke:#231f20;stroke-width:0.5;stroke-linecap:round;stroke-linejoin:round;stroke-miterlimit:4;stroke-dasharray:2.8, 1.8;stroke-dashoffset:0;stroke-opacity:1"
       id="path43732" />
    <path
       d="m 479.749,534.416 c -7.998,5.348 -29.423,20.918 -36.469,35.592"
       style="fill:none;stroke:#231f20;stroke-width:0.5;stroke-linecap:round;stroke-linejoin:round;stroke-miterlimit:4;stroke-dasharray:2.8, 1.8;stroke-dashoffset:0;stroke-opacity:1"
       id="path43734" />
    <path
       d="m 484.635,546.032 c -13.232,8.705 -35.748,30.036 -37.837,36.652"
       style="fill:none;stroke:#231f20;stroke-width:0.5;stroke-linecap:round;stroke-linejoin:round;stroke-miterlimit:4;stroke-dasharray:2.8, 1.8;stroke-dashoffset:0;stroke-opacity:1"
       id="path43736" />
    <path
       d="m 497.141,557.874 c -5.138,0.699 -7.978,-1.744 -9.372,-4.53 -1.393,-2.785 -4.875,-8.009 -3.134,-10.795 1.741,-2.785 5.92,-6.964 8.705,-3.133 2.786,3.831 5.224,8.357 5.224,8.357"
       style="fill:none;stroke:#231f20;stroke-width:0.5;stroke-linecap:round;stroke-linejoin:round;stroke-miterlimit:4;stroke-dasharray:2.8, 1.8;stroke-dashoffset:0;stroke-opacity:1"
       id="path43738" />
    <path
       d="m 608.202,585.235 c -2.039,-4.033 -7.233,-15.87 -25.34,-27.361"
       style="fill:none;stroke:#231f20;stroke-width:0.5;stroke-linecap:round;stroke-linejoin:round;stroke-miterlimit:4;stroke-dasharray:2.8, 1.8;stroke-dashoffset:0;stroke-opacity:1"
       id="path43740" />
    <path
       d="m 582.862,557.874 c 5.138,0.699 7.979,-1.744 9.372,-4.53 1.392,-2.785 4.875,-8.009 3.134,-10.795 -1.742,-2.785 -5.92,-6.964 -8.705,-3.133 -2.787,3.831 -5.224,8.357 -5.224,8.357"
       style="fill:none;stroke:#231f20;stroke-width:0.5;stroke-linecap:round;stroke-linejoin:round;stroke-miterlimit:4;stroke-dasharray:2.8, 1.8;stroke-dashoffset:0;stroke-opacity:1"
       id="path43742" />
    <path
       d="m 427.985,604.117 c 0,0 4.255,-7.245 7.041,-10.728"
       style="fill:none;stroke:#231f20;stroke-width:0.5;stroke-linecap:round;stroke-linejoin:round;stroke-miterlimit:4;stroke-dasharray:2.8, 1.8;stroke-dashoffset:0;stroke-opacity:1"
       id="path43744" />
    <path
       d="m 380.868,485.443 c 12.535,0 30.642,12.187 37.258,23.677"
       style="fill:none;stroke:#231f20;stroke-width:0.5;stroke-linecap:round;stroke-linejoin:round;stroke-miterlimit:4;stroke-dasharray:2.8, 1.8;stroke-dashoffset:0;stroke-opacity:1"
       id="path43746" />
    <path
       d="m 543.504,720.36 c 0.211,1.753 3.926,2.218 6.479,2.682"
       style="fill:none;stroke:#231f20;stroke-width:0.5;stroke-linecap:round;stroke-linejoin:round;stroke-miterlimit:4;stroke-dasharray:2.8, 1.8;stroke-dashoffset:0;stroke-opacity:1"
       id="path43748" />
    <path
       d="m 536.5,720.36 c -0.211,1.753 -3.926,2.218 -6.48,2.682"
       style="fill:none;stroke:#231f20;stroke-width:0.5;stroke-linecap:round;stroke-linejoin:round;stroke-miterlimit:4;stroke-dasharray:2.8, 1.8;stroke-dashoffset:0;stroke-opacity:1"
       id="path43750" />
    <path
       d="m 580.989,527.56 9.064,-7.452 c 3.151,-2.408 20.288,-22.86 43.27,-4.023"
       style="fill:none;stroke:#231f20;stroke-width:0.5;stroke-linecap:round;stroke-linejoin:round;stroke-miterlimit:4;stroke-dasharray:2.8, 1.8;stroke-dashoffset:0;stroke-opacity:1"
       id="path43752" />
    <path
       d="m 597.805,493.453 c 8.774,0.507 7.586,14.101 -3.905,23.155 -11.491,9.054 -24.878,2.437 -25.995,-2.773"
       style="fill:none;stroke:#231f20;stroke-width:0.5;stroke-linecap:round;stroke-linejoin:round;stroke-miterlimit:4;stroke-dasharray:2.8, 1.8;stroke-dashoffset:0;stroke-opacity:1"
       id="path43754" />
    <path
       d="m 499.014,527.56 -9.064,-7.452 c -3.151,-2.408 -20.287,-22.86 -43.27,-4.023"
       style="fill:none;stroke:#231f20;stroke-width:0.5;stroke-linecap:round;stroke-linejoin:round;stroke-miterlimit:4;stroke-dasharray:2.8, 1.8;stroke-dashoffset:0;stroke-opacity:1"
       id="path43756" />
    <path
       d="m 482.198,493.453 c -8.774,0.507 -7.586,14.101 3.905,23.155 11.491,9.054 24.878,2.437 25.995,-2.773"
       style="fill:none;stroke:#231f20;stroke-width:0.5;stroke-linecap:round;stroke-linejoin:round;stroke-miterlimit:4;stroke-dasharray:2.8, 1.8;stroke-dashoffset:0;stroke-opacity:1"
       id="path43758" />
  </g>
</svg>
