<?xml version="1.0" encoding="UTF-8" standalone="no"?>
<!-- Created with Inkscape (http://www.inkscape.org/) -->

<svg
   version="1.1"
   id="svg2"
   width="1440"
   height="1344"
   viewBox="0 0 1440 1344"
   xmlns="http://www.w3.org/2000/svg"
   xmlns:svg="http://www.w3.org/2000/svg">
  <defs
     id="defs6" />
  <g
     id="g8">
    <path
       d="m 833.198,621.5 c 0,-1.41 -1.143,-2.554 -2.553,-2.554 -1.41,0 -2.553,1.144 -2.553,2.554 0,1.411 1.143,2.554 2.553,2.554 1.41,0 2.553,-1.143 2.553,-2.554"
       style="fill:#ffffff;fill-opacity:1;fill-rule:nonzero;stroke:none;stroke-width:0.1"
       id="path668" />
    <path
       d="m 833.198,621.5 c 0,-1.41 -1.143,-2.554 -2.553,-2.554 -1.41,0 -2.553,1.144 -2.553,2.554 0,1.411 1.143,2.554 2.553,2.554 1.41,0 2.553,-1.143 2.553,-2.554 z"
       style="fill:none;stroke:#231f20;stroke-width:0.5;stroke-linecap:round;stroke-linejoin:round;stroke-miterlimit:4;stroke-dasharray:none;stroke-opacity:1"
       id="path670" />
    <path
       d="m 540.002,339.118 c -3.099,-5.156 -11.402,-9.99 -19.136,-11.601 -7.735,-1.61 -28.034,1.287 -41.567,5.155 -13.533,3.867 -16.757,6.766 -16.757,6.766 -1.932,0 -8.377,0.646 -11.599,0.966 -13.603,1.355 -22.557,8.703 -44.147,19.979 -21.588,11.279 -31.9,24.49 -50.267,38.99 -18.367,14.499 -29,29.323 -29,29.323 -4.834,-9.022 -16.111,4.189 -20.3,11.278 -4.188,7.09 -7.412,18.045 -12.89,33.511 -5.477,15.469 -5.477,19.334 -5.155,32.223 0.322,12.89 3.544,17.08 3.544,17.08 -9.022,-7.414 -17.723,-4.511 -25.133,-1.935 -7.41,2.579 -16.434,5.479 -27.712,7.089 -11.277,1.613 -17.723,8.056 -21.268,14.824 -3.544,6.766 -1.288,10.631 -1.288,10.631 -3.868,-2.578 -9.667,-6.441 -21.267,-12.244 -11.6,-5.8 -23.523,-7.087 -39.313,2.258 -15.789,9.344 -15.788,27.71 -12.566,40.277 3.223,12.567 16.756,14.179 16.756,14.179 0,0 -6.123,0.322 -6.768,7.734 -0.644,7.41 12.568,11.922 23.523,14.822 10.955,2.901 23.845,1.612 36.733,0.323 12.89,-1.289 24.812,-2.255 29.647,-2.9 4.834,-0.645 8.699,0 9.022,0.645 0.323,0.644 2.577,1.932 -5.801,11.277 -8.376,9.345 -22.878,13.533 -27.388,23.522 -4.511,9.989 0.643,25.778 5.8,31.901 5.156,6.122 11.921,4.511 11.921,4.511 -2.254,0.966 -5.156,2.9 -7.088,6.122 -1.933,3.222 -3.545,16.111 2.254,31.257 5.8,15.145 9.023,22.877 14.501,31.9 5.48,9.022 6.124,9.667 10.633,9.667 4.511,0 4.835,-7.733 4.835,-7.733 3.544,14.501 8.377,22.877 15.145,29.966 6.766,7.089 17.399,11.601 25.134,20.301 7.734,8.7 13.855,15.145 28.034,19.656 14.178,4.512 12.887,-1.611 12.887,-1.611 6.123,7.733 11.924,4.189 29.001,14.178 12.44,7.275 22.557,15.467 34.48,18.367 11.922,2.901 10.309,-8.056 10.309,-8.056 0.966,2.256 10.313,11.923 19.012,22.234 8.7,10.311 10.313,11.278 23.201,16.756 12.89,5.477 30.935,9.344 39.635,9.989 8.699,0.645 31.577,4.189 40.403,4.189 8.825,0 31.702,-3.544 40.402,-4.189 8.7,-0.645 26.744,-4.512 39.634,-9.989 12.889,-5.478 14.501,-6.445 23.201,-16.756 8.7,-10.311 18.046,-19.978 19.011,-22.234 0,0 -1.612,10.957 10.311,8.056 11.922,-2.9 22.039,-11.092 34.479,-18.367 17.077,-9.989 22.878,-6.445 29.001,-14.178 0,0 -1.291,6.123 12.888,1.611 14.179,-4.511 20.3,-10.956 28.033,-19.656 7.735,-8.7 18.368,-13.212 25.135,-20.301 6.767,-7.089 11.6,-15.465 15.145,-29.966 0,0 0.323,7.733 4.834,7.733 4.51,0 5.154,-0.645 10.632,-9.667 5.479,-9.023 8.702,-16.755 14.502,-31.9 5.799,-15.146 4.188,-28.035 2.255,-31.257 -1.933,-3.222 -4.835,-5.156 -7.089,-6.122 0,0 6.765,1.611 11.921,-4.511 5.158,-6.123 10.311,-21.912 5.801,-31.901 -4.511,-9.989 -19.012,-14.177 -27.39,-23.522 -8.377,-9.345 -6.122,-10.633 -5.799,-11.277 0.322,-0.645 4.187,-1.29 9.022,-0.645 4.834,0.645 16.756,1.611 29.646,2.9 12.889,1.289 25.779,2.578 36.734,-0.323 10.955,-2.9 24.167,-7.412 23.521,-14.822 -0.644,-7.412 -6.766,-7.734 -6.766,-7.734 0,0 13.532,-1.612 16.755,-14.179 3.223,-12.565 3.223,-30.933 -12.566,-40.277 -15.789,-9.345 -27.713,-8.058 -39.313,-2.257 -11.6,5.802 -17.4,9.666 -21.267,12.245 0,0 2.257,-3.866 -1.288,-10.633 -3.545,-6.767 -9.99,-13.211 -21.268,-14.822 -11.278,-1.612 -20.301,-4.512 -27.711,-7.09 -7.411,-2.577 -16.111,-5.479 -25.133,1.934 0,0 3.221,-4.189 3.543,-17.079 0.322,-12.889 0.322,-16.755 -5.155,-32.223 -5.478,-15.467 -8.702,-26.422 -12.89,-33.512 -4.188,-7.089 -15.465,-20.3 -20.3,-11.277 0,0 -10.633,-14.823 -28.999,-29.323 -18.367,-14.5 -28.679,-27.712 -50.268,-38.99 -21.589,-11.277 -30.544,-18.624 -44.146,-19.978 -3.223,-0.322 -9.667,-0.966 -11.6,-0.966 0,0 -3.224,-2.9 -16.756,-6.768 -13.534,-3.867 -33.833,-6.765 -41.568,-5.155 -7.733,1.611 -16.036,6.445 -19.134,11.601"
       style="fill:#ffffff;fill-opacity:1;fill-rule:nonzero;stroke:none;stroke-width:0.1"
       id="path672" />
    <path
       d="m 540.002,339.118 c -3.099,-5.156 -11.402,-9.99 -19.136,-11.601 -7.735,-1.61 -28.034,1.287 -41.567,5.155 -13.533,3.867 -16.757,6.766 -16.757,6.766 -1.932,0 -8.377,0.646 -11.599,0.966 -13.603,1.355 -22.557,8.703 -44.147,19.979 -21.588,11.279 -31.9,24.49 -50.267,38.99 -18.367,14.499 -29,29.323 -29,29.323 -4.834,-9.022 -16.111,4.189 -20.3,11.278 -4.188,7.09 -7.412,18.045 -12.89,33.511 -5.477,15.469 -5.477,19.334 -5.155,32.223 0.322,12.89 3.544,17.08 3.544,17.08 -9.022,-7.414 -17.723,-4.511 -25.133,-1.935 -7.41,2.579 -16.434,5.479 -27.712,7.089 -11.277,1.613 -17.723,8.056 -21.268,14.824 -3.544,6.766 -1.288,10.631 -1.288,10.631 -3.868,-2.578 -9.667,-6.441 -21.267,-12.244 -11.6,-5.8 -23.523,-7.087 -39.313,2.258 -15.789,9.344 -15.788,27.71 -12.566,40.277 3.223,12.567 16.756,14.179 16.756,14.179 0,0 -6.123,0.322 -6.768,7.734 -0.644,7.41 12.568,11.922 23.523,14.822 10.955,2.901 23.845,1.612 36.733,0.323 12.89,-1.289 24.812,-2.255 29.647,-2.9 4.834,-0.645 8.699,0 9.022,0.645 0.323,0.644 2.577,1.932 -5.801,11.277 -8.376,9.345 -22.878,13.533 -27.388,23.522 -4.511,9.989 0.643,25.778 5.8,31.901 5.156,6.122 11.921,4.511 11.921,4.511 -2.254,0.966 -5.156,2.9 -7.088,6.122 -1.933,3.222 -3.545,16.111 2.254,31.257 5.8,15.145 9.023,22.877 14.501,31.9 5.48,9.022 6.124,9.667 10.633,9.667 4.511,0 4.835,-7.733 4.835,-7.733 3.544,14.501 8.377,22.877 15.145,29.966 6.766,7.089 17.399,11.601 25.134,20.301 7.734,8.7 13.855,15.145 28.034,19.656 14.178,4.512 12.887,-1.611 12.887,-1.611 6.123,7.733 11.924,4.189 29.001,14.178 12.44,7.275 22.557,15.467 34.48,18.367 11.922,2.901 10.309,-8.056 10.309,-8.056 0.966,2.256 10.313,11.923 19.012,22.234 8.7,10.311 10.313,11.278 23.201,16.756 12.89,5.477 30.935,9.344 39.635,9.989 8.699,0.645 31.577,4.189 40.403,4.189 8.825,0 31.702,-3.544 40.402,-4.189 8.7,-0.645 26.744,-4.512 39.634,-9.989 12.889,-5.478 14.501,-6.445 23.201,-16.756 8.7,-10.311 18.046,-19.978 19.011,-22.234 0,0 -1.612,10.957 10.311,8.056 11.922,-2.9 22.039,-11.092 34.479,-18.367 17.077,-9.989 22.878,-6.445 29.001,-14.178 0,0 -1.291,6.123 12.888,1.611 14.179,-4.511 20.3,-10.956 28.033,-19.656 7.735,-8.7 18.368,-13.212 25.135,-20.301 6.767,-7.089 11.6,-15.465 15.145,-29.966 0,0 0.323,7.733 4.834,7.733 4.51,0 5.154,-0.645 10.632,-9.667 5.479,-9.023 8.702,-16.755 14.502,-31.9 5.799,-15.146 4.188,-28.035 2.255,-31.257 -1.933,-3.222 -4.835,-5.156 -7.089,-6.122 0,0 6.765,1.611 11.921,-4.511 5.158,-6.123 10.311,-21.912 5.801,-31.901 -4.511,-9.989 -19.012,-14.177 -27.39,-23.522 -8.377,-9.345 -6.122,-10.633 -5.799,-11.277 0.322,-0.645 4.187,-1.29 9.022,-0.645 4.834,0.645 16.756,1.611 29.646,2.9 12.889,1.289 25.779,2.578 36.734,-0.323 10.955,-2.9 24.167,-7.412 23.521,-14.822 -0.644,-7.412 -6.766,-7.734 -6.766,-7.734 0,0 13.532,-1.612 16.755,-14.179 3.223,-12.565 3.223,-30.933 -12.566,-40.277 -15.789,-9.345 -27.713,-8.058 -39.313,-2.257 -11.6,5.802 -17.4,9.666 -21.267,12.245 0,0 2.257,-3.866 -1.288,-10.633 -3.545,-6.767 -9.99,-13.211 -21.268,-14.822 -11.278,-1.612 -20.301,-4.512 -27.711,-7.09 -7.411,-2.577 -16.111,-5.479 -25.133,1.934 0,0 3.221,-4.189 3.543,-17.079 0.322,-12.889 0.322,-16.755 -5.155,-32.223 -5.478,-15.467 -8.702,-26.422 -12.89,-33.512 -4.188,-7.089 -15.465,-20.3 -20.3,-11.277 0,0 -10.633,-14.823 -28.999,-29.323 -18.367,-14.5 -28.679,-27.712 -50.268,-38.99 -21.589,-11.277 -30.544,-18.624 -44.146,-19.978 -3.223,-0.322 -9.667,-0.966 -11.6,-0.966 0,0 -3.224,-2.9 -16.756,-6.768 -13.534,-3.867 -33.833,-6.765 -41.568,-5.155 -7.733,1.611 -16.036,6.445 -19.134,11.601 z"
       style="fill:none;stroke:#231f20;stroke-width:0.75;stroke-linecap:round;stroke-linejoin:round;stroke-miterlimit:4;stroke-dasharray:none;stroke-opacity:1"
       id="path674" />
    <path
       d="m 378.082,429.169 c 3.83,4.527 17.361,16.094 36.91,36.214 6.802,7.001 11.816,13.954 16.366,18.804 7.068,7.533 11.466,11.517 15.67,16.366 6.205,7.157 17.411,17.41 24.375,21.938 5.578,3.625 12.884,17.062 14.973,19.5 2.089,2.437 6.616,6.616 9.75,1.045 2.377,-4.228 3.831,-8.358 11.143,-15.323 5.396,-5.138 2.786,-7.312 -3.83,-11.142 -6.616,-3.83 -18.107,-10.447 -26.465,-17.759 -8.357,-7.312 -14.276,-12.536 -14.276,-12.536 1.741,5.572 1.044,9.75 1.044,9.75 -1.741,-1.74 -11.143,-12.188 -19.5,-20.893 -8.357,-8.705 -11.492,-14.276 -20.197,-25.071 -8.705,-10.795 -29.809,-26.3 -35.729,-30.826"
       style="fill:none;stroke:#231f20;stroke-width:0.5;stroke-linecap:butt;stroke-linejoin:miter;stroke-miterlimit:4;stroke-dasharray:none;stroke-opacity:1"
       id="path676" />
    <path
       d="m 373.349,410.708 c -6.253,-3.119 -3.625,3.836 -3.625,3.836"
       style="fill:none;stroke:#231f20;stroke-width:0.5;stroke-linecap:butt;stroke-linejoin:miter;stroke-miterlimit:4;stroke-dasharray:none;stroke-opacity:1"
       id="path678" />
    <path
       d="m 706.654,410.708 c 6.252,-3.119 3.624,3.836 3.624,3.836"
       style="fill:none;stroke:#231f20;stroke-width:0.5;stroke-linecap:butt;stroke-linejoin:miter;stroke-miterlimit:4;stroke-dasharray:none;stroke-opacity:1"
       id="path680" />
    <path
       d="m 701.921,429.169 c -3.831,4.527 -17.362,16.094 -36.911,36.214 -6.802,7.001 -11.816,13.954 -16.366,18.804 -7.067,7.533 -11.465,11.517 -15.67,16.366 -6.205,7.157 -17.41,17.41 -24.375,21.938 -5.578,3.625 -12.884,17.062 -14.973,19.5 -2.089,2.437 -6.616,6.616 -9.75,1.045 -2.377,-4.228 -3.83,-8.358 -11.143,-15.323 -5.396,-5.138 -2.785,-7.312 3.831,-11.142 6.616,-3.83 18.107,-10.447 26.464,-17.759 8.357,-7.312 14.277,-12.536 14.277,-12.536 -1.741,5.572 -1.045,9.75 -1.045,9.75 1.742,-1.74 11.143,-12.188 19.5,-20.893 8.358,-8.705 11.492,-14.276 20.197,-25.071 8.706,-10.795 29.828,-26.292 35.748,-30.818"
       style="fill:none;stroke:#231f20;stroke-width:0.5;stroke-linecap:butt;stroke-linejoin:miter;stroke-miterlimit:4;stroke-dasharray:none;stroke-opacity:1"
       id="path682" />
    <path
       d="m 540.002,339.118 c 0,0 -1.742,-2.808 -4.768,-5.047 -1.832,-1.54 0.936,-6.233 4.768,-6.233 3.83,0 6.599,4.695 4.767,6.233 -3.026,2.24 -4.767,5.047 -4.767,5.047"
       style="fill:#ffffff;fill-opacity:1;fill-rule:nonzero;stroke:none;stroke-width:0.1"
       id="path684" />
    <path
       d="m 540.002,339.118 c 0,0 -1.742,-2.808 -4.768,-5.047 -1.832,-1.54 0.936,-6.233 4.768,-6.233 3.83,0 6.599,4.695 4.767,6.233 -3.026,2.24 -4.767,5.047 -4.767,5.047 z"
       style="fill:none;stroke:#231f20;stroke-width:0.5;stroke-linecap:round;stroke-linejoin:round;stroke-miterlimit:4;stroke-dasharray:none;stroke-opacity:1"
       id="path686" />
    <path
       d="m 246.804,621.5 c 0,-1.41 1.143,-2.554 2.553,-2.554 1.411,0 2.554,1.144 2.554,2.554 0,1.411 -1.143,2.554 -2.554,2.554 -1.41,0 -2.553,-1.143 -2.553,-2.554"
       style="fill:#ffffff;fill-opacity:1;fill-rule:nonzero;stroke:none;stroke-width:0.1"
       id="path688" />
    <path
       d="m 246.804,621.5 c 0,-1.41 1.143,-2.554 2.553,-2.554 1.411,0 2.554,1.144 2.554,2.554 0,1.411 -1.143,2.554 -2.554,2.554 -1.41,0 -2.553,-1.143 -2.553,-2.554 z"
       style="fill:none;stroke:#231f20;stroke-width:0.5;stroke-linecap:round;stroke-linejoin:round;stroke-miterlimit:4;stroke-dasharray:none;stroke-opacity:1"
       id="path690" />
    <path
       d="m 662.573,784.697 c -2.089,8.009 -4.527,11.142 -9.054,22.981 -4.526,11.84 -6.616,14.278 -17.062,23.331 -10.447,9.054 -27.161,16.366 -39.348,17.41 -12.188,1.045 -47.706,-0.696 -57.107,-0.696 -9.403,0 -44.92,1.741 -57.108,0.696 -12.187,-1.044 -28.902,-8.356 -39.349,-17.41 -10.446,-9.053 -12.535,-11.491 -17.062,-23.331 -4.526,-11.839 -6.964,-14.972 -9.054,-22.981 -2.089,-8.009 -1.741,-20.545 2.09,-21.241 5.65,-1.028 13.231,6.267 25.42,14.625 12.187,8.357 33.428,12.187 44.919,13.232 11.491,1.044 41.786,-1.045 50.144,-2.438 8.356,1.393 38.651,3.482 50.142,2.438 11.491,-1.045 32.732,-4.875 44.92,-13.232 12.188,-8.358 19.77,-15.653 25.42,-14.625 3.83,0.696 4.179,13.232 2.089,21.241 z m -8.705,-1.741 c -3.483,-6.965 -4.528,-7.662 -14.625,-2.787 -10.099,4.875 -35.519,19.5 -58.153,18.804 -22.633,-0.696 -36.562,-3.134 -41.088,-3.134 -4.528,0 -18.457,2.438 -41.09,3.134 -22.634,0.696 -48.054,-13.929 -58.152,-18.804 -10.098,-4.875 -11.143,-4.178 -14.625,2.787 -3.482,6.963 4.875,16.017 13.929,27.16 9.053,11.143 25.071,22.634 42.134,26.465 17.062,3.83 45.267,0.348 57.804,0.348 12.535,0 40.741,3.482 57.803,-0.348 17.063,-3.831 33.08,-15.322 42.134,-26.465 9.054,-11.143 17.411,-20.197 13.929,-27.16"
       style="fill:#d3d2d2;fill-opacity:1;fill-rule:nonzero;stroke:none;stroke-width:0.1"
       id="path692" />
    <path
       d="m 626.707,675.357 c -7.313,0.349 -24.723,-2.786 -39.348,-2.438 -14.626,0.349 -35.866,0.349 -47.357,0.349 -11.492,0 -32.733,0 -47.358,-0.349 -14.625,-0.348 -32.036,2.787 -39.349,2.438 -7.312,-0.349 -11.838,-1.393 -11.838,-5.92 0,-4.526 0.696,-6.616 10.446,-9.054 9.75,-2.437 13.58,-2.089 21.589,-6.267 8.009,-4.179 9.75,-9.054 18.107,-12.535 8.358,-3.483 21.938,-9.403 25.42,-10.099 3.482,-0.696 15.67,10e-4 22.983,10e-4 7.312,0 19.5,-0.697 22.981,-10e-4 3.482,0.696 17.063,6.616 25.42,10.099 8.357,3.481 10.099,8.356 18.107,12.535 8.009,4.178 11.839,3.83 21.589,6.267 9.75,2.438 10.447,4.528 10.447,9.054 0,4.527 -4.527,5.571 -11.839,5.92 z M 571.34,640.536 c -18.455,-3.481 -24.722,-3.481 -31.338,-3.481 -6.617,0 -12.884,0 -31.34,3.481 -18.455,3.48 -23.679,13.928 -23.679,17.41 0,3.482 13.232,3.831 20.893,3.831 7.661,0 23.679,-1.394 34.126,-1.394 10.446,0 26.463,1.394 34.124,1.394 7.661,0 20.893,-0.349 20.893,-3.831 0,-3.482 -5.223,-13.93 -23.679,-17.41"
       style="fill:#d3d2d2;fill-opacity:1;fill-rule:nonzero;stroke:none;stroke-width:0.1"
       id="path694" />
    <path
       d="m 618.698,628 c -0.349,2.437 -6.616,4.527 -8.705,5.571 -2.09,1.045 -4.528,5.223 -10.099,4.875 -5.571,-0.348 -20.892,-6.615 -28.901,-9.053 -8.01,-2.437 -21.938,-5.92 -30.991,-5.92 -9.054,0 -22.983,3.483 -30.992,5.92 -8.009,2.438 -23.331,8.705 -28.902,9.053 -5.571,0.348 -8.009,-3.83 -10.098,-4.875 -2.09,-1.044 -8.357,-3.134 -8.706,-5.571 -0.347,-2.438 -1.918,-4.876 0.172,-9.054 l 0.118,-0.336 c 1.005,-1.722 1.99,-3.528 2.845,-5.236 1.881,-3.76 4.075,-11.014 5.412,-18.116 l 0.007,-0.019 c 5.571,-4.179 16.17,-15.293 22.437,-20.516 6.269,-5.223 18.804,-6.268 22.287,-5.92 3.482,0.349 9.401,0.697 13.58,-1.392 4.178,-2.09 8.357,-3.483 11.84,-3.483 3.481,0 7.66,1.393 11.838,3.483 4.179,2.089 10.099,1.741 13.58,1.392 3.483,-0.348 16.019,0.697 22.287,5.92 6.267,5.223 16.867,16.337 22.438,20.516 l 0.007,0.019 c 1.337,7.102 3.531,14.356 5.412,18.116 0.854,1.708 1.839,3.514 2.844,5.236 l 0.119,0.336 c 2.089,4.178 0.519,6.616 0.171,9.054 z m -22.286,-7.313 c -1.393,-3.83 -14.625,-25.768 -56.41,-25.768 -41.787,0 -55.019,21.938 -56.412,25.768 -1.392,3.831 0.349,8.357 5.572,8.706 5.223,0.348 14.973,-3.831 20.545,-5.572 5.571,-1.74 20.892,-7.313 30.295,-7.313 9.401,0 24.722,5.573 30.293,7.313 5.573,1.741 15.323,5.92 20.545,5.572 5.224,-0.349 6.965,-4.875 5.572,-8.706"
       style="fill:#d3d2d2;fill-opacity:1;fill-rule:nonzero;stroke:none;stroke-width:0.1"
       id="path696" />
    <path
       d="m 686.948,676.75 c -6.268,8.009 -13.929,25.768 -17.759,42.134 -3.83,16.366 -7.661,25.768 -11.143,33.429 -3.482,7.66 -5.92,9.053 -9.053,11.143 -3.134,2.088 -20.894,13.232 -25.42,14.972 -4.527,1.741 -22.634,6.965 -33.429,8.706 -17.191,2.773 -41.089,-3.134 -50.142,-3.134 -9.054,0 -32.952,5.907 -50.144,3.134 -10.794,-1.741 -28.901,-6.965 -33.429,-8.706 -4.526,-1.74 -22.285,-12.884 -25.419,-14.972 -3.134,-2.09 -5.572,-3.483 -9.053,-11.143 -3.483,-7.661 -7.313,-17.063 -11.144,-33.429 -3.83,-16.366 -11.49,-34.125 -17.759,-42.134 -6.267,-8.009 -15.669,-17.759 -14.276,-20.197 1.392,-2.437 13.929,-4.179 30.642,4.179 16.715,8.357 23.679,14.625 28.554,21.241 4.875,6.616 15.321,5.92 20.545,4.527 5.223,-1.393 29.946,-6.616 47.357,-6.268 17.411,0.349 28.902,0.696 34.126,0.696 5.222,0 16.713,-0.347 34.124,-0.696 17.411,-0.348 42.134,4.875 47.358,6.268 5.223,1.393 15.669,2.089 20.544,-4.527 4.875,-6.616 11.84,-12.884 28.554,-21.241 16.714,-8.358 29.25,-6.616 30.643,-4.179 1.393,2.438 -8.01,12.188 -14.277,20.197 z m -11.143,-3.482 c -0.696,-2.09 -6.267,-4.527 -16.366,4.179 -10.099,8.705 -26.116,19.847 -49.446,20.892 -23.331,1.045 -52.929,0.697 -69.991,0.697 -17.063,0 -46.662,0.348 -69.992,-0.697 -23.331,-1.045 -39.348,-12.187 -49.447,-20.892 -10.098,-8.706 -15.669,-6.269 -16.365,-4.179 -0.349,1.044 1.348,4.657 2.785,9.054 1.436,4.395 2.611,9.575 3.482,13.231 1.742,7.313 10.447,27.858 14.277,40.741 3.831,12.884 12.884,21.938 25.768,28.206 12.884,6.268 25.072,10.794 43.527,12.188 18.456,1.393 41.089,-5.224 45.965,-5.224 4.874,0 27.508,6.617 45.963,5.224 18.456,-1.394 30.644,-5.92 43.528,-12.188 12.883,-6.268 21.937,-15.322 25.767,-28.206 3.83,-12.883 12.536,-33.428 14.278,-40.741 0.87,-3.656 2.044,-8.836 3.481,-13.231 1.437,-4.397 3.134,-8.01 2.786,-9.054"
       style="fill:#d3d2d2;fill-opacity:1;fill-rule:nonzero;stroke:none;stroke-width:0.1"
       id="path698" />
    <path
       d="m 763.904,595.267 c 7.66,1.626 18.455,1.741 22.981,1.045 4.528,-0.696 25.769,-7.66 33.429,-9.401 7.661,-1.742 26.812,-9.054 33.081,-13.233 6.268,-4.178 14.973,-10.446 18.455,-13.58 0,0 -4.526,6.616 -9.401,11.491 -4.875,4.875 -7.661,8.705 -6.965,10.794 0.696,2.09 6.965,7.313 8.705,9.75 0,0 -9.053,-5.222 -15.321,-4.526 -6.268,0.696 -17.759,1.741 -27.858,10.795 -10.097,9.054 -12.535,16.017 -10.097,23.679 2.437,7.66 14.276,20.543 15.321,30.99 0,0 -8.009,-8.009 -12.536,-11.143 -4.527,-3.134 -20.769,-10.368 -25.419,-3.134 -3.134,4.875 0.052,8.192 3.185,10.629 1.934,3.867 6.445,9.99 8.055,11.923 -11.655,-12.68 -16.464,-11.06 -20.294,-10.364 -3.831,0.696 -9.75,13.58 -11.143,34.821 -1.393,21.241 4.527,28.554 8.357,37.259 3.83,8.706 11.84,27.161 12.884,29.947 1.045,2.785 -0.697,2.438 -1.741,0.697 -1.044,-1.742 -6.616,-10.447 -10.447,-17.063 -3.83,-6.616 -9.75,-13.232 -14.276,-12.884 -4.527,0.348 -9.054,7.66 -13.233,15.322 -4.178,7.66 -14.386,25.199 -21.241,39.696 -5.556,11.754 -12.187,24.026 -14.276,27.509 -2.09,3.482 -3.483,3.133 -2.09,-1.045 1.394,-4.178 10.447,-24.723 16.019,-36.91 5.571,-12.188 19.151,-34.125 26.116,-43.875 6.964,-9.75 5.222,-10.795 4.526,-18.456 -0.696,-7.661 2.786,-26.464 5.572,-39 2.786,-12.536 1.392,-15.322 -7.661,-18.107 -9.053,-2.786 -25.072,3.481 -41.438,12.884 -16.365,9.401 -25.419,21.589 -36.214,50.142 -10.09,26.689 -7.661,47.358 -11.839,67.903 -4.179,20.544 -7.661,26.464 -17.76,44.222 -10.097,17.76 -28.553,26.813 -45.267,30.295 -16.714,3.483 -51.536,0.697 -64.071,0.697 -12.537,0 -47.358,2.786 -64.073,-0.697 -16.714,-3.482 -35.169,-12.535 -45.267,-30.295 -10.099,-17.758 -13.58,-23.678 -17.759,-44.222 -4.179,-20.545 -1.749,-41.214 -11.84,-67.903 -10.794,-28.553 -19.848,-40.741 -36.214,-50.142 -16.366,-9.403 -32.384,-15.67 -41.437,-12.884 -9.054,2.785 -10.447,5.571 -7.662,18.107 2.787,12.536 6.269,31.339 5.572,39 -0.696,7.661 -2.438,8.706 4.527,18.456 6.964,9.75 20.545,31.687 26.116,43.875 5.572,12.187 14.625,32.732 16.018,36.91 1.393,4.178 0,4.527 -2.089,1.045 -2.09,-3.483 -8.721,-15.755 -14.277,-27.509 -6.854,-14.497 -17.063,-32.036 -21.241,-39.696 -4.179,-7.662 -8.706,-14.974 -13.232,-15.322 -4.527,-0.348 -10.447,6.268 -14.277,12.884 -3.83,6.616 -9.402,15.321 -10.447,17.063 -1.044,1.741 -2.786,2.088 -1.741,-0.697 1.045,-2.786 9.054,-21.241 12.884,-29.947 3.831,-8.705 9.75,-16.018 8.357,-37.259 -1.392,-21.241 -7.312,-34.125 -11.142,-34.821 -3.831,-0.696 -8.639,-2.316 -20.295,10.364 1.61,-1.933 6.121,-8.056 8.056,-11.923 3.133,-2.437 6.319,-5.754 3.185,-10.629 -4.65,-7.234 -20.893,0 -25.42,3.134 -4.526,3.134 -12.536,11.143 -12.536,11.143 1.045,-10.447 12.885,-23.33 15.322,-30.99 2.438,-7.662 0,-14.625 -10.098,-23.679 -10.099,-9.054 -21.589,-10.099 -27.858,-10.795 -6.267,-0.696 -15.321,4.526 -15.321,4.526 1.741,-2.437 8.009,-7.66 8.705,-9.75 0.696,-2.089 -2.089,-5.918 -6.964,-10.794 -4.875,-4.875 -9.402,-11.491 -9.402,-11.491 3.482,3.134 12.187,9.402 18.456,13.58 6.268,4.179 25.42,11.491 33.08,13.233 7.661,1.741 28.902,8.705 33.429,9.401 4.526,0.696 15.321,0.581 22.982,-1.045 7.563,-1.603 11.491,-8.356 8.358,-14.276 -3.135,-5.92 -13.581,-8.705 -17.412,-9.402 -3.83,-0.697 -17.758,-7.312 -28.902,-11.143 -11.143,-3.83 -33.08,-8.705 -33.08,-10.098 0,-1.393 11.84,-1.393 19.152,-1.045 7.313,0.349 16.366,4.527 21.938,6.964 5.571,2.438 17.062,8.357 17.062,8.357 l 5.947,2.631 c 5.155,1.932 24.811,9.346 29.966,5.156 0.65,3.358 6.569,12.758 8.659,5.446 2.089,-7.313 1.741,-12.188 6.616,-14.277 4.875,-2.089 9.054,-2.786 9.054,-2.786 0,-2.786 0,-4.178 0.696,-6.267 0.696,-2.09 6.412,-4.77 9.054,-4.527 3.83,0.348 8.356,5.223 11.142,11.491 2.786,6.267 15.321,28.205 20.196,35.866 0.697,19.151 18.455,22.634 30.295,23.33 11.839,0.696 22.286,-5.571 22.286,-5.571 -1.741,2.09 -3.406,4.581 -5.919,8.008 -3.831,5.224 2.785,5.224 4.526,3.832 1.2,-0.96 3.556,-4.4 5.816,-8.267 l -0.073,0.257 c -2.09,4.178 -0.519,6.616 -0.172,9.054 0.349,2.437 6.616,4.527 8.706,5.571 2.089,1.045 4.527,5.223 10.098,4.875 5.571,-0.348 20.893,-6.615 28.902,-9.053 8.009,-2.437 21.938,-5.92 30.992,-5.92 9.053,0 22.981,3.483 30.991,5.92 8.009,2.438 23.33,8.705 28.901,9.053 5.571,0.348 8.009,-3.83 10.099,-4.875 2.089,-1.044 8.356,-3.134 8.705,-5.571 0.348,-2.438 1.918,-4.876 -0.171,-9.054 l -0.074,-0.257 c 2.26,3.867 4.617,7.307 5.816,8.267 1.741,1.392 8.357,1.392 4.527,-3.832 -2.513,-3.427 -4.178,-5.918 -5.92,-8.008 0,0 10.447,6.267 22.286,5.571 11.84,-0.696 29.598,-4.179 30.295,-23.33 4.875,-7.661 17.411,-29.599 20.196,-35.866 2.786,-6.268 7.312,-11.143 11.143,-11.491 2.642,-0.241 8.357,2.437 9.054,4.527 0.696,2.089 0.696,3.481 0.696,6.267 0,0 4.179,0.697 9.054,2.786 4.875,2.089 4.526,6.964 6.616,14.277 2.089,7.312 8.009,-2.09 8.658,-5.446 5.155,4.189 24.811,-3.223 29.966,-5.156 l 5.948,-2.631 c 0,0 11.491,-5.919 17.062,-8.357 5.571,-2.437 14.625,-6.615 21.938,-6.964 7.312,-0.348 19.151,-0.348 19.151,1.045 0,1.393 -21.937,6.268 -33.08,10.098 -11.143,3.831 -25.071,10.446 -28.902,11.143 -3.831,0.697 -14.277,3.482 -17.411,9.402 -3.133,5.92 0.794,12.673 8.358,14.276 z m -346.475,189.43 c 2.09,8.009 4.528,11.142 9.054,22.981 4.527,11.84 6.616,14.278 17.062,23.331 10.447,9.054 27.162,16.366 39.349,17.41 12.188,1.045 47.705,-0.696 57.108,-0.696 9.401,0 44.919,1.741 57.107,0.696 12.187,-1.044 28.901,-8.356 39.348,-17.41 10.446,-9.053 12.536,-11.491 17.062,-23.331 4.527,-11.839 6.965,-14.972 9.054,-22.981 2.09,-8.009 1.741,-20.545 -2.089,-21.241 -5.65,-1.028 -13.232,6.267 -25.42,14.625 -12.188,8.357 -33.429,12.187 -44.92,13.232 -11.491,1.044 -41.786,-1.045 -50.142,-2.438 -8.358,1.393 -38.653,3.482 -50.144,2.438 -11.491,-1.045 -32.732,-4.875 -44.919,-13.232 -12.189,-8.358 -19.77,-15.653 -25.42,-14.625 -3.831,0.696 -4.179,13.232 -2.09,21.241 z m 210.67,-124.314 c -9.75,-2.437 -13.58,-2.089 -21.589,-6.267 -8.008,-4.179 -9.75,-9.054 -18.107,-12.535 -8.357,-3.483 -21.938,-9.403 -25.42,-10.099 -3.481,-0.696 -15.669,10e-4 -22.981,10e-4 -7.313,0 -19.501,-0.697 -22.983,-10e-4 -3.482,0.696 -17.062,6.616 -25.42,10.099 -8.357,3.481 -10.098,8.356 -18.107,12.535 -8.009,4.178 -11.839,3.83 -21.589,6.267 -9.75,2.438 -10.446,4.528 -10.446,9.054 0,4.527 4.526,5.571 11.838,5.92 7.313,0.349 24.724,-2.786 39.349,-2.438 14.625,0.349 35.866,0.349 47.358,0.349 11.491,0 32.731,0 47.357,-0.349 14.625,-0.348 32.035,2.787 39.348,2.438 7.312,-0.349 11.839,-1.393 11.839,-5.92 0,-4.526 -0.697,-6.616 -10.447,-9.054 z m 73.126,-3.83 c -1.393,-2.437 -13.929,-4.179 -30.643,4.179 -16.714,8.357 -23.679,14.625 -28.554,21.241 -4.875,6.616 -15.321,5.92 -20.544,4.527 -5.224,-1.393 -29.947,-6.616 -47.358,-6.268 -17.411,0.349 -28.902,0.696 -34.124,0.696 -5.224,0 -16.715,-0.347 -34.126,-0.696 -17.411,-0.348 -42.134,4.875 -47.357,6.268 -5.224,1.393 -15.67,2.089 -20.545,-4.527 -4.875,-6.616 -11.839,-12.884 -28.554,-21.241 -16.713,-8.358 -29.25,-6.616 -30.642,-4.179 -1.393,2.438 8.009,12.188 14.276,20.197 6.269,8.009 13.929,25.768 17.759,42.134 3.831,16.366 7.661,25.768 11.144,33.429 3.481,7.66 5.919,9.053 9.053,11.143 3.134,2.088 20.893,13.232 25.419,14.972 4.528,1.741 22.635,6.965 33.429,8.706 17.192,2.773 41.09,-3.134 50.144,-3.134 9.053,0 32.951,5.907 50.142,3.134 10.795,-1.741 28.902,-6.965 33.429,-8.706 4.526,-1.74 22.286,-12.884 25.42,-14.972 3.133,-2.09 5.571,-3.483 9.053,-11.143 3.482,-7.661 7.313,-17.063 11.143,-33.429 3.83,-16.366 11.491,-34.125 17.759,-42.134 6.267,-8.009 15.67,-17.759 14.277,-20.197"
       style="fill:#b2b1b1;fill-opacity:1;fill-rule:nonzero;stroke:none;stroke-width:0.1"
       id="path700" />
    <path
       d="m 838.831,705.814 c -0.323,6.443 -4.833,12.889 -6.123,22.233 -1.289,9.345 -1.61,13.857 -4.51,13.857 -2.9,0 -4.834,-7.411 -4.834,-13.857 0,-6.444 2.578,-23.844 -4.189,-35.767 -6.765,-11.922 -14.501,-12.889 -22.878,-25.778 -7.318,-11.26 -7.412,-13.534 -13.855,-12.245 -6.443,1.289 -8.379,12.245 -7.734,20.301 0.644,8.056 2.254,24.812 16.434,43.822 14.179,19.012 18.366,28.034 13.532,43.824 -4.834,15.789 -14.261,24.783 -28.034,36.733 -14.741,12.792 -24.489,20.623 -26.744,19.012 -2.255,-1.612 0.967,-7.089 5.155,-16.756 4.188,-9.666 12.89,-32.867 14.823,-48.334 1.935,-15.467 0.644,-19.334 -6.122,-20.301 -6.765,-0.967 -11.601,9.023 -15.789,19.012 -4.188,9.989 -14.822,43.822 -17.723,52.846 -2.902,9.023 -5.8,15.789 -13.211,22.555 -7.41,6.768 -25.134,12.245 -33.191,13.211 -8.056,0.967 -0.965,-9.666 4.512,-19.333 5.478,-9.667 22.879,-37.7 33.19,-56.712 10.31,-19.011 17.401,-39.311 17.723,-53.168 0.322,-13.855 -0.322,-16.756 5.155,-28.034 5.478,-11.278 8.378,-15.467 5.156,-21.911 -3.223,-6.445 -13.212,-3.866 -27.39,4.189 -14.178,8.056 -25.134,23.201 -32.544,38.667 -7.411,15.468 -6.767,46.401 -8.056,62.19 -1.29,15.789 -7.412,31.901 -14.178,47.69 -6.768,15.789 -24.49,47.367 -34.156,57.679 -9.668,10.311 -28.679,15.467 -39.634,15.789 -10.955,0.322 -45.114,3.866 -53.614,3.866 -8.502,0 -42.66,-3.544 -53.615,-3.866 -10.955,-0.322 -29.967,-5.478 -39.634,-15.789 -9.667,-10.312 -27.389,-41.89 -34.157,-57.679 -6.766,-15.789 -12.888,-31.901 -14.177,-47.69 -1.29,-15.789 -0.646,-46.722 -8.056,-62.19 -7.411,-15.466 -18.367,-30.611 -32.545,-38.667 -14.178,-8.055 -24.167,-10.634 -27.389,-4.189 -3.222,6.444 -0.323,10.633 5.155,21.911 5.478,11.278 4.832,14.179 5.155,28.034 0.323,13.857 7.414,34.157 17.723,53.168 10.311,19.012 27.712,47.045 33.19,56.712 5.477,9.667 12.568,20.3 4.512,19.333 -8.057,-0.966 -25.781,-6.443 -33.191,-13.211 -7.41,-6.766 -10.308,-13.532 -13.21,-22.555 -2.901,-9.024 -13.536,-42.857 -17.723,-52.846 -4.189,-9.989 -9.024,-19.979 -15.79,-19.012 -6.766,0.967 -8.056,4.834 -6.123,20.301 1.935,15.467 10.636,38.668 14.825,48.334 4.187,9.667 7.41,15.144 5.154,16.756 -2.255,1.611 -12.002,-6.22 -26.744,-19.012 -13.773,-11.95 -23.2,-20.944 -28.034,-36.733 -4.834,-15.79 -0.646,-24.812 13.533,-43.824 14.179,-19.01 15.789,-35.766 16.433,-43.822 0.646,-8.056 -1.29,-19.012 -7.733,-20.301 -6.443,-1.289 -6.538,0.985 -13.855,12.245 -8.378,12.889 -16.114,13.856 -22.879,25.778 -6.766,11.923 -4.189,29.323 -4.189,35.767 0,6.446 -1.933,13.857 -4.834,13.857 -2.899,0 -3.22,-4.512 -4.511,-13.857 -1.289,-9.344 -5.799,-15.79 -6.122,-22.233 -0.322,-6.444 2.901,-14.5 11.923,-21.268 5.314,-3.985 8.377,-6.121 14.177,-11.599 5.8,-5.479 11.602,-9.667 13.212,-11.601 11.656,-12.68 16.464,-11.06 20.295,-10.364 3.83,0.696 9.75,13.58 11.142,34.821 1.393,21.241 -4.526,28.554 -8.357,37.259 -3.83,8.706 -11.839,27.161 -12.884,29.947 -1.045,2.785 0.697,2.438 1.741,0.697 1.045,-1.742 6.617,-10.447 10.447,-17.063 3.83,-6.616 9.75,-13.232 14.277,-12.884 4.526,0.348 9.053,7.66 13.232,15.322 4.178,7.66 14.387,25.199 21.241,39.696 5.556,11.754 12.187,24.026 14.277,27.509 2.089,3.482 3.482,3.133 2.089,-1.045 -1.393,-4.178 -10.446,-24.723 -16.018,-36.91 -5.571,-12.188 -19.152,-34.125 -26.116,-43.875 -6.965,-9.75 -5.223,-10.795 -4.527,-18.456 0.697,-7.661 -2.785,-26.464 -5.572,-39 -2.785,-12.536 -1.392,-15.322 7.662,-18.107 9.053,-2.786 25.071,3.481 41.437,12.884 16.366,9.401 25.42,21.589 36.214,50.142 10.091,26.689 7.661,47.358 11.84,67.903 4.179,20.544 7.66,26.464 17.759,44.222 10.098,17.76 28.553,26.813 45.267,30.295 16.715,3.483 51.536,0.697 64.073,0.697 12.535,0 47.357,2.786 64.071,-0.697 16.714,-3.482 35.17,-12.535 45.267,-30.295 10.099,-17.758 13.581,-23.678 17.76,-44.222 4.178,-20.545 1.749,-41.214 11.839,-67.903 10.795,-28.553 19.849,-40.741 36.214,-50.142 16.366,-9.403 32.385,-15.67 41.438,-12.884 9.053,2.785 10.447,5.571 7.661,18.107 -2.786,12.536 -6.268,31.339 -5.572,39 0.696,7.661 2.438,8.706 -4.526,18.456 -6.965,9.75 -20.545,31.687 -26.116,43.875 -5.572,12.187 -14.625,32.732 -16.019,36.91 -1.393,4.178 0,4.527 2.09,1.045 2.089,-3.483 8.72,-15.755 14.276,-27.509 6.855,-14.497 17.063,-32.036 21.241,-39.696 4.179,-7.662 8.706,-14.974 13.233,-15.322 4.526,-0.348 10.446,6.268 14.276,12.884 3.831,6.616 9.403,15.321 10.447,17.063 1.044,1.741 2.786,2.088 1.741,-0.697 -1.044,-2.786 -9.054,-21.241 -12.884,-29.947 -3.83,-8.705 -9.75,-16.018 -8.357,-37.259 1.393,-21.241 7.312,-34.125 11.143,-34.821 3.83,-0.696 8.639,-2.316 20.294,10.364 1.61,1.934 7.412,6.122 13.212,11.601 5.8,5.478 8.863,7.614 14.178,11.599 9.022,6.768 12.244,14.824 11.922,21.268"
       style="fill:#d3d2d2;fill-opacity:1;fill-rule:nonzero;stroke:none;stroke-width:0.1"
       id="path702" />
    <path
       d="m 770.252,442.483 c 0,-0.623 -0.5,-1.126 -1.126,-1.126 -0.623,0 -1.126,0.503 -1.126,1.126 0,0.623 0.503,1.126 1.126,1.126 0.626,0 1.126,-0.503 1.126,-1.126"
       style="fill:#231f20;fill-opacity:1;fill-rule:nonzero;stroke:none;stroke-width:0.1"
       id="path704" />
    <path
       d="m 770.84,567.255 c -5.155,1.933 -24.811,9.345 -29.966,5.156 -4.374,-3.556 7.41,-12.246 11.277,-15.789 3.867,-3.544 14.178,-14.177 19.012,-19.011 0,0 -6.767,11.277 -0.323,29.644"
       style="fill:#706d6e;fill-opacity:1;fill-rule:nonzero;stroke:none;stroke-width:0.1"
       id="path706" />
    <path
       d="m 770.84,567.255 c -5.155,1.933 -24.811,9.345 -29.966,5.156 -4.374,-3.556 7.41,-12.246 11.277,-15.789 3.867,-3.544 14.178,-14.177 19.012,-19.011 0,0 -6.767,11.277 -0.323,29.644 z"
       style="fill:none;stroke:#231f20;stroke-width:0.75;stroke-linecap:round;stroke-linejoin:round;stroke-miterlimit:4;stroke-dasharray:none;stroke-opacity:1"
       id="path708" />
    <path
       d="m 771.163,537.611 c 0,0 8.378,-8.379 16.112,-14.823"
       style="fill:none;stroke:#231f20;stroke-width:0.75;stroke-linecap:round;stroke-linejoin:round;stroke-miterlimit:4;stroke-dasharray:none;stroke-opacity:1"
       id="path710" />
    <path
       d="m 766.651,582.078 c 6.767,-1.29 32.867,-6.766 40.601,-8.056 7.734,-1.289 34.479,-5.479 55.423,-20.623"
       style="fill:none;stroke:#231f20;stroke-width:0.5;stroke-linecap:butt;stroke-linejoin:miter;stroke-miterlimit:4;stroke-dasharray:none;stroke-opacity:1"
       id="path712" />
    <path
       d="m 919.066,597.867 c -6.768,-2.255 -18.365,-6.447 -29.967,-25.779"
       style="fill:none;stroke:#231f20;stroke-width:0.5;stroke-linecap:butt;stroke-linejoin:miter;stroke-miterlimit:4;stroke-dasharray:none;stroke-opacity:1"
       id="path714" />
    <path
       d="m 843.029,690.007 c -3.553,-1.271 -11.61,-1.916 -16.12,-5.461"
       style="fill:none;stroke:#231f20;stroke-width:0.5;stroke-linecap:butt;stroke-linejoin:miter;stroke-miterlimit:4;stroke-dasharray:none;stroke-opacity:1"
       id="path716" />
    <path
       d="m 817.242,760.915 c 2.577,-11.279 1.935,-19.013 -0.644,-30.291 -2.579,-11.277 -3.809,-19.118 -13.212,-30.933 -4.416,-5.551 -11.278,-16.434 -13.534,-20.945"
       style="fill:none;stroke:#231f20;stroke-width:0.5;stroke-linecap:butt;stroke-linejoin:miter;stroke-miterlimit:4;stroke-dasharray:none;stroke-opacity:1"
       id="path718" />
    <path
       d="m 736.041,829.227 c -1.934,-6.123 0.321,-15.145 3.866,-22.234 3.545,-7.088 13.856,-30.613 13.856,-42.212"
       style="fill:none;stroke:#231f20;stroke-width:0.5;stroke-linecap:butt;stroke-linejoin:miter;stroke-miterlimit:4;stroke-dasharray:none;stroke-opacity:1"
       id="path720" />
    <path
       d="m 662.25,853.716 c 4.189,-9.344 18.045,-44.79 27.39,-61.223 9.345,-16.434 15.467,-33.19 17.4,-42.535 1.932,-9.344 1.61,-50.267 14.822,-67.345"
       style="fill:none;stroke:#231f20;stroke-width:0.5;stroke-linecap:butt;stroke-linejoin:miter;stroke-miterlimit:4;stroke-dasharray:none;stroke-opacity:1"
       id="path722" />
    <path
       d="m 922.689,584.473 c -6.615,0.348 -15.669,-9.75 -25.071,-17.062 -9.402,-7.313 -15.669,-6.269 -19.5,-3.483 -3.83,2.786 -4.527,9.054 0.348,16.366 4.875,7.313 13.929,14.277 18.108,19.5 4.178,5.223 0,8.358 -4.179,10.795 -4.179,2.438 -10.446,0.697 -21.937,-1.741 -11.492,-2.437 -28.554,-5.571 -37.26,-6.268 -6.977,-0.559 -14.625,7.313 -15.669,13.928 -1.045,6.616 -0.349,9.75 4.179,14.625 4.526,4.875 15.668,14.974 20.196,20.198 4.526,5.222 9.401,16.017 3.83,22.633 -5.571,6.617 -21.589,-3.831 -27.161,-8.008 -5.571,-4.179 -23.975,-14.094 -27.109,-16.533 -3.133,-2.437 -6.319,-5.754 -3.185,-10.629 4.65,-7.234 20.892,0 25.419,3.134 4.527,3.134 12.536,11.143 12.536,11.143 -1.045,-10.447 -12.884,-23.33 -15.321,-30.99 -2.438,-7.662 0,-14.625 10.097,-23.679 10.099,-9.054 21.59,-10.099 27.858,-10.795 6.268,-0.696 15.321,4.526 15.321,4.526 -1.74,-2.437 -8.009,-7.66 -8.705,-9.75 -0.696,-2.089 2.09,-5.919 6.965,-10.794 4.875,-4.875 9.401,-11.491 9.401,-11.491 -3.482,3.134 -12.187,9.402 -18.455,13.58 -6.269,4.179 -25.42,11.491 -33.081,13.233 -7.66,1.741 -28.901,8.705 -33.429,9.401 -4.526,0.696 -15.321,0.581 -22.981,-1.045 -7.564,-1.603 -11.491,-8.356 -8.358,-14.276 3.134,-5.92 13.58,-8.705 17.411,-9.402 3.831,-0.697 17.759,-7.312 28.902,-11.143 11.143,-3.83 33.08,-8.705 33.08,-10.098 0,-1.393 -11.839,-1.393 -19.151,-1.045 -7.313,0.349 -16.367,4.527 -21.938,6.964 -5.571,2.438 -17.062,8.357 -17.062,8.357 -2.786,-5.919 -4.875,-10.446 -1.394,-19.5 3.482,-9.053 20.894,-10.794 38.652,-10.446 17.759,0.348 39.697,3.83 41.09,12.536 1.393,8.705 -14.626,11.491 -25.072,14.277 -10.446,2.786 -30.991,7.661 -43.526,10.795 -12.536,3.133 -25.072,4.875 -25.072,9.75 0,4.875 8.009,9.401 17.063,8.356 9.053,-1.044 25.071,-7.312 33.776,-10.794 8.705,-3.482 17.411,-6.616 27.161,-7.312 9.75,-0.697 20.197,-7.662 30.643,-15.67 10.446,-8.009 18.455,-7.313 37.607,-3.483 19.152,3.831 19.849,12.188 22.286,18.456 2.438,6.268 -0.697,12.535 -7.313,12.884"
       style="fill:#d3d2d2;fill-opacity:1;fill-rule:nonzero;stroke:none;stroke-width:0.1"
       id="path724" />
    <path
       d="m 605.118,578.205 c 0,0 -6.965,-16.714 -19.5,-21.589 0,0 8.356,1.392 10.794,1.741 2.437,0.348 4.178,1.741 5.223,5.92 1.045,4.178 3.483,13.928 3.483,13.928"
       style="fill:#706d6e;fill-opacity:1;fill-rule:nonzero;stroke:none;stroke-width:0.1"
       id="path726" />
    <path
       d="m 605.118,578.205 c 0,0 -6.965,-16.714 -19.5,-21.589 0,0 8.356,1.392 10.794,1.741 2.437,0.348 4.178,1.741 5.223,5.92 1.045,4.178 3.483,13.928 3.483,13.928 z"
       style="fill:none;stroke:#231f20;stroke-width:0.75;stroke-linecap:round;stroke-linejoin:round;stroke-miterlimit:4;stroke-dasharray:none;stroke-opacity:1"
       id="path728" />
    <path
       d="m 605.118,578.205 c 0,0 2.785,4.875 3.83,7.312"
       style="fill:none;stroke:#231f20;stroke-width:0.75;stroke-linecap:round;stroke-linejoin:round;stroke-miterlimit:4;stroke-dasharray:none;stroke-opacity:1"
       id="path730" />
    <path
       d="m 552.885,550 c 3.83,2.437 11.839,3.83 17.063,4.527 5.222,0.696 10.866,1.297 15.67,2.089"
       style="fill:none;stroke:#231f20;stroke-width:0.75;stroke-linecap:round;stroke-linejoin:round;stroke-miterlimit:4;stroke-dasharray:none;stroke-opacity:1"
       id="path732" />
    <path
       d="m 742.735,417.208 c 1.819,1.99 -0.769,5.345 -3.206,2.908 -2.438,-2.438 -6.269,-6.965 -8.358,-9.054 -2.089,-2.09 0.789,-4.619 3.453,-2.06"
       style="fill:none;stroke:#231f20;stroke-width:0.5;stroke-linecap:butt;stroke-linejoin:miter;stroke-miterlimit:4;stroke-dasharray:none;stroke-opacity:1"
       id="path734" />
    <path
       d="m 675.457,597.357 c 4.875,-7.661 17.411,-29.599 20.196,-35.866 2.786,-6.268 7.312,-11.143 11.143,-11.491 2.642,-0.241 8.357,2.437 9.054,4.527 0.696,2.089 0.696,3.481 0.696,6.267"
       style="fill:none;stroke:#231f20;stroke-width:0.5;stroke-linecap:butt;stroke-linejoin:miter;stroke-miterlimit:4;stroke-dasharray:none;stroke-opacity:1"
       id="path736" />
    <path
       d="m 708.189,616.508 c 0.349,-11.491 6.268,-46.66 8.357,-55.714"
       style="fill:none;stroke:#231f20;stroke-width:0.5;stroke-linecap:butt;stroke-linejoin:miter;stroke-miterlimit:4;stroke-dasharray:none;stroke-opacity:1"
       id="path738" />
    <path
       d="m 740.874,572.411 c -0.649,3.356 -6.569,12.758 -8.658,5.446 -2.09,-7.313 -1.741,-12.188 -6.616,-14.277 -4.875,-2.089 -9.054,-2.786 -9.054,-2.786"
       style="fill:none;stroke:#231f20;stroke-width:0.5;stroke-linecap:butt;stroke-linejoin:miter;stroke-miterlimit:4;stroke-dasharray:none;stroke-opacity:1"
       id="path740" />
    <path
       d="m 608.948,585.517 c 0.348,9.054 3.83,22.286 6.616,27.857 2.785,5.572 6.964,12.188 8.705,13.582 1.741,1.392 8.357,1.392 4.527,-3.832 -2.513,-3.427 -4.178,-5.918 -5.92,-8.008 0,0 10.447,6.267 22.286,5.571 11.84,-0.696 29.598,-4.179 30.295,-23.33"
       style="fill:none;stroke:#231f20;stroke-width:0.5;stroke-linecap:butt;stroke-linejoin:miter;stroke-miterlimit:4;stroke-dasharray:none;stroke-opacity:1"
       id="path742" />
    <path
       d="m 622.876,615.116 c -3.482,-4.527 -13.58,-24.375 -13.928,-29.599"
       style="fill:none;stroke:#231f20;stroke-width:0.5;stroke-linecap:butt;stroke-linejoin:miter;stroke-miterlimit:4;stroke-dasharray:none;stroke-opacity:1"
       id="path744" />
    <path
       d="m 640.984,593.527 c 5.974,-1.536 19.339,-4.074 24.375,-3.483 5.919,0.697 10.098,4.875 10.098,7.313 0,0 -3.831,5.571 -10.098,9.401 -6.269,3.831 -19.849,6.616 -29.947,3.483 -10.098,-3.134 -21.589,-11.839 -18.455,-16.018 3.133,-4.179 11.839,2.438 24.027,-0.696 z"
       style="fill:none;stroke:#231f20;stroke-width:0.5;stroke-linecap:butt;stroke-linejoin:miter;stroke-miterlimit:4;stroke-dasharray:none;stroke-opacity:1"
       id="path746" />
    <path
       d="m 617.815,593.426 c -0.51,-3.382 -6.081,-7.56 -8.867,-7.909"
       style="fill:none;stroke:#231f20;stroke-width:0.5;stroke-linecap:butt;stroke-linejoin:miter;stroke-miterlimit:4;stroke-dasharray:none;stroke-opacity:1"
       id="path748" />
    <path
       d="m 752.473,428.697 c 2.377,4.303 7.252,11.615 -2.847,34.945"
       style="fill:none;stroke:#231f20;stroke-width:0.5;stroke-linecap:butt;stroke-linejoin:miter;stroke-miterlimit:4;stroke-dasharray:none;stroke-opacity:1"
       id="path750" />
    <path
       d="m 687.534,378.441 c -0.56,-1.978 3.415,-0.619 6.726,2.326 6.268,5.571 11.143,12.536 13.929,18.455 2.786,5.92 5.92,11.491 11.143,13.233"
       style="fill:none;stroke:#231f20;stroke-width:0.5;stroke-linecap:butt;stroke-linejoin:miter;stroke-miterlimit:4;stroke-dasharray:none;stroke-opacity:1"
       id="path752" />
    <path
       d="m 560.198,347.687 c 13.928,-3.134 28.554,1.044 37.259,-0.696"
       style="fill:none;stroke:#231f20;stroke-width:0.25;stroke-linecap:butt;stroke-linejoin:miter;stroke-miterlimit:4;stroke-dasharray:none;stroke-opacity:1"
       id="path754" />
    <path
       d="m 743.707,505.08 c 1.431,0.613 4.875,-3.482 5.919,-6.617 1.045,-3.133 1.393,-8.705 -0.696,-9.75 -2.089,-1.044 -7.661,15.323 -5.223,16.367 z"
       style="fill:none;stroke:#231f20;stroke-width:0.5;stroke-linecap:butt;stroke-linejoin:miter;stroke-miterlimit:4;stroke-dasharray:none;stroke-opacity:1"
       id="path756" />
    <path
       d="m 715.85,554.527 c 0.348,-2.786 1.741,-4.875 4.875,-5.572 3.134,-0.697 7.313,-2.438 10.446,-8.009 3.134,-5.572 18.455,-29.598 21.242,-36.214 2.785,-6.616 9.401,-34.125 12.187,-42.482 2.785,-8.358 5.081,-15.945 9.331,-20.161"
       style="fill:none;stroke:#231f20;stroke-width:0.5;stroke-linecap:butt;stroke-linejoin:miter;stroke-miterlimit:4;stroke-dasharray:none;stroke-opacity:1"
       id="path758" />
    <path
       d="m 719.202,549.463 c -3.352,0.189 -8.57,-4.682 0.13,-16.177 9.75,-12.885 16.714,-24.028 21.937,-36.912 5.224,-12.883 8.01,-25.419 8.357,-32.732 0.349,-7.312 -0.405,-16.108 -2.088,-22.285 -2.09,-7.661 -6.165,-12.055 -12.536,-18.107 -6.964,-6.617 -12.188,-9.75 -15.67,-10.795 -3.482,-1.045 -7.661,0.348 -9.054,2.089 -1.393,1.741 -7.313,10.794 -8.357,14.625 -1.045,3.831 2.438,2.438 4.527,0.697 2.09,-1.742 9.402,1.392 14.625,8.008 5.223,6.617 10.795,15.322 10.098,25.072 -0.696,9.75 -6.616,14.277 -9.402,22.634 -2.785,8.357 -5.571,28.902 -6.267,34.125 -0.697,5.223 -1.393,18.803 3.83,13.581"
       style="fill:none;stroke:#231f20;stroke-width:0.5;stroke-linecap:butt;stroke-linejoin:miter;stroke-miterlimit:4;stroke-dasharray:none;stroke-opacity:1"
       id="path760" />
    <path
       d="m 698.09,417.678 c 3.472,-2.107 10.795,-4.178 8.01,-10.098 -2.786,-5.92 -6.616,-13.58 -11.143,-11.839 -4.527,1.74 -3.831,6.964 -4.875,12.535 -1.044,5.571 -1.742,15.321 8.008,9.402 z"
       style="fill:none;stroke:#231f20;stroke-width:0.5;stroke-linecap:butt;stroke-linejoin:miter;stroke-miterlimit:4;stroke-dasharray:none;stroke-opacity:1"
       id="path762" />
    <path
       d="m 791.464,649.423 c 1.934,3.867 6.445,9.99 8.055,11.923"
       style="fill:none;stroke:#231f20;stroke-width:0.5;stroke-linecap:butt;stroke-linejoin:miter;stroke-miterlimit:4;stroke-dasharray:none;stroke-opacity:1"
       id="path764" />
    <path
       d="m 617.46,339.44 c 2.096,4.004 -0.162,8.023 -2.738,9.388 -3.995,1.12 -8.72,3.172 -12.39,4.778 -1.985,0.868 -4.202,1.99 -6.202,3.202 -13.734,3.389 -20.653,2.016 -26.531,1.325 -5.919,-0.696 -8.009,-0.696 -17.759,-3.83 -9.75,-3.135 -11.838,-9.288 -11.838,-15.185"
       style="fill:none;stroke:#231f20;stroke-width:0.5;stroke-linecap:butt;stroke-linejoin:miter;stroke-miterlimit:4;stroke-dasharray:none;stroke-opacity:1"
       id="path766" />
    <path
       d="m 309.75,442.483 c 0,-0.623 0.5,-1.126 1.126,-1.126 0.623,0 1.126,0.503 1.126,1.126 0,0.623 -0.503,1.126 -1.126,1.126 -0.626,0 -1.126,-0.503 -1.126,-1.126"
       style="fill:#231f20;fill-opacity:1;fill-rule:nonzero;stroke:none;stroke-width:0.1"
       id="path768" />
    <path
       d="m 309.162,567.255 c 5.155,1.932 24.811,9.346 29.966,5.156 4.375,-3.556 -7.41,-12.247 -11.277,-15.789 -3.867,-3.545 -14.178,-14.177 -19.012,-19.011 0,0 6.768,11.276 0.323,29.644"
       style="fill:#706d6e;fill-opacity:1;fill-rule:nonzero;stroke:none;stroke-width:0.1"
       id="path770" />
    <path
       d="m 309.162,567.255 c 5.155,1.932 24.811,9.346 29.966,5.156 4.375,-3.556 -7.41,-12.247 -11.277,-15.789 -3.867,-3.545 -14.178,-14.177 -19.012,-19.011 0,0 6.768,11.276 0.323,29.644 z"
       style="fill:none;stroke:#231f20;stroke-width:0.75;stroke-linecap:round;stroke-linejoin:round;stroke-miterlimit:4;stroke-dasharray:none;stroke-opacity:1"
       id="path772" />
    <path
       d="m 308.839,537.611 c 0,0 -8.377,-8.379 -16.111,-14.823"
       style="fill:none;stroke:#231f20;stroke-width:0.75;stroke-linecap:round;stroke-linejoin:round;stroke-miterlimit:4;stroke-dasharray:none;stroke-opacity:1"
       id="path774" />
    <path
       d="m 313.351,582.078 c -6.767,-1.29 -32.866,-6.768 -40.601,-8.057 -7.734,-1.289 -34.478,-5.479 -55.423,-20.624"
       style="fill:none;stroke:#231f20;stroke-width:0.5;stroke-linecap:butt;stroke-linejoin:miter;stroke-miterlimit:4;stroke-dasharray:none;stroke-opacity:1"
       id="path776" />
    <path
       d="m 160.937,597.867 c 6.767,-2.255 18.365,-6.447 29.967,-25.781"
       style="fill:none;stroke:#231f20;stroke-width:0.5;stroke-linecap:butt;stroke-linejoin:miter;stroke-miterlimit:4;stroke-dasharray:none;stroke-opacity:1"
       id="path778" />
    <path
       d="m 236.974,690.007 c 3.553,-1.271 11.61,-1.916 16.12,-5.461"
       style="fill:none;stroke:#231f20;stroke-width:0.5;stroke-linecap:butt;stroke-linejoin:miter;stroke-miterlimit:4;stroke-dasharray:none;stroke-opacity:1"
       id="path780" />
    <path
       d="m 262.761,760.915 c -2.578,-11.279 -1.935,-19.013 0.643,-30.291 2.579,-11.277 3.81,-19.118 13.212,-30.933 4.417,-5.551 11.279,-16.434 13.534,-20.945"
       style="fill:none;stroke:#231f20;stroke-width:0.5;stroke-linecap:butt;stroke-linejoin:miter;stroke-miterlimit:4;stroke-dasharray:none;stroke-opacity:1"
       id="path782" />
    <path
       d="m 343.961,829.227 c 1.935,-6.123 -0.321,-15.145 -3.865,-22.234 -3.545,-7.088 -13.856,-30.613 -13.856,-42.212"
       style="fill:none;stroke:#231f20;stroke-width:0.5;stroke-linecap:butt;stroke-linejoin:miter;stroke-miterlimit:4;stroke-dasharray:none;stroke-opacity:1"
       id="path784" />
    <path
       d="m 417.751,853.716 c -4.187,-9.344 -18.043,-44.79 -27.388,-61.223 -9.345,-16.434 -15.467,-33.19 -17.401,-42.535 -1.932,-9.344 -1.61,-50.267 -14.822,-67.345"
       style="fill:none;stroke:#231f20;stroke-width:0.5;stroke-linecap:butt;stroke-linejoin:miter;stroke-miterlimit:4;stroke-dasharray:none;stroke-opacity:1"
       id="path786" />
    <path
       d="m 157.313,584.473 c 6.616,0.348 15.67,-9.75 25.071,-17.062 9.403,-7.313 15.67,-6.269 19.5,-3.483 3.83,2.786 4.528,9.054 -0.347,16.366 -4.875,7.313 -13.929,14.277 -18.108,19.5 -4.179,5.223 0,8.358 4.179,10.795 4.179,2.438 10.446,0.697 21.937,-1.741 11.492,-2.437 28.554,-5.571 37.259,-6.268 6.977,-0.559 14.625,7.313 15.67,13.928 1.044,6.616 0.348,9.75 -4.179,14.625 -4.527,4.875 -15.669,14.974 -20.196,20.198 -4.527,5.222 -9.402,16.017 -3.831,22.633 5.572,6.617 21.59,-3.831 27.161,-8.008 5.571,-4.179 23.976,-14.094 27.11,-16.533 3.133,-2.437 6.319,-5.754 3.185,-10.629 -4.65,-7.234 -20.893,0 -25.42,3.134 -4.526,3.134 -12.536,11.143 -12.536,11.143 1.045,-10.447 12.885,-23.33 15.322,-30.99 2.438,-7.662 0,-14.625 -10.098,-23.679 -10.099,-9.054 -21.589,-10.099 -27.858,-10.795 -6.267,-0.696 -15.321,4.526 -15.321,4.526 1.741,-2.437 8.009,-7.66 8.705,-9.75 0.696,-2.089 -2.089,-5.918 -6.964,-10.794 -4.875,-4.875 -9.402,-11.491 -9.402,-11.491 3.482,3.134 12.187,9.402 18.456,13.58 6.268,4.179 25.42,11.491 33.08,13.233 7.661,1.741 28.902,8.705 33.429,9.401 4.526,0.696 15.321,0.581 22.982,-1.045 7.563,-1.603 11.491,-8.356 8.358,-14.276 -3.135,-5.92 -13.581,-8.705 -17.412,-9.402 -3.83,-0.697 -17.758,-7.312 -28.902,-11.143 -11.143,-3.83 -33.08,-8.705 -33.08,-10.098 0,-1.393 11.84,-1.393 19.152,-1.045 7.313,0.349 16.366,4.527 21.938,6.964 5.571,2.438 17.062,8.357 17.062,8.357 2.785,-5.919 4.875,-10.446 1.393,-19.5 -3.482,-9.053 -20.893,-10.794 -38.652,-10.446 -17.759,0.348 -39.697,3.83 -41.089,12.536 -1.393,8.705 14.625,11.491 25.071,14.277 10.446,2.786 30.991,7.661 43.527,10.795 12.535,3.133 25.072,4.876 25.072,9.75 0,4.875 -8.009,9.401 -17.063,8.356 -9.054,-1.044 -25.071,-7.312 -33.777,-10.794 -8.705,-3.481 -17.41,-6.616 -27.16,-7.312 -9.75,-0.697 -20.198,-7.662 -30.644,-15.67 -10.446,-8.009 -18.455,-7.313 -37.606,-3.483 -19.153,3.831 -19.849,12.188 -22.287,18.456 -2.437,6.268 0.697,12.535 7.313,12.884"
       style="fill:#d3d2d2;fill-opacity:1;fill-rule:nonzero;stroke:none;stroke-width:0.1"
       id="path788" />
    <path
       d="m 433.448,711.223 c 9.053,16.714 24.026,34.474 34.821,41.09 7.081,4.34 21.241,7.312 31.339,7.66 10.099,0.349 35.866,-4.875 40.394,-4.875 4.526,0 30.293,5.224 40.392,4.875 10.099,-0.348 24.258,-3.32 31.34,-7.66 10.794,-6.616 25.768,-24.376 34.821,-41.09"
       style="fill:none;stroke:#231f20;stroke-width:0.5;stroke-linecap:butt;stroke-linejoin:miter;stroke-miterlimit:4;stroke-dasharray:none;stroke-opacity:1"
       id="path790" />
    <path
       d="m 449.465,796.536 c 6.964,9.402 27.161,17.411 41.438,18.107 14.276,0.696 41.437,-1.045 49.099,-1.045 7.66,0 34.821,1.741 49.097,1.045 14.277,-0.696 34.474,-8.705 41.438,-18.107"
       style="fill:none;stroke:#231f20;stroke-width:0.5;stroke-linecap:butt;stroke-linejoin:miter;stroke-miterlimit:4;stroke-dasharray:none;stroke-opacity:1"
       id="path792" />
    <path
       d="m 540.002,585.517 c -5.224,0 -41.09,2.786 -53.278,12.885 0,0 6.965,-8.01 21.938,-11.144 14.973,-3.134 25.768,-4.178 31.34,-4.178 5.571,0 16.366,1.044 31.338,4.178 14.974,3.134 21.938,11.144 21.938,11.144 -12.188,-10.099 -48.054,-12.885 -53.276,-12.885"
       style="fill:#b2b1b1;fill-opacity:1;fill-rule:nonzero;stroke:none;stroke-width:0.1"
       id="path794" />
    <path
       d="m 552.885,550 c -4.178,-3.134 -8.357,-3.483 -12.883,-3.483 -4.528,0 -8.707,0.349 -12.884,3.483 0,0 8.705,-6.964 4.526,-17.412 0,0 8.358,-4.875 8.358,-10.446 0,5.571 8.356,10.446 8.356,10.446 -4.178,10.448 4.527,17.412 4.527,17.412"
       style="fill:#706d6e;fill-opacity:1;fill-rule:nonzero;stroke:none;stroke-width:0.1"
       id="path796" />
    <path
       d="m 552.885,550 c -4.178,-3.134 -8.357,-3.483 -12.883,-3.483 -4.528,0 -8.707,0.349 -12.884,3.483 0,0 8.705,-6.964 4.526,-17.412 0,0 8.358,-4.875 8.358,-10.446 0,5.571 8.356,10.446 8.356,10.446 -4.178,10.448 4.527,17.412 4.527,17.412 z"
       style="fill:none;stroke:#231f20;stroke-width:0.75;stroke-linecap:round;stroke-linejoin:round;stroke-miterlimit:4;stroke-dasharray:none;stroke-opacity:1"
       id="path798" />
    <path
       d="m 537.839,527.306 c -2.213,2.32 -11.07,1.452 -11.419,-6.208 -0.347,-7.661 1.742,-32.385 13.582,-42.831 11.838,10.446 13.928,35.17 13.58,42.831 -0.349,7.66 -9.206,8.529 -11.419,6.209"
       style="fill:none;stroke:#231f20;stroke-width:0.5;stroke-linecap:butt;stroke-linejoin:miter;stroke-miterlimit:4;stroke-dasharray:none;stroke-opacity:1"
       id="path800" />
    <path
       d="m 474.885,578.205 c 0,0 6.964,-16.714 19.5,-21.589 0,0 -8.357,1.392 -10.795,1.741 -2.437,0.348 -4.178,1.741 -5.223,5.92 -1.044,4.178 -3.482,13.928 -3.482,13.928"
       style="fill:#706d6e;fill-opacity:1;fill-rule:nonzero;stroke:none;stroke-width:0.1"
       id="path802" />
    <path
       d="m 474.885,578.205 c 0,0 6.964,-16.714 19.5,-21.589 0,0 -8.357,1.392 -10.795,1.741 -2.437,0.348 -4.178,1.741 -5.223,5.92 -1.044,4.178 -3.482,13.928 -3.482,13.928 z"
       style="fill:none;stroke:#231f20;stroke-width:0.75;stroke-linecap:round;stroke-linejoin:round;stroke-miterlimit:4;stroke-dasharray:none;stroke-opacity:1"
       id="path804" />
    <path
       d="m 474.885,578.205 c 0,0 -2.786,4.875 -3.831,7.312"
       style="fill:none;stroke:#231f20;stroke-width:0.75;stroke-linecap:round;stroke-linejoin:round;stroke-miterlimit:4;stroke-dasharray:none;stroke-opacity:1"
       id="path806" />
    <path
       d="m 527.118,550 c -3.831,2.437 -11.84,3.83 -17.063,4.527 -5.223,0.696 -10.867,1.297 -15.67,2.089"
       style="fill:none;stroke:#231f20;stroke-width:0.75;stroke-linecap:round;stroke-linejoin:round;stroke-miterlimit:4;stroke-dasharray:none;stroke-opacity:1"
       id="path808" />
    <path
       d="m 498.45,358.985 c 0.81,5.183 11.257,12.728 16.828,16.211 5.571,3.482 14.277,10.097 17.411,10.097 3.134,0 4.692,-2.282 7.313,-5.919 2.619,3.639 4.178,5.919 7.312,5.919 3.134,0 11.839,-6.615 17.41,-10.097 5.571,-3.483 16.019,-11.028 16.829,-16.21"
       style="fill:none;stroke:#231f20;stroke-width:0.5;stroke-linecap:butt;stroke-linejoin:miter;stroke-miterlimit:4;stroke-dasharray:none;stroke-opacity:1"
       id="path810" />
    <path
       d="m 337.268,417.208 c -1.82,1.988 0.769,5.345 3.206,2.908 2.438,-2.438 6.268,-6.965 8.358,-9.054 2.088,-2.09 -0.79,-4.619 -3.455,-2.06"
       style="fill:none;stroke:#231f20;stroke-width:0.5;stroke-linecap:butt;stroke-linejoin:miter;stroke-miterlimit:4;stroke-dasharray:none;stroke-opacity:1"
       id="path812" />
    <path
       d="m 404.545,597.357 c -4.875,-7.661 -17.41,-29.599 -20.196,-35.866 -2.786,-6.268 -7.312,-11.143 -11.142,-11.491 -2.642,-0.243 -8.358,2.437 -9.054,4.527 -0.696,2.089 -0.696,3.481 -0.696,6.267"
       style="fill:none;stroke:#231f20;stroke-width:0.5;stroke-linecap:butt;stroke-linejoin:miter;stroke-miterlimit:4;stroke-dasharray:none;stroke-opacity:1"
       id="path814" />
    <path
       d="m 371.813,616.508 c -0.348,-11.491 -6.268,-46.66 -8.356,-55.714"
       style="fill:none;stroke:#231f20;stroke-width:0.5;stroke-linecap:butt;stroke-linejoin:miter;stroke-miterlimit:4;stroke-dasharray:none;stroke-opacity:1"
       id="path816" />
    <path
       d="m 339.128,572.411 c 0.65,3.358 6.569,12.758 8.659,5.446 2.089,-7.313 1.741,-12.188 6.616,-14.277 4.875,-2.089 9.054,-2.786 9.054,-2.786"
       style="fill:none;stroke:#231f20;stroke-width:0.5;stroke-linecap:butt;stroke-linejoin:miter;stroke-miterlimit:4;stroke-dasharray:none;stroke-opacity:1"
       id="path818" />
    <path
       d="m 471.054,585.517 c -0.347,9.054 -3.83,22.286 -6.615,27.857 -2.786,5.572 -6.965,12.188 -8.706,13.582 -1.741,1.392 -8.357,1.392 -4.526,-3.832 2.513,-3.427 4.178,-5.918 5.919,-8.008 0,0 -10.447,6.267 -22.286,5.571 -11.84,-0.696 -29.598,-4.179 -30.295,-23.33"
       style="fill:none;stroke:#231f20;stroke-width:0.5;stroke-linecap:butt;stroke-linejoin:miter;stroke-miterlimit:4;stroke-dasharray:none;stroke-opacity:1"
       id="path820" />
    <path
       d="m 457.126,615.116 c 3.482,-4.527 13.581,-24.375 13.928,-29.599"
       style="fill:none;stroke:#231f20;stroke-width:0.5;stroke-linecap:butt;stroke-linejoin:miter;stroke-miterlimit:4;stroke-dasharray:none;stroke-opacity:1"
       id="path822" />
    <path
       d="m 439.019,593.527 c -5.976,-1.536 -19.34,-4.074 -24.375,-3.483 -5.92,0.697 -10.099,4.875 -10.099,7.313 0,0 3.831,5.571 10.099,9.401 6.268,3.831 19.848,6.616 29.946,3.483 10.099,-3.134 21.589,-11.839 18.455,-16.018 -3.133,-4.179 -11.838,2.438 -24.026,-0.696 z"
       style="fill:none;stroke:#231f20;stroke-width:0.5;stroke-linecap:butt;stroke-linejoin:miter;stroke-miterlimit:4;stroke-dasharray:none;stroke-opacity:1"
       id="path824" />
    <path
       d="m 462.187,593.426 c 0.511,-3.382 6.082,-7.56 8.867,-7.909"
       style="fill:none;stroke:#231f20;stroke-width:0.5;stroke-linecap:butt;stroke-linejoin:miter;stroke-miterlimit:4;stroke-dasharray:none;stroke-opacity:1"
       id="path826" />
    <path
       d="m 327.529,428.696 c -2.376,4.304 -7.251,11.616 2.847,34.946"
       style="fill:none;stroke:#231f20;stroke-width:0.5;stroke-linecap:butt;stroke-linejoin:miter;stroke-miterlimit:4;stroke-dasharray:none;stroke-opacity:1"
       id="path828" />
    <path
       d="m 392.468,378.441 c 0.561,-1.978 -3.414,-0.62 -6.726,2.326 -6.268,5.571 -11.143,12.536 -13.929,18.455 -2.785,5.92 -5.919,11.491 -11.143,13.233"
       style="fill:none;stroke:#231f20;stroke-width:0.5;stroke-linecap:butt;stroke-linejoin:miter;stroke-miterlimit:4;stroke-dasharray:none;stroke-opacity:1"
       id="path830" />
    <path
       d="m 519.805,347.687 c -13.929,-3.134 -28.554,1.044 -37.26,-0.696"
       style="fill:none;stroke:#231f20;stroke-width:0.25;stroke-linecap:butt;stroke-linejoin:miter;stroke-miterlimit:4;stroke-dasharray:none;stroke-opacity:1"
       id="path832" />
    <path
       d="m 336.295,505.08 c -1.43,0.612 -4.875,-3.482 -5.919,-6.617 -1.044,-3.133 -1.393,-8.705 0.696,-9.75 2.09,-1.044 7.661,15.323 5.223,16.367 z"
       style="fill:none;stroke:#231f20;stroke-width:0.5;stroke-linecap:butt;stroke-linejoin:miter;stroke-miterlimit:4;stroke-dasharray:none;stroke-opacity:1"
       id="path834" />
    <path
       d="m 364.153,554.527 c -0.349,-2.786 -1.741,-4.875 -4.875,-5.572 -3.134,-0.697 -7.313,-2.438 -10.446,-8.009 -3.135,-5.572 -18.456,-29.598 -21.242,-36.214 -2.786,-6.616 -9.402,-34.125 -12.187,-42.482 -2.786,-8.358 -5.082,-15.945 -9.331,-20.162"
       style="fill:none;stroke:#231f20;stroke-width:0.5;stroke-linecap:butt;stroke-linejoin:miter;stroke-miterlimit:4;stroke-dasharray:none;stroke-opacity:1"
       id="path836" />
    <path
       d="m 360.801,549.463 c 3.352,0.189 8.57,-4.684 -0.131,-16.177 -9.75,-12.885 -16.713,-24.028 -21.937,-36.912 -5.224,-12.883 -8.009,-25.419 -8.357,-32.732 -0.348,-7.312 0.405,-16.11 2.089,-22.285 2.089,-7.661 6.164,-12.055 12.535,-18.107 6.965,-6.617 12.188,-9.75 15.67,-10.795 3.483,-1.045 7.662,0.348 9.054,2.089 1.393,1.741 7.313,10.794 8.358,14.625 1.044,3.831 -2.438,2.438 -4.528,0.697 -2.089,-1.742 -9.401,1.392 -14.625,8.008 -5.222,6.617 -10.795,15.322 -10.097,25.072 0.696,9.75 6.615,14.277 9.401,22.634 2.786,8.357 5.571,28.902 6.267,34.125 0.697,5.223 1.394,18.803 -3.83,13.581"
       style="fill:none;stroke:#231f20;stroke-width:0.5;stroke-linecap:butt;stroke-linejoin:miter;stroke-miterlimit:4;stroke-dasharray:none;stroke-opacity:1"
       id="path838" />
    <path
       d="m 381.912,417.678 c -3.472,-2.108 -10.795,-4.178 -8.009,-10.098 2.785,-5.92 6.616,-13.58 11.142,-11.839 4.528,1.74 3.831,6.964 4.875,12.535 1.045,5.571 1.742,15.321 -8.008,9.402 z"
       style="fill:none;stroke:#231f20;stroke-width:0.5;stroke-linecap:butt;stroke-linejoin:miter;stroke-miterlimit:4;stroke-dasharray:none;stroke-opacity:1"
       id="path840" />
    <path
       d="m 522.126,608.267 c 7.429,-2.786 13.465,-1.856 17.876,-1.856 4.409,0 10.446,-0.93 17.875,1.856"
       style="fill:none;stroke:#231f20;stroke-width:0.5;stroke-linecap:butt;stroke-linejoin:miter;stroke-miterlimit:4;stroke-dasharray:none;stroke-opacity:1"
       id="path842" />
    <path
       d="m 288.539,649.423 c -1.935,3.867 -6.446,9.99 -8.056,11.923"
       style="fill:none;stroke:#231f20;stroke-width:0.5;stroke-linecap:butt;stroke-linejoin:miter;stroke-miterlimit:4;stroke-dasharray:none;stroke-opacity:1"
       id="path844" />
    <path
       d="m 462.542,339.438 c -2.095,4.005 0.163,8.025 2.739,9.389 3.995,1.121 8.719,3.171 12.389,4.779 1.985,0.868 4.203,1.989 6.202,3.202 13.734,3.387 20.654,2.016 26.531,1.325 5.92,-0.696 8.009,-0.696 17.759,-3.83 9.75,-3.135 11.84,-9.288 11.84,-15.185"
       style="fill:none;stroke:#231f20;stroke-width:0.5;stroke-linecap:butt;stroke-linejoin:miter;stroke-miterlimit:4;stroke-dasharray:none;stroke-opacity:1"
       id="path846" />
    <path
       d="m 280.483,661.346 c -1.61,1.934 -7.412,6.122 -13.212,11.601 -5.8,5.478 -8.863,7.614 -14.177,11.599"
       style="fill:none;stroke:#231f20;stroke-width:0.5;stroke-linecap:butt;stroke-linejoin:miter;stroke-miterlimit:4;stroke-dasharray:none;stroke-opacity:1"
       id="path848" />
    <path
       d="m 826.909,684.546 c -5.315,-3.985 -8.378,-6.121 -14.178,-11.599 -5.8,-5.479 -11.602,-9.667 -13.212,-11.601"
       style="fill:none;stroke:#231f20;stroke-width:0.5;stroke-linecap:butt;stroke-linejoin:miter;stroke-miterlimit:4;stroke-dasharray:none;stroke-opacity:1"
       id="path850" />
    <path
       d="m 581.439,513.602 c 4.875,-5.572 8.357,-17.228 -0.349,-19.665 -8.705,-2.437 -17.758,9.054 -20.892,13.232 -3.134,4.179 -8.358,12.884 -5.572,16.714 2.786,3.83 10.032,1.741 15.255,-1.392"
       style="fill:none;stroke:#231f20;stroke-width:0.5;stroke-linecap:round;stroke-linejoin:round;stroke-miterlimit:4;stroke-dasharray:2.8, 1.8;stroke-dashoffset:0;stroke-opacity:1"
       id="path852" />
    <path
       d="m 548.358,532.588 c 5.572,2.09 10.099,2.786 13.929,2.786"
       style="fill:none;stroke:#231f20;stroke-width:0.5;stroke-linecap:round;stroke-linejoin:round;stroke-miterlimit:4;stroke-dasharray:2.8, 1.8;stroke-dashoffset:0;stroke-opacity:1"
       id="path854" />
    <path
       d="m 542.824,481.235 c 2.749,-6.449 3.794,-18.638 3.794,-27.691 0,-9.053 -0.349,-34.822 0.347,-39"
       style="fill:none;stroke:#231f20;stroke-width:0.5;stroke-linecap:round;stroke-linejoin:round;stroke-miterlimit:4;stroke-dasharray:2.8, 1.8;stroke-dashoffset:0;stroke-opacity:1"
       id="path856" />
    <path
       d="m 605.369,496.762 c -0.348,-11.142 8.1,-47.614 34.216,-89.748"
       style="fill:none;stroke:#231f20;stroke-width:0.5;stroke-linecap:round;stroke-linejoin:round;stroke-miterlimit:4;stroke-dasharray:2.8, 1.8;stroke-dashoffset:0;stroke-opacity:1"
       id="path858" />
    <path
       d="m 625.873,349.574 c 5.572,-1.394 22.423,0.202 31.129,4.729 8.705,4.527 21.241,10.794 25.071,14.625 3.83,3.83 5.396,8.161 6.093,12.688"
       style="fill:none;stroke:#231f20;stroke-width:0.5;stroke-linecap:round;stroke-linejoin:round;stroke-miterlimit:4;stroke-dasharray:2.8, 1.8;stroke-dashoffset:0;stroke-opacity:1"
       id="path860" />
    <path
       d="m 628.448,505.428 c 8.705,8.009 16.017,13.233 53.973,18.108"
       style="fill:none;stroke:#231f20;stroke-width:0.5;stroke-linecap:round;stroke-linejoin:round;stroke-miterlimit:4;stroke-dasharray:2.8, 1.8;stroke-dashoffset:0;stroke-opacity:1"
       id="path862" />
    <path
       d="m 595.019,552.786 c 1.586,1.267 6.248,-0.011 9.054,-5.224 4.875,-9.054 5.571,-16.018 3.482,-17.411 -2.09,-1.393 -6.965,6.616 -9.053,11.491 -2.09,4.875 -5.224,9.75 -3.483,11.144 z"
       style="fill:none;stroke:#231f20;stroke-width:0.5;stroke-linecap:round;stroke-linejoin:round;stroke-miterlimit:4;stroke-dasharray:2.8, 1.8;stroke-dashoffset:0;stroke-opacity:1"
       id="path864" />
    <path
       d="m 579.425,535.32 c -1.816,1.796 -3.557,2.492 -0.772,7.019 2.786,4.527 7.197,12.651 10.446,12.188 2.51,-0.359 8.14,-4.683 5.115,-13.311"
       style="fill:none;stroke:#231f20;stroke-width:0.5;stroke-linecap:round;stroke-linejoin:round;stroke-miterlimit:4;stroke-dasharray:2.8, 1.8;stroke-dashoffset:0;stroke-opacity:1"
       id="path866" />
    <path
       d="m 580.037,544.563 c 1.14,1.777 1.053,4.044 -2.777,5.089 -3.83,1.044 -11.1,1.86 -16.017,-1.045 -7.661,-4.527 -3.831,-13.581 1.044,-13.233 4.875,0.349 12.341,-0.861 15.045,4.165"
       style="fill:none;stroke:#231f20;stroke-width:0.5;stroke-linecap:round;stroke-linejoin:round;stroke-miterlimit:4;stroke-dasharray:2.8, 1.8;stroke-dashoffset:0;stroke-opacity:1"
       id="path868" />
    <path
       d="m 608.348,531.293 c 6.867,6.868 32.636,28.109 40.992,35.073"
       style="fill:none;stroke:#231f20;stroke-width:0.5;stroke-linecap:round;stroke-linejoin:round;stroke-miterlimit:4;stroke-dasharray:2.8, 1.8;stroke-dashoffset:0;stroke-opacity:1"
       id="path870" />
    <path
       d="m 606.321,524.389 c 2.278,-1.898 6.805,-2.595 11.681,-2.247 4.874,0.349 16.713,0 20.892,1.394 4.179,1.392 11.144,5.919 15.321,6.964 4.179,1.044 11.492,-0.349 15.323,0.696 3.83,1.045 27.16,11.143 30.294,13.232 3.133,2.089 5.223,3.483 6.964,5.572"
       style="fill:none;stroke:#231f20;stroke-width:0.5;stroke-linecap:round;stroke-linejoin:round;stroke-miterlimit:4;stroke-dasharray:2.8, 1.8;stroke-dashoffset:0;stroke-opacity:1"
       id="path872" />
    <path
       d="m 632.626,594.378 c 2.786,-4.527 12.536,-22.441 16.714,-28.012 4.179,-5.572 12.188,-11.492 23.331,-14.974 11.143,-3.481 22.639,-5.911 28.208,-6.264"
       style="fill:none;stroke:#231f20;stroke-width:0.5;stroke-linecap:round;stroke-linejoin:round;stroke-miterlimit:4;stroke-dasharray:2.8, 1.8;stroke-dashoffset:0;stroke-opacity:1"
       id="path874" />
    <path
       d="m 613.019,587.407 c -1.037,-0.671 -0.295,-7.721 3.59,-7.461 5.223,0.348 7.263,9.3 -0.373,10.396"
       style="fill:none;stroke:#231f20;stroke-width:0.5;stroke-linecap:round;stroke-linejoin:round;stroke-miterlimit:4;stroke-dasharray:2.8, 1.8;stroke-dashoffset:0;stroke-opacity:1"
       id="path876" />
    <path
       d="m 646.903,450.062 c 4.875,1.741 11.143,-12.536 4.875,-15.321 -4.136,-1.839 -6.964,2.437 -8.705,5.571 -1.741,3.134 0.719,8.639 3.83,9.75 z"
       style="fill:none;stroke:#231f20;stroke-width:0.5;stroke-linecap:round;stroke-linejoin:round;stroke-miterlimit:4;stroke-dasharray:2.8, 1.8;stroke-dashoffset:0;stroke-opacity:1"
       id="path878" />
    <path
       d="m 715.153,528.758 c -6.964,2.786 -21.589,3.483 -32.732,-5.222 -2.917,-2.279 -5.571,-10.448 -0.696,-19.153 4.875,-8.705 8.705,-20.196 10.098,-29.946 1.392,-9.75 5.223,-35.935 13.232,-43.595"
       style="fill:none;stroke:#231f20;stroke-width:0.5;stroke-linecap:round;stroke-linejoin:round;stroke-miterlimit:4;stroke-dasharray:2.8, 1.8;stroke-dashoffset:0;stroke-opacity:1"
       id="path880" />
    <path
       d="m 730.729,571.692 c 4.273,-2.54 9.844,-10.201 4.273,-14.031"
       style="fill:none;stroke:#231f20;stroke-width:0.5;stroke-linecap:round;stroke-linejoin:round;stroke-miterlimit:4;stroke-dasharray:2.8, 1.8;stroke-dashoffset:0;stroke-opacity:1"
       id="path882" />
    <path
       d="m 724.162,562.998 c 2.134,-4.293 5.617,-6.731 12.581,-5.337 6.964,1.392 10.098,-2.438 16.017,-8.358 5.92,-5.92 27.034,-26.78 37.369,-35.502"
       style="fill:none;stroke:#231f20;stroke-width:0.5;stroke-linecap:round;stroke-linejoin:round;stroke-miterlimit:4;stroke-dasharray:2.8, 1.8;stroke-dashoffset:0;stroke-opacity:1"
       id="path884" />
    <path
       d="m 724.162,562.998 c 0.29,-4.468 1.786,-11.257 3.179,-17.177"
       style="fill:none;stroke:#231f20;stroke-width:0.5;stroke-linecap:round;stroke-linejoin:round;stroke-miterlimit:4;stroke-dasharray:2.8, 1.8;stroke-dashoffset:0;stroke-opacity:1"
       id="path886" />
    <path
       d="m 715.502,519.705 c -3.831,2.786 -14.277,9.053 -13.581,-2.438 0.697,-11.491 4.821,-26.072 -9.951,-43.852"
       style="fill:none;stroke:#231f20;stroke-width:0.5;stroke-linecap:round;stroke-linejoin:round;stroke-miterlimit:4;stroke-dasharray:2.8, 1.8;stroke-dashoffset:0;stroke-opacity:1"
       id="path888" />
    <path
       d="m 647.948,415.241 c 1.045,-3.134 17.759,2.089 16.715,5.571 -1.045,3.482 -17.76,-2.438 -16.715,-5.571 z"
       style="fill:none;stroke:#231f20;stroke-width:0.5;stroke-linecap:round;stroke-linejoin:round;stroke-miterlimit:4;stroke-dasharray:2.8, 1.8;stroke-dashoffset:0;stroke-opacity:1"
       id="path890" />
    <path
       d="m 664.528,419.823 c 4.312,0.293 12.322,0.293 15.107,-3.19"
       style="fill:none;stroke:#231f20;stroke-width:0.5;stroke-linecap:round;stroke-linejoin:round;stroke-miterlimit:4;stroke-dasharray:2.8, 1.8;stroke-dashoffset:0;stroke-opacity:1"
       id="path892" />
    <path
       d="m 648.76,414.525 c -4.295,-2.418 -17.875,-15.054 -25.187,-25.151"
       style="fill:none;stroke:#231f20;stroke-width:0.5;stroke-linecap:round;stroke-linejoin:round;stroke-miterlimit:4;stroke-dasharray:2.8, 1.8;stroke-dashoffset:0;stroke-opacity:1"
       id="path894" />
    <path
       d="m 660.832,383.553 c -1.393,3.83 -2.438,18.107 1.393,22.982 3.83,4.875 12.188,9.75 17.41,10.098 5.224,0.349 7.894,-3.25 10.07,-5.937"
       style="fill:none;stroke:#231f20;stroke-width:0.5;stroke-linecap:round;stroke-linejoin:round;stroke-miterlimit:4;stroke-dasharray:2.8, 1.8;stroke-dashoffset:0;stroke-opacity:1"
       id="path896" />
    <path
       d="m 659.696,390.559 c -2.346,5.182 -6.177,10.404 -13.141,7.271 -6.965,-3.134 -4.179,-8.009 -3.831,-9.75 0.349,-1.742 3.135,-16.018 5.572,-19.5 2.438,-3.483 5.919,-8.358 12.884,-4.875 6.964,3.482 16.018,10.098 17.063,14.625 0,0 3.83,-2.089 7.312,0.696 3.483,2.786 7.891,10.162 8.358,11.84 0.58,2.089 -0.449,5.706 -0.449,5.706"
       style="fill:none;stroke:#231f20;stroke-width:0.5;stroke-linecap:round;stroke-linejoin:round;stroke-miterlimit:4;stroke-dasharray:2.8, 1.8;stroke-dashoffset:0;stroke-opacity:1"
       id="path898" />
    <path
       d="m 675.457,398.874 c 0,0 3.482,-14.277 2.786,-20.544"
       style="fill:none;stroke:#231f20;stroke-width:0.5;stroke-linecap:round;stroke-linejoin:round;stroke-miterlimit:4;stroke-dasharray:2.8, 1.8;stroke-dashoffset:0;stroke-opacity:1"
       id="path900" />
    <path
       d="m 641.99,390.859 c -0.099,1.049 -3.792,3.488 -9.364,2.096 -5.571,-1.393 -6.616,-0.349 -11.142,-5.92 -4.527,-5.572 -10.447,-11.143 -6.965,-16.714 3.483,-5.571 8.357,-10.795 14.625,-12.884 6.268,-2.09 13.232,1.393 13.232,4.526 0,3.134 2.022,18.252 1.5,20.647"
       style="fill:none;stroke:#231f20;stroke-width:0.5;stroke-linecap:round;stroke-linejoin:round;stroke-miterlimit:4;stroke-dasharray:2.8, 1.8;stroke-dashoffset:0;stroke-opacity:1"
       id="path902" />
    <path
       d="m 642.376,361.963 c -0.617,-1.665 5.224,-6.963 5.224,7.869"
       style="fill:none;stroke:#231f20;stroke-width:0.5;stroke-linecap:round;stroke-linejoin:round;stroke-miterlimit:4;stroke-dasharray:2.8, 1.8;stroke-dashoffset:0;stroke-opacity:1"
       id="path904" />
    <path
       d="m 614.722,348.828 c 2.115,-0.6 3.916,-0.914 5.368,-0.793 4.179,0.348 9.054,1.741 5.92,5.571 -3.134,3.831 -2.663,4.922 -3.072,7.162"
       style="fill:none;stroke:#231f20;stroke-width:0.5;stroke-linecap:round;stroke-linejoin:round;stroke-miterlimit:4;stroke-dasharray:2.8, 1.8;stroke-dashoffset:0;stroke-opacity:1"
       id="path906" />
    <path
       d="m 614.519,370.321 c -0.606,1.208 -3.83,2.785 -6.267,-0.349 -2.438,-3.134 -5.224,-2.089 -9.403,-2.785 -4.178,-0.696 -8.112,-1.71 -8.705,-3.831 -0.516,-1.842 2.443,-4.38 5.986,-6.548"
       style="fill:none;stroke:#231f20;stroke-width:0.5;stroke-linecap:round;stroke-linejoin:round;stroke-miterlimit:4;stroke-dasharray:2.8, 1.8;stroke-dashoffset:0;stroke-opacity:1"
       id="path908" />
    <path
       d="m 498.564,513.6 c -4.875,-5.571 -8.357,-17.226 0.348,-19.663 8.706,-2.437 17.758,9.054 20.893,13.232 3.134,4.179 8.357,12.884 5.571,16.714 -2.786,3.83 -10.032,1.741 -15.254,-1.392"
       style="fill:none;stroke:#231f20;stroke-width:0.5;stroke-linecap:round;stroke-linejoin:round;stroke-miterlimit:4;stroke-dasharray:2.8, 1.8;stroke-dashoffset:0;stroke-opacity:1"
       id="path910" />
    <path
       d="m 531.644,532.588 c -5.571,2.09 -10.099,2.786 -13.929,2.786"
       style="fill:none;stroke:#231f20;stroke-width:0.5;stroke-linecap:round;stroke-linejoin:round;stroke-miterlimit:4;stroke-dasharray:2.8, 1.8;stroke-dashoffset:0;stroke-opacity:1"
       id="path912" />
    <path
       d="m 537.179,481.235 c -2.749,-6.449 -3.794,-18.638 -3.794,-27.691 0,-9.053 0.348,-34.822 -0.348,-39"
       style="fill:none;stroke:#231f20;stroke-width:0.5;stroke-linecap:round;stroke-linejoin:round;stroke-miterlimit:4;stroke-dasharray:2.8, 1.8;stroke-dashoffset:0;stroke-opacity:1"
       id="path914" />
    <path
       d="m 479.76,367.367 c 5.919,16.017 36.91,39.516 44.223,43.695 7.312,4.179 12.536,3.482 16.019,3.482 3.481,0 8.705,0.697 16.017,-3.482 7.313,-4.179 38.304,-27.677 44.224,-43.694"
       style="fill:none;stroke:#231f20;stroke-width:0.5;stroke-linecap:round;stroke-linejoin:round;stroke-miterlimit:4;stroke-dasharray:2.8, 1.8;stroke-dashoffset:8.06631;stroke-opacity:1"
       id="path916" />
    <path
       d="m 504.832,367.535 c -3.134,7.312 8.008,17.411 16.713,24.723 8.707,7.313 14.278,6.268 18.457,6.268 4.178,0 9.75,1.045 18.455,-6.268 8.705,-7.312 19.848,-17.411 16.713,-24.723"
       style="fill:none;stroke:#231f20;stroke-width:0.5;stroke-linecap:round;stroke-linejoin:round;stroke-miterlimit:4;stroke-dasharray:2.8, 1.8;stroke-dashoffset:32.4726;stroke-opacity:1"
       id="path918" />
    <path
       d="m 540.002,379.374 c -2.128,-8.259 -8.009,-24.723 0,-24.723 8.008,0 2.126,16.464 0,24.723 z"
       style="fill:none;stroke:#231f20;stroke-width:0.5;stroke-linecap:round;stroke-linejoin:round;stroke-miterlimit:4;stroke-dasharray:2.8, 1.8;stroke-dashoffset:7.1913;stroke-opacity:1"
       id="path920" />
    <path
       d="m 474.633,496.761 c 0.349,-11.143 -8.099,-47.613 -34.215,-89.747"
       style="fill:none;stroke:#231f20;stroke-width:0.5;stroke-linecap:round;stroke-linejoin:round;stroke-miterlimit:4;stroke-dasharray:2.8, 1.8;stroke-dashoffset:0;stroke-opacity:1"
       id="path922" />
    <path
       d="m 454.129,349.572 c -5.571,-1.393 -22.422,0.204 -31.129,4.731 -8.705,4.527 -21.24,10.794 -25.071,14.625 -3.83,3.83 -5.395,8.161 -6.092,12.688"
       style="fill:none;stroke:#231f20;stroke-width:0.5;stroke-linecap:round;stroke-linejoin:round;stroke-miterlimit:4;stroke-dasharray:2.8, 1.8;stroke-dashoffset:0;stroke-opacity:1"
       id="path924" />
    <path
       d="m 451.554,505.428 c -8.705,8.009 -16.017,13.233 -53.972,18.108"
       style="fill:none;stroke:#231f20;stroke-width:0.5;stroke-linecap:round;stroke-linejoin:round;stroke-miterlimit:4;stroke-dasharray:2.8, 1.8;stroke-dashoffset:0;stroke-opacity:1"
       id="path926" />
    <path
       d="m 484.983,552.786 c -1.586,1.267 -6.247,-0.011 -9.054,-5.224 -4.875,-9.054 -5.571,-16.018 -3.481,-17.411 2.089,-1.393 6.964,6.616 9.053,11.491 2.089,4.875 5.223,9.75 3.482,11.144 z"
       style="fill:none;stroke:#231f20;stroke-width:0.5;stroke-linecap:round;stroke-linejoin:round;stroke-miterlimit:4;stroke-dasharray:2.8, 1.8;stroke-dashoffset:0;stroke-opacity:1"
       id="path928" />
    <path
       d="m 500.577,535.32 c 1.817,1.796 3.558,2.492 0.772,7.019 -2.785,4.527 -7.196,12.65 -10.446,12.188 -2.51,-0.36 -8.14,-4.683 -5.114,-13.312"
       style="fill:none;stroke:#231f20;stroke-width:0.5;stroke-linecap:round;stroke-linejoin:round;stroke-miterlimit:4;stroke-dasharray:2.8, 1.8;stroke-dashoffset:0;stroke-opacity:1"
       id="path930" />
    <path
       d="m 499.966,544.561 c -1.141,1.779 -1.054,4.046 2.776,5.091 3.831,1.044 11.101,1.86 16.018,-1.045 7.66,-4.527 3.83,-13.581 -1.045,-13.233 -4.875,0.349 -12.34,-0.862 -15.045,4.163"
       style="fill:none;stroke:#231f20;stroke-width:0.5;stroke-linecap:round;stroke-linejoin:round;stroke-miterlimit:4;stroke-dasharray:2.8, 1.8;stroke-dashoffset:0;stroke-opacity:1"
       id="path932" />
    <path
       d="m 471.655,531.293 c -6.868,6.868 -32.636,28.109 -40.993,35.073"
       style="fill:none;stroke:#231f20;stroke-width:0.5;stroke-linecap:round;stroke-linejoin:round;stroke-miterlimit:4;stroke-dasharray:2.8, 1.8;stroke-dashoffset:0;stroke-opacity:1"
       id="path934" />
    <path
       d="m 473.681,524.389 c -2.278,-1.898 -6.805,-2.595 -11.68,-2.247 -4.875,0.349 -16.714,0 -20.893,1.394 -4.179,1.392 -11.143,5.919 -15.321,6.964 -4.179,1.044 -11.492,-0.349 -15.322,0.696 -3.83,1.045 -27.161,11.143 -30.295,13.232 -3.133,2.089 -5.222,3.483 -6.963,5.572"
       style="fill:none;stroke:#231f20;stroke-width:0.5;stroke-linecap:round;stroke-linejoin:round;stroke-miterlimit:4;stroke-dasharray:2.8, 1.8;stroke-dashoffset:0;stroke-opacity:1"
       id="path936" />
    <path
       d="m 447.376,594.378 c -2.786,-4.527 -12.536,-22.441 -16.714,-28.012 -4.179,-5.572 -12.188,-11.492 -23.33,-14.974 -11.144,-3.481 -22.64,-5.911 -28.208,-6.265"
       style="fill:none;stroke:#231f20;stroke-width:0.5;stroke-linecap:round;stroke-linejoin:round;stroke-miterlimit:4;stroke-dasharray:2.8, 1.8;stroke-dashoffset:0;stroke-opacity:1"
       id="path938" />
    <path
       d="m 466.984,587.407 c 1.036,-0.671 0.295,-7.721 -3.59,-7.461 -5.224,0.348 -7.264,9.3 0.372,10.396"
       style="fill:none;stroke:#231f20;stroke-width:0.5;stroke-linecap:round;stroke-linejoin:round;stroke-miterlimit:4;stroke-dasharray:2.8, 1.8;stroke-dashoffset:0;stroke-opacity:1"
       id="path940" />
    <path
       d="m 433.099,450.062 c -4.875,1.741 -11.142,-12.536 -4.875,-15.321 4.137,-1.839 6.964,2.437 8.705,5.571 1.741,3.134 -0.719,8.638 -3.83,9.75 z"
       style="fill:none;stroke:#231f20;stroke-width:0.5;stroke-linecap:round;stroke-linejoin:round;stroke-miterlimit:4;stroke-dasharray:2.8, 1.8;stroke-dashoffset:0;stroke-opacity:1"
       id="path942" />
    <path
       d="m 364.849,528.758 c 6.964,2.786 21.589,3.483 32.733,-5.222 2.916,-2.281 5.571,-10.448 0.696,-19.153 -4.875,-8.705 -8.705,-20.196 -10.099,-29.946 -1.392,-9.75 -5.222,-35.948 -13.231,-43.608"
       style="fill:none;stroke:#231f20;stroke-width:0.5;stroke-linecap:round;stroke-linejoin:round;stroke-miterlimit:4;stroke-dasharray:2.8, 1.8;stroke-dashoffset:0;stroke-opacity:1"
       id="path944" />
    <path
       d="M 349.273,571.692 C 345,569.152 339.429,561.491 345,557.661"
       style="fill:none;stroke:#231f20;stroke-width:0.5;stroke-linecap:round;stroke-linejoin:round;stroke-miterlimit:4;stroke-dasharray:2.8, 1.8;stroke-dashoffset:0;stroke-opacity:1"
       id="path946" />
    <path
       d="m 355.84,562.998 c -2.133,-4.293 -5.616,-6.731 -12.581,-5.337 -6.964,1.392 -10.097,-2.438 -16.017,-8.358 -5.92,-5.92 -27.034,-26.78 -37.369,-35.502"
       style="fill:none;stroke:#231f20;stroke-width:0.5;stroke-linecap:round;stroke-linejoin:round;stroke-miterlimit:4;stroke-dasharray:2.8, 1.8;stroke-dashoffset:0;stroke-opacity:1"
       id="path948" />
    <path
       d="m 355.84,562.998 c -0.29,-4.47 -1.786,-11.257 -3.178,-17.177"
       style="fill:none;stroke:#231f20;stroke-width:0.5;stroke-linecap:round;stroke-linejoin:round;stroke-miterlimit:4;stroke-dasharray:2.8, 1.8;stroke-dashoffset:0;stroke-opacity:1"
       id="path950" />
    <path
       d="m 364.5,519.705 c 3.832,2.786 14.278,9.053 13.582,-2.438 -0.697,-11.491 -4.822,-26.072 9.951,-43.852"
       style="fill:none;stroke:#231f20;stroke-width:0.5;stroke-linecap:round;stroke-linejoin:round;stroke-miterlimit:4;stroke-dasharray:2.8, 1.8;stroke-dashoffset:0;stroke-opacity:1"
       id="path952" />
    <path
       d="m 432.054,415.241 c -1.044,-3.134 -17.759,2.089 -16.714,5.571 1.045,3.482 17.759,-2.438 16.714,-5.571 z"
       style="fill:none;stroke:#231f20;stroke-width:0.5;stroke-linecap:round;stroke-linejoin:round;stroke-miterlimit:4;stroke-dasharray:2.8, 1.8;stroke-dashoffset:0;stroke-opacity:1"
       id="path954" />
    <path
       d="m 415.475,419.822 c -4.313,0.294 -12.322,0.294 -15.108,-3.189"
       style="fill:none;stroke:#231f20;stroke-width:0.5;stroke-linecap:round;stroke-linejoin:round;stroke-miterlimit:4;stroke-dasharray:2.8, 1.8;stroke-dashoffset:0;stroke-opacity:1"
       id="path956" />
    <path
       d="m 431.243,414.525 c 4.294,-2.418 17.874,-15.055 25.186,-25.153"
       style="fill:none;stroke:#231f20;stroke-width:0.5;stroke-linecap:round;stroke-linejoin:round;stroke-miterlimit:4;stroke-dasharray:2.8, 1.8;stroke-dashoffset:0;stroke-opacity:1"
       id="path958" />
    <path
       d="m 419.17,383.553 c 1.393,3.83 2.438,18.107 -1.392,22.982 -3.83,4.875 -12.188,9.75 -17.411,10.098 -5.223,0.349 -7.893,-3.251 -10.07,-5.938"
       style="fill:none;stroke:#231f20;stroke-width:0.5;stroke-linecap:round;stroke-linejoin:round;stroke-miterlimit:4;stroke-dasharray:2.8, 1.8;stroke-dashoffset:0;stroke-opacity:1"
       id="path960" />
    <path
       d="m 420.306,390.558 c 2.347,5.183 6.177,10.405 13.142,7.272 6.964,-3.134 4.178,-8.009 3.83,-9.75 -0.349,-1.742 -3.134,-16.018 -5.571,-19.5 -2.438,-3.483 -5.92,-8.358 -12.884,-4.875 -6.965,3.482 -16.019,10.098 -17.063,14.625 0,0 -3.831,-2.089 -7.312,0.696 -3.483,2.786 -7.891,10.161 -8.358,11.84 -0.581,2.089 0.448,5.704 0.448,5.704"
       style="fill:none;stroke:#231f20;stroke-width:0.5;stroke-linecap:round;stroke-linejoin:round;stroke-miterlimit:4;stroke-dasharray:2.8, 1.8;stroke-dashoffset:0;stroke-opacity:1"
       id="path962" />
    <path
       d="m 404.545,398.874 c 0,0 -3.482,-14.277 -2.785,-20.544"
       style="fill:none;stroke:#231f20;stroke-width:0.5;stroke-linecap:round;stroke-linejoin:round;stroke-miterlimit:4;stroke-dasharray:2.8, 1.8;stroke-dashoffset:0;stroke-opacity:1"
       id="path964" />
    <path
       d="m 438.012,390.857 c 0.1,1.051 3.792,3.49 9.364,2.098 5.572,-1.393 6.616,-0.349 11.143,-5.92 4.526,-5.572 10.446,-11.143 6.964,-16.714 -3.482,-5.571 -8.357,-10.795 -14.625,-12.884 -6.268,-2.09 -13.232,1.393 -13.232,4.526 0,3.134 -2.021,18.252 -1.499,20.646"
       style="fill:none;stroke:#231f20;stroke-width:0.5;stroke-linecap:round;stroke-linejoin:round;stroke-miterlimit:4;stroke-dasharray:2.8, 1.8;stroke-dashoffset:0;stroke-opacity:1"
       id="path966" />
    <path
       d="m 437.626,361.963 c 0.618,-1.665 -5.223,-6.963 -5.223,7.868"
       style="fill:none;stroke:#231f20;stroke-width:0.5;stroke-linecap:round;stroke-linejoin:round;stroke-miterlimit:4;stroke-dasharray:2.8, 1.8;stroke-dashoffset:0;stroke-opacity:1"
       id="path968" />
    <path
       d="m 465.281,348.827 c -2.115,-0.599 -3.916,-0.914 -5.369,-0.792 -4.179,0.348 -9.054,1.741 -5.92,5.571 3.134,3.831 2.664,4.922 3.073,7.16"
       style="fill:none;stroke:#231f20;stroke-width:0.5;stroke-linecap:round;stroke-linejoin:round;stroke-miterlimit:4;stroke-dasharray:2.8, 1.8;stroke-dashoffset:0;stroke-opacity:1"
       id="path970" />
    <path
       d="m 465.483,370.321 c 0.606,1.208 3.831,2.785 6.268,-0.349 2.438,-3.134 5.223,-2.089 9.402,-2.785 4.179,-0.696 8.112,-1.711 8.705,-3.831 0.516,-1.842 -2.442,-4.38 -5.986,-6.548"
       style="fill:none;stroke:#231f20;stroke-width:0.5;stroke-linecap:round;stroke-linejoin:round;stroke-miterlimit:4;stroke-dasharray:2.8, 1.8;stroke-dashoffset:0;stroke-opacity:1"
       id="path972" />
    <path
       d="m 550.574,497.637 c 5.445,-11.709 42.356,-25.644 41.66,9.177"
       style="fill:none;stroke:#231f20;stroke-width:0.5;stroke-linecap:round;stroke-linejoin:round;stroke-miterlimit:4;stroke-dasharray:2.8, 1.8;stroke-dashoffset:0;stroke-opacity:1"
       id="path974" />
    <path
       d="m 529.428,497.637 c -5.445,-11.709 -42.355,-25.645 -41.659,9.176"
       style="fill:none;stroke:#231f20;stroke-width:0.5;stroke-linecap:round;stroke-linejoin:round;stroke-miterlimit:4;stroke-dasharray:2.8, 1.8;stroke-dashoffset:0;stroke-opacity:1"
       id="path976" />
    <path
       d="m 791.464,649.423 c 3.134,2.439 21.538,12.354 27.109,16.533 5.572,4.177 21.59,14.625 27.161,8.008 5.571,-6.616 0.696,-17.411 -3.83,-22.633 -4.528,-5.224 -15.67,-15.323 -20.196,-20.198 -4.528,-4.875 -5.224,-8.009 -4.179,-14.625 1.044,-6.615 8.692,-14.487 15.669,-13.928 8.706,0.697 25.768,3.831 37.26,6.268 11.491,2.438 17.758,4.179 21.937,1.741 4.179,-2.437 8.357,-5.572 4.179,-10.795 -4.179,-5.223 -13.233,-12.187 -18.108,-19.5 -4.875,-7.312 -4.178,-13.58 -0.348,-16.366 3.831,-2.786 10.098,-3.83 19.5,3.483 9.402,7.312 18.456,17.41 25.071,17.062 6.616,-0.349 9.751,-6.616 7.313,-12.884 -2.437,-6.268 -3.134,-14.625 -22.286,-18.456 -19.152,-3.83 -27.161,-4.526 -37.607,3.483 -10.446,8.008 -20.893,14.973 -30.643,15.67 -9.75,0.696 -18.456,3.83 -27.161,7.312 -8.705,3.482 -24.723,9.75 -33.776,10.794 -9.054,1.045 -17.063,-3.481 -17.063,-8.356 0,-4.875 12.536,-6.617 25.072,-9.75 12.535,-3.134 33.08,-8.009 43.526,-10.795 10.446,-2.786 26.465,-5.572 25.072,-14.277 -1.393,-8.706 -23.331,-12.188 -41.09,-12.536 -17.758,-0.348 -35.17,1.393 -38.652,10.446 -3.481,9.054 -1.392,13.581 1.394,19.5"
       style="fill:none;stroke:#231f20;stroke-width:0.75;stroke-linecap:round;stroke-linejoin:round;stroke-miterlimit:4;stroke-dasharray:0, 2;stroke-dashoffset:0;stroke-opacity:1"
       id="path978" />
    <path
       d="m 253.094,684.546 c -9.022,6.768 -12.245,14.824 -11.923,21.268 0.323,6.443 4.833,12.889 6.122,22.233 1.291,9.345 1.612,13.857 4.511,13.857 2.901,0 4.834,-7.411 4.834,-13.857 0,-6.444 -2.577,-23.844 4.189,-35.767 6.765,-11.922 14.501,-12.889 22.879,-25.778 7.317,-11.26 7.412,-13.534 13.855,-12.245 6.443,1.289 8.379,12.245 7.733,20.301 -0.644,8.056 -2.254,24.812 -16.433,43.822 -14.179,19.012 -18.367,28.034 -13.533,43.824 4.834,15.789 14.261,24.783 28.034,36.733 14.742,12.792 24.489,20.623 26.744,19.012 2.256,-1.612 -0.967,-7.089 -5.154,-16.756 -4.189,-9.666 -12.89,-32.867 -14.825,-48.334 -1.933,-15.467 -0.643,-19.334 6.123,-20.301 6.766,-0.967 11.601,9.023 15.79,19.012 4.187,9.989 14.822,43.822 17.723,52.846 2.902,9.023 5.8,15.789 13.21,22.555 7.41,6.768 25.134,12.245 33.191,13.211 8.056,0.967 0.965,-9.666 -4.512,-19.333 -5.478,-9.667 -22.879,-37.7 -33.19,-56.712 -10.309,-19.011 -17.4,-39.311 -17.723,-53.168 -0.323,-13.855 0.323,-16.756 -5.155,-28.034 -5.478,-11.278 -8.377,-15.467 -5.155,-21.911 3.222,-6.445 13.211,-3.866 27.389,4.189 14.178,8.056 25.134,23.201 32.545,38.667 7.41,15.468 6.766,46.401 8.056,62.19 1.289,15.789 7.411,31.901 14.177,47.69 6.768,15.789 24.49,47.367 34.157,57.679 9.667,10.311 28.679,15.467 39.634,15.789 10.955,0.322 45.113,3.866 53.615,3.866 8.5,0 42.659,-3.544 53.614,-3.866 10.955,-0.322 29.966,-5.478 39.634,-15.789 9.666,-10.312 27.388,-41.89 34.156,-57.679 6.766,-15.789 12.888,-31.901 14.178,-47.69 1.289,-15.789 0.645,-46.722 8.056,-62.19 7.41,-15.466 18.366,-30.611 32.544,-38.667 14.178,-8.055 24.167,-10.634 27.39,-4.189 3.222,6.444 0.322,10.633 -5.156,21.911 -5.477,11.278 -4.833,14.179 -5.155,28.034 -0.322,13.857 -7.413,34.157 -17.723,53.168 -10.311,19.012 -27.712,47.045 -33.19,56.712 -5.477,9.667 -12.568,20.3 -4.512,19.333 8.057,-0.966 25.781,-6.443 33.191,-13.211 7.411,-6.766 10.309,-13.532 13.211,-22.555 2.901,-9.024 13.535,-42.857 17.723,-52.846 4.188,-9.989 9.024,-19.979 15.789,-19.012 6.766,0.967 8.057,4.834 6.122,20.301 -1.933,15.467 -10.635,38.668 -14.823,48.334 -4.188,9.667 -7.41,15.144 -5.155,16.756 2.255,1.611 12.003,-6.22 26.744,-19.012 13.773,-11.95 23.2,-20.944 28.034,-36.733 4.834,-15.79 0.647,-24.812 -13.532,-43.824 -14.18,-19.01 -15.79,-35.766 -16.434,-43.822 -0.645,-8.056 1.291,-19.012 7.734,-20.301 6.443,-1.289 6.537,0.985 13.855,12.245 8.377,12.889 16.113,13.856 22.878,25.778 6.767,11.923 4.189,29.323 4.189,35.767 0,6.446 1.934,13.857 4.834,13.857 2.9,0 3.221,-4.512 4.51,-13.857 1.29,-9.344 5.8,-15.79 6.123,-22.233 0.322,-6.444 -2.9,-14.5 -11.922,-21.268"
       style="fill:none;stroke:#231f20;stroke-width:0.75;stroke-linecap:round;stroke-linejoin:round;stroke-miterlimit:4;stroke-dasharray:0, 2;stroke-dashoffset:0;stroke-opacity:1"
       id="path980" />
    <path
       d="m 540.002,699.036 c -17.063,0 -46.662,0.348 -69.992,-0.697 -23.331,-1.045 -39.348,-12.187 -49.447,-20.892 -10.098,-8.706 -15.669,-6.269 -16.365,-4.179 -0.349,1.044 1.348,4.657 2.785,9.054 1.436,4.395 2.611,9.575 3.482,13.231 1.742,7.313 10.447,27.858 14.277,40.741 3.831,12.884 12.884,21.938 25.768,28.206 12.884,6.268 25.072,10.794 43.527,12.188 18.456,1.393 41.089,-5.224 45.965,-5.224 4.874,0 27.508,6.617 45.963,5.224 18.456,-1.394 30.644,-5.92 43.528,-12.188 12.883,-6.268 21.937,-15.322 25.767,-28.206 3.83,-12.883 12.536,-33.428 14.278,-40.741 0.87,-3.656 2.044,-8.836 3.481,-13.231 1.437,-4.397 3.134,-8.01 2.786,-9.054 -0.696,-2.09 -6.267,-4.527 -16.366,4.179 -10.099,8.705 -26.116,19.847 -49.446,20.892 -23.331,1.045 -52.929,0.697 -69.991,0.697 z"
       style="fill:none;stroke:#231f20;stroke-width:0.75;stroke-linecap:round;stroke-linejoin:round;stroke-miterlimit:4;stroke-dasharray:0, 2;stroke-dashoffset:0;stroke-opacity:1"
       id="path982" />
    <path
       d="m 540.002,795.839 c -4.528,0 -18.457,2.438 -41.09,3.134 -22.634,0.696 -48.054,-13.929 -58.152,-18.804 -10.098,-4.875 -11.143,-4.178 -14.625,2.787 -3.482,6.963 4.875,16.017 13.929,27.16 9.053,11.143 25.071,22.634 42.134,26.465 17.062,3.83 45.267,0.348 57.804,0.348 12.535,0 40.741,3.482 57.803,-0.348 17.063,-3.831 33.08,-15.322 42.134,-26.465 9.054,-11.143 17.411,-20.197 13.929,-27.16 -3.483,-6.965 -4.528,-7.662 -14.625,-2.787 -10.099,4.875 -35.519,19.5 -58.153,18.804 -22.633,-0.696 -36.562,-3.134 -41.088,-3.134 z"
       style="fill:none;stroke:#231f20;stroke-width:0.75;stroke-linecap:round;stroke-linejoin:round;stroke-miterlimit:4;stroke-dasharray:0, 2;stroke-dashoffset:0;stroke-opacity:1"
       id="path984" />
    <path
       d="m 540.349,637.055 c -6.616,0 -13.231,0 -31.687,3.481 -18.455,3.48 -23.679,13.928 -23.679,17.41 0,3.482 13.232,3.831 20.893,3.831 7.661,0 23.679,-1.394 34.126,-1.394 10.446,0 26.463,1.394 34.124,1.394 7.661,0 20.893,-0.349 20.893,-3.831 0,-3.482 -5.223,-13.93 -23.679,-17.41 -18.455,-3.481 -24.375,-3.481 -30.991,-3.481 z"
       style="fill:none;stroke:#231f20;stroke-width:0.75;stroke-linecap:round;stroke-linejoin:round;stroke-miterlimit:4;stroke-dasharray:0, 2;stroke-dashoffset:0;stroke-opacity:1"
       id="path986" />
    <path
       d="m 540.002,594.919 c -41.787,0 -55.019,21.938 -56.412,25.768 -1.392,3.831 0.349,8.357 5.572,8.706 5.223,0.348 14.973,-3.831 20.545,-5.572 5.571,-1.74 20.892,-7.313 30.295,-7.313 9.401,0 24.722,5.573 30.293,7.313 5.573,1.741 15.323,5.92 20.545,5.572 5.224,-0.349 6.965,-4.875 5.572,-8.706 -1.393,-3.83 -14.625,-25.768 -56.41,-25.768 z"
       style="fill:none;stroke:#231f20;stroke-width:0.75;stroke-linecap:round;stroke-linejoin:round;stroke-miterlimit:4;stroke-dasharray:0, 2;stroke-dashoffset:0;stroke-opacity:1"
       id="path988" />
    <path
       d="m 469.858,595.239 c 5.571,-4.179 16.17,-15.293 22.437,-20.516 6.269,-5.223 18.804,-6.268 22.287,-5.92 3.482,0.349 9.401,0.697 13.58,-1.392 4.178,-2.09 8.357,-3.483 11.84,-3.483 3.481,0 7.66,1.393 11.838,3.483 4.179,2.089 10.099,1.741 13.58,1.392 3.483,-0.348 16.019,0.697 22.287,5.92 6.267,5.223 16.867,16.337 22.438,20.516"
       style="fill:none;stroke:#231f20;stroke-width:0.75;stroke-linecap:round;stroke-linejoin:round;stroke-miterlimit:4;stroke-dasharray:0, 2;stroke-dashoffset:0;stroke-opacity:1"
       id="path990" />
    <path
       d="m 288.539,649.423 c -3.134,2.439 -21.539,12.354 -27.11,16.533 -5.571,4.177 -21.589,14.625 -27.161,8.008 -5.571,-6.616 -0.696,-17.411 3.831,-22.633 4.527,-5.224 15.669,-15.323 20.196,-20.198 4.527,-4.875 5.223,-8.009 4.179,-14.625 -1.045,-6.615 -8.693,-14.487 -15.67,-13.928 -8.705,0.697 -25.767,3.831 -37.259,6.268 -11.491,2.438 -17.758,4.179 -21.937,1.741 -4.179,-2.437 -8.358,-5.572 -4.179,-10.795 4.179,-5.223 13.233,-12.187 18.108,-19.5 4.875,-7.312 4.177,-13.58 0.347,-16.366 -3.83,-2.786 -10.097,-3.83 -19.5,3.483 -9.401,7.312 -18.455,17.41 -25.071,17.062 -6.616,-0.349 -9.75,-6.616 -7.313,-12.884 2.438,-6.268 3.134,-14.625 22.287,-18.456 19.151,-3.83 27.16,-4.526 37.606,3.483 10.446,8.008 20.894,14.973 30.644,15.67 9.75,0.696 18.455,3.831 27.16,7.312 8.706,3.482 24.723,9.75 33.777,10.794 9.054,1.045 17.063,-3.481 17.063,-8.356 0,-4.874 -12.537,-6.617 -25.072,-9.75 -12.536,-3.134 -33.081,-8.009 -43.527,-10.795 -10.446,-2.786 -26.464,-5.572 -25.071,-14.277 1.392,-8.706 23.33,-12.188 41.089,-12.536 17.759,-0.348 35.17,1.393 38.652,10.446 3.482,9.054 1.392,13.581 -1.393,19.5"
       style="fill:none;stroke:#231f20;stroke-width:0.75;stroke-linecap:round;stroke-linejoin:round;stroke-miterlimit:4;stroke-dasharray:0, 2;stroke-dashoffset:0;stroke-opacity:1"
       id="path992" />
  </g>
</svg>
