<?xml version="1.0" encoding="UTF-8" standalone="no"?>
<!-- Created with Inkscape (http://www.inkscape.org/) -->

<svg
   version="1.1"
   id="svg2"
   width="1440"
   height="1344"
   viewBox="0 0 1440 1344"
   xmlns="http://www.w3.org/2000/svg"
   xmlns:svg="http://www.w3.org/2000/svg">
  <defs
     id="defs6" />
  <g
     id="g8">
    <path
       d="m 845.038,631.133 c 0.231,-0.678 2.285,-0.804 5.31,-0.174 1.19,0.784 1.417,1.366 1.044,2.438 -0.291,0.841 -1.189,1.219 -1.745,1.311 -1.367,-1.093 -5.001,-2.42 -4.609,-3.575"
       style="fill:#ffffff;fill-opacity:1;fill-rule:nonzero;stroke:none;stroke-width:0.1"
       id="path668" />
    <path
       d="m 845.038,631.133 c 0.231,-0.678 2.285,-0.804 5.31,-0.174 1.19,0.784 1.417,1.366 1.044,2.438 -0.291,0.841 -1.189,1.219 -1.745,1.311 -1.367,-1.093 -5.001,-2.42 -4.609,-3.575 z"
       style="fill:none;stroke:#231f20;stroke-width:0.5;stroke-linecap:round;stroke-linejoin:round;stroke-miterlimit:4;stroke-dasharray:none;stroke-opacity:1"
       id="path670" />
    <path
       d="m 540.002,333.759 c -7.139,0 -5.92,10.446 0,10.446 5.918,0 7.137,-10.446 0,-10.446"
       style="fill:#ffffff;fill-opacity:1;fill-rule:nonzero;stroke:none;stroke-width:0.1"
       id="path672" />
    <path
       d="m 540.002,333.759 c -7.139,0 -5.92,10.446 0,10.446 5.918,0 7.137,-10.446 0,-10.446 z"
       style="fill:none;stroke:#231f20;stroke-width:0.5;stroke-linecap:round;stroke-linejoin:round;stroke-miterlimit:4;stroke-dasharray:none;stroke-opacity:1"
       id="path674" />
    <path
       d="m 234.965,631.133 c -0.231,-0.678 -2.285,-0.804 -5.31,-0.174 -1.191,0.784 -1.418,1.366 -1.045,2.438 0.291,0.841 1.19,1.219 1.745,1.311 1.367,-1.093 5.002,-2.42 4.61,-3.575"
       style="fill:#ffffff;fill-opacity:1;fill-rule:nonzero;stroke:none;stroke-width:0.1"
       id="path676" />
    <path
       d="m 234.965,631.133 c -0.231,-0.678 -2.285,-0.804 -5.31,-0.174 -1.191,0.784 -1.418,1.366 -1.045,2.438 0.291,0.841 1.19,1.219 1.745,1.311 1.367,-1.093 5.002,-2.42 4.61,-3.575 z"
       style="fill:none;stroke:#231f20;stroke-width:0.5;stroke-linecap:round;stroke-linejoin:round;stroke-miterlimit:4;stroke-dasharray:none;stroke-opacity:1"
       id="path678" />
    <path
       d="m 540.002,344.205 c -2.438,0 -4.528,-1.742 -6.269,-3.134 -1.74,-1.393 -6.964,-6.616 -15.669,-9.75 -8.706,-3.134 -21.938,-1.045 -30.991,0.347 -9.054,1.394 -14.974,7.662 -16.019,10.099 -1.044,2.438 -2.089,4.526 -6.615,5.224 -4.527,0.696 -14.974,1.74 -24.724,6.964 -27.161,4.526 -49.795,15.321 -72.428,29.946 -22.634,14.625 -40.393,33.081 -45.965,39.349 -5.572,6.267 -10.098,13.232 -10.098,17.062 0,3.83 -0.696,17.41 -0.696,17.41 -14.278,-9.053 -20.197,28.902 -18.804,47.706 0.876,11.827 2.089,19.5 2.089,19.5 -6.268,1.045 -2.437,10.098 -2.437,10.098 -4.179,4.527 -8.009,11.143 -8.009,11.143 -1.393,-18.107 -33.08,-21.241 -42.483,-20.545 -9.401,0.697 -16.366,4.179 -26.464,12.884 -10.098,8.706 -2.786,14.974 -2.786,14.974 -17.062,-7.661 -29.946,-9.402 -35.17,-6.965 -5.222,2.438 -7.312,1.741 -7.66,-4.526 -0.348,-6.268 -3.482,-21.241 -18.804,-26.465 -15.321,-5.223 -36.214,17.062 -39,31.688 -2.786,14.625 7.313,17.759 7.313,17.759 -17.063,12.884 -9.402,36.563 -1.045,44.223 8.358,7.661 17.759,8.706 23.679,6.268 5.92,-2.437 16.714,-7.312 16.714,-7.312 -2.438,3.134 -7.313,13.231 -9.053,20.544 -1.741,7.312 2.437,11.491 10.794,12.885 8.357,1.392 20.893,0.696 28.902,0 8.009,-0.698 30.643,-6.965 33.777,-8.358 3.133,-1.392 12.187,-3.83 12.884,-2.09 0.468,1.17 -2.096,1.574 -5.92,4.528 -1.869,1.443 -4.368,4.294 -6.268,6.616 -9.401,11.491 -13.232,24.723 -13.232,29.25 0,4.526 0,7.66 4.875,13.232 4.875,5.572 9.402,1.044 9.402,1.044 -3.134,6.269 -6.268,27.509 -5.92,36.563 0.348,9.053 1.393,25.42 14.277,48.053 12.884,22.634 17.759,26.813 30.643,38.304 12.884,11.491 20.545,16.019 27.161,17.759 6.616,1.741 6.964,-2.089 6.964,-2.089 0.696,2.089 6.268,4.875 8.706,5.92 2.437,1.044 6.964,4.526 10.446,8.705 3.483,4.179 11.143,7.313 16.018,9.054 4.875,1.741 31.687,13.928 37.259,15.321 5.572,1.393 8.706,-3.134 8.706,-3.134 2.785,5.223 20.544,11.491 28.205,14.277 7.661,2.786 26.463,9.75 34.125,11.839 7.661,2.089 38.303,14.277 44.223,14.973 5.919,0.697 45.617,1.045 55.367,1.045 9.75,0 49.446,-0.348 55.366,-1.045 5.919,-0.696 36.562,-12.884 44.222,-14.973 7.662,-2.089 26.465,-9.053 34.125,-11.839 7.661,-2.786 25.42,-9.054 28.206,-14.277 0,0 3.134,4.527 8.705,3.134 5.572,-1.393 32.384,-13.58 37.259,-15.321 4.875,-1.741 12.536,-4.875 16.019,-9.054 3.481,-4.179 8.009,-7.661 10.446,-8.705 2.438,-1.045 8.009,-3.831 8.705,-5.92 0,0 0.349,3.83 6.965,2.089 6.615,-1.74 14.276,-6.268 27.16,-17.759 12.884,-11.491 17.759,-15.67 30.643,-38.304 12.885,-22.633 13.929,-39 14.277,-48.053 0.349,-9.054 -2.786,-30.294 -5.92,-36.563 0,0 4.528,4.528 9.402,-1.044 4.876,-5.572 4.876,-8.706 4.876,-13.232 0,-4.527 -3.832,-17.759 -13.233,-29.25 -1.9,-2.322 -4.399,-5.173 -6.267,-6.616 -3.825,-2.954 -6.388,-3.358 -5.92,-4.528 0.696,-1.74 9.75,0.698 12.883,2.09 3.134,1.393 25.768,7.66 33.778,8.358 8.009,0.696 20.544,1.392 28.901,0 8.358,-1.394 12.536,-5.573 10.795,-12.885 -1.741,-7.313 -6.616,-17.41 -9.054,-20.544 0,0 10.795,4.875 16.714,7.312 5.92,2.438 15.322,1.393 23.679,-6.268 8.357,-7.66 16.018,-31.339 -1.044,-44.223 0,0 10.098,-3.134 7.312,-17.759 -2.786,-14.626 -23.678,-36.911 -39,-31.688 -15.322,5.224 -18.456,20.197 -18.803,26.465 -0.349,6.267 -2.438,6.964 -7.661,4.526 -5.224,-2.437 -18.108,-0.696 -35.17,6.965 0,0 7.312,-6.268 -2.786,-14.974 -10.098,-8.705 -17.062,-12.187 -26.464,-12.884 -9.402,-0.696 -41.089,2.438 -42.483,20.545 0,0 -3.83,-6.616 -8.009,-11.143 0,0 3.832,-9.053 -2.437,-10.098 0,0 1.214,-7.673 2.09,-19.5 1.392,-18.804 -4.527,-56.759 -18.804,-47.706 0,0 -0.696,-13.58 -0.696,-17.41 0,-3.83 -4.527,-10.795 -10.099,-17.062 -5.571,-6.268 -23.33,-24.724 -45.965,-39.349 -22.633,-14.625 -45.267,-25.42 -72.428,-29.946 -9.75,-5.224 -20.197,-6.268 -24.723,-6.964 -4.527,-0.698 -5.571,-2.786 -6.616,-5.224 -1.045,-2.437 -6.964,-8.705 -16.018,-10.099 -9.054,-1.392 -22.286,-3.481 -30.991,-0.347 -8.706,3.134 -13.929,8.357 -15.67,9.75 -1.741,1.392 -3.83,3.134 -6.267,3.134"
       style="fill:#ffffff;fill-opacity:1;fill-rule:nonzero;stroke:none;stroke-width:0.1"
       id="path680" />
    <path
       d="m 540.002,344.205 c -2.438,0 -4.528,-1.742 -6.269,-3.134 -1.74,-1.393 -6.964,-6.616 -15.669,-9.75 -8.706,-3.134 -21.938,-1.045 -30.991,0.347 -9.054,1.394 -14.974,7.662 -16.019,10.099 -1.044,2.438 -2.089,4.526 -6.615,5.224 -4.527,0.696 -14.974,1.74 -24.724,6.964 -27.161,4.526 -49.795,15.321 -72.428,29.946 -22.634,14.625 -40.393,33.081 -45.965,39.349 -5.572,6.267 -10.098,13.232 -10.098,17.062 0,3.83 -0.696,17.41 -0.696,17.41 -14.278,-9.053 -20.197,28.902 -18.804,47.706 0.876,11.827 2.089,19.5 2.089,19.5 -6.268,1.045 -2.437,10.098 -2.437,10.098 -4.179,4.527 -8.009,11.143 -8.009,11.143 -1.393,-18.107 -33.08,-21.241 -42.483,-20.545 -9.401,0.697 -16.366,4.179 -26.464,12.884 -10.098,8.706 -2.786,14.974 -2.786,14.974 -17.062,-7.661 -29.946,-9.402 -35.17,-6.965 -5.222,2.438 -7.312,1.741 -7.66,-4.526 -0.348,-6.268 -3.482,-21.241 -18.804,-26.465 -15.321,-5.223 -36.214,17.062 -39,31.688 -2.786,14.625 7.313,17.759 7.313,17.759 -17.063,12.884 -9.402,36.563 -1.045,44.223 8.358,7.661 17.759,8.706 23.679,6.268 5.92,-2.437 16.714,-7.312 16.714,-7.312 -2.438,3.134 -7.313,13.231 -9.053,20.544 -1.741,7.312 2.437,11.491 10.794,12.885 8.357,1.392 20.893,0.696 28.902,0 8.009,-0.698 30.643,-6.965 33.777,-8.358 3.133,-1.392 12.187,-3.83 12.884,-2.09 0.468,1.17 -2.096,1.574 -5.92,4.528 -1.869,1.443 -4.368,4.294 -6.268,6.616 -9.401,11.491 -13.232,24.723 -13.232,29.25 0,4.526 0,7.66 4.875,13.232 4.875,5.572 9.402,1.044 9.402,1.044 -3.134,6.269 -6.268,27.509 -5.92,36.563 0.348,9.053 1.393,25.42 14.277,48.053 12.884,22.634 17.759,26.813 30.643,38.304 12.884,11.491 20.545,16.019 27.161,17.759 6.616,1.741 6.964,-2.089 6.964,-2.089 0.696,2.089 6.268,4.875 8.706,5.92 2.437,1.044 6.964,4.526 10.446,8.705 3.483,4.179 11.143,7.313 16.018,9.054 4.875,1.741 31.687,13.928 37.259,15.321 5.572,1.393 8.706,-3.134 8.706,-3.134 2.785,5.223 20.544,11.491 28.205,14.277 7.661,2.786 26.463,9.75 34.125,11.839 7.661,2.089 38.303,14.277 44.223,14.973 5.919,0.697 45.617,1.045 55.367,1.045 9.75,0 49.446,-0.348 55.366,-1.045 5.919,-0.696 36.562,-12.884 44.222,-14.973 7.662,-2.089 26.465,-9.053 34.125,-11.839 7.661,-2.786 25.42,-9.054 28.206,-14.277 0,0 3.134,4.527 8.705,3.134 5.572,-1.393 32.384,-13.58 37.259,-15.321 4.875,-1.741 12.536,-4.875 16.019,-9.054 3.481,-4.179 8.009,-7.661 10.446,-8.705 2.438,-1.045 8.009,-3.831 8.705,-5.92 0,0 0.349,3.83 6.965,2.089 6.615,-1.74 14.276,-6.268 27.16,-17.759 12.884,-11.491 17.759,-15.67 30.643,-38.304 12.885,-22.633 13.929,-39 14.277,-48.053 0.349,-9.054 -2.786,-30.294 -5.92,-36.563 0,0 4.528,4.528 9.402,-1.044 4.876,-5.572 4.876,-8.706 4.876,-13.232 0,-4.527 -3.832,-17.759 -13.233,-29.25 -1.9,-2.322 -4.399,-5.173 -6.267,-6.616 -3.825,-2.954 -6.388,-3.358 -5.92,-4.528 0.696,-1.74 9.75,0.698 12.883,2.09 3.134,1.393 25.768,7.66 33.778,8.358 8.009,0.696 20.544,1.392 28.901,0 8.358,-1.394 12.536,-5.573 10.795,-12.885 -1.741,-7.313 -6.616,-17.41 -9.054,-20.544 0,0 10.795,4.875 16.714,7.312 5.92,2.438 15.322,1.393 23.679,-6.268 8.357,-7.66 16.018,-31.339 -1.044,-44.223 0,0 10.098,-3.134 7.312,-17.759 -2.786,-14.626 -23.678,-36.911 -39,-31.688 -15.322,5.224 -18.456,20.197 -18.803,26.465 -0.349,6.267 -2.438,6.964 -7.661,4.526 -5.224,-2.437 -18.108,-0.696 -35.17,6.965 0,0 7.312,-6.268 -2.786,-14.974 -10.098,-8.705 -17.062,-12.187 -26.464,-12.884 -9.402,-0.696 -41.089,2.438 -42.483,20.545 0,0 -3.83,-6.616 -8.009,-11.143 0,0 3.832,-9.053 -2.437,-10.098 0,0 1.214,-7.673 2.09,-19.5 1.392,-18.804 -4.527,-56.759 -18.804,-47.706 0,0 -0.696,-13.58 -0.696,-17.41 0,-3.83 -4.527,-10.795 -10.099,-17.062 -5.571,-6.268 -23.33,-24.724 -45.965,-39.349 -22.633,-14.625 -45.267,-25.42 -72.428,-29.946 -9.75,-5.224 -20.197,-6.268 -24.723,-6.964 -4.527,-0.698 -5.571,-2.786 -6.616,-5.224 -1.045,-2.437 -6.964,-8.705 -16.018,-10.099 -9.054,-1.392 -22.286,-3.481 -30.991,-0.347 -8.706,3.134 -13.929,8.357 -15.67,9.75 -1.741,1.392 -3.83,3.134 -6.267,3.134 z"
       style="fill:none;stroke:#231f20;stroke-width:0.75;stroke-linecap:round;stroke-linejoin:round;stroke-miterlimit:4;stroke-dasharray:none;stroke-opacity:1"
       id="path682" />
    <path
       d="m 570.651,603.264 v 0 C 559.515,592.109 545.224,589 540.002,589 c -5.224,0 -19.514,3.109 -30.651,14.264 -4.862,-0.083 -14.833,-0.738 -13.922,-5.907 10.795,-20.893 28.554,-37.259 44.573,-37.259 16.017,0 33.776,16.366 44.571,37.259 0.913,5.169 -9.06,5.824 -13.922,5.907"
       style="fill:#d3d2d2;fill-opacity:1;fill-rule:nonzero;stroke:none;stroke-width:0.1"
       id="path684" />
    <path
       d="m 710.626,470.955 c 0,0 25.264,-19.31 30.306,-24.378"
       style="fill:none;stroke:#7b7979;stroke-width:0.5;stroke-linecap:round;stroke-linejoin:round;stroke-miterlimit:4;stroke-dasharray:none;stroke-opacity:1"
       id="path686" />
    <path
       d="m 369.376,470.955 c 0,0 -25.263,-19.31 -30.306,-24.378"
       style="fill:none;stroke:#7b7979;stroke-width:0.5;stroke-linecap:round;stroke-linejoin:round;stroke-miterlimit:4;stroke-dasharray:none;stroke-opacity:1"
       id="path688" />
    <path
       d="m 540.002,603.277 c -5.224,0 -25.42,0 -28.903,0 -0.441,0 -1.041,0 -1.748,-0.013 C 520.488,592.109 534.778,589 540.002,589 c 5.222,0 19.513,3.109 30.649,14.264 -0.706,0.013 -1.306,0.013 -1.748,0.013 -3.483,0 -23.679,0 -28.901,0"
       style="fill:#b2b1b1;fill-opacity:1;fill-rule:nonzero;stroke:none;stroke-width:0.1"
       id="path690" />
    <path
       d="m 617.305,695.902 c -0.348,6.267 -6.616,14.276 -19.5,24.722 -12.884,10.448 -44.92,12.885 -57.803,12.885 -12.884,0 -44.92,-2.437 -57.804,-12.885 -12.884,-10.446 -19.153,-18.455 -19.5,-24.722 -0.349,-6.268 2.437,-25.071 16.366,-35.17 13.928,-10.099 37.799,-12.172 42.325,-12.868 4.527,-0.697 12.344,-3.498 18.613,-3.498 6.267,0 14.084,2.801 18.611,3.498 4.527,0.696 28.397,2.769 42.326,12.868 13.929,10.099 16.714,28.902 16.366,35.17 z m -6.965,-14.974 c -3.165,-6.094 -8.349,-16.74 -30.991,-22.285 -17.062,-4.179 -21.937,-0.349 -39.347,-0.349 -17.412,0 -22.287,-3.83 -39.349,0.349 -22.641,5.545 -27.826,16.191 -30.991,22.285 -3.134,6.036 0.737,7.697 4.527,8.358 3.947,0.688 24.723,5.571 38.651,7.661 13.929,2.089 17.412,2.437 27.162,2.437 9.75,0 13.231,-0.348 27.16,-2.437 13.928,-2.09 34.705,-6.973 38.652,-7.661 3.789,-0.661 7.66,-2.322 4.526,-8.358"
       style="fill:#d3d2d2;fill-opacity:1;fill-rule:nonzero;stroke:none;stroke-width:0.1"
       id="path692" />
    <path
       d="m 933.832,579.25 c 0,0 -7.312,-12.536 -19.152,-11.143 -11.839,1.393 -39,9.401 -39.348,21.937 -0.348,12.536 17.063,24.375 19.848,28.206 0,0 -16.366,-4.876 -28.901,-7.313 -12.536,-2.437 -34.474,-5.92 -44.92,2.786 -10.446,8.705 -6.964,17.41 0.349,24.723 7.312,7.312 21.588,18.456 21.588,18.456 l -4.178,-0.349 c 0,0 -11.492,-9.053 -13.233,-10.795 -1.74,-1.74 -9.401,-10.097 -16.365,-15.321 -6.965,-5.223 -11.84,-6.964 -18.107,-8.356 -6.268,-1.394 -7.313,0 -9.054,2.088 -1.741,2.089 -1.741,3.134 1.393,8.705 3.133,5.572 8.008,14.626 9.75,18.108 1.741,3.482 7.312,9.401 9.402,11.839 2.089,2.437 5.919,6.965 9.054,8.706 0,0 -3.135,4.179 -1.394,11.142 1.741,6.965 7.661,23.331 12.536,35.867 4.875,12.536 8.009,22.982 8.358,28.205 0,0 -5.224,15.67 -10.795,21.241 0,0 2.089,-16.714 0.696,-22.634 -1.393,-5.92 -11.839,-42.482 -19.151,-56.062 -7.313,-13.58 -17.412,-21.938 -34.823,-21.59 -17.41,0.348 -30.991,17.76 -37.606,31.34 -6.616,13.58 -6.965,34.473 -6.965,40.392 0,5.92 2.09,11.84 8.009,18.804 5.92,6.965 11.143,18.804 12.187,31.34 1.045,12.535 -2.545,26.496 -5.571,31.339 -2.901,4.643 -2.785,1.625 -1.393,-1.742 1.074,-2.593 4.179,-16.017 1.393,-27.16 -2.785,-11.143 -12.884,-29.946 -16.018,-34.473 -3.133,-4.527 -9.053,-4.527 -9.053,5.92 0,10.446 -3.83,19.151 -8.705,25.767 -4.875,6.616 -12.537,15.67 -14.974,20.196 -2.437,4.528 -4.875,12.188 -9.401,18.456 -4.528,6.268 -16.367,18.804 -18.804,20.893 -2.438,2.089 -4.179,1.393 -1.394,-1.393 2.786,-2.786 17.412,-21.589 19.5,-26.116 2.09,-4.527 7.662,-15.67 12.536,-22.982 4.876,-7.313 11.143,-18.804 11.492,-34.125 0.347,-15.321 2.437,-48.75 -1.393,-61.983 -3.831,-13.232 -13.232,-20.545 -30.643,-11.838 -17.411,8.705 -35.518,33.428 -43.527,46.66 -8.009,13.232 -15.757,25.242 -18.107,28.553 -2.553,3.599 -14.974,4.875 -21.589,5.224 -6.616,0.348 -20.545,-0.696 -26.116,-3.134 -5.573,-2.437 -15.67,-4.178 -21.241,-4.178 -5.572,0 -15.67,1.741 -21.242,4.178 -5.571,2.438 -19.5,3.482 -26.116,3.134 -6.616,-0.349 -19.036,-1.625 -21.59,-5.224 -2.349,-3.311 -10.097,-15.321 -18.106,-28.553 -8.009,-13.232 -26.116,-37.955 -43.528,-46.66 -17.41,-8.707 -26.812,-1.394 -30.642,11.838 -3.83,13.233 -1.741,46.662 -1.393,61.983 0.348,15.321 6.615,26.812 11.491,34.125 4.874,7.312 10.447,18.455 12.536,22.982 2.088,4.527 16.714,23.33 19.5,26.116 2.786,2.786 1.045,3.482 -1.393,1.393 -2.437,-2.089 -14.277,-14.625 -18.804,-20.893 -4.527,-6.268 -6.965,-13.928 -9.402,-18.456 -2.437,-4.526 -10.098,-13.58 -14.973,-20.196 -4.875,-6.616 -8.705,-15.321 -8.705,-25.767 0,-10.447 -5.92,-10.447 -9.053,-5.92 -3.135,4.527 -13.233,23.33 -16.019,34.473 -2.785,11.143 0.32,24.567 1.394,27.16 1.392,3.367 1.507,6.385 -1.394,1.742 -3.026,-4.843 -6.616,-18.804 -5.571,-31.339 1.045,-12.536 6.267,-24.375 12.187,-31.34 5.92,-6.964 8.009,-12.884 8.009,-18.804 0,-5.919 -0.348,-26.812 -6.964,-40.392 -6.616,-13.58 -20.196,-30.992 -37.607,-31.34 -17.411,-0.348 -27.509,8.01 -34.822,21.59 -7.312,13.58 -17.758,50.142 -19.152,56.062 -1.393,5.92 0.697,22.634 0.697,22.634 -5.572,-5.571 -10.795,-21.241 -10.795,-21.241 0.348,-5.223 3.483,-15.669 8.358,-28.205 4.875,-12.536 10.794,-28.902 12.535,-35.867 1.741,-6.963 -1.393,-11.142 -1.393,-11.142 3.134,-1.741 6.964,-6.269 9.054,-8.706 2.089,-2.438 7.66,-8.357 9.401,-11.839 1.742,-3.482 6.617,-12.536 9.75,-18.108 3.134,-5.571 3.134,-6.616 1.393,-8.705 -1.74,-2.088 -2.785,-3.482 -9.053,-2.088 -6.268,1.392 -11.143,3.133 -18.107,8.356 -6.965,5.224 -14.625,13.581 -16.366,15.321 -1.741,1.742 -13.233,10.795 -13.233,10.795 l -4.178,0.349 c 0,0 14.277,-11.144 21.589,-18.456 7.313,-7.313 10.795,-16.018 0.348,-24.723 -10.446,-8.706 -32.384,-5.223 -44.919,-2.786 -12.536,2.437 -28.902,7.313 -28.902,7.313 2.786,-3.831 20.196,-15.67 19.848,-28.206 -0.348,-12.536 -27.508,-20.544 -39.348,-21.937 -11.839,-1.393 -19.152,11.143 -19.152,11.143 9.053,-14.973 0.697,-32.384 0.697,-32.384 8.705,19.848 27.509,17.411 36.91,16.366 9.402,-1.045 24.723,6.964 36.911,11.491 12.188,4.527 26.465,8.009 37.607,13.232 11.143,5.223 26.813,17.759 34.125,21.241 7.313,3.482 15.322,1.393 18.804,-5.919 3.483,-7.313 -2.786,-16.715 -5.224,-18.804 -2.437,-2.09 -17.758,-13.232 -27.857,-19.152 -10.098,-5.919 -21.937,-12.188 -31.339,-15.669 -9.401,-3.483 -15.67,-5.224 -15.67,-5.224 0,0 2.438,-1.741 11.84,-2.089 9.402,-0.348 20.893,6.616 23.33,8.009 2.438,1.393 10.795,9.054 10.795,9.054 l 7.66,5.571 c 0,0 8.706,8.357 17.76,11.491 9.053,3.134 26.464,11.839 28.205,12.884 1.448,0.869 3.373,0.052 4.784,-0.649 v 0.002 c 1.716,10.978 14.02,7.96 14.45,2.691 2.939,5.278 6.289,10.92 8.624,13.974 4.526,5.92 9.053,10.446 12.883,13.232 3.83,2.785 6.899,4.056 10.098,2.438 0.944,-0.479 1.63,-1.121 2.126,-1.843 -1.721,2.928 -2.083,5.623 1.356,6.718 -3.482,0.696 -6.267,3.83 -7.312,8.705 -1.045,4.875 3.83,10.446 11.84,13.232 8.009,2.785 32.384,10.446 39,14.276 6.615,3.832 13.58,10.099 18.106,10.099 4.528,0 10.447,-10.795 11.266,-15.004 0.699,2.683 2.229,5.02 4.056,6.299 3.482,2.438 12.188,-1.045 17.063,-2.786 -13.929,10.099 -16.715,28.902 -16.366,35.17 0.347,6.267 6.616,14.276 19.5,24.722 12.884,10.448 44.92,12.885 57.804,12.885 12.883,0 44.919,-2.437 57.803,-12.885 12.884,-10.446 19.152,-18.455 19.5,-24.722 0.348,-6.268 -2.437,-25.071 -16.366,-35.17 4.875,1.741 13.58,5.224 17.063,2.786 1.826,-1.279 3.356,-3.616 4.055,-6.299 0.819,4.209 6.739,15.004 11.266,15.004 4.526,0 11.491,-6.267 18.107,-10.099 6.616,-3.83 30.991,-11.491 39,-14.276 8.009,-2.786 12.884,-8.357 11.839,-13.232 -1.044,-4.875 -3.83,-8.009 -7.312,-8.705 3.44,-1.095 3.077,-3.79 1.356,-6.718 0.496,0.722 1.182,1.364 2.126,1.843 3.199,1.618 6.268,0.347 10.099,-2.438 3.83,-2.786 8.356,-7.312 12.883,-13.232 2.334,-3.054 5.685,-8.696 8.624,-13.974 0.43,5.269 12.733,8.287 14.45,-2.691 v -0.002 c 1.41,0.701 3.335,1.518 4.784,0.649 1.74,-1.045 19.151,-9.75 28.205,-12.884 9.054,-3.134 17.759,-11.491 17.759,-11.491 l 7.661,-5.571 c 0,0 8.356,-7.661 10.794,-9.054 2.437,-1.393 13.928,-8.357 23.331,-8.009 9.401,0.348 11.839,2.089 11.839,2.089 0,0 -6.268,1.741 -15.67,5.224 -9.402,3.481 -21.24,9.75 -31.339,15.669 -10.099,5.92 -25.42,17.062 -27.857,19.152 -2.438,2.089 -8.706,11.491 -5.223,18.804 3.481,7.312 11.49,9.401 18.803,5.919 7.313,-3.482 22.982,-16.018 34.126,-21.241 11.142,-5.223 25.418,-8.705 37.606,-13.232 12.188,-4.527 27.51,-12.536 36.911,-11.491 9.401,1.045 28.205,3.482 36.911,-16.366 0,0 -8.357,17.411 0.696,32.384"
       style="fill:#b2b1b1;fill-opacity:1;fill-rule:nonzero;stroke:none;stroke-width:0.1"
       id="path694" />
    <path
       d="m 637.849,637.055 c -5.223,-0.698 -19.807,-5.236 -18.332,8.845 -2.907,-4.668 -8.177,-9.702 -19.971,-10.239 -14.624,-0.666 -20.544,0.347 -31.339,-0.349 -10.795,-0.696 -25.42,-1.741 -28.205,-1.741 -2.787,0 -17.412,1.045 -28.207,1.741 -10.794,0.696 -16.714,-0.317 -31.338,0.349 -11.795,0.537 -17.065,5.571 -19.971,10.239 1.474,-14.081 -13.11,-9.543 -18.333,-8.845 -1.308,0.175 -2.656,0.153 -4.002,0 2.261,0 7.484,-3.832 8.528,-7.662 6.965,-3.482 35.519,-24.064 30.991,-39.733 l -0.02,-0.018 c 1.498,-1.506 2.11,-3.08 2.11,-3.08 1.044,11.84 15.669,10.795 15.669,10.795 -1.044,5.92 12.189,5.92 15.67,5.92 3.483,0 23.679,0 28.903,0 5.222,0 25.418,0 28.901,0 3.482,0 16.715,0 15.67,-5.92 0,0 14.625,1.045 15.67,-10.795 0,0 0.611,1.574 2.109,3.08 l -0.02,0.018 c -4.527,15.669 24.027,36.251 30.991,39.733 1.045,3.83 6.267,7.662 8.528,7.662 -1.345,0.153 -2.694,0.175 -4.002,0"
       style="fill:#b2b1b1;fill-opacity:1;fill-rule:nonzero;stroke:none;stroke-width:0.1"
       id="path696" />
    <path
       d="m 847.823,735.598 c -3.482,13.929 -27.16,51.884 -32.384,58.5 -5.032,6.375 -12.884,12.536 -15.669,10.099 -2.786,-2.438 1.74,-9.403 6.268,-21.59 4.526,-12.188 5.92,-27.857 3.83,-38.304 -2.089,-10.446 -12.884,-31.687 -17.41,-42.134 -4.528,-10.446 -9.403,-26.812 -26.465,-27.508 -17.063,-0.697 -30.643,21.937 -33.08,30.642 -2.438,8.706 0,25.769 10.097,33.778 10.099,8.008 12.188,20.892 15.67,31.687 3.483,10.795 6.964,38.651 6.616,44.571 -0.348,5.92 -14.625,16.715 -25.071,21.938 -10.446,5.223 -15.321,6.965 -18.804,4.179 -3.482,-2.787 1.742,-19.5 4.179,-28.903 2.438,-9.401 3.83,-22.634 -5.571,-27.856 -9.403,-5.224 -23.679,22.285 -26.814,30.991 -3.133,8.705 -4.177,18.804 -4.875,27.856 -0.696,9.054 -11.142,13.929 -17.062,17.063 -5.919,3.135 -11.839,4.875 -22.982,7.661 -11.143,2.786 -24.723,10.446 -37.259,14.974 -12.535,4.526 -21.589,5.222 -30.991,5.919 -9.402,0.697 -33.777,-2.786 -40.044,-2.786 -6.269,0 -30.644,3.483 -40.045,2.786 -9.403,-0.697 -18.456,-1.393 -30.992,-5.919 -12.536,-4.528 -26.116,-12.188 -37.258,-14.974 -11.144,-2.786 -17.063,-4.526 -22.983,-7.661 -5.92,-3.134 -16.366,-8.009 -17.062,-17.063 -0.697,-9.052 -1.742,-19.151 -4.875,-27.856 -3.134,-8.706 -17.411,-36.215 -26.813,-30.991 -9.402,5.222 -8.009,18.455 -5.571,27.856 2.437,9.403 7.66,26.116 4.179,28.903 -3.483,2.786 -8.358,1.044 -18.804,-4.179 -10.446,-5.223 -24.724,-16.018 -25.071,-21.938 -0.349,-5.92 3.133,-33.776 6.615,-44.571 3.482,-10.795 5.572,-23.679 15.67,-31.687 10.098,-8.009 12.536,-25.072 10.098,-33.778 -2.437,-8.705 -16.018,-31.339 -33.081,-30.642 -17.062,0.696 -21.937,17.062 -26.464,27.508 -4.527,10.447 -15.321,31.688 -17.411,42.134 -2.089,10.447 -0.696,26.116 3.831,38.304 4.527,12.187 9.053,19.152 6.268,21.59 -2.786,2.437 -10.637,-3.724 -15.67,-10.099 -5.223,-6.616 -28.901,-44.571 -32.384,-58.5 -3.482,-13.929 6.616,-16.017 10.099,-17.062 3.481,-1.045 5.919,-4.527 6.267,-8.705 0.348,-4.179 8.358,-9.403 11.143,-13.581 2.786,-4.178 7.661,-12.188 5.92,-17.063 -1.741,-4.875 -4.179,-5.919 -10.099,-5.919 -2.089,0 -4.178,-2.437 0.349,-3.482 4.526,-1.045 16.714,-2.786 21.241,-6.965 -2.09,2.437 -5.92,6.965 -9.054,8.706 0,0 3.134,4.179 1.393,11.142 -1.741,6.965 -7.66,23.331 -12.535,35.867 -4.875,12.536 -8.01,22.982 -8.358,28.205 0,0 5.223,15.67 10.795,21.241 0,0 -2.09,-16.714 -0.697,-22.634 1.394,-5.92 11.84,-42.482 19.152,-56.062 7.313,-13.58 17.411,-21.938 34.822,-21.59 17.411,0.348 30.991,17.76 37.607,31.34 6.616,13.58 6.964,34.473 6.964,40.392 0,5.92 -2.089,11.84 -8.009,18.804 -5.92,6.965 -11.142,18.804 -12.187,31.34 -1.045,12.535 2.545,26.496 5.571,31.339 2.901,4.643 2.786,1.625 1.394,-1.742 -1.074,-2.593 -4.179,-16.017 -1.394,-27.16 2.786,-11.143 12.884,-29.946 16.019,-34.473 3.133,-4.527 9.053,-4.527 9.053,5.92 0,10.446 3.83,19.151 8.705,25.767 4.875,6.616 12.536,15.67 14.973,20.196 2.437,4.528 4.875,12.188 9.402,18.456 4.527,6.268 16.367,18.804 18.804,20.893 2.438,2.089 4.179,1.393 1.393,-1.393 -2.786,-2.786 -17.412,-21.589 -19.5,-26.116 -2.089,-4.527 -7.662,-15.67 -12.536,-22.982 -4.876,-7.313 -11.143,-18.804 -11.491,-34.125 -0.348,-15.321 -2.437,-48.75 1.393,-61.983 3.83,-13.232 13.232,-20.545 30.642,-11.838 17.412,8.705 35.519,33.428 43.528,46.66 8.009,13.232 15.757,25.242 18.106,28.553 2.554,3.599 14.974,4.875 21.59,5.224 6.616,0.348 20.545,-0.696 26.116,-3.134 5.572,-2.437 15.67,-4.178 21.242,-4.178 5.571,0 15.668,1.741 21.241,4.178 5.571,2.438 19.5,3.482 26.116,3.134 6.615,-0.349 19.036,-1.625 21.589,-5.224 2.35,-3.311 10.098,-15.321 18.107,-28.553 8.009,-13.232 26.116,-37.955 43.527,-46.66 17.411,-8.707 26.812,-1.394 30.643,11.838 3.83,13.233 1.74,46.662 1.393,61.983 -0.349,15.321 -6.616,26.812 -11.492,34.125 -4.874,7.312 -10.446,18.455 -12.536,22.982 -2.088,4.527 -16.714,23.33 -19.5,26.116 -2.785,2.786 -1.044,3.482 1.394,1.393 2.437,-2.089 14.276,-14.625 18.804,-20.893 4.526,-6.268 6.964,-13.928 9.401,-18.456 2.437,-4.526 10.099,-13.58 14.974,-20.196 4.875,-6.616 8.705,-15.321 8.705,-25.767 0,-10.447 5.92,-10.447 9.053,-5.92 3.134,4.527 13.233,23.33 16.018,34.473 2.786,11.143 -0.319,24.567 -1.393,27.16 -1.392,3.367 -1.508,6.385 1.393,1.742 3.026,-4.843 6.616,-18.804 5.571,-31.339 -1.044,-12.536 -6.267,-24.375 -12.187,-31.34 -5.919,-6.964 -8.009,-12.884 -8.009,-18.804 0,-5.919 0.349,-26.812 6.965,-40.392 6.615,-13.58 20.196,-30.992 37.606,-31.34 17.411,-0.348 27.51,8.01 34.823,21.59 7.312,13.58 17.758,50.142 19.151,56.062 1.393,5.92 -0.696,22.634 -0.696,22.634 5.571,-5.571 10.795,-21.241 10.795,-21.241 -0.349,-5.223 -3.483,-15.669 -8.358,-28.205 -4.875,-12.536 -10.795,-28.902 -12.536,-35.867 -1.741,-6.963 1.394,-11.142 1.394,-11.142 -3.135,-1.741 -6.965,-6.269 -9.054,-8.706 4.526,4.179 16.714,5.92 21.241,6.965 4.526,1.045 2.437,3.482 0.348,3.482 -5.92,0 -8.358,1.044 -10.098,5.919 -1.741,4.875 3.134,12.885 5.919,17.063 2.786,4.178 10.795,9.402 11.144,13.581 0.347,4.178 2.785,7.66 6.267,8.705 3.483,1.045 13.58,3.133 10.098,17.062 z m -169.58,70.688 c 6.267,-12.884 7.312,-26.464 5.222,-35.867 -2.089,-9.401 -3.83,-19.5 -0.696,-30.991 3.134,-11.491 8.357,-29.25 8.357,-34.125 0,-4.875 -0.348,-14.625 -7.661,-15.321 -7.312,-0.696 -21.937,8.705 -27.856,18.455 -5.92,9.75 -20.197,47.706 -22.286,59.894 -2.089,12.187 -0.697,29.25 -0.697,34.472 0,5.224 -3.133,8.706 -8.705,13.929 -5.572,5.224 -17.062,13.232 -30.991,14.625 -13.928,1.393 -39,-0.348 -52.928,-0.348 -13.929,0 -39.001,1.741 -52.929,0.348 -13.929,-1.393 -25.42,-9.401 -30.991,-14.625 -5.572,-5.223 -8.706,-8.705 -8.706,-13.929 0,-5.222 1.393,-22.285 -0.697,-34.472 -2.089,-12.188 -16.366,-50.144 -22.285,-59.894 -5.92,-9.75 -20.545,-19.151 -27.857,-18.455 -7.313,0.696 -7.661,10.446 -7.661,15.321 0,4.875 5.223,22.634 8.357,34.125 3.134,11.491 1.393,21.59 -0.696,30.991 -2.089,9.403 -1.045,22.983 5.223,35.867 6.268,12.883 28.902,34.821 39.348,43.875 10.446,9.053 19.5,18.456 22.982,19.152 3.483,0.696 18.455,1.393 25.072,1.393 6.616,0 38.303,0.696 50.84,0.696 12.535,0 44.222,-0.696 50.838,-0.696 6.617,0 21.59,-0.697 25.072,-1.393 3.482,-0.696 12.536,-10.099 22.982,-19.152 10.446,-9.054 33.081,-30.992 39.349,-43.875"
       style="fill:#d3d2d2;fill-opacity:1;fill-rule:nonzero;stroke:none;stroke-width:0.1"
       id="path698" />
    <path
       d="m 802.904,559.402 c 0,0 8.356,-7.661 10.794,-9.054 2.437,-1.393 13.928,-8.357 23.331,-8.009 9.401,0.348 11.839,2.089 11.839,2.089 0,0 -6.268,1.741 -15.67,5.224 -9.402,3.481 -21.24,9.75 -31.339,15.669 -10.099,5.92 -25.42,17.062 -27.857,19.152 -2.438,2.089 -8.706,11.491 -5.223,18.804 3.481,7.312 11.49,9.401 18.803,5.919 7.313,-3.482 22.982,-16.018 34.126,-21.241 11.142,-5.223 25.418,-8.705 37.606,-13.232 12.188,-4.527 27.51,-12.536 36.911,-11.491 9.401,1.045 28.205,3.482 36.911,-16.366 0,0 -8.357,17.411 0.696,32.384 0,0 -7.312,-12.536 -19.152,-11.143 -11.839,1.393 -39,9.401 -39.348,21.937 -0.348,12.536 17.063,24.375 19.848,28.206 0,0 -16.366,-4.876 -28.901,-7.313 -12.536,-2.437 -34.474,-5.92 -44.92,2.786 -10.446,8.705 -6.964,17.41 0.349,24.723 7.312,7.312 21.588,18.456 21.588,18.456 l -4.178,-0.349 c 0,0 -11.492,-9.053 -13.233,-10.795 -1.74,-1.74 -9.401,-10.097 -16.365,-15.321 -6.965,-5.223 -11.84,-6.964 -18.107,-8.356 3.482,1.392 11.837,14.974 17.41,21.24 5.573,6.266 14.973,8.01 20.893,10.098 5.919,2.089 11.143,9.75 15.669,13.929 4.528,4.179 9.751,9.054 13.929,5.92 4.179,-3.135 2.786,-7.312 -3.83,-16.715 -6.616,-9.401 -18.804,-14.972 -27.858,-20.545 -9.053,-5.571 -5.918,-11.839 1.742,-15.321 7.661,-3.481 29.946,-0.696 44.571,5.224 14.625,5.92 29.599,4.526 37.607,2.437 8.009,-2.09 4.875,-9.054 -0.696,-15.321 -5.571,-6.269 -18.804,-10.447 -25.071,-14.277 -6.268,-3.831 -1.393,-10.098 1.741,-13.581 3.134,-3.482 10.446,-5.919 18.804,-2.786 8.356,3.134 20.544,11.84 28.553,16.715 8.009,4.875 15.322,-1.045 17.759,-8.009 2.438,-6.965 -1.741,-15.322 -5.223,-18.456 -3.483,-3.133 -7.313,-5.222 -6.617,-10.446 0.697,-5.223 3.483,-8.357 8.706,-10.795 5.223,-2.437 6.964,-3.134 4.178,-8.705 -2.785,-5.571 -11.839,-10.446 -19.5,-10.795 -7.66,-0.348 -11.142,10.795 -14.625,17.411 -3.481,6.616 -9.401,8.358 -12.884,8.358 -3.482,0 -10.097,-2.787 -15.321,-3.134 -5.224,-0.349 -16.366,8.705 -19.848,10.097 -3.482,1.393 -16.366,3.831 -25.072,5.572 -8.705,1.741 -25.42,10.795 -34.821,14.625 -9.401,3.831 -18.804,12.187 -26.813,16.018 -8.008,3.83 -10.446,-6.965 -6.616,-12.187 3.83,-5.224 16.366,-14.278 30.295,-21.59 13.929,-7.312 28.554,-10.446 35.866,-11.839 7.313,-1.393 16.367,-2.786 16.367,-6.965 0,-4.178 -1.742,-7.66 -7.662,-11.491 -5.92,-3.83 -20.544,-3.481 -28.205,-2.785 -7.661,0.696 -18.107,3.83 -20.545,8.705 -2.437,4.875 -3.482,13.232 -1.392,16.715"
       style="fill:#d3d2d2;fill-opacity:1;fill-rule:nonzero;stroke:none;stroke-width:0.1"
       id="path700" />
    <path
       d="m 701.921,860.259 c 3.134,-6.616 6.964,-28.553 6.617,-38.652"
       style="fill:none;stroke:#231f20;stroke-width:0.5;stroke-linecap:butt;stroke-linejoin:miter;stroke-miterlimit:4;stroke-dasharray:none;stroke-opacity:1"
       id="path702" />
    <path
       d="m 783.055,824.393 c -2.437,-6.616 1.741,-27.509 2.438,-41.09 0.696,-13.58 -2.786,-34.125 -12.188,-45.267 -9.401,-11.143 -21.937,-27.162 -20.892,-33.08"
       style="fill:none;stroke:#231f20;stroke-width:0.5;stroke-linecap:butt;stroke-linejoin:miter;stroke-miterlimit:4;stroke-dasharray:none;stroke-opacity:1"
       id="path704" />
    <path
       d="m 856.18,685.803 c -4.178,-5.919 -14.972,-14.625 -24.722,-18.803 -9.75,-4.179 -22.983,-9.054 -32.037,-20.544"
       style="fill:none;stroke:#231f20;stroke-width:0.5;stroke-linecap:butt;stroke-linejoin:miter;stroke-miterlimit:4;stroke-dasharray:none;stroke-opacity:1"
       id="path706" />
    <path
       d="m 922.341,608.152 c -3.133,-5.224 -14.277,-11.491 -21.937,-14.974"
       style="fill:none;stroke:#231f20;stroke-width:0.5;stroke-linecap:butt;stroke-linejoin:miter;stroke-miterlimit:4;stroke-dasharray:none;stroke-opacity:1"
       id="path708" />
    <path
       d="m 703.314,545.473 c -2.786,-3.482 -3.134,-20.197 6.268,-20.545"
       style="fill:none;stroke:#231f20;stroke-width:0.5;stroke-linecap:butt;stroke-linejoin:miter;stroke-miterlimit:4;stroke-dasharray:none;stroke-opacity:1"
       id="path710" />
    <path
       d="m 556.368,547.214 c 2.089,1.393 11.142,4.178 13.58,5.572 2.437,1.392 24.723,18.106 30.295,33.776"
       style="fill:none;stroke:#231f20;stroke-width:0.75;stroke-linecap:round;stroke-linejoin:round;stroke-miterlimit:4;stroke-dasharray:none;stroke-opacity:1"
       id="path712" />
    <path
       d="m 543.135,343.334 c 0,2.438 0,9.228 0.348,10.272 0.349,1.045 2.437,2.09 4.875,2.09 2.437,0 10.099,0.347 17.062,1.392 6.965,1.045 18.108,3.83 25.073,1.045 6.964,-2.786 18.994,-10.542 20.117,-13.454"
       style="fill:none;stroke:#231f20;stroke-width:0.5;stroke-linecap:butt;stroke-linejoin:miter;stroke-miterlimit:4;stroke-dasharray:none;stroke-opacity:1"
       id="path714" />
    <path
       d="m 543.483,353.606 c 0.349,5.572 0.501,17.238 0.697,19.849 0.106,1.432 0,5.223 -1.045,6.267 0,0 4.527,1.045 10.795,-1.392 6.268,-2.438 21.938,-9.402 25.768,-11.143 3.83,-1.741 9.092,-4.785 11.51,-9.357"
       style="fill:none;stroke:#231f20;stroke-width:0.5;stroke-linecap:butt;stroke-linejoin:miter;stroke-miterlimit:4;stroke-dasharray:none;stroke-opacity:1"
       id="path716" />
    <path
       d="m 640.287,353.955 c 7.275,3.357 18.803,9.053 28.206,13.928 9.401,4.875 27.509,13.233 35.866,19.5 8.356,6.268 20.545,13.929 31.687,24.375 11.143,10.447 20.893,13.233 25.42,37.955 4.527,24.724 -16.714,58.849 -16.714,58.849 -4.876,7.661 -11.492,15.67 -19.848,18.455 -8.358,2.786 -17.064,0.349 -16.366,-6.964 0.696,-7.312 13.231,-23.33 20.196,-32.384 6.964,-9.053 12.884,-20.893 13.58,-27.857 1.045,-10.446 -3.482,-23.33 -12.884,-31.34 -7.211,-6.142 -15.332,-12.524 -1.398,-23.673"
       style="fill:none;stroke:#231f20;stroke-width:0.5;stroke-linecap:butt;stroke-linejoin:miter;stroke-miterlimit:4;stroke-dasharray:none;stroke-opacity:1"
       id="path718" />
    <path
       d="m 755.285,487.216 c 3.744,-1.288 8.619,-3.378 9.663,-5.466 1.045,-2.089 3.831,-16.715 4.527,-24.028"
       style="fill:none;stroke:#231f20;stroke-width:0.5;stroke-linecap:butt;stroke-linejoin:miter;stroke-miterlimit:4;stroke-dasharray:none;stroke-opacity:1"
       id="path720" />
    <path
       d="m 749.975,507.517 c 4.179,-9.054 3.457,-15.669 4.679,-18.741"
       style="fill:none;stroke:#231f20;stroke-width:0.5;stroke-linecap:butt;stroke-linejoin:miter;stroke-miterlimit:4;stroke-dasharray:none;stroke-opacity:1"
       id="path722" />
    <path
       d="m 749.975,507.517 c -3.831,7.313 -7.312,14.277 -9.75,16.366 -2.437,2.09 -22.286,12.536 -26.116,14.278 -3.831,1.741 -10.099,5.222 -13.581,10.446 -3.482,5.223 -10.794,19.848 -9.75,25.42 1.045,5.571 4.03,17.781 4.527,23.33 0.581,6.5 0.581,12.419 0,15.67 -0.373,2.085 -0.431,6.205 3.134,8.009 3.199,1.618 6.268,0.347 10.099,-2.438 3.83,-2.786 8.356,-7.312 12.883,-13.232 4.527,-5.92 12.884,-21.589 14.625,-25.42 1.742,-3.83 3.483,-15.322 4.875,-18.804 1.393,-3.481 12.188,-29.25 -0.696,-37.259"
       style="fill:none;stroke:#231f20;stroke-width:0.5;stroke-linecap:butt;stroke-linejoin:miter;stroke-miterlimit:4;stroke-dasharray:none;stroke-opacity:1"
       id="path724" />
    <path
       d="m 704.186,417.093 c -1.741,3.482 -11.667,16.254 -18.283,16.951 -6.615,0.697 -12.535,0.348 -21.24,-1.044 -8.706,-1.393 -25.073,-4.876 -30.295,-8.706 -5.224,-3.831 -10.795,-9.402 -12.884,-15.322 -2.09,-5.919 -4.875,-19.848 0.348,-29.25 5.223,-9.401 17.062,-13.231 25.42,-13.929 8.357,-0.696 14.973,-0.347 25.419,5.573 10.447,5.919 19.5,13.58 25.768,19.5 6.268,5.919 14.51,10.678 10.446,15.669"
       style="fill:none;stroke:#231f20;stroke-width:0.25;stroke-linecap:butt;stroke-linejoin:miter;stroke-miterlimit:4;stroke-dasharray:none;stroke-opacity:1"
       id="path726" />
    <path
       d="m 716.266,426.166 c -1.809,2.306 -5.291,1.61 -8.773,-1.175 -3.483,-2.786 -4.179,-10.447 -2.438,-13.929 1.741,-3.482 6.616,-7.312 9.75,-5.92 3.134,1.393 6.467,6.205 5.991,8.499"
       style="fill:none;stroke:#231f20;stroke-width:0.5;stroke-linecap:butt;stroke-linejoin:miter;stroke-miterlimit:4;stroke-dasharray:none;stroke-opacity:1"
       id="path728" />
    <path
       d="m 785.145,591.437 c 5.571,-3.83 28.901,-18.804 42.134,-22.982 13.231,-4.178 28.205,-8.705 41.089,-14.973"
       style="fill:none;stroke:#231f20;stroke-width:0.5;stroke-linecap:butt;stroke-linejoin:miter;stroke-miterlimit:4;stroke-dasharray:none;stroke-opacity:1"
       id="path730" />
    <path
       d="m 694.957,625.911 c -3.482,-0.697 -6.268,-3.134 -14.625,-0.697 -8.357,2.438 -24.375,7.313 -27.857,8.705 -2.612,1.045 -6.594,2.679 -10.624,3.136 -2.261,0 -7.483,-3.832 -8.528,-7.662 -1.045,-3.831 -1.045,-7.312 4.179,-9.75 5.222,-2.437 16.017,-8.706 27.161,-11.143 11.142,-2.438 20.428,-1.974 23.677,1.393 3.098,3.208 14.278,13.58 6.617,16.018 z"
       style="fill:none;stroke:#231f20;stroke-width:0.5;stroke-linecap:butt;stroke-linejoin:miter;stroke-miterlimit:4;stroke-dasharray:none;stroke-opacity:1"
       id="path732" />
    <path
       d="m 788.626,535.026 c -3.481,11.84 -6.267,20.893 -14.276,32.036 -8.009,11.143 -25.071,19.152 -30.643,21.241 1.393,0.697 3.831,2.089 5.572,1.045 1.74,-1.045 19.151,-9.75 28.205,-12.884 9.054,-3.134 17.759,-11.491 17.759,-11.491 -0.348,-4.875 0.348,-11.84 1.392,-18.804 0,0 -3.83,-6.616 -8.009,-11.143"
       style="fill:#706d6e;fill-opacity:1;fill-rule:nonzero;stroke:none;stroke-width:0.1"
       id="path734" />
    <path
       d="m 788.626,535.026 c -3.481,11.84 -6.267,20.893 -14.276,32.036 -8.009,11.143 -25.071,19.152 -30.643,21.241 1.393,0.697 3.831,2.089 5.572,1.045 1.74,-1.045 19.151,-9.75 28.205,-12.884 9.054,-3.134 17.759,-11.491 17.759,-11.491 -0.348,-4.875 0.348,-11.84 1.392,-18.804 0,0 -3.83,-6.616 -8.009,-11.143 z"
       style="fill:none;stroke:#231f20;stroke-width:0.75;stroke-linecap:round;stroke-linejoin:round;stroke-miterlimit:4;stroke-dasharray:none;stroke-opacity:1"
       id="path736" />
    <path
       d="m 277.099,559.402 c 0,0 -8.357,-7.661 -10.795,-9.054 -2.437,-1.393 -13.928,-8.357 -23.33,-8.009 -9.402,0.348 -11.84,2.089 -11.84,2.089 0,0 6.269,1.741 15.67,5.224 9.402,3.481 21.241,9.75 31.339,15.669 10.099,5.92 25.42,17.062 27.857,19.152 2.438,2.089 8.707,11.491 5.224,18.804 -3.482,7.312 -11.491,9.401 -18.804,5.919 -7.312,-3.482 -22.982,-16.018 -34.125,-21.241 -11.142,-5.223 -25.419,-8.705 -37.607,-13.232 -12.188,-4.527 -27.509,-12.536 -36.911,-11.491 -9.401,1.045 -28.205,3.482 -36.91,-16.366 0,0 8.356,17.411 -0.697,32.384 0,0 7.313,-12.536 19.152,-11.143 11.84,1.393 39,9.401 39.348,21.937 0.348,12.536 -17.062,24.375 -19.848,28.206 0,0 16.366,-4.876 28.902,-7.313 12.535,-2.437 34.473,-5.92 44.919,2.786 10.447,8.705 6.965,17.41 -0.348,24.723 -7.312,7.312 -21.589,18.456 -21.589,18.456 l 4.178,-0.349 c 0,0 11.492,-9.053 13.233,-10.795 1.741,-1.74 9.401,-10.097 16.366,-15.321 6.964,-5.223 11.839,-6.964 18.107,-8.356 -3.482,1.392 -11.838,14.974 -17.411,21.24 -5.573,6.266 -14.973,8.01 -20.892,10.098 -5.92,2.089 -11.144,9.75 -15.67,13.929 -4.527,4.179 -9.75,9.054 -13.929,5.92 -4.179,-3.135 -2.786,-7.312 3.83,-16.715 6.616,-9.401 18.804,-14.972 27.858,-20.545 9.053,-5.571 5.919,-11.839 -1.742,-15.321 -7.66,-3.481 -29.946,-0.696 -44.571,5.224 -14.625,5.92 -29.599,4.526 -37.607,2.437 -8.009,-2.09 -4.875,-9.054 0.696,-15.321 5.572,-6.269 18.804,-10.447 25.072,-14.277 6.268,-3.831 1.393,-10.098 -1.741,-13.581 -3.134,-3.482 -10.446,-5.919 -18.804,-2.786 -8.357,3.134 -20.545,11.84 -28.553,16.715 -8.009,4.875 -15.322,-1.045 -17.759,-8.009 -2.438,-6.965 1.741,-15.322 5.222,-18.456 3.483,-3.133 7.313,-5.222 6.617,-10.446 -0.697,-5.223 -3.483,-8.357 -8.706,-10.795 -5.223,-2.437 -6.964,-3.134 -4.178,-8.705 2.786,-5.571 11.839,-10.446 19.5,-10.795 7.661,-0.348 11.142,10.795 14.625,17.411 3.482,6.616 9.402,8.358 12.884,8.358 3.482,0 10.098,-2.787 15.321,-3.134 5.224,-0.349 16.366,8.705 19.848,10.097 3.483,1.393 16.367,3.831 25.072,5.572 8.706,1.741 25.42,10.795 34.821,14.625 9.402,3.831 18.804,12.187 26.813,16.018 8.009,3.83 10.447,-6.965 6.616,-12.187 -3.83,-5.224 -16.366,-14.278 -30.294,-21.59 -13.929,-7.312 -28.554,-10.446 -35.866,-11.839 -7.313,-1.393 -16.367,-2.786 -16.367,-6.965 0,-4.178 1.742,-7.66 7.661,-11.491 5.92,-3.83 20.544,-3.481 28.206,-2.785 7.66,0.696 18.106,3.83 20.544,8.705 2.437,4.875 3.482,13.232 1.393,16.715"
       style="fill:#d3d2d2;fill-opacity:1;fill-rule:nonzero;stroke:none;stroke-width:0.1"
       id="path738" />
    <path
       d="m 378.082,860.259 c -3.134,-6.616 -6.965,-28.553 -6.617,-38.652"
       style="fill:none;stroke:#231f20;stroke-width:0.5;stroke-linecap:butt;stroke-linejoin:miter;stroke-miterlimit:4;stroke-dasharray:none;stroke-opacity:1"
       id="path740" />
    <path
       d="m 411.858,729.331 c 11.84,28.901 13.58,39.696 13.58,53.972 0,8.039 -1.039,23.845 2.792,33.247 3.83,9.402 17.753,24.906 24.021,29.781 6.268,4.875 27.509,10.098 44.223,10.098 16.715,0 37.259,-5.223 43.528,-5.223 6.267,0 26.812,5.223 43.526,5.223 16.715,0 37.956,-5.223 44.224,-10.098 6.267,-4.875 20.191,-20.379 24.021,-29.781 3.83,-9.402 2.791,-25.208 2.791,-33.247 0,-14.276 1.741,-25.071 13.58,-53.972"
       style="fill:none;stroke:#231f20;stroke-width:0.5;stroke-linecap:butt;stroke-linejoin:miter;stroke-miterlimit:4;stroke-dasharray:none;stroke-opacity:1"
       id="path742" />
    <path
       d="m 540.002,633.571 c -2.787,0 -17.412,1.045 -28.207,1.741 -10.794,0.696 -16.714,-0.317 -31.338,0.349 -15.059,0.685 -19.5,8.705 -21.938,13.928 -2.437,5.223 0,11.492 3.482,13.929 3.482,2.438 12.188,-1.045 17.063,-2.786 13.928,-10.099 37.799,-12.172 42.325,-12.868 4.527,-0.697 12.344,-3.498 18.613,-3.498 6.267,0 14.084,2.801 18.611,3.498 4.527,0.696 28.397,2.769 42.326,12.868 4.875,1.741 13.58,5.224 17.063,2.786 3.482,-2.437 5.919,-8.706 3.482,-13.929 -2.438,-5.223 -6.879,-13.243 -21.938,-13.928 -14.624,-0.666 -20.544,0.347 -31.339,-0.349 -10.795,-0.696 -25.42,-1.741 -28.205,-1.741 z"
       style="fill:none;stroke:#231f20;stroke-width:0.5;stroke-linecap:butt;stroke-linejoin:miter;stroke-miterlimit:4;stroke-dasharray:none;stroke-opacity:1"
       id="path744" />
    <path
       d="m 492.295,677.794 c 4.179,0 12.446,1.852 19.5,3.134 7.662,1.394 19.5,0.696 28.207,0.696 8.705,0 20.543,0.698 28.205,-0.696 7.055,-1.282 15.321,-3.134 19.5,-3.134"
       style="fill:none;stroke:#231f20;stroke-width:0.5;stroke-linecap:butt;stroke-linejoin:miter;stroke-miterlimit:4;stroke-dasharray:none;stroke-opacity:1"
       id="path746" />
    <path
       d="m 296.947,824.393 c 2.437,-6.616 -1.741,-27.509 -2.438,-41.09 -0.696,-13.58 2.786,-34.125 12.188,-45.267 9.402,-11.143 21.937,-27.162 20.893,-33.08"
       style="fill:none;stroke:#231f20;stroke-width:0.5;stroke-linecap:butt;stroke-linejoin:miter;stroke-miterlimit:4;stroke-dasharray:none;stroke-opacity:1"
       id="path748" />
    <path
       d="M 223.822,685.803 C 228,679.884 238.795,671.178 248.545,667 c 9.75,-4.179 22.983,-9.054 32.036,-20.544"
       style="fill:none;stroke:#231f20;stroke-width:0.5;stroke-linecap:butt;stroke-linejoin:miter;stroke-miterlimit:4;stroke-dasharray:none;stroke-opacity:1"
       id="path750" />
    <path
       d="m 157.661,608.152 c 3.134,-5.224 14.277,-11.491 21.938,-14.974"
       style="fill:none;stroke:#231f20;stroke-width:0.5;stroke-linecap:butt;stroke-linejoin:miter;stroke-miterlimit:4;stroke-dasharray:none;stroke-opacity:1"
       id="path752" />
    <path
       d="m 376.688,545.473 c 2.786,-3.482 3.135,-20.197 -6.268,-20.545"
       style="fill:none;stroke:#231f20;stroke-width:0.5;stroke-linecap:butt;stroke-linejoin:miter;stroke-miterlimit:4;stroke-dasharray:none;stroke-opacity:1"
       id="path754" />
    <path
       d="m 477.646,589.654 c 1.506,-1.51 2.114,-3.092 2.114,-3.092 1.044,11.84 15.669,10.795 15.669,10.795 -1.044,5.92 12.189,5.92 15.67,5.92 3.483,0 23.679,0 28.903,0 5.222,0 25.418,0 28.901,0 3.482,0 16.715,0 15.67,-5.92 0,0 14.625,1.045 15.67,-10.795 0,0 0.605,1.576 2.103,3.084"
       style="fill:none;stroke:#231f20;stroke-width:0.5;stroke-linecap:butt;stroke-linejoin:miter;stroke-miterlimit:4;stroke-dasharray:none;stroke-opacity:1"
       id="path756" />
    <path
       d="m 540.002,543.383 c -6.269,0 -11.84,1.741 -16.367,3.831 0,0 10.795,-13.928 16.367,-13.928 5.571,0 16.366,13.928 16.366,13.928 -4.528,-2.09 -10.099,-3.831 -16.366,-3.831"
       style="fill:#706d6e;fill-opacity:1;fill-rule:nonzero;stroke:none;stroke-width:0.1"
       id="path758" />
    <path
       d="m 540.002,543.383 c -6.269,0 -11.84,1.741 -16.367,3.831 0,0 10.795,-13.928 16.367,-13.928 5.571,0 16.366,13.928 16.366,13.928 -4.528,-2.09 -10.099,-3.831 -16.366,-3.831 z"
       style="fill:none;stroke:#231f20;stroke-width:0.75;stroke-linecap:round;stroke-linejoin:round;stroke-miterlimit:4;stroke-dasharray:none;stroke-opacity:1"
       id="path760" />
    <path
       d="m 523.635,547.214 c -2.09,1.393 -11.142,4.178 -13.58,5.572 -2.437,1.392 -24.723,18.106 -30.295,33.776"
       style="fill:none;stroke:#231f20;stroke-width:0.75;stroke-linecap:round;stroke-linejoin:round;stroke-miterlimit:4;stroke-dasharray:none;stroke-opacity:1"
       id="path762" />
    <path
       d="m 533.782,536.479 c -2.834,-0.06 -8.058,-3.542 -7.362,-8.766 0.698,-5.222 3.483,-43.177 4.528,-50.142 1.045,-6.964 4.178,-12.188 9.054,-12.188 4.874,0 8.008,5.224 9.053,12.188 1.044,6.965 3.83,44.92 4.527,50.142 0.696,5.224 -4.527,8.706 -7.362,8.766"
       style="fill:none;stroke:#231f20;stroke-width:0.5;stroke-linecap:butt;stroke-linejoin:miter;stroke-miterlimit:4;stroke-dasharray:none;stroke-opacity:1"
       id="path764" />
    <path
       d="m 536.868,343.334 c 0,2.438 0,9.228 -0.349,10.272 -0.349,1.045 -2.437,2.09 -4.875,2.09 -2.437,0 -10.099,0.347 -17.062,1.392 -6.964,1.045 -18.108,3.83 -25.072,1.045 -6.965,-2.786 -18.994,-10.542 -20.118,-13.454"
       style="fill:none;stroke:#231f20;stroke-width:0.5;stroke-linecap:butt;stroke-linejoin:miter;stroke-miterlimit:4;stroke-dasharray:none;stroke-opacity:1"
       id="path766" />
    <path
       d="m 536.519,353.606 c -0.349,5.572 -0.501,17.238 -0.696,19.849 -0.107,1.432 0,5.223 1.045,6.267 0,0 -4.528,1.045 -10.795,-1.392 -6.268,-2.438 -21.938,-9.402 -25.769,-11.143 -3.83,-1.741 -9.091,-4.785 -11.51,-9.357"
       style="fill:none;stroke:#231f20;stroke-width:0.5;stroke-linecap:butt;stroke-linejoin:miter;stroke-miterlimit:4;stroke-dasharray:none;stroke-opacity:1"
       id="path768" />
    <path
       d="m 439.715,353.955 c -7.274,3.357 -18.803,9.053 -28.205,13.928 -9.402,4.875 -27.51,13.233 -35.866,19.5 -8.357,6.268 -20.545,13.929 -31.687,24.375 -11.144,10.447 -20.894,13.233 -25.42,37.955 -4.528,24.724 16.713,58.849 16.713,58.849 4.876,7.661 11.492,15.67 19.849,18.455 8.358,2.786 17.063,0.349 16.366,-6.964 -0.696,-7.312 -13.232,-23.33 -20.196,-32.384 -6.965,-9.053 -12.885,-20.893 -13.581,-27.857 -1.044,-10.446 3.482,-23.33 12.884,-31.34 7.211,-6.142 15.333,-12.524 1.398,-23.673"
       style="fill:none;stroke:#231f20;stroke-width:0.5;stroke-linecap:butt;stroke-linejoin:miter;stroke-miterlimit:4;stroke-dasharray:none;stroke-opacity:1"
       id="path770" />
    <path
       d="m 324.717,487.216 c -3.743,-1.288 -8.618,-3.378 -9.663,-5.466 -1.045,-2.089 -3.83,-16.715 -4.526,-24.028"
       style="fill:none;stroke:#231f20;stroke-width:0.5;stroke-linecap:butt;stroke-linejoin:miter;stroke-miterlimit:4;stroke-dasharray:none;stroke-opacity:1"
       id="path772" />
    <path
       d="m 330.028,507.517 c -4.179,-9.054 -3.458,-15.669 -4.68,-18.741"
       style="fill:none;stroke:#231f20;stroke-width:0.5;stroke-linecap:butt;stroke-linejoin:miter;stroke-miterlimit:4;stroke-dasharray:none;stroke-opacity:1"
       id="path774" />
    <path
       d="m 330.028,507.517 c 3.83,7.313 7.312,14.277 9.75,16.366 2.437,2.09 22.285,12.536 26.116,14.278 3.83,1.741 10.098,5.222 13.58,10.446 3.483,5.223 10.795,19.848 9.75,25.42 -1.045,5.571 -4.03,17.781 -4.526,23.33 -0.581,6.5 -0.581,12.419 0,15.67 0.372,2.085 0.43,6.205 -3.135,8.009 -3.199,1.618 -6.268,0.347 -10.098,-2.438 -3.83,-2.786 -8.357,-7.312 -12.883,-13.232 -4.528,-5.92 -12.885,-21.589 -14.625,-25.42 -1.742,-3.83 -3.483,-15.322 -4.875,-18.804 -1.394,-3.481 -12.188,-29.25 0.696,-37.259"
       style="fill:none;stroke:#231f20;stroke-width:0.5;stroke-linecap:butt;stroke-linejoin:miter;stroke-miterlimit:4;stroke-dasharray:none;stroke-opacity:1"
       id="path776" />
    <path
       d="m 375.817,417.093 c 1.74,3.482 11.666,16.254 18.282,16.951 6.616,0.697 12.536,0.348 21.241,-1.044 8.705,-1.393 25.072,-4.876 30.295,-8.706 5.223,-3.831 10.794,-9.402 12.884,-15.322 2.089,-5.919 4.875,-19.848 -0.349,-29.25 -5.222,-9.401 -17.062,-13.231 -25.42,-13.929 -8.356,-0.696 -14.972,-0.347 -25.418,5.573 -10.447,5.919 -19.5,13.58 -25.769,19.5 -6.268,5.919 -14.509,10.678 -10.446,15.669"
       style="fill:none;stroke:#231f20;stroke-width:0.25;stroke-linecap:butt;stroke-linejoin:miter;stroke-miterlimit:4;stroke-dasharray:none;stroke-opacity:1"
       id="path778" />
    <path
       d="m 363.737,426.166 c 1.808,2.306 5.291,1.61 8.773,-1.175 3.482,-2.786 4.178,-10.447 2.438,-13.929 -1.741,-3.482 -6.616,-7.312 -9.751,-5.92 -3.134,1.393 -6.466,6.205 -5.991,8.499"
       style="fill:none;stroke:#231f20;stroke-width:0.5;stroke-linecap:butt;stroke-linejoin:miter;stroke-miterlimit:4;stroke-dasharray:none;stroke-opacity:1"
       id="path780" />
    <path
       d="m 294.858,591.437 c -5.571,-3.83 -28.902,-18.804 -42.134,-22.982 -13.232,-4.178 -28.206,-8.705 -41.09,-14.973"
       style="fill:none;stroke:#231f20;stroke-width:0.5;stroke-linecap:butt;stroke-linejoin:miter;stroke-miterlimit:4;stroke-dasharray:none;stroke-opacity:1"
       id="path782" />
    <path
       d="m 385.045,625.911 c 3.483,-0.697 6.268,-3.134 14.625,-0.697 8.358,2.438 24.375,7.313 27.858,8.705 2.611,1.045 6.593,2.679 10.623,3.136 2.261,0 7.484,-3.832 8.528,-7.662 1.045,-3.831 1.045,-7.312 -4.178,-9.75 -5.223,-2.437 -16.018,-8.706 -27.161,-11.143 -11.142,-2.438 -20.428,-1.974 -23.678,1.393 -3.098,3.208 -14.277,13.58 -6.617,16.018 z"
       style="fill:none;stroke:#231f20;stroke-width:0.5;stroke-linecap:butt;stroke-linejoin:miter;stroke-miterlimit:4;stroke-dasharray:none;stroke-opacity:1"
       id="path784" />
    <path
       d="m 291.376,535.026 c 3.482,11.84 6.267,20.893 14.277,32.036 8.009,11.143 25.071,19.152 30.642,21.241 -1.392,0.697 -3.83,2.089 -5.571,1.045 -1.741,-1.045 -19.152,-9.75 -28.205,-12.884 -9.054,-3.134 -17.76,-11.491 -17.76,-11.491 0.349,-4.875 -0.347,-11.84 -1.392,-18.804 0,0 3.83,-6.616 8.009,-11.143"
       style="fill:#706d6e;fill-opacity:1;fill-rule:nonzero;stroke:none;stroke-width:0.1"
       id="path786" />
    <path
       d="m 291.376,535.026 c 3.482,11.84 6.267,20.893 14.277,32.036 8.009,11.143 25.071,19.152 30.642,21.241 -1.392,0.697 -3.83,2.089 -5.571,1.045 -1.741,-1.045 -19.152,-9.75 -28.205,-12.884 -9.054,-3.134 -17.76,-11.491 -17.76,-11.491 0.349,-4.875 -0.347,-11.84 -1.392,-18.804 0,0 3.83,-6.616 8.009,-11.143 z"
       style="fill:none;stroke:#231f20;stroke-width:0.75;stroke-linecap:round;stroke-linejoin:round;stroke-miterlimit:4;stroke-dasharray:none;stroke-opacity:1"
       id="path788" />
    <path
       d="m 791.413,622.081 c -6.268,-1.394 -7.313,0 -9.054,2.088 -1.741,2.089 -1.741,3.134 1.393,8.705 3.133,5.572 8.008,14.626 9.75,18.108 1.741,3.482 7.312,9.401 9.402,11.839"
       style="fill:none;stroke:#231f20;stroke-width:0.5;stroke-linecap:butt;stroke-linejoin:miter;stroke-miterlimit:4;stroke-dasharray:none;stroke-opacity:1"
       id="path790" />
    <path
       d="m 288.59,622.081 c 6.268,-1.394 7.313,0 9.053,2.088 1.741,2.089 1.741,3.134 -1.393,8.705 -3.133,5.572 -8.008,14.626 -9.75,18.108 -1.741,3.482 -7.312,9.401 -9.401,11.839"
       style="fill:none;stroke:#231f20;stroke-width:0.5;stroke-linecap:butt;stroke-linejoin:miter;stroke-miterlimit:4;stroke-dasharray:none;stroke-opacity:1"
       id="path792" />
    <path
       d="m 572.037,530.151 c -1.919,-1.619 -6.617,-9.401 -2.785,-14.277 3.83,-4.874 5.571,-6.963 9.75,-7.312 4.178,-0.349 7.196,-1.045 11.142,0.696 3.992,1.762 5.463,8.909 5.92,11.492 0.43,2.423 1.277,4.874 -3.83,8.357 -5.289,3.605 -15.804,4.754 -20.197,1.044 z"
       style="fill:none;stroke:#231f20;stroke-width:0.5;stroke-linecap:butt;stroke-linejoin:miter;stroke-miterlimit:4;stroke-dasharray:none;stroke-opacity:1"
       id="path794" />
    <path
       d="m 574.439,510.179 c 6.021,-6.298 16.221,-16.698 18.143,-19.724 2.14,-3.373 6.374,-9.213 8.008,-11.839 0.992,-1.592 3.831,-2.786 7.662,-1.393 3.83,1.393 10.097,5.919 11.838,7.313 1.742,1.392 2.438,3.83 0.349,8.008 -2.09,4.179 -13.898,22.112 -24.067,31.583"
       style="fill:none;stroke:#231f20;stroke-width:0.5;stroke-linecap:butt;stroke-linejoin:miter;stroke-miterlimit:4;stroke-dasharray:none;stroke-opacity:1"
       id="path796" />
    <path
       d="m 507.965,530.151 c 1.919,-1.619 6.617,-9.401 2.786,-14.277 -3.831,-4.874 -5.572,-6.963 -9.75,-7.312 -4.178,-0.349 -7.197,-1.045 -11.143,0.696 -3.992,1.762 -5.462,8.909 -5.919,11.492 -0.431,2.423 -1.277,4.874 3.83,8.357 5.288,3.605 15.803,4.754 20.196,1.044 z"
       style="fill:none;stroke:#231f20;stroke-width:0.5;stroke-linecap:butt;stroke-linejoin:miter;stroke-miterlimit:4;stroke-dasharray:none;stroke-opacity:1"
       id="path798" />
    <path
       d="m 505.563,510.179 c -6.021,-6.298 -16.221,-16.698 -18.143,-19.724 -2.14,-3.373 -6.374,-9.213 -8.008,-11.839 -0.992,-1.592 -3.83,-2.786 -7.661,-1.393 -3.831,1.393 -10.098,5.919 -11.839,7.313 -1.742,1.392 -2.438,3.83 -0.348,8.008 2.089,4.179 13.898,22.112 24.067,31.583"
       style="fill:none;stroke:#231f20;stroke-width:0.5;stroke-linecap:butt;stroke-linejoin:miter;stroke-miterlimit:4;stroke-dasharray:none;stroke-opacity:1"
       id="path800" />
    <path
       d="m 619.294,494.575 c 6.716,3.541 20.296,5.978 28.306,8.067 8.009,2.09 29.714,5.805 42.482,5.224"
       style="fill:none;stroke:#231f20;stroke-width:0.5;stroke-linecap:butt;stroke-linejoin:miter;stroke-miterlimit:4;stroke-dasharray:none;stroke-opacity:1"
       id="path802" />
    <path
       d="m 460.708,494.575 c -6.716,3.541 -20.296,5.978 -28.305,8.067 -8.009,2.09 -29.714,5.805 -42.483,5.224"
       style="fill:none;stroke:#231f20;stroke-width:0.5;stroke-linecap:butt;stroke-linejoin:miter;stroke-miterlimit:4;stroke-dasharray:none;stroke-opacity:1"
       id="path804" />
    <path
       d="m 601.984,518.312 c 5.571,0 18.803,-2.089 25.419,-1.741 6.616,0.348 18.804,1.741 28.206,1.741 9.401,0 20.89,-2.062 26.464,-1.393 8.705,1.044 19.5,5.919 26.465,5.919"
       style="fill:none;stroke:#231f20;stroke-width:0.5;stroke-linecap:butt;stroke-linejoin:miter;stroke-miterlimit:4;stroke-dasharray:none;stroke-opacity:1"
       id="path806" />
    <path
       d="m 478.019,518.312 c -5.571,0 -18.804,-2.089 -25.42,-1.741 -6.616,0.348 -18.804,1.741 -28.205,1.741 -9.402,0 -20.891,-2.062 -26.465,-1.393 -8.705,1.044 -19.5,5.919 -26.464,5.919"
       style="fill:none;stroke:#231f20;stroke-width:0.5;stroke-linecap:butt;stroke-linejoin:miter;stroke-miterlimit:4;stroke-dasharray:none;stroke-opacity:1"
       id="path808" />
    <path
       d="m 711.547,512.166 c -4.054,2.316 -15.545,1.62 -21.465,-4.3"
       style="fill:none;stroke:#231f20;stroke-width:0.5;stroke-linecap:butt;stroke-linejoin:miter;stroke-miterlimit:4;stroke-dasharray:none;stroke-opacity:1"
       id="path810" />
    <path
       d="m 368.455,512.166 c 4.055,2.316 15.545,1.62 21.465,-4.3"
       style="fill:none;stroke:#231f20;stroke-width:0.5;stroke-linecap:butt;stroke-linejoin:miter;stroke-miterlimit:4;stroke-dasharray:none;stroke-opacity:1"
       id="path812" />
    <path
       d="m 633.323,629.393 c -6.964,-3.482 -35.518,-24.064 -30.991,-39.733"
       style="fill:none;stroke:#231f20;stroke-width:0.5;stroke-linecap:butt;stroke-linejoin:miter;stroke-miterlimit:4;stroke-dasharray:none;stroke-opacity:1"
       id="path814" />
    <path
       d="m 446.679,629.393 c 6.965,-3.482 35.519,-24.064 30.991,-39.733"
       style="fill:none;stroke:#231f20;stroke-width:0.5;stroke-linecap:butt;stroke-linejoin:miter;stroke-miterlimit:4;stroke-dasharray:none;stroke-opacity:1"
       id="path816" />
    <path
       d="M 649.101,613.962 C 645.51,609.196 636.294,597.286 627.24,589.625"
       style="fill:none;stroke:#231f20;stroke-width:0.5;stroke-linecap:round;stroke-linejoin:round;stroke-miterlimit:4;stroke-dasharray:2.8, 1.8;stroke-dashoffset:0;stroke-opacity:1"
       id="path818" />
    <path
       d="m 713.76,671.874 c -2.008,-0.573 -4.526,-10.097 -4.875,-13.928 -0.347,-3.83 1.741,-16.018 4.875,-15.669 3.134,0.347 3.134,3.481 2.786,7.66 -0.348,4.179 -1.393,11.84 0,16.366 1.219,3.96 -0.348,6.268 -2.786,5.571"
       style="fill:#ffffff;fill-opacity:1;fill-rule:nonzero;stroke:none;stroke-width:0.1"
       id="path820" />
    <path
       d="m 713.76,671.874 c -2.008,-0.573 -4.526,-10.097 -4.875,-13.928 -0.347,-3.83 1.741,-16.018 4.875,-15.669 3.134,0.347 3.134,3.481 2.786,7.66 -0.348,4.179 -1.393,11.84 0,16.366 1.219,3.96 -0.348,6.268 -2.786,5.571 z"
       style="fill:none;stroke:#231f20;stroke-width:0.5;stroke-linecap:round;stroke-linejoin:round;stroke-miterlimit:4;stroke-dasharray:2.8, 1.8;stroke-dashoffset:0;stroke-opacity:1"
       id="path822" />
    <path
       d="m 740.225,651.331 c 5.569,1.06 7.66,-1.742 9.75,-9.054 2.089,-7.313 2.785,-13.233 4.179,-16.019 1.392,-2.785 8.356,-12.187 7.66,-17.062 -0.696,-4.875 -5.571,-8.357 -13.232,-10.446 -7.661,-2.089 -11.839,-2.786 -16.714,3.133 -4.875,5.92 -14.974,16.367 -11.143,21.938 3.83,5.572 8.357,8.011 10.098,13.234 1.741,5.222 2.09,12.882 9.402,14.276"
       style="fill:#ffffff;fill-opacity:1;fill-rule:nonzero;stroke:none;stroke-width:0.1"
       id="path824" />
    <path
       d="m 740.225,651.331 c 5.569,1.06 7.66,-1.742 9.75,-9.054 2.089,-7.313 2.785,-13.233 4.179,-16.019 1.392,-2.785 8.356,-12.187 7.66,-17.062 -0.696,-4.875 -5.571,-8.357 -13.232,-10.446 -7.661,-2.089 -11.839,-2.786 -16.714,3.133 -4.875,5.92 -14.974,16.367 -11.143,21.938 3.83,5.572 8.357,8.011 10.098,13.234 1.741,5.222 2.09,12.882 9.402,14.276 z"
       style="fill:none;stroke:#231f20;stroke-width:0.5;stroke-linecap:round;stroke-linejoin:round;stroke-miterlimit:4;stroke-dasharray:2.8, 1.8;stroke-dashoffset:0;stroke-opacity:1"
       id="path826" />
    <path
       d="m 702.269,532.241 c -7.312,4.178 -33.776,18.107 -50.143,32.732 -16.366,14.625 -13.928,15.669 -9.402,21.589 4.528,5.92 12.536,6.616 18.804,4.875 6.268,-1.741 19.851,-9.428 29.601,-15.695"
       style="fill:none;stroke:#231f20;stroke-width:0.5;stroke-linecap:round;stroke-linejoin:round;stroke-miterlimit:4;stroke-dasharray:2.8, 1.8;stroke-dashoffset:0;stroke-opacity:1"
       id="path828" />
    <path
       d="m 589.448,542.339 c -1.045,-3.482 8.705,-12.536 11.142,-10.098 2.438,2.437 -2.444,7.933 -4.178,9.75 -2.438,2.552 -6.248,2.734 -6.964,0.348 z"
       style="fill:none;stroke:#231f20;stroke-width:0.5;stroke-linecap:round;stroke-linejoin:round;stroke-miterlimit:4;stroke-dasharray:2.8, 1.8;stroke-dashoffset:0;stroke-opacity:1"
       id="path830" />
    <path
       d="m 569.948,552.786 c 2.348,1.632 14.276,-11.84 6.964,-20.545"
       style="fill:none;stroke:#231f20;stroke-width:0.5;stroke-linecap:round;stroke-linejoin:round;stroke-miterlimit:4;stroke-dasharray:2.8, 1.8;stroke-dashoffset:0;stroke-opacity:1"
       id="path832" />
    <path
       d="m 553.47,530.128 c 2.898,-2.415 10.256,-5.2 16.176,-3.459"
       style="fill:none;stroke:#231f20;stroke-width:0.5;stroke-linecap:round;stroke-linejoin:round;stroke-miterlimit:4;stroke-dasharray:2.8, 1.8;stroke-dashoffset:0;stroke-opacity:1"
       id="path834" />
    <path
       d="m 553.457,526.646 c -2.313,3.854 -13.455,4.55 -13.455,-6.593 0,-9.402 8.705,-8.357 12.312,-6.307"
       style="fill:none;stroke:#231f20;stroke-width:0.5;stroke-linecap:round;stroke-linejoin:round;stroke-miterlimit:4;stroke-dasharray:2.8, 1.8;stroke-dashoffset:0;stroke-opacity:1"
       id="path836" />
    <path
       d="m 549.438,480.739 c 6.93,-2.82 15.286,-1.776 22.947,-0.034 7.661,1.741 16.474,1.741 18.911,11.491"
       style="fill:none;stroke:#231f20;stroke-width:0.5;stroke-linecap:round;stroke-linejoin:round;stroke-miterlimit:4;stroke-dasharray:2.8, 1.8;stroke-dashoffset:0;stroke-opacity:1"
       id="path838" />
    <path
       d="m 682.044,507.776 c -8.329,-2.93 -11.81,-7.571 -11.81,-10.009 0,-2.437 7.026,-11.34 24.785,-13.429"
       style="fill:none;stroke:#231f20;stroke-width:0.5;stroke-linecap:round;stroke-linejoin:round;stroke-miterlimit:4;stroke-dasharray:2.8, 1.8;stroke-dashoffset:0;stroke-opacity:1"
       id="path840" />
    <path
       d="m 615.54,481.265 c 3.158,-8.569 13.256,-38.864 21.962,-54.882"
       style="fill:none;stroke:#231f20;stroke-width:0.5;stroke-linecap:round;stroke-linejoin:round;stroke-miterlimit:4;stroke-dasharray:2.8, 1.8;stroke-dashoffset:0;stroke-opacity:1"
       id="path842" />
    <path
       d="m 641.535,501.181 c 3.975,-11.77 10.243,-21.869 16.511,-31.27 6.268,-9.403 13.929,-26.542 18.107,-35.596"
       style="fill:none;stroke:#231f20;stroke-width:0.5;stroke-linecap:round;stroke-linejoin:round;stroke-miterlimit:4;stroke-dasharray:2.8, 1.8;stroke-dashoffset:0;stroke-opacity:1"
       id="path844" />
    <path
       d="m 635.76,454.241 c -0.348,-4.875 5.224,-9.054 11.143,-6.269 5.92,2.786 4.527,10.099 -0.696,11.491 -5.223,1.394 -10.125,-0.707 -10.447,-5.222 z"
       style="fill:none;stroke:#231f20;stroke-width:0.5;stroke-linecap:round;stroke-linejoin:round;stroke-miterlimit:4;stroke-dasharray:2.8, 1.8;stroke-dashoffset:0;stroke-opacity:1"
       id="path846" />
    <path
       d="m 629.732,420.463 c -9.054,2.09 -47.248,-4.526 -61.177,-21.937"
       style="fill:none;stroke:#231f20;stroke-width:0.5;stroke-linecap:round;stroke-linejoin:round;stroke-miterlimit:4;stroke-dasharray:2.8, 1.8;stroke-dashoffset:0;stroke-opacity:1"
       id="path848" />
    <path
       d="m 579.698,367.187 c 2.089,1.741 9.054,5.919 24.723,0.348"
       style="fill:none;stroke:#231f20;stroke-width:0.5;stroke-linecap:round;stroke-linejoin:round;stroke-miterlimit:4;stroke-dasharray:2.8, 1.8;stroke-dashoffset:0;stroke-opacity:1"
       id="path850" />
    <path
       d="m 596.064,378.678 c 2.089,3.134 13.58,11.143 22.634,11.49"
       style="fill:none;stroke:#231f20;stroke-width:0.5;stroke-linecap:round;stroke-linejoin:round;stroke-miterlimit:4;stroke-dasharray:2.8, 1.8;stroke-dashoffset:0;stroke-opacity:1"
       id="path852" />
    <path
       d="m 616.26,364.053 c 5.92,-5.223 11.143,-8.01 15.322,-8.357 4.178,-0.349 15.67,0.752 12.536,10.502"
       style="fill:none;stroke:#231f20;stroke-width:0.5;stroke-linecap:round;stroke-linejoin:round;stroke-miterlimit:4;stroke-dasharray:2.8, 1.8;stroke-dashoffset:0;stroke-opacity:1"
       id="path854" />
    <path
       d="m 610.689,375.543 c 3.134,-2.437 9.128,-8.442 5.571,-11.49 -2.437,-2.09 -8.357,0.697 -11.839,3.482 -3.482,2.786 -9.75,8.706 -8.357,11.143 1.593,2.787 8.357,1.74 14.625,-3.135 z"
       style="fill:none;stroke:#231f20;stroke-width:0.5;stroke-linecap:round;stroke-linejoin:round;stroke-miterlimit:4;stroke-dasharray:2.8, 1.8;stroke-dashoffset:0;stroke-opacity:1"
       id="path856" />
    <path
       d="m 690.082,507.866 c -5.919,-5.92 -4.527,-12.884 -1.044,-16.715 3.481,-3.83 11.142,-12.535 12.883,-16.018 1.742,-3.482 6.268,-19.5 7.313,-27.509 1.044,-8.008 3.652,-17.255 5.223,-19.152 2.1,-2.535 4.312,-5.538 7.446,-7.628"
       style="fill:none;stroke:#231f20;stroke-width:0.5;stroke-linecap:round;stroke-linejoin:round;stroke-miterlimit:4;stroke-dasharray:2.8, 1.8;stroke-dashoffset:0;stroke-opacity:1"
       id="path858" />
    <path
       d="m 717.139,503.268 c -5.12,-0.974 -14.87,-15.947 -15.218,-28.135"
       style="fill:none;stroke:#231f20;stroke-width:0.5;stroke-linecap:round;stroke-linejoin:round;stroke-miterlimit:4;stroke-dasharray:2.8, 1.8;stroke-dashoffset:0;stroke-opacity:1"
       id="path860" />
    <path
       d="m 745.769,545.12 c 6.644,-0.692 28.225,-9.365 41.983,-33.408"
       style="fill:none;stroke:#231f20;stroke-width:0.5;stroke-linecap:round;stroke-linejoin:round;stroke-miterlimit:4;stroke-dasharray:2.8, 1.8;stroke-dashoffset:0;stroke-opacity:1"
       id="path862" />
    <path
       d="m 697.046,421.857 c 0.536,4.03 -15.67,17.759 -24.375,4.178 0,0 -13.581,6.965 -35.866,-10.098 0,0 -8.357,1.393 -11.84,-6.268 -3.481,-7.661 -2.437,-14.626 -0.696,-17.759 0,0 -2.437,-3.482 1.393,-9.402 3.831,-5.92 11.143,-11.84 21.241,-9.402 10.099,2.437 12.885,5.572 14.625,10.447 1.741,4.875 0.348,7.66 -8.009,7.313 L 651.43,394 c 0,0 11.143,-3.134 19.152,5.222 0,0 4.875,-7.312 15.321,-4.875 10.447,2.438 16.369,8.222 17.411,13.581 1.042,5.36 -2.438,11.839 -6.268,13.929 z"
       style="fill:none;stroke:#231f20;stroke-width:0.5;stroke-linecap:round;stroke-linejoin:round;stroke-miterlimit:4;stroke-dasharray:2.8, 1.8;stroke-dashoffset:0;stroke-opacity:1"
       id="path864" />
    <path
       d="m 624.269,391.91 c 1.045,3.482 2.786,6.964 7.661,5.223 4.875,-1.741 10.446,-6.267 21.589,-6.267"
       style="fill:none;stroke:#231f20;stroke-width:0.5;stroke-linecap:round;stroke-linejoin:round;stroke-miterlimit:4;stroke-dasharray:2.8, 1.8;stroke-dashoffset:0;stroke-opacity:1"
       id="path866" />
    <path
       d="m 636.805,415.937 c 6.964,-1.393 7.313,-6.035 14.625,-21.937"
       style="fill:none;stroke:#231f20;stroke-width:0.5;stroke-linecap:round;stroke-linejoin:round;stroke-miterlimit:4;stroke-dasharray:2.8, 1.8;stroke-dashoffset:0;stroke-opacity:1"
       id="path868" />
    <path
       d="m 697.046,421.857 c -4.527,0.348 -27.857,-6.269 -26.464,-22.635"
       style="fill:none;stroke:#231f20;stroke-width:0.5;stroke-linecap:round;stroke-linejoin:round;stroke-miterlimit:4;stroke-dasharray:2.8, 1.8;stroke-dashoffset:0;stroke-opacity:1"
       id="path870" />
    <path
       d="m 647.6,402.407 c -0.838,2.031 -1.393,5.869 2.785,7.959 4.179,2.089 15.355,6.895 25.958,2.577"
       style="fill:none;stroke:#231f20;stroke-width:0.5;stroke-linecap:round;stroke-linejoin:round;stroke-miterlimit:4;stroke-dasharray:2.8, 1.8;stroke-dashoffset:0;stroke-opacity:1"
       id="path872" />
    <path
       d="m 672.671,426.035 c -1.741,-2.67 -0.103,-7.369 5.52,-11.52"
       style="fill:none;stroke:#231f20;stroke-width:0.5;stroke-linecap:round;stroke-linejoin:round;stroke-miterlimit:4;stroke-dasharray:2.8, 1.8;stroke-dashoffset:0;stroke-opacity:1"
       id="path874" />
    <path
       d="m 685.903,434.044 c -2.089,1.393 -3.482,3.83 -3.134,5.223 0.349,1.393 2.438,2.09 5.224,0.696 2.785,-1.392 18.493,-10.816 12.903,-17.943"
       style="fill:none;stroke:#231f20;stroke-width:0.5;stroke-linecap:round;stroke-linejoin:round;stroke-miterlimit:4;stroke-dasharray:2.8, 1.8;stroke-dashoffset:0;stroke-opacity:1"
       id="path876" />
    <path
       d="m 743.707,588.303 c -1.393,-0.696 -9.053,-4.179 -6.964,-7.312 2.089,-3.134 4.993,-1.818 7.661,-3.134 5.666,-2.797 11.821,-6.71 21.937,-20.196 9.402,-12.537 10.447,-16.715 12.989,-33.989"
       style="fill:none;stroke:#231f20;stroke-width:0.5;stroke-linecap:round;stroke-linejoin:round;stroke-miterlimit:4;stroke-dasharray:2.8, 1.8;stroke-dashoffset:0;stroke-opacity:1"
       id="path878" />
    <path
       d="m 737.909,584.723 c 7.191,-1.991 19.726,-8.259 23.557,-12.437 3.83,-4.179 18.803,-19.153 24.723,-47.358"
       style="fill:none;stroke:#231f20;stroke-width:0.5;stroke-linecap:round;stroke-linejoin:round;stroke-miterlimit:4;stroke-dasharray:2.8, 1.8;stroke-dashoffset:0;stroke-opacity:1"
       id="path880" />
    <path
       d="m 730.045,591.392 c 0.43,5.269 12.733,8.287 14.45,-2.691"
       style="fill:none;stroke:#231f20;stroke-width:0.5;stroke-linecap:round;stroke-linejoin:round;stroke-miterlimit:4;stroke-dasharray:2.8, 1.8;stroke-dashoffset:0;stroke-opacity:1"
       id="path882" />
    <path
       d="m 641.851,637.055 c -1.345,0.153 -2.694,0.175 -4.002,0 -5.223,-0.698 -19.807,-5.236 -18.332,8.845"
       style="fill:none;stroke:#231f20;stroke-width:0.5;stroke-linecap:round;stroke-linejoin:round;stroke-miterlimit:4;stroke-dasharray:2.8, 1.8;stroke-dashoffset:0;stroke-opacity:1"
       id="path884" />
    <path
       d="m 622.057,657.219 c 0.819,4.209 6.739,15.004 11.266,15.004 4.526,0 11.491,-6.267 18.107,-10.099 6.616,-3.83 30.991,-11.491 39,-14.276 8.009,-2.786 12.884,-8.357 11.839,-13.232 -1.044,-4.875 -3.83,-8.009 -7.312,-8.705"
       style="fill:none;stroke:#231f20;stroke-width:0.5;stroke-linecap:round;stroke-linejoin:round;stroke-miterlimit:4;stroke-dasharray:2.8, 1.8;stroke-dashoffset:0;stroke-opacity:1"
       id="path886" />
    <path
       d="m 430.901,613.962 c 3.591,-4.766 12.807,-16.676 21.861,-24.337"
       style="fill:none;stroke:#231f20;stroke-width:0.5;stroke-linecap:round;stroke-linejoin:round;stroke-miterlimit:4;stroke-dasharray:2.8, 1.8;stroke-dashoffset:0;stroke-opacity:1"
       id="path888" />
    <path
       d="m 366.242,671.874 c 2.008,-0.573 4.527,-10.097 4.875,-13.928 0.348,-3.83 -1.741,-16.018 -4.875,-15.669 -3.134,0.347 -3.134,3.481 -2.785,7.66 0.347,4.179 1.392,11.84 0,16.366 -1.219,3.96 0.347,6.268 2.785,5.571"
       style="fill:#ffffff;fill-opacity:1;fill-rule:nonzero;stroke:none;stroke-width:0.1"
       id="path890" />
    <path
       d="m 366.242,671.874 c 2.008,-0.573 4.527,-10.097 4.875,-13.928 0.348,-3.83 -1.741,-16.018 -4.875,-15.669 -3.134,0.347 -3.134,3.481 -2.785,7.66 0.347,4.179 1.392,11.84 0,16.366 -1.219,3.96 0.347,6.268 2.785,5.571 z"
       style="fill:none;stroke:#231f20;stroke-width:0.5;stroke-linecap:round;stroke-linejoin:round;stroke-miterlimit:4;stroke-dasharray:2.8, 1.8;stroke-dashoffset:0;stroke-opacity:1"
       id="path892" />
    <path
       d="m 339.778,651.331 c -5.57,1.06 -7.661,-1.742 -9.75,-9.054 -2.09,-7.313 -2.786,-13.233 -4.179,-16.019 -1.392,-2.785 -8.357,-12.187 -7.661,-17.062 0.696,-4.875 5.571,-8.357 13.232,-10.446 7.662,-2.089 11.839,-2.786 16.714,3.133 4.875,5.92 14.974,16.367 11.144,21.938 -3.831,5.572 -8.358,8.011 -10.099,13.234 -1.741,5.222 -2.089,12.882 -9.401,14.276"
       style="fill:#ffffff;fill-opacity:1;fill-rule:nonzero;stroke:none;stroke-width:0.1"
       id="path894" />
    <path
       d="m 339.778,651.331 c -5.57,1.06 -7.661,-1.742 -9.75,-9.054 -2.09,-7.313 -2.786,-13.233 -4.179,-16.019 -1.392,-2.785 -8.357,-12.187 -7.661,-17.062 0.696,-4.875 5.571,-8.357 13.232,-10.446 7.662,-2.089 11.839,-2.786 16.714,3.133 4.875,5.92 14.974,16.367 11.144,21.938 -3.831,5.572 -8.358,8.011 -10.099,13.234 -1.741,5.222 -2.089,12.882 -9.401,14.276 z"
       style="fill:none;stroke:#231f20;stroke-width:0.5;stroke-linecap:round;stroke-linejoin:round;stroke-miterlimit:4;stroke-dasharray:2.8, 1.8;stroke-dashoffset:0;stroke-opacity:1"
       id="path896" />
    <path
       d="m 377.733,532.241 c 7.312,4.178 33.777,18.107 50.143,32.732 16.366,14.625 13.928,15.669 9.402,21.589 -4.528,5.92 -12.536,6.616 -18.804,4.875 -6.267,-1.741 -19.85,-9.428 -29.6,-15.695"
       style="fill:none;stroke:#231f20;stroke-width:0.5;stroke-linecap:round;stroke-linejoin:round;stroke-miterlimit:4;stroke-dasharray:2.8, 1.8;stroke-dashoffset:0;stroke-opacity:1"
       id="path898" />
    <path
       d="m 490.554,542.339 c 1.045,-3.482 -8.705,-12.536 -11.142,-10.098 -2.438,2.437 2.444,7.933 4.178,9.75 2.438,2.552 6.249,2.734 6.964,0.348 z"
       style="fill:none;stroke:#231f20;stroke-width:0.5;stroke-linecap:round;stroke-linejoin:round;stroke-miterlimit:4;stroke-dasharray:2.8, 1.8;stroke-dashoffset:0;stroke-opacity:1"
       id="path900" />
    <path
       d="m 510.055,552.786 c -2.349,1.632 -14.277,-11.84 -6.965,-20.545"
       style="fill:none;stroke:#231f20;stroke-width:0.5;stroke-linecap:round;stroke-linejoin:round;stroke-miterlimit:4;stroke-dasharray:2.8, 1.8;stroke-dashoffset:0;stroke-opacity:1"
       id="path902" />
    <path
       d="m 526.532,530.128 c -2.897,-2.415 -10.256,-5.2 -16.175,-3.459"
       style="fill:none;stroke:#231f20;stroke-width:0.5;stroke-linecap:round;stroke-linejoin:round;stroke-miterlimit:4;stroke-dasharray:2.8, 1.8;stroke-dashoffset:0;stroke-opacity:1"
       id="path904" />
    <path
       d="m 526.545,526.646 c 2.313,3.854 13.457,4.55 13.457,-6.593 0,-9.402 -8.707,-8.357 -12.314,-6.307"
       style="fill:none;stroke:#231f20;stroke-width:0.5;stroke-linecap:round;stroke-linejoin:round;stroke-miterlimit:4;stroke-dasharray:2.8, 1.8;stroke-dashoffset:0;stroke-opacity:1"
       id="path906" />
    <path
       d="m 530.563,480.739 c -6.928,-2.82 -15.285,-1.776 -22.945,-0.034 -7.661,1.741 -16.474,1.741 -18.911,11.491"
       style="fill:none;stroke:#231f20;stroke-width:0.5;stroke-linecap:round;stroke-linejoin:round;stroke-miterlimit:4;stroke-dasharray:2.8, 1.8;stroke-dashoffset:0;stroke-opacity:1"
       id="path908" />
    <path
       d="m 397.958,507.776 c 8.329,-2.93 11.811,-7.571 11.811,-10.009 0,-2.437 -7.027,-11.34 -24.786,-13.429"
       style="fill:none;stroke:#231f20;stroke-width:0.5;stroke-linecap:round;stroke-linejoin:round;stroke-miterlimit:4;stroke-dasharray:2.8, 1.8;stroke-dashoffset:0;stroke-opacity:1"
       id="path910" />
    <path
       d="m 464.463,481.265 c -3.159,-8.569 -13.256,-38.864 -21.962,-54.882"
       style="fill:none;stroke:#231f20;stroke-width:0.5;stroke-linecap:round;stroke-linejoin:round;stroke-miterlimit:4;stroke-dasharray:2.8, 1.8;stroke-dashoffset:0;stroke-opacity:1"
       id="path912" />
    <path
       d="m 438.468,501.181 c -3.976,-11.77 -10.244,-21.869 -16.511,-31.27 -6.269,-9.403 -13.929,-26.542 -18.108,-35.596"
       style="fill:none;stroke:#231f20;stroke-width:0.5;stroke-linecap:round;stroke-linejoin:round;stroke-miterlimit:4;stroke-dasharray:2.8, 1.8;stroke-dashoffset:0;stroke-opacity:1"
       id="path914" />
    <path
       d="m 444.242,454.241 c 0.348,-4.875 -5.223,-9.054 -11.143,-6.269 -5.92,2.786 -4.526,10.099 0.696,11.491 5.224,1.394 10.124,-0.707 10.447,-5.222 z"
       style="fill:none;stroke:#231f20;stroke-width:0.5;stroke-linecap:round;stroke-linejoin:round;stroke-miterlimit:4;stroke-dasharray:2.8, 1.8;stroke-dashoffset:0;stroke-opacity:1"
       id="path916" />
    <path
       d="m 483.939,378.678 c 5.223,3.83 17.062,12.188 27.509,19.848 10.446,7.661 24.375,13.232 28.554,13.232 4.178,0 18.106,-5.571 28.553,-13.232 10.447,-7.66 22.285,-16.018 27.509,-19.848"
       style="fill:none;stroke:#231f20;stroke-width:0.5;stroke-linecap:round;stroke-linejoin:round;stroke-miterlimit:4;stroke-dasharray:2.8, 1.8;stroke-dashoffset:0;stroke-opacity:1"
       id="path918" />
    <path
       d="m 450.271,420.463 c 9.053,2.09 47.248,-4.526 61.177,-21.937"
       style="fill:none;stroke:#231f20;stroke-width:0.5;stroke-linecap:round;stroke-linejoin:round;stroke-miterlimit:4;stroke-dasharray:2.8, 1.8;stroke-dashoffset:0;stroke-opacity:1"
       id="path920" />
    <path
       d="m 500.304,367.187 c 9.403,20.544 35.519,30.294 39.698,30.294 4.178,0 30.293,-9.75 39.696,-30.294"
       style="fill:none;stroke:#231f20;stroke-width:0.5;stroke-linecap:round;stroke-linejoin:round;stroke-miterlimit:4;stroke-dasharray:2.8, 1.8;stroke-dashoffset:6.9725;stroke-opacity:1"
       id="path922" />
    <path
       d="m 500.304,367.187 c -2.089,1.741 -9.053,5.919 -24.722,0.348"
       style="fill:none;stroke:#231f20;stroke-width:0.5;stroke-linecap:round;stroke-linejoin:round;stroke-miterlimit:4;stroke-dasharray:2.8, 1.8;stroke-dashoffset:0;stroke-opacity:1"
       id="path924" />
    <path
       d="m 483.939,378.678 c -2.09,3.134 -13.581,11.143 -22.635,11.49"
       style="fill:none;stroke:#231f20;stroke-width:0.5;stroke-linecap:round;stroke-linejoin:round;stroke-miterlimit:4;stroke-dasharray:2.8, 1.8;stroke-dashoffset:0;stroke-opacity:1"
       id="path926" />
    <path
       d="m 463.742,364.053 c -5.919,-5.223 -11.143,-8.01 -15.322,-8.357 -4.178,-0.349 -15.67,0.752 -12.535,10.502"
       style="fill:none;stroke:#231f20;stroke-width:0.5;stroke-linecap:round;stroke-linejoin:round;stroke-miterlimit:4;stroke-dasharray:2.8, 1.8;stroke-dashoffset:0;stroke-opacity:1"
       id="path928" />
    <path
       d="m 469.314,375.543 c -3.135,-2.437 -9.129,-8.442 -5.572,-11.49 2.437,-2.09 8.357,0.697 11.84,3.482 3.482,2.786 9.75,8.706 8.357,11.143 -1.593,2.787 -8.357,1.74 -14.625,-3.135 z"
       style="fill:none;stroke:#231f20;stroke-width:0.5;stroke-linecap:round;stroke-linejoin:round;stroke-miterlimit:4;stroke-dasharray:2.8, 1.8;stroke-dashoffset:0;stroke-opacity:1"
       id="path930" />
    <path
       d="m 389.92,507.866 c 5.92,-5.92 4.528,-12.884 1.045,-16.715 -3.482,-3.83 -11.142,-12.535 -12.883,-16.018 -1.742,-3.482 -6.269,-19.5 -7.313,-27.509 -1.045,-8.008 -3.652,-17.255 -5.224,-19.152 -2.1,-2.535 -4.311,-5.538 -7.445,-7.628"
       style="fill:none;stroke:#231f20;stroke-width:0.5;stroke-linecap:round;stroke-linejoin:round;stroke-miterlimit:4;stroke-dasharray:2.8, 1.8;stroke-dashoffset:0;stroke-opacity:1"
       id="path932" />
    <path
       d="m 362.863,503.268 c 5.12,-0.974 14.87,-15.947 15.219,-28.135"
       style="fill:none;stroke:#231f20;stroke-width:0.5;stroke-linecap:round;stroke-linejoin:round;stroke-miterlimit:4;stroke-dasharray:2.8, 1.8;stroke-dashoffset:0;stroke-opacity:1"
       id="path934" />
    <path
       d="m 334.233,545.12 c -6.643,-0.692 -28.224,-9.365 -41.983,-33.408"
       style="fill:none;stroke:#231f20;stroke-width:0.5;stroke-linecap:round;stroke-linejoin:round;stroke-miterlimit:4;stroke-dasharray:2.8, 1.8;stroke-dashoffset:0;stroke-opacity:1"
       id="path936" />
    <path
       d="m 382.957,421.857 c -0.537,4.03 15.669,17.759 24.375,4.178 0,0 13.58,6.965 35.866,-10.098 0,0 8.356,1.393 11.839,-6.268 3.482,-7.661 2.437,-14.626 0.696,-17.759 0,0 2.437,-3.482 -1.393,-9.402 -3.83,-5.92 -11.142,-11.84 -21.241,-9.402 -10.099,2.437 -12.884,5.572 -14.625,10.447 -1.741,4.875 -0.348,7.66 8.009,7.313 l 2.09,3.134 c 0,0 -11.144,-3.134 -19.153,5.222 0,0 -4.875,-7.312 -15.321,-4.875 -10.446,2.438 -16.369,8.222 -17.411,13.581 -1.042,5.36 2.438,11.839 6.269,13.929 z"
       style="fill:none;stroke:#231f20;stroke-width:0.5;stroke-linecap:round;stroke-linejoin:round;stroke-miterlimit:4;stroke-dasharray:2.8, 1.8;stroke-dashoffset:0;stroke-opacity:1"
       id="path938" />
    <path
       d="m 455.733,391.91 c -1.044,3.482 -2.785,6.964 -7.66,5.223 -4.875,-1.741 -10.447,-6.267 -21.59,-6.267"
       style="fill:none;stroke:#231f20;stroke-width:0.5;stroke-linecap:round;stroke-linejoin:round;stroke-miterlimit:4;stroke-dasharray:2.8, 1.8;stroke-dashoffset:0;stroke-opacity:1"
       id="path940" />
    <path
       d="M 443.198,415.937 C 436.233,414.544 435.885,409.902 428.573,394"
       style="fill:none;stroke:#231f20;stroke-width:0.5;stroke-linecap:round;stroke-linejoin:round;stroke-miterlimit:4;stroke-dasharray:2.8, 1.8;stroke-dashoffset:0;stroke-opacity:1"
       id="path942" />
    <path
       d="m 382.957,421.857 c 4.526,0.348 27.856,-6.269 26.463,-22.635"
       style="fill:none;stroke:#231f20;stroke-width:0.5;stroke-linecap:round;stroke-linejoin:round;stroke-miterlimit:4;stroke-dasharray:2.8, 1.8;stroke-dashoffset:0;stroke-opacity:1"
       id="path944" />
    <path
       d="m 432.403,402.407 c 0.838,2.031 1.392,5.869 -2.786,7.959 -4.179,2.089 -15.354,6.895 -25.958,2.577"
       style="fill:none;stroke:#231f20;stroke-width:0.5;stroke-linecap:round;stroke-linejoin:round;stroke-miterlimit:4;stroke-dasharray:2.8, 1.8;stroke-dashoffset:0;stroke-opacity:1"
       id="path946" />
    <path
       d="m 407.332,426.035 c 1.741,-2.67 0.103,-7.369 -5.521,-11.52"
       style="fill:none;stroke:#231f20;stroke-width:0.5;stroke-linecap:round;stroke-linejoin:round;stroke-miterlimit:4;stroke-dasharray:2.8, 1.8;stroke-dashoffset:0;stroke-opacity:1"
       id="path948" />
    <path
       d="m 394.099,434.044 c 2.089,1.393 3.483,3.83 3.134,5.223 -0.348,1.393 -2.438,2.09 -5.223,0.696 -2.786,-1.392 -18.494,-10.816 -12.903,-17.943"
       style="fill:none;stroke:#231f20;stroke-width:0.5;stroke-linecap:round;stroke-linejoin:round;stroke-miterlimit:4;stroke-dasharray:2.8, 1.8;stroke-dashoffset:0;stroke-opacity:1"
       id="path950" />
    <path
       d="m 336.295,588.303 c 1.393,-0.696 9.054,-4.179 6.964,-7.312 -2.089,-3.134 -4.993,-1.818 -7.66,-3.134 -5.667,-2.797 -11.821,-6.71 -21.937,-20.196 -9.403,-12.537 -10.447,-16.715 -12.99,-33.989"
       style="fill:none;stroke:#231f20;stroke-width:0.5;stroke-linecap:round;stroke-linejoin:round;stroke-miterlimit:4;stroke-dasharray:2.8, 1.8;stroke-dashoffset:0;stroke-opacity:1"
       id="path952" />
    <path
       d="m 342.094,584.723 c -7.191,-1.991 -19.727,-8.259 -23.557,-12.437 -3.83,-4.179 -18.804,-19.153 -24.724,-47.358"
       style="fill:none;stroke:#231f20;stroke-width:0.5;stroke-linecap:round;stroke-linejoin:round;stroke-miterlimit:4;stroke-dasharray:2.8, 1.8;stroke-dashoffset:0;stroke-opacity:1"
       id="path954" />
    <path
       d="m 349.958,591.392 c -0.43,5.269 -12.734,8.287 -14.45,-2.691"
       style="fill:none;stroke:#231f20;stroke-width:0.5;stroke-linecap:round;stroke-linejoin:round;stroke-miterlimit:4;stroke-dasharray:2.8, 1.8;stroke-dashoffset:0;stroke-opacity:1"
       id="path956" />
    <path
       d="m 536.868,379.722 c 1.218,0.871 2.089,1.219 3.134,1.219 1.043,0 1.914,-0.348 3.133,-1.219"
       style="fill:none;stroke:#231f20;stroke-width:0.5;stroke-linecap:round;stroke-linejoin:round;stroke-miterlimit:4;stroke-dasharray:2.8, 1.8;stroke-dashoffset:1.0938;stroke-opacity:1"
       id="path958" />
    <path
       d="m 438.151,637.055 c 1.346,0.153 2.694,0.175 4.002,0 5.223,-0.698 19.807,-5.236 18.333,8.845"
       style="fill:none;stroke:#231f20;stroke-width:0.5;stroke-linecap:round;stroke-linejoin:round;stroke-miterlimit:4;stroke-dasharray:2.8, 1.8;stroke-dashoffset:0;stroke-opacity:1"
       id="path960" />
    <path
       d="m 457.945,657.219 c -0.819,4.209 -6.738,15.004 -11.266,15.004 -4.526,0 -11.491,-6.267 -18.106,-10.099 -6.616,-3.83 -30.991,-11.491 -39,-14.276 -8.01,-2.786 -12.885,-8.357 -11.84,-13.232 1.045,-4.875 3.83,-8.009 7.312,-8.705"
       style="fill:none;stroke:#231f20;stroke-width:0.5;stroke-linecap:round;stroke-linejoin:round;stroke-miterlimit:4;stroke-dasharray:2.8, 1.8;stroke-dashoffset:0;stroke-opacity:1"
       id="path962" />
    <path
       d="m 764.948,481.75 c -0.696,4.526 2.09,9.75 6.616,9.401 4.527,-0.348 16.602,-5.43 14.933,-12.594"
       style="fill:none;stroke:#231f20;stroke-width:0.5;stroke-linecap:round;stroke-linejoin:round;stroke-miterlimit:4;stroke-dasharray:2.8, 1.8;stroke-dashoffset:0;stroke-opacity:1"
       id="path964" />
    <path
       d="m 315.054,481.75 c 0.696,4.526 -2.089,9.75 -6.616,9.401 -4.526,-0.348 -16.603,-5.43 -14.933,-12.594"
       style="fill:none;stroke:#231f20;stroke-width:0.5;stroke-linecap:round;stroke-linejoin:round;stroke-miterlimit:4;stroke-dasharray:2.8, 1.8;stroke-dashoffset:0;stroke-opacity:1"
       id="path966" />
    <path
       d="m 788.382,503.71 c -3.237,7.986 -8.461,17.388 -17.166,23.307 -8.706,5.92 -16.018,8.706 -19.848,4.527 -3.83,-4.178 -5.572,-14.973 -1.393,-24.027"
       style="fill:none;stroke:#231f20;stroke-width:0.5;stroke-linecap:round;stroke-linejoin:round;stroke-miterlimit:4;stroke-dasharray:2.8, 1.8;stroke-dashoffset:0;stroke-opacity:1"
       id="path968" />
    <path
       d="m 291.621,503.71 c 3.237,7.986 8.461,17.388 17.166,23.307 8.705,5.92 16.017,8.706 19.847,4.527 3.831,-4.178 5.573,-14.973 1.394,-24.027"
       style="fill:none;stroke:#231f20;stroke-width:0.5;stroke-linecap:round;stroke-linejoin:round;stroke-miterlimit:4;stroke-dasharray:2.8, 1.8;stroke-dashoffset:0;stroke-opacity:1"
       id="path970" />
    <path
       d="m 480.471,538.188 c -8.009,10.098 -20.559,19.124 -27.872,23.651 -7.312,4.527 -11.142,6.964 -12.535,11.839 -1.394,4.875 6.268,11.143 9.75,13.58 3.481,2.438 6.615,6.269 9.053,6.616 2.437,0.349 9.402,-0.696 14.277,-1.741 1.992,-0.426 3.462,-1.434 4.502,-2.479"
       style="fill:none;stroke:#231f20;stroke-width:0.5;stroke-linecap:round;stroke-linejoin:round;stroke-miterlimit:4;stroke-dasharray:2.8, 1.8;stroke-dashoffset:0;stroke-opacity:1"
       id="path972" />
    <path
       d="m 602.346,589.646 c 1.042,1.046 2.514,2.06 4.513,2.487 4.875,1.045 11.839,2.09 14.276,1.741 2.438,-0.347 5.572,-4.178 9.054,-6.616 3.482,-2.437 11.143,-8.705 9.75,-13.58 -1.393,-4.875 -5.224,-7.312 -12.536,-11.839 -7.313,-4.527 -19.863,-13.553 -27.872,-23.651"
       style="fill:none;stroke:#231f20;stroke-width:0.5;stroke-linecap:round;stroke-linejoin:round;stroke-miterlimit:4;stroke-dasharray:2.8, 1.8;stroke-dashoffset:0;stroke-opacity:1"
       id="path974" />
    <path
       d="m 595.759,533.511 c 0,0 -2.481,-3.011 -3.525,-4.404"
       style="fill:none;stroke:#231f20;stroke-width:0.5;stroke-linecap:round;stroke-linejoin:round;stroke-miterlimit:4;stroke-dasharray:2.8, 1.8;stroke-dashoffset:0;stroke-opacity:1"
       id="path976" />
    <path
       d="m 484.244,533.511 c 0,0 2.48,-3.011 3.525,-4.404"
       style="fill:none;stroke:#231f20;stroke-width:0.5;stroke-linecap:round;stroke-linejoin:round;stroke-miterlimit:4;stroke-dasharray:2.8, 1.8;stroke-dashoffset:0;stroke-opacity:1"
       id="path978" />
    <path
       d="m 802.904,559.402 c -2.09,-3.483 -1.045,-11.84 1.392,-16.715 2.438,-4.875 12.884,-8.009 20.545,-8.705 7.661,-0.696 22.285,-1.045 28.205,2.785 5.92,3.831 7.662,7.313 7.662,11.491 0,4.179 -9.054,5.572 -16.367,6.965 -7.312,1.393 -21.937,4.527 -35.866,11.839 -13.929,7.312 -26.465,16.366 -30.295,21.59 -3.83,5.222 -1.392,16.017 6.616,12.187 8.009,-3.831 17.412,-12.187 26.813,-16.018 9.401,-3.83 26.116,-12.884 34.821,-14.625 8.706,-1.741 21.59,-4.179 25.072,-5.572 3.482,-1.392 14.624,-10.446 19.848,-10.097 5.224,0.347 11.839,3.134 15.321,3.134 3.483,0 9.403,-1.742 12.884,-8.358 3.483,-6.616 6.965,-17.759 14.625,-17.411 7.661,0.349 16.715,5.224 19.5,10.795 2.786,5.571 1.045,6.268 -4.178,8.705 -5.223,2.438 -8.009,5.572 -8.706,10.795 -0.696,5.224 3.134,7.313 6.617,10.446 3.482,3.134 7.661,11.491 5.223,18.456 -2.437,6.964 -9.75,12.884 -17.759,8.009 -8.009,-4.875 -20.197,-13.581 -28.553,-16.715 -8.358,-3.133 -15.67,-0.696 -18.804,2.786 -3.134,3.483 -8.009,9.75 -1.741,13.581 6.267,3.83 19.5,8.008 25.071,14.277 5.571,6.267 8.705,13.231 0.696,15.321 -8.008,2.089 -22.982,3.483 -37.607,-2.437 -14.625,-5.92 -36.91,-8.705 -44.571,-5.224 -7.66,3.482 -10.795,9.75 -1.742,15.321 9.054,5.573 21.242,11.144 27.858,20.545 6.616,9.403 8.009,13.58 3.83,16.715 -4.178,3.134 -9.401,-1.741 -13.929,-5.92 -4.526,-4.179 -9.75,-11.84 -15.669,-13.929 -5.92,-2.088 -15.32,-3.832 -20.893,-10.098 -5.573,-6.266 -13.928,-19.848 -17.41,-21.24"
       style="fill:none;stroke:#231f20;stroke-width:0.75;stroke-linecap:round;stroke-linejoin:round;stroke-miterlimit:4;stroke-dasharray:0, 2;stroke-dashoffset:0;stroke-opacity:1"
       id="path980" />
    <path
       d="m 540.002,658.294 c -17.412,0 -22.287,-3.83 -39.349,0.349 -22.641,5.545 -27.826,16.191 -30.991,22.285 -3.134,6.036 0.737,7.697 4.527,8.358 3.947,0.688 24.723,5.571 38.651,7.661 13.929,2.089 17.412,2.437 27.162,2.437 9.75,0 13.231,-0.348 27.16,-2.437 13.928,-2.09 34.705,-6.973 38.652,-7.661 3.789,-0.661 7.66,-2.322 4.526,-8.358 -3.165,-6.094 -8.349,-16.74 -30.991,-22.285 -17.062,-4.179 -21.937,-0.349 -39.347,-0.349 z"
       style="fill:none;stroke:#231f20;stroke-width:0.75;stroke-linecap:round;stroke-linejoin:round;stroke-miterlimit:4;stroke-dasharray:0, 2;stroke-dashoffset:0;stroke-opacity:1"
       id="path982" />
    <path
       d="m 495.429,597.357 c 10.795,-20.893 28.554,-37.259 44.573,-37.259 16.017,0 33.776,16.366 44.571,37.259"
       style="fill:none;stroke:#231f20;stroke-width:0.75;stroke-linecap:round;stroke-linejoin:round;stroke-miterlimit:4;stroke-dasharray:0, 2;stroke-dashoffset:0;stroke-opacity:1"
       id="path984" />
    <path
       d="m 277.099,662.821 c -4.527,4.179 -16.715,5.92 -21.241,6.965 -4.527,1.045 -2.438,3.482 -0.349,3.482 5.92,0 8.358,1.044 10.099,5.919 1.741,4.875 -3.134,12.885 -5.92,17.063 -2.785,4.178 -10.795,9.402 -11.143,13.581 -0.348,4.178 -2.786,7.66 -6.267,8.705 -3.483,1.045 -13.581,3.133 -10.099,17.062 3.483,13.929 27.161,51.884 32.384,58.5 5.033,6.375 12.884,12.536 15.67,10.099 2.785,-2.438 -1.741,-9.403 -6.268,-21.59 -4.527,-12.188 -5.92,-27.857 -3.831,-38.304 2.09,-10.446 12.884,-31.687 17.411,-42.134 4.527,-10.446 9.402,-26.812 26.464,-27.508 17.063,-0.697 30.644,21.937 33.081,30.642 2.438,8.706 0,25.769 -10.098,33.778 -10.098,8.008 -12.188,20.892 -15.67,31.687 -3.482,10.795 -6.964,38.651 -6.615,44.571 0.347,5.92 14.625,16.715 25.071,21.938 10.446,5.223 15.321,6.965 18.804,4.179 3.481,-2.787 -1.742,-19.5 -4.179,-28.903 -2.438,-9.401 -3.831,-22.634 5.571,-27.856 9.402,-5.224 23.679,22.285 26.813,30.991 3.133,8.705 4.178,18.804 4.875,27.856 0.696,9.054 11.142,13.929 17.062,17.063 5.92,3.135 11.839,4.875 22.983,7.661 11.142,2.786 24.722,10.446 37.258,14.974 12.536,4.526 21.589,5.222 30.992,5.919 9.401,0.697 33.776,-2.786 40.045,-2.786 6.267,0 30.642,3.483 40.044,2.786 9.402,-0.697 18.456,-1.393 30.991,-5.919 12.536,-4.528 26.116,-12.188 37.259,-14.974 11.143,-2.786 17.063,-4.526 22.982,-7.661 5.92,-3.134 16.366,-8.009 17.062,-17.063 0.698,-9.052 1.742,-19.151 4.875,-27.856 3.135,-8.706 17.411,-36.215 26.814,-30.991 9.401,5.222 8.009,18.455 5.571,27.856 -2.437,9.403 -7.661,26.116 -4.179,28.903 3.483,2.786 8.358,1.044 18.804,-4.179 10.446,-5.223 24.723,-16.018 25.071,-21.938 0.348,-5.92 -3.133,-33.776 -6.616,-44.571 -3.482,-10.795 -5.571,-23.679 -15.67,-31.687 -10.097,-8.009 -12.535,-25.072 -10.097,-33.778 2.437,-8.705 16.017,-31.339 33.08,-30.642 17.062,0.696 21.937,17.062 26.465,27.508 4.526,10.447 15.321,31.688 17.41,42.134 2.09,10.447 0.696,26.116 -3.83,38.304 -4.528,12.187 -9.054,19.152 -6.268,21.59 2.785,2.437 10.637,-3.724 15.669,-10.099 5.224,-6.616 28.902,-44.571 32.384,-58.5 3.482,-13.929 -6.615,-16.017 -10.098,-17.062 -3.482,-1.045 -5.92,-4.527 -6.267,-8.705 -0.349,-4.179 -8.358,-9.403 -11.144,-13.581 -2.785,-4.178 -7.66,-12.188 -5.919,-17.063 1.74,-4.875 4.178,-5.919 10.098,-5.919 2.089,0 4.178,-2.437 -0.348,-3.482 -4.527,-1.045 -16.715,-2.786 -21.241,-6.965"
       style="fill:none;stroke:#231f20;stroke-width:0.75;stroke-linecap:round;stroke-linejoin:round;stroke-miterlimit:4;stroke-dasharray:0, 2;stroke-dashoffset:0;stroke-opacity:1"
       id="path986" />
    <path
       d="m 277.099,559.402 c 2.089,-3.483 1.044,-11.84 -1.393,-16.715 -2.438,-4.875 -12.884,-8.009 -20.544,-8.705 -7.662,-0.696 -22.286,-1.045 -28.206,2.785 -5.919,3.831 -7.661,7.313 -7.661,11.491 0,4.179 9.054,5.572 16.367,6.965 7.312,1.393 21.937,4.527 35.866,11.839 13.928,7.312 26.464,16.366 30.294,21.59 3.831,5.222 1.393,16.017 -6.616,12.187 -8.009,-3.831 -17.411,-12.187 -26.813,-16.018 -9.401,-3.83 -26.115,-12.884 -34.821,-14.625 -8.705,-1.741 -21.589,-4.179 -25.072,-5.572 -3.482,-1.392 -14.624,-10.446 -19.848,-10.097 -5.223,0.347 -11.839,3.134 -15.321,3.134 -3.482,0 -9.402,-1.742 -12.884,-8.358 -3.483,-6.616 -6.964,-17.759 -14.625,-17.411 -7.661,0.349 -16.714,5.224 -19.5,10.795 -2.786,5.571 -1.045,6.268 4.178,8.705 5.223,2.438 8.009,5.572 8.706,10.795 0.696,5.224 -3.134,7.313 -6.617,10.446 -3.481,3.134 -7.66,11.491 -5.222,18.456 2.437,6.964 9.75,12.884 17.759,8.009 8.008,-4.875 20.196,-13.581 28.553,-16.715 8.358,-3.133 15.67,-0.696 18.804,2.786 3.134,3.483 8.009,9.75 1.741,13.581 -6.268,3.83 -19.5,8.008 -25.072,14.277 -5.571,6.267 -8.705,13.231 -0.696,15.321 8.008,2.089 22.982,3.483 37.607,-2.437 14.625,-5.92 36.911,-8.705 44.571,-5.224 7.661,3.482 10.795,9.75 1.742,15.321 -9.054,5.573 -21.242,11.144 -27.858,20.545 -6.616,9.403 -8.009,13.58 -3.83,16.715 4.179,3.134 9.402,-1.741 13.929,-5.92 4.526,-4.179 9.75,-11.84 15.67,-13.929 5.919,-2.088 15.319,-3.832 20.892,-10.098 5.573,-6.266 13.929,-19.848 17.411,-21.24"
       style="fill:none;stroke:#231f20;stroke-width:0.75;stroke-linecap:round;stroke-linejoin:round;stroke-miterlimit:4;stroke-dasharray:0, 2;stroke-dashoffset:0;stroke-opacity:1"
       id="path988" />
    <path
       d="m 540.002,831.009 c -13.929,0 -39.001,1.741 -52.929,0.348 -13.929,-1.393 -25.42,-9.401 -30.991,-14.625 -5.572,-5.223 -8.706,-8.705 -8.706,-13.929 0,-5.222 1.393,-22.285 -0.697,-34.472 -2.089,-12.188 -16.366,-50.144 -22.285,-59.894 -5.92,-9.75 -20.545,-19.151 -27.857,-18.455 -7.313,0.696 -7.661,10.446 -7.661,15.321 0,4.875 5.223,22.634 8.357,34.125 3.134,11.491 1.393,21.59 -0.696,30.991 -2.089,9.403 -1.045,22.983 5.223,35.867 6.268,12.883 28.902,34.821 39.348,43.875 10.446,9.053 19.5,18.456 22.982,19.152 3.483,0.696 18.455,1.393 25.072,1.393 6.616,0 38.303,0.696 50.84,0.696 12.535,0 44.222,-0.696 50.838,-0.696 6.617,0 21.59,-0.697 25.072,-1.393 3.482,-0.696 12.536,-10.099 22.982,-19.152 10.446,-9.054 33.081,-30.992 39.349,-43.875 6.267,-12.884 7.312,-26.464 5.222,-35.867 -2.089,-9.401 -3.83,-19.5 -0.696,-30.991 3.134,-11.491 8.357,-29.25 8.357,-34.125 0,-4.875 -0.348,-14.625 -7.661,-15.321 -7.312,-0.696 -21.937,8.705 -27.856,18.455 -5.92,9.75 -20.197,47.706 -22.286,59.894 -2.089,12.187 -0.697,29.25 -0.697,34.472 0,5.224 -3.133,8.706 -8.705,13.929 -5.572,5.224 -17.062,13.232 -30.991,14.625 -13.928,1.393 -39,-0.348 -52.928,-0.348 z"
       style="fill:none;stroke:#231f20;stroke-width:0.75;stroke-linecap:round;stroke-linejoin:round;stroke-miterlimit:4;stroke-dasharray:0, 2;stroke-dashoffset:0;stroke-opacity:1"
       id="path990" />
  </g>
</svg>
