<?xml version="1.0" encoding="UTF-8" standalone="no"?>
<!-- Created with Inkscape (http://www.inkscape.org/) -->

<svg
   version="1.1"
   id="svg2"
   width="1440"
   height="1344"
   viewBox="0 0 1440 1344"
   xmlns="http://www.w3.org/2000/svg"
   xmlns:svg="http://www.w3.org/2000/svg">
  <defs
     id="defs6" />
  <g
     id="g8">
    <path
       d="m 859.269,615.812 c -1.376,-0.296 -2.713,0.48 -2.979,1.733 -0.272,1.253 0.631,2.507 2.008,2.803 1.381,0.295 2.715,-0.481 2.983,-1.735 0.269,-1.253 -0.631,-2.507 -2.012,-2.801"
       style="fill:#ffffff;fill-opacity:1;fill-rule:nonzero;stroke:none;stroke-width:0.1"
       id="path668" />
    <path
       d="m 859.269,615.812 c -1.376,-0.296 -2.713,0.48 -2.979,1.733 -0.272,1.253 0.631,2.507 2.008,2.803 1.381,0.295 2.715,-0.481 2.983,-1.735 0.269,-1.253 -0.631,-2.507 -2.012,-2.801 z"
       style="fill:none;stroke:#231f20;stroke-width:0.5;stroke-linecap:round;stroke-linejoin:round;stroke-miterlimit:4;stroke-dasharray:none;stroke-opacity:1"
       id="path670" />
    <path
       d="m 220.733,615.812 c 1.377,-0.296 2.714,0.48 2.98,1.733 0.271,1.253 -0.632,2.507 -2.008,2.803 -1.381,0.295 -2.716,-0.481 -2.984,-1.735 -0.269,-1.253 0.631,-2.507 2.012,-2.801"
       style="fill:#ffffff;fill-opacity:1;fill-rule:nonzero;stroke:none;stroke-width:0.1"
       id="path672" />
    <path
       d="m 220.733,615.812 c 1.377,-0.296 2.714,0.48 2.98,1.733 0.271,1.253 -0.632,2.507 -2.008,2.803 -1.381,0.295 -2.716,-0.481 -2.984,-1.735 -0.269,-1.253 0.631,-2.507 2.012,-2.801 z"
       style="fill:none;stroke:#231f20;stroke-width:0.5;stroke-linecap:round;stroke-linejoin:round;stroke-miterlimit:4;stroke-dasharray:none;stroke-opacity:1"
       id="path674" />
    <path
       d="m 540.002,348.731 c -4.876,0 -9.403,-4.178 -11.492,-10.098 -2.09,-5.92 -10.446,-6.965 -27.509,-7.312 -17.062,-0.349 -29.947,4.526 -33.081,6.267 -3.133,1.742 -5.919,1.742 -8.008,1.742 -2.089,0 -14.625,4.875 -20.545,8.008 -5.919,3.134 -21.589,9.75 -27.509,13.929 -5.92,4.179 -26.464,11.491 -31.688,15.321 -2.891,2.121 -8.268,7.374 -17.411,15.322 -7.373,6.409 -17.596,14.184 -27.856,26.464 -22.983,27.509 -10.795,55.018 -10.795,55.018 -15.321,-27.509 -16.018,24.375 -16.018,24.375 -0.348,3.134 -6.268,20.894 -7.312,23.331 -0.316,0.734 -0.979,1.975 -1.922,3.733 -2.19,4.07 -5.888,10.913 -10.266,20.642 -6.268,13.929 3.83,24.375 3.83,24.375 l -2.336,-0.699 c -16.213,-4.564 -55.121,-14.871 -61.387,-16.363 -7.313,-1.742 -16.018,-5.92 -19.5,-5.572 -3.483,0.348 -7.66,3.83 -7.66,3.83 C 210.938,541.642 189,538.508 189,538.508 c 1.045,-0.347 16.714,-6.616 14.277,-22.982 -2.438,-16.365 -35.169,-17.063 -44.571,-15.321 -9.402,1.741 -11.839,6.616 -21.242,8.008 -9.401,1.394 -6.964,2.438 -11.142,4.528 -4.179,2.089 -13.233,2.437 -17.759,18.803 -4.527,16.367 8.357,25.768 8.357,25.768 -9.75,-4.179 -10.447,7.312 -10.447,10.795 0,3.482 -2.437,16.714 -2.089,20.545 0.349,3.83 0.697,14.625 9.402,22.285 8.706,7.661 17.411,2.437 17.411,2.437 -3.83,3.832 -3.83,9.054 -2.438,11.144 1.393,2.089 5.92,5.919 9.402,7.66 3.482,1.741 6.616,2.786 11.839,0.349 5.223,-2.438 13.929,-10.795 36.563,-18.804 29.171,-10.321 41.058,-6.179 43.875,-5.223 3.823,1.294 7.661,6.616 1.393,8.008 -11.8,2.623 -18.107,9.054 -22.982,17.76 -4.875,8.705 -7.661,20.196 -6.268,33.08 1.393,12.884 10.795,9.054 10.795,9.054 0,0 -5.224,6.616 -8.706,10.795 -3.482,4.177 -4.178,7.312 -4.178,18.455 0,11.142 5.92,26.464 8.705,30.642 2.786,4.179 9.402,2.787 9.402,2.787 -5.92,14.276 0,25.767 4.875,34.821 4.875,9.054 16.366,25.071 27.16,35.517 10.795,10.448 27.858,19.849 37.956,21.242 10.098,1.393 18.107,-3.83 18.107,-3.83 0.697,2.437 2.786,7.312 6.616,11.491 3.831,4.178 10.446,6.267 16.019,9.053 5.571,2.786 20.196,11.143 26.115,12.536 5.92,1.393 9.402,4.178 20.545,1.393 11.143,-2.786 11.143,-13.581 11.143,-13.581 0,3.831 2.089,10.795 2.785,14.277 0.697,3.482 9.75,4.527 14.625,6.617 4.875,2.089 24.724,16.365 36.912,20.544 12.187,4.178 30.294,2.437 40.044,1.741 9.75,-0.696 48.402,0 58.501,0 10.097,0 48.75,-0.696 58.5,0 9.75,0.696 27.857,2.437 40.044,-1.741 12.188,-4.179 32.036,-18.455 36.911,-20.544 4.875,-2.09 13.928,-3.135 14.625,-6.617 0.696,-3.482 2.786,-10.446 2.786,-14.277 0,0 0,10.795 11.142,13.581 11.143,2.785 14.625,0 20.545,-1.393 5.92,-1.393 20.545,-9.75 26.116,-12.536 5.572,-2.786 12.188,-4.875 16.018,-9.053 3.83,-4.179 5.92,-9.054 6.616,-11.491 0,0 8.009,5.223 18.108,3.83 10.097,-1.393 27.16,-10.794 37.955,-21.242 10.795,-10.446 22.286,-26.463 27.161,-35.517 4.875,-9.054 10.795,-20.545 4.875,-34.821 0,0 6.616,1.392 9.401,-2.787 2.786,-4.178 8.706,-19.5 8.706,-30.642 0,-11.143 -0.697,-14.278 -4.179,-18.455 -3.482,-4.179 -8.706,-10.795 -8.706,-10.795 0,0 9.403,3.83 10.795,-9.054 1.393,-12.884 -1.392,-24.375 -6.267,-33.08 -4.875,-8.706 -11.183,-15.137 -22.983,-17.76 -6.267,-1.392 -2.337,-6.931 1.393,-8.008 2.858,-0.825 14.704,-5.098 43.875,5.223 22.635,8.009 31.34,16.366 36.563,18.804 5.223,2.437 8.357,1.392 11.839,-0.349 3.483,-1.741 8.009,-5.571 9.402,-7.66 1.393,-2.09 1.393,-7.312 -2.438,-11.144 0,0 8.706,5.224 17.411,-2.437 8.705,-7.66 9.054,-18.455 9.402,-22.285 0.348,-3.831 -2.089,-17.063 -2.089,-20.545 0,-3.483 -0.697,-14.974 -10.447,-10.795 0,0 12.884,-9.401 8.358,-25.768 -4.527,-16.366 -13.581,-16.714 -17.76,-18.803 -4.178,-2.09 -1.74,-3.134 -11.142,-4.528 -9.402,-1.392 -11.839,-6.267 -21.242,-8.008 -9.401,-1.742 -42.133,-1.044 -44.571,15.321 -2.437,16.366 13.233,22.635 14.277,22.982 0,0 -21.938,3.134 -12.536,12.536 0,0 -4.178,-3.482 -7.661,-3.83 -3.481,-0.348 -12.187,3.83 -19.5,5.572 -6.266,1.492 -45.174,11.799 -61.387,16.363 l -2.336,0.699 c 0,0 10.098,-10.446 3.831,-24.375 -4.379,-9.729 -8.078,-16.572 -10.266,-20.642 -0.944,-1.758 -1.606,-2.999 -1.922,-3.733 -1.045,-2.437 -6.965,-20.197 -7.312,-23.331 0,0 -0.697,-51.884 -16.019,-24.375 0,0 12.188,-27.509 -10.794,-55.018 -10.261,-12.28 -20.483,-20.055 -27.857,-26.464 -9.142,-7.948 -14.519,-13.201 -17.411,-15.322 -5.223,-3.83 -25.768,-11.142 -31.688,-15.321 -5.919,-4.179 -21.589,-10.795 -27.509,-13.929 -5.92,-3.133 -18.455,-8.008 -20.545,-8.008 -2.088,0 -4.875,0 -8.008,-1.742 -3.134,-1.741 -16.018,-6.616 -33.08,-6.267 -17.063,0.347 -25.42,1.392 -27.509,7.312 -2.09,5.92 -6.617,10.098 -11.491,10.098"
       style="fill:#ffffff;fill-opacity:1;fill-rule:nonzero;stroke:none;stroke-width:0.1"
       id="path676" />
    <path
       d="m 592.969,591.908 c -2.746,7.32 -10.719,10.789 -19.539,11.252 -8.821,0.464 -14.625,3.715 -19.966,6.036 -5.338,2.321 -9.284,3.947 -13.462,3.947 -4.179,0 -8.126,-1.626 -13.465,-3.947 -5.339,-2.321 -11.144,-5.572 -19.964,-6.036 -8.822,-0.463 -16.793,-3.932 -19.54,-11.252 l -1.354,4.287 c -0.192,8.925 5.092,10.77 7.429,11.143 5.804,0.93 12.071,3.482 14.857,4.412 2.786,0.928 6.733,2.787 10.911,4.179 4.179,1.393 12.303,4.178 21.126,4.178 8.822,0 16.945,-2.785 21.124,-4.178 4.178,-1.392 8.126,-3.251 10.911,-4.179 2.786,-0.93 9.053,-3.482 14.858,-4.412 2.336,-0.373 7.621,-2.218 7.428,-11.143 l -1.354,-4.287"
       style="fill:#d3d2d2;fill-opacity:1;fill-rule:nonzero;stroke:none;stroke-width:0.1"
       id="path678" />
    <path
       d="m 540.002,337.241 c -8.707,0 -6.965,11.49 0,11.49 6.963,0 8.705,-11.49 0,-11.49"
       style="fill:#ffffff;fill-opacity:1;fill-rule:nonzero;stroke:none;stroke-width:0.1"
       id="path680" />
    <path
       d="m 540.002,337.241 c -8.707,0 -6.965,11.49 0,11.49 6.963,0 8.705,-11.49 0,-11.49 z"
       style="fill:none;stroke:#231f20;stroke-width:0.5;stroke-linecap:round;stroke-linejoin:round;stroke-miterlimit:4;stroke-dasharray:none;stroke-opacity:1"
       id="path682" />
    <path
       d="m 961.341,595.267 c -3.83,8.357 -9.75,3.483 -11.491,0.349 -1.741,-3.134 -3.83,-11.492 -13.929,-18.455 -10.097,-6.965 -20.196,-9.054 -34.821,-4.528 -14.625,4.528 -16.366,9.75 -14.625,12.536 1.741,2.786 20.545,3.831 30.295,7.661 9.75,3.831 16.714,11.839 19.5,18.803 2.785,6.965 -5.224,9.054 -9.402,6.269 -4.179,-2.786 -12.884,-7.313 -24.723,-12.188 -11.84,-4.875 -26.465,-5.92 -35.519,-6.616 -9.052,-0.696 -27.856,-2.786 -37.955,1.044 -10.098,3.831 -10.795,9.054 -5.571,16.366 5.223,7.313 18.108,10.795 28.554,14.625 10.446,3.831 12.884,14.974 14.276,18.108 1.394,3.133 1.394,12.883 -1.741,14.277 -3.134,1.393 -8.705,0 -12.535,-2.786 -3.831,-2.786 -10.446,-7.661 -13.581,-9.054 -3.134,-1.392 -14.625,-4.526 -22.982,-9.054 -8.357,-4.526 -11.491,-6.963 -15.321,-13.928 -3.831,-6.964 1.74,-17.41 -8.01,-22.285 -9.75,-4.875 -13.231,1.741 -13.928,8.357 -0.697,6.615 7.313,19.501 8.706,22.287 -16.715,-17.061 -14.278,-30.297 -5.572,-34.823 8.705,-4.527 17.063,0.696 19.848,4.179 2.786,3.482 9.75,13.58 17.411,20.892 7.66,7.313 24.723,17.063 26.464,14.278 1.741,-2.787 -13.929,-10.448 -21.589,-16.019 -7.661,-5.571 -13.232,-17.062 -13.58,-22.982 -0.349,-5.919 18.803,-10.447 27.509,-11.143 8.705,-0.696 24.026,-0.348 42.134,2.437 18.107,2.787 41.089,8.009 41.089,8.009 -6.964,-8.009 -32.384,-11.142 -40.393,-12.187 -8.009,-1.044 -1.045,-8.705 1.741,-11.491 2.786,-2.786 13.274,-7.866 20.196,-10.794 9.054,-3.831 13.929,-6.269 27.509,-2.787 18.259,4.682 24.724,12.884 26.465,18.804 2.438,-13.58 -14.277,-16.017 -21.241,-21.937 -6.964,-5.92 0,-17.063 3.83,-18.455 3.831,-1.394 13.929,-1.394 13.929,-1.394 -1.393,-2.437 -9.75,-3.481 -17.063,-4.526 -7.312,-1.045 -9.401,-5.224 -15.321,-9.75 -5.92,-4.528 -11.491,-2.09 -11.491,-2.09 7.312,2.09 16.017,8.01 18.803,15.322 2.165,5.683 -8.705,12.188 -12.536,13.232 -3.83,1.044 -18.106,6.616 -21.589,8.009 -3.482,1.393 -2.786,5.919 -6.965,6.616 -2.428,0.405 -16.017,3.134 -22.633,4.875 -6.617,1.741 -27.858,5.572 -44.223,6.268 -16.366,0.696 -34.473,-4.527 -36.959,-6.705 2.43,-1.291 4.368,-2.391 5.271,-3.045 l 2.336,-0.699 c 25.25,10.57 57.557,0.351 71.486,-4.525 13.928,-4.874 21.937,-2.437 21.937,-2.437 2.438,-6.268 10.447,-9.054 17.063,-9.75 6.616,-0.696 17.41,-3.134 21.241,-8.009 3.83,-4.875 -11.491,-9.054 -19.849,-11.142 -8.357,-2.09 -11.491,-6.965 -11.491,-12.885 0,-5.919 3.831,-8.009 10.795,-8.705 6.964,-0.696 15.67,-2.089 21.938,0.696 6.267,2.786 9.75,9.402 12.883,10.099 3.134,0.696 10.099,1.392 11.84,2.437 1.741,1.045 13.58,5.223 13.929,14.625 0.348,9.402 -13.929,11.491 -18.456,11.839 -4.526,0.349 -5.223,2.09 -3.134,6.616 2.09,4.528 9.402,8.358 16.366,8.706 6.964,0.348 9.402,2.438 10.099,5.919 0.696,3.483 -1.394,14.278 -5.224,22.634"
       style="fill:#d3d2d2;fill-opacity:1;fill-rule:nonzero;stroke:none;stroke-width:0.1"
       id="path684" />
    <path
       d="m 543.483,348.035 v 1.741 c 0,0 18.456,7.661 23.331,8.357 4.875,0.697 26.812,0 31.339,-1.741 4.527,-1.741 15.458,-7.599 15.042,-18.25"
       style="fill:none;stroke:#231f20;stroke-width:0.5;stroke-linecap:butt;stroke-linejoin:miter;stroke-miterlimit:4;stroke-dasharray:none;stroke-opacity:1"
       id="path686" />
    <path
       d="m 543.483,349.776 v 26.812 c 0,0 10.433,1.393 14.974,1.393 8.357,0 34.821,-12.535 39.696,-21.589"
       style="fill:none;stroke:#231f20;stroke-width:0.5;stroke-linecap:butt;stroke-linejoin:miter;stroke-miterlimit:4;stroke-dasharray:none;stroke-opacity:1"
       id="path688" />
    <path
       d="m 683.465,435.48 c -3.133,1.045 -11.142,2.742 -15.669,2.046 -4.527,-0.696 -22.634,-2.089 -34.473,-13.232"
       style="fill:none;stroke:#231f20;stroke-width:0.25;stroke-linecap:butt;stroke-linejoin:miter;stroke-miterlimit:4;stroke-dasharray:none;stroke-opacity:1"
       id="path690" />
    <path
       d="m 633.323,424.294 c -3.83,-3.831 -16.366,-22.634 -14.277,-36.563 2.089,-13.928 2.186,-26.97 16.018,-31.688 13.832,-4.716 68.285,30.637 79.429,43.521"
       style="fill:none;stroke:#231f20;stroke-width:0.25;stroke-linecap:butt;stroke-linejoin:miter;stroke-miterlimit:4;stroke-dasharray:none;stroke-opacity:1"
       id="path692" />
    <path
       d="m 704.01,421.16 c 0,0 7.158,-4.672 3.134,-18.107 0,0 12.188,-10.795 12.188,5.571 0,16.367 -14.973,23.504 -15.322,12.536 z"
       style="fill:none;stroke:#231f20;stroke-width:0.5;stroke-linecap:butt;stroke-linejoin:miter;stroke-miterlimit:4;stroke-dasharray:none;stroke-opacity:1"
       id="path694" />
    <path
       d="m 727.391,400.557 c -3.532,2.148 -11.889,11.898 -6.666,17.817 5.223,5.92 14.625,13.233 17.063,26.117 2.437,12.883 0.347,21.241 -5.224,29.597 -5.571,8.358 -15.67,21.242 -20.545,26.813 -4.875,5.572 -14.973,15.67 -13.58,22.286 1.393,6.616 4.708,11.232 18.288,8.795"
       style="fill:none;stroke:#231f20;stroke-width:0.5;stroke-linecap:butt;stroke-linejoin:miter;stroke-miterlimit:4;stroke-dasharray:none;stroke-opacity:1"
       id="path696" />
    <path
       d="m 755.894,473.392 c -2.785,6.035 -12.534,22.751 -17.874,30.876 -5.341,8.124 -17.644,23.911 -23.911,30.643 -6.269,6.731 -11.374,11.608 -14.393,16.714 -3.018,5.106 -7.429,13.696 -1.626,21.125 5.805,7.427 19.036,5.803 24.143,1.624 5.108,-4.178 18.804,-18.803 21.59,-29.25 2.785,-10.446 4.875,-34.588 5.107,-39.463 0.233,-4.875 1.538,-18.542 5.297,-28.931"
       style="fill:none;stroke:#231f20;stroke-width:0.5;stroke-linecap:butt;stroke-linejoin:miter;stroke-miterlimit:4;stroke-dasharray:none;stroke-opacity:1"
       id="path698" />
    <path
       d="m 771.897,497.078 c -1.145,9.279 -6.472,28.453 -16.003,27.154 -5.107,-0.696 -5.903,-20.148 -6.085,-27.833"
       style="fill:none;stroke:#231f20;stroke-width:0.5;stroke-linecap:butt;stroke-linejoin:miter;stroke-miterlimit:4;stroke-dasharray:none;stroke-opacity:1"
       id="path700" />
    <path
       d="m 566.698,560.213 c 0,0 9.75,11.142 12.304,13.929 2.552,2.787 8.124,9.054 10.91,10.91"
       style="fill:none;stroke:#231f20;stroke-width:0.75;stroke-linecap:round;stroke-linejoin:round;stroke-miterlimit:4;stroke-dasharray:none;stroke-opacity:1"
       id="path702" />
    <path
       d="m 648.644,580.412 c 0,0 0.696,-7.894 0.696,-10.68 0,0 11.144,-2.496 12.536,6.035 0.793,4.857 -13.232,4.645 -13.232,4.645 z"
       style="fill:none;stroke:#231f20;stroke-width:0.5;stroke-linecap:butt;stroke-linejoin:miter;stroke-miterlimit:4;stroke-dasharray:none;stroke-opacity:1"
       id="path704" />
    <path
       d="m 674.5,617.716 c 3.178,-1.409 15.698,-2.717 19.179,-2.717 3.483,0 18.34,0.696 23.912,-0.231 5.572,-0.928 11.375,-1.625 14.625,-0.928 3.249,0.697 8.125,4.874 4.411,7.66 -3.714,2.786 -9.981,3.946 -18.803,3.714 -8.822,-0.232 -15.324,0.928 -22.055,2.089 -6.731,1.161 -17.643,-1.625 -21.124,-3.017 -3.482,-1.393 -4.698,-4.549 -0.145,-6.57 z"
       style="fill:none;stroke:#231f20;stroke-width:0.5;stroke-linecap:butt;stroke-linejoin:miter;stroke-miterlimit:4;stroke-dasharray:none;stroke-opacity:1"
       id="path706" />
    <path
       d="m 708.3,582.267 c 1.16,2.089 9.988,1.393 13.469,0 3.483,-1.393 12.304,-7.429 0.464,-7.893"
       style="fill:none;stroke:#231f20;stroke-width:0.5;stroke-linecap:butt;stroke-linejoin:miter;stroke-miterlimit:4;stroke-dasharray:none;stroke-opacity:1"
       id="path708" />
    <path
       d="m 692.868,847.723 c 0.347,-3.134 0.696,-9.401 0.696,-11.491"
       style="fill:none;stroke:#231f20;stroke-width:0.5;stroke-linecap:butt;stroke-linejoin:miter;stroke-miterlimit:4;stroke-dasharray:none;stroke-opacity:1"
       id="path710" />
    <path
       d="m 773.305,826.831 c 2.089,-6.617 0.697,-19.153 -0.696,-26.117 -1.393,-6.964 -3.483,-24.723 -4.875,-32.383 -1.393,-7.662 -1.741,-14.278 -10.099,-24.028 -8.885,-10.365 -18.803,-14.625 -19.5,-25.071"
       style="fill:none;stroke:#231f20;stroke-width:0.5;stroke-linecap:butt;stroke-linejoin:miter;stroke-miterlimit:4;stroke-dasharray:none;stroke-opacity:1"
       id="path712" />
    <path
       d="M 861.404,739.081 C 856.18,735.947 847.126,725.848 842.6,715.75 838.073,705.652 829.368,689.982 823.796,686.152"
       style="fill:none;stroke:#231f20;stroke-width:0.5;stroke-linecap:butt;stroke-linejoin:miter;stroke-miterlimit:4;stroke-dasharray:none;stroke-opacity:1"
       id="path714" />
    <path
       d="m 955.421,561.491 c 2.438,-0.697 6.253,-2.665 8.395,-4.776"
       style="fill:none;stroke:#231f20;stroke-width:0.5;stroke-linecap:butt;stroke-linejoin:miter;stroke-miterlimit:4;stroke-dasharray:none;stroke-opacity:1"
       id="path716" />
    <path
       d="m 891.002,538.508 c 3.482,1.045 11.839,4.179 18.803,4.179"
       style="fill:none;stroke:#231f20;stroke-width:0.5;stroke-linecap:butt;stroke-linejoin:miter;stroke-miterlimit:4;stroke-dasharray:none;stroke-opacity:1"
       id="path718" />
    <path
       d="m 948.805,613.374 c -3.481,-2.785 -7.66,-11.838 -12.187,-17.062 -4.527,-5.223 -12.188,-17.062 -31.339,-18.107"
       style="fill:none;stroke:#231f20;stroke-width:0.5;stroke-linecap:butt;stroke-linejoin:miter;stroke-miterlimit:4;stroke-dasharray:none;stroke-opacity:1"
       id="path720" />
    <path
       d="m 934.529,561.491 c 6.964,5.92 23.679,8.357 21.241,21.937 -1.741,-5.92 -8.206,-14.122 -26.465,-18.804 -13.58,-3.482 -18.455,-1.044 -27.509,2.787 -6.922,2.928 -17.41,8.008 -20.196,10.794 -2.786,2.786 -9.75,10.447 -1.741,11.491 8.009,1.045 33.429,4.178 40.393,12.187 0,0 -22.982,-5.222 -41.089,-8.009 -18.108,-2.785 -33.429,-3.133 -42.134,-2.437 -8.706,0.696 -27.858,5.224 -27.509,11.143 0.348,5.92 5.919,17.411 13.58,22.982 7.66,5.571 23.33,13.232 21.589,16.019 -1.741,2.785 -18.804,-6.965 -26.464,-14.278 -7.661,-7.312 -14.625,-17.41 -17.411,-20.892 -2.785,-3.483 -11.143,-8.706 -19.848,-4.179 -8.706,4.526 -11.143,17.762 5.572,34.823 2.088,4.876 6.936,11.164 12.535,16.713 6.493,6.434 10.089,4.873 12.187,4.875 2.09,1.74 8.706,3.83 8.706,3.83 0,0 -5.223,-1.045 -16.018,6.964 -10.794,8.01 -9.402,20.894 -8.357,25.769 1.044,4.875 13.232,36.91 17.063,45.963 3.83,9.054 11.491,28.206 12.535,29.947 0,0 -0.696,1.741 -2.089,2.786 -1.392,1.045 -5.224,5.223 -5.92,8.009 -0.696,2.786 -2.089,2.437 -3.134,3.482 0,0 0.476,-6.144 -0.696,-12.884 -1.392,-8.009 -4.179,-19.5 -10.446,-35.866 -6.269,-16.366 -15.322,-36.215 -29.25,-45.269 -13.929,-9.052 -24.375,-11.142 -36.911,-2.088 -12.536,9.053 -35.17,35.517 -40.045,49.098 -4.875,13.58 -2.438,30.643 -1.741,37.259 0.696,6.616 2.786,14.276 12.187,17.41 9.402,3.135 15.322,10.099 17.76,15.322 2.437,5.223 4.526,13.232 4.526,19.848 0,0 -6.616,-18.804 -16.715,-24.026 -10.097,-5.224 -16.365,-8.358 -28.552,5.571 -12.188,13.929 -28.206,32.384 -33.081,38.304 -4.875,5.92 -18.804,17.41 -27.509,18.107 -8.705,0.696 -16.366,0.696 -26.116,1.393 -9.75,0.696 -26.813,2.089 -32.733,2.785 -5.919,0.697 -14.972,-2.089 -24.722,-2.089 -9.75,0 -18.804,2.786 -24.724,2.089 -5.92,-0.696 -22.983,-2.089 -32.733,-2.785 -9.75,-0.697 -17.41,-0.697 -26.116,-1.393 -8.705,-0.697 -22.634,-12.187 -27.509,-18.107 -4.875,-5.92 -20.892,-24.375 -33.08,-38.304 -12.187,-13.929 -18.455,-10.795 -28.553,-5.571 -10.099,5.222 -16.715,24.026 -16.715,24.026 0,-6.616 2.09,-14.625 4.527,-19.848 2.438,-5.223 8.358,-12.187 17.759,-15.322 9.402,-3.134 11.491,-10.794 12.187,-17.41 0.697,-6.616 3.134,-23.679 -1.741,-37.259 -4.875,-13.581 -27.509,-40.045 -40.045,-49.098 -12.535,-9.054 -22.981,-6.964 -36.91,2.088 -13.929,9.054 -22.982,28.903 -29.25,45.269 -6.268,16.366 -9.054,27.857 -10.446,35.866 -1.173,6.74 -0.697,12.884 -0.697,12.884 -1.044,-1.045 -2.438,-0.696 -3.134,-3.482 -0.696,-2.786 -4.527,-6.964 -5.919,-8.009 -1.394,-1.045 -2.09,-2.786 -2.09,-2.786 1.045,-1.741 8.705,-20.893 12.536,-29.947 3.83,-9.053 16.018,-41.088 17.063,-45.963 1.044,-4.875 2.437,-17.759 -8.358,-25.769 -10.795,-8.009 -16.017,-6.964 -16.017,-6.964 0,0 6.616,-2.09 8.705,-3.83 2.098,-0.002 5.695,1.559 12.187,-4.875 5.599,-5.549 10.447,-11.837 12.536,-16.713 16.714,-17.061 14.277,-30.297 5.572,-34.823 -8.706,-4.527 -17.063,0.696 -19.849,4.179 -2.785,3.482 -9.75,13.58 -17.41,20.892 -7.661,7.313 -24.724,17.063 -26.465,14.278 -1.741,-2.787 13.929,-10.448 21.59,-16.019 7.66,-5.571 13.231,-17.062 13.58,-22.982 0.348,-5.919 -18.804,-10.447 -27.509,-11.143 -8.706,-0.696 -24.027,-0.348 -42.135,2.437 -18.106,2.787 -41.089,8.009 -41.089,8.009 6.964,-8.009 32.384,-11.142 40.393,-12.187 8.009,-1.044 1.045,-8.705 -1.741,-11.491 -2.785,-2.786 -13.273,-7.866 -20.196,-10.794 -9.054,-3.831 -13.929,-6.269 -27.509,-2.787 -18.258,4.682 -24.724,12.884 -26.464,18.804 -2.438,-13.58 14.276,-16.017 21.24,-21.937 6.965,-5.92 0,-17.063 -3.83,-18.455 -3.83,-1.394 -13.929,-1.394 -13.929,-1.394 1.394,-2.437 9.75,-3.481 17.063,-4.526 7.312,-1.045 9.402,-5.224 15.322,-9.75 5.919,-4.528 11.49,-2.09 11.49,-2.09 -7.312,2.09 -16.017,8.01 -18.803,15.322 -2.165,5.683 8.706,12.188 12.536,13.232 3.83,1.044 18.107,6.616 21.59,8.009 3.481,1.393 2.785,5.919 6.964,6.616 2.429,0.405 16.017,3.134 22.633,4.875 6.617,1.741 27.858,5.572 44.224,6.268 16.366,0.696 34.472,-4.527 36.958,-6.705 6.619,3.521 16.923,8.48 20.149,9.839 4.179,2.32 11.374,6.035 16.482,7.195 2.308,0.526 5.302,1.263 8.289,1.989 -24.575,-0.539 -20.592,5.672 -20.592,5.672 -6.501,-2.786 -8.821,4.412 -8.59,10.447 0.231,6.036 3.947,23.215 5.34,28.09 1.393,4.875 6.035,5.338 7.195,5.803 1.161,0.465 10.523,6.372 14.469,8.925 3.946,2.554 13.389,7.093 18.729,8.95 5.34,1.858 6.268,-4.411 6.268,-4.411 16.714,4.179 42.713,8.59 47.357,9.519 4.644,0.928 19.501,6.036 21.589,6.963 2.089,0.929 3.713,1.162 4.411,0.233 0.696,-0.929 6.5,-9.983 7.196,-14.857 0.696,-4.876 2.09,-10.214 -2.785,-19.5 -4.875,-9.286 -20.894,-16.018 -20.894,-16.018 7.429,-0.232 14.161,-9.75 14.393,-12.767 0.2,-2.612 -3.071,-18.068 -4.709,-25.651 2.437,2.381 5.175,3.365 5.175,3.365 15.786,6.964 33.427,9.75 48.516,9.516 -0.121,5.615 1.925,8.426 4.043,9.832 h -10e-4 c -4.084,-0.615 -10.309,-1.706 -16.345,-3.795 -6.035,-2.09 -21.358,-2.555 -28.089,-2.32 -6.732,0.23 -6.036,3.248 -4.179,8.588 1.856,5.34 6.965,17.874 11.84,30.178 4.875,12.303 8.124,19.268 14.625,20.661 6.5,1.393 9.982,-3.017 18.106,-7.892 8.125,-4.875 12.769,-9.286 19.268,-17.876 6.499,-8.589 5.108,-16.714 3.018,-21.821 2.786,0.928 6.734,2.787 10.912,4.179 4.178,1.393 12.302,4.178 21.125,4.178 8.822,0 16.945,-2.785 21.124,-4.178 4.178,-1.392 8.126,-3.251 10.911,-4.179 -2.089,5.107 -3.481,13.232 3.018,21.821 6.499,8.59 11.143,13.001 19.268,17.876 8.125,4.875 11.606,9.285 18.107,7.892 6.5,-1.393 9.75,-8.358 14.625,-20.661 4.875,-12.304 9.983,-24.838 11.839,-30.178 1.856,-5.34 2.554,-8.358 -4.179,-8.588 -6.731,-0.235 -22.053,0.23 -28.089,2.32 -6.036,2.089 -12.261,3.18 -16.344,3.795 h -0.002 c 2.118,-1.406 4.164,-4.217 4.043,-9.832 15.089,0.234 32.73,-2.552 48.517,-9.516 0,0 2.737,-0.984 5.174,-3.365 -1.638,7.583 -4.909,23.039 -4.709,25.651 0.232,3.017 6.965,12.535 14.393,12.767 0,0 -16.018,6.732 -20.893,16.018 -4.875,9.286 -3.482,14.624 -2.786,19.5 0.696,4.874 6.501,13.928 7.197,14.857 0.697,0.929 2.321,0.696 4.41,-0.233 2.089,-0.927 16.946,-6.035 21.589,-6.963 4.644,-0.929 30.643,-5.34 47.358,-9.519 0,0 0.927,6.269 6.267,4.411 5.34,-1.857 14.784,-6.396 18.729,-8.95 3.946,-2.553 13.308,-8.46 14.469,-8.925 1.16,-0.465 5.802,-0.928 7.195,-5.803 1.393,-4.875 5.109,-22.054 5.341,-28.09 0.231,-6.035 -2.09,-13.233 -8.59,-10.447 0,0 3.982,-6.211 -20.593,-5.672 2.987,-0.726 5.982,-1.463 8.289,-1.989 5.109,-1.16 12.304,-4.875 16.483,-7.195 3.226,-1.359 13.53,-6.318 20.148,-9.839 2.486,2.178 20.593,7.401 36.959,6.705 16.365,-0.696 37.606,-4.527 44.223,-6.268 6.616,-1.741 20.205,-4.47 22.633,-4.875 4.179,-0.697 3.483,-5.223 6.965,-6.616 3.483,-1.393 17.759,-6.965 21.589,-8.009 3.831,-1.044 14.701,-7.549 12.536,-13.232 -2.786,-7.312 -11.491,-13.232 -18.803,-15.322 0,0 5.571,-2.438 11.491,2.09 5.92,4.526 8.009,8.705 15.321,9.75 7.313,1.045 15.67,2.089 17.063,4.526 0,0 -10.098,0 -13.929,1.394 -3.83,1.392 -10.794,12.535 -3.83,18.455 z M 596.064,669.089 c -2.786,-3.831 -5.224,-5.571 -8.705,-7.312 -3.483,-1.741 -8.357,-7.661 -10.099,-10.099 -1.741,-2.437 -16.715,-22.982 -37.258,-22.982 -20.545,0 -35.519,20.545 -37.26,22.982 -1.741,2.438 -6.616,8.358 -10.098,10.099 -3.482,1.741 -5.92,3.481 -8.705,7.312 -2.786,3.83 2.089,6.617 5.223,8.358 3.133,1.74 9.75,-0.697 12.536,-0.697 2.785,0 10.446,4.527 14.972,5.919 4.528,1.393 17.412,2.438 23.332,2.438 5.918,0 18.803,-1.045 23.33,-2.438 4.526,-1.392 12.187,-5.919 14.973,-5.919 2.785,0 9.402,2.437 12.535,0.697 3.134,-1.741 8.009,-4.528 5.224,-8.358 z m 92.974,26.464 c -12.188,-12.187 -31.688,-3.83 -43.876,-0.347 -12.188,3.481 -17.41,5.571 -24.723,5.571 -3.847,0 -12.187,4.875 -23.33,6.616 -11.144,1.741 -20.726,-1.21 -28.554,-4.179 -10.098,-3.83 -24.375,-1.392 -28.553,-1.392 -4.179,0 -18.457,-2.438 -28.554,1.392 -7.828,2.969 -17.411,5.92 -28.554,4.179 -11.143,-1.741 -19.483,-6.616 -23.33,-6.616 -7.313,0 -12.536,-2.09 -24.724,-5.571 -12.187,-3.483 -31.687,-11.84 -43.875,0.347 -12.187,12.188 1.742,45.616 5.223,55.019 3.482,9.401 3.135,26.464 2.786,39 -0.348,12.535 2.786,16.017 10.446,27.857 7.662,11.839 24.724,30.643 29.599,35.865 4.875,5.224 19.151,10.099 22.982,10.448 3.831,0.347 18.456,1.044 24.027,1.74 5.571,0.697 28.554,1.741 31.687,1.741 3.134,0 17.411,-2.089 22.287,-2.089 4.874,0 19.151,2.089 22.285,2.089 3.133,0 26.116,-1.044 31.687,-1.741 5.572,-0.696 20.197,-1.393 24.028,-1.74 3.83,-0.349 18.107,-5.224 22.982,-10.448 4.875,-5.222 21.937,-24.026 29.598,-35.865 7.661,-11.84 10.794,-15.322 10.446,-27.857 -0.348,-12.536 -0.696,-29.599 2.786,-39 3.482,-9.403 17.411,-42.831 5.224,-55.019"
       style="fill:#b2b1b1;fill-opacity:1;fill-rule:nonzero;stroke:none;stroke-width:0.1"
       id="path722" />
    <path
       d="m 590.84,677.447 c -3.133,1.74 -9.75,-0.697 -12.535,-0.697 -2.786,0 -10.447,4.527 -14.973,5.919 -4.527,1.393 -17.412,2.438 -23.33,2.438 -5.92,0 -18.804,-1.045 -23.332,-2.438 -4.526,-1.392 -12.187,-5.919 -14.972,-5.919 -2.786,0 -9.403,2.437 -12.536,0.697 -3.134,-1.741 -8.009,-4.528 -5.223,-8.358 2.785,-3.831 5.223,-5.571 8.705,-7.312 3.482,-1.741 8.357,-7.661 10.098,-10.099 1.741,-2.437 16.715,-22.982 37.26,-22.982 20.543,0 35.517,20.545 37.258,22.982 1.742,2.438 6.616,8.358 10.099,10.099 3.481,1.741 5.919,3.481 8.705,7.312 2.785,3.83 -2.09,6.617 -5.224,8.358 z m -19.5,-26.465 c -7.312,-8.009 -16.714,-13.927 -31.338,-13.927 -14.626,0 -24.028,5.918 -31.34,13.927 -7.313,8.009 -1.044,12.536 4.875,14.625 5.92,2.089 20.893,1.393 26.465,1.393 5.571,0 20.543,0.696 26.463,-1.393 5.92,-2.089 12.188,-6.616 4.875,-14.625"
       style="fill:#d3d2d2;fill-opacity:1;fill-rule:nonzero;stroke:none;stroke-width:0.1"
       id="path724" />
    <path
       d="m 683.814,750.572 c -3.482,9.401 -3.134,26.464 -2.786,39 0.348,12.535 -2.785,16.017 -10.446,27.857 -7.661,11.839 -24.723,30.643 -29.598,35.865 -4.875,5.224 -19.152,10.099 -22.982,10.448 -3.831,0.347 -18.456,1.044 -24.028,1.74 -5.571,0.697 -28.554,1.741 -31.687,1.741 -3.134,0 -17.411,-2.089 -22.285,-2.089 -4.876,0 -19.153,2.089 -22.287,2.089 -3.133,0 -26.116,-1.044 -31.687,-1.741 -5.571,-0.696 -20.196,-1.393 -24.027,-1.74 -3.831,-0.349 -18.107,-5.224 -22.982,-10.448 -4.875,-5.222 -21.937,-24.026 -29.599,-35.865 -7.66,-11.84 -10.794,-15.322 -10.446,-27.857 0.349,-12.536 0.696,-29.599 -2.786,-39 -3.481,-9.403 -17.41,-42.831 -5.223,-55.019 12.188,-12.187 31.688,-3.83 43.875,-0.347 12.188,3.481 17.411,5.571 24.724,5.571 3.847,0 12.187,4.875 23.33,6.616 11.143,1.741 20.726,-1.21 28.554,-4.179 10.097,-3.83 24.375,-1.392 28.554,-1.392 4.178,0 18.455,-2.438 28.553,1.392 7.828,2.969 17.41,5.92 28.554,4.179 11.143,-1.741 19.483,-6.616 23.33,-6.616 7.313,0 12.535,-2.09 24.723,-5.571 12.188,-3.483 31.688,-11.84 43.876,0.347 12.187,12.188 -1.742,45.616 -5.224,55.019 z m -25.071,-55.366 c -14.278,2.785 -19.5,8.356 -26.117,12.187 -6.616,3.83 -12.536,5.571 -14.624,6.268 -2.09,0.696 -2.438,1.392 -6.268,6.963 -3.831,5.573 -11.133,18.041 -29.947,17.76 -23.33,-0.348 -36.563,-6.616 -41.785,-6.616 -5.224,0 -18.457,6.268 -41.787,6.616 -18.814,0.281 -26.116,-12.187 -29.946,-17.76 -3.83,-5.571 -4.179,-6.267 -6.268,-6.963 -2.089,-0.697 -8.009,-2.438 -14.625,-6.268 -6.616,-3.831 -11.839,-9.402 -26.116,-12.187 -19.506,-3.807 -19.5,12.883 -17.411,19.151 2.089,6.267 15.67,30.643 19.151,41.09 3.483,10.446 0,23.33 -5.571,32.384 -5.571,9.053 -0.696,18.455 6.616,28.901 7.313,10.447 28.206,30.991 36.912,34.822 8.705,3.83 19.151,3.482 21.937,3.83 2.785,0.348 6.964,2.438 16.366,2.089 4.885,-0.181 29.598,-2.089 40.742,-2.089 11.142,0 35.856,1.908 40.741,2.089 9.401,0.349 13.58,-1.741 16.366,-2.089 2.785,-0.348 13.231,0 21.937,-3.83 8.706,-3.831 29.598,-24.375 36.911,-34.822 7.312,-10.446 12.187,-19.848 6.616,-28.901 -5.571,-9.054 -9.054,-21.938 -5.571,-32.384 3.482,-10.447 17.062,-34.823 19.151,-41.09 2.09,-6.268 2.095,-22.958 -17.41,-19.151"
       style="fill:#d3d2d2;fill-opacity:1;fill-rule:nonzero;stroke:none;stroke-width:0.1"
       id="path726" />
    <path
       d="m 861.752,718.536 c -4.527,0.348 -8.009,-13.929 -11.143,-23.33 -3.134,-9.403 -2.786,-13.929 -12.188,-16.019 -9.401,-2.089 -3.133,-3.83 -12.883,-8.705 -9.75,-4.875 -16.715,-0.349 -21.938,10.446 -5.224,10.795 6.268,24.375 12.884,27.509 6.616,3.135 8.357,10.099 10.446,21.241 2.09,11.144 3.483,13.233 7.661,15.67 4.179,2.438 11.143,-5.92 16.367,2.09 4.07,6.241 -11.144,26.464 -22.635,39.696 -11.491,13.232 -20.893,24.723 -29.25,27.857 -8.357,3.134 -9.402,-2.785 -8.009,-6.964 1.394,-4.179 3.482,-6.268 4.179,-22.286 0.696,-16.018 -2.089,-22.285 -5.92,-32.732 -3.83,-10.447 -10.098,-23.678 -12.884,-33.428 -2.785,-9.75 -8.357,-10.447 -18.107,-21.938 -9.75,-11.491 -19.152,-4.875 -28.902,3.83 -9.75,8.705 -14.625,21.938 -17.759,31.339 -3.133,9.402 0.697,8.357 1.742,9.75 1.044,1.394 2.785,10.447 3.83,14.974 1.045,4.527 11.839,7.312 19.848,11.142 8.009,3.831 6.616,14.974 5.572,24.724 -1.045,9.75 4.875,17.062 11.839,22.982 6.964,5.92 1.392,14.973 -3.831,19.848 -5.223,4.875 -23.33,14.625 -33.777,13.581 -10.446,-1.045 -8.705,-13.232 -8.356,-20.545 0.347,-7.312 1.044,-16.018 -6.965,-18.455 -8.009,-2.438 -14.277,2.785 -20.893,11.491 -6.616,8.705 -7.661,16.365 -3.134,24.375 4.527,8.009 -5.571,11.839 -14.625,17.063 -9.053,5.222 -24.375,13.58 -35.866,14.972 -11.491,1.393 -20.196,-0.696 -32.732,-0.696 -12.536,0 -45.616,1.393 -54.321,1.393 -8.707,0 -41.787,-1.393 -54.323,-1.393 -12.535,0 -21.24,2.089 -32.731,0.696 -11.491,-1.392 -26.813,-9.75 -35.866,-14.972 -9.054,-5.224 -19.153,-9.054 -14.625,-17.063 4.526,-8.01 3.481,-15.67 -3.134,-24.375 -6.616,-8.706 -12.885,-13.929 -20.894,-11.491 -8.009,2.437 -7.312,11.143 -6.964,18.455 0.348,7.313 2.089,19.5 -8.357,20.545 -10.446,1.044 -28.554,-8.706 -33.776,-13.581 -5.224,-4.875 -10.795,-13.928 -3.832,-19.848 6.965,-5.92 12.884,-13.232 11.84,-22.982 -1.045,-9.75 -2.437,-20.893 5.572,-24.724 8.008,-3.83 18.803,-6.615 19.847,-11.142 1.045,-4.527 2.786,-13.58 3.831,-14.974 1.045,-1.393 4.875,-0.348 1.742,-9.75 -3.135,-9.401 -8.01,-22.634 -17.76,-31.339 -9.75,-8.705 -19.152,-15.321 -28.902,-3.83 -9.75,11.491 -15.321,12.188 -18.107,21.938 -2.785,9.75 -9.054,22.981 -12.884,33.428 -3.83,10.447 -6.616,16.714 -5.92,32.732 0.697,16.018 2.786,18.107 4.179,22.286 1.393,4.179 0.349,10.098 -8.009,6.964 -8.357,-3.134 -17.759,-14.625 -29.25,-27.857 -11.491,-13.232 -26.705,-33.455 -22.634,-39.696 5.223,-8.01 12.188,0.348 16.367,-2.09 4.178,-2.437 5.571,-4.526 7.66,-15.67 2.09,-11.142 3.831,-18.106 10.446,-21.241 6.616,-3.134 18.108,-16.714 12.885,-27.509 -5.224,-10.795 -12.188,-15.321 -21.938,-10.446 -9.75,4.875 -3.482,6.616 -12.884,8.705 -9.402,2.09 -9.053,6.616 -12.188,16.019 -3.134,9.401 -6.616,23.678 -11.143,23.33 -4.526,-0.349 -9.75,-28.902 -0.696,-37.608 9.054,-8.705 32.083,-17.19 39.349,-20.892 3.481,-0.697 9.377,-1.391 11.839,-1.393 -2.089,1.74 -8.705,3.83 -8.705,3.83 0,0 5.222,-1.045 16.017,6.964 10.795,8.01 9.402,20.894 8.358,25.769 -1.045,4.875 -13.233,36.91 -17.063,45.963 -3.831,9.054 -11.491,28.206 -12.536,29.947 0,0 0.696,1.741 2.09,2.786 1.392,1.045 5.223,5.223 5.919,8.009 0.696,2.786 2.09,2.437 3.134,3.482 0,0 -0.476,-6.144 0.697,-12.884 1.392,-8.009 4.178,-19.5 10.446,-35.866 6.268,-16.366 15.321,-36.215 29.25,-45.269 13.929,-9.052 24.375,-11.142 36.91,-2.088 12.536,9.053 35.17,35.517 40.045,49.098 4.875,13.58 2.438,30.643 1.741,37.259 -0.696,6.616 -2.785,14.276 -12.187,17.41 -9.401,3.135 -15.321,10.099 -17.759,15.322 -2.437,5.223 -4.527,13.232 -4.527,19.848 0,0 6.616,-18.804 16.715,-24.026 10.098,-5.224 16.366,-8.358 28.553,5.571 12.188,13.929 28.205,32.384 33.08,38.304 4.875,5.92 18.804,17.41 27.509,18.107 8.706,0.696 16.366,0.696 26.116,1.393 9.75,0.696 26.813,2.089 32.733,2.785 5.92,0.697 14.974,-2.089 24.724,-2.089 9.75,0 18.803,2.786 24.722,2.089 5.92,-0.696 22.983,-2.089 32.733,-2.785 9.75,-0.697 17.411,-0.697 26.116,-1.393 8.705,-0.697 22.634,-12.187 27.509,-18.107 4.875,-5.92 20.893,-24.375 33.081,-38.304 12.187,-13.929 18.455,-10.795 28.552,-5.571 10.099,5.222 16.715,24.026 16.715,24.026 0,-6.616 -2.089,-14.625 -4.526,-19.848 -2.438,-5.223 -8.358,-12.187 -17.76,-15.322 -9.401,-3.134 -11.491,-10.794 -12.187,-17.41 -0.697,-6.616 -3.134,-23.679 1.741,-37.259 4.875,-13.581 27.509,-40.045 40.045,-49.098 12.536,-9.054 22.982,-6.964 36.911,2.088 13.928,9.054 22.981,28.903 29.25,45.269 6.267,16.366 9.054,27.857 10.446,35.866 1.172,6.74 0.696,12.884 0.696,12.884 1.045,-1.045 2.438,-0.696 3.134,-3.482 0.696,-2.786 4.528,-6.964 5.92,-8.009 1.393,-1.045 2.089,-2.786 2.089,-2.786 -1.044,-1.741 -8.705,-20.893 -12.535,-29.947 -3.831,-9.053 -16.019,-41.088 -17.063,-45.963 -1.045,-4.875 -2.437,-17.759 8.357,-25.769 10.795,-8.009 16.018,-6.964 16.018,-6.964 0,0 -6.616,-2.09 -8.706,-3.83 2.462,0.002 8.358,0.696 11.84,1.393 7.265,3.702 30.295,12.187 39.349,20.892 9.053,8.706 3.83,37.259 -0.697,37.608"
       style="fill:#d3d2d2;fill-opacity:1;fill-rule:nonzero;stroke:none;stroke-width:0.1"
       id="path728" />
    <path
       d="m 118.661,595.267 c 3.831,8.357 9.75,3.483 11.491,0.349 1.741,-3.134 3.831,-11.492 13.929,-18.455 10.098,-6.965 20.196,-9.054 34.821,-4.528 14.625,4.528 16.366,9.75 14.625,12.536 -1.74,2.786 -20.544,3.831 -30.294,7.661 -9.75,3.831 -16.715,11.839 -19.5,18.803 -2.786,6.965 5.223,9.054 9.401,6.269 4.179,-2.786 12.884,-7.313 24.724,-12.188 11.839,-4.875 26.464,-5.92 35.518,-6.616 9.053,-0.696 27.857,-2.786 37.955,1.044 10.098,3.831 10.795,9.054 5.572,16.366 -5.224,7.313 -18.108,10.795 -28.554,14.625 -10.447,3.831 -12.885,14.974 -14.277,18.108 -1.393,3.133 -1.393,12.883 1.741,14.277 3.134,1.393 8.705,0 12.536,-2.786 3.83,-2.786 10.446,-7.661 13.58,-9.054 3.134,-1.392 14.625,-4.526 22.983,-9.054 8.356,-4.526 11.491,-6.963 15.321,-13.928 3.83,-6.964 -1.741,-17.41 8.009,-22.285 9.75,-4.875 13.232,1.741 13.928,8.357 0.697,6.615 -7.312,19.501 -8.705,22.287 16.714,-17.061 14.277,-30.297 5.572,-34.823 -8.706,-4.527 -17.063,0.696 -19.849,4.179 -2.785,3.482 -9.75,13.58 -17.41,20.892 -7.661,7.313 -24.724,17.063 -26.465,14.278 -1.741,-2.787 13.929,-10.448 21.59,-16.019 7.66,-5.571 13.231,-17.062 13.58,-22.982 0.348,-5.919 -18.804,-10.447 -27.509,-11.143 -8.706,-0.696 -24.027,-0.348 -42.135,2.437 -18.106,2.787 -41.089,8.009 -41.089,8.009 6.964,-8.009 32.384,-11.142 40.393,-12.187 8.009,-1.044 1.045,-8.705 -1.741,-11.491 -2.785,-2.786 -13.273,-7.866 -20.196,-10.794 -9.054,-3.831 -13.929,-6.269 -27.509,-2.787 -18.258,4.682 -24.724,12.884 -26.464,18.804 -2.438,-13.58 14.276,-16.017 21.24,-21.937 6.965,-5.92 0,-17.063 -3.83,-18.455 -3.83,-1.394 -13.929,-1.394 -13.929,-1.394 1.394,-2.437 9.75,-3.481 17.063,-4.526 7.312,-1.045 9.402,-5.224 15.322,-9.75 5.919,-4.528 11.49,-2.09 11.49,-2.09 -7.312,2.09 -16.017,8.01 -18.803,15.322 -2.165,5.683 8.706,12.188 12.536,13.232 3.83,1.044 18.107,6.616 21.59,8.009 3.481,1.393 2.785,5.919 6.964,6.616 2.429,0.405 16.017,3.134 22.633,4.875 6.617,1.741 27.858,5.572 44.224,6.268 16.366,0.696 34.472,-4.527 36.958,-6.705 -2.429,-1.291 -4.367,-2.391 -5.271,-3.045 l -2.336,-0.699 c -25.249,10.57 -57.556,0.351 -71.485,-4.525 -13.929,-4.874 -21.937,-2.437 -21.937,-2.437 -2.438,-6.268 -10.448,-9.054 -17.063,-9.75 -6.616,-0.696 -17.411,-3.134 -21.241,-8.009 -3.831,-4.875 11.491,-9.054 19.848,-11.142 8.357,-2.09 11.491,-6.965 11.491,-12.885 0,-5.919 -3.83,-8.009 -10.795,-8.705 -6.964,-0.696 -15.669,-2.089 -21.938,0.696 -6.267,2.786 -9.75,9.402 -12.883,10.099 -3.134,0.696 -10.098,1.392 -11.839,2.437 -1.742,1.045 -13.581,5.223 -13.929,14.625 -0.349,9.402 13.929,11.491 18.455,11.839 4.527,0.349 5.224,2.09 3.134,6.616 -2.089,4.528 -9.402,8.358 -16.366,8.706 -6.964,0.348 -9.402,2.438 -10.098,5.919 -0.696,3.483 1.393,14.278 5.223,22.634"
       style="fill:#d3d2d2;fill-opacity:1;fill-rule:nonzero;stroke:none;stroke-width:0.1"
       id="path730" />
    <path
       d="m 536.519,348.035 v 1.741 c 0,0 -18.455,7.661 -23.33,8.357 -4.875,0.697 -26.813,0 -31.34,-1.741 -4.526,-1.741 -15.457,-7.599 -15.041,-18.25"
       style="fill:none;stroke:#231f20;stroke-width:0.5;stroke-linecap:butt;stroke-linejoin:miter;stroke-miterlimit:4;stroke-dasharray:none;stroke-opacity:1"
       id="path732" />
    <path
       d="m 536.519,349.776 v 26.812 c 0,0 -10.433,1.393 -14.974,1.393 -8.356,0 -34.821,-12.535 -39.696,-21.589"
       style="fill:none;stroke:#231f20;stroke-width:0.5;stroke-linecap:butt;stroke-linejoin:miter;stroke-miterlimit:4;stroke-dasharray:none;stroke-opacity:1"
       id="path734" />
    <path
       d="m 526.42,521.098 c 0,0 0,5.571 0,8.357 0,2.786 1.742,4.527 3.483,4.527 1.741,0 7.312,0 10.099,0 2.785,0 8.356,0 10.097,0 1.741,0 3.483,-1.741 3.483,-4.527 0,-2.786 0,-8.357 0,-8.357"
       style="fill:none;stroke:#231f20;stroke-width:0.5;stroke-linecap:butt;stroke-linejoin:miter;stroke-miterlimit:4;stroke-dasharray:none;stroke-opacity:1"
       id="path736" />
    <path
       d="m 526.42,513.088 c 0,0 0.203,-14.254 1.742,-34.125 1.301,-16.794 2.437,-26.463 11.84,-26.463 9.401,0 10.537,9.669 11.838,26.463 1.54,19.871 1.742,34.125 1.742,34.125"
       style="fill:none;stroke:#231f20;stroke-width:0.5;stroke-linecap:butt;stroke-linejoin:miter;stroke-miterlimit:4;stroke-dasharray:none;stroke-opacity:1"
       id="path738" />
    <path
       d="m 396.537,435.48 c 3.133,1.045 11.142,2.742 15.67,2.046 4.526,-0.696 22.633,-2.089 34.472,-13.232"
       style="fill:none;stroke:#231f20;stroke-width:0.25;stroke-linecap:butt;stroke-linejoin:miter;stroke-miterlimit:4;stroke-dasharray:none;stroke-opacity:1"
       id="path740" />
    <path
       d="m 446.679,424.294 c 3.831,-3.831 16.366,-22.634 14.278,-36.563 -2.09,-13.928 -2.186,-26.97 -16.018,-31.688 -13.832,-4.716 -68.286,30.637 -79.429,43.521"
       style="fill:none;stroke:#231f20;stroke-width:0.25;stroke-linecap:butt;stroke-linejoin:miter;stroke-miterlimit:4;stroke-dasharray:none;stroke-opacity:1"
       id="path742" />
    <path
       d="m 375.992,421.16 c 0,0 -7.158,-4.672 -3.134,-18.107 0,0 -12.188,-10.795 -12.188,5.571 0,16.367 14.974,23.504 15.322,12.536 z"
       style="fill:none;stroke:#231f20;stroke-width:0.5;stroke-linecap:butt;stroke-linejoin:miter;stroke-miterlimit:4;stroke-dasharray:none;stroke-opacity:1"
       id="path744" />
    <path
       d="m 352.611,400.557 c 3.533,2.148 11.889,11.898 6.667,17.817 -5.224,5.92 -14.625,13.233 -17.063,26.117 -2.437,12.883 -0.348,21.241 5.223,29.597 5.571,8.358 15.67,21.242 20.545,26.813 4.875,5.572 14.974,15.67 13.58,22.286 -1.393,6.616 -4.707,11.232 -18.288,8.795"
       style="fill:none;stroke:#231f20;stroke-width:0.5;stroke-linecap:butt;stroke-linejoin:miter;stroke-miterlimit:4;stroke-dasharray:none;stroke-opacity:1"
       id="path746" />
    <path
       d="m 324.108,473.392 c 2.786,6.035 12.534,22.751 17.875,30.876 5.34,8.124 17.643,23.911 23.911,30.643 6.268,6.731 11.374,11.608 14.392,16.714 3.018,5.106 7.429,13.696 1.626,21.125 -5.804,7.427 -19.036,5.803 -24.143,1.624 -5.107,-4.178 -18.804,-18.803 -21.589,-29.25 -2.786,-10.446 -4.875,-34.588 -5.108,-39.463 -0.233,-4.875 -1.538,-18.542 -5.296,-28.931"
       style="fill:none;stroke:#231f20;stroke-width:0.5;stroke-linecap:butt;stroke-linejoin:miter;stroke-miterlimit:4;stroke-dasharray:none;stroke-opacity:1"
       id="path748" />
    <path
       d="m 308.105,497.078 c 1.145,9.279 6.472,28.453 16.003,27.154 5.107,-0.696 5.903,-20.148 6.086,-27.833"
       style="fill:none;stroke:#231f20;stroke-width:0.5;stroke-linecap:butt;stroke-linejoin:miter;stroke-miterlimit:4;stroke-dasharray:none;stroke-opacity:1"
       id="path750" />
    <path
       d="m 540.002,555.338 c -5.341,0 -21.126,-1.161 -26.698,4.875 0,0 6.269,-8.821 9.055,-12.999 2.785,-4.178 7.893,-10.447 17.643,-10.447 9.75,0 14.856,6.269 17.641,10.447 2.786,4.178 9.055,12.999 9.055,12.999 -5.572,-6.036 -21.357,-4.875 -26.696,-4.875"
       style="fill:#706d6e;fill-opacity:1;fill-rule:nonzero;stroke:none;stroke-width:0.1"
       id="path752" />
    <path
       d="m 540.002,555.338 c -5.341,0 -21.126,-1.161 -26.698,4.875 0,0 6.269,-8.821 9.055,-12.999 2.785,-4.178 7.893,-10.447 17.643,-10.447 9.75,0 14.856,6.269 17.641,10.447 2.786,4.178 9.055,12.999 9.055,12.999 -5.572,-6.036 -21.357,-4.875 -26.696,-4.875 z"
       style="fill:none;stroke:#231f20;stroke-width:0.75;stroke-linecap:round;stroke-linejoin:round;stroke-miterlimit:4;stroke-dasharray:none;stroke-opacity:1"
       id="path754" />
    <path
       d="m 513.304,560.213 c 0,0 -9.75,11.142 -12.303,13.929 -2.553,2.787 -8.125,9.054 -10.91,10.91"
       style="fill:none;stroke:#231f20;stroke-width:0.75;stroke-linecap:round;stroke-linejoin:round;stroke-miterlimit:4;stroke-dasharray:none;stroke-opacity:1"
       id="path756" />
    <path
       d="m 485.679,596.195 c -15.089,0.234 -32.73,-2.552 -48.516,-9.516 0,0 25.069,4.875 35.052,3.713 9.983,-1.161 16.483,-3.947 17.876,-5.34 0,0 -4.178,8.59 -4.412,11.143"
       style="fill:#706d6e;fill-opacity:1;fill-rule:nonzero;stroke:none;stroke-width:0.1"
       id="path758" />
    <path
       d="m 485.679,596.195 c -15.089,0.234 -32.73,-2.552 -48.516,-9.516 0,0 25.069,4.875 35.052,3.713 9.983,-1.161 16.483,-3.947 17.876,-5.34 0,0 -4.178,8.59 -4.412,11.143 z"
       style="fill:none;stroke:#231f20;stroke-width:0.75;stroke-linecap:round;stroke-linejoin:round;stroke-miterlimit:4;stroke-dasharray:none;stroke-opacity:1"
       id="path760" />
    <path
       d="m 485.679,596.195 c -0.192,8.925 5.092,10.77 7.429,11.143 5.804,0.93 12.071,3.482 14.857,4.412 2.786,0.928 6.733,2.787 10.911,4.179 4.179,1.393 12.303,4.178 21.126,4.178 8.822,0 16.945,-2.785 21.124,-4.178 4.178,-1.392 8.126,-3.251 10.911,-4.179 2.786,-0.93 9.053,-3.482 14.858,-4.412 2.336,-0.373 7.621,-2.218 7.428,-11.143"
       style="fill:none;stroke:#231f20;stroke-width:0.5;stroke-linecap:butt;stroke-linejoin:miter;stroke-miterlimit:4;stroke-dasharray:none;stroke-opacity:1"
       id="path762" />
    <path
       d="m 431.358,580.412 c 0,0 -0.696,-7.894 -0.696,-10.68 0,0 -11.143,-2.496 -12.536,6.035 -0.793,4.857 13.232,4.645 13.232,4.645 z"
       style="fill:none;stroke:#231f20;stroke-width:0.5;stroke-linecap:butt;stroke-linejoin:miter;stroke-miterlimit:4;stroke-dasharray:none;stroke-opacity:1"
       id="path764" />
    <path
       d="m 405.501,617.716 c -3.176,-1.409 -15.696,-2.717 -19.178,-2.717 -3.483,0 -18.34,0.696 -23.911,-0.231 -5.572,-0.928 -11.376,-1.625 -14.625,-0.928 -3.25,0.697 -8.126,4.874 -4.411,7.66 3.714,2.786 9.981,3.946 18.803,3.714 8.822,-0.232 15.322,0.928 22.055,2.089 6.731,1.161 17.642,-1.625 21.124,-3.017 3.481,-1.393 4.698,-4.549 0.143,-6.57 z"
       style="fill:none;stroke:#231f20;stroke-width:0.5;stroke-linecap:butt;stroke-linejoin:miter;stroke-miterlimit:4;stroke-dasharray:none;stroke-opacity:1"
       id="path766" />
    <path
       d="m 371.702,582.267 c -1.16,2.089 -9.987,1.393 -13.469,0 -3.483,-1.393 -12.303,-7.429 -0.464,-7.893"
       style="fill:none;stroke:#231f20;stroke-width:0.5;stroke-linecap:butt;stroke-linejoin:miter;stroke-miterlimit:4;stroke-dasharray:none;stroke-opacity:1"
       id="path768" />
    <path
       d="m 529.555,649.589 c 2.438,0 8.705,1.044 10.447,1.044 1.741,0 8.008,-1.044 10.446,-1.044"
       style="fill:none;stroke:#231f20;stroke-width:0.5;stroke-linecap:butt;stroke-linejoin:miter;stroke-miterlimit:4;stroke-dasharray:none;stroke-opacity:1"
       id="path770" />
    <path
       d="m 540.002,803.152 c -5.224,0 -29.251,2.786 -29.251,-3.83 0,-6.616 20.544,-6.269 29.251,-6.269 8.705,0 29.25,-0.347 29.25,6.269 0,6.616 -24.028,3.83 -29.25,3.83"
       style="fill:#d3d2d2;fill-opacity:1;fill-rule:nonzero;stroke:none;stroke-width:0.1"
       id="path772" />
    <path
       d="m 431.01,716.098 c 6.616,6.964 10.794,19.5 12.535,28.554 1.742,9.054 2.09,37.607 1.742,45.616 -0.348,8.009 0.348,13.232 2.437,19.848 2.09,6.616 17.063,14.626 21.241,16.018 4.179,1.393 18.804,3.134 25.42,3.134 6.616,0 29.021,-4.179 34.473,-4.179 2.462,0 8.357,2.438 11.144,2.438 2.785,0 8.68,-2.438 11.142,-2.438 5.452,0 27.858,4.179 34.474,4.179 6.616,0 21.241,-1.741 25.419,-3.134 4.178,-1.392 19.152,-9.402 21.241,-16.018 2.09,-6.616 2.786,-11.839 2.437,-19.848 -0.347,-8.009 0,-36.562 1.742,-45.616 1.741,-9.054 5.919,-21.59 12.536,-28.554"
       style="fill:none;stroke:#231f20;stroke-width:0.5;stroke-linecap:butt;stroke-linejoin:miter;stroke-miterlimit:4;stroke-dasharray:none;stroke-opacity:1"
       id="path774" />
    <path
       d="m 387.135,847.723 c -0.348,-3.134 -0.697,-9.401 -0.697,-11.491"
       style="fill:none;stroke:#231f20;stroke-width:0.5;stroke-linecap:butt;stroke-linejoin:miter;stroke-miterlimit:4;stroke-dasharray:none;stroke-opacity:1"
       id="path776" />
    <path
       d="m 306.697,826.831 c -2.089,-6.617 -0.697,-19.153 0.697,-26.117 1.393,-6.964 3.482,-24.723 4.875,-32.383 1.393,-7.662 1.74,-14.278 10.098,-24.028 8.884,-10.365 18.803,-14.625 19.5,-25.071"
       style="fill:none;stroke:#231f20;stroke-width:0.5;stroke-linecap:butt;stroke-linejoin:miter;stroke-miterlimit:4;stroke-dasharray:none;stroke-opacity:1"
       id="path778" />
    <path
       d="m 218.599,739.081 c 5.223,-3.134 14.277,-13.233 18.804,-23.331 4.526,-10.098 13.231,-25.768 18.803,-29.598"
       style="fill:none;stroke:#231f20;stroke-width:0.5;stroke-linecap:butt;stroke-linejoin:miter;stroke-miterlimit:4;stroke-dasharray:none;stroke-opacity:1"
       id="path780" />
    <path
       d="m 124.581,561.491 c -2.438,-0.697 -6.253,-2.665 -8.394,-4.776"
       style="fill:none;stroke:#231f20;stroke-width:0.5;stroke-linecap:butt;stroke-linejoin:miter;stroke-miterlimit:4;stroke-dasharray:none;stroke-opacity:1"
       id="path782" />
    <path
       d="m 189,538.508 c -3.482,1.045 -11.838,4.179 -18.803,4.179"
       style="fill:none;stroke:#231f20;stroke-width:0.5;stroke-linecap:butt;stroke-linejoin:miter;stroke-miterlimit:4;stroke-dasharray:none;stroke-opacity:1"
       id="path784" />
    <path
       d="m 131.197,613.374 c 3.482,-2.785 7.661,-11.838 12.187,-17.062 4.527,-5.223 12.188,-17.062 31.34,-18.107"
       style="fill:none;stroke:#231f20;stroke-width:0.5;stroke-linecap:butt;stroke-linejoin:miter;stroke-miterlimit:4;stroke-dasharray:none;stroke-opacity:1"
       id="path786" />
    <path
       d="m 866.626,676.402 c -3.481,-2.438 -16.017,-8.358 -22.285,-10.795 -6.268,-2.438 -17.759,-4.875 -21.241,-5.571 -3.482,-0.697 -9.378,-1.391 -11.84,-1.393 -2.098,-0.002 -5.694,1.559 -12.187,-4.875 -5.599,-5.549 -10.447,-11.837 -12.535,-16.713"
       style="fill:none;stroke:#231f20;stroke-width:0.5;stroke-linecap:butt;stroke-linejoin:miter;stroke-miterlimit:4;stroke-dasharray:none;stroke-opacity:1"
       id="path788" />
    <path
       d="m 213.376,676.402 c 3.482,-2.438 16.017,-8.358 22.286,-10.795 6.267,-2.438 17.758,-4.875 21.241,-5.571 3.481,-0.697 9.377,-1.391 11.839,-1.393 2.098,-0.002 5.695,1.559 12.187,-4.875 5.599,-5.549 10.447,-11.837 12.536,-16.713"
       style="fill:none;stroke:#231f20;stroke-width:0.5;stroke-linecap:butt;stroke-linejoin:miter;stroke-miterlimit:4;stroke-dasharray:none;stroke-opacity:1"
       id="path790" />
    <path
       d="m 540.002,348.731 c -4.876,0 -9.403,-4.178 -11.492,-10.098 -2.09,-5.92 -10.446,-6.965 -27.509,-7.312 -17.062,-0.349 -29.947,4.526 -33.081,6.267 -3.133,1.742 -5.919,1.742 -8.008,1.742 -2.089,0 -14.625,4.875 -20.545,8.008 -5.919,3.134 -21.589,9.75 -27.509,13.929 -5.92,4.179 -26.464,11.491 -31.688,15.321 -2.891,2.121 -8.268,7.374 -17.411,15.322 -7.373,6.409 -17.596,14.184 -27.856,26.464 -22.983,27.509 -10.795,55.018 -10.795,55.018 -15.321,-27.509 -16.018,24.375 -16.018,24.375 -0.348,3.134 -6.268,20.894 -7.312,23.331 -0.316,0.734 -0.979,1.975 -1.922,3.733 -2.19,4.07 -5.888,10.913 -10.266,20.642 -6.268,13.929 3.83,24.375 3.83,24.375 l -2.336,-0.699 c -16.213,-4.564 -55.121,-14.871 -61.387,-16.363 -7.313,-1.742 -16.018,-5.92 -19.5,-5.572 -3.483,0.348 -7.66,3.83 -7.66,3.83 C 210.938,541.642 189,538.508 189,538.508 c 1.045,-0.347 16.714,-6.616 14.277,-22.982 -2.438,-16.365 -35.169,-17.063 -44.571,-15.321 -9.402,1.741 -11.839,6.616 -21.242,8.008 -9.401,1.394 -6.964,2.438 -11.142,4.528 -4.179,2.089 -13.233,2.437 -17.759,18.803 -4.527,16.367 8.357,25.768 8.357,25.768 -9.75,-4.179 -10.447,7.312 -10.447,10.795 0,3.482 -2.437,16.714 -2.089,20.545 0.349,3.83 0.697,14.625 9.402,22.285 8.706,7.661 17.411,2.437 17.411,2.437 -3.83,3.832 -3.83,9.054 -2.438,11.144 1.393,2.089 5.92,5.919 9.402,7.66 3.482,1.741 6.616,2.786 11.839,0.349 5.223,-2.438 13.929,-10.795 36.563,-18.804 29.171,-10.321 41.031,-6.094 43.875,-5.223 3.823,1.17 7.661,6.616 1.393,8.008 -11.8,2.623 -18.107,9.054 -22.982,17.76 -4.875,8.705 -7.661,20.196 -6.268,33.08 1.393,12.884 10.795,9.054 10.795,9.054 0,0 -5.224,6.616 -8.706,10.795 -3.482,4.177 -4.178,7.312 -4.178,18.455 0,11.142 5.92,26.464 8.705,30.642 2.786,4.179 9.402,2.787 9.402,2.787 -5.92,14.276 0,25.767 4.875,34.821 4.875,9.054 16.366,25.071 27.16,35.517 10.795,10.448 27.858,19.849 37.956,21.242 10.098,1.393 18.107,-3.83 18.107,-3.83 0.697,2.437 2.786,7.312 6.616,11.491 3.831,4.178 10.446,6.267 16.019,9.053 5.571,2.786 20.196,11.143 26.115,12.536 5.92,1.393 9.402,4.178 20.545,1.393 11.143,-2.786 11.143,-13.581 11.143,-13.581 0,3.831 2.089,10.795 2.785,14.277 0.697,3.482 9.75,4.527 14.625,6.617 4.875,2.089 24.724,16.365 36.912,20.544 12.187,4.178 30.294,2.437 40.044,1.741 9.75,-0.696 48.402,0 58.501,0 10.097,0 48.75,-0.696 58.5,0 9.75,0.696 27.857,2.437 40.044,-1.741 12.188,-4.179 32.036,-18.455 36.911,-20.544 4.875,-2.09 13.928,-3.135 14.625,-6.617 0.696,-3.482 2.786,-10.446 2.786,-14.277 0,0 0,10.795 11.142,13.581 11.143,2.785 14.625,0 20.545,-1.393 5.92,-1.393 20.545,-9.75 26.116,-12.536 5.572,-2.786 12.188,-4.875 16.018,-9.053 3.83,-4.179 5.92,-9.054 6.616,-11.491 0,0 8.009,5.223 18.108,3.83 10.097,-1.393 27.16,-10.794 37.955,-21.242 10.795,-10.446 22.286,-26.463 27.161,-35.517 4.875,-9.054 10.795,-20.545 4.875,-34.821 0,0 6.616,1.392 9.401,-2.787 2.786,-4.178 8.706,-19.5 8.706,-30.642 0,-11.143 -0.697,-14.278 -4.179,-18.455 -3.482,-4.179 -8.706,-10.795 -8.706,-10.795 0,0 9.403,3.83 10.795,-9.054 1.393,-12.884 -1.392,-24.375 -6.267,-33.08 -4.875,-8.706 -11.183,-15.137 -22.983,-17.76 -6.267,-1.392 -2.337,-6.831 1.393,-8.008 2.838,-0.895 14.704,-5.098 43.875,5.223 22.635,8.009 31.34,16.366 36.563,18.804 5.223,2.437 8.357,1.392 11.839,-0.349 3.483,-1.741 8.009,-5.571 9.402,-7.66 1.393,-2.09 1.393,-7.312 -2.438,-11.144 0,0 8.706,5.224 17.411,-2.437 8.705,-7.66 9.054,-18.455 9.402,-22.285 0.348,-3.831 -2.089,-17.063 -2.089,-20.545 0,-3.483 -0.697,-14.974 -10.447,-10.795 0,0 12.884,-9.401 8.358,-25.768 -4.527,-16.366 -13.581,-16.714 -17.76,-18.803 -4.178,-2.09 -1.74,-3.134 -11.142,-4.528 -9.402,-1.392 -11.839,-6.267 -21.242,-8.008 -9.401,-1.742 -42.133,-1.044 -44.571,15.321 -2.437,16.366 13.233,22.635 14.277,22.982 0,0 -21.938,3.134 -12.536,12.536 0,0 -4.178,-3.482 -7.661,-3.83 -3.481,-0.348 -12.187,3.83 -19.5,5.572 -6.266,1.492 -45.174,11.799 -61.387,16.363 l -2.336,0.699 c 0,0 10.098,-10.446 3.831,-24.375 -4.379,-9.729 -8.078,-16.572 -10.266,-20.642 -0.944,-1.758 -1.606,-2.999 -1.922,-3.733 -1.045,-2.437 -6.965,-20.197 -7.312,-23.331 0,0 -0.697,-51.884 -16.019,-24.375 0,0 12.188,-27.509 -10.794,-55.018 -10.261,-12.28 -20.483,-20.055 -27.857,-26.464 -9.142,-7.948 -14.519,-13.201 -17.411,-15.322 -5.223,-3.83 -25.768,-11.142 -31.688,-15.321 -5.919,-4.179 -21.589,-10.795 -27.509,-13.929 -5.92,-3.133 -18.455,-8.008 -20.545,-8.008 -2.088,0 -4.875,0 -8.008,-1.742 -3.134,-1.741 -16.018,-6.616 -33.08,-6.267 -17.063,0.347 -25.42,1.392 -27.509,7.312 -2.09,5.92 -6.617,10.098 -11.491,10.098 z"
       style="fill:none;stroke:#231f20;stroke-width:0.75;stroke-linecap:round;stroke-linejoin:round;stroke-miterlimit:4;stroke-dasharray:none;stroke-opacity:1"
       id="path792" />
    <path
       d="m 781.147,524.831 c 0.516,8.221 0.516,16.115 -0.181,21.686 -1.16,9.286 -3.482,10.447 -8.59,20.197 -5.107,9.75 -10.213,16.018 -10.213,16.018 4.411,-1.858 22.052,-10.446 25.419,-12.884 0,0 10.098,-10.446 3.831,-24.375 -4.379,-9.729 -8.078,-16.572 -10.266,-20.642"
       style="fill:#706d6e;fill-opacity:1;fill-rule:nonzero;stroke:none;stroke-width:0.1"
       id="path794" />
    <path
       d="m 781.147,524.831 c 0.516,8.221 0.516,16.115 -0.181,21.686 -1.16,9.286 -3.482,10.447 -8.59,20.197 -5.107,9.75 -10.213,16.018 -10.213,16.018 4.411,-1.858 22.052,-10.446 25.419,-12.884 0,0 10.098,-10.446 3.831,-24.375 -4.379,-9.729 -8.078,-16.572 -10.266,-20.642 z"
       style="fill:none;stroke:#231f20;stroke-width:0.75;stroke-linecap:round;stroke-linejoin:round;stroke-miterlimit:4;stroke-dasharray:none;stroke-opacity:1"
       id="path796" />
    <path
       d="m 298.856,524.831 c -0.516,8.221 -0.516,16.115 0.181,21.686 1.16,9.286 3.482,10.447 8.589,20.197 5.108,9.75 10.214,16.018 10.214,16.018 -4.411,-1.858 -22.053,-10.446 -25.42,-12.884 0,0 -10.098,-10.446 -3.83,-24.375 4.378,-9.729 8.076,-16.572 10.266,-20.642"
       style="fill:#706d6e;fill-opacity:1;fill-rule:nonzero;stroke:none;stroke-width:0.1"
       id="path798" />
    <path
       d="m 298.856,524.831 c -0.516,8.221 -0.516,16.115 0.181,21.686 1.16,9.286 3.482,10.447 8.589,20.197 5.108,9.75 10.214,16.018 10.214,16.018 -4.411,-1.858 -22.053,-10.446 -25.42,-12.884 0,0 -10.098,-10.446 -3.83,-24.375 4.378,-9.729 8.076,-16.572 10.266,-20.642 z"
       style="fill:none;stroke:#231f20;stroke-width:0.75;stroke-linecap:round;stroke-linejoin:round;stroke-miterlimit:4;stroke-dasharray:none;stroke-opacity:1"
       id="path800" />
    <path
       d="m 600.243,516.571 c 3.999,1.599 11.839,-1.045 16.366,-3.483 4.526,-2.437 12.535,-8.008 10.098,-11.49 -2.438,-3.482 -3.412,-4.042 -7.313,-5.224 -3.83,-1.16 -9.202,-3.008 -13.232,-4.526 -4.004,-1.509 -11.143,-5.397 -13.232,-1.045 -2.359,4.913 -4.875,20.893 7.313,25.768 z"
       style="fill:none;stroke:#231f20;stroke-width:0.5;stroke-linecap:butt;stroke-linejoin:miter;stroke-miterlimit:4;stroke-dasharray:none;stroke-opacity:1"
       id="path802" />
    <path
       d="m 479.76,516.571 c -3.999,1.599 -11.84,-1.045 -16.366,-3.483 -4.527,-2.437 -12.536,-8.008 -10.099,-11.49 2.438,-3.482 3.413,-4.042 7.313,-5.224 3.831,-1.16 9.202,-3.008 13.232,-4.526 4.005,-1.509 11.143,-5.397 13.233,-1.045 2.358,4.913 4.875,20.893 -7.313,25.768 z"
       style="fill:none;stroke:#231f20;stroke-width:0.5;stroke-linecap:butt;stroke-linejoin:miter;stroke-miterlimit:4;stroke-dasharray:none;stroke-opacity:1"
       id="path804" />
    <path
       d="m 594.323,596.195 c 15.089,0.234 32.73,-2.552 48.517,-9.516 0,0 -25.07,4.875 -35.052,3.713 -9.983,-1.161 -16.484,-3.947 -17.876,-5.34 0,0 4.178,8.59 4.411,11.143"
       style="fill:#706d6e;fill-opacity:1;fill-rule:nonzero;stroke:none;stroke-width:0.1"
       id="path806" />
    <path
       d="m 594.323,596.195 c 15.089,0.234 32.73,-2.552 48.517,-9.516 0,0 -25.07,4.875 -35.052,3.713 -9.983,-1.161 -16.484,-3.947 -17.876,-5.34 0,0 4.178,8.59 4.411,11.143 z"
       style="fill:none;stroke:#231f20;stroke-width:0.75;stroke-linecap:round;stroke-linejoin:round;stroke-miterlimit:4;stroke-dasharray:none;stroke-opacity:1"
       id="path808" />
    <path
       d="m 487.033,591.908 c 2.747,7.32 10.718,10.789 19.54,11.252 8.82,0.464 14.625,3.715 19.964,6.036 5.339,2.321 9.286,3.947 13.465,3.947 4.178,0 8.124,-1.626 13.462,-3.947 5.341,-2.321 11.145,-5.572 19.966,-6.036 8.82,-0.463 16.793,-3.932 19.539,-11.252"
       style="fill:none;stroke:#231f20;stroke-width:0.5;stroke-linecap:butt;stroke-linejoin:miter;stroke-miterlimit:4;stroke-dasharray:none;stroke-opacity:1"
       id="path810" />
    <path
       d="m 570.295,410.017 c 8.01,2.786 31.689,11.84 42.483,13.929 10.795,2.089 18.456,3.83 20.545,0.348"
       style="fill:none;stroke:#231f20;stroke-width:0.5;stroke-linecap:round;stroke-linejoin:round;stroke-miterlimit:4;stroke-dasharray:2.8, 1.8;stroke-dashoffset:0;stroke-opacity:1"
       id="path812" />
    <path
       d="m 543.135,521.098 c -1.741,-5.224 9.402,-11.84 11.839,-5.92 2.908,7.063 -9.993,11.457 -11.839,5.92 z"
       style="fill:none;stroke:#231f20;stroke-width:0.5;stroke-linecap:round;stroke-linejoin:round;stroke-miterlimit:4;stroke-dasharray:2.8, 1.8;stroke-dashoffset:0;stroke-opacity:1"
       id="path814" />
    <path
       d="m 552.102,482.453 c 9.488,-1.748 39.69,-5.163 42.475,6.675"
       style="fill:none;stroke:#231f20;stroke-width:0.5;stroke-linecap:round;stroke-linejoin:round;stroke-miterlimit:4;stroke-dasharray:2.8, 1.8;stroke-dashoffset:0;stroke-opacity:1"
       id="path816" />
    <path
       d="m 606.162,491.848 c 2.786,-11.143 20.455,-56.952 25.723,-66.258"
       style="fill:none;stroke:#231f20;stroke-width:0.5;stroke-linecap:round;stroke-linejoin:round;stroke-miterlimit:4;stroke-dasharray:2.8, 1.8;stroke-dashoffset:0;stroke-opacity:1"
       id="path818" />
    <path
       d="m 597.457,380.071 21.589,7.66"
       style="fill:none;stroke:#231f20;stroke-width:0.5;stroke-linecap:round;stroke-linejoin:round;stroke-miterlimit:4;stroke-dasharray:2.8, 1.8;stroke-dashoffset:0;stroke-opacity:1"
       id="path820" />
    <path
       d="m 585.387,383.79 c 3.365,5.334 9.284,-1.282 12.07,-3.719 2.786,-2.438 4.178,-6.616 2.786,-8.705 -1.394,-2.09 -4.528,-2.09 -8.009,0.696 -3.482,2.785 -7.215,6.35 -7.215,6.35"
       style="fill:none;stroke:#231f20;stroke-width:0.5;stroke-linecap:round;stroke-linejoin:round;stroke-miterlimit:4;stroke-dasharray:2.8, 1.8;stroke-dashoffset:0;stroke-opacity:1"
       id="path822" />
    <path
       d="m 593.17,371.379 c 5.679,-6.282 21.349,-20.211 29.358,-23.344 8.009,-3.134 11.84,1.741 12.536,8.008"
       style="fill:none;stroke:#231f20;stroke-width:0.5;stroke-linecap:round;stroke-linejoin:round;stroke-miterlimit:4;stroke-dasharray:2.8, 1.8;stroke-dashoffset:0;stroke-opacity:1"
       id="path824" />
    <path
       d="m 667.796,437.526 c -5.92,8.009 -17.062,28.902 -24.375,41.786 -7.312,12.884 -10.224,17.498 -16.269,23.8"
       style="fill:none;stroke:#231f20;stroke-width:0.5;stroke-linecap:round;stroke-linejoin:round;stroke-miterlimit:4;stroke-dasharray:2.8, 1.8;stroke-dashoffset:0;stroke-opacity:1"
       id="path826" />
    <path
       d="m 704.01,421.16 c -3.134,1.393 -7.66,0.697 -12.884,-3.482 -5.223,-4.178 -7.166,-5.085 -11.491,-5.223 -4.758,-0.153 -9.75,-4.527 -8.705,-10.795 1.045,-6.268 4.179,-20.893 13.58,-18.804 9.403,2.09 20.197,16.018 22.634,20.197"
       style="fill:none;stroke:#231f20;stroke-width:0.5;stroke-linecap:round;stroke-linejoin:round;stroke-miterlimit:4;stroke-dasharray:2.8, 1.8;stroke-dashoffset:0;stroke-opacity:1"
       id="path828" />
    <path
       d="m 702.236,421.688 c 0.382,3.303 -1.011,6.088 -7.279,8.874 -6.268,2.785 -11.492,6.964 -19.152,4.875 -7.661,-2.09 -12.541,-6.037 -0.177,-24.26"
       style="fill:none;stroke:#231f20;stroke-width:0.5;stroke-linecap:round;stroke-linejoin:round;stroke-miterlimit:4;stroke-dasharray:2.8, 1.8;stroke-dashoffset:0;stroke-opacity:1"
       id="path830" />
    <path
       d="m 668.177,429.12 c -3.863,0.746 -15.006,3.183 -18.139,-1.692 -3.135,-4.875 -3.483,-14.973 0.696,-24.723 0,0 -1.394,-11.839 0,-19.849 1.392,-8.009 4.526,-11.49 7.312,-11.49 2.786,0 11.137,6.267 14.97,21.589"
       style="fill:none;stroke:#231f20;stroke-width:0.5;stroke-linecap:round;stroke-linejoin:round;stroke-miterlimit:4;stroke-dasharray:2.8, 1.8;stroke-dashoffset:0;stroke-opacity:1"
       id="path832" />
    <path
       d="m 650.734,402.705 c 4.526,-1.393 13.231,-4.179 20.196,-1.045"
       style="fill:none;stroke:#231f20;stroke-width:0.5;stroke-linecap:round;stroke-linejoin:round;stroke-miterlimit:4;stroke-dasharray:2.8, 1.8;stroke-dashoffset:0;stroke-opacity:1"
       id="path834" />
    <path
       d="m 628.099,389.821 c 0,0 10.172,-6.762 16.366,-1.045 4.528,4.179 1.394,17.062 1.394,20.893 0,3.831 -4.875,7.313 -7.313,5.572 -3.064,-2.189 -1.044,-5.224 -8.009,-6.965 -5.592,-1.399 -9.75,-12.188 -2.438,-18.455 z"
       style="fill:none;stroke:#231f20;stroke-width:0.5;stroke-linecap:round;stroke-linejoin:round;stroke-miterlimit:4;stroke-dasharray:2.8, 1.8;stroke-dashoffset:0;stroke-opacity:1"
       id="path836" />
    <path
       d="m 628.099,389.821 c -2.785,-4.528 -4.178,-9.403 -2.785,-14.625 1.393,-5.224 3.482,-12.188 8.705,-14.278 5.224,-2.088 13.929,0 14.277,6.269 0.348,6.268 -0.348,14.973 -3.831,21.589"
       style="fill:none;stroke:#231f20;stroke-width:0.5;stroke-linecap:round;stroke-linejoin:round;stroke-miterlimit:4;stroke-dasharray:2.8, 1.8;stroke-dashoffset:0;stroke-opacity:1"
       id="path838" />
    <path
       d="m 677.834,436.863 c -3.77,2.404 -16.306,12.503 -11.779,17.029 4.527,4.527 9.402,1.741 13.58,-5.223 4.179,-6.964 10.447,-11.839 12.536,-12.536 2.089,-0.696 0.294,-3.321 -5.049,-1.793"
       style="fill:none;stroke:#231f20;stroke-width:0.5;stroke-linecap:round;stroke-linejoin:round;stroke-miterlimit:4;stroke-dasharray:2.8, 1.8;stroke-dashoffset:0;stroke-opacity:1"
       id="path840" />
    <path
       d="m 553.482,530.551 c 4.626,-2.489 27.524,-13.251 32.899,0.741 4.112,10.699 -22.353,24.975 -22.353,24.975"
       style="fill:none;stroke:#231f20;stroke-width:0.5;stroke-linecap:round;stroke-linejoin:round;stroke-miterlimit:4;stroke-dasharray:2.8, 1.8;stroke-dashoffset:0;stroke-opacity:1"
       id="path842" />
    <path
       d="m 585.216,529.013 c 7.056,7.611 36.268,32.478 42.883,35.96 6.616,3.482 20.96,10.332 19.915,18.341"
       style="fill:none;stroke:#231f20;stroke-width:0.5;stroke-linecap:round;stroke-linejoin:round;stroke-miterlimit:4;stroke-dasharray:2.8, 1.8;stroke-dashoffset:0;stroke-opacity:1"
       id="path844" />
    <path
       d="m 567.491,525.196 c 5.242,-4.098 13.252,-10.714 29.966,-10.018"
       style="fill:none;stroke:#231f20;stroke-width:0.5;stroke-linecap:round;stroke-linejoin:round;stroke-miterlimit:4;stroke-dasharray:2.8, 1.8;stroke-dashoffset:0;stroke-opacity:1"
       id="path846" />
    <path
       d="m 611.339,515.393 c 6.314,-0.215 35.913,1.41 46.359,0.018"
       style="fill:none;stroke:#231f20;stroke-width:0.5;stroke-linecap:round;stroke-linejoin:round;stroke-miterlimit:4;stroke-dasharray:2.8, 1.8;stroke-dashoffset:0;stroke-opacity:1"
       id="path848" />
    <path
       d="m 627.152,503.112 c 4.56,1.399 21.1,5.997 30.894,7.888"
       style="fill:none;stroke:#231f20;stroke-width:0.5;stroke-linecap:round;stroke-linejoin:round;stroke-miterlimit:4;stroke-dasharray:2.8, 1.8;stroke-dashoffset:0;stroke-opacity:1"
       id="path850" />
    <path
       d="m 771.46,488.668 c -5.119,2.483 -9.651,-7.112 -4.252,-20.595"
       style="fill:none;stroke:#231f20;stroke-width:0.5;stroke-linecap:round;stroke-linejoin:round;stroke-miterlimit:4;stroke-dasharray:2.8, 1.8;stroke-dashoffset:0;stroke-opacity:1"
       id="path852" />
    <path
       d="m 702.372,512.361 c -9.853,2.469 -20.647,3.165 -22.04,-5.54 -1.393,-8.705 0.348,-17.063 13.581,-29.947 13.231,-12.883 10.27,-21.954 9.75,-26.464 -1.045,-9.053 1.517,-22.752 8.944,-25.546 5.681,-2.137 7.073,-3.007 11.503,-2.903"
       style="fill:none;stroke:#231f20;stroke-width:0.5;stroke-linecap:round;stroke-linejoin:round;stroke-miterlimit:4;stroke-dasharray:2.8, 1.8;stroke-dashoffset:0;stroke-opacity:1"
       id="path854" />
    <path
       d="m 712.019,500.901 c -1.393,-5.919 -8.124,-17.991 -18.106,-24.027"
       style="fill:none;stroke:#231f20;stroke-width:0.5;stroke-linecap:round;stroke-linejoin:round;stroke-miterlimit:4;stroke-dasharray:2.8, 1.8;stroke-dashoffset:0;stroke-opacity:1"
       id="path856" />
    <path
       d="m 660.377,507.981 c -0.696,0.93 -2.679,1.393 -1.983,-4.875 0.696,-6.268 5.418,-18.902 14.393,-22.749 9.75,-4.179 15.321,-4.411 21.126,-3.483"
       style="fill:none;stroke:#231f20;stroke-width:0.5;stroke-linecap:round;stroke-linejoin:round;stroke-miterlimit:4;stroke-dasharray:2.8, 1.8;stroke-dashoffset:0;stroke-opacity:1"
       id="path858" />
    <path
       d="m 704.919,544.747 c -2.186,-1.711 -7.077,-9.613 -4.531,-16.415"
       style="fill:none;stroke:#231f20;stroke-width:0.5;stroke-linecap:round;stroke-linejoin:round;stroke-miterlimit:4;stroke-dasharray:2.8, 1.8;stroke-dashoffset:0;stroke-opacity:1"
       id="path860" />
    <path
       d="m 649.405,564.543 c 0.186,-5.15 3.417,-38.395 12.239,-48.61"
       style="fill:none;stroke:#231f20;stroke-width:0.5;stroke-linecap:round;stroke-linejoin:round;stroke-miterlimit:4;stroke-dasharray:2.8, 1.8;stroke-dashoffset:0;stroke-opacity:1"
       id="path862" />
    <path
       d="m 657.698,515.411 c -1.322,-1.175 0.464,-6.268 4.642,-9.054 4.179,-2.785 13.929,-9.054 16.948,-2.321 4.715,10.518 -19.5,13.231 -21.59,11.375 z"
       style="fill:none;stroke:#231f20;stroke-width:0.5;stroke-linecap:round;stroke-linejoin:round;stroke-miterlimit:4;stroke-dasharray:2.8, 1.8;stroke-dashoffset:0;stroke-opacity:1"
       id="path864" />
    <path
       d="m 572.037,611.75 c -2.089,5.107 -3.481,13.232 3.018,21.821 6.499,8.59 11.143,13.001 19.268,17.876 8.125,4.875 11.606,9.285 18.107,7.892 6.5,-1.393 9.75,-8.358 14.625,-20.661 4.875,-12.304 9.983,-24.838 11.839,-30.178 1.856,-5.34 2.554,-8.358 -4.179,-8.588 -6.731,-0.235 -22.053,0.23 -28.089,2.32 -6.036,2.089 -12.261,3.18 -16.344,3.795"
       style="fill:none;stroke:#231f20;stroke-width:0.5;stroke-linecap:round;stroke-linejoin:round;stroke-miterlimit:4;stroke-dasharray:2.8, 1.8;stroke-dashoffset:0;stroke-opacity:1"
       id="path866" />
    <path
       d="m 627.055,638.678 c -2.786,-12.536 -13.001,-31.571 -20.429,-36.446"
       style="fill:none;stroke:#231f20;stroke-width:0.5;stroke-linecap:round;stroke-linejoin:round;stroke-miterlimit:4;stroke-dasharray:2.8, 1.8;stroke-dashoffset:0;stroke-opacity:1"
       id="path868" />
    <path
       d="m 642.84,586.679 c 0,0 2.737,-0.984 5.174,-3.365"
       style="fill:none;stroke:#231f20;stroke-width:0.5;stroke-linecap:round;stroke-linejoin:round;stroke-miterlimit:4;stroke-dasharray:2.8, 1.8;stroke-dashoffset:0;stroke-opacity:1"
       id="path870" />
    <path
       d="m 648.644,580.412 c -1.16,5.337 -5.57,25.535 -5.339,28.553 0.232,3.017 6.965,12.535 14.393,12.767 0,0 -16.018,6.732 -20.893,16.018 -4.875,9.286 -3.482,14.624 -2.786,19.5 0.696,4.874 6.501,13.928 7.197,14.857 0.697,0.929 2.321,0.696 4.41,-0.233 2.089,-0.927 16.946,-6.035 21.589,-6.963 4.644,-0.929 30.643,-5.34 47.358,-9.519 0,0 0.927,6.269 6.267,4.411 5.34,-1.857 14.784,-6.396 18.729,-8.95 3.946,-2.553 13.308,-8.46 14.469,-8.925 1.16,-0.465 5.802,-0.928 7.195,-5.803 1.393,-4.875 5.109,-22.054 5.341,-28.09 0.231,-6.035 -2.09,-13.233 -8.59,-10.447 0,0 3.996,-6.227 -20.683,-5.67"
       style="fill:none;stroke:#231f20;stroke-width:0.5;stroke-linecap:round;stroke-linejoin:round;stroke-miterlimit:4;stroke-dasharray:2.8, 1.8;stroke-dashoffset:0;stroke-opacity:1"
       id="path872" />
    <path
       d="m 636.002,662.98 c 4.518,-3.641 11.018,-9.676 17.75,-9.444 6.732,0.232 11.744,4.202 13.997,11.27"
       style="fill:none;stroke:#231f20;stroke-width:0.5;stroke-linecap:round;stroke-linejoin:round;stroke-miterlimit:4;stroke-dasharray:2.8, 1.8;stroke-dashoffset:0;stroke-opacity:1"
       id="path874" />
    <path
       d="m 649.34,569.732 c 0,-2.089 -0.464,-8.588 2.09,-11.839 2.553,-3.251 9.983,-9.984 14.625,-10.216 4.643,-0.23 13.046,3.192 16.482,9.52 4.411,8.124 6.965,17.641 5.571,32.034 0,0 4.902,-6.944 20.907,-11.364"
       style="fill:none;stroke:#231f20;stroke-width:0.5;stroke-linecap:round;stroke-linejoin:round;stroke-miterlimit:4;stroke-dasharray:2.8, 1.8;stroke-dashoffset:0;stroke-opacity:1"
       id="path876" />
    <path
       d="m 657.698,621.732 c 4.875,-0.232 12.534,-2.09 15.089,-3.251 2.554,-1.159 13.696,-4.643 15.321,-29.25"
       style="fill:none;stroke:#231f20;stroke-width:0.5;stroke-linecap:round;stroke-linejoin:round;stroke-miterlimit:4;stroke-dasharray:2.8, 1.8;stroke-dashoffset:0;stroke-opacity:1"
       id="path878" />
    <path
       d="m 728.966,613.56 c 7.428,-2.971 27.625,-11.56 29.018,-15.972"
       style="fill:none;stroke:#231f20;stroke-width:0.5;stroke-linecap:round;stroke-linejoin:round;stroke-miterlimit:4;stroke-dasharray:2.8, 1.8;stroke-dashoffset:0;stroke-opacity:1"
       id="path880" />
    <path
       d="m 714.573,655.392 c 0.232,-5.106 2.323,-16.249 3.251,-19.267 0.928,-3.018 5.699,-9.045 12.251,-11.835"
       style="fill:none;stroke:#231f20;stroke-width:0.5;stroke-linecap:round;stroke-linejoin:round;stroke-miterlimit:4;stroke-dasharray:2.8, 1.8;stroke-dashoffset:0;stroke-opacity:1"
       id="path882" />
    <path
       d="m 716.934,639.798 c 0.619,-2.743 3.21,-4.834 8.318,-3.441 5.107,1.393 13.313,8.797 14.317,14.496"
       style="fill:none;stroke:#231f20;stroke-width:0.5;stroke-linecap:round;stroke-linejoin:round;stroke-miterlimit:4;stroke-dasharray:2.8, 1.8;stroke-dashoffset:0;stroke-opacity:1"
       id="path884" />
    <path
       d="m 686.734,599.217 c 0.214,3.246 3.232,5.57 9.268,4.176 6.035,-1.393 26.545,-8.067 29.332,-8.996"
       style="fill:none;stroke:#231f20;stroke-width:0.5;stroke-linecap:round;stroke-linejoin:round;stroke-miterlimit:4;stroke-dasharray:2.8, 1.8;stroke-dashoffset:0;stroke-opacity:1"
       id="path886" />
    <path
       d="m 762.163,582.732 c -4.179,2.32 -11.374,6.035 -16.483,7.195 -5.107,1.162 -13.58,3.368 -17.876,4.179 -4.295,0.812 -12.534,0.232 -11.374,-2.089 0,0 -11.839,-5.297 -6.964,-14.119"
       style="fill:none;stroke:#231f20;stroke-width:0.5;stroke-linecap:round;stroke-linejoin:round;stroke-miterlimit:4;stroke-dasharray:2.8, 1.8;stroke-dashoffset:0;stroke-opacity:1"
       id="path888" />
    <path
       d="m 716.43,592.017 c 1.394,-1.855 5.805,-3.945 13.233,-5.338 7.428,-1.392 19.963,-4.179 24.839,-8.126 4.874,-3.946 12.684,-12.713 16.017,-21.822 3.718,-10.155 5.803,-16.017 6.733,-20.428 0.928,-4.411 2.552,-14.625 0.696,-14.857 -1.857,-0.233 -2.554,10.912 -3.946,14.857 -1.393,3.947 -4.177,12.304 -8.125,19.964 -3.947,7.661 -6.989,12.62 -12.072,17.179 -6.731,6.035 -26.536,12.045 -31.955,15.307"
       style="fill:none;stroke:#231f20;stroke-width:0.5;stroke-linecap:round;stroke-linejoin:round;stroke-miterlimit:4;stroke-dasharray:2.8, 1.8;stroke-dashoffset:0;stroke-opacity:1"
       id="path890" />
    <path
       d="m 743.342,546.662 c 5.124,-6.18 16.722,-27.769 35.294,-27.073"
       style="fill:none;stroke:#231f20;stroke-width:0.5;stroke-linecap:round;stroke-linejoin:round;stroke-miterlimit:4;stroke-dasharray:2.8, 1.8;stroke-dashoffset:0;stroke-opacity:1"
       id="path892" />
    <path
       d="m 536.519,376.588 c 0,6.704 3.483,6.181 3.483,6.181 0,0 3.481,0.523 3.481,-6.181"
       style="fill:none;stroke:#231f20;stroke-width:0.5;stroke-linecap:round;stroke-linejoin:round;stroke-miterlimit:4;stroke-dasharray:2.8, 1.8;stroke-dashoffset:0;stroke-opacity:1"
       id="path894" />
    <path
       d="m 497.885,369.244 c 14.991,30.261 37.589,34.853 42.117,34.853 4.526,0 27.124,-4.592 42.116,-34.853"
       style="fill:none;stroke:#231f20;stroke-width:0.5;stroke-linecap:round;stroke-linejoin:round;stroke-miterlimit:4;stroke-dasharray:2.8, 1.8;stroke-dashoffset:7.2538;stroke-opacity:1"
       id="path896" />
    <path
       d="m 499.102,371.613 c -2.595,2.685 -4.717,6.717 -4.717,10.199 0,3.481 4.179,18.804 15.322,28.205 11.142,9.402 24.723,12.536 30.295,12.536 5.571,0 19.151,-3.134 30.293,-12.536 11.144,-9.401 15.323,-24.724 15.323,-28.205 0,-3.482 -2.122,-7.514 -4.718,-10.199"
       style="fill:none;stroke:#231f20;stroke-width:0.5;stroke-linecap:round;stroke-linejoin:round;stroke-miterlimit:4;stroke-dasharray:2.8, 1.8;stroke-dashoffset:1;stroke-opacity:1"
       id="path898" />
    <path
       d="m 509.707,410.017 c -8.009,2.786 -31.688,11.84 -42.483,13.929 -10.795,2.089 -18.455,3.83 -20.545,0.348"
       style="fill:none;stroke:#231f20;stroke-width:0.5;stroke-linecap:round;stroke-linejoin:round;stroke-miterlimit:4;stroke-dasharray:2.8, 1.8;stroke-dashoffset:0;stroke-opacity:1"
       id="path900" />
    <path
       d="m 536.868,521.098 c 1.74,-5.224 -9.403,-11.84 -11.84,-5.92 -2.907,7.063 9.993,11.457 11.84,5.92 z"
       style="fill:none;stroke:#231f20;stroke-width:0.5;stroke-linecap:round;stroke-linejoin:round;stroke-miterlimit:4;stroke-dasharray:2.8, 1.8;stroke-dashoffset:0;stroke-opacity:1"
       id="path902" />
    <path
       d="m 527.901,482.453 c -9.489,-1.748 -39.69,-5.163 -42.476,6.675"
       style="fill:none;stroke:#231f20;stroke-width:0.5;stroke-linecap:round;stroke-linejoin:round;stroke-miterlimit:4;stroke-dasharray:2.8, 1.8;stroke-dashoffset:0;stroke-opacity:1"
       id="path904" />
    <path
       d="M 473.84,491.848 C 471.054,480.705 453.385,434.896 448.118,425.59"
       style="fill:none;stroke:#231f20;stroke-width:0.5;stroke-linecap:round;stroke-linejoin:round;stroke-miterlimit:4;stroke-dasharray:2.8, 1.8;stroke-dashoffset:0;stroke-opacity:1"
       id="path906" />
    <path
       d="m 482.545,380.071 -21.588,7.66"
       style="fill:none;stroke:#231f20;stroke-width:0.5;stroke-linecap:round;stroke-linejoin:round;stroke-miterlimit:4;stroke-dasharray:2.8, 1.8;stroke-dashoffset:0;stroke-opacity:1"
       id="path908" />
    <path
       d="m 494.615,383.79 c -3.364,5.334 -9.283,-1.282 -12.07,-3.719 -2.785,-2.438 -4.178,-6.616 -2.785,-8.705 1.393,-2.09 4.527,-2.09 8.009,0.696 3.482,2.785 7.215,6.35 7.215,6.35"
       style="fill:none;stroke:#231f20;stroke-width:0.5;stroke-linecap:round;stroke-linejoin:round;stroke-miterlimit:4;stroke-dasharray:2.8, 1.8;stroke-dashoffset:0;stroke-opacity:1"
       id="path910" />
    <path
       d="m 486.832,371.379 c -5.679,-6.282 -21.349,-20.211 -29.358,-23.344 -8.009,-3.134 -11.839,1.741 -12.535,8.008"
       style="fill:none;stroke:#231f20;stroke-width:0.5;stroke-linecap:round;stroke-linejoin:round;stroke-miterlimit:4;stroke-dasharray:2.8, 1.8;stroke-dashoffset:0;stroke-opacity:1"
       id="path912" />
    <path
       d="m 412.207,437.526 c 5.919,8.009 17.062,28.902 24.375,41.786 7.312,12.884 10.224,17.498 16.269,23.8"
       style="fill:none;stroke:#231f20;stroke-width:0.5;stroke-linecap:round;stroke-linejoin:round;stroke-miterlimit:4;stroke-dasharray:2.8, 1.8;stroke-dashoffset:0;stroke-opacity:1"
       id="path914" />
    <path
       d="m 375.992,421.16 c 3.134,1.393 7.661,0.697 12.884,-3.482 5.223,-4.178 7.166,-5.085 11.491,-5.223 4.759,-0.153 9.75,-4.527 8.706,-10.795 -1.045,-6.268 -4.179,-20.893 -13.581,-18.804 -9.402,2.09 -20.197,16.018 -22.634,20.197"
       style="fill:none;stroke:#231f20;stroke-width:0.5;stroke-linecap:round;stroke-linejoin:round;stroke-miterlimit:4;stroke-dasharray:2.8, 1.8;stroke-dashoffset:0;stroke-opacity:1"
       id="path916" />
    <path
       d="m 377.767,421.688 c -0.382,3.303 1.011,6.088 7.278,8.874 6.268,2.785 11.492,6.964 19.153,4.875 7.66,-2.09 12.541,-6.037 0.177,-24.26"
       style="fill:none;stroke:#231f20;stroke-width:0.5;stroke-linecap:round;stroke-linejoin:round;stroke-miterlimit:4;stroke-dasharray:2.8, 1.8;stroke-dashoffset:0;stroke-opacity:1"
       id="path918" />
    <path
       d="m 411.826,429.12 c 3.862,0.746 15.006,3.183 18.139,-1.692 3.134,-4.875 3.483,-14.973 -0.696,-24.723 0,0 1.393,-11.839 0,-19.849 -1.393,-8.009 -4.527,-11.49 -7.312,-11.49 -2.787,0 -11.138,6.267 -14.971,21.589"
       style="fill:none;stroke:#231f20;stroke-width:0.5;stroke-linecap:round;stroke-linejoin:round;stroke-miterlimit:4;stroke-dasharray:2.8, 1.8;stroke-dashoffset:0;stroke-opacity:1"
       id="path920" />
    <path
       d="m 429.269,402.705 c -4.527,-1.393 -13.232,-4.179 -20.196,-1.045"
       style="fill:none;stroke:#231f20;stroke-width:0.5;stroke-linecap:round;stroke-linejoin:round;stroke-miterlimit:4;stroke-dasharray:2.8, 1.8;stroke-dashoffset:0;stroke-opacity:1"
       id="path922" />
    <path
       d="m 451.903,389.821 c 0,0 -10.172,-6.762 -16.366,-1.045 -4.527,4.179 -1.393,17.062 -1.393,20.893 0,3.831 4.875,7.313 7.313,5.572 3.064,-2.189 1.044,-5.224 8.008,-6.965 5.592,-1.399 9.75,-12.188 2.438,-18.455 z"
       style="fill:none;stroke:#231f20;stroke-width:0.5;stroke-linecap:round;stroke-linejoin:round;stroke-miterlimit:4;stroke-dasharray:2.8, 1.8;stroke-dashoffset:0;stroke-opacity:1"
       id="path924" />
    <path
       d="m 451.903,389.821 c 2.786,-4.528 4.179,-9.403 2.786,-14.625 -1.394,-5.224 -3.482,-12.188 -8.706,-14.278 -5.223,-2.088 -13.929,0 -14.276,6.269 -0.349,6.268 0.347,14.973 3.83,21.589"
       style="fill:none;stroke:#231f20;stroke-width:0.5;stroke-linecap:round;stroke-linejoin:round;stroke-miterlimit:4;stroke-dasharray:2.8, 1.8;stroke-dashoffset:0;stroke-opacity:1"
       id="path926" />
    <path
       d="m 402.168,436.863 c 3.77,2.404 16.306,12.503 11.78,17.029 -4.528,4.527 -9.403,1.741 -13.581,-5.223 -4.179,-6.964 -10.447,-11.839 -12.535,-12.536 -2.09,-0.696 -0.294,-3.321 5.048,-1.793"
       style="fill:none;stroke:#231f20;stroke-width:0.5;stroke-linecap:round;stroke-linejoin:round;stroke-miterlimit:4;stroke-dasharray:2.8, 1.8;stroke-dashoffset:0;stroke-opacity:1"
       id="path928" />
    <path
       d="m 526.52,530.551 c -4.626,-2.489 -27.523,-13.251 -32.899,0.741 -4.111,10.699 22.353,24.975 22.353,24.975"
       style="fill:none;stroke:#231f20;stroke-width:0.5;stroke-linecap:round;stroke-linejoin:round;stroke-miterlimit:4;stroke-dasharray:2.8, 1.8;stroke-dashoffset:0;stroke-opacity:1"
       id="path930" />
    <path
       d="m 494.787,529.013 c -7.056,7.611 -36.268,32.478 -42.884,35.96 -6.616,3.482 -20.96,10.332 -19.915,18.341"
       style="fill:none;stroke:#231f20;stroke-width:0.5;stroke-linecap:round;stroke-linejoin:round;stroke-miterlimit:4;stroke-dasharray:2.8, 1.8;stroke-dashoffset:0;stroke-opacity:1"
       id="path932" />
    <path
       d="m 512.511,525.196 c -5.242,-4.098 -13.251,-10.714 -29.966,-10.018"
       style="fill:none;stroke:#231f20;stroke-width:0.5;stroke-linecap:round;stroke-linejoin:round;stroke-miterlimit:4;stroke-dasharray:2.8, 1.8;stroke-dashoffset:0;stroke-opacity:1"
       id="path934" />
    <path
       d="m 468.664,515.393 c -6.315,-0.215 -35.914,1.41 -46.36,0.018"
       style="fill:none;stroke:#231f20;stroke-width:0.5;stroke-linecap:round;stroke-linejoin:round;stroke-miterlimit:4;stroke-dasharray:2.8, 1.8;stroke-dashoffset:0;stroke-opacity:1"
       id="path936" />
    <path
       d="m 452.851,503.112 c -4.56,1.399 -21.1,5.997 -30.894,7.888"
       style="fill:none;stroke:#231f20;stroke-width:0.5;stroke-linecap:round;stroke-linejoin:round;stroke-miterlimit:4;stroke-dasharray:2.8, 1.8;stroke-dashoffset:0;stroke-opacity:1"
       id="path938" />
    <path
       d="m 308.542,488.668 c 5.12,2.483 9.652,-7.112 4.251,-20.595"
       style="fill:none;stroke:#231f20;stroke-width:0.5;stroke-linecap:round;stroke-linejoin:round;stroke-miterlimit:4;stroke-dasharray:2.8, 1.8;stroke-dashoffset:0;stroke-opacity:1"
       id="path940" />
    <path
       d="m 377.631,512.361 c 9.852,2.469 20.647,3.165 22.039,-5.54 1.393,-8.705 -0.347,-17.063 -13.58,-29.947 -13.232,-12.883 -10.271,-21.954 -9.75,-26.464 1.045,-9.053 -1.518,-22.752 -8.945,-25.546 -5.68,-2.137 -7.073,-3.007 -11.503,-2.903"
       style="fill:none;stroke:#231f20;stroke-width:0.5;stroke-linecap:round;stroke-linejoin:round;stroke-miterlimit:4;stroke-dasharray:2.8, 1.8;stroke-dashoffset:0;stroke-opacity:1"
       id="path942" />
    <path
       d="m 367.983,500.901 c 1.393,-5.919 8.125,-17.991 18.107,-24.027"
       style="fill:none;stroke:#231f20;stroke-width:0.5;stroke-linecap:round;stroke-linejoin:round;stroke-miterlimit:4;stroke-dasharray:2.8, 1.8;stroke-dashoffset:0;stroke-opacity:1"
       id="path944" />
    <path
       d="m 419.625,507.981 c 0.697,0.93 2.679,1.393 1.983,-4.875 -0.696,-6.268 -5.418,-18.902 -14.393,-22.749 -9.75,-4.179 -15.321,-4.411 -21.125,-3.483"
       style="fill:none;stroke:#231f20;stroke-width:0.5;stroke-linecap:round;stroke-linejoin:round;stroke-miterlimit:4;stroke-dasharray:2.8, 1.8;stroke-dashoffset:0;stroke-opacity:1"
       id="path946" />
    <path
       d="m 375.084,544.747 c 2.185,-1.711 7.077,-9.613 4.53,-16.415"
       style="fill:none;stroke:#231f20;stroke-width:0.5;stroke-linecap:round;stroke-linejoin:round;stroke-miterlimit:4;stroke-dasharray:2.8, 1.8;stroke-dashoffset:0;stroke-opacity:1"
       id="path948" />
    <path
       d="m 430.598,564.543 c -0.186,-5.15 -3.417,-38.395 -12.239,-48.61"
       style="fill:none;stroke:#231f20;stroke-width:0.5;stroke-linecap:round;stroke-linejoin:round;stroke-miterlimit:4;stroke-dasharray:2.8, 1.8;stroke-dashoffset:0;stroke-opacity:1"
       id="path950" />
    <path
       d="m 422.304,515.411 c 1.322,-1.175 -0.464,-6.268 -4.642,-9.054 -4.178,-2.785 -13.928,-9.054 -16.947,-2.321 -4.715,10.518 19.5,13.231 21.589,11.375 z"
       style="fill:none;stroke:#231f20;stroke-width:0.5;stroke-linecap:round;stroke-linejoin:round;stroke-miterlimit:4;stroke-dasharray:2.8, 1.8;stroke-dashoffset:0;stroke-opacity:1"
       id="path952" />
    <path
       d="m 507.965,611.75 c 2.09,5.107 3.481,13.232 -3.018,21.821 -6.499,8.59 -11.143,13.001 -19.268,17.876 -8.124,4.875 -11.606,9.285 -18.106,7.892 -6.501,-1.393 -9.75,-8.358 -14.625,-20.661 -4.875,-12.304 -9.984,-24.838 -11.84,-30.178 -1.857,-5.34 -2.553,-8.358 4.179,-8.588 6.731,-0.235 22.054,0.23 28.089,2.32 6.036,2.089 12.261,3.18 16.345,3.795"
       style="fill:none;stroke:#231f20;stroke-width:0.5;stroke-linecap:round;stroke-linejoin:round;stroke-miterlimit:4;stroke-dasharray:2.8, 1.8;stroke-dashoffset:0;stroke-opacity:1"
       id="path954" />
    <path
       d="m 452.948,638.678 c 2.785,-12.536 13.001,-31.571 20.428,-36.446"
       style="fill:none;stroke:#231f20;stroke-width:0.5;stroke-linecap:round;stroke-linejoin:round;stroke-miterlimit:4;stroke-dasharray:2.8, 1.8;stroke-dashoffset:0;stroke-opacity:1"
       id="path956" />
    <path
       d="m 437.163,586.679 c 0,0 -2.738,-0.984 -5.175,-3.365"
       style="fill:none;stroke:#231f20;stroke-width:0.5;stroke-linecap:round;stroke-linejoin:round;stroke-miterlimit:4;stroke-dasharray:2.8, 1.8;stroke-dashoffset:0;stroke-opacity:1"
       id="path958" />
    <path
       d="m 431.358,580.412 c 1.16,5.337 5.57,25.535 5.339,28.553 -0.232,3.017 -6.964,12.535 -14.393,12.767 0,0 16.019,6.732 20.894,16.018 4.875,9.286 3.481,14.624 2.785,19.5 -0.696,4.874 -6.5,13.928 -7.196,14.857 -0.698,0.929 -2.322,0.696 -4.411,-0.233 -2.088,-0.927 -16.945,-6.035 -21.589,-6.963 -4.644,-0.929 -30.643,-5.34 -47.357,-9.519 0,0 -0.928,6.269 -6.268,4.411 -5.34,-1.857 -14.783,-6.396 -18.729,-8.95 -3.946,-2.553 -13.308,-8.46 -14.469,-8.925 -1.16,-0.465 -5.802,-0.928 -7.195,-5.803 -1.393,-4.875 -5.109,-22.054 -5.34,-28.09 -0.231,-6.035 2.089,-13.233 8.59,-10.447 0,0 -3.997,-6.227 20.682,-5.67"
       style="fill:none;stroke:#231f20;stroke-width:0.5;stroke-linecap:round;stroke-linejoin:round;stroke-miterlimit:4;stroke-dasharray:2.8, 1.8;stroke-dashoffset:0;stroke-opacity:1"
       id="path960" />
    <path
       d="m 444,662.98 c -4.517,-3.641 -11.018,-9.676 -17.75,-9.444 -6.731,0.232 -11.744,4.202 -13.997,11.27"
       style="fill:none;stroke:#231f20;stroke-width:0.5;stroke-linecap:round;stroke-linejoin:round;stroke-miterlimit:4;stroke-dasharray:2.8, 1.8;stroke-dashoffset:0;stroke-opacity:1"
       id="path962" />
    <path
       d="m 430.662,569.732 c 0,-2.089 0.464,-8.588 -2.089,-11.839 -2.554,-3.251 -9.984,-9.984 -14.625,-10.216 -4.643,-0.23 -13.046,3.192 -16.483,9.52 -4.411,8.124 -6.964,17.641 -5.571,32.034 0,0 -4.902,-6.944 -20.906,-11.364"
       style="fill:none;stroke:#231f20;stroke-width:0.5;stroke-linecap:round;stroke-linejoin:round;stroke-miterlimit:4;stroke-dasharray:2.8, 1.8;stroke-dashoffset:0;stroke-opacity:1"
       id="path964" />
    <path
       d="m 422.304,621.732 c -4.875,-0.232 -12.534,-2.09 -15.089,-3.251 -2.553,-1.159 -13.695,-4.643 -15.321,-29.25"
       style="fill:none;stroke:#231f20;stroke-width:0.5;stroke-linecap:round;stroke-linejoin:round;stroke-miterlimit:4;stroke-dasharray:2.8, 1.8;stroke-dashoffset:0;stroke-opacity:1"
       id="path966" />
    <path
       d="M 351.036,613.56 C 343.608,610.589 323.412,602 322.019,597.588"
       style="fill:none;stroke:#231f20;stroke-width:0.5;stroke-linecap:round;stroke-linejoin:round;stroke-miterlimit:4;stroke-dasharray:2.8, 1.8;stroke-dashoffset:0;stroke-opacity:1"
       id="path968" />
    <path
       d="m 365.43,655.392 c -0.233,-5.106 -2.323,-16.249 -3.251,-19.267 -0.928,-3.018 -5.699,-9.045 -12.252,-11.835"
       style="fill:none;stroke:#231f20;stroke-width:0.5;stroke-linecap:round;stroke-linejoin:round;stroke-miterlimit:4;stroke-dasharray:2.8, 1.8;stroke-dashoffset:0;stroke-opacity:1"
       id="path970" />
    <path
       d="m 363.069,639.798 c -0.619,-2.743 -3.21,-4.834 -8.319,-3.441 -5.107,1.393 -13.313,8.797 -14.317,14.496"
       style="fill:none;stroke:#231f20;stroke-width:0.5;stroke-linecap:round;stroke-linejoin:round;stroke-miterlimit:4;stroke-dasharray:2.8, 1.8;stroke-dashoffset:0;stroke-opacity:1"
       id="path972" />
    <path
       d="m 393.268,599.217 c -0.214,3.246 -3.231,5.57 -9.268,4.176 -6.035,-1.393 -26.545,-8.067 -29.331,-8.996"
       style="fill:none;stroke:#231f20;stroke-width:0.5;stroke-linecap:round;stroke-linejoin:round;stroke-miterlimit:4;stroke-dasharray:2.8, 1.8;stroke-dashoffset:0;stroke-opacity:1"
       id="path974" />
    <path
       d="m 317.84,582.732 c 4.179,2.32 11.374,6.035 16.482,7.195 5.107,1.162 13.58,3.368 17.876,4.179 4.296,0.812 12.534,0.232 11.374,-2.089 0,0 11.839,-5.297 6.964,-14.119"
       style="fill:none;stroke:#231f20;stroke-width:0.5;stroke-linecap:round;stroke-linejoin:round;stroke-miterlimit:4;stroke-dasharray:2.8, 1.8;stroke-dashoffset:0;stroke-opacity:1"
       id="path976" />
    <path
       d="m 363.572,592.017 c -1.393,-1.855 -5.804,-3.945 -13.233,-5.338 -7.427,-1.392 -19.963,-4.179 -24.839,-8.126 -4.874,-3.946 -12.683,-12.713 -16.017,-21.822 -3.718,-10.155 -5.803,-16.017 -6.732,-20.428 -0.929,-4.411 -2.553,-14.625 -0.696,-14.857 1.857,-0.233 2.553,10.912 3.945,14.857 1.394,3.947 4.178,12.304 8.126,19.964 3.947,7.661 6.988,12.62 12.071,17.179 6.732,6.035 26.537,12.045 31.956,15.307"
       style="fill:none;stroke:#231f20;stroke-width:0.5;stroke-linecap:round;stroke-linejoin:round;stroke-miterlimit:4;stroke-dasharray:2.8, 1.8;stroke-dashoffset:0;stroke-opacity:1"
       id="path978" />
    <path
       d="m 336.66,546.662 c -5.124,-6.18 -16.721,-27.769 -35.293,-27.073"
       style="fill:none;stroke:#231f20;stroke-width:0.5;stroke-linecap:round;stroke-linejoin:round;stroke-miterlimit:4;stroke-dasharray:2.8, 1.8;stroke-dashoffset:0;stroke-opacity:1"
       id="path980" />
    <path
       d="m 352.198,594.106 c 0,0 -0.143,-7.381 3.218,-6.246"
       style="fill:none;stroke:#231f20;stroke-width:0.5;stroke-linecap:round;stroke-linejoin:round;stroke-miterlimit:4;stroke-dasharray:2.8, 1.8;stroke-dashoffset:0;stroke-opacity:1"
       id="path982" />
    <path
       d="m 727.804,594.106 c 0,0 0.144,-7.381 -3.218,-6.246"
       style="fill:none;stroke:#231f20;stroke-width:0.5;stroke-linecap:round;stroke-linejoin:round;stroke-miterlimit:4;stroke-dasharray:2.8, 1.8;stroke-dashoffset:0;stroke-opacity:1"
       id="path984" />
    <path
       d="m 786.538,637.055 c -1.393,-2.786 -9.403,-15.672 -8.706,-22.287 0.697,-6.616 4.178,-13.232 13.928,-8.357 9.75,4.875 4.179,15.321 8.01,22.285 3.83,6.965 6.964,9.402 15.321,13.928 8.357,4.528 19.848,7.662 22.982,9.054 3.135,1.393 9.75,6.268 13.581,9.054 3.83,2.786 9.401,4.179 12.535,2.786 3.135,-1.394 3.135,-11.144 1.741,-14.277 -1.392,-3.134 -3.83,-14.277 -14.276,-18.108 -10.446,-3.83 -23.331,-7.312 -28.554,-14.625 -5.224,-7.312 -4.527,-12.535 5.571,-16.366 10.099,-3.83 28.903,-1.74 37.955,-1.044 9.054,0.696 23.679,1.741 35.519,6.616 11.839,4.875 20.544,9.402 24.723,12.188 4.178,2.785 12.187,0.696 9.402,-6.269 -2.786,-6.964 -9.75,-14.972 -19.5,-18.803 -9.75,-3.83 -28.554,-4.875 -30.295,-7.661 -1.741,-2.786 0,-8.008 14.625,-12.536 14.625,-4.526 24.724,-2.437 34.821,4.528 10.099,6.963 12.188,15.321 13.929,18.455 1.741,3.134 7.661,8.008 11.491,-0.349 3.83,-8.356 5.92,-19.151 5.224,-22.634 -0.697,-3.481 -3.135,-5.571 -10.099,-5.919 -6.964,-0.348 -14.276,-4.178 -16.366,-8.706 -2.089,-4.526 -1.392,-6.267 3.134,-6.616 4.527,-0.348 18.804,-2.437 18.456,-11.839 -0.349,-9.402 -12.188,-13.58 -13.929,-14.625 -1.741,-1.045 -8.706,-1.741 -11.84,-2.437 -3.133,-0.697 -6.616,-7.313 -12.883,-10.099 -6.268,-2.785 -14.974,-1.392 -21.938,-0.696 -6.964,0.696 -10.795,2.786 -10.795,8.705 0,5.92 3.134,10.795 11.491,12.885 8.358,2.088 23.679,6.267 19.849,11.142 -3.831,4.875 -14.625,7.313 -21.241,8.009 -6.616,0.696 -14.625,3.482 -17.063,9.75 0,0 -8.009,-2.437 -21.937,2.437 -13.929,4.876 -46.236,15.095 -71.486,4.525"
       style="fill:none;stroke:#231f20;stroke-width:0.75;stroke-linecap:round;stroke-linejoin:round;stroke-miterlimit:4;stroke-dasharray:0, 2;stroke-dashoffset:0;stroke-opacity:1"
       id="path986" />
    <path
       d="m 540.002,637.055 c -14.626,0 -24.028,5.918 -31.34,13.927 -7.313,8.009 -1.044,12.536 4.875,14.625 5.92,2.089 20.893,1.393 26.465,1.393 5.571,0 20.543,0.696 26.463,-1.393 5.92,-2.089 12.188,-6.616 4.875,-14.625 -7.312,-8.009 -16.714,-13.927 -31.338,-13.927 z"
       style="fill:none;stroke:#231f20;stroke-width:0.75;stroke-linecap:round;stroke-linejoin:round;stroke-miterlimit:4;stroke-dasharray:0, 2;stroke-dashoffset:3.25;stroke-opacity:1"
       id="path988" />
    <path
       d="m 540.002,793.053 c -8.707,0 -29.251,-0.347 -29.251,6.269 0,6.616 24.027,3.83 29.251,3.83 5.222,0 29.25,2.786 29.25,-3.83 0,-6.616 -20.545,-6.269 -29.25,-6.269 z"
       style="fill:none;stroke:#231f20;stroke-width:0.75;stroke-linecap:round;stroke-linejoin:round;stroke-miterlimit:4;stroke-dasharray:0, 2;stroke-dashoffset:3;stroke-opacity:1"
       id="path990" />
    <path
       d="m 540.002,731.768 c -5.224,0 -18.457,6.268 -41.787,6.616 -18.814,0.281 -26.116,-12.187 -29.946,-17.76 -3.83,-5.571 -4.179,-6.267 -6.268,-6.963 -2.089,-0.697 -8.009,-2.438 -14.625,-6.268 -6.616,-3.831 -11.839,-9.402 -26.116,-12.187 -19.506,-3.807 -19.5,12.883 -17.411,19.151 2.089,6.267 15.67,30.643 19.151,41.09 3.483,10.446 0,23.33 -5.571,32.384 -5.571,9.053 -0.696,18.455 6.616,28.901 7.313,10.447 28.206,30.991 36.912,34.822 8.705,3.83 19.151,3.482 21.937,3.83 2.785,0.348 6.964,2.438 16.366,2.089 4.885,-0.181 29.598,-2.089 40.742,-2.089 11.142,0 35.856,1.908 40.741,2.089 9.401,0.349 13.58,-1.741 16.366,-2.089 2.785,-0.348 13.231,0 21.937,-3.83 8.706,-3.831 29.598,-24.375 36.911,-34.822 7.312,-10.446 12.187,-19.848 6.616,-28.901 -5.571,-9.054 -9.054,-21.938 -5.571,-32.384 3.482,-10.447 17.062,-34.823 19.151,-41.09 2.09,-6.268 2.095,-22.958 -17.41,-19.151 -14.278,2.785 -19.5,8.356 -26.117,12.187 -6.616,3.83 -12.536,5.571 -14.624,6.268 -2.09,0.696 -2.438,1.392 -6.268,6.963 -3.831,5.573 -11.133,18.041 -29.947,17.76 -23.33,-0.348 -36.563,-6.616 -41.785,-6.616 z"
       style="fill:none;stroke:#231f20;stroke-width:0.75;stroke-linecap:round;stroke-linejoin:round;stroke-miterlimit:4;stroke-dasharray:0, 2;stroke-dashoffset:2.9688;stroke-opacity:1"
       id="path992" />
    <path
       d="m 293.465,637.055 c 1.393,-2.786 9.402,-15.672 8.705,-22.287 -0.696,-6.616 -4.178,-13.232 -13.928,-8.357 -9.75,4.875 -4.179,15.321 -8.009,22.285 -3.83,6.965 -6.965,9.402 -15.321,13.928 -8.358,4.528 -19.849,7.662 -22.983,9.054 -3.134,1.393 -9.75,6.268 -13.58,9.054 -3.831,2.786 -9.402,4.179 -12.536,2.786 -3.134,-1.394 -3.134,-11.144 -1.741,-14.277 1.392,-3.134 3.83,-14.277 14.277,-18.108 10.446,-3.83 23.33,-7.312 28.554,-14.625 5.223,-7.312 4.526,-12.535 -5.572,-16.366 -10.098,-3.83 -28.902,-1.74 -37.955,-1.044 -9.054,0.696 -23.679,1.741 -35.518,6.616 -11.84,4.875 -20.545,9.402 -24.724,12.188 -4.178,2.785 -12.187,0.696 -9.401,-6.269 2.785,-6.964 9.75,-14.972 19.5,-18.803 9.75,-3.83 28.554,-4.875 30.294,-7.661 1.741,-2.786 0,-8.008 -14.625,-12.536 -14.625,-4.526 -24.723,-2.437 -34.821,4.528 -10.098,6.963 -12.188,15.321 -13.929,18.455 -1.741,3.134 -7.66,8.008 -11.491,-0.349 -3.83,-8.356 -5.919,-19.151 -5.223,-22.634 0.696,-3.481 3.134,-5.571 10.098,-5.919 6.964,-0.348 14.277,-4.178 16.366,-8.706 2.09,-4.526 1.393,-6.267 -3.134,-6.616 -4.526,-0.348 -18.804,-2.437 -18.455,-11.839 0.348,-9.402 12.187,-13.58 13.929,-14.625 1.741,-1.045 8.705,-1.741 11.839,-2.437 3.133,-0.697 6.616,-7.313 12.883,-10.099 6.269,-2.785 14.974,-1.392 21.938,-0.696 6.965,0.696 10.795,2.786 10.795,8.705 0,5.92 -3.134,10.795 -11.491,12.885 -8.357,2.088 -23.679,6.267 -19.848,11.142 3.83,4.875 14.625,7.313 21.241,8.009 6.615,0.696 14.625,3.482 17.063,9.75 0,0 8.008,-2.437 21.937,2.437 13.929,4.876 46.236,15.095 71.485,4.525"
       style="fill:none;stroke:#231f20;stroke-width:0.75;stroke-linecap:round;stroke-linejoin:round;stroke-miterlimit:4;stroke-dasharray:0, 2;stroke-dashoffset:0;stroke-opacity:1"
       id="path994" />
    <path
       d="m 256.903,660.036 c -7.266,3.702 -30.295,12.187 -39.349,20.892 -9.054,8.706 -3.83,37.259 0.696,37.608 4.527,0.348 8.009,-13.929 11.143,-23.33 3.135,-9.403 2.786,-13.929 12.188,-16.019 9.402,-2.089 3.134,-3.83 12.884,-8.705 9.75,-4.875 16.714,-0.349 21.938,10.446 5.223,10.795 -6.269,24.375 -12.885,27.509 -6.615,3.135 -8.356,10.099 -10.446,21.241 -2.089,11.144 -3.482,13.233 -7.66,15.67 -4.179,2.438 -11.144,-5.92 -16.367,2.09 -4.071,6.241 11.143,26.464 22.634,39.696 11.491,13.232 20.893,24.723 29.25,27.857 8.358,3.134 9.402,-2.785 8.009,-6.964 -1.393,-4.179 -3.482,-6.268 -4.179,-22.286 -0.696,-16.018 2.09,-22.285 5.92,-32.732 3.83,-10.447 10.099,-23.678 12.884,-33.428 2.786,-9.75 8.357,-10.447 18.107,-21.938 9.75,-11.491 19.152,-4.875 28.902,3.83 9.75,8.705 14.625,21.938 17.76,31.339 3.133,9.402 -0.697,8.357 -1.742,9.75 -1.045,1.394 -2.786,10.447 -3.831,14.974 -1.044,4.527 -11.839,7.312 -19.847,11.142 -8.009,3.831 -6.617,14.974 -5.572,24.724 1.044,9.75 -4.875,17.062 -11.84,22.982 -6.963,5.92 -1.392,14.973 3.832,19.848 5.222,4.875 23.33,14.625 33.776,13.581 10.446,-1.045 8.705,-13.232 8.357,-20.545 -0.348,-7.312 -1.045,-16.018 6.964,-18.455 8.009,-2.438 14.278,2.785 20.894,11.491 6.615,8.705 7.66,16.365 3.134,24.375 -4.528,8.009 5.571,11.839 14.625,17.063 9.053,5.222 24.375,13.58 35.866,14.972 11.491,1.393 20.196,-0.696 32.731,-0.696 12.536,0 45.616,1.393 54.323,1.393 8.705,0 41.785,-1.393 54.321,-1.393 12.536,0 21.241,2.089 32.732,0.696 11.491,-1.392 26.813,-9.75 35.866,-14.972 9.054,-5.224 19.152,-9.054 14.625,-17.063 -4.527,-8.01 -3.482,-15.67 3.134,-24.375 6.616,-8.706 12.884,-13.929 20.893,-11.491 8.009,2.437 7.312,11.143 6.965,18.455 -0.349,7.313 -2.09,19.5 8.356,20.545 10.447,1.044 28.554,-8.706 33.777,-13.581 5.223,-4.875 10.795,-13.928 3.831,-19.848 -6.964,-5.92 -12.884,-13.232 -11.839,-22.982 1.044,-9.75 2.437,-20.893 -5.572,-24.724 -8.009,-3.83 -18.803,-6.615 -19.848,-11.142 -1.045,-4.527 -2.786,-13.58 -3.83,-14.974 -1.045,-1.393 -4.875,-0.348 -1.742,-9.75 3.134,-9.401 8.009,-22.634 17.759,-31.339 9.75,-8.705 19.152,-15.321 28.902,-3.83 9.75,11.491 15.322,12.188 18.107,21.938 2.786,9.75 9.054,22.981 12.884,33.428 3.831,10.447 6.616,16.714 5.92,32.732 -0.697,16.018 -2.785,18.107 -4.179,22.286 -1.393,4.179 -0.348,10.098 8.009,6.964 8.357,-3.134 17.759,-14.625 29.25,-27.857 11.491,-13.232 26.705,-33.455 22.635,-39.696 -5.224,-8.01 -12.188,0.348 -16.367,-2.09 -4.178,-2.437 -5.571,-4.526 -7.661,-15.67 -2.089,-11.142 -3.83,-18.106 -10.446,-21.241 -6.616,-3.134 -18.108,-16.714 -12.884,-27.509 5.223,-10.795 12.188,-15.321 21.938,-10.446 9.75,4.875 3.482,6.616 12.883,8.705 9.402,2.09 9.054,6.616 12.188,16.019 3.134,9.401 6.616,23.678 11.143,23.33 4.527,-0.349 9.75,-28.902 0.697,-37.608 -9.054,-8.705 -32.084,-17.19 -39.349,-20.892"
       style="fill:none;stroke:#231f20;stroke-width:0.75;stroke-linecap:round;stroke-linejoin:round;stroke-miterlimit:4;stroke-dasharray:0, 2;stroke-dashoffset:3;stroke-opacity:1"
       id="path996" />
  </g>
</svg>
