<?xml version="1.0" encoding="UTF-8" standalone="no"?>
<!-- Created with Inkscape (http://www.inkscape.org/) -->

<svg
   version="1.1"
   id="svg2"
   width="1440"
   height="1344"
   viewBox="0 0 1440 1344"
   xmlns="http://www.w3.org/2000/svg"
   xmlns:svg="http://www.w3.org/2000/svg">
  <defs
     id="defs6" />
  <g
     id="g8">
    <path
       d="m 540.002,350.821 c -3.714,0 -3.941,-3.237 -5.34,-6.499 -2.786,-6.499 -17.412,-10.446 -26.929,-10.912 -9.518,-0.462 -22.054,-0.697 -38.768,2.437 -16.714,3.134 -43.178,17.411 -58.152,25.071 -14.973,7.662 -37.955,19.5 -51.535,29.948 -13.581,10.446 -18.108,15.321 -26.465,25.419 -8.356,10.098 -10.794,18.456 -12.884,26.812 -2.089,8.358 1.741,17.063 1.741,17.063 -7.312,-6.964 -3.482,28.902 -3.482,28.902 -6.268,1.741 -9.054,24.026 -10.794,27.857 -1.741,3.831 -5.572,19.152 -5.572,19.152 -16.366,6.616 -26.116,31.687 -26.116,31.687 -4.875,-3.481 -14.625,-3.134 -19.152,-4.178 -4.526,-1.044 -44.571,-12.536 -50.491,-13.232 -5.92,-0.696 -10.446,-0.696 -14.276,-4.527 -3.831,-3.83 -9.054,-5.919 -9.054,-5.919 8.705,-3.135 8.705,-12.536 5.571,-21.59 -3.134,-9.054 -11.491,-14.974 -21.937,-16.714 -10.447,-1.741 -37.259,4.526 -52.233,14.625 -14.9738,10.098 -15.6699,16.018 -14.9738,27.16 0.6972,11.144 14.6258,12.884 14.6258,12.884 -12.884,2.786 -14.9735,16.019 -16.3661,30.295 -1.3933,14.277 -0.6972,21.59 8.3571,26.465 9.054,4.875 22.634,-5.224 22.634,-5.224 -5.919,12.884 2.437,16.715 7.661,18.455 5.223,1.742 14.276,2.438 22.982,0.349 8.705,-2.089 18.108,-6.616 25.42,-9.401 7.313,-2.787 25.419,-4.875 30.643,-5.224 5.222,-0.349 5.92,2.089 0.347,4.179 -5.571,2.089 -12.85,6.242 -18.106,16.366 -9.402,18.106 4.526,25.419 4.526,25.419 -4.178,1.045 -11.142,5.92 -17.062,18.456 -5.92,12.535 -3.83,34.125 2.09,51.884 5.919,17.758 23.33,13.58 23.33,13.58 -8.009,6.965 -2.786,19.5 4.875,33.428 7.66,13.929 22.633,27.509 30.642,33.778 8.009,6.267 22.634,16.017 36.911,20.892 14.277,4.875 23.679,-8.705 23.679,-8.705 -3.134,7.66 3.83,10.447 8.358,13.58 4.526,3.134 23.33,11.492 33.776,14.625 10.446,3.134 26.465,6.965 35.17,6.965 8.705,0 11.142,-5.92 11.142,-5.92 0,4.875 11.143,14.625 16.715,19.152 5.572,4.527 20.544,12.187 37.607,16.366 17.062,4.179 67.902,7.661 90.885,7.661 22.981,0 73.821,-3.482 90.883,-7.661 17.063,-4.179 32.036,-11.839 37.608,-16.366 5.571,-4.527 16.714,-14.277 16.714,-19.152 0,0 2.437,5.92 11.143,5.92 8.705,0 24.723,-3.831 35.169,-6.965 10.447,-3.133 29.25,-11.491 33.777,-14.625 4.527,-3.133 11.492,-5.92 8.358,-13.58 0,0 9.401,13.58 23.678,8.705 14.277,-4.875 28.902,-14.625 36.911,-20.892 8.009,-6.269 22.982,-19.849 30.643,-33.778 7.66,-13.928 12.884,-26.463 4.875,-33.428 0,0 17.41,4.178 23.33,-13.58 5.92,-17.759 8.009,-39.349 2.089,-51.884 -5.919,-12.536 -12.884,-17.411 -17.062,-18.456 0,0 13.928,-7.313 4.527,-25.419 -5.256,-10.124 -12.536,-14.277 -18.107,-16.366 -5.572,-2.09 -4.875,-4.528 0.348,-4.179 5.223,0.349 23.33,2.437 30.643,5.224 7.312,2.785 16.714,7.312 25.42,9.401 8.705,2.089 17.759,1.393 22.981,-0.349 5.224,-1.74 13.581,-5.571 7.661,-18.455 0,0 13.58,10.099 22.634,5.224 9.054,-4.875 9.75,-12.188 8.357,-26.465 -1.392,-14.276 -3.482,-27.509 -16.366,-30.295 0,0 13.929,-1.74 14.625,-12.884 0.697,-11.142 0,-17.062 -14.973,-27.16 -14.973,-10.099 -41.786,-16.366 -52.232,-14.625 -10.447,1.74 -18.804,7.66 -21.937,16.714 -3.135,9.054 -3.135,18.455 5.571,21.59 0,0 -5.224,2.089 -9.054,5.919 -3.83,3.831 -8.357,3.831 -14.277,4.527 -5.919,0.696 -45.964,12.188 -50.491,13.232 -4.527,1.044 -14.277,0.697 -19.152,4.178 0,0 -9.75,-25.071 -26.116,-31.687 0,0 -3.83,-15.321 -5.571,-19.152 -1.741,-3.831 -4.527,-26.116 -10.795,-27.857 0,0 3.83,-35.866 -3.482,-28.902 0,0 3.831,-8.705 1.741,-17.063 -2.089,-8.356 -4.527,-16.714 -12.884,-26.812 -8.357,-10.098 -12.884,-14.973 -26.464,-25.419 -13.581,-10.448 -36.562,-22.286 -51.536,-29.948 -14.974,-7.66 -41.437,-21.937 -58.152,-25.071 -16.714,-3.134 -29.25,-2.899 -38.767,-2.437 -9.518,0.466 -24.143,4.413 -26.929,10.912 -1.399,3.262 -1.627,6.499 -5.339,6.499 z m 0,446.876 c -13.465,0 -37.84,4.41 -38.537,1.856 -0.697,-2.553 25.304,-9.517 38.537,-9.517 13.231,0 39.232,6.964 38.536,9.517 -0.697,2.554 -25.074,-1.856 -38.536,-1.856"
       style="fill:#ffffff;fill-opacity:1;fill-rule:nonzero;stroke:none;stroke-width:0.1"
       id="path668" />
    <path
       d="m 540.002,350.821 c -3.714,0 -3.941,-3.237 -5.34,-6.499 -2.786,-6.499 -17.412,-10.446 -26.929,-10.912 -9.518,-0.462 -22.054,-0.697 -38.768,2.437 -16.714,3.134 -43.178,17.411 -58.152,25.071 -14.973,7.662 -37.955,19.5 -51.535,29.948 -13.581,10.446 -18.108,15.321 -26.465,25.419 -8.356,10.098 -10.794,18.456 -12.884,26.812 -2.089,8.358 1.741,17.063 1.741,17.063 -7.312,-6.964 -3.482,28.902 -3.482,28.902 -6.268,1.741 -9.054,24.026 -10.794,27.857 -1.741,3.831 -5.572,19.152 -5.572,19.152 -16.366,6.616 -26.116,31.687 -26.116,31.687 -4.875,-3.481 -14.625,-3.134 -19.152,-4.178 -4.526,-1.044 -44.571,-12.536 -50.491,-13.232 -5.92,-0.696 -10.446,-0.696 -14.276,-4.527 -3.831,-3.83 -9.054,-5.919 -9.054,-5.919 8.705,-3.135 8.705,-12.536 5.571,-21.59 -3.134,-9.054 -11.491,-14.974 -21.937,-16.714 -10.447,-1.741 -37.259,4.526 -52.233,14.625 -14.9738,10.098 -15.6699,16.018 -14.9738,27.16 0.6972,11.144 14.6258,12.884 14.6258,12.884 -12.884,2.786 -14.9735,16.019 -16.3661,30.295 -1.3933,14.277 -0.6972,21.59 8.3571,26.465 9.054,4.875 22.634,-5.224 22.634,-5.224 -5.919,12.884 2.437,16.715 7.661,18.455 5.223,1.742 14.276,2.438 22.982,0.349 8.705,-2.089 18.108,-6.616 25.42,-9.401 7.313,-2.787 25.419,-4.875 30.643,-5.224 5.222,-0.349 5.92,2.089 0.347,4.179 -5.571,2.089 -12.85,6.242 -18.106,16.366 -9.402,18.106 4.526,25.419 4.526,25.419 -4.178,1.045 -11.142,5.92 -17.062,18.456 -5.92,12.535 -3.83,34.125 2.09,51.884 5.919,17.758 23.33,13.58 23.33,13.58 -8.009,6.965 -2.786,19.5 4.875,33.428 7.66,13.929 22.633,27.509 30.642,33.778 8.009,6.267 22.634,16.017 36.911,20.892 14.277,4.875 23.679,-8.705 23.679,-8.705 -3.134,7.66 3.83,10.447 8.358,13.58 4.526,3.134 23.33,11.492 33.776,14.625 10.446,3.134 26.465,6.965 35.17,6.965 8.705,0 11.142,-5.92 11.142,-5.92 0,4.875 11.143,14.625 16.715,19.152 5.572,4.527 20.544,12.187 37.607,16.366 17.062,4.179 67.902,7.661 90.885,7.661 22.981,0 73.821,-3.482 90.883,-7.661 17.063,-4.179 32.036,-11.839 37.608,-16.366 5.571,-4.527 16.714,-14.277 16.714,-19.152 0,0 2.437,5.92 11.143,5.92 8.705,0 24.723,-3.831 35.169,-6.965 10.447,-3.133 29.25,-11.491 33.777,-14.625 4.527,-3.133 11.492,-5.92 8.358,-13.58 0,0 9.401,13.58 23.678,8.705 14.277,-4.875 28.902,-14.625 36.911,-20.892 8.009,-6.269 22.982,-19.849 30.643,-33.778 7.66,-13.928 12.884,-26.463 4.875,-33.428 0,0 17.41,4.178 23.33,-13.58 5.92,-17.759 8.009,-39.349 2.089,-51.884 -5.919,-12.536 -12.884,-17.411 -17.062,-18.456 0,0 13.928,-7.313 4.527,-25.419 -5.256,-10.124 -12.536,-14.277 -18.107,-16.366 -5.572,-2.09 -4.875,-4.528 0.348,-4.179 5.223,0.349 23.33,2.437 30.643,5.224 7.312,2.785 16.714,7.312 25.42,9.401 8.705,2.089 17.759,1.393 22.981,-0.349 5.224,-1.74 13.581,-5.571 7.661,-18.455 0,0 13.58,10.099 22.634,5.224 9.054,-4.875 9.75,-12.188 8.357,-26.465 -1.392,-14.276 -3.482,-27.509 -16.366,-30.295 0,0 13.929,-1.74 14.625,-12.884 0.697,-11.142 0,-17.062 -14.973,-27.16 -14.973,-10.099 -41.786,-16.366 -52.232,-14.625 -10.447,1.74 -18.804,7.66 -21.937,16.714 -3.135,9.054 -3.135,18.455 5.571,21.59 0,0 -5.224,2.089 -9.054,5.919 -3.83,3.831 -8.357,3.831 -14.277,4.527 -5.919,0.696 -45.964,12.188 -50.491,13.232 -4.527,1.044 -14.277,0.697 -19.152,4.178 0,0 -9.75,-25.071 -26.116,-31.687 0,0 -3.83,-15.321 -5.571,-19.152 -1.741,-3.831 -4.527,-26.116 -10.795,-27.857 0,0 3.83,-35.866 -3.482,-28.902 0,0 3.831,-8.705 1.741,-17.063 -2.089,-8.356 -4.527,-16.714 -12.884,-26.812 -8.357,-10.098 -12.884,-14.973 -26.464,-25.419 -13.581,-10.448 -36.562,-22.286 -51.536,-29.948 -14.974,-7.66 -41.437,-21.937 -58.152,-25.071 -16.714,-3.134 -29.25,-2.899 -38.767,-2.437 -9.518,0.466 -24.143,4.413 -26.929,10.912 -1.399,3.262 -1.627,6.499 -5.339,6.499 z m 0,446.876 c -13.465,0 -37.84,4.41 -38.537,1.856 -0.697,-2.553 25.304,-9.517 38.537,-9.517 13.231,0 39.232,6.964 38.536,9.517 -0.697,2.554 -25.074,-1.856 -38.536,-1.856 z"
       style="fill:none;stroke:#231f20;stroke-width:0.75;stroke-linecap:round;stroke-linejoin:round;stroke-miterlimit:4;stroke-dasharray:none;stroke-opacity:1"
       id="path670" />
    <path
       d="m 540.002,350.821 c -5.572,0 -6.269,-10.909 0,-10.909 6.267,0 5.571,10.909 0,10.909"
       style="fill:#ffffff;fill-opacity:1;fill-rule:nonzero;stroke:none;stroke-width:0.1"
       id="path672" />
    <path
       d="m 540.002,350.821 c -5.572,0 -6.269,-10.909 0,-10.909 6.267,0 5.571,10.909 0,10.909 z"
       style="fill:none;stroke:#231f20;stroke-width:0.5;stroke-linecap:round;stroke-linejoin:round;stroke-miterlimit:4;stroke-dasharray:none;stroke-opacity:1"
       id="path674" />
    <path
       d="m 860.664,613.157 c 0.266,-2.354 6.662,-0.986 8.294,-0.809 1.632,0.177 1.836,6.435 -1.731,4.946 -3.566,-1.489 -6.723,-2.73 -6.563,-4.137"
       style="fill:#ffffff;fill-opacity:1;fill-rule:nonzero;stroke:none;stroke-width:0.1"
       id="path676" />
    <path
       d="m 860.664,613.157 c 0.266,-2.354 6.662,-0.986 8.294,-0.809 1.632,0.177 1.836,6.435 -1.731,4.946 -3.566,-1.489 -6.723,-2.73 -6.563,-4.137 z"
       style="fill:none;stroke:#231f20;stroke-width:0.5;stroke-linecap:round;stroke-linejoin:round;stroke-miterlimit:4;stroke-dasharray:none;stroke-opacity:1"
       id="path678" />
    <path
       d="m 219.338,613.157 c -0.266,-2.354 -6.662,-0.986 -8.294,-0.809 -1.632,0.177 -1.835,6.435 1.732,4.946 3.566,-1.489 6.722,-2.73 6.562,-4.137"
       style="fill:#ffffff;fill-opacity:1;fill-rule:nonzero;stroke:none;stroke-width:0.1"
       id="path680" />
    <path
       d="m 219.338,613.157 c -0.266,-2.354 -6.662,-0.986 -8.294,-0.809 -1.632,0.177 -1.835,6.435 1.732,4.946 3.566,-1.489 6.722,-2.73 6.562,-4.137 z"
       style="fill:none;stroke:#231f20;stroke-width:0.5;stroke-linecap:round;stroke-linejoin:round;stroke-miterlimit:4;stroke-dasharray:none;stroke-opacity:1"
       id="path682" />
    <path
       d="m 881.6,706.697 c -1.045,14.972 -4.179,16.017 -8.357,16.017 -4.179,0 -8.009,-10.446 -11.143,-18.803 -3.134,-8.358 -1.392,-24.027 -13.929,-34.125 -12.536,-10.099 -30.642,2.437 -38.303,16.366 -7.66,13.929 -2.438,27.16 10.446,34.821 12.884,7.661 13.581,14.625 15.321,25.071 1.741,10.447 5.573,11.84 12.885,11.492 7.312,-0.348 13.58,1.392 6.616,14.277 -6.965,12.884 -37.26,37.606 -48.054,43.178 -10.794,5.572 -13.58,-13.928 -15.322,-19.848 -1.74,-5.92 -3.481,-26.116 -6.267,-39 -2.786,-12.884 -10.795,-26.465 -14.625,-27.857 -3.83,-1.393 -11.492,-4.875 -18.455,-13.58 -6.965,-8.706 -5.92,-10.447 -18.804,-11.144 -12.884,-0.696 -20.196,2.438 -30.991,14.974 -10.795,12.536 -10.795,22.286 -8.009,37.258 2.785,14.974 14.625,20.545 23.679,22.287 9.053,1.741 8.705,9.75 10.097,12.535 1.394,2.786 14.625,21.241 18.804,27.509 4.179,6.268 -5.223,16.018 -11.143,19.152 -5.92,3.134 -21.937,6.267 -27.508,6.616 -5.573,0.349 -6.054,-3.115 -5.92,-5.92 0.174,-3.656 -0.697,-7.66 -2.786,-12.884 -2.089,-5.222 -6.617,-12.536 -21.242,-11.839 -14.625,0.697 -18.802,11.839 -20.196,28.902 -1.392,17.062 -9.054,18.804 -17.062,23.679 -8.009,4.875 -31.688,9.053 -43.179,10.098 -11.491,1.044 -49.446,2.785 -58.151,2.785 -8.707,0 -46.662,-1.741 -58.153,-2.785 -11.491,-1.045 -35.17,-5.223 -43.179,-10.098 -8.008,-4.875 -15.67,-6.617 -17.062,-23.679 -1.393,-17.063 -5.571,-28.205 -20.196,-28.902 -14.625,-0.697 -19.152,6.617 -21.242,11.839 -2.088,5.224 -2.96,9.228 -2.785,12.884 0.133,2.805 -0.348,6.269 -5.92,5.92 -5.571,-0.349 -21.589,-3.482 -27.508,-6.616 -5.92,-3.134 -15.323,-12.884 -11.144,-19.152 4.179,-6.268 17.411,-24.723 18.804,-27.509 1.392,-2.785 1.045,-10.794 10.098,-12.535 9.054,-1.742 20.893,-7.313 23.679,-22.287 2.785,-14.972 2.785,-24.722 -8.009,-37.258 -10.795,-12.536 -18.107,-15.67 -30.991,-14.974 -12.885,0.697 -11.84,2.438 -18.804,11.144 -6.964,8.705 -14.625,12.187 -18.456,13.58 -3.83,1.392 -11.839,14.973 -14.625,27.857 -2.785,12.884 -4.526,33.08 -6.267,39 -1.742,5.92 -4.527,25.42 -15.322,19.848 -10.794,-5.572 -41.089,-30.294 -48.053,-43.178 -6.965,-12.885 -0.697,-14.625 6.616,-14.277 7.312,0.348 11.143,-1.045 12.884,-11.492 1.741,-10.446 2.437,-17.41 15.321,-25.071 12.884,-7.661 18.107,-20.892 10.446,-34.821 -7.66,-13.929 -25.767,-26.465 -38.303,-16.366 -12.536,10.098 -10.794,25.767 -13.929,34.125 -3.134,8.357 -6.964,18.803 -11.143,18.803 -4.178,0 -7.312,-1.045 -8.357,-16.017 -1.043,-14.962 -9.387,-42.568 14.918,-50.253 4.483,-0.933 9.806,-2.179 15.464,-3.46 0,0 7.714,-1.723 9.455,-2.158 -6.524,2.71 -30.202,6.656 -29.042,32.192 0,0 2.786,-25.768 22.518,-26.232 17.87,-0.421 29.715,6.5 35.518,13.696 5.803,7.196 16.715,29.251 11.84,47.822 -4.875,18.57 -14.86,47.588 -16.484,51.999 -1.624,4.411 -4.642,15.089 -1.856,16.018 2.785,0.929 4.643,-6.035 7.196,-14.625 2.554,-8.589 9.52,-38.534 18.804,-54.089 9.285,-15.554 24.144,-27.857 38.304,-26.696 14.16,1.161 41.786,10.447 50.839,16.25 9.054,5.803 19.036,20.196 22.75,28.321 3.714,8.125 13.928,50.607 -2.438,61.402 -6.497,4.285 -15.754,7.399 -21.938,11.491 -9.39,6.214 -14.943,13.944 -11.491,15.669 2.09,1.045 6.791,-6.963 13.929,-11.142 4.922,-2.881 12.71,-5.571 18.281,-7.486 5.113,-1.758 13.763,-7.019 22.113,4.352 10.097,13.755 17.584,24.201 22.285,31.339 4.205,6.385 12.884,18.107 25.768,18.804 12.884,0.696 71.733,4.875 74.867,4.875 3.133,0 61.982,-4.179 74.866,-4.875 12.884,-0.697 21.563,-12.419 25.767,-18.804 4.701,-7.138 12.188,-17.584 22.286,-31.339 8.349,-11.371 17,-6.11 22.112,-4.352 5.571,1.915 13.36,4.605 18.281,7.486 7.139,4.179 11.839,12.187 13.929,11.142 3.452,-1.725 -2.101,-9.455 -11.491,-15.669 -6.184,-4.092 -15.44,-7.206 -21.938,-11.491 -16.366,-10.795 -6.152,-53.277 -2.438,-61.402 3.715,-8.125 13.697,-22.518 22.75,-28.321 9.053,-5.803 36.679,-15.089 50.839,-16.25 14.161,-1.161 29.019,11.142 38.304,26.696 9.285,15.555 16.251,45.5 18.804,54.089 2.553,8.59 4.411,15.554 7.197,14.625 2.785,-0.929 -0.233,-11.607 -1.857,-16.018 -1.624,-4.411 -11.608,-33.429 -16.483,-51.999 -4.875,-18.571 6.036,-40.626 11.839,-47.822 5.803,-7.196 17.647,-14.117 35.518,-13.696 19.733,0.464 22.518,26.232 22.518,26.232 1.16,-25.536 -22.518,-29.482 -29.042,-32.192 1.741,0.435 9.455,2.158 9.455,2.158 5.658,1.281 10.982,2.527 15.464,3.46 24.305,7.685 15.961,35.291 14.918,50.253"
       style="fill:#d3d2d2;fill-opacity:1;fill-rule:nonzero;stroke:none;stroke-width:0.1"
       id="path684" />
    <path
       d="m 674.064,717.839 c -2.438,5.92 -7.661,21.242 -9.054,30.295 -1.392,9.054 -2.437,22.634 -0.347,32.732 2.089,10.098 -1.742,19.848 -5.573,26.465 -3.83,6.616 -18.803,27.857 -24.026,34.125 -5.224,6.267 -14.625,12.536 -19.849,13.58 -5.222,1.045 -30.294,2.089 -37.258,2.437 -6.964,0.349 -28.902,2.438 -37.955,2.438 -9.054,0 -30.992,-2.089 -37.957,-2.438 -6.963,-0.348 -32.035,-1.392 -37.258,-2.437 -5.223,-1.044 -14.625,-7.313 -19.848,-13.58 -5.224,-6.268 -20.197,-27.509 -24.027,-34.125 -3.83,-6.617 -7.662,-16.367 -5.572,-26.465 2.089,-10.098 1.045,-23.678 -0.348,-32.732 -1.393,-9.053 -6.616,-24.375 -9.054,-30.295 -2.438,-5.92 -8.003,-19.255 3.482,-28.553 7.313,-5.92 24.375,-2.089 28.554,-1.045 4.179,1.045 9.319,0.301 12.536,-1.393 6.616,-3.482 15.322,-1.741 22.634,-0.696 7.313,1.045 17.063,-4.179 22.982,-7.313 5.919,-3.133 16.018,-7.661 43.876,-7.661 27.856,0 37.955,4.528 43.874,7.661 5.92,3.134 15.67,8.358 22.983,7.313 7.312,-1.045 16.017,-2.786 22.634,0.696 3.217,1.694 8.356,2.438 12.535,1.393 4.179,-1.044 21.241,-4.875 28.554,1.045 11.486,9.298 5.92,22.633 3.482,28.553 z m -22.286,-23.678 c -6.616,0.696 -13.929,1.741 -18.455,-0.349 -4.527,-2.089 -20.197,-6.615 -28.205,-1.044 -8.009,5.571 -13.233,9.75 -22.983,7.66 -9.75,-2.089 -19.152,-6.964 -27.509,-3.481 -8.357,3.481 -12.536,4.875 -14.624,4.875 -2.09,0 -6.269,-1.394 -14.626,-4.875 -8.357,-3.483 -17.758,1.392 -27.509,3.481 -9.75,2.09 -14.973,-2.089 -22.982,-7.66 -8.009,-5.571 -23.678,-1.045 -28.206,1.044 -4.526,2.09 -11.839,1.045 -18.455,0.349 -6.616,-0.697 -8.009,9.401 -5.92,12.187 2.09,2.786 12.188,14.625 16.715,21.589 4.526,6.965 1.045,13.929 -1.393,19.501 -2.438,5.571 0,18.455 0.348,22.981 0.349,4.528 1.045,13.581 -1.045,16.715 -2.089,3.134 -3.481,8.357 -2.437,11.839 1.045,3.483 12.536,28.206 17.062,34.821 4.528,6.617 17.411,8.01 21.938,8.358 4.527,0.348 13.232,-1.393 22.634,-3.134 9.402,-1.741 36.214,-4.875 43.876,-4.875 7.66,0 34.472,3.134 43.874,4.875 9.402,1.741 18.108,3.482 22.634,3.134 4.527,-0.348 17.411,-1.741 21.938,-8.358 4.526,-6.615 16.017,-31.338 17.062,-34.821 1.045,-3.482 -0.348,-8.705 -2.437,-11.839 -2.089,-3.134 -1.393,-12.187 -1.045,-16.715 0.348,-4.526 2.786,-17.41 0.348,-22.981 -2.437,-5.572 -5.919,-12.536 -1.392,-19.501 4.526,-6.964 14.625,-18.803 16.714,-21.589 2.09,-2.786 0.696,-12.884 -5.92,-12.187"
       style="fill:#d3d2d2;fill-opacity:1;fill-rule:nonzero;stroke:none;stroke-width:0.1"
       id="path686" />
    <path
       d="m 960.645,585.052 c -1.393,-5.106 -7.893,-9.981 -13.929,-14.392 -6.035,-4.411 -10.446,-6.499 -21.356,-6.036 -10.91,0.464 -27.626,7.198 -31.572,9.054 -3.947,1.857 -13.233,9.054 -12.303,12.767 0.929,3.715 13.231,5.109 22.749,7.429 9.518,2.321 20.196,9.054 20.196,9.054 -3.481,-1.392 -16.25,-4.41 -22.517,-5.571 -6.269,-1.162 -26.929,-4.644 -33.197,-5.34 -6.267,-0.697 -22.518,-2.09 -30.876,-1.159 -8.356,0.928 -4.875,11.142 -0.464,18.338 4.412,7.196 14.162,14.625 17.876,16.715 3.712,2.089 2.088,3.017 0,2.089 -2.09,-0.928 -15.322,-7.197 -19.964,-9.75 -4.643,-2.554 -12.073,-6.5 -15.554,-13.698 -3.482,-7.195 -10.214,-16.017 -19.035,-19.265 -8.822,-3.251 -16.251,-0.235 -17.876,0.696 -1.626,0.928 -8.125,6.034 -7.429,12.07 0.697,6.037 5.572,14.394 7.894,16.25 2.322,1.857 4.875,4.179 9.053,6.5 4.179,2.322 10.911,6.269 14.857,8.59 2.418,1.422 7.018,4.677 11.82,8.106 3.032,2.165 6.146,4.399 8.841,6.287 4.773,3.34 8.238,5.263 13.904,7.04 6.524,2.71 30.202,6.656 29.042,32.192 0,0 -2.785,-25.768 -22.518,-26.232 -17.871,-0.421 -29.715,6.5 -35.518,13.696 -5.803,7.196 -16.714,29.251 -11.839,47.822 4.875,18.57 14.859,47.588 16.483,51.999 1.624,4.411 4.642,15.089 1.857,16.018 -2.786,0.929 -4.644,-6.035 -7.197,-14.625 -2.553,-8.589 -9.519,-38.534 -18.804,-54.089 -9.285,-15.554 -24.143,-27.857 -38.304,-26.696 -14.16,1.161 -41.786,10.447 -50.839,16.25 -9.053,5.803 -19.035,20.196 -22.75,28.321 -3.714,8.125 -13.928,50.607 2.438,61.402 6.498,4.285 15.754,7.399 21.938,11.491 9.39,6.214 14.943,13.944 11.491,15.669 -2.09,1.045 -6.79,-6.963 -13.929,-11.142 -4.921,-2.881 -12.71,-5.571 -18.281,-7.486 -5.112,-1.758 -13.763,-7.019 -22.112,4.352 -10.098,13.755 -17.585,24.201 -22.286,31.339 -4.204,6.385 -12.883,18.107 -25.767,18.804 -12.884,0.696 -71.733,4.875 -74.866,4.875 -3.134,0 -61.983,-4.179 -74.867,-4.875 -12.884,-0.697 -21.563,-12.419 -25.768,-18.804 -4.701,-7.138 -12.188,-17.584 -22.285,-31.339 -8.35,-11.371 -17,-6.11 -22.113,-4.352 -5.571,1.915 -13.359,4.605 -18.281,7.486 -7.138,4.179 -11.839,12.187 -13.929,11.142 -3.452,-1.725 2.101,-9.455 11.491,-15.669 6.184,-4.092 15.441,-7.206 21.938,-11.491 16.366,-10.795 6.152,-53.277 2.438,-61.402 -3.714,-8.125 -13.696,-22.518 -22.75,-28.321 -9.053,-5.803 -36.679,-15.089 -50.839,-16.25 -14.16,-1.161 -29.019,11.142 -38.304,26.696 -9.284,15.555 -16.25,45.5 -18.804,54.089 -2.553,8.59 -4.411,15.554 -7.196,14.625 -2.786,-0.929 0.232,-11.607 1.856,-16.018 1.624,-4.411 11.609,-33.429 16.484,-51.999 4.875,-18.571 -6.037,-40.626 -11.84,-47.822 -5.803,-7.196 -17.648,-14.117 -35.518,-13.696 -19.732,0.464 -22.518,26.232 -22.518,26.232 -1.16,-25.536 22.518,-29.482 29.042,-32.192 5.667,-1.777 9.131,-3.7 13.904,-7.04 2.696,-1.888 5.81,-4.122 8.842,-6.287 4.801,-3.429 9.401,-6.684 11.819,-8.106 3.946,-2.321 10.678,-6.268 14.857,-8.59 4.178,-2.321 6.732,-4.643 9.053,-6.5 2.323,-1.856 7.198,-10.213 7.894,-16.25 0.696,-6.036 -5.803,-11.142 -7.428,-12.07 -1.626,-0.931 -9.055,-3.947 -17.876,-0.696 -8.821,3.248 -15.553,12.07 -19.035,19.265 -3.482,7.198 -10.912,11.144 -15.554,13.698 -4.642,2.553 -17.875,8.822 -19.964,9.75 -2.089,0.928 -3.713,0 0,-2.089 3.713,-2.09 13.463,-9.519 17.875,-16.715 4.411,-7.196 7.893,-17.41 -0.464,-18.338 -8.358,-0.931 -24.608,0.462 -30.875,1.159 -6.269,0.696 -26.929,4.178 -33.197,5.34 -6.267,1.161 -19.036,4.179 -22.518,5.571 0,0 10.678,-6.733 20.196,-9.054 9.518,-2.32 21.821,-3.714 22.75,-7.429 0.929,-3.713 -8.357,-10.91 -12.304,-12.767 -3.945,-1.856 -20.661,-8.59 -31.571,-9.054 -10.91,-0.463 -15.321,1.625 -21.357,6.036 -6.036,4.411 -12.536,9.286 -13.928,14.392 0,0 -3.019,-6.73 6.731,-12.534 9.75,-5.804 16.25,-11.377 14.858,-19.966 -1.393,-8.587 -6.963,-15.553 -11.607,-17.409 0,0 13.233,-0.928 22.286,-7.892 0,0 -8.357,8.82 -8.59,13.463 -0.233,4.645 -0.001,11.142 11.607,14.16 11.607,3.019 19.5,4.644 25.768,7.894 6.267,3.249 11.606,6.731 21.589,7.892 9.983,1.162 15.09,6.268 28.323,7.428 13.231,1.162 37.71,0.458 54.14,-6.038 5.798,1.242 34.033,9.689 42.082,11.03 7.547,4.989 24.26,11.491 29.599,12.653 3.961,0.861 13.695,1.159 19.5,0.928 13.929,3.481 30.643,2.785 39.348,1.741 8.706,-1.045 19.848,-3.483 26.465,-3.483 6.616,0 21.588,1.742 27.16,2.786 5.572,1.045 20.512,2.778 26.116,3.134 5.725,0.365 11.84,2.438 11.84,2.438 7.66,16.366 29.481,15.205 33.429,15.205 3.947,0 25.767,1.161 33.428,-15.205 0,0 6.114,-2.073 11.839,-2.438 5.605,-0.356 20.545,-2.089 26.116,-3.134 5.572,-1.044 20.545,-2.786 27.161,-2.786 6.616,0 17.759,2.438 26.464,3.483 8.705,1.044 25.42,1.74 39.349,-1.741 5.804,0.231 15.539,-0.067 19.5,-0.928 5.339,-1.162 22.052,-7.664 29.598,-12.653 8.049,-1.341 36.284,-9.788 42.083,-11.03 16.429,6.496 40.908,7.2 54.14,6.038 13.232,-1.16 18.34,-6.266 28.322,-7.428 9.983,-1.161 15.322,-4.643 21.589,-7.892 6.269,-3.25 14.161,-4.875 25.769,-7.894 11.607,-3.018 11.839,-9.515 11.606,-14.16 -0.232,-4.643 -8.59,-13.463 -8.59,-13.463 9.054,6.964 22.287,7.892 22.287,7.892 -4.645,1.856 -10.214,8.822 -11.608,17.409 -1.392,8.589 5.109,14.162 14.859,19.966 9.75,5.804 6.731,12.534 6.731,12.534 z M 540.002,624.75 c -13.002,0 -27.394,14.624 -23.679,25.071 3.207,9.019 16.714,12.768 23.679,12.768 6.963,0 20.47,-3.749 23.678,-12.768 3.715,-10.447 -10.678,-25.071 -23.678,-25.071 z m 130.58,64.536 c -7.313,-5.92 -24.375,-2.089 -28.554,-1.045 -4.179,1.045 -9.318,0.301 -12.535,-1.393 -6.617,-3.482 -15.322,-1.741 -22.634,-0.696 -7.313,1.045 -17.063,-4.179 -22.983,-7.313 -5.919,-3.133 -16.018,-7.661 -43.874,-7.661 -27.858,0 -37.957,4.528 -43.876,7.661 -5.919,3.134 -15.669,8.358 -22.982,7.313 -7.312,-1.045 -16.018,-2.786 -22.634,0.696 -3.217,1.694 -8.357,2.438 -12.536,1.393 -4.179,-1.044 -21.241,-4.875 -28.554,1.045 -11.485,9.298 -5.92,22.633 -3.482,28.553 2.438,5.92 7.661,21.242 9.054,30.295 1.393,9.054 2.437,22.634 0.348,32.732 -2.09,10.098 1.742,19.848 5.572,26.465 3.83,6.616 18.803,27.857 24.027,34.125 5.223,6.267 14.625,12.536 19.848,13.58 5.223,1.045 30.295,2.089 37.258,2.437 6.965,0.349 28.903,2.438 37.957,2.438 9.053,0 30.991,-2.089 37.955,-2.438 6.964,-0.348 32.036,-1.392 37.258,-2.437 5.224,-1.044 14.625,-7.313 19.849,-13.58 5.223,-6.268 20.196,-27.509 24.026,-34.125 3.831,-6.617 7.662,-16.367 5.573,-26.465 -2.09,-10.098 -1.045,-23.678 0.347,-32.732 1.393,-9.053 6.616,-24.375 9.054,-30.295 2.438,-5.92 8.004,-19.255 -3.482,-28.553"
       style="fill:#b2b1b1;fill-opacity:1;fill-rule:nonzero;stroke:none;stroke-width:0.1"
       id="path688" />
    <path
       d="m 768.43,611.286 c -0.232,7.892 -0.696,16.482 -3.715,21.588 -3.018,5.108 -10.213,7.662 -13.463,8.358 -3.25,0.696 -3.947,1.625 -6.268,-2.321 -2.32,-3.947 -8.126,-6.037 -8.126,-6.037 3.018,2.09 4.082,4.077 5.108,8.589 1.16,5.109 -3.018,8.358 -6.268,10.911 -3.249,2.554 -8.124,3.715 -15.089,3.251 -6.964,-0.463 -9.054,-2.554 -9.054,-2.554 -8.82,-1.16 -25.303,4.411 -29.715,5.572 -4.411,1.16 -14.625,4.41 -29.25,-0.232 -14.625,-4.643 -15.785,-11.839 -18.107,-19.268 C 632.162,631.713 631,621.5 631,621.5 c 0,0 -5.571,5.338 -6.498,6.5 -0.928,1.161 -0.697,4.178 -1.162,9.055 -0.466,4.876 1.858,8.587 5.572,14.623 3.714,6.036 9.053,18.339 9.286,19.733 0.232,1.392 -5.572,5.339 -8.358,5.107 -2.785,-0.232 -8.356,-3.715 -11.375,-5.804 -3.018,-2.09 -13.696,-9.517 -21.589,-15.322 -7.893,-5.804 -22.286,-16.946 -26.696,-26.696 -4.275,-9.453 1.942,-22.816 4.696,-25.868 2.146,-0.631 6.362,-1.734 10.393,-1.989 5.605,-0.356 20.545,-2.089 26.116,-3.134 5.572,-1.044 20.545,-2.786 27.161,-2.786 6.616,0 17.759,2.438 26.464,3.483 8.705,1.044 25.42,1.74 39.349,-1.741 5.804,0.231 15.539,-0.067 19.5,-0.928 13.232,1.16 28.09,-2.786 35.517,-2.323 7.429,0.464 9.287,9.983 9.054,17.876"
       style="fill:#ffffff;fill-opacity:1;fill-rule:nonzero;stroke:none;stroke-width:0.1"
       id="path690" />
    <path
       d="m 792.341,620.803 c -4.178,-2.321 -6.731,-4.643 -9.053,-6.5 -2.322,-1.856 -7.197,-10.213 -7.894,-16.25 -0.696,-6.036 5.803,-11.142 7.429,-12.07 1.625,-0.931 9.054,-3.947 17.876,-0.696 8.821,3.248 15.553,12.07 19.035,19.265 3.481,7.198 10.911,11.144 15.554,13.698 4.642,2.553 17.874,8.822 19.964,9.75 2.088,0.928 3.712,0 0,-2.089 -3.714,-2.09 -13.464,-9.519 -17.876,-16.715 -4.411,-7.196 -7.892,-17.41 0.464,-18.338 8.358,-0.931 24.609,0.462 30.876,1.159 6.268,0.696 26.928,4.178 33.197,5.34 6.267,1.161 19.036,4.179 22.517,5.571 0,0 -10.678,-6.733 -20.196,-9.054 -9.518,-2.32 -21.82,-3.714 -22.749,-7.429 -0.93,-3.713 8.356,-10.91 12.303,-12.767 3.946,-1.856 20.662,-8.59 31.572,-9.054 10.91,-0.463 15.321,1.625 21.356,6.036 6.036,4.411 12.536,9.286 13.929,14.392 0,0 3.019,-6.73 -6.731,-12.534 -9.75,-5.804 -16.251,-11.377 -14.859,-19.966 1.394,-8.587 6.963,-15.553 11.608,-17.409 0,0 -13.233,-0.928 -22.287,-7.892 0,0 8.358,8.82 8.59,13.463 0.233,4.645 10e-4,11.142 -11.606,14.16 -11.608,3.019 -19.5,4.644 -25.769,7.894 -6.267,3.249 -11.606,6.731 -21.589,7.892 -9.982,1.162 -15.09,6.268 -28.322,7.428 -13.232,1.162 -37.711,0.458 -54.14,-6.038 0.224,-0.048 0.418,-0.087 0.574,-0.113 2.464,-0.411 5.216,-0.966 6.855,-1.839 4.465,1.956 14.907,5.671 37.89,2.42 22.982,-3.251 41.322,-12.072 53.857,-15.554 12.536,-3.482 29.249,-8.357 32.964,-9.285 3.715,-0.928 6.036,-2.786 0.929,-5.34 -5.107,-2.551 -12.999,-6.733 -18.107,-8.589 -5.108,-1.858 -7.428,-11.608 -2.089,-15.321 5.339,-3.714 17.177,-5.803 23.678,-2.32 6.5,3.481 10.911,6.732 19.268,7.66 8.357,0.928 12.753,8.741 14.393,12.768 1.23,3.016 2.555,9.75 -3.482,12.07 -6.036,2.323 -19.034,6.035 -8.356,12.999 10.677,6.965 19.268,5.572 19.5,19.964 0.23,14.394 -5.574,26.002 -14.395,16.483 -2.204,-2.38 -2.853,-5.767 -4.409,-7.661 -4.669,-5.68 -8.184,-8.065 -11.84,-10.677 -4.875,-3.482 -9.054,-8.59 -14.857,-8.823 -2.612,-0.104 -10.363,0.121 -17.644,2.09 -8.899,2.407 -17.405,6.986 -16.481,10.911 0.928,3.945 10.912,4.642 16.947,5.803 6.035,1.162 9.98,2.09 15.089,6.499 5.107,4.413 10.91,10.447 9.75,13.001 -1.16,2.554 -3.018,6.5 -8.125,4.178 -5.108,-2.321 -16.484,-7.66 -20.661,-8.587 -4.179,-0.93 -16.019,-3.251 -34.589,-5.11 -18.572,-1.855 -29.249,-1.856 -30.411,0.697 -1.162,2.554 6.73,12.537 9.981,15.09 3.251,2.554 13.93,10.214 17.876,13.929 3.946,3.714 11.608,9.517 8.357,13.464 -3.25,3.946 -13.465,4.643 -26.233,-2.09 -12.767,-6.731 -28.554,-20.196 -32.732,-21.821 -4.178,-1.624 -13.001,-4.178 -11.839,-11.374 1.161,-7.198 -3.154,-18.322 -10.214,-19.734 -5.485,-1.096 -10.881,2.727 -12.769,9.287 -1.707,5.931 -1.45,13.62 8.126,23.678"
       style="fill:#d3d2d2;fill-opacity:1;fill-rule:nonzero;stroke:none;stroke-width:0.1"
       id="path692" />
    <path
       d="m 823.912,653.303 c -10.214,3.25 -19.267,10.679 -25.072,11.608 -8.453,1.351 -22.751,-0.929 -23.678,-9.054 -0.928,-8.125 12.201,-17.77 14.161,-19.269 3.946,-3.017 18.667,-7.148 29.695,0.911 3.032,2.165 6.146,4.399 8.841,6.287 2.612,1.764 4.97,6.679 -3.947,9.517"
       style="fill:#d3d2d2;fill-opacity:1;fill-rule:nonzero;stroke:none;stroke-width:0.1"
       id="path694" />
    <path
       d="m 542.422,350.105 c 0,2.457 -0.679,9.769 2.106,10.466 2.786,0.696 16.017,2.785 30.991,1.392 6.25,-0.579 14.974,-2.437 19.5,-5.222 4.527,-2.786 18.053,-10.491 14.946,-21.089"
       style="fill:none;stroke:#231f20;stroke-width:0.5;stroke-linecap:butt;stroke-linejoin:miter;stroke-miterlimit:4;stroke-dasharray:none;stroke-opacity:1"
       id="path696" />
    <path
       d="m 543.537,359.896 c -1.794,2.067 -1.447,9.728 -1.447,13.559 0,3.83 1.045,8.705 4.875,9.75 3.83,1.045 13.58,-1.393 19.849,-3.831 6.268,-2.437 27.77,-8.528 27.117,-22.022"
       style="fill:none;stroke:#231f20;stroke-width:0.5;stroke-linecap:butt;stroke-linejoin:miter;stroke-miterlimit:4;stroke-dasharray:none;stroke-opacity:1"
       id="path698" />
    <path
       d="m 634.576,359.619 c 2.462,-1.6 8.497,-3.923 16.854,-0.672 8.358,3.251 25.535,11.839 33.196,16.017 7.661,4.179 21.357,12.998 25.072,16.715"
       style="fill:none;stroke:#231f20;stroke-width:0.25;stroke-linecap:butt;stroke-linejoin:miter;stroke-miterlimit:4;stroke-dasharray:none;stroke-opacity:1"
       id="path700" />
    <path
       d="m 696.234,423.714 c -4.875,5.338 -9.054,9.286 -18.572,9.286 -9.519,0 -22.749,-6.965 -30.643,-11.606 -7.893,-4.644 -14.393,-10.215 -16.123,-15.207"
       style="fill:none;stroke:#231f20;stroke-width:0.25;stroke-linecap:butt;stroke-linejoin:miter;stroke-miterlimit:4;stroke-dasharray:none;stroke-opacity:1"
       id="path702" />
    <path
       d="m 718.229,415.547 c 0,1.856 -5.816,3.796 -8.995,-0.19 -3.179,-3.987 -1.16,-8.357 -1.16,-11.143 0,-2.785 -2.09,-12.07 1.624,-12.535 4.858,-0.609 9.97,4.067 11.131,11.262"
       style="fill:none;stroke:#231f20;stroke-width:0.5;stroke-linecap:butt;stroke-linejoin:miter;stroke-miterlimit:4;stroke-dasharray:none;stroke-opacity:1"
       id="path704" />
    <path
       d="m 658.162,517.963 c -2.133,-1.866 6.267,-6.732 7.893,-4.409 1.625,2.32 -6.037,6.036 -7.893,4.409 z"
       style="fill:none;stroke:#231f20;stroke-width:0.5;stroke-linecap:butt;stroke-linejoin:miter;stroke-miterlimit:4;stroke-dasharray:none;stroke-opacity:1"
       id="path706" />
    <path
       d="m 722,416.906 c 3.061,0.084 6.294,2.652 10.449,9.826 5.106,8.822 7.196,20.428 3.481,28.322 -3.714,7.892 -22.981,42.248 -24.375,44.571 -1.392,2.321 -3.713,3.713 -5.571,5.572 -1.858,1.858 -7.195,7.891 -8.358,12.07 -1.161,4.179 0.387,11.878 6.037,13.233 5.803,1.392 16.017,-0.463 20.428,-6.731 4.411,-6.268 18.573,-29.715 22.983,-38.072 4.409,-8.358 9.284,-18.453 11.258,-25.537"
       style="fill:none;stroke:#231f20;stroke-width:0.5;stroke-linecap:butt;stroke-linejoin:miter;stroke-miterlimit:4;stroke-dasharray:none;stroke-opacity:1"
       id="path708" />
    <path
       d="m 358.003,416.906 c -3.062,0.084 -6.295,2.652 -10.449,9.826 -5.106,8.822 -7.197,20.428 -3.482,28.322 3.715,7.892 22.982,42.248 24.375,44.571 1.392,2.321 3.714,3.713 5.571,5.572 1.858,1.858 7.195,7.891 8.358,12.07 1.161,4.179 -0.387,11.878 -6.036,13.233 -5.804,1.392 -16.018,-0.463 -20.429,-6.731 -4.411,-6.268 -18.573,-29.715 -22.982,-38.072 -4.41,-8.358 -9.285,-18.453 -11.259,-25.537"
       style="fill:none;stroke:#231f20;stroke-width:0.5;stroke-linecap:butt;stroke-linejoin:miter;stroke-miterlimit:4;stroke-dasharray:none;stroke-opacity:1"
       id="path710" />
    <path
       d="m 761.814,489.062 c -1.045,11.028 -4.99,24.029 -8.009,32.618 -3.018,8.588 -8.357,19.034 -10.91,22.983 -2.554,3.947 -9.982,10.675 -14.161,13.694 -4.179,3.018 -16.251,8.821 -22.982,5.339 -6.732,-3.483 -7.196,-12.534 -6.036,-17.641 1.16,-5.109 5.107,-10.446 9.518,-12.536 4.411,-2.089 11.153,-5.011 13.586,-8.231"
       style="fill:none;stroke:#231f20;stroke-width:0.5;stroke-linecap:butt;stroke-linejoin:miter;stroke-miterlimit:4;stroke-dasharray:none;stroke-opacity:1"
       id="path712" />
    <path
       d="m 726.172,559.967 c -5.073,3.519 -13.689,8.604 -16.706,9.069 -3.016,0.465 -18.863,3.188 -25.303,4.178 -9.054,1.393 -13.547,3.219 -13.233,5.108 0.232,1.393 3.715,1.393 8.59,0.696 4.875,-0.696 13.695,-2.089 17.874,-2.785 4.179,-0.698 7.894,-1.16 13.929,-4.411 6.035,-3.251 19.452,-10.633 23.215,-13.233 4.958,-3.424 10.446,-7.427 13.928,-11.606 3.273,-3.929 8.589,-8.822 9.054,-13.233 0.589,-5.584 -0.976,-11.782 -3.042,-14.015"
       style="fill:none;stroke:#231f20;stroke-width:0.5;stroke-linecap:butt;stroke-linejoin:miter;stroke-miterlimit:4;stroke-dasharray:none;stroke-opacity:1"
       id="path714" />
    <path
       d="m 722.006,416.906 c -2.093,0.309 -5.11,-0.621 -4.182,-5.03 0.928,-4.411 4.3,-19.613 15.498,-10.619"
       style="fill:none;stroke:#231f20;stroke-width:0.5;stroke-linecap:butt;stroke-linejoin:miter;stroke-miterlimit:4;stroke-dasharray:none;stroke-opacity:1"
       id="path716" />
    <path
       d="m 682.769,836.929 c 0.349,8.009 1.394,9.75 2.438,13.58"
       style="fill:none;stroke:#231f20;stroke-width:0.5;stroke-linecap:butt;stroke-linejoin:miter;stroke-miterlimit:4;stroke-dasharray:none;stroke-opacity:1"
       id="path718" />
    <path
       d="m 773.654,821.259 c -5.572,-8.706 -7.481,-17.346 -8.01,-30.295 -0.696,-17.062 -7.312,-29.25 -15.321,-35.866 -8.009,-6.616 -26.813,-17.062 -24.723,-29.946"
       style="fill:none;stroke:#231f20;stroke-width:0.5;stroke-linecap:butt;stroke-linejoin:miter;stroke-miterlimit:4;stroke-dasharray:none;stroke-opacity:1"
       id="path720" />
    <path
       d="m 869.761,741.866 c -9.402,-3.134 -13.232,-11.839 -18.456,-21.589 -5.223,-9.75 -8.357,-22.983 -23.33,-27.161"
       style="fill:none;stroke:#231f20;stroke-width:0.5;stroke-linecap:butt;stroke-linejoin:miter;stroke-miterlimit:4;stroke-dasharray:none;stroke-opacity:1"
       id="path722" />
    <path
       d="m 951.591,607.803 c -5.92,-5.571 -14.625,-15.67 -20.545,-20.892 -5.919,-5.224 -11.142,-9.054 -21.937,-6.965"
       style="fill:none;stroke:#231f20;stroke-width:0.5;stroke-linecap:butt;stroke-linejoin:miter;stroke-miterlimit:4;stroke-dasharray:none;stroke-opacity:1"
       id="path724" />
    <path
       d="m 957.859,556.616 c 0,0 4.386,0.628 8.357,-0.349"
       style="fill:none;stroke:#231f20;stroke-width:0.5;stroke-linecap:butt;stroke-linejoin:miter;stroke-miterlimit:4;stroke-dasharray:none;stroke-opacity:1"
       id="path726" />
    <path
       d="m 897.27,539.902 c 3.134,1.044 11.839,3.83 16.366,3.134"
       style="fill:none;stroke:#231f20;stroke-width:0.5;stroke-linecap:butt;stroke-linejoin:miter;stroke-miterlimit:4;stroke-dasharray:none;stroke-opacity:1"
       id="path728" />
    <path
       d="m 567.395,747.321 c 5.802,1.161 9.516,2.321 12.767,-1.393 3.251,-3.714 8.124,-7.892 10.446,-8.589 2.322,-0.696 11.377,-2.786 15.09,-1.392 3.714,1.392 8.125,2.088 10.214,5.106"
       style="fill:none;stroke:#231f20;stroke-width:0.5;stroke-linecap:butt;stroke-linejoin:miter;stroke-miterlimit:4;stroke-dasharray:none;stroke-opacity:1"
       id="path730" />
    <path
       d="m 615.493,740.514 c -2.599,-4.103 -4.223,-6.658 -5.153,-8.514 -0.928,-1.857 -3.713,-11.607 -2.552,-13.696"
       style="fill:none;stroke:#231f20;stroke-width:0.5;stroke-linecap:butt;stroke-linejoin:miter;stroke-miterlimit:4;stroke-dasharray:none;stroke-opacity:1"
       id="path732" />
    <path
       d="m 605.698,735.947 c 1.857,0 5.106,-0.93 4.642,-3.947"
       style="fill:none;stroke:#231f20;stroke-width:0.5;stroke-linecap:butt;stroke-linejoin:miter;stroke-miterlimit:4;stroke-dasharray:none;stroke-opacity:1"
       id="path734" />
    <path
       d="m 580.391,755.091 c -1.389,-2.43 -2.319,-5.68 -0.229,-9.163"
       style="fill:none;stroke:#231f20;stroke-width:0.5;stroke-linecap:butt;stroke-linejoin:miter;stroke-miterlimit:4;stroke-dasharray:none;stroke-opacity:1"
       id="path736" />
    <path
       d="m 704.359,596.661 c 5.804,0.231 15.539,-0.067 19.5,-0.928 5.339,-1.162 22.052,-7.664 29.598,-12.653"
       style="fill:none;stroke:#231f20;stroke-width:0.75;stroke-linecap:round;stroke-linejoin:round;stroke-miterlimit:4;stroke-dasharray:none;stroke-opacity:1"
       id="path738" />
    <path
       d="m 778.18,536.071 c 3.83,33.429 -24.723,47.009 -24.723,47.009 8.357,-1.393 38.478,-10.447 42.657,-11.143 4.178,-0.696 9.197,-1.807 8.182,-4.179 0,0 -9.75,-25.071 -26.116,-31.687"
       style="fill:#706d6e;fill-opacity:1;fill-rule:nonzero;stroke:none;stroke-width:0.1"
       id="path740" />
    <path
       d="m 778.18,536.071 c 3.83,33.429 -24.723,47.009 -24.723,47.009 8.357,-1.393 38.478,-10.447 42.657,-11.143 4.178,-0.696 9.197,-1.807 8.182,-4.179 0,0 -9.75,-25.071 -26.116,-31.687 z"
       style="fill:none;stroke:#231f20;stroke-width:0.75;stroke-linecap:round;stroke-linejoin:round;stroke-miterlimit:4;stroke-dasharray:none;stroke-opacity:1"
       id="path742" />
    <path
       d="m 878.118,657.946 c -3.83,0.465 -14.597,-2.176 -26.9,-4.962 0,0 -7.714,-1.723 -9.455,-2.158"
       style="fill:none;stroke:#231f20;stroke-width:0.5;stroke-linecap:butt;stroke-linejoin:miter;stroke-miterlimit:4;stroke-dasharray:none;stroke-opacity:1"
       id="path744" />
    <path
       d="m 311.572,611.286 c 0.233,7.892 0.697,16.482 3.715,21.588 3.018,5.108 10.213,7.662 13.463,8.358 3.25,0.696 3.948,1.625 6.268,-2.321 2.32,-3.947 8.126,-6.037 8.126,-6.037 -3.017,2.09 -4.082,4.077 -5.107,8.589 -1.161,5.109 3.018,8.358 6.267,10.911 3.25,2.554 8.125,3.715 15.089,3.251 6.965,-0.463 9.054,-2.554 9.054,-2.554 8.821,-1.16 25.303,4.411 29.715,5.572 4.412,1.16 14.625,4.41 29.251,-0.232 14.625,-4.643 15.785,-11.839 18.106,-19.268 2.322,-7.43 3.482,-17.643 3.482,-17.643 0,0 5.572,5.338 6.499,6.5 0.928,1.161 0.697,4.178 1.163,9.055 0.464,4.876 -1.859,8.587 -5.573,14.623 -3.713,6.036 -9.052,18.339 -9.286,19.733 -0.232,1.392 5.572,5.339 8.358,5.107 2.786,-0.232 8.357,-3.715 11.376,-5.804 3.017,-2.09 13.695,-9.517 21.588,-15.322 7.894,-5.804 22.287,-16.946 26.696,-26.696 4.275,-9.453 -1.941,-22.816 -4.696,-25.868 -2.146,-0.631 -6.361,-1.734 -10.393,-1.989 -5.604,-0.356 -20.544,-2.089 -26.116,-3.134 -5.572,-1.044 -20.544,-2.786 -27.16,-2.786 -6.617,0 -17.759,2.438 -26.465,3.483 -8.705,1.044 -25.419,1.74 -39.348,-1.741 -5.805,0.231 -15.539,-0.067 -19.5,-0.928 -13.232,1.16 -28.09,-2.786 -35.518,-2.323 -7.428,0.464 -9.287,9.983 -9.054,17.876"
       style="fill:#ffffff;fill-opacity:1;fill-rule:nonzero;stroke:none;stroke-width:0.1"
       id="path746" />
    <path
       d="m 287.661,620.803 c 4.178,-2.321 6.732,-4.643 9.053,-6.5 2.323,-1.856 7.198,-10.213 7.894,-16.25 0.696,-6.036 -5.803,-11.142 -7.428,-12.07 -1.626,-0.931 -9.055,-3.947 -17.876,-0.696 -8.821,3.248 -15.553,12.07 -19.035,19.265 -3.482,7.198 -10.912,11.144 -15.554,13.698 -4.642,2.553 -17.875,8.822 -19.964,9.75 -2.089,0.928 -3.713,0 0,-2.089 3.713,-2.09 13.463,-9.519 17.875,-16.715 4.411,-7.196 7.893,-17.41 -0.464,-18.338 -8.358,-0.931 -24.608,0.462 -30.875,1.159 -6.269,0.696 -26.929,4.178 -33.197,5.34 -6.267,1.161 -19.036,4.179 -22.518,5.571 0,0 10.678,-6.733 20.196,-9.054 9.518,-2.32 21.821,-3.714 22.75,-7.429 0.929,-3.713 -8.357,-10.91 -12.304,-12.767 -3.945,-1.856 -20.661,-8.59 -31.571,-9.054 -10.91,-0.463 -15.321,1.625 -21.357,6.036 -6.036,4.411 -12.536,9.286 -13.928,14.392 0,0 -3.019,-6.73 6.731,-12.534 9.75,-5.804 16.25,-11.377 14.858,-19.966 -1.393,-8.587 -6.963,-15.553 -11.607,-17.409 0,0 13.233,-0.928 22.286,-7.892 0,0 -8.357,8.82 -8.59,13.463 -0.233,4.645 -0.001,11.142 11.607,14.16 11.607,3.019 19.5,4.644 25.768,7.894 6.267,3.249 11.606,6.731 21.589,7.892 9.983,1.162 15.09,6.268 28.323,7.428 13.231,1.162 37.71,0.458 54.14,-6.038 -0.224,-0.048 -0.419,-0.087 -0.574,-0.113 -2.465,-0.411 -5.217,-0.966 -6.855,-1.839 -4.466,1.956 -14.908,5.671 -37.891,2.42 -22.981,-3.251 -41.321,-12.072 -53.857,-15.554 -12.536,-3.482 -29.249,-8.357 -32.963,-9.285 -3.715,-0.928 -6.037,-2.786 -0.93,-5.34 5.107,-2.551 13,-6.733 18.107,-8.589 5.108,-1.858 7.428,-11.608 2.089,-15.321 -5.339,-3.714 -17.177,-5.803 -23.678,-2.32 -6.5,3.481 -10.911,6.732 -19.267,7.66 -8.357,0.928 -12.754,8.741 -14.394,12.768 -1.23,3.016 -2.554,9.75 3.482,12.07 6.037,2.323 19.035,6.035 8.357,12.999 -10.677,6.965 -19.268,5.572 -19.5,19.964 -0.231,14.394 5.573,26.002 14.394,16.483 2.205,-2.38 2.853,-5.767 4.41,-7.661 4.668,-5.68 8.183,-8.065 11.839,-10.677 4.875,-3.482 9.054,-8.59 14.857,-8.823 2.613,-0.104 10.363,0.121 17.644,2.09 8.9,2.407 17.405,6.986 16.481,10.911 -0.928,3.945 -10.911,4.642 -16.946,5.803 -6.035,1.162 -9.981,2.09 -15.089,6.499 -5.107,4.413 -10.91,10.447 -9.75,13.001 1.16,2.554 3.017,6.5 8.124,4.178 5.108,-2.321 16.484,-7.66 20.662,-8.587 4.179,-0.93 16.018,-3.251 34.589,-5.11 18.572,-1.855 29.249,-1.856 30.41,0.697 1.162,2.554 -6.73,12.537 -9.981,15.09 -3.251,2.554 -13.93,10.214 -17.876,13.929 -3.945,3.714 -11.607,9.517 -8.357,13.464 3.25,3.946 13.466,4.643 26.233,-2.09 12.767,-6.731 28.554,-20.196 32.732,-21.821 4.179,-1.624 13.001,-4.178 11.839,-11.374 -1.161,-7.198 3.154,-18.322 10.214,-19.734 5.486,-1.096 10.881,2.727 12.769,9.287 1.707,5.931 1.45,13.62 -8.126,23.678"
       style="fill:#d3d2d2;fill-opacity:1;fill-rule:nonzero;stroke:none;stroke-width:0.1"
       id="path748" />
    <path
       d="m 256.09,653.303 c 10.214,3.25 19.268,10.679 25.072,11.608 8.454,1.351 22.751,-0.929 23.678,-9.054 0.928,-8.125 -12.201,-17.77 -14.161,-19.269 -3.946,-3.017 -18.666,-7.148 -29.694,0.911 -3.032,2.165 -6.146,4.399 -8.842,6.287 -2.611,1.764 -4.969,6.679 3.947,9.517"
       style="fill:#d3d2d2;fill-opacity:1;fill-rule:nonzero;stroke:none;stroke-width:0.1"
       id="path750" />
    <path
       d="m 537.58,350.105 c 0,2.457 0.68,9.769 -2.106,10.466 -2.785,0.696 -16.017,2.785 -30.991,1.392 -6.25,-0.579 -14.973,-2.437 -19.5,-5.222 -4.526,-2.786 -18.053,-10.491 -14.945,-21.089"
       style="fill:none;stroke:#231f20;stroke-width:0.5;stroke-linecap:butt;stroke-linejoin:miter;stroke-miterlimit:4;stroke-dasharray:none;stroke-opacity:1"
       id="path752" />
    <path
       d="m 536.466,359.896 c 1.794,2.067 1.446,9.728 1.446,13.559 0,3.83 -1.044,8.705 -4.875,9.75 -3.83,1.045 -13.58,-1.393 -19.848,-3.831 -6.269,-2.437 -27.771,-8.528 -27.117,-22.022"
       style="fill:none;stroke:#231f20;stroke-width:0.5;stroke-linecap:butt;stroke-linejoin:miter;stroke-miterlimit:4;stroke-dasharray:none;stroke-opacity:1"
       id="path754" />
    <path
       d="m 445.427,359.619 c -2.463,-1.6 -8.498,-3.923 -16.854,-0.672 -8.358,3.251 -25.536,11.839 -33.197,16.017 -7.661,4.179 -21.356,12.998 -25.071,16.715"
       style="fill:none;stroke:#231f20;stroke-width:0.25;stroke-linecap:butt;stroke-linejoin:miter;stroke-miterlimit:4;stroke-dasharray:none;stroke-opacity:1"
       id="path756" />
    <path
       d="m 383.768,423.714 c 4.875,5.338 9.054,9.286 18.572,9.286 9.52,0 22.75,-6.965 30.644,-11.606 7.892,-4.644 14.392,-10.215 16.122,-15.207"
       style="fill:none;stroke:#231f20;stroke-width:0.25;stroke-linecap:butt;stroke-linejoin:miter;stroke-miterlimit:4;stroke-dasharray:none;stroke-opacity:1"
       id="path758" />
    <path
       d="m 361.774,415.547 c 0,1.856 5.816,3.796 8.995,-0.19 3.179,-3.987 1.16,-8.357 1.16,-11.143 0,-2.785 2.089,-12.07 -1.624,-12.535 -4.859,-0.609 -9.971,4.067 -11.131,11.262"
       style="fill:none;stroke:#231f20;stroke-width:0.5;stroke-linecap:butt;stroke-linejoin:miter;stroke-miterlimit:4;stroke-dasharray:none;stroke-opacity:1"
       id="path760" />
    <path
       d="m 421.84,517.963 c 2.133,-1.866 -6.267,-6.732 -7.892,-4.409 -1.626,2.32 6.036,6.036 7.892,4.409 z"
       style="fill:none;stroke:#231f20;stroke-width:0.5;stroke-linecap:butt;stroke-linejoin:miter;stroke-miterlimit:4;stroke-dasharray:none;stroke-opacity:1"
       id="path762" />
    <path
       d="m 318.188,489.062 c 1.045,11.028 4.991,24.029 8.009,32.618 3.018,8.588 8.357,19.034 10.911,22.983 2.553,3.947 9.982,10.675 14.161,13.694 4.178,3.018 16.25,8.821 22.981,5.339 6.733,-3.483 7.197,-12.534 6.036,-17.641 -1.16,-5.109 -5.106,-10.446 -9.517,-12.536 -4.411,-2.089 -11.154,-5.011 -13.586,-8.231"
       style="fill:none;stroke:#231f20;stroke-width:0.5;stroke-linecap:butt;stroke-linejoin:miter;stroke-miterlimit:4;stroke-dasharray:none;stroke-opacity:1"
       id="path764" />
    <path
       d="m 353.83,559.967 c 5.074,3.519 13.689,8.604 16.706,9.069 3.017,0.465 18.864,3.188 25.304,4.178 9.054,1.393 13.546,3.219 13.233,5.108 -0.232,1.393 -3.715,1.393 -8.59,0.696 -4.875,-0.696 -13.696,-2.089 -17.875,-2.785 -4.179,-0.698 -7.894,-1.16 -13.929,-4.411 -6.035,-3.251 -19.452,-10.633 -23.215,-13.233 -4.958,-3.424 -10.446,-7.427 -13.928,-11.606 -3.273,-3.929 -8.588,-8.822 -9.053,-13.233 -0.59,-5.584 0.975,-11.782 3.041,-14.015"
       style="fill:none;stroke:#231f20;stroke-width:0.5;stroke-linecap:butt;stroke-linejoin:miter;stroke-miterlimit:4;stroke-dasharray:none;stroke-opacity:1"
       id="path766" />
    <path
       d="m 357.997,416.906 c 2.092,0.309 5.11,-0.621 4.182,-5.03 -0.928,-4.411 -4.301,-19.613 -15.499,-10.619"
       style="fill:none;stroke:#231f20;stroke-width:0.5;stroke-linecap:butt;stroke-linejoin:miter;stroke-miterlimit:4;stroke-dasharray:none;stroke-opacity:1"
       id="path768" />
    <path
       d="m 397.233,836.929 c -0.348,8.009 -1.393,9.75 -2.438,13.58"
       style="fill:none;stroke:#231f20;stroke-width:0.5;stroke-linecap:butt;stroke-linejoin:miter;stroke-miterlimit:4;stroke-dasharray:none;stroke-opacity:1"
       id="path770" />
    <path
       d="m 306.349,821.259 c 5.571,-8.706 7.48,-17.346 8.009,-30.295 0.696,-17.062 7.312,-29.25 15.321,-35.866 8.009,-6.616 26.813,-17.062 24.724,-29.946"
       style="fill:none;stroke:#231f20;stroke-width:0.5;stroke-linecap:butt;stroke-linejoin:miter;stroke-miterlimit:4;stroke-dasharray:none;stroke-opacity:1"
       id="path772" />
    <path
       d="m 210.242,741.866 c 9.401,-3.134 13.232,-11.839 18.455,-21.589 5.223,-9.75 8.357,-22.983 23.331,-27.161"
       style="fill:none;stroke:#231f20;stroke-width:0.5;stroke-linecap:butt;stroke-linejoin:miter;stroke-miterlimit:4;stroke-dasharray:none;stroke-opacity:1"
       id="path774" />
    <path
       d="m 128.411,607.803 c 5.92,-5.571 14.625,-15.67 20.545,-20.892 5.92,-5.224 11.143,-9.054 21.937,-6.965"
       style="fill:none;stroke:#231f20;stroke-width:0.5;stroke-linecap:butt;stroke-linejoin:miter;stroke-miterlimit:4;stroke-dasharray:none;stroke-opacity:1"
       id="path776" />
    <path
       d="m 122.143,556.616 c 0,0 -4.385,0.628 -8.357,-0.349"
       style="fill:none;stroke:#231f20;stroke-width:0.5;stroke-linecap:butt;stroke-linejoin:miter;stroke-miterlimit:4;stroke-dasharray:none;stroke-opacity:1"
       id="path778" />
    <path
       d="m 182.733,539.902 c -3.134,1.044 -11.84,3.83 -16.366,3.134"
       style="fill:none;stroke:#231f20;stroke-width:0.5;stroke-linecap:butt;stroke-linejoin:miter;stroke-miterlimit:4;stroke-dasharray:none;stroke-opacity:1"
       id="path780" />
    <path
       d="m 665.01,598.402 c -8.705,-1.045 -19.848,-3.483 -26.464,-3.483 -6.616,0 -21.589,1.742 -27.161,2.786 -5.571,1.045 -20.511,2.778 -26.116,3.134 -5.725,0.365 -11.839,2.438 -11.839,2.438 8.705,-30.644 -24.027,-34.474 -33.428,-34.474 -9.403,0 -42.135,3.83 -33.429,34.474 0,0 -6.115,-2.073 -11.84,-2.438 -5.604,-0.356 -20.544,-2.089 -26.116,-3.134 -5.572,-1.044 -20.544,-2.786 -27.16,-2.786 -6.617,0 -17.759,2.438 -26.465,3.483 -8.705,1.044 -25.419,1.74 -39.348,-1.741 0,0 17.063,-2.787 25.071,-6.965 8.009,-4.179 9.75,-0.696 21.938,-4.527 12.187,-3.83 15.67,-4.527 27.161,-3.83 11.49,0.697 35.518,4.875 51.187,-6.616 15.669,-11.491 19.152,-22.634 22.634,-27.509 3.483,-4.875 3.598,-9.053 7.544,-9.751 3.947,-0.696 8.126,-1.392 8.823,-2.785 0.696,1.393 4.874,2.089 8.822,2.785 3.945,0.698 4.061,4.876 7.544,9.751 3.481,4.875 6.964,16.018 22.634,27.509 15.669,11.491 39.696,7.313 51.187,6.616 11.491,-0.697 14.973,0 27.161,3.83 12.188,3.831 13.928,0.348 21.938,4.527 8.008,4.178 25.071,6.965 25.071,6.965 -13.929,3.481 -30.644,2.785 -39.349,1.741"
       style="fill:#706d6e;fill-opacity:1;fill-rule:nonzero;stroke:none;stroke-width:0.1"
       id="path782" />
    <path
       d="m 665.01,598.402 c -8.705,-1.045 -19.848,-3.483 -26.464,-3.483 -6.616,0 -21.589,1.742 -27.161,2.786 -5.571,1.045 -20.511,2.778 -26.116,3.134 -5.725,0.365 -11.839,2.438 -11.839,2.438 8.705,-30.644 -24.027,-34.474 -33.428,-34.474 -9.403,0 -42.135,3.83 -33.429,34.474 0,0 -6.115,-2.073 -11.84,-2.438 -5.604,-0.356 -20.544,-2.089 -26.116,-3.134 -5.572,-1.044 -20.544,-2.786 -27.16,-2.786 -6.617,0 -17.759,2.438 -26.465,3.483 -8.705,1.044 -25.419,1.74 -39.348,-1.741 0,0 17.063,-2.787 25.071,-6.965 8.009,-4.179 9.75,-0.696 21.938,-4.527 12.187,-3.83 15.67,-4.527 27.161,-3.83 11.49,0.697 35.518,4.875 51.187,-6.616 15.669,-11.491 19.152,-22.634 22.634,-27.509 3.483,-4.875 3.598,-9.053 7.544,-9.751 3.947,-0.696 8.126,-1.392 8.823,-2.785 0.696,1.393 4.874,2.089 8.822,2.785 3.945,0.698 4.061,4.876 7.544,9.751 3.481,4.875 6.964,16.018 22.634,27.509 15.669,11.491 39.696,7.313 51.187,6.616 11.491,-0.697 14.973,0 27.161,3.83 12.188,3.831 13.928,0.348 21.938,4.527 8.008,4.178 25.071,6.965 25.071,6.965 -13.929,3.481 -30.644,2.785 -39.349,1.741 z"
       style="fill:none;stroke:#231f20;stroke-width:0.75;stroke-linecap:round;stroke-linejoin:round;stroke-miterlimit:4;stroke-dasharray:none;stroke-opacity:1"
       id="path784" />
    <path
       d="m 526.497,611.024 c -4.932,-0.855 -9.627,-2.473 -12.323,-5.492 6.158,-1.549 10.733,2.502 12.323,5.492"
       style="fill:#d3d2d2;fill-opacity:1;fill-rule:nonzero;stroke:none;stroke-width:0.1"
       id="path786" />
    <path
       d="m 553.505,611.024 c 4.933,-0.855 9.628,-2.473 12.324,-5.492 -6.16,-1.549 -10.734,2.502 -12.324,5.492"
       style="fill:#d3d2d2;fill-opacity:1;fill-rule:nonzero;stroke:none;stroke-width:0.1"
       id="path788" />
    <path
       d="m 540.002,611.982 c -7.429,0 -21.59,-0.464 -26.465,-7.195 -4.875,-6.734 -5.803,-10.681 1.161,-19.27 6.964,-8.588 12.302,-9.284 25.304,-9.284 13,0 18.337,0.696 25.302,9.284 6.964,8.589 6.036,12.536 1.161,19.27 -4.875,6.731 -19.034,7.195 -26.463,7.195 z"
       style="fill:none;stroke:#231f20;stroke-width:0.5;stroke-linecap:butt;stroke-linejoin:miter;stroke-miterlimit:4;stroke-dasharray:none;stroke-opacity:1"
       id="path790" />
    <path
       d="m 467.573,783.303 c 2.089,-0.696 13.695,-7.892 18.911,-15.182 7.724,-10.801 14.75,-14.299 26.124,-20.8 11.374,-6.5 22.75,-7.66 27.394,-7.66 4.643,0 16.018,1.16 27.393,7.66 11.374,6.501 18.399,9.999 26.124,20.8 5.215,7.29 16.821,14.486 18.911,15.182"
       style="fill:none;stroke:#231f20;stroke-width:0.5;stroke-linecap:butt;stroke-linejoin:miter;stroke-miterlimit:4;stroke-dasharray:none;stroke-opacity:1"
       id="path792" />
    <path
       d="m 512.608,747.321 c -5.803,1.161 -9.517,2.321 -12.767,-1.393 -3.251,-3.714 -8.125,-7.892 -10.447,-8.589 -2.321,-0.696 -11.377,-2.786 -15.09,-1.392 -3.714,1.392 -8.125,2.088 -10.214,5.106"
       style="fill:none;stroke:#231f20;stroke-width:0.5;stroke-linecap:butt;stroke-linejoin:miter;stroke-miterlimit:4;stroke-dasharray:none;stroke-opacity:1"
       id="path794" />
    <path
       d="m 464.509,740.514 c 2.6,-4.103 4.224,-6.658 5.153,-8.514 0.928,-1.857 3.714,-11.607 2.553,-13.696"
       style="fill:none;stroke:#231f20;stroke-width:0.5;stroke-linecap:butt;stroke-linejoin:miter;stroke-miterlimit:4;stroke-dasharray:none;stroke-opacity:1"
       id="path796" />
    <path
       d="m 474.304,735.947 c -1.856,0 -5.106,-0.93 -4.642,-3.947"
       style="fill:none;stroke:#231f20;stroke-width:0.5;stroke-linecap:butt;stroke-linejoin:miter;stroke-miterlimit:4;stroke-dasharray:none;stroke-opacity:1"
       id="path798" />
    <path
       d="m 499.611,755.091 c 1.39,-2.43 2.319,-5.68 0.23,-9.163"
       style="fill:none;stroke:#231f20;stroke-width:0.5;stroke-linecap:butt;stroke-linejoin:miter;stroke-miterlimit:4;stroke-dasharray:none;stroke-opacity:1"
       id="path800" />
    <path
       d="m 531.179,537.463 c -3.481,-4.875 -5.339,-10.214 -3.945,-20.426 1.392,-10.216 1.392,-18.574 0.696,-26.234 -0.696,-7.661 -0.232,-25.303 -0.232,-36.445 0,-11.144 3.017,-18.339 12.304,-18.339 9.284,0 12.304,7.195 12.304,18.339 0,11.142 0.462,28.784 -0.234,36.445 -0.696,7.66 -0.696,16.018 0.696,26.234 1.393,10.212 -0.462,15.551 -3.944,20.426"
       style="fill:none;stroke:#231f20;stroke-width:0.5;stroke-linecap:butt;stroke-linejoin:miter;stroke-miterlimit:4;stroke-dasharray:none;stroke-opacity:1"
       id="path802" />
    <path
       d="m 375.644,596.661 c -5.805,0.231 -15.539,-0.067 -19.5,-0.928 -5.339,-1.162 -22.052,-7.664 -29.599,-12.653"
       style="fill:none;stroke:#231f20;stroke-width:0.75;stroke-linecap:round;stroke-linejoin:round;stroke-miterlimit:4;stroke-dasharray:none;stroke-opacity:1"
       id="path804" />
    <path
       d="m 301.822,536.071 c -3.83,33.429 24.723,47.009 24.723,47.009 -8.357,-1.393 -38.477,-10.447 -42.656,-11.143 -4.179,-0.696 -9.198,-1.807 -8.183,-4.179 0,0 9.75,-25.071 26.116,-31.687"
       style="fill:#706d6e;fill-opacity:1;fill-rule:nonzero;stroke:none;stroke-width:0.1"
       id="path806" />
    <path
       d="m 301.822,536.071 c -3.83,33.429 24.723,47.009 24.723,47.009 -8.357,-1.393 -38.477,-10.447 -42.656,-11.143 -4.179,-0.696 -9.198,-1.807 -8.183,-4.179 0,0 9.75,-25.071 26.116,-31.687 z"
       style="fill:none;stroke:#231f20;stroke-width:0.75;stroke-linecap:round;stroke-linejoin:round;stroke-miterlimit:4;stroke-dasharray:none;stroke-opacity:1"
       id="path808" />
    <path
       d="m 201.884,657.946 c 3.83,0.465 14.597,-2.176 26.9,-4.962 0,0 7.714,-1.723 9.455,-2.158"
       style="fill:none;stroke:#231f20;stroke-width:0.5;stroke-linecap:butt;stroke-linejoin:miter;stroke-miterlimit:4;stroke-dasharray:none;stroke-opacity:1"
       id="path810" />
    <path
       d="m 577.26,405.491 c 2.089,3.83 6.616,9.75 13.58,11.142 6.965,1.393 22.82,3.483 33.962,3.83"
       style="fill:none;stroke:#231f20;stroke-width:0.5;stroke-linecap:round;stroke-linejoin:round;stroke-miterlimit:4;stroke-dasharray:2.8, 1.8;stroke-dashoffset:0;stroke-opacity:1"
       id="path812" />
    <path
       d="m 601.52,517.037 c 1.856,-26.234 25.187,-104.234 27.973,-111.895"
       style="fill:none;stroke:#231f20;stroke-width:0.5;stroke-linecap:round;stroke-linejoin:round;stroke-miterlimit:4;stroke-dasharray:2.8, 1.8;stroke-dashoffset:0;stroke-opacity:1"
       id="path814" />
    <path
       d="m 624.969,516.207 c 2.434,-18.44 13.073,-51.648 44.413,-76.372"
       style="fill:none;stroke:#231f20;stroke-width:0.5;stroke-linecap:round;stroke-linejoin:round;stroke-miterlimit:4;stroke-dasharray:2.8, 1.8;stroke-dashoffset:0;stroke-opacity:1"
       id="path816" />
    <path
       d="m 588.109,379.41 c 0.349,-3.134 -0.922,-6.551 -2.577,-8.515"
       style="fill:none;stroke:#231f20;stroke-width:0.5;stroke-linecap:round;stroke-linejoin:round;stroke-miterlimit:4;stroke-dasharray:2.8, 1.8;stroke-dashoffset:0;stroke-opacity:1"
       id="path818" />
    <path
       d="m 589.448,387.035 c 3.594,0.266 12.304,-5.106 11.375,-8.82 -0.929,-3.715 -3.946,-5.571 -9.75,-1.392 -5.804,4.178 -7.893,9.75 -1.625,10.212 z"
       style="fill:none;stroke:#231f20;stroke-width:0.5;stroke-linecap:round;stroke-linejoin:round;stroke-miterlimit:4;stroke-dasharray:2.8, 1.8;stroke-dashoffset:0;stroke-opacity:1"
       id="path820" />
    <path
       d="m 590.123,377.326 c 1.414,-5.832 8.379,-14.435 14.182,-20.469 5.803,-6.036 19.864,-13.993 33.328,1.328"
       style="fill:none;stroke:#231f20;stroke-width:0.5;stroke-linecap:round;stroke-linejoin:round;stroke-miterlimit:4;stroke-dasharray:2.8, 1.8;stroke-dashoffset:0;stroke-opacity:1"
       id="path822" />
    <path
       d="m 598.544,374.861 c 4.6,-1.755 25.03,2.655 28.744,7.765"
       style="fill:none;stroke:#231f20;stroke-width:0.5;stroke-linecap:round;stroke-linejoin:round;stroke-miterlimit:4;stroke-dasharray:2.8, 1.8;stroke-dashoffset:0;stroke-opacity:1"
       id="path824" />
    <path
       d="m 640.69,382.394 c 6.035,0 8.65,10.212 6.794,16.714 -1.857,6.499 -10.342,10.681 -13.697,9.285 -2.787,-1.161 -10.678,-8.822 -3.947,-19.965"
       style="fill:none;stroke:#231f20;stroke-width:0.5;stroke-linecap:round;stroke-linejoin:round;stroke-miterlimit:4;stroke-dasharray:2.8, 1.8;stroke-dashoffset:0;stroke-opacity:1"
       id="path826" />
    <path
       d="m 647.606,398.616 c 2.664,3.044 11.484,9.312 16.359,9.777 4.875,0.465 8.36,-1.159 9.984,-2.32"
       style="fill:none;stroke:#231f20;stroke-width:0.5;stroke-linecap:round;stroke-linejoin:round;stroke-miterlimit:4;stroke-dasharray:2.8, 1.8;stroke-dashoffset:0;stroke-opacity:1"
       id="path828" />
    <path
       d="m 642.84,375.429 c 3.948,-2.089 10.447,0.695 13.929,3.018 3.481,2.32 11.607,7.66 14.857,11.607"
       style="fill:none;stroke:#231f20;stroke-width:0.5;stroke-linecap:round;stroke-linejoin:round;stroke-miterlimit:4;stroke-dasharray:2.8, 1.8;stroke-dashoffset:0;stroke-opacity:1"
       id="path830" />
    <path
       d="m 631.93,390.286 c 3.089,1.11 6.329,-3.2 9.286,-9.054 2.716,-5.378 4.41,-18.804 -1.858,-21.124 -8.127,-3.009 -11.374,5.338 -12.303,8.82 -0.929,3.482 -0.929,19.269 4.875,21.358 z"
       style="fill:none;stroke:#231f20;stroke-width:0.5;stroke-linecap:round;stroke-linejoin:round;stroke-miterlimit:4;stroke-dasharray:2.8, 1.8;stroke-dashoffset:0;stroke-opacity:1"
       id="path832" />
    <path
       d="m 690.43,424.876 c 1.857,0.462 4.159,0.675 5.804,-1.162 4.821,-5.388 7.997,-9.76 11.248,-14.635"
       style="fill:none;stroke:#231f20;stroke-width:0.5;stroke-linecap:round;stroke-linejoin:round;stroke-miterlimit:4;stroke-dasharray:2.8, 1.8;stroke-dashoffset:0;stroke-opacity:1"
       id="path834" />
    <path
       d="m 639.626,407.542 c 0.894,4.565 5.767,7.119 9.482,9.44 3.715,2.323 14.625,7.66 16.715,8.822"
       style="fill:none;stroke:#231f20;stroke-width:0.5;stroke-linecap:round;stroke-linejoin:round;stroke-miterlimit:4;stroke-dasharray:2.8, 1.8;stroke-dashoffset:0;stroke-opacity:1"
       id="path836" />
    <path
       d="m 677.662,430.91 c 3.248,-0.25 9.054,-1.624 10.214,-2.786 1.162,-1.159 3.018,-1.855 2.322,-7.426 -0.696,-5.572 -1.626,-7.895 -4.875,-9.519 -3.25,-1.624 -8.126,-4.644 -11.84,0.928 -3.713,5.571 -5.351,9.069 -7.66,13.697 -0.928,1.858 5.803,5.572 11.839,5.106 z"
       style="fill:none;stroke:#231f20;stroke-width:0.5;stroke-linecap:round;stroke-linejoin:round;stroke-miterlimit:4;stroke-dasharray:2.8, 1.8;stroke-dashoffset:0;stroke-opacity:1"
       id="path838" />
    <path
       d="m 678.15,408.926 c -1.648,-0.764 -4.665,-1.926 -4.201,-5.176 0.464,-3.249 -1.162,-9.982 -2.323,-13.696 -1.16,-3.716 1.162,-13.697 8.59,-10.215 7.428,3.483 24.223,14.849 27.472,20.189"
       style="fill:none;stroke:#231f20;stroke-width:0.5;stroke-linecap:round;stroke-linejoin:round;stroke-miterlimit:4;stroke-dasharray:2.8, 1.8;stroke-dashoffset:0;stroke-opacity:1"
       id="path840" />
    <path
       d="m 673.252,440.198 c 2.179,-0.797 7.661,-4.878 6.268,-6.734 -1.394,-1.857 -11.144,2.321 -11.144,4.644 0,1.921 2.739,2.87 4.876,2.09 z"
       style="fill:none;stroke:#231f20;stroke-width:0.5;stroke-linecap:round;stroke-linejoin:round;stroke-miterlimit:4;stroke-dasharray:2.8, 1.8;stroke-dashoffset:0;stroke-opacity:1"
       id="path842" />
    <path
       d="m 658.394,518.661 c 5.099,0.318 14.843,0.908 17.411,-2.09 2.785,-3.248 1.857,-10.678 -3.018,-11.374 -4.875,-0.697 -21.125,0 -25.072,0.696 -3.946,0.696 -11.376,9.981 -5.571,11.144 5.804,1.161 10.706,1.281 16.25,1.624 z"
       style="fill:none;stroke:#231f20;stroke-width:0.5;stroke-linecap:round;stroke-linejoin:round;stroke-miterlimit:4;stroke-dasharray:2.8, 1.8;stroke-dashoffset:0;stroke-opacity:1"
       id="path844" />
    <path
       d="m 636.571,516.19 c -2.783,-0.032 -8.415,-1.248 -8.587,-4.494 -0.232,-4.409 9.87,-4.72 18.014,-5.109"
       style="fill:none;stroke:#231f20;stroke-width:0.5;stroke-linecap:round;stroke-linejoin:round;stroke-miterlimit:4;stroke-dasharray:2.8, 1.8;stroke-dashoffset:0;stroke-opacity:1"
       id="path846" />
    <path
       d="m 676.807,514.832 c -4.633,3.545 -12.206,-5.301 -2.889,-9.325"
       style="fill:none;stroke:#231f20;stroke-width:0.5;stroke-linecap:round;stroke-linejoin:round;stroke-miterlimit:4;stroke-dasharray:2.8, 1.8;stroke-dashoffset:0;stroke-opacity:1"
       id="path848" />
    <path
       d="m 705.984,505.197 c 0.464,-9.519 -8.82,-26.234 -13.232,-32.733"
       style="fill:none;stroke:#231f20;stroke-width:0.5;stroke-linecap:round;stroke-linejoin:round;stroke-miterlimit:4;stroke-dasharray:2.8, 1.8;stroke-dashoffset:0;stroke-opacity:1"
       id="path850" />
    <path
       d="m 700.087,512.406 c -3.853,4.399 -15.158,3.947 -18.943,1.613 -3.786,-2.337 -10.457,-12.32 1.62,-32.975"
       style="fill:none;stroke:#231f20;stroke-width:0.5;stroke-linecap:round;stroke-linejoin:round;stroke-miterlimit:4;stroke-dasharray:2.8, 1.8;stroke-dashoffset:0;stroke-opacity:1"
       id="path852" />
    <path
       d="m 699.712,555.221 c -3.247,-1.043 -6.752,-6.421 -6.741,-9.911 0.012,-4.13 -1.198,-6.29 -3.469,-8.773 -1.912,-2.093 -3.947,-6.269 -2.554,-7.893 1.392,-1.627 4.69,-3.31 12.609,-0.931"
       style="fill:none;stroke:#231f20;stroke-width:0.5;stroke-linecap:round;stroke-linejoin:round;stroke-miterlimit:4;stroke-dasharray:2.8, 1.8;stroke-dashoffset:0;stroke-opacity:1"
       id="path854" />
    <path
       d="m 657.35,585.169 c 4.063,-1.509 17.295,-4.991 20.08,-5.454"
       style="fill:none;stroke:#231f20;stroke-width:0.5;stroke-linecap:round;stroke-linejoin:round;stroke-miterlimit:4;stroke-dasharray:2.8, 1.8;stroke-dashoffset:0;stroke-opacity:1"
       id="path856" />
    <path
       d="m 679.288,589.696 c 2.785,-1.161 12.534,-8.821 12.999,-12.071"
       style="fill:none;stroke:#231f20;stroke-width:0.5;stroke-linecap:round;stroke-linejoin:round;stroke-miterlimit:4;stroke-dasharray:2.8, 1.8;stroke-dashoffset:0;stroke-opacity:1"
       id="path858" />
    <path
       d="m 755.182,520.679 c 1.642,-2.716 13.248,-11.072 17.427,-3.76"
       style="fill:none;stroke:#231f20;stroke-width:0.5;stroke-linecap:round;stroke-linejoin:round;stroke-miterlimit:4;stroke-dasharray:2.8, 1.8;stroke-dashoffset:0;stroke-opacity:1"
       id="path860" />
    <path
       d="m 687.837,583.386 c 4.682,3.989 18.611,8.4 31.843,6.31 13.233,-2.089 29.25,-8.124 39,-19.5 9.75,-11.375 17.641,-40.858 -1.858,-51.305"
       style="fill:none;stroke:#231f20;stroke-width:0.5;stroke-linecap:round;stroke-linejoin:round;stroke-miterlimit:4;stroke-dasharray:2.8, 1.8;stroke-dashoffset:0;stroke-opacity:1"
       id="path862" />
    <path
       d="m 689.915,581.804 c 4.539,3.51 17.827,6.938 30.279,4.437 12.272,-2.464 27.018,-8.553 36.222,-19.184 9.223,-10.655 17.674,-38.214 0.406,-48.166"
       style="fill:none;stroke:#231f20;stroke-width:0.5;stroke-linecap:round;stroke-linejoin:round;stroke-miterlimit:4;stroke-dasharray:2.8, 1.8;stroke-dashoffset:0;stroke-opacity:1"
       id="path864" />
    <path
       d="m 552.072,490.803 c 7.661,-2.786 23.215,-5.341 33.197,0.465 9.983,5.803 11.376,16.945 9.75,26.465"
       style="fill:none;stroke:#231f20;stroke-width:0.5;stroke-linecap:round;stroke-linejoin:round;stroke-miterlimit:4;stroke-dasharray:2.8, 1.8;stroke-dashoffset:0;stroke-opacity:1"
       id="path866" />
    <path
       d="m 550.494,534.834 c 5.99,-5.727 15.739,-10.137 22.239,-12.458 6.501,-2.323 19.502,-4.643 28.787,-5.339 9.284,-0.698 32.732,-1.163 39,-0.698"
       style="fill:none;stroke:#231f20;stroke-width:0.5;stroke-linecap:round;stroke-linejoin:round;stroke-miterlimit:4;stroke-dasharray:2.8, 1.8;stroke-dashoffset:0;stroke-opacity:1"
       id="path868" />
    <path
       d="m 562.871,558.123 c 7.309,-5.105 21.238,-15.319 21.702,-20.66 0.464,-5.337 -0.232,-13.463 -11.84,-15.087"
       style="fill:none;stroke:#231f20;stroke-width:0.5;stroke-linecap:round;stroke-linejoin:round;stroke-miterlimit:4;stroke-dasharray:2.8, 1.8;stroke-dashoffset:0;stroke-opacity:1"
       id="path870" />
    <path
       d="m 582.963,528.168 c 4.396,6.279 14.378,10.457 20.646,13.708 6.267,3.248 26.137,15.547 34.726,29.708"
       style="fill:none;stroke:#231f20;stroke-width:0.5;stroke-linecap:round;stroke-linejoin:round;stroke-miterlimit:4;stroke-dasharray:2.8, 1.8;stroke-dashoffset:0;stroke-opacity:1"
       id="path872" />
    <path
       d="m 641.407,581.303 c -2.281,-2.285 -3.441,-6.232 -2.977,-13.196 0.464,-6.965 4.41,-18.804 7.196,-28.089 2.786,-9.284 6.037,-18.572 7.197,-21.589"
       style="fill:none;stroke:#231f20;stroke-width:0.5;stroke-linecap:round;stroke-linejoin:round;stroke-miterlimit:4;stroke-dasharray:2.8, 1.8;stroke-dashoffset:0;stroke-opacity:1"
       id="path874" />
    <path
       d="m 575.135,602.54 c -2.601,2.464 -9.365,16.406 -4.955,26.156 4.41,9.75 18.803,20.892 26.696,26.696 7.893,5.805 18.571,13.232 21.589,15.322 3.019,2.089 8.59,5.572 11.375,5.804 2.786,0.232 8.59,-3.715 8.358,-5.107 -0.233,-1.394 -5.572,-13.697 -9.286,-19.733 -3.714,-6.036 -6.038,-9.747 -5.572,-14.623 0.465,-4.877 0.234,-7.894 1.162,-9.055 0.927,-1.162 6.498,-6.5 6.498,-6.5 0,0 1.162,10.213 3.483,17.643 2.322,7.429 3.482,14.625 18.107,19.268 14.625,4.642 24.839,1.392 29.25,0.232 4.412,-1.161 20.895,-6.732 29.715,-5.572 0,0 2.09,2.091 9.054,2.554 6.965,0.464 11.84,-0.697 15.089,-3.251 3.25,-2.553 7.428,-5.802 6.268,-10.911 -1.026,-4.512 -2.09,-6.499 -5.108,-8.589 0,0 5.806,2.09 8.126,6.037 2.321,3.946 3.018,3.017 6.268,2.321 3.25,-0.696 10.445,-3.25 13.463,-8.358 3.019,-5.106 3.483,-13.696 3.715,-21.588 0.233,-7.893 -1.625,-17.412 -9.054,-17.876 -7.427,-0.463 -22.285,3.483 -35.517,2.323"
       style="fill:none;stroke:#231f20;stroke-width:0.5;stroke-linecap:round;stroke-linejoin:round;stroke-miterlimit:4;stroke-dasharray:2.8, 1.8;stroke-dashoffset:0;stroke-opacity:1"
       id="path876" />
    <path
       d="m 596.876,655.392 c 3.018,-4.875 17.528,-17.41 26.582,-19.731"
       style="fill:none;stroke:#231f20;stroke-width:0.5;stroke-linecap:round;stroke-linejoin:round;stroke-miterlimit:4;stroke-dasharray:2.8, 1.8;stroke-dashoffset:0;stroke-opacity:1"
       id="path878" />
    <path
       d="m 624.036,629.048 c 0.233,-6.387 -0.231,-22.637 -12.651,-31.343"
       style="fill:none;stroke:#231f20;stroke-width:0.5;stroke-linecap:round;stroke-linejoin:round;stroke-miterlimit:4;stroke-dasharray:2.8, 1.8;stroke-dashoffset:0;stroke-opacity:1"
       id="path880" />
    <path
       d="m 631,621.5 c 5.109,-4.412 17.412,-13.928 7.546,-26.581"
       style="fill:none;stroke:#231f20;stroke-width:0.5;stroke-linecap:round;stroke-linejoin:round;stroke-miterlimit:4;stroke-dasharray:2.8, 1.8;stroke-dashoffset:0;stroke-opacity:1"
       id="path882" />
    <path
       d="m 711.555,653.071 c -4.178,-3.482 -7.892,-11.372 -6.5,-16.016 1.393,-4.644 9.519,-2.092 12.769,-2.555 3.249,-0.464 8.355,-8.589 19.034,-1.626"
       style="fill:none;stroke:#231f20;stroke-width:0.5;stroke-linecap:round;stroke-linejoin:round;stroke-miterlimit:4;stroke-dasharray:2.8, 1.8;stroke-dashoffset:0;stroke-opacity:1"
       id="path884" />
    <path
       d="m 734.882,631.72 c -3.827,-2.327 -16.362,-9.059 -14.273,-13.934 2.09,-4.875 7.423,-7.148 12.069,-7.292"
       style="fill:none;stroke:#231f20;stroke-width:0.5;stroke-linecap:round;stroke-linejoin:round;stroke-miterlimit:4;stroke-dasharray:2.8, 1.8;stroke-dashoffset:0;stroke-opacity:1"
       id="path886" />
    <path
       d="m 768.26,606.149 c -6.561,1.423 -21.883,3.744 -31.169,4.208 -9.287,0.464 -20.655,-0.232 -29.476,-0.696"
       style="fill:none;stroke:#231f20;stroke-width:0.5;stroke-linecap:round;stroke-linejoin:round;stroke-miterlimit:4;stroke-dasharray:2.8, 1.8;stroke-dashoffset:0;stroke-opacity:1"
       id="path888" />
    <path
       d="m 639.09,613.348 c 2.126,6.063 13.965,12.794 30.68,15.58 16.714,2.785 34.357,-2.554 50.839,-11.142"
       style="fill:none;stroke:#231f20;stroke-width:0.5;stroke-linecap:round;stroke-linejoin:round;stroke-miterlimit:4;stroke-dasharray:2.8, 1.8;stroke-dashoffset:0;stroke-opacity:1"
       id="path890" />
    <path
       d="m 641.924,601.589 c 4.167,4.822 12.99,8.999 20.185,10.624 7.195,1.626 28.321,1.858 33.196,1.161 4.875,-0.696 23.911,-3.007 6.964,-16.241"
       style="fill:none;stroke:#231f20;stroke-width:0.5;stroke-linecap:round;stroke-linejoin:round;stroke-miterlimit:4;stroke-dasharray:2.8, 1.8;stroke-dashoffset:0;stroke-opacity:1"
       id="path892" />
    <path
       d="m 549.52,526.089 c -2.593,-0.149 -8.126,-3.963 -8.822,-9.75 -0.696,-5.789 3.482,-7.66 5.106,-7.66 1.627,0 6.036,0.696 6.964,8.358 0.931,7.66 -2.105,9.118 -3.248,9.052 z"
       style="fill:none;stroke:#231f20;stroke-width:0.5;stroke-linecap:round;stroke-linejoin:round;stroke-miterlimit:4;stroke-dasharray:2.8, 1.8;stroke-dashoffset:0;stroke-opacity:1"
       id="path894" />
    <path
       d="m 493.187,386.303 c 1.741,9.054 4.68,13.268 9.555,19.188 4.876,5.919 30.643,17.759 37.26,17.759 6.616,0 32.383,-11.84 37.258,-17.759 4.875,-5.92 7.815,-10.134 9.556,-19.188"
       style="fill:none;stroke:#231f20;stroke-width:0.5;stroke-linecap:round;stroke-linejoin:round;stroke-miterlimit:4;stroke-dasharray:2.8, 1.8;stroke-dashoffset:6.8788;stroke-opacity:1"
       id="path896" />
    <path
       d="m 502.742,405.491 c -2.089,3.83 -6.616,9.75 -13.58,11.142 -6.964,1.393 -22.819,3.483 -33.962,3.83"
       style="fill:none;stroke:#231f20;stroke-width:0.5;stroke-linecap:round;stroke-linejoin:round;stroke-miterlimit:4;stroke-dasharray:2.8, 1.8;stroke-dashoffset:0;stroke-opacity:1"
       id="path898" />
    <path
       d="M 478.483,517.037 C 476.626,490.803 453.295,412.803 450.51,405.142"
       style="fill:none;stroke:#231f20;stroke-width:0.5;stroke-linecap:round;stroke-linejoin:round;stroke-miterlimit:4;stroke-dasharray:2.8, 1.8;stroke-dashoffset:0;stroke-opacity:1"
       id="path900" />
    <path
       d="m 455.033,516.207 c -2.434,-18.44 -13.073,-51.648 -44.412,-76.372"
       style="fill:none;stroke:#231f20;stroke-width:0.5;stroke-linecap:round;stroke-linejoin:round;stroke-miterlimit:4;stroke-dasharray:2.8, 1.8;stroke-dashoffset:0;stroke-opacity:1"
       id="path902" />
    <path
       d="m 495.778,371.713 c 5.223,14.278 13.232,17.411 19.152,20.197 5.919,2.786 19.5,11.143 25.072,11.143 5.571,0 19.151,-8.357 25.071,-11.143 5.92,-2.786 13.929,-5.919 19.151,-20.197"
       style="fill:none;stroke:#231f20;stroke-width:0.5;stroke-linecap:round;stroke-linejoin:round;stroke-miterlimit:4;stroke-dasharray:2.8, 1.8;stroke-dashoffset:7.7538;stroke-opacity:1"
       id="path904" />
    <path
       d="m 491.893,379.41 c -0.349,-3.134 0.922,-6.551 2.578,-8.515"
       style="fill:none;stroke:#231f20;stroke-width:0.5;stroke-linecap:round;stroke-linejoin:round;stroke-miterlimit:4;stroke-dasharray:2.8, 1.8;stroke-dashoffset:0;stroke-opacity:1"
       id="path906" />
    <path
       d="m 537.671,376.547 c 0,3.908 1.169,4.454 2.331,4.454 1.161,0 2.33,-0.546 2.33,-4.454"
       style="fill:none;stroke:#231f20;stroke-width:0.5;stroke-linecap:round;stroke-linejoin:round;stroke-miterlimit:4;stroke-dasharray:2.8, 1.8;stroke-dashoffset:8.00381;stroke-opacity:1"
       id="path908" />
    <path
       d="m 490.554,387.035 c -3.593,0.266 -12.304,-5.106 -11.375,-8.82 0.929,-3.715 3.947,-5.571 9.75,-1.392 5.804,4.178 7.894,9.75 1.625,10.212 z"
       style="fill:none;stroke:#231f20;stroke-width:0.5;stroke-linecap:round;stroke-linejoin:round;stroke-miterlimit:4;stroke-dasharray:2.8, 1.8;stroke-dashoffset:0;stroke-opacity:1"
       id="path910" />
    <path
       d="m 489.88,377.326 c -1.415,-5.832 -8.38,-14.435 -14.183,-20.469 -5.803,-6.036 -19.864,-13.993 -33.328,1.328"
       style="fill:none;stroke:#231f20;stroke-width:0.5;stroke-linecap:round;stroke-linejoin:round;stroke-miterlimit:4;stroke-dasharray:2.8, 1.8;stroke-dashoffset:0;stroke-opacity:1"
       id="path912" />
    <path
       d="m 481.458,374.861 c -4.599,-1.755 -25.03,2.655 -28.744,7.765"
       style="fill:none;stroke:#231f20;stroke-width:0.5;stroke-linecap:round;stroke-linejoin:round;stroke-miterlimit:4;stroke-dasharray:2.8, 1.8;stroke-dashoffset:0;stroke-opacity:1"
       id="path914" />
    <path
       d="m 439.313,382.394 c -6.035,0 -8.651,10.212 -6.795,16.714 1.858,6.499 10.342,10.681 13.697,9.285 2.786,-1.161 10.678,-8.822 3.947,-19.965"
       style="fill:none;stroke:#231f20;stroke-width:0.5;stroke-linecap:round;stroke-linejoin:round;stroke-miterlimit:4;stroke-dasharray:2.8, 1.8;stroke-dashoffset:0;stroke-opacity:1"
       id="path916" />
    <path
       d="m 432.396,398.616 c -2.663,3.044 -11.484,9.312 -16.359,9.777 -4.875,0.465 -8.359,-1.159 -9.983,-2.32"
       style="fill:none;stroke:#231f20;stroke-width:0.5;stroke-linecap:round;stroke-linejoin:round;stroke-miterlimit:4;stroke-dasharray:2.8, 1.8;stroke-dashoffset:0;stroke-opacity:1"
       id="path918" />
    <path
       d="m 437.163,375.429 c -3.949,-2.089 -10.448,0.695 -13.929,3.018 -3.483,2.32 -11.608,7.66 -14.858,11.607"
       style="fill:none;stroke:#231f20;stroke-width:0.5;stroke-linecap:round;stroke-linejoin:round;stroke-miterlimit:4;stroke-dasharray:2.8, 1.8;stroke-dashoffset:0;stroke-opacity:1"
       id="path920" />
    <path
       d="m 448.073,390.286 c -3.09,1.11 -6.329,-3.2 -9.286,-9.054 -2.717,-5.378 -4.411,-18.804 1.857,-21.124 8.128,-3.009 11.374,5.338 12.304,8.82 0.928,3.482 0.928,19.269 -4.875,21.358 z"
       style="fill:none;stroke:#231f20;stroke-width:0.5;stroke-linecap:round;stroke-linejoin:round;stroke-miterlimit:4;stroke-dasharray:2.8, 1.8;stroke-dashoffset:0;stroke-opacity:1"
       id="path922" />
    <path
       d="m 389.573,424.876 c -1.858,0.462 -4.16,0.675 -5.805,-1.162 -4.82,-5.388 -7.996,-9.76 -11.247,-14.635"
       style="fill:none;stroke:#231f20;stroke-width:0.5;stroke-linecap:round;stroke-linejoin:round;stroke-miterlimit:4;stroke-dasharray:2.8, 1.8;stroke-dashoffset:0;stroke-opacity:1"
       id="path924" />
    <path
       d="m 440.376,407.542 c -0.893,4.565 -5.767,7.119 -9.482,9.44 -3.715,2.323 -14.625,7.66 -16.714,8.822"
       style="fill:none;stroke:#231f20;stroke-width:0.5;stroke-linecap:round;stroke-linejoin:round;stroke-miterlimit:4;stroke-dasharray:2.8, 1.8;stroke-dashoffset:0;stroke-opacity:1"
       id="path926" />
    <path
       d="m 402.34,430.91 c -3.248,-0.25 -9.054,-1.624 -10.214,-2.786 -1.161,-1.159 -3.017,-1.855 -2.321,-7.426 0.696,-5.572 1.625,-7.895 4.875,-9.519 3.249,-1.624 8.126,-4.644 11.839,0.928 3.714,5.571 5.352,9.069 7.661,13.697 0.928,1.858 -5.804,5.572 -11.84,5.106 z"
       style="fill:none;stroke:#231f20;stroke-width:0.5;stroke-linecap:round;stroke-linejoin:round;stroke-miterlimit:4;stroke-dasharray:2.8, 1.8;stroke-dashoffset:0;stroke-opacity:1"
       id="path928" />
    <path
       d="m 401.852,408.926 c 1.648,-0.764 4.666,-1.926 4.202,-5.176 -0.464,-3.249 1.161,-9.982 2.322,-13.696 1.161,-3.716 -1.162,-13.697 -8.589,-10.215 -7.429,3.483 -24.224,14.849 -27.473,20.189"
       style="fill:none;stroke:#231f20;stroke-width:0.5;stroke-linecap:round;stroke-linejoin:round;stroke-miterlimit:4;stroke-dasharray:2.8, 1.8;stroke-dashoffset:0;stroke-opacity:1"
       id="path930" />
    <path
       d="m 406.75,440.198 c -2.178,-0.797 -7.661,-4.878 -6.267,-6.734 1.393,-1.857 11.143,2.321 11.143,4.644 0,1.921 -2.739,2.87 -4.876,2.09 z"
       style="fill:none;stroke:#231f20;stroke-width:0.5;stroke-linecap:round;stroke-linejoin:round;stroke-miterlimit:4;stroke-dasharray:2.8, 1.8;stroke-dashoffset:0;stroke-opacity:1"
       id="path932" />
    <path
       d="m 421.608,518.661 c -5.098,0.318 -14.843,0.908 -17.41,-2.09 -2.786,-3.248 -1.858,-10.678 3.017,-11.374 4.875,-0.697 21.126,0 25.073,0.696 3.945,0.696 11.375,9.981 5.571,11.144 -5.805,1.161 -10.707,1.281 -16.251,1.624 z"
       style="fill:none;stroke:#231f20;stroke-width:0.5;stroke-linecap:round;stroke-linejoin:round;stroke-miterlimit:4;stroke-dasharray:2.8, 1.8;stroke-dashoffset:0;stroke-opacity:1"
       id="path934" />
    <path
       d="m 443.431,516.19 c 2.783,-0.032 8.416,-1.248 8.587,-4.494 0.233,-4.409 -9.869,-4.72 -18.013,-5.109"
       style="fill:none;stroke:#231f20;stroke-width:0.5;stroke-linecap:round;stroke-linejoin:round;stroke-miterlimit:4;stroke-dasharray:2.8, 1.8;stroke-dashoffset:0;stroke-opacity:1"
       id="path936" />
    <path
       d="m 403.195,514.832 c 4.633,3.545 12.207,-5.301 2.89,-9.325"
       style="fill:none;stroke:#231f20;stroke-width:0.5;stroke-linecap:round;stroke-linejoin:round;stroke-miterlimit:4;stroke-dasharray:2.8, 1.8;stroke-dashoffset:0;stroke-opacity:1"
       id="path938" />
    <path
       d="m 374.018,505.197 c -0.464,-9.519 8.821,-26.234 13.232,-32.733"
       style="fill:none;stroke:#231f20;stroke-width:0.5;stroke-linecap:round;stroke-linejoin:round;stroke-miterlimit:4;stroke-dasharray:2.8, 1.8;stroke-dashoffset:0;stroke-opacity:1"
       id="path940" />
    <path
       d="m 379.915,512.406 c 3.853,4.399 15.158,3.947 18.944,1.613 3.785,-2.337 10.457,-12.32 -1.62,-32.975"
       style="fill:none;stroke:#231f20;stroke-width:0.5;stroke-linecap:round;stroke-linejoin:round;stroke-miterlimit:4;stroke-dasharray:2.8, 1.8;stroke-dashoffset:0;stroke-opacity:1"
       id="path942" />
    <path
       d="m 380.291,555.221 c 3.246,-1.043 6.751,-6.421 6.741,-9.911 -0.013,-4.13 1.198,-6.29 3.469,-8.773 1.912,-2.093 3.947,-6.269 2.553,-7.893 -1.392,-1.627 -4.689,-3.31 -12.609,-0.931"
       style="fill:none;stroke:#231f20;stroke-width:0.5;stroke-linecap:round;stroke-linejoin:round;stroke-miterlimit:4;stroke-dasharray:2.8, 1.8;stroke-dashoffset:0;stroke-opacity:1"
       id="path944" />
    <path
       d="m 422.653,585.169 c -4.064,-1.509 -17.295,-4.991 -20.081,-5.454"
       style="fill:none;stroke:#231f20;stroke-width:0.5;stroke-linecap:round;stroke-linejoin:round;stroke-miterlimit:4;stroke-dasharray:2.8, 1.8;stroke-dashoffset:0;stroke-opacity:1"
       id="path946" />
    <path
       d="m 400.715,589.696 c -2.786,-1.161 -12.534,-8.821 -13,-12.071"
       style="fill:none;stroke:#231f20;stroke-width:0.5;stroke-linecap:round;stroke-linejoin:round;stroke-miterlimit:4;stroke-dasharray:2.8, 1.8;stroke-dashoffset:0;stroke-opacity:1"
       id="path948" />
    <path
       d="m 324.821,520.679 c -1.642,-2.716 -13.249,-11.072 -17.427,-3.76"
       style="fill:none;stroke:#231f20;stroke-width:0.5;stroke-linecap:round;stroke-linejoin:round;stroke-miterlimit:4;stroke-dasharray:2.8, 1.8;stroke-dashoffset:0;stroke-opacity:1"
       id="path950" />
    <path
       d="m 392.165,583.386 c -4.682,3.989 -18.611,8.4 -31.843,6.31 -13.232,-2.089 -29.25,-8.124 -39,-19.5 -9.75,-11.375 -17.641,-40.858 1.858,-51.305"
       style="fill:none;stroke:#231f20;stroke-width:0.5;stroke-linecap:round;stroke-linejoin:round;stroke-miterlimit:4;stroke-dasharray:2.8, 1.8;stroke-dashoffset:0;stroke-opacity:1"
       id="path952" />
    <path
       d="m 390.087,581.804 c -4.539,3.51 -17.826,6.938 -30.279,4.437 -12.271,-2.464 -27.017,-8.553 -36.223,-19.184 -9.221,-10.655 -17.672,-38.214 -0.405,-48.166"
       style="fill:none;stroke:#231f20;stroke-width:0.5;stroke-linecap:round;stroke-linejoin:round;stroke-miterlimit:4;stroke-dasharray:2.8, 1.8;stroke-dashoffset:0;stroke-opacity:1"
       id="path954" />
    <path
       d="m 527.93,490.803 c -7.661,-2.786 -23.214,-5.341 -33.197,0.465 -9.983,5.803 -11.375,16.945 -9.75,26.465"
       style="fill:none;stroke:#231f20;stroke-width:0.5;stroke-linecap:round;stroke-linejoin:round;stroke-miterlimit:4;stroke-dasharray:2.8, 1.8;stroke-dashoffset:0;stroke-opacity:1"
       id="path956" />
    <path
       d="m 529.508,534.834 c -5.989,-5.727 -15.739,-10.137 -22.239,-12.458 -6.501,-2.323 -19.502,-4.643 -28.786,-5.339 -9.285,-0.698 -32.733,-1.163 -39,-0.698"
       style="fill:none;stroke:#231f20;stroke-width:0.5;stroke-linecap:round;stroke-linejoin:round;stroke-miterlimit:4;stroke-dasharray:2.8, 1.8;stroke-dashoffset:0;stroke-opacity:1"
       id="path958" />
    <path
       d="m 517.132,558.123 c -7.31,-5.105 -21.239,-15.319 -21.703,-20.66 -0.463,-5.337 0.232,-13.463 11.84,-15.087"
       style="fill:none;stroke:#231f20;stroke-width:0.5;stroke-linecap:round;stroke-linejoin:round;stroke-miterlimit:4;stroke-dasharray:2.8, 1.8;stroke-dashoffset:0;stroke-opacity:1"
       id="path960" />
    <path
       d="m 497.039,528.168 c -4.395,6.279 -14.377,10.457 -20.646,13.708 -6.267,3.248 -26.136,15.547 -34.725,29.708"
       style="fill:none;stroke:#231f20;stroke-width:0.5;stroke-linecap:round;stroke-linejoin:round;stroke-miterlimit:4;stroke-dasharray:2.8, 1.8;stroke-dashoffset:0;stroke-opacity:1"
       id="path962" />
    <path
       d="m 438.596,581.303 c 2.28,-2.285 3.44,-6.232 2.976,-13.196 -0.464,-6.965 -4.409,-18.804 -7.196,-28.089 -2.786,-9.284 -6.037,-18.572 -7.197,-21.589"
       style="fill:none;stroke:#231f20;stroke-width:0.5;stroke-linecap:round;stroke-linejoin:round;stroke-miterlimit:4;stroke-dasharray:2.8, 1.8;stroke-dashoffset:0;stroke-opacity:1"
       id="path964" />
    <path
       d="m 504.867,602.54 c 2.602,2.464 9.365,16.406 4.955,26.156 -4.409,9.75 -18.802,20.892 -26.696,26.696 -7.893,5.805 -18.571,13.232 -21.588,15.322 -3.019,2.089 -8.59,5.572 -11.376,5.804 -2.786,0.232 -8.59,-3.715 -8.358,-5.107 0.234,-1.394 5.573,-13.697 9.286,-19.733 3.714,-6.036 6.037,-9.747 5.573,-14.623 -0.466,-4.877 -0.235,-7.894 -1.163,-9.055 -0.927,-1.162 -6.499,-6.5 -6.499,-6.5 0,0 -1.16,10.213 -3.482,17.643 -2.321,7.429 -3.481,14.625 -18.106,19.268 -14.626,4.642 -24.839,1.392 -29.251,0.232 -4.412,-1.161 -20.894,-6.732 -29.715,-5.572 0,0 -2.089,2.091 -9.054,2.554 -6.964,0.464 -11.839,-0.697 -15.089,-3.251 -3.249,-2.553 -7.428,-5.802 -6.267,-10.911 1.025,-4.512 2.09,-6.499 5.107,-8.589 0,0 -5.806,2.09 -8.126,6.037 -2.32,3.946 -3.018,3.017 -6.268,2.321 -3.25,-0.696 -10.445,-3.25 -13.463,-8.358 -3.018,-5.106 -3.482,-13.696 -3.715,-21.588 -0.233,-7.893 1.626,-17.412 9.054,-17.876 7.428,-0.463 22.286,3.483 35.518,2.323"
       style="fill:none;stroke:#231f20;stroke-width:0.5;stroke-linecap:round;stroke-linejoin:round;stroke-miterlimit:4;stroke-dasharray:2.8, 1.8;stroke-dashoffset:0;stroke-opacity:1"
       id="path966" />
    <path
       d="m 483.126,655.392 c -3.018,-4.875 -17.527,-17.41 -26.581,-19.731"
       style="fill:none;stroke:#231f20;stroke-width:0.5;stroke-linecap:round;stroke-linejoin:round;stroke-miterlimit:4;stroke-dasharray:2.8, 1.8;stroke-dashoffset:0;stroke-opacity:1"
       id="path968" />
    <path
       d="m 455.967,629.048 c -0.234,-6.387 0.23,-22.637 12.65,-31.343"
       style="fill:none;stroke:#231f20;stroke-width:0.5;stroke-linecap:round;stroke-linejoin:round;stroke-miterlimit:4;stroke-dasharray:2.8, 1.8;stroke-dashoffset:0;stroke-opacity:1"
       id="path970" />
    <path
       d="m 449.001,621.5 c -5.107,-4.412 -17.411,-13.928 -7.544,-26.581"
       style="fill:none;stroke:#231f20;stroke-width:0.5;stroke-linecap:round;stroke-linejoin:round;stroke-miterlimit:4;stroke-dasharray:2.8, 1.8;stroke-dashoffset:0;stroke-opacity:1"
       id="path972" />
    <path
       d="m 368.447,653.071 c 4.179,-3.482 7.893,-11.372 6.501,-16.016 -1.394,-4.644 -9.52,-2.092 -12.769,-2.555 -3.25,-0.464 -8.356,-8.589 -19.035,-1.626"
       style="fill:none;stroke:#231f20;stroke-width:0.5;stroke-linecap:round;stroke-linejoin:round;stroke-miterlimit:4;stroke-dasharray:2.8, 1.8;stroke-dashoffset:0;stroke-opacity:1"
       id="path974" />
    <path
       d="m 345.121,631.72 c 3.826,-2.327 16.362,-9.059 14.272,-13.934 -2.089,-4.875 -7.423,-7.148 -12.069,-7.292"
       style="fill:none;stroke:#231f20;stroke-width:0.5;stroke-linecap:round;stroke-linejoin:round;stroke-miterlimit:4;stroke-dasharray:2.8, 1.8;stroke-dashoffset:0;stroke-opacity:1"
       id="path976" />
    <path
       d="m 311.742,606.149 c 6.562,1.423 21.884,3.744 31.17,4.208 9.286,0.464 20.654,-0.232 29.475,-0.696"
       style="fill:none;stroke:#231f20;stroke-width:0.5;stroke-linecap:round;stroke-linejoin:round;stroke-miterlimit:4;stroke-dasharray:2.8, 1.8;stroke-dashoffset:0;stroke-opacity:1"
       id="path978" />
    <path
       d="m 440.913,613.348 c -2.126,6.063 -13.966,12.794 -30.68,15.58 -16.715,2.785 -34.358,-2.554 -50.84,-11.142"
       style="fill:none;stroke:#231f20;stroke-width:0.5;stroke-linecap:round;stroke-linejoin:round;stroke-miterlimit:4;stroke-dasharray:2.8, 1.8;stroke-dashoffset:0;stroke-opacity:1"
       id="path980" />
    <path
       d="m 438.078,601.589 c -4.166,4.822 -12.989,8.999 -20.185,10.624 -7.195,1.626 -28.32,1.858 -33.195,1.161 -4.875,-0.696 -23.912,-3.007 -6.965,-16.241"
       style="fill:none;stroke:#231f20;stroke-width:0.5;stroke-linecap:round;stroke-linejoin:round;stroke-miterlimit:4;stroke-dasharray:2.8, 1.8;stroke-dashoffset:0;stroke-opacity:1"
       id="path982" />
    <path
       d="m 530.483,526.089 c 2.592,-0.149 8.125,-3.963 8.822,-9.75 0.697,-5.789 -3.481,-7.66 -5.107,-7.66 -1.625,0 -6.035,0.696 -6.964,8.358 -0.93,7.66 2.106,9.118 3.249,9.052 z"
       style="fill:none;stroke:#231f20;stroke-width:0.5;stroke-linecap:round;stroke-linejoin:round;stroke-miterlimit:4;stroke-dasharray:2.8, 1.8;stroke-dashoffset:0;stroke-opacity:1"
       id="path984" />
    <path
       d="m 646.528,506.301 c 0.26,-3.659 7.689,-11.089 21.152,-17.122 13.464,-6.037 20.662,-11.608 25.072,-16.715 4.41,-5.106 13.698,-22.981 16.018,-35.517 2.32,-12.536 7.43,-18.57 11.143,-19.732 0.692,-0.217 1.384,-0.329 2.087,-0.309"
       style="fill:none;stroke:#231f20;stroke-width:0.5;stroke-linecap:round;stroke-linejoin:round;stroke-miterlimit:4;stroke-dasharray:2.8, 1.8;stroke-dashoffset:0;stroke-opacity:1"
       id="path986" />
    <path
       d="m 433.474,506.301 c -0.26,-3.659 -7.688,-11.089 -21.152,-17.122 -13.463,-6.037 -20.661,-11.608 -25.072,-16.715 -4.41,-5.106 -13.697,-22.981 -16.017,-35.517 -2.321,-12.536 -7.43,-18.57 -11.144,-19.732 -0.692,-0.217 -1.384,-0.329 -2.086,-0.309"
       style="fill:none;stroke:#231f20;stroke-width:0.5;stroke-linecap:round;stroke-linejoin:round;stroke-miterlimit:4;stroke-dasharray:2.8, 1.8;stroke-dashoffset:0;stroke-opacity:1"
       id="path988" />
    <path
       d="m 805.341,650.75 c 4.423,0.328 10.447,-2.089 10.679,-4.875 0.232,-2.786 -5.339,-8.357 -11.143,-8.125 -5.804,0.232 -9.288,3.017 -9.519,6.268 -0.231,3.25 3.715,6.269 9.983,6.732"
       style="fill:#ffffff;fill-opacity:1;fill-rule:nonzero;stroke:none;stroke-width:0.1"
       id="path990" />
    <path
       d="m 805.341,650.75 c 4.423,0.328 10.447,-2.089 10.679,-4.875 0.232,-2.786 -5.339,-8.357 -11.143,-8.125 -5.804,0.232 -9.288,3.017 -9.519,6.268 -0.231,3.25 3.715,6.269 9.983,6.732 z"
       style="fill:none;stroke:#231f20;stroke-width:0.75;stroke-linecap:round;stroke-linejoin:round;stroke-miterlimit:4;stroke-dasharray:0, 2;stroke-dashoffset:0;stroke-opacity:1"
       id="path992" />
    <path
       d="m 802.964,570.097 c 4.466,1.956 14.912,5.672 37.895,2.421 22.982,-3.251 41.322,-12.072 53.857,-15.554 12.536,-3.482 29.249,-8.357 32.964,-9.285 3.715,-0.928 6.036,-2.786 0.929,-5.34 -5.107,-2.551 -12.999,-6.733 -18.107,-8.589 -5.108,-1.858 -7.428,-11.608 -2.089,-15.321 5.339,-3.714 17.177,-5.803 23.678,-2.32 6.5,3.481 10.911,6.732 19.268,7.66 8.357,0.928 12.753,8.741 14.393,12.768 1.23,3.016 2.555,9.75 -3.482,12.07 -6.036,2.323 -19.034,6.035 -8.356,12.999 10.677,6.965 19.268,5.572 19.5,19.964 0.23,14.394 -5.574,26.002 -14.395,16.483 -2.204,-2.38 -2.853,-5.767 -4.409,-7.661 -4.669,-5.68 -8.184,-8.065 -11.84,-10.677 -4.875,-3.482 -9.054,-8.59 -14.857,-8.823 -2.612,-0.104 -10.363,0.121 -17.644,2.09 -8.899,2.407 -17.405,6.986 -16.481,10.911 0.928,3.945 10.912,4.642 16.947,5.803 6.035,1.162 9.98,2.09 15.089,6.499 5.107,4.413 10.91,10.447 9.75,13.001 -1.16,2.554 -3.018,6.5 -8.125,4.178 -5.108,-2.321 -16.484,-7.66 -20.661,-8.587 -4.179,-0.93 -16.019,-3.251 -34.589,-5.11 -18.572,-1.855 -29.249,-1.856 -30.411,0.697 -1.162,2.554 6.73,12.537 9.981,15.09 3.251,2.554 13.93,10.214 17.876,13.929 3.946,3.714 11.608,9.517 8.357,13.464 -3.25,3.946 -13.465,4.643 -26.233,-2.09 -12.767,-6.731 -28.554,-20.196 -32.732,-21.821 -4.178,-1.624 -13.001,-4.178 -11.839,-11.374 1.161,-7.198 -3.154,-18.322 -10.214,-19.734 -5.485,-1.096 -10.881,2.727 -12.769,9.287 -1.707,5.931 -1.45,13.62 8.126,23.678"
       style="fill:none;stroke:#231f20;stroke-width:0.75;stroke-linecap:round;stroke-linejoin:round;stroke-miterlimit:4;stroke-dasharray:0, 2;stroke-dashoffset:0;stroke-opacity:1"
       id="path994" />
    <path
       d="m 213.376,656.457 c -24.376,7.66 -16.018,35.266 -14.974,50.24 1.045,14.972 4.179,16.017 8.357,16.017 4.179,0 8.009,-10.446 11.143,-18.803 3.135,-8.358 1.393,-24.027 13.929,-34.125 12.536,-10.099 30.643,2.437 38.303,16.366 7.661,13.929 2.438,27.16 -10.446,34.821 -12.884,7.661 -13.58,14.625 -15.321,25.071 -1.741,10.447 -5.572,11.84 -12.884,11.492 -7.313,-0.348 -13.581,1.392 -6.616,14.277 6.964,12.884 37.259,37.606 48.053,43.178 10.795,5.572 13.58,-13.928 15.322,-19.848 1.741,-5.92 3.482,-26.116 6.267,-39 2.786,-12.884 10.795,-26.465 14.625,-27.857 3.831,-1.393 11.492,-4.875 18.456,-13.58 6.964,-8.706 5.919,-10.447 18.804,-11.144 12.884,-0.696 20.196,2.438 30.991,14.974 10.794,12.536 10.794,22.286 8.009,37.258 -2.786,14.974 -14.625,20.545 -23.679,22.287 -9.053,1.741 -8.706,9.75 -10.098,12.535 -1.393,2.786 -14.625,21.241 -18.804,27.509 -4.179,6.268 5.224,16.018 11.144,19.152 5.919,3.134 21.937,6.267 27.508,6.616 5.572,0.349 6.053,-3.115 5.92,-5.92 -0.175,-3.656 0.697,-7.66 2.785,-12.884 2.09,-5.222 6.617,-12.536 21.242,-11.839 14.625,0.697 18.803,11.839 20.196,28.902 1.392,17.062 9.054,18.804 17.062,23.679 8.009,4.875 31.688,9.053 43.179,10.098 11.491,1.044 49.446,2.785 58.153,2.785 8.705,0 46.66,-1.741 58.151,-2.785 11.491,-1.045 35.17,-5.223 43.179,-10.098 8.008,-4.875 15.67,-6.617 17.062,-23.679 1.394,-17.063 5.571,-28.205 20.196,-28.902 14.625,-0.697 19.153,6.617 21.242,11.839 2.089,5.224 2.96,9.228 2.786,12.884 -0.134,2.805 0.347,6.269 5.92,5.92 5.571,-0.349 21.588,-3.482 27.508,-6.616 5.92,-3.134 15.322,-12.884 11.143,-19.152 -4.179,-6.268 -17.41,-24.723 -18.804,-27.509 -1.392,-2.785 -1.044,-10.794 -10.097,-12.535 -9.054,-1.742 -20.894,-7.313 -23.679,-22.287 -2.786,-14.972 -2.786,-24.722 8.009,-37.258 10.795,-12.536 18.107,-15.67 30.991,-14.974 12.884,0.697 11.839,2.438 18.804,11.144 6.963,8.705 14.625,12.187 18.455,13.58 3.83,1.392 11.839,14.973 14.625,27.857 2.786,12.884 4.527,33.08 6.267,39 1.742,5.92 4.528,25.42 15.322,19.848 10.794,-5.572 41.089,-30.294 48.054,-43.178 6.964,-12.885 0.696,-14.625 -6.616,-14.277 -7.312,0.348 -11.144,-1.045 -12.885,-11.492 -1.74,-10.446 -2.437,-17.41 -15.321,-25.071 -12.884,-7.661 -18.106,-20.892 -10.446,-34.821 7.661,-13.929 25.767,-26.465 38.303,-16.366 12.537,10.098 10.795,25.767 13.929,34.125 3.134,8.357 6.964,18.803 11.143,18.803 4.178,0 7.312,-1.045 8.357,-16.017 1.045,-14.974 9.402,-42.58 -14.974,-50.24"
       style="fill:none;stroke:#231f20;stroke-width:0.75;stroke-linecap:round;stroke-linejoin:round;stroke-miterlimit:4;stroke-dasharray:0, 2;stroke-dashoffset:0;stroke-opacity:1"
       id="path996" />
    <path
       d="m 274.662,650.75 c -4.424,0.328 -10.447,-2.089 -10.68,-4.875 -0.232,-2.786 5.339,-8.357 11.144,-8.125 5.803,0.232 9.287,3.017 9.518,6.268 0.232,3.25 -3.715,6.269 -9.982,6.732"
       style="fill:#ffffff;fill-opacity:1;fill-rule:nonzero;stroke:none;stroke-width:0.1"
       id="path998" />
    <path
       d="m 274.662,650.75 c -4.424,0.328 -10.447,-2.089 -10.68,-4.875 -0.232,-2.786 5.339,-8.357 11.144,-8.125 5.803,0.232 9.287,3.017 9.518,6.268 0.232,3.25 -3.715,6.269 -9.982,6.732 z"
       style="fill:none;stroke:#231f20;stroke-width:0.75;stroke-linecap:round;stroke-linejoin:round;stroke-miterlimit:4;stroke-dasharray:0, 2;stroke-dashoffset:0;stroke-opacity:1"
       id="path1000" />
    <path
       d="m 277.038,570.097 c -4.466,1.956 -14.912,5.672 -37.895,2.421 -22.981,-3.251 -41.321,-12.072 -53.857,-15.554 -12.536,-3.482 -29.249,-8.357 -32.963,-9.285 -3.715,-0.928 -6.037,-2.786 -0.93,-5.34 5.107,-2.551 13,-6.733 18.107,-8.589 5.108,-1.858 7.428,-11.608 2.089,-15.321 -5.339,-3.714 -17.177,-5.803 -23.678,-2.32 -6.5,3.481 -10.911,6.732 -19.267,7.66 -8.357,0.928 -12.754,8.741 -14.394,12.768 -1.23,3.016 -2.554,9.75 3.482,12.07 6.037,2.323 19.035,6.035 8.357,12.999 -10.677,6.965 -19.268,5.572 -19.5,19.964 -0.231,14.394 5.573,26.002 14.394,16.483 2.205,-2.38 2.853,-5.767 4.41,-7.661 4.668,-5.68 8.183,-8.065 11.839,-10.677 4.875,-3.482 9.054,-8.59 14.857,-8.823 2.613,-0.104 10.363,0.121 17.644,2.09 8.9,2.407 17.405,6.986 16.481,10.911 -0.928,3.945 -10.911,4.642 -16.946,5.803 -6.035,1.162 -9.981,2.09 -15.089,6.499 -5.107,4.413 -10.91,10.447 -9.75,13.001 1.16,2.554 3.017,6.5 8.124,4.178 5.108,-2.321 16.484,-7.66 20.662,-8.587 4.179,-0.93 16.018,-3.251 34.589,-5.11 18.572,-1.855 29.249,-1.856 30.41,0.697 1.162,2.554 -6.73,12.537 -9.981,15.09 -3.251,2.554 -13.93,10.214 -17.876,13.929 -3.945,3.714 -11.607,9.517 -8.357,13.464 3.25,3.946 13.466,4.643 26.233,-2.09 12.767,-6.731 28.554,-20.196 32.732,-21.821 4.179,-1.624 13.001,-4.178 11.839,-11.374 -1.161,-7.198 3.154,-18.322 10.214,-19.734 5.486,-1.096 10.881,2.727 12.769,9.287 1.707,5.931 1.45,13.62 -8.126,23.678"
       style="fill:none;stroke:#231f20;stroke-width:0.75;stroke-linecap:round;stroke-linejoin:round;stroke-miterlimit:4;stroke-dasharray:0, 2;stroke-dashoffset:0;stroke-opacity:1"
       id="path1002" />
    <path
       d="m 540.002,834.143 c -7.662,0 -34.474,3.134 -43.876,4.875 -9.402,1.741 -18.107,3.482 -22.634,3.134 -4.527,-0.348 -17.41,-1.741 -21.938,-8.358 -4.526,-6.615 -16.017,-31.338 -17.062,-34.821 -1.044,-3.482 0.348,-8.705 2.437,-11.839 2.09,-3.134 1.394,-12.187 1.045,-16.715 -0.348,-4.526 -2.786,-17.41 -0.348,-22.981 2.438,-5.572 5.919,-12.536 1.393,-19.501 -4.527,-6.964 -14.625,-18.803 -16.715,-21.589 -2.089,-2.786 -0.696,-12.884 5.92,-12.187 6.616,0.696 13.929,1.741 18.455,-0.349 4.528,-2.089 20.197,-6.615 28.206,-1.044 8.009,5.571 13.232,9.75 22.982,7.66 9.751,-2.089 19.152,-6.964 27.509,-3.481 8.357,3.481 12.536,4.875 14.626,4.875 2.088,0 6.267,-1.394 14.624,-4.875 8.357,-3.483 17.759,1.392 27.509,3.481 9.75,2.09 14.974,-2.089 22.983,-7.66 8.008,-5.571 23.678,-1.045 28.205,1.044 4.526,2.09 11.839,1.045 18.455,0.349 6.616,-0.697 8.01,9.401 5.92,12.187 -2.089,2.786 -12.188,14.625 -16.714,21.589 -4.527,6.965 -1.045,13.929 1.392,19.501 2.438,5.571 0,18.455 -0.348,22.981 -0.348,4.528 -1.044,13.581 1.045,16.715 2.089,3.134 3.482,8.357 2.437,11.839 -1.045,3.483 -12.536,28.206 -17.062,34.821 -4.527,6.617 -17.411,8.01 -21.938,8.358 -4.526,0.348 -13.232,-1.393 -22.634,-3.134 -9.402,-1.741 -36.214,-4.875 -43.874,-4.875 z"
       style="fill:none;stroke:#231f20;stroke-width:0.75;stroke-linecap:round;stroke-linejoin:round;stroke-miterlimit:4;stroke-dasharray:0, 2;stroke-dashoffset:1.0938;stroke-opacity:1"
       id="path1004" />
    <path
       d="m 553.502,611.031 c 1.589,-2.995 6.179,-7.065 12.357,-5.493"
       style="fill:none;stroke:#231f20;stroke-width:0.75;stroke-linecap:round;stroke-linejoin:round;stroke-miterlimit:4;stroke-dasharray:0, 2;stroke-dashoffset:1.875;stroke-opacity:1"
       id="path1006" />
    <path
       d="m 526.502,611.031 c -1.59,-2.995 -6.18,-7.065 -12.359,-5.493"
       style="fill:none;stroke:#231f20;stroke-width:0.75;stroke-linecap:round;stroke-linejoin:round;stroke-miterlimit:4;stroke-dasharray:0, 2;stroke-dashoffset:3.75;stroke-opacity:1"
       id="path1008" />
  </g>
</svg>
