<?xml version="1.0" encoding="UTF-8" standalone="no"?>
<!-- Created with Inkscape (http://www.inkscape.org/) -->

<svg
   version="1.1"
   id="svg2"
   width="1440"
   height="1344"
   viewBox="0 0 1440 1344"
   xmlns="http://www.w3.org/2000/svg"
   xmlns:svg="http://www.w3.org/2000/svg">
  <defs
     id="defs6" />
  <g
     id="g8">
    <path
       d="m 540.002,354.768 c -4.412,0 -3.948,-6.268 -4.179,-8.822 -0.233,-2.552 -8.125,-8.589 -14.161,-11.84 -6.036,-3.248 -13.233,-1.158 -16.019,-0.696 -2.785,0.466 -20.66,1.393 -35.285,2.554 -14.625,1.16 -16.946,2.555 -19.732,3.714 -2.787,1.161 -5.339,3.25 -8.588,5.34 -2.456,1.578 -10.203,4.013 -19.5,7.66 -3.005,1.179 -5.709,3.856 -9.054,4.875 -13.696,4.177 -38.536,18.804 -43.411,21.821 -4.876,3.02 -4.643,9.288 -17.179,17.411 -12.536,8.126 -22.055,31.804 -22.982,36.911 -0.928,5.109 -3.251,19.965 -3.018,40.627 0.232,20.661 6.268,39 6.268,39 -8.59,-7.892 -15.554,10.677 -15.554,10.677 -29.02,11.839 -24.607,39.464 -24.607,39.464 -1.393,0.233 -4.853,0.325 -8.589,0 -2.773,-0.241 -12.642,-1.983 -24.375,-3.482 -14.857,-1.898 -32.701,-4.146 -42.947,-9.982 -18.339,-10.447 -22.751,-10.212 -22.751,-10.212 10.447,-2.787 13.929,-9.288 13.698,-19.735 -0.232,-10.446 -11.609,-16.48 -19.037,-19.5 -7.427,-3.017 -23.911,-2.09 -29.482,-0.463 -5.571,1.624 -8.125,4.642 -12.07,6.034 -3.947,1.393 -12.072,2.324 -18.108,4.179 -6.035,1.859 -12.768,12.77 -14.393,17.18 -1.626,4.409 -1.788,10.038 -1.161,13.463 0.598,3.272 1.161,4.413 3.25,6.037 2.089,1.624 8.822,6.963 8.822,6.963 -2.322,0.696 -9.75,5.107 -11.143,7.66 -1.393,2.554 -3.482,11.608 -3.715,20.198 -0.232,8.588 8.358,20.893 13.233,24.607 4.875,3.713 13.928,1.625 13.928,1.625 -2.089,6.731 1.161,11.142 6.268,14.161 5.108,3.017 13.696,2.553 22.285,2.089 8.59,-0.464 24.609,-5.108 32.965,-8.59 8.358,-3.483 16.715,-9.982 21.821,-13.929 5.106,-3.946 17.179,-3.017 20.893,-1.159 3.713,1.856 1.858,5.571 -0.464,7.195 -2.322,1.625 -10.214,5.34 -14.857,12.071 -4.644,6.732 -10.04,19.791 -10.91,25.014 -0.871,5.224 0.347,17.411 9.923,20.719 9.577,3.308 16.889,0.87 16.889,0.87 -4.352,2.09 -18.804,9.229 -18.804,9.229 -12.883,6.267 -11.103,44.12 -8.706,53.972 2.531,10.398 4.875,26.929 12.885,32.385 9.101,6.198 18.455,-2.438 18.455,-2.438 -5.92,6.616 -5.571,18.803 -2.786,21.589 2.786,2.786 7.661,11.492 16.019,21.938 8.356,10.446 28.205,25.767 42.83,31.687 14.625,5.92 25.071,0.697 25.071,0.697 -0.348,12.536 25.42,24.027 29.946,26.464 4.528,2.438 18.456,7.661 35.866,4.875 17.412,-2.786 20.198,-20.196 20.198,-20.196 0.347,9.053 4.526,22.634 13.58,30.294 9.054,7.661 26.464,9.402 39,10.099 12.536,0.696 57.804,5.571 73.474,5.571 15.668,0 60.937,-4.875 73.472,-5.571 12.536,-0.697 29.947,-2.438 39.001,-10.099 9.053,-7.66 13.232,-21.241 13.58,-30.294 0,0 2.785,17.41 20.197,20.196 17.411,2.786 31.339,-2.437 35.866,-4.875 4.526,-2.437 30.295,-13.928 29.946,-26.464 0,0 10.446,5.223 25.071,-0.697 14.625,-5.92 34.474,-21.241 42.831,-31.687 8.357,-10.446 13.232,-19.152 16.018,-21.938 2.786,-2.786 3.134,-14.973 -2.786,-21.589 0,0 9.354,8.636 18.456,2.438 8.009,-5.456 10.353,-21.987 12.884,-32.385 2.398,-9.852 4.178,-47.705 -8.706,-53.972 0,0 -14.451,-7.139 -18.803,-9.229 0,0 7.312,2.438 16.887,-0.87 9.577,-3.308 10.795,-15.495 9.925,-20.719 -0.871,-5.223 -6.266,-18.282 -10.91,-25.014 -4.644,-6.731 -12.536,-10.446 -14.858,-12.071 -2.321,-1.624 -4.177,-5.339 -0.463,-7.195 3.713,-1.858 15.786,-2.787 20.892,1.159 5.107,3.947 13.463,10.446 21.821,13.929 8.357,3.482 24.375,8.126 32.965,8.59 8.589,0.464 17.177,0.928 22.286,-2.089 5.107,-3.019 8.356,-7.43 6.267,-14.161 0,0 9.054,2.088 13.929,-1.625 4.875,-3.714 13.465,-16.019 13.232,-24.607 -0.233,-8.59 -2.322,-17.644 -3.714,-20.198 -1.394,-2.553 -8.822,-6.964 -11.144,-7.66 0,0 6.733,-5.339 8.822,-6.963 2.09,-1.624 2.652,-2.765 3.25,-6.037 0.627,-3.425 0.465,-9.054 -1.16,-13.463 -1.626,-4.41 -8.358,-15.321 -14.393,-17.18 -6.036,-1.855 -14.161,-2.786 -18.108,-4.179 -3.946,-1.392 -6.499,-4.41 -12.07,-6.034 -5.571,-1.627 -22.055,-2.554 -29.483,0.463 -7.428,3.02 -18.805,9.054 -19.037,19.5 -0.23,10.447 3.251,16.948 13.698,19.735 0,0 -4.413,-0.235 -22.751,10.212 -10.246,5.836 -28.089,8.084 -42.946,9.982 -11.733,1.499 -21.603,3.241 -24.375,3.482 -3.737,0.325 -7.197,0.233 -8.589,0 0,0 4.412,-27.625 -24.607,-39.464 0,0 -6.965,-18.569 -15.554,-10.677 0,0 6.035,-18.339 6.268,-39 0.232,-20.662 -2.091,-35.518 -3.019,-40.627 -0.927,-5.107 -10.446,-28.785 -22.982,-36.911 -12.535,-8.123 -12.303,-14.391 -17.178,-17.411 -4.875,-3.017 -29.716,-17.644 -43.411,-21.821 -3.345,-1.019 -6.049,-3.696 -9.054,-4.875 -9.299,-3.647 -17.045,-6.082 -19.5,-7.66 -3.25,-2.09 -5.802,-4.179 -8.589,-5.34 -2.785,-1.159 -5.107,-2.554 -19.732,-3.714 -14.625,-1.161 -32.499,-2.088 -35.285,-2.554 -2.786,-0.462 -9.983,-2.552 -16.02,0.696 -6.033,3.251 -13.928,9.288 -14.159,11.84 -0.231,2.554 0.231,8.822 -4.178,8.822"
       style="fill:#ffffff;fill-opacity:1;fill-rule:nonzero;stroke:none;stroke-width:0.1"
       id="path668" />
    <path
       d="m 938.708,568.455 c 8.705,5.223 7.66,11.839 7.66,11.839 -1.393,-4.527 -6.616,-8.008 -17.759,-14.625 -11.143,-6.616 -28.205,-3.482 -43.875,4.179 -15.67,7.66 -23.33,16.714 -1.045,19.848 22.286,3.134 29.25,12.884 29.25,12.884 -3.83,-3.482 -16.018,-5.572 -21.589,-6.964 -5.571,-1.393 -21.937,-4.527 -35.518,-5.92 -13.58,-1.393 -24.374,1.393 -30.643,1.741 -6.268,0.349 -26.116,-5.223 -28.901,-1.741 -3.541,4.427 3.482,12.884 12.187,22.286 8.705,9.401 26.464,25.073 26.464,25.073 -4.526,-2.089 -31.687,-17.761 -40.741,-35.868 -9.053,-18.107 -21.241,-20.893 -31.688,-14.973 -10.446,5.919 -7.312,20.893 -2.089,28.902 5.223,8.008 8.358,6.267 8.358,6.267 0.617,0.618 9.273,7.198 16.892,12.979 -10.137,2.142 -23.718,9.455 -35.557,17.638 -11.84,8.183 -27.161,21.067 -15.496,22.808 11.665,1.741 32.732,4.353 41.612,3.482 8.879,-0.871 17.759,-5.397 23.852,-9.924 6.094,-4.527 22.261,-10.72 28.281,-6.405 6.018,4.316 18.032,12.847 16.465,36.352 0,0 -0.697,2.96 -1.393,-3.656 -0.696,-6.617 -5.397,-24.724 -16.017,-25.943 -10.622,-1.218 -17.759,1.568 -36.215,17.411 -18.455,15.844 -16.171,20.865 -16.367,39.697 -0.173,16.888 2.38,24.259 4.005,31.222 1.625,6.965 6.966,25.538 7.894,28.09 0.928,2.554 3.48,8.589 3.017,10.91 -0.464,2.323 -5.107,8.59 -6.732,3.019 -1.626,-5.571 -6.501,-27.161 -9.75,-40.857 -3.25,-13.697 -11.374,-42.715 -22.054,-49.215 -10.678,-6.499 -25.535,-8.124 -43.178,0.232 -17.643,8.358 -36.449,17.644 -41.554,40.394 -5.107,22.749 -3.018,36.446 0.929,46.196 3.946,9.75 16.945,17.41 23.446,21.125 6.5,3.715 11.143,9.981 9.982,11.839 -1.16,1.857 -6.266,-2.785 -10.214,-5.571 -3.947,-2.787 -23.678,-12.537 -25.767,-13.464 -2.09,-0.929 -5.572,-3.714 -9.287,1.392 -3.714,5.108 -13.928,22.75 -20.197,32.268 -6.267,9.518 -17.641,15.09 -34.588,15.09 -16.947,0 -33.623,-0.233 -39.929,-0.233 -8.298,0 -17.51,1.83 -20.822,1.857 v 10e-4 c -0.012,0 -0.024,0 -0.035,0 -0.012,0 -0.025,0 -0.037,0 v -10e-4 c -3.311,-0.027 -12.523,-1.857 -20.821,-1.857 -6.307,0 -22.982,0.233 -39.93,0.233 -16.946,0 -28.321,-5.572 -34.588,-15.09 -6.268,-9.518 -16.482,-27.16 -20.197,-32.268 -3.715,-5.106 -7.197,-2.321 -9.286,-1.392 -2.09,0.927 -21.82,10.677 -25.767,13.464 -3.948,2.786 -9.054,7.428 -10.214,5.571 -1.162,-1.858 3.481,-8.124 9.982,-11.839 6.5,-3.715 19.5,-11.375 23.446,-21.125 3.946,-9.75 6.036,-23.447 0.929,-46.196 -5.106,-22.75 -23.911,-32.036 -41.555,-40.394 -17.643,-8.356 -32.5,-6.731 -43.178,-0.232 -10.679,6.5 -18.804,35.518 -22.053,49.215 -3.25,13.696 -8.125,35.286 -9.75,40.857 -1.626,5.571 -6.269,-0.696 -6.733,-3.019 -0.463,-2.321 2.09,-8.356 3.018,-10.91 0.928,-2.552 6.268,-21.125 7.893,-28.09 1.626,-6.963 4.178,-14.334 4.005,-31.222 -0.195,-18.832 2.088,-23.853 -16.367,-39.697 -18.455,-15.843 -25.593,-18.629 -36.214,-17.411 -10.621,1.219 -15.322,19.326 -16.018,25.943 -0.696,6.616 -1.393,3.656 -1.393,3.656 -1.567,-23.505 10.447,-32.036 16.466,-36.352 6.019,-4.315 22.187,1.878 28.28,6.405 6.094,4.527 14.973,9.053 23.853,9.924 8.879,0.871 29.946,-1.741 41.611,-3.482 11.665,-1.741 -3.656,-14.625 -15.495,-22.808 -11.84,-8.183 -25.42,-15.496 -35.557,-17.638 7.618,-5.781 16.274,-12.361 16.892,-12.979 0,0 3.134,1.741 8.358,-6.267 5.222,-8.009 8.356,-22.983 -2.09,-28.902 -10.447,-5.92 -22.634,-3.134 -31.688,14.973 -9.054,18.107 -36.214,33.779 -40.741,35.868 0,0 17.759,-15.672 26.465,-25.073 8.705,-9.402 15.727,-17.859 12.187,-22.286 -2.786,-3.482 -22.634,2.09 -28.902,1.741 -6.268,-0.348 -17.063,-3.134 -30.643,-1.741 -13.581,1.393 -29.946,4.527 -35.518,5.92 -5.571,1.392 -17.759,3.482 -21.589,6.964 0,0 6.964,-9.75 29.25,-12.884 22.286,-3.134 14.625,-12.188 -1.045,-19.848 -15.669,-7.661 -32.731,-10.795 -43.875,-4.179 -11.143,6.617 -16.366,10.098 -17.759,14.625 0,0 -1.045,-6.616 7.661,-11.839 8.705,-5.223 9.75,-11.491 11.143,-17.411 1.393,-5.92 2.089,-17.062 -3.83,-18.107 -5.92,-1.045 -10.099,-2.089 -10.099,-2.089 0,0 9.054,-0.697 12.884,-0.697 3.83,0 17.063,-7.313 23.679,-10.098 0,0 -19.152,9.402 -18.455,16.714 0.696,7.313 0.605,12.226 10.097,14.277 12.885,2.786 25.102,8.861 39,13.929 13.965,5.091 32.385,10.098 45.269,11.839 12.884,1.741 34.125,-1.393 42.018,-13.348 8.59,0 26.031,4.006 38.073,8.179 7.765,6.728 17.945,13.005 25.999,15.964 6.686,2.456 12.811,4.192 17.669,5.25 3.405,0.743 6.185,1.153 8.098,1.249 0,0 7.661,5.34 34.589,6.964 26.929,1.627 40.395,0.466 51.769,3.482 11.374,3.02 31.34,6.037 37.375,10.912 9.982,12.304 27.16,9.982 33.429,9.982 6.267,0 23.445,2.322 33.428,-9.982 6.035,-4.875 26,-7.892 37.374,-10.912 11.374,-3.016 24.841,-1.855 51.769,-3.482 26.929,-1.624 34.589,-6.964 34.589,-6.964 1.914,-0.096 4.694,-0.506 8.098,-1.249 4.858,-1.058 10.983,-2.794 17.669,-5.25 8.055,-2.959 18.235,-9.236 26,-15.964 12.042,-4.173 29.483,-8.179 38.073,-8.179 7.893,11.955 29.133,15.089 42.018,13.348 12.884,-1.741 31.304,-6.748 45.268,-11.839 13.898,-5.068 26.116,-11.143 39,-13.929 9.493,-2.051 9.401,-6.964 10.098,-14.277 0.696,-7.312 -18.456,-16.714 -18.456,-16.714 6.616,2.785 19.849,10.098 23.679,10.098 3.831,0 12.884,0.697 12.884,0.697 0,0 -4.178,1.044 -10.098,2.089 -5.92,1.045 -5.224,12.187 -3.83,18.107 1.393,5.92 2.437,12.188 11.143,17.411 z M 557.877,647.5 c -0.465,-6.268 -7.339,-13.149 -9.198,-14.31 -1.856,-1.16 -6.82,-1.94 -8.677,-1.94 -1.859,0 -6.822,0.78 -8.679,1.94 -1.858,1.161 -8.733,8.042 -9.197,14.31 -0.464,6.268 14.624,9.75 17.876,9.75 3.25,0 18.339,-3.482 17.875,-9.75 z m 88.33,52.581 c -8.705,-2.09 -37.608,-12.884 -40.393,-14.625 -2.786,-1.742 -26.116,-13.929 -36.562,-17.412 -8.778,-2.925 -21.764,-3.133 -29.25,-3.133 -7.488,0 -20.473,0.208 -29.251,3.133 -10.447,3.483 -33.777,15.67 -36.562,17.412 -2.786,1.741 -31.688,12.535 -40.394,14.625 -8.705,2.088 -12.883,7.312 -11.838,16.713 1.043,9.403 7.66,47.009 7.66,55.367 0,2.815 -1.92,6.671 -1.741,10.968 0.348,8.358 0.14,16.977 1.044,20.371 1.393,5.223 11.144,23.679 14.278,28.554 3.134,4.875 6.964,10.446 17.062,13.58 10.098,3.134 45.094,3.83 79.742,3.83 34.647,0 69.642,-0.696 79.741,-3.83 10.097,-3.134 13.928,-8.705 17.062,-13.58 3.134,-4.875 12.884,-23.331 14.277,-28.554 0.904,-3.394 0.696,-12.013 1.044,-20.371 0.18,-4.297 -1.741,-8.153 -1.741,-10.968 0,-8.358 6.617,-45.964 7.661,-55.367 1.044,-9.401 -3.133,-14.625 -11.839,-16.713"
       style="fill:#b2b1b1;fill-opacity:1;fill-rule:nonzero;stroke:none;stroke-width:0.1"
       id="path670" />
    <path
       d="m 949.154,591.786 c -4.527,1.044 -8.705,-5.224 -17.411,-14.974 -8.705,-9.75 -22.634,-8.009 -29.947,-6.964 -7.312,1.044 -20.196,6.268 -19.847,10.794 0.347,4.527 20.544,8.01 25.071,9.054 4.526,1.045 16.018,9.75 18.804,13.928 2.785,4.179 -2.438,6.965 -4.179,8.009 -1.741,1.045 -7.313,0.698 -15.321,-2.089 -8.01,-2.786 -27.51,-10.446 -37.26,-12.883 -9.75,-2.438 -26.812,-1.742 -33.776,-1.045 -6.965,0.696 -15.322,-0.697 -22.286,-0.697 -6.964,0 -6.617,5.572 -2.438,10.795 4.179,5.223 11.84,8.009 23.331,14.625 11.49,6.617 18.803,14.277 21.241,25.768 2.438,11.491 -11.491,10.099 -17.063,7.661 -5.571,-2.437 -19.848,-11.84 -25.768,-16.713 -5.92,-4.874 -15.67,-12.886 -20.545,-16.019 -4.875,-3.134 -4.128,-8.418 -5.571,-20.197 -1.545,-12.615 -12.535,-13.928 -19.151,-10.795 -6.617,3.134 -5.398,16.192 -2.438,21.242 1.813,3.092 6.616,8.357 4.179,10.097 0,0 -3.135,1.741 -8.358,-6.267 -5.223,-8.009 -8.357,-22.983 2.089,-28.902 10.447,-5.92 22.635,-3.134 31.688,14.973 9.054,18.107 36.215,33.779 40.741,35.868 0,0 -17.759,-15.672 -26.464,-25.073 -8.705,-9.402 -15.728,-17.859 -12.187,-22.286 2.785,-3.482 22.633,2.09 28.901,1.741 6.269,-0.348 17.063,-3.134 30.643,-1.741 13.581,1.393 29.947,4.527 35.518,5.92 5.571,1.392 17.759,3.482 21.589,6.964 0,0 -6.964,-9.75 -29.25,-12.884 -22.285,-3.134 -14.625,-12.188 1.045,-19.848 15.67,-7.661 32.732,-10.795 43.875,-4.179 11.143,6.617 16.366,10.098 17.759,14.625 0,0 1.045,-6.616 -7.66,-11.839 -8.706,-5.223 -9.75,-11.491 -11.143,-17.411 -1.394,-5.92 -2.09,-17.062 3.83,-18.107 5.92,-1.045 10.098,-2.089 10.098,-2.089 0,0 -9.053,-0.697 -12.884,-0.697 -3.83,0 -17.063,-7.313 -23.679,-10.098 0,0 19.152,9.402 18.456,16.714 -0.697,7.313 -0.605,12.226 -10.098,14.277 -12.884,2.786 -25.102,8.861 -39,13.929 -13.964,5.091 -32.384,10.098 -45.268,11.839 -12.885,1.741 -34.125,-1.393 -42.018,-13.348 1.26,0.211 4.22,0.305 7.543,0.08 12.186,13.89 53.975,2.125 74.868,-4.839 20.892,-6.964 28.901,-8.357 41.089,-13.232 12.187,-4.875 2.786,-9.402 -2.089,-11.143 -4.875,-1.742 -20.545,-4.179 -22.634,-9.054 -3.775,-8.806 13.58,-14.625 26.464,-13.58 12.884,1.045 9.053,5.92 18.456,6.616 9.401,0.696 18.106,5.571 20.544,12.536 2.437,6.964 -0.697,12.884 -3.83,14.276 -3.134,1.393 -11.143,2.787 -11.492,7.662 -0.347,4.875 8.358,8.008 14.625,10.446 6.269,2.437 9.403,7.66 9.75,14.276 0.513,9.742 -6.616,13.233 -11.142,14.278"
       style="fill:#d3d2d2;fill-opacity:1;fill-rule:nonzero;stroke:none;stroke-width:0.1"
       id="path672" />
    <path
       d="m 828.368,661.968 c -12.764,-6.961 -28.103,-16.425 -31.384,-18.995 -1.277,-1.001 -6.046,-4.615 -11.313,-8.611 -10.137,2.142 -23.718,9.455 -35.557,17.638 -11.84,8.183 -27.161,21.067 -15.496,22.808 11.665,1.741 32.732,4.353 41.612,3.482 8.879,-0.871 17.759,-5.397 23.852,-9.924 6.094,-4.527 22.267,-10.713 28.286,-6.398"
       style="fill:#d3d2d2;fill-opacity:1;fill-rule:nonzero;stroke:none;stroke-width:0.1"
       id="path674" />
    <path
       d="m 542.477,353.753 c 0.775,2.873 3.792,6.352 7.506,6.586 3.716,0.232 31.806,-1.858 39.697,-4.875 7.893,-3.016 12.536,-5.571 15.322,-8.822 2.786,-3.248 8.588,-6.733 4.642,-10.678"
       style="fill:none;stroke:#231f20;stroke-width:0.5;stroke-linecap:butt;stroke-linejoin:miter;stroke-miterlimit:4;stroke-dasharray:none;stroke-opacity:1"
       id="path676" />
    <path
       d="m 544.656,357.553 c -1.173,3.251 -2.566,18.804 0.22,20.197 2.786,1.393 9.054,0.462 13.001,-0.696 3.945,-1.162 17.178,-7.43 21.125,-9.75 3.945,-2.321 8.358,-4.178 10.678,-11.84"
       style="fill:none;stroke:#231f20;stroke-width:0.5;stroke-linecap:butt;stroke-linejoin:miter;stroke-miterlimit:4;stroke-dasharray:none;stroke-opacity:1"
       id="path678" />
    <path
       d="m 692.752,424.411 c -2.554,2.089 -13.463,9.053 -25.768,8.357 -12.305,-0.696 -25.304,-3.02 -35.054,-16.714 -9.75,-13.697 -10.912,-28.785 -8.59,-36.68 2.322,-7.892 7.43,-11.608 13.698,-14.16 6.267,-2.554 19.268,-2.088 28.553,1.162 9.285,3.248 32.269,15.784 39.697,22.517"
       style="fill:none;stroke:#231f20;stroke-width:0.25;stroke-linecap:butt;stroke-linejoin:miter;stroke-miterlimit:4;stroke-dasharray:none;stroke-opacity:1"
       id="path680" />
    <path
       d="m 712.715,408.393 c -3.945,0.928 -7.892,-2.323 -9.75,-8.357 -1.856,-6.036 0.466,-9.054 2.323,-11.143 1.856,-2.089 10.214,-2.32 13.232,8.822"
       style="fill:none;stroke:#231f20;stroke-width:0.5;stroke-linecap:butt;stroke-linejoin:miter;stroke-miterlimit:4;stroke-dasharray:none;stroke-opacity:1"
       id="path682" />
    <path
       d="m 665.239,357.075 c 0.12,3.729 2.673,4.888 5.459,6.051 2.785,1.161 33.614,19.646 38.512,24.679"
       style="fill:none;stroke:#231f20;stroke-width:0.5;stroke-linecap:butt;stroke-linejoin:miter;stroke-miterlimit:4;stroke-dasharray:none;stroke-opacity:1"
       id="path684" />
    <path
       d="m 746.841,513.323 c -1.161,5.106 -4.177,12.766 -9.517,22.516 -5.341,9.75 -18.967,23.118 -24.609,25.071 -6.035,2.09 -16.313,2.668 -19.963,-3.946 -3.65,-6.614 0.929,-15.784 4.874,-18.57 3.947,-2.785 13.929,-8.126 18.108,-14.394 4.179,-6.267 13.464,-19.731 17.179,-25.302 3.714,-5.572 11.374,-23.448 12.999,-33.663 1.626,-10.212 5.66,-15.101 4.687,-28.327"
       style="fill:none;stroke:#231f20;stroke-width:0.5;stroke-linecap:butt;stroke-linejoin:miter;stroke-miterlimit:4;stroke-dasharray:none;stroke-opacity:1"
       id="path686" />
    <path
       d="m 713.901,526.321 c -3.275,1.627 -9.774,3.019 -14.881,2.323 -5.107,-0.696 -8.822,-1.624 -7.43,-4.875 1.393,-3.251 9.055,-17.18 11.609,-21.127 2.553,-3.944 8.123,-11.605 12.07,-16.018 3.947,-4.41 9.983,-16.248 12.769,-24.837 2.785,-8.591 2.32,-26.699 -0.234,-33.198 -2.552,-6.499 -7.428,-13.697 -10.213,-15.321 -2.786,-1.624 -5.339,-4.179 -4.178,-7.195 1.16,-3.02 3.71,-11.837 12.998,-9.75"
       style="fill:none;stroke:#231f20;stroke-width:0.5;stroke-linecap:butt;stroke-linejoin:miter;stroke-miterlimit:4;stroke-dasharray:none;stroke-opacity:1"
       id="path688" />
    <path
       d="m 713.303,560.677 c -1.412,0.499 -0.354,2.091 1.038,1.395 1.393,-0.697 14.625,-5.806 18.804,-8.822 4.179,-3.016 5.571,-5.571 6.035,-8.357 0.464,-2.785 2.555,-6.964 -1.856,-9.054"
       style="fill:none;stroke:#231f20;stroke-width:0.5;stroke-linecap:butt;stroke-linejoin:miter;stroke-miterlimit:4;stroke-dasharray:none;stroke-opacity:1"
       id="path690" />
    <path
       d="m 648.175,519.368 c -2.316,-1.17 -3.942,-2.566 -4.638,-3.725 0,0 11.142,-0.465 12.768,-0.465 1.625,0 6.014,-0.729 6.388,2.302 -4.046,0.808 -9.049,2.034 -11.727,1.877 -0.63,0.032 -1.59,0.032 -2.791,0.011 z"
       style="fill:none;stroke:#231f20;stroke-width:0.5;stroke-linecap:butt;stroke-linejoin:miter;stroke-miterlimit:4;stroke-dasharray:none;stroke-opacity:1"
       id="path692" />
    <path
       d="m 752.064,835.536 c -1.045,-21.242 -4.882,-27.412 -7.312,-35.17 -2.657,-8.477 -12.866,-30.864 -19.848,-33.603 -8.88,-3.481 -24.201,-13.754 -25.072,-30.991"
       style="fill:none;stroke:#231f20;stroke-width:0.5;stroke-linecap:butt;stroke-linejoin:miter;stroke-miterlimit:4;stroke-dasharray:none;stroke-opacity:1"
       id="path694" />
    <path
       d="m 833.198,759.625 c -6.497,-10.496 -6.351,-14.102 -12.362,-25.246 -6.024,-11.169 -6.963,-16.192 -14.798,-20.196"
       style="fill:none;stroke:#231f20;stroke-width:0.5;stroke-linecap:butt;stroke-linejoin:miter;stroke-miterlimit:4;stroke-dasharray:none;stroke-opacity:1"
       id="path696" />
    <path
       d="m 941.841,608.036 c -11.491,-11.724 -20.545,-22.519 -31.339,-28.09 -10.794,-5.572 -16.018,-0.696 -16.018,-0.696"
       style="fill:none;stroke:#231f20;stroke-width:0.5;stroke-linecap:butt;stroke-linejoin:miter;stroke-miterlimit:4;stroke-dasharray:none;stroke-opacity:1"
       id="path698" />
    <path
       d="m 954.144,553.946 c -2.785,0 -8.473,-0.813 -8.473,-0.813"
       style="fill:none;stroke:#231f20;stroke-width:0.5;stroke-linecap:butt;stroke-linejoin:miter;stroke-miterlimit:4;stroke-dasharray:none;stroke-opacity:1"
       id="path700" />
    <path
       d="m 885.663,539.788 c 5.339,0.114 14.741,-0.931 14.741,-0.931"
       style="fill:none;stroke:#231f20;stroke-width:0.5;stroke-linecap:butt;stroke-linejoin:miter;stroke-miterlimit:4;stroke-dasharray:none;stroke-opacity:1"
       id="path702" />
    <path
       d="m 666.055,846.679 c 0,-1.219 -0.348,-3.831 -0.522,-5.223"
       style="fill:none;stroke:#231f20;stroke-width:0.5;stroke-linecap:butt;stroke-linejoin:miter;stroke-miterlimit:4;stroke-dasharray:none;stroke-opacity:1"
       id="path704" />
    <path
       d="m 762.395,524 c 29.019,11.839 24.607,39.464 24.607,39.464 -8.59,0 -26.031,4.006 -38.073,8.179 3.201,-2.774 6.16,-5.767 8.126,-8.411 6.733,-9.054 9.287,-25.769 5.34,-39.232"
       style="fill:#706d6e;fill-opacity:1;fill-rule:nonzero;stroke:none;stroke-width:0.1"
       id="path706" />
    <path
       d="m 762.395,524 c 29.019,11.839 24.607,39.464 24.607,39.464 -8.59,0 -26.031,4.006 -38.073,8.179 3.201,-2.774 6.16,-5.767 8.126,-8.411 6.733,-9.054 9.287,-25.769 5.34,-39.232 z"
       style="fill:none;stroke:#231f20;stroke-width:0.75;stroke-linecap:round;stroke-linejoin:round;stroke-miterlimit:4;stroke-dasharray:none;stroke-opacity:1"
       id="path708" />
    <path
       d="m 130.848,591.786 c 4.528,1.044 8.706,-5.224 17.411,-14.974 8.705,-9.75 22.634,-8.009 29.947,-6.964 7.312,1.044 20.196,6.268 19.848,10.794 -0.348,4.527 -20.545,8.01 -25.071,9.054 -4.527,1.045 -16.019,9.75 -18.804,13.928 -2.786,4.179 2.438,6.965 4.179,8.009 1.741,1.045 7.312,0.698 15.321,-2.089 8.009,-2.786 27.509,-10.446 37.259,-12.883 9.75,-2.438 26.812,-1.742 33.777,-1.045 6.964,0.696 15.322,-0.697 22.285,-0.697 6.965,0 6.617,5.572 2.438,10.795 -4.179,5.223 -11.839,8.009 -23.33,14.625 -11.491,6.617 -18.804,14.277 -21.241,25.768 -2.438,11.491 11.491,10.099 17.062,7.661 5.571,-2.437 19.849,-11.84 25.768,-16.713 5.92,-4.874 15.67,-12.886 20.545,-16.019 4.875,-3.134 4.128,-8.418 5.571,-20.197 1.545,-12.615 12.536,-13.928 19.152,-10.795 6.617,3.134 5.398,16.192 2.438,21.242 -1.814,3.092 -6.616,8.357 -4.179,10.097 0,0 3.134,1.741 8.358,-6.267 5.222,-8.009 8.356,-22.983 -2.09,-28.902 -10.447,-5.92 -22.634,-3.134 -31.688,14.973 -9.054,18.107 -36.214,33.779 -40.741,35.868 0,0 17.759,-15.672 26.465,-25.073 8.705,-9.402 15.727,-17.859 12.187,-22.286 -2.786,-3.482 -22.634,2.09 -28.902,1.741 -6.268,-0.348 -17.063,-3.134 -30.643,-1.741 -13.581,1.393 -29.946,4.527 -35.518,5.92 -5.571,1.392 -17.759,3.482 -21.589,6.964 0,0 6.964,-9.75 29.25,-12.884 22.286,-3.134 14.625,-12.188 -1.045,-19.848 -15.669,-7.661 -32.731,-10.795 -43.875,-4.179 -11.143,6.617 -16.366,10.098 -17.759,14.625 0,0 -1.045,-6.616 7.661,-11.839 8.705,-5.223 9.75,-11.491 11.143,-17.411 1.393,-5.92 2.089,-17.062 -3.83,-18.107 -5.92,-1.045 -10.099,-2.089 -10.099,-2.089 0,0 9.054,-0.697 12.884,-0.697 3.83,0 17.063,-7.313 23.679,-10.098 0,0 -19.152,9.402 -18.455,16.714 0.696,7.313 0.605,12.226 10.097,14.277 12.885,2.786 25.102,8.861 39,13.929 13.965,5.091 32.385,10.098 45.269,11.839 12.884,1.741 34.125,-1.393 42.018,-13.348 -1.261,0.211 -4.22,0.305 -7.543,0.08 -12.187,13.89 -53.975,2.125 -74.869,-4.839 -20.892,-6.964 -28.901,-8.357 -41.089,-13.232 -12.187,-4.875 -2.786,-9.402 2.089,-11.143 4.875,-1.742 20.545,-4.179 22.635,-9.054 3.775,-8.806 -13.581,-14.625 -26.465,-13.58 -12.883,1.045 -9.053,5.92 -18.455,6.616 -9.402,0.696 -18.107,5.571 -20.545,12.536 -2.437,6.964 0.697,12.884 3.83,14.276 3.134,1.393 11.144,2.787 11.492,7.662 0.348,4.875 -8.358,8.008 -14.625,10.446 -6.268,2.437 -9.402,7.66 -9.75,14.276 -0.513,9.742 6.616,13.233 11.142,14.278"
       style="fill:#d3d2d2;fill-opacity:1;fill-rule:nonzero;stroke:none;stroke-width:0.1"
       id="path710" />
    <path
       d="m 251.634,661.968 c 12.765,-6.961 28.104,-16.425 31.384,-18.995 1.277,-1.001 6.047,-4.615 11.314,-8.611 10.137,2.142 23.717,9.455 35.557,17.638 11.839,8.183 27.16,21.067 15.495,22.808 -11.665,1.741 -32.732,4.353 -41.611,3.482 -8.88,-0.871 -17.759,-5.397 -23.853,-9.924 -6.093,-4.527 -22.267,-10.713 -28.286,-6.398"
       style="fill:#d3d2d2;fill-opacity:1;fill-rule:nonzero;stroke:none;stroke-width:0.1"
       id="path712" />
    <path
       d="m 855.02,719 c -0.696,13.232 -2.089,23.679 -6.268,24.143 -4.178,0.464 -6.964,-7.196 -8.822,-18.107 -1.858,-10.912 -4.642,-27.625 -12.304,-35.983 -7.66,-8.356 -21.356,-3.017 -30.41,1.625 -9.053,4.644 -14.393,5.572 -18.34,22.054 -3.945,16.482 4.179,24.839 10.911,34.357 6.732,9.518 10.679,16.25 12.304,25.304 1.626,9.053 8.125,9.982 11.84,13.465 3.714,3.481 -5.341,12.535 -6.965,14.856 -1.624,2.322 -6.267,6.733 -10.911,9.983 -4.644,3.249 -9.517,7.428 -17.411,11.839 -7.894,4.41 -10.678,-1.161 -11.839,-4.643 -1.223,-3.664 -0.697,-9.286 -1.857,-20.893 -1.16,-11.606 -4.179,-25.768 -6.732,-36.911 -2.552,-11.142 -8.357,-19.5 -16.017,-20.196 -7.661,-0.696 -7.894,-4.643 -9.75,-9.054 -1.858,-4.41 -3.251,-10.911 -15.322,-12.535 -12.071,-1.625 -27.393,8.124 -33.428,18.803 -6.036,10.68 -8.59,19.267 -9.054,30.411 -0.464,11.143 2.553,18.803 9.981,26 7.428,7.197 16.018,8.821 24.608,13.929 8.59,5.107 15.089,12.536 19.268,16.481 4.177,3.946 5.339,13.929 1.161,16.251 -6.475,3.598 -21.823,10.678 -29.019,12.999 -7.197,2.322 -15.785,-2.785 -13.696,-12.999 2.09,-10.214 -3.135,-13.689 -7.428,-16.715 -4.379,-3.085 -11.144,-6.5 -17.644,-5.107 -6.5,1.393 -12.972,13.491 -15.321,18.804 -2.05,4.636 -6.225,19.346 -9.286,25.536 -2.655,5.37 -19.267,8.125 -29.946,9.981 -10.68,1.858 -30.411,3.715 -37.375,3.947 -6.965,0.232 -23.214,-0.348 -29.946,-0.348 -6.733,0 -22.983,0.58 -29.947,0.348 -6.965,-0.232 -26.696,-2.089 -37.375,-3.947 -10.679,-1.856 -27.291,-4.611 -29.946,-9.981 -3.061,-6.19 -7.236,-20.9 -9.286,-25.536 -2.35,-5.313 -8.822,-17.411 -15.322,-18.804 -6.5,-1.393 -13.265,2.022 -17.643,5.107 -4.293,3.026 -9.518,6.501 -7.429,16.715 2.09,10.214 -6.499,15.321 -13.695,12.999 -7.197,-2.321 -22.545,-9.401 -29.02,-12.999 -4.178,-2.322 -3.016,-12.305 1.162,-16.251 4.179,-3.945 10.678,-11.374 19.268,-16.481 8.59,-5.108 17.179,-6.732 24.607,-13.929 7.428,-7.197 10.446,-14.857 9.982,-26 -0.464,-11.144 -3.019,-19.731 -9.054,-30.411 -6.035,-10.679 -21.358,-20.428 -33.428,-18.803 -12.071,1.624 -13.465,8.125 -15.322,12.535 -1.857,4.411 -2.09,8.358 -9.75,9.054 -7.661,0.696 -13.465,9.054 -16.018,20.196 -2.553,11.143 -5.572,25.305 -6.732,36.911 -1.16,11.607 -0.634,17.229 -1.856,20.893 -1.162,3.482 -3.947,9.053 -11.84,4.643 -7.893,-4.411 -12.767,-8.59 -17.41,-11.839 -4.644,-3.25 -9.288,-7.661 -10.912,-9.983 -1.624,-2.321 -10.679,-11.375 -6.964,-14.856 3.715,-3.483 10.214,-4.412 11.839,-13.465 1.626,-9.054 5.573,-15.786 12.304,-25.304 6.732,-9.518 14.857,-17.875 10.911,-34.357 -3.946,-16.482 -9.287,-17.41 -18.34,-22.054 -9.054,-4.642 -22.749,-9.981 -30.41,-1.625 -7.661,8.358 -10.446,25.071 -12.303,35.983 -1.859,10.911 -4.645,18.571 -8.823,18.107 -4.178,-0.464 -5.572,-10.911 -6.268,-24.143 -0.696,-13.232 -0.464,-36.214 17.992,-52.523 2.591,-1.261 5.547,-2.807 8.654,-4.501 -6.018,4.316 -18.032,12.847 -16.464,36.351 0,0 0.696,2.96 1.392,-3.657 0.696,-6.616 5.398,-24.722 16.018,-25.941 10.621,-1.219 17.76,1.566 36.215,17.41 18.455,15.844 16.171,20.865 16.366,39.696 0.174,16.889 -2.379,24.259 -4.005,31.224 -1.625,6.964 -6.966,25.536 -7.893,28.09 -0.927,2.553 -3.481,8.588 -3.017,10.91 0.464,2.322 5.106,8.59 6.731,3.019 1.626,-5.572 6.501,-27.162 9.75,-40.858 3.25,-13.697 11.375,-42.715 22.054,-49.215 10.679,-6.5 25.535,-8.125 43.179,0.233 17.643,8.357 36.448,17.643 41.554,40.392 5.106,22.75 3.017,36.447 -0.929,46.197 -3.946,9.751 -16.946,17.41 -23.446,21.125 -6.501,3.714 -11.143,9.982 -9.983,11.84 1.161,1.857 6.266,-2.787 10.214,-5.572 3.948,-2.786 23.678,-12.536 25.768,-13.465 2.089,-0.927 5.572,-3.713 9.286,1.394 3.715,5.106 13.929,22.749 20.197,32.267 6.267,9.518 17.641,15.089 34.589,15.089 16.947,0 33.623,-0.231 39.928,-0.231 8.337,0 17.598,1.848 20.87,1.856 3.271,-0.008 12.531,-1.856 20.868,-1.856 6.305,0 22.982,0.231 39.928,0.231 16.948,0 28.322,-5.571 34.589,-15.089 6.269,-9.518 16.483,-27.161 20.197,-32.267 3.714,-5.107 7.197,-2.321 9.287,-1.394 2.089,0.929 21.82,10.679 25.767,13.465 3.947,2.785 9.054,7.429 10.214,5.572 1.16,-1.858 -3.482,-8.126 -9.982,-11.84 -6.501,-3.715 -19.5,-11.374 -23.447,-21.125 -3.946,-9.75 -6.035,-23.447 -0.928,-46.197 5.106,-22.749 23.911,-32.035 41.554,-40.392 17.643,-8.358 32.499,-6.733 43.179,-0.233 10.679,6.5 18.803,35.518 22.053,49.215 3.25,13.696 8.125,35.286 9.75,40.858 1.625,5.571 6.267,-0.697 6.731,-3.019 0.464,-2.322 -2.089,-8.357 -3.016,-10.91 -0.928,-2.554 -6.268,-21.126 -7.894,-28.09 -1.625,-6.965 -4.179,-14.335 -4.004,-31.224 0.194,-18.831 -2.09,-23.852 16.365,-39.696 18.456,-15.844 25.594,-18.629 36.215,-17.41 10.62,1.219 15.322,19.325 16.018,25.941 0.696,6.617 1.393,3.657 1.393,3.657 1.567,-23.504 -10.447,-32.035 -16.465,-36.351 3.108,1.694 6.063,3.24 8.655,4.501 18.455,16.309 18.687,39.291 17.991,52.523"
       style="fill:#d3d2d2;fill-opacity:1;fill-rule:nonzero;stroke:none;stroke-width:0.1"
       id="path714" />
    <path
       d="m 658.046,716.794 c -1.044,9.403 -7.661,47.009 -7.661,55.367 0,2.815 1.921,6.671 1.741,10.968 -0.348,8.358 -0.14,16.977 -1.044,20.371 -1.393,5.223 -11.143,23.679 -14.277,28.554 -3.134,4.875 -6.965,10.446 -17.062,13.58 -10.099,3.134 -45.094,3.83 -79.741,3.83 -34.648,0 -69.644,-0.696 -79.742,-3.83 -10.098,-3.134 -13.928,-8.705 -17.062,-13.58 -3.134,-4.875 -12.885,-23.331 -14.278,-28.554 -0.904,-3.394 -0.696,-12.013 -1.044,-20.371 -0.179,-4.297 1.741,-8.153 1.741,-10.968 0,-8.358 -6.617,-45.964 -7.66,-55.367 -1.045,-9.401 3.133,-14.625 11.838,-16.713 8.706,-2.09 37.608,-12.884 40.394,-14.625 2.785,-1.742 26.115,-13.929 36.562,-17.412 8.778,-2.925 21.763,-3.133 29.251,-3.133 7.486,0 20.472,0.208 29.25,3.133 10.446,3.483 33.776,15.67 36.562,17.412 2.785,1.741 31.688,12.535 40.393,14.625 8.706,2.088 12.883,7.312 11.839,16.713 z m -24.027,53.278 c 2.767,-10.649 7.486,-24.375 -6.035,-33.608 -7.676,-5.241 -9.625,-10.567 -9.286,-12.008 0.696,-2.96 8.705,1.044 12.187,-1.045 2.569,-1.541 6.964,-8.009 2.089,-16.367 -4.875,-8.357 -14.392,-16.346 -23.678,-11.142 -11.044,6.188 -11.025,5.265 -14.451,0.696 -3.656,-4.875 -12.71,-21.241 -54.843,-21.241 -42.135,0 -51.188,16.366 -54.844,21.241 -3.427,4.569 -3.407,5.492 -14.451,-0.696 -9.287,-5.204 -18.804,2.785 -23.679,11.142 -4.875,8.358 -0.479,14.826 2.089,16.367 3.482,2.089 11.491,-1.915 12.187,1.045 0.339,1.441 -1.61,6.767 -9.286,12.008 -13.521,9.233 -8.802,22.959 -6.035,33.608 3.676,14.143 1.716,17.4 -2.089,26.812 -3.309,8.183 1.175,18.906 9.75,29.25 10.969,13.233 26.433,8.183 37.259,5.92 14.438,-3.019 20.022,-10.098 49.099,-10.098 29.075,0 34.659,7.079 49.097,10.098 10.826,2.263 26.291,7.313 37.26,-5.92 8.574,-10.344 13.057,-21.067 9.75,-29.25 -3.805,-9.412 -5.765,-12.669 -2.09,-26.812"
       style="fill:#d3d2d2;fill-opacity:1;fill-rule:nonzero;stroke:none;stroke-width:0.1"
       id="path716" />
    <path
       d="m 537.526,353.753 c -0.776,2.873 -3.792,6.352 -7.507,6.586 -3.715,0.232 -31.805,-1.858 -39.697,-4.875 -7.892,-3.016 -12.535,-5.571 -15.322,-8.822 -2.785,-3.248 -8.587,-6.733 -4.642,-10.678"
       style="fill:none;stroke:#231f20;stroke-width:0.5;stroke-linecap:butt;stroke-linejoin:miter;stroke-miterlimit:4;stroke-dasharray:none;stroke-opacity:1"
       id="path718" />
    <path
       d="m 535.346,357.553 c 1.173,3.251 2.566,18.804 -0.22,20.197 -2.786,1.393 -9.054,0.462 -13,-0.696 -3.946,-1.162 -17.179,-7.43 -21.125,-9.75 -3.946,-2.321 -8.358,-4.178 -10.679,-11.84"
       style="fill:none;stroke:#231f20;stroke-width:0.5;stroke-linecap:butt;stroke-linejoin:miter;stroke-miterlimit:4;stroke-dasharray:none;stroke-opacity:1"
       id="path720" />
    <path
       d="m 540.002,346.411 c -5.34,0 -4.179,8.357 0,8.357 4.178,0 5.339,-8.357 0,-8.357"
       style="fill:#ffffff;fill-opacity:1;fill-rule:nonzero;stroke:none;stroke-width:0.1"
       id="path722" />
    <path
       d="m 540.002,346.411 c -5.34,0 -4.179,8.357 0,8.357 4.178,0 5.339,-8.357 0,-8.357 z"
       style="fill:none;stroke:#231f20;stroke-width:0.5;stroke-linecap:round;stroke-linejoin:round;stroke-miterlimit:4;stroke-dasharray:none;stroke-opacity:1"
       id="path724" />
    <path
       d="m 387.25,424.411 c 2.555,2.089 13.463,9.053 25.768,8.357 12.305,-0.696 25.305,-3.02 35.055,-16.714 9.75,-13.697 10.911,-28.785 8.59,-36.68 -2.323,-7.892 -7.43,-11.608 -13.699,-14.16 -6.267,-2.554 -19.268,-2.088 -28.552,1.162 -9.286,3.248 -32.269,15.784 -39.698,22.517"
       style="fill:none;stroke:#231f20;stroke-width:0.25;stroke-linecap:butt;stroke-linejoin:miter;stroke-miterlimit:4;stroke-dasharray:none;stroke-opacity:1"
       id="path726" />
    <path
       d="m 367.287,408.393 c 3.946,0.928 7.893,-2.323 9.75,-8.357 1.856,-6.036 -0.465,-9.054 -2.323,-11.143 -1.856,-2.089 -10.214,-2.32 -13.231,8.822"
       style="fill:none;stroke:#231f20;stroke-width:0.5;stroke-linecap:butt;stroke-linejoin:miter;stroke-miterlimit:4;stroke-dasharray:none;stroke-opacity:1"
       id="path728" />
    <path
       d="m 414.763,357.075 c -0.119,3.729 -2.673,4.888 -5.458,6.051 -2.786,1.161 -33.615,19.646 -38.513,24.679"
       style="fill:none;stroke:#231f20;stroke-width:0.5;stroke-linecap:butt;stroke-linejoin:miter;stroke-miterlimit:4;stroke-dasharray:none;stroke-opacity:1"
       id="path730" />
    <path
       d="m 333.162,513.323 c 1.16,5.106 4.176,12.766 9.517,22.516 5.34,9.75 18.967,23.118 24.608,25.071 6.035,2.09 16.314,2.668 19.963,-3.946 3.65,-6.614 -0.928,-15.784 -4.874,-18.57 -3.947,-2.785 -13.929,-8.126 -18.108,-14.394 -4.179,-6.267 -13.463,-19.731 -17.178,-25.302 -3.714,-5.572 -11.374,-23.448 -13,-33.663 -1.625,-10.212 -5.66,-15.101 -4.687,-28.327"
       style="fill:none;stroke:#231f20;stroke-width:0.5;stroke-linecap:butt;stroke-linejoin:miter;stroke-miterlimit:4;stroke-dasharray:none;stroke-opacity:1"
       id="path732" />
    <path
       d="m 366.102,526.321 c 3.274,1.627 9.773,3.019 14.881,2.323 5.107,-0.696 8.822,-1.624 7.429,-4.875 -1.393,-3.251 -9.055,-17.18 -11.608,-21.127 -2.554,-3.944 -8.123,-11.605 -12.07,-16.018 -3.948,-4.41 -9.984,-16.248 -12.769,-24.837 -2.786,-8.591 -2.32,-26.699 0.233,-33.198 2.552,-6.499 7.428,-13.697 10.214,-15.321 2.785,-1.624 5.338,-4.179 4.178,-7.195 -1.16,-3.02 -3.711,-11.837 -12.998,-9.75"
       style="fill:none;stroke:#231f20;stroke-width:0.5;stroke-linecap:butt;stroke-linejoin:miter;stroke-miterlimit:4;stroke-dasharray:none;stroke-opacity:1"
       id="path734" />
    <path
       d="m 366.699,560.677 c 1.412,0.499 0.355,2.091 -1.038,1.395 -1.393,-0.697 -14.625,-5.806 -18.803,-8.822 -4.179,-3.016 -5.572,-5.571 -6.036,-8.357 -0.464,-2.785 -2.554,-6.964 1.857,-9.054"
       style="fill:none;stroke:#231f20;stroke-width:0.5;stroke-linecap:butt;stroke-linejoin:miter;stroke-miterlimit:4;stroke-dasharray:none;stroke-opacity:1"
       id="path736" />
    <path
       d="m 431.828,519.368 c 2.316,-1.17 3.941,-2.566 4.637,-3.725 0,0 -11.142,-0.465 -12.767,-0.465 -1.626,0 -6.014,-0.729 -6.388,2.302 4.045,0.808 9.048,2.034 11.727,1.877 0.629,0.032 1.589,0.032 2.791,0.011 z"
       style="fill:none;stroke:#231f20;stroke-width:0.5;stroke-linecap:butt;stroke-linejoin:miter;stroke-miterlimit:4;stroke-dasharray:none;stroke-opacity:1"
       id="path738" />
    <path
       d="m 460.26,739.777 c 20.197,-27.161 31.803,-23.967 44.223,-18.804 15.496,6.443 16.715,16.018 35.519,16.018 18.803,0 20.022,-9.575 35.517,-16.018 12.42,-5.163 24.027,-8.357 44.224,18.804"
       style="fill:none;stroke:#231f20;stroke-width:0.5;stroke-linecap:butt;stroke-linejoin:miter;stroke-miterlimit:4;stroke-dasharray:none;stroke-opacity:1"
       id="path740" />
    <path
       d="m 327.938,835.536 c 1.045,-21.242 4.882,-27.412 7.312,-35.17 2.658,-8.477 12.866,-30.864 19.849,-33.603 8.879,-3.481 24.201,-13.754 25.071,-30.991"
       style="fill:none;stroke:#231f20;stroke-width:0.5;stroke-linecap:butt;stroke-linejoin:miter;stroke-miterlimit:4;stroke-dasharray:none;stroke-opacity:1"
       id="path742" />
    <path
       d="m 246.804,759.625 c 6.498,-10.496 6.351,-14.102 12.362,-25.246 6.024,-11.169 6.964,-16.192 14.799,-20.196"
       style="fill:none;stroke:#231f20;stroke-width:0.5;stroke-linecap:butt;stroke-linejoin:miter;stroke-miterlimit:4;stroke-dasharray:none;stroke-opacity:1"
       id="path744" />
    <path
       d="m 138.161,608.036 c 11.491,-11.724 20.545,-22.519 31.339,-28.09 10.795,-5.572 16.018,-0.696 16.018,-0.696"
       style="fill:none;stroke:#231f20;stroke-width:0.5;stroke-linecap:butt;stroke-linejoin:miter;stroke-miterlimit:4;stroke-dasharray:none;stroke-opacity:1"
       id="path746" />
    <path
       d="m 125.858,553.946 c 2.786,0 8.473,-0.813 8.473,-0.813"
       style="fill:none;stroke:#231f20;stroke-width:0.5;stroke-linecap:butt;stroke-linejoin:miter;stroke-miterlimit:4;stroke-dasharray:none;stroke-opacity:1"
       id="path748" />
    <path
       d="m 194.339,539.788 c -5.339,0.114 -14.74,-0.931 -14.74,-0.931"
       style="fill:none;stroke:#231f20;stroke-width:0.5;stroke-linecap:butt;stroke-linejoin:miter;stroke-miterlimit:4;stroke-dasharray:none;stroke-opacity:1"
       id="path750" />
    <path
       d="m 413.948,846.679 c 0,-1.219 0.347,-3.831 0.521,-5.223"
       style="fill:none;stroke:#231f20;stroke-width:0.5;stroke-linecap:butt;stroke-linejoin:miter;stroke-miterlimit:4;stroke-dasharray:none;stroke-opacity:1"
       id="path752" />
    <path
       d="m 317.608,524 c -29.02,11.839 -24.607,39.464 -24.607,39.464 8.59,0 26.031,4.006 38.073,8.179 -3.202,-2.774 -6.16,-5.767 -8.126,-8.411 -6.734,-9.054 -9.288,-25.769 -5.34,-39.232"
       style="fill:#706d6e;fill-opacity:1;fill-rule:nonzero;stroke:none;stroke-width:0.1"
       id="path754" />
    <path
       d="m 317.608,524 c -29.02,11.839 -24.607,39.464 -24.607,39.464 8.59,0 26.031,4.006 38.073,8.179 -3.202,-2.774 -6.16,-5.767 -8.126,-8.411 -6.734,-9.054 -9.288,-25.769 -5.34,-39.232 z"
       style="fill:none;stroke:#231f20;stroke-width:0.75;stroke-linecap:round;stroke-linejoin:round;stroke-miterlimit:4;stroke-dasharray:none;stroke-opacity:1"
       id="path756" />
    <path
       d="m 540.003,603.871 c -5.805,0 -17.413,-0.247 -26.234,0.681 -9.26,0.976 -7.196,10.912 -7.196,10.912 9.982,12.304 27.16,9.982 33.429,9.982 6.267,0 23.445,2.322 33.428,-9.982 0,0 2.064,-9.936 -7.197,-10.912 -8.821,-0.928 -20.429,-0.681 -26.233,-0.681"
       style="fill:#d3d2d2;fill-opacity:1;fill-rule:nonzero;stroke:none;stroke-width:0.1"
       id="path758" />
    <path
       d="m 837.029,666.477 c -2.592,-1.261 -5.547,-2.807 -8.655,-4.501 -12.765,-6.961 -28.109,-16.433 -31.39,-19.003 -1.277,-1.001 -6.046,-4.615 -11.313,-8.611 -7.619,-5.781 -16.275,-12.361 -16.892,-12.979"
       style="fill:none;stroke:#231f20;stroke-width:0.5;stroke-linecap:butt;stroke-linejoin:miter;stroke-miterlimit:4;stroke-dasharray:none;stroke-opacity:1"
       id="path760" />
    <path
       d="m 242.974,666.477 c 2.591,-1.261 5.547,-2.807 8.654,-4.501 12.765,-6.961 28.11,-16.433 31.39,-19.003 1.277,-1.001 6.047,-4.615 11.314,-8.611 7.618,-5.781 16.274,-12.361 16.892,-12.979"
       style="fill:none;stroke:#231f20;stroke-width:0.5;stroke-linecap:butt;stroke-linejoin:miter;stroke-miterlimit:4;stroke-dasharray:none;stroke-opacity:1"
       id="path762" />
    <path
       d="m 540.002,354.768 c -4.412,0 -3.948,-6.268 -4.179,-8.822 -0.233,-2.552 -8.125,-8.589 -14.161,-11.84 -6.036,-3.248 -13.233,-1.158 -16.019,-0.696 -2.785,0.466 -20.66,1.393 -35.285,2.554 -14.625,1.16 -16.946,2.555 -19.732,3.714 -2.787,1.161 -5.339,3.25 -8.588,5.34 -2.456,1.578 -10.203,4.013 -19.5,7.66 -3.005,1.179 -5.709,3.856 -9.054,4.875 -13.696,4.177 -38.536,18.804 -43.411,21.821 -4.876,3.02 -4.643,9.288 -17.179,17.411 -12.536,8.126 -22.055,31.804 -22.982,36.911 -0.928,5.109 -3.251,19.965 -3.018,40.627 0.232,20.661 6.268,39 6.268,39 -8.59,-7.892 -15.554,10.677 -15.554,10.677 -29.02,11.839 -24.607,39.464 -24.607,39.464 -1.393,0.233 -4.853,0.325 -8.589,0 -2.773,-0.241 -12.642,-1.983 -24.375,-3.482 -14.857,-1.898 -32.701,-4.146 -42.947,-9.982 -18.339,-10.447 -22.751,-10.212 -22.751,-10.212 10.447,-2.787 13.929,-9.288 13.698,-19.735 -0.232,-10.446 -11.609,-16.48 -19.037,-19.5 -7.427,-3.017 -23.911,-2.09 -29.482,-0.463 -5.571,1.624 -8.125,4.642 -12.07,6.034 -3.947,1.393 -12.072,2.324 -18.108,4.179 -6.035,1.859 -12.768,12.77 -14.393,17.18 -1.626,4.409 -1.788,10.038 -1.161,13.463 0.598,3.272 1.161,4.413 3.25,6.037 2.089,1.624 8.822,6.963 8.822,6.963 -2.322,0.696 -9.75,5.107 -11.143,7.66 -1.393,2.554 -3.482,11.608 -3.715,20.198 -0.232,8.588 8.358,20.893 13.233,24.607 4.875,3.713 13.928,1.625 13.928,1.625 -2.089,6.731 1.161,11.142 6.268,14.161 5.108,3.017 13.696,2.553 22.285,2.089 8.59,-0.464 24.609,-5.108 32.965,-8.59 8.358,-3.483 16.715,-9.982 21.821,-13.929 5.106,-3.946 17.179,-3.017 20.893,-1.159 3.713,1.856 1.858,5.571 -0.464,7.195 -2.322,1.625 -10.214,5.34 -14.857,12.071 -4.644,6.732 -10.04,19.791 -10.91,25.014 -0.871,5.224 0.347,17.411 9.923,20.719 9.577,3.308 16.889,0.87 16.889,0.87 -4.352,2.09 -18.804,9.229 -18.804,9.229 -12.883,6.267 -11.103,44.12 -8.706,53.972 2.531,10.398 4.875,26.929 12.885,32.385 9.101,6.198 18.455,-2.438 18.455,-2.438 -5.92,6.616 -5.571,18.803 -2.786,21.589 2.786,2.786 7.661,11.492 16.019,21.938 8.356,10.446 28.205,25.767 42.83,31.687 14.625,5.92 25.071,0.697 25.071,0.697 -0.348,12.536 25.42,24.027 29.946,26.464 4.528,2.438 18.456,7.661 35.866,4.875 17.412,-2.786 20.198,-20.196 20.198,-20.196 0.347,9.053 4.526,22.634 13.58,30.294 9.054,7.661 26.464,9.402 39,10.099 12.536,0.696 57.804,5.571 73.474,5.571 15.668,0 60.937,-4.875 73.472,-5.571 12.536,-0.697 29.947,-2.438 39.001,-10.099 9.053,-7.66 13.232,-21.241 13.58,-30.294 0,0 2.785,17.41 20.197,20.196 17.411,2.786 31.339,-2.437 35.866,-4.875 4.526,-2.437 30.295,-13.928 29.946,-26.464 0,0 10.446,5.223 25.071,-0.697 14.625,-5.92 34.474,-21.241 42.831,-31.687 8.357,-10.446 13.232,-19.152 16.018,-21.938 2.786,-2.786 3.134,-14.973 -2.786,-21.589 0,0 9.354,8.636 18.456,2.438 8.009,-5.456 10.353,-21.987 12.884,-32.385 2.398,-9.852 4.178,-47.705 -8.706,-53.972 0,0 -14.451,-7.139 -18.803,-9.229 0,0 7.312,2.438 16.887,-0.87 9.577,-3.308 10.795,-15.495 9.925,-20.719 -0.871,-5.223 -6.266,-18.282 -10.91,-25.014 -4.644,-6.731 -12.536,-10.446 -14.858,-12.071 -2.321,-1.624 -4.177,-5.339 -0.463,-7.195 3.713,-1.858 15.786,-2.787 20.892,1.159 5.107,3.947 13.463,10.446 21.821,13.929 8.357,3.482 24.375,8.126 32.965,8.59 8.589,0.464 17.177,0.928 22.286,-2.089 5.107,-3.019 8.356,-7.43 6.267,-14.161 0,0 9.054,2.088 13.929,-1.625 4.875,-3.714 13.465,-16.019 13.232,-24.607 -0.233,-8.59 -2.322,-17.644 -3.714,-20.198 -1.394,-2.553 -8.822,-6.964 -11.144,-7.66 0,0 6.733,-5.339 8.822,-6.963 2.09,-1.624 2.652,-2.765 3.25,-6.037 0.627,-3.425 0.465,-9.054 -1.16,-13.463 -1.626,-4.41 -8.358,-15.321 -14.393,-17.18 -6.036,-1.855 -14.161,-2.786 -18.108,-4.179 -3.946,-1.392 -6.499,-4.41 -12.07,-6.034 -5.571,-1.627 -22.055,-2.554 -29.483,0.463 -7.428,3.02 -18.805,9.054 -19.037,19.5 -0.23,10.447 3.251,16.948 13.698,19.735 0,0 -4.413,-0.235 -22.751,10.212 -10.246,5.836 -28.089,8.084 -42.946,9.982 -11.733,1.499 -21.603,3.241 -24.375,3.482 -3.737,0.325 -7.197,0.233 -8.589,0 0,0 4.412,-27.625 -24.607,-39.464 0,0 -6.965,-18.569 -15.554,-10.677 0,0 6.035,-18.339 6.268,-39 0.232,-20.662 -2.091,-35.518 -3.019,-40.627 -0.927,-5.107 -10.446,-28.785 -22.982,-36.911 -12.535,-8.123 -12.303,-14.391 -17.178,-17.411 -4.875,-3.017 -29.716,-17.644 -43.411,-21.821 -3.345,-1.019 -6.049,-3.696 -9.054,-4.875 -9.299,-3.647 -17.045,-6.082 -19.5,-7.66 -3.25,-2.09 -5.802,-4.179 -8.589,-5.34 -2.785,-1.159 -5.107,-2.554 -19.732,-3.714 -14.625,-1.161 -32.499,-2.088 -35.285,-2.554 -2.786,-0.462 -9.983,-2.552 -16.02,0.696 -6.033,3.251 -13.928,9.288 -14.159,11.84 -0.231,2.554 0.231,8.822 -4.178,8.822 z"
       style="fill:none;stroke:#231f20;stroke-width:0.75;stroke-linecap:round;stroke-linejoin:round;stroke-miterlimit:4;stroke-dasharray:none;stroke-opacity:1"
       id="path764" />
    <path
       d="m 705.26,592.857 c 1.864,-0.385 1.652,1.249 1.652,1.249 14.393,-3.017 9.053,3.251 9.053,3.251 2.323,-2.32 9.054,-4.875 18.573,-6.268 10.64,-1.556 12.303,9.519 13.232,16.018 0.929,6.5 -0.929,17.643 -3.251,22.517 -2.322,4.876 -11.156,7.431 -13.929,8.59 -2.772,1.16 -10.446,10.447 -13.928,13 -3.483,2.553 -11.607,3.25 -16.249,3.482 -4.643,0.232 -11.609,-0.696 -15.554,-0.928 -3.946,-0.232 -11.607,4.178 -14.625,5.803 -3.019,1.625 -13.696,4.875 -18.108,4.875 -4.411,0 -10.678,-2.785 -14.857,-4.643 -4.179,-1.856 -13,-8.356 -13,-8.356 2.554,3.946 13.929,19.035 16.251,23.91 2.321,4.875 -3.947,8.357 -7.43,8.357 -3.482,0 -15.552,-4.411 -18.571,-6.964 -3.019,-2.554 -12.999,-9.518 -17.643,-12.072 -4.644,-2.553 -13.696,-6.035 -17.874,-8.125 -4.179,-2.089 -15.788,-9.053 -16.019,-19.965 -0.281,-13.247 27.066,-23.016 35.286,-25.071 9.286,-2.321 15.321,-2.089 15.321,-2.089 l 0.929,-2.09 c -0.929,-0.696 -2.553,-1.855 -3.715,-2.786 11.374,-3.016 24.841,-1.855 51.769,-3.482 26.929,-1.624 34.589,-6.964 34.589,-6.964 1.914,-0.096 4.694,-0.506 8.098,-1.249"
       style="fill:#ffffff;fill-opacity:1;fill-rule:nonzero;stroke:none;stroke-width:0.1"
       id="path766" />
    <path
       d="m 374.742,592.857 c -1.864,-0.385 -1.652,1.249 -1.652,1.249 -14.393,-3.017 -9.053,3.251 -9.053,3.251 -2.322,-2.32 -9.053,-4.875 -18.573,-6.268 -10.64,-1.556 -12.302,9.519 -13.231,16.018 -0.93,6.5 0.929,17.643 3.25,22.517 2.322,4.876 11.157,7.431 13.929,8.59 2.772,1.16 10.447,10.447 13.928,13 3.483,2.553 11.608,3.25 16.249,3.482 4.643,0.232 11.609,-0.696 15.555,-0.928 3.945,-0.232 11.606,4.178 14.625,5.803 3.018,1.625 13.695,4.875 18.107,4.875 4.412,0 10.679,-2.785 14.858,-4.643 4.179,-1.856 12.999,-8.356 12.999,-8.356 -2.553,3.946 -13.929,19.035 -16.25,23.91 -2.322,4.875 3.947,8.357 7.43,8.357 3.481,0 15.552,-4.411 18.57,-6.964 3.018,-2.554 13,-9.518 17.643,-12.072 4.644,-2.553 13.697,-6.035 17.875,-8.125 4.178,-2.089 15.786,-9.053 16.018,-19.965 0.281,-13.247 -27.065,-23.016 -35.285,-25.071 -9.286,-2.321 -15.321,-2.089 -15.321,-2.089 l -0.93,-2.09 c 0.93,-0.696 2.554,-1.855 3.715,-2.786 -11.374,-3.016 -24.84,-1.855 -51.769,-3.482 -26.928,-1.624 -34.589,-6.964 -34.589,-6.964 -1.913,-0.096 -4.693,-0.506 -8.098,-1.249"
       style="fill:#ffffff;fill-opacity:1;fill-rule:nonzero;stroke:none;stroke-width:0.1"
       id="path768" />
    <path
       d="m 697.162,594.106 c 1.914,-0.096 4.694,-0.506 8.098,-1.249 4.858,-1.058 10.983,-2.794 17.669,-5.25 8.055,-2.959 18.235,-9.236 26,-15.964"
       style="fill:none;stroke:#231f20;stroke-width:0.75;stroke-linecap:round;stroke-linejoin:round;stroke-miterlimit:4;stroke-dasharray:none;stroke-opacity:1"
       id="path770" />
    <path
       d="m 382.84,594.106 c -1.913,-0.096 -4.693,-0.506 -8.098,-1.249 -4.858,-1.058 -10.983,-2.794 -17.669,-5.25 -8.054,-2.959 -18.234,-9.236 -25.999,-15.964"
       style="fill:none;stroke:#231f20;stroke-width:0.75;stroke-linecap:round;stroke-linejoin:round;stroke-miterlimit:4;stroke-dasharray:none;stroke-opacity:1"
       id="path772" />
    <path
       d="m 662.573,601.07 c -26.928,1.627 -40.395,0.466 -51.769,3.482 -11.374,3.02 -31.339,6.037 -37.374,10.912 0,0 2.064,-9.936 -7.197,-10.912 -8.818,-0.928 -20.424,-0.681 -26.23,-0.681 H 540 c -5.807,0 -17.412,-0.247 -26.231,0.681 -9.26,0.976 -7.196,10.912 -7.196,10.912 -6.035,-4.875 -26.001,-7.892 -37.375,-10.912 -11.374,-3.016 -24.84,-1.855 -51.769,-3.482 -26.928,-1.624 -34.589,-6.964 -34.589,-6.964 7.198,1.161 16.218,-4.026 22.054,-6.268 5.388,-2.067 8.788,-1.847 16.714,-3.482 9.518,0.696 14.161,-1.159 14.161,-1.159 10.912,-3.019 18.804,0 23.679,0.927 4.875,0.928 12.767,3.251 28.785,-0.927 16.017,-4.179 27.625,-21.822 30.411,-26.93 2.785,-5.105 12.304,-18.338 12.304,-18.338 0.928,0 3.524,-0.329 3.524,-0.329 1.799,0.523 4.136,0.098 5.53,-1.063 1.392,1.161 3.729,1.586 5.527,1.063 0,0 2.598,0.329 3.526,0.329 0,0 9.519,13.233 12.304,18.338 2.786,5.108 14.393,22.751 30.411,26.93 16.018,4.178 23.909,1.855 28.784,0.927 4.875,-0.927 12.768,-3.946 23.679,-0.927 0,0 4.643,1.855 14.161,1.159 7.926,1.635 11.327,1.415 16.715,3.482 5.835,2.242 14.856,7.429 22.053,6.268 0,0 -7.66,5.34 -34.589,6.964"
       style="fill:#706d6e;fill-opacity:1;fill-rule:nonzero;stroke:none;stroke-width:0.1"
       id="path774" />
    <path
       d="m 662.573,601.07 c -26.928,1.627 -40.395,0.466 -51.769,3.482 -11.374,3.02 -31.339,6.037 -37.374,10.912 0,0 2.064,-9.936 -7.197,-10.912 -8.818,-0.928 -20.424,-0.681 -26.23,-0.681 H 540 c -5.807,0 -17.412,-0.247 -26.231,0.681 -9.26,0.976 -7.196,10.912 -7.196,10.912 -6.035,-4.875 -26.001,-7.892 -37.375,-10.912 -11.374,-3.016 -24.84,-1.855 -51.769,-3.482 -26.928,-1.624 -34.589,-6.964 -34.589,-6.964 7.198,1.161 16.218,-4.026 22.054,-6.268 5.388,-2.067 8.788,-1.847 16.714,-3.482 9.518,0.696 14.161,-1.159 14.161,-1.159 10.912,-3.019 18.804,0 23.679,0.927 4.875,0.928 12.767,3.251 28.785,-0.927 16.017,-4.179 27.625,-21.822 30.411,-26.93 2.785,-5.105 12.304,-18.338 12.304,-18.338 0.928,0 3.524,-0.329 3.524,-0.329 1.799,0.523 4.136,0.098 5.53,-1.063 1.392,1.161 3.729,1.586 5.527,1.063 0,0 2.598,0.329 3.526,0.329 0,0 9.519,13.233 12.304,18.338 2.786,5.108 14.393,22.751 30.411,26.93 16.018,4.178 23.909,1.855 28.784,0.927 4.875,-0.927 12.768,-3.946 23.679,-0.927 0,0 4.643,1.855 14.161,1.159 7.926,1.635 11.327,1.415 16.715,3.482 5.835,2.242 14.856,7.429 22.053,6.268 0,0 -7.66,5.34 -34.589,6.964 z"
       style="fill:none;stroke:#231f20;stroke-width:0.75;stroke-linecap:round;stroke-linejoin:round;stroke-miterlimit:4;stroke-dasharray:none;stroke-opacity:1"
       id="path776" />
    <path
       d="m 534.472,537.6 c -0.97,-0.525 -2.767,-2.392 -5.584,-4.803 -0.972,-2.309 -0.726,-28.065 -0.726,-37.815 0,-9.75 -1.393,-49.213 11.84,-61.286 13.231,12.073 11.838,51.536 11.838,61.286 0,9.75 0.235,35.515 -0.737,37.824 -2.803,2.402 -4.605,4.272 -5.574,4.794"
       style="fill:none;stroke:#231f20;stroke-width:0.5;stroke-linecap:butt;stroke-linejoin:miter;stroke-miterlimit:4;stroke-dasharray:none;stroke-opacity:1"
       id="path778" />
    <path
       d="m 681.1,622.303 0.003,0.005 c -1.507,0.834 -3.131,1.776 -4.834,2.81 l -0.013,-0.006 c -7.209,-1.496 -26.218,0.334 -31.327,0.566 -5.107,0.234 -6.964,-4.642 -7.129,-9.549 0.397,0.103 0.764,0.191 1.094,0.263 5.27,1.146 16.644,1.378 30.549,-2.63 l 0.006,0.004 c 17.322,-1.232 13.088,6.805 11.651,8.537 z"
       style="fill:none;stroke:#231f20;stroke-width:0.5;stroke-linecap:butt;stroke-linejoin:miter;stroke-miterlimit:4;stroke-dasharray:none;stroke-opacity:1"
       id="path780" />
    <path
       d="m 398.902,622.303 -0.003,0.005 c 1.508,0.834 3.132,1.776 4.835,2.81 l 0.012,-0.006 c 7.209,-1.496 26.219,0.334 31.327,0.566 5.107,0.234 6.965,-4.642 7.129,-9.549 -0.396,0.103 -0.763,0.191 -1.094,0.263 -5.27,1.146 -16.644,1.378 -30.549,-2.63 l -0.006,0.004 c -17.322,-1.232 -13.088,6.805 -11.651,8.537 z"
       style="fill:none;stroke:#231f20;stroke-width:0.5;stroke-linecap:butt;stroke-linejoin:miter;stroke-miterlimit:4;stroke-dasharray:none;stroke-opacity:1"
       id="path782" />
    <path
       d="m 705.26,592.857 c 1.864,-0.385 1.652,1.249 1.652,1.249 14.393,-3.017 9.053,3.251 9.053,3.251 2.323,-2.32 9.054,-4.875 18.573,-6.268 10.64,-1.556 12.303,9.519 13.232,16.018 0.929,6.5 -0.929,17.643 -3.251,22.517 -2.322,4.876 -11.156,7.431 -13.929,8.59 -2.772,1.16 -10.446,10.447 -13.928,13 -3.483,2.553 -11.607,3.25 -16.249,3.482 -4.643,0.232 -11.609,-0.696 -15.554,-0.928 -3.946,-0.232 -11.607,4.178 -14.625,5.803 -3.019,1.625 -13.696,4.875 -18.108,4.875 -4.411,0 -10.678,-2.785 -14.857,-4.643 -4.179,-1.856 -13,-8.356 -13,-8.356 2.554,3.946 13.929,19.035 16.251,23.91 2.321,4.875 -3.947,8.357 -7.43,8.357 -3.482,0 -15.552,-4.411 -18.571,-6.964 -3.019,-2.554 -12.999,-9.518 -17.643,-12.072 -4.644,-2.553 -13.696,-6.035 -17.874,-8.125 -4.179,-2.089 -15.788,-9.053 -16.019,-19.965 -0.281,-13.247 27.066,-23.016 35.286,-25.071 9.286,-2.321 15.321,-2.089 15.321,-2.089 l 0.929,-2.09 c -0.929,-0.696 -2.553,-1.855 -3.715,-2.786"
       style="fill:none;stroke:#231f20;stroke-width:0.5;stroke-linecap:round;stroke-linejoin:round;stroke-miterlimit:4;stroke-dasharray:2.8, 1.8;stroke-dashoffset:0;stroke-opacity:1"
       id="path784" />
    <path
       d="m 570.901,406.097 c 9.957,6.01 30.849,13.67 57.314,5.082"
       style="fill:none;stroke:#231f20;stroke-width:0.5;stroke-linecap:round;stroke-linejoin:round;stroke-miterlimit:4;stroke-dasharray:2.8, 1.8;stroke-dashoffset:0;stroke-opacity:1"
       id="path786" />
    <path
       d="m 599.784,375.734 c 4.985,0.392 17.505,0.798 23.781,2.917"
       style="fill:none;stroke:#231f20;stroke-width:0.5;stroke-linecap:round;stroke-linejoin:round;stroke-miterlimit:4;stroke-dasharray:2.8, 1.8;stroke-dashoffset:0;stroke-opacity:1"
       id="path788" />
    <path
       d="m 595.468,370.508 c 5.819,-4.597 30.875,-44.927 40.858,-4.997"
       style="fill:none;stroke:#231f20;stroke-width:0.5;stroke-linecap:round;stroke-linejoin:round;stroke-miterlimit:4;stroke-dasharray:2.8, 1.8;stroke-dashoffset:0;stroke-opacity:1"
       id="path790" />
    <path
       d="m 692.752,424.411 c 2.321,0 15.022,-6.423 11.109,-22.016"
       style="fill:none;stroke:#231f20;stroke-width:0.5;stroke-linecap:round;stroke-linejoin:round;stroke-miterlimit:4;stroke-dasharray:2.8, 1.8;stroke-dashoffset:0;stroke-opacity:1"
       id="path792" />
    <path
       d="m 692.752,424.411 c -3.946,-0.234 -11.376,-3.482 -16.483,-10.911 -5.106,-7.427 -9.285,-14.392 -10.91,-22.518 -1.236,-6.184 4.643,-16.714 14.857,-13.463 11.503,3.659 18.947,10.145 22.242,20.393"
       style="fill:none;stroke:#231f20;stroke-width:0.5;stroke-linecap:round;stroke-linejoin:round;stroke-miterlimit:4;stroke-dasharray:2.8, 1.8;stroke-dashoffset:0;stroke-opacity:1"
       id="path794" />
    <path
       d="m 622.324,387.269 c 0.384,5.762 2.409,12.07 5.195,12.998 2.785,0.931 9.983,-2.32 14.161,-9.054 3.055,-4.921 6.451,-12.1 2.553,-18.569 -1.434,-2.381 -3.076,-5.934 -7.195,-7.43"
       style="fill:none;stroke:#231f20;stroke-width:0.5;stroke-linecap:round;stroke-linejoin:round;stroke-miterlimit:4;stroke-dasharray:2.8, 1.8;stroke-dashoffset:0;stroke-opacity:1"
       id="path796" />
    <path
       d="m 645.81,381.224 c 11.888,0.936 10.869,13.659 20.619,13.891"
       style="fill:none;stroke:#231f20;stroke-width:0.5;stroke-linecap:round;stroke-linejoin:round;stroke-miterlimit:4;stroke-dasharray:2.8, 1.8;stroke-dashoffset:0;stroke-opacity:1"
       id="path798" />
    <path
       d="m 627.519,400.267 c 0.465,5.34 6.5,16.945 15.554,20.662 9.053,3.713 17.411,4.409 20.196,5.571 0,0 13.028,8.722 18.702,-6.899"
       style="fill:none;stroke:#231f20;stroke-width:0.5;stroke-linecap:round;stroke-linejoin:round;stroke-miterlimit:4;stroke-dasharray:2.8, 1.8;stroke-dashoffset:0;stroke-opacity:1"
       id="path800" />
    <path
       d="m 663.269,426.5 c -3.019,-1.858 -7.196,-6.037 -1.625,-10.215 5.571,-4.178 11.507,-5.653 12.718,-5.613"
       style="fill:none;stroke:#231f20;stroke-width:0.5;stroke-linecap:round;stroke-linejoin:round;stroke-miterlimit:4;stroke-dasharray:2.8, 1.8;stroke-dashoffset:0;stroke-opacity:1"
       id="path802" />
    <path
       d="m 642.221,420.55 c 2.012,-0.087 5.726,-1.476 6.887,-5.424 1.162,-3.947 3.011,-21.676 -7.78,-23.374"
       style="fill:none;stroke:#231f20;stroke-width:0.5;stroke-linecap:round;stroke-linejoin:round;stroke-miterlimit:4;stroke-dasharray:2.8, 1.8;stroke-dashoffset:0;stroke-opacity:1"
       id="path804" />
    <path
       d="m 650,406.54 c 7.93,0.692 7.698,9.979 11.644,9.745"
       style="fill:none;stroke:#231f20;stroke-width:0.5;stroke-linecap:round;stroke-linejoin:round;stroke-miterlimit:4;stroke-dasharray:2.8, 1.8;stroke-dashoffset:0;stroke-opacity:1"
       id="path806" />
    <path
       d="m 603.376,515.178 c -3.018,-31.57 18.603,-79.051 28.554,-99.124"
       style="fill:none;stroke:#231f20;stroke-width:0.5;stroke-linecap:round;stroke-linejoin:round;stroke-miterlimit:4;stroke-dasharray:2.8, 1.8;stroke-dashoffset:0;stroke-opacity:1"
       id="path808" />
    <path
       d="m 625.429,505.893 c 3.019,-13.697 20.895,-59.106 43.645,-73.081"
       style="fill:none;stroke:#231f20;stroke-width:0.5;stroke-linecap:round;stroke-linejoin:round;stroke-miterlimit:4;stroke-dasharray:2.8, 1.8;stroke-dashoffset:0;stroke-opacity:1"
       id="path810" />
    <path
       d="m 662.376,437.916 c -1.078,1 -0.267,3.906 2.983,2.744 3.249,-1.159 14.519,-5.441 10.395,-8.596"
       style="fill:none;stroke:#231f20;stroke-width:0.5;stroke-linecap:round;stroke-linejoin:round;stroke-miterlimit:4;stroke-dasharray:2.8, 1.8;stroke-dashoffset:0;stroke-opacity:1"
       id="path812" />
    <path
       d="m 551.103,532.806 c 5.387,-4.613 14.461,-11.186 28.362,-13.912 11.839,-2.323 20.661,-3.716 23.911,-3.716 3.25,0 10.679,0.696 15.554,1.859 4.213,1.003 21.604,2.178 29.245,2.331"
       style="fill:none;stroke:#231f20;stroke-width:0.5;stroke-linecap:round;stroke-linejoin:round;stroke-miterlimit:4;stroke-dasharray:2.8, 1.8;stroke-dashoffset:0;stroke-opacity:1"
       id="path814" />
    <path
       d="m 603.213,504.503 c 5.039,-4.413 22.369,-1.864 12.195,11.834"
       style="fill:none;stroke:#231f20;stroke-width:0.5;stroke-linecap:round;stroke-linejoin:round;stroke-miterlimit:4;stroke-dasharray:2.8, 1.8;stroke-dashoffset:0;stroke-opacity:1"
       id="path816" />
    <path
       d="m 551.84,494.982 c 5.107,-2.552 14.625,-6.266 23.679,-3.248 9.054,3.016 9.518,5.568 11.84,9.284 2.321,3.714 7.577,12.713 3.557,15.757"
       style="fill:none;stroke:#231f20;stroke-width:0.5;stroke-linecap:round;stroke-linejoin:round;stroke-miterlimit:4;stroke-dasharray:2.8, 1.8;stroke-dashoffset:0;stroke-opacity:1"
       id="path818" />
    <path
       d="m 561.359,556.267 c 3.482,-2.321 24.839,-15.783 25.536,-23.909 0.594,-6.942 -4.645,-12.768 -7.43,-13.464"
       style="fill:none;stroke:#231f20;stroke-width:0.5;stroke-linecap:round;stroke-linejoin:round;stroke-miterlimit:4;stroke-dasharray:2.8, 1.8;stroke-dashoffset:0;stroke-opacity:1"
       id="path820" />
    <path
       d="m 633.566,581.909 c -2.1,-8.231 -19.321,-40.729 -46.693,-50.945"
       style="fill:none;stroke:#231f20;stroke-width:0.5;stroke-linecap:round;stroke-linejoin:round;stroke-miterlimit:4;stroke-dasharray:2.8, 1.8;stroke-dashoffset:0;stroke-opacity:1"
       id="path822" />
    <path
       d="m 644.931,583.422 c -4.644,-2.314 -7.215,-10.437 -7.893,-19.261 -1.162,-15.089 11.142,-40.161 13.928,-44.804"
       style="fill:none;stroke:#231f20;stroke-width:0.5;stroke-linecap:round;stroke-linejoin:round;stroke-miterlimit:4;stroke-dasharray:2.8, 1.8;stroke-dashoffset:0;stroke-opacity:1"
       id="path824" />
    <path
       d="m 618.524,508.429 c 3.192,-1.374 22.692,-9.5 29.656,-9.268 6.965,0.233 18.57,0 27.393,6.963"
       style="fill:none;stroke:#231f20;stroke-width:0.5;stroke-linecap:round;stroke-linejoin:round;stroke-miterlimit:4;stroke-dasharray:2.8, 1.8;stroke-dashoffset:0;stroke-opacity:1"
       id="path826" />
    <path
       d="m 662.721,517.474 c 1.915,-0.384 3.609,-0.669 4.727,-0.669 3.482,0 9.982,0.232 12.536,2.32 2.553,2.089 7.892,5.34 10.91,6.268"
       style="fill:none;stroke:#231f20;stroke-width:0.5;stroke-linecap:round;stroke-linejoin:round;stroke-miterlimit:4;stroke-dasharray:2.8, 1.8;stroke-dashoffset:0;stroke-opacity:1"
       id="path828" />
    <path
       d="M 691.359,553.019 C 687.876,550 677.792,533.653 689.799,524.997"
       style="fill:none;stroke:#231f20;stroke-width:0.5;stroke-linecap:round;stroke-linejoin:round;stroke-miterlimit:4;stroke-dasharray:2.8, 1.8;stroke-dashoffset:0;stroke-opacity:1"
       id="path830" />
    <path
       d="m 648.18,499.161 c 4.41,-6.269 10.678,-8.358 13.696,-9.75 3.019,-1.394 7.428,-4.411 13,-9.517 5.572,-5.108 11.839,-11.143 15.322,-16.714 3.481,-5.572 7.892,-19.966 8.59,-25.306 0.696,-5.337 4.641,-28.55 15.088,-27.623"
       style="fill:none;stroke:#231f20;stroke-width:0.5;stroke-linecap:round;stroke-linejoin:round;stroke-miterlimit:4;stroke-dasharray:2.8, 1.8;stroke-dashoffset:0;stroke-opacity:1"
       id="path832" />
    <path
       d="m 701.563,505.328 c -5.329,2.885 -15.775,6.834 -20.883,3.816 -5.107,-3.02 -17.755,-11.012 -6.904,-28.257"
       style="fill:none;stroke:#231f20;stroke-width:0.5;stroke-linecap:round;stroke-linejoin:round;stroke-miterlimit:4;stroke-dasharray:2.8, 1.8;stroke-dashoffset:0;stroke-opacity:1"
       id="path834" />
    <path
       d="m 706.215,497.071 c -4.642,-4.179 -20.449,-20.014 -20.091,-28.461"
       style="fill:none;stroke:#231f20;stroke-width:0.5;stroke-linecap:round;stroke-linejoin:round;stroke-miterlimit:4;stroke-dasharray:2.8, 1.8;stroke-dashoffset:0;stroke-opacity:1"
       id="path836" />
    <path
       d="M 720.168,479.342 C 718.52,468.983 702.189,448.008 697.934,442.129"
       style="fill:none;stroke:#231f20;stroke-width:0.5;stroke-linecap:round;stroke-linejoin:round;stroke-miterlimit:4;stroke-dasharray:2.8, 1.8;stroke-dashoffset:0;stroke-opacity:1"
       id="path838" />
    <path
       d="m 665.194,517.025 c -1.692,-3.471 2.827,-13.483 11.536,-10.5 6.969,2.386 7.199,11.673 -4.214,10.486"
       style="fill:none;stroke:#231f20;stroke-width:0.5;stroke-linecap:round;stroke-linejoin:round;stroke-miterlimit:4;stroke-dasharray:2.8, 1.8;stroke-dashoffset:0;stroke-opacity:1"
       id="path840" />
    <path
       d="m 658.394,584.356 c 5.571,-2.089 45.619,-19.447 54.476,-22.426"
       style="fill:none;stroke:#231f20;stroke-width:0.5;stroke-linecap:round;stroke-linejoin:round;stroke-miterlimit:4;stroke-dasharray:2.8, 1.8;stroke-dashoffset:0;stroke-opacity:1"
       id="path842" />
    <path
       d="m 643.537,515.643 c -1.857,-2.555 -1.628,-11.143 5.571,-11.143 6.733,0 10.73,6.032 10.705,10.675"
       style="fill:none;stroke:#231f20;stroke-width:0.5;stroke-linecap:round;stroke-linejoin:round;stroke-miterlimit:4;stroke-dasharray:2.8, 1.8;stroke-dashoffset:0;stroke-opacity:1"
       id="path844" />
    <path
       d="m 664.379,581.913 c 4.229,1.98 18.854,8.016 23.729,8.945 4.875,0.928 12.769,-0.233 24.144,-4.179 11.374,-3.947 20.891,-8.126 30.874,-16.483 9.983,-8.357 13.93,-15.09 15.09,-25.303 1.16,-10.215 2.298,-33.831 -12.2,-28.523"
       style="fill:none;stroke:#231f20;stroke-width:0.5;stroke-linecap:round;stroke-linejoin:round;stroke-miterlimit:4;stroke-dasharray:2.8, 1.8;stroke-dashoffset:0;stroke-opacity:1"
       id="path846" />
    <path
       d="m 669.186,579.894 c 5.923,2.838 19.853,7.713 26.352,7.481 6.499,-0.233 13,-3.018 22.75,-7.66 9.75,-4.644 18.338,-7.431 26.927,-17.412 8.59,-9.98 10.215,-20.658 10.215,-26.694 0,-6.037 -1.867,-21.424 -10.451,-16.168"
       style="fill:none;stroke:#231f20;stroke-width:0.5;stroke-linecap:round;stroke-linejoin:round;stroke-miterlimit:4;stroke-dasharray:2.8, 1.8;stroke-dashoffset:0;stroke-opacity:1"
       id="path848" />
    <path
       d="m 614.519,607.338 c 4.643,2.555 19.035,7.893 24.375,9.054 5.341,1.161 16.945,1.394 31.108,-2.785 14.161,-4.179 29.25,-12.537 36.91,-19.501"
       style="fill:none;stroke:#231f20;stroke-width:0.5;stroke-linecap:round;stroke-linejoin:round;stroke-miterlimit:4;stroke-dasharray:2.8, 1.8;stroke-dashoffset:0;stroke-opacity:1"
       id="path850" />
    <path
       d="m 613.59,609.428 c -8.357,20.66 4.644,36.679 10.679,42.019"
       style="fill:none;stroke:#231f20;stroke-width:0.5;stroke-linecap:round;stroke-linejoin:round;stroke-miterlimit:4;stroke-dasharray:2.8, 1.8;stroke-dashoffset:0;stroke-opacity:1"
       id="path852" />
    <path
       d="m 596.876,664.678 c 5.34,-4.411 16.365,-11.221 28.147,-12.111"
       style="fill:none;stroke:#231f20;stroke-width:0.5;stroke-linecap:round;stroke-linejoin:round;stroke-miterlimit:4;stroke-dasharray:2.8, 1.8;stroke-dashoffset:0;stroke-opacity:1"
       id="path854" />
    <path
       d="m 647.653,663.764 c -0.634,-4.425 4.242,-18.354 11.671,-25.782 7.428,-7.429 17.178,-13.232 23.678,-16.715 6.5,-3.481 28.552,-19.5 32.963,-23.91"
       style="fill:none;stroke:#231f20;stroke-width:0.5;stroke-linecap:round;stroke-linejoin:round;stroke-miterlimit:4;stroke-dasharray:2.8, 1.8;stroke-dashoffset:0;stroke-opacity:1"
       id="path856" />
    <path
       d="m 684.859,653.768 c 0.232,-4.875 5.571,-26 14.625,-31.571 0,0 4.643,-13.386 6.848,-17.025"
       style="fill:none;stroke:#231f20;stroke-width:0.5;stroke-linecap:round;stroke-linejoin:round;stroke-miterlimit:4;stroke-dasharray:2.8, 1.8;stroke-dashoffset:0;stroke-opacity:1"
       id="path858" />
    <path
       d="m 699.484,622.197 c 2.765,-0.174 14.392,5.106 23.679,12.071 2.847,2.136 5.53,2.464 7.427,3.946"
       style="fill:none;stroke:#231f20;stroke-width:0.5;stroke-linecap:round;stroke-linejoin:round;stroke-miterlimit:4;stroke-dasharray:2.8, 1.8;stroke-dashoffset:0;stroke-opacity:1"
       id="path860" />
    <path
       d="m 623.189,650.443 c 0.848,-3.407 7.444,-19.133 15.87,-28.448"
       style="fill:none;stroke:#231f20;stroke-width:0.5;stroke-linecap:round;stroke-linejoin:round;stroke-miterlimit:4;stroke-dasharray:2.8, 1.8;stroke-dashoffset:0;stroke-opacity:1"
       id="path862" />
    <path
       d="m 374.742,592.857 c -1.864,-0.385 -1.652,1.249 -1.652,1.249 -14.393,-3.017 -9.053,3.251 -9.053,3.251 -2.322,-2.32 -9.053,-4.875 -18.573,-6.268 -10.64,-1.556 -12.302,9.519 -13.231,16.018 -0.93,6.5 0.929,17.643 3.25,22.517 2.322,4.876 11.157,7.431 13.929,8.59 2.772,1.16 10.447,10.447 13.928,13 3.483,2.553 11.608,3.25 16.249,3.482 4.643,0.232 11.609,-0.696 15.555,-0.928 3.945,-0.232 11.606,4.178 14.625,5.803 3.018,1.625 13.695,4.875 18.107,4.875 4.412,0 10.679,-2.785 14.858,-4.643 4.179,-1.856 12.999,-8.356 12.999,-8.356 -2.553,3.946 -13.929,19.035 -16.25,23.91 -2.322,4.875 3.947,8.357 7.43,8.357 3.481,0 15.552,-4.411 18.57,-6.964 3.018,-2.554 13,-9.518 17.643,-12.072 4.644,-2.553 13.697,-6.035 17.875,-8.125 4.178,-2.089 15.786,-9.053 16.018,-19.965 0.281,-13.247 -27.065,-23.016 -35.285,-25.071 -9.286,-2.321 -15.321,-2.089 -15.321,-2.089 l -0.93,-2.09 c 0.93,-0.696 2.554,-1.855 3.715,-2.786"
       style="fill:none;stroke:#231f20;stroke-width:0.5;stroke-linecap:round;stroke-linejoin:round;stroke-miterlimit:4;stroke-dasharray:2.8, 1.8;stroke-dashoffset:0;stroke-opacity:1"
       id="path864" />
    <path
       d="m 494.982,363.321 c -0.215,5.074 5.322,15.822 9.037,18.839 3.715,3.019 10.911,7.198 18.34,10.912 7.429,3.713 12.767,7.195 17.643,7.195 4.874,0 10.213,-3.482 17.641,-7.195 7.43,-3.714 14.625,-7.893 18.34,-10.912 3.715,-3.017 9.252,-13.765 9.037,-18.839"
       style="fill:none;stroke:#231f20;stroke-width:0.5;stroke-linecap:round;stroke-linejoin:round;stroke-miterlimit:4;stroke-dasharray:2.8, 1.8;stroke-dashoffset:0;stroke-opacity:1"
       id="path866" />
    <path
       d="m 535.788,377.032 c 0,3.923 2.588,5.128 4.214,5.128 1.624,0 4.213,-1.205 4.213,-5.128"
       style="fill:none;stroke:#231f20;stroke-width:0.5;stroke-linecap:round;stroke-linejoin:round;stroke-miterlimit:4;stroke-dasharray:2.8, 1.8;stroke-dashoffset:0;stroke-opacity:1"
       id="path868" />
    <path
       d="m 491.018,381.001 c 21.244,40.004 45.036,39.462 48.984,39.462 3.947,0 27.738,0.542 48.982,-39.462"
       style="fill:none;stroke:#231f20;stroke-width:0.5;stroke-linecap:round;stroke-linejoin:round;stroke-miterlimit:4;stroke-dasharray:2.8, 1.8;stroke-dashoffset:0;stroke-opacity:1"
       id="path870" />
    <path
       d="m 509.101,406.097 c -9.957,6.01 -30.85,13.67 -57.313,5.082"
       style="fill:none;stroke:#231f20;stroke-width:0.5;stroke-linecap:round;stroke-linejoin:round;stroke-miterlimit:4;stroke-dasharray:2.8, 1.8;stroke-dashoffset:0;stroke-opacity:1"
       id="path872" />
    <path
       d="m 499.776,376.722 c 0.065,2.652 -2.721,5.207 -10.382,4.045 -3.019,-0.457 -9.983,-2.786 -9.518,-6.964 0.464,-4.179 6.267,-3.482 9.982,-2.786 2.786,0.523 6.934,1.978 8.863,3.792"
       style="fill:none;stroke:#231f20;stroke-width:0.5;stroke-linecap:round;stroke-linejoin:round;stroke-miterlimit:4;stroke-dasharray:2.8, 1.8;stroke-dashoffset:0;stroke-opacity:1"
       id="path874" />
    <path
       d="m 480.218,375.734 c -4.985,0.392 -17.505,0.798 -23.78,2.917"
       style="fill:none;stroke:#231f20;stroke-width:0.5;stroke-linecap:round;stroke-linejoin:round;stroke-miterlimit:4;stroke-dasharray:2.8, 1.8;stroke-dashoffset:0;stroke-opacity:1"
       id="path876" />
    <path
       d="m 484.535,370.508 c -5.82,-4.597 -30.876,-44.927 -40.859,-4.997"
       style="fill:none;stroke:#231f20;stroke-width:0.5;stroke-linecap:round;stroke-linejoin:round;stroke-miterlimit:4;stroke-dasharray:2.8, 1.8;stroke-dashoffset:0;stroke-opacity:1"
       id="path878" />
    <path
       d="m 387.25,424.411 c -2.32,0 -15.022,-6.423 -11.109,-22.016"
       style="fill:none;stroke:#231f20;stroke-width:0.5;stroke-linecap:round;stroke-linejoin:round;stroke-miterlimit:4;stroke-dasharray:2.8, 1.8;stroke-dashoffset:0;stroke-opacity:1"
       id="path880" />
    <path
       d="m 387.25,424.411 c 3.947,-0.234 11.377,-3.482 16.484,-10.911 5.105,-7.427 9.284,-14.392 10.91,-22.518 1.236,-6.184 -4.643,-16.714 -14.857,-13.463 -11.504,3.659 -18.948,10.145 -22.242,20.393"
       style="fill:none;stroke:#231f20;stroke-width:0.5;stroke-linecap:round;stroke-linejoin:round;stroke-miterlimit:4;stroke-dasharray:2.8, 1.8;stroke-dashoffset:0;stroke-opacity:1"
       id="path882" />
    <path
       d="m 457.678,387.269 c -0.384,5.762 -2.409,12.07 -5.194,12.998 -2.786,0.931 -9.983,-2.32 -14.161,-9.054 -3.056,-4.921 -6.452,-12.1 -2.554,-18.569 1.434,-2.381 3.077,-5.934 7.195,-7.43"
       style="fill:none;stroke:#231f20;stroke-width:0.5;stroke-linecap:round;stroke-linejoin:round;stroke-miterlimit:4;stroke-dasharray:2.8, 1.8;stroke-dashoffset:0;stroke-opacity:1"
       id="path884" />
    <path
       d="m 434.193,381.224 c -11.889,0.936 -10.869,13.659 -20.619,13.891"
       style="fill:none;stroke:#231f20;stroke-width:0.5;stroke-linecap:round;stroke-linejoin:round;stroke-miterlimit:4;stroke-dasharray:2.8, 1.8;stroke-dashoffset:0;stroke-opacity:1"
       id="path886" />
    <path
       d="m 452.484,400.267 c -0.466,5.34 -6.501,16.945 -15.555,20.662 -9.053,3.713 -17.41,4.409 -20.196,5.571 0,0 -13.028,8.722 -18.701,-6.899"
       style="fill:none;stroke:#231f20;stroke-width:0.5;stroke-linecap:round;stroke-linejoin:round;stroke-miterlimit:4;stroke-dasharray:2.8, 1.8;stroke-dashoffset:0;stroke-opacity:1"
       id="path888" />
    <path
       d="m 416.733,426.5 c 3.018,-1.858 7.197,-6.037 1.626,-10.215 -5.572,-4.178 -11.508,-5.653 -12.719,-5.613"
       style="fill:none;stroke:#231f20;stroke-width:0.5;stroke-linecap:round;stroke-linejoin:round;stroke-miterlimit:4;stroke-dasharray:2.8, 1.8;stroke-dashoffset:0;stroke-opacity:1"
       id="path890" />
    <path
       d="m 437.781,420.55 c -2.012,-0.087 -5.725,-1.476 -6.887,-5.424 -1.161,-3.947 -3.01,-21.676 7.78,-23.374"
       style="fill:none;stroke:#231f20;stroke-width:0.5;stroke-linecap:round;stroke-linejoin:round;stroke-miterlimit:4;stroke-dasharray:2.8, 1.8;stroke-dashoffset:0;stroke-opacity:1"
       id="path892" />
    <path
       d="m 430.002,406.54 c -7.93,0.692 -7.698,9.979 -11.643,9.745"
       style="fill:none;stroke:#231f20;stroke-width:0.5;stroke-linecap:round;stroke-linejoin:round;stroke-miterlimit:4;stroke-dasharray:2.8, 1.8;stroke-dashoffset:0;stroke-opacity:1"
       id="path894" />
    <path
       d="m 476.626,515.178 c 3.018,-31.57 -18.602,-79.051 -28.553,-99.124"
       style="fill:none;stroke:#231f20;stroke-width:0.5;stroke-linecap:round;stroke-linejoin:round;stroke-miterlimit:4;stroke-dasharray:2.8, 1.8;stroke-dashoffset:0;stroke-opacity:1"
       id="path896" />
    <path
       d="m 454.573,505.893 c -3.019,-13.697 -20.895,-59.106 -43.644,-73.081"
       style="fill:none;stroke:#231f20;stroke-width:0.5;stroke-linecap:round;stroke-linejoin:round;stroke-miterlimit:4;stroke-dasharray:2.8, 1.8;stroke-dashoffset:0;stroke-opacity:1"
       id="path898" />
    <path
       d="m 417.626,437.916 c 1.078,1 0.267,3.906 -2.982,2.744 -3.25,-1.159 -14.52,-5.441 -10.396,-8.596"
       style="fill:none;stroke:#231f20;stroke-width:0.5;stroke-linecap:round;stroke-linejoin:round;stroke-miterlimit:4;stroke-dasharray:2.8, 1.8;stroke-dashoffset:0;stroke-opacity:1"
       id="path900" />
    <path
       d="m 528.888,532.797 c -5.389,-4.614 -14.47,-11.182 -28.35,-13.903 -11.84,-2.323 -20.662,-3.716 -23.912,-3.716 -3.25,0 -10.679,0.696 -15.554,1.859 -4.212,1.003 -21.603,2.178 -29.244,2.331"
       style="fill:none;stroke:#231f20;stroke-width:0.5;stroke-linecap:round;stroke-linejoin:round;stroke-miterlimit:4;stroke-dasharray:2.8, 1.8;stroke-dashoffset:0;stroke-opacity:1"
       id="path902" />
    <path
       d="m 476.79,504.503 c -5.039,-4.413 -22.37,-1.864 -12.195,11.834"
       style="fill:none;stroke:#231f20;stroke-width:0.5;stroke-linecap:round;stroke-linejoin:round;stroke-miterlimit:4;stroke-dasharray:2.8, 1.8;stroke-dashoffset:0;stroke-opacity:1"
       id="path904" />
    <path
       d="m 528.162,494.982 c -5.107,-2.552 -14.625,-6.266 -23.679,-3.248 -9.054,3.016 -9.517,5.568 -11.839,9.284 -2.322,3.714 -7.578,12.713 -3.557,15.757"
       style="fill:none;stroke:#231f20;stroke-width:0.5;stroke-linecap:round;stroke-linejoin:round;stroke-miterlimit:4;stroke-dasharray:2.8, 1.8;stroke-dashoffset:0;stroke-opacity:1"
       id="path906" />
    <path
       d="m 518.644,556.267 c -3.482,-2.321 -24.84,-15.783 -25.536,-23.909 -0.595,-6.942 4.643,-12.768 7.43,-13.464"
       style="fill:none;stroke:#231f20;stroke-width:0.5;stroke-linecap:round;stroke-linejoin:round;stroke-miterlimit:4;stroke-dasharray:2.8, 1.8;stroke-dashoffset:0;stroke-opacity:1"
       id="path908" />
    <path
       d="m 446.436,581.909 c 2.101,-8.231 19.322,-40.729 46.693,-50.945"
       style="fill:none;stroke:#231f20;stroke-width:0.5;stroke-linecap:round;stroke-linejoin:round;stroke-miterlimit:4;stroke-dasharray:2.8, 1.8;stroke-dashoffset:0;stroke-opacity:1"
       id="path910" />
    <path
       d="m 435.072,583.422 c 4.643,-2.314 7.214,-10.437 7.892,-19.261 1.162,-15.089 -11.142,-40.161 -13.927,-44.804"
       style="fill:none;stroke:#231f20;stroke-width:0.5;stroke-linecap:round;stroke-linejoin:round;stroke-miterlimit:4;stroke-dasharray:2.8, 1.8;stroke-dashoffset:0;stroke-opacity:1"
       id="path912" />
    <path
       d="m 461.479,508.429 c -3.192,-1.374 -22.692,-9.5 -29.657,-9.268 -6.964,0.233 -18.57,0 -27.392,6.963"
       style="fill:none;stroke:#231f20;stroke-width:0.5;stroke-linecap:round;stroke-linejoin:round;stroke-miterlimit:4;stroke-dasharray:2.8, 1.8;stroke-dashoffset:0;stroke-opacity:1"
       id="path914" />
    <path
       d="m 417.281,517.474 c -1.915,-0.384 -3.609,-0.669 -4.727,-0.669 -3.481,0 -9.982,0.232 -12.535,2.32 -2.554,2.089 -7.893,5.34 -10.91,6.268"
       style="fill:none;stroke:#231f20;stroke-width:0.5;stroke-linecap:round;stroke-linejoin:round;stroke-miterlimit:4;stroke-dasharray:2.8, 1.8;stroke-dashoffset:0;stroke-opacity:1"
       id="path916" />
    <path
       d="m 388.643,553.019 c 3.483,-3.019 13.567,-19.366 1.561,-28.022"
       style="fill:none;stroke:#231f20;stroke-width:0.5;stroke-linecap:round;stroke-linejoin:round;stroke-miterlimit:4;stroke-dasharray:2.8, 1.8;stroke-dashoffset:0;stroke-opacity:1"
       id="path918" />
    <path
       d="m 431.822,499.161 c -4.409,-6.269 -10.678,-8.358 -13.696,-9.75 -3.018,-1.394 -7.428,-4.411 -13,-9.517 -5.571,-5.108 -11.839,-11.143 -15.321,-16.714 -3.482,-5.572 -7.893,-19.966 -8.59,-25.306 -0.696,-5.337 -4.642,-28.55 -15.089,-27.623"
       style="fill:none;stroke:#231f20;stroke-width:0.5;stroke-linecap:round;stroke-linejoin:round;stroke-miterlimit:4;stroke-dasharray:2.8, 1.8;stroke-dashoffset:0;stroke-opacity:1"
       id="path920" />
    <path
       d="m 378.439,505.328 c 5.329,2.885 15.775,6.834 20.884,3.816 5.107,-3.02 17.755,-11.012 6.904,-28.257"
       style="fill:none;stroke:#231f20;stroke-width:0.5;stroke-linecap:round;stroke-linejoin:round;stroke-miterlimit:4;stroke-dasharray:2.8, 1.8;stroke-dashoffset:0;stroke-opacity:1"
       id="path922" />
    <path
       d="m 373.787,497.071 c 4.642,-4.179 20.45,-20.014 20.09,-28.461"
       style="fill:none;stroke:#231f20;stroke-width:0.5;stroke-linecap:round;stroke-linejoin:round;stroke-miterlimit:4;stroke-dasharray:2.8, 1.8;stroke-dashoffset:0;stroke-opacity:1"
       id="path924" />
    <path
       d="m 359.835,479.342 c 1.648,-10.359 17.978,-31.334 22.233,-37.213"
       style="fill:none;stroke:#231f20;stroke-width:0.5;stroke-linecap:round;stroke-linejoin:round;stroke-miterlimit:4;stroke-dasharray:2.8, 1.8;stroke-dashoffset:0;stroke-opacity:1"
       id="path926" />
    <path
       d="m 414.808,517.025 c 1.692,-3.471 -2.826,-13.483 -11.536,-10.5 -6.968,2.386 -7.199,11.673 4.215,10.486"
       style="fill:none;stroke:#231f20;stroke-width:0.5;stroke-linecap:round;stroke-linejoin:round;stroke-miterlimit:4;stroke-dasharray:2.8, 1.8;stroke-dashoffset:0;stroke-opacity:1"
       id="path928" />
    <path
       d="m 421.608,584.356 c -5.571,-2.089 -45.619,-19.447 -54.475,-22.426"
       style="fill:none;stroke:#231f20;stroke-width:0.5;stroke-linecap:round;stroke-linejoin:round;stroke-miterlimit:4;stroke-dasharray:2.8, 1.8;stroke-dashoffset:0;stroke-opacity:1"
       id="path930" />
    <path
       d="m 436.465,515.643 c 1.858,-2.555 1.629,-11.143 -5.571,-11.143 -6.732,0 -10.73,6.032 -10.705,10.675"
       style="fill:none;stroke:#231f20;stroke-width:0.5;stroke-linecap:round;stroke-linejoin:round;stroke-miterlimit:4;stroke-dasharray:2.8, 1.8;stroke-dashoffset:0;stroke-opacity:1"
       id="path932" />
    <path
       d="m 415.624,581.913 c -4.23,1.98 -18.855,8.016 -23.73,8.945 -4.875,0.928 -12.769,-0.233 -24.144,-4.179 -11.374,-3.947 -20.891,-8.126 -30.874,-16.483 -9.982,-8.357 -13.93,-15.09 -15.09,-25.303 -1.16,-10.215 -2.297,-33.831 12.2,-28.523"
       style="fill:none;stroke:#231f20;stroke-width:0.5;stroke-linecap:round;stroke-linejoin:round;stroke-miterlimit:4;stroke-dasharray:2.8, 1.8;stroke-dashoffset:0;stroke-opacity:1"
       id="path934" />
    <path
       d="m 410.816,579.894 c -5.922,2.838 -19.853,7.713 -26.352,7.481 -6.499,-0.233 -12.999,-3.018 -22.749,-7.66 -9.75,-4.644 -18.339,-7.431 -26.928,-17.412 -8.59,-9.98 -10.215,-20.658 -10.215,-26.694 0,-6.037 1.867,-21.424 10.452,-16.168"
       style="fill:none;stroke:#231f20;stroke-width:0.5;stroke-linecap:round;stroke-linejoin:round;stroke-miterlimit:4;stroke-dasharray:2.8, 1.8;stroke-dashoffset:0;stroke-opacity:1"
       id="path936" />
    <path
       d="m 465.483,607.338 c -4.643,2.555 -19.034,7.893 -24.375,9.054 -5.34,1.161 -16.945,1.394 -31.107,-2.785 -14.161,-4.179 -29.25,-12.537 -36.911,-19.501"
       style="fill:none;stroke:#231f20;stroke-width:0.5;stroke-linecap:round;stroke-linejoin:round;stroke-miterlimit:4;stroke-dasharray:2.8, 1.8;stroke-dashoffset:0;stroke-opacity:1"
       id="path938" />
    <path
       d="m 466.413,609.428 c 8.356,20.66 -4.645,36.679 -10.68,42.019"
       style="fill:none;stroke:#231f20;stroke-width:0.5;stroke-linecap:round;stroke-linejoin:round;stroke-miterlimit:4;stroke-dasharray:2.8, 1.8;stroke-dashoffset:0;stroke-opacity:1"
       id="path940" />
    <path
       d="m 483.126,664.678 c -5.339,-4.411 -16.364,-11.221 -28.146,-12.111"
       style="fill:none;stroke:#231f20;stroke-width:0.5;stroke-linecap:round;stroke-linejoin:round;stroke-miterlimit:4;stroke-dasharray:2.8, 1.8;stroke-dashoffset:0;stroke-opacity:1"
       id="path942" />
    <path
       d="m 432.35,663.764 c 0.634,-4.425 -4.243,-18.354 -11.671,-25.782 C 413.25,630.553 403.5,624.75 397,621.267 c -6.499,-3.481 -28.552,-19.5 -32.963,-23.91"
       style="fill:none;stroke:#231f20;stroke-width:0.5;stroke-linecap:round;stroke-linejoin:round;stroke-miterlimit:4;stroke-dasharray:2.8, 1.8;stroke-dashoffset:0;stroke-opacity:1"
       id="path944" />
    <path
       d="m 395.144,653.768 c -0.232,-4.875 -5.571,-26 -14.625,-31.571 0,0 -4.644,-13.386 -6.849,-17.025"
       style="fill:none;stroke:#231f20;stroke-width:0.5;stroke-linecap:round;stroke-linejoin:round;stroke-miterlimit:4;stroke-dasharray:2.8, 1.8;stroke-dashoffset:0;stroke-opacity:1"
       id="path946" />
    <path
       d="m 380.519,622.197 c -2.766,-0.174 -14.393,5.106 -23.679,12.071 -2.848,2.136 -5.531,2.464 -7.428,3.946"
       style="fill:none;stroke:#231f20;stroke-width:0.5;stroke-linecap:round;stroke-linejoin:round;stroke-miterlimit:4;stroke-dasharray:2.8, 1.8;stroke-dashoffset:0;stroke-opacity:1"
       id="path948" />
    <path
       d="m 456.813,650.443 c -0.848,-3.407 -7.444,-19.133 -15.869,-28.448"
       style="fill:none;stroke:#231f20;stroke-width:0.5;stroke-linecap:round;stroke-linejoin:round;stroke-miterlimit:4;stroke-dasharray:2.8, 1.8;stroke-dashoffset:0;stroke-opacity:1"
       id="path950" />
    <path
       d="m 580.227,376.722 c -0.065,2.652 2.72,5.207 10.381,4.045 3.019,-0.457 9.984,-2.786 9.518,-6.964 -0.464,-4.179 -6.267,-3.482 -9.982,-2.786 -2.785,0.523 -6.934,1.978 -8.863,3.792"
       style="fill:none;stroke:#231f20;stroke-width:0.5;stroke-linecap:round;stroke-linejoin:round;stroke-miterlimit:4;stroke-dasharray:2.8, 1.8;stroke-dashoffset:0;stroke-opacity:1"
       id="path952" />
    <path
       d="m 623.811,517.76 c 0.095,-1.055 0.374,-5.503 1.618,-11.867"
       style="fill:none;stroke:#231f20;stroke-width:0.5;stroke-linecap:round;stroke-linejoin:round;stroke-miterlimit:4;stroke-dasharray:2.8, 1.8;stroke-dashoffset:0;stroke-opacity:1"
       id="path954" />
    <path
       d="m 637.668,501.267 c -5.821,2.575 -11.442,8.535 -13.343,11.513"
       style="fill:none;stroke:#231f20;stroke-width:0.5;stroke-linecap:round;stroke-linejoin:round;stroke-miterlimit:4;stroke-dasharray:2.8, 1.8;stroke-dashoffset:6.5038;stroke-opacity:1"
       id="path956" />
    <path
       d="m 456.192,517.76 c -0.096,-1.055 -0.374,-5.503 -1.619,-11.867"
       style="fill:none;stroke:#231f20;stroke-width:0.5;stroke-linecap:round;stroke-linejoin:round;stroke-miterlimit:4;stroke-dasharray:2.8, 1.8;stroke-dashoffset:0;stroke-opacity:1"
       id="path958" />
    <path
       d="m 442.335,501.267 c 5.821,2.575 11.441,8.535 13.342,11.513"
       style="fill:none;stroke:#231f20;stroke-width:0.5;stroke-linecap:round;stroke-linejoin:round;stroke-miterlimit:4;stroke-dasharray:2.8, 1.8;stroke-dashoffset:6.5038;stroke-opacity:1"
       id="path960" />
    <path
       d="m 642.68,510.257 c -0.697,-3.046 -0.751,-10.161 -0.751,-10.161"
       style="fill:none;stroke:#231f20;stroke-width:0.5;stroke-linecap:round;stroke-linejoin:round;stroke-miterlimit:4;stroke-dasharray:2.8, 1.8;stroke-dashoffset:0;stroke-opacity:1"
       id="path962" />
    <path
       d="m 437.323,510.257 c 0.696,-3.046 0.751,-10.161 0.751,-10.161"
       style="fill:none;stroke:#231f20;stroke-width:0.5;stroke-linecap:round;stroke-linejoin:round;stroke-miterlimit:4;stroke-dasharray:2.8, 1.8;stroke-dashoffset:0;stroke-opacity:1"
       id="path964" />
    <path
       d="m 658.2,509.737 c 0,0 4.233,-7.394 5.394,-9.124"
       style="fill:none;stroke:#231f20;stroke-width:0.5;stroke-linecap:round;stroke-linejoin:round;stroke-miterlimit:4;stroke-dasharray:2.8, 1.8;stroke-dashoffset:0;stroke-opacity:1"
       id="path966" />
    <path
       d="m 421.802,509.737 c 0,0 -4.232,-7.394 -5.394,-9.124"
       style="fill:none;stroke:#231f20;stroke-width:0.5;stroke-linecap:round;stroke-linejoin:round;stroke-miterlimit:4;stroke-dasharray:2.8, 1.8;stroke-dashoffset:0;stroke-opacity:1"
       id="path968" />
    <path
       d="m 780.966,664.911 c -19.842,1.469 -25.42,-8.358 -16.018,-15.67 9.402,-7.313 18.456,-14.973 31.687,-3.134 13.233,11.839 -6.267,18.107 -15.669,18.804"
       style="fill:#ffffff;fill-opacity:1;fill-rule:nonzero;stroke:none;stroke-width:0.1"
       id="path970" />
    <path
       d="m 780.966,664.911 c -19.842,1.469 -25.42,-8.358 -16.018,-15.67 9.402,-7.313 18.456,-14.973 31.687,-3.134 13.233,11.839 -6.267,18.107 -15.669,18.804 z"
       style="fill:none;stroke:#231f20;stroke-width:0.75;stroke-linecap:round;stroke-linejoin:round;stroke-miterlimit:4;stroke-dasharray:0, 2;stroke-dashoffset:0;stroke-opacity:1"
       id="path972" />
    <path
       d="m 794.544,563.543 c 12.184,13.892 53.976,2.126 74.869,-4.838 20.892,-6.964 28.901,-8.357 41.089,-13.232 12.187,-4.875 2.786,-9.402 -2.089,-11.143 -4.875,-1.742 -20.545,-4.179 -22.634,-9.054 -3.775,-8.806 13.58,-14.625 26.464,-13.58 12.884,1.045 9.053,5.92 18.456,6.616 9.401,0.696 18.106,5.571 20.544,12.536 2.437,6.964 -0.697,12.884 -3.83,14.276 -3.134,1.393 -11.143,2.787 -11.492,7.662 -0.347,4.875 8.358,8.008 14.625,10.446 6.269,2.437 9.403,7.66 9.75,14.276 0.513,9.742 -6.616,13.233 -11.142,14.278 -4.527,1.044 -8.705,-5.224 -17.411,-14.974 -8.705,-9.75 -22.634,-8.009 -29.947,-6.964 -7.312,1.044 -20.196,6.268 -19.847,10.794 0.347,4.527 20.544,8.01 25.071,9.054 4.526,1.045 16.018,9.75 18.804,13.928 2.785,4.179 -2.438,6.965 -4.179,8.009 -1.741,1.045 -7.313,0.698 -15.321,-2.089 -8.01,-2.786 -27.51,-10.446 -37.26,-12.883 -9.75,-2.438 -26.812,-1.742 -33.776,-1.045 -6.965,0.696 -15.322,-0.697 -22.286,-0.697 -6.964,0 -6.617,5.572 -2.438,10.795 4.179,5.223 11.84,8.009 23.331,14.625 11.49,6.617 18.803,14.277 21.241,25.768 2.438,11.491 -11.491,10.099 -17.063,7.661 -5.571,-2.437 -19.848,-11.84 -25.768,-16.713 -5.92,-4.874 -15.67,-12.886 -20.545,-16.019 -4.875,-3.134 -4.128,-8.418 -5.571,-20.197 -1.545,-12.615 -12.535,-13.928 -19.151,-10.795 -6.617,3.134 -5.398,16.192 -2.438,21.242 1.813,3.092 6.616,8.357 4.179,10.097"
       style="fill:none;stroke:#231f20;stroke-width:0.75;stroke-linecap:round;stroke-linejoin:round;stroke-miterlimit:4;stroke-dasharray:0, 2;stroke-dashoffset:0;stroke-opacity:1"
       id="path974" />
    <path
       d="m 540.002,749.875 c 0,0 -14.278,-0.871 -24.724,4.353 -12.188,6.094 -10.059,15.922 -5.571,22.111 5.048,6.964 19.66,4.915 30.295,1.038 1.866,-0.68 -1.568,0 0,0 1.566,0 -1.867,-0.68 0,0 10.633,3.877 25.245,5.926 30.293,-1.038 4.489,-6.189 6.617,-16.017 -5.571,-22.111 -10.446,-5.224 -24.722,-4.353 -24.722,-4.353"
       style="fill:#d3d2d2;fill-opacity:1;fill-rule:nonzero;stroke:none;stroke-width:0.1"
       id="path976" />
    <path
       d="m 540.002,749.875 c 0,0 -14.278,-0.871 -24.724,4.353 -12.188,6.094 -10.059,15.922 -5.571,22.111 5.048,6.964 19.66,4.915 30.295,1.038 1.866,-0.68 -1.568,0 0,0 1.566,0 -1.867,-0.68 0,0 10.633,3.877 25.245,5.926 30.293,-1.038 4.489,-6.189 6.617,-16.017 -5.571,-22.111 -10.446,-5.224 -24.722,-4.353 -24.722,-4.353 z"
       style="fill:none;stroke:#231f20;stroke-width:0.75;stroke-linecap:round;stroke-linejoin:round;stroke-miterlimit:4;stroke-dasharray:0, 2;stroke-dashoffset:0;stroke-opacity:1"
       id="path978" />
    <path
       d="m 299.037,664.911 c 19.842,1.469 25.42,-8.358 16.017,-15.67 -9.401,-7.313 -18.455,-14.973 -31.687,-3.134 -13.233,11.839 6.267,18.107 15.67,18.804"
       style="fill:#ffffff;fill-opacity:1;fill-rule:nonzero;stroke:none;stroke-width:0.1"
       id="path980" />
    <path
       d="m 299.037,664.911 c 19.842,1.469 25.42,-8.358 16.017,-15.67 -9.401,-7.313 -18.455,-14.973 -31.687,-3.134 -13.233,11.839 6.267,18.107 15.67,18.804 z"
       style="fill:none;stroke:#231f20;stroke-width:0.75;stroke-linecap:round;stroke-linejoin:round;stroke-miterlimit:4;stroke-dasharray:0, 2;stroke-dashoffset:0;stroke-opacity:1"
       id="path982" />
    <path
       d="m 540.002,675.357 c -42.135,0 -51.188,16.366 -54.844,21.241 -3.427,4.569 -3.407,5.492 -14.451,-0.696 -9.287,-5.204 -18.804,2.785 -23.679,11.142 -4.875,8.358 -0.479,14.826 2.089,16.367 3.482,2.089 11.491,-1.915 12.187,1.045 0.339,1.441 -1.61,6.767 -9.286,12.008 -13.521,9.233 -8.802,22.959 -6.035,33.608 3.676,14.143 1.716,17.4 -2.089,26.812 -3.309,8.183 1.175,18.906 9.75,29.25 10.969,13.233 26.433,8.183 37.259,5.92 14.438,-3.019 20.022,-10.098 49.099,-10.098 29.075,0 34.659,7.079 49.097,10.098 10.826,2.263 26.291,7.313 37.26,-5.92 8.574,-10.344 13.057,-21.067 9.75,-29.25 -3.805,-9.412 -5.765,-12.669 -2.09,-26.812 2.767,-10.649 7.486,-24.375 -6.035,-33.608 -7.676,-5.241 -9.625,-10.567 -9.286,-12.008 0.696,-2.96 8.705,1.044 12.187,-1.045 2.569,-1.541 6.964,-8.009 2.089,-16.367 -4.875,-8.357 -14.392,-16.346 -23.678,-11.142 -11.044,6.188 -11.025,5.265 -14.451,0.696 -3.656,-4.875 -12.71,-21.241 -54.843,-21.241 z"
       style="fill:none;stroke:#231f20;stroke-width:0.75;stroke-linecap:round;stroke-linejoin:round;stroke-miterlimit:4;stroke-dasharray:0, 2;stroke-dashoffset:0;stroke-opacity:1"
       id="path984" />
    <path
       d="m 242.974,666.477 c -18.456,16.309 -18.688,39.291 -17.992,52.523 0.696,13.232 2.09,23.679 6.268,24.143 4.178,0.464 6.964,-7.196 8.823,-18.107 1.857,-10.912 4.642,-27.625 12.303,-35.983 7.661,-8.356 21.356,-3.017 30.41,1.625 9.053,4.644 14.394,5.572 18.34,22.054 3.946,16.482 -4.179,24.839 -10.911,34.357 -6.731,9.518 -10.678,16.25 -12.304,25.304 -1.625,9.053 -8.124,9.982 -11.839,13.465 -3.715,3.481 5.34,12.535 6.964,14.856 1.624,2.322 6.268,6.733 10.912,9.983 4.643,3.249 9.517,7.428 17.41,11.839 7.893,4.41 10.678,-1.161 11.84,-4.643 1.222,-3.664 0.696,-9.286 1.856,-20.893 1.16,-11.606 4.179,-25.768 6.732,-36.911 2.553,-11.142 8.357,-19.5 16.018,-20.196 7.66,-0.696 7.893,-4.643 9.75,-9.054 1.857,-4.41 3.251,-10.911 15.322,-12.535 12.07,-1.625 27.393,8.124 33.428,18.803 6.035,10.68 8.59,19.267 9.054,30.411 0.464,11.143 -2.554,18.803 -9.982,26 -7.428,7.197 -16.017,8.821 -24.607,13.929 -8.59,5.107 -15.089,12.536 -19.268,16.481 -4.178,3.946 -5.34,13.929 -1.162,16.251 6.475,3.598 21.823,10.678 29.02,12.999 7.196,2.322 15.785,-2.785 13.695,-12.999 -2.089,-10.214 3.136,-13.689 7.429,-16.715 4.378,-3.085 11.143,-6.5 17.643,-5.107 6.5,1.393 12.972,13.491 15.322,18.804 2.05,4.636 6.225,19.346 9.286,25.536 2.655,5.37 19.267,8.125 29.946,9.981 10.679,1.858 30.41,3.715 37.375,3.947 6.964,0.232 23.214,-0.348 29.947,-0.348 6.732,0 22.981,0.58 29.946,0.348 6.964,-0.232 26.695,-2.089 37.375,-3.947 10.679,-1.856 27.291,-4.611 29.946,-9.981 3.061,-6.19 7.236,-20.9 9.286,-25.536 2.349,-5.313 8.821,-17.411 15.321,-18.804 6.5,-1.393 13.265,2.022 17.644,5.107 4.293,3.026 9.518,6.501 7.428,16.715 -2.089,10.214 6.499,15.321 13.696,12.999 7.196,-2.321 22.544,-9.401 29.019,-12.999 4.178,-2.322 3.016,-12.305 -1.161,-16.251 -4.179,-3.945 -10.678,-11.374 -19.268,-16.481 -8.59,-5.108 -17.18,-6.732 -24.608,-13.929 -7.428,-7.197 -10.445,-14.857 -9.981,-26 0.464,-11.144 3.018,-19.731 9.054,-30.411 6.035,-10.679 21.357,-20.428 33.428,-18.803 12.071,1.624 13.464,8.125 15.322,12.535 1.856,4.411 2.089,8.358 9.75,9.054 7.66,0.696 13.465,9.054 16.017,20.196 2.553,11.143 5.572,25.305 6.732,36.911 1.16,11.607 0.634,17.229 1.857,20.893 1.161,3.482 3.945,9.053 11.839,4.643 7.894,-4.411 12.767,-8.59 17.411,-11.839 4.644,-3.25 9.287,-7.661 10.911,-9.983 1.624,-2.321 10.679,-11.375 6.965,-14.856 -3.715,-3.483 -10.214,-4.412 -11.84,-13.465 -1.625,-9.054 -5.572,-15.786 -12.304,-25.304 -6.732,-9.518 -14.856,-17.875 -10.911,-34.357 3.947,-16.482 9.287,-17.41 18.34,-22.054 9.054,-4.642 22.75,-9.981 30.41,-1.625 7.662,8.358 10.446,25.071 12.304,35.983 1.858,10.911 4.644,18.571 8.822,18.107 4.179,-0.464 5.572,-10.911 6.268,-24.143 0.696,-13.232 0.464,-36.214 -17.991,-52.523"
       style="fill:none;stroke:#231f20;stroke-width:0.75;stroke-linecap:round;stroke-linejoin:round;stroke-miterlimit:4;stroke-dasharray:0, 2;stroke-dashoffset:0;stroke-opacity:1"
       id="path986" />
    <path
       d="m 285.458,563.543 c -12.184,13.892 -53.975,2.126 -74.869,-4.838 -20.892,-6.964 -28.901,-8.357 -41.089,-13.232 -12.187,-4.875 -2.786,-9.402 2.089,-11.143 4.875,-1.742 20.545,-4.179 22.635,-9.054 3.775,-8.806 -13.581,-14.625 -26.465,-13.58 -12.883,1.045 -9.053,5.92 -18.455,6.616 -9.402,0.696 -18.107,5.571 -20.545,12.536 -2.437,6.964 0.697,12.884 3.83,14.276 3.134,1.393 11.144,2.787 11.492,7.662 0.348,4.875 -8.358,8.008 -14.625,10.446 -6.268,2.437 -9.402,7.66 -9.75,14.276 -0.513,9.742 6.616,13.233 11.142,14.278 4.528,1.044 8.706,-5.224 17.411,-14.974 8.705,-9.75 22.634,-8.009 29.947,-6.964 7.312,1.044 20.196,6.268 19.848,10.794 -0.348,4.527 -20.545,8.01 -25.071,9.054 -4.527,1.045 -16.019,9.75 -18.804,13.928 -2.786,4.179 2.438,6.965 4.179,8.009 1.741,1.045 7.312,0.698 15.321,-2.089 8.009,-2.786 27.509,-10.446 37.259,-12.883 9.75,-2.438 26.812,-1.742 33.777,-1.045 6.964,0.696 15.322,-0.697 22.285,-0.697 6.965,0 6.617,5.572 2.438,10.795 -4.179,5.223 -11.839,8.009 -23.33,14.625 -11.491,6.617 -18.804,14.277 -21.241,25.768 -2.438,11.491 11.491,10.099 17.062,7.661 5.571,-2.437 19.849,-11.84 25.768,-16.713 5.92,-4.874 15.67,-12.886 20.545,-16.019 4.875,-3.134 4.128,-8.418 5.571,-20.197 1.545,-12.615 12.536,-13.928 19.152,-10.795 6.617,3.134 5.398,16.192 2.438,21.242 -1.814,3.092 -6.616,8.357 -4.179,10.097"
       style="fill:none;stroke:#231f20;stroke-width:0.75;stroke-linecap:round;stroke-linejoin:round;stroke-miterlimit:4;stroke-dasharray:0, 2;stroke-dashoffset:0;stroke-opacity:1"
       id="path988" />
  </g>
</svg>
