<?xml version="1.0" encoding="UTF-8" standalone="no"?>
<!-- Created with Inkscape (http://www.inkscape.org/) -->

<svg
   version="1.1"
   id="svg2"
   width="1440"
   height="1344"
   viewBox="0 0 1440 1344"
   xmlns="http://www.w3.org/2000/svg"
   xmlns:svg="http://www.w3.org/2000/svg">
  <defs
     id="defs6" />
  <g
     id="g8">
    <path
       d="m 902.841,618.598 c 7.997,2.822 22.286,8.358 28.902,5.92 6.616,-2.437 12.187,-11.492 7.661,-20.894 0,0 6.964,3.831 13.232,0.697 6.268,-3.134 17.666,-16.021 18.107,-30.991 0.348,-11.839 -4.178,-13.58 -7.661,-14.973 -3.482,-1.393 -3.133,-3.83 -0.696,-7.661 2.438,-3.83 7.66,-10.794 6.268,-18.108 -1.393,-7.312 -3.483,-13.231 -17.759,-19.151 -14.277,-5.92 -18.804,-3.134 -28.902,-5.571 -10.098,-2.438 -31.224,-15.436 -41.089,-4.179 -6.069,6.924 -4.615,23.676 8.009,31.687 12.072,7.662 7.661,7.662 2.437,5.224 -5.224,-2.437 -6.942,-4.68 -9.75,1.741 -2.936,6.719 -6.018,15.288 -7.312,18.803 -0.917,2.489 -2.786,5.572 -3.134,8.01 -0.349,2.437 0.852,11.254 1.045,13.58 0.142,1.735 1.392,6.964 2.785,9.75 1.392,2.785 10.446,17.758 12.536,19.499 2.089,1.741 11.898,5.408 15.321,6.617"
       style="fill:#ffffff;fill-opacity:1;fill-rule:nonzero;stroke:none;stroke-width:0.1"
       id="path668" />
    <path
       d="m 177.162,618.598 c -7.997,2.822 -22.286,8.358 -28.903,5.92 -6.616,-2.437 -12.187,-11.492 -7.661,-20.894 0,0 -6.964,3.831 -13.231,0.697 -6.269,-3.134 -17.667,-16.021 -18.108,-30.991 -0.348,-11.839 4.179,-13.58 7.661,-14.973 3.482,-1.393 3.134,-3.83 0.697,-7.661 -2.438,-3.83 -7.661,-10.794 -6.269,-18.108 1.394,-7.312 3.483,-13.231 17.76,-19.151 14.276,-5.92 18.803,-3.134 28.901,-5.571 10.099,-2.438 31.224,-15.436 41.09,-4.179 6.068,6.924 4.615,23.676 -8.01,31.687 -12.071,7.662 -7.66,7.662 -2.437,5.224 5.224,-2.437 6.943,-4.68 9.75,1.741 2.937,6.719 6.017,15.288 7.312,18.803 0.917,2.489 2.786,5.572 3.135,8.01 0.348,2.437 -0.853,11.254 -1.045,13.58 -0.142,1.735 -1.392,6.964 -2.786,9.75 -1.392,2.785 -10.446,17.758 -12.535,19.499 -2.09,1.741 -11.899,5.408 -15.321,6.617"
       style="fill:#ffffff;fill-opacity:1;fill-rule:nonzero;stroke:none;stroke-width:0.1"
       id="path670" />
    <path
       d="m 540.002,350.124 c -1.625,0 -5.05,-0.927 -6.791,-4.874 -3.273,-7.414 -17.353,-13.755 -31.977,-13.755 -14.624,0 -28.322,4.238 -37.608,7.024 -9.285,2.785 -22.75,7.427 -54.089,22.517 -31.34,15.088 -53.626,34.59 -53.626,34.59 -7.661,3.948 -19.964,15.087 -22.517,17.874 -2.553,2.785 -6.5,8.822 -7.197,11.607 -0.697,2.786 -2.321,6.5 -3.249,14.394 -1.772,15.074 -1.393,10.678 -3.251,34.587 -0.664,8.551 -2.274,16.584 -2.089,23.679 0.33,12.745 3.018,21.938 3.018,21.938 -5.223,-1.742 -19.152,11.491 -25.072,20.197 -5.92,8.705 -3.482,19.151 -3.482,19.151 -15.322,2.089 -34.125,11.491 -34.125,11.491 -42.483,10.098 -56.41,47.009 -58.152,61.634 -1.741,14.625 3.831,15.322 3.831,15.322 -3.831,0.348 -6.964,4.874 -6.964,8.357 0,3.482 0.347,26.812 2.088,43.875 1.742,17.062 4.179,34.474 8.009,45.965 3.83,11.491 8.705,21.937 14.625,29.597 5.92,7.662 21.59,23.679 28.554,27.509 6.965,3.831 9.402,-1.044 9.402,-1.044 -0.348,3.83 4.875,12.884 8.357,15.322 3.482,2.437 19.5,13.232 26.116,16.366 6.616,3.134 24.375,10.446 38.652,13.232 14.277,2.785 17.411,-10.447 17.411,-10.447 -6.268,16.366 12.187,22.286 17.411,22.635 5.223,0.347 29.25,5.222 37.955,7.66 8.706,2.437 11.84,0.696 17.062,-0.348 5.224,-1.045 12.884,-4.875 14.625,-4.875 1.741,0 10.447,7.66 13.581,10.446 3.134,2.786 12.884,7.661 20.893,8.706 8.009,1.044 26.464,0.696 34.473,0.696 8.009,0 28.206,1.741 34.126,1.741 5.918,0 26.116,-1.741 34.124,-1.741 8.009,0 26.464,0.348 34.473,-0.696 8.01,-1.045 17.76,-5.92 20.894,-8.706 3.133,-2.786 11.839,-10.446 13.58,-10.446 1.741,0 9.402,3.83 14.625,4.875 5.223,1.044 8.357,2.785 17.062,0.348 8.705,-2.438 32.733,-7.313 37.955,-7.66 5.224,-0.349 23.679,-6.269 17.411,-22.635 0,0 3.134,13.232 17.412,10.447 14.276,-2.786 32.035,-10.098 38.651,-13.232 6.616,-3.134 22.634,-13.929 26.116,-16.366 3.483,-2.438 8.705,-11.492 8.358,-15.322 0,0 2.437,4.875 9.401,1.044 6.965,-3.83 22.634,-19.847 28.554,-27.509 5.92,-7.66 10.795,-18.106 14.625,-29.597 3.831,-11.491 6.268,-28.903 8.009,-45.965 1.741,-17.063 2.089,-40.393 2.089,-43.875 0,-3.483 -3.133,-8.009 -6.965,-8.357 0,0 5.573,-0.697 3.832,-15.322 -1.742,-14.625 -15.67,-51.536 -58.153,-61.634 0,0 -18.803,-9.402 -34.125,-11.491 0,0 2.438,-10.446 -3.482,-19.151 -5.919,-8.706 -19.848,-21.939 -25.072,-20.197 0,0 2.688,-9.193 3.019,-21.938 0.184,-7.095 -1.426,-15.128 -2.09,-23.679 -1.857,-23.909 -1.479,-19.513 -3.25,-34.587 -0.928,-7.894 -2.553,-11.608 -3.25,-14.394 -0.696,-2.785 -4.643,-8.822 -7.197,-11.607 -2.553,-2.787 -14.856,-13.926 -22.517,-17.874 0,0 -22.286,-19.502 -53.625,-34.59 -31.34,-15.09 -44.805,-19.732 -54.09,-22.517 -9.285,-2.786 -22.984,-7.024 -37.607,-7.024 -14.624,0 -28.705,6.341 -31.977,13.755 -1.742,3.947 -5.166,4.874 -6.79,4.874"
       style="fill:#ffffff;fill-opacity:1;fill-rule:nonzero;stroke:none;stroke-width:0.1"
       id="path672" />
    <path
       d="m 609.876,618.482 c 5.572,-2.322 -1.392,-3.714 -1.392,-10.678 0,-4.207 10.678,-11.143 12.536,-12.537 1.857,-1.393 3.862,-8.9 -3.566,-11.686 -7.43,-2.787 -27.221,-5.028 -41.614,-5.493 -14.392,-0.465 -21.948,1.162 -35.838,1.162 -13.891,0 -21.448,-1.627 -35.839,-1.162 -14.393,0.465 -34.184,2.706 -41.614,5.493 -7.429,2.786 -5.424,10.293 -3.566,11.686 1.857,1.394 12.535,8.33 12.535,12.537 0,6.964 -6.964,8.356 -1.392,10.678 6.964,0.464 19.036,-6.499 30.178,-12.999 11.144,-6.502 32.036,-6.037 39.698,-6.037 7.66,0 28.553,-0.465 39.696,6.037 11.142,6.5 23.215,13.463 30.178,12.999"
       style="fill:#d3d2d2;fill-opacity:1;fill-rule:nonzero;stroke:none;stroke-width:0.1"
       id="path674" />
    <path
       d="m 857.574,690.911 c -0.234,4.41 -4.179,18.571 -3.947,25.071 0.233,6.5 0.232,22.982 -1.858,23.446 -2.089,0.465 -3.946,-10.678 -4.409,-15.553 -0.464,-4.875 -8.59,-9.983 -22.519,-9.286 -13.928,0.697 -22.518,6.268 -27.857,8.59 -5.339,2.321 -17.875,5.339 -17.875,5.339 -4.875,2.089 -14.857,14.857 -17.876,23.446 -3.018,8.589 -2.089,16.714 -1.624,26.929 0.466,10.215 1.393,27.393 1.393,27.393 -2.089,-3.483 -3.947,-17.179 -3.947,-24.84 0,-7.66 -2.786,-17.643 -6.036,-22.982 -3.249,-5.34 -13.464,-14.392 -28.786,-23.214 -15.321,-8.822 -22.053,-9.286 -27.857,-8.589 -5.804,0.696 -27.161,13 -35.286,20.66 -6.621,6.244 -13.928,17.411 -18.34,27.393 -4.411,9.983 -3.016,20.894 -2.32,26.233 0.696,5.338 -2.554,11.142 -2.554,11.142 0,3.018 4.644,6.5 8.357,7.661 3.714,1.161 9.054,0.929 10.68,1.625 1.625,0.697 11.606,5.804 13.927,6.964 2.323,1.161 9.75,7.197 12.073,9.054 2.322,1.857 1.16,3.482 -1.625,1.625 -1.332,-0.888 -6.619,-4.822 -12.536,-8.125 -6.464,-3.608 -13.617,-6.591 -15.554,-7.196 -3.715,-1.161 -9.75,3.482 -13,2.553 -3.249,-0.928 -4.179,-5.339 -4.875,-8.473 -0.697,-3.134 -0.697,-4.875 -4.179,-5.224 -3.482,-0.347 -14.973,-3.83 -21.589,-5.571 -6.616,-1.741 -21.241,-2.089 -30.295,-2.089 -9.053,0 -32.036,-1.393 -37.258,-1.393 -5.224,0 -28.207,1.393 -37.26,1.393 -9.053,0 -23.678,0.348 -30.294,2.089 -6.616,1.741 -18.108,5.224 -21.59,5.571 -3.482,0.349 -3.482,2.09 -4.179,5.224 -0.696,3.134 -1.625,7.545 -4.875,8.473 -3.249,0.929 -9.284,-3.714 -12.999,-2.553 -1.938,0.605 -9.091,3.588 -15.555,7.196 -5.917,3.303 -11.204,7.237 -12.535,8.125 -2.786,1.857 -3.947,0.232 -1.626,-1.625 2.323,-1.857 9.75,-7.893 12.073,-9.054 2.322,-1.16 12.302,-6.267 13.928,-6.964 1.625,-0.696 6.966,-0.464 10.679,-1.625 3.714,-1.161 8.357,-4.643 8.357,-7.661 0,0 -3.25,-5.804 -2.554,-11.142 0.696,-5.339 2.091,-16.25 -2.321,-26.233 -4.411,-9.982 -11.718,-21.149 -18.339,-27.393 -8.125,-7.66 -29.482,-19.964 -35.286,-20.66 -5.803,-0.697 -12.536,-0.233 -27.857,8.589 -15.321,8.822 -25.536,17.874 -28.786,23.214 -3.25,5.339 -6.035,15.322 -6.035,22.982 0,7.661 -1.859,21.357 -3.948,24.84 0,0 0.928,-17.178 1.393,-27.393 0.465,-10.215 1.395,-18.34 -1.624,-26.929 -3.019,-8.589 -13.001,-21.357 -17.876,-23.446 0,0 -12.536,-3.018 -17.875,-5.339 -5.339,-2.322 -13.928,-7.893 -27.856,-8.59 -13.929,-0.697 -22.055,4.411 -22.519,9.286 -0.464,4.875 -2.32,16.018 -4.41,15.553 -2.089,-0.464 -2.091,-16.946 -1.857,-23.446 0.232,-6.5 -3.714,-20.661 -3.947,-25.071 -0.232,-4.411 2.553,-4.178 7.661,0.928 5.108,5.108 14.856,11.143 24.142,13.464 9.286,2.321 18.339,4.876 26.465,9.519 8.126,4.642 12.073,3.713 26.929,1.856 14.857,-1.856 29.712,-5.571 37.838,-7.661 8.126,-2.089 13.698,-3.249 21.126,-2.553 7.428,0.697 12.305,4.41 19.733,1.16 7.427,-3.249 10.446,-11.374 9.517,-16.25 -0.928,-4.874 -8.821,-10.91 -10.91,-16.249 -2.09,-5.339 -13.696,-16.715 -27.161,-22.518 -13.465,-5.804 -21.127,-13.696 -42.251,-17.875 -21.124,-4.179 -36.445,-6.732 -40.856,-7.66 -4.412,-0.93 -2.785,-6.269 0.232,-8.358 3.017,-2.09 21.82,-15.09 32.267,-18.106 10.447,-3.02 29.947,-6.965 37.607,-6.965 7.661,0 8.125,-5.34 4.875,-10.446 -3.249,-5.109 -11.375,-16.252 -34.125,-18.804 -22.75,-2.554 -40.162,2.786 -44.571,8.822 -4.41,6.035 -10.678,15.785 -13.697,20.195 -3.018,4.412 -15.321,19.964 -19.5,23.678 -4.178,3.715 -4.875,1.394 -3.018,-1.16 1.858,-2.554 16.946,-20.429 19.5,-23.911 2.555,-3.482 12.305,-19.035 14.161,-22.053 1.857,-3.016 8.396,-7.262 12.026,-8.275 3.874,-1.156 7.869,-2.119 11.653,-2.636 29.25,2.438 45.268,6.268 57.456,14.974 12.187,8.705 19.151,11.49 27.509,13.928 8.357,2.437 22.982,9.053 37.258,15.322 14.278,6.266 29.018,10.214 36.331,11.955 4.178,0.93 12.536,2.786 19.5,3.25 6.964,0.464 19.036,-6.501 30.178,-12.999 11.144,-6.499 32.036,-6.037 39.698,-6.037 7.66,0 28.553,-0.462 39.696,6.037 11.142,6.498 23.215,13.463 30.178,12.999 6.965,-0.464 15.322,-2.32 19.5,-3.25 7.313,-1.741 22.054,-5.689 36.331,-11.955 14.277,-6.269 28.902,-12.885 37.258,-15.322 8.358,-2.438 15.323,-5.223 27.51,-13.928 12.188,-8.706 28.205,-12.536 57.455,-14.974 3.784,0.517 7.78,1.48 11.654,2.636 3.629,1.013 10.168,5.259 12.025,8.275 1.856,3.018 11.606,18.571 14.161,22.053 2.555,3.482 17.642,21.357 19.5,23.911 1.858,2.554 1.16,4.875 -3.018,1.16 -4.179,-3.714 -16.482,-19.266 -19.5,-23.678 -3.018,-4.41 -9.287,-14.16 -13.696,-20.195 -4.41,-6.036 -21.822,-11.376 -44.572,-8.822 -22.749,2.552 -30.875,13.695 -34.125,18.804 -3.249,5.106 -2.785,10.446 4.875,10.446 7.661,0 27.161,3.945 37.607,6.965 10.447,3.016 29.25,16.016 32.268,18.106 3.017,2.089 4.643,7.428 0.232,8.358 -4.411,0.928 -19.733,3.481 -40.857,7.66 -21.124,4.179 -28.786,12.071 -42.251,17.875 -13.465,5.803 -25.071,17.179 -27.16,22.518 -2.09,5.339 -9.982,11.375 -10.91,16.249 -0.93,4.876 2.089,13.001 9.516,16.25 7.429,3.25 12.305,-0.463 19.734,-1.16 7.427,-0.696 12.999,0.464 21.125,2.553 8.126,2.09 22.982,5.805 37.838,7.661 14.857,1.857 18.804,2.786 26.93,-1.856 8.126,-4.643 17.178,-7.198 26.464,-9.519 9.286,-2.321 19.035,-8.356 24.143,-13.464 5.107,-5.106 7.893,-5.339 7.661,-0.928 z M 579.698,612.447 c -8.822,-8.823 -26.93,-9.75 -39.696,-9.75 -12.768,0 -30.876,0.927 -39.698,9.75 -8.82,8.821 -0.928,13.927 4.643,19.5 5.571,5.571 26.009,5.108 35.055,5.108 9.044,0 29.482,0.463 35.053,-5.108 5.571,-5.573 13.464,-10.679 4.643,-19.5"
       style="fill:#b2b1b1;fill-opacity:1;fill-rule:nonzero;stroke:none;stroke-width:0.1"
       id="path676" />
    <path
       d="m 787.93,559.053 c 0,0 2.438,-10.446 -3.482,-19.151 -5.919,-8.706 -19.848,-21.939 -25.072,-20.197 -4.874,20.197 -34.124,38.303 -44.571,42.134 -10.446,3.83 -19.5,-0.697 -19.5,-0.697 -33.777,24.375 -51.884,16.366 -51.884,16.366 2.089,1.045 2.786,3.483 2.438,5.572 -0.349,2.089 -3.483,10.794 -5.572,18.803 -2.089,8.009 -10.911,13.349 -10.911,13.349 7.313,-1.741 22.054,-5.689 36.331,-11.955 14.277,-6.269 28.902,-12.885 37.258,-15.322 8.358,-2.438 15.323,-5.223 27.51,-13.928 12.188,-8.706 28.205,-12.536 57.455,-14.974"
       style="fill:#706d6e;fill-opacity:1;fill-rule:nonzero;stroke:none;stroke-width:0.1"
       id="path678" />
    <path
       d="m 787.93,559.053 c 0,0 2.438,-10.446 -3.482,-19.151 -5.919,-8.706 -19.848,-21.939 -25.072,-20.197 -4.874,20.197 -34.124,38.303 -44.571,42.134 -10.446,3.83 -19.5,-0.697 -19.5,-0.697 -33.777,24.375 -51.884,16.366 -51.884,16.366 2.089,1.045 2.786,3.483 2.438,5.572 -0.349,2.089 -3.483,10.794 -5.572,18.803 -2.089,8.009 -10.911,13.349 -10.911,13.349 7.313,-1.741 22.054,-5.689 36.331,-11.955 14.277,-6.269 28.902,-12.885 37.258,-15.322 8.358,-2.438 15.323,-5.223 27.51,-13.928 12.188,-8.706 28.205,-12.536 57.455,-14.974 z"
       style="fill:none;stroke:#231f20;stroke-width:0.75;stroke-linecap:round;stroke-linejoin:round;stroke-miterlimit:4;stroke-dasharray:none;stroke-opacity:1"
       id="path680" />
    <path
       d="m 902.841,618.598 c 7.997,2.822 22.286,8.358 28.902,5.92 6.616,-2.437 12.187,-11.492 7.661,-20.894 0,0 6.964,3.831 13.232,0.697 6.268,-3.134 17.666,-16.021 18.107,-30.991 0.348,-11.839 -4.178,-13.58 -7.661,-14.973 -3.482,-1.393 -3.133,-3.83 -0.696,-7.661 2.438,-3.83 7.66,-10.794 6.268,-18.108 -1.393,-7.312 -3.483,-13.231 -17.759,-19.151 -14.277,-5.92 -18.804,-3.134 -28.902,-5.571 -10.098,-2.438 -31.224,-15.436 -41.089,-4.179 -6.069,6.924 -4.615,23.676 8.009,31.687 12.072,7.662 7.661,7.662 2.437,5.224 -5.224,-2.437 -6.942,-4.68 -9.75,1.741 -2.936,6.719 -6.018,15.288 -7.312,18.803 -0.917,2.489 -2.786,5.572 -3.134,8.01 -0.349,2.437 0.852,11.254 1.045,13.58 0.142,1.735 1.392,6.964 2.785,9.75 1.392,2.785 10.446,17.758 12.536,19.499 2.089,1.741 11.898,5.408 15.321,6.617"
       style="fill:#ffffff;fill-opacity:1;fill-rule:nonzero;stroke:none;stroke-width:0.1"
       id="path682" />
    <path
       d="m 902.841,618.598 c 7.997,2.822 22.286,8.358 28.902,5.92 6.616,-2.437 12.187,-11.492 7.661,-20.894 0,0 6.964,3.831 13.232,0.697 6.268,-3.134 17.666,-16.021 18.107,-30.991 0.348,-11.839 -4.178,-13.58 -7.661,-14.973 -3.482,-1.393 -3.133,-3.83 -0.696,-7.661 2.438,-3.83 7.66,-10.794 6.268,-18.108 -1.393,-7.312 -3.483,-13.231 -17.759,-19.151 -14.277,-5.92 -18.804,-3.134 -28.902,-5.571 -10.098,-2.438 -31.224,-15.436 -41.089,-4.179 -6.069,6.924 -4.615,23.676 8.009,31.687 12.072,7.662 7.661,7.662 2.437,5.224 -5.224,-2.437 -6.942,-4.68 -9.75,1.741 -2.936,6.719 -6.018,15.288 -7.312,18.803 -0.917,2.489 -2.786,5.572 -3.134,8.01 -0.349,2.437 0.852,11.254 1.045,13.58 0.142,1.735 1.392,6.964 2.785,9.75 1.392,2.785 10.446,17.758 12.536,19.499 2.089,1.741 11.898,5.408 15.321,6.617"
       style="fill:#ffffff;fill-opacity:1;fill-rule:nonzero;stroke:none;stroke-width:0.1"
       id="path684" />
    <path
       d="m 874.288,561.142 c -0.917,2.489 -2.786,5.572 -3.134,8.01 -0.349,2.437 0.852,11.254 1.045,13.58 0.142,1.735 1.392,6.964 2.785,9.75 4.642,3.017 15.785,9.981 22.75,13.463 6.964,3.481 22.751,10.68 29.018,7.429 6.268,-3.25 1.162,-11.142 -2.088,-14.159 -3.251,-3.02 -12.074,-6.5 -18.574,-9.053 -6.499,-2.555 -11.142,-6.038 -10.91,-8.358 0.233,-2.323 5.107,-9.518 13.696,-10.912 8.59,-1.392 15.788,1.858 22.519,5.341 6.731,3.482 13.465,9.054 16.714,14.159 2.118,3.33 6.501,4.179 9.054,-1.161 2.553,-5.338 6.499,-14.625 3.946,-17.177 -2.554,-2.554 -9.649,-8.123 -13.696,-10.678 -4.411,-2.786 -4.179,-8.59 -1.184,-10.947 2.129,-1.673 11.398,-7.625 10.47,-15.286 -0.929,-7.66 -10.215,-11.143 -18.573,-13.231 -8.357,-2.09 -16.947,-6.731 -27.161,-7.893 -10.213,-1.161 -18.307,-0.672 -17.641,7.661 0.464,5.803 8.443,10.349 13,15.087 5.803,6.037 5.285,7.008 4.411,10.216 -1.394,5.106 -20.197,11.607 -36.447,14.159"
       style="fill:#d3d2d2;fill-opacity:1;fill-rule:nonzero;stroke:none;stroke-width:0.1"
       id="path686" />
    <path
       d="m 939.404,603.624 c -2.438,-4.643 -2.205,-11.838 -25.188,-22.75"
       style="fill:none;stroke:#231f20;stroke-width:0.5;stroke-linecap:butt;stroke-linejoin:miter;stroke-miterlimit:4;stroke-dasharray:none;stroke-opacity:1"
       id="path688" />
    <path
       d="m 820.663,801.759 c -1.161,-10.098 -12.537,-23.562 -24.724,-38.652"
       style="fill:none;stroke:#231f20;stroke-width:0.5;stroke-linecap:butt;stroke-linejoin:miter;stroke-miterlimit:4;stroke-dasharray:none;stroke-opacity:1"
       id="path690" />
    <path
       d="m 730.126,836.232 c -3.133,-6.268 -7.312,-17.063 -10.446,-24.375 -3.134,-7.313 -4.527,-7.66 -12.884,-12.884 -8.357,-5.223 -16.018,-9.75 -21.241,-10.795 -5.223,-1.044 -6.616,-4.178 -7.661,-7.66 -1.044,-3.482 -2.089,-11.143 -6.268,-14.625"
       style="fill:none;stroke:#231f20;stroke-width:0.5;stroke-linecap:butt;stroke-linejoin:miter;stroke-miterlimit:4;stroke-dasharray:none;stroke-opacity:1"
       id="path692" />
    <path
       d="m 660.832,683.366 c 6.671,1.906 17.411,-10.447 19.848,-14.973 2.438,-4.527 3.83,-13.232 -1.045,-15.67 -4.875,-2.437 -16.017,-4.179 -21.589,7.66 -4.641,9.865 -2.089,21.59 2.786,22.983"
       style="fill:#d3d2d2;fill-opacity:1;fill-rule:nonzero;stroke:none;stroke-width:0.1"
       id="path694" />
    <path
       d="m 577.26,562.536 c 5.224,2.437 30.295,7.66 35.866,8.705 5.572,1.045 18.456,4.178 20.893,4.526 2.438,0.349 7.313,1.394 9.402,1.741"
       style="fill:none;stroke:#231f20;stroke-width:0.75;stroke-linecap:round;stroke-linejoin:round;stroke-miterlimit:4;stroke-dasharray:none;stroke-opacity:1"
       id="path696" />
    <path
       d="m 544.68,358.481 c 10.795,0 36.41,-1.044 43.027,-2.785 6.616,-1.741 21.124,-6.152 28.669,-17.177"
       style="fill:none;stroke:#231f20;stroke-width:0.5;stroke-linecap:butt;stroke-linejoin:miter;stroke-miterlimit:4;stroke-dasharray:none;stroke-opacity:1"
       id="path698" />
    <path
       d="m 541.514,372.271 c 0,1.88 0.576,4.666 8.934,3.621 8.357,-1.045 27.857,-6.616 37.259,-20.196"
       style="fill:none;stroke:#231f20;stroke-width:0.5;stroke-linecap:butt;stroke-linejoin:miter;stroke-miterlimit:4;stroke-dasharray:none;stroke-opacity:1"
       id="path700" />
    <path
       d="m 707.84,390.866 c -5.571,-3.483 -22.981,-16.019 -26.812,-17.76 -3.83,-1.74 -8.937,-5.688 -10.562,-12.07"
       style="fill:none;stroke:#231f20;stroke-width:0.5;stroke-linecap:butt;stroke-linejoin:miter;stroke-miterlimit:4;stroke-dasharray:none;stroke-opacity:1"
       id="path702" />
    <path
       d="m 700.503,412.082 c -2.785,3.134 -9.028,9.426 -16.34,11.515 -7.313,2.09 -16.367,3.135 -24.028,-0.696 -7.66,-3.83 -12.535,-9.054 -12.883,-18.455 -0.349,-9.403 1.7,-19.258 3.83,-22.286 2.205,-3.134 6.964,-8.357 13.581,-7.66 6.615,0.696 19.151,1.161 23.679,7.545"
       style="fill:none;stroke:#231f20;stroke-width:0.25;stroke-linecap:butt;stroke-linejoin:miter;stroke-miterlimit:4;stroke-dasharray:none;stroke-opacity:1"
       id="path704" />
    <path
       d="m 712.949,632.178 c 5.126,-0.098 19.5,-2.553 25.535,-3.714 6.035,-1.161 37.607,-10.678 41.089,-12.072 3.482,-1.392 7.197,-3.249 3.482,-6.964 -3.715,-3.714 -12.537,-7.892 -26,-9.516 -13.464,-1.627 -19.269,-1.859 -27.161,0.927 -7.892,2.785 -18.314,6.404 -21.563,14.065 -2.527,5.954 -7.454,17.507 4.618,17.274"
       style="fill:#ffffff;fill-opacity:1;fill-rule:nonzero;stroke:none;stroke-width:0.1"
       id="path706" />
    <path
       d="m 704.591,412.34 c 2.065,0.564 8.728,-1.782 9.473,-4.067 0.745,-2.285 2.742,-7.489 2.742,-7.489 0,0 1.288,-6.167 -2.93,-8.178 -4.874,-2.32 -11.839,-2.552 -14.624,3.717 -2.96,6.656 2.787,15.321 5.339,16.017 z"
       style="fill:none;stroke:#231f20;stroke-width:0.5;stroke-linecap:butt;stroke-linejoin:miter;stroke-miterlimit:4;stroke-dasharray:none;stroke-opacity:1"
       id="path708" />
    <path
       d="m 871.154,569.152 c -0.349,2.437 0.852,11.254 1.045,13.58 3.017,3.251 5.571,5.803 10.446,8.588 4.875,2.786 14.625,7.198 19.5,6.965 0,0 -3.715,-2.09 -11.84,-8.358 -8.124,-6.267 -9.055,-11.837 -7.196,-14.622 1.857,-2.786 4.409,-3.714 9.75,-5.571 5.34,-1.859 13.93,-6.502 22.055,-6.734 8.124,-0.231 13.927,1.856 18.802,4.875 4.875,3.017 11.838,8.823 13.464,10.447 1.625,1.624 5.804,1.855 3.019,-1.627 -2.786,-3.48 -11.841,-12.071 -14.859,-17.642 -3.016,-5.571 -3.945,-9.515 -3.249,-12.302 0.697,-2.786 2.555,-7.429 5.804,-8.357 3.25,-0.931 5.338,-2.323 6.499,-3.716 1.162,-1.392 -1.392,-0.231 -2.785,-0.463 -1.394,-0.233 -8.125,-0.465 -13,-3.251 -4.875,-2.785 -7.659,-4.875 -8.82,-5.802 -1.163,-0.93 -2.323,0.231 -0.234,1.855 2.09,1.627 7.893,5.571 8.125,11.608 0.233,6.038 -3.482,9.75 -6.035,11.609 -2.554,1.855 -9.982,3.248 -13.929,5.337 -3.946,2.09 -21.822,10.68 -36.562,13.581"
       style="fill:#b2b1b1;fill-opacity:1;fill-rule:nonzero;stroke:none;stroke-width:0.1"
       id="path710" />
    <path
       d="m 658.4,526.712 c -2.313,1.031 -5.932,1.627 -9.06,1.236 -2.43,-0.305 -4.362,-0.908 -5.409,-1.287 0,0 4.158,-7.96 7.358,-7.786 3.199,0.171 6.56,3.338 7.111,7.837 z"
       style="fill:none;stroke:#231f20;stroke-width:0.5;stroke-linecap:butt;stroke-linejoin:miter;stroke-miterlimit:4;stroke-dasharray:none;stroke-opacity:1"
       id="path712" />
    <path
       d="m 421.603,526.712 c 2.312,1.031 5.932,1.627 9.059,1.236 2.43,-0.305 4.362,-0.908 5.409,-1.287 0,0 -4.158,-7.96 -7.358,-7.786 -3.199,0.171 -6.559,3.338 -7.11,7.837 z"
       style="fill:none;stroke:#231f20;stroke-width:0.5;stroke-linecap:butt;stroke-linejoin:miter;stroke-miterlimit:4;stroke-dasharray:none;stroke-opacity:1"
       id="path714" />
    <path
       d="m 712.949,632.178 c 5.126,-0.098 19.5,-2.553 25.535,-3.714 6.035,-1.161 37.607,-10.678 41.089,-12.072 3.482,-1.392 7.197,-3.249 3.482,-6.964 -3.715,-3.714 -12.537,-7.892 -26,-9.516 -13.464,-1.627 -19.269,-1.859 -27.161,0.927 -7.892,2.785 -18.314,6.404 -21.563,14.065 -2.527,5.954 -7.454,17.507 4.618,17.274"
       style="fill:#d3d2d2;fill-opacity:1;fill-rule:nonzero;stroke:none;stroke-width:0.1"
       id="path716" />
    <path
       d="m 575.055,631.947 c -5.571,5.571 -26.009,5.108 -35.053,5.108 -9.046,0 -29.484,0.463 -35.055,-5.108 -5.571,-5.573 -13.463,-10.679 -4.643,-19.5 8.822,-8.823 26.93,-9.75 39.698,-9.75 12.766,0 30.874,0.927 39.696,9.75 8.821,8.821 0.928,13.927 -4.643,19.5 z m -35.053,-20.43 c -3.018,0 -35.055,-2.263 -35.055,7.894 0,12.536 22.75,10.213 35.055,10.213 12.304,0 35.053,2.323 35.053,-10.213 0,-10.157 -32.037,-7.894 -35.053,-7.894"
       style="fill:#d3d2d2;fill-opacity:1;fill-rule:nonzero;stroke:none;stroke-width:0.1"
       id="path718" />
    <path
       d="m 866.975,640.536 c -5.223,2.437 -19.152,-2.438 -27.509,-11.492 -8.357,-9.053 -19.152,-17.063 -28.553,-22.982 -9.403,-5.92 -10.099,-11.839 -9.75,-16.714 0.347,-4.875 -0.697,-12.187 -7.313,-15.67 -6.616,-3.482 -17.411,-2.437 -33.777,1.741 -16.366,4.179 -22.982,6.617 -21.589,11.143 1.392,4.527 19.5,4.179 32.384,7.661 12.884,3.482 24.375,12.535 32.384,17.758 8.008,5.225 13.928,11.492 16.366,15.322 1.741,2.09 -18.455,5.224 -26.813,6.965 -8.357,1.74 -41.786,6.615 -60.241,19.151 -18.455,12.537 -26.116,25.072 -25.071,28.554 1.045,3.483 9.053,6.964 20.545,5.224 11.491,-1.741 25.071,-2.786 33.428,1.044 8.357,3.831 23.33,4.527 31.339,2.437 8.009,-2.089 18.804,-9.054 32.733,-18.107 13.928,-9.053 24.722,-13.928 35.517,-13.928 10.795,0 8.706,11.49 8.358,19.151 -0.349,7.662 -5.572,33.429 -6.964,41.438 -0.776,4.46 1.044,22.286 -1.394,31.687 -2.104,8.119 -6.964,14.974 -9.75,17.759 -2.785,2.786 -7.66,8.01 -15.67,12.885 -8.009,4.875 -10.097,-9.75 -10.097,-15.67 0,-5.92 1.741,-21.59 -12.884,-27.509 -13.171,-5.331 -26.465,-4.178 -37.608,4.178 -11.142,8.357 -8.357,19.152 -6.964,30.295 1.393,11.143 8.357,16.715 18.107,27.161 9.75,10.446 5.571,13.58 0.349,21.589 -5.224,8.01 -25.072,12.885 -35.519,12.885 -10.446,0 -10.446,-13.233 -9.75,-18.804 0.697,-5.572 0.383,-22.568 -0.348,-26.813 -1.009,-5.867 -1.392,-15.322 -6.616,-18.107 -5.223,-2.786 -18.107,-1.045 -21.241,-0.696 -3.134,0.347 -8.357,-1.741 -10.446,-3.831 -2.09,-2.089 -6.616,-12.188 -9.403,-17.41 -2.785,-5.224 -4.875,-10.447 -12.187,-7.662 -18.32,6.98 -23.33,18.108 -28.902,28.554 -5.571,10.446 -4.874,22.286 0.697,30.991 5.571,8.705 21.241,15.322 38.652,22.286 17.41,6.964 18.803,13.929 19.848,18.456 1.045,4.526 -6.964,9.401 -17.063,12.536 -10.097,3.133 -22.285,0.347 -26.812,0 -4.527,-0.349 -8.009,-6.617 -12.884,-12.188 -4.875,-5.572 -11.84,0.348 -13.929,2.089 -2.089,1.741 -28.553,19.151 -32.732,21.241 -4.179,2.089 -11.839,-0.696 -12.535,-2.786 -0.697,-2.089 -0.511,-9.703 -1.045,-11.839 -0.697,-2.786 9.401,-6.616 6.964,-15.67 -1.58,-5.872 -8.357,-7.66 -14.625,-7.66 -6.268,0 -38.304,2.089 -46.66,2.089 -8.358,0 -40.394,-2.089 -46.662,-2.089 -6.267,0 -13.044,1.788 -14.625,7.66 -2.437,9.054 7.661,12.884 6.964,15.67 -0.534,2.136 -0.347,9.75 -1.044,11.839 -0.696,2.09 -8.357,4.875 -12.536,2.786 -4.179,-2.09 -30.642,-19.5 -32.732,-21.241 -2.089,-1.741 -9.054,-7.661 -13.929,-2.089 -4.875,5.571 -8.356,11.839 -12.884,12.188 -4.526,0.347 -16.714,3.133 -26.812,0 -10.098,-3.135 -18.107,-8.01 -17.063,-12.536 1.045,-4.527 2.438,-11.492 19.849,-18.456 17.41,-6.964 33.08,-13.581 38.651,-22.286 5.571,-8.705 6.269,-20.545 0.697,-30.991 -5.572,-10.446 -10.582,-21.574 -28.902,-28.554 -7.312,-2.785 -9.401,2.438 -12.187,7.662 -2.787,5.222 -7.313,15.321 -9.402,17.41 -2.09,2.09 -7.312,4.178 -10.447,3.831 -3.134,-0.349 -16.018,-2.09 -21.241,0.696 -5.223,2.785 -5.607,12.24 -6.615,18.107 -0.731,4.245 -1.045,21.241 -0.349,26.813 0.696,5.571 0.696,18.804 -9.75,18.804 -10.446,0 -30.295,-4.875 -35.518,-12.885 -5.223,-8.009 -9.402,-11.143 0.348,-21.589 9.75,-10.446 16.715,-16.018 18.107,-27.161 1.393,-11.143 4.179,-21.938 -6.963,-30.295 -11.144,-8.356 -24.437,-9.509 -37.608,-4.178 -14.625,5.919 -12.884,21.589 -12.884,27.509 0,5.92 -2.089,20.545 -10.098,15.67 -8.009,-4.875 -12.884,-10.099 -15.67,-12.885 -2.785,-2.785 -7.646,-9.64 -9.75,-17.759 -2.438,-9.401 -0.617,-27.227 -1.393,-31.687 -1.392,-8.009 -6.616,-33.776 -6.965,-41.438 -0.347,-7.661 -2.437,-19.151 8.358,-19.151 10.795,0 21.59,4.875 35.518,13.928 13.928,9.053 24.723,16.018 32.732,18.107 8.009,2.09 22.982,1.394 31.34,-2.437 8.357,-3.83 21.937,-2.785 33.428,-1.044 11.492,1.74 19.5,-1.741 20.545,-5.224 1.044,-3.482 -6.616,-16.017 -25.072,-28.554 -18.455,-12.536 -51.884,-17.411 -60.241,-19.151 -8.357,-1.741 -28.554,-4.875 -26.813,-6.965 2.438,-3.83 8.358,-10.097 16.366,-15.322 8.009,-5.223 19.5,-14.276 32.384,-17.758 12.885,-3.482 30.992,-3.134 32.385,-7.661 1.393,-4.526 -5.224,-6.964 -21.59,-11.143 -16.366,-4.178 -27.161,-5.223 -33.776,-1.741 -6.616,3.483 -7.661,10.795 -7.313,15.67 0.348,4.875 -0.348,10.794 -9.75,16.714 -9.402,5.919 -20.197,13.929 -28.553,22.982 -8.358,9.054 -22.287,13.929 -27.51,11.492 -5.223,-2.438 -4.178,-12.536 1.045,-18.804 5.223,-6.268 11.491,-17.411 24.027,-25.071 12.535,-7.661 15.907,-24.27 19.848,-26.117 0,0 10.653,-5.327 22.456,-8.849 -3.633,1.02 -10.155,5.256 -12.01,8.269 -1.856,3.018 -11.606,18.571 -14.161,22.053 -2.554,3.482 -17.642,21.357 -19.5,23.911 -1.857,2.554 -1.16,4.875 3.018,1.16 4.179,-3.714 16.482,-19.266 19.5,-23.678 3.019,-4.41 9.287,-14.16 13.697,-20.195 4.409,-6.036 21.821,-11.376 44.571,-8.822 22.75,2.552 30.876,13.695 34.125,18.804 3.25,5.106 2.786,10.446 -4.875,10.446 -7.66,0 -27.16,3.945 -37.607,6.965 -10.447,3.016 -29.25,16.016 -32.267,18.106 -3.017,2.089 -4.644,7.428 -0.232,8.358 4.411,0.928 19.732,3.481 40.856,7.66 21.124,4.179 28.786,12.071 42.251,17.875 13.465,5.803 25.071,17.179 27.161,22.518 2.089,5.339 9.982,11.375 10.91,16.249 0.929,4.876 -2.09,13.001 -9.517,16.25 -7.428,3.25 -12.305,-0.463 -19.733,-1.16 -7.428,-0.696 -13,0.464 -21.126,2.553 -8.126,2.09 -22.981,5.805 -37.838,7.661 -14.856,1.857 -18.803,2.786 -26.929,-1.856 -8.126,-4.643 -17.179,-7.198 -26.465,-9.519 -9.286,-2.321 -19.034,-8.356 -24.142,-13.464 -5.108,-5.106 -7.893,-5.339 -7.661,-0.928 0.233,4.41 4.179,18.571 3.947,25.071 -0.234,6.5 -0.232,22.982 1.857,23.446 2.09,0.465 3.946,-10.678 4.41,-15.553 0.464,-4.875 8.59,-9.983 22.519,-9.286 13.928,0.697 22.517,6.268 27.856,8.59 5.339,2.321 17.875,5.339 17.875,5.339 4.875,2.089 14.857,14.857 17.876,23.446 3.019,8.589 2.089,16.714 1.624,26.929 -0.465,10.215 -1.393,27.393 -1.393,27.393 2.089,-3.483 3.948,-17.179 3.948,-24.84 0,-7.66 2.785,-17.643 6.035,-22.982 3.25,-5.34 13.465,-14.392 28.786,-23.214 15.321,-8.822 22.054,-9.286 27.857,-8.589 5.804,0.696 27.161,13 35.286,20.66 6.621,6.244 13.928,17.411 18.339,27.393 4.412,9.983 3.017,20.894 2.321,26.233 -0.696,5.338 2.554,11.142 2.554,11.142 0,3.018 -4.643,6.5 -8.357,7.661 -3.713,1.161 -9.054,0.929 -10.679,1.625 -1.626,0.697 -11.606,5.804 -13.928,6.964 -2.323,1.161 -9.75,7.197 -12.073,9.054 -2.321,1.857 -1.16,3.482 1.626,1.625 1.331,-0.888 6.618,-4.822 12.535,-8.125 6.464,-3.608 13.617,-6.591 15.555,-7.196 3.715,-1.161 9.75,3.482 12.999,2.553 3.25,-0.928 4.179,-5.339 4.875,-8.473 0.697,-3.134 0.697,-4.875 4.179,-5.224 3.482,-0.347 14.974,-3.83 21.59,-5.571 6.616,-1.741 21.241,-2.089 30.294,-2.089 9.053,0 32.036,-1.393 37.26,-1.393 5.222,0 28.205,1.393 37.258,1.393 9.054,0 23.679,0.348 30.295,2.089 6.616,1.741 18.107,5.224 21.589,5.571 3.482,0.349 3.482,2.09 4.179,5.224 0.696,3.134 1.626,7.545 4.875,8.473 3.25,0.929 9.285,-3.714 13,-2.553 1.937,0.605 9.09,3.588 15.554,7.196 5.917,3.303 11.204,7.237 12.536,8.125 2.785,1.857 3.947,0.232 1.625,-1.625 -2.323,-1.857 -9.75,-7.893 -12.073,-9.054 -2.321,-1.16 -12.302,-6.267 -13.927,-6.964 -1.626,-0.696 -6.966,-0.464 -10.68,-1.625 -3.713,-1.161 -8.357,-4.643 -8.357,-7.661 0,0 3.25,-5.804 2.554,-11.142 -0.696,-5.339 -2.091,-16.25 2.32,-26.233 4.412,-9.982 11.719,-21.149 18.34,-27.393 8.125,-7.66 29.482,-19.964 35.286,-20.66 5.804,-0.697 12.536,-0.233 27.857,8.589 15.322,8.822 25.537,17.874 28.786,23.214 3.25,5.339 6.036,15.322 6.036,22.982 0,7.661 1.858,21.357 3.947,24.84 0,0 -0.927,-17.178 -1.393,-27.393 -0.465,-10.215 -1.394,-18.34 1.624,-26.929 3.019,-8.589 13.001,-21.357 17.876,-23.446 0,0 12.536,-3.018 17.875,-5.339 5.339,-2.322 13.929,-7.893 27.857,-8.59 13.929,-0.697 22.055,4.411 22.519,9.286 0.463,4.875 2.32,16.018 4.409,15.553 2.09,-0.464 2.091,-16.946 1.858,-23.446 -0.232,-6.5 3.713,-20.661 3.947,-25.071 0.232,-4.411 -2.554,-4.178 -7.661,0.928 -5.108,5.108 -14.857,11.143 -24.143,13.464 -9.286,2.321 -18.338,4.876 -26.464,9.519 -8.126,4.642 -12.073,3.713 -26.93,1.856 -14.856,-1.856 -29.712,-5.571 -37.838,-7.661 -8.126,-2.089 -13.698,-3.249 -21.125,-2.553 -7.429,0.697 -12.305,4.41 -19.734,1.16 -7.427,-3.249 -10.446,-11.374 -9.516,-16.25 0.928,-4.874 8.82,-10.91 10.91,-16.249 2.089,-5.339 13.695,-16.715 27.16,-22.518 13.465,-5.804 21.127,-13.696 42.251,-17.875 21.124,-4.179 36.446,-6.732 40.857,-7.66 4.411,-0.93 2.785,-6.269 -0.232,-8.358 -3.018,-2.09 -21.821,-15.09 -32.268,-18.106 -10.446,-3.02 -29.946,-6.965 -37.607,-6.965 -7.66,0 -8.124,-5.34 -4.875,-10.446 3.25,-5.109 11.376,-16.252 34.125,-18.804 22.75,-2.554 40.162,2.786 44.572,8.822 4.409,6.035 10.678,15.785 13.696,20.195 3.018,4.412 15.321,19.964 19.5,23.678 4.178,3.715 4.876,1.394 3.018,-1.16 -1.858,-2.554 -16.945,-20.429 -19.5,-23.911 -2.555,-3.482 -12.305,-19.035 -14.161,-22.053 -1.854,-3.013 -8.376,-7.249 -12.01,-8.269 11.803,3.522 22.456,8.849 22.456,8.849 3.941,1.847 7.313,18.456 19.849,26.117 12.535,7.66 18.804,18.803 24.026,25.071 5.224,6.268 6.269,16.366 1.045,18.804"
       style="fill:#d3d2d2;fill-opacity:1;fill-rule:nonzero;stroke:none;stroke-width:0.1"
       id="path720" />
    <path
       d="m 292.072,559.053 c 0,0 -2.438,-10.446 3.482,-19.151 5.92,-8.706 19.849,-21.939 25.072,-20.197 4.874,20.197 34.124,38.303 44.571,42.134 10.447,3.83 19.501,-0.697 19.501,-0.697 33.776,24.375 51.884,16.366 51.884,16.366 -2.09,1.045 -2.787,3.483 -2.438,5.572 0.348,2.089 3.482,10.794 5.571,18.803 2.089,8.009 10.911,13.349 10.911,13.349 -7.313,-1.741 -22.053,-5.689 -36.331,-11.955 -14.276,-6.269 -28.901,-12.885 -37.258,-15.322 -8.358,-2.438 -15.322,-5.223 -27.509,-13.928 -12.188,-8.706 -28.206,-12.536 -57.456,-14.974"
       style="fill:#706d6e;fill-opacity:1;fill-rule:nonzero;stroke:none;stroke-width:0.1"
       id="path722" />
    <path
       d="m 292.072,559.053 c 0,0 -2.438,-10.446 3.482,-19.151 5.92,-8.706 19.849,-21.939 25.072,-20.197 4.874,20.197 34.124,38.303 44.571,42.134 10.447,3.83 19.501,-0.697 19.501,-0.697 33.776,24.375 51.884,16.366 51.884,16.366 -2.09,1.045 -2.787,3.483 -2.438,5.572 0.348,2.089 3.482,10.794 5.571,18.803 2.089,8.009 10.911,13.349 10.911,13.349 -7.313,-1.741 -22.053,-5.689 -36.331,-11.955 -14.276,-6.269 -28.901,-12.885 -37.258,-15.322 -8.358,-2.438 -15.322,-5.223 -27.509,-13.928 -12.188,-8.706 -28.206,-12.536 -57.456,-14.974 z"
       style="fill:none;stroke:#231f20;stroke-width:0.75;stroke-linecap:round;stroke-linejoin:round;stroke-miterlimit:4;stroke-dasharray:none;stroke-opacity:1"
       id="path724" />
    <path
       d="m 540.002,340.722 c -6.443,0 -6.094,9.402 0,9.402 6.093,0 6.441,-9.402 0,-9.402"
       style="fill:#ffffff;fill-opacity:1;fill-rule:nonzero;stroke:none;stroke-width:0.1"
       id="path726" />
    <path
       d="m 540.002,340.722 c -6.443,0 -6.094,9.402 0,9.402 6.093,0 6.441,-9.402 0,-9.402 z"
       style="fill:none;stroke:#231f20;stroke-width:0.5;stroke-linecap:round;stroke-linejoin:round;stroke-miterlimit:4;stroke-dasharray:none;stroke-opacity:1"
       id="path728" />
    <path
       d="m 177.162,618.598 c -7.997,2.822 -22.286,8.358 -28.903,5.92 -6.616,-2.437 -12.187,-11.492 -7.661,-20.894 0,0 -6.964,3.831 -13.231,0.697 -6.269,-3.134 -17.667,-16.021 -18.108,-30.991 -0.348,-11.839 4.179,-13.58 7.661,-14.973 3.482,-1.393 3.134,-3.83 0.697,-7.661 -2.438,-3.83 -7.661,-10.794 -6.269,-18.108 1.394,-7.312 3.483,-13.231 17.76,-19.151 14.276,-5.92 18.803,-3.134 28.901,-5.571 10.099,-2.438 31.224,-15.436 41.09,-4.179 6.068,6.924 4.615,23.676 -8.01,31.687 -12.071,7.662 -7.66,7.662 -2.437,5.224 5.224,-2.437 6.943,-4.68 9.75,1.741 2.937,6.719 6.017,15.288 7.312,18.803 0.917,2.489 2.786,5.572 3.135,8.01 0.348,2.437 -0.853,11.254 -1.045,13.58 -0.142,1.735 -1.392,6.964 -2.786,9.75 -1.392,2.785 -10.446,17.758 -12.535,19.499 -2.09,1.741 -11.899,5.408 -15.321,6.617"
       style="fill:#ffffff;fill-opacity:1;fill-rule:nonzero;stroke:none;stroke-width:0.1"
       id="path730" />
    <path
       d="m 177.162,618.598 c -7.997,2.822 -22.286,8.358 -28.903,5.92 -6.616,-2.437 -12.187,-11.492 -7.661,-20.894 0,0 -6.964,3.831 -13.231,0.697 -6.269,-3.134 -17.667,-16.021 -18.108,-30.991 -0.348,-11.839 4.179,-13.58 7.661,-14.973 3.482,-1.393 3.134,-3.83 0.697,-7.661 -2.438,-3.83 -7.661,-10.794 -6.269,-18.108 1.394,-7.312 3.483,-13.231 17.76,-19.151 14.276,-5.92 18.803,-3.134 28.901,-5.571 10.099,-2.438 31.224,-15.436 41.09,-4.179 6.068,6.924 4.615,23.676 -8.01,31.687 -12.071,7.662 -7.66,7.662 -2.437,5.224 5.224,-2.437 6.943,-4.68 9.75,1.741 2.937,6.719 6.017,15.288 7.312,18.803 0.917,2.489 2.786,5.572 3.135,8.01 0.348,2.437 -0.853,11.254 -1.045,13.58 -0.142,1.735 -1.392,6.964 -2.786,9.75 -1.392,2.785 -10.446,17.758 -12.535,19.499 -2.09,1.741 -11.899,5.408 -15.321,6.617"
       style="fill:#ffffff;fill-opacity:1;fill-rule:nonzero;stroke:none;stroke-width:0.1"
       id="path732" />
    <path
       d="m 205.714,561.142 c 0.917,2.489 2.786,5.572 3.135,8.01 0.348,2.437 -0.853,11.254 -1.045,13.58 -0.142,1.735 -1.392,6.964 -2.786,9.75 -4.642,3.017 -15.785,9.981 -22.749,13.463 -6.965,3.481 -22.751,10.68 -29.019,7.429 -6.268,-3.25 -1.162,-11.142 2.089,-14.159 3.251,-3.02 12.074,-6.5 18.573,-9.053 6.499,-2.555 11.142,-6.038 10.91,-8.358 -0.233,-2.323 -5.107,-9.518 -13.696,-10.912 -8.589,-1.392 -15.787,1.858 -22.518,5.341 -6.732,3.482 -13.465,9.054 -16.715,14.159 -2.118,3.33 -6.5,4.179 -9.054,-1.161 -2.552,-5.338 -6.499,-14.625 -3.945,-17.177 2.553,-2.554 9.649,-8.123 13.695,-10.678 4.411,-2.786 4.179,-8.59 1.184,-10.947 -2.129,-1.673 -11.398,-7.625 -10.47,-15.286 0.93,-7.66 10.216,-11.143 18.573,-13.231 8.357,-2.09 16.947,-6.731 27.161,-7.893 10.213,-1.161 18.308,-0.672 17.641,7.661 -0.464,5.803 -8.442,10.349 -12.999,15.087 -5.804,6.037 -5.286,7.008 -4.411,10.216 1.393,5.106 20.196,11.607 36.446,14.159"
       style="fill:#d3d2d2;fill-opacity:1;fill-rule:nonzero;stroke:none;stroke-width:0.1"
       id="path734" />
    <path
       d="m 140.598,603.624 c 2.438,-4.643 2.205,-11.838 25.188,-22.75"
       style="fill:none;stroke:#231f20;stroke-width:0.5;stroke-linecap:butt;stroke-linejoin:miter;stroke-miterlimit:4;stroke-dasharray:none;stroke-opacity:1"
       id="path736" />
    <path
       d="m 259.34,801.759 c 1.16,-10.098 12.536,-23.562 24.723,-38.652"
       style="fill:none;stroke:#231f20;stroke-width:0.5;stroke-linecap:butt;stroke-linejoin:miter;stroke-miterlimit:4;stroke-dasharray:none;stroke-opacity:1"
       id="path738" />
    <path
       d="m 349.876,836.232 c 3.133,-6.268 7.312,-17.063 10.446,-24.375 3.135,-7.313 4.527,-7.66 12.885,-12.884 8.356,-5.223 16.017,-9.75 21.241,-10.795 5.222,-1.044 6.615,-4.178 7.66,-7.66 1.045,-3.482 2.09,-11.143 6.268,-14.625"
       style="fill:none;stroke:#231f20;stroke-width:0.5;stroke-linecap:butt;stroke-linejoin:miter;stroke-miterlimit:4;stroke-dasharray:none;stroke-opacity:1"
       id="path740" />
    <path
       d="m 419.17,683.366 c -6.671,1.906 -17.41,-10.447 -19.847,-14.973 -2.438,-4.527 -3.831,-13.232 1.044,-15.67 4.875,-2.437 16.018,-4.179 21.59,7.66 4.64,9.865 2.088,21.59 -2.787,22.983"
       style="fill:#d3d2d2;fill-opacity:1;fill-rule:nonzero;stroke:none;stroke-width:0.1"
       id="path742" />
    <path
       d="m 609.876,618.482 c 6.965,-0.464 15.322,-2.32 19.5,-3.25"
       style="fill:none;stroke:#231f20;stroke-width:0.5;stroke-linecap:butt;stroke-linejoin:miter;stroke-miterlimit:4;stroke-dasharray:none;stroke-opacity:1"
       id="path744" />
    <path
       d="m 450.626,615.232 c 4.178,0.93 12.536,2.786 19.5,3.25"
       style="fill:none;stroke:#231f20;stroke-width:0.5;stroke-linecap:butt;stroke-linejoin:miter;stroke-miterlimit:4;stroke-dasharray:none;stroke-opacity:1"
       id="path746" />
    <path
       d="m 560.198,562.536 c -5.572,0 -13.233,0.347 -20.196,0.347 -6.965,0 -14.626,-0.347 -20.197,-0.347 -5.572,0 -18.804,3.481 -17.063,0 0,0 3.831,-3.134 6.965,-8.706 3.133,-5.572 3.83,-7.313 4.875,-9.402 1.044,-2.089 6.963,-16.715 25.42,-16.715 18.455,0 24.374,14.626 25.418,16.715 1.045,2.089 1.742,3.83 4.875,9.402 3.135,5.572 6.965,8.706 6.965,8.706 1.742,3.481 -11.491,0 -17.062,0"
       style="fill:#706d6e;fill-opacity:1;fill-rule:nonzero;stroke:none;stroke-width:0.1"
       id="path748" />
    <path
       d="m 560.198,562.536 c -5.572,0 -13.233,0.347 -20.196,0.347 -6.965,0 -14.626,-0.347 -20.197,-0.347 -5.572,0 -18.804,3.481 -17.063,0 0,0 3.831,-3.134 6.965,-8.706 3.133,-5.572 3.83,-7.313 4.875,-9.402 1.044,-2.089 6.963,-16.715 25.42,-16.715 18.455,0 24.374,14.626 25.418,16.715 1.045,2.089 1.742,3.83 4.875,9.402 3.135,5.572 6.965,8.706 6.965,8.706 1.742,3.481 -11.491,0 -17.062,0 z"
       style="fill:none;stroke:#231f20;stroke-width:0.75;stroke-linecap:round;stroke-linejoin:round;stroke-miterlimit:4;stroke-dasharray:none;stroke-opacity:1"
       id="path750" />
    <path
       d="m 502.742,562.536 c -5.223,2.437 -30.294,7.66 -35.866,8.705 -5.572,1.045 -18.456,4.178 -20.893,4.526 -2.438,0.349 -7.313,1.394 -9.401,1.741"
       style="fill:none;stroke:#231f20;stroke-width:0.75;stroke-linecap:round;stroke-linejoin:round;stroke-miterlimit:4;stroke-dasharray:none;stroke-opacity:1"
       id="path752" />
    <path
       d="m 535.322,358.481 c -10.794,0 -36.41,-1.044 -43.027,-2.785 -6.616,-1.741 -21.124,-6.152 -28.669,-17.177"
       style="fill:none;stroke:#231f20;stroke-width:0.5;stroke-linecap:butt;stroke-linejoin:miter;stroke-miterlimit:4;stroke-dasharray:none;stroke-opacity:1"
       id="path754" />
    <path
       d="m 534.612,347.48 c 0,5.71 1.211,14.136 1.211,18.313 0,4.179 2.089,6.965 4.179,6.965 2.088,0 4.178,-2.786 4.178,-6.965 0,-4.177 1.21,-12.603 1.21,-18.313"
       style="fill:none;stroke:#231f20;stroke-width:0.5;stroke-linecap:butt;stroke-linejoin:miter;stroke-miterlimit:4;stroke-dasharray:none;stroke-opacity:1"
       id="path756" />
    <path
       d="m 538.489,372.271 c 0,1.88 -0.577,4.666 -8.934,3.621 -8.357,-1.045 -27.857,-6.616 -37.26,-20.196"
       style="fill:none;stroke:#231f20;stroke-width:0.5;stroke-linecap:butt;stroke-linejoin:miter;stroke-miterlimit:4;stroke-dasharray:none;stroke-opacity:1"
       id="path758" />
    <path
       d="m 372.162,390.866 c 5.571,-3.483 22.982,-16.019 26.812,-17.76 3.83,-1.74 8.937,-5.688 10.563,-12.07"
       style="fill:none;stroke:#231f20;stroke-width:0.5;stroke-linecap:butt;stroke-linejoin:miter;stroke-miterlimit:4;stroke-dasharray:none;stroke-opacity:1"
       id="path760" />
    <path
       d="m 379.499,412.082 c 2.786,3.134 9.029,9.426 16.341,11.515 7.313,2.09 16.367,3.135 24.027,-0.696 7.661,-3.83 12.536,-9.054 12.883,-18.455 0.349,-9.403 -1.7,-19.258 -3.83,-22.286 -2.205,-3.134 -6.963,-8.357 -13.58,-7.66 -6.616,0.696 -19.152,1.161 -23.679,7.545"
       style="fill:none;stroke:#231f20;stroke-width:0.25;stroke-linecap:butt;stroke-linejoin:miter;stroke-miterlimit:4;stroke-dasharray:none;stroke-opacity:1"
       id="path762" />
    <path
       d="m 367.054,632.178 c -5.127,-0.098 -19.5,-2.553 -25.535,-3.714 -6.036,-1.161 -37.607,-10.678 -41.09,-12.072 -3.482,-1.392 -7.197,-3.249 -3.482,-6.964 3.715,-3.714 12.537,-7.892 26.001,-9.516 13.463,-1.627 19.268,-1.859 27.161,0.927 7.891,2.785 18.313,6.404 21.563,14.065 2.526,5.954 7.453,17.507 -4.618,17.274"
       style="fill:#ffffff;fill-opacity:1;fill-rule:nonzero;stroke:none;stroke-width:0.1"
       id="path764" />
    <path
       d="m 628.099,768.331 c -1.044,3.83 -2.437,7.312 -2.089,9.401 0.349,2.09 0,9.054 0,12.884 0,3.831 -1.045,4.875 -3.83,5.572 -2.786,0.696 -21.241,0 -23.678,-0.349 -2.438,-0.348 -6.965,-0.348 -11.143,-12.883 -7.537,-22.61 -42.831,-29.599 -47.357,-29.947 -4.528,0.348 -39.821,7.337 -47.358,29.947 -4.179,12.535 -8.705,12.535 -11.143,12.883 -2.437,0.349 -20.893,1.045 -23.678,0.349 -2.786,-0.697 -3.831,-1.741 -3.831,-5.572 0,-3.83 -0.348,-10.794 0,-12.884 0.348,-2.089 -1.044,-5.571 -2.089,-9.401 -1.045,-3.831 -13.58,-37.259 9.054,-72.778 11.918,-18.703 32.491,-25.719 49.446,-30.642 15.242,-4.426 27.455,-7.661 29.599,-7.661 2.143,0 14.355,3.235 29.597,7.661 16.955,4.923 37.528,11.939 49.447,30.642 22.634,35.519 10.098,68.947 9.053,72.778 z m -10.446,-58.5 c -2.079,-4.801 -6.659,-16.319 -20.196,-23.331 -15.872,-8.222 -38.825,-17.411 -57.455,-17.411 -18.631,0 -41.586,9.189 -57.457,17.411 -13.536,7.012 -18.116,18.53 -20.196,23.331 -4.526,10.446 -7.312,24.375 -2.437,25.767 4.875,1.393 12.536,-11.491 17.411,-19.5 4.875,-8.009 10.446,-12.884 20.544,-13.58 10.098,-0.696 31.34,-0.349 42.135,-0.349 10.793,0 32.035,-0.347 42.133,0.349 10.099,0.696 15.67,5.571 20.545,13.58 4.875,8.009 12.535,20.893 17.41,19.5 4.875,-1.392 2.09,-15.321 -2.437,-25.767"
       style="fill:#d3d2d2;fill-opacity:1;fill-rule:nonzero;stroke:none;stroke-width:0.1"
       id="path766" />
    <path
       d="m 375.411,412.34 c -2.065,0.564 -8.727,-1.782 -9.472,-4.067 -0.746,-2.285 -2.742,-7.489 -2.742,-7.489 0,0 -1.288,-6.167 2.929,-8.178 4.875,-2.32 11.839,-2.552 14.625,3.717 2.959,6.656 -2.787,15.321 -5.34,16.017 z"
       style="fill:none;stroke:#231f20;stroke-width:0.5;stroke-linecap:butt;stroke-linejoin:miter;stroke-miterlimit:4;stroke-dasharray:none;stroke-opacity:1"
       id="path768" />
    <path
       d="m 363.402,532.507 c 3.518,2.582 14.795,4.494 18.51,3.102 3.714,-1.394 9.088,-5.338 6.964,-9.75 -3.018,-6.269 -7.907,-11.695 -11.162,-15.109 l -6.841,-6.837 c -36.796,-42.483 -13.336,-88.556 -6.373,-91.11 3.729,-1.366 0.697,-6.268 -1.741,-13.232 -2.437,-6.965 -6.848,-3.945 -6.848,-3.945 -23.214,19.035 -24.839,49.909 -25.187,65.579 -0.348,15.669 2.785,27.161 8.009,41.437 5.224,14.277 17.411,24.724 27.161,31.688 9.75,6.964 15.495,15.67 18.106,20.197 2.229,3.862 2.787,5.571 0.698,6.615"
       style="fill:none;stroke:#231f20;stroke-width:0.5;stroke-linecap:butt;stroke-linejoin:miter;stroke-miterlimit:4;stroke-dasharray:none;stroke-opacity:1"
       id="path770" />
    <path
       d="m 716.601,532.507 c -3.519,2.582 -14.796,4.494 -18.511,3.102 -3.714,-1.394 -9.088,-5.338 -6.964,-9.75 3.019,-6.269 7.908,-11.695 11.163,-15.109 l 6.841,-6.837 c 36.795,-42.483 13.336,-88.556 6.372,-91.11 -3.729,-1.366 -0.697,-6.268 1.741,-13.232 2.437,-6.965 6.848,-3.945 6.848,-3.945 23.215,19.035 24.839,49.909 25.188,65.579 0.347,15.669 -2.786,27.161 -8.01,41.437 -5.223,14.277 -17.41,24.724 -27.16,31.688 -9.75,6.964 -15.496,15.67 -18.107,20.197 -2.228,3.862 -2.787,5.571 -0.697,6.615"
       style="fill:none;stroke:#231f20;stroke-width:0.5;stroke-linecap:butt;stroke-linejoin:miter;stroke-miterlimit:4;stroke-dasharray:none;stroke-opacity:1"
       id="path772" />
    <path
       d="m 208.849,569.152 c 0.348,2.437 -0.853,11.254 -1.045,13.58 -3.018,3.251 -5.571,5.803 -10.446,8.588 -4.875,2.786 -14.625,7.198 -19.5,6.965 0,0 3.715,-2.09 11.839,-8.358 8.125,-6.267 9.054,-11.837 7.197,-14.622 -1.858,-2.786 -4.41,-3.714 -9.75,-5.571 -5.341,-1.859 -13.931,-6.502 -22.055,-6.734 -8.125,-0.231 -13.928,1.856 -18.803,4.875 -4.875,3.017 -11.838,8.823 -13.464,10.447 -1.625,1.624 -5.804,1.855 -3.018,-1.627 2.785,-3.48 11.841,-12.071 14.858,-17.642 3.016,-5.571 3.946,-9.515 3.249,-12.302 -0.697,-2.786 -2.554,-7.429 -5.804,-8.357 -3.249,-0.931 -5.337,-2.323 -6.499,-3.716 -1.161,-1.392 1.392,-0.231 2.786,-0.463 1.393,-0.233 8.124,-0.465 12.999,-3.251 4.875,-2.785 7.659,-4.875 8.821,-5.802 1.162,-0.93 2.323,0.231 0.233,1.855 -2.089,1.627 -7.892,5.571 -8.124,11.608 -0.234,6.038 3.481,9.75 6.035,11.609 2.553,1.855 9.982,3.248 13.929,5.337 3.945,2.09 21.821,10.68 36.562,13.581"
       style="fill:#b2b1b1;fill-opacity:1;fill-rule:nonzero;stroke:none;stroke-width:0.1"
       id="path774" />
    <path
       d="m 420.448,526.089 c 2.09,1.394 6.499,2.324 10.214,1.859 3.714,-0.465 6.267,-1.627 6.267,-1.627"
       style="fill:none;stroke:#231f20;stroke-width:0.5;stroke-linecap:butt;stroke-linejoin:miter;stroke-miterlimit:4;stroke-dasharray:none;stroke-opacity:1"
       id="path776" />
    <path
       d="m 367.054,632.178 c -5.127,-0.098 -19.5,-2.553 -25.535,-3.714 -6.036,-1.161 -37.607,-10.678 -41.09,-12.072 -3.482,-1.392 -7.197,-3.249 -3.482,-6.964 3.715,-3.714 12.537,-7.892 26.001,-9.516 13.463,-1.627 19.268,-1.859 27.161,0.927 7.891,2.785 18.313,6.404 21.563,14.065 2.526,5.954 7.453,17.507 -4.618,17.274"
       style="fill:#d3d2d2;fill-opacity:1;fill-rule:nonzero;stroke:none;stroke-width:0.1"
       id="path778" />
    <path
       d="m 540.002,350.124 c -1.625,0 -5.05,-0.927 -6.791,-4.874 -3.273,-7.414 -17.353,-13.755 -31.977,-13.755 -14.624,0 -28.322,4.238 -37.608,7.024 -9.285,2.785 -22.75,7.427 -54.089,22.517 -31.34,15.088 -53.626,34.59 -53.626,34.59 -7.661,3.948 -19.964,15.087 -22.517,17.874 -2.553,2.785 -6.5,8.822 -7.197,11.607 -0.697,2.786 -2.321,6.5 -3.249,14.394 -1.772,15.074 -1.393,10.678 -3.251,34.587 -0.664,8.551 -2.274,16.584 -2.089,23.679 0.33,12.745 3.018,21.938 3.018,21.938 -5.223,-1.742 -19.152,11.491 -25.072,20.197 -5.92,8.705 -3.482,19.151 -3.482,19.151 -15.322,2.089 -34.125,11.491 -34.125,11.491 -42.483,10.098 -56.41,47.009 -58.152,61.634 -1.741,14.625 3.831,15.322 3.831,15.322 -3.831,0.348 -6.964,4.874 -6.964,8.357 0,3.482 0.347,26.812 2.088,43.875 1.742,17.062 4.179,34.474 8.009,45.965 3.83,11.491 8.705,21.937 14.625,29.597 5.92,7.662 21.59,23.679 28.554,27.509 6.965,3.831 9.402,-1.044 9.402,-1.044 -0.348,3.83 4.875,12.884 8.357,15.322 3.482,2.437 19.5,13.232 26.116,16.366 6.616,3.134 24.375,10.446 38.652,13.232 14.277,2.785 17.411,-10.447 17.411,-10.447 -6.268,16.366 12.187,22.286 17.411,22.635 5.223,0.347 29.25,5.222 37.955,7.66 8.706,2.437 11.84,0.696 17.062,-0.348 5.224,-1.045 12.884,-4.875 14.625,-4.875 1.741,0 10.447,7.66 13.581,10.446 3.134,2.786 12.884,7.661 20.893,8.706 8.009,1.044 26.464,0.696 34.473,0.696 8.009,0 28.206,1.741 34.126,1.741 5.918,0 26.116,-1.741 34.124,-1.741 8.009,0 26.464,0.348 34.473,-0.696 8.01,-1.045 17.76,-5.92 20.894,-8.706 3.133,-2.786 11.839,-10.446 13.58,-10.446 1.741,0 9.402,3.83 14.625,4.875 5.223,1.044 8.357,2.785 17.062,0.348 8.705,-2.438 32.733,-7.313 37.955,-7.66 5.224,-0.349 23.679,-6.269 17.411,-22.635 0,0 3.134,13.232 17.412,10.447 14.276,-2.786 32.035,-10.098 38.651,-13.232 6.616,-3.134 22.634,-13.929 26.116,-16.366 3.483,-2.438 8.705,-11.492 8.358,-15.322 0,0 2.437,4.875 9.401,1.044 6.965,-3.83 22.634,-19.847 28.554,-27.509 5.92,-7.66 10.795,-18.106 14.625,-29.597 3.831,-11.491 6.268,-28.903 8.009,-45.965 1.741,-17.063 2.089,-40.393 2.089,-43.875 0,-3.483 -3.133,-8.009 -6.965,-8.357 0,0 5.573,-0.697 3.832,-15.322 -1.742,-14.625 -15.67,-51.536 -58.153,-61.634 0,0 -18.803,-9.402 -34.125,-11.491 0,0 2.438,-10.446 -3.482,-19.151 -5.919,-8.706 -19.848,-21.939 -25.072,-20.197 0,0 2.688,-9.193 3.019,-21.938 0.184,-7.095 -1.426,-15.128 -2.09,-23.679 -1.857,-23.909 -1.479,-19.513 -3.25,-34.587 -0.928,-7.894 -2.553,-11.608 -3.25,-14.394 -0.696,-2.785 -4.643,-8.822 -7.197,-11.607 -2.553,-2.787 -14.856,-13.926 -22.517,-17.874 0,0 -22.286,-19.502 -53.625,-34.59 -31.34,-15.09 -44.805,-19.732 -54.09,-22.517 -9.285,-2.786 -22.984,-7.024 -37.607,-7.024 -14.624,0 -28.705,6.341 -31.977,13.755 -1.742,3.947 -5.166,4.874 -6.79,4.874 z"
       style="fill:none;stroke:#231f20;stroke-width:0.75;stroke-linecap:round;stroke-linejoin:round;stroke-miterlimit:4;stroke-dasharray:none;stroke-opacity:1"
       id="path780" />
    <path
       d="m 902.841,618.598 c 7.997,2.822 22.286,8.358 28.902,5.92 6.616,-2.437 12.187,-11.492 7.661,-20.894 0,0 6.964,3.831 13.232,0.697 6.268,-3.134 17.666,-16.021 18.107,-30.991 0.348,-11.839 -4.178,-13.58 -7.661,-14.973 -3.482,-1.393 -3.133,-3.83 -0.696,-7.661 2.438,-3.83 7.66,-10.794 6.268,-18.108 -1.393,-7.312 -3.483,-13.231 -17.759,-19.151 -14.277,-5.92 -18.804,-3.134 -28.902,-5.571 -10.098,-2.438 -31.224,-15.436 -41.089,-4.179 -6.069,6.924 -4.615,23.676 8.009,31.687 12.072,7.662 7.661,7.662 2.437,5.224 -5.224,-2.437 -6.942,-4.68 -9.75,1.741 -2.936,6.719 -6.018,15.288 -7.312,18.803 -0.917,2.489 -2.786,5.572 -3.134,8.01 -0.349,2.437 0.852,11.254 1.045,13.58 0.142,1.735 1.392,6.964 2.785,9.75 1.392,2.785 10.446,17.758 12.536,19.499 2.089,1.741 11.898,5.408 15.321,6.617 z"
       style="fill:none;stroke:#231f20;stroke-width:0.75;stroke-linecap:round;stroke-linejoin:round;stroke-miterlimit:4;stroke-dasharray:none;stroke-opacity:1"
       id="path782" />
    <path
       d="m 177.162,618.598 c -7.997,2.822 -22.286,8.358 -28.903,5.92 -6.616,-2.437 -12.187,-11.492 -7.661,-20.894 0,0 -6.964,3.831 -13.231,0.697 -6.269,-3.134 -17.667,-16.021 -18.108,-30.991 -0.348,-11.839 4.179,-13.58 7.661,-14.973 3.482,-1.393 3.134,-3.83 0.697,-7.661 -2.438,-3.83 -7.661,-10.794 -6.269,-18.108 1.394,-7.312 3.483,-13.231 17.76,-19.151 14.276,-5.92 18.803,-3.134 28.901,-5.571 10.099,-2.438 31.224,-15.436 41.09,-4.179 6.068,6.924 4.615,23.676 -8.01,31.687 -12.071,7.662 -7.66,7.662 -2.437,5.224 5.224,-2.437 6.943,-4.68 9.75,1.741 2.937,6.719 6.017,15.288 7.312,18.803 0.917,2.489 2.786,5.572 3.135,8.01 0.348,2.437 -0.853,11.254 -1.045,13.58 -0.142,1.735 -1.392,6.964 -2.786,9.75 -1.392,2.785 -10.446,17.758 -12.535,19.499 -2.09,1.741 -11.899,5.408 -15.321,6.617 z"
       style="fill:none;stroke:#231f20;stroke-width:0.75;stroke-linecap:round;stroke-linejoin:round;stroke-miterlimit:4;stroke-dasharray:none;stroke-opacity:1"
       id="path784" />
    <path
       d="m 730.823,526.669 c 3.134,-0.696 12.187,-2.786 14.973,-4.178"
       style="fill:none;stroke:#7b7979;stroke-width:0.5;stroke-linecap:round;stroke-linejoin:miter;stroke-miterlimit:4;stroke-dasharray:none;stroke-opacity:1"
       id="path786" />
    <path
       d="m 349.179,526.669 c -3.134,-0.696 -12.187,-2.786 -14.972,-4.178"
       style="fill:none;stroke:#7b7979;stroke-width:0.5;stroke-linecap:round;stroke-linejoin:miter;stroke-miterlimit:4;stroke-dasharray:none;stroke-opacity:1"
       id="path788" />
    <path
       d="m 547.92,528.726 c 4.269,-2.753 10.885,-6.584 7.403,-38.968 -3.483,-32.384 -5.571,-65.464 -11.84,-65.464"
       style="fill:none;stroke:#231f20;stroke-width:0.5;stroke-linecap:butt;stroke-linejoin:miter;stroke-miterlimit:4;stroke-dasharray:none;stroke-opacity:1"
       id="path790" />
    <path
       d="m 532.082,528.726 c -4.268,-2.753 -10.884,-6.584 -7.402,-38.968 3.482,-32.384 5.572,-65.464 11.839,-65.464"
       style="fill:none;stroke:#231f20;stroke-width:0.5;stroke-linecap:butt;stroke-linejoin:miter;stroke-miterlimit:4;stroke-dasharray:none;stroke-opacity:1"
       id="path792" />
    <path
       d="m 540.002,755.911 c -42.551,6.501 -46.662,32.5 -46.662,36.678 0,4.179 34.822,2.785 46.662,2.785 11.838,0 46.66,1.394 46.66,-2.785 0,-4.178 -4.111,-30.177 -46.66,-36.678"
       style="fill:#d3d2d2;fill-opacity:1;fill-rule:nonzero;stroke:none;stroke-width:0.1"
       id="path794" />
    <path
       d="m 203.626,647.5 c 4.874,2.089 18.107,1.741 24.026,1.741 3.798,0 7.167,-1.289 10.196,-2.951 7.313,-2.437 12.439,2.254 19.055,6.084 6.615,3.832 18.455,11.492 33.428,8.358 11.04,-2.311 27.857,-2.438 39.697,3.482"
       style="fill:none;stroke:#231f20;stroke-width:0.5;stroke-linecap:butt;stroke-linejoin:miter;stroke-miterlimit:4;stroke-dasharray:none;stroke-opacity:1"
       id="path796" />
    <path
       d="m 876.376,647.5 c -4.874,2.089 -18.106,1.741 -24.026,1.741 -3.798,0 -7.166,-1.289 -10.196,-2.951 -7.313,-2.437 -12.438,2.254 -19.054,6.084 -6.616,3.832 -18.455,11.492 -33.429,8.358 -11.04,-2.311 -27.857,-2.438 -39.696,3.482"
       style="fill:none;stroke:#231f20;stroke-width:0.5;stroke-linecap:butt;stroke-linejoin:miter;stroke-miterlimit:4;stroke-dasharray:none;stroke-opacity:1"
       id="path798" />
    <path
       d="m 587.859,514.574 c 2.786,-17.063 23.178,-65.557 59.393,-110.128"
       style="fill:none;stroke:#231f20;stroke-width:0.5;stroke-linecap:round;stroke-linejoin:round;stroke-miterlimit:4;stroke-dasharray:2.8, 1.8;stroke-dashoffset:0;stroke-opacity:1"
       id="path800" />
    <path
       d="m 611.642,515.652 c 3.831,-11.144 22.726,-50.269 68.342,-91.01"
       style="fill:none;stroke:#231f20;stroke-width:0.5;stroke-linecap:round;stroke-linejoin:round;stroke-miterlimit:4;stroke-dasharray:2.8, 1.8;stroke-dashoffset:0;stroke-opacity:1"
       id="path802" />
    <path
       d="m 543.834,411.062 c 5.233,0 53.926,-12.615 60.194,-61.713"
       style="fill:none;stroke:#231f20;stroke-width:0.5;stroke-linecap:round;stroke-linejoin:round;stroke-miterlimit:4;stroke-dasharray:2.8, 1.8;stroke-dashoffset:0;stroke-opacity:1"
       id="path804" />
    <path
       d="m 583.112,390.944 c 6.523,7.234 32.103,19.073 64.14,13.502"
       style="fill:none;stroke:#231f20;stroke-width:0.5;stroke-linecap:round;stroke-linejoin:round;stroke-miterlimit:4;stroke-dasharray:2.8, 1.8;stroke-dashoffset:0;stroke-opacity:1"
       id="path806" />
    <path
       d="m 602.708,356.666 c 10.418,8.78 31.66,19.575 48.374,25.494"
       style="fill:none;stroke:#231f20;stroke-width:0.5;stroke-linecap:round;stroke-linejoin:round;stroke-miterlimit:4;stroke-dasharray:2.8, 1.8;stroke-dashoffset:0;stroke-opacity:1"
       id="path808" />
    <path
       d="m 602.708,356.666 c 7.632,0.422 15.294,-2.363 18.427,-4.104 3.134,-1.741 10.447,-4.527 19.152,2.089 8.706,6.616 14.973,12.536 24.376,19.849"
       style="fill:none;stroke:#231f20;stroke-width:0.5;stroke-linecap:round;stroke-linejoin:round;stroke-miterlimit:4;stroke-dasharray:2.8, 1.8;stroke-dashoffset:0;stroke-opacity:1"
       id="path810" />
    <path
       d="m 549.752,507.517 c 2.785,0 2.785,-15.669 -0.697,-15.669 -3.482,0 -2.09,15.669 0.697,15.669 z"
       style="fill:none;stroke:#231f20;stroke-width:0.5;stroke-linecap:round;stroke-linejoin:round;stroke-miterlimit:4;stroke-dasharray:2.8, 1.8;stroke-dashoffset:0;stroke-opacity:1"
       id="path812" />
    <path
       d="m 554.523,520.366 c 2.889,-4.492 11.378,-8.518 25.871,-7.278 12.188,1.045 12.449,5.292 13.408,10.542 0.753,4.124 -0.176,22.191 -28.382,20.798"
       style="fill:none;stroke:#231f20;stroke-width:0.5;stroke-linecap:round;stroke-linejoin:round;stroke-miterlimit:4;stroke-dasharray:2.8, 1.8;stroke-dashoffset:0;stroke-opacity:1"
       id="path814" />
    <path
       d="m 555.323,489.758 c 7.66,-4.526 24.026,-5.571 27.857,0.697 3.83,6.268 2.438,13.928 -2.786,22.633"
       style="fill:none;stroke:#231f20;stroke-width:0.5;stroke-linecap:round;stroke-linejoin:round;stroke-miterlimit:4;stroke-dasharray:2.8, 1.8;stroke-dashoffset:0;stroke-opacity:1"
       id="path816" />
    <path
       d="m 593.802,523.63 c 6.268,2.438 19.672,5.128 19.324,47.611"
       style="fill:none;stroke:#231f20;stroke-width:0.5;stroke-linecap:round;stroke-linejoin:round;stroke-miterlimit:4;stroke-dasharray:2.8, 1.8;stroke-dashoffset:0;stroke-opacity:1"
       id="path818" />
    <path
       d="m 634.019,575.767 c 0.349,-7.66 3.296,-35.525 9.912,-49.106"
       style="fill:none;stroke:#231f20;stroke-width:0.5;stroke-linecap:round;stroke-linejoin:round;stroke-miterlimit:4;stroke-dasharray:2.8, 1.8;stroke-dashoffset:0;stroke-opacity:1"
       id="path820" />
    <path
       d="m 587.859,514.574 c 7.65,-0.293 16.537,-0.788 28.377,1.997"
       style="fill:none;stroke:#231f20;stroke-width:0.5;stroke-linecap:round;stroke-linejoin:round;stroke-miterlimit:4;stroke-dasharray:2.8, 1.8;stroke-dashoffset:0;stroke-opacity:1"
       id="path822" />
    <path
       d="m 602.332,379.722 c 7.312,0 7.312,-9.401 0,-9.401 -6.268,0 -7.313,9.401 0,9.401 z"
       style="fill:none;stroke:#231f20;stroke-width:0.5;stroke-linecap:round;stroke-linejoin:round;stroke-miterlimit:4;stroke-dasharray:2.8, 1.8;stroke-dashoffset:0;stroke-opacity:1"
       id="path824" />
    <path
       d="m 647.948,648.893 c 4.351,-0.687 2.552,-6.965 9.054,-11.838 5.387,-4.04 21.124,-14.162 26.463,-13.466 5.339,0.697 11.376,5.339 15.787,-3.018 4.994,-9.464 7.196,-19.501 7.892,-22.983 0.696,-3.482 -2.553,-3.479 -6.035,-2.551 -3.483,0.927 -21.124,4.875 -30.643,9.053 -9.518,4.178 -23.679,12.072 -30.412,18.107 -6.731,6.035 -8.123,12.071 -7.891,16.249 0.231,4.178 6.963,11.84 15.785,10.447"
       style="fill:#ffffff;fill-opacity:1;fill-rule:nonzero;stroke:none;stroke-width:0.1"
       id="path826" />
    <path
       d="m 647.948,648.893 c 4.351,-0.687 2.552,-6.965 9.054,-11.838 5.387,-4.04 21.124,-14.162 26.463,-13.466 5.339,0.697 11.376,5.339 15.787,-3.018 4.994,-9.464 7.196,-19.501 7.892,-22.983 0.696,-3.482 -2.553,-3.479 -6.035,-2.551 -3.483,0.927 -21.124,4.875 -30.643,9.053 -9.518,4.178 -23.679,12.072 -30.412,18.107 -6.731,6.035 -8.123,12.071 -7.891,16.249 0.231,4.178 6.963,11.84 15.785,10.447 z"
       style="fill:none;stroke:#231f20;stroke-width:0.5;stroke-linecap:round;stroke-linejoin:round;stroke-miterlimit:4;stroke-dasharray:2.8, 1.8;stroke-dashoffset:0;stroke-opacity:1"
       id="path828" />
    <path
       d="m 612.966,661.589 c 5.97,2.313 14.437,6.107 16.527,8.544 2.137,2.494 5.919,11.491 11.142,10.448 5.224,-1.045 1.741,-11.144 -2.786,-19.849 -4.526,-8.705 -7.312,-13.929 -9.75,-17.063 -2.437,-3.133 -6.267,-9.053 -11.142,-11.491 -4.875,-2.437 -17.76,-2.787 -25.768,1.045 -8.008,3.832 -13.232,10.098 -10.446,14.973 2.785,4.875 11.491,5.92 15.669,7.312 4.178,1.394 12.866,4.652 16.554,6.081"
       style="fill:#ffffff;fill-opacity:1;fill-rule:nonzero;stroke:none;stroke-width:0.1"
       id="path830" />
    <path
       d="m 612.966,661.589 c 5.97,2.313 14.437,6.107 16.527,8.544 2.137,2.494 5.919,11.491 11.142,10.448 5.224,-1.045 1.741,-11.144 -2.786,-19.849 -4.526,-8.705 -7.312,-13.929 -9.75,-17.063 -2.437,-3.133 -6.267,-9.053 -11.142,-11.491 -4.875,-2.437 -17.76,-2.787 -25.768,1.045 -8.008,3.832 -13.232,10.098 -10.446,14.973 2.785,4.875 11.491,5.92 15.669,7.312 4.178,1.394 12.866,4.652 16.554,6.081 z"
       style="fill:none;stroke:#231f20;stroke-width:0.5;stroke-linecap:round;stroke-linejoin:round;stroke-miterlimit:4;stroke-dasharray:2.8, 1.8;stroke-dashoffset:0;stroke-opacity:1"
       id="path832" />
    <path
       d="m 612.966,661.589 c 3.134,-4.178 9.91,-13.393 15.133,-17.92"
       style="fill:none;stroke:#231f20;stroke-width:0.5;stroke-linecap:round;stroke-linejoin:round;stroke-miterlimit:4;stroke-dasharray:2.8, 1.8;stroke-dashoffset:0;stroke-opacity:1"
       id="path834" />
    <path
       d="m 684.163,623.723 c -1.045,-5.821 2.41,-17.451 20.53,-16.513"
       style="fill:none;stroke:#231f20;stroke-width:0.5;stroke-linecap:round;stroke-linejoin:round;stroke-miterlimit:4;stroke-dasharray:2.8, 1.8;stroke-dashoffset:0;stroke-opacity:1"
       id="path836" />
    <path
       d="m 654.913,502.411 c 3.017,-1.858 20.892,-21.589 25.767,-27.625 4.875,-6.035 11.607,-15.785 11.607,-27.858 0,-12.07 0.89,-21.783 3.715,-24.606 2.901,-2.903 8.279,-8.624 18.392,-10.21"
       style="fill:none;stroke:#231f20;stroke-width:0.5;stroke-linecap:round;stroke-linejoin:round;stroke-miterlimit:4;stroke-dasharray:2.8, 1.8;stroke-dashoffset:0;stroke-opacity:1"
       id="path838" />
    <path
       d="m 695.039,417.401 c -2.612,1.879 -6.697,2.135 -9.948,2.6 -3.251,0.462 -18.572,2.552 -23.447,-1.162 -4.446,-3.389 -2.32,-7.195 1.921,-8.877 3.207,-1.27 12.008,-5.184 21.99,-1.006"
       style="fill:none;stroke:#231f20;stroke-width:0.5;stroke-linecap:round;stroke-linejoin:round;stroke-miterlimit:4;stroke-dasharray:2.8, 1.8;stroke-dashoffset:0;stroke-opacity:1"
       id="path840" />
    <path
       d="m 702.018,410.148 c -0.696,1.392 -3.464,4.279 -7.642,3.12 -4.178,-1.161 -7.661,-3.251 -11.839,-6.733 -4.179,-3.482 -6.268,-7.427 -6.268,-11.374 0,-3.722 0.465,-9.285 2.785,-10.911 2.126,-1.489 8.358,-4.179 11.376,-0.697 3.019,3.482 12.253,9.124 17.41,7.313"
       style="fill:none;stroke:#231f20;stroke-width:0.5;stroke-linecap:round;stroke-linejoin:round;stroke-miterlimit:4;stroke-dasharray:2.8, 1.8;stroke-dashoffset:0;stroke-opacity:1"
       id="path842" />
    <path
       d="m 661.107,411.374 c -2.713,-0.892 -7.868,-4.428 -8.517,-8.321 -0.696,-4.179 0.697,-15.088 7.198,-19.5 6.5,-4.41 15.321,-5.572 19.266,0.697"
       style="fill:none;stroke:#231f20;stroke-width:0.5;stroke-linecap:round;stroke-linejoin:round;stroke-miterlimit:4;stroke-dasharray:2.8, 1.8;stroke-dashoffset:0;stroke-opacity:1"
       id="path844" />
    <path
       d="m 694.281,560.345 c -2.691,0.567 -6.405,-1.523 -9.655,-6.398 -3.25,-4.875 -9.749,-16.481 -7.892,-20.428 1.856,-3.947 10.162,-4.535 14.018,-4.706"
       style="fill:none;stroke:#231f20;stroke-width:0.5;stroke-linecap:round;stroke-linejoin:round;stroke-miterlimit:4;stroke-dasharray:2.8, 1.8;stroke-dashoffset:0;stroke-opacity:1"
       id="path846" />
    <path
       d="m 656.542,527.369 c 5.34,0.233 18.15,1.471 19.867,8"
       style="fill:none;stroke:#231f20;stroke-width:0.5;stroke-linecap:round;stroke-linejoin:round;stroke-miterlimit:4;stroke-dasharray:2.8, 1.8;stroke-dashoffset:0;stroke-opacity:1"
       id="path848" />
    <path
       d="m 643.931,526.661 c -3.603,-0.43 -11.072,-1.616 -14.787,-2.661 -3.418,-0.962 -11.374,-4.178 -12.303,-5.802 -0.929,-1.627 -1.113,-4.693 1.393,-7.198 3.25,-3.249 11.606,-5.803 19.964,-6.964 8.357,-1.16 14.392,-2.322 19.5,-1.394 5.107,0.931 10.446,2.789 13.928,4.413 3.483,1.624 10.913,6.731 7.198,10.212 -3.715,3.483 -18.122,7.751 -20.424,9.445"
       style="fill:none;stroke:#231f20;stroke-width:0.5;stroke-linecap:round;stroke-linejoin:round;stroke-miterlimit:4;stroke-dasharray:2.8, 1.8;stroke-dashoffset:7.5038;stroke-opacity:1"
       id="path850" />
    <path
       d="m 660.02,433.233 c -4.644,-6.964 9.054,-9.75 10.678,-5.571 1.514,3.898 -7.998,9.589 -10.678,5.571 z"
       style="fill:none;stroke:#231f20;stroke-width:0.5;stroke-linecap:round;stroke-linejoin:round;stroke-miterlimit:4;stroke-dasharray:2.8, 1.8;stroke-dashoffset:0;stroke-opacity:1"
       id="path852" />
    <path
       d="m 616.236,516.571 c 1.998,0.582 6.292,-0.694 4.551,-7.078"
       style="fill:none;stroke:#231f20;stroke-width:0.5;stroke-linecap:round;stroke-linejoin:round;stroke-miterlimit:4;stroke-dasharray:2.8, 1.8;stroke-dashoffset:0;stroke-opacity:1"
       id="path854" />
    <path
       d="m 463.766,516.571 c -1.998,0.582 -6.292,-0.694 -4.551,-7.078"
       style="fill:none;stroke:#231f20;stroke-width:0.5;stroke-linecap:round;stroke-linejoin:round;stroke-miterlimit:4;stroke-dasharray:2.8, 1.8;stroke-dashoffset:0;stroke-opacity:1"
       id="path856" />
    <path
       d="M 492.143,514.574 C 489.358,497.511 468.965,449.017 432.75,404.446"
       style="fill:none;stroke:#231f20;stroke-width:0.5;stroke-linecap:round;stroke-linejoin:round;stroke-miterlimit:4;stroke-dasharray:2.8, 1.8;stroke-dashoffset:0;stroke-opacity:1"
       id="path858" />
    <path
       d="m 468.36,515.652 c -3.83,-11.144 -22.725,-50.269 -68.341,-91.01"
       style="fill:none;stroke:#231f20;stroke-width:0.5;stroke-linecap:round;stroke-linejoin:round;stroke-miterlimit:4;stroke-dasharray:2.8, 1.8;stroke-dashoffset:0;stroke-opacity:1"
       id="path860" />
    <path
       d="m 538.26,396.725 c -5.223,17.411 0.697,42.194 1.742,42.194 1.043,0 6.963,-24.83 1.741,-42.24"
       style="fill:none;stroke:#231f20;stroke-width:0.5;stroke-linecap:round;stroke-linejoin:round;stroke-miterlimit:4;stroke-dasharray:2.8, 1.8;stroke-dashoffset:8.8864;stroke-opacity:1"
       id="path862" />
    <path
       d="m 536.168,411.062 c -5.233,0 -53.925,-12.615 -60.194,-61.713"
       style="fill:none;stroke:#231f20;stroke-width:0.5;stroke-linecap:round;stroke-linejoin:round;stroke-miterlimit:4;stroke-dasharray:2.8, 1.8;stroke-dashoffset:0;stroke-opacity:1"
       id="path864" />
    <path
       d="m 496.89,390.944 c -6.523,7.234 -32.103,19.073 -64.14,13.502"
       style="fill:none;stroke:#231f20;stroke-width:0.5;stroke-linecap:round;stroke-linejoin:round;stroke-miterlimit:4;stroke-dasharray:2.8, 1.8;stroke-dashoffset:0;stroke-opacity:1"
       id="path866" />
    <path
       d="m 477.293,356.666 c -10.417,8.78 -31.658,19.575 -48.373,25.494"
       style="fill:none;stroke:#231f20;stroke-width:0.5;stroke-linecap:round;stroke-linejoin:round;stroke-miterlimit:4;stroke-dasharray:2.8, 1.8;stroke-dashoffset:0;stroke-opacity:1"
       id="path868" />
    <path
       d="m 477.293,356.666 c -7.631,0.422 -15.292,-2.363 -18.426,-4.104 -3.134,-1.741 -10.447,-4.527 -19.152,2.089 -8.705,6.616 -14.973,12.536 -24.375,19.849"
       style="fill:none;stroke:#231f20;stroke-width:0.5;stroke-linecap:round;stroke-linejoin:round;stroke-miterlimit:4;stroke-dasharray:2.8, 1.8;stroke-dashoffset:0;stroke-opacity:1"
       id="path870" />
    <path
       d="m 507.436,368.569 c 2.953,22.274 26.497,28.216 32.566,28.216 6.067,0 29.611,-5.942 32.564,-28.216"
       style="fill:none;stroke:#231f20;stroke-width:0.5;stroke-linecap:round;stroke-linejoin:round;stroke-miterlimit:4;stroke-dasharray:2.8, 1.8;stroke-dashoffset:0;stroke-opacity:1"
       id="path872" />
    <path
       d="m 530.252,507.517 c -2.787,0 -2.787,-15.669 0.696,-15.669 3.482,0 2.089,15.669 -0.696,15.669 z"
       style="fill:none;stroke:#231f20;stroke-width:0.5;stroke-linecap:round;stroke-linejoin:round;stroke-miterlimit:4;stroke-dasharray:2.8, 1.8;stroke-dashoffset:0;stroke-opacity:1"
       id="path874" />
    <path
       d="m 525.479,520.366 c -2.889,-4.492 -11.378,-8.518 -25.871,-7.278 -12.188,1.045 -12.448,5.292 -13.407,10.542 -0.754,4.124 0.175,22.191 28.381,20.798"
       style="fill:none;stroke:#231f20;stroke-width:0.5;stroke-linecap:round;stroke-linejoin:round;stroke-miterlimit:4;stroke-dasharray:2.8, 1.8;stroke-dashoffset:0;stroke-opacity:1"
       id="path876" />
    <path
       d="m 524.68,489.758 c -7.661,-4.526 -24.027,-5.571 -27.857,0.697 -3.831,6.268 -2.438,13.928 2.785,22.633"
       style="fill:none;stroke:#231f20;stroke-width:0.5;stroke-linecap:round;stroke-linejoin:round;stroke-miterlimit:4;stroke-dasharray:2.8, 1.8;stroke-dashoffset:0;stroke-opacity:1"
       id="path878" />
    <path
       d="m 486.201,523.63 c -6.268,2.438 -19.673,5.128 -19.325,47.611"
       style="fill:none;stroke:#231f20;stroke-width:0.5;stroke-linecap:round;stroke-linejoin:round;stroke-miterlimit:4;stroke-dasharray:2.8, 1.8;stroke-dashoffset:0;stroke-opacity:1"
       id="path880" />
    <path
       d="m 445.983,575.767 c -0.348,-7.66 -3.134,-35.169 -9.75,-48.75"
       style="fill:none;stroke:#231f20;stroke-width:0.5;stroke-linecap:round;stroke-linejoin:round;stroke-miterlimit:4;stroke-dasharray:2.8, 1.8;stroke-dashoffset:0;stroke-opacity:1"
       id="path882" />
    <path
       d="m 492.143,514.574 c -7.649,-0.293 -16.537,-0.788 -28.377,1.997"
       style="fill:none;stroke:#231f20;stroke-width:0.5;stroke-linecap:round;stroke-linejoin:round;stroke-miterlimit:4;stroke-dasharray:2.8, 1.8;stroke-dashoffset:0;stroke-opacity:1"
       id="path884" />
    <path
       d="m 477.67,379.722 c -7.312,0 -7.312,-9.401 0,-9.401 6.269,0 7.313,9.401 0,9.401 z"
       style="fill:none;stroke:#231f20;stroke-width:0.5;stroke-linecap:round;stroke-linejoin:round;stroke-miterlimit:4;stroke-dasharray:2.8, 1.8;stroke-dashoffset:0;stroke-opacity:1"
       id="path886" />
    <path
       d="m 432.054,648.893 c -4.35,-0.687 -2.553,-6.965 -9.054,-11.838 -5.387,-4.04 -21.124,-14.162 -26.463,-13.466 -5.339,0.697 -11.375,5.339 -15.786,-3.018 -4.995,-9.464 -7.197,-19.501 -7.893,-22.983 -0.696,-3.482 2.553,-3.479 6.035,-2.551 3.483,0.927 21.124,4.875 30.644,9.053 9.518,4.178 23.679,12.072 30.411,18.107 6.731,6.035 8.123,12.071 7.891,16.249 -0.23,4.178 -6.963,11.84 -15.785,10.447"
       style="fill:#ffffff;fill-opacity:1;fill-rule:nonzero;stroke:none;stroke-width:0.1"
       id="path888" />
    <path
       d="m 432.054,648.893 c -4.35,-0.687 -2.553,-6.965 -9.054,-11.838 -5.387,-4.04 -21.124,-14.162 -26.463,-13.466 -5.339,0.697 -11.375,5.339 -15.786,-3.018 -4.995,-9.464 -7.197,-19.501 -7.893,-22.983 -0.696,-3.482 2.553,-3.479 6.035,-2.551 3.483,0.927 21.124,4.875 30.644,9.053 9.518,4.178 23.679,12.072 30.411,18.107 6.731,6.035 8.123,12.071 7.891,16.249 -0.23,4.178 -6.963,11.84 -15.785,10.447 z"
       style="fill:none;stroke:#231f20;stroke-width:0.5;stroke-linecap:round;stroke-linejoin:round;stroke-miterlimit:4;stroke-dasharray:2.8, 1.8;stroke-dashoffset:0;stroke-opacity:1"
       id="path890" />
    <path
       d="m 467.037,661.589 c -5.97,2.313 -14.438,6.107 -16.527,8.544 -2.138,2.494 -5.92,11.491 -11.143,10.448 -5.223,-1.045 -1.741,-11.144 2.786,-19.849 4.526,-8.705 7.312,-13.929 9.75,-17.063 2.437,-3.133 6.267,-9.053 11.142,-11.491 4.875,-2.437 17.761,-2.787 25.769,1.045 8.007,3.832 13.231,10.098 10.446,14.973 -2.786,4.875 -11.491,5.92 -15.67,7.312 -4.178,1.394 -12.866,4.652 -16.553,6.081"
       style="fill:#ffffff;fill-opacity:1;fill-rule:nonzero;stroke:none;stroke-width:0.1"
       id="path892" />
    <path
       d="m 467.037,661.589 c -5.97,2.313 -14.438,6.107 -16.527,8.544 -2.138,2.494 -5.92,11.491 -11.143,10.448 -5.223,-1.045 -1.741,-11.144 2.786,-19.849 4.526,-8.705 7.312,-13.929 9.75,-17.063 2.437,-3.133 6.267,-9.053 11.142,-11.491 4.875,-2.437 17.761,-2.787 25.769,1.045 8.007,3.832 13.231,10.098 10.446,14.973 -2.786,4.875 -11.491,5.92 -15.67,7.312 -4.178,1.394 -12.866,4.652 -16.553,6.081 z"
       style="fill:none;stroke:#231f20;stroke-width:0.5;stroke-linecap:round;stroke-linejoin:round;stroke-miterlimit:4;stroke-dasharray:2.8, 1.8;stroke-dashoffset:0;stroke-opacity:1"
       id="path894" />
    <path
       d="m 467.037,661.589 c -3.134,-4.178 -9.911,-13.393 -15.134,-17.92"
       style="fill:none;stroke:#231f20;stroke-width:0.5;stroke-linecap:round;stroke-linejoin:round;stroke-miterlimit:4;stroke-dasharray:2.8, 1.8;stroke-dashoffset:0;stroke-opacity:1"
       id="path896" />
    <path
       d="m 395.84,623.723 c 1.045,-5.821 -2.41,-17.451 -20.531,-16.513"
       style="fill:none;stroke:#231f20;stroke-width:0.5;stroke-linecap:round;stroke-linejoin:round;stroke-miterlimit:4;stroke-dasharray:2.8, 1.8;stroke-dashoffset:0;stroke-opacity:1"
       id="path898" />
    <path
       d="m 425.09,502.411 c -3.018,-1.858 -20.892,-21.589 -25.767,-27.625 -4.875,-6.035 -11.608,-15.785 -11.608,-27.858 0,-12.07 -0.89,-21.783 -3.715,-24.606 -2.901,-2.903 -8.279,-8.624 -18.392,-10.21"
       style="fill:none;stroke:#231f20;stroke-width:0.5;stroke-linecap:round;stroke-linejoin:round;stroke-miterlimit:4;stroke-dasharray:2.8, 1.8;stroke-dashoffset:0;stroke-opacity:1"
       id="path900" />
    <path
       d="m 384.964,417.401 c 2.612,1.879 6.697,2.135 9.948,2.6 3.25,0.462 18.572,2.552 23.447,-1.162 4.446,-3.389 2.32,-7.195 -1.921,-8.877 -3.207,-1.27 -12.008,-5.184 -21.99,-1.006"
       style="fill:none;stroke:#231f20;stroke-width:0.5;stroke-linecap:round;stroke-linejoin:round;stroke-miterlimit:4;stroke-dasharray:2.8, 1.8;stroke-dashoffset:0;stroke-opacity:1"
       id="path902" />
    <path
       d="m 377.985,410.148 c 0.696,1.392 3.463,4.279 7.641,3.12 4.179,-1.161 7.661,-3.251 11.839,-6.733 4.179,-3.482 6.269,-7.427 6.269,-11.374 0,-3.722 -0.466,-9.285 -2.786,-10.911 -2.126,-1.489 -8.358,-4.179 -11.375,-0.697 -3.019,3.482 -12.253,9.124 -17.411,7.313"
       style="fill:none;stroke:#231f20;stroke-width:0.5;stroke-linecap:round;stroke-linejoin:round;stroke-miterlimit:4;stroke-dasharray:2.8, 1.8;stroke-dashoffset:0;stroke-opacity:1"
       id="path904" />
    <path
       d="m 418.896,411.374 c 2.712,-0.892 7.867,-4.428 8.517,-8.321 0.696,-4.179 -0.698,-15.088 -7.198,-19.5 -6.501,-4.41 -15.321,-5.572 -19.267,0.697"
       style="fill:none;stroke:#231f20;stroke-width:0.5;stroke-linecap:round;stroke-linejoin:round;stroke-miterlimit:4;stroke-dasharray:2.8, 1.8;stroke-dashoffset:0;stroke-opacity:1"
       id="path906" />
    <path
       d="m 385.721,560.345 c 2.691,0.567 6.405,-1.523 9.655,-6.398 3.25,-4.875 9.75,-16.481 7.892,-20.428 -1.856,-3.947 -10.162,-4.535 -14.018,-4.706"
       style="fill:none;stroke:#231f20;stroke-width:0.5;stroke-linecap:round;stroke-linejoin:round;stroke-miterlimit:4;stroke-dasharray:2.8, 1.8;stroke-dashoffset:0;stroke-opacity:1"
       id="path908" />
    <path
       d="m 423.46,527.369 c -5.339,0.233 -18.15,1.471 -19.867,8"
       style="fill:none;stroke:#231f20;stroke-width:0.5;stroke-linecap:round;stroke-linejoin:round;stroke-miterlimit:4;stroke-dasharray:2.8, 1.8;stroke-dashoffset:0;stroke-opacity:1"
       id="path910" />
    <path
       d="m 370.87,503.874 c -0.273,-5.03 5.451,-19.535 8.719,-22.587 3.483,-3.251 16.917,-9.79 20.147,-5.995 3.229,3.794 3.067,14.119 2.836,18.066 -0.232,3.947 -0.696,16.948 -3.483,18.572 -2.785,1.624 -6.731,3.251 -15.089,1.393 -1.957,-0.436 -4.357,-1.534 -6.564,-2.851"
       style="fill:none;stroke:#231f20;stroke-width:0.5;stroke-linecap:round;stroke-linejoin:round;stroke-miterlimit:4;stroke-dasharray:2.8, 1.8;stroke-dashoffset:0;stroke-opacity:1"
       id="path912" />
    <path
       d="m 709.133,503.874 c 0.272,-5.03 -5.452,-19.535 -8.72,-22.587 -3.483,-3.251 -16.917,-9.79 -20.147,-5.995 -3.228,3.794 -3.066,14.119 -2.836,18.066 0.232,3.947 0.696,16.948 3.483,18.572 2.786,1.624 6.731,3.251 15.089,1.393 1.956,-0.436 4.358,-1.534 6.564,-2.851"
       style="fill:none;stroke:#231f20;stroke-width:0.5;stroke-linecap:round;stroke-linejoin:round;stroke-miterlimit:4;stroke-dasharray:2.8, 1.8;stroke-dashoffset:0;stroke-opacity:1"
       id="path914" />
    <path
       d="m 436.929,526.321 c 3.604,-0.43 10.214,-1.276 13.929,-2.321 3.418,-0.962 11.374,-4.178 12.304,-5.802 0.928,-1.627 1.112,-4.693 -1.394,-7.198 -3.249,-3.249 -11.606,-5.803 -19.964,-6.964 -8.356,-1.16 -14.391,-2.322 -19.5,-1.394 -5.107,0.931 -10.446,2.789 -13.928,4.413 -3.482,1.624 -10.912,6.731 -7.197,10.212 3.715,3.483 17.18,7.43 19.269,8.822"
       style="fill:none;stroke:#231f20;stroke-width:0.5;stroke-linecap:round;stroke-linejoin:round;stroke-miterlimit:4;stroke-dasharray:2.8, 1.8;stroke-dashoffset:7.5038;stroke-opacity:1"
       id="path916" />
    <path
       d="m 419.983,433.233 c 4.643,-6.964 -9.054,-9.75 -10.678,-5.571 -1.515,3.898 7.998,9.589 10.678,5.571 z"
       style="fill:none;stroke:#231f20;stroke-width:0.5;stroke-linecap:round;stroke-linejoin:round;stroke-miterlimit:4;stroke-dasharray:2.8, 1.8;stroke-dashoffset:0;stroke-opacity:1"
       id="path918" />
    <path
       d="m 549.637,527.567 c 3.705,1.605 16.365,-9.369 10.323,-11.703"
       style="fill:none;stroke:#231f20;stroke-width:0.5;stroke-linecap:round;stroke-linejoin:round;stroke-miterlimit:4;stroke-dasharray:2.8, 1.8;stroke-dashoffset:0;stroke-opacity:1"
       id="path920" />
    <path
       d="M 530.366,527.567 C 526.66,529.172 514,518.198 520.042,515.864"
       style="fill:none;stroke:#231f20;stroke-width:0.5;stroke-linecap:round;stroke-linejoin:round;stroke-miterlimit:4;stroke-dasharray:2.8, 1.8;stroke-dashoffset:0;stroke-opacity:1"
       id="path922" />
    <path
       d="m 629.144,524 c 0.587,-2.382 1.906,-3.542 4.16,-4.56 2.74,-1.238 7.165,-1.713 8.962,1.177 1.796,2.887 1.734,4.197 1.665,6.044"
       style="fill:none;stroke:#231f20;stroke-width:0.5;stroke-linecap:round;stroke-linejoin:round;stroke-miterlimit:4;stroke-dasharray:2.8, 1.8;stroke-dashoffset:0;stroke-opacity:1"
       id="path924" />
    <path
       d="m 652.75,519.169 c 0,0 7.225,-11.26 17.629,-12.786"
       style="fill:none;stroke:#231f20;stroke-width:0.5;stroke-linecap:round;stroke-linejoin:round;stroke-miterlimit:4;stroke-dasharray:2.8, 1.8;stroke-dashoffset:0;stroke-opacity:1"
       id="path926" />
    <path
       d="m 635.618,518.482 c 0.074,-2.687 3.63,-9.052 8.365,-8.934 4.737,0.118 8.435,4.378 8.767,9.621"
       style="fill:none;stroke:#231f20;stroke-width:0.5;stroke-linecap:round;stroke-linejoin:round;stroke-miterlimit:4;stroke-dasharray:2.8, 1.8;stroke-dashoffset:0;stroke-opacity:1"
       id="path928" />
    <path
       d="m 640.223,510.832 c 0.453,-2.02 0.01,-4.136 -1.223,-7.131"
       style="fill:none;stroke:#231f20;stroke-width:0.5;stroke-linecap:round;stroke-linejoin:round;stroke-miterlimit:4;stroke-dasharray:2.8, 1.8;stroke-dashoffset:0;stroke-opacity:1"
       id="path930" />
    <path
       d="m 450.858,524 c -0.586,-2.382 -1.905,-3.542 -4.159,-4.56 -2.739,-1.238 -7.166,-1.713 -8.963,1.177 -1.795,2.887 -1.735,4.197 -1.665,6.044"
       style="fill:none;stroke:#231f20;stroke-width:0.5;stroke-linecap:round;stroke-linejoin:round;stroke-miterlimit:4;stroke-dasharray:2.8, 1.8;stroke-dashoffset:0;stroke-opacity:1"
       id="path932" />
    <path
       d="m 427.253,519.169 c 0,0 -7.225,-11.26 -17.629,-12.786"
       style="fill:none;stroke:#231f20;stroke-width:0.5;stroke-linecap:round;stroke-linejoin:round;stroke-miterlimit:4;stroke-dasharray:2.8, 1.8;stroke-dashoffset:0;stroke-opacity:1"
       id="path934" />
    <path
       d="m 444.385,518.482 c -0.075,-2.687 -3.631,-9.052 -8.365,-8.934 -4.738,0.118 -8.436,4.378 -8.767,9.621"
       style="fill:none;stroke:#231f20;stroke-width:0.5;stroke-linecap:round;stroke-linejoin:round;stroke-miterlimit:4;stroke-dasharray:2.8, 1.8;stroke-dashoffset:0;stroke-opacity:1"
       id="path936" />
    <path
       d="m 439.779,510.832 c -0.452,-2.02 -0.009,-4.136 1.223,-7.131"
       style="fill:none;stroke:#231f20;stroke-width:0.5;stroke-linecap:round;stroke-linejoin:round;stroke-miterlimit:4;stroke-dasharray:2.8, 1.8;stroke-dashoffset:0;stroke-opacity:1"
       id="path938" />
    <path
       d="m 874.984,592.482 c 4.642,3.017 15.785,9.981 22.75,13.463 6.964,3.481 22.751,10.68 29.018,7.429 6.268,-3.25 1.162,-11.142 -2.088,-14.159 -3.251,-3.02 -12.074,-6.5 -18.574,-9.053 -6.499,-2.555 -11.142,-6.038 -10.91,-8.358 0.233,-2.323 5.107,-9.518 13.696,-10.912 8.59,-1.392 15.788,1.858 22.519,5.341 6.731,3.482 13.465,9.054 16.714,14.159 2.118,3.33 6.501,4.179 9.054,-1.161 2.553,-5.338 6.499,-14.625 3.946,-17.177 -2.554,-2.554 -9.649,-8.123 -13.696,-10.678 -4.411,-2.786 -4.179,-8.59 -1.184,-10.947 2.129,-1.673 11.398,-7.625 10.47,-15.286 -0.929,-7.66 -10.215,-11.143 -18.573,-13.231 -8.357,-2.09 -16.947,-6.731 -27.161,-7.893 -10.213,-1.161 -18.307,-0.672 -17.641,7.661 0.464,5.803 8.443,10.349 13,15.087 5.803,6.037 5.285,7.008 4.411,10.216 -1.394,5.106 -20.197,11.607 -36.447,14.159"
       style="fill:none;stroke:#231f20;stroke-width:0.75;stroke-linecap:round;stroke-linejoin:round;stroke-miterlimit:4;stroke-dasharray:0, 2;stroke-dashoffset:0;stroke-opacity:1"
       id="path940" />
    <path
       d="m 728.502,616.392 c -1.658,-4.969 9.536,-10.98 22.75,-12.536 11.839,-1.393 20.398,2.826 20.893,5.805 0.464,2.786 -10.446,9.75 -22.519,11.142 -12.071,1.394 -19.732,-0.232 -21.124,-4.411"
       style="fill:#ffffff;fill-opacity:1;fill-rule:nonzero;stroke:none;stroke-width:0.1"
       id="path942" />
    <path
       d="m 728.502,616.392 c -1.658,-4.969 9.536,-10.98 22.75,-12.536 11.839,-1.393 20.398,2.826 20.893,5.805 0.464,2.786 -10.446,9.75 -22.519,11.142 -12.071,1.394 -19.732,-0.232 -21.124,-4.411 z"
       style="fill:none;stroke:#231f20;stroke-width:0.75;stroke-linecap:round;stroke-linejoin:round;stroke-miterlimit:4;stroke-dasharray:0, 2;stroke-dashoffset:0;stroke-opacity:1"
       id="path944" />
    <path
       d="m 540.002,611.517 c -3.018,0 -35.055,-2.263 -35.055,7.894 0,12.536 22.75,10.213 35.055,10.213 12.304,0 35.053,2.323 35.053,-10.213 0,-10.157 -32.037,-7.894 -35.053,-7.894 z"
       style="fill:none;stroke:#231f20;stroke-width:0.75;stroke-linecap:round;stroke-linejoin:round;stroke-miterlimit:4;stroke-dasharray:0, 2;stroke-dashoffset:3.5;stroke-opacity:1"
       id="path946" />
    <path
       d="m 205.018,592.482 c -4.642,3.017 -15.785,9.981 -22.749,13.463 -6.965,3.481 -22.751,10.68 -29.019,7.429 -6.268,-3.25 -1.162,-11.142 2.089,-14.159 3.251,-3.02 12.074,-6.5 18.573,-9.053 6.499,-2.555 11.142,-6.038 10.91,-8.358 -0.233,-2.323 -5.107,-9.518 -13.696,-10.912 -8.589,-1.392 -15.787,1.858 -22.518,5.341 -6.732,3.482 -13.465,9.054 -16.715,14.159 -2.118,3.33 -6.5,4.179 -9.054,-1.161 -2.552,-5.338 -6.499,-14.625 -3.945,-17.177 2.553,-2.554 9.649,-8.123 13.695,-10.678 4.411,-2.786 4.179,-8.59 1.184,-10.947 -2.129,-1.673 -11.398,-7.625 -10.47,-15.286 0.93,-7.66 10.216,-11.143 18.573,-13.231 8.357,-2.09 16.947,-6.731 27.161,-7.893 10.213,-1.161 18.308,-0.672 17.641,7.661 -0.464,5.803 -8.442,10.349 -12.999,15.087 -5.804,6.037 -5.286,7.008 -4.411,10.216 1.393,5.106 20.196,11.607 36.446,14.159"
       style="fill:none;stroke:#231f20;stroke-width:0.75;stroke-linecap:round;stroke-linejoin:round;stroke-miterlimit:4;stroke-dasharray:0, 2;stroke-dashoffset:0;stroke-opacity:1"
       id="path948" />
    <path
       d="m 260.384,627.303 c -1.741,2.09 18.456,5.224 26.813,6.965 8.357,1.74 41.786,6.615 60.241,19.151 18.456,12.537 26.116,25.072 25.072,28.554 -1.045,3.483 -9.053,6.964 -20.545,5.224 -11.491,-1.741 -25.071,-2.786 -33.428,1.044 -8.358,3.831 -23.331,4.527 -31.34,2.437 -8.009,-2.089 -18.804,-9.054 -32.732,-18.107 -13.928,-9.053 -24.723,-13.928 -35.518,-13.928 -10.795,0 -8.705,11.49 -8.358,19.151 0.349,7.662 5.573,33.429 6.965,41.438 0.776,4.46 -1.045,22.286 1.393,31.687 2.104,8.119 6.965,14.974 9.75,17.759 2.786,2.786 7.661,8.01 15.67,12.885 8.009,4.875 10.098,-9.75 10.098,-15.67 0,-5.92 -1.741,-21.59 12.884,-27.509 13.171,-5.331 26.464,-4.178 37.608,4.178 11.142,8.357 8.356,19.152 6.963,30.295 -1.392,11.143 -8.357,16.715 -18.107,27.161 -9.75,10.446 -5.571,13.58 -0.348,21.589 5.223,8.01 25.072,12.885 35.518,12.885 10.446,0 10.446,-13.233 9.75,-18.804 -0.696,-5.572 -0.382,-22.568 0.349,-26.813 1.008,-5.867 1.392,-15.322 6.615,-18.107 5.223,-2.786 18.107,-1.045 21.241,-0.696 3.135,0.347 8.357,-1.741 10.447,-3.831 2.089,-2.089 6.615,-12.188 9.402,-17.41 2.786,-5.224 4.875,-10.447 12.187,-7.662 18.32,6.98 23.33,18.108 28.902,28.554 5.572,10.446 4.874,22.286 -0.697,30.991 -5.571,8.705 -21.241,15.322 -38.651,22.286 -17.411,6.964 -18.804,13.929 -19.849,18.456 -1.044,4.526 6.965,9.401 17.063,12.536 10.098,3.133 22.286,0.347 26.812,0 4.528,-0.349 8.009,-6.617 12.884,-12.188 4.875,-5.572 11.84,0.348 13.929,2.089 2.09,1.741 28.553,19.151 32.732,21.241 4.179,2.089 11.84,-0.696 12.536,-2.786 0.697,-2.089 0.51,-9.703 1.044,-11.839 0.697,-2.786 -9.401,-6.616 -6.964,-15.67 1.581,-5.872 8.358,-7.66 14.625,-7.66 6.268,0 38.304,2.089 46.662,2.089 8.356,0 40.392,-2.089 46.66,-2.089 6.268,0 13.045,1.788 14.625,7.66 2.437,9.054 -7.661,12.884 -6.964,15.67 0.534,2.136 0.348,9.75 1.045,11.839 0.696,2.09 8.356,4.875 12.535,2.786 4.179,-2.09 30.643,-19.5 32.732,-21.241 2.089,-1.741 9.054,-7.661 13.929,-2.089 4.875,5.571 8.357,11.839 12.884,12.188 4.527,0.347 16.715,3.133 26.812,0 10.099,-3.135 18.108,-8.01 17.063,-12.536 -1.045,-4.527 -2.438,-11.492 -19.848,-18.456 -17.411,-6.964 -33.081,-13.581 -38.652,-22.286 -5.571,-8.705 -6.268,-20.545 -0.697,-30.991 5.572,-10.446 10.582,-21.574 28.902,-28.554 7.312,-2.785 9.402,2.438 12.187,7.662 2.787,5.222 7.313,15.321 9.403,17.41 2.089,2.09 7.312,4.178 10.446,3.831 3.134,-0.349 16.018,-2.09 21.241,0.696 5.224,2.785 5.607,12.24 6.616,18.107 0.731,4.245 1.045,21.241 0.348,26.813 -0.696,5.571 -0.696,18.804 9.75,18.804 10.447,0 30.295,-4.875 35.519,-12.885 5.222,-8.009 9.401,-11.143 -0.349,-21.589 -9.75,-10.446 -16.714,-16.018 -18.107,-27.161 -1.393,-11.143 -4.178,-21.938 6.964,-30.295 11.143,-8.356 24.437,-9.509 37.608,-4.178 14.625,5.919 12.884,21.589 12.884,27.509 0,5.92 2.088,20.545 10.097,15.67 8.01,-4.875 12.885,-10.099 15.67,-12.885 2.786,-2.785 7.646,-9.64 9.75,-17.759 2.438,-9.401 0.618,-27.227 1.394,-31.687 1.392,-8.009 6.615,-33.776 6.964,-41.438 0.348,-7.661 2.437,-19.151 -8.358,-19.151 -10.795,0 -21.589,4.875 -35.517,13.928 -13.929,9.053 -24.724,16.018 -32.733,18.107 -8.009,2.09 -22.982,1.394 -31.339,-2.437 -8.357,-3.83 -21.937,-2.785 -33.428,-1.044 -11.492,1.74 -19.5,-1.741 -20.545,-5.224 -1.045,-3.482 6.616,-16.017 25.071,-28.554 18.455,-12.536 51.884,-17.411 60.241,-19.151 8.358,-1.741 28.554,-4.875 26.813,-6.965"
       style="fill:none;stroke:#231f20;stroke-width:0.75;stroke-linecap:round;stroke-linejoin:round;stroke-miterlimit:4;stroke-dasharray:0, 2;stroke-dashoffset:0;stroke-opacity:1"
       id="path950" />
    <path
       d="m 237.848,646.29 c 1.694,-0.927 3.28,-1.97 4.778,-2.969 4.178,-2.785 15.321,-12.188 17.758,-16.018 2.438,-3.83 8.358,-10.097 16.366,-15.322 8.009,-5.223 19.5,-14.276 32.384,-17.758 12.885,-3.482 30.992,-3.134 32.385,-7.661 1.393,-4.526 -5.224,-6.964 -21.59,-11.143 -16.366,-4.178 -27.161,-5.223 -33.776,-1.741 -6.616,3.483 -7.661,10.795 -7.313,15.67 0.348,4.875 -0.348,10.794 -9.75,16.714 -9.402,5.919 -20.197,13.929 -28.553,22.982 -8.358,9.054 -22.287,13.929 -27.51,11.492 -5.223,-2.438 -4.178,-12.536 1.045,-18.804 5.223,-6.268 11.491,-17.411 24.027,-25.071 12.535,-7.661 15.907,-24.27 19.848,-26.117"
       style="fill:none;stroke:#231f20;stroke-width:0.75;stroke-linecap:round;stroke-linejoin:round;stroke-miterlimit:4;stroke-dasharray:0, 2;stroke-dashoffset:0;stroke-opacity:1"
       id="path952" />
    <path
       d="m 470.126,618.482 c -5.572,-2.322 1.392,-3.714 1.392,-10.68 0,-4.202 -10.678,-11.141 -12.535,-12.535 -1.858,-1.393 -3.863,-8.9 3.566,-11.686 7.43,-2.787 27.221,-5.028 41.614,-5.493 14.391,-0.463 21.948,1.162 35.839,1.162 13.89,0 21.446,-1.625 35.838,-1.162 14.393,0.465 34.184,2.706 41.614,5.493 7.428,2.786 5.423,10.293 3.566,11.686 -1.858,1.394 -12.536,8.333 -12.536,12.535 0,6.966 6.964,8.358 1.392,10.68"
       style="fill:none;stroke:#231f20;stroke-width:0.75;stroke-linecap:round;stroke-linejoin:round;stroke-miterlimit:4;stroke-dasharray:0, 2;stroke-dashoffset:0;stroke-opacity:1"
       id="path954" />
    <path
       d="m 540.002,669.089 c -18.631,0 -41.586,9.189 -57.457,17.411 -13.536,7.012 -18.116,18.53 -20.196,23.331 -4.526,10.446 -7.312,24.375 -2.437,25.767 4.875,1.393 12.536,-11.491 17.411,-19.5 4.875,-8.009 10.446,-12.884 20.544,-13.58 10.098,-0.696 31.34,-0.349 42.135,-0.349 10.793,0 32.035,-0.347 42.133,0.349 10.099,0.696 15.67,5.571 20.545,13.58 4.875,8.009 12.535,20.893 17.41,19.5 4.875,-1.392 2.09,-15.321 -2.437,-25.767 -2.079,-4.801 -6.659,-16.319 -20.196,-23.331 -15.872,-8.222 -38.825,-17.411 -57.455,-17.411"
       style="fill:#ffffff;fill-opacity:1;fill-rule:nonzero;stroke:none;stroke-width:0.1"
       id="path956" />
    <path
       d="m 540.002,669.089 c -18.631,0 -41.586,9.189 -57.457,17.411 -13.536,7.012 -18.116,18.53 -20.196,23.331 -4.526,10.446 -7.312,24.375 -2.437,25.767 4.875,1.393 12.536,-11.491 17.411,-19.5 4.875,-8.009 10.446,-12.884 20.544,-13.58 10.098,-0.696 31.34,-0.349 42.135,-0.349 10.793,0 32.035,-0.347 42.133,0.349 10.099,0.696 15.67,5.571 20.545,13.58 4.875,8.009 12.535,20.893 17.41,19.5 4.875,-1.392 2.09,-15.321 -2.437,-25.767 -2.079,-4.801 -6.659,-16.319 -20.196,-23.331 -15.872,-8.222 -38.825,-17.411 -57.455,-17.411 z"
       style="fill:none;stroke:#231f20;stroke-width:0.75;stroke-linecap:round;stroke-linejoin:round;stroke-miterlimit:4;stroke-dasharray:0, 2;stroke-dashoffset:0;stroke-opacity:1"
       id="path958" />
    <path
       d="m 351.501,616.392 c 1.657,-4.969 -9.537,-10.98 -22.751,-12.536 -11.839,-1.393 -20.398,2.826 -20.893,5.805 -0.463,2.786 10.447,9.75 22.519,11.142 12.072,1.394 19.733,-0.232 21.125,-4.411"
       style="fill:#ffffff;fill-opacity:1;fill-rule:nonzero;stroke:none;stroke-width:0.1"
       id="path960" />
    <path
       d="m 351.501,616.392 c 1.657,-4.969 -9.537,-10.98 -22.751,-12.536 -11.839,-1.393 -20.398,2.826 -20.893,5.805 -0.463,2.786 10.447,9.75 22.519,11.142 12.072,1.394 19.733,-0.232 21.125,-4.411 z"
       style="fill:none;stroke:#231f20;stroke-width:0.75;stroke-linecap:round;stroke-linejoin:round;stroke-miterlimit:4;stroke-dasharray:0, 2;stroke-dashoffset:0;stroke-opacity:1"
       id="path962" />
    <path
       d="m 842.154,646.29 c -1.693,-0.927 -3.28,-1.97 -4.778,-2.969 -4.178,-2.785 -15.321,-12.188 -17.758,-16.018 -2.438,-3.83 -8.358,-10.097 -16.366,-15.322 -8.009,-5.223 -19.5,-14.276 -32.384,-17.758 -12.884,-3.482 -30.992,-3.134 -32.384,-7.661 -1.393,-4.526 5.223,-6.964 21.589,-11.143 16.366,-4.178 27.161,-5.223 33.777,-1.741 6.616,3.483 7.66,10.795 7.313,15.67 -0.349,4.875 0.347,10.794 9.75,16.714 9.401,5.919 20.196,13.929 28.553,22.982 8.357,9.054 22.286,13.929 27.509,11.492 5.224,-2.438 4.179,-12.536 -1.045,-18.804 -5.222,-6.268 -11.491,-17.411 -24.026,-25.071 -12.536,-7.661 -15.908,-24.27 -19.849,-26.117"
       style="fill:none;stroke:#231f20;stroke-width:0.75;stroke-linecap:round;stroke-linejoin:round;stroke-miterlimit:4;stroke-dasharray:0, 2;stroke-dashoffset:0;stroke-opacity:1"
       id="path964" />
  </g>
</svg>
