<?xml version="1.0" encoding="UTF-8" standalone="no"?>
<!-- Created with Inkscape (http://www.inkscape.org/) -->

<svg
   version="1.1"
   id="svg2"
   width="1440"
   height="1344"
   viewBox="0 0 1440 1344"
   xmlns="http://www.w3.org/2000/svg"
   xmlns:svg="http://www.w3.org/2000/svg">
  <defs
     id="defs6" />
  <g
     id="g8">
    <path
       d="m 540.002,350.06 c -5.572,0 -6.269,-10.909 0,-10.909 6.267,0 5.571,10.909 0,10.909"
       style="fill:#ffffff;fill-opacity:1;fill-rule:nonzero;stroke:none;stroke-width:0.1"
       id="path668" />
    <path
       d="m 540.002,350.06 c -5.572,0 -6.269,-10.909 0,-10.909 6.267,0 5.571,10.909 0,10.909 z"
       style="fill:none;stroke:#231f20;stroke-width:0.5;stroke-linecap:round;stroke-linejoin:round;stroke-miterlimit:4;stroke-dasharray:none;stroke-opacity:1"
       id="path670" />
    <path
       d="m 540.002,350.123 c -4.528,0 -5.572,-3.481 -8.009,-8.007 -2.438,-4.528 -3.831,-9.403 -12.885,-10.448 -9.053,-1.044 -41.438,1.394 -50.839,3.135 -9.402,1.74 -13.58,5.919 -19.5,8.705 -5.92,2.785 -31.687,13.233 -58.152,25.072 -26.464,11.838 -30.991,17.758 -33.777,21.241 -2.786,3.482 -14.625,10.795 -19.5,14.276 -4.875,3.483 -16.018,14.974 -22.982,32.733 -6.964,17.758 2.089,42.367 2.089,42.367 -4.875,-10.447 -8.357,-9.054 -9.053,-6.269 -0.697,2.786 -4.643,22.286 -4.875,24.839 -0.233,2.554 0,6.269 -0.697,8.59 -0.696,2.322 -6.035,16.945 -7.196,20.196 -1.163,3.251 -0.232,9.982 -0.232,9.982 -2.089,2.089 -9.75,12.768 -11.376,18.803 -1.625,6.036 2.786,13.465 2.786,13.465 -1.625,-0.464 -6.035,-1.392 -8.821,-3.018 -2.785,-1.625 -13.001,-2.785 -22.982,-4.643 -9.981,-1.856 -32.501,-5.339 -43.178,-10.91 -10.678,-5.571 -15.555,-1.161 -15.555,-1.161 -2.321,-11.376 -15.785,-9.285 -15.785,-9.285 6.267,-0.697 11.84,-6.734 12.304,-21.125 0.463,-14.393 -25.769,-18.108 -35.287,-16.715 -9.516,1.392 -21.124,6.035 -30.642,7.428 -9.518,1.393 -13.232,4.644 -18.572,11.608 -5.34,6.965 -7.8922,15.321 -8.1258,24.839 -0.2325,9.517 8.1258,12.536 8.1258,12.536 -1.626,0.464 -6.036,3.946 -8.3583,6.964 -2.3211,3.018 -2.3203,17.876 -2.3203,23.91 0,6.036 0.9278,16.483 2.0891,17.876 1.1621,1.393 3.7145,5.34 13.2325,8.125 10.651,3.117 14.16,-4.643 14.16,-4.643 -2.786,11.608 6.268,14.625 11.839,16.249 5.572,1.625 20.43,0.234 34.125,-7.427 13.697,-7.661 27.161,-10.911 35.751,-11.839 8.59,-0.929 11.839,-1.161 12.769,1.856 0.928,3.018 -4.179,6.964 -11.609,14.393 -7.429,7.429 -12.766,23.215 -11.374,31.34 1.393,8.125 11.607,16.946 11.607,16.946 -1.16,0.696 -6.268,4.875 -8.821,6.964 -2.553,2.09 -3.948,7.429 -4.412,11.84 -0.464,4.41 -0.696,19.963 1.394,29.713 2.089,9.75 3.945,16.019 7.892,21.59 3.949,5.572 9.286,-0.464 9.286,-0.464 -3.947,6.732 3.714,24.607 7.197,31.339 3.481,6.732 15.554,18.804 18.107,22.983 2.553,4.178 6.036,9.052 23.214,20.428 17.18,11.375 23.214,13.697 28.089,15.322 4.875,1.626 6.037,-0.697 6.037,-0.697 -1.161,2.323 2.553,4.643 5.106,5.804 2.553,1.16 10.679,10.678 17.643,13.232 6.965,2.553 16.715,8.822 38.304,11.375 21.59,2.552 24.839,-9.054 24.839,-9.054 -0.233,6.731 6.733,13.697 9.286,15.555 2.554,1.857 22.286,13.927 32.036,17.177 9.75,3.25 19.099,5.246 26.308,5.773 7.209,0.527 31.473,1.934 37.452,2.286 5.978,0.351 39.563,2.462 51.848,2.462 12.282,0 45.869,-2.111 51.846,-2.462 5.979,-0.352 30.243,-1.759 37.452,-2.286 7.21,-0.527 16.559,-2.523 26.309,-5.773 9.75,-3.25 29.482,-15.32 32.035,-17.177 2.554,-1.858 9.52,-8.824 9.286,-15.555 0,0 3.25,11.606 24.839,9.054 21.59,-2.553 31.34,-8.822 38.304,-11.375 6.965,-2.554 15.091,-12.072 17.643,-13.232 2.553,-1.161 6.267,-3.481 5.107,-5.804 0,0 1.161,2.323 6.036,0.697 4.875,-1.625 10.909,-3.947 28.089,-15.322 17.179,-11.376 20.662,-16.25 23.215,-20.428 2.552,-4.179 14.625,-16.251 18.107,-22.983 3.482,-6.732 11.143,-24.607 7.196,-31.339 0,0 5.338,6.036 9.286,0.464 3.947,-5.571 5.803,-11.84 7.893,-21.59 2.089,-9.75 1.857,-25.303 1.393,-29.713 -0.464,-4.411 -1.859,-9.75 -4.412,-11.84 -2.552,-2.089 -7.661,-6.268 -8.821,-6.964 0,0 10.214,-8.821 11.608,-16.946 1.392,-8.125 -3.946,-23.911 -11.375,-31.34 -7.429,-7.429 -12.538,-11.375 -11.608,-14.393 0.929,-3.017 4.179,-2.785 12.769,-1.856 8.589,0.928 22.053,4.178 35.75,11.839 13.696,7.661 28.553,9.052 34.125,7.427 5.571,-1.624 14.625,-4.641 11.84,-16.249 0,0 3.508,7.76 14.159,4.643 9.519,-2.785 12.071,-6.732 13.232,-8.125 1.162,-1.393 2.089,-11.84 2.089,-17.876 0,-6.034 0.002,-20.892 -2.32,-23.91 -2.322,-3.018 -6.732,-6.5 -8.358,-6.964 0,0 8.358,-3.019 8.125,-12.536 -0.232,-9.518 -2.784,-17.874 -8.125,-24.839 -5.34,-6.964 -9.054,-10.215 -18.572,-11.608 -9.517,-1.393 -21.125,-6.036 -30.642,-7.428 -9.518,-1.393 -35.75,2.322 -35.286,16.715 0.464,14.391 6.036,20.428 12.303,21.125 0,0 -13.463,-2.091 -15.785,9.285 0,0 -4.876,-4.41 -15.554,1.161 -10.678,5.571 -33.197,9.054 -43.178,10.91 -9.982,1.858 -20.197,3.018 -22.983,4.643 -2.786,1.626 -7.195,2.554 -8.821,3.018 0,0 4.411,-7.429 2.786,-13.465 -1.626,-6.035 -9.286,-16.714 -11.376,-18.803 0,0 0.931,-6.731 -0.231,-9.982 -1.162,-3.251 -6.501,-17.874 -7.197,-20.196 -0.696,-2.321 -0.464,-6.036 -0.696,-8.59 -0.232,-2.553 -4.179,-22.053 -4.875,-24.839 -0.696,-2.785 -4.179,-4.178 -9.054,6.269 0,0 9.054,-24.609 2.089,-42.367 -6.964,-17.759 -18.106,-29.25 -22.981,-32.733 -4.875,-3.481 -16.715,-10.794 -19.5,-14.276 -2.787,-3.483 -7.313,-9.403 -33.778,-21.241 -26.464,-11.839 -52.232,-22.287 -58.151,-25.072 -5.92,-2.786 -10.099,-6.965 -19.5,-8.705 -9.402,-1.741 -41.786,-4.179 -50.84,-3.135 -9.054,1.045 -10.446,5.92 -12.884,10.448 -2.437,4.526 -3.482,8.007 -8.008,8.007"
       style="fill:#ffffff;fill-opacity:1;fill-rule:nonzero;stroke:none;stroke-width:0.1"
       id="path672" />
    <path
       d="m 540.002,350.123 c -4.528,0 -5.572,-3.481 -8.009,-8.007 -2.438,-4.528 -3.831,-9.403 -12.885,-10.448 -9.053,-1.044 -41.438,1.394 -50.839,3.135 -9.402,1.74 -13.58,5.919 -19.5,8.705 -5.92,2.785 -31.687,13.233 -58.152,25.072 -26.464,11.838 -30.991,17.758 -33.777,21.241 -2.786,3.482 -14.625,10.795 -19.5,14.276 -4.875,3.483 -16.018,14.974 -22.982,32.733 -6.964,17.758 2.089,42.367 2.089,42.367 -4.875,-10.447 -8.357,-9.054 -9.053,-6.269 -0.697,2.786 -4.643,22.286 -4.875,24.839 -0.233,2.554 0,6.269 -0.697,8.59 -0.696,2.322 -6.035,16.945 -7.196,20.196 -1.163,3.251 -0.232,9.982 -0.232,9.982 -2.089,2.089 -9.75,12.768 -11.376,18.803 -1.625,6.036 2.786,13.465 2.786,13.465 -1.625,-0.464 -6.035,-1.392 -8.821,-3.018 -2.785,-1.625 -13.001,-2.785 -22.982,-4.643 -9.981,-1.856 -32.501,-5.339 -43.178,-10.91 -10.678,-5.571 -15.555,-1.161 -15.555,-1.161 -2.321,-11.376 -15.785,-9.285 -15.785,-9.285 6.267,-0.697 11.84,-6.734 12.304,-21.125 0.463,-14.393 -25.769,-18.108 -35.287,-16.715 -9.516,1.392 -21.124,6.035 -30.642,7.428 -9.518,1.393 -13.232,4.644 -18.572,11.608 -5.34,6.965 -7.8922,15.321 -8.1258,24.839 -0.2325,9.517 8.1258,12.536 8.1258,12.536 -1.626,0.464 -6.036,3.946 -8.3583,6.964 -2.3211,3.018 -2.3203,17.876 -2.3203,23.91 0,6.036 0.9278,16.483 2.0891,17.876 1.1621,1.393 3.7145,5.34 13.2325,8.125 10.651,3.117 14.16,-4.643 14.16,-4.643 -2.786,11.608 6.268,14.625 11.839,16.249 5.572,1.625 20.43,0.234 34.125,-7.427 13.697,-7.661 27.161,-10.911 35.751,-11.839 8.59,-0.929 11.839,-1.161 12.769,1.856 0.928,3.018 -4.179,6.964 -11.609,14.393 -7.429,7.429 -12.766,23.215 -11.374,31.34 1.393,8.125 11.607,16.946 11.607,16.946 -1.16,0.696 -6.268,4.875 -8.821,6.964 -2.553,2.09 -3.948,7.429 -4.412,11.84 -0.464,4.41 -0.696,19.963 1.394,29.713 2.089,9.75 3.945,16.019 7.892,21.59 3.949,5.572 9.286,-0.464 9.286,-0.464 -3.947,6.732 3.714,24.607 7.197,31.339 3.481,6.732 15.554,18.804 18.107,22.983 2.553,4.178 6.036,9.052 23.214,20.428 17.18,11.375 23.214,13.697 28.089,15.322 4.875,1.626 6.037,-0.697 6.037,-0.697 -1.161,2.323 2.553,4.643 5.106,5.804 2.553,1.16 10.679,10.678 17.643,13.232 6.965,2.553 16.715,8.822 38.304,11.375 21.59,2.552 24.839,-9.054 24.839,-9.054 -0.233,6.731 6.733,13.697 9.286,15.555 2.554,1.857 22.286,13.927 32.036,17.177 9.75,3.25 19.099,5.246 26.308,5.773 7.209,0.527 31.473,1.934 37.452,2.286 5.978,0.351 39.563,2.462 51.848,2.462 12.282,0 45.869,-2.111 51.846,-2.462 5.979,-0.352 30.243,-1.759 37.452,-2.286 7.21,-0.527 16.559,-2.523 26.309,-5.773 9.75,-3.25 29.482,-15.32 32.035,-17.177 2.554,-1.858 9.52,-8.824 9.286,-15.555 0,0 3.25,11.606 24.839,9.054 21.59,-2.553 31.34,-8.822 38.304,-11.375 6.965,-2.554 15.091,-12.072 17.643,-13.232 2.553,-1.161 6.267,-3.481 5.107,-5.804 0,0 1.161,2.323 6.036,0.697 4.875,-1.625 10.909,-3.947 28.089,-15.322 17.179,-11.376 20.662,-16.25 23.215,-20.428 2.552,-4.179 14.625,-16.251 18.107,-22.983 3.482,-6.732 11.143,-24.607 7.196,-31.339 0,0 5.338,6.036 9.286,0.464 3.947,-5.571 5.803,-11.84 7.893,-21.59 2.089,-9.75 1.857,-25.303 1.393,-29.713 -0.464,-4.411 -1.859,-9.75 -4.412,-11.84 -2.552,-2.089 -7.661,-6.268 -8.821,-6.964 0,0 10.214,-8.821 11.608,-16.946 1.392,-8.125 -3.946,-23.911 -11.375,-31.34 -7.429,-7.429 -12.538,-11.375 -11.608,-14.393 0.929,-3.017 4.179,-2.785 12.769,-1.856 8.589,0.928 22.053,4.178 35.75,11.839 13.696,7.661 28.553,9.052 34.125,7.427 5.571,-1.624 14.625,-4.641 11.84,-16.249 0,0 3.508,7.76 14.159,4.643 9.519,-2.785 12.071,-6.732 13.232,-8.125 1.162,-1.393 2.089,-11.84 2.089,-17.876 0,-6.034 0.002,-20.892 -2.32,-23.91 -2.322,-3.018 -6.732,-6.5 -8.358,-6.964 0,0 8.358,-3.019 8.125,-12.536 -0.232,-9.518 -2.784,-17.874 -8.125,-24.839 -5.34,-6.964 -9.054,-10.215 -18.572,-11.608 -9.517,-1.393 -21.125,-6.036 -30.642,-7.428 -9.518,-1.393 -35.75,2.322 -35.286,16.715 0.464,14.391 6.036,20.428 12.303,21.125 0,0 -13.463,-2.091 -15.785,9.285 0,0 -4.876,-4.41 -15.554,1.161 -10.678,5.571 -33.197,9.054 -43.178,10.91 -9.982,1.858 -20.197,3.018 -22.983,4.643 -2.786,1.626 -7.195,2.554 -8.821,3.018 0,0 4.411,-7.429 2.786,-13.465 -1.626,-6.035 -9.286,-16.714 -11.376,-18.803 0,0 0.931,-6.731 -0.231,-9.982 -1.162,-3.251 -6.501,-17.874 -7.197,-20.196 -0.696,-2.321 -0.464,-6.036 -0.696,-8.59 -0.232,-2.553 -4.179,-22.053 -4.875,-24.839 -0.696,-2.785 -4.179,-4.178 -9.054,6.269 0,0 9.054,-24.609 2.089,-42.367 -6.964,-17.759 -18.106,-29.25 -22.981,-32.733 -4.875,-3.481 -16.715,-10.794 -19.5,-14.276 -2.787,-3.483 -7.313,-9.403 -33.778,-21.241 -26.464,-11.839 -52.232,-22.287 -58.151,-25.072 -5.92,-2.786 -10.099,-6.965 -19.5,-8.705 -9.402,-1.741 -41.786,-4.179 -50.84,-3.135 -9.054,1.045 -10.446,5.92 -12.884,10.448 -2.437,4.526 -3.482,8.007 -8.008,8.007 z"
       style="fill:none;stroke:#231f20;stroke-width:0.75;stroke-linecap:round;stroke-linejoin:round;stroke-miterlimit:4;stroke-dasharray:none;stroke-opacity:1"
       id="path674" />
    <path
       d="m 540.002,599.446 c 3.947,0 19.129,-0.393 34.17,4.331 -2.645,1.931 -5.733,3.908 -9.099,5.884 -10.679,6.267 -17.876,5.571 -25.071,5.571 -7.197,0 -14.393,0.696 -25.072,-5.571 -3.367,-1.976 -6.455,-3.953 -9.1,-5.884 15.041,-4.724 30.224,-4.331 34.172,-4.331"
       style="fill:#d3d2d2;fill-opacity:1;fill-rule:nonzero;stroke:none;stroke-width:0.1"
       id="path676" />
    <path
       d="m 789.007,572.335 c 4.846,1.692 20.513,6.567 23.995,7.263 3.482,0.696 13.232,2.089 20.196,1.044 6.965,-1.044 22.982,-3.481 28.554,-5.571 5.572,-2.089 18.803,-5.571 22.286,-5.919 3.482,-0.349 8.565,0.281 10.446,-3.483 2.437,-4.875 8.705,-5.919 17.759,-8.705 9.053,-2.786 21.589,-6.964 24.027,-8.009 2.438,-1.044 3.893,-4.326 2.089,-8.705 -2.438,-5.92 -8.357,-13.233 -11.143,-16.018 0,0 1.045,-2.09 7.313,5.223 6.267,7.312 19.335,11.519 26.116,10.795 0,0 -9.402,1.741 -13.58,4.874 -4.179,3.134 -10.447,8.706 -8.706,13.233 1.741,4.526 8.357,6.964 13.929,9.054 5.571,2.089 12.536,7.66 11.142,17.062 0,0 -1.044,-8.706 -17.062,-15.321 -16.018,-6.616 -21.589,-6.965 -34.473,-2.438 -12.884,4.527 -23.679,9.75 -27.509,13.928 -3.831,4.179 -4.527,10.447 6.268,10.795 10.795,0.349 23.504,2.437 28.901,5.224 3.623,1.869 7.661,4.004 9.403,6.267 1.201,1.562 1.022,1.766 -4.179,-0.348 -5.571,-2.263 -15.097,-4.824 -23.679,-6.442 -9.227,-1.741 -23.33,-4.005 -37.955,-4.352 -14.625,-0.349 -23.679,-0.349 -33.081,2.088 -9.401,2.438 -12.535,5.92 -13.232,9.054 -0.697,3.134 1.044,9.054 9.053,16.715 8.01,7.66 18.108,14.976 16.019,17.412 -2.09,2.436 -13.233,-7.662 -18.108,-11.493 -4.875,-3.83 -11.838,-15.669 -16.017,-20.893 -4.179,-5.223 -10.447,-13.928 -20.545,-11.839 -10.099,2.089 -12.188,9.75 -11.143,17.063 1.044,7.313 5.533,14.71 6.964,16.714 0.87,1.219 2.032,2.901 3.019,2.321 1.166,-0.686 0.696,-1.857 -1.393,-4.875 -2.09,-3.017 -5.108,-9.053 -5.108,-14.392 0,-5.34 1.741,-11.956 7.661,-12.536 5.12,-0.502 7.312,0.406 10.272,3.366 3.326,3.327 4.179,5.862 4.353,10.795 0.214,6.031 -0.001,7.428 2.553,12.303 2.554,4.875 7.661,10.911 12.536,15.089 4.875,4.179 12.536,6.965 16.017,7.894 3.483,0.928 10.678,3.249 15.322,7.196 4.644,3.946 9.287,6.964 12.768,5.571 3.483,-1.393 5.107,-4.411 3.25,-10.215 -1.856,-5.803 -2.786,-11.606 -6.731,-16.481 -3.947,-4.875 -13.697,-9.982 -19.268,-12.304 -5.572,-2.321 -15.323,-7.892 -15.091,-12.767 0.233,-4.875 7.43,-9.75 16.948,-9.75 9.517,0 24.839,-0.234 37.607,0.928 12.768,1.162 19.325,1.741 29.018,4.643 9.918,2.97 17.294,6.5 21.125,7.428 3.414,0.828 9.286,0.929 10.446,-1.16 1.16,-2.089 0.002,-8.822 -5.339,-13 -5.34,-4.179 -14.857,-9.054 -23.215,-9.054 -8.356,0 -17.409,1.161 -18.57,-2.786 -1.162,-3.947 0,-7.662 10.91,-10.679 10.91,-3.017 19.498,-4.41 26.231,-3.946 6.734,0.464 18.804,5.571 22.287,10.216 3.481,4.64 4.875,10.677 6.963,15.087 2.09,4.413 9.109,8.534 13.465,1.162 3.019,-5.107 3.948,-15.555 4.179,-19.5 0.232,-3.947 -0.232,-9.75 -6.268,-10.447 -6.036,-0.697 -16.946,-4.877 -19.963,-7.197 -3.019,-2.32 -3.717,-7.197 0.927,-8.357 4.644,-1.16 11.027,-1.16 13.116,-1.857 2.089,-0.696 5.572,-2.786 4.527,-8.705 -1.044,-5.92 -1.741,-13.929 -11.143,-16.715 -9.401,-2.785 -14.973,-5.222 -19.5,-8.009 -4.526,-2.786 -14.973,-6.616 -25.767,-0.696 -10.795,5.92 -5.573,17.41 2.089,20.196 7.661,2.787 18.945,4.519 19.152,9.054 0.174,3.83 -15.67,6.79 -22.635,8.358 -6.347,1.427 -15.669,1.741 -18.803,8.008 0,0 -7.313,-1.392 -13.928,1.045 -6.616,2.438 -18.108,7.661 -29.948,9.402 -11.838,1.741 -26.812,3.83 -29.946,3.83 -3.134,0 -17.541,-5.16 -23.917,-5.541 -1.238,0.925 -2.709,1.877 -4.256,2.805"
       style="fill:#d3d2d2;fill-opacity:1;fill-rule:nonzero;stroke:none;stroke-width:0.1"
       id="path678" />
    <path
       d="m 542.006,349.832 c 1.477,3.078 7.397,5.864 11.924,6.909 4.527,1.044 30.294,5.571 42.134,0 11.839,-5.573 16.627,-11.778 16.671,-21.733"
       style="fill:none;stroke:#231f20;stroke-width:0.5;stroke-linecap:butt;stroke-linejoin:miter;stroke-miterlimit:4;stroke-dasharray:none;stroke-opacity:1"
       id="path680" />
    <path
       d="m 543.381,351.628 c 0.451,4.415 0.799,20.085 0.451,23.568 0,0 5.92,2.089 13.928,2.089 8.009,0 33.429,-5.572 38.304,-20.544"
       style="fill:none;stroke:#231f20;stroke-width:0.5;stroke-linecap:butt;stroke-linejoin:miter;stroke-miterlimit:4;stroke-dasharray:none;stroke-opacity:1"
       id="path682" />
    <path
       d="m 678.599,433.526 c -7.495,0.692 -16.723,-0.875 -26.473,-4.705 -9.75,-3.83 -19.299,-12.977 -20.196,-15.321 -1.37,-3.586 -2.786,-9.75 -3.134,-11.492"
       style="fill:none;stroke:#231f20;stroke-width:0.25;stroke-linecap:butt;stroke-linejoin:miter;stroke-miterlimit:4;stroke-dasharray:none;stroke-opacity:1"
       id="path684" />
    <path
       d="m 715.85,392.258 c -3.482,-3.134 -18.107,-11.142 -32.732,-18.107 -14.625,-6.964 -30.738,-13.549 -46.748,-14.693"
       style="fill:none;stroke:#231f20;stroke-width:0.25;stroke-linecap:butt;stroke-linejoin:miter;stroke-miterlimit:4;stroke-dasharray:none;stroke-opacity:1"
       id="path686" />
    <path
       d="m 724.092,415.864 c -3.019,2.162 -7.894,5.993 -11.377,-0.972 -4.137,-8.275 -1.74,-14.973 -0.696,-17.411 0.392,-0.914 1.42,-4.644 3.831,-5.223 4.02,-0.965 10.216,2.546 11.51,11.076"
       style="fill:none;stroke:#231f20;stroke-width:0.5;stroke-linecap:butt;stroke-linejoin:miter;stroke-miterlimit:4;stroke-dasharray:none;stroke-opacity:1"
       id="path688" />
    <path
       d="m 763.555,479.197 c -3.482,7.427 -6.734,23.568 -8.705,31.454 -2.437,9.75 -7.312,24.027 -8.357,27.857 -1.045,3.831 -5.695,12.216 -10.099,18.456 -4.178,5.919 -8.356,10.098 -16.365,13.232 -7.083,2.771 -19.501,1.741 -20.545,-9.75 -1.045,-11.491 0.696,-23.33 5.919,-26.116 5.223,-2.786 18.804,-8.009 24.723,-13.929 5.92,-5.919 25.42,-34.473 29.947,-47.009 4.527,-12.535 9.475,-26.145 4.563,-39.015"
       style="fill:none;stroke:#231f20;stroke-width:0.5;stroke-linecap:butt;stroke-linejoin:miter;stroke-miterlimit:4;stroke-dasharray:none;stroke-opacity:1"
       id="path690" />
    <path
       d="m 575.519,571.937 c 3.83,3.482 20.545,17.063 30.991,16.366 10.447,-0.696 22.983,-2.437 26.813,-2.786 3.83,-0.348 24.723,0.697 30.642,2.09 0,0 -8.356,-0.696 -17.758,3.134 -9.402,3.83 -21.589,4.875 -29.947,5.92 -8.357,1.044 -26.58,3.365 -30.062,3.713 0,0 5.802,-4.179 1.393,-12.302 -3.022,-5.569 -5.638,-10.914 -12.072,-16.135"
       style="fill:#706d6e;fill-opacity:1;fill-rule:nonzero;stroke:none;stroke-width:0.1"
       id="path692" />
    <path
       d="m 575.519,571.937 c 3.83,3.482 20.545,17.063 30.991,16.366 10.447,-0.696 22.983,-2.437 26.813,-2.786 3.83,-0.348 24.723,0.697 30.642,2.09 0,0 -8.356,-0.696 -17.758,3.134 -9.402,3.83 -21.589,4.875 -29.947,5.92 -8.357,1.044 -26.58,3.365 -30.062,3.713 0,0 5.802,-4.179 1.393,-12.302 -3.022,-5.569 -5.638,-10.914 -12.072,-16.135 z"
       style="fill:none;stroke:#231f20;stroke-width:0.75;stroke-linecap:round;stroke-linejoin:round;stroke-miterlimit:4;stroke-dasharray:none;stroke-opacity:1"
       id="path694" />
    <path
       d="m 547.553,536.63 c 2.895,0.137 6.608,-1.951 6.377,-8.683"
       style="fill:none;stroke:#231f20;stroke-width:0.5;stroke-linecap:butt;stroke-linejoin:miter;stroke-miterlimit:4;stroke-dasharray:none;stroke-opacity:1"
       id="path696" />
    <path
       d="m 717.822,570.885 c -9.518,3.026 -26.928,7.203 -35.285,5.81 -8.358,-1.392 -22.519,-7.195 -24.375,-3.017 -1.857,4.179 2.786,8.126 5.571,9.75 2.786,1.624 -4.911,-0.612 -5.107,1.859 -0.194,2.469 9.286,2.785 13.697,2.785 4.411,0 14.392,-0.93 22.75,-3.251 8.356,-2.321 19.267,-6.502 28.32,-13.001 9.054,-6.499 20.895,-18.57 17.599,-20.274"
       style="fill:none;stroke:#231f20;stroke-width:0.5;stroke-linecap:butt;stroke-linejoin:miter;stroke-miterlimit:4;stroke-dasharray:none;stroke-opacity:1"
       id="path698" />
    <path
       d="m 782.823,831.125 c -4.41,-4.643 -8.589,-19.5 -11.374,-29.714 -2.786,-10.214 -10.216,-38.072 -14.394,-43.643 -4.179,-5.572 -12.072,-11.607 -15.322,-13.465 -3.249,-1.857 -7.428,-6.5 -11.607,-15.785"
       style="fill:none;stroke:#231f20;stroke-width:0.5;stroke-linecap:butt;stroke-linejoin:miter;stroke-miterlimit:4;stroke-dasharray:none;stroke-opacity:1"
       id="path700" />
    <path
       d="m 865.466,741.75 c -2.554,-4.876 -10.911,-9.518 -16.946,-17.875 -6.035,-8.357 -13.931,-33.428 -21.822,-35.286"
       style="fill:none;stroke:#231f20;stroke-width:0.5;stroke-linecap:butt;stroke-linejoin:miter;stroke-miterlimit:4;stroke-dasharray:none;stroke-opacity:1"
       id="path702" />
    <path
       d="m 953.914,610.589 c -3.715,-6.965 -16.716,-20.893 -24.145,-25.999 -7.428,-5.109 -17.643,-10.216 -33.429,-2.323"
       style="fill:none;stroke:#231f20;stroke-width:0.5;stroke-linecap:butt;stroke-linejoin:miter;stroke-miterlimit:4;stroke-dasharray:none;stroke-opacity:1"
       id="path704" />
    <path
       d="m 900.519,539.786 c 3.251,0.231 11.145,1.16 15.787,2.553"
       style="fill:none;stroke:#231f20;stroke-width:0.5;stroke-linecap:butt;stroke-linejoin:miter;stroke-miterlimit:4;stroke-dasharray:none;stroke-opacity:1"
       id="path706" />
    <path
       d="m 972.716,558.357 c -1.276,-0.871 -2.495,-1.219 -3.888,-1.741"
       style="fill:none;stroke:#231f20;stroke-width:0.5;stroke-linecap:butt;stroke-linejoin:miter;stroke-miterlimit:4;stroke-dasharray:none;stroke-opacity:1"
       id="path708" />
    <path
       d="m 686.715,624.053 c 4.879,-0.168 8.918,-1.235 13.797,-3.135 5.946,-0.637 13.532,0.374 19.323,2.754 -6.808,5.889 -18.726,6.649 -28.245,5.952 -9.518,-0.696 -12.302,3.25 -16.481,5.804 -4.179,2.554 -12.087,1.627 -11.607,-5.339 0.48,-6.965 15.786,-5.571 23.213,-6.036"
       style="fill:none;stroke:#231f20;stroke-width:0.5;stroke-linecap:butt;stroke-linejoin:miter;stroke-miterlimit:4;stroke-dasharray:none;stroke-opacity:1"
       id="path710" />
    <path
       d="m 565.42,671.527 c -8.356,5.223 -18.455,6.267 -25.418,6.267 -6.965,0 -17.063,-1.044 -25.42,-6.267 -9.338,-5.836 -13.233,-8.009 -11.143,-14.277 2.089,-6.268 11.143,-32.384 36.563,-32.384 25.418,0 34.472,26.116 36.562,32.384 2.089,6.268 -1.806,8.441 -11.144,14.277 z m -0.347,-20.894 c -1.045,-10.446 -7.313,-16.365 -25.071,-16.365 -17.759,0 -24.028,5.919 -25.072,16.365 -1.045,10.448 18.803,10.448 25.072,10.448 6.267,0 26.116,0 25.071,-10.448"
       style="fill:#d3d2d2;fill-opacity:1;fill-rule:nonzero;stroke:none;stroke-width:0.1"
       id="path712" />
    <path
       d="m 681.376,742.446 c -1.392,7.428 -3.25,43.178 -2.786,54.322 0.464,11.143 -8.356,15.785 -11.606,19.036 -3.249,3.25 -12.071,16.714 -19.5,26.928 -7.428,10.214 -16.714,17.643 -22.286,19.5 -5.572,1.856 -26.929,3.25 -38.072,4.179 -11.143,0.928 -39.464,2.322 -47.124,2.322 -7.662,0 -35.983,-1.394 -47.126,-2.322 -11.142,-0.929 -32.5,-2.323 -38.072,-4.179 -5.571,-1.857 -14.857,-9.286 -22.286,-19.5 -7.428,-10.214 -16.25,-23.678 -19.5,-26.928 -3.249,-3.251 -12.07,-7.893 -11.606,-19.036 0.464,-11.144 -1.393,-46.894 -2.786,-54.322 -1.393,-7.428 -8.359,-24.608 -6.5,-30.643 1.858,-6.035 8.822,-19.499 26.929,-19.964 18.108,-0.465 19.5,3.715 25.071,4.179 5.572,0.464 19.965,-10e-4 29.25,1.856 9.286,1.858 38.072,-8.356 44.108,-10.213 6.034,-1.858 10.678,-3.715 22.518,-3.715 11.838,0 16.482,1.857 22.516,3.715 6.037,1.857 34.823,12.071 44.108,10.213 9.285,-1.857 23.678,-1.392 29.25,-1.856 5.572,-0.464 6.964,-4.644 25.072,-4.179 18.106,0.465 25.071,13.929 26.928,19.964 1.859,6.035 -5.107,23.215 -6.5,30.643 z m -21.822,-44.572 c -13.928,0.929 -20.428,6.501 -30.178,4.644 -9.75,-1.857 -25.072,-0.464 -32.5,10.214 -7.428,10.679 -11.607,13.929 -21.821,15.322 -10.214,1.393 -28.321,2.785 -35.053,2.785 -6.734,0 -24.841,-1.392 -35.055,-2.785 -10.214,-1.393 -14.393,-4.643 -21.821,-15.322 -7.427,-10.678 -22.75,-12.071 -32.5,-10.214 -9.75,1.857 -16.25,-3.715 -30.178,-4.644 -13.929,-0.928 -12.536,17.179 -13.001,24.608 -0.465,7.43 7.893,12.071 12.536,15.322 4.643,3.25 8.356,12.999 7.43,22.749 -0.928,9.75 -4.179,33.894 -5.573,43.179 -1.392,9.285 11.608,23.215 17.179,30.179 5.571,6.964 10.214,14.392 20.429,17.643 10.216,3.25 28.321,3.714 41.786,2.785 13.465,-0.927 29.714,-1.392 38.768,-1.392 9.053,0 25.302,0.465 38.767,1.392 13.465,0.929 31.57,0.465 41.785,-2.785 10.216,-3.251 14.858,-10.679 20.43,-17.643 5.571,-6.964 18.57,-20.894 17.178,-30.179 -1.393,-9.285 -4.644,-33.429 -5.572,-43.179 -0.927,-9.75 2.787,-19.499 7.43,-22.749 4.643,-3.251 13.001,-7.892 12.535,-15.322 -0.465,-7.429 0.928,-25.536 -13.001,-24.608"
       style="fill:#d3d2d2;fill-opacity:1;fill-rule:nonzero;stroke:none;stroke-width:0.1"
       id="path714" />
    <path
       d="m 871.735,727.589 c -3.25,8.358 -10.68,3.25 -14.395,-5.571 -3.714,-8.822 -2.32,-22.751 -10.677,-38.536 -8.357,-15.785 -25.537,-14.858 -37.143,-10.214 -11.607,4.643 -10.68,16.249 -10.68,25.999 0,9.75 8.823,19.965 17.18,25.536 8.357,5.571 7.892,12.071 7.892,17.179 0,5.108 1.858,8.821 3.251,10.679 1.393,1.857 3.25,8.357 8.357,6.5 5.107,-1.858 7.428,-1.857 12.07,3.25 4.643,5.107 -6.035,21.821 -16.714,29.714 -10.678,7.894 -19.5,19.036 -30.177,24.143 -10.678,5.106 -12.073,-1.394 -12.073,-6.035 0,-4.643 0,-22.751 -2.785,-51.072 -2.786,-28.323 -16.715,-41.787 -31.107,-52.929 -14.393,-11.143 -18.107,-8.821 -29.25,-3.25 -11.143,5.572 -19.5,20.893 -22.751,40.393 -3.251,19.5 10.216,31.107 17.643,35.75 7.428,4.643 16.251,14.393 16.715,26.464 0.464,12.072 5.108,14.394 10.679,19.035 5.571,4.643 1.856,10.68 -2.786,15.787 -4.643,5.107 -19.5,8.822 -27.857,9.286 -8.357,0.464 -7.429,-4.179 -6.501,-7.893 0.929,-3.715 4.643,-12.536 -2.786,-19.965 -9.296,-9.297 -17.177,-3.25 -26.464,1.858 -9.286,5.106 -11.142,20.892 -13,25.071 -1.856,4.179 -4.643,15.786 -21.357,23.214 -16.715,7.429 -27.393,7.429 -36.679,7.429 -9.286,0 -55.249,3.251 -70.338,3.251 -15.091,0 -61.054,-3.251 -70.34,-3.251 -9.286,0 -19.964,0 -36.678,-7.429 -16.715,-7.428 -19.502,-19.035 -21.358,-23.214 -1.857,-4.179 -3.714,-19.965 -13,-25.071 -9.287,-5.108 -17.168,-11.155 -26.464,-1.858 -7.428,7.429 -3.715,16.25 -2.786,19.965 0.929,3.714 1.857,8.357 -6.5,7.893 -8.358,-0.464 -23.215,-4.179 -27.858,-9.286 -4.642,-5.107 -8.357,-11.144 -2.785,-15.787 5.571,-4.641 10.215,-6.963 10.679,-19.035 0.464,-12.071 9.286,-21.821 16.714,-26.464 7.428,-4.643 20.894,-16.25 17.643,-35.75 -3.251,-19.5 -11.608,-34.821 -22.751,-40.393 -11.142,-5.571 -14.857,-7.893 -29.25,3.25 -14.392,11.142 -28.321,24.606 -31.106,52.929 -2.786,28.321 -2.786,46.429 -2.786,51.072 0,4.641 -1.394,11.141 -12.072,6.035 -10.678,-5.107 -19.499,-16.249 -30.178,-24.143 -10.679,-7.893 -21.357,-24.607 -16.714,-29.714 4.642,-5.107 6.963,-5.108 12.07,-3.25 5.108,1.857 6.965,-4.643 8.357,-6.5 1.393,-1.858 3.251,-5.571 3.251,-10.679 0,-5.108 -0.464,-11.608 7.892,-17.179 8.357,-5.571 17.18,-15.786 17.18,-25.536 0,-9.75 0.927,-21.356 -10.679,-25.999 -11.607,-4.644 -28.786,-5.571 -37.144,10.214 -8.357,15.785 -6.963,29.714 -10.677,38.536 -3.715,8.821 -11.145,13.929 -14.394,5.571 -3.25,-8.357 -4.178,-22.75 -0.928,-32.5 3.249,-9.75 10.308,-19.934 14.671,-24.36 3.694,-1.015 8.071,-2.484 13.187,-4.426 2.321,1.858 11.606,0.929 28.32,0.465 16.715,-0.464 24.375,10.679 24.724,24.606 0.291,11.641 -7.08,29.715 -10.331,37.608 -3.251,7.892 -9.75,35.286 -11.607,46.429 -1.856,11.143 4.643,7.428 4.643,7.428 0.464,-2.786 4.643,-19.5 9.286,-33.892 4.643,-14.393 10.214,-37.608 26.464,-52.929 16.251,-15.321 27.393,-10.679 41.322,-3.715 13.929,6.964 25.535,18.108 33.893,40.393 8.357,22.286 6.964,47.357 4.178,55.715 -2.786,8.357 -11.606,14.392 -19.5,18.571 -7.893,4.179 -9.75,13.465 -10.214,18.572 -0.463,5.108 1.857,3.249 2.786,0.928 0.929,-2.321 8.357,-10.678 13,-15.321 4.642,-4.643 9.75,-6.037 19.036,-2.786 9.286,3.25 23.214,19.036 30.642,28.322 7.43,9.286 13.929,21.356 24.607,25.535 10.678,4.179 27.857,6.965 38.536,7.893 10.68,0.929 45.499,2.322 55.019,2.322 9.518,0 44.338,-1.393 55.017,-2.322 10.679,-0.928 27.858,-3.714 38.536,-7.893 10.678,-4.179 17.177,-16.249 24.607,-25.535 7.429,-9.286 21.356,-25.072 30.642,-28.322 9.286,-3.251 14.395,-1.857 19.036,2.786 4.643,4.643 12.072,13 13,15.321 0.929,2.321 3.25,4.18 2.786,-0.928 -0.463,-5.107 -2.321,-14.393 -10.213,-18.572 -7.894,-4.179 -16.715,-10.214 -19.5,-18.571 -2.787,-8.358 -4.179,-33.429 4.177,-55.715 8.358,-22.285 19.964,-33.429 33.893,-40.393 13.929,-6.964 25.072,-11.606 41.322,3.715 16.251,15.321 21.822,38.536 26.465,52.929 4.642,14.392 8.822,31.106 9.286,33.892 0,0 6.499,3.715 4.642,-7.428 -1.857,-11.143 -8.356,-38.537 -11.607,-46.429 -3.251,-7.893 -10.622,-25.967 -10.331,-37.608 0.349,-13.927 8.01,-25.07 24.724,-24.606 16.714,0.464 25.999,1.393 28.321,-0.465 5.115,1.942 9.492,3.411 13.186,4.426 4.363,4.426 11.422,14.61 14.672,24.36 3.249,9.75 2.321,24.143 -0.928,32.5"
       style="fill:#d3d2d2;fill-opacity:1;fill-rule:nonzero;stroke:none;stroke-width:0.1"
       id="path716" />
    <path
       d="m 290.995,572.335 c -4.845,1.692 -20.512,6.567 -23.995,7.263 -3.482,0.696 -13.232,2.089 -20.196,1.044 -6.964,-1.044 -22.982,-3.481 -28.554,-5.571 -5.571,-2.089 -18.803,-5.571 -22.286,-5.919 -3.481,-0.349 -8.564,0.281 -10.446,-3.483 -2.437,-4.875 -8.705,-5.919 -17.759,-8.705 -9.053,-2.786 -21.589,-6.964 -24.026,-8.009 -2.438,-1.044 -3.894,-4.326 -2.09,-8.705 2.438,-5.92 8.357,-13.233 11.143,-16.018 0,0 -1.044,-2.09 -7.313,5.223 -6.267,7.312 -19.335,11.519 -26.115,10.795 0,0 9.401,1.741 13.58,4.874 4.179,3.134 10.446,8.706 8.705,13.233 -1.741,4.526 -8.357,6.964 -13.929,9.054 -5.571,2.089 -12.535,7.66 -11.142,17.062 0,0 1.045,-8.706 17.062,-15.321 16.018,-6.616 21.589,-6.965 34.474,-2.438 12.884,4.527 23.679,9.75 27.509,13.928 3.83,4.179 4.526,10.447 -6.268,10.795 -10.795,0.349 -23.505,2.437 -28.902,5.224 -3.622,1.869 -7.661,4.004 -9.402,6.267 -1.201,1.562 -1.023,1.766 4.178,-0.348 5.572,-2.263 15.098,-4.824 23.679,-6.442 9.228,-1.741 23.331,-4.005 37.956,-4.352 14.625,-0.349 23.679,-0.349 33.08,2.088 9.402,2.438 12.536,5.92 13.232,9.054 0.697,3.134 -1.044,9.054 -9.053,16.715 -8.009,7.66 -18.108,14.976 -16.018,17.412 2.089,2.436 13.232,-7.662 18.107,-11.493 4.875,-3.83 11.839,-15.669 16.018,-20.893 4.179,-5.223 10.446,-13.928 20.544,-11.839 10.099,2.089 12.189,9.75 11.144,17.063 -1.045,7.313 -5.534,14.71 -6.965,16.714 -0.87,1.219 -2.032,2.901 -3.018,2.321 -1.166,-0.686 -0.697,-1.857 1.393,-4.875 2.089,-3.017 5.107,-9.053 5.107,-14.392 0,-5.34 -1.741,-11.956 -7.661,-12.536 -5.119,-0.502 -7.312,0.406 -10.271,3.366 -3.327,3.327 -4.179,5.862 -4.354,10.795 -0.213,6.031 0.002,7.428 -2.553,12.303 -2.554,4.875 -7.661,10.911 -12.536,15.089 -4.875,4.179 -12.535,6.965 -16.017,7.894 -3.483,0.928 -10.678,3.249 -15.322,7.196 -4.643,3.946 -9.286,6.964 -12.768,5.571 -3.483,-1.393 -5.107,-4.411 -3.249,-10.215 1.856,-5.803 2.785,-11.606 6.731,-16.481 3.947,-4.875 13.697,-9.982 19.268,-12.304 5.571,-2.321 15.322,-7.892 15.09,-12.767 -0.233,-4.875 -7.43,-9.75 -16.947,-9.75 -9.517,0 -24.839,-0.234 -37.607,0.928 -12.769,1.162 -19.326,1.741 -29.018,4.643 -9.919,2.97 -17.295,6.5 -21.126,7.428 -3.414,0.828 -9.286,0.929 -10.446,-1.16 -1.16,-2.089 -0.001,-8.822 5.339,-13 5.341,-4.179 14.857,-9.054 23.215,-9.054 8.357,0 17.409,1.161 18.571,-2.786 1.161,-3.947 0,-7.662 -10.91,-10.679 -10.91,-3.017 -19.499,-4.41 -26.232,-3.946 -6.733,0.464 -18.804,5.571 -22.286,10.216 -3.482,4.64 -4.875,10.677 -6.964,15.087 -2.089,4.413 -9.108,8.534 -13.465,1.162 -3.018,-5.107 -3.948,-15.555 -4.178,-19.5 -0.232,-3.947 0.232,-9.75 6.267,-10.447 6.036,-0.697 16.946,-4.877 19.964,-7.197 3.019,-2.32 3.716,-7.197 -0.927,-8.357 -4.644,-1.16 -11.028,-1.16 -13.117,-1.857 -2.089,-0.696 -5.572,-2.786 -4.527,-8.705 1.045,-5.92 1.741,-13.929 11.143,-16.715 9.402,-2.785 14.973,-5.222 19.5,-8.009 4.527,-2.786 14.973,-6.616 25.768,-0.696 10.795,5.92 5.572,17.41 -2.09,20.196 -7.66,2.787 -18.944,4.519 -19.151,9.054 -0.174,3.83 15.67,6.79 22.634,8.358 6.346,1.427 15.67,1.741 18.803,8.008 0,0 7.313,-1.392 13.929,1.045 6.616,2.438 18.108,7.661 29.947,9.402 11.839,1.741 26.812,3.83 29.946,3.83 3.134,0 17.542,-5.16 23.917,-5.541 1.239,0.925 2.71,1.877 4.256,2.805"
       style="fill:#d3d2d2;fill-opacity:1;fill-rule:nonzero;stroke:none;stroke-width:0.1"
       id="path718" />
    <path
       d="m 938.356,558.355 c 1.741,4.527 8.357,6.965 13.929,9.054 5.571,2.09 12.536,7.662 11.143,17.064 0,0 -1.045,-8.706 -17.062,-15.323 -16.019,-6.616 -21.59,-6.964 -34.474,-2.438 -12.884,4.529 -23.679,9.752 -27.509,13.93 -3.831,4.179 -4.527,10.447 6.268,10.795 10.795,0.349 23.505,2.437 28.902,5.224 3.623,1.869 7.66,4.004 9.402,6.267 1.202,1.562 1.022,1.766 -4.179,-0.348 -5.571,-2.263 -15.096,-4.824 -23.679,-6.442 -9.227,-1.741 -23.33,-4.005 -37.955,-4.352 -14.625,-0.349 -23.679,-0.349 -33.08,2.088 -9.402,2.438 -12.536,5.92 -13.232,9.054 -0.697,3.134 1.044,9.053 9.053,16.714 8.009,7.66 18.107,14.976 16.018,17.413 -2.089,2.435 -13.233,-7.663 -18.107,-11.493 -4.876,-3.831 -11.839,-15.67 -16.018,-20.893 -4.179,-5.223 -10.446,-13.928 -20.545,-11.839 -10.098,2.089 -12.187,9.75 -11.143,17.062 1.045,7.313 5.534,14.712 6.964,16.714 2.319,3.13 16.366,22.112 22.975,25.548 4.028,2.095 10.245,4.899 16.956,6.953 7.087,2.171 16.945,5.455 21.82,7.195 -2.323,1.859 -11.607,0.93 -28.322,0.466 -16.714,-0.464 -24.375,10.678 -24.723,24.606 -0.291,11.641 7.081,29.715 10.332,37.607 3.251,7.893 9.75,35.287 11.606,46.43 1.857,11.143 -4.642,7.428 -4.642,7.428 -0.465,-2.786 -4.643,-19.5 -9.287,-33.892 -4.641,-14.393 -10.213,-37.608 -26.465,-52.929 -16.249,-15.321 -27.391,-10.679 -41.32,-3.715 -13.929,6.964 -25.537,18.108 -33.894,40.393 -8.357,22.286 -6.964,47.357 -4.178,55.715 2.785,8.357 11.607,14.392 19.5,18.571 7.894,4.179 9.75,13.465 10.214,18.572 0.463,5.108 -1.857,3.249 -2.785,0.928 -0.93,-2.321 -8.357,-10.678 -13.001,-15.321 -4.641,-4.643 -9.75,-6.037 -19.035,-2.786 -9.286,3.25 -23.215,19.036 -30.644,28.322 -7.43,9.286 -13.929,21.356 -24.607,25.535 -10.678,4.179 -27.856,6.965 -38.534,7.893 -10.681,0.929 -45.499,2.322 -55.018,2.322 -9.519,0 -44.337,-1.393 -55.018,-2.322 -10.678,-0.928 -27.857,-3.714 -38.535,-7.893 -10.678,-4.179 -17.177,-16.249 -24.607,-25.535 -7.428,-9.286 -21.357,-25.072 -30.643,-28.322 -9.285,-3.251 -14.395,-1.857 -19.035,2.786 -4.644,4.643 -12.071,13 -13.001,15.321 -0.928,2.321 -3.248,4.18 -2.786,-0.928 0.465,-5.107 2.321,-14.393 10.215,-18.572 7.892,-4.179 16.714,-10.214 19.5,-18.571 2.786,-8.358 4.179,-33.429 -4.178,-55.715 -8.358,-22.285 -19.965,-33.429 -33.894,-40.393 -13.929,-6.964 -25.072,-11.606 -41.321,3.715 -16.252,15.321 -21.823,38.536 -26.464,52.929 -4.644,14.392 -8.822,31.106 -9.288,33.892 0,0 -6.499,3.715 -4.641,-7.428 1.856,-11.143 8.355,-38.537 11.606,-46.43 3.251,-7.892 10.623,-25.966 10.332,-37.607 -0.349,-13.928 -8.009,-25.07 -24.724,-24.606 -16.714,0.464 -25.999,1.393 -28.322,-0.466 4.875,-1.74 14.734,-5.024 21.821,-7.195 6.711,-2.054 12.927,-4.858 16.956,-6.953 6.608,-3.436 20.656,-22.418 22.974,-25.548 1.431,-2.002 5.92,-9.401 6.965,-16.714 1.045,-7.312 -1.045,-14.973 -11.144,-17.062 -10.098,-2.089 -16.365,6.616 -20.544,11.839 -4.179,5.223 -11.143,17.062 -16.018,20.893 -4.875,3.83 -16.018,13.928 -18.107,11.493 -2.09,-2.437 8.009,-9.753 16.018,-17.413 8.009,-7.661 9.75,-13.58 9.053,-16.714 -0.696,-3.134 -3.83,-6.616 -13.232,-9.054 -9.401,-2.437 -18.455,-2.437 -33.08,-2.088 -14.625,0.347 -28.728,2.611 -37.956,4.352 -8.583,1.618 -18.107,4.179 -23.679,6.442 -5.201,2.114 -5.381,1.91 -4.178,0.348 1.741,-2.263 5.778,-4.398 9.402,-6.267 5.397,-2.787 18.107,-4.875 28.902,-5.224 10.794,-0.348 10.098,-6.616 6.268,-10.795 -3.83,-4.178 -14.625,-9.401 -27.509,-13.93 -12.885,-4.526 -18.456,-4.178 -34.474,2.438 -16.017,6.617 -17.062,15.323 -17.062,15.323 -1.393,-9.402 5.571,-14.974 11.142,-17.064 5.572,-2.089 12.188,-4.527 13.929,-9.054 1.741,-4.526 -4.526,-10.098 -8.705,-13.231 -4.179,-3.134 -13.58,-4.875 -13.58,-4.875 6.779,0.725 19.848,-3.483 26.115,-10.795 6.269,-7.313 7.313,-5.224 7.313,-5.224 -2.786,2.786 -8.705,10.099 -11.143,16.019 -1.804,4.379 -0.348,7.66 2.09,8.705 2.437,1.045 14.973,5.223 24.026,8.008 9.054,2.787 15.322,3.83 17.759,8.705 1.88,3.766 6.965,3.135 10.446,3.483 3.483,0.349 16.715,3.832 22.286,5.921 5.572,2.09 21.59,4.527 28.554,5.571 6.964,1.045 16.714,-0.348 20.196,-1.044 3.483,-0.696 19.15,-5.571 23.995,-7.261 5.182,3.113 11.208,5.944 12.22,6.448 1.393,0.696 6.268,2.554 14.16,0.465 6.268,3.25 14.856,6.733 24.375,9.75 2.769,0.878 5.337,1.64 7.668,2.29 -15.554,-2.323 -21.366,3.747 -21.366,3.747 -3.947,-1.624 -8.819,-1.627 -11.839,0.927 -3.017,2.554 -2.32,14.624 -1.855,23.214 0.463,8.59 -0.465,15.322 8.357,21.357 8.82,6.037 15.322,4.178 15.322,4.178 12.998,11.609 18.107,11.839 23.213,9.983 5.109,-1.857 6.037,-6.732 6.037,-6.732 0.927,0 2.786,-0.696 4.178,1.16 1.393,1.857 9.054,7.428 15.322,9.75 6.267,2.323 22.75,5.572 28.089,6.036 5.34,0.465 5.803,1.858 6.731,3.018 0.931,1.16 7.66,8.822 12.073,8.358 4.409,-0.464 9.516,-5.805 7.66,-15.089 -1.857,-9.285 -9.04,-24.142 -13.927,-30.412 -4.892,-6.268 -12.537,-13.463 -12.537,-13.463 13.233,-2.322 8.358,-13.232 8.358,-13.232 6.732,-1.625 9.98,7.427 12.766,12.998 2.787,5.573 6.038,13.465 7.662,19.967 1.136,4.556 2.32,11.837 4.177,12.069 1.856,0.233 2.787,-6.5 3.251,-9.75 0.466,-3.249 1.624,-6.731 3.483,-6.731 1.858,0 2.552,3.249 3.482,6.268 0.928,3.018 0.696,7.427 0.232,10.446 -0.466,3.018 -4.411,11.374 -5.803,14.625 -1.394,3.251 -4.645,8.589 -2.323,11.143 2.323,2.554 12.535,-2.786 16.948,-4.411 4.409,-1.626 10.678,-5.804 14.159,-8.821 3.482,-3.018 9.75,-9.982 12.071,-12.769 2.324,-2.786 11.608,-14.857 16.252,-21.822 4.644,-6.964 1.145,-12.052 -1.844,-15.106 1.627,1.624 7.878,4.892 14.842,6.982 6.964,2.089 13.463,1.393 17.411,1.393 3.947,0 10.446,0.696 17.411,-1.393 6.963,-2.09 13.215,-5.358 14.842,-6.982 -2.99,3.054 -6.488,8.142 -1.844,15.106 4.643,6.965 13.928,19.036 16.252,21.822 2.32,2.787 8.589,9.751 12.07,12.769 3.482,3.017 9.75,7.195 14.16,8.821 4.412,1.625 14.625,6.965 16.948,4.411 2.321,-2.554 -0.93,-7.892 -2.323,-11.143 -1.392,-3.251 -5.338,-11.607 -5.803,-14.625 -0.464,-3.019 -0.696,-7.428 0.232,-10.446 0.929,-3.019 1.624,-6.268 3.481,-6.268 1.859,0 3.018,3.482 3.483,6.731 0.465,3.25 1.395,9.983 3.251,9.75 1.858,-0.232 3.042,-7.513 4.178,-12.069 1.624,-6.502 4.875,-14.394 7.662,-19.967 2.785,-5.571 6.033,-14.623 12.766,-12.998 0,0 -4.875,10.91 8.358,13.232 0,0 -7.645,7.195 -12.537,13.463 -4.888,6.27 -12.07,21.127 -13.928,30.412 -1.856,9.284 3.251,14.625 7.661,15.089 4.412,0.464 11.142,-7.198 12.073,-8.358 0.928,-1.16 1.39,-2.553 6.731,-3.018 5.339,-0.464 21.821,-3.713 28.089,-6.036 6.268,-2.322 13.929,-7.893 15.322,-9.75 1.392,-1.856 3.251,-1.16 4.178,-1.16 0,0 0.928,4.875 6.037,6.732 5.106,1.856 10.215,1.626 23.213,-9.983 0,0 6.502,1.859 15.322,-4.178 8.822,-6.035 7.894,-12.767 8.357,-21.357 0.465,-8.59 1.161,-20.66 -1.855,-23.214 -3.02,-2.554 -7.893,-2.551 -11.84,-0.927 0,0 -5.811,-6.07 -21.366,-3.747 2.332,-0.65 4.899,-1.412 7.669,-2.29 9.518,-3.017 18.107,-6.5 24.374,-9.75 7.893,2.089 12.768,0.231 14.161,-0.465 1.011,-0.504 7.038,-3.335 12.219,-6.448 4.846,1.69 20.513,6.565 23.995,7.261 3.482,0.696 13.232,2.089 20.197,1.044 6.964,-1.044 22.981,-3.481 28.554,-5.571 5.571,-2.089 18.802,-5.572 22.285,-5.921 3.482,-0.348 8.566,0.283 10.446,-3.483 2.437,-4.875 8.706,-5.918 17.76,-8.705 9.053,-2.785 21.589,-6.963 24.026,-8.008 2.438,-1.045 3.893,-4.326 2.089,-8.705 -2.438,-5.92 -8.356,-13.233 -11.143,-16.019 0,0 1.045,-2.089 7.313,5.224 6.268,7.312 19.337,11.52 26.116,10.795 0,0 -9.401,1.741 -13.58,4.875 -4.179,3.133 -10.446,8.705 -8.706,13.231 z M 576.564,657.25 c -2.09,-6.268 -11.144,-32.384 -36.562,-32.384 -25.42,0 -34.474,26.116 -36.563,32.384 -2.09,6.268 1.806,8.441 11.143,14.277 8.357,5.223 18.455,6.267 25.42,6.267 6.963,0 17.062,-1.044 25.418,-6.267 9.337,-5.836 13.233,-8.009 11.144,-14.277 z m 111.312,54.554 c -1.857,-6.035 -8.823,-19.499 -26.93,-19.964 -18.108,-0.466 -19.5,3.715 -25.072,4.179 -5.571,0.464 -19.964,0 -29.25,1.856 -9.285,1.857 -38.069,-8.355 -44.106,-10.213 -6.034,-1.859 -10.678,-3.715 -22.516,-3.715 -11.84,0 -16.484,1.856 -22.518,3.715 -6.036,1.858 -34.821,12.07 -44.107,10.213 -9.284,-1.856 -23.677,-1.392 -29.25,-1.856 -5.571,-0.464 -6.963,-4.645 -25.071,-4.179 -18.107,0.465 -25.072,13.929 -26.93,19.964 -1.859,6.035 5.109,23.215 6.5,30.643 1.393,7.428 3.25,43.178 2.786,54.321 -0.463,11.144 8.357,15.786 11.608,19.036 3.248,3.251 12.07,16.715 19.5,26.929 7.427,10.214 16.714,17.643 22.285,19.5 5.571,1.856 26.93,3.25 38.072,4.179 11.144,0.927 39.463,2.321 47.125,2.321 7.66,0 35.98,-1.394 47.122,-2.321 11.143,-0.929 32.502,-2.323 38.073,-4.179 5.571,-1.857 14.859,-9.286 22.286,-19.5 7.43,-10.214 16.252,-23.678 19.5,-26.929 3.251,-3.25 12.07,-7.892 11.607,-19.036 -0.464,-11.143 1.394,-46.893 2.786,-54.321 1.392,-7.428 8.359,-24.608 6.5,-30.643"
       style="fill:#b2b1b1;fill-opacity:1;fill-rule:nonzero;stroke:none;stroke-width:0.1"
       id="path720" />
    <path
       d="m 537.997,349.832 c -1.478,3.078 -7.398,5.864 -11.924,6.909 -4.528,1.044 -30.295,5.571 -42.134,0 -11.84,-5.573 -16.628,-11.778 -16.671,-21.733"
       style="fill:none;stroke:#231f20;stroke-width:0.5;stroke-linecap:butt;stroke-linejoin:miter;stroke-miterlimit:4;stroke-dasharray:none;stroke-opacity:1"
       id="path722" />
    <path
       d="m 536.621,351.628 c -0.451,4.415 -0.798,20.085 -0.451,23.568 0,0 -5.918,2.089 -13.927,2.089 -8.01,0 -33.429,-5.572 -38.304,-20.544"
       style="fill:none;stroke:#231f20;stroke-width:0.5;stroke-linecap:butt;stroke-linejoin:miter;stroke-miterlimit:4;stroke-dasharray:none;stroke-opacity:1"
       id="path724" />
    <path
       d="m 527.118,503.091 c 0,-4.178 -0.349,-23.083 0.696,-35.619 1.044,-12.535 8.009,-16.365 12.188,-16.365 4.178,0 11.142,3.83 12.187,16.365 1.044,12.536 0.696,31.441 0.696,35.619"
       style="fill:none;stroke:#231f20;stroke-width:0.5;stroke-linecap:butt;stroke-linejoin:miter;stroke-miterlimit:4;stroke-dasharray:none;stroke-opacity:1"
       id="path726" />
    <path
       d="m 401.404,433.526 c 7.494,0.692 16.722,-0.875 26.472,-4.705 9.75,-3.83 19.3,-12.977 20.197,-15.321 1.369,-3.586 2.785,-9.75 3.134,-11.492"
       style="fill:none;stroke:#231f20;stroke-width:0.25;stroke-linecap:butt;stroke-linejoin:miter;stroke-miterlimit:4;stroke-dasharray:none;stroke-opacity:1"
       id="path728" />
    <path
       d="m 364.153,392.258 c 3.482,-3.134 18.107,-11.142 32.732,-18.107 14.625,-6.964 30.598,-13.525 46.609,-14.668"
       style="fill:none;stroke:#231f20;stroke-width:0.25;stroke-linecap:butt;stroke-linejoin:miter;stroke-miterlimit:4;stroke-dasharray:none;stroke-opacity:1"
       id="path730" />
    <path
       d="m 355.91,415.864 c 3.019,2.162 7.894,5.993 11.377,-0.972 4.137,-8.275 1.741,-14.973 0.696,-17.411 -0.392,-0.914 -1.42,-4.644 -3.83,-5.223 -4.02,-0.965 -10.217,2.546 -11.511,11.076"
       style="fill:none;stroke:#231f20;stroke-width:0.5;stroke-linecap:butt;stroke-linejoin:miter;stroke-miterlimit:4;stroke-dasharray:none;stroke-opacity:1"
       id="path732" />
    <path
       d="m 316.447,479.197 c 3.482,7.427 6.734,23.568 8.706,31.454 2.437,9.75 7.312,24.027 8.356,27.857 1.045,3.831 5.695,12.216 10.099,18.456 4.179,5.919 8.357,10.098 16.366,13.232 7.083,2.771 19.5,1.741 20.545,-9.75 1.044,-11.491 -0.696,-23.33 -5.92,-26.116 -5.223,-2.786 -18.804,-8.009 -24.723,-13.929 -5.919,-5.919 -25.419,-34.473 -29.947,-47.009 -4.526,-12.535 -9.475,-26.145 -4.563,-39.015"
       style="fill:none;stroke:#231f20;stroke-width:0.5;stroke-linecap:butt;stroke-linejoin:miter;stroke-miterlimit:4;stroke-dasharray:none;stroke-opacity:1"
       id="path734" />
    <path
       d="m 540.002,561.491 c -21.247,0 -32.198,7.708 -34.861,9.879 4.082,-3.803 9.092,-14.754 9.092,-14.754 2.09,-1.742 6.965,-6.268 7.661,-9.054 0.696,-2.785 2.089,-5.92 6.616,-9.054 3.24,-2.243 8.358,-3.134 11.492,-3.134 3.133,0 8.25,0.891 11.491,3.134 4.526,3.134 5.919,6.269 6.615,9.054 0.697,2.786 5.572,7.312 7.661,9.054 0,0 5.011,10.951 9.092,14.754 -2.662,-2.171 -13.613,-9.879 -34.859,-9.879"
       style="fill:#706d6e;fill-opacity:1;fill-rule:nonzero;stroke:none;stroke-width:0.1"
       id="path736" />
    <path
       d="m 540.002,561.491 c -21.247,0 -32.198,7.708 -34.861,9.879 4.082,-3.803 9.092,-14.754 9.092,-14.754 2.09,-1.742 6.965,-6.268 7.661,-9.054 0.696,-2.785 2.089,-5.92 6.616,-9.054 3.24,-2.243 8.358,-3.134 11.492,-3.134 3.133,0 8.25,0.891 11.491,3.134 4.526,3.134 5.919,6.269 6.615,9.054 0.697,2.786 5.572,7.312 7.661,9.054 0,0 5.011,10.951 9.092,14.754 -2.662,-2.171 -13.613,-9.879 -34.859,-9.879 z"
       style="fill:none;stroke:#231f20;stroke-width:0.75;stroke-linecap:round;stroke-linejoin:round;stroke-miterlimit:4;stroke-dasharray:none;stroke-opacity:1"
       id="path738" />
    <path
       d="m 574.861,571.37 c 0.436,0.355 0.658,0.567 0.658,0.567 -0.215,-0.162 -0.437,-0.36 -0.658,-0.567"
       style="fill:#706d6e;fill-opacity:1;fill-rule:nonzero;stroke:none;stroke-width:0.1"
       id="path740" />
    <path
       d="m 574.861,571.37 c 0.436,0.355 0.658,0.567 0.658,0.567 -0.215,-0.162 -0.437,-0.36 -0.658,-0.567 z"
       style="fill:none;stroke:#231f20;stroke-width:0.75;stroke-linecap:round;stroke-linejoin:round;stroke-miterlimit:4;stroke-dasharray:none;stroke-opacity:1"
       id="path742" />
    <path
       d="m 505.141,571.37 c -0.222,0.207 -0.443,0.405 -0.658,0.567 0,0 0.222,-0.212 0.658,-0.567"
       style="fill:#706d6e;fill-opacity:1;fill-rule:nonzero;stroke:none;stroke-width:0.1"
       id="path744" />
    <path
       d="m 505.141,571.37 c -0.222,0.207 -0.443,0.405 -0.658,0.567 0,0 0.222,-0.212 0.658,-0.567 z"
       style="fill:none;stroke:#231f20;stroke-width:0.75;stroke-linecap:round;stroke-linejoin:round;stroke-miterlimit:4;stroke-dasharray:none;stroke-opacity:1"
       id="path746" />
    <path
       d="m 504.483,571.937 c -3.83,3.482 -20.544,17.063 -30.991,16.366 -10.447,-0.696 -22.982,-2.437 -26.813,-2.786 -3.83,-0.348 -24.722,0.697 -30.642,2.09 0,0 8.357,-0.696 17.758,3.134 9.403,3.83 21.59,4.875 29.947,5.92 8.357,1.044 26.58,3.365 30.062,3.713 0,0 -5.803,-4.179 -1.392,-12.302 3.022,-5.569 5.637,-10.914 12.071,-16.135"
       style="fill:#706d6e;fill-opacity:1;fill-rule:nonzero;stroke:none;stroke-width:0.1"
       id="path748" />
    <path
       d="m 504.483,571.937 c -3.83,3.482 -20.544,17.063 -30.991,16.366 -10.447,-0.696 -22.982,-2.437 -26.813,-2.786 -3.83,-0.348 -24.722,0.697 -30.642,2.09 0,0 8.357,-0.696 17.758,3.134 9.403,3.83 21.59,4.875 29.947,5.92 8.357,1.044 26.58,3.365 30.062,3.713 0,0 -5.803,-4.179 -1.392,-12.302 3.022,-5.569 5.637,-10.914 12.071,-16.135 z"
       style="fill:none;stroke:#231f20;stroke-width:0.75;stroke-linecap:round;stroke-linejoin:round;stroke-miterlimit:4;stroke-dasharray:none;stroke-opacity:1"
       id="path750" />
    <path
       d="m 532.45,536.63 c -2.895,0.137 -6.61,-1.951 -6.377,-8.683"
       style="fill:none;stroke:#231f20;stroke-width:0.5;stroke-linecap:butt;stroke-linejoin:miter;stroke-miterlimit:4;stroke-dasharray:none;stroke-opacity:1"
       id="path752" />
    <path
       d="m 362.18,570.885 c 9.518,3.026 26.929,7.203 35.285,5.81 8.358,-1.392 22.519,-7.195 24.375,-3.017 1.858,4.179 -2.785,8.126 -5.571,9.75 -2.785,1.624 4.912,-0.612 5.107,1.859 0.194,2.469 -9.286,2.785 -13.697,2.785 -4.411,0 -14.392,-0.93 -22.749,-3.251 -8.357,-2.321 -19.267,-6.502 -28.321,-13.001 -9.054,-6.499 -20.895,-18.57 -17.599,-20.274"
       style="fill:none;stroke:#231f20;stroke-width:0.5;stroke-linecap:butt;stroke-linejoin:miter;stroke-miterlimit:4;stroke-dasharray:none;stroke-opacity:1"
       id="path754" />
    <path
       d="m 507.748,612.196 c 1.626,1.624 7.878,4.892 14.842,6.982 6.965,2.089 13.464,1.393 17.412,1.393 3.947,0 10.446,0.696 17.41,-1.393 6.964,-2.09 13.217,-5.358 14.842,-6.982"
       style="fill:none;stroke:#231f20;stroke-width:0.5;stroke-linecap:butt;stroke-linejoin:miter;stroke-miterlimit:4;stroke-dasharray:none;stroke-opacity:1"
       id="path756" />
    <path
       d="m 540.002,568.107 c -11.144,0 -15.174,0.697 -28.09,5.571 -12.304,4.644 -15.089,13.697 -15.322,18.572 -0.233,4.875 7.66,11.143 18.34,17.411 10.679,6.267 17.875,5.571 25.072,5.571 7.195,0 14.392,0.696 25.071,-5.571 10.679,-6.268 18.572,-12.536 18.34,-17.411 -0.233,-4.875 -3.019,-13.928 -15.322,-18.572 -12.916,-4.874 -16.947,-5.571 -28.089,-5.571 z"
       style="fill:none;stroke:#231f20;stroke-width:0.5;stroke-linecap:butt;stroke-linejoin:miter;stroke-miterlimit:4;stroke-dasharray:none;stroke-opacity:1"
       id="path758" />
    <path
       d="m 297.18,831.125 c 4.409,-4.643 8.588,-19.5 11.374,-29.714 2.785,-10.214 10.215,-38.072 14.394,-43.643 4.178,-5.572 12.072,-11.607 15.321,-13.465 3.25,-1.857 7.428,-6.5 11.607,-15.785"
       style="fill:none;stroke:#231f20;stroke-width:0.5;stroke-linecap:butt;stroke-linejoin:miter;stroke-miterlimit:4;stroke-dasharray:none;stroke-opacity:1"
       id="path760" />
    <path
       d="m 214.536,741.75 c 2.554,-4.876 10.912,-9.518 16.947,-17.875 6.035,-8.357 13.93,-33.428 21.821,-35.286"
       style="fill:none;stroke:#231f20;stroke-width:0.5;stroke-linecap:butt;stroke-linejoin:miter;stroke-miterlimit:4;stroke-dasharray:none;stroke-opacity:1"
       id="path762" />
    <path
       d="m 126.089,610.589 c 3.715,-6.965 16.716,-20.893 24.144,-25.999 7.428,-5.109 17.643,-10.216 33.429,-2.323"
       style="fill:none;stroke:#231f20;stroke-width:0.5;stroke-linecap:butt;stroke-linejoin:miter;stroke-miterlimit:4;stroke-dasharray:none;stroke-opacity:1"
       id="path764" />
    <path
       d="m 179.483,539.786 c -3.251,0.231 -11.145,1.16 -15.786,2.553"
       style="fill:none;stroke:#231f20;stroke-width:0.5;stroke-linecap:butt;stroke-linejoin:miter;stroke-miterlimit:4;stroke-dasharray:none;stroke-opacity:1"
       id="path766" />
    <path
       d="m 107.286,558.357 c 1.277,-0.871 2.496,-1.219 3.888,-1.741"
       style="fill:none;stroke:#231f20;stroke-width:0.5;stroke-linecap:butt;stroke-linejoin:miter;stroke-miterlimit:4;stroke-dasharray:none;stroke-opacity:1"
       id="path768" />
    <path
       d="m 393.287,624.053 c -4.879,-0.168 -8.917,-1.235 -13.796,-3.135 -5.947,-0.637 -13.533,0.374 -19.323,2.754 6.807,5.889 18.725,6.649 28.244,5.952 9.519,-0.696 12.303,3.25 16.482,5.804 4.179,2.554 12.087,1.627 11.606,-5.339 -0.48,-6.965 -15.785,-5.571 -23.213,-6.036"
       style="fill:none;stroke:#231f20;stroke-width:0.5;stroke-linecap:butt;stroke-linejoin:miter;stroke-miterlimit:4;stroke-dasharray:none;stroke-opacity:1"
       id="path770" />
    <path
       d="m 235.198,666.303 c 4.875,-1.741 14.732,-5.025 21.82,-7.196 6.71,-2.055 12.926,-4.859 16.955,-6.953 6.608,-3.436 20.657,-22.418 22.974,-25.547"
       style="fill:none;stroke:#231f20;stroke-width:0.5;stroke-linecap:butt;stroke-linejoin:miter;stroke-miterlimit:4;stroke-dasharray:none;stroke-opacity:1"
       id="path772" />
    <path
       d="m 209.197,672.107 c 2.592,0.72 6.79,0.277 12.814,-1.378 3.694,-1.015 8.071,-2.484 13.187,-4.426"
       style="fill:none;stroke:#231f20;stroke-width:0.5;stroke-linecap:butt;stroke-linejoin:miter;stroke-miterlimit:4;stroke-dasharray:none;stroke-opacity:1"
       id="path774" />
    <path
       d="m 783.055,626.607 c -2.795,-3.776 -7.666,-11.239 -8.588,-12.968 -1.162,-2.177 -1.51,-6.181 -1.162,-10.015"
       style="fill:none;stroke:#231f20;stroke-width:0.5;stroke-linecap:butt;stroke-linejoin:miter;stroke-miterlimit:4;stroke-dasharray:none;stroke-opacity:1"
       id="path776" />
    <path
       d="m 296.947,626.607 c 2.796,-3.776 7.667,-11.239 8.589,-12.968 1.161,-2.177 1.509,-6.181 1.161,-10.015"
       style="fill:none;stroke:#231f20;stroke-width:0.5;stroke-linecap:butt;stroke-linejoin:miter;stroke-miterlimit:4;stroke-dasharray:none;stroke-opacity:1"
       id="path778" />
    <path
       d="m 870.805,672.107 c -2.591,0.72 -6.79,0.277 -12.814,-1.378 -3.694,-1.015 -8.071,-2.484 -13.186,-4.426"
       style="fill:none;stroke:#231f20;stroke-width:0.5;stroke-linecap:butt;stroke-linejoin:miter;stroke-miterlimit:4;stroke-dasharray:none;stroke-opacity:1"
       id="path780" />
    <path
       d="m 844.805,666.303 c -4.875,-1.741 -14.732,-5.025 -21.821,-7.196 -6.71,-2.055 -12.926,-4.859 -16.955,-6.953 -6.608,-3.436 -20.657,-22.418 -22.974,-25.547"
       style="fill:none;stroke:#231f20;stroke-width:0.5;stroke-linecap:butt;stroke-linejoin:miter;stroke-miterlimit:4;stroke-dasharray:none;stroke-opacity:1"
       id="path782" />
    <path
       d="m 785.608,536.535 c 2.09,2.089 9.75,12.768 11.376,18.803 1.625,6.036 -2.786,13.465 -2.786,13.465 -5.108,4.179 -16.018,9.285 -17.41,9.982 -1.394,0.696 -6.27,2.554 -14.162,0.465 0,0 4.876,-2.322 8.357,-7.894 3.482,-5.571 11.143,-19.269 14.625,-34.821"
       style="fill:#706d6e;fill-opacity:1;fill-rule:nonzero;stroke:none;stroke-width:0.1"
       id="path784" />
    <path
       d="m 785.608,536.535 c 2.09,2.089 9.75,12.768 11.376,18.803 1.625,6.036 -2.786,13.465 -2.786,13.465 -5.108,4.179 -16.018,9.285 -17.41,9.982 -1.394,0.696 -6.27,2.554 -14.162,0.465 0,0 4.876,-2.322 8.357,-7.894 3.482,-5.571 11.143,-19.269 14.625,-34.821 z"
       style="fill:none;stroke:#231f20;stroke-width:0.75;stroke-linecap:round;stroke-linejoin:round;stroke-miterlimit:4;stroke-dasharray:none;stroke-opacity:1"
       id="path786" />
    <path
       d="m 294.394,536.535 c -2.089,2.089 -9.75,12.768 -11.376,18.803 -1.625,6.036 2.786,13.465 2.786,13.465 5.108,4.179 16.018,9.285 17.411,9.982 1.393,0.696 6.269,2.554 14.161,0.465 0,0 -4.875,-2.322 -8.357,-7.894 -3.482,-5.571 -11.143,-19.269 -14.625,-34.821"
       style="fill:#706d6e;fill-opacity:1;fill-rule:nonzero;stroke:none;stroke-width:0.1"
       id="path788" />
    <path
       d="m 294.394,536.535 c -2.089,2.089 -9.75,12.768 -11.376,18.803 -1.625,6.036 2.786,13.465 2.786,13.465 5.108,4.179 16.018,9.285 17.411,9.982 1.393,0.696 6.269,2.554 14.161,0.465 0,0 -4.875,-2.322 -8.357,-7.894 -3.482,-5.571 -11.143,-19.269 -14.625,-34.821 z"
       style="fill:none;stroke:#231f20;stroke-width:0.75;stroke-linecap:round;stroke-linejoin:round;stroke-miterlimit:4;stroke-dasharray:none;stroke-opacity:1"
       id="path790" />
    <path
       d="m 340.567,552.378 c -4.968,-2.378 -27.254,-17.352 -30.735,-25.709 -3.483,-8.357 -4.179,-15.321 -1.045,-19.152 3.133,-3.83 7.312,-7.312 10.446,-3.83 3.134,3.482 -2.092,12.084 8.53,16.314"
       style="fill:none;stroke:#231f20;stroke-width:0.5;stroke-linecap:butt;stroke-linejoin:miter;stroke-miterlimit:4;stroke-dasharray:none;stroke-opacity:1"
       id="path792" />
    <path
       d="m 739.436,552.378 c 4.968,-2.378 27.253,-17.352 30.735,-25.709 3.483,-8.357 4.179,-15.321 1.045,-19.152 -3.134,-3.83 -7.312,-7.312 -10.447,-3.83 -3.134,3.482 2.093,12.084 -8.529,16.314"
       style="fill:none;stroke:#231f20;stroke-width:0.5;stroke-linecap:butt;stroke-linejoin:miter;stroke-miterlimit:4;stroke-dasharray:none;stroke-opacity:1"
       id="path794" />
    <path
       d="m 733.305,397.763 c -3.875,1.808 -12.232,12.254 -9.795,17.129 2.438,4.875 4.528,-1.045 12.884,9.054 8.358,10.098 11.84,29.25 2.438,45.267 -9.402,16.019 -21.241,28.554 -25.419,34.125 -4.179,5.573 -12.537,16.367 -7.313,22.286 5.223,5.92 16.366,0 18.455,-1.044"
       style="fill:none;stroke:#231f20;stroke-width:0.5;stroke-linecap:butt;stroke-linejoin:miter;stroke-miterlimit:4;stroke-dasharray:none;stroke-opacity:1"
       id="path796" />
    <path
       d="m 346.697,397.763 c 3.875,1.808 12.232,12.254 9.795,17.129 -2.438,4.875 -4.527,-1.045 -12.884,9.054 -8.358,10.098 -11.839,29.25 -2.438,45.267 9.402,16.019 21.242,28.554 25.42,34.125 4.179,5.573 12.536,16.367 7.313,22.286 -5.224,5.92 -16.429,0 -18.519,-1.044"
       style="fill:none;stroke:#231f20;stroke-width:0.5;stroke-linecap:butt;stroke-linejoin:miter;stroke-miterlimit:4;stroke-dasharray:none;stroke-opacity:1"
       id="path798" />
    <path
       d="m 569.21,408.923 c 7.106,5.364 42.477,15.371 67.548,10.148"
       style="fill:none;stroke:#231f20;stroke-width:0.5;stroke-linecap:round;stroke-linejoin:round;stroke-miterlimit:4;stroke-dasharray:2.8, 1.8;stroke-dashoffset:0;stroke-opacity:1"
       id="path800" />
    <path
       d="m 606.162,516.658 c 4.875,-37.955 16.669,-73.212 30.596,-97.587"
       style="fill:none;stroke:#231f20;stroke-width:0.5;stroke-linecap:round;stroke-linejoin:round;stroke-miterlimit:4;stroke-dasharray:2.8, 1.8;stroke-dashoffset:0;stroke-opacity:1"
       id="path802" />
    <path
       d="m 595.032,516.776 c 3.121,-7.865 1.728,-15.178 -0.013,-19.009 -1.741,-3.83 -4.423,-12.191 -13.232,-11.839 -8.705,0.348 -19.738,3.483 -28.847,6.616"
       style="fill:none;stroke:#231f20;stroke-width:0.5;stroke-linecap:round;stroke-linejoin:round;stroke-miterlimit:4;stroke-dasharray:2.8, 1.8;stroke-dashoffset:0;stroke-opacity:1"
       id="path804" />
    <path
       d="m 557.412,527.244 c 2.786,0.696 8.357,-0.923 13.581,-4.057 5.222,-3.134 10.097,-5.92 19.151,-6.268 9.054,-0.348 23.679,-0.348 34.821,0 11.144,0.348 23.331,0 30.992,-0.348 7.661,-0.348 18.803,-2.089 26.812,-2.785"
       style="fill:none;stroke:#231f20;stroke-width:0.5;stroke-linecap:round;stroke-linejoin:round;stroke-miterlimit:4;stroke-dasharray:2.8, 1.8;stroke-dashoffset:0;stroke-opacity:1"
       id="path806" />
    <path
       d="m 624.965,516.919 c 3.831,-9.75 20.545,-50.109 33.081,-67.868"
       style="fill:none;stroke:#231f20;stroke-width:0.5;stroke-linecap:round;stroke-linejoin:round;stroke-miterlimit:4;stroke-dasharray:2.8, 1.8;stroke-dashoffset:0;stroke-opacity:1"
       id="path808" />
    <path
       d="m 653.189,508.517 c 2.768,-4.83 7.295,-9.009 26.099,-8.312"
       style="fill:none;stroke:#231f20;stroke-width:0.5;stroke-linecap:round;stroke-linejoin:round;stroke-miterlimit:4;stroke-dasharray:2.8, 1.8;stroke-dashoffset:0;stroke-opacity:1"
       id="path810" />
    <path
       d="m 575.973,379.532 c 5.117,-2.595 25.314,-16.872 31.582,-21.747 6.268,-4.875 16.018,-12.884 20.197,-11.143 4.178,1.741 4.79,6.347 6.879,12.963"
       style="fill:none;stroke:#231f20;stroke-width:0.5;stroke-linecap:round;stroke-linejoin:round;stroke-miterlimit:4;stroke-dasharray:2.8, 1.8;stroke-dashoffset:0;stroke-opacity:1"
       id="path812" />
    <path
       d="m 581.023,376.483 c 2.822,-1.857 16.782,1.15 24.442,2.543 7.661,1.392 19.417,4.179 21.507,4.527"
       style="fill:none;stroke:#231f20;stroke-width:0.5;stroke-linecap:round;stroke-linejoin:round;stroke-miterlimit:4;stroke-dasharray:2.8, 1.8;stroke-dashoffset:0;stroke-opacity:1"
       id="path814" />
    <path
       d="m 585.962,375.944 c 2.07,0.166 3.486,4.474 1.397,8.306 -2.09,3.83 -19.593,11.847 -13.279,-2.434"
       style="fill:none;stroke:#231f20;stroke-width:0.5;stroke-linecap:round;stroke-linejoin:round;stroke-miterlimit:4;stroke-dasharray:2.8, 1.8;stroke-dashoffset:0;stroke-opacity:1"
       id="path816" />
    <path
       d="m 646.296,410.456 c 3.134,3.481 17.773,10.086 26.13,10.086"
       style="fill:none;stroke:#231f20;stroke-width:0.5;stroke-linecap:round;stroke-linejoin:round;stroke-miterlimit:4;stroke-dasharray:2.8, 1.8;stroke-dashoffset:0;stroke-opacity:1"
       id="path818" />
    <path
       d="m 649.224,397.481 c 5.919,3.135 21.335,6.965 30.388,6.965"
       style="fill:none;stroke:#231f20;stroke-width:0.5;stroke-linecap:round;stroke-linejoin:round;stroke-miterlimit:4;stroke-dasharray:2.8, 1.8;stroke-dashoffset:0;stroke-opacity:1"
       id="path820" />
    <path
       d="m 699.969,545.124 c -6.405,-7.661 -8.687,-24.72 4.467,-24.025"
       style="fill:none;stroke:#231f20;stroke-width:0.5;stroke-linecap:round;stroke-linejoin:round;stroke-miterlimit:4;stroke-dasharray:2.8, 1.8;stroke-dashoffset:0;stroke-opacity:1"
       id="path822" />
    <path
       d="m 697.539,473.561 c 4.034,3.662 13.784,18.287 15.874,29.777"
       style="fill:none;stroke:#231f20;stroke-width:0.5;stroke-linecap:round;stroke-linejoin:round;stroke-miterlimit:4;stroke-dasharray:2.8, 1.8;stroke-dashoffset:0;stroke-opacity:1"
       id="path824" />
    <path
       d="m 707.518,511.911 c -4.553,3.963 -19.874,7.097 -24.749,1.875 -4.23,-4.533 -5.223,-8.706 -2.437,-16.019 2.786,-7.312 10.777,-18.472 15.67,-22.981"
       style="fill:none;stroke:#231f20;stroke-width:0.5;stroke-linecap:round;stroke-linejoin:round;stroke-miterlimit:4;stroke-dasharray:2.8, 1.8;stroke-dashoffset:0;stroke-opacity:1"
       id="path826" />
    <path
       d="m 670.62,515.143 c -2.476,-2.402 -1.164,-11.641 8.278,-12.071"
       style="fill:none;stroke:#231f20;stroke-width:0.5;stroke-linecap:round;stroke-linejoin:round;stroke-miterlimit:4;stroke-dasharray:2.8, 1.8;stroke-dashoffset:0;stroke-opacity:1"
       id="path828" />
    <path
       d="m 710.621,402.008 c -8.009,-4.178 -8.352,-14.973 -17.057,-18.803 -5.418,-2.385 -11.491,3.83 -11.491,3.83 -5.92,0.696 -11.491,-2.438 -16.366,-7.313 -4.875,-4.875 -8.009,-1.741 -8.009,-1.741 -1.045,-5.223 -6.268,-8.357 -13.929,-14.276 -7.66,-5.92 -9.403,-4.959 -11.491,-1.742 -2.088,3.219 -4.526,12.537 -4.875,16.018 -0.348,3.482 -1.393,14.277 0.696,21.938 2.09,7.661 8.358,14.625 11.84,14.973 3.482,0.349 5.571,0 6.964,-6.964 1.393,-6.965 4.125,-18.512 5.517,-21.297"
       style="fill:none;stroke:#231f20;stroke-width:0.5;stroke-linecap:round;stroke-linejoin:round;stroke-miterlimit:4;stroke-dasharray:2.8, 1.8;stroke-dashoffset:0;stroke-opacity:1"
       id="path830" />
    <path
       d="m 626.837,387.38 c 2.307,3.137 8.575,4.878 12.753,4.53 4.179,-0.348 13.355,-1.125 18.108,-13.929"
       style="fill:none;stroke:#231f20;stroke-width:0.5;stroke-linecap:round;stroke-linejoin:round;stroke-miterlimit:4;stroke-dasharray:2.8, 1.8;stroke-dashoffset:0;stroke-opacity:1"
       id="path832" />
    <path
       d="m 712.715,414.892 c -1.044,3.134 -3.133,9.75 -13.58,13.929 -10.446,4.179 -19.5,5.92 -26.116,3.83 -6.616,-2.089 -2.089,-10.794 0.349,-13.232 2.437,-2.437 8.357,-7.114 7.312,-12.337"
       style="fill:none;stroke:#231f20;stroke-width:0.5;stroke-linecap:round;stroke-linejoin:round;stroke-miterlimit:4;stroke-dasharray:2.8, 1.8;stroke-dashoffset:0;stroke-opacity:1"
       id="path834" />
    <path
       d="m 711.297,418.52 c -3.226,4.571 -10.769,4.381 -13.554,1.596 -2.786,-2.786 -6.965,-5.572 -10.795,-6.965 -3.83,-1.393 -6.964,-5.571 -8.009,-11.491 -1.045,-5.919 -1.35,-11.407 3.134,-14.625"
       style="fill:none;stroke:#231f20;stroke-width:0.5;stroke-linecap:round;stroke-linejoin:round;stroke-miterlimit:4;stroke-dasharray:2.8, 1.8;stroke-dashoffset:0;stroke-opacity:1"
       id="path836" />
    <path
       d="m 717.814,418.877 c -3.241,1.586 -6.025,5.069 -8.348,7.158 -2.322,2.089 -10.271,9.062 -19.5,10.447 -9.286,1.392 -22.499,1.761 -25.537,3.714 -3.249,2.09 -4.409,5.108 -4.641,7.661 -0.234,2.553 -3.947,0.928 -2.786,-3.019 1.16,-3.945 4.178,-9.05 13.928,-10.269 1.5,-0.188 5.973,-0.925 7.669,-1.043"
       style="fill:none;stroke:#231f20;stroke-width:0.5;stroke-linecap:round;stroke-linejoin:round;stroke-miterlimit:4;stroke-dasharray:2.8, 1.8;stroke-dashoffset:0;stroke-opacity:1"
       id="path838" />
    <path
       d="m 362.188,418.877 c 3.242,1.586 6.026,5.069 8.348,7.158 2.322,2.089 10.271,9.062 19.501,10.447 9.286,1.392 22.499,1.761 25.536,3.714 3.25,2.09 4.41,5.108 4.642,7.661 0.233,2.553 3.947,0.928 2.785,-3.019 -1.16,-3.945 -4.177,-9.05 -13.927,-10.269 -1.501,-0.188 -5.973,-0.925 -7.669,-1.043"
       style="fill:none;stroke:#231f20;stroke-width:0.5;stroke-linecap:round;stroke-linejoin:round;stroke-miterlimit:4;stroke-dasharray:2.8, 1.8;stroke-dashoffset:0;stroke-opacity:1"
       id="path840" />
    <path
       d="m 773.215,514.135 c 1.135,-3.135 3.559,-9.066 4.436,-12.194"
       style="fill:none;stroke:#231f20;stroke-width:0.5;stroke-linecap:round;stroke-linejoin:round;stroke-miterlimit:4;stroke-dasharray:2.8, 1.8;stroke-dashoffset:0;stroke-opacity:1"
       id="path842" />
    <path
       d="m 565.769,556.616 c 3.946,-0.813 7.195,-3.136 10.91,-6.849 3.715,-3.714 12.536,-12.302 13.465,-15.553 0.929,-3.251 -3.249,-10.214 -7.66,-10.446 -4.412,-0.232 -8.223,-0.174 -12.353,-0.087"
       style="fill:none;stroke:#231f20;stroke-width:0.5;stroke-linecap:round;stroke-linejoin:round;stroke-miterlimit:4;stroke-dasharray:2.8, 1.8;stroke-dashoffset:0;stroke-opacity:1"
       id="path844" />
    <path
       d="m 547.197,517.731 c 0.522,6.582 2.089,9.519 4.643,10.216 2.016,0.549 7.43,0.23 7.196,-4.875 -0.244,-5.359 -0.462,-5.572 -1.159,-9.984 -0.598,-3.782 -2.786,-10.446 -6.733,-10.446 -4.665,0 -4.314,10.446 -3.947,15.089 z"
       style="fill:none;stroke:#231f20;stroke-width:0.5;stroke-linecap:round;stroke-linejoin:round;stroke-miterlimit:4;stroke-dasharray:2.8, 1.8;stroke-dashoffset:0;stroke-opacity:1"
       id="path846" />
    <path
       d="m 590.144,534.214 c 3.715,1.393 8.821,3.945 16.018,8.588 7.197,4.645 24.606,16.715 30.411,20.43 5.803,3.715 15.588,8.86 17.41,9.982 l 3.828,1.857 c -5.917,-6.268 -10.211,-20.893 -9.863,-28.205 0.348,-7.313 7.661,-24.028 8.357,-26.116 0.697,-2.089 0.317,-3.118 -0.348,-4.179 -2.775,-4.425 -6.964,-20.545 6.964,-27.16 13.929,-6.617 29.598,-12.188 33.081,-14.625 3.482,-2.438 12.883,-12.189 13.58,-19.849 0.696,-7.661 0.3,-28.902 3.086,-32.036"
       style="fill:none;stroke:#231f20;stroke-width:0.5;stroke-linecap:round;stroke-linejoin:round;stroke-miterlimit:4;stroke-dasharray:2.8, 1.8;stroke-dashoffset:0;stroke-opacity:1"
       id="path848" />
    <path
       d="m 590.84,653.768 c 3.715,-3.715 12.6,-10.68 30.475,-8.822"
       style="fill:none;stroke:#231f20;stroke-width:0.5;stroke-linecap:round;stroke-linejoin:round;stroke-miterlimit:4;stroke-dasharray:2.8, 1.8;stroke-dashoffset:0;stroke-opacity:1"
       id="path850" />
    <path
       d="m 625.429,632.643 c 1.626,-8.822 -3.713,-27.856 -9.169,-35.982"
       style="fill:none;stroke:#231f20;stroke-width:0.5;stroke-linecap:round;stroke-linejoin:round;stroke-miterlimit:4;stroke-dasharray:2.8, 1.8;stroke-dashoffset:0;stroke-opacity:1"
       id="path852" />
    <path
       d="m 652.484,604.574 c 0.803,-3.966 0.803,-10.003 -6.277,-13.833"
       style="fill:none;stroke:#231f20;stroke-width:0.5;stroke-linecap:round;stroke-linejoin:round;stroke-miterlimit:4;stroke-dasharray:2.8, 1.8;stroke-dashoffset:0;stroke-opacity:1"
       id="path854" />
    <path
       d="m 656.769,604.09 c 2.089,-2.786 6.073,-5.109 23.483,-2.554"
       style="fill:none;stroke:#231f20;stroke-width:0.5;stroke-linecap:round;stroke-linejoin:round;stroke-miterlimit:4;stroke-dasharray:2.8, 1.8;stroke-dashoffset:0;stroke-opacity:1"
       id="path856" />
    <path
       d="m 665.126,617.322 c 2.786,0.231 6.037,0.928 8.126,-2.554 2.089,-3.482 4.676,-10.877 -1.376,-14.144"
       style="fill:none;stroke:#231f20;stroke-width:0.5;stroke-linecap:round;stroke-linejoin:round;stroke-miterlimit:4;stroke-dasharray:2.8, 1.8;stroke-dashoffset:0;stroke-opacity:1"
       id="path858" />
    <path
       d="m 700.512,620.918 c 1.854,-0.721 4.546,-1.837 6.4,-2.668 6.733,-3.018 14.859,-6.268 19.965,-7.661 5.106,-1.393 19.5,-6.732 25.072,-15.552"
       style="fill:none;stroke:#231f20;stroke-width:0.5;stroke-linecap:round;stroke-linejoin:round;stroke-miterlimit:4;stroke-dasharray:2.8, 1.8;stroke-dashoffset:0;stroke-opacity:1"
       id="path860" />
    <path
       d="m 671.063,616.915 c 2.42,2.728 8.919,7.37 15.652,7.138"
       style="fill:none;stroke:#231f20;stroke-width:0.5;stroke-linecap:round;stroke-linejoin:round;stroke-miterlimit:4;stroke-dasharray:2.8, 1.8;stroke-dashoffset:0;stroke-opacity:1"
       id="path862" />
    <path
       d="m 719.835,623.672 c 1.574,0.647 3.016,1.395 4.256,2.239 5.803,3.946 9.75,6.964 11.839,10.214 2.09,3.249 3.018,7.428 6.036,8.589"
       style="fill:none;stroke:#231f20;stroke-width:0.5;stroke-linecap:round;stroke-linejoin:round;stroke-miterlimit:4;stroke-dasharray:2.8, 1.8;stroke-dashoffset:0;stroke-opacity:1"
       id="path864" />
    <path
       d="m 712.715,647.964 c 3.019,-2.089 14.725,-9.175 29.251,-3.25"
       style="fill:none;stroke:#231f20;stroke-width:0.5;stroke-linecap:round;stroke-linejoin:round;stroke-miterlimit:4;stroke-dasharray:2.8, 1.8;stroke-dashoffset:0;stroke-opacity:1"
       id="path866" />
    <path
       d="m 708.34,590.624 c 7.429,-0.232 21.091,-1.624 32.465,-6.5 11.375,-4.874 20.659,-15.785 28.089,-26.463 7.43,-10.68 13.482,-28.18 14.286,-37.189"
       style="fill:none;stroke:#231f20;stroke-width:0.5;stroke-linecap:round;stroke-linejoin:round;stroke-miterlimit:4;stroke-dasharray:2.8, 1.8;stroke-dashoffset:0;stroke-opacity:1"
       id="path868" />
    <path
       d="m 707.471,587.607 c 8.59,-0.928 24.976,-2.555 39.834,-13.465 14.858,-10.91 28.766,-31.1 33.883,-59.192"
       style="fill:none;stroke:#231f20;stroke-width:0.5;stroke-linecap:round;stroke-linejoin:round;stroke-miterlimit:4;stroke-dasharray:2.8, 1.8;stroke-dashoffset:0;stroke-opacity:1"
       id="path870" />
    <path
       d="m 696.77,596.072 c -1.162,2.552 -5.179,7.552 -10.982,6.856 -5.804,-0.696 -9.286,-2.786 -9.519,-7.661 -0.211,-4.43 -0.422,-6.77 7.198,-8.117"
       style="fill:none;stroke:#231f20;stroke-width:0.5;stroke-linecap:round;stroke-linejoin:round;stroke-miterlimit:4;stroke-dasharray:2.8, 1.8;stroke-dashoffset:0;stroke-opacity:1"
       id="path872" />
    <path
       d="m 707.608,595.267 c 0.93,-1.393 2.306,-8.19 -4.193,-11.44"
       style="fill:none;stroke:#231f20;stroke-width:0.5;stroke-linecap:round;stroke-linejoin:round;stroke-miterlimit:4;stroke-dasharray:2.8, 1.8;stroke-dashoffset:0;stroke-opacity:1"
       id="path874" />
    <path
       d="m 638.662,661.197 c 3.251,3.249 11.102,7.077 21.317,5.047"
       style="fill:none;stroke:#231f20;stroke-width:0.5;stroke-linecap:round;stroke-linejoin:round;stroke-miterlimit:4;stroke-dasharray:2.8, 1.8;stroke-dashoffset:0;stroke-opacity:1"
       id="path876" />
    <path
       d="m 498.077,388.332 c 9.75,28.553 35.308,34.221 41.925,34.221 6.616,0 32.173,-5.668 41.923,-34.221"
       style="fill:none;stroke:#231f20;stroke-width:0.5;stroke-linecap:round;stroke-linejoin:round;stroke-miterlimit:4;stroke-dasharray:2.8, 1.8;stroke-dashoffset:7.0038;stroke-opacity:1"
       id="path878" />
    <path
       d="m 510.793,408.923 c -7.107,5.364 -42.478,15.371 -67.549,10.148"
       style="fill:none;stroke:#231f20;stroke-width:0.5;stroke-linecap:round;stroke-linejoin:round;stroke-miterlimit:4;stroke-dasharray:2.8, 1.8;stroke-dashoffset:0;stroke-opacity:1"
       id="path880" />
    <path
       d="m 498.796,371.238 c 7.661,16.017 28.322,29.725 41.206,29.725 12.883,0 33.543,-13.708 41.205,-29.725"
       style="fill:none;stroke:#231f20;stroke-width:0.5;stroke-linecap:round;stroke-linejoin:round;stroke-miterlimit:4;stroke-dasharray:2.8, 1.8;stroke-dashoffset:6.0663;stroke-opacity:1"
       id="path882" />
    <path
       d="m 536.17,375.196 c 0,4.524 1.045,8.009 3.832,8.009 2.785,0 3.83,-3.485 3.83,-8.009"
       style="fill:none;stroke:#231f20;stroke-width:0.5;stroke-linecap:round;stroke-linejoin:round;stroke-miterlimit:4;stroke-dasharray:2.8, 1.8;stroke-dashoffset:7.16;stroke-opacity:1"
       id="path884" />
    <path
       d="m 473.84,516.658 c -4.875,-37.955 -16.668,-73.212 -30.596,-97.587"
       style="fill:none;stroke:#231f20;stroke-width:0.5;stroke-linecap:round;stroke-linejoin:round;stroke-miterlimit:4;stroke-dasharray:2.8, 1.8;stroke-dashoffset:0;stroke-opacity:1"
       id="path886" />
    <path
       d="m 484.971,516.776 c -3.122,-7.865 -1.729,-15.178 0.012,-19.009 1.741,-3.83 4.424,-12.191 13.232,-11.839 8.705,0.348 19.739,3.483 28.847,6.616"
       style="fill:none;stroke:#231f20;stroke-width:0.5;stroke-linecap:round;stroke-linejoin:round;stroke-miterlimit:4;stroke-dasharray:2.8, 1.8;stroke-dashoffset:0;stroke-opacity:1"
       id="path888" />
    <path
       d="m 522.59,527.244 c -2.785,0.696 -8.357,-0.923 -13.58,-4.057 -5.223,-3.134 -10.098,-5.92 -19.152,-6.268 -9.054,-0.348 -23.679,-0.348 -34.821,0 -11.143,0.348 -23.33,0 -30.992,-0.348 -7.66,-0.348 -18.803,-2.089 -26.812,-2.785"
       style="fill:none;stroke:#231f20;stroke-width:0.5;stroke-linecap:round;stroke-linejoin:round;stroke-miterlimit:4;stroke-dasharray:2.8, 1.8;stroke-dashoffset:0;stroke-opacity:1"
       id="path890" />
    <path
       d="m 455.037,516.919 c -3.83,-9.75 -20.545,-50.268 -33.08,-68.027"
       style="fill:none;stroke:#231f20;stroke-width:0.5;stroke-linecap:round;stroke-linejoin:round;stroke-miterlimit:4;stroke-dasharray:2.8, 1.8;stroke-dashoffset:0;stroke-opacity:1"
       id="path892" />
    <path
       d="m 426.814,508.517 c -2.769,-4.83 -7.508,-9.009 -26.312,-8.312"
       style="fill:none;stroke:#231f20;stroke-width:0.5;stroke-linecap:round;stroke-linejoin:round;stroke-miterlimit:4;stroke-dasharray:2.8, 1.8;stroke-dashoffset:0;stroke-opacity:1"
       id="path894" />
    <path
       d="m 504.029,379.532 c -5.117,-2.595 -25.314,-16.872 -31.581,-21.747 -6.269,-4.875 -16.019,-12.884 -20.197,-11.143 -4.178,1.741 -4.875,6.323 -6.964,12.94"
       style="fill:none;stroke:#231f20;stroke-width:0.5;stroke-linecap:round;stroke-linejoin:round;stroke-miterlimit:4;stroke-dasharray:2.8, 1.8;stroke-dashoffset:0;stroke-opacity:1"
       id="path896" />
    <path
       d="m 498.98,376.483 c -2.822,-1.857 -16.782,1.15 -24.443,2.543 -7.661,1.392 -19.417,4.179 -21.506,4.527"
       style="fill:none;stroke:#231f20;stroke-width:0.5;stroke-linecap:round;stroke-linejoin:round;stroke-miterlimit:4;stroke-dasharray:2.8, 1.8;stroke-dashoffset:0;stroke-opacity:1"
       id="path898" />
    <path
       d="m 494.04,375.944 c -2.07,0.166 -3.486,4.474 -1.396,8.306 2.089,3.83 19.593,11.847 13.278,-2.434"
       style="fill:none;stroke:#231f20;stroke-width:0.5;stroke-linecap:round;stroke-linejoin:round;stroke-miterlimit:4;stroke-dasharray:2.8, 1.8;stroke-dashoffset:0;stroke-opacity:1"
       id="path900" />
    <path
       d="m 433.448,410.713 c -3.135,3.483 -17.515,9.829 -25.872,9.829"
       style="fill:none;stroke:#231f20;stroke-width:0.5;stroke-linecap:round;stroke-linejoin:round;stroke-miterlimit:4;stroke-dasharray:2.8, 1.8;stroke-dashoffset:0;stroke-opacity:1"
       id="path902" />
    <path
       d="m 430.857,397.481 c -5.92,3.135 -21.419,6.965 -30.473,6.965"
       style="fill:none;stroke:#231f20;stroke-width:0.5;stroke-linecap:round;stroke-linejoin:round;stroke-miterlimit:4;stroke-dasharray:2.8, 1.8;stroke-dashoffset:0;stroke-opacity:1"
       id="path904" />
    <path
       d="m 380.033,545.124 c 6.405,-7.661 8.688,-24.72 -4.467,-24.025"
       style="fill:none;stroke:#231f20;stroke-width:0.5;stroke-linecap:round;stroke-linejoin:round;stroke-miterlimit:4;stroke-dasharray:2.8, 1.8;stroke-dashoffset:0;stroke-opacity:1"
       id="path906" />
    <path
       d="m 382.463,473.561 c -4.034,3.662 -13.784,18.287 -15.873,29.777"
       style="fill:none;stroke:#231f20;stroke-width:0.5;stroke-linecap:round;stroke-linejoin:round;stroke-miterlimit:4;stroke-dasharray:2.8, 1.8;stroke-dashoffset:0;stroke-opacity:1"
       id="path908" />
    <path
       d="m 372.484,511.911 c 4.553,3.963 19.874,7.097 24.749,1.875 4.23,-4.533 5.224,-8.706 2.437,-16.019 -2.785,-7.312 -10.776,-18.472 -15.67,-22.981"
       style="fill:none;stroke:#231f20;stroke-width:0.5;stroke-linecap:round;stroke-linejoin:round;stroke-miterlimit:4;stroke-dasharray:2.8, 1.8;stroke-dashoffset:0;stroke-opacity:1"
       id="path910" />
    <path
       d="m 409.382,515.143 c 2.476,-2.402 1.164,-11.641 -8.278,-12.071"
       style="fill:none;stroke:#231f20;stroke-width:0.5;stroke-linecap:round;stroke-linejoin:round;stroke-miterlimit:4;stroke-dasharray:2.8, 1.8;stroke-dashoffset:0;stroke-opacity:1"
       id="path912" />
    <path
       d="m 369.381,402.008 c 8.009,-4.178 8.352,-14.973 17.057,-18.803 5.418,-2.385 11.491,3.83 11.491,3.83 5.92,0.696 11.491,-2.438 16.366,-7.313 4.875,-4.875 8.009,-1.741 8.009,-1.741 1.045,-5.223 6.269,-8.357 13.929,-14.276 7.661,-5.92 9.403,-4.959 11.491,-1.742 2.088,3.219 4.527,12.537 4.875,16.018 0.349,3.482 1.393,14.277 -0.696,21.938 -2.089,7.661 -8.358,14.625 -11.839,14.973 -3.482,0.349 -5.572,0 -6.965,-6.964 -1.392,-6.965 -3.83,-18.229 -5.223,-21.015"
       style="fill:none;stroke:#231f20;stroke-width:0.5;stroke-linecap:round;stroke-linejoin:round;stroke-miterlimit:4;stroke-dasharray:2.8, 1.8;stroke-dashoffset:0;stroke-opacity:1"
       id="path914" />
    <path
       d="m 453.166,387.38 c -2.308,3.137 -8.576,4.878 -12.754,4.53 -4.179,-0.348 -13.355,-1.125 -18.108,-13.929"
       style="fill:none;stroke:#231f20;stroke-width:0.5;stroke-linecap:round;stroke-linejoin:round;stroke-miterlimit:4;stroke-dasharray:2.8, 1.8;stroke-dashoffset:0;stroke-opacity:1"
       id="path916" />
    <path
       d="m 367.287,414.892 c 1.045,3.134 3.133,9.75 13.58,13.929 10.446,4.179 19.5,5.92 26.116,3.83 6.616,-2.089 2.09,-10.794 -0.348,-13.232 -2.437,-2.437 -8.357,-7.14 -7.312,-12.363"
       style="fill:none;stroke:#231f20;stroke-width:0.5;stroke-linecap:round;stroke-linejoin:round;stroke-miterlimit:4;stroke-dasharray:2.8, 1.8;stroke-dashoffset:0;stroke-opacity:1"
       id="path918" />
    <path
       d="m 368.723,418.52 c 3.227,4.571 10.751,4.381 13.537,1.596 2.785,-2.786 6.964,-5.572 10.794,-6.965 3.831,-1.393 6.965,-5.571 8.009,-11.491 1.045,-5.919 1.35,-11.407 -3.134,-14.625"
       style="fill:none;stroke:#231f20;stroke-width:0.5;stroke-linecap:round;stroke-linejoin:round;stroke-miterlimit:4;stroke-dasharray:2.8, 1.8;stroke-dashoffset:0;stroke-opacity:1"
       id="path920" />
    <path
       d="m 306.787,514.135 c -1.134,-3.135 -3.558,-9.066 -4.436,-12.194"
       style="fill:none;stroke:#231f20;stroke-width:0.5;stroke-linecap:round;stroke-linejoin:round;stroke-miterlimit:4;stroke-dasharray:2.8, 1.8;stroke-dashoffset:0;stroke-opacity:1"
       id="path922" />
    <path
       d="m 514.233,556.616 c -3.945,-0.813 -7.195,-3.136 -10.91,-6.849 -3.715,-3.714 -12.535,-12.302 -13.465,-15.553 -0.929,-3.251 3.25,-10.214 7.661,-10.446 4.411,-0.232 8.223,-0.174 12.352,-0.087"
       style="fill:none;stroke:#231f20;stroke-width:0.5;stroke-linecap:round;stroke-linejoin:round;stroke-miterlimit:4;stroke-dasharray:2.8, 1.8;stroke-dashoffset:0;stroke-opacity:1"
       id="path924" />
    <path
       d="m 532.805,517.731 c -0.521,6.582 -2.09,9.519 -4.643,10.216 -2.016,0.549 -7.429,0.23 -7.197,-4.875 0.245,-5.359 0.464,-5.572 1.161,-9.984 0.597,-3.782 2.786,-10.446 6.732,-10.446 4.667,0 4.315,10.446 3.947,15.089 z"
       style="fill:none;stroke:#231f20;stroke-width:0.5;stroke-linecap:round;stroke-linejoin:round;stroke-miterlimit:4;stroke-dasharray:2.8, 1.8;stroke-dashoffset:0;stroke-opacity:1"
       id="path926" />
    <path
       d="m 489.858,534.214 c -3.715,1.393 -8.82,3.945 -16.018,8.588 -7.197,4.645 -24.606,16.715 -30.41,20.43 -5.804,3.715 -15.588,8.86 -17.411,9.982 l -3.827,1.857 c 5.917,-6.268 10.211,-20.893 9.862,-28.205 -0.347,-7.313 -7.66,-24.028 -8.356,-26.116 -0.698,-2.089 -0.318,-3.118 0.347,-4.179 2.776,-4.425 6.965,-20.545 -6.963,-27.16 -13.929,-6.617 -29.599,-12.188 -33.082,-14.625 -3.481,-2.438 -12.883,-12.189 -13.58,-19.849 -0.696,-7.661 -0.347,-28.902 -3.133,-32.036"
       style="fill:none;stroke:#231f20;stroke-width:0.5;stroke-linecap:round;stroke-linejoin:round;stroke-miterlimit:4;stroke-dasharray:2.8, 1.8;stroke-dashoffset:0;stroke-opacity:1"
       id="path928" />
    <path
       d="m 489.162,653.768 c -3.715,-3.715 -12.605,-10.68 -30.48,-8.822"
       style="fill:none;stroke:#231f20;stroke-width:0.5;stroke-linecap:round;stroke-linejoin:round;stroke-miterlimit:4;stroke-dasharray:2.8, 1.8;stroke-dashoffset:0;stroke-opacity:1"
       id="path930" />
    <path
       d="m 454.573,632.643 c -1.625,-8.822 3.714,-27.856 9.169,-35.982"
       style="fill:none;stroke:#231f20;stroke-width:0.5;stroke-linecap:round;stroke-linejoin:round;stroke-miterlimit:4;stroke-dasharray:2.8, 1.8;stroke-dashoffset:0;stroke-opacity:1"
       id="path932" />
    <path
       d="m 349.374,591.325 c -15.554,-2.323 -21.32,3.712 -21.32,3.712 -3.947,-1.626 -8.821,-1.627 -11.84,0.927 -3.018,2.554 -2.32,14.625 -1.856,23.214 0.464,8.589 -0.464,15.322 8.357,21.358 8.821,6.036 15.322,4.178 15.322,4.178 12.999,11.607 18.107,11.839 23.214,9.982 5.108,-1.858 6.036,-6.732 6.036,-6.732 0.928,0 2.786,-0.696 4.178,1.16 1.393,1.857 9.054,7.429 15.322,9.75 6.267,2.322 22.75,5.572 28.089,6.037 5.34,0.464 5.803,1.857 6.732,3.017 0.93,1.16 7.661,8.822 12.072,8.358 4.411,-0.465 9.518,-5.804 7.66,-15.089 -1.856,-9.286 -9.038,-24.142 -13.927,-30.411 -4.891,-6.27 -12.537,-13.464 -12.537,-13.464 13.233,-2.322 8.358,-13.232 8.358,-13.232 6.732,-1.626 9.98,7.427 12.766,12.998 2.787,5.573 6.038,13.465 7.662,19.967 1.137,4.556 2.321,11.838 4.177,12.069 1.858,0.233 2.787,-6.5 3.251,-9.75 0.466,-3.25 1.624,-6.731 3.483,-6.731 1.858,0 2.553,3.249 3.482,6.268 0.929,3.018 0.696,7.427 0.232,10.446 -0.466,3.018 -4.411,11.375 -5.803,14.625 -1.394,3.251 -4.645,8.589 -2.322,11.143 2.322,2.554 12.536,-2.786 16.947,-4.411 4.411,-1.626 10.678,-5.803 14.159,-8.821 3.482,-3.018 9.75,-9.982 12.072,-12.769 2.323,-2.786 11.607,-14.856 16.251,-21.821 4.644,-6.964 1.147,-12.053 -1.843,-15.107 -1.625,-1.625 -9.069,-9.964 -13.944,-11.822"
       style="fill:none;stroke:#231f20;stroke-width:0.5;stroke-linecap:round;stroke-linejoin:round;stroke-miterlimit:4;stroke-dasharray:2.8, 1.8;stroke-dashoffset:0;stroke-opacity:1"
       id="path934" />
    <path
       d="m 427.518,604.574 c -0.803,-3.966 -0.803,-10.003 6.277,-13.833"
       style="fill:none;stroke:#231f20;stroke-width:0.5;stroke-linecap:round;stroke-linejoin:round;stroke-miterlimit:4;stroke-dasharray:2.8, 1.8;stroke-dashoffset:0;stroke-opacity:1"
       id="path936" />
    <path
       d="m 423.234,604.09 c -2.09,-2.786 -6.073,-5.109 -23.484,-2.554"
       style="fill:none;stroke:#231f20;stroke-width:0.5;stroke-linecap:round;stroke-linejoin:round;stroke-miterlimit:4;stroke-dasharray:2.8, 1.8;stroke-dashoffset:0;stroke-opacity:1"
       id="path938" />
    <path
       d="m 414.876,617.322 c -2.786,0.231 -6.037,0.928 -8.126,-2.554 -2.088,-3.482 -4.676,-10.877 1.377,-14.144"
       style="fill:none;stroke:#231f20;stroke-width:0.5;stroke-linecap:round;stroke-linejoin:round;stroke-miterlimit:4;stroke-dasharray:2.8, 1.8;stroke-dashoffset:0;stroke-opacity:1"
       id="path940" />
    <path
       d="m 379.491,620.918 c -1.855,-0.721 -4.546,-1.837 -6.401,-2.668 -6.732,-3.018 -14.858,-6.268 -19.964,-7.661 -5.107,-1.393 -19.5,-6.732 -25.072,-15.552"
       style="fill:none;stroke:#231f20;stroke-width:0.5;stroke-linecap:round;stroke-linejoin:round;stroke-miterlimit:4;stroke-dasharray:2.8, 1.8;stroke-dashoffset:0;stroke-opacity:1"
       id="path942" />
    <path
       d="m 408.939,616.915 c -2.42,2.728 -8.919,7.37 -15.652,7.138"
       style="fill:none;stroke:#231f20;stroke-width:0.5;stroke-linecap:round;stroke-linejoin:round;stroke-miterlimit:4;stroke-dasharray:2.8, 1.8;stroke-dashoffset:0;stroke-opacity:1"
       id="path944" />
    <path
       d="m 360.168,623.672 c -1.575,0.647 -3.016,1.395 -4.257,2.239 -5.802,3.946 -9.75,6.964 -11.839,10.214 -2.089,3.249 -3.017,7.428 -6.035,8.589"
       style="fill:none;stroke:#231f20;stroke-width:0.5;stroke-linecap:round;stroke-linejoin:round;stroke-miterlimit:4;stroke-dasharray:2.8, 1.8;stroke-dashoffset:0;stroke-opacity:1"
       id="path946" />
    <path
       d="m 367.287,647.964 c -3.019,-2.089 -14.725,-9.175 -29.25,-3.25"
       style="fill:none;stroke:#231f20;stroke-width:0.5;stroke-linecap:round;stroke-linejoin:round;stroke-miterlimit:4;stroke-dasharray:2.8, 1.8;stroke-dashoffset:0;stroke-opacity:1"
       id="path948" />
    <path
       d="m 371.663,590.624 c -7.43,-0.232 -21.092,-1.624 -32.466,-6.5 -11.374,-4.874 -20.659,-15.785 -28.089,-26.463 -7.429,-10.68 -13.482,-28.18 -14.286,-37.189"
       style="fill:none;stroke:#231f20;stroke-width:0.5;stroke-linecap:round;stroke-linejoin:round;stroke-miterlimit:4;stroke-dasharray:2.8, 1.8;stroke-dashoffset:0;stroke-opacity:1"
       id="path950" />
    <path
       d="m 372.532,587.607 c -8.59,-0.928 -24.977,-2.555 -39.834,-13.465 -14.858,-10.91 -28.766,-31.1 -33.883,-59.192"
       style="fill:none;stroke:#231f20;stroke-width:0.5;stroke-linecap:round;stroke-linejoin:round;stroke-miterlimit:4;stroke-dasharray:2.8, 1.8;stroke-dashoffset:0;stroke-opacity:1"
       id="path952" />
    <path
       d="m 383.232,596.072 c 1.162,2.552 5.179,7.552 10.982,6.856 5.805,-0.696 9.286,-2.786 9.52,-7.661 0.211,-4.43 0.421,-6.77 -7.198,-8.117"
       style="fill:none;stroke:#231f20;stroke-width:0.5;stroke-linecap:round;stroke-linejoin:round;stroke-miterlimit:4;stroke-dasharray:2.8, 1.8;stroke-dashoffset:0;stroke-opacity:1"
       id="path954" />
    <path
       d="m 372.394,595.267 c -0.929,-1.393 -2.306,-8.19 4.193,-11.44"
       style="fill:none;stroke:#231f20;stroke-width:0.5;stroke-linecap:round;stroke-linejoin:round;stroke-miterlimit:4;stroke-dasharray:2.8, 1.8;stroke-dashoffset:0;stroke-opacity:1"
       id="path956" />
    <path
       d="m 441.34,661.197 c -3.251,3.249 -11.101,7.077 -21.316,5.047"
       style="fill:none;stroke:#231f20;stroke-width:0.5;stroke-linecap:round;stroke-linejoin:round;stroke-miterlimit:4;stroke-dasharray:2.8, 1.8;stroke-dashoffset:0;stroke-opacity:1"
       id="path958" />
    <path
       d="m 730.628,591.325 c 15.554,-2.323 21.321,3.712 21.321,3.712 3.947,-1.626 8.82,-1.627 11.839,0.927 3.018,2.554 2.32,14.625 1.856,23.214 -0.464,8.589 0.464,15.322 -8.356,21.358 -8.822,6.036 -15.322,4.178 -15.322,4.178 -13,11.607 -18.107,11.839 -23.214,9.982 -5.109,-1.858 -6.037,-6.732 -6.037,-6.732 -0.928,0 -2.785,-0.696 -4.177,1.16 -1.394,1.857 -9.054,7.429 -15.323,9.75 -6.267,2.322 -22.749,5.572 -28.089,6.037 -5.34,0.464 -5.802,1.857 -6.732,3.017 -0.929,1.16 -7.66,8.822 -12.071,8.358 -4.411,-0.465 -9.518,-5.804 -7.661,-15.089 1.856,-9.286 9.039,-24.142 13.928,-30.411 4.89,-6.27 12.536,-13.464 12.536,-13.464 -13.232,-2.322 -8.357,-13.232 -8.357,-13.232 -6.733,-1.626 -9.981,7.427 -12.767,12.998 -2.786,5.573 -6.037,13.465 -7.661,19.967 -1.138,4.556 -2.322,11.838 -4.178,12.069 -1.857,0.233 -2.787,-6.5 -3.251,-9.75 -0.465,-3.25 -1.624,-6.731 -3.483,-6.731 -1.857,0 -2.553,3.249 -3.481,6.268 -0.93,3.018 -0.698,7.427 -0.232,10.446 0.465,3.018 4.41,11.375 5.803,14.625 1.393,3.251 4.644,8.589 2.321,11.143 -2.321,2.554 -12.535,-2.786 -16.946,-4.411 -4.411,-1.626 -10.678,-5.803 -14.16,-8.821 -3.482,-3.018 -9.75,-9.982 -12.072,-12.769 -2.322,-2.786 -11.607,-14.856 -16.25,-21.821 -4.644,-6.964 -1.147,-12.053 1.842,-15.107 1.626,-1.625 9.069,-9.964 13.944,-11.822"
       style="fill:none;stroke:#231f20;stroke-width:0.5;stroke-linecap:round;stroke-linejoin:round;stroke-miterlimit:4;stroke-dasharray:2.8, 1.8;stroke-dashoffset:0;stroke-opacity:1"
       id="path960" />
    <path
       d="m 372.373,580.461 c 3.503,2.736 13.485,10.395 12.789,14.11 -0.463,2.468 -4.876,1.393 -9.518,1.162 -3.278,-0.165 -9.759,-1.075 -13.929,-1.627 -3.295,-0.436 -10.445,-2.089 -19.964,-5.106 -9.518,-3.017 -18.107,-6.5 -24.375,-9.75"
       style="fill:none;stroke:#231f20;stroke-width:0.5;stroke-linecap:round;stroke-linejoin:round;stroke-miterlimit:4;stroke-dasharray:2.8, 1.8;stroke-dashoffset:0;stroke-opacity:1"
       id="path962" />
    <path
       d="m 707.63,580.461 c -3.504,2.736 -13.485,10.395 -12.789,14.11 0.462,2.468 4.875,1.393 9.518,1.162 3.278,-0.165 9.758,-1.075 13.929,-1.627 3.294,-0.436 10.444,-2.089 19.964,-5.106 9.518,-3.017 18.106,-6.5 24.374,-9.75"
       style="fill:none;stroke:#231f20;stroke-width:0.5;stroke-linecap:round;stroke-linejoin:round;stroke-miterlimit:4;stroke-dasharray:2.8, 1.8;stroke-dashoffset:0;stroke-opacity:1"
       id="path964" />
    <path
       d="m 783.055,626.607 c 0.87,1.219 2.032,2.901 3.019,2.321 1.166,-0.686 0.696,-1.857 -1.393,-4.875 -2.09,-3.017 -5.108,-9.053 -5.108,-14.392 0,-5.34 1.741,-11.956 7.661,-12.536 5.12,-0.502 7.312,0.406 10.272,3.366 3.326,3.327 4.179,5.862 4.353,10.795 0.214,6.031 -0.001,7.428 2.553,12.303 2.554,4.875 7.661,10.911 12.536,15.089 4.875,4.179 12.536,6.965 16.017,7.894 3.483,0.928 10.678,3.249 15.322,7.196 4.644,3.946 9.287,6.964 12.768,5.571 3.483,-1.393 5.107,-4.411 3.25,-10.215 -1.856,-5.803 -2.786,-11.606 -6.731,-16.481 -3.947,-4.875 -13.697,-9.982 -19.268,-12.304 -5.572,-2.321 -15.323,-7.892 -15.091,-12.767 0.233,-4.875 7.43,-9.75 16.948,-9.75 9.517,0 24.839,-0.234 37.607,0.928 12.768,1.162 19.325,1.741 29.018,4.643 9.918,2.97 17.294,6.5 21.125,7.428 3.414,0.828 9.286,0.929 10.446,-1.16 1.16,-2.089 0.002,-8.822 -5.339,-13 -5.34,-4.179 -14.857,-9.054 -23.215,-9.054 -8.356,0 -17.409,1.161 -18.57,-2.786 -1.162,-3.947 0,-7.662 10.91,-10.679 10.91,-3.017 19.498,-4.41 26.231,-3.946 6.734,0.464 18.804,5.571 22.287,10.216 3.481,4.64 4.875,10.677 6.963,15.087 2.09,4.413 9.109,8.534 13.465,1.162 3.019,-5.107 3.948,-15.555 4.179,-19.5 0.232,-3.947 -0.232,-9.75 -6.268,-10.447 -6.036,-0.697 -16.946,-4.877 -19.963,-7.197 -3.019,-2.32 -3.717,-7.197 0.927,-8.357 4.644,-1.16 11.027,-1.16 13.116,-1.857 2.089,-0.696 5.572,-2.786 4.527,-8.705 -1.044,-5.92 -1.741,-13.929 -11.143,-16.715 -9.401,-2.785 -14.973,-5.222 -19.5,-8.009 -4.526,-2.786 -14.973,-6.616 -25.767,-0.696 -10.795,5.92 -5.573,17.41 2.089,20.196 7.661,2.787 18.945,4.519 19.152,9.054 0.174,3.83 -15.67,6.79 -22.635,8.358 -6.347,1.427 -15.669,1.741 -18.803,8.008 0,0 -7.313,-1.392 -13.928,1.045 -6.616,2.438 -18.108,7.661 -29.948,9.402 -11.838,1.741 -26.812,3.83 -29.946,3.83 -3.134,0 -17.544,-5.16 -23.919,-5.54"
       style="fill:none;stroke:#231f20;stroke-width:0.75;stroke-linecap:round;stroke-linejoin:round;stroke-miterlimit:4;stroke-dasharray:0, 2;stroke-dashoffset:0;stroke-opacity:1"
       id="path966" />
    <path
       d="m 505.829,603.777 c 15.041,-4.724 30.225,-4.331 34.173,-4.331 3.947,0 19.13,-0.393 34.172,4.331"
       style="fill:none;stroke:#231f20;stroke-width:0.75;stroke-linecap:round;stroke-linejoin:round;stroke-miterlimit:4;stroke-dasharray:0, 2;stroke-dashoffset:0;stroke-opacity:1"
       id="path968" />
    <path
       d="m 540.002,634.268 c -17.759,0 -24.028,5.919 -25.072,16.365 -1.045,10.448 18.803,10.448 25.072,10.448 6.267,0 26.116,0 25.071,-10.448 -1.045,-10.446 -7.313,-16.365 -25.071,-16.365 z"
       style="fill:none;stroke:#231f20;stroke-width:0.75;stroke-linecap:round;stroke-linejoin:round;stroke-miterlimit:4;stroke-dasharray:0, 2;stroke-dashoffset:3.75;stroke-opacity:1"
       id="path970" />
    <path
       d="m 540.002,730.839 c -6.733,0 -24.84,-1.392 -35.055,-2.785 -10.214,-1.393 -14.393,-4.643 -21.821,-15.322 -7.427,-10.678 -22.75,-12.071 -32.5,-10.214 -9.75,1.857 -16.25,-3.715 -30.178,-4.644 -13.929,-0.928 -12.536,17.179 -13.001,24.608 -0.465,7.43 7.893,12.071 12.536,15.322 4.643,3.25 8.356,12.999 7.43,22.749 -0.928,9.75 -4.179,33.894 -5.573,43.179 -1.392,9.285 11.608,23.215 17.179,30.179 5.571,6.964 10.214,14.392 20.429,17.643 10.216,3.25 28.321,3.714 41.786,2.785 13.465,-0.927 29.714,-1.392 38.768,-1.392 9.053,0 25.302,0.465 38.767,1.392 13.465,0.929 31.57,0.465 41.785,-2.785 10.216,-3.251 14.858,-10.679 20.43,-17.643 5.571,-6.964 18.57,-20.894 17.178,-30.179 -1.393,-9.285 -4.644,-33.429 -5.572,-43.179 -0.927,-9.75 2.787,-19.499 7.43,-22.749 4.643,-3.251 13.001,-7.892 12.535,-15.322 -0.465,-7.429 0.928,-25.536 -13.001,-24.608 -13.928,0.929 -20.428,6.501 -30.178,4.644 -9.75,-1.857 -25.072,-0.464 -32.5,10.214 -7.428,10.679 -11.607,13.929 -21.821,15.322 -10.214,1.393 -28.321,2.785 -35.053,2.785 z"
       style="fill:none;stroke:#231f20;stroke-width:0.75;stroke-linecap:round;stroke-linejoin:round;stroke-miterlimit:4;stroke-dasharray:0, 2;stroke-dashoffset:0;stroke-opacity:1"
       id="path972" />
    <path
       d="m 222.011,670.729 c -4.363,4.426 -11.422,14.61 -14.671,24.36 -3.25,9.75 -2.322,24.143 0.928,32.5 3.249,8.358 10.679,3.25 14.394,-5.571 3.714,-8.822 2.32,-22.751 10.677,-38.536 8.358,-15.785 25.537,-14.858 37.144,-10.214 11.606,4.643 10.679,16.249 10.679,25.999 0,9.75 -8.823,19.965 -17.18,25.536 -8.356,5.571 -7.892,12.071 -7.892,17.179 0,5.108 -1.858,8.821 -3.251,10.679 -1.392,1.857 -3.249,8.357 -8.357,6.5 -5.107,-1.858 -7.428,-1.857 -12.07,3.25 -4.643,5.107 6.035,21.821 16.714,29.714 10.679,7.894 19.5,19.036 30.178,24.143 10.678,5.106 12.072,-1.394 12.072,-6.035 0,-4.643 0,-22.751 2.786,-51.072 2.785,-28.323 16.714,-41.787 31.106,-52.929 14.393,-11.143 18.108,-8.821 29.25,-3.25 11.143,5.572 19.5,20.893 22.751,40.393 3.251,19.5 -10.215,31.107 -17.643,35.75 -7.428,4.643 -16.25,14.393 -16.714,26.464 -0.464,12.072 -5.108,14.394 -10.679,19.035 -5.572,4.643 -1.857,10.68 2.785,15.787 4.643,5.107 19.5,8.822 27.858,9.286 8.357,0.464 7.429,-4.179 6.5,-7.893 -0.929,-3.715 -4.642,-12.536 2.786,-19.965 9.296,-9.297 17.177,-3.25 26.464,1.858 9.286,5.106 11.143,20.892 13,25.071 1.856,4.179 4.643,15.786 21.358,23.214 16.714,7.429 27.392,7.429 36.678,7.429 9.286,0 55.25,3.251 70.34,3.251 15.089,0 61.052,-3.251 70.338,-3.251 9.286,0 19.964,0 36.679,-7.429 16.714,-7.428 19.501,-19.035 21.357,-23.214 1.858,-4.179 3.714,-19.965 13,-25.071 9.287,-5.108 17.168,-11.155 26.464,-1.858 7.429,7.429 3.715,16.25 2.786,19.965 -0.928,3.714 -1.856,8.357 6.501,7.893 8.357,-0.464 23.214,-4.179 27.857,-9.286 4.642,-5.107 8.357,-11.144 2.786,-15.787 -5.571,-4.641 -10.215,-6.963 -10.679,-19.035 -0.464,-12.071 -9.287,-21.821 -16.715,-26.464 -7.427,-4.643 -20.894,-16.25 -17.643,-35.75 3.251,-19.5 11.608,-34.821 22.751,-40.393 11.143,-5.571 14.857,-7.893 29.25,3.25 14.392,11.142 28.321,24.606 31.107,52.929 2.785,28.321 2.785,46.429 2.785,51.072 0,4.641 1.395,11.141 12.073,6.035 10.677,-5.107 19.499,-16.249 30.177,-24.143 10.679,-7.893 21.357,-24.607 16.714,-29.714 -4.642,-5.107 -6.963,-5.108 -12.07,-3.25 -5.107,1.857 -6.964,-4.643 -8.357,-6.5 -1.393,-1.858 -3.251,-5.571 -3.251,-10.679 0,-5.108 0.465,-11.608 -7.892,-17.179 -8.357,-5.571 -17.18,-15.786 -17.18,-25.536 0,-9.75 -0.927,-21.356 10.68,-25.999 11.606,-4.644 28.786,-5.571 37.143,10.214 8.357,15.785 6.963,29.714 10.677,38.536 3.715,8.821 11.145,13.929 14.395,5.571 3.249,-8.357 4.177,-22.75 0.928,-32.5 -3.25,-9.75 -10.309,-19.934 -14.672,-24.36"
       style="fill:none;stroke:#231f20;stroke-width:0.75;stroke-linecap:round;stroke-linejoin:round;stroke-miterlimit:4;stroke-dasharray:0, 2;stroke-dashoffset:0;stroke-opacity:1"
       id="path974" />
    <path
       d="m 296.947,626.607 c -0.87,1.219 -2.032,2.901 -3.018,2.321 -1.166,-0.686 -0.697,-1.857 1.393,-4.875 2.089,-3.017 5.107,-9.053 5.107,-14.392 0,-5.34 -1.741,-11.956 -7.661,-12.536 -5.119,-0.502 -7.312,0.406 -10.271,3.366 -3.327,3.327 -4.179,5.862 -4.354,10.795 -0.213,6.031 0.002,7.428 -2.553,12.303 -2.554,4.875 -7.661,10.911 -12.536,15.089 -4.875,4.179 -12.535,6.965 -16.017,7.894 -3.483,0.928 -10.678,3.249 -15.322,7.196 -4.643,3.946 -9.286,6.964 -12.768,5.571 -3.483,-1.393 -5.107,-4.411 -3.249,-10.215 1.856,-5.803 2.785,-11.606 6.731,-16.481 3.947,-4.875 13.697,-9.982 19.268,-12.304 5.571,-2.321 15.322,-7.892 15.09,-12.767 -0.233,-4.875 -7.43,-9.75 -16.947,-9.75 -9.517,0 -24.839,-0.234 -37.607,0.928 -12.769,1.162 -19.326,1.741 -29.018,4.643 -9.919,2.97 -17.295,6.5 -21.126,7.428 -3.414,0.828 -9.286,0.929 -10.446,-1.16 -1.16,-2.089 -0.001,-8.822 5.339,-13 5.341,-4.179 14.857,-9.054 23.215,-9.054 8.357,0 17.409,1.161 18.571,-2.786 1.161,-3.947 0,-7.662 -10.91,-10.679 -10.91,-3.017 -19.499,-4.41 -26.232,-3.946 -6.733,0.464 -18.804,5.571 -22.286,10.216 -3.482,4.64 -4.875,10.677 -6.964,15.087 -2.089,4.413 -9.108,8.534 -13.465,1.162 -3.018,-5.107 -3.948,-15.555 -4.178,-19.5 -0.232,-3.947 0.232,-9.75 6.267,-10.447 6.036,-0.697 16.946,-4.877 19.964,-7.197 3.019,-2.32 3.716,-7.197 -0.927,-8.357 -4.644,-1.16 -11.028,-1.16 -13.117,-1.857 -2.089,-0.696 -5.572,-2.786 -4.527,-8.705 1.045,-5.92 1.741,-13.929 11.143,-16.715 9.402,-2.785 14.973,-5.222 19.5,-8.009 4.527,-2.786 14.973,-6.616 25.768,-0.696 10.795,5.92 5.572,17.41 -2.09,20.196 -7.66,2.787 -18.944,4.519 -19.151,9.054 -0.174,3.83 15.67,6.79 22.634,8.358 6.346,1.427 15.67,1.741 18.803,8.008 0,0 7.313,-1.392 13.929,1.045 6.616,2.438 18.108,7.661 29.947,9.402 11.839,1.741 26.812,3.83 29.946,3.83 3.134,0 17.544,-5.16 23.92,-5.54"
       style="fill:none;stroke:#231f20;stroke-width:0.75;stroke-linecap:round;stroke-linejoin:round;stroke-miterlimit:4;stroke-dasharray:0, 2;stroke-dashoffset:0;stroke-opacity:1"
       id="path976" />
  </g>
</svg>
