<?xml version="1.0" encoding="UTF-8" standalone="no"?>
<!-- Created with Inkscape (http://www.inkscape.org/) -->

<svg
   version="1.1"
   id="svg2"
   width="1440"
   height="1344"
   viewBox="0 0 1440 1344"
   xmlns="http://www.w3.org/2000/svg"
   xmlns:svg="http://www.w3.org/2000/svg">
  <defs
     id="defs6" />
  <g
     id="g8">
    <path
       d="m 211.259,596.678 c 0,-1.924 1.988,-4.218 4.439,-5.124 2.449,-0.907 4.436,-0.084 4.436,1.839 0,1.924 -1.987,4.218 -4.436,5.125 -2.451,0.906 -4.439,0.083 -4.439,-1.84"
       style="fill:#ffffff;fill-opacity:1;fill-rule:nonzero;stroke:none;stroke-width:0.1"
       id="path668" />
    <path
       d="m 211.259,596.678 c 0,-1.924 1.988,-4.218 4.439,-5.124 2.449,-0.907 4.436,-0.084 4.436,1.839 0,1.924 -1.987,4.218 -4.436,5.125 -2.451,0.906 -4.439,0.083 -4.439,-1.84 z"
       style="fill:none;stroke:#231f20;stroke-width:0.5;stroke-linecap:round;stroke-linejoin:round;stroke-miterlimit:4;stroke-dasharray:none;stroke-opacity:1"
       id="path670" />
    <path
       d="m 868.744,596.678 c 0,-1.924 -1.988,-4.218 -4.439,-5.124 -2.45,-0.907 -4.437,-0.084 -4.437,1.839 0,1.924 1.987,4.218 4.437,5.125 2.451,0.906 4.439,0.083 4.439,-1.84"
       style="fill:#ffffff;fill-opacity:1;fill-rule:nonzero;stroke:none;stroke-width:0.1"
       id="path672" />
    <path
       d="m 868.744,596.678 c 0,-1.924 -1.988,-4.218 -4.439,-5.124 -2.45,-0.907 -4.437,-0.084 -4.437,1.839 0,1.924 1.987,4.218 4.437,5.125 2.451,0.906 4.439,0.083 4.439,-1.84 z"
       style="fill:none;stroke:#231f20;stroke-width:0.5;stroke-linecap:round;stroke-linejoin:round;stroke-miterlimit:4;stroke-dasharray:none;stroke-opacity:1"
       id="path674" />
    <path
       d="m 540.002,352.91 c -6.617,0 -8.692,-4.155 -10.447,-8.009 -2.316,-5.09 -4.527,-9.054 -13.929,-14.277 -14.99,-8.327 -40.741,0.697 -47.009,2.786 -6.268,2.09 -21.241,5.92 -37.607,11.84 -16.366,5.918 -40.741,16.017 -63.375,30.991 -22.635,14.972 -40.393,31.339 -47.009,44.571 -6.617,13.232 -6.617,41.089 -6.964,71.384 -0.349,30.295 5.222,33.777 5.222,33.777 -16.714,-17.062 -23.678,5.919 -23.678,18.804 0,12.884 10.794,16.017 10.794,16.017 -10.446,-1.044 -18.462,1.681 -42.133,3.134 -29.198,1.79 -86.358,-18.107 -86.358,-18.107 14.974,-9.054 15.322,-19.152 13.233,-29.947 -2.09,-10.794 -21.242,-14.276 -28.205,-12.187 -6.965,2.089 -19.153,8.357 -32.037,11.143 -12.883,2.786 -21.241,5.571 -23.678,16.714 -2.438,11.143 10.795,24.375 10.795,24.375 -15.322,-2.437 -17.063,12.188 -14.974,17.063 2.09,4.875 5.571,11.142 8.009,16.714 2.437,5.571 3.482,8.706 10.795,15.67 7.312,6.965 16.017,-1.742 16.017,-1.742 -3.133,10.099 0.349,18.804 7.662,22.287 7.312,3.482 20.196,-2.09 33.428,-7.313 13.233,-5.224 18.108,-10.098 25.42,-17.759 7.313,-7.661 13.58,-11.143 16.018,-8.357 2.437,2.785 -11.143,10.446 -18.108,19.151 -6.964,8.706 -4.875,23.331 -3.134,30.644 1.742,7.312 7.662,7.66 7.662,7.66 -1.394,0.696 -5.573,2.09 -6.617,3.831 -1.045,1.74 -1.393,8.356 0,15.669 1.393,7.313 -0.348,17.76 -2.437,28.206 -2.09,10.446 -2.438,33.08 6.964,54.67 9.402,21.589 20.545,30.643 25.071,34.473 4.527,3.83 8.357,-1.045 8.357,-1.045 -3.133,2.09 -1.044,8.357 1.393,12.187 2.438,3.831 18.456,19.153 32.036,27.51 13.58,8.356 31.442,16.444 44.92,18.804 13.929,2.437 23.679,-10.795 23.679,-10.795 -3.483,7.312 1.392,13.58 13.58,19.151 12.187,5.571 24.027,7.313 32.384,7.661 8.357,0.348 14.973,-1.045 20.545,-6.267 5.571,-5.224 8.008,-2.09 8.705,0.347 0.696,2.438 1.741,8.009 5.571,10.447 3.831,2.437 29.599,12.187 51.188,16.018 21.589,3.83 56.063,4.527 68.251,4.527 12.187,0 46.66,-0.697 68.25,-4.527 21.588,-3.831 47.357,-13.581 51.187,-16.018 3.83,-2.438 4.875,-8.009 5.571,-10.447 0.697,-2.437 3.134,-5.571 8.705,-0.347 5.573,5.222 12.188,6.615 20.545,6.267 8.358,-0.348 20.197,-2.09 32.384,-7.661 12.188,-5.571 17.063,-11.839 13.581,-19.151 0,0 9.75,13.232 23.679,10.795 13.477,-2.36 31.339,-10.448 44.919,-18.804 13.581,-8.357 29.598,-23.679 32.036,-27.51 2.437,-3.83 4.526,-10.097 1.393,-12.187 0,0 3.83,4.875 8.357,1.045 4.527,-3.83 15.67,-12.884 25.071,-34.473 9.402,-21.59 9.054,-44.224 6.965,-54.67 -2.09,-10.446 -3.831,-20.893 -2.437,-28.206 1.392,-7.313 1.044,-13.929 0,-15.669 -1.045,-1.741 -5.224,-3.135 -6.617,-3.831 0,0 5.92,-0.348 7.661,-7.66 1.741,-7.313 3.83,-21.938 -3.134,-30.644 -6.964,-8.705 -20.544,-16.366 -18.107,-19.151 2.438,-2.786 8.705,0.696 16.018,8.357 7.312,7.661 12.187,12.535 25.42,17.759 13.231,5.223 26.116,10.795 33.428,7.313 7.313,-3.483 10.794,-12.188 7.661,-22.287 0,0 8.705,8.707 16.017,1.742 7.313,-6.964 8.358,-10.099 10.795,-15.67 2.438,-5.572 5.92,-11.839 8.009,-16.714 2.09,-4.875 0.349,-19.5 -14.973,-17.063 0,0 13.232,-13.232 10.794,-24.375 -2.437,-11.143 -10.794,-13.928 -23.678,-16.714 -12.884,-2.786 -25.072,-9.054 -32.036,-11.143 -6.964,-2.089 -26.116,1.393 -28.205,12.187 -2.09,10.795 -1.741,20.893 13.232,29.947 0,0 -57.161,19.897 -86.358,18.107 -23.67,-1.451 -31.687,-4.178 -42.133,-3.134 0,0 10.794,-3.133 10.794,-16.017 0,-12.885 -6.964,-35.866 -23.678,-18.804 0,0 5.571,-3.482 5.223,-33.777 -0.348,-30.295 -0.348,-58.152 -6.965,-71.384 -6.616,-13.232 -24.374,-29.599 -47.008,-44.571 -22.634,-14.974 -47.009,-25.073 -63.375,-30.991 -16.367,-5.92 -31.34,-9.75 -37.608,-11.84 -6.267,-2.089 -32.019,-11.113 -47.009,-2.786 -9.402,5.223 -11.612,9.188 -13.928,14.277 -1.755,3.854 -3.83,8.009 -10.446,8.009"
       style="fill:#ffffff;fill-opacity:1;fill-rule:nonzero;stroke:none;stroke-width:0.1"
       id="path676" />
    <path
       d="m 588.055,614.303 c -2.786,6.5 -13.929,0.929 -19.5,-1.392 -5.572,-2.323 -20.428,-2.787 -28.553,-2.787 -8.126,0 -22.983,0.464 -28.554,2.787 -5.572,2.321 -16.715,7.892 -19.5,1.392 5.107,-1.857 -0.464,-9.286 -3.715,-12.999 -3.251,-3.715 -1.393,-5.571 0.929,-8.822 2.322,-3.251 6.035,-5.571 12.536,-5.107 6.5,0.464 29.25,2.787 38.304,2.787 9.053,0 31.802,-2.323 38.303,-2.787 6.5,-0.464 10.214,1.856 12.535,5.107 2.323,3.251 4.181,5.107 0.93,8.822 -3.251,3.713 -8.823,11.142 -3.715,12.999"
       style="fill:#d3d2d2;fill-opacity:1;fill-rule:nonzero;stroke:none;stroke-width:0.1"
       id="path678" />
    <path
       d="m 637.734,807.911 c -3.249,10.213 -15.786,6.963 -22.751,6.5 -6.964,-0.464 -63.143,-4.178 -74.981,-4.178 -11.84,0 -68.018,3.714 -74.983,4.178 -6.964,0.463 -19.501,3.713 -22.751,-6.5 -3.249,-10.214 -8.355,-39.929 -7.892,-53.858 0.464,-13.929 -1.392,-33.892 26.464,-62.679 27.858,-28.785 65.001,-33.421 79.162,-33.421 14.159,0 51.302,4.636 79.16,33.421 27.857,28.787 26,48.75 26.464,62.679 0.463,13.929 -4.642,43.644 -7.892,53.858 z m -97.732,-12.072 c 8.125,0 41.552,3.714 41.552,-1.857 0,-5.571 -7.428,-13.929 -16.25,-15.321 -8.82,-1.393 -22.748,-2.787 -25.302,-2.787 -2.555,0 -16.484,1.394 -25.303,2.787 -8.823,1.392 -16.251,9.75 -16.251,15.321 0,5.571 33.428,1.857 41.554,1.857 z m 97.267,-52 c -2.786,-10.214 -21.821,-52.928 -46.429,-67.321 -23.126,-13.526 -39,-11.607 -50.838,-11.607 -11.84,0 -27.713,-1.919 -50.84,11.607 -24.608,14.393 -43.643,57.107 -46.428,67.321 -2.786,10.214 6.035,10.679 12.07,6.964 6.035,-3.715 14.858,-12.071 20.429,-18.107 5.571,-6.035 18.571,-18.571 25.535,-12.535 7.939,6.879 0.93,9.286 -4.178,19.963 -5.108,10.679 8.823,9.287 14.858,6.5 6.035,-2.785 21.357,-6.963 28.554,-6.963 7.195,0 22.518,4.178 28.553,6.963 6.035,2.787 19.965,4.179 14.858,-6.5 -5.108,-10.677 -12.118,-13.084 -4.179,-19.963 6.964,-6.036 19.964,6.5 25.535,12.535 5.571,6.036 14.394,14.392 20.429,18.107 6.036,3.715 14.856,3.25 12.071,-6.964"
       style="fill:#d3d2d2;fill-opacity:1;fill-rule:nonzero;stroke:none;stroke-width:0.1"
       id="path680" />
    <path
       d="m 935.225,558.357 c 1.443,2.884 12.665,15.786 16.485,20.141 -5.576,-5.519 -20.266,-11.34 -27.628,-14.221 -8.008,-3.135 -21.937,3.481 -26.812,5.571 -4.875,2.089 -11.84,4.179 -12.536,6.964 -0.696,2.786 0.696,8.357 5.224,12.884 4.526,4.527 10.446,4.178 13.928,5.223 3.482,1.045 8.705,4.179 11.143,5.572 2.437,1.392 5.223,2.786 2.437,2.786 -2.786,0 -16.017,-2.09 -18.803,-2.438 -2.787,-0.348 -7.081,-4.084 -10.099,-6.616 -4.142,-3.475 -9.401,-7.312 -10.794,-8.009 -1.394,-0.697 -5.397,-1.218 -8.531,-1.567 -3.134,-0.349 -16.889,-1.915 -28.38,-1.915 -11.491,0 -14.277,0 -16.714,2.785 -2.437,2.786 2.437,8.706 7.66,14.277 5.224,5.572 14.539,13.299 18.343,17.503 2.205,2.438 -0.003,3.39 -2.786,1.393 -1.898,-1.362 -16.949,-12.628 -23.914,-20.637 -6.964,-8.009 -14.277,-17.411 -18.107,-21.937 -3.831,-4.527 -8.357,-9.054 -11.839,-10.099 -3.482,-1.044 -14.277,0 -23.331,1.045 -9.053,1.045 -12.536,6.268 -17.411,11.84 -4.875,5.571 -2.785,10.098 -0.347,13.231 2.437,3.134 10.794,5.92 18.455,8.358 7.661,2.437 16.366,8.705 20.196,10.795 3.831,2.088 14.741,7.312 18.92,9.053 -42.251,0 -87.751,30.178 -95.179,41.322 -7.428,11.142 -6.035,15.786 2.322,23.214 8.357,7.429 27.857,12.536 42.713,16.249 14.857,3.715 30.643,0.929 49.216,-9.75 18.572,-10.677 29.714,-16.713 36.678,-18.106 6.964,-1.394 8.357,-6.5 11.142,-11.607 5.987,-10.976 5.573,0.928 3.715,10.213 -1.856,9.287 -1.67,18.905 0.464,31.108 2.264,12.942 -0.929,36.679 -0.929,36.679 0,0 -0.29,-9.112 -2.32,-28.322 -2.007,-18.98 -16.251,-21.822 -26.93,-19.5 -10.678,2.323 -29.25,9.75 -42.713,23.214 -13.463,13.465 -13.465,33.429 -13.001,46.429 0.464,13.001 4.13,27.869 6.964,39.001 2.497,9.808 -6.383,8.589 -7.428,0.928 -0.701,-5.143 -2.785,-19.5 -9.75,-37.608 -6.964,-18.106 -11.607,-25.999 -32.499,-38.071 -20.894,-12.072 -33.895,-11.143 -56.644,10.215 -22.75,21.357 -22.286,50.607 -21.822,54.321 0.464,3.714 0,15.786 9.286,19.5 9.286,3.714 23.969,12.826 26.29,15.148 2.322,2.321 0.033,4.542 -2.289,2.221 -2.321,-2.321 -12.857,-8.548 -21.215,-10.869 -8.357,-2.322 -12.072,0.929 -13.929,4.179 -1.856,3.249 -5.107,9.286 -12.536,10.678 -7.427,1.393 -19.5,0 -40.392,-2.786 -20.893,-2.785 -48.75,-4.642 -59.196,-4.642 -10.447,0 -38.304,1.857 -59.198,4.642 -20.892,2.786 -32.965,4.179 -40.392,2.786 -7.428,-1.392 -10.679,-7.429 -12.536,-10.678 -1.857,-3.25 -5.572,-6.501 -13.928,-4.179 -8.358,2.321 -18.894,8.548 -21.216,10.869 -2.321,2.321 -4.611,0.1 -2.289,-2.221 2.322,-2.322 17.004,-11.434 26.29,-15.148 9.286,-3.714 8.822,-15.786 9.286,-19.5 0.464,-3.714 0.928,-32.964 -21.821,-54.321 -22.75,-21.358 -35.751,-22.287 -56.644,-10.215 -20.893,12.072 -25.535,19.965 -32.5,38.071 -6.964,18.108 -9.048,32.465 -9.75,37.608 -1.045,7.661 -9.924,8.88 -7.428,-0.928 2.834,-11.132 6.5,-26 6.964,-39.001 0.464,-13 0.463,-32.964 -13.001,-46.429 -13.463,-13.464 -32.034,-20.891 -42.713,-23.214 -10.679,-2.322 -24.923,0.52 -26.929,19.5 -2.031,19.21 -2.321,28.322 -2.321,28.322 0,0 -3.193,-23.737 -0.929,-36.679 2.135,-12.203 2.32,-21.821 0.464,-31.108 -1.857,-9.285 -2.272,-21.189 3.715,-10.213 2.786,5.107 4.178,10.213 11.142,11.607 6.965,1.393 18.107,7.429 36.679,18.106 18.572,10.679 34.358,13.465 49.215,9.75 14.856,-3.713 34.356,-8.82 42.714,-16.249 8.357,-7.428 9.75,-12.072 2.321,-23.214 -7.428,-11.144 -52.927,-41.322 -95.178,-41.322 4.179,-1.741 15.089,-6.965 18.919,-9.053 3.83,-2.09 12.536,-8.358 20.196,-10.795 7.661,-2.438 16.019,-5.224 18.456,-8.358 2.438,-3.133 4.527,-7.66 -0.348,-13.231 -4.875,-5.572 -8.358,-10.795 -17.41,-11.84 -9.054,-1.045 -19.849,-2.089 -23.332,-1.045 -3.482,1.045 -8.008,5.572 -11.838,10.099 -3.831,4.526 -11.144,13.928 -18.108,21.937 -6.964,8.009 -22.016,19.275 -23.914,20.637 -2.783,1.997 -4.99,1.045 -2.785,-1.393 3.803,-4.204 13.119,-11.931 18.342,-17.503 5.223,-5.571 10.098,-11.491 7.661,-14.277 -2.438,-2.785 -5.224,-2.785 -16.715,-2.785 -11.491,0 -25.245,1.566 -28.379,1.915 -3.134,0.349 -7.138,0.87 -8.531,1.567 -1.394,0.697 -6.653,4.534 -10.795,8.009 -3.019,2.532 -7.312,6.268 -10.099,6.616 -2.785,0.348 -16.017,2.438 -18.802,2.438 -2.787,0 0,-1.394 2.437,-2.786 2.438,-1.393 7.66,-4.527 11.143,-5.572 3.482,-1.045 9.401,-0.696 13.928,-5.223 4.527,-4.527 5.919,-10.098 5.223,-12.884 -0.696,-2.785 -7.66,-4.875 -12.535,-6.964 -4.875,-2.09 -18.804,-8.706 -26.813,-5.571 -7.362,2.881 -22.051,8.702 -27.628,14.221 3.82,-4.355 15.043,-17.257 16.485,-20.141 1.741,-3.483 4.875,-16.018 -9.401,-22.634 7.312,-1.393 7.66,4.527 10.097,3.83 2.438,-0.696 3.831,-10.098 10.795,-12.187 0,0 -9.401,8.705 -7.312,17.758 2.089,9.054 17.411,10.447 31.339,16.715 13.929,6.268 44.572,18.803 61.286,15.322 16.714,-3.483 24.644,-10.384 29.211,-13.725 18.44,-1.488 25.855,-3.577 35.208,-2.642 3.483,0 15.553,1.972 22.054,7.079 14.856,12.537 32.965,13.001 39,13.466 0,0 20.894,6.964 31.108,12.535 10.214,5.572 38.071,16.714 49.214,16.25 13.464,0.464 15.786,1.858 24.608,4.644 8.822,2.785 14.856,1.393 19.964,-0.465 2.785,6.5 13.928,0.929 19.5,-1.392 5.571,-2.323 20.428,-2.787 28.554,-2.787 8.125,0 22.981,0.464 28.553,2.787 5.571,2.321 16.714,7.892 19.5,1.392 5.108,1.858 11.142,3.25 19.964,0.465 8.822,-2.786 11.143,-4.18 24.607,-4.644 11.143,0.464 39,-10.678 49.214,-16.25 10.214,-5.571 31.109,-12.535 31.109,-12.535 6.035,-0.465 24.143,-0.929 39,-13.465 6.5,-5.108 18.57,-7.08 22.053,-7.08 9.354,-0.935 16.768,1.154 35.208,2.642 v 10e-4 c 4.567,3.34 12.498,10.241 29.211,13.724 16.715,3.481 47.358,-9.054 61.287,-15.322 13.928,-6.268 29.25,-7.661 31.338,-16.715 2.09,-9.053 -7.312,-17.758 -7.312,-17.758 6.965,2.089 8.357,11.491 10.795,12.187 2.437,0.697 2.786,-5.223 10.098,-3.83 -14.277,6.616 -11.143,19.151 -9.402,22.634 z m -395.223,56.875 c -11.375,0 -30.876,-1.393 -30.876,9.286 0,10.678 24.149,12.537 30.876,12.537 6.725,0 30.874,-1.859 30.874,-12.537 0,-10.679 -19.5,-9.286 -30.874,-9.286 z m 105.624,138.821 c -0.464,-13.929 1.393,-33.892 -26.464,-62.679 -27.858,-28.785 -65.001,-33.421 -79.16,-33.421 -14.161,0 -51.304,4.636 -79.162,33.421 -27.856,28.787 -26,48.75 -26.464,62.679 -0.463,13.929 4.643,43.644 7.892,53.858 3.25,10.213 15.787,6.963 22.751,6.5 6.965,-0.464 63.143,-4.178 74.983,-4.178 11.838,0 68.017,3.714 74.981,4.178 6.965,0.463 19.502,3.713 22.751,-6.5 3.25,-10.214 8.355,-39.929 7.892,-53.858"
       style="fill:#b2b1b1;fill-opacity:1;fill-rule:nonzero;stroke:none;stroke-width:0.1"
       id="path682" />
    <path
       d="m 962.038,584.124 c -1.393,3.134 -1.393,6.965 -3.83,9.75 -2.438,2.787 -6.617,2.09 -8.706,-2.088 -2.089,-4.179 -3.831,-9.054 -9.75,-12.188 -5.92,-3.134 -15.67,-7.312 -26.464,-6.268 -10.795,1.044 -16.367,5.92 -17.063,9.75 -0.696,3.831 5.92,6.964 9.054,8.357 3.134,1.393 13.929,3.134 20.892,6.268 6.965,3.134 8.009,13.581 4.528,17.759 -3.483,4.179 -14.625,-1.045 -21.241,-3.831 -6.617,-2.785 -18.804,-9.401 -27.162,-14.972 -8.357,-5.572 -12.883,-7.313 -18.455,-9.054 -5.571,-1.741 -10.098,-3.134 -17.411,1.741 -7.312,4.875 -0.894,8.407 3.483,10.794 5.745,3.135 9.401,8.01 16.713,15.322 7.313,7.313 7.662,18.455 5.573,23.33 -2.09,4.875 -9.054,3.83 -15.67,0.349 -6.616,-3.482 -11.84,-8.01 -19.153,-15.67 -7.312,-7.661 -21.588,-15.321 -25.071,-16.715 -3.482,-1.392 -10.446,-4.875 -10.795,-10.097 -0.347,-5.224 1.394,-20.894 -9.401,-24.724 -10.795,-3.83 -14.625,2.09 -17.759,6.268 -3.134,4.178 -6.616,0 -12.536,1.045 -5.92,1.044 -6.616,3.482 -6.616,6.964 0,3.482 5.223,4.178 9.75,5.223 4.527,1.045 8.357,4.527 12.884,7.313 4.527,2.786 9.748,7.312 11.733,11.665 -4.312,-2.605 -11.915,-7.767 -18.697,-9.924 -7.661,-2.438 -16.018,-5.224 -18.455,-8.358 -2.438,-3.133 -4.528,-7.66 0.347,-13.231 4.875,-5.572 8.358,-10.795 17.411,-11.84 9.054,-1.045 19.849,-2.089 23.331,-1.045 3.482,1.045 8.008,5.572 11.839,10.099 3.83,4.526 11.143,13.928 18.107,21.937 6.965,8.009 22.016,19.275 23.914,20.637 2.783,1.997 4.991,1.045 2.786,-1.393 -3.804,-4.204 -13.119,-11.931 -18.343,-17.503 -5.223,-5.571 -10.097,-11.491 -7.66,-14.277 2.437,-2.785 5.223,-2.785 16.714,-2.785 11.491,0 25.246,1.566 28.38,1.915 3.134,0.349 7.137,0.87 8.531,1.567 1.393,0.697 6.652,4.534 10.794,8.009 3.018,2.532 7.312,6.268 10.099,6.616 2.786,0.348 16.017,2.438 18.803,2.438 2.786,0 0,-1.394 -2.437,-2.786 -2.438,-1.393 -7.661,-4.527 -11.143,-5.572 -3.482,-1.045 -9.402,-0.696 -13.928,-5.223 -4.528,-4.527 -5.92,-10.098 -5.224,-12.884 0.696,-2.785 7.661,-4.875 12.536,-6.964 4.875,-2.09 18.804,-8.706 26.812,-5.571 7.362,2.881 22.052,8.702 27.628,14.221 0.792,0.904 1.274,1.448 1.274,1.448 -0.337,-0.479 -0.783,-0.963 -1.274,-1.448 -3.82,-4.355 -15.042,-17.257 -16.485,-20.141 -1.741,-3.483 -4.875,-16.018 9.402,-22.634 -7.312,-1.393 -7.661,4.527 -10.098,3.83 -2.438,-0.696 -3.83,-10.098 -10.795,-12.187 0,0 9.402,8.705 7.312,17.758 -2.088,9.054 -17.41,10.447 -31.338,16.715 -13.929,6.268 -44.572,18.803 -61.287,15.322 -16.713,-3.483 -24.644,-10.384 -29.211,-13.724 v -10e-4 c 2.156,0.174 4.45,0.34 6.925,0.492 0.46,0.029 0.928,0.052 1.402,0.069 11.499,14.344 33.768,7.244 49.089,2.717 15.323,-4.527 30.652,-9.107 36.912,-11.491 7.312,-2.786 15.67,-8.009 10.446,-12.536 -5.223,-4.526 -10.446,-11.143 -11.491,-17.759 -1.044,-6.616 4.527,-12.536 10.098,-10.795 5.572,1.741 29.947,8.009 37.259,10.795 7.313,2.785 10.446,8.009 10.099,14.625 -0.349,6.616 -12.188,11.839 -13.233,15.67 -1.045,3.83 3.134,8.357 7.661,9.401 4.527,1.045 7.313,2.09 11.491,6.965 4.178,4.875 -2.438,9.402 -3.83,12.535"
       style="fill:#d3d2d2;fill-opacity:1;fill-rule:nonzero;stroke:none;stroke-width:0.1"
       id="path684" />
    <path
       d="m 546.639,350.713 c 4.274,0.804 43.066,13.729 65.339,-17.109"
       style="fill:none;stroke:#231f20;stroke-width:0.5;stroke-linecap:butt;stroke-linejoin:miter;stroke-miterlimit:4;stroke-dasharray:none;stroke-opacity:1"
       id="path686" />
    <path
       d="m 542.568,373.572 c 4.397,0 48.968,-9.622 48.852,-23.499"
       style="fill:none;stroke:#231f20;stroke-width:0.5;stroke-linecap:butt;stroke-linejoin:miter;stroke-miterlimit:4;stroke-dasharray:none;stroke-opacity:1"
       id="path688" />
    <path
       d="m 708.638,388.892 c -5.341,-11.144 -24.243,-18.571 -32.369,-22.054 -8.126,-3.482 -22.286,-10.447 -27.857,-12.768"
       style="fill:none;stroke:#231f20;stroke-width:0.25;stroke-linecap:butt;stroke-linejoin:miter;stroke-miterlimit:4;stroke-dasharray:none;stroke-opacity:1"
       id="path690" />
    <path
       d="m 545.108,531.784 c 3.716,-0.232 6.5,-4.303 7.66,-9.642 1.162,-5.339 2.322,-26 2.09,-39 -0.232,-12.999 -1.447,-34.579 -10.822,-53.155"
       style="fill:none;stroke:#231f20;stroke-width:0.5;stroke-linecap:butt;stroke-linejoin:miter;stroke-miterlimit:4;stroke-dasharray:none;stroke-opacity:1"
       id="path692" />
    <path
       d="m 842.252,785.741 c -4.701,-4.178 -21.126,-14.045 -21.589,-26.116 -0.464,-12.071 -2.787,-13 -5.108,-14.857"
       style="fill:none;stroke:#231f20;stroke-width:0.5;stroke-linecap:butt;stroke-linejoin:miter;stroke-miterlimit:4;stroke-dasharray:none;stroke-opacity:1"
       id="path694" />
    <path
       d="m 740.225,833.447 c -3.134,-7.893 -7.778,-26.929 -15.206,-35.286 -7.428,-8.358 -21.82,-13.928 -30.178,-19.964 -8.357,-6.036 -11.606,-19.964 -11.142,-23.679"
       style="fill:none;stroke:#231f20;stroke-width:0.5;stroke-linecap:butt;stroke-linejoin:miter;stroke-miterlimit:4;stroke-dasharray:none;stroke-opacity:1"
       id="path696" />
    <path
       d="m 587.126,570.66 c 15.322,2.786 36.679,6.964 49.215,7.428"
       style="fill:none;stroke:#231f20;stroke-width:0.75;stroke-linecap:round;stroke-linejoin:round;stroke-miterlimit:4;stroke-dasharray:none;stroke-opacity:1"
       id="path698" />
    <path
       d="m 632.626,610.124 c 10.214,-10.212 13.93,-22.286 3.715,-32.036 0,0 25.072,4.18 51.999,-7.892 0,0 -0.464,2.321 4.179,1.857 4.643,-0.464 7.429,1.394 10.214,4.18 2.786,2.785 6.966,4.641 10.216,5.106 0,0 -20.895,6.964 -31.109,12.535 -10.214,5.572 -38.071,16.714 -49.214,16.25"
       style="fill:#706d6e;fill-opacity:1;fill-rule:nonzero;stroke:none;stroke-width:0.1"
       id="path700" />
    <path
       d="m 632.626,610.124 c 10.214,-10.212 13.93,-22.286 3.715,-32.036 0,0 25.072,4.18 51.999,-7.892 0,0 -0.464,2.321 4.179,1.857 4.643,-0.464 7.429,1.394 10.214,4.18 2.786,2.785 6.966,4.641 10.216,5.106 0,0 -20.895,6.964 -31.109,12.535 -10.214,5.572 -38.071,16.714 -49.214,16.25 z"
       style="fill:none;stroke:#231f20;stroke-width:0.75;stroke-linecap:round;stroke-linejoin:round;stroke-miterlimit:4;stroke-dasharray:none;stroke-opacity:1"
       id="path702" />
    <path
       d="m 712.949,581.339 c 6.035,-0.465 24.143,-0.929 39,-13.465"
       style="fill:none;stroke:#231f20;stroke-width:0.75;stroke-linecap:round;stroke-linejoin:round;stroke-miterlimit:4;stroke-dasharray:none;stroke-opacity:1"
       id="path704" />
    <path
       d="m 688.34,570.196 c 8.822,-5.108 25.536,-10.679 33.429,-12.072 7.894,-1.393 26.001,-15.787 31.572,-20.893"
       style="fill:none;stroke:#231f20;stroke-width:0.5;stroke-linecap:butt;stroke-linejoin:miter;stroke-miterlimit:4;stroke-dasharray:none;stroke-opacity:1"
       id="path706" />
    <path
       d="m 722.779,557.886 c -5.029,1.114 -17.376,0.819 -20.51,-1.619 -3.134,-2.437 -3.134,-4.526 0.696,-8.009 3.831,-3.481 8.358,-9.75 14.974,-13.928 6.616,-4.179 8.705,-8.357 11.84,-12.884 3.134,-4.527 17.41,-23.33 22.634,-41.089 5.222,-17.76 5.222,-39.697 4.526,-45.965 -0.696,-6.268 -2.092,-18.766 -9.403,-29.579"
       style="fill:none;stroke:#231f20;stroke-width:0.5;stroke-linecap:butt;stroke-linejoin:miter;stroke-miterlimit:4;stroke-dasharray:none;stroke-opacity:1"
       id="path708" />
    <path
       d="m 728.429,523.447 c -5.963,3.919 -15.016,7.401 -21.285,7.053 -6.268,-0.349 -11.839,-2.787 -9.054,-6.268 2.786,-3.482 8.01,-11.144 22.286,-28.902 14.278,-17.759 20.545,-34.473 19.849,-45.268 -0.696,-10.795 -1.456,-42.081 -18.456,-38.304 -3.134,0.697 -4.875,-3.134 -2.089,-6.964 2.786,-3.831 6.268,-9.053 7.661,-10.447 1.393,-1.392 2.913,-3.982 7.028,-1.817"
       style="fill:none;stroke:#231f20;stroke-width:0.5;stroke-linecap:butt;stroke-linejoin:miter;stroke-miterlimit:4;stroke-dasharray:none;stroke-opacity:1"
       id="path710" />
    <path
       d="m 714.805,514.133 c 6.616,0.349 20.851,-0.425 27.858,-7.66 7.778,-8.034 10.794,-11.491 14.972,-11.491"
       style="fill:none;stroke:#7b7979;stroke-width:0.5;stroke-linecap:butt;stroke-linejoin:miter;stroke-miterlimit:4;stroke-dasharray:none;stroke-opacity:1"
       id="path712" />
    <path
       d="m 648.412,354.07 c -2.687,5.801 -6.384,15.438 -7.428,23.447 -1.045,8.01 0.929,22.865 3.018,28.089 2.089,5.224 7.699,14.229 9.517,16.251 2.09,2.321 6.627,3.795 11.154,3.098"
       style="fill:none;stroke:#231f20;stroke-width:0.25;stroke-linecap:butt;stroke-linejoin:miter;stroke-miterlimit:4;stroke-dasharray:none;stroke-opacity:1"
       id="path714" />
    <path
       d="m 716.198,388.141 c -2.089,-3.831 -7.546,-7.381 -18.108,-13.99 -11.369,-7.116 -17.413,-11.886 -20.371,-17.086"
       style="fill:none;stroke:#231f20;stroke-width:0.5;stroke-linecap:butt;stroke-linejoin:miter;stroke-miterlimit:4;stroke-dasharray:none;stroke-opacity:1"
       id="path716" />
    <path
       d="m 714.996,412.156 c -3.673,0.299 -6.111,-1.443 -6.807,-5.273 0,0 1.856,-6.616 -1.509,-14.161 0,0 0.464,-4.991 4.991,-4.991 4.527,0 11.614,0.58 12.248,11.085"
       style="fill:none;stroke:#231f20;stroke-width:0.5;stroke-linecap:butt;stroke-linejoin:miter;stroke-miterlimit:4;stroke-dasharray:none;stroke-opacity:1"
       id="path718" />
    <path
       d="m 684.157,422.246 -5.218,1.7"
       style="fill:none;stroke:#231f20;stroke-width:0.5;stroke-linecap:butt;stroke-linejoin:miter;stroke-miterlimit:4;stroke-dasharray:none;stroke-opacity:1"
       id="path720" />
    <path
       d="m 757.984,615.464 c 4.857,-1.455 19.848,-5.571 19.5,-7.661 -0.349,-2.089 -10.795,-6.616 -19.849,-5.92 -9.053,0.697 -15.321,5.224 -15.321,9.75 0,4.528 5.754,6.801 15.67,3.831"
       style="fill:#ffffff;fill-opacity:1;fill-rule:nonzero;stroke:none;stroke-width:0.1"
       id="path722" />
    <path
       d="m 942.538,603.624 c -1.393,-5.222 -9.054,-16.366 -24.375,-20.892"
       style="fill:none;stroke:#231f20;stroke-width:0.5;stroke-linecap:butt;stroke-linejoin:miter;stroke-miterlimit:4;stroke-dasharray:none;stroke-opacity:1"
       id="path724" />
    <path
       d="m 962.386,555.919 c -1.741,0.697 -6.616,2.438 -6.616,2.438"
       style="fill:none;stroke:#231f20;stroke-width:0.5;stroke-linecap:butt;stroke-linejoin:miter;stroke-miterlimit:4;stroke-dasharray:none;stroke-opacity:1"
       id="path726" />
    <path
       d="m 774.002,560.794 c -3.483,0 -15.553,1.972 -22.053,7.08 0,0 15.858,-17.837 13.928,-25.072 -1.858,-6.964 -7.428,-8.356 -12.536,-5.571 0,0 5.041,-5.752 7.777,-11.258 16.714,-17.062 23.678,5.919 23.678,18.804 0,12.884 -10.794,16.017 -10.794,16.017"
       style="fill:#706d6e;fill-opacity:1;fill-rule:nonzero;stroke:none;stroke-width:0.1"
       id="path728" />
    <path
       d="m 774.002,560.794 c -3.483,0 -15.553,1.972 -22.053,7.08 0,0 15.858,-17.837 13.928,-25.072 -1.858,-6.964 -7.428,-8.356 -12.536,-5.571 0,0 5.041,-5.752 7.777,-11.258 16.714,-17.062 23.678,5.919 23.678,18.804 0,12.884 -10.794,16.017 -10.794,16.017 z"
       style="fill:none;stroke:#231f20;stroke-width:0.75;stroke-linecap:round;stroke-linejoin:round;stroke-miterlimit:4;stroke-dasharray:none;stroke-opacity:1"
       id="path730" />
    <path
       d="m 117.964,584.124 c 1.394,3.134 1.394,6.965 3.831,9.75 2.438,2.787 6.616,2.09 8.705,-2.088 2.089,-4.179 3.831,-9.054 9.75,-12.188 5.92,-3.134 15.67,-7.312 26.464,-6.268 10.795,1.044 16.367,5.92 17.063,9.75 0.697,3.831 -5.919,6.964 -9.053,8.357 -3.135,1.393 -13.929,3.134 -20.893,6.268 -6.964,3.134 -8.009,13.581 -4.527,17.759 3.482,4.179 14.625,-1.045 21.241,-3.831 6.617,-2.785 18.804,-9.401 27.161,-14.972 8.357,-5.572 12.883,-7.313 18.456,-9.054 5.571,-1.741 10.097,-3.134 17.41,1.741 7.312,4.875 0.895,8.407 -3.482,10.794 -5.746,3.135 -9.402,8.01 -16.714,15.322 -7.313,7.313 -7.662,18.455 -5.572,23.33 2.089,4.875 9.054,3.83 15.67,0.349 6.616,-3.482 11.839,-8.01 19.152,-15.67 7.312,-7.661 21.589,-15.321 25.071,-16.715 3.482,-1.392 10.446,-4.875 10.795,-10.097 0.348,-5.224 -1.393,-20.894 9.401,-24.724 10.795,-3.83 14.626,2.09 17.76,6.268 3.134,4.178 6.616,0 12.535,1.045 5.92,1.044 6.616,3.482 6.616,6.964 0,3.482 -5.222,4.178 -9.75,5.223 -4.526,1.045 -8.357,4.527 -12.884,7.313 -4.527,2.786 -9.747,7.312 -11.733,11.665 4.312,-2.605 11.916,-7.767 18.697,-9.924 7.661,-2.438 16.019,-5.224 18.456,-8.358 2.438,-3.133 4.527,-7.66 -0.348,-13.231 -4.875,-5.572 -8.358,-10.795 -17.41,-11.84 -9.054,-1.045 -19.849,-2.089 -23.332,-1.045 -3.482,1.045 -8.008,5.572 -11.838,10.099 -3.831,4.526 -11.144,13.928 -18.108,21.937 -6.964,8.009 -22.016,19.275 -23.914,20.637 -2.783,1.997 -4.99,1.045 -2.785,-1.393 3.803,-4.204 13.119,-11.931 18.342,-17.503 5.223,-5.571 10.098,-11.491 7.661,-14.277 -2.438,-2.785 -5.224,-2.785 -16.715,-2.785 -11.491,0 -25.245,1.566 -28.379,1.915 -3.134,0.349 -7.138,0.87 -8.531,1.567 -1.394,0.697 -6.653,4.534 -10.795,8.009 -3.019,2.532 -7.312,6.268 -10.099,6.616 -2.785,0.348 -16.017,2.438 -18.802,2.438 -2.787,0 0,-1.394 2.437,-2.786 2.438,-1.393 7.66,-4.527 11.143,-5.572 3.482,-1.045 9.401,-0.696 13.928,-5.223 4.527,-4.527 5.919,-10.098 5.223,-12.884 -0.696,-2.785 -7.66,-4.875 -12.535,-6.964 -4.875,-2.09 -18.804,-8.706 -26.813,-5.571 -7.362,2.881 -22.051,8.702 -27.628,14.221 -0.792,0.904 -1.274,1.448 -1.274,1.448 0.338,-0.479 0.783,-0.963 1.274,-1.448 3.82,-4.355 15.043,-17.257 16.485,-20.141 1.741,-3.483 4.875,-16.018 -9.401,-22.634 7.312,-1.393 7.66,4.527 10.097,3.83 2.438,-0.696 3.831,-10.098 10.795,-12.187 0,0 -9.401,8.705 -7.312,17.758 2.089,9.054 17.411,10.447 31.339,16.715 13.929,6.268 44.572,18.803 61.286,15.322 16.714,-3.483 24.644,-10.384 29.211,-13.725 -2.155,0.174 -4.45,0.34 -6.925,0.492 -0.46,0.028 -0.928,0.052 -1.402,0.069 -11.499,14.344 -33.768,7.244 -49.089,2.717 -15.322,-4.527 -30.652,-9.108 -36.912,-11.491 -7.312,-2.786 -15.669,-8.009 -10.446,-12.536 5.224,-4.526 10.446,-11.143 11.491,-17.759 1.045,-6.616 -4.526,-12.536 -10.097,-10.795 -5.573,1.741 -29.948,8.009 -37.26,10.795 -7.313,2.785 -10.446,8.009 -10.098,14.625 0.348,6.616 12.188,11.839 13.232,15.67 1.045,3.83 -3.134,8.357 -7.66,9.401 -4.528,1.045 -7.313,2.09 -11.492,6.965 -4.178,4.875 2.438,9.402 3.83,12.535"
       style="fill:#d3d2d2;fill-opacity:1;fill-rule:nonzero;stroke:none;stroke-width:0.1"
       id="path732" />
    <path
       d="m 540.002,637.055 c -6.727,0 -30.876,-1.859 -30.876,-12.537 0,-10.679 19.501,-9.286 30.876,-9.286 11.374,0 30.874,-1.393 30.874,9.286 0,10.678 -24.149,12.537 -30.874,12.537 z m 0,-15.323 c -8.126,0 -16.484,-0.465 -16.484,2.321 0,2.785 11.143,4.179 16.484,4.179 5.339,0 16.482,-1.394 16.482,-4.179 0,-2.786 -8.357,-2.321 -16.482,-2.321"
       style="fill:#d3d2d2;fill-opacity:1;fill-rule:nonzero;stroke:none;stroke-width:0.1"
       id="path734" />
    <path
       d="m 867.556,689.517 c 3.715,13.465 5.107,30.644 0.464,47.357 -4.643,16.715 -13,28.787 -18.107,28.323 -5.108,-0.465 -4.179,-15.322 -4.179,-24.608 0,-9.285 -0.929,-22.285 -8.821,-26.928 -7.892,-4.644 -27.393,-7.429 -40.858,5.571 -13.465,13 -17.642,22.286 -13.464,37.607 4.179,15.322 16.715,28.785 20.428,34.358 3.714,5.571 5.107,8.821 1.393,17.642 -3.715,8.823 -18.571,16.25 -25.072,19.036 -6.5,2.786 -8.357,-0.928 -10.214,-3.251 -1.856,-2.321 -6.035,-10.677 -7.427,-21.356 -1.394,-10.679 -2.323,-27.857 -5.572,-38.536 -3.25,-10.679 -14.858,-13 -23.678,-17.643 -8.822,-4.643 -3.715,-13 -15.322,-17.178 -13.959,-5.026 -34.822,6.036 -45.501,23.678 -10.678,17.643 -7.427,26.929 -2.786,39 4.643,12.072 13,13.929 26.929,19.036 13.929,5.108 29.715,17.178 32.965,20.893 3.249,3.715 4.642,8.357 2.321,10.214 -2.32,1.856 -19.965,6.965 -27.392,8.357 -7.429,1.393 -9.75,-0.464 -16.251,-4.178 -6.5,-3.715 -7.428,-13 -11.143,-19.036 -3.715,-6.036 -13.929,-5.571 -19.5,-3.714 -5.571,1.857 -2.32,15.786 -14.856,26 -10.437,8.505 -27.858,11.607 -40.859,13.928 -13.001,2.322 -52.465,4.644 -61.052,4.644 -8.589,0 -48.053,-2.322 -61.054,-4.644 -13.001,-2.321 -30.421,-5.423 -40.859,-13.928 -12.535,-10.214 -9.284,-24.143 -14.855,-26 -5.572,-1.857 -15.785,-2.322 -19.5,3.714 -3.715,6.036 -4.643,15.321 -11.144,19.036 -6.5,3.714 -8.822,5.571 -16.25,4.178 -7.428,-1.392 -25.073,-6.501 -27.393,-8.357 -2.321,-1.857 -0.928,-6.499 2.322,-10.214 3.249,-3.715 19.036,-15.785 32.965,-20.893 13.928,-5.107 22.285,-6.964 26.928,-19.036 4.642,-12.071 7.893,-21.357 -2.786,-39 -10.679,-17.642 -31.542,-28.704 -45.5,-23.678 -11.607,4.178 -6.501,12.535 -15.322,17.178 -8.821,4.643 -20.429,6.964 -23.678,17.643 -3.25,10.679 -4.179,27.857 -5.572,38.536 -1.393,10.679 -5.572,19.035 -7.428,21.356 -1.857,2.323 -3.713,6.037 -10.214,3.251 -6.5,-2.786 -21.357,-10.213 -25.072,-19.036 -3.714,-8.821 -2.32,-12.071 1.393,-17.642 3.714,-5.573 16.249,-19.036 20.428,-34.358 4.178,-15.321 0.002,-24.607 -13.463,-37.607 -13.465,-13 -32.967,-10.215 -40.859,-5.571 -7.891,4.643 -8.821,17.643 -8.821,26.928 0,9.286 0.93,24.143 -4.178,24.608 -5.108,0.464 -13.464,-11.608 -18.107,-28.323 -4.643,-16.713 -3.251,-33.892 0.464,-47.357 3.715,-13.464 0.811,-25.047 0,-29.25 -0.987,-5.106 4.643,-12.999 17.643,-9.285 12.999,3.714 34.358,13.929 44.108,22.286 9.75,8.356 23.213,6.963 28.321,3.714 5.107,-3.25 7.893,-1.857 19.036,-0.464 11.143,1.393 28.784,0 31.107,-5.571 2.322,-5.572 -3.25,-17.179 -23.679,-28.323 -20.429,-11.142 -49.215,-15.321 -55.251,-15.321 -6.035,0 -15.321,0.929 -27.856,8.822 4.178,-3.134 10.345,-7.385 12.767,-9.169 2.413,-1.779 7.197,-4.875 11.376,-6.617 42.251,0 87.75,30.178 95.178,41.322 7.429,11.142 6.036,15.786 -2.321,23.214 -8.358,7.429 -27.858,12.536 -42.714,16.249 -14.857,3.715 -30.643,0.929 -49.215,-9.75 -18.572,-10.677 -29.714,-16.713 -36.679,-18.106 -6.964,-1.394 -8.356,-6.5 -11.142,-11.607 -5.987,-10.976 -5.572,0.928 -3.715,10.213 1.856,9.287 1.671,18.905 -0.464,31.108 -2.264,12.942 0.929,36.679 0.929,36.679 0,0 0.29,-9.112 2.321,-28.322 2.006,-18.98 16.25,-21.822 26.929,-19.5 10.679,2.323 29.25,9.75 42.713,23.214 13.464,13.465 13.465,33.429 13.001,46.429 -0.464,13.001 -4.13,27.869 -6.964,39.001 -2.496,9.808 6.383,8.589 7.428,0.928 0.702,-5.143 2.786,-19.5 9.75,-37.608 6.965,-18.106 11.607,-25.999 32.5,-38.071 20.893,-12.072 33.894,-11.143 56.644,10.215 22.749,21.357 22.285,50.607 21.821,54.321 -0.464,3.714 0,15.786 -9.286,19.5 -9.286,3.714 -23.968,12.826 -26.29,15.148 -2.322,2.321 -0.032,4.542 2.289,2.221 2.322,-2.321 12.858,-8.548 21.216,-10.869 8.356,-2.322 12.071,0.929 13.928,4.179 1.857,3.249 5.108,9.286 12.536,10.678 7.427,1.393 19.5,0 40.392,-2.786 20.894,-2.785 48.751,-4.642 59.198,-4.642 10.446,0 38.303,1.857 59.196,4.642 20.892,2.786 32.965,4.179 40.392,2.786 7.429,-1.392 10.68,-7.429 12.536,-10.678 1.857,-3.25 5.572,-6.501 13.929,-4.179 8.358,2.321 18.894,8.548 21.215,10.869 2.322,2.321 4.611,0.1 2.289,-2.221 -2.321,-2.322 -17.004,-11.434 -26.29,-15.148 -9.286,-3.714 -8.822,-15.786 -9.286,-19.5 -0.464,-3.714 -0.928,-32.964 21.822,-54.321 22.749,-21.358 35.75,-22.287 56.644,-10.215 20.892,12.072 25.535,19.965 32.499,38.071 6.965,18.108 9.049,32.465 9.75,37.608 1.045,7.661 9.925,8.88 7.428,-0.928 -2.834,-11.132 -6.5,-26 -6.964,-39.001 -0.464,-13 -0.462,-32.964 13.001,-46.429 13.463,-13.464 32.035,-20.891 42.713,-23.214 10.679,-2.322 24.923,0.52 26.93,19.5 2.03,19.21 2.32,28.322 2.32,28.322 0,0 3.193,-23.737 0.929,-36.679 -2.134,-12.203 -2.32,-21.821 -0.464,-31.108 1.858,-9.285 2.272,-21.189 -3.715,-10.213 -2.785,5.107 -4.178,10.213 -11.142,11.607 -6.964,1.393 -18.106,7.429 -36.678,18.106 -18.573,10.679 -34.359,13.465 -49.216,9.75 -14.856,-3.713 -34.356,-8.82 -42.713,-16.249 -8.357,-7.428 -9.75,-12.072 -2.322,-23.214 7.428,-11.144 52.928,-41.322 95.179,-41.322 4.178,1.742 8.962,4.838 11.375,6.617 2.423,1.784 8.59,6.035 12.768,9.169 -12.536,-7.893 -21.822,-8.822 -27.857,-8.822 -6.035,0 -34.821,4.179 -55.251,15.321 -20.429,11.144 -26,22.751 -23.678,28.323 2.322,5.571 19.964,6.964 31.107,5.571 11.142,-1.393 13.928,-2.786 19.036,0.464 5.107,3.249 18.571,4.642 28.321,-3.714 9.75,-8.357 31.108,-18.572 44.108,-22.286 12.999,-3.714 18.629,4.179 17.643,9.285 -0.812,4.203 -3.715,15.786 0,29.25"
       style="fill:#d3d2d2;fill-opacity:1;fill-rule:nonzero;stroke:none;stroke-width:0.1"
       id="path736" />
    <path
       d="m 533.364,350.711 c -4.274,0.806 -43.067,13.731 -65.34,-17.108"
       style="fill:none;stroke:#231f20;stroke-width:0.5;stroke-linecap:butt;stroke-linejoin:miter;stroke-miterlimit:4;stroke-dasharray:none;stroke-opacity:1"
       id="path738" />
    <path
       d="m 542.564,373.632 c 0.429,-7.937 1.527,-20.228 4.075,-22.919"
       style="fill:none;stroke:#231f20;stroke-width:0.5;stroke-linecap:butt;stroke-linejoin:miter;stroke-miterlimit:4;stroke-dasharray:none;stroke-opacity:1"
       id="path740" />
    <path
       d="m 533.364,350.711 c 2.54,2.683 3.64,14.917 4.071,22.858"
       style="fill:none;stroke:#231f20;stroke-width:0.5;stroke-linecap:butt;stroke-linejoin:miter;stroke-miterlimit:4;stroke-dasharray:none;stroke-opacity:1"
       id="path742" />
    <path
       d="m 537.434,373.572 c -4.397,0 -48.968,-9.622 -48.851,-23.499"
       style="fill:none;stroke:#231f20;stroke-width:0.5;stroke-linecap:butt;stroke-linejoin:miter;stroke-miterlimit:4;stroke-dasharray:none;stroke-opacity:1"
       id="path744" />
    <path
       d="m 371.365,388.89 c 5.34,-11.142 24.243,-18.569 32.369,-22.052 8.126,-3.482 22.285,-10.449 27.856,-12.769"
       style="fill:none;stroke:#231f20;stroke-width:0.25;stroke-linecap:butt;stroke-linejoin:miter;stroke-miterlimit:4;stroke-dasharray:none;stroke-opacity:1"
       id="path746" />
    <path
       d="m 540.002,344.566 c -6.5,0 -6.018,8.344 0,8.344 6.017,0 6.498,-8.344 0,-8.344"
       style="fill:#ffffff;fill-opacity:1;fill-rule:nonzero;stroke:none;stroke-width:0.1"
       id="path748" />
    <path
       d="m 540.002,344.566 c -6.5,0 -6.018,8.344 0,8.344 6.017,0 6.498,-8.344 0,-8.344 z"
       style="fill:none;stroke:#231f20;stroke-width:0.5;stroke-linecap:round;stroke-linejoin:round;stroke-miterlimit:4;stroke-dasharray:none;stroke-opacity:1"
       id="path750" />
    <path
       d="m 534.894,531.784 c -3.715,-0.232 -6.5,-4.304 -7.66,-9.642 -1.161,-5.34 -2.321,-26.002 -2.09,-39 0.232,-13.001 1.447,-34.579 10.822,-53.157"
       style="fill:none;stroke:#231f20;stroke-width:0.5;stroke-linecap:butt;stroke-linejoin:miter;stroke-miterlimit:4;stroke-dasharray:none;stroke-opacity:1"
       id="path752" />
    <path
       d="m 237.75,785.741 c 4.702,-4.178 21.126,-14.045 21.59,-26.116 0.464,-12.071 2.787,-13 5.108,-14.857"
       style="fill:none;stroke:#231f20;stroke-width:0.5;stroke-linecap:butt;stroke-linejoin:miter;stroke-miterlimit:4;stroke-dasharray:none;stroke-opacity:1"
       id="path754" />
    <path
       d="m 339.778,833.447 c 3.134,-7.893 7.777,-26.929 15.206,-35.286 7.428,-8.358 21.82,-13.928 30.178,-19.964 8.356,-6.036 11.606,-19.964 11.142,-23.679"
       style="fill:none;stroke:#231f20;stroke-width:0.5;stroke-linecap:butt;stroke-linejoin:miter;stroke-miterlimit:4;stroke-dasharray:none;stroke-opacity:1"
       id="path756" />
    <path
       d="m 515.626,784.697 c 5.572,-1.394 24.376,-0.929 24.376,-0.929 0,0 18.803,-0.465 24.374,0.929"
       style="fill:none;stroke:#231f20;stroke-width:0.5;stroke-linecap:butt;stroke-linejoin:miter;stroke-miterlimit:4;stroke-dasharray:none;stroke-opacity:1"
       id="path758" />
    <path
       d="m 540.002,569.732 v -10e-4 c -5.804,0 -34.589,-1.858 -47.126,0.928 0,0 14.393,-3.714 19.5,-12.536 5.108,-8.82 9.586,-15.169 11.607,-19.5 3.251,-6.964 16.019,-6.026 16.019,-11.6 v 10e-4 c 0,5.573 12.766,4.636 16.017,11.6 2.022,4.331 6.499,10.679 11.607,19.5 5.107,8.821 19.5,12.536 19.5,12.536 -12.536,-2.786 -41.322,-0.928 -47.124,-0.928"
       style="fill:#706d6e;fill-opacity:1;fill-rule:nonzero;stroke:none;stroke-width:0.1"
       id="path760" />
    <path
       d="m 540.002,569.732 v -10e-4 c -5.804,0 -34.589,-1.858 -47.126,0.928 0,0 14.393,-3.714 19.5,-12.536 5.108,-8.82 9.586,-15.169 11.607,-19.5 3.251,-6.964 16.019,-6.026 16.019,-11.6 v 10e-4 c 0,5.573 12.766,4.636 16.017,11.6 2.022,4.331 6.499,10.679 11.607,19.5 5.107,8.821 19.5,12.536 19.5,12.536 -12.536,-2.786 -41.322,-0.928 -47.124,-0.928 z"
       style="fill:none;stroke:#231f20;stroke-width:0.75;stroke-linecap:round;stroke-linejoin:round;stroke-miterlimit:4;stroke-dasharray:none;stroke-opacity:1"
       id="path762" />
    <path
       d="m 492.876,570.659 c -15.321,2.785 -36.679,6.965 -49.214,7.429"
       style="fill:none;stroke:#231f20;stroke-width:0.75;stroke-linecap:round;stroke-linejoin:round;stroke-miterlimit:4;stroke-dasharray:none;stroke-opacity:1"
       id="path764" />
    <path
       d="m 447.376,610.124 c -10.213,-10.212 -13.93,-22.286 -3.714,-32.036 0,0 -25.073,4.18 -52,-7.892 0,0 0.464,2.321 -4.179,1.855 -4.643,-0.462 -7.428,1.396 -10.214,4.182 -2.785,2.785 -6.966,4.641 -10.215,5.106 0,0 20.894,6.964 31.108,12.535 10.214,5.572 38.071,16.714 49.214,16.25"
       style="fill:#706d6e;fill-opacity:1;fill-rule:nonzero;stroke:none;stroke-width:0.1"
       id="path766" />
    <path
       d="m 447.376,610.124 c -10.213,-10.212 -13.93,-22.286 -3.714,-32.036 0,0 -25.073,4.18 -52,-7.892 0,0 0.464,2.321 -4.179,1.855 -4.643,-0.462 -7.428,1.396 -10.214,4.182 -2.785,2.785 -6.966,4.641 -10.215,5.106 0,0 20.894,6.964 31.108,12.535 10.214,5.572 38.071,16.714 49.214,16.25 z"
       style="fill:none;stroke:#231f20;stroke-width:0.75;stroke-linecap:round;stroke-linejoin:round;stroke-miterlimit:4;stroke-dasharray:none;stroke-opacity:1"
       id="path768" />
    <path
       d="m 367.054,581.339 c -6.035,-0.465 -24.144,-0.929 -39,-13.466"
       style="fill:none;stroke:#231f20;stroke-width:0.75;stroke-linecap:round;stroke-linejoin:round;stroke-miterlimit:4;stroke-dasharray:none;stroke-opacity:1"
       id="path770" />
    <path
       d="m 391.662,570.196 c -8.822,-5.109 -25.536,-10.68 -33.429,-12.073 -7.894,-1.393 -26,-15.787 -31.572,-20.893"
       style="fill:none;stroke:#231f20;stroke-width:0.5;stroke-linecap:butt;stroke-linejoin:miter;stroke-miterlimit:4;stroke-dasharray:none;stroke-opacity:1"
       id="path772" />
    <path
       d="m 357.224,557.886 c 5.028,1.113 17.375,0.819 20.509,-1.619 3.134,-2.437 3.134,-4.526 -0.696,-8.009 -3.83,-3.481 -8.358,-9.75 -14.974,-13.928 -6.616,-4.179 -8.705,-8.357 -11.839,-12.884 -3.134,-4.527 -17.411,-23.33 -22.634,-41.089 -5.223,-17.76 -5.223,-39.697 -4.527,-45.965 0.696,-6.268 2.092,-18.766 9.403,-29.579"
       style="fill:none;stroke:#231f20;stroke-width:0.5;stroke-linecap:butt;stroke-linejoin:miter;stroke-miterlimit:4;stroke-dasharray:none;stroke-opacity:1"
       id="path774" />
    <path
       d="m 351.574,523.446 c 5.963,3.92 15.016,7.402 21.284,7.054 6.268,-0.349 11.84,-2.787 9.054,-6.268 -2.786,-3.482 -8.009,-11.144 -22.286,-28.902 -14.277,-17.759 -20.544,-34.473 -19.848,-45.268 0.696,-10.795 1.455,-42.082 18.455,-38.304 3.134,0.697 4.875,-3.134 2.089,-6.964 -2.785,-3.831 -6.268,-9.053 -7.66,-10.447 -1.393,-1.392 -2.914,-3.982 -7.029,-1.817"
       style="fill:none;stroke:#231f20;stroke-width:0.5;stroke-linecap:butt;stroke-linejoin:miter;stroke-miterlimit:4;stroke-dasharray:none;stroke-opacity:1"
       id="path776" />
    <path
       d="m 365.197,514.133 c -6.615,0.349 -20.851,-0.426 -27.857,-7.66 -7.779,-8.034 -10.795,-11.491 -14.973,-11.491"
       style="fill:none;stroke:#7b7979;stroke-width:0.5;stroke-linecap:butt;stroke-linejoin:miter;stroke-miterlimit:4;stroke-dasharray:none;stroke-opacity:1"
       id="path778" />
    <path
       d="m 431.59,354.069 c 2.687,5.8 6.384,15.438 7.429,23.447 1.045,8.009 -0.93,22.865 -3.019,28.089 -2.088,5.223 -7.699,14.23 -9.517,16.252 -2.089,2.32 -6.627,3.795 -11.153,3.098"
       style="fill:none;stroke:#231f20;stroke-width:0.25;stroke-linecap:butt;stroke-linejoin:miter;stroke-miterlimit:4;stroke-dasharray:none;stroke-opacity:1"
       id="path780" />
    <path
       d="m 363.804,388.139 c 2.09,-3.83 7.547,-7.38 18.108,-13.988 11.37,-7.116 17.413,-11.886 20.372,-17.087"
       style="fill:none;stroke:#231f20;stroke-width:0.5;stroke-linecap:butt;stroke-linejoin:miter;stroke-miterlimit:4;stroke-dasharray:none;stroke-opacity:1"
       id="path782" />
    <path
       d="m 365.006,412.156 c 3.673,0.299 6.111,-1.443 6.807,-5.273 0,0 -1.856,-6.616 1.509,-14.163 0,0 -0.464,-4.989 -4.99,-4.989 -4.528,0 -11.615,0.58 -12.249,11.084"
       style="fill:none;stroke:#231f20;stroke-width:0.5;stroke-linecap:butt;stroke-linejoin:miter;stroke-miterlimit:4;stroke-dasharray:none;stroke-opacity:1"
       id="path784" />
    <path
       d="m 395.845,422.246 5.218,1.7"
       style="fill:none;stroke:#231f20;stroke-width:0.5;stroke-linecap:butt;stroke-linejoin:miter;stroke-miterlimit:4;stroke-dasharray:none;stroke-opacity:1"
       id="path786" />
    <path
       d="m 322.019,615.464 c -4.857,-1.455 -19.849,-5.571 -19.5,-7.661 0.348,-2.089 10.794,-6.616 19.848,-5.92 9.053,0.697 15.321,5.224 15.321,9.75 0,4.528 -5.754,6.801 -15.669,3.831"
       style="fill:#ffffff;fill-opacity:1;fill-rule:nonzero;stroke:none;stroke-width:0.1"
       id="path788" />
    <path
       d="m 206.412,649.937 c 5.919,0 17.51,-2.199 23.678,-5.223 6.515,-3.194 11.607,-5.455 15.786,-8.589 4.178,-3.134 10.345,-7.385 12.767,-9.169 2.413,-1.779 7.197,-4.875 11.376,-6.617 4.179,-1.741 15.089,-6.965 18.919,-9.053 0.38,-0.207 1.027,-0.589 1.496,-0.871"
       style="fill:none;stroke:#231f20;stroke-width:0.5;stroke-linecap:butt;stroke-linejoin:miter;stroke-miterlimit:4;stroke-dasharray:none;stroke-opacity:1"
       id="path790" />
    <path
       d="m 137.464,603.624 c 1.394,-5.222 9.054,-16.366 24.375,-20.892"
       style="fill:none;stroke:#231f20;stroke-width:0.5;stroke-linecap:butt;stroke-linejoin:miter;stroke-miterlimit:4;stroke-dasharray:none;stroke-opacity:1"
       id="path792" />
    <path
       d="m 117.617,555.919 c 1.741,0.697 6.616,2.438 6.616,2.438"
       style="fill:none;stroke:#231f20;stroke-width:0.5;stroke-linecap:butt;stroke-linejoin:miter;stroke-miterlimit:4;stroke-dasharray:none;stroke-opacity:1"
       id="path794" />
    <path
       d="m 496.126,703.911 c 9.75,-2.089 38.304,-4.875 43.876,-4.875 5.571,0 34.124,2.786 43.874,4.875"
       style="fill:none;stroke:#231f20;stroke-width:0.5;stroke-linecap:butt;stroke-linejoin:miter;stroke-miterlimit:4;stroke-dasharray:none;stroke-opacity:1"
       id="path796" />
    <path
       d="m 306,560.794 c 3.483,0 15.553,1.972 22.054,7.079 0,0 -15.859,-17.838 -13.928,-25.072 1.857,-6.964 7.427,-8.357 12.535,-5.571 0,0 -5.041,-5.751 -7.777,-11.257 -16.714,-17.062 -23.678,5.919 -23.678,18.804 0,12.884 10.794,16.017 10.794,16.017"
       style="fill:#706d6e;fill-opacity:1;fill-rule:nonzero;stroke:none;stroke-width:0.1"
       id="path798" />
    <path
       d="m 306,560.794 c 3.483,0 15.553,1.972 22.054,7.079 0,0 -15.859,-17.838 -13.928,-25.072 1.857,-6.964 7.427,-8.357 12.535,-5.571 0,0 -5.041,-5.751 -7.777,-11.257 -16.714,-17.062 -23.678,5.919 -23.678,18.804 0,12.884 10.794,16.017 10.794,16.017 z"
       style="fill:none;stroke:#231f20;stroke-width:0.75;stroke-linecap:round;stroke-linejoin:round;stroke-miterlimit:4;stroke-dasharray:none;stroke-opacity:1"
       id="path800" />
    <path
       d="m 540.002,352.91 c -6.617,0 -8.692,-4.155 -10.447,-8.009 -2.316,-5.09 -4.527,-9.054 -13.929,-14.277 -14.99,-8.327 -40.741,0.697 -47.009,2.786 -6.268,2.09 -21.241,5.92 -37.607,11.84 -16.366,5.918 -40.741,16.017 -63.375,30.991 -22.635,14.972 -40.393,31.339 -47.009,44.571 -6.617,13.232 -6.617,41.089 -6.964,71.384 -0.349,30.295 5.222,33.777 5.222,33.777 -16.714,-17.062 -23.678,5.919 -23.678,18.804 0,12.884 10.794,16.017 10.794,16.017 -10.446,-1.044 -18.462,1.681 -42.133,3.134 -29.198,1.79 -86.358,-18.107 -86.358,-18.107 14.974,-9.054 15.322,-19.152 13.233,-29.947 -2.09,-10.794 -21.242,-14.276 -28.205,-12.187 -6.965,2.089 -19.153,8.357 -32.037,11.143 -12.883,2.786 -21.241,5.571 -23.678,16.714 -2.438,11.143 10.795,24.375 10.795,24.375 -15.322,-2.437 -17.063,12.188 -14.974,17.063 2.09,4.875 5.571,11.142 8.009,16.714 2.437,5.571 3.482,8.706 10.795,15.67 7.312,6.965 16.017,-1.742 16.017,-1.742 -3.133,10.099 0.349,18.804 7.662,22.287 7.312,3.482 20.196,-2.09 33.428,-7.313 13.233,-5.224 18.108,-10.098 25.42,-17.759 7.313,-7.661 13.58,-11.143 16.018,-8.357 2.437,2.785 -11.143,10.446 -18.108,19.151 -6.964,8.706 -4.875,23.331 -3.134,30.644 1.742,7.312 7.662,7.66 7.662,7.66 -1.394,0.696 -5.573,2.09 -6.617,3.831 -1.045,1.74 -1.393,8.356 0,15.669 1.393,7.313 -0.348,17.76 -2.437,28.206 -2.09,10.446 -2.438,33.08 6.964,54.67 9.402,21.589 20.545,30.643 25.071,34.473 4.527,3.83 8.357,-1.045 8.357,-1.045 -3.133,2.09 -1.044,8.357 1.393,12.187 2.438,3.831 18.456,19.153 32.036,27.51 13.58,8.356 31.442,16.444 44.92,18.804 13.929,2.437 23.679,-10.795 23.679,-10.795 -3.483,7.312 1.392,13.58 13.58,19.151 12.187,5.571 24.027,7.313 32.384,7.661 8.357,0.348 14.973,-1.045 20.545,-6.267 5.571,-5.224 8.008,-2.09 8.705,0.347 0.696,2.438 1.741,8.009 5.571,10.447 3.831,2.437 29.599,12.187 51.188,16.018 21.589,3.83 56.063,4.527 68.251,4.527 12.187,0 46.66,-0.697 68.25,-4.527 21.588,-3.831 47.357,-13.581 51.187,-16.018 3.83,-2.438 4.875,-8.009 5.571,-10.447 0.697,-2.437 3.134,-5.571 8.705,-0.347 5.573,5.222 12.188,6.615 20.545,6.267 8.358,-0.348 20.197,-2.09 32.384,-7.661 12.188,-5.571 17.063,-11.839 13.581,-19.151 0,0 9.75,13.232 23.679,10.795 13.477,-2.36 31.339,-10.448 44.919,-18.804 13.581,-8.357 29.598,-23.679 32.036,-27.51 2.437,-3.83 4.526,-10.097 1.393,-12.187 0,0 3.83,4.875 8.357,1.045 4.527,-3.83 15.67,-12.884 25.071,-34.473 9.402,-21.59 9.054,-44.224 6.965,-54.67 -2.09,-10.446 -3.831,-20.893 -2.437,-28.206 1.392,-7.313 1.044,-13.929 0,-15.669 -1.045,-1.741 -5.224,-3.135 -6.617,-3.831 0,0 5.92,-0.348 7.661,-7.66 1.741,-7.313 3.83,-21.938 -3.134,-30.644 -6.964,-8.705 -20.544,-16.366 -18.107,-19.151 2.438,-2.786 8.705,0.696 16.018,8.357 7.312,7.661 12.187,12.535 25.42,17.759 13.231,5.223 26.116,10.795 33.428,7.313 7.313,-3.483 10.794,-12.188 7.661,-22.287 0,0 8.705,8.707 16.017,1.742 7.313,-6.964 8.358,-10.099 10.795,-15.67 2.438,-5.572 5.92,-11.839 8.009,-16.714 2.09,-4.875 0.349,-19.5 -14.973,-17.063 0,0 13.232,-13.232 10.794,-24.375 -2.437,-11.143 -10.794,-13.928 -23.678,-16.714 -12.884,-2.786 -25.072,-9.054 -32.036,-11.143 -6.964,-2.089 -26.116,1.393 -28.205,12.187 -2.09,10.795 -1.741,20.893 13.232,29.947 0,0 -57.161,19.897 -86.358,18.107 -23.67,-1.451 -31.687,-4.178 -42.133,-3.134 0,0 10.794,-3.133 10.794,-16.017 0,-12.885 -6.964,-35.866 -23.678,-18.804 0,0 5.571,-3.482 5.223,-33.777 -0.348,-30.295 -0.348,-58.152 -6.965,-71.384 -6.616,-13.232 -24.374,-29.599 -47.008,-44.571 -22.634,-14.974 -47.009,-25.073 -63.375,-30.991 -16.367,-5.92 -31.34,-9.75 -37.608,-11.84 -6.267,-2.089 -32.019,-11.113 -47.009,-2.786 -9.402,5.223 -11.612,9.188 -13.928,14.277 -1.755,3.854 -3.83,8.009 -10.446,8.009 z"
       style="fill:none;stroke:#231f20;stroke-width:0.75;stroke-linecap:round;stroke-linejoin:round;stroke-miterlimit:4;stroke-dasharray:none;stroke-opacity:1"
       id="path802" />
    <path
       d="m 873.591,649.937 c -5.92,0 -17.511,-2.199 -23.678,-5.223 -6.516,-3.194 -11.607,-5.455 -15.786,-8.589 -4.178,-3.134 -10.345,-7.385 -12.768,-9.169 -2.413,-1.779 -7.197,-4.875 -11.375,-6.617 -4.179,-1.741 -15.089,-6.965 -18.92,-9.053 -0.379,-0.207 -1.026,-0.589 -1.496,-0.871"
       style="fill:none;stroke:#231f20;stroke-width:0.5;stroke-linecap:butt;stroke-linejoin:miter;stroke-miterlimit:4;stroke-dasharray:none;stroke-opacity:1"
       id="path804" />
    <path
       d="m 588.055,614.303 c 5.108,1.858 11.142,3.25 19.964,0.465 8.822,-2.786 11.143,-4.18 24.607,-4.644"
       style="fill:none;stroke:#231f20;stroke-width:0.5;stroke-linecap:butt;stroke-linejoin:miter;stroke-miterlimit:4;stroke-dasharray:none;stroke-opacity:1"
       id="path806" />
    <path
       d="m 447.376,610.124 c 13.464,0.464 15.786,1.858 24.608,4.644 8.822,2.785 14.856,1.393 19.964,-0.465"
       style="fill:none;stroke:#231f20;stroke-width:0.5;stroke-linecap:butt;stroke-linejoin:miter;stroke-miterlimit:4;stroke-dasharray:none;stroke-opacity:1"
       id="path808" />
    <path
       d="m 667.176,521.074 c -0.816,-5.373 -11.42,-1.802 -13.828,1.999 -1.53,2.413 -1.203,4.045 -1.203,4.045 5.437,-3.406 15.031,-6.044 15.031,-6.044 z"
       style="fill:none;stroke:#231f20;stroke-width:0.5;stroke-linecap:butt;stroke-linejoin:miter;stroke-miterlimit:4;stroke-dasharray:none;stroke-opacity:1"
       id="path810" />
    <path
       d="m 412.827,521.074 c 0.816,-5.373 11.419,-1.802 13.828,1.999 1.53,2.413 1.202,4.045 1.202,4.045 -5.437,-3.406 -15.03,-6.044 -15.03,-6.044 z"
       style="fill:none;stroke:#231f20;stroke-width:0.5;stroke-linecap:butt;stroke-linejoin:miter;stroke-miterlimit:4;stroke-dasharray:none;stroke-opacity:1"
       id="path812" />
    <path
       d="m 643.036,608.694 c -1.704,3.984 -5.187,7.814 -12.151,9.208 -6.964,1.392 -20.545,3.134 -26.464,4.875 -5.919,1.741 -14.277,3.134 -16.714,11.839 -2.438,8.705 -2.786,13.58 -1.742,18.803 1.045,5.224 4.528,8.705 7.661,10.099 3.134,1.393 7.661,4.178 8.706,5.919 1.044,1.741 3.83,5.224 5.92,5.224 2.088,0 2.785,-2.438 3.482,-5.92 0.696,-3.483 3.83,-3.483 5.223,-4.875 0,0 7.661,8.705 14.277,13.928 6.615,5.224 19.848,12.884 23.679,6.965 1.261,-1.952 1.082,-6.91 -1.394,-11.143 -5.035,-8.611 -15.67,-18.318 -15.67,-22.285 0,0 4.179,1.392 8.358,1.74 0,0 2.955,5.474 8.706,3.135 9.982,-4.063 5.919,-10.795 5.919,-10.795 2.786,-3.483 6.616,-5.224 12.187,-6.617 5.592,-1.397 19.152,-1.739 23.331,-1.739 4.178,0 9.053,-2.091 11.143,-5.922 1.49,-2.733 6.267,-10.097 6.267,-10.097 1.742,3.133 -1.392,8.008 -0.696,14.972 0.451,4.519 8.821,11.956 18.107,3.831 9.453,-8.271 0.697,-17.411 -5.223,-22.982 -5.919,-5.571 -4.875,-8.705 -4.875,-8.705 2.09,-6.965 7.547,-11.961 9.402,-15.67 2.089,-4.179 -2.786,-5.92 -6.616,-6.965 -3.83,-1.044 -9.75,-2.437 -13.202,-3.396"
       style="fill:#ffffff;fill-opacity:1;fill-rule:nonzero;stroke:none;stroke-width:0.1"
       id="path814" />
    <path
       d="m 643.036,608.694 c -1.704,3.984 -5.187,7.814 -12.151,9.208 -6.964,1.392 -20.545,3.134 -26.464,4.875 -5.919,1.741 -14.277,3.134 -16.714,11.839 -2.438,8.705 -2.786,13.58 -1.742,18.803 1.045,5.224 4.528,8.705 7.661,10.099 3.134,1.393 7.661,4.178 8.706,5.919 1.044,1.741 3.83,5.224 5.92,5.224 2.088,0 2.785,-2.438 3.482,-5.92 0.696,-3.483 3.83,-3.483 5.223,-4.875 0,0 7.661,8.705 14.277,13.928 6.615,5.224 19.848,12.884 23.679,6.965 1.261,-1.952 1.082,-6.91 -1.394,-11.143 -5.035,-8.611 -15.67,-18.318 -15.67,-22.285 0,0 4.179,1.392 8.358,1.74 0,0 2.955,5.474 8.706,3.135 9.982,-4.063 5.919,-10.795 5.919,-10.795 2.786,-3.483 6.616,-5.224 12.187,-6.617 5.592,-1.397 19.152,-1.739 23.331,-1.739 4.178,0 9.053,-2.091 11.143,-5.922 1.49,-2.733 6.267,-10.097 6.267,-10.097 1.742,3.133 -1.392,8.008 -0.696,14.972 0.451,4.519 8.821,11.956 18.107,3.831 9.453,-8.271 0.697,-17.411 -5.223,-22.982 -5.919,-5.571 -4.875,-8.705 -4.875,-8.705 2.09,-6.965 7.547,-11.961 9.402,-15.67 2.089,-4.179 -2.786,-5.92 -6.616,-6.965 -3.83,-1.044 -9.75,-2.437 -13.202,-3.396"
       style="fill:none;stroke:#231f20;stroke-width:0.5;stroke-linecap:round;stroke-linejoin:round;stroke-miterlimit:4;stroke-dasharray:2.8, 1.8;stroke-dashoffset:0;stroke-opacity:1"
       id="path816" />
    <path
       d="m 543.704,416.783 c 7.672,0.199 31.816,-9.551 38.316,-18.605 6.499,-9.054 7.659,-15.322 8.588,-17.411"
       style="fill:none;stroke:#231f20;stroke-width:0.5;stroke-linecap:round;stroke-linejoin:round;stroke-miterlimit:4;stroke-dasharray:2.8, 1.8;stroke-dashoffset:0;stroke-opacity:1"
       id="path818" />
    <path
       d="m 598.741,367.735 c 0.231,-5.339 4.635,-23.646 21.282,-24.978 13.241,-1.059 19.335,7.366 28.389,11.313"
       style="fill:none;stroke:#231f20;stroke-width:0.5;stroke-linecap:round;stroke-linejoin:round;stroke-miterlimit:4;stroke-dasharray:2.8, 1.8;stroke-dashoffset:0;stroke-opacity:1"
       id="path820" />
    <path
       d="m 600.738,367.928 c 1.71,-2.018 21.675,0.536 40.246,9.589"
       style="fill:none;stroke:#231f20;stroke-width:0.5;stroke-linecap:round;stroke-linejoin:round;stroke-miterlimit:4;stroke-dasharray:2.8, 1.8;stroke-dashoffset:0;stroke-opacity:1"
       id="path822" />
    <path
       d="m 595.715,380.303 c 3.531,-0.73 10.911,-4.875 9.75,-8.357 -1.16,-3.482 -5.572,-5.339 -9.982,-3.482 -4.41,1.857 -12.536,6.268 -11.143,9.053 1.393,2.786 4.644,4.179 11.375,2.786 z"
       style="fill:none;stroke:#231f20;stroke-width:0.5;stroke-linecap:round;stroke-linejoin:round;stroke-miterlimit:4;stroke-dasharray:2.8, 1.8;stroke-dashoffset:0;stroke-opacity:1"
       id="path824" />
    <path
       d="m 554.858,483.142 c 4.644,-1.625 42.483,-6.966 34.126,31.802"
       style="fill:none;stroke:#231f20;stroke-width:0.5;stroke-linecap:round;stroke-linejoin:round;stroke-miterlimit:4;stroke-dasharray:2.8, 1.8;stroke-dashoffset:0;stroke-opacity:1"
       id="path826" />
    <path
       d="m 599.318,514.191 c 0,-27.857 30.522,-86.532 44.684,-108.585"
       style="fill:none;stroke:#231f20;stroke-width:0.5;stroke-linecap:round;stroke-linejoin:round;stroke-miterlimit:4;stroke-dasharray:2.8, 1.8;stroke-dashoffset:0;stroke-opacity:1"
       id="path828" />
    <path
       d="m 621.02,512.624 c 7.195,-19.268 21.589,-55.713 50.143,-83.107"
       style="fill:none;stroke:#231f20;stroke-width:0.5;stroke-linecap:round;stroke-linejoin:round;stroke-miterlimit:4;stroke-dasharray:2.8, 1.8;stroke-dashoffset:0;stroke-opacity:1"
       id="path830" />
    <path
       d="m 734.305,570.196 c 8.913,-3.488 17.642,-9.748 17.178,-15.785 -0.464,-6.037 -4.641,-8.822 -12.07,-2.786 -7.43,6.036 -18.573,12.072 -26,13.928 -7.429,1.858 -12.537,6.036 -5.573,7.429 6.965,1.392 15.786,1.392 26.465,-2.786 z"
       style="fill:none;stroke:#231f20;stroke-width:0.5;stroke-linecap:round;stroke-linejoin:round;stroke-miterlimit:4;stroke-dasharray:2.8, 1.8;stroke-dashoffset:0;stroke-opacity:1"
       id="path832" />
    <path
       d="m 552.217,524.202 c 6.588,-4.613 14.944,-8.327 27.945,-8.791 13.001,-0.465 23.41,-1.831 34.09,-1.831"
       style="fill:none;stroke:#231f20;stroke-width:0.5;stroke-linecap:round;stroke-linejoin:round;stroke-miterlimit:4;stroke-dasharray:2.8, 1.8;stroke-dashoffset:0;stroke-opacity:1"
       id="path834" />
    <path
       d="m 560.794,546.898 c 5.439,0.083 20.762,-3.166 25.404,-8.737 4.642,-5.573 4.641,-14.876 2.321,-17.198"
       style="fill:none;stroke:#231f20;stroke-width:0.5;stroke-linecap:round;stroke-linejoin:round;stroke-miterlimit:4;stroke-dasharray:2.8, 1.8;stroke-dashoffset:0;stroke-opacity:1"
       id="path836" />
    <path
       d="m 578.31,515.504 c 1.852,-0.093 6.494,2.227 17.173,10.584 10.679,8.358 24.968,18.904 32.931,51.377"
       style="fill:none;stroke:#231f20;stroke-width:0.5;stroke-linecap:round;stroke-linejoin:round;stroke-miterlimit:4;stroke-dasharray:2.8, 1.8;stroke-dashoffset:0;stroke-opacity:1"
       id="path838" />
    <path
       d="m 667.176,521.074 c 8.942,-2.292 13.041,-0.207 15.593,1.417 3.831,2.437 9.75,3.482 15.321,1.741"
       style="fill:none;stroke:#231f20;stroke-width:0.5;stroke-linecap:round;stroke-linejoin:round;stroke-miterlimit:4;stroke-dasharray:2.8, 1.8;stroke-dashoffset:7.5038;stroke-opacity:1"
       id="path840" />
    <path
       d="m 641.306,578.594 c -3.108,-4.567 -13.68,-38.578 8.383,-50.183 2.456,-1.293 1.263,-0.699 2.456,-1.293"
       style="fill:none;stroke:#231f20;stroke-width:0.5;stroke-linecap:round;stroke-linejoin:round;stroke-miterlimit:4;stroke-dasharray:2.8, 1.8;stroke-dashoffset:0;stroke-opacity:1"
       id="path842" />
    <path
       d="m 414.502,521.536 c -10.117,-3.012 -14.562,-0.767 -17.269,0.955 -3.83,2.437 -9.75,3.482 -15.321,1.741"
       style="fill:none;stroke:#231f20;stroke-width:0.5;stroke-linecap:round;stroke-linejoin:round;stroke-miterlimit:4;stroke-dasharray:2.8, 1.8;stroke-dashoffset:0;stroke-opacity:1"
       id="path844" />
    <path
       d="m 438.697,578.594 c 3.107,-4.567 13.554,-38.344 -8.384,-50.183 -1.293,-0.699 -2.536,-1.343 -3.73,-1.938"
       style="fill:none;stroke:#231f20;stroke-width:0.5;stroke-linecap:round;stroke-linejoin:round;stroke-miterlimit:4;stroke-dasharray:2.8, 1.8;stroke-dashoffset:0;stroke-opacity:1"
       id="path846" />
    <path
       d="m 700.181,551.851 c -3.135,1.282 -7.313,1.979 -7.662,-2.548 -0.348,-4.526 -1.741,-15.67 -1.741,-17.759 0,-2.089 -0.115,-6.092 2.775,-6.49"
       style="fill:none;stroke:#231f20;stroke-width:0.5;stroke-linecap:round;stroke-linejoin:round;stroke-miterlimit:4;stroke-dasharray:2.8, 1.8;stroke-dashoffset:0;stroke-opacity:1"
       id="path848" />
    <path
       d="m 649.689,528.411 c -5.571,0 -21.241,-3.135 -26.116,-4.875 -4.875,-1.742 -7.313,-3.483 -8.358,-5.573 -1.044,-2.089 -2.089,-5.222 0.697,-5.571 2.786,-0.348 12.884,0 7.661,11.144"
       style="fill:none;stroke:#231f20;stroke-width:0.5;stroke-linecap:round;stroke-linejoin:round;stroke-miterlimit:4;stroke-dasharray:2.8, 1.8;stroke-dashoffset:0;stroke-opacity:1"
       id="path850" />
    <path
       d="m 623.513,514.251 c 6.327,-5.689 34.185,-10.564 40.801,-10.564 6.616,0 14.974,-0.349 16.366,2.089 1.393,2.437 1.527,12.598 -9.335,14.482"
       style="fill:none;stroke:#231f20;stroke-width:0.5;stroke-linecap:round;stroke-linejoin:round;stroke-miterlimit:4;stroke-dasharray:2.8, 1.8;stroke-dashoffset:7.5038;stroke-opacity:1"
       id="path852" />
    <path
       d="m 658.416,504.204 c 2.416,-8.178 21.01,-20.98 29.577,-29.071 6.267,-5.92 7.66,-11.839 10.446,-20.196 2.786,-8.357 5.571,-21.241 5.571,-26.465 0,-5.222 1.125,-7.434 4.179,-10.794 3.482,-3.831 6.268,-5.92 10.785,-6.841"
       style="fill:none;stroke:#231f20;stroke-width:0.5;stroke-linecap:round;stroke-linejoin:round;stroke-miterlimit:4;stroke-dasharray:2.8, 1.8;stroke-dashoffset:0;stroke-opacity:1"
       id="path854" />
    <path
       d="m 690.804,472.087 c 4.849,0.261 13.562,4.659 23.883,30.388"
       style="fill:none;stroke:#231f20;stroke-width:0.5;stroke-linecap:round;stroke-linejoin:round;stroke-miterlimit:4;stroke-dasharray:2.8, 1.8;stroke-dashoffset:0;stroke-opacity:1"
       id="path856" />
    <path
       d="m 712.707,504.997 c -3.477,4.48 -10.438,6.699 -16.705,6.003 -6.268,-0.697 -14.626,-1.393 -15.67,-10.447 -1.044,-9.053 3.138,-18.896 8.36,-26.113"
       style="fill:none;stroke:#231f20;stroke-width:0.5;stroke-linecap:round;stroke-linejoin:round;stroke-miterlimit:4;stroke-dasharray:2.8, 1.8;stroke-dashoffset:0;stroke-opacity:1"
       id="path858" />
    <path
       d="m 658.743,415.241 c 4.564,1.261 11.142,-3.134 9.401,-9.75 -1.741,-6.617 -8.255,-10.575 -12.535,-10.099 -6.269,0.696 -8.533,16.622 3.134,19.849 z"
       style="fill:none;stroke:#231f20;stroke-width:0.5;stroke-linecap:round;stroke-linejoin:round;stroke-miterlimit:4;stroke-dasharray:2.8, 1.8;stroke-dashoffset:0;stroke-opacity:1"
       id="path860" />
    <path
       d="m 659.876,424.909 c -2.044,-2.042 -2.874,-6.883 -1.133,-9.668"
       style="fill:none;stroke:#231f20;stroke-width:0.5;stroke-linecap:round;stroke-linejoin:round;stroke-miterlimit:4;stroke-dasharray:2.8, 1.8;stroke-dashoffset:0;stroke-opacity:1"
       id="path862" />
    <path
       d="m 668.144,405.491 c 4.875,0.347 12.536,-2.09 15.67,-5.224"
       style="fill:none;stroke:#231f20;stroke-width:0.5;stroke-linecap:round;stroke-linejoin:round;stroke-miterlimit:4;stroke-dasharray:2.8, 1.8;stroke-dashoffset:0;stroke-opacity:1"
       id="path864" />
    <path
       d="m 658.148,395.568 c 1.045,-3.483 3.728,-6.792 7.211,-8.881 3.481,-2.09 13.58,-7.313 17.41,-8.009 3.831,-0.697 7.661,-1.045 9.75,4.178"
       style="fill:none;stroke:#231f20;stroke-width:0.5;stroke-linecap:round;stroke-linejoin:round;stroke-miterlimit:4;stroke-dasharray:2.8, 1.8;stroke-dashoffset:0;stroke-opacity:1"
       id="path866" />
    <path
       d="m 708.189,406.883 c -3.134,1.741 -11.491,5.224 -16.714,2.089 -5.223,-3.134 -9.054,-6.964 -6.965,-12.884 2.09,-5.92 5.224,-13.928 10.099,-13.928 4.875,0 9.206,3.77 12.071,10.562"
       style="fill:none;stroke:#231f20;stroke-width:0.5;stroke-linecap:round;stroke-linejoin:round;stroke-miterlimit:4;stroke-dasharray:2.8, 1.8;stroke-dashoffset:0;stroke-opacity:1"
       id="path868" />
    <path
       d="m 683.118,421.857 c 1.844,1.433 9.75,-0.697 13.232,-2.438 3.482,-1.741 7.677,-6.096 3.482,-7.661 -4.195,-1.564 -10.447,-2.437 -13.232,-1.392 -2.786,1.044 -6.616,9.053 -3.482,11.491 z"
       style="fill:none;stroke:#231f20;stroke-width:0.5;stroke-linecap:round;stroke-linejoin:round;stroke-miterlimit:4;stroke-dasharray:2.8, 1.8;stroke-dashoffset:0;stroke-opacity:1"
       id="path870" />
    <path
       d="m 665.01,429.169 c 1.395,1.705 4.875,0.697 8.009,-0.348 3.134,-1.045 6.269,-3.134 5.92,-4.875 -0.349,-1.741 -4.135,-1.185 -6.964,-0.696 -3.347,0.578 -11.143,0.811 -6.965,5.919 z"
       style="fill:none;stroke:#231f20;stroke-width:0.5;stroke-linecap:round;stroke-linejoin:round;stroke-miterlimit:4;stroke-dasharray:2.8, 1.8;stroke-dashoffset:0;stroke-opacity:1"
       id="path872" />
    <path
       d="m 644.427,608.349 c 0.735,4.329 6.561,9.406 12.226,9.204 9.75,-0.347 32.732,-10.795 42.831,-14.973 10.098,-4.178 30.364,-14.367 30.364,-14.367"
       style="fill:none;stroke:#231f20;stroke-width:0.5;stroke-linecap:round;stroke-linejoin:round;stroke-miterlimit:4;stroke-dasharray:2.8, 1.8;stroke-dashoffset:0;stroke-opacity:1"
       id="path874" />
    <path
       d="m 713.76,621.036 c 1.742,-3.134 5.8,-9.116 7.313,-12.884"
       style="fill:none;stroke:#231f20;stroke-width:0.5;stroke-linecap:round;stroke-linejoin:round;stroke-miterlimit:4;stroke-dasharray:2.8, 1.8;stroke-dashoffset:0;stroke-opacity:1"
       id="path876" />
    <path
       d="m 646.207,653.071 c -2.438,-3.83 -4.854,-23.766 7.323,-35.909"
       style="fill:none;stroke:#231f20;stroke-width:0.5;stroke-linecap:round;stroke-linejoin:round;stroke-miterlimit:4;stroke-dasharray:2.8, 1.8;stroke-dashoffset:0;stroke-opacity:1"
       id="path878" />
    <path
       d="m 646.207,653.071 c -4.179,-7.08 9.169,-14.857 14.625,-7.66"
       style="fill:none;stroke:#231f20;stroke-width:0.5;stroke-linecap:round;stroke-linejoin:round;stroke-miterlimit:4;stroke-dasharray:2.8, 1.8;stroke-dashoffset:0;stroke-opacity:1"
       id="path880" />
    <path
       d="m 637.849,651.331 c -4.526,-4.528 -7.66,-5.573 -9.401,-8.707 -1.741,-3.133 -16.018,-17.758 -24.027,-19.847"
       style="fill:none;stroke:#231f20;stroke-width:0.5;stroke-linecap:round;stroke-linejoin:round;stroke-miterlimit:4;stroke-dasharray:2.8, 1.8;stroke-dashoffset:0;stroke-opacity:1"
       id="path882" />
    <path
       d="m 616.957,663.866 c 3.133,-2.089 3.482,-5.572 3.83,-9.054 0.348,-3.481 -2.906,-13.795 9.168,-10.205"
       style="fill:none;stroke:#231f20;stroke-width:0.5;stroke-linecap:round;stroke-linejoin:round;stroke-miterlimit:4;stroke-dasharray:2.8, 1.8;stroke-dashoffset:0;stroke-opacity:1"
       id="path884" />
    <path
       d="m 436.966,608.694 c 1.704,3.984 5.187,7.814 12.151,9.208 6.965,1.392 20.545,3.134 26.465,4.875 5.919,1.741 14.276,3.134 16.713,11.839 2.438,8.705 2.787,13.58 1.742,18.803 -1.045,5.224 -4.527,8.705 -7.661,10.099 -3.134,1.393 -7.661,4.178 -8.706,5.919 -1.044,1.741 -3.83,5.224 -5.919,5.224 -2.089,0 -2.786,-2.438 -3.482,-5.92 -0.696,-3.483 -3.83,-3.483 -5.224,-4.875 0,0 -7.66,8.705 -14.276,13.928 -6.616,5.224 -19.849,12.884 -23.679,6.965 -1.262,-1.952 -1.083,-6.91 1.393,-11.143 5.036,-8.611 15.67,-18.318 15.67,-22.285 0,0 -4.179,1.392 -8.358,1.74 0,0 -2.954,5.474 -8.705,3.135 -9.982,-4.063 -5.92,-10.795 -5.92,-10.795 -2.785,-3.483 -6.616,-5.224 -12.187,-6.617 -5.592,-1.397 -19.151,-1.739 -23.33,-1.739 -4.179,0 -9.054,-2.091 -11.143,-5.922 -1.491,-2.733 -6.268,-10.097 -6.268,-10.097 -1.742,3.133 1.393,8.008 0.696,14.972 -0.451,4.519 -8.82,11.956 -18.106,3.831 -9.453,-8.271 -0.698,-17.411 5.222,-22.982 5.92,-5.571 4.875,-8.705 4.875,-8.705 -2.089,-6.965 -7.546,-11.961 -9.401,-15.67 -2.09,-4.179 2.785,-5.92 6.616,-6.965 3.83,-1.044 9.75,-2.437 13.202,-3.396"
       style="fill:#ffffff;fill-opacity:1;fill-rule:nonzero;stroke:none;stroke-width:0.1"
       id="path886" />
    <path
       d="m 436.966,608.694 c 1.704,3.984 5.187,7.814 12.151,9.208 6.965,1.392 20.545,3.134 26.465,4.875 5.919,1.741 14.276,3.134 16.713,11.839 2.438,8.705 2.787,13.58 1.742,18.803 -1.045,5.224 -4.527,8.705 -7.661,10.099 -3.134,1.393 -7.661,4.178 -8.706,5.919 -1.044,1.741 -3.83,5.224 -5.919,5.224 -2.089,0 -2.786,-2.438 -3.482,-5.92 -0.696,-3.483 -3.83,-3.483 -5.224,-4.875 0,0 -7.66,8.705 -14.276,13.928 -6.616,5.224 -19.849,12.884 -23.679,6.965 -1.262,-1.952 -1.083,-6.91 1.393,-11.143 5.036,-8.611 15.67,-18.318 15.67,-22.285 0,0 -4.179,1.392 -8.358,1.74 0,0 -2.954,5.474 -8.705,3.135 -9.982,-4.063 -5.92,-10.795 -5.92,-10.795 -2.785,-3.483 -6.616,-5.224 -12.187,-6.617 -5.592,-1.397 -19.151,-1.739 -23.33,-1.739 -4.179,0 -9.054,-2.091 -11.143,-5.922 -1.491,-2.733 -6.268,-10.097 -6.268,-10.097 -1.742,3.133 1.393,8.008 0.696,14.972 -0.451,4.519 -8.82,11.956 -18.106,3.831 -9.453,-8.271 -0.698,-17.411 5.222,-22.982 5.92,-5.571 4.875,-8.705 4.875,-8.705 -2.089,-6.965 -7.546,-11.961 -9.401,-15.67 -2.09,-4.179 2.785,-5.92 6.616,-6.965 3.83,-1.044 9.75,-2.437 13.202,-3.396"
       style="fill:none;stroke:#231f20;stroke-width:0.5;stroke-linecap:round;stroke-linejoin:round;stroke-miterlimit:4;stroke-dasharray:2.8, 1.8;stroke-dashoffset:0;stroke-opacity:1"
       id="path888" />
    <path
       d="m 495.647,359.662 c -0.479,6.521 6.515,15.534 19.979,26.212 13.465,10.68 19.964,10.911 24.376,10.911 4.409,0 10.91,-0.231 24.374,-10.911 13.465,-10.678 20.458,-19.69 19.979,-26.21"
       style="fill:none;stroke:#231f20;stroke-width:0.5;stroke-linecap:round;stroke-linejoin:round;stroke-miterlimit:4;stroke-dasharray:2.8, 1.8;stroke-dashoffset:0;stroke-opacity:1"
       id="path890" />
    <path
       d="m 540.002,405.142 c -6.965,12.07 -3.252,30.874 -3.018,35.284 0.232,4.41 1.392,5.572 3.018,5.572 1.624,0 2.785,-1.161 3.016,-5.571 0.234,-4.409 3.947,-23.213 -3.016,-35.285 z"
       style="fill:none;stroke:#231f20;stroke-width:0.5;stroke-linecap:round;stroke-linejoin:round;stroke-miterlimit:4;stroke-dasharray:2.8, 1.8;stroke-dashoffset:0.25;stroke-opacity:1"
       id="path892" />
    <path
       d="m 536.299,416.783 c -7.673,0.199 -31.817,-9.551 -38.316,-18.605 -6.499,-9.054 -7.659,-15.322 -8.589,-17.411"
       style="fill:none;stroke:#231f20;stroke-width:0.5;stroke-linecap:round;stroke-linejoin:round;stroke-miterlimit:4;stroke-dasharray:2.8, 1.8;stroke-dashoffset:0;stroke-opacity:1"
       id="path894" />
    <path
       d="m 481.261,367.734 c -0.23,-5.338 -4.635,-23.647 -21.281,-24.977 -13.242,-1.06 -19.336,7.365 -28.39,11.312"
       style="fill:none;stroke:#231f20;stroke-width:0.5;stroke-linecap:round;stroke-linejoin:round;stroke-miterlimit:4;stroke-dasharray:2.8, 1.8;stroke-dashoffset:0;stroke-opacity:1"
       id="path896" />
    <path
       d="m 479.265,367.926 c -1.71,-2.018 -21.675,0.536 -40.246,9.59"
       style="fill:none;stroke:#231f20;stroke-width:0.5;stroke-linecap:round;stroke-linejoin:round;stroke-miterlimit:4;stroke-dasharray:2.8, 1.8;stroke-dashoffset:0;stroke-opacity:1"
       id="path898" />
    <path
       d="m 484.287,380.302 c -3.53,-0.729 -10.911,-4.875 -9.75,-8.357 1.16,-3.483 5.573,-5.338 9.982,-3.483 4.41,1.859 12.536,6.269 11.144,9.054 -1.394,2.786 -4.645,4.179 -11.376,2.786 z"
       style="fill:none;stroke:#231f20;stroke-width:0.5;stroke-linecap:round;stroke-linejoin:round;stroke-miterlimit:4;stroke-dasharray:2.8, 1.8;stroke-dashoffset:0;stroke-opacity:1"
       id="path900" />
    <path
       d="m 525.144,483.142 c -4.643,-1.627 -42.482,-6.967 -34.126,31.802"
       style="fill:none;stroke:#231f20;stroke-width:0.5;stroke-linecap:round;stroke-linejoin:round;stroke-miterlimit:4;stroke-dasharray:2.8, 1.8;stroke-dashoffset:0;stroke-opacity:1"
       id="path902" />
    <path
       d="m 480.685,514.191 c 0,-27.857 -30.523,-86.532 -44.685,-108.586"
       style="fill:none;stroke:#231f20;stroke-width:0.5;stroke-linecap:round;stroke-linejoin:round;stroke-miterlimit:4;stroke-dasharray:2.8, 1.8;stroke-dashoffset:0;stroke-opacity:1"
       id="path904" />
    <path
       d="m 458.983,512.624 c -7.195,-19.269 -21.59,-55.714 -50.144,-83.107"
       style="fill:none;stroke:#231f20;stroke-width:0.5;stroke-linecap:round;stroke-linejoin:round;stroke-miterlimit:4;stroke-dasharray:2.8, 1.8;stroke-dashoffset:0;stroke-opacity:1"
       id="path906" />
    <path
       d="m 345.697,570.196 c -8.913,-3.488 -17.642,-9.75 -17.178,-15.786 0.464,-6.037 4.641,-8.821 12.07,-2.786 7.43,6.037 18.573,12.073 26.001,13.928 7.428,1.859 12.536,6.037 5.572,7.43 -6.965,1.392 -15.786,1.392 -26.465,-2.786 z"
       style="fill:none;stroke:#231f20;stroke-width:0.5;stroke-linecap:round;stroke-linejoin:round;stroke-miterlimit:4;stroke-dasharray:2.8, 1.8;stroke-dashoffset:0;stroke-opacity:1"
       id="path908" />
    <path
       d="m 527.785,524.202 c -6.587,-4.614 -14.944,-8.328 -27.944,-8.792 -13.001,-0.466 -23.411,-1.831 -34.09,-1.831"
       style="fill:none;stroke:#231f20;stroke-width:0.5;stroke-linecap:round;stroke-linejoin:round;stroke-miterlimit:4;stroke-dasharray:2.8, 1.8;stroke-dashoffset:0;stroke-opacity:1"
       id="path910" />
    <path
       d="m 519.208,546.898 c -5.439,0.082 -20.761,-3.166 -25.404,-8.737 -4.642,-5.573 -4.64,-14.876 -2.32,-17.2"
       style="fill:none;stroke:#231f20;stroke-width:0.5;stroke-linecap:round;stroke-linejoin:round;stroke-miterlimit:4;stroke-dasharray:2.8, 1.8;stroke-dashoffset:0;stroke-opacity:1"
       id="path912" />
    <path
       d="m 501.692,515.504 c -1.851,-0.094 -6.493,2.226 -17.173,10.583 -10.679,8.357 -24.968,18.905 -32.931,51.378"
       style="fill:none;stroke:#231f20;stroke-width:0.5;stroke-linecap:round;stroke-linejoin:round;stroke-miterlimit:4;stroke-dasharray:2.8, 1.8;stroke-dashoffset:0;stroke-opacity:1"
       id="path914" />
    <path
       d="m 379.821,551.849 c 3.136,1.284 7.314,1.981 7.662,-2.546 0.349,-4.526 1.741,-15.67 1.741,-17.759 0,-2.089 0.115,-6.093 -2.774,-6.491"
       style="fill:none;stroke:#231f20;stroke-width:0.5;stroke-linecap:round;stroke-linejoin:round;stroke-miterlimit:4;stroke-dasharray:2.8, 1.8;stroke-dashoffset:0;stroke-opacity:1"
       id="path916" />
    <path
       d="m 430.313,528.411 c 5.572,0 21.241,-3.135 26.116,-4.875 4.875,-1.742 7.313,-3.483 8.358,-5.573 1.045,-2.089 2.089,-5.222 -0.697,-5.571 -2.786,-0.348 -12.883,0 -7.661,11.144"
       style="fill:none;stroke:#231f20;stroke-width:0.5;stroke-linecap:round;stroke-linejoin:round;stroke-miterlimit:4;stroke-dasharray:2.8, 1.8;stroke-dashoffset:0;stroke-opacity:1"
       id="path918" />
    <path
       d="m 456.49,514.25 c -6.328,-5.688 -34.186,-10.563 -40.802,-10.563 -6.615,0 -14.973,-0.349 -16.365,2.089 -1.394,2.437 -1.527,12.598 9.335,14.481"
       style="fill:none;stroke:#231f20;stroke-width:0.5;stroke-linecap:round;stroke-linejoin:round;stroke-miterlimit:4;stroke-dasharray:2.8, 1.8;stroke-dashoffset:0;stroke-opacity:1"
       id="path920" />
    <path
       d="m 421.586,504.204 c -2.416,-8.178 -21.009,-20.98 -29.576,-29.071 -6.268,-5.92 -7.661,-11.839 -10.447,-20.196 -2.785,-8.357 -5.571,-21.241 -5.571,-26.465 0,-5.222 -1.125,-7.434 -4.179,-10.794 -3.481,-3.831 -6.268,-5.92 -10.785,-6.842"
       style="fill:none;stroke:#231f20;stroke-width:0.5;stroke-linecap:round;stroke-linejoin:round;stroke-miterlimit:4;stroke-dasharray:2.8, 1.8;stroke-dashoffset:0;stroke-opacity:1"
       id="path922" />
    <path
       d="m 389.199,472.086 c -4.85,0.262 -13.562,4.658 -23.883,30.388"
       style="fill:none;stroke:#231f20;stroke-width:0.5;stroke-linecap:round;stroke-linejoin:round;stroke-miterlimit:4;stroke-dasharray:2.8, 1.8;stroke-dashoffset:0;stroke-opacity:1"
       id="path924" />
    <path
       d="m 367.296,504.996 c 3.477,4.48 10.437,6.7 16.704,6.004 6.269,-0.697 14.626,-1.393 15.67,-10.447 1.045,-9.053 -3.137,-18.896 -8.359,-26.113"
       style="fill:none;stroke:#231f20;stroke-width:0.5;stroke-linecap:round;stroke-linejoin:round;stroke-miterlimit:4;stroke-dasharray:2.8, 1.8;stroke-dashoffset:0;stroke-opacity:1"
       id="path926" />
    <path
       d="m 421.26,415.241 c -4.565,1.261 -11.143,-3.134 -9.402,-9.75 1.741,-6.617 8.255,-10.575 12.536,-10.099 6.268,0.696 8.532,16.622 -3.134,19.849 z"
       style="fill:none;stroke:#231f20;stroke-width:0.5;stroke-linecap:round;stroke-linejoin:round;stroke-miterlimit:4;stroke-dasharray:2.8, 1.8;stroke-dashoffset:0;stroke-opacity:1"
       id="path928" />
    <path
       d="m 420.126,424.909 c 2.043,-2.043 2.874,-6.883 1.134,-9.668"
       style="fill:none;stroke:#231f20;stroke-width:0.5;stroke-linecap:round;stroke-linejoin:round;stroke-miterlimit:4;stroke-dasharray:2.8, 1.8;stroke-dashoffset:0;stroke-opacity:1"
       id="path930" />
    <path
       d="m 411.858,405.491 c -4.875,0.347 -12.535,-2.09 -15.67,-5.224"
       style="fill:none;stroke:#231f20;stroke-width:0.5;stroke-linecap:round;stroke-linejoin:round;stroke-miterlimit:4;stroke-dasharray:2.8, 1.8;stroke-dashoffset:0;stroke-opacity:1"
       id="path932" />
    <path
       d="m 421.854,395.566 c -1.044,-3.482 -3.728,-6.79 -7.21,-8.879 -3.482,-2.09 -13.581,-7.313 -17.411,-8.009 -3.83,-0.697 -7.66,-1.045 -9.75,4.178"
       style="fill:none;stroke:#231f20;stroke-width:0.5;stroke-linecap:round;stroke-linejoin:round;stroke-miterlimit:4;stroke-dasharray:2.8, 1.8;stroke-dashoffset:0;stroke-opacity:1"
       id="path934" />
    <path
       d="m 371.813,406.883 c 3.135,1.741 11.491,5.224 16.715,2.089 5.222,-3.134 9.054,-6.964 6.964,-12.884 -2.089,-5.92 -5.223,-13.928 -10.098,-13.928 -4.875,0 -9.206,3.77 -12.072,10.56"
       style="fill:none;stroke:#231f20;stroke-width:0.5;stroke-linecap:round;stroke-linejoin:round;stroke-miterlimit:4;stroke-dasharray:2.8, 1.8;stroke-dashoffset:0;stroke-opacity:1"
       id="path936" />
    <path
       d="m 396.885,421.857 c -1.844,1.433 -9.75,-0.697 -13.232,-2.438 -3.483,-1.741 -7.677,-6.096 -3.483,-7.661 4.196,-1.564 10.447,-2.437 13.233,-1.392 2.785,1.044 6.616,9.053 3.482,11.491 z"
       style="fill:none;stroke:#231f20;stroke-width:0.5;stroke-linecap:round;stroke-linejoin:round;stroke-miterlimit:4;stroke-dasharray:2.8, 1.8;stroke-dashoffset:0;stroke-opacity:1"
       id="path938" />
    <path
       d="m 414.992,429.169 c -1.394,1.703 -4.875,0.697 -8.009,-0.348 -3.134,-1.045 -6.268,-3.134 -5.92,-4.875 0.349,-1.741 4.136,-1.187 6.965,-0.696 3.346,0.576 11.142,0.81 6.964,5.919 z"
       style="fill:none;stroke:#231f20;stroke-width:0.5;stroke-linecap:round;stroke-linejoin:round;stroke-miterlimit:4;stroke-dasharray:2.8, 1.8;stroke-dashoffset:0;stroke-opacity:1"
       id="path940" />
    <path
       d="m 435.575,608.349 c -0.735,4.329 -6.561,9.406 -12.226,9.204 -9.75,-0.347 -32.732,-10.795 -42.83,-14.973 -10.099,-4.178 -30.364,-14.367 -30.364,-14.367"
       style="fill:none;stroke:#231f20;stroke-width:0.5;stroke-linecap:round;stroke-linejoin:round;stroke-miterlimit:4;stroke-dasharray:2.8, 1.8;stroke-dashoffset:0;stroke-opacity:1"
       id="path942" />
    <path
       d="m 366.242,621.036 c -1.742,-3.134 -5.8,-9.116 -7.313,-12.884"
       style="fill:none;stroke:#231f20;stroke-width:0.5;stroke-linecap:round;stroke-linejoin:round;stroke-miterlimit:4;stroke-dasharray:2.8, 1.8;stroke-dashoffset:0;stroke-opacity:1"
       id="path944" />
    <path
       d="m 433.795,653.071 c 2.438,-3.83 4.854,-23.766 -7.323,-35.909"
       style="fill:none;stroke:#231f20;stroke-width:0.5;stroke-linecap:round;stroke-linejoin:round;stroke-miterlimit:4;stroke-dasharray:2.8, 1.8;stroke-dashoffset:0;stroke-opacity:1"
       id="path946" />
    <path
       d="m 433.795,653.071 c 4.179,-7.08 -9.169,-14.857 -14.625,-7.66"
       style="fill:none;stroke:#231f20;stroke-width:0.5;stroke-linecap:round;stroke-linejoin:round;stroke-miterlimit:4;stroke-dasharray:2.8, 1.8;stroke-dashoffset:0;stroke-opacity:1"
       id="path948" />
    <path
       d="m 442.153,651.331 c 4.526,-4.528 7.661,-5.573 9.401,-8.707 1.741,-3.133 16.019,-17.758 24.028,-19.847"
       style="fill:none;stroke:#231f20;stroke-width:0.5;stroke-linecap:round;stroke-linejoin:round;stroke-miterlimit:4;stroke-dasharray:2.8, 1.8;stroke-dashoffset:0;stroke-opacity:1"
       id="path950" />
    <path
       d="m 463.045,663.866 c -3.133,-2.089 -3.481,-5.572 -3.83,-9.054 -0.348,-3.481 2.906,-13.795 -9.168,-10.205"
       style="fill:none;stroke:#231f20;stroke-width:0.5;stroke-linecap:round;stroke-linejoin:round;stroke-miterlimit:4;stroke-dasharray:2.8, 1.8;stroke-dashoffset:0;stroke-opacity:1"
       id="path952" />
    <path
       d="m 549.752,516.223 c 2.088,0 4.526,-7.661 0.347,-7.661 -4.179,0 -2.437,7.661 -0.347,7.661 z"
       style="fill:none;stroke:#231f20;stroke-width:0.5;stroke-linecap:round;stroke-linejoin:round;stroke-miterlimit:4;stroke-dasharray:2.8, 1.8;stroke-dashoffset:0;stroke-opacity:1"
       id="path954" />
    <path
       d="m 530.252,516.223 c -2.09,0 -4.528,-7.661 -0.349,-7.661 4.179,0 2.437,7.661 0.349,7.661 z"
       style="fill:none;stroke:#231f20;stroke-width:0.5;stroke-linecap:round;stroke-linejoin:round;stroke-miterlimit:4;stroke-dasharray:2.8, 1.8;stroke-dashoffset:0;stroke-opacity:1"
       id="path956" />
    <path
       d="m 582.611,397.337 c 2.891,3.394 37.249,15.233 61.391,8.269"
       style="fill:none;stroke:#231f20;stroke-width:0.5;stroke-linecap:round;stroke-linejoin:round;stroke-miterlimit:4;stroke-dasharray:2.8, 1.8;stroke-dashoffset:0;stroke-opacity:1"
       id="path958" />
    <path
       d="M 497.391,397.337 C 494.5,400.73 460.143,412.569 436,405.605"
       style="fill:none;stroke:#231f20;stroke-width:0.5;stroke-linecap:round;stroke-linejoin:round;stroke-miterlimit:4;stroke-dasharray:2.8, 1.8;stroke-dashoffset:0;stroke-opacity:1"
       id="path960" />
    <path
       d="m 537.435,373.569 c 0.183,3.373 0.245,5.971 0.245,6.733 0,2.554 0.232,4.179 2.322,4.179 2.088,0 2.32,-1.623 2.32,-4.178 0,-0.758 0.061,-3.328 0.242,-6.671"
       style="fill:none;stroke:#231f20;stroke-width:0.5;stroke-linecap:round;stroke-linejoin:round;stroke-miterlimit:4;stroke-dasharray:2.8, 1.8;stroke-dashoffset:0;stroke-opacity:1"
       id="path962" />
    <path
       d="m 629.182,525.091 c 0.751,-3.455 6.339,-6.061 10.379,-4.668 4.037,1.396 5.692,5.43 5.561,7.624"
       style="fill:none;stroke:#231f20;stroke-width:0.5;stroke-linecap:round;stroke-linejoin:round;stroke-miterlimit:4;stroke-dasharray:2.8, 1.8;stroke-dashoffset:0;stroke-opacity:1"
       id="path964" />
    <path
       d="m 637.312,520.025 c 0.02,-2.388 2.945,-8.933 6.985,-9.349 4.039,-0.419 8.636,2.786 12.533,9.611"
       style="fill:none;stroke:#231f20;stroke-width:0.5;stroke-linecap:round;stroke-linejoin:round;stroke-miterlimit:4;stroke-dasharray:2.8, 1.8;stroke-dashoffset:0;stroke-opacity:1"
       id="path966" />
    <path
       d="m 662.323,516.511 c 0.359,-2.908 4.661,-10.325 18.727,-9.781"
       style="fill:none;stroke:#231f20;stroke-width:0.5;stroke-linecap:round;stroke-linejoin:round;stroke-miterlimit:4;stroke-dasharray:2.8, 1.8;stroke-dashoffset:0;stroke-opacity:1"
       id="path968" />
    <path
       d="m 644.297,510.676 -0.29,-3.884"
       style="fill:none;stroke:#231f20;stroke-width:0.5;stroke-linecap:round;stroke-linejoin:round;stroke-miterlimit:4;stroke-dasharray:2.8, 1.8;stroke-dashoffset:0;stroke-opacity:1"
       id="path970" />
    <path
       d="m 450.82,525.091 c -0.751,-3.455 -6.338,-6.061 -10.378,-4.668 -4.037,1.396 -5.692,5.43 -5.561,7.624"
       style="fill:none;stroke:#231f20;stroke-width:0.5;stroke-linecap:round;stroke-linejoin:round;stroke-miterlimit:4;stroke-dasharray:2.8, 1.8;stroke-dashoffset:0;stroke-opacity:1"
       id="path972" />
    <path
       d="m 442.69,520.025 c -0.019,-2.388 -2.944,-8.933 -6.984,-9.349 -4.04,-0.419 -8.636,2.786 -12.534,9.611"
       style="fill:none;stroke:#231f20;stroke-width:0.5;stroke-linecap:round;stroke-linejoin:round;stroke-miterlimit:4;stroke-dasharray:2.8, 1.8;stroke-dashoffset:0;stroke-opacity:1"
       id="path974" />
    <path
       d="m 417.68,516.511 c -0.359,-2.908 -4.662,-10.325 -18.727,-9.781"
       style="fill:none;stroke:#231f20;stroke-width:0.5;stroke-linecap:round;stroke-linejoin:round;stroke-miterlimit:4;stroke-dasharray:2.8, 1.8;stroke-dashoffset:0;stroke-opacity:1"
       id="path976" />
    <path
       d="m 435.706,510.676 0.289,-3.884"
       style="fill:none;stroke:#231f20;stroke-width:0.5;stroke-linecap:round;stroke-linejoin:round;stroke-miterlimit:4;stroke-dasharray:2.8, 1.8;stroke-dashoffset:0;stroke-opacity:1"
       id="path978" />
    <path
       d="m 620.09,784.697 c 5.983,0.92 9.286,-6.501 -1.392,-13.001 -10.679,-6.499 -15.322,-8.357 -18.108,-2.785 -2.785,5.571 13.465,14.857 19.5,15.786"
       style="fill:#ffffff;fill-opacity:1;fill-rule:nonzero;stroke:none;stroke-width:0.1"
       id="path980" />
    <path
       d="m 620.09,784.697 c 5.983,0.92 9.286,-6.501 -1.392,-13.001 -10.679,-6.499 -15.322,-8.357 -18.108,-2.785 -2.785,5.571 13.465,14.857 19.5,15.786 z"
       style="fill:none;stroke:#231f20;stroke-width:0.75;stroke-linecap:round;stroke-linejoin:round;stroke-miterlimit:4;stroke-dasharray:0, 2;stroke-dashoffset:0;stroke-opacity:1"
       id="path982" />
    <path
       d="m 789.568,610.415 c -1.986,-4.353 -7.209,-8.879 -11.736,-11.665 -4.527,-2.786 -8.357,-6.268 -12.884,-7.313 -4.527,-1.045 -9.75,-1.741 -9.75,-5.223 0,-3.482 0.696,-5.92 6.616,-6.964 5.92,-1.045 9.402,3.133 12.536,-1.045 3.134,-4.178 6.964,-10.098 17.759,-6.268 10.795,3.83 9.054,19.5 9.401,24.724 0.349,5.222 7.313,8.705 10.795,10.097 3.483,1.394 17.759,9.054 25.071,16.715 7.313,7.66 12.537,12.188 19.153,15.67 6.616,3.481 13.58,4.526 15.67,-0.349 2.089,-4.875 1.74,-16.017 -5.573,-23.33 -7.312,-7.312 -10.968,-12.187 -16.713,-15.322 -4.377,-2.387 -10.795,-5.919 -3.483,-10.794 7.313,-4.875 11.84,-3.482 17.411,-1.741 5.572,1.741 10.098,3.482 18.455,9.054 8.358,5.571 20.545,12.187 27.162,14.972 6.616,2.786 17.758,8.01 21.241,3.831 3.481,-4.178 2.437,-14.625 -4.528,-17.759 -6.963,-3.134 -17.758,-4.875 -20.892,-6.268 -3.134,-1.393 -9.75,-4.526 -9.054,-8.357 0.696,-3.83 6.268,-8.706 17.063,-9.75 10.794,-1.044 20.544,3.134 26.464,6.268 5.919,3.134 7.661,8.009 9.75,12.188 2.089,4.178 6.268,4.875 8.706,2.088 2.437,-2.785 2.437,-6.616 3.83,-9.75 1.392,-3.133 8.008,-7.66 3.83,-12.535 -4.178,-4.875 -6.964,-5.92 -11.491,-6.965 -4.527,-1.044 -8.706,-5.571 -7.661,-9.401 1.045,-3.831 12.884,-9.054 13.233,-15.67 0.347,-6.616 -2.786,-11.84 -10.099,-14.625 -7.312,-2.786 -31.687,-9.054 -37.259,-10.795 -5.571,-1.741 -11.142,4.179 -10.098,10.795 1.045,6.616 6.268,13.233 11.491,17.759 5.224,4.527 -3.134,9.75 -10.446,12.536 -6.26,2.384 -21.589,6.964 -36.912,11.491 -15.321,4.527 -37.59,11.627 -49.089,-2.717"
       style="fill:none;stroke:#231f20;stroke-width:0.75;stroke-linecap:round;stroke-linejoin:round;stroke-miterlimit:4;stroke-dasharray:0, 2;stroke-dashoffset:0;stroke-opacity:1"
       id="path984" />
    <path
       d="m 245.876,636.125 c 12.535,-7.893 21.821,-8.822 27.856,-8.822 6.036,0 34.822,4.179 55.251,15.321 20.429,11.144 26.001,22.751 23.679,28.323 -2.323,5.571 -19.964,6.964 -31.107,5.571 -11.143,-1.393 -13.929,-2.786 -19.036,0.464 -5.108,3.249 -18.571,4.642 -28.321,-3.714 -9.75,-8.357 -31.109,-18.572 -44.108,-22.286 -13,-3.714 -18.63,4.179 -17.643,9.285 0.811,4.203 3.715,15.786 0,29.25 -3.715,13.465 -5.107,30.644 -0.464,47.357 4.643,16.715 12.999,28.787 18.107,28.323 5.108,-0.465 4.178,-15.322 4.178,-24.608 0,-9.285 0.93,-22.285 8.821,-26.928 7.892,-4.644 27.394,-7.429 40.859,5.571 13.465,13 17.641,22.286 13.463,37.607 -4.179,15.322 -16.714,28.785 -20.428,34.358 -3.713,5.571 -5.107,8.821 -1.393,17.642 3.715,8.823 18.572,16.25 25.072,19.036 6.501,2.786 8.357,-0.928 10.214,-3.251 1.856,-2.321 6.035,-10.677 7.428,-21.356 1.393,-10.679 2.322,-27.857 5.572,-38.536 3.249,-10.679 14.857,-13 23.678,-17.643 8.821,-4.643 3.715,-13 15.322,-17.178 13.958,-5.026 34.821,6.036 45.5,23.678 10.679,17.643 7.428,26.929 2.786,39 -4.643,12.072 -13,13.929 -26.928,19.036 -13.929,5.108 -29.716,17.178 -32.965,20.893 -3.25,3.715 -4.643,8.357 -2.322,10.214 2.32,1.856 19.965,6.965 27.393,8.357 7.428,1.393 9.75,-0.464 16.25,-4.178 6.501,-3.715 7.429,-13 11.144,-19.036 3.715,-6.036 13.928,-5.571 19.5,-3.714 5.571,1.857 2.32,15.786 14.855,26 10.438,8.505 27.858,11.607 40.859,13.928 13.001,2.322 52.464,4.644 61.054,4.644 8.587,0 48.051,-2.322 61.052,-4.644 13.001,-2.321 30.422,-5.423 40.859,-13.928 12.536,-10.214 9.285,-24.143 14.856,-26 5.571,-1.857 15.785,-2.322 19.5,3.714 3.715,6.036 4.643,15.321 11.143,19.036 6.501,3.714 8.822,5.571 16.251,4.178 7.427,-1.392 25.072,-6.501 27.392,-8.357 2.321,-1.857 0.928,-6.499 -2.321,-10.214 -3.25,-3.715 -19.036,-15.785 -32.965,-20.893 -13.929,-5.107 -22.286,-6.964 -26.929,-19.036 -4.641,-12.071 -7.892,-21.357 2.786,-39 10.679,-17.642 31.542,-28.704 45.501,-23.678 11.607,4.178 6.5,12.535 15.322,17.178 8.82,4.643 20.428,6.964 23.678,17.643 3.249,10.679 4.178,27.857 5.572,38.536 1.392,10.679 5.571,19.035 7.427,21.356 1.857,2.323 3.714,6.037 10.214,3.251 6.501,-2.786 21.357,-10.213 25.072,-19.036 3.714,-8.821 2.321,-12.071 -1.393,-17.642 -3.713,-5.573 -16.249,-19.036 -20.428,-34.358 -4.178,-15.321 -10e-4,-24.607 13.464,-37.607 13.465,-13 32.966,-10.215 40.858,-5.571 7.892,4.643 8.821,17.643 8.821,26.928 0,9.286 -0.929,24.143 4.179,24.608 5.107,0.464 13.464,-11.608 18.107,-28.323 4.643,-16.713 3.251,-33.892 -0.464,-47.357 -3.715,-13.464 -0.812,-25.047 0,-29.25 0.986,-5.106 -4.644,-12.999 -17.643,-9.285 -13,3.714 -34.358,13.929 -44.108,22.286 -9.75,8.356 -23.214,6.963 -28.321,3.714 -5.108,-3.25 -7.894,-1.857 -19.036,-0.464 -11.143,1.393 -28.785,0 -31.107,-5.571 -2.322,-5.572 3.249,-17.179 23.678,-28.323 20.43,-11.142 49.216,-15.321 55.251,-15.321 6.035,0 15.321,0.929 27.857,8.822"
       style="fill:none;stroke:#231f20;stroke-width:0.75;stroke-linecap:round;stroke-linejoin:round;stroke-miterlimit:4;stroke-dasharray:0, 2;stroke-dashoffset:0;stroke-opacity:1"
       id="path986" />
    <path
       d="m 540.002,775.874 c -2.554,0 -16.483,1.394 -25.304,2.787 -8.822,1.392 -16.25,9.75 -16.25,15.321 0,5.571 33.428,1.857 41.554,1.857 8.125,0 41.552,3.714 41.552,-1.857 0,-5.571 -7.428,-13.929 -16.25,-15.321 -8.82,-1.393 -22.748,-2.787 -25.302,-2.787 z"
       style="fill:none;stroke:#231f20;stroke-width:0.75;stroke-linecap:round;stroke-linejoin:round;stroke-miterlimit:4;stroke-dasharray:0, 2;stroke-dashoffset:0;stroke-opacity:1"
       id="path988" />
    <path
       d="m 459.912,784.697 c -5.983,0.92 -9.286,-6.501 1.392,-13.001 10.68,-6.499 15.322,-8.357 18.108,-2.785 2.786,5.571 -13.465,14.857 -19.5,15.786"
       style="fill:#ffffff;fill-opacity:1;fill-rule:nonzero;stroke:none;stroke-width:0.1"
       id="path990" />
    <path
       d="m 459.912,784.697 c -5.983,0.92 -9.286,-6.501 1.392,-13.001 10.68,-6.499 15.322,-8.357 18.108,-2.785 2.786,5.571 -13.465,14.857 -19.5,15.786 z"
       style="fill:none;stroke:#231f20;stroke-width:0.75;stroke-linecap:round;stroke-linejoin:round;stroke-miterlimit:4;stroke-dasharray:0, 2;stroke-dashoffset:0;stroke-opacity:1"
       id="path992" />
    <path
       d="m 540.002,664.911 c -11.84,0 -27.713,-1.919 -50.84,11.607 -24.608,14.393 -43.643,57.107 -46.428,67.321 -2.786,10.214 6.035,10.679 12.07,6.964 6.035,-3.715 14.858,-12.071 20.429,-18.107 5.571,-6.035 18.571,-18.571 25.535,-12.535 7.939,6.879 0.93,9.286 -4.178,19.963 -5.108,10.679 8.823,9.287 14.858,6.5 6.035,-2.785 21.357,-6.963 28.554,-6.963 7.195,0 22.518,4.178 28.553,6.963 6.035,2.787 19.965,4.179 14.858,-6.5 -5.108,-10.677 -12.118,-13.084 -4.179,-19.963 6.964,-6.036 19.964,6.5 25.535,12.535 5.571,6.036 14.394,14.392 20.429,18.107 6.036,3.715 14.856,3.25 12.071,-6.964 -2.786,-10.214 -21.821,-52.928 -46.429,-67.321 -23.126,-13.526 -39,-11.607 -50.838,-11.607 z"
       style="fill:none;stroke:#231f20;stroke-width:0.75;stroke-linecap:round;stroke-linejoin:round;stroke-miterlimit:4;stroke-dasharray:0, 2;stroke-dashoffset:0;stroke-opacity:1"
       id="path994" />
    <path
       d="m 540.002,621.732 c -8.126,0 -16.483,-0.465 -16.483,2.321 0,2.785 11.143,4.179 16.483,4.179 5.339,0 16.482,-1.394 16.482,-4.179 0,-2.786 -8.357,-2.321 -16.482,-2.321 z"
       style="fill:none;stroke:#231f20;stroke-width:0.75;stroke-linecap:round;stroke-linejoin:round;stroke-miterlimit:4;stroke-dasharray:0, 2;stroke-dashoffset:0;stroke-opacity:1"
       id="path996" />
    <path
       d="m 290.434,610.415 c 1.986,-4.353 7.209,-8.879 11.736,-11.665 4.527,-2.786 8.358,-6.268 12.884,-7.313 4.528,-1.045 9.75,-1.741 9.75,-5.223 0,-3.482 -0.696,-5.92 -6.616,-6.964 -5.919,-1.045 -9.401,3.133 -12.535,-1.045 -3.134,-4.178 -6.965,-10.098 -17.76,-6.268 -10.794,3.83 -9.053,19.5 -9.401,24.724 -0.349,5.222 -7.313,8.705 -10.795,10.097 -3.482,1.394 -17.759,9.054 -25.071,16.715 -7.313,7.66 -12.536,12.188 -19.152,15.67 -6.616,3.481 -13.581,4.526 -15.67,-0.349 -2.09,-4.875 -1.741,-16.017 5.572,-23.33 7.312,-7.312 10.968,-12.187 16.714,-15.322 4.377,-2.387 10.794,-5.919 3.482,-10.794 -7.313,-4.875 -11.839,-3.482 -17.41,-1.741 -5.573,1.741 -10.099,3.482 -18.456,9.054 -8.357,5.571 -20.544,12.187 -27.161,14.972 -6.616,2.786 -17.759,8.01 -21.241,3.831 -3.482,-4.178 -2.437,-14.625 4.527,-17.759 6.964,-3.134 17.758,-4.875 20.893,-6.268 3.134,-1.393 9.75,-4.526 9.053,-8.357 -0.696,-3.83 -6.268,-8.706 -17.063,-9.75 -10.794,-1.044 -20.544,3.134 -26.464,6.268 -5.919,3.134 -7.661,8.009 -9.75,12.188 -2.089,4.178 -6.267,4.875 -8.705,2.088 -2.437,-2.785 -2.437,-6.616 -3.831,-9.75 -1.392,-3.133 -8.008,-7.66 -3.83,-12.535 4.179,-4.875 6.964,-5.92 11.492,-6.965 4.526,-1.044 8.705,-5.571 7.66,-9.401 -1.044,-3.831 -12.884,-9.054 -13.232,-15.67 -0.348,-6.616 2.785,-11.84 10.098,-14.625 7.312,-2.786 31.687,-9.054 37.26,-10.795 5.571,-1.741 11.142,4.179 10.097,10.795 -1.045,6.616 -6.267,13.233 -11.491,17.759 -5.223,4.527 3.134,9.75 10.446,12.536 6.26,2.383 21.59,6.964 36.912,11.491 15.321,4.527 37.59,11.627 49.089,-2.717"
       style="fill:none;stroke:#231f20;stroke-width:0.75;stroke-linecap:round;stroke-linejoin:round;stroke-miterlimit:4;stroke-dasharray:0, 2;stroke-dashoffset:0;stroke-opacity:1"
       id="path998" />
    <path
       d="m 491.948,614.303 c 5.107,-1.857 -0.464,-9.286 -3.715,-12.999 -3.251,-3.715 -1.393,-5.571 0.929,-8.822 2.322,-3.251 6.035,-5.571 12.536,-5.107 6.5,0.464 29.25,2.787 38.304,2.787 9.053,0 31.802,-2.323 38.303,-2.787 6.5,-0.464 10.214,1.856 12.535,5.107 2.323,3.251 4.181,5.107 0.93,8.822 -3.251,3.713 -8.823,11.142 -3.715,12.999"
       style="fill:none;stroke:#231f20;stroke-width:0.75;stroke-linecap:round;stroke-linejoin:round;stroke-miterlimit:4;stroke-dasharray:0, 2;stroke-dashoffset:0;stroke-opacity:1"
       id="path1000" />
  </g>
</svg>
