<?xml version="1.0" encoding="UTF-8" standalone="no"?>
<!-- Created with Inkscape (http://www.inkscape.org/) -->

<svg
   version="1.1"
   id="svg2"
   width="1440"
   height="1344"
   viewBox="0 0 1440 1344"
   xmlns="http://www.w3.org/2000/svg"
   xmlns:svg="http://www.w3.org/2000/svg">
  <defs
     id="defs6" />
  <g
     id="g8">
    <path
       d="m 449.57,842.528 c 4.38,13.903 10.805,20.3 17.812,26.973 7.008,6.674 17.812,8.065 28.032,8.899 10.218,0.834 32.193,8.899 44.588,8.899 12.393,0 34.368,-8.065 44.587,-8.899 10.218,-0.834 21.024,-2.225 28.032,-8.899 7.005,-6.673 13.43,-13.07 17.81,-26.973 0,0 -0.584,4.449 6.715,7.229 7.301,2.782 11.388,2.782 14.309,5.562 2.919,2.781 4.671,4.728 6.422,5.284 1.752,0.556 11.388,0.277 16.352,-1.391 4.964,-1.668 14.308,-4.727 23.067,-6.953 8.76,-2.223 19.563,0 27.155,0.557 7.593,0.557 16.935,-0.277 22.482,-3.059 5.549,-2.78 14.309,-3.893 14.018,-12.235 0,0 3.796,1.668 6.715,1.112 7.083,-1.349 17.674,-5.953 33.58,-14.739 14.598,-8.063 32.701,-30.311 44.965,-58.676 12.263,-28.364 12.555,-41.712 9.344,-63.959 -3.213,-22.247 -7.301,-35.038 -10.22,-35.038 -4.379,0 -7.007,5.005 -14.308,14.46 0,0 2.336,-7.23 1.46,-12.514 -0.875,-5.283 -6.716,-9.177 -10.512,-14.46 -3.797,-5.284 -8.175,-11.124 -11.387,-16.129 -3.212,-5.006 -14.015,-14.739 -16.352,-18.076 -2.337,-3.337 -11.095,-12.513 -17.227,-12.513 -6.132,0 -15.475,1.113 -18.395,2.503 0,0 11.388,-5.284 11.388,-12.514 0,-7.231 -5.547,-13.07 -9.929,-16.13 -4.378,-3.057 -5.838,-4.726 -3.21,-4.449 2.628,0.279 5.838,2.503 10.219,6.397 4.38,3.893 7.59,8.899 9.051,14.182 1.461,5.283 7.008,8.342 9.928,10.845 2.919,2.503 16.35,14.738 21.899,21.412 5.547,6.675 15.768,16.686 18.687,18.633 2.921,1.946 7.592,1.946 9.928,0.555 2.336,-1.389 6.133,-7.508 2.336,-15.294 -3.796,-7.787 -16.645,-25.863 -22.192,-33.092 -5.547,-7.231 -10.803,-11.124 -15.473,-10.568 -3.868,0.46 -6.719,-2.503 -10.221,-7.23 -3.504,-4.728 -12.264,-13.07 -15.185,-11.957 0,0 3.797,-3.338 3.213,-11.959 -0.585,-8.619 -1.459,-17.797 -4.381,-24.193 -2.919,-6.395 -5.256,-11.124 -10.217,-12.513 -4.964,-1.391 -6.132,-1.668 -8.76,-1.948 0,0 2.919,-7.785 4.378,-13.625 1.461,-5.84 6.425,-32.813 3.213,-50.055 -3.213,-17.242 -5.841,-27.252 -26.863,-43.103 -21.023,-15.851 -36.206,-24.75 -45.258,-30.033 -9.052,-5.283 -47.011,-21.69 -54.019,-23.638 -7.008,-1.947 -9.927,-0.555 -15.766,-3.893 -5.84,-3.336 -17.228,-8.064 -35.917,-7.23 -18.686,0.834 -38.952,9.594 -45.461,13.697 -6.511,-4.103 -26.778,-12.863 -45.466,-13.697 -18.687,-0.834 -30.075,3.894 -35.913,7.23 -5.841,3.338 -8.76,1.946 -15.768,3.893 -7.008,1.948 -44.967,18.355 -54.019,23.638 -9.051,5.283 -24.235,14.182 -45.258,30.033 -21.024,15.851 -23.652,25.861 -26.863,43.103 -3.213,17.242 1.752,44.215 3.211,50.055 1.46,5.84 4.382,13.625 4.382,13.625 -2.628,0.28 -3.797,0.557 -8.76,1.948 -4.964,1.389 -7.3,6.118 -10.22,12.513 -2.919,6.396 -3.797,15.574 -4.38,24.193 -0.584,8.621 3.211,11.959 3.211,11.959 -2.919,-1.113 -11.679,7.229 -15.183,11.957 -3.504,4.727 -6.354,7.69 -10.219,7.23 -4.671,-0.556 -9.926,3.337 -15.475,10.568 -5.548,7.229 -18.396,25.305 -22.192,33.092 -3.796,7.786 0,13.905 2.336,15.294 2.336,1.391 7.009,1.391 9.928,-0.555 2.92,-1.947 13.14,-11.958 18.688,-18.633 5.546,-6.674 18.977,-18.909 21.899,-21.412 2.919,-2.503 8.468,-5.562 9.927,-10.845 1.46,-5.283 4.673,-10.289 9.052,-14.182 4.378,-3.894 7.591,-6.118 10.219,-6.397 2.628,-0.277 1.169,1.392 -3.213,4.449 -4.378,3.06 -9.926,8.899 -9.926,16.13 0,7.23 11.386,12.514 11.386,12.514 -2.919,-1.39 -12.262,-2.503 -18.394,-2.503 -6.132,0 -14.892,9.176 -17.227,12.513 -2.336,3.337 -13.139,13.07 -16.351,18.076 -3.211,5.005 -7.593,10.845 -11.388,16.129 -3.796,5.283 -9.636,9.177 -10.512,14.46 -0.876,5.284 1.46,12.514 1.46,12.514 -7.3,-9.455 -9.928,-14.46 -14.307,-14.46 -2.92,0 -7.008,12.791 -10.219,35.038 -3.213,22.247 -2.921,35.595 9.343,63.959 12.262,28.365 30.367,50.613 44.966,58.676 15.904,8.786 26.495,13.39 33.578,14.739 2.92,0.556 6.717,-1.112 6.717,-1.112 -0.294,8.342 8.467,9.455 14.014,12.235 5.549,2.782 14.892,3.616 22.483,3.059 7.593,-0.557 18.396,-2.78 27.156,-0.557 8.759,2.226 18.103,5.285 23.068,6.953 4.963,1.668 14.599,1.947 16.351,1.391 1.751,-0.556 3.503,-2.503 6.422,-5.284 2.921,-2.78 7.008,-2.78 14.309,-5.562 7.299,-2.78 6.715,-7.229 6.715,-7.229"
       style="fill:#ffffff;fill-opacity:1;fill-rule:nonzero;stroke:none;stroke-width:0.1"
       id="path672" />
    <path
       d="m 255.397,637.055 c 1.752,1.979 5.841,-2.257 8.469,-5.316 2.628,-3.059 10.218,-13.905 14.598,-20.856 4.38,-6.952 12.555,-19.467 17.228,-26.14 4.671,-6.674 7.299,-7.509 14.892,-8.9 7.59,-1.389 13.576,-4.602 15.182,-8.085 l 0.014,-0.07 c -1.056,0.323 -2.215,0.805 -3.518,1.482 -6.423,3.337 -12.263,3.337 -18.103,1.113 -2.92,-1.113 -11.68,7.229 -15.183,11.957 -3.504,4.727 -6.354,7.69 -10.221,7.23 -5.547,14.461 -13.722,28.897 -18.978,36.986 -2.173,3.344 -6.132,8.62 -4.38,10.599"
       style="fill:#d3d2d2;fill-opacity:1;fill-rule:nonzero;stroke:none;stroke-width:0.1"
       id="path674" />
    <path
       d="m 824.603,637.055 c -1.751,1.979 -5.84,-2.257 -8.468,-5.316 -2.628,-3.059 -10.219,-13.905 -14.598,-20.856 -4.382,-6.952 -12.557,-19.467 -17.228,-26.14 -4.672,-6.674 -7.3,-7.509 -14.893,-8.9 -7.589,-1.389 -13.575,-4.602 -15.181,-8.085 l -0.015,-0.07 c 1.056,0.323 2.216,0.805 3.518,1.482 6.423,3.337 12.264,3.337 18.102,1.113 2.921,-1.113 11.681,7.229 15.185,11.957 3.502,4.727 6.353,7.69 10.221,7.23 5.546,14.461 13.722,28.897 18.978,36.986 2.173,3.344 6.132,8.62 4.379,10.599"
       style="fill:#d3d2d2;fill-opacity:1;fill-rule:nonzero;stroke:none;stroke-width:0.1"
       id="path676" />
    <path
       d="m 775.84,570.283 c -5.838,2.224 -11.679,2.224 -18.102,-1.113 -6.423,-3.338 -9.344,-1.946 -13.724,0 -3.796,2.781 -30.951,11.958 -38.25,15.017 -7.301,3.058 -23.943,9.732 -30.658,10.566 -2.528,0.315 -4.643,0.55 -6.328,1.092 1.655,-2.76 1.613,-7.351 -9.168,-13.397 6.607,-0.369 16.241,-2.154 19.875,-4.379 4.088,-2.503 6.133,-3.337 8.467,-4.172 2.337,-0.834 21.023,-5.562 28.324,-7.23 7.299,-1.668 21.314,-8.343 25.988,-15.016 4.669,-6.673 11.68,-27.035 13.431,-31.981 2.628,0.28 3.796,0.557 8.76,1.948 4.961,1.389 7.298,6.118 10.217,12.513 2.922,6.396 3.796,15.574 4.381,24.193 0.584,8.621 -3.213,11.959 -3.213,11.959"
       style="fill:#706d6e;fill-opacity:1;fill-rule:nonzero;stroke:none;stroke-width:0.1"
       id="path678" />
    <path
       d="m 775.84,570.283 c -5.838,2.224 -11.679,2.224 -18.102,-1.113 -6.423,-3.338 -9.344,-1.946 -13.724,0 -3.796,2.781 -30.951,11.958 -38.25,15.017 -7.301,3.058 -23.943,9.732 -30.658,10.566 -2.528,0.315 -4.643,0.55 -6.328,1.092 1.655,-2.76 1.613,-7.351 -9.168,-13.397 6.607,-0.369 16.241,-2.154 19.875,-4.379 4.088,-2.503 6.133,-3.337 8.467,-4.172 2.337,-0.834 21.023,-5.562 28.324,-7.23 7.299,-1.668 21.314,-8.343 25.988,-15.016 4.669,-6.673 11.68,-27.035 13.431,-31.981 2.628,0.28 3.796,0.557 8.76,1.948 4.961,1.389 7.298,6.118 10.217,12.513 2.922,6.396 3.796,15.574 4.381,24.193 0.584,8.621 -3.213,11.959 -3.213,11.959 z"
       style="fill:none;stroke:#231f20;stroke-width:0.5;stroke-linecap:butt;stroke-linejoin:miter;stroke-miterlimit:4;stroke-dasharray:none;stroke-opacity:1"
       id="path680" />
    <path
       d="m 304.161,570.283 c 5.839,2.224 11.679,2.224 18.102,-1.113 6.425,-3.338 9.344,-1.946 13.725,0 3.797,2.781 30.95,11.958 38.251,15.017 7.299,3.058 23.942,9.732 30.658,10.566 2.528,0.315 4.642,0.55 6.327,1.092 -1.655,-2.76 -1.613,-7.351 9.167,-13.397 -6.607,-0.369 -16.24,-2.154 -19.873,-4.379 -4.089,-2.503 -6.134,-3.337 -8.469,-4.172 -2.337,-0.834 -21.023,-5.562 -28.322,-7.23 -7.301,-1.668 -21.314,-8.343 -25.988,-15.016 -4.671,-6.673 -11.681,-27.035 -13.431,-31.981 -2.628,0.28 -3.797,0.557 -8.76,1.948 -4.964,1.389 -7.298,6.118 -10.219,12.513 -2.92,6.396 -3.796,15.574 -4.38,24.193 -0.583,8.621 3.212,11.959 3.212,11.959"
       style="fill:#706d6e;fill-opacity:1;fill-rule:nonzero;stroke:none;stroke-width:0.1"
       id="path682" />
    <path
       d="m 304.161,570.283 c 5.839,2.224 11.679,2.224 18.102,-1.113 6.425,-3.338 9.344,-1.946 13.725,0 3.797,2.781 30.95,11.958 38.251,15.017 7.299,3.058 23.942,9.732 30.658,10.566 2.528,0.315 4.642,0.55 6.327,1.092 -1.655,-2.76 -1.613,-7.351 9.167,-13.397 -6.607,-0.369 -16.24,-2.154 -19.873,-4.379 -4.089,-2.503 -6.134,-3.337 -8.469,-4.172 -2.337,-0.834 -21.023,-5.562 -28.322,-7.23 -7.301,-1.668 -21.314,-8.343 -25.988,-15.016 -4.671,-6.673 -11.681,-27.035 -13.431,-31.981 -2.628,0.28 -3.797,0.557 -8.76,1.948 -4.964,1.389 -7.298,6.118 -10.219,12.513 -2.92,6.396 -3.796,15.574 -4.38,24.193 -0.583,8.621 3.212,11.959 3.212,11.959 z"
       style="fill:none;stroke:#231f20;stroke-width:0.5;stroke-linecap:butt;stroke-linejoin:miter;stroke-miterlimit:4;stroke-dasharray:none;stroke-opacity:1"
       id="path684" />
    <path
       d="m 630.431,842.528 c 1.752,-3.338 2.335,-12.515 4.963,-16.13 2.628,-3.615 9.636,-4.449 15.768,-2.503 6.132,1.947 13.723,7.787 16.06,10.29"
       style="fill:none;stroke:#231f20;stroke-width:0.5;stroke-linecap:butt;stroke-linejoin:miter;stroke-miterlimit:4;stroke-dasharray:none;stroke-opacity:1"
       id="path686" />
    <path
       d="m 760.951,837.522 c 0,-2.503 -1.752,-5.006 -3.506,-7.509 -1.75,-2.503 -7.006,-10.288 -7.884,-11.401"
       style="fill:none;stroke:#231f20;stroke-width:0.5;stroke-linecap:butt;stroke-linejoin:miter;stroke-miterlimit:4;stroke-dasharray:none;stroke-opacity:1"
       id="path688" />
    <path
       d="m 688.829,718.501 c 7.3,-5.005 25.987,-19.465 39.418,-20.856 13.43,-1.39 21.607,5.006 36.208,5.84 14.598,0.835 33.287,3.059 66.572,-22.803"
       style="fill:none;stroke:#231f20;stroke-width:0.5;stroke-linecap:butt;stroke-linejoin:miter;stroke-miterlimit:4;stroke-dasharray:none;stroke-opacity:1"
       id="path690" />
    <path
       d="m 648.242,685.965 c 6.424,-8.341 23.202,-26.348 37.667,-38.376 18.395,-15.294 20.382,-16.308 24.526,-18.909 8.376,-5.252 18.664,-10.947 31.048,-15.014 5.32,-1.747 10.05,-2.505 17.131,-4.173"
       style="fill:none;stroke:#231f20;stroke-width:0.5;stroke-linecap:butt;stroke-linejoin:miter;stroke-miterlimit:4;stroke-dasharray:none;stroke-opacity:1"
       id="path692" />
    <path
       d="m 744.014,569.17 c 4.38,-1.946 7.301,-3.338 13.724,0 6.423,3.337 12.264,3.337 18.102,1.113"
       style="fill:none;stroke:#231f20;stroke-width:0.5;stroke-linecap:butt;stroke-linejoin:miter;stroke-miterlimit:4;stroke-dasharray:none;stroke-opacity:1"
       id="path694" />
    <path
       d="m 668.778,595.845 c 1.655,-2.76 1.613,-7.351 -9.169,-13.397"
       style="fill:none;stroke:#231f20;stroke-width:0.5;stroke-linecap:butt;stroke-linejoin:miter;stroke-miterlimit:4;stroke-dasharray:none;stroke-opacity:1"
       id="path696" />
    <path
       d="m 689.713,573.368 c -4.972,0.808 -6.723,0.808 -6.723,-1.695 0,-2.503 3.795,-4.172 4.962,-5.561 1.169,-1.391 -1.751,-6.119 3.505,-7.509 5.254,-1.391 21.315,-6.395 30.658,-13.625 9.343,-7.231 15.767,-14.184 21.899,-23.916 6.134,-9.733 8.175,-20.578 8.175,-38.654 0,-18.076 -2.628,-26.141 -6.13,-35.039 -3.504,-8.899 -14.891,-29.199 -22.484,-29.755 -2.839,-0.208 -3.455,1.993 -4.38,3.615 -1.546,2.716 -1.938,5.768 -0.291,7.509 2.628,2.78 5.256,5.283 10.803,13.625 5.547,8.343 13.372,37.07 5.255,57.287 -3.794,9.453 -8.465,12.791 -16.934,18.631 -8.468,5.84 -17.52,13.627 -21.899,20.3 -4.38,6.674 -12.556,19.743 -4.672,20.022"
       style="fill:none;stroke:#231f20;stroke-width:0.5;stroke-linecap:butt;stroke-linejoin:miter;stroke-miterlimit:4;stroke-dasharray:none;stroke-opacity:1"
       id="path698" />
    <path
       d="m 722.876,417.613 c 0,0 -4.263,-6.951 -19.157,-18.908"
       style="fill:none;stroke:#231f20;stroke-width:0.5;stroke-linecap:butt;stroke-linejoin:miter;stroke-miterlimit:4;stroke-dasharray:none;stroke-opacity:1"
       id="path700" />
    <path
       d="m 665.2,370.574 c 1.437,5.328 11.073,12.003 19.833,17.008 8.759,5.005 17.519,11.678 22.775,12.512 5.255,0.835 8.234,1.488 13.316,1.718"
       style="fill:none;stroke:#231f20;stroke-width:0.5;stroke-linecap:butt;stroke-linejoin:miter;stroke-miterlimit:4;stroke-dasharray:none;stroke-opacity:1"
       id="path702" />
    <path
       d="m 543.051,387.317 c 1.534,-3.351 2.706,-19.159 0.515,-27.523"
       style="fill:none;stroke:#231f20;stroke-width:0.5;stroke-linecap:butt;stroke-linejoin:miter;stroke-miterlimit:4;stroke-dasharray:none;stroke-opacity:1"
       id="path704" />
    <path
       d="m 544.766,370.893 c 2.479,-0.718 11.835,-2.667 24.056,-5.281 11.368,-2.431 24.888,-7.409 35.982,-3.794"
       style="fill:none;stroke:#231f20;stroke-width:0.5;stroke-linecap:butt;stroke-linejoin:miter;stroke-miterlimit:4;stroke-dasharray:none;stroke-opacity:1"
       id="path706" />
    <path
       d="m 544.673,376.171 c 2.797,-0.82 17.139,-6.944 18.602,-3.051 0,0 18.393,-4.448 22.188,-5.561 3.797,-1.112 10.806,-3.615 12.849,-4.45 2.045,-0.834 2.919,-1.111 8.175,-1.391 5.256,-0.277 12.965,-1.967 18.162,-4.876"
       style="fill:none;stroke:#231f20;stroke-width:0.5;stroke-linecap:butt;stroke-linejoin:miter;stroke-miterlimit:4;stroke-dasharray:none;stroke-opacity:1"
       id="path708" />
    <path
       d="m 717.876,425.123 c -3.364,3.615 -5.688,4.171 -5.688,4.171 -6.838,0.272 -11.03,-6.061 -10.512,-10.011 0.584,-4.449 2.7,-6.327 4.671,-8.344 1.877,-1.919 6.68,-4.135 9.893,-1.077"
       style="fill:none;stroke:#231f20;stroke-width:0.5;stroke-linecap:butt;stroke-linejoin:miter;stroke-miterlimit:4;stroke-dasharray:none;stroke-opacity:1"
       id="path710" />
    <path
       d="m 449.57,842.528 c -1.752,-3.338 -2.335,-12.515 -4.963,-16.13 -2.628,-3.615 -9.636,-4.449 -15.768,-2.503 -6.131,1.947 -13.723,7.787 -16.06,10.29"
       style="fill:none;stroke:#231f20;stroke-width:0.5;stroke-linecap:butt;stroke-linejoin:miter;stroke-miterlimit:4;stroke-dasharray:none;stroke-opacity:1"
       id="path712" />
    <path
       d="m 319.052,837.522 c 0,-2.503 1.752,-5.006 3.502,-7.509 1.754,-2.503 7.01,-10.288 7.884,-11.401"
       style="fill:none;stroke:#231f20;stroke-width:0.5;stroke-linecap:butt;stroke-linejoin:miter;stroke-miterlimit:4;stroke-dasharray:none;stroke-opacity:1"
       id="path714" />
    <path
       d="m 391.173,718.501 c -7.3,-5.005 -25.988,-19.465 -39.419,-20.856 -13.432,-1.39 -21.607,5.006 -36.206,5.84 -14.6,0.835 -33.287,3.059 -66.574,-22.803"
       style="fill:none;stroke:#231f20;stroke-width:0.5;stroke-linecap:butt;stroke-linejoin:miter;stroke-miterlimit:4;stroke-dasharray:none;stroke-opacity:1"
       id="path716" />
    <path
       d="m 431.758,685.965 c -6.423,-8.341 -23.201,-26.348 -37.666,-38.376 -18.395,-15.294 -20.382,-16.308 -24.527,-18.909 -8.373,-5.252 -18.663,-10.947 -31.047,-15.014 -5.32,-1.747 -10.051,-2.505 -17.132,-4.173"
       style="fill:none;stroke:#231f20;stroke-width:0.5;stroke-linecap:butt;stroke-linejoin:miter;stroke-miterlimit:4;stroke-dasharray:none;stroke-opacity:1"
       id="path718" />
    <path
       d="m 335.987,569.17 c -4.38,-1.946 -7.301,-3.338 -13.724,0 -6.424,3.337 -12.263,3.337 -18.104,1.113"
       style="fill:none;stroke:#231f20;stroke-width:0.5;stroke-linecap:butt;stroke-linejoin:miter;stroke-miterlimit:4;stroke-dasharray:none;stroke-opacity:1"
       id="path720" />
    <path
       d="m 509.135,661.494 c 3.213,0 25.405,-1.112 30.867,-1.112 5.46,0 27.653,1.112 30.863,1.112"
       style="fill:none;stroke:#231f20;stroke-width:0.5;stroke-linecap:butt;stroke-linejoin:miter;stroke-miterlimit:4;stroke-dasharray:none;stroke-opacity:1"
       id="path722" />
    <path
       d="m 452.782,622.84 c 1.753,2.503 4.672,1.947 8.468,1.669 3.795,-0.278 23.067,-2.503 33.286,-3.338 10.219,-0.834 30.659,-1.668 45.466,-1.668 14.804,0 35.244,0.834 45.461,1.668 10.221,0.835 29.493,3.06 33.289,3.338 3.795,0.278 6.715,0.834 8.467,-1.669"
       style="fill:none;stroke:#231f20;stroke-width:0.5;stroke-linecap:butt;stroke-linejoin:miter;stroke-miterlimit:4;stroke-dasharray:none;stroke-opacity:1"
       id="path724" />
    <path
       d="m 324.308,519.67 c 1.75,4.946 8.758,25.308 13.431,31.981 4.671,6.673 18.686,13.348 25.986,15.016 7.3,1.668 25.987,6.396 28.323,7.23 2.336,0.835 4.381,1.669 8.468,4.172 4.088,2.503 15.769,4.449 22.192,4.449 6.422,0 19.271,-1.669 25.11,-3.336 5.84,-1.67 12.264,-2.503 17.227,-3.059 4.965,-0.557 11.68,-1.391 18.396,-2.226 6.715,-0.834 14.599,-3.336 14.599,-3.336 21.899,-8.065 35.332,-5.006 41.962,-5.006 6.629,0 20.06,-3.059 41.959,5.006 0,0 7.884,2.502 14.599,3.336 6.716,0.835 13.433,1.669 18.396,2.226 4.963,0.556 11.386,1.389 17.227,3.059 5.839,1.667 18.687,3.336 25.111,3.336 6.424,0 18.103,-1.946 22.191,-4.449 4.088,-2.503 6.133,-3.337 8.467,-4.172 2.337,-0.834 21.023,-5.562 28.324,-7.23 7.299,-1.668 21.314,-8.343 25.988,-15.016 4.669,-6.673 11.68,-27.035 13.431,-31.981"
       style="fill:none;stroke:#231f20;stroke-width:0.75;stroke-linecap:butt;stroke-linejoin:miter;stroke-miterlimit:4;stroke-dasharray:none;stroke-opacity:1"
       id="path726" />
    <path
       d="m 411.223,595.845 c -1.654,-2.76 -1.613,-7.351 9.17,-13.397"
       style="fill:none;stroke:#231f20;stroke-width:0.5;stroke-linecap:butt;stroke-linejoin:miter;stroke-miterlimit:4;stroke-dasharray:none;stroke-opacity:1"
       id="path728" />
    <path
       d="m 497.245,570.777 c 3.584,-4.484 8.095,-6.056 11.89,-9.393 3.796,-3.338 6.717,-11.402 7.884,-13.07 1.168,-1.669 2.044,-2.503 6.132,-6.952 7.466,-8.127 10.804,-8.343 16.851,-8.343 6.044,0 9.382,0.216 16.848,8.343 4.088,4.449 4.962,5.283 6.131,6.952 1.168,1.668 4.087,9.732 7.884,13.07 3.796,3.337 8.307,4.909 11.891,9.393"
       style="fill:none;stroke:#231f20;stroke-width:0.5;stroke-linecap:butt;stroke-linejoin:miter;stroke-miterlimit:4;stroke-dasharray:none;stroke-opacity:1"
       id="path730" />
    <path
       d="m 497.245,570.777 c 3.584,-4.484 8.095,-6.056 11.89,-9.393 3.796,-3.338 6.717,-11.402 7.884,-13.07 1.168,-1.669 2.044,-2.503 6.132,-6.952 7.466,-8.127 10.804,-8.343 16.851,-8.343 6.044,0 9.382,0.216 16.848,8.343 4.088,4.449 4.962,5.283 6.131,6.952 1.168,1.668 4.087,9.732 7.884,13.07 3.796,3.337 8.307,4.909 11.891,9.393 l -0.795,-0.216 c -21.899,-8.065 -35.33,-5.006 -41.959,-5.006 -6.63,0 -20.063,-3.059 -41.962,5.006 l -0.795,0.216"
       style="fill:#706d6e;fill-opacity:1;fill-rule:nonzero;stroke:none;stroke-width:0.1"
       id="path732" />
    <path
       d="m 497.245,570.777 c 3.584,-4.484 8.095,-6.056 11.89,-9.393 3.796,-3.338 6.717,-11.402 7.884,-13.07 1.168,-1.669 2.044,-2.503 6.132,-6.952 7.466,-8.127 10.804,-8.343 16.851,-8.343 6.044,0 9.382,0.216 16.848,8.343 4.088,4.449 4.962,5.283 6.131,6.952 1.168,1.668 4.087,9.732 7.884,13.07 3.796,3.337 8.307,4.909 11.891,9.393 l -0.795,-0.216 c -21.899,-8.065 -35.33,-5.006 -41.959,-5.006 -6.63,0 -20.063,-3.059 -41.962,5.006 z"
       style="fill:none;stroke:#231f20;stroke-width:0.5;stroke-linecap:butt;stroke-linejoin:miter;stroke-miterlimit:4;stroke-dasharray:none;stroke-opacity:1"
       id="path734" />
    <path
       d="m 527.531,434.021 c 0,5.839 0,33.093 -0.584,44.494 -0.584,11.401 0.293,38.097 2.337,45.327 2.043,7.23 7.884,7.509 10.718,7.509 2.832,0 8.672,-0.279 10.716,-7.509 2.045,-7.23 2.919,-33.926 2.336,-45.327 -0.585,-11.401 -0.585,-38.655 -0.585,-44.494"
       style="fill:none;stroke:#231f20;stroke-width:0.5;stroke-linecap:butt;stroke-linejoin:miter;stroke-miterlimit:4;stroke-dasharray:none;stroke-opacity:1"
       id="path736" />
    <path
       d="m 390.29,573.368 c 4.97,0.808 6.722,0.808 6.722,-1.695 0,-2.503 -3.796,-4.172 -4.964,-5.561 -1.168,-1.391 1.753,-6.119 -3.503,-7.509 -5.255,-1.391 -21.316,-6.395 -30.659,-13.625 -9.344,-7.231 -15.767,-14.184 -21.899,-23.916 -6.132,-9.733 -8.177,-20.578 -8.177,-38.654 0,-18.076 2.628,-26.141 6.132,-35.039 3.504,-8.899 14.892,-29.199 22.483,-29.755 2.84,-0.208 3.456,1.993 4.38,3.615 1.548,2.716 1.937,5.768 0.292,7.509 -2.628,2.78 -5.256,5.283 -10.804,13.625 -5.546,8.343 -13.372,37.07 -5.255,57.287 3.796,9.453 8.468,12.791 16.935,18.631 8.468,5.84 17.52,13.627 21.9,20.3 4.379,6.674 12.556,19.743 4.672,20.022"
       style="fill:none;stroke:#231f20;stroke-width:0.5;stroke-linecap:butt;stroke-linejoin:miter;stroke-miterlimit:4;stroke-dasharray:none;stroke-opacity:1"
       id="path738" />
    <path
       d="m 357.126,417.613 c 0,0 4.264,-6.951 19.155,-18.908"
       style="fill:none;stroke:#231f20;stroke-width:0.5;stroke-linecap:butt;stroke-linejoin:miter;stroke-miterlimit:4;stroke-dasharray:none;stroke-opacity:1"
       id="path740" />
    <path
       d="m 414.803,370.574 c -1.439,5.328 -11.075,12.003 -19.835,17.008 -8.76,5.005 -17.519,11.678 -22.775,12.512 -5.256,0.835 -8.235,1.488 -13.316,1.718"
       style="fill:none;stroke:#231f20;stroke-width:0.5;stroke-linecap:butt;stroke-linejoin:miter;stroke-miterlimit:4;stroke-dasharray:none;stroke-opacity:1"
       id="path742" />
    <path
       d="m 536.951,387.317 c -1.536,-3.351 -2.709,-19.159 -0.516,-27.523"
       style="fill:none;stroke:#231f20;stroke-width:0.5;stroke-linecap:butt;stroke-linejoin:miter;stroke-miterlimit:4;stroke-dasharray:none;stroke-opacity:1"
       id="path744" />
    <path
       d="m 535.235,370.893 c -2.479,-0.718 -11.834,-2.667 -24.056,-5.281 -11.367,-2.431 -24.887,-7.409 -35.984,-3.794"
       style="fill:none;stroke:#231f20;stroke-width:0.5;stroke-linecap:butt;stroke-linejoin:miter;stroke-miterlimit:4;stroke-dasharray:none;stroke-opacity:1"
       id="path746" />
    <path
       d="m 535.328,376.171 c -2.797,-0.82 -17.141,-6.944 -18.6,-3.051 0,0 -18.395,-4.448 -22.192,-5.561 -3.795,-1.112 -10.803,-3.615 -12.847,-4.45 -2.043,-0.834 -2.921,-1.111 -8.177,-1.391 -5.254,-0.277 -12.963,-1.967 -18.161,-4.876"
       style="fill:none;stroke:#231f20;stroke-width:0.5;stroke-linecap:butt;stroke-linejoin:miter;stroke-miterlimit:4;stroke-dasharray:none;stroke-opacity:1"
       id="path748" />
    <path
       d="m 362.126,425.123 c 3.363,3.615 5.687,4.171 5.687,4.171 6.838,0.272 11.03,-6.061 10.512,-10.011 -0.584,-4.449 -2.701,-6.327 -4.672,-8.344 -1.876,-1.919 -6.679,-4.135 -9.891,-1.077"
       style="fill:none;stroke:#231f20;stroke-width:0.5;stroke-linecap:butt;stroke-linejoin:miter;stroke-miterlimit:4;stroke-dasharray:none;stroke-opacity:1"
       id="path750" />
    <path
       d="m 540.033,834.456 c -6.048,0 -15.431,-4.129 -26.161,-6.111 -7.038,-1.3 -14.674,-1.05 -22.193,-0.278 -18.978,1.946 -28.029,13.07 -23.942,23.637 4.088,10.567 22.775,13.904 27.446,15.573 4.673,1.669 13.433,1.946 21.192,4.555 12.631,4.248 20.824,5.189 23.658,5.189 2.833,0 11.025,-0.941 23.658,-5.189 7.759,-2.609 16.517,-2.886 21.19,-4.555 4.67,-1.669 23.36,-5.006 27.447,-15.573 4.088,-10.567 -4.963,-21.691 -23.943,-23.637 -7.519,-0.772 -15.154,-1.022 -22.191,0.278 -10.732,1.982 -20.114,6.111 -26.161,6.111"
       style="fill:#d3d2d2;fill-opacity:1;fill-rule:nonzero;stroke:none;stroke-width:0.1"
       id="path752" />
    <path
       d="m 838.911,761.327 c -5.256,15.294 -17.811,31.98 -28.032,41.156 -10.218,9.177 -18.98,16.685 -27.155,18.353 -8.175,1.669 -6.424,-4.449 -4.378,-10.845 2.043,-6.396 0.291,-9.454 -6.134,-11.679 -6.423,-2.225 -16.058,-0.835 -24.525,1.668 -8.469,2.503 -18.98,7.23 -21.316,10.567 -2.334,3.337 0,10.845 4.381,13.071 4.378,2.224 6.13,6.117 6.13,11.679 0,5.562 -6.424,6.396 -11.094,5.284 -4.673,-1.113 -13.431,-3.059 -18.98,-3.893 -5.548,-0.835 -7.884,-1.669 -10.22,-4.729 -2.336,-3.058 -3.504,-6.951 -6.131,-11.401 -2.628,-4.449 -16.644,-14.738 -23.652,-20.021 -7.008,-5.284 -14.598,-11.958 -21.023,-12.792 -6.424,-0.834 -11.388,4.171 -13.431,6.952 -2.044,2.78 -7.3,6.395 -9.343,6.395 -2.045,0 -8.177,-1.112 -12.556,-1.112 -4.38,0 -9.636,1.112 -18.105,5.562 -8.466,4.449 -23.357,6.396 -29.198,6.396 -5.839,0 -18.31,-1.391 -24.147,-1.391 -5.841,0 -18.311,1.391 -24.15,1.391 -5.841,0 -20.731,-1.947 -29.2,-6.396 -8.467,-4.45 -13.723,-5.562 -18.103,-5.562 -4.38,0 -10.511,1.112 -12.554,1.112 -2.045,0 -7.301,-3.615 -9.344,-6.395 -2.044,-2.781 -7.009,-7.786 -13.432,-6.952 -6.423,0.834 -14.015,7.508 -21.022,12.792 -7.009,5.283 -21.024,15.572 -23.652,20.021 -2.627,4.45 -3.796,8.343 -6.132,11.401 -2.336,3.06 -4.672,3.894 -10.22,4.729 -5.547,0.834 -14.307,2.78 -18.98,3.893 -4.671,1.112 -11.094,0.278 -11.094,-5.284 0,-5.562 1.752,-9.455 6.131,-11.679 4.38,-2.226 6.715,-9.734 4.38,-13.071 -2.337,-3.337 -12.848,-8.064 -21.316,-10.567 -8.467,-2.503 -18.103,-3.893 -24.527,-1.668 -6.423,2.225 -8.175,5.283 -6.13,11.679 2.043,6.396 3.796,12.514 -4.382,10.845 -8.175,-1.668 -16.933,-9.176 -27.153,-18.353 -10.22,-9.176 -22.776,-25.862 -28.032,-41.156 -5.256,-15.294 -7.591,-27.252 -7.883,-37.82 -0.292,-10.567 -0.584,-23.359 0.292,-27.808 0.876,-4.449 3.211,-3.615 4.963,0 1.752,3.615 2.92,17.241 4.38,24.749 1.46,7.509 4.672,17.519 8.176,25.585 3.504,8.063 10.22,14.181 15.476,18.353 5.256,4.171 14.307,8.899 23.066,7.23 8.76,-1.668 20.148,-3.059 27.738,0 7.593,3.058 30.281,8.315 33.287,-0.279 2.628,-7.507 -5.838,-20.299 -10.803,-25.584 -4.964,-5.283 -13.431,-11.957 -15.768,-15.294 -2.334,-3.336 -1.751,-7.508 3.796,-8.898 5.549,-1.391 16.644,0 27.448,3.893 10.803,3.892 31.826,12.236 40.586,15.573 8.76,3.337 16.644,3.614 19.563,-1.669 2.921,-5.283 -1.459,-15.017 -12.262,-27.809 -10.805,-12.792 -33.58,-34.204 -49.348,-37.542 -15.766,-3.336 -27.446,0 -37.082,3.06 -9.634,3.058 -15.767,1.112 -23.359,-0.834 -7.591,-1.946 -11.68,-2.503 -14.308,-8.343 -2.628,-5.84 -6.13,-7.23 -10.217,-8.62 -4.089,-1.391 -8.662,-1.902 -7.396,-10.268 2.83,-3.896 5.699,-7.871 7.979,-11.423 2.208,-3.442 8.004,-9.117 12.169,-13.411 4.578,-2.564 14.694,-4.386 40.097,1.175 25.402,5.562 53.726,22.526 65.696,33.648 11.972,11.124 25.112,28.643 32.411,33.649 7.3,5.005 18.688,15.017 28.616,21.412 9.927,6.396 22.774,9.733 32.702,9.733 9.929,0 22.19,-1.39 28.906,0 6.717,1.39 25.404,7.231 29.991,7.231 4.583,0 23.273,-5.841 29.988,-7.231 6.716,-1.39 18.979,0 28.907,0 9.927,0 22.774,-3.337 32.701,-9.733 9.928,-6.395 21.316,-16.407 28.616,-21.412 7.299,-5.006 20.439,-22.525 32.41,-33.649 11.971,-11.122 40.295,-28.086 65.699,-33.648 25.401,-5.561 35.518,-3.739 40.095,-1.175 l 0.003,0.002 c 4.167,4.295 9.958,9.968 12.167,13.409 2.281,3.553 5.149,7.528 7.98,11.425 1.264,8.364 -3.309,8.875 -7.396,10.266 -4.088,1.39 -7.592,2.78 -10.22,8.62 -2.628,5.84 -6.716,6.397 -14.309,8.343 -7.59,1.946 -13.722,3.892 -23.357,0.834 -9.636,-3.06 -21.316,-6.396 -37.083,-3.06 -15.768,3.338 -38.542,24.75 -49.346,37.542 -10.804,12.792 -15.184,22.526 -12.263,27.809 2.919,5.283 10.803,5.006 19.563,1.669 8.759,-3.337 29.783,-11.681 40.586,-15.573 10.804,-3.893 21.899,-5.284 27.446,-3.893 5.549,1.39 6.134,5.562 3.797,8.898 -2.336,3.337 -10.803,10.011 -15.768,15.294 -4.964,5.285 -13.43,18.077 -10.802,25.584 3.006,8.594 25.694,3.337 33.285,0.279 7.593,-3.059 18.98,-1.668 27.739,0 8.761,1.669 17.812,-3.059 23.067,-7.23 5.256,-4.172 11.972,-10.29 15.477,-18.353 3.503,-8.066 6.716,-18.076 8.175,-25.585 1.46,-7.508 2.628,-21.134 4.38,-24.749 1.751,-3.615 4.087,-4.449 4.963,0 0.876,4.449 0.584,17.241 0.292,27.808 -0.292,10.568 -2.628,22.526 -7.883,37.82"
       style="fill:#d3d2d2;fill-opacity:1;fill-rule:nonzero;stroke:none;stroke-width:0.1"
       id="path754" />
    <path
       d="m 540.002,756.042 c -3.591,0 -6.921,0 -9.549,-0.834 -2.628,-0.834 -9.638,-2.223 -14.894,-2.78 -5.256,-0.556 -28.907,-5.84 -36.791,-8.064 -7.882,-2.225 -21.51,-6.103 -28.029,-14.461 -7.592,-9.733 -16.644,-15.017 -24.821,-21.412 -8.174,-6.396 -18.395,-17.241 -39.126,-36.151 -20.731,-18.91 -37.666,-27.531 -54.309,-32.537 -16.644,-5.005 -30.367,-8.62 -41.464,-8.62 -11.095,0 -15.474,7.508 -18.977,11.123 -3.505,3.616 -2.044,7.786 1.75,8.899 3.796,1.113 8.76,0.835 16.353,1.669 7.591,0.834 22.19,2.502 28.613,2.502 6.424,0 21.024,3.337 30.368,6.674 9.343,3.337 19.855,6.118 43.506,28.365 23.653,22.248 33.286,40.601 36.207,50.612 2.919,10.011 -0.293,13.904 -7.883,17.518 -7.592,3.616 -12.264,2.225 -18.396,6.953 -6.131,4.727 -11.972,15.572 -19.27,22.803 -7.301,7.23 -13.14,12.514 -21.9,12.514 -8.76,0 -23.944,-5.284 -40.004,-11.68 -16.058,-6.396 -24.233,-4.727 -34.162,-4.449 -9.928,0.277 -11.095,-1.669 -14.598,-0.557 -3.504,1.113 -0.876,3.337 0.292,3.893 1.168,0.557 5.546,0.279 8.758,-0.277 3.213,-0.557 17.227,-0.557 25.111,0.556 7.883,1.112 14.308,3.336 21.023,6.117 6.716,2.782 22.192,7.509 26.572,8.621 4.38,1.113 8.467,4.728 9.927,6.952 1.461,2.225 -0.876,7.231 -1.46,10.29 -0.583,3.058 1.752,2.78 2.336,1.111 0.585,-1.667 1.461,-8.619 3.504,-11.122 2.044,-2.503 7.592,-4.45 16.644,-8.621 9.051,-4.172 15.767,-8.621 20.731,-11.958 4.965,-3.336 12.264,-11.679 23.066,-11.679 15.477,0 22.192,7.786 24.528,9.733 2.337,1.946 4.089,3.615 5.841,3.615 1.751,0 1.751,-1.669 9.635,-1.669 5.547,0 23.067,2.781 37.373,4.172 14.308,1.39 22.692,-0.556 33.495,-0.556 10.802,0 19.182,1.946 33.491,0.556 14.307,-1.391 31.826,-4.172 37.376,-4.172 7.883,0 7.883,1.669 9.633,1.669 1.752,0 3.506,-1.669 5.84,-3.615 2.337,-1.947 9.052,-9.733 24.528,-9.733 10.803,0 18.104,8.343 23.067,11.679 4.964,3.337 11.681,7.786 20.731,11.958 9.051,4.171 14.601,6.118 16.644,8.621 2.045,2.503 2.919,9.455 3.504,11.122 0.584,1.669 2.919,1.947 2.337,-1.111 -0.585,-3.059 -2.922,-8.065 -1.462,-10.29 1.462,-2.224 5.55,-5.839 9.928,-6.952 4.38,-1.112 19.855,-5.839 26.57,-8.621 6.717,-2.781 13.14,-5.005 21.023,-6.117 7.884,-1.113 21.902,-1.113 25.112,-0.556 3.213,0.556 7.592,0.834 8.76,0.277 1.168,-0.556 3.795,-2.78 0.292,-3.893 -3.502,-1.112 -4.671,0.834 -14.599,0.557 -9.927,-0.278 -18.105,-1.947 -34.163,4.449 -16.059,6.396 -31.243,11.68 -40.001,11.68 -8.762,0 -14.6,-5.284 -21.902,-12.514 -7.298,-7.231 -13.138,-18.076 -19.27,-22.803 -6.132,-4.728 -10.804,-3.337 -18.396,-6.953 -7.59,-3.614 -10.803,-7.507 -7.883,-17.518 2.92,-10.011 12.556,-28.364 36.207,-50.612 23.651,-22.247 34.163,-25.028 43.505,-28.365 9.344,-3.337 23.943,-6.674 30.368,-6.674 6.424,0 21.023,-1.668 28.616,-2.502 7.591,-0.834 12.553,-0.556 16.35,-1.669 3.795,-1.113 5.255,-5.283 1.752,-8.899 -3.503,-3.615 -7.883,-11.123 -18.98,-11.123 -11.095,0 -24.819,3.615 -41.46,8.62 -16.646,5.006 -33.58,13.627 -54.312,32.537 -20.73,18.91 -30.951,29.755 -39.126,36.151 -8.176,6.395 -17.228,11.679 -24.82,21.412 -6.519,8.358 -20.147,12.236 -28.031,14.461 -7.884,2.224 -31.535,7.508 -36.791,8.064 -5.256,0.557 -12.262,1.946 -14.89,2.78 -2.628,0.834 -5.961,0.834 -9.548,0.834"
       style="fill:#b2b1b1;fill-opacity:1;fill-rule:nonzero;stroke:none;stroke-width:0.1"
       id="path756" />
    <path
       d="m 674.692,608.905 c 4.824,-3.164 18.56,-12.311 33.992,-17.209 8.949,-2.843 25.402,-7.509 39.418,-7.509 14.017,0 18.396,8.063 18.98,11.401 0.584,3.337 -2.921,4.171 -5.84,4.45 -2.919,0.277 -8.466,0 -19.565,2.224 -11.093,2.225 -31.533,9.177 -43.505,16.129 -11.971,6.952 -32.411,27.531 -50.806,48.664 -18.396,21.136 -23.943,31.702 -27.74,39.211 -3.795,7.508 -16.058,8.62 -21.023,8.62 -4.962,0 -14.308,0.834 -28.32,-1.668 -14.018,-2.503 -22.776,-2.781 -30.281,-2.781 -7.507,0 -16.268,0.278 -30.282,2.781 -14.015,2.502 -23.359,1.668 -28.324,1.668 -4.963,0 -17.227,-1.112 -21.021,-8.62 -3.797,-7.509 -9.345,-18.075 -27.74,-39.211 -18.395,-21.133 -38.834,-41.712 -50.806,-48.664 -11.972,-6.952 -32.411,-13.904 -43.507,-16.129 -11.095,-2.224 -16.642,-1.947 -19.564,-2.224 -2.919,-0.279 -6.423,-1.113 -5.838,-4.45 0.582,-3.338 4.963,-11.401 18.978,-11.401 14.017,0 30.469,4.666 39.419,7.509 15.432,4.898 29.168,14.045 33.992,17.209 -7.336,-0.036 -13.883,-1.096 -22.312,-4.418 -8.467,-3.338 -21.9,-7.785 -37.959,-11.402 -16.059,-3.615 -23.652,-0.278 -26.28,1.114 -2.628,1.389 -1.167,2.223 0.877,1.946 2.045,-0.279 4.379,-1.112 10.22,-1.392 5.839,-0.277 9.927,0.835 23.066,4.451 13.14,3.614 27.448,8.063 46.719,20.299 19.273,12.236 33.871,31.424 44.383,45.05 10.512,13.626 21.898,28.087 23.65,30.312 1.752,2.224 4.664,5.684 9.044,5.963 4.38,0.278 11.98,0.711 26.287,0.432 14.307,-0.278 26.863,2.225 36.998,2.225 10.133,0 22.688,-2.503 36.996,-2.225 14.306,0.279 21.906,-0.154 26.286,-0.432 4.382,-0.279 7.291,-3.739 9.044,-5.963 1.752,-2.225 13.139,-16.686 23.651,-30.312 10.512,-13.626 25.111,-32.814 44.383,-45.05 19.27,-12.236 33.578,-16.685 46.717,-20.299 13.139,-3.616 17.226,-4.728 23.069,-4.451 5.838,0.28 8.175,1.113 10.218,1.392 2.044,0.277 3.504,-0.557 0.876,-1.946 -2.628,-1.392 -10.22,-4.729 -26.28,-1.114 -16.058,3.617 -29.489,8.064 -37.958,11.402 -8.43,3.322 -14.976,4.382 -22.312,4.418"
       style="fill:#d3d2d2;fill-opacity:1;fill-rule:nonzero;stroke:none;stroke-width:0.1"
       id="path758" />
    <path
       d="m 540.002,594.199 c -9.258,0 -34.079,0.834 -44.297,1.946 -10.22,1.111 -23.067,3.059 -32.412,5.839 -9.343,2.78 -20.731,8.065 -25.694,10.012 -4.909,1.924 -16.093,8.15 -21.989,-2.852 -0.747,3.459 -2.227,5.632 -3.122,5.632 -1.363,0 -2.53,-2.967 -5.841,-5.006 -0.312,-0.191 -0.767,-0.489 -1.338,-0.865 -7.336,-0.036 -13.883,-1.096 -22.312,-4.418 -8.467,-3.338 -21.9,-7.785 -37.959,-11.402 -16.059,-3.615 -23.652,-0.278 -26.28,1.114 -2.628,1.389 -1.167,2.223 0.877,1.946 2.045,-0.279 4.379,-1.112 10.22,-1.392 5.839,-0.277 9.927,0.835 23.066,4.451 13.14,3.614 27.448,8.063 46.719,20.299 19.273,12.236 33.871,31.424 44.383,45.05 10.512,13.626 21.898,28.087 23.65,30.312 1.752,2.224 4.664,5.684 9.044,5.963 4.38,0.278 11.98,0.711 26.287,0.432 14.307,-0.278 26.863,2.225 36.998,2.225 10.133,0 22.688,-2.503 36.996,-2.225 14.306,0.279 21.906,-0.154 26.286,-0.432 4.382,-0.279 7.291,-3.739 9.044,-5.963 1.752,-2.225 13.139,-16.686 23.651,-30.312 10.512,-13.626 25.111,-32.814 44.383,-45.05 19.27,-12.236 33.578,-16.685 46.717,-20.299 13.139,-3.616 17.226,-4.728 23.069,-4.451 5.838,0.28 8.175,1.113 10.218,1.392 2.044,0.277 3.504,-0.557 0.876,-1.946 -2.628,-1.392 -10.22,-4.729 -26.28,-1.114 -16.058,3.617 -29.489,8.064 -37.958,11.402 -8.43,3.322 -14.976,4.382 -22.312,4.418 -0.572,0.376 -1.026,0.674 -1.339,0.865 -3.309,2.039 -4.479,5.006 -5.84,5.006 -0.896,0 -2.375,-2.173 -3.12,-5.632 -5.898,11.002 -17.082,4.776 -21.991,2.852 -4.963,-1.947 -16.351,-7.232 -25.694,-10.012 -9.343,-2.78 -22.192,-4.728 -32.413,-5.839 -10.217,-1.112 -35.036,-1.946 -44.293,-1.946 z m 71.45,9.732 c 14.599,3.059 23.066,6.952 29.783,11.401 6.716,4.45 4.671,8.899 2.919,11.124 -1.752,2.224 -1.168,5.562 -2.919,6.952 -1.753,1.39 -5.548,5.006 -12.849,8.898 -7.3,3.894 -11.387,2.226 -16.058,0.557 -4.672,-1.669 -21.315,-4.449 -32.994,-5.808 -11.679,-1.358 -32.778,0 -39.332,0 -6.558,0 -27.654,-1.358 -39.334,0 -11.679,1.359 -28.323,4.139 -32.995,5.808 -4.671,1.669 -8.759,3.337 -16.058,-0.557 -7.301,-3.892 -11.096,-7.508 -12.848,-8.898 -1.753,-1.39 -1.168,-4.728 -2.92,-6.952 -1.752,-2.225 -3.795,-6.674 2.92,-11.124 6.716,-4.449 15.183,-8.342 29.782,-11.401 14.601,-3.059 37.203,-7.229 71.453,-7.229 34.248,0 56.851,4.17 71.45,7.229 z m -19.564,44.493 c 17.812,5.006 23.943,13.905 23.943,19.744 0,5.839 -6.423,10.568 -12.846,14.182 -6.425,3.615 -14.894,6.952 -26.57,8.065 -11.681,1.112 -29.784,0.556 -36.413,0.556 -6.63,0 -24.735,0.556 -36.414,-0.556 -11.68,-1.113 -20.147,-4.45 -26.57,-8.065 -6.425,-3.614 -12.849,-8.343 -12.849,-14.182 0,-5.839 6.132,-14.738 23.944,-19.744 17.81,-5.005 33.99,-7.508 51.889,-7.508 17.896,0 34.076,2.503 51.886,7.508"
       style="fill:#b2b1b1;fill-opacity:1;fill-rule:nonzero;stroke:none;stroke-width:0.1"
       id="path760" />
    <path
       d="m 591.888,648.424 c 17.812,5.006 23.943,13.905 23.943,19.744 0,5.839 -6.423,10.568 -12.846,14.182 -6.425,3.615 -14.894,6.952 -26.57,8.065 -11.681,1.112 -29.784,0.556 -36.413,0.556 -6.63,0 -24.735,0.556 -36.414,-0.556 -11.68,-1.113 -20.147,-4.45 -26.57,-8.065 -6.425,-3.614 -12.849,-8.343 -12.849,-14.182 0,-5.839 6.132,-14.738 23.944,-19.744 17.81,-5.005 33.99,-7.508 51.889,-7.508 17.896,0 34.076,2.503 51.886,7.508 z m -51.886,-1.32 c -5.635,0 -19.77,0.208 -37.29,3.545 -17.519,3.336 -28.615,9.177 -28.615,15.851 0,6.674 5.256,7.507 11.681,9.176 6.423,1.669 17.81,2.781 25.985,1.669 8.176,-1.112 18.69,-1.39 28.239,-1.39 9.548,0 20.06,0.278 28.235,1.39 8.178,1.112 19.563,0 25.988,-1.669 6.423,-1.669 11.679,-2.502 11.679,-9.176 0,-6.674 -11.097,-12.515 -28.615,-15.851 -17.518,-3.337 -31.655,-3.545 -37.287,-3.545"
       style="fill:#d3d2d2;fill-opacity:1;fill-rule:nonzero;stroke:none;stroke-width:0.1"
       id="path762" />
    <path
       d="m 611.452,603.931 c 14.599,3.059 23.066,6.952 29.783,11.401 6.716,4.45 4.671,8.899 2.919,11.124 -1.752,2.224 -1.168,5.562 -2.919,6.952 -1.753,1.39 -5.548,5.006 -12.849,8.898 -7.3,3.894 -11.387,2.226 -16.058,0.557 -4.672,-1.669 -21.315,-4.449 -32.994,-5.808 -11.679,-1.358 -32.778,0 -39.332,0 -6.558,0 -27.654,-1.358 -39.334,0 -11.679,1.359 -28.323,4.139 -32.995,5.808 -4.671,1.669 -8.759,3.337 -16.058,-0.557 -7.301,-3.892 -11.096,-7.508 -12.848,-8.898 -1.753,-1.39 -1.168,-4.728 -2.92,-6.952 -1.752,-2.225 -3.795,-6.674 2.92,-11.124 6.716,-4.449 15.183,-8.342 29.782,-11.401 14.601,-3.059 37.203,-7.229 71.453,-7.229 34.248,0 56.851,4.17 71.45,7.229 z m -71.45,3.336 c -12.935,0 -44.59,1.669 -70.868,4.451 -26.279,2.781 -26.279,5.283 -28.031,8.619 -1.752,3.337 2.044,8.621 6.423,11.681 4.381,3.058 9.125,5.037 13.724,5.037 4.599,0 17.811,-3.647 29.491,-5.594 11.678,-1.946 37.666,-1.669 49.261,-1.669 11.592,0 37.578,-0.277 49.258,1.669 11.68,1.947 24.893,5.594 29.492,5.594 4.599,0 9.343,-1.979 13.723,-5.037 4.379,-3.06 8.175,-8.344 6.423,-11.681 -1.752,-3.336 -1.752,-5.838 -28.029,-8.619 -26.28,-2.782 -57.934,-4.451 -70.867,-4.451"
       style="fill:#d3d2d2;fill-opacity:1;fill-rule:nonzero;stroke:none;stroke-width:0.1"
       id="path764" />
    <path
       d="m 664.376,609.084 c -5.899,11.002 -17.065,4.836 -21.974,2.912 -4.963,-1.947 -16.351,-7.232 -25.694,-10.012 -9.343,-2.78 -22.192,-4.728 -32.413,-5.839 -10.217,-1.112 -35.036,-1.946 -44.293,-1.946 -9.258,0 -34.079,0.834 -44.297,1.946 -10.22,1.111 -23.067,3.059 -32.412,5.839 -9.343,2.78 -20.731,8.065 -25.694,10.012 -4.908,1.924 -16.088,8.147 -21.985,-2.843 0.388,-1.801 0.576,-3.954 0.377,-6.335 l -0.18,-1.39 c 10.512,-6.952 19.452,-8.065 27.627,-9.178 8.177,-1.111 11.097,0.835 22.483,-1.945 11.388,-2.781 22.776,-3.615 34.747,-6.953 11.971,-3.337 27.157,-2.503 39.334,-2.503 12.176,0 27.36,-0.834 39.332,2.503 11.97,3.338 23.357,4.172 34.746,6.953 11.387,2.78 14.306,0.834 22.483,1.945 8.175,1.113 17.115,2.226 27.626,9.178 l -0.18,1.39 c -0.196,2.326 -0.004,4.491 0.367,6.266"
       style="fill:#d3d2d2;fill-opacity:1;fill-rule:nonzero;stroke:none;stroke-width:0.1"
       id="path766" />
    <path
       d="m 449.57,842.528 c 4.38,13.903 10.805,20.3 17.812,26.973 7.008,6.674 17.812,8.065 28.032,8.899 10.218,0.834 32.193,8.899 44.588,8.899 12.393,0 34.368,-8.065 44.587,-8.899 10.218,-0.834 21.024,-2.225 28.032,-8.899 7.005,-6.673 13.43,-13.07 17.81,-26.973 0,0 -0.584,4.449 6.715,7.229 7.301,2.782 11.388,2.782 14.309,5.562 2.919,2.781 4.671,4.728 6.422,5.284 1.752,0.556 11.388,0.277 16.352,-1.391 4.964,-1.668 14.308,-4.727 23.067,-6.953 8.76,-2.223 19.563,0 27.155,0.557 7.593,0.557 16.935,-0.277 22.482,-3.059 5.549,-2.78 14.309,-3.893 14.018,-12.235 0,0 3.796,1.668 6.715,1.112 7.083,-1.349 17.674,-5.953 33.58,-14.739 14.598,-8.063 32.701,-30.311 44.965,-58.676 12.263,-28.364 12.555,-41.712 9.344,-63.959 -3.213,-22.247 -7.301,-35.038 -10.22,-35.038 -4.379,0 -7.007,5.005 -14.308,14.46 0,0 2.336,-7.23 1.46,-12.514 -0.875,-5.283 -6.716,-9.177 -10.512,-14.46 -3.797,-5.284 -8.175,-11.124 -11.387,-16.129 -3.212,-5.006 -14.015,-14.739 -16.352,-18.076 -2.337,-3.337 -11.095,-12.513 -17.227,-12.513 -6.132,0 -15.475,1.113 -18.395,2.503 0,0 11.388,-5.284 11.388,-12.514 0,-7.231 -5.547,-13.07 -9.929,-16.13 -4.378,-3.057 -5.838,-4.726 -3.21,-4.449 2.628,0.279 5.838,2.503 10.219,6.397 4.38,3.893 7.59,8.899 9.051,14.182 1.461,5.283 7.008,8.342 9.928,10.845 2.919,2.503 16.35,14.738 21.899,21.412 5.547,6.675 15.768,16.686 18.687,18.633 2.921,1.946 7.592,1.946 9.928,0.555 2.336,-1.389 6.133,-7.508 2.336,-15.294 -3.796,-7.787 -16.645,-25.863 -22.192,-33.092 -5.547,-7.231 -10.803,-11.124 -15.473,-10.568 -3.868,0.46 -6.719,-2.503 -10.221,-7.23 -3.504,-4.728 -12.264,-13.07 -15.185,-11.957 0,0 3.797,-3.338 3.213,-11.959 -0.585,-8.619 -1.459,-17.797 -4.381,-24.193 -2.919,-6.395 -5.256,-11.124 -10.217,-12.513 -4.964,-1.391 -6.132,-1.668 -8.76,-1.948 0,0 2.919,-7.785 4.378,-13.625 1.461,-5.84 6.425,-32.813 3.213,-50.055 -3.213,-17.242 -5.841,-27.252 -26.863,-43.103 -21.023,-15.851 -36.206,-24.75 -45.258,-30.033 -9.052,-5.283 -47.011,-21.69 -54.019,-23.638 -7.008,-1.947 -9.927,-0.555 -15.766,-3.893 -5.84,-3.336 -17.228,-8.064 -35.917,-7.23 -18.686,0.834 -38.952,9.594 -45.461,13.697 -6.511,-4.103 -26.778,-12.863 -45.466,-13.697 -18.687,-0.834 -30.075,3.894 -35.913,7.23 -5.841,3.338 -8.76,1.946 -15.768,3.893 -7.008,1.948 -44.967,18.355 -54.019,23.638 -9.051,5.283 -24.235,14.182 -45.258,30.033 -21.024,15.851 -23.652,25.861 -26.863,43.103 -3.213,17.242 1.752,44.215 3.211,50.055 1.46,5.84 4.382,13.625 4.382,13.625 -2.628,0.28 -3.797,0.557 -8.76,1.948 -4.964,1.389 -7.3,6.118 -10.22,12.513 -2.919,6.396 -3.797,15.574 -4.38,24.193 -0.584,8.621 3.211,11.959 3.211,11.959 -2.919,-1.113 -11.679,7.229 -15.183,11.957 -3.504,4.727 -6.354,7.69 -10.219,7.23 -4.671,-0.556 -9.926,3.337 -15.475,10.568 -5.548,7.229 -18.396,25.305 -22.192,33.092 -3.796,7.786 0,13.905 2.336,15.294 2.336,1.391 7.009,1.391 9.928,-0.555 2.92,-1.947 13.14,-11.958 18.688,-18.633 5.546,-6.674 18.977,-18.909 21.899,-21.412 2.919,-2.503 8.468,-5.562 9.927,-10.845 1.46,-5.283 4.673,-10.289 9.052,-14.182 4.378,-3.894 7.591,-6.118 10.219,-6.397 2.628,-0.277 1.169,1.392 -3.213,4.449 -4.378,3.06 -9.926,8.899 -9.926,16.13 0,7.23 11.386,12.514 11.386,12.514 -2.919,-1.39 -12.262,-2.503 -18.394,-2.503 -6.132,0 -14.892,9.176 -17.227,12.513 -2.336,3.337 -13.139,13.07 -16.351,18.076 -3.211,5.005 -7.593,10.845 -11.388,16.129 -3.796,5.283 -9.636,9.177 -10.512,14.46 -0.876,5.284 1.46,12.514 1.46,12.514 -7.3,-9.455 -9.928,-14.46 -14.307,-14.46 -2.92,0 -7.008,12.791 -10.219,35.038 -3.213,22.247 -2.921,35.595 9.343,63.959 12.262,28.365 30.367,50.613 44.966,58.676 15.904,8.786 26.495,13.39 33.578,14.739 2.92,0.556 6.717,-1.112 6.717,-1.112 -0.294,8.342 8.467,9.455 14.014,12.235 5.549,2.782 14.892,3.616 22.483,3.059 7.593,-0.557 18.396,-2.78 27.156,-0.557 8.759,2.226 18.103,5.285 23.068,6.953 4.963,1.668 14.599,1.947 16.351,1.391 1.751,-0.556 3.503,-2.503 6.422,-5.284 2.921,-2.78 7.008,-2.78 14.309,-5.562 7.299,-2.78 6.715,-7.229 6.715,-7.229 z"
       style="fill:none;stroke:#231f20;stroke-width:0.75;stroke-linecap:round;stroke-linejoin:round;stroke-miterlimit:4;stroke-dasharray:none;stroke-opacity:1"
       id="path768" />
    <path
       d="m 667.513,614.776 c -1.363,0 -4.088,-5.006 -3.504,-11.958 0.585,-6.952 4.38,-7.23 11.097,-8.065 6.715,-0.834 23.357,-7.508 30.658,-10.566 7.299,-3.059 34.454,-12.236 38.25,-15.017"
       style="fill:none;stroke:#231f20;stroke-width:0.5;stroke-linecap:butt;stroke-linejoin:miter;stroke-miterlimit:4;stroke-dasharray:none;stroke-opacity:1"
       id="path770" />
    <path
       d="m 412.488,614.776 c 1.361,0 4.088,-5.006 3.503,-11.958 -0.584,-6.952 -4.379,-7.23 -11.096,-8.065 -6.715,-0.834 -23.358,-7.508 -30.658,-10.566 -7.3,-3.059 -34.455,-12.236 -38.25,-15.017"
       style="fill:none;stroke:#231f20;stroke-width:0.5;stroke-linecap:butt;stroke-linejoin:miter;stroke-miterlimit:4;stroke-dasharray:none;stroke-opacity:1"
       id="path772" />
    <path
       d="m 633.606,546.488 c 8.231,0.855 16.779,0.732 23.104,-1.789 0.55,-0.219 1.077,-0.436 1.582,-0.649"
       style="fill:none;stroke:#231f20;stroke-width:0.5;stroke-linecap:butt;stroke-linejoin:miter;stroke-miterlimit:4;stroke-dasharray:none;stroke-opacity:1"
       id="path774" />
    <path
       d="m 446.397,546.488 c -8.232,0.855 -16.78,0.732 -23.105,-1.789 -0.549,-0.219 -1.076,-0.436 -1.582,-0.649"
       style="fill:none;stroke:#231f20;stroke-width:0.5;stroke-linecap:butt;stroke-linejoin:miter;stroke-miterlimit:4;stroke-dasharray:none;stroke-opacity:1"
       id="path776" />
    <path
       d="m 658.289,544.05 c -1.387,-0.351 -8.883,-1.872 -9.829,-2.035 -0.946,-0.162 -1.46,-0.404 -1.791,-2.015 -0.166,-0.806 -0.786,-3.336 -1.201,-6.199 l -0.215,-1.74 c -1.783,-5.308 -3.797,-0.447 -3.393,0.337 0.877,1.785 1.169,3.746 1.144,4.945 -0.053,2.755 -4.247,8.671 -9.374,9.148"
       style="fill:none;stroke:#231f20;stroke-width:0.5;stroke-linecap:butt;stroke-linejoin:miter;stroke-miterlimit:4;stroke-dasharray:none;stroke-opacity:1"
       id="path778" />
    <path
       d="m 421.018,544.05 c 1.386,-0.351 8.882,-1.872 9.827,-2.035 0.947,-0.162 1.461,-0.404 1.791,-2.015 0.166,-0.806 0.787,-3.336 1.201,-6.199 l 0.215,-1.74 c 1.783,-5.308 3.798,-0.447 3.395,0.337 -0.878,1.785 -1.17,3.746 -1.146,4.945 0.055,2.755 4.248,8.671 9.374,9.148"
       style="fill:none;stroke:#231f20;stroke-width:0.5;stroke-linecap:butt;stroke-linejoin:miter;stroke-miterlimit:4;stroke-dasharray:none;stroke-opacity:1"
       id="path780" />
    <path
       d="m 586.632,526.345 c 7.593,-6.395 35.915,-46.718 45.258,-64.515 9.345,-17.798 16.644,-40.601 18.689,-47.552 2.043,-6.952 5.547,-18.354 6.423,-21.413 0.875,-3.059 3.212,-5.562 7.883,-5.562 4.672,0 14.892,2.781 20.44,8.342 5.549,5.563 6.424,6.675 3.796,14.739 -2.628,8.064 -9.636,22.803 -12.848,28.921 -3.212,6.117 -11.679,21.134 -13.724,24.471"
       style="fill:none;stroke:#231f20;stroke-width:0.5;stroke-linecap:round;stroke-linejoin:round;stroke-miterlimit:4;stroke-dasharray:2.8, 1.8;stroke-dashoffset:0;stroke-opacity:1"
       id="path782" />
    <path
       d="m 615.54,517.168 c 6.714,-5.283 30.944,-31.433 35.323,-36.995"
       style="fill:none;stroke:#231f20;stroke-width:0.5;stroke-linecap:round;stroke-linejoin:round;stroke-miterlimit:4;stroke-dasharray:2.8, 1.8;stroke-dashoffset:0;stroke-opacity:1"
       id="path784" />
    <path
       d="m 540.002,387.024 c -7.095,0 -6.63,3.06 -6.047,11.403 0.585,8.342 1.753,25.305 1.753,36.428 0,11.124 0.874,68.132 4.294,68.132 3.416,0 4.292,-57.008 4.292,-68.132 0,-11.123 1.168,-28.086 1.752,-36.428 0.585,-8.343 1.048,-11.403 -6.044,-11.403 z"
       style="fill:none;stroke:#231f20;stroke-width:0.5;stroke-linecap:round;stroke-linejoin:round;stroke-miterlimit:4;stroke-dasharray:2.8, 1.8;stroke-dashoffset:0;stroke-opacity:1"
       id="path786" />
    <path
       d="m 493.369,526.345 c -7.591,-6.395 -35.915,-46.718 -45.258,-64.515 -9.344,-17.798 -16.644,-40.601 -18.687,-47.552 -2.045,-6.952 -5.549,-18.354 -6.424,-21.413 -0.876,-3.059 -3.213,-5.562 -7.884,-5.562 -4.672,0 -14.892,2.781 -20.44,8.342 -5.548,5.563 -6.424,6.675 -3.796,14.739 2.627,8.064 9.636,22.803 12.848,28.921 3.213,6.117 11.679,21.134 13.724,24.471"
       style="fill:none;stroke:#231f20;stroke-width:0.5;stroke-linecap:round;stroke-linejoin:round;stroke-miterlimit:4;stroke-dasharray:2.8, 1.8;stroke-dashoffset:0;stroke-opacity:1"
       id="path788" />
    <path
       d="m 464.461,517.168 c -6.714,-5.283 -30.943,-31.433 -35.323,-36.995"
       style="fill:none;stroke:#231f20;stroke-width:0.5;stroke-linecap:round;stroke-linejoin:round;stroke-miterlimit:4;stroke-dasharray:2.8, 1.8;stroke-dashoffset:0;stroke-opacity:1"
       id="path790" />
    <path
       d="m 544.294,434.855 c 3.213,0 16.353,-1.945 25.989,-7.509 9.633,-5.56 17.517,-12.512 20.436,-35.594"
       style="fill:none;stroke:#231f20;stroke-width:0.5;stroke-linecap:round;stroke-linejoin:round;stroke-miterlimit:4;stroke-dasharray:2.8, 1.8;stroke-dashoffset:0;stroke-opacity:1"
       id="path792" />
    <path
       d="m 535.708,434.855 c -3.213,0 -16.352,-1.945 -25.988,-7.509 -9.636,-5.56 -17.519,-12.512 -20.44,-35.594"
       style="fill:none;stroke:#231f20;stroke-width:0.5;stroke-linecap:round;stroke-linejoin:round;stroke-miterlimit:4;stroke-dasharray:2.8, 1.8;stroke-dashoffset:0;stroke-opacity:1"
       id="path794" />
    <path
       d="m 587.226,407.513 c 8.749,0.09 42.912,-2.69 63.353,6.765"
       style="fill:none;stroke:#231f20;stroke-width:0.5;stroke-linecap:round;stroke-linejoin:round;stroke-miterlimit:4;stroke-dasharray:2.8, 1.8;stroke-dashoffset:0;stroke-opacity:1"
       id="path796" />
    <path
       d="m 600.016,388.856 c -2.919,0 -4.624,-0.44 -4.624,-1.832 0,-1.39 -0.291,-4.727 3.796,-5.839 4.088,-1.111 9.709,-1.252 9.344,1.392"
       style="fill:none;stroke:#231f20;stroke-width:0.5;stroke-linecap:round;stroke-linejoin:round;stroke-miterlimit:4;stroke-dasharray:2.8, 1.8;stroke-dashoffset:0;stroke-opacity:1"
       id="path798" />
    <path
       d="m 551.887,403.989 c 4.378,-0.28 18.396,-4.729 24.819,-6.675 6.423,-1.946 14.891,-6.118 17.519,-6.952 2.628,-0.835 8.175,-1.946 10.219,-2.78 2.043,-0.835 3.212,-5.285 6.716,-7.231 3.504,-1.946 19.271,-10.567 28.614,-9.733 9.344,0.835 16.497,9.972 23.432,16.804"
       style="fill:none;stroke:#231f20;stroke-width:0.5;stroke-linecap:round;stroke-linejoin:round;stroke-miterlimit:4;stroke-dasharray:2.8, 1.8;stroke-dashoffset:0;stroke-opacity:1"
       id="path800" />
    <path
       d="m 606.296,385.79 c 5.447,0.679 11.872,0.679 21.214,1.513 9.344,0.834 21.024,1.947 29.492,5.562"
       style="fill:none;stroke:#231f20;stroke-width:0.5;stroke-linecap:round;stroke-linejoin:round;stroke-miterlimit:4;stroke-dasharray:2.8, 1.8;stroke-dashoffset:0;stroke-opacity:1"
       id="path802" />
    <path
       d="m 492.776,407.513 c -8.752,0.09 -42.913,-2.69 -63.352,6.765"
       style="fill:none;stroke:#231f20;stroke-width:0.5;stroke-linecap:round;stroke-linejoin:round;stroke-miterlimit:4;stroke-dasharray:2.8, 1.8;stroke-dashoffset:0;stroke-opacity:1"
       id="path804" />
    <path
       d="m 479.985,388.856 c 2.92,0 4.624,-0.44 4.624,-1.832 0,-1.39 0.291,-4.727 -3.796,-5.839 -4.088,-1.111 -9.708,-1.252 -9.344,1.392"
       style="fill:none;stroke:#231f20;stroke-width:0.5;stroke-linecap:round;stroke-linejoin:round;stroke-miterlimit:4;stroke-dasharray:2.8, 1.8;stroke-dashoffset:0;stroke-opacity:1"
       id="path806" />
    <path
       d="m 528.116,403.989 c -4.382,-0.28 -18.396,-4.729 -24.821,-6.675 -6.422,-1.946 -14.889,-6.118 -17.517,-6.952 -2.628,-0.835 -8.177,-1.946 -10.221,-2.78 -2.045,-0.835 -3.212,-5.285 -6.716,-7.231 -3.504,-1.946 -19.271,-10.567 -28.614,-9.733 -9.344,0.835 -16.497,9.972 -23.432,16.804"
       style="fill:none;stroke:#231f20;stroke-width:0.5;stroke-linecap:round;stroke-linejoin:round;stroke-miterlimit:4;stroke-dasharray:2.8, 1.8;stroke-dashoffset:0;stroke-opacity:1"
       id="path808" />
    <path
       d="m 473.705,385.79 c -5.447,0.679 -11.871,0.679 -21.214,1.513 -9.344,0.834 -21.024,1.947 -29.491,5.562"
       style="fill:none;stroke:#231f20;stroke-width:0.5;stroke-linecap:round;stroke-linejoin:round;stroke-miterlimit:4;stroke-dasharray:2.8, 1.8;stroke-dashoffset:0;stroke-opacity:1"
       id="path810" />
    <path
       d="m 586.632,537.747 c 4.381,0.834 29.199,16.684 28.324,38.376"
       style="fill:none;stroke:#231f20;stroke-width:0.5;stroke-linecap:round;stroke-linejoin:round;stroke-miterlimit:4;stroke-dasharray:2.8, 1.8;stroke-dashoffset:0;stroke-opacity:1"
       id="path812" />
    <path
       d="m 643.862,515.235 c 9.052,-0.569 23.213,-4.324 31.849,-12.68"
       style="fill:none;stroke:#231f20;stroke-width:0.5;stroke-linecap:round;stroke-linejoin:round;stroke-miterlimit:4;stroke-dasharray:2.8, 1.8;stroke-dashoffset:0;stroke-opacity:1"
       id="path814" />
    <path
       d="m 632.183,579.182 c -0.293,-5.841 2.065,-22.553 4.683,-32.412"
       style="fill:none;stroke:#231f20;stroke-width:0.5;stroke-linecap:round;stroke-linejoin:round;stroke-miterlimit:4;stroke-dasharray:2.8, 1.8;stroke-dashoffset:0;stroke-opacity:1"
       id="path816" />
    <path
       d="m 679.485,578.069 c -4.964,-0.277 -11.68,-4.449 -11.68,-9.177 0,-4.727 2.317,-13.07 21.004,-8.62"
       style="fill:none;stroke:#231f20;stroke-width:0.5;stroke-linecap:round;stroke-linejoin:round;stroke-miterlimit:4;stroke-dasharray:2.8, 1.8;stroke-dashoffset:0;stroke-opacity:1"
       id="path818" />
    <path
       d="m 668.94,563.737 c -4.055,-2.91 -10.816,-16.815 21.888,-16.258"
       style="fill:none;stroke:#231f20;stroke-width:0.5;stroke-linecap:round;stroke-linejoin:round;stroke-miterlimit:4;stroke-dasharray:2.8, 1.8;stroke-dashoffset:0;stroke-opacity:1"
       id="path820" />
    <path
       d="m 696.129,538.581 c -4.38,0.556 -14.308,-4.45 -16.936,-8.899 -2.628,-4.449 -9.636,-18.353 -3.212,-27.529 6.424,-9.178 11.971,-6.953 18.687,-17.799 6.717,-10.845 3.795,-25.026 4.671,-33.926 0.878,-8.899 1.169,-16.964 12.849,-21.134"
       style="fill:none;stroke:#231f20;stroke-width:0.5;stroke-linecap:round;stroke-linejoin:round;stroke-miterlimit:4;stroke-dasharray:2.8, 1.8;stroke-dashoffset:0;stroke-opacity:1"
       id="path822" />
    <path
       d="m 703.938,529.613 c -4.014,-2.711 -14.398,-30.627 -10.52,-43.365"
       style="fill:none;stroke:#231f20;stroke-width:0.5;stroke-linecap:round;stroke-linejoin:round;stroke-miterlimit:4;stroke-dasharray:2.8, 1.8;stroke-dashoffset:0;stroke-opacity:1"
       id="path824" />
    <path
       d="m 493.369,537.747 c -4.38,0.834 -29.2,16.684 -28.324,38.376"
       style="fill:none;stroke:#231f20;stroke-width:0.5;stroke-linecap:round;stroke-linejoin:round;stroke-miterlimit:4;stroke-dasharray:2.8, 1.8;stroke-dashoffset:0;stroke-opacity:1"
       id="path826" />
    <path
       d="m 658.292,544.05 c 11.049,-4.671 11.85,-8.081 11.85,-10.475 0,-2.503 0,-4.45 -0.876,-5.283 -0.877,-0.834 -12.264,-13.904 -28.616,-13.071 -16.35,0.836 -21.606,1.391 -25.11,1.947 -3.503,0.556 -13.14,1.669 -16.643,5.562 -3.504,3.893 -7.572,8.278 3.074,15.54"
       style="fill:none;stroke:#231f20;stroke-width:0.5;stroke-linecap:round;stroke-linejoin:round;stroke-miterlimit:4;stroke-dasharray:2.8, 1.8;stroke-dashoffset:0;stroke-opacity:1"
       id="path828" />
    <path
       d="m 588.472,530.012 c 5.462,3.563 13.928,9.681 24.149,12.463 5.07,1.379 12.874,3.171 20.985,4.013"
       style="fill:none;stroke:#231f20;stroke-width:0.5;stroke-linecap:round;stroke-linejoin:round;stroke-miterlimit:4;stroke-dasharray:2.8, 1.8;stroke-dashoffset:0;stroke-opacity:1"
       id="path830" />
    <path
       d="m 421.71,544.05 c -11.049,-4.671 -11.85,-8.081 -11.85,-10.475 0,-2.503 0,-4.45 0.876,-5.283 0.877,-0.834 12.264,-13.904 28.616,-13.071 16.35,0.836 21.606,1.391 25.111,1.947 3.502,0.556 13.14,1.669 16.642,5.562 3.504,3.893 7.572,8.278 -3.074,15.54"
       style="fill:none;stroke:#231f20;stroke-width:0.5;stroke-linecap:round;stroke-linejoin:round;stroke-miterlimit:4;stroke-dasharray:2.8, 1.8;stroke-dashoffset:0;stroke-opacity:1"
       id="path832" />
    <path
       d="m 491.53,530.012 c -5.461,3.563 -13.927,9.681 -24.148,12.463 -5.071,1.379 -12.875,3.171 -20.985,4.013"
       style="fill:none;stroke:#231f20;stroke-width:0.5;stroke-linecap:round;stroke-linejoin:round;stroke-miterlimit:4;stroke-dasharray:2.8, 1.8;stroke-dashoffset:0;stroke-opacity:1"
       id="path834" />
    <path
       d="m 436.14,515.235 c -9.053,-0.569 -23.214,-4.324 -31.848,-12.68"
       style="fill:none;stroke:#231f20;stroke-width:0.5;stroke-linecap:round;stroke-linejoin:round;stroke-miterlimit:4;stroke-dasharray:2.8, 1.8;stroke-dashoffset:0;stroke-opacity:1"
       id="path836" />
    <path
       d="m 447.818,579.182 c 0.293,-5.841 -2.067,-22.553 -4.682,-32.412"
       style="fill:none;stroke:#231f20;stroke-width:0.5;stroke-linecap:round;stroke-linejoin:round;stroke-miterlimit:4;stroke-dasharray:2.8, 1.8;stroke-dashoffset:0;stroke-opacity:1"
       id="path838" />
    <path
       d="m 411.061,563.737 c 4.055,-2.91 10.815,-16.815 -21.886,-16.258"
       style="fill:none;stroke:#231f20;stroke-width:0.5;stroke-linecap:round;stroke-linejoin:round;stroke-miterlimit:4;stroke-dasharray:2.8, 1.8;stroke-dashoffset:0;stroke-opacity:1"
       id="path840" />
    <path
       d="m 383.873,538.581 c 4.379,0.556 14.307,-4.45 16.935,-8.899 2.628,-4.449 9.636,-18.353 3.211,-27.529 -6.423,-9.178 -11.971,-6.953 -18.686,-17.799 -6.716,-10.845 -3.796,-25.026 -4.671,-33.926 -0.877,-8.899 -1.169,-16.964 -12.849,-21.134"
       style="fill:none;stroke:#231f20;stroke-width:0.5;stroke-linecap:round;stroke-linejoin:round;stroke-miterlimit:4;stroke-dasharray:2.8, 1.8;stroke-dashoffset:0;stroke-opacity:1"
       id="path842" />
    <path
       d="m 376.064,529.613 c 4.013,-2.711 14.397,-30.627 10.52,-43.365"
       style="fill:none;stroke:#231f20;stroke-width:0.5;stroke-linecap:round;stroke-linejoin:round;stroke-miterlimit:4;stroke-dasharray:2.8, 1.8;stroke-dashoffset:0;stroke-opacity:1"
       id="path844" />
    <path
       d="m 640.067,482.408 c -1.481,-2.348 2.04,-6.762 6.132,-9.455 4.427,-2.915 9.445,-5.444 12.045,-6.883 1.819,-1.008 5.401,-3.685 6.641,-2.016 1.132,1.523 2.628,2.78 -0.876,5.84 -3.504,3.059 -11.678,9.733 -15.475,11.68 -3.796,1.946 -7.591,2.224 -8.467,0.834 z"
       style="fill:none;stroke:#231f20;stroke-width:0.5;stroke-linecap:round;stroke-linejoin:round;stroke-miterlimit:4;stroke-dasharray:2.8, 1.8;stroke-dashoffset:0;stroke-opacity:1"
       id="path846" />
    <path
       d="m 621.963,468.781 c -3.065,-1.877 -12.045,-10.776 -10.803,-13.069 0.856,-1.583 5.256,-2.503 9.342,0.278 4.089,2.78 9.774,5.907 7.008,10.844 -2.335,4.172 -5.547,1.947 -5.547,1.947 z"
       style="fill:none;stroke:#231f20;stroke-width:0.5;stroke-linecap:round;stroke-linejoin:round;stroke-miterlimit:4;stroke-dasharray:2.8, 1.8;stroke-dashoffset:0;stroke-opacity:1"
       id="path848" />
    <path
       d="m 663.718,447.925 c 2.919,0 7.884,-1.946 7.884,-6.952 0,-5.006 -3.213,-6.674 -7.008,-6.674 -3.797,0 -7.592,1.948 -7.592,6.952 0,2.219 3.789,6.674 6.716,6.674 z"
       style="fill:none;stroke:#231f20;stroke-width:0.5;stroke-linecap:round;stroke-linejoin:round;stroke-miterlimit:4;stroke-dasharray:2.8, 1.8;stroke-dashoffset:0;stroke-opacity:1"
       id="path850" />
    <path
       d="m 671.998,408.559 c 5.736,2.939 9.826,5.77 14.205,9.498"
       style="fill:none;stroke:#231f20;stroke-width:0.5;stroke-linecap:round;stroke-linejoin:round;stroke-miterlimit:4;stroke-dasharray:2.8, 1.8;stroke-dashoffset:0;stroke-opacity:1"
       id="path852" />
    <path
       d="m 659.921,435.404 c -5.255,-2.502 -11.627,-13.528 -8.996,-22.303 2.49,-8.302 10.456,-9.112 11.917,-9.112 1.459,0 10.219,0.277 11.971,11.956 1.752,11.681 -4.672,17.676 -6.424,19.066"
       style="fill:none;stroke:#231f20;stroke-width:0.5;stroke-linecap:round;stroke-linejoin:round;stroke-miterlimit:4;stroke-dasharray:2.8, 1.8;stroke-dashoffset:0;stroke-opacity:1"
       id="path854" />
    <path
       d="m 439.934,482.408 c 1.479,-2.348 -2.041,-6.762 -6.132,-9.455 -4.426,-2.915 -9.445,-5.444 -12.045,-6.883 -1.818,-1.008 -5.401,-3.685 -6.641,-2.016 -1.132,1.523 -2.628,2.78 0.875,5.84 3.505,3.059 11.679,9.733 15.476,11.68 3.796,1.946 7.591,2.224 8.467,0.834 z"
       style="fill:none;stroke:#231f20;stroke-width:0.5;stroke-linecap:round;stroke-linejoin:round;stroke-miterlimit:4;stroke-dasharray:2.8, 1.8;stroke-dashoffset:0;stroke-opacity:1"
       id="path856" />
    <path
       d="m 458.038,468.781 c 3.065,-1.877 12.045,-10.776 10.803,-13.069 -0.855,-1.583 -5.256,-2.503 -9.342,0.278 -4.089,2.78 -9.775,5.907 -7.008,10.844 2.335,4.172 5.547,1.947 5.547,1.947 z"
       style="fill:none;stroke:#231f20;stroke-width:0.5;stroke-linecap:round;stroke-linejoin:round;stroke-miterlimit:4;stroke-dasharray:2.8, 1.8;stroke-dashoffset:0;stroke-opacity:1"
       id="path858" />
    <path
       d="m 416.285,447.925 c -2.921,0 -7.884,-1.946 -7.884,-6.952 0,-5.006 3.211,-6.674 7.006,-6.674 3.797,0 7.593,1.948 7.593,6.952 0,2.219 -3.79,6.674 -6.715,6.674 z"
       style="fill:none;stroke:#231f20;stroke-width:0.5;stroke-linecap:round;stroke-linejoin:round;stroke-miterlimit:4;stroke-dasharray:2.8, 1.8;stroke-dashoffset:0;stroke-opacity:1"
       id="path860" />
    <path
       d="m 408.004,408.559 c -5.737,2.939 -9.827,5.77 -14.206,9.498"
       style="fill:none;stroke:#231f20;stroke-width:0.5;stroke-linecap:round;stroke-linejoin:round;stroke-miterlimit:4;stroke-dasharray:2.8, 1.8;stroke-dashoffset:0;stroke-opacity:1"
       id="path862" />
    <path
       d="m 420.08,435.404 c 5.255,-2.502 11.628,-13.528 8.996,-22.303 -2.49,-8.302 -10.457,-9.112 -11.917,-9.112 -1.459,0 -10.218,0.277 -11.971,11.956 -1.752,11.681 4.672,17.676 6.424,19.066"
       style="fill:none;stroke:#231f20;stroke-width:0.5;stroke-linecap:round;stroke-linejoin:round;stroke-miterlimit:4;stroke-dasharray:2.8, 1.8;stroke-dashoffset:0;stroke-opacity:1"
       id="path864" />
    <path
       d="m 562.981,548.314 c 6.715,-3.615 11.097,-4.728 14.308,-5.839 3.213,-1.113 7.883,-3.615 9.343,-4.728 1.459,-1.113 2.628,-4.45 2.044,-6.953 -0.585,-2.502 -1.459,-3.615 -2.044,-4.449 -0.584,-0.835 -2.628,-4.727 -5.84,-7.23 -3.212,-2.503 -6.422,-3.615 -8.759,-3.337 -2.337,0.279 -10.221,1.669 -14.014,5.006 -3.797,3.337 -5.382,4.797 -8.386,5.736"
       style="fill:none;stroke:#231f20;stroke-width:0.5;stroke-linecap:round;stroke-linejoin:round;stroke-miterlimit:4;stroke-dasharray:2.8, 1.8;stroke-dashoffset:0;stroke-opacity:1"
       id="path866" />
    <path
       d="m 552.186,525.42 c 1.744,-2.69 3.496,-5.47 4.372,-8.808 0.876,-3.337 -0.584,-7.786 6.717,-9.176 8.061,-1.537 8.758,8.342 8.758,8.342"
       style="fill:none;stroke:#231f20;stroke-width:0.5;stroke-linecap:round;stroke-linejoin:round;stroke-miterlimit:4;stroke-dasharray:2.8, 1.8;stroke-dashoffset:0;stroke-opacity:1"
       id="path868" />
    <path
       d="m 517.019,548.314 c -6.716,-3.615 -11.096,-4.728 -14.307,-5.839 -3.212,-1.113 -7.883,-3.615 -9.343,-4.728 -1.461,-1.113 -2.628,-4.45 -2.044,-6.953 0.583,-2.502 1.459,-3.615 2.044,-4.449 0.584,-0.835 2.627,-4.727 5.839,-7.23 3.211,-2.503 6.424,-3.615 8.76,-3.337 2.335,0.279 10.219,1.669 14.016,5.006 3.795,3.337 5.38,4.797 8.384,5.736"
       style="fill:none;stroke:#231f20;stroke-width:0.5;stroke-linecap:round;stroke-linejoin:round;stroke-miterlimit:4;stroke-dasharray:2.8, 1.8;stroke-dashoffset:0;stroke-opacity:1"
       id="path870" />
    <path
       d="m 527.815,525.42 c -1.744,-2.69 -3.496,-5.47 -4.372,-8.808 -0.876,-3.337 0.585,-7.786 -6.715,-9.176 -8.063,-1.537 -8.76,8.342 -8.76,8.342"
       style="fill:none;stroke:#231f20;stroke-width:0.5;stroke-linecap:round;stroke-linejoin:round;stroke-miterlimit:4;stroke-dasharray:2.8, 1.8;stroke-dashoffset:0;stroke-opacity:1"
       id="path872" />
    <path
       d="m 550.135,393.977 c -0.483,-2.757 2.334,-7.508 9.049,-8.343 6.719,-0.834 19.858,-3.616 26.279,-5.56 6.425,-1.948 12.266,-4.172 16.062,-8.066 3.794,-3.893 9.635,-7.787 14.599,-7.787 4.962,0 10.51,-1.389 14.307,-1.667 3.795,-0.279 5.548,1.39 5.548,3.058 0,1.669 -2.337,3.615 -7.3,3.615 -4.965,0 -11.387,0.557 -14.599,0.835 -3.211,0.277 -8.467,5.006 -10.512,6.952 -2.043,1.946 -6.715,6.117 -11.971,8.62 -5.256,2.503 -12.555,4.45 -16.351,4.728 -3.796,0.277 -9.637,5.283 -14.016,5.84 -4.38,0.555 -10.512,1.112 -11.095,-2.225 z"
       style="fill:none;stroke:#231f20;stroke-width:0.5;stroke-linecap:round;stroke-linejoin:round;stroke-miterlimit:4;stroke-dasharray:2.8, 1.8;stroke-dashoffset:0;stroke-opacity:1"
       id="path874" />
    <path
       d="m 551.178,373.894 c -2.212,3.12 -0.752,7.291 0.124,8.683 0.876,1.389 3.213,1.111 4.963,-0.836 1.754,-1.947 7.593,-5.562 7.01,-8.621"
       style="fill:none;stroke:#231f20;stroke-width:0.5;stroke-linecap:round;stroke-linejoin:round;stroke-miterlimit:4;stroke-dasharray:2.8, 1.8;stroke-dashoffset:0;stroke-opacity:1"
       id="path876" />
    <path
       d="m 529.867,393.977 c 0.482,-2.757 -2.336,-7.508 -9.052,-8.343 -6.715,-0.834 -19.855,-3.616 -26.279,-5.56 -6.423,-1.948 -12.264,-4.172 -16.059,-8.066 -3.796,-3.893 -9.636,-7.787 -14.599,-7.787 -4.964,0 -10.511,-1.389 -14.308,-1.667 -3.795,-0.279 -5.547,1.39 -5.547,3.058 0,1.669 2.336,3.615 7.299,3.615 4.964,0 11.388,0.557 14.599,0.835 3.213,0.277 8.469,5.006 10.512,6.952 2.044,1.946 6.717,6.117 11.973,8.62 5.256,2.503 12.554,4.45 16.349,4.728 3.796,0.277 9.636,5.283 14.017,5.84 4.379,0.555 10.512,1.112 11.095,-2.225 z"
       style="fill:none;stroke:#231f20;stroke-width:0.5;stroke-linecap:round;stroke-linejoin:round;stroke-miterlimit:4;stroke-dasharray:2.8, 1.8;stroke-dashoffset:0;stroke-opacity:1"
       id="path878" />
    <path
       d="m 528.825,373.894 c 2.21,3.12 0.75,7.291 -0.126,8.683 -0.874,1.389 -3.211,1.111 -4.965,-0.836 -1.75,-1.947 -7.59,-5.562 -7.006,-8.621"
       style="fill:none;stroke:#231f20;stroke-width:0.5;stroke-linecap:round;stroke-linejoin:round;stroke-miterlimit:4;stroke-dasharray:2.8, 1.8;stroke-dashoffset:0;stroke-opacity:1"
       id="path880" />
    <path
       d="m 585.463,367.559 c -4.671,2.503 -22.188,11.679 -20.729,13.904 1.46,2.225 10.218,-5.561 12.264,-6.952 1.855,-1.261 9.98,-5.449 11.387,-6.118 1.606,-0.765 5.037,-1.39 3.503,0.834 -1.602,2.326 -4.671,1.948 -7.299,3.615 -2.628,1.669 -5.84,3.06 -4.963,5.284 0.876,2.225 6.422,0 8.174,-0.834 1.751,-0.834 20.368,-10.96 15.441,-15.352"
       style="fill:none;stroke:#231f20;stroke-width:0.5;stroke-linecap:round;stroke-linejoin:round;stroke-miterlimit:4;stroke-dasharray:2.8, 1.8;stroke-dashoffset:0;stroke-opacity:1"
       id="path882" />
    <path
       d="m 411.297,527.006 c 0,0 -9.204,3.567 -11.832,4.402"
       style="fill:none;stroke:#231f20;stroke-width:0.5;stroke-linecap:round;stroke-linejoin:round;stroke-miterlimit:4;stroke-dasharray:2.8, 1.8;stroke-dashoffset:0;stroke-opacity:1"
       id="path884" />
    <path
       d="m 400.516,578.069 c 4.964,-0.277 11.681,-4.449 11.681,-9.177 0,-4.727 -2.318,-13.07 -21.005,-8.62"
       style="fill:none;stroke:#231f20;stroke-width:0.5;stroke-linecap:round;stroke-linejoin:round;stroke-miterlimit:4;stroke-dasharray:2.8, 1.8;stroke-dashoffset:0;stroke-opacity:1"
       id="path886" />
    <path
       d="m 421.712,544.05 c -5.721,1.483 -9.516,3.158 -12.292,6.213"
       style="fill:none;stroke:#231f20;stroke-width:0.5;stroke-linecap:round;stroke-linejoin:round;stroke-miterlimit:4;stroke-dasharray:2.8, 1.8;stroke-dashoffset:0;stroke-opacity:1"
       id="path888" />
    <path
       d="m 494.536,367.559 c 4.672,2.503 22.192,11.679 20.731,13.904 -1.46,2.225 -10.22,-5.561 -12.263,-6.952 -1.855,-1.261 -9.98,-5.449 -11.387,-6.118 -1.607,-0.765 -5.036,-1.39 -3.504,0.834 1.601,2.326 4.671,1.948 7.299,3.615 2.628,1.669 5.839,3.06 4.964,5.284 -0.876,2.225 -6.423,0 -8.175,-0.834 -1.752,-0.834 -20.369,-10.96 -15.441,-15.352"
       style="fill:none;stroke:#231f20;stroke-width:0.5;stroke-linecap:round;stroke-linejoin:round;stroke-miterlimit:4;stroke-dasharray:2.8, 1.8;stroke-dashoffset:0;stroke-opacity:1"
       id="path890" />
    <path
       d="m 658.289,544.05 c 5.72,1.483 9.518,3.158 12.292,6.213"
       style="fill:none;stroke:#231f20;stroke-width:0.5;stroke-linecap:round;stroke-linejoin:round;stroke-miterlimit:4;stroke-dasharray:2.8, 1.8;stroke-dashoffset:0;stroke-opacity:1"
       id="path892" />
    <path
       d="m 668.008,527.006 c 0,0 9.902,3.567 12.53,4.402"
       style="fill:none;stroke:#231f20;stroke-width:0.5;stroke-linecap:round;stroke-linejoin:round;stroke-miterlimit:4;stroke-dasharray:2.8, 1.8;stroke-dashoffset:0;stroke-opacity:1"
       id="path894" />
    <path
       d="m 601.971,538.27 c 3.107,-1.885 12.891,-7.678 18.669,-4.897 5.776,2.78 6.562,8.255 7.083,12.342"
       style="fill:none;stroke:#231f20;stroke-width:0.5;stroke-linecap:round;stroke-linejoin:round;stroke-miterlimit:4;stroke-dasharray:2.8, 1.8;stroke-dashoffset:0;stroke-opacity:1"
       id="path896" />
    <path
       d="m 595.642,527.163 c 2.024,1.412 10.221,2.409 12.565,-0.901 2.444,-3.455 0.368,-7.887 0.368,-7.887"
       style="fill:none;stroke:#231f20;stroke-width:0.5;stroke-linecap:round;stroke-linejoin:round;stroke-miterlimit:4;stroke-dasharray:2.8, 1.8;stroke-dashoffset:0;stroke-opacity:1"
       id="path898" />
    <path
       d="m 620.19,516.581 c 2.514,7.076 1.394,15.148 0.45,16.792 0,0 5.516,-9.013 13.163,-7.289 4.316,0.973 6.71,3.56 7.965,6.124"
       style="fill:none;stroke:#231f20;stroke-width:0.5;stroke-linecap:round;stroke-linejoin:round;stroke-miterlimit:4;stroke-dasharray:2.8, 1.8;stroke-dashoffset:0;stroke-opacity:1"
       id="path900" />
    <path
       d="m 633.803,526.084 c 0,0 0.33,-6.844 0.346,-10.513"
       style="fill:none;stroke:#231f20;stroke-width:0.5;stroke-linecap:round;stroke-linejoin:round;stroke-miterlimit:4;stroke-dasharray:2.8, 1.8;stroke-dashoffset:0;stroke-opacity:1"
       id="path902" />
    <path
       d="m 668.008,527.006 c -19.966,-1.107 -22.556,6.66 -22.548,6.728 -0.407,-2.796 -0.615,-5.991 0.042,-8.128 1.313,-4.272 6.314,-7.056 8.012,-8.229"
       style="fill:none;stroke:#231f20;stroke-width:0.5;stroke-linecap:round;stroke-linejoin:round;stroke-miterlimit:4;stroke-dasharray:2.8, 1.8;stroke-dashoffset:0;stroke-opacity:1"
       id="path904" />
    <g
       id="g906">
      <text
         xml:space="preserve"
         transform="matrix(1,0,0,-1,640.002,542.517)"
         style="font-variant:normal;font-weight:normal;font-size:8.35719px;font-family:Minion;-inkscape-font-specification:Minion-Regular;writing-mode:lr-tb;fill:#231f20;fill-opacity:1;fill-rule:nonzero;stroke:none"
         id="text910"><tspan
           x="0 2.9668024 7.2874699"
           y="0"
           id="tspan908">sol</tspan></text>
    </g>
    <path
       d="m 477.334,538.27 c -3.106,-1.885 -12.89,-7.678 -18.668,-4.897 -5.777,2.78 -6.562,8.255 -7.082,12.342"
       style="fill:none;stroke:#231f20;stroke-width:0.5;stroke-linecap:round;stroke-linejoin:round;stroke-miterlimit:4;stroke-dasharray:2.8, 1.8;stroke-dashoffset:0;stroke-opacity:1"
       id="path912" />
    <path
       d="m 483.664,527.163 c -2.024,1.412 -10.221,2.409 -12.565,-0.901 -2.444,-3.455 -0.368,-7.887 -0.368,-7.887"
       style="fill:none;stroke:#231f20;stroke-width:0.5;stroke-linecap:round;stroke-linejoin:round;stroke-miterlimit:4;stroke-dasharray:2.8, 1.8;stroke-dashoffset:0;stroke-opacity:1"
       id="path914" />
    <path
       d="m 459.116,516.581 c -2.514,7.076 -1.394,15.148 -0.45,16.792 0,0 -5.516,-9.013 -13.163,-7.289 -4.316,0.973 -6.71,3.56 -7.965,6.124"
       style="fill:none;stroke:#231f20;stroke-width:0.5;stroke-linecap:round;stroke-linejoin:round;stroke-miterlimit:4;stroke-dasharray:2.8, 1.8;stroke-dashoffset:0;stroke-opacity:1"
       id="path916" />
    <path
       d="m 445.503,526.084 c 0,0 -0.331,-6.844 -0.345,-10.513"
       style="fill:none;stroke:#231f20;stroke-width:0.5;stroke-linecap:round;stroke-linejoin:round;stroke-miterlimit:4;stroke-dasharray:2.8, 1.8;stroke-dashoffset:0;stroke-opacity:1"
       id="path918" />
    <path
       d="m 411.297,527.006 c 19.967,-1.107 22.557,6.66 22.549,6.728 0.406,-2.796 0.614,-5.991 -0.042,-8.128 -1.313,-4.272 -6.314,-7.056 -8.012,-8.229"
       style="fill:none;stroke:#231f20;stroke-width:0.5;stroke-linecap:round;stroke-linejoin:round;stroke-miterlimit:4;stroke-dasharray:2.8, 1.8;stroke-dashoffset:0;stroke-opacity:1"
       id="path920" />
    <path
       d="m 261.435,649.002 c -1.266,8.366 3.307,8.877 7.396,10.268 4.087,1.39 7.589,2.78 10.217,8.62 2.628,5.84 6.717,6.397 14.308,8.343 7.592,1.946 13.725,3.892 23.359,0.834 9.636,-3.06 21.316,-6.396 37.082,-3.06 15.768,3.338 38.543,24.75 49.348,37.542 10.803,12.792 15.183,22.526 12.262,27.809 -2.919,5.283 -10.803,5.006 -19.563,1.669 -8.76,-3.337 -29.783,-11.681 -40.586,-15.573 -10.804,-3.893 -21.899,-5.284 -27.448,-3.893 -5.547,1.39 -6.13,5.562 -3.796,8.898 2.337,3.337 10.804,10.011 15.768,15.294 4.965,5.285 13.431,18.077 10.803,25.584 -3.006,8.594 -25.694,3.337 -33.287,0.279 -7.59,-3.059 -18.978,-1.668 -27.738,0 -8.759,1.669 -17.81,-3.059 -23.066,-7.23 -5.256,-4.172 -11.972,-10.29 -15.476,-18.353 -3.504,-8.066 -6.716,-18.076 -8.176,-25.585 -1.46,-7.508 -2.628,-21.134 -4.38,-24.749 -1.752,-3.615 -4.087,-4.449 -4.963,0 -0.876,4.449 -0.584,17.241 -0.292,27.808 0.292,10.568 2.627,22.526 7.883,37.82 5.256,15.294 17.812,31.98 28.032,41.156 10.22,9.177 18.978,16.685 27.153,18.353 8.178,1.669 6.425,-4.449 4.382,-10.845 -2.045,-6.396 -0.293,-9.454 6.13,-11.679 6.424,-2.225 16.06,-0.835 24.527,1.668 8.468,2.503 18.979,7.23 21.316,10.567 2.335,3.337 0,10.845 -4.38,13.071 -4.379,2.224 -6.131,6.117 -6.131,11.679 0,5.562 6.423,6.396 11.094,5.284 4.673,-1.113 13.433,-3.059 18.98,-3.893 5.548,-0.835 7.884,-1.669 10.22,-4.729 2.336,-3.058 3.505,-6.951 6.132,-11.401 2.628,-4.449 16.643,-14.738 23.652,-20.021 7.007,-5.284 14.599,-11.958 21.022,-12.792 6.423,-0.834 11.388,4.171 13.432,6.952 2.043,2.78 7.299,6.395 9.344,6.395 2.043,0 8.174,-1.112 12.554,-1.112 4.38,0 9.636,1.112 18.103,5.562 8.469,4.449 23.359,6.396 29.2,6.396 5.839,0 18.309,-1.391 24.15,-1.391 5.837,0 18.308,1.391 24.147,1.391 5.841,0 20.732,-1.947 29.198,-6.396 8.469,-4.45 13.725,-5.562 18.105,-5.562 4.379,0 10.511,1.112 12.556,1.112 2.043,0 7.299,-3.615 9.343,-6.395 2.043,-2.781 7.007,-7.786 13.431,-6.952 6.425,0.834 14.015,7.508 21.023,12.792 7.008,5.283 21.024,15.572 23.652,20.021 2.627,4.45 3.795,8.343 6.131,11.401 2.336,3.06 4.672,3.894 10.22,4.729 5.549,0.834 14.307,2.78 18.98,3.893 4.67,1.112 11.094,0.278 11.094,-5.284 0,-5.562 -1.752,-9.455 -6.13,-11.679 -4.381,-2.226 -6.715,-9.734 -4.381,-13.071 2.336,-3.337 12.847,-8.064 21.316,-10.567 8.467,-2.503 18.102,-3.893 24.525,-1.668 6.425,2.225 8.177,5.283 6.134,11.679 -2.046,6.396 -3.797,12.514 4.378,10.845 8.175,-1.668 16.937,-9.176 27.155,-18.353 10.221,-9.176 22.776,-25.862 28.032,-41.156 5.255,-15.294 7.591,-27.252 7.883,-37.82 0.292,-10.567 0.584,-23.359 -0.292,-27.808 -0.876,-4.449 -3.212,-3.615 -4.963,0 -1.752,3.615 -2.92,17.241 -4.38,24.749 -1.459,7.509 -4.672,17.519 -8.175,25.585 -3.505,8.063 -10.221,14.181 -15.477,18.353 -5.255,4.171 -14.306,8.899 -23.067,7.23 -8.759,-1.668 -20.146,-3.059 -27.739,0 -7.591,3.058 -30.279,8.315 -33.285,-0.279 -2.628,-7.507 5.838,-20.299 10.802,-25.584 4.965,-5.283 13.432,-11.957 15.768,-15.294 2.337,-3.336 1.752,-7.508 -3.797,-8.898 -5.547,-1.391 -16.642,0 -27.446,3.893 -10.803,3.892 -31.827,12.236 -40.586,15.573 -8.76,3.337 -16.644,3.614 -19.563,-1.669 -2.921,-5.283 1.459,-15.017 12.263,-27.809 10.804,-12.792 33.578,-34.204 49.346,-37.542 15.767,-3.336 27.447,0 37.083,3.06 9.635,3.058 15.767,1.112 23.357,-0.834 7.593,-1.946 11.681,-2.503 14.309,-8.343 2.628,-5.84 6.132,-7.23 10.22,-8.62 4.087,-1.391 8.66,-1.902 7.396,-10.268"
       style="fill:none;stroke:#231f20;stroke-width:0.75;stroke-linecap:round;stroke-linejoin:round;stroke-miterlimit:4;stroke-dasharray:0, 2;stroke-dashoffset:0;stroke-opacity:1"
       id="path922" />
    <path
       d="m 281.583,624.168 c 4.577,-2.564 14.692,-4.386 40.097,1.175 25.402,5.562 53.726,22.526 65.696,33.648 11.972,11.124 25.112,28.643 32.411,33.649 7.3,5.005 18.688,15.017 28.616,21.412 9.927,6.396 22.774,9.733 32.702,9.733 9.929,0 22.19,-1.39 28.906,0 6.717,1.39 25.404,7.231 29.991,7.231 4.583,0 23.273,-5.841 29.988,-7.231 6.716,-1.39 18.979,0 28.907,0 9.927,0 22.774,-3.337 32.701,-9.733 9.928,-6.395 21.316,-16.407 28.616,-21.412 7.299,-5.006 20.439,-22.525 32.41,-33.649 11.971,-11.122 40.295,-28.086 65.699,-33.648 25.401,-5.561 35.518,-3.739 40.095,-1.175"
       style="fill:none;stroke:#231f20;stroke-width:0.75;stroke-linecap:round;stroke-linejoin:round;stroke-miterlimit:4;stroke-dasharray:0, 2;stroke-dashoffset:0;stroke-opacity:1"
       id="path924" />
    <path
       d="m 540.002,647.104 c -5.635,0 -19.77,0.208 -37.29,3.545 -17.519,3.336 -28.615,9.177 -28.615,15.851 0,6.674 5.256,7.507 11.681,9.176 6.423,1.669 17.81,2.781 25.985,1.669 8.176,-1.112 18.69,-1.39 28.239,-1.39 9.548,0 20.06,0.278 28.235,1.39 8.178,1.112 19.563,0 25.988,-1.669 6.423,-1.669 11.679,-2.502 11.679,-9.176 0,-6.674 -11.097,-12.515 -28.615,-15.851 -17.518,-3.337 -31.655,-3.545 -37.287,-3.545 z"
       style="fill:none;stroke:#231f20;stroke-width:0.75;stroke-linecap:round;stroke-linejoin:round;stroke-miterlimit:4;stroke-dasharray:0, 2;stroke-dashoffset:0;stroke-opacity:1"
       id="path926" />
    <path
       d="m 540.002,607.267 c -12.935,0 -44.59,1.669 -70.868,4.451 -26.279,2.781 -26.279,5.283 -28.031,8.619 -1.752,3.337 2.044,8.621 6.423,11.681 4.381,3.058 9.125,5.037 13.724,5.037 4.599,0 17.811,-3.647 29.491,-5.594 11.678,-1.946 37.666,-1.669 49.261,-1.669 11.592,0 37.578,-0.277 49.258,1.669 11.68,1.947 24.893,5.594 29.492,5.594 4.599,0 9.343,-1.979 13.723,-5.037 4.379,-3.06 8.175,-8.344 6.423,-11.681 -1.752,-3.336 -1.752,-5.838 -28.029,-8.619 -26.28,-2.782 -57.934,-4.451 -70.867,-4.451 z"
       style="fill:none;stroke:#231f20;stroke-width:0.75;stroke-linecap:round;stroke-linejoin:round;stroke-miterlimit:4;stroke-dasharray:0, 2;stroke-dashoffset:0;stroke-opacity:1"
       id="path928" />
    <path
       d="m 415.811,601.428 c 10.512,-6.952 19.452,-8.065 27.627,-9.178 8.177,-1.111 11.097,0.835 22.483,-1.945 11.388,-2.781 22.776,-3.615 34.747,-6.953 11.971,-3.337 27.157,-2.503 39.334,-2.503 12.176,0 27.36,-0.834 39.332,2.503 11.97,3.338 23.357,4.172 34.746,6.953 11.387,2.78 14.306,0.834 22.483,1.945 8.175,1.113 17.115,2.226 27.626,9.178"
       style="fill:none;stroke:#231f20;stroke-width:0.75;stroke-linecap:round;stroke-linejoin:round;stroke-miterlimit:4;stroke-dasharray:0, 2;stroke-dashoffset:0;stroke-opacity:1"
       id="path930" />
    <path
       d="m 325.767,568.058 c -2.044,3.336 -7.591,6.396 -15.183,7.785 -7.592,1.391 -10.22,2.226 -14.892,8.9 -4.673,6.673 -12.848,19.188 -17.228,26.14 -4.378,6.951 -11.97,17.797 -14.598,20.856 -2.628,3.059 -6.716,7.295 -8.468,5.316 -1.752,-1.979 2.208,-7.255 4.38,-10.599 5.256,-8.089 13.43,-22.525 18.979,-36.986"
       style="fill:none;stroke:#231f20;stroke-width:0.75;stroke-linecap:round;stroke-linejoin:round;stroke-miterlimit:4;stroke-dasharray:0, 2;stroke-dashoffset:0;stroke-opacity:1"
       id="path932" />
    <path
       d="m 754.235,567.758 c 1.606,3.483 7.592,6.696 15.181,8.085 7.593,1.391 10.221,2.226 14.893,8.9 4.671,6.673 12.846,19.188 17.228,26.14 4.379,6.951 11.97,17.797 14.598,20.856 2.628,3.059 6.717,7.295 8.468,5.316 1.753,-1.979 -2.206,-7.255 -4.379,-10.599 -5.256,-8.089 -13.432,-22.525 -18.978,-36.986"
       style="fill:none;stroke:#231f20;stroke-width:0.75;stroke-linecap:round;stroke-linejoin:round;stroke-miterlimit:4;stroke-dasharray:0, 2;stroke-dashoffset:0;stroke-opacity:1"
       id="path934" />
    <path
       d="m 540.033,834.456 c -6.048,0 -15.431,-4.129 -26.161,-6.111 -7.038,-1.3 -14.674,-1.05 -22.193,-0.278 -18.978,1.946 -28.029,13.07 -23.942,23.637 4.088,10.567 22.775,13.904 27.446,15.573 4.673,1.669 13.433,1.946 21.192,4.555 12.631,4.248 20.824,5.189 23.658,5.189 2.833,0 11.025,-0.941 23.658,-5.189 7.759,-2.609 16.517,-2.886 21.19,-4.555 4.67,-1.669 23.36,-5.006 27.447,-15.573 4.088,-10.567 -4.963,-21.691 -23.943,-23.637 -7.519,-0.772 -15.154,-1.022 -22.191,0.278 -10.732,1.982 -20.114,6.111 -26.161,6.111 z"
       style="fill:none;stroke:#231f20;stroke-width:0.75;stroke-linecap:round;stroke-linejoin:round;stroke-miterlimit:4;stroke-dasharray:0, 2;stroke-dashoffset:0;stroke-opacity:1"
       id="path936" />
    <path
       d="m 412.488,614.776 c -1.363,0 -2.53,-2.967 -5.841,-5.006 -0.308,-0.188 -0.776,-0.496 -1.338,-0.865 -4.824,-3.164 -18.56,-12.311 -33.992,-17.209 -8.95,-2.843 -25.402,-7.509 -39.419,-7.509 -14.015,0 -18.396,8.063 -18.978,11.401 -0.585,3.337 2.919,4.171 5.838,4.45 2.922,0.277 8.469,0 19.564,2.224 11.096,2.225 31.535,9.177 43.507,16.129 11.972,6.952 32.411,27.531 50.806,48.664 18.395,21.136 23.943,31.702 27.74,39.211 3.794,7.508 16.058,8.62 21.021,8.62 4.965,0 14.309,0.834 28.324,-1.668 14.014,-2.503 22.775,-2.781 30.282,-2.781 7.505,0 16.263,0.278 30.281,2.781 14.012,2.502 23.358,1.668 28.32,1.668 4.965,0 17.228,-1.112 21.023,-8.62 3.797,-7.509 9.344,-18.075 27.74,-39.211 18.395,-21.133 38.835,-41.712 50.806,-48.664 11.972,-6.952 32.412,-13.904 43.505,-16.129 11.099,-2.224 16.646,-1.947 19.565,-2.224 2.919,-0.279 6.424,-1.113 5.84,-4.45 -0.584,-3.338 -4.963,-11.401 -18.98,-11.401 -14.016,0 -30.469,4.666 -39.418,7.509 -15.432,4.898 -29.168,14.045 -33.992,17.209 -0.562,0.369 -1.03,0.677 -1.339,0.865 -3.309,2.039 -4.479,5.006 -5.84,5.006"
       style="fill:none;stroke:#231f20;stroke-width:0.75;stroke-linecap:round;stroke-linejoin:round;stroke-miterlimit:4;stroke-dasharray:0, 2;stroke-dashoffset:0;stroke-opacity:1"
       id="path938" />
  </g>
</svg>
