<?xml version="1.0" encoding="UTF-8" standalone="no"?>
<!-- Created with Inkscape (http://www.inkscape.org/) -->

<svg
   version="1.1"
   id="svg2"
   width="1440"
   height="1344"
   viewBox="0 0 1440 1344"
   xmlns="http://www.w3.org/2000/svg"
   xmlns:svg="http://www.w3.org/2000/svg">
  <defs
     id="defs6" />
  <g
     id="g8">
    <path
       d="m 540.002,367.717 c -1.455,-1.298 -5.221,-4.82 -9.486,-7.416 -4.264,-2.595 -19.095,-12.422 -25.027,-14.274 -5.933,-1.853 -12.421,-2.965 -22.803,-0.369 -10.382,2.594 -41.157,15.201 -51.168,19.834 -10.011,4.635 -30.403,17.8 -38.375,22.618 -7.973,4.82 -25.028,14.646 -32.814,19.467 -7.787,4.821 -27.067,20.762 -30.404,27.993 -3.338,7.231 -6.489,24.658 -7.046,31.331 -0.555,6.674 -2.409,16.684 -2.223,23.358 0.184,6.676 2.409,20.395 4.078,24.843 1.669,4.45 5.005,11.682 5.005,11.682 -10.382,-4.266 -20.392,2.222 -25.213,7.97 -4.82,5.746 -7.971,14.832 -8.526,17.983 -0.557,3.152 2.78,7.785 7.414,9.456 4.634,1.667 10.01,1.297 10.01,1.297 -6.302,1.668 -7.044,8.526 -7.044,8.526 -19.652,-8.898 -37.819,5.378 -43.566,12.607 -5.747,7.23 -12.051,22.617 -13.163,26.51 -1.112,3.895 -2.039,13.719 -2.039,13.719 -3.894,0.187 -11.68,5.006 -18.354,15.017 -6.674,10.011 -11.865,27.438 -11.679,35.781 0.186,8.343 2.781,13.163 2.781,13.163 -6.118,-3.523 -5.006,6.117 -4.635,10.937 0.369,4.821 2.78,15.203 3.523,19.282 0.741,4.078 3.336,20.207 9.639,32.442 6.304,12.236 5.191,19.095 19.837,38.747 14.647,19.651 29.477,27.437 35.409,30.403 5.933,2.967 24.658,9.827 30.219,11.309 5.562,1.483 15.943,3.894 19.467,4.079 3.521,0.186 7.971,0.927 9.639,0 1.668,-0.927 7.601,-2.41 7.601,-2.41 -0.926,0.186 -5.191,3.152 -5.191,4.264 0,1.112 0.926,2.781 4.264,3.893 3.337,1.113 14.09,2.039 20.763,2.596 6.675,0.556 25.771,1.668 31.331,1.112 5.563,-0.556 14.275,-1.669 22.989,-6.303 8.714,-4.635 13.905,-1.668 17.612,0.371 3.708,2.039 10.753,11.493 13.348,14.831 2.596,3.337 8.528,6.117 12.421,7.045 3.894,0.925 19.652,7.045 26.511,8.157 6.859,1.112 14.275,3.151 18.91,4.82 4.634,1.668 16.685,6.488 25.985,6.488 9.297,0 21.349,-4.82 25.984,-6.488 4.634,-1.669 12.05,-3.708 18.909,-4.82 6.859,-1.112 22.618,-7.232 26.511,-8.157 3.892,-0.928 9.826,-3.708 12.421,-7.045 2.595,-3.338 9.64,-12.792 13.348,-14.831 3.708,-2.039 8.899,-5.006 17.612,-0.371 8.713,4.634 17.425,5.747 22.988,6.303 5.561,0.556 24.657,-0.556 31.331,-1.112 6.675,-0.557 17.427,-1.483 20.764,-2.596 3.337,-1.112 4.263,-2.781 4.263,-3.893 0,-1.112 -4.263,-4.078 -5.19,-4.264 0,0 5.933,1.483 7.601,2.41 1.667,0.927 6.117,0.186 9.64,0 3.523,-0.185 13.904,-2.596 19.466,-4.079 5.56,-1.482 24.287,-8.342 30.219,-11.309 5.931,-2.966 20.761,-10.752 35.409,-30.403 14.646,-19.652 13.534,-26.511 19.837,-38.747 6.303,-12.235 8.897,-28.364 9.639,-32.442 0.743,-4.079 3.153,-14.461 3.524,-19.282 0.37,-4.82 1.482,-14.46 -4.636,-10.937 0,0 2.596,-4.82 2.781,-13.163 0.186,-8.343 -5.005,-25.77 -11.679,-35.781 -6.675,-10.011 -14.461,-14.83 -18.354,-15.017 0,0 -0.928,-9.824 -2.039,-13.719 -1.112,-3.893 -7.416,-19.28 -13.163,-26.51 -5.746,-7.229 -23.915,-21.505 -43.565,-12.607 0,0 -0.744,-6.858 -7.046,-8.526 0,0 5.377,0.37 10.01,-1.297 4.634,-1.671 7.973,-6.304 7.416,-9.456 -0.556,-3.151 -3.708,-12.237 -8.527,-17.983 -4.82,-5.748 -14.832,-12.236 -25.213,-7.97 0,0 3.337,-7.232 5.006,-11.682 1.667,-4.448 3.893,-18.167 4.078,-24.843 0.185,-6.674 -1.67,-16.684 -2.225,-23.358 -0.555,-6.673 -3.708,-24.1 -7.045,-31.331 -3.337,-7.231 -22.617,-23.172 -30.404,-27.993 -7.786,-4.821 -24.841,-14.647 -32.813,-19.467 -7.973,-4.818 -28.365,-17.983 -38.376,-22.618 -10.012,-4.633 -40.786,-17.24 -51.169,-19.834 -10.381,-2.596 -16.869,-1.484 -22.803,0.369 -5.931,1.852 -20.763,11.679 -25.027,14.274 -4.263,2.596 -8.031,6.118 -9.483,7.416"
       style="fill:#ffffff;fill-opacity:1;fill-rule:nonzero;stroke:none;stroke-width:0.1"
       id="path672" />
    <path
       d="m 540.002,367.717 c -1.455,-1.298 -5.221,-4.82 -9.486,-7.416 -4.264,-2.595 -19.095,-12.422 -25.027,-14.274 -5.933,-1.853 -12.421,-2.965 -22.803,-0.369 -10.382,2.594 -41.157,15.201 -51.168,19.834 -10.011,4.635 -30.403,17.8 -38.375,22.618 -7.973,4.82 -25.028,14.646 -32.814,19.467 -7.787,4.821 -27.067,20.762 -30.404,27.993 -3.338,7.231 -6.489,24.658 -7.046,31.331 -0.555,6.674 -2.409,16.684 -2.223,23.358 0.184,6.676 2.409,20.395 4.078,24.843 1.669,4.45 5.005,11.682 5.005,11.682 -10.382,-4.266 -20.392,2.222 -25.213,7.97 -4.82,5.746 -7.971,14.832 -8.526,17.983 -0.557,3.152 2.78,7.785 7.414,9.456 4.634,1.667 10.01,1.297 10.01,1.297 -6.302,1.668 -7.044,8.526 -7.044,8.526 -19.652,-8.898 -37.819,5.378 -43.566,12.607 -5.747,7.23 -12.051,22.617 -13.163,26.51 -1.112,3.895 -2.039,13.719 -2.039,13.719 -3.894,0.187 -11.68,5.006 -18.354,15.017 -6.674,10.011 -11.865,27.438 -11.679,35.781 0.186,8.343 2.781,13.163 2.781,13.163 -6.118,-3.523 -5.006,6.117 -4.635,10.937 0.369,4.821 2.78,15.203 3.523,19.282 0.741,4.078 3.336,20.207 9.639,32.442 6.304,12.236 5.191,19.095 19.837,38.747 14.647,19.651 29.477,27.437 35.409,30.403 5.933,2.967 24.658,9.827 30.219,11.309 5.562,1.483 15.943,3.894 19.467,4.079 3.521,0.186 7.971,0.927 9.639,0 1.668,-0.927 7.601,-2.41 7.601,-2.41 -0.926,0.186 -5.191,3.152 -5.191,4.264 0,1.112 0.926,2.781 4.264,3.893 3.337,1.113 14.09,2.039 20.763,2.596 6.675,0.556 25.771,1.668 31.331,1.112 5.563,-0.556 14.275,-1.669 22.989,-6.303 8.714,-4.635 13.905,-1.668 17.612,0.371 3.708,2.039 10.753,11.493 13.348,14.831 2.596,3.337 8.528,6.117 12.421,7.045 3.894,0.925 19.652,7.045 26.511,8.157 6.859,1.112 14.275,3.151 18.91,4.82 4.634,1.668 16.685,6.488 25.985,6.488 9.297,0 21.349,-4.82 25.984,-6.488 4.634,-1.669 12.05,-3.708 18.909,-4.82 6.859,-1.112 22.618,-7.232 26.511,-8.157 3.892,-0.928 9.826,-3.708 12.421,-7.045 2.595,-3.338 9.64,-12.792 13.348,-14.831 3.708,-2.039 8.899,-5.006 17.612,-0.371 8.713,4.634 17.425,5.747 22.988,6.303 5.561,0.556 24.657,-0.556 31.331,-1.112 6.675,-0.557 17.427,-1.483 20.764,-2.596 3.337,-1.112 4.263,-2.781 4.263,-3.893 0,-1.112 -4.263,-4.078 -5.19,-4.264 0,0 5.933,1.483 7.601,2.41 1.667,0.927 6.117,0.186 9.64,0 3.523,-0.185 13.904,-2.596 19.466,-4.079 5.56,-1.482 24.287,-8.342 30.219,-11.309 5.931,-2.966 20.761,-10.752 35.409,-30.403 14.646,-19.652 13.534,-26.511 19.837,-38.747 6.303,-12.235 8.897,-28.364 9.639,-32.442 0.743,-4.079 3.153,-14.461 3.524,-19.282 0.37,-4.82 1.482,-14.46 -4.636,-10.937 0,0 2.596,-4.82 2.781,-13.163 0.186,-8.343 -5.005,-25.77 -11.679,-35.781 -6.675,-10.011 -14.461,-14.83 -18.354,-15.017 0,0 -0.928,-9.824 -2.039,-13.719 -1.112,-3.893 -7.416,-19.28 -13.163,-26.51 -5.746,-7.229 -23.915,-21.505 -43.565,-12.607 0,0 -0.744,-6.858 -7.046,-8.526 0,0 5.377,0.37 10.01,-1.297 4.634,-1.671 7.973,-6.304 7.416,-9.456 -0.556,-3.151 -3.708,-12.237 -8.527,-17.983 -4.82,-5.748 -14.832,-12.236 -25.213,-7.97 0,0 3.337,-7.232 5.006,-11.682 1.667,-4.448 3.893,-18.167 4.078,-24.843 0.185,-6.674 -1.67,-16.684 -2.225,-23.358 -0.555,-6.673 -3.708,-24.1 -7.045,-31.331 -3.337,-7.231 -22.617,-23.172 -30.404,-27.993 -7.786,-4.821 -24.841,-14.647 -32.813,-19.467 -7.973,-4.818 -28.365,-17.983 -38.376,-22.618 -10.012,-4.633 -40.786,-17.24 -51.169,-19.834 -10.381,-2.596 -16.869,-1.484 -22.803,0.369 -5.931,1.852 -20.763,11.679 -25.027,14.274 -4.263,2.596 -8.031,6.118 -9.483,7.416 z"
       style="fill:none;stroke:#231f20;stroke-width:0.75;stroke-linecap:round;stroke-linejoin:round;stroke-miterlimit:4;stroke-dasharray:none;stroke-opacity:1"
       id="path674" />
    <path
       d="m 661.183,615.213 c 3.893,-12.513 13.903,-15.851 26.141,-21.412 12.234,-5.563 20.854,-10.569 36.706,-16.407 15.85,-5.841 22.788,-8.763 35.317,-7.508 11.123,1.113 10.568,4.717 10.568,8.899 0,4.17 -2.277,4.864 -4.729,5.838 -2.801,1.112 -7.452,3.459 -15.017,8.066 -7.18,4.371 -22.523,13.068 -45.048,20.022 -22.526,6.951 -28.087,14.181 -36.153,22.802 -8.063,8.621 -28.641,35.873 -37.54,46.441 -8.9,10.566 -14.739,16.128 -25.028,20.299 -10.288,4.172 -25.306,0.556 -33.927,0 -8.619,-0.556 -26.418,2.225 -32.471,2.503 -6.056,-0.278 -23.853,-3.059 -32.474,-2.503 -8.62,0.556 -23.637,4.172 -33.926,0 -10.29,-4.171 -16.129,-9.733 -25.027,-20.299 -8.899,-10.568 -29.478,-37.82 -37.542,-46.441 -8.066,-8.621 -13.626,-15.851 -36.151,-22.802 -22.525,-6.954 -37.869,-15.651 -45.05,-20.022 -7.565,-4.607 -12.215,-6.954 -15.016,-8.066 -2.452,-0.974 -4.728,-1.668 -4.728,-5.838 0,-4.182 -0.556,-7.786 10.568,-8.899 12.527,-1.255 19.465,1.667 35.316,7.508 15.851,5.838 24.471,10.844 36.707,16.407 12.236,5.561 22.246,8.899 26.14,21.412 3.698,2.196 7.785,6.952 10.221,5.031 -1.52,-3.94 -3.353,-8.164 -5.772,-11.984 -1.765,-1.53 -3.63,-3.857 -5.257,-6.221 2.199,-9.628 7.204,-9.628 14.99,-11.018 7.787,-1.393 19.466,-2.503 28.921,-2.783 9.455,-0.278 26.418,-4.726 40.044,-7.786 13.626,-3.058 30.312,-1.945 38.036,-1.945 0,0 24.407,-1.113 38.034,1.945 13.627,3.06 30.588,7.508 40.045,7.786 9.453,0.28 21.133,1.39 28.921,2.783 7.785,1.39 12.79,1.39 14.988,11.018 h 10e-4 c -1.627,2.364 -3.492,4.691 -5.257,6.221 -2.42,3.82 -4.251,8.044 -5.772,11.984 2.435,1.921 6.522,-2.835 10.221,-5.031"
       style="fill:#d3d2d2;fill-opacity:1;fill-rule:nonzero;stroke:none;stroke-width:0.1"
       id="path676" />
    <path
       d="m 540.002,647.47 c -6.181,0 -14.955,-0.555 -23.297,1.112 -8.342,1.669 -18.077,2.226 -29.477,3.338 -11.401,1.113 -16.407,5.84 -16.407,15.017 0,9.176 17.798,10.845 27.53,11.123 9.733,0.278 30.589,0.834 41.651,0.834 11.059,0 31.916,-0.556 41.649,-0.834 9.732,-0.278 27.531,-1.947 27.531,-11.123 0,-9.177 -5.006,-13.904 -16.409,-15.017 -11.4,-1.112 -21.133,-1.669 -29.477,-3.338 -8.342,-1.667 -17.114,-1.112 -23.294,-1.112"
       style="fill:#ffffff;fill-opacity:1;fill-rule:nonzero;stroke:none;stroke-width:0.1"
       id="path678" />
    <path
       d="m 540.002,603.532 c -3.679,0 -11.339,-0.832 -23.297,-1.667 -11.957,-0.835 -20.857,1.112 -30.034,3.058 -9.175,1.948 -18.075,6.398 -27.808,6.117 -9.733,-0.277 -16.406,0.281 -18.354,4.452 -1.946,4.17 6.118,10.01 11.68,13.626 5.561,3.615 9.177,3.893 15.852,2.78 6.672,-1.112 20.021,-3.338 32.535,-4.17 12.513,-0.836 31.979,-2.503 39.426,-2.503 7.444,0 26.91,1.667 39.423,2.503 12.515,0.832 25.863,3.058 32.537,4.17 6.673,1.113 10.288,0.835 15.851,-2.78 5.561,-3.616 13.625,-9.456 11.68,-13.626 -1.949,-4.171 -8.621,-4.729 -18.355,-4.452 -9.732,0.281 -18.631,-4.169 -27.808,-6.117 -9.176,-1.946 -18.075,-3.893 -30.034,-3.058 -11.956,0.835 -19.617,1.667 -23.294,1.667"
       style="fill:#ffffff;fill-opacity:1;fill-rule:nonzero;stroke:none;stroke-width:0.1"
       id="path680" />
    <path
       d="m 540.002,752.308 c -12.3,0 -51.662,-1.668 -62.786,-4.727 -11.123,-3.059 -18.353,-10.011 -26.973,-19.188 -8.62,-9.177 -29.477,-36.707 -39.21,-49.777 -9.733,-13.07 -18.91,-23.359 -29.755,-30.034 -10.845,-6.672 -26.975,-10.289 -36.986,-15.293 -10.011,-5.006 -26.139,-12.515 -33.926,-18.911 -7.786,-6.395 -10.845,-13.068 -11.958,-17.519 -1.112,-4.448 -6.396,-8.621 -10.845,-8.621 -13.626,0 -26.14,14.183 -29.755,19.188 -3.615,5.006 -4.172,10.568 2.78,10.568 6.953,0 16.13,3.058 25.307,5.84 9.177,2.781 6.952,7.508 -1.669,11.958 -8.621,4.449 -24.749,0.555 -35.039,-0.836 -10.288,-1.39 -13.348,13.626 -17.24,21.693 -3.894,8.063 5.56,24.47 9.455,29.197 3.892,4.728 13.626,21.413 20.021,15.573 6.397,-5.839 0.279,-21.412 -1.669,-25.306 -1.946,-3.894 -7.507,-14.46 -2.224,-19.187 5.284,-4.728 15.016,-1.669 23.081,3.058 8.064,4.728 22.803,18.632 30.59,25.584 7.786,6.952 16.128,5.006 21.968,2.503 5.84,-2.503 18.076,-4.728 27.809,-2.781 9.732,1.947 26.418,12.514 32.535,18.076 6.118,5.562 30.033,26.695 37.542,36.429 7.508,9.733 8.342,17.519 7.23,25.305 -1.112,7.786 -8.343,6.118 -14.739,6.118 -6.395,0 -15.016,0 -23.915,14.46 -8.898,14.461 -18.353,22.525 -33.091,22.804 -14.74,0.277 -26.975,-6.952 -37.821,-13.627 -10.844,-6.674 -29.198,-11.679 -41.713,-16.963 -12.513,-5.283 -28.086,-20.3 -36.15,-28.642 -8.064,-8.343 -13.626,-13.626 -16.963,-11.402 -3.337,2.225 0,10.289 10.289,24.75 10.289,14.46 17.52,25.583 37.264,41.155 19.744,15.574 31.145,18.633 40.878,21.136 9.733,2.503 16.685,0.277 19.466,-2.781 2.781,-3.06 7.786,-5.562 12.513,-5.284 4.728,0.278 8.621,2.224 11.124,5.284 2.503,3.058 4.449,8.343 6.396,9.733 1.946,1.39 5.84,3.615 16.963,6.117 11.124,2.503 14.181,0.557 18.91,-1.946 4.727,-2.503 15.294,-8.62 20.856,-11.402 5.562,-2.78 6.396,-1.668 10.288,0.835 3.894,2.503 14.184,9.732 20.579,14.738 6.396,5.006 10.845,4.728 16.963,4.449 6.118,-0.277 21.969,-0.556 30.868,-0.277 8.899,0.277 26.418,2.503 32.752,2.503 6.332,0 23.852,-2.226 32.75,-2.503 8.899,-0.279 24.75,0 30.867,0.277 6.118,0.279 10.567,0.557 16.965,-4.449 6.395,-5.006 16.683,-12.235 20.577,-14.738 3.892,-2.503 4.727,-3.615 10.288,-0.835 5.562,2.782 16.13,8.899 20.857,11.402 4.728,2.503 7.786,4.449 18.91,1.946 11.122,-2.502 15.017,-4.727 16.962,-6.117 1.948,-1.39 3.895,-6.675 6.398,-9.733 2.502,-3.06 6.395,-5.006 11.122,-5.284 4.728,-0.278 9.733,2.224 12.513,5.284 2.783,3.058 9.735,5.284 19.466,2.781 9.735,-2.503 21.136,-5.562 40.879,-21.136 19.745,-15.572 26.975,-26.695 37.263,-41.155 10.29,-14.461 13.627,-22.525 10.29,-24.75 -3.338,-2.224 -8.899,3.059 -16.963,11.402 -8.064,8.342 -23.638,23.359 -36.151,28.642 -12.513,5.284 -30.868,10.289 -41.713,16.963 -10.845,6.675 -23.081,13.904 -37.82,13.627 -14.737,-0.279 -24.194,-8.343 -33.092,-22.804 -8.899,-14.46 -17.518,-14.46 -23.915,-14.46 -6.396,0 -13.625,1.668 -14.739,-6.118 -1.112,-7.786 -0.278,-15.572 7.23,-25.305 7.509,-9.734 31.424,-30.867 37.542,-36.429 6.118,-5.562 22.803,-16.129 32.537,-18.076 9.731,-1.947 21.969,0.278 27.807,2.781 5.84,2.503 14.182,4.449 21.969,-2.503 7.786,-6.952 22.526,-20.856 30.59,-25.584 8.064,-4.727 17.797,-7.786 23.08,-3.058 5.283,4.727 -0.277,15.293 -2.224,19.187 -1.946,3.894 -8.064,19.467 -1.668,25.306 6.395,5.84 16.129,-10.845 20.022,-15.573 3.893,-4.727 13.348,-21.134 9.455,-29.197 -3.894,-8.067 -6.952,-23.083 -17.242,-21.693 -10.289,1.391 -26.417,5.285 -35.038,0.836 -8.621,-4.45 -10.847,-9.177 -1.669,-11.958 9.178,-2.782 18.353,-5.84 25.306,-5.84 6.952,0 6.396,-5.562 2.781,-10.568 -3.615,-5.005 -16.129,-19.188 -29.756,-19.188 -4.449,0 -9.732,4.173 -10.845,8.621 -1.111,4.451 -4.172,11.124 -11.958,17.519 -7.786,6.396 -23.915,13.905 -33.927,18.911 -10.01,5.004 -26.138,8.621 -36.983,15.293 -10.847,6.675 -20.022,16.964 -29.757,30.034 -9.732,13.07 -30.588,40.6 -39.209,49.777 -8.621,9.177 -15.85,16.129 -26.974,19.188 -11.122,3.059 -50.485,4.727 -62.783,4.727"
       style="fill:#d3d2d2;fill-opacity:1;fill-rule:nonzero;stroke:none;stroke-width:0.1"
       id="path682" />
    <path
       d="m 665.353,742.576 c 4.451,-3.337 33.372,-21.413 67.854,-27.809 34.482,-6.395 36.708,-9.178 62.569,-38.932"
       style="fill:none;stroke:#231f20;stroke-width:0.5;stroke-linecap:butt;stroke-linejoin:miter;stroke-miterlimit:4;stroke-dasharray:none;stroke-opacity:1"
       id="path684" />
    <path
       d="m 749.787,711.293 c 5.667,-0.419 18.459,-0.975 15.956,12.094 -2.503,13.071 -8.899,27.53 -7.232,31.981 1.669,4.449 3.895,6.952 11.124,4.727 7.232,-2.224 34.204,-5.84 50.334,-21.135 16.129,-15.294 26.951,-35.317 39.489,-49.499"
       style="fill:none;stroke:#231f20;stroke-width:0.5;stroke-linecap:butt;stroke-linejoin:miter;stroke-miterlimit:4;stroke-dasharray:none;stroke-opacity:1"
       id="path686" />
    <path
       d="m 656.734,608.26 c 4.171,-3.615 8.898,-11.678 9.731,-14.181"
       style="fill:none;stroke:#231f20;stroke-width:0.5;stroke-linecap:butt;stroke-linejoin:miter;stroke-miterlimit:4;stroke-dasharray:none;stroke-opacity:1"
       id="path688" />
    <path
       d="m 540.002,766.491 c -8.684,-0.834 -17.735,-0.834 -35.254,1.669 -17.52,2.503 -42.547,5.84 -48.11,6.672 -5.561,0.836 -5.005,-3.335 -5.561,-5.56 -0.556,-2.225 -2.782,-14.739 -9.734,-25.307 -6.952,-10.566 -24.749,-29.476 -43.658,-48.385 -18.91,-18.911 -40.322,-26.697 -51.724,-29.477 -11.401,-2.781 -32.814,-3.339 -45.884,-7.51 -13.071,-4.17 -28.643,-9.453 -33.092,-9.733 -4.45,-0.278 -13.349,-1.667 -13.349,-3.058 0,-1.389 8.899,-3.615 16.407,-4.728 7.509,-1.113 18.077,-2.502 22.526,-2.502 4.449,0 13.07,2.224 14.181,0.557 1.113,-1.671 0.835,-6.118 -2.78,-10.846 -3.615,-4.729 -13.07,-11.124 -17.241,-14.182 -4.172,-3.061 -8.898,-5.841 -8.343,-6.953 0.557,-1.113 2.503,-0.277 5.006,1.112 2.503,1.391 14.46,6.953 21.968,14.182 7.509,7.23 25.862,17.519 47.554,29.201 21.689,11.679 51.722,36.149 68.408,53.391 16.685,17.242 34.482,44.771 38.654,51.723 4.171,6.953 18.631,4.728 26.14,4.451 7.508,-0.279 44.772,-0.279 53.886,-0.279 9.113,0 46.375,0 53.884,0.279 7.508,0.277 21.969,2.502 26.139,-4.451 4.172,-6.952 21.971,-34.481 38.655,-51.723 16.685,-17.242 46.718,-41.712 68.409,-53.391 21.69,-11.682 40.043,-21.971 47.552,-29.201 7.508,-7.229 19.466,-12.791 21.969,-14.182 2.503,-1.389 4.449,-2.225 5.006,-1.112 0.555,1.112 -4.172,3.892 -8.343,6.953 -4.172,3.058 -13.626,9.453 -17.242,14.182 -3.615,4.728 -3.893,9.175 -2.781,10.846 1.114,1.667 9.735,-0.557 14.182,-0.557 4.451,0 15.017,1.389 22.526,2.502 7.508,1.113 16.407,3.339 16.407,4.728 0,1.391 -8.899,2.78 -13.348,3.058 -4.449,0.28 -20.022,5.563 -33.093,9.733 -13.069,4.171 -34.481,4.729 -45.882,7.51 -11.402,2.78 -32.815,10.566 -51.724,29.477 -18.91,18.909 -36.708,37.819 -43.66,48.385 -6.952,10.568 -9.176,23.082 -9.733,25.307 -0.556,2.225 0,6.396 -5.561,5.56 -5.563,-0.832 -30.591,-4.169 -48.109,-6.672 -17.519,-2.503 -26.57,-2.503 -35.253,-1.669"
       style="fill:#b2b1b1;fill-opacity:1;fill-rule:nonzero;stroke:none;stroke-width:0.1"
       id="path690" />
    <path
       d="m 540.002,834.9 c -6.056,0 -37.757,-2.226 -45.544,-3.337 -7.787,-1.112 -19.188,-1.669 -24.194,-6.953 -5.006,-5.283 -20.578,-21.134 -23.637,-25.306 -3.058,-4.171 -9.176,-4.449 -13.626,-1.946 -4.449,2.503 -19.465,12.236 -24.471,15.294 -5.006,3.059 -15.572,8.344 -16.407,7.231 -0.834,-1.112 10.289,-9.455 16.963,-14.182 6.674,-4.728 22.525,-12.792 26.418,-14.461 3.893,-1.668 7.23,-3.615 13.904,4.728 6.675,8.342 19.467,22.803 32.814,25.583 13.349,2.781 21.969,0.835 33.649,-0.555 11.678,-1.391 19.062,-1.391 24.131,-1.391 5.068,0 12.45,0 24.129,1.391 11.679,1.39 20.3,3.336 33.648,0.555 13.347,-2.78 26.14,-17.241 32.815,-25.583 6.673,-8.343 10.01,-6.396 13.905,-4.728 3.892,1.669 19.743,9.733 26.417,14.461 6.673,4.727 17.797,13.07 16.962,14.182 -0.834,1.113 -11.401,-4.172 -16.407,-7.231 -5.006,-3.058 -20.022,-12.791 -24.469,-15.294 -4.452,-2.503 -10.568,-2.225 -13.628,1.946 -3.059,4.172 -18.631,20.023 -23.637,25.306 -5.006,5.284 -16.407,5.841 -24.193,6.953 -7.786,1.111 -39.489,3.337 -45.542,3.337"
       style="fill:#b2b1b1;fill-opacity:1;fill-rule:nonzero;stroke:none;stroke-width:0.1"
       id="path692" />
    <path
       d="m 540.002,589.909 c -5.069,0 -26.62,-0.175 -34.406,0.383 -7.786,0.555 -32.272,4.622 -43.395,7.679 -5.789,1.592 -26.419,6.952 -28.921,7.786 -2.503,0.835 -1.392,2.781 0.555,2.226 1.947,-0.557 16.408,-4.451 28.921,-7.786 12.514,-3.338 27.809,-5.841 40.044,-7.231 12.236,-1.39 30.868,-0.277 37.202,-0.277 6.332,0 24.963,-1.113 37.199,0.277 12.236,1.39 27.53,3.893 40.044,7.231 12.514,3.335 26.974,7.229 28.921,7.786 1.947,0.555 3.059,-1.391 0.556,-2.226 -2.503,-0.834 -23.133,-6.194 -28.921,-7.786 -11.122,-3.057 -35.609,-7.124 -43.394,-7.679 -7.787,-0.558 -29.337,-0.383 -34.405,-0.383"
       style="fill:#b2b1b1;fill-opacity:1;fill-rule:nonzero;stroke:none;stroke-width:0.1"
       id="path694" />
    <path
       d="m 666.465,594.079 c 6.397,-6.396 29.757,-15.852 44.216,-21.413 14.462,-5.56 43.383,-18.075 55.896,-9.176"
       style="fill:none;stroke:#231f20;stroke-width:0.5;stroke-linecap:butt;stroke-linejoin:miter;stroke-miterlimit:4;stroke-dasharray:none;stroke-opacity:1"
       id="path696" />
    <path
       d="m 651.449,581.01 c 7.231,-1.113 15.296,-2.225 20.579,-3.896 5.284,-1.667 17.519,-6.673 23.358,-8.064 5.841,-1.389 21.413,-4.447 32.26,-11.678 10.845,-7.231 17.255,-17.849 22.617,-30.588"
       style="fill:none;stroke:#231f20;stroke-width:0.5;stroke-linecap:butt;stroke-linejoin:miter;stroke-miterlimit:4;stroke-dasharray:none;stroke-opacity:1"
       id="path698" />
    <path
       d="m 680.37,560.988 c -3.893,-1.948 -3.893,-3.616 -2.503,-5.841 1.391,-2.226 8.343,-9.177 15.017,-15.017 6.674,-5.84 18.076,-13.627 26.974,-22.248 8.898,-8.618 15.296,-14.736 15.85,-28.363 0.557,-13.627 0,-26.141 -7.507,-39.21 -7.509,-13.071 -14.739,-21.97 -22.525,-23.36"
       style="fill:none;stroke:#231f20;stroke-width:0.5;stroke-linecap:butt;stroke-linejoin:miter;stroke-miterlimit:4;stroke-dasharray:none;stroke-opacity:1"
       id="path700" />
    <path
       d="m 702.415,422.501 c -1.669,3.058 -6.749,5.284 -11.199,3.058 -4.45,-2.225 -5.84,-7.231 -3.892,-11.401 1.944,-4.171 7.785,-10.011 12.234,-9.453"
       style="fill:none;stroke:#231f20;stroke-width:0.5;stroke-linecap:butt;stroke-linejoin:miter;stroke-miterlimit:4;stroke-dasharray:none;stroke-opacity:1"
       id="path702" />
    <path
       d="m 705.676,426.949 c 0,0 -5.372,-3.365 -2.781,-9.453 2.591,-6.088 8.621,-3.616 13.35,-1.67 3.923,1.618 13.903,10.01 21.689,19.189 7.786,9.176 10.289,20.855 11.401,33.927 1.113,13.068 0.834,27.527 -0.833,36.707 -1.67,9.176 -8.065,19.186 -14.183,24.747 -6.118,5.563 -21.413,18.354 -30.033,23.638 -6.588,4.037 -11.402,6.118 -16.708,6.913"
       style="fill:none;stroke:#231f20;stroke-width:0.5;stroke-linecap:butt;stroke-linejoin:miter;stroke-miterlimit:4;stroke-dasharray:none;stroke-opacity:1"
       id="path704" />
    <path
       d="m 542.448,375.563 c 3.7,-3.58 10.93,-10.811 26.319,-13.592 15.387,-2.78 23.729,-2.78 29.291,-3.707 5.561,-0.928 12.511,-2.775 15.71,-7.041"
       style="fill:none;stroke:#231f20;stroke-width:0.5;stroke-linecap:butt;stroke-linejoin:miter;stroke-miterlimit:4;stroke-dasharray:none;stroke-opacity:1"
       id="path706" />
    <path
       d="m 548.451,375.001 c 3.029,-2.251 6.317,-4.456 8.264,-5.428 3.337,-1.671 10.012,-3.524 11.124,-1.483"
       style="fill:none;stroke:#231f20;stroke-width:0.5;stroke-linecap:butt;stroke-linejoin:miter;stroke-miterlimit:4;stroke-dasharray:none;stroke-opacity:1"
       id="path708" />
    <path
       d="m 542.943,379.466 c 1.315,-1.225 3.346,-2.857 5.508,-4.465"
       style="fill:none;stroke:#231f20;stroke-width:0.5;stroke-linecap:butt;stroke-linejoin:miter;stroke-miterlimit:4;stroke-dasharray:none;stroke-opacity:1"
       id="path710" />
    <path
       d="m 531.551,375.001 c -3.029,-2.251 -6.316,-4.456 -8.264,-5.428 -3.336,-1.671 -10.011,-3.524 -11.124,-1.483"
       style="fill:none;stroke:#231f20;stroke-width:0.5;stroke-linecap:butt;stroke-linejoin:miter;stroke-miterlimit:4;stroke-dasharray:none;stroke-opacity:1"
       id="path712" />
    <path
       d="m 537.059,379.466 c -1.315,-1.225 -3.345,-2.857 -5.508,-4.465"
       style="fill:none;stroke:#231f20;stroke-width:0.5;stroke-linecap:butt;stroke-linejoin:miter;stroke-miterlimit:4;stroke-dasharray:none;stroke-opacity:1"
       id="path714" />
    <path
       d="m 567.839,368.09 c 2.411,-0.557 6.793,-1.649 10.793,-1.937"
       style="fill:none;stroke:#231f20;stroke-width:0.5;stroke-linecap:butt;stroke-linejoin:miter;stroke-miterlimit:4;stroke-dasharray:none;stroke-opacity:1"
       id="path716" />
    <path
       d="m 540.002,641.074 c -3.124,0 -14.121,-0.555 -23.019,-0.278 -8.899,0.278 -31.301,1.062 -44.493,8.064 -12.05,6.397 -11.402,8.9 -10.568,15.574 0.834,6.674 4.45,9.454 9.455,15.573 5.005,6.117 12.236,10.288 16.963,10.567 4.728,0.278 44.772,3.058 51.662,3.058 6.887,0 46.932,-2.78 51.661,-3.058 4.726,-0.279 11.956,-4.45 16.961,-10.567 5.005,-6.119 8.621,-8.899 9.457,-15.573 0.833,-6.674 1.482,-9.177 -10.568,-15.574 -13.194,-7.002 -35.595,-7.786 -44.494,-8.064 -8.898,-0.277 -19.896,0.278 -23.017,0.278 z m 35.253,-5.561 c 5.839,0 16.128,0.279 23.358,2.78 7.23,2.503 17.242,4.45 23.081,0.836 5.84,-3.616 14.74,-10.011 18.353,-13.904 3.617,-3.894 12.515,-13.35 16.687,-16.965 -2.42,3.82 -4.251,8.044 -5.772,11.984 2.435,1.921 6.522,-2.835 10.221,-5.031 0,0 8.065,-3.892 15.017,-6.953 6.952,-3.057 27.807,-11.956 33.926,-13.627 6.119,-1.667 21.413,-8.341 26.696,-10.288 5.283,-1.945 18.075,-6.395 18.353,-4.728 0.279,1.671 -18.631,8.621 -27.529,11.959 -8.899,3.338 -29.2,10.845 -38.099,15.295 -8.898,4.45 -27.531,22.548 -34.204,30.184 -6.675,7.635 -18.353,24.041 -25.861,33.218 -7.509,9.178 -16.687,24.75 -28.921,27.809 -12.237,3.058 -22.525,0.278 -31.146,0.278 -8.621,0 -21.009,1.669 -29.413,1.669 -8.407,0 -20.794,-1.669 -29.416,-1.669 -8.62,0 -18.909,2.78 -31.144,-0.278 -12.236,-3.059 -21.413,-18.631 -28.921,-27.809 -7.509,-9.177 -19.188,-25.583 -25.862,-33.218 -6.674,-7.636 -25.306,-25.734 -34.204,-30.184 -8.9,-4.45 -29.2,-11.957 -38.098,-15.295 -8.899,-3.338 -27.809,-10.288 -27.531,-11.959 0.279,-1.667 13.07,2.783 18.354,4.728 5.284,1.947 20.578,8.621 26.696,10.288 6.118,1.671 26.975,10.569 33.927,13.627 6.952,3.061 15.016,6.953 15.016,6.953 3.698,2.196 7.785,6.952 10.221,5.031 -1.52,-3.94 -3.353,-8.164 -5.772,-11.984 4.171,3.615 13.069,13.071 16.686,16.965 3.615,3.893 12.513,10.288 18.353,13.904 5.84,3.614 15.851,1.667 23.081,-0.836 7.231,-2.501 17.52,-2.78 23.36,-2.78 5.838,0 25.027,-1.112 35.254,-1.112 10.225,0 29.413,1.112 35.253,1.112"
       style="fill:#b2b1b1;fill-opacity:1;fill-rule:nonzero;stroke:none;stroke-width:0.1"
       id="path718" />
    <path
       d="m 629.482,648.582 c 6.673,-4.448 14.459,-11.678 16.962,-16.684 2.502,-5.006 5.005,-15.294 10.29,-23.638"
       style="fill:none;stroke:#231f20;stroke-width:0.5;stroke-linecap:butt;stroke-linejoin:miter;stroke-miterlimit:4;stroke-dasharray:none;stroke-opacity:1"
       id="path720" />
    <path
       d="m 414.648,742.576 c -4.449,-3.337 -33.37,-21.413 -67.854,-27.809 -34.481,-6.395 -36.706,-9.178 -62.568,-38.932"
       style="fill:none;stroke:#231f20;stroke-width:0.5;stroke-linecap:butt;stroke-linejoin:miter;stroke-miterlimit:4;stroke-dasharray:none;stroke-opacity:1"
       id="path722" />
    <path
       d="m 330.215,711.293 c -5.667,-0.419 -18.459,-0.975 -15.956,12.094 2.503,13.071 8.899,27.53 7.231,31.981 -1.669,4.449 -3.894,6.952 -11.124,4.727 -7.23,-2.224 -34.204,-5.84 -50.333,-21.135 -16.129,-15.294 -26.952,-35.317 -39.488,-49.499"
       style="fill:none;stroke:#231f20;stroke-width:0.5;stroke-linecap:butt;stroke-linejoin:miter;stroke-miterlimit:4;stroke-dasharray:none;stroke-opacity:1"
       id="path724" />
    <path
       d="m 306.38,572.016 c -0.464,2.318 -1.02,6.491 6.767,19.837 7.786,13.35 22.803,20.858 47.552,30.589 24.75,9.733 41.991,23.36 54.783,38.377 12.792,15.016 28.644,36.985 36.707,45.606 8.064,8.619 20.021,8.064 34.205,10.567 14.182,2.503 43.381,5.84 53.608,5.84 10.225,0 39.423,-3.337 53.607,-5.84 14.182,-2.503 26.139,-1.948 34.204,-10.567 8.064,-8.621 23.915,-30.59 36.706,-45.606 12.793,-15.017 30.034,-28.644 54.783,-38.377 24.75,-9.731 39.767,-17.239 47.553,-30.589 7.786,-13.346 7.229,-17.519 6.768,-19.837"
       style="fill:none;stroke:#231f20;stroke-width:0.5;stroke-linecap:butt;stroke-linejoin:miter;stroke-miterlimit:4;stroke-dasharray:none;stroke-opacity:1"
       id="path726" />
    <path
       d="m 476.939,663.599 c 6.952,0.557 24.192,-0.555 33.927,-1.946 9.732,-1.392 24.469,1.669 29.136,1.669 4.664,0 19.401,-3.061 29.135,-1.669 9.733,1.391 26.975,2.503 33.926,1.946"
       style="fill:none;stroke:#231f20;stroke-width:0.5;stroke-linecap:butt;stroke-linejoin:miter;stroke-miterlimit:4;stroke-dasharray:none;stroke-opacity:1"
       id="path728" />
    <path
       d="m 423.268,608.26 c -4.171,-3.615 -8.898,-11.678 -9.732,-14.181"
       style="fill:none;stroke:#231f20;stroke-width:0.5;stroke-linecap:butt;stroke-linejoin:miter;stroke-miterlimit:4;stroke-dasharray:none;stroke-opacity:1"
       id="path730" />
    <path
       d="m 449.13,619.107 c 9.455,3.615 25.583,0 32.536,-0.835 6.953,-0.836 20.857,-2.226 26.14,-2.78 5.283,-0.557 23.915,-1.668 32.196,-1.668 8.279,0 26.91,1.111 32.194,1.668 5.283,0.554 19.187,1.944 26.139,2.78 6.953,0.835 23.081,4.45 32.537,0.835"
       style="fill:none;stroke:#231f20;stroke-width:0.5;stroke-linecap:butt;stroke-linejoin:miter;stroke-miterlimit:4;stroke-dasharray:none;stroke-opacity:1"
       id="path732" />
    <path
       d="m 413.536,594.079 c 0.834,-6.396 9.176,-11.959 15.016,-13.069 5.839,-1.113 25.583,-4.728 31.146,-5.563 5.56,-0.835 19.744,-4.448 36.707,-10.012 16.964,-5.561 36.427,-4.17 43.597,-4.17 7.166,0 26.632,-1.391 43.595,4.17 16.964,5.564 31.146,9.177 36.707,10.012 5.562,0.835 25.306,4.45 31.145,5.563 5.841,1.11 14.183,6.673 15.016,13.069"
       style="fill:none;stroke:#231f20;stroke-width:0.75;stroke-linecap:round;stroke-linejoin:round;stroke-miterlimit:4;stroke-dasharray:none;stroke-opacity:1"
       id="path734" />
    <path
       d="m 666.465,594.079 c -0.833,-6.396 -9.175,-11.959 -15.016,-13.069 7.231,-1.113 15.296,-2.225 20.579,-3.896 5.284,-1.667 17.519,-6.673 23.358,-8.064 5.841,-1.389 21.413,-4.447 32.26,-11.678 10.845,-7.231 17.255,-17.849 22.617,-30.588 10.381,-4.266 20.393,2.222 25.213,7.97 4.819,5.746 7.971,14.832 8.527,17.983 0.557,3.152 -2.782,7.785 -7.416,9.456 -4.633,1.667 -10.01,1.297 -10.01,1.297 -12.513,-8.899 -41.434,3.616 -55.896,9.176 -14.459,5.561 -37.819,15.017 -44.216,21.413"
       style="fill:#706d6e;fill-opacity:1;fill-rule:nonzero;stroke:none;stroke-width:0.1"
       id="path736" />
    <path
       d="m 666.465,594.079 c -0.833,-6.396 -9.175,-11.959 -15.016,-13.069 7.231,-1.113 15.296,-2.225 20.579,-3.896 5.284,-1.667 17.519,-6.673 23.358,-8.064 5.841,-1.389 21.413,-4.447 32.26,-11.678 10.845,-7.231 17.255,-17.849 22.617,-30.588 10.381,-4.266 20.393,2.222 25.213,7.97 4.819,5.746 7.971,14.832 8.527,17.983 0.557,3.152 -2.782,7.785 -7.416,9.456 -4.633,1.667 -10.01,1.297 -10.01,1.297 -12.513,-8.899 -41.434,3.616 -55.896,9.176 -14.459,5.561 -37.819,15.017 -44.216,21.413 z"
       style="fill:none;stroke:#231f20;stroke-width:0.75;stroke-linecap:round;stroke-linejoin:round;stroke-miterlimit:4;stroke-dasharray:none;stroke-opacity:1"
       id="path738" />
    <path
       d="m 413.537,594.079 c 0.834,-6.396 9.175,-11.959 15.016,-13.069 -7.23,-1.113 -15.296,-2.225 -20.578,-3.896 -5.285,-1.667 -17.519,-6.673 -23.359,-8.064 -5.841,-1.389 -21.412,-4.447 -32.259,-11.678 -10.845,-7.231 -17.256,-17.849 -22.618,-30.588 -10.381,-4.266 -20.392,2.222 -25.213,7.97 -4.819,5.746 -7.971,14.832 -8.526,17.983 -0.557,3.152 2.781,7.785 7.415,9.456 4.634,1.667 10.011,1.297 10.011,1.297 12.513,-8.899 41.434,3.616 55.896,9.176 14.459,5.561 37.819,15.017 44.215,21.413"
       style="fill:#706d6e;fill-opacity:1;fill-rule:nonzero;stroke:none;stroke-width:0.1"
       id="path740" />
    <path
       d="m 413.537,594.079 c 0.834,-6.396 9.175,-11.959 15.016,-13.069 -7.23,-1.113 -15.296,-2.225 -20.578,-3.896 -5.285,-1.667 -17.519,-6.673 -23.359,-8.064 -5.841,-1.389 -21.412,-4.447 -32.259,-11.678 -10.845,-7.231 -17.256,-17.849 -22.618,-30.588 -10.381,-4.266 -20.392,2.222 -25.213,7.97 -4.819,5.746 -7.971,14.832 -8.526,17.983 -0.557,3.152 2.781,7.785 7.415,9.456 4.634,1.667 10.011,1.297 10.011,1.297 12.513,-8.899 41.434,3.616 55.896,9.176 14.459,5.561 37.819,15.017 44.215,21.413 z"
       style="fill:none;stroke:#231f20;stroke-width:0.75;stroke-linecap:round;stroke-linejoin:round;stroke-miterlimit:4;stroke-dasharray:none;stroke-opacity:1"
       id="path742" />
    <path
       d="m 413.536,594.079 c -6.397,-6.396 -29.755,-15.852 -44.216,-21.413 -14.46,-5.56 -43.381,-18.075 -55.896,-9.176"
       style="fill:none;stroke:#231f20;stroke-width:0.5;stroke-linecap:butt;stroke-linejoin:miter;stroke-miterlimit:4;stroke-dasharray:none;stroke-opacity:1"
       id="path744" />
    <path
       d="m 428.552,581.01 c -7.23,-1.113 -15.295,-2.225 -20.579,-3.896 -5.283,-1.667 -17.518,-6.673 -23.358,-8.064 -5.84,-1.389 -21.413,-4.447 -32.258,-11.678 -10.845,-7.231 -17.257,-17.849 -22.618,-30.588"
       style="fill:none;stroke:#231f20;stroke-width:0.5;stroke-linecap:butt;stroke-linejoin:miter;stroke-miterlimit:4;stroke-dasharray:none;stroke-opacity:1"
       id="path746" />
    <path
       d="m 518.764,397.06 c 3.337,5.283 4.893,16.263 6.005,27.387 1.112,11.123 3.616,73.97 4.45,83.982 0.833,10.011 6.396,12.791 10.783,12.791 4.384,0 9.947,-2.78 10.782,-12.791 0.834,-10.012 3.337,-72.859 4.449,-83.982 1.112,-11.124 2.667,-22.104 6.004,-27.387"
       style="fill:none;stroke:#231f20;stroke-width:0.5;stroke-linecap:butt;stroke-linejoin:miter;stroke-miterlimit:4;stroke-dasharray:none;stroke-opacity:1"
       id="path748" />
    <path
       d="m 537.072,379.32 c 0.452,-4.698 1.348,-8.885 2.93,-11.603 1.593,2.741 2.491,6.976 2.94,11.724"
       style="fill:none;stroke:#231f20;stroke-width:0.5;stroke-linecap:butt;stroke-linejoin:miter;stroke-miterlimit:4;stroke-dasharray:none;stroke-opacity:1"
       id="path750" />
    <path
       d="m 399.631,560.988 c 3.893,-1.948 3.893,-3.616 2.503,-5.841 -1.39,-2.226 -8.342,-9.177 -15.017,-15.017 -6.674,-5.84 -18.075,-13.627 -26.974,-22.248 -8.898,-8.618 -15.295,-14.736 -15.851,-28.363 -0.556,-13.627 0,-26.141 7.508,-39.21 7.509,-13.071 14.74,-21.97 22.526,-23.36"
       style="fill:none;stroke:#231f20;stroke-width:0.5;stroke-linecap:butt;stroke-linejoin:miter;stroke-miterlimit:4;stroke-dasharray:none;stroke-opacity:1"
       id="path752" />
    <path
       d="m 377.587,422.501 c 1.668,3.058 6.749,5.284 11.199,3.058 4.45,-2.225 5.84,-7.231 3.893,-11.401 -1.946,-4.171 -7.786,-10.011 -12.236,-9.453"
       style="fill:none;stroke:#231f20;stroke-width:0.5;stroke-linecap:butt;stroke-linejoin:miter;stroke-miterlimit:4;stroke-dasharray:none;stroke-opacity:1"
       id="path754" />
    <path
       d="m 374.326,426.949 c 0,0 5.371,-3.365 2.78,-9.453 -2.591,-6.088 -8.62,-3.616 -13.348,-1.67 -3.925,1.618 -13.904,10.01 -21.69,19.189 -7.787,9.176 -10.29,20.855 -11.402,33.927 -1.112,13.068 -0.834,27.527 0.834,36.707 1.669,9.176 8.065,19.186 14.183,24.747 6.117,5.563 21.412,18.354 30.032,23.638 6.588,4.037 11.402,6.118 16.709,6.913"
       style="fill:none;stroke:#231f20;stroke-width:0.5;stroke-linecap:butt;stroke-linejoin:miter;stroke-miterlimit:4;stroke-dasharray:none;stroke-opacity:1"
       id="path756" />
    <path
       d="m 537.553,375.563 c -3.7,-3.58 -10.93,-10.811 -26.317,-13.592 -15.388,-2.78 -23.731,-2.78 -29.291,-3.707 -5.563,-0.928 -12.513,-2.775 -15.712,-7.041"
       style="fill:none;stroke:#231f20;stroke-width:0.5;stroke-linecap:butt;stroke-linejoin:miter;stroke-miterlimit:4;stroke-dasharray:none;stroke-opacity:1"
       id="path758" />
    <path
       d="m 512.163,368.09 c -2.411,-0.557 -6.794,-1.649 -10.793,-1.937"
       style="fill:none;stroke:#231f20;stroke-width:0.5;stroke-linecap:butt;stroke-linejoin:miter;stroke-miterlimit:4;stroke-dasharray:none;stroke-opacity:1"
       id="path760" />
    <path
       d="m 450.521,648.582 c -6.675,-4.448 -14.461,-11.678 -16.964,-16.684 -2.502,-5.006 -5.005,-15.294 -10.289,-23.638"
       style="fill:none;stroke:#231f20;stroke-width:0.5;stroke-linecap:butt;stroke-linejoin:miter;stroke-miterlimit:4;stroke-dasharray:none;stroke-opacity:1"
       id="path762" />
    <path
       d="m 496.405,565.435 c 8.064,-6.95 12.235,-15.017 19.187,-23.638 6.952,-8.618 14.46,-13.346 24.41,-13.346 9.947,0 17.455,4.728 24.407,13.346 6.952,8.621 11.124,16.688 19.188,23.638 -16.963,-5.561 -36.429,-4.17 -43.595,-4.17 -7.17,0 -26.633,-1.391 -43.597,4.17"
       style="fill:#706d6e;fill-opacity:1;fill-rule:nonzero;stroke:none;stroke-width:0.1"
       id="path764" />
    <path
       d="m 496.405,565.435 c 8.064,-6.95 12.235,-15.017 19.187,-23.638 6.952,-8.618 14.46,-13.346 24.41,-13.346 9.947,0 17.455,4.728 24.407,13.346 6.952,8.621 11.124,16.688 19.188,23.638 -16.963,-5.561 -36.429,-4.17 -43.595,-4.17 -7.17,0 -26.633,-1.391 -43.597,4.17 z"
       style="fill:none;stroke:#231f20;stroke-width:0.75;stroke-linecap:round;stroke-linejoin:round;stroke-miterlimit:4;stroke-dasharray:none;stroke-opacity:1"
       id="path766" />
    <path
       d="m 680.37,560.988 c 7.787,-0.28 13.349,0 13.904,1.944 0.558,1.948 -7.927,8.991 -11.559,10.335"
       style="fill:none;stroke:#231f20;stroke-width:0.5;stroke-linecap:butt;stroke-linejoin:miter;stroke-miterlimit:4;stroke-dasharray:none;stroke-opacity:1"
       id="path768" />
    <path
       d="m 399.631,560.988 c -7.786,-0.28 -13.347,0 -13.904,1.944 -0.557,1.948 7.928,8.991 11.561,10.335"
       style="fill:none;stroke:#231f20;stroke-width:0.5;stroke-linecap:butt;stroke-linejoin:miter;stroke-miterlimit:4;stroke-dasharray:none;stroke-opacity:1"
       id="path770" />
    <path
       d="m 636.557,532.785 c 5.615,0.623 7.827,6.654 8.856,12.831 -4.199,1.423 -15.736,1.459 -15.736,1.459 -1.49,-3.468 2.672,-7.142 3.721,-10.506 0,0 0.798,-1.727 1.601,-2.45 0.802,-0.724 1.558,-1.334 1.558,-1.334 z"
       style="fill:none;stroke:#231f20;stroke-width:0.5;stroke-linecap:butt;stroke-linejoin:miter;stroke-miterlimit:4;stroke-dasharray:none;stroke-opacity:1"
       id="path772" />
    <path
       d="m 443.445,532.785 c -5.615,0.623 -7.826,6.654 -8.855,12.831 4.198,1.423 15.735,1.459 15.735,1.459 1.491,-3.468 -2.671,-7.142 -3.72,-10.506 0,0 -0.799,-1.727 -1.602,-2.45 -0.801,-0.724 -1.558,-1.334 -1.558,-1.334 z"
       style="fill:none;stroke:#231f20;stroke-width:0.5;stroke-linecap:butt;stroke-linejoin:miter;stroke-miterlimit:4;stroke-dasharray:none;stroke-opacity:1"
       id="path774" />
    <path
       d="m 582.179,520.385 c 8.927,-9.454 28.143,-38.032 36.485,-49.991"
       style="fill:none;stroke:#231f20;stroke-width:0.5;stroke-linecap:round;stroke-linejoin:round;stroke-miterlimit:4;stroke-dasharray:2.8, 1.8;stroke-dashoffset:0;stroke-opacity:1"
       id="path776" />
    <path
       d="m 600.282,521.778 c 9.455,-7.509 32.794,-27.213 42.248,-38.613"
       style="fill:none;stroke:#231f20;stroke-width:0.5;stroke-linecap:round;stroke-linejoin:round;stroke-miterlimit:4;stroke-dasharray:2.8, 1.8;stroke-dashoffset:0;stroke-opacity:1"
       id="path778" />
    <path
       d="m 622.807,463.936 c 5.006,-6.953 23.359,-38.377 25.861,-49.501 2.503,-11.124 4.914,-20.115 6.119,-22.803 1.171,-2.611 2.503,-7.23 10.289,-5.838 7.786,1.391 15.573,7.229 19.745,10.011 4.17,2.781 11.956,6.951 14.737,8.9"
       style="fill:none;stroke:#231f20;stroke-width:0.5;stroke-linecap:round;stroke-linejoin:round;stroke-miterlimit:4;stroke-dasharray:2.8, 1.8;stroke-dashoffset:0;stroke-opacity:1"
       id="path780" />
    <path
       d="m 653.118,467.271 c 6.396,-8.898 21.968,-32.813 31.703,-71.466"
       style="fill:none;stroke:#231f20;stroke-width:0.5;stroke-linecap:round;stroke-linejoin:round;stroke-miterlimit:4;stroke-dasharray:2.8, 1.8;stroke-dashoffset:0;stroke-opacity:1"
       id="path782" />
    <path
       d="m 540.002,408.874 c -4.667,0 -4.944,4.737 -4.944,8.075 0,3.335 1.808,36.279 1.808,43.788 0,7.509 -0.232,47.137 3.136,47.137 3.365,0 3.133,-39.628 3.133,-47.137 0,-7.509 1.809,-40.453 1.809,-43.788 0,-3.338 -0.278,-8.075 -4.942,-8.075 z"
       style="fill:none;stroke:#231f20;stroke-width:0.5;stroke-linecap:round;stroke-linejoin:round;stroke-miterlimit:4;stroke-dasharray:2.8, 1.8;stroke-dashoffset:0;stroke-opacity:1"
       id="path784" />
    <path
       d="m 497.824,520.385 c -8.927,-9.454 -28.143,-38.032 -36.486,-49.991"
       style="fill:none;stroke:#231f20;stroke-width:0.5;stroke-linecap:round;stroke-linejoin:round;stroke-miterlimit:4;stroke-dasharray:2.8, 1.8;stroke-dashoffset:0;stroke-opacity:1"
       id="path786" />
    <path
       d="m 479.719,521.778 c -9.455,-7.509 -32.794,-27.213 -42.248,-38.613"
       style="fill:none;stroke:#231f20;stroke-width:0.5;stroke-linecap:round;stroke-linejoin:round;stroke-miterlimit:4;stroke-dasharray:2.8, 1.8;stroke-dashoffset:0;stroke-opacity:1"
       id="path788" />
    <path
       d="m 457.195,463.936 c -5.006,-6.953 -23.36,-38.377 -25.862,-49.501 -2.502,-11.124 -4.913,-20.115 -6.118,-22.803 -1.172,-2.611 -2.503,-7.23 -10.29,-5.838 -7.786,1.391 -15.572,7.229 -19.743,10.011 -4.172,2.781 -11.958,6.951 -14.739,8.9"
       style="fill:none;stroke:#231f20;stroke-width:0.5;stroke-linecap:round;stroke-linejoin:round;stroke-miterlimit:4;stroke-dasharray:2.8, 1.8;stroke-dashoffset:0;stroke-opacity:1"
       id="path790" />
    <path
       d="m 426.883,467.271 c -6.396,-8.898 -21.968,-32.813 -31.701,-71.466"
       style="fill:none;stroke:#231f20;stroke-width:0.5;stroke-linecap:round;stroke-linejoin:round;stroke-miterlimit:4;stroke-dasharray:2.8, 1.8;stroke-dashoffset:0;stroke-opacity:1"
       id="path792" />
    <path
       d="m 570.332,549.725 c 4.923,0.139 14.656,-4.312 17.992,-9.317"
       style="fill:none;stroke:#231f20;stroke-width:0.5;stroke-linecap:round;stroke-linejoin:round;stroke-miterlimit:4;stroke-dasharray:2.8, 1.8;stroke-dashoffset:0;stroke-opacity:1"
       id="path794" />
    <path
       d="m 620.304,575.447 c 0,0 6.87,-20.029 9.373,-28.372"
       style="fill:none;stroke:#231f20;stroke-width:0.5;stroke-linecap:round;stroke-linejoin:round;stroke-miterlimit:4;stroke-dasharray:2.8, 1.8;stroke-dashoffset:0;stroke-opacity:1"
       id="path796" />
    <path
       d="m 621.127,573.037 c -1.657,-5.931 -6.106,-10.937 -15.284,-17.613 -9.175,-6.674 -11.678,-9.731 -16.406,-14.459"
       style="fill:none;stroke:#231f20;stroke-width:0.5;stroke-linecap:round;stroke-linejoin:round;stroke-miterlimit:4;stroke-dasharray:2.8, 1.8;stroke-dashoffset:0;stroke-opacity:1"
       id="path798" />
    <path
       d="m 559.052,402.15 c 8.213,-1.342 26.492,-8.847 34.557,-14.688"
       style="fill:none;stroke:#231f20;stroke-width:0.5;stroke-linecap:round;stroke-linejoin:round;stroke-miterlimit:4;stroke-dasharray:2.8, 1.8;stroke-dashoffset:0;stroke-opacity:1"
       id="path800" />
    <path
       d="m 603.619,381.622 c 8.343,-4.726 17.797,-6.952 27.253,-6.119 9.455,0.835 22.488,7.497 26.937,11.39"
       style="fill:none;stroke:#231f20;stroke-width:0.5;stroke-linecap:round;stroke-linejoin:round;stroke-miterlimit:4;stroke-dasharray:2.8, 1.8;stroke-dashoffset:0;stroke-opacity:1"
       id="path802" />
    <path
       d="m 556.623,528.451 c 4.171,0 7.786,-0.835 7.786,-6.673 0,-5.841 -2.781,-6.118 -6.673,-6.118 -3.894,0 -7.787,1.668 -7.787,6.118 0,4.448 3.445,6.673 6.674,6.673 z"
       style="fill:none;stroke:#231f20;stroke-width:0.5;stroke-linecap:round;stroke-linejoin:round;stroke-miterlimit:4;stroke-dasharray:2.8, 1.8;stroke-dashoffset:0;stroke-opacity:1"
       id="path804" />
    <path
       d="m 552.484,516.985 c -1.423,-2.716 0.007,-12.917 5.252,-13.562 6.025,-0.743 10.593,0.34 12.911,5.993"
       style="fill:none;stroke:#231f20;stroke-width:0.5;stroke-linecap:round;stroke-linejoin:round;stroke-miterlimit:4;stroke-dasharray:2.8, 1.8;stroke-dashoffset:0;stroke-opacity:1"
       id="path806" />
    <path
       d="m 573.934,519.71 c -1.738,-2.661 -2.85,-4.608 -3.684,-6.834 -0.835,-2.222 0.834,-4.447 1.946,-5.283 1.111,-0.832 3.475,-1.898 4.588,-1.066 1.113,0.836 1.529,2.737 1.529,4.127 0,1.39 2.226,3.057 3.338,3.893 1.112,0.832 1.994,4.243 -3.338,5.133"
       style="fill:none;stroke:#231f20;stroke-width:0.5;stroke-linecap:round;stroke-linejoin:round;stroke-miterlimit:4;stroke-dasharray:2.8, 1.8;stroke-dashoffset:0;stroke-opacity:1"
       id="path808" />
    <path
       d="m 663.733,579.045 c -5.887,-0.818 -12.005,-7.214 -13.396,-11.107 -1.391,-3.893 2.378,-12.739 12.667,-8.569"
       style="fill:none;stroke:#231f20;stroke-width:0.5;stroke-linecap:round;stroke-linejoin:round;stroke-miterlimit:4;stroke-dasharray:2.8, 1.8;stroke-dashoffset:0;stroke-opacity:1"
       id="path810" />
    <path
       d="m 636.967,518.829 c 8.643,0.446 12.815,-0.389 16.985,-3.727 4.172,-3.335 5.562,-8.063 10.011,-10.289 4.451,-2.225 9.456,-3.058 12.237,-6.396 2.78,-3.337 6.673,-8.621 11.124,-15.851 4.447,-7.229 7.229,-13.347 8.898,-20.856 1.667,-7.507 1.946,-13.071 0.555,-16.963 -1.391,-3.894 -1.111,-6.397 1.391,-10.012 2.503,-3.612 4.45,-7.786 7.508,-7.786"
       style="fill:none;stroke:#231f20;stroke-width:0.5;stroke-linecap:round;stroke-linejoin:round;stroke-miterlimit:4;stroke-dasharray:2.8, 1.8;stroke-dashoffset:0;stroke-opacity:1"
       id="path812" />
    <path
       d="m 652.979,397.199 c 5.831,1.942 22.107,8.615 27.113,14.733"
       style="fill:none;stroke:#231f20;stroke-width:0.5;stroke-linecap:round;stroke-linejoin:round;stroke-miterlimit:4;stroke-dasharray:2.8, 1.8;stroke-dashoffset:0;stroke-opacity:1"
       id="path814" />
    <path
       d="m 648,416.81 c 2.894,4.856 7.528,11.159 11.514,11.81 4.392,0.714 7.787,0.554 10.29,-3.616 2.502,-4.173 3.045,-14.143 -1.259,-21.116"
       style="fill:none;stroke:#231f20;stroke-width:0.5;stroke-linecap:round;stroke-linejoin:round;stroke-miterlimit:4;stroke-dasharray:2.8, 1.8;stroke-dashoffset:0;stroke-opacity:1"
       id="path816" />
    <path
       d="m 679.536,440.298 c 3.939,0 8.621,-3.814 8.621,-10.289 0,-3.397 -3.615,-3.892 -5.562,-3.892 -1.946,0 -7.786,1.945 -7.786,8.618 0,4.173 3.8,5.563 4.727,5.563 z"
       style="fill:none;stroke:#231f20;stroke-width:0.5;stroke-linecap:round;stroke-linejoin:round;stroke-miterlimit:4;stroke-dasharray:2.8, 1.8;stroke-dashoffset:0;stroke-opacity:1"
       id="path818" />
    <path
       d="m 623.827,475.245 c 6.119,5.005 9.825,8.156 12.328,8.433 2.503,0.28 4.449,0.835 8.621,-1.668 4.17,-2.502 8.342,-8.342 9.455,-10.288 1.112,-1.948 -0.279,-3.615 -2.503,-5.006 -2.224,-1.389 -4.726,-0.557 -6.118,1.391 -1.391,1.944 -5.748,8.865 -11.958,4.727 -6.673,-4.45 -10.288,-8.621 -13.348,-10.568 -3.059,-1.945 -7.229,-5.283 -9.178,-3.058 -1.944,2.225 1.114,4.448 3.617,7.231 2.502,2.78 9.084,8.806 9.084,8.806 z"
       style="fill:none;stroke:#231f20;stroke-width:0.5;stroke-linecap:round;stroke-linejoin:round;stroke-miterlimit:4;stroke-dasharray:2.8, 1.8;stroke-dashoffset:0;stroke-opacity:1"
       id="path820" />
    <path
       d="m 596.203,381.806 c 3.192,-1.43 6.489,-1.852 7.416,-0.184 0.927,1.67 -2.039,3.708 -4.078,5.004 -2.039,1.298 -4.634,2.503 -5.932,0.836 -1.299,-1.668 0.177,-4.57 2.594,-5.656 z"
       style="fill:none;stroke:#231f20;stroke-width:0.5;stroke-linecap:round;stroke-linejoin:round;stroke-miterlimit:4;stroke-dasharray:2.8, 1.8;stroke-dashoffset:0;stroke-opacity:1"
       id="path822" />
    <path
       d="m 560.239,396.268 c -1.35,-1.485 3.521,-6.118 10.937,-10.011 7.416,-3.893 25.398,-14.089 30.032,-17.242 4.635,-3.15 14.647,-8.898 17.798,-8.898 3.152,0 11.309,2.224 11.309,4.45 0,2.223 -3.336,4.633 -7.044,4.633 -3.708,0 -7.973,-0.555 -15.944,3.895 -7.971,4.448 -13.533,8.341 -18.167,10.751 -4.636,2.411 -9.642,3.708 -14.276,6.488 -4.634,2.781 -8.527,5.006 -9.826,5.75 -1.297,0.739 -2.966,2.222 -4.819,0.184 z"
       style="fill:none;stroke:#231f20;stroke-width:0.5;stroke-linecap:round;stroke-linejoin:round;stroke-miterlimit:4;stroke-dasharray:2.8, 1.8;stroke-dashoffset:0;stroke-opacity:1"
       id="path824" />
    <path
       d="m 554.676,394.598 c -1.299,-1.295 -0.186,-3.15 5.933,-7.413 6.118,-4.266 15.572,-13.165 22.433,-16.872 6.859,-3.708 12.975,-7.229 12.049,-8.156 -0.926,-0.928 -5.377,0 -9.084,2.595 -3.709,2.595 -10.333,6.992 -14.275,10.375 -4.489,3.856 -7.971,7.422 -10.381,9.462 -1.706,1.442 -5.748,5.006 -6.675,3.708 -0.926,-1.297 4.264,-5.933 7.045,-7.973 2.781,-2.038 5.934,-5.561 10.567,-9.269 4.097,-3.278 9.456,-7.416 12.42,-8.714 2.968,-1.297 7.221,-3.294 10,-3.642 2.779,-0.346 6.686,0.12 9.097,2.16 2.408,2.038 1.297,3.651 0,4.633 -2.616,1.98 -9.86,6.948 -14.091,9.087 -4.148,2.096 -11.122,5.56 -16.684,8.713 -5.562,3.15 -13.163,8.713 -14.647,9.823 -1.482,1.113 -2.78,2.411 -3.707,1.483 z"
       style="fill:none;stroke:#231f20;stroke-width:0.5;stroke-linecap:round;stroke-linejoin:round;stroke-miterlimit:4;stroke-dasharray:2.8, 1.8;stroke-dashoffset:0;stroke-opacity:1"
       id="path826" />
    <path
       d="m 509.669,549.725 c -4.921,0.139 -14.655,-4.312 -17.992,-9.317"
       style="fill:none;stroke:#231f20;stroke-width:0.5;stroke-linecap:round;stroke-linejoin:round;stroke-miterlimit:4;stroke-dasharray:2.8, 1.8;stroke-dashoffset:0;stroke-opacity:1"
       id="path828" />
    <path
       d="m 459.698,575.447 c 0,0 -6.87,-20.029 -9.373,-28.372"
       style="fill:none;stroke:#231f20;stroke-width:0.5;stroke-linecap:round;stroke-linejoin:round;stroke-miterlimit:4;stroke-dasharray:2.8, 1.8;stroke-dashoffset:0;stroke-opacity:1"
       id="path830" />
    <path
       d="m 458.876,573.037 c 1.656,-5.931 6.105,-10.937 15.282,-17.613 9.176,-6.674 11.679,-9.731 16.407,-14.459"
       style="fill:none;stroke:#231f20;stroke-width:0.5;stroke-linecap:round;stroke-linejoin:round;stroke-miterlimit:4;stroke-dasharray:2.8, 1.8;stroke-dashoffset:0;stroke-opacity:1"
       id="path832" />
    <path
       d="m 520.95,402.15 c -8.214,-1.342 -26.492,-8.847 -34.556,-14.688"
       style="fill:none;stroke:#231f20;stroke-width:0.5;stroke-linecap:round;stroke-linejoin:round;stroke-miterlimit:4;stroke-dasharray:2.8, 1.8;stroke-dashoffset:0;stroke-opacity:1"
       id="path834" />
    <path
       d="m 476.382,381.622 c -8.341,-4.726 -17.797,-6.952 -27.252,-6.119 -9.454,0.835 -22.489,7.497 -26.938,11.39"
       style="fill:none;stroke:#231f20;stroke-width:0.5;stroke-linecap:round;stroke-linejoin:round;stroke-miterlimit:4;stroke-dasharray:2.8, 1.8;stroke-dashoffset:0;stroke-opacity:1"
       id="path836" />
    <path
       d="m 523.378,528.451 c -4.17,0 -7.786,-0.835 -7.786,-6.673 0,-5.841 2.782,-6.118 6.675,-6.118 3.893,0 7.785,1.668 7.785,6.118 0,4.448 -3.445,6.673 -6.674,6.673 z"
       style="fill:none;stroke:#231f20;stroke-width:0.5;stroke-linecap:round;stroke-linejoin:round;stroke-miterlimit:4;stroke-dasharray:2.8, 1.8;stroke-dashoffset:0;stroke-opacity:1"
       id="path838" />
    <path
       d="m 527.518,516.985 c 1.422,-2.716 -0.008,-12.917 -5.251,-13.562 -6.026,-0.743 -10.595,0.34 -12.913,5.993"
       style="fill:none;stroke:#231f20;stroke-width:0.5;stroke-linecap:round;stroke-linejoin:round;stroke-miterlimit:4;stroke-dasharray:2.8, 1.8;stroke-dashoffset:0;stroke-opacity:1"
       id="path840" />
    <path
       d="m 506.067,519.71 c 1.739,-2.661 2.851,-4.608 3.685,-6.834 0.834,-2.222 -0.834,-4.447 -1.946,-5.283 -1.112,-0.832 -3.476,-1.898 -4.589,-1.066 -1.111,0.836 -1.529,2.737 -1.529,4.127 0,1.39 -2.225,3.057 -3.337,3.893 -1.112,0.832 -1.994,4.243 3.337,5.133"
       style="fill:none;stroke:#231f20;stroke-width:0.5;stroke-linecap:round;stroke-linejoin:round;stroke-miterlimit:4;stroke-dasharray:2.8, 1.8;stroke-dashoffset:0;stroke-opacity:1"
       id="path842" />
    <path
       d="m 416.269,579.045 c 5.888,-0.818 12.005,-7.214 13.396,-11.107 1.39,-3.893 -2.378,-12.739 -12.668,-8.569"
       style="fill:none;stroke:#231f20;stroke-width:0.5;stroke-linecap:round;stroke-linejoin:round;stroke-miterlimit:4;stroke-dasharray:2.8, 1.8;stroke-dashoffset:0;stroke-opacity:1"
       id="path844" />
    <path
       d="m 443.035,518.829 c -8.644,0.446 -12.814,-0.389 -16.986,-3.727 -4.171,-3.335 -5.562,-8.063 -10.011,-10.289 -4.45,-2.225 -9.454,-3.058 -12.235,-6.396 -2.782,-3.337 -6.675,-8.621 -11.124,-15.851 -4.449,-7.229 -7.23,-13.347 -8.898,-20.856 -1.669,-7.507 -1.947,-13.071 -0.557,-16.963 1.391,-3.894 1.112,-6.397 -1.39,-10.012 -2.502,-3.612 -4.449,-7.786 -7.508,-7.786"
       style="fill:none;stroke:#231f20;stroke-width:0.5;stroke-linecap:round;stroke-linejoin:round;stroke-miterlimit:4;stroke-dasharray:2.8, 1.8;stroke-dashoffset:0;stroke-opacity:1"
       id="path846" />
    <path
       d="m 427.022,397.199 c -5.831,1.942 -22.107,8.615 -27.112,14.733"
       style="fill:none;stroke:#231f20;stroke-width:0.5;stroke-linecap:round;stroke-linejoin:round;stroke-miterlimit:4;stroke-dasharray:2.8, 1.8;stroke-dashoffset:0;stroke-opacity:1"
       id="path848" />
    <path
       d="m 432,416.81 c -2.892,4.856 -7.526,11.159 -11.513,11.81 -4.391,0.714 -7.785,0.554 -10.288,-3.616 -2.503,-4.173 -3.046,-14.143 1.258,-21.116"
       style="fill:none;stroke:#231f20;stroke-width:0.5;stroke-linecap:round;stroke-linejoin:round;stroke-miterlimit:4;stroke-dasharray:2.8, 1.8;stroke-dashoffset:0;stroke-opacity:1"
       id="path850" />
    <path
       d="m 400.465,440.298 c -3.939,0 -8.62,-3.814 -8.62,-10.289 0,-3.397 3.615,-3.892 5.562,-3.892 1.946,0 7.786,1.945 7.786,8.618 0,4.173 -3.799,5.563 -4.728,5.563 z"
       style="fill:none;stroke:#231f20;stroke-width:0.5;stroke-linecap:round;stroke-linejoin:round;stroke-miterlimit:4;stroke-dasharray:2.8, 1.8;stroke-dashoffset:0;stroke-opacity:1"
       id="path852" />
    <path
       d="m 456.175,475.245 c -6.118,5.005 -9.826,8.156 -12.329,8.433 -2.503,0.28 -4.449,0.835 -8.62,-1.668 -4.171,-2.502 -8.343,-8.342 -9.455,-10.288 -1.112,-1.948 0.278,-3.615 2.503,-5.006 2.225,-1.389 4.727,-0.557 6.117,1.391 1.391,1.944 5.75,8.865 11.958,4.727 6.675,-4.45 10.289,-8.621 13.349,-10.568 3.058,-1.945 7.229,-5.283 9.177,-3.058 1.946,2.225 -1.114,4.448 -3.617,7.231 -2.502,2.78 -9.083,8.806 -9.083,8.806 z"
       style="fill:none;stroke:#231f20;stroke-width:0.5;stroke-linecap:round;stroke-linejoin:round;stroke-miterlimit:4;stroke-dasharray:2.8, 1.8;stroke-dashoffset:0;stroke-opacity:1"
       id="path854" />
    <path
       d="m 483.798,381.806 c -3.192,-1.43 -6.489,-1.852 -7.416,-0.184 -0.926,1.67 2.039,3.708 4.079,5.004 2.039,1.298 4.635,2.503 5.933,0.836 1.297,-1.668 -0.178,-4.57 -2.596,-5.656 z"
       style="fill:none;stroke:#231f20;stroke-width:0.5;stroke-linecap:round;stroke-linejoin:round;stroke-miterlimit:4;stroke-dasharray:2.8, 1.8;stroke-dashoffset:0;stroke-opacity:1"
       id="path856" />
    <path
       d="m 519.764,396.268 c 1.349,-1.485 -3.522,-6.118 -10.938,-10.011 -7.415,-3.893 -25.399,-14.089 -30.034,-17.242 -4.634,-3.15 -14.645,-8.898 -17.796,-8.898 -3.153,0 -11.31,2.224 -11.31,4.45 0,2.223 3.338,4.633 7.046,4.633 3.708,0 7.971,-0.555 15.942,3.895 7.973,4.448 13.534,8.341 18.169,10.751 4.634,2.411 9.64,3.708 14.275,6.488 4.634,2.781 8.528,5.006 9.825,5.75 1.298,0.739 2.967,2.222 4.821,0.184 z"
       style="fill:none;stroke:#231f20;stroke-width:0.5;stroke-linecap:round;stroke-linejoin:round;stroke-miterlimit:4;stroke-dasharray:2.8, 1.8;stroke-dashoffset:0;stroke-opacity:1"
       id="path858" />
    <path
       d="m 525.326,394.598 c 1.298,-1.295 0.185,-3.15 -5.934,-7.413 -6.117,-4.266 -15.572,-13.165 -22.431,-16.872 -6.859,-3.708 -12.977,-7.229 -12.05,-8.156 0.926,-0.928 5.376,0 9.084,2.595 3.708,2.595 10.334,6.992 14.275,10.375 4.49,3.856 7.971,7.422 10.381,9.462 1.705,1.442 5.747,5.006 6.675,3.708 0.926,-1.297 -4.264,-5.933 -7.045,-7.973 -2.781,-2.038 -5.933,-5.561 -10.568,-9.269 -4.096,-3.278 -9.454,-7.416 -12.421,-8.714 -2.966,-1.297 -7.218,-3.294 -9.998,-3.642 -2.78,-0.346 -6.687,0.12 -9.097,2.16 -2.409,2.038 -1.298,3.651 0,4.633 2.615,1.98 9.861,6.948 14.09,9.087 4.15,2.096 11.124,5.56 16.685,8.713 5.561,3.15 13.162,8.713 14.646,9.823 1.482,1.113 2.78,2.411 3.708,1.483 z"
       style="fill:none;stroke:#231f20;stroke-width:0.5;stroke-linecap:round;stroke-linejoin:round;stroke-miterlimit:4;stroke-dasharray:2.8, 1.8;stroke-dashoffset:0;stroke-opacity:1"
       id="path860" />
    <path
       d="m 659.515,428.62 c -3.846,1.153 -7.454,4.857 -7.762,9.165 -0.306,4.307 3.001,5.768 5.539,5.921 2.539,0.155 7.538,0.308 8.615,-3.383 1.191,-4.085 1.385,-9.075 -1.385,-11.306"
       style="fill:none;stroke:#231f20;stroke-width:0.5;stroke-linecap:round;stroke-linejoin:round;stroke-miterlimit:4;stroke-dasharray:2.8, 1.8;stroke-dashoffset:0;stroke-opacity:1"
       id="path862" />
    <path
       d="m 420.489,428.62 c 3.845,1.153 7.452,4.857 7.76,9.165 0.307,4.307 -3,5.768 -5.539,5.921 -2.537,0.155 -7.537,0.308 -8.615,-3.383 -1.191,-4.085 -1.384,-9.075 1.385,-11.306"
       style="fill:none;stroke:#231f20;stroke-width:0.5;stroke-linecap:round;stroke-linejoin:round;stroke-miterlimit:4;stroke-dasharray:2.8, 1.8;stroke-dashoffset:0;stroke-opacity:1"
       id="path864" />
    <path
       d="m 586.028,528.454 c 1.463,3.055 5.912,4.725 10.64,4.168 4.726,-0.555 6.951,-3.893 6.951,-6.673 0,-2.781 -3.058,-5.283 -8.899,-4.729 -5.84,0.558 -8.211,2.25 -8.834,4.739"
       style="fill:none;stroke:#231f20;stroke-width:0.5;stroke-linecap:round;stroke-linejoin:round;stroke-miterlimit:4;stroke-dasharray:2.8, 1.8;stroke-dashoffset:0;stroke-opacity:1"
       id="path866" />
    <path
       d="m 710.211,526.332 c -5.925,1.284 -9.54,-1.219 -17.048,-10.395 -7.508,-9.176 -10.025,-22.44 -8.356,-29.395"
       style="fill:none;stroke:#231f20;stroke-width:0.5;stroke-linecap:round;stroke-linejoin:round;stroke-miterlimit:4;stroke-dasharray:2.8, 1.8;stroke-dashoffset:0;stroke-opacity:1"
       id="path868" />
    <path
       d="m 684.214,542.923 c -4.676,-1.422 -22.296,-25.761 -11.541,-41.807"
       style="fill:none;stroke:#231f20;stroke-width:0.5;stroke-linecap:round;stroke-linejoin:round;stroke-miterlimit:4;stroke-dasharray:2.8, 1.8;stroke-dashoffset:0;stroke-opacity:1"
       id="path870" />
    <path
       d="m 369.791,526.332 c 5.924,1.284 9.541,-1.219 17.048,-10.395 7.509,-9.176 10.024,-22.44 8.356,-29.395"
       style="fill:none;stroke:#231f20;stroke-width:0.5;stroke-linecap:round;stroke-linejoin:round;stroke-miterlimit:4;stroke-dasharray:2.8, 1.8;stroke-dashoffset:0;stroke-opacity:1"
       id="path872" />
    <path
       d="m 395.788,542.923 c 4.675,-1.422 22.297,-25.761 11.541,-41.807"
       style="fill:none;stroke:#231f20;stroke-width:0.5;stroke-linecap:round;stroke-linejoin:round;stroke-miterlimit:4;stroke-dasharray:2.8, 1.8;stroke-dashoffset:0;stroke-opacity:1"
       id="path874" />
    <path
       d="m 554.652,432.526 c 5.03,0.541 42.59,-0.468 41.18,-44.311"
       style="fill:none;stroke:#231f20;stroke-width:0.5;stroke-linecap:round;stroke-linejoin:round;stroke-miterlimit:4;stroke-dasharray:2.8, 1.8;stroke-dashoffset:0;stroke-opacity:1"
       id="path876" />
    <path
       d="m 591.45,412.8 c 7.72,-0.868 39.31,-3.22 56.55,4.01"
       style="fill:none;stroke:#231f20;stroke-width:0.5;stroke-linecap:round;stroke-linejoin:round;stroke-miterlimit:4;stroke-dasharray:2.8, 1.8;stroke-dashoffset:0;stroke-opacity:1"
       id="path878" />
    <path
       d="m 525.349,432.526 c -5.029,0.541 -42.589,-0.468 -41.181,-44.311"
       style="fill:none;stroke:#231f20;stroke-width:0.5;stroke-linecap:round;stroke-linejoin:round;stroke-miterlimit:4;stroke-dasharray:2.8, 1.8;stroke-dashoffset:0;stroke-opacity:1"
       id="path880" />
    <path
       d="m 488.551,412.8 c -7.719,-0.868 -39.308,-3.22 -56.551,4.01"
       style="fill:none;stroke:#231f20;stroke-width:0.5;stroke-linecap:round;stroke-linejoin:round;stroke-miterlimit:4;stroke-dasharray:2.8, 1.8;stroke-dashoffset:0;stroke-opacity:1"
       id="path882" />
    <path
       d="m 682.715,573.267 c -3.633,1.345 -9.682,3.521 -9.682,3.521 -4.619,0.326 -8.791,0.883 -9.348,-4.677 -0.556,-5.563 8.899,-10.846 16.685,-11.123"
       style="fill:none;stroke:#231f20;stroke-width:0.5;stroke-linecap:round;stroke-linejoin:round;stroke-miterlimit:4;stroke-dasharray:2.8, 1.8;stroke-dashoffset:0;stroke-opacity:1"
       id="path884" />
    <path
       d="m 397.288,573.267 c 3.631,1.345 9.681,3.521 9.681,3.521 4.619,0.326 8.791,0.883 9.347,-4.677 0.557,-5.563 -8.898,-10.846 -16.685,-11.123"
       style="fill:none;stroke:#231f20;stroke-width:0.5;stroke-linecap:round;stroke-linejoin:round;stroke-miterlimit:4;stroke-dasharray:2.8, 1.8;stroke-dashoffset:0;stroke-opacity:1"
       id="path886" />
    <path
       d="m 699.558,404.705 c 2.78,1.944 4.728,4.602 7.509,9.052"
       style="fill:none;stroke:#231f20;stroke-width:0.5;stroke-linecap:butt;stroke-linejoin:miter;stroke-miterlimit:4;stroke-dasharray:none;stroke-opacity:1"
       id="path888" />
    <path
       d="m 380.443,404.705 c -2.78,1.944 -4.728,4.602 -7.508,9.052"
       style="fill:none;stroke:#231f20;stroke-width:0.5;stroke-linecap:butt;stroke-linejoin:miter;stroke-miterlimit:4;stroke-dasharray:none;stroke-opacity:1"
       id="path890" />
    <path
       d="m 555.025,532.934 c 0,0 2.285,-2.726 4.235,-4.649"
       style="fill:none;stroke:#231f20;stroke-width:0.5;stroke-linecap:round;stroke-linejoin:round;stroke-miterlimit:4;stroke-dasharray:2.8, 1.8;stroke-dashoffset:0;stroke-opacity:1"
       id="path892" />
    <path
       d="m 524.976,532.934 c 0,0 -2.283,-2.726 -4.234,-4.649"
       style="fill:none;stroke:#231f20;stroke-width:0.5;stroke-linecap:round;stroke-linejoin:round;stroke-miterlimit:4;stroke-dasharray:2.8, 1.8;stroke-dashoffset:0;stroke-opacity:1"
       id="path894" />
    <path
       d="m 564.294,523.426 c 2.618,-1.371 7.346,-3.874 11.516,-3.874 4.172,0 9.734,0.556 10.012,5.283 0.278,4.729 0.555,10.012 0.555,11.402 0,1.39 1.205,4.171 3.06,4.728"
       style="fill:none;stroke:#231f20;stroke-width:0.5;stroke-linecap:round;stroke-linejoin:round;stroke-miterlimit:4;stroke-dasharray:2.8, 1.8;stroke-dashoffset:0;stroke-opacity:1"
       id="path896" />
    <path
       d="m 645.413,545.616 c 1.123,-0.243 2.14,-0.501 2.978,-0.758 3.615,-1.112 7.23,-5.283 7.786,-9.456 0.557,-4.171 0.834,-10.844 -8.898,-13.904 -9.735,-3.058 -25.338,-6.494 -42.981,-2.968"
       style="fill:none;stroke:#231f20;stroke-width:0.5;stroke-linecap:round;stroke-linejoin:round;stroke-miterlimit:4;stroke-dasharray:2.8, 1.8;stroke-dashoffset:0;stroke-opacity:1"
       id="path898" />
    <path
       d="m 588.202,540.247 c 6.241,1.55 17.364,5.723 24.038,6.279 5.188,0.433 12.396,0.527 17.437,0.549"
       style="fill:none;stroke:#231f20;stroke-width:0.5;stroke-linecap:round;stroke-linejoin:round;stroke-miterlimit:4;stroke-dasharray:2.8, 1.8;stroke-dashoffset:0;stroke-opacity:1"
       id="path900" />
    <path
       d="m 493.974,528.454 c -1.462,3.055 -5.911,4.725 -10.64,4.168 -4.726,-0.555 -6.95,-3.893 -6.95,-6.673 0,-2.781 3.058,-5.283 8.899,-4.729 5.839,0.558 8.21,2.25 8.833,4.739"
       style="fill:none;stroke:#231f20;stroke-width:0.5;stroke-linecap:round;stroke-linejoin:round;stroke-miterlimit:4;stroke-dasharray:2.8, 1.8;stroke-dashoffset:0;stroke-opacity:1"
       id="path902" />
    <path
       d="m 434.59,545.616 c -1.124,-0.243 -2.141,-0.501 -2.979,-0.758 -3.615,-1.112 -7.23,-5.283 -7.785,-9.456 -0.557,-4.171 -0.834,-10.844 8.898,-13.904 9.734,-3.058 25.338,-6.494 42.98,-2.968"
       style="fill:none;stroke:#231f20;stroke-width:0.5;stroke-linecap:round;stroke-linejoin:round;stroke-miterlimit:4;stroke-dasharray:2.8, 1.8;stroke-dashoffset:0;stroke-opacity:1"
       id="path904" />
    <path
       d="m 491.8,540.247 c -6.24,1.55 -17.364,5.723 -24.037,6.279 -5.189,0.433 -12.397,0.527 -17.438,0.549"
       style="fill:none;stroke:#231f20;stroke-width:0.5;stroke-linecap:round;stroke-linejoin:round;stroke-miterlimit:4;stroke-dasharray:2.8, 1.8;stroke-dashoffset:0;stroke-opacity:1"
       id="path906" />
    <path
       d="m 668.168,565.049 c -6.152,-0.726 -7.819,-10.531 0.523,-12.754"
       style="fill:none;stroke:#231f20;stroke-width:0.5;stroke-linecap:round;stroke-linejoin:round;stroke-miterlimit:4;stroke-dasharray:2.8, 1.8;stroke-dashoffset:0;stroke-opacity:1"
       id="path908" />
    <path
       d="m 641.997,546.259 c 3.335,2.214 11.955,6.108 16.961,6.385 5.005,0.277 16.232,-1.391 20.683,0.277"
       style="fill:none;stroke:#231f20;stroke-width:0.5;stroke-linecap:round;stroke-linejoin:round;stroke-miterlimit:4;stroke-dasharray:2.8, 1.8;stroke-dashoffset:0;stroke-opacity:1"
       id="path910" />
    <path
       d="m 656.393,532.075 c 4.512,0.269 9.795,-0.288 15.635,4.439 5.839,4.729 13.289,8.458 18.573,5.678"
       style="fill:none;stroke:#231f20;stroke-width:0.5;stroke-linecap:round;stroke-linejoin:round;stroke-miterlimit:4;stroke-dasharray:2.8, 1.8;stroke-dashoffset:0;stroke-opacity:1"
       id="path912" />
    <path
       d="m 567.839,368.09 c 1.112,2.037 -3.894,9.638 -8.713,12.418 -4.821,2.784 -10.568,3.894 -12.05,1.856 -1.485,-2.04 -0.932,-5.528 1.35,-7.304"
       style="fill:none;stroke:#231f20;stroke-width:0.5;stroke-linecap:round;stroke-linejoin:round;stroke-miterlimit:4;stroke-dasharray:2.8, 1.8;stroke-dashoffset:0;stroke-opacity:1"
       id="path914" />
    <path
       d="m 512.163,368.09 c -1.112,2.037 3.894,9.638 8.713,12.418 4.821,2.784 10.568,3.894 12.05,1.856 1.485,-2.04 0.933,-5.528 -1.35,-7.304"
       style="fill:none;stroke:#231f20;stroke-width:0.5;stroke-linecap:round;stroke-linejoin:round;stroke-miterlimit:4;stroke-dasharray:2.8, 1.8;stroke-dashoffset:0;stroke-opacity:1"
       id="path916" />
    <path
       d="m 515.707,523.426 c -2.618,-1.371 -7.344,-3.874 -11.516,-3.874 -4.171,0 -9.733,0.556 -10.012,5.283 -0.277,4.729 -0.555,10.012 -0.555,11.402 0,1.39 -1.206,4.171 -3.059,4.728"
       style="fill:none;stroke:#231f20;stroke-width:0.5;stroke-linecap:round;stroke-linejoin:round;stroke-miterlimit:4;stroke-dasharray:2.8, 1.8;stroke-dashoffset:0;stroke-opacity:1"
       id="path918" />
    <path
       d="m 411.834,565.049 c 6.151,-0.726 7.82,-10.531 -0.523,-12.754"
       style="fill:none;stroke:#231f20;stroke-width:0.5;stroke-linecap:round;stroke-linejoin:round;stroke-miterlimit:4;stroke-dasharray:2.8, 1.8;stroke-dashoffset:0;stroke-opacity:1"
       id="path920" />
    <path
       d="m 438.004,546.259 c -3.334,2.214 -11.955,6.108 -16.961,6.385 -5.005,0.277 -16.232,-1.391 -20.681,0.277"
       style="fill:none;stroke:#231f20;stroke-width:0.5;stroke-linecap:round;stroke-linejoin:round;stroke-miterlimit:4;stroke-dasharray:2.8, 1.8;stroke-dashoffset:0;stroke-opacity:1"
       id="path922" />
    <path
       d="m 423.608,532.075 c -4.511,0.269 -9.795,-0.288 -15.635,4.439 -5.839,4.729 -13.289,8.458 -18.572,5.678"
       style="fill:none;stroke:#231f20;stroke-width:0.5;stroke-linecap:round;stroke-linejoin:round;stroke-miterlimit:4;stroke-dasharray:2.8, 1.8;stroke-dashoffset:0;stroke-opacity:1"
       id="path924" />
    <path
       d="m 542.942,379.441 c 1.1,11.636 -0.503,26.352 -1.189,29.708"
       style="fill:none;stroke:#231f20;stroke-width:0.5;stroke-linecap:round;stroke-linejoin:round;stroke-miterlimit:4;stroke-dasharray:2.8, 1.8;stroke-dashoffset:0;stroke-opacity:1"
       id="path926" />
    <path
       d="m 538.25,409.149 c -0.689,-3.367 -2.299,-18.175 -1.178,-29.829"
       style="fill:none;stroke:#231f20;stroke-width:0.5;stroke-linecap:round;stroke-linejoin:round;stroke-miterlimit:4;stroke-dasharray:2.8, 1.8;stroke-dashoffset:0;stroke-opacity:1"
       id="path928" />
    <path
       d="m 598.934,543.216 c 3.482,-2.413 14.528,-7.368 19.171,-5.092 4.641,2.278 4.48,8.271 4.48,8.271"
       style="fill:none;stroke:#231f20;stroke-width:0.5;stroke-linecap:round;stroke-linejoin:round;stroke-miterlimit:4;stroke-dasharray:2.8, 1.8;stroke-dashoffset:0;stroke-opacity:1"
       id="path930" />
    <path
       d="m 617.613,537.922 c 0.136,-3.691 1.95,-10.553 7.11,-10.238 5.161,0.316 9.724,5.521 8.675,8.885"
       style="fill:none;stroke:#231f20;stroke-width:0.5;stroke-linecap:round;stroke-linejoin:round;stroke-miterlimit:4;stroke-dasharray:2.8, 1.8;stroke-dashoffset:0;stroke-opacity:1"
       id="path932" />
    <path
       d="m 641.999,519.594 c -2.292,2.748 -5.707,8.418 -8.458,16.126 0,0 7.271,-10.063 22.196,-6.438"
       style="fill:none;stroke:#231f20;stroke-width:0.5;stroke-linecap:round;stroke-linejoin:round;stroke-miterlimit:4;stroke-dasharray:2.8, 1.8;stroke-dashoffset:0;stroke-opacity:1"
       id="path934" />
    <path
       d="m 622.071,528.246 c -2.67,-1.989 -10.006,-7.677 -10.069,-10.332"
       style="fill:none;stroke:#231f20;stroke-width:0.5;stroke-linecap:round;stroke-linejoin:round;stroke-miterlimit:4;stroke-dasharray:2.8, 1.8;stroke-dashoffset:0;stroke-opacity:1"
       id="path936" />
    <path
       d="m 481.069,543.216 c -3.483,-2.413 -14.528,-7.368 -19.171,-5.092 -4.642,2.278 -4.48,8.271 -4.48,8.271"
       style="fill:none;stroke:#231f20;stroke-width:0.5;stroke-linecap:round;stroke-linejoin:round;stroke-miterlimit:4;stroke-dasharray:2.8, 1.8;stroke-dashoffset:0;stroke-opacity:1"
       id="path938" />
    <path
       d="m 462.39,537.922 c -0.136,-3.691 -1.95,-10.553 -7.111,-10.238 -5.16,0.316 -9.723,5.521 -8.674,8.885"
       style="fill:none;stroke:#231f20;stroke-width:0.5;stroke-linecap:round;stroke-linejoin:round;stroke-miterlimit:4;stroke-dasharray:2.8, 1.8;stroke-dashoffset:0;stroke-opacity:1"
       id="path940" />
    <path
       d="m 438.004,519.594 c 2.292,2.748 5.706,8.418 8.458,16.126 0,0 -7.272,-10.063 -22.196,-6.438"
       style="fill:none;stroke:#231f20;stroke-width:0.5;stroke-linecap:round;stroke-linejoin:round;stroke-miterlimit:4;stroke-dasharray:2.8, 1.8;stroke-dashoffset:0;stroke-opacity:1"
       id="path942" />
    <path
       d="m 457.931,528.246 c 2.67,-1.989 10.006,-7.677 10.069,-10.332"
       style="fill:none;stroke:#231f20;stroke-width:0.5;stroke-linecap:round;stroke-linejoin:round;stroke-miterlimit:4;stroke-dasharray:2.8, 1.8;stroke-dashoffset:0;stroke-opacity:1"
       id="path944" />
    <path
       d="m 540.002,774 c -9.238,0 -28.859,-0.834 -48.603,2.78 -19.744,3.615 -28.643,10.29 -28.643,12.513 0,2.226 1.391,2.226 8.899,3.894 7.508,1.668 27.253,3.337 33.926,2.781 6.674,-0.556 27.532,-0.083 34.421,-0.168 6.887,0.085 27.745,-0.388 34.418,0.168 6.674,0.556 26.418,-1.113 33.926,-2.781 7.509,-1.668 8.899,-1.668 8.899,-3.894 0,-2.223 -8.899,-8.898 -28.642,-12.513 C 568.858,773.166 549.237,774 540.002,774"
       style="fill:#ffffff;fill-opacity:1;fill-rule:nonzero;stroke:none;stroke-width:0.1"
       id="path946" />
    <path
       d="m 540.002,774 c -9.238,0 -28.859,-0.834 -48.603,2.78 -19.744,3.615 -28.643,10.29 -28.643,12.513 0,2.226 1.391,2.226 8.899,3.894 7.508,1.668 27.253,3.337 33.926,2.781 6.674,-0.556 27.532,-0.083 34.421,-0.168 6.887,0.085 27.745,-0.388 34.418,0.168 6.674,0.556 26.418,-1.113 33.926,-2.781 7.509,-1.668 8.899,-1.668 8.899,-3.894 0,-2.223 -8.899,-8.898 -28.642,-12.513 C 568.858,773.166 549.237,774 540.002,774 Z"
       style="fill:none;stroke:#231f20;stroke-width:0.75;stroke-linecap:round;stroke-linejoin:round;stroke-miterlimit:4;stroke-dasharray:0, 2;stroke-dashoffset:0;stroke-opacity:1"
       id="path948" />
    <path
       d="m 540.002,752.308 c -12.3,0 -51.662,-1.668 -62.786,-4.727 -11.123,-3.059 -18.353,-10.011 -26.973,-19.188 -8.62,-9.177 -29.477,-36.707 -39.21,-49.777 -9.733,-13.07 -18.91,-23.359 -29.755,-30.034 -10.845,-6.672 -26.975,-10.289 -36.986,-15.293 -10.011,-5.006 -26.139,-12.515 -33.926,-18.911 -7.786,-6.395 -10.845,-13.068 -11.958,-17.519 -1.112,-4.448 -6.396,-8.621 -10.845,-8.621 -13.626,0 -26.14,14.183 -29.755,19.188 -3.615,5.006 -4.172,10.568 2.78,10.568 6.953,0 16.13,3.058 25.307,5.84 9.177,2.781 6.952,7.508 -1.669,11.958 -8.621,4.449 -24.749,0.555 -35.039,-0.836 -10.288,-1.39 -13.348,13.626 -17.24,21.693 -3.894,8.063 5.56,24.47 9.455,29.197 3.892,4.728 13.626,21.413 20.021,15.573 6.397,-5.839 0.279,-21.412 -1.669,-25.306 -1.946,-3.894 -7.507,-14.46 -2.224,-19.187 5.284,-4.728 15.016,-1.669 23.081,3.058 8.064,4.728 22.803,18.632 30.59,25.584 7.786,6.952 16.128,5.006 21.968,2.503 5.84,-2.503 18.076,-4.728 27.809,-2.781 9.732,1.947 26.418,12.514 32.535,18.076 6.118,5.562 30.033,26.695 37.542,36.429 7.508,9.733 8.342,17.519 7.23,25.305 -1.112,7.786 -8.343,6.118 -14.739,6.118 -6.395,0 -15.016,0 -23.915,14.46 -8.898,14.461 -18.353,22.525 -33.091,22.804 -14.74,0.277 -26.975,-6.952 -37.821,-13.627 -10.844,-6.674 -29.198,-11.679 -41.713,-16.963 -12.513,-5.283 -28.086,-20.3 -36.15,-28.642 -8.064,-8.343 -13.626,-13.626 -16.963,-11.402 -3.337,2.225 0,10.289 10.289,24.75 10.289,14.46 17.52,25.583 37.264,41.155 19.744,15.574 31.145,18.633 40.878,21.136 9.733,2.503 16.685,0.277 19.466,-2.781 2.781,-3.06 7.786,-5.562 12.513,-5.284 4.728,0.278 8.621,2.224 11.124,5.284 2.503,3.058 4.449,8.343 6.396,9.733 1.946,1.39 5.84,3.615 16.963,6.117 11.124,2.503 14.181,0.557 18.91,-1.946 4.727,-2.503 15.294,-8.62 20.856,-11.402 5.562,-2.78 6.396,-1.668 10.288,0.835 3.894,2.503 14.184,9.732 20.579,14.738 6.396,5.006 10.845,4.728 16.963,4.449 6.118,-0.277 21.969,-0.556 30.868,-0.277 8.899,0.277 26.418,2.503 32.752,2.503 6.332,0 23.852,-2.226 32.75,-2.503 8.899,-0.279 24.75,0 30.867,0.277 6.118,0.279 10.567,0.557 16.965,-4.449 6.395,-5.006 16.683,-12.235 20.577,-14.738 3.892,-2.503 4.727,-3.615 10.288,-0.835 5.562,2.782 16.13,8.899 20.857,11.402 4.728,2.503 7.786,4.449 18.91,1.946 11.122,-2.502 15.017,-4.727 16.962,-6.117 1.948,-1.39 3.895,-6.675 6.398,-9.733 2.502,-3.06 6.395,-5.006 11.122,-5.284 4.728,-0.278 9.733,2.224 12.513,5.284 2.783,3.058 9.735,5.284 19.466,2.781 9.735,-2.503 21.136,-5.562 40.879,-21.136 19.745,-15.572 26.975,-26.695 37.263,-41.155 10.29,-14.461 13.627,-22.525 10.29,-24.75 -3.338,-2.224 -8.899,3.059 -16.963,11.402 -8.064,8.342 -23.638,23.359 -36.151,28.642 -12.513,5.284 -30.868,10.289 -41.713,16.963 -10.845,6.675 -23.081,13.904 -37.82,13.627 -14.737,-0.279 -24.194,-8.343 -33.092,-22.804 -8.899,-14.46 -17.518,-14.46 -23.915,-14.46 -6.396,0 -13.625,1.668 -14.739,-6.118 -1.112,-7.786 -0.278,-15.572 7.23,-25.305 7.509,-9.734 31.424,-30.867 37.542,-36.429 6.118,-5.562 22.803,-16.129 32.537,-18.076 9.731,-1.947 21.969,0.278 27.807,2.781 5.84,2.503 14.182,4.449 21.969,-2.503 7.786,-6.952 22.526,-20.856 30.59,-25.584 8.064,-4.727 17.797,-7.786 23.08,-3.058 5.283,4.727 -0.277,15.293 -2.224,19.187 -1.946,3.894 -8.064,19.467 -1.668,25.306 6.395,5.84 16.129,-10.845 20.022,-15.573 3.893,-4.727 13.348,-21.134 9.455,-29.197 -3.894,-8.067 -6.952,-23.083 -17.242,-21.693 -10.289,1.391 -26.417,5.285 -35.038,0.836 -8.621,-4.45 -10.847,-9.177 -1.669,-11.958 9.178,-2.782 18.353,-5.84 25.306,-5.84 6.952,0 6.396,-5.562 2.781,-10.568 -3.615,-5.005 -16.129,-19.188 -29.756,-19.188 -4.449,0 -9.732,4.173 -10.845,8.621 -1.111,4.451 -4.172,11.124 -11.958,17.519 -7.786,6.396 -23.915,13.905 -33.927,18.911 -10.01,5.004 -26.138,8.621 -36.983,15.293 -10.847,6.675 -20.022,16.964 -29.757,30.034 -9.732,13.07 -30.588,40.6 -39.209,49.777 -8.621,9.177 -15.85,16.129 -26.974,19.188 -11.122,3.059 -50.485,4.727 -62.783,4.727 z"
       style="fill:none;stroke:#231f20;stroke-width:0.75;stroke-linecap:round;stroke-linejoin:round;stroke-miterlimit:4;stroke-dasharray:0, 2;stroke-dashoffset:0;stroke-opacity:1"
       id="path950" />
    <path
       d="m 418.819,615.213 c -3.894,-12.513 -13.904,-15.851 -26.14,-21.412 -12.236,-5.563 -20.856,-10.569 -36.707,-16.407 -15.851,-5.841 -22.789,-8.763 -35.316,-7.508 -11.124,1.113 -10.568,4.717 -10.568,8.899 0,4.17 2.276,4.864 4.728,5.838 2.801,1.112 7.451,3.459 15.016,8.066 7.181,4.371 22.525,13.068 45.05,20.022 22.525,6.951 28.085,14.181 36.151,22.802 8.064,8.621 28.643,35.873 37.542,46.441 8.898,10.566 14.737,16.128 25.027,20.299 10.289,4.172 25.306,0.556 33.926,0 8.621,-0.556 26.418,2.225 32.474,2.503 6.053,-0.278 23.852,-3.059 32.471,-2.503 8.621,0.556 23.639,4.172 33.927,0 10.289,-4.171 16.128,-9.733 25.028,-20.299 8.899,-10.568 29.477,-37.82 37.54,-46.441 8.066,-8.621 13.627,-15.851 36.153,-22.802 22.525,-6.954 37.868,-15.651 45.048,-20.022 7.565,-4.607 12.216,-6.954 15.017,-8.066 2.452,-0.974 4.729,-1.668 4.729,-5.838 0,-4.182 0.555,-7.786 -10.568,-8.899 -12.529,-1.255 -19.467,1.667 -35.317,7.508 -15.852,5.838 -24.472,10.844 -36.706,16.407 -12.238,5.561 -22.248,8.899 -26.141,21.412"
       style="fill:none;stroke:#231f20;stroke-width:0.75;stroke-linecap:round;stroke-linejoin:round;stroke-miterlimit:4;stroke-dasharray:0, 2;stroke-dashoffset:0;stroke-opacity:1"
       id="path952" />
    <path
       d="m 540.002,647.47 c -6.181,0 -14.955,-0.555 -23.297,1.112 -8.342,1.669 -18.077,2.226 -29.477,3.338 -11.401,1.113 -16.407,5.84 -16.407,15.017 0,9.176 17.798,10.845 27.53,11.123 9.733,0.278 30.589,0.834 41.651,0.834 11.059,0 31.916,-0.556 41.649,-0.834 9.732,-0.278 27.531,-1.947 27.531,-11.123 0,-9.177 -5.006,-13.904 -16.409,-15.017 -11.4,-1.112 -21.133,-1.669 -29.477,-3.338 -8.342,-1.667 -17.114,-1.112 -23.294,-1.112 z"
       style="fill:none;stroke:#231f20;stroke-width:0.75;stroke-linecap:round;stroke-linejoin:round;stroke-miterlimit:4;stroke-dasharray:0, 2;stroke-dashoffset:0;stroke-opacity:1"
       id="path954" />
    <path
       d="m 540.002,603.532 c -3.679,0 -11.339,-0.832 -23.297,-1.667 -11.957,-0.835 -20.857,1.112 -30.034,3.058 -9.175,1.948 -18.075,6.398 -27.808,6.117 -9.733,-0.277 -16.406,0.281 -18.354,4.452 -1.946,4.17 6.118,10.01 11.68,13.626 5.561,3.615 9.177,3.893 15.852,2.78 6.672,-1.112 20.021,-3.338 32.535,-4.17 12.513,-0.836 31.979,-2.503 39.426,-2.503 7.444,0 26.91,1.667 39.423,2.503 12.515,0.832 25.863,3.058 32.537,4.17 6.673,1.113 10.288,0.835 15.851,-2.78 5.561,-3.616 13.625,-9.456 11.68,-13.626 -1.949,-4.171 -8.621,-4.729 -18.355,-4.452 -9.732,0.281 -18.631,-4.169 -27.808,-6.117 -9.176,-1.946 -18.075,-3.893 -30.034,-3.058 -11.956,0.835 -19.617,1.667 -23.294,1.667 z"
       style="fill:none;stroke:#231f20;stroke-width:0.75;stroke-linecap:round;stroke-linejoin:round;stroke-miterlimit:4;stroke-dasharray:0, 2;stroke-dashoffset:0;stroke-opacity:1"
       id="path956" />
    <path
       d="m 418.011,602.039 c 2.199,-9.628 7.204,-9.628 14.99,-11.018 7.787,-1.393 19.466,-2.503 28.921,-2.783 9.455,-0.278 26.418,-4.726 40.044,-7.786 13.626,-3.058 30.312,-1.945 38.036,-1.945 7.722,0 24.407,-1.113 38.034,1.945 13.627,3.06 30.588,7.508 40.045,7.786 9.453,0.28 21.133,1.39 28.921,2.783 7.785,1.39 12.79,1.39 14.988,11.018"
       style="fill:none;stroke:#231f20;stroke-width:0.75;stroke-linecap:round;stroke-linejoin:round;stroke-miterlimit:4;stroke-dasharray:0, 2;stroke-dashoffset:0;stroke-opacity:1"
       id="path958" />
  </g>
</svg>
