<?xml version="1.0" encoding="UTF-8" standalone="no"?>
<!-- Created with Inkscape (http://www.inkscape.org/) -->

<svg
   version="1.1"
   id="svg2"
   width="1440"
   height="1344"
   viewBox="0 0 1440 1344"
   xmlns="http://www.w3.org/2000/svg"
   xmlns:svg="http://www.w3.org/2000/svg">
  <defs
     id="defs6" />
  <g
     id="g8">
    <path
       d="m 787.234,596.312 10.795,12.188 c -5.92,-6.617 -15.67,-3.831 -15.67,-3.831 7.312,-3.83 4.875,-8.357 4.875,-8.357 z M 540.002,367.883 c -2.208,0 -4,-1.218 -4.568,-1.692 -1.627,-1.35 -5.879,-5.273 -23.986,-14.674 -18.108,-9.401 -42.483,-2.437 -50.84,2.089 -8.357,4.527 -21.241,6.965 -27.16,9.75 -5.92,2.786 -16.019,6.616 -27.161,12.536 -11.143,5.92 -22.287,10.099 -43.179,23.33 -20.893,13.233 -26.464,15.67 -36.563,27.51 -10.098,11.839 -12.536,31.687 -13.232,39.696 -0.696,8.009 -2.089,21.589 3.134,38.304 5.223,16.714 10.098,28.205 16.018,39 5.919,10.795 25.768,21.241 34.473,25.071 8.706,3.83 13.581,2.438 16.366,2.438 2.786,0 14.974,4.178 14.974,4.178 4.875,6.617 31.687,10.447 31.687,10.447 -11.839,2.786 -12.536,13.928 -12.536,18.107 0,4.179 -0.347,9.054 -0.347,9.054 -7.662,-4.179 -26.117,-19.5 -38.304,-22.983 -12.188,-3.482 -24.375,-9.402 -24.375,-9.402 -9.75,-19.5 -60.131,-19.505 -67.554,-14.276 -15.321,10.795 -24.375,12.884 -30.295,14.276 -5.92,1.394 -17.411,6.965 -23.33,16.715 -5.92,9.75 -13.232,28.205 -14.625,32.384 -1.393,4.178 -3.135,18.107 2.438,23.33 5.571,5.223 17.758,0.348 17.758,0.348 -7.312,6.268 -9.402,12.884 -9.402,12.884 -14.276,-10.446 -28.205,-10.097 -29.25,14.625 -1.044,24.724 5.571,53.974 14.277,75.563 8.706,21.59 20.893,40.393 40.045,58.848 19.152,18.455 35.518,26.117 47.357,30.643 11.84,4.527 26.465,10.795 31.687,11.84 5.224,1.045 27.858,4.875 33.429,5.571 5.572,0.696 17.062,-6.964 17.062,-6.964 -4.874,5.223 1.394,9.402 3.832,11.839 2.437,2.438 12.187,2.786 17.41,3.134 5.223,0.348 19.848,2.09 32.036,1.045 12.187,-1.045 17.411,-13.929 17.411,-13.929 1.044,11.143 14.276,17.759 20.893,19.5 6.616,1.741 20.196,7.313 27.16,7.661 6.965,0.348 32.384,5.571 37.26,5.571 4.874,0 30.293,-5.223 37.258,-5.571 6.964,-0.348 20.545,-5.92 27.161,-7.661 6.616,-1.741 19.848,-8.357 20.893,-19.5 0,0 5.223,12.884 17.41,13.929 12.189,1.045 26.814,-0.697 32.036,-1.045 5.224,-0.348 14.974,-0.696 17.411,-3.134 2.438,-2.437 8.705,-6.616 3.831,-11.839 0,0 11.491,7.66 17.062,6.964 5.571,-0.696 28.205,-4.526 33.429,-5.571 5.223,-1.045 19.848,-7.313 31.687,-11.84 11.84,-4.526 28.205,-12.188 47.358,-30.643 19.151,-18.455 31.338,-37.258 40.044,-58.848 8.706,-21.589 15.322,-50.839 14.277,-75.563 -1.045,-24.722 -14.973,-25.071 -29.25,-14.625 0,0 -2.089,-6.616 -9.401,-12.884 0,0 12.187,4.875 17.758,-0.348 5.572,-5.223 3.83,-19.152 2.438,-23.33 -1.393,-4.179 -8.706,-22.634 -14.625,-32.384 -5.92,-9.75 -17.411,-15.321 -23.331,-16.715 -5.919,-1.392 -14.973,-3.481 -30.294,-14.276 -7.423,-5.231 -57.804,-5.224 -67.554,14.276 0,0 -12.187,5.92 -24.375,9.402 -12.187,3.483 -30.643,18.804 -38.304,22.983 0,0 -0.348,-4.875 -0.348,-9.054 0,-4.179 -0.697,-15.321 -12.535,-18.107 0,0 26.812,-3.83 31.687,-10.447 0,0 12.188,-4.178 14.973,-4.178 2.786,0 7.661,1.392 16.366,-2.438 8.705,-3.83 28.554,-14.276 34.474,-25.071 5.919,-10.795 10.794,-22.286 16.017,-39 5.224,-16.715 3.83,-30.295 3.134,-38.304 -0.696,-8.009 -3.134,-27.857 -13.232,-39.696 -10.098,-11.84 -15.669,-14.277 -36.563,-27.51 -20.892,-13.231 -32.035,-17.41 -43.179,-23.33 -11.142,-5.92 -21.24,-9.75 -27.16,-12.536 -5.92,-2.785 -18.803,-5.223 -27.161,-9.75 -8.357,-4.526 -32.732,-11.49 -50.839,-2.089 -18.107,9.401 -22.359,13.324 -23.986,14.674 -0.569,0.474 -2.361,1.692 -4.567,1.692 z M 297.643,604.669 c 0,0 -9.75,-2.786 -15.669,3.831 l 10.794,-12.188 c 0,0 -2.437,4.527 4.875,8.357"
       style="fill:#ffffff;fill-opacity:1;fill-rule:nonzero;stroke:none;stroke-width:0.1"
       id="path668" />
    <path
       d="m 823.448,580.642 c -5.919,-1.392 -14.973,-3.481 -30.294,-14.276 -7.423,-5.231 -57.804,-5.224 -67.554,14.276 8.705,-4.178 21.241,-11.839 44.919,-9.053 23.679,2.785 21.59,5.919 24.376,19.5 0,0 5.919,8.357 16.018,17.411 10.097,9.053 17.409,19.499 22.633,24.027 5.225,4.528 11.143,9.054 14.974,7.312 3.83,-1.741 6.268,-8.008 -0.697,-18.803 -6.964,-10.795 -16.018,-30.992 -24.375,-40.394"
       style="fill:#d3d2d2;fill-opacity:1;fill-rule:nonzero;stroke:none;stroke-width:0.1"
       id="path670" />
    <path
       d="m 673.715,375.892 c -1.74,1.741 0.698,4.875 5.92,8.009 5.224,3.134 22.983,15.321 27.161,18.107 4.179,2.786 17.27,10.468 24.827,6.453"
       style="fill:none;stroke:#231f20;stroke-width:0.5;stroke-linecap:butt;stroke-linejoin:miter;stroke-miterlimit:4;stroke-dasharray:none;stroke-opacity:1"
       id="path672" />
    <path
       d="m 718.054,430.448 c 0,0 -5.107,-5.341 -4.178,-7.661"
       style="fill:none;stroke:#231f20;stroke-width:0.5;stroke-linecap:butt;stroke-linejoin:miter;stroke-miterlimit:4;stroke-dasharray:none;stroke-opacity:1"
       id="path674" />
    <path
       d="m 681.725,575.419 c 3.366,-4.063 10.097,-12.883 18.223,-17.758 8.126,-4.875 29.766,-19.427 39,-29.713 8.126,-9.054 10.795,-23.216 11.723,-28.091 0.929,-4.875 2.438,-16.946 1.742,-25.534 -0.697,-8.591 -4.411,-27.395 -12.769,-40.162 -8.357,-12.767 -12.534,-19.962 -22.517,-17.642"
       style="fill:none;stroke:#231f20;stroke-width:0.5;stroke-linecap:butt;stroke-linejoin:miter;stroke-miterlimit:4;stroke-dasharray:none;stroke-opacity:1"
       id="path676" />
    <path
       d="m 699.948,425.573 c 3.21,2.978 10.678,3.248 13.928,-2.786 l 3.251,-6.268 c 2.089,-3.947 1.084,-8.129 -3.423,-10.566 -4.508,-2.435 -9.809,-0.577 -12.828,4.298 -3.018,4.875 -4.179,12.304 -0.928,15.322 z"
       style="fill:none;stroke:#231f20;stroke-width:0.5;stroke-linecap:butt;stroke-linejoin:miter;stroke-miterlimit:4;stroke-dasharray:none;stroke-opacity:1"
       id="path678" />
    <path
       d="m 699.948,557.661 c -1.732,1.112 -6.734,0.001 -8.358,-2.554 -1.624,-2.555 -1.624,-4.875 2.555,-9.748 4.179,-4.875 11.374,-13.233 16.481,-18.342 5.108,-5.105 16.018,-15.087 18.804,-19.266 2.786,-4.178 5.107,-10.446 6.035,-23.215 0.929,-12.768 -0.696,-26 -2.552,-33.429 -1.858,-7.427 -6.965,-15.088 -14.859,-20.659"
       style="fill:none;stroke:#231f20;stroke-width:0.5;stroke-linecap:butt;stroke-linejoin:miter;stroke-miterlimit:4;stroke-dasharray:none;stroke-opacity:1"
       id="path680" />
    <path
       d="m 540.002,358.25 c 1.971,0 1.741,1.624 3.947,1.044 1.122,-0.296 2.584,-1.218 4.64,-2.437 2.721,-1.61 11.246,-7.397 14.394,-9.284 4.063,-2.438 8.357,-2.786 8.59,-1.627 0.233,1.161 -3.251,2.206 -5.804,3.947 -1.888,1.287 -16.967,10.882 -18.921,12.305 -1.728,1.258 -4.758,3.713 -6.846,3.713 -2.09,0 -2.904,-2.424 -2.904,-4.048 0,-1.624 0.814,-3.613 2.904,-3.613"
       style="fill:#ffffff;fill-opacity:1;fill-rule:nonzero;stroke:none;stroke-width:0.1"
       id="path682" />
    <path
       d="m 540.002,358.25 c 1.971,0 1.741,1.624 3.947,1.044 1.122,-0.296 2.584,-1.218 4.64,-2.437 2.721,-1.61 11.246,-7.397 14.394,-9.284 4.063,-2.438 8.357,-2.786 8.59,-1.627 0.233,1.161 -3.251,2.206 -5.804,3.947 -1.888,1.287 -16.967,10.882 -18.921,12.305 -1.728,1.258 -4.758,3.713 -6.846,3.713 -2.09,0 -2.904,-2.424 -2.904,-4.048 0,-1.624 0.814,-3.613 2.904,-3.613 z"
       style="fill:none;stroke:#231f20;stroke-width:0.5;stroke-linecap:butt;stroke-linejoin:miter;stroke-miterlimit:4;stroke-dasharray:none;stroke-opacity:1"
       id="path684" />
    <path
       d="m 567.331,373.708 c 4.706,-1.064 17.241,-6.404 23.973,-9.421 -3.249,-2.555 -17.641,1.855 -21.589,3.017 -3.947,1.158 -9.749,0.465 -14.161,0.465 -4.41,0 -6.268,1.159 -6.268,2.785 0,1.625 2.208,1.866 3.063,1.511"
       style="fill:none;stroke:#231f20;stroke-width:0.5;stroke-linecap:butt;stroke-linejoin:miter;stroke-miterlimit:4;stroke-dasharray:none;stroke-opacity:1"
       id="path686" />
    <path
       d="m 605.233,360.108 c 2.322,-1.627 5.781,-5.283 8.347,-9.026"
       style="fill:none;stroke:#231f20;stroke-width:0.5;stroke-linecap:butt;stroke-linejoin:miter;stroke-miterlimit:4;stroke-dasharray:none;stroke-opacity:1"
       id="path688" />
    <path
       d="m 578.538,570.66 c 4.642,1.858 11.142,5.107 18.571,6.035 7.428,0.93 16.482,3.251 28.089,2.323 0,0 3.384,2.716 5.901,3.345 4.207,1.054 10.555,2.595 18.939,3.503"
       style="fill:none;stroke:#231f20;stroke-width:0.75;stroke-linecap:round;stroke-linejoin:round;stroke-miterlimit:4;stroke-dasharray:none;stroke-opacity:1"
       id="path690" />
    <path
       d="m 599.651,534.305 c 3.493,1.304 15.203,1.434 10.16,-8.498"
       style="fill:#ffffff;fill-opacity:1;fill-rule:nonzero;stroke:none;stroke-width:0.1"
       id="path692" />
    <path
       d="m 612.018,544.379 c 1.805,-5.754 5.752,-9.467 9.002,-8.77 3.249,0.696 8.356,5.571 6.035,11.839"
       style="fill:#ffffff;fill-opacity:1;fill-rule:nonzero;stroke:none;stroke-width:0.1"
       id="path694" />
    <path
       d="m 540.002,623.821 c 10.097,0 24.374,-1.044 34.472,-0.348 10.099,0.696 40.045,6.268 44.92,5.92"
       style="fill:none;stroke:#231f20;stroke-width:0.5;stroke-linecap:butt;stroke-linejoin:miter;stroke-miterlimit:4;stroke-dasharray:none;stroke-opacity:1"
       id="path696" />
    <path
       d="m 625.314,858.518 c 0.348,-4.875 1.741,-27.161 3.482,-31.339"
       style="fill:none;stroke:#231f20;stroke-width:0.5;stroke-linecap:butt;stroke-linejoin:miter;stroke-miterlimit:4;stroke-dasharray:none;stroke-opacity:1"
       id="path698" />
    <path
       d="m 696.002,856.429 c -5.92,-5.572 -22.287,-24.723 -49.447,-38.304"
       style="fill:none;stroke:#231f20;stroke-width:0.5;stroke-linecap:butt;stroke-linejoin:miter;stroke-miterlimit:4;stroke-dasharray:none;stroke-opacity:1"
       id="path700" />
    <path
       d="m 687.296,718.884 c 8.009,-4.875 20.893,-15.322 27.161,-18.803 6.268,-3.483 21.589,-5.572 41.089,-2.09 19.5,3.482 48.402,1.393 68.25,-11.491 19.849,-12.884 23.679,-16.714 26.813,-20.197"
       style="fill:none;stroke:#231f20;stroke-width:0.5;stroke-linecap:butt;stroke-linejoin:miter;stroke-miterlimit:4;stroke-dasharray:none;stroke-opacity:1"
       id="path702" />
    <path
       d="m 764.252,584.124 c 5.223,0 11.839,-2.088 22.982,12.188"
       style="fill:none;stroke:#231f20;stroke-width:0.5;stroke-linecap:butt;stroke-linejoin:miter;stroke-miterlimit:4;stroke-dasharray:none;stroke-opacity:1"
       id="path704" />
    <path
       d="m 652.823,678.143 c 6.616,-9.054 24.027,-30.643 45.965,-42.831 21.937,-12.188 34.932,-17.762 49.557,-20.199 14.625,-2.438 28.443,-8.355 34.014,-10.444"
       style="fill:none;stroke:#231f20;stroke-width:0.5;stroke-linecap:butt;stroke-linejoin:miter;stroke-miterlimit:4;stroke-dasharray:none;stroke-opacity:1"
       id="path706" />
    <path
       d="m 256.554,580.642 c 5.92,-1.392 14.974,-3.481 30.295,-14.276 7.423,-5.229 57.804,-5.224 67.554,14.276 -8.706,-4.178 -21.241,-11.839 -44.92,-9.053 -23.679,2.785 -21.59,5.919 -24.375,19.5 0,0 -5.92,8.357 -16.018,17.411 -10.098,9.053 -17.41,19.499 -22.634,24.027 -5.225,4.528 -11.143,9.054 -14.973,7.312 -3.831,-1.741 -6.269,-8.008 0.696,-18.803 6.964,-10.795 16.018,-30.992 24.375,-40.394"
       style="fill:#d3d2d2;fill-opacity:1;fill-rule:nonzero;stroke:none;stroke-width:0.1"
       id="path708" />
    <path
       d="m 592.234,681.277 c -6.616,2.785 -35.519,4.875 -52.232,4.875 -16.715,0 -45.617,-2.09 -52.233,-4.875 -6.616,-2.786 -13.232,-8.358 -6.616,-16.366 6.118,-7.407 22.286,-19.5 58.849,-19.5 36.562,0 52.729,12.093 58.847,19.5 6.616,8.008 0,13.58 -6.615,16.366 z m -52.232,-28.903 c -37.957,0 -49.448,6.269 -49.099,15.67 0.348,9.403 31.687,8.009 49.099,8.009 17.41,0 48.75,1.394 49.097,-8.009 0.349,-9.401 -11.142,-15.67 -49.097,-15.67"
       style="fill:#d3d2d2;fill-opacity:1;fill-rule:nonzero;stroke:none;stroke-width:0.1"
       id="path710" />
    <path
       d="m 615.564,646.803 c -6.616,0.697 -14.625,-1.045 -27.161,-3.83 -12.535,-2.786 -35.17,-3.83 -48.401,-3.83 -13.233,0 -35.867,1.044 -48.403,3.83 -12.535,2.785 -20.545,4.527 -27.16,3.83 -6.616,-0.696 -22.286,-12.187 -21.59,-18.107 0.696,-5.919 5.224,-14.625 30.295,-20.196 25.071,-5.572 48.75,-6.964 66.858,-6.964 18.106,0 41.785,1.392 66.857,6.964 25.071,5.571 29.598,14.277 30.294,20.196 0.696,5.92 -14.973,17.411 -21.589,18.107 z m 16.714,-18.107 c -0.348,-5.223 -5.223,-9.402 -16.366,-11.49 -6.02,-1.13 -20.875,-4.145 -36.563,-5.224 -13.349,-0.919 -27.021,0 -39.347,0 -12.327,0 -26,-0.919 -39.349,0 -15.688,1.079 -30.542,4.094 -36.563,5.224 -11.142,2.088 -16.017,6.267 -16.366,11.49 -0.348,5.223 9.054,8.359 18.108,10.447 9.053,2.088 11.491,0.696 28.205,-2.088 16.714,-2.785 35.866,-3.484 45.965,-3.484 10.097,0 29.25,0.699 45.963,3.484 16.715,2.784 19.153,4.176 28.206,2.088 9.053,-2.088 18.455,-5.224 18.107,-10.447"
       style="fill:#d3d2d2;fill-opacity:1;fill-rule:nonzero;stroke:none;stroke-width:0.1"
       id="path712" />
    <path
       d="m 622.528,609.196 c -9.054,-3.83 -23.33,-6.616 -37.955,-9.402 -14.625,-2.786 -29.947,-3.133 -44.571,-3.133 -14.626,0 -29.947,0.347 -44.573,3.133 -14.625,2.786 -28.901,5.572 -37.955,9.402 -9.054,3.831 -32.732,14.625 -40.392,3.831 0,0 0.347,-4.875 0.347,-9.054 12.884,-11.84 42.483,-8.706 50.84,-9.054 8.357,-0.348 22.634,-5.571 35.17,-9.75 12.535,-4.178 25.071,-2.437 36.563,-2.437 11.491,0 24.026,-1.741 36.562,2.437 12.535,4.179 26.812,9.402 35.17,9.75 8.356,0.348 37.955,-2.786 50.839,9.054 0,4.179 0.348,9.054 0.348,9.054 -7.661,10.794 -31.339,0 -40.393,-3.831"
       style="fill:#d3d2d2;fill-opacity:1;fill-rule:nonzero;stroke:none;stroke-width:0.1"
       id="path714" />
    <path
       d="m 865.234,705.303 c -4.875,29.25 -17.759,52.929 -33.429,77.653 -15.67,24.722 -22.285,28.553 -30.991,32.035 -8.705,3.482 -8.705,-7.66 -6.964,-12.535 1.741,-4.875 0.348,-12.884 -11.84,-14.974 -12.187,-2.089 -28.901,2.437 -39.347,8.706 -10.447,6.268 -15.322,12.187 -11.84,20.893 3.482,8.705 15.67,11.491 15.67,17.411 0,5.919 -13.58,9.052 -20.893,9.052 -7.312,0 -14.974,-3.481 -20.545,-6.615 -5.571,-3.135 -4.875,-7.661 -4.527,-10.795 0.348,-3.134 1.045,-9.053 -0.348,-11.491 -1.392,-2.437 -4.875,-7.661 -10.446,-8.357 -5.571,-0.697 -13.232,-1.045 -19.849,-3.83 -4.77,-2.009 -12.187,-10.795 -14.972,-15.322 -2.787,-4.527 -6.617,-7.312 -15.323,-4.875 -8.705,2.438 -11.838,9.054 -13.928,11.491 -2.089,2.438 -4.178,5.919 -4.178,5.919 0,0 -6.269,-2.785 -9.402,-3.83 -3.134,-1.045 -11.143,-1.392 -18.108,-0.348 -6.964,1.045 -41.785,0 -53.972,0 -12.188,0 -47.01,1.045 -53.974,0 -6.964,-1.044 -14.974,-0.697 -18.108,0.348 -3.133,1.045 -9.401,3.83 -9.401,3.83 0,0 -2.09,-3.481 -4.179,-5.919 -2.089,-2.437 -5.223,-9.053 -13.928,-11.491 -8.705,-2.437 -12.536,0.348 -15.322,4.875 -2.786,4.527 -10.203,13.313 -14.973,15.322 -6.617,2.785 -14.277,3.133 -19.848,3.83 -5.571,0.696 -9.054,5.92 -10.446,8.357 -1.394,2.438 -0.697,8.357 -0.349,11.491 0.349,3.134 1.045,7.66 -4.526,10.795 -5.572,3.134 -13.233,6.615 -20.545,6.615 -7.313,0 -20.894,-3.133 -20.894,-9.052 0,-5.92 12.188,-8.706 15.67,-17.411 3.483,-8.706 -1.392,-14.625 -11.839,-20.893 -10.446,-6.269 -27.161,-10.795 -39.348,-8.706 -12.188,2.09 -13.58,10.099 -11.839,14.974 1.74,4.875 1.74,16.017 -6.965,12.535 -8.705,-3.482 -15.321,-7.313 -30.991,-32.035 -15.669,-24.724 -28.554,-48.403 -33.429,-77.653 -4.875,-29.25 2.09,-28.553 3.482,-28.901 1.393,-0.349 5.92,-2.09 11.84,20.196 5.919,22.286 13.232,37.608 22.982,43.526 9.75,5.92 25.42,9.403 30.643,10.099 5.223,0.696 11.143,3.483 15.669,6.965 4.528,3.481 18.456,6.268 18.804,2.089 0.349,-4.179 -5.919,-11.491 -11.839,-19.153 -5.92,-7.66 -8.357,-13.927 -7.661,-16.017 0.696,-2.089 8.706,-4.526 21.241,-5.571 12.536,-1.045 20.893,-3.134 33.778,-0.697 12.883,2.438 37.258,14.625 47.356,18.108 10.099,3.481 15.322,1.044 17.76,-3.483 2.437,-4.527 -7.661,-20.892 -11.84,-27.508 -4.179,-6.617 -14.625,-22.287 -46.313,-34.474 -31.687,-12.188 -52.928,-8.358 -56.758,-6.616 -3.83,1.741 -8.009,6.965 -21.938,-0.348 -13.929,-7.312 -24.724,-12.536 -27.509,-13.929 -2.786,-1.393 -3.831,-4.527 -1.741,-6.616 1.741,-1.392 6.964,-6.267 9.054,-8.357 2.089,-2.089 9.053,-8.009 10.098,-10.795 3.133,-1.74 9.053,-4.875 28.206,-2.785 19.151,2.088 32.035,3.83 48.75,11.838 16.713,8.009 33.08,16.367 47.356,32.037 14.277,15.67 23.679,25.767 34.474,31.339 10.795,5.572 20.196,5.572 23.33,2.089 3.134,-3.482 -3.134,-14.973 -19.152,-32.036 -16.017,-17.062 -34.125,-35.17 -49.446,-45.267 -15.321,-10.099 -33.429,-17.063 -43.527,-19.153 -10.098,-2.089 -18.108,-2.785 -27.16,-1.392 -9.054,1.392 -12.537,-0.349 -9.75,-3.83 2.785,-3.483 4.177,-7.661 17.062,-7.661 12.884,0 54.321,-1.393 78,20.196 -16.131,-6.597 -35.519,-10.446 -60.59,-14.625 -25.071,-4.179 -28.901,1.393 -28.901,1.393 0,0 3.481,-0.348 8.705,-0.348 3.847,0 24.026,1.392 45.267,6.616 21.242,5.224 36.563,21.241 49.448,33.429 12.884,12.187 30.991,31.687 42.481,43.178 11.491,11.492 13.581,20.197 13.929,26.813 0.349,6.616 -1.393,14.276 -6.964,14.972 -5.571,0.698 -8.705,-5.571 -13.232,-9.401 -4.527,-3.83 -18.108,-6.964 -26.813,-12.536 -8.705,-5.571 -21.589,-19.848 -35.517,-32.035 -13.929,-12.188 -28.554,-20.196 -45.617,-27.161 -17.062,-6.964 -31.687,-9.402 -45.268,-9.75 -13.58,-0.348 -17.41,2.09 -20.544,4.178 -3.135,2.089 -0.697,4.875 2.089,6.268 2.786,1.394 11.142,6.965 31.687,9.75 20.545,2.786 37.608,7.661 56.063,15.67 18.456,8.009 33.777,20.893 44.571,34.125 10.795,13.232 15.67,27.857 17.76,33.777 2.089,5.919 0.696,9.053 -3.483,11.839 -4.178,2.786 -7.312,6.965 -21.241,8.358 -13.929,1.392 -22.286,10.446 -28.205,17.062 -5.92,6.616 -13.581,12.188 -26.116,12.535 -12.536,0.349 -35.17,-9.053 -46.313,-13.231 -11.143,-4.179 -26.812,-6.269 -36.215,-6.965 -9.401,-0.696 -16.366,-6.616 -20.196,-10.098 -3.83,-3.482 -5.92,-1.393 -3.83,2.438 2.089,3.83 24.407,37.999 25.826,40.003 1.509,2.131 2.638,-0.085 2.205,-1.003 -1.393,-2.96 -4.005,-11.491 -2.96,-16.366 1.045,-4.875 8.358,-4.528 15.67,-3.134 7.313,1.392 24.723,5.222 32.732,7.66 8.01,2.437 25.768,8.706 36.562,12.536 10.795,3.83 20.198,-4.179 25.42,-6.965 5.224,-2.785 26.813,-14.625 34.474,-18.106 7.66,-3.483 19.5,-3.134 25.42,-0.349 5.919,2.786 17.062,9.402 24.026,14.625 6.965,5.224 14.625,4.875 23.679,5.92 9.054,1.045 46.312,1.045 53.974,1.045 7.66,0 44.919,0 53.972,-1.045 9.054,-1.045 16.715,-0.696 23.679,-5.92 6.965,-5.223 18.107,-11.839 24.027,-14.625 5.92,-2.785 17.759,-3.134 25.42,0.349 7.66,3.481 29.25,15.321 34.473,18.106 5.223,2.786 14.625,10.795 25.42,6.965 10.795,-3.83 28.553,-10.099 36.562,-12.536 8.009,-2.438 25.42,-6.268 32.733,-7.66 7.312,-1.394 14.625,-1.741 15.67,3.134 1.044,4.875 -1.568,13.406 -2.96,16.366 -0.433,0.918 0.696,3.134 2.205,1.003 1.418,-2.004 23.736,-36.173 25.826,-40.003 2.089,-3.831 0,-5.92 -3.831,-2.438 -3.83,3.482 -10.794,9.402 -20.196,10.098 -9.402,0.696 -25.072,2.786 -36.214,6.965 -11.144,4.178 -33.778,13.58 -46.313,13.231 -12.536,-0.347 -20.197,-5.919 -26.116,-12.535 -5.92,-6.616 -14.277,-15.67 -28.206,-17.062 -13.928,-1.393 -17.063,-5.572 -21.24,-8.358 -4.179,-2.786 -5.573,-5.92 -3.483,-11.839 2.089,-5.92 6.964,-20.545 17.759,-33.777 10.795,-13.232 26.116,-26.116 44.571,-34.125 18.456,-8.009 35.519,-12.884 56.063,-15.67 20.545,-2.785 28.902,-8.356 31.687,-9.75 2.786,-1.393 5.224,-4.179 2.09,-6.268 -3.134,-2.088 -6.965,-4.526 -20.545,-4.178 -13.58,0.348 -28.205,2.786 -45.267,9.75 -17.063,6.965 -31.688,14.973 -45.617,27.161 -13.928,12.187 -26.812,26.464 -35.518,32.035 -8.705,5.572 -22.285,8.706 -26.813,12.536 -4.526,3.83 -7.66,10.099 -13.231,9.401 -5.572,-0.696 -7.313,-8.356 -6.965,-14.972 0.349,-6.616 2.438,-15.321 13.929,-26.813 11.491,-11.491 29.598,-30.991 42.482,-43.178 12.884,-12.188 28.205,-28.205 49.447,-33.429 21.241,-5.224 41.42,-6.616 45.267,-6.616 5.224,0 8.706,0.348 8.706,0.348 0,0 -3.831,-5.572 -28.902,-1.393 -25.071,4.179 -44.458,8.028 -60.589,14.625 23.679,-21.589 65.116,-20.196 78,-20.196 12.884,0 14.276,4.178 17.062,7.661 2.786,3.481 -0.696,5.222 -9.75,3.83 -9.053,-1.393 -17.062,-0.697 -27.161,1.392 -10.097,2.09 -28.205,9.054 -43.526,19.153 -15.321,10.097 -33.429,28.205 -49.447,45.267 -16.018,17.063 -22.286,28.554 -19.152,32.036 3.134,3.483 12.536,3.483 23.33,-2.089 10.795,-5.572 20.198,-15.669 34.474,-31.339 14.276,-15.67 30.643,-24.028 47.357,-32.037 16.714,-8.008 29.598,-9.75 48.75,-11.838 19.152,-2.09 25.072,1.045 28.205,2.785 1.045,2.786 8.009,8.706 10.099,10.795 2.089,2.09 7.313,6.965 9.054,8.357 2.089,2.089 1.044,5.223 -1.741,6.616 -2.786,1.393 -13.58,6.617 -27.509,13.929 -13.929,7.313 -18.108,2.089 -21.938,0.348 -3.831,-1.742 -25.072,-5.572 -56.759,6.616 -31.688,12.187 -42.134,27.857 -46.313,34.474 -4.179,6.616 -14.276,22.981 -11.839,27.508 2.438,4.527 7.66,6.964 17.759,3.483 10.099,-3.483 34.474,-15.67 47.357,-18.108 12.884,-2.437 21.242,-0.348 33.777,0.697 12.536,1.045 20.545,3.482 21.241,5.571 0.696,2.09 -1.741,8.357 -7.66,16.017 -5.92,7.662 -12.188,14.974 -11.84,19.153 0.349,4.179 14.277,1.392 18.804,-2.089 4.527,-3.482 10.446,-6.269 15.67,-6.965 5.222,-0.696 20.892,-4.179 30.642,-10.099 9.75,-5.918 17.063,-21.24 22.983,-43.526 5.919,-22.286 10.446,-20.545 11.839,-20.196 1.393,0.348 8.357,-0.349 3.482,28.901"
       style="fill:#d3d2d2;fill-opacity:1;fill-rule:nonzero;stroke:none;stroke-width:0.1"
       id="path716" />
    <path
       d="m 837.029,755.447 c -2.09,3.83 -24.408,37.999 -25.826,40.003 -1.509,2.131 -2.638,-0.085 -2.205,-1.003 1.392,-2.96 4.004,-11.491 2.96,-16.366 -1.045,-4.875 -8.358,-4.528 -15.67,-3.134 -7.313,1.392 -24.724,5.222 -32.733,7.66 -8.009,2.437 -25.767,8.706 -36.562,12.536 -10.795,3.83 -20.197,-4.179 -25.42,-6.965 -5.223,-2.785 -26.813,-14.625 -34.473,-18.106 -7.661,-3.483 -19.5,-3.134 -25.42,-0.349 -5.92,2.786 -17.062,9.402 -24.027,14.625 -6.964,5.224 -14.625,4.875 -23.679,5.92 -9.053,1.045 -46.312,1.045 -53.972,1.045 -7.662,0 -44.92,0 -53.974,-1.045 -9.054,-1.045 -16.714,-0.696 -23.679,-5.92 -6.964,-5.223 -18.107,-11.839 -24.026,-14.625 -5.92,-2.785 -17.76,-3.134 -25.42,0.349 -7.661,3.481 -29.25,15.321 -34.474,18.106 -5.222,2.786 -14.625,10.795 -25.42,6.965 -10.794,-3.83 -28.552,-10.099 -36.562,-12.536 -8.009,-2.438 -25.419,-6.268 -32.732,-7.66 -7.312,-1.394 -14.625,-1.741 -15.67,3.134 -1.045,4.875 1.567,13.406 2.96,16.366 0.433,0.918 -0.696,3.134 -2.205,1.003 -1.419,-2.004 -23.737,-36.173 -25.826,-40.003 -2.09,-3.831 0,-5.92 3.83,-2.438 3.83,3.482 10.795,9.402 20.196,10.098 9.403,0.696 25.072,2.786 36.215,6.965 11.143,4.178 33.777,13.58 46.313,13.231 12.535,-0.347 20.196,-5.919 26.116,-12.535 5.919,-6.616 14.276,-15.67 28.205,-17.062 13.929,-1.393 17.063,-5.572 21.241,-8.358 4.179,-2.786 5.572,-5.92 3.483,-11.839 -2.09,-5.92 -6.965,-20.545 -17.76,-33.777 -10.794,-13.232 -26.115,-26.116 -44.571,-34.125 -18.455,-8.009 -35.518,-12.884 -56.063,-15.67 -20.545,-2.785 -28.901,-8.356 -31.687,-9.75 -2.786,-1.393 -5.224,-4.179 -2.089,-6.268 3.134,-2.088 6.964,-4.526 20.544,-4.178 13.581,0.348 28.206,2.786 45.268,9.75 17.063,6.965 31.688,14.973 45.617,27.161 13.928,12.187 26.812,26.464 35.517,32.035 8.705,5.572 22.286,8.706 26.813,12.536 4.527,3.83 7.661,10.099 13.232,9.401 5.571,-0.696 7.313,-8.356 6.964,-14.972 -0.348,-6.616 -2.438,-15.321 -13.929,-26.813 -11.49,-11.491 -29.597,-30.991 -42.481,-43.178 -12.885,-12.188 -28.206,-28.205 -49.448,-33.429 -21.241,-5.224 -41.42,-6.616 -45.267,-6.616 -5.224,0 -8.705,0.348 -8.705,0.348 0,0 3.83,-5.572 28.901,-1.393 25.071,4.179 44.459,8.028 60.59,14.625 l 17.063,3.831 c 7.66,10.794 31.338,0 40.392,-3.831 9.054,-3.83 23.33,-6.616 37.955,-9.402 14.626,-2.786 29.947,-3.133 44.573,-3.133 14.624,0 29.946,0.347 44.571,3.133 14.625,2.786 28.901,5.572 37.955,9.402 9.054,3.831 32.732,14.625 40.393,3.831 l 17.063,-3.831 c 16.131,-6.597 35.518,-10.446 60.589,-14.625 25.071,-4.179 28.902,1.393 28.902,1.393 0,0 -3.482,-0.348 -8.706,-0.348 -3.847,0 -24.026,1.392 -45.267,6.616 -21.242,5.224 -36.563,21.241 -49.447,33.429 -12.884,12.187 -30.991,31.687 -42.482,43.178 -11.491,11.492 -13.58,20.197 -13.929,26.813 -0.348,6.616 1.393,14.276 6.965,14.972 5.571,0.698 8.705,-5.571 13.231,-9.401 4.528,-3.83 18.108,-6.964 26.813,-12.536 8.706,-5.571 21.59,-19.848 35.518,-32.035 13.929,-12.188 28.554,-20.196 45.617,-27.161 17.062,-6.964 31.687,-9.402 45.267,-9.75 13.58,-0.348 17.411,2.09 20.545,4.178 3.134,2.089 0.696,4.875 -2.09,6.268 -2.785,1.394 -11.142,6.965 -31.687,9.75 -20.544,2.786 -37.607,7.661 -56.063,15.67 -18.455,8.009 -33.776,20.893 -44.571,34.125 -10.795,13.232 -15.67,27.857 -17.759,33.777 -2.09,5.919 -0.696,9.053 3.483,11.839 4.177,2.786 7.312,6.965 21.24,8.358 13.929,1.392 22.286,10.446 28.206,17.062 5.919,6.616 13.58,12.188 26.116,12.535 12.535,0.349 35.169,-9.053 46.313,-13.231 11.142,-4.179 26.812,-6.269 36.214,-6.965 9.402,-0.696 16.366,-6.616 20.196,-10.098 3.831,-3.482 5.92,-1.393 3.831,2.438 z m -349.26,-74.17 c 6.616,2.785 35.518,4.875 52.233,4.875 16.713,0 45.616,-2.09 52.232,-4.875 6.615,-2.786 13.231,-8.358 6.615,-16.366 -6.118,-7.407 -22.285,-19.5 -58.847,-19.5 -36.563,0 -52.731,12.093 -58.849,19.5 -6.616,8.008 0,13.58 6.616,16.366 z m 127.795,-34.474 c 6.616,-0.696 22.285,-12.187 21.589,-18.107 -0.696,-5.919 -5.223,-14.625 -30.294,-20.196 -25.072,-5.572 -48.751,-6.964 -66.857,-6.964 -18.108,0 -41.787,1.392 -66.858,6.964 -25.071,5.571 -29.599,14.277 -30.295,20.196 -0.696,5.92 14.974,17.411 21.59,18.107 6.615,0.697 14.625,-1.045 27.16,-3.83 12.536,-2.786 35.17,-3.83 48.403,-3.83 13.231,0 35.866,1.044 48.401,3.83 12.536,2.785 20.545,4.527 27.161,3.83"
       style="fill:#b2b1b1;fill-opacity:1;fill-rule:nonzero;stroke:none;stroke-width:0.1"
       id="path718" />
    <path
       d="m 406.287,375.892 c 1.741,1.741 -0.697,4.875 -5.92,8.009 -5.223,3.134 -22.982,15.321 -27.16,18.107 -4.179,2.786 -17.27,10.468 -24.828,6.453"
       style="fill:none;stroke:#231f20;stroke-width:0.5;stroke-linecap:butt;stroke-linejoin:miter;stroke-miterlimit:4;stroke-dasharray:none;stroke-opacity:1"
       id="path720" />
    <path
       d="m 361.948,430.448 c 0,0 5.107,-5.341 4.178,-7.661"
       style="fill:none;stroke:#231f20;stroke-width:0.5;stroke-linecap:butt;stroke-linejoin:miter;stroke-miterlimit:4;stroke-dasharray:none;stroke-opacity:1"
       id="path722" />
    <path
       d="m 398.278,575.419 c -3.366,-4.061 -10.097,-12.883 -18.223,-17.758 -8.126,-4.875 -29.767,-19.427 -39,-29.713 -8.126,-9.054 -10.795,-23.216 -11.723,-28.091 -0.93,-4.875 -2.438,-16.946 -1.742,-25.534 0.697,-8.591 4.411,-27.395 12.768,-40.162 8.357,-12.767 12.535,-19.962 22.518,-17.642"
       style="fill:none;stroke:#231f20;stroke-width:0.5;stroke-linecap:butt;stroke-linejoin:miter;stroke-miterlimit:4;stroke-dasharray:none;stroke-opacity:1"
       id="path724" />
    <path
       d="m 380.055,425.573 c -3.21,2.978 -10.679,3.248 -13.929,-2.786 l -3.25,-6.268 c -2.09,-3.947 -1.084,-8.129 3.423,-10.566 4.508,-2.435 9.809,-0.577 12.827,4.298 3.018,4.875 4.18,12.304 0.929,15.322 z"
       style="fill:none;stroke:#231f20;stroke-width:0.5;stroke-linecap:butt;stroke-linejoin:miter;stroke-miterlimit:4;stroke-dasharray:none;stroke-opacity:1"
       id="path726" />
    <path
       d="m 380.055,557.661 c 1.732,1.112 6.733,0.002 8.357,-2.552 1.625,-2.555 1.625,-4.875 -2.554,-9.75 -4.179,-4.875 -11.374,-13.233 -16.482,-18.342 -5.108,-5.105 -16.018,-15.087 -18.804,-19.266 -2.785,-4.178 -5.106,-10.446 -6.035,-23.215 -0.929,-12.768 0.696,-26 2.553,-33.429 1.857,-7.427 6.964,-15.088 14.858,-20.659"
       style="fill:none;stroke:#231f20;stroke-width:0.5;stroke-linecap:butt;stroke-linejoin:miter;stroke-miterlimit:4;stroke-dasharray:none;stroke-opacity:1"
       id="path728" />
    <path
       d="m 536.079,426.002 c -6.361,5.54 -7.917,12.569 -7.917,14.658 0,2.09 0.696,8.357 0.696,16.366 0,8.009 -1.044,24.724 -1.74,29.947 -0.698,5.223 0,31.339 0,39 0,7.66 8.008,9.053 12.884,9.053 4.874,0 12.883,-1.393 12.883,-9.053 0,-7.661 0.697,-33.777 0,-39 -0.696,-5.223 -1.741,-21.938 -1.741,-29.947 0,-8.009 0.696,-14.276 0.696,-16.366 0,-2.089 -1.555,-9.118 -7.916,-14.658"
       style="fill:none;stroke:#231f20;stroke-width:0.5;stroke-linecap:butt;stroke-linejoin:miter;stroke-miterlimit:4;stroke-dasharray:none;stroke-opacity:1"
       id="path730" />
    <path
       d="m 512.671,373.708 c -4.706,-1.064 -17.24,-6.404 -23.973,-9.421 3.25,-2.555 17.642,1.855 21.59,3.017 3.947,1.158 9.749,0.465 14.16,0.465 4.411,0 6.267,1.159 6.267,2.785 0,1.625 -2.207,1.866 -3.062,1.511"
       style="fill:none;stroke:#231f20;stroke-width:0.5;stroke-linecap:butt;stroke-linejoin:miter;stroke-miterlimit:4;stroke-dasharray:none;stroke-opacity:1"
       id="path732" />
    <path
       d="m 474.769,360.108 c -2.321,-1.627 -5.78,-5.283 -8.346,-9.026"
       style="fill:none;stroke:#231f20;stroke-width:0.5;stroke-linecap:butt;stroke-linejoin:miter;stroke-miterlimit:4;stroke-dasharray:none;stroke-opacity:1"
       id="path734" />
    <path
       d="m 565.304,568.571 c -3.714,-0.233 -19.266,-0.464 -25.302,-0.464 -6.037,0 -21.59,0.231 -25.304,0.465 -3.714,0.231 -9.287,1.159 -13.233,2.09 0,0 9.75,-4.645 14.393,-14.625 4.643,-9.982 13.232,-20.617 24.144,-20.617 10.911,0 19.5,10.635 24.143,20.615 4.643,9.981 14.393,14.625 14.393,14.625 -3.947,-0.929 -9.519,-1.857 -13.234,-2.089"
       style="fill:#706d6e;fill-opacity:1;fill-rule:nonzero;stroke:none;stroke-width:0.1"
       id="path736" />
    <path
       d="m 565.304,568.571 c -3.714,-0.233 -19.266,-0.464 -25.302,-0.464 -6.037,0 -21.59,0.231 -25.304,0.465 -3.714,0.231 -9.287,1.159 -13.233,2.09 0,0 9.75,-4.645 14.393,-14.625 4.643,-9.982 13.232,-20.617 24.144,-20.617 10.911,0 19.5,10.635 24.143,20.615 4.643,9.981 14.393,14.625 14.393,14.625 -3.947,-0.929 -9.519,-1.857 -13.234,-2.089 z"
       style="fill:none;stroke:#231f20;stroke-width:0.75;stroke-linecap:round;stroke-linejoin:round;stroke-miterlimit:4;stroke-dasharray:none;stroke-opacity:1"
       id="path738" />
    <path
       d="m 501.465,570.662 c -4.642,1.857 -11.143,5.105 -18.571,6.033 -7.429,0.93 -16.483,3.251 -28.09,2.323 0,0 -3.383,2.716 -5.9,3.345 -4.207,1.054 -10.556,2.595 -18.939,3.503"
       style="fill:none;stroke:#231f20;stroke-width:0.75;stroke-linecap:round;stroke-linejoin:round;stroke-miterlimit:4;stroke-dasharray:none;stroke-opacity:1"
       id="path740" />
    <path
       d="m 480.352,534.305 c -3.493,1.304 -15.203,1.434 -10.161,-8.498"
       style="fill:#ffffff;fill-opacity:1;fill-rule:nonzero;stroke:none;stroke-width:0.1"
       id="path742" />
    <path
       d="m 467.985,544.379 c -1.806,-5.754 -5.753,-9.467 -9.002,-8.77 -3.25,0.696 -8.357,5.571 -6.035,11.839"
       style="fill:#ffffff;fill-opacity:1;fill-rule:nonzero;stroke:none;stroke-width:0.1"
       id="path744" />
    <path
       d="m 540.002,623.821 c -10.099,0 -24.376,-1.044 -34.474,-0.348 -10.099,0.696 -40.045,6.268 -44.92,5.92"
       style="fill:none;stroke:#231f20;stroke-width:0.5;stroke-linecap:butt;stroke-linejoin:miter;stroke-miterlimit:4;stroke-dasharray:none;stroke-opacity:1"
       id="path746" />
    <path
       d="m 454.689,858.518 c -0.349,-4.875 -1.741,-27.161 -3.482,-31.339"
       style="fill:none;stroke:#231f20;stroke-width:0.5;stroke-linecap:butt;stroke-linejoin:miter;stroke-miterlimit:4;stroke-dasharray:none;stroke-opacity:1"
       id="path748" />
    <path
       d="m 384,856.429 c 5.92,-5.572 22.287,-24.723 49.448,-38.304"
       style="fill:none;stroke:#231f20;stroke-width:0.5;stroke-linecap:butt;stroke-linejoin:miter;stroke-miterlimit:4;stroke-dasharray:none;stroke-opacity:1"
       id="path750" />
    <path
       d="m 392.707,718.884 c -8.009,-4.875 -20.894,-15.322 -27.162,-18.803 -6.267,-3.483 -21.588,-5.572 -41.088,-2.09 -19.5,3.482 -48.403,1.393 -68.251,-11.491 -19.848,-12.884 -23.678,-16.714 -26.813,-20.197"
       style="fill:none;stroke:#231f20;stroke-width:0.5;stroke-linecap:butt;stroke-linejoin:miter;stroke-miterlimit:4;stroke-dasharray:none;stroke-opacity:1"
       id="path752" />
    <path
       d="m 315.75,584.124 c -5.222,0 -11.838,-2.088 -22.982,12.188"
       style="fill:none;stroke:#231f20;stroke-width:0.5;stroke-linecap:butt;stroke-linejoin:miter;stroke-miterlimit:4;stroke-dasharray:none;stroke-opacity:1"
       id="path754" />
    <path
       d="m 427.179,678.143 c -6.616,-9.054 -24.026,-30.643 -45.964,-42.831 -21.937,-12.188 -34.933,-17.762 -49.558,-20.199 -14.625,-2.438 -28.442,-8.355 -34.014,-10.444"
       style="fill:none;stroke:#231f20;stroke-width:0.5;stroke-linecap:butt;stroke-linejoin:miter;stroke-miterlimit:4;stroke-dasharray:none;stroke-opacity:1"
       id="path756" />
    <path
       d="m 841.208,653.419 c -3.135,-1.741 -12.188,-9.053 -13.929,-10.446 -1.741,-1.392 -6.965,-6.267 -9.054,-8.357 -2.09,-2.089 -9.054,-8.009 -10.099,-10.795 -1.044,-2.785 -3.752,-8.157 -10.097,-15.321"
       style="fill:none;stroke:#231f20;stroke-width:0.5;stroke-linecap:butt;stroke-linejoin:miter;stroke-miterlimit:4;stroke-dasharray:none;stroke-opacity:1"
       id="path758" />
    <path
       d="m 238.795,653.419 c 3.134,-1.741 12.188,-9.053 13.929,-10.446 1.741,-1.392 6.964,-6.267 9.054,-8.357 2.089,-2.089 9.053,-8.009 10.098,-10.795 1.044,-2.785 3.752,-8.157 10.098,-15.321"
       style="fill:none;stroke:#231f20;stroke-width:0.5;stroke-linecap:butt;stroke-linejoin:miter;stroke-miterlimit:4;stroke-dasharray:none;stroke-opacity:1"
       id="path760" />
    <path
       d="m 787.234,596.312 10.795,12.188 c -5.92,-6.617 -15.67,-3.831 -15.67,-3.831 7.312,-3.83 4.875,-8.357 4.875,-8.357 z M 540.002,367.883 c -2.208,0 -4,-1.218 -4.568,-1.692 -1.627,-1.35 -5.879,-5.273 -23.986,-14.674 -18.108,-9.401 -42.483,-2.437 -50.84,2.089 -8.357,4.527 -21.241,6.965 -27.16,9.75 -5.92,2.786 -16.019,6.616 -27.161,12.536 -11.143,5.92 -22.287,10.099 -43.179,23.33 -20.893,13.233 -26.464,15.67 -36.563,27.51 -10.098,11.839 -12.536,31.687 -13.232,39.696 -0.696,8.009 -2.089,21.589 3.134,38.304 5.223,16.714 10.098,28.205 16.018,39 5.919,10.795 25.768,21.241 34.473,25.071 8.706,3.83 13.581,2.438 16.366,2.438 2.786,0 14.974,4.178 14.974,4.178 4.875,6.617 31.687,10.447 31.687,10.447 -11.839,2.786 -12.536,13.928 -12.536,18.107 0,4.179 -0.347,9.054 -0.347,9.054 -7.662,-4.179 -26.117,-19.5 -38.304,-22.983 -12.188,-3.482 -24.375,-9.402 -24.375,-9.402 -9.75,-19.5 -60.131,-19.505 -67.554,-14.276 -15.321,10.795 -24.375,12.884 -30.295,14.276 -5.92,1.394 -17.411,6.965 -23.33,16.715 -5.92,9.75 -13.232,28.205 -14.625,32.384 -1.393,4.178 -3.135,18.107 2.438,23.33 5.571,5.223 17.758,0.348 17.758,0.348 -7.312,6.268 -9.402,12.884 -9.402,12.884 -14.276,-10.446 -28.205,-10.097 -29.25,14.625 -1.044,24.724 5.571,53.974 14.277,75.563 8.706,21.59 20.893,40.393 40.045,58.848 19.152,18.455 35.518,26.117 47.357,30.643 11.84,4.527 26.465,10.795 31.687,11.84 5.224,1.045 27.858,4.875 33.429,5.571 5.572,0.696 17.062,-6.964 17.062,-6.964 -4.874,5.223 1.394,9.402 3.832,11.839 2.437,2.438 12.187,2.786 17.41,3.134 5.223,0.348 19.848,2.09 32.036,1.045 12.187,-1.045 17.411,-13.929 17.411,-13.929 1.044,11.143 14.276,17.759 20.893,19.5 6.616,1.741 20.196,7.313 27.16,7.661 6.965,0.348 32.384,5.571 37.26,5.571 4.874,0 30.293,-5.223 37.258,-5.571 6.964,-0.348 20.545,-5.92 27.161,-7.661 6.616,-1.741 19.848,-8.357 20.893,-19.5 0,0 5.223,12.884 17.41,13.929 12.189,1.045 26.814,-0.697 32.036,-1.045 5.224,-0.348 14.974,-0.696 17.411,-3.134 2.438,-2.437 8.705,-6.616 3.831,-11.839 0,0 11.491,7.66 17.062,6.964 5.571,-0.696 28.205,-4.526 33.429,-5.571 5.223,-1.045 19.848,-7.313 31.687,-11.84 11.84,-4.526 28.205,-12.188 47.358,-30.643 19.151,-18.455 31.338,-37.258 40.044,-58.848 8.706,-21.589 15.322,-50.839 14.277,-75.563 -1.045,-24.722 -14.973,-25.071 -29.25,-14.625 0,0 -2.089,-6.616 -9.401,-12.884 0,0 12.187,4.875 17.758,-0.348 5.572,-5.223 3.83,-19.152 2.438,-23.33 -1.393,-4.179 -8.706,-22.634 -14.625,-32.384 -5.92,-9.75 -17.411,-15.321 -23.331,-16.715 -5.919,-1.392 -14.973,-3.481 -30.294,-14.276 -7.423,-5.231 -57.804,-5.224 -67.554,14.276 0,0 -12.187,5.92 -24.375,9.402 -12.187,3.483 -30.643,18.804 -38.304,22.983 0,0 -0.348,-4.875 -0.348,-9.054 0,-4.179 -0.697,-15.321 -12.535,-18.107 0,0 26.812,-3.83 31.687,-10.447 0,0 12.188,-4.178 14.973,-4.178 2.786,0 7.661,1.392 16.366,-2.438 8.705,-3.83 28.554,-14.276 34.474,-25.071 5.919,-10.795 10.794,-22.286 16.017,-39 5.224,-16.715 3.83,-30.295 3.134,-38.304 -0.696,-8.009 -3.134,-27.857 -13.232,-39.696 -10.098,-11.84 -15.669,-14.277 -36.563,-27.51 -20.892,-13.231 -32.035,-17.41 -43.179,-23.33 -11.142,-5.92 -21.24,-9.75 -27.16,-12.536 -5.92,-2.785 -18.803,-5.223 -27.161,-9.75 -8.357,-4.526 -32.732,-11.49 -50.839,-2.089 -18.107,9.401 -22.359,13.324 -23.986,14.674 -0.569,0.474 -2.361,1.692 -4.567,1.692 z M 297.643,604.669 c 0,0 -9.75,-2.786 -15.669,3.831 l 10.794,-12.188 c 0,0 -2.437,4.527 4.875,8.357 z"
       style="fill:none;stroke:#231f20;stroke-width:0.75;stroke-linecap:round;stroke-linejoin:round;stroke-miterlimit:4;stroke-dasharray:none;stroke-opacity:1"
       id="path762" />
    <path
       d="m 605.233,360.108 c 0,0 -9.158,2.079 -13.929,4.179"
       style="fill:none;stroke:#231f20;stroke-width:0.5;stroke-linecap:butt;stroke-linejoin:miter;stroke-miterlimit:4;stroke-dasharray:none;stroke-opacity:1"
       id="path764" />
    <path
       d="m 474.769,360.108 c 0,0 9.158,2.079 13.929,4.179"
       style="fill:none;stroke:#231f20;stroke-width:0.5;stroke-linecap:butt;stroke-linejoin:miter;stroke-miterlimit:4;stroke-dasharray:none;stroke-opacity:1"
       id="path766" />
    <path
       d="m 540.002,744.652 c 9.401,0 21.937,-4.875 21.937,-13.58 0,-8.706 -10.446,-13.233 -21.937,-13.233 -11.492,0 -21.938,4.527 -21.938,13.233 0,8.705 12.535,13.58 21.938,13.58"
       style="fill:#d3d2d2;fill-opacity:1;fill-rule:nonzero;stroke:none;stroke-width:0.1"
       id="path768" />
    <path
       d="m 366.938,568.803 c 8.706,3.83 13.581,2.438 16.366,2.438 2.786,0 14.974,4.178 14.974,4.178 4.875,6.617 31.687,10.447 31.687,10.447 -11.839,2.786 -12.536,13.928 -12.536,18.107 0,4.179 -0.347,9.054 -0.347,9.054 -7.662,-4.179 -26.117,-19.5 -38.304,-22.983 -12.188,-3.482 -24.375,-9.402 -24.375,-9.402 -5.549,-11.097 -24.256,-15.88 -40.716,-16.979 0.575,-7.396 1.533,-14.831 3.895,-20.26 2.566,-5.905 4.661,-10.389 8.686,-12.136 1.97,4.401 4.013,8.481 6.197,12.465 5.919,10.795 25.768,21.241 34.473,25.071"
       style="fill:#706d6e;fill-opacity:1;fill-rule:nonzero;stroke:none;stroke-width:0.1"
       id="path770" />
    <path
       d="m 366.938,568.803 c 8.706,3.83 13.581,2.438 16.366,2.438 2.786,0 14.974,4.178 14.974,4.178 4.875,6.617 31.687,10.447 31.687,10.447 -11.839,2.786 -12.536,13.928 -12.536,18.107 0,4.179 -0.347,9.054 -0.347,9.054 -7.662,-4.179 -26.117,-19.5 -38.304,-22.983 -12.188,-3.482 -24.375,-9.402 -24.375,-9.402 -5.549,-11.097 -24.256,-15.88 -40.716,-16.979 0.575,-7.396 1.533,-14.831 3.895,-20.26 2.566,-5.905 4.661,-10.389 8.686,-12.136 1.97,4.401 4.013,8.481 6.197,12.465 5.919,10.795 25.768,21.241 34.473,25.071 z"
       style="fill:none;stroke:#231f20;stroke-width:0.5;stroke-linecap:butt;stroke-linejoin:miter;stroke-miterlimit:4;stroke-dasharray:none;stroke-opacity:1"
       id="path772" />
    <path
       d="m 725.6,580.642 c 0,0 -12.187,5.92 -24.375,9.402 -12.187,3.483 -30.643,18.804 -38.304,22.983 0,0 -0.348,-4.875 -0.348,-9.054 0,-4.179 -0.697,-15.321 -12.535,-18.107 0,0 26.812,-3.83 31.687,-10.447 0,0 12.188,-4.178 14.973,-4.178 2.786,0 7.661,1.392 16.366,-2.438 8.705,-3.83 28.554,-14.276 34.474,-25.071 2.184,-3.984 4.227,-8.064 6.197,-12.465 4.025,1.747 6.119,6.231 8.685,12.136 2.362,5.429 3.32,12.863 3.895,20.26 -16.46,1.097 -35.167,5.882 -40.715,16.979"
       style="fill:#706d6e;fill-opacity:1;fill-rule:nonzero;stroke:none;stroke-width:0.1"
       id="path774" />
    <path
       d="m 725.6,580.642 c 0,0 -12.187,5.92 -24.375,9.402 -12.187,3.483 -30.643,18.804 -38.304,22.983 0,0 -0.348,-4.875 -0.348,-9.054 0,-4.179 -0.697,-15.321 -12.535,-18.107 0,0 26.812,-3.83 31.687,-10.447 0,0 12.188,-4.178 14.973,-4.178 2.786,0 7.661,1.392 16.366,-2.438 8.705,-3.83 28.554,-14.276 34.474,-25.071 2.184,-3.984 4.227,-8.064 6.197,-12.465 4.025,1.747 6.119,6.231 8.685,12.136 2.362,5.429 3.32,12.863 3.895,20.26 -16.46,1.097 -35.167,5.882 -40.715,16.979 z"
       style="fill:none;stroke:#231f20;stroke-width:0.5;stroke-linecap:butt;stroke-linejoin:miter;stroke-miterlimit:4;stroke-dasharray:none;stroke-opacity:1"
       id="path776" />
    <path
       d="m 639.922,533.286 c 0.187,4.447 -3.898,10.212 -6.183,13.632 0,0 12.073,-1.954 18.406,-3.943 -4.534,-2.641 -10.576,-7.747 -12.23,-9.792"
       style="fill:none;stroke:#231f20;stroke-width:0.5;stroke-linecap:butt;stroke-linejoin:miter;stroke-miterlimit:4;stroke-dasharray:none;stroke-opacity:1"
       id="path778" />
    <path
       d="m 440.08,533.286 c -0.187,4.447 3.898,10.212 6.183,13.632 0,0 -12.073,-1.954 -18.406,-3.943 4.535,-2.641 10.577,-7.747 12.231,-9.792"
       style="fill:none;stroke:#231f20;stroke-width:0.5;stroke-linecap:butt;stroke-linejoin:miter;stroke-miterlimit:4;stroke-dasharray:none;stroke-opacity:1"
       id="path780" />
    <path
       d="m 589.448,411.41 c 15.321,-2.089 40.741,0 60.937,3.831"
       style="fill:none;stroke:#231f20;stroke-width:0.5;stroke-linecap:round;stroke-linejoin:round;stroke-miterlimit:4;stroke-dasharray:2.8, 1.8;stroke-dashoffset:0;stroke-opacity:1"
       id="path782" />
    <path
       d="m 605.542,385.141 c 10.794,0.697 40.748,4.846 52.239,7.98"
       style="fill:none;stroke:#231f20;stroke-width:0.5;stroke-linecap:round;stroke-linejoin:round;stroke-miterlimit:4;stroke-dasharray:2.8, 1.8;stroke-dashoffset:0;stroke-opacity:1"
       id="path784" />
    <path
       d="m 550.795,435.785 c 9.054,-1.044 28.923,-6.79 34.474,-15.669 5.551,-8.877 6.095,-18.157 1.917,-26.863"
       style="fill:none;stroke:#231f20;stroke-width:0.5;stroke-linecap:round;stroke-linejoin:round;stroke-miterlimit:4;stroke-dasharray:2.8, 1.8;stroke-dashoffset:0;stroke-opacity:1"
       id="path786" />
    <path
       d="m 546.269,404.794 c 9.054,-0.348 35.503,-8.101 48.387,-15.066"
       style="fill:none;stroke:#231f20;stroke-width:0.5;stroke-linecap:round;stroke-linejoin:round;stroke-miterlimit:4;stroke-dasharray:2.8, 1.8;stroke-dashoffset:0;stroke-opacity:1"
       id="path788" />
    <path
       d="m 588.752,526.963 c 6.616,-6.616 19.5,-26.062 25.071,-35.463 5.571,-9.402 15.321,-21.589 22.634,-34.822 7.312,-13.232 10.795,-25.768 13.928,-41.437 0.415,-2.076 8.018,-26.473 10.803,-29.259"
       style="fill:none;stroke:#231f20;stroke-width:0.5;stroke-linecap:round;stroke-linejoin:round;stroke-miterlimit:4;stroke-dasharray:2.8, 1.8;stroke-dashoffset:0;stroke-opacity:1"
       id="path790" />
    <path
       d="m 651.516,411.086 c -1.131,4.155 -0.434,11.236 3.397,16.807 3.83,5.571 8.124,7.892 10.91,7.892 2.785,0 6.569,-4.369 9.053,-7.427 3.104,-3.822 8.357,-12.188 9.75,-15.321 1.393,-3.134 1.079,-11.63 -3.448,-15.112"
       style="fill:none;stroke:#231f20;stroke-width:0.5;stroke-linecap:round;stroke-linejoin:round;stroke-miterlimit:4;stroke-dasharray:2.8, 1.8;stroke-dashoffset:0;stroke-opacity:1"
       id="path792" />
    <path
       d="m 654.932,401.298 c 5.612,0.362 18.446,7.75 24.534,20.597"
       style="fill:none;stroke:#231f20;stroke-width:0.5;stroke-linecap:round;stroke-linejoin:round;stroke-miterlimit:4;stroke-dasharray:2.8, 1.8;stroke-dashoffset:0;stroke-opacity:1"
       id="path794" />
    <path
       d="m 601.52,381.241 c 4.875,-2.323 27.159,-10.687 31.57,-10.224 4.412,0.465 16.484,6.964 21.125,10.215 4.643,3.251 11.841,7.892 17.644,11.374 5.803,3.482 13.232,7.199 15.321,9.288 2.09,2.089 8.337,5.561 5.107,12.302 -5.339,11.142 -11.142,19.5 -16.249,29.715 -5.108,10.215 -10.681,18.341 -15.788,24.84 -5.105,6.499 -10.554,13.333 -10.554,13.333"
       style="fill:none;stroke:#231f20;stroke-width:0.5;stroke-linecap:round;stroke-linejoin:round;stroke-miterlimit:4;stroke-dasharray:2.8, 1.8;stroke-dashoffset:0;stroke-opacity:1"
       id="path796" />
    <path
       d="m 662.34,452.268 c 3.948,0 9.75,-3.017 9.75,-7.195 0,-4.179 -2.784,-8.823 -7.891,-8.823 -5.109,0 -8.59,3.713 -8.59,7.196 0,3.482 2.32,8.822 6.731,8.822 z"
       style="fill:none;stroke:#231f20;stroke-width:0.5;stroke-linecap:round;stroke-linejoin:round;stroke-miterlimit:4;stroke-dasharray:2.8, 1.8;stroke-dashoffset:0;stroke-opacity:1"
       id="path798" />
    <path
       d="m 623.341,468.055 c 0,-2.182 -1.766,-3.947 -3.947,-3.947 -2.181,0 -3.947,1.765 -3.947,3.947 0,2.179 1.766,3.947 3.947,3.947 2.181,0 3.947,-1.768 3.947,-3.947 z"
       style="fill:none;stroke:#231f20;stroke-width:0.5;stroke-linecap:round;stroke-linejoin:round;stroke-miterlimit:4;stroke-dasharray:2.8, 1.8;stroke-dashoffset:0;stroke-opacity:1"
       id="path800" />
    <path
       d="m 613.126,524.958 c 3.25,-3.713 27.394,-32.994 30.876,-36.475"
       style="fill:none;stroke:#231f20;stroke-width:0.5;stroke-linecap:round;stroke-linejoin:round;stroke-miterlimit:4;stroke-dasharray:2.8, 1.8;stroke-dashoffset:0;stroke-opacity:1"
       id="path802" />
    <path
       d="m 646.323,488.713 c 2.321,0 5.572,-4.409 2.553,-7.891 -3.017,-3.483 -6.732,-6.036 -9.982,-2.555 -3.249,3.483 0.695,6.733 1.856,7.661 1.163,0.931 2.787,2.785 5.573,2.785 z"
       style="fill:none;stroke:#231f20;stroke-width:0.5;stroke-linecap:round;stroke-linejoin:round;stroke-miterlimit:4;stroke-dasharray:2.8, 1.8;stroke-dashoffset:0;stroke-opacity:1"
       id="path804" />
    <path
       d="m 582.947,525.859 c 1.858,0.462 11.376,2.32 17.643,1.624 6.269,-0.696 15.089,-3.018 22.75,-5.341 7.66,-2.32 16.02,-5.105 22.055,-7.195 6.035,-2.089 31.172,-12.511 35.583,-14.369"
       style="fill:none;stroke:#231f20;stroke-width:0.5;stroke-linecap:round;stroke-linejoin:round;stroke-miterlimit:4;stroke-dasharray:2.8, 1.8;stroke-dashoffset:0;stroke-opacity:1"
       id="path806" />
    <path
       d="m 706.938,530.864 c -0.93,-5.803 -1.707,-18.178 -20.743,-36.054"
       style="fill:none;stroke:#231f20;stroke-width:0.5;stroke-linecap:round;stroke-linejoin:round;stroke-miterlimit:4;stroke-dasharray:2.8, 1.8;stroke-dashoffset:0;stroke-opacity:1"
       id="path808" />
    <path
       d="m 557.181,382.394 c 4.178,0 10.445,-2.331 10.445,-7.438 0,-3.939 -7.197,-3.705 -10.214,-3.705 -3.017,0 -9.054,0.928 -9.054,5.572 0,4.64 6.022,5.571 8.823,5.571 z"
       style="fill:none;stroke:#231f20;stroke-width:0.5;stroke-linecap:round;stroke-linejoin:round;stroke-miterlimit:4;stroke-dasharray:2.8, 1.8;stroke-dashoffset:0;stroke-opacity:1"
       id="path810" />
    <path
       d="m 580.808,368.808 c -3.145,1.281 -8.772,5.925 -8.308,7.084 0.466,1.162 6.038,-0.928 9.984,-3.713 3.945,-2.786 8.356,-5.341 9.053,-4.179 0.697,1.162 -3.482,4.41 -6.964,5.572 -3.483,1.161 -9.749,5.108 -8.821,6.732 0.927,1.625 6.498,-0.233 9.517,-2.323 3.019,-2.089 18.803,-16.48 19.964,-17.873"
       style="fill:none;stroke:#231f20;stroke-width:0.5;stroke-linecap:round;stroke-linejoin:round;stroke-miterlimit:4;stroke-dasharray:2.8, 1.8;stroke-dashoffset:0;stroke-opacity:1"
       id="path812" />
    <path
       d="m 585.269,377.981 c 3.019,-2.32 10.679,-7.195 16.947,-11.605 6.268,-4.41 9.054,-4.875 12.536,-4.875 3.482,0 9.981,3.249 12.071,4.178 2.089,0.928 1.625,3.249 -0.928,3.714 -2.554,0.463 -9.286,0 -14.625,0.231 -5.339,0.234 -7.913,5.376 -15.032,9.924 -7.125,4.554 -13.541,7.607 -18.455,9.576 -4.617,1.85 -8.531,4.179 -12.014,4.179 -2.555,0 -4.875,-0.697 -4.875,-3.714 0,-3.016 2.32,-6.267 3.714,-7.429 1.394,-1.159 2.524,-2.786 5.161,-2.786 2.321,0 3.313,2.786 8.06,1.524"
       style="fill:none;stroke:#231f20;stroke-width:0.5;stroke-linecap:round;stroke-linejoin:round;stroke-miterlimit:4;stroke-dasharray:2.8, 1.8;stroke-dashoffset:0;stroke-opacity:1"
       id="path814" />
    <path
       d="m 593.104,389.298 c -2.317,-4.055 15.088,-12.405 16.54,-8.531 1.045,2.786 -15.147,10.969 -16.54,8.531 z"
       style="fill:none;stroke:#231f20;stroke-width:0.5;stroke-linecap:round;stroke-linejoin:round;stroke-miterlimit:4;stroke-dasharray:2.8, 1.8;stroke-dashoffset:0;stroke-opacity:1"
       id="path816" />
    <path
       d="m 564.145,556.035 c 4.874,-0.928 27.638,-9.925 22.763,-23.392"
       style="fill:none;stroke:#231f20;stroke-width:0.5;stroke-linecap:round;stroke-linejoin:round;stroke-miterlimit:4;stroke-dasharray:2.8, 1.8;stroke-dashoffset:0;stroke-opacity:1"
       id="path818" />
    <path
       d="m 625.198,579.018 c 0,-5.572 0.928,-24.839 1.857,-31.57"
       style="fill:none;stroke:#231f20;stroke-width:0.5;stroke-linecap:round;stroke-linejoin:round;stroke-miterlimit:4;stroke-dasharray:2.8, 1.8;stroke-dashoffset:0;stroke-opacity:1"
       id="path820" />
    <path
       d="m 679.309,577.548 c -3.271,-2.71 -4.664,-8.281 -3.271,-11.067 1.392,-2.785 6.821,-6.409 14.785,-1.463"
       style="fill:none;stroke:#231f20;stroke-width:0.5;stroke-linecap:round;stroke-linejoin:round;stroke-miterlimit:4;stroke-dasharray:2.8, 1.8;stroke-dashoffset:0;stroke-opacity:1"
       id="path822" />
    <path
       d="m 685.498,562.8 c -4.354,-1.194 -10.622,-2.819 -8.533,-9.55 2.089,-6.733 9.972,-4.817 14.156,-3.455"
       style="fill:none;stroke:#231f20;stroke-width:0.5;stroke-linecap:round;stroke-linejoin:round;stroke-miterlimit:4;stroke-dasharray:2.8, 1.8;stroke-dashoffset:0;stroke-opacity:1"
       id="path824" />
    <path
       d="m 662.022,539.798 c 8.676,0.686 17,5.645 23.517,8.736"
       style="fill:none;stroke:#231f20;stroke-width:0.5;stroke-linecap:round;stroke-linejoin:round;stroke-miterlimit:4;stroke-dasharray:2.8, 1.8;stroke-dashoffset:0;stroke-opacity:1"
       id="path826" />
    <path
       d="m 597.109,576.695 c 2.321,-10.214 0.929,-24.608 -1.394,-30.408 -2.321,-5.803 -9.051,-13.464 -10.213,-15.787 -1.162,-2.321 -2.324,-5.803 -6.733,-6.268 -4.41,-0.463 -10.335,-1.025 -15.089,-0.463 -4.406,0.52 -8.126,0.696 -11.636,6.021"
       style="fill:none;stroke:#231f20;stroke-width:0.5;stroke-linecap:round;stroke-linejoin:round;stroke-miterlimit:4;stroke-dasharray:2.8, 1.8;stroke-dashoffset:0;stroke-opacity:1"
       id="path828" />
    <path
       d="m 552.892,524.463 c 1.038,-3.249 9.433,-14.952 15.663,-11.837 5.108,2.552 4.37,7.892 3.461,11.026"
       style="fill:none;stroke:#231f20;stroke-width:0.5;stroke-linecap:round;stroke-linejoin:round;stroke-miterlimit:4;stroke-dasharray:2.8, 1.8;stroke-dashoffset:0;stroke-opacity:1"
       id="path830" />
    <path
       d="m 652.145,542.975 c 4.41,-1.393 12.981,-3.19 15.303,-7.136 2.322,-3.947 3.482,-7.66 0.696,-9.98 -2.785,-2.323 -13.096,-8.654 -35.278,-6.712"
       style="fill:none;stroke:#231f20;stroke-width:0.5;stroke-linecap:round;stroke-linejoin:round;stroke-miterlimit:4;stroke-dasharray:2.8, 1.8;stroke-dashoffset:0;stroke-opacity:1"
       id="path832" />
    <path
       d="m 600.59,527.483 c -1.625,1.857 -3.155,6.766 2.786,11.607 6.268,5.107 13.697,8.124 23.679,8.358 1.857,0.044 4.179,-0.167 6.684,-0.53"
       style="fill:none;stroke:#231f20;stroke-width:0.5;stroke-linecap:round;stroke-linejoin:round;stroke-miterlimit:4;stroke-dasharray:2.8, 1.8;stroke-dashoffset:0;stroke-opacity:1"
       id="path834" />
    <path
       d="m 427.857,542.975 c -4.41,-1.393 -12.981,-3.19 -15.303,-7.136 -2.321,-3.947 -3.481,-7.66 -0.696,-9.98 2.786,-2.323 13.097,-8.654 35.278,-6.712"
       style="fill:none;stroke:#231f20;stroke-width:0.5;stroke-linecap:round;stroke-linejoin:round;stroke-miterlimit:4;stroke-dasharray:2.8, 1.8;stroke-dashoffset:0;stroke-opacity:1"
       id="path836" />
    <path
       d="m 479.412,527.483 c 1.626,1.857 3.156,6.766 -2.786,11.607 -6.268,5.107 -13.696,8.124 -23.678,8.358 -1.858,0.044 -4.179,-0.167 -6.685,-0.53"
       style="fill:none;stroke:#231f20;stroke-width:0.5;stroke-linecap:round;stroke-linejoin:round;stroke-miterlimit:4;stroke-dasharray:2.8, 1.8;stroke-dashoffset:0;stroke-opacity:1"
       id="path838" />
    <path
       d="m 668.144,525.859 c 3.25,1.392 7.928,1.936 12.031,3.987"
       style="fill:none;stroke:#231f20;stroke-width:0.5;stroke-linecap:round;stroke-linejoin:round;stroke-miterlimit:4;stroke-dasharray:2.8, 1.8;stroke-dashoffset:0;stroke-opacity:1"
       id="path840" />
    <path
       d="m 490.554,411.41 c -15.321,-2.089 -40.74,0 -60.937,3.831"
       style="fill:none;stroke:#231f20;stroke-width:0.5;stroke-linecap:round;stroke-linejoin:round;stroke-miterlimit:4;stroke-dasharray:2.8, 1.8;stroke-dashoffset:0;stroke-opacity:1"
       id="path842" />
    <path
       d="m 474.46,385.141 c -10.794,0.697 -40.748,4.846 -52.239,7.98"
       style="fill:none;stroke:#231f20;stroke-width:0.5;stroke-linecap:round;stroke-linejoin:round;stroke-miterlimit:4;stroke-dasharray:2.8, 1.8;stroke-dashoffset:0;stroke-opacity:1"
       id="path844" />
    <path
       d="m 529.207,435.785 c -9.054,-1.044 -28.922,-6.79 -34.474,-15.669 -5.551,-8.877 -6.095,-18.157 -1.916,-26.863"
       style="fill:none;stroke:#231f20;stroke-width:0.5;stroke-linecap:round;stroke-linejoin:round;stroke-miterlimit:4;stroke-dasharray:2.8, 1.8;stroke-dashoffset:0;stroke-opacity:1"
       id="path846" />
    <path
       d="m 533.733,404.794 c -9.053,-0.348 -35.503,-8.101 -48.387,-15.066"
       style="fill:none;stroke:#231f20;stroke-width:0.5;stroke-linecap:round;stroke-linejoin:round;stroke-miterlimit:4;stroke-dasharray:2.8, 1.8;stroke-dashoffset:0;stroke-opacity:1"
       id="path848" />
    <path
       d="m 491.251,526.963 c -6.616,-6.616 -19.5,-26.062 -25.072,-35.463 -5.571,-9.402 -15.321,-21.589 -22.634,-34.822 -7.312,-13.232 -10.795,-25.768 -13.928,-41.437 -0.414,-2.076 -8.017,-26.473 -10.803,-29.259"
       style="fill:none;stroke:#231f20;stroke-width:0.5;stroke-linecap:round;stroke-linejoin:round;stroke-miterlimit:4;stroke-dasharray:2.8, 1.8;stroke-dashoffset:0;stroke-opacity:1"
       id="path850" />
    <path
       d="m 428.487,411.086 c 1.13,4.155 0.433,11.236 -3.397,16.807 -3.83,5.571 -8.125,7.892 -10.91,7.892 -2.786,0 -6.57,-4.369 -9.054,-7.427 -3.104,-3.822 -8.357,-12.188 -9.75,-15.321 -1.392,-3.134 -1.079,-11.63 3.449,-15.112"
       style="fill:none;stroke:#231f20;stroke-width:0.5;stroke-linecap:round;stroke-linejoin:round;stroke-miterlimit:4;stroke-dasharray:2.8, 1.8;stroke-dashoffset:0;stroke-opacity:1"
       id="path852" />
    <path
       d="m 425.07,401.298 c -5.612,0.362 -18.446,7.75 -24.534,20.597"
       style="fill:none;stroke:#231f20;stroke-width:0.5;stroke-linecap:round;stroke-linejoin:round;stroke-miterlimit:4;stroke-dasharray:2.8, 1.8;stroke-dashoffset:0;stroke-opacity:1"
       id="path854" />
    <path
       d="m 478.483,381.241 c -4.875,-2.323 -27.159,-10.687 -31.57,-10.224 -4.412,0.465 -16.484,6.964 -21.126,10.215 -4.643,3.251 -11.841,7.892 -17.644,11.374 -5.803,3.482 -13.231,7.199 -15.321,9.288 -2.089,2.089 -8.337,5.561 -5.107,12.302 5.339,11.142 11.142,19.5 16.249,29.715 5.109,10.215 10.681,18.341 15.787,24.84 5.107,6.499 10.556,13.333 10.556,13.333"
       style="fill:none;stroke:#231f20;stroke-width:0.5;stroke-linecap:round;stroke-linejoin:round;stroke-miterlimit:4;stroke-dasharray:2.8, 1.8;stroke-dashoffset:0;stroke-opacity:1"
       id="path856" />
    <path
       d="m 417.662,452.268 c -3.948,0 -9.75,-3.017 -9.75,-7.195 0,-4.179 2.785,-8.823 7.892,-8.823 5.108,0 8.59,3.713 8.59,7.196 0,3.482 -2.32,8.822 -6.732,8.822 z"
       style="fill:none;stroke:#231f20;stroke-width:0.5;stroke-linecap:round;stroke-linejoin:round;stroke-miterlimit:4;stroke-dasharray:2.8, 1.8;stroke-dashoffset:0;stroke-opacity:1"
       id="path858" />
    <path
       d="m 456.661,468.055 c 0,-2.182 1.767,-3.947 3.947,-3.947 2.181,0 3.947,1.765 3.947,3.947 0,2.179 -1.766,3.947 -3.947,3.947 -2.18,0 -3.947,-1.768 -3.947,-3.947 z"
       style="fill:none;stroke:#231f20;stroke-width:0.5;stroke-linecap:round;stroke-linejoin:round;stroke-miterlimit:4;stroke-dasharray:2.8, 1.8;stroke-dashoffset:0;stroke-opacity:1"
       id="path860" />
    <path
       d="M 466.876,524.958 C 463.626,521.245 439.483,491.964 436,488.483"
       style="fill:none;stroke:#231f20;stroke-width:0.5;stroke-linecap:round;stroke-linejoin:round;stroke-miterlimit:4;stroke-dasharray:2.8, 1.8;stroke-dashoffset:0;stroke-opacity:1"
       id="path862" />
    <path
       d="m 433.68,488.713 c -2.322,0 -5.573,-4.409 -2.554,-7.891 3.018,-3.483 6.733,-6.036 9.982,-2.555 3.25,3.483 -0.695,6.733 -1.857,7.661 -1.162,0.931 -2.786,2.785 -5.571,2.785 z"
       style="fill:none;stroke:#231f20;stroke-width:0.5;stroke-linecap:round;stroke-linejoin:round;stroke-miterlimit:4;stroke-dasharray:2.8, 1.8;stroke-dashoffset:0;stroke-opacity:1"
       id="path864" />
    <path
       d="m 497.055,525.859 c -1.858,0.462 -11.376,2.32 -17.643,1.624 -6.268,-0.696 -15.089,-3.018 -22.749,-5.341 -7.662,-2.32 -16.02,-5.105 -22.055,-7.195 -6.035,-2.089 -31.172,-12.511 -35.583,-14.369"
       style="fill:none;stroke:#231f20;stroke-width:0.5;stroke-linecap:round;stroke-linejoin:round;stroke-miterlimit:4;stroke-dasharray:2.8, 1.8;stroke-dashoffset:0;stroke-opacity:1"
       id="path866" />
    <path
       d="m 373.065,530.864 c 0.929,-5.803 1.707,-18.178 20.743,-36.054"
       style="fill:none;stroke:#231f20;stroke-width:0.5;stroke-linecap:round;stroke-linejoin:round;stroke-miterlimit:4;stroke-dasharray:2.8, 1.8;stroke-dashoffset:0;stroke-opacity:1"
       id="path868" />
    <path
       d="m 536.75,368 c -1.392,2.552 -1.16,22.982 -1.16,25.303 0,2.323 2.09,3.716 4.412,3.716 2.32,0 4.409,-1.393 4.409,-3.716 0,-2.321 0.234,-22.751 -1.159,-25.303"
       style="fill:none;stroke:#231f20;stroke-width:0.5;stroke-linecap:round;stroke-linejoin:round;stroke-miterlimit:4;stroke-dasharray:2.8, 1.8;stroke-dashoffset:0;stroke-opacity:1"
       id="path870" />
    <path
       d="m 535.59,393.303 c -1.276,3.134 -1.857,14.973 -1.508,17.759 0.348,2.785 1.392,10.098 2.088,15.67 0.698,5.571 0.698,29.25 0.698,36.214 0,6.965 0.696,35.17 0.696,40.045 0,4.875 0,8.705 2.438,8.705 2.437,0 2.437,-3.83 2.437,-8.705 0,-4.875 0.696,-33.08 0.696,-40.045 0,-6.964 0,-30.643 0.697,-36.214 0.696,-5.572 1.741,-12.885 2.088,-15.67 0.349,-2.786 -0.232,-14.625 -1.509,-17.759"
       style="fill:none;stroke:#231f20;stroke-width:0.5;stroke-linecap:round;stroke-linejoin:round;stroke-miterlimit:4;stroke-dasharray:2.8, 1.8;stroke-dashoffset:0.4375;stroke-opacity:1"
       id="path872" />
    <path
       d="m 522.823,382.394 c -4.179,0 -10.447,-2.331 -10.447,-7.438 0,-3.939 7.197,-3.705 10.214,-3.705 3.018,0 9.054,0.928 9.054,5.572 0,4.64 -6.021,5.571 -8.821,5.571 z"
       style="fill:none;stroke:#231f20;stroke-width:0.5;stroke-linecap:round;stroke-linejoin:round;stroke-miterlimit:4;stroke-dasharray:2.8, 1.8;stroke-dashoffset:0;stroke-opacity:1"
       id="path874" />
    <path
       d="m 499.195,368.808 c 3.144,1.281 8.771,5.925 8.306,7.084 -0.464,1.162 -6.036,-0.928 -9.982,-3.713 -3.946,-2.786 -8.357,-5.341 -9.054,-4.179 -0.696,1.162 3.483,4.41 6.964,5.572 3.483,1.161 9.749,5.108 8.821,6.732 -0.927,1.625 -6.499,-0.233 -9.517,-2.323 -3.018,-2.089 -18.802,-16.48 -19.964,-17.873"
       style="fill:none;stroke:#231f20;stroke-width:0.5;stroke-linecap:round;stroke-linejoin:round;stroke-miterlimit:4;stroke-dasharray:2.8, 1.8;stroke-dashoffset:0;stroke-opacity:1"
       id="path876" />
    <path
       d="m 494.733,377.981 c -3.018,-2.32 -10.679,-7.195 -16.946,-11.605 -6.269,-4.41 -9.054,-4.875 -12.537,-4.875 -3.482,0 -9.981,3.249 -12.07,4.178 -2.09,0.928 -1.626,3.249 0.928,3.714 2.553,0.463 9.286,0 14.625,0.231 5.339,0.234 7.912,5.376 15.031,9.924 7.125,4.554 13.541,7.607 18.456,9.576 4.616,1.85 8.531,4.179 12.013,4.179 2.554,0 4.875,-0.697 4.875,-3.714 0,-3.016 -2.32,-6.267 -3.714,-7.429 -1.394,-1.159 -2.523,-2.786 -5.161,-2.786 -2.32,0 -3.313,2.786 -8.06,1.524"
       style="fill:none;stroke:#231f20;stroke-width:0.5;stroke-linecap:round;stroke-linejoin:round;stroke-miterlimit:4;stroke-dasharray:2.8, 1.8;stroke-dashoffset:0;stroke-opacity:1"
       id="path878" />
    <path
       d="m 486.898,389.298 c 2.318,-4.055 -15.087,-12.405 -16.54,-8.531 -1.044,2.786 15.147,10.969 16.54,8.531 z"
       style="fill:none;stroke:#231f20;stroke-width:0.5;stroke-linecap:round;stroke-linejoin:round;stroke-miterlimit:4;stroke-dasharray:2.8, 1.8;stroke-dashoffset:0;stroke-opacity:1"
       id="path880" />
    <path
       d="m 515.858,556.037 c -4.874,-0.928 -27.639,-9.927 -22.764,-23.394"
       style="fill:none;stroke:#231f20;stroke-width:0.5;stroke-linecap:round;stroke-linejoin:round;stroke-miterlimit:4;stroke-dasharray:2.8, 1.8;stroke-dashoffset:0;stroke-opacity:1"
       id="path882" />
    <path
       d="m 454.804,579.018 c 0,-5.571 -0.928,-24.837 -1.856,-31.57"
       style="fill:none;stroke:#231f20;stroke-width:0.5;stroke-linecap:round;stroke-linejoin:round;stroke-miterlimit:4;stroke-dasharray:2.8, 1.8;stroke-dashoffset:0;stroke-opacity:1"
       id="path884" />
    <path
       d="m 400.694,577.549 c 3.27,-2.709 4.664,-8.281 3.27,-11.066 -1.392,-2.786 -6.821,-6.409 -14.785,-1.464"
       style="fill:none;stroke:#231f20;stroke-width:0.5;stroke-linecap:round;stroke-linejoin:round;stroke-miterlimit:4;stroke-dasharray:2.8, 1.8;stroke-dashoffset:0;stroke-opacity:1"
       id="path886" />
    <path
       d="m 394.504,562.802 c 4.355,-1.194 10.622,-2.821 8.533,-9.552 -2.089,-6.733 -9.972,-4.817 -14.156,-3.455"
       style="fill:none;stroke:#231f20;stroke-width:0.5;stroke-linecap:round;stroke-linejoin:round;stroke-miterlimit:4;stroke-dasharray:2.8, 1.8;stroke-dashoffset:0;stroke-opacity:1"
       id="path888" />
    <path
       d="m 417.98,539.798 c -8.675,0.686 -17,5.645 -23.517,8.736"
       style="fill:none;stroke:#231f20;stroke-width:0.5;stroke-linecap:round;stroke-linejoin:round;stroke-miterlimit:4;stroke-dasharray:2.8, 1.8;stroke-dashoffset:0;stroke-opacity:1"
       id="path890" />
    <path
       d="m 482.894,576.695 c -2.322,-10.212 -0.929,-24.606 1.393,-30.408 2.322,-5.803 9.052,-13.464 10.213,-15.787 1.163,-2.321 2.324,-5.803 6.734,-6.268 4.409,-0.463 10.335,-1.025 15.089,-0.463 4.405,0.52 8.125,0.696 11.637,6.021"
       style="fill:none;stroke:#231f20;stroke-width:0.5;stroke-linecap:round;stroke-linejoin:round;stroke-miterlimit:4;stroke-dasharray:2.8, 1.8;stroke-dashoffset:0;stroke-opacity:1"
       id="path892" />
    <path
       d="m 527.111,524.463 c -1.038,-3.249 -9.435,-14.952 -15.663,-11.837 -5.108,2.552 -4.37,7.892 -3.462,11.026"
       style="fill:none;stroke:#231f20;stroke-width:0.5;stroke-linecap:round;stroke-linejoin:round;stroke-miterlimit:4;stroke-dasharray:2.8, 1.8;stroke-dashoffset:0;stroke-opacity:1"
       id="path894" />
    <path
       d="m 411.858,525.859 c -3.249,1.392 -7.927,1.936 -12.031,3.987"
       style="fill:none;stroke:#231f20;stroke-width:0.5;stroke-linecap:round;stroke-linejoin:round;stroke-miterlimit:4;stroke-dasharray:2.8, 1.8;stroke-dashoffset:0;stroke-opacity:1"
       id="path896" />
    <path
       d="m 702.624,535.614 c -4.411,0.231 -14.284,-1.401 -21.944,-5.346 0,0 -4.642,-3.019 -4.875,-13.929 -0.232,-10.911 5.34,-16.48 11.375,-22.516 6.035,-6.037 13.464,-13.001 14.16,-20.893 0.697,-7.895 2.091,-23.447 3.948,-29.019 1.856,-5.572 5.338,-13.232 12.766,-13.463"
       style="fill:none;stroke:#231f20;stroke-width:0.5;stroke-linecap:round;stroke-linejoin:round;stroke-miterlimit:4;stroke-dasharray:2.8, 1.8;stroke-dashoffset:0;stroke-opacity:1"
       id="path898" />
    <path
       d="m 377.378,535.614 c 4.412,0.231 14.284,-1.401 21.945,-5.346 0,0 4.641,-3.019 4.875,-13.929 0.232,-10.911 -5.341,-16.48 -11.376,-22.516 -6.035,-6.037 -13.463,-13.001 -14.16,-20.893 -0.697,-7.895 -2.09,-23.447 -3.948,-29.019 -1.856,-5.572 -5.337,-13.232 -12.766,-13.463"
       style="fill:none;stroke:#231f20;stroke-width:0.5;stroke-linecap:round;stroke-linejoin:round;stroke-miterlimit:4;stroke-dasharray:2.8, 1.8;stroke-dashoffset:0;stroke-opacity:1"
       id="path900" />
    <path
       d="m 599.212,532.669 c 1.042,1.638 6.054,3.99 9.122,1.331 3.068,-2.659 3.251,-6.835 1.477,-8.193"
       style="fill:none;stroke:#231f20;stroke-width:0.5;stroke-linecap:round;stroke-linejoin:round;stroke-miterlimit:4;stroke-dasharray:2.8, 1.8;stroke-dashoffset:0;stroke-opacity:1"
       id="path902" />
    <path
       d="m 611.469,544.131 c 1.118,-2.846 6.58,-8.496 10.261,-7.575 3.681,0.921 6.345,6.641 5.325,10.892"
       style="fill:none;stroke:#231f20;stroke-width:0.5;stroke-linecap:round;stroke-linejoin:round;stroke-miterlimit:4;stroke-dasharray:2.8, 1.8;stroke-dashoffset:0;stroke-opacity:1"
       id="path904" />
    <path
       d="m 623.773,537.624 c 3.048,-3.792 1.243,-10.95 1.031,-16.899"
       style="fill:none;stroke:#231f20;stroke-width:0.5;stroke-linecap:round;stroke-linejoin:round;stroke-miterlimit:4;stroke-dasharray:2.8, 1.8;stroke-dashoffset:0;stroke-opacity:1"
       id="path906" />
    <path
       d="m 625.324,533.747 c 1.787,-1.61 10.62,-7.826 13.846,-2.954 0.483,0.729 0.714,1.573 0.752,2.493"
       style="fill:none;stroke:#231f20;stroke-width:0.5;stroke-linecap:round;stroke-linejoin:round;stroke-miterlimit:4;stroke-dasharray:2.8, 1.8;stroke-dashoffset:0;stroke-opacity:1"
       id="path908" />
    <path
       d="m 636.116,529 c 0,0 1.607,-9.396 1.606,-10.156"
       style="fill:none;stroke:#231f20;stroke-width:0.5;stroke-linecap:round;stroke-linejoin:round;stroke-miterlimit:4;stroke-dasharray:2.8, 1.8;stroke-dashoffset:0;stroke-opacity:1"
       id="path910" />
    <path
       d="m 639.849,532.566 c 3.048,0.003 8.06,-1.634 10.309,-3.372 2.25,-1.738 7.653,-8.184 12.869,-6.388"
       style="fill:none;stroke:#231f20;stroke-width:0.5;stroke-linecap:round;stroke-linejoin:round;stroke-miterlimit:4;stroke-dasharray:2.8, 1.8;stroke-dashoffset:0;stroke-opacity:1"
       id="path912" />
    <path
       d="m 641.06,532.495 c 1.331,-0.205 5.8,-2.927 9.686,-13.058"
       style="fill:none;stroke:#231f20;stroke-width:0.5;stroke-linecap:round;stroke-linejoin:round;stroke-miterlimit:4;stroke-dasharray:2.8, 1.8;stroke-dashoffset:0;stroke-opacity:1"
       id="path914" />
    <path
       d="m 480.79,532.669 c -1.042,1.638 -6.053,3.99 -9.122,1.331 -3.067,-2.659 -3.25,-6.835 -1.477,-8.193"
       style="fill:none;stroke:#231f20;stroke-width:0.5;stroke-linecap:round;stroke-linejoin:round;stroke-miterlimit:4;stroke-dasharray:2.8, 1.8;stroke-dashoffset:0;stroke-opacity:1"
       id="path916" />
    <path
       d="m 468.533,544.131 c -1.118,-2.846 -6.579,-8.496 -10.26,-7.575 -3.681,0.921 -6.346,6.641 -5.325,10.892"
       style="fill:none;stroke:#231f20;stroke-width:0.5;stroke-linecap:round;stroke-linejoin:round;stroke-miterlimit:4;stroke-dasharray:2.8, 1.8;stroke-dashoffset:0;stroke-opacity:1"
       id="path918" />
    <path
       d="m 456.23,537.624 c -3.049,-3.792 -1.243,-10.95 -1.031,-16.899"
       style="fill:none;stroke:#231f20;stroke-width:0.5;stroke-linecap:round;stroke-linejoin:round;stroke-miterlimit:4;stroke-dasharray:2.8, 1.8;stroke-dashoffset:0;stroke-opacity:1"
       id="path920" />
    <path
       d="m 454.679,533.747 c -1.787,-1.61 -10.621,-7.826 -13.847,-2.954 -0.483,0.729 -0.714,1.573 -0.752,2.493"
       style="fill:none;stroke:#231f20;stroke-width:0.5;stroke-linecap:round;stroke-linejoin:round;stroke-miterlimit:4;stroke-dasharray:2.8, 1.8;stroke-dashoffset:0;stroke-opacity:1"
       id="path922" />
    <path
       d="m 443.887,529 c 0,0 -1.608,-9.396 -1.606,-10.156"
       style="fill:none;stroke:#231f20;stroke-width:0.5;stroke-linecap:round;stroke-linejoin:round;stroke-miterlimit:4;stroke-dasharray:2.8, 1.8;stroke-dashoffset:0;stroke-opacity:1"
       id="path924" />
    <path
       d="m 440.153,532.566 c -3.048,0.003 -8.059,-1.634 -10.309,-3.372 -2.25,-1.738 -7.652,-8.184 -12.869,-6.388"
       style="fill:none;stroke:#231f20;stroke-width:0.5;stroke-linecap:round;stroke-linejoin:round;stroke-miterlimit:4;stroke-dasharray:2.8, 1.8;stroke-dashoffset:0;stroke-opacity:1"
       id="path926" />
    <path
       d="m 438.943,532.495 c -1.332,-0.205 -5.8,-2.927 -9.687,-13.058"
       style="fill:none;stroke:#231f20;stroke-width:0.5;stroke-linecap:round;stroke-linejoin:round;stroke-miterlimit:4;stroke-dasharray:2.8, 1.8;stroke-dashoffset:0;stroke-opacity:1"
       id="path928" />
    <path
       d="m 649.689,850.857 c 5.848,1.668 11.839,1.393 12.884,-1.393 1.045,-2.785 -1.045,-4.875 -7.66,-6.964 -6.617,-2.089 -10.099,-2.437 -11.144,0.348 -1.045,2.786 1.709,6.809 5.92,8.009"
       style="fill:#d3d2d2;fill-opacity:1;fill-rule:nonzero;stroke:none;stroke-width:0.1"
       id="path930" />
    <path
       d="m 649.689,850.857 c 5.848,1.668 11.839,1.393 12.884,-1.393 1.045,-2.785 -1.045,-4.875 -7.66,-6.964 -6.617,-2.089 -10.099,-2.437 -11.144,0.348 -1.045,2.786 1.709,6.809 5.92,8.009 z"
       style="fill:none;stroke:#231f20;stroke-width:0.75;stroke-linecap:round;stroke-linejoin:round;stroke-miterlimit:4;stroke-dasharray:0, 2;stroke-dashoffset:0;stroke-opacity:1"
       id="path932" />
    <path
       d="m 430.313,850.857 c -5.847,1.668 -11.839,1.393 -12.884,-1.393 -1.044,-2.785 1.045,-4.875 7.661,-6.964 6.617,-2.089 10.098,-2.437 11.143,0.348 1.045,2.786 -1.708,6.809 -5.92,8.009"
       style="fill:#d3d2d2;fill-opacity:1;fill-rule:nonzero;stroke:none;stroke-width:0.1"
       id="path934" />
    <path
       d="m 430.313,850.857 c -5.847,1.668 -11.839,1.393 -12.884,-1.393 -1.044,-2.785 1.045,-4.875 7.661,-6.964 6.617,-2.089 10.098,-2.437 11.143,0.348 1.045,2.786 -1.708,6.809 -5.92,8.009 z"
       style="fill:none;stroke:#231f20;stroke-width:0.75;stroke-linecap:round;stroke-linejoin:round;stroke-miterlimit:4;stroke-dasharray:0, 2;stroke-dashoffset:0;stroke-opacity:1"
       id="path936" />
    <path
       d="m 725.6,580.642 c 8.705,-4.178 21.241,-11.839 44.919,-9.053 23.679,2.785 21.59,5.919 24.376,19.5 0,0 5.919,8.357 16.018,17.411 10.097,9.053 17.409,19.499 22.633,24.027 5.225,4.528 11.143,9.054 14.974,7.312 3.83,-1.741 6.268,-8.008 -0.697,-18.803 -6.964,-10.795 -16.018,-30.992 -24.375,-40.394"
       style="fill:none;stroke:#231f20;stroke-width:0.75;stroke-linecap:round;stroke-linejoin:round;stroke-miterlimit:4;stroke-dasharray:0, 2;stroke-dashoffset:0;stroke-opacity:1"
       id="path938" />
    <path
       d="m 540.002,652.374 c -37.957,0 -49.448,6.269 -49.099,15.67 0.348,9.403 31.687,8.009 49.099,8.009 17.41,0 48.75,1.394 49.097,-8.009 0.349,-9.401 -11.142,-15.67 -49.097,-15.67 z"
       style="fill:none;stroke:#231f20;stroke-width:0.75;stroke-linecap:round;stroke-linejoin:round;stroke-miterlimit:4;stroke-dasharray:0, 2;stroke-dashoffset:0;stroke-opacity:1"
       id="path940" />
    <path
       d="m 252.724,642.973 c -2.09,2.089 -1.045,5.223 1.741,6.616 2.785,1.393 13.58,6.617 27.509,13.929 13.929,7.313 18.108,2.089 21.938,0.348 3.83,-1.742 25.071,-5.572 56.758,6.616 31.688,12.187 42.134,27.857 46.313,34.474 4.179,6.616 14.277,22.981 11.84,27.508 -2.438,4.527 -7.661,6.964 -17.76,3.483 -10.098,-3.483 -34.473,-15.67 -47.356,-18.108 -12.885,-2.437 -21.242,-0.348 -33.778,0.697 -12.535,1.045 -20.545,3.482 -21.241,5.571 -0.696,2.09 1.741,8.357 7.661,16.017 5.92,7.662 12.188,14.974 11.839,19.153 -0.348,4.179 -14.276,1.392 -18.804,-2.089 -4.526,-3.482 -10.446,-6.269 -15.669,-6.965 -5.223,-0.696 -20.893,-4.179 -30.643,-10.099 -9.75,-5.918 -17.063,-21.24 -22.982,-43.526 -5.92,-22.286 -10.447,-20.545 -11.84,-20.196 -1.392,0.348 -8.357,-0.349 -3.482,28.901 4.875,29.25 17.76,52.929 33.429,77.653 15.67,24.722 22.286,28.553 30.991,32.035 8.705,3.482 8.705,-7.66 6.965,-12.535 -1.741,-4.875 -0.349,-12.884 11.839,-14.974 12.187,-2.089 28.902,2.437 39.348,8.706 10.447,6.268 15.322,12.187 11.839,20.893 -3.482,8.705 -15.67,11.491 -15.67,17.411 0,5.919 13.581,9.052 20.894,9.052 7.312,0 14.973,-3.481 20.545,-6.615 5.571,-3.135 4.875,-7.661 4.526,-10.795 -0.348,-3.134 -1.045,-9.053 0.349,-11.491 1.392,-2.437 4.875,-7.661 10.446,-8.357 5.571,-0.697 13.231,-1.045 19.848,-3.83 4.77,-2.009 12.187,-10.795 14.973,-15.322 2.786,-4.527 6.617,-7.312 15.322,-4.875 8.705,2.438 11.839,9.054 13.928,11.491 2.089,2.438 4.179,5.919 4.179,5.919 0,0 6.268,-2.785 9.401,-3.83 3.134,-1.045 11.144,-1.392 18.108,-0.348 6.964,1.045 41.786,0 53.974,0 12.187,0 47.008,1.045 53.972,0 6.965,-1.044 14.974,-0.697 18.108,0.348 3.133,1.045 9.402,3.83 9.402,3.83 0,0 2.089,-3.481 4.178,-5.919 2.09,-2.437 5.223,-9.053 13.928,-11.491 8.706,-2.437 12.536,0.348 15.323,4.875 2.785,4.527 10.202,13.313 14.972,15.322 6.617,2.785 14.278,3.133 19.849,3.83 5.571,0.696 9.054,5.92 10.446,8.357 1.393,2.438 0.696,8.357 0.348,11.491 -0.348,3.134 -1.044,7.66 4.527,10.795 5.571,3.134 13.233,6.615 20.545,6.615 7.313,0 20.893,-3.133 20.893,-9.052 0,-5.92 -12.188,-8.706 -15.67,-17.411 -3.482,-8.706 1.393,-14.625 11.84,-20.893 10.446,-6.269 27.16,-10.795 39.347,-8.706 12.188,2.09 13.581,10.099 11.84,14.974 -1.741,4.875 -1.741,16.017 6.964,12.535 8.706,-3.482 15.321,-7.313 30.991,-32.035 15.67,-24.724 28.554,-48.403 33.429,-77.653 4.875,-29.25 -2.089,-28.553 -3.482,-28.901 -1.393,-0.349 -5.92,-2.09 -11.839,20.196 -5.92,22.286 -13.233,37.608 -22.983,43.526 -9.75,5.92 -25.42,9.403 -30.642,10.099 -5.224,0.696 -11.143,3.483 -15.67,6.965 -4.527,3.481 -18.455,6.268 -18.804,2.089 -0.348,-4.179 5.92,-11.491 11.84,-19.153 5.919,-7.66 8.356,-13.927 7.66,-16.017 -0.696,-2.089 -8.705,-4.526 -21.241,-5.571 -12.535,-1.045 -20.893,-3.134 -33.777,-0.697 -12.883,2.438 -37.258,14.625 -47.357,18.108 -10.099,3.481 -15.321,1.044 -17.759,-3.483 -2.437,-4.527 7.66,-20.892 11.839,-27.508 4.179,-6.617 14.625,-22.287 46.313,-34.474 31.687,-12.188 52.928,-8.358 56.759,-6.616 3.83,1.741 8.009,6.965 21.938,-0.348 13.929,-7.312 24.723,-12.536 27.509,-13.929 2.785,-1.393 3.83,-4.527 1.741,-6.616"
       style="fill:none;stroke:#231f20;stroke-width:0.75;stroke-linecap:round;stroke-linejoin:round;stroke-miterlimit:4;stroke-dasharray:0, 2;stroke-dashoffset:0;stroke-opacity:1"
       id="path942" />
    <path
       d="m 354.403,580.642 c -8.706,-4.178 -21.241,-11.839 -44.92,-9.053 -23.679,2.785 -21.59,5.919 -24.375,19.5 0,0 -5.92,8.357 -16.018,17.411 -10.098,9.053 -17.41,19.499 -22.634,24.027 -5.225,4.528 -11.143,9.054 -14.973,7.312 -3.831,-1.741 -6.269,-8.008 0.696,-18.803 6.964,-10.795 16.018,-30.992 24.375,-40.394"
       style="fill:none;stroke:#231f20;stroke-width:0.75;stroke-linecap:round;stroke-linejoin:round;stroke-miterlimit:4;stroke-dasharray:0, 2;stroke-dashoffset:0;stroke-opacity:1"
       id="path944" />
    <path
       d="m 540.002,633.571 c -10.099,0 -29.251,0.699 -45.965,3.484 -16.714,2.784 -19.152,4.176 -28.205,2.088 -9.054,-2.088 -18.456,-5.224 -18.108,-10.447 0.349,-5.223 5.224,-9.402 16.366,-11.49 6.021,-1.13 20.875,-4.145 36.563,-5.224 13.349,-0.919 27.022,0 39.349,0 12.326,0 25.998,-0.919 39.347,0 15.688,1.079 30.543,4.094 36.563,5.224 11.143,2.088 16.018,6.267 16.366,11.49 0.348,5.223 -9.054,8.359 -18.107,10.447 -9.053,2.088 -11.491,0.696 -28.206,-2.088 -16.713,-2.785 -35.866,-3.484 -45.963,-3.484 z"
       style="fill:none;stroke:#231f20;stroke-width:0.75;stroke-linecap:round;stroke-linejoin:round;stroke-miterlimit:4;stroke-dasharray:0, 2;stroke-dashoffset:0;stroke-opacity:1"
       id="path946" />
    <path
       d="m 417.429,603.973 c 12.884,-11.84 42.483,-8.706 50.84,-9.054 8.357,-0.348 22.634,-5.571 35.17,-9.75 12.535,-4.178 25.071,-2.437 36.563,-2.437 11.491,0 24.026,-1.741 36.562,2.437 12.535,4.179 26.812,9.402 35.17,9.75 8.356,0.348 37.955,-2.786 50.839,9.054"
       style="fill:none;stroke:#231f20;stroke-width:0.75;stroke-linecap:round;stroke-linejoin:round;stroke-miterlimit:4;stroke-dasharray:0, 2;stroke-dashoffset:0;stroke-opacity:1"
       id="path948" />
    <path
       d="m 540.002,845.634 c -5.572,0 -33.082,-6.965 -49.448,0 -16.365,6.964 -3.481,19.5 2.438,22.983 4.923,2.895 35.17,10.794 47.01,10.794 11.838,0 42.085,-7.899 47.008,-10.794 5.92,-3.483 18.804,-16.019 2.438,-22.983 -16.366,-6.965 -43.875,0 -49.446,0"
       style="fill:#d3d2d2;fill-opacity:1;fill-rule:nonzero;stroke:none;stroke-width:0.1"
       id="path950" />
    <path
       d="m 540.002,845.634 c -5.572,0 -33.082,-6.965 -49.448,0 -16.365,6.964 -3.481,19.5 2.438,22.983 4.923,2.895 35.17,10.794 47.01,10.794 11.838,0 42.085,-7.899 47.008,-10.794 5.92,-3.483 18.804,-16.019 2.438,-22.983 -16.366,-6.965 -43.875,0 -49.446,0 z"
       style="fill:none;stroke:#231f20;stroke-width:0.75;stroke-linecap:round;stroke-linejoin:round;stroke-miterlimit:4;stroke-dasharray:0, 2;stroke-dashoffset:0;stroke-opacity:1"
       id="path952" />
    <path
       d="m 662.921,613.027 17.063,-3.831 C 703.663,587.607 745.1,589 757.984,589 c 12.884,0 14.276,4.178 17.062,7.661 2.786,3.481 -0.696,5.222 -9.75,3.83 -9.053,-1.393 -17.062,-0.697 -27.161,1.392 -10.097,2.09 -28.205,9.054 -43.526,19.153 -15.321,10.097 -33.429,28.205 -49.447,45.267 -16.018,17.063 -22.286,28.554 -19.152,32.036 3.134,3.483 12.536,3.483 23.33,-2.089 10.795,-5.572 20.198,-15.669 34.474,-31.339 14.276,-15.67 30.643,-24.028 47.357,-32.037 16.714,-8.008 29.598,-9.75 48.75,-11.838 19.152,-2.09 25.072,1.045 28.205,2.785"
       style="fill:none;stroke:#231f20;stroke-width:0.75;stroke-linecap:round;stroke-linejoin:round;stroke-miterlimit:4;stroke-dasharray:0, 2;stroke-dashoffset:0;stroke-opacity:1"
       id="path954" />
    <path
       d="m 417.082,613.027 -17.063,-3.831 C 376.34,587.607 334.903,589 322.019,589 c -12.885,0 -14.277,4.178 -17.062,7.661 -2.787,3.481 0.696,5.222 9.75,3.83 9.052,-1.393 17.062,-0.697 27.16,1.392 10.098,2.09 28.206,9.054 43.527,19.153 15.321,10.097 33.429,28.205 49.446,45.267 16.018,17.063 22.286,28.554 19.152,32.036 -3.134,3.483 -12.535,3.483 -23.33,-2.089 -10.795,-5.572 -20.197,-15.669 -34.474,-31.339 -14.276,-15.67 -30.643,-24.028 -47.356,-32.037 -16.715,-8.008 -29.599,-9.75 -48.75,-11.838 -19.153,-2.09 -25.073,1.045 -28.206,2.785"
       style="fill:none;stroke:#231f20;stroke-width:0.75;stroke-linecap:round;stroke-linejoin:round;stroke-miterlimit:4;stroke-dasharray:0, 2;stroke-dashoffset:0;stroke-opacity:1"
       id="path956" />
  </g>
</svg>
