<?xml version="1.0" encoding="UTF-8" standalone="no"?>
<!-- Created with Inkscape (http://www.inkscape.org/) -->

<svg
   version="1.1"
   id="svg2"
   width="1440"
   height="1344"
   viewBox="0 0 1440 1344"
   xmlns="http://www.w3.org/2000/svg"
   xmlns:svg="http://www.w3.org/2000/svg">
  <defs
     id="defs6" />
  <g
     id="g8">
    <path
       d="m 550.081,351.306 c 0,-1.157 0.924,-2.818 3.15,-2.818 1.251,0 2.843,1.018 2.843,2.734 0,1.717 -2.229,2.42 -2.778,2.42 -1.578,0 -3.215,-0.39 -3.215,-2.336"
       style="fill:#ffffff;fill-opacity:1;fill-rule:nonzero;stroke:none;stroke-width:0.1"
       id="path672" />
    <path
       d="m 550.081,351.306 c 0,-1.157 0.924,-2.818 3.15,-2.818 1.251,0 2.843,1.018 2.843,2.734 0,1.717 -2.229,2.42 -2.778,2.42 -1.578,0 -3.215,-0.39 -3.215,-2.336 z"
       style="fill:none;stroke:#231f20;stroke-width:0.5;stroke-linecap:round;stroke-linejoin:round;stroke-miterlimit:4;stroke-dasharray:none;stroke-opacity:1"
       id="path674" />
    <path
       d="m 529.922,351.306 c 0,-1.159 -0.925,-2.819 -3.15,-2.819 -1.252,0 -2.843,1.019 -2.843,2.735 0,1.717 2.227,2.42 2.779,2.42 1.579,0 3.214,-0.39 3.214,-2.336"
       style="fill:#ffffff;fill-opacity:1;fill-rule:nonzero;stroke:none;stroke-width:0.1"
       id="path676" />
    <path
       d="m 529.922,351.306 c 0,-1.159 -0.925,-2.819 -3.15,-2.819 -1.252,0 -2.843,1.019 -2.843,2.735 0,1.717 2.227,2.42 2.779,2.42 1.579,0 3.214,-0.39 3.214,-2.336 z"
       style="fill:none;stroke:#231f20;stroke-width:0.5;stroke-linecap:round;stroke-linejoin:round;stroke-miterlimit:4;stroke-dasharray:none;stroke-opacity:1"
       id="path678" />
    <path
       d="m 540.002,362.39 c -1.632,0 -2.401,-1.331 -4.299,-3.706 -2.967,-3.708 -8.158,-5.006 -13.72,-6.118 -5.748,-1.15 -25.213,-1.669 -39.673,0.557 -14.461,2.224 -14.09,6.673 -17.056,8.898 -2.966,2.225 -11.865,1.482 -16.685,2.595 -4.82,1.113 -16.685,7.416 -31.146,15.573 -14.46,8.157 -32.999,16.685 -44.864,25.584 -11.865,8.898 -30.774,30.404 -38.561,41.897 -7.787,11.496 -11.123,28.921 -9.64,48.202 1.483,19.28 8.528,32.258 13.348,41.157 4.82,8.898 14.831,20.022 18.539,23.358 3.708,3.337 10.753,11.865 10.753,11.865 -5.562,-2.594 -23.731,-12.977 -42.269,-10.38 -15.493,2.17 -12.606,14.46 -12.606,14.46 -33,-13.72 -49.685,2.965 -55.989,9.64 -6.303,6.673 -13.718,17.427 -15.573,25.954 -1.853,8.529 8.899,17.427 8.899,17.427 -6.303,-1.853 -10.752,1.482 -12.235,6.675 -1.484,5.19 -1.854,12.606 -2.967,20.022 -1.112,7.414 5.191,13.719 5.191,13.719 -3.708,-2.226 -5.932,-2.967 -6.673,2.966 -0.743,5.932 0,37.448 1.111,45.235 1.113,7.785 8.157,25.954 15.945,38.561 7.786,12.606 23.358,20.392 23.358,20.392 -2.595,5.562 9.641,27.81 17.427,31.517 7.786,3.708 31.516,16.684 42.269,19.28 10.752,2.595 27.808,4.079 38.932,4.821 11.123,0.741 28.55,-0.742 28.921,-5.562 0.37,-4.821 -6.675,-7.416 -6.675,-7.416 3.337,0 19.651,-0.371 25.584,-1.855 5.932,-1.482 11.865,-13.717 20.765,-19.65 5.688,-3.793 13.717,0.371 18.167,1.854 4.449,1.482 16.685,4.449 16.685,4.449 -5.561,0.741 -9.269,6.675 -13.349,8.529 -4.078,1.854 -9.268,10.381 -9.268,13.718 0,3.338 3.337,8.528 10.011,15.572 6.675,7.045 34.852,18.54 39.302,19.281 4.45,0.742 25.786,4.45 38.041,4.45 12.254,0 33.591,-3.708 38.039,-4.45 4.451,-0.741 32.628,-12.236 39.302,-19.281 6.676,-7.044 10.011,-12.234 10.011,-15.572 0,-3.337 -5.19,-11.864 -9.269,-13.718 -4.078,-1.854 -7.786,-7.788 -13.348,-8.529 0,0 12.236,-2.967 16.686,-4.449 4.449,-1.483 12.479,-5.647 18.167,-1.854 8.899,5.933 14.832,18.168 20.766,19.65 5.931,1.484 22.245,1.855 25.583,1.855 0,0 -7.044,2.595 -6.674,7.416 0.37,4.82 17.797,6.303 28.921,5.562 11.124,-0.742 28.179,-2.226 38.933,-4.821 10.751,-2.596 34.481,-15.572 42.266,-19.28 7.786,-3.707 20.023,-25.955 17.428,-31.517 0,0 15.571,-7.786 23.357,-20.392 7.788,-12.607 14.832,-30.776 15.945,-38.561 1.112,-7.787 1.855,-39.303 1.112,-45.235 -0.742,-5.933 -2.965,-5.192 -6.673,-2.966 0,0 6.304,-6.305 5.191,-13.719 -1.113,-7.416 -1.483,-14.832 -2.965,-20.022 -1.486,-5.193 -5.934,-8.528 -12.236,-6.675 0,0 10.753,-8.898 8.898,-17.427 -1.856,-8.527 -9.269,-19.28 -15.572,-25.954 -6.306,-6.674 -22.991,-23.359 -55.99,-9.64 0,0 2.887,-12.29 -12.606,-14.46 -18.539,-2.596 -36.706,7.787 -42.27,10.382 0,0 7.046,-8.529 10.754,-11.865 3.708,-3.338 13.719,-14.461 18.539,-23.359 4.822,-8.9 11.865,-21.876 13.347,-41.157 1.485,-19.28 -1.852,-36.707 -9.639,-48.201 -7.785,-11.495 -26.698,-33.001 -38.561,-41.899 -11.864,-8.899 -30.403,-17.427 -44.865,-25.583 -14.459,-8.157 -26.324,-14.461 -31.144,-15.572 -4.821,-1.114 -13.72,-0.372 -16.687,-2.596 -2.965,-2.224 -2.595,-6.675 -17.055,-8.898 -14.461,-2.226 -33.926,-1.708 -39.674,-0.557 -5.561,1.113 -10.752,2.409 -13.72,6.118 -1.898,2.374 -2.666,3.705 -4.297,3.705"
       style="fill:#ffffff;fill-opacity:1;fill-rule:nonzero;stroke:none;stroke-width:0.1"
       id="path680" />
    <path
       d="m 540.002,362.39 c -1.632,0 -2.401,-1.331 -4.299,-3.706 -2.967,-3.708 -8.158,-5.006 -13.72,-6.118 -5.748,-1.15 -25.213,-1.669 -39.673,0.557 -14.461,2.224 -14.09,6.673 -17.056,8.898 -2.966,2.225 -11.865,1.482 -16.685,2.595 -4.82,1.113 -16.685,7.416 -31.146,15.573 -14.46,8.157 -32.999,16.685 -44.864,25.584 -11.865,8.898 -30.774,30.404 -38.561,41.897 -7.787,11.496 -11.123,28.921 -9.64,48.202 1.483,19.28 8.528,32.258 13.348,41.157 4.82,8.898 14.831,20.022 18.539,23.358 3.708,3.337 10.753,11.865 10.753,11.865 -5.562,-2.594 -23.731,-12.977 -42.269,-10.38 -15.493,2.17 -12.606,14.46 -12.606,14.46 -33,-13.72 -49.685,2.965 -55.989,9.64 -6.303,6.673 -13.718,17.427 -15.573,25.954 -1.853,8.529 8.899,17.427 8.899,17.427 -6.303,-1.853 -10.752,1.482 -12.235,6.675 -1.484,5.19 -1.854,12.606 -2.967,20.022 -1.112,7.414 5.191,13.719 5.191,13.719 -3.708,-2.226 -5.932,-2.967 -6.673,2.966 -0.743,5.932 0,37.448 1.111,45.235 1.113,7.785 8.157,25.954 15.945,38.561 7.786,12.606 23.358,20.392 23.358,20.392 -2.595,5.562 9.641,27.81 17.427,31.517 7.786,3.708 31.516,16.684 42.269,19.28 10.752,2.595 27.808,4.079 38.932,4.821 11.123,0.741 28.55,-0.742 28.921,-5.562 0.37,-4.821 -6.675,-7.416 -6.675,-7.416 3.337,0 19.651,-0.371 25.584,-1.855 5.932,-1.482 11.865,-13.717 20.765,-19.65 5.688,-3.793 13.717,0.371 18.167,1.854 4.449,1.482 16.685,4.449 16.685,4.449 -5.561,0.741 -9.269,6.675 -13.349,8.529 -4.078,1.854 -9.268,10.381 -9.268,13.718 0,3.338 3.337,8.528 10.011,15.572 6.675,7.045 34.852,18.54 39.302,19.281 4.45,0.742 25.786,4.45 38.041,4.45 12.254,0 33.591,-3.708 38.039,-4.45 4.451,-0.741 32.628,-12.236 39.302,-19.281 6.676,-7.044 10.011,-12.234 10.011,-15.572 0,-3.337 -5.19,-11.864 -9.269,-13.718 -4.078,-1.854 -7.786,-7.788 -13.348,-8.529 0,0 12.236,-2.967 16.686,-4.449 4.449,-1.483 12.479,-5.647 18.167,-1.854 8.899,5.933 14.832,18.168 20.766,19.65 5.931,1.484 22.245,1.855 25.583,1.855 0,0 -7.044,2.595 -6.674,7.416 0.37,4.82 17.797,6.303 28.921,5.562 11.124,-0.742 28.179,-2.226 38.933,-4.821 10.751,-2.596 34.481,-15.572 42.266,-19.28 7.786,-3.707 20.023,-25.955 17.428,-31.517 0,0 15.571,-7.786 23.357,-20.392 7.788,-12.607 14.832,-30.776 15.945,-38.561 1.112,-7.787 1.855,-39.303 1.112,-45.235 -0.742,-5.933 -2.965,-5.192 -6.673,-2.966 0,0 6.304,-6.305 5.191,-13.719 -1.113,-7.416 -1.483,-14.832 -2.965,-20.022 -1.486,-5.193 -5.934,-8.528 -12.236,-6.675 0,0 10.753,-8.898 8.898,-17.427 -1.856,-8.527 -9.269,-19.28 -15.572,-25.954 -6.306,-6.674 -22.991,-23.359 -55.99,-9.64 0,0 2.887,-12.29 -12.606,-14.46 -18.539,-2.596 -36.706,7.787 -42.27,10.382 0,0 7.046,-8.529 10.754,-11.865 3.708,-3.338 13.719,-14.461 18.539,-23.359 4.822,-8.9 11.865,-21.876 13.347,-41.157 1.485,-19.28 -1.852,-36.707 -9.639,-48.201 -7.785,-11.495 -26.698,-33.001 -38.561,-41.899 -11.864,-8.899 -30.403,-17.427 -44.865,-25.583 -14.459,-8.157 -26.324,-14.461 -31.144,-15.572 -4.821,-1.114 -13.72,-0.372 -16.687,-2.596 -2.965,-2.224 -2.595,-6.675 -17.055,-8.898 -14.461,-2.226 -33.926,-1.708 -39.674,-0.557 -5.561,1.113 -10.752,2.409 -13.72,6.118 -1.898,2.374 -2.666,3.705 -4.297,3.705 z"
       style="fill:none;stroke:#231f20;stroke-width:0.75;stroke-linecap:round;stroke-linejoin:round;stroke-miterlimit:4;stroke-dasharray:none;stroke-opacity:1"
       id="path682" />
    <path
       d="m 463.323,658.371 c 1.922,-2.197 4.837,-3.637 7.677,-5.287 5.748,-3.338 11.866,-3.893 27.809,-7.787 10.144,-2.478 35.596,-1.669 41.193,-1.669 5.598,0 31.047,-0.809 41.192,1.669 15.941,3.894 22.059,4.449 27.808,7.787 2.84,1.65 5.756,3.09 7.677,5.287 0.768,0.876 1.377,1.873 1.762,3.05 1.943,-0.08 3.22,-1.541 5.02,-3.704 1.856,-2.223 20.395,-26.695 24.659,-32.072 4.262,-5.375 13.534,-16.128 20.761,-19.836 7.232,-3.708 34.669,-15.017 45.609,-18.168 10.935,-3.152 28.735,-5.376 35.036,-5.933 6.304,-0.555 7.046,4.82 4.451,8.157 -2.596,3.338 -11.68,12.793 -15.572,16.13 -3.893,3.336 -7.788,7.971 -17.8,14.275 -10.009,6.303 -22.43,10.196 -29.661,12.234 -7.231,2.039 -15.571,3.708 -25.955,10.938 -10.381,7.231 -21.875,24.844 -28.549,33.371 -6.676,8.528 -19.652,25.955 -27.993,32.258 -8.343,6.303 -18.169,9.269 -25.585,10.196 -7.416,0.928 -37.077,3.337 -42.86,3.337 -5.784,0 -35.446,-2.409 -42.861,-3.337 -7.415,-0.927 -17.242,-3.893 -25.584,-10.196 -8.342,-6.303 -21.32,-23.73 -27.994,-32.258 -6.674,-8.527 -18.167,-26.14 -28.55,-33.371 0,0 -18.724,-8.899 -25.954,-10.938 -7.23,-2.038 -19.651,-5.931 -29.662,-12.234 -10.012,-6.304 -13.904,-10.939 -17.798,-14.275 -3.893,-3.339 -12.977,-12.793 -15.572,-16.13 -2.596,-3.338 -1.855,-8.714 4.449,-8.157 6.303,0.556 24.1,2.781 35.039,5.931 10.938,3.153 38.375,14.462 45.606,18.17 7.229,3.708 16.499,14.461 20.763,19.836 4.264,5.377 22.803,29.849 24.657,32.072 1.801,2.163 3.078,3.624 5.021,3.704 0.383,-1.177 0.992,-2.174 1.761,-3.05"
       style="fill:#d3d2d2;fill-opacity:1;fill-rule:nonzero;stroke:none;stroke-width:0.1"
       id="path684" />
    <path
       d="m 433.9,610.971 c -0.181,-0.246 -0.358,-0.484 -0.533,-0.713 -2.239,-2.939 -4.585,-6.408 -8.153,-9.127 0.78,-7.374 12.065,-7.749 21.871,-10.525 9.827,-2.78 19.096,-5.006 28.18,-7.23 9.084,-2.225 21.505,-4.264 32.258,-6.86 10.752,-2.595 23.174,-2.038 32.479,-2.038 9.303,0 21.724,-0.557 32.478,2.039 10.752,2.595 23.173,4.636 32.257,6.859 9.086,2.226 18.354,4.452 28.181,7.232 9.806,2.774 21.091,3.149 21.871,10.524 -3.569,2.721 -5.913,6.188 -8.153,9.126 -0.174,0.229 -0.351,0.467 -0.533,0.713 -4.636,0 -13.37,-0.713 -19.304,-2.011 -5.933,-1.296 -25.028,-4.82 -48.015,-7.415 -22.99,-2.595 -30.404,-0.742 -38.782,-0.742 -8.379,0 -15.794,-1.853 -38.783,0.74 -22.988,2.597 -42.083,6.121 -48.015,7.417 -5.933,1.298 -14.67,2.011 -19.304,2.011"
       style="fill:#d3d2d2;fill-opacity:1;fill-rule:nonzero;stroke:none;stroke-width:0.1"
       id="path686" />
    <path
       d="m 685.939,819.563 c 6.118,0 17.981,0.742 30.403,-2.78 12.421,-3.524 26.326,-11.124 42.64,-15.945 16.314,-4.819 39.982,-19.094 47.831,-23.915"
       style="fill:none;stroke:#231f20;stroke-width:0.5;stroke-linecap:butt;stroke-linejoin:miter;stroke-miterlimit:4;stroke-dasharray:none;stroke-opacity:1"
       id="path688" />
    <path
       d="m 616.679,658.371 c 1.967,2.246 2.898,5.282 1.649,10.136"
       style="fill:none;stroke:#231f20;stroke-width:0.5;stroke-linecap:butt;stroke-linejoin:miter;stroke-miterlimit:4;stroke-dasharray:none;stroke-opacity:1"
       id="path690" />
    <path
       d="m 676.918,590.682 c 0.549,-0.22 1.085,-0.431 1.605,-0.631 2.41,-0.927 7.601,-3.337 9.826,-4.82 2.226,-1.483 6.303,-2.967 11.124,-3.708 4.821,-0.741 10.637,-5.847 13.531,-9.269"
       style="fill:none;stroke:#231f20;stroke-width:0.75;stroke-linecap:round;stroke-linejoin:round;stroke-miterlimit:4;stroke-dasharray:none;stroke-opacity:1"
       id="path692" />
    <path
       d="m 665.882,595.442 c 3.348,-2.008 -0.893,-4.465 -2.931,-4.465 0,0 4.695,0.818 13.967,-0.295 -3.394,1.36 -7.294,3.067 -11.036,4.76"
       style="fill:#7b7979;fill-opacity:1;fill-rule:nonzero;stroke:none;stroke-width:0.1"
       id="path694" />
    <path
       d="m 665.882,595.442 c 3.348,-2.008 -0.893,-4.465 -2.931,-4.465 0,0 4.695,0.818 13.967,-0.295 -3.394,1.36 -7.294,3.067 -11.036,4.76 z"
       style="fill:none;stroke:#231f20;stroke-width:0.75;stroke-linecap:round;stroke-linejoin:round;stroke-miterlimit:4;stroke-dasharray:none;stroke-opacity:1"
       id="path696" />
    <path
       d="m 638.851,623.606 c 0.739,-2.78 4.817,-9.454 7.785,-13.348 2.966,-3.892 6.118,-8.713 12.049,-11.493 2.189,-1.026 4.657,-2.173 7.197,-3.323"
       style="fill:none;stroke:#231f20;stroke-width:0.5;stroke-linecap:butt;stroke-linejoin:miter;stroke-miterlimit:4;stroke-dasharray:none;stroke-opacity:1"
       id="path698" />
    <path
       d="m 403.084,590.682 c -0.548,-0.22 -1.084,-0.431 -1.604,-0.631 -2.411,-0.927 -7.602,-3.337 -9.826,-4.82 -2.226,-1.483 -6.304,-2.967 -11.124,-3.708 -4.82,-0.741 -10.637,-5.847 -13.531,-9.269"
       style="fill:none;stroke:#231f20;stroke-width:0.75;stroke-linecap:round;stroke-linejoin:round;stroke-miterlimit:4;stroke-dasharray:none;stroke-opacity:1"
       id="path700" />
    <path
       d="m 414.12,595.442 c -3.347,-2.008 0.894,-4.465 2.931,-4.465 0,0 -4.695,0.818 -13.967,-0.295 3.394,1.36 7.294,3.067 11.036,4.76"
       style="fill:#7b7979;fill-opacity:1;fill-rule:nonzero;stroke:none;stroke-width:0.1"
       id="path702" />
    <path
       d="m 414.12,595.442 c -3.347,-2.008 0.894,-4.465 2.931,-4.465 0,0 -4.695,0.818 -13.967,-0.295 3.394,1.36 7.294,3.067 11.036,4.76 z"
       style="fill:none;stroke:#231f20;stroke-width:0.75;stroke-linecap:round;stroke-linejoin:round;stroke-miterlimit:4;stroke-dasharray:none;stroke-opacity:1"
       id="path704" />
    <path
       d="m 441.152,623.606 c -0.74,-2.78 -4.818,-9.454 -7.786,-13.348 -2.965,-3.892 -6.118,-8.713 -12.049,-11.493 -2.189,-1.026 -4.657,-2.173 -7.197,-3.323"
       style="fill:none;stroke:#231f20;stroke-width:0.5;stroke-linecap:butt;stroke-linejoin:miter;stroke-miterlimit:4;stroke-dasharray:none;stroke-opacity:1"
       id="path706" />
    <path
       d="m 782.897,649.004 c 7.972,-4.262 27.438,-13.717 47.647,-19.651"
       style="fill:none;stroke:#231f20;stroke-width:0.5;stroke-linecap:butt;stroke-linejoin:miter;stroke-miterlimit:4;stroke-dasharray:none;stroke-opacity:1"
       id="path708" />
    <path
       d="m 700.212,432.655 c 7.416,-0.186 22.064,9.084 28.551,16.5 6.489,7.414 10.382,28.734 10.382,45.235 0,16.499 -4.393,24.3 -7.971,28.364 -4.078,4.635 -16.314,10.753 -20.392,13.534 -4.081,2.781 -11.124,10.381 -16.688,12.607 -5.56,2.224 -16.869,6.302 -23.915,10.012 -4.934,2.596 -7.043,3.892 -6.858,6.673 0.185,2.781 3.898,3.874 7.029,3.934 l 1.499,0.144 c 5.931,0.742 14.838,3.269 17.612,3.522 2.039,0.186 3.521,0.186 3.521,1.855 0,1.669 -2.024,3.593 -0.186,4.633 1.865,1.055 3.894,1.53 3.894,2.375"
       style="fill:none;stroke:#231f20;stroke-width:0.5;stroke-linecap:butt;stroke-linejoin:miter;stroke-miterlimit:4;stroke-dasharray:none;stroke-opacity:1"
       id="path710" />
    <path
       d="m 699.146,432.76 c -2.524,-1.866 -3.569,-9.559 1.066,-9.559 4.636,0 17.798,4.263 26.697,12.236 8.898,7.971 21.692,22.06 22.617,48.386 0.928,26.325 -9.083,47.83 -20.577,60.436 -11.494,12.607 -26.723,26.313 -40.243,28.821"
       style="fill:none;stroke:#231f20;stroke-width:0.5;stroke-linecap:butt;stroke-linejoin:miter;stroke-miterlimit:4;stroke-dasharray:none;stroke-opacity:1"
       id="path712" />
    <path
       d="m 699.323,423.317 c -0.704,-7.111 -7.081,-7.532 -8.748,-7.532 -1.671,0 -3.268,0.591 -4.266,1.482 -1.089,0.974 -3.523,3.338 -3.523,9.272 0,5.93 4.3,9.467 8.528,10.009 2.742,0.351 5.746,-3.665 6.118,-6.745"
       style="fill:none;stroke:#231f20;stroke-width:0.5;stroke-linecap:butt;stroke-linejoin:miter;stroke-miterlimit:4;stroke-dasharray:none;stroke-opacity:1"
       id="path714" />
    <path
       d="m 540.002,362.39 c -1.255,0 -2.908,-2.038 -2.908,-3.411 0,-1.028 1.277,-3.012 2.908,-3.012 1.631,0 2.908,1.984 2.908,3.012 0,1.374 -1.652,3.411 -2.908,3.411"
       style="fill:#ffffff;fill-opacity:1;fill-rule:nonzero;stroke:none;stroke-width:0.1"
       id="path716" />
    <path
       d="m 540.002,362.39 c -1.255,0 -2.908,-2.038 -2.908,-3.411 0,-1.028 1.277,-3.012 2.908,-3.012 1.631,0 2.908,1.984 2.908,3.012 0,1.374 -1.652,3.411 -2.908,3.411 z"
       style="fill:none;stroke:#231f20;stroke-width:0.5;stroke-linecap:round;stroke-linejoin:round;stroke-miterlimit:4;stroke-dasharray:none;stroke-opacity:1"
       id="path718" />
    <path
       d="m 475.265,804.361 c 10.753,-2.967 27.252,-1.112 33.741,-0.556 6.489,0.556 24.842,1.854 30.996,1.854 6.153,0 24.507,-1.298 30.996,-1.854 6.488,-0.556 22.988,-2.411 33.739,0.556"
       style="fill:none;stroke:#231f20;stroke-width:0.5;stroke-linecap:butt;stroke-linejoin:miter;stroke-miterlimit:4;stroke-dasharray:none;stroke-opacity:1"
       id="path720" />
    <path
       d="m 312.123,576.332 c 1.297,12.605 9.639,26.696 17.612,35.409 7.972,8.714 30.033,23.546 40.414,29.293 10.382,5.746 18.353,9.824 31.331,17.981 12.978,8.157 17.427,16.315 21.69,21.506 4.264,5.191 27.067,34.297 37.635,45.234 10.567,10.939 18.725,11.124 26.325,11.124 7.601,0 46.534,-0.741 52.872,-0.741 6.337,0 45.27,0.741 52.871,0.741 7.6,0 15.759,-0.185 26.326,-11.124 10.565,-10.937 33.368,-40.043 37.633,-45.234 4.263,-5.191 8.714,-13.349 21.691,-21.506 12.977,-8.157 20.95,-12.235 31.331,-17.981 10.381,-5.747 32.443,-20.579 40.415,-29.293 7.971,-8.713 16.315,-22.803 17.611,-35.409"
       style="fill:none;stroke:#231f20;stroke-width:0.5;stroke-linecap:butt;stroke-linejoin:miter;stroke-miterlimit:4;stroke-dasharray:none;stroke-opacity:1"
       id="path722" />
    <path
       d="m 540.002,700.172 c -1.449,0 -7.823,0.186 -16.721,-0.371 -8.899,-0.556 -28.55,-1.482 -38.932,-5.561 -10.382,-4.078 -13.904,-11.679 -16.87,-16.5 -2.967,-4.82 -6.304,-10.011 -6.304,-10.011 -2.224,-2.78 -9.269,-10.012 -15.757,-17.056 -6.489,-7.045 -15.573,-17.982 -26.882,-27.252 -11.31,-9.269 -15.943,-10.011 -21.692,-11.495 -5.746,-1.482 -17.425,-5.19 -25.954,-6.302 -8.527,-1.113 -5.19,0.556 -5.19,0.556 3.151,1.484 21.134,10.752 27.438,14.275 6.303,3.523 10.381,4.449 21.875,12.049 11.495,7.602 23.174,19.838 30.775,30.406 7.601,10.566 19.281,25.212 27.253,31.33 7.971,6.118 22.803,8.898 30.959,10.01 8.158,1.114 31.331,2.967 36.002,2.967 4.67,0 27.843,-1.853 36.001,-2.967 8.157,-1.112 22.988,-3.892 30.958,-10.01 7.974,-6.118 19.653,-20.764 27.254,-31.33 7.601,-10.568 19.28,-22.804 30.774,-30.406 11.496,-7.6 15.571,-8.526 21.878,-12.049 6.302,-3.523 24.285,-12.791 27.437,-14.275 0,0 3.336,-1.669 -5.193,-0.556 -8.526,1.112 -20.204,4.82 -25.952,6.302 -5.749,1.484 -10.382,2.226 -21.691,11.495 -11.311,9.27 -20.394,20.207 -26.883,27.252 -6.488,7.044 -13.534,14.276 -15.756,17.056 0,0 -3.338,5.191 -6.304,10.011 -2.968,4.821 -6.488,12.422 -16.872,16.5 -10.381,4.079 -30.03,5.005 -38.932,5.561 -8.898,0.557 -15.272,0.371 -16.719,0.371"
       style="fill:#b2b1b1;fill-opacity:1;fill-rule:nonzero;stroke:none;stroke-width:0.1"
       id="path724" />
    <path
       d="m 394.064,819.563 c -6.118,0 -17.981,0.742 -30.403,-2.78 -12.421,-3.524 -26.326,-11.124 -42.64,-15.945 -16.314,-4.819 -39.98,-19.094 -47.831,-23.915"
       style="fill:none;stroke:#231f20;stroke-width:0.5;stroke-linecap:butt;stroke-linejoin:miter;stroke-miterlimit:4;stroke-dasharray:none;stroke-opacity:1"
       id="path726" />
    <path
       d="m 463.323,658.371 c -1.967,2.246 -2.897,5.282 -1.649,10.136"
       style="fill:none;stroke:#231f20;stroke-width:0.5;stroke-linecap:butt;stroke-linejoin:miter;stroke-miterlimit:4;stroke-dasharray:none;stroke-opacity:1"
       id="path728" />
    <path
       d="m 540.002,637.055 c 0,0 -3.556,0 -11.715,-0.656 -8.161,-0.658 -18.539,0 -26.326,1.111 -7.786,1.113 -24.842,3.152 -31.331,2.596 -6.488,-0.557 -13.718,-4.265 -20.021,-8.898 -6.304,-4.635 -9.455,-7.602 -9.455,-7.602 3.521,10.937 7.415,15.943 11.494,22.247 4.079,6.303 10.675,12.518 10.675,12.518 1.922,-2.197 4.837,-3.637 7.677,-5.287 5.748,-3.338 11.866,-3.893 27.809,-7.787 10.144,-2.478 35.596,-1.669 41.193,-1.669 5.598,0 31.047,-0.809 41.192,1.669 15.941,3.894 22.059,4.449 27.808,7.787 2.84,1.65 5.756,3.09 7.677,5.287 0,0 6.597,-6.215 10.675,-12.518 4.081,-6.304 7.974,-11.31 11.497,-22.247 0,0 -3.153,2.967 -9.457,7.602 -6.303,4.633 -13.533,8.341 -20.021,8.898 -6.489,0.556 -23.546,-1.483 -31.332,-2.596 -7.786,-1.111 -18.165,-1.769 -26.323,-1.111 -8.161,0.656 -11.716,0.656 -11.716,0.656"
       style="fill:#b2b1b1;fill-opacity:1;fill-rule:nonzero;stroke:none;stroke-width:0.1"
       id="path730" />
    <path
       d="m 437.584,616.501 c 2.387,-3.044 8.019,1.173 10.243,2.841 2.225,1.669 4.264,5.377 8.342,7.601 4.08,2.225 8.159,3.892 15.759,3.892 7.602,0 27.809,-2.408 35.78,-3.335 7.972,-0.927 28.92,-2.967 32.294,-2.967 3.372,0 24.32,2.04 32.293,2.967 7.971,0.927 28.178,3.335 35.78,3.335 7.6,0 11.678,-1.667 15.759,-3.892 4.078,-2.224 6.119,-5.932 8.34,-7.601 2.226,-1.668 7.858,-5.885 10.244,-2.841"
       style="fill:none;stroke:#231f20;stroke-width:0.5;stroke-linecap:butt;stroke-linejoin:miter;stroke-miterlimit:4;stroke-dasharray:none;stroke-opacity:1"
       id="path732" />
    <path
       d="m 440.049,615.361 c 5.755,0.652 13.896,0.829 20.942,0.644 7.045,-0.184 33.74,-2.41 45.42,-3.521 11.679,-1.112 24.842,0.555 33.591,0.555 8.748,0 21.91,-1.667 33.591,-0.555 11.679,1.111 38.374,3.337 45.42,3.521 7.043,0.185 15.186,0.008 20.94,-0.644"
       style="fill:none;stroke:#231f20;stroke-width:0.5;stroke-linecap:butt;stroke-linejoin:miter;stroke-miterlimit:4;stroke-dasharray:none;stroke-opacity:1"
       id="path734" />
    <path
       d="m 297.106,649.004 c -7.972,-4.262 -27.438,-13.717 -47.646,-19.651"
       style="fill:none;stroke:#231f20;stroke-width:0.5;stroke-linecap:butt;stroke-linejoin:miter;stroke-miterlimit:4;stroke-dasharray:none;stroke-opacity:1"
       id="path736" />
    <path
       d="m 417.052,590.977 c 2.04,0 11.31,-4.45 12.421,-5.19 1.113,-0.743 4.636,-2.967 10.196,-5.933 5.563,-2.967 10.383,-7.416 17.613,-7.786 7.23,-0.371 13.163,-1.483 17.426,-3.338 4.265,-1.855 19.095,-6.674 24.472,-7.971 5.377,-1.298 8.343,-0.927 17.984,-2.411 9.38,-1.441 17.425,-1.297 22.838,-1.297 5.411,0 13.458,-0.144 22.837,1.299 9.641,1.482 12.607,1.111 17.982,2.409 5.379,1.297 20.211,6.118 24.473,7.972 4.263,1.854 10.197,2.966 17.427,3.337 7.232,0.37 12.049,4.82 17.613,7.787 5.56,2.967 9.082,5.19 10.196,5.932 1.112,0.741 10.381,5.19 12.421,5.19"
       style="fill:none;stroke:#231f20;stroke-width:0.75;stroke-linecap:round;stroke-linejoin:round;stroke-miterlimit:4;stroke-dasharray:none;stroke-opacity:1"
       id="path738" />
    <path
       d="m 379.79,432.654 c -7.415,-0.185 -22.062,9.085 -28.55,16.499 -6.49,7.416 -10.382,28.736 -10.382,45.235 0,16.501 4.393,24.301 7.972,28.366 4.078,4.635 16.313,10.753 20.393,13.534 4.078,2.781 11.122,10.381 16.684,12.606 5.562,2.224 16.871,6.303 23.916,10.011 4.935,2.598 7.044,3.893 6.859,6.675 -0.184,2.78 -3.898,3.872 -7.029,3.934 l -1.499,0.144 c -5.933,0.741 -14.836,3.269 -17.612,3.521 -2.04,0.187 -3.522,0.187 -3.522,1.854 0,1.669 2.024,3.595 0.185,4.635 -1.863,1.055 -3.893,1.53 -3.893,2.375"
       style="fill:none;stroke:#231f20;stroke-width:0.5;stroke-linecap:butt;stroke-linejoin:miter;stroke-miterlimit:4;stroke-dasharray:none;stroke-opacity:1"
       id="path740" />
    <path
       d="m 380.857,432.758 c 2.524,-1.864 3.567,-9.559 -1.067,-9.559 -4.635,0 -17.798,4.265 -26.697,12.236 -8.898,7.973 -21.69,22.062 -22.617,48.388 -0.928,26.325 9.083,47.83 20.578,60.435 11.494,12.608 26.723,26.312 40.243,28.822"
       style="fill:none;stroke:#231f20;stroke-width:0.5;stroke-linecap:butt;stroke-linejoin:miter;stroke-miterlimit:4;stroke-dasharray:none;stroke-opacity:1"
       id="path742" />
    <path
       d="m 523.897,402.195 c 0.926,8.157 5.269,24.516 5.269,33.971 0,9.455 2.087,41.539 2.087,55.073 0,13.532 5.747,17.797 8.749,17.797 3,0 8.748,-4.263 8.748,-17.797 0,-13.533 2.086,-45.618 2.086,-55.073 0,-9.455 4.342,-25.814 5.27,-33.97"
       style="fill:none;stroke:#231f20;stroke-width:0.5;stroke-linecap:butt;stroke-linejoin:miter;stroke-miterlimit:4;stroke-dasharray:none;stroke-opacity:1"
       id="path744" />
    <path
       d="m 380.68,423.317 c 0.704,-7.112 7.081,-7.534 8.749,-7.534 1.669,0 3.269,0.593 4.265,1.484 1.089,0.974 3.522,3.338 3.522,9.27 0,5.932 -4.298,9.469 -8.528,10.009 -2.741,0.352 -5.745,-3.663 -6.116,-6.743"
       style="fill:none;stroke:#231f20;stroke-width:0.5;stroke-linecap:butt;stroke-linejoin:miter;stroke-miterlimit:4;stroke-dasharray:none;stroke-opacity:1"
       id="path746" />
    <path
       d="m 472.114,365.359 c -2.684,-2.059 -3.607,-2.529 -6.86,-3.338"
       style="fill:none;stroke:#231f20;stroke-width:0.5;stroke-linecap:butt;stroke-linejoin:miter;stroke-miterlimit:4;stroke-dasharray:none;stroke-opacity:1"
       id="path748" />
    <path
       d="m 607.889,365.359 c 2.683,-2.059 3.607,-2.529 6.859,-3.338"
       style="fill:none;stroke:#231f20;stroke-width:0.5;stroke-linecap:butt;stroke-linejoin:miter;stroke-miterlimit:4;stroke-dasharray:none;stroke-opacity:1"
       id="path750" />
    <path
       d="m 540.002,557.051 c -5.413,0 -13.458,-0.144 -22.838,1.297 -9.641,1.484 -12.607,1.113 -17.984,2.411 1.738,-0.381 3.778,-3.198 2.236,-3.963 l 0.545,0.07 c 1.113,0 10.173,-2.086 13.905,-5.191 3.249,-2.704 3.893,-6.675 5.932,-7.6 2.039,-0.928 12.05,-5.379 14.09,-6.675 2.038,-1.298 2.038,-3.151 4.114,-3.151 2.075,0 2.075,1.855 4.113,3.151 2.04,1.298 12.051,5.747 14.092,6.675 2.037,0.927 2.681,4.896 5.93,7.6 3.733,3.105 12.791,5.191 13.904,5.191 l 0.544,-0.07 c -1.54,0.765 0.5,3.583 2.236,3.963 -5.375,-1.298 -8.341,-0.927 -17.982,-2.409 -9.379,-1.443 -17.426,-1.299 -22.837,-1.299"
       style="fill:#706d6e;fill-opacity:1;fill-rule:nonzero;stroke:none;stroke-width:0.1"
       id="path752" />
    <path
       d="m 540.002,557.051 c -5.413,0 -13.458,-0.144 -22.838,1.297 -9.641,1.484 -12.607,1.113 -17.984,2.411 1.738,-0.381 3.778,-3.198 2.236,-3.963 l 0.545,0.07 c 1.113,0 10.173,-2.086 13.905,-5.191 3.249,-2.704 3.893,-6.675 5.932,-7.6 2.039,-0.928 12.05,-5.379 14.09,-6.675 2.038,-1.298 2.038,-3.151 4.114,-3.151 2.075,0 2.075,1.855 4.113,3.151 2.04,1.298 12.051,5.747 14.092,6.675 2.037,0.927 2.681,4.896 5.93,7.6 3.733,3.105 12.791,5.191 13.904,5.191 l 0.544,-0.07 c -1.54,0.765 0.5,3.583 2.236,3.963 -5.375,-1.298 -8.341,-0.927 -17.982,-2.409 -9.379,-1.443 -17.426,-1.299 -22.837,-1.299 z"
       style="fill:none;stroke:#231f20;stroke-width:0.75;stroke-linecap:round;stroke-linejoin:round;stroke-miterlimit:4;stroke-dasharray:none;stroke-opacity:1"
       id="path754" />
    <path
       d="m 540.002,651.971 c -3.488,0 -19.039,0.278 -30.44,0.278 -11.401,0 -26.14,2.781 -32.535,6.118 -6.397,3.338 -4.729,7.787 0.834,13.627 5.561,5.838 13.347,9.175 23.637,11.957 10.289,2.78 29.199,4.449 38.504,4.449 9.303,0 28.212,-1.669 38.504,-4.449 10.288,-2.782 18.075,-6.119 23.635,-11.957 5.564,-5.84 7.232,-10.289 0.835,-13.627 -6.395,-3.337 -21.135,-6.118 -32.536,-6.118 -11.401,0 -26.951,-0.278 -30.438,-0.278"
       style="fill:#ffffff;fill-opacity:1;fill-rule:nonzero;stroke:none;stroke-width:0.1"
       id="path756" />
    <path
       d="m 479.25,665.874 c 3.616,-1.389 10.568,-2.501 15.574,-1.389 5.006,1.112 17.519,0.557 24.193,1.389 6.674,0.835 15.017,1.392 20.985,1.392 5.968,0 14.309,-0.557 20.985,-1.392 6.673,-0.832 19.186,-0.277 24.192,-1.389 5.006,-1.112 11.956,0 15.573,1.389"
       style="fill:none;stroke:#231f20;stroke-width:0.5;stroke-linecap:butt;stroke-linejoin:miter;stroke-miterlimit:4;stroke-dasharray:none;stroke-opacity:1"
       id="path758" />
    <path
       d="m 492.342,371.242 c -5.397,-1.805 -10.032,-5.513 -14.111,-7.182 -4.078,-1.67 -5.006,-1.111 -6.117,1.299"
       style="fill:none;stroke:#231f20;stroke-width:0.5;stroke-linecap:butt;stroke-linejoin:miter;stroke-miterlimit:4;stroke-dasharray:none;stroke-opacity:1"
       id="path760" />
    <path
       d="m 587.661,371.243 c 5.397,-1.806 10.032,-5.514 14.11,-7.182 4.078,-1.669 5.006,-1.112 6.118,1.298"
       style="fill:none;stroke:#231f20;stroke-width:0.5;stroke-linecap:butt;stroke-linejoin:miter;stroke-miterlimit:4;stroke-dasharray:none;stroke-opacity:1"
       id="path762" />
    <path
       d="m 541.604,369.076 c 1.028,-2.789 6.033,-3.161 9.187,-3.161 3.15,0 23.915,2.039 26.51,2.225 2.595,0.184 10.011,1.853 11.124,2.409 1.113,0.557 -7.601,2.967 -11.681,3.154 -4.078,0.183 -10.012,-0.928 -13.905,-2.041 -3.893,-1.113 -7.786,-2.039 -9.826,-2.595 -2.038,-0.557 -4.513,-0.886 -6.118,3.522 -0.74,2.039 -4.182,2.045 -5.15,0.928 -0.135,-4.605 -0.31,-8.829 -0.424,-11.496"
       style="fill:none;stroke:#231f20;stroke-width:0.5;stroke-linecap:butt;stroke-linejoin:miter;stroke-miterlimit:4;stroke-dasharray:none;stroke-opacity:1"
       id="path764" />
    <path
       d="m 538.4,369.076 c -1.028,-2.791 -6.034,-3.162 -9.186,-3.162 -3.152,0 -23.916,2.04 -26.511,2.225 -2.596,0.185 -10.011,1.854 -11.123,2.41 -1.113,0.557 7.6,2.967 11.678,3.152 4.079,0.185 10.012,-0.926 13.906,-2.039 3.892,-1.113 7.786,-2.04 9.825,-2.597 2.039,-0.556 4.514,-0.884 6.118,3.523 0.741,2.039 4.181,2.047 5.147,0.932 0.133,-4.61 0.302,-8.835 0.417,-11.505"
       style="fill:none;stroke:#231f20;stroke-width:0.5;stroke-linecap:butt;stroke-linejoin:miter;stroke-miterlimit:4;stroke-dasharray:none;stroke-opacity:1"
       id="path766" />
    <path
       d="m 615.374,540.554 c 0.007,-0.005 8.895,-0.884 9.894,1.666 0.996,2.551 -0.974,4.199 -1.491,8.729 -1.735,1.35 -5.605,2.339 -9.722,2.595 -2.769,-1.406 -9.05,-5.327 -4.931,-12.267 1.099,0.045 4.125,-0.111 5.09,-0.211 0.242,-0.024 0.636,-0.218 1.16,-0.512 z"
       style="fill:none;stroke:#231f20;stroke-width:0.5;stroke-linecap:butt;stroke-linejoin:miter;stroke-miterlimit:4;stroke-dasharray:none;stroke-opacity:1"
       id="path768" />
    <path
       d="m 464.629,540.554 c -0.008,-0.005 -8.896,-0.884 -9.894,1.666 -0.997,2.551 0.973,4.199 1.49,8.729 1.735,1.35 5.605,2.339 9.722,2.595 2.769,-1.406 9.05,-5.327 4.93,-12.267 -1.098,0.045 -4.124,-0.111 -5.089,-0.211 -0.241,-0.024 -0.635,-0.218 -1.159,-0.512 z"
       style="fill:none;stroke:#231f20;stroke-width:0.5;stroke-linecap:butt;stroke-linejoin:miter;stroke-miterlimit:4;stroke-dasharray:none;stroke-opacity:1"
       id="path770" />
    <path
       d="m 574.415,524.551 c 2.78,1.299 9.929,4.692 15.493,2.468 5.56,-2.226 10.751,-6.675 19.649,-15.017 8.899,-8.342 35.567,-36.818 51.693,-55.728"
       style="fill:none;stroke:#231f20;stroke-width:0.5;stroke-linecap:round;stroke-linejoin:round;stroke-miterlimit:4;stroke-dasharray:2.8, 1.8;stroke-dashoffset:0;stroke-opacity:1"
       id="path772" />
    <path
       d="m 574.415,524.551 c 4.635,-4.078 19.201,-16.072 36.812,-38.134 17.612,-22.059 38.579,-62.624 46.923,-90.062"
       style="fill:none;stroke:#231f20;stroke-width:0.5;stroke-linecap:round;stroke-linejoin:round;stroke-miterlimit:4;stroke-dasharray:2.8, 1.8;stroke-dashoffset:0;stroke-opacity:1"
       id="path774" />
    <path
       d="m 505.588,524.551 c -2.78,1.299 -9.93,4.692 -15.492,2.466 -5.561,-2.225 -10.753,-6.674 -19.651,-15.017 -8.899,-8.341 -35.565,-36.818 -51.695,-55.727"
       style="fill:none;stroke:#231f20;stroke-width:0.5;stroke-linecap:round;stroke-linejoin:round;stroke-miterlimit:4;stroke-dasharray:2.8, 1.8;stroke-dashoffset:0;stroke-opacity:1"
       id="path776" />
    <path
       d="m 540.002,396.874 c -4.044,0 -4.299,5.561 -4.299,8.528 0,2.967 0.925,12.977 1.297,18.724 0.372,5.748 1.297,32.443 1.297,37.819 0,5.377 -0.184,25.77 1.705,25.77 1.887,0 1.705,-20.392 1.705,-25.767 0,-5.377 0.925,-32.074 1.295,-37.822 0.372,-5.747 1.297,-15.756 1.297,-18.722 0,-2.967 -0.255,-8.53 -4.297,-8.53 z"
       style="fill:none;stroke:#231f20;stroke-width:0.5;stroke-linecap:round;stroke-linejoin:round;stroke-miterlimit:4;stroke-dasharray:2.8, 1.8;stroke-dashoffset:0;stroke-opacity:1"
       id="path778" />
    <path
       d="m 505.588,524.551 c -4.633,-4.079 -19.2,-16.073 -36.812,-38.134 -17.611,-22.061 -38.579,-62.624 -46.921,-90.062"
       style="fill:none;stroke:#231f20;stroke-width:0.5;stroke-linecap:round;stroke-linejoin:round;stroke-miterlimit:4;stroke-dasharray:2.8, 1.8;stroke-dashoffset:0;stroke-opacity:1"
       id="path780" />
    <path
       d="m 541.095,397.033 c 1.057,-1.384 0.946,-13.378 0.65,-23.516"
       style="fill:none;stroke:#231f20;stroke-width:0.5;stroke-linecap:round;stroke-linejoin:round;stroke-miterlimit:4;stroke-dasharray:2.8, 1.8;stroke-dashoffset:0;stroke-opacity:1"
       id="path782" />
    <path
       d="m 546.895,372.589 c -0.925,2.966 -2.78,7.785 -1.668,9.269 1.112,1.482 4.078,5.562 6.861,5.562 2.781,0 5.191,-3.336 7.043,-4.45 1.856,-1.112 5.335,-2.875 6.492,-3.336 1.852,-0.743 2.385,-2.063 2.964,-3.429 0.564,-1.334 0.537,-3.135 0.537,-3.135"
       style="fill:none;stroke:#231f20;stroke-width:0.5;stroke-linecap:round;stroke-linejoin:round;stroke-miterlimit:4;stroke-dasharray:2.8, 1.8;stroke-dashoffset:0;stroke-opacity:1"
       id="path784" />
    <path
       d="m 538.909,397.033 c -1.057,-1.384 -0.947,-13.375 -0.655,-23.512"
       style="fill:none;stroke:#231f20;stroke-width:0.5;stroke-linecap:round;stroke-linejoin:round;stroke-miterlimit:4;stroke-dasharray:2.8, 1.8;stroke-dashoffset:0;stroke-opacity:1"
       id="path786" />
    <path
       d="m 533.107,372.588 c 0.927,2.967 2.781,7.786 1.669,9.27 -1.112,1.482 -4.079,5.56 -6.86,5.56 -2.782,0 -5.191,-3.336 -7.044,-4.449 -1.855,-1.111 -5.335,-2.875 -6.49,-3.337 -1.854,-0.741 -2.387,-2.061 -2.966,-3.428 -0.565,-1.333 -0.538,-3.136 -0.538,-3.136"
       style="fill:none;stroke:#231f20;stroke-width:0.5;stroke-linecap:round;stroke-linejoin:round;stroke-miterlimit:4;stroke-dasharray:2.8, 1.8;stroke-dashoffset:0;stroke-opacity:1"
       id="path788" />
    <path
       d="m 645.766,473.865 c 1.491,-1.491 4.206,-3.947 5.503,-2.649 1.298,1.297 -0.739,2.966 -2.222,4.45 -1.485,1.482 -4.081,4.449 -5.005,3.522 -0.928,-0.926 -0.498,-3.103 1.724,-5.323 z"
       style="fill:none;stroke:#231f20;stroke-width:0.5;stroke-linecap:round;stroke-linejoin:round;stroke-miterlimit:4;stroke-dasharray:2.8, 1.8;stroke-dashoffset:0;stroke-opacity:1"
       id="path790" />
    <path
       d="m 645.314,428.837 c 3.918,1.964 20.417,3.077 25.978,-9.16 5.563,-12.235 -4.633,-22.246 -9.638,-22.803 -4.174,-0.463 -3.894,-0.555 -3.894,-1.112 0,-0.554 0.74,-0.927 5.191,0.187 4.448,1.112 19.35,7.354 25.226,20.213"
       style="fill:none;stroke:#231f20;stroke-width:0.5;stroke-linecap:round;stroke-linejoin:round;stroke-miterlimit:4;stroke-dasharray:2.8, 1.8;stroke-dashoffset:0;stroke-opacity:1"
       id="path792" />
    <path
       d="m 660.168,464.358 c 1.676,1.288 9.456,-5.192 13.164,-10.568 3.709,-5.376 9.62,-19.81 9.804,-24.444 0,0 -9.434,8.314 -14.995,15.36 -5.562,7.044 -10.384,17.796 -7.973,19.652 z"
       style="fill:none;stroke:#231f20;stroke-width:0.5;stroke-linecap:round;stroke-linejoin:round;stroke-miterlimit:4;stroke-dasharray:2.8, 1.8;stroke-dashoffset:0;stroke-opacity:1"
       id="path794" />
    <path
       d="m 643.856,454.877 c 0,-4.449 1.298,-6.092 5.746,-8.689 4.45,-2.596 7.974,-3.708 8.713,0.557 0.743,4.263 -0.558,10.197 -5.375,12.05 -4.82,1.854 -9.084,-0.649 -9.084,-3.918 z"
       style="fill:none;stroke:#231f20;stroke-width:0.5;stroke-linecap:round;stroke-linejoin:round;stroke-miterlimit:4;stroke-dasharray:2.8, 1.8;stroke-dashoffset:0;stroke-opacity:1"
       id="path796" />
    <path
       d="m 646.136,448.819 c -3.392,-1.888 -5.49,-6.275 -4.628,-12.055"
       style="fill:none;stroke:#231f20;stroke-width:0.5;stroke-linecap:round;stroke-linejoin:round;stroke-miterlimit:4;stroke-dasharray:2.8, 1.8;stroke-dashoffset:0;stroke-opacity:1"
       id="path798" />
    <path
       d="m 658.13,445.962 c 3.893,-1.627 8.896,-11.227 6.393,-18.848"
       style="fill:none;stroke:#231f20;stroke-width:0.5;stroke-linecap:round;stroke-linejoin:round;stroke-miterlimit:4;stroke-dasharray:2.8, 1.8;stroke-dashoffset:0;stroke-opacity:1"
       id="path800" />
    <path
       d="m 434.237,473.863 c -1.489,-1.489 -4.207,-3.945 -5.505,-2.647 -1.298,1.297 0.741,2.966 2.226,4.45 1.482,1.482 4.078,4.447 5.005,3.521 0.926,-0.927 0.495,-3.102 -1.726,-5.324 z"
       style="fill:none;stroke:#231f20;stroke-width:0.5;stroke-linecap:round;stroke-linejoin:round;stroke-miterlimit:4;stroke-dasharray:2.8, 1.8;stroke-dashoffset:0;stroke-opacity:1"
       id="path802" />
    <path
       d="m 434.689,428.835 c -3.918,1.965 -20.417,3.078 -25.979,-9.158 -5.561,-12.236 4.635,-22.247 9.64,-22.803 4.171,-0.463 3.894,-0.557 3.894,-1.112 0,-0.556 -0.742,-0.928 -5.192,0.185 -4.449,1.113 -19.349,7.353 -25.227,20.215"
       style="fill:none;stroke:#231f20;stroke-width:0.5;stroke-linecap:round;stroke-linejoin:round;stroke-miterlimit:4;stroke-dasharray:2.8, 1.8;stroke-dashoffset:0;stroke-opacity:1"
       id="path804" />
    <path
       d="m 419.834,464.356 c -1.676,1.288 -9.456,-5.19 -13.164,-10.567 -3.707,-5.375 -9.62,-19.809 -9.804,-24.445 0,0 9.433,8.316 14.996,15.36 5.561,7.046 10.382,17.798 7.972,19.652 z"
       style="fill:none;stroke:#231f20;stroke-width:0.5;stroke-linecap:round;stroke-linejoin:round;stroke-miterlimit:4;stroke-dasharray:2.8, 1.8;stroke-dashoffset:0;stroke-opacity:1"
       id="path806" />
    <path
       d="m 436.148,454.876 c 0,-4.45 -1.298,-6.092 -5.747,-8.688 -4.449,-2.596 -7.972,-3.708 -8.713,0.557 -0.741,4.263 0.556,10.197 5.376,12.049 4.82,1.855 9.084,-0.648 9.084,-3.918 z"
       style="fill:none;stroke:#231f20;stroke-width:0.5;stroke-linecap:round;stroke-linejoin:round;stroke-miterlimit:4;stroke-dasharray:2.8, 1.8;stroke-dashoffset:0;stroke-opacity:1"
       id="path808" />
    <path
       d="m 433.868,448.819 c 3.392,-1.89 5.489,-6.277 4.627,-12.055"
       style="fill:none;stroke:#231f20;stroke-width:0.5;stroke-linecap:round;stroke-linejoin:round;stroke-miterlimit:4;stroke-dasharray:2.8, 1.8;stroke-dashoffset:0;stroke-opacity:1"
       id="path810" />
    <path
       d="m 421.872,445.962 c -3.892,-1.628 -8.895,-11.227 -6.394,-18.848"
       style="fill:none;stroke:#231f20;stroke-width:0.5;stroke-linecap:round;stroke-linejoin:round;stroke-miterlimit:4;stroke-dasharray:2.8, 1.8;stroke-dashoffset:0;stroke-opacity:1"
       id="path812" />
    <path
       d="m 551.013,432.473 c 2.928,1.665 8.118,3.89 19.242,0.554 11.124,-3.338 22.063,-14.276 25.398,-18.169 3.338,-3.893 0.557,-14.09 -5.561,-13.904 -6.118,0.184 -17.426,5.004 -22.247,5.932 -4.821,0.926 -9.407,2.126 -13.232,4.029"
       style="fill:#231f20;fill-opacity:1;fill-rule:nonzero;stroke:none;stroke-width:0.1"
       id="path814" />
    <path
       d="m 551.013,432.473 c 2.928,1.665 8.118,3.89 19.242,0.554 11.124,-3.338 22.063,-14.276 25.398,-18.169 3.338,-3.893 0.557,-14.09 -5.561,-13.904 -6.118,0.184 -17.426,5.004 -22.247,5.932 -4.821,0.926 -9.407,2.126 -13.232,4.029"
       style="fill:none;stroke:#231f20;stroke-width:0.5;stroke-linecap:round;stroke-linejoin:round;stroke-miterlimit:4;stroke-dasharray:2.8, 1.8;stroke-dashoffset:0;stroke-opacity:1"
       id="path816" />
    <path
       d="m 595.653,414.858 c 3.523,-2.225 7.231,-3.338 16.13,-2.41 8.898,0.926 28.79,6.592 36.641,9.507"
       style="fill:none;stroke:#231f20;stroke-width:0.5;stroke-linecap:round;stroke-linejoin:round;stroke-miterlimit:4;stroke-dasharray:2.8, 1.8;stroke-dashoffset:0;stroke-opacity:1"
       id="path818" />
    <path
       d="m 555.951,403.332 c 1.328,1.515 6.703,0.958 10.411,0.402 3.708,-0.556 17.428,-5.746 22.432,-8.157 5.006,-2.411 11.495,-5.191 14.275,-6.674 2.78,-1.483 6.304,-5.563 10.196,-6.117 3.893,-0.558 12.052,-1.668 15.574,-2.41 3.521,-0.742 7.043,-2.04 7.043,-5.006 0,-2.967 -4.262,-5.562 -10.38,-5.562 -6.119,0 -9.641,2.039 -13.162,3.522 -3.523,1.483 -6.303,4.635 -8.898,8.158 -2.599,3.521 -7.416,7.045 -14.832,8.527 -7.416,1.485 -14.832,4.635 -17.612,5.562 -2.784,0.927 -3.523,1.484 -6.119,1.484 -2.594,0 -7.66,1.983 -8.773,5.135"
       style="fill:none;stroke:#231f20;stroke-width:0.5;stroke-linecap:round;stroke-linejoin:round;stroke-miterlimit:4;stroke-dasharray:2.8, 1.8;stroke-dashoffset:0;stroke-opacity:1"
       id="path820" />
    <path
       d="m 607.889,365.359 c 1.113,2.41 -0.184,10.938 -5.748,15.201 -5.56,4.265 -10.381,6.49 -15.201,7.232 -4.818,0.741 -6.304,1.482 -9.084,3.521 -2.78,2.039 -8.714,3.521 -9.826,1.669 -1.112,-1.855 6.302,-6.118 11.866,-8.898 5.561,-2.783 10.012,-4.635 13.72,-6.489 3.708,-1.855 8.525,-6.303 7.416,-7.972 -1.114,-1.669 -3.987,3.059 -8.344,5.19 -3.071,1.504 -11.494,5.192 -17.797,8.343 -6.304,3.151 -9.457,6.304 -13.165,10.01 -3.707,3.708 -9.534,7.115 -11.352,4.074 -0.881,-1.478 4.448,-7.27 9.685,-11.674 6.572,-5.528 22.204,-12.52 27.602,-14.323"
       style="fill:none;stroke:#231f20;stroke-width:0.5;stroke-linecap:round;stroke-linejoin:round;stroke-miterlimit:4;stroke-dasharray:2.8, 1.8;stroke-dashoffset:0;stroke-opacity:1"
       id="path822" />
    <path
       d="m 586.014,399.655 c -0.992,-2.41 8.53,-7.878 9.824,-5.191 0.794,1.645 -8.15,9.255 -9.824,5.191 z"
       style="fill:none;stroke:#231f20;stroke-width:0.5;stroke-linecap:round;stroke-linejoin:round;stroke-miterlimit:4;stroke-dasharray:2.8, 1.8;stroke-dashoffset:0;stroke-opacity:1"
       id="path824" />
    <path
       d="m 688.33,565.015 c -1.975,-0.962 2.957,-5.439 4.483,-8.206 1.529,-2.767 4.486,-6.966 6.586,-5.63 2.098,1.335 -0.573,6.201 -1.719,8.111 -1.145,1.909 -5.819,7.443 -9.35,5.725 z"
       style="fill:none;stroke:#231f20;stroke-width:0.5;stroke-linecap:round;stroke-linejoin:round;stroke-miterlimit:4;stroke-dasharray:2.8, 1.8;stroke-dashoffset:0;stroke-opacity:1"
       id="path826" />
    <path
       d="m 528.99,432.471 c -2.928,1.665 -8.118,3.891 -19.242,0.554 -11.123,-3.336 -22.062,-14.275 -25.399,-18.168 -3.337,-3.893 -0.556,-14.089 5.562,-13.904 6.118,0.185 17.426,5.005 22.247,5.931 4.819,0.928 9.409,2.128 13.232,4.031"
       style="fill:none;stroke:#231f20;stroke-width:0.5;stroke-linecap:round;stroke-linejoin:round;stroke-miterlimit:4;stroke-dasharray:2.8, 1.8;stroke-dashoffset:0;stroke-opacity:1"
       id="path828" />
    <path
       d="m 484.349,414.857 c -3.522,-2.226 -7.23,-3.337 -16.129,-2.41 -8.898,0.927 -28.79,6.593 -36.641,9.508"
       style="fill:none;stroke:#231f20;stroke-width:0.5;stroke-linecap:round;stroke-linejoin:round;stroke-miterlimit:4;stroke-dasharray:2.8, 1.8;stroke-dashoffset:0;stroke-opacity:1"
       id="path830" />
    <path
       d="m 524.05,403.332 c -1.326,1.513 -6.701,0.958 -10.409,0.401 -3.708,-0.555 -17.428,-5.747 -22.433,-8.156 -5.005,-2.411 -11.494,-5.192 -14.274,-6.674 -2.781,-1.485 -6.304,-5.563 -10.197,-6.117 -3.894,-0.558 -12.051,-1.669 -15.572,-2.412 -3.523,-0.742 -7.046,-2.039 -7.046,-5.004 0,-2.968 4.264,-5.564 10.382,-5.564 6.119,0 9.64,2.041 13.164,3.524 3.522,1.482 6.302,4.635 8.898,8.157 2.595,3.522 7.416,7.044 14.831,8.528 7.415,1.483 14.831,4.635 17.612,5.562 2.781,0.926 3.522,1.483 6.118,1.483 2.595,0 7.661,1.983 8.773,5.135"
       style="fill:none;stroke:#231f20;stroke-width:0.5;stroke-linecap:round;stroke-linejoin:round;stroke-miterlimit:4;stroke-dasharray:2.8, 1.8;stroke-dashoffset:0;stroke-opacity:1"
       id="path832" />
    <path
       d="m 472.114,365.359 c -1.114,2.41 0.184,10.935 5.747,15.201 5.561,4.264 10.382,6.488 15.201,7.232 4.82,0.739 6.304,1.482 9.084,3.519 2.781,2.041 8.714,3.523 9.826,1.67 1.112,-1.854 -6.304,-6.117 -11.865,-8.899 -5.562,-2.782 -10.01,-4.634 -13.718,-6.489 -3.708,-1.853 -8.528,-6.303 -7.416,-7.971 1.112,-1.669 3.985,3.058 8.342,5.19 3.07,1.505 11.494,5.192 17.798,8.344 6.303,3.15 9.454,6.302 13.162,10.01 3.708,3.708 9.535,7.115 11.352,4.074 0.883,-1.478 -4.446,-7.27 -9.683,-11.674 -6.573,-5.528 -22.203,-12.52 -27.602,-14.324"
       style="fill:none;stroke:#231f20;stroke-width:0.5;stroke-linecap:round;stroke-linejoin:round;stroke-miterlimit:4;stroke-dasharray:2.8, 1.8;stroke-dashoffset:0;stroke-opacity:1"
       id="path834" />
    <path
       d="m 493.99,399.655 c 0.992,-2.41 -8.529,-7.878 -9.826,-5.191 -0.794,1.645 8.152,9.254 9.826,5.191 z"
       style="fill:none;stroke:#231f20;stroke-width:0.5;stroke-linecap:round;stroke-linejoin:round;stroke-miterlimit:4;stroke-dasharray:2.8, 1.8;stroke-dashoffset:0;stroke-opacity:1"
       id="path836" />
    <path
       d="m 391.673,565.013 c 1.976,-0.96 -2.958,-5.437 -4.484,-8.204 -1.526,-2.769 -4.485,-6.966 -6.585,-5.632 -2.099,1.337 0.574,6.203 1.718,8.113 1.145,1.909 5.821,7.442 9.351,5.723 z"
       style="fill:none;stroke:#231f20;stroke-width:0.5;stroke-linecap:round;stroke-linejoin:round;stroke-miterlimit:4;stroke-dasharray:2.8, 1.8;stroke-dashoffset:0;stroke-opacity:1"
       id="path838" />
    <path
       d="m 649.885,585.368 c -2.759,-1.697 -4.731,-6.07 -4.731,-8.294 0,-2.225 4.262,-5.006 9.638,-5.933 5.376,-0.928 11.124,-2.224 17.057,-1.483"
       style="fill:none;stroke:#231f20;stroke-width:0.5;stroke-linecap:round;stroke-linejoin:round;stroke-miterlimit:4;stroke-dasharray:2.8, 1.8;stroke-dashoffset:0;stroke-opacity:1"
       id="path840" />
    <path
       d="m 430.118,585.368 c 2.758,-1.698 4.732,-6.071 4.732,-8.294 0,-2.226 -4.265,-5.006 -9.64,-5.934 -5.376,-0.927 -11.124,-2.224 -17.056,-1.482"
       style="fill:none;stroke:#231f20;stroke-width:0.5;stroke-linecap:round;stroke-linejoin:round;stroke-miterlimit:4;stroke-dasharray:2.8, 1.8;stroke-dashoffset:0;stroke-opacity:1"
       id="path842" />
    <path
       d="m 630.64,574.212 c 1.72,-3.071 13.402,-14.009 24.71,-17.902"
       style="fill:none;stroke:#231f20;stroke-width:0.5;stroke-linecap:round;stroke-linejoin:round;stroke-miterlimit:4;stroke-dasharray:2.8, 1.8;stroke-dashoffset:0;stroke-opacity:1"
       id="path844" />
    <path
       d="m 622.503,551.797 c 5.409,-0.122 14.677,-0.679 26.359,2.474 11.679,3.151 15.012,5.308 19.647,5.526"
       style="fill:none;stroke:#231f20;stroke-width:0.5;stroke-linecap:round;stroke-linejoin:round;stroke-miterlimit:4;stroke-dasharray:2.8, 1.8;stroke-dashoffset:0;stroke-opacity:1"
       id="path846" />
    <path
       d="m 449.361,574.212 c -1.719,-3.072 -13.4,-14.009 -24.707,-17.902"
       style="fill:none;stroke:#231f20;stroke-width:0.5;stroke-linecap:round;stroke-linejoin:round;stroke-miterlimit:4;stroke-dasharray:2.8, 1.8;stroke-dashoffset:0;stroke-opacity:1"
       id="path848" />
    <path
       d="m 457.5,551.797 c -5.409,-0.122 -14.678,-0.679 -26.358,2.472 -11.68,3.153 -15.012,5.308 -19.648,5.528"
       style="fill:none;stroke:#231f20;stroke-width:0.5;stroke-linecap:round;stroke-linejoin:round;stroke-miterlimit:4;stroke-dasharray:2.8, 1.8;stroke-dashoffset:0;stroke-opacity:1"
       id="path850" />
    <path
       d="m 585.387,555.152 c 0.923,2.201 0.07,5.793 6.558,5.051 6.491,-0.742 8.499,-2.601 8.871,-6.517"
       style="fill:none;stroke:#231f20;stroke-width:0.5;stroke-linecap:round;stroke-linejoin:round;stroke-miterlimit:4;stroke-dasharray:2.8, 1.8;stroke-dashoffset:0;stroke-opacity:1"
       id="path852" />
    <path
       d="m 559.273,503.473 c 3.522,1.484 7.646,3.894 10.797,7.23 3.15,3.337 9.826,7.973 5.376,12.979 0,0 -5.561,4.819 -10.937,8.156 -5.378,3.338 -10.938,6.303 -12.236,6.303 -1.298,0 -5.561,-3.15 -7.231,-4.634 -1.668,-1.483 -3.708,-5.747 -2.965,-8.157 0.74,-2.41 0.555,-6.86 0,-9.455 -0.558,-2.596 -0.188,-5.932 1.668,-7.045 1.855,-1.112 3.816,-5.094 7.71,-5.465"
       style="fill:none;stroke:#231f20;stroke-width:0.5;stroke-linecap:round;stroke-linejoin:round;stroke-miterlimit:4;stroke-dasharray:2.8, 1.8;stroke-dashoffset:0;stroke-opacity:1"
       id="path854" />
    <path
       d="m 548.295,502.302 c 0.741,0.185 1.752,1.358 5.646,1.171 3.893,-0.184 7.23,0.557 9.27,-1.112 2.039,-1.668 4.079,-3.522 3.151,-6.302 -0.928,-2.78 -4.263,-4.266 -8.343,-2.597 -4.078,1.669 -6.119,5.007 -7.044,5.934 -0.928,0.926 -0.434,1.924 -4.388,3.835"
       style="fill:none;stroke:#231f20;stroke-width:0.5;stroke-linecap:round;stroke-linejoin:round;stroke-miterlimit:4;stroke-dasharray:2.8, 1.8;stroke-dashoffset:0;stroke-opacity:1"
       id="path856" />
    <path
       d="m 623.777,550.949 c 3.425,-2.664 10.253,-3.723 12.663,-4.835 2.411,-1.112 7.786,-5.007 6.674,-11.31 -1.114,-6.303 -8.159,-11.495 -22.248,-11.68 -14.089,-0.184 -22.313,1.139 -29.729,3.363"
       style="fill:none;stroke:#231f20;stroke-width:0.5;stroke-linecap:round;stroke-linejoin:round;stroke-miterlimit:4;stroke-dasharray:2.8, 1.8;stroke-dashoffset:0;stroke-opacity:1"
       id="path858" />
    <path
       d="m 578.041,556.866 c 0.362,0 2.22,-0.389 4.826,-0.904 5.441,-1.07 13.398,-2.706 18.537,-2.456 2.547,0.125 6.124,0.23 8.898,0.187 1.198,-0.018 2.608,-0.076 3.753,-0.149"
       style="fill:none;stroke:#231f20;stroke-width:0.5;stroke-linecap:round;stroke-linejoin:round;stroke-miterlimit:4;stroke-dasharray:2.8, 1.8;stroke-dashoffset:0;stroke-opacity:1"
       id="path860" />
    <path
       d="m 494.615,555.152 c -0.922,2.201 -0.07,5.793 -6.558,5.051 -6.491,-0.742 -8.498,-2.601 -8.871,-6.517"
       style="fill:none;stroke:#231f20;stroke-width:0.5;stroke-linecap:round;stroke-linejoin:round;stroke-miterlimit:4;stroke-dasharray:2.8, 1.8;stroke-dashoffset:0;stroke-opacity:1"
       id="path862" />
    <path
       d="m 456.225,550.949 c -3.425,-2.664 -10.253,-3.723 -12.663,-4.835 -2.41,-1.112 -7.786,-5.007 -6.673,-11.31 1.112,-6.303 8.158,-11.495 22.247,-11.68 14.089,-0.184 22.314,1.139 29.73,3.363"
       style="fill:none;stroke:#231f20;stroke-width:0.5;stroke-linecap:round;stroke-linejoin:round;stroke-miterlimit:4;stroke-dasharray:2.8, 1.8;stroke-dashoffset:0;stroke-opacity:1"
       id="path864" />
    <path
       d="m 501.961,556.866 c -0.362,0 -2.219,-0.389 -4.826,-0.904 -5.44,-1.07 -13.398,-2.706 -18.537,-2.456 -2.546,0.125 -6.123,0.23 -8.898,0.187 -1.199,-0.018 -2.608,-0.076 -3.753,-0.149"
       style="fill:none;stroke:#231f20;stroke-width:0.5;stroke-linecap:round;stroke-linejoin:round;stroke-miterlimit:4;stroke-dasharray:2.8, 1.8;stroke-dashoffset:0;stroke-opacity:1"
       id="path866" />
    <path
       d="m 520.73,503.473 c -3.522,1.484 -7.646,3.894 -10.797,7.23 -3.151,3.337 -9.826,7.972 -5.376,12.978 0,0 5.561,4.82 10.938,8.157 5.377,3.338 10.937,6.303 12.235,6.303 1.298,0 5.562,-3.151 7.23,-4.634 1.668,-1.484 3.708,-5.747 2.966,-8.159 -0.741,-2.408 -0.554,-6.859 0,-9.454 0.557,-2.596 0.187,-5.933 -1.668,-7.045 -1.853,-1.111 -3.816,-5.093 -7.709,-5.464"
       style="fill:none;stroke:#231f20;stroke-width:0.5;stroke-linecap:round;stroke-linejoin:round;stroke-miterlimit:4;stroke-dasharray:2.8, 1.8;stroke-dashoffset:0;stroke-opacity:1"
       id="path868" />
    <path
       d="m 531.708,502.299 c -0.742,0.187 -1.752,1.36 -5.646,1.174 -3.894,-0.185 -7.23,0.557 -9.27,-1.112 -2.039,-1.668 -4.078,-3.522 -3.151,-6.304 0.926,-2.78 4.264,-4.264 8.342,-2.595 4.079,1.669 6.118,5.006 7.045,5.932 0.928,0.928 0.433,1.926 4.388,3.837"
       style="fill:none;stroke:#231f20;stroke-width:0.5;stroke-linecap:round;stroke-linejoin:round;stroke-miterlimit:4;stroke-dasharray:2.8, 1.8;stroke-dashoffset:0;stroke-opacity:1"
       id="path870" />
    <path
       d="m 700.212,432.655 c -7.416,0.185 -8.525,10.753 -7.23,15.573 1.265,4.698 -0.186,16.314 -1.853,23.916 -1.668,7.601 -7.416,20.021 -18.54,29.847 -11.121,9.825 -19.465,18.724 -23.542,21.32 -4.081,2.595 -7.745,4.488 -6.192,10.401 1.557,5.912 4.895,7.953 9.899,7.58 5.006,-0.369 19.095,-0.369 22.619,2.412"
       style="fill:none;stroke:#231f20;stroke-width:0.5;stroke-linecap:round;stroke-linejoin:round;stroke-miterlimit:4;stroke-dasharray:2.8, 1.8;stroke-dashoffset:0;stroke-opacity:1"
       id="path872" />
    <path
       d="m 694.094,548.895 c -5.19,0.37 -13.531,-2.04 -18.721,-5.191 -5.194,-3.153 -16.007,-19.373 -3.463,-41.111"
       style="fill:none;stroke:#231f20;stroke-width:0.5;stroke-linecap:round;stroke-linejoin:round;stroke-miterlimit:4;stroke-dasharray:2.8, 1.8;stroke-dashoffset:0;stroke-opacity:1"
       id="path874" />
    <path
       d="m 379.79,432.654 c 7.415,0.186 8.528,10.754 7.23,15.573 -1.266,4.699 0.185,16.315 1.854,23.915 1.668,7.601 7.415,20.023 18.539,29.848 11.123,9.826 19.465,18.724 23.545,21.319 4.078,2.596 7.744,4.49 6.189,10.403 -1.556,5.912 -4.893,7.953 -9.897,7.58 -5.006,-0.371 -19.096,-0.371 -22.619,2.41"
       style="fill:none;stroke:#231f20;stroke-width:0.5;stroke-linecap:round;stroke-linejoin:round;stroke-miterlimit:4;stroke-dasharray:2.8, 1.8;stroke-dashoffset:0;stroke-opacity:1"
       id="path876" />
    <path
       d="m 385.907,548.894 c 5.191,0.37 13.533,-2.039 18.724,-5.192 5.192,-3.151 16.006,-19.372 3.461,-41.109"
       style="fill:none;stroke:#231f20;stroke-width:0.5;stroke-linecap:round;stroke-linejoin:round;stroke-miterlimit:4;stroke-dasharray:2.8, 1.8;stroke-dashoffset:0;stroke-opacity:1"
       id="path878" />
    <path
       d="m 631.176,379.774 c 3.967,0.23 21.364,5.824 26.74,15.65"
       style="fill:none;stroke:#231f20;stroke-width:0.5;stroke-linecap:round;stroke-linejoin:round;stroke-miterlimit:4;stroke-dasharray:2.8, 1.8;stroke-dashoffset:0;stroke-opacity:1"
       id="path880" />
    <path
       d="m 448.827,379.774 c -3.965,0.23 -21.365,5.824 -26.741,15.649"
       style="fill:none;stroke:#231f20;stroke-width:0.5;stroke-linecap:round;stroke-linejoin:round;stroke-miterlimit:4;stroke-dasharray:2.8, 1.8;stroke-dashoffset:0;stroke-opacity:1"
       id="path882" />
    <path
       d="m 605.7,568.903 c 0,0 -0.702,-5.979 -0.618,-7.654 0.12,-2.368 3.387,-6.399 5.22,-7.556"
       style="fill:none;stroke:#231f20;stroke-width:0.5;stroke-linecap:round;stroke-linejoin:round;stroke-miterlimit:4;stroke-dasharray:2.8, 1.8;stroke-dashoffset:0;stroke-opacity:1"
       id="path884" />
    <path
       d="m 474.302,568.903 c 0,0 0.702,-5.979 0.619,-7.655 -0.12,-2.367 -3.387,-6.398 -5.219,-7.555"
       style="fill:none;stroke:#231f20;stroke-width:0.5;stroke-linecap:round;stroke-linejoin:round;stroke-miterlimit:4;stroke-dasharray:2.8, 1.8;stroke-dashoffset:0;stroke-opacity:1"
       id="path886" />
    <path
       d="m 545.085,466.421 c 1.856,0 4.677,-7.631 5.047,-11.339 0.372,-3.708 -0.772,-11.674 -4.347,-11.674 -3.577,0 -3.852,4.988 -3.852,8.523 0,3.535 1.3,14.49 3.152,14.49 z"
       style="fill:none;stroke:#231f20;stroke-width:0.5;stroke-linecap:round;stroke-linejoin:round;stroke-miterlimit:4;stroke-dasharray:2.8, 1.8;stroke-dashoffset:0;stroke-opacity:1"
       id="path888" />
    <path
       d="m 534.916,466.419 c -1.854,0 -4.675,-7.629 -5.046,-11.337 -0.371,-3.708 0.772,-11.674 4.348,-11.674 3.577,0 3.853,4.988 3.853,8.523 0,3.535 -1.301,14.488 -3.155,14.488 z"
       style="fill:none;stroke:#231f20;stroke-width:0.5;stroke-linecap:round;stroke-linejoin:round;stroke-miterlimit:4;stroke-dasharray:2.8, 1.8;stroke-dashoffset:0;stroke-opacity:1"
       id="path890" />
    <path
       d="m 562.54,541.278 c 0.912,1.29 6.107,0.952 10.534,0.156 4.426,-0.794 21.134,-5.186 18.063,-14.947"
       style="fill:none;stroke:#231f20;stroke-width:0.5;stroke-linecap:round;stroke-linejoin:round;stroke-miterlimit:4;stroke-dasharray:2.8, 1.8;stroke-dashoffset:0;stroke-opacity:1"
       id="path892" />
    <path
       d="m 584.122,527.663 c -3.296,0.004 -9.993,2.706 -12.976,5.232 -2.984,2.525 -8.79,10.11 -12.256,10.944"
       style="fill:none;stroke:#231f20;stroke-width:0.5;stroke-linecap:round;stroke-linejoin:round;stroke-miterlimit:4;stroke-dasharray:2.8, 1.8;stroke-dashoffset:0;stroke-opacity:1"
       id="path894" />
    <path
       d="m 585.387,555.152 c -0.744,-5.953 17.236,-12.607 15.429,-1.466"
       style="fill:none;stroke:#231f20;stroke-width:0.5;stroke-linecap:round;stroke-linejoin:round;stroke-miterlimit:4;stroke-dasharray:2.8, 1.8;stroke-dashoffset:0;stroke-opacity:1"
       id="path896" />
    <path
       d="m 615.381,540.549 c -0.236,4.738 -10.792,14.752 -15.022,9.149 -3.47,-4.601 -0.078,-13.94 2.626,-12.855"
       style="fill:none;stroke:#231f20;stroke-width:0.5;stroke-linecap:round;stroke-linejoin:round;stroke-miterlimit:4;stroke-dasharray:2.8, 1.8;stroke-dashoffset:0;stroke-opacity:1"
       id="path898" />
    <path
       d="m 615.366,540.558 c 1.546,-0.872 4.19,-2.619 7.102,-3.336 3.884,-0.958 12.642,-4.891 19.887,-3.426"
       style="fill:none;stroke:#231f20;stroke-width:0.5;stroke-linecap:round;stroke-linejoin:round;stroke-miterlimit:4;stroke-dasharray:2.8, 1.8;stroke-dashoffset:0;stroke-opacity:1"
       id="path900" />
    <path
       d="m 591.149,526.843 c 0,0 7.306,6.469 9.572,8.235 2.264,1.765 7.307,6.154 8.403,6.199"
       style="fill:none;stroke:#231f20;stroke-width:0.5;stroke-linecap:round;stroke-linejoin:round;stroke-miterlimit:4;stroke-dasharray:2.8, 1.8;stroke-dashoffset:0;stroke-opacity:1"
       id="path902" />
    <path
       d="m 620.069,538.043 c 0.838,-9.946 9.528,-9.597 10.473,-13.319"
       style="fill:none;stroke:#231f20;stroke-width:0.5;stroke-linecap:round;stroke-linejoin:round;stroke-miterlimit:4;stroke-dasharray:2.8, 1.8;stroke-dashoffset:0;stroke-opacity:1"
       id="path904" />
    <path
       d="m 517.462,541.278 c -0.911,1.29 -6.107,0.952 -10.533,0.156 -4.427,-0.794 -21.134,-5.186 -18.063,-14.947"
       style="fill:none;stroke:#231f20;stroke-width:0.5;stroke-linecap:round;stroke-linejoin:round;stroke-miterlimit:4;stroke-dasharray:2.8, 1.8;stroke-dashoffset:0;stroke-opacity:1"
       id="path906" />
    <path
       d="m 495.881,527.663 c 3.296,0.004 9.993,2.706 12.975,5.232 2.984,2.525 8.79,10.11 12.256,10.944"
       style="fill:none;stroke:#231f20;stroke-width:0.5;stroke-linecap:round;stroke-linejoin:round;stroke-miterlimit:4;stroke-dasharray:2.8, 1.8;stroke-dashoffset:0;stroke-opacity:1"
       id="path908" />
    <path
       d="m 494.615,555.152 c 0.744,-5.953 -17.236,-12.607 -15.429,-1.466"
       style="fill:none;stroke:#231f20;stroke-width:0.5;stroke-linecap:round;stroke-linejoin:round;stroke-miterlimit:4;stroke-dasharray:2.8, 1.8;stroke-dashoffset:0;stroke-opacity:1"
       id="path910" />
    <path
       d="m 464.621,540.549 c 0.237,4.738 10.792,14.752 15.022,9.149 3.47,-4.601 0.079,-13.94 -2.625,-12.855"
       style="fill:none;stroke:#231f20;stroke-width:0.5;stroke-linecap:round;stroke-linejoin:round;stroke-miterlimit:4;stroke-dasharray:2.8, 1.8;stroke-dashoffset:0;stroke-opacity:1"
       id="path912" />
    <path
       d="m 464.637,540.558 c -1.547,-0.872 -4.19,-2.619 -7.103,-3.336 -3.883,-0.958 -12.642,-4.891 -19.886,-3.426"
       style="fill:none;stroke:#231f20;stroke-width:0.5;stroke-linecap:round;stroke-linejoin:round;stroke-miterlimit:4;stroke-dasharray:2.8, 1.8;stroke-dashoffset:0;stroke-opacity:1"
       id="path914" />
    <path
       d="m 488.853,526.843 c 0,0 -7.306,6.469 -9.572,8.235 -2.263,1.765 -7.307,6.154 -8.404,6.199"
       style="fill:none;stroke:#231f20;stroke-width:0.5;stroke-linecap:round;stroke-linejoin:round;stroke-miterlimit:4;stroke-dasharray:2.8, 1.8;stroke-dashoffset:0;stroke-opacity:1"
       id="path916" />
    <path
       d="m 459.933,538.043 c -0.838,-9.946 -9.528,-9.597 -10.473,-13.319"
       style="fill:none;stroke:#231f20;stroke-width:0.5;stroke-linecap:round;stroke-linejoin:round;stroke-miterlimit:4;stroke-dasharray:2.8, 1.8;stroke-dashoffset:0;stroke-opacity:1"
       id="path918" />
    <path
       d="m 540.002,828.277 c -4.414,0 -23.025,-1.113 -30.81,-2.411 -7.787,-1.297 -22.062,-2.966 -26.326,-2.595 -8.126,0.707 -17.984,1.669 -21.32,3.522 -3.336,1.855 -0.555,4.635 1.113,4.45 1.669,-0.185 5.561,-0.556 10.566,0.185 5.006,0.741 15.944,7.231 22.619,10.196 6.673,2.967 14.83,5.192 19.465,5.562 4.635,0.371 22.617,4.449 24.693,4.449 2.075,0 20.057,-4.078 24.693,-4.449 4.633,-0.37 12.791,-2.595 19.465,-5.562 6.672,-2.965 17.611,-9.455 22.617,-10.196 5.006,-0.741 8.898,-0.37 10.566,-0.185 1.67,0.185 4.451,-2.595 1.113,-4.45 -3.335,-1.853 -13.192,-2.815 -21.321,-3.522 -4.262,-0.371 -18.536,1.298 -26.325,2.595 -7.786,1.298 -26.396,2.411 -30.808,2.411"
       style="fill:#d3d2d2;fill-opacity:1;fill-rule:nonzero;stroke:none;stroke-width:0.1"
       id="path920" />
    <path
       d="m 540.002,828.277 c -4.414,0 -23.025,-1.113 -30.81,-2.411 -7.787,-1.297 -22.062,-2.966 -26.326,-2.595 -8.126,0.707 -17.984,1.669 -21.32,3.522 -3.336,1.855 -0.555,4.635 1.113,4.45 1.669,-0.185 5.561,-0.556 10.566,0.185 5.006,0.741 15.944,7.231 22.619,10.196 6.673,2.967 14.83,5.192 19.465,5.562 4.635,0.371 22.617,4.449 24.693,4.449 2.075,0 20.057,-4.078 24.693,-4.449 4.633,-0.37 12.791,-2.595 19.465,-5.562 6.672,-2.965 17.611,-9.455 22.617,-10.196 5.006,-0.741 8.898,-0.37 10.566,-0.185 1.67,0.185 4.451,-2.595 1.113,-4.45 -3.335,-1.853 -13.192,-2.815 -21.321,-3.522 -4.262,-0.371 -18.536,1.298 -26.325,2.595 -7.786,1.298 -26.396,2.411 -30.808,2.411 z"
       style="fill:none;stroke:#231f20;stroke-width:0.75;stroke-linecap:round;stroke-linejoin:round;stroke-miterlimit:4;stroke-dasharray:0, 2;stroke-dashoffset:0;stroke-opacity:1"
       id="path922" />
    <path
       d="m 540.002,754.309 -37.485,0.553 c -12.786,0.285 -24.842,1.112 -32.813,1.854 -7.972,0.742 -13.986,-5.514 -18.169,-10.567 -4.546,-5.493 -9.825,-14.46 -16.685,-23.545 -6.859,-9.083 -23.545,-32.442 -33,-40.043 -17.038,-13.698 -22.803,-19.281 -35.417,-28.519 -11.862,-8.687 -23.166,-19.312 -31.323,-25.987 -8.157,-6.673 -18.538,-14.83 -21.876,-17.24 -3.337,-2.41 -8.713,-6.118 -12.235,-10.754 -3.522,-4.633 -4.079,-9.269 -10.567,-10.753 -6.489,-1.482 -11.865,3.708 -16.314,9.084 -4.45,5.378 -6.861,9.641 -7.416,13.164 -0.556,3.523 0.93,9.633 5.38,11.858 4.449,2.223 14.828,6.867 24.467,10.575 9.64,3.707 30.993,12.695 37.635,17.241 7.044,4.82 24.508,19.852 22.097,28.194 -2.41,8.342 -16.165,9.254 -22.469,8.698 -6.302,-0.556 -21.505,-3.522 -34.296,-11.123 -12.792,-7.601 -23.73,-17.056 -28.551,-20.949 -4.819,-3.894 -9.64,-6.118 -13.162,-0.927 -3.523,5.19 -1.483,9.455 1.112,12.977 2.595,3.523 5.192,6.304 7.416,8.713 2.225,2.41 3.893,4.265 3.893,6.489 0,2.225 0,4.078 1.112,6.303 1.431,2.862 4.079,7.23 2.226,9.27 -2.67,2.935 -15.389,-7.601 -17.428,-7.601 -2.039,0 -3.522,1.111 -3.522,13.533 0,12.421 2.274,20.542 9.085,29.847 5.56,7.601 8.342,9.826 31.532,29.27 12.471,10.456 28.163,18.561 47.814,27.089 19.651,8.529 31.886,11.68 41.528,11.865 9.64,0.186 19.279,-1.112 23.728,-5.933 4.45,-4.82 18.169,-9.64 23.731,-11.679 5.561,-2.04 17.982,-2.781 29.847,-5.377 11.867,-2.595 31.887,-4.449 44.68,-5.56 12.792,-1.113 30.774,-2.597 35.445,-2.597 4.67,0 22.652,1.484 35.444,2.597 12.791,1.111 32.813,2.965 44.68,5.56 11.864,2.596 24.286,3.337 29.846,5.377 5.563,2.039 19.282,6.859 23.73,11.679 4.451,4.821 14.09,6.119 23.73,5.933 9.642,-0.185 21.878,-3.336 41.528,-11.865 19.652,-8.528 35.343,-16.633 47.814,-27.089 23.191,-19.444 25.972,-21.669 31.532,-29.27 6.81,-9.305 9.084,-17.426 9.084,-29.847 0,-12.422 -1.482,-13.533 -3.52,-13.533 -2.04,0 -14.758,10.536 -17.427,7.601 -1.856,-2.04 0.792,-6.408 2.223,-9.27 1.112,-2.225 1.112,-4.078 1.112,-6.303 0,-2.224 1.671,-4.079 3.893,-6.489 2.225,-2.409 4.821,-5.19 7.415,-8.713 2.596,-3.522 4.636,-7.787 1.114,-12.977 -3.524,-5.191 -8.341,-2.967 -13.162,0.927 -4.821,3.893 -15.759,13.348 -28.551,20.949 -12.791,7.601 -27.993,10.567 -34.296,11.123 -6.304,0.556 -20.058,-0.356 -22.468,-8.698 -2.411,-8.342 15.052,-23.374 22.095,-28.194 6.643,-4.546 27.996,-13.534 37.635,-17.241 9.64,-3.708 20.019,-8.352 24.467,-10.575 4.451,-2.225 5.939,-8.335 5.381,-11.858 -0.555,-3.523 -2.966,-7.786 -7.416,-13.163 -4.448,-5.377 -9.826,-10.567 -16.314,-9.083 -6.489,1.482 -7.043,6.118 -10.567,10.752 -3.522,4.635 -8.898,8.343 -12.236,10.753 -3.338,2.41 -13.719,10.567 -21.875,17.24 -8.158,6.675 -19.459,17.3 -31.323,25.987 -12.614,9.238 -18.379,14.821 -35.417,28.519 -9.456,7.601 -26.141,30.96 -32.999,40.043 -6.86,9.085 -12.139,18.052 -16.687,23.545 -4.181,5.053 -10.196,11.309 -18.168,10.567 -7.97,-0.742 -20.027,-1.569 -32.813,-1.854 l -37.484,-0.553"
       style="fill:#d3d2d2;fill-opacity:1;fill-rule:nonzero;stroke:none;stroke-width:0.1"
       id="path924" />
    <path
       d="m 540.002,754.309 -37.485,0.553 c -12.786,0.285 -24.842,1.112 -32.813,1.854 -7.972,0.742 -13.986,-5.514 -18.169,-10.567 -4.546,-5.493 -9.825,-14.46 -16.685,-23.545 -6.859,-9.083 -23.545,-32.442 -33,-40.043 -17.038,-13.698 -22.803,-19.281 -35.417,-28.519 -11.862,-8.687 -23.166,-19.312 -31.323,-25.987 -8.157,-6.673 -18.538,-14.83 -21.876,-17.24 -3.337,-2.41 -8.713,-6.118 -12.235,-10.754 -3.522,-4.633 -4.079,-9.269 -10.567,-10.753 -6.489,-1.482 -11.865,3.708 -16.314,9.084 -4.45,5.378 -6.861,9.641 -7.416,13.164 -0.556,3.523 0.93,9.633 5.38,11.858 4.449,2.223 14.828,6.867 24.467,10.575 9.64,3.707 30.993,12.695 37.635,17.241 7.044,4.82 24.508,19.852 22.097,28.194 -2.41,8.342 -16.165,9.254 -22.469,8.698 -6.302,-0.556 -21.505,-3.522 -34.296,-11.123 -12.792,-7.601 -23.73,-17.056 -28.551,-20.949 -4.819,-3.894 -9.64,-6.118 -13.162,-0.927 -3.523,5.19 -1.483,9.455 1.112,12.977 2.595,3.523 5.192,6.304 7.416,8.713 2.225,2.41 3.893,4.265 3.893,6.489 0,2.225 0,4.078 1.112,6.303 1.431,2.862 4.079,7.23 2.226,9.27 -2.67,2.935 -15.389,-7.601 -17.428,-7.601 -2.039,0 -3.522,1.111 -3.522,13.533 0,12.421 2.274,20.542 9.085,29.847 5.56,7.601 8.342,9.826 31.532,29.27 12.471,10.456 28.163,18.561 47.814,27.089 19.651,8.529 31.886,11.68 41.528,11.865 9.64,0.186 19.279,-1.112 23.728,-5.933 4.45,-4.82 18.169,-9.64 23.731,-11.679 5.561,-2.04 17.982,-2.781 29.847,-5.377 11.867,-2.595 31.887,-4.449 44.68,-5.56 12.792,-1.113 30.774,-2.597 35.445,-2.597 4.67,0 22.652,1.484 35.444,2.597 12.791,1.111 32.813,2.965 44.68,5.56 11.864,2.596 24.286,3.337 29.846,5.377 5.563,2.039 19.282,6.859 23.73,11.679 4.451,4.821 14.09,6.119 23.73,5.933 9.642,-0.185 21.878,-3.336 41.528,-11.865 19.652,-8.528 35.343,-16.633 47.814,-27.089 23.191,-19.444 25.972,-21.669 31.532,-29.27 6.81,-9.305 9.084,-17.426 9.084,-29.847 0,-12.422 -1.482,-13.533 -3.52,-13.533 -2.04,0 -14.758,10.536 -17.427,7.601 -1.856,-2.04 0.792,-6.408 2.223,-9.27 1.112,-2.225 1.112,-4.078 1.112,-6.303 0,-2.224 1.671,-4.079 3.893,-6.489 2.225,-2.409 4.821,-5.19 7.415,-8.713 2.596,-3.522 4.636,-7.787 1.114,-12.977 -3.524,-5.191 -8.341,-2.967 -13.162,0.927 -4.821,3.893 -15.759,13.348 -28.551,20.949 -12.791,7.601 -27.993,10.567 -34.296,11.123 -6.304,0.556 -20.058,-0.356 -22.468,-8.698 -2.411,-8.342 15.052,-23.374 22.095,-28.194 6.643,-4.546 27.996,-13.534 37.635,-17.241 9.64,-3.708 20.019,-8.352 24.467,-10.575 4.451,-2.225 5.939,-8.335 5.381,-11.858 -0.555,-3.523 -2.966,-7.786 -7.416,-13.163 -4.448,-5.377 -9.826,-10.567 -16.314,-9.083 -6.489,1.482 -7.043,6.118 -10.567,10.752 -3.522,4.635 -8.898,8.343 -12.236,10.753 -3.338,2.41 -13.719,10.567 -21.875,17.24 -8.158,6.675 -19.459,17.3 -31.323,25.987 -12.614,9.238 -18.379,14.821 -35.417,28.519 -9.456,7.601 -26.141,30.96 -32.999,40.043 -6.86,9.085 -12.139,18.052 -16.687,23.545 -4.181,5.053 -10.196,11.309 -18.168,10.567 -7.97,-0.742 -20.027,-1.569 -32.813,-1.854 z"
       style="fill:none;stroke:#231f20;stroke-width:0.75;stroke-linecap:round;stroke-linejoin:round;stroke-miterlimit:4;stroke-dasharray:0, 2;stroke-dashoffset:0;stroke-opacity:1"
       id="path926" />
    <path
       d="m 461.732,661.425 c -2.04,0 -3.338,-1.482 -5.191,-3.708 -1.854,-2.223 -20.393,-26.695 -24.657,-32.072 -4.264,-5.375 -13.534,-16.128 -20.763,-19.836 -7.231,-3.708 -34.668,-15.017 -45.606,-18.17 -10.939,-3.15 -28.736,-5.375 -35.039,-5.931 -6.304,-0.557 -7.045,4.819 -4.449,8.157 2.595,3.337 11.679,12.791 15.572,16.13 3.894,3.336 7.786,7.971 17.798,14.275 10.011,6.303 22.432,10.196 29.662,12.234 7.23,2.039 15.572,3.708 25.954,10.938 10.383,7.231 21.876,24.844 28.55,33.371 6.674,8.528 19.652,25.955 27.994,32.258 8.342,6.303 18.169,9.269 25.584,10.196 7.415,0.928 37.077,3.337 42.861,3.337 5.783,0 35.444,-2.409 42.86,-3.337 7.416,-0.927 17.242,-3.893 25.585,-10.196 8.341,-6.303 21.317,-23.73 27.993,-32.258 6.674,-8.527 18.168,-26.14 28.549,-33.371 10.384,-7.23 18.724,-8.899 25.955,-10.938 7.231,-2.038 19.652,-5.931 29.661,-12.234 10.012,-6.304 13.907,-10.939 17.8,-14.275 3.892,-3.337 12.976,-12.792 15.572,-16.13 2.595,-3.337 1.853,-8.712 -4.451,-8.157 -6.301,0.557 -24.101,2.781 -35.036,5.933 -10.94,3.151 -38.377,14.46 -45.609,18.168 -7.227,3.708 -16.499,14.461 -20.761,19.836 -4.264,5.377 -22.803,29.849 -24.659,32.072 -1.852,2.226 -3.15,3.708 -5.19,3.708"
       style="fill:none;stroke:#231f20;stroke-width:0.75;stroke-linecap:round;stroke-linejoin:round;stroke-miterlimit:4;stroke-dasharray:0, 2;stroke-dashoffset:0;stroke-opacity:1"
       id="path928" />
    <path
       d="m 540.002,651.971 c -3.488,0 -19.039,0.278 -30.44,0.278 -11.401,0 -26.14,2.781 -32.535,6.118 -6.397,3.338 -4.729,7.787 0.834,13.627 5.561,5.838 13.347,9.175 23.637,11.957 10.289,2.78 29.199,4.449 38.504,4.449 9.303,0 28.212,-1.669 38.504,-4.449 10.288,-2.782 18.075,-6.119 23.635,-11.957 5.564,-5.84 7.232,-10.289 0.835,-13.627 -6.395,-3.337 -21.135,-6.118 -32.536,-6.118 -11.401,0 -26.951,-0.278 -30.438,-0.278 z"
       style="fill:none;stroke:#231f20;stroke-width:0.75;stroke-linecap:round;stroke-linejoin:round;stroke-miterlimit:4;stroke-dasharray:0, 2;stroke-dashoffset:0;stroke-opacity:1"
       id="path930" />
    <path
       d="m 433.9,610.971 c 4.634,0 13.371,-0.713 19.304,-2.011 5.932,-1.296 25.027,-4.82 48.015,-7.417 22.989,-2.593 30.404,-0.74 38.783,-0.74 8.378,0 15.792,-1.853 38.782,0.742 22.987,2.595 42.082,6.119 48.015,7.415 5.934,1.298 14.668,2.011 19.304,2.011"
       style="fill:none;stroke:#231f20;stroke-width:0.75;stroke-linecap:round;stroke-linejoin:round;stroke-miterlimit:4;stroke-dasharray:0, 2;stroke-dashoffset:0;stroke-opacity:1"
       id="path932" />
    <path
       d="m 425.21,601.173 c 0.741,-7.414 12.05,-7.785 21.875,-10.567 9.827,-2.78 19.096,-5.006 28.18,-7.23 9.084,-2.225 21.505,-4.264 32.258,-6.86 10.752,-2.595 23.174,-2.038 32.479,-2.038 9.303,0 21.724,-0.557 32.478,2.039 10.752,2.595 23.173,4.636 32.257,6.859 9.086,2.226 18.354,4.452 28.181,7.232 9.826,2.78 21.134,3.151 21.874,10.567"
       style="fill:none;stroke:#231f20;stroke-width:0.75;stroke-linecap:round;stroke-linejoin:round;stroke-miterlimit:4;stroke-dasharray:0, 2;stroke-dashoffset:0;stroke-opacity:1"
       id="path934" />
    <path
       d="m 540.002,761.351 c -8.678,0 -47.125,1.855 -55.097,2.78 -7.972,0.927 -15.56,2.009 -24.1,2.226 -8.904,0.225 -11.68,-7.416 -19.651,-17.983 -7.973,-10.568 -12.608,-17.797 -21.135,-26.696 -8.527,-8.899 -18.539,-22.247 -22.247,-26.14 -7.415,-7.787 -14.47,-15.153 -19.28,-20.208 -5.072,-5.329 -10.678,-10.223 -17.242,-15.944 -6.525,-5.687 -20.207,-17.611 -26.325,-22.331 -6.118,-4.719 -20.763,-12.522 -21.32,-11.595 -0.556,0.928 5.376,6.119 9.826,10.381 4.449,4.265 26.695,21.505 38.005,30.961 11.309,9.454 20.578,19.652 26.51,27.993 5.932,8.343 5.933,11.681 2.967,15.759 -2.966,4.079 -9.084,3.894 -15.944,3.708 -6.859,-0.185 -21.319,-2.41 -29.662,-2.967 -8.343,-0.556 -17.612,-1.669 -24.472,-4.263 -6.859,-2.596 -13.903,-9.825 -17.426,-12.792 -3.523,-2.966 -5.747,-1.669 -4.82,-0.186 0.927,1.484 4.45,6.674 5.746,15.572 1.298,8.9 1.484,23.731 0.928,29.478 -0.556,5.747 1.297,9.084 3.152,9.825 1.853,0.742 2.966,-1.111 3.708,-3.151 0.741,-2.039 2.78,-6.303 4.263,-9.455 1.484,-3.152 2.595,-9.454 14.09,-12.977 11.494,-3.522 21.875,-4.635 36.15,-3.522 14.276,1.112 29.663,8.714 48.387,20.763 18.725,12.05 24.472,21.505 32.258,27.809 7.787,6.303 10.567,5.747 15.944,4.449 5.376,-1.298 30.218,-4.264 36.706,-4.635 6.489,-0.371 35.41,-2.224 40.081,-2.224 4.67,0 33.591,1.853 40.08,2.224 6.488,0.371 31.331,3.337 36.706,4.635 5.376,1.298 8.159,1.854 15.945,-4.449 7.785,-6.304 13.531,-15.759 32.256,-27.809 18.724,-12.049 34.111,-19.651 48.387,-20.763 14.275,-1.113 24.656,0 36.15,3.522 11.497,3.523 12.606,9.825 14.092,12.977 1.482,3.152 3.52,7.416 4.262,9.455 0.744,2.04 1.856,3.893 3.708,3.151 1.853,-0.741 3.708,-4.078 3.151,-9.825 -0.555,-5.747 -0.37,-20.578 0.927,-29.478 1.298,-8.898 4.821,-14.088 5.749,-15.572 0.927,-1.483 -1.298,-2.78 -4.821,0.186 -3.523,2.967 -10.569,10.196 -17.426,12.792 -6.859,2.594 -16.13,3.707 -24.471,4.263 -8.344,0.557 -22.806,2.782 -29.663,2.967 -6.859,0.186 -12.977,0.371 -15.945,-3.708 -2.965,-4.078 -2.965,-7.416 2.968,-15.759 5.931,-8.341 15.201,-18.539 26.511,-27.993 11.308,-9.456 33.556,-26.696 38.004,-30.961 4.451,-4.262 10.381,-9.453 9.826,-10.381 -0.558,-0.927 -15.201,6.876 -21.32,11.595 -6.118,4.72 -19.799,16.644 -26.326,22.331 -6.561,5.721 -12.17,10.615 -17.242,15.944 -4.809,5.055 -11.863,12.421 -19.279,20.208 -3.708,3.893 -13.72,17.241 -22.248,26.14 -8.525,8.899 -13.161,16.128 -21.132,26.696 -7.974,10.567 -10.749,18.208 -19.652,17.983 -8.543,-0.217 -16.13,-1.299 -24.101,-2.226 -7.974,-0.925 -46.419,-2.78 -55.096,-2.78"
       style="fill:#b2b1b1;fill-opacity:1;fill-rule:nonzero;stroke:none;stroke-width:0.1"
       id="path936" />
    <path
       d="m 540.002,585.972 c -7.75,0 -16.536,0.185 -21.912,0.185 -5.376,0 -18.91,2.41 -27.252,4.449 -8.342,2.04 -4.264,2.596 -4.264,2.596 3.893,0.186 10.382,-1.853 23.916,-3.522 13.532,-1.669 23.174,0 29.512,0 6.337,0 15.979,-1.669 29.513,0 13.531,1.669 20.023,3.708 23.915,3.523 0,0 4.078,-0.557 -4.265,-2.595 -8.344,-2.041 -21.875,-4.45 -27.253,-4.45 -5.376,0 -14.16,-0.186 -21.91,-0.186"
       style="fill:#b2b1b1;fill-opacity:1;fill-rule:nonzero;stroke:none;stroke-width:0.1"
       id="path938" />
  </g>
</svg>
