<?xml version="1.0" encoding="UTF-8" standalone="no"?>
<!-- Created with Inkscape (http://www.inkscape.org/) -->

<svg
   version="1.1"
   id="svg2"
   width="1440"
   height="1344"
   viewBox="0 0 1440 1344"
   xmlns="http://www.w3.org/2000/svg"
   xmlns:svg="http://www.w3.org/2000/svg">
  <defs
     id="defs6" />
  <g
     id="g8">
    <path
       d="m 540.002,362.899 c -3.331,0 -6.616,-1.036 -10.447,-5.347 -3.714,-4.178 -20.429,-14.856 -26.929,-14.856 -6.499,0 -32.5,5.571 -37.143,9.285 -4.643,3.713 -8.357,2.786 -16.714,5.571 -8.357,2.786 -33.429,15.787 -39,19.036 -5.571,3.25 -21.822,8.822 -28.321,13 -6.499,4.179 -22.751,18.573 -33.429,25.536 -10.678,6.965 -23.679,25.072 -26.93,32.037 -3.251,6.963 -6.035,28.785 -6.035,53.856 0,25.071 6.501,33.429 6.501,33.429 -16.25,-0.466 -31.108,26.464 -33.894,32.965 -2.785,6.5 0.929,8.356 0.929,8.356 -0.917,0.459 -4.29,2.197 -6.94,3.531 -5.406,2.724 -11.759,5.749 -15.81,6.685 -6.035,1.392 -31.108,9.748 -39,19.498 -7.891,9.75 -19.49,31.574 -19.036,48.287 0.454,16.713 13.929,14.393 13.929,14.393 -19.964,6.964 -20.43,22.286 -21.822,39 -1.393,16.714 2.786,32.036 9.286,48.286 6.501,16.249 23.215,44.571 27.857,49.677 4.643,5.108 25.535,23.679 36.678,28.323 11.144,4.642 19.5,-1.858 19.5,-1.858 -2.785,5.107 -0.464,7.894 8.357,16.25 8.822,8.358 20.894,13.337 30.644,15.195 7.765,1.478 28.322,1.52 36.214,1.055 7.891,-0.464 9.75,-5.571 9.75,-5.571 1.856,5.571 13.929,6.964 19.5,7.893 5.571,0.928 42.715,11.142 56.179,13.464 13.465,2.323 20.893,-13.464 20.893,-13.464 0,0 0.928,-4.179 0,0.928 -0.928,5.109 3.25,9.75 9.285,14.858 6.035,5.106 49.214,10.678 55.948,10.678 6.732,0 49.911,-5.572 55.946,-10.678 6.036,-5.108 10.213,-9.749 9.285,-14.858 -0.928,-5.107 0,-0.928 0,-0.928 0,0 7.429,15.787 20.893,13.464 13.464,-2.322 50.608,-12.536 56.179,-13.464 5.571,-0.929 17.644,-2.322 19.5,-7.893 0,0 1.859,5.107 9.75,5.571 7.893,0.465 28.449,0.423 36.215,-1.055 9.75,-1.858 21.822,-6.837 30.643,-15.195 8.821,-8.356 11.143,-11.143 8.357,-16.25 0,0 8.357,6.5 19.5,1.858 11.143,-4.644 32.036,-23.215 36.678,-28.323 4.642,-5.106 21.357,-33.428 27.857,-49.677 6.501,-16.25 10.68,-31.572 9.286,-48.286 -1.392,-16.714 -1.857,-32.036 -21.821,-39 0,0 13.474,2.32 13.929,-14.393 0.454,-16.713 -11.145,-38.537 -19.037,-48.287 -7.892,-9.75 -32.964,-18.107 -39,-19.5 -4.051,-0.934 -10.403,-3.961 -15.81,-6.683 -2.649,-1.334 -6.022,-3.072 -6.939,-3.531 0,0 3.714,-1.856 0.928,-8.356 -2.785,-6.501 -17.644,-33.431 -33.893,-32.965 0,0 6.5,-8.358 6.5,-33.429 0,-25.071 -2.784,-46.893 -6.035,-53.856 -3.251,-6.965 -16.252,-25.072 -26.93,-32.037 -10.678,-6.963 -26.929,-21.357 -33.429,-25.536 -6.499,-4.178 -22.749,-9.75 -28.32,-13 -5.571,-3.249 -30.644,-16.25 -39,-19.036 -8.358,-2.785 -12.072,-1.858 -16.715,-5.571 -4.643,-3.714 -30.645,-9.285 -37.143,-9.285 -6.5,0 -23.215,10.678 -26.928,14.856 -3.832,4.311 -7.117,5.347 -10.446,5.347"
       style="fill:#ffffff;fill-opacity:1;fill-rule:nonzero;stroke:none;stroke-width:0.1"
       id="path668" />
    <path
       d="m 861.055,652.027 c -1.044,6.616 -12.535,3.83 -17.759,2.785 -5.223,-1.044 -12.187,-7.66 -14.625,-13.231 -2.437,-5.573 -9.053,-9.403 -15.321,-14.625 -6.268,-5.224 -13.741,-11.332 -18.455,-18.108 -5.572,-8.009 1.044,-15.67 -5.224,-24.375 -3.784,-5.258 -18.803,-4.179 -29.598,-2.437 -10.794,1.741 -34.473,5.919 -45.268,8.705 6.616,-3.134 14.277,-9.75 36.911,-14.277 22.634,-4.527 35.518,-2.437 39.697,-0.697 0.917,0.459 4.29,2.197 6.939,3.531 5.407,2.722 11.759,5.749 15.81,6.683 1.386,0.321 3.775,1.007 6.727,1.994 6.495,8.725 27.979,35.846 33.55,43.158 5.572,7.313 7.661,14.278 6.616,20.894"
       style="fill:#d3d2d2;fill-opacity:1;fill-rule:nonzero;stroke:none;stroke-width:0.1"
       id="path670" />
    <path
       d="m 646.555,799.322 c 2.438,6.964 11.839,16.017 20.893,18.803 9.054,2.786 36.679,18.107 34.357,40.393"
       style="fill:none;stroke:#231f20;stroke-width:0.5;stroke-linecap:butt;stroke-linejoin:miter;stroke-miterlimit:4;stroke-dasharray:none;stroke-opacity:1"
       id="path672" />
    <path
       d="m 773.305,807.678 c 2.089,4.179 8.822,15.786 13.465,23.911"
       style="fill:none;stroke:#231f20;stroke-width:0.5;stroke-linecap:butt;stroke-linejoin:miter;stroke-miterlimit:4;stroke-dasharray:none;stroke-opacity:1"
       id="path674" />
    <path
       d="m 703.663,696.598 c 9.75,-6.964 25.419,-10.446 45.616,-7.312 20.196,3.133 30.294,5.92 43.875,0 13.58,-5.92 35.144,-17.98 45.592,-25.292"
       style="fill:none;stroke:#231f20;stroke-width:0.5;stroke-linecap:butt;stroke-linejoin:miter;stroke-miterlimit:4;stroke-dasharray:none;stroke-opacity:1"
       id="path676" />
    <path
       d="m 814.162,585.981 c -4.051,-0.934 -10.403,-3.961 -15.81,-6.683 5.248,3.782 23.007,27.113 28.578,37.908 0,0 -15.786,-25.188 -12.768,-31.225"
       style="fill:#b2b1b1;fill-opacity:1;fill-rule:nonzero;stroke:none;stroke-width:0.1"
       id="path678" />
    <path
       d="m 771.913,634.616 c -15.322,3.83 -41.09,12.187 -53.974,17.758 -12.884,5.572 -20.893,10.099 -28.901,19.153 -8.01,9.054 -19.5,20.196 -27.162,25.42 -7.661,5.222 -12.536,5.222 -20.892,5.222 -8.358,0 -20.545,-0.347 -20.197,-5.919 0.348,-5.572 7.661,-14.626 11.491,-19.152 3.831,-4.527 14.277,-18.107 17.76,-22.634 3.481,-4.527 13.927,-11.84 19.847,-14.625 5.92,-2.784 9.75,-12.883 24.724,-20.893 14.973,-8.009 26.464,-12.188 40.393,-12.535 13.928,-0.349 24.027,0.696 28.902,1.741 4.875,1.044 10.794,4.179 11.49,2.785 0.697,-1.393 -5.919,-3.481 -11.142,-4.875 -5.223,-1.393 -16.367,-4.179 -29.25,-2.785 -12.884,1.392 -36.868,4.518 -42.483,4.526 1.045,-3.482 9.75,-6.616 16.366,-7.312 6.617,-0.697 18.456,-1.045 27.161,-1.741 8.706,-0.697 17.759,-0.697 21.589,-1.045 3.831,-0.348 8.009,1.741 12.884,5.223 4.875,3.483 9.054,7.661 7.313,9.75 -1.741,2.09 -8.009,-1.392 -11.491,-2.437 -3.482,-1.045 -7.661,-1.393 -18.107,-1.045 -10.446,0.348 -18.804,0.697 -30.991,5.223 -12.188,4.527 -21.241,11.143 -26.117,18.455 -4.874,7.313 -10.098,11.492 -18.107,16.019 -8.009,4.526 -17.759,11.143 -24.723,19.151 -6.964,8.009 -13.581,18.456 -11.839,21.242 1.741,2.786 4.875,6.964 11.491,4.526 6.616,-2.438 15.321,-6.615 26.812,-19.151 11.492,-12.537 20.893,-21.242 43.528,-32.384 22.633,-11.144 36.214,-9.054 44.571,-11.491 8.357,-2.438 23.33,-5.224 28.205,-5.92 4.875,4.527 10.446,9.402 11.84,10.446 0.239,0.179 0.554,0.429 0.925,0.727 -0.053,-0.042 -0.104,-0.083 -0.155,-0.124 -2.697,-2.187 -16.44,-5.129 -31.761,-1.299"
       style="fill:#d3d2d2;fill-opacity:1;fill-rule:nonzero;stroke:none;stroke-width:0.1"
       id="path680" />
    <path
       d="m 575.17,572.286 c 4.179,2.088 20.198,6.267 28.206,7.312 8.009,1.044 22.286,3.482 28.206,4.875 5.92,1.393 15.67,3.83 23.678,6.616"
       style="fill:none;stroke:#231f20;stroke-width:0.75;stroke-linecap:round;stroke-linejoin:round;stroke-miterlimit:4;stroke-dasharray:none;stroke-opacity:1"
       id="path682" />
    <path
       d="m 543.219,374.148 c 0.961,-3.131 3.746,-4.176 11.407,-4.176 7.661,0 15.322,-2.785 22.286,-3.134 6.964,-0.347 20.197,-0.347 25.42,-2.088 5.223,-1.742 14.625,-5.689 12.187,-12.769"
       style="fill:none;stroke:#231f20;stroke-width:0.5;stroke-linecap:butt;stroke-linejoin:miter;stroke-miterlimit:4;stroke-dasharray:none;stroke-opacity:1"
       id="path684" />
    <path
       d="m 543.198,375.898 c -0.034,3.132 3.767,4.869 9.339,4.52 5.571,-0.347 9.053,-1.74 13.232,-3.83 4.179,-2.088 15.632,-8.868 22.615,-10.179"
       style="fill:none;stroke:#231f20;stroke-width:0.5;stroke-linecap:butt;stroke-linejoin:miter;stroke-miterlimit:4;stroke-dasharray:none;stroke-opacity:1"
       id="path686" />
    <path
       d="m 710.626,432.071 c 4.012,0.911 6.732,-2.089 7.428,-3.018 0.698,-0.929 4.875,-6.964 3.715,-9.75 -1.16,-2.785 -3.945,-7.198 -7.66,-8.126 -3.715,-0.927 -9.054,4.413 -10.214,8.823 -1.16,4.41 1.625,10.91 6.731,12.071 z"
       style="fill:none;stroke:#231f20;stroke-width:0.5;stroke-linecap:butt;stroke-linejoin:miter;stroke-miterlimit:4;stroke-dasharray:none;stroke-opacity:1"
       id="path688" />
    <path
       d="m 697.743,574.027 c -2.438,-1.045 -1.278,-3.599 2.205,-7.313 3.481,-3.714 7.195,-7.66 12.535,-11.607 5.341,-3.947 18.977,-12.289 26.465,-22.055 5.34,-6.964 7.893,-16.714 9.286,-25.767 1.392,-9.054 3.715,-19.269 2.321,-32.037 -1.392,-12.766 -6.198,-38.596 -28.635,-54.12"
       style="fill:none;stroke:#231f20;stroke-width:0.5;stroke-linecap:butt;stroke-linejoin:miter;stroke-miterlimit:4;stroke-dasharray:none;stroke-opacity:1"
       id="path690" />
    <path
       d="m 708.716,558.104 c -2.964,0.949 -14.109,1.647 -16.429,-0.211 -2.321,-1.858 -3.713,-4.643 -2.321,-7.661 1.393,-3.018 3.431,-9.017 16.714,-18.572 13.233,-9.518 16.572,-15.782 19.732,-23.213 3.947,-9.286 7.893,-22.751 7.661,-34.359 -0.197,-9.758 -4.075,-30.077 -16.663,-44.288"
       style="fill:none;stroke:#231f20;stroke-width:0.5;stroke-linecap:butt;stroke-linejoin:miter;stroke-miterlimit:4;stroke-dasharray:none;stroke-opacity:1"
       id="path692" />
    <path
       d="m 218.947,652.027 c 1.045,6.616 12.536,3.83 17.759,2.785 5.223,-1.044 12.187,-7.66 14.625,-13.231 2.437,-5.573 9.053,-9.403 15.322,-14.625 6.267,-5.224 13.74,-11.332 18.455,-18.108 5.571,-8.009 -1.045,-15.67 5.223,-24.375 3.784,-5.256 18.803,-4.179 29.598,-2.437 10.795,1.741 34.474,5.919 45.268,8.705 -6.615,-3.134 -14.277,-9.75 -36.91,-14.277 -22.634,-4.527 -35.519,-2.437 -39.697,-0.697 -0.917,0.459 -4.29,2.197 -6.94,3.531 -5.406,2.724 -11.759,5.749 -15.81,6.685 -1.385,0.318 -3.774,1.007 -6.727,1.991 -6.495,8.726 -27.979,35.847 -33.55,43.159 -5.571,7.313 -7.661,14.278 -6.616,20.894"
       style="fill:#d3d2d2;fill-opacity:1;fill-rule:nonzero;stroke:none;stroke-width:0.1"
       id="path694" />
    <path
       d="m 646.555,606.758 c -0.348,3.831 -4.179,7.313 -5.92,10.099 -1.329,2.126 -2.656,6.685 -1.818,8.416 -4.473,3.397 -6.547,1.326 -7.932,-0.059 -1.392,-1.393 -8.009,-7.661 -14.973,-11.143 -6.964,-3.482 -14.973,-6.268 -33.08,-9.75 -18.108,-3.482 -34.822,-3.134 -42.83,-3.134 -8.009,0 -24.724,-0.348 -42.832,3.134 -18.106,3.482 -26.116,6.268 -33.08,9.75 -6.964,3.482 -13.58,9.75 -14.973,11.143 -1.385,1.385 -3.459,3.456 -7.931,0.059 0.838,-1.731 -0.49,-6.29 -1.819,-8.416 -1.741,-2.786 -5.572,-6.268 -5.919,-10.099 -0.349,-3.83 2.785,-8.356 9.75,-9.75 6.964,-1.392 19.847,-2.437 31.339,-3.83 11.491,-1.392 26.464,-6.616 34.821,-7.661 8.357,-1.044 21.59,0 30.644,0 9.053,0 22.285,-1.044 30.642,0 8.358,1.045 23.33,6.269 34.821,7.661 11.492,1.393 24.375,2.438 31.34,3.83 6.964,1.394 10.098,5.92 9.75,9.75"
       style="fill:#d3d2d2;fill-opacity:1;fill-rule:nonzero;stroke:none;stroke-width:0.1"
       id="path696" />
    <path
       d="m 581.787,676.402 c -5.223,2.437 -35.518,3.83 -41.785,3.83 -6.269,0 -36.563,-1.393 -41.787,-3.83 -5.223,-2.438 -10.098,-5.92 -3.83,-12.188 6.268,-6.268 18.804,-14.625 25.768,-16.018 6.965,-1.393 11.142,-0.696 19.849,-0.696 8.705,0 12.883,-0.697 19.847,0.696 6.965,1.393 19.5,9.75 25.769,16.018 6.267,6.268 1.392,9.75 -3.831,12.188 z m -41.785,-25.42 c -26.117,0 -33.778,9.401 -33.429,14.276 0.347,4.875 26.812,5.224 33.429,5.224 6.616,0 33.08,-0.349 33.428,-5.224 0.348,-4.875 -7.312,-14.276 -33.428,-14.276"
       style="fill:#d3d2d2;fill-opacity:1;fill-rule:nonzero;stroke:none;stroke-width:0.1"
       id="path698" />
    <path
       d="m 614.171,642.277 c -5.919,0.723 -19.5,0.696 -27.509,0.696 -8.009,0 -38.652,-0.696 -46.66,-0.696 -8.009,0 -38.653,0.696 -46.662,0.696 -8.008,0 -21.59,0.027 -27.508,-0.696 -5.367,-0.657 -12.27,-2.727 -11.143,-8.358 1.74,-8.705 9.053,-17.411 24.723,-21.937 18.841,-5.442 37.956,-7.661 60.59,-7.661 22.633,0 41.747,2.219 60.588,7.661 15.67,4.526 22.983,13.232 24.724,21.937 1.126,5.631 -5.777,7.701 -11.143,8.358 z m -2.437,-16.366 c -4.875,-3.134 -23.331,-12.537 -71.732,-12.537 -48.403,0 -66.858,9.403 -71.733,12.537 -4.875,3.133 -5.224,6.963 -0.349,10.097 4.875,3.135 25.072,3.135 33.429,3.135 8.358,0 29.25,-2.088 38.653,-2.088 9.401,0 30.293,2.088 38.651,2.088 8.357,0 28.554,0 33.429,-3.135 4.875,-3.134 4.527,-6.964 -0.348,-10.097"
       style="fill:#d3d2d2;fill-opacity:1;fill-rule:nonzero;stroke:none;stroke-width:0.1"
       id="path700" />
    <path
       d="m 475.177,864.801 c 2.281,-4.813 2.842,-17.078 4.931,-24.39 2.09,-7.313 7.661,-13.232 18.456,-14.277 10.794,-1.045 33.776,4.875 41.438,4.875 7.66,0 30.642,-5.92 41.437,-4.875 10.795,1.045 16.366,6.964 18.455,14.277 2.09,7.312 2.65,19.577 4.931,24.39"
       style="fill:none;stroke:#231f20;stroke-width:0.5;stroke-linecap:butt;stroke-linejoin:miter;stroke-miterlimit:4;stroke-dasharray:none;stroke-opacity:1"
       id="path702" />
    <path
       d="m 433.448,799.322 c -2.438,6.964 -11.84,16.017 -20.894,18.803 -9.054,2.786 -36.679,18.107 -34.357,40.393"
       style="fill:none;stroke:#231f20;stroke-width:0.5;stroke-linecap:butt;stroke-linejoin:miter;stroke-miterlimit:4;stroke-dasharray:none;stroke-opacity:1"
       id="path704" />
    <path
       d="m 866.975,712.964 c -2.437,8.358 -7.312,32.036 -8.705,37.608 -1.394,5.571 -10.099,21.241 -15.322,31.339 -5.223,10.098 -6.616,13.58 -18.455,28.205 -11.839,14.626 -20.545,16.366 -23.679,14.277 -3.134,-2.089 5.571,-25.768 7.312,-30.991 1.742,-5.224 -6.963,-12.188 -15.321,-12.536 -8.357,-0.348 -22.982,0.348 -34.821,6.268 -11.84,5.919 -12.884,17.759 -13.58,22.285 -0.697,4.528 -0.349,8.706 1.392,11.492 1.742,2.786 9.402,11.491 13.233,17.411 3.83,5.92 -4.875,12.884 -11.144,13.928 -6.267,1.044 -16.714,-2.786 -26.116,-6.268 -9.401,-3.482 -9.054,-22.285 -10.098,-30.294 -1.045,-8.01 -2.437,-9.75 -6.268,-10.447 -3.83,-0.697 -13.232,-1.393 -25.768,-2.089 -12.535,-0.696 -14.972,-15.67 -17.759,-22.634 -2.786,-6.965 -12.536,-10.099 -22.633,-6.616 -10.099,3.482 -11.84,14.625 -11.144,22.286 0.697,7.66 -2.785,11.143 -6.964,8.009 -4.178,-3.134 -14.276,-4.528 -20.196,-4.875 -5.92,-0.349 -51.187,-1.045 -60.937,-1.045 -9.75,0 -55.019,0.696 -60.938,1.045 -5.92,0.347 -16.019,1.741 -20.197,4.875 -4.178,3.134 -7.66,-0.349 -6.964,-8.009 0.696,-7.661 -1.045,-18.804 -11.143,-22.286 -10.098,-3.483 -19.848,-0.349 -22.634,6.616 -2.786,6.964 -5.223,21.938 -17.759,22.634 -12.535,0.696 -21.938,1.392 -25.768,2.089 -3.83,0.697 -5.223,2.437 -6.267,10.447 -1.045,8.009 -0.697,26.812 -10.099,30.294 -9.401,3.482 -19.849,7.312 -26.116,6.268 -6.268,-1.044 -14.973,-8.008 -11.143,-13.928 3.83,-5.92 11.491,-14.625 13.233,-17.411 1.74,-2.786 2.088,-6.964 1.392,-11.492 -0.696,-4.526 -1.741,-16.366 -13.58,-22.285 -11.84,-5.92 -26.465,-6.616 -34.822,-6.268 -8.357,0.348 -17.063,7.312 -15.321,12.536 1.741,5.223 10.446,28.902 7.312,30.991 -3.134,2.089 -11.839,0.349 -23.679,-14.277 -11.839,-14.625 -13.231,-18.107 -18.455,-28.205 -5.223,-10.098 -13.928,-25.768 -15.321,-31.339 -1.394,-5.572 -6.269,-29.25 -8.706,-37.608 -2.438,-8.357 -5.919,-32.732 6.616,-34.821 12.536,-2.09 18.456,18.455 19.849,23.679 1.392,5.222 8.705,25.071 16.366,24.722 7.66,-0.347 8.705,-10.794 10.446,-14.276 1.741,-3.482 2.438,-6.616 10.446,-3.831 8.009,2.786 30.295,9.75 41.438,9.75 11.144,0 13.581,-4.875 31.34,-3.481 17.759,1.392 32.035,9.401 42.482,14.276 10.447,4.875 21.24,2.09 22.285,-3.83 1.045,-5.92 -8.683,-28.586 -28.553,-42.134 -7.66,-5.224 -16.714,-7.312 -25.42,-10.099 -8.705,-2.786 -27.509,-9.053 -39.696,-9.053 -12.188,0 -40.045,-1.045 -49.098,-5.572 -9.054,-4.526 -14.625,-5.92 -10.447,-9.75 4.178,-3.83 6.616,-9.401 14.625,-6.963 8.009,2.437 22.286,6.615 30.991,8.356 8.706,1.741 30.991,4.179 47.357,11.84 16.366,7.66 34.474,18.804 42.483,25.42 8.008,6.615 26.463,24.026 26.116,36.214 -0.349,12.187 -13.233,22.633 -25.42,24.027 -12.188,1.393 -20.893,1.393 -42.483,-2.786 4.179,15.67 0.349,31.339 -8.356,33.429 -8.706,2.088 -20.894,-3.483 -33.081,-8.009 -12.187,-4.528 -28.205,-10.795 -31.339,-11.491 -3.134,-0.697 -8.706,-0.349 -17.062,-2.09 -8.358,-1.741 -15.67,-2.089 -17.759,-3.482 -2.09,-1.393 -5.92,-6.965 -8.01,-10.447 -2.089,-3.481 -5.223,-10.446 -5.571,-12.535 -0.348,-2.09 -2.089,-5.571 -3.482,-5.571 -1.393,0 -0.697,4.178 3.482,12.535 4.178,8.357 10.795,19.848 11.491,23.678 0.696,3.831 1.393,16.367 2.786,16.367 3.134,0 0.348,-9.75 2.785,-11.492 2.438,-1.741 9.054,-1.044 13.581,-0.347 4.527,0.696 29.25,4.178 46.313,10.097 17.062,5.92 32.035,13.233 33.429,20.545 1.392,7.313 1.043,12.884 -0.349,16.714 -1.393,3.831 -3.83,9.751 -3.83,9.751 0,0 1.741,0.696 2.437,2.438 0,0 3.482,-9.403 4.527,-15.323 1.045,-5.919 1.392,-10.446 6.267,-15.669 4.875,-5.223 7.313,-7.312 29.251,-14.625 21.938,-7.312 18.107,-11.491 27.857,-14.973 11.718,-4.186 30.295,-2.089 39,8.357 8.706,10.447 9.053,20.544 14.973,20.544 4.194,0 59.197,-0.696 75.912,-0.696 16.713,0 71.716,0.696 75.91,0.696 5.92,0 6.268,-10.097 14.973,-20.544 8.705,-10.446 27.283,-12.543 39,-8.357 9.75,3.482 5.92,7.661 27.858,14.973 21.937,7.313 24.375,9.402 29.25,14.625 4.875,5.223 5.223,9.75 6.267,15.669 1.045,5.92 4.528,15.323 4.528,15.323 0.696,-1.742 2.437,-2.438 2.437,-2.438 0,0 -2.437,-5.92 -3.831,-9.751 -1.392,-3.83 -1.74,-9.401 -0.348,-16.714 1.393,-7.312 16.367,-14.625 33.429,-20.545 17.063,-5.919 41.785,-9.401 46.313,-10.097 4.526,-0.697 11.142,-1.394 13.58,0.347 2.437,1.742 -0.348,11.492 2.786,11.492 1.392,0 2.089,-12.536 2.785,-16.367 0.696,-3.83 7.313,-15.321 11.491,-23.678 4.179,-8.357 4.875,-12.535 3.483,-12.535 -1.393,0 -3.134,3.481 -3.483,5.571 -0.348,2.089 -3.482,9.054 -5.571,12.535 -2.089,3.482 -5.92,9.054 -8.009,10.447 -2.09,1.393 -9.402,1.741 -17.759,3.482 -8.357,1.741 -13.928,1.393 -17.062,2.09 -3.134,0.696 -19.153,6.963 -31.34,11.491 -12.187,4.526 -24.375,10.097 -33.08,8.009 -8.705,-2.09 -12.536,-17.759 -8.357,-33.429 -21.589,4.179 -30.295,4.179 -42.483,2.786 -12.187,-1.394 -25.071,-11.84 -25.419,-24.027 -0.348,-12.188 18.107,-29.599 26.115,-36.214 8.01,-6.616 26.117,-17.76 42.483,-25.42 16.366,-7.661 38.652,-10.099 47.357,-11.84 8.705,-1.741 22.983,-5.919 30.991,-8.356 8.009,-2.438 10.447,3.133 14.625,6.963 4.179,3.83 -1.392,5.224 -10.446,9.75 -9.054,4.527 -36.911,5.572 -49.099,5.572 -12.187,0 -30.991,6.267 -39.696,9.053 -8.705,2.787 -17.759,4.875 -25.42,10.099 -19.87,13.548 -29.597,36.214 -28.553,42.134 1.045,5.92 11.839,8.705 22.286,3.83 10.446,-4.875 24.722,-12.884 42.482,-14.276 17.759,-1.394 20.196,3.481 31.339,3.481 11.143,0 33.429,-6.964 41.438,-9.75 8.008,-2.785 8.706,0.349 10.446,3.831 1.741,3.482 2.786,13.929 10.447,14.276 7.66,0.349 14.973,-19.5 16.365,-24.722 1.394,-5.224 7.313,-25.769 19.849,-23.679 12.536,2.089 9.054,26.464 6.616,34.821"
       style="fill:#d3d2d2;fill-opacity:1;fill-rule:nonzero;stroke:none;stroke-width:0.1"
       id="path706" />
    <path
       d="m 306.697,807.678 c -2.089,4.179 -8.822,15.786 -13.465,23.911"
       style="fill:none;stroke:#231f20;stroke-width:0.5;stroke-linecap:butt;stroke-linejoin:miter;stroke-miterlimit:4;stroke-dasharray:none;stroke-opacity:1"
       id="path708" />
    <path
       d="m 376.34,696.598 c -9.75,-6.964 -25.42,-10.446 -45.616,-7.312 -20.196,3.133 -30.295,5.92 -43.875,0 -13.581,-5.92 -35.145,-17.98 -45.592,-25.292"
       style="fill:none;stroke:#231f20;stroke-width:0.5;stroke-linecap:butt;stroke-linejoin:miter;stroke-miterlimit:4;stroke-dasharray:none;stroke-opacity:1"
       id="path710" />
    <path
       d="m 265.84,585.983 c 4.051,-0.936 10.404,-3.961 15.81,-6.685 -5.247,3.782 -23.007,27.113 -28.578,37.908 0,0 15.787,-25.188 12.768,-31.223"
       style="fill:#b2b1b1;fill-opacity:1;fill-rule:nonzero;stroke:none;stroke-width:0.1"
       id="path712" />
    <path
       d="m 308.09,634.616 c 15.322,3.83 41.089,12.187 53.973,17.758 12.885,5.572 20.894,10.099 28.902,19.153 8.009,9.054 19.5,20.196 27.161,25.42 7.661,5.222 12.536,5.222 20.893,5.222 8.357,0 20.545,-0.347 20.196,-5.919 -0.348,-5.572 -7.661,-14.626 -11.491,-19.152 -3.83,-4.527 -14.276,-18.107 -17.759,-22.634 -3.482,-4.527 -13.928,-11.84 -19.848,-14.625 -5.919,-2.784 -9.75,-12.883 -24.723,-20.893 -14.974,-8.009 -26.465,-12.188 -40.394,-12.535 -13.928,-0.349 -24.026,0.696 -28.901,1.741 -4.875,1.044 -10.795,4.179 -11.491,2.785 -0.696,-1.393 5.92,-3.481 11.142,-4.875 5.224,-1.393 16.367,-4.179 29.25,-2.785 12.884,1.392 36.868,4.518 42.483,4.526 -1.045,-3.482 -9.75,-6.616 -16.366,-7.312 -6.617,-0.697 -18.455,-1.045 -27.16,-1.741 -8.707,-0.697 -17.76,-0.697 -21.59,-1.045 -3.83,-0.348 -8.009,1.741 -12.884,5.223 -4.875,3.483 -9.054,7.661 -7.313,9.75 1.742,2.09 8.009,-1.392 11.492,-2.437 3.482,-1.045 7.66,-1.393 18.107,-1.045 10.446,0.348 18.803,0.697 30.99,5.223 12.189,4.527 21.241,11.143 26.117,18.455 4.874,7.313 10.098,11.492 18.107,16.019 8.009,4.526 17.759,11.143 24.724,19.151 6.963,8.009 13.58,18.456 11.838,21.242 -1.741,2.786 -4.875,6.964 -11.491,4.526 -6.616,-2.438 -15.321,-6.615 -26.812,-19.151 -11.492,-12.537 -20.893,-21.242 -43.527,-32.384 -22.633,-11.144 -36.215,-9.054 -44.571,-11.491 -8.357,-2.438 -23.331,-5.224 -28.206,-5.92 -4.875,4.527 -10.446,9.402 -11.839,10.446 -0.239,0.179 -0.554,0.429 -0.925,0.727 0.053,-0.042 0.103,-0.083 0.154,-0.124 2.697,-2.187 16.44,-5.129 31.762,-1.299"
       style="fill:#d3d2d2;fill-opacity:1;fill-rule:nonzero;stroke:none;stroke-width:0.1"
       id="path714" />
    <path
       d="m 846.43,736.991 c -4.178,8.357 -10.795,19.848 -11.491,23.678 -0.696,3.831 -1.393,16.367 -2.785,16.367 -3.134,0 -0.349,-9.75 -2.786,-11.492 -2.438,-1.741 -9.054,-1.044 -13.58,-0.347 -4.528,0.696 -29.25,4.178 -46.313,10.097 -17.062,5.92 -32.036,13.233 -33.429,20.545 -1.392,7.313 -1.044,12.884 0.348,16.714 1.394,3.831 3.831,9.751 3.831,9.751 0,0 -1.741,0.696 -2.437,2.438 0,0 -3.483,-9.403 -4.528,-15.323 -1.044,-5.919 -1.392,-10.446 -6.267,-15.669 -4.875,-5.223 -7.313,-7.312 -29.25,-14.625 -21.938,-7.312 -18.108,-11.491 -27.858,-14.973 -11.717,-4.186 -30.295,-2.089 -39,8.357 -8.705,10.447 -9.053,20.544 -14.973,20.544 -4.194,0 -59.197,-0.696 -75.91,-0.696 -16.715,0 -71.718,0.696 -75.912,0.696 -5.92,0 -6.267,-10.097 -14.973,-20.544 -8.705,-10.446 -27.282,-12.543 -39,-8.357 -9.75,3.482 -5.919,7.661 -27.857,14.973 -21.938,7.313 -24.376,9.402 -29.251,14.625 -4.875,5.223 -5.222,9.75 -6.267,15.669 -1.045,5.92 -4.527,15.323 -4.527,15.323 -0.696,-1.742 -2.437,-2.438 -2.437,-2.438 0,0 2.437,-5.92 3.83,-9.751 1.392,-3.83 1.741,-9.401 0.349,-16.714 -1.394,-7.312 -16.367,-14.625 -33.429,-20.545 -17.063,-5.919 -41.786,-9.401 -46.313,-10.097 -4.527,-0.697 -11.143,-1.394 -13.581,0.347 -2.437,1.742 0.349,11.492 -2.785,11.492 -1.393,0 -2.09,-12.536 -2.786,-16.367 -0.696,-3.83 -7.313,-15.321 -11.491,-23.678 -4.179,-8.357 -4.875,-12.535 -3.482,-12.535 1.393,0 3.134,3.481 3.482,5.571 0.348,2.089 3.482,9.054 5.571,12.535 2.09,3.482 5.92,9.054 8.01,10.447 2.089,1.393 9.401,1.741 17.759,3.482 8.356,1.741 13.928,1.393 17.062,2.09 3.134,0.696 19.152,6.963 31.339,11.491 12.187,4.526 24.375,10.097 33.081,8.009 8.705,-2.09 12.535,-17.759 8.356,-33.429 21.59,4.179 30.295,4.179 42.483,2.786 12.187,-1.394 25.071,-11.84 25.42,-24.027 0.347,-12.188 -18.108,-29.599 -26.116,-36.214 -8.009,-6.616 -26.117,-17.76 -42.483,-25.42 -16.366,-7.661 -38.651,-10.099 -47.357,-11.84 -8.705,-1.741 -22.982,-5.919 -30.991,-8.356 -2.857,-0.87 -5.004,-0.72 -6.775,0.005 2.428,-1.577 5.641,-4.266 7.397,-5.671 2.697,-2.187 16.44,-5.129 31.762,-1.299 15.322,3.83 41.089,12.187 53.973,17.758 12.885,5.572 20.894,10.099 28.902,19.153 8.009,9.054 19.5,20.196 27.161,25.42 7.661,5.222 12.536,5.222 20.893,5.222 8.357,0 20.545,-0.347 20.196,-5.919 -0.348,-5.572 -7.661,-14.626 -11.491,-19.152 -3.83,-4.527 -14.276,-18.107 -17.759,-22.634 -3.482,-4.527 -13.928,-11.84 -19.848,-14.625 -5.919,-2.784 -9.75,-12.883 -24.723,-20.893 -14.974,-8.009 -26.465,-12.188 -40.394,-12.535 -13.928,-0.349 -24.026,0.696 -28.901,1.741 -4.875,1.044 -10.795,4.179 -11.491,2.785 -0.696,-1.393 5.92,-3.481 11.142,-4.875 5.224,-1.393 16.367,-4.179 29.25,-2.785 12.884,1.392 36.868,4.518 42.483,4.526 3.725,0.006 6.108,-0.942 6.935,-2.893 7.984,5.899 21.465,14.323 39.03,19.259 0,0 3.134,1.045 6.267,1.742 0.743,0.164 1.211,-0.101 1.471,-0.638 4.472,3.397 6.546,1.326 7.931,-0.059 1.393,-1.393 8.009,-7.661 14.973,-11.143 6.964,-3.482 14.974,-6.268 33.08,-9.75 18.108,-3.482 34.823,-3.134 42.832,-3.134 8.008,0 24.722,-0.348 42.83,3.134 18.107,3.482 26.116,6.268 33.08,9.75 6.964,3.482 13.581,9.75 14.973,11.143 1.385,1.385 3.459,3.456 7.932,0.059 0.26,0.537 0.727,0.802 1.47,0.638 3.134,-0.697 6.268,-1.742 6.268,-1.742 17.565,-4.936 31.045,-13.36 39.03,-19.259 0.826,1.951 3.21,2.899 6.934,2.893 5.615,-0.008 29.599,-3.134 42.483,-4.526 12.883,-1.394 24.027,1.392 29.25,2.785 5.223,1.394 11.839,3.482 11.142,4.875 -0.696,1.394 -6.615,-1.741 -11.49,-2.785 -4.875,-1.045 -14.974,-2.09 -28.902,-1.741 -13.929,0.347 -25.42,4.526 -40.393,12.535 -14.974,8.01 -18.804,18.109 -24.724,20.893 -5.92,2.785 -16.366,10.098 -19.847,14.625 -3.483,4.527 -13.929,18.107 -17.76,22.634 -3.83,4.526 -11.143,13.58 -11.491,19.152 -0.348,5.572 11.839,5.919 20.197,5.919 8.356,0 13.231,0 20.892,-5.222 7.662,-5.224 19.152,-16.366 27.162,-25.42 8.008,-9.054 16.017,-13.581 28.901,-19.153 12.884,-5.571 38.652,-13.928 53.974,-17.758 15.321,-3.83 29.064,-0.888 31.761,1.299 1.757,1.405 4.97,4.094 7.398,5.671 -1.772,-0.725 -3.919,-0.875 -6.776,-0.005 -8.008,2.437 -22.286,6.615 -30.991,8.356 -8.705,1.741 -30.991,4.179 -47.357,11.84 -16.366,7.66 -34.473,18.804 -42.483,25.42 -8.008,6.615 -26.463,24.026 -26.115,36.214 0.348,12.187 13.232,22.633 25.419,24.027 12.188,1.393 20.894,1.393 42.483,-2.786 -4.179,15.67 -0.348,31.339 8.357,33.429 8.705,2.088 20.893,-3.483 33.08,-8.009 12.187,-4.528 28.206,-10.795 31.34,-11.491 3.134,-0.697 8.705,-0.349 17.062,-2.09 8.357,-1.741 15.669,-2.089 17.759,-3.482 2.089,-1.393 5.92,-6.965 8.009,-10.447 2.089,-3.481 5.223,-10.446 5.571,-12.535 0.349,-2.09 2.09,-5.571 3.483,-5.571 1.392,0 0.696,4.178 -3.483,12.535 z M 498.215,676.402 c 5.224,2.437 35.518,3.83 41.787,3.83 6.267,0 36.562,-1.393 41.785,-3.83 5.223,-2.438 10.098,-5.92 3.831,-12.188 -6.269,-6.268 -18.804,-14.625 -25.769,-16.018 -6.964,-1.393 -11.142,-0.696 -19.847,-0.696 -8.707,0 -12.884,-0.697 -19.849,0.696 -6.964,1.393 -19.5,9.75 -25.768,16.018 -6.268,6.268 -1.393,9.75 3.83,12.188 z m 127.099,-42.483 c -1.741,-8.705 -9.054,-17.411 -24.724,-21.937 -18.841,-5.442 -37.955,-7.661 -60.588,-7.661 -22.634,0 -41.749,2.219 -60.59,7.661 -15.67,4.526 -22.983,13.232 -24.723,21.937 -1.127,5.631 5.776,7.701 11.143,8.358 5.918,0.723 19.5,0.696 27.508,0.696 8.009,0 38.653,-0.696 46.662,-0.696 8.008,0 38.651,0.696 46.66,0.696 8.009,0 21.59,0.027 27.509,-0.696 5.366,-0.657 12.269,-2.727 11.143,-8.358"
       style="fill:#b2b1b1;fill-opacity:1;fill-rule:nonzero;stroke:none;stroke-width:0.1"
       id="path716" />
    <path
       d="m 508.662,625.562 c 5.92,-0.696 15.321,0.349 18.803,0.696 3.483,0.349 8.705,-0.696 12.537,-0.696 3.83,0 9.053,1.045 12.535,0.696 3.482,-0.347 12.883,-1.392 18.803,-0.696"
       style="fill:none;stroke:#231f20;stroke-width:0.5;stroke-linecap:butt;stroke-linejoin:miter;stroke-miterlimit:4;stroke-dasharray:none;stroke-opacity:1"
       id="path718" />
    <path
       d="m 540.002,537.116 c -14.626,0 -22.983,16.366 -24.724,20.196 -1.741,3.83 -5.223,8.705 -7.66,11.143 -2.439,2.437 -2.786,3.831 -2.786,3.831 4.526,-0.697 28.205,-1.394 35.17,-1.394 6.963,0 30.642,0.697 35.168,1.394 0,0 -0.347,-1.394 -2.785,-3.831 -2.437,-2.438 -5.92,-7.313 -7.661,-11.143 -1.741,-3.83 -10.098,-20.196 -24.722,-20.196"
       style="fill:#706d6e;fill-opacity:1;fill-rule:nonzero;stroke:none;stroke-width:0.1"
       id="path720" />
    <path
       d="m 540.002,537.116 c -14.626,0 -22.983,16.366 -24.724,20.196 -1.741,3.83 -5.223,8.705 -7.66,11.143 -2.439,2.437 -2.786,3.831 -2.786,3.831 4.526,-0.697 28.205,-1.394 35.17,-1.394 6.963,0 30.642,0.697 35.168,1.394 0,0 -0.347,-1.394 -2.785,-3.831 -2.437,-2.438 -5.92,-7.313 -7.661,-11.143 -1.741,-3.83 -10.098,-20.196 -24.722,-20.196 z"
       style="fill:none;stroke:#231f20;stroke-width:0.75;stroke-linecap:round;stroke-linejoin:round;stroke-miterlimit:4;stroke-dasharray:none;stroke-opacity:1"
       id="path722" />
    <path
       d="m 504.832,572.286 c -4.179,2.088 -20.197,6.267 -28.206,7.312 -8.009,1.044 -22.286,3.482 -28.206,4.875 -5.919,1.393 -15.67,3.83 -23.678,6.616"
       style="fill:none;stroke:#231f20;stroke-width:0.75;stroke-linecap:round;stroke-linejoin:round;stroke-miterlimit:4;stroke-dasharray:none;stroke-opacity:1"
       id="path724" />
    <path
       d="m 536.868,430.91 c -10.795,5.223 -6.965,41.09 -6.965,50.84 0,9.75 -2.438,33.428 -3.483,40.741 -1.044,7.312 2.787,12.187 5.573,12.883 2.785,0.697 6.267,-1.044 8.009,-1.044 1.741,0 5.222,1.741 8.008,1.044 2.785,-0.696 6.616,-5.571 5.572,-12.883 -1.045,-7.313 -3.483,-30.991 -3.483,-40.741 0,-9.75 3.831,-45.617 -6.964,-50.84"
       style="fill:none;stroke:#231f20;stroke-width:0.5;stroke-linecap:butt;stroke-linejoin:miter;stroke-miterlimit:4;stroke-dasharray:none;stroke-opacity:1"
       id="path726" />
    <path
       d="m 543.18,377.114 c 0.052,-5.037 0.138,-11.82 0.202,-14.824"
       style="fill:none;stroke:#231f20;stroke-width:0.5;stroke-linecap:butt;stroke-linejoin:miter;stroke-miterlimit:4;stroke-dasharray:none;stroke-opacity:1"
       id="path728" />
    <path
       d="m 536.62,362.29 c 0.063,2.937 0.146,9.479 0.198,14.475"
       style="fill:none;stroke:#231f20;stroke-width:0.5;stroke-linecap:butt;stroke-linejoin:miter;stroke-miterlimit:4;stroke-dasharray:none;stroke-opacity:1"
       id="path730" />
    <path
       d="m 536.783,374.148 c -0.96,-3.131 -3.746,-4.176 -11.407,-4.176 -7.661,0 -15.321,-2.785 -22.286,-3.134 -6.964,-0.347 -20.196,-0.347 -25.42,-2.088 -5.222,-1.742 -14.625,-5.689 -12.187,-12.769"
       style="fill:none;stroke:#231f20;stroke-width:0.5;stroke-linecap:butt;stroke-linejoin:miter;stroke-miterlimit:4;stroke-dasharray:none;stroke-opacity:1"
       id="path732" />
    <path
       d="m 536.804,375.898 c 0.034,3.132 -3.767,4.869 -9.339,4.52 -5.571,-0.347 -9.053,-1.74 -13.232,-3.83 -4.178,-2.088 -15.631,-8.868 -22.614,-10.179"
       style="fill:none;stroke:#231f20;stroke-width:0.5;stroke-linecap:butt;stroke-linejoin:miter;stroke-miterlimit:4;stroke-dasharray:none;stroke-opacity:1"
       id="path734" />
    <path
       d="m 369.376,432.071 c -4.011,0.911 -6.732,-2.089 -7.428,-3.018 -0.697,-0.929 -4.875,-6.964 -3.715,-9.75 1.16,-2.785 3.946,-7.198 7.661,-8.126 3.715,-0.927 9.054,4.413 10.214,8.823 1.16,4.41 -1.626,10.91 -6.732,12.071 z"
       style="fill:none;stroke:#231f20;stroke-width:0.5;stroke-linecap:butt;stroke-linejoin:miter;stroke-miterlimit:4;stroke-dasharray:none;stroke-opacity:1"
       id="path736" />
    <path
       d="m 654.46,545.294 c -0.145,-3.518 -1.801,-7.576 -4.353,-10.855 -3.13,2.304 -6.722,4.813 -9.152,6.492 -4.452,3.072 -3.675,5.331 -2.418,6.735 5.688,-0.334 12.932,-1.374 15.923,-2.372 z"
       style="fill:none;stroke:#231f20;stroke-width:0.5;stroke-linecap:butt;stroke-linejoin:miter;stroke-miterlimit:4;stroke-dasharray:none;stroke-opacity:1"
       id="path738" />
    <path
       d="m 425.542,545.294 c 0.145,-3.518 1.802,-7.576 4.354,-10.855 3.13,2.304 6.721,4.813 9.151,6.492 4.453,3.072 3.676,5.331 2.419,6.735 -5.688,-0.334 -12.933,-1.374 -15.924,-2.372 z"
       style="fill:none;stroke:#231f20;stroke-width:0.5;stroke-linecap:butt;stroke-linejoin:miter;stroke-miterlimit:4;stroke-dasharray:none;stroke-opacity:1"
       id="path740" />
    <path
       d="m 382.26,574.027 c 2.438,-1.045 1.277,-3.599 -2.205,-7.313 -3.482,-3.714 -7.196,-7.66 -12.536,-11.607 -5.34,-3.947 -18.977,-12.289 -26.464,-22.055 -5.341,-6.964 -7.893,-16.714 -9.286,-25.767 -1.393,-9.054 -3.715,-19.269 -2.322,-32.037 1.392,-12.766 6.198,-38.596 28.635,-54.12"
       style="fill:none;stroke:#231f20;stroke-width:0.5;stroke-linecap:butt;stroke-linejoin:miter;stroke-miterlimit:4;stroke-dasharray:none;stroke-opacity:1"
       id="path742" />
    <path
       d="m 371.286,558.104 c 2.964,0.949 14.109,1.647 16.429,-0.211 2.322,-1.858 3.714,-4.643 2.322,-7.661 -1.394,-3.018 -3.431,-9.017 -16.715,-18.572 -13.233,-9.518 -16.572,-15.782 -19.732,-23.213 -3.947,-9.286 -7.893,-22.751 -7.66,-34.359 0.196,-9.758 4.075,-30.077 16.662,-44.288"
       style="fill:none;stroke:#231f20;stroke-width:0.5;stroke-linecap:butt;stroke-linejoin:miter;stroke-miterlimit:4;stroke-dasharray:none;stroke-opacity:1"
       id="path744" />
    <path
       d="m 540.002,362.899 c -5.418,0 -6.734,-8.357 0,-8.357 6.732,0 5.416,8.357 0,8.357"
       style="fill:#ffffff;fill-opacity:1;fill-rule:nonzero;stroke:none;stroke-width:0.1"
       id="path746" />
    <path
       d="m 540.002,362.899 c -5.418,0 -6.734,-8.357 0,-8.357 6.732,0 5.416,8.357 0,8.357 z"
       style="fill:none;stroke:#231f20;stroke-width:0.5;stroke-linecap:round;stroke-linejoin:round;stroke-miterlimit:4;stroke-dasharray:none;stroke-opacity:1"
       id="path748" />
    <path
       d="m 221.733,668.161 c 7.312,-0.465 21.355,-0.107 38.534,-18.742 0,0 3.377,-4.293 8.624,-7.807 2.822,-1.891 6.815,-5.255 8.208,-6.3 1.393,-1.044 6.964,-5.919 11.839,-10.446 4.875,-4.527 10.403,-11.931 11.491,-18.455 1.741,-10.447 5.224,-10.795 8.358,-11.492 3.133,-0.696 23.33,-3.83 28.205,-4.178"
       style="fill:none;stroke:#231f20;stroke-width:0.5;stroke-linecap:butt;stroke-linejoin:miter;stroke-miterlimit:4;stroke-dasharray:none;stroke-opacity:1"
       id="path750" />
    <path
       d="m 858.27,668.161 c -7.312,-0.465 -21.355,-0.107 -38.535,-18.742 0,0 -3.376,-4.293 -8.624,-7.807 -2.822,-1.891 -6.815,-5.255 -8.207,-6.3 -1.394,-1.044 -6.965,-5.919 -11.84,-10.446 -4.875,-4.527 -10.402,-11.931 -11.491,-18.455 -1.741,-10.447 -5.223,-10.795 -8.357,-11.492 -3.134,-0.696 -23.331,-3.83 -28.206,-4.178"
       style="fill:none;stroke:#231f20;stroke-width:0.5;stroke-linecap:butt;stroke-linejoin:miter;stroke-miterlimit:4;stroke-dasharray:none;stroke-opacity:1"
       id="path752" />
    <path
       d="m 758.448,534.446 c -8.241,19.615 -14.741,26.348 -31.455,34.706 -16.715,8.356 -26.117,4.875 -29.25,4.875 -3.134,0 -11.84,3.134 -18.455,7.312 -6.617,4.178 -24.028,9.75 -24.028,9.75 2.786,3.482 2.09,7.313 0,16.367 -2.089,9.052 -8.705,16.713 -8.705,16.713 22.254,-6.255 37.955,-18.107 44.223,-23.33 6.268,-5.223 17.411,-6.965 24.027,-10.098 6.616,-3.134 14.277,-9.75 36.911,-14.277 22.634,-4.527 35.518,-2.437 39.697,-0.697 0,0 3.714,-1.856 0.928,-8.356 -2.785,-6.501 -17.644,-33.431 -33.893,-32.965"
       style="fill:#706d6e;fill-opacity:1;fill-rule:nonzero;stroke:none;stroke-width:0.1"
       id="path754" />
    <path
       d="m 758.448,534.446 c -8.241,19.615 -14.741,26.348 -31.455,34.706 -16.715,8.356 -26.117,4.875 -29.25,4.875 -3.134,0 -11.84,3.134 -18.455,7.312 -6.617,4.178 -24.028,9.75 -24.028,9.75 2.786,3.482 2.09,7.313 0,16.367 -2.089,9.052 -8.705,16.713 -8.705,16.713 22.254,-6.255 37.955,-18.107 44.223,-23.33 6.268,-5.223 17.411,-6.965 24.027,-10.098 6.616,-3.134 14.277,-9.75 36.911,-14.277 22.634,-4.527 35.518,-2.437 39.697,-0.697 0,0 3.714,-1.856 0.928,-8.356 -2.785,-6.501 -17.644,-33.431 -33.893,-32.965 z"
       style="fill:none;stroke:#231f20;stroke-width:0.75;stroke-linecap:round;stroke-linejoin:round;stroke-miterlimit:4;stroke-dasharray:none;stroke-opacity:1"
       id="path756" />
    <path
       d="m 321.555,534.446 c 8.241,19.615 14.74,26.348 31.454,34.706 16.715,8.356 26.117,4.875 29.251,4.875 3.134,0 11.839,3.134 18.455,7.312 6.617,4.178 24.027,9.75 24.027,9.75 -2.785,3.482 -2.089,7.313 0,16.367 2.09,9.052 8.706,16.713 8.706,16.713 -22.255,-6.255 -37.956,-18.107 -44.224,-23.33 -6.267,-5.223 -17.411,-6.965 -24.027,-10.098 -6.615,-3.134 -14.277,-9.75 -36.91,-14.277 -22.634,-4.527 -35.519,-2.437 -39.697,-0.697 0,0 -3.714,-1.856 -0.929,-8.356 2.786,-6.501 17.644,-33.431 33.894,-32.965"
       style="fill:#706d6e;fill-opacity:1;fill-rule:nonzero;stroke:none;stroke-width:0.1"
       id="path758" />
    <path
       d="m 321.555,534.446 c 8.241,19.615 14.74,26.348 31.454,34.706 16.715,8.356 26.117,4.875 29.251,4.875 3.134,0 11.839,3.134 18.455,7.312 6.617,4.178 24.027,9.75 24.027,9.75 -2.785,3.482 -2.089,7.313 0,16.367 2.09,9.052 8.706,16.713 8.706,16.713 -22.255,-6.255 -37.956,-18.107 -44.224,-23.33 -6.267,-5.223 -17.411,-6.965 -24.027,-10.098 -6.615,-3.134 -14.277,-9.75 -36.91,-14.277 -22.634,-4.527 -35.519,-2.437 -39.697,-0.697 0,0 -3.714,-1.856 -0.929,-8.356 2.786,-6.501 17.644,-33.431 33.894,-32.965 z"
       style="fill:none;stroke:#231f20;stroke-width:0.75;stroke-linecap:round;stroke-linejoin:round;stroke-miterlimit:4;stroke-dasharray:none;stroke-opacity:1"
       id="path760" />
    <path
       d="m 540.002,362.899 c -3.331,0 -6.616,-1.036 -10.447,-5.347 -3.714,-4.178 -20.429,-14.856 -26.929,-14.856 -6.499,0 -32.5,5.571 -37.143,9.285 -4.643,3.713 -8.357,2.786 -16.714,5.571 -8.357,2.786 -33.429,15.787 -39,19.036 -5.571,3.25 -21.822,8.822 -28.321,13 -6.499,4.179 -22.751,18.573 -33.429,25.536 -10.678,6.965 -23.679,25.072 -26.93,32.037 -3.251,6.963 -6.035,28.785 -6.035,53.856 0,25.071 6.501,33.429 6.501,33.429 -16.25,-0.466 -31.108,26.464 -33.894,32.965 -2.785,6.5 0.929,8.356 0.929,8.356 -0.917,0.459 -4.29,2.197 -6.94,3.531 -5.406,2.724 -11.759,5.749 -15.81,6.685 -6.035,1.392 -31.108,9.748 -39,19.498 -7.891,9.75 -19.49,31.574 -19.036,48.287 0.454,16.713 13.929,14.393 13.929,14.393 -19.964,6.964 -20.43,22.286 -21.822,39 -1.393,16.714 2.786,32.036 9.286,48.286 6.501,16.249 23.215,44.571 27.857,49.677 4.643,5.108 25.535,23.679 36.678,28.323 11.144,4.642 19.5,-1.858 19.5,-1.858 -2.785,5.107 -0.464,7.894 8.357,16.25 8.822,8.358 20.894,13.337 30.644,15.195 7.765,1.478 28.322,1.52 36.214,1.055 7.891,-0.464 9.75,-5.571 9.75,-5.571 1.856,5.571 13.929,6.964 19.5,7.893 5.571,0.928 42.715,11.142 56.179,13.464 13.465,2.323 20.893,-13.464 20.893,-13.464 0,0 0.928,-4.179 0,0.928 -0.928,5.109 3.25,9.75 9.285,14.858 6.035,5.106 49.214,10.678 55.948,10.678 6.732,0 49.911,-5.572 55.946,-10.678 6.036,-5.108 10.213,-9.749 9.285,-14.858 -0.928,-5.107 0,-0.928 0,-0.928 0,0 7.429,15.787 20.893,13.464 13.464,-2.322 50.608,-12.536 56.179,-13.464 5.571,-0.929 17.644,-2.322 19.5,-7.893 0,0 1.859,5.107 9.75,5.571 7.893,0.465 28.449,0.423 36.215,-1.055 9.75,-1.858 21.822,-6.837 30.643,-15.195 8.821,-8.356 11.143,-11.143 8.357,-16.25 0,0 8.357,6.5 19.5,1.858 11.143,-4.644 32.036,-23.215 36.678,-28.323 4.642,-5.106 21.357,-33.428 27.857,-49.677 6.501,-16.25 10.68,-31.572 9.286,-48.286 -1.392,-16.714 -1.857,-32.036 -21.821,-39 0,0 13.474,2.32 13.929,-14.393 0.454,-16.713 -11.145,-38.537 -19.037,-48.287 -7.892,-9.75 -32.964,-18.107 -39,-19.5 -4.051,-0.934 -10.403,-3.961 -15.81,-6.683 -2.649,-1.334 -6.022,-3.072 -6.939,-3.531 0,0 3.714,-1.856 0.928,-8.356 -2.785,-6.501 -17.644,-33.431 -33.893,-32.965 0,0 6.5,-8.358 6.5,-33.429 0,-25.071 -2.784,-46.893 -6.035,-53.856 -3.251,-6.965 -16.252,-25.072 -26.93,-32.037 -10.678,-6.963 -26.929,-21.357 -33.429,-25.536 -6.499,-4.178 -22.749,-9.75 -28.32,-13 -5.571,-3.249 -30.644,-16.25 -39,-19.036 -8.358,-2.785 -12.072,-1.858 -16.715,-5.571 -4.643,-3.714 -30.645,-9.285 -37.143,-9.285 -6.5,0 -23.215,10.678 -26.928,14.856 -3.832,4.311 -7.117,5.347 -10.446,5.347 z"
       style="fill:none;stroke:#231f20;stroke-width:0.75;stroke-linecap:round;stroke-linejoin:round;stroke-miterlimit:4;stroke-dasharray:none;stroke-opacity:1"
       id="path762" />
    <path
       d="m 732.216,625.214 c 6.964,-2.09 25.419,-6.268 31.339,-6.964"
       style="fill:none;stroke:#231f20;stroke-width:0.5;stroke-linecap:butt;stroke-linejoin:miter;stroke-miterlimit:4;stroke-dasharray:none;stroke-opacity:1"
       id="path764" />
    <path
       d="m 347.787,625.214 c -6.965,-2.09 -25.42,-6.268 -31.34,-6.964"
       style="fill:none;stroke:#231f20;stroke-width:0.5;stroke-linecap:butt;stroke-linejoin:miter;stroke-miterlimit:4;stroke-dasharray:none;stroke-opacity:1"
       id="path766" />
    <path
       d="m 692.171,432.651 c 5.129,0.986 10.098,-5.223 9.402,-10.098 -0.697,-4.875 -8.358,-17.759 -16.018,-17.759 -7.661,0 -9.75,3.482 -9.053,9.053 0.696,5.572 6.616,17.063 15.669,18.804 z"
       style="fill:none;stroke:#231f20;stroke-width:0.25;stroke-linecap:butt;stroke-linejoin:miter;stroke-miterlimit:4;stroke-dasharray:none;stroke-opacity:1"
       id="path768" />
    <path
       d="m 387.832,432.651 c -5.13,0.986 -10.099,-5.223 -9.403,-10.098 0.697,-4.875 8.358,-17.759 16.019,-17.759 7.66,0 9.75,3.482 9.052,9.053 -0.696,5.572 -6.615,17.063 -15.668,18.804 z"
       style="fill:none;stroke:#231f20;stroke-width:0.25;stroke-linecap:butt;stroke-linejoin:miter;stroke-miterlimit:4;stroke-dasharray:none;stroke-opacity:1"
       id="path770" />
    <path
       d="m 731.983,415.124 c -3.598,1.858 -8.82,-0.928 -11.954,-2.669 -3.135,-1.742 -14.626,-9.402 -19.501,-12.188 -4.875,-2.786 -28.205,-19.5 -30.294,-23.679"
       style="fill:none;stroke:#231f20;stroke-width:0.5;stroke-linecap:butt;stroke-linejoin:miter;stroke-miterlimit:4;stroke-dasharray:none;stroke-opacity:1"
       id="path772" />
    <path
       d="m 348.019,415.124 c 3.598,1.858 8.821,-0.928 11.955,-2.669 3.134,-1.742 14.625,-9.402 19.5,-12.188 4.875,-2.786 28.205,-19.5 30.295,-23.679"
       style="fill:none;stroke:#231f20;stroke-width:0.5;stroke-linecap:butt;stroke-linejoin:miter;stroke-miterlimit:4;stroke-dasharray:none;stroke-opacity:1"
       id="path774" />
    <path
       d="m 540.002,711.223 c 10.793,0 11.491,-19.499 0,-19.499 -11.492,0 -10.795,19.499 0,19.499"
       style="fill:#deddde;fill-opacity:1;fill-rule:nonzero;stroke:none;stroke-width:0.1"
       id="path776" />
    <path
       d="m 546.225,433.724 c 4.223,1.364 44.615,7.284 41.134,-43.903"
       style="fill:none;stroke:#231f20;stroke-width:0.5;stroke-linecap:round;stroke-linejoin:round;stroke-miterlimit:4;stroke-dasharray:2.8, 1.8;stroke-dashoffset:0;stroke-opacity:1"
       id="path778" />
    <path
       d="m 587.342,401.659 c 6.284,5.573 34.604,14.293 63.158,13.945"
       style="fill:none;stroke:#231f20;stroke-width:0.5;stroke-linecap:round;stroke-linejoin:round;stroke-miterlimit:4;stroke-dasharray:2.8, 1.8;stroke-dashoffset:0;stroke-opacity:1"
       id="path780" />
    <path
       d="m 544.308,412.763 c 5.095,-2.746 27.729,-16.326 29.818,-17.371 2.089,-1.045 8.254,-3.675 13.233,-5.571 4.875,-1.857 7.893,-2.323 9.982,-2.323"
       style="fill:none;stroke:#231f20;stroke-width:0.5;stroke-linecap:round;stroke-linejoin:round;stroke-miterlimit:4;stroke-dasharray:2.8, 1.8;stroke-dashoffset:0;stroke-opacity:1"
       id="path782" />
    <path
       d="m 604.305,379.838 c 4.527,2.786 35.863,14.471 50.489,14.471"
       style="fill:none;stroke:#231f20;stroke-width:0.5;stroke-linecap:round;stroke-linejoin:round;stroke-miterlimit:4;stroke-dasharray:2.8, 1.8;stroke-dashoffset:0;stroke-opacity:1"
       id="path784" />
    <path
       d="m 664.254,386.992 c -6.268,-1.394 -13.52,-4.484 -18.395,-9.707 -4.875,-5.223 -7.661,-8.357 -15.322,-9.054 -11.491,-1.044 -19.267,7.776 -26.232,11.607"
       style="fill:none;stroke:#231f20;stroke-width:0.5;stroke-linecap:round;stroke-linejoin:round;stroke-miterlimit:4;stroke-dasharray:2.8, 1.8;stroke-dashoffset:0;stroke-opacity:1"
       id="path786" />
    <path
       d="m 559.502,390.517 c -2.898,-1.874 -1.394,-5.339 2.785,-8.821 4.178,-3.482 8.589,-6.036 10.213,-3.715 1.626,2.322 -3.248,4.412 -4.642,8.357 -1.148,3.255 -4.409,6.732 -8.356,4.179 z"
       style="fill:none;stroke:#231f20;stroke-width:0.5;stroke-linecap:round;stroke-linejoin:round;stroke-miterlimit:4;stroke-dasharray:2.8, 1.8;stroke-dashoffset:0;stroke-opacity:1"
       id="path788" />
    <path
       d="m 597.341,387.498 c 2.553,0 7.688,-4.286 6.964,-7.66 -0.696,-3.25 -4.411,-3.25 -8.822,0.465 -4.798,4.04 -1.624,7.195 1.858,7.195 z"
       style="fill:none;stroke:#231f20;stroke-width:0.5;stroke-linecap:round;stroke-linejoin:round;stroke-miterlimit:4;stroke-dasharray:2.8, 1.8;stroke-dashoffset:0;stroke-opacity:1"
       id="path790" />
    <path
       d="m 652.126,405.491 c 2.438,2.437 10.795,9.401 24.376,8.356"
       style="fill:none;stroke:#231f20;stroke-width:0.5;stroke-linecap:round;stroke-linejoin:round;stroke-miterlimit:4;stroke-dasharray:2.8, 1.8;stroke-dashoffset:0;stroke-opacity:1"
       id="path792" />
    <path
       d="m 679.028,421.114 c -0.438,5.269 -6.357,16.064 -11.232,16.76 -4.875,0.697 -18.63,-0.522 -18.107,-16.366"
       style="fill:none;stroke:#231f20;stroke-width:0.5;stroke-linecap:round;stroke-linejoin:round;stroke-miterlimit:4;stroke-dasharray:2.8, 1.8;stroke-dashoffset:0;stroke-opacity:1"
       id="path794" />
    <path
       d="m 593.974,527.017 c 9.054,-13.929 22.635,-34.473 32.385,-51.884 9.75,-17.411 18.012,-33.118 19.848,-37.607 3.133,-7.66 4.178,-24.375 5.919,-32.035 1.312,-5.774 2.438,-11.84 3.831,-13.929 1.393,-2.09 5.571,-6.965 10.795,-3.482 5.223,3.482 13.928,6.616 18.803,16.714"
       style="fill:none;stroke:#231f20;stroke-width:0.5;stroke-linecap:round;stroke-linejoin:round;stroke-miterlimit:4;stroke-dasharray:2.8, 1.8;stroke-dashoffset:0;stroke-opacity:1"
       id="path796" />
    <path
       d="m 690.778,426.035 c 5.572,0 8.363,-13.965 -4.875,-16.018 -9.56,-1.482 -5.919,16.018 4.875,16.018 z"
       style="fill:none;stroke:#231f20;stroke-width:0.5;stroke-linecap:round;stroke-linejoin:round;stroke-miterlimit:4;stroke-dasharray:2.8, 1.8;stroke-dashoffset:0;stroke-opacity:1"
       id="path798" />
    <path
       d="m 664.663,452.847 c 8.356,0 11.839,-14.795 0.349,-14.795 -12.189,0 -8.01,14.795 -0.349,14.795 z"
       style="fill:none;stroke:#231f20;stroke-width:0.5;stroke-linecap:round;stroke-linejoin:round;stroke-miterlimit:4;stroke-dasharray:2.8, 1.8;stroke-dashoffset:0;stroke-opacity:1"
       id="path800" />
    <path
       d="m 575.868,383.553 c -0.973,-1.217 2.089,-4.179 7.66,-7.312 5.571,-3.135 17.062,-9.75 19.848,-10.795 2.786,-1.045 6.617,-2.09 5.92,1.741 -0.697,3.83 -9.053,8.009 -13.928,10.446 -4.875,2.438 -18.108,7.66 -19.5,5.92 z"
       style="fill:none;stroke:#231f20;stroke-width:0.5;stroke-linecap:round;stroke-linejoin:round;stroke-miterlimit:4;stroke-dasharray:2.8, 1.8;stroke-dashoffset:0;stroke-opacity:1"
       id="path802" />
    <path
       d="m 575.17,377.285 c -4.177,-5.223 16.601,-12.811 18.108,-10.098 1.508,2.712 -14.942,14.055 -18.108,10.098 z"
       style="fill:none;stroke:#231f20;stroke-width:0.5;stroke-linecap:round;stroke-linejoin:round;stroke-miterlimit:4;stroke-dasharray:2.8, 1.8;stroke-dashoffset:0;stroke-opacity:1"
       id="path804" />
    <path
       d="m 617.073,523.768 c 6.732,-8.59 22.519,-30.644 33.197,-42.947 10.678,-12.304 30.001,-36.076 42.509,-48.101"
       style="fill:none;stroke:#231f20;stroke-width:0.5;stroke-linecap:round;stroke-linejoin:round;stroke-miterlimit:4;stroke-dasharray:2.8, 1.8;stroke-dashoffset:0;stroke-opacity:1"
       id="path806" />
    <path
       d="m 546.938,535.53 c 2.348,1.47 8.385,2.397 10.474,-1.084 2.09,-3.483 -0.465,-8.822 -3.83,-11.955"
       style="fill:none;stroke:#231f20;stroke-width:0.5;stroke-linecap:round;stroke-linejoin:round;stroke-miterlimit:4;stroke-dasharray:2.8, 1.8;stroke-dashoffset:0;stroke-opacity:1"
       id="path808" />
    <path
       d="m 564.966,557.824 c 4.518,-2.253 20.304,-14.558 21.929,-16.414 1.624,-1.857 3.714,-4.41 2.785,-8.822 -0.928,-4.411 -1.856,-7.427 -4.178,-9.052 -2.322,-1.626 -20.094,-5.688 -31.336,-0.469"
       style="fill:none;stroke:#231f20;stroke-width:0.5;stroke-linecap:round;stroke-linejoin:round;stroke-miterlimit:4;stroke-dasharray:2.8, 1.8;stroke-dashoffset:0;stroke-opacity:1"
       id="path810" />
    <path
       d="m 604.045,579.686 c 1.42,-5.775 0.855,-32.949 -14.184,-44.086"
       style="fill:none;stroke:#231f20;stroke-width:0.5;stroke-linecap:round;stroke-linejoin:round;stroke-miterlimit:4;stroke-dasharray:2.8, 1.8;stroke-dashoffset:0;stroke-opacity:1"
       id="path812" />
    <path
       d="m 632.054,584.584 c 0.109,-4.638 1.501,-30.871 1.965,-36.907"
       style="fill:none;stroke:#231f20;stroke-width:0.5;stroke-linecap:round;stroke-linejoin:round;stroke-miterlimit:4;stroke-dasharray:2.8, 1.8;stroke-dashoffset:0;stroke-opacity:1"
       id="path814" />
    <path
       d="m 679.288,581.339 c -2.09,-3.715 -3.839,-14.381 -2.09,-17.178 2.322,-3.715 8.126,-8.126 12.072,-10.911"
       style="fill:none;stroke:#231f20;stroke-width:0.5;stroke-linecap:round;stroke-linejoin:round;stroke-miterlimit:4;stroke-dasharray:2.8, 1.8;stroke-dashoffset:0;stroke-opacity:1"
       id="path816" />
    <path
       d="m 585.502,523.536 c 3.713,1.625 12.767,4.411 17.178,9.75"
       style="fill:none;stroke:#231f20;stroke-width:0.5;stroke-linecap:round;stroke-linejoin:round;stroke-miterlimit:4;stroke-dasharray:2.8, 1.8;stroke-dashoffset:0;stroke-opacity:1"
       id="path818" />
    <path
       d="m 670.698,522.142 c -4.179,-2.553 -13.929,-4.642 -27.161,-3.481 -13.233,1.16 -21.359,3.249 -26.464,5.107 -5.107,1.857 -14.16,4.875 -14.393,9.518"
       style="fill:none;stroke:#231f20;stroke-width:0.5;stroke-linecap:round;stroke-linejoin:round;stroke-miterlimit:4;stroke-dasharray:2.8, 1.8;stroke-dashoffset:0;stroke-opacity:1"
       id="path820" />
    <path
       d="m 602.68,533.286 c 5.572,11.606 23.674,14.412 31.339,14.391 4.518,-0.011 2.26,0.12 4.518,-0.011"
       style="fill:none;stroke:#231f20;stroke-width:0.5;stroke-linecap:round;stroke-linejoin:round;stroke-miterlimit:4;stroke-dasharray:2.8, 1.8;stroke-dashoffset:0;stroke-opacity:1"
       id="path822" />
    <path
       d="m 662.551,542.517 c 6.289,-0.411 19.232,0.555 26.719,10.733"
       style="fill:none;stroke:#231f20;stroke-width:0.5;stroke-linecap:round;stroke-linejoin:round;stroke-miterlimit:4;stroke-dasharray:2.8, 1.8;stroke-dashoffset:0;stroke-opacity:1"
       id="path824" />
    <path
       d="m 640.549,518.947 c 7.631,-1.447 29.917,-7.484 45.935,-23.269 16.018,-15.785 11.817,-30.139 11.56,-32.459 -0.696,-6.267 0.817,-16.755 4.921,-21.63 3.715,-4.411 9.984,-8.589 18.963,-5.91"
       style="fill:none;stroke:#231f20;stroke-width:0.5;stroke-linecap:round;stroke-linejoin:round;stroke-miterlimit:4;stroke-dasharray:2.8, 1.8;stroke-dashoffset:0;stroke-opacity:1"
       id="path826" />
    <path
       d="m 706.68,531.66 c -0.696,-3.483 -11.606,-23.679 -20.196,-35.982"
       style="fill:none;stroke:#231f20;stroke-width:0.5;stroke-linecap:round;stroke-linejoin:round;stroke-miterlimit:4;stroke-dasharray:2.8, 1.8;stroke-dashoffset:0;stroke-opacity:1"
       id="path828" />
    <path
       d="m 705.553,532.483 c -4.444,1.731 -20.693,6.374 -25.337,0.105 -4.643,-6.267 -5.016,-24.736 3.763,-34.563"
       style="fill:none;stroke:#231f20;stroke-width:0.5;stroke-linecap:round;stroke-linejoin:round;stroke-miterlimit:4;stroke-dasharray:2.8, 1.8;stroke-dashoffset:0;stroke-opacity:1"
       id="path830" />
    <path
       d="m 540.002,393.303 c -8.358,0 -4.876,16.018 -4.179,20.197 0.696,4.178 1.045,14.624 1.045,17.41 0,2.786 1.044,15.322 0.696,22.634 -0.349,7.313 0.348,29.598 0.348,36.214 0,6.616 1.045,18.455 2.09,18.455 1.043,0 2.088,-11.839 2.088,-18.455 0,-6.616 0.697,-28.901 0.349,-36.214 -0.349,-7.312 0.696,-19.848 0.696,-22.634 0,-2.786 0.348,-13.232 1.045,-17.41 0.696,-4.179 4.178,-20.197 -4.178,-20.197 z"
       style="fill:none;stroke:#231f20;stroke-width:0.5;stroke-linecap:round;stroke-linejoin:round;stroke-miterlimit:4;stroke-dasharray:2.8, 1.8;stroke-dashoffset:0;stroke-opacity:1"
       id="path832" />
    <path
       d="m 533.777,433.724 c -4.222,1.364 -44.615,7.284 -41.133,-43.903"
       style="fill:none;stroke:#231f20;stroke-width:0.5;stroke-linecap:round;stroke-linejoin:round;stroke-miterlimit:4;stroke-dasharray:2.8, 1.8;stroke-dashoffset:0;stroke-opacity:1"
       id="path834" />
    <path
       d="m 492.661,401.659 c -6.285,5.573 -34.605,14.293 -63.159,13.945"
       style="fill:none;stroke:#231f20;stroke-width:0.5;stroke-linecap:round;stroke-linejoin:round;stroke-miterlimit:4;stroke-dasharray:2.8, 1.8;stroke-dashoffset:0;stroke-opacity:1"
       id="path836" />
    <path
       d="m 505.876,395.392 c 9.054,0.696 27.679,-1.038 34.126,-2.089 6.445,1.051 25.071,2.785 34.124,2.089"
       style="fill:none;stroke:#231f20;stroke-width:0.5;stroke-linecap:round;stroke-linejoin:round;stroke-miterlimit:4;stroke-dasharray:2.8, 1.8;stroke-dashoffset:0;stroke-opacity:1"
       id="path838" />
    <path
       d="m 535.695,412.763 c -5.096,-2.746 -27.73,-16.326 -29.819,-17.371 -2.089,-1.045 -8.253,-3.675 -13.232,-5.571 -4.875,-1.857 -7.894,-2.323 -9.982,-2.323"
       style="fill:none;stroke:#231f20;stroke-width:0.5;stroke-linecap:round;stroke-linejoin:round;stroke-miterlimit:4;stroke-dasharray:2.8, 1.8;stroke-dashoffset:0;stroke-opacity:1"
       id="path840" />
    <path
       d="m 475.697,379.838 c -4.527,2.786 -35.863,14.471 -50.489,14.471"
       style="fill:none;stroke:#231f20;stroke-width:0.5;stroke-linecap:round;stroke-linejoin:round;stroke-miterlimit:4;stroke-dasharray:2.8, 1.8;stroke-dashoffset:0;stroke-opacity:1"
       id="path842" />
    <path
       d="m 415.749,386.992 c 6.267,-1.394 13.52,-4.484 18.395,-9.707 4.875,-5.223 7.66,-8.357 15.321,-9.054 11.492,-1.044 19.268,7.776 26.232,11.607"
       style="fill:none;stroke:#231f20;stroke-width:0.5;stroke-linecap:round;stroke-linejoin:round;stroke-miterlimit:4;stroke-dasharray:2.8, 1.8;stroke-dashoffset:0;stroke-opacity:1"
       id="path844" />
    <path
       d="m 520.501,390.517 c 2.897,-1.874 1.393,-5.339 -2.786,-8.821 -4.178,-3.482 -8.588,-6.036 -10.214,-3.715 -1.625,2.322 3.25,4.412 4.643,8.357 1.149,3.255 4.41,6.732 8.357,4.179 z"
       style="fill:none;stroke:#231f20;stroke-width:0.5;stroke-linecap:round;stroke-linejoin:round;stroke-miterlimit:4;stroke-dasharray:2.8, 1.8;stroke-dashoffset:0;stroke-opacity:1"
       id="path846" />
    <path
       d="m 482.662,387.498 c -2.554,0 -7.689,-4.286 -6.965,-7.66 0.696,-3.25 4.411,-3.25 8.822,0.465 4.798,4.04 1.624,7.195 -1.857,7.195 z"
       style="fill:none;stroke:#231f20;stroke-width:0.5;stroke-linecap:round;stroke-linejoin:round;stroke-miterlimit:4;stroke-dasharray:2.8, 1.8;stroke-dashoffset:0;stroke-opacity:1"
       id="path848" />
    <path
       d="m 427.876,405.491 c -2.438,2.437 -10.794,9.401 -24.376,8.356"
       style="fill:none;stroke:#231f20;stroke-width:0.5;stroke-linecap:round;stroke-linejoin:round;stroke-miterlimit:4;stroke-dasharray:2.8, 1.8;stroke-dashoffset:0;stroke-opacity:1"
       id="path850" />
    <path
       d="m 400.975,421.114 c 0.437,5.269 6.357,16.064 11.232,16.76 4.875,0.697 18.628,-0.522 18.106,-16.366"
       style="fill:none;stroke:#231f20;stroke-width:0.5;stroke-linecap:round;stroke-linejoin:round;stroke-miterlimit:4;stroke-dasharray:2.8, 1.8;stroke-dashoffset:0;stroke-opacity:1"
       id="path852" />
    <path
       d="m 486.028,527.017 c -9.054,-13.929 -22.634,-34.473 -32.384,-51.884 -9.75,-17.411 -18.012,-33.118 -19.849,-37.607 -3.133,-7.66 -4.178,-24.375 -5.919,-32.035 -1.311,-5.774 -2.438,-11.84 -3.831,-13.929 -1.392,-2.09 -5.571,-6.965 -10.795,-3.482 -5.222,3.482 -13.927,6.616 -18.802,16.714"
       style="fill:none;stroke:#231f20;stroke-width:0.5;stroke-linecap:round;stroke-linejoin:round;stroke-miterlimit:4;stroke-dasharray:2.8, 1.8;stroke-dashoffset:0;stroke-opacity:1"
       id="path854" />
    <path
       d="m 389.224,426.035 c -5.571,0 -8.362,-13.965 4.875,-16.018 9.56,-1.482 5.92,16.018 -4.875,16.018 z"
       style="fill:none;stroke:#231f20;stroke-width:0.5;stroke-linecap:round;stroke-linejoin:round;stroke-miterlimit:4;stroke-dasharray:2.8, 1.8;stroke-dashoffset:0;stroke-opacity:1"
       id="path856" />
    <path
       d="m 415.34,452.847 c -8.357,0 -11.84,-14.795 -0.349,-14.795 12.188,0 8.009,14.795 0.349,14.795 z"
       style="fill:none;stroke:#231f20;stroke-width:0.5;stroke-linecap:round;stroke-linejoin:round;stroke-miterlimit:4;stroke-dasharray:2.8, 1.8;stroke-dashoffset:0;stroke-opacity:1"
       id="path858" />
    <path
       d="m 504.135,383.553 c 0.973,-1.217 -2.09,-4.179 -7.661,-7.312 -5.571,-3.135 -17.062,-9.75 -19.848,-10.795 -2.786,-1.045 -6.616,-2.09 -5.919,1.741 0.696,3.83 9.053,8.009 13.928,10.446 4.875,2.438 18.107,7.66 19.5,5.92 z"
       style="fill:none;stroke:#231f20;stroke-width:0.5;stroke-linecap:round;stroke-linejoin:round;stroke-miterlimit:4;stroke-dasharray:2.8, 1.8;stroke-dashoffset:0;stroke-opacity:1"
       id="path860" />
    <path
       d="m 504.832,377.285 c 4.178,-5.223 -16.601,-12.811 -18.108,-10.098 -1.507,2.712 14.942,14.055 18.108,10.098 z"
       style="fill:none;stroke:#231f20;stroke-width:0.5;stroke-linecap:round;stroke-linejoin:round;stroke-miterlimit:4;stroke-dasharray:2.8, 1.8;stroke-dashoffset:0;stroke-opacity:1"
       id="path862" />
    <path
       d="m 462.93,523.768 c -6.733,-8.59 -22.519,-30.644 -33.197,-42.947 -10.678,-12.304 -30.001,-36.076 -42.51,-48.101"
       style="fill:none;stroke:#231f20;stroke-width:0.5;stroke-linecap:round;stroke-linejoin:round;stroke-miterlimit:4;stroke-dasharray:2.8, 1.8;stroke-dashoffset:0;stroke-opacity:1"
       id="path864" />
    <path
       d="m 533.064,535.53 c -2.348,1.47 -8.384,2.397 -10.474,-1.084 -2.089,-3.483 0.465,-8.822 3.83,-11.955"
       style="fill:none;stroke:#231f20;stroke-width:0.5;stroke-linecap:round;stroke-linejoin:round;stroke-miterlimit:4;stroke-dasharray:2.8, 1.8;stroke-dashoffset:0;stroke-opacity:1"
       id="path866" />
    <path
       d="m 515.037,557.824 c -4.519,-2.253 -20.305,-14.558 -21.929,-16.414 -1.624,-1.857 -3.715,-4.41 -2.786,-8.822 0.929,-4.411 1.857,-7.427 4.178,-9.052 2.323,-1.626 20.094,-5.688 31.335,-0.469"
       style="fill:none;stroke:#231f20;stroke-width:0.5;stroke-linecap:round;stroke-linejoin:round;stroke-miterlimit:4;stroke-dasharray:2.8, 1.8;stroke-dashoffset:0;stroke-opacity:1"
       id="path868" />
    <path
       d="m 475.957,579.688 c -1.42,-5.777 -0.854,-32.951 14.184,-44.088"
       style="fill:none;stroke:#231f20;stroke-width:0.5;stroke-linecap:round;stroke-linejoin:round;stroke-miterlimit:4;stroke-dasharray:2.8, 1.8;stroke-dashoffset:0;stroke-opacity:1"
       id="path870" />
    <path
       d="m 447.949,584.584 c -0.11,-4.638 -1.502,-30.871 -1.966,-36.907"
       style="fill:none;stroke:#231f20;stroke-width:0.5;stroke-linecap:round;stroke-linejoin:round;stroke-miterlimit:4;stroke-dasharray:2.8, 1.8;stroke-dashoffset:0;stroke-opacity:1"
       id="path872" />
    <path
       d="m 400.715,581.339 c 2.089,-3.714 3.839,-14.381 2.089,-17.178 -2.321,-3.715 -8.126,-8.126 -12.071,-10.911"
       style="fill:none;stroke:#231f20;stroke-width:0.5;stroke-linecap:round;stroke-linejoin:round;stroke-miterlimit:4;stroke-dasharray:2.8, 1.8;stroke-dashoffset:0;stroke-opacity:1"
       id="path874" />
    <path
       d="m 494.5,523.536 c -3.712,1.625 -12.766,4.411 -17.177,9.75"
       style="fill:none;stroke:#231f20;stroke-width:0.5;stroke-linecap:round;stroke-linejoin:round;stroke-miterlimit:4;stroke-dasharray:2.8, 1.8;stroke-dashoffset:0;stroke-opacity:1"
       id="path876" />
    <path
       d="m 417.452,542.517 c -6.29,-0.411 -19.233,0.555 -26.719,10.733"
       style="fill:none;stroke:#231f20;stroke-width:0.5;stroke-linecap:round;stroke-linejoin:round;stroke-miterlimit:4;stroke-dasharray:2.8, 1.8;stroke-dashoffset:0;stroke-opacity:1"
       id="path878" />
    <path
       d="m 439.453,518.947 c -7.631,-1.447 -29.916,-7.484 -45.935,-23.269 -16.018,-15.785 -11.817,-30.139 -11.56,-32.459 0.696,-6.267 -0.816,-16.755 -4.921,-21.63 -3.715,-4.411 -9.983,-8.589 -18.963,-5.91"
       style="fill:none;stroke:#231f20;stroke-width:0.5;stroke-linecap:round;stroke-linejoin:round;stroke-miterlimit:4;stroke-dasharray:2.8, 1.8;stroke-dashoffset:0;stroke-opacity:1"
       id="path880" />
    <path
       d="m 373.322,531.66 c 0.696,-3.483 11.606,-23.679 20.196,-35.982"
       style="fill:none;stroke:#231f20;stroke-width:0.5;stroke-linecap:round;stroke-linejoin:round;stroke-miterlimit:4;stroke-dasharray:2.8, 1.8;stroke-dashoffset:0;stroke-opacity:1"
       id="path882" />
    <path
       d="m 374.45,532.483 c 4.443,1.731 20.692,6.374 25.337,0.105 4.643,-6.267 5.015,-24.736 -3.763,-34.563"
       style="fill:none;stroke:#231f20;stroke-width:0.5;stroke-linecap:round;stroke-linejoin:round;stroke-miterlimit:4;stroke-dasharray:2.8, 1.8;stroke-dashoffset:0;stroke-opacity:1"
       id="path884" />
    <path
       d="m 536.818,376.765 c 0.029,2.854 0.05,5.204 0.05,6.091 0,2.437 0.696,4.875 3.134,4.875 2.437,0 3.133,-2.438 3.133,-4.875 0,-0.85 0.018,-3.047 0.045,-5.742"
       style="fill:none;stroke:#231f20;stroke-width:0.5;stroke-linecap:round;stroke-linejoin:round;stroke-miterlimit:4;stroke-dasharray:2.8, 1.8;stroke-dashoffset:0;stroke-opacity:1"
       id="path886" />
    <path
       d="m 654.46,545.294 c 4.179,-1.392 8.113,-2.722 9.505,-3.419 1.394,-0.697 11.704,-7.599 12.769,-10.215 2.031,-4.988 -0.059,-6.555 -6.036,-9.518"
       style="fill:none;stroke:#231f20;stroke-width:0.5;stroke-linecap:round;stroke-linejoin:round;stroke-miterlimit:4;stroke-dasharray:2.8, 1.8;stroke-dashoffset:0;stroke-opacity:1"
       id="path888" />
    <path
       d="m 409.305,522.142 c 4.179,-2.553 13.929,-4.642 27.16,-3.481 13.233,1.16 21.359,3.249 26.465,5.107 5.107,1.857 14.16,4.875 14.393,9.518"
       style="fill:none;stroke:#231f20;stroke-width:0.5;stroke-linecap:round;stroke-linejoin:round;stroke-miterlimit:4;stroke-dasharray:2.8, 1.8;stroke-dashoffset:0;stroke-opacity:1"
       id="path890" />
    <path
       d="m 477.323,533.286 c -5.572,11.606 -23.675,14.412 -31.34,14.391 -4.517,-0.011 -2.259,0.12 -4.517,-0.011"
       style="fill:none;stroke:#231f20;stroke-width:0.5;stroke-linecap:round;stroke-linejoin:round;stroke-miterlimit:4;stroke-dasharray:2.8, 1.8;stroke-dashoffset:0;stroke-opacity:1"
       id="path892" />
    <path
       d="m 425.542,545.294 c -4.179,-1.392 -8.113,-2.722 -9.505,-3.419 -1.393,-0.697 -11.703,-7.599 -12.769,-10.215 -2.03,-4.988 0.059,-6.555 6.037,-9.518"
       style="fill:none;stroke:#231f20;stroke-width:0.5;stroke-linecap:round;stroke-linejoin:round;stroke-miterlimit:4;stroke-dasharray:2.8, 1.8;stroke-dashoffset:0;stroke-opacity:1"
       id="path894" />
    <path
       d="m 605.374,537.293 c 3.668,-0.34 12.589,-1.75 13.278,-5.929 0.687,-4.182 -1.543,-5.176 -3.818,-6.784"
       style="fill:none;stroke:#231f20;stroke-width:0.5;stroke-linecap:round;stroke-linejoin:round;stroke-miterlimit:4;stroke-dasharray:2.8, 1.8;stroke-dashoffset:0;stroke-opacity:1"
       id="path896" />
    <path
       d="m 634.421,547.489 c -2.654,-4.729 -4.755,-9.462 -4.477,-10.99 0.275,-1.537 1.235,-8.223 9.176,-8.377 4.192,-0.083 8.149,2.632 10.995,6.31"
       style="fill:none;stroke:#231f20;stroke-width:0.5;stroke-linecap:round;stroke-linejoin:round;stroke-miterlimit:4;stroke-dasharray:2.8, 1.8;stroke-dashoffset:0;stroke-opacity:1"
       id="path898" />
    <path
       d="m 615.668,544.043 c 1.028,-2.63 7.447,-9.765 14.276,-7.544"
       style="fill:none;stroke:#231f20;stroke-width:0.5;stroke-linecap:round;stroke-linejoin:round;stroke-miterlimit:4;stroke-dasharray:2.8, 1.8;stroke-dashoffset:0;stroke-opacity:1"
       id="path900" />
    <path
       d="m 633.62,529.761 c 0,0 -5.632,-6.109 -7.18,-8.806"
       style="fill:none;stroke:#231f20;stroke-width:0.5;stroke-linecap:round;stroke-linejoin:round;stroke-miterlimit:4;stroke-dasharray:2.8, 1.8;stroke-dashoffset:0;stroke-opacity:1"
       id="path902" />
    <path
       d="m 645.722,530.253 c 1.333,-4.098 2.362,-6.621 5.694,-11.918"
       style="fill:none;stroke:#231f20;stroke-width:0.5;stroke-linecap:round;stroke-linejoin:round;stroke-miterlimit:4;stroke-dasharray:2.8, 1.8;stroke-dashoffset:0;stroke-opacity:1"
       id="path904" />
    <path
       d="m 650.098,534.446 c 2.597,-1.91 4.868,-3.673 5.878,-4.688 2.225,-2.23 8.054,-6.049 14.722,-7.616"
       style="fill:none;stroke:#231f20;stroke-width:0.5;stroke-linecap:round;stroke-linejoin:round;stroke-miterlimit:4;stroke-dasharray:2.8, 1.8;stroke-dashoffset:0;stroke-opacity:1"
       id="path906" />
    <path
       d="m 474.629,537.293 c -3.669,-0.34 -12.589,-1.75 -13.278,-5.929 -0.688,-4.182 1.542,-5.176 3.817,-6.784"
       style="fill:none;stroke:#231f20;stroke-width:0.5;stroke-linecap:round;stroke-linejoin:round;stroke-miterlimit:4;stroke-dasharray:2.8, 1.8;stroke-dashoffset:0;stroke-opacity:1"
       id="path908" />
    <path
       d="m 445.581,547.489 c 2.655,-4.729 4.754,-9.462 4.477,-10.99 -0.274,-1.537 -1.234,-8.223 -9.176,-8.377 -4.192,-0.083 -8.149,2.632 -10.994,6.31"
       style="fill:none;stroke:#231f20;stroke-width:0.5;stroke-linecap:round;stroke-linejoin:round;stroke-miterlimit:4;stroke-dasharray:2.8, 1.8;stroke-dashoffset:0;stroke-opacity:1"
       id="path910" />
    <path
       d="m 464.335,544.043 c -1.028,-2.63 -7.447,-9.765 -14.277,-7.544"
       style="fill:none;stroke:#231f20;stroke-width:0.5;stroke-linecap:round;stroke-linejoin:round;stroke-miterlimit:4;stroke-dasharray:2.8, 1.8;stroke-dashoffset:0;stroke-opacity:1"
       id="path912" />
    <path
       d="m 446.383,529.761 c 0,0 5.631,-6.109 7.179,-8.806"
       style="fill:none;stroke:#231f20;stroke-width:0.5;stroke-linecap:round;stroke-linejoin:round;stroke-miterlimit:4;stroke-dasharray:2.8, 1.8;stroke-dashoffset:0;stroke-opacity:1"
       id="path914" />
    <path
       d="m 434.28,530.253 c -1.333,-4.098 -2.362,-6.621 -5.694,-11.918"
       style="fill:none;stroke:#231f20;stroke-width:0.5;stroke-linecap:round;stroke-linejoin:round;stroke-miterlimit:4;stroke-dasharray:2.8, 1.8;stroke-dashoffset:0;stroke-opacity:1"
       id="path916" />
    <path
       d="m 429.904,534.446 c -2.597,-1.91 -4.868,-3.673 -5.877,-4.688 -2.226,-2.23 -8.054,-6.049 -14.722,-7.616"
       style="fill:none;stroke:#231f20;stroke-width:0.5;stroke-linecap:round;stroke-linejoin:round;stroke-miterlimit:4;stroke-dasharray:2.8, 1.8;stroke-dashoffset:0;stroke-opacity:1"
       id="path918" />
    <path
       d="m 682.421,856.081 c 0.989,-6.43 -7.762,-11.273 -13.928,-14.277 -6.86,-3.343 -18.108,-9.75 -24.375,-9.75 -6.269,0 -12.536,3.482 -9.403,10.098 3.134,6.616 8.358,15.67 17.063,17.062 8.706,1.393 29.947,1.393 30.643,-3.133"
       style="fill:#d3d2d2;fill-opacity:1;fill-rule:nonzero;stroke:none;stroke-width:0.1"
       id="path920" />
    <path
       d="m 682.421,856.081 c 0.989,-6.43 -7.762,-11.273 -13.928,-14.277 -6.86,-3.343 -18.108,-9.75 -24.375,-9.75 -6.269,0 -12.536,3.482 -9.403,10.098 3.134,6.616 8.358,15.67 17.063,17.062 8.706,1.393 29.947,1.393 30.643,-3.133 z"
       style="fill:none;stroke:#231f20;stroke-width:0.75;stroke-linecap:round;stroke-linejoin:round;stroke-miterlimit:4;stroke-dasharray:0, 2;stroke-dashoffset:0;stroke-opacity:1"
       id="path922" />
    <path
       d="m 692.519,607.803 c 1.045,-3.482 9.75,-6.616 16.366,-7.312 6.617,-0.697 18.456,-1.045 27.161,-1.741 8.706,-0.697 17.759,-0.697 21.589,-1.045 3.831,-0.348 8.009,1.741 12.884,5.223 4.875,3.483 9.054,7.661 7.313,9.75 -1.741,2.09 -8.009,-1.392 -11.491,-2.437 -3.482,-1.045 -7.661,-1.393 -18.107,-1.045 -10.446,0.348 -18.804,0.697 -30.991,5.223 -12.188,4.527 -21.241,11.143 -26.117,18.455 -4.874,7.313 -10.098,11.492 -18.107,16.019 -8.009,4.526 -17.759,11.143 -24.723,19.151 -6.964,8.009 -13.581,18.456 -11.839,21.242 1.741,2.786 4.875,6.964 11.491,4.526 6.616,-2.438 15.321,-6.615 26.812,-19.151 11.492,-12.537 20.893,-21.242 43.528,-32.384 22.633,-11.144 36.214,-9.054 44.571,-11.491 8.357,-2.438 23.33,-5.224 28.205,-5.92"
       style="fill:none;stroke:#231f20;stroke-width:0.75;stroke-linecap:round;stroke-linejoin:round;stroke-miterlimit:4;stroke-dasharray:0, 2;stroke-dashoffset:0;stroke-opacity:1"
       id="path924" />
    <path
       d="m 714.805,590.741 c 10.795,-2.786 34.474,-6.964 45.268,-8.705 10.795,-1.742 25.814,-2.821 29.598,2.437 6.268,8.705 -0.348,16.366 5.224,24.375 4.714,6.776 12.187,12.884 18.455,18.108 6.268,5.222 12.884,9.052 15.321,14.625 2.438,5.571 9.402,12.187 14.625,13.231 5.224,1.045 16.715,3.831 17.759,-2.785 1.045,-6.616 -1.044,-13.581 -6.616,-20.894 -5.571,-7.312 -27.055,-34.433 -33.55,-43.158"
       style="fill:none;stroke:#231f20;stroke-width:0.75;stroke-linecap:round;stroke-linejoin:round;stroke-miterlimit:4;stroke-dasharray:0, 2;stroke-dashoffset:0;stroke-opacity:1"
       id="path926" />
    <path
       d="m 540.002,855.384 c -5.92,0 -41.787,0.697 -41.787,11.143 0,16.715 37.259,15.321 41.787,15.321 4.526,0 41.785,1.394 41.785,-15.321 0,-10.446 -35.867,-11.143 -41.785,-11.143"
       style="fill:#d3d2d2;fill-opacity:1;fill-rule:nonzero;stroke:none;stroke-width:0.1"
       id="path928" />
    <path
       d="m 540.002,855.384 c -5.92,0 -41.787,0.697 -41.787,11.143 0,16.715 37.259,15.321 41.787,15.321 4.526,0 41.785,1.394 41.785,-15.321 0,-10.446 -35.867,-11.143 -41.785,-11.143 z"
       style="fill:none;stroke:#231f20;stroke-width:0.75;stroke-linecap:round;stroke-linejoin:round;stroke-miterlimit:4;stroke-dasharray:0, 2;stroke-dashoffset:0;stroke-opacity:1"
       id="path930" />
    <path
       d="m 397.582,856.081 c -0.99,-6.43 7.762,-11.273 13.928,-14.277 6.86,-3.343 18.107,-9.75 24.375,-9.75 6.268,0 12.535,3.482 9.402,10.098 -3.134,6.616 -8.358,15.67 -17.063,17.062 -8.705,1.393 -29.946,1.393 -30.642,-3.133"
       style="fill:#d3d2d2;fill-opacity:1;fill-rule:nonzero;stroke:none;stroke-width:0.1"
       id="path932" />
    <path
       d="m 397.582,856.081 c -0.99,-6.43 7.762,-11.273 13.928,-14.277 6.86,-3.343 18.107,-9.75 24.375,-9.75 6.268,0 12.535,3.482 9.402,10.098 -3.134,6.616 -8.358,15.67 -17.063,17.062 -8.705,1.393 -29.946,1.393 -30.642,-3.133 z"
       style="fill:none;stroke:#231f20;stroke-width:0.75;stroke-linecap:round;stroke-linejoin:round;stroke-miterlimit:4;stroke-dasharray:0, 2;stroke-dashoffset:0;stroke-opacity:1"
       id="path934" />
    <path
       d="m 540.002,650.982 c -26.117,0 -33.778,9.401 -33.429,14.276 0.347,4.875 26.812,5.224 33.429,5.224 6.616,0 33.08,-0.349 33.428,-5.224 0.348,-4.875 -7.312,-14.276 -33.428,-14.276 z"
       style="fill:none;stroke:#231f20;stroke-width:0.75;stroke-linecap:round;stroke-linejoin:round;stroke-miterlimit:4;stroke-dasharray:0, 2;stroke-dashoffset:0;stroke-opacity:1"
       id="path936" />
    <path
       d="m 540.002,613.374 c -48.403,0 -66.858,9.403 -71.733,12.537 -4.875,3.133 -5.224,6.963 -0.349,10.097 4.875,3.135 25.072,3.135 33.429,3.135 8.358,0 29.25,-2.088 38.653,-2.088 9.401,0 30.293,2.088 38.651,2.088 8.357,0 28.554,0 33.429,-3.135 4.875,-3.134 4.527,-6.964 -0.348,-10.097 -4.875,-3.134 -23.331,-12.537 -71.732,-12.537 z"
       style="fill:none;stroke:#231f20;stroke-width:0.75;stroke-linecap:round;stroke-linejoin:round;stroke-miterlimit:4;stroke-dasharray:0, 2;stroke-dashoffset:0;stroke-opacity:1"
       id="path938" />
    <path
       d="m 387.483,607.803 c -1.045,-3.482 -9.75,-6.616 -16.366,-7.312 -6.617,-0.697 -18.455,-1.045 -27.16,-1.741 -8.707,-0.697 -17.76,-0.697 -21.59,-1.045 -3.83,-0.348 -8.009,1.741 -12.884,5.223 -4.875,3.483 -9.054,7.661 -7.313,9.75 1.742,2.09 8.009,-1.392 11.492,-2.437 3.482,-1.045 7.66,-1.393 18.107,-1.045 10.446,0.348 18.803,0.697 30.99,5.223 12.189,4.527 21.241,11.143 26.117,18.455 4.874,7.313 10.098,11.492 18.107,16.019 8.009,4.526 17.759,11.143 24.724,19.151 6.963,8.009 13.58,18.456 11.838,21.242 -1.741,2.786 -4.875,6.964 -11.491,4.526 -6.616,-2.438 -15.321,-6.615 -26.812,-19.151 -11.492,-12.537 -20.893,-21.242 -43.527,-32.384 -22.633,-11.144 -36.215,-9.054 -44.571,-11.491 -8.357,-2.438 -23.331,-5.224 -28.206,-5.92"
       style="fill:none;stroke:#231f20;stroke-width:0.75;stroke-linecap:round;stroke-linejoin:round;stroke-miterlimit:4;stroke-dasharray:0, 2;stroke-dashoffset:0;stroke-opacity:1"
       id="path940" />
    <path
       d="m 365.197,590.741 c -10.794,-2.786 -34.473,-6.964 -45.268,-8.705 -10.795,-1.742 -25.814,-2.819 -29.598,2.437 -6.268,8.705 0.348,16.366 -5.223,24.375 -4.715,6.776 -12.188,12.884 -18.455,18.108 -6.269,5.222 -12.885,9.052 -15.322,14.625 -2.438,5.571 -9.402,12.187 -14.625,13.231 -5.223,1.045 -16.714,3.831 -17.759,-2.785 -1.045,-6.616 1.045,-13.581 6.616,-20.894 5.571,-7.312 27.055,-34.433 33.55,-43.159"
       style="fill:none;stroke:#231f20;stroke-width:0.75;stroke-linecap:round;stroke-linejoin:round;stroke-miterlimit:4;stroke-dasharray:0, 2;stroke-dashoffset:0;stroke-opacity:1"
       id="path942" />
    <path
       d="m 433.448,624.169 c 0,0 3.134,1.045 6.267,1.742 3.134,0.696 1.393,-6.268 -0.348,-9.054 -1.741,-2.786 -5.572,-6.268 -5.919,-10.099 -0.349,-3.83 2.785,-8.356 9.75,-9.75 6.964,-1.392 19.847,-2.437 31.339,-3.83 11.491,-1.392 26.464,-6.616 34.821,-7.661 8.357,-1.044 21.59,0 30.644,0 9.053,0 22.285,-1.044 30.642,0 8.358,1.045 23.33,6.269 34.821,7.661 11.492,1.393 24.375,2.438 31.34,3.83 6.964,1.394 10.098,5.92 9.75,9.75 -0.348,3.831 -4.179,7.313 -5.92,10.099 -1.741,2.786 -3.482,9.75 -0.348,9.054 3.134,-0.697 6.268,-1.742 6.268,-1.742"
       style="fill:none;stroke:#231f20;stroke-width:0.75;stroke-linecap:round;stroke-linejoin:round;stroke-miterlimit:4;stroke-dasharray:0, 2;stroke-dashoffset:0;stroke-opacity:1"
       id="path944" />
    <path
       d="m 259.688,650.632 c -0.367,2.442 4.633,4.059 11.84,7.662 9.053,4.527 36.91,5.572 49.098,5.572 12.187,0 30.991,6.267 39.696,9.053 8.706,2.787 17.76,4.875 25.42,10.099 19.87,13.548 29.598,36.214 28.553,42.134 -1.045,5.92 -11.838,8.705 -22.285,3.83 -10.447,-4.875 -24.723,-12.884 -42.482,-14.276 -17.759,-1.394 -20.196,3.481 -31.34,3.481 -11.143,0 -33.429,-6.964 -41.438,-9.75 -8.008,-2.785 -8.705,0.349 -10.446,3.831 -1.741,3.482 -2.786,13.929 -10.446,14.276 -7.661,0.349 -14.974,-19.5 -16.366,-24.722 -1.393,-5.224 -7.313,-25.769 -19.849,-23.679 -12.535,2.089 -9.054,26.464 -6.616,34.821 2.437,8.358 7.312,32.036 8.706,37.608 1.393,5.571 10.098,21.241 15.321,31.339 5.224,10.098 6.616,13.58 18.455,28.205 11.84,14.626 20.545,16.366 23.679,14.277 3.134,-2.089 -5.571,-25.768 -7.312,-30.991 -1.742,-5.224 6.964,-12.188 15.321,-12.536 8.357,-0.348 22.982,0.348 34.822,6.268 11.839,5.919 12.884,17.759 13.58,22.285 0.696,4.528 0.348,8.706 -1.392,11.492 -1.742,2.786 -9.403,11.491 -13.233,17.411 -3.83,5.92 4.875,12.884 11.143,13.928 6.267,1.044 16.715,-2.786 26.116,-6.268 9.402,-3.482 9.054,-22.285 10.099,-30.294 1.044,-8.01 2.437,-9.75 6.267,-10.447 3.83,-0.697 13.233,-1.393 25.768,-2.089 12.536,-0.696 14.973,-15.67 17.759,-22.634 2.786,-6.965 12.536,-10.099 22.634,-6.616 10.098,3.482 11.839,14.625 11.143,22.286 -0.696,7.66 2.786,11.143 6.964,8.009 4.178,-3.134 14.277,-4.528 20.197,-4.875 5.919,-0.349 51.188,-1.045 60.938,-1.045 9.75,0 55.017,0.696 60.937,1.045 5.92,0.347 16.018,1.741 20.196,4.875 4.179,3.134 7.661,-0.349 6.964,-8.009 -0.696,-7.661 1.045,-18.804 11.144,-22.286 10.097,-3.483 19.847,-0.349 22.633,6.616 2.787,6.964 5.224,21.938 17.759,22.634 12.536,0.696 21.938,1.392 25.768,2.089 3.831,0.697 5.223,2.437 6.268,10.447 1.044,8.009 0.697,26.812 10.098,30.294 9.402,3.482 19.849,7.312 26.116,6.268 6.269,-1.044 14.974,-8.008 11.144,-13.928 -3.831,-5.92 -11.491,-14.625 -13.233,-17.411 -1.741,-2.786 -2.089,-6.964 -1.392,-11.492 0.696,-4.526 1.74,-16.366 13.58,-22.285 11.839,-5.92 26.464,-6.616 34.821,-6.268 8.358,0.348 17.063,7.312 15.321,12.536 -1.741,5.223 -10.446,28.902 -7.312,30.991 3.134,2.089 11.84,0.349 23.679,-14.277 11.839,-14.625 13.232,-18.107 18.455,-28.205 5.223,-10.098 13.928,-25.768 15.322,-31.339 1.393,-5.572 6.268,-29.25 8.705,-37.608 2.438,-8.357 5.92,-32.732 -6.616,-34.821 -12.536,-2.09 -18.455,18.455 -19.849,23.679 -1.392,5.222 -8.705,25.071 -16.365,24.722 -7.661,-0.347 -8.706,-10.794 -10.447,-14.276 -1.74,-3.482 -2.438,-6.616 -10.446,-3.831 -8.009,2.786 -30.295,9.75 -41.438,9.75 -11.143,0 -13.58,-4.875 -31.339,-3.481 -17.76,1.392 -32.036,9.401 -42.482,14.276 -10.447,4.875 -21.241,2.09 -22.286,-3.83 -1.044,-5.92 8.683,-28.586 28.553,-42.134 7.661,-5.224 16.715,-7.312 25.42,-10.099 8.705,-2.786 27.509,-9.053 39.696,-9.053 12.188,0 40.045,-1.045 49.099,-5.572 7.206,-3.603 12.206,-5.22 11.839,-7.662"
       style="fill:none;stroke:#231f20;stroke-width:0.75;stroke-linecap:round;stroke-linejoin:round;stroke-miterlimit:4;stroke-dasharray:0, 2;stroke-dashoffset:0;stroke-opacity:1"
       id="path946" />
  </g>
</svg>
