<?xml version="1.0" encoding="UTF-8" standalone="no"?>
<!-- Created with Inkscape (http://www.inkscape.org/) -->

<svg
   version="1.1"
   id="svg2"
   width="1440"
   height="1344"
   viewBox="0 0 1440 1344"
   xmlns="http://www.w3.org/2000/svg"
   xmlns:svg="http://www.w3.org/2000/svg">
  <defs
     id="defs6" />
  <g
     id="g8">
    <path
       d="m 235.884,851.164 h 1.881"
       style="fill:none;stroke:#231f20;stroke-width:0.25;stroke-linecap:butt;stroke-linejoin:miter;stroke-miterlimit:4;stroke-dasharray:none;stroke-opacity:1"
       id="path654" />
    <path
       d="m 222.162,831.2 v 1.881"
       style="fill:#ffffff;fill-opacity:1;fill-rule:nonzero;stroke:none;stroke-width:0.1"
       id="path668" />
    <path
       d="m 222.162,831.2 v 1.881"
       style="fill:none;stroke:#231f20;stroke-width:0.25;stroke-linecap:butt;stroke-linejoin:miter;stroke-miterlimit:4;stroke-dasharray:none;stroke-opacity:1"
       id="path670" />
    <path
       d="m 542.085,351.092 c 0.151,-1.229 -0.773,-2.366 -2.083,-2.366 -1.311,0 -2.235,1.137 -2.086,2.366 0.131,1.078 1.058,1.818 2.086,1.818 1.026,0 1.956,-0.74 2.083,-1.818"
       style="fill:#ffffff;fill-opacity:1;fill-rule:nonzero;stroke:none;stroke-width:0.1"
       id="path672" />
    <path
       d="m 542.085,351.092 c 0.151,-1.229 -0.773,-2.366 -2.083,-2.366 -1.311,0 -2.235,1.137 -2.086,2.366 0.131,1.078 1.058,1.818 2.086,1.818 1.026,0 1.956,-0.74 2.083,-1.818 z"
       style="fill:none;stroke:#231f20;stroke-width:0.5;stroke-linecap:butt;stroke-linejoin:miter;stroke-miterlimit:4;stroke-dasharray:none;stroke-opacity:1"
       id="path674" />
    <path
       d="m 540.002,352.91 c -33.198,-10.679 -44.109,-8.357 -71.037,1.16 -26.927,9.517 -87.053,34.591 -110.5,54.554 -23.445,19.964 -31.804,37.608 -36.446,51.536 -4.643,13.928 -3.25,37.607 -1.393,48.751 1.857,11.142 5.338,16.946 13.928,29.016 8.59,12.072 20.43,23.448 24.375,25.769 3.947,2.32 11.701,6.759 27.625,11.375 -38.072,-3.251 -60.124,8.59 -58.964,13.465 -40.393,-7.199 -59.429,13.696 -62.446,16.947 -3.017,3.249 -9.286,11.839 3.017,22.981 -10.679,-5.107 -33.429,6.036 -35.053,24.607 -1.624,18.572 9.285,23.215 9.285,23.215 -7.197,-6.733 -9.981,9.053 -7.892,17.875 2.089,8.821 9.981,29.018 27.392,50.375 17.411,21.356 52.465,45.732 77.304,55.017 24.839,9.286 59.892,13.233 71.268,12.536 11.375,-0.696 22.749,-4.875 28.09,-10.91 5.34,-6.035 9.982,5.107 29.018,13.695 19.036,8.59 58.034,9.984 72.429,9.984 14.393,0 53.392,-1.394 72.428,-9.984 19.036,-8.588 23.677,-19.73 29.018,-13.695 5.34,6.035 16.714,10.214 28.09,10.91 11.375,0.697 46.428,-3.25 71.267,-12.536 24.839,-9.285 59.894,-33.661 77.304,-55.017 17.411,-21.357 25.303,-41.554 27.393,-50.375 2.088,-8.822 -0.696,-24.608 -7.892,-17.875 0,0 10.908,-4.643 9.284,-23.215 -1.624,-18.571 -24.373,-29.714 -35.053,-24.607 12.304,-11.142 6.035,-19.732 3.018,-22.981 -3.018,-3.251 -22.054,-24.146 -62.446,-16.947 1.16,-4.875 -20.892,-16.716 -58.964,-13.465 15.924,-4.616 23.678,-9.055 27.624,-11.375 3.946,-2.321 15.785,-13.697 24.375,-25.769 8.59,-12.07 12.072,-17.874 13.928,-29.016 1.857,-11.144 3.25,-34.823 -1.392,-48.751 -4.643,-13.928 -13.001,-31.572 -36.447,-51.536 -23.447,-19.963 -83.572,-45.037 -110.5,-54.554 -26.928,-9.517 -37.838,-11.839 -71.035,-1.16"
       style="fill:#ffffff;fill-opacity:1;fill-rule:nonzero;stroke:none;stroke-width:0.1"
       id="path676" />
    <path
       d="m 540.002,352.91 c -33.198,-10.679 -44.109,-8.357 -71.037,1.16 -26.927,9.517 -87.053,34.591 -110.5,54.554 -23.445,19.964 -31.804,37.608 -36.446,51.536 -4.643,13.928 -3.25,37.607 -1.393,48.751 1.857,11.142 5.338,16.946 13.928,29.016 8.59,12.072 20.43,23.448 24.375,25.769 3.947,2.32 11.701,6.759 27.625,11.375 -38.072,-3.251 -60.124,8.59 -58.964,13.465 -40.393,-7.199 -59.429,13.696 -62.446,16.947 -3.017,3.249 -9.286,11.839 3.017,22.981 -10.679,-5.107 -33.429,6.036 -35.053,24.607 -1.624,18.572 9.285,23.215 9.285,23.215 -7.197,-6.733 -9.981,9.053 -7.892,17.875 2.089,8.821 9.981,29.018 27.392,50.375 17.411,21.356 52.465,45.732 77.304,55.017 24.839,9.286 59.892,13.233 71.268,12.536 11.375,-0.696 22.749,-4.875 28.09,-10.91 5.34,-6.035 9.982,5.107 29.018,13.695 19.036,8.59 58.034,9.984 72.429,9.984 14.393,0 53.392,-1.394 72.428,-9.984 19.036,-8.588 23.677,-19.73 29.018,-13.695 5.34,6.035 16.714,10.214 28.09,10.91 11.375,0.697 46.428,-3.25 71.267,-12.536 24.839,-9.285 59.894,-33.661 77.304,-55.017 17.411,-21.357 25.303,-41.554 27.393,-50.375 2.088,-8.822 -0.696,-24.608 -7.892,-17.875 0,0 10.908,-4.643 9.284,-23.215 -1.624,-18.571 -24.373,-29.714 -35.053,-24.607 12.304,-11.142 6.035,-19.732 3.018,-22.981 -3.018,-3.251 -22.054,-24.146 -62.446,-16.947 1.16,-4.875 -20.892,-16.716 -58.964,-13.465 15.924,-4.616 23.678,-9.055 27.624,-11.375 3.946,-2.321 15.785,-13.697 24.375,-25.769 8.59,-12.07 12.072,-17.874 13.928,-29.016 1.857,-11.144 3.25,-34.823 -1.392,-48.751 -4.643,-13.928 -13.001,-31.572 -36.447,-51.536 -23.447,-19.963 -83.572,-45.037 -110.5,-54.554 -26.928,-9.517 -37.838,-11.839 -71.035,-1.16 z"
       style="fill:none;stroke:#231f20;stroke-width:0.75;stroke-linecap:round;stroke-linejoin:round;stroke-miterlimit:4;stroke-dasharray:none;stroke-opacity:1"
       id="path678" />
    <path
       d="m 698.09,787.134 c 14.639,0.827 32.385,1.393 55.715,-7.312 23.33,-8.706 39.697,-25.769 52.58,-44.92 12.885,-19.152 16.019,-27.509 13.233,-29.599 -2.786,-2.089 -15.67,4.179 -29.947,21.241 -14.277,17.063 -31.339,29.599 -36.562,24.724 -5.224,-4.875 -2.438,-10.446 12.187,-28.206 14.625,-17.759 42.483,-44.919 53.974,-56.759 11.49,-11.839 7.66,-17.062 6.268,-19.5 -1.393,-2.437 -8.009,-8.357 -24.724,5.571 -16.714,13.929 -39.348,30.295 -72.08,51.537 -32.732,21.241 -69.295,51.883 -74.17,65.464 -4.875,13.581 4.179,13.232 12.188,13.581 8.008,0.347 24.001,3.763 31.338,4.178"
       style="fill:#d3d2d2;fill-opacity:1;fill-rule:nonzero;stroke:none;stroke-width:0.1"
       id="path680" />
    <path
       d="m 540.002,756.491 c -7.313,0 -17.412,1.045 -42.135,4.527 -24.723,3.482 -41.438,-6.616 -70.339,-43.527 -28.902,-36.91 -59.545,-65.464 -74.17,-77.652 -14.625,-12.187 -16.366,-16.366 -22.634,-32.036 -6.267,-15.67 -18.455,-13.58 -22.982,-11.142 -4.527,2.437 -13.233,14.972 -17.411,21.589 -4.178,6.616 1.393,15.321 5.919,18.805 4.528,3.484 26.813,15.319 51.537,27.159 24.723,11.839 38.303,26.813 58.5,49.447 20.196,22.633 33.777,51.187 39.348,65.812 5.572,14.625 16.018,19.849 36.214,23.679 20.196,3.83 46.661,3.83 58.153,3.83 11.491,0 37.955,0 58.151,-3.83 20.196,-3.83 30.643,-9.054 36.215,-23.679 5.571,-14.625 19.151,-43.179 39.347,-65.812 20.198,-22.634 33.778,-37.608 58.501,-49.447 24.723,-11.84 47.009,-23.675 51.536,-27.159 4.527,-3.484 10.098,-12.189 5.919,-18.805 -4.178,-6.617 -12.883,-19.152 -17.411,-21.589 -4.526,-2.438 -16.714,-4.528 -22.981,11.142 -6.269,15.67 -8.01,19.849 -22.635,32.036 -14.625,12.188 -45.268,40.742 -74.169,77.652 -28.902,36.911 -45.616,47.009 -70.34,43.527 -24.723,-3.482 -34.821,-4.527 -42.133,-4.527"
       style="fill:#d3d2d2;fill-opacity:1;fill-rule:nonzero;stroke:none;stroke-width:0.1"
       id="path682" />
    <path
       d="m 381.912,787.134 c -14.639,0.827 -32.384,1.393 -55.715,-7.312 -23.33,-8.706 -39.697,-25.769 -52.58,-44.92 -12.884,-19.152 -16.018,-27.509 -13.233,-29.599 2.786,-2.089 15.67,4.179 29.947,21.241 14.277,17.063 31.339,29.599 36.563,24.724 5.223,-4.875 2.438,-10.446 -12.187,-28.206 -14.625,-17.759 -42.483,-44.919 -53.974,-56.759 -11.491,-11.839 -7.661,-17.062 -6.268,-19.5 1.393,-2.437 8.009,-8.357 24.723,5.571 16.715,13.929 39.349,30.295 72.081,51.537 32.731,21.241 69.294,51.883 74.169,65.464 4.875,13.581 -4.178,13.232 -12.188,13.581 -8.008,0.347 -24.001,3.763 -31.338,4.178"
       style="fill:#d3d2d2;fill-opacity:1;fill-rule:nonzero;stroke:none;stroke-width:0.1"
       id="path684" />
    <path
       d="m 540.002,692.768 c -5.224,0 -26.465,-0.349 -39.349,-1.741 -12.884,-1.393 -21.589,-2.09 -34.821,-16.366 -13.233,-14.278 -24.375,-37.606 -29.599,-48.054 -5.223,-10.448 -14.276,-17.411 -23.33,-21.59 -9.054,-4.178 -34.821,-20.544 -49.099,-21.937 -14.276,-1.393 -17.759,8.706 -10.097,14.973 7.66,6.268 25.767,19.5 48.053,43.179 22.285,23.679 43.179,54.321 54.322,66.161 11.142,11.839 19.847,12.884 32.035,12.188 12.187,-0.697 39.697,3.133 51.885,3.133 12.187,0 39.696,-3.83 51.883,-3.133 12.188,0.696 20.893,-0.349 32.036,-12.188 11.143,-11.84 32.036,-42.482 54.322,-66.161 22.285,-23.679 40.392,-36.911 48.053,-43.179 7.661,-6.267 4.179,-16.366 -10.098,-14.973 -14.277,1.393 -40.045,17.759 -49.098,21.937 -9.054,4.179 -18.107,11.142 -23.331,21.59 -5.223,10.448 -16.366,33.776 -29.598,48.054 -13.232,14.276 -21.937,14.973 -34.822,16.366 -12.884,1.392 -34.125,1.741 -39.347,1.741"
       style="fill:#d3d2d2;fill-opacity:1;fill-rule:nonzero;stroke:none;stroke-width:0.1"
       id="path686" />
    <path
       d="m 632.278,624.518 c -2.089,5.223 -9.75,25.768 -20.196,37.259 -3.134,-6.965 -10.447,-8.009 -16.714,-8.009 H 484.635 c -6.268,0 -13.581,1.044 -16.715,8.009 -10.446,-11.491 -18.106,-32.036 -20.196,-37.259 -0.963,-2.406 -3.633,-8.212 -7.891,-14.59 l 0.006,-0.002 c 1.023,-0.278 2.65,-0.649 4.703,-1.08 2.117,0.274 8.753,5.574 12.584,9.404 3.831,3.831 15.322,3.831 30.643,-1.393 15.321,-5.224 41.438,-4.179 52.233,-4.179 10.793,0 36.91,-1.045 52.232,4.179 15.321,5.224 26.812,5.224 30.642,1.393 3.831,-3.83 10.467,-9.13 12.584,-9.404 2.053,0.431 3.68,0.802 4.704,1.08 l 0.006,0.002 c -4.258,6.378 -6.929,12.184 -7.892,14.59"
       style="fill:#d3d2d2;fill-opacity:1;fill-rule:nonzero;stroke:none;stroke-width:0.1"
       id="path688" />
    <path
       d="m 703.663,707.393 c 12.535,-11.491 56.758,-41.786 75.213,-52.581 16.007,-9.362 27.48,-19.698 32.965,-26.348"
       style="fill:none;stroke:#231f20;stroke-width:0.5;stroke-linecap:butt;stroke-linejoin:miter;stroke-miterlimit:4;stroke-dasharray:none;stroke-opacity:1"
       id="path690" />
    <path
       d="m 711.671,735.25 c -0.561,-1.123 22.286,-17.759 41.089,-33.081 18.804,-15.321 46.313,-37.955 47.706,-36.213 1.393,1.74 -11.143,23.678 -33.428,41.785 -22.286,18.107 -54.323,29.598 -55.367,27.509"
       style="fill:#b2b1b1;fill-opacity:1;fill-rule:nonzero;stroke:none;stroke-width:0.1"
       id="path692" />
    <path
       d="m 654.564,729.331 c 3.316,-3.309 30.295,-31.688 36.214,-39.349 5.92,-7.66 19.152,-20.545 27.51,-26.813 8.356,-6.267 26.116,-20.196 24.722,-21.937 -1.392,-1.741 -16.714,8.357 -32.384,22.982 -15.669,14.625 -48.027,51.557 -51.536,55.714 -4.7,5.572 -8.018,12.885 -4.526,9.403"
       style="fill:#b2b1b1;fill-opacity:1;fill-rule:nonzero;stroke:none;stroke-width:0.1"
       id="path694" />
    <path
       d="m 570.295,548.955 c 5.573,1.393 19.501,2.786 22.983,2.786 3.482,0 7.312,2.437 11.84,5.571 4.526,3.134 29.25,18.804 32.731,21.59 3.483,2.785 16.366,12.884 23.679,10.794 17.062,-8.357 23.727,-12.036 31.921,-14.625"
       style="fill:none;stroke:#231f20;stroke-width:0.75;stroke-linecap:round;stroke-linejoin:round;stroke-miterlimit:4;stroke-dasharray:none;stroke-opacity:1"
       id="path696" />
    <path
       d="m 680.528,580.357 c 3.982,-3.196 9.902,-8.071 5.027,-8.768 -4.875,-0.697 -18.803,-4.527 -21.241,-8.357 -2.438,-3.83 -2.089,-7.661 2.438,-5.224 4.526,2.438 23.33,11.84 34.473,10.447 11.143,-1.393 20.544,-10.447 24.027,-13.232 3.482,-2.786 9.402,-8.009 18.107,-21.937 8.705,-13.929 16.017,-31.688 12.884,-56.063 -3.134,-24.376 -13.233,-42.482 -24.027,-50.143 -10.795,-7.661 -16.486,-9.402 -18.924,-1.045"
       style="fill:none;stroke:#231f20;stroke-width:0.5;stroke-linecap:butt;stroke-linejoin:miter;stroke-miterlimit:4;stroke-dasharray:none;stroke-opacity:1"
       id="path698" />
    <path
       d="m 665.411,557.423 c -1.446,-1.388 -2.607,-3.477 10.162,-6.031 12.767,-2.553 19.5,-6.268 31.339,-10.679 11.84,-4.41 23.447,-13.928 29.018,-20.892 5.572,-6.965 11.144,-17.876 12.536,-29.947 1.393,-12.071 1.392,-18.107 -2.554,-28.321 -3.946,-10.214 -21.357,-35.519 -31.803,-28.09"
       style="fill:none;stroke:#231f20;stroke-width:0.5;stroke-linecap:butt;stroke-linejoin:miter;stroke-miterlimit:4;stroke-dasharray:none;stroke-opacity:1"
       id="path700" />
    <path
       d="m 703.429,437.874 c 3.6,1.393 8.222,-1.398 9.113,-3.83 0.891,-2.432 0.961,-9.286 0.407,-11.723 -0.581,-2.554 -1.339,-6.029 -7.546,-3.25 -3.889,1.741 -6.442,6.79 -6.849,12.536 -0.232,3.282 1.931,5.128 4.875,6.267 z"
       style="fill:none;stroke:#231f20;stroke-width:0.5;stroke-linecap:butt;stroke-linejoin:miter;stroke-miterlimit:4;stroke-dasharray:none;stroke-opacity:1"
       id="path702" />
    <path
       d="m 556.32,432.94 c -0.07,-3.423 3.182,-27.798 6.432,-36.852"
       style="fill:none;stroke:#231f20;stroke-width:0.5;stroke-linecap:butt;stroke-linejoin:miter;stroke-miterlimit:4;stroke-dasharray:none;stroke-opacity:1"
       id="path704" />
    <path
       d="m 520.376,347.6 c -1.696,-0.424 -0.909,-4.264 2.805,-3.567 3.716,0.697 2.709,4.786 1.597,4.557"
       style="fill:none;stroke:#231f20;stroke-width:0.5;stroke-linecap:butt;stroke-linejoin:miter;stroke-miterlimit:4;stroke-dasharray:none;stroke-opacity:1"
       id="path706" />
    <path
       d="m 540.002,772.509 c -7.662,0 -37.957,0.697 -47.358,0.697 -9.402,0 -25.768,2.088 -25.768,3.83 0,1.741 13.581,1.741 19.152,2.089 5.571,0.348 43.527,1.044 53.974,1.044 10.446,0 48.401,-0.696 53.972,-1.044 5.572,-0.348 19.152,-0.348 19.152,-2.089 0,-1.742 -16.366,-3.83 -25.767,-3.83 -9.402,0 -39.697,-0.697 -47.357,-0.697"
       style="fill:#b2b1b1;fill-opacity:1;fill-rule:nonzero;stroke:none;stroke-width:0.1"
       id="path708" />
    <path
       d="M 376.34,707.393 C 363.804,695.902 319.582,665.607 301.126,654.812 285.119,645.45 273.647,635.114 268.161,628.464"
       style="fill:none;stroke:#231f20;stroke-width:0.5;stroke-linecap:butt;stroke-linejoin:miter;stroke-miterlimit:4;stroke-dasharray:none;stroke-opacity:1"
       id="path710" />
    <path
       d="m 368.332,735.25 c 0.561,-1.123 -22.287,-17.759 -41.09,-33.081 -18.804,-15.321 -46.313,-37.955 -47.705,-36.213 -1.394,1.74 11.142,23.678 33.428,41.785 22.285,18.107 54.322,29.598 55.367,27.509"
       style="fill:#b2b1b1;fill-opacity:1;fill-rule:nonzero;stroke:none;stroke-width:0.1"
       id="path712" />
    <path
       d="m 327.59,588.536 c 11.492,10.33 43.875,44.338 62.33,62.446 18.456,18.107 42.134,49.446 59.894,69.295 17.759,19.847 29.25,17.759 36.91,17.759 7.661,0 43.875,0 53.278,0 9.401,0 45.616,0 53.276,0 7.661,0 19.152,2.088 36.911,-17.759 17.759,-19.849 41.437,-51.188 59.893,-69.295 18.456,-18.108 50.839,-52.116 62.331,-62.446"
       style="fill:none;stroke:#231f20;stroke-width:0.5;stroke-linecap:butt;stroke-linejoin:miter;stroke-miterlimit:4;stroke-dasharray:none;stroke-opacity:1"
       id="path714" />
    <path
       d="m 540.002,704.956 c -11.144,0 -16.715,-0.349 -37.957,-2.787 -21.241,-2.437 -31.687,-8.705 -42.133,-20.196 -10.447,-11.491 -8.705,-17.759 -28.554,-44.918 -19.848,-27.16 -45.616,-33.778 -45.616,-33.778 6.268,4.179 28.553,26.116 39,40.741 10.446,14.625 24.723,32.035 32.732,41.785 8.009,9.75 19.101,17.789 38.252,20.575 19.152,2.786 30.694,3.453 44.276,3.453 13.58,0 25.122,-0.667 44.274,-3.453 19.152,-2.786 30.243,-10.825 38.252,-20.575 8.009,-9.75 22.286,-27.16 32.732,-41.785 10.447,-14.625 32.733,-36.562 39,-40.741 0,0 -25.767,6.618 -45.616,33.778 -19.848,27.159 -18.107,33.427 -28.554,44.918 -10.446,11.491 -20.892,17.759 -42.133,20.196 -21.242,2.438 -26.813,2.787 -37.955,2.787"
       style="fill:#b2b1b1;fill-opacity:1;fill-rule:nonzero;stroke:none;stroke-width:0.1"
       id="path716" />
    <path
       d="m 425.438,729.331 c -3.315,-3.309 -30.294,-31.688 -36.214,-39.349 -5.92,-7.66 -19.151,-20.545 -27.509,-26.813 -8.357,-6.267 -26.116,-20.196 -24.723,-21.937 1.392,-1.741 16.715,8.357 32.384,22.982 15.669,14.625 48.028,51.557 51.536,55.714 4.701,5.572 8.018,12.885 4.526,9.403"
       style="fill:#b2b1b1;fill-opacity:1;fill-rule:nonzero;stroke:none;stroke-width:0.1"
       id="path718" />
    <path
       d="m 632.278,624.518 c -1.394,3.484 -5.271,13.789 -10.797,23.676 h -0.002 c -27.513,-10.448 -70.335,-7.311 -81.477,-7.311 -11.144,0 -53.966,-3.137 -81.479,7.311 h -0.001 c -5.527,-9.887 -9.403,-20.192 -10.798,-23.676 -0.159,-0.397 -0.37,-0.898 -0.621,-1.468 l 10e-4,-10e-4 c 5.996,7.585 24.299,12.959 35.79,8.433 11.491,-4.526 42.83,-5.571 57.108,-5.571 14.276,0 45.616,1.045 57.107,5.571 11.49,4.526 29.794,-0.848 35.789,-8.433 l 0.002,10e-4 c -0.252,0.57 -0.463,1.071 -0.622,1.468"
       style="fill:#b2b1b1;fill-opacity:1;fill-rule:nonzero;stroke:none;stroke-width:0.1"
       id="path720" />
    <path
       d="m 418.474,589.696 c 17.063,8.357 27.161,29.598 29.25,34.822 2.09,5.223 9.75,25.768 20.196,37.259 10.447,11.491 60.59,11.491 72.082,11.491 11.491,0 61.633,0 72.08,-11.491 10.446,-11.491 18.107,-32.036 20.196,-37.259 2.09,-5.224 12.187,-26.465 29.25,-34.822"
       style="fill:none;stroke:#231f20;stroke-width:0.5;stroke-linecap:butt;stroke-linejoin:miter;stroke-miterlimit:4;stroke-dasharray:none;stroke-opacity:1"
       id="path722" />
    <path
       d="m 439.839,609.926 c 4.998,-1.36 24.251,-4.909 38.876,-6.998 14.625,-2.089 41.09,-3.83 61.287,-3.83 20.196,0 46.66,1.741 61.285,3.83 14.625,2.089 33.878,5.638 38.877,6.998"
       style="fill:none;stroke:#231f20;stroke-width:0.5;stroke-linecap:butt;stroke-linejoin:miter;stroke-miterlimit:4;stroke-dasharray:none;stroke-opacity:1"
       id="path724" />
    <path
       d="m 540.002,521.098 c -8.358,0 -13.929,24.026 -30.295,27.857 13.58,-0.697 24.375,0 30.295,0 5.918,0 16.713,-0.697 30.293,0 -16.365,-3.831 -21.937,-27.857 -30.293,-27.857"
       style="fill:#706d6e;fill-opacity:1;fill-rule:nonzero;stroke:none;stroke-width:0.1"
       id="path726" />
    <path
       d="m 540.002,521.098 c -8.358,0 -13.929,24.026 -30.295,27.857 13.58,-0.697 24.375,0 30.295,0 5.918,0 16.713,-0.697 30.293,0 -16.365,-3.831 -21.937,-27.857 -30.293,-27.857 z"
       style="fill:none;stroke:#231f20;stroke-width:0.75;stroke-linecap:round;stroke-linejoin:round;stroke-miterlimit:4;stroke-dasharray:none;stroke-opacity:1"
       id="path728" />
    <path
       d="m 509.707,548.955 c -5.572,1.393 -19.5,2.786 -22.983,2.786 -3.482,0 -7.312,2.437 -11.839,5.571 -4.527,3.134 -29.25,18.804 -32.732,21.59 -3.483,2.785 -16.366,12.884 -23.679,10.794 -17.062,-8.357 -23.727,-12.036 -31.92,-14.625"
       style="fill:none;stroke:#231f20;stroke-width:0.75;stroke-linecap:round;stroke-linejoin:round;stroke-miterlimit:4;stroke-dasharray:none;stroke-opacity:1"
       id="path730" />
    <path
       d="m 399.475,580.357 c -3.983,-3.196 -9.902,-8.071 -5.027,-8.768 4.875,-0.697 18.802,-4.527 21.24,-8.357 2.438,-3.83 2.09,-7.661 -2.438,-5.224 -4.526,2.438 -23.33,11.84 -34.472,10.447 -11.143,-1.393 -20.545,-10.447 -24.028,-13.232 -3.481,-2.786 -9.401,-8.009 -18.106,-21.937 -8.706,-13.929 -16.018,-31.688 -12.885,-56.063 3.135,-24.376 13.233,-42.482 24.028,-50.143 10.795,-7.661 16.485,-9.402 18.923,-1.045"
       style="fill:none;stroke:#231f20;stroke-width:0.5;stroke-linecap:butt;stroke-linejoin:miter;stroke-miterlimit:4;stroke-dasharray:none;stroke-opacity:1"
       id="path732" />
    <path
       d="m 414.592,557.423 c 1.445,-1.388 2.607,-3.477 -10.162,-6.031 -12.768,-2.553 -19.5,-6.268 -31.34,-10.679 -11.839,-4.41 -23.447,-13.928 -29.018,-20.892 -5.572,-6.965 -11.143,-17.876 -12.536,-29.947 -1.393,-12.071 -1.392,-18.107 2.554,-28.321 3.947,-10.214 21.357,-35.519 31.804,-28.09"
       style="fill:none;stroke:#231f20;stroke-width:0.5;stroke-linecap:butt;stroke-linejoin:miter;stroke-miterlimit:4;stroke-dasharray:none;stroke-opacity:1"
       id="path734" />
    <path
       d="m 376.573,437.874 c -3.6,1.393 -8.221,-1.398 -9.113,-3.83 -0.89,-2.432 -0.961,-9.286 -0.406,-11.723 0.581,-2.554 1.338,-6.029 7.545,-3.25 3.889,1.741 6.443,6.79 6.849,12.536 0.232,3.282 -1.93,5.128 -4.875,6.267 z"
       style="fill:none;stroke:#231f20;stroke-width:0.5;stroke-linecap:butt;stroke-linejoin:miter;stroke-miterlimit:4;stroke-dasharray:none;stroke-opacity:1"
       id="path736" />
    <path
       d="m 523.752,448.088 c 0.231,3.483 2.089,27.626 2.321,30.643 0.231,3.017 2.32,8.357 5.09,10.47 2.769,2.112 6.517,1.602 8.839,1.602 2.32,0 6.069,0.51 8.838,-1.602 2.769,-2.113 4.859,-7.453 5.09,-10.47 0.231,-3.017 2.089,-27.16 2.32,-30.643"
       style="fill:none;stroke:#231f20;stroke-width:0.5;stroke-linecap:butt;stroke-linejoin:miter;stroke-miterlimit:4;stroke-dasharray:none;stroke-opacity:1"
       id="path738" />
    <path
       d="m 523.683,432.94 c 0.069,-3.423 -3.182,-27.798 -6.433,-36.852"
       style="fill:none;stroke:#231f20;stroke-width:0.5;stroke-linecap:butt;stroke-linejoin:miter;stroke-miterlimit:4;stroke-dasharray:none;stroke-opacity:1"
       id="path740" />
    <path
       d="m 559.626,347.6 c 1.697,-0.424 0.909,-4.264 -2.804,-3.567 -3.716,0.697 -2.71,4.786 -1.597,4.557"
       style="fill:none;stroke:#231f20;stroke-width:0.5;stroke-linecap:butt;stroke-linejoin:miter;stroke-miterlimit:4;stroke-dasharray:none;stroke-opacity:1"
       id="path742" />
    <path
       d="m 468.48,354.243 c -5.128,6.44 1.414,7.024 6.057,7.488 4.642,0.464 24.142,0.232 31.803,-0.696 7.66,-0.93 21.822,-1.161 25.073,-1.161 3.25,0 5.152,0.007 4.908,1.888 -0.245,1.881 -6.766,4.612 -9.087,5.076 -5.571,0.232 -10.68,1.624 -16.716,1.857 -4.87,0.188 -14.159,-1.393 -17.178,-2.553 -3.307,-1.216 -6.093,-3.335 -7.486,-4.19"
       style="fill:none;stroke:#231f20;stroke-width:0.5;stroke-linecap:butt;stroke-linejoin:miter;stroke-miterlimit:4;stroke-dasharray:none;stroke-opacity:1"
       id="path744" />
    <path
       d="m 611.523,354.243 c 5.128,6.44 -1.415,7.024 -6.058,7.488 -4.642,0.464 -24.142,0.232 -31.802,-0.696 -7.661,-0.93 -21.823,-1.161 -25.074,-1.161 -3.249,0 -5.152,0.007 -4.907,1.888 0.245,1.881 6.766,4.612 9.086,5.076 5.571,0.232 10.681,1.624 16.716,1.857 4.871,0.188 14.16,-1.393 17.178,-2.553 3.308,-1.216 6.093,-3.335 7.487,-4.19"
       style="fill:none;stroke:#231f20;stroke-width:0.5;stroke-linecap:butt;stroke-linejoin:miter;stroke-miterlimit:4;stroke-dasharray:none;stroke-opacity:1"
       id="path746" />
    <path
       d="m 625.743,535.103 c 0.27,-8.437 -11.92,-7.387 -19.117,-6.46 -7.138,0.918 -6.732,7.66 -6.268,10.678 0.098,0.638 0.574,1.101 1.305,1.424 0,0 2.306,0.703 3.981,0.503 3.072,-0.365 5.31,1.331 5.308,1.332 1.107,-0.669 2.227,-1.371 3.335,-2.098 3.186,-2.093 6.728,-3.829 9.802,-4.873"
       style="fill:none;stroke:#231f20;stroke-width:0.5;stroke-linecap:butt;stroke-linejoin:miter;stroke-miterlimit:4;stroke-dasharray:none;stroke-opacity:1"
       id="path748" />
    <path
       d="m 454.262,535.104 c -0.272,-8.437 11.917,-7.388 19.114,-6.461 7.139,0.918 6.732,7.66 6.268,10.678 -0.098,0.638 -0.573,1.101 -1.304,1.424 0,0 -2.307,0.703 -3.981,0.503 -3.073,-0.365 -5.309,1.332 -5.29,1.343 -1.102,-0.664 -2.235,-1.373 -3.354,-2.109 -3.186,-2.093 -6.728,-3.829 -9.802,-4.873"
       style="fill:none;stroke:#231f20;stroke-width:0.5;stroke-linecap:butt;stroke-linejoin:miter;stroke-miterlimit:4;stroke-dasharray:none;stroke-opacity:1"
       id="path750" />
    <path
       d="m 599.25,553.585 c 6.679,-3.353 27.644,-15.611 32.68,-16.585 7.196,-1.393 19.965,3.017 41.322,14.392"
       style="fill:none;stroke:#231f20;stroke-width:0.5;stroke-linecap:round;stroke-linejoin:round;stroke-miterlimit:4;stroke-dasharray:2.8, 1.8;stroke-dashoffset:0;stroke-opacity:1"
       id="path752" />
    <path
       d="m 576.912,516.107 c 3.946,-0.696 11.144,-0.465 16.251,-0.465 5.106,0 8.819,0 12.07,0 3.251,0 11.84,1.161 16.715,1.625 4.875,0.464 23.911,1.162 29.018,-1.16 5.108,-2.321 16.018,-9.055 24.839,-17.18 8.821,-8.124 17.876,-15.785 23.215,-30.41 5.339,-14.625 9.75,-32.501 15.089,-35.054"
       style="fill:none;stroke:#231f20;stroke-width:0.5;stroke-linecap:round;stroke-linejoin:round;stroke-miterlimit:4;stroke-dasharray:2.8, 1.8;stroke-dashoffset:0;stroke-opacity:1"
       id="path754" />
    <path
       d="m 624.089,535.609 c 4.767,-1.619 8.406,-1.573 7.841,1.391"
       style="fill:none;stroke:#231f20;stroke-width:0.5;stroke-linecap:round;stroke-linejoin:round;stroke-miterlimit:4;stroke-dasharray:2.8, 1.8;stroke-dashoffset:0;stroke-opacity:1"
       id="path756" />
    <path
       d="m 455.913,535.609 c -4.766,-1.619 -8.405,-1.573 -7.84,1.391"
       style="fill:none;stroke:#231f20;stroke-width:0.5;stroke-linecap:round;stroke-linejoin:round;stroke-miterlimit:4;stroke-dasharray:2.8, 1.8;stroke-dashoffset:0;stroke-opacity:1"
       id="path758" />
    <path
       d="m 585.246,551.156 c -5.084,-2.782 6.524,-13.461 12.095,-1.389 0,0 6.58,-2.942 13.61,-7.186"
       style="fill:none;stroke:#231f20;stroke-width:0.5;stroke-linecap:round;stroke-linejoin:round;stroke-miterlimit:4;stroke-dasharray:2.8, 1.8;stroke-dashoffset:0;stroke-opacity:1"
       id="path760" />
    <path
       d="m 706.841,418.506 c -0.696,-3.25 -10.143,-4.774 -12.928,-5.47 -2.787,-0.697 -8.125,-2.09 -9.287,-2.323 -1.162,-0.232 -2.089,2.787 -4.178,7.661 -2.09,4.876 -4.875,13.233 -4.179,17.644 0.696,4.411 6.964,5.106 11.143,3.713 0,0 -1.624,-16.017 6.501,-26.695"
       style="fill:none;stroke:#231f20;stroke-width:0.5;stroke-linecap:round;stroke-linejoin:round;stroke-miterlimit:4;stroke-dasharray:2.8, 1.8;stroke-dashoffset:0;stroke-opacity:1"
       id="path762" />
    <path
       d="m 687.412,439.731 c 0.928,1.393 4.933,0.871 7.893,-0.464 2.698,-1.216 4.225,-2.143 3.702,-4.869"
       style="fill:none;stroke:#231f20;stroke-width:0.5;stroke-linecap:round;stroke-linejoin:round;stroke-miterlimit:4;stroke-dasharray:2.8, 1.8;stroke-dashoffset:0;stroke-opacity:1"
       id="path764" />
    <path
       d="m 560.984,440.507 c 0,-4.326 -2.975,-7.878 -6.692,-7.986 -3.765,-0.11 -6.94,3.346 -7.043,7.78 -0.105,4.501 2.987,8.2 6.858,8.203 3.816,10e-4 6.874,-3.605 6.877,-7.997 z"
       style="fill:none;stroke:#231f20;stroke-width:0.5;stroke-linecap:round;stroke-linejoin:round;stroke-miterlimit:4;stroke-dasharray:2.8, 1.8;stroke-dashoffset:0;stroke-opacity:1"
       id="path766" />
    <path
       d="m 542.177,352.219 c 1.306,6.959 4.639,25.916 -0.277,40.58"
       style="fill:none;stroke:#231f20;stroke-width:0.5;stroke-linecap:round;stroke-linejoin:round;stroke-miterlimit:4;stroke-dasharray:2.8, 1.8;stroke-dashoffset:0;stroke-opacity:1"
       id="path768" />
    <path
       d="m 480.751,553.585 c -6.678,-3.353 -27.643,-15.611 -32.678,-16.585 -7.197,-1.393 -19.966,3.017 -41.323,14.392"
       style="fill:none;stroke:#231f20;stroke-width:0.5;stroke-linecap:round;stroke-linejoin:round;stroke-miterlimit:4;stroke-dasharray:2.8, 1.8;stroke-dashoffset:0;stroke-opacity:1"
       id="path770" />
    <path
       d="m 503.09,516.107 c -3.946,-0.696 -11.144,-0.465 -16.25,-0.465 -5.106,0 -8.82,0 -12.071,0 -3.251,0 -11.839,1.161 -16.714,1.625 -4.875,0.464 -23.911,1.162 -29.018,-1.16 -5.109,-2.321 -16.019,-9.055 -24.839,-17.18 -8.822,-8.124 -17.876,-15.785 -23.215,-30.41 -5.339,-14.625 -9.75,-32.501 -15.089,-35.054"
       style="fill:none;stroke:#231f20;stroke-width:0.5;stroke-linecap:round;stroke-linejoin:round;stroke-miterlimit:4;stroke-dasharray:2.8, 1.8;stroke-dashoffset:0;stroke-opacity:1"
       id="path772" />
    <path
       d="m 373.162,418.506 c 0.696,-3.25 10.142,-4.774 12.928,-5.47 2.786,-0.697 8.124,-2.09 9.286,-2.323 1.162,-0.232 2.089,2.787 4.179,7.661 2.089,4.876 4.875,13.233 4.179,17.644 -0.697,4.411 -6.965,5.106 -11.144,3.713 0,0 1.624,-16.017 -6.5,-26.695"
       style="fill:none;stroke:#231f20;stroke-width:0.5;stroke-linecap:round;stroke-linejoin:round;stroke-miterlimit:4;stroke-dasharray:2.8, 1.8;stroke-dashoffset:0;stroke-opacity:1"
       id="path774" />
    <path
       d="m 392.59,439.731 c -0.928,1.393 -4.933,0.871 -7.892,-0.464 -2.699,-1.216 -4.226,-2.143 -3.703,-4.869"
       style="fill:none;stroke:#231f20;stroke-width:0.5;stroke-linecap:round;stroke-linejoin:round;stroke-miterlimit:4;stroke-dasharray:2.8, 1.8;stroke-dashoffset:0;stroke-opacity:1"
       id="path776" />
    <path
       d="m 519.018,440.507 c 0,-4.326 2.976,-7.878 6.692,-7.986 3.766,-0.11 6.941,3.346 7.044,7.78 0.105,4.501 -2.987,8.2 -6.858,8.203 -3.817,10e-4 -6.875,-3.605 -6.878,-7.997 z"
       style="fill:none;stroke:#231f20;stroke-width:0.5;stroke-linecap:round;stroke-linejoin:round;stroke-miterlimit:4;stroke-dasharray:2.8, 1.8;stroke-dashoffset:0;stroke-opacity:1"
       id="path778" />
    <path
       d="m 537.825,352.219 c -1.306,6.959 -4.639,25.916 0.277,40.58"
       style="fill:none;stroke:#231f20;stroke-width:0.5;stroke-linecap:round;stroke-linejoin:round;stroke-miterlimit:4;stroke-dasharray:2.8, 1.8;stroke-dashoffset:0;stroke-opacity:1"
       id="path780" />
    <path
       d="m 638.877,579.715 c -0.679,-3.948 7.33,-23.099 24.392,-22.403"
       style="fill:none;stroke:#231f20;stroke-width:0.5;stroke-linecap:round;stroke-linejoin:round;stroke-miterlimit:4;stroke-dasharray:2.8, 1.8;stroke-dashoffset:0;stroke-opacity:1"
       id="path782" />
    <path
       d="m 733.195,547.455 c -6.318,1.616 6.553,-15.768 7.831,-10.542"
       style="fill:none;stroke:#231f20;stroke-width:0.5;stroke-linecap:round;stroke-linejoin:round;stroke-miterlimit:4;stroke-dasharray:2.8, 1.8;stroke-dashoffset:0;stroke-opacity:1"
       id="path784" />
    <path
       d="m 696.93,561.606 c 5.803,0 10.214,-2.785 13.696,-5.571 3.483,-2.785 7.663,-4.177 10.679,-4.41 3.018,-0.233 7.661,-1.625 8.125,-5.108 0.464,-3.481 -4.643,-7.662 -10.446,-5.107 -5.803,2.554 -7.43,3.947 -9.982,7.429 -2.554,3.483 -4.178,6.268 -9.982,5.339 -5.805,-0.928 -9.055,-0.928 -12.305,2.553 -3.25,3.482 7.894,4.411 10.215,4.875 z"
       style="fill:none;stroke:#231f20;stroke-width:0.5;stroke-linecap:round;stroke-linejoin:round;stroke-miterlimit:4;stroke-dasharray:2.8, 1.8;stroke-dashoffset:0;stroke-opacity:1"
       id="path786" />
    <path
       d="m 610.897,561.124 c 3.158,-2.303 3.729,-7.877 3.327,-15.653"
       style="fill:none;stroke:#231f20;stroke-width:0.5;stroke-linecap:round;stroke-linejoin:round;stroke-miterlimit:4;stroke-dasharray:2.8, 1.8;stroke-dashoffset:0;stroke-opacity:1"
       id="path788" />
    <path
       d="m 691.744,546.69 c -6.653,0.757 -14.315,-0.405 -18.261,-2.262 -3.945,-1.856 -20.66,-14.626 2.322,-45.501"
       style="fill:none;stroke:#231f20;stroke-width:0.5;stroke-linecap:round;stroke-linejoin:round;stroke-miterlimit:4;stroke-dasharray:2.8, 1.8;stroke-dashoffset:0;stroke-opacity:1"
       id="path790" />
    <path
       d="m 675.331,545.156 c -6.955,-0.495 -39.686,-8.853 -24.365,-29.049"
       style="fill:none;stroke:#231f20;stroke-width:0.5;stroke-linecap:round;stroke-linejoin:round;stroke-miterlimit:4;stroke-dasharray:2.8, 1.8;stroke-dashoffset:0;stroke-opacity:1"
       id="path792" />
    <path
       d="m 630.491,534.674 c 1.903,-3.014 5.378,-15.929 -8.543,-17.407"
       style="fill:none;stroke:#231f20;stroke-width:0.5;stroke-linecap:round;stroke-linejoin:round;stroke-miterlimit:4;stroke-dasharray:2.8, 1.8;stroke-dashoffset:0;stroke-opacity:1"
       id="path794" />
    <path
       d="m 449.511,534.674 c -1.902,-3.014 -5.378,-15.929 8.544,-17.407"
       style="fill:none;stroke:#231f20;stroke-width:0.5;stroke-linecap:round;stroke-linejoin:round;stroke-miterlimit:4;stroke-dasharray:2.8, 1.8;stroke-dashoffset:0;stroke-opacity:1"
       id="path796" />
    <path
       d="m 587.359,534.446 c 4.411,0 7.66,-0.696 7.66,-5.107 0,-4.411 -1.858,-4.875 -7.197,-4.875 -5.338,0 -8.588,3.715 -8.588,5.572 0,1.856 2.089,4.41 8.125,4.41 z"
       style="fill:none;stroke:#231f20;stroke-width:0.5;stroke-linecap:round;stroke-linejoin:round;stroke-miterlimit:4;stroke-dasharray:2.8, 1.8;stroke-dashoffset:0;stroke-opacity:1"
       id="path798" />
    <path
       d="m 494.756,551.156 c 5.085,-2.782 -6.523,-13.461 -12.094,-1.389 0,0 -6.558,-2.933 -13.575,-7.164"
       style="fill:none;stroke:#231f20;stroke-width:0.5;stroke-linecap:round;stroke-linejoin:round;stroke-miterlimit:4;stroke-dasharray:2.8, 1.8;stroke-dashoffset:0;stroke-opacity:1"
       id="path800" />
    <path
       d="m 492.644,534.446 c -4.411,0 -7.661,-0.696 -7.661,-5.107 0,-4.411 1.858,-4.875 7.197,-4.875 5.339,0 8.588,3.715 8.588,5.572 0,1.856 -2.089,4.41 -8.124,4.41 z"
       style="fill:none;stroke:#231f20;stroke-width:0.5;stroke-linecap:round;stroke-linejoin:round;stroke-miterlimit:4;stroke-dasharray:2.8, 1.8;stroke-dashoffset:0;stroke-opacity:1"
       id="path802" />
    <path
       d="m 567.858,519.124 c -10.677,1.393 -16.018,2.553 -20.196,-0.697 -4.179,-3.249 -11.143,-14.393 -1.624,-27.16 0,0 6.499,-3.018 7.892,-12.536 0,0 10.679,-9.107 15.554,-2.84 5.277,6.786 1.16,13.286 1.856,19.091 0.697,5.804 -0.464,21.82 -3.482,24.142 z"
       style="fill:none;stroke:#231f20;stroke-width:0.5;stroke-linecap:round;stroke-linejoin:round;stroke-miterlimit:4;stroke-dasharray:2.8, 1.8;stroke-dashoffset:0;stroke-opacity:1"
       id="path804" />
    <path
       d="m 582.02,509.143 c -1.626,-4.179 -7.142,-10.769 -10.768,-14.902"
       style="fill:none;stroke:#231f20;stroke-width:0.5;stroke-linecap:round;stroke-linejoin:round;stroke-miterlimit:4;stroke-dasharray:2.8, 1.8;stroke-dashoffset:0;stroke-opacity:1"
       id="path806" />
    <path
       d="m 598.025,515.798 c 5.339,-2.554 62.817,-40.536 78.14,-81.625"
       style="fill:none;stroke:#231f20;stroke-width:0.5;stroke-linecap:round;stroke-linejoin:round;stroke-miterlimit:4;stroke-dasharray:2.8, 1.8;stroke-dashoffset:0;stroke-opacity:1"
       id="path808" />
    <path
       d="m 576.912,516.107 c 3.251,-1.624 5.108,-3.713 5.108,-6.964 3.482,-3.019 52.232,-48.519 68.25,-83.572"
       style="fill:none;stroke:#231f20;stroke-width:0.5;stroke-linecap:round;stroke-linejoin:round;stroke-miterlimit:4;stroke-dasharray:2.8, 1.8;stroke-dashoffset:0;stroke-opacity:1"
       id="path810" />
    <path
       d="m 650.5,459.927 c 3.949,0 14.348,-4.647 14.348,-13.005 0,-6.035 -5.981,-8.541 -11.126,-7.615 -6.238,1.12 -13.668,7.155 -13.668,12.96 0,5.804 5.803,7.66 10.446,7.66 z"
       style="fill:none;stroke:#231f20;stroke-width:0.5;stroke-linecap:round;stroke-linejoin:round;stroke-miterlimit:4;stroke-dasharray:2.8, 1.8;stroke-dashoffset:0;stroke-opacity:1"
       id="path812" />
    <path
       d="m 640.184,453.635 c -0.231,-2.32 -1.758,-7.634 0.171,-10.608"
       style="fill:none;stroke:#231f20;stroke-width:0.5;stroke-linecap:round;stroke-linejoin:round;stroke-miterlimit:4;stroke-dasharray:2.8, 1.8;stroke-dashoffset:0;stroke-opacity:1"
       id="path814" />
    <path
       d="m 664.622,449.009 c 1.433,-4.171 3.291,-12.063 3.058,-16.242 -0.232,-4.179 -1.392,-8.82 -5.107,-9.981 -3.715,-1.162 -9.75,-2.09 -12.303,2.785"
       style="fill:none;stroke:#231f20;stroke-width:0.5;stroke-linecap:round;stroke-linejoin:round;stroke-miterlimit:4;stroke-dasharray:2.8, 1.8;stroke-dashoffset:0;stroke-opacity:1"
       id="path816" />
    <path
       d="m 667.68,432.767 c 2.554,-3.25 6.506,-9.849 5.572,-13.929 -1.103,-4.816 -5.829,-14.856 -17.437,-11.606"
       style="fill:none;stroke:#231f20;stroke-width:0.5;stroke-linecap:round;stroke-linejoin:round;stroke-miterlimit:4;stroke-dasharray:2.8, 1.8;stroke-dashoffset:0;stroke-opacity:1"
       id="path818" />
    <path
       d="m 650.27,425.571 c 2.553,-4.875 4.875,-16.714 6.268,-20.893 1.392,-4.178 3.712,-13.465 7.195,-14.161 3.482,-0.696 12.767,3.25 20.893,20.196"
       style="fill:none;stroke:#231f20;stroke-width:0.5;stroke-linecap:round;stroke-linejoin:round;stroke-miterlimit:4;stroke-dasharray:2.8, 1.8;stroke-dashoffset:0;stroke-opacity:1"
       id="path820" />
    <path
       d="m 638.662,403.053 c 4.643,0 8.126,-2.322 11.376,-4.875 3.249,-2.554 7.638,-4.105 9.286,-4.642 1.646,-0.538 4.178,-2.321 1.856,-6.965 -2.322,-4.644 -7.197,-8.591 -17.643,-6.036 -10.447,2.554 -16.207,11.058 -14.393,17.41 1.393,4.875 9.518,5.108 9.518,5.108 z"
       style="fill:none;stroke:#231f20;stroke-width:0.5;stroke-linecap:round;stroke-linejoin:round;stroke-miterlimit:4;stroke-dasharray:2.8, 1.8;stroke-dashoffset:0;stroke-opacity:1"
       id="path822" />
    <path
       d="m 549.983,394.928 c 2.531,-0.229 6.036,0.232 5.571,-3.251 -0.463,-3.482 -6.268,-7.196 -7.892,-5.571 -1.624,1.625 -4.939,9.482 2.321,8.822 z"
       style="fill:none;stroke:#231f20;stroke-width:0.5;stroke-linecap:round;stroke-linejoin:round;stroke-miterlimit:4;stroke-dasharray:2.8, 1.8;stroke-dashoffset:0;stroke-opacity:1"
       id="path824" />
    <path
       d="m 562.752,396.088 c 3.017,-0.077 9.054,-1.161 19.268,-3.018 10.214,-1.857 26.929,-6.5 35.518,-9.75 8.588,-3.249 19.964,-6.268 22.749,-7.428 2.786,-1.16 2.321,-3.25 0.463,-4.642 -1.856,-1.393 -9.286,-3.716 -13.927,-3.948 -4.643,-0.231 -5.573,0.698 -9.518,3.948 -3.946,3.25 -10.91,6.498 -17.411,8.588 -6.5,2.089 -17.409,5.803 -24.839,6.964 -7.429,1.162 -18.416,2.175 -16.947,5.341 1.313,2.826 3.474,3.976 4.644,3.945 z"
       style="fill:none;stroke:#231f20;stroke-width:0.5;stroke-linecap:round;stroke-linejoin:round;stroke-miterlimit:4;stroke-dasharray:2.8, 1.8;stroke-dashoffset:0;stroke-opacity:1"
       id="path826" />
    <path
       d="m 573.894,382.16 c 4.411,-0.929 13.001,-6.269 16.946,-9.286 3.947,-3.017 18.34,-7.892 18.804,-5.803 0.464,2.09 -5.803,4.179 -10.91,5.571 -5.108,1.394 -12.536,5.108 -11.839,6.965 0.696,1.856 7.195,1.16 11.374,-0.233 4.179,-1.393 13.233,-7.197 15.786,-11.143 2.554,-3.945 0.928,-5.34 -3.251,-5.107 -4.178,0.232 -13.231,0.93 -19.964,6.037"
       style="fill:none;stroke:#231f20;stroke-width:0.5;stroke-linecap:round;stroke-linejoin:round;stroke-miterlimit:4;stroke-dasharray:2.8, 1.8;stroke-dashoffset:0;stroke-opacity:1"
       id="path828" />
    <path
       d="m 441.125,579.715 c 0.679,-3.948 -7.33,-23.099 -24.392,-22.403"
       style="fill:none;stroke:#231f20;stroke-width:0.5;stroke-linecap:round;stroke-linejoin:round;stroke-miterlimit:4;stroke-dasharray:2.8, 1.8;stroke-dashoffset:0;stroke-opacity:1"
       id="path830" />
    <path
       d="m 346.807,547.455 c 6.319,1.616 -6.552,-15.768 -7.831,-10.542"
       style="fill:none;stroke:#231f20;stroke-width:0.5;stroke-linecap:round;stroke-linejoin:round;stroke-miterlimit:4;stroke-dasharray:2.8, 1.8;stroke-dashoffset:0;stroke-opacity:1"
       id="path832" />
    <path
       d="m 383.072,561.606 c -5.803,0 -10.214,-2.785 -13.696,-5.571 -3.482,-2.785 -7.663,-4.177 -10.679,-4.41 -3.017,-0.233 -7.661,-1.625 -8.125,-5.108 -0.463,-3.481 4.644,-7.662 10.447,-5.107 5.803,2.554 7.429,3.947 9.982,7.429 2.553,3.483 4.177,6.268 9.982,5.339 5.804,-0.928 9.055,-0.928 12.304,2.553 3.25,3.482 -7.893,4.411 -10.215,4.875 z"
       style="fill:none;stroke:#231f20;stroke-width:0.5;stroke-linecap:round;stroke-linejoin:round;stroke-miterlimit:4;stroke-dasharray:2.8, 1.8;stroke-dashoffset:0;stroke-opacity:1"
       id="path834" />
    <path
       d="m 469.105,561.124 c -3.158,-2.303 -3.728,-7.877 -3.326,-15.653"
       style="fill:none;stroke:#231f20;stroke-width:0.5;stroke-linecap:round;stroke-linejoin:round;stroke-miterlimit:4;stroke-dasharray:2.8, 1.8;stroke-dashoffset:0;stroke-opacity:1"
       id="path836" />
    <path
       d="m 388.258,546.69 c 6.654,0.757 14.316,-0.405 18.261,-2.262 3.946,-1.856 20.66,-14.626 -2.321,-45.501"
       style="fill:none;stroke:#231f20;stroke-width:0.5;stroke-linecap:round;stroke-linejoin:round;stroke-miterlimit:4;stroke-dasharray:2.8, 1.8;stroke-dashoffset:0;stroke-opacity:1"
       id="path838" />
    <path
       d="m 404.672,545.156 c 6.954,-0.495 39.686,-8.853 24.365,-29.049"
       style="fill:none;stroke:#231f20;stroke-width:0.5;stroke-linecap:round;stroke-linejoin:round;stroke-miterlimit:4;stroke-dasharray:2.8, 1.8;stroke-dashoffset:0;stroke-opacity:1"
       id="path840" />
    <path
       d="m 497.983,509.143 c 1.625,-4.179 7.141,-10.769 10.767,-14.902"
       style="fill:none;stroke:#231f20;stroke-width:0.5;stroke-linecap:round;stroke-linejoin:round;stroke-miterlimit:4;stroke-dasharray:2.8, 1.8;stroke-dashoffset:0;stroke-opacity:1"
       id="path842" />
    <path
       d="m 481.977,515.798 c -5.339,-2.554 -62.817,-40.536 -78.139,-81.625"
       style="fill:none;stroke:#231f20;stroke-width:0.5;stroke-linecap:round;stroke-linejoin:round;stroke-miterlimit:4;stroke-dasharray:2.8, 1.8;stroke-dashoffset:0;stroke-opacity:1"
       id="path844" />
    <path
       d="m 503.09,516.107 c -3.251,-1.624 -5.107,-3.713 -5.107,-6.964 -3.483,-3.019 -52.233,-48.519 -68.25,-83.572"
       style="fill:none;stroke:#231f20;stroke-width:0.5;stroke-linecap:round;stroke-linejoin:round;stroke-miterlimit:4;stroke-dasharray:2.8, 1.8;stroke-dashoffset:0;stroke-opacity:1"
       id="path846" />
    <path
       d="m 429.501,459.927 c -3.947,0 -14.347,-4.647 -14.347,-13.005 0,-6.035 5.982,-8.541 11.127,-7.615 6.237,1.12 13.667,7.155 13.667,12.96 0,5.804 -5.803,7.66 -10.447,7.66 z"
       style="fill:none;stroke:#231f20;stroke-width:0.5;stroke-linecap:round;stroke-linejoin:round;stroke-miterlimit:4;stroke-dasharray:2.8, 1.8;stroke-dashoffset:0;stroke-opacity:1"
       id="path848" />
    <path
       d="m 439.819,453.635 c 0.231,-2.32 1.757,-7.634 -0.172,-10.608"
       style="fill:none;stroke:#231f20;stroke-width:0.5;stroke-linecap:round;stroke-linejoin:round;stroke-miterlimit:4;stroke-dasharray:2.8, 1.8;stroke-dashoffset:0;stroke-opacity:1"
       id="path850" />
    <path
       d="m 415.381,449.009 c -1.433,-4.171 -3.292,-12.063 -3.059,-16.242 0.232,-4.179 1.392,-8.82 5.107,-9.981 3.715,-1.162 9.75,-2.09 12.304,2.785"
       style="fill:none;stroke:#231f20;stroke-width:0.5;stroke-linecap:round;stroke-linejoin:round;stroke-miterlimit:4;stroke-dasharray:2.8, 1.8;stroke-dashoffset:0;stroke-opacity:1"
       id="path852" />
    <path
       d="m 412.322,432.767 c -2.553,-3.25 -6.506,-9.849 -5.572,-13.929 1.104,-4.816 5.829,-14.856 17.437,-11.606"
       style="fill:none;stroke:#231f20;stroke-width:0.5;stroke-linecap:round;stroke-linejoin:round;stroke-miterlimit:4;stroke-dasharray:2.8, 1.8;stroke-dashoffset:0;stroke-opacity:1"
       id="path854" />
    <path
       d="m 429.733,425.571 c -2.554,-4.875 -4.875,-16.714 -6.269,-20.893 -1.392,-4.178 -3.713,-13.465 -7.195,-14.161 -3.482,-0.696 -12.767,3.25 -20.893,20.196"
       style="fill:none;stroke:#231f20;stroke-width:0.5;stroke-linecap:round;stroke-linejoin:round;stroke-miterlimit:4;stroke-dasharray:2.8, 1.8;stroke-dashoffset:0;stroke-opacity:1"
       id="path856" />
    <path
       d="m 540.002,392.374 c 0,0 -2.787,0 -3.018,1.858 -0.232,1.858 -1.161,12.07 -1.393,18.338 -0.232,6.268 0.928,39.93 0.928,49.68 0,9.75 2.089,13.928 3.483,13.928 1.392,0 3.481,-4.178 3.481,-13.928 0,-9.75 1.161,-43.412 0.928,-49.68 -0.231,-6.268 -1.161,-16.48 -1.393,-18.338 -0.231,-1.858 -3.016,-1.858 -3.016,-1.858 z"
       style="fill:none;stroke:#231f20;stroke-width:0.5;stroke-linecap:round;stroke-linejoin:round;stroke-miterlimit:4;stroke-dasharray:2.8, 1.8;stroke-dashoffset:0;stroke-opacity:1"
       id="path858" />
    <path
       d="m 441.34,403.053 c -4.643,0 -8.126,-2.322 -11.375,-4.875 -3.25,-2.554 -7.638,-4.105 -9.286,-4.642 -1.647,-0.538 -4.179,-2.321 -1.856,-6.965 2.321,-4.644 7.196,-8.591 17.642,-6.036 10.448,2.554 16.207,11.058 14.393,17.41 -1.393,4.875 -9.518,5.108 -9.518,5.108 z"
       style="fill:none;stroke:#231f20;stroke-width:0.5;stroke-linecap:round;stroke-linejoin:round;stroke-miterlimit:4;stroke-dasharray:2.8, 1.8;stroke-dashoffset:0;stroke-opacity:1"
       id="path860" />
    <path
       d="m 530.02,394.928 c -2.531,-0.229 -6.037,0.232 -5.571,-3.251 0.462,-3.482 6.267,-7.196 7.891,-5.571 1.624,1.625 4.94,9.482 -2.32,8.822 z"
       style="fill:none;stroke:#231f20;stroke-width:0.5;stroke-linecap:round;stroke-linejoin:round;stroke-miterlimit:4;stroke-dasharray:2.8, 1.8;stroke-dashoffset:0;stroke-opacity:1"
       id="path862" />
    <path
       d="m 517.25,396.088 c -3.016,-0.077 -9.053,-1.161 -19.267,-3.018 -10.214,-1.857 -26.93,-6.5 -35.518,-9.75 -8.589,-3.249 -19.964,-6.268 -22.75,-7.428 -2.786,-1.16 -2.32,-3.25 -0.464,-4.642 1.857,-1.393 9.287,-3.716 13.929,-3.948 4.643,-0.231 5.571,0.698 9.518,3.948 3.945,3.25 10.91,6.498 17.41,8.588 6.501,2.089 17.41,5.803 24.839,6.964 7.429,1.162 18.416,2.175 16.947,5.341 -1.312,2.826 -3.474,3.976 -4.644,3.945 z"
       style="fill:none;stroke:#231f20;stroke-width:0.5;stroke-linecap:round;stroke-linejoin:round;stroke-miterlimit:4;stroke-dasharray:2.8, 1.8;stroke-dashoffset:0;stroke-opacity:1"
       id="path864" />
    <path
       d="m 493.34,366.142 c -3.018,-1.16 -8.357,-1.392 -4.178,3.019 4.178,4.409 12.304,11.142 16.947,12.999 4.642,1.857 10.69,3.565 14.392,3.946 4.527,0.465 9.17,-0.579 7.892,-3.713 -0.979,-2.405 -0.231,-5.108 1.162,-7.197 1.393,-2.09 3.25,-8.589 -2.321,-8.358"
       style="fill:none;stroke:#231f20;stroke-width:0.5;stroke-linecap:round;stroke-linejoin:round;stroke-miterlimit:4;stroke-dasharray:2.8, 1.8;stroke-dashoffset:0;stroke-opacity:1"
       id="path866" />
    <path
       d="m 506.109,382.16 c -4.411,-0.929 -13.001,-6.269 -16.947,-9.286 -3.947,-3.017 -18.34,-7.892 -18.804,-5.803 -0.464,2.09 5.803,4.179 10.91,5.571 5.108,1.394 12.536,5.108 11.84,6.965 -0.696,1.856 -7.195,1.16 -11.374,-0.233 -4.179,-1.393 -13.234,-7.197 -15.787,-11.143 -2.553,-3.945 -0.928,-5.34 3.251,-5.107 4.178,0.232 13.232,0.93 19.964,6.037"
       style="fill:none;stroke:#231f20;stroke-width:0.5;stroke-linecap:round;stroke-linejoin:round;stroke-miterlimit:4;stroke-dasharray:2.8, 1.8;stroke-dashoffset:0;stroke-opacity:1"
       id="path868" />
    <path
       d="m 586.662,366.142 c 3.018,-1.16 8.357,-1.392 4.178,3.019 -4.178,4.409 -12.304,11.142 -16.946,12.999 -4.642,1.857 -10.69,3.565 -14.392,3.946 -4.528,0.465 -9.171,-0.579 -7.893,-3.713 0.979,-2.405 0.231,-5.108 -1.161,-7.197 -1.393,-2.09 -3.251,-8.589 2.32,-8.358"
       style="fill:none;stroke:#231f20;stroke-width:0.5;stroke-linecap:round;stroke-linejoin:round;stroke-miterlimit:4;stroke-dasharray:2.8, 1.8;stroke-dashoffset:0;stroke-opacity:1"
       id="path870" />
    <path
       d="m 550.102,487.83 c 1.506,1.06 19.382,7.329 21.997,-1.718"
       style="fill:none;stroke:#231f20;stroke-width:0.5;stroke-linecap:round;stroke-linejoin:round;stroke-miterlimit:4;stroke-dasharray:2.8, 1.8;stroke-dashoffset:0;stroke-opacity:1"
       id="path872" />
    <path
       d="m 512.144,519.124 c 10.678,1.393 16.018,2.553 20.196,-0.697 4.179,-3.249 11.143,-14.393 1.624,-27.16 0,0 -6.499,-3.018 -7.891,-12.536 0,0 -10.68,-9.107 -15.555,-2.84 -5.277,6.786 -1.16,13.286 -1.856,19.091 -0.697,5.804 0.465,21.82 3.482,24.142 z"
       style="fill:none;stroke:#231f20;stroke-width:0.5;stroke-linecap:round;stroke-linejoin:round;stroke-miterlimit:4;stroke-dasharray:2.8, 1.8;stroke-dashoffset:0;stroke-opacity:1"
       id="path874" />
    <path
       d="m 529.9,487.83 c -1.506,1.06 -19.382,7.329 -21.997,-1.718"
       style="fill:none;stroke:#231f20;stroke-width:0.5;stroke-linecap:round;stroke-linejoin:round;stroke-miterlimit:4;stroke-dasharray:2.8, 1.8;stroke-dashoffset:0;stroke-opacity:1"
       id="path876" />
    <path
       d="m 579.22,550.22 c 0.261,-2.035 4.628,-11.725 9.446,-11.41 4.818,0.317 2.635,2.898 7.981,1.982 2.429,-0.415 3.873,-0.281 5.016,-0.047"
       style="fill:none;stroke:#231f20;stroke-width:0.5;stroke-linecap:round;stroke-linejoin:round;stroke-miterlimit:4;stroke-dasharray:2.8, 1.8;stroke-dashoffset:0;stroke-opacity:1"
       id="path878" />
    <path
       d="m 598.025,515.798 c 0,0 -17.88,8.992 -23.285,11.624 -5.405,2.631 -14.629,4.04 -15.867,2.596 -1.237,-1.447 -0.101,-4.137 1.183,-5.228 2.648,-1.894 5.713,-4.739 7.802,-5.666 2.09,-0.927 7.429,-1.624 9.054,-3.017"
       style="fill:none;stroke:#231f20;stroke-width:0.5;stroke-linecap:round;stroke-linejoin:round;stroke-miterlimit:4;stroke-dasharray:2.8, 1.8;stroke-dashoffset:0;stroke-opacity:1"
       id="path880" />
    <path
       d="m 595.108,527.275 c 0.884,-2.447 2.728,-5.033 6.202,-4.591 3.996,0.51 3.437,4.466 2.303,6.881"
       style="fill:none;stroke:#231f20;stroke-width:0.5;stroke-linecap:round;stroke-linejoin:round;stroke-miterlimit:4;stroke-dasharray:2.8, 1.8;stroke-dashoffset:0;stroke-opacity:1"
       id="path882" />
    <path
       d="m 592.236,540.086 c 0.846,-1.974 1.669,-5.352 2.059,-7.86"
       style="fill:none;stroke:#231f20;stroke-width:0.5;stroke-linecap:round;stroke-linejoin:round;stroke-miterlimit:4;stroke-dasharray:2.8, 1.8;stroke-dashoffset:0;stroke-opacity:1"
       id="path884" />
    <path
       d="m 621.151,528.782 c 0.156,-2.158 3.222,-6.528 10.046,-6.407"
       style="fill:none;stroke:#231f20;stroke-width:0.5;stroke-linecap:round;stroke-linejoin:round;stroke-miterlimit:4;stroke-dasharray:2.8, 1.8;stroke-dashoffset:0;stroke-opacity:1"
       id="path886" />
    <path
       d="m 595.108,527.275 c -0.629,-2.633 -2.299,-6.533 -4.213,-7.897"
       style="fill:none;stroke:#231f20;stroke-width:0.5;stroke-linecap:round;stroke-linejoin:round;stroke-miterlimit:4;stroke-dasharray:2.8, 1.8;stroke-dashoffset:0;stroke-opacity:1"
       id="path888" />
    <path
       d="m 603.505,523.565 c 0,0 1.628,-4.135 2.059,-7.271"
       style="fill:none;stroke:#231f20;stroke-width:0.5;stroke-linecap:round;stroke-linejoin:round;stroke-miterlimit:4;stroke-dasharray:2.8, 1.8;stroke-dashoffset:0;stroke-opacity:1"
       id="path890" />
    <path
       d="m 616.405,528.272 c 2.438,0.217 5.046,1.48 5.133,5.073 0.086,3.592 -2.907,4.9 -6.912,4.298 -4.002,-0.603 -4.643,-2.646 -4.677,-4.369 -0.045,-2.674 3.618,-5.258 6.456,-5.002 z"
       style="fill:none;stroke:#231f20;stroke-width:0.5;stroke-linecap:round;stroke-linejoin:round;stroke-miterlimit:4;stroke-dasharray:2.8, 1.8;stroke-dashoffset:0;stroke-opacity:1"
       id="path892" />
    <path
       d="m 551.006,531.926 9.05,-7.136"
       style="fill:none;stroke:#231f20;stroke-width:0.5;stroke-linecap:round;stroke-linejoin:round;stroke-miterlimit:4;stroke-dasharray:2.8, 1.8;stroke-dashoffset:0;stroke-opacity:1"
       id="path894" />
    <path
       d="m 500.782,550.22 c -0.261,-2.035 -4.627,-11.725 -9.447,-11.41 -4.816,0.317 -2.634,2.898 -7.98,1.982 -2.428,-0.415 -3.872,-0.281 -5.015,-0.047"
       style="fill:none;stroke:#231f20;stroke-width:0.5;stroke-linecap:round;stroke-linejoin:round;stroke-miterlimit:4;stroke-dasharray:2.8, 1.8;stroke-dashoffset:0;stroke-opacity:1"
       id="path896" />
    <path
       d="m 481.977,515.798 c 0,0 17.88,8.992 23.285,11.624 5.404,2.631 14.63,4.04 15.867,2.596 1.237,-1.447 0.101,-4.137 -1.183,-5.228 -2.647,-1.894 -5.713,-4.739 -7.802,-5.666 -2.089,-0.927 -7.428,-1.624 -9.054,-3.017"
       style="fill:none;stroke:#231f20;stroke-width:0.5;stroke-linecap:round;stroke-linejoin:round;stroke-miterlimit:4;stroke-dasharray:2.8, 1.8;stroke-dashoffset:0;stroke-opacity:1"
       id="path898" />
    <path
       d="m 484.895,527.275 c -0.885,-2.447 -2.729,-5.033 -6.203,-4.591 -3.996,0.51 -3.444,4.463 -2.31,6.878"
       style="fill:none;stroke:#231f20;stroke-width:0.5;stroke-linecap:round;stroke-linejoin:round;stroke-miterlimit:4;stroke-dasharray:2.8, 1.8;stroke-dashoffset:0;stroke-opacity:1"
       id="path900" />
    <path
       d="m 487.766,540.086 c -0.846,-1.974 -1.669,-5.352 -2.059,-7.86"
       style="fill:none;stroke:#231f20;stroke-width:0.5;stroke-linecap:round;stroke-linejoin:round;stroke-miterlimit:4;stroke-dasharray:2.8, 1.8;stroke-dashoffset:0;stroke-opacity:1"
       id="path902" />
    <path
       d="m 458.844,528.904 c -0.156,-2.157 -3.215,-6.65 -10.039,-6.529"
       style="fill:none;stroke:#231f20;stroke-width:0.5;stroke-linecap:round;stroke-linejoin:round;stroke-miterlimit:4;stroke-dasharray:2.8, 1.8;stroke-dashoffset:0;stroke-opacity:1"
       id="path904" />
    <path
       d="m 484.895,527.275 c 0.628,-2.633 2.298,-6.533 4.212,-7.897"
       style="fill:none;stroke:#231f20;stroke-width:0.5;stroke-linecap:round;stroke-linejoin:round;stroke-miterlimit:4;stroke-dasharray:2.8, 1.8;stroke-dashoffset:0;stroke-opacity:1"
       id="path906" />
    <path
       d="m 476.497,523.565 c 0,0 -1.628,-4.135 -2.058,-7.271"
       style="fill:none;stroke:#231f20;stroke-width:0.5;stroke-linecap:round;stroke-linejoin:round;stroke-miterlimit:4;stroke-dasharray:2.8, 1.8;stroke-dashoffset:0;stroke-opacity:1"
       id="path908" />
    <path
       d="m 463.598,528.272 c -2.439,0.217 -5.047,1.48 -5.134,5.073 -0.087,3.592 2.908,4.9 6.912,4.298 4.002,-0.603 4.643,-2.646 4.677,-4.369 0.045,-2.674 -3.618,-5.258 -6.455,-5.002 z"
       style="fill:none;stroke:#231f20;stroke-width:0.5;stroke-linecap:round;stroke-linejoin:round;stroke-miterlimit:4;stroke-dasharray:2.8, 1.8;stroke-dashoffset:0;stroke-opacity:1"
       id="path910" />
    <path
       d="m 528.996,531.926 -9.05,-7.136"
       style="fill:none;stroke:#231f20;stroke-width:0.5;stroke-linecap:round;stroke-linejoin:round;stroke-miterlimit:4;stroke-dasharray:2.8, 1.8;stroke-dashoffset:0;stroke-opacity:1"
       id="path912" />
    <path
       d="m 698.09,787.134 c 14.639,0.827 32.385,1.393 55.715,-7.312 23.33,-8.706 39.697,-25.769 52.58,-44.92 12.885,-19.152 16.019,-27.509 13.233,-29.599 -2.786,-2.089 -15.67,4.179 -29.947,21.241 -14.277,17.063 -31.339,29.599 -36.562,24.724 -5.224,-4.875 -2.438,-10.446 12.187,-28.206 14.625,-17.759 42.483,-44.919 53.974,-56.759 11.49,-11.839 7.66,-17.062 6.268,-19.5 -1.393,-2.437 -8.009,-8.357 -24.724,5.571 -16.714,13.929 -39.348,30.295 -72.08,51.537 -32.732,21.241 -69.295,51.883 -74.17,65.464 -4.875,13.581 4.179,13.232 12.188,13.581 8.008,0.347 24.001,3.763 31.338,4.178 z"
       style="fill:none;stroke:#231f20;stroke-width:0.75;stroke-linecap:round;stroke-linejoin:round;stroke-miterlimit:4;stroke-dasharray:0, 2;stroke-dashoffset:0;stroke-opacity:1"
       id="path914" />
    <path
       d="m 540.002,756.491 c -7.313,0 -17.412,1.045 -42.135,4.527 -24.723,3.482 -41.438,-6.616 -70.339,-43.527 -28.902,-36.91 -59.545,-65.464 -74.17,-77.652 -14.625,-12.187 -16.366,-16.366 -22.634,-32.036 -6.267,-15.67 -18.455,-13.58 -22.982,-11.142 -4.527,2.437 -13.233,14.972 -17.411,21.589 -4.178,6.616 1.393,15.321 5.919,18.805 4.528,3.484 26.813,15.319 51.537,27.159 24.723,11.839 38.303,26.813 58.5,49.447 20.196,22.633 33.777,51.187 39.348,65.812 5.572,14.625 16.018,19.849 36.214,23.679 20.196,3.83 46.661,3.83 58.153,3.83 11.491,0 37.955,0 58.151,-3.83 20.196,-3.83 30.643,-9.054 36.215,-23.679 5.571,-14.625 19.151,-43.179 39.347,-65.812 20.198,-22.634 33.778,-37.608 58.501,-49.447 24.723,-11.84 47.009,-23.675 51.536,-27.159 4.527,-3.484 10.098,-12.189 5.919,-18.805 -4.178,-6.617 -12.883,-19.152 -17.411,-21.589 -4.526,-2.438 -16.714,-4.528 -22.981,11.142 -6.269,15.67 -8.01,19.849 -22.635,32.036 -14.625,12.188 -45.268,40.742 -74.169,77.652 -28.902,36.911 -45.616,47.009 -70.34,43.527 -24.723,-3.482 -34.821,-4.527 -42.133,-4.527 z"
       style="fill:none;stroke:#231f20;stroke-width:0.75;stroke-linecap:round;stroke-linejoin:round;stroke-miterlimit:4;stroke-dasharray:0, 2;stroke-dashoffset:0;stroke-opacity:1"
       id="path916" />
    <path
       d="m 381.912,787.134 c -14.639,0.827 -32.384,1.393 -55.715,-7.312 -23.33,-8.706 -39.697,-25.769 -52.58,-44.92 -12.884,-19.152 -16.018,-27.509 -13.233,-29.599 2.786,-2.089 15.67,4.179 29.947,21.241 14.277,17.063 31.339,29.599 36.563,24.724 5.223,-4.875 2.438,-10.446 -12.187,-28.206 -14.625,-17.759 -42.483,-44.919 -53.974,-56.759 -11.491,-11.839 -7.661,-17.062 -6.268,-19.5 1.393,-2.437 8.009,-8.357 24.723,5.571 16.715,13.929 39.349,30.295 72.081,51.537 32.731,21.241 69.294,51.883 74.169,65.464 4.875,13.581 -4.178,13.232 -12.188,13.581 -8.008,0.347 -24.001,3.763 -31.338,4.178 z"
       style="fill:none;stroke:#231f20;stroke-width:0.75;stroke-linecap:round;stroke-linejoin:round;stroke-miterlimit:4;stroke-dasharray:0, 2;stroke-dashoffset:0;stroke-opacity:1"
       id="path918" />
    <path
       d="m 540.002,692.768 c -5.224,0 -26.465,-0.349 -39.349,-1.741 -12.884,-1.393 -21.589,-2.09 -34.821,-16.366 -13.233,-14.278 -24.375,-37.606 -29.599,-48.054 -5.223,-10.448 -14.276,-17.411 -23.33,-21.59 -9.054,-4.178 -34.821,-20.544 -49.099,-21.937 -14.276,-1.393 -17.759,8.706 -10.097,14.973 7.66,6.268 25.767,19.5 48.053,43.179 22.285,23.679 43.179,54.321 54.322,66.161 11.142,11.839 19.847,12.884 32.035,12.188 12.187,-0.697 39.697,3.133 51.885,3.133 12.187,0 39.696,-3.83 51.883,-3.133 12.188,0.696 20.893,-0.349 32.036,-12.188 11.143,-11.84 32.036,-42.482 54.322,-66.161 22.285,-23.679 40.392,-36.911 48.053,-43.179 7.661,-6.267 4.179,-16.366 -10.098,-14.973 -14.277,1.393 -40.045,17.759 -49.098,21.937 -9.054,4.179 -18.107,11.142 -23.331,21.59 -5.223,10.448 -16.366,33.776 -29.598,48.054 -13.232,14.276 -21.937,14.973 -34.822,16.366 -12.884,1.392 -34.125,1.741 -39.347,1.741 z"
       style="fill:none;stroke:#231f20;stroke-width:0.75;stroke-linecap:round;stroke-linejoin:round;stroke-miterlimit:4;stroke-dasharray:0, 2;stroke-dashoffset:0;stroke-opacity:1"
       id="path920" />
    <path
       d="m 467.92,661.777 c 3.134,-6.965 10.447,-8.009 16.715,-8.009 6.268,0 104.464,0 110.733,0 6.267,0 13.58,1.044 16.714,8.009"
       style="fill:none;stroke:#231f20;stroke-width:0.75;stroke-linecap:round;stroke-linejoin:round;stroke-miterlimit:4;stroke-dasharray:0, 2;stroke-dashoffset:0;stroke-opacity:1"
       id="path922" />
    <path
       d="m 444.542,608.846 c 2.115,0.272 8.753,5.573 12.584,9.404 3.831,3.831 15.322,3.831 30.643,-1.393 15.321,-5.224 41.438,-4.179 52.233,-4.179 10.793,0 36.91,-1.045 52.232,4.179 15.321,5.224 26.812,5.224 30.642,1.393 3.831,-3.831 10.47,-9.132 12.585,-9.404"
       style="fill:none;stroke:#231f20;stroke-width:0.75;stroke-linecap:round;stroke-linejoin:round;stroke-miterlimit:4;stroke-dasharray:0, 2;stroke-dashoffset:0;stroke-opacity:1"
       id="path924" />
    <path
       d="m 540.002,561.142 c -44.109,0 -52.465,4.875 -72.429,13.232 -7.034,2.946 -30.295,16.018 -32.036,21.59 -1.742,5.572 5.571,4.527 12.536,4.527 6.964,0 13.231,-3.134 23.678,-6.617 10.447,-3.482 36.911,-4.526 43.875,-4.526 6.964,0 15.322,1.044 24.376,1.044 9.053,0 17.41,-1.044 24.374,-1.044 6.964,0 33.429,1.044 43.876,4.526 10.446,3.483 16.713,6.617 23.678,6.617 6.964,0 14.277,1.045 12.535,-4.527 -1.741,-5.572 -25.002,-18.644 -32.035,-21.59 -19.964,-8.357 -28.321,-13.232 -72.428,-13.232"
       style="fill:#d3d2d2;fill-opacity:1;fill-rule:nonzero;stroke:none;stroke-width:0.1"
       id="path926" />
    <path
       d="m 540.002,561.142 c -44.109,0 -52.465,4.875 -72.429,13.232 -7.034,2.946 -30.295,16.018 -32.036,21.59 -1.742,5.572 5.571,4.527 12.536,4.527 6.964,0 13.231,-3.134 23.678,-6.617 10.447,-3.482 36.911,-4.526 43.875,-4.526 6.964,0 15.322,1.044 24.376,1.044 9.053,0 17.41,-1.044 24.374,-1.044 6.964,0 33.429,1.044 43.876,4.526 10.446,3.483 16.713,6.617 23.678,6.617 6.964,0 14.277,1.045 12.535,-4.527 -1.741,-5.572 -25.002,-18.644 -32.035,-21.59 -19.964,-8.357 -28.321,-13.232 -72.428,-13.232 z"
       style="fill:none;stroke:#231f20;stroke-width:0.75;stroke-linecap:round;stroke-linejoin:round;stroke-miterlimit:4;stroke-dasharray:0, 2;stroke-dashoffset:0;stroke-opacity:1"
       id="path928" />
  </g>
</svg>
