<?xml version="1.0" encoding="UTF-8" standalone="no"?>
<!-- Created with Inkscape (http://www.inkscape.org/) -->

<svg
   version="1.1"
   id="svg2"
   width="1440"
   height="1344"
   viewBox="0 0 1440 1344"
   xmlns="http://www.w3.org/2000/svg"
   xmlns:svg="http://www.w3.org/2000/svg">
  <defs
     id="defs6" />
  <g
     id="g8">
    <path
       d="m 552.584,362.137 c 2.347,-0.627 3.639,-4.371 1.136,-5.763 -2.503,-1.39 -6.451,0.52 -5.841,3.893 0.613,3.375 4.705,1.87 4.705,1.87"
       style="fill:#ffffff;fill-opacity:1;fill-rule:nonzero;stroke:none;stroke-width:0.1"
       id="path672" />
    <path
       d="m 552.584,362.137 c 2.347,-0.627 3.639,-4.371 1.136,-5.763 -2.503,-1.39 -6.451,0.52 -5.841,3.893 0.613,3.375 4.705,1.87 4.705,1.87 z"
       style="fill:none;stroke:#231f20;stroke-width:0.5;stroke-linecap:round;stroke-linejoin:round;stroke-miterlimit:4;stroke-dasharray:none;stroke-opacity:1"
       id="path674" />
    <path
       d="m 540.002,555.206 c -7.879,0 -48.207,7.612 -57.865,9.42 -6.175,3.398 -15.584,6.216 -34.553,15.051 -5.753,2.679 -9.607,5.247 -12.178,7.609 l -1.125,1.103 c -0.504,0.514 -0.871,0.981 -0.871,0.981 -4.456,3.376 -11.131,5.324 -18.083,3.933 -7.231,-2.781 -12.08,-3.471 -22.803,-9.733 l -6.396,-5.283 c -3.894,-2.226 -13.349,-5.006 -17.242,-6.119 -3.892,-1.112 -12.792,-3.337 -24.192,-13.626 -11.402,-10.289 -24.503,-32.437 -29.478,-52.836 -2.782,-11.402 2.224,-34.205 5.562,-41.712 3.337,-7.509 8.898,-15.851 15.016,-21.97 6.118,-6.116 21.414,-22.246 32.536,-32.257 11.124,-10.012 31.98,-21.69 41.157,-26.141 9.177,-4.448 40.879,-18.074 64.515,-21.967 6.092,-1.004 13.182,-2.819 19.189,-3.059 17.299,-0.692 31.815,2.521 36.15,4.17 5.839,2.226 8.806,4.172 10.661,7.231 1.853,-3.059 4.82,-5.005 10.66,-7.231 4.335,-1.649 18.85,-4.862 36.15,-4.17 6.006,0.24 13.096,2.055 19.188,3.059 23.636,3.893 55.339,17.519 64.515,21.967 9.178,4.451 30.033,16.129 41.157,26.141 11.123,10.011 26.418,26.141 32.536,32.257 6.118,6.119 11.679,14.461 15.016,21.97 3.338,7.507 8.344,30.31 5.563,41.712 -4.975,20.399 -18.077,42.547 -29.478,52.836 -11.401,10.289 -20.3,12.514 -24.193,13.626 -3.893,1.113 -13.348,3.893 -17.242,6.119 l -6.396,5.283 c -10.723,6.262 -15.571,6.952 -22.803,9.733 -6.951,1.391 -13.626,-0.557 -18.082,-3.933 0,0 -0.367,-0.467 -0.872,-0.981 l -1.125,-1.103 c -2.57,-2.362 -6.424,-4.93 -12.178,-7.609 -18.969,-8.835 -28.552,-11.653 -34.727,-15.051 -9.658,-1.808 -49.812,-9.42 -57.689,-9.42"
       style="fill:#ffffff;fill-opacity:1;fill-rule:nonzero;stroke:none;stroke-width:0.1"
       id="path676" />
    <path
       d="m 540.002,555.206 c -7.879,0 -48.207,7.612 -57.865,9.42 -6.175,3.398 -15.584,6.216 -34.553,15.051 -5.753,2.679 -9.607,5.247 -12.178,7.609 l -1.125,1.103 c -0.504,0.514 -0.871,0.981 -0.871,0.981 -4.456,3.376 -11.131,5.324 -18.083,3.933 -7.231,-2.781 -12.08,-3.471 -22.803,-9.733 l -6.396,-5.283 c -3.894,-2.226 -13.349,-5.006 -17.242,-6.119 -3.892,-1.112 -12.792,-3.337 -24.192,-13.626 -11.402,-10.289 -24.503,-32.437 -29.478,-52.836 -2.782,-11.402 2.224,-34.205 5.562,-41.712 3.337,-7.509 8.898,-15.851 15.016,-21.97 6.118,-6.116 21.414,-22.246 32.536,-32.257 11.124,-10.012 31.98,-21.69 41.157,-26.141 9.177,-4.448 40.879,-18.074 64.515,-21.967 6.092,-1.004 13.182,-2.819 19.189,-3.059 17.299,-0.692 31.815,2.521 36.15,4.17 5.839,2.226 8.806,4.172 10.661,7.231 1.853,-3.059 4.82,-5.005 10.66,-7.231 4.335,-1.649 18.85,-4.862 36.15,-4.17 6.006,0.24 13.096,2.055 19.188,3.059 23.636,3.893 55.339,17.519 64.515,21.967 9.178,4.451 30.033,16.129 41.157,26.141 11.123,10.011 26.418,26.141 32.536,32.257 6.118,6.119 11.679,14.461 15.016,21.97 3.338,7.507 8.344,30.31 5.563,41.712 -4.975,20.399 -18.077,42.547 -29.478,52.836 -11.401,10.289 -20.3,12.514 -24.193,13.626 -3.893,1.113 -13.348,3.893 -17.242,6.119 l -6.396,5.283 c -10.723,6.262 -15.571,6.952 -22.803,9.733 -6.951,1.391 -13.626,-0.557 -18.082,-3.933 0,0 -0.367,-0.467 -0.872,-0.981 l -1.125,-1.103 c -2.57,-2.362 -6.424,-4.93 -12.178,-7.609 -18.969,-8.835 -28.552,-11.653 -34.727,-15.051 -9.658,-1.808 -49.812,-9.42 -57.689,-9.42 z"
       style="fill:none;stroke:#231f20;stroke-width:0.75;stroke-linecap:round;stroke-linejoin:round;stroke-miterlimit:4;stroke-dasharray:none;stroke-opacity:1"
       id="path678" />
    <path
       d="m 540.002,555.206 c -7.879,0 -48.207,7.612 -57.865,9.42 -6.175,3.398 -15.584,6.216 -34.553,15.051 -5.753,2.679 -9.607,5.247 -12.178,7.609 l -1.125,1.103 c -5.166,5.437 -3.66,9.629 -3.66,11.31 0,2.503 0.556,7.229 1.543,11.459 v 10e-4 c -0.239,-0.524 -0.474,-1.013 -0.708,-1.449 -1.948,-3.615 -8.899,-13.626 -16.129,-16.407 -7.231,-2.781 -12.08,-3.471 -22.803,-9.733 -5.271,-3.077 -10.567,-5.006 -19.466,-7.232 -9.221,-2.303 -23.359,-1.944 -27.252,0.557 -3.894,2.503 -2.225,6.118 -2.225,6.118 0,0 -6.396,-4.449 -15.574,-6.675 -9.175,-2.223 -18.631,1.949 -25.026,6.398 -6.397,4.449 -21.412,16.684 -26.418,22.246 -5.006,5.562 -10.011,12.792 -13.35,17.241 -3.336,4.449 -3.057,7.787 -3.057,7.787 -10.568,7.508 -18.355,16.407 -20.023,30.033 -1.669,13.626 -0.835,24.749 16.964,50.055 17.797,25.306 41.434,41.713 53.393,49.221 11.956,7.509 26.972,13.627 35.871,14.182 8.898,0.557 43.382,3.894 49.5,5.006 6.118,1.113 11.68,1.669 18.353,-2.225 6.674,-3.893 4.45,-17.24 4.45,-17.24 6.395,8.064 10.01,4.726 15.572,10.01 3.59,3.41 10.289,15.295 14.182,18.91 3.894,3.616 19.189,11.958 34.483,17.797 15.296,5.84 46.997,5.563 57.101,5.563 10.103,0 41.804,0.277 57.1,-5.563 15.294,-5.839 30.588,-14.181 34.482,-17.797 3.893,-3.615 10.592,-15.5 14.182,-18.91 5.562,-5.284 9.178,-1.946 15.573,-10.01 0,0 -2.225,13.347 4.45,17.24 6.672,3.894 12.235,3.338 18.353,2.225 6.118,-1.112 40.601,-4.449 49.499,-5.006 8.899,-0.555 23.916,-6.673 35.872,-14.182 11.959,-7.508 35.596,-23.915 53.393,-49.221 17.798,-25.306 18.632,-36.429 16.963,-50.055 -1.668,-13.626 -9.455,-22.525 -20.023,-30.033 0,0 0.28,-3.338 -3.057,-7.787 -3.338,-4.449 -8.344,-11.679 -13.35,-17.241 -5.005,-5.562 -20.021,-17.797 -26.418,-22.246 -6.395,-4.449 -15.851,-8.621 -25.026,-6.398 -9.178,2.226 -15.574,6.675 -15.574,6.675 0,0 1.669,-3.615 -2.224,-6.118 -3.894,-2.501 -18.031,-2.86 -27.252,-0.557 -8.899,2.226 -14.195,4.155 -19.467,7.232 -10.723,6.262 -15.571,6.952 -22.803,9.733 -7.23,2.781 -14.18,12.792 -16.129,16.407 -0.234,0.436 -0.469,0.925 -0.707,1.449 v -10e-4 c 0.986,-4.23 1.542,-8.956 1.542,-11.459 0,-1.681 1.506,-5.873 -3.66,-11.31 l -1.125,-1.103 c -2.57,-2.362 -6.424,-4.93 -12.178,-7.609 -18.969,-8.835 -28.552,-11.653 -34.727,-15.051 -9.658,-1.808 -49.812,-9.42 -57.689,-9.42"
       style="fill:#ffffff;fill-opacity:1;fill-rule:nonzero;stroke:none;stroke-width:0.1"
       id="path680" />
    <path
       d="m 644.596,587.286 c -0.082,-2.188 2.934,-1.452 6.176,0.649 4.31,2.795 22.524,4.727 25.241,-2.816 2.593,-7.2 -11.615,-14.983 -17.456,-14.983 -5.839,0 -14.181,-0.834 -13.625,-3.057 0.557,-2.226 2.78,-3.894 8.343,-2.226 5.561,1.669 12.143,4.349 18.075,7.315 2.225,1.113 11.123,6.554 15.016,7.11 0,0 3.615,1.232 7.508,-0.991"
       style="fill:none;stroke:#231f20;stroke-width:0.5;stroke-linecap:butt;stroke-linejoin:miter;stroke-miterlimit:4;stroke-dasharray:none;stroke-opacity:1"
       id="path682" />
    <path
       d="m 435.406,587.286 c 0.082,-2.188 -2.934,-1.452 -6.175,0.649 -4.311,2.795 -22.525,4.727 -25.242,-2.816 -2.592,-7.2 11.615,-14.983 17.456,-14.983 5.84,0 14.181,-0.834 13.625,-3.057 -0.556,-2.226 -2.78,-3.894 -8.342,-2.226 -5.562,1.669 -12.143,4.349 -18.076,7.315 -2.224,1.113 -11.122,6.554 -15.016,7.11 0,0 -3.615,1.232 -7.508,-0.991"
       style="fill:none;stroke:#231f20;stroke-width:0.5;stroke-linecap:butt;stroke-linejoin:miter;stroke-miterlimit:4;stroke-dasharray:none;stroke-opacity:1"
       id="path684" />
    <path
       d="m 540.002,625.838 c -3.801,0 -22.062,-1.39 -31.517,-1.946 -9.455,-0.557 -33.091,4.728 -33.091,8.898 0,4.172 53.113,7.508 64.608,7.508 11.493,0 64.608,-3.336 64.608,-7.508 0,-4.17 -23.638,-9.455 -33.093,-8.898 -9.454,0.556 -27.716,1.946 -31.515,1.946 z m 108.543,-18.184 v 0.002 c -0.202,1.166 -0.438,2.35 -0.705,3.498 -1.737,3.826 -3.656,9.793 -7.08,14.684 -3.892,5.562 -12.513,26.975 -12.513,26.975 -0.834,3.059 -3.616,11.401 -3.616,11.401 -4.448,-1.39 -12.792,-1.39 -20.299,-1.39 H 475.671 c -7.508,0 -15.85,0 -20.299,1.39 0,0 -2.782,-8.342 -3.616,-11.401 0,0 -8.621,-21.413 -12.514,-26.975 -3.423,-4.889 -5.341,-10.854 -7.077,-14.68 -0.268,-1.15 -0.505,-2.336 -0.707,-3.504 5.93,-3.877 11.399,3.724 16.126,8.452 4.728,4.726 18.076,-1.112 34.483,-5.006 16.407,-3.892 49.222,-2.502 57.935,-2.502 8.712,0 41.527,-1.39 57.933,2.502 16.407,3.894 29.755,9.732 34.483,5.006 4.727,-4.728 10.197,-12.329 16.127,-8.452"
       style="fill:#d3d2d2;fill-opacity:1;fill-rule:nonzero;stroke:none;stroke-width:0.1"
       id="path686" />
    <path
       d="m 527.418,362.137 c -2.346,-0.627 -3.638,-4.371 -1.135,-5.763 2.503,-1.39 6.451,0.52 5.84,3.893 -0.613,3.375 -4.705,1.87 -4.705,1.87"
       style="fill:#ffffff;fill-opacity:1;fill-rule:nonzero;stroke:none;stroke-width:0.1"
       id="path688" />
    <path
       d="m 527.418,362.137 c -2.346,-0.627 -3.638,-4.371 -1.135,-5.763 2.503,-1.39 6.451,0.52 5.84,3.893 -0.613,3.375 -4.705,1.87 -4.705,1.87 z"
       style="fill:none;stroke:#231f20;stroke-width:0.5;stroke-linecap:round;stroke-linejoin:round;stroke-miterlimit:4;stroke-dasharray:none;stroke-opacity:1"
       id="path690" />
    <path
       d="m 661.339,759.042 c 5.284,-6.675 16.963,-16.408 29.755,-33.093 12.791,-16.685 37.542,-41.991 61.735,-58.398 24.192,-16.406 57.006,-37.541 67.017,-37.541"
       style="fill:none;stroke:#231f20;stroke-width:0.5;stroke-linecap:butt;stroke-linejoin:miter;stroke-miterlimit:4;stroke-dasharray:none;stroke-opacity:1"
       id="path692" />
    <path
       d="m 721.682,446.474 c 5.006,2.781 16.408,9.454 21.135,17.797 4.728,8.344 6.896,19.712 7.453,29.167 0.557,9.455 -1.891,21.723 -9.12,35.07 -7.232,13.349 -18.355,20.301 -30.034,24.473 -10.426,3.724 -19.466,5.84 -21.135,5.84 -1.667,0 -11.957,0.834 -14.737,1.389 -2.783,0.557 -8.066,1.391 -8.066,4.727 0,3.339 1.948,6.119 4.172,7.231"
       style="fill:none;stroke:#231f20;stroke-width:0.5;stroke-linecap:butt;stroke-linejoin:miter;stroke-miterlimit:4;stroke-dasharray:none;stroke-opacity:1"
       id="path694" />
    <path
       d="m 540.002,370.001 c 0,3.893 3.151,6.396 6.21,6.674 3.059,0.278 22.525,2.781 32.257,1.946 9.734,-0.834 20.302,-2.781 23.915,-4.727 3.616,-1.946 12.515,-6.675 3.616,-12.235"
       style="fill:none;stroke:#231f20;stroke-width:0.5;stroke-linecap:butt;stroke-linejoin:miter;stroke-miterlimit:4;stroke-dasharray:none;stroke-opacity:1"
       id="path696" />
    <path
       d="m 670.515,383.626 c 0.557,4.172 3.615,5.285 9.178,8.622 5.561,3.337 16.963,11.957 19.743,14.739 2.781,2.78 7.23,8.898 8.899,10.845 1.668,1.946 11.402,6.489 13.053,12.973"
       style="fill:none;stroke:#231f20;stroke-width:0.5;stroke-linecap:butt;stroke-linejoin:miter;stroke-miterlimit:4;stroke-dasharray:none;stroke-opacity:1"
       id="path698" />
    <path
       d="m 721.682,446.474 c -0.834,-1.668 -1.667,-5.283 -1.667,-5.283 0,0 1.946,-5.841 7.785,-4.172 5.841,1.669 14.74,9.177 22.526,20.855 7.786,11.681 11.401,27.532 9.455,43.939 -1.947,16.406 -8.343,31.701 -17.797,43.937 -9.455,12.236 -26.327,20.67 -31.333,22.894"
       style="fill:none;stroke:#231f20;stroke-width:0.5;stroke-linecap:butt;stroke-linejoin:miter;stroke-miterlimit:4;stroke-dasharray:none;stroke-opacity:1"
       id="path700" />
    <path
       d="m 358.32,446.474 c -5.006,2.781 -16.408,9.454 -21.135,17.797 -4.728,8.344 -6.896,19.712 -7.453,29.167 -0.556,9.455 1.892,21.723 9.121,35.07 7.231,13.349 18.355,20.301 30.033,24.473 10.426,3.724 19.466,5.84 21.135,5.84 1.668,0 11.958,0.834 14.738,1.389 2.782,0.557 8.065,1.391 8.065,4.727 0,3.339 -1.947,6.119 -4.172,7.231"
       style="fill:none;stroke:#231f20;stroke-width:0.5;stroke-linecap:butt;stroke-linejoin:miter;stroke-miterlimit:4;stroke-dasharray:none;stroke-opacity:1"
       id="path702" />
    <path
       d="m 544.478,376.28 c -2.716,0.117 -4.476,0.673 -4.476,4.289"
       style="fill:none;stroke:#231f20;stroke-width:0.5;stroke-linecap:butt;stroke-linejoin:miter;stroke-miterlimit:4;stroke-dasharray:none;stroke-opacity:1"
       id="path704" />
    <path
       d="m 720.015,441.191 c -2.78,2.78 -8.343,1.946 -10.012,0.556 -1.668,-1.392 -1.946,-4.728 0,-6.674 1.947,-1.947 6.396,-5.006 10.289,-4.449 3.893,0.555 6.099,1.628 5.552,6.097"
       style="fill:none;stroke:#231f20;stroke-width:0.5;stroke-linecap:butt;stroke-linejoin:miter;stroke-miterlimit:4;stroke-dasharray:none;stroke-opacity:1"
       id="path706" />
    <path
       d="m 343.581,583.013 c 3.337,8.899 13.348,26.418 19.188,35.039 5.84,8.62 43.103,52.002 56.173,72.58 13.07,20.578 23.915,40.323 28.642,46.719 4.728,6.396 9.177,9.732 15.852,11.68 6.673,1.946 26.417,2.502 41.99,3.336 15.573,0.835 30.034,-1.668 34.576,-1.668 4.54,0 19.001,2.503 34.575,1.668 15.573,-0.834 35.316,-1.39 41.991,-3.336 6.673,-1.948 11.122,-5.284 15.85,-11.68 4.727,-6.396 15.574,-26.141 28.642,-46.719 13.07,-20.578 50.334,-63.96 56.175,-72.58 5.839,-8.621 15.85,-26.14 19.186,-35.039"
       style="fill:none;stroke:#231f20;stroke-width:0.5;stroke-linecap:butt;stroke-linejoin:miter;stroke-miterlimit:4;stroke-dasharray:none;stroke-opacity:1"
       id="path708" />
    <path
       d="M 418.664,759.042 C 413.38,752.367 401.701,742.634 388.909,725.949 376.117,709.264 351.368,683.958 327.173,667.551 302.981,651.145 270.168,630.01 260.156,630.01"
       style="fill:none;stroke:#231f20;stroke-width:0.5;stroke-linecap:butt;stroke-linejoin:miter;stroke-miterlimit:4;stroke-dasharray:none;stroke-opacity:1"
       id="path710" />
    <path
       d="m 430.622,599.699 c 11.123,-1.948 35.038,-1.113 54.504,-4.45 19.466,-3.337 45.05,-3.058 54.876,-3.058 9.826,0 35.409,-0.279 54.874,3.058 19.466,3.337 43.381,2.502 54.505,4.45"
       style="fill:none;stroke:#231f20;stroke-width:0.5;stroke-linecap:butt;stroke-linejoin:miter;stroke-miterlimit:4;stroke-dasharray:none;stroke-opacity:1"
       id="path712" />
    <path
       d="m 482.139,564.626 c 3.059,-1.39 28.292,-11.923 34.41,-15.26 6.119,-3.338 17.798,-9.455 23.453,-9.455 5.654,0 17.333,6.117 23.451,9.455 6.118,3.337 31.178,13.87 34.238,15.26"
       style="fill:none;stroke:#231f20;stroke-width:0.5;stroke-linecap:butt;stroke-linejoin:miter;stroke-miterlimit:4;stroke-dasharray:none;stroke-opacity:1"
       id="path714" />
    <path
       d="m 540.002,370.001 c 0,3.893 -3.153,6.396 -6.211,6.674 -3.059,0.278 -22.525,2.781 -32.258,1.946 -9.733,-0.834 -20.3,-2.781 -23.915,-4.727 -3.616,-1.946 -12.514,-6.675 -3.616,-12.235"
       style="fill:none;stroke:#231f20;stroke-width:0.5;stroke-linecap:butt;stroke-linejoin:miter;stroke-miterlimit:4;stroke-dasharray:none;stroke-opacity:1"
       id="path716" />
    <path
       d="m 409.487,383.626 c -0.556,4.172 -3.615,5.285 -9.177,8.622 -5.561,3.337 -16.963,11.957 -19.744,14.739 -2.78,2.78 -7.23,8.898 -8.898,10.845 -1.669,1.946 -11.402,6.489 -13.053,12.973"
       style="fill:none;stroke:#231f20;stroke-width:0.5;stroke-linecap:butt;stroke-linejoin:miter;stroke-miterlimit:4;stroke-dasharray:none;stroke-opacity:1"
       id="path718" />
    <path
       d="m 358.32,446.474 c 0.834,-1.668 1.668,-5.283 1.668,-5.283 0,0 -1.946,-5.841 -7.786,-4.172 -5.839,1.669 -14.739,9.177 -22.526,20.855 -7.785,11.681 -11.401,27.532 -9.454,43.939 1.946,16.406 8.343,31.701 17.797,43.937 9.455,12.236 26.327,20.67 31.332,22.894"
       style="fill:none;stroke:#231f20;stroke-width:0.5;stroke-linecap:butt;stroke-linejoin:miter;stroke-miterlimit:4;stroke-dasharray:none;stroke-opacity:1"
       id="path720" />
    <path
       d="m 540.002,523.225 c -3.801,0 -4.542,11.124 0,11.124 4.54,0 3.799,-11.124 0,-11.124"
       style="fill:#706d6e;fill-opacity:1;fill-rule:nonzero;stroke:none;stroke-width:0.1"
       id="path722" />
    <path
       d="m 540.002,523.225 c -3.801,0 -4.542,11.124 0,11.124 4.54,0 3.799,-11.124 0,-11.124 z"
       style="fill:none;stroke:#231f20;stroke-width:0.75;stroke-linecap:round;stroke-linejoin:round;stroke-miterlimit:4;stroke-dasharray:none;stroke-opacity:1"
       id="path724" />
    <path
       d="m 510.612,410.374 c 8.62,10.012 14.003,63.353 16.506,73.364 2.502,10.01 9.454,8.898 12.884,8.898 3.43,0 10.38,1.112 12.883,-8.898 2.503,-10.011 7.885,-63.352 16.506,-73.364"
       style="fill:none;stroke:#231f20;stroke-width:0.5;stroke-linecap:butt;stroke-linejoin:miter;stroke-miterlimit:4;stroke-dasharray:none;stroke-opacity:1"
       id="path726" />
    <path
       d="m 517.94,387.521 c 0,0 -4.71,-0.466 -7.36,-2.875"
       style="fill:none;stroke:#231f20;stroke-width:0.5;stroke-linecap:butt;stroke-linejoin:miter;stroke-miterlimit:4;stroke-dasharray:none;stroke-opacity:1"
       id="path728" />
    <path
       d="m 535.525,376.28 c 2.716,0.117 4.477,0.673 4.477,4.289"
       style="fill:none;stroke:#231f20;stroke-width:0.5;stroke-linecap:butt;stroke-linejoin:miter;stroke-miterlimit:4;stroke-dasharray:none;stroke-opacity:1"
       id="path730" />
    <path
       d="m 536.764,388.547 c -0.192,-2.695 0.827,-7.978 3.238,-7.978 2.41,0 3.43,5.283 3.237,7.978"
       style="fill:none;stroke:#231f20;stroke-width:0.5;stroke-linecap:butt;stroke-linejoin:miter;stroke-miterlimit:4;stroke-dasharray:none;stroke-opacity:1"
       id="path732" />
    <path
       d="m 359.988,441.191 c 2.781,2.78 8.343,1.946 10.011,0.556 1.669,-1.392 1.946,-4.728 0,-6.674 -1.947,-1.947 -6.396,-5.006 -10.289,-4.449 -3.893,0.555 -6.098,1.628 -5.552,6.097"
       style="fill:none;stroke:#231f20;stroke-width:0.5;stroke-linecap:butt;stroke-linejoin:miter;stroke-miterlimit:4;stroke-dasharray:none;stroke-opacity:1"
       id="path734" />
    <path
       d="m 540.002,614.994 c -7.045,0 -43.474,0 -64.331,5.561 -20.853,5.561 -31.123,6.835 -37.241,4.055 0.263,0.415 0.531,0.827 0.812,1.228 3.893,5.562 12.514,26.975 12.514,26.975 4.45,-1.113 22.246,-3.894 30.59,-3.894 8.342,0 46.718,-0.835 57.656,-0.835 10.938,0 49.312,0.835 57.656,0.835 8.342,0 26.139,2.781 30.589,3.894 0,0 8.621,-21.413 12.513,-26.975 0.282,-0.401 0.55,-0.813 0.813,-1.228 -6.118,2.78 -16.387,1.506 -37.241,-4.055 -20.857,-5.561 -57.287,-5.561 -64.33,-5.561 z m 47.645,6.952 c 26.973,3.336 37.542,7.785 37.542,11.122 0,3.338 -5.563,5.563 -13.35,6.675 -7.786,1.112 -63.96,4.449 -71.837,4.449 -7.879,0 -64.052,-3.337 -71.839,-4.449 -7.787,-1.112 -13.348,-3.337 -13.348,-6.675 0,-3.337 10.567,-7.786 37.541,-11.122 26.975,-3.337 40.786,-3.894 47.646,-3.894 6.859,0 20.67,0.557 47.645,3.894"
       style="fill:#b2b1b1;fill-opacity:1;fill-rule:nonzero;stroke:none;stroke-width:0.1"
       id="path736" />
    <path
       d="m 431.456,609.71 c 1.947,3.615 3.893,10.567 7.786,16.128 3.893,5.562 12.514,26.975 12.514,26.975 0.834,3.059 3.616,11.401 3.616,11.401 4.726,10.289 10.844,15.295 25.583,17.52 14.739,2.224 52.836,2.503 59.047,2.503 6.21,0 44.307,-0.279 59.046,-2.503 14.738,-2.225 20.856,-7.231 25.583,-17.52 0,0 2.782,-8.342 3.616,-11.401 0,0 8.621,-21.413 12.513,-26.975 3.894,-5.561 5.841,-12.513 7.786,-16.128"
       style="fill:none;stroke:#231f20;stroke-width:0.5;stroke-linecap:butt;stroke-linejoin:miter;stroke-miterlimit:4;stroke-dasharray:none;stroke-opacity:1"
       id="path738" />
    <path
       d="m 540.002,555.206 c -7.879,0 -48.207,7.612 -57.865,9.42 -6.175,3.398 -15.584,6.216 -34.553,15.051 -5.753,2.679 -9.607,5.247 -12.178,7.609 l -1.125,1.103 c -5.166,5.437 -3.66,9.629 -3.66,11.31 0,2.503 0.556,7.229 1.543,11.459 v 10e-4 c -0.239,-0.524 -0.474,-1.013 -0.708,-1.449 -1.948,-3.615 -8.899,-13.626 -16.129,-16.407 -7.231,-2.781 -12.08,-3.471 -22.803,-9.733 -5.271,-3.077 -10.567,-5.006 -19.466,-7.232 -9.221,-2.303 -23.359,-1.944 -27.252,0.557 -3.894,2.503 -2.225,6.118 -2.225,6.118 0,0 -6.396,-4.449 -15.574,-6.675 -9.175,-2.223 -18.631,1.949 -25.026,6.398 -6.397,4.449 -21.412,16.684 -26.418,22.246 -5.006,5.562 -10.011,12.792 -13.35,17.241 -3.336,4.449 -3.057,7.787 -3.057,7.787 -10.568,7.508 -18.355,16.407 -20.023,30.033 -1.669,13.626 -0.835,24.749 16.964,50.055 17.797,25.306 41.434,41.713 53.393,49.221 11.956,7.509 26.972,13.627 35.871,14.182 8.898,0.557 43.382,3.894 49.5,5.006 6.118,1.113 11.68,1.669 18.353,-2.225 6.674,-3.893 4.45,-17.24 4.45,-17.24 6.395,8.064 10.01,4.726 15.572,10.01 3.59,3.41 10.289,15.295 14.182,18.91 3.894,3.616 19.189,11.958 34.483,17.797 15.296,5.84 46.997,5.563 57.101,5.563 10.103,0 41.804,0.277 57.1,-5.563 15.294,-5.839 30.588,-14.181 34.482,-17.797 3.893,-3.615 10.592,-15.5 14.182,-18.91 5.562,-5.284 9.178,-1.946 15.573,-10.01 0,0 -2.225,13.347 4.45,17.24 6.672,3.894 12.235,3.338 18.353,2.225 6.118,-1.112 40.601,-4.449 49.499,-5.006 8.899,-0.555 23.916,-6.673 35.872,-14.182 11.959,-7.508 35.596,-23.915 53.393,-49.221 17.798,-25.306 18.632,-36.429 16.963,-50.055 -1.668,-13.626 -9.455,-22.525 -20.023,-30.033 0,0 0.28,-3.338 -3.057,-7.787 -3.338,-4.449 -8.344,-11.679 -13.35,-17.241 -5.005,-5.562 -20.021,-17.797 -26.418,-22.246 -6.395,-4.449 -15.851,-8.621 -25.026,-6.398 -9.178,2.226 -15.574,6.675 -15.574,6.675 0,0 1.669,-3.615 -2.224,-6.118 -3.894,-2.501 -18.031,-2.86 -27.252,-0.557 -8.899,2.226 -14.195,4.155 -19.467,7.232 -10.723,6.262 -15.571,6.952 -22.803,9.733 -7.23,2.781 -14.18,12.792 -16.129,16.407 -0.234,0.436 -0.469,0.925 -0.707,1.449 v -10e-4 c 0.986,-4.23 1.542,-8.956 1.542,-11.459 0,-1.681 1.506,-5.873 -3.66,-11.31 l -1.125,-1.103 c -2.57,-2.362 -6.424,-4.93 -12.178,-7.609 -18.969,-8.835 -28.552,-11.653 -34.727,-15.051 -9.658,-1.808 -49.812,-9.42 -57.689,-9.42 z"
       style="fill:none;stroke:#231f20;stroke-width:0.75;stroke-linecap:round;stroke-linejoin:round;stroke-miterlimit:4;stroke-dasharray:none;stroke-opacity:1"
       id="path740" />
    <path
       d="m 536.764,388.546 c -0.647,-1.159 -1.613,-2.103 -2.973,-2.417 -3.615,-0.834 -9.497,-2.194 -15.851,1.392"
       style="fill:none;stroke:#231f20;stroke-width:0.5;stroke-linecap:butt;stroke-linejoin:miter;stroke-miterlimit:4;stroke-dasharray:none;stroke-opacity:1"
       id="path742" />
    <path
       d="m 490.924,377.44 c 2.071,-0.021 3.05,0.636 5.463,1.415 5.286,1.707 10.762,3.287 14.177,5.779"
       style="fill:none;stroke:#231f20;stroke-width:0.5;stroke-linecap:butt;stroke-linejoin:miter;stroke-miterlimit:4;stroke-dasharray:none;stroke-opacity:1"
       id="path744" />
    <path
       d="m 562.063,387.521 c 0,0 4.71,-0.466 7.359,-2.875"
       style="fill:none;stroke:#231f20;stroke-width:0.5;stroke-linecap:butt;stroke-linejoin:miter;stroke-miterlimit:4;stroke-dasharray:none;stroke-opacity:1"
       id="path746" />
    <path
       d="m 543.239,388.546 c 0.647,-1.159 1.613,-2.103 2.973,-2.417 3.614,-0.834 9.496,-2.194 15.851,1.392"
       style="fill:none;stroke:#231f20;stroke-width:0.5;stroke-linecap:butt;stroke-linejoin:miter;stroke-miterlimit:4;stroke-dasharray:none;stroke-opacity:1"
       id="path748" />
    <path
       d="m 589.078,377.44 c -2.071,-0.021 -3.05,0.636 -5.463,1.415 -5.285,1.707 -10.762,3.287 -14.176,5.779"
       style="fill:none;stroke:#231f20;stroke-width:0.5;stroke-linecap:butt;stroke-linejoin:miter;stroke-miterlimit:4;stroke-dasharray:none;stroke-opacity:1"
       id="path750" />
    <path
       d="m 553.404,538.695 c -3.229,-1.271 -6.218,-2.113 -8.53,-2.113"
       style="fill:none;stroke:#231f20;stroke-width:0.5;stroke-linecap:butt;stroke-linejoin:miter;stroke-miterlimit:4;stroke-dasharray:none;stroke-opacity:1"
       id="path752" />
    <path
       d="m 526.599,538.695 c 3.228,-1.271 6.218,-2.113 8.528,-2.113"
       style="fill:none;stroke:#231f20;stroke-width:0.5;stroke-linecap:butt;stroke-linejoin:miter;stroke-miterlimit:4;stroke-dasharray:none;stroke-opacity:1"
       id="path754" />
    <path
       d="m 619.136,537.336 c 6.102,-6.293 -2.775,-8.668 -8.814,-8.051 -6.038,0.613 -11.771,4.313 -15.179,7.636 -3.407,3.325 4.328,5.671 6.575,6.075 4.809,-1.387 11.934,-3.318 17.418,-5.66 z"
       style="fill:none;stroke:#231f20;stroke-width:0.5;stroke-linecap:butt;stroke-linejoin:miter;stroke-miterlimit:4;stroke-dasharray:none;stroke-opacity:1"
       id="path756" />
    <path
       d="m 460.867,537.336 c -6.102,-6.293 2.774,-8.668 8.814,-8.051 6.038,0.613 11.77,4.313 15.179,7.636 3.407,3.325 -4.329,5.671 -6.576,6.075 -4.808,-1.387 -11.933,-3.318 -17.417,-5.66 z"
       style="fill:none;stroke:#231f20;stroke-width:0.5;stroke-linecap:butt;stroke-linejoin:miter;stroke-miterlimit:4;stroke-dasharray:none;stroke-opacity:1"
       id="path758" />
    <path
       d="m 632.418,579.677 c 1.39,-4.728 6.117,-12.792 12.514,-12.514"
       style="fill:none;stroke:#231f20;stroke-width:0.5;stroke-linecap:round;stroke-linejoin:round;stroke-miterlimit:4;stroke-dasharray:2.8, 1.8;stroke-dashoffset:0;stroke-opacity:1"
       id="path760" />
    <path
       d="m 583.745,555.86 c 3.623,-3.437 13.634,-11.778 20.587,-7.884 6.952,3.893 11.042,7.698 10.805,24.01"
       style="fill:none;stroke:#231f20;stroke-width:0.5;stroke-linecap:round;stroke-linejoin:round;stroke-miterlimit:4;stroke-dasharray:2.8, 1.8;stroke-dashoffset:0;stroke-opacity:1"
       id="path762" />
    <path
       d="m 604.332,547.976 c 3.892,-0.836 13.07,-2.782 18.075,-2.503"
       style="fill:none;stroke:#231f20;stroke-width:0.5;stroke-linecap:round;stroke-linejoin:round;stroke-miterlimit:4;stroke-dasharray:2.8, 1.8;stroke-dashoffset:0;stroke-opacity:1"
       id="path764" />
    <path
       d="m 627.69,552.703 c 4.294,1.659 13.348,3.058 14.184,1.389 0.833,-1.669 -0.557,-4.449 -5.284,-6.675 -4.728,-2.223 -11.959,-5.56 -14.183,-1.944 -2.224,3.613 3.483,6.534 5.283,7.23 z"
       style="fill:none;stroke:#231f20;stroke-width:0.5;stroke-linecap:round;stroke-linejoin:round;stroke-miterlimit:4;stroke-dasharray:2.8, 1.8;stroke-dashoffset:0;stroke-opacity:1"
       id="path766" />
    <path
       d="m 641.874,554.092 c 4.727,1.391 9.454,1.114 12.234,0.557 2.782,-0.557 5.514,-0.9 8.294,-0.623"
       style="fill:none;stroke:#231f20;stroke-width:0.5;stroke-linecap:round;stroke-linejoin:round;stroke-miterlimit:4;stroke-dasharray:2.8, 1.8;stroke-dashoffset:0;stroke-opacity:1"
       id="path768" />
    <path
       d="m 689.981,558.821 c -5.839,-0.835 -17.52,-8.901 -13.068,-21.969 3.844,-11.298 9.331,-22.15 13.853,-34.675"
       style="fill:none;stroke:#231f20;stroke-width:0.5;stroke-linecap:round;stroke-linejoin:round;stroke-miterlimit:4;stroke-dasharray:2.8, 1.8;stroke-dashoffset:0;stroke-opacity:1"
       id="path770" />
    <path
       d="m 390.021,558.821 c 5.84,-0.835 17.52,-8.901 13.069,-21.969 -3.845,-11.298 -9.331,-22.15 -13.853,-34.675"
       style="fill:none;stroke:#231f20;stroke-width:0.5;stroke-linecap:round;stroke-linejoin:round;stroke-miterlimit:4;stroke-dasharray:2.8, 1.8;stroke-dashoffset:0;stroke-opacity:1"
       id="path772" />
    <path
       d="m 647.712,415.05 c 3.616,-2.224 11.958,-3.616 14.183,-2.78 2.225,0.833 9.455,-9.178 7.231,-17.242 -2.225,-8.064 -11.681,-11.402 -16.964,-10.567 -5.284,0.834 -9.176,6.673 -15.572,10.567 -6.397,3.894 -18.91,2.781 -20.579,10.846 -1.669,8.063 0.557,17.797 9.733,18.91 9.177,1.112 13.349,-3.893 15.294,-5.284 1.948,-1.391 6.674,-4.45 6.674,-4.45 z"
       style="fill:none;stroke:#231f20;stroke-width:0.5;stroke-linecap:round;stroke-linejoin:round;stroke-miterlimit:4;stroke-dasharray:2.8, 1.8;stroke-dashoffset:0;stroke-opacity:1"
       id="path774" />
    <path
       d="m 641.038,449.812 c 0,-6.396 5.006,-8.621 8.621,-10.012 3.616,-1.389 10.289,-3.615 13.349,2.224 3.058,5.84 2.224,18.353 -7.231,19.467 -9.454,1.112 -14.739,-5.563 -14.739,-11.679 z"
       style="fill:none;stroke:#231f20;stroke-width:0.5;stroke-linecap:round;stroke-linejoin:round;stroke-miterlimit:4;stroke-dasharray:2.8, 1.8;stroke-dashoffset:0;stroke-opacity:1"
       id="path776" />
    <path
       d="m 662.554,457.206 c 3.791,-2.389 9.353,-11.874 9.073,-23.275"
       style="fill:none;stroke:#231f20;stroke-width:0.5;stroke-linecap:round;stroke-linejoin:round;stroke-miterlimit:4;stroke-dasharray:2.8, 1.8;stroke-dashoffset:0;stroke-opacity:1"
       id="path778" />
    <path
       d="m 584.279,511.489 c 19.188,-6.951 46.749,-40.821 56.759,-61.677"
       style="fill:none;stroke:#231f20;stroke-width:0.5;stroke-linecap:round;stroke-linejoin:round;stroke-miterlimit:4;stroke-dasharray:2.8, 1.8;stroke-dashoffset:0;stroke-opacity:1"
       id="path780" />
    <path
       d="m 597.102,522.391 c 18.909,-8.621 60.793,-36.486 87.211,-77.087"
       style="fill:none;stroke:#231f20;stroke-width:0.5;stroke-linecap:round;stroke-linejoin:round;stroke-miterlimit:4;stroke-dasharray:2.8, 1.8;stroke-dashoffset:0;stroke-opacity:1"
       id="path782" />
    <path
       d="m 647.064,440.912 c 3.151,-4.727 8.713,-16.408 10.381,-20.3 1.669,-3.893 4.45,-8.342 4.45,-8.342"
       style="fill:none;stroke:#231f20;stroke-width:0.5;stroke-linecap:round;stroke-linejoin:round;stroke-miterlimit:4;stroke-dasharray:2.8, 1.8;stroke-dashoffset:0;stroke-opacity:1"
       id="path784" />
    <path
       d="m 657.697,420.044 c 0.027,3.627 1.973,6.963 5.311,9.466 3.337,2.503 7.507,5.284 10.01,4.172 2.503,-1.112 1.392,-11.401 -0.834,-15.016 -2.226,-3.616 -5.227,-6.331 -7.897,-7.615"
       style="fill:none;stroke:#231f20;stroke-width:0.5;stroke-linecap:round;stroke-linejoin:round;stroke-miterlimit:4;stroke-dasharray:2.8, 1.8;stroke-dashoffset:0;stroke-opacity:1"
       id="path786" />
    <path
       d="m 673.904,423.716 c 0.783,-3.104 4.096,-6.647 9.681,-6.441 7.509,0.278 12.237,4.171 17.52,4.171 5.283,0 16.13,2.133 17.519,9.138"
       style="fill:none;stroke:#231f20;stroke-width:0.5;stroke-linecap:round;stroke-linejoin:round;stroke-miterlimit:4;stroke-dasharray:2.8, 1.8;stroke-dashoffset:0;stroke-opacity:1"
       id="path788" />
    <path
       d="m 683.585,417.275 c -3.615,-2.502 -9.732,-11.957 -14.459,-22.247"
       style="fill:none;stroke:#231f20;stroke-width:0.5;stroke-linecap:round;stroke-linejoin:round;stroke-miterlimit:4;stroke-dasharray:2.8, 1.8;stroke-dashoffset:0;stroke-opacity:1"
       id="path790" />
    <path
       d="m 707.894,573.11 c -3.102,0.955 -8.458,1.561 -12.35,0.726 -3.894,-0.834 -11.402,-5.56 -10.29,-8.063 1.112,-2.503 3.893,-2.503 6.396,-1.391 2.503,1.112 8.62,2.781 12.792,3.058 4.172,0.279 6.674,0.279 6.674,2.503 0,2.225 -3.222,3.167 -3.222,3.167 z"
       style="fill:none;stroke:#231f20;stroke-width:0.5;stroke-linecap:round;stroke-linejoin:round;stroke-miterlimit:4;stroke-dasharray:2.8, 1.8;stroke-dashoffset:0;stroke-opacity:1"
       id="path792" />
    <path
       d="m 555.666,526.84 c -7.507,-2.78 -15.664,-10.567 -15.664,-21.968 0,-9.456 13.441,-14.46 21.783,-9.733 8.342,4.727 11.958,6.951 14.461,10.012 2.503,3.057 5.838,11.114 -0.558,18.066"
       style="fill:none;stroke:#231f20;stroke-width:0.5;stroke-linecap:round;stroke-linejoin:round;stroke-miterlimit:4;stroke-dasharray:2.8, 1.8;stroke-dashoffset:0;stroke-opacity:1"
       id="path794" />
    <path
       d="m 576.246,505.151 c 5.135,3.906 14.531,11.308 19.814,17.148"
       style="fill:none;stroke:#231f20;stroke-width:0.5;stroke-linecap:round;stroke-linejoin:round;stroke-miterlimit:4;stroke-dasharray:2.8, 1.8;stroke-dashoffset:0;stroke-opacity:1"
       id="path796" />
    <path
       d="m 574.855,499.587 c 2.065,0.828 4.727,0 4.727,-1.668 0,-1.669 -1.113,-2.503 -3.616,-3.335 -2.503,-0.836 -3.892,0.555 -3.892,1.946 0,1.389 1.389,2.503 2.781,3.057 z"
       style="fill:none;stroke:#231f20;stroke-width:0.5;stroke-linecap:round;stroke-linejoin:round;stroke-miterlimit:4;stroke-dasharray:2.8, 1.8;stroke-dashoffset:0;stroke-opacity:1"
       id="path798" />
    <path
       d="m 552.938,493.407 c -0.607,-2.44 3.562,-5.776 6.622,-7.724 3.059,-1.945 8.342,-4.727 10.845,-0.277 2.503,4.449 2.12,11.859 -5.058,11.769"
       style="fill:none;stroke:#231f20;stroke-width:0.5;stroke-linecap:round;stroke-linejoin:round;stroke-miterlimit:4;stroke-dasharray:2.8, 1.8;stroke-dashoffset:0;stroke-opacity:1"
       id="path800" />
    <path
       d="m 550.382,531.011 c -0.59,-2.216 5.006,-4.448 8.621,-5.283 3.616,-0.834 22.246,-3.39 26.975,-3.615 5.839,-0.278 11.124,0.278 11.124,0.278 0,0 -9.455,5.563 -20.579,8.899 -11.124,3.336 -25.028,3.893 -26.141,-0.279 z"
       style="fill:none;stroke:#231f20;stroke-width:0.5;stroke-linecap:round;stroke-linejoin:round;stroke-miterlimit:4;stroke-dasharray:2.8, 1.8;stroke-dashoffset:0;stroke-opacity:1"
       id="path802" />
    <path
       d="m 553.402,538.622 0.544,-5.186"
       style="fill:none;stroke:#231f20;stroke-width:0.5;stroke-linecap:round;stroke-linejoin:round;stroke-miterlimit:4;stroke-dasharray:2.8, 1.8;stroke-dashoffset:0;stroke-opacity:1"
       id="path804" />
    <path
       d="m 496.258,555.86 c -3.624,-3.437 -13.634,-11.778 -20.587,-7.884 -6.952,3.893 -11.042,7.698 -10.805,24.01"
       style="fill:none;stroke:#231f20;stroke-width:0.5;stroke-linecap:round;stroke-linejoin:round;stroke-miterlimit:4;stroke-dasharray:2.8, 1.8;stroke-dashoffset:0;stroke-opacity:1"
       id="path806" />
    <path
       d="m 524.335,526.84 c 7.509,-2.78 15.667,-10.567 15.667,-21.968 0,-9.456 -13.443,-14.46 -21.785,-9.733 -8.341,4.727 -11.958,6.951 -14.46,10.012 -2.503,3.057 -5.839,11.114 0.558,18.066"
       style="fill:none;stroke:#231f20;stroke-width:0.5;stroke-linecap:round;stroke-linejoin:round;stroke-miterlimit:4;stroke-dasharray:2.8, 1.8;stroke-dashoffset:0;stroke-opacity:1"
       id="path808" />
    <path
       d="m 503.757,505.151 c -5.136,3.906 -14.531,11.308 -19.814,17.148"
       style="fill:none;stroke:#231f20;stroke-width:0.5;stroke-linecap:round;stroke-linejoin:round;stroke-miterlimit:4;stroke-dasharray:2.8, 1.8;stroke-dashoffset:0;stroke-opacity:1"
       id="path810" />
    <path
       d="m 529.62,531.011 c 0.59,-2.216 -5.005,-4.448 -8.621,-5.283 -3.616,-0.834 -22.245,-3.39 -26.974,-3.615 -5.84,-0.278 -11.124,0.278 -11.124,0.278 0,0 9.455,5.563 20.578,8.899 11.124,3.336 25.028,3.893 26.141,-0.279 z"
       style="fill:none;stroke:#231f20;stroke-width:0.5;stroke-linecap:round;stroke-linejoin:round;stroke-miterlimit:4;stroke-dasharray:2.8, 1.8;stroke-dashoffset:0;stroke-opacity:1"
       id="path812" />
    <path
       d="m 526.6,538.622 -0.544,-5.186"
       style="fill:none;stroke:#231f20;stroke-width:0.5;stroke-linecap:round;stroke-linejoin:round;stroke-miterlimit:4;stroke-dasharray:2.8, 1.8;stroke-dashoffset:0;stroke-opacity:1"
       id="path814" />
    <path
       d="m 543.214,409.81 c -0.29,-1.461 -0.532,-2.798 -0.618,-3.658 0,0 0.28,-10.012 -0.277,-11.958 -0.347,-1.212 -0.153,-3.721 0.916,-5.641"
       style="fill:none;stroke:#231f20;stroke-width:0.5;stroke-linecap:round;stroke-linejoin:round;stroke-miterlimit:4;stroke-dasharray:2.8, 1.8;stroke-dashoffset:0;stroke-opacity:1"
       id="path816" />
    <path
       d="m 542.596,402.258 c 2.503,-0.555 11.124,1.391 13.904,1.391 2.783,0 8.065,0 7.788,2.503 -0.279,2.502 -8.622,8.343 -11.124,8.898 -2.502,0.556 -8.281,-3.572 -9.95,-5.24"
       style="fill:none;stroke:#231f20;stroke-width:0.5;stroke-linecap:round;stroke-linejoin:round;stroke-miterlimit:4;stroke-dasharray:2.8, 1.8;stroke-dashoffset:0;stroke-opacity:1"
       id="path818" />
    <path
       d="m 563.58,404.705 c 0.708,-2.169 3.488,-12.18 -1.517,-17.184"
       style="fill:none;stroke:#231f20;stroke-width:0.5;stroke-linecap:round;stroke-linejoin:round;stroke-miterlimit:4;stroke-dasharray:2.8, 1.8;stroke-dashoffset:0;stroke-opacity:1"
       id="path820" />
    <path
       d="m 600.438,381.958 c -1.662,-2.492 -0.277,-5.561 4.728,-7.786 5.006,-2.224 9.733,-3.893 11.402,-0.557 1.667,3.338 -2.503,6.397 -7.509,8.621 -5.006,2.225 -7.508,1.39 -8.621,-0.278 z"
       style="fill:none;stroke:#231f20;stroke-width:0.5;stroke-linecap:round;stroke-linejoin:round;stroke-miterlimit:4;stroke-dasharray:2.8, 1.8;stroke-dashoffset:0;stroke-opacity:1"
       id="path822" />
    <path
       d="m 447.584,579.677 c -1.39,-4.728 -6.117,-12.792 -12.513,-12.514"
       style="fill:none;stroke:#231f20;stroke-width:0.5;stroke-linecap:round;stroke-linejoin:round;stroke-miterlimit:4;stroke-dasharray:2.8, 1.8;stroke-dashoffset:0;stroke-opacity:1"
       id="path824" />
    <path
       d="m 475.671,547.976 c -3.893,-0.836 -13.07,-2.782 -18.076,-2.503"
       style="fill:none;stroke:#231f20;stroke-width:0.5;stroke-linecap:round;stroke-linejoin:round;stroke-miterlimit:4;stroke-dasharray:2.8, 1.8;stroke-dashoffset:0;stroke-opacity:1"
       id="path826" />
    <path
       d="m 452.312,552.703 c -4.293,1.659 -13.348,3.058 -14.182,1.389 -0.835,-1.669 0.556,-4.449 5.284,-6.675 4.726,-2.223 11.958,-5.56 14.181,-1.944 2.226,3.613 -3.483,6.534 -5.283,7.23 z"
       style="fill:none;stroke:#231f20;stroke-width:0.5;stroke-linecap:round;stroke-linejoin:round;stroke-miterlimit:4;stroke-dasharray:2.8, 1.8;stroke-dashoffset:0;stroke-opacity:1"
       id="path828" />
    <path
       d="m 438.13,554.092 c -4.727,1.391 -9.455,1.114 -12.236,0.557 -2.781,-0.557 -5.512,-0.9 -8.292,-0.623"
       style="fill:none;stroke:#231f20;stroke-width:0.5;stroke-linecap:round;stroke-linejoin:round;stroke-miterlimit:4;stroke-dasharray:2.8, 1.8;stroke-dashoffset:0;stroke-opacity:1"
       id="path830" />
    <path
       d="m 432.29,415.05 c -3.615,-2.224 -11.957,-3.616 -14.182,-2.78 -2.225,0.833 -9.454,-9.178 -7.231,-17.242 2.226,-8.064 11.68,-11.402 16.963,-10.567 5.285,0.834 9.178,6.673 15.574,10.567 6.395,3.894 18.91,2.781 20.578,10.846 1.668,8.063 -0.556,17.797 -9.734,18.91 -9.176,1.112 -13.347,-3.893 -15.294,-5.284 -1.946,-1.391 -6.674,-4.45 -6.674,-4.45 z"
       style="fill:none;stroke:#231f20;stroke-width:0.5;stroke-linecap:round;stroke-linejoin:round;stroke-miterlimit:4;stroke-dasharray:2.8, 1.8;stroke-dashoffset:0;stroke-opacity:1"
       id="path832" />
    <path
       d="m 438.964,449.812 c 0,-6.396 -5.006,-8.621 -8.621,-10.012 -3.615,-1.389 -10.288,-3.615 -13.347,2.224 -3.06,5.84 -2.226,18.353 7.23,19.467 9.455,1.112 14.738,-5.563 14.738,-11.679 z"
       style="fill:none;stroke:#231f20;stroke-width:0.5;stroke-linecap:round;stroke-linejoin:round;stroke-miterlimit:4;stroke-dasharray:2.8, 1.8;stroke-dashoffset:0;stroke-opacity:1"
       id="path834" />
    <path
       d="m 417.449,457.206 c -3.79,-2.389 -9.352,-11.874 -9.074,-23.275"
       style="fill:none;stroke:#231f20;stroke-width:0.5;stroke-linecap:round;stroke-linejoin:round;stroke-miterlimit:4;stroke-dasharray:2.8, 1.8;stroke-dashoffset:0;stroke-opacity:1"
       id="path836" />
    <path
       d="m 495.723,511.489 c -19.188,-6.951 -46.747,-40.821 -56.759,-61.677"
       style="fill:none;stroke:#231f20;stroke-width:0.5;stroke-linecap:round;stroke-linejoin:round;stroke-miterlimit:4;stroke-dasharray:2.8, 1.8;stroke-dashoffset:0;stroke-opacity:1"
       id="path838" />
    <path
       d="m 482.902,522.391 c -18.91,-8.621 -60.795,-36.486 -87.213,-77.087"
       style="fill:none;stroke:#231f20;stroke-width:0.5;stroke-linecap:round;stroke-linejoin:round;stroke-miterlimit:4;stroke-dasharray:2.8, 1.8;stroke-dashoffset:0;stroke-opacity:1"
       id="path840" />
    <path
       d="m 432.939,440.912 c -3.152,-4.727 -8.713,-16.408 -10.382,-20.3 -1.669,-3.893 -4.449,-8.342 -4.449,-8.342"
       style="fill:none;stroke:#231f20;stroke-width:0.5;stroke-linecap:round;stroke-linejoin:round;stroke-miterlimit:4;stroke-dasharray:2.8, 1.8;stroke-dashoffset:0;stroke-opacity:1"
       id="path842" />
    <path
       d="m 422.306,420.044 c -0.027,3.627 -1.973,6.963 -5.31,9.466 -3.337,2.503 -7.509,5.284 -10.011,4.172 -2.503,-1.112 -1.391,-11.401 0.833,-15.016 2.225,-3.616 5.227,-6.331 7.897,-7.615"
       style="fill:none;stroke:#231f20;stroke-width:0.5;stroke-linecap:round;stroke-linejoin:round;stroke-miterlimit:4;stroke-dasharray:2.8, 1.8;stroke-dashoffset:0;stroke-opacity:1"
       id="path844" />
    <path
       d="m 406.099,423.716 c -0.783,-3.104 -4.097,-6.647 -9.683,-6.441 -7.507,0.278 -12.234,4.171 -17.518,4.171 -5.283,0 -16.129,2.133 -17.52,9.138"
       style="fill:none;stroke:#231f20;stroke-width:0.5;stroke-linecap:round;stroke-linejoin:round;stroke-miterlimit:4;stroke-dasharray:2.8, 1.8;stroke-dashoffset:0;stroke-opacity:1"
       id="path846" />
    <path
       d="m 396.416,417.275 c 3.617,-2.502 9.735,-11.957 14.461,-22.247"
       style="fill:none;stroke:#231f20;stroke-width:0.5;stroke-linecap:round;stroke-linejoin:round;stroke-miterlimit:4;stroke-dasharray:2.8, 1.8;stroke-dashoffset:0;stroke-opacity:1"
       id="path848" />
    <path
       d="m 372.109,573.11 c 3.101,0.955 8.457,1.561 12.351,0.726 3.893,-0.834 11.401,-5.56 10.289,-8.063 -1.113,-2.503 -3.893,-2.503 -6.396,-1.391 -2.503,1.112 -8.62,2.781 -12.792,3.058 -4.172,0.279 -6.674,0.279 -6.674,2.503 0,2.225 3.222,3.167 3.222,3.167 z"
       style="fill:none;stroke:#231f20;stroke-width:0.5;stroke-linecap:round;stroke-linejoin:round;stroke-miterlimit:4;stroke-dasharray:2.8, 1.8;stroke-dashoffset:0;stroke-opacity:1"
       id="path850" />
    <path
       d="m 505.148,499.587 c -2.065,0.828 -4.727,0 -4.727,-1.668 0,-1.669 1.112,-2.503 3.615,-3.335 2.503,-0.836 3.892,0.555 3.892,1.946 0,1.389 -1.389,2.503 -2.78,3.057 z"
       style="fill:none;stroke:#231f20;stroke-width:0.5;stroke-linecap:round;stroke-linejoin:round;stroke-miterlimit:4;stroke-dasharray:2.8, 1.8;stroke-dashoffset:0;stroke-opacity:1"
       id="path852" />
    <path
       d="m 527.065,493.407 c 0.608,-2.44 -3.564,-5.776 -6.622,-7.724 -3.06,-1.945 -8.343,-4.727 -10.845,-0.277 -2.503,4.449 -2.121,11.859 5.057,11.769"
       style="fill:none;stroke:#231f20;stroke-width:0.5;stroke-linecap:round;stroke-linejoin:round;stroke-miterlimit:4;stroke-dasharray:2.8, 1.8;stroke-dashoffset:0;stroke-opacity:1"
       id="path854" />
    <path
       d="m 540.002,520.445 c -6.304,0 -5.655,7.509 -5.655,13.069 0,4.821 3.615,4.728 5.655,4.728 2.039,0 5.654,0.093 5.654,-4.728 0,-5.56 0.648,-13.069 -5.654,-13.069 z"
       style="fill:none;stroke:#231f20;stroke-width:0.5;stroke-linecap:round;stroke-linejoin:round;stroke-miterlimit:4;stroke-dasharray:2.8, 1.8;stroke-dashoffset:0;stroke-opacity:1"
       id="path856" />
    <path
       d="m 540.002,408.933 c -4.358,0 -1.761,19.466 -2.04,25.026 -0.278,5.563 0,33.65 0,43.382 0,9.734 0.279,13.905 2.04,13.905 1.76,0 2.039,-4.171 2.039,-13.905 0,-9.732 0.278,-37.819 0,-43.382 -0.279,-5.56 2.317,-25.026 -2.039,-25.026 z"
       style="fill:none;stroke:#231f20;stroke-width:0.5;stroke-linecap:round;stroke-linejoin:round;stroke-miterlimit:4;stroke-dasharray:2.8, 1.8;stroke-dashoffset:0;stroke-opacity:1"
       id="path858" />
    <path
       d="m 536.789,409.81 c 0.289,-1.461 0.531,-2.798 0.617,-3.658 0,0 -0.278,-10.012 0.278,-11.958 0.347,-1.215 0.153,-3.727 -0.92,-5.648"
       style="fill:none;stroke:#231f20;stroke-width:0.5;stroke-linecap:round;stroke-linejoin:round;stroke-miterlimit:4;stroke-dasharray:2.8, 1.8;stroke-dashoffset:0;stroke-opacity:1"
       id="path860" />
    <path
       d="m 537.406,402.258 c -2.503,-0.555 -11.123,1.391 -13.905,1.391 -2.78,0 -8.064,0 -7.785,2.503 0.278,2.502 8.619,8.343 11.122,8.898 2.503,0.556 8.283,-3.572 9.951,-5.24"
       style="fill:none;stroke:#231f20;stroke-width:0.5;stroke-linecap:round;stroke-linejoin:round;stroke-miterlimit:4;stroke-dasharray:2.8, 1.8;stroke-dashoffset:0;stroke-opacity:1"
       id="path862" />
    <path
       d="m 516.423,404.705 c -0.707,-2.169 -3.489,-12.18 1.517,-17.184"
       style="fill:none;stroke:#231f20;stroke-width:0.5;stroke-linecap:round;stroke-linejoin:round;stroke-miterlimit:4;stroke-dasharray:2.8, 1.8;stroke-dashoffset:0;stroke-opacity:1"
       id="path864" />
    <path
       d="m 479.564,381.958 c 1.662,-2.492 0.279,-5.561 -4.727,-7.786 -5.005,-2.224 -9.733,-3.893 -11.401,-0.557 -1.669,3.338 2.502,6.397 7.508,8.621 5.006,2.225 7.508,1.39 8.62,-0.278 z"
       style="fill:none;stroke:#231f20;stroke-width:0.5;stroke-linecap:round;stroke-linejoin:round;stroke-miterlimit:4;stroke-dasharray:2.8, 1.8;stroke-dashoffset:0;stroke-opacity:1"
       id="path866" />
    <path
       d="m 510.564,384.634 c 1.354,0.988 2.376,2.119 2.927,3.443 1.389,3.337 -1.947,7.229 -1.947,7.229 -1.946,1.391 -6.118,1.391 -11.123,-1.112 -5.005,-2.503 -9.733,-5.84 -11.402,-7.509 -1.668,-1.667 -2.107,-4.305 -1.668,-6.116 0.331,-1.366 1.375,-3.108 3.573,-3.129"
       style="fill:none;stroke:#231f20;stroke-width:0.5;stroke-linecap:round;stroke-linejoin:round;stroke-miterlimit:4;stroke-dasharray:2.8, 1.8;stroke-dashoffset:0;stroke-opacity:1"
       id="path868" />
    <path
       d="m 569.439,384.634 c -1.355,0.988 -2.376,2.119 -2.927,3.443 -1.39,3.337 1.946,7.229 1.946,7.229 1.947,1.391 6.119,1.391 11.123,-1.112 5.005,-2.503 9.733,-5.84 11.402,-7.509 1.67,-1.667 2.107,-4.305 1.67,-6.116 -0.332,-1.366 -1.377,-3.108 -3.575,-3.129"
       style="fill:none;stroke:#231f20;stroke-width:0.5;stroke-linecap:round;stroke-linejoin:round;stroke-miterlimit:4;stroke-dasharray:2.8, 1.8;stroke-dashoffset:0;stroke-opacity:1"
       id="path870" />
    <path
       d="m 548.455,413.6 c 0.277,2.78 0.538,9.515 0.816,15.354 0.277,5.84 -1.112,6.674 -3.893,6.674 0,0 -3.479,-0.784 -3.181,-7.514 0.122,-2.774 2.902,-5.277 2.902,-7.78 0,-1.806 -1.133,-6.731 -1.885,-10.524"
       style="fill:none;stroke:#231f20;stroke-width:0.5;stroke-linecap:round;stroke-linejoin:round;stroke-miterlimit:4;stroke-dasharray:2.8, 1.8;stroke-dashoffset:0;stroke-opacity:1"
       id="path872" />
    <path
       d="m 531.548,413.6 c -0.278,2.78 -0.538,9.515 -0.816,15.354 -0.278,5.84 1.112,6.674 3.894,6.674 0,0 3.478,-0.784 3.18,-7.514 -0.122,-2.774 -2.903,-5.277 -2.903,-7.78 0,-1.806 1.134,-6.731 1.886,-10.524"
       style="fill:none;stroke:#231f20;stroke-width:0.5;stroke-linecap:round;stroke-linejoin:round;stroke-miterlimit:4;stroke-dasharray:2.8, 1.8;stroke-dashoffset:0;stroke-opacity:1"
       id="path874" />
    <path
       d="m 567.068,408.933 c -1.255,-3.514 8.343,-10.29 18.076,-15.573 9.732,-5.283 23.637,-8.899 31.424,-12.236 7.786,-3.337 15.571,-5.84 19.743,-5.006 4.172,0.835 6.952,3.615 3.337,6.954 -3.615,3.336 -17.52,7.508 -26.695,9.731 -9.177,2.225 -21.691,6.397 -29.478,10.846 -7.786,4.449 -15.017,9.177 -16.407,5.284 z"
       style="fill:none;stroke:#231f20;stroke-width:0.5;stroke-linecap:round;stroke-linejoin:round;stroke-miterlimit:4;stroke-dasharray:2.8, 1.8;stroke-dashoffset:0;stroke-opacity:1"
       id="path876" />
    <path
       d="m 512.934,408.933 c 1.256,-3.514 -8.342,-10.29 -18.075,-15.573 -9.733,-5.283 -23.637,-8.899 -31.423,-12.236 -7.787,-3.337 -15.573,-5.84 -19.745,-5.006 -4.17,0.835 -6.952,3.615 -3.336,6.954 3.615,3.336 17.52,7.508 26.696,9.731 9.176,2.225 21.691,6.397 29.477,10.846 7.786,4.449 15.016,9.177 16.406,5.284 z"
       style="fill:none;stroke:#231f20;stroke-width:0.5;stroke-linecap:round;stroke-linejoin:round;stroke-miterlimit:4;stroke-dasharray:2.8, 1.8;stroke-dashoffset:0;stroke-opacity:1"
       id="path878" />
    <path
       d="m 675.244,560.21 c -5.563,-1.668 -15.296,-6.673 -19.744,-11.957 -4.451,-5.283 -5.005,-14.739 4.448,-19.745"
       style="fill:none;stroke:#231f20;stroke-width:0.5;stroke-linecap:round;stroke-linejoin:round;stroke-miterlimit:4;stroke-dasharray:2.8, 1.8;stroke-dashoffset:0;stroke-opacity:1"
       id="path880" />
    <path
       d="m 690.766,502.177 c 0.709,-1.964 2.228,-6.229 2.83,-8.15 4.45,-14.183 10.846,-40.322 14.739,-44.215 3.894,-3.894 8.343,-6.118 13.347,-3.338"
       style="fill:none;stroke:#231f20;stroke-width:0.5;stroke-linecap:round;stroke-linejoin:round;stroke-miterlimit:4;stroke-dasharray:2.8, 1.8;stroke-dashoffset:0;stroke-opacity:1"
       id="path882" />
    <path
       d="m 630.193,536.295 c 5.561,-0.556 22.248,-4.171 29.755,-7.787 7.508,-3.614 23.538,-12.62 30.818,-26.331"
       style="fill:none;stroke:#231f20;stroke-width:0.5;stroke-linecap:round;stroke-linejoin:round;stroke-miterlimit:4;stroke-dasharray:2.8, 1.8;stroke-dashoffset:0;stroke-opacity:1"
       id="path884" />
    <path
       d="m 404.759,560.21 c 5.562,-1.668 15.296,-6.673 19.743,-11.957 4.452,-5.283 5.006,-14.739 -4.447,-19.745"
       style="fill:none;stroke:#231f20;stroke-width:0.5;stroke-linecap:round;stroke-linejoin:round;stroke-miterlimit:4;stroke-dasharray:2.8, 1.8;stroke-dashoffset:0;stroke-opacity:1"
       id="path886" />
    <path
       d="m 389.237,502.177 c -0.709,-1.964 -2.229,-6.229 -2.831,-8.15 -4.449,-14.183 -10.845,-40.322 -14.74,-44.215 -3.892,-3.894 -8.341,-6.118 -13.346,-3.338"
       style="fill:none;stroke:#231f20;stroke-width:0.5;stroke-linecap:round;stroke-linejoin:round;stroke-miterlimit:4;stroke-dasharray:2.8, 1.8;stroke-dashoffset:0;stroke-opacity:1"
       id="path888" />
    <path
       d="m 449.809,536.295 c -5.561,-0.556 -22.247,-4.171 -29.754,-7.787 -7.509,-3.614 -23.539,-12.62 -30.818,-26.331"
       style="fill:none;stroke:#231f20;stroke-width:0.5;stroke-linecap:round;stroke-linejoin:round;stroke-miterlimit:4;stroke-dasharray:2.8, 1.8;stroke-dashoffset:0;stroke-opacity:1"
       id="path890" />
    <path
       d="m 674.235,431.479 c 1.286,5.818 6.014,11.379 7.961,12.771 1.946,1.39 8.62,3.336 11.957,2.502 3.337,-0.834 11.958,-5.561 14.461,-8.064"
       style="fill:none;stroke:#231f20;stroke-width:0.5;stroke-linecap:round;stroke-linejoin:round;stroke-miterlimit:4;stroke-dasharray:2.8, 1.8;stroke-dashoffset:0;stroke-opacity:1"
       id="path892" />
    <path
       d="m 405.768,431.479 c -1.286,5.818 -6.014,11.379 -7.96,12.771 -1.947,1.39 -8.621,3.336 -11.958,2.502 -3.337,-0.834 -11.958,-5.561 -14.461,-8.064"
       style="fill:none;stroke:#231f20;stroke-width:0.5;stroke-linecap:round;stroke-linejoin:round;stroke-miterlimit:4;stroke-dasharray:2.8, 1.8;stroke-dashoffset:0;stroke-opacity:1"
       id="path894" />
    <path
       d="m 598,547.202 c 4.55,-1.561 9.832,-3.152 11.399,-3.613 2.306,-0.681 12.423,-3.81 15.364,-5.016 2.941,-1.207 7.424,-2.569 8.677,-4.65 1.253,-2.078 3.355,-7.39 0.322,-11.716 -3.032,-4.329 -5.878,-5.18 -7.041,-5.418 -1.161,-0.242 -14.813,-1.26 -20.435,0.868"
       style="fill:none;stroke:#231f20;stroke-width:0.5;stroke-linecap:round;stroke-linejoin:round;stroke-miterlimit:4;stroke-dasharray:2.8, 1.8;stroke-dashoffset:0;stroke-opacity:1"
       id="path896" />
    <path
       d="m 553.402,538.622 c 0,0 4.861,2.974 6.423,4.109 1.564,1.132 7.843,7.207 9.535,8.341 1.691,1.126 8.583,5.263 12.724,6.61"
       style="fill:none;stroke:#231f20;stroke-width:0.5;stroke-linecap:butt;stroke-linejoin:miter;stroke-miterlimit:4;stroke-dasharray:none;stroke-opacity:1"
       id="path898" />
    <path
       d="m 569.36,551.072 c 0.495,-1.298 1.851,-4.797 6.89,-3.722 5.038,1.077 10.389,5.494 5.834,10.332"
       style="fill:none;stroke:#231f20;stroke-width:0.5;stroke-linecap:round;stroke-linejoin:round;stroke-miterlimit:4;stroke-dasharray:2.8, 1.8;stroke-dashoffset:7.5038;stroke-opacity:1"
       id="path900" />
    <path
       d="m 571.51,548 c 2.393,-2.413 11.623,-4.752 15.074,-6.227 3.452,-1.472 8.188,-3.093 9.046,-5.811 0.856,-2.716 2.009,-10.327 0.43,-13.663"
       style="fill:none;stroke:#231f20;stroke-width:0.5;stroke-linecap:round;stroke-linejoin:round;stroke-miterlimit:4;stroke-dasharray:2.8, 1.8;stroke-dashoffset:0;stroke-opacity:1"
       id="path902" />
    <path
       d="m 619.151,537.323 c 1.535,-0.659 2.944,-1.35 4.141,-2.073 5.481,-3.309 9.532,-4.339 9.238,-0.315"
       style="fill:none;stroke:#231f20;stroke-width:0.5;stroke-linecap:round;stroke-linejoin:round;stroke-miterlimit:4;stroke-dasharray:2.8, 1.8;stroke-dashoffset:0;stroke-opacity:1"
       id="path904" />
    <path
       d="m 583.665,552.897 c 1.299,-0.024 2.947,-1.597 5.486,-3.7 2.543,-2.1 6.418,-4.426 12.567,-6.201"
       style="fill:none;stroke:#231f20;stroke-width:0.5;stroke-linecap:round;stroke-linejoin:round;stroke-miterlimit:4;stroke-dasharray:2.8, 1.8;stroke-dashoffset:0;stroke-opacity:1"
       id="path906" />
    <path
       d="m 601.718,542.996 c 0,0 -0.699,-8.023 7.656,-8.675 5.393,-0.421 5.193,3.972 5.024,4.842"
       style="fill:none;stroke:#231f20;stroke-width:0.5;stroke-linecap:round;stroke-linejoin:round;stroke-miterlimit:4;stroke-dasharray:2.8, 1.8;stroke-dashoffset:0;stroke-opacity:1"
       id="path908" />
    <path
       d="m 613.635,529.243 c 0.377,-2.593 3.509,-7.745 15.418,-11.569"
       style="fill:none;stroke:#231f20;stroke-width:0.5;stroke-linecap:round;stroke-linejoin:round;stroke-miterlimit:4;stroke-dasharray:2.8, 1.8;stroke-dashoffset:0;stroke-opacity:1"
       id="path910" />
    <path
       d="m 584.084,538.469 c 2.2,0.112 3.823,-2.381 3.532,-4.433 -0.29,-2.055 -2.386,-4.211 -4.696,-3.786 -2.311,0.423 -3.18,2.369 -3.28,4.173 -0.098,1.803 2.512,3.951 4.444,4.046 z"
       style="fill:none;stroke:#231f20;stroke-width:0.5;stroke-linecap:round;stroke-linejoin:round;stroke-miterlimit:4;stroke-dasharray:2.8, 1.8;stroke-dashoffset:0;stroke-opacity:1"
       id="path912" />
    <path
       d="m 586.584,541.773 -0.7,-3.836"
       style="fill:none;stroke:#231f20;stroke-width:0.5;stroke-linecap:round;stroke-linejoin:round;stroke-miterlimit:4;stroke-dasharray:2.8, 1.8;stroke-dashoffset:0;stroke-opacity:1"
       id="path914" />
    <path
       d="m 583.676,530.205 -0.36,-1.27"
       style="fill:none;stroke:#231f20;stroke-width:0.5;stroke-linecap:round;stroke-linejoin:round;stroke-miterlimit:4;stroke-dasharray:2.8, 1.8;stroke-dashoffset:0;stroke-opacity:1"
       id="path916" />
    <path
       d="m 482.003,547.202 c -4.551,-1.561 -9.833,-3.152 -11.4,-3.613 -2.306,-0.681 -12.423,-3.81 -15.363,-5.016 -2.942,-1.207 -7.425,-2.569 -8.677,-4.65 -1.253,-2.078 -3.356,-7.39 -0.323,-11.716 3.032,-4.329 5.878,-5.18 7.041,-5.418 1.161,-0.242 14.814,-1.26 20.435,0.868"
       style="fill:none;stroke:#231f20;stroke-width:0.5;stroke-linecap:round;stroke-linejoin:round;stroke-miterlimit:4;stroke-dasharray:2.8, 1.8;stroke-dashoffset:0;stroke-opacity:1"
       id="path918" />
    <path
       d="m 526.6,538.622 c 0,0 -4.861,2.974 -6.423,4.109 -1.564,1.132 -7.843,7.207 -9.535,8.341 -1.69,1.126 -8.583,5.263 -12.724,6.61"
       style="fill:none;stroke:#231f20;stroke-width:0.5;stroke-linecap:butt;stroke-linejoin:miter;stroke-miterlimit:4;stroke-dasharray:none;stroke-opacity:1"
       id="path920" />
    <path
       d="m 510.642,551.072 c -0.495,-1.298 -1.85,-4.797 -6.89,-3.722 -5.038,1.077 -10.388,5.494 -5.834,10.332"
       style="fill:none;stroke:#231f20;stroke-width:0.5;stroke-linecap:round;stroke-linejoin:round;stroke-miterlimit:4;stroke-dasharray:2.8, 1.8;stroke-dashoffset:7.5038;stroke-opacity:1"
       id="path922" />
    <path
       d="m 508.492,548 c -2.393,-2.413 -11.623,-4.752 -15.074,-6.227 -3.451,-1.472 -8.187,-3.093 -9.045,-5.811 -0.856,-2.716 -2.009,-10.327 -0.43,-13.663"
       style="fill:none;stroke:#231f20;stroke-width:0.5;stroke-linecap:round;stroke-linejoin:round;stroke-miterlimit:4;stroke-dasharray:2.8, 1.8;stroke-dashoffset:0;stroke-opacity:1"
       id="path924" />
    <path
       d="m 460.852,537.323 c -1.536,-0.659 -2.945,-1.35 -4.142,-2.073 -5.481,-3.309 -9.531,-4.339 -9.238,-0.315"
       style="fill:none;stroke:#231f20;stroke-width:0.5;stroke-linecap:round;stroke-linejoin:round;stroke-miterlimit:4;stroke-dasharray:2.8, 1.8;stroke-dashoffset:0;stroke-opacity:1"
       id="path926" />
    <path
       d="m 496.338,552.897 c -1.3,-0.024 -2.947,-1.597 -5.487,-3.7 -2.542,-2.1 -6.417,-4.426 -12.567,-6.201"
       style="fill:none;stroke:#231f20;stroke-width:0.5;stroke-linecap:round;stroke-linejoin:round;stroke-miterlimit:4;stroke-dasharray:2.8, 1.8;stroke-dashoffset:0;stroke-opacity:1"
       id="path928" />
    <path
       d="m 478.284,542.996 c 0,0 0.699,-8.023 -7.657,-8.675 -5.391,-0.421 -5.191,3.972 -5.023,4.842"
       style="fill:none;stroke:#231f20;stroke-width:0.5;stroke-linecap:round;stroke-linejoin:round;stroke-miterlimit:4;stroke-dasharray:2.8, 1.8;stroke-dashoffset:0;stroke-opacity:1"
       id="path930" />
    <path
       d="m 466.368,529.243 c -0.377,-2.593 -3.51,-7.745 -15.418,-11.569"
       style="fill:none;stroke:#231f20;stroke-width:0.5;stroke-linecap:round;stroke-linejoin:round;stroke-miterlimit:4;stroke-dasharray:2.8, 1.8;stroke-dashoffset:0;stroke-opacity:1"
       id="path932" />
    <path
       d="m 495.919,538.469 c -2.201,0.112 -3.823,-2.381 -3.532,-4.433 0.289,-2.055 2.386,-4.211 4.696,-3.786 2.31,0.423 3.179,2.369 3.279,4.173 0.099,1.803 -2.511,3.951 -4.443,4.046 z"
       style="fill:none;stroke:#231f20;stroke-width:0.5;stroke-linecap:round;stroke-linejoin:round;stroke-miterlimit:4;stroke-dasharray:2.8, 1.8;stroke-dashoffset:0;stroke-opacity:1"
       id="path934" />
    <path
       d="m 493.418,541.773 0.701,-3.836"
       style="fill:none;stroke:#231f20;stroke-width:0.5;stroke-linecap:round;stroke-linejoin:round;stroke-miterlimit:4;stroke-dasharray:2.8, 1.8;stroke-dashoffset:0;stroke-opacity:1"
       id="path936" />
    <path
       d="m 496.326,530.205 0.361,-1.27"
       style="fill:none;stroke:#231f20;stroke-width:0.5;stroke-linecap:round;stroke-linejoin:round;stroke-miterlimit:4;stroke-dasharray:2.8, 1.8;stroke-dashoffset:0;stroke-opacity:1"
       id="path938" />
    <path
       d="m 711.116,745.415 c 6.37,0.796 22.525,-5.284 35.594,-12.235 13.071,-6.952 45.329,-30.034 56.729,-38.932 11.401,-8.899 26.141,-22.803 21.97,-32.814 -4.171,-10.012 -11.123,-12.792 -25.583,-5.283 -14.461,7.507 -27.81,16.962 -46.162,31.144 -18.355,14.183 -35.318,30.034 -40.045,35.317 -4.728,5.283 -11.957,13.348 -11.68,17.241 0.278,3.894 4.727,5.006 9.177,5.562"
       style="fill:#d3d2d2;fill-opacity:1;fill-rule:nonzero;stroke:none;stroke-width:0.1"
       id="path940" />
    <path
       d="m 711.116,745.415 c 6.37,0.796 22.525,-5.284 35.594,-12.235 13.071,-6.952 45.329,-30.034 56.729,-38.932 11.401,-8.899 26.141,-22.803 21.97,-32.814 -4.171,-10.012 -11.123,-12.792 -25.583,-5.283 -14.461,7.507 -27.81,16.962 -46.162,31.144 -18.355,14.183 -35.318,30.034 -40.045,35.317 -4.728,5.283 -11.957,13.348 -11.68,17.241 0.278,3.894 4.727,5.006 9.177,5.562 z"
       style="fill:none;stroke:#231f20;stroke-width:0.75;stroke-linecap:round;stroke-linejoin:round;stroke-miterlimit:4;stroke-dasharray:0, 2;stroke-dashoffset:0;stroke-opacity:1"
       id="path942" />
    <path
       d="m 653.552,749.031 c 5.728,3.644 23.361,-15.295 34.205,-33.649 10.845,-18.354 33.37,-43.382 60.066,-59.51 26.695,-16.129 47.274,-24.472 51.446,-25.862 4.17,-1.39 2.704,-4.323 1.112,-7.509 -1.389,-2.78 -5.181,-5.838 -10.187,-8.063 -5.006,-2.225 -13.173,-4.728 -18.178,-13.071 -5.006,-8.342 -10.846,-11.124 -17.518,-9.733 -6.675,1.391 -11.681,14.461 -17.243,25.027 -5.561,10.568 -18.074,25.863 -29.755,39.49 -11.678,13.625 -31.979,42.267 -39.486,55.338 -7.509,13.07 -17.519,35.594 -14.462,37.542"
       style="fill:#d3d2d2;fill-opacity:1;fill-rule:nonzero;stroke:none;stroke-width:0.1"
       id="path944" />
    <path
       d="m 653.552,749.031 c 5.728,3.644 23.361,-15.295 34.205,-33.649 10.845,-18.354 33.37,-43.382 60.066,-59.51 26.695,-16.129 47.274,-24.472 51.446,-25.862 4.17,-1.39 2.704,-4.323 1.112,-7.509 -1.389,-2.78 -5.181,-5.838 -10.187,-8.063 -5.006,-2.225 -13.173,-4.728 -18.178,-13.071 -5.006,-8.342 -10.846,-11.124 -17.518,-9.733 -6.675,1.391 -11.681,14.461 -17.243,25.027 -5.561,10.568 -18.074,25.863 -29.755,39.49 -11.678,13.625 -31.979,42.267 -39.486,55.338 -7.509,13.07 -17.519,35.594 -14.462,37.542 z"
       style="fill:none;stroke:#231f20;stroke-width:0.75;stroke-linecap:round;stroke-linejoin:round;stroke-miterlimit:4;stroke-dasharray:0, 2;stroke-dashoffset:0;stroke-opacity:1"
       id="path946" />
    <path
       d="m 540.002,767.383 c -4.08,0 -14.553,1.669 -21.228,1.669 -6.674,0 -31.979,-1.112 -41.99,0.279 -10.011,1.389 -14.739,5.839 -14.46,9.454 0.277,3.616 6.674,5.84 15.85,9.734 9.177,3.893 18.91,6.396 29.477,7.785 10.567,1.391 26.418,0.834 32.351,0.834 5.932,0 21.783,0.557 32.35,-0.834 10.566,-1.389 20.301,-3.892 29.477,-7.785 9.176,-3.894 15.573,-6.118 15.851,-9.734 0.278,-3.615 -4.45,-8.065 -14.462,-9.454 -10.01,-1.391 -35.316,-0.279 -41.989,-0.279 -6.675,0 -17.148,-1.669 -21.227,-1.669"
       style="fill:#d3d2d2;fill-opacity:1;fill-rule:nonzero;stroke:none;stroke-width:0.1"
       id="path948" />
    <path
       d="m 540.002,767.383 c -4.08,0 -14.553,1.669 -21.228,1.669 -6.674,0 -31.979,-1.112 -41.99,0.279 -10.011,1.389 -14.739,5.839 -14.46,9.454 0.277,3.616 6.674,5.84 15.85,9.734 9.177,3.893 18.91,6.396 29.477,7.785 10.567,1.391 26.418,0.834 32.351,0.834 5.932,0 21.783,0.557 32.35,-0.834 10.566,-1.389 20.301,-3.892 29.477,-7.785 9.176,-3.894 15.573,-6.118 15.851,-9.734 0.278,-3.615 -4.45,-8.065 -14.462,-9.454 -10.01,-1.391 -35.316,-0.279 -41.989,-0.279 -6.675,0 -17.148,-1.669 -21.227,-1.669 z"
       style="fill:none;stroke:#231f20;stroke-width:0.75;stroke-linecap:round;stroke-linejoin:round;stroke-miterlimit:4;stroke-dasharray:0, 2;stroke-dashoffset:0;stroke-opacity:1"
       id="path950" />
    <path
       d="m 540.002,705.649 c -2.132,0 -7.879,0.834 -12.884,1.112 -5.006,0.279 -38.376,2.781 -57.286,-4.727 -18.91,-7.509 -26.975,-31.423 -35.596,-53.115 -8.62,-21.69 -10.567,-25.584 -19.743,-34.76 -9.177,-9.177 -30.59,-17.519 -39.766,-20.578 -9.178,-3.059 -13.627,-3.338 -14.739,-1.39 -1.112,1.946 -1.668,4.17 1.112,7.786 2.781,3.615 13.904,15.017 22.803,24.749 8.899,9.733 18.354,21.412 38.932,56.73 20.579,35.317 29.477,41.712 37.541,47.552 8.065,5.84 24.75,5.005 35.874,5.005 11.123,0 38.097,-2.78 43.752,-2.78 5.654,0 32.628,2.78 43.751,2.78 11.123,0 27.809,0.835 35.873,-5.005 8.064,-5.84 16.964,-12.235 37.542,-47.552 20.578,-35.318 30.033,-46.997 38.931,-56.73 8.899,-9.732 20.023,-21.134 22.803,-24.749 2.78,-3.616 2.225,-5.84 1.113,-7.786 -1.113,-1.948 -5.562,-1.669 -14.739,1.39 -9.177,3.059 -30.589,11.401 -39.765,20.578 -9.177,9.176 -11.124,13.07 -19.745,34.76 -8.621,21.692 -16.684,45.606 -35.594,53.115 -18.91,7.508 -52.281,5.006 -57.287,4.727 -5.006,-0.278 -10.751,-1.112 -12.883,-1.112"
       style="fill:#d3d2d2;fill-opacity:1;fill-rule:nonzero;stroke:none;stroke-width:0.1"
       id="path952" />
    <path
       d="m 540.002,705.649 c -2.132,0 -7.879,0.834 -12.884,1.112 -5.006,0.279 -38.376,2.781 -57.286,-4.727 -18.91,-7.509 -26.975,-31.423 -35.596,-53.115 -8.62,-21.69 -10.567,-25.584 -19.743,-34.76 -9.177,-9.177 -30.59,-17.519 -39.766,-20.578 -9.178,-3.059 -13.627,-3.338 -14.739,-1.39 -1.112,1.946 -1.668,4.17 1.112,7.786 2.781,3.615 13.904,15.017 22.803,24.749 8.899,9.733 18.354,21.412 38.932,56.73 20.579,35.317 29.477,41.712 37.541,47.552 8.065,5.84 24.75,5.005 35.874,5.005 11.123,0 38.097,-2.78 43.752,-2.78 5.654,0 32.628,2.78 43.751,2.78 11.123,0 27.809,0.835 35.873,-5.005 8.064,-5.84 16.964,-12.235 37.542,-47.552 20.578,-35.318 30.033,-46.997 38.931,-56.73 8.899,-9.732 20.023,-21.134 22.803,-24.749 2.78,-3.616 2.225,-5.84 1.113,-7.786 -1.113,-1.948 -5.562,-1.669 -14.739,1.39 -9.177,3.059 -30.589,11.401 -39.765,20.578 -9.177,9.176 -11.124,13.07 -19.745,34.76 -8.621,21.692 -16.684,45.606 -35.594,53.115 -18.91,7.508 -52.281,5.006 -57.287,4.727 -5.006,-0.278 -10.751,-1.112 -12.883,-1.112 z"
       style="fill:none;stroke:#231f20;stroke-width:0.75;stroke-linecap:round;stroke-linejoin:round;stroke-miterlimit:4;stroke-dasharray:0, 2;stroke-dashoffset:0;stroke-opacity:1"
       id="path954" />
    <path
       d="m 368.887,745.415 c -6.371,0.796 -22.524,-5.284 -35.595,-12.235 -13.07,-6.952 -45.328,-30.034 -56.729,-38.932 -11.401,-8.899 -26.14,-22.803 -21.969,-32.814 4.171,-10.012 11.124,-12.792 25.584,-5.283 14.46,7.507 27.809,16.962 46.162,31.144 18.354,14.183 35.317,30.034 40.044,35.317 4.728,5.283 11.957,13.348 11.68,17.241 -0.278,3.894 -4.728,5.006 -9.177,5.562"
       style="fill:#d3d2d2;fill-opacity:1;fill-rule:nonzero;stroke:none;stroke-width:0.1"
       id="path956" />
    <path
       d="m 368.887,745.415 c -6.371,0.796 -22.524,-5.284 -35.595,-12.235 -13.07,-6.952 -45.328,-30.034 -56.729,-38.932 -11.401,-8.899 -26.14,-22.803 -21.969,-32.814 4.171,-10.012 11.124,-12.792 25.584,-5.283 14.46,7.507 27.809,16.962 46.162,31.144 18.354,14.183 35.317,30.034 40.044,35.317 4.728,5.283 11.957,13.348 11.68,17.241 -0.278,3.894 -4.728,5.006 -9.177,5.562 z"
       style="fill:none;stroke:#231f20;stroke-width:0.75;stroke-linecap:round;stroke-linejoin:round;stroke-miterlimit:4;stroke-dasharray:0, 2;stroke-dashoffset:0;stroke-opacity:1"
       id="path958" />
    <path
       d="m 426.451,749.031 c -5.729,3.644 -23.36,-15.295 -34.205,-33.649 C 381.4,697.028 358.876,672 332.179,655.872 305.484,639.743 284.905,631.4 280.734,630.01 c -4.171,-1.39 -2.705,-4.323 -1.112,-7.509 1.39,-2.78 5.182,-5.838 10.188,-8.063 5.006,-2.225 13.171,-4.728 18.177,-13.071 5.006,-8.342 10.845,-11.124 17.518,-9.733 6.674,1.391 11.68,14.461 17.242,25.027 5.562,10.568 18.076,25.863 29.754,39.49 11.681,13.625 31.981,42.267 39.489,55.338 7.509,13.07 17.519,35.594 14.461,37.542"
       style="fill:#d3d2d2;fill-opacity:1;fill-rule:nonzero;stroke:none;stroke-width:0.1"
       id="path960" />
    <path
       d="m 426.451,749.031 c -5.729,3.644 -23.36,-15.295 -34.205,-33.649 C 381.4,697.028 358.876,672 332.179,655.872 305.484,639.743 284.905,631.4 280.734,630.01 c -4.171,-1.39 -2.705,-4.323 -1.112,-7.509 1.39,-2.78 5.182,-5.838 10.188,-8.063 5.006,-2.225 13.171,-4.728 18.177,-13.071 5.006,-8.342 10.845,-11.124 17.518,-9.733 6.674,1.391 11.68,14.461 17.242,25.027 5.562,10.568 18.076,25.863 29.754,39.49 11.681,13.625 31.981,42.267 39.489,55.338 7.509,13.07 17.519,35.594 14.461,37.542 z"
       style="fill:none;stroke:#231f20;stroke-width:0.75;stroke-linecap:round;stroke-linejoin:round;stroke-miterlimit:4;stroke-dasharray:0, 2;stroke-dashoffset:0;stroke-opacity:1"
       id="path962" />
    <path
       d="m 455.372,664.214 c 4.449,-1.39 12.791,-1.39 20.299,-1.39 7.508,0 58.12,0 64.331,0 6.21,0 56.821,0 64.33,0 7.507,0 15.851,0 20.299,1.39"
       style="fill:#d3d2d2;fill-opacity:1;fill-rule:nonzero;stroke:none;stroke-width:0.1"
       id="path964" />
    <path
       d="m 455.372,664.214 c 4.449,-1.39 12.791,-1.39 20.299,-1.39 7.508,0 58.12,0 64.331,0 6.21,0 56.821,0 64.33,0 7.507,0 15.851,0 20.299,1.39"
       style="fill:none;stroke:#231f20;stroke-width:0.75;stroke-linecap:round;stroke-linejoin:round;stroke-miterlimit:4;stroke-dasharray:0, 2;stroke-dashoffset:0;stroke-opacity:1"
       id="path966" />
    <path
       d="m 540.002,625.838 c -3.801,0 -22.062,-1.39 -31.517,-1.946 -9.455,-0.557 -33.091,4.728 -33.091,8.898 0,4.172 53.113,7.508 64.608,7.508 11.493,0 64.608,-3.336 64.608,-7.508 0,-4.17 -23.638,-9.455 -33.093,-8.898 -9.454,0.556 -27.716,1.946 -31.515,1.946 z"
       style="fill:none;stroke:#231f20;stroke-width:0.75;stroke-linecap:round;stroke-linejoin:round;stroke-miterlimit:4;stroke-dasharray:0, 2;stroke-dashoffset:0;stroke-opacity:1"
       id="path968" />
    <path
       d="m 431.458,607.654 c 5.93,-3.877 11.399,3.724 16.126,8.452 4.728,4.726 18.076,-1.112 34.483,-5.006 16.407,-3.892 49.222,-2.502 57.935,-2.502 8.712,0 41.527,-1.39 57.933,2.502 16.407,3.894 29.755,9.732 34.483,5.006 4.727,-4.728 10.197,-12.329 16.127,-8.452"
       style="fill:none;stroke:#231f20;stroke-width:0.75;stroke-linecap:round;stroke-linejoin:round;stroke-miterlimit:4;stroke-dasharray:0, 2;stroke-dashoffset:0;stroke-opacity:1"
       id="path970" />
    <path
       d="m 540.002,567.44 c -11.31,0 -19.836,0.836 -39.025,5.006 -19.187,4.172 -55.061,15.016 -54.783,16.963 0.279,1.947 7.787,0.834 16.407,-1.39 13.651,-3.523 23.915,-5.006 33.37,-6.118 9.455,-1.111 23.081,1.112 44.031,1.112 20.948,0 34.575,-2.223 44.03,-1.112 9.454,1.112 19.72,2.595 33.37,6.118 8.621,2.224 16.129,3.337 16.406,1.39 0.279,-1.947 -35.595,-12.791 -54.782,-16.963 -19.188,-4.17 -27.716,-5.006 -39.024,-5.006"
       style="fill:#d3d2d2;fill-opacity:1;fill-rule:nonzero;stroke:none;stroke-width:0.1"
       id="path972" />
    <path
       d="m 540.002,567.44 c -11.31,0 -19.836,0.836 -39.025,5.006 -19.187,4.172 -55.061,15.016 -54.783,16.963 0.279,1.947 7.787,0.834 16.407,-1.39 13.651,-3.523 23.915,-5.006 33.37,-6.118 9.455,-1.111 23.081,1.112 44.031,1.112 20.948,0 34.575,-2.223 44.03,-1.112 9.454,1.112 19.72,2.595 33.37,6.118 8.621,2.224 16.129,3.337 16.406,1.39 0.279,-1.947 -35.595,-12.791 -54.782,-16.963 -19.188,-4.17 -27.716,-5.006 -39.024,-5.006 z"
       style="fill:none;stroke:#231f20;stroke-width:0.75;stroke-linecap:round;stroke-linejoin:round;stroke-miterlimit:4;stroke-dasharray:0, 2;stroke-dashoffset:0;stroke-opacity:1"
       id="path974" />
    <path
       d="m 677.467,715.104 c 1.567,1.253 11.124,-13.07 20.301,-24.749 9.177,-11.681 43.103,-46.44 46.162,-48.943 3.059,-2.503 0.557,-5.841 -3.337,-2.781 -3.894,3.058 -36.708,37.54 -46.44,50.055 -9.733,12.514 -18.076,25.305 -16.686,26.418"
       style="fill:#b2b1b1;fill-opacity:1;fill-rule:nonzero;stroke:none;stroke-width:0.1"
       id="path976" />
    <path
       d="m 540.002,713.991 c -26.511,2.782 -36.244,3.059 -56.544,-0.278 -20.397,-3.352 -33.649,-15.016 -39.303,-24.283 -4.3,-7.046 -24.935,-46.35 -29.385,-52.375 -4.449,-6.024 -12.513,-12.886 -13.348,-12.051 -0.834,0.834 2.503,4.171 8.065,12.051 9.537,13.511 22.811,42.862 31.701,55.246 7.788,10.845 16.687,17.797 28.644,21.969 11.958,4.171 30.867,6.117 39.21,6.117 8.341,0 26.974,-2.502 30.96,-2.502 3.985,0 22.617,2.502 30.959,2.502 8.342,0 27.252,-1.946 39.211,-6.117 11.956,-4.172 20.856,-11.124 28.642,-21.969 8.891,-12.384 22.165,-41.735 31.701,-55.246 5.562,-7.88 8.9,-11.217 8.065,-12.051 -0.834,-0.835 -8.899,6.027 -13.348,12.051 -4.449,6.025 -25.084,45.329 -29.383,52.375 -5.656,9.267 -18.907,20.931 -39.304,24.283 -20.299,3.337 -30.033,3.06 -56.543,0.278"
       style="fill:#b2b1b1;fill-opacity:1;fill-rule:nonzero;stroke:none;stroke-width:0.1"
       id="path978" />
    <path
       d="m 402.536,715.104 c -1.567,1.253 -11.124,-13.07 -20.301,-24.749 -9.177,-11.681 -43.104,-46.44 -46.162,-48.943 -3.059,-2.503 -0.556,-5.841 3.338,-2.781 3.892,3.058 36.706,37.54 46.439,50.055 9.734,12.514 18.075,25.305 16.686,26.418"
       style="fill:#b2b1b1;fill-opacity:1;fill-rule:nonzero;stroke:none;stroke-width:0.1"
       id="path980" />
  </g>
</svg>
