<?xml version="1.0" encoding="UTF-8" standalone="no"?>
<!-- Created with Inkscape (http://www.inkscape.org/) -->

<svg
   version="1.1"
   id="svg2"
   width="1440"
   height="1344"
   viewBox="0 0 1440 1344"
   xmlns="http://www.w3.org/2000/svg"
   xmlns:svg="http://www.w3.org/2000/svg">
  <defs
     id="defs6" />
  <g
     id="g8">
    <path
       d="m 520.376,359.449 c -1.696,-0.423 -0.909,-4.263 2.805,-3.567 3.716,0.697 2.709,4.786 1.597,4.557"
       style="fill:#ffffff;fill-opacity:1;fill-rule:nonzero;stroke:none;stroke-width:0.1"
       id="path672" />
    <path
       d="m 520.376,359.449 c -1.696,-0.423 -0.909,-4.263 2.805,-3.567 3.716,0.697 2.709,4.786 1.597,4.557"
       style="fill:none;stroke:#231f20;stroke-width:0.5;stroke-linecap:butt;stroke-linejoin:miter;stroke-miterlimit:4;stroke-dasharray:none;stroke-opacity:1"
       id="path674" />
    <path
       d="m 559.626,359.449 c 1.697,-0.423 0.909,-4.263 -2.804,-3.567 -3.716,0.697 -2.71,4.786 -1.597,4.557"
       style="fill:#ffffff;fill-opacity:1;fill-rule:nonzero;stroke:none;stroke-width:0.1"
       id="path676" />
    <path
       d="m 559.626,359.449 c 1.697,-0.423 0.909,-4.263 -2.804,-3.567 -3.716,0.697 -2.71,4.786 -1.597,4.557"
       style="fill:none;stroke:#231f20;stroke-width:0.5;stroke-linecap:butt;stroke-linejoin:miter;stroke-miterlimit:4;stroke-dasharray:none;stroke-opacity:1"
       id="path678" />
    <path
       d="m 722.425,569.388 c -4.214,2.489 -11.958,5.932 -16.964,7.322 -5.004,1.392 -12.234,1.113 -15.85,4.45 -3.615,3.338 -5.839,2.781 -8.899,5.84 -3.058,3.058 -12.236,8.064 -13.904,8.62 -1.669,0.556 -10.846,5.284 -15.851,8.342 1.669,-2.503 2.226,-9.104 -0.554,-11.05 -5.235,-2.657 -13.611,-7.267 -17.798,-9.249 -5.285,-2.503 -15.296,-6.953 -20.023,-11.124 -4.728,-4.171 -16.963,-9.733 -16.963,-9.733 0,0 -1.669,0.557 -2.503,0.557 -0.833,0 -5.562,-1.113 -7.787,-1.947 -2.224,-0.834 -13.625,-3.336 -13.625,-3.336 -3.895,-0.557 -27.531,-1.391 -31.702,-1.391 -4.171,0 -27.809,0.834 -31.702,1.391 0,0 -11.401,2.502 -13.626,3.336 -2.224,0.834 -6.953,1.947 -7.787,1.947 -0.834,0 -2.503,-0.557 -2.503,-0.557 0,0 -12.235,5.562 -16.963,9.733 -4.727,4.171 -14.738,8.621 -20.022,11.124 -4.189,1.984 -12.569,6.593 -17.803,9.249 -2.78,1.946 -2.219,8.547 -0.551,11.05 -5.004,-3.058 -14.181,-7.786 -15.85,-8.342 -1.669,-0.556 -10.845,-5.562 -13.903,-8.62 -3.06,-3.059 -5.285,-2.502 -8.9,-5.84 -3.615,-3.337 -10.846,-3.058 -15.85,-4.45 -5.005,-1.39 -12.75,-4.833 -16.963,-7.322 -11.495,-2.225 -17.427,2.967 -17.057,6.303 0.371,3.339 2.225,13.72 2.225,13.72 -11.495,-14.832 -22.247,-12.237 -29.663,-10.012 -7.416,2.225 -30.033,12.976 -33.741,30.773 -3.708,17.798 9.27,24.101 9.27,24.101 -17.122,-2.78 -19.28,17.799 -19.651,22.618 -0.37,4.82 0.371,15.944 4.079,24.102 3.708,8.157 12.236,13.717 12.236,13.717 -7.416,-1.853 -11.386,8.29 -13.349,14.461 -2.595,8.158 2.966,35.224 24.842,53.763 21.877,18.539 61.55,33.741 70.819,36.707 9.27,2.967 24.988,3.067 34.483,1.483 13.347,-2.224 24.999,-8.682 30.774,-6.673 8.529,2.966 5.896,12.873 25.955,19.28 0,0 34.519,10.3 81.201,10.3 46.68,0 81.2,-10.3 81.2,-10.3 19.911,-6.407 17.427,-16.314 25.954,-19.28 5.776,-2.009 17.428,4.449 30.776,6.673 9.494,1.584 25.212,1.484 34.482,-1.483 9.27,-2.966 48.943,-18.168 70.818,-36.707 21.878,-18.539 27.438,-45.605 24.843,-53.763 -1.964,-6.171 -5.933,-16.314 -13.348,-14.461 0,0 8.527,-5.56 12.235,-13.717 3.708,-8.158 4.45,-19.282 4.08,-24.102 -0.372,-4.819 -2.529,-25.398 -19.651,-22.618 0,0 12.976,-6.303 9.268,-24.101 -3.707,-17.797 -26.325,-28.548 -33.74,-30.773 -7.416,-2.225 -18.169,-4.82 -29.663,10.012 0,0 1.855,-10.381 2.225,-13.72 0.371,-3.336 -5.563,-8.528 -17.056,-6.303"
       style="fill:#ffffff;fill-opacity:1;fill-rule:nonzero;stroke:none;stroke-width:0.1"
       id="path680" />
    <path
       d="m 722.425,569.388 c -4.214,2.489 -11.958,5.932 -16.964,7.322 -5.004,1.392 -12.234,1.113 -15.85,4.45 -3.615,3.338 -5.839,2.781 -8.899,5.84 -3.058,3.058 -12.236,8.064 -13.904,8.62 -1.669,0.556 -10.846,5.284 -15.851,8.342 1.669,-2.503 2.226,-9.104 -0.554,-11.05 -5.235,-2.657 -13.611,-7.267 -17.798,-9.249 -5.285,-2.503 -15.296,-6.953 -20.023,-11.124 -4.728,-4.171 -16.963,-9.733 -16.963,-9.733 0,0 -1.669,0.557 -2.503,0.557 -0.833,0 -5.562,-1.113 -7.787,-1.947 -2.224,-0.834 -13.625,-3.336 -13.625,-3.336 -3.895,-0.557 -27.531,-1.391 -31.702,-1.391 -4.171,0 -27.809,0.834 -31.702,1.391 0,0 -11.401,2.502 -13.626,3.336 -2.224,0.834 -6.953,1.947 -7.787,1.947 -0.834,0 -2.503,-0.557 -2.503,-0.557 0,0 -12.235,5.562 -16.963,9.733 -4.727,4.171 -14.738,8.621 -20.022,11.124 -4.189,1.984 -12.569,6.593 -17.803,9.249 -2.78,1.946 -2.219,8.547 -0.551,11.05 -5.004,-3.058 -14.181,-7.786 -15.85,-8.342 -1.669,-0.556 -10.845,-5.562 -13.903,-8.62 -3.06,-3.059 -5.285,-2.502 -8.9,-5.84 -3.615,-3.337 -10.846,-3.058 -15.85,-4.45 -5.005,-1.39 -12.75,-4.833 -16.963,-7.322 -11.495,-2.225 -17.427,2.967 -17.057,6.303 0.371,3.339 2.225,13.72 2.225,13.72 -11.495,-14.832 -22.247,-12.237 -29.663,-10.012 -7.416,2.225 -30.033,12.976 -33.741,30.773 -3.708,17.798 9.27,24.101 9.27,24.101 -17.122,-2.78 -19.28,17.799 -19.651,22.618 -0.37,4.82 0.371,15.944 4.079,24.102 3.708,8.157 12.236,13.717 12.236,13.717 -7.416,-1.853 -11.386,8.29 -13.349,14.461 -2.595,8.158 2.966,35.224 24.842,53.763 21.877,18.539 61.55,33.741 70.819,36.707 9.27,2.967 24.988,3.067 34.483,1.483 13.347,-2.224 24.999,-8.682 30.774,-6.673 8.529,2.966 5.896,12.873 25.955,19.28 0,0 34.519,10.3 81.201,10.3 46.68,0 81.2,-10.3 81.2,-10.3 19.911,-6.407 17.427,-16.314 25.954,-19.28 5.776,-2.009 17.428,4.449 30.776,6.673 9.494,1.584 25.212,1.484 34.482,-1.483 9.27,-2.966 48.943,-18.168 70.818,-36.707 21.878,-18.539 27.438,-45.605 24.843,-53.763 -1.964,-6.171 -5.933,-16.314 -13.348,-14.461 0,0 8.527,-5.56 12.235,-13.717 3.708,-8.158 4.45,-19.282 4.08,-24.102 -0.372,-4.819 -2.529,-25.398 -19.651,-22.618 0,0 12.976,-6.303 9.268,-24.101 -3.707,-17.797 -26.325,-28.548 -33.74,-30.773 -7.416,-2.225 -18.169,-4.82 -29.663,10.012 0,0 1.855,-10.381 2.225,-13.72 0.371,-3.336 -5.563,-8.528 -17.056,-6.303 z"
       style="fill:none;stroke:#231f20;stroke-width:0.75;stroke-linecap:round;stroke-linejoin:round;stroke-miterlimit:4;stroke-dasharray:none;stroke-opacity:1"
       id="path682" />
    <path
       d="m 759.503,508.209 c -1.066,19.975 -4.821,31.146 -15.943,43.752 -11.124,12.607 -21.135,17.427 -21.135,17.427 -4.214,2.489 -11.958,5.932 -16.964,7.322 -5.004,1.392 -12.234,1.113 -15.85,4.45 -3.615,3.338 -5.839,2.781 -8.899,5.84 -3.058,3.058 -12.236,8.064 -13.904,8.62 -0.365,0.123 -1.095,0.445 -2.06,0.907 -2.06,0.902 -7.12,-0.352 -11.01,-2.019 -0.808,-0.346 -1.962,-0.904 -3.333,-1.599 -5.235,-2.657 -13.613,-7.264 -17.8,-9.246 -5.285,-2.503 -15.296,-6.953 -20.023,-11.124 -4.728,-4.171 -16.963,-9.733 -16.963,-9.733 0,0 -1.669,0.557 -2.503,0.557 -0.833,0 -5.562,-1.113 -7.787,-1.947 -2.224,-0.834 -13.625,-3.336 -13.625,-3.336 -3.895,-0.557 -27.531,-1.391 -31.702,-1.391 -4.171,0 -27.809,0.834 -31.702,1.391 0,0 -11.401,2.502 -13.626,3.336 -2.224,0.834 -6.953,1.947 -7.787,1.947 -0.834,0 -2.503,-0.557 -2.503,-0.557 0,0 -12.235,5.562 -16.963,9.733 -4.727,4.171 -14.738,8.621 -20.022,11.124 -4.189,1.984 -12.573,6.593 -17.807,9.249 -1.367,0.692 -2.52,1.251 -3.327,1.596 -3.891,1.668 -8.952,2.921 -11.01,2.019 -0.965,-0.462 -1.694,-0.784 -2.06,-0.907 -1.669,-0.556 -10.845,-5.562 -13.903,-8.62 -3.06,-3.059 -5.285,-2.502 -8.9,-5.84 -3.615,-3.337 -10.846,-3.058 -15.85,-4.45 -5.005,-1.39 -12.75,-4.833 -16.963,-7.322 0,0 -10.011,-4.82 -21.135,-17.427 -11.123,-12.606 -14.878,-23.777 -15.944,-43.752 -1.048,-19.636 -0.463,-38.838 27.624,-72.209 28.086,-33.371 37.819,-35.04 42.268,-37.82 4.449,-2.781 21.97,-7.787 27.252,-10.567 5.284,-2.781 34.761,-15.017 39.21,-16.686 4.45,-1.668 16.963,-8.619 27.253,-11.401 10.289,-2.78 47.552,-2.224 53.393,8.064 0,0 1.668,-0.277 2.502,-0.277 0.834,0 2.502,0.277 2.502,0.277 5.841,-10.288 43.104,-10.844 53.393,-8.064 10.289,2.782 22.802,9.733 27.251,11.401 4.451,1.669 33.927,13.905 39.211,16.686 5.283,2.78 22.803,7.786 27.252,10.567 4.449,2.78 14.181,4.449 42.268,37.82 28.088,33.371 28.673,52.573 27.624,72.209"
       style="fill:#ffffff;fill-opacity:1;fill-rule:nonzero;stroke:none;stroke-width:0.1"
       id="path684" />
    <path
       d="m 759.503,508.209 c -1.066,19.975 -4.821,31.146 -15.943,43.752 -11.124,12.607 -21.135,17.427 -21.135,17.427 -4.214,2.489 -11.958,5.932 -16.964,7.322 -5.004,1.392 -12.234,1.113 -15.85,4.45 -3.615,3.338 -5.839,2.781 -8.899,5.84 -3.058,3.058 -12.236,8.064 -13.904,8.62 -0.365,0.123 -1.095,0.445 -2.06,0.907 -2.06,0.902 -7.12,-0.352 -11.01,-2.019 -0.808,-0.346 -1.962,-0.904 -3.333,-1.599 -5.235,-2.657 -13.613,-7.264 -17.8,-9.246 -5.285,-2.503 -15.296,-6.953 -20.023,-11.124 -4.728,-4.171 -16.963,-9.733 -16.963,-9.733 0,0 -1.669,0.557 -2.503,0.557 -0.833,0 -5.562,-1.113 -7.787,-1.947 -2.224,-0.834 -13.625,-3.336 -13.625,-3.336 -3.895,-0.557 -27.531,-1.391 -31.702,-1.391 -4.171,0 -27.809,0.834 -31.702,1.391 0,0 -11.401,2.502 -13.626,3.336 -2.224,0.834 -6.953,1.947 -7.787,1.947 -0.834,0 -2.503,-0.557 -2.503,-0.557 0,0 -12.235,5.562 -16.963,9.733 -4.727,4.171 -14.738,8.621 -20.022,11.124 -4.189,1.984 -12.573,6.593 -17.807,9.249 -1.367,0.692 -2.52,1.251 -3.327,1.596 -3.891,1.668 -8.952,2.921 -11.01,2.019 -0.965,-0.462 -1.694,-0.784 -2.06,-0.907 -1.669,-0.556 -10.845,-5.562 -13.903,-8.62 -3.06,-3.059 -5.285,-2.502 -8.9,-5.84 -3.615,-3.337 -10.846,-3.058 -15.85,-4.45 -5.005,-1.39 -12.75,-4.833 -16.963,-7.322 0,0 -10.011,-4.82 -21.135,-17.427 -11.123,-12.606 -14.878,-23.777 -15.944,-43.752 -1.048,-19.636 -0.463,-38.838 27.624,-72.209 28.086,-33.371 37.819,-35.04 42.268,-37.82 4.449,-2.781 21.97,-7.787 27.252,-10.567 5.284,-2.781 34.761,-15.017 39.21,-16.686 4.45,-1.668 16.963,-8.619 27.253,-11.401 10.289,-2.78 47.552,-2.224 53.393,8.064 0,0 1.668,-0.277 2.502,-0.277 0.834,0 2.502,0.277 2.502,0.277 5.841,-10.288 43.104,-10.844 53.393,-8.064 10.289,2.782 22.802,9.733 27.251,11.401 4.451,1.669 33.927,13.905 39.211,16.686 5.283,2.78 22.803,7.786 27.252,10.567 4.449,2.78 14.181,4.449 42.268,37.82 28.088,33.371 28.673,52.573 27.624,72.209 z"
       style="fill:none;stroke:#231f20;stroke-width:0.75;stroke-linecap:round;stroke-linejoin:round;stroke-miterlimit:4;stroke-dasharray:none;stroke-opacity:1"
       id="path686" />
    <path
       d="m 446.565,626.487 c -1.347,-1.886 -4.326,-6.514 -7.609,-11.132 4.07,-1.398 7.609,-0.825 10.112,0.844 2.503,1.667 8.343,4.449 17.241,8.064 8.899,3.614 18.909,-0.278 22.247,0 3.337,0.277 11.679,2.224 19.466,-0.556 11.188,-3.997 26.975,-5.841 31.98,-5.841 5.004,0 20.792,1.844 31.979,5.841 7.787,2.78 16.13,0.833 19.466,0.556 3.337,-0.278 13.348,3.614 22.248,0 8.898,-3.615 14.738,-6.397 17.241,-8.064 2.502,-1.669 6.042,-2.242 10.111,-0.844 -3.283,4.618 -6.262,9.246 -7.609,11.132 -2.781,3.893 -14.183,24.751 -15.017,27.531 -0.834,2.78 -5.284,9.455 -7.229,12.514 -4.45,-2.503 -25.027,-4.172 -32.536,-3.893 -7.509,0.277 -31.981,-1.948 -38.654,-1.948 -6.674,0 -31.146,2.225 -38.654,1.948 -7.509,-0.279 -28.087,1.39 -32.536,3.893 -1.947,-3.059 -6.396,-9.734 -7.229,-12.514 -0.835,-2.78 -12.237,-23.638 -15.018,-27.531"
       style="fill:#d3d2d2;fill-opacity:1;fill-rule:nonzero;stroke:none;stroke-width:0.1"
       id="path688" />
    <path
       d="m 701.848,706.02 c 10.288,-10.29 38.652,-37.542 53.113,-46.163 14.46,-8.619 25.306,-16.684 36.43,-25.584"
       style="fill:none;stroke:#231f20;stroke-width:0.5;stroke-linecap:butt;stroke-linejoin:miter;stroke-miterlimit:4;stroke-dasharray:none;stroke-opacity:1"
       id="path690" />
    <path
       d="m 759.967,724.095 c 5.839,-6.952 26.139,-23.73 34.76,-29.385"
       style="fill:none;stroke:#231f20;stroke-width:0.5;stroke-linecap:butt;stroke-linejoin:miter;stroke-miterlimit:4;stroke-dasharray:none;stroke-opacity:1"
       id="path692" />
    <path
       d="m 666.252,571.148 c 3.893,0.835 24.228,5.69 22.125,11.048"
       style="fill:none;stroke:#231f20;stroke-width:0.5;stroke-linecap:butt;stroke-linejoin:miter;stroke-miterlimit:4;stroke-dasharray:none;stroke-opacity:1"
       id="path694" />
    <path
       d="m 652.626,571.983 c 4.449,0.834 13.07,2.781 18.076,4.727 5.006,1.947 10.01,2.782 8.064,6.953 -1.946,4.171 -5.439,7.437 -9.254,10.671"
       style="fill:none;stroke:#231f20;stroke-width:0.5;stroke-linecap:butt;stroke-linejoin:miter;stroke-miterlimit:4;stroke-dasharray:none;stroke-opacity:1"
       id="path696" />
    <path
       d="m 686.249,578.251 c 5.587,-0.707 13.93,-3.487 16.989,-4.6 3.057,-1.112 17.519,-6.673 24.749,-11.957 7.229,-5.283 17.519,-15.295 22.246,-24.75 4.728,-9.454 8.065,-26.695 4.728,-48.108 -3.337,-21.413 -16.27,-37.09 -28.364,-47.275 -5.285,-4.448 -8.621,-6.674 -10.567,-4.171"
       style="fill:none;stroke:#231f20;stroke-width:0.5;stroke-linecap:butt;stroke-linejoin:miter;stroke-miterlimit:4;stroke-dasharray:none;stroke-opacity:1"
       id="path698" />
    <path
       d="m 713.603,443.23 c 0,2.502 2.704,5.839 9.378,10.011 6.675,4.172 15.851,13.627 21.134,35.039 5.285,21.412 1.113,36.707 -7.785,45.884 -8.9,9.176 -31.702,21.413 -45.606,21.967 -7.522,0.302 -14.739,0.28 -22.803,4.172 -8.064,3.893 -1.669,10.845 -1.669,10.845 0,0 -6.118,-1.946 -12.235,-2.224 -6.118,-0.279 -1.391,3.059 -1.391,3.059"
       style="fill:none;stroke:#231f20;stroke-width:0.5;stroke-linecap:butt;stroke-linejoin:miter;stroke-miterlimit:4;stroke-dasharray:none;stroke-opacity:1"
       id="path700" />
    <path
       d="m 571.704,558.08 c -5.562,-1.669 -17.243,-9.456 -18.91,-12.515 -1.668,-3.059 -1.391,-5.562 -1.113,-6.952 0.277,-1.391 1.946,-3.336 3.615,-4.449"
       style="fill:none;stroke:#231f20;stroke-width:0.5;stroke-linecap:butt;stroke-linejoin:miter;stroke-miterlimit:4;stroke-dasharray:none;stroke-opacity:1"
       id="path702" />
    <path
       d="m 508.298,558.08 c 5.563,-1.669 17.243,-9.456 18.91,-12.515 1.669,-3.059 1.392,-5.562 1.113,-6.952 -0.277,-1.391 -1.947,-3.336 -3.615,-4.449"
       style="fill:none;stroke:#231f20;stroke-width:0.5;stroke-linecap:butt;stroke-linejoin:miter;stroke-miterlimit:4;stroke-dasharray:none;stroke-opacity:1"
       id="path704" />
    <path
       d="m 699.345,448.792 c 1.806,1.807 5.839,0.834 9.176,-1.391 3.337,-2.225 9.733,-6.951 6.952,-11.401 -2.782,-4.45 -6.952,-5.562 -11.401,-2.225 -4.449,3.338 -8.386,11.359 -4.727,15.017 z"
       style="fill:none;stroke:#231f20;stroke-width:0.5;stroke-linecap:butt;stroke-linejoin:miter;stroke-miterlimit:4;stroke-dasharray:none;stroke-opacity:1"
       id="path706" />
    <path
       d="m 542.504,367.59 c -0.278,1.948 -1.112,5.006 2.782,5.84 3.892,0.835 16.684,-0.554 23.636,-0.554 6.952,0 15.017,1.389 17.797,2.223 2.781,0.834 4.728,4.172 0.835,3.615 -3.892,-0.555 -15.85,-0.834 -24.192,-0.278 -8.344,0.556 -9.456,0.278 -10.847,0.556 -1.389,0.279 -12.513,0.626 -7.229,-5.562"
       style="fill:none;stroke:#231f20;stroke-width:0.5;stroke-linecap:butt;stroke-linejoin:miter;stroke-miterlimit:4;stroke-dasharray:none;stroke-opacity:1"
       id="path708" />
    <path
       d="m 342.747,589.411 c 8.959,15.609 38.747,54.318 52.094,67.944 13.349,13.626 26.697,29.755 34.483,40.322 7.787,10.568 20.857,28.643 32.814,38.375 11.958,9.735 20.3,9.455 28.086,8.9 7.787,-0.557 41.713,-0.834 49.778,-1.113 8.064,0.279 41.991,0.556 49.778,1.113 7.786,0.555 16.128,0.835 28.086,-8.9 11.957,-9.732 25.027,-27.807 32.813,-38.375 7.786,-10.567 21.135,-26.696 34.483,-40.322 13.347,-13.626 43.135,-52.335 52.094,-67.944"
       style="fill:none;stroke:#231f20;stroke-width:0.5;stroke-linecap:butt;stroke-linejoin:miter;stroke-miterlimit:4;stroke-dasharray:none;stroke-opacity:1"
       id="path710" />
    <path
       d="m 378.156,706.02 c -10.288,-10.29 -38.654,-37.542 -53.114,-46.163 -14.46,-8.619 -25.305,-16.684 -36.429,-25.584"
       style="fill:none;stroke:#231f20;stroke-width:0.5;stroke-linecap:butt;stroke-linejoin:miter;stroke-miterlimit:4;stroke-dasharray:none;stroke-opacity:1"
       id="path712" />
    <path
       d="m 320.037,724.095 c -5.839,-6.952 -26.14,-23.73 -34.76,-29.385"
       style="fill:none;stroke:#231f20;stroke-width:0.5;stroke-linecap:butt;stroke-linejoin:miter;stroke-miterlimit:4;stroke-dasharray:none;stroke-opacity:1"
       id="path714" />
    <path
       d="m 434.095,608.932 c 5.606,4.135 17.754,4.764 27.488,4.207 9.731,-0.555 20.577,-2.503 39.765,-7.229 19.188,-4.728 33.028,-4.578 38.654,-4.578 5.625,0 19.465,-0.15 38.654,4.578 19.187,4.726 30.033,6.674 39.765,7.229 9.733,0.557 21.882,-0.072 27.488,-4.207"
       style="fill:none;stroke:#231f20;stroke-width:0.5;stroke-linecap:butt;stroke-linejoin:miter;stroke-miterlimit:4;stroke-dasharray:none;stroke-opacity:1"
       id="path716" />
    <path
       d="m 413.751,571.148 c -3.892,0.835 -24.228,5.69 -22.125,11.048"
       style="fill:none;stroke:#231f20;stroke-width:0.5;stroke-linecap:butt;stroke-linejoin:miter;stroke-miterlimit:4;stroke-dasharray:none;stroke-opacity:1"
       id="path718" />
    <path
       d="m 427.377,571.983 c -4.449,0.834 -13.069,2.781 -18.075,4.727 -5.006,1.947 -10.01,2.782 -8.064,6.953 1.946,4.171 5.437,7.437 9.254,10.671"
       style="fill:none;stroke:#231f20;stroke-width:0.5;stroke-linecap:butt;stroke-linejoin:miter;stroke-miterlimit:4;stroke-dasharray:none;stroke-opacity:1"
       id="path720" />
    <path
       d="m 393.755,578.251 c -5.587,-0.707 -13.93,-3.487 -16.989,-4.6 -3.059,-1.112 -17.519,-6.673 -24.749,-11.957 -7.231,-5.283 -17.519,-15.295 -22.247,-24.75 -4.728,-9.454 -8.064,-26.695 -4.728,-48.108 3.337,-21.413 16.271,-37.09 28.365,-47.275 5.284,-4.448 8.621,-6.674 10.567,-4.171"
       style="fill:none;stroke:#231f20;stroke-width:0.5;stroke-linecap:butt;stroke-linejoin:miter;stroke-miterlimit:4;stroke-dasharray:none;stroke-opacity:1"
       id="path722" />
    <path
       d="m 366.401,443.23 c 0,2.502 -2.705,5.839 -9.379,10.011 -6.674,4.172 -15.851,13.627 -21.135,35.039 -5.283,21.412 -1.112,36.707 7.787,45.884 8.899,9.176 31.702,21.413 45.606,21.967 7.522,0.302 14.738,0.28 22.803,4.172 8.064,3.893 1.668,10.845 1.668,10.845 0,0 6.118,-1.946 12.236,-2.224 6.118,-0.279 1.39,3.059 1.39,3.059"
       style="fill:none;stroke:#231f20;stroke-width:0.5;stroke-linecap:butt;stroke-linejoin:miter;stroke-miterlimit:4;stroke-dasharray:none;stroke-opacity:1"
       id="path724" />
    <path
       d="m 380.659,448.792 c -1.807,1.807 -5.839,0.834 -9.176,-1.391 -3.337,-2.225 -9.733,-6.951 -6.952,-11.401 2.78,-4.45 6.952,-5.562 11.401,-2.225 4.449,3.338 8.385,11.359 4.727,15.017 z"
       style="fill:none;stroke:#231f20;stroke-width:0.5;stroke-linecap:butt;stroke-linejoin:miter;stroke-miterlimit:4;stroke-dasharray:none;stroke-opacity:1"
       id="path726" />
    <path
       d="m 511.83,403.463 c 2.782,1.669 5.091,7.509 7.038,16.685 1.946,9.178 3.058,19.188 3.892,35.039 0.834,15.853 3.337,30.867 4.728,35.596 1.39,4.726 9.733,6.395 12.514,6.395 2.781,0 11.124,-1.669 12.513,-6.395 1.391,-4.729 3.893,-19.743 4.729,-35.596 0.833,-15.851 1.946,-25.861 3.892,-35.039 1.946,-9.176 4.256,-15.016 7.036,-16.685"
       style="fill:none;stroke:#231f20;stroke-width:0.5;stroke-linecap:butt;stroke-linejoin:miter;stroke-miterlimit:4;stroke-dasharray:none;stroke-opacity:1"
       id="path728" />
    <path
       d="m 537.5,367.59 c 0.277,1.948 1.111,5.006 -2.782,5.84 -3.893,0.835 -16.685,-0.554 -23.637,-0.554 -6.952,0 -15.017,1.389 -17.797,2.223 -2.781,0.834 -4.728,4.172 -0.834,3.615 3.892,-0.555 15.85,-0.834 24.192,-0.278 8.343,0.556 9.455,0.278 10.846,0.556 1.39,0.279 12.514,0.626 7.23,-5.562"
       style="fill:none;stroke:#231f20;stroke-width:0.5;stroke-linecap:butt;stroke-linejoin:miter;stroke-miterlimit:4;stroke-dasharray:none;stroke-opacity:1"
       id="path730" />
    <path
       d="m 540.002,631.493 c -8.343,0 -26.14,3.338 -26.14,5.562 0,2.224 19.187,3.336 26.14,3.336 6.953,0 26.14,-1.112 26.14,-3.336 0,-2.224 -17.797,-5.562 -26.14,-5.562 z m 27.252,-1.39 c 12.514,2.225 29.199,7.508 32.814,8.064 3.616,0.557 24.471,-3.615 33.37,-11.68 -2.781,3.893 -14.183,24.751 -15.017,27.531 -2.503,0.557 -6.395,0 -11.957,-0.277 -5.562,-0.28 -10.781,-3.355 -27.252,-4.729 -16.686,-1.389 -30.034,-3.058 -39.21,-3.058 -9.177,0 -22.525,1.669 -39.21,3.058 -16.472,1.374 -21.69,4.449 -27.252,4.729 -5.562,0.277 -9.456,0.834 -11.957,0.277 -0.835,-2.78 -12.237,-23.638 -15.018,-27.531 8.898,8.065 29.755,12.237 33.37,11.68 3.616,-0.556 20.3,-5.839 32.815,-8.064 12.513,-2.226 22.247,-3.06 27.252,-3.06 5.004,0 14.739,0.834 27.252,3.06"
       style="fill:#b2b1b1;fill-opacity:1;fill-rule:nonzero;stroke:none;stroke-width:0.1"
       id="path732" />
    <path
       d="m 588.853,380.103 c 3.43,0.002 8.99,-1.667 12.328,-3.058 3.336,-1.389 10.173,-6.211 7.032,-12.977"
       style="fill:none;stroke:#231f20;stroke-width:0.5;stroke-linecap:butt;stroke-linejoin:miter;stroke-miterlimit:4;stroke-dasharray:none;stroke-opacity:1"
       id="path734" />
    <path
       d="m 491.151,380.103 c -3.43,0.002 -8.991,-1.667 -12.328,-3.058 -3.337,-1.389 -10.174,-6.211 -7.033,-12.977"
       style="fill:none;stroke:#231f20;stroke-width:0.5;stroke-linecap:butt;stroke-linejoin:miter;stroke-miterlimit:4;stroke-dasharray:none;stroke-opacity:1"
       id="path736" />
    <path
       d="m 429.045,603.962 c 5.006,3.059 14.74,18.632 17.52,22.525 2.781,3.893 14.183,24.751 15.018,27.531 0.833,2.78 5.282,9.455 7.229,12.514 1.946,3.059 5.84,5.562 13.904,8.342 8.065,2.781 27.669,5.144 33.926,5.005 5.845,-0.129 19.745,-0.833 23.36,-0.833 3.615,0 17.513,0.704 23.36,0.833 6.257,0.139 25.86,-2.224 33.925,-5.005 8.064,-2.78 11.958,-5.283 13.905,-8.342 1.945,-3.059 6.395,-9.734 7.229,-12.514 0.834,-2.78 12.236,-23.638 15.017,-27.531 2.78,-3.893 12.513,-19.466 17.519,-22.525"
       style="fill:none;stroke:#231f20;stroke-width:0.5;stroke-linecap:butt;stroke-linejoin:miter;stroke-miterlimit:4;stroke-dasharray:none;stroke-opacity:1"
       id="path738" />
    <path
       d="m 528.323,538.613 c 3.892,0 4.449,-3.059 5.561,-5.839 1.113,-2.781 3.059,-4.729 6.118,-4.729 3.058,0 5.004,1.948 6.118,4.729 1.112,2.78 1.669,5.839 5.561,5.839 -0.278,1.39 -0.555,3.893 1.113,6.952 1.667,3.059 13.348,10.846 18.91,12.515 -3.895,-0.557 -27.531,-1.391 -31.702,-1.391 -4.171,0 -27.809,0.834 -31.702,1.391 5.562,-1.669 17.242,-9.456 18.91,-12.515 1.668,-3.059 1.39,-5.562 1.113,-6.952"
       style="fill:#706d6e;fill-opacity:1;fill-rule:nonzero;stroke:none;stroke-width:0.1"
       id="path740" />
    <path
       d="m 528.323,538.613 c 3.892,0 4.449,-3.059 5.561,-5.839 1.113,-2.781 3.059,-4.729 6.118,-4.729 3.058,0 5.004,1.948 6.118,4.729 1.112,2.78 1.669,5.839 5.561,5.839 -0.278,1.39 -0.555,3.893 1.113,6.952 1.667,3.059 13.348,10.846 18.91,12.515 -3.895,-0.557 -27.531,-1.391 -31.702,-1.391 -4.171,0 -27.809,0.834 -31.702,1.391 5.562,-1.669 17.242,-9.456 18.91,-12.515 1.668,-3.059 1.39,-5.562 1.113,-6.952 z"
       style="fill:none;stroke:#231f20;stroke-width:0.75;stroke-linecap:butt;stroke-linejoin:miter;stroke-miterlimit:4;stroke-dasharray:none;stroke-opacity:1"
       id="path742" />
    <path
       d="m 542.085,365.1 c 0.151,-1.229 -0.773,-2.367 -2.083,-2.367 -1.311,0 -2.235,1.138 -2.086,2.367 0.131,1.077 1.058,1.818 2.086,1.818 1.026,0 1.956,-0.741 2.083,-1.818"
       style="fill:#ffffff;fill-opacity:1;fill-rule:nonzero;stroke:none;stroke-width:0.1"
       id="path744" />
    <path
       d="m 542.085,365.1 c 0.151,-1.229 -0.773,-2.367 -2.083,-2.367 -1.311,0 -2.235,1.138 -2.086,2.367 0.131,1.077 1.058,1.818 2.086,1.818 1.026,0 1.956,-0.741 2.083,-1.818 z"
       style="fill:none;stroke:#231f20;stroke-width:0.5;stroke-linecap:butt;stroke-linejoin:miter;stroke-miterlimit:4;stroke-dasharray:none;stroke-opacity:1"
       id="path746" />
    <path
       d="m 617.679,546.92 c 6.428,-6.505 0.778,-12.369 -5.989,-12.834 -6.766,-0.463 -10.161,5.892 -12.101,8.337 -1.943,2.445 -0.39,6.056 1.978,7.503 1.717,1.047 3.179,1.923 4.098,2.413 1.645,-0.847 3.365,-1.681 4.968,-2.412 2.649,-1.203 4.657,-2.144 7.046,-3.007 z"
       style="fill:none;stroke:#231f20;stroke-width:0.5;stroke-linecap:butt;stroke-linejoin:miter;stroke-miterlimit:4;stroke-dasharray:none;stroke-opacity:1"
       id="path748" />
    <path
       d="m 462.324,546.92 c -6.429,-6.505 -0.779,-12.369 5.988,-12.834 6.767,-0.463 10.161,5.892 12.101,8.337 1.944,2.445 0.39,6.056 -1.978,7.503 -1.717,1.047 -3.179,1.923 -4.097,2.413 -1.646,-0.847 -3.365,-1.681 -4.968,-2.412 -2.649,-1.203 -4.657,-2.144 -7.046,-3.007 z"
       style="fill:none;stroke:#231f20;stroke-width:0.5;stroke-linecap:butt;stroke-linejoin:miter;stroke-miterlimit:4;stroke-dasharray:none;stroke-opacity:1"
       id="path750" />
    <path
       d="m 652.626,571.983 c -6.953,0 -9.456,3.059 -11.958,5.283 -2.502,2.226 -1.947,8.343 -0.649,10.189"
       style="fill:none;stroke:#231f20;stroke-width:0.5;stroke-linecap:round;stroke-linejoin:round;stroke-miterlimit:4;stroke-dasharray:2.8, 1.8;stroke-dashoffset:0;stroke-opacity:1"
       id="path752" />
    <path
       d="m 676.042,557.498 c -7.287,-1.921 -18.688,-3.87 -18.688,-14.992 0,-11.124 7.785,-16.13 15.015,-23.082 7.231,-6.952 13.349,-11.957 17.242,-25.583 3.893,-13.626 1.947,-21.412 3.059,-28.921 1.112,-7.507 7.787,-14.46 13.905,-14.739 6.116,-0.277 10.01,-0.555 16.406,3.06"
       style="fill:none;stroke:#231f20;stroke-width:0.5;stroke-linecap:round;stroke-linejoin:round;stroke-miterlimit:4;stroke-dasharray:2.8, 1.8;stroke-dashoffset:0;stroke-opacity:1"
       id="path754" />
    <path
       d="m 661.18,551.478 c -3.27,-1.186 -18.01,-10.362 -15.784,-18.427 2.224,-8.064 10.845,-11.124 18.631,-15.016 7.787,-3.893 18.579,-7.534 24.862,-21.843"
       style="fill:none;stroke:#231f20;stroke-width:0.5;stroke-linecap:round;stroke-linejoin:round;stroke-miterlimit:4;stroke-dasharray:2.8, 1.8;stroke-dashoffset:0;stroke-opacity:1"
       id="path756" />
    <path
       d="m 607.577,556.411 c 3.892,-1.114 15.016,-2.503 29.198,-1.114 14.182,1.392 26.695,1.947 31.146,5.006"
       style="fill:none;stroke:#231f20;stroke-width:0.5;stroke-linecap:round;stroke-linejoin:round;stroke-miterlimit:4;stroke-dasharray:2.8, 1.8;stroke-dashoffset:0;stroke-opacity:1"
       id="path758" />
    <path
       d="m 612.582,572.539 c 3.615,-3.058 8.017,-10.914 4.704,-17.553"
       style="fill:none;stroke:#231f20;stroke-width:0.5;stroke-linecap:round;stroke-linejoin:round;stroke-miterlimit:4;stroke-dasharray:2.8, 1.8;stroke-dashoffset:0;stroke-opacity:1"
       id="path760" />
    <path
       d="m 629.823,544.73 c 0,0 4.172,-5.561 -0.556,-11.122 -4.728,-5.563 -13.349,-5.563 -18.075,-6.118 -4.728,-0.557 -15.573,-1.114 -19.467,-1.114"
       style="fill:none;stroke:#231f20;stroke-width:0.5;stroke-linecap:round;stroke-linejoin:round;stroke-miterlimit:4;stroke-dasharray:2.8, 1.8;stroke-dashoffset:0;stroke-opacity:1"
       id="path762" />
    <path
       d="m 595.619,562.806 c 5.005,-3.059 13.904,-7.786 20.578,-10.012 6.674,-2.223 11.123,-3.613 13.07,-4.17 1.946,-0.556 3.338,-3.615 0.556,-3.894"
       style="fill:none;stroke:#231f20;stroke-width:0.5;stroke-linecap:round;stroke-linejoin:round;stroke-miterlimit:4;stroke-dasharray:2.8, 1.8;stroke-dashoffset:0;stroke-opacity:1"
       id="path764" />
    <path
       d="m 559.746,538.891 c 3.336,0.025 13.904,0.278 16.684,-0.557 2.782,-0.834 13.07,-5.005 14.461,-6.395 1.392,-1.391 3.615,-5.563 -1.391,-6.118 -5.004,-0.556 -13.626,1.669 -20.022,3.058 -6.396,1.392 -14.46,1.114 -14.46,6.953 0,2.781 2.506,3.042 4.728,3.059 z"
       style="fill:none;stroke:#231f20;stroke-width:0.5;stroke-linecap:round;stroke-linejoin:round;stroke-miterlimit:4;stroke-dasharray:2.8, 1.8;stroke-dashoffset:0;stroke-opacity:1"
       id="path766" />
    <path
       d="m 568.227,506.356 c 3.893,3.058 19.327,15.016 23.498,20.02"
       style="fill:none;stroke:#231f20;stroke-width:0.5;stroke-linecap:round;stroke-linejoin:round;stroke-miterlimit:4;stroke-dasharray:2.8, 1.8;stroke-dashoffset:0;stroke-opacity:1"
       id="path768" />
    <path
       d="m 450.179,544.73 c 0,0 -4.172,-5.561 0.557,-11.122 4.727,-5.563 13.348,-5.563 18.074,-6.118 4.729,-0.557 15.573,-1.114 19.468,-1.114"
       style="fill:none;stroke:#231f20;stroke-width:0.5;stroke-linecap:round;stroke-linejoin:round;stroke-miterlimit:4;stroke-dasharray:2.8, 1.8;stroke-dashoffset:0;stroke-opacity:1"
       id="path770" />
    <path
       d="m 484.383,562.806 c -5.006,-3.059 -13.904,-7.786 -20.577,-10.012 -6.675,-2.223 -11.124,-3.613 -13.07,-4.17 -1.946,-0.556 -3.338,-3.615 -0.557,-3.894"
       style="fill:none;stroke:#231f20;stroke-width:0.5;stroke-linecap:round;stroke-linejoin:round;stroke-miterlimit:4;stroke-dasharray:2.8, 1.8;stroke-dashoffset:0;stroke-opacity:1"
       id="path772" />
    <path
       d="m 520.256,538.891 c -3.337,0.025 -13.904,0.278 -16.684,-0.557 -2.781,-0.834 -13.071,-5.005 -14.46,-6.395 -1.392,-1.391 -3.616,-5.563 1.389,-6.118 5.006,-0.556 13.627,1.669 20.023,3.058 6.395,1.392 14.461,1.114 14.461,6.953 0,2.781 -2.506,3.042 -4.729,3.059 z"
       style="fill:none;stroke:#231f20;stroke-width:0.5;stroke-linecap:round;stroke-linejoin:round;stroke-miterlimit:4;stroke-dasharray:2.8, 1.8;stroke-dashoffset:0;stroke-opacity:1"
       id="path774" />
    <path
       d="m 511.775,506.356 c -3.893,3.058 -19.327,15.016 -23.497,20.02"
       style="fill:none;stroke:#231f20;stroke-width:0.5;stroke-linecap:round;stroke-linejoin:round;stroke-miterlimit:4;stroke-dasharray:2.8, 1.8;stroke-dashoffset:0;stroke-opacity:1"
       id="path776" />
    <path
       d="m 553.627,529.993 c 2.987,0.663 8.622,-1.114 11.125,-2.225 2.301,-1.022 4.449,-3.338 4.17,-8.344 -0.277,-5.005 0.835,-12.234 -1.946,-15.016 -2.78,-2.781 -8.065,-8.619 -12.515,-7.508 -4.449,1.112 -3.414,0.285 -5.36,-0.272 -1.946,-0.555 -6.875,1.664 -7.431,10.562 -0.556,8.898 0.279,15.572 3.336,18.075 3.06,2.503 6.12,4.171 8.621,4.728 z"
       style="fill:none;stroke:#231f20;stroke-width:0.5;stroke-linecap:round;stroke-linejoin:round;stroke-miterlimit:4;stroke-dasharray:2.8, 1.8;stroke-dashoffset:0;stroke-opacity:1"
       id="path778" />
    <path
       d="m 552.254,497.328 c 1.373,-3.487 6.379,-9.605 13.888,-9.882 7.508,-0.279 9.732,0.277 9.732,4.726 0,4.45 -5.839,9.178 -13.904,7.51"
       style="fill:none;stroke:#231f20;stroke-width:0.5;stroke-linecap:round;stroke-linejoin:round;stroke-miterlimit:4;stroke-dasharray:2.8, 1.8;stroke-dashoffset:0;stroke-opacity:1"
       id="path780" />
    <path
       d="m 597.546,526.546 c 8.082,-4.619 57.119,-44.699 77.698,-79.18"
       style="fill:none;stroke:#231f20;stroke-width:0.5;stroke-linecap:round;stroke-linejoin:round;stroke-miterlimit:4;stroke-dasharray:2.8, 1.8;stroke-dashoffset:0;stroke-opacity:1"
       id="path782" />
    <path
       d="m 583.669,518.915 c 10.003,-8.945 44.207,-48.711 55.331,-68.734 11.123,-20.021 16.962,-35.316 19.188,-41.712 2.225,-6.395 5.562,-8.342 11.123,-5.006 5.561,3.338 11.124,14.182 16.964,16.685"
       style="fill:none;stroke:#231f20;stroke-width:0.5;stroke-linecap:round;stroke-linejoin:round;stroke-miterlimit:4;stroke-dasharray:2.8, 1.8;stroke-dashoffset:0;stroke-opacity:1"
       id="path784" />
    <path
       d="m 698.058,446.566 c -5.006,4.728 -15.121,7.787 -18.458,6.118 -3.337,-1.667 -5.006,-2.78 -4.449,-11.123 0.557,-8.343 3.615,-15.572 5.006,-17.519 1.389,-1.946 4.051,-6.449 10.288,-1.946 3.163,2.282 5.562,1.667 7.787,2.78 2.225,1.113 7.01,3.567 9.233,7.182"
       style="fill:none;stroke:#231f20;stroke-width:0.5;stroke-linecap:round;stroke-linejoin:round;stroke-miterlimit:4;stroke-dasharray:2.8, 1.8;stroke-dashoffset:0;stroke-opacity:1"
       id="path786" />
    <path
       d="m 685.784,452.697 c -2.281,0.371 -5.349,-1.403 -4.515,-5.296 0.834,-3.893 5.006,-9.454 7.23,-11.957 2.225,-2.503 5.84,-9.455 9.733,-10.568"
       style="fill:none;stroke:#231f20;stroke-width:0.5;stroke-linecap:round;stroke-linejoin:round;stroke-miterlimit:4;stroke-dasharray:2.8, 1.8;stroke-dashoffset:0;stroke-opacity:1"
       id="path788" />
    <path
       d="m 656.264,472.969 c -2.225,2.272 -5.307,2.797 -9.756,0.571 -4.45,-2.223 -13.123,-13.936 -10.315,-18.647 2.807,-4.712 5.31,-6.935 11.149,-3.599 5.84,3.337 16.128,14.322 8.922,21.675 z"
       style="fill:none;stroke:#231f20;stroke-width:0.5;stroke-linecap:round;stroke-linejoin:round;stroke-miterlimit:4;stroke-dasharray:2.8, 1.8;stroke-dashoffset:0;stroke-opacity:1"
       id="path790" />
    <path
       d="m 643.759,441.3 c 2.471,-2.798 17.899,-8.02 23.049,4.155 3.059,7.229 1.66,12.305 -0.324,14.911"
       style="fill:none;stroke:#231f20;stroke-width:0.5;stroke-linecap:round;stroke-linejoin:round;stroke-miterlimit:4;stroke-dasharray:2.8, 1.8;stroke-dashoffset:0;stroke-opacity:1"
       id="path792" />
    <path
       d="m 651.664,424.819 c 4.298,-4.392 10.973,-5.226 16.257,-1.333 5.284,3.893 8.064,11.124 -1.113,21.969"
       style="fill:none;stroke:#231f20;stroke-width:0.5;stroke-linecap:round;stroke-linejoin:round;stroke-miterlimit:4;stroke-dasharray:2.8, 1.8;stroke-dashoffset:0;stroke-opacity:1"
       id="path794" />
    <path
       d="m 636.775,422.096 c 4.59,0 8.157,-5.517 9.733,-8.065 1.807,-2.92 6.674,-4.866 9.454,-5.284 1.404,-0.209 3.754,-3.346 4.311,-5.01 0.558,-1.663 1.829,-6.656 -2.363,-8.895 -4.172,-2.223 -9.734,-5.283 -20.858,-2.223 -11.122,3.059 -15.85,9.177 -15.015,16.684 0.834,7.508 8.614,12.793 14.738,12.793 z"
       style="fill:none;stroke:#231f20;stroke-width:0.5;stroke-linecap:round;stroke-linejoin:round;stroke-miterlimit:4;stroke-dasharray:2.8, 1.8;stroke-dashoffset:0;stroke-opacity:1"
       id="path796" />
    <path
       d="m 580.046,407.913 c 4.728,0 15.294,-4.172 21.135,-6.674 5.839,-2.503 19.187,-5.84 23.636,-6.674 4.45,-0.834 13.689,-5.711 13.349,-11.679 -0.341,-5.967 -8.899,-4.45 -11.958,-4.172 -3.06,0.278 -12.236,2.503 -10.568,5.84 1.426,2.85 7.508,4.449 -1.945,7.231 -9.456,2.78 -25.307,7.508 -30.59,9.454 -5.284,1.947 -7.656,-0.314 -9.733,-1.112 -1.808,-0.695 -7.787,1.112 -3.894,5.005 2.782,2.781 10.568,2.781 10.568,2.781 z"
       style="fill:none;stroke:#231f20;stroke-width:0.5;stroke-linecap:round;stroke-linejoin:round;stroke-miterlimit:4;stroke-dasharray:2.8, 1.8;stroke-dashoffset:0;stroke-opacity:1"
       id="path798" />
    <path
       d="m 550.847,409.86 c 5.792,0.748 10.012,-3.616 11.679,-5.283 1.67,-1.669 1.947,-3.617 -0.833,-5.006 -2.782,-1.391 -8.899,-3.893 -10.567,-4.729 -1.668,-0.833 -4.451,-1.946 -5.563,1.948 -1.111,3.893 -3.337,11.957 5.284,13.07 z"
       style="fill:none;stroke:#231f20;stroke-width:0.5;stroke-linecap:round;stroke-linejoin:round;stroke-miterlimit:4;stroke-dasharray:2.8, 1.8;stroke-dashoffset:0;stroke-opacity:1"
       id="path800" />
    <path
       d="m 592.214,379.738 c -0.211,1.757 1.597,4.121 4.516,3.148 1.422,-0.474 4.728,-1.391 5.285,-0.278 0.556,1.112 -4.728,2.781 -9.732,5.005 -5.006,2.224 -8.344,4.172 -7.509,6.118 0.834,1.947 4.223,0.837 10.01,-1.946 5.422,-2.607 9.936,-4.858 12.793,-7.092 3.198,-2.503 4.171,-5.145 3.337,-6.813 -0.834,-1.669 -6.675,-1.112 -9.733,-0.835"
       style="fill:none;stroke:#231f20;stroke-width:0.5;stroke-linecap:round;stroke-linejoin:round;stroke-miterlimit:4;stroke-dasharray:2.8, 1.8;stroke-dashoffset:0;stroke-opacity:1"
       id="path802" />
    <path
       d="m 703.238,573.651 c -5.841,0.557 -18.355,0.279 -18.076,-3.615 0.277,-3.893 5.538,-3.893 12.235,-3.893 4.172,0 5.284,-5.84 10.567,-8.62 5.285,-2.781 18.633,-6.952 20.023,4.171"
       style="fill:none;stroke:#231f20;stroke-width:0.5;stroke-linecap:round;stroke-linejoin:round;stroke-miterlimit:4;stroke-dasharray:2.8, 1.8;stroke-dashoffset:0;stroke-opacity:1"
       id="path804" />
    <path
       d="m 427.377,571.983 c 6.953,0 9.456,3.059 11.958,5.283 2.502,2.226 1.947,8.343 0.65,10.189"
       style="fill:none;stroke:#231f20;stroke-width:0.5;stroke-linecap:round;stroke-linejoin:round;stroke-miterlimit:4;stroke-dasharray:2.8, 1.8;stroke-dashoffset:0;stroke-opacity:1"
       id="path806" />
    <path
       d="m 403.962,557.498 c 7.287,-1.921 18.688,-3.87 18.688,-14.992 0,-11.124 -7.786,-16.13 -15.017,-23.082 -7.229,-6.952 -13.347,-11.957 -17.241,-25.583 -3.893,-13.626 -1.946,-21.412 -3.058,-28.921 -1.113,-7.507 -7.788,-14.46 -13.905,-14.739 -6.118,-0.277 -10.011,-0.555 -16.407,3.06"
       style="fill:none;stroke:#231f20;stroke-width:0.5;stroke-linecap:round;stroke-linejoin:round;stroke-miterlimit:4;stroke-dasharray:2.8, 1.8;stroke-dashoffset:0;stroke-opacity:1"
       id="path808" />
    <path
       d="m 418.824,551.478 c 3.269,-1.186 18.009,-10.362 15.784,-18.427 -2.225,-8.064 -10.846,-11.124 -18.632,-15.016 -7.786,-3.893 -18.578,-7.534 -24.862,-21.843"
       style="fill:none;stroke:#231f20;stroke-width:0.5;stroke-linecap:round;stroke-linejoin:round;stroke-miterlimit:4;stroke-dasharray:2.8, 1.8;stroke-dashoffset:0;stroke-opacity:1"
       id="path810" />
    <path
       d="m 472.427,556.411 c -3.893,-1.114 -15.016,-2.503 -29.198,-1.114 -14.184,1.392 -26.697,1.947 -31.146,5.006"
       style="fill:none;stroke:#231f20;stroke-width:0.5;stroke-linecap:round;stroke-linejoin:round;stroke-miterlimit:4;stroke-dasharray:2.8, 1.8;stroke-dashoffset:0;stroke-opacity:1"
       id="path812" />
    <path
       d="m 467.421,572.539 c -3.615,-3.058 -8.016,-10.914 -4.703,-17.553"
       style="fill:none;stroke:#231f20;stroke-width:0.5;stroke-linecap:round;stroke-linejoin:round;stroke-miterlimit:4;stroke-dasharray:2.8, 1.8;stroke-dashoffset:0;stroke-opacity:1"
       id="path814" />
    <path
       d="m 526.376,529.993 c -2.987,0.663 -8.622,-1.114 -11.124,-2.225 -2.301,-1.022 -4.449,-3.338 -4.171,-8.344 0.278,-5.005 -0.834,-12.234 1.947,-15.016 2.78,-2.781 8.063,-8.619 12.514,-7.508 4.449,1.112 3.414,0.285 5.36,-0.272 1.946,-0.555 6.875,1.664 7.432,10.562 0.555,8.898 -0.279,15.572 -3.337,18.075 -3.06,2.503 -6.119,4.171 -8.621,4.728 z"
       style="fill:none;stroke:#231f20;stroke-width:0.5;stroke-linecap:round;stroke-linejoin:round;stroke-miterlimit:4;stroke-dasharray:2.8, 1.8;stroke-dashoffset:0;stroke-opacity:1"
       id="path816" />
    <path
       d="m 527.749,497.328 c -1.373,-3.487 -6.378,-9.605 -13.887,-9.882 -7.508,-0.279 -9.733,0.277 -9.733,4.726 0,4.45 5.84,9.178 13.905,7.51"
       style="fill:none;stroke:#231f20;stroke-width:0.5;stroke-linecap:round;stroke-linejoin:round;stroke-miterlimit:4;stroke-dasharray:2.8, 1.8;stroke-dashoffset:0;stroke-opacity:1"
       id="path818" />
    <path
       d="m 482.458,526.546 c -8.084,-4.619 -57.12,-44.699 -77.698,-79.18"
       style="fill:none;stroke:#231f20;stroke-width:0.5;stroke-linecap:round;stroke-linejoin:round;stroke-miterlimit:4;stroke-dasharray:2.8, 1.8;stroke-dashoffset:0;stroke-opacity:1"
       id="path820" />
    <path
       d="m 496.334,518.915 c -10.002,-8.945 -44.207,-48.711 -55.331,-68.734 -11.123,-20.021 -16.962,-35.316 -19.187,-41.712 -2.225,-6.395 -5.562,-8.342 -11.124,-5.006 -5.562,3.338 -11.123,14.182 -16.963,16.685"
       style="fill:none;stroke:#231f20;stroke-width:0.5;stroke-linecap:round;stroke-linejoin:round;stroke-miterlimit:4;stroke-dasharray:2.8, 1.8;stroke-dashoffset:0;stroke-opacity:1"
       id="path822" />
    <path
       d="m 381.946,446.566 c 5.006,4.728 15.121,7.787 18.458,6.118 3.337,-1.667 5.006,-2.78 4.449,-11.123 -0.557,-8.343 -3.615,-15.572 -5.006,-17.519 -1.39,-1.946 -4.054,-6.449 -10.289,-1.946 -3.162,2.282 -5.561,1.667 -7.787,2.78 -2.225,1.113 -7.009,3.567 -9.234,7.182"
       style="fill:none;stroke:#231f20;stroke-width:0.5;stroke-linecap:round;stroke-linejoin:round;stroke-miterlimit:4;stroke-dasharray:2.8, 1.8;stroke-dashoffset:0;stroke-opacity:1"
       id="path824" />
    <path
       d="m 394.22,452.697 c 2.28,0.371 5.349,-1.403 4.515,-5.296 -0.834,-3.893 -5.006,-9.454 -7.231,-11.957 -2.224,-2.503 -5.839,-9.455 -9.733,-10.568"
       style="fill:none;stroke:#231f20;stroke-width:0.5;stroke-linecap:round;stroke-linejoin:round;stroke-miterlimit:4;stroke-dasharray:2.8, 1.8;stroke-dashoffset:0;stroke-opacity:1"
       id="path826" />
    <path
       d="m 423.739,472.969 c 2.226,2.272 5.306,2.797 9.756,0.571 4.449,-2.223 13.122,-13.936 10.316,-18.647 -2.808,-4.712 -5.311,-6.935 -11.149,-3.599 -5.84,3.337 -16.13,14.322 -8.923,21.675 z"
       style="fill:none;stroke:#231f20;stroke-width:0.5;stroke-linecap:round;stroke-linejoin:round;stroke-miterlimit:4;stroke-dasharray:2.8, 1.8;stroke-dashoffset:0;stroke-opacity:1"
       id="path828" />
    <path
       d="m 436.244,441.3 c -2.47,-2.798 -17.898,-8.02 -23.049,4.155 -3.059,7.229 -1.659,12.305 0.325,14.911"
       style="fill:none;stroke:#231f20;stroke-width:0.5;stroke-linecap:round;stroke-linejoin:round;stroke-miterlimit:4;stroke-dasharray:2.8, 1.8;stroke-dashoffset:0;stroke-opacity:1"
       id="path830" />
    <path
       d="m 428.339,424.819 c -4.298,-4.392 -10.972,-5.226 -16.256,-1.333 -5.284,3.893 -8.065,11.124 1.112,21.969"
       style="fill:none;stroke:#231f20;stroke-width:0.5;stroke-linecap:round;stroke-linejoin:round;stroke-miterlimit:4;stroke-dasharray:2.8, 1.8;stroke-dashoffset:0;stroke-opacity:1"
       id="path832" />
    <path
       d="m 443.227,422.096 c -4.588,0 -8.155,-5.517 -9.732,-8.065 -1.808,-2.92 -6.673,-4.866 -9.454,-5.284 -1.403,-0.209 -3.753,-3.346 -4.311,-5.01 -0.557,-1.663 -1.829,-6.656 2.363,-8.895 4.172,-2.223 9.734,-5.283 20.857,-2.223 11.124,3.059 15.851,9.177 15.016,16.684 -0.833,7.508 -8.614,12.793 -14.739,12.793 z"
       style="fill:none;stroke:#231f20;stroke-width:0.5;stroke-linecap:round;stroke-linejoin:round;stroke-miterlimit:4;stroke-dasharray:2.8, 1.8;stroke-dashoffset:0;stroke-opacity:1"
       id="path834" />
    <path
       d="m 537.777,404.483 c -2.225,18.562 -0.834,36.244 -0.834,50.427 0,14.181 1.112,30.033 3.059,30.033 1.947,0 3.058,-15.852 3.058,-30.033 0,-14.183 1.392,-31.865 -0.834,-50.427"
       style="fill:none;stroke:#231f20;stroke-width:0.5;stroke-linecap:round;stroke-linejoin:round;stroke-miterlimit:4;stroke-dasharray:2.8, 1.8;stroke-dashoffset:0;stroke-opacity:1"
       id="path836" />
    <path
       d="m 499.958,407.913 c -4.728,0 -15.295,-4.172 -21.135,-6.674 -5.839,-2.503 -19.188,-5.84 -23.637,-6.674 -4.449,-0.834 -13.688,-5.711 -13.349,-11.679 0.341,-5.967 8.9,-4.45 11.958,-4.172 3.059,0.278 12.237,2.503 10.568,5.84 -1.425,2.85 -7.509,4.449 1.946,7.231 9.455,2.78 25.306,7.508 30.59,9.454 5.283,1.947 7.656,-0.314 9.732,-1.112 1.808,-0.695 7.787,1.112 3.894,5.005 -2.781,2.781 -10.567,2.781 -10.567,2.781 z"
       style="fill:none;stroke:#231f20;stroke-width:0.5;stroke-linecap:round;stroke-linejoin:round;stroke-miterlimit:4;stroke-dasharray:2.8, 1.8;stroke-dashoffset:0;stroke-opacity:1"
       id="path838" />
    <path
       d="m 536.665,372.748 c -0.278,3.06 -0.278,18.758 -0.278,24.597 0,5.841 1.309,8.344 3.615,8.344 2.306,0 3.615,-2.503 3.615,-8.344 0,-5.839 0,-21.537 -0.278,-24.597"
       style="fill:none;stroke:#231f20;stroke-width:0.5;stroke-linecap:round;stroke-linejoin:round;stroke-miterlimit:4;stroke-dasharray:2.8, 1.8;stroke-dashoffset:0;stroke-opacity:1"
       id="path840" />
    <path
       d="m 529.156,409.86 c -5.791,0.748 -10.011,-3.616 -11.679,-5.283 -1.669,-1.669 -1.947,-3.617 0.834,-5.006 2.78,-1.391 8.899,-3.893 10.567,-4.729 1.668,-0.833 4.45,-1.946 5.562,1.948 1.112,3.893 3.337,11.957 -5.284,13.07 z"
       style="fill:none;stroke:#231f20;stroke-width:0.5;stroke-linecap:round;stroke-linejoin:round;stroke-miterlimit:4;stroke-dasharray:2.8, 1.8;stroke-dashoffset:0;stroke-opacity:1"
       id="path842" />
    <path
       d="m 487.79,379.738 c 0.21,1.757 -1.597,4.121 -4.518,3.148 -1.42,-0.474 -4.727,-1.391 -5.283,-0.278 -0.556,1.112 4.727,2.781 9.732,5.005 5.006,2.224 8.343,4.172 7.509,6.118 -0.834,1.947 -4.223,0.837 -10.012,-1.946 -5.422,-2.607 -9.936,-4.858 -12.791,-7.092 -3.198,-2.503 -4.171,-5.145 -3.337,-6.813 0.834,-1.669 6.674,-1.112 9.733,-0.835"
       style="fill:none;stroke:#231f20;stroke-width:0.5;stroke-linecap:round;stroke-linejoin:round;stroke-miterlimit:4;stroke-dasharray:2.8, 1.8;stroke-dashoffset:0;stroke-opacity:1"
       id="path844" />
    <path
       d="m 376.766,573.651 c 5.84,0.557 18.354,0.279 18.075,-3.615 -0.277,-3.893 -5.538,-3.893 -12.235,-3.893 -4.171,0 -5.284,-5.84 -10.566,-8.62 -5.286,-2.781 -18.633,-6.952 -20.023,4.171"
       style="fill:none;stroke:#231f20;stroke-width:0.5;stroke-linecap:round;stroke-linejoin:round;stroke-miterlimit:4;stroke-dasharray:2.8, 1.8;stroke-dashoffset:0;stroke-opacity:1"
       id="path846" />
    <path
       d="m 552.515,378.992 c -0.834,1.113 3.338,8.342 6.675,11.401 3.336,3.06 8.619,4.449 12.235,4.172 3.616,-0.277 19.428,-9.64 17.223,-15.804"
       style="fill:none;stroke:#231f20;stroke-width:0.5;stroke-linecap:round;stroke-linejoin:round;stroke-miterlimit:4;stroke-dasharray:2.8, 1.8;stroke-dashoffset:0;stroke-opacity:1"
       id="path848" />
    <path
       d="m 527.488,378.992 c 0.835,1.113 -3.337,8.342 -6.674,11.401 -3.337,3.06 -8.621,4.449 -12.235,4.172 -3.616,-0.277 -19.429,-9.64 -17.223,-15.804"
       style="fill:none;stroke:#231f20;stroke-width:0.5;stroke-linecap:round;stroke-linejoin:round;stroke-miterlimit:4;stroke-dasharray:2.8, 1.8;stroke-dashoffset:0;stroke-opacity:1"
       id="path850" />
    <path
       d="m 617.679,546.92 c 2.989,-1.014 6.249,-1.612 12.144,-2.19"
       style="fill:none;stroke:#231f20;stroke-width:0.5;stroke-linecap:round;stroke-linejoin:round;stroke-miterlimit:4;stroke-dasharray:2.8, 1.8;stroke-dashoffset:0;stroke-opacity:1"
       id="path852" />
    <path
       d="m 595.619,562.806 c -1.309,0.18 -2.917,-1.177 -0.986,-3.442 1.431,-1.678 6.183,-4.532 11.032,-7.025"
       style="fill:none;stroke:#231f20;stroke-width:0.5;stroke-linecap:round;stroke-linejoin:round;stroke-miterlimit:4;stroke-dasharray:2.8, 1.8;stroke-dashoffset:0;stroke-opacity:1"
       id="path854" />
    <path
       d="m 585.129,561.637 c -2.253,-1.866 -3.807,-4.099 -2.617,-6.216 1.195,-2.111 8.093,-4.712 11.326,-3.131 3.234,1.581 2.954,3.018 3.157,5.098"
       style="fill:none;stroke:#231f20;stroke-width:0.5;stroke-linecap:round;stroke-linejoin:round;stroke-miterlimit:4;stroke-dasharray:2.8, 1.8;stroke-dashoffset:0;stroke-opacity:1"
       id="path856" />
    <path
       d="m 575.184,559.29 c 0.906,-3.776 6.959,-16.624 24.654,-3.73"
       style="fill:none;stroke:#231f20;stroke-width:0.5;stroke-linecap:round;stroke-linejoin:round;stroke-miterlimit:4;stroke-dasharray:2.8, 1.8;stroke-dashoffset:0;stroke-opacity:1"
       id="path858" />
    <path
       d="m 586.536,534.855 c -1.476,0.514 -4.575,3.757 -3.244,6.88 1.331,3.127 7.317,4.641 9.945,3.308 2.627,-1.333 3.347,-5.275 2.16,-7.491 -1.189,-2.216 -4.268,-4.286 -8.861,-2.697 z"
       style="fill:none;stroke:#231f20;stroke-width:0.5;stroke-linecap:round;stroke-linejoin:round;stroke-miterlimit:4;stroke-dasharray:2.8, 1.8;stroke-dashoffset:0;stroke-opacity:1"
       id="path860" />
    <path
       d="m 582.394,550.633 c 2.806,-2.137 8.502,-6.591 12.094,-4.815 2.116,1.048 4.816,2.726 7.162,4.158"
       style="fill:none;stroke:#231f20;stroke-width:0.5;stroke-linecap:round;stroke-linejoin:round;stroke-miterlimit:4;stroke-dasharray:2.8, 1.8;stroke-dashoffset:0;stroke-opacity:1"
       id="path862" />
    <path
       d="m 613.116,547.181 c 2.048,-0.626 2.338,-2.646 1.199,-5.942 -1.143,-3.3 -2.282,-6.599 -5.266,-5.459 -2.985,1.138 -1.52,4.198 -0.866,6.831 0.399,1.614 2.33,5.363 4.933,4.57 z"
       style="fill:none;stroke:#231f20;stroke-width:0.5;stroke-linecap:round;stroke-linejoin:round;stroke-miterlimit:4;stroke-dasharray:2.8, 1.8;stroke-dashoffset:10.2539;stroke-opacity:1"
       id="path864" />
    <path
       d="m 593.663,535.571 c 1.382,-2.547 10.053,-5.906 11.664,0.356"
       style="fill:none;stroke:#231f20;stroke-width:0.5;stroke-linecap:round;stroke-linejoin:round;stroke-miterlimit:4;stroke-dasharray:2.8, 1.8;stroke-dashoffset:0;stroke-opacity:1"
       id="path866" />
    <path
       d="m 619.068,537.439 c 1.173,-1.73 4.163,-4.889 6.741,-6.295"
       style="fill:none;stroke:#231f20;stroke-width:0.5;stroke-linecap:round;stroke-linejoin:round;stroke-miterlimit:4;stroke-dasharray:2.8, 1.8;stroke-dashoffset:0;stroke-opacity:1"
       id="path868" />
    <path
       d="m 462.324,546.92 c -2.99,-1.014 -6.249,-1.612 -12.145,-2.19"
       style="fill:none;stroke:#231f20;stroke-width:0.5;stroke-linecap:round;stroke-linejoin:round;stroke-miterlimit:4;stroke-dasharray:2.8, 1.8;stroke-dashoffset:0;stroke-opacity:1"
       id="path870" />
    <path
       d="m 484.383,562.806 c 1.309,0.18 2.918,-1.177 0.987,-3.442 -1.431,-1.678 -6.184,-4.532 -11.032,-7.025"
       style="fill:none;stroke:#231f20;stroke-width:0.5;stroke-linecap:round;stroke-linejoin:round;stroke-miterlimit:4;stroke-dasharray:2.8, 1.8;stroke-dashoffset:0;stroke-opacity:1"
       id="path872" />
    <path
       d="m 494.874,561.637 c 2.253,-1.866 3.806,-4.099 2.617,-6.216 -1.195,-2.111 -8.094,-4.712 -11.327,-3.131 -3.234,1.581 -2.954,3.018 -3.156,5.098"
       style="fill:none;stroke:#231f20;stroke-width:0.5;stroke-linecap:round;stroke-linejoin:round;stroke-miterlimit:4;stroke-dasharray:2.8, 1.8;stroke-dashoffset:0;stroke-opacity:1"
       id="path874" />
    <path
       d="m 504.818,559.29 c -0.906,-3.776 -6.959,-16.624 -24.654,-3.73"
       style="fill:none;stroke:#231f20;stroke-width:0.5;stroke-linecap:round;stroke-linejoin:round;stroke-miterlimit:4;stroke-dasharray:2.8, 1.8;stroke-dashoffset:0;stroke-opacity:1"
       id="path876" />
    <path
       d="m 493.467,534.855 c 1.476,0.514 4.575,3.757 3.243,6.88 -1.331,3.127 -7.317,4.641 -9.945,3.308 -2.627,-1.333 -3.347,-5.275 -2.16,-7.491 1.188,-2.216 4.269,-4.286 8.862,-2.697 z"
       style="fill:none;stroke:#231f20;stroke-width:0.5;stroke-linecap:round;stroke-linejoin:round;stroke-miterlimit:4;stroke-dasharray:2.8, 1.8;stroke-dashoffset:0;stroke-opacity:1"
       id="path878" />
    <path
       d="m 497.609,550.633 c -2.807,-2.137 -8.503,-6.591 -12.094,-4.815 -2.116,1.048 -4.816,2.726 -7.163,4.158"
       style="fill:none;stroke:#231f20;stroke-width:0.5;stroke-linecap:round;stroke-linejoin:round;stroke-miterlimit:4;stroke-dasharray:2.8, 1.8;stroke-dashoffset:0;stroke-opacity:1"
       id="path880" />
    <path
       d="m 466.887,547.181 c -2.049,-0.626 -2.339,-2.646 -1.2,-5.942 1.143,-3.3 2.282,-6.599 5.266,-5.459 2.985,1.138 1.52,4.198 0.866,6.831 -0.399,1.614 -2.33,5.363 -4.932,4.57 z"
       style="fill:none;stroke:#231f20;stroke-width:0.5;stroke-linecap:round;stroke-linejoin:round;stroke-miterlimit:4;stroke-dasharray:2.8, 1.8;stroke-dashoffset:10.2539;stroke-opacity:1"
       id="path882" />
    <path
       d="m 486.339,535.571 c -1.381,-2.547 -10.053,-5.906 -11.664,0.356"
       style="fill:none;stroke:#231f20;stroke-width:0.5;stroke-linecap:round;stroke-linejoin:round;stroke-miterlimit:4;stroke-dasharray:2.8, 1.8;stroke-dashoffset:0;stroke-opacity:1"
       id="path884" />
    <path
       d="m 460.935,537.439 c -1.173,-1.73 -4.164,-4.889 -6.741,-6.295"
       style="fill:none;stroke:#231f20;stroke-width:0.5;stroke-linecap:round;stroke-linejoin:round;stroke-miterlimit:4;stroke-dasharray:2.8, 1.8;stroke-dashoffset:0;stroke-opacity:1"
       id="path886" />
    <path
       d="m 726.318,767.199 c -2.239,-2.851 26.697,-26.418 33.093,-31.424 6.395,-5.006 27.252,-25.861 31.423,-19.744 4.17,6.117 -5.839,16.129 -13.07,23.359 -7.231,7.23 -23.359,19.744 -30.867,23.36 -7.509,3.614 -17.52,8.341 -20.579,4.449"
       style="fill:#d3d2d2;fill-opacity:1;fill-rule:nonzero;stroke:none;stroke-width:0.1"
       id="path888" />
    <path
       d="m 726.318,767.199 c -2.239,-2.851 26.697,-26.418 33.093,-31.424 6.395,-5.006 27.252,-25.861 31.423,-19.744 4.17,6.117 -5.839,16.129 -13.07,23.359 -7.231,7.23 -23.359,19.744 -30.867,23.36 -7.509,3.614 -17.52,8.341 -20.579,4.449 z"
       style="fill:none;stroke:#231f20;stroke-width:0.75;stroke-linecap:round;stroke-linejoin:round;stroke-miterlimit:4;stroke-dasharray:0, 2;stroke-dashoffset:0;stroke-opacity:1"
       id="path890" />
    <path
       d="m 586.719,810.301 c 8.344,-1.668 22.558,-7.201 36.277,-22.613 11.553,-12.98 6.271,-21.88 27.406,-46.351 21.134,-24.471 26.972,-33.371 44.771,-50.334 17.797,-16.963 49.221,-42.547 62.291,-46.44 13.069,-3.893 24.749,-13.348 29.755,-16.407 5.005,-3.059 4.449,-10.568 -0.279,-16.686 -4.727,-6.116 -24.47,-28.086 -31.424,-20.577 -6.95,7.509 -13.625,26.973 -19.743,35.594 -6.117,8.621 -38.653,38.655 -54.783,55.617 -16.128,16.964 -43.658,51.445 -50.054,67.297 -6.397,15.85 -10.29,22.524 -30.312,21.135 -20.022,-1.391 -52.279,-3.06 -60.622,-3.337 -8.343,0.277 -40.6,1.946 -60.623,3.337 -20.022,1.389 -23.916,-5.285 -30.311,-21.135 -6.396,-15.852 -33.926,-50.333 -50.055,-67.297 -16.129,-16.962 -48.665,-46.996 -54.783,-55.617 -6.117,-8.621 -12.792,-28.085 -19.744,-35.594 -6.952,-7.509 -26.695,14.461 -31.424,20.577 -4.727,6.118 -5.283,13.627 -0.277,16.686 5.006,3.059 16.684,12.514 29.755,16.407 13.07,3.893 44.494,29.477 62.291,46.44 17.796,16.963 23.636,25.863 44.771,50.334 21.135,24.471 15.851,33.371 27.405,46.351 13.72,15.412 27.934,20.945 36.277,22.613 0,0 18.878,4.658 46.718,4.658 27.838,0 46.717,-4.658 46.717,-4.658"
       style="fill:#d3d2d2;fill-opacity:1;fill-rule:nonzero;stroke:none;stroke-width:0.1"
       id="path892" />
    <path
       d="m 586.719,810.301 c 8.344,-1.668 22.558,-7.201 36.277,-22.613 11.553,-12.98 6.271,-21.88 27.406,-46.351 21.134,-24.471 26.972,-33.371 44.771,-50.334 17.797,-16.963 49.221,-42.547 62.291,-46.44 13.069,-3.893 24.749,-13.348 29.755,-16.407 5.005,-3.059 4.449,-10.568 -0.279,-16.686 -4.727,-6.116 -24.47,-28.086 -31.424,-20.577 -6.95,7.509 -13.625,26.973 -19.743,35.594 -6.117,8.621 -38.653,38.655 -54.783,55.617 -16.128,16.964 -43.658,51.445 -50.054,67.297 -6.397,15.85 -10.29,22.524 -30.312,21.135 -20.022,-1.391 -52.279,-3.06 -60.622,-3.337 -8.343,0.277 -40.6,1.946 -60.623,3.337 -20.022,1.389 -23.916,-5.285 -30.311,-21.135 -6.396,-15.852 -33.926,-50.333 -50.055,-67.297 -16.129,-16.962 -48.665,-46.996 -54.783,-55.617 -6.117,-8.621 -12.792,-28.085 -19.744,-35.594 -6.952,-7.509 -26.695,14.461 -31.424,20.577 -4.727,6.118 -5.283,13.627 -0.277,16.686 5.006,3.059 16.684,12.514 29.755,16.407 13.07,3.893 44.494,29.477 62.291,46.44 17.796,16.963 23.636,25.863 44.771,50.334 21.135,24.471 15.851,33.371 27.405,46.351 13.72,15.412 27.934,20.945 36.277,22.613 0,0 18.878,4.658 46.718,4.658 27.838,0 46.717,-4.658 46.717,-4.658 z"
       style="fill:none;stroke:#231f20;stroke-width:0.75;stroke-linecap:round;stroke-linejoin:round;stroke-miterlimit:4;stroke-dasharray:0, 2;stroke-dashoffset:0;stroke-opacity:1"
       id="path894" />
    <path
       d="m 353.685,767.199 c 2.239,-2.851 -26.696,-26.418 -33.092,-31.424 -6.395,-5.006 -27.252,-25.861 -31.424,-19.744 -4.17,6.117 5.84,16.129 13.071,23.359 7.229,7.23 23.359,19.744 30.867,23.36 7.509,3.614 17.519,8.341 20.578,4.449"
       style="fill:#d3d2d2;fill-opacity:1;fill-rule:nonzero;stroke:none;stroke-width:0.1"
       id="path896" />
    <path
       d="m 353.685,767.199 c 2.239,-2.851 -26.696,-26.418 -33.092,-31.424 -6.395,-5.006 -27.252,-25.861 -31.424,-19.744 -4.17,6.117 5.84,16.129 13.071,23.359 7.229,7.23 23.359,19.744 30.867,23.36 7.509,3.614 17.519,8.341 20.578,4.449 z"
       style="fill:none;stroke:#231f20;stroke-width:0.75;stroke-linecap:round;stroke-linejoin:round;stroke-miterlimit:4;stroke-dasharray:0, 2;stroke-dashoffset:0;stroke-opacity:1"
       id="path898" />
    <path
       d="m 300.571,660.414 c 4.045,4.684 23.637,21.134 36.151,28.364 12.514,7.231 26.418,25.306 43.937,38.098 17.519,12.791 25.306,23.081 33.649,29.199 8.342,6.118 9.137,9.056 7.23,11.679 -2.225,3.059 -8.899,1.391 -15.573,2.782 -6.673,1.389 -18.91,-0.557 -27.253,-5.563 -8.341,-5.005 -23.359,-23.915 -31.979,-33.092 -8.62,-9.176 -39.107,-39.139 -50.889,-45.605 -3.076,-1.689 -15.263,-7.26 -15.96,-19.447 -0.696,-12.188 4.875,-21.938 11.144,-15.67 6.267,6.267 9.543,9.255 9.543,9.255"
       style="fill:#d3d2d2;fill-opacity:1;fill-rule:nonzero;stroke:none;stroke-width:0.1"
       id="path900" />
    <path
       d="m 300.571,660.414 c 4.045,4.684 23.637,21.134 36.151,28.364 12.514,7.231 26.418,25.306 43.937,38.098 17.519,12.791 25.306,23.081 33.649,29.199 8.342,6.118 9.137,9.056 7.23,11.679 -2.225,3.059 -8.899,1.391 -15.573,2.782 -6.673,1.389 -18.91,-0.557 -27.253,-5.563 -8.341,-5.005 -23.359,-23.915 -31.979,-33.092 -8.62,-9.176 -39.107,-39.139 -50.889,-45.605 -3.076,-1.689 -15.263,-7.26 -15.96,-19.447 -0.696,-12.188 4.875,-21.938 11.144,-15.67 6.267,6.267 9.543,9.255 9.543,9.255 z"
       style="fill:none;stroke:#231f20;stroke-width:0.75;stroke-linecap:round;stroke-linejoin:round;stroke-miterlimit:4;stroke-dasharray:0, 2;stroke-dashoffset:0;stroke-opacity:1"
       id="path902" />
    <path
       d="m 779.431,660.414 c -4.045,4.684 -23.637,21.134 -36.151,28.364 -12.514,7.231 -26.418,25.306 -43.937,38.098 -17.519,12.791 -25.306,23.081 -33.648,29.199 -8.343,6.118 -9.137,9.056 -7.23,11.679 2.224,3.059 8.899,1.391 15.572,2.782 6.674,1.389 18.91,-0.557 27.253,-5.563 8.342,-5.005 23.359,-23.915 31.979,-33.092 8.621,-9.176 39.107,-39.139 50.89,-45.605 3.075,-1.689 15.262,-7.26 15.959,-19.447 0.696,-12.188 -4.875,-21.938 -11.143,-15.67 -6.268,6.267 -9.544,9.255 -9.544,9.255"
       style="fill:#d3d2d2;fill-opacity:1;fill-rule:nonzero;stroke:none;stroke-width:0.1"
       id="path904" />
    <path
       d="m 779.431,660.414 c -4.045,4.684 -23.637,21.134 -36.151,28.364 -12.514,7.231 -26.418,25.306 -43.937,38.098 -17.519,12.791 -25.306,23.081 -33.648,29.199 -8.343,6.118 -9.137,9.056 -7.23,11.679 2.224,3.059 8.899,1.391 15.572,2.782 6.674,1.389 18.91,-0.557 27.253,-5.563 8.342,-5.005 23.359,-23.915 31.979,-33.092 8.621,-9.176 39.107,-39.139 50.89,-45.605 3.075,-1.689 15.262,-7.26 15.959,-19.447 0.696,-12.188 -4.875,-21.938 -11.143,-15.67 -6.268,6.267 -9.544,9.255 -9.544,9.255 z"
       style="fill:none;stroke:#231f20;stroke-width:0.75;stroke-linecap:round;stroke-linejoin:round;stroke-miterlimit:4;stroke-dasharray:0, 2;stroke-dashoffset:0;stroke-opacity:1"
       id="path906" />
    <path
       d="m 540.002,700.736 c -5.105,0 -11.336,0.888 -18.076,0.835 -10.147,-0.08 -20.739,-1.168 -24.75,-1.669 -6.673,-0.834 -10.289,-1.669 -26.139,-15.295 -15.851,-13.626 -30.868,-43.103 -37.82,-53.671 -6.952,-10.567 -17.519,-20.3 -32.257,-29.754 -14.739,-9.455 -36.986,-18.633 -40.878,-14.182 -4.949,5.655 11.401,20.856 19.464,29.754 8.065,8.9 25.864,28.921 36.986,44.216 11.124,15.294 30.59,42.269 44.494,55.616 13.904,13.349 29.477,12.237 36.985,12.237 7.508,0 35.317,-0.279 41.991,-0.279 6.673,0 34.482,0.279 41.991,0.279 7.507,0 23.081,1.112 36.985,-12.237 13.904,-13.347 33.37,-40.322 44.492,-55.616 11.124,-15.295 28.921,-35.316 36.987,-44.216 8.064,-8.898 24.413,-24.099 19.465,-29.754 -3.892,-4.451 -26.14,4.727 -40.878,14.182 -14.738,9.454 -25.306,19.187 -32.257,29.754 -6.953,10.568 -21.97,40.045 -37.821,53.671 -15.85,13.626 -19.466,14.461 -26.139,15.295 -4.011,0.501 -14.603,1.589 -24.75,1.669 -6.739,0.053 -12.971,-0.835 -18.075,-0.835"
       style="fill:#d3d2d2;fill-opacity:1;fill-rule:nonzero;stroke:none;stroke-width:0.1"
       id="path908" />
    <path
       d="m 540.002,700.736 c -5.105,0 -11.336,0.888 -18.076,0.835 -10.147,-0.08 -20.739,-1.168 -24.75,-1.669 -6.673,-0.834 -10.289,-1.669 -26.139,-15.295 -15.851,-13.626 -30.868,-43.103 -37.82,-53.671 -6.952,-10.567 -17.519,-20.3 -32.257,-29.754 -14.739,-9.455 -36.986,-18.633 -40.878,-14.182 -4.949,5.655 11.401,20.856 19.464,29.754 8.065,8.9 25.864,28.921 36.986,44.216 11.124,15.294 30.59,42.269 44.494,55.616 13.904,13.349 29.477,12.237 36.985,12.237 7.508,0 35.317,-0.279 41.991,-0.279 6.673,0 34.482,0.279 41.991,0.279 7.507,0 23.081,1.112 36.985,-12.237 13.904,-13.347 33.37,-40.322 44.492,-55.616 11.124,-15.295 28.921,-35.316 36.987,-44.216 8.064,-8.898 24.413,-24.099 19.465,-29.754 -3.892,-4.451 -26.14,4.727 -40.878,14.182 -14.738,9.454 -25.306,19.187 -32.257,29.754 -6.953,10.568 -21.97,40.045 -37.821,53.671 -15.85,13.626 -19.466,14.461 -26.139,15.295 -4.011,0.501 -14.603,1.589 -24.75,1.669 -6.739,0.053 -12.971,-0.835 -18.075,-0.835 z"
       style="fill:none;stroke:#231f20;stroke-width:0.75;stroke-linecap:round;stroke-linejoin:round;stroke-miterlimit:4;stroke-dasharray:0, 2;stroke-dashoffset:0;stroke-opacity:1"
       id="path910" />
    <path
       d="m 438.956,615.355 c 4.07,-1.398 7.609,-0.825 10.112,0.844 2.503,1.667 8.343,4.449 17.241,8.064 8.899,3.614 18.909,-0.278 22.247,0 3.337,0.277 11.679,2.224 19.466,-0.556 11.188,-3.997 26.975,-5.841 31.98,-5.841 5.004,0 20.792,1.844 31.979,5.841 7.787,2.78 16.13,0.833 19.466,0.556 3.337,-0.278 13.348,3.614 22.248,0 8.898,-3.615 14.738,-6.397 17.241,-8.064 2.502,-1.669 6.042,-2.242 10.111,-0.844"
       style="fill:none;stroke:#231f20;stroke-width:0.75;stroke-linecap:round;stroke-linejoin:round;stroke-miterlimit:4;stroke-dasharray:0, 2;stroke-dashoffset:0;stroke-opacity:1"
       id="path912" />
    <path
       d="m 540.002,566.978 c -31.146,0 -52.558,7.508 -60.344,11.957 -7.787,4.449 -29.756,13.904 -33.926,15.573 -4.172,1.668 -10.29,4.171 -10.29,6.396 0,2.224 2.502,4.45 5.84,4.171 3.337,-0.278 13.904,0 24.471,-3.616 10.567,-3.614 23.969,-4.714 38.931,-8.62 15.15,-3.954 26.975,-4.106 35.318,-4.106 8.343,0 20.167,0.152 35.316,4.106 14.964,3.906 28.366,5.006 38.932,8.62 10.567,3.616 21.135,3.338 24.471,3.616 3.337,0.279 5.84,-1.947 5.84,-4.171 0,-2.225 -6.117,-4.728 -10.289,-6.396 -4.17,-1.669 -26.141,-11.124 -33.926,-15.573 -7.786,-4.449 -29.199,-11.957 -60.344,-11.957"
       style="fill:#d3d2d2;fill-opacity:1;fill-rule:nonzero;stroke:none;stroke-width:0.1"
       id="path914" />
    <path
       d="m 540.002,566.978 c -31.146,0 -52.558,7.508 -60.344,11.957 -7.787,4.449 -29.756,13.904 -33.926,15.573 -4.172,1.668 -10.29,4.171 -10.29,6.396 0,2.224 2.502,4.45 5.84,4.171 3.337,-0.278 13.904,0 24.471,-3.616 10.567,-3.614 23.969,-4.714 38.931,-8.62 15.15,-3.954 26.975,-4.106 35.318,-4.106 8.343,0 20.167,0.152 35.316,4.106 14.964,3.906 28.366,5.006 38.932,8.62 10.567,3.616 21.135,3.338 24.471,3.616 3.337,0.279 5.84,-1.947 5.84,-4.171 0,-2.225 -6.117,-4.728 -10.289,-6.396 -4.17,-1.669 -26.141,-11.124 -33.926,-15.573 -7.786,-4.449 -29.199,-11.957 -60.344,-11.957 z"
       style="fill:none;stroke:#231f20;stroke-width:0.75;stroke-linecap:round;stroke-linejoin:round;stroke-miterlimit:4;stroke-dasharray:0, 2;stroke-dashoffset:0;stroke-opacity:1"
       id="path916" />
    <path
       d="m 468.812,666.532 c 4.449,-2.503 25.027,-4.172 32.536,-3.893 7.508,0.277 31.98,-1.948 38.654,-1.948 6.673,0 31.145,2.225 38.654,1.948 7.509,-0.279 28.086,1.39 32.536,3.893"
       style="fill:none;stroke:#231f20;stroke-width:0.75;stroke-linecap:round;stroke-linejoin:round;stroke-miterlimit:4;stroke-dasharray:0, 2;stroke-dashoffset:0;stroke-opacity:1"
       id="path918" />
    <path
       d="m 655.685,724.651 c -1.013,-0.722 10.567,-18.075 21.412,-30.311 10.845,-12.236 41.435,-41.156 50.89,-48.108 9.455,-6.953 27.529,-22.525 28.921,-20.578 1.39,1.946 -14.46,15.294 -25.306,25.027 -10.845,9.733 -35.317,31.423 -42.547,38.653 -7.229,7.231 -17.519,18.077 -21.134,22.803 -3.615,4.729 -10.29,13.905 -12.236,12.514"
       style="fill:#b2b1b1;fill-opacity:1;fill-rule:nonzero;stroke:none;stroke-width:0.1"
       id="path920" />
    <path
       d="m 702.126,741.337 c -1.06,-1.06 27.251,-23.638 34.204,-30.59 6.951,-6.952 34.203,-28.92 35.594,-27.251 1.391,1.668 -29.755,26.418 -34.205,30.867 -4.449,4.449 -33.37,29.198 -35.593,26.974"
       style="fill:#b2b1b1;fill-opacity:1;fill-rule:nonzero;stroke:none;stroke-width:0.1"
       id="path922" />
    <path
       d="m 540.002,780.824 c -4.575,0 -30.589,0.835 -41.435,1.113 -10.846,0.277 -20.578,3.059 -20.578,3.059 8.064,5.283 24.198,4.929 31.98,5.562 7.839,0.636 23.359,1.39 30.033,1.39 6.673,0 22.193,-0.754 30.033,-1.39 7.782,-0.633 23.915,-0.279 31.98,-5.562 0,0 -9.732,-2.782 -20.579,-3.059 -10.845,-0.278 -36.859,-1.113 -41.434,-1.113"
       style="fill:#b2b1b1;fill-opacity:1;fill-rule:nonzero;stroke:none;stroke-width:0.1"
       id="path924" />
    <path
       d="m 424.319,724.651 c 1.012,-0.722 -10.568,-18.075 -21.412,-30.311 -10.846,-12.236 -41.436,-41.156 -50.89,-48.108 -9.455,-6.953 -27.531,-22.525 -28.921,-20.578 -1.39,1.946 14.46,15.294 25.305,25.027 10.846,9.733 35.317,31.423 42.548,38.653 7.229,7.231 17.518,18.077 21.134,22.803 3.615,4.729 10.289,13.905 12.236,12.514"
       style="fill:#b2b1b1;fill-opacity:1;fill-rule:nonzero;stroke:none;stroke-width:0.1"
       id="path926" />
    <path
       d="m 377.878,741.337 c 1.059,-1.06 -27.252,-23.638 -34.204,-30.59 -6.952,-6.952 -34.205,-28.92 -35.594,-27.251 -1.391,1.668 29.754,26.418 34.204,30.867 4.449,4.449 33.37,29.198 35.594,26.974"
       style="fill:#b2b1b1;fill-opacity:1;fill-rule:nonzero;stroke:none;stroke-width:0.1"
       id="path928" />
    <path
       d="m 540.002,713.25 c -3.615,0 -12.24,0 -25.032,0.556 -12.792,0.557 -23.355,-0.834 -41.43,-11.68 -18.077,-10.845 -26.697,-30.032 -33.371,-41.712 -6.674,-11.679 -21.968,-31.702 -29.754,-39.209 -7.788,-7.509 -15.574,-11.124 -16.408,-10.289 -0.835,0.834 8.343,10.01 14.183,17.24 5.839,7.229 20.3,25.862 33.37,46.44 13.07,20.578 20.856,31.98 33.37,38.376 12.514,6.396 33.623,7.446 39.766,7.368 6.39,-0.08 23.081,-1.251 25.306,-1.251 2.224,0 18.914,1.171 25.304,1.251 6.145,0.078 27.254,-0.972 39.768,-7.368 12.513,-6.396 20.3,-17.798 33.37,-38.376 13.07,-20.578 27.529,-39.211 33.37,-46.44 5.84,-7.23 15.017,-16.406 14.182,-17.24 -0.834,-0.835 -8.622,2.78 -16.408,10.289 -7.785,7.507 -23.08,27.53 -29.754,39.209 -6.674,11.68 -15.295,30.867 -33.37,41.712 -18.076,10.846 -28.639,12.237 -41.43,11.68 -12.793,-0.556 -21.417,-0.556 -25.032,-0.556"
       style="fill:#b2b1b1;fill-opacity:1;fill-rule:nonzero;stroke:none;stroke-width:0.1"
       id="path930" />
  </g>
</svg>
