<?xml version="1.0" encoding="UTF-8" standalone="no"?>
<!-- Created with Inkscape (http://www.inkscape.org/) -->

<svg
   version="1.1"
   id="svg2"
   width="1440"
   height="1344"
   viewBox="0 0 1440 1344"
   xmlns="http://www.w3.org/2000/svg"
   xmlns:svg="http://www.w3.org/2000/svg">
  <defs
     id="defs6" />
  <g
     id="g8">
    <path
       d="m 691.837,372.555 c -8.065,-2.503 -9.067,-8.558 -15.104,-15.29 -2.209,-2.463 -7.892,-8.124 -15.43,-12.559 -12.658,-6.477 -20.259,-9.04 -23.416,-10.248 -10.707,-4.103 -35.317,-6.674 -42.547,-7.23 -7.229,-0.557 -26.138,-6.118 -37.262,-6.675 -11.123,-0.556 -18.076,10.568 -18.076,10.568 0,0 -6.953,-11.124 -18.075,-10.568 -11.124,0.557 -30.034,6.118 -37.263,6.675 -7.231,0.556 -31.84,3.127 -42.547,7.23 -3.157,1.208 -10.758,3.771 -23.417,10.248 -7.538,4.435 -13.222,10.096 -15.431,12.559 -6.035,6.732 -7.037,12.787 -15.101,15.29 -8.064,2.503 -25.862,21.413 -30.868,41.156 -5.006,19.745 -6.395,43.938 13.349,71.19 19.744,27.252 52.558,46.997 81.2,32.814 0,0 2.503,4.728 10.011,3.059 7.509,-1.668 9.178,-2.78 12.236,-3.615 0,0 23.36,-6.396 27.252,-10.012 0,0 10.289,1.113 17.241,0 6.953,-1.111 13.071,-4.17 15.574,-5.005 2.502,-0.834 4.726,-1.111 5.839,-1.111 1.112,0 3.337,0.277 5.84,1.111 2.503,0.835 8.62,3.894 15.573,5.005 6.953,1.113 17.241,0 17.241,0 3.893,3.616 27.252,10.012 27.252,10.012 3.059,0.835 4.727,1.947 12.235,3.615 7.509,1.669 10.012,-3.059 10.012,-3.059 28.642,14.183 61.457,-5.562 81.2,-32.814 19.745,-27.252 18.353,-51.445 13.348,-71.19 -5.005,-19.743 -22.803,-38.653 -30.866,-41.156"
       style="fill:#ffffff;fill-opacity:1;fill-rule:nonzero;stroke:none;stroke-width:0.1"
       id="path672" />
    <path
       d="m 691.837,372.555 c -8.065,-2.503 -9.067,-8.558 -15.104,-15.29 -2.209,-2.463 -7.892,-8.124 -15.43,-12.559 -12.658,-6.477 -20.259,-9.04 -23.416,-10.248 -10.707,-4.103 -35.317,-6.674 -42.547,-7.23 -7.229,-0.557 -26.138,-6.118 -37.262,-6.675 -11.123,-0.556 -18.076,10.568 -18.076,10.568 0,0 -6.953,-11.124 -18.075,-10.568 -11.124,0.557 -30.034,6.118 -37.263,6.675 -7.231,0.556 -31.84,3.127 -42.547,7.23 -3.157,1.208 -10.758,3.771 -23.417,10.248 -7.538,4.435 -13.222,10.096 -15.431,12.559 -6.035,6.732 -7.037,12.787 -15.101,15.29 -8.064,2.503 -25.862,21.413 -30.868,41.156 -5.006,19.745 -6.395,43.938 13.349,71.19 19.744,27.252 52.558,46.997 81.2,32.814 0,0 2.503,4.728 10.011,3.059 7.509,-1.668 9.178,-2.78 12.236,-3.615 0,0 23.36,-6.396 27.252,-10.012 0,0 10.289,1.113 17.241,0 6.953,-1.111 13.071,-4.17 15.574,-5.005 2.502,-0.834 4.726,-1.111 5.839,-1.111 1.112,0 3.337,0.277 5.84,1.111 2.503,0.835 8.62,3.894 15.573,5.005 6.953,1.113 17.241,0 17.241,0 3.893,3.616 27.252,10.012 27.252,10.012 3.059,0.835 4.727,1.947 12.235,3.615 7.509,1.669 10.012,-3.059 10.012,-3.059 28.642,14.183 61.457,-5.562 81.2,-32.814 19.745,-27.252 18.353,-51.445 13.348,-71.19 -5.005,-19.743 -22.803,-38.653 -30.866,-41.156 z"
       style="fill:none;stroke:#231f20;stroke-width:0.75;stroke-linecap:round;stroke-linejoin:round;stroke-miterlimit:4;stroke-dasharray:none;stroke-opacity:1"
       id="path674" />
    <path
       d="m 587.269,325.869 c -1.975,-0.42 -2.773,-2.257 -2.494,-3.926 0.277,-1.667 2.78,-2.78 4.727,-1.946 1.946,0.835 2.223,2.225 2.223,3.615 0,1.39 -2.063,2.767 -4.456,2.257"
       style="fill:#ffffff;fill-opacity:1;fill-rule:nonzero;stroke:none;stroke-width:0.1"
       id="path676" />
    <path
       d="m 587.269,325.869 c -1.975,-0.42 -2.773,-2.257 -2.494,-3.926 0.277,-1.667 2.78,-2.78 4.727,-1.946 1.946,0.835 2.223,2.225 2.223,3.615 0,1.39 -2.063,2.767 -4.456,2.257 z"
       style="fill:none;stroke:#231f20;stroke-width:0.5;stroke-linecap:round;stroke-linejoin:round;stroke-miterlimit:4;stroke-dasharray:none;stroke-opacity:1"
       id="path678" />
    <path
       d="m 448.511,605.868 c -0.555,-2.503 -4.17,-8.899 -5.282,-14.46 -1.112,-5.561 -5.284,-8.62 3.059,-28.643 1.49,-3.576 6.117,-4.172 8.064,-4.727 0,0 -8.202,0.458 -12.374,-2.602 -4.172,-3.059 -2.166,-9.745 -1.392,-11.441 2.29,-5.019 7.37,-15.574 27.392,-23.36 0,0 8.621,-3.059 11.68,-3.892 3.059,-0.836 16.829,-6.183 20.021,-6.814 3.378,-0.668 14.184,-1.39 19.189,-1.946 5.006,-0.557 17.797,-2.78 21.134,-2.78 3.337,0 16.129,2.223 21.134,2.78 5.006,0.556 15.812,1.278 19.188,1.946 3.194,0.631 16.963,5.978 20.022,6.814 3.06,0.833 11.68,3.892 11.68,3.892 20.021,7.786 25.101,18.341 27.39,23.36 0.776,1.696 2.781,8.382 -1.389,11.441 -4.172,3.06 -12.375,2.602 -12.375,2.602 1.947,0.555 6.575,1.151 8.064,4.727 8.342,20.023 4.172,23.082 3.06,28.643 -1.113,5.561 -4.729,11.957 -5.283,14.46 -0.557,2.503 -1.391,11.124 -4.172,14.182 -2.782,3.06 -30.867,18.632 -47.552,24.749 -16.685,6.119 -29.769,11.402 -39.767,11.402 -10,0 -23.082,-5.283 -39.768,-11.402 -16.684,-6.117 -44.77,-21.689 -47.552,-24.749 -2.781,-3.058 -3.614,-11.679 -4.171,-14.182"
       style="fill:#ffffff;fill-opacity:1;fill-rule:nonzero;stroke:none;stroke-width:0.1"
       id="path680" />
    <path
       d="m 637.383,573.038 c 3.106,11.097 0.28,13.939 -0.607,18.37 -1.014,5.063 -4.101,10.818 -5.065,13.697 -0.961,2.425 -6.337,2.432 -9.117,1.875 -2.782,-0.556 -12.793,-1.112 -26.974,-3.893 -14.184,-2.781 -40.045,-4.728 -48.665,-4.728 -1.725,0 -4.161,0.045 -6.955,0.179 -2.792,-0.134 -5.228,-0.179 -6.954,-0.179 -8.619,0 -34.481,1.947 -48.664,4.728 -14.181,2.781 -24.192,3.337 -26.974,3.893 -2.774,0.556 -8.13,0.55 -9.11,-1.859 -0.959,-2.872 -4.054,-8.64 -5.069,-13.713 -0.886,-4.431 -3.714,-7.273 -0.609,-18.369 3.946,-3.599 7.561,-3.599 10.62,-4.434 3.058,-0.834 14.46,-1.668 20.022,-2.78 5.561,-1.114 24.194,1.389 32.257,2.502 8.065,1.113 28.921,-1.113 34.483,-1.39 5.562,0.277 26.417,2.503 34.483,1.39 8.064,-1.113 26.696,-3.616 32.257,-2.502 5.562,1.112 16.964,1.946 20.022,2.78 3.06,0.835 6.673,0.835 10.619,4.433"
       style="fill:#d3d2d2;fill-opacity:1;fill-rule:nonzero;stroke:none;stroke-width:0.1"
       id="path682" />
    <path
       d="m 492.735,325.869 c 1.975,-0.42 2.774,-2.257 2.495,-3.926 -0.277,-1.667 -2.78,-2.78 -4.727,-1.946 -1.946,0.835 -2.225,2.225 -2.225,3.615 0,1.39 2.064,2.767 4.457,2.257"
       style="fill:#ffffff;fill-opacity:1;fill-rule:nonzero;stroke:none;stroke-width:0.1"
       id="path684" />
    <path
       d="m 492.735,325.869 c 1.975,-0.42 2.774,-2.257 2.495,-3.926 -0.277,-1.667 -2.78,-2.78 -4.727,-1.946 -1.946,0.835 -2.225,2.225 -2.225,3.615 0,1.39 2.064,2.767 4.457,2.257 z"
       style="fill:none;stroke:#231f20;stroke-width:0.5;stroke-linecap:round;stroke-linejoin:round;stroke-miterlimit:4;stroke-dasharray:none;stroke-opacity:1"
       id="path686" />
    <path
       d="m 628.155,517.715 c -3.616,-2.503 -6.397,-9.732 -6.952,-13.348 -0.557,-3.616 1.112,-10.011 3.893,-6.118 0,0 2.78,8.898 21.134,10.846 18.354,1.947 35.317,-7.787 51.168,-25.584 15.852,-17.797 25.305,-44.216 18.354,-66.462 -6.954,-22.247 -18.076,-28.366 -23.36,-31.702 -5.283,-3.337 -11.492,-12.281 -3.521,-14.066"
       style="fill:none;stroke:#231f20;stroke-width:0.5;stroke-linecap:butt;stroke-linejoin:miter;stroke-miterlimit:4;stroke-dasharray:none;stroke-opacity:1"
       id="path688" />
    <path
       d="m 578.656,491.853 c 3.616,-0.834 13.723,-1.278 23.916,1.112 9.483,2.226 13.068,1.726 19.186,5.869"
       style="fill:none;stroke:#231f20;stroke-width:0.5;stroke-linecap:butt;stroke-linejoin:miter;stroke-miterlimit:4;stroke-dasharray:none;stroke-opacity:1"
       id="path690" />
    <path
       d="m 662.36,381.732 c -3.7,-0.285 -5.563,-4.171 -3.895,-8.62 1.669,-4.45 5.562,-8.899 11.402,-6.953 5.841,1.947 7.509,3.338 6.675,8.065 -0.834,4.728 -2.784,8.385 -14.182,7.508 z"
       style="fill:none;stroke:#231f20;stroke-width:0.5;stroke-linecap:butt;stroke-linejoin:miter;stroke-miterlimit:4;stroke-dasharray:none;stroke-opacity:1"
       id="path692" />
    <path
       d="m 454.352,558.038 c 10.011,-1.391 30.867,-4.171 40.878,-5.005 10.012,-0.835 37.264,-3.895 44.772,-4.451 7.508,0.556 34.761,3.616 44.773,4.451 10.01,0.834 30.865,3.614 40.877,5.005"
       style="fill:none;stroke:#231f20;stroke-width:0.5;stroke-linecap:butt;stroke-linejoin:miter;stroke-miterlimit:4;stroke-dasharray:none;stroke-opacity:1"
       id="path694" />
    <path
       d="m 540.002,587.792 c -4.451,0 -60.624,-3.893 -60.624,-5.839 0,-1.947 55.896,1.391 60.624,1.391 4.728,0 60.624,-3.338 60.624,-1.391 0,1.946 -56.173,5.839 -60.624,5.839"
       style="fill:#b2b1b1;fill-opacity:1;fill-rule:nonzero;stroke:none;stroke-width:0.1"
       id="path696" />
    <path
       d="m 501.348,507.147 c -0.912,-2.22 -2.78,-7.23 0,-15.294 2.781,-8.063 10.012,-15.017 20.3,-15.571 10.29,-0.558 17.241,12.512 18.354,15.294 1.112,-2.782 8.064,-15.852 18.354,-15.294 10.289,0.554 17.518,7.508 20.3,15.571 2.78,8.064 0.912,13.074 0,15.294"
       style="fill:none;stroke:#231f20;stroke-width:0.5;stroke-linecap:butt;stroke-linejoin:miter;stroke-miterlimit:4;stroke-dasharray:none;stroke-opacity:1"
       id="path698" />
    <path
       d="m 451.849,517.715 c 3.615,-2.503 6.397,-9.732 6.952,-13.348 0.556,-3.616 -1.111,-10.011 -3.893,-6.118 0,0 -2.781,8.898 -21.134,10.846 -18.354,1.947 -35.317,-7.787 -51.168,-25.584 -15.851,-17.797 -25.306,-44.216 -18.354,-66.462 6.953,-22.247 18.077,-28.366 23.359,-31.702 5.285,-3.337 11.493,-12.281 3.522,-14.066"
       style="fill:none;stroke:#231f20;stroke-width:0.5;stroke-linecap:butt;stroke-linejoin:miter;stroke-miterlimit:4;stroke-dasharray:none;stroke-opacity:1"
       id="path700" />
    <path
       d="m 501.348,491.853 c -3.615,-0.834 -13.723,-1.278 -23.915,1.112 -9.483,2.226 -13.069,1.726 -19.187,5.869"
       style="fill:none;stroke:#231f20;stroke-width:0.5;stroke-linecap:butt;stroke-linejoin:miter;stroke-miterlimit:4;stroke-dasharray:none;stroke-opacity:1"
       id="path702" />
    <path
       d="m 498.277,324.67 c -0.012,3.563 5.017,4.782 7.52,5.894 2.503,1.113 7.231,4.172 11.402,9.178 4.172,5.004 10.29,15.85 13.07,24.471 2.78,8.619 0.834,35.871 0.834,45.606 0,9.733 6.397,10.567 8.899,10.567 2.502,0 8.898,-0.834 8.898,-10.567 0,-9.735 -1.945,-36.987 0.835,-45.606 2.78,-8.621 8.899,-19.467 13.069,-24.471 4.172,-5.006 8.901,-8.065 11.403,-9.178 2.503,-1.112 7.532,-2.331 7.521,-5.894"
       style="fill:none;stroke:#231f20;stroke-width:0.5;stroke-linecap:butt;stroke-linejoin:miter;stroke-miterlimit:4;stroke-dasharray:none;stroke-opacity:1"
       id="path704" />
    <path
       d="m 417.645,381.732 c 3.699,-0.285 5.562,-4.171 3.893,-8.62 -1.668,-4.45 -5.562,-8.899 -11.402,-6.953 -5.839,1.947 -7.508,3.338 -6.674,8.065 0.835,4.728 2.784,8.385 14.183,7.508 z"
       style="fill:none;stroke:#231f20;stroke-width:0.5;stroke-linecap:butt;stroke-linejoin:miter;stroke-miterlimit:4;stroke-dasharray:none;stroke-opacity:1"
       id="path706" />
    <path
       d="m 540.002,441.798 c -5.562,0 -4.727,7.786 0,7.786 4.728,0 5.562,-7.786 0,-7.786"
       style="fill:#706d6e;fill-opacity:1;fill-rule:nonzero;stroke:none;stroke-width:0.1"
       id="path708" />
    <path
       d="m 540.002,441.798 c -5.562,0 -4.727,7.786 0,7.786 4.728,0 5.562,-7.786 0,-7.786 z"
       style="fill:none;stroke:#231f20;stroke-width:0.75;stroke-linecap:round;stroke-linejoin:round;stroke-miterlimit:4;stroke-dasharray:none;stroke-opacity:1"
       id="path710" />
    <path
       d="m 448.511,605.868 c -0.555,-2.503 -4.17,-8.899 -5.282,-14.46 -1.112,-5.561 -5.284,-8.62 3.059,-28.643 1.49,-3.576 6.117,-4.172 8.064,-4.727 0,0 -8.202,0.458 -12.374,-2.602 -4.172,-3.059 -2.166,-9.745 -1.392,-11.441 2.29,-5.019 7.37,-15.574 27.392,-23.36 0,0 8.621,-3.059 11.68,-3.892 3.059,-0.836 16.829,-6.183 20.021,-6.814 3.378,-0.668 14.184,-1.39 19.189,-1.946 5.006,-0.557 17.797,-2.78 21.134,-2.78 3.337,0 16.129,2.223 21.134,2.78 5.006,0.556 15.812,1.278 19.188,1.946 3.194,0.631 16.963,5.978 20.022,6.814 3.06,0.833 11.68,3.892 11.68,3.892 20.021,7.786 25.101,18.341 27.39,23.36 0.776,1.696 2.781,8.382 -1.389,11.441 -4.172,3.06 -12.375,2.602 -12.375,2.602 1.947,0.555 6.575,1.151 8.064,4.727 8.342,20.023 4.172,23.082 3.06,28.643 -1.113,5.561 -4.729,11.957 -5.283,14.46 -0.557,2.503 -1.391,11.124 -4.172,14.182 -2.782,3.06 -30.867,18.632 -47.552,24.749 -16.685,6.119 -29.769,11.402 -39.767,11.402 -10,0 -23.082,-5.283 -39.768,-11.402 -16.684,-6.117 -44.77,-21.689 -47.552,-24.749 -2.781,-3.058 -3.614,-11.679 -4.171,-14.182 z"
       style="fill:none;stroke:#231f20;stroke-width:0.75;stroke-linecap:round;stroke-linejoin:round;stroke-miterlimit:4;stroke-dasharray:none;stroke-opacity:1"
       id="path712" />
    <path
       d="m 579.158,471.065 c 2.149,0.357 4.693,1.126 6.898,-0.451 2.203,-1.582 4.63,-6.218 0.167,-8.36 -4.466,-2.138 -11.086,0.369 -11.813,4.614 -0.618,3.597 4.748,4.197 4.748,4.197 z"
       style="fill:none;stroke:#231f20;stroke-width:0.5;stroke-linecap:butt;stroke-linejoin:miter;stroke-miterlimit:4;stroke-dasharray:none;stroke-opacity:1"
       id="path714" />
    <path
       d="m 500.845,471.065 c -2.149,0.357 -4.692,1.126 -6.897,-0.451 -2.204,-1.582 -4.631,-6.218 -0.168,-8.36 4.466,-2.138 11.086,0.369 11.813,4.614 0.618,3.597 -4.748,4.197 -4.748,4.197 z"
       style="fill:none;stroke:#231f20;stroke-width:0.5;stroke-linecap:butt;stroke-linejoin:miter;stroke-miterlimit:4;stroke-dasharray:none;stroke-opacity:1"
       id="path716" />
    <path
       d="m 577.283,488.654 c 3.876,-4.587 11.105,-10.149 22.507,-6.812 11.403,3.338 16.686,7.508 18.632,9.454 0,0 7.001,6.564 -0.809,5.23"
       style="fill:none;stroke:#231f20;stroke-width:0.5;stroke-linecap:round;stroke-linejoin:round;stroke-miterlimit:4;stroke-dasharray:2.8, 1.8;stroke-dashoffset:0;stroke-opacity:1"
       id="path718" />
    <path
       d="m 574.047,483.892 c 4.887,-4.274 9.336,-6.499 16.567,-8.446 7.229,-1.946 13.347,-2.224 17.241,1.39 0,0 8.009,7.434 10.567,14.46"
       style="fill:none;stroke:#231f20;stroke-width:0.5;stroke-linecap:round;stroke-linejoin:round;stroke-miterlimit:4;stroke-dasharray:2.8, 1.8;stroke-dashoffset:0;stroke-opacity:1"
       id="path720" />
    <path
       d="m 625.096,498.249 c -0.835,-1.947 -4.727,-8.899 3.059,-16.962 5.681,-5.884 15.295,-14.74 27.253,-30.59 11.956,-15.851 18.869,-42.255 20.577,-49.777 1.621,-7.133 8.898,-17.519 16.407,-15.573"
       style="fill:none;stroke:#231f20;stroke-width:0.5;stroke-linecap:round;stroke-linejoin:round;stroke-miterlimit:4;stroke-dasharray:2.8, 1.8;stroke-dashoffset:0;stroke-opacity:1"
       id="path722" />
    <path
       d="m 574.207,335.013 c 3.72,-1.736 14.461,-6.379 16.686,-1.095 2.225,5.284 -8.066,6.935 -10.013,7.492 -1.946,0.555 -8.678,1.369 -10.845,1.946 -2.636,0.702 -5.562,1.947 -5.562,1.947 0,0 -2.78,-4.45 9.734,-10.29 z"
       style="fill:none;stroke:#231f20;stroke-width:0.5;stroke-linecap:round;stroke-linejoin:round;stroke-miterlimit:4;stroke-dasharray:2.8, 1.8;stroke-dashoffset:0;stroke-opacity:1"
       id="path724" />
    <path
       d="m 550.292,426.782 c 6.117,-0.279 14.46,-2.503 17.518,-25.029 3.061,-22.523 7.693,-42.918 18.909,-47.83 10.882,-4.766 18.366,-5.574 28.954,-5.727"
       style="fill:none;stroke:#231f20;stroke-width:0.5;stroke-linecap:round;stroke-linejoin:round;stroke-miterlimit:4;stroke-dasharray:2.8, 1.8;stroke-dashoffset:0;stroke-opacity:1"
       id="path726" />
    <path
       d="m 552.726,451.745 c -1.904,-0.592 -3.197,-1.824 -3.845,-2.717"
       style="fill:none;stroke:#231f20;stroke-width:0.5;stroke-linecap:round;stroke-linejoin:round;stroke-miterlimit:4;stroke-dasharray:2.8, 1.8;stroke-dashoffset:0;stroke-opacity:1"
       id="path728" />
    <path
       d="m 542.784,439.295 c -0.28,-2.502 0,-10.567 2.78,-11.679 2.781,-1.113 5.284,-1.391 8.898,0.556 3.616,1.947 7.764,5.295 9.177,7.23 3.6,4.925 2.503,10.011 -2.78,14.462 -0.597,0.503 -1.116,0.909 -1.708,1.226"
       style="fill:none;stroke:#231f20;stroke-width:0.5;stroke-linecap:round;stroke-linejoin:round;stroke-miterlimit:4;stroke-dasharray:2.8, 1.8;stroke-dashoffset:0;stroke-opacity:1"
       id="path730" />
    <path
       d="m 527.277,451.745 c 1.904,-0.592 3.198,-1.824 3.846,-2.717"
       style="fill:none;stroke:#231f20;stroke-width:0.5;stroke-linecap:round;stroke-linejoin:round;stroke-miterlimit:4;stroke-dasharray:2.8, 1.8;stroke-dashoffset:0;stroke-opacity:1"
       id="path732" />
    <path
       d="m 537.22,439.295 c 0.279,-2.502 0,-10.567 -2.78,-11.679 -2.782,-1.113 -5.285,-1.391 -8.898,0.556 -3.617,1.947 -7.765,5.295 -9.178,7.23 -3.599,4.925 -2.503,10.011 2.78,14.462 0.597,0.503 1.117,0.909 1.708,1.226"
       style="fill:none;stroke:#231f20;stroke-width:0.5;stroke-linecap:round;stroke-linejoin:round;stroke-miterlimit:4;stroke-dasharray:2.8, 1.8;stroke-dashoffset:0;stroke-opacity:1"
       id="path734" />
    <path
       d="m 601.758,469.854 c 1.926,-3.584 2.481,-8.034 -2.524,-11.371 -5.006,-3.337 -11.471,-6.952 -16.756,-5.839"
       style="fill:none;stroke:#231f20;stroke-width:0.5;stroke-linecap:round;stroke-linejoin:round;stroke-miterlimit:4;stroke-dasharray:2.8, 1.8;stroke-dashoffset:0;stroke-opacity:1"
       id="path736" />
    <path
       d="m 565.687,442.087 c 0.455,-1.308 0.891,-1.876 2.123,-2.792 2.022,-1.501 6.397,-0.833 8.344,0 1.946,0.834 6.118,6.118 6.673,10.846 0.556,4.728 -4.635,5.654 -7.509,6.118 -2.865,0.461 -7.188,-0.758 -9.702,-2.813 0,0 -3.516,-2.165 -4.137,-4.127"
       style="fill:none;stroke:#231f20;stroke-width:0.5;stroke-linecap:round;stroke-linejoin:round;stroke-miterlimit:4;stroke-dasharray:2.8, 1.8;stroke-dashoffset:0;stroke-opacity:1"
       id="path738" />
    <path
       d="m 582.81,451.528 c 6.135,-2.778 38.63,-17.876 66.202,-43.1 13.069,-11.957 24.842,-22.71 22.969,-27.577"
       style="fill:none;stroke:#231f20;stroke-width:0.5;stroke-linecap:round;stroke-linejoin:round;stroke-miterlimit:4;stroke-dasharray:2.8, 1.8;stroke-dashoffset:0;stroke-opacity:1"
       id="path740" />
    <path
       d="m 576.154,439.295 c 8.342,-2.224 20.021,-9.176 36.428,-23.081 16.408,-13.904 32.239,-30.566 35.855,-34.46"
       style="fill:none;stroke:#231f20;stroke-width:0.5;stroke-linecap:round;stroke-linejoin:round;stroke-miterlimit:4;stroke-dasharray:2.8, 1.8;stroke-dashoffset:0;stroke-opacity:1"
       id="path742" />
    <path
       d="m 630.075,400.336 c -1.642,3.643 -0.531,10.872 5.033,10.317 5.56,-0.557 8.619,-2.225 10.844,-7.509 2.224,-5.283 -2.144,-12.988 -8.719,-9.832"
       style="fill:none;stroke:#231f20;stroke-width:0.5;stroke-linecap:round;stroke-linejoin:round;stroke-miterlimit:4;stroke-dasharray:2.8, 1.8;stroke-dashoffset:0;stroke-opacity:1"
       id="path744" />
    <path
       d="m 657.9,375.438 c -3.614,3.338 -8.888,7.685 -12.782,6.294 -3.893,-1.391 -15.851,-10.289 -20.857,-13.349 -5.005,-3.058 -12.513,-5.282 -12.513,-11.123 0,-5.84 4.728,-10.289 7.508,-12.235 2.782,-1.946 6.674,-5.283 15.017,-0.834 8.342,4.449 17.242,11.401 20.3,14.182 3.058,2.781 10.29,6.952 12.513,7.23"
       style="fill:none;stroke:#231f20;stroke-width:0.5;stroke-linecap:round;stroke-linejoin:round;stroke-miterlimit:4;stroke-dasharray:2.8, 1.8;stroke-dashoffset:0;stroke-opacity:1"
       id="path746" />
    <path
       d="m 647.224,383.01 c 0.397,2.337 4.012,5.118 9.296,5.118 5.283,0 12.989,-0.436 15.345,-4.39"
       style="fill:none;stroke:#231f20;stroke-width:0.5;stroke-linecap:round;stroke-linejoin:round;stroke-miterlimit:4;stroke-dasharray:2.8, 1.8;stroke-dashoffset:0;stroke-opacity:1"
       id="path748" />
    <path
       d="m 668.149,365.761 c -2.836,-0.713 -6.902,-5.719 -11.073,-8.779 -4.171,-3.059 -16.327,-13.019 -15.295,-14.737 1.669,-2.783 8.621,3.058 15.573,7.506 6.952,4.451 13.07,8.344 16.963,11.125 3.893,2.781 5.56,5.005 4.727,6.395 -0.834,1.391 -2.64,1.786 -4.693,0.778"
       style="fill:none;stroke:#231f20;stroke-width:0.5;stroke-linecap:round;stroke-linejoin:round;stroke-miterlimit:4;stroke-dasharray:2.8, 1.8;stroke-dashoffset:0;stroke-opacity:1"
       id="path750" />
    <path
       d="m 502.722,488.654 c -3.877,-4.587 -11.106,-10.149 -22.508,-6.812 -11.402,3.338 -16.685,7.508 -18.631,9.454 0,0 -7.001,6.564 0.809,5.23"
       style="fill:none;stroke:#231f20;stroke-width:0.5;stroke-linecap:round;stroke-linejoin:round;stroke-miterlimit:4;stroke-dasharray:2.8, 1.8;stroke-dashoffset:0;stroke-opacity:1"
       id="path752" />
    <path
       d="m 505.957,483.892 c -4.887,-4.274 -9.336,-6.499 -16.566,-8.446 -7.23,-1.946 -13.349,-2.224 -17.242,1.39 0,0 -8.009,7.434 -10.566,14.46"
       style="fill:none;stroke:#231f20;stroke-width:0.5;stroke-linecap:round;stroke-linejoin:round;stroke-miterlimit:4;stroke-dasharray:2.8, 1.8;stroke-dashoffset:0;stroke-opacity:1"
       id="path754" />
    <path
       d="m 439.057,467.938 c 11.124,-0.834 46.718,2.503 57.008,3.615 10.289,1.113 21.626,5.281 25.583,4.729 3.958,-0.554 13.904,-1.948 18.354,-2.782 4.451,0.834 14.396,2.228 18.354,2.782 3.957,0.552 15.295,-3.616 25.583,-4.729 10.289,-1.112 45.885,-4.449 57.008,-3.615"
       style="fill:none;stroke:#231f20;stroke-width:0.5;stroke-linecap:round;stroke-linejoin:round;stroke-miterlimit:4;stroke-dasharray:2.8, 1.8;stroke-dashoffset:0;stroke-opacity:1"
       id="path756" />
    <path
       d="m 454.908,498.249 c 0.835,-1.947 4.728,-8.899 -3.059,-16.962 -5.681,-5.884 -15.295,-14.74 -27.252,-30.59 -11.958,-15.851 -18.87,-42.255 -20.578,-49.777 -1.621,-7.133 -8.899,-17.519 -16.408,-15.573"
       style="fill:none;stroke:#231f20;stroke-width:0.5;stroke-linecap:round;stroke-linejoin:round;stroke-miterlimit:4;stroke-dasharray:2.8, 1.8;stroke-dashoffset:0;stroke-opacity:1"
       id="path758" />
    <path
       d="m 505.797,335.013 c -3.719,-1.736 -14.462,-6.379 -16.686,-1.095 -2.225,5.284 8.065,6.935 10.013,7.492 1.946,0.555 8.678,1.369 10.845,1.946 2.636,0.702 5.562,1.947 5.562,1.947 0,0 2.781,-4.45 -9.734,-10.29 z"
       style="fill:none;stroke:#231f20;stroke-width:0.5;stroke-linecap:round;stroke-linejoin:round;stroke-miterlimit:4;stroke-dasharray:2.8, 1.8;stroke-dashoffset:0;stroke-opacity:1"
       id="path760" />
    <path
       d="m 529.713,426.782 c -6.119,-0.279 -14.461,-2.503 -17.519,-25.029 -3.06,-22.523 -7.694,-42.918 -18.91,-47.83 -10.882,-4.766 -18.365,-5.574 -28.952,-5.727"
       style="fill:none;stroke:#231f20;stroke-width:0.5;stroke-linecap:round;stroke-linejoin:round;stroke-miterlimit:4;stroke-dasharray:2.8, 1.8;stroke-dashoffset:0;stroke-opacity:1"
       id="path762" />
    <path
       d="m 540.002,439.295 c 0,0 -1.39,0 -2.781,0 -1.389,0 -6.118,3.615 -6.118,8.899 0,7.786 4.449,7.786 8.899,7.786 4.451,0 8.898,0 8.898,-7.786 0,-5.284 -4.727,-8.899 -6.116,-8.899 -1.392,0 -2.782,0 -2.782,0 z"
       style="fill:none;stroke:#231f20;stroke-width:0.5;stroke-linecap:round;stroke-linejoin:round;stroke-miterlimit:4;stroke-dasharray:2.8, 1.8;stroke-dashoffset:0;stroke-opacity:1"
       id="path764" />
    <path
       d="m 478.247,469.854 c -1.926,-3.584 -2.483,-8.034 2.523,-11.371 5.005,-3.337 11.472,-6.952 16.755,-5.839"
       style="fill:none;stroke:#231f20;stroke-width:0.5;stroke-linecap:round;stroke-linejoin:round;stroke-miterlimit:4;stroke-dasharray:2.8, 1.8;stroke-dashoffset:0;stroke-opacity:1"
       id="path766" />
    <path
       d="m 514.317,442.087 c -0.454,-1.308 -0.89,-1.876 -2.123,-2.792 -2.022,-1.501 -6.397,-0.833 -8.343,0 -1.946,0.834 -6.118,6.118 -6.675,10.846 -0.555,4.728 4.636,5.654 7.509,6.118 2.866,0.461 7.188,-0.758 9.703,-2.813 0,0 3.517,-2.165 4.137,-4.127"
       style="fill:none;stroke:#231f20;stroke-width:0.5;stroke-linecap:round;stroke-linejoin:round;stroke-miterlimit:4;stroke-dasharray:2.8, 1.8;stroke-dashoffset:0;stroke-opacity:1"
       id="path768" />
    <path
       d="m 497.194,451.528 c -6.134,-2.778 -38.63,-17.876 -66.201,-43.1 -13.07,-11.957 -24.842,-22.71 -22.969,-27.577"
       style="fill:none;stroke:#231f20;stroke-width:0.5;stroke-linecap:round;stroke-linejoin:round;stroke-miterlimit:4;stroke-dasharray:2.8, 1.8;stroke-dashoffset:0;stroke-opacity:1"
       id="path770" />
    <path
       d="m 503.851,439.295 c -8.342,-2.224 -20.022,-9.176 -36.429,-23.081 -16.407,-13.904 -32.239,-30.566 -35.854,-34.46"
       style="fill:none;stroke:#231f20;stroke-width:0.5;stroke-linecap:round;stroke-linejoin:round;stroke-miterlimit:4;stroke-dasharray:2.8, 1.8;stroke-dashoffset:0;stroke-opacity:1"
       id="path772" />
    <path
       d="m 449.929,400.336 c 1.643,3.643 0.529,10.872 -5.032,10.317 -5.562,-0.557 -8.62,-2.225 -10.846,-7.509 -2.224,-5.283 2.145,-12.988 8.72,-9.832"
       style="fill:none;stroke:#231f20;stroke-width:0.5;stroke-linecap:round;stroke-linejoin:round;stroke-miterlimit:4;stroke-dasharray:2.8, 1.8;stroke-dashoffset:0;stroke-opacity:1"
       id="path774" />
    <path
       d="m 422.104,375.438 c 3.615,3.338 8.889,7.685 12.782,6.294 3.893,-1.391 15.851,-10.289 20.857,-13.349 5.005,-3.058 12.513,-5.282 12.513,-11.123 0,-5.84 -4.727,-10.289 -7.508,-12.235 -2.781,-1.946 -6.674,-5.283 -15.016,-0.834 -8.343,4.449 -17.242,11.401 -20.301,14.182 -3.058,2.781 -10.289,6.952 -12.513,7.23"
       style="fill:none;stroke:#231f20;stroke-width:0.5;stroke-linecap:round;stroke-linejoin:round;stroke-miterlimit:4;stroke-dasharray:2.8, 1.8;stroke-dashoffset:0;stroke-opacity:1"
       id="path776" />
    <path
       d="m 432.78,383.01 c -0.397,2.337 -4.011,5.118 -9.296,5.118 -5.283,0 -12.988,-0.436 -15.345,-4.39"
       style="fill:none;stroke:#231f20;stroke-width:0.5;stroke-linecap:round;stroke-linejoin:round;stroke-miterlimit:4;stroke-dasharray:2.8, 1.8;stroke-dashoffset:0;stroke-opacity:1"
       id="path778" />
    <path
       d="m 411.855,365.761 c 2.837,-0.713 6.902,-5.719 11.073,-8.779 4.172,-3.059 16.327,-13.019 15.295,-14.737 -1.669,-2.783 -8.621,3.058 -15.572,7.506 -6.952,4.451 -13.07,8.344 -16.964,11.125 -3.893,2.781 -5.561,5.005 -4.727,6.395 0.834,1.391 2.639,1.786 4.693,0.778"
       style="fill:none;stroke:#231f20;stroke-width:0.5;stroke-linecap:round;stroke-linejoin:round;stroke-miterlimit:4;stroke-dasharray:2.8, 1.8;stroke-dashoffset:0;stroke-opacity:1"
       id="path780" />
    <path
       d="m 545.842,502.142 c -0.556,-2.225 4.727,-19.465 16.128,-18.075 11.402,1.391 15.017,11.124 15.017,14.461 0,3.337 -1.909,8.124 -2.206,8.929"
       style="fill:none;stroke:#231f20;stroke-width:0.5;stroke-linecap:round;stroke-linejoin:round;stroke-miterlimit:4;stroke-dasharray:2.8, 1.8;stroke-dashoffset:0;stroke-opacity:1"
       id="path782" />
    <path
       d="m 534.163,502.142 c 0.555,-2.225 -4.728,-19.465 -16.129,-18.075 -11.403,1.391 -15.017,11.124 -15.017,14.461 0,3.337 1.909,8.124 2.206,8.929"
       style="fill:none;stroke:#231f20;stroke-width:0.5;stroke-linecap:round;stroke-linejoin:round;stroke-miterlimit:4;stroke-dasharray:2.8, 1.8;stroke-dashoffset:0;stroke-opacity:1"
       id="path784" />
    <path
       d="m 576.061,425.854 c 1.077,-1.438 5.839,0.371 3.985,3.244 -2.025,3.141 -5.098,-1.76 -3.985,-3.244 z"
       style="fill:none;stroke:#231f20;stroke-width:0.5;stroke-linecap:round;stroke-linejoin:round;stroke-miterlimit:4;stroke-dasharray:2.8, 1.8;stroke-dashoffset:0;stroke-opacity:1"
       id="path786" />
    <path
       d="m 503.944,425.854 c -1.079,-1.438 -5.84,0.371 -3.986,3.244 2.026,3.141 5.098,-1.76 3.986,-3.244 z"
       style="fill:none;stroke:#231f20;stroke-width:0.5;stroke-linecap:round;stroke-linejoin:round;stroke-miterlimit:4;stroke-dasharray:2.8, 1.8;stroke-dashoffset:0;stroke-opacity:1"
       id="path788" />
    <path
       d="m 553.034,474.932 c 0.763,-1.967 1.728,-4.995 5.181,-5.311 3.453,-0.32 14.124,0.041 16.655,-0.412"
       style="fill:none;stroke:#231f20;stroke-width:0.5;stroke-linecap:round;stroke-linejoin:round;stroke-miterlimit:4;stroke-dasharray:2.8, 1.8;stroke-dashoffset:0;stroke-opacity:1"
       id="path790" />
    <path
       d="m 558.526,460.062 c 2.686,-0.188 9.54,-1.455 7.934,-5.148 -1.613,-3.692 -7.183,-3.834 -8.389,-3.885 -1.205,-0.053 -8.275,0.11 -8.431,3.824 -0.158,3.712 5.498,5.446 8.886,5.209 z"
       style="fill:none;stroke:#231f20;stroke-width:0.5;stroke-linecap:round;stroke-linejoin:round;stroke-miterlimit:4;stroke-dasharray:2.8, 1.8;stroke-dashoffset:0;stroke-opacity:1"
       id="path792" />
    <path
       d="m 557.853,469.666 c -2.811,0.19 -10.355,-1.616 -10.252,-6.255 0.107,-4.644 4.63,-4.579 4.63,-4.579"
       style="fill:none;stroke:#231f20;stroke-width:0.5;stroke-linecap:round;stroke-linejoin:round;stroke-miterlimit:4;stroke-dasharray:2.8, 1.8;stroke-dashoffset:0;stroke-opacity:1"
       id="path794" />
    <path
       d="m 559.154,469.558 c 1.486,-0.051 5.384,-2.178 5.213,-4.787 -0.168,-2.611 -2.557,-4.712 -3.581,-5.008"
       style="fill:none;stroke:#231f20;stroke-width:0.5;stroke-linecap:round;stroke-linejoin:round;stroke-miterlimit:4;stroke-dasharray:2.8, 1.8;stroke-dashoffset:0;stroke-opacity:1"
       id="path796" />
    <path
       d="m 577.142,463.075 c -0.955,-0.871 -2.995,-5.144 -3.352,-6.69"
       style="fill:none;stroke:#231f20;stroke-width:0.5;stroke-linecap:round;stroke-linejoin:round;stroke-miterlimit:4;stroke-dasharray:2.8, 1.8;stroke-dashoffset:0;stroke-opacity:1"
       id="path798" />
    <path
       d="m 586.223,462.254 c 0.895,-3.585 2.609,-5.311 8.799,-6.372"
       style="fill:none;stroke:#231f20;stroke-width:0.5;stroke-linecap:round;stroke-linejoin:round;stroke-miterlimit:4;stroke-dasharray:2.8, 1.8;stroke-dashoffset:0;stroke-opacity:1"
       id="path800" />
    <path
       d="m 526.969,474.932 c -0.762,-1.967 -1.728,-4.995 -5.18,-5.311 -3.453,-0.32 -14.125,0.041 -16.655,-0.412"
       style="fill:none;stroke:#231f20;stroke-width:0.5;stroke-linecap:round;stroke-linejoin:round;stroke-miterlimit:4;stroke-dasharray:2.8, 1.8;stroke-dashoffset:0;stroke-opacity:1"
       id="path802" />
    <path
       d="m 521.477,460.062 c -2.686,-0.188 -9.539,-1.455 -7.933,-5.148 1.612,-3.692 7.182,-3.834 8.388,-3.885 1.205,-0.053 8.275,0.11 8.431,3.824 0.158,3.712 -5.498,5.446 -8.886,5.209 z"
       style="fill:none;stroke:#231f20;stroke-width:0.5;stroke-linecap:round;stroke-linejoin:round;stroke-miterlimit:4;stroke-dasharray:2.8, 1.8;stroke-dashoffset:0;stroke-opacity:1"
       id="path804" />
    <path
       d="m 522.15,469.666 c 2.81,0.19 10.355,-1.616 10.252,-6.255 -0.106,-4.644 -4.63,-4.579 -4.63,-4.579"
       style="fill:none;stroke:#231f20;stroke-width:0.5;stroke-linecap:round;stroke-linejoin:round;stroke-miterlimit:4;stroke-dasharray:2.8, 1.8;stroke-dashoffset:0;stroke-opacity:1"
       id="path806" />
    <path
       d="m 520.85,469.558 c -1.487,-0.051 -5.384,-2.178 -5.214,-4.787 0.169,-2.611 2.557,-4.712 3.581,-5.008"
       style="fill:none;stroke:#231f20;stroke-width:0.5;stroke-linecap:round;stroke-linejoin:round;stroke-miterlimit:4;stroke-dasharray:2.8, 1.8;stroke-dashoffset:0;stroke-opacity:1"
       id="path808" />
    <path
       d="m 502.861,463.075 c 0.955,-0.871 2.995,-5.144 3.352,-6.69"
       style="fill:none;stroke:#231f20;stroke-width:0.5;stroke-linecap:round;stroke-linejoin:round;stroke-miterlimit:4;stroke-dasharray:2.8, 1.8;stroke-dashoffset:0;stroke-opacity:1"
       id="path810" />
    <path
       d="m 493.78,462.254 c -0.895,-3.585 -2.609,-5.311 -8.799,-6.372"
       style="fill:none;stroke:#231f20;stroke-width:0.5;stroke-linecap:round;stroke-linejoin:round;stroke-miterlimit:4;stroke-dasharray:2.8, 1.8;stroke-dashoffset:0;stroke-opacity:1"
       id="path812" />
    <path
       d="m 448.291,605.105 c 0.961,2.425 6.336,2.432 9.117,1.875 2.782,-0.556 12.793,-1.112 26.974,-3.893 14.183,-2.781 40.045,-4.728 48.664,-4.728 1.726,0 4.162,0.045 6.954,0.179 2.794,-0.134 5.23,-0.179 6.955,-0.179 8.62,0 34.481,1.947 48.665,4.728 14.181,2.781 24.192,3.337 26.974,3.893 2.78,0.557 8.156,0.55 9.117,-1.875"
       style="fill:none;stroke:#231f20;stroke-width:0.75;stroke-linecap:round;stroke-linejoin:round;stroke-miterlimit:4;stroke-dasharray:0, 2;stroke-dashoffset:0;stroke-opacity:1"
       id="path814" />
    <path
       d="m 540,618.088 c -6.982,0.32 -13.356,0.114 -16.407,0.016 -8.621,-0.278 -22.803,-1.947 -23.36,3.337 -0.555,5.283 13.35,20.022 39.767,22.525 26.419,-2.503 40.324,-17.242 39.769,-22.525 -0.557,-5.284 -14.739,-3.615 -23.36,-3.337 -3.051,0.098 -9.425,0.304 -16.409,-0.016"
       style="fill:#d3d2d2;fill-opacity:1;fill-rule:nonzero;stroke:none;stroke-width:0.1"
       id="path816" />
    <path
       d="m 540,618.088 c -6.982,0.32 -13.356,0.114 -16.407,0.016 -8.621,-0.278 -22.803,-1.947 -23.36,3.337 -0.555,5.283 13.35,20.022 39.767,22.525 26.419,-2.503 40.324,-17.242 39.769,-22.525 -0.557,-5.284 -14.739,-3.615 -23.36,-3.337 -3.051,0.098 -9.425,0.304 -16.409,-0.016 z"
       style="fill:none;stroke:#231f20;stroke-width:0.75;stroke-linecap:round;stroke-linejoin:round;stroke-miterlimit:4;stroke-dasharray:0, 2;stroke-dashoffset:0;stroke-opacity:1"
       id="path818" />
    <path
       d="m 442.62,573.039 c 3.946,-3.599 7.561,-3.599 10.62,-4.434 3.058,-0.834 14.46,-1.668 20.022,-2.78 5.561,-1.114 24.194,1.389 32.257,2.502 8.065,1.113 28.921,-1.113 34.483,-1.39 5.562,0.277 26.417,2.503 34.483,1.39 8.064,-1.113 26.696,-3.616 32.257,-2.502 5.562,1.112 16.964,1.946 20.022,2.78 3.06,0.835 6.675,0.835 10.621,4.434"
       style="fill:none;stroke:#231f20;stroke-width:0.75;stroke-linecap:round;stroke-linejoin:round;stroke-miterlimit:4;stroke-dasharray:0, 2;stroke-dashoffset:0;stroke-opacity:1"
       id="path820" />
    <path
       d="m 540.002,517.994 c -5.562,0 -15.851,0.554 -25.028,2.503 -9.177,1.946 -29.755,5.839 -40.878,7.786 -11.124,1.946 -15.573,8.064 -15.295,10.844 0.279,2.782 2.225,6.398 6.952,6.398 4.728,0 13.905,-0.279 30.312,-2.226 16.407,-1.946 35.595,-2.78 43.937,-2.78 8.343,0 27.531,0.834 43.937,2.78 16.407,1.947 25.585,2.226 30.311,2.226 4.728,0 6.675,-3.616 6.953,-6.398 0.278,-2.78 -4.171,-8.898 -15.295,-10.844 -11.123,-1.947 -31.701,-5.84 -40.878,-7.786 -9.176,-1.949 -19.466,-2.503 -25.028,-2.503"
       style="fill:#d3d2d2;fill-opacity:1;fill-rule:nonzero;stroke:none;stroke-width:0.1"
       id="path822" />
    <path
       d="m 540.002,517.994 c -5.562,0 -15.851,0.554 -25.028,2.503 -9.177,1.946 -29.755,5.839 -40.878,7.786 -11.124,1.946 -15.573,8.064 -15.295,10.844 0.279,2.782 2.225,6.398 6.952,6.398 4.728,0 13.905,-0.279 30.312,-2.226 16.407,-1.946 35.595,-2.78 43.937,-2.78 8.343,0 27.531,0.834 43.937,2.78 16.407,1.947 25.585,2.226 30.311,2.226 4.728,0 6.675,-3.616 6.953,-6.398 0.278,-2.78 -4.171,-8.898 -15.295,-10.844 -11.123,-1.947 -31.701,-5.84 -40.878,-7.786 -9.176,-1.949 -19.466,-2.503 -25.028,-2.503 z"
       style="fill:none;stroke:#231f20;stroke-width:0.75;stroke-linecap:round;stroke-linejoin:round;stroke-miterlimit:4;stroke-dasharray:0, 2;stroke-dashoffset:0;stroke-opacity:1"
       id="path824" />
  </g>
</svg>
