<?xml version="1.0" encoding="UTF-8" standalone="no"?>
<!-- Created with Inkscape (http://www.inkscape.org/) -->

<svg
   version="1.1"
   id="svg2"
   width="1440"
   height="1344"
   viewBox="0 0 1440 1344"
   xmlns="http://www.w3.org/2000/svg"
   xmlns:svg="http://www.w3.org/2000/svg">
  <defs
     id="defs6" />
  <g
     id="g8">
    <path
       d="m 685.44,353.382 c 0,0 2.503,-1.391 -1.111,-4.449 -3.616,-3.059 -12.237,-5.841 -18.632,-6.396"
       style="fill:#ffffff;fill-opacity:1;fill-rule:nonzero;stroke:none;stroke-width:0.1"
       id="path672" />
    <path
       d="m 685.44,353.382 c 0,0 2.503,-1.391 -1.111,-4.449 -3.616,-3.059 -12.237,-5.841 -18.632,-6.396"
       style="fill:none;stroke:#231f20;stroke-width:0.5;stroke-linecap:butt;stroke-linejoin:miter;stroke-miterlimit:4;stroke-dasharray:none;stroke-opacity:1"
       id="path674" />
    <path
       d="m 414.308,342.537 c -6.396,0.555 -15.016,3.337 -18.632,6.396 -3.615,3.058 -1.112,4.449 -1.112,4.449"
       style="fill:#ffffff;fill-opacity:1;fill-rule:nonzero;stroke:none;stroke-width:0.1"
       id="path676" />
    <path
       d="m 414.308,342.537 c -6.396,0.555 -15.016,3.337 -18.632,6.396 -3.615,3.058 -1.112,4.449 -1.112,4.449"
       style="fill:none;stroke:#231f20;stroke-width:0.5;stroke-linecap:butt;stroke-linejoin:miter;stroke-miterlimit:4;stroke-dasharray:none;stroke-opacity:1"
       id="path678" />
    <path
       d="m 665.697,342.537 c 0,0 -9.177,-5.005 -19.188,-8.065 -10.011,-3.058 -23.082,-4.449 -30.869,-6.952 -7.785,-2.503 -21.967,-8.413 -30.31,-9.803 -8.343,-1.39 -19.704,-1.669 -28.643,-1.669 -10.567,0 -13.834,6.534 -16.685,6.534 -2.85,0 -6.118,-6.534 -16.685,-6.534 -8.938,0 -20.3,0.279 -28.643,1.669 -8.342,1.39 -22.525,7.3 -30.311,9.803 -7.786,2.503 -20.857,3.894 -30.867,6.952 -10.012,3.06 -19.188,8.065 -19.188,8.065 0,0 -14.46,7.229 -19.744,10.845 -2.225,1.39 -6.953,6.952 -10.011,9.732 -3.058,2.781 -8.343,8.621 -11.401,13.904 -3.06,5.283 -12.236,14.461 -15.295,17.797 -3.06,3.339 -6.118,8.344 -9.732,16.13 -3.616,7.786 -5.841,17.797 -5.841,34.204 0,16.407 3.338,42.269 25.027,61.734 21.691,19.466 40.601,25.864 47.274,26.141 6.675,0.277 9.735,-1.669 9.735,-1.669 4.1,0.557 6.534,3.06 12.418,3.205 4.456,0.11 9.365,-0.92 14.092,-0.979 3.336,-1.483 25.212,-12.978 37.078,-15.204 11.864,-2.223 31.516,-7.043 36.336,-8.898 0,0 10.968,-5.807 12.977,-9.825 0.834,-1.669 1.947,-1.946 2.781,-1.946 0.834,0 1.948,0.277 2.782,1.946 2.008,4.018 12.977,9.825 12.977,9.825 4.82,1.855 24.47,6.675 36.335,8.898 11.865,2.226 33.74,13.721 37.078,15.204 4.727,0.059 9.636,1.089 14.092,0.979 5.885,-0.145 8.316,-2.648 12.419,-3.205 0,0 3.06,1.946 9.733,1.669 6.674,-0.277 25.584,-6.675 47.274,-26.141 21.691,-19.465 25.027,-45.327 25.027,-61.734 0,-16.407 -2.223,-26.418 -5.839,-34.204 -3.615,-7.786 -6.674,-12.791 -9.732,-16.13 -3.06,-3.336 -12.236,-12.514 -15.296,-17.797 -3.058,-5.283 -8.342,-11.123 -11.401,-13.904 -3.059,-2.78 -7.785,-8.342 -10.011,-9.732 -5.283,-3.616 -19.743,-10.845 -19.743,-10.845"
       style="fill:#ffffff;fill-opacity:1;fill-rule:nonzero;stroke:none;stroke-width:0.1"
       id="path680" />
    <path
       d="m 665.697,342.537 c 0,0 -9.177,-5.005 -19.188,-8.065 -10.011,-3.058 -23.082,-4.449 -30.869,-6.952 -7.785,-2.503 -21.967,-8.413 -30.31,-9.803 -8.343,-1.39 -19.704,-1.669 -28.643,-1.669 -10.567,0 -13.834,6.534 -16.685,6.534 -2.85,0 -6.118,-6.534 -16.685,-6.534 -8.938,0 -20.3,0.279 -28.643,1.669 -8.342,1.39 -22.525,7.3 -30.311,9.803 -7.786,2.503 -20.857,3.894 -30.867,6.952 -10.012,3.06 -19.188,8.065 -19.188,8.065 0,0 -14.46,7.229 -19.744,10.845 -2.225,1.39 -6.953,6.952 -10.011,9.732 -3.058,2.781 -8.343,8.621 -11.401,13.904 -3.06,5.283 -12.236,14.461 -15.295,17.797 -3.06,3.339 -6.118,8.344 -9.732,16.13 -3.616,7.786 -5.841,17.797 -5.841,34.204 0,16.407 3.338,42.269 25.027,61.734 21.691,19.466 40.601,25.864 47.274,26.141 6.675,0.277 9.735,-1.669 9.735,-1.669 4.1,0.557 6.534,3.06 12.418,3.205 4.456,0.11 9.365,-0.92 14.092,-0.979 3.336,-1.483 25.212,-12.978 37.078,-15.204 11.864,-2.223 31.516,-7.043 36.336,-8.898 0,0 10.968,-5.807 12.977,-9.825 0.834,-1.669 1.947,-1.946 2.781,-1.946 0.834,0 1.948,0.277 2.782,1.946 2.008,4.018 12.977,9.825 12.977,9.825 4.82,1.855 24.47,6.675 36.335,8.898 11.865,2.226 33.74,13.721 37.078,15.204 4.727,0.059 9.636,1.089 14.092,0.979 5.885,-0.145 8.316,-2.648 12.419,-3.205 0,0 3.06,1.946 9.733,1.669 6.674,-0.277 25.584,-6.675 47.274,-26.141 21.691,-19.465 25.027,-45.327 25.027,-61.734 0,-16.407 -2.223,-26.418 -5.839,-34.204 -3.615,-7.786 -6.674,-12.791 -9.732,-16.13 -3.06,-3.336 -12.236,-12.514 -15.296,-17.797 -3.058,-5.283 -8.342,-11.123 -11.401,-13.904 -3.059,-2.78 -7.785,-8.342 -10.011,-9.732 -5.283,-3.616 -19.743,-10.845 -19.743,-10.845 z"
       style="fill:none;stroke:#231f20;stroke-width:0.75;stroke-linecap:round;stroke-linejoin:round;stroke-miterlimit:4;stroke-dasharray:none;stroke-opacity:1"
       id="path682" />
    <path
       d="m 681.455,583.635 c -9.271,8.529 -24.101,42.27 -27.809,51.538 0,0 -5.562,12.978 2.596,14.832 8.157,1.854 18.168,0.37 30.033,-6.303 11.864,-6.674 25.213,-19.652 31.517,-39.673 6.302,-20.023 -1.485,-30.404 -10.753,-31.888 -9.27,-1.482 -17.455,2.352 -25.584,11.494"
       style="fill:#ffffff;fill-opacity:1;fill-rule:nonzero;stroke:none;stroke-width:0.1"
       id="path684" />
    <path
       d="m 681.455,583.635 c -9.271,8.529 -24.101,42.27 -27.809,51.538 0,0 -5.562,12.978 2.596,14.832 8.157,1.854 18.168,0.37 30.033,-6.303 11.864,-6.674 25.213,-19.652 31.517,-39.673 6.302,-20.023 -1.485,-30.404 -10.753,-31.888 -9.27,-1.482 -17.455,2.352 -25.584,11.494 z"
       style="fill:none;stroke:#231f20;stroke-width:0.75;stroke-linecap:round;stroke-linejoin:round;stroke-miterlimit:4;stroke-dasharray:none;stroke-opacity:1"
       id="path686" />
    <path
       d="m 571.7,316.34 c -2.772,-0.079 -4.402,-1.59 -4.402,-3.258 0,-1.669 1.973,-2.386 3.919,-2.386 1.947,0 3.564,1.738 3.564,3.128 0,1.39 -1.737,2.554 -3.081,2.516"
       style="fill:#ffffff;fill-opacity:1;fill-rule:nonzero;stroke:none;stroke-width:0.1"
       id="path688" />
    <path
       d="m 571.7,316.34 c -2.772,-0.079 -4.402,-1.59 -4.402,-3.258 0,-1.669 1.973,-2.386 3.919,-2.386 1.947,0 3.564,1.738 3.564,3.128 0,1.39 -1.737,2.554 -3.081,2.516 z"
       style="fill:none;stroke:#231f20;stroke-width:0.5;stroke-linecap:round;stroke-linejoin:round;stroke-miterlimit:4;stroke-dasharray:none;stroke-opacity:1"
       id="path690" />
    <path
       d="m 540.002,506.513 c -3.523,0 -10.938,1.113 -15.758,2.966 -4.82,1.855 -24.472,6.675 -36.336,8.898 -11.866,2.226 -33.742,13.721 -37.078,15.204 -3.337,1.482 -10.011,6.302 -12.607,8.157 -2.596,1.853 -4.449,4.82 -4.449,4.82 -2.596,-2.595 -15.944,-4.449 -24.843,0.37 -8.898,4.821 -16.684,12.978 -14.83,23.36 1.854,10.381 4.449,13.347 4.449,13.347 9.27,8.529 24.101,42.27 27.808,51.538 3.708,9.271 10.012,11.495 10.012,11.495 -0.371,5.561 2.224,12.977 6.302,17.426 4.078,4.449 28.921,16.686 41.898,21.505 12.978,4.821 48.943,10.383 55.432,10.383 6.488,0 42.455,-5.562 55.431,-10.383 12.978,-4.819 37.819,-17.056 41.899,-21.505 4.078,-4.449 6.673,-11.865 6.303,-17.426 0,0 6.303,-2.224 10.011,-11.495 3.708,-9.268 18.538,-43.009 27.809,-51.538 0,0 2.594,-2.966 4.449,-13.347 1.853,-10.382 -5.932,-18.539 -14.83,-23.36 -8.901,-4.819 -22.248,-2.965 -24.844,-0.37 0,0 -1.854,-2.967 -4.449,-4.82 -2.595,-1.855 -9.27,-6.675 -12.607,-8.157 -3.338,-1.483 -25.213,-12.978 -37.078,-15.204 -11.865,-2.223 -31.515,-7.043 -36.335,-8.898 -4.82,-1.853 -12.236,-2.966 -15.759,-2.966"
       style="fill:#ffffff;fill-opacity:1;fill-rule:nonzero;stroke:none;stroke-width:0.1"
       id="path692" />
    <path
       d="m 540.002,506.513 c -3.523,0 -10.938,1.113 -15.758,2.966 -4.82,1.855 -24.472,6.675 -36.336,8.898 -11.866,2.226 -33.742,13.721 -37.078,15.204 -3.337,1.482 -10.011,6.302 -12.607,8.157 -2.596,1.853 -4.449,4.82 -4.449,4.82 -2.596,-2.595 -15.944,-4.449 -24.843,0.37 -8.898,4.821 -16.684,12.978 -14.83,23.36 1.854,10.381 4.449,13.347 4.449,13.347 9.27,8.529 24.101,42.27 27.808,51.538 3.708,9.271 10.012,11.495 10.012,11.495 -0.371,5.561 2.224,12.977 6.302,17.426 4.078,4.449 28.921,16.686 41.898,21.505 12.978,4.821 48.943,10.383 55.432,10.383 6.488,0 42.455,-5.562 55.431,-10.383 12.978,-4.819 37.819,-17.056 41.899,-21.505 4.078,-4.449 6.673,-11.865 6.303,-17.426 0,0 6.303,-2.224 10.011,-11.495 3.708,-9.268 18.538,-43.009 27.809,-51.538 0,0 2.594,-2.966 4.449,-13.347 1.853,-10.382 -5.932,-18.539 -14.83,-23.36 -8.901,-4.819 -22.248,-2.965 -24.844,-0.37 0,0 -1.854,-2.967 -4.449,-4.82 -2.595,-1.855 -9.27,-6.675 -12.607,-8.157 -3.338,-1.483 -25.213,-12.978 -37.078,-15.204 -11.865,-2.223 -31.515,-7.043 -36.335,-8.898 -4.82,-1.853 -12.236,-2.966 -15.759,-2.966 z"
       style="fill:none;stroke:#231f20;stroke-width:0.75;stroke-linecap:round;stroke-linejoin:round;stroke-miterlimit:4;stroke-dasharray:none;stroke-opacity:1"
       id="path694" />
    <path
       d="m 623.243,597.725 c -2.226,5.933 -2.967,16.315 -4.449,21.134 -0.25,0.815 -0.566,1.716 -0.935,2.665 h -0.001 c -0.564,-3.268 -10.189,1.785 -16.863,4.381 -6.673,2.595 -28.18,8.991 -37.356,9.176 -6.312,0.127 -16.406,-3.244 -23.637,-3.244 -7.23,0 -17.324,3.371 -23.637,3.244 -9.177,-0.185 -30.682,-6.581 -37.356,-9.176 -6.674,-2.596 -16.299,-7.649 -16.862,-4.381 h -10e-4 c -0.37,-0.949 -0.684,-1.85 -0.935,-2.665 -1.482,-4.819 -2.224,-15.201 -4.449,-21.134 -1.296,-3.456 -3.597,-10.559 -6.1,-17.428 h 0.002 c -0.58,-1.572 -0.459,-2.953 0.351,-4.171 1.112,-1.667 5.006,-3.753 7.786,-1.111 4.441,4.218 8.899,9.733 13.905,10.289 5.005,0.556 19.187,-3.059 27.808,-3.059 8.62,0 30.85,0.677 39.488,0.835 8.638,-0.158 30.869,-0.835 39.488,-0.835 8.621,0 22.802,3.615 27.808,3.059 5.006,-0.556 9.464,-6.071 13.905,-10.289 2.781,-2.642 6.673,-0.556 7.787,1.111 0.81,1.218 0.926,2.612 0.352,4.171 h 10e-4 c -2.503,6.869 -4.805,13.972 -6.1,17.428"
       style="fill:#d3d2d2;fill-opacity:1;fill-rule:nonzero;stroke:none;stroke-width:0.1"
       id="path696" />
    <path
       d="m 634.737,567.321 c -0.565,1.077 -1.152,2.326 -1.747,3.692 -4.618,3.78 -3.446,-5.453 -9.563,-9.903 -6.118,-4.448 -19.466,-3.893 -28.087,-3.893 -8.621,0 -23.635,-3.058 -35.039,-4.727 -11.401,-1.669 -16.962,2.503 -20.299,2.503 -3.337,0 -8.899,-4.172 -20.3,-2.503 -11.402,1.669 -26.418,4.727 -35.038,4.727 -8.622,0 -21.969,-0.555 -28.087,3.893 -6.119,4.45 -4.945,13.686 -9.564,9.902 l -0.342,0.014 c -0.857,-2.267 -1.403,-3.705 -1.403,-3.705 -2.523,-4.819 -5.331,-10.202 -7.719,-14.487 0.159,-8.277 6.504,-9.081 10.398,-9.359 3.864,-0.276 10.823,-1.321 18.578,-6.381 10.074,-6.573 13.087,-5.126 19.25,-6.296 6.916,-1.31 14.708,-2.031 27.777,-7.037 13.071,-5.006 22,-6.31 26.45,-6.31 4.451,0 13.38,1.304 26.451,6.31 13.068,5.006 20.86,5.727 27.775,7.037 6.164,1.17 9.178,-0.277 19.251,6.296 7.755,5.06 14.715,6.105 18.578,6.381 3.894,0.278 10.238,1.082 10.399,9.359 -2.389,4.285 -5.197,9.668 -7.719,14.487"
       style="fill:#d3d2d2;fill-opacity:1;fill-rule:nonzero;stroke:none;stroke-width:0.1"
       id="path698" />
    <path
       d="m 398.55,583.635 c 9.27,8.529 24.101,42.27 27.808,51.538 0,0 5.562,12.978 -2.595,14.832 -8.157,1.854 -18.169,0.37 -30.033,-6.303 -11.865,-6.674 -25.214,-19.652 -31.517,-39.673 -6.303,-20.023 1.485,-30.404 10.753,-31.888 9.27,-1.482 17.452,2.352 25.584,11.494"
       style="fill:#ffffff;fill-opacity:1;fill-rule:nonzero;stroke:none;stroke-width:0.1"
       id="path700" />
    <path
       d="m 398.55,583.635 c 9.27,8.529 24.101,42.27 27.808,51.538 0,0 5.562,12.978 -2.595,14.832 -8.157,1.854 -18.169,0.37 -30.033,-6.303 -11.865,-6.674 -25.214,-19.652 -31.517,-39.673 -6.303,-20.023 1.485,-30.404 10.753,-31.888 9.27,-1.482 17.452,2.352 25.584,11.494 z"
       style="fill:none;stroke:#231f20;stroke-width:0.75;stroke-linecap:round;stroke-linejoin:round;stroke-miterlimit:4;stroke-dasharray:none;stroke-opacity:1"
       id="path702" />
    <path
       d="m 508.304,316.34 c 2.772,-0.079 4.401,-1.59 4.401,-3.258 0,-1.669 -1.971,-2.386 -3.917,-2.386 -1.947,0 -3.565,1.738 -3.565,3.128 0,1.39 1.737,2.554 3.081,2.516"
       style="fill:#ffffff;fill-opacity:1;fill-rule:nonzero;stroke:none;stroke-width:0.1"
       id="path704" />
    <path
       d="m 508.304,316.34 c 2.772,-0.079 4.401,-1.59 4.401,-3.258 0,-1.669 -1.971,-2.386 -3.917,-2.386 -1.947,0 -3.565,1.738 -3.565,3.128 0,1.39 1.737,2.554 3.081,2.516 z"
       style="fill:none;stroke:#231f20;stroke-width:0.5;stroke-linecap:round;stroke-linejoin:round;stroke-miterlimit:4;stroke-dasharray:none;stroke-opacity:1"
       id="path706" />
    <path
       d="m 655.685,531.355 c -3.615,-2.224 -15.791,-12.115 -19.187,-18.909 -1.113,-2.225 -0.489,-4.811 5.005,-2.503 6.332,2.659 15.573,5.284 31.702,2.503 16.129,-2.78 34.895,-10.792 50.896,-41.025 10.531,-19.895 3.607,-65.482 -22.253,-73.267 0,0 -4.798,-2.921 -2.781,-7.232 2.003,-4.282 5.282,-3.337 8.621,-1.668 3.336,1.668 17.77,9.842 26.077,26.344"
       style="fill:none;stroke:#231f20;stroke-width:0.5;stroke-linecap:butt;stroke-linejoin:miter;stroke-miterlimit:4;stroke-dasharray:none;stroke-opacity:1"
       id="path708" />
    <path
       d="m 592.224,515.79 c 0.613,-2.511 1.449,-6.681 1.727,-7.793 0.277,-1.114 0.277,-2.225 3.058,-2.503 2.781,-0.278 10.846,-1.668 17.52,1.669 6.674,3.336 12.759,8.702 17.798,7.785 2.676,-0.486 3.808,-1.924 3.7,-4.003"
       style="fill:none;stroke:#231f20;stroke-width:0.5;stroke-linecap:butt;stroke-linejoin:miter;stroke-miterlimit:4;stroke-dasharray:none;stroke-opacity:1"
       id="path710" />
    <path
       d="m 677.933,379.521 c -0.094,-2.223 2.185,-6.945 7.47,-6.715 6.396,0.278 7.106,3.13 7.662,7.579 0.557,4.449 -4.566,5.531 -5.956,5.811 -1.391,0.277 -8.899,0 -9.176,-6.675 z"
       style="fill:none;stroke:#231f20;stroke-width:0.5;stroke-linecap:butt;stroke-linejoin:miter;stroke-miterlimit:4;stroke-dasharray:none;stroke-opacity:1"
       id="path712" />
    <path
       d="m 707.688,389.254 c -4.45,-4.45 -4.728,-8.064 -2.889,-9.18 1.714,-1.041 4.566,0.553 6.04,2.382"
       style="fill:none;stroke:#231f20;stroke-width:0.5;stroke-linecap:butt;stroke-linejoin:miter;stroke-miterlimit:4;stroke-dasharray:none;stroke-opacity:1"
       id="path714" />
    <path
       d="m 662.081,345.874 c -2.073,-2.094 -2.851,-6.668 2.295,-4.03"
       style="fill:none;stroke:#231f20;stroke-width:0.5;stroke-linecap:butt;stroke-linejoin:miter;stroke-miterlimit:4;stroke-dasharray:none;stroke-opacity:1"
       id="path716" />
    <path
       d="m 543.894,379.521 1.948,-7.786 c -0.835,-2.225 -0.556,-5.562 0,-8.065 0.555,-2.502 2.503,-5.005 9.733,-8.341 7.229,-3.338 20.022,-10.012 23.915,-12.237 3.893,-2.224 11.218,-7.329 15.85,-9.455 12.017,-5.511 10.847,-8.24 9.216,-10.022"
       style="fill:none;stroke:#231f20;stroke-width:0.5;stroke-linecap:butt;stroke-linejoin:miter;stroke-miterlimit:4;stroke-dasharray:none;stroke-opacity:1"
       id="path718" />
    <path
       d="m 577.89,343.983 c -1.946,-1.391 -6.742,-0.612 -12.305,1.057 -5.561,1.668 -13.07,3.057 -15.293,2.78 -2.226,-0.278 -5.508,-1.132 -7.064,-3.625"
       style="fill:none;stroke:#231f20;stroke-width:0.5;stroke-linecap:butt;stroke-linejoin:miter;stroke-miterlimit:4;stroke-dasharray:none;stroke-opacity:1"
       id="path720" />
    <path
       d="m 461.583,571.677 c 1.389,-0.834 7.229,-1.946 15.572,-3.058 8.343,-1.112 28.921,-0.279 39.766,-1.668 10.845,-1.391 16.963,1.389 23.081,1.389 6.118,0 12.236,-2.78 23.082,-1.389 10.844,1.389 31.422,0.556 39.765,1.668 8.344,1.112 14.183,2.224 15.573,3.058"
       style="fill:none;stroke:#231f20;stroke-width:0.5;stroke-linecap:butt;stroke-linejoin:miter;stroke-miterlimit:4;stroke-dasharray:none;stroke-opacity:1"
       id="path722" />
    <path
       d="m 424.32,531.355 c 3.614,-2.224 15.79,-12.115 19.186,-18.909 1.114,-2.225 0.489,-4.811 -5.005,-2.503 -6.332,2.659 -15.573,5.284 -31.701,2.503 -16.13,-2.78 -34.896,-10.792 -50.897,-41.025 -10.53,-19.895 -3.609,-65.482 22.254,-73.267 0,0 4.797,-2.921 2.781,-7.232 -2.004,-4.282 -5.283,-3.337 -8.621,-1.668 -3.337,1.668 -17.772,9.842 -26.078,26.344"
       style="fill:none;stroke:#231f20;stroke-width:0.5;stroke-linecap:butt;stroke-linejoin:miter;stroke-miterlimit:4;stroke-dasharray:none;stroke-opacity:1"
       id="path724" />
    <path
       d="m 487.78,515.79 c -0.614,-2.511 -1.448,-6.681 -1.726,-7.793 -0.279,-1.114 -0.279,-2.225 -3.059,-2.503 -2.781,-0.278 -10.846,-1.668 -17.52,1.669 -6.674,3.336 -12.759,8.702 -17.797,7.785 -2.677,-0.486 -3.808,-1.924 -3.701,-4.003"
       style="fill:none;stroke:#231f20;stroke-width:0.5;stroke-linecap:butt;stroke-linejoin:miter;stroke-miterlimit:4;stroke-dasharray:none;stroke-opacity:1"
       id="path726" />
    <path
       d="m 402.072,379.521 c 0.093,-2.223 -2.186,-6.945 -7.471,-6.715 -6.396,0.278 -7.105,3.13 -7.662,7.579 -0.556,4.449 4.566,5.531 5.957,5.811 1.39,0.277 8.898,0 9.176,-6.675 z"
       style="fill:none;stroke:#231f20;stroke-width:0.5;stroke-linecap:butt;stroke-linejoin:miter;stroke-miterlimit:4;stroke-dasharray:none;stroke-opacity:1"
       id="path728" />
    <path
       d="m 372.317,389.254 c 4.449,-4.45 4.727,-8.064 2.888,-9.18 -1.714,-1.041 -4.565,0.553 -6.041,2.382"
       style="fill:none;stroke:#231f20;stroke-width:0.5;stroke-linecap:butt;stroke-linejoin:miter;stroke-miterlimit:4;stroke-dasharray:none;stroke-opacity:1"
       id="path730" />
    <path
       d="m 417.923,345.874 c 2.074,-2.094 2.852,-6.668 -2.294,-4.03"
       style="fill:none;stroke:#231f20;stroke-width:0.5;stroke-linecap:butt;stroke-linejoin:miter;stroke-miterlimit:4;stroke-dasharray:none;stroke-opacity:1"
       id="path732" />
    <path
       d="m 540.002,454.605 c -3.893,0 -2.502,8.063 0,8.063 2.502,0 3.892,-8.063 0,-8.063"
       style="fill:#706d6e;fill-opacity:1;fill-rule:nonzero;stroke:none;stroke-width:0.1"
       id="path734" />
    <path
       d="m 540.002,454.605 c -3.893,0 -2.502,8.063 0,8.063 2.502,0 3.892,-8.063 0,-8.063 z"
       style="fill:none;stroke:#231f20;stroke-width:0.75;stroke-linecap:round;stroke-linejoin:round;stroke-miterlimit:4;stroke-dasharray:none;stroke-opacity:1"
       id="path736" />
    <path
       d="m 507.829,354.594 c 2.502,5.839 12.708,48.842 17.434,64.972 4.728,16.13 11.68,15.016 14.739,15.016 3.059,0 10.011,1.114 14.739,-15.016 4.726,-16.13 14.932,-59.133 17.435,-64.972"
       style="fill:none;stroke:#231f20;stroke-width:0.5;stroke-linecap:butt;stroke-linejoin:miter;stroke-miterlimit:4;stroke-dasharray:none;stroke-opacity:1"
       id="path738" />
    <path
       d="m 536.109,379.521 -1.946,-7.786 c 0.834,-2.225 0.555,-5.562 0,-8.065 -0.557,-2.502 -2.503,-5.005 -9.733,-8.341 -7.231,-3.338 -20.022,-10.012 -23.916,-12.237 -3.893,-2.224 -11.218,-7.329 -15.85,-9.455 -12.018,-5.511 -10.846,-8.24 -9.215,-10.022"
       style="fill:none;stroke:#231f20;stroke-width:0.5;stroke-linecap:butt;stroke-linejoin:miter;stroke-miterlimit:4;stroke-dasharray:none;stroke-opacity:1"
       id="path740" />
    <path
       d="m 543.228,344.195 c 0.075,-0.748 0.111,-1.579 0.111,-2.493 0,-5.006 -1.112,-13.835 -3.337,-19.12 -2.224,5.285 -3.337,14.114 -3.337,19.12 0,0.91 0.037,1.738 0.11,2.483"
       style="fill:none;stroke:#231f20;stroke-width:0.5;stroke-linecap:butt;stroke-linejoin:miter;stroke-miterlimit:4;stroke-dasharray:none;stroke-opacity:1"
       id="path742" />
    <path
       d="m 502.182,343.927 c 1.947,-1.39 6.675,-0.556 12.236,1.113 5.562,1.668 13.071,3.057 15.295,2.78 2.225,-0.278 5.507,-1.132 7.064,-3.625"
       style="fill:none;stroke:#231f20;stroke-width:0.5;stroke-linecap:butt;stroke-linejoin:miter;stroke-miterlimit:4;stroke-dasharray:none;stroke-opacity:1"
       id="path744" />
    <path
       d="m 450.662,580.297 h 0.002 c 1.273,3.072 5.074,6.578 8.416,9.734 5.005,4.728 10.289,5.006 19.465,4.172 9.177,-0.834 30.869,-2.781 41.157,-2.781 10.289,0 14.738,2.781 20.3,2.781 5.562,0 10.011,-2.781 20.299,-2.781 10.29,0 31.982,1.947 41.157,2.781 9.177,0.834 14.461,0.556 19.467,-4.172 3.34,-3.156 7.144,-6.662 8.417,-9.734 h 10e-4 c -2.503,6.869 -4.804,13.972 -6.1,17.428 -0.477,1.27 -0.884,2.741 -1.246,4.319 -2.265,-3.558 -6.912,-1.723 -8.86,-1.167 -1.944,0.555 -20.02,2.224 -28.921,3.893 -8.898,1.668 -21.412,3.615 -26.138,3.615 -4.727,0 -8.899,-1.947 -18.076,-1.947 -9.176,0 -13.348,1.947 -18.075,1.947 -4.728,0 -17.242,-1.947 -26.14,-3.615 -8.899,-1.669 -26.975,-3.338 -28.921,-3.893 -1.947,-0.556 -6.593,-2.391 -8.858,1.167 -0.362,-1.578 -0.77,-3.049 -1.246,-4.319 -1.297,-3.456 -3.597,-10.559 -6.1,-17.428"
       style="fill:#b2b1b1;fill-opacity:1;fill-rule:nonzero;stroke:none;stroke-width:0.1"
       id="path746" />
    <path
       d="m 433.774,546.558 c 2.596,3.707 7.415,12.977 11.494,20.763 4.079,7.787 9.27,24.471 11.494,30.404 2.225,5.933 2.967,16.315 4.449,21.134 1.483,4.821 5.192,12.606 9.27,15.944 4.078,3.337 21.876,10.011 30.775,10.753 8.899,0.741 34.483,-0.371 38.746,-0.371 4.264,0 29.848,1.112 38.747,0.371 8.898,-0.742 26.695,-7.416 30.775,-10.753 4.077,-3.338 7.787,-11.123 9.27,-15.944 1.482,-4.819 2.223,-15.201 4.449,-21.134 2.223,-5.933 7.414,-22.617 11.494,-30.404 4.079,-7.786 8.898,-17.056 11.493,-20.763"
       style="fill:none;stroke:#231f20;stroke-width:0.5;stroke-linecap:butt;stroke-linejoin:miter;stroke-miterlimit:4;stroke-dasharray:none;stroke-opacity:1"
       id="path748" />
    <path
       d="m 583.621,480.075 c 2.475,-0.16 8.453,0.49 8.98,-2.765 0.525,-3.254 -3.902,-5.354 -8.036,-5.507 -4.135,-0.152 -9.56,1.215 -9.981,3.611 -0.424,2.392 2.534,5.086 9.037,4.661 z"
       style="fill:none;stroke:#231f20;stroke-width:0.5;stroke-linecap:butt;stroke-linejoin:miter;stroke-miterlimit:4;stroke-dasharray:none;stroke-opacity:1"
       id="path750" />
    <path
       d="m 496.382,480.075 c -2.475,-0.16 -8.452,0.49 -8.98,-2.765 -0.525,-3.254 3.902,-5.354 8.036,-5.507 4.136,-0.152 9.56,1.215 9.981,3.611 0.425,2.392 -2.534,5.086 -9.037,4.661 z"
       style="fill:none;stroke:#231f20;stroke-width:0.5;stroke-linecap:butt;stroke-linejoin:miter;stroke-miterlimit:4;stroke-dasharray:none;stroke-opacity:1"
       id="path752" />
    <path
       d="m 612.235,346.638 c -1.678,0 -4.246,-0.904 -4.246,-3.212 0,-1.667 1.757,-2.527 3.687,-2.275 2.087,0.273 4.129,1.54 3.895,3.331 -0.208,1.6 -1.992,2.156 -3.336,2.156 z"
       style="fill:none;stroke:#231f20;stroke-width:0.5;stroke-linecap:round;stroke-linejoin:round;stroke-miterlimit:4;stroke-dasharray:2.8, 1.8;stroke-dashoffset:0;stroke-opacity:1"
       id="path754" />
    <path
       d="m 542.345,498.934 c 0.994,-2.617 8.781,-9.848 14.342,-10.682 5.563,-0.834 18.91,-5.284 26.975,2.503 8.063,7.787 9.084,17.983 8.434,27.622"
       style="fill:none;stroke:#231f20;stroke-width:0.5;stroke-linecap:round;stroke-linejoin:round;stroke-miterlimit:4;stroke-dasharray:2.8, 1.8;stroke-dashoffset:0;stroke-opacity:1"
       id="path756" />
    <path
       d="m 647.008,511.814 c -4.393,-2.982 -17.741,-14.941 -16.072,-22.171 1.669,-7.229 12.791,-10.289 18.91,-12.792 6.116,-2.503 25.584,-16.129 31.701,-40.601 2.782,-11.124 4.45,-18.63 5.285,-24.193 0.834,-5.561 2.502,-9.454 5.56,-11.401 3.059,-1.947 7.231,-2.502 9.456,-2.502"
       style="fill:none;stroke:#231f20;stroke-width:0.5;stroke-linecap:round;stroke-linejoin:round;stroke-miterlimit:4;stroke-dasharray:2.8, 1.8;stroke-dashoffset:0;stroke-opacity:1"
       id="path758" />
    <path
       d="m 636.027,510.945 c -0.015,-0.296 -0.056,-0.607 -0.12,-0.929 -0.522,-2.576 -8.865,-9.806 -13.035,-15.368"
       style="fill:none;stroke:#231f20;stroke-width:0.5;stroke-linecap:round;stroke-linejoin:round;stroke-miterlimit:4;stroke-dasharray:2.8, 1.8;stroke-dashoffset:0;stroke-opacity:1"
       id="path760" />
    <path
       d="m 603.126,501.044 c 7.231,0.556 20.158,1.424 19.746,-6.396 -0.278,-5.282 -11.124,-9.177 -16.685,-9.732 -5.561,-0.556 -18.355,-1.113 -18.632,6.673 -0.278,7.786 15.571,9.455 15.571,9.455 z"
       style="fill:none;stroke:#231f20;stroke-width:0.5;stroke-linecap:round;stroke-linejoin:round;stroke-miterlimit:4;stroke-dasharray:2.8, 1.8;stroke-dashoffset:0;stroke-opacity:1"
       id="path762" />
    <path
       d="m 583.662,490.755 c 0,0 3.479,-2.655 6.771,-4.008"
       style="fill:none;stroke:#231f20;stroke-width:0.5;stroke-linecap:round;stroke-linejoin:round;stroke-miterlimit:4;stroke-dasharray:2.8, 1.8;stroke-dashoffset:0;stroke-opacity:1"
       id="path764" />
    <path
       d="m 588.684,481.248 c 8.934,-1.043 20.283,-1.894 25.289,-2.172 10.011,-0.556 29.313,0.749 38.769,-3.7"
       style="fill:none;stroke:#231f20;stroke-width:0.5;stroke-linecap:round;stroke-linejoin:round;stroke-miterlimit:4;stroke-dasharray:2.8, 1.8;stroke-dashoffset:0;stroke-opacity:1"
       id="path766" />
    <path
       d="m 491.32,481.248 c -8.935,-1.043 -20.284,-1.894 -25.289,-2.172 -10.012,-0.556 -29.314,0.749 -38.77,-3.7"
       style="fill:none;stroke:#231f20;stroke-width:0.5;stroke-linecap:round;stroke-linejoin:round;stroke-miterlimit:4;stroke-dasharray:2.8, 1.8;stroke-dashoffset:0;stroke-opacity:1"
       id="path768" />
    <path
       d="m 586.937,464.622 c 0.94,-0.392 1.974,-0.852 3.12,-1.397 5.84,-2.78 26.975,-13.904 42.27,-23.637 15.294,-9.733 26.501,-19.452 49.025,-50.876"
       style="fill:none;stroke:#231f20;stroke-width:0.5;stroke-linecap:round;stroke-linejoin:round;stroke-miterlimit:4;stroke-dasharray:2.8, 1.8;stroke-dashoffset:0;stroke-opacity:1"
       id="path770" />
    <path
       d="m 583.281,452.011 c 9.176,-4.728 26.048,-15.815 42.441,-32.794 7.786,-8.062 11.959,-16.892 13.386,-20.256"
       style="fill:none;stroke:#231f20;stroke-width:0.5;stroke-linecap:round;stroke-linejoin:round;stroke-miterlimit:4;stroke-dasharray:2.8, 1.8;stroke-dashoffset:0;stroke-opacity:1"
       id="path772" />
    <path
       d="m 677.654,390.088 c -5.006,8.066 -13.105,9.298 -15.851,9.812 -3.914,0.734 -15.434,3.328 -16.963,3.259 -1.53,-0.071 -6.395,-1.113 -5.84,-6.396 0.556,-5.284 3.684,-8.413 5.84,-8.898"
       style="fill:none;stroke:#231f20;stroke-width:0.5;stroke-linecap:round;stroke-linejoin:round;stroke-miterlimit:4;stroke-dasharray:2.8, 1.8;stroke-dashoffset:0;stroke-opacity:1"
       id="path774" />
    <path
       d="m 684.606,386.196 c -0.277,1.389 -4.17,3.337 -9.455,4.449 -5.284,1.112 -25.305,-0.557 -30.311,-2.78 -5.006,-2.226 -8.621,-6.953 -13.347,-12.514 -4.729,-5.562 -10.847,-17.242 -10.012,-25.028 0.834,-7.786 11.679,-11.958 14.461,-12.514 2.78,-0.557 12.513,-1.669 15.294,3.336 2.781,5.006 10.289,22.805 13.904,28.644 3.615,5.839 9.733,10.845 13.348,12.235"
       style="fill:none;stroke:#231f20;stroke-width:0.5;stroke-linecap:round;stroke-linejoin:round;stroke-miterlimit:4;stroke-dasharray:2.8, 1.8;stroke-dashoffset:0;stroke-opacity:1"
       id="path776" />
    <path
       d="m 635.942,428.116 c 3.551,-0.725 8.064,-4.101 12.513,-7.716 4.45,-3.615 7.44,-10.568 3.337,-14.184 -4.158,-3.664 -9.389,-4.072 -13.626,1.114 -4.122,5.046 -5.036,5.945 -8.622,9.176 -3.092,2.789 -1.945,7.23 -0.764,8.691 0.999,1.232 3.755,3.616 7.162,2.919 z"
       style="fill:none;stroke:#231f20;stroke-width:0.5;stroke-linecap:round;stroke-linejoin:round;stroke-miterlimit:4;stroke-dasharray:2.8, 1.8;stroke-dashoffset:0;stroke-opacity:1"
       id="path778" />
    <path
       d="m 655.966,351.004 c 3.891,5.714 12.511,13.78 15.013,15.726 2.503,1.946 7.093,5.492 10.012,5.283 2.511,-0.179 7.021,-0.278 9.916,2.471"
       style="fill:none;stroke:#231f20;stroke-width:0.5;stroke-linecap:round;stroke-linejoin:round;stroke-miterlimit:4;stroke-dasharray:2.8, 1.8;stroke-dashoffset:0;stroke-opacity:1"
       id="path780" />
    <path
       d="m 692.842,382.545 c -0.172,2.539 2.609,4.207 4.834,3.094 2.224,-1.112 3.546,-5.005 2.6,-7.225 -0.786,-1.844 -2.549,-4.15 -8.161,-6.679 -2.812,-1.268 -8.066,-6.396 -15.018,-12.237 -6.951,-5.838 -12.791,-11.678 -15.016,-13.624 -2.224,-1.947 -7.501,-9.156 -12.092,-6.247"
       style="fill:none;stroke:#231f20;stroke-width:0.5;stroke-linecap:round;stroke-linejoin:round;stroke-miterlimit:4;stroke-dasharray:2.8, 1.8;stroke-dashoffset:0;stroke-opacity:1"
       id="path782" />
    <path
       d="m 557.244,462.947 c 3.335,-0.077 11.401,-1.391 11.958,-8.62 0.555,-7.231 -0.697,-12.679 -6.952,-17.798 -5.355,-4.38 -8.483,-4.241 -11.958,-3.615 -3.591,0.646 -9.178,5.005 -8.622,11.68 0.557,6.673 3.616,18.631 15.574,18.353 z"
       style="fill:none;stroke:#231f20;stroke-width:0.5;stroke-linecap:round;stroke-linejoin:round;stroke-miterlimit:4;stroke-dasharray:2.8, 1.8;stroke-dashoffset:0;stroke-opacity:1"
       id="path784" />
    <path
       d="m 590.057,463.225 c -1.112,-3.059 -8.771,-19.284 -23.369,-21.878"
       style="fill:none;stroke:#231f20;stroke-width:0.5;stroke-linecap:round;stroke-linejoin:round;stroke-miterlimit:4;stroke-dasharray:2.8, 1.8;stroke-dashoffset:0;stroke-opacity:1"
       id="path786" />
    <path
       d="m 568.194,463.849 c 0.833,-1.669 0.911,-5.904 1.008,-9.522"
       style="fill:none;stroke:#231f20;stroke-width:0.5;stroke-linecap:round;stroke-linejoin:round;stroke-miterlimit:4;stroke-dasharray:2.8, 1.8;stroke-dashoffset:0;stroke-opacity:1"
       id="path788" />
    <path
       d="m 489.946,463.225 c 1.112,-3.059 8.771,-19.284 23.37,-21.878"
       style="fill:none;stroke:#231f20;stroke-width:0.5;stroke-linecap:round;stroke-linejoin:round;stroke-miterlimit:4;stroke-dasharray:2.8, 1.8;stroke-dashoffset:0;stroke-opacity:1"
       id="path790" />
    <path
       d="m 511.81,463.849 c -0.834,-1.669 -0.911,-5.904 -1.008,-9.522"
       style="fill:none;stroke:#231f20;stroke-width:0.5;stroke-linecap:round;stroke-linejoin:round;stroke-miterlimit:4;stroke-dasharray:2.8, 1.8;stroke-dashoffset:0;stroke-opacity:1"
       id="path792" />
    <path
       d="m 569.898,442.208 c 2.458,1.027 7.368,0.438 8.758,-3.176 1.39,-3.616 -0.41,-6.168 -3.893,-7.508 -3.615,-1.392 -8.482,-0.141 -9.456,2.502 -0.989,2.686 1.537,6.905 4.591,8.182 z"
       style="fill:none;stroke:#231f20;stroke-width:0.5;stroke-linecap:round;stroke-linejoin:round;stroke-miterlimit:4;stroke-dasharray:2.8, 1.8;stroke-dashoffset:0;stroke-opacity:1"
       id="path794" />
    <path
       d="m 543.519,465.951 c 2.488,2.383 5.701,3.836 10.267,4.522 6.436,0.97 24.511,-1.497 23.938,-4.277 0,0 -2.123,-1.471 -6.26,-1.993 -4.138,-0.526 -9.745,-0.852 -13.146,-1.17 -0.426,-0.079 -0.753,-0.086 -1.074,-0.086 -6.118,0 -9.576,0.072 -12.714,1.427"
       style="fill:none;stroke:#231f20;stroke-width:0.5;stroke-linecap:round;stroke-linejoin:round;stroke-miterlimit:4;stroke-dasharray:2.8, 1.8;stroke-dashoffset:0;stroke-opacity:1"
       id="path796" />
    <path
       d="m 536.484,465.951 c -2.487,2.383 -5.7,3.836 -10.267,4.522 -6.436,0.97 -24.51,-1.497 -23.938,-4.277 0,0 2.123,-1.471 6.26,-1.993 4.138,-0.526 9.746,-0.852 13.146,-1.17 0.426,-0.079 0.754,-0.086 1.074,-0.086 6.118,0 9.576,0.072 12.714,1.427"
       style="fill:none;stroke:#231f20;stroke-width:0.5;stroke-linecap:round;stroke-linejoin:round;stroke-miterlimit:4;stroke-dasharray:2.8, 1.8;stroke-dashoffset:0;stroke-opacity:1"
       id="path798" />
    <path
       d="m 541.392,430.132 c 0.904,0.071 2.502,-22.247 2.781,-26.418 0.28,-4.171 1.113,-24.193 -0.279,-24.193"
       style="fill:none;stroke:#231f20;stroke-width:0.5;stroke-linecap:round;stroke-linejoin:round;stroke-miterlimit:4;stroke-dasharray:2.8, 1.8;stroke-dashoffset:0;stroke-opacity:1"
       id="path800" />
    <path
       d="m 545.842,371.735 c 0.834,3.337 3.616,7.229 7.23,6.396 3.615,-0.834 6.118,-5.446 5.284,-15.735"
       style="fill:none;stroke:#231f20;stroke-width:0.5;stroke-linecap:round;stroke-linejoin:round;stroke-miterlimit:4;stroke-dasharray:2.8, 1.8;stroke-dashoffset:0;stroke-opacity:1"
       id="path802" />
    <path
       d="m 545.842,363.67 c -0.347,1.977 1.252,4.034 3.893,3.616 3.072,-0.486 11.209,-1.244 9.775,-13.832"
       style="fill:none;stroke:#231f20;stroke-width:0.5;stroke-linecap:round;stroke-linejoin:round;stroke-miterlimit:4;stroke-dasharray:2.8, 1.8;stroke-dashoffset:0;stroke-opacity:1"
       id="path804" />
    <path
       d="m 560.177,353.127 c 0.682,3.591 4.296,4.425 9.58,2.479 5.284,-1.946 11.679,-6.118 13.348,-9.176 1.67,-3.059 0.881,-6.044 -1.366,-4.69"
       style="fill:none;stroke:#231f20;stroke-width:0.5;stroke-linecap:round;stroke-linejoin:round;stroke-miterlimit:4;stroke-dasharray:2.8, 1.8;stroke-dashoffset:0;stroke-opacity:1"
       id="path806" />
    <path
       d="m 583.914,344.202 c 2.528,1.392 8.09,3.34 12.54,1.949 4.449,-1.39 7.507,-3.893 6.952,-7.786 -0.557,-3.893 -5.006,-4.728 -8.066,-4.728"
       style="fill:none;stroke:#231f20;stroke-width:0.5;stroke-linecap:round;stroke-linejoin:round;stroke-miterlimit:4;stroke-dasharray:2.8, 1.8;stroke-dashoffset:0;stroke-opacity:1"
       id="path808" />
    <path
       d="m 584.606,339.929 c -1.501,-1.981 -2.752,-2.607 -5.95,-2.469 -3.198,0.141 -5.7,1.877 -5.7,3.268 0,1.392 1.807,1.392 3.198,1.112 1.39,-0.277 2.432,-0.834 4.308,-0.277 0,0 1.098,0.226 2.419,-0.539"
       style="fill:none;stroke:#231f20;stroke-width:0.5;stroke-linecap:round;stroke-linejoin:round;stroke-miterlimit:4;stroke-dasharray:2.8, 1.8;stroke-dashoffset:0;stroke-opacity:1"
       id="path810" />
    <path
       d="m 467.77,346.638 c 1.677,0 4.245,-0.904 4.245,-3.212 0,-1.667 -1.757,-2.527 -3.687,-2.275 -2.088,0.273 -4.128,1.54 -3.896,3.331 0.21,1.6 1.994,2.156 3.338,2.156 z"
       style="fill:none;stroke:#231f20;stroke-width:0.5;stroke-linecap:round;stroke-linejoin:round;stroke-miterlimit:4;stroke-dasharray:2.8, 1.8;stroke-dashoffset:0;stroke-opacity:1"
       id="path812" />
    <path
       d="m 537.66,498.934 c -0.995,-2.617 -8.781,-9.848 -14.343,-10.682 -5.562,-0.834 -18.909,-5.284 -26.974,2.503 -8.065,7.787 -9.085,17.983 -8.435,27.622"
       style="fill:none;stroke:#231f20;stroke-width:0.5;stroke-linecap:round;stroke-linejoin:round;stroke-miterlimit:4;stroke-dasharray:2.8, 1.8;stroke-dashoffset:0;stroke-opacity:1"
       id="path814" />
    <path
       d="m 432.996,511.814 c 4.393,-2.982 17.741,-14.941 16.073,-22.171 -1.669,-7.229 -12.792,-10.289 -18.91,-12.792 -6.118,-2.503 -25.584,-16.129 -31.702,-40.601 -2.781,-11.124 -4.45,-18.63 -5.284,-24.193 -0.834,-5.561 -2.503,-9.454 -5.562,-11.401 -3.058,-1.947 -7.23,-2.502 -9.454,-2.502"
       style="fill:none;stroke:#231f20;stroke-width:0.5;stroke-linecap:round;stroke-linejoin:round;stroke-miterlimit:4;stroke-dasharray:2.8, 1.8;stroke-dashoffset:0;stroke-opacity:1"
       id="path816" />
    <path
       d="m 443.977,510.945 c 0.016,-0.296 0.056,-0.607 0.121,-0.929 0.522,-2.576 8.863,-9.806 13.035,-15.368"
       style="fill:none;stroke:#231f20;stroke-width:0.5;stroke-linecap:round;stroke-linejoin:round;stroke-miterlimit:4;stroke-dasharray:2.8, 1.8;stroke-dashoffset:0;stroke-opacity:1"
       id="path818" />
    <path
       d="m 476.876,501.044 c -7.229,0.556 -20.155,1.424 -19.743,-6.396 0.278,-5.282 11.123,-9.177 16.685,-9.732 5.561,-0.556 18.353,-1.113 18.632,6.673 0.277,7.786 -15.574,9.455 -15.574,9.455 z"
       style="fill:none;stroke:#231f20;stroke-width:0.5;stroke-linecap:round;stroke-linejoin:round;stroke-miterlimit:4;stroke-dasharray:2.8, 1.8;stroke-dashoffset:0;stroke-opacity:1"
       id="path820" />
    <path
       d="m 496.343,490.755 c 0,0 -3.481,-2.655 -6.771,-4.008"
       style="fill:none;stroke:#231f20;stroke-width:0.5;stroke-linecap:round;stroke-linejoin:round;stroke-miterlimit:4;stroke-dasharray:2.8, 1.8;stroke-dashoffset:0;stroke-opacity:1"
       id="path822" />
    <path
       d="m 496.724,452.011 c -9.178,-4.728 -26.049,-15.815 -42.442,-32.794 -7.785,-8.062 -11.959,-16.892 -13.386,-20.256"
       style="fill:none;stroke:#231f20;stroke-width:0.5;stroke-linecap:round;stroke-linejoin:round;stroke-miterlimit:4;stroke-dasharray:2.8, 1.8;stroke-dashoffset:0;stroke-opacity:1"
       id="path824" />
    <path
       d="m 402.35,390.088 c 5.006,8.066 13.105,9.298 15.851,9.812 3.915,0.734 15.434,3.328 16.964,3.259 1.528,-0.071 6.395,-1.113 5.838,-6.396 -0.555,-5.284 -3.684,-8.413 -5.838,-8.898"
       style="fill:none;stroke:#231f20;stroke-width:0.5;stroke-linecap:round;stroke-linejoin:round;stroke-miterlimit:4;stroke-dasharray:2.8, 1.8;stroke-dashoffset:0;stroke-opacity:1"
       id="path826" />
    <path
       d="m 395.399,386.196 c 0.277,1.389 4.17,3.337 9.454,4.449 5.283,1.112 25.306,-0.557 30.312,-2.78 5.005,-2.226 8.62,-6.953 13.347,-12.514 4.728,-5.562 10.845,-17.242 10.011,-25.028 -0.833,-7.786 -11.679,-11.958 -14.46,-12.514 -2.781,-0.557 -12.514,-1.669 -15.294,3.336 -2.782,5.006 -10.29,22.805 -13.904,28.644 -3.615,5.839 -9.734,10.845 -13.349,12.235"
       style="fill:none;stroke:#231f20;stroke-width:0.5;stroke-linecap:round;stroke-linejoin:round;stroke-miterlimit:4;stroke-dasharray:2.8, 1.8;stroke-dashoffset:0;stroke-opacity:1"
       id="path828" />
    <path
       d="m 444.063,428.116 c -3.553,-0.725 -8.064,-4.101 -12.514,-7.716 -4.449,-3.615 -7.439,-10.568 -3.337,-14.184 4.158,-3.664 9.389,-4.072 13.626,1.114 4.122,5.046 5.037,5.945 8.62,9.176 3.094,2.789 1.947,7.23 0.766,8.691 -0.998,1.232 -3.755,3.616 -7.161,2.919 z"
       style="fill:none;stroke:#231f20;stroke-width:0.5;stroke-linecap:round;stroke-linejoin:round;stroke-miterlimit:4;stroke-dasharray:2.8, 1.8;stroke-dashoffset:0;stroke-opacity:1"
       id="path830" />
    <path
       d="m 424.038,351.004 c -3.89,5.714 -12.511,13.78 -15.014,15.726 -2.502,1.946 -7.091,5.492 -10.011,5.283 -2.512,-0.179 -7.022,-0.278 -9.915,2.471"
       style="fill:none;stroke:#231f20;stroke-width:0.5;stroke-linecap:round;stroke-linejoin:round;stroke-miterlimit:4;stroke-dasharray:2.8, 1.8;stroke-dashoffset:0;stroke-opacity:1"
       id="path832" />
    <path
       d="m 387.163,382.545 c 0.171,2.539 -2.61,4.207 -4.834,3.094 -2.225,-1.112 -3.547,-5.005 -2.6,-7.225 0.786,-1.844 2.549,-4.15 8.161,-6.679 2.811,-1.268 8.065,-6.396 15.017,-12.237 6.952,-5.838 12.792,-11.678 15.016,-13.624 2.225,-1.947 7.502,-9.156 12.093,-6.247"
       style="fill:none;stroke:#231f20;stroke-width:0.5;stroke-linecap:round;stroke-linejoin:round;stroke-miterlimit:4;stroke-dasharray:2.8, 1.8;stroke-dashoffset:0;stroke-opacity:1"
       id="path834" />
    <path
       d="m 522.761,462.947 c -3.336,-0.077 -11.401,-1.391 -11.958,-8.62 -0.556,-7.231 0.696,-12.679 6.952,-17.798 5.354,-4.38 8.482,-4.241 11.958,-3.615 3.59,0.646 9.176,5.005 8.621,11.68 -0.556,6.673 -3.616,18.631 -15.573,18.353 z"
       style="fill:none;stroke:#231f20;stroke-width:0.5;stroke-linecap:round;stroke-linejoin:round;stroke-miterlimit:4;stroke-dasharray:2.8, 1.8;stroke-dashoffset:0;stroke-opacity:1"
       id="path836" />
    <path
       d="m 510.107,442.208 c -2.458,1.027 -7.368,0.438 -8.759,-3.176 -1.39,-3.616 0.411,-6.168 3.894,-7.508 3.615,-1.392 8.481,-0.141 9.454,2.502 0.99,2.686 -1.537,6.905 -4.589,8.182 z"
       style="fill:none;stroke:#231f20;stroke-width:0.5;stroke-linecap:round;stroke-linejoin:round;stroke-miterlimit:4;stroke-dasharray:2.8, 1.8;stroke-dashoffset:0;stroke-opacity:1"
       id="path838" />
    <path
       d="m 540.002,452.102 c -5.839,0 -5.005,6.951 -5.005,10.01 0,3.059 2.503,5.562 5.005,5.562 2.502,0 5.005,-2.503 5.005,-5.562 0,-3.059 0.835,-10.01 -5.005,-10.01 z"
       style="fill:none;stroke:#231f20;stroke-width:0.5;stroke-linecap:round;stroke-linejoin:round;stroke-miterlimit:4;stroke-dasharray:2.8, 1.8;stroke-dashoffset:0;stroke-opacity:1"
       id="path840" />
    <path
       d="m 538.612,430.132 c -0.904,0.071 -2.503,-22.247 -2.78,-26.418 -0.28,-4.171 -1.114,-24.193 0.277,-24.193"
       style="fill:none;stroke:#231f20;stroke-width:0.5;stroke-linecap:round;stroke-linejoin:round;stroke-miterlimit:4;stroke-dasharray:2.8, 1.8;stroke-dashoffset:0;stroke-opacity:1"
       id="path842" />
    <path
       d="m 534.163,371.735 c -0.834,3.337 -3.617,7.229 -7.231,6.396 -3.615,-0.834 -6.118,-5.446 -5.284,-15.735"
       style="fill:none;stroke:#231f20;stroke-width:0.5;stroke-linecap:round;stroke-linejoin:round;stroke-miterlimit:4;stroke-dasharray:2.8, 1.8;stroke-dashoffset:0;stroke-opacity:1"
       id="path844" />
    <path
       d="m 534.163,363.67 c 0.347,1.977 -1.252,4.034 -3.894,3.616 -3.071,-0.486 -11.209,-1.244 -9.775,-13.832"
       style="fill:none;stroke:#231f20;stroke-width:0.5;stroke-linecap:round;stroke-linejoin:round;stroke-miterlimit:4;stroke-dasharray:2.8, 1.8;stroke-dashoffset:0;stroke-opacity:1"
       id="path846" />
    <path
       d="m 519.827,353.127 c -0.682,3.591 -4.296,4.425 -9.58,2.479 -5.284,-1.946 -11.679,-6.118 -13.348,-9.176 -1.669,-3.059 -0.881,-6.044 1.367,-4.69"
       style="fill:none;stroke:#231f20;stroke-width:0.5;stroke-linecap:round;stroke-linejoin:round;stroke-miterlimit:4;stroke-dasharray:2.8, 1.8;stroke-dashoffset:0;stroke-opacity:1"
       id="path848" />
    <path
       d="m 496.091,344.202 c -2.529,1.392 -8.091,3.34 -12.54,1.949 -4.449,-1.39 -7.509,-3.893 -6.952,-7.786 0.556,-3.893 5.006,-4.728 8.065,-4.728"
       style="fill:none;stroke:#231f20;stroke-width:0.5;stroke-linecap:round;stroke-linejoin:round;stroke-miterlimit:4;stroke-dasharray:2.8, 1.8;stroke-dashoffset:0;stroke-opacity:1"
       id="path850" />
    <path
       d="m 495.397,339.929 c 1.502,-1.981 2.754,-2.607 5.951,-2.469 3.198,0.141 5.701,1.877 5.701,3.268 0,1.392 -1.807,1.392 -3.198,1.112 -1.39,-0.277 -2.433,-0.834 -4.31,-0.277 0,0 -1.097,0.226 -2.418,-0.539"
       style="fill:none;stroke:#231f20;stroke-width:0.5;stroke-linecap:round;stroke-linejoin:round;stroke-miterlimit:4;stroke-dasharray:2.8, 1.8;stroke-dashoffset:0;stroke-opacity:1"
       id="path852" />
    <path
       d="m 536.775,344.185 c 0.332,3.351 1.406,5.025 3.227,5.025 1.818,0 2.894,-1.671 3.226,-5.015"
       style="fill:none;stroke:#231f20;stroke-width:0.5;stroke-linecap:round;stroke-linejoin:round;stroke-miterlimit:4;stroke-dasharray:2.8, 1.8;stroke-dashoffset:0;stroke-opacity:1"
       id="path854" />
    <path
       d="m 543.894,379.521 c -1.39,0 -2.78,22.803 -2.78,25.584 0,2.78 -0.864,24.94 0.278,25.027"
       style="fill:none;stroke:#231f20;stroke-width:0.5;stroke-linecap:round;stroke-linejoin:round;stroke-miterlimit:4;stroke-dasharray:2.8, 1.8;stroke-dashoffset:0;stroke-opacity:1"
       id="path856" />
    <path
       d="m 536.109,379.521 c 1.391,0 2.78,22.803 2.78,25.584 0,2.78 0.866,24.94 -0.277,25.027"
       style="fill:none;stroke:#231f20;stroke-width:0.5;stroke-linecap:round;stroke-linejoin:round;stroke-miterlimit:4;stroke-dasharray:2.8, 1.8;stroke-dashoffset:0;stroke-opacity:1"
       id="path858" />
    <path
       d="m 530.874,491.904 c -1.161,-0.887 -0.048,-2.818 1.341,-2.538 1.391,0.277 5.84,0 7.787,0 1.948,0 6.395,0.277 7.787,0 1.39,-0.28 2.503,1.651 1.342,2.538"
       style="fill:none;stroke:#231f20;stroke-width:0.5;stroke-linecap:round;stroke-linejoin:round;stroke-miterlimit:4;stroke-dasharray:2.8, 1.8;stroke-dashoffset:0;stroke-opacity:1"
       id="path860" />
    <path
       d="m 540.002,479.458 c 0,0 1.54,0.371 3.769,2.147 2.586,2.063 3.937,3.804 4.492,4.449 0.556,0.647 1.962,3.973 2.245,4.9 0,0 5.16,-2.946 8.09,-4.176 2.931,-1.23 12.55,-4.28 16.407,-4.311 3.86,-0.031 16.247,-1.43 18.631,-1.915 2.385,-0.484 8.25,-2.016 8.136,-4.893 -0.114,-2.879 0.047,-5.666 -1.896,-7.229 -1.94,-1.562 -11.527,-6.128 -22.152,-2.234"
       style="fill:none;stroke:#231f20;stroke-width:0.5;stroke-linecap:round;stroke-linejoin:round;stroke-miterlimit:4;stroke-dasharray:2.8, 1.8;stroke-dashoffset:0;stroke-opacity:1"
       id="path862" />
    <path
       d="m 548.263,486.054 c 3.319,-3.862 4.694,-10.79 2.005,-16.319"
       style="fill:none;stroke:#231f20;stroke-width:0.5;stroke-linecap:round;stroke-linejoin:round;stroke-miterlimit:4;stroke-dasharray:2.8, 1.8;stroke-dashoffset:0;stroke-opacity:1"
       id="path864" />
    <path
       d="m 558.289,486.915 c -0.616,-0.966 0.981,-8.315 16.862,-9.185"
       style="fill:none;stroke:#231f20;stroke-width:0.5;stroke-linecap:round;stroke-linejoin:round;stroke-miterlimit:4;stroke-dasharray:2.8, 1.8;stroke-dashoffset:0;stroke-opacity:1"
       id="path866" />
    <path
       d="m 576.748,473.222 c -1.449,-0.138 -4.754,-2.698 -5.327,-4.047"
       style="fill:none;stroke:#231f20;stroke-width:0.5;stroke-linecap:round;stroke-linejoin:round;stroke-miterlimit:4;stroke-dasharray:2.8, 1.8;stroke-dashoffset:0;stroke-opacity:1"
       id="path868" />
    <path
       d="m 585.191,471.843 c 0.734,-2.093 4.37,-5.024 7.307,-6.477"
       style="fill:none;stroke:#231f20;stroke-width:0.5;stroke-linecap:round;stroke-linejoin:round;stroke-miterlimit:4;stroke-dasharray:2.8, 1.8;stroke-dashoffset:0;stroke-opacity:1"
       id="path870" />
    <path
       d="m 588.684,481.248 -0.762,-1.295"
       style="fill:none;stroke:#231f20;stroke-width:0.5;stroke-linecap:round;stroke-linejoin:round;stroke-miterlimit:4;stroke-dasharray:2.8, 1.8;stroke-dashoffset:0;stroke-opacity:1"
       id="path872" />
    <path
       d="m 540.002,479.458 c 0,0 -1.542,0.371 -3.769,2.147 -2.586,2.063 -3.939,3.804 -4.493,4.449 -0.555,0.647 -1.962,3.973 -2.244,4.9 0,0 -5.162,-2.946 -8.091,-4.176 -2.93,-1.23 -12.55,-4.28 -16.407,-4.311 -3.859,-0.031 -16.247,-1.43 -18.631,-1.915 -2.384,-0.484 -8.249,-2.016 -8.135,-4.893 0.114,-2.879 -0.048,-5.666 1.895,-7.229 1.94,-1.562 11.527,-6.128 22.152,-2.234"
       style="fill:none;stroke:#231f20;stroke-width:0.5;stroke-linecap:round;stroke-linejoin:round;stroke-miterlimit:4;stroke-dasharray:2.8, 1.8;stroke-dashoffset:0;stroke-opacity:1"
       id="path874" />
    <path
       d="m 531.74,486.054 c -3.318,-3.862 -4.693,-10.79 -2.005,-16.319"
       style="fill:none;stroke:#231f20;stroke-width:0.5;stroke-linecap:round;stroke-linejoin:round;stroke-miterlimit:4;stroke-dasharray:2.8, 1.8;stroke-dashoffset:0;stroke-opacity:1"
       id="path876" />
    <path
       d="m 521.715,486.915 c 0.615,-0.966 -0.982,-8.315 -16.863,-9.185"
       style="fill:none;stroke:#231f20;stroke-width:0.5;stroke-linecap:round;stroke-linejoin:round;stroke-miterlimit:4;stroke-dasharray:2.8, 1.8;stroke-dashoffset:0;stroke-opacity:1"
       id="path878" />
    <path
       d="m 503.255,473.222 c 1.449,-0.138 4.754,-2.698 5.327,-4.047"
       style="fill:none;stroke:#231f20;stroke-width:0.5;stroke-linecap:round;stroke-linejoin:round;stroke-miterlimit:4;stroke-dasharray:2.8, 1.8;stroke-dashoffset:0;stroke-opacity:1"
       id="path880" />
    <path
       d="m 494.813,471.843 c -0.735,-2.093 -4.371,-5.024 -7.308,-6.477"
       style="fill:none;stroke:#231f20;stroke-width:0.5;stroke-linecap:round;stroke-linejoin:round;stroke-miterlimit:4;stroke-dasharray:2.8, 1.8;stroke-dashoffset:0;stroke-opacity:1"
       id="path882" />
    <path
       d="m 491.32,481.248 0.762,-1.295"
       style="fill:none;stroke:#231f20;stroke-width:0.5;stroke-linecap:round;stroke-linejoin:round;stroke-miterlimit:4;stroke-dasharray:2.8, 1.8;stroke-dashoffset:0;stroke-opacity:1"
       id="path884" />
    <path
       d="m 603.59,658.533 c -2.132,-1.483 2.226,-8.899 9.642,-13.719 7.414,-4.82 10.382,-14.09 12.234,-19.28 1.855,-5.191 11.124,-33 15.574,-42.64 4.449,-9.641 13.719,-19.281 21.876,-16.314 8.156,2.965 1.853,20.763 -3.708,33.741 -5.562,12.977 -16.686,33.37 -20.763,37.819 -4.08,4.449 -10.012,7.416 -15.573,14.089 -5.563,6.675 -13.007,10.669 -19.282,6.304"
       style="fill:#d3d2d2;fill-opacity:1;fill-rule:nonzero;stroke:none;stroke-width:0.1"
       id="path886" />
    <path
       d="m 603.59,658.533 c -2.132,-1.483 2.226,-8.899 9.642,-13.719 7.414,-4.82 10.382,-14.09 12.234,-19.28 1.855,-5.191 11.124,-33 15.574,-42.64 4.449,-9.641 13.719,-19.281 21.876,-16.314 8.156,2.965 1.853,20.763 -3.708,33.741 -5.562,12.977 -16.686,33.37 -20.763,37.819 -4.08,4.449 -10.012,7.416 -15.573,14.089 -5.563,6.675 -13.007,10.669 -19.282,6.304 z"
       style="fill:none;stroke:#231f20;stroke-width:0.75;stroke-linecap:round;stroke-linejoin:round;stroke-miterlimit:4;stroke-dasharray:0, 2;stroke-dashoffset:0;stroke-opacity:1"
       id="path888" />
    <path
       d="m 476.414,658.533 c 2.131,-1.483 -2.226,-8.899 -9.641,-13.719 -7.416,-4.82 -10.383,-14.09 -12.235,-19.28 -1.854,-5.191 -11.123,-33 -15.574,-42.64 -4.449,-9.641 -13.718,-19.281 -21.876,-16.314 -8.156,2.965 -1.853,20.763 3.708,33.741 5.562,12.977 16.686,33.37 20.764,37.819 4.079,4.449 10.012,7.416 15.573,14.089 5.562,6.675 13.006,10.669 19.281,6.304"
       style="fill:#d3d2d2;fill-opacity:1;fill-rule:nonzero;stroke:none;stroke-width:0.1"
       id="path890" />
    <path
       d="m 476.414,658.533 c 2.131,-1.483 -2.226,-8.899 -9.641,-13.719 -7.416,-4.82 -10.383,-14.09 -12.235,-19.28 -1.854,-5.191 -11.123,-33 -15.574,-42.64 -4.449,-9.641 -13.718,-19.281 -21.876,-16.314 -8.156,2.965 -1.853,20.763 3.708,33.741 5.562,12.977 16.686,33.37 20.764,37.819 4.079,4.449 10.012,7.416 15.573,14.089 5.562,6.675 13.006,10.669 19.281,6.304 z"
       style="fill:none;stroke:#231f20;stroke-width:0.75;stroke-linecap:round;stroke-linejoin:round;stroke-miterlimit:4;stroke-dasharray:0, 2;stroke-dashoffset:0;stroke-opacity:1"
       id="path892" />
    <path
       d="m 462.147,621.524 c 0.563,-3.268 10.188,1.785 16.862,4.381 6.674,2.595 28.179,8.991 37.356,9.176 6.313,0.127 16.407,-3.244 23.637,-3.244 7.231,0 17.325,3.371 23.637,3.244 9.176,-0.185 30.683,-6.581 37.356,-9.176 6.674,-2.596 16.299,-7.649 16.863,-4.381"
       style="fill:none;stroke:#231f20;stroke-width:0.75;stroke-linecap:round;stroke-linejoin:round;stroke-miterlimit:4;stroke-dasharray:0, 2;stroke-dashoffset:0;stroke-opacity:1"
       id="path894" />
    <path
       d="m 450.664,580.297 c -0.58,-1.572 -0.459,-2.953 0.351,-4.171 1.112,-1.667 5.006,-3.753 7.786,-1.111 4.441,4.218 8.899,9.733 13.905,10.289 5.005,0.556 19.187,-3.059 27.808,-3.059 8.62,0 30.85,0.677 39.488,0.835 8.638,-0.158 30.869,-0.835 39.488,-0.835 8.621,0 22.802,3.615 27.808,3.059 5.006,-0.556 9.464,-6.071 13.905,-10.289 2.781,-2.642 6.673,-0.556 7.787,1.111 0.81,1.218 0.926,2.612 0.352,4.171"
       style="fill:none;stroke:#231f20;stroke-width:0.75;stroke-linecap:round;stroke-linejoin:round;stroke-miterlimit:4;stroke-dasharray:0, 2;stroke-dashoffset:0;stroke-opacity:1"
       id="path896" />
    <path
       d="m 447.013,571.012 c 4.619,3.784 3.445,-5.452 9.564,-9.902 6.118,-4.448 19.465,-3.893 28.087,-3.893 8.62,0 23.636,-3.058 35.038,-4.727 11.401,-1.669 16.963,2.503 20.3,2.503 3.337,0 8.898,-4.172 20.299,-2.503 11.404,1.669 26.418,4.727 35.039,4.727 8.621,0 21.969,-0.555 28.087,3.893 6.117,4.45 4.945,13.686 9.565,9.902"
       style="fill:none;stroke:#231f20;stroke-width:0.75;stroke-linecap:round;stroke-linejoin:round;stroke-miterlimit:4;stroke-dasharray:0, 2;stroke-dashoffset:0;stroke-opacity:1"
       id="path898" />
    <path
       d="m 437.549,552.834 c 0.159,-8.277 6.504,-9.081 10.398,-9.359 3.864,-0.276 10.823,-1.321 18.578,-6.381 10.074,-6.573 13.087,-5.126 19.25,-6.296 6.916,-1.31 14.708,-2.031 27.777,-7.037 13.071,-5.006 22,-6.31 26.45,-6.31 4.451,0 13.38,1.304 26.451,6.31 13.068,5.006 20.86,5.727 27.775,7.037 6.164,1.17 9.178,-0.277 19.251,6.296 7.755,5.06 14.715,6.105 18.578,6.381 3.894,0.278 10.238,1.082 10.399,9.359"
       style="fill:none;stroke:#231f20;stroke-width:0.75;stroke-linecap:round;stroke-linejoin:round;stroke-miterlimit:4;stroke-dasharray:0, 2;stroke-dashoffset:0;stroke-opacity:1"
       id="path900" />
    <path
       d="m 540.002,657.05 c -7.068,0 -23.359,3.336 -22.803,8.342 0.924,8.311 13.469,15.017 22.803,15.017 9.334,0 21.88,-6.706 22.802,-15.017 0.558,-5.006 -15.735,-8.342 -22.802,-8.342"
       style="fill:#d3d2d2;fill-opacity:1;fill-rule:nonzero;stroke:none;stroke-width:0.1"
       id="path902" />
    <path
       d="m 540.002,657.05 c -7.068,0 -23.359,3.336 -22.803,8.342 0.924,8.311 13.469,15.017 22.803,15.017 9.334,0 21.88,-6.706 22.802,-15.017 0.558,-5.006 -15.735,-8.342 -22.802,-8.342 z"
       style="fill:none;stroke:#231f20;stroke-width:0.75;stroke-linecap:round;stroke-linejoin:round;stroke-miterlimit:4;stroke-dasharray:0, 2;stroke-dashoffset:0;stroke-opacity:1"
       id="path904" />
  </g>
</svg>
