<?xml version="1.0" encoding="UTF-8" standalone="no"?>
<!-- Created with Inkscape (http://www.inkscape.org/) -->

<svg
   version="1.1"
   id="svg2"
   width="1440"
   height="1344"
   viewBox="0 0 1440 1344"
   xmlns="http://www.w3.org/2000/svg"
   xmlns:svg="http://www.w3.org/2000/svg">
  <defs
     id="defs6" />
  <g
     id="g8">
    <path
       d="m 540.002,532.121 c -15.783,0 -36.698,9.177 -35.029,27.808 1.669,18.632 21.096,25.307 35.029,25.307 13.934,0 33.36,-6.675 35.028,-25.307 1.67,-18.631 -19.244,-27.808 -35.028,-27.808"
       style="fill:#ffffff;fill-opacity:1;fill-rule:nonzero;stroke:none;stroke-width:0.1"
       id="path672" />
    <path
       d="m 540.002,532.121 c -15.783,0 -36.698,9.177 -35.029,27.808 1.669,18.632 21.096,25.307 35.029,25.307 13.934,0 33.36,-6.675 35.028,-25.307 1.67,-18.631 -19.244,-27.808 -35.028,-27.808 z"
       style="fill:none;stroke:#231f20;stroke-width:0.75;stroke-linecap:round;stroke-linejoin:round;stroke-miterlimit:4;stroke-dasharray:none;stroke-opacity:1"
       id="path674" />
    <path
       d="m 540.002,334.126 c -5.536,0 -17.15,-2.503 -28.551,-4.171 -26.193,-3.832 -60.068,2.224 -77.308,9.732 -17.241,7.51 -20.022,14.738 -35.873,27.252 -15.851,12.516 -25.306,35.873 -25.306,51.168 0,15.295 5.84,35.596 21.413,57.842 15.573,22.246 41.991,34.482 53.67,35.595 11.679,1.113 37.51,0.955 45.328,-0.557 8.621,-1.67 24.193,-9.734 30.589,-10.845 6.397,-1.111 14.182,0.277 16.038,0.277 1.855,0 9.641,-1.388 16.037,-0.277 6.395,1.111 21.969,9.175 30.59,10.845 7.817,1.512 33.647,1.67 45.326,0.557 11.681,-1.113 38.099,-13.349 53.671,-35.595 15.572,-22.246 21.413,-42.547 21.413,-57.842 0,-15.295 -9.454,-38.652 -25.306,-51.168 -15.852,-12.514 -18.632,-19.742 -35.871,-27.252 -17.242,-7.508 -51.117,-13.564 -77.31,-9.732 -11.401,1.668 -23.014,4.171 -28.55,4.171"
       style="fill:#ffffff;fill-opacity:1;fill-rule:nonzero;stroke:none;stroke-width:0.1"
       id="path676" />
    <path
       d="m 540.002,334.126 c -5.536,0 -17.15,-2.503 -28.551,-4.171 -26.193,-3.832 -60.068,2.224 -77.308,9.732 -17.241,7.51 -20.022,14.738 -35.873,27.252 -15.851,12.516 -25.306,35.873 -25.306,51.168 0,15.295 5.84,35.596 21.413,57.842 15.573,22.246 41.991,34.482 53.67,35.595 11.679,1.113 37.51,0.955 45.328,-0.557 8.621,-1.67 24.193,-9.734 30.589,-10.845 6.397,-1.111 14.182,0.277 16.038,0.277 1.855,0 9.641,-1.388 16.037,-0.277 6.395,1.111 21.969,9.175 30.59,10.845 7.817,1.512 33.647,1.67 45.326,0.557 11.681,-1.113 38.099,-13.349 53.671,-35.595 15.572,-22.246 21.413,-42.547 21.413,-57.842 0,-15.295 -9.454,-38.652 -25.306,-51.168 -15.852,-12.514 -18.632,-19.742 -35.871,-27.252 -17.242,-7.508 -51.117,-13.564 -77.31,-9.732 -11.401,1.668 -23.014,4.171 -28.55,4.171 z"
       style="fill:none;stroke:#231f20;stroke-width:0.75;stroke-linecap:round;stroke-linejoin:round;stroke-miterlimit:4;stroke-dasharray:none;stroke-opacity:1"
       id="path678" />
    <path
       d="m 626.394,329.955 c 0.277,-2.364 2.503,-3.061 4.171,-3.061 1.67,0 3.822,1.543 3.822,3.77 0,2.224 -2.484,4.218 -4.707,3.664 -2.222,-0.551 -3.466,-2.848 -3.286,-4.373"
       style="fill:#ffffff;fill-opacity:1;fill-rule:nonzero;stroke:none;stroke-width:0.1"
       id="path680" />
    <path
       d="m 626.394,329.955 c 0.277,-2.364 2.503,-3.061 4.171,-3.061 1.67,0 3.822,1.543 3.822,3.77 0,2.224 -2.484,4.218 -4.707,3.664 -2.222,-0.551 -3.466,-2.848 -3.286,-4.373 z"
       style="fill:none;stroke:#231f20;stroke-width:0.5;stroke-linecap:round;stroke-linejoin:round;stroke-miterlimit:4;stroke-dasharray:none;stroke-opacity:1"
       id="path682" />
    <path
       d="m 554.516,466.54 c -0.277,1.389 0.132,2.735 1.8,3.846 1.671,1.114 7.231,5.842 11.401,5.563 4.173,-0.278 3.338,-4.727 3.896,-6.674 0.555,-1.945 1.11,-6.951 -1.67,-9.178 -2.78,-2.224 -2.78,-10.844 -1.113,-13.625 1.67,-2.781 7.231,-9.176 6.954,-11.123 -0.278,-1.947 -1.391,-6.119 -6.954,-10.291 -5.561,-4.17 -14.182,-23.635 -18.352,-47.551 -4.173,-23.916 -1.135,-40.459 -0.011,-44.562"
       style="fill:none;stroke:#231f20;stroke-width:0.5;stroke-linecap:butt;stroke-linejoin:miter;stroke-miterlimit:4;stroke-dasharray:none;stroke-opacity:1"
       id="path684" />
    <path
       d="m 575.174,369.681 c -1.107,1.006 -1.812,2.16 -1.893,3.377 -0.416,6.164 -3.708,19.315 -5.283,27.252 -1.257,6.326 -3.893,11.123 -6.911,12.92"
       style="fill:none;stroke:#231f20;stroke-width:0.5;stroke-linecap:butt;stroke-linejoin:miter;stroke-miterlimit:4;stroke-dasharray:none;stroke-opacity:1"
       id="path686" />
    <path
       d="m 504.83,369.681 c 1.108,1.006 1.81,2.16 1.892,3.377 0.418,6.164 3.707,19.315 5.284,27.252 1.258,6.326 3.894,11.123 6.91,12.92"
       style="fill:none;stroke:#231f20;stroke-width:0.5;stroke-linecap:butt;stroke-linejoin:miter;stroke-miterlimit:4;stroke-dasharray:none;stroke-opacity:1"
       id="path688" />
    <path
       d="m 658.191,374.869 c -3.036,-1.782 -7.046,-6.817 -4.543,-10.709 2.502,-3.893 8.341,-5.006 12.791,-1.67 4.448,3.338 7.23,7.51 3.058,11.123 -4.17,3.615 -5.082,4.904 -11.306,1.256 z"
       style="fill:none;stroke:#231f20;stroke-width:0.5;stroke-linecap:butt;stroke-linejoin:miter;stroke-miterlimit:4;stroke-dasharray:none;stroke-opacity:1"
       id="path690" />
    <path
       d="m 611.935,512.267 c -2.783,-1.836 -4.067,-5.745 -4.45,-8.231 -0.417,-2.712 -3.894,-11.958 2.225,-8.62 6.119,3.335 23.358,3.892 31.979,1.945 8.621,-1.945 30.311,-11.401 45.327,-38.653 15.017,-27.253 16.407,-37.82 12.236,-52.835 -4.17,-15.018 -10.01,-23.639 -12.791,-25.864 -2.78,-2.224 -6.675,-0.834 -7.508,-2.781 -0.835,-1.945 1.031,-6.566 8.581,-4.951"
       style="fill:none;stroke:#231f20;stroke-width:0.5;stroke-linecap:butt;stroke-linejoin:miter;stroke-miterlimit:4;stroke-dasharray:none;stroke-opacity:1"
       id="path692" />
    <path
       d="m 606.535,495.244 c -1.885,-3.325 -7.633,-13 -5.071,-18"
       style="fill:none;stroke:#231f20;stroke-width:0.5;stroke-linecap:butt;stroke-linejoin:miter;stroke-miterlimit:4;stroke-dasharray:none;stroke-opacity:1"
       id="path694" />
    <path
       d="m 570.367,474.658 c 2.636,3.238 12.405,9.632 19.876,8.519 5.294,-0.785 7.418,-1.843 10.799,-0.644"
       style="fill:none;stroke:#231f20;stroke-width:0.5;stroke-linecap:butt;stroke-linejoin:miter;stroke-miterlimit:4;stroke-dasharray:none;stroke-opacity:1"
       id="path696" />
    <path
       d="m 569.853,505.091 c 0.647,-4.672 -0.224,-21.287 -7.157,-30.498"
       style="fill:none;stroke:#231f20;stroke-width:0.5;stroke-linecap:butt;stroke-linejoin:miter;stroke-miterlimit:4;stroke-dasharray:none;stroke-opacity:1"
       id="path698" />
    <path
       d="m 453.609,329.955 c -0.279,-2.364 -2.503,-3.061 -4.172,-3.061 -1.668,0 -3.82,1.543 -3.82,3.77 0,2.224 2.484,4.218 4.707,3.664 2.222,-0.551 3.465,-2.848 3.285,-4.373"
       style="fill:#ffffff;fill-opacity:1;fill-rule:nonzero;stroke:none;stroke-width:0.1"
       id="path700" />
    <path
       d="m 453.609,329.955 c -0.279,-2.364 -2.503,-3.061 -4.172,-3.061 -1.668,0 -3.82,1.543 -3.82,3.77 0,2.224 2.484,4.218 4.707,3.664 2.222,-0.551 3.465,-2.848 3.285,-4.373 z"
       style="fill:none;stroke:#231f20;stroke-width:0.5;stroke-linecap:round;stroke-linejoin:round;stroke-miterlimit:4;stroke-dasharray:none;stroke-opacity:1"
       id="path702" />
    <path
       d="m 525.038,466.25 c 0.279,1.388 0.317,3.025 -1.352,4.136 -1.669,1.114 -7.23,5.842 -11.401,5.563 -4.172,-0.278 -3.337,-4.727 -3.894,-6.674 -0.556,-1.945 -1.112,-6.951 1.669,-9.178 2.781,-2.224 2.781,-10.844 1.111,-13.625 -1.668,-2.781 -7.229,-9.176 -6.951,-11.123 0.278,-1.947 1.391,-6.119 6.951,-10.291 5.563,-4.17 14.184,-23.635 18.354,-47.551 4.172,-23.916 1.136,-40.459 0.011,-44.562"
       style="fill:none;stroke:#231f20;stroke-width:0.5;stroke-linecap:butt;stroke-linejoin:miter;stroke-miterlimit:4;stroke-dasharray:none;stroke-opacity:1"
       id="path704" />
    <path
       d="m 421.813,374.869 c 3.036,-1.782 7.046,-6.817 4.543,-10.709 -2.502,-3.893 -8.343,-5.006 -12.792,-1.67 -4.449,3.338 -7.23,7.51 -3.059,11.123 4.172,3.615 5.084,4.904 11.308,1.256 z"
       style="fill:none;stroke:#231f20;stroke-width:0.5;stroke-linecap:butt;stroke-linejoin:miter;stroke-miterlimit:4;stroke-dasharray:none;stroke-opacity:1"
       id="path706" />
    <path
       d="m 468.07,512.267 c 2.78,-1.836 4.065,-5.745 4.449,-8.231 0.416,-2.712 3.893,-11.958 -2.226,-8.62 -6.118,3.335 -23.359,3.892 -31.979,1.945 -8.62,-1.945 -30.311,-11.401 -45.328,-38.653 -15.016,-27.253 -16.406,-37.82 -12.236,-52.835 4.172,-15.018 10.011,-23.639 12.792,-25.864 2.782,-2.224 6.674,-0.834 7.508,-2.781 0.835,-1.945 -1.031,-6.566 -8.58,-4.951"
       style="fill:none;stroke:#231f20;stroke-width:0.5;stroke-linecap:butt;stroke-linejoin:miter;stroke-miterlimit:4;stroke-dasharray:none;stroke-opacity:1"
       id="path708" />
    <path
       d="m 473.468,495.244 c 1.885,-3.325 7.633,-13 5.072,-18"
       style="fill:none;stroke:#231f20;stroke-width:0.5;stroke-linecap:butt;stroke-linejoin:miter;stroke-miterlimit:4;stroke-dasharray:none;stroke-opacity:1"
       id="path710" />
    <path
       d="m 509.637,474.658 c -2.637,3.238 -12.405,9.632 -19.878,8.519 -5.292,-0.785 -7.417,-1.843 -10.799,-0.644"
       style="fill:none;stroke:#231f20;stroke-width:0.5;stroke-linecap:butt;stroke-linejoin:miter;stroke-miterlimit:4;stroke-dasharray:none;stroke-opacity:1"
       id="path712" />
    <path
       d="m 510.15,505.091 c -0.647,-4.672 0.224,-21.287 7.158,-30.498"
       style="fill:none;stroke:#231f20;stroke-width:0.5;stroke-linecap:butt;stroke-linejoin:miter;stroke-miterlimit:4;stroke-dasharray:none;stroke-opacity:1"
       id="path714" />
    <path
       d="m 524.671,469.466 c 2.932,-0.084 6.245,0.086 9.582,0.366 3.337,0.277 3.893,9.453 4.171,13.345 0.279,3.895 0.564,9.735 1.578,9.735 1.014,0 1.298,-5.84 1.578,-9.735 0.277,-3.892 0.832,-13.068 4.17,-13.345 3.337,-0.28 6.56,-0.45 9.493,-0.366"
       style="fill:none;stroke:#231f20;stroke-width:0.5;stroke-linecap:butt;stroke-linejoin:miter;stroke-miterlimit:4;stroke-dasharray:none;stroke-opacity:1"
       id="path716" />
    <path
       d="m 540.002,430.064 c -4.012,0 -3.185,6.119 0,6.119 3.182,0 4.012,-6.119 0,-6.119"
       style="fill:#706d6e;fill-opacity:1;fill-rule:nonzero;stroke:none;stroke-width:0.1"
       id="path718" />
    <path
       d="m 540.002,430.064 c -4.012,0 -3.185,6.119 0,6.119 3.182,0 4.012,-6.119 0,-6.119 z"
       style="fill:none;stroke:#231f20;stroke-width:0.75;stroke-linecap:round;stroke-linejoin:round;stroke-miterlimit:4;stroke-dasharray:none;stroke-opacity:1"
       id="path720" />
    <path
       d="m 540.002,463.355 c 1.433,0 8.988,-0.705 12.357,1.338 1.135,0.685 1.668,1.148 2.157,1.847"
       style="fill:none;stroke:#231f20;stroke-width:0.5;stroke-linecap:butt;stroke-linejoin:miter;stroke-miterlimit:4;stroke-dasharray:none;stroke-opacity:1"
       id="path722" />
    <path
       d="m 540.002,463.355 c -1.434,0 -8.989,-0.705 -12.358,1.338 -1.135,0.685 -1.668,1.148 -2.157,1.847"
       style="fill:none;stroke:#231f20;stroke-width:0.5;stroke-linecap:butt;stroke-linejoin:miter;stroke-miterlimit:4;stroke-dasharray:none;stroke-opacity:1"
       id="path724" />
    <path
       d="m 647.399,373.603 c -17.797,0.279 -52.429,-5.83 -58.824,-7.219 -4.647,-1.011 -10.457,0.621 -13.401,3.297"
       style="fill:none;stroke:#231f20;stroke-width:0.5;stroke-linecap:round;stroke-linejoin:round;stroke-miterlimit:4;stroke-dasharray:2.8, 1.8;stroke-dashoffset:0;stroke-opacity:1"
       id="path726" />
    <path
       d="m 574.707,431.849 c 7.75,-3.453 46.959,-26.533 70.597,-55.734 l 0.884,-1.143"
       style="fill:none;stroke:#231f20;stroke-width:0.5;stroke-linecap:round;stroke-linejoin:round;stroke-miterlimit:4;stroke-dasharray:2.8, 1.8;stroke-dashoffset:0;stroke-opacity:1"
       id="path728" />
    <path
       d="m 568.83,446.472 c 6.676,-1.39 43.938,-19.744 64.518,-36.984 20.577,-17.242 22.523,-21.692 29.753,-31.703 l 0.517,-0.745"
       style="fill:none;stroke:#231f20;stroke-width:0.5;stroke-linecap:round;stroke-linejoin:round;stroke-miterlimit:4;stroke-dasharray:2.8, 1.8;stroke-dashoffset:0;stroke-opacity:1"
       id="path730" />
    <path
       d="m 432.603,373.603 c 17.798,0.279 52.43,-5.83 58.825,-7.219 4.647,-1.011 10.456,0.621 13.402,3.297"
       style="fill:none;stroke:#231f20;stroke-width:0.5;stroke-linecap:round;stroke-linejoin:round;stroke-miterlimit:4;stroke-dasharray:2.8, 1.8;stroke-dashoffset:0;stroke-opacity:1"
       id="path732" />
    <path
       d="m 625.655,410.599 c -3.347,-2.342 -2.653,-11.732 0.634,-14.742 3.286,-3.012 8.493,-4.754 12.341,-1.387 2.966,2.596 -0.753,11.168 -4.028,13.961 -2.612,2.227 -7.095,3.465 -8.947,2.168 z"
       style="fill:none;stroke:#231f20;stroke-width:0.5;stroke-linecap:round;stroke-linejoin:round;stroke-miterlimit:4;stroke-dasharray:2.8, 1.8;stroke-dashoffset:0;stroke-opacity:1"
       id="path734" />
    <path
       d="m 661.724,379.714 c 1.586,-2.25 -4.635,-5.341 -6.031,-6.564 -1.155,-1.012 -5.495,-1.74 -8.294,0.453 -0.582,0.457 -0.985,0.984 -1.434,1.721 -2.595,4.263 0.822,8.394 3.417,10.062 0,0 3.599,2.756 6.899,1.842"
       style="fill:none;stroke:#231f20;stroke-width:0.5;stroke-linecap:round;stroke-linejoin:round;stroke-miterlimit:4;stroke-dasharray:2.8, 1.8;stroke-dashoffset:0;stroke-opacity:1"
       id="path736" />
    <path
       d="m 601.464,477.244 c 0.305,-0.598 0.729,-1.127 1.292,-1.573 5.286,-4.171 25.029,-15.574 31.702,-24.195 6.675,-8.619 19.467,-29.475 26.14,-46.717 6.676,-17.24 14.456,-25.304 20.158,-26.418"
       style="fill:none;stroke:#231f20;stroke-width:0.5;stroke-linecap:round;stroke-linejoin:round;stroke-miterlimit:4;stroke-dasharray:2.8, 1.8;stroke-dashoffset:0;stroke-opacity:1"
       id="path738" />
    <path
       d="m 603.739,490.054 c 6.803,1.744 24.046,5.916 37.117,2.024 13.069,-3.895 21.413,-9.178 33.646,-25.028 12.237,-15.851 19.746,-34.482 21.135,-47.275 1.391,-12.791 -6.466,-28.012 -9.703,-33.408 -0.857,-1.428 -2.095,-3.172 -3.406,-3.746 -2.803,-1.233 -2.413,-3.813 -0.504,-4.1"
       style="fill:none;stroke:#231f20;stroke-width:0.5;stroke-linecap:round;stroke-linejoin:round;stroke-miterlimit:4;stroke-dasharray:2.8, 1.8;stroke-dashoffset:0;stroke-opacity:1"
       id="path740" />
    <path
       d="m 559.376,441.746 c -2.122,0.666 -2.502,-4.729 -3.615,-8.344 -1.113,-3.615 -6.118,-13.348 -4.171,-15.016 1.946,-1.67 6.397,-1.113 9.732,4.727 3.338,5.84 7.788,15.572 -1.946,18.633 z"
       style="fill:none;stroke:#231f20;stroke-width:0.5;stroke-linecap:round;stroke-linejoin:round;stroke-miterlimit:4;stroke-dasharray:2.8, 1.8;stroke-dashoffset:0;stroke-opacity:1"
       id="path742" />
    <path
       d="m 546.305,449.949 c 2.456,0.49 6.018,-2.514 5.462,-5.295 -0.555,-2.78 -2.701,-4.791 -6.017,-4.578 -3.316,0.213 -4.45,3.058 -4.17,5.562 0.277,2.502 1.945,3.754 4.725,4.311 z"
       style="fill:none;stroke:#231f20;stroke-width:0.5;stroke-linecap:round;stroke-linejoin:round;stroke-miterlimit:4;stroke-dasharray:2.8, 1.8;stroke-dashoffset:0;stroke-opacity:1"
       id="path744" />
    <path
       d="m 575.449,478.82 c 1.17,-2.315 5.895,-7.598 14.516,-6.485 8.621,1.112 8.993,3.84 11.032,6.229"
       style="fill:none;stroke:#231f20;stroke-width:0.5;stroke-linecap:round;stroke-linejoin:round;stroke-miterlimit:4;stroke-dasharray:2.8, 1.8;stroke-dashoffset:0;stroke-opacity:1"
       id="path746" />
    <path
       d="m 568.808,458.566 c 4.473,-0.971 10.314,0.42 15.874,4.312 5.561,3.893 12.971,8.739 16.775,14.381"
       style="fill:none;stroke:#231f20;stroke-width:0.5;stroke-linecap:round;stroke-linejoin:round;stroke-miterlimit:4;stroke-dasharray:2.8, 1.8;stroke-dashoffset:0;stroke-opacity:1"
       id="path748" />
    <path
       d="m 553.258,497.917 c 3.899,0.52 7.509,-3.892 7.231,-6.673 -0.278,-2.782 -2.502,-6.118 -6.676,-6.118 -4.17,0 -6.115,2.223 -6.115,5.84 0,3.616 1.389,6.395 5.56,6.951 z"
       style="fill:none;stroke:#231f20;stroke-width:0.5;stroke-linecap:round;stroke-linejoin:round;stroke-miterlimit:4;stroke-dasharray:2.8, 1.8;stroke-dashoffset:0;stroke-opacity:1"
       id="path750" />
    <path
       d="m 505.297,431.849 c -7.752,-3.453 -46.962,-26.533 -70.598,-55.734 l -0.882,-1.143"
       style="fill:none;stroke:#231f20;stroke-width:0.5;stroke-linecap:round;stroke-linejoin:round;stroke-miterlimit:4;stroke-dasharray:2.8, 1.8;stroke-dashoffset:0;stroke-opacity:1"
       id="path752" />
    <path
       d="m 511.171,446.472 c -6.673,-1.39 -43.936,-19.744 -64.514,-36.984 -20.578,-17.242 -22.526,-21.692 -29.755,-31.703 l -0.518,-0.745"
       style="fill:none;stroke:#231f20;stroke-width:0.5;stroke-linecap:round;stroke-linejoin:round;stroke-miterlimit:4;stroke-dasharray:2.8, 1.8;stroke-dashoffset:0;stroke-opacity:1"
       id="path754" />
    <path
       d="m 454.35,410.599 c 3.345,-2.342 2.65,-11.732 -0.635,-14.742 -3.286,-3.012 -8.493,-4.754 -12.341,-1.387 -2.967,2.596 0.751,11.168 4.029,13.961 2.61,2.227 7.094,3.465 8.947,2.168 z"
       style="fill:none;stroke:#231f20;stroke-width:0.5;stroke-linecap:round;stroke-linejoin:round;stroke-miterlimit:4;stroke-dasharray:2.8, 1.8;stroke-dashoffset:0;stroke-opacity:1"
       id="path756" />
    <path
       d="m 418.28,379.714 c -1.588,-2.25 4.635,-5.341 6.03,-6.564 1.156,-1.012 5.496,-1.74 8.293,0.453 0.582,0.457 0.987,0.984 1.436,1.721 2.594,4.263 -0.824,8.394 -3.418,10.062 0,0 -3.598,2.756 -6.897,1.842"
       style="fill:none;stroke:#231f20;stroke-width:0.5;stroke-linecap:round;stroke-linejoin:round;stroke-miterlimit:4;stroke-dasharray:2.8, 1.8;stroke-dashoffset:0;stroke-opacity:1"
       id="path758" />
    <path
       d="m 478.54,477.244 c -0.306,-0.598 -0.73,-1.127 -1.294,-1.573 -5.284,-4.171 -25.028,-15.574 -31.702,-24.195 -6.673,-8.619 -19.465,-29.475 -26.14,-46.717 -6.674,-17.24 -14.455,-25.304 -20.158,-26.418"
       style="fill:none;stroke:#231f20;stroke-width:0.5;stroke-linecap:round;stroke-linejoin:round;stroke-miterlimit:4;stroke-dasharray:2.8, 1.8;stroke-dashoffset:0;stroke-opacity:1"
       id="path760" />
    <path
       d="m 476.265,490.054 c -6.805,1.744 -24.047,5.916 -37.116,2.024 -13.07,-3.895 -21.413,-9.178 -33.649,-25.028 -12.236,-15.851 -19.744,-34.482 -21.134,-47.275 -1.39,-12.791 6.466,-28.012 9.702,-33.408 0.858,-1.428 2.097,-3.172 3.408,-3.746 2.802,-1.233 2.412,-3.813 0.503,-4.1"
       style="fill:none;stroke:#231f20;stroke-width:0.5;stroke-linecap:round;stroke-linejoin:round;stroke-miterlimit:4;stroke-dasharray:2.8, 1.8;stroke-dashoffset:0;stroke-opacity:1"
       id="path762" />
    <path
       d="m 520.626,441.746 c 2.124,0.666 2.503,-4.729 3.616,-8.344 1.113,-3.615 6.119,-13.348 4.172,-15.016 -1.948,-1.67 -6.397,-1.113 -9.734,4.727 -3.337,5.84 -7.786,15.572 1.946,18.633 z"
       style="fill:none;stroke:#231f20;stroke-width:0.5;stroke-linecap:round;stroke-linejoin:round;stroke-miterlimit:4;stroke-dasharray:2.8, 1.8;stroke-dashoffset:0;stroke-opacity:1"
       id="path764" />
    <path
       d="m 554.516,466.54 c 0.397,-0.197 0.81,-0.562 1.245,-1.16 2.226,-3.056 5.46,-10.502 3.058,-14.459 -2.571,-4.24 -4.031,-7.439 -5.006,-11.959 -1.333,-6.197 -9.47,-19.187 -13.811,-19.187"
       style="fill:none;stroke:#231f20;stroke-width:0.5;stroke-linecap:round;stroke-linejoin:round;stroke-miterlimit:4;stroke-dasharray:2.8, 1.8;stroke-dashoffset:0;stroke-opacity:1"
       id="path766" />
    <path
       d="m 525.487,466.54 c -0.396,-0.197 -0.81,-0.562 -1.245,-1.16 -2.225,-3.056 -5.459,-10.502 -3.058,-14.459 2.571,-4.24 4.032,-7.439 5.006,-11.959 1.333,-6.197 9.47,-19.187 13.812,-19.187"
       style="fill:none;stroke:#231f20;stroke-width:0.5;stroke-linecap:round;stroke-linejoin:round;stroke-miterlimit:4;stroke-dasharray:2.8, 1.8;stroke-dashoffset:0;stroke-opacity:1"
       id="path768" />
    <path
       d="m 540.002,424.642 c -2.68,0 -6.027,4.186 -6.027,8.969 0,6.812 4.962,7.855 6.027,7.855 1.065,0 6.026,-1.043 6.026,-7.855 0,-4.783 -3.347,-8.969 -6.026,-8.969 z"
       style="fill:none;stroke:#231f20;stroke-width:0.5;stroke-linecap:round;stroke-linejoin:round;stroke-miterlimit:4;stroke-dasharray:2.8, 1.8;stroke-dashoffset:0;stroke-opacity:1"
       id="path770" />
    <path
       d="m 533.697,449.949 c -2.453,0.49 -6.018,-2.514 -5.461,-5.295 0.556,-2.78 2.7,-4.791 6.017,-4.578 3.317,0.213 4.45,3.058 4.171,5.562 -0.278,2.502 -1.946,3.754 -4.727,4.311 z"
       style="fill:none;stroke:#231f20;stroke-width:0.5;stroke-linecap:round;stroke-linejoin:round;stroke-miterlimit:4;stroke-dasharray:2.8, 1.8;stroke-dashoffset:0;stroke-opacity:1"
       id="path772" />
    <path
       d="m 504.555,478.82 c -1.169,-2.315 -5.897,-7.598 -14.516,-6.485 -8.621,1.112 -8.996,3.84 -11.034,6.229"
       style="fill:none;stroke:#231f20;stroke-width:0.5;stroke-linecap:round;stroke-linejoin:round;stroke-miterlimit:4;stroke-dasharray:2.8, 1.8;stroke-dashoffset:0;stroke-opacity:1"
       id="path774" />
    <path
       d="m 511.194,458.566 c -4.472,-0.971 -10.311,0.42 -15.873,4.312 -5.562,3.893 -12.971,8.739 -16.774,14.381"
       style="fill:none;stroke:#231f20;stroke-width:0.5;stroke-linecap:round;stroke-linejoin:round;stroke-miterlimit:4;stroke-dasharray:2.8, 1.8;stroke-dashoffset:0;stroke-opacity:1"
       id="path776" />
    <path
       d="m 526.745,497.917 c -3.899,0.52 -7.508,-3.892 -7.23,-6.673 0.277,-2.782 2.502,-6.118 6.674,-6.118 4.172,0 6.118,2.223 6.118,5.84 0,3.616 -1.391,6.395 -5.562,6.951 z"
       style="fill:none;stroke:#231f20;stroke-width:0.5;stroke-linecap:round;stroke-linejoin:round;stroke-miterlimit:4;stroke-dasharray:2.8, 1.8;stroke-dashoffset:0;stroke-opacity:1"
       id="path778" />
    <path
       d="m 567.076,403.982 c 2.048,0.5 4.537,-2.281 5.647,-4.785 1.112,-2.502 2.225,-4.727 4.728,-5.006 2.503,-0.277 6.954,-2.779 7.231,-9.176 0.278,-6.396 -5.09,-15.365 -9.508,-15.334"
       style="fill:none;stroke:#231f20;stroke-width:0.5;stroke-linecap:round;stroke-linejoin:round;stroke-miterlimit:4;stroke-dasharray:2.8, 1.8;stroke-dashoffset:0;stroke-opacity:1"
       id="path780" />
    <path
       d="m 512.928,403.982 c -2.05,0.5 -4.537,-2.281 -5.649,-4.785 -1.113,-2.502 -2.225,-4.727 -4.728,-5.006 -2.503,-0.277 -6.952,-2.779 -7.23,-9.176 -0.278,-6.396 5.09,-15.365 9.509,-15.334"
       style="fill:none;stroke:#231f20;stroke-width:0.5;stroke-linecap:round;stroke-linejoin:round;stroke-miterlimit:4;stroke-dasharray:2.8, 1.8;stroke-dashoffset:0;stroke-opacity:1"
       id="path782" />
    <path
       d="m 550.499,463.88 c 0.242,-2.74 -3.441,-11.57 -3.309,-14.007"
       style="fill:none;stroke:#231f20;stroke-width:0.5;stroke-linecap:round;stroke-linejoin:round;stroke-miterlimit:4;stroke-dasharray:2.8, 1.8;stroke-dashoffset:0;stroke-opacity:1"
       id="path784" />
    <path
       d="m 551.328,446.66 c 1.217,-0.725 2.976,-1.032 4.71,-0.897"
       style="fill:none;stroke:#231f20;stroke-width:0.5;stroke-linecap:round;stroke-linejoin:round;stroke-miterlimit:4;stroke-dasharray:2.8, 1.8;stroke-dashoffset:0;stroke-opacity:1"
       id="path786" />
    <path
       d="m 529.504,463.88 c -0.241,-2.74 3.441,-11.57 3.309,-14.007"
       style="fill:none;stroke:#231f20;stroke-width:0.5;stroke-linecap:round;stroke-linejoin:round;stroke-miterlimit:4;stroke-dasharray:2.8, 1.8;stroke-dashoffset:0;stroke-opacity:1"
       id="path788" />
    <path
       d="m 528.675,446.66 c -1.217,-0.725 -2.976,-1.032 -4.709,-0.897"
       style="fill:none;stroke:#231f20;stroke-width:0.5;stroke-linecap:round;stroke-linejoin:round;stroke-miterlimit:4;stroke-dasharray:2.8, 1.8;stroke-dashoffset:0;stroke-opacity:1"
       id="path790" />
  </g>
</svg>
