<?xml version="1.0" encoding="UTF-8" standalone="no"?>
<!-- Created with Inkscape (http://www.inkscape.org/) -->

<svg
   version="1.1"
   id="svg2"
   width="1440"
   height="1344"
   viewBox="0 0 1440 1344"
   xmlns="http://www.w3.org/2000/svg"
   xmlns:svg="http://www.w3.org/2000/svg">
  <defs
     id="defs6" />
  <g
     id="g8">
    <path
       d="m 606.799,320.012 c 0,-2.242 1.113,-3.893 4.448,-3.616 3.337,0.277 3.616,1.668 3.893,4.171 0.28,2.503 -2.905,3.514 -4.799,3.202 -1.89,-0.311 -3.542,-0.977 -3.542,-3.757"
       style="fill:#ffffff;fill-opacity:1;fill-rule:nonzero;stroke:none;stroke-width:0.1"
       id="path672" />
    <path
       d="m 606.799,320.012 c 0,-2.242 1.113,-3.893 4.448,-3.616 3.337,0.277 3.616,1.668 3.893,4.171 0.28,2.503 -2.905,3.514 -4.799,3.202 -1.89,-0.311 -3.542,-0.977 -3.542,-3.757 z"
       style="fill:none;stroke:#231f20;stroke-width:0.5;stroke-linecap:round;stroke-linejoin:round;stroke-miterlimit:4;stroke-dasharray:none;stroke-opacity:1"
       id="path674" />
    <path
       d="m 540.002,332.247 c -2.838,-3.336 -16.186,-13.071 -38.99,-11.68 -22.802,1.391 -38.931,3.615 -46.718,7.508 -7.786,3.894 -15.85,7.509 -25.028,9.734 -9.176,2.225 -21.801,13.584 -23.636,18.632 -1.113,3.057 -2.225,6.117 -2.225,6.117 0,0 -4.171,-0.557 -10.567,1.946 -6.396,2.503 -17.797,8.899 -28.92,23.081 -11.125,14.184 -9.177,32.815 -7.509,46.441 1.668,13.626 10.01,36.707 23.636,48.942 13.627,12.237 42.269,23.638 52.003,26.698 9.733,3.058 18.354,2.501 20.3,2.501 0.973,0 3.695,-0.298 5.839,0.279 1.762,1.205 3.616,2.224 6.49,2.317 5.227,0.167 13.533,-1.205 21.598,-3.985 8.064,-2.781 21.969,-7.787 25.026,-8.065 0,0 14.094,3.077 19.467,-2.78 1.484,1.203 5.676,1.116 9.234,1.116 3.558,0 7.75,0.087 9.233,-1.116 5.373,5.857 19.467,2.78 19.467,2.78 3.058,0.278 16.962,5.284 25.025,8.065 8.067,2.78 16.372,4.152 21.601,3.985 2.873,-0.093 4.725,-1.112 6.488,-2.317 2.144,-0.577 4.867,-0.279 5.838,-0.279 1.948,0 10.569,0.557 20.303,-2.501 9.73,-3.06 38.374,-14.461 52.001,-26.698 13.626,-12.235 21.967,-35.316 23.637,-48.942 1.668,-13.626 3.613,-32.257 -7.509,-46.441 -11.123,-14.182 -22.524,-20.578 -28.92,-23.081 -6.396,-2.503 -10.569,-1.946 -10.569,-1.946 0,0 -1.112,-3.06 -2.225,-6.117 -1.833,-5.048 -14.459,-16.407 -23.635,-18.632 -9.179,-2.225 -17.242,-5.84 -25.029,-9.734 -7.785,-3.893 -23.914,-6.117 -46.717,-7.508 -22.803,-1.391 -36.152,8.344 -38.989,11.68"
       style="fill:#ffffff;fill-opacity:1;fill-rule:nonzero;stroke:none;stroke-width:0.1"
       id="path676" />
    <path
       d="m 540.002,332.247 c -2.838,-3.336 -16.186,-13.071 -38.99,-11.68 -22.802,1.391 -38.931,3.615 -46.718,7.508 -7.786,3.894 -15.85,7.509 -25.028,9.734 -9.176,2.225 -21.801,13.584 -23.636,18.632 -1.113,3.057 -2.225,6.117 -2.225,6.117 0,0 -4.171,-0.557 -10.567,1.946 -6.396,2.503 -17.797,8.899 -28.92,23.081 -11.125,14.184 -9.177,32.815 -7.509,46.441 1.668,13.626 10.01,36.707 23.636,48.942 13.627,12.237 42.269,23.638 52.003,26.698 9.733,3.058 18.354,2.501 20.3,2.501 0.973,0 3.695,-0.298 5.839,0.279 1.762,1.205 3.616,2.224 6.49,2.317 5.227,0.167 13.533,-1.205 21.598,-3.985 8.064,-2.781 21.969,-7.787 25.026,-8.065 0,0 14.094,3.077 19.467,-2.78 1.484,1.203 5.676,1.116 9.234,1.116 3.558,0 7.75,0.087 9.233,-1.116 5.373,5.857 19.467,2.78 19.467,2.78 3.058,0.278 16.962,5.284 25.025,8.065 8.067,2.78 16.372,4.152 21.601,3.985 2.873,-0.093 4.725,-1.112 6.488,-2.317 2.144,-0.577 4.867,-0.279 5.838,-0.279 1.948,0 10.569,0.557 20.303,-2.501 9.73,-3.06 38.374,-14.461 52.001,-26.698 13.626,-12.235 21.967,-35.316 23.637,-48.942 1.668,-13.626 3.613,-32.257 -7.509,-46.441 -11.123,-14.182 -22.524,-20.578 -28.92,-23.081 -6.396,-2.503 -10.569,-1.946 -10.569,-1.946 0,0 -1.112,-3.06 -2.225,-6.117 -1.833,-5.048 -14.459,-16.407 -23.635,-18.632 -9.179,-2.225 -17.242,-5.84 -25.029,-9.734 -7.785,-3.893 -23.914,-6.117 -46.717,-7.508 -22.803,-1.391 -36.152,8.344 -38.989,11.68 z"
       style="fill:none;stroke:#231f20;stroke-width:0.75;stroke-linecap:round;stroke-linejoin:round;stroke-miterlimit:4;stroke-dasharray:none;stroke-opacity:1"
       id="path678" />
    <path
       d="m 473.205,320.012 c 0,-2.242 -1.114,-3.893 -4.45,-3.616 -3.337,0.277 -3.616,1.668 -3.893,4.171 -0.278,2.503 2.908,3.514 4.8,3.202 1.891,-0.311 3.543,-0.977 3.543,-3.757"
       style="fill:#ffffff;fill-opacity:1;fill-rule:nonzero;stroke:none;stroke-width:0.1"
       id="path680" />
    <path
       d="m 473.205,320.012 c 0,-2.242 -1.114,-3.893 -4.45,-3.616 -3.337,0.277 -3.616,1.668 -3.893,4.171 -0.278,2.503 2.908,3.514 4.8,3.202 1.891,-0.311 3.543,-0.977 3.543,-3.757 z"
       style="fill:none;stroke:#231f20;stroke-width:0.5;stroke-linecap:round;stroke-linejoin:round;stroke-miterlimit:4;stroke-dasharray:none;stroke-opacity:1"
       id="path682" />
    <path
       d="m 540.002,504.38 c -21.476,0 -29.168,8.066 -58.645,10.568 -19.743,1.677 -20.893,6.397 -25.861,11.958 -4.604,5.151 -0.28,8.621 -0.28,8.621 -7.508,-3.337 -19.743,1.112 -24.749,4.728 -5.005,3.614 -11.679,17.241 -2.223,31.422 9.453,14.183 20.299,18.076 31.978,23.638 11.681,5.562 12.514,12.235 33.927,20.022 21.412,7.787 40.315,0 45.853,0 5.537,0 24.44,7.787 45.852,0 21.413,-7.787 22.247,-14.46 33.927,-20.022 11.679,-5.562 22.525,-9.455 31.978,-23.638 9.456,-14.181 2.783,-27.808 -2.223,-31.422 -5.006,-3.616 -17.242,-8.065 -24.749,-4.728 0,0 4.324,-3.47 -0.28,-8.621 -4.968,-5.561 -6.118,-10.281 -25.861,-11.958 -29.478,-2.502 -37.169,-10.568 -58.644,-10.568"
       style="fill:#ffffff;fill-opacity:1;fill-rule:nonzero;stroke:none;stroke-width:0.1"
       id="path684" />
    <path
       d="m 540.002,504.38 c -21.476,0 -29.168,8.066 -58.645,10.568 -19.743,1.677 -20.893,6.397 -25.861,11.958 -4.604,5.151 -0.28,8.621 -0.28,8.621 -7.508,-3.337 -19.743,1.112 -24.749,4.728 -5.005,3.614 -11.679,17.241 -2.223,31.422 9.453,14.183 20.299,18.076 31.978,23.638 11.681,5.562 12.514,12.235 33.927,20.022 21.412,7.787 40.315,0 45.853,0 5.537,0 24.44,7.787 45.852,0 21.413,-7.787 22.247,-14.46 33.927,-20.022 11.679,-5.562 22.525,-9.455 31.978,-23.638 9.456,-14.181 2.783,-27.808 -2.223,-31.422 -5.006,-3.616 -17.242,-8.065 -24.749,-4.728 0,0 4.324,-3.47 -0.28,-8.621 -4.968,-5.561 -6.118,-10.281 -25.861,-11.958 -29.478,-2.502 -37.169,-10.568 -58.644,-10.568 z"
       style="fill:none;stroke:#231f20;stroke-width:0.75;stroke-linecap:round;stroke-linejoin:round;stroke-miterlimit:4;stroke-dasharray:none;stroke-opacity:1"
       id="path686" />
    <path
       d="m 455.216,535.527 c 8.621,6.673 23.361,5.84 37.82,4.449 14.462,-1.39 26.419,-5.839 37.542,-8.621 3.566,-0.891 6.531,-1.382 9.424,-1.547 2.891,0.165 5.857,0.656 9.423,1.547 11.124,2.782 23.08,7.231 37.542,8.621 14.459,1.391 29.199,2.224 37.82,-4.449"
       style="fill:none;stroke:#231f20;stroke-width:0.5;stroke-linecap:butt;stroke-linejoin:miter;stroke-miterlimit:4;stroke-dasharray:none;stroke-opacity:1"
       id="path688" />
    <path
       d="m 660.467,377.297 c -2.594,-0.927 -4.447,-4.728 -3.335,-8.064 1.113,-3.338 5.838,-10.289 11.679,-7.232 5.841,3.06 5.841,8.065 4.171,11.125 -1.668,3.058 -5.46,6.689 -12.515,4.171 z"
       style="fill:none;stroke:#231f20;stroke-width:0.5;stroke-linecap:butt;stroke-linejoin:miter;stroke-miterlimit:4;stroke-dasharray:none;stroke-opacity:1"
       id="path690" />
    <path
       d="m 627.654,512.167 c -4.17,-1.668 -8.496,-9.449 -10.567,-12.792 -2.428,-3.922 -5.005,-10.009 -1.112,-9.732 2.78,2.503 7.092,7.951 16.66,9.229 10.035,1.338 19.77,-0.33 36.453,-8.117 16.688,-7.787 31.424,-20.578 39.21,-36.428 7.788,-15.851 8.344,-40.323 3.616,-53.95 -4.726,-13.625 -12.234,-20.021 -26.138,-21.69 -3.896,-1.39 -10.012,-2.781 -8.344,-8.342 1.668,-5.561 8.184,-6.121 16.328,-2.644"
       style="fill:none;stroke:#231f20;stroke-width:0.5;stroke-linecap:butt;stroke-linejoin:miter;stroke-miterlimit:4;stroke-dasharray:none;stroke-opacity:1"
       id="path692" />
    <path
       d="m 569.331,480.708 c 3.264,-0.52 17.723,1.426 24.676,4.763 6.951,3.338 12.235,6.396 14.182,7.508 1.945,1.113 4.875,1.159 5.795,-1.66"
       style="fill:none;stroke:#231f20;stroke-width:0.5;stroke-linecap:butt;stroke-linejoin:miter;stroke-miterlimit:4;stroke-dasharray:none;stroke-opacity:1"
       id="path694" />
    <path
       d="m 621.816,512.446 c 0.647,-0.464 1.997,-2.347 1.554,-3.77"
       style="fill:none;stroke:#231f20;stroke-width:0.5;stroke-linecap:butt;stroke-linejoin:miter;stroke-miterlimit:4;stroke-dasharray:none;stroke-opacity:1"
       id="path696" />
    <path
       d="m 496.71,320.845 c 2.474,0.656 2.206,2.99 4.582,3.616 10.566,2.781 16.048,11.104 20.855,19.187 6.118,10.29 6.488,34.854 6.211,44.587 -0.278,9.733 -8.313,25.4 -10.753,30.31 -2.691,5.415 -4.356,8.621 -7.138,15.759 -2.667,6.846 -2.116,15.88 0,16.129 1.576,0.186 2.703,-0.491 5.377,-5.839 4.912,-9.826 13.898,-18.846 24.113,-18.73 10.213,-0.116 19.289,8.904 24.202,18.73 2.675,5.348 3.801,6.025 5.376,5.839 2.116,-0.249 2.669,-9.283 0,-16.129 -2.781,-7.138 -4.446,-10.344 -7.136,-15.759 -2.443,-4.91 -10.477,-20.577 -10.754,-30.31 -0.277,-9.733 0.093,-34.297 6.211,-44.587 4.807,-8.083 10.288,-16.406 20.857,-19.187 2.375,-0.626 2.106,-2.96 4.581,-3.616"
       style="fill:none;stroke:#231f20;stroke-width:0.5;stroke-linecap:butt;stroke-linejoin:miter;stroke-miterlimit:4;stroke-dasharray:none;stroke-opacity:1"
       id="path698" />
    <path
       d="m 419.534,377.297 c 2.595,-0.927 4.45,-4.728 3.337,-8.064 -1.112,-3.338 -5.839,-10.289 -11.68,-7.232 -5.84,3.06 -5.84,8.065 -4.171,11.125 1.669,3.058 5.463,6.689 12.514,4.171 z"
       style="fill:none;stroke:#231f20;stroke-width:0.5;stroke-linecap:butt;stroke-linejoin:miter;stroke-miterlimit:4;stroke-dasharray:none;stroke-opacity:1"
       id="path700" />
    <path
       d="m 505.249,504.309 c 0.129,-6.765 3.55,-17.446 4.663,-21.618 1.112,-4.171 3.615,-4.729 6.395,-5.563 2.781,-0.833 13.07,-1.389 16.686,-1.111 3.615,0.278 4.449,5.653 4.449,9.454 0,2.226 0.945,3.986 2.56,3.895 1.614,0.091 2.559,-1.669 2.559,-3.895 0,-3.801 0.833,-9.176 4.448,-9.454 3.615,-0.278 13.905,0.278 16.688,1.111 2.78,0.834 5.283,1.392 6.395,5.563 1.113,4.172 4.532,14.853 4.663,21.618"
       style="fill:none;stroke:#231f20;stroke-width:0.5;stroke-linecap:butt;stroke-linejoin:miter;stroke-miterlimit:4;stroke-dasharray:none;stroke-opacity:1"
       id="path702" />
    <path
       d="m 452.348,512.167 c 4.171,-1.668 8.496,-9.449 10.568,-12.792 2.429,-3.922 5.005,-10.009 1.112,-9.732 -2.781,2.503 -7.091,7.951 -16.659,9.229 -10.037,1.338 -19.77,-0.33 -36.455,-8.117 -16.685,-7.787 -31.424,-20.578 -39.21,-36.428 -7.786,-15.851 -8.342,-40.323 -3.616,-53.95 4.728,-13.625 12.236,-20.021 26.141,-21.69 3.893,-1.39 10.01,-2.781 8.342,-8.342 -1.669,-5.561 -8.185,-6.121 -16.328,-2.644"
       style="fill:none;stroke:#231f20;stroke-width:0.5;stroke-linecap:butt;stroke-linejoin:miter;stroke-miterlimit:4;stroke-dasharray:none;stroke-opacity:1"
       id="path704" />
    <path
       d="m 510.672,480.708 c -3.263,-0.52 -17.723,1.426 -24.675,4.763 -6.954,3.338 -12.237,6.396 -14.183,7.508 -1.946,1.113 -4.875,1.159 -5.795,-1.66"
       style="fill:none;stroke:#231f20;stroke-width:0.5;stroke-linecap:butt;stroke-linejoin:miter;stroke-miterlimit:4;stroke-dasharray:none;stroke-opacity:1"
       id="path706" />
    <path
       d="m 458.187,512.446 c -0.648,-0.464 -1.996,-2.347 -1.554,-3.77"
       style="fill:none;stroke:#231f20;stroke-width:0.5;stroke-linecap:butt;stroke-linejoin:miter;stroke-miterlimit:4;stroke-dasharray:none;stroke-opacity:1"
       id="path708" />
    <path
       d="m 540.002,435.416 c -3.944,0 -3.296,5.84 0,5.84 3.296,0 3.942,-5.84 0,-5.84"
       style="fill:#706d6e;fill-opacity:1;fill-rule:nonzero;stroke:none;stroke-width:0.1"
       id="path710" />
    <path
       d="m 540.002,435.416 c -3.944,0 -3.296,5.84 0,5.84 3.296,0 3.942,-5.84 0,-5.84 z"
       style="fill:none;stroke:#231f20;stroke-width:0.75;stroke-linecap:round;stroke-linejoin:round;stroke-miterlimit:4;stroke-dasharray:none;stroke-opacity:1"
       id="path712" />
    <path
       d="m 569.597,462.901 c 2.802,0.553 4.512,-6.412 1.072,-7.002 -3.439,-0.594 -4.254,6.374 -1.072,7.002 z"
       style="fill:none;stroke:#231f20;stroke-width:0.5;stroke-linecap:butt;stroke-linejoin:miter;stroke-miterlimit:4;stroke-dasharray:none;stroke-opacity:1"
       id="path714" />
    <path
       d="m 510.406,462.901 c -2.802,0.553 -4.512,-6.412 -1.072,-7.002 3.439,-0.594 4.255,6.374 1.072,7.002 z"
       style="fill:none;stroke:#231f20;stroke-width:0.5;stroke-linecap:butt;stroke-linejoin:miter;stroke-miterlimit:4;stroke-dasharray:none;stroke-opacity:1"
       id="path716" />
    <path
       d="m 651.569,353.382 c 1.738,0.679 10.569,3.336 11.401,1.39 0.835,-1.946 -7.002,-4.553 -9.176,-5.284 -2.367,-0.795 -7.23,-3.058 -8.063,-1.668 -0.835,1.39 3.708,4.726 5.838,5.562 z"
       style="fill:none;stroke:#231f20;stroke-width:0.5;stroke-linecap:round;stroke-linejoin:round;stroke-miterlimit:4;stroke-dasharray:2.8, 1.8;stroke-dashoffset:0;stroke-opacity:1"
       id="path718" />
    <path
       d="m 571.18,447.072 c 9.849,-2.478 21.992,-7.763 36.454,-15.827 14.459,-8.064 35.317,-23.915 41.155,-28.086 5.84,-4.172 18.077,-19.189 20.857,-26.418"
       style="fill:none;stroke:#231f20;stroke-width:0.5;stroke-linecap:round;stroke-linejoin:round;stroke-miterlimit:4;stroke-dasharray:2.8, 1.8;stroke-dashoffset:0;stroke-opacity:1"
       id="path720" />
    <path
       d="m 569.535,434.304 c 5.283,-1.947 23.915,-13.348 33.093,-19.744 9.176,-6.395 25.306,-18.075 31.421,-24.75 6.119,-6.674 12.515,-16.407 14.74,-20.021 2.225,-3.616 4.821,-6.953 7.231,-6.953 2.519,0 4.2,1.332 4.2,1.332"
       style="fill:none;stroke:#231f20;stroke-width:0.5;stroke-linecap:round;stroke-linejoin:round;stroke-miterlimit:4;stroke-dasharray:2.8, 1.8;stroke-dashoffset:0;stroke-opacity:1"
       id="path722" />
    <path
       d="m 562.399,418.545 c 3.893,-4.169 6.858,-12.049 8.248,-21.227 1.391,-9.176 5.283,-18.354 10.289,-26.418 5.006,-8.064 10.847,-16.685 22.803,-17.24 11.959,-0.557 20.022,0.834 23.637,2.503"
       style="fill:none;stroke:#231f20;stroke-width:0.5;stroke-linecap:round;stroke-linejoin:round;stroke-miterlimit:4;stroke-dasharray:2.8, 1.8;stroke-dashoffset:0;stroke-opacity:1"
       id="path724" />
    <path
       d="m 628.283,404.876 c 2.258,2.472 9.104,4.679 12.998,1.62 3.892,-3.06 5.005,-10.29 1.67,-12.791 -3.338,-2.503 -10.406,-2.051 -14.165,1.088 -3.76,3.14 -2.242,8.181 -0.503,10.083 z"
       style="fill:none;stroke:#231f20;stroke-width:0.5;stroke-linecap:round;stroke-linejoin:round;stroke-miterlimit:4;stroke-dasharray:2.8, 1.8;stroke-dashoffset:0;stroke-opacity:1"
       id="path726" />
    <path
       d="m 657.19,373.682 c -6.118,-2.224 -9.125,-0.123 -10.904,2.502 -1.945,2.875 -0.278,8.066 5.006,11.123 0,0 8.343,4.357 10.95,1.393"
       style="fill:none;stroke:#231f20;stroke-width:0.5;stroke-linecap:round;stroke-linejoin:round;stroke-miterlimit:4;stroke-dasharray:2.8, 1.8;stroke-dashoffset:0;stroke-opacity:1"
       id="path728" />
    <path
       d="m 631.546,358.109 c 3.376,0.995 9.179,2.503 10.012,0.835 0.835,-1.669 -3.428,-5.562 -6.951,-6.675 -3.025,-0.955 -8.379,-1.815 -9.176,0.557 -0.8,2.371 3.524,4.517 6.115,5.283 z"
       style="fill:none;stroke:#231f20;stroke-width:0.5;stroke-linecap:round;stroke-linejoin:round;stroke-miterlimit:4;stroke-dasharray:2.8, 1.8;stroke-dashoffset:0;stroke-opacity:1"
       id="path730" />
    <path
       d="m 579.078,387.088 c 2.138,0.219 2.786,-2.561 3.063,-4.507 0.28,-1.947 0,-3.988 -2.317,-4.45 -2.577,-0.514 -3.853,1.911 -3.853,3.858 0,1.946 0.555,4.838 3.107,5.099 z"
       style="fill:none;stroke:#231f20;stroke-width:0.5;stroke-linecap:round;stroke-linejoin:round;stroke-miterlimit:4;stroke-dasharray:2.8, 1.8;stroke-dashoffset:0;stroke-opacity:1"
       id="path732" />
    <path
       d="m 569.535,415.765 c -0.008,1.591 1.205,3.208 2.375,3.208 2.538,0 4.855,-5.433 1.05,-6.132 -2.226,-0.41 -3.418,1.334 -3.425,2.924 z"
       style="fill:none;stroke:#231f20;stroke-width:0.5;stroke-linecap:round;stroke-linejoin:round;stroke-miterlimit:4;stroke-dasharray:2.8, 1.8;stroke-dashoffset:0;stroke-opacity:1"
       id="path734" />
    <path
       d="m 549.235,499.933 c -1.945,-3.338 -0.803,-11.844 0.557,-13.627 1.483,-1.946 5.716,-3.35 10.567,-0.556 5.468,3.152 7.508,5.283 9.176,7.229 1.67,1.948 2.78,7.788 -0.833,9.734"
       style="fill:none;stroke:#231f20;stroke-width:0.5;stroke-linecap:round;stroke-linejoin:round;stroke-miterlimit:4;stroke-dasharray:2.8, 1.8;stroke-dashoffset:0;stroke-opacity:1"
       id="path736" />
    <path
       d="m 568.718,479.773 c 3.042,-2.365 10.273,-6.537 19.726,-5.703 9.457,0.835 13.627,3.058 15.852,7.508 2.226,4.45 8.297,9.184 9.688,9.741"
       style="fill:none;stroke:#231f20;stroke-width:0.5;stroke-linecap:round;stroke-linejoin:round;stroke-miterlimit:4;stroke-dasharray:2.8, 1.8;stroke-dashoffset:0;stroke-opacity:1"
       id="path738" />
    <path
       d="m 564.964,477.512 c -0.435,-3.164 1.793,-7.229 4.571,-9.559 2.875,-2.411 7.881,-6.119 12.236,-6.953 4.404,-0.842 11.956,-1.668 16.13,2.781 4.17,4.449 6.703,9.992 5.576,16.397"
       style="fill:none;stroke:#231f20;stroke-width:0.5;stroke-linecap:round;stroke-linejoin:round;stroke-miterlimit:4;stroke-dasharray:2.8, 1.8;stroke-dashoffset:0;stroke-opacity:1"
       id="path740" />
    <path
       d="m 597.196,463.113 c 5.71,0.668 13.496,3.171 17.944,3.448 4.45,0.279 10.797,0.038 18.192,-2.901"
       style="fill:none;stroke:#231f20;stroke-width:0.5;stroke-linecap:round;stroke-linejoin:round;stroke-miterlimit:4;stroke-dasharray:2.8, 1.8;stroke-dashoffset:0;stroke-opacity:1"
       id="path742" />
    <path
       d="m 550.347,468.509 c 4.171,0 12.297,0.337 17.705,1.002"
       style="fill:none;stroke:#231f20;stroke-width:0.5;stroke-linecap:round;stroke-linejoin:round;stroke-miterlimit:4;stroke-dasharray:2.8, 1.8;stroke-dashoffset:0;stroke-opacity:1"
       id="path744" />
    <path
       d="m 553.96,468.569 c -0.833,-1.729 -4.649,-10.11 -5.702,-13.286"
       style="fill:none;stroke:#231f20;stroke-width:0.5;stroke-linecap:round;stroke-linejoin:round;stroke-miterlimit:4;stroke-dasharray:2.8, 1.8;stroke-dashoffset:0;stroke-opacity:1"
       id="path746" />
    <path
       d="m 568.928,450.45 c 4.263,0.956 14.236,4.674 8.812,11.911"
       style="fill:none;stroke:#231f20;stroke-width:0.5;stroke-linecap:round;stroke-linejoin:round;stroke-miterlimit:4;stroke-dasharray:2.8, 1.8;stroke-dashoffset:0;stroke-opacity:1"
       id="path748" />
    <path
       d="m 526.044,468.569 c 0.832,-1.729 4.648,-10.11 5.701,-13.286"
       style="fill:none;stroke:#231f20;stroke-width:0.5;stroke-linecap:round;stroke-linejoin:round;stroke-miterlimit:4;stroke-dasharray:2.8, 1.8;stroke-dashoffset:0;stroke-opacity:1"
       id="path750" />
    <path
       d="m 511.076,450.45 c -4.264,0.956 -14.237,4.674 -8.812,11.911"
       style="fill:none;stroke:#231f20;stroke-width:0.5;stroke-linecap:round;stroke-linejoin:round;stroke-miterlimit:4;stroke-dasharray:2.8, 1.8;stroke-dashoffset:0;stroke-opacity:1"
       id="path752" />
    <path
       d="m 544.814,435.98 c 0.134,0.224 4.144,1.105 4.144,-3.066 0,-4.172 -1.114,-6.396 -3.894,-6.119 -2.78,0.28 -3.706,1.113 -3.613,3.431 0.043,1.106 0.368,2.272 1.676,3.892"
       style="fill:none;stroke:#231f20;stroke-width:0.5;stroke-linecap:round;stroke-linejoin:round;stroke-miterlimit:4;stroke-dasharray:2.8, 1.8;stroke-dashoffset:0;stroke-opacity:1"
       id="path754" />
    <path
       d="m 550.56,446.796 c 1.338,0.065 8.993,-1.373 13.066,-3.465"
       style="fill:none;stroke:#231f20;stroke-width:0.5;stroke-linecap:round;stroke-linejoin:round;stroke-miterlimit:4;stroke-dasharray:2.8, 1.8;stroke-dashoffset:0;stroke-opacity:1"
       id="path756" />
    <path
       d="m 615.975,489.643 c -2.938,-2.644 -8.621,-12.235 0.277,-16.407 8.899,-4.172 22.526,-10.568 33.094,-25.862 10.567,-15.294 16.127,-38.376 19.188,-47.831 3.057,-9.455 3.338,-22.525 17.242,-20.856"
       style="fill:none;stroke:#231f20;stroke-width:0.5;stroke-linecap:round;stroke-linejoin:round;stroke-miterlimit:4;stroke-dasharray:2.8, 1.8;stroke-dashoffset:0;stroke-opacity:1"
       id="path758" />
    <path
       d="m 428.433,353.382 c -1.737,0.679 -10.568,3.336 -11.401,1.39 -0.835,-1.946 7.003,-4.553 9.176,-5.284 2.366,-0.795 7.23,-3.058 8.064,-1.668 0.835,1.39 -3.708,4.726 -5.839,5.562 z"
       style="fill:none;stroke:#231f20;stroke-width:0.5;stroke-linecap:round;stroke-linejoin:round;stroke-miterlimit:4;stroke-dasharray:2.8, 1.8;stroke-dashoffset:0;stroke-opacity:1"
       id="path760" />
    <path
       d="m 508.824,447.072 c -9.849,-2.478 -21.993,-7.763 -36.453,-15.827 -14.461,-8.064 -35.317,-23.915 -41.158,-28.086 -5.839,-4.172 -18.075,-19.189 -20.856,-26.418"
       style="fill:none;stroke:#231f20;stroke-width:0.5;stroke-linecap:round;stroke-linejoin:round;stroke-miterlimit:4;stroke-dasharray:2.8, 1.8;stroke-dashoffset:0;stroke-opacity:1"
       id="path762" />
    <path
       d="m 510.467,434.304 c -5.283,-1.947 -23.915,-13.348 -33.091,-19.744 -9.177,-6.395 -25.306,-18.075 -31.423,-24.75 -6.119,-6.674 -12.515,-16.407 -14.74,-20.021 -2.224,-3.616 -4.82,-6.953 -7.229,-6.953 -2.519,0 -4.202,1.332 -4.202,1.332"
       style="fill:none;stroke:#231f20;stroke-width:0.5;stroke-linecap:round;stroke-linejoin:round;stroke-miterlimit:4;stroke-dasharray:2.8, 1.8;stroke-dashoffset:0;stroke-opacity:1"
       id="path764" />
    <path
       d="m 517.605,418.545 c -3.894,-4.169 -6.858,-12.049 -8.25,-21.227 -1.391,-9.176 -5.283,-18.354 -10.289,-26.418 -5.006,-8.064 -10.845,-16.685 -22.803,-17.24 -11.958,-0.557 -20.022,0.834 -23.637,2.503"
       style="fill:none;stroke:#231f20;stroke-width:0.5;stroke-linecap:round;stroke-linejoin:round;stroke-miterlimit:4;stroke-dasharray:2.8, 1.8;stroke-dashoffset:0;stroke-opacity:1"
       id="path766" />
    <path
       d="m 451.721,404.876 c -2.259,2.472 -9.106,4.679 -13,1.62 -3.892,-3.06 -5.005,-10.29 -1.667,-12.791 3.336,-2.503 10.404,-2.051 14.163,1.088 3.76,3.14 2.243,8.181 0.504,10.083 z"
       style="fill:none;stroke:#231f20;stroke-width:0.5;stroke-linecap:round;stroke-linejoin:round;stroke-miterlimit:4;stroke-dasharray:2.8, 1.8;stroke-dashoffset:0;stroke-opacity:1"
       id="path768" />
    <path
       d="m 422.814,373.682 c 6.117,-2.224 9.124,-0.123 10.902,2.502 1.947,2.875 0.279,8.066 -5.006,11.123 0,0 -8.342,4.357 -10.949,1.393"
       style="fill:none;stroke:#231f20;stroke-width:0.5;stroke-linecap:round;stroke-linejoin:round;stroke-miterlimit:4;stroke-dasharray:2.8, 1.8;stroke-dashoffset:0;stroke-opacity:1"
       id="path770" />
    <path
       d="m 448.455,358.109 c -3.373,0.995 -9.177,2.503 -10.011,0.835 -0.834,-1.669 3.43,-5.562 6.952,-6.675 3.023,-0.955 8.379,-1.815 9.177,0.557 0.798,2.371 -3.524,4.517 -6.118,5.283 z"
       style="fill:none;stroke:#231f20;stroke-width:0.5;stroke-linecap:round;stroke-linejoin:round;stroke-miterlimit:4;stroke-dasharray:2.8, 1.8;stroke-dashoffset:0;stroke-opacity:1"
       id="path772" />
    <path
       d="m 500.925,387.088 c -2.136,0.219 -2.786,-2.561 -3.064,-4.507 -0.277,-1.947 0,-3.988 2.317,-4.45 2.576,-0.514 3.856,1.911 3.856,3.858 0,1.946 -0.558,4.838 -3.109,5.099 z"
       style="fill:none;stroke:#231f20;stroke-width:0.5;stroke-linecap:round;stroke-linejoin:round;stroke-miterlimit:4;stroke-dasharray:2.8, 1.8;stroke-dashoffset:0;stroke-opacity:1"
       id="path774" />
    <path
       d="m 510.467,415.765 c 0.01,1.591 -1.204,3.208 -2.374,3.208 -2.538,0 -4.855,-5.433 -1.051,-6.132 2.226,-0.41 3.418,1.334 3.425,2.924 z"
       style="fill:none;stroke:#231f20;stroke-width:0.5;stroke-linecap:round;stroke-linejoin:round;stroke-miterlimit:4;stroke-dasharray:2.8, 1.8;stroke-dashoffset:0;stroke-opacity:1"
       id="path776" />
    <path
       d="m 530.768,499.933 c 1.946,-3.338 0.802,-11.844 -0.557,-13.627 -1.483,-1.946 -5.718,-3.35 -10.566,-0.556 -5.47,3.152 -7.509,5.283 -9.178,7.229 -1.668,1.948 -2.78,7.788 0.834,9.734"
       style="fill:none;stroke:#231f20;stroke-width:0.5;stroke-linecap:round;stroke-linejoin:round;stroke-miterlimit:4;stroke-dasharray:2.8, 1.8;stroke-dashoffset:0;stroke-opacity:1"
       id="path778" />
    <path
       d="m 511.286,479.773 c -3.042,-2.365 -10.274,-6.537 -19.729,-5.703 -9.454,0.835 -13.626,3.058 -15.85,7.508 -2.225,4.45 -8.297,9.184 -9.688,9.741"
       style="fill:none;stroke:#231f20;stroke-width:0.5;stroke-linecap:round;stroke-linejoin:round;stroke-miterlimit:4;stroke-dasharray:2.8, 1.8;stroke-dashoffset:0;stroke-opacity:1"
       id="path780" />
    <path
       d="m 515.039,477.512 c 0.434,-3.164 -1.792,-7.229 -4.572,-9.559 -2.873,-2.411 -7.879,-6.119 -12.235,-6.953 -4.404,-0.842 -11.957,-1.668 -16.129,2.781 -4.172,4.449 -6.703,9.992 -5.576,16.397"
       style="fill:none;stroke:#231f20;stroke-width:0.5;stroke-linecap:round;stroke-linejoin:round;stroke-miterlimit:4;stroke-dasharray:2.8, 1.8;stroke-dashoffset:0;stroke-opacity:1"
       id="path782" />
    <path
       d="m 482.806,463.113 c -5.709,0.668 -13.495,3.171 -17.944,3.448 -4.449,0.279 -10.796,0.038 -18.191,-2.901"
       style="fill:none;stroke:#231f20;stroke-width:0.5;stroke-linecap:round;stroke-linejoin:round;stroke-miterlimit:4;stroke-dasharray:2.8, 1.8;stroke-dashoffset:0;stroke-opacity:1"
       id="path784" />
    <path
       d="m 529.656,468.509 c -4.172,0 -12.296,0.337 -17.704,1.002"
       style="fill:none;stroke:#231f20;stroke-width:0.5;stroke-linecap:round;stroke-linejoin:round;stroke-miterlimit:4;stroke-dasharray:2.8, 1.8;stroke-dashoffset:0;stroke-opacity:1"
       id="path786" />
    <path
       d="m 540.002,433.191 c -2.836,0 -5.62,2.225 -5.62,6.118 0,3.894 2.13,6.675 5.62,6.675 3.49,0 5.618,-2.781 5.618,-6.675 0,-3.893 -2.784,-6.118 -5.618,-6.118 z"
       style="fill:none;stroke:#231f20;stroke-width:0.5;stroke-linecap:round;stroke-linejoin:round;stroke-miterlimit:4;stroke-dasharray:2.8, 1.8;stroke-dashoffset:0;stroke-opacity:1"
       id="path788" />
    <path
       d="m 535.189,435.98 c -0.135,0.224 -4.143,1.105 -4.143,-3.066 0,-4.172 1.113,-6.396 3.893,-6.119 2.781,0.28 3.708,1.113 3.615,3.431 -0.044,1.106 -0.368,2.272 -1.678,3.892"
       style="fill:none;stroke:#231f20;stroke-width:0.5;stroke-linecap:round;stroke-linejoin:round;stroke-miterlimit:4;stroke-dasharray:2.8, 1.8;stroke-dashoffset:0;stroke-opacity:1"
       id="path790" />
    <path
       d="m 529.865,446.969 c -1.338,0.065 -9.416,-1.546 -13.489,-3.638"
       style="fill:none;stroke:#231f20;stroke-width:0.5;stroke-linecap:round;stroke-linejoin:round;stroke-miterlimit:4;stroke-dasharray:2.8, 1.8;stroke-dashoffset:0;stroke-opacity:1"
       id="path792" />
    <path
       d="m 464.028,489.643 c 2.937,-2.644 8.62,-12.235 -0.278,-16.407 -8.899,-4.172 -22.526,-10.568 -33.092,-25.862 -10.568,-15.294 -16.129,-38.376 -19.189,-47.831 -3.058,-9.455 -3.336,-22.525 -17.24,-20.856"
       style="fill:none;stroke:#231f20;stroke-width:0.5;stroke-linecap:round;stroke-linejoin:round;stroke-miterlimit:4;stroke-dasharray:2.8, 1.8;stroke-dashoffset:0;stroke-opacity:1"
       id="path794" />
    <path
       d="m 532.993,476.017 c -2.225,-1.669 -5.006,-6.118 -3.337,-7.508 1.668,-1.391 7.01,-1.948 10.346,-1.948 3.334,0 8.678,0.557 10.345,1.948 1.668,1.39 -1.112,5.839 -3.338,7.508"
       style="fill:none;stroke:#231f20;stroke-width:0.5;stroke-linecap:round;stroke-linejoin:round;stroke-miterlimit:4;stroke-dasharray:2.8, 1.8;stroke-dashoffset:0;stroke-opacity:1"
       id="path796" />
    <path
       d="m 545.481,454.937 c 1.101,0.257 2.67,1.192 3.879,-0.589 1.208,-1.785 2.728,-4.2 2.434,-5.335 -0.295,-1.135 -0.609,-1.991 -1.234,-2.217 -0.629,-0.228 -6.868,-2.861 -7.951,-0.138 -1.084,2.722 0.725,7.774 2.872,8.279 z"
       style="fill:none;stroke:#231f20;stroke-width:0.5;stroke-linecap:round;stroke-linejoin:round;stroke-miterlimit:4;stroke-dasharray:2.8, 1.8;stroke-dashoffset:0;stroke-opacity:1"
       id="path798" />
    <path
       d="m 551.71,448.705 c 3.238,1.07 12.688,5.243 17.437,7.483"
       style="fill:none;stroke:#231f20;stroke-width:0.5;stroke-linecap:round;stroke-linejoin:round;stroke-miterlimit:4;stroke-dasharray:2.8, 1.8;stroke-dashoffset:0;stroke-opacity:1"
       id="path800" />
    <path
       d="m 568.213,469.215 c 0.579,-2.179 1.212,-5.024 1.384,-6.314"
       style="fill:none;stroke:#231f20;stroke-width:0.5;stroke-linecap:round;stroke-linejoin:round;stroke-miterlimit:4;stroke-dasharray:2.8, 1.8;stroke-dashoffset:0;stroke-opacity:1"
       id="path802" />
    <path
       d="m 570.669,455.899 c 0,0 0.726,-3.781 0.789,-4.729"
       style="fill:none;stroke:#231f20;stroke-width:0.5;stroke-linecap:round;stroke-linejoin:round;stroke-miterlimit:4;stroke-dasharray:2.8, 1.8;stroke-dashoffset:0;stroke-opacity:1"
       id="path804" />
    <path
       d="m 534.523,454.937 c -1.103,0.257 -2.67,1.192 -3.88,-0.589 -1.208,-1.785 -2.728,-4.2 -2.435,-5.335 0.297,-1.135 0.61,-1.991 1.236,-2.217 0.628,-0.228 6.867,-2.861 7.95,-0.138 1.084,2.722 -0.725,7.774 -2.871,8.279 z"
       style="fill:none;stroke:#231f20;stroke-width:0.5;stroke-linecap:round;stroke-linejoin:round;stroke-miterlimit:4;stroke-dasharray:2.8, 1.8;stroke-dashoffset:0;stroke-opacity:1"
       id="path806" />
    <path
       d="m 528.292,448.705 c -3.237,1.07 -12.687,5.243 -17.436,7.483"
       style="fill:none;stroke:#231f20;stroke-width:0.5;stroke-linecap:round;stroke-linejoin:round;stroke-miterlimit:4;stroke-dasharray:2.8, 1.8;stroke-dashoffset:0;stroke-opacity:1"
       id="path808" />
    <path
       d="m 511.79,469.215 c -0.579,-2.179 -1.212,-5.024 -1.384,-6.314"
       style="fill:none;stroke:#231f20;stroke-width:0.5;stroke-linecap:round;stroke-linejoin:round;stroke-miterlimit:4;stroke-dasharray:2.8, 1.8;stroke-dashoffset:0;stroke-opacity:1"
       id="path810" />
    <path
       d="m 509.334,455.899 c 0,0 -0.726,-3.781 -0.789,-4.729"
       style="fill:none;stroke:#231f20;stroke-width:0.5;stroke-linecap:round;stroke-linejoin:round;stroke-miterlimit:4;stroke-dasharray:2.8, 1.8;stroke-dashoffset:0;stroke-opacity:1"
       id="path812" />
    <path
       d="m 540.002,538.299 c -3.214,0 -10.891,1.468 -16.174,4.527 -5.286,3.057 -12.716,7.995 -31.347,9.385 -18.632,1.392 -27.253,-5.005 -42.27,-4.726 -15.015,0.277 -20.299,6.118 -20.299,10.288 0,4.172 11.957,6.675 21.412,10.846 9.455,4.171 20.579,12.792 29.756,16.685 9.175,3.893 29.911,1.669 38.811,-3.615 8.899,-5.283 14.921,-8.405 20.111,-8.343 5.189,-0.062 11.211,3.06 20.111,8.343 8.899,5.284 29.635,7.508 38.81,3.615 9.178,-3.893 20.301,-12.514 29.756,-16.685 9.455,-4.171 21.413,-6.674 21.413,-10.846 0,-4.17 -5.285,-10.011 -20.3,-10.288 -15.017,-0.279 -23.638,6.118 -42.27,4.726 -18.631,-1.39 -26.062,-6.328 -31.346,-9.385 -5.283,-3.059 -12.961,-4.527 -16.174,-4.527"
       style="fill:#d3d2d2;fill-opacity:1;fill-rule:nonzero;stroke:none;stroke-width:0.1"
       id="path814" />
    <path
       d="m 540.002,538.299 c -3.214,0 -10.891,1.468 -16.174,4.527 -5.286,3.057 -12.716,7.995 -31.347,9.385 -18.632,1.392 -27.253,-5.005 -42.27,-4.726 -15.015,0.277 -20.299,6.118 -20.299,10.288 0,4.172 11.957,6.675 21.412,10.846 9.455,4.171 20.579,12.792 29.756,16.685 9.175,3.893 29.911,1.669 38.811,-3.615 8.899,-5.283 14.921,-8.405 20.111,-8.343 5.189,-0.062 11.211,3.06 20.111,8.343 8.899,5.284 29.635,7.508 38.81,3.615 9.178,-3.893 20.301,-12.514 29.756,-16.685 9.455,-4.171 21.413,-6.674 21.413,-10.846 0,-4.17 -5.285,-10.011 -20.3,-10.288 -15.017,-0.279 -23.638,6.118 -42.27,4.726 -18.631,-1.39 -26.062,-6.328 -31.346,-9.385 -5.283,-3.059 -12.961,-4.527 -16.174,-4.527 z"
       style="fill:none;stroke:#231f20;stroke-width:0.75;stroke-linecap:round;stroke-linejoin:round;stroke-miterlimit:4;stroke-dasharray:0, 2;stroke-dashoffset:0;stroke-opacity:1"
       id="path816" />
    <path
       d="m 540.002,515.754 c -2.429,0 -5.714,-0.597 -9.702,-0.25 -9.535,0.835 -16.129,7.786 -14.46,10.289 1.667,2.503 10.152,-1.945 14.46,-2.224 3.708,-0.239 7.112,-1.203 9.702,-1.203 2.589,0 5.993,0.964 9.701,1.203 4.309,0.279 12.793,4.727 14.461,2.224 1.668,-2.503 -4.926,-9.454 -14.461,-10.289 -3.987,-0.347 -7.272,0.25 -9.701,0.25"
       style="fill:#d3d2d2;fill-opacity:1;fill-rule:nonzero;stroke:none;stroke-width:0.1"
       id="path818" />
    <path
       d="m 540.002,515.754 c -2.429,0 -5.714,-0.597 -9.702,-0.25 -9.535,0.835 -16.129,7.786 -14.46,10.289 1.667,2.503 10.152,-1.945 14.46,-2.224 3.708,-0.239 7.112,-1.203 9.702,-1.203 2.589,0 5.993,0.964 9.701,1.203 4.309,0.279 12.793,4.727 14.461,2.224 1.668,-2.503 -4.926,-9.454 -14.461,-10.289 -3.987,-0.347 -7.272,0.25 -9.701,0.25 z"
       style="fill:none;stroke:#231f20;stroke-width:0.75;stroke-linecap:round;stroke-linejoin:round;stroke-miterlimit:4;stroke-dasharray:0, 2;stroke-dashoffset:0;stroke-opacity:1"
       id="path820" />
  </g>
</svg>
