<?xml version="1.0" encoding="UTF-8" standalone="no"?>
<!-- Created with Inkscape (http://www.inkscape.org/) -->

<svg
   version="1.1"
   id="svg2"
   width="1440"
   height="1344"
   viewBox="0 0 1440 1344"
   xmlns="http://www.w3.org/2000/svg"
   xmlns:svg="http://www.w3.org/2000/svg">
  <defs
     id="defs6" />
  <g
     id="g8">
    <path
       d="m 637.536,351.18 c -2.175,-0.483 -2.012,-5.605 2.716,-4.216 4.728,1.391 1.241,5.094 -2.716,4.216"
       style="fill:#ffffff;fill-opacity:1;fill-rule:nonzero;stroke:none;stroke-width:0.1"
       id="path676" />
    <path
       d="m 637.536,351.18 c -2.175,-0.483 -2.012,-5.605 2.716,-4.216 4.728,1.391 1.241,5.094 -2.716,4.216 z"
       style="fill:none;stroke:#231f20;stroke-width:0.5;stroke-linecap:butt;stroke-linejoin:miter;stroke-miterlimit:4;stroke-dasharray:none;stroke-opacity:1"
       id="path678" />
    <path
       d="m 442.468,351.18 c 2.174,-0.483 2.011,-5.605 -2.717,-4.216 -4.727,1.391 -1.241,5.094 2.717,4.216"
       style="fill:#ffffff;fill-opacity:1;fill-rule:nonzero;stroke:none;stroke-width:0.1"
       id="path680" />
    <path
       d="m 442.468,351.18 c 2.174,-0.483 2.011,-5.605 -2.717,-4.216 -4.727,1.391 -1.241,5.094 2.717,4.216 z"
       style="fill:none;stroke:#231f20;stroke-width:0.5;stroke-linecap:butt;stroke-linejoin:miter;stroke-miterlimit:4;stroke-dasharray:none;stroke-opacity:1"
       id="path682" />
    <path
       d="m 540.002,345.575 c -1.761,0 -4.636,-2.783 -7.972,-6.119 -3.337,-3.338 -15.017,-4.171 -21.691,-4.171 -16.685,0 -52.558,7.507 -63.403,13.347 -10.846,5.841 -21.69,17.242 -24.749,21.412 -3.06,4.172 -10.568,15.017 -12.515,18.077 -1.946,3.058 -7.507,7.229 -11.957,11.124 -4.449,3.892 -13.348,25.026 -13.348,36.15 0,11.123 1.669,22.803 15.573,40.878 13.903,18.076 31.145,28.643 45.883,33.647 14.739,5.006 38.655,2.503 48.665,2.226 10.012,-0.277 18.354,-5.562 26.419,-8.898 8.064,-3.338 16.128,-4.172 19.095,-4.172 2.966,0 11.031,0.834 19.094,4.172 8.065,3.336 16.407,8.621 26.418,8.898 10.012,0.277 33.927,2.78 48.666,-2.226 14.738,-5.004 31.979,-15.571 45.884,-33.647 13.904,-18.075 15.573,-29.755 15.573,-40.878 0,-11.124 -8.899,-32.258 -13.348,-36.15 -4.45,-3.895 -10.012,-8.066 -11.958,-11.124 -1.947,-3.06 -9.455,-13.905 -12.514,-18.077 -3.06,-4.17 -13.904,-15.571 -24.749,-21.412 -10.846,-5.84 -46.719,-13.347 -63.404,-13.347 -6.673,0 -18.354,0.833 -21.69,4.171 -3.337,3.336 -6.211,6.119 -7.972,6.119"
       style="fill:#ffffff;fill-opacity:1;fill-rule:nonzero;stroke:none;stroke-width:0.1"
       id="path684" />
    <path
       d="m 540.002,345.575 c -1.761,0 -4.636,-2.783 -7.972,-6.119 -3.337,-3.338 -15.017,-4.171 -21.691,-4.171 -16.685,0 -52.558,7.507 -63.403,13.347 -10.846,5.841 -21.69,17.242 -24.749,21.412 -3.06,4.172 -10.568,15.017 -12.515,18.077 -1.946,3.058 -7.507,7.229 -11.957,11.124 -4.449,3.892 -13.348,25.026 -13.348,36.15 0,11.123 1.669,22.803 15.573,40.878 13.903,18.076 31.145,28.643 45.883,33.647 14.739,5.006 38.655,2.503 48.665,2.226 10.012,-0.277 18.354,-5.562 26.419,-8.898 8.064,-3.338 16.128,-4.172 19.095,-4.172 2.966,0 11.031,0.834 19.094,4.172 8.065,3.336 16.407,8.621 26.418,8.898 10.012,0.277 33.927,2.78 48.666,-2.226 14.738,-5.004 31.979,-15.571 45.884,-33.647 13.904,-18.075 15.573,-29.755 15.573,-40.878 0,-11.124 -8.899,-32.258 -13.348,-36.15 -4.45,-3.895 -10.012,-8.066 -11.958,-11.124 -1.947,-3.06 -9.455,-13.905 -12.514,-18.077 -3.06,-4.17 -13.904,-15.571 -24.749,-21.412 -10.846,-5.84 -46.719,-13.347 -63.404,-13.347 -6.673,0 -18.354,0.833 -21.69,4.171 -3.337,3.336 -6.211,6.119 -7.972,6.119 z"
       style="fill:none;stroke:#231f20;stroke-width:0.75;stroke-linecap:round;stroke-linejoin:round;stroke-miterlimit:4;stroke-dasharray:none;stroke-opacity:1"
       id="path686" />
    <path
       d="m 598.754,512.782 c 0.572,-2.212 -0.354,-15.19 -1.281,-18.34 -0.928,-3.152 -2.04,-7.973 -4.636,-13.72"
       style="fill:none;stroke:#231f20;stroke-width:0.5;stroke-linecap:butt;stroke-linejoin:miter;stroke-miterlimit:4;stroke-dasharray:none;stroke-opacity:1"
       id="path688" />
    <path
       d="m 481.249,512.782 c -0.572,-2.212 0.354,-15.19 1.281,-18.34 0.928,-3.152 2.04,-7.973 4.636,-13.72"
       style="fill:none;stroke:#231f20;stroke-width:0.5;stroke-linecap:butt;stroke-linejoin:miter;stroke-miterlimit:4;stroke-dasharray:none;stroke-opacity:1"
       id="path690" />
    <path
       d="m 597.834,496.142 c 0.566,-1.887 3.902,-2.628 8.353,1.451 4.448,4.078 12.977,4.265 21.875,2.596 8.898,-1.669 30.774,-9.271 44.679,-26.14 13.904,-16.872 15.386,-29.478 15.573,-36.523 0.185,-7.044 -2.69,-22.136 -11.124,-32.257 -3.708,-4.451 -4.82,-6.118 -5.932,-7.045 -1.112,-0.927 -1.048,-6.378 4.111,-4.857"
       style="fill:none;stroke:#231f20;stroke-width:0.5;stroke-linecap:butt;stroke-linejoin:miter;stroke-miterlimit:4;stroke-dasharray:none;stroke-opacity:1"
       id="path692" />
    <path
       d="m 567.81,479.24 c 2.967,-0.742 4.042,-11.855 2.225,-17.057 -3.047,-8.724 -10.911,-12.688 -17.257,-10.241 -5.29,2.04 -4.617,8.202 -3.507,11.353 1.113,3.152 8.087,12.194 11.865,14.461 3.708,2.224 6.674,1.484 6.674,1.484 z"
       style="fill:none;stroke:#231f20;stroke-width:0.5;stroke-linecap:butt;stroke-linejoin:miter;stroke-miterlimit:4;stroke-dasharray:none;stroke-opacity:1"
       id="path694" />
    <path
       d="m 558.618,503.053 c 0.849,-3.051 0.851,-11.125 -0.262,-18.253 -0.905,-5.792 -2.823,-10.123 -4.749,-14.701"
       style="fill:none;stroke:#231f20;stroke-width:0.5;stroke-linecap:butt;stroke-linejoin:miter;stroke-miterlimit:4;stroke-dasharray:none;stroke-opacity:1"
       id="path696" />
    <path
       d="m 554.648,408.235 c 5.56,0.928 9.084,4.406 10.936,7.557 1.856,3.151 0.674,6.602 -1.295,6.904 -1.398,0.214 -0.986,1.417 -0.557,2.41 0.571,1.323 1.453,3.857 1.995,5.747 0.505,1.755 2.454,8.342 -0.697,10.381 -3.152,2.039 -5.338,1.038 -6.674,-0.185 0,0 0.926,-5.562 -1.854,-12.236 -2.781,-6.674 -7.395,-11.928 -9.621,-13.411"
       style="fill:none;stroke:#231f20;stroke-width:0.5;stroke-linecap:butt;stroke-linejoin:miter;stroke-miterlimit:4;stroke-dasharray:none;stroke-opacity:1"
       id="path698" />
    <path
       d="m 563.305,449.127 c 0.057,-1.405 -2.54,-6.409 -4.949,-8.078"
       style="fill:none;stroke:#231f20;stroke-width:0.5;stroke-linecap:round;stroke-linejoin:round;stroke-miterlimit:4;stroke-dasharray:2.8, 1.8;stroke-dashoffset:0;stroke-opacity:1"
       id="path700" />
    <path
       d="m 650.623,393.057 c 2.551,1.273 6.174,1.83 8.399,0.347 2.225,-1.485 5.191,-6.117 3.338,-9.084 -1.855,-2.967 -6.488,-3.522 -8.9,-2.226 -2.411,1.3 -3.858,3.821 -4.732,6.353"
       style="fill:none;stroke:#231f20;stroke-width:0.5;stroke-linecap:butt;stroke-linejoin:miter;stroke-miterlimit:4;stroke-dasharray:none;stroke-opacity:1"
       id="path702" />
    <path
       d="m 540.002,363.372 c -6.767,8.898 -3.523,25.027 -3.523,31.423 0,6.396 1.506,12.514 3.523,12.514 2.017,0 3.523,-6.118 3.523,-12.514 0,-6.396 3.244,-22.525 -3.523,-31.423 z"
       style="fill:none;stroke:#231f20;stroke-width:0.5;stroke-linecap:butt;stroke-linejoin:miter;stroke-miterlimit:4;stroke-dasharray:none;stroke-opacity:1"
       id="path704" />
    <path
       d="m 482.17,496.142 c -0.567,-1.887 -3.903,-2.628 -8.352,1.451 -4.45,4.078 -12.979,4.265 -21.877,2.596 -8.899,-1.669 -30.775,-9.271 -44.679,-26.14 -13.904,-16.872 -15.386,-29.478 -15.572,-36.523 -0.186,-7.044 2.689,-22.136 11.123,-32.257 3.708,-4.451 4.82,-6.118 5.932,-7.045 1.113,-0.927 1.047,-6.378 -4.111,-4.857"
       style="fill:none;stroke:#231f20;stroke-width:0.5;stroke-linecap:butt;stroke-linejoin:miter;stroke-miterlimit:4;stroke-dasharray:none;stroke-opacity:1"
       id="path706" />
    <path
       d="m 512.193,479.24 c -2.966,-0.742 -4.079,-11.866 -2.225,-17.057 1.854,-5.19 8.9,-12.235 15.388,-10.196 6.488,2.04 6.488,8.157 5.376,11.308 -1.113,3.152 -8.087,12.194 -11.865,14.461 -3.707,2.224 -6.674,1.484 -6.674,1.484 z"
       style="fill:none;stroke:#231f20;stroke-width:0.5;stroke-linecap:butt;stroke-linejoin:miter;stroke-miterlimit:4;stroke-dasharray:none;stroke-opacity:1"
       id="path708" />
    <path
       d="m 521.385,503.053 c -0.849,-3.051 -0.85,-11.125 0.263,-18.253 0.905,-5.792 2.822,-10.123 4.749,-14.701"
       style="fill:none;stroke:#231f20;stroke-width:0.5;stroke-linecap:butt;stroke-linejoin:miter;stroke-miterlimit:4;stroke-dasharray:none;stroke-opacity:1"
       id="path710" />
    <path
       d="m 516.699,449.127 c -0.057,-1.405 2.539,-6.409 4.949,-8.078 0,0 -0.926,-5.562 1.854,-12.236 2.781,-6.674 7.395,-11.928 9.62,-13.411"
       style="fill:none;stroke:#231f20;stroke-width:0.5;stroke-linecap:butt;stroke-linejoin:miter;stroke-miterlimit:4;stroke-dasharray:none;stroke-opacity:1"
       id="path712" />
    <path
       d="m 521.648,441.049 c -1.337,1.223 -3.523,2.224 -6.674,0.185 -3.152,-2.039 -1.203,-8.626 -0.698,-10.381 0.543,-1.89 1.426,-4.424 1.995,-5.747 0.429,-0.993 0.84,-2.196 -0.556,-2.41 -1.969,-0.302 -3.151,-3.753 -1.297,-6.904 1.853,-3.151 5.376,-6.629 10.938,-7.557"
       style="fill:none;stroke:#231f20;stroke-width:0.5;stroke-linecap:butt;stroke-linejoin:miter;stroke-miterlimit:4;stroke-dasharray:none;stroke-opacity:1"
       id="path714" />
    <path
       d="m 498.474,371.713 c 7.786,-1.853 10.938,3.152 11.68,5.376 0.742,2.225 2.595,12.978 4.449,15.574 1.855,2.594 11.31,18.724 17.427,22.06 2.771,1.512 5.561,4.821 7.972,5.192 2.41,-0.371 5.201,-3.68 7.972,-5.192 6.116,-3.336 15.571,-19.466 17.426,-22.06 1.854,-2.596 3.708,-13.349 4.45,-15.574 0.741,-2.224 3.893,-7.229 11.679,-5.376"
       style="fill:none;stroke:#231f20;stroke-width:0.5;stroke-linecap:butt;stroke-linejoin:miter;stroke-miterlimit:4;stroke-dasharray:none;stroke-opacity:1"
       id="path716" />
    <path
       d="m 429.38,393.057 c -2.551,1.273 -6.174,1.83 -8.399,0.347 -2.225,-1.485 -5.191,-6.117 -3.337,-9.084 1.855,-2.967 6.488,-3.522 8.898,-2.226 2.412,1.3 3.859,3.821 4.734,6.353"
       style="fill:none;stroke:#231f20;stroke-width:0.5;stroke-linecap:butt;stroke-linejoin:miter;stroke-miterlimit:4;stroke-dasharray:none;stroke-opacity:1"
       id="path718" />
    <path
       d="m 540.002,425.661 c -1.67,0 -1.113,7.416 0,7.416 1.112,0 1.667,-7.416 0,-7.416"
       style="fill:#706d6e;fill-opacity:1;fill-rule:nonzero;stroke:none;stroke-width:0.1"
       id="path720" />
    <path
       d="m 540.002,425.661 c -1.67,0 -1.113,7.416 0,7.416 1.112,0 1.667,-7.416 0,-7.416 z"
       style="fill:none;stroke:#231f20;stroke-width:0.75;stroke-linecap:round;stroke-linejoin:round;stroke-miterlimit:4;stroke-dasharray:none;stroke-opacity:1"
       id="path722" />
    <path
       d="m 650.626,393.057 c -0.183,-1.147 -0.515,-2.146 -0.874,-2.99 0,0 -0.33,-1.034 -1.027,-1.621"
       style="fill:none;stroke:#231f20;stroke-width:0.5;stroke-linecap:butt;stroke-linejoin:miter;stroke-miterlimit:4;stroke-dasharray:none;stroke-opacity:1"
       id="path724" />
    <path
       d="m 429.378,393.057 c 0.182,-1.147 0.514,-2.146 0.873,-2.99 0,0 0.33,-1.034 1.027,-1.621"
       style="fill:none;stroke:#231f20;stroke-width:0.5;stroke-linecap:butt;stroke-linejoin:miter;stroke-miterlimit:4;stroke-dasharray:none;stroke-opacity:1"
       id="path726" />
    <path
       d="m 543.525,487.396 c 0.497,5.174 0.439,9.37 1.112,9.456 3.866,0.482 0.278,-23.082 -1.669,-23.082 -1.063,0 -0.045,7.396 0.557,13.626 z"
       style="fill:none;stroke:#231f20;stroke-width:0.5;stroke-linecap:round;stroke-linejoin:round;stroke-miterlimit:4;stroke-dasharray:2.8, 1.8;stroke-dashoffset:0;stroke-opacity:1"
       id="path728" />
    <path
       d="m 600.96,494.675 c 1.519,-2.643 4.484,-3.015 10.046,-0.049 5.562,2.967 13.719,1.669 20.023,-0.371 6.302,-2.039 19.65,-7.415 29.847,-16.128 10.196,-8.713 22.432,-21.32 22.802,-36.893 0.371,-15.573 -5.19,-25.026 -9.268,-30.775 -4.079,-5.747 -5.9,-9.305 -2.764,-11.882"
       style="fill:none;stroke:#231f20;stroke-width:0.5;stroke-linecap:round;stroke-linejoin:round;stroke-miterlimit:4;stroke-dasharray:2.8, 1.8;stroke-dashoffset:0;stroke-opacity:1"
       id="path730" />
    <path
       d="m 559.542,451.61 c 1.884,-2.157 6.229,-4.072 9.01,-3.331 2.78,0.742 5.746,1.483 10.751,7.6 5.006,6.119 11.495,14.091 9.642,22.804"
       style="fill:none;stroke:#231f20;stroke-width:0.5;stroke-linecap:round;stroke-linejoin:round;stroke-miterlimit:4;stroke-dasharray:2.8, 1.8;stroke-dashoffset:0;stroke-opacity:1"
       id="path732" />
    <path
       d="m 570.418,474.181 c 0.27,-1.256 1.496,-2.376 2.464,-2.7 1.669,-0.556 9.203,-1.14 11.614,1.084 2.41,2.225 3.708,4.265 4.449,6.118"
       style="fill:none;stroke:#231f20;stroke-width:0.5;stroke-linecap:round;stroke-linejoin:round;stroke-miterlimit:4;stroke-dasharray:2.8, 1.8;stroke-dashoffset:0;stroke-opacity:1"
       id="path734" />
    <path
       d="m 592.775,480.326 c -1.234,-1.086 -3.089,-2.014 -5.684,-1.457 -2.595,0.556 -8.852,2.119 -15.32,-2.012 -1.247,-0.797 -1.548,-1.772 -1.353,-2.676"
       style="fill:none;stroke:#231f20;stroke-width:0.5;stroke-linecap:butt;stroke-linejoin:miter;stroke-miterlimit:4;stroke-dasharray:none;stroke-opacity:1"
       id="path736" />
    <path
       d="m 509.585,474.181 c -0.27,-1.256 -1.496,-2.376 -2.463,-2.7 -1.67,-0.556 -9.204,-1.14 -11.615,1.084 -2.41,2.225 -3.708,4.265 -4.449,6.118"
       style="fill:none;stroke:#231f20;stroke-width:0.5;stroke-linecap:round;stroke-linejoin:round;stroke-miterlimit:4;stroke-dasharray:2.8, 1.8;stroke-dashoffset:0;stroke-opacity:1"
       id="path738" />
    <path
       d="m 487.228,480.326 c 1.235,-1.086 3.089,-2.014 5.685,-1.457 2.594,0.556 8.851,2.119 15.319,-2.012 1.248,-0.797 1.549,-1.772 1.353,-2.676"
       style="fill:none;stroke:#231f20;stroke-width:0.5;stroke-linecap:butt;stroke-linejoin:miter;stroke-miterlimit:4;stroke-dasharray:none;stroke-opacity:1"
       id="path740" />
    <path
       d="m 559.781,451.384 c -1.425,-1.436 -5.668,-4.846 -10.015,-7.125"
       style="fill:none;stroke:#231f20;stroke-width:0.5;stroke-linecap:round;stroke-linejoin:round;stroke-miterlimit:4;stroke-dasharray:2.8, 1.8;stroke-dashoffset:0;stroke-opacity:1"
       id="path742" />
    <path
       d="m 581.529,371.713 c 7.786,1.853 20.579,7.23 26.882,10.753 6.303,3.522 22.844,12.219 25.811,14.814"
       style="fill:none;stroke:#231f20;stroke-width:0.5;stroke-linecap:round;stroke-linejoin:round;stroke-miterlimit:4;stroke-dasharray:2.8, 1.8;stroke-dashoffset:0;stroke-opacity:1"
       id="path744" />
    <path
       d="m 648.725,388.446 c -0.542,-0.457 -1.306,-0.644 -2.309,0.136 -2.606,2.028 -6.489,4.636 -14.832,10.569 -8.342,5.933 -20.022,14.089 -27.252,19.095 -7.23,5.004 -31.127,20.19 -40.684,23.721"
       style="fill:none;stroke:#231f20;stroke-width:0.5;stroke-linecap:round;stroke-linejoin:round;stroke-miterlimit:4;stroke-dasharray:2.8, 1.8;stroke-dashoffset:0;stroke-opacity:1"
       id="path746" />
    <path
       d="m 431.278,388.446 c 0.542,-0.457 1.306,-0.644 2.31,0.136 2.605,2.028 6.488,4.636 14.83,10.569 8.344,5.933 20.023,14.089 27.253,19.095 7.23,5.004 31.127,20.19 40.685,23.721"
       style="fill:none;stroke:#231f20;stroke-width:0.5;stroke-linecap:round;stroke-linejoin:round;stroke-miterlimit:4;stroke-dasharray:2.8, 1.8;stroke-dashoffset:0;stroke-opacity:1"
       id="path748" />
    <path
       d="m 566.886,448.151 c 7.599,-1.725 33.181,-12.664 59.694,-27.494 22.101,-12.367 24.955,-21.848 24.046,-27.6"
       style="fill:none;stroke:#231f20;stroke-width:0.5;stroke-linecap:round;stroke-linejoin:round;stroke-miterlimit:4;stroke-dasharray:2.8, 1.8;stroke-dashoffset:0;stroke-opacity:1"
       id="path750" />
    <path
       d="m 513.117,448.151 c -7.598,-1.725 -33.181,-12.664 -59.693,-27.494 -22.102,-12.367 -24.956,-21.848 -24.046,-27.6"
       style="fill:none;stroke:#231f20;stroke-width:0.5;stroke-linecap:round;stroke-linejoin:round;stroke-miterlimit:4;stroke-dasharray:2.8, 1.8;stroke-dashoffset:0;stroke-opacity:1"
       id="path752" />
    <path
       d="m 620.461,422.696 c 2.685,-1.175 6.49,-3.524 4.635,-8.344 -1.854,-4.819 -7.105,-4.826 -12.358,-1.949 -5.253,2.877 -3.624,7.677 -2.473,8.994 2.085,2.387 6.118,3.083 10.196,1.299 z"
       style="fill:none;stroke:#231f20;stroke-width:0.5;stroke-linecap:round;stroke-linejoin:round;stroke-miterlimit:4;stroke-dasharray:2.8, 1.8;stroke-dashoffset:0;stroke-opacity:1"
       id="path754" />
    <path
       d="m 646.762,405.023 c -5.909,1.358 -12.682,1.324 -12.54,-7.743"
       style="fill:none;stroke:#231f20;stroke-width:0.5;stroke-linecap:round;stroke-linejoin:round;stroke-miterlimit:4;stroke-dasharray:2.8, 1.8;stroke-dashoffset:0;stroke-opacity:1"
       id="path756" />
    <path
       d="m 536.479,487.396 c -0.499,5.174 -0.439,9.37 -1.113,9.456 -3.866,0.482 -0.278,-23.082 1.669,-23.082 1.064,0 0.045,7.396 -0.556,13.626 z"
       style="fill:none;stroke:#231f20;stroke-width:0.5;stroke-linecap:round;stroke-linejoin:round;stroke-miterlimit:4;stroke-dasharray:2.8, 1.8;stroke-dashoffset:0;stroke-opacity:1"
       id="path758" />
    <path
       d="m 479.043,494.675 c -1.517,-2.643 -4.484,-3.015 -10.046,-0.049 -5.561,2.967 -13.719,1.669 -20.022,-0.371 -6.303,-2.039 -19.651,-7.415 -29.848,-16.128 -10.196,-8.713 -22.431,-21.32 -22.802,-36.893 -0.371,-15.573 5.19,-25.026 9.269,-30.775 4.078,-5.747 5.9,-9.305 2.765,-11.882"
       style="fill:none;stroke:#231f20;stroke-width:0.5;stroke-linecap:round;stroke-linejoin:round;stroke-miterlimit:4;stroke-dasharray:2.8, 1.8;stroke-dashoffset:0;stroke-opacity:1"
       id="path760" />
    <path
       d="m 520.751,451.92 c -1.884,-2.158 -6.519,-4.382 -9.299,-3.641 -2.782,0.742 -5.748,1.483 -10.753,7.6 -5.005,6.119 -11.494,14.091 -9.641,22.804"
       style="fill:none;stroke:#231f20;stroke-width:0.5;stroke-linecap:round;stroke-linejoin:round;stroke-miterlimit:4;stroke-dasharray:2.8, 1.8;stroke-dashoffset:0;stroke-opacity:1"
       id="path762" />
    <path
       d="m 540.002,421.768 c -1.874,0 -2.411,0.741 -3.153,2.039 -0.74,1.299 -1.483,5.562 -1.483,9.455 0,3.893 2.411,4.079 4.636,4.079 2.225,0 4.635,-0.186 4.635,-4.079 0,-3.893 -0.743,-8.156 -1.482,-9.455 -0.743,-1.298 -1.279,-2.039 -3.153,-2.039 z"
       style="fill:none;stroke:#231f20;stroke-width:0.5;stroke-linecap:round;stroke-linejoin:round;stroke-miterlimit:4;stroke-dasharray:2.8, 1.8;stroke-dashoffset:0;stroke-opacity:1"
       id="path764" />
    <path
       d="m 498.474,371.713 c -7.786,1.853 -20.578,7.23 -26.882,10.753 -6.302,3.522 -22.844,12.219 -25.811,14.814"
       style="fill:none;stroke:#231f20;stroke-width:0.5;stroke-linecap:round;stroke-linejoin:round;stroke-miterlimit:4;stroke-dasharray:2.8, 1.8;stroke-dashoffset:0;stroke-opacity:1"
       id="path766" />
    <path
       d="m 459.542,422.696 c -2.685,-1.175 -6.489,-3.524 -4.634,-8.344 1.854,-4.819 7.106,-4.826 12.359,-1.949 5.253,2.877 3.623,7.677 2.472,8.994 -2.086,2.387 -6.118,3.083 -10.197,1.299 z"
       style="fill:none;stroke:#231f20;stroke-width:0.5;stroke-linecap:round;stroke-linejoin:round;stroke-miterlimit:4;stroke-dasharray:2.8, 1.8;stroke-dashoffset:0;stroke-opacity:1"
       id="path768" />
    <path
       d="m 433.241,405.023 c 5.909,1.358 12.682,1.324 12.54,-7.743"
       style="fill:none;stroke:#231f20;stroke-width:0.5;stroke-linecap:round;stroke-linejoin:round;stroke-miterlimit:4;stroke-dasharray:2.8, 1.8;stroke-dashoffset:0;stroke-opacity:1"
       id="path770" />
    <path
       d="m 581.529,371.713 c 4.369,1.008 4.681,6.188 4.636,8.712 -0.045,2.418 -1.49,5.723 -3.629,7.851 -2.116,2.101 -5.319,6.088 -9.164,5.128 -2.967,-0.741 -4.08,2.967 -4.08,6.674 0,3.708 -1.668,5.932 -5.376,5.932 -3.706,0 -4.077,-2.967 -3.945,-5.041"
       style="fill:none;stroke:#231f20;stroke-width:0.5;stroke-linecap:round;stroke-linejoin:round;stroke-miterlimit:4;stroke-dasharray:2.8, 1.8;stroke-dashoffset:0;stroke-opacity:1"
       id="path772" />
    <path
       d="m 520.034,400.969 c 0.131,2.074 -0.242,5.041 -3.949,5.041 -3.707,0 -5.375,-2.224 -5.375,-5.932 0,-3.707 -1.113,-7.415 -4.08,-6.674 -3.844,0.96 -7.047,-3.027 -9.162,-5.128 -2.14,-2.128 -3.585,-5.433 -3.629,-7.851 -0.046,-2.524 0.267,-7.704 4.635,-8.712"
       style="fill:none;stroke:#231f20;stroke-width:0.5;stroke-linecap:round;stroke-linejoin:round;stroke-miterlimit:4;stroke-dasharray:2.8, 1.8;stroke-dashoffset:0;stroke-opacity:1"
       id="path774" />
    <path
       d="m 530.994,457.58 c 2.858,3.181 6.411,9.052 9.008,9.052 2.595,0 5.663,-5.309 8.519,-8.491"
       style="fill:none;stroke:#231f20;stroke-width:0.5;stroke-linecap:round;stroke-linejoin:round;stroke-miterlimit:4;stroke-dasharray:2.8, 1.8;stroke-dashoffset:0;stroke-opacity:1"
       id="path776" />
    <path
       d="m 540.002,451.953 c 2.225,-0.185 6.92,0.024 10.652,1.291"
       style="fill:none;stroke:#231f20;stroke-width:0.5;stroke-linecap:round;stroke-linejoin:round;stroke-miterlimit:4;stroke-dasharray:2.8, 1.8;stroke-dashoffset:0;stroke-opacity:1"
       id="path778" />
    <path
       d="m 520.223,451.384 c 1.424,-1.436 5.668,-4.846 10.014,-7.125"
       style="fill:none;stroke:#231f20;stroke-width:0.5;stroke-linecap:round;stroke-linejoin:round;stroke-miterlimit:4;stroke-dasharray:2.8, 1.8;stroke-dashoffset:0;stroke-opacity:1"
       id="path780" />
    <path
       d="m 540.002,451.953 c -2.226,-0.185 -6.921,0.024 -10.652,1.291"
       style="fill:none;stroke:#231f20;stroke-width:0.5;stroke-linecap:round;stroke-linejoin:round;stroke-miterlimit:4;stroke-dasharray:2.8, 1.8;stroke-dashoffset:0;stroke-opacity:1"
       id="path782" />
    <path
       d="m 592.837,480.722 c 0,0 -0.741,-2.41 2.596,-3.708 3.338,-1.297 16.871,-5.746 30.403,-18.538 13.535,-12.793 23.546,-32.63 28.181,-43.381 4.635,-10.754 11.68,-16.314 17.241,-16.871"
       style="fill:none;stroke:#231f20;stroke-width:0.5;stroke-linecap:round;stroke-linejoin:round;stroke-miterlimit:4;stroke-dasharray:2.8, 1.8;stroke-dashoffset:0;stroke-opacity:1"
       id="path784" />
    <path
       d="m 487.166,480.722 c 0,0 0.741,-2.41 -2.596,-3.708 -3.338,-1.297 -16.87,-5.746 -30.404,-18.538 -13.534,-12.793 -23.544,-32.63 -28.18,-43.381 -4.635,-10.754 -11.679,-16.314 -17.241,-16.871"
       style="fill:none;stroke:#231f20;stroke-width:0.5;stroke-linecap:round;stroke-linejoin:round;stroke-miterlimit:4;stroke-dasharray:2.8, 1.8;stroke-dashoffset:0;stroke-opacity:1"
       id="path786" />
    <path
       d="m 546.379,436.184 c 1.429,0.046 3.826,-0.354 4.526,1.576 0.698,1.93 -0.181,8.479 -4.366,8.154 -4.186,-0.329 -4.415,-5.006 -4.394,-5.675 0.023,-0.665 1.09,-4.158 1.852,-4.134 0.76,0.024 2.382,0.079 2.382,0.079 z"
       style="fill:none;stroke:#231f20;stroke-width:0.5;stroke-linecap:round;stroke-linejoin:round;stroke-miterlimit:4;stroke-dasharray:2.8, 1.8;stroke-dashoffset:0;stroke-opacity:1"
       id="path788" />
    <path
       d="m 549.785,436.527 c 2.233,-0.733 6.547,-1.547 8.331,-0.63"
       style="fill:none;stroke:#231f20;stroke-width:0.5;stroke-linecap:round;stroke-linejoin:round;stroke-miterlimit:4;stroke-dasharray:2.8, 1.8;stroke-dashoffset:0;stroke-opacity:1"
       id="path790" />
    <path
       d="m 533.624,436.184 c -1.428,0.046 -3.826,-0.354 -4.526,1.576 -0.698,1.93 0.181,8.479 4.366,8.154 4.186,-0.329 4.414,-5.006 4.394,-5.675 -0.024,-0.665 -1.09,-4.158 -1.852,-4.134 -0.759,0.024 -2.382,0.079 -2.382,0.079 z"
       style="fill:none;stroke:#231f20;stroke-width:0.5;stroke-linecap:round;stroke-linejoin:round;stroke-miterlimit:4;stroke-dasharray:2.8, 1.8;stroke-dashoffset:0;stroke-opacity:1"
       id="path792" />
    <path
       d="m 530.219,436.527 c -2.233,-0.733 -6.549,-1.547 -8.332,-0.63"
       style="fill:none;stroke:#231f20;stroke-width:0.5;stroke-linecap:round;stroke-linejoin:round;stroke-miterlimit:4;stroke-dasharray:2.8, 1.8;stroke-dashoffset:0;stroke-opacity:1"
       id="path794" />
  </g>
</svg>
