<?xml version="1.0" encoding="UTF-8" standalone="no"?>
<!-- Created with Inkscape (http://www.inkscape.org/) -->

<svg
   version="1.1"
   id="svg60000"
   width="1440"
   height="1344"
   viewBox="0 0 1440 1344"
   sodipodi:docname="RBSC6 Black Unlabelled 042.EPS"
   xmlns:inkscape="http://www.inkscape.org/namespaces/inkscape"
   xmlns:sodipodi="http://sodipodi.sourceforge.net/DTD/sodipodi-0.dtd"
   xmlns="http://www.w3.org/2000/svg"
   xmlns:svg="http://www.w3.org/2000/svg">
  <defs
     id="defs60004" />
  <sodipodi:namedview
     id="namedview60002"
     pagecolor="#ffffff"
     bordercolor="#666666"
     borderopacity="1.0"
     inkscape:showpageshadow="2"
     inkscape:pageopacity="0.0"
     inkscape:pagecheckerboard="0"
     inkscape:deskcolor="#d1d1d1"
     showgrid="false" />
  <g
     id="g60008"
     inkscape:groupmode="layer"
     inkscape:label="Page 1">
    <path
       d="m 540,368.278 c -7.311,0 -22.978,0 -35.164,2.785 -12.185,2.785 -37.252,4.526 -46.305,3.83 -9.052,-0.696 -14.971,-0.696 -19.845,1.045 -4.874,1.74 -3.134,7.659 -3.134,7.659 -4.177,4.874 -10.444,4.527 -17.408,3.134 -6.963,-1.394 -16.711,-10.793 -24.719,-14.972 -8.007,-4.177 -37.601,-10.444 -42.128,-11.14 -4.525,-0.697 -10.096,-1.045 -12.881,0 -2.786,1.044 -16.711,-0.697 -23.327,-2.438 -6.615,-1.74 -22.282,-3.481 -38.645,-1.74 -16.364,1.74 -21.238,3.829 -33.424,10.097 -12.186,6.266 -26.928,17.257 -32.379,23.326 -52.501,58.446 -46.306,88.65 -41.547,96.773 2.005,3.422 -1.718,3.582 -3.714,6.5 -9.051,13.23 -28.548,47.35 -28.548,100.942 0,99.768 62.684,257.431 203.314,287.64 152.49,32.759 193.125,-26.818 199.854,-35.65 6.73,8.832 47.366,68.409 199.855,35.65 140.63,-30.209 203.314,-187.872 203.314,-287.64 0,-53.592 -19.496,-87.712 -28.548,-100.942 -1.997,-2.918 -5.719,-3.078 -3.714,-6.5 4.759,-8.123 10.955,-38.327 -41.547,-96.773 -5.451,-6.069 -20.194,-17.06 -32.379,-23.326 -12.186,-6.268 -17.06,-8.357 -33.423,-10.097 -16.364,-1.741 -32.031,0 -38.646,1.74 -6.615,1.741 -20.541,3.482 -23.327,2.438 -2.785,-1.045 -8.356,-0.697 -12.881,0 -4.527,0.696 -34.12,6.963 -42.128,11.14 -8.008,4.179 -17.756,13.578 -24.719,14.972 -6.964,1.393 -13.231,1.74 -17.408,-3.134 0,0 1.74,-5.919 -3.134,-7.659 -4.874,-1.741 -10.793,-1.741 -19.845,-1.045 -9.052,0.696 -34.12,-1.045 -46.305,-3.83 -12.186,-2.785 -27.853,-2.785 -35.165,-2.785"
       style="fill:#ffffff;fill-opacity:1;fill-rule:nonzero;stroke:none;stroke-width:0.1"
       id="path60668" />
    <path
       d="m 540,368.278 c -7.311,0 -22.978,0 -35.164,2.785 -12.185,2.785 -37.252,4.526 -46.305,3.83 -9.052,-0.696 -14.971,-0.696 -19.845,1.045 -4.874,1.74 -3.134,7.659 -3.134,7.659 -4.177,4.874 -10.444,4.527 -17.408,3.134 -6.963,-1.394 -16.711,-10.793 -24.719,-14.972 -8.007,-4.177 -37.601,-10.444 -42.128,-11.14 -4.525,-0.697 -10.096,-1.045 -12.881,0 -2.786,1.044 -16.711,-0.697 -23.327,-2.438 -6.615,-1.74 -22.282,-3.481 -38.645,-1.74 -16.364,1.74 -21.238,3.829 -33.424,10.097 -12.186,6.266 -26.928,17.257 -32.379,23.326 -52.501,58.446 -46.306,88.65 -41.547,96.773 2.005,3.422 -1.718,3.582 -3.714,6.5 -9.051,13.23 -28.548,47.35 -28.548,100.942 0,99.768 62.684,257.431 203.314,287.64 152.49,32.759 193.125,-26.818 199.854,-35.65 6.73,8.832 47.366,68.409 199.855,35.65 140.63,-30.209 203.314,-187.872 203.314,-287.64 0,-53.592 -19.496,-87.712 -28.548,-100.942 -1.997,-2.918 -5.719,-3.078 -3.714,-6.5 4.759,-8.123 10.955,-38.327 -41.547,-96.773 -5.451,-6.069 -20.194,-17.06 -32.379,-23.326 -12.186,-6.268 -17.06,-8.357 -33.423,-10.097 -16.364,-1.741 -32.031,0 -38.646,1.74 -6.615,1.741 -20.541,3.482 -23.327,2.438 -2.785,-1.045 -8.356,-0.697 -12.881,0 -4.527,0.696 -34.12,6.963 -42.128,11.14 -8.008,4.179 -17.756,13.578 -24.719,14.972 -6.964,1.393 -13.231,1.74 -17.408,-3.134 0,0 1.74,-5.919 -3.134,-7.659 -4.874,-1.741 -10.793,-1.741 -19.845,-1.045 -9.052,0.696 -34.12,-1.045 -46.305,-3.83 -12.186,-2.785 -27.853,-2.785 -35.165,-2.785 z"
       style="fill:none;stroke:#231f20;stroke-width:0.75;stroke-linecap:round;stroke-linejoin:round;stroke-miterlimit:4;stroke-dasharray:none;stroke-opacity:1"
       id="path60670" />
    <path
       d="m 626.344,372.108 c 0,-1.153 -0.935,-2.089 -2.089,-2.089 -1.153,0 -2.089,0.936 -2.089,2.089 0,1.153 0.936,2.089 2.089,2.089 1.154,0 2.089,-0.936 2.089,-2.089"
       style="fill:#ffffff;fill-opacity:1;fill-rule:nonzero;stroke:none;stroke-width:0.1"
       id="path60672" />
    <path
       d="m 626.344,372.108 c 0,-1.153 -0.935,-2.089 -2.089,-2.089 -1.153,0 -2.089,0.936 -2.089,2.089 0,1.153 0.936,2.089 2.089,2.089 1.154,0 2.089,-0.936 2.089,-2.089 z"
       style="fill:none;stroke:#231f20;stroke-width:0.5;stroke-linecap:butt;stroke-linejoin:miter;stroke-miterlimit:4;stroke-dasharray:none;stroke-opacity:1"
       id="path60674" />
    <path
       d="m 643.752,372.804 c 0,-1.346 -1.87,-2.437 -4.177,-2.437 -2.309,0 -4.179,1.091 -4.179,2.437 0,1.347 1.87,2.437 4.179,2.437 2.307,0 4.177,-1.09 4.177,-2.437"
       style="fill:#ffffff;fill-opacity:1;fill-rule:nonzero;stroke:none;stroke-width:0.1"
       id="path60676" />
    <path
       d="m 643.752,372.804 c 0,-1.346 -1.87,-2.437 -4.177,-2.437 -2.309,0 -4.179,1.091 -4.179,2.437 0,1.347 1.87,2.437 4.179,2.437 2.307,0 4.177,-1.09 4.177,-2.437 z"
       style="fill:none;stroke:#231f20;stroke-width:0.5;stroke-linecap:butt;stroke-linejoin:miter;stroke-miterlimit:4;stroke-dasharray:none;stroke-opacity:1"
       id="path60678" />
    <path
       d="m 453.657,372.108 c 0,-1.153 0.935,-2.089 2.089,-2.089 1.153,0 2.088,0.936 2.088,2.089 0,1.153 -0.935,2.089 -2.088,2.089 -1.154,0 -2.089,-0.936 -2.089,-2.089"
       style="fill:#ffffff;fill-opacity:1;fill-rule:nonzero;stroke:none;stroke-width:0.1"
       id="path60680" />
    <path
       d="m 453.657,372.108 c 0,-1.153 0.935,-2.089 2.089,-2.089 1.153,0 2.088,0.936 2.088,2.089 0,1.153 -0.935,2.089 -2.088,2.089 -1.154,0 -2.089,-0.936 -2.089,-2.089 z"
       style="fill:none;stroke:#231f20;stroke-width:0.5;stroke-linecap:butt;stroke-linejoin:miter;stroke-miterlimit:4;stroke-dasharray:none;stroke-opacity:1"
       id="path60682" />
    <path
       d="m 436.249,372.804 c 0,-1.346 1.87,-2.437 4.178,-2.437 2.308,0 4.178,1.091 4.178,2.437 0,1.347 -1.87,2.437 -4.178,2.437 -2.308,0 -4.178,-1.09 -4.178,-2.437"
       style="fill:#ffffff;fill-opacity:1;fill-rule:nonzero;stroke:none;stroke-width:0.1"
       id="path60684" />
    <path
       d="m 436.249,372.804 c 0,-1.346 1.87,-2.437 4.178,-2.437 2.308,0 4.178,1.091 4.178,2.437 0,1.347 -1.87,2.437 -4.178,2.437 -2.308,0 -4.178,-1.09 -4.178,-2.437 z"
       style="fill:none;stroke:#231f20;stroke-width:0.5;stroke-linecap:butt;stroke-linejoin:miter;stroke-miterlimit:4;stroke-dasharray:none;stroke-opacity:1"
       id="path60686" />
    <path
       d="M 540,846.069 V 753.285"
       style="fill:none;stroke:#231f20;stroke-width:0.75;stroke-linecap:round;stroke-linejoin:round;stroke-miterlimit:4;stroke-dasharray:none;stroke-opacity:1"
       id="path60688" />
    <path
       d="m 571.024,726.787 c 8.667,3.228 22.941,10.192 29.557,21.333 6.615,11.141 12.533,20.889 24.371,21.238 11.837,0.348 31.682,-2.089 35.86,-2.785"
       style="fill:none;stroke:#231f20;stroke-width:0.5;stroke-linecap:butt;stroke-linejoin:miter;stroke-miterlimit:4;stroke-dasharray:none;stroke-opacity:1"
       id="path60690" />
    <path
       d="m 818.529,494.312 c -3.134,-6.267 -14.971,-21.586 -20.542,-26.46 -5.571,-4.875 -12.533,-10.793 -36.557,-4.526 0,0 11.073,-21.298 26.948,-1.423"
       style="fill:none;stroke:#231f20;stroke-width:0.5;stroke-linecap:butt;stroke-linejoin:miter;stroke-miterlimit:4;stroke-dasharray:none;stroke-opacity:1"
       id="path60692" />
    <path
       d="m 743.33,360.897 c 2.659,2.573 9.396,5.641 20.189,2.158 10.793,-3.481 30.009,-7.778 49.091,-3.481 19.082,4.298 39.518,15.528 45.611,20.424"
       style="fill:none;stroke:#231f20;stroke-width:0.5;stroke-linecap:butt;stroke-linejoin:miter;stroke-miterlimit:4;stroke-dasharray:none;stroke-opacity:1"
       id="path60694" />
    <path
       d="m 574.121,515.898 c 0,4.644 8.355,11.141 11.489,12.186 3.133,1.044 11.489,2.785 13.578,-0.697 2.089,-3.481 5.222,-9.4 1.393,-13.23 -3.831,-3.829 -12.673,-8.238 -18.105,-7.659 -5.432,0.578 -8.355,2.088 -8.355,9.4 z"
       style="fill:none;stroke:#231f20;stroke-width:0.5;stroke-linecap:butt;stroke-linejoin:miter;stroke-miterlimit:4;stroke-dasharray:none;stroke-opacity:1"
       id="path60696" />
    <path
       d="m 540,753.285 c 0,-2.785 1.795,-17.591 6.294,-22.171"
       style="fill:none;stroke:#231f20;stroke-width:0.75;stroke-linecap:round;stroke-linejoin:round;stroke-miterlimit:4;stroke-dasharray:none;stroke-opacity:1"
       id="path60698" />
    <path
       d="m 540,701.466 c 1.045,-2.785 4.527,-7.311 10.097,-6.963 5.571,0.348 11.142,0.697 17.756,4.178 6.615,3.482 12.157,6.698 15.643,10.866"
       style="fill:none;stroke:#231f20;stroke-width:0.5;stroke-linecap:butt;stroke-linejoin:miter;stroke-miterlimit:4;stroke-dasharray:none;stroke-opacity:1"
       id="path60700" />
    <path
       d="m 657.678,634.272 c -3.829,-4.875 -7.31,-11.142 -7.659,-12.534 -0.348,-1.393 -4.178,-10.793 -6.963,-14.275 -2.785,-3.481 -5.571,-11.14 -2.437,-13.229 3.133,-2.089 8.356,-2.089 16.363,10.097 8.008,12.184 8.008,11.488 15.319,22.977 7.312,11.489 12.186,17.061 14.623,27.854 2.437,10.793 3.482,22.63 8.356,24.718 4.874,2.089 11.141,0.697 12.882,-4.177 1.741,-4.874 1.741,-12.186 4.874,-16.712 3.133,-4.526 4.178,-12.882 0.348,-19.845 -3.83,-6.963 -13.926,-28.549 -14.274,-39.342 -0.349,-10.793 -5.919,-31.682 -6.615,-36.556 -0.697,-4.874 -12.882,-41.431 -17.756,-49.091"
       style="fill:none;stroke:#231f20;stroke-width:0.5;stroke-linecap:butt;stroke-linejoin:miter;stroke-miterlimit:4;stroke-dasharray:none;stroke-opacity:1"
       id="path60702" />
    <path
       d="m 668.903,622.033 c -4.261,-2.036 -15.985,-8.261 -10.645,-15.767"
       style="fill:none;stroke:#231f20;stroke-width:0.5;stroke-linecap:butt;stroke-linejoin:miter;stroke-miterlimit:4;stroke-dasharray:none;stroke-opacity:1"
       id="path60704" />
    <path
       d="m 655.842,602.657 c -0.253,-4.245 1.489,-10.514 1.14,-13.646 -0.348,-3.132 -4.178,-28.201 -5.222,-33.075 -1.045,-4.874 -3.482,-15.667 -0.696,-25.067 2.785,-9.401 10.444,-16.712 12.882,-17.756 2.436,-1.045 8.704,-2.438 10.793,1.044"
       style="fill:none;stroke:#231f20;stroke-width:0.5;stroke-linecap:butt;stroke-linejoin:miter;stroke-miterlimit:4;stroke-dasharray:none;stroke-opacity:1"
       id="path60706" />
    <path
       d="m 395.174,732.739 c -13.23,-1.74 -51.187,-5.857 -74.166,-21.524 -22.978,-15.668 -51.876,-63.714 -63.365,-92.611 -11.489,-28.896 -12.534,-70.327 -9.749,-85.646 2.785,-15.32 13.578,-38.646 13.578,-38.646 -3.133,5.223 -27.156,38.646 -19.497,89.129 7.66,50.482 19.497,73.809 34.12,98.181 14.623,24.371 44.913,57.446 74.855,71.72 29.941,14.275 78.336,25.764 102.707,28.201 24.371,2.437 27.505,-9.4 30.638,-16.363 3.133,-6.964 10.096,-27.853 18.8,-35.165 8.704,-7.31 32.031,-6.963 36.905,-6.963 4.874,0 28.202,-0.347 36.906,6.963 8.704,7.312 15.667,28.201 18.801,35.165 3.132,6.963 6.266,18.8 30.637,16.363 24.371,-2.437 72.766,-13.926 102.707,-28.201 29.943,-14.274 60.232,-47.349 74.855,-71.72 14.623,-24.372 26.46,-47.699 34.12,-98.181 7.659,-50.483 -16.364,-83.906 -19.497,-89.129 0,0 10.793,23.326 13.578,38.646 2.785,15.319 1.74,56.75 -9.749,85.646 -11.489,28.897 -40.386,76.943 -63.364,92.611 -22.98,15.667 -60.937,19.784 -74.167,21.524"
       style="fill:none;stroke:#231f20;stroke-width:0.5;stroke-linecap:butt;stroke-linejoin:miter;stroke-miterlimit:4;stroke-dasharray:none;stroke-opacity:1"
       id="path60708" />
    <path
       d="m 508.978,726.787 c -8.668,3.228 -22.942,10.192 -29.558,21.333 -6.615,11.141 -12.533,20.889 -24.371,21.238 -11.837,0.348 -31.682,-2.089 -35.86,-2.785"
       style="fill:none;stroke:#231f20;stroke-width:0.5;stroke-linecap:butt;stroke-linejoin:miter;stroke-miterlimit:4;stroke-dasharray:none;stroke-opacity:1"
       id="path60710" />
    <path
       d="m 261.472,494.312 c 3.134,-6.267 14.972,-21.586 20.542,-26.46 5.57,-4.875 12.533,-10.793 36.557,-4.526 0,0 -11.073,-21.298 -26.948,-1.423"
       style="fill:none;stroke:#231f20;stroke-width:0.5;stroke-linecap:butt;stroke-linejoin:miter;stroke-miterlimit:4;stroke-dasharray:none;stroke-opacity:1"
       id="path60712" />
    <path
       d="m 336.671,360.897 c -2.659,2.573 -9.396,5.641 -20.189,2.158 -10.793,-3.481 -30.009,-7.778 -49.091,-3.481 -19.082,4.298 -39.518,15.528 -45.611,20.424"
       style="fill:none;stroke:#231f20;stroke-width:0.5;stroke-linecap:butt;stroke-linejoin:miter;stroke-miterlimit:4;stroke-dasharray:none;stroke-opacity:1"
       id="path60714" />
    <path
       d="m 540,498.838 c 0,0 0,4.875 -1.741,9.401 -1.74,4.524 -3.829,12.533 -3.829,21.237 0,8.704 3.133,12.186 5.57,12.186 2.438,0 5.571,-3.482 5.571,-12.186 0,-8.704 -2.089,-16.713 -3.829,-21.237 C 540,503.713 540,498.838 540,498.838"
       style="fill:#706d6e;fill-opacity:1;fill-rule:nonzero;stroke:none;stroke-width:0.1"
       id="path60716" />
    <path
       d="m 540,498.838 c 0,0 0,4.875 -1.741,9.401 -1.74,4.524 -3.829,12.533 -3.829,21.237 0,8.704 3.133,12.186 5.57,12.186 2.438,0 5.571,-3.482 5.571,-12.186 0,-8.704 -2.089,-16.713 -3.829,-21.237 C 540,503.713 540,498.838 540,498.838 Z"
       style="fill:none;stroke:#231f20;stroke-width:0.75;stroke-linecap:round;stroke-linejoin:round;stroke-miterlimit:4;stroke-dasharray:none;stroke-opacity:1"
       id="path60718" />
    <path
       d="m 505.88,515.898 c 0,4.644 -8.355,11.141 -11.489,12.186 -3.133,1.044 -11.489,2.785 -13.578,-0.697 -2.089,-3.481 -5.222,-9.4 -1.393,-13.23 3.83,-3.829 12.673,-8.238 18.105,-7.659 5.432,0.578 8.355,2.088 8.355,9.4 z"
       style="fill:none;stroke:#231f20;stroke-width:0.5;stroke-linecap:butt;stroke-linejoin:miter;stroke-miterlimit:4;stroke-dasharray:none;stroke-opacity:1"
       id="path60720" />
    <path
       d="m 546.363,731.092 c -2.636,1.282 -5.372,0.363 -6.363,-0.38 -0.98,0.736 -3.674,1.645 -6.286,0.416"
       style="fill:none;stroke:#231f20;stroke-width:0.75;stroke-linecap:round;stroke-linejoin:round;stroke-miterlimit:4;stroke-dasharray:none;stroke-opacity:1"
       id="path60722" />
    <path
       d="m 540,753.285 c 0,-2.785 -1.794,-17.591 -6.293,-22.171"
       style="fill:none;stroke:#231f20;stroke-width:0.75;stroke-linecap:round;stroke-linejoin:round;stroke-miterlimit:4;stroke-dasharray:none;stroke-opacity:1"
       id="path60724" />
    <path
       d="m 480.018,716.274 c 28.2,-13.578 54.76,-14.808 59.982,-14.808 5.223,0 31.783,1.23 59.983,14.808"
       style="fill:none;stroke:#231f20;stroke-width:0.5;stroke-linecap:butt;stroke-linejoin:miter;stroke-miterlimit:4;stroke-dasharray:none;stroke-opacity:1"
       id="path60726" />
    <path
       d="m 540,701.466 c -1.043,-2.785 -4.526,-7.311 -10.096,-6.963 -5.57,0.348 -11.141,0.697 -17.756,4.178 -6.615,3.482 -12.157,6.698 -15.643,10.866"
       style="fill:none;stroke:#231f20;stroke-width:0.5;stroke-linecap:butt;stroke-linejoin:miter;stroke-miterlimit:4;stroke-dasharray:none;stroke-opacity:1"
       id="path60728" />
    <path
       d="m 693.887,725.49 c 0,0 -5.222,5.222 -12.534,9.4 -7.311,4.178 -19.845,10.444 -34.119,10.097 -14.274,-0.349 -27.853,-12.186 -34.12,-18.105 -6.267,-5.919 -19.497,-14.97 -21.934,-17.756 -2.437,-2.786 1.044,-5.918 4.874,-9.4 3.83,-3.482 11.838,-9.053 26.112,-16.364 14.275,-7.311 27.505,-13.926 34.12,-16.711 6.615,-2.786 10.864,-5.639 13.578,-7.66 2.575,-1.917 -2.437,-9.401 -3.829,-11.837 -1.393,-2.438 -4.266,-8.182 -16.016,-12.882 -8.822,-3.529 -19.845,-0.349 -25.067,-0.349 -5.223,0 -17.408,0.697 -25.068,3.83 -7.66,3.133 -27.852,7.66 -33.771,8.356 -2.884,0.34 -8.325,0.761 -13.552,1.104 v -10e-4 c 4.848,-2.496 7.633,-8.066 7.284,-11.2 -0.347,-3.133 -1.392,-6.963 -19.845,-6.963 -18.452,0 -19.497,3.83 -19.844,6.963 -0.349,3.134 2.436,8.704 7.284,11.2 v 10e-4 c -5.227,-0.343 -10.669,-0.764 -13.552,-1.104 -5.918,-0.696 -26.111,-5.223 -33.771,-8.356 -7.659,-3.133 -19.845,-3.83 -25.068,-3.83 -5.222,0 -16.245,-3.18 -25.067,0.349 -11.75,4.7 -14.623,10.444 -16.016,12.882 -1.392,2.436 -6.404,9.92 -3.829,11.837 2.714,2.021 6.963,4.874 13.578,7.66 6.616,2.785 19.845,9.4 34.119,16.711 14.275,7.311 22.283,12.882 26.113,16.364 3.83,3.482 7.311,6.614 4.874,9.4 -2.437,2.786 -15.667,11.837 -21.934,17.756 -6.267,5.919 -19.845,17.756 -34.12,18.105 -14.274,0.347 -26.809,-5.919 -34.119,-10.097 -7.312,-4.178 -12.534,-9.4 -12.534,-9.4 0,0 8.008,-7.312 11.838,-22.979 3.829,-15.667 0.696,-29.594 -0.697,-34.816 -1.393,-5.223 -0.348,-8.008 2.437,-11.489 2.785,-3.482 11.489,-16.016 22.631,-21.934 11.14,-5.919 18.801,-8.356 20.889,-9.749 0,0 6.084,6.785 15.319,-2.437 3.833,-3.828 10.445,-8.705 10.445,-8.705 0,0 9.052,8.357 16.712,5.572 7.659,-2.787 7.985,-5.864 17.06,-5.572 10.793,0.348 17.755,-5.57 22.282,-10.095 4.526,-4.526 9.052,-10.793 14.97,-10.793 5.919,0 10.446,6.267 14.971,10.793 4.527,4.525 11.489,10.443 22.282,10.095 9.075,-0.292 9.401,2.785 17.061,5.572 7.659,2.785 16.711,-5.572 16.711,-5.572 0,0 6.612,4.877 10.445,8.705 9.235,9.222 15.319,2.437 15.319,2.437 2.089,1.393 9.749,3.83 20.889,9.749 11.142,5.918 19.846,18.452 22.631,21.934 2.785,3.481 3.83,6.266 2.438,11.489 -1.394,5.222 -4.527,19.149 -0.697,34.816 3.829,15.667 11.837,22.979 11.837,22.979"
       style="fill:#706d6e;fill-opacity:1;fill-rule:nonzero;stroke:none;stroke-width:0.1"
       id="path60730" />
    <path
       d="m 693.887,725.49 c 0,0 -5.222,5.222 -12.534,9.4 -7.311,4.178 -19.845,10.444 -34.119,10.097 -14.274,-0.349 -27.853,-12.186 -34.12,-18.105 -6.267,-5.919 -19.497,-14.97 -21.934,-17.756 -2.437,-2.786 1.044,-5.918 4.874,-9.4 3.83,-3.482 11.838,-9.053 26.112,-16.364 14.275,-7.311 27.505,-13.926 34.12,-16.711 6.615,-2.786 10.864,-5.639 13.578,-7.66 2.575,-1.917 -2.437,-9.401 -3.829,-11.837 -1.393,-2.438 -4.266,-8.182 -16.016,-12.882 -8.822,-3.529 -19.845,-0.349 -25.067,-0.349 -5.223,0 -17.408,0.697 -25.068,3.83 -7.66,3.133 -27.852,7.66 -33.771,8.356 -2.884,0.34 -8.325,0.761 -13.552,1.104 v -10e-4 c 4.848,-2.496 7.633,-8.066 7.284,-11.2 -0.347,-3.133 -1.392,-6.963 -19.845,-6.963 -18.452,0 -19.497,3.83 -19.844,6.963 -0.349,3.134 2.436,8.704 7.284,11.2 v 10e-4 c -5.227,-0.343 -10.669,-0.764 -13.552,-1.104 -5.918,-0.696 -26.111,-5.223 -33.771,-8.356 -7.659,-3.133 -19.845,-3.83 -25.068,-3.83 -5.222,0 -16.245,-3.18 -25.067,0.349 -11.75,4.7 -14.623,10.444 -16.016,12.882 -1.392,2.436 -6.404,9.92 -3.829,11.837 2.714,2.021 6.963,4.874 13.578,7.66 6.616,2.785 19.845,9.4 34.119,16.711 14.275,7.311 22.283,12.882 26.113,16.364 3.83,3.482 7.311,6.614 4.874,9.4 -2.437,2.786 -15.667,11.837 -21.934,17.756 -6.267,5.919 -19.845,17.756 -34.12,18.105 -14.274,0.347 -26.809,-5.919 -34.119,-10.097 -7.312,-4.178 -12.534,-9.4 -12.534,-9.4 0,0 8.008,-7.312 11.838,-22.979 3.829,-15.667 0.696,-29.594 -0.697,-34.816 -1.393,-5.223 -0.348,-8.008 2.437,-11.489 2.785,-3.482 11.489,-16.016 22.631,-21.934 11.14,-5.919 18.801,-8.356 20.889,-9.749 0,0 6.084,6.785 15.319,-2.437 3.833,-3.828 10.445,-8.705 10.445,-8.705 0,0 9.052,8.357 16.712,5.572 7.659,-2.787 7.985,-5.864 17.06,-5.572 10.793,0.348 17.755,-5.57 22.282,-10.095 4.526,-4.526 9.052,-10.793 14.97,-10.793 5.919,0 10.446,6.267 14.971,10.793 4.527,4.525 11.489,10.443 22.282,10.095 9.075,-0.292 9.401,2.785 17.061,5.572 7.659,2.785 16.711,-5.572 16.711,-5.572 0,0 6.612,4.877 10.445,8.705 9.235,9.222 15.319,2.437 15.319,2.437 2.089,1.393 9.749,3.83 20.889,9.749 11.142,5.918 19.846,18.452 22.631,21.934 2.785,3.481 3.83,6.266 2.438,11.489 -1.394,5.222 -4.527,19.149 -0.697,34.816 3.829,15.667 11.837,22.979 11.837,22.979 z"
       style="fill:none;stroke:#231f20;stroke-width:0.75;stroke-linecap:round;stroke-linejoin:round;stroke-miterlimit:4;stroke-dasharray:none;stroke-opacity:1"
       id="path60732" />
    <path
       d="m 422.323,634.272 c 3.829,-4.875 7.311,-11.142 7.659,-12.534 0.349,-1.393 4.178,-10.793 6.963,-14.275 2.785,-3.481 5.571,-11.14 2.437,-13.229 -3.133,-2.089 -8.355,-2.089 -16.363,10.097 -8.008,12.184 -8.008,11.488 -15.319,22.977 -7.312,11.489 -12.186,17.061 -14.623,27.854 -2.437,10.793 -3.482,22.63 -8.356,24.718 -4.874,2.089 -11.141,0.697 -12.882,-4.177 -1.741,-4.874 -1.741,-12.186 -4.874,-16.712 -3.133,-4.526 -4.178,-12.882 -0.348,-19.845 3.83,-6.963 13.926,-28.549 14.274,-39.342 0.349,-10.793 5.919,-31.682 6.615,-36.556 0.697,-4.874 12.882,-41.431 17.756,-49.091"
       style="fill:none;stroke:#231f20;stroke-width:0.5;stroke-linecap:butt;stroke-linejoin:miter;stroke-miterlimit:4;stroke-dasharray:none;stroke-opacity:1"
       id="path60734" />
    <path
       d="m 411.098,622.033 c 4.261,-2.036 15.985,-8.261 10.645,-15.767"
       style="fill:none;stroke:#231f20;stroke-width:0.5;stroke-linecap:butt;stroke-linejoin:miter;stroke-miterlimit:4;stroke-dasharray:none;stroke-opacity:1"
       id="path60736" />
    <path
       d="m 424.159,602.657 c 0.253,-4.245 -1.489,-10.514 -1.14,-13.646 0.348,-3.132 4.178,-28.201 5.222,-33.075 1.045,-4.874 3.482,-15.667 0.696,-25.067 -2.785,-9.401 -10.444,-16.712 -12.882,-17.756 -2.436,-1.045 -8.703,-2.438 -10.793,1.044"
       style="fill:none;stroke:#231f20;stroke-width:0.5;stroke-linecap:butt;stroke-linejoin:miter;stroke-miterlimit:4;stroke-dasharray:none;stroke-opacity:1"
       id="path60738" />
    <path
       d="M 540,398.609 V 498.838"
       style="fill:none;stroke:#231f20;stroke-width:0.75;stroke-linecap:round;stroke-linejoin:round;stroke-miterlimit:4;stroke-dasharray:none;stroke-opacity:1"
       id="path60740" />
    <path
       d="m 540,730.712 v -7.66"
       style="fill:none;stroke:#231f20;stroke-width:0.75;stroke-linecap:round;stroke-linejoin:round;stroke-miterlimit:4;stroke-dasharray:none;stroke-opacity:1"
       id="path60742" />
    <path
       d="m 571.561,386.825 c 4.649,0.254 16.138,-1.488 20.663,-3.577 0,0 -20.117,-8.352 -27.814,-13.924"
       style="fill:none;stroke:#231f20;stroke-width:0.5;stroke-linecap:butt;stroke-linejoin:miter;stroke-miterlimit:4;stroke-dasharray:none;stroke-opacity:1"
       id="path60744" />
    <path
       d="m 435.552,383.597 c 1.393,2.785 12.534,12.186 15.668,13.23 3.133,1.045 16.711,0 22.979,-0.697 6.266,-0.696 25.067,-6.266 33.423,-9.051 8.355,-2.786 26.46,-2.438 32.378,-2.438 5.919,0 24.024,-0.348 32.379,2.438 8.356,2.785 27.157,8.355 33.424,9.051 6.267,0.697 19.845,1.742 22.979,0.697 3.133,-1.044 14.274,-10.445 15.667,-13.23"
       style="fill:none;stroke:#231f20;stroke-width:0.5;stroke-linecap:butt;stroke-linejoin:miter;stroke-miterlimit:4;stroke-dasharray:none;stroke-opacity:1"
       id="path60746" />
    <path
       d="m 508.44,386.825 c -4.648,0.254 -16.138,-1.488 -20.663,-3.577 0,0 20.117,-8.352 27.814,-13.924"
       style="fill:none;stroke:#231f20;stroke-width:0.5;stroke-linecap:butt;stroke-linejoin:miter;stroke-miterlimit:4;stroke-dasharray:none;stroke-opacity:1"
       id="path60748" />
    <path
       d="m 552.561,647.212 c -5.619,0.372 -10.741,0.659 -12.561,0.659 -1.819,0 -6.942,-0.287 -12.56,-0.659"
       style="fill:none;stroke:#231f20;stroke-width:0.5;stroke-linecap:butt;stroke-linejoin:miter;stroke-miterlimit:4;stroke-dasharray:none;stroke-opacity:1"
       id="path60750" />
    <path
       d="m 611.025,613.381 c 0.696,-6.265 4.668,-36.788 7.66,-43.171 5.222,-11.14 9.609,-16.719 12.047,-20.548 0.257,-1.45 0.534,-2.826 0.85,-4.093 0.274,-1.092 0.55,-2.166 0.831,-3.208 0.963,-3.852 -0.807,-5.071 -2.935,-5.922 -1.741,-0.696 -13.578,-3.481 -20.542,-1.393 -6.963,2.089 -10.793,13.231 -12.186,19.15 -1.392,5.918 -6.266,23.326 -9.748,30.986 -3.481,7.659 -13.926,17.756 -17.756,20.89 -3.83,3.132 -1.498,5.868 1.301,6.674"
       style="fill:none;stroke:#231f20;stroke-width:0.5;stroke-linecap:butt;stroke-linejoin:miter;stroke-miterlimit:4;stroke-dasharray:none;stroke-opacity:1"
       id="path60752" />
    <path
       d="m 468.976,613.381 c -0.696,-6.265 -4.668,-36.788 -7.66,-43.171 -5.222,-11.14 -9.609,-16.719 -12.047,-20.548 -0.257,-1.45 -0.534,-2.826 -0.851,-4.093 -0.273,-1.092 -0.549,-2.166 -0.83,-3.208 -0.962,-3.852 0.807,-5.071 2.935,-5.922 1.741,-0.696 13.579,-3.481 20.542,-1.393 6.963,2.089 10.793,13.231 12.185,19.15 1.393,5.918 6.267,23.326 9.749,30.986 3.482,7.659 13.926,17.756 17.756,20.89 3.829,3.132 1.498,5.868 -1.301,6.674"
       style="fill:none;stroke:#231f20;stroke-width:0.5;stroke-linecap:butt;stroke-linejoin:miter;stroke-miterlimit:4;stroke-dasharray:none;stroke-opacity:1"
       id="path60754" />
    <path
       d="m 620.089,397.2 c 3.818,6.242 29.93,9.723 40.696,-10.264"
       style="fill:none;stroke:#231f20;stroke-width:0.5;stroke-linecap:round;stroke-linejoin:round;stroke-miterlimit:4;stroke-dasharray:2.8, 1.8;stroke-dashoffset:0;stroke-opacity:1"
       id="path60756" />
    <path
       d="m 540,808.352 62.348,-32.095"
       style="fill:none;stroke:#231f20;stroke-width:0.5;stroke-linecap:round;stroke-linejoin:round;stroke-miterlimit:4;stroke-dasharray:2.8, 1.8;stroke-dashoffset:0;stroke-opacity:1"
       id="path60758" />
    <path
       d="m 567.952,871.042 39.997,-91.238"
       style="fill:none;stroke:#231f20;stroke-width:0.5;stroke-linecap:round;stroke-linejoin:round;stroke-miterlimit:4;stroke-dasharray:2.8, 1.8;stroke-dashoffset:0;stroke-opacity:1"
       id="path60760" />
    <path
       d="m 617.584,888.3 7.313,-106.633"
       style="fill:none;stroke:#231f20;stroke-width:0.5;stroke-linecap:round;stroke-linejoin:round;stroke-miterlimit:4;stroke-dasharray:2.8, 1.8;stroke-dashoffset:0;stroke-opacity:1"
       id="path60762" />
    <path
       d="M 663.955,891.36 651.824,777.446"
       style="fill:none;stroke:#231f20;stroke-width:0.5;stroke-linecap:round;stroke-linejoin:round;stroke-miterlimit:4;stroke-dasharray:2.8, 1.8;stroke-dashoffset:0;stroke-opacity:1"
       id="path60764" />
    <path
       d="M 748.96,879.612 708.874,761.643"
       style="fill:none;stroke:#231f20;stroke-width:0.5;stroke-linecap:round;stroke-linejoin:round;stroke-miterlimit:4;stroke-dasharray:2.8, 1.8;stroke-dashoffset:0;stroke-opacity:1"
       id="path60766" />
    <path
       d="m 743.431,745.126 65.344,108.683"
       style="fill:none;stroke:#231f20;stroke-width:0.5;stroke-linecap:round;stroke-linejoin:round;stroke-miterlimit:4;stroke-dasharray:2.8, 1.8;stroke-dashoffset:0;stroke-opacity:1"
       id="path60768" />
    <path
       d="M 831.317,837.767 759.968,732.589"
       style="fill:none;stroke:#231f20;stroke-width:0.5;stroke-linecap:round;stroke-linejoin:round;stroke-miterlimit:4;stroke-dasharray:2.8, 1.8;stroke-dashoffset:0;stroke-opacity:1"
       id="path60770" />
    <path
       d="m 820.29,650.464 107.219,38.837"
       style="fill:none;stroke:#231f20;stroke-width:0.5;stroke-linecap:round;stroke-linejoin:round;stroke-miterlimit:4;stroke-dasharray:2.8, 1.8;stroke-dashoffset:0;stroke-opacity:1"
       id="path60772" />
    <path
       d="m 830.23,621.606 109.682,14.223"
       style="fill:none;stroke:#231f20;stroke-width:0.5;stroke-linecap:round;stroke-linejoin:round;stroke-miterlimit:4;stroke-dasharray:2.8, 1.8;stroke-dashoffset:0;stroke-opacity:1"
       id="path60774" />
    <path
       d="m 839.46,559.776 96.244,-20.652"
       style="fill:none;stroke:#231f20;stroke-width:0.5;stroke-linecap:round;stroke-linejoin:round;stroke-miterlimit:4;stroke-dasharray:2.8, 1.8;stroke-dashoffset:0;stroke-opacity:1"
       id="path60776" />
    <path
       d="m 839.394,558.042 c 1.417,-10.114 3.854,-29.958 4.55,-35.877 0.696,-5.919 1.392,-20.89 -1.74,-27.505 -3.134,-6.615 -6.616,-18.104 -6.616,-18.104"
       style="fill:none;stroke:#231f20;stroke-width:0.5;stroke-linecap:round;stroke-linejoin:round;stroke-miterlimit:4;stroke-dasharray:2.8, 1.8;stroke-dashoffset:0;stroke-opacity:1"
       id="path60778" />
    <path
       d="m 824.976,505.193 c 4.311,8.979 17.924,13.142 19.186,-2.163"
       style="fill:none;stroke:#231f20;stroke-width:0.5;stroke-linecap:round;stroke-linejoin:round;stroke-miterlimit:4;stroke-dasharray:2.8, 1.8;stroke-dashoffset:0;stroke-opacity:1"
       id="path60780" />
    <path
       d="m 844.486,507.907 c 0,0 42.29,-12.178 66.199,-18.462"
       style="fill:none;stroke:#231f20;stroke-width:0.5;stroke-linecap:round;stroke-linejoin:round;stroke-miterlimit:4;stroke-dasharray:2.8, 1.8;stroke-dashoffset:0;stroke-opacity:1"
       id="path60782" />
    <path
       d="m 842.419,534.682 c 15.104,-3.465 68.665,-15.691 84.231,-20.103"
       style="fill:none;stroke:#231f20;stroke-width:0.5;stroke-linecap:round;stroke-linejoin:round;stroke-miterlimit:4;stroke-dasharray:2.8, 1.8;stroke-dashoffset:0;stroke-opacity:1"
       id="path60784" />
    <path
       d="m 797.987,467.852 c 0,-4.178 -2.089,-20.193 2.089,-26.46 4.178,-6.268 11.838,-6.964 20.889,-1.741 9.053,5.223 19.497,17.408 17.061,27.156 -2.438,9.749 -4.875,11.142 -7.312,13.927 -2.437,2.785 -12.185,13.578 -12.185,13.578"
       style="fill:none;stroke:#231f20;stroke-width:0.5;stroke-linecap:round;stroke-linejoin:round;stroke-miterlimit:4;stroke-dasharray:2.8, 1.8;stroke-dashoffset:0;stroke-opacity:1"
       id="path60786" />
    <path
       d="m 833.06,478.158 c 4.966,-2.994 31.76,-17.375 76.75,-26.692"
       style="fill:none;stroke:#231f20;stroke-width:0.5;stroke-linecap:round;stroke-linejoin:round;stroke-miterlimit:4;stroke-dasharray:2.8, 1.8;stroke-dashoffset:0;stroke-opacity:1"
       id="path60788" />
    <path
       d="M 512.05,871.042 472.052,779.804"
       style="fill:none;stroke:#231f20;stroke-width:0.5;stroke-linecap:round;stroke-linejoin:round;stroke-miterlimit:4;stroke-dasharray:2.8, 1.8;stroke-dashoffset:0;stroke-opacity:1"
       id="path60790" />
    <path
       d="M 462.416,888.3 455.104,781.667"
       style="fill:none;stroke:#231f20;stroke-width:0.5;stroke-linecap:round;stroke-linejoin:round;stroke-miterlimit:4;stroke-dasharray:2.8, 1.8;stroke-dashoffset:0;stroke-opacity:1"
       id="path60792" />
    <path
       d="M 416.046,891.36 428.177,777.446"
       style="fill:none;stroke:#231f20;stroke-width:0.5;stroke-linecap:round;stroke-linejoin:round;stroke-miterlimit:4;stroke-dasharray:2.8, 1.8;stroke-dashoffset:0;stroke-opacity:1"
       id="path60794" />
    <path
       d="M 331.042,879.612 371.126,761.643"
       style="fill:none;stroke:#231f20;stroke-width:0.5;stroke-linecap:round;stroke-linejoin:round;stroke-miterlimit:4;stroke-dasharray:2.8, 1.8;stroke-dashoffset:0;stroke-opacity:1"
       id="path60796" />
    <path
       d="M 336.571,745.126 271.227,853.809"
       style="fill:none;stroke:#231f20;stroke-width:0.5;stroke-linecap:round;stroke-linejoin:round;stroke-miterlimit:4;stroke-dasharray:2.8, 1.8;stroke-dashoffset:0;stroke-opacity:1"
       id="path60798" />
    <path
       d="M 248.684,837.766 320.033,732.589"
       style="fill:none;stroke:#231f20;stroke-width:0.5;stroke-linecap:round;stroke-linejoin:round;stroke-miterlimit:4;stroke-dasharray:2.8, 1.8;stroke-dashoffset:0;stroke-opacity:1"
       id="path60800" />
    <path
       d="M 259.711,650.464 152.445,689.318"
       style="fill:none;stroke:#231f20;stroke-width:0.5;stroke-linecap:round;stroke-linejoin:round;stroke-miterlimit:4;stroke-dasharray:2.8, 1.8;stroke-dashoffset:0;stroke-opacity:1"
       id="path60802" />
    <path
       d="M 249.771,621.606 140.089,635.829"
       style="fill:none;stroke:#231f20;stroke-width:0.5;stroke-linecap:round;stroke-linejoin:round;stroke-miterlimit:4;stroke-dasharray:2.8, 1.8;stroke-dashoffset:0;stroke-opacity:1"
       id="path60804" />
    <path
       d="M 240.541,559.776 144.297,539.124"
       style="fill:none;stroke:#231f20;stroke-width:0.5;stroke-linecap:round;stroke-linejoin:round;stroke-miterlimit:4;stroke-dasharray:2.8, 1.8;stroke-dashoffset:0;stroke-opacity:1"
       id="path60806" />
    <path
       d="m 235.515,507.907 c 0,0 -42.29,-12.178 -66.199,-18.462"
       style="fill:none;stroke:#231f20;stroke-width:0.5;stroke-linecap:round;stroke-linejoin:round;stroke-miterlimit:4;stroke-dasharray:2.8, 1.8;stroke-dashoffset:0;stroke-opacity:1"
       id="path60808" />
    <path
       d="m 237.582,534.682 c -15.103,-3.465 -68.664,-15.691 -84.231,-20.103"
       style="fill:none;stroke:#231f20;stroke-width:0.5;stroke-linecap:round;stroke-linejoin:round;stroke-miterlimit:4;stroke-dasharray:2.8, 1.8;stroke-dashoffset:0;stroke-opacity:1"
       id="path60810" />
    <path
       d="m 246.941,478.158 c -4.966,-2.994 -31.76,-17.375 -76.75,-26.692"
       style="fill:none;stroke:#231f20;stroke-width:0.5;stroke-linecap:round;stroke-linejoin:round;stroke-miterlimit:4;stroke-dasharray:2.8, 1.8;stroke-dashoffset:0;stroke-opacity:1"
       id="path60812" />
    <path
       d="m 744.022,499.268 c 0,-4.526 7.064,-26.254 21.114,-36.843"
       style="fill:none;stroke:#231f20;stroke-width:0.5;stroke-linecap:round;stroke-linejoin:round;stroke-miterlimit:4;stroke-dasharray:2.8, 1.8;stroke-dashoffset:0;stroke-opacity:1"
       id="path60814" />
    <path
       d="m 755.86,444.177 c -3.482,-2.437 -20.542,-17.06 2.785,-27.853 4.961,-2.294 15.182,-2.017 20.541,-2.089 19.846,-0.269 34.913,11.367 35.33,22.617"
       style="fill:none;stroke:#231f20;stroke-width:0.5;stroke-linecap:round;stroke-linejoin:round;stroke-miterlimit:4;stroke-dasharray:2.8, 1.8;stroke-dashoffset:0;stroke-opacity:1"
       id="path60816" />
    <path
       d="m 753.48,419.194 c 9.343,1.656 34.09,11.421 45.913,23.425"
       style="fill:none;stroke:#231f20;stroke-width:0.5;stroke-linecap:round;stroke-linejoin:round;stroke-miterlimit:4;stroke-dasharray:2.8, 1.8;stroke-dashoffset:0;stroke-opacity:1"
       id="path60818" />
    <path
       d="m 741.901,495.287 c 0,-7.311 2.47,-37.88 4.906,-42.058 2.438,-4.178 8.008,-9.4 12.187,-10.097"
       style="fill:none;stroke:#231f20;stroke-width:0.5;stroke-linecap:round;stroke-linejoin:round;stroke-miterlimit:4;stroke-dasharray:2.8, 1.8;stroke-dashoffset:0;stroke-opacity:1"
       id="path60820" />
    <path
       d="m 765.721,444.858 c 2.438,1.045 5.763,4.187 5.958,9.064"
       style="fill:none;stroke:#231f20;stroke-width:0.5;stroke-linecap:round;stroke-linejoin:round;stroke-miterlimit:4;stroke-dasharray:2.8, 1.8;stroke-dashoffset:0;stroke-opacity:1"
       id="path60822" />
    <path
       d="m 778.142,444.177 c 0,-2.5 -1.87,-4.526 -4.178,-4.526 -2.308,0 -4.177,2.026 -4.177,4.526 0,2.499 1.869,4.526 4.177,4.526 2.308,0 4.178,-2.027 4.178,-4.526 z"
       style="fill:none;stroke:#231f20;stroke-width:0.5;stroke-linecap:round;stroke-linejoin:round;stroke-miterlimit:4;stroke-dasharray:2.8, 1.8;stroke-dashoffset:0;stroke-opacity:1"
       id="path60824" />
    <path
       d="m 768.393,439.998 c 0,-3.076 -2.337,-5.57 -5.222,-5.57 -2.884,0 -5.222,2.494 -5.222,5.57 0,3.078 2.338,5.572 5.222,5.572 2.885,0 5.222,-2.494 5.222,-5.572 z"
       style="fill:none;stroke:#231f20;stroke-width:0.5;stroke-linecap:round;stroke-linejoin:round;stroke-miterlimit:4;stroke-dasharray:2.8, 1.8;stroke-dashoffset:0;stroke-opacity:1"
       id="path60826" />
    <path
       d="m 797.478,457.001 c -0.007,-3.137 -2.568,-6.109 -6.08,-6.494 -3.757,-0.41 -6.64,2.285 -6.232,5.835 0.385,3.335 3.541,5.897 6.884,5.906 3.148,0.004 5.435,-2.279 5.428,-5.247 z"
       style="fill:none;stroke:#231f20;stroke-width:0.5;stroke-linecap:round;stroke-linejoin:round;stroke-miterlimit:4;stroke-dasharray:2.8, 1.8;stroke-dashoffset:0;stroke-opacity:1"
       id="path60828" />
    <path
       d="m 742.826,395.578 c 1.044,-4.179 -3.329,-9.892 -4.026,-15.462 -0.696,-5.572 0.704,-14.413 4.53,-19.219"
       style="fill:none;stroke:#231f20;stroke-width:0.5;stroke-linecap:round;stroke-linejoin:round;stroke-miterlimit:4;stroke-dasharray:2.8, 1.8;stroke-dashoffset:0;stroke-opacity:1"
       id="path60830" />
    <path
       d="m 660.344,387.706 c 0.817,4.595 8.824,18.521 19.616,21.307 10.793,2.785 20.712,3.133 25.586,2.785"
       style="fill:none;stroke:#231f20;stroke-width:0.5;stroke-linecap:round;stroke-linejoin:round;stroke-miterlimit:4;stroke-dasharray:2.8, 1.8;stroke-dashoffset:0;stroke-opacity:1"
       id="path60832" />
    <path
       d="m 678.296,377.088 c 1.664,1.635 7.932,5.813 9.325,9.294"
       style="fill:none;stroke:#231f20;stroke-width:0.5;stroke-linecap:round;stroke-linejoin:round;stroke-miterlimit:4;stroke-dasharray:2.8, 1.8;stroke-dashoffset:0;stroke-opacity:1"
       id="path60834" />
    <path
       d="m 690.057,396.827 c 3.83,3.482 12.186,10.445 16.364,16.015 4.178,5.571 12.882,14.971 19.845,14.971 6.963,0 14.971,-13.229 14.971,-17.407 0,-4.179 0.348,-7.312 1.392,-8.704 1.045,-1.393 1.742,-5.572 -2.436,-10.446 -4.179,-4.874 -15.319,-15.667 -28.898,-15.667 -13.578,0 -24.371,7.659 -24.023,13.231 0.349,5.57 2.785,8.007 2.785,8.007 z"
       style="fill:none;stroke:#231f20;stroke-width:0.5;stroke-linecap:round;stroke-linejoin:round;stroke-miterlimit:4;stroke-dasharray:2.8, 1.8;stroke-dashoffset:0;stroke-opacity:1"
       id="path60836" />
    <path
       d="m 690.057,396.827 c 3.83,1.741 12.186,1.045 16.364,1.045 4.178,0 15.319,0.696 20.541,4.177 5.223,3.482 12.879,2.642 14.97,1.147"
       style="fill:none;stroke:#231f20;stroke-width:0.5;stroke-linecap:round;stroke-linejoin:round;stroke-miterlimit:4;stroke-dasharray:2.8, 1.8;stroke-dashoffset:0;stroke-opacity:1"
       id="path60838" />
    <path
       d="m 741.482,405.519 c 4.629,1.404 15.77,0.012 20.993,-4.862"
       style="fill:none;stroke:#231f20;stroke-width:0.5;stroke-linecap:round;stroke-linejoin:round;stroke-miterlimit:4;stroke-dasharray:2.8, 1.8;stroke-dashoffset:0;stroke-opacity:1"
       id="path60840" />
    <path
       d="m 740.37,385.41 c 2.608,-2.162 10.964,-4.947 20.712,-4.25 0,0 10.097,-6.616 25.416,-12.186 15.319,-5.57 28.897,-4.178 47.002,10.793 14.166,11.715 27.852,27.505 36.905,41.779 9.052,14.275 16.014,24.372 16.363,25.764 0.348,1.393 -0.242,8.762 -2.384,10.3"
       style="fill:none;stroke:#231f20;stroke-width:0.5;stroke-linecap:round;stroke-linejoin:round;stroke-miterlimit:4;stroke-dasharray:2.8, 1.8;stroke-dashoffset:0;stroke-opacity:1"
       id="path60842" />
    <path
       d="m 880.876,458.552 c -1.767,-1.842 -6.642,-13.678 -15.346,-27.257 -8.704,-13.579 -22.63,-35.165 -40.735,-44.564 -18.104,-9.4 -29.245,-5.919 -36.209,-2.786 -6.962,3.134 -21.838,10.097 -25.668,11.489"
       style="fill:none;stroke:#231f20;stroke-width:0.5;stroke-linecap:round;stroke-linejoin:round;stroke-miterlimit:4;stroke-dasharray:2.8, 1.8;stroke-dashoffset:0;stroke-opacity:1"
       id="path60844" />
    <path
       d="m 757.522,416.863 c 3.212,-5.065 8.086,-17.947 3.56,-35.703"
       style="fill:none;stroke:#231f20;stroke-width:0.5;stroke-linecap:round;stroke-linejoin:round;stroke-miterlimit:4;stroke-dasharray:2.8, 1.8;stroke-dashoffset:0;stroke-opacity:1"
       id="path60846" />
    <path
       d="m 788.586,383.945 c 0,0 -2.844,-10.605 -2.814,-14.702"
       style="fill:none;stroke:#231f20;stroke-width:0.5;stroke-linecap:round;stroke-linejoin:round;stroke-miterlimit:4;stroke-dasharray:2.8, 1.8;stroke-dashoffset:0;stroke-opacity:1"
       id="path60848" />
    <path
       d="m 739.325,490.831 c -1.537,-3.245 -6.593,-16.795 -8.533,-29.247 -2.017,-12.944 -2.437,-23.326 16.924,-26.906"
       style="fill:none;stroke:#231f20;stroke-width:0.5;stroke-linecap:round;stroke-linejoin:round;stroke-miterlimit:4;stroke-dasharray:2.8, 1.8;stroke-dashoffset:0;stroke-opacity:1"
       id="path60850" />
    <path
       d="m 714.777,438.258 c 9.643,18.006 -2.785,21.934 -9.052,22.979 -6.267,1.044 -23.327,-6.615 -29.942,-10.793 -6.615,-4.178 -17.769,-16.856 -21.934,-26.112 -3.134,-6.963 -2.437,-14.971 5.919,-16.364 8.356,-1.392 18.452,-1.045 26.808,5.919 8.356,6.963 27.145,22.401 28.201,24.371 z"
       style="fill:none;stroke:#231f20;stroke-width:0.5;stroke-linecap:round;stroke-linejoin:round;stroke-miterlimit:4;stroke-dasharray:2.8, 1.8;stroke-dashoffset:0;stroke-opacity:1"
       id="path60852" />
    <path
       d="m 732.82,441.969 c -7.25,0.119 -15.138,-2.83 -18.68,-4.489"
       style="fill:none;stroke:#231f20;stroke-width:0.5;stroke-linecap:round;stroke-linejoin:round;stroke-miterlimit:4;stroke-dasharray:2.8, 1.8;stroke-dashoffset:0;stroke-opacity:1"
       id="path60854" />
    <path
       d="m 668.252,444.045 c 5.094,-1.609 18.343,-14.736 17.289,-30.977"
       style="fill:none;stroke:#231f20;stroke-width:0.5;stroke-linecap:round;stroke-linejoin:round;stroke-miterlimit:4;stroke-dasharray:2.8, 1.8;stroke-dashoffset:0;stroke-opacity:1"
       id="path60856" />
    <path
       d="m 653.849,424.332 c 0,3.481 -5.223,8.356 -11.489,7.311 -6.268,-1.044 -13.231,-10.097 -7.66,-16.363 5.571,-6.267 15.515,-1.978 17.68,-0.641"
       style="fill:none;stroke:#231f20;stroke-width:0.5;stroke-linecap:round;stroke-linejoin:round;stroke-miterlimit:4;stroke-dasharray:2.8, 1.8;stroke-dashoffset:0;stroke-opacity:1"
       id="path60858" />
    <path
       d="m 634.7,415.28 c -2.785,-2.089 -3.698,-6.999 1.392,-10.446 5.091,-3.446 22.435,-9.16 22.359,3.428"
       style="fill:none;stroke:#231f20;stroke-width:0.5;stroke-linecap:round;stroke-linejoin:round;stroke-miterlimit:4;stroke-dasharray:2.8, 1.8;stroke-dashoffset:0;stroke-opacity:1"
       id="path60860" />
    <path
       d="m 636.614,531.074 c 2.089,-7.31 6.442,-28.754 24.894,-46.511 18.452,-17.756 32.708,-22.478 43.511,-23.25 10.803,-0.773 11.15,2.013 11.847,5.843 0.696,3.829 0.696,13.038 -4.527,16.172"
       style="fill:none;stroke:#231f20;stroke-width:0.5;stroke-linecap:round;stroke-linejoin:round;stroke-miterlimit:4;stroke-dasharray:2.8, 1.8;stroke-dashoffset:0;stroke-opacity:1"
       id="path60862" />
    <path
       d="m 634.223,536.439 c 1.044,-9.052 -3.005,-25.067 -10.316,-34.815 -7.311,-9.75 -6.267,-13.231 -11.837,-18.105 -5.57,-4.874 -6.267,-6.267 -6.963,-8.355 -0.697,-2.09 -7.312,-25.416 -3.83,-58.84 0,0 -4.874,-5.571 -12.534,-9.052 -7.659,-3.482 -12.533,-6.267 -14.275,-7.659 -1.74,-1.393 -6.8,-3.178 -7.311,6.266 -0.283,5.221 1.096,4.175 0.748,16.709 -0.348,12.534 0.297,20.544 7.956,24.374 7.66,3.83 18.325,6.942 25.178,5.211"
       style="fill:none;stroke:#231f20;stroke-width:0.5;stroke-linecap:round;stroke-linejoin:round;stroke-miterlimit:4;stroke-dasharray:2.8, 1.8;stroke-dashoffset:0;stroke-opacity:1"
       id="path60864" />
    <path
       d="m 567.257,409.389 c 1.641,6.587 6.864,16.335 12.085,20.165 5.223,3.83 16.452,8.704 20.934,4.874"
       style="fill:none;stroke:#231f20;stroke-width:0.5;stroke-linecap:round;stroke-linejoin:round;stroke-miterlimit:4;stroke-dasharray:2.8, 1.8;stroke-dashoffset:0;stroke-opacity:1"
       id="path60866" />
    <path
       d="m 541.742,414.235 c 3.829,0 10.444,-1.74 13.229,-6.267 2.136,-3.47 3.482,-13.926 -3.182,-16.266 -7.382,-2.593 -11.092,-1.49 -11.789,1.992"
       style="fill:none;stroke:#231f20;stroke-width:0.5;stroke-linecap:round;stroke-linejoin:round;stroke-miterlimit:4;stroke-dasharray:2.8, 1.8;stroke-dashoffset:0;stroke-opacity:1"
       id="path60868" />
    <path
       d="m 541.535,469.201 c -0.011,2.435 2.643,6.31 7.17,5.614 4.526,-0.696 11.837,-6.963 13.23,-10.097 1.393,-3.134 3.133,-9.4 0,-15.667 -3.134,-6.266 -5.223,-13.23 -7.311,-16.712 -2.089,-3.481 -5.33,-6.963 -12.936,-4.874"
       style="fill:none;stroke:#231f20;stroke-width:0.5;stroke-linecap:round;stroke-linejoin:round;stroke-miterlimit:4;stroke-dasharray:2.8, 1.8;stroke-dashoffset:0;stroke-opacity:1"
       id="path60870" />
    <path
       d="m 541.41,487.001 c 1.724,4.177 7.642,8.007 11.821,11.141 4.178,3.133 16.711,15.483 12.533,21.75"
       style="fill:none;stroke:#231f20;stroke-width:0.5;stroke-linecap:round;stroke-linejoin:round;stroke-miterlimit:4;stroke-dasharray:2.8, 1.8;stroke-dashoffset:0;stroke-opacity:1"
       id="path60872" />
    <path
       d="m 545.542,530.879 c 2.814,-0.358 10.822,-2.448 16.393,-7.322 2.785,-2.436 6.614,-7.659 12.186,-6.267"
       style="fill:none;stroke:#231f20;stroke-width:0.5;stroke-linecap:round;stroke-linejoin:round;stroke-miterlimit:4;stroke-dasharray:2.8, 1.8;stroke-dashoffset:0;stroke-opacity:1"
       id="path60874" />
    <path
       d="m 623.907,501.624 c 1.045,-4.178 6.25,-5.306 9.4,-5.223 3.308,0.087 10.01,-0.087 11.181,11.68"
       style="fill:none;stroke:#231f20;stroke-width:0.5;stroke-linecap:round;stroke-linejoin:round;stroke-miterlimit:4;stroke-dasharray:2.8, 1.8;stroke-dashoffset:0;stroke-opacity:1"
       id="path60876" />
    <path
       d="m 579.015,503.418 c -8.289,-0.489 -31.877,-2.893 -24.305,-31.416"
       style="fill:none;stroke:#231f20;stroke-width:0.5;stroke-linecap:round;stroke-linejoin:round;stroke-miterlimit:4;stroke-dasharray:2.8, 1.8;stroke-dashoffset:0;stroke-opacity:1"
       id="path60878" />
    <path
       d="m 561.406,465.642 c 5.403,-2.316 23.159,-3.709 25.596,14.743"
       style="fill:none;stroke:#231f20;stroke-width:0.5;stroke-linecap:round;stroke-linejoin:round;stroke-miterlimit:4;stroke-dasharray:2.8, 1.8;stroke-dashoffset:0;stroke-opacity:1"
       id="path60880" />
    <path
       d="m 607.28,478.918 c -4.959,-4.103 -17.492,-11.415 -20.974,3.905 -3.481,15.319 -9.236,24.007 -10.28,26.095"
       style="fill:none;stroke:#231f20;stroke-width:0.5;stroke-linecap:round;stroke-linejoin:round;stroke-miterlimit:4;stroke-dasharray:2.8, 1.8;stroke-dashoffset:0;stroke-opacity:1"
       id="path60882" />
    <path
       d="m 574.841,518.507 c 0.324,5.399 5.134,24.2 28.46,20.717"
       style="fill:none;stroke:#231f20;stroke-width:0.5;stroke-linecap:round;stroke-linejoin:round;stroke-miterlimit:4;stroke-dasharray:2.8, 1.8;stroke-dashoffset:0;stroke-opacity:1"
       id="path60884" />
    <path
       d="m 625.811,535.483 c -2.437,-8.008 -5.386,-17.148 -8.171,-24.459 -2.785,-7.312 -6.137,-20.047 -2.372,-23.95"
       style="fill:none;stroke:#231f20;stroke-width:0.5;stroke-linecap:round;stroke-linejoin:round;stroke-miterlimit:4;stroke-dasharray:2.8, 1.8;stroke-dashoffset:0;stroke-opacity:1"
       id="path60886" />
    <path
       d="m 606.847,535.743 c -1.044,-5.571 -0.347,-19.497 0.697,-24.371 1.044,-4.874 3.47,-9.159 8.524,-4.927"
       style="fill:none;stroke:#231f20;stroke-width:0.5;stroke-linecap:round;stroke-linejoin:round;stroke-miterlimit:4;stroke-dasharray:2.8, 1.8;stroke-dashoffset:0;stroke-opacity:1"
       id="path60888" />
    <path
       d="m 561.225,557.287 c 1.044,-7.312 7.891,-23.498 19.967,-24.088"
       style="fill:none;stroke:#231f20;stroke-width:0.5;stroke-linecap:round;stroke-linejoin:round;stroke-miterlimit:4;stroke-dasharray:2.8, 1.8;stroke-dashoffset:0;stroke-opacity:1"
       id="path60890" />
    <path
       d="m 555.522,556.293 c 2.438,-0.347 27.644,4.079 29.386,32.627"
       style="fill:none;stroke:#231f20;stroke-width:0.5;stroke-linecap:round;stroke-linejoin:round;stroke-miterlimit:4;stroke-dasharray:2.8, 1.8;stroke-dashoffset:0;stroke-opacity:1"
       id="path60892" />
    <path
       d="m 561.935,602.589 c 1.044,2.785 -4.179,0 -6.267,-2.089 -2.089,-2.088 -10.097,-10.444 -11.837,-14.621 -1.742,-4.176 -2.786,-18.454 -0.349,-34.121 2.437,-15.667 10.194,-23.238 12.186,-21.933 1.991,1.303 -0.697,14.622 -1.044,17.756 -0.349,3.132 1.74,12.881 2.088,16.015 0.348,3.133 -1.044,11.141 -0.348,15.319 0.696,4.177 3.481,18.8 5.571,23.674 z"
       style="fill:none;stroke:#231f20;stroke-width:0.5;stroke-linecap:round;stroke-linejoin:round;stroke-miterlimit:4;stroke-dasharray:2.8, 1.8;stroke-dashoffset:0;stroke-opacity:1"
       id="path60894" />
    <path
       d="m 590.484,687.888 c 9.771,-0.801 24.522,-2.874 22.978,-13.578 -1.392,-9.661 -26.71,-5.839 -31.335,-5.223 -3.467,0.463 -17.059,2.438 -16.363,10.097 0.696,7.66 14.101,9.574 24.72,8.704 z"
       style="fill:none;stroke:#231f20;stroke-width:0.5;stroke-linecap:round;stroke-linejoin:round;stroke-miterlimit:4;stroke-dasharray:2.8, 1.8;stroke-dashoffset:0;stroke-opacity:1"
       id="path60896" />
    <path
       d="m 620.601,621.245 c -1.916,-3.686 -4.701,-8.212 -0.523,-10.648 4.177,-2.437 10.588,4.177 13.025,7.658"
       style="fill:none;stroke:#231f20;stroke-width:0.5;stroke-linecap:round;stroke-linejoin:round;stroke-miterlimit:4;stroke-dasharray:2.8, 1.8;stroke-dashoffset:0;stroke-opacity:1"
       id="path60898" />
    <path
       d="m 636.789,624.523 c -2.437,-1.393 -4.178,-7.312 -4.526,-10.097 -0.348,-2.785 1.393,-12.881 12.882,-3.481"
       style="fill:none;stroke:#231f20;stroke-width:0.5;stroke-linecap:round;stroke-linejoin:round;stroke-miterlimit:4;stroke-dasharray:2.8, 1.8;stroke-dashoffset:0;stroke-opacity:1"
       id="path60900" />
    <path
       d="m 632.413,542.364 c 1.961,-7.287 4.159,-13.106 7.509,-14.629 3.454,-1.569 8.891,-2.927 9.854,11.442"
       style="fill:none;stroke:#231f20;stroke-width:0.5;stroke-linecap:round;stroke-linejoin:round;stroke-miterlimit:4;stroke-dasharray:2.8, 1.8;stroke-dashoffset:0;stroke-opacity:1"
       id="path60902" />
    <path
       d="m 635.807,607.302 c 0.982,-5.757 -1.673,-17.356 -4.24,-27.343 -2.68,-10.419 -2.364,-21.772 -0.849,-30.307"
       style="fill:none;stroke:#231f20;stroke-width:0.5;stroke-linecap:round;stroke-linejoin:round;stroke-miterlimit:4;stroke-dasharray:2.8, 1.8;stroke-dashoffset:0;stroke-opacity:1"
       id="path60904" />
    <path
       d="m 447.588,542.364 c -1.961,-7.287 -4.159,-13.106 -7.509,-14.629 -3.454,-1.569 -8.891,-2.927 -9.854,11.442"
       style="fill:none;stroke:#231f20;stroke-width:0.5;stroke-linecap:round;stroke-linejoin:round;stroke-miterlimit:4;stroke-dasharray:2.8, 1.8;stroke-dashoffset:0;stroke-opacity:1"
       id="path60906" />
    <path
       d="m 444.194,607.302 c -0.982,-5.757 1.673,-17.356 4.24,-27.343 2.68,-10.419 2.364,-21.772 0.849,-30.307"
       style="fill:none;stroke:#231f20;stroke-width:0.5;stroke-linecap:round;stroke-linejoin:round;stroke-miterlimit:4;stroke-dasharray:2.8, 1.8;stroke-dashoffset:0;stroke-opacity:1"
       id="path60908" />
    <path
       d="m 694.122,493.681 c -2.324,2.72 0.635,11.685 7.773,13.513 5.439,1.392 14.971,0.348 18.452,-6.615 3.482,-6.963 0.835,-14.549 -4.108,-19.113"
       style="fill:none;stroke:#231f20;stroke-width:0.5;stroke-linecap:round;stroke-linejoin:round;stroke-miterlimit:4;stroke-dasharray:2.8, 1.8;stroke-dashoffset:0;stroke-opacity:1"
       id="path60910" />
    <path
       d="m 561.935,602.589 c 0.835,1.849 4.424,5.014 7.311,3.483"
       style="fill:none;stroke:#231f20;stroke-width:0.5;stroke-linecap:round;stroke-linejoin:round;stroke-miterlimit:4;stroke-dasharray:2.8, 1.8;stroke-dashoffset:0;stroke-opacity:1"
       id="path60912" />
    <path
       d="m 459.912,397.2 c -3.818,6.242 -29.93,9.723 -40.696,-10.264"
       style="fill:none;stroke:#231f20;stroke-width:0.5;stroke-linecap:round;stroke-linejoin:round;stroke-miterlimit:4;stroke-dasharray:2.8, 1.8;stroke-dashoffset:0;stroke-opacity:1"
       id="path60914" />
    <path
       d="M 540,808.352 477.653,776.257"
       style="fill:none;stroke:#231f20;stroke-width:0.5;stroke-linecap:round;stroke-linejoin:round;stroke-miterlimit:4;stroke-dasharray:2.8, 1.8;stroke-dashoffset:0;stroke-opacity:1"
       id="path60916" />
    <path
       d="m 240.607,558.042 c -1.417,-10.114 -3.854,-29.958 -4.55,-35.877 -0.696,-5.919 -1.392,-20.89 1.74,-27.505 3.134,-6.615 6.616,-18.104 6.616,-18.104"
       style="fill:none;stroke:#231f20;stroke-width:0.5;stroke-linecap:round;stroke-linejoin:round;stroke-miterlimit:4;stroke-dasharray:2.8, 1.8;stroke-dashoffset:0;stroke-opacity:1"
       id="path60918" />
    <path
       d="m 255.025,505.193 c -4.31,8.979 -17.924,13.142 -19.186,-2.163"
       style="fill:none;stroke:#231f20;stroke-width:0.5;stroke-linecap:round;stroke-linejoin:round;stroke-miterlimit:4;stroke-dasharray:2.8, 1.8;stroke-dashoffset:0;stroke-opacity:1"
       id="path60920" />
    <path
       d="m 282.014,467.852 c 0,-4.178 2.089,-20.193 -2.089,-26.46 -4.177,-6.268 -11.838,-6.964 -20.889,-1.741 -9.053,5.223 -19.497,17.408 -17.061,27.156 2.438,9.749 4.875,11.142 7.312,13.927 2.437,2.785 12.185,13.578 12.185,13.578"
       style="fill:none;stroke:#231f20;stroke-width:0.5;stroke-linecap:round;stroke-linejoin:round;stroke-miterlimit:4;stroke-dasharray:2.8, 1.8;stroke-dashoffset:0;stroke-opacity:1"
       id="path60922" />
    <path
       d="m 335.979,499.268 c 0,-4.526 -7.064,-26.254 -21.114,-36.843"
       style="fill:none;stroke:#231f20;stroke-width:0.5;stroke-linecap:round;stroke-linejoin:round;stroke-miterlimit:4;stroke-dasharray:2.8, 1.8;stroke-dashoffset:0;stroke-opacity:1"
       id="path60924" />
    <path
       d="m 324.141,444.177 c 3.482,-2.437 20.542,-17.06 -2.785,-27.853 -4.961,-2.294 -15.182,-2.017 -20.541,-2.089 -19.846,-0.269 -34.913,11.367 -35.33,22.617"
       style="fill:none;stroke:#231f20;stroke-width:0.5;stroke-linecap:round;stroke-linejoin:round;stroke-miterlimit:4;stroke-dasharray:2.8, 1.8;stroke-dashoffset:0;stroke-opacity:1"
       id="path60926" />
    <path
       d="m 326.521,419.194 c -9.343,1.656 -34.09,11.421 -45.913,23.425"
       style="fill:none;stroke:#231f20;stroke-width:0.5;stroke-linecap:round;stroke-linejoin:round;stroke-miterlimit:4;stroke-dasharray:2.8, 1.8;stroke-dashoffset:0;stroke-opacity:1"
       id="path60928" />
    <path
       d="m 338.1,495.287 c 0,-7.311 -2.47,-37.88 -4.906,-42.058 -2.438,-4.178 -8.008,-9.4 -12.186,-10.097"
       style="fill:none;stroke:#231f20;stroke-width:0.5;stroke-linecap:round;stroke-linejoin:round;stroke-miterlimit:4;stroke-dasharray:2.8, 1.8;stroke-dashoffset:0;stroke-opacity:1"
       id="path60930" />
    <path
       d="m 314.28,444.858 c -2.437,1.045 -5.762,4.187 -5.958,9.064"
       style="fill:none;stroke:#231f20;stroke-width:0.5;stroke-linecap:round;stroke-linejoin:round;stroke-miterlimit:4;stroke-dasharray:2.8, 1.8;stroke-dashoffset:0;stroke-opacity:1"
       id="path60932" />
    <path
       d="m 301.859,444.177 c 0,-2.5 1.87,-4.526 4.178,-4.526 2.308,0 4.178,2.026 4.178,4.526 0,2.499 -1.87,4.526 -4.178,4.526 -2.308,0 -4.178,-2.027 -4.178,-4.526 z"
       style="fill:none;stroke:#231f20;stroke-width:0.5;stroke-linecap:round;stroke-linejoin:round;stroke-miterlimit:4;stroke-dasharray:2.8, 1.8;stroke-dashoffset:0;stroke-opacity:1"
       id="path60934" />
    <path
       d="m 311.608,439.998 c 0,-3.076 2.338,-5.57 5.222,-5.57 2.884,0 5.222,2.494 5.222,5.57 0,3.078 -2.338,5.572 -5.222,5.572 -2.884,0 -5.222,-2.494 -5.222,-5.572 z"
       style="fill:none;stroke:#231f20;stroke-width:0.5;stroke-linecap:round;stroke-linejoin:round;stroke-miterlimit:4;stroke-dasharray:2.8, 1.8;stroke-dashoffset:0;stroke-opacity:1"
       id="path60936" />
    <path
       d="m 282.523,457.001 c 0.007,-3.137 2.568,-6.109 6.08,-6.494 3.757,-0.41 6.64,2.285 6.231,5.835 -0.384,3.335 -3.54,5.897 -6.883,5.906 -3.148,0.004 -5.435,-2.279 -5.428,-5.247 z"
       style="fill:none;stroke:#231f20;stroke-width:0.5;stroke-linecap:round;stroke-linejoin:round;stroke-miterlimit:4;stroke-dasharray:2.8, 1.8;stroke-dashoffset:0;stroke-opacity:1"
       id="path60938" />
    <path
       d="m 337.175,395.578 c -1.044,-4.179 3.329,-9.892 4.026,-15.462 0.697,-5.572 -0.704,-14.413 -4.53,-19.219"
       style="fill:none;stroke:#231f20;stroke-width:0.5;stroke-linecap:round;stroke-linejoin:round;stroke-miterlimit:4;stroke-dasharray:2.8, 1.8;stroke-dashoffset:0;stroke-opacity:1"
       id="path60940" />
    <path
       d="m 419.657,387.706 c -0.816,4.595 -8.823,18.521 -19.616,21.307 -10.793,2.785 -20.712,3.133 -25.586,2.785"
       style="fill:none;stroke:#231f20;stroke-width:0.5;stroke-linecap:round;stroke-linejoin:round;stroke-miterlimit:4;stroke-dasharray:2.8, 1.8;stroke-dashoffset:0;stroke-opacity:1"
       id="path60942" />
    <path
       d="m 401.705,377.088 c -1.664,1.635 -7.932,5.813 -9.325,9.294"
       style="fill:none;stroke:#231f20;stroke-width:0.5;stroke-linecap:round;stroke-linejoin:round;stroke-miterlimit:4;stroke-dasharray:2.8, 1.8;stroke-dashoffset:0;stroke-opacity:1"
       id="path60944" />
    <path
       d="m 389.944,396.827 c -3.83,3.482 -12.186,10.445 -16.364,16.015 -4.178,5.571 -12.882,14.971 -19.845,14.971 -6.963,0 -14.971,-13.229 -14.971,-17.407 0,-4.179 -0.348,-7.312 -1.392,-8.704 -1.045,-1.393 -1.742,-5.572 2.436,-10.446 4.179,-4.874 15.319,-15.667 28.898,-15.667 13.578,0 24.371,7.659 24.023,13.231 -0.349,5.57 -2.785,8.007 -2.785,8.007 z"
       style="fill:none;stroke:#231f20;stroke-width:0.5;stroke-linecap:round;stroke-linejoin:round;stroke-miterlimit:4;stroke-dasharray:2.8, 1.8;stroke-dashoffset:0;stroke-opacity:1"
       id="path60946" />
    <path
       d="m 389.944,396.827 c -3.83,1.741 -12.186,1.045 -16.364,1.045 -4.178,0 -15.319,0.696 -20.541,4.177 -5.223,3.482 -12.879,2.642 -14.97,1.147"
       style="fill:none;stroke:#231f20;stroke-width:0.5;stroke-linecap:round;stroke-linejoin:round;stroke-miterlimit:4;stroke-dasharray:2.8, 1.8;stroke-dashoffset:0;stroke-opacity:1"
       id="path60948" />
    <path
       d="m 338.519,405.519 c -4.629,1.404 -15.77,0.012 -20.993,-4.862"
       style="fill:none;stroke:#231f20;stroke-width:0.5;stroke-linecap:round;stroke-linejoin:round;stroke-miterlimit:4;stroke-dasharray:2.8, 1.8;stroke-dashoffset:0;stroke-opacity:1"
       id="path60950" />
    <path
       d="m 339.631,385.41 c -2.608,-2.162 -10.963,-4.947 -20.713,-4.25 0,0 -10.095,-6.616 -25.415,-12.186 -15.319,-5.57 -28.897,-4.178 -47.002,10.793 -14.167,11.715 -27.852,27.505 -36.905,41.779 -9.052,14.275 -16.014,24.372 -16.363,25.764 -0.348,1.393 0.242,8.762 2.385,10.3"
       style="fill:none;stroke:#231f20;stroke-width:0.5;stroke-linecap:round;stroke-linejoin:round;stroke-miterlimit:4;stroke-dasharray:2.8, 1.8;stroke-dashoffset:0;stroke-opacity:1"
       id="path60952" />
    <path
       d="m 199.125,458.552 c 1.768,-1.842 6.642,-13.678 15.346,-27.257 8.704,-13.579 22.63,-35.165 40.735,-44.564 18.104,-9.4 29.245,-5.919 36.209,-2.786 6.962,3.134 21.838,10.097 25.668,11.489"
       style="fill:none;stroke:#231f20;stroke-width:0.5;stroke-linecap:round;stroke-linejoin:round;stroke-miterlimit:4;stroke-dasharray:2.8, 1.8;stroke-dashoffset:0;stroke-opacity:1"
       id="path60954" />
    <path
       d="m 322.479,416.863 c -3.212,-5.065 -8.086,-17.947 -3.561,-35.703"
       style="fill:none;stroke:#231f20;stroke-width:0.5;stroke-linecap:round;stroke-linejoin:round;stroke-miterlimit:4;stroke-dasharray:2.8, 1.8;stroke-dashoffset:0;stroke-opacity:1"
       id="path60956" />
    <path
       d="m 291.415,383.945 c 0,0 2.844,-10.605 2.814,-14.702"
       style="fill:none;stroke:#231f20;stroke-width:0.5;stroke-linecap:round;stroke-linejoin:round;stroke-miterlimit:4;stroke-dasharray:2.8, 1.8;stroke-dashoffset:0;stroke-opacity:1"
       id="path60958" />
    <path
       d="m 340.676,490.831 c 1.537,-3.245 6.593,-16.795 8.532,-29.247 2.018,-12.944 2.438,-23.326 -16.923,-26.906"
       style="fill:none;stroke:#231f20;stroke-width:0.5;stroke-linecap:round;stroke-linejoin:round;stroke-miterlimit:4;stroke-dasharray:2.8, 1.8;stroke-dashoffset:0;stroke-opacity:1"
       id="path60960" />
    <path
       d="m 365.224,438.258 c -9.643,18.006 2.785,21.934 9.052,22.979 6.267,1.044 23.327,-6.615 29.942,-10.793 6.616,-4.178 17.769,-16.856 21.934,-26.112 3.134,-6.963 2.437,-14.971 -5.918,-16.364 -8.357,-1.392 -18.453,-1.045 -26.809,5.919 -8.356,6.963 -27.145,22.401 -28.201,24.371 z"
       style="fill:none;stroke:#231f20;stroke-width:0.5;stroke-linecap:round;stroke-linejoin:round;stroke-miterlimit:4;stroke-dasharray:2.8, 1.8;stroke-dashoffset:0;stroke-opacity:1"
       id="path60962" />
    <path
       d="m 347.181,441.969 c 7.25,0.119 15.138,-2.83 18.68,-4.489"
       style="fill:none;stroke:#231f20;stroke-width:0.5;stroke-linecap:round;stroke-linejoin:round;stroke-miterlimit:4;stroke-dasharray:2.8, 1.8;stroke-dashoffset:0;stroke-opacity:1"
       id="path60964" />
    <path
       d="m 411.749,444.045 c -5.094,-1.609 -18.343,-14.736 -17.289,-30.977"
       style="fill:none;stroke:#231f20;stroke-width:0.5;stroke-linecap:round;stroke-linejoin:round;stroke-miterlimit:4;stroke-dasharray:2.8, 1.8;stroke-dashoffset:0;stroke-opacity:1"
       id="path60966" />
    <path
       d="m 426.152,424.332 c 0,3.481 5.223,8.356 11.489,7.311 6.268,-1.044 13.231,-10.097 7.66,-16.363 -5.571,-6.267 -15.515,-1.978 -17.68,-0.641"
       style="fill:none;stroke:#231f20;stroke-width:0.5;stroke-linecap:round;stroke-linejoin:round;stroke-miterlimit:4;stroke-dasharray:2.8, 1.8;stroke-dashoffset:0;stroke-opacity:1"
       id="path60968" />
    <path
       d="m 445.301,415.28 c 2.785,-2.089 3.698,-6.999 -1.392,-10.446 -5.091,-3.446 -22.435,-9.16 -22.359,3.428"
       style="fill:none;stroke:#231f20;stroke-width:0.5;stroke-linecap:round;stroke-linejoin:round;stroke-miterlimit:4;stroke-dasharray:2.8, 1.8;stroke-dashoffset:0;stroke-opacity:1"
       id="path60970" />
    <path
       d="m 443.387,531.074 c -2.089,-7.31 -6.442,-28.754 -24.894,-46.511 -18.452,-17.756 -32.708,-22.478 -43.511,-23.25 -10.802,-0.773 -11.15,2.013 -11.847,5.843 -0.696,3.829 -0.696,13.038 4.527,16.172"
       style="fill:none;stroke:#231f20;stroke-width:0.5;stroke-linecap:round;stroke-linejoin:round;stroke-miterlimit:4;stroke-dasharray:2.8, 1.8;stroke-dashoffset:0;stroke-opacity:1"
       id="path60972" />
    <path
       d="m 445.779,536.439 c -1.045,-9.052 3.004,-25.067 10.315,-34.815 7.312,-9.75 6.267,-13.231 11.837,-18.105 5.571,-4.874 6.268,-6.267 6.964,-8.355 0.696,-2.09 7.311,-25.416 3.829,-58.84 0,0 4.874,-5.571 12.534,-9.052 7.66,-3.482 12.534,-6.267 14.275,-7.659 1.741,-1.393 6.8,-3.178 7.311,6.266 0.282,5.221 -1.096,4.175 -0.748,16.709 0.348,12.534 -0.297,20.544 -7.956,24.374 -7.659,3.83 -18.325,6.942 -25.178,5.211"
       style="fill:none;stroke:#231f20;stroke-width:0.5;stroke-linecap:round;stroke-linejoin:round;stroke-miterlimit:4;stroke-dasharray:2.8, 1.8;stroke-dashoffset:0;stroke-opacity:1"
       id="path60974" />
    <path
       d="m 512.744,409.389 c -1.641,6.587 -6.864,16.335 -12.085,20.165 -5.223,3.83 -16.451,8.704 -20.934,4.874"
       style="fill:none;stroke:#231f20;stroke-width:0.5;stroke-linecap:round;stroke-linejoin:round;stroke-miterlimit:4;stroke-dasharray:2.8, 1.8;stroke-dashoffset:0;stroke-opacity:1"
       id="path60976" />
    <path
       d="m 538.259,414.235 c -3.829,0 -10.444,-1.74 -13.229,-6.267 -2.136,-3.47 -3.482,-13.926 3.182,-16.266 7.383,-2.593 11.092,-1.49 11.788,1.992"
       style="fill:none;stroke:#231f20;stroke-width:0.5;stroke-linecap:round;stroke-linejoin:round;stroke-miterlimit:4;stroke-dasharray:2.8, 1.8;stroke-dashoffset:0;stroke-opacity:1"
       id="path60978" />
    <path
       d="m 538.465,469.245 c 0.012,2.435 -2.642,6.266 -7.169,5.57 -4.526,-0.696 -11.836,-6.963 -13.229,-10.097 -1.394,-3.134 -3.134,-9.4 0,-15.667 3.133,-6.266 5.222,-13.23 7.31,-16.712 2.089,-3.481 5.33,-6.963 12.936,-4.874"
       style="fill:none;stroke:#231f20;stroke-width:0.5;stroke-linecap:round;stroke-linejoin:round;stroke-miterlimit:4;stroke-dasharray:2.8, 1.8;stroke-dashoffset:0;stroke-opacity:1"
       id="path60980" />
    <path
       d="m 538.593,487.001 c -1.726,4.177 -7.644,8.007 -11.823,11.141 -4.178,3.133 -16.711,15.483 -12.533,21.75"
       style="fill:none;stroke:#231f20;stroke-width:0.5;stroke-linecap:round;stroke-linejoin:round;stroke-miterlimit:4;stroke-dasharray:2.8, 1.8;stroke-dashoffset:0;stroke-opacity:1"
       id="path60982" />
    <path
       d="m 534.46,530.879 c -2.815,-0.358 -10.823,-2.448 -16.393,-7.322 -2.786,-2.436 -6.615,-7.659 -12.187,-6.267"
       style="fill:none;stroke:#231f20;stroke-width:0.5;stroke-linecap:round;stroke-linejoin:round;stroke-miterlimit:4;stroke-dasharray:2.8, 1.8;stroke-dashoffset:0;stroke-opacity:1"
       id="path60984" />
    <path
       d="m 456.094,501.624 c -1.045,-4.178 -6.249,-5.306 -9.4,-5.223 -3.308,0.087 -10.01,-0.087 -11.181,11.68"
       style="fill:none;stroke:#231f20;stroke-width:0.5;stroke-linecap:round;stroke-linejoin:round;stroke-miterlimit:4;stroke-dasharray:2.8, 1.8;stroke-dashoffset:0;stroke-opacity:1"
       id="path60986" />
    <path
       d="m 500.986,503.418 c 8.29,-0.489 31.877,-2.893 24.305,-31.416"
       style="fill:none;stroke:#231f20;stroke-width:0.5;stroke-linecap:round;stroke-linejoin:round;stroke-miterlimit:4;stroke-dasharray:2.8, 1.8;stroke-dashoffset:0;stroke-opacity:1"
       id="path60988" />
    <path
       d="m 518.595,465.642 c -5.403,-2.316 -23.159,-3.709 -25.596,14.743"
       style="fill:none;stroke:#231f20;stroke-width:0.5;stroke-linecap:round;stroke-linejoin:round;stroke-miterlimit:4;stroke-dasharray:2.8, 1.8;stroke-dashoffset:0;stroke-opacity:1"
       id="path60990" />
    <path
       d="m 472.721,478.918 c 4.959,-4.103 17.492,-11.415 20.974,3.905 3.482,15.319 9.236,24.007 10.28,26.095"
       style="fill:none;stroke:#231f20;stroke-width:0.5;stroke-linecap:round;stroke-linejoin:round;stroke-miterlimit:4;stroke-dasharray:2.8, 1.8;stroke-dashoffset:0;stroke-opacity:1"
       id="path60992" />
    <path
       d="m 505.16,518.507 c -0.324,5.399 -5.134,24.2 -28.46,20.717"
       style="fill:none;stroke:#231f20;stroke-width:0.5;stroke-linecap:round;stroke-linejoin:round;stroke-miterlimit:4;stroke-dasharray:2.8, 1.8;stroke-dashoffset:0;stroke-opacity:1"
       id="path60994" />
    <path
       d="m 454.19,535.483 c 2.437,-8.008 5.386,-17.148 8.171,-24.459 2.785,-7.312 6.137,-20.047 2.372,-23.95"
       style="fill:none;stroke:#231f20;stroke-width:0.5;stroke-linecap:round;stroke-linejoin:round;stroke-miterlimit:4;stroke-dasharray:2.8, 1.8;stroke-dashoffset:0;stroke-opacity:1"
       id="path60996" />
    <path
       d="m 473.154,535.743 c 1.045,-5.571 0.348,-19.497 -0.696,-24.371 -1.045,-4.874 -3.471,-9.159 -8.525,-4.927"
       style="fill:none;stroke:#231f20;stroke-width:0.5;stroke-linecap:round;stroke-linejoin:round;stroke-miterlimit:4;stroke-dasharray:2.8, 1.8;stroke-dashoffset:0;stroke-opacity:1"
       id="path60998" />
    <path
       d="m 518.777,557.287 c -1.045,-7.312 -7.892,-23.498 -19.968,-24.088"
       style="fill:none;stroke:#231f20;stroke-width:0.5;stroke-linecap:round;stroke-linejoin:round;stroke-miterlimit:4;stroke-dasharray:2.8, 1.8;stroke-dashoffset:0;stroke-opacity:1"
       id="path61000" />
    <path
       d="m 524.479,556.293 c -2.437,-0.347 -27.645,4.079 -29.386,32.627"
       style="fill:none;stroke:#231f20;stroke-width:0.5;stroke-linecap:round;stroke-linejoin:round;stroke-miterlimit:4;stroke-dasharray:2.8, 1.8;stroke-dashoffset:0;stroke-opacity:1"
       id="path61002" />
    <path
       d="m 518.067,602.589 c -1.045,2.785 4.178,0 6.267,-2.089 2.088,-2.088 10.096,-10.444 11.836,-14.621 1.742,-4.176 2.787,-18.454 0.349,-34.121 -2.437,-15.667 -10.194,-23.238 -12.185,-21.933 -1.992,1.303 0.696,14.622 1.043,17.756 0.349,3.132 -1.74,12.881 -2.088,16.015 -0.348,3.133 1.045,11.141 0.348,15.319 -0.696,4.177 -3.481,18.8 -5.57,23.674 z"
       style="fill:none;stroke:#231f20;stroke-width:0.5;stroke-linecap:round;stroke-linejoin:round;stroke-miterlimit:4;stroke-dasharray:2.8, 1.8;stroke-dashoffset:0;stroke-opacity:1"
       id="path61004" />
    <path
       d="m 489.517,687.888 c -9.771,-0.801 -24.521,-2.874 -22.978,-13.578 1.392,-9.661 26.711,-5.839 31.335,-5.223 3.467,0.463 17.059,2.438 16.363,10.097 -0.696,7.66 -14.101,9.574 -24.72,8.704 z"
       style="fill:none;stroke:#231f20;stroke-width:0.5;stroke-linecap:round;stroke-linejoin:round;stroke-miterlimit:4;stroke-dasharray:2.8, 1.8;stroke-dashoffset:0;stroke-opacity:1"
       id="path61006" />
    <path
       d="m 532.332,629.282 c -3.489,5.802 1.402,11.953 7.668,11.953 6.267,0 11.158,-6.151 7.668,-11.953"
       style="fill:none;stroke:#231f20;stroke-width:0.5;stroke-linecap:round;stroke-linejoin:round;stroke-miterlimit:4;stroke-dasharray:2.8, 1.8;stroke-dashoffset:0;stroke-opacity:1"
       id="path61008" />
    <path
       d="m 459.4,621.245 c 1.916,-3.686 4.702,-8.212 0.523,-10.648 -4.177,-2.437 -10.589,4.177 -13.025,7.658"
       style="fill:none;stroke:#231f20;stroke-width:0.5;stroke-linecap:round;stroke-linejoin:round;stroke-miterlimit:4;stroke-dasharray:2.8, 1.8;stroke-dashoffset:0;stroke-opacity:1"
       id="path61010" />
    <path
       d="m 443.212,624.523 c 2.437,-1.393 4.178,-7.312 4.526,-10.097 0.348,-2.785 -1.393,-12.881 -12.882,-3.481"
       style="fill:none;stroke:#231f20;stroke-width:0.5;stroke-linecap:round;stroke-linejoin:round;stroke-miterlimit:4;stroke-dasharray:2.8, 1.8;stroke-dashoffset:0;stroke-opacity:1"
       id="path61012" />
    <path
       d="m 385.88,493.681 c 2.323,2.72 -0.636,11.685 -7.774,13.513 -5.438,1.392 -14.971,0.348 -18.452,-6.615 -3.482,-6.963 -0.835,-14.549 4.108,-19.113"
       style="fill:none;stroke:#231f20;stroke-width:0.5;stroke-linecap:round;stroke-linejoin:round;stroke-miterlimit:4;stroke-dasharray:2.8, 1.8;stroke-dashoffset:0;stroke-opacity:1"
       id="path61014" />
    <path
       d="m 518.067,602.589 c -0.836,1.849 -4.425,5.014 -7.312,3.483"
       style="fill:none;stroke:#231f20;stroke-width:0.5;stroke-linecap:round;stroke-linejoin:round;stroke-miterlimit:4;stroke-dasharray:2.8, 1.8;stroke-dashoffset:0;stroke-opacity:1"
       id="path61016" />
    <path
       d="m 541.393,507.164 c 0,-3.133 0.349,-88.403 0.349,-92.929 0,-4.526 1.044,-20.541 -1.742,-20.541 -2.785,0 -1.741,16.015 -1.741,20.541 0,4.526 0.349,89.796 0.349,92.929"
       style="fill:none;stroke:#231f20;stroke-width:0.5;stroke-linecap:round;stroke-linejoin:round;stroke-miterlimit:4;stroke-dasharray:2.8, 1.8;stroke-dashoffset:0;stroke-opacity:1"
       id="path61018" />
    <path
       d="m 545.223,723.082 c 1.044,2.428 6.263,4.02 8.701,0.09"
       style="fill:none;stroke:#231f20;stroke-width:0.5;stroke-linecap:round;stroke-linejoin:round;stroke-miterlimit:4;stroke-dasharray:2.8, 1.8;stroke-dashoffset:0;stroke-opacity:1"
       id="path61020" />
    <path
       d="m 534.778,723.082 c -1.044,2.428 -6.263,4.02 -8.701,0.09"
       style="fill:none;stroke:#231f20;stroke-width:0.5;stroke-linecap:round;stroke-linejoin:round;stroke-miterlimit:4;stroke-dasharray:2.8, 1.8;stroke-dashoffset:0;stroke-opacity:1"
       id="path61022" />
    <path
       d="m 674.739,514.157 c 0,0 1.044,-10.445 13.229,-17.06 12.186,-6.615 24.371,-14.274 29.246,-16.015 4.874,-1.741 11.311,-5.086 16.364,1.741 5.052,6.827 7.659,9.4 16.363,29.593 8.704,20.194 9.749,25.416 7.311,43.52 -2.437,18.104 -7.515,52.501 -43.376,84.184"
       style="fill:none;stroke:#231f20;stroke-width:0.5;stroke-linecap:round;stroke-linejoin:round;stroke-miterlimit:4;stroke-dasharray:2.8, 1.8;stroke-dashoffset:0;stroke-opacity:1"
       id="path61024" />
    <path
       d="m 405.262,514.157 c 0,0 -1.044,-10.445 -13.229,-17.06 -12.186,-6.615 -24.371,-14.274 -29.246,-16.015 -4.874,-1.741 -11.311,-5.086 -16.364,1.741 -5.051,6.827 -7.659,9.4 -16.363,29.593 -8.704,20.194 -9.748,25.416 -7.311,43.52 2.437,18.104 7.515,52.501 43.376,84.184"
       style="fill:none;stroke:#231f20;stroke-width:0.5;stroke-linecap:round;stroke-linejoin:round;stroke-miterlimit:4;stroke-dasharray:2.8, 1.8;stroke-dashoffset:0;stroke-opacity:1"
       id="path61026" />
    <path
       d="m 516.477,696.767 c 5.773,-11.222 18.301,-11.316 23.523,-11.316 5.223,0 17.752,0.094 23.523,11.316"
       style="fill:none;stroke:#231f20;stroke-width:0.5;stroke-linecap:round;stroke-linejoin:round;stroke-miterlimit:4;stroke-dasharray:2.8, 1.8;stroke-dashoffset:0;stroke-opacity:1"
       id="path61028" />
  </g>
</svg>
