<?xml version="1.0" encoding="UTF-8" standalone="no"?>
<!-- Created with Inkscape (http://www.inkscape.org/) -->

<svg
   version="1.1"
   id="svg95365"
   width="1440"
   height="1344"
   viewBox="0 0 1440 1344"
   xmlns="http://www.w3.org/2000/svg"
   xmlns:svg="http://www.w3.org/2000/svg">
  <defs
     id="defs95369" />
  <g
     id="g95373">
    <path
       d="m 540,336.827 c -5.339,0 -9.979,0.117 -15.087,3.83 -5.106,3.715 -17.176,2.785 -23.21,1.392 -6.035,-1.392 -11.141,-2.32 -14.856,-1.855 -3.714,0.466 -15.318,4.64 -26.46,8.356 -11.14,3.713 -18.568,6.963 -23.675,10.211 -5.106,3.25 -19.961,10.213 -19.961,10.213 -20.425,-4.178 -29.709,6.498 -29.709,6.498 0.929,-3.713 -3.25,-12.068 -22.282,-21.816 -19.032,-9.749 -61.276,-20.425 -85.88,-22.748 -14.53,-1.37 -35.589,-3.131 -56.402,3.481 -8.33,2.648 -17.42,5.791 -25.3,11.376 -5.766,4.085 -10.482,10.018 -15.783,15.319 -30.638,30.638 -47.813,86.806 -49.206,108.161 -1.393,21.351 3.249,26.46 5.105,29.711 1.857,3.25 4.179,4.177 1.393,7.424 -2.785,3.251 -12.068,12.999 -21.353,42.708 -9.285,29.71 -7.892,87.274 -0.929,115.59 6.964,28.317 39.459,84.951 64.527,111.411 25.068,26.46 40.502,49.555 117.097,89.245 76.596,39.691 153.539,36.906 193.229,22.979 39.69,-13.927 48.742,-42.476 48.742,-57.795 0,15.319 9.052,43.868 48.743,57.795 39.69,13.927 116.633,16.712 193.228,-22.979 76.596,-39.69 92.031,-62.785 117.098,-89.245 25.067,-26.46 57.563,-83.094 64.526,-111.411 6.964,-28.316 8.357,-85.88 -0.929,-115.59 -9.284,-29.709 -18.568,-39.457 -21.353,-42.708 -2.785,-3.247 -0.464,-4.174 1.393,-7.424 1.856,-3.251 6.498,-8.36 5.105,-29.711 -1.393,-21.355 -18.567,-77.523 -49.206,-108.161 -5.3,-5.301 -10.017,-11.234 -15.782,-15.319 -7.88,-5.585 -16.971,-8.728 -25.301,-11.376 -20.812,-6.612 -41.871,-4.851 -56.401,-3.481 -24.605,2.323 -66.849,12.999 -85.88,22.748 -19.033,9.748 -23.212,18.103 -22.283,21.816 0,0 -9.284,-10.676 -29.709,-6.498 0,0 -14.854,-6.963 -19.96,-10.213 -5.108,-3.248 -12.535,-6.498 -23.675,-10.211 -11.142,-3.716 -22.746,-7.89 -26.461,-8.356 -3.714,-0.465 -8.821,0.463 -14.855,1.855 -6.035,1.393 -18.104,2.323 -23.21,-1.392 -5.108,-3.713 -9.749,-3.83 -15.088,-3.83 z m 0,341.081 c 0,-4.651 -8.347,-14.516 -15.485,-21.477 l 1.79,-1.966 c 2.785,3.715 9.518,4.41 13.695,4.41 4.178,0 10.911,-0.695 13.696,-4.41 l 1.798,1.957 C 548.355,663.384 540,673.256 540,677.908"
       style="fill:#ffffff;fill-opacity:1;fill-rule:nonzero;stroke:none;stroke-width:0.1"
       id="path96033" />
    <path
       d="m 540,336.827 c -5.339,0 -9.979,0.117 -15.087,3.83 -5.106,3.715 -17.176,2.785 -23.21,1.392 -6.035,-1.392 -11.141,-2.32 -14.856,-1.855 -3.714,0.466 -15.318,4.64 -26.46,8.356 -11.14,3.713 -18.568,6.963 -23.675,10.211 -5.106,3.25 -19.961,10.213 -19.961,10.213 -20.425,-4.178 -29.709,6.498 -29.709,6.498 0.929,-3.713 -3.25,-12.068 -22.282,-21.816 -19.032,-9.749 -61.276,-20.425 -85.88,-22.748 -14.53,-1.37 -35.589,-3.131 -56.402,3.481 -8.33,2.648 -17.42,5.791 -25.3,11.376 -5.766,4.085 -10.482,10.018 -15.783,15.319 -30.638,30.638 -47.813,86.806 -49.206,108.161 -1.393,21.351 3.249,26.46 5.105,29.711 1.857,3.25 4.179,4.177 1.393,7.424 -2.785,3.251 -12.068,12.999 -21.353,42.708 -9.285,29.71 -7.892,87.274 -0.929,115.59 6.964,28.317 39.459,84.951 64.527,111.411 25.068,26.46 40.502,49.555 117.097,89.245 76.596,39.691 153.539,36.906 193.229,22.979 39.69,-13.927 48.742,-42.476 48.742,-57.795 0,15.319 9.052,43.868 48.743,57.795 39.69,13.927 116.633,16.712 193.228,-22.979 76.596,-39.69 92.031,-62.785 117.098,-89.245 25.067,-26.46 57.563,-83.094 64.526,-111.411 6.964,-28.316 8.357,-85.88 -0.929,-115.59 -9.284,-29.709 -18.568,-39.457 -21.353,-42.708 -2.785,-3.247 -0.464,-4.174 1.393,-7.424 1.856,-3.251 6.498,-8.36 5.105,-29.711 -1.393,-21.355 -18.567,-77.523 -49.206,-108.161 -5.3,-5.301 -10.017,-11.234 -15.782,-15.319 -7.88,-5.585 -16.971,-8.728 -25.301,-11.376 -20.812,-6.612 -41.871,-4.851 -56.401,-3.481 -24.605,2.323 -66.849,12.999 -85.88,22.748 -19.033,9.748 -23.212,18.103 -22.283,21.816 0,0 -9.284,-10.676 -29.709,-6.498 0,0 -14.854,-6.963 -19.96,-10.213 -5.108,-3.248 -12.535,-6.498 -23.675,-10.211 -11.142,-3.716 -22.746,-7.89 -26.461,-8.356 -3.714,-0.465 -8.821,0.463 -14.855,1.855 -6.035,1.393 -18.104,2.323 -23.21,-1.392 -5.108,-3.713 -9.749,-3.83 -15.088,-3.83 z m 0,341.081 c 0,-4.651 -8.347,-14.516 -15.485,-21.477 l 1.79,-1.966 c 2.785,3.715 9.518,4.41 13.695,4.41 4.178,0 10.911,-0.695 13.696,-4.41 l 1.798,1.957 C 548.355,663.384 540,673.256 540,677.908 Z"
       style="fill:none;stroke:#231f20;stroke-width:0.75;stroke-linecap:round;stroke-linejoin:round;stroke-miterlimit:4;stroke-dasharray:none;stroke-opacity:1"
       id="path96035" />
    <path
       d="m 663.839,362.384 c 0.583,-1.966 -1.135,-4.214 -3.839,-5.015 -2.704,-0.803 -5.37,0.14 -5.953,2.107 -0.584,1.967 1.136,4.211 3.839,5.013 2.704,0.803 5.369,-0.141 5.953,-2.105"
       style="fill:#ffffff;fill-opacity:1;fill-rule:nonzero;stroke:none;stroke-width:0.1"
       id="path96037" />
    <path
       d="m 663.839,362.384 c 0.583,-1.966 -1.135,-4.214 -3.839,-5.015 -2.704,-0.803 -5.37,0.14 -5.953,2.107 -0.584,1.967 1.136,4.211 3.839,5.013 2.704,0.803 5.369,-0.141 5.953,-2.105 z"
       style="fill:none;stroke:#231f20;stroke-width:0.5;stroke-linecap:butt;stroke-linejoin:miter;stroke-miterlimit:4;stroke-dasharray:none;stroke-opacity:1"
       id="path96039" />
    <path
       d="m 416.162,362.384 c -0.584,-1.966 1.135,-4.214 3.838,-5.015 2.705,-0.803 5.37,0.14 5.954,2.107 0.583,1.967 -1.136,4.211 -3.84,5.013 -2.703,0.803 -5.369,-0.141 -5.952,-2.105"
       style="fill:#ffffff;fill-opacity:1;fill-rule:nonzero;stroke:none;stroke-width:0.1"
       id="path96041" />
    <path
       d="m 416.162,362.384 c -0.584,-1.966 1.135,-4.214 3.838,-5.015 2.705,-0.803 5.37,0.14 5.954,2.107 0.583,1.967 -1.136,4.211 -3.84,5.013 -2.703,0.803 -5.369,-0.141 -5.952,-2.105 z"
       style="fill:none;stroke:#231f20;stroke-width:0.5;stroke-linecap:butt;stroke-linejoin:miter;stroke-miterlimit:4;stroke-dasharray:none;stroke-opacity:1"
       id="path96043" />
    <path
       d="M 540,728.74 V 830.518"
       style="fill:none;stroke:#231f20;stroke-width:0.75;stroke-linecap:round;stroke-linejoin:round;stroke-miterlimit:4;stroke-dasharray:none;stroke-opacity:1"
       id="path96045" />
    <path
       d="m 579.532,739.114 c 7.47,3.32 14.085,9.935 22.441,22.121 8.356,12.185 13.578,19.497 25.415,20.541 11.838,1.045 25.068,2.437 63.018,-10.097 0,0 -30.639,7.659 -55.01,0.696 -24.371,-6.962 -33.328,-21.593 -49.913,-29.771"
       style="fill:none;stroke:#231f20;stroke-width:0.5;stroke-linecap:butt;stroke-linejoin:miter;stroke-miterlimit:4;stroke-dasharray:none;stroke-opacity:1"
       id="path96047" />
    <path
       d="m 761.894,660.733 c -3.134,7.31 -9.168,12.069 -18.568,19.38 -9.401,7.311 -24.371,18.104 -29.245,21.238 -4.874,3.134 -5.572,6.267 -5.919,12.186 -0.349,5.919 -1.045,15.319 -7.312,22.282 -6.266,6.963 -21.934,22.631 -45.608,27.852 0,0 20.889,1.045 44.564,-8.007 23.675,-9.052 46.654,-26.46 52.571,-35.512 5.919,-9.053 10.793,-15.667 7.661,-26.46 -3.134,-10.793 0.493,-27.54 1.856,-32.959"
       style="fill:#706d6e;fill-opacity:1;fill-rule:nonzero;stroke:none;stroke-width:0.1"
       id="path96049" />
    <path
       d="m 761.894,660.733 c -3.134,7.31 -9.168,12.069 -18.568,19.38 -9.401,7.311 -24.371,18.104 -29.245,21.238 -4.874,3.134 -5.572,6.267 -5.919,12.186 -0.349,5.919 -1.045,15.319 -7.312,22.282 -6.266,6.963 -21.934,22.631 -45.608,27.852 0,0 20.889,1.045 44.564,-8.007 23.675,-9.052 46.654,-26.46 52.571,-35.512 5.919,-9.053 10.793,-15.667 7.661,-26.46 -3.134,-10.793 0.493,-27.54 1.856,-32.959 z"
       style="fill:none;stroke:#231f20;stroke-width:0.75;stroke-linecap:round;stroke-linejoin:round;stroke-miterlimit:4;stroke-dasharray:none;stroke-opacity:1"
       id="path96051" />
    <path
       d="m 564.801,718.063 c -5.303,-4.179 -11.919,-8.704 -14.356,-8.704 -2.437,0 -9.401,2.436 -10.445,3.829"
       style="fill:none;stroke:#231f20;stroke-width:0.5;stroke-linecap:butt;stroke-linejoin:miter;stroke-miterlimit:4;stroke-dasharray:none;stroke-opacity:1"
       id="path96053" />
    <path
       d="m 540,677.908 v 19.049"
       style="fill:none;stroke:#231f20;stroke-width:0.75;stroke-linecap:round;stroke-linejoin:round;stroke-miterlimit:4;stroke-dasharray:none;stroke-opacity:1"
       id="path96055" />
    <path
       d="m 567.523,647.875 c 1.723,-1.534 5.204,-5.015 4.508,-6.175 -0.697,-1.16 -6.499,-0.696 -7.428,-1.857 -0.928,-1.162 1.626,-3.481 0.465,-5.107 0,0 17.872,-3.946 22.978,-3.946 5.107,0 13.696,1.625 16.945,4.41 3.249,2.785 5.553,8.486 5.445,14.804"
       style="fill:none;stroke:#231f20;stroke-width:0.5;stroke-linecap:butt;stroke-linejoin:miter;stroke-miterlimit:4;stroke-dasharray:none;stroke-opacity:1"
       id="path96057" />
    <path
       d="m 592.224,545.607 c -1.825,-1.397 -1.392,-4.409 -1.392,-8.123 0,-3.714 0.928,-16.016 1.625,-21.818 0.696,-5.804 2.087,-8.82 5.801,-9.748 3.715,-0.93 9.981,-1.858 11.838,6.266 1.858,8.123 -0.465,20.89 -1.392,25.067 -0.928,4.178 -3.017,7.196 -6.731,8.588 -3.715,1.393 -5.804,2.786 -9.749,-0.232 z"
       style="fill:none;stroke:#231f20;stroke-width:0.5;stroke-linecap:butt;stroke-linejoin:miter;stroke-miterlimit:4;stroke-dasharray:none;stroke-opacity:1"
       id="path96059" />
    <path
       d="m 718.339,644.01 c 0.758,-0.461 1.579,-0.922 2.472,-1.382 7.195,-3.714 16.481,-6.266 26.229,-13.23 9.749,-6.963 12.299,-15.088 12.765,-22.051 0.465,-6.963 -0.466,-19.265 -3.481,-29.245 -3.017,-9.98 -12.997,-26.925 -19.729,-35.513 -6.732,-8.587 -18.801,-20.192 -26.229,-25.299 -7.427,-5.106 -19.728,-12.996 -23.906,-15.549 -4.178,-2.555 -11.141,-8.59 -12.534,-15.784 -1.392,-7.195 -1.857,-19.498 0.464,-25.996 2.321,-6.501 6.498,-10.91 15.783,-9.982 9.285,0.93 28.086,5.57 42.245,19.497 14.157,13.926 26.923,35.047 31.101,42.476 4.178,7.427 9.283,20.192 11.605,40.385 2.322,20.194 3.715,45.495 6.732,51.994 3.017,6.498 5.803,11.141 8.355,13.694 2.553,2.553 4.893,5.785 6.749,7.641 1.857,1.858 1.48,3.558 0.679,4.892 -0.696,1.16 -3.945,2.785 -6.035,1.625 -1.183,-0.658 -3.946,-2.089 -3.714,3.249 0.233,5.338 1.954,9.334 3.018,12.07 1.624,4.178 -4.673,6.613 -6.994,2.9 -2.322,-3.714 -2.523,-5.453 -4.612,-5.221 -2.09,0.233 -2.32,2.321 -2.32,5.803 0,3.481 0.464,15.087 -4.411,15.319 -4.874,0.232 -10.445,-3.481 -10.677,-5.57 -0.231,-2.089 -0.696,-6.732 -3.945,-9.749 -3.249,-3.018 -7.197,-7.659 -13.463,-9.052 -6.267,-1.392 -16.944,-2.089 -23.675,0.696"
       style="fill:none;stroke:#231f20;stroke-width:0.5;stroke-linecap:butt;stroke-linejoin:miter;stroke-miterlimit:4;stroke-dasharray:none;stroke-opacity:1"
       id="path96061" />
    <path
       d="m 720.58,652.45 c -0.929,-1.466 -2.383,-5.436 -2.236,-8.442"
       style="fill:none;stroke:#231f20;stroke-width:0.5;stroke-linecap:butt;stroke-linejoin:miter;stroke-miterlimit:4;stroke-dasharray:none;stroke-opacity:1"
       id="path96063" />
    <path
       d="m 718.575,646.79 c 0.338,1.482 2.469,1.873 4.557,1.176 2.089,-0.696 7.893,-2.089 11.374,-2.321 3.482,-0.231 7.891,-0.464 9.284,-0.464 1.392,0 2.203,-1.117 1.682,-2.996"
       style="fill:none;stroke:#231f20;stroke-width:0.5;stroke-linecap:butt;stroke-linejoin:miter;stroke-miterlimit:4;stroke-dasharray:none;stroke-opacity:1"
       id="path96065" />
    <path
       d="m 731.737,645.979 c 2.769,-0.334 4.401,-4.38 1.845,-5.258"
       style="fill:none;stroke:#231f20;stroke-width:0.5;stroke-linecap:butt;stroke-linejoin:miter;stroke-miterlimit:4;stroke-dasharray:none;stroke-opacity:1"
       id="path96067" />
    <path
       d="m 751.142,644.957 c -1.55,3.473 -0.851,6.027 0.076,7.651 0.927,1.625 4.2,7.366 10.108,4.611"
       style="fill:none;stroke:#231f20;stroke-width:0.5;stroke-linecap:butt;stroke-linejoin:miter;stroke-miterlimit:4;stroke-dasharray:none;stroke-opacity:1"
       id="path96069" />
    <path
       d="m 757.485,448.586 c 3.713,1.162 10.394,-12.338 3.945,-14.388 -5.106,-1.627 -7.658,13.229 -3.945,14.388 z"
       style="fill:none;stroke:#231f20;stroke-width:0.5;stroke-linecap:butt;stroke-linejoin:miter;stroke-miterlimit:4;stroke-dasharray:none;stroke-opacity:1"
       id="path96071" />
    <path
       d="m 614.739,433.267 c -0.078,3.411 -1.161,6.267 2.32,6.733 3.206,0.426 8.819,-2.324 9.749,-9.75 0.929,-7.427 0.927,-16.246 -4.179,-17.176 -5.105,-0.928 -7.194,6.501 -7.426,9.749 -0.125,1.746 -0.371,6.478 -0.464,10.444 z"
       style="fill:none;stroke:#231f20;stroke-width:0.5;stroke-linecap:butt;stroke-linejoin:miter;stroke-miterlimit:4;stroke-dasharray:none;stroke-opacity:1"
       id="path96073" />
    <path
       d="M 540,457.407 V 355.048"
       style="fill:none;stroke:#231f20;stroke-width:0.75;stroke-linecap:round;stroke-linejoin:round;stroke-miterlimit:4;stroke-dasharray:none;stroke-opacity:1"
       id="path96075" />
    <path
       d="m 548.124,345.765 c 1.856,-1.627 6.32,-4.401 7.686,-4.638"
       style="fill:none;stroke:#231f20;stroke-width:0.5;stroke-linecap:butt;stroke-linejoin:miter;stroke-miterlimit:4;stroke-dasharray:none;stroke-opacity:1"
       id="path96077" />
    <path
       d="m 647.752,363.431 c 1.338,7.632 10.854,23.879 20.139,34.789 9.284,10.909 18.569,19.031 22.747,20.89 4.178,1.857 13.993,4.629 12.833,-2.334 -1.16,-6.963 -7.727,-36.66 -10.513,-41.304"
       style="fill:none;stroke:#231f20;stroke-width:0.5;stroke-linecap:butt;stroke-linejoin:miter;stroke-miterlimit:4;stroke-dasharray:none;stroke-opacity:1"
       id="path96079" />
    <path
       d="m 691.116,419.311 c 1.645,0.628 1.146,-1.129 -0.71,-3.218 -1.857,-2.089 -7.429,-9.517 -9.982,-16.015 -2.552,-6.501 -6.962,-15.55 -9.283,-20.194 -2.321,-4.642 -6.036,-9.054 -7.892,-10.91"
       style="fill:none;stroke:#231f20;stroke-width:0.5;stroke-linecap:butt;stroke-linejoin:miter;stroke-miterlimit:4;stroke-dasharray:none;stroke-opacity:1"
       id="path96081" />
    <path
       d="m 319.15,697.173 c -7.312,9.748 -10.328,6.963 -16.943,1.741 -6.615,-5.222 -29.246,-24.023 -45.261,-52.225 -16.015,-28.201 -25.415,-49.091 -28.897,-83.906 -3.482,-34.817 3.829,-59.188 4.526,-63.366 0.696,-4.177 -1.741,-15.319 -0.697,-22.282 1.045,-6.963 2.089,-27.505 0,-40.038 -2.088,-12.534 -0.347,-27.853 -0.347,-27.853 -4.874,7.311 -2.438,20.889 -1.741,27.157 0.696,6.267 1.392,29.941 0,37.253 -1.393,7.311 -0.116,15.088 0.348,20.658 0.464,5.57 -2.322,14.854 -5.107,25.067 -2.785,10.214 -3.713,32.032 -2.785,44.1 0.927,12.07 -3.249,31.103 32.031,96.558 35.279,65.454 78.452,100.733 119.766,116.516 41.315,15.784 76.132,17.177 91.915,16.248 15.783,-0.929 17.64,-6.035 19.033,-11.605 1.392,-5.571 5.571,-29.71 13.927,-40.387 8.355,-10.677 33.422,-12.069 41.082,-12.069 7.66,0 32.727,1.392 41.084,12.069 8.355,10.677 12.533,34.816 13.925,40.387 1.393,5.57 3.251,10.676 19.033,11.605 15.784,0.929 50.601,-0.464 91.916,-16.248 41.313,-15.783 84.486,-51.062 119.766,-116.516 35.279,-65.455 31.104,-84.488 32.03,-96.558 0.928,-12.068 0,-33.886 -2.785,-44.1 -2.785,-10.213 -5.57,-19.497 -5.106,-25.067 0.464,-5.57 1.741,-13.347 0.347,-20.658 -1.392,-7.312 -0.696,-30.986 0,-37.253 0.697,-6.268 3.134,-19.846 -1.74,-27.157 0,0 1.74,15.319 -0.348,27.853 -2.089,12.533 -1.044,33.075 0,40.038 1.044,6.963 -1.393,18.105 -0.697,22.282 0.697,4.178 8.008,28.549 4.527,63.366 -3.482,34.815 -12.882,55.705 -28.898,83.906 -16.015,28.202 -38.645,47.003 -45.26,52.225 -6.616,5.222 -9.632,8.007 -16.943,-1.741"
       style="fill:none;stroke:#231f20;stroke-width:0.5;stroke-linecap:butt;stroke-linejoin:miter;stroke-miterlimit:4;stroke-dasharray:none;stroke-opacity:1"
       id="path96083" />
    <path
       d="m 500.469,739.114 c -7.47,3.32 -14.086,9.935 -22.441,22.121 -8.356,12.185 -13.578,19.497 -25.416,20.541 -11.837,1.045 -25.068,2.437 -63.017,-10.097 0,0 30.638,7.659 55.009,0.696 24.372,-6.962 33.329,-21.593 49.914,-29.771"
       style="fill:none;stroke:#231f20;stroke-width:0.5;stroke-linecap:butt;stroke-linejoin:miter;stroke-miterlimit:4;stroke-dasharray:none;stroke-opacity:1"
       id="path96085" />
    <path
       d="m 318.107,660.733 c 3.133,7.31 9.168,12.069 18.568,19.38 9.4,7.311 24.371,18.104 29.245,21.238 4.874,3.134 5.571,6.267 5.919,12.186 0.348,5.919 1.044,15.319 7.311,22.282 6.268,6.963 21.934,22.631 45.609,27.852 0,0 -20.889,1.045 -44.564,-8.007 -23.675,-9.052 -46.653,-26.46 -52.572,-35.512 -5.919,-9.053 -10.793,-15.667 -7.66,-26.46 3.133,-10.793 -0.494,-27.54 -1.856,-32.959"
       style="fill:#706d6e;fill-opacity:1;fill-rule:nonzero;stroke:none;stroke-width:0.1"
       id="path96087" />
    <path
       d="m 318.107,660.733 c 3.133,7.31 9.168,12.069 18.568,19.38 9.4,7.311 24.371,18.104 29.245,21.238 4.874,3.134 5.571,6.267 5.919,12.186 0.348,5.919 1.044,15.319 7.311,22.282 6.268,6.963 21.934,22.631 45.609,27.852 0,0 -20.889,1.045 -44.564,-8.007 -23.675,-9.052 -46.653,-26.46 -52.572,-35.512 -5.919,-9.053 -10.793,-15.667 -7.66,-26.46 3.133,-10.793 -0.494,-27.54 -1.856,-32.959 z"
       style="fill:none;stroke:#231f20;stroke-width:0.75;stroke-linecap:round;stroke-linejoin:round;stroke-miterlimit:4;stroke-dasharray:none;stroke-opacity:1"
       id="path96089" />
    <path
       d="m 424.759,763.671 c 7.312,1.045 13.927,0.697 19.149,-0.696 5.222,-1.393 21.238,-14.274 26.808,-19.497 5.571,-5.222 25.068,-18.452 30.639,-21.237 5.57,-2.785 34.119,-9.053 38.645,-9.053 4.527,0 33.076,6.268 38.646,9.053 5.57,2.785 25.067,16.015 30.638,21.237 5.571,5.223 21.586,18.104 26.808,19.497 5.223,1.393 11.838,1.741 19.15,0.696"
       style="fill:none;stroke:#231f20;stroke-width:0.5;stroke-linecap:butt;stroke-linejoin:miter;stroke-miterlimit:4;stroke-dasharray:none;stroke-opacity:1"
       id="path96091" />
    <path
       d="m 515.2,718.063 c 5.303,-4.179 11.919,-8.704 14.355,-8.704 2.438,0 9.401,2.436 10.445,3.829"
       style="fill:none;stroke:#231f20;stroke-width:0.5;stroke-linecap:butt;stroke-linejoin:miter;stroke-miterlimit:4;stroke-dasharray:none;stroke-opacity:1"
       id="path96093" />
    <path
       d="m 502.894,721.592 c 9.202,-5.766 16.816,-11.271 22.832,-14.322 7.011,-3.556 11.839,-4.179 14.274,-4.179 2.436,0 7.264,0.623 14.275,4.179 6.017,3.051 13.63,8.556 22.832,14.322"
       style="fill:none;stroke:#231f20;stroke-width:0.5;stroke-linecap:butt;stroke-linejoin:miter;stroke-miterlimit:4;stroke-dasharray:none;stroke-opacity:1"
       id="path96095" />
    <path
       d="m 325.134,670.787 c 4.577,-6.341 14.674,-15.742 27.556,-17.83 12.882,-2.09 23.675,2.785 25.416,4.526 1.741,1.74 8.355,11.489 18.452,12.882 10.097,1.392 21.935,2.785 32.379,-1.045 10.445,-3.829 24.371,-13.578 27.156,-14.622 2.786,-1.045 14.74,-5.572 19.846,-6.268 5.106,-0.696 18.337,-1.624 22.282,-2.089 3.945,-0.464 13.927,-0.696 21.355,5.571 7.426,6.267 20.424,20.193 20.424,25.996 0,-5.803 13,-19.729 20.424,-25.996 7.429,-6.267 17.41,-6.035 21.356,-5.571 3.945,0.465 17.175,1.393 22.282,2.089 5.106,0.696 17.06,5.223 19.845,6.268 2.785,1.044 16.712,10.793 27.156,14.622 10.445,3.83 22.282,2.437 32.379,1.045 10.097,-1.393 16.712,-11.142 18.453,-12.882 1.74,-1.741 12.533,-6.616 25.415,-4.526 12.882,2.088 22.979,11.489 27.557,17.83"
       style="fill:none;stroke:#231f20;stroke-width:0.75;stroke-linecap:round;stroke-linejoin:round;stroke-miterlimit:4;stroke-dasharray:none;stroke-opacity:1"
       id="path96097" />
    <path
       d="m 553.696,654.465 c -2.785,3.715 -9.518,4.41 -13.696,4.41 -4.177,0 -10.91,-0.695 -13.695,-4.41 -2.785,-3.714 -4.873,-7.659 -3.016,-13.925 0,0 4.874,-4.875 16.711,-4.875 11.837,0 16.712,4.875 16.712,4.875 1.857,6.266 -0.231,10.211 -3.016,13.925"
       style="fill:#706d6e;fill-opacity:1;fill-rule:nonzero;stroke:none;stroke-width:0.1"
       id="path96099" />
    <path
       d="m 553.696,654.465 c -2.785,3.715 -9.518,4.41 -13.696,4.41 -4.177,0 -10.91,-0.695 -13.695,-4.41 -2.785,-3.714 -4.873,-7.659 -3.016,-13.925 0,0 4.874,-4.875 16.711,-4.875 11.837,0 16.712,4.875 16.712,4.875 1.857,6.266 -0.231,10.211 -3.016,13.925 z"
       style="fill:none;stroke:#231f20;stroke-width:0.75;stroke-linecap:round;stroke-linejoin:round;stroke-miterlimit:4;stroke-dasharray:none;stroke-opacity:1"
       id="path96101" />
    <path
       d="m 512.478,647.875 c -1.724,-1.534 -5.205,-5.015 -4.509,-6.175 0.697,-1.16 6.5,-0.696 7.429,-1.857 0.928,-1.162 -1.627,-3.481 -0.465,-5.107 0,0 -17.872,-3.946 -22.978,-3.946 -5.108,0 -13.696,1.625 -16.945,4.41 -3.249,2.785 -5.552,8.486 -5.445,14.804"
       style="fill:none;stroke:#231f20;stroke-width:0.5;stroke-linecap:butt;stroke-linejoin:miter;stroke-miterlimit:4;stroke-dasharray:none;stroke-opacity:1"
       id="path96103" />
    <path
       d="m 487.776,545.607 c 1.825,-1.397 1.392,-4.409 1.392,-8.123 0,-3.714 -0.928,-16.016 -1.625,-21.818 -0.696,-5.804 -2.086,-8.82 -5.801,-9.748 -3.714,-0.93 -9.98,-1.858 -11.837,6.266 -1.859,8.123 0.465,20.89 1.392,25.067 0.928,4.178 3.017,7.196 6.731,8.588 3.714,1.393 5.803,2.786 9.748,-0.232 z"
       style="fill:none;stroke:#231f20;stroke-width:0.5;stroke-linecap:butt;stroke-linejoin:miter;stroke-miterlimit:4;stroke-dasharray:none;stroke-opacity:1"
       id="path96105" />
    <path
       d="m 361.733,644.055 c -0.778,-0.476 -1.622,-0.951 -2.543,-1.427 -7.196,-3.714 -16.48,-6.266 -26.23,-13.23 -9.748,-6.963 -12.299,-15.088 -12.764,-22.051 -0.465,-6.963 0.465,-19.265 3.481,-29.245 3.017,-9.98 12.996,-26.925 19.729,-35.513 6.731,-8.587 18.802,-20.192 26.228,-25.299 7.427,-5.106 19.729,-12.996 23.907,-15.549 4.177,-2.555 11.141,-8.59 12.534,-15.784 1.392,-7.195 1.857,-19.498 -0.464,-25.996 -2.322,-6.501 -6.498,-10.91 -15.783,-9.982 -9.285,0.93 -28.087,5.57 -42.244,19.497 -14.158,13.926 -26.924,35.047 -31.102,42.476 -4.179,7.427 -9.284,20.192 -11.606,40.385 -2.321,20.194 -3.714,45.495 -6.731,51.994 -3.017,6.498 -5.804,11.141 -8.356,13.694 -2.553,2.553 -4.892,5.785 -6.748,7.641 -1.857,1.858 -1.48,3.558 -0.679,4.892 0.696,1.16 3.945,2.785 6.034,1.625 1.184,-0.658 3.947,-2.089 3.715,3.249 -0.234,5.338 -1.955,9.334 -3.019,12.07 -1.624,4.178 4.673,6.613 6.995,2.9 2.322,-3.714 2.523,-5.453 4.612,-5.221 2.089,0.233 2.32,2.321 2.32,5.803 0,3.481 -0.464,15.087 4.41,15.319 4.874,0.232 10.447,-3.481 10.678,-5.57 0.231,-2.089 0.696,-6.732 3.945,-9.749 3.249,-3.018 7.196,-7.659 13.463,-9.052 6.267,-1.392 16.945,-2.089 23.675,0.696"
       style="fill:none;stroke:#231f20;stroke-width:0.5;stroke-linecap:butt;stroke-linejoin:miter;stroke-miterlimit:4;stroke-dasharray:none;stroke-opacity:1"
       id="path96107" />
    <path
       d="m 359.42,652.45 c 0.93,-1.466 2.383,-5.436 2.237,-8.442"
       style="fill:none;stroke:#231f20;stroke-width:0.5;stroke-linecap:butt;stroke-linejoin:miter;stroke-miterlimit:4;stroke-dasharray:none;stroke-opacity:1"
       id="path96109" />
    <path
       d="m 361.425,646.79 c -0.337,1.482 -2.467,1.873 -4.557,1.176 -2.089,-0.696 -7.892,-2.089 -11.373,-2.321 -3.482,-0.231 -7.891,-0.464 -9.284,-0.464 -1.392,0 -2.203,-1.117 -1.682,-2.996"
       style="fill:none;stroke:#231f20;stroke-width:0.5;stroke-linecap:butt;stroke-linejoin:miter;stroke-miterlimit:4;stroke-dasharray:none;stroke-opacity:1"
       id="path96111" />
    <path
       d="m 348.263,645.979 c -2.768,-0.334 -4.4,-4.38 -1.844,-5.258"
       style="fill:none;stroke:#231f20;stroke-width:0.5;stroke-linecap:butt;stroke-linejoin:miter;stroke-miterlimit:4;stroke-dasharray:none;stroke-opacity:1"
       id="path96113" />
    <path
       d="m 328.859,644.957 c 1.549,3.473 0.851,6.027 -0.076,7.651 -0.928,1.625 -4.199,7.366 -10.108,4.611"
       style="fill:none;stroke:#231f20;stroke-width:0.5;stroke-linecap:butt;stroke-linejoin:miter;stroke-miterlimit:4;stroke-dasharray:none;stroke-opacity:1"
       id="path96115" />
    <path
       d="m 322.516,448.586 c -3.713,1.162 -10.394,-12.338 -3.945,-14.388 5.106,-1.627 7.658,13.229 3.945,14.388 z"
       style="fill:none;stroke:#231f20;stroke-width:0.5;stroke-linecap:butt;stroke-linejoin:miter;stroke-miterlimit:4;stroke-dasharray:none;stroke-opacity:1"
       id="path96117" />
    <path
       d="m 465.261,433.267 c 0.079,3.411 1.162,6.267 -2.32,6.733 -3.205,0.426 -8.819,-2.324 -9.748,-9.75 -0.929,-7.427 -0.928,-16.246 4.178,-17.176 5.105,-0.928 7.194,6.501 7.426,9.749 0.126,1.746 0.372,6.478 0.464,10.444 z"
       style="fill:none;stroke:#231f20;stroke-width:0.5;stroke-linecap:butt;stroke-linejoin:miter;stroke-miterlimit:4;stroke-dasharray:none;stroke-opacity:1"
       id="path96119" />
    <path
       d="m 540,355.048 c 0,-4.627 -8.124,-9.283 -8.124,-9.283 2.321,0.927 5.804,0.231 8.124,0.231 2.321,0 5.803,0.696 8.124,-0.231 0,0 -8.124,4.656 -8.124,9.283"
       style="fill:#706d6e;fill-opacity:1;fill-rule:nonzero;stroke:none;stroke-width:0.1"
       id="path96121" />
    <path
       d="m 540,355.048 c 0,-4.627 -8.124,-9.283 -8.124,-9.283 2.321,0.927 5.804,0.231 8.124,0.231 2.321,0 5.803,0.696 8.124,-0.231 0,0 -8.124,4.656 -8.124,9.283 z"
       style="fill:none;stroke:#231f20;stroke-width:0.75;stroke-linecap:round;stroke-linejoin:round;stroke-miterlimit:4;stroke-dasharray:none;stroke-opacity:1"
       id="path96123" />
    <path
       d="m 531.876,345.765 c -1.855,-1.627 -6.319,-4.401 -7.686,-4.638"
       style="fill:none;stroke:#231f20;stroke-width:0.5;stroke-linecap:butt;stroke-linejoin:miter;stroke-miterlimit:4;stroke-dasharray:none;stroke-opacity:1"
       id="path96125" />
    <path
       d="m 432.249,363.431 c -1.338,7.632 -10.854,23.879 -20.139,34.789 -9.284,10.909 -18.569,19.031 -22.747,20.89 -4.178,1.857 -13.993,4.629 -12.833,-2.334 1.16,-6.963 7.727,-36.66 10.512,-41.304"
       style="fill:none;stroke:#231f20;stroke-width:0.5;stroke-linecap:butt;stroke-linejoin:miter;stroke-miterlimit:4;stroke-dasharray:none;stroke-opacity:1"
       id="path96127" />
    <path
       d="m 388.885,419.311 c -1.645,0.628 -1.146,-1.129 0.71,-3.218 1.857,-2.089 7.429,-9.517 9.982,-16.015 2.552,-6.501 6.961,-15.55 9.283,-20.194 2.321,-4.642 6.035,-9.054 7.891,-10.91"
       style="fill:none;stroke:#231f20;stroke-width:0.5;stroke-linecap:butt;stroke-linejoin:miter;stroke-miterlimit:4;stroke-dasharray:none;stroke-opacity:1"
       id="path96129" />
    <path
       d="m 593.849,398.451 c -2.553,3.251 -13.229,14.857 -16.48,16.712 -3.25,1.858 -16.945,3.251 -23.673,2.088 -6.733,-1.158 -9.749,-6.729 -11.706,-12.968 -0.219,-2.546 -0.665,-5.758 -1.123,-8.607 0.061,-1.865 2.963,-8.715 3.776,-14.399 0.53,-3.721 1.856,-9.748 7.426,-15.553 5.57,-5.802 14.159,-11.372 23.211,-12.068 6.77,-0.523 13.67,-1.173 20.892,-0.207 4.874,1.161 10.675,7.866 12.532,14.364 1.856,6.501 -12.302,27.391 -14.855,30.638 z"
       style="fill:none;stroke:#231f20;stroke-width:0.25;stroke-linecap:butt;stroke-linejoin:miter;stroke-miterlimit:4;stroke-dasharray:none;stroke-opacity:1"
       id="path96131" />
    <path
       d="m 486.151,398.451 c 2.553,3.251 13.23,14.857 16.48,16.712 3.251,1.858 16.945,3.251 23.674,2.088 6.732,-1.158 9.748,-6.729 11.705,-12.968 0.22,-2.546 0.665,-5.758 1.124,-8.607 -0.061,-1.865 -2.964,-8.715 -3.777,-14.399 -0.53,-3.721 -1.855,-9.748 -7.425,-15.553 -5.571,-5.802 -14.159,-11.372 -23.212,-12.068 -6.769,-0.523 -13.669,-1.173 -20.891,-0.207 -4.875,1.161 -10.675,7.866 -12.532,14.364 -1.856,6.501 12.301,27.391 14.854,30.638 z"
       style="fill:none;stroke:#231f20;stroke-width:0.25;stroke-linecap:butt;stroke-linejoin:miter;stroke-miterlimit:4;stroke-dasharray:none;stroke-opacity:1"
       id="path96133" />
    <path
       d="m 469.439,684.408 c 0,0 6.5,-0.929 9.053,-2.323 2.552,-1.392 14.177,-7.445 16.48,-9.979 4.285,-4.718 -4.874,-6.035 -8.821,-3.946 -3.946,2.089 -35.047,14.622 -41.547,17.175 -6.499,2.554 -21.818,9.053 -31.566,13.927 -9.749,4.874 -18.336,16.247 -18.569,24.139 -0.232,7.892 16.945,17.408 21.354,19.265 4.409,1.856 17.177,5.803 25.996,3.25 8.82,-2.554 22.978,-12.302 29.014,-18.336 6.034,-6.035 14.35,-12.21 21.585,-16.712 5.592,-3.481 13.23,-6.732 18.8,-8.589 5.572,-1.857 11.839,-3.713 13.232,-7.427 1.392,-3.713 -4.178,-10.213 -7.197,-13.229 -3.016,-3.018 -10.212,-8.821 -13.694,-10.678 -3.481,-1.858 -7.277,-0.585 -7.891,0.232 -0.696,0.929 4.178,4.41 7.66,5.803 3.481,1.393 10.213,3.945 13.228,8.588 3.02,4.641 4.411,10.445 -0.696,11.373 -5.106,0.929 -13.694,2.785 -25.531,9.98 -11.837,7.196 -21.817,15.784 -24.139,18.105 -2.321,2.321 -9.749,7.427 -12.069,8.588 -3.017,3.481 -15.319,6.731 -23.907,6.035 -8.588,-0.696 -16.945,-4.411 -20.658,-9.517 -3.713,-5.106 -7.66,-11.373 -3.249,-16.248 4.41,-4.874 12.301,-12.302 25.068,-17.872 12.766,-5.57 22.977,-10.213 26.923,-10.444 3.947,-0.233 11.141,-1.16 11.141,-1.16"
       style="fill:#b2b1b1;fill-opacity:1;fill-rule:nonzero;stroke:none;stroke-width:0.1"
       id="path96135" />
    <path
       d="m 449.145,670.547 c -1.323,-0.465 1.959,-2.62 4.744,-4.476 2.785,-1.858 8.356,-3.249 11.605,-3.482 3.249,-0.233 6.5,-0.928 8.589,-2.321 2.088,-1.393 3.712,-3.714 6.73,-4.178 1.395,-0.215 7.196,1.624 11.838,2.785 4.641,1.162 8.588,-0.464 11.604,-0.928 3.017,-0.463 4.644,1.393 5.803,3.25 1.16,1.855 11.142,10.677 14.158,12.765 3.018,2.089 4.178,4.411 4.643,6.035 0.466,1.625 2.32,8.356 2.785,9.981 0.466,1.625 0.928,4.41 -0.465,5.106 -1.392,0.697 -4.409,-4.642 -4.874,-6.035 -0.463,-1.392 -2.784,-8.355 -3.944,-9.516 -1.161,-1.16 -7.892,-6.498 -9.517,-8.356 -1.626,-1.857 -3.715,-6.731 -7.196,-6.499 -3.482,0.233 -11.14,-0.465 -14.157,-1.392 -3.019,-0.929 -9.054,-2.554 -12.303,-1.393 -3.249,1.16 -11.606,5.107 -13.927,5.803 -2.32,0.696 -12.074,4.421 -13.229,3.945"
       style="fill:#b2b1b1;fill-opacity:1;fill-rule:nonzero;stroke:none;stroke-width:0.1"
       id="path96137" />
    <path
       d="m 610.561,684.408 c 0,0 -6.499,-0.929 -9.052,-2.323 -2.552,-1.392 -14.178,-7.445 -16.48,-9.979 -4.285,-4.718 4.874,-6.035 8.82,-3.946 3.947,2.089 35.048,14.622 41.547,17.175 6.5,2.554 21.818,9.053 31.567,13.927 9.748,4.874 18.335,16.247 18.568,24.139 0.233,7.892 -16.944,17.408 -21.353,19.265 -4.409,1.856 -17.176,5.803 -25.997,3.25 -8.819,-2.554 -22.978,-12.302 -29.013,-18.336 -6.034,-6.035 -14.35,-12.21 -21.586,-16.712 -5.591,-3.481 -13.229,-6.732 -18.8,-8.589 -5.571,-1.857 -11.839,-3.713 -13.232,-7.427 -1.392,-3.713 4.178,-10.213 7.198,-13.229 3.016,-3.018 10.212,-8.821 13.694,-10.678 3.481,-1.858 7.277,-0.585 7.89,0.232 0.697,0.929 -4.177,4.41 -7.66,5.803 -3.481,1.393 -10.212,3.945 -13.228,8.588 -3.02,4.641 -4.41,10.445 0.696,11.373 5.106,0.929 13.694,2.785 25.531,9.98 11.838,7.196 21.818,15.784 24.139,18.105 2.321,2.321 9.75,7.427 12.07,8.588 3.017,3.481 15.318,6.731 23.907,6.035 8.587,-0.696 16.945,-4.411 20.658,-9.517 3.713,-5.106 7.659,-11.373 3.249,-16.248 -4.41,-4.874 -12.302,-12.302 -25.068,-17.872 -12.766,-5.57 -22.977,-10.213 -26.923,-10.444 -3.948,-0.233 -11.142,-1.16 -11.142,-1.16"
       style="fill:#b2b1b1;fill-opacity:1;fill-rule:nonzero;stroke:none;stroke-width:0.1"
       id="path96139" />
    <path
       d="m 630.855,670.547 c 1.323,-0.465 -1.958,-2.62 -4.743,-4.476 -2.786,-1.858 -8.357,-3.249 -11.606,-3.482 -3.249,-0.233 -6.499,-0.928 -8.588,-2.321 -2.088,-1.393 -3.712,-3.714 -6.73,-4.178 -1.396,-0.215 -7.196,1.624 -11.838,2.785 -4.642,1.162 -8.589,-0.464 -11.604,-0.928 -3.017,-0.463 -4.644,1.393 -5.804,3.25 -1.16,1.855 -11.141,10.677 -14.157,12.765 -3.018,2.089 -4.178,4.411 -4.644,6.035 -0.465,1.625 -2.32,8.356 -2.785,9.981 -0.465,1.625 -0.928,4.41 0.465,5.106 1.393,0.697 4.409,-4.642 4.875,-6.035 0.462,-1.392 2.783,-8.355 3.943,-9.516 1.162,-1.16 7.893,-6.498 9.518,-8.356 1.625,-1.857 3.714,-6.731 7.196,-6.499 3.481,0.233 11.14,-0.465 14.157,-1.392 3.018,-0.929 9.054,-2.554 12.303,-1.393 3.249,1.16 11.606,5.107 13.926,5.803 2.32,0.696 12.074,4.421 13.23,3.945"
       style="fill:#b2b1b1;fill-opacity:1;fill-rule:nonzero;stroke:none;stroke-width:0.1"
       id="path96141" />
    <path
       d="m 437.985,665.15 c 0.808,3.024 9.405,4.402 14.047,6.491 4.641,2.089 -0.928,6.035 -9.517,7.892 -8.588,1.857 -33.655,13.23 -40.849,17.175 -7.195,3.946 -21.586,13.927 -21.123,26.229 0.463,12.302 16.248,24.603 33.423,31.103 17.176,6.499 22.05,5.106 29.479,3.016 7.428,-2.089 16.246,-9.516 24.601,-16.711 8.357,-7.195 23.675,-19.265 28.319,-22.282 4.642,-3.018 13.461,-7.195 23.674,-12.534 10.213,-5.339 17.176,-8.572 19.961,-8.572 2.786,0 9.749,3.233 19.962,8.572 10.212,5.339 19.031,9.516 23.674,12.534 4.643,3.017 19.962,15.087 28.318,22.282 8.356,7.195 17.173,14.622 24.602,16.711 7.429,2.09 12.303,3.483 29.479,-3.016 17.175,-6.5 32.959,-18.801 33.423,-31.103 0.463,-12.302 -13.928,-22.283 -21.123,-26.229 -7.194,-3.945 -32.261,-15.318 -40.85,-17.175 -8.588,-1.857 -14.157,-5.803 -9.516,-7.892 4.642,-2.089 13.239,-3.467 14.046,-6.491"
       style="fill:none;stroke:#231f20;stroke-width:0.5;stroke-linecap:butt;stroke-linejoin:miter;stroke-miterlimit:4;stroke-dasharray:none;stroke-opacity:1"
       id="path96143" />
    <path
       d="M 540,828.082 598.243,787.94"
       style="fill:none;stroke:#231f20;stroke-width:0.5;stroke-linecap:round;stroke-linejoin:round;stroke-miterlimit:4;stroke-dasharray:2.8, 1.8;stroke-dashoffset:0;stroke-opacity:1"
       id="path96145" />
    <path
       d="m 571.876,880.569 35.632,-88.516"
       style="fill:none;stroke:#231f20;stroke-width:0.5;stroke-linecap:round;stroke-linejoin:round;stroke-miterlimit:4;stroke-dasharray:2.8, 1.8;stroke-dashoffset:0;stroke-opacity:1"
       id="path96147" />
    <path
       d="M 615.842,894.941 621.818,793.02"
       style="fill:none;stroke:#231f20;stroke-width:0.5;stroke-linecap:round;stroke-linejoin:round;stroke-miterlimit:4;stroke-dasharray:2.8, 1.8;stroke-dashoffset:0;stroke-opacity:1"
       id="path96149" />
    <path
       d="M 655.246,897.648 647.899,791.281"
       style="fill:none;stroke:#231f20;stroke-width:0.5;stroke-linecap:round;stroke-linejoin:round;stroke-miterlimit:4;stroke-dasharray:2.8, 1.8;stroke-dashoffset:0;stroke-opacity:1"
       id="path96151" />
    <path
       d="M 754.391,877.864 711.275,774.416"
       style="fill:none;stroke:#231f20;stroke-width:0.5;stroke-linecap:round;stroke-linejoin:round;stroke-miterlimit:4;stroke-dasharray:2.8, 1.8;stroke-dashoffset:0;stroke-opacity:1"
       id="path96153" />
    <path
       d="M 786.801,862.811 735.204,762.092"
       style="fill:none;stroke:#231f20;stroke-width:0.5;stroke-linecap:round;stroke-linejoin:round;stroke-miterlimit:4;stroke-dasharray:2.8, 1.8;stroke-dashoffset:0;stroke-opacity:1"
       id="path96155" />
    <path
       d="M 751.348,751.046 808,851.17"
       style="fill:none;stroke:#231f20;stroke-width:0.5;stroke-linecap:round;stroke-linejoin:round;stroke-miterlimit:4;stroke-dasharray:2.8, 1.8;stroke-dashoffset:0;stroke-opacity:1"
       id="path96157" />
    <path
       d="m 825.724,660.037 118.675,49.769"
       style="fill:none;stroke:#231f20;stroke-width:0.5;stroke-linecap:round;stroke-linejoin:round;stroke-miterlimit:4;stroke-dasharray:2.8, 1.8;stroke-dashoffset:0;stroke-opacity:1"
       id="path96159" />
    <path
       d="m 844.566,621.243 121.402,31.338"
       style="fill:none;stroke:#231f20;stroke-width:0.5;stroke-linecap:round;stroke-linejoin:round;stroke-miterlimit:4;stroke-dasharray:2.8, 1.8;stroke-dashoffset:0;stroke-opacity:1"
       id="path96161" />
    <path
       d="m 857.177,576.361 111.245,7.325"
       style="fill:none;stroke:#231f20;stroke-width:0.5;stroke-linecap:round;stroke-linejoin:round;stroke-miterlimit:4;stroke-dasharray:2.8, 1.8;stroke-dashoffset:0;stroke-opacity:1"
       id="path96163" />
    <path
       d="m 858.061,548.859 104.207,-1.031"
       style="fill:none;stroke:#231f20;stroke-width:0.5;stroke-linecap:round;stroke-linejoin:round;stroke-miterlimit:4;stroke-dasharray:2.8, 1.8;stroke-dashoffset:0;stroke-opacity:1"
       id="path96165" />
    <path
       d="m 856.728,529.025 93.51,-10.018"
       style="fill:none;stroke:#231f20;stroke-width:0.5;stroke-linecap:round;stroke-linejoin:round;stroke-miterlimit:4;stroke-dasharray:2.8, 1.8;stroke-dashoffset:0;stroke-opacity:1"
       id="path96167" />
    <path
       d="m 850.32,489.647 c 5.113,-4.504 14.166,-13.208 38.188,-15.993 24.024,-2.785 48.947,-1.736 59.464,-1.39"
       style="fill:none;stroke:#231f20;stroke-width:0.5;stroke-linecap:round;stroke-linejoin:round;stroke-miterlimit:4;stroke-dasharray:2.8, 1.8;stroke-dashoffset:0;stroke-opacity:1"
       id="path96169" />
    <path
       d="m 850.427,434.6 c 3.962,-6.207 13.363,-13.867 22.414,-4.814 9.052,9.051 8.356,20.193 6.267,26.112 -2.089,5.918 -9.568,18.509 -13.488,23.53"
       style="fill:none;stroke:#231f20;stroke-width:0.5;stroke-linecap:round;stroke-linejoin:round;stroke-miterlimit:4;stroke-dasharray:2.8, 1.8;stroke-dashoffset:0;stroke-opacity:1"
       id="path96171" />
    <path
       d="m 848.47,409.244 c -2.089,-2.437 -6.615,-5.222 -10.096,-6.615 -3.482,-1.392 -40.927,-8.339 -44.06,8.024"
       style="fill:none;stroke:#231f20;stroke-width:0.5;stroke-linecap:round;stroke-linejoin:round;stroke-miterlimit:4;stroke-dasharray:2.8, 1.8;stroke-dashoffset:0;stroke-opacity:1"
       id="path96173" />
    <path
       d="m 794.225,423.608 c 2.089,9.053 15.251,32.29 18.733,36.119 3.481,3.83 11.141,13.231 16.363,18.105 5.223,4.874 16.015,18.8 18.104,21.585"
       style="fill:none;stroke:#231f20;stroke-width:0.5;stroke-linecap:round;stroke-linejoin:round;stroke-miterlimit:4;stroke-dasharray:2.8, 1.8;stroke-dashoffset:0;stroke-opacity:1"
       id="path96175" />
    <path
       d="m 807.449,400.538 c -0.41,-4.176 0.287,-16.013 6.901,-18.451 6.615,-2.436 15.319,-3.481 19.846,3.482 4.837,7.442 6.615,10.793 4.178,17.06"
       style="fill:none;stroke:#231f20;stroke-width:0.5;stroke-linecap:round;stroke-linejoin:round;stroke-miterlimit:4;stroke-dasharray:2.8, 1.8;stroke-dashoffset:0;stroke-opacity:1"
       id="path96177" />
    <path
       d="m 839.437,398.092 c 3.463,-1.382 23.234,0.079 20.66,28.247"
       style="fill:none;stroke:#231f20;stroke-width:0.5;stroke-linecap:round;stroke-linejoin:round;stroke-miterlimit:4;stroke-dasharray:2.8, 1.8;stroke-dashoffset:0;stroke-opacity:1"
       id="path96179" />
    <path
       d="m 829.321,477.832 c -1.044,-4.178 0.348,-12.186 3.83,-17.06 3.481,-4.874 14.353,-19.486 14.662,-21.581"
       style="fill:none;stroke:#231f20;stroke-width:0.5;stroke-linecap:round;stroke-linejoin:round;stroke-miterlimit:4;stroke-dasharray:2.8, 1.8;stroke-dashoffset:0;stroke-opacity:1"
       id="path96181" />
    <path
       d="m 666.964,671.801 c 1.856,-6.659 1.624,-16.871 -0.001,-22.21 -1.625,-5.339 -2.118,-15.733 -1.421,-24.553"
       style="fill:none;stroke:#231f20;stroke-width:0.5;stroke-linecap:round;stroke-linejoin:round;stroke-miterlimit:4;stroke-dasharray:2.8, 1.8;stroke-dashoffset:0;stroke-opacity:1"
       id="path96183" />
    <path
       d="m 660.314,625.916 c 4.874,-1.392 19.816,-2.553 27.013,5.802"
       style="fill:none;stroke:#231f20;stroke-width:0.5;stroke-linecap:round;stroke-linejoin:round;stroke-miterlimit:4;stroke-dasharray:2.8, 1.8;stroke-dashoffset:0;stroke-opacity:1"
       id="path96185" />
    <path
       d="m 565.068,634.736 c -2.554,0.464 -5.358,-1.165 -4.874,-2.785 0.582,-1.949 1.624,-4.178 0.23,-6.963 -1.392,-2.785 -3.249,-9.516 -3.481,-12.071 -0.231,-2.552 -0.462,-7.659 -0.462,-8.819"
       style="fill:none;stroke:#231f20;stroke-width:0.5;stroke-linecap:round;stroke-linejoin:round;stroke-miterlimit:4;stroke-dasharray:2.8, 1.8;stroke-dashoffset:0;stroke-opacity:1"
       id="path96187" />
    <path
       d="m 556.712,640.54 c 2.554,-2.555 5.752,-4.18 8.356,-5.804"
       style="fill:none;stroke:#231f20;stroke-width:0.5;stroke-linecap:round;stroke-linejoin:round;stroke-miterlimit:4;stroke-dasharray:2.8, 1.8;stroke-dashoffset:0;stroke-opacity:1"
       id="path96189" />
    <path
       d="m 563.444,608.508 c 3.629,0.82 14.941,-4.322 14.941,-9.429 0,-5.106 -2.467,-5.572 -8.269,-6.964 -5.802,-1.393 -12.011,-0.087 -14.1,4.091 -2.09,4.178 0.233,10.678 7.428,12.302 z"
       style="fill:none;stroke:#231f20;stroke-width:0.5;stroke-linecap:round;stroke-linejoin:round;stroke-miterlimit:4;stroke-dasharray:2.8, 1.8;stroke-dashoffset:0;stroke-opacity:1"
       id="path96191" />
    <path
       d="m 609.569,643.11 c 1.688,-3.733 4.473,-9.534 6.097,-12.088 1.626,-2.553 3.252,-5.106 12.071,-0.232 8.819,4.875 9.051,10.911 9.515,14.624 0.465,3.712 -0.416,10.437 -5.545,13.806"
       style="fill:none;stroke:#231f20;stroke-width:0.5;stroke-linecap:round;stroke-linejoin:round;stroke-miterlimit:4;stroke-dasharray:2.8, 1.8;stroke-dashoffset:0;stroke-opacity:1"
       id="path96193" />
    <path
       d="m 607.045,582.247 c 3.051,3.514 10.247,13.262 10.943,19.762 0.696,6.499 2.597,22.411 12.092,30.239 9.494,7.826 17.85,9.218 22.028,7.363 4.178,-1.857 7.195,-3.946 7.892,-10.213 0.539,-4.844 1.065,-6.574 -4.505,-14.233 -5.572,-7.661 -38.529,-35.059 -49.971,-46.854"
       style="fill:none;stroke:#231f20;stroke-width:0.5;stroke-linecap:round;stroke-linejoin:round;stroke-miterlimit:4;stroke-dasharray:2.8, 1.8;stroke-dashoffset:0;stroke-opacity:1"
       id="path96195" />
    <path
       d="m 607.323,571.22 c 6.822,7.89 22.504,25.682 30.394,34.967 7.891,9.285 17.717,16.55 13.269,33.807"
       style="fill:none;stroke:#231f20;stroke-width:0.5;stroke-linecap:round;stroke-linejoin:round;stroke-miterlimit:4;stroke-dasharray:2.8, 1.8;stroke-dashoffset:0;stroke-opacity:1"
       id="path96197" />
    <path
       d="m 582.476,690.674 c 0.711,-2.848 5.106,-3.017 13.693,-0.696 8.589,2.32 20.194,5.339 27.39,10.444 7.195,5.107 9.747,9.517 8.123,11.838 -1.624,2.322 -9.749,1.625 -19.264,-3.481 -9.516,-5.108 -19.729,-10.445 -23.443,-12.302 -3.714,-1.857 -6.963,-3.945 -6.499,-5.803 z"
       style="fill:none;stroke:#231f20;stroke-width:0.5;stroke-linecap:round;stroke-linejoin:round;stroke-miterlimit:4;stroke-dasharray:2.8, 1.8;stroke-dashoffset:0;stroke-opacity:1"
       id="path96199" />
    <path
       d="M 601.157,691.335 C 597.794,684.175 586.973,675.939 586,672.978"
       style="fill:none;stroke:#231f20;stroke-width:0.5;stroke-linecap:round;stroke-linejoin:round;stroke-miterlimit:4;stroke-dasharray:2.8, 1.8;stroke-dashoffset:0;stroke-opacity:1"
       id="path96201" />
    <path
       d="m 593.849,668.16 c 3.017,-0.929 11.427,-2.216 17.203,-1.921"
       style="fill:none;stroke:#231f20;stroke-width:0.5;stroke-linecap:round;stroke-linejoin:round;stroke-miterlimit:4;stroke-dasharray:2.8, 1.8;stroke-dashoffset:0;stroke-opacity:1"
       id="path96203" />
    <path
       d="m 711.992,626.613 c -3.314,-0.815 -3.715,-3.25 -3.483,-6.733 0.234,-3.481 0.768,-19.637 -3.249,-35.279 -4.41,-17.176 -13.777,-37.222 -23.907,-47.35 -9.98,-9.981 -9.366,-17.937 -4.219,-19.877"
       style="fill:none;stroke:#231f20;stroke-width:0.5;stroke-linecap:round;stroke-linejoin:round;stroke-miterlimit:4;stroke-dasharray:2.8, 1.8;stroke-dashoffset:0;stroke-opacity:1"
       id="path96205" />
    <path
       d="m 609.983,530.04 c 6.612,0.015 14.97,-6.019 22.164,-10.197 7.194,-4.177 22.413,-13.204 29.078,-11.243"
       style="fill:none;stroke:#231f20;stroke-width:0.5;stroke-linecap:round;stroke-linejoin:round;stroke-miterlimit:4;stroke-dasharray:2.8, 1.8;stroke-dashoffset:0;stroke-opacity:1"
       id="path96207" />
    <path
       d="m 673.535,463.222 c -0.44,2.965 2.945,10.897 6.658,15.306 3.713,4.412 14.623,14.391 20.193,16.945 5.572,2.552 18.569,11.604 24.139,5.802 5.57,-5.802 -4.875,-14.622 -6.499,-15.318 -1.624,-0.697 -16.247,-8.357 -21.354,-13.231 -5.106,-4.874 -11.152,-9.618 -12.475,-10.942 -1.393,-1.393 -9.574,-4.608 -10.662,1.438"
       style="fill:none;stroke:#231f20;stroke-width:0.5;stroke-linecap:round;stroke-linejoin:round;stroke-miterlimit:4;stroke-dasharray:2.8, 1.8;stroke-dashoffset:0;stroke-opacity:1"
       id="path96209" />
    <path
       d="m 706.062,453.596 c 4.073,-2.456 19.391,-5.241 34.246,5.669 14.856,10.907 34.351,29.708 41.083,36.671 6.732,6.963 21.355,25.532 22.051,45.261 0.688,19.491 -5.989,37.324 -8.542,47.072 -2.553,9.748 -6.119,24.67 -3.896,30.578"
       style="fill:none;stroke:#231f20;stroke-width:0.5;stroke-linecap:round;stroke-linejoin:round;stroke-miterlimit:4;stroke-dasharray:2.8, 1.8;stroke-dashoffset:0;stroke-opacity:1"
       id="path96211" />
    <path
       d="m 781.391,495.936 c 5.107,-1.855 32.352,-18.403 31.147,-36.707"
       style="fill:none;stroke:#231f20;stroke-width:0.5;stroke-linecap:round;stroke-linejoin:round;stroke-miterlimit:4;stroke-dasharray:2.8, 1.8;stroke-dashoffset:0;stroke-opacity:1"
       id="path96213" />
    <path
       d="m 785.337,475.743 c 3.485,0.198 6.267,-1.624 6.731,-5.571 0.464,-3.944 -1.625,-16.712 -4.41,-20.424 -2.785,-3.713 -4.409,-5.571 -6.731,-5.571 -2.321,0 -4.641,3.715 -5.57,10.213 -0.93,6.499 -2.32,20.656 9.98,21.353 z"
       style="fill:none;stroke:#231f20;stroke-width:0.5;stroke-linecap:round;stroke-linejoin:round;stroke-miterlimit:4;stroke-dasharray:2.8, 1.8;stroke-dashoffset:0;stroke-opacity:1"
       id="path96215" />
    <path
       d="m 772.88,487.509 c 2.244,-3.177 4.183,-13.303 3.562,-17.294"
       style="fill:none;stroke:#231f20;stroke-width:0.5;stroke-linecap:round;stroke-linejoin:round;stroke-miterlimit:4;stroke-dasharray:2.8, 1.8;stroke-dashoffset:0;stroke-opacity:1"
       id="path96217" />
    <path
       d="m 779.332,444.77 c 1.131,-3.844 0.899,-16.323 -3.975,-26.306"
       style="fill:none;stroke:#231f20;stroke-width:0.5;stroke-linecap:round;stroke-linejoin:round;stroke-miterlimit:4;stroke-dasharray:2.8, 1.8;stroke-dashoffset:0;stroke-opacity:1"
       id="path96219" />
    <path
       d="m 739.626,458.778 c -2.428,-1.6 -4.658,-6.011 -2.799,-13.44 1.857,-7.428 9.27,-19.823 32.713,-27.482"
       style="fill:none;stroke:#231f20;stroke-width:0.5;stroke-linecap:round;stroke-linejoin:round;stroke-miterlimit:4;stroke-dasharray:2.8, 1.8;stroke-dashoffset:0;stroke-opacity:1"
       id="path96221" />
    <path
       d="m 563.665,516.817 c -1.614,5.115 0.008,12.08 5.348,15.097 5.34,3.016 16.512,6.304 21.95,1.875"
       style="fill:none;stroke:#231f20;stroke-width:0.5;stroke-linecap:round;stroke-linejoin:round;stroke-miterlimit:4;stroke-dasharray:2.8, 1.8;stroke-dashoffset:0;stroke-opacity:1"
       id="path96223" />
    <path
       d="m 570.984,499.624 c 2.439,-6.008 6.412,-13.385 12.652,-14.133 5.803,-0.697 14.622,0.927 15.319,6.732 0.696,5.802 0,11.141 -0.697,13.695"
       style="fill:none;stroke:#231f20;stroke-width:0.5;stroke-linecap:round;stroke-linejoin:round;stroke-miterlimit:4;stroke-dasharray:2.8, 1.8;stroke-dashoffset:0;stroke-opacity:1"
       id="path96225" />
    <path
       d="m 598.719,491.149 c 2.558,-2.639 9.226,-7.173 16.231,-5.025"
       style="fill:none;stroke:#231f20;stroke-width:0.5;stroke-linecap:round;stroke-linejoin:round;stroke-miterlimit:4;stroke-dasharray:2.8, 1.8;stroke-dashoffset:0;stroke-opacity:1"
       id="path96227" />
    <path
       d="m 541.051,461.664 c 2.199,-0.31 5.912,0.386 11.018,4.564 5.108,4.178 14.159,9.515 16.944,9.98"
       style="fill:none;stroke:#231f20;stroke-width:0.5;stroke-linecap:round;stroke-linejoin:round;stroke-miterlimit:4;stroke-dasharray:2.8, 1.8;stroke-dashoffset:0;stroke-opacity:1"
       id="path96229" />
    <path
       d="m 541.002,479.172 c 3.641,-0.179 21.281,-2.733 28.011,-2.964 3.096,-0.109 18.802,2.554 26.229,4.409 7.427,1.857 30.047,8.547 37.136,10.91 6.963,2.32 12.61,5.393 15.785,7.89 8.547,6.727 22.282,14.856 28.316,17.641 6.034,2.785 10.678,7.195 18.105,12.301 7.426,5.107 16.015,14.855 27.156,24.141 11.141,9.284 14.609,18.337 15.783,31.101 1.174,12.764 -5.338,30.405 -8.82,35.049 -3.482,4.642 -10.212,9.052 -16.711,6.963 -6.5,-2.089 -15.552,-1.625 -19.961,-0.233 -4.409,1.393 -5.804,7.892 -5.571,12.301 0.233,4.411 4.178,9.053 10.445,10.678 6.266,1.625 13.694,-0.464 18.62,-3.415"
       style="fill:none;stroke:#231f20;stroke-width:0.5;stroke-linecap:round;stroke-linejoin:round;stroke-miterlimit:4;stroke-dasharray:2.8, 1.8;stroke-dashoffset:0;stroke-opacity:1"
       id="path96231" />
    <path
       d="m 548.718,463.84 c 1.958,-2.951 5.442,-8.056 22.616,-5.967 17.176,2.088 32.497,6.498 37.834,7.89 5.338,1.393 15.552,3.482 20.89,3.25 0,0 32.486,8.617 51.406,28.911"
       style="fill:none;stroke:#231f20;stroke-width:0.5;stroke-linecap:round;stroke-linejoin:round;stroke-miterlimit:4;stroke-dasharray:2.8, 1.8;stroke-dashoffset:0;stroke-opacity:1"
       id="path96233" />
    <path
       d="m 648.163,499.417 c 7.89,0.465 16.246,0 20.657,0 4.41,0 15.26,0.779 20.042,3.817"
       style="fill:none;stroke:#231f20;stroke-width:0.5;stroke-linecap:round;stroke-linejoin:round;stroke-miterlimit:4;stroke-dasharray:2.8, 1.8;stroke-dashoffset:0;stroke-opacity:1"
       id="path96235" />
    <path
       d="m 562.765,473.39 c 3.928,-0.199 9.732,-3.449 17.158,-4.377 7.427,-0.929 21.273,-2.896 28.161,-3.539"
       style="fill:none;stroke:#231f20;stroke-width:0.5;stroke-linecap:round;stroke-linejoin:round;stroke-miterlimit:4;stroke-dasharray:2.8, 1.8;stroke-dashoffset:0;stroke-opacity:1"
       id="path96237" />
    <path
       d="m 552.444,459.953 c -4.32,0.008 -8.266,-1.154 -8.266,-3.473 0,-2.323 9.052,-5.34 13.927,-4.644 4.874,0.697 13.695,3.482 21.122,3.713 7.427,0.235 19.728,0.235 21.354,0 1.625,-0.231 12.764,0.928 18.567,1.858 5.804,0.927 9.981,2.785 12.07,5.105 2.089,2.323 4.643,6.036 -1.16,6.501"
       style="fill:none;stroke:#231f20;stroke-width:0.5;stroke-linecap:round;stroke-linejoin:round;stroke-miterlimit:4;stroke-dasharray:2.8, 1.8;stroke-dashoffset:0;stroke-opacity:1"
       id="path96239" />
    <path
       d="m 559.191,452.013 c -5.961,-2.265 -7.121,-7.139 -6.191,-9.925 0.926,-2.785 2.32,-10.445 9.051,-16.943 6.731,-6.501 8.819,-6.269 14.621,-7.428 5.804,-1.162 12.998,-3.251 18.801,-1.393 5.804,1.858 9.518,6.499 10.91,11.838 1.393,5.339 3.253,18.474 -6.729,27.458"
       style="fill:none;stroke:#231f20;stroke-width:0.5;stroke-linecap:round;stroke-linejoin:round;stroke-miterlimit:4;stroke-dasharray:2.8, 1.8;stroke-dashoffset:0;stroke-opacity:1"
       id="path96241" />
    <path
       d="m 586.19,448.124 c 0,-3.718 -3.222,-6.732 -7.195,-6.732 -3.975,0 -7.197,3.014 -7.197,6.732 0,3.718 3.222,6.732 7.197,6.732 3.973,0 7.195,-3.014 7.195,-6.732 z"
       style="fill:none;stroke:#231f20;stroke-width:0.5;stroke-linecap:round;stroke-linejoin:round;stroke-miterlimit:4;stroke-dasharray:2.8, 1.8;stroke-dashoffset:0;stroke-opacity:1"
       id="path96243" />
    <path
       d="m 557.892,360.646 c 1.69,-1.175 1.54,-12.018 -1.097,-19.022"
       style="fill:none;stroke:#231f20;stroke-width:0.5;stroke-linecap:round;stroke-linejoin:round;stroke-miterlimit:4;stroke-dasharray:2.8, 1.8;stroke-dashoffset:0;stroke-opacity:1"
       id="path96245" />
    <path
       d="m 572.931,353.949 c 4.903,-1.686 13.854,-6.98 12.743,-13.385"
       style="fill:none;stroke:#231f20;stroke-width:0.5;stroke-linecap:round;stroke-linejoin:round;stroke-miterlimit:4;stroke-dasharray:2.8, 1.8;stroke-dashoffset:0;stroke-opacity:1"
       id="path96247" />
    <path
       d="m 548.587,406.344 c 2.72,4.872 14.393,8.122 25.069,1.624 10.676,-6.498 22.707,-21.673 25.956,-32.348 3.249,-10.679 -5.763,-15.233 -13.887,-15.466 -7.671,-0.218 -19.728,-0.695 -29.94,11.375 -10.214,12.068 -12.768,24.836 -7.198,34.815 z"
       style="fill:none;stroke:#231f20;stroke-width:0.5;stroke-linecap:round;stroke-linejoin:round;stroke-miterlimit:4;stroke-dasharray:2.8, 1.8;stroke-dashoffset:0;stroke-opacity:1"
       id="path96249" />
    <path
       d="m 550.492,378.981 c 5.524,3.224 18.268,16.375 16.886,31.731"
       style="fill:none;stroke:#231f20;stroke-width:0.5;stroke-linecap:round;stroke-linejoin:round;stroke-miterlimit:4;stroke-dasharray:2.8, 1.8;stroke-dashoffset:0;stroke-opacity:1"
       id="path96251" />
    <path
       d="m 565.291,363.85 c 0.008,7.444 8.153,29.066 19.864,34.272"
       style="fill:none;stroke:#231f20;stroke-width:0.5;stroke-linecap:round;stroke-linejoin:round;stroke-miterlimit:4;stroke-dasharray:2.8, 1.8;stroke-dashoffset:0;stroke-opacity:1"
       id="path96253" />
    <path
       d="m 622.806,349.638 c 2.842,2.394 13.751,8.427 16.304,9.82 2.553,1.392 10.383,5.937 11.922,3.548"
       style="fill:none;stroke:#231f20;stroke-width:0.5;stroke-linecap:round;stroke-linejoin:round;stroke-miterlimit:4;stroke-dasharray:2.8, 1.8;stroke-dashoffset:0;stroke-opacity:1"
       id="path96255" />
    <path
       d="m 678.568,425.841 c 3.945,2.321 9.981,4.641 12.07,2.089 1.843,-2.252 -0.232,-7.428 -5.804,-10.679 -5.57,-3.247 -11.838,-3.247 -12.765,-1.158 -0.928,2.089 0.743,6.365 6.499,9.748 z"
       style="fill:none;stroke:#231f20;stroke-width:0.5;stroke-linecap:round;stroke-linejoin:round;stroke-miterlimit:4;stroke-dasharray:2.8, 1.8;stroke-dashoffset:0;stroke-opacity:1"
       id="path96257" />
    <path
       d="m 736.146,449.979 c -3.249,0.233 -14.174,-6.033 -16.495,-11.838 -2.321,-5.802 -8.125,-20.89 -10.678,-27.156 -2.553,-6.267 -6.032,-15.55 -7.194,-18.336 -1.161,-2.785 -3.019,-11.837 0.231,-15.318 3.25,-3.482 5.571,-12.3 28.549,-20.425 22.979,-8.125 41.085,-11.144 46.423,-12.303 5.338,-1.161 35.976,-5.105 52.687,-2.554 16.712,2.554 31.798,7.198 38.762,10.679 6.963,3.481 24.139,14.389 36.208,35.278 12.071,20.89 20.89,39.691 26.693,54.779 5.803,15.088 8.124,28.084 4.178,28.084 -3.945,0 -5.338,-6.498 -6.266,-8.587 -0.93,-2.09 -14.16,-38.53 -18.337,-46.189 -4.179,-7.66 -13.927,-29.942 -21.354,-37.138 -7.427,-7.196 -16.479,-16.013 -38.761,-22.049 -22.283,-6.036 -37.139,-4.874 -39.46,-4.874 -2.32,0 -5.105,-0.465 -5.105,-3.482 0,-3.019 -0.492,-7.092 2.303,-7.183"
       style="fill:none;stroke:#231f20;stroke-width:0.5;stroke-linecap:round;stroke-linejoin:round;stroke-miterlimit:4;stroke-dasharray:2.8, 1.8;stroke-dashoffset:0;stroke-opacity:1"
       id="path96259" />
    <path
       d="m 747.527,429.536 c 2.886,-2.223 4.618,-9.73 4.85,-13.443 0.234,-3.716 -10e-4,-10.214 -5.106,-17.177 -5.105,-6.963 -19.095,-27.619 -22.429,-39.804"
       style="fill:none;stroke:#231f20;stroke-width:0.5;stroke-linecap:round;stroke-linejoin:round;stroke-miterlimit:4;stroke-dasharray:2.8, 1.8;stroke-dashoffset:0;stroke-opacity:1"
       id="path96261" />
    <path
       d="m 702.056,393.327 c 0.809,2.045 3.436,2.573 5.061,1.642 1.626,-0.927 9.981,-5.336 12.07,-6.266 2.089,-0.928 8.818,-5.337 9.979,-6.963 1.163,-1.624 3.252,-7.429 9.982,-8.587 6.73,-1.162 16.942,-1.624 22.05,-2.555 5.106,-0.928 14.622,-2.32 18.104,-2.32 3.482,0 12.766,-0.234 15.551,-1.393 2.786,-1.161 12.517,-6.794 12.168,-16.116"
       style="fill:none;stroke:#231f20;stroke-width:0.5;stroke-linecap:round;stroke-linejoin:round;stroke-miterlimit:4;stroke-dasharray:2.8, 1.8;stroke-dashoffset:0;stroke-opacity:1"
       id="path96263" />
    <path
       d="m 807.356,398.451 c 0.031,-7.195 -2.99,-32.017 -14.131,-31.114"
       style="fill:none;stroke:#231f20;stroke-width:0.5;stroke-linecap:round;stroke-linejoin:round;stroke-miterlimit:4;stroke-dasharray:2.8, 1.8;stroke-dashoffset:0;stroke-opacity:1"
       id="path96265" />
    <path
       d="m 773.502,368.754 c 3.48,-2.796 3.71,-7.208 3.248,-9.528 -0.464,-2.32 -2.406,-11.337 -3.292,-13.907"
       style="fill:none;stroke:#231f20;stroke-width:0.5;stroke-linecap:round;stroke-linejoin:round;stroke-miterlimit:4;stroke-dasharray:2.8, 1.8;stroke-dashoffset:0;stroke-opacity:1"
       id="path96267" />
    <path
       d="m 792.764,424.449 c -2.294,0.35 -4.41,-3.25 -4.874,-5.109 -0.464,-1.854 0.002,-9.979 2.321,-9.979 2.321,0 5.106,0.231 5.106,4.874 0,4.643 0.466,9.749 -2.553,10.214 z"
       style="fill:none;stroke:#231f20;stroke-width:0.5;stroke-linecap:round;stroke-linejoin:round;stroke-miterlimit:4;stroke-dasharray:2.8, 1.8;stroke-dashoffset:0;stroke-opacity:1"
       id="path96269" />
    <path
       d="m 789.746,422.849 c -3.248,-2.116 -10.908,-4.205 -15.085,-4.435 -4.179,-0.232 -9.75,-1.163 -13.463,-2.787 -3.713,-1.623 -8.587,-6.962 -8.123,-9.283 0.463,-2.322 5.339,-2.32 9.284,-1.392 3.945,0.927 11.372,3.016 14.157,2.785 2.786,-0.234 10.581,0.065 13.183,1.773"
       style="fill:none;stroke:#231f20;stroke-width:0.5;stroke-linecap:round;stroke-linejoin:round;stroke-miterlimit:4;stroke-dasharray:2.8, 1.8;stroke-dashoffset:0;stroke-opacity:1"
       id="path96271" />
    <path
       d="M 540,828.082 481.758,787.94"
       style="fill:none;stroke:#231f20;stroke-width:0.5;stroke-linecap:round;stroke-linejoin:round;stroke-miterlimit:4;stroke-dasharray:2.8, 1.8;stroke-dashoffset:0;stroke-opacity:1"
       id="path96273" />
    <path
       d="M 508.125,880.569 472.493,792.053"
       style="fill:none;stroke:#231f20;stroke-width:0.5;stroke-linecap:round;stroke-linejoin:round;stroke-miterlimit:4;stroke-dasharray:2.8, 1.8;stroke-dashoffset:0;stroke-opacity:1"
       id="path96275" />
    <path
       d="M 464.159,894.941 458.183,793.02"
       style="fill:none;stroke:#231f20;stroke-width:0.5;stroke-linecap:round;stroke-linejoin:round;stroke-miterlimit:4;stroke-dasharray:2.8, 1.8;stroke-dashoffset:0;stroke-opacity:1"
       id="path96277" />
    <path
       d="m 424.755,897.648 7.347,-106.367"
       style="fill:none;stroke:#231f20;stroke-width:0.5;stroke-linecap:round;stroke-linejoin:round;stroke-miterlimit:4;stroke-dasharray:2.8, 1.8;stroke-dashoffset:0;stroke-opacity:1"
       id="path96279" />
    <path
       d="M 325.61,877.864 368.726,774.416"
       style="fill:none;stroke:#231f20;stroke-width:0.5;stroke-linecap:round;stroke-linejoin:round;stroke-miterlimit:4;stroke-dasharray:2.8, 1.8;stroke-dashoffset:0;stroke-opacity:1"
       id="path96281" />
    <path
       d="M 293.2,862.811 344.796,762.092"
       style="fill:none;stroke:#231f20;stroke-width:0.5;stroke-linecap:round;stroke-linejoin:round;stroke-miterlimit:4;stroke-dasharray:2.8, 1.8;stroke-dashoffset:0;stroke-opacity:1"
       id="path96283" />
    <path
       d="M 328.652,751.046 272.001,851.17"
       style="fill:none;stroke:#231f20;stroke-width:0.5;stroke-linecap:round;stroke-linejoin:round;stroke-miterlimit:4;stroke-dasharray:2.8, 1.8;stroke-dashoffset:0;stroke-opacity:1"
       id="path96285" />
    <path
       d="M 254.277,660.037 135.601,709.806"
       style="fill:none;stroke:#231f20;stroke-width:0.5;stroke-linecap:round;stroke-linejoin:round;stroke-miterlimit:4;stroke-dasharray:2.8, 1.8;stroke-dashoffset:0;stroke-opacity:1"
       id="path96287" />
    <path
       d="M 235.435,621.243 114.032,652.581"
       style="fill:none;stroke:#231f20;stroke-width:0.5;stroke-linecap:round;stroke-linejoin:round;stroke-miterlimit:4;stroke-dasharray:2.8, 1.8;stroke-dashoffset:0;stroke-opacity:1"
       id="path96289" />
    <path
       d="m 222.824,576.361 -111.245,7.325"
       style="fill:none;stroke:#231f20;stroke-width:0.5;stroke-linecap:round;stroke-linejoin:round;stroke-miterlimit:4;stroke-dasharray:2.8, 1.8;stroke-dashoffset:0;stroke-opacity:1"
       id="path96291" />
    <path
       d="M 221.94,548.859 117.733,547.828"
       style="fill:none;stroke:#231f20;stroke-width:0.5;stroke-linecap:round;stroke-linejoin:round;stroke-miterlimit:4;stroke-dasharray:2.8, 1.8;stroke-dashoffset:0;stroke-opacity:1"
       id="path96293" />
    <path
       d="m 223.273,529.025 -93.51,-10.018"
       style="fill:none;stroke:#231f20;stroke-width:0.5;stroke-linecap:round;stroke-linejoin:round;stroke-miterlimit:4;stroke-dasharray:2.8, 1.8;stroke-dashoffset:0;stroke-opacity:1"
       id="path96295" />
    <path
       d="m 229.681,489.647 c -5.114,-4.504 -14.166,-13.208 -38.189,-15.993 -24.023,-2.785 -48.947,-1.736 -59.463,-1.39"
       style="fill:none;stroke:#231f20;stroke-width:0.5;stroke-linecap:round;stroke-linejoin:round;stroke-miterlimit:4;stroke-dasharray:2.8, 1.8;stroke-dashoffset:0;stroke-opacity:1"
       id="path96297" />
    <path
       d="m 229.574,434.6 c -3.962,-6.207 -13.363,-13.867 -22.414,-4.814 -9.053,9.051 -8.357,20.193 -6.268,26.112 2.089,5.918 9.569,18.509 13.489,23.53"
       style="fill:none;stroke:#231f20;stroke-width:0.5;stroke-linecap:round;stroke-linejoin:round;stroke-miterlimit:4;stroke-dasharray:2.8, 1.8;stroke-dashoffset:0;stroke-opacity:1"
       id="path96299" />
    <path
       d="m 231.531,409.244 c 2.089,-2.437 6.615,-5.222 10.096,-6.615 3.482,-1.392 40.926,-8.339 44.06,8.024"
       style="fill:none;stroke:#231f20;stroke-width:0.5;stroke-linecap:round;stroke-linejoin:round;stroke-miterlimit:4;stroke-dasharray:2.8, 1.8;stroke-dashoffset:0;stroke-opacity:1"
       id="path96301" />
    <path
       d="m 285.776,423.608 c -2.09,9.053 -15.251,32.29 -18.734,36.119 -3.481,3.83 -11.14,13.231 -16.363,18.105 -5.222,4.874 -16.015,18.8 -18.104,21.585"
       style="fill:none;stroke:#231f20;stroke-width:0.5;stroke-linecap:round;stroke-linejoin:round;stroke-miterlimit:4;stroke-dasharray:2.8, 1.8;stroke-dashoffset:0;stroke-opacity:1"
       id="path96303" />
    <path
       d="m 272.552,400.538 c 0.409,-4.176 -0.287,-16.013 -6.902,-18.451 -6.614,-2.436 -15.318,-3.481 -19.845,3.482 -4.838,7.442 -6.615,10.793 -4.178,17.06"
       style="fill:none;stroke:#231f20;stroke-width:0.5;stroke-linecap:round;stroke-linejoin:round;stroke-miterlimit:4;stroke-dasharray:2.8, 1.8;stroke-dashoffset:0;stroke-opacity:1"
       id="path96305" />
    <path
       d="m 240.564,398.092 c -3.463,-1.382 -23.234,0.079 -20.66,28.247"
       style="fill:none;stroke:#231f20;stroke-width:0.5;stroke-linecap:round;stroke-linejoin:round;stroke-miterlimit:4;stroke-dasharray:2.8, 1.8;stroke-dashoffset:0;stroke-opacity:1"
       id="path96307" />
    <path
       d="m 250.679,477.832 c 1.045,-4.178 -0.347,-12.186 -3.83,-17.06 -3.481,-4.874 -14.352,-19.486 -14.662,-21.581"
       style="fill:none;stroke:#231f20;stroke-width:0.5;stroke-linecap:round;stroke-linejoin:round;stroke-miterlimit:4;stroke-dasharray:2.8, 1.8;stroke-dashoffset:0;stroke-opacity:1"
       id="path96309" />
    <path
       d="m 413.036,671.801 c -1.855,-6.659 -1.623,-16.871 0.002,-22.21 1.625,-5.339 2.117,-15.733 1.42,-24.553"
       style="fill:none;stroke:#231f20;stroke-width:0.5;stroke-linecap:round;stroke-linejoin:round;stroke-miterlimit:4;stroke-dasharray:2.8, 1.8;stroke-dashoffset:0;stroke-opacity:1"
       id="path96311" />
    <path
       d="m 419.687,625.916 c -4.875,-1.392 -19.817,-2.553 -27.013,5.802"
       style="fill:none;stroke:#231f20;stroke-width:0.5;stroke-linecap:round;stroke-linejoin:round;stroke-miterlimit:4;stroke-dasharray:2.8, 1.8;stroke-dashoffset:0;stroke-opacity:1"
       id="path96313" />
    <path
       d="m 514.933,634.736 c 2.554,0.464 5.359,-1.165 4.874,-2.785 -0.582,-1.949 -1.624,-4.178 -0.231,-6.963 1.392,-2.785 3.249,-9.516 3.481,-12.071 0.232,-2.552 0.463,-7.659 0.463,-8.819"
       style="fill:none;stroke:#231f20;stroke-width:0.5;stroke-linecap:round;stroke-linejoin:round;stroke-miterlimit:4;stroke-dasharray:2.8, 1.8;stroke-dashoffset:0;stroke-opacity:1"
       id="path96315" />
    <path
       d="m 477.955,633.486 c 1.698,-5.481 4.253,-11.98 8.662,-15.694 4.408,-3.713 8.587,-7.427 7.194,-12.998 0,0 0.001,-5.57 8.82,-9.981"
       style="fill:none;stroke:#231f20;stroke-width:0.5;stroke-linecap:round;stroke-linejoin:round;stroke-miterlimit:4;stroke-dasharray:2.8, 1.8;stroke-dashoffset:0;stroke-opacity:1"
       id="path96317" />
    <path
       d="m 519.807,631.951 c 2.785,3.481 8.125,2.089 10.445,0.464 2.32,-1.625 6.267,-2.089 9.748,-2.089 3.482,0 7.428,0.464 9.749,2.089 2.32,1.625 7.66,3.017 10.445,-0.464"
       style="fill:none;stroke:#231f20;stroke-width:0.5;stroke-linecap:round;stroke-linejoin:round;stroke-miterlimit:4;stroke-dasharray:2.8, 1.8;stroke-dashoffset:0;stroke-opacity:1"
       id="path96319" />
    <path
       d="m 523.289,640.54 c -2.554,-2.555 -5.753,-4.18 -8.356,-5.804"
       style="fill:none;stroke:#231f20;stroke-width:0.5;stroke-linecap:round;stroke-linejoin:round;stroke-miterlimit:4;stroke-dasharray:2.8, 1.8;stroke-dashoffset:0;stroke-opacity:1"
       id="path96321" />
    <path
       d="m 516.556,608.508 c -3.628,0.82 -14.94,-4.322 -14.94,-9.429 0,-5.106 2.467,-5.572 8.268,-6.964 5.802,-1.393 12.012,-0.087 14.101,4.091 2.089,4.178 -0.233,10.678 -7.429,12.302 z"
       style="fill:none;stroke:#231f20;stroke-width:0.5;stroke-linecap:round;stroke-linejoin:round;stroke-miterlimit:4;stroke-dasharray:2.8, 1.8;stroke-dashoffset:0;stroke-opacity:1"
       id="path96323" />
    <path
       d="m 524.629,598.338 c 1.445,-3.059 3.802,-1.014 5.623,0.886 2.282,2.381 7.428,3.482 9.748,3.482 2.321,0 7.466,-1.101 9.749,-3.482 1.821,-1.9 4.177,-3.945 5.622,-0.886"
       style="fill:none;stroke:#231f20;stroke-width:0.5;stroke-linecap:round;stroke-linejoin:round;stroke-miterlimit:4;stroke-dasharray:2.8, 1.8;stroke-dashoffset:0;stroke-opacity:1"
       id="path96325" />
    <path
       d="m 470.432,643.11 c -1.689,-3.733 -4.472,-9.534 -6.098,-12.088 -1.626,-2.553 -3.25,-5.106 -12.07,-0.232 -8.819,4.875 -9.051,10.911 -9.515,14.624 -0.466,3.712 0.416,10.437 5.545,13.806"
       style="fill:none;stroke:#231f20;stroke-width:0.5;stroke-linecap:round;stroke-linejoin:round;stroke-miterlimit:4;stroke-dasharray:2.8, 1.8;stroke-dashoffset:0;stroke-opacity:1"
       id="path96327" />
    <path
       d="m 484.991,547.232 c -0.233,1.858 -0.233,4.642 -11.837,23.21 -13.778,22.046 17.408,7.892 29.709,1.395 12.301,-6.498 31.101,-8.358 37.137,-8.358 6.036,0 24.836,1.86 37.138,8.358 12.301,6.497 43.488,20.651 29.709,-1.395 -11.605,-18.568 -11.605,-21.352 -11.838,-23.21"
       style="fill:none;stroke:#231f20;stroke-width:0.5;stroke-linecap:round;stroke-linejoin:round;stroke-miterlimit:4;stroke-dasharray:2.8, 1.8;stroke-dashoffset:0;stroke-opacity:1"
       id="path96329" />
    <path
       d="m 472.955,582.247 c -3.05,3.514 -10.247,13.262 -10.943,19.762 -0.696,6.499 -2.597,22.411 -12.092,30.239 -9.494,7.826 -17.849,9.218 -22.027,7.363 -4.178,-1.857 -7.196,-3.946 -7.893,-10.213 -0.538,-4.844 -1.064,-6.574 4.506,-14.233 5.571,-7.661 38.528,-35.059 49.971,-46.854"
       style="fill:none;stroke:#231f20;stroke-width:0.5;stroke-linecap:round;stroke-linejoin:round;stroke-miterlimit:4;stroke-dasharray:2.8, 1.8;stroke-dashoffset:0;stroke-opacity:1"
       id="path96331" />
    <path
       d="m 472.677,571.22 c -6.821,7.89 -22.504,25.682 -30.394,34.967 -7.891,9.285 -17.717,16.55 -13.268,33.807"
       style="fill:none;stroke:#231f20;stroke-width:0.5;stroke-linecap:round;stroke-linejoin:round;stroke-miterlimit:4;stroke-dasharray:2.8, 1.8;stroke-dashoffset:0;stroke-opacity:1"
       id="path96333" />
    <path
       d="m 489.087,543 c 1.311,-1.213 3.796,-1.803 5.653,-2.035 1.856,-0.231 6.034,-0.928 11.14,-2.553 5.108,-1.624 10.676,-2.786 16.481,-2.321 5.802,0.465 12.069,2.553 17.639,2.553 5.571,0 11.837,-2.088 17.639,-2.553 5.805,-0.465 11.374,0.697 16.481,2.321 5.107,1.625 9.285,2.322 11.141,2.553 1.857,0.232 4.341,0.822 5.653,2.035"
       style="fill:none;stroke:#231f20;stroke-width:0.5;stroke-linecap:round;stroke-linejoin:round;stroke-miterlimit:4;stroke-dasharray:2.8, 1.8;stroke-dashoffset:0;stroke-opacity:1"
       id="path96335" />
    <path
       d="m 497.525,690.674 c -0.711,-2.848 -5.106,-3.017 -13.694,-0.696 -8.588,2.32 -20.194,5.339 -27.389,10.444 -7.195,5.107 -9.747,9.517 -8.123,11.838 1.624,2.322 9.748,1.625 19.265,-3.481 9.515,-5.108 19.727,-10.445 23.441,-12.302 3.715,-1.857 6.964,-3.945 6.5,-5.803 z"
       style="fill:none;stroke:#231f20;stroke-width:0.5;stroke-linecap:round;stroke-linejoin:round;stroke-miterlimit:4;stroke-dasharray:2.8, 1.8;stroke-dashoffset:0;stroke-opacity:1"
       id="path96337" />
    <path
       d="m 478.844,691.335 c 3.362,-7.16 14.183,-15.396 15.156,-18.357"
       style="fill:none;stroke:#231f20;stroke-width:0.5;stroke-linecap:round;stroke-linejoin:round;stroke-miterlimit:4;stroke-dasharray:2.8, 1.8;stroke-dashoffset:0;stroke-opacity:1"
       id="path96339" />
    <path
       d="m 469.439,684.408 c 0,0 -9.981,4.641 -17.407,7.194 -7.428,2.554 -22.748,7.196 -29.943,15.088 -7.194,7.892 -9.283,16.478 -4.641,22.05 4.939,5.926 18.337,8.82 36.673,4.874"
       style="fill:none;stroke:#231f20;stroke-width:0.5;stroke-linecap:round;stroke-linejoin:round;stroke-miterlimit:4;stroke-dasharray:2.8, 1.8;stroke-dashoffset:0;stroke-opacity:1"
       id="path96341" />
    <path
       d="m 449.145,670.547 c -1.323,-0.465 1.959,-2.62 4.744,-4.476 2.785,-1.858 8.356,-3.249 11.605,-3.482 3.249,-0.233 6.5,-0.928 8.589,-2.321 2.088,-1.393 3.712,-3.714 6.73,-4.178 1.395,-0.215 7.196,1.624 11.838,2.785 4.641,1.162 8.588,-0.464 11.604,-0.928 3.017,-0.463 4.644,1.393 5.803,3.25 1.16,1.855 11.142,10.677 14.158,12.765 3.018,2.089 4.178,4.411 4.643,6.035 0.466,1.625 2.32,8.356 2.785,9.981 0.466,1.625 0.928,4.41 -0.465,5.106 -1.392,0.697 -4.409,-4.642 -4.874,-6.035 -0.463,-1.392 -2.784,-8.355 -3.944,-9.516 -1.161,-1.16 -7.892,-6.498 -9.517,-8.356 -1.626,-1.857 -3.715,-6.731 -7.196,-6.499 -3.482,0.233 -11.14,-0.465 -14.157,-1.392 -3.019,-0.929 -9.054,-2.554 -12.303,-1.393 -3.249,1.16 -11.606,5.107 -13.927,5.803 -2.32,0.696 -12.074,4.421 -13.229,3.945"
       style="fill:none;stroke:#231f20;stroke-width:0.5;stroke-linecap:round;stroke-linejoin:round;stroke-miterlimit:4;stroke-dasharray:2.8, 1.8;stroke-dashoffset:0;stroke-opacity:1"
       id="path96343" />
    <path
       d="m 610.561,684.408 c 0,0 -6.499,-0.929 -9.052,-2.323 -2.552,-1.392 -14.178,-7.445 -16.48,-9.979 -4.285,-4.718 4.874,-6.035 8.82,-3.946 3.947,2.089 35.048,14.622 41.547,17.175 6.5,2.554 21.818,9.053 31.567,13.927 9.748,4.874 18.335,16.247 18.568,24.139 0.233,7.892 -16.944,17.408 -21.353,19.265 -4.409,1.856 -17.176,5.803 -25.997,3.25 -8.819,-2.554 -22.978,-12.302 -29.013,-18.336 -6.034,-6.035 -14.35,-12.21 -21.586,-16.712 -5.591,-3.481 -13.229,-6.732 -18.8,-8.589 -5.571,-1.857 -11.839,-3.713 -13.232,-7.427 -1.392,-3.713 4.178,-10.213 7.198,-13.229 3.016,-3.018 10.212,-8.821 13.694,-10.678 3.481,-1.858 7.277,-0.585 7.89,0.232 0.697,0.929 -4.177,4.41 -7.66,5.803 -3.481,1.393 -10.212,3.945 -13.228,8.588 -3.02,4.641 -4.41,10.445 0.696,11.373 5.106,0.929 13.694,2.785 25.531,9.98 11.838,7.196 21.818,15.784 24.139,18.105 2.321,2.321 9.75,7.427 12.07,8.588 3.017,3.481 15.318,6.731 23.907,6.035 8.587,-0.696 16.945,-4.411 20.658,-9.517 3.713,-5.106 7.659,-11.373 3.249,-16.248 -4.41,-4.874 -12.302,-12.302 -25.068,-17.872 -12.766,-5.57 -22.977,-10.213 -26.923,-10.444 -3.948,-0.233 -11.142,-1.16 -11.142,-1.16 z"
       style="fill:none;stroke:#231f20;stroke-width:0.5;stroke-linecap:round;stroke-linejoin:round;stroke-miterlimit:4;stroke-dasharray:2.8, 1.8;stroke-dashoffset:0;stroke-opacity:1"
       id="path96345" />
    <path
       d="m 469.439,684.408 c 0,0 6.5,-0.929 9.053,-2.323 2.552,-1.392 14.177,-7.445 16.48,-9.979 4.285,-4.718 -4.874,-6.035 -8.821,-3.946 -3.946,2.089 -35.047,14.622 -41.547,17.175 -6.499,2.554 -21.818,9.053 -31.566,13.927 -9.749,4.874 -18.336,16.247 -18.569,24.139 -0.232,7.892 16.945,17.408 21.354,19.265 4.409,1.856 17.177,5.803 25.996,3.25 8.82,-2.554 22.978,-12.302 29.014,-18.336 6.034,-6.035 14.35,-12.21 21.585,-16.712 5.592,-3.481 13.23,-6.732 18.8,-8.589 5.572,-1.857 11.839,-3.713 13.232,-7.427 1.392,-3.713 -4.178,-10.213 -7.197,-13.229 -3.016,-3.018 -10.212,-8.821 -13.694,-10.678 -3.481,-1.858 -7.277,-0.585 -7.891,0.232 -0.696,0.929 4.178,4.41 7.66,5.803 3.481,1.393 10.213,3.945 13.228,8.588 3.02,4.641 4.411,10.445 -0.696,11.373 -5.106,0.929 -13.694,2.785 -25.531,9.98 -11.837,7.196 -21.817,15.784 -24.139,18.105 -2.321,2.321 -9.749,7.427 -12.069,8.588 -3.017,3.481 -15.319,6.731 -23.907,6.035 -8.588,-0.696 -16.945,-4.411 -20.658,-9.517 -3.713,-5.106 -7.66,-11.373 -3.249,-16.248 4.41,-4.874 12.301,-12.302 25.068,-17.872 12.766,-5.57 22.977,-10.213 26.923,-10.444 3.947,-0.233 11.141,-1.16 11.141,-1.16 z"
       style="fill:none;stroke:#231f20;stroke-width:0.5;stroke-linecap:round;stroke-linejoin:round;stroke-miterlimit:4;stroke-dasharray:2.8, 1.8;stroke-dashoffset:0;stroke-opacity:1"
       id="path96347" />
    <path
       d="m 610.561,684.408 c 0,0 9.981,4.641 17.408,7.194 7.427,2.554 22.747,7.196 29.942,15.088 7.194,7.892 9.283,16.478 4.641,22.05 -4.939,5.926 -18.337,8.82 -36.672,4.874"
       style="fill:none;stroke:#231f20;stroke-width:0.5;stroke-linecap:round;stroke-linejoin:round;stroke-miterlimit:4;stroke-dasharray:2.8, 1.8;stroke-dashoffset:0;stroke-opacity:1"
       id="path96349" />
    <path
       d="m 630.855,670.547 c 1.323,-0.465 -1.958,-2.62 -4.743,-4.476 -2.786,-1.858 -8.357,-3.249 -11.606,-3.482 -3.249,-0.233 -6.499,-0.928 -8.588,-2.321 -2.088,-1.393 -3.712,-3.714 -6.73,-4.178 -1.396,-0.215 -7.196,1.624 -11.838,2.785 -4.642,1.162 -8.589,-0.464 -11.604,-0.928 -3.017,-0.463 -4.644,1.393 -5.804,3.25 -1.16,1.855 -11.141,10.677 -14.157,12.765 -3.018,2.089 -4.178,4.411 -4.644,6.035 -0.465,1.625 -2.32,8.356 -2.785,9.981 -0.465,1.625 -0.928,4.41 0.465,5.106 1.393,0.697 4.409,-4.642 4.875,-6.035 0.462,-1.392 2.783,-8.355 3.943,-9.516 1.162,-1.16 7.893,-6.498 9.518,-8.356 1.625,-1.857 3.714,-6.731 7.196,-6.499 3.481,0.233 11.14,-0.465 14.157,-1.392 3.018,-0.929 9.054,-2.554 12.303,-1.393 3.249,1.16 11.606,5.107 13.926,5.803 2.32,0.696 12.074,4.421 13.23,3.945"
       style="fill:none;stroke:#231f20;stroke-width:0.5;stroke-linecap:round;stroke-linejoin:round;stroke-miterlimit:4;stroke-dasharray:2.8, 1.8;stroke-dashoffset:0;stroke-opacity:1"
       id="path96351" />
    <path
       d="m 486.151,668.16 c -3.017,-0.929 -11.427,-2.216 -17.202,-1.921"
       style="fill:none;stroke:#231f20;stroke-width:0.5;stroke-linecap:round;stroke-linejoin:round;stroke-miterlimit:4;stroke-dasharray:2.8, 1.8;stroke-dashoffset:0;stroke-opacity:1"
       id="path96353" />
    <path
       d="m 368.009,626.613 c 3.313,-0.815 3.714,-3.25 3.482,-6.733 -0.233,-3.481 -0.767,-19.637 3.249,-35.279 4.41,-17.176 13.778,-37.222 23.907,-47.35 9.981,-9.981 9.366,-17.937 4.219,-19.877"
       style="fill:none;stroke:#231f20;stroke-width:0.5;stroke-linecap:round;stroke-linejoin:round;stroke-miterlimit:4;stroke-dasharray:2.8, 1.8;stroke-dashoffset:0;stroke-opacity:1"
       id="path96355" />
    <path
       d="m 470.017,530.04 c -6.612,0.015 -14.969,-6.019 -22.164,-10.197 -7.194,-4.177 -22.412,-13.204 -29.078,-11.243"
       style="fill:none;stroke:#231f20;stroke-width:0.5;stroke-linecap:round;stroke-linejoin:round;stroke-miterlimit:4;stroke-dasharray:2.8, 1.8;stroke-dashoffset:0;stroke-opacity:1"
       id="path96357" />
    <path
       d="m 406.466,463.222 c 0.439,2.965 -2.946,10.897 -6.659,15.306 -3.713,4.412 -14.622,14.391 -20.193,16.945 -5.571,2.552 -18.568,11.604 -24.139,5.802 -5.57,-5.802 4.876,-14.622 6.5,-15.318 1.624,-0.697 16.246,-8.357 21.354,-13.231 5.106,-4.874 11.151,-9.618 12.474,-10.942 1.393,-1.393 9.575,-4.608 10.663,1.438"
       style="fill:none;stroke:#231f20;stroke-width:0.5;stroke-linecap:round;stroke-linejoin:round;stroke-miterlimit:4;stroke-dasharray:2.8, 1.8;stroke-dashoffset:0;stroke-opacity:1"
       id="path96359" />
    <path
       d="m 373.939,453.596 c -4.073,-2.456 -19.391,-5.241 -34.246,5.669 -14.856,10.907 -34.351,29.708 -41.083,36.671 -6.733,6.963 -21.355,25.532 -22.051,45.261 -0.688,19.491 5.989,37.324 8.542,47.072 2.553,9.748 6.118,24.67 3.895,30.578"
       style="fill:none;stroke:#231f20;stroke-width:0.5;stroke-linecap:round;stroke-linejoin:round;stroke-miterlimit:4;stroke-dasharray:2.8, 1.8;stroke-dashoffset:0;stroke-opacity:1"
       id="path96361" />
    <path
       d="m 298.61,495.936 c -5.107,-1.855 -32.352,-18.403 -31.147,-36.707"
       style="fill:none;stroke:#231f20;stroke-width:0.5;stroke-linecap:round;stroke-linejoin:round;stroke-miterlimit:4;stroke-dasharray:2.8, 1.8;stroke-dashoffset:0;stroke-opacity:1"
       id="path96363" />
    <path
       d="m 294.663,475.743 c -3.484,0.198 -6.267,-1.624 -6.731,-5.571 -0.464,-3.944 1.626,-16.712 4.411,-20.424 2.785,-3.713 4.409,-5.571 6.731,-5.571 2.321,0 4.641,3.715 5.57,10.213 0.929,6.499 2.32,20.656 -9.981,21.353 z"
       style="fill:none;stroke:#231f20;stroke-width:0.5;stroke-linecap:round;stroke-linejoin:round;stroke-miterlimit:4;stroke-dasharray:2.8, 1.8;stroke-dashoffset:0;stroke-opacity:1"
       id="path96365" />
    <path
       d="m 307.121,487.509 c -2.245,-3.177 -4.184,-13.303 -3.562,-17.294"
       style="fill:none;stroke:#231f20;stroke-width:0.5;stroke-linecap:round;stroke-linejoin:round;stroke-miterlimit:4;stroke-dasharray:2.8, 1.8;stroke-dashoffset:0;stroke-opacity:1"
       id="path96367" />
    <path
       d="m 300.668,444.77 c -1.13,-3.844 -0.898,-16.323 3.976,-26.306"
       style="fill:none;stroke:#231f20;stroke-width:0.5;stroke-linecap:round;stroke-linejoin:round;stroke-miterlimit:4;stroke-dasharray:2.8, 1.8;stroke-dashoffset:0;stroke-opacity:1"
       id="path96369" />
    <path
       d="m 340.375,458.778 c 2.428,-1.6 4.657,-6.011 2.799,-13.44 -1.857,-7.428 -9.271,-19.823 -32.714,-27.482"
       style="fill:none;stroke:#231f20;stroke-width:0.5;stroke-linecap:round;stroke-linejoin:round;stroke-miterlimit:4;stroke-dasharray:2.8, 1.8;stroke-dashoffset:0;stroke-opacity:1"
       id="path96371" />
    <path
       d="m 510.988,476.208 c -6.732,17.408 -0.234,30.869 4.41,39.225 4.642,8.356 20.425,6.963 24.602,6.963 4.178,0 19.961,1.393 24.603,-6.963 4.643,-8.356 11.141,-21.817 4.41,-39.225"
       style="fill:none;stroke:#231f20;stroke-width:0.5;stroke-linecap:round;stroke-linejoin:round;stroke-miterlimit:4;stroke-dasharray:2.8, 1.8;stroke-dashoffset:0;stroke-opacity:1"
       id="path96373" />
    <path
       d="m 516.336,516.817 c 1.614,5.115 -0.009,12.08 -5.348,15.097 -5.34,3.016 -16.512,6.304 -21.951,1.875"
       style="fill:none;stroke:#231f20;stroke-width:0.5;stroke-linecap:round;stroke-linejoin:round;stroke-miterlimit:4;stroke-dasharray:2.8, 1.8;stroke-dashoffset:0;stroke-opacity:1"
       id="path96375" />
    <path
       d="m 509.017,499.624 c -2.44,-6.008 -6.413,-13.385 -12.652,-14.133 -5.803,-0.697 -14.623,0.927 -15.32,6.732 -0.696,5.802 0,11.141 0.697,13.695"
       style="fill:none;stroke:#231f20;stroke-width:0.5;stroke-linecap:round;stroke-linejoin:round;stroke-miterlimit:4;stroke-dasharray:2.8, 1.8;stroke-dashoffset:0;stroke-opacity:1"
       id="path96377" />
    <path
       d="m 481.281,491.149 c -2.557,-2.639 -9.225,-7.173 -16.231,-5.025"
       style="fill:none;stroke:#231f20;stroke-width:0.5;stroke-linecap:round;stroke-linejoin:round;stroke-miterlimit:4;stroke-dasharray:2.8, 1.8;stroke-dashoffset:0;stroke-opacity:1"
       id="path96379" />
    <path
       d="m 540,461.12 c -4.177,0 -1.858,19.731 0,19.731 1.858,0 4.178,-19.731 0,-19.731 z"
       style="fill:none;stroke:#231f20;stroke-width:0.5;stroke-linecap:round;stroke-linejoin:round;stroke-miterlimit:4;stroke-dasharray:2.8, 1.8;stroke-dashoffset:0;stroke-opacity:1"
       id="path96381" />
    <path
       d="m 538.949,461.664 c -2.199,-0.31 -5.912,0.386 -11.017,4.564 -5.108,4.178 -14.159,9.515 -16.944,9.98"
       style="fill:none;stroke:#231f20;stroke-width:0.5;stroke-linecap:round;stroke-linejoin:round;stroke-miterlimit:4;stroke-dasharray:2.8, 1.8;stroke-dashoffset:0;stroke-opacity:1"
       id="path96383" />
    <path
       d="m 539,479.172 c -3.643,-0.179 -21.282,-2.733 -28.012,-2.964 -3.096,-0.109 -18.803,2.554 -26.23,4.409 -7.426,1.857 -30.046,8.547 -37.135,10.91 -6.964,2.32 -12.611,5.393 -15.785,7.89 -8.547,6.727 -22.282,14.856 -28.316,17.641 -6.035,2.785 -10.678,7.195 -18.104,12.301 -7.427,5.107 -16.016,14.855 -27.157,24.141 -11.141,9.284 -14.609,18.337 -15.783,31.101 -1.174,12.764 5.338,30.405 8.819,35.049 3.482,4.642 10.213,9.052 16.712,6.963 6.499,-2.089 15.552,-1.625 19.961,-0.233 4.409,1.393 5.803,7.892 5.571,12.301 -0.233,4.411 -4.178,9.053 -10.445,10.678 -6.267,1.625 -13.694,-0.464 -18.62,-3.415"
       style="fill:none;stroke:#231f20;stroke-width:0.5;stroke-linecap:round;stroke-linejoin:round;stroke-miterlimit:4;stroke-dasharray:2.8, 1.8;stroke-dashoffset:0;stroke-opacity:1"
       id="path96385" />
    <path
       d="m 531.283,463.84 c -1.958,-2.951 -5.442,-8.056 -22.617,-5.967 -17.175,2.088 -32.496,6.498 -37.833,7.89 -5.339,1.393 -15.552,3.482 -20.89,3.25 0,0 -32.485,8.617 -51.407,28.911"
       style="fill:none;stroke:#231f20;stroke-width:0.5;stroke-linecap:round;stroke-linejoin:round;stroke-miterlimit:4;stroke-dasharray:2.8, 1.8;stroke-dashoffset:0;stroke-opacity:1"
       id="path96387" />
    <path
       d="m 431.838,499.417 c -7.89,0.465 -16.247,0 -20.657,0 -4.41,0 -15.261,0.779 -20.042,3.817"
       style="fill:none;stroke:#231f20;stroke-width:0.5;stroke-linecap:round;stroke-linejoin:round;stroke-miterlimit:4;stroke-dasharray:2.8, 1.8;stroke-dashoffset:0;stroke-opacity:1"
       id="path96389" />
    <path
       d="m 517.235,473.39 c -3.928,-0.199 -9.731,-3.449 -17.157,-4.377 -7.427,-0.929 -21.274,-2.896 -28.16,-3.539"
       style="fill:none;stroke:#231f20;stroke-width:0.5;stroke-linecap:round;stroke-linejoin:round;stroke-miterlimit:4;stroke-dasharray:2.8, 1.8;stroke-dashoffset:0;stroke-opacity:1"
       id="path96391" />
    <path
       d="m 527.556,459.953 c 4.32,0.008 8.267,-1.154 8.267,-3.473 0,-2.323 -9.053,-5.34 -13.927,-4.644 -4.874,0.697 -13.695,3.482 -21.122,3.713 -7.427,0.235 -19.729,0.235 -21.354,0 -1.625,-0.231 -12.764,0.928 -18.568,1.858 -5.803,0.927 -9.98,2.785 -12.069,5.105 -2.089,2.323 -4.644,6.036 1.16,6.501"
       style="fill:none;stroke:#231f20;stroke-width:0.5;stroke-linecap:round;stroke-linejoin:round;stroke-miterlimit:4;stroke-dasharray:2.8, 1.8;stroke-dashoffset:0;stroke-opacity:1"
       id="path96393" />
    <path
       d="m 520.809,452.013 c 5.961,-2.265 7.121,-7.139 6.193,-9.925 -0.928,-2.785 -2.321,-10.445 -9.052,-16.943 -6.732,-6.501 -8.819,-6.269 -14.622,-7.428 -5.803,-1.162 -12.997,-3.251 -18.801,-1.393 -5.803,1.858 -9.517,6.499 -10.909,11.838 -1.393,5.339 -3.254,18.474 6.728,27.458"
       style="fill:none;stroke:#231f20;stroke-width:0.5;stroke-linecap:round;stroke-linejoin:round;stroke-miterlimit:4;stroke-dasharray:2.8, 1.8;stroke-dashoffset:0;stroke-opacity:1"
       id="path96395" />
    <path
       d="m 493.811,448.124 c 0,-3.718 3.222,-6.732 7.195,-6.732 3.974,0 7.196,3.014 7.196,6.732 0,3.718 -3.222,6.732 -7.196,6.732 -3.973,0 -7.195,-3.014 -7.195,-6.732 z"
       style="fill:none;stroke:#231f20;stroke-width:0.5;stroke-linecap:round;stroke-linejoin:round;stroke-miterlimit:4;stroke-dasharray:2.8, 1.8;stroke-dashoffset:0;stroke-opacity:1"
       id="path96397" />
    <path
       d="m 540.853,395.592 c -0.301,-1.868 -0.605,-3.565 -0.853,-4.8 -0.25,1.253 -0.56,2.986 -0.866,4.884"
       style="fill:none;stroke:#231f20;stroke-width:0.5;stroke-linecap:round;stroke-linejoin:round;stroke-miterlimit:4;stroke-dasharray:2.8, 1.8;stroke-dashoffset:0;stroke-opacity:1"
       id="path96399" />
    <path
       d="m 538.066,403.67 c -0.067,0.71 -0.122,1.374 -0.154,1.978 -0.232,4.178 -0.232,43.172 -0.232,47.35 0,4.178 1.393,7.194 2.32,7.194 0.928,0 2.321,-3.016 2.321,-7.194 0,-4.178 0,-43.172 -0.232,-47.35 -0.033,-0.604 -0.086,-1.268 -0.153,-1.978"
       style="fill:none;stroke:#231f20;stroke-width:0.5;stroke-linecap:round;stroke-linejoin:round;stroke-miterlimit:4;stroke-dasharray:2.8, 1.8;stroke-dashoffset:0;stroke-opacity:1"
       id="path96401" />
    <path
       d="m 528.163,343.118 c 1.627,-3.805 8.587,-1.996 11.837,-1.996 3.25,0 10.211,-1.809 11.837,1.996"
       style="fill:none;stroke:#231f20;stroke-width:0.5;stroke-linecap:round;stroke-linejoin:round;stroke-miterlimit:4;stroke-dasharray:2.8, 1.8;stroke-dashoffset:0;stroke-opacity:1"
       id="path96403" />
    <path
       d="m 527.932,365.724 c 0.808,0.818 8.587,-2.552 12.068,-1.624 3.482,-0.928 11.261,2.442 12.069,1.624"
       style="fill:none;stroke:#231f20;stroke-width:0.5;stroke-linecap:round;stroke-linejoin:round;stroke-miterlimit:4;stroke-dasharray:2.8, 1.8;stroke-dashoffset:0;stroke-opacity:1"
       id="path96405" />
    <path
       d="m 522.108,360.646 c -1.69,-1.175 -1.539,-12.018 1.098,-19.022"
       style="fill:none;stroke:#231f20;stroke-width:0.5;stroke-linecap:round;stroke-linejoin:round;stroke-miterlimit:4;stroke-dasharray:2.8, 1.8;stroke-dashoffset:0;stroke-opacity:1"
       id="path96407" />
    <path
       d="m 507.069,353.949 c -4.903,-1.686 -13.853,-6.98 -12.743,-13.385"
       style="fill:none;stroke:#231f20;stroke-width:0.5;stroke-linecap:round;stroke-linejoin:round;stroke-miterlimit:4;stroke-dasharray:2.8, 1.8;stroke-dashoffset:0;stroke-opacity:1"
       id="path96409" />
    <path
       d="m 531.414,406.344 c -2.721,4.872 -14.394,8.122 -25.07,1.624 -10.676,-6.498 -22.706,-21.673 -25.955,-32.348 -3.249,-10.679 5.762,-15.233 13.887,-15.466 7.67,-0.218 19.727,-0.695 29.94,11.375 10.214,12.068 12.768,24.836 7.198,34.815 z"
       style="fill:none;stroke:#231f20;stroke-width:0.5;stroke-linecap:round;stroke-linejoin:round;stroke-miterlimit:4;stroke-dasharray:2.8, 1.8;stroke-dashoffset:0;stroke-opacity:1"
       id="path96411" />
    <path
       d="m 529.509,378.981 c -5.524,3.224 -18.268,16.375 -16.886,31.731"
       style="fill:none;stroke:#231f20;stroke-width:0.5;stroke-linecap:round;stroke-linejoin:round;stroke-miterlimit:4;stroke-dasharray:2.8, 1.8;stroke-dashoffset:0;stroke-opacity:1"
       id="path96413" />
    <path
       d="m 514.71,363.85 c -0.008,7.444 -8.154,29.066 -19.865,34.272"
       style="fill:none;stroke:#231f20;stroke-width:0.5;stroke-linecap:round;stroke-linejoin:round;stroke-miterlimit:4;stroke-dasharray:2.8, 1.8;stroke-dashoffset:0;stroke-opacity:1"
       id="path96415" />
    <path
       d="m 457.194,349.638 c -2.841,2.394 -13.751,8.427 -16.304,9.82 -2.553,1.392 -10.382,5.937 -11.922,3.548"
       style="fill:none;stroke:#231f20;stroke-width:0.5;stroke-linecap:round;stroke-linejoin:round;stroke-miterlimit:4;stroke-dasharray:2.8, 1.8;stroke-dashoffset:0;stroke-opacity:1"
       id="path96417" />
    <path
       d="m 401.432,425.841 c -3.945,2.321 -9.98,4.641 -12.069,2.089 -1.843,-2.252 0.232,-7.428 5.803,-10.679 5.57,-3.247 11.838,-3.247 12.766,-1.158 0.928,2.089 -0.744,6.365 -6.5,9.748 z"
       style="fill:none;stroke:#231f20;stroke-width:0.5;stroke-linecap:round;stroke-linejoin:round;stroke-miterlimit:4;stroke-dasharray:2.8, 1.8;stroke-dashoffset:0;stroke-opacity:1"
       id="path96419" />
    <path
       d="m 343.854,449.979 c 3.249,0.233 14.174,-6.033 16.496,-11.838 2.321,-5.802 8.124,-20.89 10.677,-27.156 2.553,-6.267 6.033,-15.55 7.194,-18.336 1.162,-2.785 3.02,-11.837 -0.23,-15.318 -3.251,-3.482 -5.572,-12.3 -28.55,-20.425 -22.979,-8.125 -41.084,-11.144 -46.422,-12.303 -5.338,-1.161 -35.977,-5.105 -52.687,-2.554 -16.712,2.554 -31.799,7.198 -38.762,10.679 -6.963,3.481 -24.139,14.389 -36.209,35.278 -12.069,20.89 -20.89,39.691 -26.693,54.779 -5.802,15.088 -8.123,28.084 -4.177,28.084 3.945,0 5.338,-6.498 6.266,-8.587 0.929,-2.09 14.16,-38.53 18.337,-46.189 4.178,-7.66 13.927,-29.942 21.354,-37.138 7.427,-7.196 16.478,-16.013 38.761,-22.049 22.283,-6.036 37.139,-4.874 39.459,-4.874 2.32,0 5.106,-0.465 5.106,-3.482 0,-3.019 0.492,-7.092 -2.303,-7.183"
       style="fill:none;stroke:#231f20;stroke-width:0.5;stroke-linecap:round;stroke-linejoin:round;stroke-miterlimit:4;stroke-dasharray:2.8, 1.8;stroke-dashoffset:0;stroke-opacity:1"
       id="path96421" />
    <path
       d="m 332.474,429.536 c -2.887,-2.223 -4.619,-9.73 -4.851,-13.443 -0.233,-3.716 0.002,-10.214 5.106,-17.177 5.105,-6.963 19.095,-27.619 22.43,-39.804"
       style="fill:none;stroke:#231f20;stroke-width:0.5;stroke-linecap:round;stroke-linejoin:round;stroke-miterlimit:4;stroke-dasharray:2.8, 1.8;stroke-dashoffset:0;stroke-opacity:1"
       id="path96423" />
    <path
       d="m 377.944,393.327 c -0.808,2.045 -3.436,2.573 -5.061,1.642 -1.625,-0.927 -9.98,-5.336 -12.069,-6.266 -2.09,-0.928 -8.818,-5.337 -9.98,-6.963 -1.162,-1.624 -3.25,-7.429 -9.981,-8.587 -6.73,-1.162 -16.943,-1.624 -22.05,-2.555 -5.107,-0.928 -14.623,-2.32 -18.104,-2.32 -3.482,0 -12.767,-0.234 -15.552,-1.393 -2.785,-1.161 -12.516,-6.794 -12.168,-16.116"
       style="fill:none;stroke:#231f20;stroke-width:0.5;stroke-linecap:round;stroke-linejoin:round;stroke-miterlimit:4;stroke-dasharray:2.8, 1.8;stroke-dashoffset:0;stroke-opacity:1"
       id="path96425" />
    <path
       d="m 272.645,398.451 c -0.031,-7.195 2.99,-32.017 14.13,-31.114"
       style="fill:none;stroke:#231f20;stroke-width:0.5;stroke-linecap:round;stroke-linejoin:round;stroke-miterlimit:4;stroke-dasharray:2.8, 1.8;stroke-dashoffset:0;stroke-opacity:1"
       id="path96427" />
    <path
       d="m 306.5,368.754 c -3.481,-2.796 -3.712,-7.208 -3.249,-9.528 0.464,-2.32 2.405,-11.337 3.291,-13.907"
       style="fill:none;stroke:#231f20;stroke-width:0.5;stroke-linecap:round;stroke-linejoin:round;stroke-miterlimit:4;stroke-dasharray:2.8, 1.8;stroke-dashoffset:0;stroke-opacity:1"
       id="path96429" />
    <path
       d="m 287.236,424.449 c 2.295,0.35 4.411,-3.25 4.875,-5.109 0.463,-1.854 -0.002,-9.979 -2.322,-9.979 -2.321,0 -5.106,0.231 -5.106,4.874 0,4.643 -0.465,9.749 2.553,10.214 z"
       style="fill:none;stroke:#231f20;stroke-width:0.5;stroke-linecap:round;stroke-linejoin:round;stroke-miterlimit:4;stroke-dasharray:2.8, 1.8;stroke-dashoffset:0;stroke-opacity:1"
       id="path96431" />
    <path
       d="m 290.255,422.849 c 3.248,-2.116 10.908,-4.205 15.085,-4.435 4.178,-0.232 9.75,-1.163 13.463,-2.787 3.713,-1.623 8.587,-6.962 8.123,-9.283 -0.464,-2.322 -5.339,-2.32 -9.284,-1.392 -3.946,0.927 -11.373,3.016 -14.158,2.785 -2.785,-0.234 -10.581,0.065 -13.183,1.773"
       style="fill:none;stroke:#231f20;stroke-width:0.5;stroke-linecap:round;stroke-linejoin:round;stroke-miterlimit:4;stroke-dasharray:2.8, 1.8;stroke-dashoffset:0;stroke-opacity:1"
       id="path96433" />
    <path
       d="m 637.717,358.761 c 0.93,8.356 -8.82,8.356 -12.533,6.732 -3.713,-1.626 -11.606,-7.428 -21.586,-10.445 -2.517,-0.761 -4.99,-1.273 -7.426,-1.599"
       style="fill:none;stroke:#231f20;stroke-width:0.5;stroke-linecap:round;stroke-linejoin:round;stroke-miterlimit:4;stroke-dasharray:2.8, 1.8;stroke-dashoffset:0;stroke-opacity:1"
       id="path96435" />
    <path
       d="m 442.283,358.761 c -0.929,8.356 8.821,8.356 12.534,6.732 3.713,-1.626 11.606,-7.428 21.586,-10.445 2.517,-0.761 4.989,-1.273 7.426,-1.599"
       style="fill:none;stroke:#231f20;stroke-width:0.5;stroke-linecap:round;stroke-linejoin:round;stroke-miterlimit:4;stroke-dasharray:2.8, 1.8;stroke-dashoffset:0;stroke-opacity:1"
       id="path96437" />
    <path
       d="m 708.75,654.258 c 2.026,-3.681 4.236,-6.987 9.589,-10.248"
       style="fill:none;stroke:#231f20;stroke-width:0.5;stroke-linecap:round;stroke-linejoin:round;stroke-miterlimit:4;stroke-dasharray:2.8, 1.8;stroke-dashoffset:0;stroke-opacity:1"
       id="path96439" />
    <path
       d="m 371.25,654.258 c -2.016,-3.665 -4.215,-6.958 -9.517,-10.203"
       style="fill:none;stroke:#231f20;stroke-width:0.5;stroke-linecap:round;stroke-linejoin:round;stroke-miterlimit:4;stroke-dasharray:2.8, 1.8;stroke-dashoffset:0;stroke-opacity:1"
       id="path96441" />
    <path
       d="m 542.437,728.78 c 2.437,4.525 9.053,4.413 11.489,0.931"
       style="fill:none;stroke:#231f20;stroke-width:0.5;stroke-linecap:round;stroke-linejoin:round;stroke-miterlimit:4;stroke-dasharray:2.8, 1.8;stroke-dashoffset:0;stroke-opacity:1"
       id="path96443" />
    <path
       d="m 537.563,728.78 c -2.437,4.525 -9.052,4.402 -11.489,0.92"
       style="fill:none;stroke:#231f20;stroke-width:0.5;stroke-linecap:round;stroke-linejoin:round;stroke-miterlimit:4;stroke-dasharray:2.8, 1.8;stroke-dashoffset:0;stroke-opacity:1"
       id="path96445" />
    <path
       d="m 502.497,595.292 c -2.915,-4.214 -13.483,-4.208 -16.72,-1.376 -9.05,7.913 -17.708,21.013 -18.891,41.98"
       style="fill:none;stroke:#231f20;stroke-width:0.5;stroke-linecap:round;stroke-linejoin:round;stroke-miterlimit:4;stroke-dasharray:2.8, 1.8;stroke-dashoffset:0;stroke-opacity:1"
       id="path96447" />
    <path
       d="m 602.046,633.486 c -1.699,-5.481 -4.252,-11.98 -8.662,-15.694 -4.409,-3.713 -8.587,-7.427 -7.194,-12.998 0,0 -0.001,-5.57 -8.821,-9.981"
       style="fill:none;stroke:#231f20;stroke-width:0.5;stroke-linecap:round;stroke-linejoin:round;stroke-miterlimit:4;stroke-dasharray:2.8, 1.8;stroke-dashoffset:0;stroke-opacity:1"
       id="path96449" />
    <path
       d="m 577.503,595.292 c 2.916,-4.214 13.484,-4.208 16.72,-1.376 9.05,7.913 17.708,21.013 18.891,41.98"
       style="fill:none;stroke:#231f20;stroke-width:0.5;stroke-linecap:round;stroke-linejoin:round;stroke-miterlimit:4;stroke-dasharray:2.8, 1.8;stroke-dashoffset:0;stroke-opacity:1"
       id="path96451" />
    <path
       d="m 692.844,374.241 c 2.697,0.957 10.974,-0.194 14.186,-3.395 3.213,-3.202 5.772,-7.546 4.061,-14.958"
       style="fill:none;stroke:#231f20;stroke-width:0.5;stroke-linecap:round;stroke-linejoin:round;stroke-miterlimit:4;stroke-dasharray:2.8, 1.8;stroke-dashoffset:0;stroke-opacity:1"
       id="path96453" />
    <path
       d="m 387.157,374.241 c -2.697,0.957 -10.974,-0.194 -14.187,-3.395 -3.212,-3.202 -5.771,-7.546 -4.06,-14.958"
       style="fill:none;stroke:#231f20;stroke-width:0.5;stroke-linecap:round;stroke-linejoin:round;stroke-miterlimit:4;stroke-dasharray:2.8, 1.8;stroke-dashoffset:0;stroke-opacity:1"
       id="path96455" />
  </g>
</svg>
