<?xml version="1.0" encoding="UTF-8" standalone="no"?>
<!-- Created with Inkscape (http://www.inkscape.org/) -->

<svg
   version="1.1"
   id="svg107204"
   width="1440"
   height="1344"
   viewBox="0 0 1440 1344"
   xmlns="http://www.w3.org/2000/svg"
   xmlns:svg="http://www.w3.org/2000/svg">
  <defs
     id="defs107208" />
  <g
     id="g107212">
    <path
       d="m 540,331.036 c -5.487,0 -14.63,3.515 -22.674,4.218 -8.046,0.704 -6.582,5.979 -6.582,5.979 -2.195,-1.055 -8.778,-4.923 -19.018,-4.923 -10.24,0 -35.108,9.494 -43.154,14.417 -8.045,4.924 -27.794,20.747 -31.451,23.912 -3.656,3.164 -4.753,6.329 -4.753,6.329 -11.703,-1.055 -21.576,-0.703 -21.576,-0.703 -1.098,-15.12 -39.132,-33.055 -57.783,-40.79 -18.651,-7.736 -39.13,-7.736 -46.445,-8.088 -7.314,-0.351 -12.069,1.406 -17.92,1.406 -5.851,0 -11.337,-1.406 -18.285,-0.703 -6.948,0.703 -24.867,4.22 -49.37,15.473 -24.502,11.252 -35.839,33.055 -45.714,53.449 -9.874,20.395 -29.257,69.273 -34.741,91.778 -5.487,22.505 -1.098,26.022 0.73,33.406 1.829,7.385 -0.365,12.307 -4.021,16.879 -3.658,4.572 -8.046,18.988 -11.703,42.197 -3.658,23.208 3.291,64.703 11.703,94.241 8.411,29.537 42.056,88.965 81.551,129.755 39.498,40.791 114.832,76.307 175.906,83.691 61.072,7.384 114.099,2.814 137.506,-11.956 C 535.611,866.235 540,845.489 540,834.235 c 0,11.254 4.387,32 27.794,46.768 23.405,14.77 76.431,19.34 137.506,11.956 61.073,-7.384 136.408,-42.9 175.903,-83.691 39.497,-40.79 73.143,-100.218 81.553,-129.755 8.413,-29.538 15.36,-71.033 11.704,-94.241 -3.658,-23.209 -8.045,-37.625 -11.704,-42.197 -3.655,-4.572 -5.85,-9.494 -4.022,-16.879 1.83,-7.384 6.218,-10.901 0.731,-33.406 -5.483,-22.505 -24.869,-71.383 -34.743,-91.778 -9.873,-20.394 -21.21,-42.197 -45.712,-53.449 -24.505,-11.253 -42.421,-14.77 -49.371,-15.473 -6.946,-0.703 -12.432,0.703 -18.286,0.703 -5.851,0 -10.605,-1.757 -17.919,-1.406 -7.314,0.352 -27.793,0.352 -46.444,8.088 -18.652,7.735 -56.685,25.67 -57.782,40.79 0,0 -9.876,-0.352 -21.577,0.703 0,0 -1.096,-3.165 -4.755,-6.329 -3.656,-3.165 -23.405,-18.988 -31.449,-23.912 -8.048,-4.923 -32.914,-14.417 -43.155,-14.417 -10.238,0 -16.823,3.868 -19.016,4.923 0,0 1.464,-5.275 -6.585,-5.979 -8.043,-0.703 -17.187,-4.218 -22.671,-4.218 z m 0,346.601 c 0,-5.143 -0.246,-14.3 -7.802,-17.582 0,0 2.681,-2.578 7.802,-2.578 5.12,0 7.801,2.578 7.801,2.578 -7.558,3.282 -7.801,12.439 -7.801,17.582"
       style="fill:#ffffff;fill-opacity:1;fill-rule:nonzero;stroke:none;stroke-width:0.1"
       id="path107872" />
    <path
       d="m 540,331.036 c -5.487,0 -14.63,3.515 -22.674,4.218 -8.046,0.704 -6.582,5.979 -6.582,5.979 -2.195,-1.055 -8.778,-4.923 -19.018,-4.923 -10.24,0 -35.108,9.494 -43.154,14.417 -8.045,4.924 -27.794,20.747 -31.451,23.912 -3.656,3.164 -4.753,6.329 -4.753,6.329 -11.703,-1.055 -21.576,-0.703 -21.576,-0.703 -1.098,-15.12 -39.132,-33.055 -57.783,-40.79 -18.651,-7.736 -39.13,-7.736 -46.445,-8.088 -7.314,-0.351 -12.069,1.406 -17.92,1.406 -5.851,0 -11.337,-1.406 -18.285,-0.703 -6.948,0.703 -24.867,4.22 -49.37,15.473 -24.502,11.252 -35.839,33.055 -45.714,53.449 -9.874,20.395 -29.257,69.273 -34.741,91.778 -5.487,22.505 -1.098,26.022 0.73,33.406 1.829,7.385 -0.365,12.307 -4.021,16.879 -3.658,4.572 -8.046,18.988 -11.703,42.197 -3.658,23.208 3.291,64.703 11.703,94.241 8.411,29.537 42.056,88.965 81.551,129.755 39.498,40.791 114.832,76.307 175.906,83.691 61.072,7.384 114.099,2.814 137.506,-11.956 C 535.611,866.235 540,845.489 540,834.235 c 0,11.254 4.387,32 27.794,46.768 23.405,14.77 76.431,19.34 137.506,11.956 61.073,-7.384 136.408,-42.9 175.903,-83.691 39.497,-40.79 73.143,-100.218 81.553,-129.755 8.413,-29.538 15.36,-71.033 11.704,-94.241 -3.658,-23.209 -8.045,-37.625 -11.704,-42.197 -3.655,-4.572 -5.85,-9.494 -4.022,-16.879 1.83,-7.384 6.218,-10.901 0.731,-33.406 -5.483,-22.505 -24.869,-71.383 -34.743,-91.778 -9.873,-20.394 -21.21,-42.197 -45.712,-53.449 -24.505,-11.253 -42.421,-14.77 -49.371,-15.473 -6.946,-0.703 -12.432,0.703 -18.286,0.703 -5.851,0 -10.605,-1.757 -17.919,-1.406 -7.314,0.352 -27.793,0.352 -46.444,8.088 -18.652,7.735 -56.685,25.67 -57.782,40.79 0,0 -9.876,-0.352 -21.577,0.703 0,0 -1.096,-3.165 -4.755,-6.329 -3.656,-3.165 -23.405,-18.988 -31.449,-23.912 -8.048,-4.923 -32.914,-14.417 -43.155,-14.417 -10.238,0 -16.823,3.868 -19.016,4.923 0,0 1.464,-5.275 -6.585,-5.979 -8.043,-0.703 -17.187,-4.218 -22.671,-4.218 z m 0,346.601 c 0,-5.143 -0.246,-14.3 -7.802,-17.582 0,0 2.681,-2.578 7.802,-2.578 5.12,0 7.801,2.578 7.801,2.578 -7.558,3.282 -7.801,12.439 -7.801,17.582 z"
       style="fill:none;stroke:#231f20;stroke-width:0.75;stroke-linecap:round;stroke-linejoin:round;stroke-miterlimit:4;stroke-dasharray:none;stroke-opacity:1"
       id="path107874" />
    <path
       d="m 661.658,365.614 c 0,-1.813 -1.858,-3.283 -4.146,-3.283 -2.287,0 -4.144,1.47 -4.144,3.283 0,1.812 1.857,3.283 4.144,3.283 2.288,0 4.146,-1.471 4.146,-3.283"
       style="fill:#ffffff;fill-opacity:1;fill-rule:nonzero;stroke:none;stroke-width:0.1"
       id="path107876" />
    <path
       d="m 661.658,365.614 c 0,-1.813 -1.858,-3.283 -4.146,-3.283 -2.287,0 -4.144,1.47 -4.144,3.283 0,1.812 1.857,3.283 4.144,3.283 2.288,0 4.146,-1.471 4.146,-3.283 z"
       style="fill:none;stroke:#231f20;stroke-width:0.5;stroke-linecap:butt;stroke-linejoin:miter;stroke-miterlimit:4;stroke-dasharray:none;stroke-opacity:1"
       id="path107878" />
    <path
       d="m 418.34,365.614 c 0,-1.813 1.857,-3.283 4.146,-3.283 2.288,0 4.144,1.47 4.144,3.283 0,1.812 -1.856,3.283 -4.144,3.283 -2.289,0 -4.146,-1.471 -4.146,-3.283"
       style="fill:#ffffff;fill-opacity:1;fill-rule:nonzero;stroke:none;stroke-width:0.1"
       id="path107880" />
    <path
       d="m 418.34,365.614 c 0,-1.813 1.857,-3.283 4.146,-3.283 2.288,0 4.144,1.47 4.144,3.283 0,1.812 -1.856,3.283 -4.144,3.283 -2.289,0 -4.146,-1.471 -4.146,-3.283 z"
       style="fill:none;stroke:#231f20;stroke-width:0.5;stroke-linecap:butt;stroke-linejoin:miter;stroke-miterlimit:4;stroke-dasharray:none;stroke-opacity:1"
       id="path107882" />
    <path
       d="M 540,834.235 V 734.134"
       style="fill:none;stroke:#231f20;stroke-width:0.75;stroke-linecap:round;stroke-linejoin:round;stroke-miterlimit:4;stroke-dasharray:none;stroke-opacity:1"
       id="path107884" />
    <path
       d="m 557.005,736.848 c 8.107,0.568 14.202,3.616 20.785,8.069 6.582,4.455 11.946,11.02 14.628,16.176 2.678,5.157 5.364,15.003 14.873,21.333 9.505,6.33 24.869,9.612 39.007,8.205 14.141,-1.406 24.626,-5.392 27.064,-6.799 0,0 -18.042,1.642 -27.793,2.581 -9.754,0.936 -27.554,-1.408 -36.331,-8.675 -8.775,-7.267 -11.073,-15.491 -18.7,-19.819"
       style="fill:none;stroke:#231f20;stroke-width:0.5;stroke-linecap:butt;stroke-linejoin:miter;stroke-miterlimit:4;stroke-dasharray:none;stroke-opacity:1"
       id="path107886" />
    <path
       d="m 732.117,739.526 c 4.656,-8.428 9.754,-16.879 11.459,-27.428 1.708,-10.549 1.464,-12.658 5.364,-16.176 3.9,-3.516 15.604,-14.769 18.773,-18.285 3.169,-3.516 3.656,-5.626 3.901,-7.735 0,0 2.681,0.468 3.9,-0.236 0,0 0.242,1.876 1.219,2.814 0,0 -0.731,10.783 -0.731,17.582 0,6.799 0.731,10.549 -3.412,19.926 -4.145,9.379 -19.995,25.787 -28.769,34.462 -8.777,8.674 -27.306,20.863 -41.693,23.676 0,0 14.54,-7.379 20.48,-14.534 3.105,-3.741 6.8,-9.158 9.509,-14.066"
       style="fill:#706d6e;fill-opacity:1;fill-rule:nonzero;stroke:none;stroke-width:0.1"
       id="path107888" />
    <path
       d="m 732.117,739.526 c 4.656,-8.428 9.754,-16.879 11.459,-27.428 1.708,-10.549 1.464,-12.658 5.364,-16.176 3.9,-3.516 15.604,-14.769 18.773,-18.285 3.169,-3.516 3.656,-5.626 3.901,-7.735 0,0 2.681,0.468 3.9,-0.236 0,0 0.242,1.876 1.219,2.814 0,0 -0.731,10.783 -0.731,17.582 0,6.799 0.731,10.549 -3.412,19.926 -4.145,9.379 -19.995,25.787 -28.769,34.462 -8.777,8.674 -27.306,20.863 -41.693,23.676 0,0 14.54,-7.379 20.48,-14.534 3.105,-3.741 6.8,-9.158 9.509,-14.066 z"
       style="fill:none;stroke:#231f20;stroke-width:0.75;stroke-linecap:round;stroke-linejoin:round;stroke-miterlimit:4;stroke-dasharray:none;stroke-opacity:1"
       id="path107890" />
    <path
       d="m 543.194,720.577 c 0,-2.852 3.631,-4.728 10.213,-3.79 6.583,0.938 14.261,4.085 15.91,9.778"
       style="fill:none;stroke:#231f20;stroke-width:0.5;stroke-linecap:butt;stroke-linejoin:miter;stroke-miterlimit:4;stroke-dasharray:none;stroke-opacity:1"
       id="path107892" />
    <path
       d="m 554.144,657.489 c 1.651,-0.601 3.308,-1.116 4.872,-1.418 3.655,-0.703 8.046,-2.579 12.433,-2.112 4.39,0.47 9.754,1.407 15.36,0.47 5.609,-0.937 15.114,-3.048 21.213,-2.345 6.096,0.704 9.507,1.875 15.357,5.626 5.854,3.751 25.359,17.349 31.697,20.397 6.34,3.046 29.987,11.017 43.152,4.923 13.168,-6.096 15.604,-13.128 23.896,-17.818 8.288,-4.687 11.458,-10.08 17.796,-9.611 6.338,0.47 14.628,2.579 17.552,5.157 2.927,2.579 12.189,8.439 14.142,9.144"
       style="fill:none;stroke:#231f20;stroke-width:0.75;stroke-linecap:round;stroke-linejoin:round;stroke-miterlimit:4;stroke-dasharray:none;stroke-opacity:1"
       id="path107894" />
    <path
       d="m 650.587,685.606 c -0.388,-3.748 0.794,-6.266 2.764,-8.406"
       style="fill:none;stroke:#231f20;stroke-width:0.5;stroke-linecap:butt;stroke-linejoin:miter;stroke-miterlimit:4;stroke-dasharray:none;stroke-opacity:1"
       id="path107896" />
    <path
       d="m 555.238,657.105 c 3.536,-3.146 11.337,-8.303 14.751,-9.709 3.413,-1.407 16.088,-5.156 19.014,-5.392 2.927,-0.234 9.999,-2.812 14.142,-0.467 4.146,2.342 8.777,5.624 10.238,7.265 0,0 0.852,3.987 4.045,5.61"
       style="fill:none;stroke:#231f20;stroke-width:0.5;stroke-linecap:butt;stroke-linejoin:miter;stroke-miterlimit:4;stroke-dasharray:none;stroke-opacity:1"
       id="path107898" />
    <path
       d="m 605.34,510.021 c -4.208,-0.118 -8.048,-5.859 -7.072,-12.66 0.974,-6.796 3.414,-13.36 10.238,-11.719 6.83,1.64 8.536,4.69 7.804,10.55 -0.731,5.86 -2.682,14.064 -10.97,13.829 z"
       style="fill:none;stroke:#231f20;stroke-width:0.5;stroke-linecap:butt;stroke-linejoin:miter;stroke-miterlimit:4;stroke-dasharray:none;stroke-opacity:1"
       id="path107900" />
    <path
       d="m 622.164,427.738 c 4.912,2.023 9.748,-1.641 11.456,-6.331 1.709,-4.687 2.926,-9.376 -2.682,-12.189 -5.608,-2.813 -8.29,0.937 -10.482,5.156 -2.196,4.22 -3.414,11.252 1.708,13.364 z"
       style="fill:none;stroke:#231f20;stroke-width:0.5;stroke-linecap:butt;stroke-linejoin:miter;stroke-miterlimit:4;stroke-dasharray:none;stroke-opacity:1"
       id="path107902" />
    <path
       d="M 540,451.649 V 359.988"
       style="fill:none;stroke:#231f20;stroke-width:0.75;stroke-linecap:round;stroke-linejoin:round;stroke-miterlimit:4;stroke-dasharray:none;stroke-opacity:1"
       id="path107904" />
    <path
       d="m 553.897,344.986 c 3.413,0.703 12.938,-2.555 15.359,-3.753"
       style="fill:none;stroke:#231f20;stroke-width:0.5;stroke-linecap:butt;stroke-linejoin:miter;stroke-miterlimit:4;stroke-dasharray:none;stroke-opacity:1"
       id="path107906" />
    <path
       d="m 734.168,656.94 c -0.588,-3.214 1.607,-10.482 7.458,-13.295 5.85,-2.813 22.918,-9.142 26.819,-18.519 3.9,-9.378 5.606,-30.008 -1.953,-48.058 -7.556,-18.051 -20.234,-38.445 -25.353,-43.605 -5.119,-5.157 -17.31,-12.89 -24.137,-16.877 -6.828,-3.986 -11.947,-8.908 -19.26,-13.598 -7.315,-4.687 -19.264,-14.3 -24.138,-22.738 -4.874,-8.441 -5.119,-21.569 1.463,-30.711 6.583,-9.143 19.258,-11.957 26.33,-7.267 7.072,4.69 30.965,22.973 49.248,45.713 18.287,22.739 27.067,40.791 30.965,55.09 3.9,14.3 16.578,47.566 17.555,50.403 2.437,6.097 2.192,19.457 2.437,22.973 0.242,3.517 -0.245,9.379 3.169,16.411 3.413,7.033 3.413,10.55 1.708,17.346 -1.706,6.799 -8.535,18.286 -14.873,22.272 -6.338,3.985 -12.188,2.812 -14.873,0"
       style="fill:none;stroke:#231f20;stroke-width:0.5;stroke-linecap:butt;stroke-linejoin:miter;stroke-miterlimit:4;stroke-dasharray:none;stroke-opacity:1"
       id="path107908" />
    <path
       d="m 735.411,656.339 c 2.07,-4.255 5.483,-8.943 9.383,-10.115 3.904,-1.173 11.947,-1.642 15.847,-0.938 3.903,0.703 13.41,2.58 16.092,9.379 2.685,6.796 2.439,9.61 -1.219,15.001"
       style="fill:none;stroke:#231f20;stroke-width:0.5;stroke-linecap:butt;stroke-linejoin:miter;stroke-miterlimit:4;stroke-dasharray:none;stroke-opacity:1"
       id="path107910" />
    <path
       d="m 778.49,660.963 c -2.488,-1.141 -11.514,-7.788 -5.173,-10.795"
       style="fill:none;stroke:#231f20;stroke-width:0.5;stroke-linecap:butt;stroke-linejoin:miter;stroke-miterlimit:4;stroke-dasharray:none;stroke-opacity:1"
       id="path107912" />
    <path
       d="m 739.92,655.601 c 1.461,-2.578 3.901,-4.454 8.288,-4.923 4.387,-0.47 8.046,-0.703 9.754,-0.703 1.706,0 3.898,-2.111 2.679,-4.689"
       style="fill:none;stroke:#231f20;stroke-width:0.5;stroke-linecap:butt;stroke-linejoin:miter;stroke-miterlimit:4;stroke-dasharray:none;stroke-opacity:1"
       id="path107914" />
    <path
       d="m 748.208,650.678 c 1.931,-0.196 3.68,-5.264 -0.476,-5.094"
       style="fill:none;stroke:#231f20;stroke-width:0.5;stroke-linecap:butt;stroke-linejoin:miter;stroke-miterlimit:4;stroke-dasharray:none;stroke-opacity:1"
       id="path107916" />
    <path
       d="m 667.631,380.968 c 0.368,5.745 8.168,25.201 15.969,35.282 7.804,10.08 24.869,26.493 29.988,29.773 5.122,3.282 10.486,7.032 13.167,4.923 2.68,-2.111 -2.439,-10.55 -9.999,-23.913 -7.555,-13.363 -21.452,-38.913 -27.548,-46.768"
       style="fill:none;stroke:#231f20;stroke-width:0.5;stroke-linecap:butt;stroke-linejoin:miter;stroke-miterlimit:4;stroke-dasharray:none;stroke-opacity:1"
       id="path107918" />
    <path
       d="m 723.358,451.348 c -2.141,-0.782 -7.577,-5.093 -12.452,-10.482 -4.877,-5.393 -19.016,-21.569 -22.184,-30.242 -3.172,-8.672 -5.122,-15.708 -5.853,-18.285 0,0 -4.429,-4.257 -8.31,-11.856"
       style="fill:none;stroke:#231f20;stroke-width:0.5;stroke-linecap:butt;stroke-linejoin:miter;stroke-miterlimit:4;stroke-dasharray:none;stroke-opacity:1"
       id="path107920" />
    <path
       d="m 851.827,401.952 c 2.437,0.234 10.436,1.225 10.156,7.056"
       style="fill:none;stroke:#231f20;stroke-width:0.5;stroke-linecap:butt;stroke-linejoin:miter;stroke-miterlimit:4;stroke-dasharray:none;stroke-opacity:1"
       id="path107922" />
    <path
       d="m 768.932,480.25 c 2.793,-0.897 1.803,-13.149 -5.85,-10.55 -4.146,1.406 0.731,12.19 5.85,10.55 z"
       style="fill:none;stroke:#231f20;stroke-width:0.5;stroke-linecap:butt;stroke-linejoin:miter;stroke-miterlimit:4;stroke-dasharray:none;stroke-opacity:1"
       id="path107924" />
    <path
       d="M 304.728,702.252 C 257.674,688.89 234.755,611.293 227.685,590.43 c -7.069,-20.864 -8.046,-24.615 -9.508,-44.775 -1.463,-20.161 0.488,-30.945 0.976,-36.805 0.488,-5.86 -2.439,-17.818 -0.245,-29.774 1.481,-8.062 3.413,-16.642 2.681,-28.365 -0.336,-5.383 -2.681,-19.692 -3.169,-27.897 -0.486,-8.203 0.733,-15.94 -1.951,-15.706 -1.7,0.147 -0.487,7.033 -0.487,11.019 0,3.987 1.95,21.566 2.438,27.662 0.489,6.092 1.464,16.411 0,23.677 -1.462,7.267 -3.751,12.47 -2.438,24.146 1.95,17.347 -3.8,33.282 -2.925,47.12 2.682,42.431 8.532,57.434 22.429,98.928 13.898,41.493 46.08,81.581 66.071,103.382 19.994,21.802 43.887,35.399 70.461,42.666 26.575,7.267 62.901,12.425 83.623,12.66 20.723,0.234 27.553,-10.316 33.891,-23.912 6.339,-13.597 11.216,-20.161 14.628,-24.381 2.178,-2.694 7.406,-6.315 11.825,-9.143 2.504,-1.601 4.365,-2.902 6.218,-3.75 5.12,-2.344 13.896,-3.048 17.797,-3.048 3.898,0 12.675,0.704 17.794,3.048 1.853,0.848 3.716,2.149 6.218,3.75 4.42,2.828 9.649,6.449 11.827,9.143 3.413,4.22 8.29,10.784 14.628,24.381 6.338,13.596 13.167,24.146 33.889,23.912 20.724,-0.235 57.049,-5.393 83.626,-12.66 26.574,-7.267 50.467,-20.864 70.459,-42.666 19.992,-21.801 52.175,-61.889 66.071,-103.382 13.897,-41.494 19.747,-56.497 22.43,-98.928 0.876,-13.838 -4.877,-29.773 -2.927,-47.12 1.314,-11.676 -0.973,-16.879 -2.437,-24.146 -1.463,-7.266 -0.49,-17.585 0,-23.677 0.487,-6.096 2.437,-23.675 2.437,-27.662 0,-3.986 1.213,-10.872 -0.484,-11.019 -2.685,-0.234 -1.466,7.503 -1.953,15.706 -0.487,8.205 -2.834,22.514 -3.169,27.897 -0.732,11.723 1.202,20.303 2.682,28.365 2.195,11.956 -0.734,23.914 -0.245,29.774 0.489,5.86 2.44,16.644 0.977,36.805 -1.464,20.16 -2.441,23.911 -9.51,44.775 -7.068,20.863 -29.99,98.46 -77.041,111.822"
       style="fill:none;stroke:#231f20;stroke-width:0.5;stroke-linecap:butt;stroke-linejoin:miter;stroke-miterlimit:4;stroke-dasharray:none;stroke-opacity:1"
       id="path107926" />
    <path
       d="m 522.993,736.848 c -8.106,0.568 -14.201,3.616 -20.783,8.069 -6.584,4.455 -11.947,11.02 -14.627,16.176 -2.682,5.157 -5.366,15.003 -14.873,21.333 -9.509,6.33 -24.87,9.612 -39.009,8.205 -14.142,-1.406 -24.626,-5.392 -27.065,-6.799 0,0 18.044,1.642 27.796,2.581 9.751,0.936 27.551,-1.408 36.327,-8.675 8.778,-7.267 11.075,-15.491 18.703,-19.819"
       style="fill:none;stroke:#231f20;stroke-width:0.5;stroke-linecap:butt;stroke-linejoin:miter;stroke-miterlimit:4;stroke-dasharray:none;stroke-opacity:1"
       id="path107928" />
    <path
       d="m 377.87,768.126 c 1.952,0.938 7.314,3.986 22.429,7.267 21.517,4.671 38.034,3.986 50.711,-0.937 12.68,-4.922 17.798,-14.3 26.331,-23.677 8.535,-9.378 23.161,-18.051 30.476,-22.739 7.315,-4.69 29.013,-7.737 32.183,-7.737 3.169,0 24.867,3.047 32.18,7.737 7.315,4.688 21.943,13.361 30.476,22.739 8.535,9.377 13.654,18.755 26.332,23.677 12.678,4.923 29.193,5.608 50.712,0.937 15.115,-3.281 20.478,-6.329 22.428,-7.267"
       style="fill:none;stroke:#231f20;stroke-width:0.5;stroke-linecap:butt;stroke-linejoin:miter;stroke-miterlimit:4;stroke-dasharray:none;stroke-opacity:1"
       id="path107930" />
    <path
       d="m 347.882,739.526 c -4.655,-8.428 -9.756,-16.879 -11.461,-27.428 -1.704,-10.549 -1.461,-12.658 -5.362,-16.176 -3.9,-3.516 -15.605,-14.769 -18.773,-18.285 -3.169,-3.516 -3.657,-5.626 -3.901,-7.735 0,0 -2.683,0.468 -3.901,-0.236 0,0 -0.243,1.876 -1.218,2.814 0,0 0.73,10.783 0.73,17.582 0,6.799 -0.73,10.549 3.414,19.926 4.143,9.379 19.992,25.787 28.769,34.462 8.778,8.674 27.305,20.863 41.691,23.676 0,0 -14.539,-7.379 -20.48,-14.534 -3.106,-3.741 -6.796,-9.158 -9.508,-14.066"
       style="fill:#706d6e;fill-opacity:1;fill-rule:nonzero;stroke:none;stroke-width:0.1"
       id="path107932" />
    <path
       d="m 347.882,739.526 c -4.655,-8.428 -9.756,-16.879 -11.461,-27.428 -1.704,-10.549 -1.461,-12.658 -5.362,-16.176 -3.9,-3.516 -15.605,-14.769 -18.773,-18.285 -3.169,-3.516 -3.657,-5.626 -3.901,-7.735 0,0 -2.683,0.468 -3.901,-0.236 0,0 -0.243,1.876 -1.218,2.814 0,0 0.73,10.783 0.73,17.582 0,6.799 -0.73,10.549 3.414,19.926 4.143,9.379 19.992,25.787 28.769,34.462 8.778,8.674 27.305,20.863 41.691,23.676 0,0 -14.539,-7.379 -20.48,-14.534 -3.106,-3.741 -6.796,-9.158 -9.508,-14.066 z"
       style="fill:none;stroke:#231f20;stroke-width:0.75;stroke-linecap:round;stroke-linejoin:round;stroke-miterlimit:4;stroke-dasharray:none;stroke-opacity:1"
       id="path107934" />
    <path
       d="m 536.805,720.577 c 0,-2.852 -3.633,-4.728 -10.215,-3.79 -6.583,0.938 -14.259,4.085 -15.907,9.778"
       style="fill:none;stroke:#231f20;stroke-width:0.5;stroke-linecap:butt;stroke-linejoin:miter;stroke-miterlimit:4;stroke-dasharray:none;stroke-opacity:1"
       id="path107936" />
    <path
       d="m 431.996,684.436 c -6.096,3.281 -25.601,7.97 -42.668,10.314 -17.067,2.346 -28.282,8.44 -33.645,20.864 -5.364,12.425 -4.634,21.802 18.285,39.15 22.919,17.348 42.422,18.052 57.782,18.052 15.36,0 23.162,-3.985 32.67,-13.363 9.506,-9.377 25.843,-26.491 39.74,-36.572 13.896,-10.08 29.989,-13.128 35.84,-13.128 5.851,0 21.943,3.048 35.839,13.128 13.897,10.081 30.233,27.195 39.74,36.572 9.508,9.378 17.309,13.363 32.67,13.363 15.359,0 34.864,-0.704 57.78,-18.052 22.919,-17.348 23.65,-26.725 18.287,-39.15 -5.364,-12.424 -16.579,-18.518 -33.647,-20.864 -17.065,-2.344 -36.57,-7.033 -42.666,-10.314"
       style="fill:none;stroke:#231f20;stroke-width:0.5;stroke-linecap:butt;stroke-linejoin:miter;stroke-miterlimit:4;stroke-dasharray:none;stroke-opacity:1"
       id="path107938" />
    <path
       d="m 525.853,657.489 c -1.649,-0.601 -3.304,-1.116 -4.87,-1.418 -3.657,-0.703 -8.046,-2.579 -12.434,-2.112 -4.389,0.47 -9.754,1.407 -15.361,0.47 -5.605,-0.937 -15.114,-3.048 -21.21,-2.345 -6.096,0.704 -9.51,1.875 -15.36,5.626 -5.852,3.751 -25.356,17.349 -31.695,20.397 -6.339,3.046 -29.988,11.017 -43.154,4.923 -13.165,-6.096 -15.601,-13.128 -23.892,-17.818 -8.29,-4.687 -11.459,-10.08 -17.797,-9.611 -6.339,0.47 -14.63,2.579 -17.555,5.157 -2.926,2.579 -12.189,8.439 -14.14,9.144"
       style="fill:none;stroke:#231f20;stroke-width:0.75;stroke-linecap:round;stroke-linejoin:round;stroke-miterlimit:4;stroke-dasharray:none;stroke-opacity:1"
       id="path107940" />
    <path
       d="m 554.144,657.489 c -2.2,0.805 -4.39,1.762 -6.343,2.566 0,0 -2.681,-2.578 -7.801,-2.578 -5.121,0 -7.802,2.578 -7.802,2.578 -1.952,-0.804 -4.143,-1.761 -6.345,-2.566 0,0 -0.727,-5.169 0.005,-6.108 0.732,-0.937 2.926,-3.515 3.414,-5.86 0.487,-2.345 3.169,-3.517 5.119,-3.751 1.951,-0.233 3.658,-0.688 5.609,-0.688 1.951,0 3.656,0.455 5.609,0.688 1.95,0.234 4.63,1.406 5.119,3.751 0.487,2.345 2.679,4.923 3.411,5.86 0.732,0.939 0.005,6.108 0.005,6.108"
       style="fill:#706d6e;fill-opacity:1;fill-rule:nonzero;stroke:none;stroke-width:0.1"
       id="path107942" />
    <path
       d="m 554.144,657.489 c -2.2,0.805 -4.39,1.762 -6.343,2.566 0,0 -2.681,-2.578 -7.801,-2.578 -5.121,0 -7.802,2.578 -7.802,2.578 -1.952,-0.804 -4.143,-1.761 -6.345,-2.566 0,0 -0.727,-5.169 0.005,-6.108 0.732,-0.937 2.926,-3.515 3.414,-5.86 0.487,-2.345 3.169,-3.517 5.119,-3.751 1.951,-0.233 3.658,-0.688 5.609,-0.688 1.951,0 3.656,0.455 5.609,0.688 1.95,0.234 4.63,1.406 5.119,3.751 0.487,2.345 2.679,4.923 3.411,5.86 0.732,0.939 0.005,6.108 0.005,6.108 z"
       style="fill:none;stroke:#231f20;stroke-width:0.75;stroke-linecap:round;stroke-linejoin:round;stroke-miterlimit:4;stroke-dasharray:none;stroke-opacity:1"
       id="path107944" />
    <path
       d="m 429.413,685.606 c 0.387,-3.748 -0.796,-6.266 -2.765,-8.406"
       style="fill:none;stroke:#231f20;stroke-width:0.5;stroke-linecap:butt;stroke-linejoin:miter;stroke-miterlimit:4;stroke-dasharray:none;stroke-opacity:1"
       id="path107946" />
    <path
       d="m 524.761,657.105 c -3.535,-3.146 -11.337,-8.303 -14.75,-9.709 -3.413,-1.407 -16.091,-5.156 -19.016,-5.392 -2.927,-0.234 -9.997,-2.812 -14.142,-0.467 -4.143,2.342 -8.777,5.624 -10.239,7.265 0,0 -0.85,3.987 -4.043,5.61"
       style="fill:none;stroke:#231f20;stroke-width:0.5;stroke-linecap:butt;stroke-linejoin:miter;stroke-miterlimit:4;stroke-dasharray:none;stroke-opacity:1"
       id="path107948" />
    <path
       d="m 474.659,510.021 c 4.209,-0.118 8.048,-5.859 7.071,-12.66 -0.975,-6.796 -3.412,-13.36 -10.239,-11.719 -6.828,1.64 -8.535,4.69 -7.802,10.55 0.731,5.86 2.681,14.064 10.97,13.829 z"
       style="fill:none;stroke:#231f20;stroke-width:0.5;stroke-linecap:butt;stroke-linejoin:miter;stroke-miterlimit:4;stroke-dasharray:none;stroke-opacity:1"
       id="path107950" />
    <path
       d="m 457.836,427.738 c -4.915,2.023 -9.751,-1.641 -11.459,-6.331 -1.707,-4.687 -2.925,-9.376 2.682,-12.189 5.609,-2.813 8.291,0.937 10.485,5.156 2.195,4.22 3.412,11.252 -1.708,13.364 z"
       style="fill:none;stroke:#231f20;stroke-width:0.5;stroke-linecap:butt;stroke-linejoin:miter;stroke-miterlimit:4;stroke-dasharray:none;stroke-opacity:1"
       id="path107952" />
    <path
       d="m 540,359.988 c 0,-8.189 -13.898,-15.002 -13.898,-15.002 4.389,-2.11 9.509,-3.05 13.898,-3.05 4.387,0 9.506,0.94 13.897,3.05 0,0 -13.897,6.813 -13.897,15.002"
       style="fill:#706d6e;fill-opacity:1;fill-rule:nonzero;stroke:none;stroke-width:0.1"
       id="path107954" />
    <path
       d="m 540,359.988 c 0,-8.189 -13.898,-15.002 -13.898,-15.002 4.389,-2.11 9.509,-3.05 13.898,-3.05 4.387,0 9.506,0.94 13.897,3.05 0,0 -13.897,6.813 -13.897,15.002 z"
       style="fill:none;stroke:#231f20;stroke-width:0.75;stroke-linecap:round;stroke-linejoin:round;stroke-miterlimit:4;stroke-dasharray:none;stroke-opacity:1"
       id="path107956" />
    <path
       d="m 526.102,344.986 c -3.414,0.703 -12.939,-2.555 -15.358,-3.753"
       style="fill:none;stroke:#231f20;stroke-width:0.5;stroke-linecap:butt;stroke-linejoin:miter;stroke-miterlimit:4;stroke-dasharray:none;stroke-opacity:1"
       id="path107958" />
    <path
       d="m 345.831,656.94 c 0.587,-3.214 -1.606,-10.482 -7.458,-13.295 -5.851,-2.813 -22.919,-9.142 -26.82,-18.519 -3.898,-9.378 -5.605,-30.008 1.952,-48.058 7.556,-18.051 20.236,-38.445 25.356,-43.605 5.119,-5.157 17.308,-12.89 24.136,-16.877 6.827,-3.986 11.948,-8.908 19.261,-13.598 7.315,-4.687 19.261,-14.3 24.137,-22.738 4.875,-8.441 5.12,-21.569 -1.463,-30.711 -6.583,-9.143 -19.26,-11.957 -26.33,-7.267 -7.072,4.69 -30.965,22.973 -49.25,45.713 -18.285,22.739 -27.064,40.791 -30.963,55.09 -3.9,14.3 -16.577,47.566 -17.555,50.403 -2.439,6.097 -2.194,19.457 -2.437,22.973 -0.242,3.517 0.243,9.379 -3.169,16.411 -3.414,7.033 -3.414,10.55 -1.708,17.346 1.707,6.799 8.534,18.286 14.873,22.272 6.339,3.985 12.19,2.812 14.873,0"
       style="fill:none;stroke:#231f20;stroke-width:0.5;stroke-linecap:butt;stroke-linejoin:miter;stroke-miterlimit:4;stroke-dasharray:none;stroke-opacity:1"
       id="path107960" />
    <path
       d="m 344.588,656.339 c -2.07,-4.255 -5.484,-8.943 -9.385,-10.115 -3.901,-1.173 -11.946,-1.642 -15.847,-0.938 -3.9,0.703 -13.408,2.58 -16.09,9.379 -2.683,6.796 -2.438,9.61 1.218,15.001"
       style="fill:none;stroke:#231f20;stroke-width:0.5;stroke-linecap:butt;stroke-linejoin:miter;stroke-miterlimit:4;stroke-dasharray:none;stroke-opacity:1"
       id="path107962" />
    <path
       d="m 301.51,660.963 c 2.486,-1.141 11.512,-7.788 5.171,-10.795"
       style="fill:none;stroke:#231f20;stroke-width:0.5;stroke-linecap:butt;stroke-linejoin:miter;stroke-miterlimit:4;stroke-dasharray:none;stroke-opacity:1"
       id="path107964" />
    <path
       d="m 340.08,655.601 c -1.463,-2.578 -3.901,-4.454 -8.289,-4.923 -4.389,-0.47 -8.046,-0.703 -9.753,-0.703 -1.707,0 -3.901,-2.111 -2.682,-4.689"
       style="fill:none;stroke:#231f20;stroke-width:0.5;stroke-linecap:butt;stroke-linejoin:miter;stroke-miterlimit:4;stroke-dasharray:none;stroke-opacity:1"
       id="path107966" />
    <path
       d="m 331.791,650.678 c -1.932,-0.196 -3.681,-5.264 0.475,-5.094"
       style="fill:none;stroke:#231f20;stroke-width:0.5;stroke-linecap:butt;stroke-linejoin:miter;stroke-miterlimit:4;stroke-dasharray:none;stroke-opacity:1"
       id="path107968" />
    <path
       d="m 412.368,380.968 c -0.367,5.745 -8.168,25.201 -15.971,35.282 -7.801,10.08 -24.867,26.493 -29.987,29.773 -5.119,3.282 -10.485,7.032 -13.165,4.923 -2.683,-2.111 2.439,-10.55 9.997,-23.913 7.556,-13.363 21.453,-38.913 27.55,-46.768"
       style="fill:none;stroke:#231f20;stroke-width:0.5;stroke-linecap:butt;stroke-linejoin:miter;stroke-miterlimit:4;stroke-dasharray:none;stroke-opacity:1"
       id="path107970" />
    <path
       d="m 356.64,451.348 c 2.141,-0.782 7.577,-5.093 12.452,-10.482 4.876,-5.393 19.016,-21.569 22.186,-30.242 3.171,-8.672 5.119,-15.708 5.85,-18.285 0,0 4.429,-4.257 8.312,-11.856"
       style="fill:none;stroke:#231f20;stroke-width:0.5;stroke-linecap:butt;stroke-linejoin:miter;stroke-miterlimit:4;stroke-dasharray:none;stroke-opacity:1"
       id="path107972" />
    <path
       d="m 228.172,401.952 c -2.437,0.234 -10.436,1.225 -10.157,7.056"
       style="fill:none;stroke:#231f20;stroke-width:0.5;stroke-linecap:butt;stroke-linejoin:miter;stroke-miterlimit:4;stroke-dasharray:none;stroke-opacity:1"
       id="path107974" />
    <path
       d="m 311.067,480.25 c -2.795,-0.897 -1.805,-13.149 5.851,-10.55 4.143,1.406 -0.732,12.19 -5.851,10.55 z"
       style="fill:none;stroke:#231f20;stroke-width:0.5;stroke-linecap:butt;stroke-linejoin:miter;stroke-miterlimit:4;stroke-dasharray:none;stroke-opacity:1"
       id="path107976" />
    <path
       d="m 540,677.637 v 23.912"
       style="fill:none;stroke:#231f20;stroke-width:0.75;stroke-linecap:round;stroke-linejoin:round;stroke-miterlimit:4;stroke-dasharray:none;stroke-opacity:1"
       id="path107978" />
    <path
       d="m 544.678,415.311 c 6.782,2.816 10.68,4.692 23.116,3.52 12.432,-1.174 23.16,-8.441 31.206,-14.302 8.045,-5.861 12.68,-15.94 14.383,-22.27 1.708,-6.33 1.953,-17.376 -3.169,-24.644"
       style="fill:none;stroke:#231f20;stroke-width:0.25;stroke-linecap:butt;stroke-linejoin:miter;stroke-miterlimit:4;stroke-dasharray:none;stroke-opacity:1"
       id="path107980" />
    <path
       d="m 535.321,415.311 c -6.78,2.816 -10.681,4.692 -23.115,3.52 -12.435,-1.174 -23.162,-8.441 -31.207,-14.302 -8.046,-5.861 -12.679,-15.94 -14.385,-22.27 -1.707,-6.33 -1.951,-17.376 3.169,-24.644"
       style="fill:none;stroke:#231f20;stroke-width:0.25;stroke-linecap:butt;stroke-linejoin:miter;stroke-miterlimit:4;stroke-dasharray:none;stroke-opacity:1"
       id="path107982" />
    <path
       d="m 591.93,701.549 c 6.827,1.172 26.82,12.191 36.816,22.974"
       style="fill:none;stroke:#231f20;stroke-width:0.5;stroke-linecap:butt;stroke-linejoin:miter;stroke-miterlimit:4;stroke-dasharray:none;stroke-opacity:1"
       id="path107984" />
    <path
       d="m 488.068,701.549 c -6.827,1.172 -26.818,12.191 -36.814,22.974"
       style="fill:none;stroke:#231f20;stroke-width:0.5;stroke-linecap:butt;stroke-linejoin:miter;stroke-miterlimit:4;stroke-dasharray:none;stroke-opacity:1"
       id="path107986" />
    <path
       d="m 632.646,698.501 c 0,0 14.384,2.111 22.916,2.58 8.535,0.468 18.045,1.405 28.772,4.688 10.725,3.281 19.748,3.984 24.622,11.721 4.876,7.736 5.367,13.363 -0.487,18.285 -5.85,4.924 -14.87,10.784 -18.529,12.66 -3.658,1.875 -9.996,3.984 -11.217,2.109 -8.533,-0.469 -13.407,5.861 -15.357,7.97 -1.953,2.11 -11.947,5.158 -20.969,4.221 -9.02,-0.939 -15.356,-7.736 -24.382,-15.707 -9.019,-7.97 -28.035,-27.897 -36.081,-34.46 -8.045,-6.566 -20.226,-6.566 -23.16,-6.566 -3.536,0 -7.108,1.32 -5.364,1.642 6.338,1.173 11.832,1.966 16.334,3.047 6.827,1.641 12.922,6.8 23.65,17.114 10.725,10.315 23.218,21.037 31.506,29.712 8.288,8.674 23.367,8.849 29.934,7.796 8.777,-1.406 17.065,-3.751 21.697,-5.392 4.632,-1.64 9.019,-4.454 14.141,-6.564 5.12,-2.109 23.403,-8.673 26.084,-19.926 2.686,-11.253 -0.486,-22.036 -12.187,-26.725 -11.704,-4.688 -35.353,-9.61 -39.985,-10.548 -4.631,-0.939 -18.531,-1.875 -26.819,-4.22 -8.288,-2.345 -17.312,-7.736 -23.405,-11.722 -6.093,-3.985 -9.754,-1.876 -9.51,0.703 0.245,2.58 2.927,7.033 8.291,9.377 5.364,2.345 15.359,6.799 19.505,8.205"
       style="fill:#b2b1b1;fill-opacity:1;fill-rule:nonzero;stroke:none;stroke-width:0.1"
       id="path107988" />
    <path
       d="m 632.646,698.501 c 0,0 14.384,2.111 22.916,2.58 8.535,0.468 18.045,1.405 28.772,4.688 10.725,3.281 19.748,3.984 24.622,11.721 4.876,7.736 5.367,13.363 -0.487,18.285 -5.85,4.924 -14.87,10.784 -18.529,12.66 -3.658,1.875 -9.996,3.984 -11.217,2.109 -8.533,-0.469 -13.407,5.861 -15.357,7.97 -1.953,2.11 -11.947,5.158 -20.969,4.221 -9.02,-0.939 -15.356,-7.736 -24.382,-15.707 -9.019,-7.97 -28.035,-27.897 -36.081,-34.46 -8.045,-6.566 -20.226,-6.566 -23.16,-6.566 -3.536,0 -7.108,1.32 -5.364,1.642 6.338,1.173 11.832,1.966 16.334,3.047 6.827,1.641 12.922,6.8 23.65,17.114 10.725,10.315 23.218,21.037 31.506,29.712 8.288,8.674 23.367,8.849 29.934,7.796 8.777,-1.406 17.065,-3.751 21.697,-5.392 4.632,-1.64 9.019,-4.454 14.141,-6.564 5.12,-2.109 23.403,-8.673 26.084,-19.926 2.686,-11.253 -0.486,-22.036 -12.187,-26.725 -11.704,-4.688 -35.353,-9.61 -39.985,-10.548 -4.631,-0.939 -18.531,-1.875 -26.819,-4.22 -8.288,-2.345 -17.312,-7.736 -23.405,-11.722 -6.093,-3.985 -9.754,-1.876 -9.51,0.703 0.245,2.58 2.927,7.033 8.291,9.377 5.364,2.345 15.359,6.799 19.505,8.205 z"
       style="fill:none;stroke:#231f20;stroke-width:0.5;stroke-linecap:round;stroke-linejoin:round;stroke-miterlimit:4;stroke-dasharray:2.8, 1.8;stroke-dashoffset:0;stroke-opacity:1"
       id="path107990" />
    <path
       d="m 678.723,750.544 c -1.039,-1.602 6.83,-7.033 9.999,-8.908 3.168,-1.875 16.091,-10.08 13.897,-17.113 -2.196,-7.033 -6.093,-11.722 -22.675,-15.473 -16.578,-3.751 -35.838,-5.157 -47.298,-10.549"
       style="fill:none;stroke:#231f20;stroke-width:0.5;stroke-linecap:round;stroke-linejoin:round;stroke-miterlimit:4;stroke-dasharray:2.8, 1.8;stroke-dashoffset:0;stroke-opacity:1"
       id="path107992" />
    <path
       d="m 447.354,698.501 c 0,0 -14.385,2.111 -22.918,2.58 -8.532,0.468 -18.043,1.405 -28.77,4.688 -10.727,3.281 -19.748,3.984 -24.624,11.721 -4.874,7.736 -5.363,13.363 0.488,18.285 5.851,4.924 14.873,10.784 18.53,12.66 3.656,1.875 9.995,3.984 11.214,2.109 8.535,-0.469 13.41,5.861 15.36,7.97 1.951,2.11 11.947,5.158 20.967,4.221 9.021,-0.939 15.36,-7.736 24.382,-15.707 9.021,-7.97 28.037,-27.897 36.081,-34.46 8.047,-6.566 20.226,-6.566 23.162,-6.566 3.536,0 7.108,1.32 5.364,1.642 -6.338,1.173 -11.832,1.966 -16.334,3.047 -6.827,1.641 -12.923,6.8 -23.65,17.114 -10.727,10.315 -23.218,21.037 -31.506,29.712 -8.288,8.674 -23.369,8.849 -29.932,7.796 -8.778,-1.406 -17.067,-3.751 -21.699,-5.392 -4.634,-1.64 -9.02,-4.454 -14.141,-6.564 -5.12,-2.109 -23.405,-8.673 -26.086,-19.926 -2.684,-11.253 0.487,-22.036 12.189,-26.725 11.702,-4.688 35.351,-9.61 39.984,-10.548 4.632,-0.939 18.531,-1.875 26.818,-4.22 8.29,-2.345 17.313,-7.736 23.406,-11.722 6.094,-3.985 9.754,-1.876 9.509,0.703 -0.245,2.58 -2.927,7.033 -8.289,9.377 -5.365,2.345 -15.36,6.799 -19.505,8.205"
       style="fill:#b2b1b1;fill-opacity:1;fill-rule:nonzero;stroke:none;stroke-width:0.1"
       id="path107994" />
    <path
       d="m 447.354,698.501 c 0,0 -14.385,2.111 -22.918,2.58 -8.532,0.468 -18.043,1.405 -28.77,4.688 -10.727,3.281 -19.748,3.984 -24.624,11.721 -4.874,7.736 -5.363,13.363 0.488,18.285 5.851,4.924 14.873,10.784 18.53,12.66 3.656,1.875 9.995,3.984 11.214,2.109 8.535,-0.469 13.41,5.861 15.36,7.97 1.951,2.11 11.947,5.158 20.967,4.221 9.021,-0.939 15.36,-7.736 24.382,-15.707 9.021,-7.97 28.037,-27.897 36.081,-34.46 8.047,-6.566 20.226,-6.566 23.162,-6.566 3.536,0 7.108,1.32 5.364,1.642 -6.338,1.173 -11.832,1.966 -16.334,3.047 -6.827,1.641 -12.923,6.8 -23.65,17.114 -10.727,10.315 -23.218,21.037 -31.506,29.712 -8.288,8.674 -23.369,8.849 -29.932,7.796 -8.778,-1.406 -17.067,-3.751 -21.699,-5.392 -4.634,-1.64 -9.02,-4.454 -14.141,-6.564 -5.12,-2.109 -23.405,-8.673 -26.086,-19.926 -2.684,-11.253 0.487,-22.036 12.189,-26.725 11.702,-4.688 35.351,-9.61 39.984,-10.548 4.632,-0.939 18.531,-1.875 26.818,-4.22 8.29,-2.345 17.313,-7.736 23.406,-11.722 6.094,-3.985 9.754,-1.876 9.509,0.703 -0.245,2.58 -2.927,7.033 -8.289,9.377 -5.365,2.345 -15.36,6.799 -19.505,8.205 z"
       style="fill:none;stroke:#231f20;stroke-width:0.5;stroke-linecap:round;stroke-linejoin:round;stroke-miterlimit:4;stroke-dasharray:2.8, 1.8;stroke-dashoffset:0;stroke-opacity:1"
       id="path107996" />
    <path
       d="m 544.129,734.314 c 1.722,3.338 4.703,5.729 10.039,1.602"
       style="fill:none;stroke:#231f20;stroke-width:0.5;stroke-linecap:round;stroke-linejoin:round;stroke-miterlimit:4;stroke-dasharray:2.8, 1.8;stroke-dashoffset:0;stroke-opacity:1"
       id="path107998" />
    <path
       d="M 540.242,839.159 602.735,792.18"
       style="fill:none;stroke:#231f20;stroke-width:0.5;stroke-linecap:round;stroke-linejoin:round;stroke-miterlimit:4;stroke-dasharray:2.8, 1.8;stroke-dashoffset:0;stroke-opacity:1"
       id="path108000" />
    <path
       d="m 585.041,888.572 24.526,-92.513"
       style="fill:none;stroke:#231f20;stroke-width:0.5;stroke-linecap:round;stroke-linejoin:round;stroke-miterlimit:4;stroke-dasharray:2.8, 1.8;stroke-dashoffset:0;stroke-opacity:1"
       id="path108002" />
    <path
       d="m 625.202,895.515 1.846,-97.204"
       style="fill:none;stroke:#231f20;stroke-width:0.5;stroke-linecap:round;stroke-linejoin:round;stroke-miterlimit:4;stroke-dasharray:2.8, 1.8;stroke-dashoffset:0;stroke-opacity:1"
       id="path108004" />
    <path
       d="M 661.429,896.281 653.351,796.122"
       style="fill:none;stroke:#231f20;stroke-width:0.5;stroke-linecap:round;stroke-linejoin:round;stroke-miterlimit:4;stroke-dasharray:2.8, 1.8;stroke-dashoffset:0;stroke-opacity:1"
       id="path108006" />
    <path
       d="M 791.946,867.939 745.969,769.651"
       style="fill:none;stroke:#231f20;stroke-width:0.5;stroke-linecap:round;stroke-linejoin:round;stroke-miterlimit:4;stroke-dasharray:2.8, 1.8;stroke-dashoffset:0;stroke-opacity:1"
       id="path108008" />
    <path
       d="m 759.477,760.457 53.276,97.525"
       style="fill:none;stroke:#231f20;stroke-width:0.5;stroke-linecap:round;stroke-linejoin:round;stroke-miterlimit:4;stroke-dasharray:2.8, 1.8;stroke-dashoffset:0;stroke-opacity:1"
       id="path108010" />
    <path
       d="M 831.377,669.795 947.492,715.6"
       style="fill:none;stroke:#231f20;stroke-width:0.5;stroke-linecap:round;stroke-linejoin:round;stroke-miterlimit:4;stroke-dasharray:2.8, 1.8;stroke-dashoffset:0;stroke-opacity:1"
       id="path108012" />
    <path
       d="m 844.512,639.66 117.932,40.922"
       style="fill:none;stroke:#231f20;stroke-width:0.5;stroke-linecap:round;stroke-linejoin:round;stroke-miterlimit:4;stroke-dasharray:2.8, 1.8;stroke-dashoffset:0;stroke-opacity:1"
       id="path108014" />
    <path
       d="m 861.48,583.871 113.971,14.761"
       style="fill:none;stroke:#231f20;stroke-width:0.5;stroke-linecap:round;stroke-linejoin:round;stroke-miterlimit:4;stroke-dasharray:2.8, 1.8;stroke-dashoffset:0;stroke-opacity:1"
       id="path108016" />
    <path
       d="m 865.272,560.286 104.962,3.148"
       style="fill:none;stroke:#231f20;stroke-width:0.5;stroke-linecap:round;stroke-linejoin:round;stroke-miterlimit:4;stroke-dasharray:2.8, 1.8;stroke-dashoffset:0;stroke-opacity:1"
       id="path108018" />
    <path
       d="m 866.909,533.955 91.444,0.272"
       style="fill:none;stroke:#231f20;stroke-width:0.5;stroke-linecap:round;stroke-linejoin:round;stroke-miterlimit:4;stroke-dasharray:2.8, 1.8;stroke-dashoffset:0;stroke-opacity:1"
       id="path108020" />
    <path
       d="m 863.729,497.016 c 6.871,-8.094 25.389,-14.383 89.82,-23.895"
       style="fill:none;stroke:#231f20;stroke-width:0.5;stroke-linecap:round;stroke-linejoin:round;stroke-miterlimit:4;stroke-dasharray:2.8, 1.8;stroke-dashoffset:0;stroke-opacity:1"
       id="path108022" />
    <path
       d="m 867.276,493.805 c 7.345,-9.102 20.512,-29.849 22.34,-40.399 1.828,-10.548 3.291,-26.021 -2.924,-27.78 -6.219,-1.758 -19.634,-2.128 -25.361,23.201"
       style="fill:none;stroke:#231f20;stroke-width:0.5;stroke-linecap:round;stroke-linejoin:round;stroke-miterlimit:4;stroke-dasharray:2.8, 1.8;stroke-dashoffset:0;stroke-opacity:1"
       id="path108024" />
    <path
       d="m 664.449,763.393 -1.086,-4.879"
       style="fill:none;stroke:#231f20;stroke-width:0.5;stroke-linecap:round;stroke-linejoin:round;stroke-miterlimit:4;stroke-dasharray:2.8, 1.8;stroke-dashoffset:0;stroke-opacity:1"
       id="path108026" />
    <path
       d="m 687.604,754.73 c 0,0 -0.471,-3.179 -1.263,-4.737"
       style="fill:none;stroke:#231f20;stroke-width:0.5;stroke-linecap:round;stroke-linejoin:round;stroke-miterlimit:4;stroke-dasharray:2.8, 1.8;stroke-dashoffset:0;stroke-opacity:1"
       id="path108028" />
    <path
       d="m 554.383,689.124 c 0.735,-5.861 2.645,-8.214 5.365,-9.611 4.354,-2.236 12.435,-4.454 24.381,-0.47 11.944,3.987 21.94,11.487 26.575,14.77 4.632,3.282 19.503,11.956 23.403,13.831 3.903,1.876 9.754,3.282 9.022,5.627 -0.732,2.343 -8.291,0 -13.165,-2.814 -4.877,-2.813 -17.068,-9.611 -20.481,-12.659 -3.411,-3.048 -5.141,-5.111 -12.92,-8.908 -7.01,-3.422 -14.939,-6.567 -23.895,-7.971 -7.698,-1.207 -15.358,-0.702 -18.285,8.205"
       style="fill:#b2b1b1;fill-opacity:1;fill-rule:nonzero;stroke:none;stroke-width:0.1"
       id="path108030" />
    <path
       d="m 554.383,689.124 c 0.735,-5.861 2.645,-8.214 5.365,-9.611 4.354,-2.236 12.435,-4.454 24.381,-0.47 11.944,3.987 21.94,11.487 26.575,14.77 4.632,3.282 19.503,11.956 23.403,13.831 3.903,1.876 9.754,3.282 9.022,5.627 -0.732,2.343 -8.291,0 -13.165,-2.814 -4.877,-2.813 -17.068,-9.611 -20.481,-12.659 -3.411,-3.048 -5.141,-5.111 -12.92,-8.908 -7.01,-3.422 -14.939,-6.567 -23.895,-7.971 -7.698,-1.207 -15.358,-0.702 -18.285,8.205 z"
       style="fill:none;stroke:#231f20;stroke-width:0.5;stroke-linecap:round;stroke-linejoin:round;stroke-miterlimit:4;stroke-dasharray:2.8, 1.8;stroke-dashoffset:0;stroke-opacity:1"
       id="path108032" />
    <path
       d="m 637.422,709.048 c -8.04,-4.775 -24.749,-13.864 -30.553,-23.244"
       style="fill:none;stroke:#231f20;stroke-width:0.5;stroke-linecap:round;stroke-linejoin:round;stroke-miterlimit:4;stroke-dasharray:2.8, 1.8;stroke-dashoffset:0;stroke-opacity:1"
       id="path108034" />
    <path
       d="m 604.739,679.279 c 0.003,-3.188 1.327,-6.485 5.475,-4.69 4.877,2.112 23.893,10.08 29.989,9.377"
       style="fill:none;stroke:#231f20;stroke-width:0.5;stroke-linecap:round;stroke-linejoin:round;stroke-miterlimit:4;stroke-dasharray:2.8, 1.8;stroke-dashoffset:0;stroke-opacity:1"
       id="path108036" />
    <path
       d="m 542.924,704.362 c -0.487,-0.703 2.865,-3.801 3.658,-9.143 0.974,-6.563 0.468,-13.828 0.243,-15.706 -0.365,-3.048 1.464,-4.924 4.145,-5.392 1.934,-0.339 9.751,-2.579 12.436,-3.986 2.681,-1.406 5.364,-3.984 6.583,-3.984 1.218,0 4.629,1.404 10.724,1.639 6.096,0.236 11.217,-1.17 14.873,-2.342 3.656,-1.173 7.638,-0.797 9.754,0.936 3.291,2.698 6.46,3.868 9.751,3.518 2.182,-0.235 4.39,-0.705 9.996,2.578 5.609,3.282 16.824,8.439 18.285,9.143 1.465,0.703 4.877,1.64 4.631,2.813 -0.242,1.171 -6.58,0.235 -11.214,-1.642 -4.632,-1.875 -16.091,-7.032 -21.698,-8.908 -5.608,-1.875 -12.923,-5.392 -19.505,-4.22 -6.583,1.172 -16.578,3.284 -20.723,2.814 -4.143,-0.469 -7.069,0.703 -10.487,2.109 -3.407,1.407 -6.824,2.815 -9.505,3.518 -2.68,0.703 -3.656,2.812 -4.143,7.735 -0.489,4.923 -0.248,17.348 -7.804,18.52"
       style="fill:#b2b1b1;fill-opacity:1;fill-rule:nonzero;stroke:none;stroke-width:0.1"
       id="path108038" />
    <path
       d="m 542.924,704.362 c -0.487,-0.703 2.865,-3.801 3.658,-9.143 0.974,-6.563 0.468,-13.828 0.243,-15.706 -0.365,-3.048 1.464,-4.924 4.145,-5.392 1.934,-0.339 9.751,-2.579 12.436,-3.986 2.681,-1.406 5.364,-3.984 6.583,-3.984 1.218,0 4.629,1.404 10.724,1.639 6.096,0.236 11.217,-1.17 14.873,-2.342 3.656,-1.173 7.638,-0.797 9.754,0.936 3.291,2.698 6.46,3.868 9.751,3.518 2.182,-0.235 4.39,-0.705 9.996,2.578 5.609,3.282 16.824,8.439 18.285,9.143 1.465,0.703 4.877,1.64 4.631,2.813 -0.242,1.171 -6.58,0.235 -11.214,-1.642 -4.632,-1.875 -16.091,-7.032 -21.698,-8.908 -5.608,-1.875 -12.923,-5.392 -19.505,-4.22 -6.583,1.172 -16.578,3.284 -20.723,2.814 -4.143,-0.469 -7.069,0.703 -10.487,2.109 -3.407,1.407 -6.824,2.815 -9.505,3.518 -2.68,0.703 -3.656,2.812 -4.143,7.735 -0.489,4.923 -0.248,17.348 -7.804,18.52 z"
       style="fill:none;stroke:#231f20;stroke-width:0.5;stroke-linecap:round;stroke-linejoin:round;stroke-miterlimit:4;stroke-dasharray:2.8, 1.8;stroke-dashoffset:0;stroke-opacity:1"
       id="path108040" />
    <path
       d="m 550.461,644.734 c 2.459,-3.197 10.018,-9.06 13.676,-6.245 3.657,2.812 3.117,8.351 3.145,10.27"
       style="fill:none;stroke:#231f20;stroke-width:0.5;stroke-linecap:round;stroke-linejoin:round;stroke-miterlimit:4;stroke-dasharray:2.8, 1.8;stroke-dashoffset:0;stroke-opacity:1"
       id="path108042" />
    <path
       d="m 564.137,638.489 c 1.706,-2.815 9.02,-4.221 15.358,-3.751 6.34,0.468 13.379,0.421 19.733,5.837"
       style="fill:none;stroke:#231f20;stroke-width:0.5;stroke-linecap:round;stroke-linejoin:round;stroke-miterlimit:4;stroke-dasharray:2.8, 1.8;stroke-dashoffset:0;stroke-opacity:1"
       id="path108044" />
    <path
       d="m 558.526,633.096 c 0.979,1.875 5.383,3.595 10.107,2.672"
       style="fill:none;stroke:#231f20;stroke-width:0.5;stroke-linecap:round;stroke-linejoin:round;stroke-miterlimit:4;stroke-dasharray:2.8, 1.8;stroke-dashoffset:0;stroke-opacity:1"
       id="path108046" />
    <path
       d="m 552.599,609.442 c -0.408,-5.181 -0.166,-21.357 4.953,-24.873 5.119,-3.516 16.976,-4.396 20.39,-2.285 3.413,2.109 11.061,11.665 16.184,20.338 5.116,8.671 13.165,33.052 9.019,38.915"
       style="fill:none;stroke:#231f20;stroke-width:0.5;stroke-linecap:round;stroke-linejoin:round;stroke-miterlimit:4;stroke-dasharray:2.8, 1.8;stroke-dashoffset:0;stroke-opacity:1"
       id="path108048" />
    <path
       d="m 654.197,677.661 c 3.073,-4.478 10.387,-16.667 -0.829,-60.272"
       style="fill:none;stroke:#231f20;stroke-width:0.5;stroke-linecap:round;stroke-linejoin:round;stroke-miterlimit:4;stroke-dasharray:2.8, 1.8;stroke-dashoffset:0;stroke-opacity:1"
       id="path108050" />
    <path
       d="m 577.942,582.284 c -0.259,-1.874 5.453,-4.982 10.817,-4.982 5.367,0 18.529,3.048 27.796,11.019 9.264,7.971 14.032,18.524 14.628,26.723 0.729,10.082 -6.517,16.889 -15.132,24.246"
       style="fill:none;stroke:#231f20;stroke-width:0.5;stroke-linecap:round;stroke-linejoin:round;stroke-miterlimit:4;stroke-dasharray:2.8, 1.8;stroke-dashoffset:0;stroke-opacity:1"
       id="path108052" />
    <path
       d="m 613.522,649.301 c -0.626,-2.608 -0.139,-6.36 1.814,-8.938"
       style="fill:none;stroke:#231f20;stroke-width:0.5;stroke-linecap:round;stroke-linejoin:round;stroke-miterlimit:4;stroke-dasharray:2.8, 1.8;stroke-dashoffset:0;stroke-opacity:1"
       id="path108054" />
    <path
       d="m 644.437,622.941 c 3.079,-1.567 11.128,-6.723 12.102,-7.661 0.973,-0.939 3.656,-2.58 0.731,-5.158 -2.927,-2.578 -13.898,-14.755 -21.577,-21.091"
       style="fill:none;stroke:#231f20;stroke-width:0.5;stroke-linecap:round;stroke-linejoin:round;stroke-miterlimit:4;stroke-dasharray:2.8, 1.8;stroke-dashoffset:0;stroke-opacity:1"
       id="path108056" />
    <path
       d="m 658.054,610.966 c 5.309,6.658 23.109,24.708 54.56,34.085"
       style="fill:none;stroke:#231f20;stroke-width:0.5;stroke-linecap:round;stroke-linejoin:round;stroke-miterlimit:4;stroke-dasharray:2.8, 1.8;stroke-dashoffset:0;stroke-opacity:1"
       id="path108058" />
    <path
       d="m 721.139,665.798 c -6.819,-3.633 -9.501,-10.9 -9.743,-13.948 -0.245,-3.048 1.702,-12.658 15.114,-18.754 13.41,-6.096 24.867,-7.033 26.33,-21.099 1.463,-14.065 -2.926,-26.724 -4.632,-33.288 -1.706,-6.564 -3.9,-20.16 -10.483,-31.648 -6.582,-11.486 -13.651,-21.334 -51.198,-40.087 C 648.98,488.219 601.44,478.801 579.495,475.989"
       style="fill:none;stroke:#231f20;stroke-width:0.5;stroke-linecap:round;stroke-linejoin:round;stroke-miterlimit:4;stroke-dasharray:2.8, 1.8;stroke-dashoffset:0;stroke-opacity:1"
       id="path108060" />
    <path
       d="m 727.499,632.656 c -6.107,1.377 -19.762,-0.733 -19.275,-10.11 0.487,-9.376 3.658,-34.928 2.195,-46.181 -1.463,-11.253 -8.533,-21.802 -13.896,-26.961 -5.364,-5.155 -7.801,-6.094 -10.241,-9.142 -2.437,-3.046 -14.141,-15.706 -10.97,-27.662"
       style="fill:none;stroke:#231f20;stroke-width:0.5;stroke-linecap:round;stroke-linejoin:round;stroke-miterlimit:4;stroke-dasharray:2.8, 1.8;stroke-dashoffset:0;stroke-opacity:1"
       id="path108062" />
    <path
       d="m 627.207,578.737 c 6.9,-1.201 27.381,-2.841 34.693,-4.95 7.314,-2.112 26.09,-10.315 29.504,-12.66"
       style="fill:none;stroke:#231f20;stroke-width:0.5;stroke-linecap:round;stroke-linejoin:round;stroke-miterlimit:4;stroke-dasharray:2.8, 1.8;stroke-dashoffset:0;stroke-opacity:1"
       id="path108064" />
    <path
       d="m 710.767,581.29 c -6.931,-3.754 -24.926,-17.402 -22.633,-39.061"
       style="fill:none;stroke:#231f20;stroke-width:0.5;stroke-linecap:round;stroke-linejoin:round;stroke-miterlimit:4;stroke-dasharray:2.8, 1.8;stroke-dashoffset:0;stroke-opacity:1"
       id="path108066" />
    <path
       d="m 580.662,547.075 c -5.799,-2.359 -19.941,-11.032 -23.596,-15.486 -3.659,-4.455 -8.046,-7.5 -2.927,-19.221 5.121,-11.724 12.191,-18.756 15.117,-20.633 2.924,-1.873 20.722,-9.845 29.744,0.704"
       style="fill:none;stroke:#231f20;stroke-width:0.5;stroke-linecap:round;stroke-linejoin:round;stroke-miterlimit:4;stroke-dasharray:2.8, 1.8;stroke-dashoffset:0;stroke-opacity:1"
       id="path108068" />
    <path
       d="m 586.322,548.233 c 5.579,1.276 16.361,-4.213 20.857,-16.641 4.499,-12.428 4.009,-16.649 3.525,-23.211"
       style="fill:none;stroke:#231f20;stroke-width:0.5;stroke-linecap:round;stroke-linejoin:round;stroke-miterlimit:4;stroke-dasharray:2.8, 1.8;stroke-dashoffset:0;stroke-opacity:1"
       id="path108070" />
    <path
       d="m 564.948,495.556 c 3.09,-4.288 8.941,-16.713 3.09,-20.229"
       style="fill:none;stroke:#231f20;stroke-width:0.5;stroke-linecap:round;stroke-linejoin:round;stroke-miterlimit:4;stroke-dasharray:2.8, 1.8;stroke-dashoffset:0;stroke-opacity:1"
       id="path108072" />
    <path
       d="m 561.591,472.477 c -1.112,-2.308 -0.381,-7.933 6.203,-11.687 6.582,-3.748 13.164,-5.155 24.136,-3.28 10.97,1.874 17.797,4.221 20.966,7.501 3.169,3.282 4.877,6.798 -1.218,8.206 -6.096,1.407 -10.97,1.169 -20.479,2.11 -9.509,0.936 -16.921,0.997 -24.551,-0.558"
       style="fill:none;stroke:#231f20;stroke-width:0.5;stroke-linecap:round;stroke-linejoin:round;stroke-miterlimit:4;stroke-dasharray:2.8, 1.8;stroke-dashoffset:0;stroke-opacity:1"
       id="path108074" />
    <path
       d="m 676.596,484.562 c -9.996,-5.393 -28.835,-13.456 -39.562,-20.254 -8.025,-5.083 -17.797,-9.143 -30.233,-11.016 -12.433,-1.877 -17.798,0.935 -20.016,3.55"
       style="fill:none;stroke:#231f20;stroke-width:0.5;stroke-linecap:round;stroke-linejoin:round;stroke-miterlimit:4;stroke-dasharray:2.8, 1.8;stroke-dashoffset:0;stroke-opacity:1"
       id="path108076" />
    <path
       d="m 596.824,452.781 c -5.625,-3.709 -10.502,-16.136 -8.552,-23.871 1.95,-7.736 9.999,-17.349 22.188,-21.802 12.188,-4.453 24.136,-5.862 29.743,-0.703 5.605,5.156 6.095,15.235 3.413,23.911 -2.682,8.673 -18.113,23.859 -21.978,26.583"
       style="fill:none;stroke:#231f20;stroke-width:0.5;stroke-linecap:round;stroke-linejoin:round;stroke-miterlimit:4;stroke-dasharray:2.8, 1.8;stroke-dashoffset:0;stroke-opacity:1"
       id="path108078" />
    <path
       d="m 585.837,456.772 c -2.197,-4.185 -10.502,-11.877 -18.789,-14.69"
       style="fill:none;stroke:#231f20;stroke-width:0.5;stroke-linecap:round;stroke-linejoin:round;stroke-miterlimit:4;stroke-dasharray:2.8, 1.8;stroke-dashoffset:0;stroke-opacity:1"
       id="path108080" />
    <path
       d="m 545.511,459.733 c -1.586,-1.453 -2.693,-4.299 -2.884,-6.777"
       style="fill:none;stroke:#231f20;stroke-width:0.5;stroke-linecap:round;stroke-linejoin:round;stroke-miterlimit:4;stroke-dasharray:2.8, 1.8;stroke-dashoffset:0;stroke-opacity:1"
       id="path108082" />
    <path
       d="m 542.924,448.369 c 4.632,0 15.118,-1.877 18.777,-3.517 3.655,-1.644 12.43,-5.863 12.43,-11.723 0,-5.86 -9.994,-9.612 -15.115,-11.252 -5.119,-1.64 -14.269,-5.406 -16.643,-8.672"
       style="fill:none;stroke:#231f20;stroke-width:0.5;stroke-linecap:round;stroke-linejoin:round;stroke-miterlimit:4;stroke-dasharray:2.8, 1.8;stroke-dashoffset:0;stroke-opacity:1"
       id="path108084" />
    <path
       d="m 546.582,411.093 c 3.121,4.201 10.484,6.33 19.993,4.221 9.507,-2.109 19.26,-7.267 23.892,-10.55 4.632,-3.283 8.533,-3.049 11.701,-8.909 3.172,-5.859 11.215,-25.084 6.338,-32.819 -4.874,-7.738 -15.846,-11.724 -24.134,-7.267 -8.29,4.452 -17.31,11.722 -24.867,18.518 -7.561,6.799 -14.094,15.272 -14.876,22.505 -0.731,6.8 -0.483,11.019 1.953,14.301 z"
       style="fill:none;stroke:#231f20;stroke-width:0.5;stroke-linecap:round;stroke-linejoin:round;stroke-miterlimit:4;stroke-dasharray:2.8, 1.8;stroke-dashoffset:0;stroke-opacity:1"
       id="path108086" />
    <path
       d="m 577.808,411.611 c -2.456,-7.786 -9.566,-21.882 -25.151,-30.304"
       style="fill:none;stroke:#231f20;stroke-width:0.5;stroke-linecap:round;stroke-linejoin:round;stroke-miterlimit:4;stroke-dasharray:2.8, 1.8;stroke-dashoffset:0;stroke-opacity:1"
       id="path108088" />
    <path
       d="m 565.789,368.839 c 2.736,6.387 18.011,24.069 35.485,28.472"
       style="fill:none;stroke:#231f20;stroke-width:0.5;stroke-linecap:round;stroke-linejoin:round;stroke-miterlimit:4;stroke-dasharray:2.8, 1.8;stroke-dashoffset:0;stroke-opacity:1"
       id="path108090" />
    <path
       d="m 575.053,356.21 c 3.465,-3.255 11.514,-7.475 17.122,-6.301 5.607,1.17 16.092,6.563 21.698,9.609 5.606,3.05 15.36,4.69 17.796,0.47 2.438,-4.219 0.974,-8.69 -1.511,-9.993"
       style="fill:none;stroke:#231f20;stroke-width:0.5;stroke-linecap:round;stroke-linejoin:round;stroke-miterlimit:4;stroke-dasharray:2.8, 1.8;stroke-dashoffset:0;stroke-opacity:1"
       id="path108092" />
    <path
       d="m 645.604,360.884 c -0.142,2.128 -0.078,5.853 2.889,9.184 2.967,3.332 8.835,6.273 15.074,5.198"
       style="fill:none;stroke:#231f20;stroke-width:0.5;stroke-linecap:round;stroke-linejoin:round;stroke-miterlimit:4;stroke-dasharray:2.8, 1.8;stroke-dashoffset:0;stroke-opacity:1"
       id="path108094" />
    <path
       d="m 731.747,467.478 c 7.928,1.4 16.096,6.09 20.12,9.488 3.239,2.74 11.704,10.082 19.502,15.708 7.803,5.627 20.968,12.427 24.869,18.991 3.9,6.561 13.886,25.927 16.578,39.85 1.95,10.08 -0.241,15.238 -2.44,19.692 -2.192,4.454 -7.387,16.989 -11.617,21.153"
       style="fill:none;stroke:#231f20;stroke-width:0.5;stroke-linecap:round;stroke-linejoin:round;stroke-miterlimit:4;stroke-dasharray:2.8, 1.8;stroke-dashoffset:0;stroke-opacity:1"
       id="path108096" />
    <path
       d="m 707.005,493.142 c 8.324,4.214 21.211,9.846 26.575,5.627 4.608,-3.625 3.901,-10.315 -0.974,-17.113 -4.877,-6.799 -6.34,-9.142 -15.604,-12.19 -9.265,-3.048 -25.598,-8.205 -27.794,-5.626 -2.195,2.578 -1.465,10.546 2.682,16.41 4.146,5.86 8.946,9.768 15.115,12.892 z"
       style="fill:none;stroke:#231f20;stroke-width:0.5;stroke-linecap:round;stroke-linejoin:round;stroke-miterlimit:4;stroke-dasharray:2.8, 1.8;stroke-dashoffset:0;stroke-opacity:1"
       id="path108098" />
    <path
       d="m 675.067,449.539 c -5.121,-2.813 -15.117,-10.08 -11.459,-17.816 3.658,-7.736 20.381,1.351 23.234,9.349"
       style="fill:none;stroke:#231f20;stroke-width:0.5;stroke-linecap:round;stroke-linejoin:round;stroke-miterlimit:4;stroke-dasharray:2.8, 1.8;stroke-dashoffset:0;stroke-opacity:1"
       id="path108100" />
    <path
       d="m 855.221,402.496 c 0.017,-3.828 2.698,-7.577 7.333,-4.764 4.632,2.813 12.117,11.187 8.13,31.729"
       style="fill:none;stroke:#231f20;stroke-width:0.5;stroke-linecap:round;stroke-linejoin:round;stroke-miterlimit:4;stroke-dasharray:2.8, 1.8;stroke-dashoffset:0;stroke-opacity:1"
       id="path108102" />
    <path
       d="m 824.518,475.092 c -3.014,-4.095 -6.583,-9.144 -4.633,-11.018 1.953,-1.877 6.099,3.986 7.804,6.8 1.706,2.812 6.338,10.313 4.633,11.719 -1.706,1.407 -5.226,-4.003 -7.804,-7.501 z"
       style="fill:none;stroke:#231f20;stroke-width:0.5;stroke-linecap:round;stroke-linejoin:round;stroke-miterlimit:4;stroke-dasharray:2.8, 1.8;stroke-dashoffset:0;stroke-opacity:1"
       id="path108104" />
    <path
       d="m 832.322,482.593 c 2.681,4.923 15.773,20.384 28.489,25.546"
       style="fill:none;stroke:#231f20;stroke-width:0.5;stroke-linecap:round;stroke-linejoin:round;stroke-miterlimit:4;stroke-dasharray:2.8, 1.8;stroke-dashoffset:0;stroke-opacity:1"
       id="path108106" />
    <path
       d="m 825.467,467.61 c 3.441,-2.599 9.782,-11.272 10.999,-14.555 1.219,-3.28 3.66,-8.203 7.802,-7.735 4.145,0.469 12.104,0.078 14.81,-0.889"
       style="fill:none;stroke:#231f20;stroke-width:0.5;stroke-linecap:round;stroke-linejoin:round;stroke-miterlimit:4;stroke-dasharray:2.8, 1.8;stroke-dashoffset:0;stroke-opacity:1"
       id="path108108" />
    <path
       d="m 842.597,445.439 c -2.471,-1.527 -4.181,-7.15 -4.667,-11.137 -0.489,-3.986 -0.731,-25.554 1.219,-32.587"
       style="fill:none;stroke:#231f20;stroke-width:0.5;stroke-linecap:round;stroke-linejoin:round;stroke-miterlimit:4;stroke-dasharray:2.8, 1.8;stroke-dashoffset:0;stroke-opacity:1"
       id="path108110" />
    <path
       d="m 768.445,489.625 c 5.334,3.467 14.628,9.147 19.503,9.379 4.877,0.234 18.773,-3.515 21.213,-7.033 2.437,-3.515 11.114,-16.771 10.189,-26.672 -0.925,-9.898 -12.382,-21.856 -18.722,-25.84 -6.34,-3.986 -13.168,-9.846 -24.137,-6.095 -10.973,3.752 -24.624,13.128 -23.406,27.897 1.218,14.769 9.291,24.422 15.36,28.364 z"
       style="fill:none;stroke:#231f20;stroke-width:0.5;stroke-linecap:round;stroke-linejoin:round;stroke-miterlimit:4;stroke-dasharray:2.8, 1.8;stroke-dashoffset:0;stroke-opacity:1"
       id="path108112" />
    <path
       d="m 783.446,497.87 c -4.274,-4.258 -7.444,-19.26 -7.2,-25.827 0.245,-6.563 1.95,-15.472 2.926,-19.925 0.977,-4.452 5.281,-10.994 -3.699,-18.39"
       style="fill:none;stroke:#231f20;stroke-width:0.5;stroke-linecap:round;stroke-linejoin:round;stroke-miterlimit:4;stroke-dasharray:2.8, 1.8;stroke-dashoffset:0;stroke-opacity:1"
       id="path108114" />
    <path
       d="m 777.399,461.522 c 0.349,-2.091 6.528,-6.706 12.015,-0.261 6.582,7.736 7.311,12.659 8.043,17.112 0.731,4.457 1.139,13.959 2.361,18.412"
       style="fill:none;stroke:#231f20;stroke-width:0.5;stroke-linecap:round;stroke-linejoin:round;stroke-miterlimit:4;stroke-dasharray:2.8, 1.8;stroke-dashoffset:0;stroke-opacity:1"
       id="path108116" />
    <path
       d="m 799.559,438.775 c -4.295,-4.239 -10.635,-12.445 -9.661,-20.415 0.976,-7.97 3.903,-15.942 15.849,-16.645 11.946,-0.703 29.502,0 33.402,0 3.9,0 9.996,0.237 12.678,0.237"
       style="fill:none;stroke:#231f20;stroke-width:0.5;stroke-linecap:round;stroke-linejoin:round;stroke-miterlimit:4;stroke-dasharray:2.8, 1.8;stroke-dashoffset:0;stroke-opacity:1"
       id="path108118" />
    <path
       d="m 804.061,401.874 c 0.465,-6.251 4.123,-19.381 10.464,-23.834 6.337,-4.456 13.654,-2.58 19.747,0.937 6.096,3.516 15.359,9.612 17.555,22.975"
       style="fill:none;stroke:#231f20;stroke-width:0.5;stroke-linecap:round;stroke-linejoin:round;stroke-miterlimit:4;stroke-dasharray:2.8, 1.8;stroke-dashoffset:0;stroke-opacity:1"
       id="path108120" />
    <path
       d="m 789.898,418.36 c -3.166,0.703 -18.039,-3.516 -26.816,-8.439 -8.779,-4.923 -17.248,-8.225 -21.88,-12.212"
       style="fill:none;stroke:#231f20;stroke-width:0.5;stroke-linecap:round;stroke-linejoin:round;stroke-miterlimit:4;stroke-dasharray:2.8, 1.8;stroke-dashoffset:0;stroke-opacity:1"
       id="path108122" />
    <path
       d="m 752.935,404.591 c -3.206,-1.57 -5.214,0.644 -3.019,5.799 2.196,5.157 10.483,7.97 12.678,8.673 2.193,0.705 5.086,-2.002 -1.115,-10.027"
       style="fill:none;stroke:#231f20;stroke-width:0.5;stroke-linecap:round;stroke-linejoin:round;stroke-miterlimit:4;stroke-dasharray:2.8, 1.8;stroke-dashoffset:0;stroke-opacity:1"
       id="path108124" />
    <path
       d="m 753.281,463.115 c -1.904,-5.137 -3.852,-12.637 -3.852,-19.203 0,-6.562 -0.489,-22.972 -4.389,-34.461 -2.743,-8.075 -6.338,-22.035 -13.166,-30.474 -6.827,-8.44 -10.537,-14.274 -13.948,-17.322"
       style="fill:none;stroke:#231f20;stroke-width:0.5;stroke-linecap:round;stroke-linejoin:round;stroke-miterlimit:4;stroke-dasharray:2.8, 1.8;stroke-dashoffset:0;stroke-opacity:1"
       id="path108126" />
    <path
       d="m 717.489,419.768 c 5.608,-2.814 12.923,-3.754 18.531,3.516 5.606,7.265 11.946,17.582 12.433,23.442 0.487,5.861 -0.977,9.145 -5.367,9.378 -4.387,0.234 -10.48,-1.877 -15.846,-12.658 -5.362,-10.787 -10.481,-27.196 -14.381,-33.995 -3.903,-6.796 -7.804,-15.002 -10.24,-18.989 -2.441,-3.983 -3.661,-15.002 0.241,-18.752 3.901,-3.751 14.142,-10.083 21.456,-13.128 7.313,-3.05 29.743,-11.722 39.497,-14.066 9.751,-2.343 25.355,-4.454 31.206,-3.751 5.851,0.705 19.261,1.641 24.138,1.408 4.877,-0.237 18.042,-1.643 36.325,5.39 18.287,7.032 32.915,16.408 45.106,32.117 12.188,15.705 20.724,43.134 24.379,55.09 3.659,11.956 15.393,36.075 20.986,39.487"
       style="fill:none;stroke:#231f20;stroke-width:0.5;stroke-linecap:round;stroke-linejoin:round;stroke-miterlimit:4;stroke-dasharray:2.8, 1.8;stroke-dashoffset:0;stroke-opacity:1"
       id="path108128" />
    <path
       d="m 937.721,475.539 c -1.58,0.251 -7.389,-3.962 -11.29,-13.808 -3.901,-9.847 -17.065,-45.014 -21.942,-55.326 -4.877,-10.317 -15.361,-28.367 -30.965,-38.681 -15.605,-10.315 -34.131,-14.535 -43.64,-14.535 -9.508,0 -17.554,0.469 -22.431,0.236 -4.874,-0.236 -37.544,-0.936 -41.445,4.219"
       style="fill:none;stroke:#231f20;stroke-width:0.5;stroke-linecap:round;stroke-linejoin:round;stroke-miterlimit:4;stroke-dasharray:2.8, 1.8;stroke-dashoffset:0;stroke-opacity:1"
       id="path108130" />
    <path
       d="m 703.1,391.273 c 0.992,1.764 7.562,1.3 9.27,0.596 1.705,-0.703 13.406,-6.562 14.628,-7.499 1.218,-0.94 5.122,-2.817 4.876,-5.393 -0.245,-2.58 4.632,-4.69 8.778,-5.626 4.142,-0.937 17.397,-1.357 27.793,0.233 10.727,1.642 37.079,7.044 40.175,12.167"
       style="fill:none;stroke:#231f20;stroke-width:0.5;stroke-linecap:round;stroke-linejoin:round;stroke-miterlimit:4;stroke-dasharray:2.8, 1.8;stroke-dashoffset:0;stroke-opacity:1"
       id="path108132" />
    <path
       d="m 757.154,406.773 c 3.977,-5.292 11.337,-19.349 3.512,-34.006"
       style="fill:none;stroke:#231f20;stroke-width:0.5;stroke-linecap:round;stroke-linejoin:round;stroke-miterlimit:4;stroke-dasharray:2.8, 1.8;stroke-dashoffset:0;stroke-opacity:1"
       id="path108134" />
    <path
       d="m 759.409,372.694 c 4.404,-2.86 7.086,-5.203 6.843,-10.126 -0.244,-4.924 -1.465,-13.599 -2.439,-18.052"
       style="fill:none;stroke:#231f20;stroke-width:0.5;stroke-linecap:round;stroke-linejoin:round;stroke-miterlimit:4;stroke-dasharray:2.8, 1.8;stroke-dashoffset:0;stroke-opacity:1"
       id="path108136" />
    <path
       d="m 788.282,377.57 c 5.274,-0.703 17.342,-5.318 19.171,-8.673 2.684,-4.923 1.463,-10.315 2.195,-15.414"
       style="fill:none;stroke:#231f20;stroke-width:0.5;stroke-linecap:round;stroke-linejoin:round;stroke-miterlimit:4;stroke-dasharray:2.8, 1.8;stroke-dashoffset:0;stroke-opacity:1"
       id="path108138" />
    <path
       d="m 672.385,421.174 c 3.151,3.532 9.751,6.796 11.46,4.923 1.705,-1.877 1.547,-7.616 -1.004,-10.859 -2.049,-2.602 -10.363,-9.91 -13.627,-6.49 -2.679,2.813 0.244,9.143 3.171,12.426 z"
       style="fill:none;stroke:#231f20;stroke-width:0.5;stroke-linecap:round;stroke-linejoin:round;stroke-miterlimit:4;stroke-dasharray:2.8, 1.8;stroke-dashoffset:0;stroke-opacity:1"
       id="path108140" />
    <path
       d="m 535.87,734.314 c -1.721,3.338 -4.702,5.729 -10.038,1.602"
       style="fill:none;stroke:#231f20;stroke-width:0.5;stroke-linecap:round;stroke-linejoin:round;stroke-miterlimit:4;stroke-dasharray:2.8, 1.8;stroke-dashoffset:0;stroke-opacity:1"
       id="path108142" />
    <path
       d="M 539.756,839.159 477.264,792.18"
       style="fill:none;stroke:#231f20;stroke-width:0.5;stroke-linecap:round;stroke-linejoin:round;stroke-miterlimit:4;stroke-dasharray:2.8, 1.8;stroke-dashoffset:0;stroke-opacity:1"
       id="path108144" />
    <path
       d="M 494.957,888.572 470.431,796.059"
       style="fill:none;stroke:#231f20;stroke-width:0.5;stroke-linecap:round;stroke-linejoin:round;stroke-miterlimit:4;stroke-dasharray:2.8, 1.8;stroke-dashoffset:0;stroke-opacity:1"
       id="path108146" />
    <path
       d="M 454.795,895.515 452.95,798.311"
       style="fill:none;stroke:#231f20;stroke-width:0.5;stroke-linecap:round;stroke-linejoin:round;stroke-miterlimit:4;stroke-dasharray:2.8, 1.8;stroke-dashoffset:0;stroke-opacity:1"
       id="path108148" />
    <path
       d="m 418.569,896.281 8.079,-100.159"
       style="fill:none;stroke:#231f20;stroke-width:0.5;stroke-linecap:round;stroke-linejoin:round;stroke-miterlimit:4;stroke-dasharray:2.8, 1.8;stroke-dashoffset:0;stroke-opacity:1"
       id="path108150" />
    <path
       d="m 288.053,867.939 45.976,-98.288"
       style="fill:none;stroke:#231f20;stroke-width:0.5;stroke-linecap:round;stroke-linejoin:round;stroke-miterlimit:4;stroke-dasharray:2.8, 1.8;stroke-dashoffset:0;stroke-opacity:1"
       id="path108152" />
    <path
       d="m 320.521,760.457 -53.274,97.525"
       style="fill:none;stroke:#231f20;stroke-width:0.5;stroke-linecap:round;stroke-linejoin:round;stroke-miterlimit:4;stroke-dasharray:2.8, 1.8;stroke-dashoffset:0;stroke-opacity:1"
       id="path108154" />
    <path
       d="M 248.62,669.795 132.505,715.6"
       style="fill:none;stroke:#231f20;stroke-width:0.5;stroke-linecap:round;stroke-linejoin:round;stroke-miterlimit:4;stroke-dasharray:2.8, 1.8;stroke-dashoffset:0;stroke-opacity:1"
       id="path108156" />
    <path
       d="M 235.486,639.66 117.555,680.582"
       style="fill:none;stroke:#231f20;stroke-width:0.5;stroke-linecap:round;stroke-linejoin:round;stroke-miterlimit:4;stroke-dasharray:2.8, 1.8;stroke-dashoffset:0;stroke-opacity:1"
       id="path108158" />
    <path
       d="m 218.519,583.871 -113.97,14.761"
       style="fill:none;stroke:#231f20;stroke-width:0.5;stroke-linecap:round;stroke-linejoin:round;stroke-miterlimit:4;stroke-dasharray:2.8, 1.8;stroke-dashoffset:0;stroke-opacity:1"
       id="path108160" />
    <path
       d="m 214.727,560.286 -104.964,3.148"
       style="fill:none;stroke:#231f20;stroke-width:0.5;stroke-linecap:round;stroke-linejoin:round;stroke-miterlimit:4;stroke-dasharray:2.8, 1.8;stroke-dashoffset:0;stroke-opacity:1"
       id="path108162" />
    <path
       d="m 213.088,533.955 -91.443,0.272"
       style="fill:none;stroke:#231f20;stroke-width:0.5;stroke-linecap:round;stroke-linejoin:round;stroke-miterlimit:4;stroke-dasharray:2.8, 1.8;stroke-dashoffset:0;stroke-opacity:1"
       id="path108164" />
    <path
       d="M 216.268,497.016 C 209.4,488.922 190.88,482.633 126.451,473.121"
       style="fill:none;stroke:#231f20;stroke-width:0.5;stroke-linecap:round;stroke-linejoin:round;stroke-miterlimit:4;stroke-dasharray:2.8, 1.8;stroke-dashoffset:0;stroke-opacity:1"
       id="path108166" />
    <path
       d="m 212.725,493.805 c -7.348,-9.102 -20.515,-29.849 -22.342,-40.399 -1.829,-10.548 -3.291,-26.021 2.925,-27.78 6.218,-1.758 19.632,-2.128 25.359,23.201"
       style="fill:none;stroke:#231f20;stroke-width:0.5;stroke-linecap:round;stroke-linejoin:round;stroke-miterlimit:4;stroke-dasharray:2.8, 1.8;stroke-dashoffset:0;stroke-opacity:1"
       id="path108168" />
    <path
       d="m 415.55,763.393 1.084,-4.879"
       style="fill:none;stroke:#231f20;stroke-width:0.5;stroke-linecap:round;stroke-linejoin:round;stroke-miterlimit:4;stroke-dasharray:2.8, 1.8;stroke-dashoffset:0;stroke-opacity:1"
       id="path108170" />
    <path
       d="m 401.274,750.544 c 1.042,-1.602 -6.827,-7.033 -9.996,-8.908 -3.169,-1.875 -16.091,-10.08 -13.897,-17.113 2.195,-7.033 6.093,-11.722 22.673,-15.473 16.58,-3.751 35.84,-5.157 47.3,-10.549"
       style="fill:none;stroke:#231f20;stroke-width:0.5;stroke-linecap:round;stroke-linejoin:round;stroke-miterlimit:4;stroke-dasharray:2.8, 1.8;stroke-dashoffset:0;stroke-opacity:1"
       id="path108172" />
    <path
       d="m 392.393,754.73 c 0,0 0.473,-3.179 1.264,-4.737"
       style="fill:none;stroke:#231f20;stroke-width:0.5;stroke-linecap:round;stroke-linejoin:round;stroke-miterlimit:4;stroke-dasharray:2.8, 1.8;stroke-dashoffset:0;stroke-opacity:1"
       id="path108174" />
    <path
       d="m 525.615,689.124 c -0.732,-5.861 -2.644,-8.214 -5.363,-9.611 -4.356,-2.236 -12.437,-4.454 -24.381,-0.47 -11.947,3.987 -21.942,11.487 -26.574,14.77 -4.634,3.282 -19.505,11.956 -23.405,13.831 -3.902,1.876 -9.753,3.282 -9.022,5.627 0.731,2.343 8.29,0 13.166,-2.814 4.876,-2.813 17.065,-9.611 20.478,-12.659 3.412,-3.048 5.142,-5.111 12.922,-8.908 7.011,-3.422 14.939,-6.567 23.894,-7.971 7.7,-1.207 15.358,-0.702 18.285,8.205"
       style="fill:#b2b1b1;fill-opacity:1;fill-rule:nonzero;stroke:none;stroke-width:0.1"
       id="path108176" />
    <path
       d="m 525.615,689.124 c -0.732,-5.861 -2.644,-8.214 -5.363,-9.611 -4.356,-2.236 -12.437,-4.454 -24.381,-0.47 -11.947,3.987 -21.942,11.487 -26.574,14.77 -4.634,3.282 -19.505,11.956 -23.405,13.831 -3.902,1.876 -9.753,3.282 -9.022,5.627 0.731,2.343 8.29,0 13.166,-2.814 4.876,-2.813 17.065,-9.611 20.478,-12.659 3.412,-3.048 5.142,-5.111 12.922,-8.908 7.011,-3.422 14.939,-6.567 23.894,-7.971 7.7,-1.207 15.358,-0.702 18.285,8.205 z"
       style="fill:none;stroke:#231f20;stroke-width:0.5;stroke-linecap:round;stroke-linejoin:round;stroke-miterlimit:4;stroke-dasharray:2.8, 1.8;stroke-dashoffset:0;stroke-opacity:1"
       id="path108178" />
    <path
       d="m 442.578,709.048 c 8.037,-4.775 24.748,-13.864 30.551,-23.244"
       style="fill:none;stroke:#231f20;stroke-width:0.5;stroke-linecap:round;stroke-linejoin:round;stroke-miterlimit:4;stroke-dasharray:2.8, 1.8;stroke-dashoffset:0;stroke-opacity:1"
       id="path108180" />
    <path
       d="m 475.259,679.279 c -0.001,-3.188 -1.327,-6.485 -5.476,-4.69 -4.876,2.112 -23.891,10.08 -29.989,9.377"
       style="fill:none;stroke:#231f20;stroke-width:0.5;stroke-linecap:round;stroke-linejoin:round;stroke-miterlimit:4;stroke-dasharray:2.8, 1.8;stroke-dashoffset:0;stroke-opacity:1"
       id="path108182" />
    <path
       d="m 537.073,704.362 c 0.488,-0.703 -2.863,-3.801 -3.655,-9.143 -0.977,-6.563 -0.47,-13.828 -0.246,-15.706 0.367,-3.048 -1.462,-4.924 -4.143,-5.392 -1.936,-0.339 -9.753,-2.579 -12.435,-3.986 -2.682,-1.406 -5.365,-3.984 -6.583,-3.984 -1.219,0 -4.632,1.404 -10.725,1.639 -6.098,0.236 -11.218,-1.17 -14.873,-2.342 -3.658,-1.173 -7.638,-0.797 -9.754,0.936 -3.291,2.698 -6.46,3.868 -9.752,3.518 -2.18,-0.235 -4.39,-0.705 -9.995,2.578 -5.608,3.282 -16.824,8.439 -18.286,9.143 -1.463,0.703 -4.875,1.64 -4.63,2.813 0.24,1.171 6.581,0.235 11.212,-1.642 4.634,-1.875 16.093,-7.032 21.699,-8.908 5.607,-1.875 12.923,-5.392 19.506,-4.22 6.582,1.172 16.579,3.284 20.723,2.814 4.144,-0.469 7.07,0.703 10.485,2.109 3.41,1.407 6.825,2.815 9.505,3.518 2.682,0.703 3.658,2.812 4.146,7.735 0.487,4.923 0.245,17.348 7.801,18.52"
       style="fill:#b2b1b1;fill-opacity:1;fill-rule:nonzero;stroke:none;stroke-width:0.1"
       id="path108184" />
    <path
       d="m 537.073,704.362 c 0.488,-0.703 -2.863,-3.801 -3.655,-9.143 -0.977,-6.563 -0.47,-13.828 -0.246,-15.706 0.367,-3.048 -1.462,-4.924 -4.143,-5.392 -1.936,-0.339 -9.753,-2.579 -12.435,-3.986 -2.682,-1.406 -5.365,-3.984 -6.583,-3.984 -1.219,0 -4.632,1.404 -10.725,1.639 -6.098,0.236 -11.218,-1.17 -14.873,-2.342 -3.658,-1.173 -7.638,-0.797 -9.754,0.936 -3.291,2.698 -6.46,3.868 -9.752,3.518 -2.18,-0.235 -4.39,-0.705 -9.995,2.578 -5.608,3.282 -16.824,8.439 -18.286,9.143 -1.463,0.703 -4.875,1.64 -4.63,2.813 0.24,1.171 6.581,0.235 11.212,-1.642 4.634,-1.875 16.093,-7.032 21.699,-8.908 5.607,-1.875 12.923,-5.392 19.506,-4.22 6.582,1.172 16.579,3.284 20.723,2.814 4.144,-0.469 7.07,0.703 10.485,2.109 3.41,1.407 6.825,2.815 9.505,3.518 2.682,0.703 3.658,2.812 4.146,7.735 0.487,4.923 0.245,17.348 7.801,18.52 z"
       style="fill:none;stroke:#231f20;stroke-width:0.5;stroke-linecap:round;stroke-linejoin:round;stroke-miterlimit:4;stroke-dasharray:2.8, 1.8;stroke-dashoffset:0;stroke-opacity:1"
       id="path108186" />
    <path
       d="m 529.538,644.734 c -2.459,-3.197 -10.019,-9.06 -13.675,-6.245 -3.657,2.812 -3.119,8.351 -3.144,10.27"
       style="fill:none;stroke:#231f20;stroke-width:0.5;stroke-linecap:round;stroke-linejoin:round;stroke-miterlimit:4;stroke-dasharray:2.8, 1.8;stroke-dashoffset:0;stroke-opacity:1"
       id="path108188" />
    <path
       d="m 515.863,638.489 c -1.707,-2.815 -9.022,-4.221 -15.361,-3.751 -6.337,0.468 -13.376,0.421 -19.732,5.837"
       style="fill:none;stroke:#231f20;stroke-width:0.5;stroke-linecap:round;stroke-linejoin:round;stroke-miterlimit:4;stroke-dasharray:2.8, 1.8;stroke-dashoffset:0;stroke-opacity:1"
       id="path108190" />
    <path
       d="m 540,610.357 c -4.877,-10.079 -12.435,-1.406 -12.435,-1.406 -0.731,2.344 -2.439,6.093 -5.362,11.486 -2.927,5.393 -2.927,9.611 -0.732,12.659 2.194,3.048 11.701,2.345 18.529,2.345 6.825,0 16.334,0.703 18.526,-2.345 2.195,-3.048 2.195,-7.266 -0.732,-12.659 -2.923,-5.393 -4.628,-9.142 -5.361,-11.486 0,0 -7.556,-8.673 -12.433,1.406 z"
       style="fill:none;stroke:#231f20;stroke-width:0.5;stroke-linecap:round;stroke-linejoin:round;stroke-miterlimit:4;stroke-dasharray:2.8, 1.8;stroke-dashoffset:0;stroke-opacity:1"
       id="path108192" />
    <path
       d="m 521.471,633.096 c -0.976,1.875 -5.383,3.595 -10.106,2.672"
       style="fill:none;stroke:#231f20;stroke-width:0.5;stroke-linecap:round;stroke-linejoin:round;stroke-miterlimit:4;stroke-dasharray:2.8, 1.8;stroke-dashoffset:0;stroke-opacity:1"
       id="path108194" />
    <path
       d="m 527.399,609.442 c 0.409,-5.181 0.166,-21.357 -4.953,-24.873 -5.12,-3.516 -16.976,-4.396 -20.389,-2.285 -3.414,2.109 -11.062,11.665 -16.182,20.338 -5.12,8.671 -13.167,33.052 -9.022,38.915"
       style="fill:none;stroke:#231f20;stroke-width:0.5;stroke-linecap:round;stroke-linejoin:round;stroke-miterlimit:4;stroke-dasharray:2.8, 1.8;stroke-dashoffset:0;stroke-opacity:1"
       id="path108196" />
    <path
       d="m 521.324,583.89 c 5.606,1.174 15.018,2.086 18.676,2.086 3.656,0 13.067,-0.912 18.676,-2.086"
       style="fill:none;stroke:#231f20;stroke-width:0.5;stroke-linecap:round;stroke-linejoin:round;stroke-miterlimit:4;stroke-dasharray:2.8, 1.8;stroke-dashoffset:0;stroke-opacity:1"
       id="path108198" />
    <path
       d="m 425.8,677.661 c -3.07,-4.478 -10.385,-16.667 0.83,-60.272"
       style="fill:none;stroke:#231f20;stroke-width:0.5;stroke-linecap:round;stroke-linejoin:round;stroke-miterlimit:4;stroke-dasharray:2.8, 1.8;stroke-dashoffset:0;stroke-opacity:1"
       id="path108200" />
    <path
       d="m 461.595,654.863 c -4.977,-1.84 -7.171,-5.122 -13.753,-12.155 -6.583,-7.034 -12.924,-15.239 -12.679,-24.146 0.245,-8.908 4.143,-21.567 8.045,-27.896 3.902,-6.331 19.017,-22.506 27.306,-30.477 8.289,-7.971 9.996,-9.144 23.161,-11.956 13.166,-2.814 39.01,-7.268 46.325,-7.268 7.314,0 33.157,4.454 46.322,7.268 13.165,2.812 14.873,3.985 23.161,11.956 8.29,7.971 23.405,24.146 27.306,30.477 3.903,6.329 7.803,18.988 8.048,27.896 0.243,8.907 -6.098,17.112 -12.68,24.146 -6.582,7.033 -8.778,10.315 -13.752,12.155"
       style="fill:none;stroke:#231f20;stroke-width:0.5;stroke-linecap:round;stroke-linejoin:round;stroke-miterlimit:4;stroke-dasharray:2.8, 1.8;stroke-dashoffset:0;stroke-opacity:1"
       id="path108202" />
    <path
       d="m 502.057,582.284 c 0.258,-1.874 -5.454,-4.982 -10.819,-4.982 -5.363,0 -18.528,3.048 -27.793,11.019 -9.266,7.971 -14.033,18.524 -14.629,26.723 -0.731,10.082 6.517,16.889 15.13,24.246"
       style="fill:none;stroke:#231f20;stroke-width:0.5;stroke-linecap:round;stroke-linejoin:round;stroke-miterlimit:4;stroke-dasharray:2.8, 1.8;stroke-dashoffset:0;stroke-opacity:1"
       id="path108204" />
    <path
       d="m 466.477,649.301 c 0.624,-2.608 0.137,-6.36 -1.814,-8.938"
       style="fill:none;stroke:#231f20;stroke-width:0.5;stroke-linecap:round;stroke-linejoin:round;stroke-miterlimit:4;stroke-dasharray:2.8, 1.8;stroke-dashoffset:0;stroke-opacity:1"
       id="path108206" />
    <path
       d="m 435.561,622.941 c -3.08,-1.567 -11.126,-6.723 -12.101,-7.661 -0.974,-0.939 -3.657,-2.58 -0.73,-5.158 2.924,-2.578 13.896,-14.755 21.576,-21.091"
       style="fill:none;stroke:#231f20;stroke-width:0.5;stroke-linecap:round;stroke-linejoin:round;stroke-miterlimit:4;stroke-dasharray:2.8, 1.8;stroke-dashoffset:0;stroke-opacity:1"
       id="path108208" />
    <path
       d="m 421.945,610.966 c -5.311,6.658 -23.11,24.708 -54.56,34.085"
       style="fill:none;stroke:#231f20;stroke-width:0.5;stroke-linecap:round;stroke-linejoin:round;stroke-miterlimit:4;stroke-dasharray:2.8, 1.8;stroke-dashoffset:0;stroke-opacity:1"
       id="path108210" />
    <path
       d="m 358.86,665.798 c 6.819,-3.633 9.5,-10.9 9.744,-13.948 0.244,-3.048 -1.705,-12.658 -15.116,-18.754 -13.408,-6.096 -24.867,-7.033 -26.329,-21.099 -1.464,-14.065 2.926,-26.724 4.632,-33.288 1.705,-6.564 3.9,-20.16 10.482,-31.648 6.583,-11.486 13.652,-21.334 51.199,-40.087 37.547,-18.755 85.09,-28.173 107.03,-30.985"
       style="fill:none;stroke:#231f20;stroke-width:0.5;stroke-linecap:round;stroke-linejoin:round;stroke-miterlimit:4;stroke-dasharray:2.8, 1.8;stroke-dashoffset:0;stroke-opacity:1"
       id="path108212" />
    <path
       d="m 352.5,632.656 c 6.108,1.377 19.761,-0.733 19.274,-10.11 -0.486,-9.376 -3.656,-34.928 -2.194,-46.181 1.462,-11.253 8.532,-21.802 13.896,-26.961 5.365,-5.155 7.802,-6.094 10.24,-9.142 2.439,-3.046 14.142,-15.706 10.972,-27.662"
       style="fill:none;stroke:#231f20;stroke-width:0.5;stroke-linecap:round;stroke-linejoin:round;stroke-miterlimit:4;stroke-dasharray:2.8, 1.8;stroke-dashoffset:0;stroke-opacity:1"
       id="path108214" />
    <path
       d="m 452.792,578.737 c -6.9,-1.201 -27.38,-2.841 -34.695,-4.95 -7.313,-2.112 -26.087,-10.315 -29.501,-12.66"
       style="fill:none;stroke:#231f20;stroke-width:0.5;stroke-linecap:round;stroke-linejoin:round;stroke-miterlimit:4;stroke-dasharray:2.8, 1.8;stroke-dashoffset:0;stroke-opacity:1"
       id="path108216" />
    <path
       d="m 369.231,581.29 c 6.933,-3.754 24.928,-17.402 22.635,-39.061"
       style="fill:none;stroke:#231f20;stroke-width:0.5;stroke-linecap:round;stroke-linejoin:round;stroke-miterlimit:4;stroke-dasharray:2.8, 1.8;stroke-dashoffset:0;stroke-opacity:1"
       id="path108218" />
    <path
       d="m 374.619,508.381 c 0,0 10.565,-4.454 18.853,-1.407 12.9,4.742 26.575,18.286 41.447,23.911 10.452,3.953 27.549,4.923 36.814,1.172 7.142,-2.891 21.211,-8.907 32.427,-12.19 11.216,-3.283 20.236,1.877 24.136,3.048 3.902,1.171 5.365,-6.564 11.704,-5.392 6.338,-1.172 7.801,6.563 11.702,5.392 3.9,-1.171 12.92,-6.331 24.137,-3.048 11.214,3.283 25.285,9.299 32.428,12.19 9.262,3.751 26.359,2.781 36.813,-1.172 14.87,-5.625 28.546,-19.169 41.447,-23.911 8.288,-3.047 18.852,1.407 18.852,1.407"
       style="fill:none;stroke:#231f20;stroke-width:0.5;stroke-linecap:round;stroke-linejoin:round;stroke-miterlimit:4;stroke-dasharray:2.8, 1.8;stroke-dashoffset:0;stroke-opacity:1"
       id="path108220" />
    <path
       d="m 499.337,547.075 c 5.799,-2.359 19.939,-11.032 23.596,-15.486 3.657,-4.455 8.046,-7.5 2.925,-19.221 -5.12,-11.724 -12.19,-18.756 -15.114,-20.633 -2.927,-1.873 -20.723,-9.845 -29.745,0.704"
       style="fill:none;stroke:#231f20;stroke-width:0.5;stroke-linecap:round;stroke-linejoin:round;stroke-miterlimit:4;stroke-dasharray:2.8, 1.8;stroke-dashoffset:0;stroke-opacity:1"
       id="path108222" />
    <path
       d="m 493.675,548.233 c -5.579,1.276 -16.358,-4.213 -20.857,-16.641 -4.497,-12.428 -4.009,-16.649 -3.521,-23.211"
       style="fill:none;stroke:#231f20;stroke-width:0.5;stroke-linecap:round;stroke-linejoin:round;stroke-miterlimit:4;stroke-dasharray:2.8, 1.8;stroke-dashoffset:0;stroke-opacity:1"
       id="path108224" />
    <path
       d="m 515.05,495.556 c -3.09,-4.288 -8.94,-16.713 -3.09,-20.229"
       style="fill:none;stroke:#231f20;stroke-width:0.5;stroke-linecap:round;stroke-linejoin:round;stroke-miterlimit:4;stroke-dasharray:2.8, 1.8;stroke-dashoffset:0;stroke-opacity:1"
       id="path108226" />
    <path
       d="m 540,457.275 c -0.732,0 -3.416,-0.468 -6.007,3.09 -1.442,1.974 -6.973,7.275 -13.01,10.741 -4.094,2.35 -9.023,4.221 -9.023,4.221 11.705,0.468 24.624,0.233 28.04,0.233 3.414,0 16.334,0.235 28.038,-0.233 0,0 -4.928,-1.871 -9.022,-4.221 -6.036,-3.466 -11.568,-8.767 -13.01,-10.741 -2.592,-3.558 -5.275,-3.09 -6.006,-3.09 z"
       style="fill:none;stroke:#231f20;stroke-width:0.5;stroke-linecap:round;stroke-linejoin:round;stroke-miterlimit:4;stroke-dasharray:2.8, 1.8;stroke-dashoffset:0;stroke-opacity:1"
       id="path108228" />
    <path
       d="m 518.407,472.477 c 1.112,-2.308 0.381,-7.933 -6.201,-11.687 -6.583,-3.748 -13.165,-5.155 -24.138,-3.28 -10.971,1.874 -17.796,4.221 -20.967,7.501 -3.169,3.282 -4.876,6.798 1.22,8.206 6.095,1.407 10.971,1.169 20.478,2.11 9.51,0.936 16.922,0.997 24.551,-0.558"
       style="fill:none;stroke:#231f20;stroke-width:0.5;stroke-linecap:round;stroke-linejoin:round;stroke-miterlimit:4;stroke-dasharray:2.8, 1.8;stroke-dashoffset:0;stroke-opacity:1"
       id="path108230" />
    <path
       d="m 403.401,484.562 c 9.996,-5.393 28.835,-13.456 39.565,-20.254 8.023,-5.083 17.796,-9.143 30.231,-11.016 12.432,-1.877 17.798,0.935 20.016,3.55"
       style="fill:none;stroke:#231f20;stroke-width:0.5;stroke-linecap:round;stroke-linejoin:round;stroke-miterlimit:4;stroke-dasharray:2.8, 1.8;stroke-dashoffset:0;stroke-opacity:1"
       id="path108232" />
    <path
       d="m 483.176,452.781 c 5.623,-3.709 10.499,-16.136 8.55,-23.871 -1.95,-7.736 -9.997,-17.349 -22.186,-21.802 -12.19,-4.453 -24.136,-5.862 -29.746,-0.703 -5.605,5.156 -6.092,15.235 -3.412,23.911 2.683,8.673 18.112,23.859 21.977,26.583"
       style="fill:none;stroke:#231f20;stroke-width:0.5;stroke-linecap:round;stroke-linejoin:round;stroke-miterlimit:4;stroke-dasharray:2.8, 1.8;stroke-dashoffset:0;stroke-opacity:1"
       id="path108234" />
    <path
       d="m 494.163,456.772 c 2.196,-4.185 10.5,-11.877 18.788,-14.69"
       style="fill:none;stroke:#231f20;stroke-width:0.5;stroke-linecap:round;stroke-linejoin:round;stroke-miterlimit:4;stroke-dasharray:2.8, 1.8;stroke-dashoffset:0;stroke-opacity:1"
       id="path108236" />
    <path
       d="m 537.834,383.449 c 0,0 -0.273,58.12 -0.761,64.92 -0.489,6.799 1.707,5.858 2.927,5.858 1.219,0 3.414,0.941 2.924,-5.858 -0.487,-6.8 -0.758,-64.92 -0.758,-64.92"
       style="fill:none;stroke:#231f20;stroke-width:0.5;stroke-linecap:round;stroke-linejoin:round;stroke-miterlimit:4;stroke-dasharray:2.8, 1.8;stroke-dashoffset:0;stroke-opacity:1"
       id="path108238" />
    <path
       d="m 534.489,459.733 c 1.585,-1.453 2.69,-4.299 2.882,-6.777"
       style="fill:none;stroke:#231f20;stroke-width:0.5;stroke-linecap:round;stroke-linejoin:round;stroke-miterlimit:4;stroke-dasharray:2.8, 1.8;stroke-dashoffset:0;stroke-opacity:1"
       id="path108240" />
    <path
       d="m 537.073,448.369 c -4.632,0 -15.115,-1.877 -18.774,-3.517 -3.655,-1.644 -12.431,-5.863 -12.431,-11.723 0,-5.86 9.995,-9.612 15.115,-11.252 5.119,-1.64 14.269,-5.406 16.643,-8.672"
       style="fill:none;stroke:#231f20;stroke-width:0.5;stroke-linecap:round;stroke-linejoin:round;stroke-miterlimit:4;stroke-dasharray:2.8, 1.8;stroke-dashoffset:0;stroke-opacity:1"
       id="path108242" />
    <path
       d="m 533.418,411.093 c -3.122,4.201 -10.485,6.33 -19.994,4.221 -9.508,-2.109 -19.259,-7.267 -23.892,-10.55 -4.633,-3.283 -8.533,-3.049 -11.702,-8.909 -3.171,-5.859 -11.214,-25.084 -6.339,-32.819 4.874,-7.738 15.848,-11.724 24.135,-7.267 8.29,4.452 17.311,11.722 24.869,18.518 7.558,6.799 14.093,15.272 14.873,22.505 0.731,6.8 0.486,11.019 -1.95,14.301 z"
       style="fill:none;stroke:#231f20;stroke-width:0.5;stroke-linecap:round;stroke-linejoin:round;stroke-miterlimit:4;stroke-dasharray:2.8, 1.8;stroke-dashoffset:0;stroke-opacity:1"
       id="path108244" />
    <path
       d="m 502.189,411.611 c 2.457,-7.786 9.567,-21.882 25.151,-30.304"
       style="fill:none;stroke:#231f20;stroke-width:0.5;stroke-linecap:round;stroke-linejoin:round;stroke-miterlimit:4;stroke-dasharray:2.8, 1.8;stroke-dashoffset:0;stroke-opacity:1"
       id="path108246" />
    <path
       d="m 514.208,368.839 c -2.735,6.387 -18.01,24.069 -35.483,28.472"
       style="fill:none;stroke:#231f20;stroke-width:0.5;stroke-linecap:round;stroke-linejoin:round;stroke-miterlimit:4;stroke-dasharray:2.8, 1.8;stroke-dashoffset:0;stroke-opacity:1"
       id="path108248" />
    <path
       d="m 523.665,340.765 c 2.193,-0.935 12.434,-2.578 16.335,-2.578 3.898,0 14.139,1.643 16.334,2.578"
       style="fill:none;stroke:#231f20;stroke-width:0.5;stroke-linecap:round;stroke-linejoin:round;stroke-miterlimit:4;stroke-dasharray:2.8, 1.8;stroke-dashoffset:0;stroke-opacity:1"
       id="path108250" />
    <path
       d="m 503.16,338.021 c -1.732,6.167 0.024,13.294 1.245,17.043 1.22,3.751 9.263,10.317 12.678,12.427 3.412,2.109 12.189,9.376 15.846,12.659 3.655,3.282 5.851,3.749 7.071,3.749 1.219,0 3.414,-0.467 7.07,-3.749 3.658,-3.283 12.432,-10.55 15.846,-12.659 3.414,-2.11 11.457,-8.676 12.678,-12.427 1.219,-3.749 2.976,-10.876 1.246,-17.043"
       style="fill:none;stroke:#231f20;stroke-width:0.5;stroke-linecap:round;stroke-linejoin:round;stroke-miterlimit:4;stroke-dasharray:2.8, 1.8;stroke-dashoffset:0;stroke-opacity:1"
       id="path108252" />
    <path
       d="m 521.257,344.612 c -7.039,9.242 -3.399,23.382 -3.399,23.382 1.75,0.272 10.195,0.667 11.901,0.667 1.708,0 5.852,0.469 10.241,-2.344 4.387,2.813 8.533,2.344 10.239,2.344 1.705,0 10.15,-0.395 11.902,-0.667 0,0 3.64,-14.14 -3.4,-23.382"
       style="fill:none;stroke:#231f20;stroke-width:0.5;stroke-linecap:round;stroke-linejoin:round;stroke-miterlimit:4;stroke-dasharray:2.8, 1.8;stroke-dashoffset:0;stroke-opacity:1"
       id="path108254" />
    <path
       d="m 504.944,356.21 c -3.465,-3.255 -11.512,-7.475 -17.118,-6.301 -5.609,1.17 -16.093,6.563 -21.699,9.609 -5.609,3.05 -15.363,4.69 -17.798,0.47 -2.437,-4.219 -0.974,-8.69 1.513,-9.993"
       style="fill:none;stroke:#231f20;stroke-width:0.5;stroke-linecap:round;stroke-linejoin:round;stroke-miterlimit:4;stroke-dasharray:2.8, 1.8;stroke-dashoffset:0;stroke-opacity:1"
       id="path108256" />
    <path
       d="m 434.397,360.884 c 0.139,2.128 0.075,5.853 -2.892,9.184 -2.965,3.332 -8.836,6.273 -15.074,5.198"
       style="fill:none;stroke:#231f20;stroke-width:0.5;stroke-linecap:round;stroke-linejoin:round;stroke-miterlimit:4;stroke-dasharray:2.8, 1.8;stroke-dashoffset:0;stroke-opacity:1"
       id="path108258" />
    <path
       d="m 348.251,467.478 c -7.928,1.4 -16.095,6.09 -20.118,9.488 -3.239,2.74 -11.704,10.082 -19.505,15.708 -7.8,5.627 -20.968,12.427 -24.869,18.991 -3.899,6.561 -13.883,25.927 -16.577,39.85 -1.95,10.08 0.243,15.238 2.439,19.692 2.193,4.454 7.39,16.989 11.618,21.153"
       style="fill:none;stroke:#231f20;stroke-width:0.5;stroke-linecap:round;stroke-linejoin:round;stroke-miterlimit:4;stroke-dasharray:2.8, 1.8;stroke-dashoffset:0;stroke-opacity:1"
       id="path108260" />
    <path
       d="m 372.992,493.142 c -8.324,4.214 -21.211,9.846 -26.574,5.627 -4.606,-3.625 -3.9,-10.315 0.976,-17.113 4.874,-6.799 6.339,-9.142 15.603,-12.19 9.264,-3.048 25.599,-8.205 27.795,-5.626 2.193,2.578 1.462,10.546 -2.683,16.41 -4.145,5.86 -8.947,9.768 -15.117,12.892 z"
       style="fill:none;stroke:#231f20;stroke-width:0.5;stroke-linecap:round;stroke-linejoin:round;stroke-miterlimit:4;stroke-dasharray:2.8, 1.8;stroke-dashoffset:0;stroke-opacity:1"
       id="path108262" />
    <path
       d="m 404.932,449.539 c 5.119,-2.813 15.115,-10.08 11.458,-17.816 -3.656,-7.736 -20.381,1.351 -23.233,9.349"
       style="fill:none;stroke:#231f20;stroke-width:0.5;stroke-linecap:round;stroke-linejoin:round;stroke-miterlimit:4;stroke-dasharray:2.8, 1.8;stroke-dashoffset:0;stroke-opacity:1"
       id="path108264" />
    <path
       d="m 224.778,402.496 c -0.019,-3.828 -2.698,-7.577 -7.332,-4.764 -4.632,2.813 -12.119,11.187 -8.132,31.729"
       style="fill:none;stroke:#231f20;stroke-width:0.5;stroke-linecap:round;stroke-linejoin:round;stroke-miterlimit:4;stroke-dasharray:2.8, 1.8;stroke-dashoffset:0;stroke-opacity:1"
       id="path108266" />
    <path
       d="m 255.479,475.092 c 3.016,-4.095 6.584,-9.144 4.633,-11.018 -1.952,-1.877 -6.097,3.986 -7.803,6.8 -1.705,2.812 -6.338,10.313 -4.631,11.719 1.706,1.407 5.224,-4.003 7.801,-7.501 z"
       style="fill:none;stroke:#231f20;stroke-width:0.5;stroke-linecap:round;stroke-linejoin:round;stroke-miterlimit:4;stroke-dasharray:2.8, 1.8;stroke-dashoffset:0;stroke-opacity:1"
       id="path108268" />
    <path
       d="m 247.678,482.593 c -2.682,4.923 -15.775,20.384 -28.49,25.546"
       style="fill:none;stroke:#231f20;stroke-width:0.5;stroke-linecap:round;stroke-linejoin:round;stroke-miterlimit:4;stroke-dasharray:2.8, 1.8;stroke-dashoffset:0;stroke-opacity:1"
       id="path108270" />
    <path
       d="m 254.53,467.61 c -3.44,-2.599 -9.78,-11.272 -10.998,-14.555 -1.219,-3.28 -3.657,-8.203 -7.801,-7.735 -4.144,0.469 -12.105,0.078 -14.811,-0.889"
       style="fill:none;stroke:#231f20;stroke-width:0.5;stroke-linecap:round;stroke-linejoin:round;stroke-miterlimit:4;stroke-dasharray:2.8, 1.8;stroke-dashoffset:0;stroke-opacity:1"
       id="path108272" />
    <path
       d="m 237.401,445.439 c 2.474,-1.527 4.181,-7.15 4.668,-11.137 0.489,-3.986 0.732,-25.554 -1.219,-32.587"
       style="fill:none;stroke:#231f20;stroke-width:0.5;stroke-linecap:round;stroke-linejoin:round;stroke-miterlimit:4;stroke-dasharray:2.8, 1.8;stroke-dashoffset:0;stroke-opacity:1"
       id="path108274" />
    <path
       d="m 311.553,489.625 c -5.334,3.467 -14.628,9.147 -19.503,9.379 -4.876,0.234 -18.773,-3.515 -21.211,-7.033 -2.438,-3.515 -11.115,-16.771 -10.19,-26.672 0.926,-9.898 12.383,-21.856 18.723,-25.84 6.338,-3.986 13.165,-9.846 24.136,-6.095 10.971,3.752 24.624,13.128 23.406,27.897 -1.219,14.769 -9.292,24.422 -15.361,28.364 z"
       style="fill:none;stroke:#231f20;stroke-width:0.5;stroke-linecap:round;stroke-linejoin:round;stroke-miterlimit:4;stroke-dasharray:2.8, 1.8;stroke-dashoffset:0;stroke-opacity:1"
       id="path108276" />
    <path
       d="m 296.553,497.87 c 4.275,-4.258 7.443,-19.26 7.199,-25.827 -0.244,-6.563 -1.95,-15.472 -2.924,-19.925 -0.977,-4.452 -5.283,-10.994 3.697,-18.39"
       style="fill:none;stroke:#231f20;stroke-width:0.5;stroke-linecap:round;stroke-linejoin:round;stroke-miterlimit:4;stroke-dasharray:2.8, 1.8;stroke-dashoffset:0;stroke-opacity:1"
       id="path108278" />
    <path
       d="m 302.599,461.522 c -0.347,-2.091 -6.529,-6.706 -12.012,-0.261 -6.583,7.736 -7.315,12.659 -8.046,17.112 -0.731,4.457 -1.14,13.959 -2.359,18.412"
       style="fill:none;stroke:#231f20;stroke-width:0.5;stroke-linecap:round;stroke-linejoin:round;stroke-miterlimit:4;stroke-dasharray:2.8, 1.8;stroke-dashoffset:0;stroke-opacity:1"
       id="path108280" />
    <path
       d="m 280.441,438.775 c 4.295,-4.239 10.635,-12.445 9.658,-20.415 -0.974,-7.97 -3.902,-15.942 -15.848,-16.645 -11.945,-0.703 -29.5,0 -33.401,0 -3.9,0 -9.996,0.237 -12.678,0.237"
       style="fill:none;stroke:#231f20;stroke-width:0.5;stroke-linecap:round;stroke-linejoin:round;stroke-miterlimit:4;stroke-dasharray:2.8, 1.8;stroke-dashoffset:0;stroke-opacity:1"
       id="path108282" />
    <path
       d="m 275.938,401.874 c -0.467,-6.251 -4.125,-19.381 -10.464,-23.834 -6.338,-4.456 -13.653,-2.58 -19.747,0.937 -6.096,3.516 -15.36,9.612 -17.555,22.975"
       style="fill:none;stroke:#231f20;stroke-width:0.5;stroke-linecap:round;stroke-linejoin:round;stroke-miterlimit:4;stroke-dasharray:2.8, 1.8;stroke-dashoffset:0;stroke-opacity:1"
       id="path108284" />
    <path
       d="m 290.099,418.36 c 3.169,0.703 18.041,-3.516 26.819,-8.439 8.777,-4.923 17.247,-8.225 21.879,-12.212"
       style="fill:none;stroke:#231f20;stroke-width:0.5;stroke-linecap:round;stroke-linejoin:round;stroke-miterlimit:4;stroke-dasharray:2.8, 1.8;stroke-dashoffset:0;stroke-opacity:1"
       id="path108286" />
    <path
       d="m 327.062,404.591 c 3.208,-1.57 5.215,0.644 3.022,5.799 -2.196,5.157 -10.485,7.97 -12.679,8.673 -2.195,0.705 -5.086,-2.002 1.114,-10.027"
       style="fill:none;stroke:#231f20;stroke-width:0.5;stroke-linecap:round;stroke-linejoin:round;stroke-miterlimit:4;stroke-dasharray:2.8, 1.8;stroke-dashoffset:0;stroke-opacity:1"
       id="path108288" />
    <path
       d="m 326.719,463.115 c 1.902,-5.137 3.852,-12.637 3.852,-19.203 0,-6.562 0.488,-22.972 4.389,-34.461 2.741,-8.075 6.338,-22.035 13.164,-30.474 6.828,-8.44 10.536,-14.274 13.95,-17.322"
       style="fill:none;stroke:#231f20;stroke-width:0.5;stroke-linecap:round;stroke-linejoin:round;stroke-miterlimit:4;stroke-dasharray:2.8, 1.8;stroke-dashoffset:0;stroke-opacity:1"
       id="path108290" />
    <path
       d="m 362.51,419.768 c -5.608,-2.814 -12.923,-3.754 -18.53,3.516 -5.607,7.265 -11.946,17.582 -12.435,23.442 -0.486,5.861 0.977,9.145 5.366,9.378 4.388,0.234 10.483,-1.877 15.846,-12.658 5.365,-10.787 10.484,-27.196 14.384,-33.995 3.901,-6.796 7.802,-15.002 10.24,-18.989 2.439,-3.983 3.66,-15.002 -0.243,-18.752 -3.901,-3.751 -14.141,-10.083 -21.455,-13.128 -7.314,-3.05 -29.743,-11.722 -39.497,-14.066 -9.752,-2.343 -25.354,-4.454 -31.207,-3.751 -5.851,0.705 -19.259,1.641 -24.136,1.408 -4.877,-0.237 -18.042,-1.643 -36.328,5.39 -18.285,7.032 -32.913,16.408 -45.103,32.117 -12.19,15.705 -20.724,43.134 -24.381,55.09 -3.656,11.956 -15.394,36.075 -20.985,39.487"
       style="fill:none;stroke:#231f20;stroke-width:0.5;stroke-linecap:round;stroke-linejoin:round;stroke-miterlimit:4;stroke-dasharray:2.8, 1.8;stroke-dashoffset:0;stroke-opacity:1"
       id="path108292" />
    <path
       d="m 142.279,475.539 c 1.579,0.251 7.389,-3.962 11.289,-13.808 3.901,-9.847 17.065,-45.014 21.943,-55.326 4.877,-10.317 15.359,-28.367 30.963,-38.681 15.606,-10.315 34.133,-14.535 43.64,-14.535 9.51,0 17.556,0.469 22.432,0.236 4.875,-0.236 37.545,-0.936 41.446,4.219"
       style="fill:none;stroke:#231f20;stroke-width:0.5;stroke-linecap:round;stroke-linejoin:round;stroke-miterlimit:4;stroke-dasharray:2.8, 1.8;stroke-dashoffset:0;stroke-opacity:1"
       id="path108294" />
    <path
       d="m 376.898,391.273 c -0.992,1.764 -7.561,1.3 -9.269,0.596 -1.707,-0.703 -13.407,-6.562 -14.627,-7.499 -1.221,-0.94 -5.122,-2.817 -4.878,-5.393 0.245,-2.58 -4.632,-4.69 -8.778,-5.626 -4.143,-0.937 -17.396,-1.357 -27.793,0.233 -10.725,1.642 -37.08,7.044 -40.174,12.167"
       style="fill:none;stroke:#231f20;stroke-width:0.5;stroke-linecap:round;stroke-linejoin:round;stroke-miterlimit:4;stroke-dasharray:2.8, 1.8;stroke-dashoffset:0;stroke-opacity:1"
       id="path108296" />
    <path
       d="m 322.843,406.773 c -3.975,-5.292 -11.336,-19.349 -3.511,-34.006"
       style="fill:none;stroke:#231f20;stroke-width:0.5;stroke-linecap:round;stroke-linejoin:round;stroke-miterlimit:4;stroke-dasharray:2.8, 1.8;stroke-dashoffset:0;stroke-opacity:1"
       id="path108298" />
    <path
       d="m 320.59,372.694 c -4.404,-2.86 -7.087,-5.203 -6.841,-10.126 0.243,-4.924 1.461,-13.599 2.437,-18.052"
       style="fill:none;stroke:#231f20;stroke-width:0.5;stroke-linecap:round;stroke-linejoin:round;stroke-miterlimit:4;stroke-dasharray:2.8, 1.8;stroke-dashoffset:0;stroke-opacity:1"
       id="path108300" />
    <path
       d="m 291.716,377.57 c -5.273,-0.703 -17.34,-5.318 -19.17,-8.673 -2.683,-4.923 -1.463,-10.315 -2.196,-15.414"
       style="fill:none;stroke:#231f20;stroke-width:0.5;stroke-linecap:round;stroke-linejoin:round;stroke-miterlimit:4;stroke-dasharray:2.8, 1.8;stroke-dashoffset:0;stroke-opacity:1"
       id="path108302" />
    <path
       d="m 407.613,421.174 c -3.15,3.532 -9.751,6.796 -11.458,4.923 -1.706,-1.877 -1.549,-7.616 1.003,-10.859 2.047,-2.602 10.364,-9.91 13.626,-6.49 2.681,2.813 -0.245,9.143 -3.171,12.426 z"
       style="fill:none;stroke:#231f20;stroke-width:0.5;stroke-linecap:round;stroke-linejoin:round;stroke-miterlimit:4;stroke-dasharray:2.8, 1.8;stroke-dashoffset:0;stroke-opacity:1"
       id="path108304" />
    <path
       d="m 573.644,699.205 c 6.096,0.468 17.068,3.751 30.72,14.299 13.651,10.55 21.793,18.921 36.815,23.912 13.409,4.455 24.621,2.345 29.501,-0.468 4.877,-2.814 9.996,-8.674 2.682,-13.831 -7.315,-5.159 -25.264,-5.896 -31.601,-8.945"
       style="fill:none;stroke:#231f20;stroke-width:0.5;stroke-linecap:round;stroke-linejoin:round;stroke-miterlimit:4;stroke-dasharray:2.8, 1.8;stroke-dashoffset:0;stroke-opacity:1"
       id="path108306" />
    <path
       d="m 506.355,699.205 c -6.096,0.468 -17.067,3.751 -30.72,14.299 -13.652,10.55 -21.793,18.921 -36.815,23.912 -13.408,4.455 -24.623,2.345 -29.5,-0.468 -4.877,-2.814 -9.996,-8.674 -2.684,-13.831 7.316,-5.159 25.263,-5.896 31.602,-8.945"
       style="fill:none;stroke:#231f20;stroke-width:0.5;stroke-linecap:round;stroke-linejoin:round;stroke-miterlimit:4;stroke-dasharray:2.8, 1.8;stroke-dashoffset:0;stroke-opacity:1"
       id="path108308" />
    <path
       d="m 600.693,489.137 c 1.959,-4.212 3.864,-6.352 5.555,-8.542"
       style="fill:none;stroke:#231f20;stroke-width:0.5;stroke-linecap:round;stroke-linejoin:round;stroke-miterlimit:4;stroke-dasharray:2.8, 1.8;stroke-dashoffset:0;stroke-opacity:1"
       id="path108310" />
    <path
       d="m 479.307,489.137 c -1.958,-4.212 -3.863,-6.352 -5.554,-8.542"
       style="fill:none;stroke:#231f20;stroke-width:0.5;stroke-linecap:round;stroke-linejoin:round;stroke-miterlimit:4;stroke-dasharray:2.8, 1.8;stroke-dashoffset:0;stroke-opacity:1"
       id="path108312" />
  </g>
</svg>
