<?xml version="1.0" encoding="UTF-8" standalone="no"?>
<!-- Created with Inkscape (http://www.inkscape.org/) -->

<svg
   version="1.1"
   id="svg103329"
   width="1440"
   height="1344"
   viewBox="0 0 1440 1344"
   xmlns="http://www.w3.org/2000/svg"
   xmlns:svg="http://www.w3.org/2000/svg">
  <defs
     id="defs103333" />
  <g
     id="g103337">
    <path
       d="m 540,331.533 c -4.874,0 -13.926,0.232 -23.443,1.392 -9.516,1.16 -6.265,9.748 -6.265,9.748 -2.09,-0.232 -15.088,-3.481 -26.694,-3.481 -11.604,0 -36.904,19.266 -36.904,19.266 -9.517,1.161 -19.265,11.141 -22.516,13.46 -3.25,2.321 -8.355,6.037 -11.604,5.108 -14.838,-4.242 -22.746,2.321 -22.746,2.321 -0.464,-13.461 -22.283,-25.532 -39.923,-32.96 -17.641,-7.427 -40.851,-10.212 -47.814,-11.14 -6.963,-0.929 -19.033,-1.393 -27.388,-3.249 -8.357,-1.857 -26.46,-2.786 -45.029,1.392 -18.568,4.178 -42.708,21.818 -48.279,28.78 -5.57,6.963 -22.282,31.568 -32.959,56.171 -10.678,24.604 -14.391,43.636 -15.783,58.954 -1.393,15.32 3.249,34.817 4.641,37.602 1.393,2.785 2.323,6.963 -0.463,10.212 -1.159,1.353 -4.552,5.451 -6.963,10.214 -3.385,6.68 -6.378,15.691 -12.071,29.245 -9.748,23.21 -8.355,81.702 -6.034,93.306 2.322,11.605 16.364,78.453 62.321,130.329 45.958,51.876 85.996,77.292 125.337,93.306 39.343,16.016 90.522,26.46 133.694,26.46 43.172,0 83.211,-18.103 94.7,-35.86 C 539.304,854.353 540,843.56 540,836.945 c 0,6.615 0.697,17.408 12.186,35.164 11.489,17.757 51.527,35.86 94.699,35.86 43.172,0 94.352,-10.444 133.694,-26.46 39.342,-16.014 79.381,-41.43 125.337,-93.306 45.958,-51.876 60,-118.724 62.321,-130.329 2.322,-11.604 3.715,-70.096 -6.034,-93.306 -5.692,-13.554 -8.685,-22.565 -12.07,-29.245 -2.412,-4.763 -5.804,-8.861 -6.964,-10.214 -2.785,-3.249 -1.856,-7.427 -0.463,-10.212 1.392,-2.785 6.034,-22.282 4.641,-37.602 -1.392,-15.318 -5.105,-34.35 -15.782,-58.954 -10.678,-24.603 -27.39,-49.208 -32.96,-56.171 -5.57,-6.962 -29.71,-24.602 -48.278,-28.78 -18.569,-4.178 -36.673,-3.249 -45.029,-1.392 -8.355,1.856 -20.425,2.32 -27.388,3.249 -6.964,0.928 -30.174,3.713 -47.815,11.14 -17.639,7.428 -39.459,19.499 -39.922,32.96 0,0 -7.909,-6.563 -22.746,-2.321 -3.249,0.929 -8.354,-2.787 -11.605,-5.108 -3.25,-2.319 -12.999,-12.299 -22.515,-13.46 0,0 -25.3,-19.266 -36.905,-19.266 -11.605,0 -24.604,3.249 -26.692,3.481 0,0 3.25,-8.588 -6.266,-9.748 -9.518,-1.16 -18.57,-1.392 -23.444,-1.392 z m 0,349.32 c 0,0 0.464,-8.355 -7.427,-12.301 0,0 3.25,-0.696 7.427,-0.696 4.178,0 7.428,0.696 7.428,0.696 -7.891,3.946 -7.428,12.301 -7.428,12.301"
       style="fill:#ffffff;fill-opacity:1;fill-rule:nonzero;stroke:none;stroke-width:0.1"
       id="path103997" />
    <path
       d="m 540,331.533 c -4.874,0 -13.926,0.232 -23.443,1.392 -9.516,1.16 -6.265,9.748 -6.265,9.748 -2.09,-0.232 -15.088,-3.481 -26.694,-3.481 -11.604,0 -36.904,19.266 -36.904,19.266 -9.517,1.161 -19.265,11.141 -22.516,13.46 -3.25,2.321 -8.355,6.037 -11.604,5.108 -14.838,-4.242 -22.746,2.321 -22.746,2.321 -0.464,-13.461 -22.283,-25.532 -39.923,-32.96 -17.641,-7.427 -40.851,-10.212 -47.814,-11.14 -6.963,-0.929 -19.033,-1.393 -27.388,-3.249 -8.357,-1.857 -26.46,-2.786 -45.029,1.392 -18.568,4.178 -42.708,21.818 -48.279,28.78 -5.57,6.963 -22.282,31.568 -32.959,56.171 -10.678,24.604 -14.391,43.636 -15.783,58.954 -1.393,15.32 3.249,34.817 4.641,37.602 1.393,2.785 2.323,6.963 -0.463,10.212 -1.159,1.353 -4.552,5.451 -6.963,10.214 -3.385,6.68 -6.378,15.691 -12.071,29.245 -9.748,23.21 -8.355,81.702 -6.034,93.306 2.322,11.605 16.364,78.453 62.321,130.329 45.958,51.876 85.996,77.292 125.337,93.306 39.343,16.016 90.522,26.46 133.694,26.46 43.172,0 83.211,-18.103 94.7,-35.86 C 539.304,854.353 540,843.56 540,836.945 c 0,6.615 0.697,17.408 12.186,35.164 11.489,17.757 51.527,35.86 94.699,35.86 43.172,0 94.352,-10.444 133.694,-26.46 39.342,-16.014 79.381,-41.43 125.337,-93.306 45.958,-51.876 60,-118.724 62.321,-130.329 2.322,-11.604 3.715,-70.096 -6.034,-93.306 -5.692,-13.554 -8.685,-22.565 -12.07,-29.245 -2.412,-4.763 -5.804,-8.861 -6.964,-10.214 -2.785,-3.249 -1.856,-7.427 -0.463,-10.212 1.392,-2.785 6.034,-22.282 4.641,-37.602 -1.392,-15.318 -5.105,-34.35 -15.782,-58.954 -10.678,-24.603 -27.39,-49.208 -32.96,-56.171 -5.57,-6.962 -29.71,-24.602 -48.278,-28.78 -18.569,-4.178 -36.673,-3.249 -45.029,-1.392 -8.355,1.856 -20.425,2.32 -27.388,3.249 -6.964,0.928 -30.174,3.713 -47.815,11.14 -17.639,7.428 -39.459,19.499 -39.922,32.96 0,0 -7.909,-6.563 -22.746,-2.321 -3.249,0.929 -8.354,-2.787 -11.605,-5.108 -3.25,-2.319 -12.999,-12.299 -22.515,-13.46 0,0 -25.3,-19.266 -36.905,-19.266 -11.605,0 -24.604,3.249 -26.692,3.481 0,0 3.25,-8.588 -6.266,-9.748 -9.518,-1.16 -18.57,-1.392 -23.444,-1.392 z m 0,349.32 c 0,0 0.464,-8.355 -7.427,-12.301 0,0 3.25,-0.696 7.427,-0.696 4.178,0 7.428,0.696 7.428,0.696 -7.891,3.946 -7.428,12.301 -7.428,12.301 z"
       style="fill:none;stroke:#231f20;stroke-width:0.75;stroke-linecap:round;stroke-linejoin:round;stroke-miterlimit:4;stroke-dasharray:none;stroke-opacity:1"
       id="path103999" />
    <path
       d="m 658.143,364.956 c 0,-2.692 -1.663,-4.874 -3.714,-4.874 -2.051,0 -3.714,2.182 -3.714,4.874 0,2.691 1.663,4.874 3.714,4.874 2.051,0 3.714,-2.183 3.714,-4.874"
       style="fill:#ffffff;fill-opacity:1;fill-rule:nonzero;stroke:none;stroke-width:0.1"
       id="path104001" />
    <path
       d="m 658.143,364.956 c 0,-2.692 -1.663,-4.874 -3.714,-4.874 -2.051,0 -3.714,2.182 -3.714,4.874 0,2.691 1.663,4.874 3.714,4.874 2.051,0 3.714,-2.183 3.714,-4.874 z"
       style="fill:none;stroke:#231f20;stroke-width:0.5;stroke-linecap:butt;stroke-linejoin:miter;stroke-miterlimit:4;stroke-dasharray:none;stroke-opacity:1"
       id="path104003" />
    <path
       d="m 421.857,364.956 c 0,-2.692 1.663,-4.874 3.714,-4.874 2.052,0 3.715,2.182 3.715,4.874 0,2.691 -1.663,4.874 -3.715,4.874 -2.051,0 -3.714,-2.183 -3.714,-4.874"
       style="fill:#ffffff;fill-opacity:1;fill-rule:nonzero;stroke:none;stroke-width:0.1"
       id="path104005" />
    <path
       d="m 421.857,364.956 c 0,-2.692 1.663,-4.874 3.714,-4.874 2.052,0 3.715,2.182 3.715,4.874 0,2.691 -1.663,4.874 -3.715,4.874 -2.051,0 -3.714,-2.183 -3.714,-4.874 z"
       style="fill:none;stroke:#231f20;stroke-width:0.5;stroke-linecap:butt;stroke-linejoin:miter;stroke-miterlimit:4;stroke-dasharray:none;stroke-opacity:1"
       id="path104007" />
    <path
       d="m 658.159,377.183 c 0.215,6.342 6.252,13.538 8.804,18.18 2.553,4.641 17.871,23.906 21.354,29.013 3.481,5.106 20.191,23.673 28.316,20.657 l 2.61,-1.327"
       style="fill:none;stroke:#231f20;stroke-width:0.5;stroke-linecap:butt;stroke-linejoin:miter;stroke-miterlimit:4;stroke-dasharray:none;stroke-opacity:1"
       id="path104009" />
    <path
       d="m 666.725,377.151 c 3.487,1.731 10.218,6.374 12.307,11.944 2.089,5.571 4.874,16.944 7.892,23.443 3.018,6.5 9.749,16.71 12.766,19.96 3.017,3.252 8.356,9.053 13.927,10.911 2.65,0.883 6.963,1.624 6.963,-2.322 0,-3.945 -3.947,-14.391 -9.285,-21.818 -5.337,-7.428 -19.499,-34.815 -21.122,-39.922"
       style="fill:none;stroke:#231f20;stroke-width:0.5;stroke-linecap:butt;stroke-linejoin:miter;stroke-miterlimit:4;stroke-dasharray:none;stroke-opacity:1"
       id="path104011" />
    <path
       d="m 626.112,414.86 c 2.402,0.686 2.553,8.588 1.392,12.533 -1.16,3.945 -4.339,9.516 -7.89,9.516 -3.251,0 -6.035,-1.391 -4.179,-7.427 1.857,-6.035 5.802,-16.015 10.677,-14.622 z"
       style="fill:none;stroke:#231f20;stroke-width:0.5;stroke-linecap:butt;stroke-linejoin:miter;stroke-miterlimit:4;stroke-dasharray:none;stroke-opacity:1"
       id="path104013" />
    <path
       d="m 775.008,710.214 c -1.392,-3.132 -4.99,-8.47 -4.526,-35.395 0,0 -0.697,-5.57 -1.625,-5.57 -0.928,0 0.231,6.034 -4.874,11.604 -5.106,5.57 -24.14,21.817 -27.156,24.371 -3.017,2.554 -6.5,4.642 -6.964,12.534 -0.464,7.892 -1.391,22.514 -8.587,32.031 -7.195,9.516 -28.549,23.443 -37.138,27.621 0,0 17.408,-3.714 45.957,-22.747 28.55,-19.033 36.442,-28.549 44.913,-44.449"
       style="fill:#706d6e;fill-opacity:1;fill-rule:nonzero;stroke:none;stroke-width:0.1"
       id="path104015" />
    <path
       d="m 775.008,710.214 c -1.392,-3.132 -4.99,-8.47 -4.526,-35.395 0,0 -0.697,-5.57 -1.625,-5.57 -0.928,0 0.231,6.034 -4.874,11.604 -5.106,5.57 -24.14,21.817 -27.156,24.371 -3.017,2.554 -6.5,4.642 -6.964,12.534 -0.464,7.892 -1.391,22.514 -8.587,32.031 -7.195,9.516 -28.549,23.443 -37.138,27.621 0,0 17.408,-3.714 45.957,-22.747 28.55,-19.033 36.442,-28.549 44.913,-44.449 z"
       style="fill:none;stroke:#231f20;stroke-width:0.75;stroke-linecap:round;stroke-linejoin:round;stroke-miterlimit:4;stroke-dasharray:none;stroke-opacity:1"
       id="path104017" />
    <path
       d="m 770.353,673.911 c 1.521,3.693 5.931,11.816 8.253,11.12 2.321,-0.697 2.554,-4.642 2.321,-7.196 -0.232,-2.552 -0.464,-7.426 3.018,-8.355 3.481,-0.928 2.936,7.458 8.587,5.339 3.714,-1.393 1.16,-12.302 0.696,-14.623 -0.464,-2.322 -0.929,-8.821 2.089,-10.909 3.018,-2.089 5.802,-5.57 4.179,-9.285 -1.624,-3.713 -3.25,-8.355 -1.161,-10.212 2.089,-1.857 6.252,-5.941 2.786,-11.141 -2.323,-3.482 -1.161,-9.982 -0.929,-13.463 0.23,-3.481 0.696,-5.57 -4.875,-8.355 -5.57,-2.786 -8.356,-7.195 -11.605,-17.873 -3.249,-10.677 -7.426,-33.19 -8.123,-38.53 -0.696,-5.338 -1.16,-12.301 -4.875,-18.336 -3.714,-6.035 -14.854,-22.514 -18.337,-27.388 -3.481,-4.874 -17.873,-23.211 -35.047,-33.657 -17.176,-10.444 -26.46,-13.924 -36.673,-7.194 -10.212,6.731 -9.75,36.441 0.464,44.564 10.213,8.125 25.763,14.391 47.349,32.959 21.586,18.57 25.766,25.533 27.622,29.942 1.857,4.41 11.282,33.027 12.534,41.083 1.624,10.444 -7.894,32.727 -11.606,36.905 -3.713,4.178 -8.354,5.803 -12.069,7.195 -2.018,0.757 -7.684,3.201 -12.766,6.267 -3.722,2.246 -4.911,5.717 -1.626,10.909"
       style="fill:none;stroke:#231f20;stroke-width:0.5;stroke-linecap:butt;stroke-linejoin:miter;stroke-miterlimit:4;stroke-dasharray:none;stroke-opacity:1"
       id="path104019" />
    <path
       d="M 540,712.304 V 680.853"
       style="fill:none;stroke:#231f20;stroke-width:0.75;stroke-linecap:round;stroke-linejoin:round;stroke-miterlimit:4;stroke-dasharray:none;stroke-opacity:1"
       id="path104021" />
    <path
       d="m 556.71,663.435 c 1.628,-0.927 2.861,-1.542 4.18,-1.847 3.017,-0.696 13.695,-1.392 16.944,-1.392 3.25,0 11.836,-0.929 17.639,-1.857 5.804,-0.928 19.497,0.232 22.515,2.089 3.018,1.857 14.623,6.962 18.801,9.981 4.177,3.017 13.461,10.445 17.872,12.069 4.41,1.625 13.927,4.874 22.05,4.874 8.123,0 17.409,0.929 22.283,-2.553 4.874,-3.481 10.213,-11.605 14.39,-13.926 4.178,-2.321 10.213,-5.107 12.07,-5.803 1.856,-0.696 5.571,-2.321 10.445,-0.929 4.874,1.393 22.048,10.445 28.084,16.712"
       style="fill:none;stroke:#231f20;stroke-width:0.75;stroke-linecap:round;stroke-linejoin:round;stroke-miterlimit:4;stroke-dasharray:none;stroke-opacity:1"
       id="path104023" />
    <path
       d="m 729.111,660.753 c -0.385,-1.489 1.218,-3.575 5.395,-5.896 4.178,-2.32 12.069,-6.266 19.961,-3.017 7.892,3.249 15.39,13.136 14.39,17.409"
       style="fill:none;stroke:#231f20;stroke-width:0.5;stroke-linecap:butt;stroke-linejoin:miter;stroke-miterlimit:4;stroke-dasharray:none;stroke-opacity:1"
       id="path104025" />
    <path
       d="m 731.723,663.599 c 2.087,-3.403 6.73,-6.42 9.746,-6.885 3.017,-0.464 5.106,-0.927 5.106,-2.089 0,0 0.696,1.393 3.017,1.393 2.323,0 6.492,1.444 6.844,-3.224"
       style="fill:none;stroke:#231f20;stroke-width:0.5;stroke-linecap:butt;stroke-linejoin:miter;stroke-miterlimit:4;stroke-dasharray:none;stroke-opacity:1"
       id="path104027" />
    <path
       d="m 746.575,654.625 c 0.465,-1.392 0.004,-3.209 -0.23,-3.925"
       style="fill:none;stroke:#231f20;stroke-width:0.5;stroke-linecap:butt;stroke-linejoin:miter;stroke-miterlimit:4;stroke-dasharray:none;stroke-opacity:1"
       id="path104029" />
    <path
       d="m 768.472,670 c -2.168,-2.609 -4.722,-5.162 -6.578,-6.323 -1.856,-1.16 -4.301,-5.239 -0.062,-6.914"
       style="fill:none;stroke:#231f20;stroke-width:0.5;stroke-linecap:butt;stroke-linejoin:miter;stroke-miterlimit:4;stroke-dasharray:none;stroke-opacity:1"
       id="path104031" />
    <path
       d="m 556.073,662.997 c 2.497,-1.409 9.46,-6.747 11.316,-7.908 l 3.017,-1.625"
       style="fill:none;stroke:#231f20;stroke-width:0.5;stroke-linecap:butt;stroke-linejoin:miter;stroke-miterlimit:4;stroke-dasharray:none;stroke-opacity:1"
       id="path104033" />
    <path
       d="m 608.694,658.428 c -0.222,-3.106 -3.239,-8.909 -10.9,-13.088 -7.659,-4.177 -13.282,-4.092 -17.871,-3.249 -5.653,1.041 -12.999,3.018 -12.999,3.018"
       style="fill:none;stroke:#231f20;stroke-width:0.5;stroke-linecap:butt;stroke-linejoin:miter;stroke-miterlimit:4;stroke-dasharray:none;stroke-opacity:1"
       id="path104035" />
    <path
       d="m 596.402,494.007 c 2.532,-1.556 10.213,-2.089 11.838,3.482 1.625,5.57 0.928,12.999 -0.696,16.248 -1.626,3.249 -7.427,10.676 -14.624,8.123 -5.974,-2.12 -2.552,-16.248 -2.088,-19.033 0.463,-2.785 2.552,-6.963 5.57,-8.82 z"
       style="fill:none;stroke:#231f20;stroke-width:0.5;stroke-linecap:butt;stroke-linejoin:miter;stroke-miterlimit:4;stroke-dasharray:none;stroke-opacity:1"
       id="path104037" />
    <path
       d="M 540,355.672 V 456.173"
       style="fill:none;stroke:#231f20;stroke-width:0.75;stroke-linecap:round;stroke-linejoin:round;stroke-miterlimit:4;stroke-dasharray:none;stroke-opacity:1"
       id="path104039" />
    <path
       d="m 554.158,341.513 c 2.323,0 8.775,0.642 10.398,1.108"
       style="fill:none;stroke:#231f20;stroke-width:0.5;stroke-linecap:butt;stroke-linejoin:miter;stroke-miterlimit:4;stroke-dasharray:none;stroke-opacity:1"
       id="path104041" />
    <path
       d="m 540,726.579 c 2.089,-3.482 12.131,-6.618 17.207,2.087"
       style="fill:none;stroke:#231f20;stroke-width:0.5;stroke-linecap:butt;stroke-linejoin:miter;stroke-miterlimit:4;stroke-dasharray:none;stroke-opacity:1"
       id="path104043" />
    <path
       d="M 540,836.945 V 740.737"
       style="fill:none;stroke:#231f20;stroke-width:0.75;stroke-linecap:round;stroke-linejoin:round;stroke-miterlimit:4;stroke-dasharray:none;stroke-opacity:1"
       id="path104045" />
    <path
       d="m 569.246,747.236 c 7.311,3.017 18.8,8.936 26.808,18.684 8.008,9.748 38.646,35.861 85.995,21.934 0,0 -36.556,15.319 -61.276,5.919 -24.719,-9.4 -24.365,-27.513 -33.42,-36.213"
       style="fill:none;stroke:#231f20;stroke-width:0.5;stroke-linecap:butt;stroke-linejoin:miter;stroke-miterlimit:4;stroke-dasharray:none;stroke-opacity:1"
       id="path104047" />
    <path
       d="m 755.511,468.94 c -0.45,-3.179 -0.696,-6.615 1.393,-6.963 2.089,-0.349 4.178,2.785 4.526,5.222 0.348,2.437 -0.348,6.267 -2.089,6.267 -1.741,0 -3.429,-1.7 -3.83,-4.526 z"
       style="fill:none;stroke:#231f20;stroke-width:0.5;stroke-linecap:butt;stroke-linejoin:miter;stroke-miterlimit:4;stroke-dasharray:none;stroke-opacity:1"
       id="path104049" />
    <path
       d="m 421.842,377.183 c -0.216,6.342 -6.252,13.538 -8.804,18.18 -2.553,4.641 -17.872,23.906 -21.354,29.013 -3.481,5.106 -20.191,23.673 -28.316,20.657 l -2.611,-1.327"
       style="fill:none;stroke:#231f20;stroke-width:0.5;stroke-linecap:butt;stroke-linejoin:miter;stroke-miterlimit:4;stroke-dasharray:none;stroke-opacity:1"
       id="path104051" />
    <path
       d="m 413.276,377.151 c -3.487,1.731 -10.218,6.374 -12.307,11.944 -2.089,5.571 -4.875,16.944 -7.892,23.443 -3.018,6.5 -9.75,16.71 -12.767,19.96 -3.016,3.252 -8.355,9.053 -13.926,10.911 -2.65,0.883 -6.964,1.624 -6.964,-2.322 0,-3.945 3.948,-14.391 9.286,-21.818 5.337,-7.428 19.498,-34.815 21.122,-39.922"
       style="fill:none;stroke:#231f20;stroke-width:0.5;stroke-linecap:butt;stroke-linejoin:miter;stroke-miterlimit:4;stroke-dasharray:none;stroke-opacity:1"
       id="path104053" />
    <path
       d="m 453.889,414.86 c -2.403,0.686 -2.553,8.588 -1.392,12.533 1.16,3.945 4.339,9.516 7.89,9.516 3.25,0 6.034,-1.391 4.178,-7.427 -1.857,-6.035 -5.802,-16.015 -10.676,-14.622 z"
       style="fill:none;stroke:#231f20;stroke-width:0.5;stroke-linecap:butt;stroke-linejoin:miter;stroke-miterlimit:4;stroke-dasharray:none;stroke-opacity:1"
       id="path104055" />
    <path
       d="m 304.993,710.214 c 1.392,-3.132 4.989,-8.47 4.525,-35.395 0,0 0.698,-5.57 1.626,-5.57 0.927,0 -0.231,6.034 4.874,11.604 5.106,5.57 24.14,21.817 27.156,24.371 3.017,2.554 6.499,4.642 6.963,12.534 0.464,7.892 1.392,22.514 8.587,32.031 7.196,9.516 28.55,23.443 37.138,27.621 0,0 -17.408,-3.714 -45.957,-22.747 -28.549,-19.033 -36.442,-28.549 -44.912,-44.449"
       style="fill:#706d6e;fill-opacity:1;fill-rule:nonzero;stroke:none;stroke-width:0.1"
       id="path104057" />
    <path
       d="m 304.993,710.214 c 1.392,-3.132 4.989,-8.47 4.525,-35.395 0,0 0.698,-5.57 1.626,-5.57 0.927,0 -0.231,6.034 4.874,11.604 5.106,5.57 24.14,21.817 27.156,24.371 3.017,2.554 6.499,4.642 6.963,12.534 0.464,7.892 1.392,22.514 8.587,32.031 7.196,9.516 28.55,23.443 37.138,27.621 0,0 -17.408,-3.714 -45.957,-22.747 -28.549,-19.033 -36.442,-28.549 -44.912,-44.449 z"
       style="fill:none;stroke:#231f20;stroke-width:0.75;stroke-linecap:round;stroke-linejoin:round;stroke-miterlimit:4;stroke-dasharray:none;stroke-opacity:1"
       id="path104059" />
    <path
       d="m 309.648,673.911 c -1.522,3.693 -5.932,11.816 -8.253,11.12 -2.321,-0.697 -2.554,-4.642 -2.321,-7.196 0.232,-2.552 0.464,-7.426 -3.018,-8.355 -3.482,-0.928 -2.936,7.458 -8.588,5.339 -3.714,-1.393 -1.159,-12.302 -0.696,-14.623 0.464,-2.322 0.93,-8.821 -2.089,-10.909 -3.017,-2.089 -5.802,-5.57 -4.178,-9.285 1.624,-3.713 3.249,-8.355 1.161,-10.212 -2.089,-1.857 -6.252,-5.941 -2.786,-11.141 2.322,-3.482 1.161,-9.982 0.929,-13.463 -0.231,-3.481 -0.696,-5.57 4.874,-8.355 5.571,-2.786 8.357,-7.195 11.606,-17.873 3.249,-10.677 7.426,-33.19 8.123,-38.53 0.696,-5.338 1.16,-12.301 4.874,-18.336 3.714,-6.035 14.855,-22.514 18.337,-27.388 3.481,-4.874 17.873,-23.211 35.048,-33.657 17.176,-10.444 26.46,-13.924 36.672,-7.194 10.213,6.731 9.75,36.441 -0.463,44.564 -10.214,8.125 -25.764,14.391 -47.35,32.959 -21.586,18.57 -25.765,25.533 -27.621,29.942 -1.857,4.41 -11.282,33.027 -12.534,41.083 -1.625,10.444 7.893,32.727 11.606,36.905 3.713,4.178 8.354,5.803 12.068,7.195 2.019,0.757 7.685,3.201 12.767,6.267 3.721,2.246 4.911,5.717 1.625,10.909"
       style="fill:none;stroke:#231f20;stroke-width:0.5;stroke-linecap:butt;stroke-linejoin:miter;stroke-miterlimit:4;stroke-dasharray:none;stroke-opacity:1"
       id="path104061" />
    <path
       d="m 523.29,663.435 c -1.628,-0.927 -2.86,-1.542 -4.179,-1.847 -3.018,-0.696 -13.695,-1.392 -16.945,-1.392 -3.248,0 -11.835,-0.929 -17.639,-1.857 -5.803,-0.928 -19.496,0.232 -22.515,2.089 -3.017,1.857 -14.622,6.962 -18.801,9.981 -4.177,3.017 -13.461,10.445 -17.871,12.069 -4.411,1.625 -13.927,4.874 -22.051,4.874 -8.123,0 -17.408,0.929 -22.283,-2.553 -4.874,-3.481 -10.212,-11.605 -14.389,-13.926 -4.178,-2.321 -10.214,-5.107 -12.071,-5.803 -1.856,-0.696 -5.57,-2.321 -10.444,-0.929 -4.874,1.393 -22.049,10.445 -28.084,16.712"
       style="fill:none;stroke:#231f20;stroke-width:0.75;stroke-linecap:round;stroke-linejoin:round;stroke-miterlimit:4;stroke-dasharray:none;stroke-opacity:1"
       id="path104063" />
    <path
       d="m 350.889,660.753 c 0.386,-1.489 -1.217,-3.575 -5.394,-5.896 -4.178,-2.32 -12.069,-6.266 -19.961,-3.017 -7.892,3.249 -15.39,13.136 -14.39,17.409"
       style="fill:none;stroke:#231f20;stroke-width:0.5;stroke-linecap:butt;stroke-linejoin:miter;stroke-miterlimit:4;stroke-dasharray:none;stroke-opacity:1"
       id="path104065" />
    <path
       d="m 348.277,663.599 c -2.086,-3.403 -6.73,-6.42 -9.746,-6.885 -3.016,-0.464 -5.105,-0.927 -5.105,-2.089 0,0 -0.697,1.393 -3.018,1.393 -2.322,0 -6.492,1.444 -6.844,-3.224"
       style="fill:none;stroke:#231f20;stroke-width:0.5;stroke-linecap:butt;stroke-linejoin:miter;stroke-miterlimit:4;stroke-dasharray:none;stroke-opacity:1"
       id="path104067" />
    <path
       d="m 333.426,654.625 c -0.466,-1.392 -0.005,-3.209 0.23,-3.925"
       style="fill:none;stroke:#231f20;stroke-width:0.5;stroke-linecap:butt;stroke-linejoin:miter;stroke-miterlimit:4;stroke-dasharray:none;stroke-opacity:1"
       id="path104069" />
    <path
       d="m 311.529,670 c 2.167,-2.609 4.721,-5.162 6.578,-6.323 1.856,-1.16 4.3,-5.239 0.061,-6.914"
       style="fill:none;stroke:#231f20;stroke-width:0.5;stroke-linecap:butt;stroke-linejoin:miter;stroke-miterlimit:4;stroke-dasharray:none;stroke-opacity:1"
       id="path104071" />
    <path
       d="m 547.428,668.552 c 0,0 -3.25,-0.696 -7.428,-0.696 -4.177,0 -7.427,0.696 -7.427,0.696 -4.44,-2.22 -7.19,-3.926 -9.283,-5.117 0,0 4.641,-3.007 4.873,-5.096 0.232,-2.089 0.232,-6.499 2.785,-8.588 2.554,-2.088 5.571,-3.714 9.052,-3.714 3.482,0 6.499,1.626 9.052,3.714 2.555,2.089 2.555,6.499 2.785,8.588 0.232,2.089 4.873,5.096 4.873,5.096 -2.092,1.191 -4.842,2.897 -9.282,5.117"
       style="fill:#7b7979;fill-opacity:1;fill-rule:nonzero;stroke:none;stroke-width:0.1"
       id="path104073" />
    <path
       d="m 547.428,668.552 c 0,0 -3.25,-0.696 -7.428,-0.696 -4.177,0 -7.427,0.696 -7.427,0.696 -4.44,-2.22 -7.19,-3.926 -9.283,-5.117 0,0 4.641,-3.007 4.873,-5.096 0.232,-2.089 0.232,-6.499 2.785,-8.588 2.554,-2.088 5.571,-3.714 9.052,-3.714 3.482,0 6.499,1.626 9.052,3.714 2.555,2.089 2.555,6.499 2.785,8.588 0.232,2.089 4.873,5.096 4.873,5.096 -2.092,1.191 -4.842,2.897 -9.282,5.117 z"
       style="fill:none;stroke:#231f20;stroke-width:0.75;stroke-linecap:round;stroke-linejoin:round;stroke-miterlimit:4;stroke-dasharray:none;stroke-opacity:1"
       id="path104075" />
    <path
       d="m 523.928,662.997 c -2.497,-1.409 -9.461,-6.747 -11.317,-7.908 l -3.016,-1.625"
       style="fill:none;stroke:#231f20;stroke-width:0.5;stroke-linecap:butt;stroke-linejoin:miter;stroke-miterlimit:4;stroke-dasharray:none;stroke-opacity:1"
       id="path104077" />
    <path
       d="m 471.307,658.428 c 0.222,-3.106 3.239,-8.909 10.899,-13.088 7.66,-4.177 13.283,-4.092 17.872,-3.249 5.653,1.041 12.999,3.018 12.999,3.018"
       style="fill:none;stroke:#231f20;stroke-width:0.5;stroke-linecap:butt;stroke-linejoin:miter;stroke-miterlimit:4;stroke-dasharray:none;stroke-opacity:1"
       id="path104079" />
    <path
       d="m 483.598,494.007 c -2.532,-1.556 -10.212,-2.089 -11.837,3.482 -1.626,5.57 -0.928,12.999 0.697,16.248 1.625,3.249 7.426,10.676 14.622,8.123 5.974,-2.12 2.552,-16.248 2.088,-19.033 -0.462,-2.785 -2.551,-6.963 -5.57,-8.82 z"
       style="fill:none;stroke:#231f20;stroke-width:0.5;stroke-linecap:butt;stroke-linejoin:miter;stroke-miterlimit:4;stroke-dasharray:none;stroke-opacity:1"
       id="path104081" />
    <path
       d="m 540,355.672 c 0,-2.306 -4.177,-11.606 -14.158,-14.159 0,0 9.284,1.175 14.158,1.175 4.874,0 14.158,-1.175 14.158,-1.175 -9.98,2.553 -14.158,11.853 -14.158,14.159"
       style="fill:#706d6e;fill-opacity:1;fill-rule:nonzero;stroke:none;stroke-width:0.1"
       id="path104083" />
    <path
       d="m 540,355.672 c 0,-2.306 -4.177,-11.606 -14.158,-14.159 0,0 9.284,1.175 14.158,1.175 4.874,0 14.158,-1.175 14.158,-1.175 -9.98,2.553 -14.158,11.853 -14.158,14.159 z"
       style="fill:none;stroke:#231f20;stroke-width:0.75;stroke-linecap:round;stroke-linejoin:round;stroke-miterlimit:4;stroke-dasharray:none;stroke-opacity:1"
       id="path104085" />
    <path
       d="m 525.842,341.513 c -2.322,0 -8.774,0.642 -10.398,1.108"
       style="fill:none;stroke:#231f20;stroke-width:0.5;stroke-linecap:butt;stroke-linejoin:miter;stroke-miterlimit:4;stroke-dasharray:none;stroke-opacity:1"
       id="path104087" />
    <path
       d="m 395.862,777.41 c 11.141,5.222 22.978,7.311 37.949,6.963 14.972,-0.348 25.416,-11.141 38.298,-24.719 12.882,-13.578 29.594,-24.024 37.949,-27.505 8.357,-3.482 24.72,-5.57 29.942,-5.57 5.223,0 21.586,2.088 29.942,5.57 8.356,3.481 25.067,13.927 37.949,27.505 12.882,13.578 23.327,24.371 38.298,24.719 14.971,0.348 26.809,-1.741 37.949,-6.963"
       style="fill:none;stroke:#231f20;stroke-width:0.5;stroke-linecap:butt;stroke-linejoin:miter;stroke-miterlimit:4;stroke-dasharray:none;stroke-opacity:1"
       id="path104089" />
    <path
       d="m 540,726.579 c -2.088,-3.482 -12.131,-6.618 -17.207,2.087"
       style="fill:none;stroke:#231f20;stroke-width:0.5;stroke-linecap:butt;stroke-linejoin:miter;stroke-miterlimit:4;stroke-dasharray:none;stroke-opacity:1"
       id="path104091" />
    <path
       d="m 429.034,680.559 c -4.081,4.812 4.777,7.373 11.045,8.766 7.999,1.778 -12.882,5.919 -21.935,8.007 -9.052,2.089 -29.941,9.75 -44.216,17.061 -12.899,6.607 -14.274,17.407 -11.489,26.808 2.785,9.4 17.408,20.193 36.208,30.29 18.801,10.096 25.765,9.052 37.95,8.356 12.186,-0.696 22.282,-10.445 31.334,-20.889 9.052,-10.446 26.112,-21.239 32.03,-24.72 5.919,-3.482 20.194,-10.445 24.72,-13.231 4.527,-2.785 12.534,-8.703 15.319,-8.703 2.786,0 10.794,5.918 15.32,8.703 4.525,2.786 18.8,9.749 24.719,13.231 5.919,3.481 22.978,14.274 32.031,24.72 9.052,10.444 19.148,20.193 31.334,20.889 12.185,0.696 19.148,1.74 37.949,-8.356 18.801,-10.097 33.424,-20.89 36.209,-30.29 2.785,-9.401 1.41,-20.201 -11.489,-26.808 -14.275,-7.311 -35.164,-14.972 -44.217,-17.061 -9.052,-2.088 -29.934,-6.229 -21.934,-8.007 6.267,-1.393 15.126,-3.954 11.044,-8.766"
       style="fill:none;stroke:#231f20;stroke-width:0.5;stroke-linecap:butt;stroke-linejoin:miter;stroke-miterlimit:4;stroke-dasharray:none;stroke-opacity:1"
       id="path104093" />
    <path
       d="m 304.993,710.214 c -3.134,3.83 -12.186,-5.221 -14.623,-7.659 -2.438,-2.437 -9.052,-5.97 -12.186,-10.496 -3.134,-4.525 -13.927,-14.571 -26.808,-43.12 -19.024,-42.16 -23.56,-70.677 -25.417,-89.478 -1.855,-18.8 -0.696,-42.708 0.234,-47.582 0.929,-4.874 -3.715,-10.675 -3.947,-20.889 -0.143,-6.27 3.947,-20.658 4.874,-26.692 0.927,-6.034 3.018,-17.64 0.696,-23.443 -2.321,-5.804 -3.482,-14.623 -1.393,-23.906 2.089,-9.283 12.071,-10.793 11.374,-12.418 -0.696,-1.626 -8.588,2.669 -12.534,10.095 -3.945,7.428 -3.249,13.463 -1.392,19.034 1.856,5.571 2.088,15.435 2.437,18.917 0.349,3.481 -3.481,19.844 -5.223,26.111 -1.74,6.268 -1.74,14.972 -0.347,20.542 1.392,5.57 1.392,10.793 0.696,18.801 -0.696,8.008 1.044,35.511 3.482,59.535 2.437,24.022 12.185,53.965 24.023,85.647 11.837,31.683 24.022,47.35 40.386,70.329 16.364,22.978 39.69,39.341 67.891,52.572 28.202,13.23 74.159,22.862 95.512,22.166 21.354,-0.697 26.925,-12.766 35.048,-28.781 8.124,-16.016 19.265,-30.174 22.978,-32.263 3.715,-2.089 23.211,-6.499 29.246,-6.499 6.036,0 25.532,4.41 29.246,6.499 3.714,2.089 14.855,16.247 22.978,32.263 8.123,16.015 13.695,28.084 35.049,28.781 21.353,0.696 67.311,-8.936 95.512,-22.166 28.2,-13.231 51.527,-29.594 67.89,-52.572 16.364,-22.979 28.55,-38.646 40.387,-70.329 11.838,-31.682 21.586,-61.625 24.023,-85.647 2.437,-24.024 4.178,-51.527 3.482,-59.535 -0.696,-8.008 -0.696,-13.231 0.696,-18.801 1.393,-5.57 1.393,-14.274 -0.348,-20.542 -1.741,-6.267 -5.571,-22.63 -5.222,-26.111 0.348,-3.482 0.58,-13.346 2.436,-18.917 1.857,-5.571 2.553,-11.606 -1.392,-19.034 -3.945,-7.426 -11.837,-11.721 -12.533,-10.095 -0.697,1.625 9.284,3.135 11.373,12.418 2.089,9.283 0.928,18.102 -1.393,23.906 -2.321,5.803 -0.231,17.409 0.696,23.443 0.928,6.034 5.018,20.422 4.874,26.692 -0.232,10.214 -4.875,16.015 -3.946,20.889 0.929,4.874 2.089,28.782 0.233,47.582 -1.857,18.801 -6.392,47.318 -25.417,89.478 -12.881,28.549 -23.674,38.595 -26.807,43.12 -3.134,4.526 -9.749,8.059 -12.186,10.496 -2.437,2.438 -11.489,11.489 -14.623,7.659"
       style="fill:none;stroke:#231f20;stroke-width:0.5;stroke-linecap:butt;stroke-linejoin:miter;stroke-miterlimit:4;stroke-dasharray:none;stroke-opacity:1"
       id="path104095" />
    <path
       d="m 510.754,747.236 c -7.31,3.017 -18.799,8.936 -26.807,18.684 -8.008,9.748 -38.647,35.861 -85.996,21.934 0,0 36.557,15.319 61.276,5.919 24.72,-9.4 24.366,-27.513 33.421,-36.213"
       style="fill:none;stroke:#231f20;stroke-width:0.5;stroke-linecap:butt;stroke-linejoin:miter;stroke-miterlimit:4;stroke-dasharray:none;stroke-opacity:1"
       id="path104097" />
    <path
       d="m 324.489,468.94 c 0.45,-3.179 0.697,-6.615 -1.393,-6.963 -2.089,-0.349 -4.178,2.785 -4.525,5.222 -0.349,2.437 0.347,6.267 2.089,6.267 1.74,0 3.429,-1.7 3.829,-4.526 z"
       style="fill:none;stroke:#231f20;stroke-width:0.5;stroke-linecap:butt;stroke-linejoin:miter;stroke-miterlimit:4;stroke-dasharray:none;stroke-opacity:1"
       id="path104099" />
    <path
       d="m 542.388,412.777 c 0.629,3.939 3.415,10.903 10.612,11.135 7.194,0.231 23.672,-4.874 32.029,-11.374 8.355,-6.499 24.371,-20.424 29.477,-31.102 5.108,-10.678 4.5,-20.558 1.438,-24.205"
       style="fill:none;stroke:#231f20;stroke-width:0.25;stroke-linecap:butt;stroke-linejoin:miter;stroke-miterlimit:4;stroke-dasharray:none;stroke-opacity:1"
       id="path104101" />
    <path
       d="m 537.613,412.777 c -0.63,3.939 -3.416,10.903 -10.611,11.135 -7.195,0.231 -23.674,-4.874 -32.03,-11.374 -8.355,-6.499 -24.371,-20.424 -29.478,-31.102 -5.107,-10.678 -4.5,-20.558 -1.438,-24.205"
       style="fill:none;stroke:#231f20;stroke-width:0.25;stroke-linecap:butt;stroke-linejoin:miter;stroke-miterlimit:4;stroke-dasharray:none;stroke-opacity:1"
       id="path104103" />
    <path
       d="m 653.037,768.125 c 2.292,0.581 7.409,-1.007 9.052,-1.392 2.796,-0.653 9.747,-2.321 9.98,-3.714 4.178,-1.393 28.317,-11.605 34.351,-20.193 6.036,-8.588 2.555,-18.336 -5.338,-23.211 -7.891,-4.874 -23.209,-11.606 -31.333,-13.695 -8.125,-2.088 -23.677,-6.962 -30.408,-8.123 -6.73,-1.161 -14.157,-5.106 -20.423,-7.892 -6.268,-2.785 -20.699,-10.005 -23.19,-6.021 -1.879,3.004 9.494,8.343 13.208,10.432 3.714,2.089 17.176,9.283 25.067,11.604 5.803,-0.463 16.875,-0.117 22.979,0.929 8.123,1.393 19.335,4.915 25.3,7.195 7.891,3.018 20.193,10.91 21.817,17.872 1.624,6.964 -2.089,9.981 -6.034,12.767 -3.945,2.785 -16.017,9.981 -26.692,13.694 0,0 -4.179,0.232 -6.035,0.928 -1.856,0.696 -6.035,2.554 -8.124,3.25 l -4.624,1.712 v 0.608 c -9.515,1.857 -18.123,-3.016 -20.908,-5.105 -2.785,-2.089 -15.319,-13.463 -20.657,-18.569 -5.338,-5.106 -18.801,-16.48 -28.549,-21.121 -7.498,-3.571 -16.498,-7.09 -20.658,-7.893 -4.692,-0.904 -12.696,-2.299 -13.231,-0.696 -0.463,1.392 4.413,4.178 6.733,4.411 2.319,0.232 5.803,-0.233 10.444,0.928 4.642,1.161 16.311,6.537 25.531,12.069 10.445,6.267 20.891,18.569 25.997,23.443 5.105,4.874 16.014,14.855 22.746,16.016 6.732,1.16 11.142,0.232 12.999,-0.233"
       style="fill:#b2b1b1;fill-opacity:1;fill-rule:nonzero;stroke:none;stroke-width:0.1"
       id="path104105" />
    <path
       d="m 653.037,768.125 c 2.292,0.581 7.409,-1.007 9.052,-1.392 2.796,-0.653 9.747,-2.321 9.98,-3.714 4.178,-1.393 28.317,-11.605 34.351,-20.193 6.036,-8.588 2.555,-18.336 -5.338,-23.211 -7.891,-4.874 -23.209,-11.606 -31.333,-13.695 -8.125,-2.088 -23.677,-6.962 -30.408,-8.123 -6.73,-1.161 -14.157,-5.106 -20.423,-7.892 -6.268,-2.785 -20.699,-10.005 -23.19,-6.021 -1.879,3.004 9.494,8.343 13.208,10.432 3.714,2.089 17.176,9.283 25.067,11.604 5.803,-0.463 16.875,-0.117 22.979,0.929 8.123,1.393 19.335,4.915 25.3,7.195 7.891,3.018 20.193,10.91 21.817,17.872 1.624,6.964 -2.089,9.981 -6.034,12.767 -3.945,2.785 -16.017,9.981 -26.692,13.694 0,0 -4.179,0.232 -6.035,0.928 -1.856,0.696 -6.035,2.554 -8.124,3.25 l -4.624,1.712 v 0.608 c -9.515,1.857 -18.123,-3.016 -20.908,-5.105 -2.785,-2.089 -15.319,-13.463 -20.657,-18.569 -5.338,-5.106 -18.801,-16.48 -28.549,-21.121 -7.498,-3.571 -16.498,-7.09 -20.658,-7.893 -4.692,-0.904 -12.696,-2.299 -13.231,-0.696 -0.463,1.392 4.413,4.178 6.733,4.411 2.319,0.232 5.803,-0.233 10.444,0.928 4.642,1.161 16.311,6.537 25.531,12.069 10.445,6.267 20.891,18.569 25.997,23.443 5.105,4.874 16.014,14.855 22.746,16.016 6.732,1.16 11.142,0.232 12.999,-0.233 z"
       style="fill:none;stroke:#231f20;stroke-width:0.5;stroke-linecap:round;stroke-linejoin:round;stroke-miterlimit:4;stroke-dasharray:2.8, 1.8;stroke-dashoffset:8.00381;stroke-opacity:1"
       id="path104107" />
    <path
       d="m 652.59,764.267 0.447,3.858"
       style="fill:none;stroke:#231f20;stroke-width:0.5;stroke-linecap:round;stroke-linejoin:round;stroke-miterlimit:4;stroke-dasharray:2.8, 1.8;stroke-dashoffset:7.5038;stroke-opacity:1"
       id="path104109" />
    <path
       d="m 671.373,758.377 0.696,4.642"
       style="fill:none;stroke:#231f20;stroke-width:0.5;stroke-linecap:round;stroke-linejoin:round;stroke-miterlimit:4;stroke-dasharray:2.8, 1.8;stroke-dashoffset:8.50381;stroke-opacity:1"
       id="path104111" />
    <path
       d="m 426.964,768.125 c -2.292,0.581 -7.41,-1.007 -9.052,-1.392 -2.796,-0.653 -9.747,-2.321 -9.98,-3.714 -4.178,-1.393 -28.318,-11.605 -34.352,-20.193 -6.035,-8.588 -2.554,-18.336 5.338,-23.211 7.892,-4.874 23.209,-11.606 31.334,-13.695 8.124,-2.088 23.676,-6.962 30.407,-8.123 6.731,-1.161 14.158,-5.106 20.425,-7.892 6.266,-2.785 20.698,-10.005 23.189,-6.021 1.878,3.004 -9.494,8.343 -13.208,10.432 -3.715,2.089 -17.176,9.283 -25.067,11.604 -5.804,-0.463 -16.875,-0.117 -22.98,0.929 -8.123,1.393 -19.335,4.915 -25.3,7.195 -7.89,3.018 -20.193,10.91 -21.817,17.872 -1.623,6.964 2.09,9.981 6.035,12.767 3.945,2.785 16.017,9.981 26.692,13.694 0,0 4.178,0.232 6.035,0.928 1.856,0.696 6.034,2.554 8.123,3.25 l 4.624,1.712 v 0.608 c 9.516,1.857 18.124,-3.016 20.909,-5.105 2.785,-2.089 15.318,-13.463 20.657,-18.569 5.338,-5.106 18.8,-16.48 28.549,-21.121 7.497,-3.571 16.498,-7.09 20.657,-7.893 4.692,-0.904 12.696,-2.299 13.231,-0.696 0.463,1.392 -4.411,4.178 -6.732,4.411 -2.32,0.232 -5.803,-0.233 -10.444,0.928 -4.642,1.161 -16.311,6.537 -25.531,12.069 -10.446,6.267 -20.892,18.569 -25.998,23.443 -5.105,4.874 -16.013,14.855 -22.746,16.016 -6.731,1.16 -11.142,0.232 -12.998,-0.233"
       style="fill:#b2b1b1;fill-opacity:1;fill-rule:nonzero;stroke:none;stroke-width:0.1"
       id="path104113" />
    <path
       d="m 426.964,768.125 c -2.292,0.581 -7.41,-1.007 -9.052,-1.392 -2.796,-0.653 -9.747,-2.321 -9.98,-3.714 -4.178,-1.393 -28.318,-11.605 -34.352,-20.193 -6.035,-8.588 -2.554,-18.336 5.338,-23.211 7.892,-4.874 23.209,-11.606 31.334,-13.695 8.124,-2.088 23.676,-6.962 30.407,-8.123 6.731,-1.161 14.158,-5.106 20.425,-7.892 6.266,-2.785 20.698,-10.005 23.189,-6.021 1.878,3.004 -9.494,8.343 -13.208,10.432 -3.715,2.089 -17.176,9.283 -25.067,11.604 -5.804,-0.463 -16.875,-0.117 -22.98,0.929 -8.123,1.393 -19.335,4.915 -25.3,7.195 -7.89,3.018 -20.193,10.91 -21.817,17.872 -1.623,6.964 2.09,9.981 6.035,12.767 3.945,2.785 16.017,9.981 26.692,13.694 0,0 4.178,0.232 6.035,0.928 1.856,0.696 6.034,2.554 8.123,3.25 l 4.624,1.712 v 0.608 c 9.516,1.857 18.124,-3.016 20.909,-5.105 2.785,-2.089 15.318,-13.463 20.657,-18.569 5.338,-5.106 18.8,-16.48 28.549,-21.121 7.497,-3.571 16.498,-7.09 20.657,-7.893 4.692,-0.904 12.696,-2.299 13.231,-0.696 0.463,1.392 -4.411,4.178 -6.732,4.411 -2.32,0.232 -5.803,-0.233 -10.444,0.928 -4.642,1.161 -16.311,6.537 -25.531,12.069 -10.446,6.267 -20.892,18.569 -25.998,23.443 -5.105,4.874 -16.013,14.855 -22.746,16.016 -6.731,1.16 -11.142,0.232 -12.998,-0.233 z"
       style="fill:none;stroke:#231f20;stroke-width:0.5;stroke-linecap:round;stroke-linejoin:round;stroke-miterlimit:4;stroke-dasharray:2.8, 1.8;stroke-dashoffset:8.00381;stroke-opacity:1"
       id="path104115" />
    <path
       d="m 427.41,764.267 -0.446,3.858"
       style="fill:none;stroke:#231f20;stroke-width:0.5;stroke-linecap:round;stroke-linejoin:round;stroke-miterlimit:4;stroke-dasharray:2.8, 1.8;stroke-dashoffset:7.5038;stroke-opacity:1"
       id="path104117" />
    <path
       d="m 408.628,758.377 -0.696,4.642"
       style="fill:none;stroke:#231f20;stroke-width:0.5;stroke-linecap:round;stroke-linejoin:round;stroke-miterlimit:4;stroke-dasharray:2.8, 1.8;stroke-dashoffset:8.50381;stroke-opacity:1"
       id="path104119" />
    <path
       d="m 633.307,358.458 c 2.785,3.712 9.285,8.819 11.838,10.908 2.553,2.089 11.141,10.445 19.098,7.443"
       style="fill:none;stroke:#231f20;stroke-width:0.5;stroke-linecap:round;stroke-linejoin:round;stroke-miterlimit:4;stroke-dasharray:2.8, 1.8;stroke-dashoffset:0;stroke-opacity:1"
       id="path104121" />
    <path
       d="m 667.427,422.287 c -2.787,-4.026 -2.787,-9.518 -0.233,-11.374 2.555,-1.857 6.731,-2.322 10.445,2.785 3.714,5.107 3.713,10.91 2.089,12.999 -1.624,2.089 -6.034,4.641 -12.301,-4.41 z"
       style="fill:none;stroke:#231f20;stroke-width:0.5;stroke-linecap:round;stroke-linejoin:round;stroke-miterlimit:4;stroke-dasharray:2.8, 1.8;stroke-dashoffset:0;stroke-opacity:1"
       id="path104123" />
    <path
       d="m 699.921,494.704 c 9.183,4.478 25.07,7.892 29.711,8.588 4.642,0.697 8.124,1.159 6.267,-4.643 -1.857,-5.802 -6.963,-15.782 -17.873,-22.514 -9.192,-5.67 -15.781,-7.891 -21.818,-8.588 -6.035,-0.696 -11.604,0.232 -13.23,2.553 -1.625,2.321 -2.554,6.269 -0.929,9.518 1.625,3.249 8.355,10.444 17.872,15.086 z"
       style="fill:none;stroke:#231f20;stroke-width:0.5;stroke-linecap:round;stroke-linejoin:round;stroke-miterlimit:4;stroke-dasharray:2.8, 1.8;stroke-dashoffset:0;stroke-opacity:1"
       id="path104125" />
    <path
       d="m 607.544,463.834 c -6.048,0.211 -14.622,-3.483 -15.784,-9.517 -1.161,-6.034 -0.697,-19.73 7.891,-29.941 8.589,-10.212 21.588,-13.231 26.229,-12.535 4.642,0.697 15.318,8.125 14.158,22.515 -1.161,14.391 -6.035,28.548 -32.494,29.478 z"
       style="fill:none;stroke:#231f20;stroke-width:0.5;stroke-linecap:round;stroke-linejoin:round;stroke-miterlimit:4;stroke-dasharray:2.8, 1.8;stroke-dashoffset:0;stroke-opacity:1"
       id="path104127" />
    <path
       d="m 548.124,414.164 c -2.532,-3.038 -4.874,-11.143 -3.018,-18.571 1.857,-7.427 8.588,-19.263 16.016,-26.227 7.427,-6.963 16.945,-12.766 25.068,-14.855 8.123,-2.089 21.122,0.929 24.371,6.499 3.249,5.571 -2.089,17.64 -9.052,26.924 -6.964,9.285 -21.356,21.82 -29.014,25.533 -7.659,3.712 -17.407,9.052 -24.371,0.697 z"
       style="fill:none;stroke:#231f20;stroke-width:0.5;stroke-linecap:round;stroke-linejoin:round;stroke-miterlimit:4;stroke-dasharray:2.8, 1.8;stroke-dashoffset:0;stroke-opacity:1"
       id="path104129" />
    <path
       d="m 573.052,413.184 c -0.092,-4.128 -2.414,-26.41 -20.127,-33.886"
       style="fill:none;stroke:#231f20;stroke-width:0.5;stroke-linecap:round;stroke-linejoin:round;stroke-miterlimit:4;stroke-dasharray:2.8, 1.8;stroke-dashoffset:0;stroke-opacity:1"
       id="path104131" />
    <path
       d="m 593.661,396.798 c -5.847,-3.758 -21.926,-20.439 -23.867,-34.38"
       style="fill:none;stroke:#231f20;stroke-width:0.5;stroke-linecap:round;stroke-linejoin:round;stroke-miterlimit:4;stroke-dasharray:2.8, 1.8;stroke-dashoffset:0;stroke-opacity:1"
       id="path104133" />
    <path
       d="m 566.693,655.553 c -0.696,-1.856 -2.786,-8.123 -6.965,-6.963 0,0 3.482,-2.785 7.196,-3.481"
       style="fill:none;stroke:#231f20;stroke-width:0.5;stroke-linecap:round;stroke-linejoin:round;stroke-miterlimit:4;stroke-dasharray:2.8, 1.8;stroke-dashoffset:0;stroke-opacity:1"
       id="path104135" />
    <path
       d="m 570.406,653.464 c 2.785,-0.928 10.214,-2.321 15.088,-1.16 4.874,1.16 9.283,2.553 10.675,0 1.393,-2.553 -3.25,-5.105 -6.266,-5.338 -3.017,-0.233 -9.516,-0.696 -14.391,0.928 -4.874,1.625 -5.106,5.57 -5.106,5.57 z"
       style="fill:none;stroke:#231f20;stroke-width:0.5;stroke-linecap:round;stroke-linejoin:round;stroke-miterlimit:4;stroke-dasharray:2.8, 1.8;stroke-dashoffset:0;stroke-opacity:1"
       id="path104137" />
    <path
       d="m 558.341,644.486 c 2.549,0.854 7.225,0.971 9.075,0.492"
       style="fill:none;stroke:#231f20;stroke-width:0.5;stroke-linecap:round;stroke-linejoin:round;stroke-miterlimit:4;stroke-dasharray:2.8, 1.8;stroke-dashoffset:0;stroke-opacity:1"
       id="path104139" />
    <path
       d="m 550.376,619.269 c 1.231,-2.245 1.693,-7.12 1.461,-8.743 -0.23,-1.626 -0.696,-10.678 2.089,-12.07 2.786,-1.393 14.623,-0.696 21.586,3.249 6.964,3.946 26.804,28.335 25.588,45.734"
       style="fill:none;stroke:#231f20;stroke-width:0.5;stroke-linecap:round;stroke-linejoin:round;stroke-miterlimit:4;stroke-dasharray:2.8, 1.8;stroke-dashoffset:0;stroke-opacity:1"
       id="path104141" />
    <path
       d="m 566.028,598.517 c 4.378,-1.222 7.861,-5.632 9.718,-8.418 1.856,-2.785 8.6,-9.747 13.693,-9.747 5.094,0 16.016,5.106 22.282,12.533 6.267,7.427 9.516,20.426 7.659,32.495 -1.856,12.07 -7.662,23.21 -12.649,27.925"
       style="fill:none;stroke:#231f20;stroke-width:0.5;stroke-linecap:round;stroke-linejoin:round;stroke-miterlimit:4;stroke-dasharray:2.8, 1.8;stroke-dashoffset:0;stroke-opacity:1"
       id="path104143" />
    <path
       d="m 616.971,659.962 c 3.106,-3.712 10.997,-15.085 14.711,-26.691 3.714,-11.605 2.554,-27.156 -1.16,-34.815 -3.714,-7.661 -6.267,-12.535 -13.23,-17.409 -6.963,-4.874 -22.747,-16.712 -30.406,-20.193"
       style="fill:none;stroke:#231f20;stroke-width:0.5;stroke-linecap:round;stroke-linejoin:round;stroke-miterlimit:4;stroke-dasharray:2.8, 1.8;stroke-dashoffset:0;stroke-opacity:1"
       id="path104145" />
    <path
       d="m 653.705,682.073 c 1.188,-5.398 9.893,-54.487 -19.823,-61.805"
       style="fill:none;stroke:#231f20;stroke-width:0.5;stroke-linecap:round;stroke-linejoin:round;stroke-miterlimit:4;stroke-dasharray:2.8, 1.8;stroke-dashoffset:0;stroke-opacity:1"
       id="path104147" />
    <path
       d="m 632.624,629.793 c -0.506,2.012 1.844,8.352 4.397,9.281 2.553,0.928 6.729,0.464 8.587,-0.697 1.858,-1.16 3.288,-3.118 3.153,-7.593 -0.135,-4.476 3.535,-11.942 4.043,-15.154 0.696,-4.408 0.395,-13.275 -9.285,-19.727 -9.748,-6.5 -14.385,-7.933 -20.104,-9.393"
       style="fill:none;stroke:#231f20;stroke-width:0.5;stroke-linecap:round;stroke-linejoin:round;stroke-miterlimit:4;stroke-dasharray:2.8, 1.8;stroke-dashoffset:0;stroke-opacity:1"
       id="path104149" />
    <path
       d="m 650.438,623.042 c 4.919,1.177 21.64,10.461 32.308,18.121 9.88,7.093 17.465,16.311 20.714,21.418"
       style="fill:none;stroke:#231f20;stroke-width:0.5;stroke-linecap:round;stroke-linejoin:round;stroke-miterlimit:4;stroke-dasharray:2.8, 1.8;stroke-dashoffset:0;stroke-opacity:1"
       id="path104151" />
    <path
       d="m 713.919,670.579 c -2.624,-0.403 -7.731,-4.813 -9.587,-6.669 -1.857,-1.858 -3.714,-9.981 -1.393,-14.623 2.321,-4.643 8.347,-9.682 17.862,-11.771"
       style="fill:none;stroke:#231f20;stroke-width:0.5;stroke-linecap:round;stroke-linejoin:round;stroke-miterlimit:4;stroke-dasharray:2.8, 1.8;stroke-dashoffset:0;stroke-opacity:1"
       id="path104153" />
    <path
       d="m 577.602,552.731 c 0,0 9.749,6.267 9.284,8.123 -0.465,1.856 -11.837,6.266 -21.353,4.41 -9.517,-1.857 -17.409,-8.355 -14.857,-17.407"
       style="fill:none;stroke:#231f20;stroke-width:0.5;stroke-linecap:round;stroke-linejoin:round;stroke-miterlimit:4;stroke-dasharray:2.8, 1.8;stroke-dashoffset:0;stroke-opacity:1"
       id="path104155" />
    <path
       d="m 604.893,517.56 c 0,0 -0.599,7.549 -2.946,19.217 -2.348,11.667 -7.634,13.4 -14.365,15.258 -6.73,1.854 -13.926,0.464 -20.889,-1.625 -6.963,-2.089 -9.981,-5.804 -11.839,-9.517 -1.856,-3.715 -0.405,-14.07 0.466,-17.407 1.392,-5.34 6.731,-14.623 10.213,-18.801 3.48,-4.178 11.205,-9.612 14.854,-10.445 3.308,-0.755 11.666,-0.158 14.451,1.003"
       style="fill:none;stroke:#231f20;stroke-width:0.5;stroke-linecap:round;stroke-linejoin:round;stroke-miterlimit:4;stroke-dasharray:2.8, 1.8;stroke-dashoffset:0;stroke-opacity:1"
       id="path104157" />
    <path
       d="m 595.321,494.8 c 1.777,-2.649 6.419,-6.124 13.383,-7.284"
       style="fill:none;stroke:#231f20;stroke-width:0.5;stroke-linecap:round;stroke-linejoin:round;stroke-miterlimit:4;stroke-dasharray:2.8, 1.8;stroke-dashoffset:0;stroke-opacity:1"
       id="path104159" />
    <path
       d="m 640.734,535.323 c 4.874,0.464 13.463,5.801 20.426,10.908 6.964,5.107 28.548,20.192 35.28,30.175 6.731,9.979 12.767,21.817 13.463,30.173 0.696,8.355 -1.392,19.73 2.321,24.372 3.713,4.641 6.267,7.659 13.694,6.499 7.426,-1.161 17.873,-15.321 19.729,-24.835 1.856,-9.518 3.017,-30.176 -8.124,-48.743 -11.142,-18.57 -37.834,-37.137 -45.261,-41.548 -7.428,-4.409 -21.585,-14.389 -35.048,-19.728 -13.462,-5.34 -32.264,-10.91 -40.155,-12.999 -7.891,-2.089 -29.709,-7.194 -37.368,-7.427 -7.66,-0.233 -17.408,-0.464 -21.586,-1.16 -4.179,-0.696 -14.158,-1.858 -14.855,-1.858"
       style="fill:none;stroke:#231f20;stroke-width:0.5;stroke-linecap:round;stroke-linejoin:round;stroke-miterlimit:4;stroke-dasharray:2.8, 1.8;stroke-dashoffset:0;stroke-opacity:1"
       id="path104161" />
    <path
       d="m 564.896,505.478 c 2.957,-5.668 6.901,-17.196 2.26,-23.733"
       style="fill:none;stroke:#231f20;stroke-width:0.5;stroke-linecap:round;stroke-linejoin:round;stroke-miterlimit:4;stroke-dasharray:2.8, 1.8;stroke-dashoffset:0;stroke-opacity:1"
       id="path104163" />
    <path
       d="m 659.411,503.505 c 3.605,-1.375 15.372,-3.921 24.344,-3.111"
       style="fill:none;stroke:#231f20;stroke-width:0.5;stroke-linecap:round;stroke-linejoin:round;stroke-miterlimit:4;stroke-dasharray:2.8, 1.8;stroke-dashoffset:0;stroke-opacity:1"
       id="path104165" />
    <path
       d="m 717.33,461.047 c 6.731,-0.926 28.317,6.964 33.655,13.463 5.339,6.5 21.585,21.819 28.317,27.853 6.732,6.035 14.854,9.053 20.194,18.568 5.338,9.518 9.051,21.355 8.355,38.763 -0.696,17.408 -5.36,30.479 -8.936,39.561"
       style="fill:none;stroke:#231f20;stroke-width:0.5;stroke-linecap:round;stroke-linejoin:round;stroke-miterlimit:4;stroke-dasharray:2.8, 1.8;stroke-dashoffset:0;stroke-opacity:1"
       id="path104167" />
    <path
       d="m 748.597,472.275 c -3.646,-4.728 -7.128,-17.726 -0.397,-28.402 6.73,-10.678 30.709,-21.354 45.332,-6.731"
       style="fill:none;stroke:#231f20;stroke-width:0.5;stroke-linecap:round;stroke-linejoin:round;stroke-miterlimit:4;stroke-dasharray:2.8, 1.8;stroke-dashoffset:0;stroke-opacity:1"
       id="path104169" />
    <path
       d="m 764.68,488.668 c 4.392,4.21 9.517,5.571 18.569,4.411 9.051,-1.161 35.281,-5.803 34.12,-25.764"
       style="fill:none;stroke:#231f20;stroke-width:0.5;stroke-linecap:round;stroke-linejoin:round;stroke-miterlimit:4;stroke-dasharray:2.8, 1.8;stroke-dashoffset:0;stroke-opacity:1"
       id="path104171" />
    <path
       d="m 783.933,492.988 c -4.631,-4.087 -16.004,-33.564 -3.238,-37.046 11.69,-3.188 15.895,31.941 15.143,34.539"
       style="fill:none;stroke:#231f20;stroke-width:0.5;stroke-linecap:round;stroke-linejoin:round;stroke-miterlimit:4;stroke-dasharray:2.8, 1.8;stroke-dashoffset:0;stroke-opacity:1"
       id="path104173" />
    <path
       d="m 775.253,462.239 c -0.36,-2.815 1.242,-10.261 1.497,-12.1 0.347,-2.524 -0.61,-10.27 -4.838,-19.9"
       style="fill:none;stroke:#231f20;stroke-width:0.5;stroke-linecap:round;stroke-linejoin:round;stroke-miterlimit:4;stroke-dasharray:2.8, 1.8;stroke-dashoffset:0;stroke-opacity:1"
       id="path104175" />
    <path
       d="m 735.026,452.66 c 0.932,1.531 5.051,1.192 5.747,-3.45 0.696,-4.641 0.232,-11.139 -2.089,-16.943 -2.321,-5.803 -6.965,-11.141 -10.214,-9.748 -3.249,1.393 -3.865,7.627 -2.048,12.865"
       style="fill:none;stroke:#231f20;stroke-width:0.5;stroke-linecap:round;stroke-linejoin:round;stroke-miterlimit:4;stroke-dasharray:2.8, 1.8;stroke-dashoffset:0;stroke-opacity:1"
       id="path104177" />
    <path
       d="m 740.325,437.788 c 3.465,-0.879 13.213,-16.197 5.09,-31.981 -8.123,-15.784 -6.269,-24.602 -7.196,-27.156 -0.927,-2.554 -7.564,-13.529 -11.905,-15.817"
       style="fill:none;stroke:#231f20;stroke-width:0.5;stroke-linecap:round;stroke-linejoin:round;stroke-miterlimit:4;stroke-dasharray:2.8, 1.8;stroke-dashoffset:0;stroke-opacity:1"
       id="path104179" />
    <path
       d="m 707.819,405.005 c 1.154,-5.697 7.422,-20.087 30.4,-26.354"
       style="fill:none;stroke:#231f20;stroke-width:0.5;stroke-linecap:round;stroke-linejoin:round;stroke-miterlimit:4;stroke-dasharray:2.8, 1.8;stroke-dashoffset:0;stroke-opacity:1"
       id="path104181" />
    <path
       d="m 738.495,380.31 c 4.831,-2.588 24.792,-6.303 32.451,-5.373 7.66,0.929 15.552,1.16 20.426,4.642 4.874,3.481 16.014,8.124 9.516,25.996"
       style="fill:none;stroke:#231f20;stroke-width:0.5;stroke-linecap:round;stroke-linejoin:round;stroke-miterlimit:4;stroke-dasharray:2.8, 1.8;stroke-dashoffset:0;stroke-opacity:1"
       id="path104183" />
    <path
       d="m 750.752,408.824 c 4.094,-5.633 19.164,7.295 15.32,11.141 -3.249,3.25 -17.176,-8.588 -15.32,-11.141 z"
       style="fill:none;stroke:#231f20;stroke-width:0.5;stroke-linecap:round;stroke-linejoin:round;stroke-miterlimit:4;stroke-dasharray:2.8, 1.8;stroke-dashoffset:0;stroke-opacity:1"
       id="path104185" />
    <path
       d="m 745.415,405.807 c 2.088,1.624 3.712,2.552 5.337,3.017"
       style="fill:none;stroke:#231f20;stroke-width:0.5;stroke-linecap:round;stroke-linejoin:round;stroke-miterlimit:4;stroke-dasharray:2.8, 1.8;stroke-dashoffset:0;stroke-opacity:1"
       id="path104187" />
    <path
       d="m 763.748,413.004 c 3.716,0.694 17.644,2.783 27.16,0.926"
       style="fill:none;stroke:#231f20;stroke-width:0.5;stroke-linecap:round;stroke-linejoin:round;stroke-miterlimit:4;stroke-dasharray:2.8, 1.8;stroke-dashoffset:0;stroke-opacity:1"
       id="path104189" />
    <path
       d="m 770.946,374.937 c -0.928,-3.482 -4.012,-20.657 -5.14,-24.139"
       style="fill:none;stroke:#231f20;stroke-width:0.5;stroke-linecap:round;stroke-linejoin:round;stroke-miterlimit:4;stroke-dasharray:2.8, 1.8;stroke-dashoffset:0;stroke-opacity:1"
       id="path104191" />
    <path
       d="m 787.876,377.763 c 5.121,-0.97 14.173,-4.452 12.548,-11.415 -1.626,-6.963 -1.433,-14.447 -1.202,-16.304 -4.641,-3.25 -9.707,-3.657 -11.796,-3.657 -2.089,0 -24.371,4.875 -33.192,7.197 -8.82,2.321 -22.692,8.124 -29.013,9.515 -7.511,1.654 -19.033,9.053 -22.282,15.552 -3.249,6.499 1.393,19.497 3.945,24.602 2.553,5.106 13.696,22.747 16.945,27.621 3.249,4.876 8.589,17.176 10.677,20.89 2.089,3.715 9.052,14.158 12.636,19.455"
       style="fill:none;stroke:#231f20;stroke-width:0.5;stroke-linecap:round;stroke-linejoin:round;stroke-miterlimit:4;stroke-dasharray:2.8, 1.8;stroke-dashoffset:0;stroke-opacity:1"
       id="path104193" />
    <path
       d="m 768.084,361.025 c 5.879,-1.871 20.783,-5.346 31.087,-4.421"
       style="fill:none;stroke:#231f20;stroke-width:0.5;stroke-linecap:round;stroke-linejoin:round;stroke-miterlimit:4;stroke-dasharray:2.8, 1.8;stroke-dashoffset:0;stroke-opacity:1"
       id="path104195" />
    <path
       d="m 802.195,390.978 c -0.146,-4.9 6.121,-17.201 17.263,-17.434 11.14,-0.233 17.174,11.141 18.104,13.694 0,0 1.247,12.06 1.623,13.463 0.301,1.12 0.138,2.661 0.138,2.661 -6.13,20.533 2.184,47.241 4.647,51.094"
       style="fill:none;stroke:#231f20;stroke-width:0.5;stroke-linecap:round;stroke-linejoin:round;stroke-miterlimit:4;stroke-dasharray:2.8, 1.8;stroke-dashoffset:0;stroke-opacity:1"
       id="path104197" />
    <path
       d="m 558.57,363.099 c 0,0 -5.109,-18.492 -6.384,-20.967"
       style="fill:none;stroke:#231f20;stroke-width:0.5;stroke-linecap:round;stroke-linejoin:round;stroke-miterlimit:4;stroke-dasharray:2.8, 1.8;stroke-dashoffset:0;stroke-opacity:1"
       id="path104199" />
    <path
       d="m 561.862,360.539 c 1.582,-3.01 5.867,-14.704 7.089,-17.295"
       style="fill:none;stroke:#231f20;stroke-width:0.5;stroke-linecap:round;stroke-linejoin:round;stroke-miterlimit:4;stroke-dasharray:2.8, 1.8;stroke-dashoffset:0;stroke-opacity:1"
       id="path104201" />
    <path
       d="m 853.755,509.42 c -6.615,-4.177 -22.572,-16.327 -25.827,-26.902 -1.392,-4.526 -0.696,-11.489 3.83,-16.016 4.527,-4.525 16.965,-16.075 19.403,-19.904"
       style="fill:none;stroke:#231f20;stroke-width:0.5;stroke-linecap:round;stroke-linejoin:round;stroke-miterlimit:4;stroke-dasharray:2.8, 1.8;stroke-dashoffset:0;stroke-opacity:1"
       id="path104203" />
    <path
       d="m 827.503,480.688 c -6.538,-8.614 -15.589,-20.452 -18.723,-24.63 -3.134,-4.178 -13.332,-14.716 -16.248,-20.774 -3.017,-6.267 -5.686,-15.435 -0.812,-22.398 4.874,-6.963 13.926,-9.749 22.282,-11.489 8.356,-1.741 14.275,-2.785 28.202,3.134"
       style="fill:none;stroke:#231f20;stroke-width:0.5;stroke-linecap:round;stroke-linejoin:round;stroke-miterlimit:4;stroke-dasharray:2.8, 1.8;stroke-dashoffset:0;stroke-opacity:1"
       id="path104205" />
    <path
       d="m 838.177,392.829 c 6.024,2.301 22.364,6.477 21.667,36.188"
       style="fill:none;stroke:#231f20;stroke-width:0.5;stroke-linecap:round;stroke-linejoin:round;stroke-miterlimit:4;stroke-dasharray:2.8, 1.8;stroke-dashoffset:0;stroke-opacity:1"
       id="path104207" />
    <path
       d="m 799.171,356.604 c 5.165,-1.614 20.517,-6.272 44.193,0.692 23.675,6.963 36.21,14.159 51.296,42.708 15.087,28.549 22.513,43.17 26.227,51.295 3.714,8.125 6.561,14.995 8.182,19.469 1.555,4.288 3.119,10.031 5.729,9.858 3.046,-0.204 3.034,-4.956 1.176,-12.15 -1.672,-6.471 -15.319,-38.762 -22.282,-50.831 -6.964,-12.07 -13.282,-26.205 -15.551,-30.175 -4.642,-8.123 -13.231,-17.873 -19.265,-23.907 -6.035,-6.034 -17.871,-14.389 -32.262,-16.943 -14.392,-2.554 -29.536,-3.91 -47.392,3.424"
       style="fill:none;stroke:#231f20;stroke-width:0.5;stroke-linecap:round;stroke-linejoin:round;stroke-miterlimit:4;stroke-dasharray:2.8, 1.8;stroke-dashoffset:0;stroke-opacity:1"
       id="path104209" />
    <path
       d="m 544.527,743.638 c 0,0 3.481,2.438 6.267,1.393"
       style="fill:none;stroke:#231f20;stroke-width:0.5;stroke-linecap:round;stroke-linejoin:round;stroke-miterlimit:4;stroke-dasharray:2.8, 1.8;stroke-dashoffset:1;stroke-opacity:1"
       id="path104211" />
    <path
       d="m 568.202,705.689 c 6.963,1.044 25.067,7.311 35.511,15.318 10.446,8.008 27.853,20.194 35.513,21.935 7.659,1.741 13.578,2.089 18.105,-1.045 4.525,-3.133 10.448,-8.777 3.132,-13.23 -8.007,-4.874 -18.104,-8.007 -25.763,-9.4"
       style="fill:none;stroke:#231f20;stroke-width:0.5;stroke-linecap:round;stroke-linejoin:round;stroke-miterlimit:4;stroke-dasharray:2.8, 1.8;stroke-dashoffset:0;stroke-opacity:1"
       id="path104213" />
    <path
       d="m 544.874,712.304 c -1.437,-0.598 0.697,-4.759 1.393,-6.847 0.696,-2.089 3.017,-13.23 2.785,-15.784 -0.231,-2.553 0.697,-7.891 3.017,-8.588 2.323,-0.696 7.429,-3.946 8.59,-5.106 1.159,-1.16 3.248,-2.321 3.944,-3.018 0.696,-0.696 2.322,-1.393 4.179,-1.16 1.856,0.233 10.676,1.161 13.462,0.929 2.785,-0.232 7.195,-0.929 9.284,-2.089 2.089,-1.161 7.196,-1.393 10.445,-0.232 3.249,1.16 8.588,3.945 10.445,4.177 1.856,0.233 8.586,0.464 11.605,1.857 3.018,1.392 13.229,6.035 15.551,7.428 2.322,1.392 6.091,4.07 3.22,4.762 -2.872,0.692 -15.752,-4.066 -19.699,-6.155 -3.947,-2.089 -12.534,-4.178 -16.015,-5.57 -3.482,-1.393 -9.516,-3.946 -14.623,-2.089 -5.107,1.856 -11.839,3.945 -17.177,3.713 -5.338,-0.232 -9.051,-0.697 -12.532,0.928 -3.482,1.625 -7.198,4.875 -8.59,5.803 -1.393,0.929 -1.855,4.178 -1.855,6.732 0,2.552 -1.162,8.124 -2.089,10.676 -0.93,2.553 -3.947,10.212 -5.34,9.633"
       style="fill:#b2b1b1;fill-opacity:1;fill-rule:nonzero;stroke:none;stroke-width:0.1"
       id="path104215" />
    <path
       d="m 544.874,712.304 c -1.437,-0.598 0.697,-4.759 1.393,-6.847 0.696,-2.089 3.017,-13.23 2.785,-15.784 -0.231,-2.553 0.697,-7.891 3.017,-8.588 2.323,-0.696 7.429,-3.946 8.59,-5.106 1.159,-1.16 3.248,-2.321 3.944,-3.018 0.696,-0.696 2.322,-1.393 4.179,-1.16 1.856,0.233 10.676,1.161 13.462,0.929 2.785,-0.232 7.195,-0.929 9.284,-2.089 2.089,-1.161 7.196,-1.393 10.445,-0.232 3.249,1.16 8.588,3.945 10.445,4.177 1.856,0.233 8.586,0.464 11.605,1.857 3.018,1.392 13.229,6.035 15.551,7.428 2.322,1.392 6.091,4.07 3.22,4.762 -2.872,0.692 -15.752,-4.066 -19.699,-6.155 -3.947,-2.089 -12.534,-4.178 -16.015,-5.57 -3.482,-1.393 -9.516,-3.946 -14.623,-2.089 -5.107,1.856 -11.839,3.945 -17.177,3.713 -5.338,-0.232 -9.051,-0.697 -12.532,0.928 -3.482,1.625 -7.198,4.875 -8.59,5.803 -1.393,0.929 -1.855,4.178 -1.855,6.732 0,2.552 -1.162,8.124 -2.089,10.676 -0.93,2.553 -3.947,10.212 -5.34,9.633 z"
       style="fill:none;stroke:#231f20;stroke-width:0.5;stroke-linecap:round;stroke-linejoin:round;stroke-miterlimit:4;stroke-dasharray:2.8, 1.8;stroke-dashoffset:0;stroke-opacity:1"
       id="path104217" />
    <path
       d="m 554.392,695.476 c 1.822,-4.221 4.757,-9.11 8.356,-10.213 4.359,-1.335 14.159,0 19.96,2.785 5.802,2.786 23.444,11.838 29.246,15.32 5.801,3.481 23.673,14.274 22.746,15.899 -0.928,1.625 -22.747,-12.883 -25.996,-14.739 -3.249,-1.857 -14.623,-9.283 -24.139,-12.301 -9.516,-3.019 -17.234,-5.687 -20.193,-4.411 -3.336,1.439 -5.802,3.249 -9.98,7.66"
       style="fill:#b2b1b1;fill-opacity:1;fill-rule:nonzero;stroke:none;stroke-width:0.1"
       id="path104219" />
    <path
       d="m 554.392,695.476 c 1.822,-4.221 4.757,-9.11 8.356,-10.213 4.359,-1.335 14.159,0 19.96,2.785 5.802,2.786 23.444,11.838 29.246,15.32 5.801,3.481 23.673,14.274 22.746,15.899 -0.928,1.625 -22.747,-12.883 -25.996,-14.739 -3.249,-1.857 -14.623,-9.283 -24.139,-12.301 -9.516,-3.019 -17.234,-5.687 -20.193,-4.411 -3.336,1.439 -5.802,3.249 -9.98,7.66 z"
       style="fill:none;stroke:#231f20;stroke-width:0.5;stroke-linecap:round;stroke-linejoin:round;stroke-miterlimit:4;stroke-dasharray:2.8, 1.8;stroke-dashoffset:0;stroke-opacity:1"
       id="path104221" />
    <path
       d="m 623.635,710.576 c -4.255,-3.494 -30.482,-21.368 -28.393,-25.777 2.09,-4.41 4.875,-4.177 7.427,-4.41 2.553,-0.232 8.356,-0.464 11.837,0.929 3.482,1.392 15.724,5.832 23.297,6.63"
       style="fill:none;stroke:#231f20;stroke-width:0.5;stroke-linecap:round;stroke-linejoin:round;stroke-miterlimit:4;stroke-dasharray:2.8, 1.8;stroke-dashoffset:0;stroke-opacity:1"
       id="path104223" />
    <path
       d="m 858.318,504.777 c 5.819,-8.332 22.531,-33.748 24.968,-42.104 1.988,-6.818 3.83,-22.282 -4.169,-31.691 -5.572,-6.551 -13.66,-6.876 -22.502,1.093"
       style="fill:none;stroke:#231f20;stroke-width:0.5;stroke-linecap:round;stroke-linejoin:round;stroke-miterlimit:4;stroke-dasharray:2.8, 1.8;stroke-dashoffset:0;stroke-opacity:1"
       id="path104225" />
    <path
       d="m 860.627,501.412 c 13.607,-8.797 54.01,-20.684 86.903,-21.356"
       style="fill:none;stroke:#231f20;stroke-width:0.5;stroke-linecap:round;stroke-linejoin:round;stroke-miterlimit:4;stroke-dasharray:2.8, 1.8;stroke-dashoffset:0;stroke-opacity:1"
       id="path104227" />
    <path
       d="m 858.186,538.571 c 3.862,-0.347 72.333,-9.452 88.755,-8.555"
       style="fill:none;stroke:#231f20;stroke-width:0.5;stroke-linecap:round;stroke-linejoin:round;stroke-miterlimit:4;stroke-dasharray:2.8, 1.8;stroke-dashoffset:0;stroke-opacity:1"
       id="path104229" />
    <path
       d="m 856.206,565.735 c 10.369,-1.051 79.807,-5.925 104.101,-5.751"
       style="fill:none;stroke:#231f20;stroke-width:0.5;stroke-linecap:round;stroke-linejoin:round;stroke-miterlimit:4;stroke-dasharray:2.8, 1.8;stroke-dashoffset:0;stroke-opacity:1"
       id="path104231" />
    <path
       d="m 853.075,591.159 c 12.107,0.681 104.53,3.799 115.591,5.897"
       style="fill:none;stroke:#231f20;stroke-width:0.5;stroke-linecap:round;stroke-linejoin:round;stroke-miterlimit:4;stroke-dasharray:2.8, 1.8;stroke-dashoffset:0;stroke-opacity:1"
       id="path104233" />
    <path
       d="M 839.698,639.167 964.64,673.371"
       style="fill:none;stroke:#231f20;stroke-width:0.5;stroke-linecap:round;stroke-linejoin:round;stroke-miterlimit:4;stroke-dasharray:2.8, 1.8;stroke-dashoffset:0;stroke-opacity:1"
       id="path104235" />
    <path
       d="m 826.656,674.257 120.056,49.722"
       style="fill:none;stroke:#231f20;stroke-width:0.5;stroke-linecap:round;stroke-linejoin:round;stroke-miterlimit:4;stroke-dasharray:2.8, 1.8;stroke-dashoffset:0;stroke-opacity:1"
       id="path104237" />
    <path
       d="m 759.326,764.855 57.753,98.8"
       style="fill:none;stroke:#231f20;stroke-width:0.5;stroke-linecap:round;stroke-linejoin:round;stroke-miterlimit:4;stroke-dasharray:2.8, 1.8;stroke-dashoffset:0;stroke-opacity:1"
       id="path104239" />
    <path
       d="m 746.565,773.405 49.992,101.064"
       style="fill:none;stroke:#231f20;stroke-width:0.5;stroke-linecap:round;stroke-linejoin:round;stroke-miterlimit:4;stroke-dasharray:2.8, 1.8;stroke-dashoffset:0;stroke-opacity:1"
       id="path104241" />
    <path
       d="m 651.474,806.376 6.183,101.385"
       style="fill:none;stroke:#231f20;stroke-width:0.5;stroke-linecap:round;stroke-linejoin:round;stroke-miterlimit:4;stroke-dasharray:2.8, 1.8;stroke-dashoffset:0;stroke-opacity:1"
       id="path104243" />
    <path
       d="m 627.273,808.28 -6.043,97.611"
       style="fill:none;stroke:#231f20;stroke-width:0.5;stroke-linecap:round;stroke-linejoin:round;stroke-miterlimit:4;stroke-dasharray:2.8, 1.8;stroke-dashoffset:0;stroke-opacity:1"
       id="path104245" />
    <path
       d="m 607.957,802.387 -25.23,92.222"
       style="fill:none;stroke:#231f20;stroke-width:0.5;stroke-linecap:round;stroke-linejoin:round;stroke-miterlimit:4;stroke-dasharray:2.8, 1.8;stroke-dashoffset:0;stroke-opacity:1"
       id="path104247" />
    <path
       d="m 603.617,798.384 -62.476,49.41"
       style="fill:none;stroke:#231f20;stroke-width:0.5;stroke-linecap:round;stroke-linejoin:round;stroke-miterlimit:4;stroke-dasharray:2.8, 1.8;stroke-dashoffset:0;stroke-opacity:1"
       id="path104249" />
    <path
       d="m 608.239,463.804 c 6.752,0.365 34.12,2.351 54.081,20.455 5.126,4.65 10.276,4.745 15.618,10.49"
       style="fill:none;stroke:#231f20;stroke-width:0.5;stroke-linecap:round;stroke-linejoin:round;stroke-miterlimit:4;stroke-dasharray:2.8, 1.8;stroke-dashoffset:0;stroke-opacity:1"
       id="path104251" />
    <path
       d="m 602.129,463.138 c -9.672,-10e-4 -28.471,-10e-4 -33.347,-10e-4 -4.875,0 -17.177,0.93 -16.713,6.732 0.465,5.801 12.302,10.908 14.159,10.908 1.857,0 12.767,-4.176 20.89,-3.945 8.123,0.231 19.031,0.696 23.674,0.696 4.643,0 7.758,-0.909 7.66,-3.714 -0.116,-3.308 -0.986,-5.483 -8.56,-9.907"
       style="fill:none;stroke:#231f20;stroke-width:0.5;stroke-linecap:round;stroke-linejoin:round;stroke-miterlimit:4;stroke-dasharray:2.8, 1.8;stroke-dashoffset:0;stroke-opacity:1"
       id="path104253" />
    <path
       d="m 545.619,465.309 c -0.745,-1.939 -3.024,-9.364 -3.044,-10.99 -0.021,-1.627 -0.486,-4.179 4.853,-6.036 5.337,-1.858 17.407,-6.035 18.336,-7.196 0.929,-1.16 4.873,-5.107 3.946,-7.892 -0.928,-2.785 -10.966,-7.811 -14.419,-9.36"
       style="fill:none;stroke:#231f20;stroke-width:0.5;stroke-linecap:round;stroke-linejoin:round;stroke-miterlimit:4;stroke-dasharray:2.8, 1.8;stroke-dashoffset:0;stroke-opacity:1"
       id="path104255" />
    <path
       d="m 571.334,463.137 c 4.874,-2.32 9.286,-6.5 6.964,-13.694 -2.322,-7.195 -9.292,-10.411 -11.261,-9.848"
       style="fill:none;stroke:#231f20;stroke-width:0.5;stroke-linecap:round;stroke-linejoin:round;stroke-miterlimit:4;stroke-dasharray:2.8, 1.8;stroke-dashoffset:0;stroke-opacity:1"
       id="path104257" />
    <path
       d="m 569.668,718.134 0.277,-3.399"
       style="fill:none;stroke:#231f20;stroke-width:0.5;stroke-linecap:round;stroke-linejoin:round;stroke-miterlimit:4;stroke-dasharray:2.8, 1.8;stroke-dashoffset:0;stroke-opacity:1"
       id="path104259" />
    <path
       d="m 597.69,733.412 0.438,-3.159"
       style="fill:none;stroke:#231f20;stroke-width:0.5;stroke-linecap:round;stroke-linejoin:round;stroke-miterlimit:4;stroke-dasharray:2.8, 1.8;stroke-dashoffset:0;stroke-opacity:1"
       id="path104261" />
    <path
       d="m 510.334,718.134 -0.278,-3.399"
       style="fill:none;stroke:#231f20;stroke-width:0.5;stroke-linecap:round;stroke-linejoin:round;stroke-miterlimit:4;stroke-dasharray:2.8, 1.8;stroke-dashoffset:0;stroke-opacity:1"
       id="path104263" />
    <path
       d="m 482.31,733.412 -0.437,-3.159"
       style="fill:none;stroke:#231f20;stroke-width:0.5;stroke-linecap:round;stroke-linejoin:round;stroke-miterlimit:4;stroke-dasharray:2.8, 1.8;stroke-dashoffset:0;stroke-opacity:1"
       id="path104265" />
    <path
       d="m 446.694,358.458 c -2.786,3.712 -9.285,8.819 -11.838,10.908 -2.553,2.089 -11.141,10.445 -19.099,7.443"
       style="fill:none;stroke:#231f20;stroke-width:0.5;stroke-linecap:round;stroke-linejoin:round;stroke-miterlimit:4;stroke-dasharray:2.8, 1.8;stroke-dashoffset:0;stroke-opacity:1"
       id="path104267" />
    <path
       d="m 412.574,422.287 c 2.787,-4.026 2.787,-9.518 0.232,-11.374 -2.554,-1.857 -6.73,-2.322 -10.444,2.785 -3.715,5.107 -3.713,10.91 -2.089,12.999 1.623,2.089 6.034,4.641 12.301,-4.41 z"
       style="fill:none;stroke:#231f20;stroke-width:0.5;stroke-linecap:round;stroke-linejoin:round;stroke-miterlimit:4;stroke-dasharray:2.8, 1.8;stroke-dashoffset:0;stroke-opacity:1"
       id="path104269" />
    <path
       d="m 380.08,494.704 c -9.183,4.478 -25.07,7.892 -29.711,8.588 -4.642,0.697 -8.125,1.159 -6.267,-4.643 1.858,-5.802 6.963,-15.782 17.873,-22.514 9.191,-5.67 15.781,-7.891 21.817,-8.588 6.036,-0.696 11.605,0.232 13.23,2.553 1.625,2.321 2.555,6.269 0.929,9.518 -1.625,3.249 -8.355,10.444 -17.871,15.086 z"
       style="fill:none;stroke:#231f20;stroke-width:0.5;stroke-linecap:round;stroke-linejoin:round;stroke-miterlimit:4;stroke-dasharray:2.8, 1.8;stroke-dashoffset:0;stroke-opacity:1"
       id="path104271" />
    <path
       d="m 472.458,463.834 c 6.047,0.211 14.621,-3.483 15.782,-9.517 1.162,-6.034 0.698,-19.73 -7.891,-29.941 -8.588,-10.212 -21.587,-13.231 -26.228,-12.535 -4.642,0.697 -15.319,8.125 -14.159,22.515 1.161,14.391 6.036,28.548 32.496,29.478 z"
       style="fill:none;stroke:#231f20;stroke-width:0.5;stroke-linecap:round;stroke-linejoin:round;stroke-miterlimit:4;stroke-dasharray:2.8, 1.8;stroke-dashoffset:0;stroke-opacity:1"
       id="path104273" />
    <path
       d="m 531.876,414.164 c 2.532,-3.038 4.876,-11.143 3.018,-18.571 -1.857,-7.427 -8.588,-19.263 -16.016,-26.227 -7.426,-6.963 -16.944,-12.766 -25.067,-14.855 -8.124,-2.089 -21.123,0.929 -24.372,6.499 -3.249,5.571 2.09,17.64 9.053,26.924 6.963,9.285 21.356,21.82 29.013,25.533 7.66,3.712 17.409,9.052 24.371,0.697 z"
       style="fill:none;stroke:#231f20;stroke-width:0.5;stroke-linecap:round;stroke-linejoin:round;stroke-miterlimit:4;stroke-dasharray:2.8, 1.8;stroke-dashoffset:0;stroke-opacity:1"
       id="path104275" />
    <path
       d="m 506.948,413.184 c 0.093,-4.128 2.414,-26.41 20.128,-33.886"
       style="fill:none;stroke:#231f20;stroke-width:0.5;stroke-linecap:round;stroke-linejoin:round;stroke-miterlimit:4;stroke-dasharray:2.8, 1.8;stroke-dashoffset:0;stroke-opacity:1"
       id="path104277" />
    <path
       d="m 486.34,396.798 c 5.847,-3.758 21.926,-20.439 23.867,-34.38"
       style="fill:none;stroke:#231f20;stroke-width:0.5;stroke-linecap:round;stroke-linejoin:round;stroke-miterlimit:4;stroke-dasharray:2.8, 1.8;stroke-dashoffset:0;stroke-opacity:1"
       id="path104279" />
    <path
       d="m 513.307,655.553 c 0.696,-1.856 2.786,-8.123 6.964,-6.963 0,0 -3.48,-2.785 -7.194,-3.481"
       style="fill:none;stroke:#231f20;stroke-width:0.5;stroke-linecap:round;stroke-linejoin:round;stroke-miterlimit:4;stroke-dasharray:2.8, 1.8;stroke-dashoffset:0;stroke-opacity:1"
       id="path104281" />
    <path
       d="m 509.595,653.464 c -2.786,-0.928 -10.214,-2.321 -15.088,-1.16 -4.875,1.16 -9.284,2.553 -10.676,0 -1.393,-2.553 3.251,-5.105 6.267,-5.338 3.017,-0.233 9.516,-0.696 14.39,0.928 4.874,1.625 5.107,5.57 5.107,5.57 z"
       style="fill:none;stroke:#231f20;stroke-width:0.5;stroke-linecap:round;stroke-linejoin:round;stroke-miterlimit:4;stroke-dasharray:2.8, 1.8;stroke-dashoffset:0;stroke-opacity:1"
       id="path104283" />
    <path
       d="m 540,616.328 c -14.158,0 -14.623,10.212 -14.854,12.301 -0.232,2.089 -1.496,5.059 -3.715,8.356 -1.832,2.723 -0.928,6.266 0.696,8.124 1.625,1.857 6.732,2.321 8.357,1.161 1.624,-1.16 6.499,-3.25 9.516,-3.25 3.017,0 7.892,2.09 9.518,3.25 1.623,1.16 6.731,0.696 8.356,-1.161 1.624,-1.858 2.528,-5.401 0.696,-8.124 -2.22,-3.297 -3.484,-6.267 -3.716,-8.356 -0.231,-2.089 -0.696,-12.301 -14.854,-12.301 z"
       style="fill:none;stroke:#231f20;stroke-width:0.5;stroke-linecap:round;stroke-linejoin:round;stroke-miterlimit:4;stroke-dasharray:2.8, 1.8;stroke-dashoffset:0;stroke-opacity:1"
       id="path104285" />
    <path
       d="m 521.66,644.486 c -2.549,0.854 -7.225,0.971 -9.076,0.492"
       style="fill:none;stroke:#231f20;stroke-width:0.5;stroke-linecap:round;stroke-linejoin:round;stroke-miterlimit:4;stroke-dasharray:2.8, 1.8;stroke-dashoffset:0;stroke-opacity:1"
       id="path104287" />
    <path
       d="m 529.624,619.269 c -1.229,-2.245 -1.693,-7.12 -1.461,-8.743 0.232,-1.626 0.696,-10.678 -2.089,-12.07 -2.785,-1.393 -14.622,-0.696 -21.586,3.249 -6.963,3.946 -26.803,28.335 -25.587,45.734"
       style="fill:none;stroke:#231f20;stroke-width:0.5;stroke-linecap:round;stroke-linejoin:round;stroke-miterlimit:4;stroke-dasharray:2.8, 1.8;stroke-dashoffset:0;stroke-opacity:1"
       id="path104289" />
    <path
       d="m 526.074,598.456 c 1.313,0.395 11.838,-0.929 13.926,-0.929 2.089,0 12.613,1.324 13.926,0.929"
       style="fill:none;stroke:#231f20;stroke-width:0.5;stroke-linecap:round;stroke-linejoin:round;stroke-miterlimit:4;stroke-dasharray:2.8, 1.8;stroke-dashoffset:0;stroke-opacity:1"
       id="path104291" />
    <path
       d="m 513.972,598.517 c -4.377,-1.222 -7.86,-5.632 -9.717,-8.418 -1.856,-2.785 -8.6,-9.747 -13.693,-9.747 -5.094,0 -16.016,5.106 -22.282,12.533 -6.268,7.427 -9.517,20.426 -7.66,32.495 1.856,12.07 7.662,23.21 12.649,27.925"
       style="fill:none;stroke:#231f20;stroke-width:0.5;stroke-linecap:round;stroke-linejoin:round;stroke-miterlimit:4;stroke-dasharray:2.8, 1.8;stroke-dashoffset:0;stroke-opacity:1"
       id="path104293" />
    <path
       d="m 463.03,659.962 c -3.107,-3.712 -10.997,-15.085 -14.711,-26.691 -3.715,-11.605 -2.555,-27.156 1.16,-34.815 3.714,-7.661 6.267,-12.535 13.229,-17.409 6.964,-4.874 22.747,-16.712 30.407,-20.193"
       style="fill:none;stroke:#231f20;stroke-width:0.5;stroke-linecap:round;stroke-linejoin:round;stroke-miterlimit:4;stroke-dasharray:2.8, 1.8;stroke-dashoffset:0;stroke-opacity:1"
       id="path104295" />
    <path
       d="m 426.296,682.073 c -1.188,-5.398 -9.894,-54.487 19.822,-61.805"
       style="fill:none;stroke:#231f20;stroke-width:0.5;stroke-linecap:round;stroke-linejoin:round;stroke-miterlimit:4;stroke-dasharray:2.8, 1.8;stroke-dashoffset:0;stroke-opacity:1"
       id="path104297" />
    <path
       d="m 447.376,629.793 c 0.507,2.012 -1.844,8.352 -4.397,9.281 -2.553,0.928 -6.729,0.464 -8.587,-0.697 -1.857,-1.16 -3.287,-3.118 -3.152,-7.593 0.135,-4.476 -3.536,-11.942 -4.043,-15.154 -0.697,-4.408 -0.395,-13.275 9.284,-19.727 9.749,-6.5 14.385,-7.933 20.105,-9.393"
       style="fill:none;stroke:#231f20;stroke-width:0.5;stroke-linecap:round;stroke-linejoin:round;stroke-miterlimit:4;stroke-dasharray:2.8, 1.8;stroke-dashoffset:0;stroke-opacity:1"
       id="path104299" />
    <path
       d="m 429.563,623.042 c -4.919,1.177 -21.641,10.461 -32.309,18.121 -9.879,7.093 -17.464,16.311 -20.713,21.418"
       style="fill:none;stroke:#231f20;stroke-width:0.5;stroke-linecap:round;stroke-linejoin:round;stroke-miterlimit:4;stroke-dasharray:2.8, 1.8;stroke-dashoffset:0;stroke-opacity:1"
       id="path104301" />
    <path
       d="m 366.081,670.579 c 2.625,-0.403 7.731,-4.813 9.587,-6.669 1.857,-1.858 3.715,-9.981 1.393,-14.623 -2.321,-4.643 -8.346,-9.682 -17.862,-11.771"
       style="fill:none;stroke:#231f20;stroke-width:0.5;stroke-linecap:round;stroke-linejoin:round;stroke-miterlimit:4;stroke-dasharray:2.8, 1.8;stroke-dashoffset:0;stroke-opacity:1"
       id="path104303" />
    <path
       d="m 502.399,552.731 c 0,0 -9.75,6.267 -9.284,8.123 0.465,1.856 11.837,6.266 21.353,4.41 9.517,-1.857 17.408,-8.355 14.856,-17.407"
       style="fill:none;stroke:#231f20;stroke-width:0.5;stroke-linecap:round;stroke-linejoin:round;stroke-miterlimit:4;stroke-dasharray:2.8, 1.8;stroke-dashoffset:0;stroke-opacity:1"
       id="path104305" />
    <path
       d="m 520.184,547.161 c 2.785,0 6.122,0.696 9.14,0.696 3.017,0 8.588,-4.179 10.676,-4.179 2.089,0 7.66,4.179 10.676,4.179 3.02,0 6.354,-0.696 9.14,-0.696"
       style="fill:none;stroke:#231f20;stroke-width:0.5;stroke-linecap:round;stroke-linejoin:round;stroke-miterlimit:4;stroke-dasharray:2.8, 1.8;stroke-dashoffset:0;stroke-opacity:1"
       id="path104307" />
    <path
       d="m 409.556,509.327 c 11.605,6.73 19.266,20.889 29.71,25.996 10.445,5.105 20.194,6.266 26.228,5.57 6.035,-0.696 15.319,-5.57 21.586,-7.892 6.267,-2.321 15.551,-3.017 19.497,-3.713 3.945,-0.697 13.926,-4.643 18.104,-5.802 2.062,-0.574 6.732,-1.859 8.588,-2.322 1.857,-0.464 4.643,-5.338 6.731,-5.338 2.089,0 4.874,4.874 6.732,5.338 1.855,0.463 6.525,1.748 8.588,2.322 4.178,1.159 14.158,5.105 18.103,5.802 3.946,0.696 13.231,1.392 19.497,3.713 6.268,2.322 15.552,7.196 21.586,7.892 6.035,0.696 15.784,-0.465 26.228,-5.57 10.445,-5.107 18.105,-19.266 29.711,-25.996"
       style="fill:none;stroke:#231f20;stroke-width:0.5;stroke-linecap:round;stroke-linejoin:round;stroke-miterlimit:4;stroke-dasharray:2.8, 1.8;stroke-dashoffset:0;stroke-opacity:1"
       id="path104309" />
    <path
       d="m 475.108,517.56 c 0,0 0.599,7.549 2.945,19.217 2.348,11.667 7.634,13.4 14.365,15.258 6.731,1.854 13.926,0.464 20.889,-1.625 6.964,-2.089 9.982,-5.804 11.839,-9.517 1.856,-3.715 0.406,-14.07 -0.465,-17.407 -1.392,-5.34 -6.731,-14.623 -10.213,-18.801 -3.48,-4.178 -11.206,-9.612 -14.854,-10.445 -3.308,-0.755 -11.666,-0.158 -14.451,1.003"
       style="fill:none;stroke:#231f20;stroke-width:0.5;stroke-linecap:round;stroke-linejoin:round;stroke-miterlimit:4;stroke-dasharray:2.8, 1.8;stroke-dashoffset:0;stroke-opacity:1"
       id="path104311" />
    <path
       d="m 484.679,494.8 c -1.777,-2.649 -6.419,-6.124 -13.382,-7.284"
       style="fill:none;stroke:#231f20;stroke-width:0.5;stroke-linecap:round;stroke-linejoin:round;stroke-miterlimit:4;stroke-dasharray:2.8, 1.8;stroke-dashoffset:0;stroke-opacity:1"
       id="path104313" />
    <path
       d="m 439.266,535.323 c -4.874,0.464 -13.462,5.801 -20.426,10.908 -6.963,5.107 -28.548,20.192 -35.279,30.175 -6.732,9.979 -12.767,21.817 -13.463,30.173 -0.696,8.355 1.392,19.73 -2.321,24.372 -3.713,4.641 -6.267,7.659 -13.694,6.499 -7.427,-1.161 -17.873,-15.321 -19.73,-24.835 -1.856,-9.518 -3.017,-30.176 8.125,-48.743 11.141,-18.57 37.834,-37.137 45.261,-41.548 7.427,-4.409 21.585,-14.389 35.047,-19.728 13.463,-5.34 32.264,-10.91 40.155,-12.999 7.892,-2.089 29.71,-7.194 37.369,-7.427 7.659,-0.233 17.408,-0.464 21.586,-1.16 4.178,-0.696 14.158,-1.858 14.854,-1.858"
       style="fill:none;stroke:#231f20;stroke-width:0.5;stroke-linecap:round;stroke-linejoin:round;stroke-miterlimit:4;stroke-dasharray:2.8, 1.8;stroke-dashoffset:0;stroke-opacity:1"
       id="path104315" />
    <path
       d="m 540,470.332 c -5.338,0 -4.177,16.016 0,16.016 4.178,0 5.339,-16.016 0,-16.016 z"
       style="fill:none;stroke:#231f20;stroke-width:0.5;stroke-linecap:round;stroke-linejoin:round;stroke-miterlimit:4;stroke-dasharray:2.8, 1.8;stroke-dashoffset:0;stroke-opacity:1"
       id="path104317" />
    <path
       d="m 515.104,505.478 c -2.956,-5.668 -6.9,-17.196 -2.259,-23.733"
       style="fill:none;stroke:#231f20;stroke-width:0.5;stroke-linecap:round;stroke-linejoin:round;stroke-miterlimit:4;stroke-dasharray:2.8, 1.8;stroke-dashoffset:0;stroke-opacity:1"
       id="path104319" />
    <path
       d="m 420.589,503.505 c -3.605,-1.375 -15.372,-3.921 -24.343,-3.111"
       style="fill:none;stroke:#231f20;stroke-width:0.5;stroke-linecap:round;stroke-linejoin:round;stroke-miterlimit:4;stroke-dasharray:2.8, 1.8;stroke-dashoffset:0;stroke-opacity:1"
       id="path104321" />
    <path
       d="m 362.671,461.047 c -6.732,-0.926 -28.318,6.964 -33.656,13.463 -5.338,6.5 -21.584,21.819 -28.316,27.853 -6.733,6.035 -14.854,9.053 -20.194,18.568 -5.339,9.518 -9.051,21.355 -8.355,38.763 0.696,17.408 5.359,30.479 8.936,39.561"
       style="fill:none;stroke:#231f20;stroke-width:0.5;stroke-linecap:round;stroke-linejoin:round;stroke-miterlimit:4;stroke-dasharray:2.8, 1.8;stroke-dashoffset:0;stroke-opacity:1"
       id="path104323" />
    <path
       d="m 331.404,472.275 c 3.645,-4.728 7.127,-17.726 0.396,-28.402 -6.73,-10.678 -30.708,-21.354 -45.331,-6.731"
       style="fill:none;stroke:#231f20;stroke-width:0.5;stroke-linecap:round;stroke-linejoin:round;stroke-miterlimit:4;stroke-dasharray:2.8, 1.8;stroke-dashoffset:0;stroke-opacity:1"
       id="path104325" />
    <path
       d="m 315.32,488.668 c -4.392,4.21 -9.516,5.571 -18.568,4.411 -9.052,-1.161 -35.281,-5.803 -34.12,-25.764"
       style="fill:none;stroke:#231f20;stroke-width:0.5;stroke-linecap:round;stroke-linejoin:round;stroke-miterlimit:4;stroke-dasharray:2.8, 1.8;stroke-dashoffset:0;stroke-opacity:1"
       id="path104327" />
    <path
       d="m 296.068,492.988 c 4.631,-4.087 16.003,-33.564 3.238,-37.046 -11.69,-3.188 -15.895,31.941 -15.143,34.539"
       style="fill:none;stroke:#231f20;stroke-width:0.5;stroke-linecap:round;stroke-linejoin:round;stroke-miterlimit:4;stroke-dasharray:2.8, 1.8;stroke-dashoffset:0;stroke-opacity:1"
       id="path104329" />
    <path
       d="m 304.748,462.239 c 0.36,-2.815 -1.243,-10.261 -1.497,-12.1 -0.347,-2.524 0.61,-10.27 4.838,-19.9"
       style="fill:none;stroke:#231f20;stroke-width:0.5;stroke-linecap:round;stroke-linejoin:round;stroke-miterlimit:4;stroke-dasharray:2.8, 1.8;stroke-dashoffset:0;stroke-opacity:1"
       id="path104331" />
    <path
       d="m 344.975,452.66 c -0.933,1.531 -5.051,1.192 -5.747,-3.45 -0.697,-4.641 -0.233,-11.139 2.089,-16.943 2.321,-5.803 6.964,-11.141 10.213,-9.748 3.249,1.393 3.865,7.627 2.049,12.865"
       style="fill:none;stroke:#231f20;stroke-width:0.5;stroke-linecap:round;stroke-linejoin:round;stroke-miterlimit:4;stroke-dasharray:2.8, 1.8;stroke-dashoffset:0;stroke-opacity:1"
       id="path104333" />
    <path
       d="m 339.676,437.788 c -3.465,-0.879 -13.214,-16.197 -5.091,-31.981 8.125,-15.784 6.269,-24.602 7.197,-27.156 0.928,-2.554 7.564,-13.529 11.905,-15.817"
       style="fill:none;stroke:#231f20;stroke-width:0.5;stroke-linecap:round;stroke-linejoin:round;stroke-miterlimit:4;stroke-dasharray:2.8, 1.8;stroke-dashoffset:0;stroke-opacity:1"
       id="path104335" />
    <path
       d="m 372.182,405.005 c -1.155,-5.697 -7.422,-20.087 -30.4,-26.354"
       style="fill:none;stroke:#231f20;stroke-width:0.5;stroke-linecap:round;stroke-linejoin:round;stroke-miterlimit:4;stroke-dasharray:2.8, 1.8;stroke-dashoffset:0;stroke-opacity:1"
       id="path104337" />
    <path
       d="m 341.505,380.31 c -4.83,-2.588 -24.791,-6.303 -32.451,-5.373 -7.659,0.929 -15.551,1.16 -20.426,4.642 -4.874,3.481 -16.013,8.124 -9.515,25.996"
       style="fill:none;stroke:#231f20;stroke-width:0.5;stroke-linecap:round;stroke-linejoin:round;stroke-miterlimit:4;stroke-dasharray:2.8, 1.8;stroke-dashoffset:0;stroke-opacity:1"
       id="path104339" />
    <path
       d="m 329.248,408.824 c -4.094,-5.633 -19.164,7.295 -15.319,11.141 3.249,3.25 17.175,-8.588 15.319,-11.141 z"
       style="fill:none;stroke:#231f20;stroke-width:0.5;stroke-linecap:round;stroke-linejoin:round;stroke-miterlimit:4;stroke-dasharray:2.8, 1.8;stroke-dashoffset:0;stroke-opacity:1"
       id="path104341" />
    <path
       d="m 334.585,405.807 c -2.088,1.624 -3.711,2.552 -5.337,3.017"
       style="fill:none;stroke:#231f20;stroke-width:0.5;stroke-linecap:round;stroke-linejoin:round;stroke-miterlimit:4;stroke-dasharray:2.8, 1.8;stroke-dashoffset:0;stroke-opacity:1"
       id="path104343" />
    <path
       d="m 316.253,413.004 c -3.716,0.694 -17.644,2.783 -27.161,0.926"
       style="fill:none;stroke:#231f20;stroke-width:0.5;stroke-linecap:round;stroke-linejoin:round;stroke-miterlimit:4;stroke-dasharray:2.8, 1.8;stroke-dashoffset:0;stroke-opacity:1"
       id="path104345" />
    <path
       d="m 309.054,374.937 c 0.928,-3.482 4.013,-20.657 5.14,-24.139"
       style="fill:none;stroke:#231f20;stroke-width:0.5;stroke-linecap:round;stroke-linejoin:round;stroke-miterlimit:4;stroke-dasharray:2.8, 1.8;stroke-dashoffset:0;stroke-opacity:1"
       id="path104347" />
    <path
       d="m 292.126,377.763 c -5.123,-0.97 -14.174,-4.452 -12.549,-11.415 1.625,-6.963 1.433,-14.447 1.202,-16.304 4.641,-3.25 9.706,-3.657 11.795,-3.657 2.089,0 24.372,4.875 33.192,7.197 8.821,2.321 22.692,8.124 29.013,9.515 7.512,1.654 19.033,9.053 22.282,15.552 3.249,6.499 -1.393,19.497 -3.945,24.602 -2.553,5.106 -13.696,22.747 -16.945,27.621 -3.249,4.876 -8.587,17.176 -10.676,20.89 -2.089,3.715 -9.053,14.158 -12.636,19.455"
       style="fill:none;stroke:#231f20;stroke-width:0.5;stroke-linecap:round;stroke-linejoin:round;stroke-miterlimit:4;stroke-dasharray:2.8, 1.8;stroke-dashoffset:0;stroke-opacity:1"
       id="path104349" />
    <path
       d="m 311.918,361.025 c -5.881,-1.871 -20.784,-5.346 -31.088,-4.421"
       style="fill:none;stroke:#231f20;stroke-width:0.5;stroke-linecap:round;stroke-linejoin:round;stroke-miterlimit:4;stroke-dasharray:2.8, 1.8;stroke-dashoffset:0;stroke-opacity:1"
       id="path104351" />
    <path
       d="m 277.806,390.978 c 0.146,-4.9 -6.122,-17.201 -17.263,-17.434 -11.141,-0.233 -17.175,11.141 -18.104,13.694 0,0 -1.247,12.06 -1.624,13.463 -0.3,1.12 -0.137,2.661 -0.137,2.661 6.129,20.533 -2.184,47.241 -4.647,51.094"
       style="fill:none;stroke:#231f20;stroke-width:0.5;stroke-linecap:round;stroke-linejoin:round;stroke-miterlimit:4;stroke-dasharray:2.8, 1.8;stroke-dashoffset:0;stroke-opacity:1"
       id="path104353" />
    <path
       d="m 440.457,364.722 c 3.863,2.321 14.36,-1.623 16.681,-2.783 2.322,-1.16 9.748,-7.195 14.391,-9.284 4.641,-2.089 20.889,-2.089 29.477,-0.93 8.589,1.16 14.855,7.196 20.425,11.374 5.571,4.178 15.784,17.815 18.569,22.456 2.786,-4.641 13,-18.278 18.57,-22.456 5.57,-4.178 11.836,-10.214 20.425,-11.374 8.587,-1.159 24.836,-1.159 29.477,0.93 4.642,2.089 12.069,8.124 14.391,9.284 2.321,1.16 12.817,5.104 16.681,2.783"
       style="fill:none;stroke:#231f20;stroke-width:0.5;stroke-linecap:round;stroke-linejoin:round;stroke-miterlimit:4;stroke-dasharray:2.8, 1.8;stroke-dashoffset:0;stroke-opacity:1"
       id="path104355" />
    <path
       d="m 536.799,380.705 c 0,0 1.113,42.742 1.113,45.527 0,2.785 -0.465,23.906 -0.465,26.46 0,2.554 -0.464,6.499 2.553,6.499 3.017,0 2.554,-3.945 2.554,-6.499 0,-2.554 -0.465,-23.675 -0.465,-26.46 0,-2.785 1.113,-45.527 1.113,-45.527"
       style="fill:none;stroke:#231f20;stroke-width:0.5;stroke-linecap:round;stroke-linejoin:round;stroke-miterlimit:4;stroke-dasharray:2.8, 1.8;stroke-dashoffset:0;stroke-opacity:1"
       id="path104357" />
    <path
       d="m 521.431,363.099 c 0,0 5.109,-18.492 6.384,-20.967"
       style="fill:none;stroke:#231f20;stroke-width:0.5;stroke-linecap:round;stroke-linejoin:round;stroke-miterlimit:4;stroke-dasharray:2.8, 1.8;stroke-dashoffset:0;stroke-opacity:1"
       id="path104359" />
    <path
       d="m 521.431,363.099 c 2.321,-0.464 16.712,-1.625 18.569,-1.625 1.858,0 16.249,1.161 18.57,1.625"
       style="fill:none;stroke:#231f20;stroke-width:0.5;stroke-linecap:round;stroke-linejoin:round;stroke-miterlimit:4;stroke-dasharray:2.8, 1.8;stroke-dashoffset:0;stroke-opacity:1"
       id="path104361" />
    <path
       d="m 510.292,342.673 c 0.974,1.341 4.142,0.955 6.961,-1.16 2.786,-2.089 6.437,-2.564 7.428,-2.785 2.089,-0.464 9.517,-0.696 15.319,-0.696 5.802,0 13.23,0.232 15.32,0.696 0.991,0.221 4.642,0.696 7.428,2.785 2.819,2.115 5.987,2.501 6.962,1.16"
       style="fill:none;stroke:#231f20;stroke-width:0.5;stroke-linecap:round;stroke-linejoin:round;stroke-miterlimit:4;stroke-dasharray:2.8, 1.8;stroke-dashoffset:0;stroke-opacity:1"
       id="path104363" />
    <path
       d="m 518.138,360.539 c -1.581,-3.01 -5.867,-14.704 -7.088,-17.295"
       style="fill:none;stroke:#231f20;stroke-width:0.5;stroke-linecap:round;stroke-linejoin:round;stroke-miterlimit:4;stroke-dasharray:2.8, 1.8;stroke-dashoffset:0;stroke-opacity:1"
       id="path104365" />
    <path
       d="m 226.246,509.42 c 6.615,-4.177 22.572,-16.327 25.826,-26.902 1.392,-4.526 0.696,-11.489 -3.829,-16.016 -4.527,-4.525 -16.965,-16.075 -19.403,-19.904"
       style="fill:none;stroke:#231f20;stroke-width:0.5;stroke-linecap:round;stroke-linejoin:round;stroke-miterlimit:4;stroke-dasharray:2.8, 1.8;stroke-dashoffset:0;stroke-opacity:1"
       id="path104367" />
    <path
       d="m 252.498,480.688 c 6.538,-8.614 15.589,-20.452 18.723,-24.63 3.133,-4.178 13.332,-14.716 16.247,-20.774 3.017,-6.267 5.687,-15.435 0.813,-22.398 -4.874,-6.963 -13.927,-9.749 -22.282,-11.489 -8.357,-1.741 -14.275,-2.785 -28.202,3.134"
       style="fill:none;stroke:#231f20;stroke-width:0.5;stroke-linecap:round;stroke-linejoin:round;stroke-miterlimit:4;stroke-dasharray:2.8, 1.8;stroke-dashoffset:0;stroke-opacity:1"
       id="path104369" />
    <path
       d="m 241.823,392.829 c -6.024,2.301 -22.363,6.477 -21.666,36.188"
       style="fill:none;stroke:#231f20;stroke-width:0.5;stroke-linecap:round;stroke-linejoin:round;stroke-miterlimit:4;stroke-dasharray:2.8, 1.8;stroke-dashoffset:0;stroke-opacity:1"
       id="path104371" />
    <path
       d="m 280.83,356.604 c -5.166,-1.614 -20.518,-6.272 -44.193,0.692 -23.675,6.963 -36.21,14.159 -51.296,42.708 -15.087,28.549 -22.513,43.17 -26.228,51.295 -3.714,8.125 -6.561,14.995 -8.182,19.469 -1.554,4.288 -3.118,10.031 -5.729,9.858 -3.045,-0.204 -3.033,-4.956 -1.175,-12.15 1.671,-6.471 15.319,-38.762 22.282,-50.831 6.963,-12.07 13.281,-26.205 15.55,-30.175 4.643,-8.123 13.231,-17.873 19.266,-23.907 6.035,-6.034 17.871,-14.389 32.262,-16.943 14.392,-2.554 29.536,-3.91 47.392,3.424"
       style="fill:none;stroke:#231f20;stroke-width:0.5;stroke-linecap:round;stroke-linejoin:round;stroke-miterlimit:4;stroke-dasharray:2.8, 1.8;stroke-dashoffset:0;stroke-opacity:1"
       id="path104373" />
    <path
       d="m 535.474,743.638 c 0,0 -3.481,2.438 -6.266,1.393"
       style="fill:none;stroke:#231f20;stroke-width:0.5;stroke-linecap:round;stroke-linejoin:round;stroke-miterlimit:4;stroke-dasharray:2.8, 1.8;stroke-dashoffset:1;stroke-opacity:1"
       id="path104375" />
    <path
       d="m 511.799,705.689 c -6.963,1.044 -25.067,7.311 -35.512,15.318 -10.445,8.008 -27.853,20.194 -35.512,21.935 -7.66,1.741 -13.578,2.089 -18.105,-1.045 -4.526,-3.133 -10.449,-8.777 -3.133,-13.23 8.007,-4.874 18.104,-8.007 25.763,-9.4"
       style="fill:none;stroke:#231f20;stroke-width:0.5;stroke-linecap:round;stroke-linejoin:round;stroke-miterlimit:4;stroke-dasharray:2.8, 1.8;stroke-dashoffset:0;stroke-opacity:1"
       id="path104377" />
    <path
       d="m 535.126,712.304 c 1.438,-0.598 -0.696,-4.759 -1.392,-6.847 -0.697,-2.089 -3.018,-13.23 -2.786,-15.784 0.232,-2.553 -0.696,-7.891 -3.017,-8.588 -2.321,-0.696 -7.429,-3.946 -8.589,-5.106 -1.16,-1.16 -3.249,-2.321 -3.945,-3.018 -0.696,-0.696 -2.322,-1.393 -4.179,-1.16 -1.856,0.233 -10.676,1.161 -13.461,0.929 -2.785,-0.232 -7.195,-0.929 -9.285,-2.089 -2.089,-1.161 -7.195,-1.393 -10.444,-0.232 -3.249,1.16 -8.589,3.945 -10.444,4.177 -1.857,0.233 -8.588,0.464 -11.606,1.857 -3.018,1.392 -13.229,6.035 -15.552,7.428 -2.321,1.392 -6.09,4.07 -3.218,4.762 2.871,0.692 15.75,-4.066 19.698,-6.155 3.946,-2.089 12.533,-4.178 16.015,-5.57 3.482,-1.393 9.516,-3.946 14.622,-2.089 5.108,1.856 11.839,3.945 17.177,3.713 5.338,-0.232 9.051,-0.697 12.533,0.928 3.482,1.625 7.197,4.875 8.589,5.803 1.393,0.929 1.857,4.178 1.857,6.732 0,2.552 1.16,8.124 2.089,10.676 0.928,2.553 3.946,10.212 5.338,9.633"
       style="fill:#b2b1b1;fill-opacity:1;fill-rule:nonzero;stroke:none;stroke-width:0.1"
       id="path104379" />
    <path
       d="m 535.126,712.304 c 1.438,-0.598 -0.696,-4.759 -1.392,-6.847 -0.697,-2.089 -3.018,-13.23 -2.786,-15.784 0.232,-2.553 -0.696,-7.891 -3.017,-8.588 -2.321,-0.696 -7.429,-3.946 -8.589,-5.106 -1.16,-1.16 -3.249,-2.321 -3.945,-3.018 -0.696,-0.696 -2.322,-1.393 -4.179,-1.16 -1.856,0.233 -10.676,1.161 -13.461,0.929 -2.785,-0.232 -7.195,-0.929 -9.285,-2.089 -2.089,-1.161 -7.195,-1.393 -10.444,-0.232 -3.249,1.16 -8.589,3.945 -10.444,4.177 -1.857,0.233 -8.588,0.464 -11.606,1.857 -3.018,1.392 -13.229,6.035 -15.552,7.428 -2.321,1.392 -6.09,4.07 -3.218,4.762 2.871,0.692 15.75,-4.066 19.698,-6.155 3.946,-2.089 12.533,-4.178 16.015,-5.57 3.482,-1.393 9.516,-3.946 14.622,-2.089 5.108,1.856 11.839,3.945 17.177,3.713 5.338,-0.232 9.051,-0.697 12.533,0.928 3.482,1.625 7.197,4.875 8.589,5.803 1.393,0.929 1.857,4.178 1.857,6.732 0,2.552 1.16,8.124 2.089,10.676 0.928,2.553 3.946,10.212 5.338,9.633 z"
       style="fill:none;stroke:#231f20;stroke-width:0.5;stroke-linecap:round;stroke-linejoin:round;stroke-miterlimit:4;stroke-dasharray:2.8, 1.8;stroke-dashoffset:0;stroke-opacity:1"
       id="path104381" />
    <path
       d="m 525.61,695.476 c -1.823,-4.221 -4.759,-9.11 -8.357,-10.213 -4.359,-1.335 -14.159,0 -19.961,2.785 -5.801,2.786 -23.444,11.838 -29.246,15.32 -5.801,3.481 -23.672,14.274 -22.746,15.899 0.928,1.625 22.748,-12.883 25.997,-14.739 3.249,-1.857 14.622,-9.283 24.139,-12.301 9.516,-3.019 17.233,-5.687 20.193,-4.411 3.336,1.439 5.802,3.249 9.981,7.66"
       style="fill:#b2b1b1;fill-opacity:1;fill-rule:nonzero;stroke:none;stroke-width:0.1"
       id="path104383" />
    <path
       d="m 525.61,695.476 c -1.823,-4.221 -4.759,-9.11 -8.357,-10.213 -4.359,-1.335 -14.159,0 -19.961,2.785 -5.801,2.786 -23.444,11.838 -29.246,15.32 -5.801,3.481 -23.672,14.274 -22.746,15.899 0.928,1.625 22.748,-12.883 25.997,-14.739 3.249,-1.857 14.622,-9.283 24.139,-12.301 9.516,-3.019 17.233,-5.687 20.193,-4.411 3.336,1.439 5.802,3.249 9.981,7.66 z"
       style="fill:none;stroke:#231f20;stroke-width:0.5;stroke-linecap:round;stroke-linejoin:round;stroke-miterlimit:4;stroke-dasharray:2.8, 1.8;stroke-dashoffset:0;stroke-opacity:1"
       id="path104385" />
    <path
       d="m 456.366,710.576 c 4.254,-3.494 30.481,-21.368 28.392,-25.777 -2.089,-4.41 -4.874,-4.177 -7.426,-4.41 -2.553,-0.232 -8.356,-0.464 -11.838,0.929 -3.482,1.392 -15.723,5.832 -23.297,6.63"
       style="fill:none;stroke:#231f20;stroke-width:0.5;stroke-linecap:round;stroke-linejoin:round;stroke-miterlimit:4;stroke-dasharray:2.8, 1.8;stroke-dashoffset:0;stroke-opacity:1"
       id="path104387" />
    <path
       d="m 412.767,758.838 c -1.122,-2.783 -14.816,-12.299 -17.601,-16.012 -2.786,-3.714 -8.355,-11.142 -1.161,-18.105 7.195,-6.963 19.266,-10.909 25.764,-12.534 6.498,-1.624 23.577,-5.637 26.229,-6.267"
       style="fill:none;stroke:#231f20;stroke-width:0.5;stroke-linecap:round;stroke-linejoin:round;stroke-miterlimit:4;stroke-dasharray:2.8, 1.8;stroke-dashoffset:0;stroke-opacity:1"
       id="path104389" />
    <path
       d="m 221.683,504.777 c -5.819,-8.332 -22.531,-33.748 -24.969,-42.104 -1.988,-6.818 -3.83,-22.282 4.17,-31.691 5.571,-6.551 13.66,-6.876 22.501,1.093"
       style="fill:none;stroke:#231f20;stroke-width:0.5;stroke-linecap:round;stroke-linejoin:round;stroke-miterlimit:4;stroke-dasharray:2.8, 1.8;stroke-dashoffset:0;stroke-opacity:1"
       id="path104391" />
    <path
       d="m 219.374,501.412 c -13.607,-8.797 -54.01,-20.684 -86.903,-21.356"
       style="fill:none;stroke:#231f20;stroke-width:0.5;stroke-linecap:round;stroke-linejoin:round;stroke-miterlimit:4;stroke-dasharray:2.8, 1.8;stroke-dashoffset:0;stroke-opacity:1"
       id="path104393" />
    <path
       d="m 221.815,538.571 c -3.862,-0.347 -72.333,-9.452 -88.755,-8.555"
       style="fill:none;stroke:#231f20;stroke-width:0.5;stroke-linecap:round;stroke-linejoin:round;stroke-miterlimit:4;stroke-dasharray:2.8, 1.8;stroke-dashoffset:0;stroke-opacity:1"
       id="path104395" />
    <path
       d="m 223.794,565.735 c -10.368,-1.051 -79.806,-5.925 -104.1,-5.751"
       style="fill:none;stroke:#231f20;stroke-width:0.5;stroke-linecap:round;stroke-linejoin:round;stroke-miterlimit:4;stroke-dasharray:2.8, 1.8;stroke-dashoffset:0;stroke-opacity:1"
       id="path104397" />
    <path
       d="m 226.925,591.159 c -12.106,0.681 -104.529,3.799 -115.59,5.897"
       style="fill:none;stroke:#231f20;stroke-width:0.5;stroke-linecap:round;stroke-linejoin:round;stroke-miterlimit:4;stroke-dasharray:2.8, 1.8;stroke-dashoffset:0;stroke-opacity:1"
       id="path104399" />
    <path
       d="M 240.302,639.167 115.361,673.371"
       style="fill:none;stroke:#231f20;stroke-width:0.5;stroke-linecap:round;stroke-linejoin:round;stroke-miterlimit:4;stroke-dasharray:2.8, 1.8;stroke-dashoffset:0;stroke-opacity:1"
       id="path104401" />
    <path
       d="M 253.345,674.257 133.289,723.979"
       style="fill:none;stroke:#231f20;stroke-width:0.5;stroke-linecap:round;stroke-linejoin:round;stroke-miterlimit:4;stroke-dasharray:2.8, 1.8;stroke-dashoffset:0;stroke-opacity:1"
       id="path104403" />
    <path
       d="m 320.674,764.855 -57.752,98.8"
       style="fill:none;stroke:#231f20;stroke-width:0.5;stroke-linecap:round;stroke-linejoin:round;stroke-miterlimit:4;stroke-dasharray:2.8, 1.8;stroke-dashoffset:0;stroke-opacity:1"
       id="path104405" />
    <path
       d="M 333.435,773.405 283.443,874.469"
       style="fill:none;stroke:#231f20;stroke-width:0.5;stroke-linecap:round;stroke-linejoin:round;stroke-miterlimit:4;stroke-dasharray:2.8, 1.8;stroke-dashoffset:0;stroke-opacity:1"
       id="path104407" />
    <path
       d="m 428.527,806.376 -6.183,101.385"
       style="fill:none;stroke:#231f20;stroke-width:0.5;stroke-linecap:round;stroke-linejoin:round;stroke-miterlimit:4;stroke-dasharray:2.8, 1.8;stroke-dashoffset:0;stroke-opacity:1"
       id="path104409" />
    <path
       d="m 452.728,808.28 6.042,97.611"
       style="fill:none;stroke:#231f20;stroke-width:0.5;stroke-linecap:round;stroke-linejoin:round;stroke-miterlimit:4;stroke-dasharray:2.8, 1.8;stroke-dashoffset:0;stroke-opacity:1"
       id="path104411" />
    <path
       d="m 472.043,802.387 25.23,92.222"
       style="fill:none;stroke:#231f20;stroke-width:0.5;stroke-linecap:round;stroke-linejoin:round;stroke-miterlimit:4;stroke-dasharray:2.8, 1.8;stroke-dashoffset:0;stroke-opacity:1"
       id="path104413" />
    <path
       d="m 476.383,798.384 62.476,49.41"
       style="fill:none;stroke:#231f20;stroke-width:0.5;stroke-linecap:round;stroke-linejoin:round;stroke-miterlimit:4;stroke-dasharray:2.8, 1.8;stroke-dashoffset:0;stroke-opacity:1"
       id="path104415" />
    <path
       d="m 471.762,463.804 c -6.752,0.365 -34.121,2.351 -54.082,20.455 -5.125,4.65 -10.275,4.745 -15.618,10.49"
       style="fill:none;stroke:#231f20;stroke-width:0.5;stroke-linecap:round;stroke-linejoin:round;stroke-miterlimit:4;stroke-dasharray:2.8, 1.8;stroke-dashoffset:0;stroke-opacity:1"
       id="path104417" />
    <path
       d="m 477.872,463.138 c 9.671,-10e-4 28.471,-10e-4 33.346,-10e-4 4.875,0 17.177,0.93 16.713,6.732 -0.465,5.801 -12.301,10.908 -14.158,10.908 -1.858,0 -12.767,-4.176 -20.89,-3.945 -8.123,0.231 -19.032,0.696 -23.675,0.696 -4.643,0 -7.757,-0.909 -7.66,-3.714 0.117,-3.308 0.987,-5.483 8.561,-9.907"
       style="fill:none;stroke:#231f20;stroke-width:0.5;stroke-linecap:round;stroke-linejoin:round;stroke-miterlimit:4;stroke-dasharray:2.8, 1.8;stroke-dashoffset:0;stroke-opacity:1"
       id="path104419" />
    <path
       d="m 527.701,470.994 c 3.689,-4.656 9.978,-7.857 12.299,-7.857 2.321,0 8.611,3.201 12.3,7.857"
       style="fill:none;stroke:#231f20;stroke-width:0.5;stroke-linecap:round;stroke-linejoin:round;stroke-miterlimit:4;stroke-dasharray:2.8, 1.8;stroke-dashoffset:0;stroke-opacity:1"
       id="path104421" />
    <path
       d="m 534.382,465.309 c 0.744,-1.939 3.023,-9.364 3.044,-10.99 0.021,-1.627 0.485,-4.179 -4.853,-6.036 -5.338,-1.858 -17.407,-6.035 -18.336,-7.196 -0.93,-1.16 -4.873,-5.107 -3.945,-7.892 0.926,-2.785 10.964,-7.811 14.418,-9.36"
       style="fill:none;stroke:#231f20;stroke-width:0.5;stroke-linecap:round;stroke-linejoin:round;stroke-miterlimit:4;stroke-dasharray:2.8, 1.8;stroke-dashoffset:0;stroke-opacity:1"
       id="path104423" />
    <path
       d="m 508.666,463.137 c -4.874,-2.32 -9.285,-6.5 -6.963,-13.694 2.321,-7.195 9.292,-10.411 11.26,-9.848"
       style="fill:none;stroke:#231f20;stroke-width:0.5;stroke-linecap:round;stroke-linejoin:round;stroke-miterlimit:4;stroke-dasharray:2.8, 1.8;stroke-dashoffset:0;stroke-opacity:1"
       id="path104425" />
    <path
       d="m 667.234,758.838 c 1.122,-2.783 14.815,-12.299 17.6,-16.012 2.787,-3.714 8.355,-11.142 1.161,-18.105 -7.195,-6.963 -19.266,-10.909 -25.764,-12.534 -6.498,-1.624 -23.577,-5.637 -26.228,-6.267"
       style="fill:none;stroke:#231f20;stroke-width:0.5;stroke-linecap:round;stroke-linejoin:round;stroke-miterlimit:4;stroke-dasharray:2.8, 1.8;stroke-dashoffset:0;stroke-opacity:1"
       id="path104427" />
  </g>
</svg>
