<?xml version="1.0" encoding="UTF-8" standalone="no"?>
<!-- Created with Inkscape (http://www.inkscape.org/) -->

<svg
   version="1.1"
   id="svg111370"
   width="1440"
   height="1344"
   viewBox="0 0 1440 1344"
   xmlns="http://www.w3.org/2000/svg"
   xmlns:svg="http://www.w3.org/2000/svg">
  <defs
     id="defs111374" />
  <g
     id="g111378">
    <path
       d="m 540,337.579 c -3.377,0 -8.781,0 -14.184,0.696 -5.403,0.696 -2.701,7.66 -2.701,7.66 0,0 -4.391,-1.741 -8.781,-4.179 -4.39,-2.436 -5.742,-4.177 -20.601,-1.74 -14.859,2.437 -29.043,10.793 -45.591,20.541 -16.549,9.749 -29.72,22.282 -34.785,25.416 -5.065,3.134 -17.899,1.044 -20.939,0.348 -3.039,-0.697 -5.291,0.812 -5.291,0.812 2.25,-20.889 -25.215,-32.031 -45.028,-39.458 -19.813,-7.427 -46.379,-11.14 -67.543,-11.604 -21.164,-0.464 -43.227,1.856 -49.532,3.713 -6.305,1.856 -26.566,11.605 -43.228,31.566 -19.862,23.795 -28.368,43.636 -39.174,80.31 -10.807,36.674 -5.854,53.847 -4.954,60.347 0.903,6.499 -1.35,8.821 -4.051,12.999 -2.702,4.178 -7.009,11.875 -9.908,20.424 -2.725,8.038 -7.373,27.447 -9.456,49.208 -2.082,21.76 -1.35,45.956 0.902,60.811 4.502,29.71 29.719,84.951 58.988,123.945 29.269,38.994 53.808,64.758 104.465,90.522 50.657,25.763 87.131,38.646 147.244,37.949 60.113,-0.697 90.508,-18.105 100.978,-33.772 10.468,-15.667 13.17,-28.549 13.17,-37.601 0,9.052 2.702,21.934 13.17,37.601 10.47,15.667 40.865,33.075 100.978,33.772 60.113,0.697 96.587,-12.186 147.244,-37.949 50.657,-25.764 75.197,-51.528 104.466,-90.522 29.268,-38.994 54.485,-94.235 58.987,-123.945 2.252,-14.855 2.985,-39.051 0.901,-60.811 -2.081,-21.761 -6.73,-41.17 -9.455,-49.208 -2.9,-8.549 -7.206,-16.246 -9.907,-20.424 -2.703,-4.178 -4.955,-6.5 -4.052,-12.999 0.9,-6.5 5.853,-23.673 -4.954,-60.347 -10.806,-36.674 -19.311,-56.515 -39.174,-80.31 -16.662,-19.961 -36.922,-29.71 -43.228,-31.566 -6.305,-1.857 -28.368,-4.177 -49.531,-3.713 -21.164,0.464 -47.731,4.177 -67.543,11.604 -19.814,7.427 -47.279,18.569 -45.029,39.458 0,0 -2.252,-1.509 -5.291,-0.812 -3.04,0.696 -15.874,2.786 -20.939,-0.348 -5.065,-3.134 -18.237,-15.667 -34.784,-25.416 -16.549,-9.748 -30.733,-18.104 -45.592,-20.541 -14.859,-2.437 -16.211,-0.696 -20.601,1.74 -4.39,2.438 -8.78,4.179 -8.78,4.179 0,0 2.701,-6.964 -2.701,-7.66 -5.404,-0.696 -10.808,-0.696 -14.185,-0.696 z m 0,338.992 c 0,-7.428 -7.205,-11.373 -7.205,-11.373 2.251,0 5.179,-3.714 7.205,-3.714 2.027,0 4.954,3.714 7.206,3.714 0,0 -7.206,3.945 -7.206,11.373"
       style="fill:#ffffff;fill-opacity:1;fill-rule:nonzero;stroke:none;stroke-width:0.1"
       id="path112038" />
    <path
       d="m 540,337.579 c -3.377,0 -8.781,0 -14.184,0.696 -5.403,0.696 -2.701,7.66 -2.701,7.66 0,0 -4.391,-1.741 -8.781,-4.179 -4.39,-2.436 -5.742,-4.177 -20.601,-1.74 -14.859,2.437 -29.043,10.793 -45.591,20.541 -16.549,9.749 -29.72,22.282 -34.785,25.416 -5.065,3.134 -17.899,1.044 -20.939,0.348 -3.039,-0.697 -5.291,0.812 -5.291,0.812 2.25,-20.889 -25.215,-32.031 -45.028,-39.458 -19.813,-7.427 -46.379,-11.14 -67.543,-11.604 -21.164,-0.464 -43.227,1.856 -49.532,3.713 -6.305,1.856 -26.566,11.605 -43.228,31.566 -19.862,23.795 -28.368,43.636 -39.174,80.31 -10.807,36.674 -5.854,53.847 -4.954,60.347 0.903,6.499 -1.35,8.821 -4.051,12.999 -2.702,4.178 -7.009,11.875 -9.908,20.424 -2.725,8.038 -7.373,27.447 -9.456,49.208 -2.082,21.76 -1.35,45.956 0.902,60.811 4.502,29.71 29.719,84.951 58.988,123.945 29.269,38.994 53.808,64.758 104.465,90.522 50.657,25.763 87.131,38.646 147.244,37.949 60.113,-0.697 90.508,-18.105 100.978,-33.772 10.468,-15.667 13.17,-28.549 13.17,-37.601 0,9.052 2.702,21.934 13.17,37.601 10.47,15.667 40.865,33.075 100.978,33.772 60.113,0.697 96.587,-12.186 147.244,-37.949 50.657,-25.764 75.197,-51.528 104.466,-90.522 29.268,-38.994 54.485,-94.235 58.987,-123.945 2.252,-14.855 2.985,-39.051 0.901,-60.811 -2.081,-21.761 -6.73,-41.17 -9.455,-49.208 -2.9,-8.549 -7.206,-16.246 -9.907,-20.424 -2.703,-4.178 -4.955,-6.5 -4.052,-12.999 0.9,-6.5 5.853,-23.673 -4.954,-60.347 -10.806,-36.674 -19.311,-56.515 -39.174,-80.31 -16.662,-19.961 -36.922,-29.71 -43.228,-31.566 -6.305,-1.857 -28.368,-4.177 -49.531,-3.713 -21.164,0.464 -47.731,4.177 -67.543,11.604 -19.814,7.427 -47.279,18.569 -45.029,39.458 0,0 -2.252,-1.509 -5.291,-0.812 -3.04,0.696 -15.874,2.786 -20.939,-0.348 -5.065,-3.134 -18.237,-15.667 -34.784,-25.416 -16.549,-9.748 -30.733,-18.104 -45.592,-20.541 -14.859,-2.437 -16.211,-0.696 -20.601,1.74 -4.39,2.438 -8.78,4.179 -8.78,4.179 0,0 2.701,-6.964 -2.701,-7.66 -5.404,-0.696 -10.808,-0.696 -14.185,-0.696 z m 0,338.992 c 0,-7.428 -7.205,-11.373 -7.205,-11.373 2.251,0 5.179,-3.714 7.205,-3.714 2.027,0 4.954,3.714 7.206,3.714 0,0 -7.206,3.945 -7.206,11.373 z"
       style="fill:none;stroke:#231f20;stroke-width:0.75;stroke-linecap:round;stroke-linejoin:round;stroke-miterlimit:4;stroke-dasharray:none;stroke-opacity:1"
       id="path112040" />
    <path
       d="m 667.318,376.224 c 0,-1.729 -1.36,-3.133 -3.038,-3.133 -1.678,0 -3.041,1.404 -3.041,3.133 0,1.731 1.363,3.134 3.041,3.134 1.678,0 3.038,-1.403 3.038,-3.134"
       style="fill:#ffffff;fill-opacity:1;fill-rule:nonzero;stroke:none;stroke-width:0.1"
       id="path112042" />
    <path
       d="m 667.318,376.224 c 0,-1.729 -1.36,-3.133 -3.038,-3.133 -1.678,0 -3.041,1.404 -3.041,3.133 0,1.731 1.363,3.134 3.041,3.134 1.678,0 3.038,-1.403 3.038,-3.134 z"
       style="fill:none;stroke:#231f20;stroke-width:0.5;stroke-linecap:butt;stroke-linejoin:miter;stroke-miterlimit:4;stroke-dasharray:none;stroke-opacity:1"
       id="path112044" />
    <path
       d="m 655.837,367.172 c 0,-2.5 -2.268,-4.526 -5.066,-4.526 -2.798,0 -5.066,2.026 -5.066,4.526 0,2.5 2.268,4.527 5.066,4.527 2.798,0 5.066,-2.027 5.066,-4.527"
       style="fill:#ffffff;fill-opacity:1;fill-rule:nonzero;stroke:none;stroke-width:0.1"
       id="path112046" />
    <path
       d="m 655.837,367.172 c 0,-2.5 -2.268,-4.526 -5.066,-4.526 -2.798,0 -5.066,2.026 -5.066,4.526 0,2.5 2.268,4.527 5.066,4.527 2.798,0 5.066,-2.027 5.066,-4.527 z"
       style="fill:none;stroke:#231f20;stroke-width:0.5;stroke-linecap:butt;stroke-linejoin:miter;stroke-miterlimit:4;stroke-dasharray:none;stroke-opacity:1"
       id="path112048" />
    <path
       d="m 412.681,376.224 c 0,-1.729 1.361,-3.133 3.04,-3.133 1.678,0 3.039,1.404 3.039,3.133 0,1.731 -1.361,3.134 -3.039,3.134 -1.679,0 -3.04,-1.403 -3.04,-3.134"
       style="fill:#ffffff;fill-opacity:1;fill-rule:nonzero;stroke:none;stroke-width:0.1"
       id="path112050" />
    <path
       d="m 412.681,376.224 c 0,-1.729 1.361,-3.133 3.04,-3.133 1.678,0 3.039,1.404 3.039,3.133 0,1.731 -1.361,3.134 -3.039,3.134 -1.679,0 -3.04,-1.403 -3.04,-3.134 z"
       style="fill:none;stroke:#231f20;stroke-width:0.5;stroke-linecap:butt;stroke-linejoin:miter;stroke-miterlimit:4;stroke-dasharray:none;stroke-opacity:1"
       id="path112052" />
    <path
       d="m 424.164,367.172 c 0,-2.5 2.267,-4.526 5.066,-4.526 2.797,0 5.065,2.026 5.065,4.526 0,2.5 -2.268,4.527 -5.065,4.527 -2.799,0 -5.066,-2.027 -5.066,-4.527"
       style="fill:#ffffff;fill-opacity:1;fill-rule:nonzero;stroke:none;stroke-width:0.1"
       id="path112054" />
    <path
       d="m 424.164,367.172 c 0,-2.5 2.267,-4.526 5.066,-4.526 2.797,0 5.065,2.026 5.065,4.526 0,2.5 -2.268,4.527 -5.065,4.527 -2.799,0 -5.066,-2.027 -5.066,-4.527 z"
       style="fill:none;stroke:#231f20;stroke-width:0.5;stroke-linecap:butt;stroke-linejoin:miter;stroke-miterlimit:4;stroke-dasharray:none;stroke-opacity:1"
       id="path112056" />
    <path
       d="m 540,836.492 v -96.44"
       style="fill:none;stroke:#231f20;stroke-width:0.75;stroke-linecap:round;stroke-linejoin:round;stroke-miterlimit:4;stroke-dasharray:none;stroke-opacity:1"
       id="path112058" />
    <path
       d="m 730.471,763.727 c 0,0 14.522,-9.749 27.693,-22.282 13.171,-12.534 22.29,-21.586 22.29,-21.586 0,0 2.701,-19.846 2.364,-24.72 -0.338,-4.874 -1.863,-20.603 -4.728,-19.497 l -3.041,1.045 c 0,0 2.366,4.178 -1.687,6.963 -4.054,2.785 -13.51,11.489 -18.574,18.452 -5.068,6.964 -7.655,15.32 -8.556,26.925 -0.901,11.605 -6.304,22.05 -15.761,34.7"
       style="fill:#706d6e;fill-opacity:1;fill-rule:nonzero;stroke:none;stroke-width:0.1"
       id="path112060" />
    <path
       d="m 730.471,763.727 c 0,0 14.522,-9.749 27.693,-22.282 13.171,-12.534 22.29,-21.586 22.29,-21.586 0,0 2.701,-19.846 2.364,-24.72 -0.338,-4.874 -1.863,-20.603 -4.728,-19.497 l -3.041,1.045 c 0,0 2.366,4.178 -1.687,6.963 -4.054,2.785 -13.51,11.489 -18.574,18.452 -5.068,6.964 -7.655,15.32 -8.556,26.925 -0.901,11.605 -6.304,22.05 -15.761,34.7 z"
       style="fill:none;stroke:#231f20;stroke-width:0.75;stroke-linecap:round;stroke-linejoin:round;stroke-miterlimit:4;stroke-dasharray:none;stroke-opacity:1"
       id="path112062" />
    <path
       d="m 569.697,747.703 c 8.803,3.839 17.358,9.41 28.39,21.014 11.033,11.605 20.037,19.497 25.666,22.514 5.629,3.018 16.662,6.5 44.579,3.946 0,0 -9.3,5.135 -25.216,6.731 -16.211,1.626 -25.666,0.232 -35.124,-10.908 -8.394,-9.89 -14.193,-26.057 -22.406,-33.802"
       style="fill:none;stroke:#231f20;stroke-width:0.5;stroke-linecap:butt;stroke-linejoin:miter;stroke-miterlimit:4;stroke-dasharray:none;stroke-opacity:1"
       id="path112064" />
    <path
       d="m 543.825,724.87 c 0.453,-3.735 6.982,-3.27 10.583,-2.11 3.604,1.16 13.178,3.536 13.456,8.963"
       style="fill:none;stroke:#231f20;stroke-width:0.5;stroke-linecap:butt;stroke-linejoin:miter;stroke-miterlimit:4;stroke-dasharray:none;stroke-opacity:1"
       id="path112066" />
    <path
       d="m 540,711.851 v -35.28"
       style="fill:none;stroke:#231f20;stroke-width:0.75;stroke-linecap:round;stroke-linejoin:round;stroke-miterlimit:4;stroke-dasharray:none;stroke-opacity:1"
       id="path112068" />
    <path
       d="m 550.357,662.876 c 2.477,-0.928 6.304,-2.785 7.655,-2.785 1.351,0 11.708,0.465 18.012,0 6.303,-0.465 20.263,-3.017 24.09,-3.25 3.827,-0.231 7.204,-0.464 13.283,1.625 6.079,2.089 19.813,7.892 25.441,12.534 5.628,4.642 17.562,13.694 28.143,16.711 10.581,3.018 20.261,4.411 30.169,3.018 9.907,-1.393 22.289,-11.837 26.342,-15.318 4.052,-3.482 8.78,-9.053 17.56,-11.142 8.782,-2.089 25.667,-1.625 33.997,12.418"
       style="fill:none;stroke:#231f20;stroke-width:0.75;stroke-linecap:round;stroke-linejoin:round;stroke-miterlimit:4;stroke-dasharray:none;stroke-opacity:1"
       id="path112070" />
    <path
       d="m 558.012,660.091 c 4.278,-3.25 7.653,-6.266 14.182,-9.051 6.531,-2.787 12.385,-1.393 16.437,-0.465 4.053,0.927 9.006,0 11.483,0 2.476,0 7.428,0.464 8.554,1.625 1.127,1.16 2.377,2.673 3.102,5.746"
       style="fill:none;stroke:#231f20;stroke-width:0.5;stroke-linecap:butt;stroke-linejoin:miter;stroke-miterlimit:4;stroke-dasharray:none;stroke-opacity:1"
       id="path112072" />
    <path
       d="m 722.141,531.735 c -4.278,-2.32 -30.394,-13.693 -35.798,-13.693 0,0 7.656,-2.785 15.085,0 7.43,2.786 15.636,8.916 20.713,13.693 z"
       style="fill:none;stroke:#231f20;stroke-width:0.5;stroke-linecap:butt;stroke-linejoin:miter;stroke-miterlimit:4;stroke-dasharray:none;stroke-opacity:1"
       id="path112074" />
    <path
       d="m 588.857,500.402 c -3.215,-2.154 -4.277,-6.498 -2.026,-11.141 2.249,-4.643 6.978,-8.82 13.283,-6.267 6.304,2.552 8.33,6.499 5.851,11.373 -2.474,4.874 -8.102,12.071 -17.108,6.035 z"
       style="fill:none;stroke:#231f20;stroke-width:0.5;stroke-linecap:butt;stroke-linejoin:miter;stroke-miterlimit:4;stroke-dasharray:none;stroke-opacity:1"
       id="path112076" />
    <path
       d="m 738.65,664.96 c -4.126,-0.691 -5.477,-3.012 -5.477,-5.334 0,-2.32 0.902,-5.337 9.006,-10.212 8.105,-4.874 24.767,-11.837 28.368,-20.425 3.602,-8.587 6.079,-19.266 -0.674,-42.941 -6.755,-23.674 -10.359,-33.189 -18.013,-41.314 -7.654,-8.124 -21.614,-20.658 -29.494,-25.068 -7.879,-4.409 -25.666,-15.319 -33.095,-22.978 -7.431,-7.659 -15.311,-21.818 -15.536,-30.638 -0.226,-8.82 2.477,-19.264 10.357,-23.442 7.88,-4.179 17.041,2.879 22.289,6.963 11.032,8.587 27.243,26.227 38.724,39.458 11.483,13.229 20.264,22.747 28.369,35.28 8.105,12.534 10.131,26.461 12.608,39.691 2.605,13.907 13.509,32.262 18.912,38.994 5.404,6.729 13.284,16.247 15.536,18.566 2.25,2.323 0.45,6.732 -4.053,5.571 -4.504,-1.16 -10.809,-3.944 -13.284,1.161 -2.477,5.107 0.449,9.517 2.701,12.302 2.252,2.785 6.079,9.283 2.252,12.998 -3.827,3.714 -8.331,6.963 -8.331,6.963 0,0 3.378,6.267 3.378,12.533 0,6.268 -4.053,12.536 -6.755,12.767 -2.702,0.232 -5.853,-1.625 -6.529,-3.018 0,0 0.437,15.086 -3.376,15.784 -3.815,0.697 -3.982,-6.486 -4.056,-7.427"
       style="fill:none;stroke:#231f20;stroke-width:0.5;stroke-linecap:butt;stroke-linejoin:miter;stroke-miterlimit:4;stroke-dasharray:none;stroke-opacity:1"
       id="path112078" />
    <path
       d="m 740.002,664.545 c -1.651,-3.061 -1.876,-4.454 1.727,-7.007 3.602,-2.553 9.231,-7.195 18.461,-6.267 9.231,0.929 13.508,3.018 18.012,11.838 4.504,8.82 1.126,11.141 -0.112,12.533"
       style="fill:none;stroke:#231f20;stroke-width:0.5;stroke-linecap:butt;stroke-linejoin:miter;stroke-miterlimit:4;stroke-dasharray:none;stroke-opacity:1"
       id="path112080" />
    <path
       d="m 741.052,664.269 c 3.378,-4.41 10.132,-9.052 17.468,-9.298"
       style="fill:none;stroke:#231f20;stroke-width:0.5;stroke-linecap:butt;stroke-linejoin:miter;stroke-miterlimit:4;stroke-dasharray:none;stroke-opacity:1"
       id="path112082" />
    <path
       d="m 779.404,665.769 c -1.878,0.125 -12.283,-7.578 -7.869,-11.153"
       style="fill:none;stroke:#231f20;stroke-width:0.5;stroke-linecap:butt;stroke-linejoin:miter;stroke-miterlimit:4;stroke-dasharray:none;stroke-opacity:1"
       id="path112084" />
    <path
       d="m 756.809,651.173 c -1.572,4.972 8.494,6.619 9.653,1.154"
       style="fill:none;stroke:#231f20;stroke-width:0.5;stroke-linecap:butt;stroke-linejoin:miter;stroke-miterlimit:4;stroke-dasharray:none;stroke-opacity:1"
       id="path112086" />
    <path
       d="m 765.82,488.565 c -1.209,-2.854 -2.478,-6.269 -1.577,-6.733 0.901,-0.463 2.926,0.699 4.503,4.644 1.576,3.945 2.476,5.803 1.576,6.267 -0.901,0.464 -3.383,-1.535 -4.502,-4.178 z"
       style="fill:none;stroke:#231f20;stroke-width:0.5;stroke-linecap:butt;stroke-linejoin:miter;stroke-miterlimit:4;stroke-dasharray:none;stroke-opacity:1"
       id="path112088" />
    <path
       d="m 838.376,403.581 c 3.376,0 6.693,0.033 12.322,1.889"
       style="fill:none;stroke:#231f20;stroke-width:0.5;stroke-linecap:butt;stroke-linejoin:miter;stroke-miterlimit:4;stroke-dasharray:none;stroke-opacity:1"
       id="path112090" />
    <path
       d="m 669.684,387.12 c 2.024,5.584 10.13,23.92 15.534,32.972 5.403,9.053 24.089,29.247 30.168,34.353 6.079,5.105 17.337,14.623 20.49,16.015 3.151,1.393 5.627,-1.625 4.277,-7.196 -1.351,-5.57 -8.556,-19.266 -13.509,-27.388 -4.953,-8.124 -31.069,-43.869 -33.771,-48.743"
       style="fill:none;stroke:#231f20;stroke-width:0.5;stroke-linecap:butt;stroke-linejoin:miter;stroke-miterlimit:4;stroke-dasharray:none;stroke-opacity:1"
       id="path112092" />
    <path
       d="m 735.876,470.46 c -8.106,-6.962 -15.085,-16.712 -23.867,-28.318 -8.78,-11.604 -16.21,-21.818 -21.614,-31.334 -5.402,-9.516 -9.246,-18.996 -13.29,-23.192"
       style="fill:none;stroke:#231f20;stroke-width:0.5;stroke-linecap:butt;stroke-linejoin:miter;stroke-miterlimit:4;stroke-dasharray:none;stroke-opacity:1"
       id="path112094" />
    <path
       d="M 540,452.82 V 358.831"
       style="fill:none;stroke:#231f20;stroke-width:0.75;stroke-linecap:round;stroke-linejoin:round;stroke-miterlimit:4;stroke-dasharray:none;stroke-opacity:1"
       id="path112096" />
    <path
       d="m 614.973,427.752 c 2.508,1.393 7.654,-1.625 9.231,-7.196 1.576,-5.57 0.226,-10.909 -2.251,-11.837 -2.477,-0.927 -5.404,1.858 -7.43,7.428 -2.026,5.571 -2.478,9.98 0.45,11.605 z"
       style="fill:none;stroke:#231f20;stroke-width:0.5;stroke-linecap:butt;stroke-linejoin:miter;stroke-miterlimit:4;stroke-dasharray:none;stroke-opacity:1"
       id="path112098" />
    <path
       d="m 552.608,346.747 c 0,0 3.193,-0.362 4.278,-0.812"
       style="fill:none;stroke:#231f20;stroke-width:0.5;stroke-linecap:butt;stroke-linejoin:miter;stroke-miterlimit:4;stroke-dasharray:none;stroke-opacity:1"
       id="path112100" />
    <path
       d="m 299.546,719.859 c -37.147,-36.209 -47.955,-71.722 -59.437,-99.574 -11.483,-27.853 -14.522,-36.209 -17.562,-61.277 -3.039,-25.067 2.703,-32.726 4.053,-39.689 1.351,-6.964 1.689,-27.854 1.689,-34.12 0,-6.267 0.675,-16.016 0.675,-23.327 0,-7.311 1.013,-18.8 -2.364,-26.46 -3.377,-7.66 -5.065,-16.364 -4.053,-22.283 1.014,-5.919 6.755,-7.659 6.755,-7.659 -3.715,-1.392 -6.755,-1.045 -8.781,2.437 -2.026,3.482 -1.013,11.141 0.676,19.149 1.688,8.008 3.039,16.363 4.053,25.764 1.012,9.4 -1.351,33.771 -1.689,43.172 -0.338,9.4 1.013,17.059 -1.014,23.674 -2.284,7.461 -3.714,8.356 -4.389,20.194 -0.481,8.406 -0.676,39.342 9.456,72.069 6.953,22.459 16.947,52.377 31.407,80.076 6.609,12.663 15.018,24.154 22.965,35.513 25.329,36.209 49.981,48.742 74.297,59.535 24.316,10.793 64.842,22.979 84.428,26.113 19.588,3.133 30.395,-0.349 38.163,-7.312 7.767,-6.963 11.482,-24.72 13.846,-34.119 2.364,-9.401 8.78,-16.364 15.198,-22.283 6.416,-5.918 26.341,-9.4 32.082,-9.4 5.743,0 25.666,3.482 32.082,9.4 6.418,5.919 12.834,12.882 15.198,22.283 2.364,9.399 6.079,27.156 13.846,34.119 7.768,6.963 18.576,10.445 38.163,7.312 19.587,-3.134 60.113,-15.32 84.428,-26.113 24.316,-10.793 48.968,-23.326 74.297,-59.535 7.948,-11.359 16.356,-22.85 22.965,-35.513 14.46,-27.699 24.454,-57.617 31.408,-80.076 10.132,-32.727 9.936,-63.663 9.456,-72.069 -0.675,-11.838 -2.106,-12.733 -4.391,-20.194 -2.027,-6.615 -0.675,-14.274 -1.012,-23.674 -0.338,-9.401 -2.702,-33.772 -1.69,-43.172 1.014,-9.401 2.364,-17.756 4.053,-25.764 1.69,-8.008 2.701,-15.667 0.675,-19.149 -2.026,-3.482 -5.064,-3.829 -8.78,-2.437 0,0 5.742,1.74 6.754,7.659 1.014,5.919 -0.675,14.623 -4.052,22.283 -3.377,7.66 -2.365,19.149 -2.365,26.46 0,7.311 0.676,17.06 0.676,23.327 0,6.266 0.338,27.156 1.689,34.12 1.35,6.963 7.093,14.622 4.052,39.689 -3.038,25.068 -6.078,33.424 -17.561,61.277 -11.482,27.852 -22.289,63.365 -59.437,99.574"
       style="fill:none;stroke:#231f20;stroke-width:0.5;stroke-linecap:butt;stroke-linejoin:miter;stroke-miterlimit:4;stroke-dasharray:none;stroke-opacity:1"
       id="path112102" />
    <path
       d="m 349.529,763.727 c 0,0 -14.523,-9.749 -27.694,-22.282 -13.17,-12.534 -22.289,-21.586 -22.289,-21.586 0,0 -2.701,-19.846 -2.364,-24.72 0.338,-4.874 1.865,-20.603 4.729,-19.497 l 3.039,1.045 c 0,0 -2.364,4.178 1.688,6.963 4.053,2.785 13.509,11.489 18.575,18.452 5.066,6.964 7.654,15.32 8.555,26.925 0.901,11.605 6.305,22.05 15.761,34.7"
       style="fill:#706d6e;fill-opacity:1;fill-rule:nonzero;stroke:none;stroke-width:0.1"
       id="path112104" />
    <path
       d="m 349.529,763.727 c 0,0 -14.523,-9.749 -27.694,-22.282 -13.17,-12.534 -22.289,-21.586 -22.289,-21.586 0,0 -2.701,-19.846 -2.364,-24.72 0.338,-4.874 1.865,-20.603 4.729,-19.497 l 3.039,1.045 c 0,0 -2.364,4.178 1.688,6.963 4.053,2.785 13.509,11.489 18.575,18.452 5.066,6.964 7.654,15.32 8.555,26.925 0.901,11.605 6.305,22.05 15.761,34.7 z"
       style="fill:none;stroke:#231f20;stroke-width:0.75;stroke-linecap:round;stroke-linejoin:round;stroke-miterlimit:4;stroke-dasharray:none;stroke-opacity:1"
       id="path112106" />
    <path
       d="m 349.529,763.727 c 5.04,3.565 10.806,5.918 30.844,14.971 20.037,9.052 34.672,11.14 47.505,10.676 12.833,-0.464 30.169,-5.106 42.779,-22.282 12.021,-16.377 21.162,-24.835 33.32,-31.566 12.157,-6.732 31.295,-11.142 36.023,-11.142 4.728,0 23.866,4.41 36.024,11.142 12.157,6.731 21.298,15.189 33.32,31.566 12.609,17.176 29.945,21.818 42.778,22.282 12.833,0.464 27.468,-1.624 47.504,-10.676 20.039,-9.053 25.805,-11.406 30.845,-14.971"
       style="fill:none;stroke:#231f20;stroke-width:0.5;stroke-linecap:butt;stroke-linejoin:miter;stroke-miterlimit:4;stroke-dasharray:none;stroke-opacity:1"
       id="path112108" />
    <path
       d="m 510.302,747.703 c -8.802,3.839 -17.356,9.41 -28.388,21.014 -11.034,11.605 -20.038,19.497 -25.667,22.514 -5.629,3.018 -16.661,6.5 -44.579,3.946 0,0 9.3,5.135 25.217,6.731 16.21,1.626 25.666,0.232 35.122,-10.908 8.394,-9.89 14.195,-26.057 22.407,-33.802"
       style="fill:none;stroke:#231f20;stroke-width:0.5;stroke-linecap:butt;stroke-linejoin:miter;stroke-miterlimit:4;stroke-dasharray:none;stroke-opacity:1"
       id="path112110" />
    <path
       d="m 536.176,724.87 c -0.454,-3.735 -6.982,-3.27 -10.585,-2.11 -3.602,1.16 -13.177,3.536 -13.455,8.963"
       style="fill:none;stroke:#231f20;stroke-width:0.5;stroke-linecap:butt;stroke-linejoin:miter;stroke-miterlimit:4;stroke-dasharray:none;stroke-opacity:1"
       id="path112112" />
    <path
       d="m 425.177,694.674 c -10.806,3.483 -42.327,6.5 -58.087,10.91 -15.76,4.41 -22.064,12.766 -23.19,22.979 -1.127,10.213 1.802,19.032 11.481,28.316 9.681,9.286 32.198,19.961 45.706,25.3 13.508,5.339 23.64,6.267 38.95,2.554 15.309,-3.714 25.666,-15.552 34.221,-27.39 8.555,-11.837 23.866,-25.067 31.971,-29.709 8.105,-4.641 29.268,-13.694 33.771,-13.694 4.503,0 25.666,9.053 33.772,13.694 8.105,4.642 23.416,17.872 31.971,29.709 8.554,11.838 18.912,23.676 34.22,27.39 15.311,3.713 25.442,2.785 38.951,-2.554 13.507,-5.339 36.023,-16.014 45.704,-25.3 9.68,-9.284 12.609,-18.103 11.483,-28.316 -1.127,-10.213 -7.431,-18.569 -23.19,-22.979 -15.761,-4.41 -47.281,-7.427 -58.088,-10.91"
       style="fill:none;stroke:#231f20;stroke-width:0.5;stroke-linecap:butt;stroke-linejoin:miter;stroke-miterlimit:4;stroke-dasharray:none;stroke-opacity:1"
       id="path112114" />
    <path
       d="m 547.206,665.198 c -2.252,0 -5.179,-3.714 -7.206,-3.714 -2.026,0 -4.954,3.714 -7.205,3.714 0,0 -1.8,-1.625 -3.151,-2.322 0,0 -10e-4,-4.875 0.449,-8.587 0.451,-3.714 2.928,-11.838 9.907,-11.838 6.98,0 9.457,8.124 9.907,11.838 0.451,3.712 0.45,8.587 0.45,8.587 -1.351,0.697 -3.151,2.322 -3.151,2.322"
       style="fill:#706d6e;fill-opacity:1;fill-rule:nonzero;stroke:none;stroke-width:0.1"
       id="path112116" />
    <path
       d="m 547.206,665.198 c -2.252,0 -5.179,-3.714 -7.206,-3.714 -2.026,0 -4.954,3.714 -7.205,3.714 0,0 -1.8,-1.625 -3.151,-2.322 0,0 -10e-4,-4.875 0.449,-8.587 0.451,-3.714 2.928,-11.838 9.907,-11.838 6.98,0 9.457,8.124 9.907,11.838 0.451,3.712 0.45,8.587 0.45,8.587 -1.351,0.697 -3.151,2.322 -3.151,2.322 z"
       style="fill:none;stroke:#231f20;stroke-width:0.75;stroke-linecap:round;stroke-linejoin:round;stroke-miterlimit:4;stroke-dasharray:none;stroke-opacity:1"
       id="path112118" />
    <path
       d="m 529.644,662.876 c -2.478,-0.928 -6.305,-2.785 -7.655,-2.785 -1.352,0 -11.709,0.465 -18.012,0 -6.304,-0.465 -20.263,-3.017 -24.09,-3.25 -3.827,-0.231 -7.205,-0.464 -13.283,1.625 -6.079,2.089 -19.814,7.892 -25.442,12.534 -5.628,4.642 -17.561,13.694 -28.143,16.711 -10.581,3.018 -20.261,4.411 -30.169,3.018 -9.907,-1.393 -22.289,-11.837 -26.342,-15.318 -4.051,-3.482 -8.78,-9.053 -17.56,-11.142 -8.782,-2.089 -25.667,-1.625 -33.998,12.418"
       style="fill:none;stroke:#231f20;stroke-width:0.75;stroke-linecap:round;stroke-linejoin:round;stroke-miterlimit:4;stroke-dasharray:none;stroke-opacity:1"
       id="path112120" />
    <path
       d="m 521.989,660.091 c -4.279,-3.25 -7.654,-6.266 -14.184,-9.051 -6.53,-2.787 -12.384,-1.393 -16.436,-0.465 -4.052,0.927 -9.006,0 -11.482,0 -2.476,0 -7.429,0.464 -8.555,1.625 -1.126,1.16 -2.377,2.673 -3.103,5.746"
       style="fill:none;stroke:#231f20;stroke-width:0.5;stroke-linecap:butt;stroke-linejoin:miter;stroke-miterlimit:4;stroke-dasharray:none;stroke-opacity:1"
       id="path112122" />
    <path
       d="m 357.86,531.735 c 4.277,-2.32 30.393,-13.693 35.798,-13.693 0,0 -7.656,-2.785 -15.085,0 -7.43,2.786 -15.637,8.916 -20.713,13.693 z"
       style="fill:none;stroke:#231f20;stroke-width:0.5;stroke-linecap:butt;stroke-linejoin:miter;stroke-miterlimit:4;stroke-dasharray:none;stroke-opacity:1"
       id="path112124" />
    <path
       d="m 491.144,500.402 c 3.215,-2.154 4.276,-6.498 2.026,-11.141 -2.251,-4.643 -6.979,-8.82 -13.283,-6.267 -6.305,2.552 -8.33,6.499 -5.853,11.373 2.475,4.874 8.103,12.071 17.11,6.035 z"
       style="fill:none;stroke:#231f20;stroke-width:0.5;stroke-linecap:butt;stroke-linejoin:miter;stroke-miterlimit:4;stroke-dasharray:none;stroke-opacity:1"
       id="path112126" />
    <path
       d="m 341.351,664.96 c 4.125,-0.691 5.477,-3.012 5.477,-5.334 0,-2.32 -0.902,-5.337 -9.007,-10.212 -8.106,-4.874 -24.767,-11.837 -28.368,-20.425 -3.602,-8.587 -6.079,-19.266 0.675,-42.941 6.754,-23.674 10.359,-33.189 18.012,-41.314 7.654,-8.124 21.614,-20.658 29.494,-25.068 7.879,-4.409 25.666,-15.319 33.096,-22.978 7.43,-7.659 15.309,-21.818 15.535,-30.638 0.226,-8.82 -2.477,-19.264 -10.357,-23.442 -7.879,-4.179 -17.042,2.879 -22.289,6.963 -11.032,8.587 -27.242,26.227 -38.724,39.458 -11.482,13.229 -20.263,22.747 -28.369,35.28 -8.105,12.534 -10.131,26.461 -12.608,39.691 -2.605,13.907 -13.509,32.262 -18.913,38.994 -5.403,6.729 -13.284,16.247 -15.534,18.566 -2.251,2.323 -0.452,6.732 4.052,5.571 4.505,-1.16 10.809,-3.944 13.285,1.161 2.477,5.107 -0.45,9.517 -2.702,12.302 -2.252,2.785 -6.078,9.283 -2.252,12.998 3.827,3.714 8.331,6.963 8.331,6.963 0,0 -3.377,6.267 -3.377,12.533 0,6.268 4.053,12.536 6.754,12.767 2.702,0.232 5.854,-1.625 6.528,-3.018 0,0 -0.436,15.086 3.377,15.784 3.815,0.697 3.982,-6.486 4.056,-7.427"
       style="fill:none;stroke:#231f20;stroke-width:0.5;stroke-linecap:butt;stroke-linejoin:miter;stroke-miterlimit:4;stroke-dasharray:none;stroke-opacity:1"
       id="path112128" />
    <path
       d="m 339.999,664.545 c 1.65,-3.061 1.876,-4.454 -1.727,-7.007 -3.603,-2.553 -9.231,-7.195 -18.463,-6.267 -9.229,0.929 -13.507,3.018 -18.01,11.838 -4.505,8.82 -1.127,11.141 0.112,12.533"
       style="fill:none;stroke:#231f20;stroke-width:0.5;stroke-linecap:butt;stroke-linejoin:miter;stroke-miterlimit:4;stroke-dasharray:none;stroke-opacity:1"
       id="path112130" />
    <path
       d="m 338.948,664.269 c -3.377,-4.41 -10.132,-9.052 -17.467,-9.298"
       style="fill:none;stroke:#231f20;stroke-width:0.5;stroke-linecap:butt;stroke-linejoin:miter;stroke-miterlimit:4;stroke-dasharray:none;stroke-opacity:1"
       id="path112132" />
    <path
       d="m 300.597,665.769 c 1.877,0.125 12.283,-7.578 7.867,-11.153"
       style="fill:none;stroke:#231f20;stroke-width:0.5;stroke-linecap:butt;stroke-linejoin:miter;stroke-miterlimit:4;stroke-dasharray:none;stroke-opacity:1"
       id="path112134" />
    <path
       d="m 323.193,651.173 c 1.57,4.972 -8.496,6.619 -9.654,1.154"
       style="fill:none;stroke:#231f20;stroke-width:0.5;stroke-linecap:butt;stroke-linejoin:miter;stroke-miterlimit:4;stroke-dasharray:none;stroke-opacity:1"
       id="path112136" />
    <path
       d="m 314.18,488.565 c 1.209,-2.854 2.479,-6.269 1.577,-6.733 -0.901,-0.463 -2.925,0.699 -4.503,4.644 -1.576,3.945 -2.477,5.803 -1.576,6.267 0.902,0.464 3.382,-1.535 4.502,-4.178 z"
       style="fill:none;stroke:#231f20;stroke-width:0.5;stroke-linecap:butt;stroke-linejoin:miter;stroke-miterlimit:4;stroke-dasharray:none;stroke-opacity:1"
       id="path112138" />
    <path
       d="m 241.625,403.581 c -3.377,0 -6.694,0.033 -12.323,1.889"
       style="fill:none;stroke:#231f20;stroke-width:0.5;stroke-linecap:butt;stroke-linejoin:miter;stroke-miterlimit:4;stroke-dasharray:none;stroke-opacity:1"
       id="path112140" />
    <path
       d="m 410.315,387.12 c -2.023,5.584 -10.129,23.92 -15.533,32.972 -5.403,9.053 -24.089,29.247 -30.168,34.353 -6.079,5.105 -17.337,14.623 -20.489,16.015 -3.151,1.393 -5.629,-1.625 -4.278,-7.196 1.351,-5.57 8.555,-19.266 13.509,-27.388 4.953,-8.124 31.069,-43.869 33.771,-48.743"
       style="fill:none;stroke:#231f20;stroke-width:0.5;stroke-linecap:butt;stroke-linejoin:miter;stroke-miterlimit:4;stroke-dasharray:none;stroke-opacity:1"
       id="path112142" />
    <path
       d="m 344.125,470.46 c 8.106,-6.962 15.085,-16.712 23.866,-28.318 8.781,-11.604 16.211,-21.818 21.614,-31.334 5.403,-9.516 9.246,-18.996 13.29,-23.192"
       style="fill:none;stroke:#231f20;stroke-width:0.5;stroke-linecap:butt;stroke-linejoin:miter;stroke-miterlimit:4;stroke-dasharray:none;stroke-opacity:1"
       id="path112144" />
    <path
       d="m 465.028,427.752 c -2.508,1.393 -7.654,-1.625 -9.232,-7.196 -1.576,-5.57 -0.226,-10.909 2.251,-11.837 2.478,-0.927 5.404,1.858 7.43,7.428 2.026,5.571 2.478,9.98 -0.449,11.605 z"
       style="fill:none;stroke:#231f20;stroke-width:0.5;stroke-linecap:butt;stroke-linejoin:miter;stroke-miterlimit:4;stroke-dasharray:none;stroke-opacity:1"
       id="path112146" />
    <path
       d="m 540,358.831 c 0,-2.787 -5.178,-10.227 -12.608,-12.084 0,0 4.953,-1.624 12.608,-1.624 7.655,0 12.608,1.624 12.608,1.624 -7.429,1.857 -12.608,9.297 -12.608,12.084"
       style="fill:#706d6e;fill-opacity:1;fill-rule:nonzero;stroke:none;stroke-width:0.1"
       id="path112148" />
    <path
       d="m 540,358.831 c 0,-2.787 -5.178,-10.227 -12.608,-12.084 0,0 4.953,-1.624 12.608,-1.624 7.655,0 12.608,1.624 12.608,1.624 -7.429,1.857 -12.608,9.297 -12.608,12.084 z"
       style="fill:none;stroke:#231f20;stroke-width:0.75;stroke-linecap:round;stroke-linejoin:round;stroke-miterlimit:4;stroke-dasharray:none;stroke-opacity:1"
       id="path112150" />
    <path
       d="m 527.392,346.747 c 0,0 -3.192,-0.362 -4.277,-0.812"
       style="fill:none;stroke:#231f20;stroke-width:0.5;stroke-linecap:butt;stroke-linejoin:miter;stroke-miterlimit:4;stroke-dasharray:none;stroke-opacity:1"
       id="path112152" />
    <path
       d="m 546.304,377.384 c -1.576,5.804 -3.829,15.322 -4.052,20.659 -0.225,5.338 0.45,12.3 4.052,15.55 3.603,3.25 6.079,5.803 15.761,4.41 9.681,-1.392 14.858,-6.73 20.262,-11.14 5.404,-4.41 15.985,-15.087 18.688,-19.497 2.701,-4.41 8.555,-11.605 7.429,-21.354 -1.126,-9.748 -2.252,-12.764 -11.258,-15.319 -9.005,-2.554 -24.886,-0.85 -33.156,2.94"
       style="fill:none;stroke:#231f20;stroke-width:0.25;stroke-linecap:butt;stroke-linejoin:miter;stroke-miterlimit:4;stroke-dasharray:none;stroke-opacity:1"
       id="path112154" />
    <path
       d="m 533.696,377.384 c 1.576,5.804 3.828,15.322 4.053,20.659 0.225,5.338 -0.451,12.3 -4.053,15.55 -3.603,3.25 -6.079,5.803 -15.76,4.41 -9.682,-1.392 -14.859,-6.73 -20.263,-11.14 -5.403,-4.41 -15.985,-15.087 -18.687,-19.497 -2.701,-4.41 -8.557,-11.605 -7.43,-21.354 1.126,-9.748 2.253,-12.764 11.258,-15.319 9.005,-2.554 24.887,-0.85 33.156,2.94"
       style="fill:none;stroke:#231f20;stroke-width:0.25;stroke-linecap:butt;stroke-linejoin:miter;stroke-miterlimit:4;stroke-dasharray:none;stroke-opacity:1"
       id="path112156" />
    <path
       d="m 646.15,748.57 c 0,-3.25 -0.782,-6.313 -3.935,-8.402"
       style="fill:none;stroke:#231f20;stroke-width:0.5;stroke-linecap:butt;stroke-linejoin:miter;stroke-miterlimit:4;stroke-dasharray:none;stroke-opacity:1"
       id="path112158" />
    <path
       d="m 433.851,748.57 c 0,-3.25 0.782,-6.313 3.934,-8.402"
       style="fill:none;stroke:#231f20;stroke-width:0.5;stroke-linecap:butt;stroke-linejoin:miter;stroke-miterlimit:4;stroke-dasharray:none;stroke-opacity:1"
       id="path112160" />
    <path
       d="m 587.055,703.031 c 4.503,2.785 14.861,8.82 18.688,11.373 3.827,2.553 15.759,12.534 20.713,16.248 4.953,3.713 12.834,7.428 15.759,9.516"
       style="fill:none;stroke:#231f20;stroke-width:0.5;stroke-linecap:butt;stroke-linejoin:miter;stroke-miterlimit:4;stroke-dasharray:none;stroke-opacity:1"
       id="path112162" />
    <path
       d="m 492.946,703.031 c -4.504,2.785 -14.862,8.82 -18.688,11.373 -3.827,2.553 -15.759,12.534 -20.713,16.248 -4.954,3.713 -12.835,7.428 -15.76,9.516"
       style="fill:none;stroke:#231f20;stroke-width:0.5;stroke-linecap:butt;stroke-linejoin:miter;stroke-miterlimit:4;stroke-dasharray:none;stroke-opacity:1"
       id="path112164" />
    <path
       d="m 552.381,713.475 c 11.485,2.785 28.371,6.733 38.502,16.944 10.132,10.213 23.414,26.46 30.168,32.263 6.755,5.803 15.311,13.463 27.468,14.391 12.157,0.928 25.89,-3.018 36.474,-8.588 10.582,-5.57 17.111,-8.819 25.891,-14.158 8.781,-5.339 15.76,-12.998 16.66,-18.801 0.747,-4.818 1.126,-16.944 -15.084,-22.979 -16.21,-6.034 -25.441,-4.642 -40.3,-6.731 -14.86,-2.089 -29.945,-5.339 -40.977,-11.838 -11.032,-6.498 -14.634,-7.891 -17.335,-7.427 -2.702,0.464 -1.126,3.714 0.675,5.571 1.801,1.856 15.985,13.694 24.315,16.248 8.33,2.552 13.734,1.625 22.064,1.16 8.331,-0.464 26.117,0 41.877,6.034 15.76,6.035 18.234,14.392 18.012,19.497 -0.226,5.106 -3.153,12.07 -20.039,19.033 -16.885,6.964 -18.011,9.517 -23.639,12.534 -5.629,3.017 -12.382,8.123 -21.389,8.123 -9.006,0 -15.309,-0.696 -24.541,-8.355 -9.23,-7.66 -20.938,-21.122 -26.566,-26.692 -5.628,-5.571 -12.159,-13.231 -20.264,-17.409 -8.106,-4.177 -23.415,-9.749 -28.593,-10.909"
       style="fill:#b2b1b1;fill-opacity:1;fill-rule:nonzero;stroke:none;stroke-width:0.1"
       id="path112166" />
    <path
       d="m 552.381,713.475 c 11.485,2.785 28.371,6.733 38.502,16.944 10.132,10.213 23.414,26.46 30.168,32.263 6.755,5.803 15.311,13.463 27.468,14.391 12.157,0.928 25.89,-3.018 36.474,-8.588 10.582,-5.57 17.111,-8.819 25.891,-14.158 8.781,-5.339 15.76,-12.998 16.66,-18.801 0.747,-4.818 1.126,-16.944 -15.084,-22.979 -16.21,-6.034 -25.441,-4.642 -40.3,-6.731 -14.86,-2.089 -29.945,-5.339 -40.977,-11.838 -11.032,-6.498 -14.634,-7.891 -17.335,-7.427 -2.702,0.464 -1.126,3.714 0.675,5.571 1.801,1.856 15.985,13.694 24.315,16.248 8.33,2.552 13.734,1.625 22.064,1.16 8.331,-0.464 26.117,0 41.877,6.034 15.76,6.035 18.234,14.392 18.012,19.497 -0.226,5.106 -3.153,12.07 -20.039,19.033 -16.885,6.964 -18.011,9.517 -23.639,12.534 -5.629,3.017 -12.382,8.123 -21.389,8.123 -9.006,0 -15.309,-0.696 -24.541,-8.355 -9.23,-7.66 -20.938,-21.122 -26.566,-26.692 -5.628,-5.571 -12.159,-13.231 -20.264,-17.409 -8.106,-4.177 -23.415,-9.749 -28.593,-10.909"
       style="fill:none;stroke:#231f20;stroke-width:0.5;stroke-linecap:round;stroke-linejoin:round;stroke-miterlimit:4;stroke-dasharray:2.8, 1.8;stroke-dashoffset:0;stroke-opacity:1"
       id="path112168" />
    <path
       d="m 527.618,713.475 c -11.483,2.785 -28.369,6.733 -38.5,16.944 -10.132,10.213 -23.415,26.46 -30.169,32.263 -6.755,5.803 -15.31,13.463 -27.468,14.391 -12.157,0.928 -25.891,-3.018 -36.473,-8.588 -10.583,-5.57 -17.112,-8.819 -25.891,-14.158 -8.782,-5.339 -15.761,-12.998 -16.66,-18.801 -0.749,-4.818 -1.127,-16.944 15.083,-22.979 16.21,-6.034 25.442,-4.642 40.301,-6.731 14.86,-2.089 29.944,-5.339 40.976,-11.838 11.032,-6.498 14.634,-7.891 17.335,-7.427 2.702,0.464 1.126,3.714 -0.675,5.571 -1.801,1.856 -15.986,13.694 -24.315,16.248 -8.329,2.552 -13.733,1.625 -22.064,1.16 -8.331,-0.464 -26.116,0 -41.877,6.034 -15.761,6.035 -18.235,14.392 -18.011,19.497 0.224,5.106 3.152,12.07 20.038,19.033 16.885,6.964 18.01,9.517 23.64,12.534 5.629,3.017 12.382,8.123 21.388,8.123 9.006,0 15.31,-0.696 24.541,-8.355 9.23,-7.66 20.939,-21.122 26.567,-26.692 5.628,-5.571 12.158,-13.231 20.263,-17.409 8.105,-4.177 23.415,-9.749 28.593,-10.909"
       style="fill:#b2b1b1;fill-opacity:1;fill-rule:nonzero;stroke:none;stroke-width:0.1"
       id="path112170" />
    <path
       d="m 527.618,713.475 c -11.483,2.785 -28.369,6.733 -38.5,16.944 -10.132,10.213 -23.415,26.46 -30.169,32.263 -6.755,5.803 -15.31,13.463 -27.468,14.391 -12.157,0.928 -25.891,-3.018 -36.473,-8.588 -10.583,-5.57 -17.112,-8.819 -25.891,-14.158 -8.782,-5.339 -15.761,-12.998 -16.66,-18.801 -0.749,-4.818 -1.127,-16.944 15.083,-22.979 16.21,-6.034 25.442,-4.642 40.301,-6.731 14.86,-2.089 29.944,-5.339 40.976,-11.838 11.032,-6.498 14.634,-7.891 17.335,-7.427 2.702,0.464 1.126,3.714 -0.675,5.571 -1.801,1.856 -15.986,13.694 -24.315,16.248 -8.329,2.552 -13.733,1.625 -22.064,1.16 -8.331,-0.464 -26.116,0 -41.877,6.034 -15.761,6.035 -18.235,14.392 -18.011,19.497 0.224,5.106 3.152,12.07 20.038,19.033 16.885,6.964 18.01,9.517 23.64,12.534 5.629,3.017 12.382,8.123 21.388,8.123 9.006,0 15.31,-0.696 24.541,-8.355 9.23,-7.66 20.939,-21.122 26.567,-26.692 5.628,-5.571 12.158,-13.231 20.263,-17.409 8.105,-4.177 23.415,-9.749 28.593,-10.909"
       style="fill:none;stroke:#231f20;stroke-width:0.5;stroke-linecap:round;stroke-linejoin:round;stroke-miterlimit:4;stroke-dasharray:2.8, 1.8;stroke-dashoffset:0;stroke-opacity:1"
       id="path112172" />
    <path
       d="m 545.141,740.491 c 2.289,4.087 6.945,5.801 9.684,1.81"
       style="fill:none;stroke:#231f20;stroke-width:0.5;stroke-linecap:round;stroke-linejoin:round;stroke-miterlimit:4;stroke-dasharray:2.8, 1.8;stroke-dashoffset:0;stroke-opacity:1"
       id="path112174" />
    <path
       d="m 543.946,856.515 54.205,-54.094"
       style="fill:none;stroke:#231f20;stroke-width:0.5;stroke-linecap:round;stroke-linejoin:round;stroke-miterlimit:4;stroke-dasharray:2.8, 1.8;stroke-dashoffset:0;stroke-opacity:1"
       id="path112176" />
    <path
       d="m 588.178,897.762 25.24,-85.069"
       style="fill:none;stroke:#231f20;stroke-width:0.5;stroke-linecap:round;stroke-linejoin:round;stroke-miterlimit:4;stroke-dasharray:2.8, 1.8;stroke-dashoffset:0;stroke-opacity:1"
       id="path112178" />
    <path
       d="m 627.114,906.275 6.707,-92.381"
       style="fill:none;stroke:#231f20;stroke-width:0.5;stroke-linecap:round;stroke-linejoin:round;stroke-miterlimit:4;stroke-dasharray:2.8, 1.8;stroke-dashoffset:0;stroke-opacity:1"
       id="path112180" />
    <path
       d="m 655.161,907.875 -4.434,-97"
       style="fill:none;stroke:#231f20;stroke-width:0.5;stroke-linecap:round;stroke-linejoin:round;stroke-miterlimit:4;stroke-dasharray:2.8, 1.8;stroke-dashoffset:0;stroke-opacity:1"
       id="path112182" />
    <path
       d="m 748.207,774.837 45.709,98.836"
       style="fill:none;stroke:#231f20;stroke-width:0.5;stroke-linecap:round;stroke-linejoin:round;stroke-miterlimit:4;stroke-dasharray:2.8, 1.8;stroke-dashoffset:0;stroke-opacity:1"
       id="path112184" />
    <path
       d="m 808.003,866.474 -47.669,-99.55"
       style="fill:none;stroke:#231f20;stroke-width:0.5;stroke-linecap:round;stroke-linejoin:round;stroke-miterlimit:4;stroke-dasharray:2.8, 1.8;stroke-dashoffset:0;stroke-opacity:1"
       id="path112186" />
    <path
       d="m 820.979,692.005 109.648,49.083"
       style="fill:none;stroke:#231f20;stroke-width:0.5;stroke-linecap:round;stroke-linejoin:round;stroke-miterlimit:4;stroke-dasharray:2.8, 1.8;stroke-dashoffset:0;stroke-opacity:1"
       id="path112188" />
    <path
       d="m 837.144,656.126 114.344,42.362"
       style="fill:none;stroke:#231f20;stroke-width:0.5;stroke-linecap:round;stroke-linejoin:round;stroke-miterlimit:4;stroke-dasharray:2.8, 1.8;stroke-dashoffset:0;stroke-opacity:1"
       id="path112190" />
    <path
       d="m 856.752,595.29 109.111,0.591"
       style="fill:none;stroke:#231f20;stroke-width:0.5;stroke-linecap:round;stroke-linejoin:round;stroke-miterlimit:4;stroke-dasharray:2.8, 1.8;stroke-dashoffset:0;stroke-opacity:1"
       id="path112192" />
    <path
       d="m 861.989,550.302 87.263,-20.504"
       style="fill:none;stroke:#231f20;stroke-width:0.5;stroke-linecap:round;stroke-linejoin:round;stroke-miterlimit:4;stroke-dasharray:2.8, 1.8;stroke-dashoffset:0;stroke-opacity:1"
       id="path112194" />
    <path
       d="m 856.464,502.258 c 9.43,-6.615 42.477,-26.103 86.744,-24.018"
       style="fill:none;stroke:#231f20;stroke-width:0.5;stroke-linecap:round;stroke-linejoin:round;stroke-miterlimit:4;stroke-dasharray:2.8, 1.8;stroke-dashoffset:0;stroke-opacity:1"
       id="path112196" />
    <path
       d="m 857.614,501.47 c 6.593,-12.094 18.75,-30.198 20.439,-43.776 1.689,-13.578 -7.429,-25.068 -9.794,-27.505 -2.365,-2.437 -6.796,-5.927 -9.815,-1.397"
       style="fill:none;stroke:#231f20;stroke-width:0.5;stroke-linecap:round;stroke-linejoin:round;stroke-miterlimit:4;stroke-dasharray:2.8, 1.8;stroke-dashoffset:0;stroke-opacity:1"
       id="path112198" />
    <path
       d="m 684.993,768.485 -3.222,-4.753"
       style="fill:none;stroke:#231f20;stroke-width:0.5;stroke-linecap:round;stroke-linejoin:round;stroke-miterlimit:4;stroke-dasharray:2.8, 1.8;stroke-dashoffset:0;stroke-opacity:1"
       id="path112200" />
    <path
       d="m 708.712,755.631 c 0,0 -0.721,-2.87 -2.427,-4.06"
       style="fill:none;stroke:#231f20;stroke-width:0.5;stroke-linecap:round;stroke-linejoin:round;stroke-miterlimit:4;stroke-dasharray:2.8, 1.8;stroke-dashoffset:0;stroke-opacity:1"
       id="path112202" />
    <path
       d="m 697.657,755.396 c 4.682,-1.974 11.201,-11.515 12.551,-14.764 1.351,-3.249 4.726,-12.069 -3.602,-17.175 -8.329,-5.107 -19.587,-8.82 -31.07,-9.749 -11.482,-0.929 -23.376,-0.371 -35.328,-4.944"
       style="fill:none;stroke:#231f20;stroke-width:0.5;stroke-linecap:round;stroke-linejoin:round;stroke-miterlimit:4;stroke-dasharray:2.8, 1.8;stroke-dashoffset:0;stroke-opacity:1"
       id="path112204" />
    <path
       d="m 642.891,692.265 c -3.377,-1.392 -8.104,-4.089 -12.157,-6.41 -4.053,-2.32 -13.059,-5.803 -20.939,-9.052 -7.879,-3.249 -12.383,-2.321 -15.535,-1.857 -3.151,0.465 -10.356,1.16 -18.462,1.625 -8.105,0.464 -15.085,3.017 -20.488,5.106 -5.403,2.089 -5.853,5.571 -6.078,8.123 -0.226,2.553 -1.352,8.357 -1.352,8.357 0.676,-1.858 3.828,-8.588 5.179,-11.373 1.349,-2.785 5.628,-4.41 9.681,-5.339 4.052,-0.929 8.105,1.16 13.733,1.625 5.63,0.465 11.933,1.625 16.437,2.553 4.503,0.928 13.508,7.659 20.037,13.694 6.529,6.035 19.588,15.087 26.342,18.336 6.753,3.25 14.859,5.339 15.085,7.196 0.225,1.858 -1.129,1.982 -3.829,1.857 -5.008,-0.233 -12.833,-3.482 -20.713,-9.516 -7.879,-6.035 -16.885,-13.695 -25.215,-19.962 -8.331,-6.267 -24.091,-11.837 -34.448,-12.766 -10.356,-0.927 -15.761,2.553 -17.11,6.267 -1.351,3.715 -3.827,8.82 -4.728,10.213 -0.903,1.392 -2.477,10.213 -3.603,9.98 -1.126,-0.231 -0.9,-4.177 -0.9,-9.516 0,-5.338 0.675,-12.302 1.351,-15.319 0.675,-3.017 1.575,-5.803 5.403,-7.427 3.826,-1.625 11.032,-4.178 14.184,-5.107 3.152,-0.928 6.529,-1.161 11.258,0 4.728,1.161 10.356,0.464 14.184,-1.857 3.827,-2.321 8.781,-3.017 12.157,-1.624 3.378,1.392 8.781,3.945 12.158,4.41 3.378,0.464 8.328,0.463 13.283,4.178 4.954,3.714 11.482,7.66 16.66,9.284 5.18,1.625 10.808,1.856 10.357,6.73"
       style="fill:#b2b1b1;fill-opacity:1;fill-rule:nonzero;stroke:none;stroke-width:0.1"
       id="path112206" />
    <path
       d="m 642.891,692.265 c -3.377,-1.392 -8.104,-4.089 -12.157,-6.41 -4.053,-2.32 -13.059,-5.803 -20.939,-9.052 -7.879,-3.249 -12.383,-2.321 -15.535,-1.857 -3.151,0.465 -10.356,1.16 -18.462,1.625 -8.105,0.464 -15.085,3.017 -20.488,5.106 -5.403,2.089 -5.853,5.571 -6.078,8.123 -0.226,2.553 -1.352,8.357 -1.352,8.357 0.676,-1.858 3.828,-8.588 5.179,-11.373 1.349,-2.785 5.628,-4.41 9.681,-5.339 4.052,-0.929 8.105,1.16 13.733,1.625 5.63,0.465 11.933,1.625 16.437,2.553 4.503,0.928 13.508,7.659 20.037,13.694 6.529,6.035 19.588,15.087 26.342,18.336 6.753,3.25 14.859,5.339 15.085,7.196 0.225,1.858 -1.129,1.982 -3.829,1.857 -5.008,-0.233 -12.833,-3.482 -20.713,-9.516 -7.879,-6.035 -16.885,-13.695 -25.215,-19.962 -8.331,-6.267 -24.091,-11.837 -34.448,-12.766 -10.356,-0.927 -15.761,2.553 -17.11,6.267 -1.351,3.715 -3.827,8.82 -4.728,10.213 -0.903,1.392 -2.477,10.213 -3.603,9.98 -1.126,-0.231 -0.9,-4.177 -0.9,-9.516 0,-5.338 0.675,-12.302 1.351,-15.319 0.675,-3.017 1.575,-5.803 5.403,-7.427 3.826,-1.625 11.032,-4.178 14.184,-5.107 3.152,-0.928 6.529,-1.161 11.258,0 4.728,1.161 10.356,0.464 14.184,-1.857 3.827,-2.321 8.781,-3.017 12.157,-1.624 3.378,1.392 8.781,3.945 12.158,4.41 3.378,0.464 8.328,0.463 13.283,4.178 4.954,3.714 11.482,7.66 16.66,9.284 5.18,1.625 10.808,1.856 10.357,6.73"
       style="fill:none;stroke:#231f20;stroke-width:0.5;stroke-linecap:round;stroke-linejoin:round;stroke-miterlimit:4;stroke-dasharray:2.8, 1.8;stroke-dashoffset:0;stroke-opacity:1"
       id="path112208" />
    <path
       d="m 649.928,722.036 c -4.786,-4.15 -11.314,-7.865 -18.519,-11.578 -7.204,-3.713 -22.617,-16.171 -18.923,-22.895"
       style="fill:none;stroke:#231f20;stroke-width:0.5;stroke-linecap:round;stroke-linejoin:round;stroke-miterlimit:4;stroke-dasharray:2.8, 1.8;stroke-dashoffset:0;stroke-opacity:1"
       id="path112210" />
    <path
       d="m 613.848,686.551 c 2.25,-1.392 6.98,-1.856 18.236,2.322 11.257,4.177 17.361,4.641 22.739,5.801"
       style="fill:none;stroke:#231f20;stroke-width:0.5;stroke-linecap:round;stroke-linejoin:round;stroke-miterlimit:4;stroke-dasharray:2.8, 1.8;stroke-dashoffset:0;stroke-opacity:1"
       id="path112212" />
    <path
       d="m 547.87,647.795 c 1.136,-3.255 4.738,-6.041 12.618,-7.665 7.879,-1.625 32.682,-4.623 46.51,11.267"
       style="fill:none;stroke:#231f20;stroke-width:0.5;stroke-linecap:round;stroke-linejoin:round;stroke-miterlimit:4;stroke-dasharray:2.8, 1.8;stroke-dashoffset:0;stroke-opacity:1"
       id="path112214" />
    <path
       d="m 562.935,656.332 c 2.236,-1.552 4.967,-7.068 2.272,-16.973"
       style="fill:none;stroke:#231f20;stroke-width:0.5;stroke-linecap:round;stroke-linejoin:round;stroke-miterlimit:4;stroke-dasharray:2.8, 1.8;stroke-dashoffset:0;stroke-opacity:1"
       id="path112216" />
    <path
       d="m 556.674,641.106 c 0.437,-4.922 -1.364,-7.476 -3.39,-10.492 -2.026,-3.018 -4.952,-11.141 -5.404,-17.175 -0.45,-6.036 2.027,-19.497 3.828,-22.748 1.8,-3.25 10.356,-8.123 17.786,-7.194 7.429,0.927 17.561,8.122 21.612,16.477 8.267,17.041 19.139,42.709 15.892,51.423"
       style="fill:none;stroke:#231f20;stroke-width:0.5;stroke-linecap:round;stroke-linejoin:round;stroke-miterlimit:4;stroke-dasharray:2.8, 1.8;stroke-dashoffset:0;stroke-opacity:1"
       id="path112218" />
    <path
       d="m 582.067,639.264 c -1.541,-4.472 -3.791,-12.133 -3.342,-19.097 0.45,-6.962 7.202,-18.567 12.381,-20.193"
       style="fill:none;stroke:#231f20;stroke-width:0.5;stroke-linecap:round;stroke-linejoin:round;stroke-miterlimit:4;stroke-dasharray:2.8, 1.8;stroke-dashoffset:0;stroke-opacity:1"
       id="path112220" />
    <path
       d="m 654.335,692.147 c 3.415,-1.418 8.715,-3.228 8.992,-5.689 0.277,-2.459 2.754,-14.761 1.628,-22.885 -1.125,-8.124 -2.705,-12.071 -11.033,-17.176 -8.329,-5.107 -17.786,-9.981 -17.786,-9.981"
       style="fill:none;stroke:#231f20;stroke-width:0.5;stroke-linecap:round;stroke-linejoin:round;stroke-miterlimit:4;stroke-dasharray:2.8, 1.8;stroke-dashoffset:0;stroke-opacity:1"
       id="path112222" />
    <path
       d="m 611.5,656.943 c 2.348,-4.743 8.651,-19.135 10.002,-25.633 1.349,-6.499 2.027,-16.478 -2.252,-25.996 -4.277,-9.518 -9.68,-20.425 -16.885,-26.691 -7.205,-6.267 -12.833,-10.911 -19.813,-10.446 -6.979,0.463 -10.529,4.47 -19.535,15.78"
       style="fill:none;stroke:#231f20;stroke-width:0.5;stroke-linecap:round;stroke-linejoin:round;stroke-miterlimit:4;stroke-dasharray:2.8, 1.8;stroke-dashoffset:0;stroke-opacity:1"
       id="path112224" />
    <path
       d="m 618.329,660.323 c 8.801,-9.748 17.131,-20.193 18.708,-25.995 1.577,-5.804 4.953,-13.231 -3.377,-28.086 -8.33,-14.855 -21.389,-31.141 -27.468,-38.8"
       style="fill:none;stroke:#231f20;stroke-width:0.5;stroke-linecap:round;stroke-linejoin:round;stroke-miterlimit:4;stroke-dasharray:2.8, 1.8;stroke-dashoffset:0;stroke-opacity:1"
       id="path112226" />
    <path
       d="m 638.946,625.983 c 4.17,0 21.956,0.22 30.061,3.237 8.106,3.019 13.734,9.053 22.965,15.784 9.231,6.732 20.262,9.517 24.766,9.517"
       style="fill:none;stroke:#231f20;stroke-width:0.5;stroke-linecap:round;stroke-linejoin:round;stroke-miterlimit:4;stroke-dasharray:2.8, 1.8;stroke-dashoffset:0;stroke-opacity:1"
       id="path112228" />
    <path
       d="m 633.414,586.777 c 15.331,-0.96 25.462,-3.745 48.426,-14.421"
       style="fill:none;stroke:#231f20;stroke-width:0.5;stroke-linecap:round;stroke-linejoin:round;stroke-miterlimit:4;stroke-dasharray:2.8, 1.8;stroke-dashoffset:0;stroke-opacity:1"
       id="path112230" />
    <path
       d="m 730.166,669.574 c -4.422,-0.199 -11.839,-3.355 -13.428,-9.251 -1.589,-5.896 1.576,-11.373 12.383,-18.104 10.807,-6.731 19.362,-19.032 21.163,-24.371 1.801,-5.34 7.218,-17.178 4.728,-30.174 -2.49,-12.997 -5.854,-24.371 -15.084,-36.674 -9.231,-12.301 -11.483,-14.39 -17.787,-19.265"
       style="fill:none;stroke:#231f20;stroke-width:0.5;stroke-linecap:round;stroke-linejoin:round;stroke-miterlimit:4;stroke-dasharray:2.8, 1.8;stroke-dashoffset:0;stroke-opacity:1"
       id="path112232" />
    <path
       d="m 700.303,517.578 c -5.179,-3.017 -9.805,-5.626 -22.965,-9.982 -13.322,-4.407 -18.688,-8.122 -31.521,-11.372 -12.833,-3.25 -28.142,-7.659 -38.949,-6.963"
       style="fill:none;stroke:#231f20;stroke-width:0.5;stroke-linecap:round;stroke-linejoin:round;stroke-miterlimit:4;stroke-dasharray:2.8, 1.8;stroke-dashoffset:0;stroke-opacity:1"
       id="path112234" />
    <path
       d="m 680.382,508.624 c 5.737,0.598 13.842,0.598 23.748,-0.098"
       style="fill:none;stroke:#231f20;stroke-width:0.5;stroke-linecap:round;stroke-linejoin:round;stroke-miterlimit:4;stroke-dasharray:2.8, 1.8;stroke-dashoffset:0;stroke-opacity:1"
       id="path112236" />
    <path
       d="m 729.121,642.219 c -4.955,-0.232 -20.716,-13.339 -4.729,-35.621"
       style="fill:none;stroke:#231f20;stroke-width:0.5;stroke-linecap:round;stroke-linejoin:round;stroke-miterlimit:4;stroke-dasharray:2.8, 1.8;stroke-dashoffset:0;stroke-opacity:1"
       id="path112238" />
    <path
       d="m 686.343,518.042 c 0,0 -7.429,-0.696 -13.283,7.891 -8.519,12.497 -2.026,33.192 0.675,38.067 2.702,4.874 19.916,17.973 28.818,25.53 7.655,6.501 13.959,11.606 17.786,15.319 3.827,3.715 8.49,1.074 6.53,-3.482 -1.234,-2.869 -2.993,-7.949 -6.53,-13.693 -4.752,-7.724 -11.53,-15.892 -15.534,-22.282 -6.979,-11.141 -21.164,-31.568 -31.745,-39.459"
       style="fill:none;stroke:#231f20;stroke-width:0.5;stroke-linecap:round;stroke-linejoin:round;stroke-miterlimit:4;stroke-dasharray:2.8, 1.8;stroke-dashoffset:0;stroke-opacity:1"
       id="path112240" />
    <path
       d="m 555.866,509.853 c 5.629,6.267 16.554,14.687 24.66,17.939 8.105,3.247 17.559,6.032 29.492,8.818 11.935,2.785 19.363,5.339 31.745,-1.624 12.385,-6.964 29.507,-16.337 39.699,-16.051"
       style="fill:none;stroke:#231f20;stroke-width:0.5;stroke-linecap:round;stroke-linejoin:round;stroke-miterlimit:4;stroke-dasharray:2.8, 1.8;stroke-dashoffset:0;stroke-opacity:1"
       id="path112242" />
    <path
       d="m 594.214,502.615 c 11.705,14.39 10.177,22.622 7.476,29.816 -2.701,7.196 -8.331,12.999 -19.813,14.858 -11.483,1.856 -18.687,-5.572 -22.74,-9.287 -4.052,-3.712 -6.489,-12.046 -6.078,-18.8 0.449,-7.427 5.628,-14.856 10.131,-18.569 4.503,-3.713 15.883,-10.865 22.862,-3.901"
       style="fill:none;stroke:#231f20;stroke-width:0.5;stroke-linecap:round;stroke-linejoin:round;stroke-miterlimit:4;stroke-dasharray:2.8, 1.8;stroke-dashoffset:0;stroke-opacity:1"
       id="path112244" />
    <path
       d="m 562.21,501.495 c 2.106,-6.432 1.206,-17.339 -6.675,-23.375"
       style="fill:none;stroke:#231f20;stroke-width:0.5;stroke-linecap:round;stroke-linejoin:round;stroke-miterlimit:4;stroke-dasharray:2.8, 1.8;stroke-dashoffset:0;stroke-opacity:1"
       id="path112246" />
    <path
       d="m 708.858,491.814 c 8.677,6.325 20.038,13.229 24.54,13.926 4.504,0.696 9.23,0.464 11.032,-3.018 1.802,-3.481 1.126,-5.803 -4.277,-11.837 -5.403,-6.035 -19.362,-19.96 -28.368,-23.906 -9.006,-3.947 -13.959,-3.481 -17.112,0.696 -3.151,4.178 -1.35,10.445 0.676,12.997 2.027,2.553 9.788,8.428 13.509,11.142 z"
       style="fill:none;stroke:#231f20;stroke-width:0.5;stroke-linecap:round;stroke-linejoin:round;stroke-miterlimit:4;stroke-dasharray:2.8, 1.8;stroke-dashoffset:0;stroke-opacity:1"
       id="path112248" />
    <path
       d="m 731.704,474.059 c 21.283,7.542 19.951,9.875 35.992,19.668 14.874,9.082 21.088,9.459 27.617,16.654 6.528,7.197 13.059,18.105 16.21,35.281 1.237,6.743 1.108,14.212 -0.676,22.747 -2.761,13.207 -9.229,23.444 -5.853,34.585"
       style="fill:none;stroke:#231f20;stroke-width:0.5;stroke-linecap:round;stroke-linejoin:round;stroke-miterlimit:4;stroke-dasharray:2.8, 1.8;stroke-dashoffset:0;stroke-opacity:1"
       id="path112250" />
    <path
       d="m 768.483,494.204 c -4.658,-2.906 -14.372,-13.068 -10.545,-28.154 3.829,-15.087 14.799,-31.102 32.36,-25.764"
       style="fill:none;stroke:#231f20;stroke-width:0.5;stroke-linecap:round;stroke-linejoin:round;stroke-miterlimit:4;stroke-dasharray:2.8, 1.8;stroke-dashoffset:7.5038;stroke-opacity:1"
       id="path112252" />
    <path
       d="m 770.055,495.137 c 3.985,2.254 9.722,5.265 21.655,2.944 11.934,-2.322 28.247,-10.655 25.095,-24.116"
       style="fill:none;stroke:#231f20;stroke-width:0.5;stroke-linecap:round;stroke-linejoin:round;stroke-miterlimit:4;stroke-dasharray:2.8, 1.8;stroke-dashoffset:1;stroke-opacity:1"
       id="path112254" />
    <path
       d="m 788.563,498.59 c -4.732,-4.92 -11.713,-12.58 -10.811,-22.095 0.901,-9.516 2.925,-11.837 5.177,-18.801 2.252,-6.963 -1.858,-12.443 -8.835,-16.156"
       style="fill:none;stroke:#231f20;stroke-width:0.5;stroke-linecap:round;stroke-linejoin:round;stroke-miterlimit:4;stroke-dasharray:2.8, 1.8;stroke-dashoffset:0;stroke-opacity:1"
       id="path112256" />
    <path
       d="m 801.332,495.272 c 0.735,-9.262 -0.391,-23.236 -19.753,-33.772"
       style="fill:none;stroke:#231f20;stroke-width:0.5;stroke-linecap:round;stroke-linejoin:round;stroke-miterlimit:4;stroke-dasharray:2.8, 1.8;stroke-dashoffset:0;stroke-opacity:1"
       id="path112258" />
    <path
       d="m 851.048,446.81 c -0.1,2.066 -3.051,5.777 -7.104,5.081 -4.053,-0.696 -6.528,-2.553 -7.88,-12.302 -1.352,-9.748 -0.9,-24.138 0.675,-29.245 1.576,-5.106 2.621,-12.123 2.252,-13.463 -1.21,-4.38 -2.308,-7.6 -6.446,-13.693 -3.873,-5.704 -6.387,-8.819 -12.917,-8.819 -6.529,0 -15.902,3.015 -17.477,11.604 -1.574,8.588 -0.84,11.794 -0.164,18.757"
       style="fill:none;stroke:#231f20;stroke-width:0.5;stroke-linecap:round;stroke-linejoin:round;stroke-miterlimit:4;stroke-dasharray:2.8, 1.8;stroke-dashoffset:0;stroke-opacity:1"
       id="path112260" />
    <path
       d="m 868.259,430.189 c 1.576,-4.989 2.926,-12.418 -2.252,-20.541 -5.177,-8.123 -17.265,-17.076 -27.258,-8.275"
       style="fill:none;stroke:#231f20;stroke-width:0.5;stroke-linecap:round;stroke-linejoin:round;stroke-miterlimit:4;stroke-dasharray:2.8, 1.8;stroke-dashoffset:0;stroke-opacity:1"
       id="path112262" />
    <path
       d="m 853.4,519.319 c -4.954,-4.062 -19.587,-24.023 -23.415,-29.361 -3.827,-5.34 -9.906,-10.676 -11.482,-13.231 -1.577,-2.554 -3.377,-5.339 -4.278,-7.892 -0.901,-2.552 -4.278,-7.89 -8.331,-11.605 -4.053,-3.714 -7.88,-7.428 -6.754,-8.82 1.126,-1.393 9.006,6.035 11.707,9.98 2.702,3.945 6.53,5.572 7.656,18.337"
       style="fill:none;stroke:#231f20;stroke-width:0.5;stroke-linecap:round;stroke-linejoin:round;stroke-miterlimit:4;stroke-dasharray:2.8, 1.8;stroke-dashoffset:0;stroke-opacity:1"
       id="path112264" />
    <path
       d="m 829.985,489.958 c 4.727,-0.465 16.242,-1.856 21.742,-1.857"
       style="fill:none;stroke:#231f20;stroke-width:0.5;stroke-linecap:round;stroke-linejoin:round;stroke-miterlimit:4;stroke-dasharray:2.8, 1.8;stroke-dashoffset:0;stroke-opacity:1"
       id="path112266" />
    <path
       d="m 843.047,488.624 c 0.671,-3.078 -1.355,-28.143 -11.487,-31.394"
       style="fill:none;stroke:#231f20;stroke-width:0.5;stroke-linecap:round;stroke-linejoin:round;stroke-miterlimit:4;stroke-dasharray:2.8, 1.8;stroke-dashoffset:0;stroke-opacity:1"
       id="path112268" />
    <path
       d="m 817.192,468.958 c 3.561,1.734 7.84,0.342 10.541,-1.283 2.702,-1.625 6.08,-7.89 2.928,-13.23 -3.154,-5.339 -5.18,-9.052 -4.954,-11.373 0.225,-2.322 6.234,-5.79 10.771,-0.923"
       style="fill:none;stroke:#231f20;stroke-width:0.5;stroke-linecap:round;stroke-linejoin:round;stroke-miterlimit:4;stroke-dasharray:2.8, 1.8;stroke-dashoffset:0;stroke-opacity:1"
       id="path112270" />
    <path
       d="m 799.14,448.41 c -6.079,-5.338 -13.96,-11.606 -15.535,-19.961 -1.575,-8.357 1.802,-15.088 7.205,-19.497 5.403,-4.41 12.834,-4.642 16.886,-4.178 4.053,0.464 12.157,1.625 17.561,0.929 5.404,-0.697 10.191,-2.099 13.119,-2.122"
       style="fill:none;stroke:#231f20;stroke-width:0.5;stroke-linecap:round;stroke-linejoin:round;stroke-miterlimit:4;stroke-dasharray:2.8, 1.8;stroke-dashoffset:0;stroke-opacity:1"
       id="path112272" />
    <path
       d="m 678.799,407.85 c -1.465,-3.073 -4.39,-3.771 -7.315,-1.451 -2.926,2.32 -2.251,6.963 -0.45,9.748 1.8,2.786 4.811,5.164 7.429,5.571 2.003,0.312 6.981,-0.584 3.659,-7.225"
       style="fill:none;stroke:#231f20;stroke-width:0.5;stroke-linecap:round;stroke-linejoin:round;stroke-miterlimit:4;stroke-dasharray:2.8, 1.8;stroke-dashoffset:0;stroke-opacity:1"
       id="path112274" />
    <path
       d="m 674.404,457.783 c -3.82,-3.803 -10.8,-11.462 -12.151,-14.248 -1.351,-2.785 -3.83,-7.891 -0.901,-11.372 2.928,-3.482 10.562,-6.51 15.535,-3.947 6.754,3.482 10.358,8.821 17.146,13.926"
       style="fill:none;stroke:#231f20;stroke-width:0.5;stroke-linecap:round;stroke-linejoin:round;stroke-miterlimit:4;stroke-dasharray:2.8, 1.8;stroke-dashoffset:0;stroke-opacity:1"
       id="path112276" />
    <path
       d="m 591.999,483.404 c -5.394,-0.643 -14.174,-1.339 -22.73,-3.428 -8.556,-2.089 -16.203,-5.374 -16.661,-7.659 -0.365,-1.828 -1.35,-3.714 6.079,-4.874 7.43,-1.16 36.698,-4.642 46.605,-4.642 9.906,0 25.442,-2.09 34.897,2.089 9.457,4.178 35.781,19.682 44.232,25.972"
       style="fill:none;stroke:#231f20;stroke-width:0.5;stroke-linecap:round;stroke-linejoin:round;stroke-miterlimit:4;stroke-dasharray:2.8, 1.8;stroke-dashoffset:0;stroke-opacity:1"
       id="path112278" />
    <path
       d="m 570.555,480.278 c 3.608,0.698 38.084,-14.499 40.124,-17.613"
       style="fill:none;stroke:#231f20;stroke-width:0.5;stroke-linecap:round;stroke-linejoin:round;stroke-miterlimit:4;stroke-dasharray:2.8, 1.8;stroke-dashoffset:0;stroke-opacity:1"
       id="path112280" />
    <path
       d="m 552.622,469.692 c -3.165,-1.785 -6.768,-7.82 -7.218,-10.606 -0.45,-2.785 1.126,-8.355 8.781,-11.14 7.654,-2.785 15.084,-4.411 18.911,1.16 3.827,5.57 6.966,11.486 2.47,16.187"
       style="fill:none;stroke:#231f20;stroke-width:0.5;stroke-linecap:round;stroke-linejoin:round;stroke-miterlimit:4;stroke-dasharray:2.8, 1.8;stroke-dashoffset:0;stroke-opacity:1"
       id="path112282" />
    <path
       d="m 542.027,449.338 c 2.927,0 8.473,0.088 10.651,-0.772"
       style="fill:none;stroke:#231f20;stroke-width:0.5;stroke-linecap:round;stroke-linejoin:round;stroke-miterlimit:4;stroke-dasharray:2.8, 1.8;stroke-dashoffset:0;stroke-opacity:1"
       id="path112284" />
    <path
       d="m 565.884,445.407 c 3.385,-1.639 5.562,-7.527 5.411,-10.459 -0.224,-4.41 -3.91,-12.294 -16.517,-16.705"
       style="fill:none;stroke:#231f20;stroke-width:0.5;stroke-linecap:round;stroke-linejoin:round;stroke-miterlimit:4;stroke-dasharray:2.8, 1.8;stroke-dashoffset:0;stroke-opacity:1"
       id="path112286" />
    <path
       d="m 599.199,463.045 c -8.093,-2.334 -15.971,-9.297 -15.971,-16.259 0,-6.963 3.152,-19.497 9.682,-28.783 6.528,-9.284 13.055,-15.549 21.387,-15.782 8.331,-0.232 18.012,5.339 21.164,13.23 3.153,7.891 9.404,27.008 -4.98,47.16"
       style="fill:none;stroke:#231f20;stroke-width:0.5;stroke-linecap:round;stroke-linejoin:round;stroke-miterlimit:4;stroke-dasharray:2.8, 1.8;stroke-dashoffset:0;stroke-opacity:1"
       id="path112288" />
    <path
       d="m 613.666,418.783 c -3.648,4.792 -5.674,11.522 -3.421,15.7 2.252,4.178 5.853,8.125 10.131,3.946 4.279,-4.178 6.079,-9.749 3.828,-17.873"
       style="fill:none;stroke:#231f20;stroke-width:0.5;stroke-linecap:round;stroke-linejoin:round;stroke-miterlimit:4;stroke-dasharray:2.8, 1.8;stroke-dashoffset:0;stroke-opacity:1"
       id="path112290" />
    <path
       d="m 621.277,382.259 c 4.944,2.11 10.807,-1.392 12.158,-5.571 1.352,-4.178 -1.351,-9.516 -8.331,-10.908 -6.98,-1.393 -11.256,1.624 -12.157,4.641 -0.902,3.018 1.802,9.053 8.33,11.838 z"
       style="fill:none;stroke:#231f20;stroke-width:0.5;stroke-linecap:round;stroke-linejoin:round;stroke-miterlimit:4;stroke-dasharray:2.8, 1.8;stroke-dashoffset:0;stroke-opacity:1"
       id="path112292" />
    <path
       d="m 555.418,362.638 c 0.792,-3.125 1.694,-11.596 1.468,-16.703"
       style="fill:none;stroke:#231f20;stroke-width:0.5;stroke-linecap:round;stroke-linejoin:round;stroke-miterlimit:4;stroke-dasharray:2.8, 1.8;stroke-dashoffset:0;stroke-opacity:1"
       id="path112294" />
    <path
       d="m 550.357,410.344 c -3.45,-2.445 -6.981,-8.125 -3.377,-20.426 3.602,-12.3 6.754,-23.442 19.137,-29.709 12.383,-6.267 29.942,-9.749 34.447,-4.177 4.503,5.57 5.401,12.069 -2.026,22.978 -7.432,10.908 -17.788,19.73 -22.291,23.908 -4.501,4.177 -15.083,15.085 -25.89,7.426 z"
       style="fill:none;stroke:#231f20;stroke-width:0.5;stroke-linecap:round;stroke-linejoin:round;stroke-miterlimit:4;stroke-dasharray:2.8, 1.8;stroke-dashoffset:0;stroke-opacity:1"
       id="path112296" />
    <path
       d="m 571.275,407.365 c 0.696,-6.536 -1.651,-11.049 -7.635,-17.447 -6.079,-6.498 -9.357,-8.405 -13.348,-10.469"
       style="fill:none;stroke:#231f20;stroke-width:0.5;stroke-linecap:round;stroke-linejoin:round;stroke-miterlimit:4;stroke-dasharray:2.8, 1.8;stroke-dashoffset:0;stroke-opacity:1"
       id="path112298" />
    <path
       d="m 564.073,361.338 c 1.144,6.994 10.582,24.607 25.562,28.682"
       style="fill:none;stroke:#231f20;stroke-width:0.5;stroke-linecap:round;stroke-linejoin:round;stroke-miterlimit:4;stroke-dasharray:2.8, 1.8;stroke-dashoffset:0;stroke-opacity:1"
       id="path112300" />
    <path
       d="m 742.736,459.901 c -1.655,-4.928 -4.399,-14.594 -5.285,-19.151 -1.126,-5.802 4.052,-12.998 9.054,-3.044 5.144,10.231 5.579,13.489 6.705,17.203 1.126,3.714 4.504,15.317 -0.449,17.175 -4.954,1.858 -8.767,-8.439 -10.025,-12.183 z"
       style="fill:none;stroke:#231f20;stroke-width:0.5;stroke-linecap:round;stroke-linejoin:round;stroke-miterlimit:4;stroke-dasharray:2.8, 1.8;stroke-dashoffset:0;stroke-opacity:1"
       id="path112302" />
    <path
       d="m 738.952,447.039 c -3.302,-8.61 -12.983,-26.019 -22.44,-38.32 -9.455,-12.301 -16.66,-25.066 -11.932,-33.654 4.727,-8.589 19.777,-14.664 32.196,-18.801 14.634,-4.875 30.17,-8.356 41.877,-10.678 11.707,-2.321 27.466,-1.16 40.75,-0.696 13.284,0.464 29.268,-1.625 50.207,13.694 20.938,15.319 28.82,28.085 38.05,43.405 9.229,15.318 16.885,35.513 20.713,48.974 3.827,13.461 9.762,26.82 3.144,27.214 -6.618,0.395 -8.549,-15.842 -11.475,-24.893 -2.927,-9.053 -9.456,-30.869 -23.64,-53.152 -14.185,-22.282 -27.469,-32.727 -37.15,-37.834 -9.679,-5.107 -20.937,-7.661 -30.843,-8.589 -9.906,-0.926 -17.787,1.163 -21.615,5.34 0,0 -16.209,6.498 -40.525,6.035"
       style="fill:none;stroke:#231f20;stroke-width:0.5;stroke-linecap:round;stroke-linejoin:round;stroke-miterlimit:4;stroke-dasharray:2.8, 1.8;stroke-dashoffset:0;stroke-opacity:1"
       id="path112304" />
    <path
       d="m 754.472,470.629 c 2.116,-3.186 5.492,-8.061 4.367,-13.631 -1.125,-5.571 -8.653,-36.468 -10.23,-54.109"
       style="fill:none;stroke:#231f20;stroke-width:0.5;stroke-linecap:round;stroke-linejoin:round;stroke-miterlimit:4;stroke-dasharray:2.8, 1.8;stroke-dashoffset:0;stroke-opacity:1"
       id="path112306" />
    <path
       d="m 704.168,387.584 c 15.722,-3.236 33.508,1.638 37.561,0.478 3.158,-0.904 8.78,-6.266 28.144,-7.427 19.361,-1.161 27.692,0 32.87,2.553 0,0 5.127,-29.576 6.927,-38.688"
       style="fill:none;stroke:#231f20;stroke-width:0.5;stroke-linecap:round;stroke-linejoin:round;stroke-miterlimit:4;stroke-dasharray:2.8, 1.8;stroke-dashoffset:0;stroke-opacity:1"
       id="path112308" />
    <path
       d="m 783.397,421.753 c -4.069,0.196 -12.94,-1.953 -16.902,-4.446 -3.18,-2.002 -4.981,-3.821 -4.981,-3.821"
       style="fill:none;stroke:#231f20;stroke-width:0.5;stroke-linecap:round;stroke-linejoin:round;stroke-miterlimit:4;stroke-dasharray:2.8, 1.8;stroke-dashoffset:0;stroke-opacity:1"
       id="path112310" />
    <path
       d="m 755.965,410.007 c -3.15,-1.856 -11.535,-9.411 -14.236,-21.945 -1.982,-9.195 0,-18.568 -4.953,-31.798"
       style="fill:none;stroke:#231f20;stroke-width:0.5;stroke-linecap:round;stroke-linejoin:round;stroke-miterlimit:4;stroke-dasharray:2.8, 1.8;stroke-dashoffset:0;stroke-opacity:1"
       id="path112312" />
    <path
       d="m 767.305,417.777 c 3.233,-4.545 3.917,-13.932 3.467,-18.111 -0.45,-4.177 -4.604,-42.002 -7.254,-50.827"
       style="fill:none;stroke:#231f20;stroke-width:0.5;stroke-linecap:round;stroke-linejoin:round;stroke-miterlimit:4;stroke-dasharray:2.8, 1.8;stroke-dashoffset:0;stroke-opacity:1"
       id="path112314" />
    <path
       d="m 769.418,421.949 c 0,-1.921 -1.51,-3.479 -3.374,-3.479 -1.864,0 -3.375,1.558 -3.375,3.479 0,1.922 1.511,3.479 3.375,3.479 1.864,0 3.374,-1.557 3.374,-3.479 z"
       style="fill:none;stroke:#231f20;stroke-width:0.5;stroke-linecap:round;stroke-linejoin:round;stroke-miterlimit:4;stroke-dasharray:2.8, 1.8;stroke-dashoffset:0;stroke-opacity:1"
       id="path112316" />
    <path
       d="m 761.57,415.266 c 0.445,-1.926 -0.907,-4.17 -2.797,-5.077 -1.717,-0.828 -3.481,-0.347 -4.124,1.111 -0.696,1.582 0.087,3.927 1.977,5.23 2.117,1.454 4.461,0.87 4.944,-1.264 z"
       style="fill:none;stroke:#231f20;stroke-width:0.5;stroke-linecap:round;stroke-linejoin:round;stroke-miterlimit:4;stroke-dasharray:2.8, 1.8;stroke-dashoffset:0;stroke-opacity:1"
       id="path112318" />
    <path
       d="m 534.859,740.491 c -2.288,4.087 -6.945,5.801 -9.683,1.81"
       style="fill:none;stroke:#231f20;stroke-width:0.5;stroke-linecap:round;stroke-linejoin:round;stroke-miterlimit:4;stroke-dasharray:2.8, 1.8;stroke-dashoffset:0;stroke-opacity:1"
       id="path112320" />
    <path
       d="M 536.054,856.515 481.848,802.421"
       style="fill:none;stroke:#231f20;stroke-width:0.5;stroke-linecap:round;stroke-linejoin:round;stroke-miterlimit:4;stroke-dasharray:2.8, 1.8;stroke-dashoffset:0;stroke-opacity:1"
       id="path112322" />
    <path
       d="m 491.822,897.762 -25.24,-85.069"
       style="fill:none;stroke:#231f20;stroke-width:0.5;stroke-linecap:round;stroke-linejoin:round;stroke-miterlimit:4;stroke-dasharray:2.8, 1.8;stroke-dashoffset:0;stroke-opacity:1"
       id="path112324" />
    <path
       d="m 452.885,906.275 -6.707,-92.381"
       style="fill:none;stroke:#231f20;stroke-width:0.5;stroke-linecap:round;stroke-linejoin:round;stroke-miterlimit:4;stroke-dasharray:2.8, 1.8;stroke-dashoffset:0;stroke-opacity:1"
       id="path112326" />
    <path
       d="m 424.839,907.875 4.434,-97"
       style="fill:none;stroke:#231f20;stroke-width:0.5;stroke-linecap:round;stroke-linejoin:round;stroke-miterlimit:4;stroke-dasharray:2.8, 1.8;stroke-dashoffset:0;stroke-opacity:1"
       id="path112328" />
    <path
       d="m 331.793,774.837 -45.709,98.836"
       style="fill:none;stroke:#231f20;stroke-width:0.5;stroke-linecap:round;stroke-linejoin:round;stroke-miterlimit:4;stroke-dasharray:2.8, 1.8;stroke-dashoffset:0;stroke-opacity:1"
       id="path112330" />
    <path
       d="m 271.997,866.474 47.669,-99.55"
       style="fill:none;stroke:#231f20;stroke-width:0.5;stroke-linecap:round;stroke-linejoin:round;stroke-miterlimit:4;stroke-dasharray:2.8, 1.8;stroke-dashoffset:0;stroke-opacity:1"
       id="path112332" />
    <path
       d="M 259.021,692.005 149.372,741.088"
       style="fill:none;stroke:#231f20;stroke-width:0.5;stroke-linecap:round;stroke-linejoin:round;stroke-miterlimit:4;stroke-dasharray:2.8, 1.8;stroke-dashoffset:0;stroke-opacity:1"
       id="path112334" />
    <path
       d="M 242.855,656.126 128.514,698.488"
       style="fill:none;stroke:#231f20;stroke-width:0.5;stroke-linecap:round;stroke-linejoin:round;stroke-miterlimit:4;stroke-dasharray:2.8, 1.8;stroke-dashoffset:0;stroke-opacity:1"
       id="path112336" />
    <path
       d="m 223.249,595.29 -109.11,0.591"
       style="fill:none;stroke:#231f20;stroke-width:0.5;stroke-linecap:round;stroke-linejoin:round;stroke-miterlimit:4;stroke-dasharray:2.8, 1.8;stroke-dashoffset:0;stroke-opacity:1"
       id="path112338" />
    <path
       d="M 218.012,550.302 130.747,529.798"
       style="fill:none;stroke:#231f20;stroke-width:0.5;stroke-linecap:round;stroke-linejoin:round;stroke-miterlimit:4;stroke-dasharray:2.8, 1.8;stroke-dashoffset:0;stroke-opacity:1"
       id="path112340" />
    <path
       d="m 223.536,502.258 c -9.431,-6.615 -42.477,-26.103 -86.744,-24.018"
       style="fill:none;stroke:#231f20;stroke-width:0.5;stroke-linecap:round;stroke-linejoin:round;stroke-miterlimit:4;stroke-dasharray:2.8, 1.8;stroke-dashoffset:0;stroke-opacity:1"
       id="path112342" />
    <path
       d="m 222.386,501.47 c -6.593,-12.094 -18.751,-30.198 -20.439,-43.776 -1.689,-13.578 7.429,-25.068 9.794,-27.505 2.364,-2.437 6.796,-5.927 9.814,-1.397"
       style="fill:none;stroke:#231f20;stroke-width:0.5;stroke-linecap:round;stroke-linejoin:round;stroke-miterlimit:4;stroke-dasharray:2.8, 1.8;stroke-dashoffset:0;stroke-opacity:1"
       id="path112344" />
    <path
       d="m 395.008,768.485 3.222,-4.753"
       style="fill:none;stroke:#231f20;stroke-width:0.5;stroke-linecap:round;stroke-linejoin:round;stroke-miterlimit:4;stroke-dasharray:2.8, 1.8;stroke-dashoffset:0;stroke-opacity:1"
       id="path112346" />
    <path
       d="m 371.288,755.631 c 0,0 0.721,-2.87 2.427,-4.06"
       style="fill:none;stroke:#231f20;stroke-width:0.5;stroke-linecap:round;stroke-linejoin:round;stroke-miterlimit:4;stroke-dasharray:2.8, 1.8;stroke-dashoffset:0;stroke-opacity:1"
       id="path112348" />
    <path
       d="m 382.342,755.396 c -4.681,-1.974 -11.199,-11.515 -12.55,-14.764 -1.351,-3.249 -4.727,-12.069 3.602,-17.175 8.329,-5.107 19.588,-8.82 31.07,-9.749 11.483,-0.929 23.376,-0.371 35.328,-4.944"
       style="fill:none;stroke:#231f20;stroke-width:0.5;stroke-linecap:round;stroke-linejoin:round;stroke-miterlimit:4;stroke-dasharray:2.8, 1.8;stroke-dashoffset:0;stroke-opacity:1"
       id="path112350" />
    <path
       d="m 437.109,692.265 c 3.378,-1.392 8.105,-4.089 12.157,-6.41 4.053,-2.32 13.06,-5.803 20.94,-9.052 7.878,-3.249 12.382,-2.321 15.534,-1.857 3.151,0.465 10.357,1.16 18.463,1.625 8.104,0.464 15.084,3.017 20.487,5.106 5.403,2.089 5.854,5.571 6.079,8.123 0.225,2.553 1.351,8.357 1.351,8.357 -0.675,-1.858 -3.828,-8.588 -5.178,-11.373 -1.351,-2.785 -5.629,-4.41 -9.682,-5.339 -4.053,-0.929 -8.104,1.16 -13.733,1.625 -5.629,0.465 -11.933,1.625 -16.436,2.553 -4.504,0.928 -13.509,7.659 -20.038,13.694 -6.528,6.035 -19.587,15.087 -26.342,18.336 -6.753,3.25 -14.859,5.339 -15.084,7.196 -0.226,1.858 1.128,1.982 3.828,1.857 5.009,-0.233 12.834,-3.482 20.713,-9.516 7.879,-6.035 16.885,-13.695 25.216,-19.962 8.331,-6.267 24.09,-11.837 34.448,-12.766 10.357,-0.927 15.759,2.553 17.11,6.267 1.35,3.715 3.827,8.82 4.728,10.213 0.902,1.392 2.476,10.213 3.602,9.98 1.126,-0.231 0.9,-4.177 0.9,-9.516 0,-5.338 -0.675,-12.302 -1.35,-15.319 -0.676,-3.017 -1.576,-5.803 -5.404,-7.427 -3.827,-1.625 -11.032,-4.178 -14.184,-5.107 -3.152,-0.928 -6.529,-1.161 -11.257,0 -4.728,1.161 -10.357,0.464 -14.185,-1.857 -3.827,-2.321 -8.78,-3.017 -12.157,-1.624 -3.377,1.392 -8.781,3.945 -12.158,4.41 -3.377,0.464 -8.329,0.463 -13.283,4.178 -4.953,3.714 -11.482,7.66 -16.66,9.284 -5.179,1.625 -10.807,1.856 -10.357,6.73"
       style="fill:#b2b1b1;fill-opacity:1;fill-rule:nonzero;stroke:none;stroke-width:0.1"
       id="path112352" />
    <path
       d="m 437.109,692.265 c 3.378,-1.392 8.105,-4.089 12.157,-6.41 4.053,-2.32 13.06,-5.803 20.94,-9.052 7.878,-3.249 12.382,-2.321 15.534,-1.857 3.151,0.465 10.357,1.16 18.463,1.625 8.104,0.464 15.084,3.017 20.487,5.106 5.403,2.089 5.854,5.571 6.079,8.123 0.225,2.553 1.351,8.357 1.351,8.357 -0.675,-1.858 -3.828,-8.588 -5.178,-11.373 -1.351,-2.785 -5.629,-4.41 -9.682,-5.339 -4.053,-0.929 -8.104,1.16 -13.733,1.625 -5.629,0.465 -11.933,1.625 -16.436,2.553 -4.504,0.928 -13.509,7.659 -20.038,13.694 -6.528,6.035 -19.587,15.087 -26.342,18.336 -6.753,3.25 -14.859,5.339 -15.084,7.196 -0.226,1.858 1.128,1.982 3.828,1.857 5.009,-0.233 12.834,-3.482 20.713,-9.516 7.879,-6.035 16.885,-13.695 25.216,-19.962 8.331,-6.267 24.09,-11.837 34.448,-12.766 10.357,-0.927 15.759,2.553 17.11,6.267 1.35,3.715 3.827,8.82 4.728,10.213 0.902,1.392 2.476,10.213 3.602,9.98 1.126,-0.231 0.9,-4.177 0.9,-9.516 0,-5.338 -0.675,-12.302 -1.35,-15.319 -0.676,-3.017 -1.576,-5.803 -5.404,-7.427 -3.827,-1.625 -11.032,-4.178 -14.184,-5.107 -3.152,-0.928 -6.529,-1.161 -11.257,0 -4.728,1.161 -10.357,0.464 -14.185,-1.857 -3.827,-2.321 -8.78,-3.017 -12.157,-1.624 -3.377,1.392 -8.781,3.945 -12.158,4.41 -3.377,0.464 -8.329,0.463 -13.283,4.178 -4.953,3.714 -11.482,7.66 -16.66,9.284 -5.179,1.625 -10.807,1.856 -10.357,6.73"
       style="fill:none;stroke:#231f20;stroke-width:0.5;stroke-linecap:round;stroke-linejoin:round;stroke-miterlimit:4;stroke-dasharray:2.8, 1.8;stroke-dashoffset:0;stroke-opacity:1"
       id="path112354" />
    <path
       d="m 430.072,722.036 c 4.787,-4.15 11.315,-7.865 18.519,-11.578 7.204,-3.713 22.617,-16.171 18.924,-22.895"
       style="fill:none;stroke:#231f20;stroke-width:0.5;stroke-linecap:round;stroke-linejoin:round;stroke-miterlimit:4;stroke-dasharray:2.8, 1.8;stroke-dashoffset:0;stroke-opacity:1"
       id="path112356" />
    <path
       d="m 466.152,686.551 c -2.25,-1.392 -6.98,-1.856 -18.236,2.322 -11.256,4.177 -17.361,4.641 -22.739,5.801"
       style="fill:none;stroke:#231f20;stroke-width:0.5;stroke-linecap:round;stroke-linejoin:round;stroke-miterlimit:4;stroke-dasharray:2.8, 1.8;stroke-dashoffset:0;stroke-opacity:1"
       id="path112358" />
    <path
       d="m 528.067,643.147 c 2.477,-2.321 6.755,-4.642 11.933,-4.642 5.179,0 9.458,2.321 11.933,4.642"
       style="fill:none;stroke:#231f20;stroke-width:0.5;stroke-linecap:round;stroke-linejoin:round;stroke-miterlimit:4;stroke-dasharray:2.8, 1.8;stroke-dashoffset:0;stroke-opacity:1"
       id="path112360" />
    <path
       d="m 532.13,647.795 c -1.135,-3.255 -4.738,-6.041 -12.618,-7.665 -7.88,-1.625 -32.682,-4.623 -46.511,11.267"
       style="fill:none;stroke:#231f20;stroke-width:0.5;stroke-linecap:round;stroke-linejoin:round;stroke-miterlimit:4;stroke-dasharray:2.8, 1.8;stroke-dashoffset:0;stroke-opacity:1"
       id="path112362" />
    <path
       d="m 517.066,656.332 c -2.236,-1.552 -4.967,-7.068 -2.274,-16.973"
       style="fill:none;stroke:#231f20;stroke-width:0.5;stroke-linecap:round;stroke-linejoin:round;stroke-miterlimit:4;stroke-dasharray:2.8, 1.8;stroke-dashoffset:0;stroke-opacity:1"
       id="path112364" />
    <path
       d="m 523.326,641.106 c -0.437,-4.922 1.364,-7.476 3.39,-10.492 2.027,-3.018 4.953,-11.141 5.404,-17.175 0.451,-6.036 -2.026,-19.497 -3.828,-22.748 -1.8,-3.25 -10.356,-8.123 -17.786,-7.194 -7.429,0.927 -17.56,8.122 -21.613,16.477 -8.265,17.041 -19.138,42.709 -15.892,51.423"
       style="fill:none;stroke:#231f20;stroke-width:0.5;stroke-linecap:round;stroke-linejoin:round;stroke-miterlimit:4;stroke-dasharray:2.8, 1.8;stroke-dashoffset:0;stroke-opacity:1"
       id="path112366" />
    <path
       d="m 497.933,639.264 c 1.541,-4.472 3.791,-12.133 3.342,-19.097 -0.45,-6.962 -7.202,-18.567 -12.382,-20.193"
       style="fill:none;stroke:#231f20;stroke-width:0.5;stroke-linecap:round;stroke-linejoin:round;stroke-miterlimit:4;stroke-dasharray:2.8, 1.8;stroke-dashoffset:0;stroke-opacity:1"
       id="path112368" />
    <path
       d="m 531.444,617.898 c 1.187,-4.489 5.63,-6.549 8.556,-6.549 2.927,0 7.369,2.06 8.556,6.549"
       style="fill:none;stroke:#231f20;stroke-width:0.5;stroke-linecap:round;stroke-linejoin:round;stroke-miterlimit:4;stroke-dasharray:2.8, 1.8;stroke-dashoffset:0;stroke-opacity:1"
       id="path112370" />
    <path
       d="m 521.201,585.39 c 4.841,0.5 14.971,0.658 18.799,0.658 3.828,0 13.96,-0.158 18.799,-0.658"
       style="fill:none;stroke:#231f20;stroke-width:0.5;stroke-linecap:round;stroke-linejoin:round;stroke-miterlimit:4;stroke-dasharray:2.8, 1.8;stroke-dashoffset:0;stroke-opacity:1"
       id="path112372" />
    <path
       d="m 425.666,692.147 c -3.416,-1.418 -8.715,-3.228 -8.993,-5.689 -0.277,-2.459 -2.753,-14.761 -1.628,-22.885 1.126,-8.124 2.704,-12.071 11.033,-17.176 8.329,-5.107 17.785,-9.981 17.785,-9.981"
       style="fill:none;stroke:#231f20;stroke-width:0.5;stroke-linecap:round;stroke-linejoin:round;stroke-miterlimit:4;stroke-dasharray:2.8, 1.8;stroke-dashoffset:0;stroke-opacity:1"
       id="path112374" />
    <path
       d="m 468.501,656.943 c -2.349,-4.743 -8.652,-19.135 -10.002,-25.633 -1.351,-6.499 -2.028,-16.478 2.25,-25.996 4.279,-9.518 9.68,-20.425 16.886,-26.691 7.205,-6.267 12.832,-10.911 19.813,-10.446 6.98,0.463 10.53,4.47 19.535,15.78"
       style="fill:none;stroke:#231f20;stroke-width:0.5;stroke-linecap:round;stroke-linejoin:round;stroke-miterlimit:4;stroke-dasharray:2.8, 1.8;stroke-dashoffset:0;stroke-opacity:1"
       id="path112376" />
    <path
       d="m 461.671,660.323 c -8.801,-9.748 -17.131,-20.193 -18.708,-25.995 -1.576,-5.804 -4.952,-13.231 3.377,-28.086 8.33,-14.855 21.389,-31.141 27.468,-38.8"
       style="fill:none;stroke:#231f20;stroke-width:0.5;stroke-linecap:round;stroke-linejoin:round;stroke-miterlimit:4;stroke-dasharray:2.8, 1.8;stroke-dashoffset:0;stroke-opacity:1"
       id="path112378" />
    <path
       d="m 414.82,627.828 c 4.952,-20.194 19.587,-31.566 28.143,-38.298 8.557,-6.731 28.369,-19.959 37.149,-26.692 8.781,-6.732 12.382,-8.587 18.687,-9.748 6.304,-1.162 12.158,-1.858 19.587,-6.964 7.43,-5.105 16.21,-5.338 21.614,-5.338 5.404,0 14.185,0.233 21.614,5.338 7.43,5.106 13.283,5.802 19.588,6.964 6.303,1.161 9.904,3.016 18.686,9.748 8.78,6.733 28.591,19.961 37.149,26.692 8.556,6.732 23.19,18.104 28.143,38.298"
       style="fill:none;stroke:#231f20;stroke-width:0.5;stroke-linecap:round;stroke-linejoin:round;stroke-miterlimit:4;stroke-dasharray:2.8, 1.8;stroke-dashoffset:0;stroke-opacity:1"
       id="path112380" />
    <path
       d="m 441.053,625.983 c -4.168,0 -21.955,0.22 -30.06,3.237 -8.105,3.019 -13.735,9.053 -22.964,15.784 -9.232,6.732 -20.263,9.517 -24.766,9.517"
       style="fill:none;stroke:#231f20;stroke-width:0.5;stroke-linecap:round;stroke-linejoin:round;stroke-miterlimit:4;stroke-dasharray:2.8, 1.8;stroke-dashoffset:0;stroke-opacity:1"
       id="path112382" />
    <path
       d="m 446.587,586.777 c -15.331,-0.96 -25.462,-3.745 -48.427,-14.421"
       style="fill:none;stroke:#231f20;stroke-width:0.5;stroke-linecap:round;stroke-linejoin:round;stroke-miterlimit:4;stroke-dasharray:2.8, 1.8;stroke-dashoffset:0;stroke-opacity:1"
       id="path112384" />
    <path
       d="m 349.834,669.574 c 4.423,-0.199 11.84,-3.355 13.429,-9.251 1.588,-5.896 -1.576,-11.373 -12.384,-18.104 -10.806,-6.731 -19.363,-19.032 -21.164,-24.371 -1.799,-5.34 -7.218,-17.178 -4.727,-30.174 2.491,-12.997 5.854,-24.371 15.085,-36.674 9.23,-12.301 11.482,-14.39 17.787,-19.265"
       style="fill:none;stroke:#231f20;stroke-width:0.5;stroke-linecap:round;stroke-linejoin:round;stroke-miterlimit:4;stroke-dasharray:2.8, 1.8;stroke-dashoffset:0;stroke-opacity:1"
       id="path112386" />
    <path
       d="m 379.698,517.578 c 5.178,-3.017 9.804,-5.626 22.964,-9.982 13.321,-4.407 18.688,-8.122 31.521,-11.372 12.833,-3.25 28.143,-7.659 38.949,-6.963"
       style="fill:none;stroke:#231f20;stroke-width:0.5;stroke-linecap:round;stroke-linejoin:round;stroke-miterlimit:4;stroke-dasharray:2.8, 1.8;stroke-dashoffset:0;stroke-opacity:1"
       id="path112388" />
    <path
       d="m 399.619,508.624 c -5.738,0.598 -13.843,0.598 -23.748,-0.098"
       style="fill:none;stroke:#231f20;stroke-width:0.5;stroke-linecap:round;stroke-linejoin:round;stroke-miterlimit:4;stroke-dasharray:2.8, 1.8;stroke-dashoffset:0;stroke-opacity:1"
       id="path112390" />
    <path
       d="m 350.879,642.219 c 4.955,-0.232 20.716,-13.339 4.73,-35.621"
       style="fill:none;stroke:#231f20;stroke-width:0.5;stroke-linecap:round;stroke-linejoin:round;stroke-miterlimit:4;stroke-dasharray:2.8, 1.8;stroke-dashoffset:0;stroke-opacity:1"
       id="path112392" />
    <path
       d="m 393.658,518.042 c 0,0 7.429,-0.696 13.282,7.891 8.518,12.497 2.026,33.192 -0.675,38.067 -2.702,4.874 -19.916,17.973 -28.818,25.53 -7.655,6.501 -13.96,11.606 -17.786,15.319 -3.827,3.715 -8.489,1.074 -6.53,-3.482 1.236,-2.869 2.994,-7.949 6.53,-13.693 4.753,-7.724 11.53,-15.892 15.534,-22.282 6.98,-11.141 21.164,-31.568 31.745,-39.459"
       style="fill:none;stroke:#231f20;stroke-width:0.5;stroke-linecap:round;stroke-linejoin:round;stroke-miterlimit:4;stroke-dasharray:2.8, 1.8;stroke-dashoffset:0;stroke-opacity:1"
       id="path112394" />
    <path
       d="m 524.134,509.853 c -5.63,6.267 -16.554,14.687 -24.66,17.939 -8.105,3.247 -17.56,6.032 -29.493,8.818 -11.934,2.785 -19.362,5.339 -31.745,-1.624 -12.384,-6.964 -29.507,-16.337 -39.697,-16.051"
       style="fill:none;stroke:#231f20;stroke-width:0.5;stroke-linecap:round;stroke-linejoin:round;stroke-miterlimit:4;stroke-dasharray:2.8, 1.8;stroke-dashoffset:0;stroke-opacity:1"
       id="path112396" />
    <path
       d="m 485.786,502.615 c -11.706,14.39 -10.178,22.622 -7.476,29.816 2.702,7.196 8.331,12.999 19.814,14.858 11.482,1.856 18.686,-5.572 22.739,-9.287 4.053,-3.712 6.489,-12.046 6.079,-18.8 -0.45,-7.427 -5.628,-14.856 -10.132,-18.569 -4.503,-3.713 -15.883,-10.865 -22.863,-3.901"
       style="fill:none;stroke:#231f20;stroke-width:0.5;stroke-linecap:round;stroke-linejoin:round;stroke-miterlimit:4;stroke-dasharray:2.8, 1.8;stroke-dashoffset:0;stroke-opacity:1"
       id="path112398" />
    <path
       d="m 526.9,518.721 c 0.779,4.025 7.696,7.212 13.1,7.212 5.404,0 12.321,-3.187 13.1,-7.212"
       style="fill:none;stroke:#231f20;stroke-width:0.5;stroke-linecap:round;stroke-linejoin:round;stroke-miterlimit:4;stroke-dasharray:2.8, 1.8;stroke-dashoffset:0;stroke-opacity:1"
       id="path112400" />
    <path
       d="m 517.792,501.495 c -2.107,-6.432 -1.207,-17.339 6.673,-23.375"
       style="fill:none;stroke:#231f20;stroke-width:0.5;stroke-linecap:round;stroke-linejoin:round;stroke-miterlimit:4;stroke-dasharray:2.8, 1.8;stroke-dashoffset:0;stroke-opacity:1"
       id="path112402" />
    <path
       d="m 522.574,476.001 c 1.126,1.856 5.044,4.671 6.844,5.831 1.801,1.161 6.98,1.393 10.582,1.393 3.602,0 8.781,-0.232 10.582,-1.393 1.799,-1.16 5.718,-3.975 6.844,-5.831"
       style="fill:none;stroke:#231f20;stroke-width:0.5;stroke-linecap:round;stroke-linejoin:round;stroke-miterlimit:4;stroke-dasharray:2.8, 1.8;stroke-dashoffset:0;stroke-opacity:1"
       id="path112404" />
    <path
       d="m 371.143,491.814 c -8.677,6.325 -20.039,13.229 -24.542,13.926 -4.502,0.696 -9.228,0.464 -11.03,-3.018 -1.803,-3.481 -1.127,-5.803 4.276,-11.837 5.403,-6.035 19.361,-19.96 28.368,-23.906 9.006,-3.947 13.96,-3.481 17.112,0.696 3.151,4.178 1.35,10.445 -0.676,12.997 -2.026,2.553 -9.787,8.428 -13.508,11.142 z"
       style="fill:none;stroke:#231f20;stroke-width:0.5;stroke-linecap:round;stroke-linejoin:round;stroke-miterlimit:4;stroke-dasharray:2.8, 1.8;stroke-dashoffset:0;stroke-opacity:1"
       id="path112406" />
    <path
       d="m 348.296,474.059 c -21.282,7.542 -19.951,9.875 -35.991,19.668 -14.876,9.082 -21.089,9.459 -27.618,16.654 -6.528,7.197 -13.059,18.105 -16.21,35.281 -1.237,6.743 -1.108,14.212 0.675,22.747 2.762,13.207 9.231,23.444 5.853,34.585"
       style="fill:none;stroke:#231f20;stroke-width:0.5;stroke-linecap:round;stroke-linejoin:round;stroke-miterlimit:4;stroke-dasharray:2.8, 1.8;stroke-dashoffset:0;stroke-opacity:1"
       id="path112408" />
    <path
       d="m 311.517,494.204 c 4.658,-2.906 14.373,-13.068 10.545,-28.154 -3.829,-15.087 -14.799,-31.102 -32.36,-25.764"
       style="fill:none;stroke:#231f20;stroke-width:0.5;stroke-linecap:round;stroke-linejoin:round;stroke-miterlimit:4;stroke-dasharray:2.8, 1.8;stroke-dashoffset:7.5038;stroke-opacity:1"
       id="path112410" />
    <path
       d="m 309.945,495.137 c -3.985,2.254 -9.722,5.265 -21.654,2.944 -11.934,-2.322 -28.248,-10.655 -25.096,-24.116"
       style="fill:none;stroke:#231f20;stroke-width:0.5;stroke-linecap:round;stroke-linejoin:round;stroke-miterlimit:4;stroke-dasharray:2.8, 1.8;stroke-dashoffset:1;stroke-opacity:1"
       id="path112412" />
    <path
       d="m 291.436,498.59 c 4.734,-4.92 11.714,-12.58 10.813,-22.095 -0.902,-9.516 -2.926,-11.837 -5.178,-18.801 -2.252,-6.963 1.857,-12.443 8.836,-16.156"
       style="fill:none;stroke:#231f20;stroke-width:0.5;stroke-linecap:round;stroke-linejoin:round;stroke-miterlimit:4;stroke-dasharray:2.8, 1.8;stroke-dashoffset:0;stroke-opacity:1"
       id="path112414" />
    <path
       d="m 278.668,495.272 c -0.735,-9.262 0.392,-23.236 19.753,-33.772"
       style="fill:none;stroke:#231f20;stroke-width:0.5;stroke-linecap:round;stroke-linejoin:round;stroke-miterlimit:4;stroke-dasharray:2.8, 1.8;stroke-dashoffset:0;stroke-opacity:1"
       id="path112416" />
    <path
       d="m 228.953,446.81 c 0.098,2.066 3.05,5.777 7.103,5.081 4.053,-0.696 6.529,-2.553 7.88,-12.302 1.351,-9.748 0.899,-24.138 -0.676,-29.245 -1.574,-5.106 -2.62,-12.123 -2.251,-13.463 1.21,-4.38 2.308,-7.6 6.445,-13.693 3.874,-5.704 6.389,-8.819 12.918,-8.819 6.529,0 15.901,3.015 17.477,11.604 1.574,8.588 0.84,11.794 0.164,18.757"
       style="fill:none;stroke:#231f20;stroke-width:0.5;stroke-linecap:round;stroke-linejoin:round;stroke-miterlimit:4;stroke-dasharray:2.8, 1.8;stroke-dashoffset:0;stroke-opacity:1"
       id="path112418" />
    <path
       d="m 211.741,430.189 c -1.576,-4.989 -2.926,-12.418 2.252,-20.541 5.177,-8.123 17.264,-17.076 27.258,-8.275"
       style="fill:none;stroke:#231f20;stroke-width:0.5;stroke-linecap:round;stroke-linejoin:round;stroke-miterlimit:4;stroke-dasharray:2.8, 1.8;stroke-dashoffset:0;stroke-opacity:1"
       id="path112420" />
    <path
       d="m 226.6,519.319 c 4.953,-4.062 19.587,-24.023 23.415,-29.361 3.828,-5.34 9.905,-10.676 11.483,-13.231 1.576,-2.554 3.377,-5.339 4.277,-7.892 0.901,-2.552 4.278,-7.89 8.331,-11.605 4.053,-3.714 7.881,-7.428 6.755,-8.82 -1.127,-1.393 -9.007,6.035 -11.709,9.98 -2.701,3.945 -6.529,5.572 -7.654,18.337"
       style="fill:none;stroke:#231f20;stroke-width:0.5;stroke-linecap:round;stroke-linejoin:round;stroke-miterlimit:4;stroke-dasharray:2.8, 1.8;stroke-dashoffset:0;stroke-opacity:1"
       id="path112422" />
    <path
       d="m 250.015,489.958 c -4.728,-0.465 -16.242,-1.856 -21.742,-1.857"
       style="fill:none;stroke:#231f20;stroke-width:0.5;stroke-linecap:round;stroke-linejoin:round;stroke-miterlimit:4;stroke-dasharray:2.8, 1.8;stroke-dashoffset:0;stroke-opacity:1"
       id="path112424" />
    <path
       d="m 236.953,488.624 c -0.671,-3.078 1.355,-28.143 11.486,-31.394"
       style="fill:none;stroke:#231f20;stroke-width:0.5;stroke-linecap:round;stroke-linejoin:round;stroke-miterlimit:4;stroke-dasharray:2.8, 1.8;stroke-dashoffset:0;stroke-opacity:1"
       id="path112426" />
    <path
       d="m 262.808,468.958 c -3.561,1.734 -7.84,0.342 -10.542,-1.283 -2.701,-1.625 -6.079,-7.89 -2.927,-13.23 3.154,-5.339 5.18,-9.052 4.953,-11.373 -0.225,-2.322 -6.232,-5.79 -10.77,-0.923"
       style="fill:none;stroke:#231f20;stroke-width:0.5;stroke-linecap:round;stroke-linejoin:round;stroke-miterlimit:4;stroke-dasharray:2.8, 1.8;stroke-dashoffset:0;stroke-opacity:1"
       id="path112428" />
    <path
       d="m 280.861,448.41 c 6.078,-5.338 13.959,-11.606 15.534,-19.961 1.575,-8.357 -1.802,-15.088 -7.205,-19.497 -5.403,-4.41 -12.833,-4.642 -16.886,-4.178 -4.053,0.464 -12.158,1.625 -17.561,0.929 -5.404,-0.697 -10.191,-2.099 -13.118,-2.122"
       style="fill:none;stroke:#231f20;stroke-width:0.5;stroke-linecap:round;stroke-linejoin:round;stroke-miterlimit:4;stroke-dasharray:2.8, 1.8;stroke-dashoffset:0;stroke-opacity:1"
       id="path112430" />
    <path
       d="m 401.202,407.85 c 1.464,-3.073 4.388,-3.771 7.315,-1.451 2.926,2.32 2.25,6.963 0.449,9.748 -1.8,2.786 -4.812,5.164 -7.429,5.571 -2.004,0.312 -6.981,-0.584 -3.658,-7.225"
       style="fill:none;stroke:#231f20;stroke-width:0.5;stroke-linecap:round;stroke-linejoin:round;stroke-miterlimit:4;stroke-dasharray:2.8, 1.8;stroke-dashoffset:0;stroke-opacity:1"
       id="path112432" />
    <path
       d="m 405.596,457.783 c 3.82,-3.803 10.8,-11.462 12.152,-14.248 1.35,-2.785 3.828,-7.891 0.9,-11.372 -2.927,-3.482 -10.562,-6.51 -15.534,-3.947 -6.755,3.482 -10.358,8.821 -17.147,13.926"
       style="fill:none;stroke:#231f20;stroke-width:0.5;stroke-linecap:round;stroke-linejoin:round;stroke-miterlimit:4;stroke-dasharray:2.8, 1.8;stroke-dashoffset:0;stroke-opacity:1"
       id="path112434" />
    <path
       d="m 488.001,483.404 c 5.394,-0.643 14.175,-1.339 22.73,-3.428 8.556,-2.089 16.203,-5.374 16.661,-7.659 0.365,-1.828 1.351,-3.714 -6.079,-4.874 -7.43,-1.16 -36.696,-4.642 -46.605,-4.642 -9.906,0 -25.442,-2.09 -34.898,2.089 -9.455,4.178 -35.781,19.682 -44.232,25.972"
       style="fill:none;stroke:#231f20;stroke-width:0.5;stroke-linecap:round;stroke-linejoin:round;stroke-miterlimit:4;stroke-dasharray:2.8, 1.8;stroke-dashoffset:0;stroke-opacity:1"
       id="path112436" />
    <path
       d="m 509.445,480.278 c -3.608,0.698 -38.084,-14.499 -40.125,-17.613"
       style="fill:none;stroke:#231f20;stroke-width:0.5;stroke-linecap:round;stroke-linejoin:round;stroke-miterlimit:4;stroke-dasharray:2.8, 1.8;stroke-dashoffset:0;stroke-opacity:1"
       id="path112438" />
    <path
       d="m 527.378,469.692 c 3.166,-1.785 6.768,-7.82 7.218,-10.606 0.451,-2.785 -1.125,-8.355 -8.78,-11.14 -7.654,-2.785 -15.085,-4.411 -18.912,1.16 -3.827,5.57 -6.965,11.486 -2.47,16.187"
       style="fill:none;stroke:#231f20;stroke-width:0.5;stroke-linecap:round;stroke-linejoin:round;stroke-miterlimit:4;stroke-dasharray:2.8, 1.8;stroke-dashoffset:0;stroke-opacity:1"
       id="path112440" />
    <path
       d="m 527.378,469.692 c 3.089,-2.311 7.444,-3.409 12.622,-3.409 5.179,0 9.533,1.098 12.622,3.409"
       style="fill:none;stroke:#231f20;stroke-width:0.5;stroke-linecap:round;stroke-linejoin:round;stroke-miterlimit:4;stroke-dasharray:2.8, 1.8;stroke-dashoffset:0;stroke-opacity:1"
       id="path112442" />
    <path
       d="m 537.786,400.247 c 0,4.641 0.188,45.377 0.188,49.091 0,3.714 0.45,7.66 2.026,7.66 1.575,0 2.027,-3.946 2.027,-7.66 0,-3.714 0.187,-44.45 0.187,-49.091"
       style="fill:none;stroke:#231f20;stroke-width:0.5;stroke-linecap:round;stroke-linejoin:round;stroke-miterlimit:4;stroke-dasharray:2.8, 1.8;stroke-dashoffset:0;stroke-opacity:1"
       id="path112444" />
    <path
       d="m 537.974,449.338 c -2.927,0 -8.474,0.088 -10.652,-0.772"
       style="fill:none;stroke:#231f20;stroke-width:0.5;stroke-linecap:round;stroke-linejoin:round;stroke-miterlimit:4;stroke-dasharray:2.8, 1.8;stroke-dashoffset:0;stroke-opacity:1"
       id="path112446" />
    <path
       d="m 514.116,445.407 c -3.385,-1.639 -5.562,-7.527 -5.411,-10.459 0.225,-4.41 3.91,-12.294 16.517,-16.705"
       style="fill:none;stroke:#231f20;stroke-width:0.5;stroke-linecap:round;stroke-linejoin:round;stroke-miterlimit:4;stroke-dasharray:2.8, 1.8;stroke-dashoffset:0;stroke-opacity:1"
       id="path112448" />
    <path
       d="m 480.801,463.045 c 8.092,-2.334 15.972,-9.297 15.972,-16.259 0,-6.963 -3.153,-19.497 -9.682,-28.783 -6.529,-9.284 -13.057,-15.549 -21.388,-15.782 -8.33,-0.232 -18.013,5.339 -21.164,13.23 -3.152,7.891 -9.404,27.008 4.98,47.16"
       style="fill:none;stroke:#231f20;stroke-width:0.5;stroke-linecap:round;stroke-linejoin:round;stroke-miterlimit:4;stroke-dasharray:2.8, 1.8;stroke-dashoffset:0;stroke-opacity:1"
       id="path112450" />
    <path
       d="m 466.334,418.783 c 3.647,4.792 5.673,11.522 3.421,15.7 -2.252,4.178 -5.853,8.125 -10.131,3.946 -4.278,-4.178 -6.078,-9.749 -3.828,-17.873"
       style="fill:none;stroke:#231f20;stroke-width:0.5;stroke-linecap:round;stroke-linejoin:round;stroke-miterlimit:4;stroke-dasharray:2.8, 1.8;stroke-dashoffset:0;stroke-opacity:1"
       id="path112452" />
    <path
       d="m 458.722,382.259 c -4.943,2.11 -10.806,-1.392 -12.157,-5.571 -1.351,-4.178 1.351,-9.516 8.331,-10.908 6.98,-1.393 11.256,1.624 12.157,4.641 0.902,3.018 -1.802,9.053 -8.331,11.838 z"
       style="fill:none;stroke:#231f20;stroke-width:0.5;stroke-linecap:round;stroke-linejoin:round;stroke-miterlimit:4;stroke-dasharray:2.8, 1.8;stroke-dashoffset:0;stroke-opacity:1"
       id="path112454" />
    <path
       d="m 527.618,343.265 c 2.476,-0.465 9.68,-1.16 12.382,-1.16 2.702,0 9.907,0.695 12.381,1.16"
       style="fill:none;stroke:#231f20;stroke-width:0.5;stroke-linecap:round;stroke-linejoin:round;stroke-miterlimit:4;stroke-dasharray:2.8, 1.8;stroke-dashoffset:0;stroke-opacity:1"
       id="path112456" />
    <path
       d="m 513.232,341.131 c -4.254,2.741 -1.374,7.008 -0.024,9.097 1.351,2.089 7.205,8.356 10.582,11.606 3.376,3.25 8.105,9.98 9.906,15.55 1.802,5.572 4.503,9.749 6.304,9.749 1.801,0 4.502,-4.177 6.304,-9.749 1.802,-5.57 6.53,-12.3 9.906,-15.55 3.377,-3.25 9.231,-9.517 10.582,-11.606 1.351,-2.089 4.23,-6.356 -0.024,-9.097"
       style="fill:none;stroke:#231f20;stroke-width:0.5;stroke-linecap:round;stroke-linejoin:round;stroke-miterlimit:4;stroke-dasharray:2.8, 1.8;stroke-dashoffset:0;stroke-opacity:1"
       id="path112458" />
    <path
       d="m 527.272,365.828 c 2.581,1.44 8.9,1.112 12.728,0.416 3.828,0.696 10.146,1.024 12.729,-0.416"
       style="fill:none;stroke:#231f20;stroke-width:0.5;stroke-linecap:round;stroke-linejoin:round;stroke-miterlimit:4;stroke-dasharray:2.8, 1.8;stroke-dashoffset:0;stroke-opacity:1"
       id="path112460" />
    <path
       d="m 524.582,362.638 c -0.792,-3.125 -1.693,-11.596 -1.467,-16.703"
       style="fill:none;stroke:#231f20;stroke-width:0.5;stroke-linecap:round;stroke-linejoin:round;stroke-miterlimit:4;stroke-dasharray:2.8, 1.8;stroke-dashoffset:0;stroke-opacity:1"
       id="path112462" />
    <path
       d="m 529.644,410.344 c 3.451,-2.445 6.98,-8.125 3.377,-20.426 -3.603,-12.3 -6.754,-23.442 -19.138,-29.709 -12.383,-6.267 -29.943,-9.749 -34.446,-4.177 -4.504,5.57 -5.403,12.069 2.026,22.978 7.43,10.908 17.787,19.73 22.289,23.908 4.502,4.177 15.084,15.085 25.892,7.426 z"
       style="fill:none;stroke:#231f20;stroke-width:0.5;stroke-linecap:round;stroke-linejoin:round;stroke-miterlimit:4;stroke-dasharray:2.8, 1.8;stroke-dashoffset:0;stroke-opacity:1"
       id="path112464" />
    <path
       d="m 508.726,407.365 c -0.696,-6.536 1.65,-11.049 7.634,-17.447 6.079,-6.498 9.357,-8.405 13.348,-10.469"
       style="fill:none;stroke:#231f20;stroke-width:0.5;stroke-linecap:round;stroke-linejoin:round;stroke-miterlimit:4;stroke-dasharray:2.8, 1.8;stroke-dashoffset:0;stroke-opacity:1"
       id="path112466" />
    <path
       d="m 515.927,361.338 c -1.143,6.994 -10.581,24.607 -25.562,28.682"
       style="fill:none;stroke:#231f20;stroke-width:0.5;stroke-linecap:round;stroke-linejoin:round;stroke-miterlimit:4;stroke-dasharray:2.8, 1.8;stroke-dashoffset:0;stroke-opacity:1"
       id="path112468" />
    <path
       d="m 337.264,459.901 c 1.655,-4.928 4.4,-14.594 5.284,-19.151 1.127,-5.802 -4.052,-12.998 -9.054,-3.044 -5.142,10.231 -5.578,13.489 -6.704,17.203 -1.127,3.714 -4.504,15.317 0.449,17.175 4.954,1.858 8.768,-8.439 10.025,-12.183 z"
       style="fill:none;stroke:#231f20;stroke-width:0.5;stroke-linecap:round;stroke-linejoin:round;stroke-miterlimit:4;stroke-dasharray:2.8, 1.8;stroke-dashoffset:0;stroke-opacity:1"
       id="path112470" />
    <path
       d="m 341.048,447.039 c 3.303,-8.61 12.983,-26.019 22.439,-38.32 9.456,-12.301 16.662,-25.066 11.933,-33.654 -4.727,-8.589 -19.775,-14.664 -32.196,-18.801 -14.634,-4.875 -30.17,-8.356 -41.877,-10.678 -11.707,-2.321 -27.466,-1.16 -40.75,-0.696 -13.284,0.464 -29.268,-1.625 -50.207,13.694 -20.938,15.319 -28.819,28.085 -38.05,43.405 -9.23,15.318 -16.885,35.513 -20.713,48.974 -3.827,13.461 -9.761,26.82 -3.144,27.214 6.617,0.395 8.55,-15.842 11.475,-24.893 2.926,-9.053 9.457,-30.869 23.641,-53.152 14.183,-22.282 27.468,-32.727 37.149,-37.834 9.679,-5.107 20.938,-7.661 30.843,-8.589 9.907,-0.926 17.787,1.163 21.614,5.34 0,0 16.211,6.498 40.526,6.035"
       style="fill:none;stroke:#231f20;stroke-width:0.5;stroke-linecap:round;stroke-linejoin:round;stroke-miterlimit:4;stroke-dasharray:2.8, 1.8;stroke-dashoffset:0;stroke-opacity:1"
       id="path112472" />
    <path
       d="m 325.528,470.629 c -2.115,-3.186 -5.492,-8.061 -4.367,-13.631 1.125,-5.571 8.653,-36.468 10.23,-54.109"
       style="fill:none;stroke:#231f20;stroke-width:0.5;stroke-linecap:round;stroke-linejoin:round;stroke-miterlimit:4;stroke-dasharray:2.8, 1.8;stroke-dashoffset:0;stroke-opacity:1"
       id="path112474" />
    <path
       d="m 375.831,387.584 c -15.721,-3.236 -33.506,1.638 -37.559,0.478 -3.16,-0.904 -8.782,-6.266 -28.144,-7.427 -19.362,-1.161 -27.693,0 -32.871,2.553 0,0 -5.127,-29.576 -6.927,-38.688"
       style="fill:none;stroke:#231f20;stroke-width:0.5;stroke-linecap:round;stroke-linejoin:round;stroke-miterlimit:4;stroke-dasharray:2.8, 1.8;stroke-dashoffset:0;stroke-opacity:1"
       id="path112476" />
    <path
       d="m 296.602,421.753 c 4.07,0.196 12.941,-1.953 16.903,-4.446 3.181,-2.002 4.982,-3.821 4.982,-3.821"
       style="fill:none;stroke:#231f20;stroke-width:0.5;stroke-linecap:round;stroke-linejoin:round;stroke-miterlimit:4;stroke-dasharray:2.8, 1.8;stroke-dashoffset:0;stroke-opacity:1"
       id="path112478" />
    <path
       d="m 324.034,410.007 c 3.151,-1.856 11.537,-9.411 14.238,-21.945 1.981,-9.195 0,-18.568 4.952,-31.798"
       style="fill:none;stroke:#231f20;stroke-width:0.5;stroke-linecap:round;stroke-linejoin:round;stroke-miterlimit:4;stroke-dasharray:2.8, 1.8;stroke-dashoffset:0;stroke-opacity:1"
       id="path112480" />
    <path
       d="m 312.694,417.777 c -3.232,-4.545 -3.915,-13.932 -3.465,-18.111 0.449,-4.177 4.602,-42.002 7.254,-50.827"
       style="fill:none;stroke:#231f20;stroke-width:0.5;stroke-linecap:round;stroke-linejoin:round;stroke-miterlimit:4;stroke-dasharray:2.8, 1.8;stroke-dashoffset:0;stroke-opacity:1"
       id="path112482" />
    <path
       d="m 310.582,421.949 c 0,-1.921 1.51,-3.479 3.375,-3.479 1.864,0 3.374,1.558 3.374,3.479 0,1.922 -1.51,3.479 -3.374,3.479 -1.865,0 -3.375,-1.557 -3.375,-3.479 z"
       style="fill:none;stroke:#231f20;stroke-width:0.5;stroke-linecap:round;stroke-linejoin:round;stroke-miterlimit:4;stroke-dasharray:2.8, 1.8;stroke-dashoffset:0;stroke-opacity:1"
       id="path112484" />
    <path
       d="m 318.43,415.266 c -0.445,-1.926 0.906,-4.17 2.797,-5.077 1.717,-0.828 3.481,-0.347 4.124,1.111 0.697,1.582 -0.088,3.927 -1.978,5.23 -2.115,1.454 -4.46,0.87 -4.943,-1.264 z"
       style="fill:none;stroke:#231f20;stroke-width:0.5;stroke-linecap:round;stroke-linejoin:round;stroke-miterlimit:4;stroke-dasharray:2.8, 1.8;stroke-dashoffset:0;stroke-opacity:1"
       id="path112486" />
    <path
       d="m 579.175,704.423 c 6.53,1.858 15.843,6.712 27.693,17.176 12.508,11.046 21.32,16.949 28.3,22.288 6.981,5.339 21.189,7.244 31.587,5.101 7.881,-1.625 12.384,-4.41 17.112,-8.356 4.083,-3.407 2.77,-8.507 -1.351,-10.909 -5.178,-3.017 -15.187,-3.84 -29.148,-3.143"
       style="fill:none;stroke:#231f20;stroke-width:0.5;stroke-linecap:round;stroke-linejoin:round;stroke-miterlimit:4;stroke-dasharray:2.8, 1.8;stroke-dashoffset:0;stroke-opacity:1"
       id="path112488" />
    <path
       d="m 500.825,704.423 c -6.529,1.858 -15.843,6.712 -27.693,17.176 -12.508,11.046 -21.32,16.949 -28.3,22.288 -6.98,5.339 -21.189,7.244 -31.587,5.101 -7.881,-1.625 -12.383,-4.41 -17.112,-8.356 -4.081,-3.407 -2.77,-8.507 1.352,-10.909 5.177,-3.017 15.187,-3.84 29.147,-3.143"
       style="fill:none;stroke:#231f20;stroke-width:0.5;stroke-linecap:round;stroke-linejoin:round;stroke-miterlimit:4;stroke-dasharray:2.8, 1.8;stroke-dashoffset:0;stroke-opacity:1"
       id="path112490" />
  </g>
</svg>
