<?xml version="1.0" encoding="UTF-8" standalone="no"?>
<!-- Created with Inkscape (http://www.inkscape.org/) -->

<svg
   version="1.1"
   id="svg91543"
   width="1440"
   height="1344"
   viewBox="0 0 1440 1344"
   xmlns="http://www.w3.org/2000/svg"
   xmlns:svg="http://www.w3.org/2000/svg">
  <defs
     id="defs91547" />
  <g
     id="g91551">
    <path
       d="m 651.759,363.098 c 0,-2.5 -2.182,-4.526 -4.874,-4.526 -2.691,0 -4.874,2.026 -4.874,4.526 0,2.499 2.183,4.526 4.874,4.526 2.692,0 4.874,-2.027 4.874,-4.526"
       style="fill:#ffffff;fill-opacity:1;fill-rule:nonzero;stroke:none;stroke-width:0.1"
       id="path92211" />
    <path
       d="m 651.759,363.098 c 0,-2.5 -2.182,-4.526 -4.874,-4.526 -2.691,0 -4.874,2.026 -4.874,4.526 0,2.499 2.183,4.526 4.874,4.526 2.692,0 4.874,-2.027 4.874,-4.526 z"
       style="fill:none;stroke:#231f20;stroke-width:0.5;stroke-linecap:butt;stroke-linejoin:miter;stroke-miterlimit:4;stroke-dasharray:none;stroke-opacity:1"
       id="path92213" />
    <path
       d="m 428.241,363.098 c 0,-2.5 2.182,-4.526 4.874,-4.526 2.691,0 4.875,2.026 4.875,4.526 0,2.499 -2.184,4.526 -4.875,4.526 -2.692,0 -4.874,-2.027 -4.874,-4.526"
       style="fill:#ffffff;fill-opacity:1;fill-rule:nonzero;stroke:none;stroke-width:0.1"
       id="path92215" />
    <path
       d="m 428.241,363.098 c 0,-2.5 2.182,-4.526 4.874,-4.526 2.691,0 4.875,2.026 4.875,4.526 0,2.499 -2.184,4.526 -4.875,4.526 -2.692,0 -4.874,-2.027 -4.874,-4.526 z"
       style="fill:none;stroke:#231f20;stroke-width:0.5;stroke-linecap:butt;stroke-linejoin:miter;stroke-miterlimit:4;stroke-dasharray:none;stroke-opacity:1"
       id="path92217" />
    <path
       d="m 540,340.83 c -2.437,0 -8.877,-0.363 -11.141,3.119 -2.263,3.482 -7.389,4.959 -11.837,2.089 -5.396,-3.482 -13.927,-4.178 -20.193,-3.482 -5.882,0.656 -26.809,7.66 -32.032,10.793 -2.61,1.567 -7.466,1.396 -14.167,4.875 -6.702,3.484 -15.249,10.618 -25.522,10.792 -20.542,0.349 -26.809,9.4 -26.809,9.4 1.393,-16.014 -14.97,-18.103 -14.97,-18.103 -12.186,-11.142 -34.121,-17.408 -40.387,-19.497 -6.267,-2.089 -13.578,-5.223 -17.06,-3.482 -3.482,1.741 -9.052,0 -22.631,-6.267 -13.578,-6.267 -31.333,-2.089 -44.215,1.392 -12.883,3.482 -28.898,6.037 -47.466,25.534 -18.569,19.497 -32.03,61.276 -42.244,93.771 -10.214,32.496 -1.857,43.172 -3.249,48.278 -1.393,5.105 -6.964,6.963 -15.32,25.067 -8.355,18.104 -16.248,70.559 -13.463,117.91 2.786,47.35 36.442,118.375 93.54,172.688 57.098,54.313 131.953,73.113 196.014,74.158 64.062,1.044 82.747,-5.687 98.298,-18.917 C 540.697,857.717 540,841.486 540,836.365 c 0,5.121 -0.696,21.352 14.854,34.583 15.552,13.23 34.237,19.961 98.298,18.917 64.061,-1.045 138.916,-19.845 196.014,-74.158 57.099,-54.313 90.754,-125.338 93.54,-172.688 2.785,-47.351 -5.107,-99.806 -13.462,-117.91 -8.357,-18.104 -13.927,-19.962 -15.32,-25.067 -1.392,-5.106 6.965,-15.782 -3.249,-48.278 -10.214,-32.495 -23.676,-74.274 -42.244,-93.771 -18.568,-19.497 -34.584,-22.052 -47.466,-25.534 -12.881,-3.481 -30.637,-7.659 -44.215,-1.392 -13.58,6.267 -19.15,8.008 -22.631,6.267 -3.482,-1.741 -10.793,1.393 -17.06,3.482 -6.267,2.089 -28.201,8.355 -40.387,19.497 0,0 -16.363,2.089 -14.97,18.103 0,0 -6.268,-9.051 -26.809,-9.4 -10.236,-0.174 -18.83,-7.324 -25.523,-10.792 -6.738,-3.49 -11.548,-3.303 -14.167,-4.875 -5.223,-3.133 -26.149,-10.137 -32.031,-10.793 -6.267,-0.696 -14.796,0 -20.193,3.482 -4.448,2.87 -9.31,1.205 -11.838,-2.089 -2.872,-3.743 -8.704,-3.119 -11.141,-3.119 z m 0,330.738 c 0,-5.051 -3.57,-13.137 -12.404,-18.432 l 0.007,-0.012 c 0.373,-0.68 0.7,-1.487 0.987,-2.363 l 0.004,0.005 c 3.042,2.176 7.925,3.568 11.406,3.568 3.482,0 8.365,-1.392 11.407,-3.568 l 0.004,-0.005 c 0.287,0.876 0.613,1.683 0.987,2.363 l 0.015,0.008 C 543.573,658.426 540,666.514 540,671.568"
       style="fill:#ffffff;fill-opacity:1;fill-rule:nonzero;stroke:none;stroke-width:0.1"
       id="path92219" />
    <path
       d="m 540,340.83 c -2.437,0 -8.877,-0.363 -11.141,3.119 -2.263,3.482 -7.389,4.959 -11.837,2.089 -5.396,-3.482 -13.927,-4.178 -20.193,-3.482 -5.882,0.656 -26.809,7.66 -32.032,10.793 -2.61,1.567 -7.466,1.396 -14.167,4.875 -6.702,3.484 -15.249,10.618 -25.522,10.792 -20.542,0.349 -26.809,9.4 -26.809,9.4 1.393,-16.014 -14.97,-18.103 -14.97,-18.103 -12.186,-11.142 -34.121,-17.408 -40.387,-19.497 -6.267,-2.089 -13.578,-5.223 -17.06,-3.482 -3.482,1.741 -9.052,0 -22.631,-6.267 -13.578,-6.267 -31.333,-2.089 -44.215,1.392 -12.883,3.482 -28.898,6.037 -47.466,25.534 -18.569,19.497 -32.03,61.276 -42.244,93.771 -10.214,32.496 -1.857,43.172 -3.249,48.278 -1.393,5.105 -6.964,6.963 -15.32,25.067 -8.355,18.104 -16.248,70.559 -13.463,117.91 2.786,47.35 36.442,118.375 93.54,172.688 57.098,54.313 131.953,73.113 196.014,74.158 64.062,1.044 82.747,-5.687 98.298,-18.917 C 540.697,857.717 540,841.486 540,836.365 c 0,5.121 -0.696,21.352 14.854,34.583 15.552,13.23 34.237,19.961 98.298,18.917 64.061,-1.045 138.916,-19.845 196.014,-74.158 57.099,-54.313 90.754,-125.338 93.54,-172.688 2.785,-47.351 -5.107,-99.806 -13.462,-117.91 -8.357,-18.104 -13.927,-19.962 -15.32,-25.067 -1.392,-5.106 6.965,-15.782 -3.249,-48.278 -10.214,-32.495 -23.676,-74.274 -42.244,-93.771 -18.568,-19.497 -34.584,-22.052 -47.466,-25.534 -12.881,-3.481 -30.637,-7.659 -44.215,-1.392 -13.58,6.267 -19.15,8.008 -22.631,6.267 -3.482,-1.741 -10.793,1.393 -17.06,3.482 -6.267,2.089 -28.201,8.355 -40.387,19.497 0,0 -16.363,2.089 -14.97,18.103 0,0 -6.268,-9.051 -26.809,-9.4 -10.236,-0.174 -18.83,-7.324 -25.523,-10.792 -6.738,-3.49 -11.548,-3.303 -14.167,-4.875 -5.223,-3.133 -26.149,-10.137 -32.031,-10.793 -6.267,-0.696 -14.796,0 -20.193,3.482 -4.448,2.87 -9.31,1.205 -11.838,-2.089 -2.872,-3.743 -8.704,-3.119 -11.141,-3.119 z m 0,330.738 c 0,-5.051 -3.57,-13.137 -12.404,-18.432 l 0.007,-0.012 c 0.373,-0.68 0.7,-1.487 0.987,-2.363 l 0.004,0.005 c 3.042,2.176 7.925,3.568 11.406,3.568 3.482,0 8.365,-1.392 11.407,-3.568 l 0.004,-0.005 c 0.287,0.876 0.613,1.683 0.987,2.363 l 0.015,0.008 C 543.573,658.426 540,666.514 540,671.568 Z"
       style="fill:none;stroke:#231f20;stroke-width:0.75;stroke-linecap:round;stroke-linejoin:round;stroke-miterlimit:4;stroke-dasharray:none;stroke-opacity:1"
       id="path92221" />
    <path
       d="M 540,731.114 V 836.365"
       style="fill:none;stroke:#231f20;stroke-width:0.75;stroke-linecap:round;stroke-linejoin:round;stroke-miterlimit:4;stroke-dasharray:none;stroke-opacity:1"
       id="path92223" />
    <path
       d="m 818.876,493.658 c -4.177,-3.829 -16.015,-15.667 -21.585,-24.719 -2.944,-4.782 -7.539,-14.132 -13.016,-23.07"
       style="fill:none;stroke:#231f20;stroke-width:0.5;stroke-linecap:butt;stroke-linejoin:miter;stroke-miterlimit:4;stroke-dasharray:none;stroke-opacity:1"
       id="path92225" />
    <path
       d="m 561.469,735.538 c 12.303,4.27 21.703,7.752 31.451,25.507 9.749,17.756 17.06,16.712 28.55,17.06 11.49,0.349 34.468,1.741 46.654,-3.829 0,0 -12.479,0.306 -20.89,0.696 -9.4,0.435 -27.157,-0.522 -34.12,-4.526 -9.855,-5.666 -24.42,-27.09 -34.841,-27.123"
       style="fill:none;stroke:#231f20;stroke-width:0.5;stroke-linecap:butt;stroke-linejoin:miter;stroke-miterlimit:4;stroke-dasharray:none;stroke-opacity:1"
       id="path92227" />
    <path
       d="m 699.458,749.905 c 21.948,-11.787 38.297,-27.505 41.083,-34.12 2.785,-6.616 3.481,-14.971 2.437,-21.935 -1.045,-6.963 1.044,-19.845 -0.349,-22.282 -1.392,-2.437 -9.748,-4.874 -8.704,-2.089 1.045,2.786 6.267,5.919 0,7.66 -6.266,1.74 -30.637,13.23 -35.164,25.068 -4.526,11.836 -5.919,27.156 -18.801,37.252 -12.881,10.097 -24.022,16.016 -29.593,18.453 -5.571,2.437 -8.356,6.615 -0.697,6.615 7.661,0 30.987,-4.526 49.788,-14.622"
       style="fill:#706d6e;fill-opacity:1;fill-rule:nonzero;stroke:none;stroke-width:0.1"
       id="path92229" />
    <path
       d="m 699.458,749.905 c 21.948,-11.787 38.297,-27.505 41.083,-34.12 2.785,-6.616 3.481,-14.971 2.437,-21.935 -1.045,-6.963 1.044,-19.845 -0.349,-22.282 -1.392,-2.437 -9.748,-4.874 -8.704,-2.089 1.045,2.786 6.267,5.919 0,7.66 -6.266,1.74 -30.637,13.23 -35.164,25.068 -4.526,11.836 -5.919,27.156 -18.801,37.252 -12.881,10.097 -24.022,16.016 -29.593,18.453 -5.571,2.437 -8.356,6.615 -0.697,6.615 7.661,0 30.987,-4.526 49.788,-14.622 z"
       style="fill:none;stroke:#231f20;stroke-width:0.75;stroke-linecap:round;stroke-linejoin:round;stroke-miterlimit:4;stroke-dasharray:none;stroke-opacity:1"
       id="path92231" />
    <path
       d="m 606.847,526.733 c 0,-4.874 1.74,-13.578 -8.356,-16.363 -10.096,-2.786 -14.971,8.007 -15.667,15.319 -0.697,7.311 3.235,18.591 10.445,20.193 3.133,0.697 8.704,-1.045 10.793,-6.964 2.089,-5.918 2.785,-12.185 2.785,-12.185 z"
       style="fill:none;stroke:#231f20;stroke-width:0.5;stroke-linecap:butt;stroke-linejoin:miter;stroke-miterlimit:4;stroke-dasharray:none;stroke-opacity:1"
       id="path92233" />
    <path
       d="m 742.629,671.568 c 16.364,-3.133 21.935,-22.282 24.024,-43.171 2.089,-20.891 1.74,-55.011 -12.882,-94.7 -14.623,-39.691 -42.476,-69.981 -65.803,-76.247 -23.327,-6.268 -30.637,5.221 -31.682,18.8 -1.044,13.579 10.598,30.271 16.14,33.344 8.927,4.953 32.948,23.406 50.359,47.081 17.409,23.677 14.622,56.054 12.881,65.107 -1.741,9.052 -10.792,12.882 -16.711,12.185 -5.919,-0.696 -13.231,-0.696 -18.105,6.615 -4.874,7.311 -12.054,17.658 -12.054,17.658"
       style="fill:none;stroke:#231f20;stroke-width:0.5;stroke-linecap:butt;stroke-linejoin:miter;stroke-miterlimit:4;stroke-dasharray:none;stroke-opacity:1"
       id="path92235" />
    <path
       d="m 613.81,447.353 c 4.11,1.286 7.312,-2.786 8.704,-10.793 1.393,-8.008 3.134,-16.364 -3.481,-18.104 -6.615,-1.742 -7.312,5.57 -8.008,10.444 -0.696,4.874 -2.785,16.712 2.785,18.453 z"
       style="fill:none;stroke:#231f20;stroke-width:0.5;stroke-linecap:butt;stroke-linejoin:miter;stroke-miterlimit:4;stroke-dasharray:none;stroke-opacity:1"
       id="path92237" />
    <path
       d="M 540,465.805 V 357.876"
       style="fill:none;stroke:#231f20;stroke-width:0.75;stroke-linecap:round;stroke-linejoin:round;stroke-miterlimit:4;stroke-dasharray:none;stroke-opacity:1"
       id="path92239" />
    <path
       d="m 739.007,669.11 c -1.252,-3.809 -1.6,-12.86 1.185,-13.209 0,0 3.487,8.08 3.833,15.355"
       style="fill:none;stroke:#231f20;stroke-width:0.5;stroke-linecap:butt;stroke-linejoin:miter;stroke-miterlimit:4;stroke-dasharray:none;stroke-opacity:1"
       id="path92241" />
    <path
       d="m 706.42,642.323 c 3.279,-1.822 12.535,-1.393 16.016,-0.348 0,0 0.349,3.829 -5.223,3.829 -5.57,0 -12.881,3.134 -14.97,3.482 -2.089,0.348 -2.785,-2.089 -1.741,-2.786 1.044,-0.696 2.786,-2.436 5.918,-4.177 z"
       style="fill:none;stroke:#231f20;stroke-width:0.5;stroke-linecap:butt;stroke-linejoin:miter;stroke-miterlimit:4;stroke-dasharray:none;stroke-opacity:1"
       id="path92243" />
    <path
       d="m 693.805,650.971 6.697,-4.471"
       style="fill:none;stroke:#231f20;stroke-width:0.5;stroke-linecap:butt;stroke-linejoin:miter;stroke-miterlimit:4;stroke-dasharray:none;stroke-opacity:1"
       id="path92245" />
    <path
       d="m 722.436,641.975 c 4.526,1.044 13.23,2.089 17.756,13.926"
       style="fill:none;stroke:#231f20;stroke-width:0.5;stroke-linecap:butt;stroke-linejoin:miter;stroke-miterlimit:4;stroke-dasharray:none;stroke-opacity:1"
       id="path92247" />
    <path
       d="m 701.067,649.151 c 2.568,1.876 4.265,4.448 9.159,5.25"
       style="fill:none;stroke:#231f20;stroke-width:0.5;stroke-linecap:butt;stroke-linejoin:miter;stroke-miterlimit:4;stroke-dasharray:none;stroke-opacity:1"
       id="path92249" />
    <path
       d="m 638.215,365.445 c 3.81,9.811 13.544,25.157 18.419,30.728 4.874,5.571 24.023,21.586 26.46,23.327 2.437,1.741 8.008,4.874 6.963,-3.482 -1.044,-8.355 -4.526,-30.29 -8.355,-37.602"
       style="fill:none;stroke:#231f20;stroke-width:0.5;stroke-linecap:butt;stroke-linejoin:miter;stroke-miterlimit:4;stroke-dasharray:none;stroke-opacity:1"
       id="path92251" />
    <path
       d="m 672.436,410.698 c -5.357,-11.043 -16.112,-33.731 -21.354,-41.883"
       style="fill:none;stroke:#231f20;stroke-width:0.5;stroke-linecap:butt;stroke-linejoin:miter;stroke-miterlimit:4;stroke-dasharray:none;stroke-opacity:1"
       id="path92253" />
    <path
       d="m 744.022,441.085 c 0,-2.05 -1.663,-3.712 -3.714,-3.712 -2.051,0 -3.714,1.662 -3.714,3.712 0,2.051 1.663,3.716 3.714,3.716 2.051,0 3.714,-1.665 3.714,-3.716 z"
       style="fill:none;stroke:#231f20;stroke-width:0.5;stroke-linecap:butt;stroke-linejoin:miter;stroke-miterlimit:4;stroke-dasharray:none;stroke-opacity:1"
       id="path92255" />
    <path
       d="m 337.172,683.406 c -2.526,8.662 -4.787,19.001 -7.112,24.719 -2.161,5.314 -3.978,7.189 -8.356,6.963 -8.443,-0.435 -41.083,-32.379 -54.313,-66.15 -13.23,-33.772 -17.408,-81.122 -17.059,-115.241 0.347,-34.12 10.793,-40.039 10.793,-40.039 -2.438,2.437 -7.391,1.229 -8.008,-2.785 -0.7,-4.554 -0.397,-9.695 1.392,-24.72 0.695,-5.842 2.78,-15.98 2.785,-20.193 0.046,-36.236 15.32,-43.171 15.32,-43.171 -22.979,-2.438 -21.238,57.097 -22.979,85.298 -1.741,28.202 -8.356,55.358 0.697,111.76 9.051,56.403 18.103,73.114 53.964,118.375 35.861,45.261 63.017,54.313 88.084,59.883 25.068,5.571 71.373,11.489 81.47,12.882 13.128,1.811 15.335,-8.905 19.497,-21.237 2.876,-8.527 6.685,-15.052 10.487,-21.336 10.054,-16.614 30.944,-17.31 36.166,-17.31 5.223,0 26.112,0.696 36.166,17.31 3.803,6.284 7.612,12.809 10.488,21.336 4.161,12.332 6.369,23.048 19.497,21.237 10.097,-1.393 56.401,-7.311 81.47,-12.882 25.067,-5.57 52.223,-14.622 88.084,-59.883 35.86,-45.261 44.913,-61.972 53.964,-118.375 9.052,-56.402 2.438,-83.558 0.697,-111.76 -1.742,-28.201 0,-87.736 -22.979,-85.298 0,0 15.273,6.935 15.32,43.171 0.004,4.213 2.089,14.351 2.785,20.193 1.788,15.025 2.092,20.166 1.392,24.72 -0.617,4.014 -5.57,5.222 -8.008,2.785 0,0 10.445,5.919 10.793,40.039 0.349,34.119 -3.83,81.469 -17.059,115.241 -13.231,33.771 -45.87,65.715 -54.314,66.15 -4.378,0.226 -6.194,-1.649 -8.355,-6.963 -2.326,-5.718 -4.586,-16.057 -7.113,-24.719"
       style="fill:none;stroke:#231f20;stroke-width:0.5;stroke-linecap:butt;stroke-linejoin:miter;stroke-miterlimit:4;stroke-dasharray:none;stroke-opacity:1"
       id="path92257" />
    <path
       d="m 261.125,493.658 c 4.177,-3.829 16.014,-15.667 21.585,-24.719 2.943,-4.782 7.538,-14.132 13.015,-23.07"
       style="fill:none;stroke:#231f20;stroke-width:0.5;stroke-linecap:butt;stroke-linejoin:miter;stroke-miterlimit:4;stroke-dasharray:none;stroke-opacity:1"
       id="path92259" />
    <path
       d="m 518.532,735.538 c -12.303,4.27 -21.703,7.752 -31.452,25.507 -9.748,17.756 -17.06,16.712 -28.549,17.06 -11.489,0.349 -34.468,1.741 -46.654,-3.829 0,0 12.478,0.306 20.89,0.696 9.401,0.435 27.156,-0.522 34.119,-4.526 9.856,-5.666 24.421,-27.09 34.841,-27.123"
       style="fill:none;stroke:#231f20;stroke-width:0.5;stroke-linecap:butt;stroke-linejoin:miter;stroke-miterlimit:4;stroke-dasharray:none;stroke-opacity:1"
       id="path92261" />
    <path
       d="m 380.543,749.905 c -21.948,-11.787 -38.297,-27.505 -41.083,-34.12 -2.785,-6.616 -3.481,-14.971 -2.437,-21.935 1.045,-6.963 -1.044,-19.845 0.349,-22.282 1.392,-2.437 9.748,-4.874 8.703,-2.089 -1.044,2.786 -6.267,5.919 0,7.66 6.267,1.74 30.638,13.23 35.165,25.068 4.525,11.836 5.918,27.156 18.8,37.252 12.882,10.097 24.023,16.016 29.593,18.453 5.572,2.437 8.357,6.615 0.697,6.615 -7.66,0 -30.987,-4.526 -49.787,-14.622"
       style="fill:#706d6e;fill-opacity:1;fill-rule:nonzero;stroke:none;stroke-width:0.1"
       id="path92263" />
    <path
       d="m 380.543,749.905 c -21.948,-11.787 -38.297,-27.505 -41.083,-34.12 -2.785,-6.616 -3.481,-14.971 -2.437,-21.935 1.045,-6.963 -1.044,-19.845 0.349,-22.282 1.392,-2.437 9.748,-4.874 8.703,-2.089 -1.044,2.786 -6.267,5.919 0,7.66 6.267,1.74 30.638,13.23 35.165,25.068 4.525,11.836 5.918,27.156 18.8,37.252 12.882,10.097 24.023,16.016 29.593,18.453 5.572,2.437 8.357,6.615 0.697,6.615 -7.66,0 -30.987,-4.526 -49.787,-14.622 z"
       style="fill:none;stroke:#231f20;stroke-width:0.75;stroke-linecap:round;stroke-linejoin:round;stroke-miterlimit:4;stroke-dasharray:none;stroke-opacity:1"
       id="path92265" />
    <path
       d="m 433.646,764.103 c 33.257,1.316 38.491,-13.838 52.041,-26.385 18.801,-17.407 47.35,-23.675 54.313,-23.675 6.963,0 35.512,6.268 54.313,23.675 13.55,12.547 18.784,27.701 52.042,26.385"
       style="fill:none;stroke:#231f20;stroke-width:0.5;stroke-linecap:butt;stroke-linejoin:miter;stroke-miterlimit:4;stroke-dasharray:none;stroke-opacity:1"
       id="path92267" />
    <path
       d="m 516.164,719.765 c 10.63,-10.294 21.399,-10.247 23.836,-7.81 2.437,-2.437 13.206,-2.484 23.837,7.81"
       style="fill:none;stroke:#231f20;stroke-width:0.5;stroke-linecap:butt;stroke-linejoin:miter;stroke-miterlimit:4;stroke-dasharray:none;stroke-opacity:1"
       id="path92269" />
    <path
       d="m 346.075,669.479 c 8.356,-15.667 25.764,-16.711 37.254,-14.274 11.489,2.437 20.193,13.926 38.645,17.06 18.452,3.133 29.942,-4.875 37.253,-9.749 7.312,-4.874 10.445,-8.355 20.542,-12.534 10.097,-4.178 30.289,-4.178 42.823,0.697 12.534,4.874 17.408,14.971 17.408,20.889 0,-5.918 4.874,-16.015 17.409,-20.889 12.533,-4.875 32.726,-4.875 42.823,-0.697 10.097,4.179 13.23,7.66 20.541,12.534 7.311,4.874 18.801,12.882 37.254,9.749 18.452,-3.134 27.156,-14.623 38.645,-17.06 11.49,-2.437 28.898,-1.393 37.253,14.274"
       style="fill:none;stroke:#231f20;stroke-width:0.75;stroke-linecap:round;stroke-linejoin:round;stroke-miterlimit:4;stroke-dasharray:none;stroke-opacity:1"
       id="path92271" />
    <path
       d="m 454.62,665.516 c -1.126,8.223 7.392,7.097 7.392,7.097 -8.008,3.481 -32.726,13.578 -46.653,24.371 -13.927,10.793 -14.971,23.675 -13.23,33.424 1.741,9.748 25.068,21.586 35.164,24.371 10.097,2.785 20.194,0.347 26.112,-3.482 5.919,-3.83 21.238,-18.8 28.201,-24.023 6.963,-5.223 29.594,-19.149 34.468,-22.282 4.874,-3.134 12.534,-4.527 13.926,-4.527 1.393,0 9.052,1.393 13.926,4.527 4.875,3.133 27.505,17.059 34.469,22.282 6.963,5.223 22.282,20.193 28.2,24.023 5.919,3.829 16.016,6.267 26.113,3.482 10.096,-2.785 33.423,-14.623 35.164,-24.371 1.741,-9.749 0.696,-22.631 -13.231,-33.424 -13.926,-10.793 -38.645,-20.89 -46.653,-24.371 0,0 8.519,1.126 7.393,-7.097"
       style="fill:none;stroke:#231f20;stroke-width:0.5;stroke-linecap:butt;stroke-linejoin:miter;stroke-miterlimit:4;stroke-dasharray:none;stroke-opacity:1"
       id="path92273" />
    <path
       d="m 473.154,526.733 c 0,-4.874 -1.741,-13.578 8.355,-16.363 10.097,-2.786 14.971,8.007 15.667,15.319 0.697,7.311 -3.235,18.591 -10.444,20.193 -3.134,0.697 -8.704,-1.045 -10.793,-6.964 -2.089,-5.918 -2.785,-12.185 -2.785,-12.185 z"
       style="fill:none;stroke:#231f20;stroke-width:0.5;stroke-linecap:butt;stroke-linejoin:miter;stroke-miterlimit:4;stroke-dasharray:none;stroke-opacity:1"
       id="path92275" />
    <path
       d="m 337.372,671.568 c -16.365,-3.133 -21.935,-22.282 -24.024,-43.171 -2.089,-20.891 -1.741,-55.011 12.882,-94.7 14.623,-39.691 42.476,-69.981 65.803,-76.247 23.326,-6.268 30.637,5.221 31.682,18.8 1.044,13.579 -10.598,30.271 -16.14,33.344 -8.928,4.953 -32.949,23.406 -50.359,47.081 -17.409,23.677 -14.623,56.054 -12.882,65.107 1.741,9.052 10.793,12.882 16.712,12.185 5.918,-0.696 13.23,-0.696 18.104,6.615 4.875,7.311 12.054,17.658 12.054,17.658"
       style="fill:none;stroke:#231f20;stroke-width:0.5;stroke-linecap:butt;stroke-linejoin:miter;stroke-miterlimit:4;stroke-dasharray:none;stroke-opacity:1"
       id="path92277" />
    <path
       d="m 466.19,447.353 c -4.109,1.286 -7.311,-2.786 -8.703,-10.793 -1.394,-8.008 -3.134,-16.364 3.481,-18.104 6.616,-1.742 7.312,5.57 8.008,10.444 0.696,4.874 2.785,16.712 -2.786,18.453 z"
       style="fill:none;stroke:#231f20;stroke-width:0.5;stroke-linecap:butt;stroke-linejoin:miter;stroke-miterlimit:4;stroke-dasharray:none;stroke-opacity:1"
       id="path92279" />
    <path
       d="m 340.993,669.11 c 1.253,-3.809 1.6,-12.86 -1.185,-13.209 0,0 -3.487,8.08 -3.832,15.355"
       style="fill:none;stroke:#231f20;stroke-width:0.5;stroke-linecap:butt;stroke-linejoin:miter;stroke-miterlimit:4;stroke-dasharray:none;stroke-opacity:1"
       id="path92281" />
    <path
       d="m 373.58,642.323 c -3.278,-1.822 -12.534,-1.393 -16.016,-0.348 0,0 -0.348,3.829 5.223,3.829 5.57,0 12.881,3.134 14.97,3.482 2.09,0.348 2.786,-2.089 1.742,-2.786 -1.045,-0.696 -2.786,-2.436 -5.919,-4.177 z"
       style="fill:none;stroke:#231f20;stroke-width:0.5;stroke-linecap:butt;stroke-linejoin:miter;stroke-miterlimit:4;stroke-dasharray:none;stroke-opacity:1"
       id="path92283" />
    <path
       d="M 386.195,650.971 379.499,646.5"
       style="fill:none;stroke:#231f20;stroke-width:0.5;stroke-linecap:butt;stroke-linejoin:miter;stroke-miterlimit:4;stroke-dasharray:none;stroke-opacity:1"
       id="path92285" />
    <path
       d="m 357.564,641.975 c -4.525,1.044 -13.23,2.089 -17.756,13.926"
       style="fill:none;stroke:#231f20;stroke-width:0.5;stroke-linecap:butt;stroke-linejoin:miter;stroke-miterlimit:4;stroke-dasharray:none;stroke-opacity:1"
       id="path92287" />
    <path
       d="m 378.934,649.151 c -2.569,1.876 -4.266,4.448 -9.159,5.25"
       style="fill:none;stroke:#231f20;stroke-width:0.5;stroke-linecap:butt;stroke-linejoin:miter;stroke-miterlimit:4;stroke-dasharray:none;stroke-opacity:1"
       id="path92289" />
    <path
       d="m 407.565,410.698 c 5.357,-11.043 16.112,-33.731 21.353,-41.883"
       style="fill:none;stroke:#231f20;stroke-width:0.5;stroke-linecap:butt;stroke-linejoin:miter;stroke-miterlimit:4;stroke-dasharray:none;stroke-opacity:1"
       id="path92291" />
    <path
       d="m 540,357.876 c -2.088,0 -6.615,-4.527 -4.526,-6.616 2.089,-2.089 4.526,-2.089 4.526,-2.089 0,0 2.437,0 4.527,2.089 2.089,2.089 -2.438,6.616 -4.527,6.616"
       style="fill:#706d6e;fill-opacity:1;fill-rule:nonzero;stroke:none;stroke-width:0.1"
       id="path92293" />
    <path
       d="m 540,357.876 c -2.088,0 -6.615,-4.527 -4.526,-6.616 2.089,-2.089 4.526,-2.089 4.526,-2.089 0,0 2.437,0 4.527,2.089 2.089,2.089 -2.438,6.616 -4.527,6.616 z"
       style="fill:none;stroke:#231f20;stroke-width:0.75;stroke-linecap:round;stroke-linejoin:round;stroke-miterlimit:4;stroke-dasharray:none;stroke-opacity:1"
       id="path92295" />
    <path
       d="m 335.979,441.085 c 0,-2.05 1.663,-3.712 3.714,-3.712 2.051,0 3.714,1.662 3.714,3.712 0,2.051 -1.663,3.716 -3.714,3.716 -2.051,0 -3.714,-1.665 -3.714,-3.716 z"
       style="fill:none;stroke:#231f20;stroke-width:0.5;stroke-linecap:butt;stroke-linejoin:miter;stroke-miterlimit:4;stroke-dasharray:none;stroke-opacity:1"
       id="path92297" />
    <path
       d="m 540,700.465 c 0,-4.873 0,-22.978 0,-28.897"
       style="fill:none;stroke:#231f20;stroke-width:0.75;stroke-linecap:round;stroke-linejoin:round;stroke-miterlimit:4;stroke-dasharray:none;stroke-opacity:1"
       id="path92299" />
    <path
       d="m 600.928,389.209 c -5.57,9.053 -24.023,21.239 -32.03,27.158 -8.008,5.918 -13.892,5.57 -19.149,2.785 -5.919,-3.134 -6.963,-9.401 -7.85,-14.267 h -10e-4 c -0.103,-2.818 -0.259,-5.567 -0.501,-7.98 h 10e-4 c -0.291,-2.432 2.432,-7.347 6.61,-12.221 4.178,-4.875 13.926,-18.453 18.801,-21.934 4.874,-3.482 9.748,-4.874 20.193,-3.482 4.653,0.62 10.203,1.793 15.39,3.058 5.833,6.626 4.084,17.87 -1.464,26.883 z"
       style="fill:none;stroke:#231f20;stroke-width:0.25;stroke-linecap:butt;stroke-linejoin:miter;stroke-miterlimit:4;stroke-dasharray:none;stroke-opacity:1"
       id="path92301" />
    <path
       d="m 479.073,389.209 c 5.57,9.053 24.022,21.239 32.03,27.158 8.008,5.918 13.891,5.57 19.149,2.785 5.918,-3.134 6.963,-9.401 7.85,-14.267 h 10e-4 c 0.103,-2.818 0.259,-5.567 0.501,-7.98 h -0.002 c 0.291,-2.432 -2.432,-7.347 -6.609,-12.221 -4.178,-4.875 -13.927,-18.453 -18.801,-21.934 -4.874,-3.482 -9.748,-4.874 -20.193,-3.482 -4.653,0.62 -10.203,1.793 -15.39,3.058 -5.833,6.626 -4.084,17.87 1.464,26.883 z"
       style="fill:none;stroke:#231f20;stroke-width:0.25;stroke-linecap:butt;stroke-linejoin:miter;stroke-miterlimit:4;stroke-dasharray:none;stroke-opacity:1"
       id="path92303" />
    <path
       d="m 559.688,649.873 c 0.854,-4.069 -1.285,-11.351 -2.678,-13.44 4.801,-0.571 10.646,-1.657 15.021,-2.118 6.615,-0.696 15.983,-1.592 21.918,4.25 -0.836,3.714 -0.952,7.281 -1.101,9.375"
       style="fill:none;stroke:#231f20;stroke-width:0.5;stroke-linecap:butt;stroke-linejoin:miter;stroke-miterlimit:4;stroke-dasharray:none;stroke-opacity:1"
       id="path92305" />
    <path
       d="m 520.313,649.873 c -0.855,-4.069 1.285,-11.351 2.678,-13.44 -4.801,-0.571 -10.647,-1.657 -15.022,-2.118 -6.614,-0.696 -15.982,-1.592 -21.917,4.25 0.836,3.714 0.951,7.281 1.1,9.375"
       style="fill:none;stroke:#231f20;stroke-width:0.5;stroke-linecap:butt;stroke-linejoin:miter;stroke-miterlimit:4;stroke-dasharray:none;stroke-opacity:1"
       id="path92307" />
    <path
       d="m 540,637.796 c 1.739,0 3.218,3.126 10.161,2.092 -0.274,3.258 0.178,7.602 1.25,10.873 l -0.004,0.005 c -3.042,2.176 -7.925,3.568 -11.407,3.568 -3.481,0 -8.364,-1.392 -11.406,-3.568 l -0.004,-0.005 c 1.072,-3.271 1.523,-7.615 1.249,-10.873 6.944,1.034 8.423,-2.092 10.161,-2.092"
       style="fill:#706d6e;fill-opacity:1;fill-rule:nonzero;stroke:none;stroke-width:0.1"
       id="path92309" />
    <path
       d="m 540,637.796 c 1.739,0 3.218,3.126 10.161,2.092 -0.274,3.258 0.178,7.602 1.25,10.873 l -0.004,0.005 c -3.042,2.176 -7.925,3.568 -11.407,3.568 -3.481,0 -8.364,-1.392 -11.406,-3.568 l -0.004,-0.005 c 1.072,-3.271 1.523,-7.615 1.249,-10.873 6.944,1.034 8.423,-2.092 10.161,-2.092 z"
       style="fill:none;stroke:#231f20;stroke-width:0.75;stroke-linecap:round;stroke-linejoin:round;stroke-miterlimit:4;stroke-dasharray:none;stroke-opacity:1"
       id="path92311" />
    <path
       d="m 441.786,365.445 c -3.81,9.811 -13.545,25.157 -18.419,30.728 -4.874,5.571 -24.024,21.586 -26.46,23.327 -2.438,1.741 -8.008,4.874 -6.964,-3.482 1.045,-8.355 4.526,-30.29 8.356,-37.602"
       style="fill:none;stroke:#231f20;stroke-width:0.5;stroke-linecap:butt;stroke-linejoin:miter;stroke-miterlimit:4;stroke-dasharray:none;stroke-opacity:1"
       id="path92313" />
    <path
       d="m 674.39,430.641 c -4.186,-1.455 -16.016,-9.749 -12.882,-16.363 3.133,-6.615 15.247,6.69 17.756,9.052 2.96,2.785 5.136,10.793 -4.874,7.311 z"
       style="fill:none;stroke:#231f20;stroke-width:0.5;stroke-linecap:butt;stroke-linejoin:miter;stroke-miterlimit:4;stroke-dasharray:none;stroke-opacity:1"
       id="path92315" />
    <path
       d="m 405.611,430.641 c 4.185,-1.455 16.015,-9.749 12.882,-16.363 -3.134,-6.615 -15.247,6.69 -17.757,9.052 -2.959,2.785 -5.135,10.793 4.875,7.311 z"
       style="fill:none;stroke:#231f20;stroke-width:0.5;stroke-linecap:butt;stroke-linejoin:miter;stroke-miterlimit:4;stroke-dasharray:none;stroke-opacity:1"
       id="path92317" />
    <path
       d="m 542.437,732.844 c 2.437,4.527 9.053,4.874 11.489,1.393"
       style="fill:none;stroke:#231f20;stroke-width:0.5;stroke-linecap:round;stroke-linejoin:round;stroke-miterlimit:4;stroke-dasharray:2.8, 1.8;stroke-dashoffset:0;stroke-opacity:1"
       id="path92319" />
    <path
       d="m 830.366,488.087 c 5.919,-0.696 25.763,-12.881 29.941,-23.327 4.179,-10.444 1.741,-40.038 -11.141,-43.172 -12.881,-3.132 -19.344,4.831 -20.987,24.002"
       style="fill:none;stroke:#231f20;stroke-width:0.5;stroke-linecap:round;stroke-linejoin:round;stroke-miterlimit:4;stroke-dasharray:2.8, 1.8;stroke-dashoffset:0;stroke-opacity:1"
       id="path92321" />
    <path
       d="m 834.918,424.725 c -1.418,-10.447 -9.339,-30.293 -29.67,-30.293"
       style="fill:none;stroke:#231f20;stroke-width:0.5;stroke-linecap:round;stroke-linejoin:round;stroke-miterlimit:4;stroke-dasharray:2.8, 1.8;stroke-dashoffset:0;stroke-opacity:1"
       id="path92323" />
    <path
       d="m 797.291,468.939 c 2.785,1.393 8.007,-3.483 11.141,-10.097 3.133,-6.615 11.203,-23.281 13.087,-28.873"
       style="fill:none;stroke:#231f20;stroke-width:0.5;stroke-linecap:round;stroke-linejoin:round;stroke-miterlimit:4;stroke-dasharray:2.8, 1.8;stroke-dashoffset:0;stroke-opacity:1"
       id="path92325" />
    <path
       d="m 856.687,470.505 c 10.584,-6.092 34.797,-15.333 53.503,-20.286"
       style="fill:none;stroke:#231f20;stroke-width:0.5;stroke-linecap:round;stroke-linejoin:round;stroke-miterlimit:4;stroke-dasharray:2.8, 1.8;stroke-dashoffset:0;stroke-opacity:1"
       id="path92327" />
    <path
       d="m 833.439,522.835 c 10.853,-5.617 45.596,-19.559 80.431,-25.586"
       style="fill:none;stroke:#231f20;stroke-width:0.5;stroke-linecap:round;stroke-linejoin:round;stroke-miterlimit:4;stroke-dasharray:2.8, 1.8;stroke-dashoffset:0;stroke-opacity:1"
       id="path92329" />
    <path
       d="m 834.301,549.708 c 20.668,-7.887 67.601,-19.977 94.501,-25.538"
       style="fill:none;stroke:#231f20;stroke-width:0.5;stroke-linecap:round;stroke-linejoin:round;stroke-miterlimit:4;stroke-dasharray:2.8, 1.8;stroke-dashoffset:0;stroke-opacity:1"
       id="path92331" />
    <path
       d="m 833.237,571.075 c 15.233,-3.259 79.307,-13.854 104.137,-16.214"
       style="fill:none;stroke:#231f20;stroke-width:0.5;stroke-linecap:round;stroke-linejoin:round;stroke-miterlimit:4;stroke-dasharray:2.8, 1.8;stroke-dashoffset:0;stroke-opacity:1"
       id="path92333" />
    <path
       d="m 827.02,615.148 c 20.986,1.876 91.137,11.644 116.177,15.348"
       style="fill:none;stroke:#231f20;stroke-width:0.5;stroke-linecap:round;stroke-linejoin:round;stroke-miterlimit:4;stroke-dasharray:2.8, 1.8;stroke-dashoffset:0;stroke-opacity:1"
       id="path92335" />
    <path
       d="m 821.082,640.766 c 19.962,7.359 92.565,34.786 113.593,42.427"
       style="fill:none;stroke:#231f20;stroke-width:0.5;stroke-linecap:round;stroke-linejoin:round;stroke-miterlimit:4;stroke-dasharray:2.8, 1.8;stroke-dashoffset:0;stroke-opacity:1"
       id="path92337" />
    <path
       d="m 743.844,751.529 60.01,98.299"
       style="fill:none;stroke:#231f20;stroke-width:0.5;stroke-linecap:round;stroke-linejoin:round;stroke-miterlimit:4;stroke-dasharray:2.8, 1.8;stroke-dashoffset:0;stroke-opacity:1"
       id="path92339" />
    <path
       d="m 730.694,761.139 54.429,98.722"
       style="fill:none;stroke:#231f20;stroke-width:0.5;stroke-linecap:round;stroke-linejoin:round;stroke-miterlimit:4;stroke-dasharray:2.8, 1.8;stroke-dashoffset:0;stroke-opacity:1"
       id="path92341" />
    <path
       d="m 711.727,770.947 43.707,101.238"
       style="fill:none;stroke:#231f20;stroke-width:0.5;stroke-linecap:round;stroke-linejoin:round;stroke-miterlimit:4;stroke-dasharray:2.8, 1.8;stroke-dashoffset:0;stroke-opacity:1"
       id="path92343" />
    <path
       d="m 643.329,785.808 9.823,104.057"
       style="fill:none;stroke:#231f20;stroke-width:0.5;stroke-linecap:round;stroke-linejoin:round;stroke-miterlimit:4;stroke-dasharray:2.8, 1.8;stroke-dashoffset:0;stroke-opacity:1"
       id="path92345" />
    <path
       d="m 620.513,789.048 -6.484,100.227"
       style="fill:none;stroke:#231f20;stroke-width:0.5;stroke-linecap:round;stroke-linejoin:round;stroke-miterlimit:4;stroke-dasharray:2.8, 1.8;stroke-dashoffset:0;stroke-opacity:1"
       id="path92347" />
    <path
       d="m 604.759,791.131 -26.975,92.508"
       style="fill:none;stroke:#231f20;stroke-width:0.5;stroke-linecap:round;stroke-linejoin:round;stroke-miterlimit:4;stroke-dasharray:2.8, 1.8;stroke-dashoffset:0;stroke-opacity:1"
       id="path92349" />
    <path
       d="M 594.915,787.935 540,821.742"
       style="fill:none;stroke:#231f20;stroke-width:0.5;stroke-linecap:round;stroke-linejoin:round;stroke-miterlimit:4;stroke-dasharray:2.8, 1.8;stroke-dashoffset:0;stroke-opacity:1"
       id="path92351" />
    <path
       d="m 555.668,674.005 c -7.216,9.081 -6.963,20.89 -12.958,26.85 0,0 2.164,-5.611 2.164,-9.441 0,-3.83 -1.044,-10.097 3.831,-14.624 4.874,-4.525 9.4,-10.444 10.793,-12.881 1.392,-2.437 6.266,-2.785 9.051,-2.785 2.785,0 13.578,-0.697 15.667,-1.742 2.089,-1.044 4.179,-1.74 6.964,0.349 2.785,2.089 10.444,5.57 13.926,5.919 3.481,0.348 13.927,4.874 12.882,6.963 -1.044,2.089 -19.149,-3.134 -23.326,-4.527 -4.178,-1.392 -5.571,-4.874 -18.454,-2.436 -5.871,1.11 -14.497,0.749 -20.54,8.355"
       style="fill:#b2b1b1;fill-opacity:1;fill-rule:nonzero;stroke:none;stroke-width:0.1"
       id="path92353" />
    <path
       d="m 555.668,674.005 c -7.216,9.081 -6.963,20.89 -12.958,26.85 0,0 2.164,-5.611 2.164,-9.441 0,-3.83 -1.044,-10.097 3.831,-14.624 4.874,-4.525 9.4,-10.444 10.793,-12.881 1.392,-2.437 6.266,-2.785 9.051,-2.785 2.785,0 13.578,-0.697 15.667,-1.742 2.089,-1.044 4.179,-1.74 6.964,0.349 2.785,2.089 10.444,5.57 13.926,5.919 3.481,0.348 13.927,4.874 12.882,6.963 -1.044,2.089 -19.149,-3.134 -23.326,-4.527 -4.178,-1.392 -5.571,-4.874 -18.454,-2.436 -5.871,1.11 -14.497,0.749 -20.54,8.355 z"
       style="fill:none;stroke:#231f20;stroke-width:0.5;stroke-linecap:round;stroke-linejoin:round;stroke-miterlimit:4;stroke-dasharray:2.8, 1.8;stroke-dashoffset:0;stroke-opacity:1"
       id="path92355" />
    <path
       d="m 587.002,718.222 c 8.796,6.291 24.372,18.452 31.334,22.282 6.963,3.83 10.445,6.963 21.934,4.178 11.489,-2.785 28.201,-10.097 29.594,-17.059 1.392,-6.964 -2.785,-19.846 -16.364,-27.158 -13.578,-7.311 -45.609,-20.193 -63.365,-24.718 -17.756,-4.527 -30.29,-3.134 -34.119,3.481 -3.83,6.615 -6.897,20.565 2.785,24.022 9.748,3.483 16.755,6.786 28.201,14.972 z m -25.416,-17.757 c -3.481,-1.74 -4.874,-9.051 -4.526,-12.185 0.349,-3.133 1.045,-6.615 8.356,-9.401 7.311,-2.785 16.015,0.697 27.504,4.875 11.49,4.178 50.832,18.8 58.492,23.327 7.659,4.526 10.096,16.363 8.355,21.238 -1.74,4.874 -11.489,8.703 -24.371,9.399 -12.882,0.698 -19.845,-4.525 -28.549,-10.792 -8.704,-6.267 -24.197,-16.351 -32.379,-20.542 -4.426,-2.266 -9.4,-4.177 -12.882,-5.919"
       style="fill:#b2b1b1;fill-opacity:1;fill-rule:nonzero;stroke:none;stroke-width:0.1"
       id="path92357" />
    <path
       d="m 587.002,718.222 c 8.796,6.291 24.372,18.452 31.334,22.282 6.963,3.83 10.445,6.963 21.934,4.178 11.489,-2.785 28.201,-10.097 29.594,-17.059 1.392,-6.964 -2.785,-19.846 -16.364,-27.158 -13.578,-7.311 -45.609,-20.193 -63.365,-24.718 -17.756,-4.527 -30.29,-3.134 -34.119,3.481 -3.83,6.615 -6.897,20.565 2.785,24.022 9.748,3.483 16.755,6.786 28.201,14.972 z m -25.416,-17.757 c -3.481,-1.74 -4.874,-9.051 -4.526,-12.185 0.349,-3.133 1.045,-6.615 8.356,-9.401 7.311,-2.785 16.015,0.697 27.504,4.875 11.49,4.178 50.832,18.8 58.492,23.327 7.659,4.526 10.096,16.363 8.355,21.238 -1.74,4.874 -11.489,8.703 -24.371,9.399 -12.882,0.698 -19.845,-4.525 -28.549,-10.792 -8.704,-6.267 -24.197,-16.351 -32.379,-20.542 -4.426,-2.266 -9.4,-4.177 -12.882,-5.919 z"
       style="fill:none;stroke:#231f20;stroke-width:0.5;stroke-linecap:round;stroke-linejoin:round;stroke-miterlimit:4;stroke-dasharray:2.8, 1.8;stroke-dashoffset:0;stroke-opacity:1"
       id="path92359" />
    <path
       d="m 572.937,705.624 c 10.793,3.482 21.028,7.027 34.258,15.383 5.555,3.508 19.149,8.008 25.416,8.356 6.266,0.348 11.489,0.696 13.578,-4.178 2.089,-4.874 2.437,-12.185 -6.615,-17.408 -6.235,-3.597 -14.739,-8.03 -23.675,-11.489 -8.077,-3.126 -16.707,-5.013 -23.675,-7.312 -15.811,-5.215 -24.719,-9.4 -26.808,-10.097"
       style="fill:none;stroke:#231f20;stroke-width:0.5;stroke-linecap:round;stroke-linejoin:round;stroke-miterlimit:4;stroke-dasharray:2.8, 1.8;stroke-dashoffset:0;stroke-opacity:1"
       id="path92361" />
    <path
       d="m 609.632,590.769 c -3.133,-6.268 -5.919,-37.227 -5.222,-52.895"
       style="fill:none;stroke:#231f20;stroke-width:0.5;stroke-linecap:round;stroke-linejoin:round;stroke-miterlimit:4;stroke-dasharray:2.8, 1.8;stroke-dashoffset:0;stroke-opacity:1"
       id="path92363" />
    <path
       d="m 606.847,526.733 c 2.383,-3.375 13.671,-12.98 28.963,-17.703"
       style="fill:none;stroke:#231f20;stroke-width:0.5;stroke-linecap:round;stroke-linejoin:round;stroke-miterlimit:4;stroke-dasharray:2.8, 1.8;stroke-dashoffset:0;stroke-opacity:1"
       id="path92365" />
    <path
       d="m 473.154,526.733 c -2.383,-3.375 -13.671,-12.98 -28.963,-17.703"
       style="fill:none;stroke:#231f20;stroke-width:0.5;stroke-linecap:round;stroke-linejoin:round;stroke-miterlimit:4;stroke-dasharray:2.8, 1.8;stroke-dashoffset:0;stroke-opacity:1"
       id="path92367" />
    <path
       d="m 584.376,536.202 c -2.249,2.716 -7.471,3.065 -11.649,2.02 -4.178,-1.044 -8.704,-3.829 -10.444,-8.008 -1.741,-4.177 -3.134,-9.748 -0.697,-17.059 2.437,-7.312 4.02,-10.366 11.141,-12.534 8.008,-2.437 24.023,-2.437 20.629,9.501"
       style="fill:none;stroke:#231f20;stroke-width:0.5;stroke-linecap:round;stroke-linejoin:round;stroke-miterlimit:4;stroke-dasharray:2.8, 1.8;stroke-dashoffset:0;stroke-opacity:1"
       id="path92369" />
    <path
       d="m 564.486,506.265 c 1.626,-5.992 2.323,-14.998 1.974,-22.657"
       style="fill:none;stroke:#231f20;stroke-width:0.5;stroke-linecap:round;stroke-linejoin:round;stroke-miterlimit:4;stroke-dasharray:2.8, 1.8;stroke-dashoffset:0;stroke-opacity:1"
       id="path92371" />
    <path
       d="m 580.045,499.389 c 4.868,-1.205 9.2,-4.776 11.289,-11.391"
       style="fill:none;stroke:#231f20;stroke-width:0.5;stroke-linecap:round;stroke-linejoin:round;stroke-miterlimit:4;stroke-dasharray:2.8, 1.8;stroke-dashoffset:0;stroke-opacity:1"
       id="path92373" />
    <path
       d="m 656.286,476.25 c 3.133,4.874 14.623,14.623 19.845,17.408 5.222,2.785 18.453,9.749 20.889,5.57 2.438,-4.178 -5.918,-9.399 -11.489,-12.882 -5.571,-3.481 -9.748,-10.096 -8.356,-14.274 1.393,-4.178 6.262,-12.558 -1.047,-16.374"
       style="fill:none;stroke:#231f20;stroke-width:0.5;stroke-linecap:round;stroke-linejoin:round;stroke-miterlimit:4;stroke-dasharray:2.8, 1.8;stroke-dashoffset:0;stroke-opacity:1"
       id="path92375" />
    <path
       d="m 592.573,471.724 c -4.178,0.348 -14.581,3.824 -13.927,8.356 0.544,3.775 9.155,6.536 16.407,8.919 2.418,0.793 4.73,1.79 6.481,2.445 7.003,2.619 21.329,2.214 31.426,3.606 10.096,1.393 26.459,7.312 36.019,11.683 0,0 -32.568,-29.017 -43.013,-34.936"
       style="fill:none;stroke:#231f20;stroke-width:0.5;stroke-linecap:round;stroke-linejoin:round;stroke-miterlimit:4;stroke-dasharray:2.8, 1.8;stroke-dashoffset:0;stroke-opacity:1"
       id="path92377" />
    <path
       d="m 649.67,471.724 c 0,-3.269 -1.87,-5.919 -4.177,-5.919 -2.308,0 -4.178,2.65 -4.178,5.919 0,3.27 1.87,5.918 4.178,5.918 2.307,0 4.177,-2.648 4.177,-5.918 z"
       style="fill:none;stroke:#231f20;stroke-width:0.5;stroke-linecap:round;stroke-linejoin:round;stroke-miterlimit:4;stroke-dasharray:2.8, 1.8;stroke-dashoffset:0;stroke-opacity:1"
       id="path92379" />
    <path
       d="m 544.081,471.493 c 7.06,0.231 31.084,-0.465 39.788,-0.117 8.704,0.348 27.852,1.044 30.986,1.044 3.133,0 11.489,1.044 11.489,-1.392 0,-2.438 -4.874,-8.357 -14.274,-7.66 -9.401,0.696 -20.542,2.088 -29.246,1.045 -6.577,-0.789 -21.934,-5.571 -36.208,-12.882"
       style="fill:none;stroke:#231f20;stroke-width:0.5;stroke-linecap:round;stroke-linejoin:round;stroke-miterlimit:4;stroke-dasharray:2.8, 1.8;stroke-dashoffset:0;stroke-opacity:1"
       id="path92381" />
    <path
       d="M 563.991,483.436 C 560.89,481.124 556,479.859 559.489,471.441"
       style="fill:none;stroke:#231f20;stroke-width:0.5;stroke-linecap:round;stroke-linejoin:round;stroke-miterlimit:4;stroke-dasharray:2.8, 1.8;stroke-dashoffset:0;stroke-opacity:1"
       id="path92383" />
    <path
       d="m 564.372,420.196 c -5.223,2.785 -9.749,4.178 -11.142,11.838 -1.393,7.659 0.696,15.667 8.008,19.148 7.311,3.482 17.253,8.046 24.72,4.526 7.572,-3.568 14.97,-12.534 16.015,-18.8 0.923,-5.538 3.133,-19.497 -3.482,-23.326 -6.615,-3.831 -16.711,-1.742 -20.541,0 -3.83,1.74 -13.578,6.614 -13.578,6.614 z"
       style="fill:none;stroke:#231f20;stroke-width:0.5;stroke-linecap:round;stroke-linejoin:round;stroke-miterlimit:4;stroke-dasharray:2.8, 1.8;stroke-dashoffset:0;stroke-opacity:1"
       id="path92385" />
    <path
       d="m 564.372,420.196 c 2.785,4.875 20.982,16.146 38.17,12.251"
       style="fill:none;stroke:#231f20;stroke-width:0.5;stroke-linecap:round;stroke-linejoin:round;stroke-miterlimit:4;stroke-dasharray:2.8, 1.8;stroke-dashoffset:0;stroke-opacity:1"
       id="path92387" />
    <path
       d="m 645.493,644.412 c 4.231,-0.202 10.793,-6.616 6.615,-15.667 -4.178,-9.053 -11.489,-16.712 -17.06,-21.935 -5.571,-5.223 -16.364,-12.882 -19.845,-14.623 -3.482,-1.74 -6.267,-2.089 -9.401,0 -3.133,2.089 -5.221,3.83 -2.785,15.319 2.438,11.49 12.186,26.113 20.193,30.29 8.008,4.179 14.971,6.964 22.283,6.616 z"
       style="fill:none;stroke:#231f20;stroke-width:0.5;stroke-linecap:round;stroke-linejoin:round;stroke-miterlimit:4;stroke-dasharray:2.8, 1.8;stroke-dashoffset:0;stroke-opacity:1"
       id="path92389" />
    <path
       d="m 635.937,643.203 c 2.244,-7.147 0.504,-16.547 -6.46,-24.904 -6.963,-8.356 -18.452,-21.238 -23.675,-26.112"
       style="fill:none;stroke:#231f20;stroke-width:0.5;stroke-linecap:round;stroke-linejoin:round;stroke-miterlimit:4;stroke-dasharray:2.8, 1.8;stroke-dashoffset:0;stroke-opacity:1"
       id="path92391" />
    <path
       d="m 653.517,672.824 c 1.376,-5.085 2.769,-19.36 -8.024,-28.412"
       style="fill:none;stroke:#231f20;stroke-width:0.5;stroke-linecap:round;stroke-linejoin:round;stroke-miterlimit:4;stroke-dasharray:2.8, 1.8;stroke-dashoffset:0;stroke-opacity:1"
       id="path92393" />
    <path
       d="m 627.495,666.77 c 1.982,-8.78 0.568,-20.579 -2.206,-27.91"
       style="fill:none;stroke:#231f20;stroke-width:0.5;stroke-linecap:round;stroke-linejoin:round;stroke-miterlimit:4;stroke-dasharray:2.8, 1.8;stroke-dashoffset:0;stroke-opacity:1"
       id="path92395" />
    <path
       d="m 653.242,632.27 c 1.651,4.134 9.958,3.406 13.116,2.029"
       style="fill:none;stroke:#231f20;stroke-width:0.5;stroke-linecap:round;stroke-linejoin:round;stroke-miterlimit:4;stroke-dasharray:2.8, 1.8;stroke-dashoffset:0;stroke-opacity:1"
       id="path92397" />
    <path
       d="m 593.949,638.558 c 1.548,-6.865 5.561,-14.209 16.806,-13.575"
       style="fill:none;stroke:#231f20;stroke-width:0.5;stroke-linecap:round;stroke-linejoin:round;stroke-miterlimit:4;stroke-dasharray:2.8, 1.8;stroke-dashoffset:0;stroke-opacity:1"
       id="path92399" />
    <path
       d="m 552.398,653.124 c -2.301,-4.186 -2.997,-12.89 -1.604,-16.372"
       style="fill:none;stroke:#231f20;stroke-width:0.5;stroke-linecap:round;stroke-linejoin:round;stroke-miterlimit:4;stroke-dasharray:2.8, 1.8;stroke-dashoffset:0;stroke-opacity:1"
       id="path92401" />
    <path
       d="m 550.794,636.752 c 1.534,0.118 3.706,-0.044 6.166,-0.336"
       style="fill:none;stroke:#231f20;stroke-width:0.5;stroke-linecap:round;stroke-linejoin:round;stroke-miterlimit:4;stroke-dasharray:2.8, 1.8;stroke-dashoffset:0;stroke-opacity:1"
       id="path92403" />
    <path
       d="m 486.052,638.558 c -1.548,-6.865 -5.561,-14.209 -16.807,-13.575"
       style="fill:none;stroke:#231f20;stroke-width:0.5;stroke-linecap:round;stroke-linejoin:round;stroke-miterlimit:4;stroke-dasharray:2.8, 1.8;stroke-dashoffset:0;stroke-opacity:1"
       id="path92405" />
    <path
       d="m 529.208,636.752 c -1.534,0.118 -3.706,-0.044 -6.166,-0.336"
       style="fill:none;stroke:#231f20;stroke-width:0.5;stroke-linecap:round;stroke-linejoin:round;stroke-miterlimit:4;stroke-dasharray:2.8, 1.8;stroke-dashoffset:0;stroke-opacity:1"
       id="path92407" />
    <path
       d="m 549.2,597.298 c 4.379,-0.933 10.645,-6.851 20.394,-6.155 9.748,0.696 21.934,3.829 24.371,15.667 2.437,11.837 6.503,16.349 6.211,20.883"
       style="fill:none;stroke:#231f20;stroke-width:0.5;stroke-linecap:round;stroke-linejoin:round;stroke-miterlimit:4;stroke-dasharray:2.8, 1.8;stroke-dashoffset:0;stroke-opacity:1"
       id="path92409" />
    <path
       d="m 555.31,594.605 c -1.808,0.916 -3.82,8.375 1.402,10.116 5.222,1.74 35.164,10.097 37.253,2.089"
       style="fill:none;stroke:#231f20;stroke-width:0.5;stroke-linecap:round;stroke-linejoin:round;stroke-miterlimit:4;stroke-dasharray:2.8, 1.8;stroke-dashoffset:0;stroke-opacity:1"
       id="path92411" />
    <path
       d="m 600.003,625.519 c -6.038,-0.952 -22.244,-4.593 -21.627,-15.829"
       style="fill:none;stroke:#231f20;stroke-width:0.5;stroke-linecap:round;stroke-linejoin:round;stroke-miterlimit:4;stroke-dasharray:2.8, 1.8;stroke-dashoffset:0;stroke-opacity:1"
       id="path92413" />
    <path
       d="m 696.672,360.313 c 3.482,0.696 6.963,5.57 3.134,12.882 -3.83,7.311 -13.23,12.533 -18.104,5.221"
       style="fill:none;stroke:#231f20;stroke-width:0.5;stroke-linecap:round;stroke-linejoin:round;stroke-miterlimit:4;stroke-dasharray:2.8, 1.8;stroke-dashoffset:0;stroke-opacity:1"
       id="path92415" />
    <path
       d="m 602.536,362.361 c 6.401,1.563 12.229,3.261 15.104,4.219 4.178,1.392 7.583,0.987 4.913,-8.944"
       style="fill:none;stroke:#231f20;stroke-width:0.5;stroke-linecap:round;stroke-linejoin:round;stroke-miterlimit:4;stroke-dasharray:2.8, 1.8;stroke-dashoffset:0;stroke-opacity:1"
       id="path92417" />
    <path
       d="m 477.464,362.361 c -6.401,1.563 -12.228,3.261 -15.103,4.219 -4.178,1.392 -7.584,0.987 -4.914,-8.944"
       style="fill:none;stroke:#231f20;stroke-width:0.5;stroke-linecap:round;stroke-linejoin:round;stroke-miterlimit:4;stroke-dasharray:2.8, 1.8;stroke-dashoffset:0;stroke-opacity:1"
       id="path92419" />
    <path
       d="m 579.342,403.136 c 8.175,-7.173 21.797,-20.457 20.542,-29.245 -1.218,-8.53 -4.44,-13.176 -18.104,-10.445 -10.446,2.089 -18.105,11.838 -23.327,17.408 -5.223,5.57 -13.926,12.534 -13.926,18.452 0,5.919 0,15.668 5.918,17.061 5.919,1.392 11.838,1.74 28.897,-13.231 z"
       style="fill:none;stroke:#231f20;stroke-width:0.5;stroke-linecap:round;stroke-linejoin:round;stroke-miterlimit:4;stroke-dasharray:2.8, 1.8;stroke-dashoffset:0;stroke-opacity:1"
       id="path92421" />
    <path
       d="m 579.342,403.136 c -3.83,-4.874 -15.804,-21.708 -14.69,-28.957"
       style="fill:none;stroke:#231f20;stroke-width:0.5;stroke-linecap:round;stroke-linejoin:round;stroke-miterlimit:4;stroke-dasharray:2.8, 1.8;stroke-dashoffset:0;stroke-opacity:1"
       id="path92423" />
    <path
       d="m 554.287,385.045 c 5.907,1.032 19.33,7.703 20.278,22.125"
       style="fill:none;stroke:#231f20;stroke-width:0.5;stroke-linecap:round;stroke-linejoin:round;stroke-miterlimit:4;stroke-dasharray:2.8, 1.8;stroke-dashoffset:0;stroke-opacity:1"
       id="path92425" />
    <path
       d="m 569.33,361.162 c 4.79,-3.635 8.655,-11.237 7.245,-18.796"
       style="fill:none;stroke:#231f20;stroke-width:0.5;stroke-linecap:round;stroke-linejoin:round;stroke-miterlimit:4;stroke-dasharray:2.8, 1.8;stroke-dashoffset:0;stroke-opacity:1"
       id="path92427" />
    <path
       d="m 562.21,367.175 c -1.32,-6.166 -4.105,-14.522 -16.987,-14.522"
       style="fill:none;stroke:#231f20;stroke-width:0.5;stroke-linecap:round;stroke-linejoin:round;stroke-miterlimit:4;stroke-dasharray:2.8, 1.8;stroke-dashoffset:0;stroke-opacity:1"
       id="path92429" />
    <path
       d="m 767.433,617.012 c 5.371,-9.273 25.795,-51.054 19.761,-80.298 -6.034,-29.244 -46.976,-56.705 -77.568,-67.593"
       style="fill:none;stroke:#231f20;stroke-width:0.5;stroke-linecap:round;stroke-linejoin:round;stroke-miterlimit:4;stroke-dasharray:2.8, 1.8;stroke-dashoffset:0;stroke-opacity:1"
       id="path92431" />
    <path
       d="m 753.485,492.839 c 7.713,0.24 26.744,-4.869 29.995,-13.687 3.25,-8.82 3.087,-24.605 0.847,-33.192"
       style="fill:none;stroke:#231f20;stroke-width:0.5;stroke-linecap:round;stroke-linejoin:round;stroke-miterlimit:4;stroke-dasharray:2.8, 1.8;stroke-dashoffset:0;stroke-opacity:1"
       id="path92433" />
    <path
       d="m 733.578,480.039 c -5.338,-7.85 -9.982,-22.704 -4.875,-38.954 5.107,-16.246 10.165,-21.501 18.104,-21.816 11.606,-0.466 21.238,7.194 21.238,7.194"
       style="fill:none;stroke:#231f20;stroke-width:0.5;stroke-linecap:round;stroke-linejoin:round;stroke-miterlimit:4;stroke-dasharray:2.8, 1.8;stroke-dashoffset:0;stroke-opacity:1"
       id="path92435" />
    <path
       d="m 752.377,476.135 c 4.541,2.095 10.677,-0.233 12.535,-6.731 1.857,-6.501 2.785,-19.962 0,-21.355 -2.786,-1.392 -9.747,3.715 -12.997,13.464 -3.251,9.748 -2.555,13.23 0.462,14.622 z"
       style="fill:none;stroke:#231f20;stroke-width:0.5;stroke-linecap:round;stroke-linejoin:round;stroke-miterlimit:4;stroke-dasharray:2.8, 1.8;stroke-dashoffset:0;stroke-opacity:1"
       id="path92437" />
    <path
       d="m 756.608,492.706 c 0,0 0.406,-11.286 -0.055,-15.901"
       style="fill:none;stroke:#231f20;stroke-width:0.5;stroke-linecap:round;stroke-linejoin:round;stroke-miterlimit:4;stroke-dasharray:2.8, 1.8;stroke-dashoffset:0;stroke-opacity:1"
       id="path92439" />
    <path
       d="m 762.71,448.008 c 1.738,-4.137 4.121,-16.317 1.304,-24.153"
       style="fill:none;stroke:#231f20;stroke-width:0.5;stroke-linecap:round;stroke-linejoin:round;stroke-miterlimit:4;stroke-dasharray:2.8, 1.8;stroke-dashoffset:0;stroke-opacity:1"
       id="path92441" />
    <path
       d="m 726.645,459.171 c -3.745,2.108 -12.334,-0.674 -17.672,-8.103 -5.338,-7.428 -16.015,-24.371 -12.523,-73.336"
       style="fill:none;stroke:#231f20;stroke-width:0.5;stroke-linecap:round;stroke-linejoin:round;stroke-miterlimit:4;stroke-dasharray:2.8, 1.8;stroke-dashoffset:0;stroke-opacity:1"
       id="path92443" />
    <path
       d="m 768.545,426.811 c 3.563,-0.811 4.709,-3.841 4.955,-6.615 0.262,-2.962 1.624,-8.587 -0.929,-10.211 -2.553,-1.626 -11.373,-3.482 -16.247,-3.715 -4.875,-0.231 -14.504,0.198 -14.623,3.25 -0.117,2.93 1.393,4.874 5.339,6.498 3.945,1.627 5.244,2.517 6.916,3.928"
       style="fill:none;stroke:#231f20;stroke-width:0.5;stroke-linecap:round;stroke-linejoin:round;stroke-miterlimit:4;stroke-dasharray:2.8, 1.8;stroke-dashoffset:0;stroke-opacity:1"
       id="path92445" />
    <path
       d="m 774.008,413.923 c 0.043,-2.953 12.282,-15.941 33.379,-11.134"
       style="fill:none;stroke:#231f20;stroke-width:0.5;stroke-linecap:round;stroke-linejoin:round;stroke-miterlimit:4;stroke-dasharray:2.8, 1.8;stroke-dashoffset:0;stroke-opacity:1"
       id="path92447" />
    <path
       d="m 778.191,408.288 c -0.745,-4.512 -0.979,-14.318 3.896,-18.265 3.957,-3.204 11.607,-4.178 16.481,-1.393 4.284,2.449 7.936,5.005 9.539,14.109"
       style="fill:none;stroke:#231f20;stroke-width:0.5;stroke-linecap:round;stroke-linejoin:round;stroke-miterlimit:4;stroke-dasharray:2.8, 1.8;stroke-dashoffset:0;stroke-opacity:1"
       id="path92449" />
    <path
       d="m 741.97,408.54 c -4.678,0.515 -10.947,-2.733 -14.196,-6.448 -3.249,-3.713 -8.356,-14.391 -4.178,-19.728 4.178,-5.34 16.017,-10.446 26.23,-11.607 10.212,-1.158 19.033,-1.161 25.067,1.858 6.034,3.016 7.376,5.519 6.589,17.963"
       style="fill:none;stroke:#231f20;stroke-width:0.5;stroke-linecap:round;stroke-linejoin:round;stroke-miterlimit:4;stroke-dasharray:2.8, 1.8;stroke-dashoffset:0;stroke-opacity:1"
       id="path92451" />
    <path
       d="m 695.845,401.858 c 0.083,2.325 6.165,3.253 6.862,-1.159 0.696,-4.409 6.036,-9.98 8.821,-11.837 2.785,-1.856 7.569,-1.649 10.516,-0.707"
       style="fill:none;stroke:#231f20;stroke-width:0.5;stroke-linecap:round;stroke-linejoin:round;stroke-miterlimit:4;stroke-dasharray:2.8, 1.8;stroke-dashoffset:0;stroke-opacity:1"
       id="path92453" />
    <path
       d="m 700.854,370.754 c 4.87,1.63 18.612,7.045 21.489,14.202"
       style="fill:none;stroke:#231f20;stroke-width:0.5;stroke-linecap:round;stroke-linejoin:round;stroke-miterlimit:4;stroke-dasharray:2.8, 1.8;stroke-dashoffset:0;stroke-opacity:1"
       id="path92455" />
    <path
       d="m 702.37,371.285 c 2.89,-5.168 10.316,-14.223 19.834,-16.774 9.517,-2.555 37.369,-4.179 43.172,-4.409"
       style="fill:none;stroke:#231f20;stroke-width:0.5;stroke-linecap:round;stroke-linejoin:round;stroke-miterlimit:4;stroke-dasharray:2.8, 1.8;stroke-dashoffset:0;stroke-opacity:1"
       id="path92457" />
    <path
       d="m 890.101,456.416 c -2.355,0.824 -4.263,-3.028 -6.351,-6.509 -2.089,-3.482 -6.266,-15.32 -9.284,-22.979 -3.017,-7.659 -13.463,-31.565 -18.337,-38.529 -4.874,-6.963 -13.329,-18.501 -20.657,-21.123 -7.544,-2.698 -12.071,-3.482 -16.48,-2.785 -4.41,0.696 -9.052,-2.089 -11.605,-5.571 -2.553,-3.482 -12.766,-8.122 -18.337,-8.356 -5.57,-0.232 -12.3,0.231 -15.783,0.465 -3.481,0.231 -6.964,1.858 -7.891,-0.927 -0.928,-2.785 3.483,-3.716 8.124,-5.108 4.642,-1.393 20.888,-4.641 42.707,0.929 21.818,5.572 29.943,7.658 47.815,32.959 17.871,25.299 22.978,44.565 24.835,51.528 1.856,6.963 6.796,24.113 4.019,25.059"
       style="fill:none;stroke:#231f20;stroke-width:0.5;stroke-linecap:round;stroke-linejoin:round;stroke-miterlimit:4;stroke-dasharray:2.8, 1.8;stroke-dashoffset:0;stroke-opacity:1"
       id="path92459" />
    <path
       d="m 767.215,370.425 c -0.911,-7.327 -1.95,-21.022 -1.95,-21.022"
       style="fill:none;stroke:#231f20;stroke-width:0.5;stroke-linecap:round;stroke-linejoin:round;stroke-miterlimit:4;stroke-dasharray:2.8, 1.8;stroke-dashoffset:0;stroke-opacity:1"
       id="path92461" />
    <path
       d="m 571.635,455.515 c -1.693,-7.001 2.979,-10.907 9.216,-10.252 4.41,0.466 3.06,8.09 -0.675,11.705"
       style="fill:none;stroke:#231f20;stroke-width:0.5;stroke-linecap:round;stroke-linejoin:round;stroke-miterlimit:4;stroke-dasharray:2.8, 1.8;stroke-dashoffset:0;stroke-opacity:1"
       id="path92463" />
    <path
       d="m 537.563,732.844 c -2.437,4.527 -9.052,4.874 -11.489,1.393"
       style="fill:none;stroke:#231f20;stroke-width:0.5;stroke-linecap:round;stroke-linejoin:round;stroke-miterlimit:4;stroke-dasharray:2.8, 1.8;stroke-dashoffset:0;stroke-opacity:1"
       id="path92465" />
    <path
       d="m 249.635,488.087 c -5.919,-0.696 -25.764,-12.881 -29.942,-23.327 -4.178,-10.444 -1.74,-40.038 11.141,-43.172 12.882,-3.132 19.345,4.831 20.988,24.002"
       style="fill:none;stroke:#231f20;stroke-width:0.5;stroke-linecap:round;stroke-linejoin:round;stroke-miterlimit:4;stroke-dasharray:2.8, 1.8;stroke-dashoffset:0;stroke-opacity:1"
       id="path92467" />
    <path
       d="m 245.083,424.725 c 1.418,-10.447 9.339,-30.293 29.669,-30.293"
       style="fill:none;stroke:#231f20;stroke-width:0.5;stroke-linecap:round;stroke-linejoin:round;stroke-miterlimit:4;stroke-dasharray:2.8, 1.8;stroke-dashoffset:0;stroke-opacity:1"
       id="path92469" />
    <path
       d="m 282.71,468.939 c -2.786,1.393 -8.007,-3.483 -11.141,-10.097 -3.134,-6.615 -11.203,-23.281 -13.087,-28.873"
       style="fill:none;stroke:#231f20;stroke-width:0.5;stroke-linecap:round;stroke-linejoin:round;stroke-miterlimit:4;stroke-dasharray:2.8, 1.8;stroke-dashoffset:0;stroke-opacity:1"
       id="path92471" />
    <path
       d="M 223.313,470.505 C 212.73,464.413 188.516,455.172 169.811,450.219"
       style="fill:none;stroke:#231f20;stroke-width:0.5;stroke-linecap:round;stroke-linejoin:round;stroke-miterlimit:4;stroke-dasharray:2.8, 1.8;stroke-dashoffset:0;stroke-opacity:1"
       id="path92473" />
    <path
       d="M 246.561,522.835 C 235.708,517.218 200.966,503.276 166.13,497.249"
       style="fill:none;stroke:#231f20;stroke-width:0.5;stroke-linecap:round;stroke-linejoin:round;stroke-miterlimit:4;stroke-dasharray:2.8, 1.8;stroke-dashoffset:0;stroke-opacity:1"
       id="path92475" />
    <path
       d="m 245.699,549.708 c -20.668,-7.887 -67.6,-19.977 -94.501,-25.538"
       style="fill:none;stroke:#231f20;stroke-width:0.5;stroke-linecap:round;stroke-linejoin:round;stroke-miterlimit:4;stroke-dasharray:2.8, 1.8;stroke-dashoffset:0;stroke-opacity:1"
       id="path92477" />
    <path
       d="M 246.764,571.075 C 231.531,567.816 167.457,557.221 142.627,554.861"
       style="fill:none;stroke:#231f20;stroke-width:0.5;stroke-linecap:round;stroke-linejoin:round;stroke-miterlimit:4;stroke-dasharray:2.8, 1.8;stroke-dashoffset:0;stroke-opacity:1"
       id="path92479" />
    <path
       d="m 252.98,615.148 c -20.985,1.876 -91.136,11.644 -116.176,15.348"
       style="fill:none;stroke:#231f20;stroke-width:0.5;stroke-linecap:round;stroke-linejoin:round;stroke-miterlimit:4;stroke-dasharray:2.8, 1.8;stroke-dashoffset:0;stroke-opacity:1"
       id="path92481" />
    <path
       d="m 258.918,640.766 c -19.96,7.359 -92.564,34.786 -113.592,42.427"
       style="fill:none;stroke:#231f20;stroke-width:0.5;stroke-linecap:round;stroke-linejoin:round;stroke-miterlimit:4;stroke-dasharray:2.8, 1.8;stroke-dashoffset:0;stroke-opacity:1"
       id="path92483" />
    <path
       d="m 336.157,751.529 -60.01,98.299"
       style="fill:none;stroke:#231f20;stroke-width:0.5;stroke-linecap:round;stroke-linejoin:round;stroke-miterlimit:4;stroke-dasharray:2.8, 1.8;stroke-dashoffset:0;stroke-opacity:1"
       id="path92485" />
    <path
       d="m 349.306,761.139 -54.428,98.722"
       style="fill:none;stroke:#231f20;stroke-width:0.5;stroke-linecap:round;stroke-linejoin:round;stroke-miterlimit:4;stroke-dasharray:2.8, 1.8;stroke-dashoffset:0;stroke-opacity:1"
       id="path92487" />
    <path
       d="M 368.273,770.947 324.567,872.185"
       style="fill:none;stroke:#231f20;stroke-width:0.5;stroke-linecap:round;stroke-linejoin:round;stroke-miterlimit:4;stroke-dasharray:2.8, 1.8;stroke-dashoffset:0;stroke-opacity:1"
       id="path92489" />
    <path
       d="m 436.671,785.808 -9.823,104.057"
       style="fill:none;stroke:#231f20;stroke-width:0.5;stroke-linecap:round;stroke-linejoin:round;stroke-miterlimit:4;stroke-dasharray:2.8, 1.8;stroke-dashoffset:0;stroke-opacity:1"
       id="path92491" />
    <path
       d="m 459.487,789.048 6.484,100.227"
       style="fill:none;stroke:#231f20;stroke-width:0.5;stroke-linecap:round;stroke-linejoin:round;stroke-miterlimit:4;stroke-dasharray:2.8, 1.8;stroke-dashoffset:0;stroke-opacity:1"
       id="path92493" />
    <path
       d="m 475.241,791.131 26.975,92.508"
       style="fill:none;stroke:#231f20;stroke-width:0.5;stroke-linecap:round;stroke-linejoin:round;stroke-miterlimit:4;stroke-dasharray:2.8, 1.8;stroke-dashoffset:0;stroke-opacity:1"
       id="path92495" />
    <path
       d="M 485.086,787.935 540,821.742"
       style="fill:none;stroke:#231f20;stroke-width:0.5;stroke-linecap:round;stroke-linejoin:round;stroke-miterlimit:4;stroke-dasharray:2.8, 1.8;stroke-dashoffset:0;stroke-opacity:1"
       id="path92497" />
    <path
       d="m 524.334,674.005 c 7.216,9.081 6.962,20.89 12.956,26.85 0,0 -2.164,-5.611 -2.164,-9.441 0,-3.83 1.044,-10.097 -3.83,-14.624 -4.874,-4.525 -9.4,-10.444 -10.793,-12.881 -1.392,-2.437 -6.266,-2.785 -9.051,-2.785 -2.786,0 -13.579,-0.697 -15.668,-1.742 -2.089,-1.044 -4.178,-1.74 -6.963,0.349 -2.785,2.089 -10.445,5.57 -13.927,5.919 -3.481,0.348 -13.926,4.874 -12.882,6.963 1.045,2.089 19.15,-3.134 23.327,-4.527 4.178,-1.392 5.571,-4.874 18.453,-2.436 5.871,1.11 14.497,0.749 20.542,8.355"
       style="fill:#b2b1b1;fill-opacity:1;fill-rule:nonzero;stroke:none;stroke-width:0.1"
       id="path92499" />
    <path
       d="m 524.334,674.005 c 7.216,9.081 6.962,20.89 12.956,26.85 0,0 -2.164,-5.611 -2.164,-9.441 0,-3.83 1.044,-10.097 -3.83,-14.624 -4.874,-4.525 -9.4,-10.444 -10.793,-12.881 -1.392,-2.437 -6.266,-2.785 -9.051,-2.785 -2.786,0 -13.579,-0.697 -15.668,-1.742 -2.089,-1.044 -4.178,-1.74 -6.963,0.349 -2.785,2.089 -10.445,5.57 -13.927,5.919 -3.481,0.348 -13.926,4.874 -12.882,6.963 1.045,2.089 19.15,-3.134 23.327,-4.527 4.178,-1.392 5.571,-4.874 18.453,-2.436 5.871,1.11 14.497,0.749 20.542,8.355 z"
       style="fill:none;stroke:#231f20;stroke-width:0.5;stroke-linecap:round;stroke-linejoin:round;stroke-miterlimit:4;stroke-dasharray:2.8, 1.8;stroke-dashoffset:0;stroke-opacity:1"
       id="path92501" />
    <path
       d="m 521.2,703.25 c 9.681,-3.457 6.615,-17.407 2.785,-24.022 -3.83,-6.615 -16.363,-8.008 -34.119,-3.481 -17.757,4.525 -49.787,17.407 -63.366,24.718 -13.578,7.312 -17.756,20.194 -16.364,27.158 1.393,6.962 18.105,14.274 29.594,17.059 11.489,2.785 14.971,-0.348 21.935,-4.178 6.962,-3.83 22.538,-15.991 31.334,-22.282 11.446,-8.186 18.453,-11.489 28.201,-14.972 z m -15.667,3.134 c -8.182,4.191 -23.675,14.275 -32.379,20.542 -8.704,6.267 -15.667,11.49 -28.55,10.792 -12.882,-0.696 -22.63,-4.525 -24.371,-9.399 -1.74,-4.875 0.696,-16.712 8.356,-21.238 7.66,-4.527 47.001,-19.149 58.491,-23.327 11.489,-4.178 20.193,-7.66 27.504,-4.875 7.312,2.786 8.008,6.268 8.357,9.401 0.348,3.134 -1.045,10.445 -4.526,12.185 -3.482,1.742 -8.455,3.653 -12.882,5.919"
       style="fill:#b2b1b1;fill-opacity:1;fill-rule:nonzero;stroke:none;stroke-width:0.1"
       id="path92503" />
    <path
       d="m 521.2,703.25 c 9.681,-3.457 6.615,-17.407 2.785,-24.022 -3.83,-6.615 -16.363,-8.008 -34.119,-3.481 -17.757,4.525 -49.787,17.407 -63.366,24.718 -13.578,7.312 -17.756,20.194 -16.364,27.158 1.393,6.962 18.105,14.274 29.594,17.059 11.489,2.785 14.971,-0.348 21.935,-4.178 6.962,-3.83 22.538,-15.991 31.334,-22.282 11.446,-8.186 18.453,-11.489 28.201,-14.972 z m -15.667,3.134 c -8.182,4.191 -23.675,14.275 -32.379,20.542 -8.704,6.267 -15.667,11.49 -28.55,10.792 -12.882,-0.696 -22.63,-4.525 -24.371,-9.399 -1.74,-4.875 0.696,-16.712 8.356,-21.238 7.66,-4.527 47.001,-19.149 58.491,-23.327 11.489,-4.178 20.193,-7.66 27.504,-4.875 7.312,2.786 8.008,6.268 8.357,9.401 0.348,3.134 -1.045,10.445 -4.526,12.185 -3.482,1.742 -8.455,3.653 -12.882,5.919 z"
       style="fill:none;stroke:#231f20;stroke-width:0.5;stroke-linecap:round;stroke-linejoin:round;stroke-miterlimit:4;stroke-dasharray:2.8, 1.8;stroke-dashoffset:0;stroke-opacity:1"
       id="path92505" />
    <path
       d="m 507.064,705.624 c -10.793,3.482 -21.028,7.027 -34.259,15.383 -5.554,3.508 -19.148,8.008 -25.415,8.356 -6.267,0.348 -11.489,0.696 -13.579,-4.178 -2.089,-4.874 -2.436,-12.185 6.615,-17.408 6.235,-3.597 14.739,-8.03 23.675,-11.489 8.077,-3.126 16.708,-5.013 23.675,-7.312 15.811,-5.215 24.72,-9.4 26.808,-10.097"
       style="fill:none;stroke:#231f20;stroke-width:0.5;stroke-linecap:round;stroke-linejoin:round;stroke-miterlimit:4;stroke-dasharray:2.8, 1.8;stroke-dashoffset:0;stroke-opacity:1"
       id="path92507" />
    <path
       d="m 477.805,596.829 c 15.667,-22.283 54.188,-27.272 62.195,-27.272 8.008,0 46.529,4.989 62.196,27.272"
       style="fill:none;stroke:#231f20;stroke-width:0.5;stroke-linecap:round;stroke-linejoin:round;stroke-miterlimit:4;stroke-dasharray:2.8, 1.8;stroke-dashoffset:0;stroke-opacity:1"
       id="path92509" />
    <path
       d="m 516.25,532.701 c -0.193,1.349 6.05,3.348 11.913,5.521 4.724,1.753 9.351,4.178 11.837,4.178 2.487,0 7.113,-2.425 11.837,-4.178 5.863,-2.173 12.106,-4.172 11.913,-5.521"
       style="fill:none;stroke:#231f20;stroke-width:0.5;stroke-linecap:round;stroke-linejoin:round;stroke-miterlimit:4;stroke-dasharray:2.8, 1.8;stroke-dashoffset:0;stroke-opacity:1"
       id="path92511" />
    <path
       d="m 519.613,518.725 c 2.437,6.268 10.291,9.749 12.727,9.749 2.438,0 5.572,-3.481 7.66,-3.481 2.089,0 5.223,3.481 7.66,3.481 2.437,0 10.29,-3.481 12.726,-9.749"
       style="fill:none;stroke:#231f20;stroke-width:0.5;stroke-linecap:round;stroke-linejoin:round;stroke-miterlimit:4;stroke-dasharray:2.8, 1.8;stroke-dashoffset:0;stroke-opacity:1"
       id="path92513" />
    <path
       d="m 470.369,590.769 c 3.132,-6.268 5.918,-37.227 5.221,-52.895"
       style="fill:none;stroke:#231f20;stroke-width:0.5;stroke-linecap:round;stroke-linejoin:round;stroke-miterlimit:4;stroke-dasharray:2.8, 1.8;stroke-dashoffset:0;stroke-opacity:1"
       id="path92515" />
    <path
       d="m 495.625,536.202 c 2.248,2.716 7.47,3.065 11.648,2.02 4.179,-1.044 8.704,-3.829 10.445,-8.008 1.74,-4.177 3.133,-9.748 0.697,-17.059 -2.438,-7.312 -4.022,-10.366 -11.142,-12.534 -8.008,-2.437 -24.023,-2.437 -20.628,9.501"
       style="fill:none;stroke:#231f20;stroke-width:0.5;stroke-linecap:round;stroke-linejoin:round;stroke-miterlimit:4;stroke-dasharray:2.8, 1.8;stroke-dashoffset:0;stroke-opacity:1"
       id="path92517" />
    <path
       d="m 515.515,506.265 c -1.627,-5.992 -2.323,-14.998 -1.974,-22.657"
       style="fill:none;stroke:#231f20;stroke-width:0.5;stroke-linecap:round;stroke-linejoin:round;stroke-miterlimit:4;stroke-dasharray:2.8, 1.8;stroke-dashoffset:0;stroke-opacity:1"
       id="path92519" />
    <path
       d="m 499.956,499.389 c -4.869,-1.205 -9.2,-4.776 -11.288,-11.391"
       style="fill:none;stroke:#231f20;stroke-width:0.5;stroke-linecap:round;stroke-linejoin:round;stroke-miterlimit:4;stroke-dasharray:2.8, 1.8;stroke-dashoffset:0;stroke-opacity:1"
       id="path92521" />
    <path
       d="m 388.55,654.161 c 12.882,0.696 26.461,-13.927 25.765,-18.105 -0.696,-4.178 -6.268,-6.266 -16.364,-5.57 -10.097,0.696 -26.46,-7.312 -33.772,-18.106 -7.311,-10.793 -8.355,-23.674 8.008,-43.868 16.363,-20.193 44.913,-43.172 72.004,-59.323 27.091,-16.151 41.496,-21.102 51.593,-23.19 10.096,-2.089 21.586,-2.786 26.461,-2.786 4.874,0 13.229,2.786 17.755,2.786 4.527,0 12.882,-2.786 17.756,-2.786 4.874,0 16.364,0.697 26.46,2.786 10.097,2.088 24.502,7.039 51.594,23.19 27.091,16.151 55.64,39.13 72.003,59.323 16.364,20.194 15.319,33.075 8.008,43.868 -7.312,10.794 -23.675,18.802 -33.772,18.106 -10.096,-0.696 -15.667,1.392 -16.363,5.57 -0.696,4.178 12.882,18.801 25.764,18.105"
       style="fill:none;stroke:#231f20;stroke-width:0.5;stroke-linecap:round;stroke-linejoin:round;stroke-miterlimit:4;stroke-dasharray:2.8, 1.8;stroke-dashoffset:0;stroke-opacity:1"
       id="path92523" />
    <path
       d="m 423.715,476.25 c -3.133,4.874 -14.623,14.623 -19.845,17.408 -5.223,2.785 -18.452,9.749 -20.89,5.57 -2.437,-4.178 5.919,-9.399 11.489,-12.882 5.571,-3.481 9.749,-10.096 8.357,-14.274 -1.394,-4.178 -6.262,-12.558 1.047,-16.374"
       style="fill:none;stroke:#231f20;stroke-width:0.5;stroke-linecap:round;stroke-linejoin:round;stroke-miterlimit:4;stroke-dasharray:2.8, 1.8;stroke-dashoffset:0;stroke-opacity:1"
       id="path92525" />
    <path
       d="m 487.428,471.724 c 4.178,0.348 14.58,3.824 13.927,8.356 -0.545,3.775 -9.156,6.536 -16.407,8.919 -2.418,0.793 -4.731,1.79 -6.481,2.445 -7.003,2.619 -21.329,2.214 -31.425,3.606 -10.097,1.393 -26.46,7.312 -36.02,11.683 0,0 32.568,-29.017 43.013,-34.936"
       style="fill:none;stroke:#231f20;stroke-width:0.5;stroke-linecap:round;stroke-linejoin:round;stroke-miterlimit:4;stroke-dasharray:2.8, 1.8;stroke-dashoffset:0;stroke-opacity:1"
       id="path92527" />
    <path
       d="m 430.33,471.724 c 0,-3.269 1.87,-5.919 4.178,-5.919 2.308,0 4.178,2.65 4.178,5.919 0,3.27 -1.87,5.918 -4.178,5.918 -2.308,0 -4.178,-2.648 -4.178,-5.918 z"
       style="fill:none;stroke:#231f20;stroke-width:0.5;stroke-linecap:round;stroke-linejoin:round;stroke-miterlimit:4;stroke-dasharray:2.8, 1.8;stroke-dashoffset:0;stroke-opacity:1"
       id="path92529" />
    <path
       d="m 540,450.138 -2.785,-0.348 c 0,0 -2.437,0 -3.83,1.741 -1.392,1.74 0,12.882 1.045,17.408 1.044,4.525 3.829,2.437 5.57,0.696 1.741,1.741 4.527,3.829 5.571,-0.696 1.045,-4.526 2.437,-15.668 1.045,-17.408 -1.393,-1.741 -3.83,-1.741 -3.83,-1.741 z"
       style="fill:none;stroke:#231f20;stroke-width:0.5;stroke-linecap:round;stroke-linejoin:round;stroke-miterlimit:4;stroke-dasharray:2.8, 1.8;stroke-dashoffset:0;stroke-opacity:1"
       id="path92531" />
    <path
       d="m 535.919,471.493 c -7.06,0.231 -31.083,-0.465 -39.787,-0.117 -8.704,0.348 -27.852,1.044 -30.986,1.044 -3.134,0 -11.489,1.044 -11.489,-1.392 0,-2.438 4.874,-8.357 14.274,-7.66 9.401,0.696 20.541,2.088 29.245,1.045 6.577,-0.789 21.935,-5.571 36.209,-12.882"
       style="fill:none;stroke:#231f20;stroke-width:0.5;stroke-linecap:round;stroke-linejoin:round;stroke-miterlimit:4;stroke-dasharray:2.8, 1.8;stroke-dashoffset:0;stroke-opacity:1"
       id="path92533" />
    <path
       d="m 516.01,483.436 c 3.101,-2.312 7.991,-3.577 4.501,-11.995"
       style="fill:none;stroke:#231f20;stroke-width:0.5;stroke-linecap:round;stroke-linejoin:round;stroke-miterlimit:4;stroke-dasharray:2.8, 1.8;stroke-dashoffset:0;stroke-opacity:1"
       id="path92535" />
    <path
       d="m 515.629,420.196 c 5.222,2.785 9.748,4.178 11.141,11.838 1.393,7.659 -0.696,15.667 -8.008,19.148 -7.31,3.482 -17.253,8.046 -24.719,4.526 -7.573,-3.568 -14.97,-12.534 -16.015,-18.8 -0.924,-5.538 -3.134,-19.497 3.481,-23.326 6.616,-3.831 16.712,-1.742 20.542,0 3.829,1.74 13.578,6.614 13.578,6.614 z"
       style="fill:none;stroke:#231f20;stroke-width:0.5;stroke-linecap:round;stroke-linejoin:round;stroke-miterlimit:4;stroke-dasharray:2.8, 1.8;stroke-dashoffset:0;stroke-opacity:1"
       id="path92537" />
    <path
       d="m 515.629,420.196 c -2.785,4.875 -20.982,16.146 -38.169,12.251"
       style="fill:none;stroke:#231f20;stroke-width:0.5;stroke-linecap:round;stroke-linejoin:round;stroke-miterlimit:4;stroke-dasharray:2.8, 1.8;stroke-dashoffset:0;stroke-opacity:1"
       id="path92539" />
    <path
       d="m 541.891,404.64 c 0.198,5.313 0.198,10.886 0.198,14.86 0,8.704 0.697,26.112 0.697,30.29"
       style="fill:none;stroke:#231f20;stroke-width:0.5;stroke-linecap:round;stroke-linejoin:round;stroke-miterlimit:4;stroke-dasharray:2.8, 1.8;stroke-dashoffset:0;stroke-opacity:1"
       id="path92541" />
    <path
       d="m 540,389.906 c 0.568,1.229 0.981,3.335 1.282,5.919"
       style="fill:none;stroke:#231f20;stroke-width:0.5;stroke-linecap:round;stroke-linejoin:round;stroke-miterlimit:4;stroke-dasharray:2.8, 1.8;stroke-dashoffset:0;stroke-opacity:1"
       id="path92543" />
    <path
       d="m 538.111,404.64 c -0.199,5.313 -0.199,10.886 -0.199,14.86 0,8.704 -0.697,26.112 -0.697,30.29"
       style="fill:none;stroke:#231f20;stroke-width:0.5;stroke-linecap:round;stroke-linejoin:round;stroke-miterlimit:4;stroke-dasharray:2.8, 1.8;stroke-dashoffset:0;stroke-opacity:1"
       id="path92545" />
    <path
       d="m 540,389.906 c -0.567,1.229 -0.98,3.335 -1.281,5.919"
       style="fill:none;stroke:#231f20;stroke-width:0.5;stroke-linecap:round;stroke-linejoin:round;stroke-miterlimit:4;stroke-dasharray:2.8, 1.8;stroke-dashoffset:0;stroke-opacity:1"
       id="path92547" />
    <path
       d="m 434.508,644.412 c -4.231,-0.202 -10.793,-6.616 -6.615,-15.667 4.178,-9.053 11.489,-16.712 17.06,-21.935 5.57,-5.223 16.363,-12.882 19.844,-14.623 3.483,-1.74 6.268,-2.089 9.401,0 3.134,2.089 5.222,3.83 2.785,15.319 -2.437,11.49 -12.186,26.113 -20.192,30.29 -8.008,4.179 -14.972,6.964 -22.283,6.616 z"
       style="fill:none;stroke:#231f20;stroke-width:0.5;stroke-linecap:round;stroke-linejoin:round;stroke-miterlimit:4;stroke-dasharray:2.8, 1.8;stroke-dashoffset:0;stroke-opacity:1"
       id="path92549" />
    <path
       d="m 444.063,643.203 c -2.244,-7.147 -0.503,-16.547 6.46,-24.904 6.964,-8.356 18.453,-21.238 23.675,-26.112"
       style="fill:none;stroke:#231f20;stroke-width:0.5;stroke-linecap:round;stroke-linejoin:round;stroke-miterlimit:4;stroke-dasharray:2.8, 1.8;stroke-dashoffset:0;stroke-opacity:1"
       id="path92551" />
    <path
       d="m 426.484,672.824 c -1.376,-5.085 -2.769,-19.36 8.024,-28.412"
       style="fill:none;stroke:#231f20;stroke-width:0.5;stroke-linecap:round;stroke-linejoin:round;stroke-miterlimit:4;stroke-dasharray:2.8, 1.8;stroke-dashoffset:0;stroke-opacity:1"
       id="path92553" />
    <path
       d="m 452.506,666.77 c -1.983,-8.78 -0.568,-20.579 2.206,-27.91"
       style="fill:none;stroke:#231f20;stroke-width:0.5;stroke-linecap:round;stroke-linejoin:round;stroke-miterlimit:4;stroke-dasharray:2.8, 1.8;stroke-dashoffset:0;stroke-opacity:1"
       id="path92555" />
    <path
       d="m 426.758,632.27 c -1.65,4.134 -9.958,3.406 -13.115,2.029"
       style="fill:none;stroke:#231f20;stroke-width:0.5;stroke-linecap:round;stroke-linejoin:round;stroke-miterlimit:4;stroke-dasharray:2.8, 1.8;stroke-dashoffset:0;stroke-opacity:1"
       id="path92557" />
    <path
       d="m 527.603,653.124 c 2.301,-4.186 2.997,-12.89 1.605,-16.372"
       style="fill:none;stroke:#231f20;stroke-width:0.5;stroke-linecap:round;stroke-linejoin:round;stroke-miterlimit:4;stroke-dasharray:2.8, 1.8;stroke-dashoffset:0;stroke-opacity:1"
       id="path92559" />
    <path
       d="m 540,597.757 c -1.392,0 -3.481,-1.74 -6.266,-1.74 -2.786,0 -4.179,2.089 -4.875,6.963 -0.696,4.874 -3.482,15.319 -3.829,20.542 -0.349,5.223 2.089,13.578 4.178,13.23 2.088,-0.348 8.355,-2.785 10.792,-2.785 2.437,0 8.705,2.437 10.794,2.785 2.088,0.348 4.526,-8.007 4.177,-13.23 -0.348,-5.223 -3.134,-15.668 -3.83,-20.542 -0.696,-4.874 -2.089,-6.963 -4.874,-6.963 -2.785,0 -4.874,1.74 -6.267,1.74 z"
       style="fill:none;stroke:#231f20;stroke-width:0.5;stroke-linecap:round;stroke-linejoin:round;stroke-miterlimit:4;stroke-dasharray:2.8, 1.8;stroke-dashoffset:0;stroke-opacity:1"
       id="path92561" />
    <path
       d="m 530.802,597.298 c -4.38,-0.933 -10.647,-6.851 -20.395,-6.155 -9.748,0.696 -21.935,3.829 -24.371,15.667 -2.438,11.837 -6.504,16.349 -6.211,20.883"
       style="fill:none;stroke:#231f20;stroke-width:0.5;stroke-linecap:round;stroke-linejoin:round;stroke-miterlimit:4;stroke-dasharray:2.8, 1.8;stroke-dashoffset:0;stroke-opacity:1"
       id="path92563" />
    <path
       d="m 524.691,594.605 c 1.807,0.916 3.82,8.375 -1.402,10.116 -5.223,1.74 -35.164,10.097 -37.253,2.089"
       style="fill:none;stroke:#231f20;stroke-width:0.5;stroke-linecap:round;stroke-linejoin:round;stroke-miterlimit:4;stroke-dasharray:2.8, 1.8;stroke-dashoffset:0;stroke-opacity:1"
       id="path92565" />
    <path
       d="m 479.998,625.519 c 6.038,-0.952 22.244,-4.593 21.626,-15.829"
       style="fill:none;stroke:#231f20;stroke-width:0.5;stroke-linecap:round;stroke-linejoin:round;stroke-miterlimit:4;stroke-dasharray:2.8, 1.8;stroke-dashoffset:0;stroke-opacity:1"
       id="path92567" />
    <path
       d="m 383.329,360.313 c -3.482,0.696 -6.964,5.57 -3.134,12.882 3.83,7.311 13.23,12.533 18.104,5.221"
       style="fill:none;stroke:#231f20;stroke-width:0.5;stroke-linecap:round;stroke-linejoin:round;stroke-miterlimit:4;stroke-dasharray:2.8, 1.8;stroke-dashoffset:0;stroke-opacity:1"
       id="path92569" />
    <path
       d="m 500.659,403.136 c -8.176,-7.173 -21.797,-20.457 -20.542,-29.245 1.218,-8.53 4.44,-13.176 18.104,-10.445 10.445,2.089 18.105,11.838 23.326,17.408 5.223,5.57 13.927,12.534 13.927,18.452 0,5.919 0,15.668 -5.919,17.061 -5.918,1.392 -11.837,1.74 -28.896,-13.231 z"
       style="fill:none;stroke:#231f20;stroke-width:0.5;stroke-linecap:round;stroke-linejoin:round;stroke-miterlimit:4;stroke-dasharray:2.8, 1.8;stroke-dashoffset:0;stroke-opacity:1"
       id="path92571" />
    <path
       d="m 500.659,403.136 c 3.829,-4.874 15.803,-21.708 14.691,-28.957"
       style="fill:none;stroke:#231f20;stroke-width:0.5;stroke-linecap:round;stroke-linejoin:round;stroke-miterlimit:4;stroke-dasharray:2.8, 1.8;stroke-dashoffset:0;stroke-opacity:1"
       id="path92573" />
    <path
       d="m 525.713,385.045 c -5.906,1.032 -19.329,7.703 -20.277,22.125"
       style="fill:none;stroke:#231f20;stroke-width:0.5;stroke-linecap:round;stroke-linejoin:round;stroke-miterlimit:4;stroke-dasharray:2.8, 1.8;stroke-dashoffset:0;stroke-opacity:1"
       id="path92575" />
    <path
       d="m 525.151,376.085 c 1.514,-3.725 9.975,-4.283 14.849,-4.283 4.874,0 13.336,0.558 14.85,4.283"
       style="fill:none;stroke:#231f20;stroke-width:0.5;stroke-linecap:round;stroke-linejoin:round;stroke-miterlimit:4;stroke-dasharray:2.8, 1.8;stroke-dashoffset:0;stroke-opacity:1"
       id="path92577" />
    <path
       d="m 510.67,361.162 c -4.79,-3.635 -8.655,-11.237 -7.244,-18.796"
       style="fill:none;stroke:#231f20;stroke-width:0.5;stroke-linecap:round;stroke-linejoin:round;stroke-miterlimit:4;stroke-dasharray:2.8, 1.8;stroke-dashoffset:0;stroke-opacity:1"
       id="path92579" />
    <path
       d="m 517.791,367.175 c 1.32,-6.166 4.105,-14.522 16.987,-14.522"
       style="fill:none;stroke:#231f20;stroke-width:0.5;stroke-linecap:round;stroke-linejoin:round;stroke-miterlimit:4;stroke-dasharray:2.8, 1.8;stroke-dashoffset:0;stroke-opacity:1"
       id="path92581" />
    <path
       d="m 519.216,347.096 c 3.935,5.584 8.947,4.86 11.732,3.12 2.786,-1.741 6.267,-5.571 9.052,-5.571 2.786,0 6.267,3.83 9.052,5.571 2.785,1.74 7.797,2.464 11.732,-3.12"
       style="fill:none;stroke:#231f20;stroke-width:0.5;stroke-linecap:round;stroke-linejoin:round;stroke-miterlimit:4;stroke-dasharray:2.8, 1.8;stroke-dashoffset:0;stroke-opacity:1"
       id="path92583" />
    <path
       d="m 312.568,617.012 c -5.371,-9.273 -25.796,-51.054 -19.761,-80.298 6.034,-29.244 46.976,-56.705 77.568,-67.593"
       style="fill:none;stroke:#231f20;stroke-width:0.5;stroke-linecap:round;stroke-linejoin:round;stroke-miterlimit:4;stroke-dasharray:2.8, 1.8;stroke-dashoffset:0;stroke-opacity:1"
       id="path92585" />
    <path
       d="m 326.516,492.839 c -7.713,0.24 -26.745,-4.869 -29.995,-13.687 -3.251,-8.82 -3.087,-24.605 -0.848,-33.192"
       style="fill:none;stroke:#231f20;stroke-width:0.5;stroke-linecap:round;stroke-linejoin:round;stroke-miterlimit:4;stroke-dasharray:2.8, 1.8;stroke-dashoffset:0;stroke-opacity:1"
       id="path92587" />
    <path
       d="m 346.423,480.039 c 5.338,-7.85 9.982,-22.704 4.874,-38.954 -5.106,-16.246 -10.164,-21.501 -18.104,-21.816 -11.605,-0.466 -21.237,7.194 -21.237,7.194"
       style="fill:none;stroke:#231f20;stroke-width:0.5;stroke-linecap:round;stroke-linejoin:round;stroke-miterlimit:4;stroke-dasharray:2.8, 1.8;stroke-dashoffset:0;stroke-opacity:1"
       id="path92589" />
    <path
       d="m 327.623,476.135 c -4.54,2.095 -10.676,-0.233 -12.534,-6.731 -1.858,-6.501 -2.786,-19.962 0,-21.355 2.786,-1.392 9.747,3.715 12.997,13.464 3.25,9.748 2.554,13.23 -0.463,14.622 z"
       style="fill:none;stroke:#231f20;stroke-width:0.5;stroke-linecap:round;stroke-linejoin:round;stroke-miterlimit:4;stroke-dasharray:2.8, 1.8;stroke-dashoffset:0;stroke-opacity:1"
       id="path92591" />
    <path
       d="m 323.393,492.706 c 0,0 -0.406,-11.286 0.055,-15.901"
       style="fill:none;stroke:#231f20;stroke-width:0.5;stroke-linecap:round;stroke-linejoin:round;stroke-miterlimit:4;stroke-dasharray:2.8, 1.8;stroke-dashoffset:0;stroke-opacity:1"
       id="path92593" />
    <path
       d="m 317.291,448.008 c -1.739,-4.137 -4.121,-16.317 -1.304,-24.153"
       style="fill:none;stroke:#231f20;stroke-width:0.5;stroke-linecap:round;stroke-linejoin:round;stroke-miterlimit:4;stroke-dasharray:2.8, 1.8;stroke-dashoffset:0;stroke-opacity:1"
       id="path92595" />
    <path
       d="m 353.355,459.171 c 3.746,2.108 12.334,-0.674 17.672,-8.103 5.338,-7.428 16.015,-24.371 12.524,-73.336"
       style="fill:none;stroke:#231f20;stroke-width:0.5;stroke-linecap:round;stroke-linejoin:round;stroke-miterlimit:4;stroke-dasharray:2.8, 1.8;stroke-dashoffset:0;stroke-opacity:1"
       id="path92597" />
    <path
       d="m 311.455,426.811 c -3.562,-0.811 -4.708,-3.841 -4.955,-6.615 -0.262,-2.962 -1.624,-8.587 0.929,-10.211 2.553,-1.626 11.374,-3.482 16.248,-3.715 4.874,-0.231 14.503,0.198 14.623,3.25 0.116,2.93 -1.394,4.874 -5.34,6.498 -3.945,1.627 -5.244,2.517 -6.915,3.928"
       style="fill:none;stroke:#231f20;stroke-width:0.5;stroke-linecap:round;stroke-linejoin:round;stroke-miterlimit:4;stroke-dasharray:2.8, 1.8;stroke-dashoffset:0;stroke-opacity:1"
       id="path92599" />
    <path
       d="M 305.992,413.923 C 305.95,410.97 293.711,397.982 272.614,402.789"
       style="fill:none;stroke:#231f20;stroke-width:0.5;stroke-linecap:round;stroke-linejoin:round;stroke-miterlimit:4;stroke-dasharray:2.8, 1.8;stroke-dashoffset:0;stroke-opacity:1"
       id="path92601" />
    <path
       d="m 301.81,408.288 c 0.745,-4.512 0.978,-14.318 -3.896,-18.265 -3.956,-3.204 -11.607,-4.178 -16.481,-1.393 -4.284,2.449 -7.937,5.005 -9.539,14.109"
       style="fill:none;stroke:#231f20;stroke-width:0.5;stroke-linecap:round;stroke-linejoin:round;stroke-miterlimit:4;stroke-dasharray:2.8, 1.8;stroke-dashoffset:0;stroke-opacity:1"
       id="path92603" />
    <path
       d="m 338.031,408.54 c 4.679,0.515 10.946,-2.733 14.195,-6.448 3.249,-3.713 8.357,-14.391 4.179,-19.728 -4.179,-5.34 -16.018,-10.446 -26.23,-11.607 -10.212,-1.158 -19.033,-1.161 -25.067,1.858 -6.034,3.016 -7.377,5.519 -6.589,17.963"
       style="fill:none;stroke:#231f20;stroke-width:0.5;stroke-linecap:round;stroke-linejoin:round;stroke-miterlimit:4;stroke-dasharray:2.8, 1.8;stroke-dashoffset:0;stroke-opacity:1"
       id="path92605" />
    <path
       d="m 384.155,401.858 c -0.083,2.325 -6.164,3.253 -6.861,-1.159 -0.697,-4.409 -6.036,-9.98 -8.821,-11.837 -2.785,-1.856 -7.57,-1.649 -10.515,-0.707"
       style="fill:none;stroke:#231f20;stroke-width:0.5;stroke-linecap:round;stroke-linejoin:round;stroke-miterlimit:4;stroke-dasharray:2.8, 1.8;stroke-dashoffset:0;stroke-opacity:1"
       id="path92607" />
    <path
       d="m 379.146,370.754 c -4.87,1.63 -18.611,7.045 -21.489,14.202"
       style="fill:none;stroke:#231f20;stroke-width:0.5;stroke-linecap:round;stroke-linejoin:round;stroke-miterlimit:4;stroke-dasharray:2.8, 1.8;stroke-dashoffset:0;stroke-opacity:1"
       id="path92609" />
    <path
       d="m 377.631,371.285 c -2.891,-5.168 -10.317,-14.223 -19.834,-16.774 -9.517,-2.555 -37.369,-4.179 -43.171,-4.409"
       style="fill:none;stroke:#231f20;stroke-width:0.5;stroke-linecap:round;stroke-linejoin:round;stroke-miterlimit:4;stroke-dasharray:2.8, 1.8;stroke-dashoffset:0;stroke-opacity:1"
       id="path92611" />
    <path
       d="m 189.9,456.416 c 2.355,0.824 4.262,-3.028 6.35,-6.509 2.089,-3.482 6.266,-15.32 9.284,-22.979 3.018,-7.659 13.463,-31.565 18.337,-38.529 4.875,-6.963 13.33,-18.501 20.657,-21.123 7.544,-2.698 12.071,-3.482 16.48,-2.785 4.41,0.696 9.053,-2.089 11.606,-5.571 2.552,-3.482 12.765,-8.122 18.337,-8.356 5.57,-0.232 12.3,0.231 15.782,0.465 3.481,0.231 6.965,1.858 7.893,-0.927 0.926,-2.785 -3.484,-3.716 -8.126,-5.108 -4.641,-1.393 -20.888,-4.641 -42.707,0.929 -21.818,5.572 -29.942,7.658 -47.814,32.959 -17.872,25.299 -22.979,44.565 -24.835,51.528 -1.856,6.963 -6.796,24.113 -4.02,25.059"
       style="fill:none;stroke:#231f20;stroke-width:0.5;stroke-linecap:round;stroke-linejoin:round;stroke-miterlimit:4;stroke-dasharray:2.8, 1.8;stroke-dashoffset:0;stroke-opacity:1"
       id="path92613" />
    <path
       d="m 312.785,370.425 c 0.911,-7.327 1.95,-21.022 1.95,-21.022"
       style="fill:none;stroke:#231f20;stroke-width:0.5;stroke-linecap:round;stroke-linejoin:round;stroke-miterlimit:4;stroke-dasharray:2.8, 1.8;stroke-dashoffset:0;stroke-opacity:1"
       id="path92615" />
    <path
       d="m 508.366,455.515 c 1.692,-7.001 -2.979,-10.907 -9.216,-10.252 -4.41,0.466 -3.06,8.09 0.675,11.705"
       style="fill:none;stroke:#231f20;stroke-width:0.5;stroke-linecap:round;stroke-linejoin:round;stroke-miterlimit:4;stroke-dasharray:2.8, 1.8;stroke-dashoffset:0;stroke-opacity:1"
       id="path92617" />
    <path
       d="m 617.297,354.201 c 3.128,2.456 19.315,12.21 27.324,12.903"
       style="fill:none;stroke:#231f20;stroke-width:0.5;stroke-linecap:round;stroke-linejoin:round;stroke-miterlimit:4;stroke-dasharray:2.8, 1.8;stroke-dashoffset:0;stroke-opacity:1"
       id="path92619" />
    <path
       d="m 462.704,354.201 c -3.128,2.456 -19.316,12.21 -27.325,12.903"
       style="fill:none;stroke:#231f20;stroke-width:0.5;stroke-linecap:round;stroke-linejoin:round;stroke-miterlimit:4;stroke-dasharray:2.8, 1.8;stroke-dashoffset:0;stroke-opacity:1"
       id="path92621" />
    <path
       d="m 784.275,445.869 c -4.889,-7.979 -10.483,-15.629 -16.23,-19.406"
       style="fill:none;stroke:#231f20;stroke-width:0.5;stroke-linecap:round;stroke-linejoin:round;stroke-miterlimit:4;stroke-dasharray:2.8, 1.8;stroke-dashoffset:0;stroke-opacity:1"
       id="path92623" />
    <path
       d="m 295.725,445.869 c 4.89,-7.979 10.483,-15.629 16.231,-19.406"
       style="fill:none;stroke:#231f20;stroke-width:0.5;stroke-linecap:round;stroke-linejoin:round;stroke-miterlimit:4;stroke-dasharray:2.8, 1.8;stroke-dashoffset:0;stroke-opacity:1"
       id="path92625" />
  </g>
</svg>
