<?xml version="1.0" encoding="UTF-8" standalone="no"?>
<!-- Created with Inkscape (http://www.inkscape.org/) -->

<svg
   version="1.1"
   id="svg139997"
   width="1440"
   height="1344"
   viewBox="0 0 1440 1344"
   xmlns="http://www.w3.org/2000/svg"
   xmlns:svg="http://www.w3.org/2000/svg">
  <defs
     id="defs140001" />
  <g
     id="g140005">
    <path
       d="m 634.352,674.005 c 0,0 -12.534,-6.615 -21.238,-10.096 -8.704,-3.482 -16.016,-1.393 -16.016,-1.393 9.401,2.785 12.882,10.097 19.15,22.282 -2.089,-19.148 18.104,-10.793 18.104,-10.793 z m -85.3,-326.688 c 3.274,0.244 14.971,-0.931 31.103,3.247 15.958,4.135 23.675,8.356 37.137,15.319 13.462,6.963 22.746,16.712 30.174,25.068 7.428,8.355 13.926,7.893 13.926,7.893 9.749,-1.392 18.568,3.713 18.568,3.713 -1.392,-17.177 18.569,-41.779 27.853,-50.601 9.285,-8.818 25.068,-12.533 42.709,-15.781 17.64,-3.25 43.172,-7.428 54.776,-6.963 11.605,0.465 40.387,2.321 46.886,3.247 6.5,0.931 26.46,5.109 40.387,13.464 13.927,8.357 27.387,31.567 35.279,45.028 7.893,13.464 8.82,29.245 13.463,40.851 4.644,11.604 8.82,33.889 8.356,43.172 -0.463,9.283 -7.892,27.853 -9.285,30.173 -1.392,2.323 -1.392,4.178 0,6.036 1.393,1.855 12.071,13.461 18.569,20.89 6.498,7.427 16.248,32.494 16.595,59.418 1.171,90.527 -43.172,178.259 -72.417,207.156 -29.245,28.897 -59.187,57.794 -118.026,79.032 -58.839,21.237 -96.788,22.979 -134.042,24.72 -37.253,1.74 -68.239,-3.134 -85.299,-13.579 C 548.705,878.375 540,849.13 540,843.211 c 0,5.919 -8.704,35.164 -25.763,45.609 -17.061,10.445 -48.047,15.319 -85.3,13.579 -37.253,-1.741 -75.202,-3.483 -134.041,-24.72 C 236.056,856.441 206.115,827.544 176.87,798.647 147.624,769.75 103.281,682.018 104.452,591.491 104.8,564.567 114.55,539.5 121.048,532.073 c 6.498,-7.429 17.175,-19.035 18.569,-20.89 1.392,-1.858 1.392,-3.713 0,-6.036 -1.394,-2.32 -8.822,-20.89 -9.285,-30.173 -0.464,-9.283 3.712,-31.568 8.355,-43.172 4.644,-11.606 5.571,-27.387 13.463,-40.851 7.892,-13.461 21.353,-36.671 35.28,-45.028 13.926,-8.355 33.887,-12.533 40.386,-13.464 6.5,-0.926 35.281,-2.782 46.887,-3.247 11.604,-0.465 37.135,3.713 54.776,6.963 17.641,3.248 33.424,6.963 42.708,15.781 9.285,8.822 29.245,33.424 27.853,50.601 0,0 8.82,-5.105 18.568,-3.713 0,0 6.498,0.462 13.927,-7.893 7.427,-8.356 16.712,-18.105 30.173,-25.068 13.463,-6.963 21.18,-11.184 37.138,-15.319 16.131,-4.178 27.828,-3.003 31.102,-3.247 2.871,-0.218 6.499,-1.976 9.052,-1.976 2.554,0 6.183,1.758 9.052,1.976 z m -85.299,337.481 c 6.267,-12.185 9.748,-19.497 19.149,-22.282 0,0 -7.312,-2.089 -16.016,1.393 -8.703,3.481 -21.237,10.096 -21.237,10.096 0,0 20.193,-8.355 18.104,10.793 z m 81.818,10.097 c 0,0 0.348,-5.919 -5.571,-5.919 -5.918,0 -5.57,5.919 -5.57,5.919 2.089,3.134 5.57,11.489 5.57,16.363 0,-4.874 3.482,-13.229 5.571,-16.363"
       style="fill:#ffffff;fill-opacity:1;fill-rule:nonzero;stroke:none;stroke-width:0.1"
       id="path140665" />
    <path
       d="m 634.352,674.005 c 0,0 -12.534,-6.615 -21.238,-10.096 -8.704,-3.482 -16.016,-1.393 -16.016,-1.393 9.401,2.785 12.882,10.097 19.15,22.282 -2.089,-19.148 18.104,-10.793 18.104,-10.793 z m -85.3,-326.688 c 3.274,0.244 14.971,-0.931 31.103,3.247 15.958,4.135 23.675,8.356 37.137,15.319 13.462,6.963 22.746,16.712 30.174,25.068 7.428,8.355 13.926,7.893 13.926,7.893 9.749,-1.392 18.568,3.713 18.568,3.713 -1.392,-17.177 18.569,-41.779 27.853,-50.601 9.285,-8.818 25.068,-12.533 42.709,-15.781 17.64,-3.25 43.172,-7.428 54.776,-6.963 11.605,0.465 40.387,2.321 46.886,3.247 6.5,0.931 26.46,5.109 40.387,13.464 13.927,8.357 27.387,31.567 35.279,45.028 7.893,13.464 8.82,29.245 13.463,40.851 4.644,11.604 8.82,33.889 8.356,43.172 -0.463,9.283 -7.892,27.853 -9.285,30.173 -1.392,2.323 -1.392,4.178 0,6.036 1.393,1.855 12.071,13.461 18.569,20.89 6.498,7.427 16.248,32.494 16.595,59.418 1.171,90.527 -43.172,178.259 -72.417,207.156 -29.245,28.897 -59.187,57.794 -118.026,79.032 -58.839,21.237 -96.788,22.979 -134.042,24.72 -37.253,1.74 -68.239,-3.134 -85.299,-13.579 C 548.705,878.375 540,849.13 540,843.211 c 0,5.919 -8.704,35.164 -25.763,45.609 -17.061,10.445 -48.047,15.319 -85.3,13.579 -37.253,-1.741 -75.202,-3.483 -134.041,-24.72 C 236.056,856.441 206.115,827.544 176.87,798.647 147.624,769.75 103.281,682.018 104.452,591.491 104.8,564.567 114.55,539.5 121.048,532.073 c 6.498,-7.429 17.175,-19.035 18.569,-20.89 1.392,-1.858 1.392,-3.713 0,-6.036 -1.394,-2.32 -8.822,-20.89 -9.285,-30.173 -0.464,-9.283 3.712,-31.568 8.355,-43.172 4.644,-11.606 5.571,-27.387 13.463,-40.851 7.892,-13.461 21.353,-36.671 35.28,-45.028 13.926,-8.355 33.887,-12.533 40.386,-13.464 6.5,-0.926 35.281,-2.782 46.887,-3.247 11.604,-0.465 37.135,3.713 54.776,6.963 17.641,3.248 33.424,6.963 42.708,15.781 9.285,8.822 29.245,33.424 27.853,50.601 0,0 8.82,-5.105 18.568,-3.713 0,0 6.498,0.462 13.927,-7.893 7.427,-8.356 16.712,-18.105 30.173,-25.068 13.463,-6.963 21.18,-11.184 37.138,-15.319 16.131,-4.178 27.828,-3.003 31.102,-3.247 2.871,-0.218 6.499,-1.976 9.052,-1.976 2.554,0 6.183,1.758 9.052,1.976 z m -85.299,337.481 c 6.267,-12.185 9.748,-19.497 19.149,-22.282 0,0 -7.312,-2.089 -16.016,1.393 -8.703,3.481 -21.237,10.096 -21.237,10.096 0,0 20.193,-8.355 18.104,10.793 z m 81.818,10.097 c 0,0 0.348,-5.919 -5.571,-5.919 -5.918,0 -5.57,5.919 -5.57,5.919 2.089,3.134 5.57,11.489 5.57,16.363 0,-4.874 3.482,-13.229 5.571,-16.363 z"
       style="fill:none;stroke:#231f20;stroke-width:0.75;stroke-linecap:round;stroke-linejoin:round;stroke-miterlimit:4;stroke-dasharray:none;stroke-opacity:1"
       id="path140667" />
    <path
       d="m 666.382,392.692 c 0,-1.924 -1.714,-3.483 -3.83,-3.483 -2.114,0 -3.829,1.559 -3.829,3.483 0,1.923 1.715,3.481 3.829,3.481 2.116,0 3.83,-1.558 3.83,-3.481"
       style="fill:#ffffff;fill-opacity:1;fill-rule:nonzero;stroke:none;stroke-width:0.1"
       id="path140669" />
    <path
       d="m 666.382,392.692 c 0,-1.924 -1.714,-3.483 -3.83,-3.483 -2.114,0 -3.829,1.559 -3.829,3.483 0,1.923 1.715,3.481 3.829,3.481 2.116,0 3.83,-1.558 3.83,-3.481 z"
       style="fill:none;stroke:#231f20;stroke-width:0.5;stroke-linecap:butt;stroke-linejoin:miter;stroke-miterlimit:4;stroke-dasharray:none;stroke-opacity:1"
       id="path140671" />
    <path
       d="m 413.619,392.692 c 0,-1.924 1.715,-3.483 3.829,-3.483 2.115,0 3.83,1.559 3.83,3.483 0,1.923 -1.715,3.481 -3.83,3.481 -2.114,0 -3.829,-1.558 -3.829,-3.481"
       style="fill:#ffffff;fill-opacity:1;fill-rule:nonzero;stroke:none;stroke-width:0.1"
       id="path140673" />
    <path
       d="m 413.619,392.692 c 0,-1.924 1.715,-3.483 3.829,-3.483 2.115,0 3.83,1.559 3.83,3.483 0,1.923 -1.715,3.481 -3.83,3.481 -2.114,0 -3.829,-1.558 -3.829,-3.481 z"
       style="fill:none;stroke:#231f20;stroke-width:0.5;stroke-linecap:butt;stroke-linejoin:miter;stroke-miterlimit:4;stroke-dasharray:none;stroke-opacity:1"
       id="path140675" />
    <path
       d="m 698.761,420.892 c 0,0 17.06,17.757 25.068,30.639 0,0 20.889,5.221 35.86,26.807 14.972,21.586 15.191,27.604 20.193,34.12 11.49,14.971 19.428,36.927 25.416,55.707 7.66,24.022 9.401,50.134 12.186,61.972 2.785,11.838 7.311,28.201 8.704,37.253 1.393,9.053 2.089,26.112 3.481,26.46 1.393,0.349 9.401,-9.399 11.142,-18.103 1.74,-8.705 2.437,-30.987 2.089,-48.047 -0.349,-17.06 3.133,-30.287 13.229,-47.348 10.097,-17.062 14.623,-50.138 9.053,-69.635 -5.571,-19.496 -16.712,-45.608 -30.638,-61.275 -13.926,-15.668 -30.291,-27.157 -52.92,-31.335 -22.631,-4.178 -34.768,-3.392 -50.832,-2.785 -18.453,0.696 -32.031,5.57 -32.031,5.57"
       style="fill:#706d6e;fill-opacity:1;fill-rule:nonzero;stroke:none;stroke-width:0.1"
       id="path140677" />
    <path
       d="m 698.761,420.892 c 0,0 17.06,17.757 25.068,30.639 0,0 20.889,5.221 35.86,26.807 14.972,21.586 15.191,27.604 20.193,34.12 11.49,14.971 19.428,36.927 25.416,55.707 7.66,24.022 9.401,50.134 12.186,61.972 2.785,11.838 7.311,28.201 8.704,37.253 1.393,9.053 2.089,26.112 3.481,26.46 1.393,0.349 9.401,-9.399 11.142,-18.103 1.74,-8.705 2.437,-30.987 2.089,-48.047 -0.349,-17.06 3.133,-30.287 13.229,-47.348 10.097,-17.062 14.623,-50.138 9.053,-69.635 -5.571,-19.496 -16.712,-45.608 -30.638,-61.275 -13.926,-15.668 -30.291,-27.157 -52.92,-31.335 -22.631,-4.178 -34.768,-3.392 -50.832,-2.785 -18.453,0.696 -32.031,5.57 -32.031,5.57 z"
       style="fill:none;stroke:#231f20;stroke-width:0.75;stroke-linecap:round;stroke-linejoin:round;stroke-miterlimit:4;stroke-dasharray:none;stroke-opacity:1"
       id="path140679" />
    <path
       d="m 679.96,402.557 c 0,0 15.109,14.381 18.801,18.335"
       style="fill:none;stroke:#231f20;stroke-width:0.75;stroke-linecap:round;stroke-linejoin:round;stroke-miterlimit:4;stroke-dasharray:none;stroke-opacity:1"
       id="path140681" />
    <path
       d="M 540,843.211 V 754.43"
       style="fill:none;stroke:#231f20;stroke-width:0.75;stroke-linecap:round;stroke-linejoin:round;stroke-miterlimit:4;stroke-dasharray:none;stroke-opacity:1"
       id="path140683" />
    <path
       d="m 567.496,761.412 c 19.158,11.123 28.906,20.523 37.262,29.923 8.356,9.401 15.667,17.409 27.505,18.105 11.837,0.696 31.334,1.74 41.779,1.392"
       style="fill:none;stroke:#231f20;stroke-width:0.5;stroke-linecap:butt;stroke-linejoin:miter;stroke-miterlimit:4;stroke-dasharray:none;stroke-opacity:1"
       id="path140685" />
    <path
       d="m 547.341,730.581 c 7.63,-1.566 23.27,-3.834 30.944,9.834"
       style="fill:none;stroke:#231f20;stroke-width:0.5;stroke-linecap:butt;stroke-linejoin:miter;stroke-miterlimit:4;stroke-dasharray:none;stroke-opacity:1"
       id="path140687" />
    <path
       d="m 707.977,416.339 c 7.147,-1.713 21.422,-4.499 31.519,-4.151 10.096,0.349 23.327,0.349 27.504,-0.696 4.178,-1.044 16.364,-2.437 27.853,1.741 11.489,4.178 16.364,9.052 19.497,12.185 3.134,3.134 13.761,11.272 18.195,21.826"
       style="fill:none;stroke:#231f20;stroke-width:0.5;stroke-linecap:butt;stroke-linejoin:miter;stroke-miterlimit:4;stroke-dasharray:none;stroke-opacity:1"
       id="path140689" />
    <path
       d="m 661.392,398.844 c -4.41,0.114 -14.95,10.448 -6.499,25.878 8.008,14.623 37.253,41.083 50.831,55.01 13.578,13.926 26.461,26.808 34.468,35.512 8.008,8.704 18.453,20.193 22.631,24.023 4.177,3.829 8.704,9.748 10.096,14.622 1.393,4.875 3.134,9.749 4.875,10.445 1.741,0.697 3.83,-4.526 2.437,-11.489 -1.393,-6.963 -3.134,-24.371 -11.142,-38.298 -8.007,-13.926 -31.573,-48.059 -32.498,-57.452"
       style="fill:none;stroke:#231f20;stroke-width:0.5;stroke-linecap:butt;stroke-linejoin:miter;stroke-miterlimit:4;stroke-dasharray:none;stroke-opacity:1"
       id="path140691" />
    <path
       d="m 723.829,451.531 c 3.133,6.266 10.096,18.801 16.015,26.46 5.919,7.659 26.069,33.633 31.139,40.144"
       style="fill:none;stroke:#231f20;stroke-width:0.5;stroke-linecap:butt;stroke-linejoin:miter;stroke-miterlimit:4;stroke-dasharray:none;stroke-opacity:1"
       id="path140693" />
    <path
       d="m 776.656,507.285 c 4.968,12.485 14.368,30.589 14.019,57.049 -0.347,26.46 0,40.039 -5.222,60.232 -5.222,20.194 -10.096,35.861 -23.675,45.958 -13.578,10.097 -16.363,12.534 -24.719,15.667 -8.356,3.134 -14.971,5.223 -25.764,2.785 -10.793,-2.436 -17.06,2.438 -25.764,1.393 -8.703,-1.044 -38.646,-10.097 -51.179,-16.364"
       style="fill:none;stroke:#231f20;stroke-width:0.75;stroke-linecap:round;stroke-linejoin:round;stroke-miterlimit:4;stroke-dasharray:none;stroke-opacity:1"
       id="path140695" />
    <path
       d="m 597.098,662.516 c -6.266,-0.348 -23.717,2.879 -30.289,7.659 -7.66,5.572 -10.793,11.49 -10.793,11.49"
       style="fill:none;stroke:#231f20;stroke-width:0.75;stroke-linecap:round;stroke-linejoin:round;stroke-miterlimit:4;stroke-dasharray:none;stroke-opacity:1"
       id="path140697" />
    <path
       d="m 540,719.615 c 0,0 0,-3.484 0,-8.357"
       style="fill:none;stroke:#231f20;stroke-width:0.75;stroke-linecap:round;stroke-linejoin:round;stroke-miterlimit:4;stroke-dasharray:none;stroke-opacity:1"
       id="path140699" />
    <path
       d="m 557.756,663.561 c 10.446,-6.615 24.371,-7.66 39.342,-1.045"
       style="fill:none;stroke:#231f20;stroke-width:0.5;stroke-linecap:butt;stroke-linejoin:miter;stroke-miterlimit:4;stroke-dasharray:none;stroke-opacity:1"
       id="path140701" />
    <path
       d="m 555.287,724.297 c 5.255,0.192 17.789,0.888 22.663,1.932 4.874,1.045 8.008,1.045 11.489,7.66 3.481,6.615 9.4,12.186 13.23,16.712 3.83,4.525 18.801,26.808 25.068,34.119 6.266,7.312 14.971,14.275 33.771,14.275 18.801,0 33.423,-2.089 54.313,-9.052 20.889,-6.963 40.039,-12.186 61.973,-30.986 21.934,-18.801 43.52,-45.957 43.52,-63.713 0,-17.757 -0.696,-20.194 -5.223,-28.898 -4.526,-8.704 -7.659,-16.015 -17.756,-11.489 -10.096,4.525 -34.12,18.104 -41.431,23.326 -7.312,5.223 -27.505,19.497 -37.253,17.757 0,0 0.696,-3.441 0.696,-5.898"
       style="fill:none;stroke:#231f20;stroke-width:0.5;stroke-linecap:butt;stroke-linejoin:miter;stroke-miterlimit:4;stroke-dasharray:none;stroke-opacity:1"
       id="path140703" />
    <path
       d="M 540,495.747 V 458.494"
       style="fill:none;stroke:#231f20;stroke-width:0.75;stroke-linecap:round;stroke-linejoin:round;stroke-miterlimit:4;stroke-dasharray:none;stroke-opacity:1"
       id="path140705" />
    <path
       d="m 620.077,506.192 c -7.745,3.225 -11.49,10.097 -11.49,10.097 0,0 3.961,-0.958 11.49,-1.393 7.529,-0.436 18.627,-0.349 33.075,4.178 28.897,9.051 35.513,16.363 46.306,18.8 10.792,2.437 25.416,5.222 30.986,8.008 0,0 -6.267,-10.096 -26.46,-19.149 -20.193,-9.052 -50.484,-19.845 -67.543,-21.237 -6.072,-0.496 -12.084,-1.086 -16.364,0.696 z"
       style="fill:none;stroke:#231f20;stroke-width:0.5;stroke-linecap:butt;stroke-linejoin:miter;stroke-miterlimit:4;stroke-dasharray:none;stroke-opacity:1"
       id="path140707" />
    <path
       d="m 716.463,533.434 c 0,0 35.578,8.947 48.802,16.616"
       style="fill:none;stroke:#231f20;stroke-width:0.5;stroke-linecap:butt;stroke-linejoin:miter;stroke-miterlimit:4;stroke-dasharray:none;stroke-opacity:1"
       id="path140709" />
    <path
       d="m 730.444,545.882 c 6.963,7.311 16.016,16.711 18.104,29.245 2.089,12.534 -2.088,30.987 -7.311,38.646 -5.223,7.66 -11.838,16.713 -9.401,19.846 2.438,3.133 8.008,2.089 12.882,-1.044 0,0 8.704,-12.535 13.578,-19.846 4.874,-7.312 18.16,-33.035 20.917,-49.07"
       style="fill:none;stroke:#231f20;stroke-width:0.5;stroke-linecap:butt;stroke-linejoin:miter;stroke-miterlimit:4;stroke-dasharray:none;stroke-opacity:1"
       id="path140711" />
    <path
       d="m 605.802,408.01 c 5.533,-4.066 9.401,-8.355 6.268,-13.578 -3.134,-5.223 -9.749,-3.83 -14.972,1.045 -5.222,4.874 -6.614,9.052 -4.874,11.837 1.741,2.785 9.549,3.661 13.578,0.696 z"
       style="fill:none;stroke:#231f20;stroke-width:0.5;stroke-linecap:butt;stroke-linejoin:miter;stroke-miterlimit:4;stroke-dasharray:none;stroke-opacity:1"
       id="path140713" />
    <path
       d="m 591.898,406.68 c -3.155,5.394 -14.066,26.05 -15.226,33.013 -1.16,6.964 -3.249,18.339 2.323,20.889 5.57,2.555 10.676,0.697 12.997,-3.247 2.011,-3.419 3.778,-8.271 1.857,-12.302 -2.321,-4.875 -6.731,-3.251 -6.267,-6.964 0.38,-3.029 3.481,-15.55 3.713,-19.031 0.233,-3.482 0.603,-12.358 0.603,-12.358 z"
       style="fill:none;stroke:#231f20;stroke-width:0.5;stroke-linecap:butt;stroke-linejoin:miter;stroke-miterlimit:4;stroke-dasharray:none;stroke-opacity:1"
       id="path140715" />
    <path
       d="m 562.514,622.129 c 0,0 6.499,-6.267 8.82,-13.694 2.322,-7.427 10.213,-27.62 17.176,-27.156 6.963,0.464 16.016,9.284 13.927,44.1 0,0 -0.639,-2.379 -7.66,-4.643 -7.556,-2.434 -17.639,-2.785 -21.817,-2.089 -4.178,0.696 -10.446,3.482 -10.446,3.482 z"
       style="fill:none;stroke:#231f20;stroke-width:0.5;stroke-linecap:butt;stroke-linejoin:miter;stroke-miterlimit:4;stroke-dasharray:none;stroke-opacity:1"
       id="path140717" />
    <path
       d="m 616.248,684.798 c 5.455,9.749 22.862,39.923 27.737,48.511 4.874,8.588 12.765,21.354 19.031,23.442 6.268,2.089 16.944,2.554 28.086,-0.463 11.141,-3.018 51.991,-18.106 65.454,-31.568"
       style="fill:none;stroke:#231f20;stroke-width:0.5;stroke-linecap:butt;stroke-linejoin:miter;stroke-miterlimit:4;stroke-dasharray:none;stroke-opacity:1"
       id="path140719" />
    <path
       d="m 553.23,378.069 c -3.829,1.74 -7.311,0.347 -8.703,2.089 -1.394,1.741 -3.134,3.134 -4.527,3.134 -1.392,0 -3.133,-1.393 -4.526,-3.134 -1.392,-1.742 -4.874,-0.349 -8.704,-2.089 -3.829,-1.741 -1.044,-4.874 1.045,-7.312 2.089,-2.437 5.222,-5.57 6.267,-9.051 1.044,-3.482 2.785,-7.661 5.918,-7.661 3.133,0 4.874,4.179 5.919,7.661 1.044,3.481 4.178,6.614 6.267,9.051 2.089,2.438 4.874,5.571 1.044,7.312"
       style="fill:#706d6e;fill-opacity:1;fill-rule:nonzero;stroke:none;stroke-width:0.1"
       id="path140721" />
    <path
       d="m 553.23,378.069 c -3.829,1.74 -7.311,0.347 -8.703,2.089 -1.394,1.741 -3.134,3.134 -4.527,3.134 -1.392,0 -3.133,-1.393 -4.526,-3.134 -1.392,-1.742 -4.874,-0.349 -8.704,-2.089 -3.829,-1.741 -1.044,-4.874 1.045,-7.312 2.089,-2.437 5.222,-5.57 6.267,-9.051 1.044,-3.482 2.785,-7.661 5.918,-7.661 3.133,0 4.874,4.179 5.919,7.661 1.044,3.481 4.178,6.614 6.267,9.051 2.089,2.438 4.874,5.571 1.044,7.312 z"
       style="fill:none;stroke:#231f20;stroke-width:0.75;stroke-linecap:round;stroke-linejoin:round;stroke-miterlimit:4;stroke-dasharray:none;stroke-opacity:1"
       id="path140723" />
    <path
       d="m 381.24,420.892 c 0,0 -17.061,17.757 -25.069,30.639 0,0 -20.889,5.221 -35.86,26.807 -14.971,21.586 -15.19,27.604 -20.193,34.12 -11.49,14.971 -19.427,36.927 -25.415,55.707 -7.661,24.022 -9.401,50.134 -12.186,61.972 -2.785,11.838 -7.311,28.201 -8.704,37.253 -1.393,9.053 -2.089,26.112 -3.481,26.46 -1.393,0.349 -9.401,-9.399 -11.142,-18.103 -1.74,-8.705 -2.438,-30.987 -2.089,-48.047 0.349,-17.06 -3.134,-30.287 -13.23,-47.348 -10.097,-17.062 -14.622,-50.138 -9.052,-69.635 5.57,-19.496 16.712,-45.608 30.638,-61.275 13.926,-15.668 30.29,-27.157 52.92,-31.335 22.63,-4.178 34.767,-3.392 50.831,-2.785 18.453,0.696 32.032,5.57 32.032,5.57"
       style="fill:#706d6e;fill-opacity:1;fill-rule:nonzero;stroke:none;stroke-width:0.1"
       id="path140725" />
    <path
       d="m 381.24,420.892 c 0,0 -17.061,17.757 -25.069,30.639 0,0 -20.889,5.221 -35.86,26.807 -14.971,21.586 -15.19,27.604 -20.193,34.12 -11.49,14.971 -19.427,36.927 -25.415,55.707 -7.661,24.022 -9.401,50.134 -12.186,61.972 -2.785,11.838 -7.311,28.201 -8.704,37.253 -1.393,9.053 -2.089,26.112 -3.481,26.46 -1.393,0.349 -9.401,-9.399 -11.142,-18.103 -1.74,-8.705 -2.438,-30.987 -2.089,-48.047 0.349,-17.06 -3.134,-30.287 -13.23,-47.348 -10.097,-17.062 -14.622,-50.138 -9.052,-69.635 5.57,-19.496 16.712,-45.608 30.638,-61.275 13.926,-15.668 30.29,-27.157 52.92,-31.335 22.63,-4.178 34.767,-3.392 50.831,-2.785 18.453,0.696 32.032,5.57 32.032,5.57 z"
       style="fill:none;stroke:#231f20;stroke-width:0.75;stroke-linecap:round;stroke-linejoin:round;stroke-miterlimit:4;stroke-dasharray:none;stroke-opacity:1"
       id="path140727" />
    <path
       d="m 400.04,402.557 c 0,0 -15.108,14.381 -18.8,18.335"
       style="fill:none;stroke:#231f20;stroke-width:0.75;stroke-linecap:round;stroke-linejoin:round;stroke-miterlimit:4;stroke-dasharray:none;stroke-opacity:1"
       id="path140729" />
    <path
       d="m 212.62,524.312 c -11.948,-35.496 -5.809,-48.759 -2.328,-61.988 3.482,-13.231 14.624,-35.164 17.061,-39.691 2.437,-4.526 1.393,-9.749 -0.349,-12.534 -1.741,-2.785 -0.347,-7.31 -0.347,-7.31 0,0 -1.045,-0.697 -3.134,0 -2.089,0.696 -7.659,6.962 -5.223,14.274 2.438,7.311 -0.696,14.622 -6.963,31.334 -6.266,16.712 -12.534,40.734 -9.4,57.099 3.134,16.363 -1.393,31.334 -3.481,68.239 -2.089,36.905 -1.045,58.143 19.497,105.144 20.541,47.002 34.815,61.625 64.061,87.04 29.245,25.416 77.64,41.083 99.226,45.61 21.586,4.526 73.461,10.444 83.557,11.837 10.097,1.392 13.579,-11.141 17.061,-20.541 3.481,-9.401 9.748,-21.935 22.282,-35.513 7.56,-8.19 26.808,-12.882 35.86,-12.882 9.052,0 28.3,4.692 35.861,12.882 12.534,13.578 18.801,26.112 22.282,35.513 3.481,9.4 6.963,21.933 17.06,20.541 10.096,-1.393 61.972,-7.311 83.558,-11.837 21.586,-4.527 69.981,-20.194 99.226,-45.61 29.245,-25.415 43.52,-40.038 64.061,-87.04 20.541,-47.001 21.586,-68.239 19.497,-105.144 -2.088,-36.905 -6.615,-51.876 -3.481,-68.239 3.133,-16.365 -3.134,-40.387 -9.4,-57.099 -6.267,-16.712 -9.401,-24.023 -6.964,-31.334 2.437,-7.312 -3.133,-13.578 -5.222,-14.274 -2.089,-0.697 -3.134,0 -3.134,0 0,0 1.393,4.525 -0.347,7.31 -1.742,2.785 -2.787,8.008 -0.349,12.534 2.437,4.527 13.578,26.46 17.06,39.691 3.481,13.229 9.621,26.492 -2.327,61.988"
       style="fill:none;stroke:#231f20;stroke-width:0.5;stroke-linecap:butt;stroke-linejoin:miter;stroke-miterlimit:4;stroke-dasharray:none;stroke-opacity:1"
       id="path140731" />
    <path
       d="m 512.505,761.412 c -19.158,11.123 -28.907,20.523 -37.262,29.923 -8.357,9.401 -15.667,17.409 -27.505,18.105 -11.837,0.696 -31.334,1.74 -41.78,1.392"
       style="fill:none;stroke:#231f20;stroke-width:0.5;stroke-linecap:butt;stroke-linejoin:miter;stroke-miterlimit:4;stroke-dasharray:none;stroke-opacity:1"
       id="path140733" />
    <path
       d="m 247.461,691.536 c 2.702,9.522 6.7,19.375 15.404,31.908 8.704,12.534 29.942,31.335 42.475,42.475 12.535,11.142 29.245,18.801 37.602,21.935 8.355,3.133 20.89,6.267 30.29,9.748 9.4,3.481 30.638,5.57 45.261,5.919 14.622,0.349 24.718,-3.481 30.986,-8.008 6.267,-4.526 19.148,-23.675 24.022,-32.03 4.875,-8.357 16.016,-15.319 27.505,-22.631 11.49,-7.312 34.468,-11.141 38.994,-11.141 4.527,0 27.505,3.829 38.995,11.141 11.489,7.312 22.629,14.274 27.504,22.631 4.875,8.355 17.756,27.504 24.023,32.03 6.267,4.527 16.363,8.357 30.986,8.008 14.623,-0.349 35.861,-2.438 45.261,-5.919 9.4,-3.481 21.934,-6.615 30.29,-9.748 8.356,-3.134 25.067,-10.793 37.602,-21.935 12.533,-11.14 33.771,-29.941 42.474,-42.475 8.704,-12.533 12.703,-22.386 15.404,-31.908"
       style="fill:none;stroke:#231f20;stroke-width:0.5;stroke-linecap:butt;stroke-linejoin:miter;stroke-miterlimit:4;stroke-dasharray:none;stroke-opacity:1"
       id="path140735" />
    <path
       d="m 532.66,730.581 c -7.63,-1.566 -23.271,-3.834 -30.944,9.834"
       style="fill:none;stroke:#231f20;stroke-width:0.5;stroke-linecap:butt;stroke-linejoin:miter;stroke-miterlimit:4;stroke-dasharray:none;stroke-opacity:1"
       id="path140737" />
    <path
       d="m 372.024,416.339 c -7.148,-1.713 -21.423,-4.499 -31.52,-4.151 -10.096,0.349 -23.326,0.349 -27.504,-0.696 -4.178,-1.044 -16.364,-2.437 -27.853,1.741 -11.489,4.178 -16.363,9.052 -19.497,12.185 -3.133,3.134 -13.76,11.272 -18.195,21.826"
       style="fill:none;stroke:#231f20;stroke-width:0.5;stroke-linecap:butt;stroke-linejoin:miter;stroke-miterlimit:4;stroke-dasharray:none;stroke-opacity:1"
       id="path140739" />
    <path
       d="m 418.608,398.844 c 4.41,0.114 14.95,10.448 6.5,25.878 -8.008,14.623 -37.254,41.083 -50.832,55.01 -13.578,13.926 -26.46,26.808 -34.468,35.512 -8.008,8.704 -18.452,20.193 -22.63,24.023 -4.178,3.829 -8.704,9.748 -10.096,14.622 -1.393,4.875 -3.134,9.749 -4.875,10.445 -1.741,0.697 -3.83,-4.526 -2.437,-11.489 1.393,-6.963 3.134,-24.371 11.141,-38.298 8.007,-13.926 31.574,-48.059 32.499,-57.452"
       style="fill:none;stroke:#231f20;stroke-width:0.5;stroke-linecap:butt;stroke-linejoin:miter;stroke-miterlimit:4;stroke-dasharray:none;stroke-opacity:1"
       id="path140741" />
    <path
       d="m 356.171,451.531 c -3.132,6.266 -10.096,18.801 -16.014,26.46 -5.919,7.659 -26.069,33.633 -31.139,40.144"
       style="fill:none;stroke:#231f20;stroke-width:0.5;stroke-linecap:butt;stroke-linejoin:miter;stroke-miterlimit:4;stroke-dasharray:none;stroke-opacity:1"
       id="path140743" />
    <path
       d="m 303.345,507.285 c -4.968,12.485 -14.368,30.589 -14.02,57.049 0.348,26.46 0,40.039 5.222,60.232 5.223,20.194 10.097,35.861 23.675,45.958 13.578,10.097 16.363,12.534 24.72,15.667 8.355,3.134 14.971,5.223 25.764,2.785 10.793,-2.436 17.059,2.438 25.763,1.393 8.704,-1.044 38.646,-10.097 51.18,-16.364"
       style="fill:none;stroke:#231f20;stroke-width:0.75;stroke-linecap:round;stroke-linejoin:round;stroke-miterlimit:4;stroke-dasharray:none;stroke-opacity:1"
       id="path140745" />
    <path
       d="m 482.902,662.516 c 6.266,-0.348 23.717,2.879 30.29,7.659 7.659,5.572 10.793,11.49 10.793,11.49"
       style="fill:none;stroke:#231f20;stroke-width:0.75;stroke-linecap:round;stroke-linejoin:round;stroke-miterlimit:4;stroke-dasharray:none;stroke-opacity:1"
       id="path140747" />
    <path
       d="m 556.016,681.665 c -3.476,3.887 -10.445,13.23 -10.445,13.23 0,0 0.348,-5.919 -5.571,-5.919 -5.918,0 -5.57,5.919 -5.57,5.919 0,0 -6.969,-9.343 -10.445,-13.23 0,0 -0.348,-11.837 -1.74,-18.104 0,0 0.347,-1.741 3.132,-3.134 2.786,-1.392 9.749,-8.008 9.749,-14.274 0,-6.267 -1.044,-8.008 -2.437,-11.838 -1.393,-3.829 -1.393,-5.918 0.348,-8.357 1.741,-2.436 6.963,-6.962 6.963,-6.962 0,0 5.223,4.526 6.963,6.962 1.742,2.439 1.742,4.528 0.349,8.357 -1.393,3.83 -2.438,5.571 -2.438,11.838 0,6.266 6.963,12.882 9.749,14.274 2.786,1.393 3.133,3.134 3.133,3.134 -1.392,6.267 -1.74,18.104 -1.74,18.104"
       style="fill:#706d6e;fill-opacity:1;fill-rule:nonzero;stroke:none;stroke-width:0.1"
       id="path140749" />
    <path
       d="m 556.016,681.665 c -3.476,3.887 -10.445,13.23 -10.445,13.23 0,0 0.348,-5.919 -5.571,-5.919 -5.918,0 -5.57,5.919 -5.57,5.919 0,0 -6.969,-9.343 -10.445,-13.23 0,0 -0.348,-11.837 -1.74,-18.104 0,0 0.347,-1.741 3.132,-3.134 2.786,-1.392 9.749,-8.008 9.749,-14.274 0,-6.267 -1.044,-8.008 -2.437,-11.838 -1.393,-3.829 -1.393,-5.918 0.348,-8.357 1.741,-2.436 6.963,-6.962 6.963,-6.962 0,0 5.223,4.526 6.963,6.962 1.742,2.439 1.742,4.528 0.349,8.357 -1.393,3.83 -2.438,5.571 -2.438,11.838 0,6.266 6.963,12.882 9.749,14.274 2.786,1.393 3.133,3.134 3.133,3.134 -1.392,6.267 -1.74,18.104 -1.74,18.104 z"
       style="fill:none;stroke:#231f20;stroke-width:0.75;stroke-linecap:round;stroke-linejoin:round;stroke-miterlimit:4;stroke-dasharray:none;stroke-opacity:1"
       id="path140751" />
    <path
       d="m 522.245,663.561 c -10.446,-6.615 -24.372,-7.66 -39.343,-1.045"
       style="fill:none;stroke:#231f20;stroke-width:0.5;stroke-linecap:butt;stroke-linejoin:miter;stroke-miterlimit:4;stroke-dasharray:none;stroke-opacity:1"
       id="path140753" />
    <path
       d="m 479.12,756.582 c 7.355,-9.787 18.405,-19.908 26.76,-24.782 5.261,-3.069 16.016,-7.66 22.289,-8.008 3.495,-0.194 11.831,0 11.831,0 0,0 8.337,-0.194 11.831,0 6.274,0.348 17.029,4.939 22.289,8.008 8.356,4.874 19.406,14.995 26.76,24.782"
       style="fill:none;stroke:#231f20;stroke-width:0.5;stroke-linecap:butt;stroke-linejoin:miter;stroke-miterlimit:4;stroke-dasharray:none;stroke-opacity:1"
       id="path140755" />
    <path
       d="m 524.714,724.297 c -5.256,0.192 -17.789,0.888 -22.663,1.932 -4.875,1.045 -8.008,1.045 -11.489,7.66 -3.482,6.615 -9.4,12.186 -13.23,16.712 -3.831,4.525 -18.801,26.808 -25.068,34.119 -6.266,7.312 -14.971,14.275 -33.771,14.275 -18.801,0 -33.424,-2.089 -54.314,-9.052 -20.889,-6.963 -40.038,-12.186 -61.972,-30.986 -21.934,-18.801 -43.52,-45.957 -43.52,-63.713 0,-17.757 0.696,-20.194 5.223,-28.898 4.525,-8.704 7.659,-16.015 17.756,-11.489 10.096,4.525 34.12,18.104 41.43,23.326 7.312,5.223 27.505,19.497 37.254,17.757 0,0 -0.696,-3.441 -0.696,-5.898"
       style="fill:none;stroke:#231f20;stroke-width:0.5;stroke-linecap:butt;stroke-linejoin:miter;stroke-miterlimit:4;stroke-dasharray:none;stroke-opacity:1"
       id="path140757" />
    <path
       d="m 459.923,506.192 c 7.745,3.225 11.49,10.097 11.49,10.097 0,0 -3.96,-0.958 -11.49,-1.393 -7.528,-0.436 -18.626,-0.349 -33.075,4.178 -28.897,9.051 -35.512,16.363 -46.305,18.8 -10.793,2.437 -25.416,5.222 -30.986,8.008 0,0 6.267,-10.096 26.46,-19.149 20.193,-9.052 50.483,-19.845 67.543,-21.237 6.072,-0.496 12.084,-1.086 16.363,0.696 z"
       style="fill:none;stroke:#231f20;stroke-width:0.5;stroke-linecap:butt;stroke-linejoin:miter;stroke-miterlimit:4;stroke-dasharray:none;stroke-opacity:1"
       id="path140759" />
    <path
       d="m 363.538,533.434 c 0,0 -35.578,8.947 -48.803,16.616"
       style="fill:none;stroke:#231f20;stroke-width:0.5;stroke-linecap:butt;stroke-linejoin:miter;stroke-miterlimit:4;stroke-dasharray:none;stroke-opacity:1"
       id="path140761" />
    <path
       d="m 349.557,545.882 c -6.964,7.311 -16.015,16.711 -18.104,29.245 -2.089,12.534 2.089,30.987 7.311,38.646 5.222,7.66 11.837,16.713 9.401,19.846 -2.438,3.133 -8.008,2.089 -12.883,-1.044 0,0 -8.703,-12.535 -13.578,-19.846 -4.874,-7.312 -18.159,-33.035 -20.916,-49.07"
       style="fill:none;stroke:#231f20;stroke-width:0.5;stroke-linecap:butt;stroke-linejoin:miter;stroke-miterlimit:4;stroke-dasharray:none;stroke-opacity:1"
       id="path140763" />
    <path
       d="m 474.198,408.01 c -5.532,-4.066 -9.401,-8.355 -6.267,-13.578 3.134,-5.223 9.748,-3.83 14.971,1.045 5.223,4.874 6.615,9.052 4.874,11.837 -1.74,2.785 -9.548,3.661 -13.578,0.696 z"
       style="fill:none;stroke:#231f20;stroke-width:0.5;stroke-linecap:butt;stroke-linejoin:miter;stroke-miterlimit:4;stroke-dasharray:none;stroke-opacity:1"
       id="path140765" />
    <path
       d="m 488.103,406.68 c 3.155,5.394 14.065,26.05 15.225,33.013 1.16,6.964 3.249,18.339 -2.322,20.889 -5.57,2.555 -10.677,0.697 -12.997,-3.247 -2.011,-3.419 -3.778,-8.271 -1.858,-12.302 2.321,-4.875 6.732,-3.251 6.267,-6.964 -0.379,-3.029 -3.48,-15.55 -3.712,-19.031 -0.234,-3.482 -0.603,-12.358 -0.603,-12.358 z"
       style="fill:none;stroke:#231f20;stroke-width:0.5;stroke-linecap:butt;stroke-linejoin:miter;stroke-miterlimit:4;stroke-dasharray:none;stroke-opacity:1"
       id="path140767" />
    <path
       d="m 517.486,622.129 c 0,0 -6.498,-6.267 -8.82,-13.694 -2.322,-7.427 -10.212,-27.62 -17.175,-27.156 -6.964,0.464 -16.016,9.284 -13.927,44.1 0,0 0.638,-2.379 7.659,-4.643 7.557,-2.434 17.64,-2.785 21.818,-2.089 4.177,0.696 10.445,3.482 10.445,3.482 z"
       style="fill:none;stroke:#231f20;stroke-width:0.5;stroke-linecap:butt;stroke-linejoin:miter;stroke-miterlimit:4;stroke-dasharray:none;stroke-opacity:1"
       id="path140769" />
    <path
       d="m 463.753,684.798 c -5.455,9.749 -22.863,39.923 -27.737,48.511 -4.874,8.588 -12.765,21.354 -19.032,23.442 -6.267,2.089 -16.944,2.554 -28.085,-0.463 -11.142,-3.018 -51.991,-18.106 -65.454,-31.568"
       style="fill:none;stroke:#231f20;stroke-width:0.5;stroke-linecap:butt;stroke-linejoin:miter;stroke-miterlimit:4;stroke-dasharray:none;stroke-opacity:1"
       id="path140771" />
    <path
       d="m 551.373,714.74 c -0.662,0.808 -0.232,2.089 3.019,1.625 3.247,-0.464 9.747,-2.553 13.925,-8.82 4.178,-6.267 6.65,-14.881 7.891,-17.64 2.09,-4.642 9.517,-5.107 11.838,3.249 2.322,8.356 1.858,14.159 3.714,19.962 1.857,5.802 4.644,11.837 9.749,19.032 5.106,7.195 13.696,20.426 18.801,28.55 5.106,8.123 15.488,20.219 19.728,23.906 5.339,4.643 18.8,9.749 30.871,7.428 12.069,-2.322 28.085,-6.732 35.745,-10.213 7.659,-3.482 10.21,-5.57 15.55,-6.499 5.338,-0.928 16.754,-4.09 19.642,-4.961 3.301,-0.996 10.069,-2.698 21.673,-10.358 11.605,-7.66 31.8,-30.87 40.619,-45.958 8.82,-15.086 12.999,-30.172 7.659,-40.618 -5.339,-10.444 -15.086,-12.533 -25.763,-7.427 -10.677,5.106 -24.605,16.015 -30.407,19.497 -5.801,3.481 -14.39,7.891 -16.479,8.355 -2.089,0.465 -3.251,1.161 -7.196,4.875 -3.946,3.713 -7.425,8.124 -14.158,10.213 -6.732,2.089 -28.754,8.971 -33.422,9.748 -1.394,0.232 -3.716,1.624 -3.251,3.945 0.464,2.322 3.016,4.178 7.659,3.947 4.643,-0.232 23.776,-5.009 25.835,-5.789 6.73,-2.554 14.815,-9.04 16.41,-10.923 2.154,-2.543 5.338,-8.588 17.639,-14.391 9.388,-4.429 21.122,-12.997 25.299,-16.247 4.179,-3.25 10.678,-10.444 18.105,-9.98 7.428,0.463 14.159,1.856 15.552,15.783 1.392,13.926 -5.805,24.137 -12.303,31.334 -6.498,7.195 -7.659,16.944 -14.622,24.836 -6.964,7.89 -18.955,17.53 -27.388,21.586 -8.327,4.004 -19.499,7.194 -25.533,7.89 -6.034,0.697 -7.891,1.394 -17.639,5.108 -9.749,3.713 -28.084,12.069 -41.083,12.533 -12.999,0.464 -26.229,-3.249 -35.281,-15.087 -9.052,-11.837 -13.463,-22.281 -20.193,-32.263 -6.731,-9.98 -13.694,-21.122 -15.784,-27.388 -2.088,-6.267 -3.017,-21.122 -6.266,-26.693 -3.249,-5.57 -8.356,-12.998 -14.623,-4.642 -6.267,8.356 -9.981,20.658 -12.302,24.139 -2.32,3.482 -4.561,6.389 -12.842,7.605"
       style="fill:#b2b1b1;fill-opacity:1;fill-rule:nonzero;stroke:none;stroke-width:0.1"
       id="path140773" />
    <path
       d="m 551.373,714.74 c -0.662,0.808 -0.232,2.089 3.019,1.625 3.247,-0.464 9.747,-2.553 13.925,-8.82 4.178,-6.267 6.65,-14.881 7.891,-17.64 2.09,-4.642 9.517,-5.107 11.838,3.249 2.322,8.356 1.858,14.159 3.714,19.962 1.857,5.802 4.644,11.837 9.749,19.032 5.106,7.195 13.696,20.426 18.801,28.55 5.106,8.123 15.488,20.219 19.728,23.906 5.339,4.643 18.8,9.749 30.871,7.428 12.069,-2.322 28.085,-6.732 35.745,-10.213 7.659,-3.482 10.21,-5.57 15.55,-6.499 5.338,-0.928 16.754,-4.09 19.642,-4.961 3.301,-0.996 10.069,-2.698 21.673,-10.358 11.605,-7.66 31.8,-30.87 40.619,-45.958 8.82,-15.086 12.999,-30.172 7.659,-40.618 -5.339,-10.444 -15.086,-12.533 -25.763,-7.427 -10.677,5.106 -24.605,16.015 -30.407,19.497 -5.801,3.481 -14.39,7.891 -16.479,8.355 -2.089,0.465 -3.251,1.161 -7.196,4.875 -3.946,3.713 -7.425,8.124 -14.158,10.213 -6.732,2.089 -28.754,8.971 -33.422,9.748 -1.394,0.232 -3.716,1.624 -3.251,3.945 0.464,2.322 3.016,4.178 7.659,3.947 4.643,-0.232 23.776,-5.009 25.835,-5.789 6.73,-2.554 14.815,-9.04 16.41,-10.923 2.154,-2.543 5.338,-8.588 17.639,-14.391 9.388,-4.429 21.122,-12.997 25.299,-16.247 4.179,-3.25 10.678,-10.444 18.105,-9.98 7.428,0.463 14.159,1.856 15.552,15.783 1.392,13.926 -5.805,24.137 -12.303,31.334 -6.498,7.195 -7.659,16.944 -14.622,24.836 -6.964,7.89 -18.955,17.53 -27.388,21.586 -8.327,4.004 -19.499,7.194 -25.533,7.89 -6.034,0.697 -7.891,1.394 -17.639,5.108 -9.749,3.713 -28.084,12.069 -41.083,12.533 -12.999,0.464 -26.229,-3.249 -35.281,-15.087 -9.052,-11.837 -13.463,-22.281 -20.193,-32.263 -6.731,-9.98 -13.694,-21.122 -15.784,-27.388 -2.088,-6.267 -3.017,-21.122 -6.266,-26.693 -3.249,-5.57 -8.356,-12.998 -14.623,-4.642 -6.267,8.356 -9.981,20.658 -12.302,24.139 -2.32,3.482 -4.561,6.389 -12.842,7.605"
       style="fill:none;stroke:#231f20;stroke-width:0.5;stroke-linecap:round;stroke-linejoin:round;stroke-miterlimit:4;stroke-dasharray:2.8, 1.8;stroke-dashoffset:0;stroke-opacity:1"
       id="path140775" />
    <path
       d="m 744.022,715.901 c -1.425,-1.662 -6.499,4.41 -8.588,5.57 -2.09,1.16 -10.965,5.945 -16.016,6.964 -7.456,1.504 -18.336,4.178 -21.121,5.105 -2.785,0.929 -10.444,3.947 -13.925,4.178 -3.483,0.233 -11.607,2.554 -12.767,-2.785 -1.16,-5.338 -5.107,-22.281 -15.319,-31.566 0,0 16.71,8.124 30.405,6.035 13.695,-2.089 23.675,-5.804 27.853,-8.357 4.178,-2.552 5.137,-4.467 4.671,-4.931 -0.465,-0.465 -20.221,8.181 -29.969,8.878 -9.749,0.696 -15.784,1.625 -24.372,-2.554 -8.588,-4.178 -18.8,-11.14 -22.515,-13.693 -3.714,-2.554 -7.657,-3.25 -8.819,-1.161 -1.162,2.088 1.625,4.874 4.177,7.66 2.553,2.785 11.838,10.212 18.105,19.032 6.267,8.82 9.283,14.159 9.516,20.657 0.233,6.499 1.623,14.855 12.301,11.142 10.678,-3.714 13.461,-7.66 25.764,-9.517 12.303,-1.856 25.765,-6.266 31.103,-9.516 5.338,-3.25 12.301,-7.891 9.516,-11.141"
       style="fill:#b2b1b1;fill-opacity:1;fill-rule:nonzero;stroke:none;stroke-width:0.1"
       id="path140777" />
    <path
       d="m 744.022,715.901 c -1.425,-1.662 -6.499,4.41 -8.588,5.57 -2.09,1.16 -10.965,5.945 -16.016,6.964 -7.456,1.504 -18.336,4.178 -21.121,5.105 -2.785,0.929 -10.444,3.947 -13.925,4.178 -3.483,0.233 -11.607,2.554 -12.767,-2.785 -1.16,-5.338 -5.107,-22.281 -15.319,-31.566 0,0 16.71,8.124 30.405,6.035 13.695,-2.089 23.675,-5.804 27.853,-8.357 4.178,-2.552 5.137,-4.467 4.671,-4.931 -0.465,-0.465 -20.221,8.181 -29.969,8.878 -9.749,0.696 -15.784,1.625 -24.372,-2.554 -8.588,-4.178 -18.8,-11.14 -22.515,-13.693 -3.714,-2.554 -7.657,-3.25 -8.819,-1.161 -1.162,2.088 1.625,4.874 4.177,7.66 2.553,2.785 11.838,10.212 18.105,19.032 6.267,8.82 9.283,14.159 9.516,20.657 0.233,6.499 1.623,14.855 12.301,11.142 10.678,-3.714 13.461,-7.66 25.764,-9.517 12.303,-1.856 25.765,-6.266 31.103,-9.516 5.338,-3.25 12.301,-7.891 9.516,-11.141 z"
       style="fill:none;stroke:#231f20;stroke-width:0.5;stroke-linecap:round;stroke-linejoin:round;stroke-miterlimit:4;stroke-dasharray:2.8, 1.8;stroke-dashoffset:0;stroke-opacity:1"
       id="path140779" />
    <path
       d="m 528.627,714.74 c 0.662,0.808 0.232,2.089 -3.017,1.625 -3.249,-0.464 -9.748,-2.553 -13.926,-8.82 -4.179,-6.267 -6.65,-14.881 -7.892,-17.64 -2.089,-4.642 -9.516,-5.107 -11.837,3.249 -2.323,8.356 -1.859,14.159 -3.715,19.962 -1.857,5.802 -4.643,11.837 -9.748,19.032 -5.106,7.195 -13.696,20.426 -18.801,28.55 -5.106,8.123 -15.489,20.219 -19.729,23.906 -5.338,4.643 -18.799,9.749 -30.87,7.428 -12.07,-2.322 -28.086,-6.732 -35.745,-10.213 -7.659,-3.482 -10.211,-5.57 -15.55,-6.499 -5.339,-0.928 -16.754,-4.09 -19.642,-4.961 -3.301,-0.996 -10.069,-2.698 -21.673,-10.358 -11.606,-7.66 -31.8,-30.87 -40.619,-45.958 -8.821,-15.086 -12.999,-30.172 -7.66,-40.618 5.339,-10.444 15.087,-12.533 25.763,-7.427 10.678,5.106 24.606,16.015 30.408,19.497 5.801,3.481 14.39,7.891 16.479,8.355 2.089,0.465 3.25,1.161 7.195,4.875 3.946,3.713 7.426,8.124 14.159,10.213 6.731,2.089 28.753,8.971 33.422,9.748 1.393,0.232 3.716,1.624 3.251,3.945 -0.465,2.322 -3.016,4.178 -7.66,3.947 -4.642,-0.232 -23.775,-5.009 -25.834,-5.789 -6.731,-2.554 -14.816,-9.04 -16.41,-10.923 -2.154,-2.543 -5.338,-8.588 -17.64,-14.391 -9.387,-4.429 -21.122,-12.997 -25.299,-16.247 -4.178,-3.25 -10.677,-10.444 -18.105,-9.98 -7.427,0.463 -14.158,1.856 -15.552,15.783 -1.392,13.926 5.805,24.137 12.303,31.334 6.498,7.195 7.66,16.944 14.623,24.836 6.963,7.89 18.954,17.53 27.388,21.586 8.327,4.004 19.498,7.194 25.532,7.89 6.035,0.697 7.891,1.394 17.64,5.108 9.748,3.713 28.084,12.069 41.083,12.533 12.999,0.464 26.228,-3.249 35.281,-15.087 9.052,-11.837 13.462,-22.281 20.193,-32.263 6.731,-9.98 13.694,-21.122 15.783,-27.388 2.088,-6.267 3.017,-21.122 6.266,-26.693 3.249,-5.57 8.357,-12.998 14.623,-4.642 6.267,8.356 9.982,20.658 12.302,24.139 2.321,3.482 4.561,6.389 12.842,7.605"
       style="fill:#b2b1b1;fill-opacity:1;fill-rule:nonzero;stroke:none;stroke-width:0.1"
       id="path140781" />
    <path
       d="m 528.627,714.74 c 0.662,0.808 0.232,2.089 -3.017,1.625 -3.249,-0.464 -9.748,-2.553 -13.926,-8.82 -4.179,-6.267 -6.65,-14.881 -7.892,-17.64 -2.089,-4.642 -9.516,-5.107 -11.837,3.249 -2.323,8.356 -1.859,14.159 -3.715,19.962 -1.857,5.802 -4.643,11.837 -9.748,19.032 -5.106,7.195 -13.696,20.426 -18.801,28.55 -5.106,8.123 -15.489,20.219 -19.729,23.906 -5.338,4.643 -18.799,9.749 -30.87,7.428 -12.07,-2.322 -28.086,-6.732 -35.745,-10.213 -7.659,-3.482 -10.211,-5.57 -15.55,-6.499 -5.339,-0.928 -16.754,-4.09 -19.642,-4.961 -3.301,-0.996 -10.069,-2.698 -21.673,-10.358 -11.606,-7.66 -31.8,-30.87 -40.619,-45.958 -8.821,-15.086 -12.999,-30.172 -7.66,-40.618 5.339,-10.444 15.087,-12.533 25.763,-7.427 10.678,5.106 24.606,16.015 30.408,19.497 5.801,3.481 14.39,7.891 16.479,8.355 2.089,0.465 3.25,1.161 7.195,4.875 3.946,3.713 7.426,8.124 14.159,10.213 6.731,2.089 28.753,8.971 33.422,9.748 1.393,0.232 3.716,1.624 3.251,3.945 -0.465,2.322 -3.016,4.178 -7.66,3.947 -4.642,-0.232 -23.775,-5.009 -25.834,-5.789 -6.731,-2.554 -14.816,-9.04 -16.41,-10.923 -2.154,-2.543 -5.338,-8.588 -17.64,-14.391 -9.387,-4.429 -21.122,-12.997 -25.299,-16.247 -4.178,-3.25 -10.677,-10.444 -18.105,-9.98 -7.427,0.463 -14.158,1.856 -15.552,15.783 -1.392,13.926 5.805,24.137 12.303,31.334 6.498,7.195 7.66,16.944 14.623,24.836 6.963,7.89 18.954,17.53 27.388,21.586 8.327,4.004 19.498,7.194 25.532,7.89 6.035,0.697 7.891,1.394 17.64,5.108 9.748,3.713 28.084,12.069 41.083,12.533 12.999,0.464 26.228,-3.249 35.281,-15.087 9.052,-11.837 13.462,-22.281 20.193,-32.263 6.731,-9.98 13.694,-21.122 15.783,-27.388 2.088,-6.267 3.017,-21.122 6.266,-26.693 3.249,-5.57 8.357,-12.998 14.623,-4.642 6.267,8.356 9.982,20.658 12.302,24.139 2.321,3.482 4.561,6.389 12.842,7.605"
       style="fill:none;stroke:#231f20;stroke-width:0.5;stroke-linecap:round;stroke-linejoin:round;stroke-miterlimit:4;stroke-dasharray:2.8, 1.8;stroke-dashoffset:0;stroke-opacity:1"
       id="path140783" />
    <path
       d="m 335.979,715.901 c 1.425,-1.662 6.499,4.41 8.588,5.57 2.089,1.16 10.964,5.945 16.016,6.964 7.455,1.504 18.335,4.178 21.12,5.105 2.786,0.929 10.445,3.947 13.926,4.178 3.482,0.233 11.607,2.554 12.767,-2.785 1.16,-5.338 5.106,-22.281 15.319,-31.566 0,0 -16.711,8.124 -30.406,6.035 -13.695,-2.089 -23.675,-5.804 -27.852,-8.357 -4.178,-2.552 -5.137,-4.467 -4.672,-4.931 0.465,-0.465 20.221,8.181 29.97,8.878 9.748,0.696 15.783,1.625 24.371,-2.554 8.589,-4.178 18.801,-11.14 22.515,-13.693 3.714,-2.554 7.658,-3.25 8.819,-1.161 1.163,2.088 -1.625,4.874 -4.177,7.66 -2.553,2.785 -11.837,10.212 -18.105,19.032 -6.266,8.82 -9.283,14.159 -9.515,20.657 -0.233,6.499 -1.624,14.855 -12.301,11.142 -10.678,-3.714 -13.462,-7.66 -25.765,-9.517 -12.302,-1.856 -25.764,-6.266 -31.102,-9.516 -5.338,-3.25 -12.302,-7.891 -9.516,-11.141"
       style="fill:#b2b1b1;fill-opacity:1;fill-rule:nonzero;stroke:none;stroke-width:0.1"
       id="path140785" />
    <path
       d="m 335.979,715.901 c 1.425,-1.662 6.499,4.41 8.588,5.57 2.089,1.16 10.964,5.945 16.016,6.964 7.455,1.504 18.335,4.178 21.12,5.105 2.786,0.929 10.445,3.947 13.926,4.178 3.482,0.233 11.607,2.554 12.767,-2.785 1.16,-5.338 5.106,-22.281 15.319,-31.566 0,0 -16.711,8.124 -30.406,6.035 -13.695,-2.089 -23.675,-5.804 -27.852,-8.357 -4.178,-2.552 -5.137,-4.467 -4.672,-4.931 0.465,-0.465 20.221,8.181 29.97,8.878 9.748,0.696 15.783,1.625 24.371,-2.554 8.589,-4.178 18.801,-11.14 22.515,-13.693 3.714,-2.554 7.658,-3.25 8.819,-1.161 1.163,2.088 -1.625,4.874 -4.177,7.66 -2.553,2.785 -11.837,10.212 -18.105,19.032 -6.266,8.82 -9.283,14.159 -9.515,20.657 -0.233,6.499 -1.624,14.855 -12.301,11.142 -10.678,-3.714 -13.462,-7.66 -25.765,-9.517 -12.302,-1.856 -25.764,-6.266 -31.102,-9.516 -5.338,-3.25 -12.302,-7.891 -9.516,-11.141 z"
       style="fill:none;stroke:#231f20;stroke-width:0.5;stroke-linecap:round;stroke-linejoin:round;stroke-miterlimit:4;stroke-dasharray:2.8, 1.8;stroke-dashoffset:0;stroke-opacity:1"
       id="path140787" />
    <path
       d="m 549.047,379.045 c 2.79,0.416 19.745,3.914 29.024,-28.995"
       style="fill:none;stroke:#231f20;stroke-width:0.5;stroke-linecap:round;stroke-linejoin:round;stroke-miterlimit:4;stroke-dasharray:2.8, 1.8;stroke-dashoffset:0;stroke-opacity:1"
       id="path140789" />
    <path
       d="m 561.078,377.071 c 1.901,-5.965 2.945,-11.188 -0.188,-15.018 -3.134,-3.829 -6.909,-9.642 -13.899,-15.091"
       style="fill:none;stroke:#231f20;stroke-width:0.5;stroke-linecap:round;stroke-linejoin:round;stroke-miterlimit:4;stroke-dasharray:2.8, 1.8;stroke-dashoffset:0;stroke-opacity:1"
       id="path140791" />
    <path
       d="m 681.332,391.886 c 6.289,1.85 15.324,4.984 27.692,26.221"
       style="fill:none;stroke:#231f20;stroke-width:0.5;stroke-linecap:round;stroke-linejoin:round;stroke-miterlimit:4;stroke-dasharray:2.8, 1.8;stroke-dashoffset:0;stroke-opacity:1"
       id="path140793" />
    <path
       d="m 866.922,606.461 c 8.008,1.742 8.357,-33.771 6.267,-34.119 -5.162,-0.859 -13.596,32.528 -6.267,34.119 z"
       style="fill:none;stroke:#231f20;stroke-width:0.5;stroke-linecap:round;stroke-linejoin:round;stroke-miterlimit:4;stroke-dasharray:2.8, 1.8;stroke-dashoffset:0;stroke-opacity:1"
       id="path140795" />
    <path
       d="m 877.008,477.71 c 4.885,-6.682 13.43,-27.265 11.153,-42.891 -2.438,-16.712 -13.231,-35.861 -25.872,-20.917"
       style="fill:none;stroke:#231f20;stroke-width:0.5;stroke-linecap:round;stroke-linejoin:round;stroke-miterlimit:4;stroke-dasharray:2.8, 1.8;stroke-dashoffset:0;stroke-opacity:1"
       id="path140797" />
    <path
       d="m 878.824,492.627 70.505,-14.595"
       style="fill:none;stroke:#231f20;stroke-width:0.5;stroke-linecap:round;stroke-linejoin:round;stroke-miterlimit:4;stroke-dasharray:2.8, 1.8;stroke-dashoffset:0;stroke-opacity:1"
       id="path140799" />
    <path
       d="m 878.51,475.407 69.715,-16.538"
       style="fill:none;stroke:#231f20;stroke-width:0.5;stroke-linecap:round;stroke-linejoin:round;stroke-miterlimit:4;stroke-dasharray:2.8, 1.8;stroke-dashoffset:0;stroke-opacity:1"
       id="path140801" />
    <path
       d="m 877.813,531.567 70.376,-11.544"
       style="fill:none;stroke:#231f20;stroke-width:0.5;stroke-linecap:round;stroke-linejoin:round;stroke-miterlimit:4;stroke-dasharray:2.8, 1.8;stroke-dashoffset:0;stroke-opacity:1"
       id="path140803" />
    <path
       d="m 881.545,573.735 90.471,-10.249"
       style="fill:none;stroke:#231f20;stroke-width:0.5;stroke-linecap:round;stroke-linejoin:round;stroke-miterlimit:4;stroke-dasharray:2.8, 1.8;stroke-dashoffset:0;stroke-opacity:1"
       id="path140805" />
    <path
       d="m 882.047,605.774 93.377,-1.752"
       style="fill:none;stroke:#231f20;stroke-width:0.5;stroke-linecap:round;stroke-linejoin:round;stroke-miterlimit:4;stroke-dasharray:2.8, 1.8;stroke-dashoffset:0;stroke-opacity:1"
       id="path140807" />
    <path
       d="m 869.744,660.092 91.473,27.927"
       style="fill:none;stroke:#231f20;stroke-width:0.5;stroke-linecap:round;stroke-linejoin:round;stroke-miterlimit:4;stroke-dasharray:2.8, 1.8;stroke-dashoffset:0;stroke-opacity:1"
       id="path140809" />
    <path
       d="m 858.482,686.848 89.729,37.566"
       style="fill:none;stroke:#231f20;stroke-width:0.5;stroke-linecap:round;stroke-linejoin:round;stroke-miterlimit:4;stroke-dasharray:2.8, 1.8;stroke-dashoffset:0;stroke-opacity:1"
       id="path140811" />
    <path
       d="m 845.176,712.761 88.166,42.861"
       style="fill:none;stroke:#231f20;stroke-width:0.5;stroke-linecap:round;stroke-linejoin:round;stroke-miterlimit:4;stroke-dasharray:2.8, 1.8;stroke-dashoffset:0;stroke-opacity:1"
       id="path140813" />
    <path
       d="m 790.989,771.558 54.582,76.186"
       style="fill:none;stroke:#231f20;stroke-width:0.5;stroke-linecap:round;stroke-linejoin:round;stroke-miterlimit:4;stroke-dasharray:2.8, 1.8;stroke-dashoffset:0;stroke-opacity:1"
       id="path140815" />
    <path
       d="m 763.144,788.497 39.831,82.136"
       style="fill:none;stroke:#231f20;stroke-width:0.5;stroke-linecap:round;stroke-linejoin:round;stroke-miterlimit:4;stroke-dasharray:2.8, 1.8;stroke-dashoffset:0;stroke-opacity:1"
       id="path140817" />
    <path
       d="m 690.098,813.158 7.672,85.858"
       style="fill:none;stroke:#231f20;stroke-width:0.5;stroke-linecap:round;stroke-linejoin:round;stroke-miterlimit:4;stroke-dasharray:2.8, 1.8;stroke-dashoffset:0;stroke-opacity:1"
       id="path140819" />
    <path
       d="m 628.485,821.689 -8.42,80.558"
       style="fill:none;stroke:#231f20;stroke-width:0.5;stroke-linecap:round;stroke-linejoin:round;stroke-miterlimit:4;stroke-dasharray:2.8, 1.8;stroke-dashoffset:0;stroke-opacity:1"
       id="path140821" />
    <path
       d="m 606.193,819.848 -61.215,41.018"
       style="fill:none;stroke:#231f20;stroke-width:0.5;stroke-linecap:round;stroke-linejoin:round;stroke-miterlimit:4;stroke-dasharray:2.8, 1.8;stroke-dashoffset:0;stroke-opacity:1"
       id="path140823" />
    <path
       d="m 545.571,757.215 c 0,0 2.437,1.742 4.178,1.045"
       style="fill:none;stroke:#231f20;stroke-width:0.5;stroke-linecap:round;stroke-linejoin:round;stroke-miterlimit:4;stroke-dasharray:2.8, 1.8;stroke-dashoffset:0;stroke-opacity:1"
       id="path140825" />
    <path
       d="m 848.019,468.996 c 4.978,0.291 18.826,-4.417 21.486,-7.407"
       style="fill:none;stroke:#231f20;stroke-width:0.5;stroke-linecap:round;stroke-linejoin:round;stroke-miterlimit:4;stroke-dasharray:2.8, 1.8;stroke-dashoffset:0;stroke-opacity:1"
       id="path140827" />
    <path
       d="m 822.254,432.834 c 2.193,-3.934 16.065,-15.437 28.974,-15.428"
       style="fill:none;stroke:#231f20;stroke-width:0.5;stroke-linecap:round;stroke-linejoin:round;stroke-miterlimit:4;stroke-dasharray:2.8, 1.8;stroke-dashoffset:0;stroke-opacity:1"
       id="path140829" />
    <path
       d="m 836.657,331.081 c -2.113,11.475 -3.506,26.098 -5.595,32.365 -2.089,6.267 -5.919,23.675 -4.178,26.46 1.74,2.786 2.089,6.615 8.008,8.704 5.919,2.089 15.318,4.179 18.452,4.179"
       style="fill:none;stroke:#231f20;stroke-width:0.5;stroke-linecap:round;stroke-linejoin:round;stroke-miterlimit:4;stroke-dasharray:2.8, 1.8;stroke-dashoffset:0;stroke-opacity:1"
       id="path140831" />
    <path
       d="m 856.478,402.789 c 4.525,-2.438 7.312,-11.838 7.659,-19.15 0.349,-7.311 0,-14.623 -1.044,-20.889 -1.045,-6.267 1.363,-17.645 3.815,-27.1"
       style="fill:none;stroke:#231f20;stroke-width:0.5;stroke-linecap:round;stroke-linejoin:round;stroke-miterlimit:4;stroke-dasharray:2.8, 1.8;stroke-dashoffset:0;stroke-opacity:1"
       id="path140833" />
    <path
       d="m 793.707,412.841 c 1.842,-4.831 17.257,-16.635 36.358,-17.348"
       style="fill:none;stroke:#231f20;stroke-width:0.5;stroke-linecap:round;stroke-linejoin:round;stroke-miterlimit:4;stroke-dasharray:2.8, 1.8;stroke-dashoffset:0;stroke-opacity:1"
       id="path140835" />
    <path
       d="m 767,411.492 c 3.876,-0.677 3.482,-4.874 4.527,-8.703 1.044,-3.831 6.615,-11.838 11.837,-17.409 5.222,-5.571 13.23,-9.052 22.282,-8.356 9.053,0.696 17.321,4.179 21.238,12.882"
       style="fill:none;stroke:#231f20;stroke-width:0.5;stroke-linecap:round;stroke-linejoin:round;stroke-miterlimit:4;stroke-dasharray:2.8, 1.8;stroke-dashoffset:0;stroke-opacity:1"
       id="path140837" />
    <path
       d="m 691.003,396.317 c 0.099,-4.321 2.915,-16.257 12.632,-10.589 4.178,2.438 21.239,6.268 32.728,3.83 11.489,-2.437 20.541,-8.355 25.067,-14.274 4.527,-5.919 4.874,-19.497 3.482,-21.935 -1.393,-2.436 -6.267,-8.704 -17.756,-7.659 -11.49,1.044 -32.032,7.311 -36.209,11.141 -4.178,3.83 -15.667,18.453 -7.312,28.897"
       style="fill:none;stroke:#231f20;stroke-width:0.5;stroke-linecap:round;stroke-linejoin:round;stroke-miterlimit:4;stroke-dasharray:2.8, 1.8;stroke-dashoffset:0;stroke-opacity:1"
       id="path140839" />
    <path
       d="m 761.43,375.284 c 4.178,-3.134 17.422,-3.925 19.504,12.836"
       style="fill:none;stroke:#231f20;stroke-width:0.5;stroke-linecap:round;stroke-linejoin:round;stroke-miterlimit:4;stroke-dasharray:2.8, 1.8;stroke-dashoffset:0;stroke-opacity:1"
       id="path140841" />
    <path
       d="m 764.912,353.349 c 9.051,-2.436 20.193,-4.525 32.727,-3.133 12.533,1.393 22.282,6.267 26.808,7.66 4.526,1.392 9.053,4.177 14.971,2.785 5.918,-1.393 17.234,-4.54 23.587,-4.88 6.355,-0.343 16.103,3.487 24.807,10.102 8.704,6.615 17.756,15.32 24.371,28.201 6.615,12.882 8.357,20.89 9.053,28.897 0.696,8.008 1.392,14.972 4.525,19.149 3.134,4.178 5.593,14.656 5.919,16.712 0.274,1.719 1.502,3.596 2.82,3.282"
       style="fill:none;stroke:#231f20;stroke-width:0.5;stroke-linecap:round;stroke-linejoin:round;stroke-miterlimit:4;stroke-dasharray:2.8, 1.8;stroke-dashoffset:0;stroke-opacity:1"
       id="path140843" />
    <path
       d="m 936.635,461.619 c 1.397,-0.331 2.705,-2.777 1.312,-7.999 -1.393,-5.223 -4.874,-12.535 -6.963,-15.32 -2.089,-2.785 -3.83,-12.533 -4.526,-20.541 -0.697,-8.008 -4.178,-22.978 -12.534,-33.771 -8.356,-10.793 -22.72,-31.066 -49.788,-36.144 -5.918,-1.11 -23.306,4.464 -30.279,1.33 -6.973,-3.136 -16.373,-10.099 -39.7,-8.707 -23.326,1.393 -27.094,1.568 -41.4,5.31"
       style="fill:none;stroke:#231f20;stroke-width:0.5;stroke-linecap:round;stroke-linejoin:round;stroke-miterlimit:4;stroke-dasharray:2.8, 1.8;stroke-dashoffset:0;stroke-opacity:1"
       id="path140845" />
    <path
       d="m 652.066,417.071 c -3.788,6.606 -4.832,16.703 5.265,26.8 10.096,10.096 23.674,22.978 30.29,27.853 6.614,4.874 18.653,12.352 25.168,15.229"
       style="fill:none;stroke:#231f20;stroke-width:0.5;stroke-linecap:round;stroke-linejoin:round;stroke-miterlimit:4;stroke-dasharray:2.8, 1.8;stroke-dashoffset:0;stroke-opacity:1"
       id="path140847" />
    <path
       d="m 653.347,439.097 c -6.113,-0.1 -19.691,-5.323 -18.647,-16.464 0.786,-8.383 10.956,-14.465 16.721,-4.343"
       style="fill:none;stroke:#231f20;stroke-width:0.5;stroke-linecap:round;stroke-linejoin:round;stroke-miterlimit:4;stroke-dasharray:2.8, 1.8;stroke-dashoffset:0;stroke-opacity:1"
       id="path140849" />
    <path
       d="m 603.523,358.92 c -0.157,3.133 4.717,5.918 8.547,9.748 3.829,3.83 8.007,8.356 12.185,10.097 4.178,1.741 11.106,3.844 12.69,1.227"
       style="fill:none;stroke:#231f20;stroke-width:0.5;stroke-linecap:round;stroke-linejoin:round;stroke-miterlimit:4;stroke-dasharray:2.8, 1.8;stroke-dashoffset:0;stroke-opacity:1"
       id="path140851" />
    <path
       d="m 628.781,397.217 c 5.222,0 8.008,-4.177 8.008,-8.008 0,-3.829 -2.437,-5.917 -8.705,-6.266 -6.266,-0.348 -8.007,3.134 -8.007,6.615 0,3.482 4.178,7.659 8.704,7.659 z"
       style="fill:none;stroke:#231f20;stroke-width:0.5;stroke-linecap:round;stroke-linejoin:round;stroke-miterlimit:4;stroke-dasharray:2.8, 1.8;stroke-dashoffset:0;stroke-opacity:1"
       id="path140853" />
    <path
       d="m 616.283,448.065 c 0,-2.891 -2.217,-5.231 -5.152,-5.22 -3.19,0.011 -5.985,2.745 -5.985,6.105 0,3.358 2.795,5.649 5.985,5.154 2.935,-0.455 5.152,-3.145 5.152,-6.039 z"
       style="fill:none;stroke:#231f20;stroke-width:0.5;stroke-linecap:round;stroke-linejoin:round;stroke-miterlimit:4;stroke-dasharray:2.8, 1.8;stroke-dashoffset:0;stroke-opacity:1"
       id="path140855" />
    <path
       d="m 772.919,553.889 c -10.096,-4.525 -16.015,-9.052 -28.897,-17.407 -12.882,-8.357 -37.253,-26.112 -55.009,-36.558 -17.757,-10.444 -43.52,-24.022 -56.75,-30.985"
       style="fill:none;stroke:#231f20;stroke-width:0.5;stroke-linecap:round;stroke-linejoin:round;stroke-miterlimit:4;stroke-dasharray:2.8, 1.8;stroke-dashoffset:0;stroke-opacity:1"
       id="path140857" />
    <path
       d="m 634.721,484.094 c -2.806,-5.058 -3.851,-13.762 -1.065,-18.638 2.785,-4.874 12.102,-8.108 29.593,-0.696 20.542,8.704 36.939,20.14 49.439,29.246 10.96,7.986 21.068,20.743 25.331,18.902"
       style="fill:none;stroke:#231f20;stroke-width:0.5;stroke-linecap:round;stroke-linejoin:round;stroke-miterlimit:4;stroke-dasharray:2.8, 1.8;stroke-dashoffset:0;stroke-opacity:1"
       id="path140859" />
    <path
       d="m 560.645,528.422 c 1.289,-7.956 0.593,-14.571 -0.451,-16.66 -1.045,-2.089 -1.045,-8.304 2.436,-9.348"
       style="fill:none;stroke:#231f20;stroke-width:0.5;stroke-linecap:round;stroke-linejoin:round;stroke-miterlimit:4;stroke-dasharray:2.8, 1.8;stroke-dashoffset:0;stroke-opacity:1"
       id="path140861" />
    <path
       d="m 553.579,524.993 c 3.83,0 6.615,-18.453 -0.349,-18.453 -5.222,0 -2.436,18.453 0.349,18.453 z"
       style="fill:none;stroke:#231f20;stroke-width:0.5;stroke-linecap:round;stroke-linejoin:round;stroke-miterlimit:4;stroke-dasharray:2.8, 1.8;stroke-dashoffset:0;stroke-opacity:1"
       id="path140863" />
    <path
       d="m 561.573,528.087 c -2.075,4.216 -3.589,9.722 5.932,13.617 7.66,3.133 24.681,-2.787 37.253,-2.437 4.83,0.136 8.085,0.84 11.837,0.929 7.193,0.17 13.463,0.464 19.15,0.115 8.369,-0.511 33.575,-3.057 40.717,-12.495"
       style="fill:none;stroke:#231f20;stroke-width:0.5;stroke-linecap:round;stroke-linejoin:round;stroke-miterlimit:4;stroke-dasharray:2.8, 1.8;stroke-dashoffset:0;stroke-opacity:1"
       id="path140865" />
    <path
       d="m 639.053,540.064 c 10.115,2.733 24.978,12.529 39.515,29.144 9.749,11.144 12.466,19.174 14.971,26.113 4.526,12.533 20.389,44.933 37.797,36.926"
       style="fill:none;stroke:#231f20;stroke-width:0.5;stroke-linecap:round;stroke-linejoin:round;stroke-miterlimit:4;stroke-dasharray:2.8, 1.8;stroke-dashoffset:0;stroke-opacity:1"
       id="path140867" />
    <path
       d="m 737.75,618.878 c -2.78,-3.364 -2.446,-15.735 -4.172,-24.95 -3.134,-16.712 -9.378,-38.401 -22.981,-53.611"
       style="fill:none;stroke:#231f20;stroke-width:0.5;stroke-linecap:round;stroke-linejoin:round;stroke-miterlimit:4;stroke-dasharray:2.8, 1.8;stroke-dashoffset:0;stroke-opacity:1"
       id="path140869" />
    <path
       d="m 561.586,416.946 c -9.052,11.14 -17.408,34.236 -16.363,58.26 1.044,24.022 15.667,27.852 20.889,27.504 5.222,-0.348 20.542,-9.4 17.757,-22.63 -2.785,-13.231 -11.142,-16.016 -11.838,-25.068 -0.697,-9.052 1.392,-18.104 4.177,-24.72 2.787,-6.615 1.502,-10.703 1.154,-12.095"
       style="fill:none;stroke:#231f20;stroke-width:0.5;stroke-linecap:round;stroke-linejoin:round;stroke-miterlimit:4;stroke-dasharray:2.8, 1.8;stroke-dashoffset:0;stroke-opacity:1"
       id="path140871" />
    <path
       d="m 570.214,501.497 c 2.84,-1.494 7.039,1.91 12.262,5.739 5.222,3.83 9.536,7.839 14.343,10.883"
       style="fill:none;stroke:#231f20;stroke-width:0.5;stroke-linecap:round;stroke-linejoin:round;stroke-miterlimit:4;stroke-dasharray:2.8, 1.8;stroke-dashoffset:0;stroke-opacity:1"
       id="path140873" />
    <path
       d="m 741.584,546.579 c 3.711,-2.473 14.276,2.436 19.846,16.711 5.57,14.275 5.57,28.897 -2.785,26.808 -2.34,-0.585 -0.914,-8.451 -4.874,-18.104 -5.571,-13.578 -16.364,-22.63 -12.187,-25.415 z"
       style="fill:none;stroke:#231f20;stroke-width:0.5;stroke-linecap:round;stroke-linejoin:round;stroke-miterlimit:4;stroke-dasharray:2.8, 1.8;stroke-dashoffset:0;stroke-opacity:1"
       id="path140875" />
    <path
       d="m 634.998,617.219 c 6.962,7.312 28.947,24.06 49.836,27.889"
       style="fill:none;stroke:#231f20;stroke-width:0.5;stroke-linecap:round;stroke-linejoin:round;stroke-miterlimit:4;stroke-dasharray:2.8, 1.8;stroke-dashoffset:0;stroke-opacity:1"
       id="path140877" />
    <path
       d="m 668.353,686.25 c 1.511,-10.156 8.475,-25.475 11.956,-32.786 3.482,-7.311 4.525,-10.445 11.141,-10.793 6.615,-0.348 31.335,-3.133 40.386,-9.052"
       style="fill:none;stroke:#231f20;stroke-width:0.5;stroke-linecap:round;stroke-linejoin:round;stroke-miterlimit:4;stroke-dasharray:2.8, 1.8;stroke-dashoffset:0;stroke-opacity:1"
       id="path140879" />
    <path
       d="m 708.436,688.481 c 1.393,-12.186 20.958,-42.735 27.924,-52.977"
       style="fill:none;stroke:#231f20;stroke-width:0.5;stroke-linecap:round;stroke-linejoin:round;stroke-miterlimit:4;stroke-dasharray:2.8, 1.8;stroke-dashoffset:0;stroke-opacity:1"
       id="path140881" />
    <path
       d="m 580.039,389.906 c 6.963,-4.526 14.042,-5.685 21.47,-5.453 6.302,0.196 15.55,1.392 15.986,-2.234 0.171,-1.425 -0.203,-4.264 -13.085,-11.809 -12.495,-7.318 -17.42,-9.33 -26.418,-2.462 -5.961,4.55 -8.398,12.862 -8.746,20.522"
       style="fill:none;stroke:#231f20;stroke-width:0.5;stroke-linecap:round;stroke-linejoin:round;stroke-miterlimit:4;stroke-dasharray:2.8, 1.8;stroke-dashoffset:0;stroke-opacity:1"
       id="path140883" />
    <path
       d="m 540,402.789 c 0,-7.312 5.223,-16.712 14.275,-16.016 9.052,0.696 24.72,3.133 28.897,3.481 4.178,0.348 8.588,0.697 8.42,4.162 -0.204,4.189 -0.064,12.898 -3.894,17.424 -3.829,4.527 -4.893,6.977 -14.622,6.267 -8.326,-0.607 -14.971,-1.74 -20.89,-2.089 C 546.267,415.67 540,415.322 540,402.789 Z"
       style="fill:none;stroke:#231f20;stroke-width:0.5;stroke-linecap:round;stroke-linejoin:round;stroke-miterlimit:4;stroke-dasharray:2.8, 1.8;stroke-dashoffset:0;stroke-opacity:1"
       id="path140885" />
    <path
       d="m 592.431,442.965 c 2.346,-3.734 4.352,-10.578 -2.105,-18.183"
       style="fill:none;stroke:#231f20;stroke-width:0.5;stroke-linecap:round;stroke-linejoin:round;stroke-miterlimit:4;stroke-dasharray:2.8, 1.8;stroke-dashoffset:0;stroke-opacity:1"
       id="path140887" />
    <path
       d="m 583.226,423.24 c -1.446,-1.882 -5.864,-5.043 -5.864,-5.043"
       style="fill:none;stroke:#231f20;stroke-width:0.5;stroke-linecap:round;stroke-linejoin:round;stroke-miterlimit:4;stroke-dasharray:2.8, 1.8;stroke-dashoffset:0;stroke-opacity:1"
       id="path140889" />
    <path
       d="m 572.21,456.413 c 0,0 2.616,2.277 5.9,3.642"
       style="fill:none;stroke:#231f20;stroke-width:0.5;stroke-linecap:round;stroke-linejoin:round;stroke-miterlimit:4;stroke-dasharray:2.8, 1.8;stroke-dashoffset:0;stroke-opacity:1"
       id="path140891" />
    <path
       d="m 601.745,661.911 c 2.549,-7.983 8.932,-26.638 0.692,-36.532"
       style="fill:none;stroke:#231f20;stroke-width:0.5;stroke-linecap:round;stroke-linejoin:round;stroke-miterlimit:4;stroke-dasharray:2.8, 1.8;stroke-dashoffset:0;stroke-opacity:1"
       id="path140893" />
    <path
       d="m 584.509,658.664 c 0,0 -0.177,-12.86 -0.873,-20.288 -0.696,-7.426 -1.59,-15.477 -0.678,-19.691"
       style="fill:none;stroke:#231f20;stroke-width:0.5;stroke-linecap:round;stroke-linejoin:round;stroke-miterlimit:4;stroke-dasharray:2.8, 1.8;stroke-dashoffset:0;stroke-opacity:1"
       id="path140895" />
    <path
       d="m 547.137,634.788 c 4.47,-2.213 8.183,-6.623 10.04,-8.712 1.855,-2.089 5.337,-3.947 5.337,-3.947"
       style="fill:none;stroke:#231f20;stroke-width:0.5;stroke-linecap:round;stroke-linejoin:round;stroke-miterlimit:4;stroke-dasharray:2.8, 1.8;stroke-dashoffset:0;stroke-opacity:1"
       id="path140897" />
    <path
       d="m 572.495,658.341 c -3.946,-1.164 -6.498,-3.02 -6.731,-10.448 -0.232,-7.428 -1.161,-11.605 -3.25,-15.551 -1.412,-2.666 -4.36,-4.362 -8.332,-2.994"
       style="fill:none;stroke:#231f20;stroke-width:0.5;stroke-linecap:round;stroke-linejoin:round;stroke-miterlimit:4;stroke-dasharray:2.8, 1.8;stroke-dashoffset:0;stroke-opacity:1"
       id="path140899" />
    <path
       d="m 556.641,626.682 c -3.411,-0.606 -12.928,-7.801 -11.767,-14.533 1.162,-6.732 12.301,-20.658 14.854,-19.033 2.555,1.626 6.991,5.299 6.861,24.235"
       style="fill:none;stroke:#231f20;stroke-width:0.5;stroke-linecap:round;stroke-linejoin:round;stroke-miterlimit:4;stroke-dasharray:2.8, 1.8;stroke-dashoffset:0;stroke-opacity:1"
       id="path140901" />
    <path
       d="m 559.728,593.116 c -0.696,-5.571 0.466,-11.141 4.644,-16.015 4.177,-4.875 13.231,-11.142 18.336,-8.589 5.106,2.554 5.338,6.501 5.802,12.767"
       style="fill:none;stroke:#231f20;stroke-width:0.5;stroke-linecap:round;stroke-linejoin:round;stroke-miterlimit:4;stroke-dasharray:2.8, 1.8;stroke-dashoffset:0;stroke-opacity:1"
       id="path140903" />
    <path
       d="m 609.084,662.641 c -0.7,-0.157 -0.612,-6.855 1.941,-10.802 2.553,-3.946 12.303,-23.674 14.855,-30.406 2.553,-6.731 5.57,-19.265 7.195,-26.925 1.625,-7.659 5.572,-25.531 2.553,-33.886 -3.017,-8.356 -9.051,-19.034 -19.033,-19.73 0,0 15.319,-1.392 24.139,17.176 8.821,18.569 4.411,36.44 0.929,46.189 -3.482,9.748 -16.479,27.853 -19.96,35.512 -3.482,7.66 -10.9,23.317 -11.489,23.16"
       style="fill:none;stroke:#231f20;stroke-width:0.5;stroke-linecap:round;stroke-linejoin:round;stroke-miterlimit:4;stroke-dasharray:2.8, 1.8;stroke-dashoffset:0;stroke-opacity:1"
       id="path140905" />
    <path
       d="m 616.595,540.892 c -3.714,-0.464 -13.699,-1.447 -10.444,9.285 3.561,11.747 31.482,26.079 29.784,11.415"
       style="fill:none;stroke:#231f20;stroke-width:0.5;stroke-linecap:round;stroke-linejoin:round;stroke-miterlimit:4;stroke-dasharray:2.8, 1.8;stroke-dashoffset:0;stroke-opacity:1"
       id="path140907" />
    <path
       d="m 758.296,612.729 c 7.544,-10.793 13.147,-18.865 16.597,-19.381 1.943,-0.291 6.17,-0.056 8.508,2.797 1.571,1.917 2.359,5.116 1.24,10.434 -2.785,13.23 -7.427,29.245 -8.355,32.494 -0.929,3.25 -2.089,13.231 -6.964,18.337 -4.874,5.106 -10.677,12.534 -18.337,18.337 -7.659,5.801 -14.621,9.98 -22.049,11.373 -7.429,1.392 -15.088,1.624 -16.248,0.696 -1.16,-0.929 1.625,-8.588 5.57,-15.551 3.946,-6.964 8.82,-13.927 13.694,-20.193 4.875,-6.268 10.092,-15.635 12.766,-19.497"
       style="fill:none;stroke:#231f20;stroke-width:0.5;stroke-linecap:round;stroke-linejoin:round;stroke-miterlimit:4;stroke-dasharray:2.8, 1.8;stroke-dashoffset:0;stroke-opacity:1"
       id="path140909" />
    <path
       d="m 742.557,635.924 c 2.639,-4.037 6.805,-7.991 10.054,-7.063 3.249,0.929 21.624,9.81 23.48,10.971"
       style="fill:none;stroke:#231f20;stroke-width:0.5;stroke-linecap:round;stroke-linejoin:round;stroke-miterlimit:4;stroke-dasharray:2.8, 1.8;stroke-dashoffset:0;stroke-opacity:1"
       id="path140911" />
    <path
       d="m 752.83,620.801 c -0.453,3.186 10.595,10.023 24.104,16.004"
       style="fill:none;stroke:#231f20;stroke-width:0.5;stroke-linecap:round;stroke-linejoin:round;stroke-miterlimit:4;stroke-dasharray:2.8, 1.8;stroke-dashoffset:0;stroke-opacity:1"
       id="path140913" />
    <path
       d="m 547.698,705.573 c 1.586,-5.92 10.871,-25.417 22.708,-32.38 11.838,-6.963 22.573,-8.865 30.175,0.929 12.069,15.55 15.549,26.923 26.923,51.991 11.373,25.068 20.194,36.441 31.567,40.619 11.374,4.179 27.62,-0.465 42.939,-5.803 15.32,-5.338 36.673,-13.927 48.046,-21.817 11.374,-7.892 26.926,-25.301 29.479,-28.318 2.552,-3.017 6.73,-10.444 3.249,-14.39 -3.482,-3.946 -27.598,13.789 -39.667,24.234"
       style="fill:none;stroke:#231f20;stroke-width:0.5;stroke-linecap:round;stroke-linejoin:round;stroke-miterlimit:4;stroke-dasharray:2.8, 1.8;stroke-dashoffset:0;stroke-opacity:1"
       id="path140915" />
    <path
       d="m 756.556,724.72 11.362,-1.406"
       style="fill:none;stroke:#231f20;stroke-width:0.5;stroke-linecap:round;stroke-linejoin:round;stroke-miterlimit:4;stroke-dasharray:2.8, 1.8;stroke-dashoffset:0;stroke-opacity:1"
       id="path140917" />
    <path
       d="m 795.317,716.365 c 3.947,-9.284 8.125,-23.675 6.036,-31.567 -2.089,-7.891 -8.123,-12.534 -17.408,-6.731 -9.284,5.804 -15.088,10.678 -20.658,13.694 -5.571,3.018 -24.323,14.856 -34.768,20.426"
       style="fill:none;stroke:#231f20;stroke-width:0.5;stroke-linecap:round;stroke-linejoin:round;stroke-miterlimit:4;stroke-dasharray:2.8, 1.8;stroke-dashoffset:0;stroke-opacity:1"
       id="path140919" />
    <path
       d="m 740.423,717.254 c -7.079,1.432 -45.639,14.529 -55.604,8.909"
       style="fill:none;stroke:#231f20;stroke-width:0.5;stroke-linecap:round;stroke-linejoin:round;stroke-miterlimit:4;stroke-dasharray:2.8, 1.8;stroke-dashoffset:0;stroke-opacity:1"
       id="path140921" />
    <path
       d="m 682.527,719.484 c 9.735,-4.744 26.91,-13.332 32.017,-18.439"
       style="fill:none;stroke:#231f20;stroke-width:0.5;stroke-linecap:round;stroke-linejoin:round;stroke-miterlimit:4;stroke-dasharray:2.8, 1.8;stroke-dashoffset:0;stroke-opacity:1"
       id="path140923" />
    <path
       d="m 530.953,379.045 c -2.79,0.416 -19.743,3.914 -29.023,-28.995"
       style="fill:none;stroke:#231f20;stroke-width:0.5;stroke-linecap:round;stroke-linejoin:round;stroke-miterlimit:4;stroke-dasharray:2.8, 1.8;stroke-dashoffset:0;stroke-opacity:1"
       id="path140925" />
    <path
       d="m 518.923,377.071 c -1.901,-5.965 -2.946,-11.188 0.188,-15.018 3.134,-3.829 6.908,-9.642 13.899,-15.091"
       style="fill:none;stroke:#231f20;stroke-width:0.5;stroke-linecap:round;stroke-linejoin:round;stroke-miterlimit:4;stroke-dasharray:2.8, 1.8;stroke-dashoffset:0;stroke-opacity:1"
       id="path140927" />
    <path
       d="m 398.669,391.886 c -6.289,1.85 -15.325,4.984 -27.692,26.221"
       style="fill:none;stroke:#231f20;stroke-width:0.5;stroke-linecap:round;stroke-linejoin:round;stroke-miterlimit:4;stroke-dasharray:2.8, 1.8;stroke-dashoffset:0;stroke-opacity:1"
       id="path140929" />
    <path
       d="m 213.078,606.461 c -8.007,1.742 -8.356,-33.771 -6.267,-34.119 5.163,-0.859 13.596,32.528 6.267,34.119 z"
       style="fill:none;stroke:#231f20;stroke-width:0.5;stroke-linecap:round;stroke-linejoin:round;stroke-miterlimit:4;stroke-dasharray:2.8, 1.8;stroke-dashoffset:0;stroke-opacity:1"
       id="path140931" />
    <path
       d="m 202.993,477.71 c -4.886,-6.682 -13.431,-27.265 -11.153,-42.891 2.438,-16.712 13.231,-35.861 25.871,-20.917"
       style="fill:none;stroke:#231f20;stroke-width:0.5;stroke-linecap:round;stroke-linejoin:round;stroke-miterlimit:4;stroke-dasharray:2.8, 1.8;stroke-dashoffset:0;stroke-opacity:1"
       id="path140933" />
    <path
       d="M 201.176,492.627 130.671,478.032"
       style="fill:none;stroke:#231f20;stroke-width:0.5;stroke-linecap:round;stroke-linejoin:round;stroke-miterlimit:4;stroke-dasharray:2.8, 1.8;stroke-dashoffset:0;stroke-opacity:1"
       id="path140935" />
    <path
       d="M 201.491,475.407 131.776,458.869"
       style="fill:none;stroke:#231f20;stroke-width:0.5;stroke-linecap:round;stroke-linejoin:round;stroke-miterlimit:4;stroke-dasharray:2.8, 1.8;stroke-dashoffset:0;stroke-opacity:1"
       id="path140937" />
    <path
       d="M 202.187,531.567 131.811,520.023"
       style="fill:none;stroke:#231f20;stroke-width:0.5;stroke-linecap:round;stroke-linejoin:round;stroke-miterlimit:4;stroke-dasharray:2.8, 1.8;stroke-dashoffset:0;stroke-opacity:1"
       id="path140939" />
    <path
       d="M 198.456,573.735 107.984,563.486"
       style="fill:none;stroke:#231f20;stroke-width:0.5;stroke-linecap:round;stroke-linejoin:round;stroke-miterlimit:4;stroke-dasharray:2.8, 1.8;stroke-dashoffset:0;stroke-opacity:1"
       id="path140941" />
    <path
       d="m 197.954,605.774 -93.378,-1.752"
       style="fill:none;stroke:#231f20;stroke-width:0.5;stroke-linecap:round;stroke-linejoin:round;stroke-miterlimit:4;stroke-dasharray:2.8, 1.8;stroke-dashoffset:0;stroke-opacity:1"
       id="path140943" />
    <path
       d="m 210.257,660.092 -91.473,27.927"
       style="fill:none;stroke:#231f20;stroke-width:0.5;stroke-linecap:round;stroke-linejoin:round;stroke-miterlimit:4;stroke-dasharray:2.8, 1.8;stroke-dashoffset:0;stroke-opacity:1"
       id="path140945" />
    <path
       d="M 221.518,686.848 131.79,724.414"
       style="fill:none;stroke:#231f20;stroke-width:0.5;stroke-linecap:round;stroke-linejoin:round;stroke-miterlimit:4;stroke-dasharray:2.8, 1.8;stroke-dashoffset:0;stroke-opacity:1"
       id="path140947" />
    <path
       d="m 234.825,712.761 -88.166,42.861"
       style="fill:none;stroke:#231f20;stroke-width:0.5;stroke-linecap:round;stroke-linejoin:round;stroke-miterlimit:4;stroke-dasharray:2.8, 1.8;stroke-dashoffset:0;stroke-opacity:1"
       id="path140949" />
    <path
       d="M 289.012,771.558 234.43,847.744"
       style="fill:none;stroke:#231f20;stroke-width:0.5;stroke-linecap:round;stroke-linejoin:round;stroke-miterlimit:4;stroke-dasharray:2.8, 1.8;stroke-dashoffset:0;stroke-opacity:1"
       id="path140951" />
    <path
       d="m 316.857,788.497 -39.832,82.136"
       style="fill:none;stroke:#231f20;stroke-width:0.5;stroke-linecap:round;stroke-linejoin:round;stroke-miterlimit:4;stroke-dasharray:2.8, 1.8;stroke-dashoffset:0;stroke-opacity:1"
       id="path140953" />
    <path
       d="m 389.903,813.158 -7.672,85.858"
       style="fill:none;stroke:#231f20;stroke-width:0.5;stroke-linecap:round;stroke-linejoin:round;stroke-miterlimit:4;stroke-dasharray:2.8, 1.8;stroke-dashoffset:0;stroke-opacity:1"
       id="path140955" />
    <path
       d="m 451.516,821.689 8.42,80.558"
       style="fill:none;stroke:#231f20;stroke-width:0.5;stroke-linecap:round;stroke-linejoin:round;stroke-miterlimit:4;stroke-dasharray:2.8, 1.8;stroke-dashoffset:0;stroke-opacity:1"
       id="path140957" />
    <path
       d="m 473.808,819.848 61.215,41.018"
       style="fill:none;stroke:#231f20;stroke-width:0.5;stroke-linecap:round;stroke-linejoin:round;stroke-miterlimit:4;stroke-dasharray:2.8, 1.8;stroke-dashoffset:0;stroke-opacity:1"
       id="path140959" />
    <path
       d="m 495.312,778.015 44.688,-0.954 44.689,0.954"
       style="fill:none;stroke:#231f20;stroke-width:0.5;stroke-linecap:round;stroke-linejoin:round;stroke-miterlimit:4;stroke-dasharray:2.8, 1.8;stroke-dashoffset:0;stroke-opacity:1"
       id="path140961" />
    <path
       d="m 534.43,757.215 c 0,0 -2.437,1.742 -4.178,1.045"
       style="fill:none;stroke:#231f20;stroke-width:0.5;stroke-linecap:round;stroke-linejoin:round;stroke-miterlimit:4;stroke-dasharray:2.8, 1.8;stroke-dashoffset:0;stroke-opacity:1"
       id="path140963" />
    <path
       d="m 231.982,468.996 c -4.978,0.291 -18.826,-4.417 -21.486,-7.407"
       style="fill:none;stroke:#231f20;stroke-width:0.5;stroke-linecap:round;stroke-linejoin:round;stroke-miterlimit:4;stroke-dasharray:2.8, 1.8;stroke-dashoffset:0;stroke-opacity:1"
       id="path140965" />
    <path
       d="M 257.746,432.834 C 255.553,428.9 241.681,417.397 228.772,417.406"
       style="fill:none;stroke:#231f20;stroke-width:0.5;stroke-linecap:round;stroke-linejoin:round;stroke-miterlimit:4;stroke-dasharray:2.8, 1.8;stroke-dashoffset:0;stroke-opacity:1"
       id="path140967" />
    <path
       d="m 243.343,331.081 c 2.114,11.475 3.506,26.098 5.596,32.365 2.089,6.267 5.918,23.675 4.178,26.46 -1.741,2.786 -2.089,6.615 -8.008,8.704 -5.919,2.089 -15.319,4.179 -18.452,4.179"
       style="fill:none;stroke:#231f20;stroke-width:0.5;stroke-linecap:round;stroke-linejoin:round;stroke-miterlimit:4;stroke-dasharray:2.8, 1.8;stroke-dashoffset:0;stroke-opacity:1"
       id="path140969" />
    <path
       d="m 223.523,402.789 c -4.526,-2.438 -7.312,-11.838 -7.659,-19.15 -0.349,-7.311 0,-14.623 1.044,-20.889 1.045,-6.267 -1.363,-17.645 -3.815,-27.1"
       style="fill:none;stroke:#231f20;stroke-width:0.5;stroke-linecap:round;stroke-linejoin:round;stroke-miterlimit:4;stroke-dasharray:2.8, 1.8;stroke-dashoffset:0;stroke-opacity:1"
       id="path140971" />
    <path
       d="m 286.293,412.841 c -1.842,-4.831 -17.256,-16.635 -36.358,-17.348"
       style="fill:none;stroke:#231f20;stroke-width:0.5;stroke-linecap:round;stroke-linejoin:round;stroke-miterlimit:4;stroke-dasharray:2.8, 1.8;stroke-dashoffset:0;stroke-opacity:1"
       id="path140973" />
    <path
       d="m 313,411.492 c -3.876,-0.677 -3.482,-4.874 -4.526,-8.703 -1.045,-3.831 -6.615,-11.838 -11.838,-17.409 -5.222,-5.571 -13.229,-9.052 -22.282,-8.356 -9.052,0.696 -17.32,4.179 -21.237,12.882"
       style="fill:none;stroke:#231f20;stroke-width:0.5;stroke-linecap:round;stroke-linejoin:round;stroke-miterlimit:4;stroke-dasharray:2.8, 1.8;stroke-dashoffset:0;stroke-opacity:1"
       id="path140975" />
    <path
       d="m 388.997,396.317 c -0.098,-4.321 -2.914,-16.257 -12.632,-10.589 -4.178,2.438 -21.238,6.268 -32.727,3.83 -11.489,-2.437 -20.542,-8.355 -25.067,-14.274 -4.527,-5.919 -4.875,-19.497 -3.482,-21.935 1.393,-2.436 6.267,-8.704 17.756,-7.659 11.489,1.044 32.031,7.311 36.209,11.141 4.178,3.83 15.667,18.453 7.311,28.897"
       style="fill:none;stroke:#231f20;stroke-width:0.5;stroke-linecap:round;stroke-linejoin:round;stroke-miterlimit:4;stroke-dasharray:2.8, 1.8;stroke-dashoffset:0;stroke-opacity:1"
       id="path140977" />
    <path
       d="m 318.571,375.284 c -4.178,-3.134 -17.422,-3.925 -19.504,12.836"
       style="fill:none;stroke:#231f20;stroke-width:0.5;stroke-linecap:round;stroke-linejoin:round;stroke-miterlimit:4;stroke-dasharray:2.8, 1.8;stroke-dashoffset:0;stroke-opacity:1"
       id="path140979" />
    <path
       d="m 315.089,353.349 c -9.052,-2.436 -20.193,-4.525 -32.727,-3.133 -12.534,1.393 -22.282,6.267 -26.809,7.66 -4.525,1.392 -9.052,4.177 -14.97,2.785 -5.919,-1.393 -17.234,-4.54 -23.588,-4.88 -6.354,-0.343 -16.103,3.487 -24.807,10.102 -8.703,6.615 -17.756,15.32 -24.371,28.201 -6.614,12.882 -8.356,20.89 -9.052,28.897 -0.696,8.008 -1.392,14.972 -4.526,19.149 -3.133,4.178 -5.592,14.656 -5.919,16.712 -0.273,1.719 -1.501,3.596 -2.82,3.282"
       style="fill:none;stroke:#231f20;stroke-width:0.5;stroke-linecap:round;stroke-linejoin:round;stroke-miterlimit:4;stroke-dasharray:2.8, 1.8;stroke-dashoffset:0;stroke-opacity:1"
       id="path140981" />
    <path
       d="m 143.366,461.619 c -1.397,-0.331 -2.705,-2.777 -1.313,-7.999 1.393,-5.223 4.874,-12.535 6.963,-15.32 2.09,-2.785 3.83,-12.533 4.526,-20.541 0.697,-8.008 4.178,-22.978 12.535,-33.771 8.355,-10.793 22.719,-31.066 49.788,-36.144 5.917,-1.11 23.306,4.464 30.279,1.33 6.973,-3.136 16.373,-10.099 39.699,-8.707 23.327,1.393 27.094,1.568 41.401,5.31"
       style="fill:none;stroke:#231f20;stroke-width:0.5;stroke-linecap:round;stroke-linejoin:round;stroke-miterlimit:4;stroke-dasharray:2.8, 1.8;stroke-dashoffset:0;stroke-opacity:1"
       id="path140983" />
    <path
       d="m 427.935,417.071 c 3.787,6.606 4.832,16.703 -5.265,26.8 -10.096,10.096 -23.674,22.978 -30.29,27.853 -6.615,4.874 -18.653,12.352 -25.168,15.229"
       style="fill:none;stroke:#231f20;stroke-width:0.5;stroke-linecap:round;stroke-linejoin:round;stroke-miterlimit:4;stroke-dasharray:2.8, 1.8;stroke-dashoffset:0;stroke-opacity:1"
       id="path140985" />
    <path
       d="m 426.654,439.097 c 6.113,-0.1 19.691,-5.323 18.646,-16.464 -0.785,-8.383 -10.956,-14.465 -16.72,-4.343"
       style="fill:none;stroke:#231f20;stroke-width:0.5;stroke-linecap:round;stroke-linejoin:round;stroke-miterlimit:4;stroke-dasharray:2.8, 1.8;stroke-dashoffset:0;stroke-opacity:1"
       id="path140987" />
    <path
       d="m 476.477,358.92 c 0.158,3.133 -4.716,5.918 -8.546,9.748 -3.83,3.83 -8.008,8.356 -12.185,10.097 -4.178,1.741 -11.106,3.844 -12.691,1.227"
       style="fill:none;stroke:#231f20;stroke-width:0.5;stroke-linecap:round;stroke-linejoin:round;stroke-miterlimit:4;stroke-dasharray:2.8, 1.8;stroke-dashoffset:0;stroke-opacity:1"
       id="path140989" />
    <path
       d="m 451.219,397.217 c -5.221,0 -8.008,-4.177 -8.008,-8.008 0,-3.829 2.438,-5.917 8.705,-6.266 6.267,-0.348 8.007,3.134 8.007,6.615 0,3.482 -4.177,7.659 -8.704,7.659 z"
       style="fill:none;stroke:#231f20;stroke-width:0.5;stroke-linecap:round;stroke-linejoin:round;stroke-miterlimit:4;stroke-dasharray:2.8, 1.8;stroke-dashoffset:0;stroke-opacity:1"
       id="path140991" />
    <path
       d="m 463.718,448.065 c 0,-2.891 2.217,-5.231 5.152,-5.22 3.19,0.011 5.985,2.745 5.985,6.105 0,3.358 -2.795,5.649 -5.985,5.154 -2.935,-0.455 -5.152,-3.145 -5.152,-6.039 z"
       style="fill:none;stroke:#231f20;stroke-width:0.5;stroke-linecap:round;stroke-linejoin:round;stroke-miterlimit:4;stroke-dasharray:2.8, 1.8;stroke-dashoffset:0;stroke-opacity:1"
       id="path140993" />
    <path
       d="m 307.082,553.889 c 10.096,-4.525 16.014,-9.052 28.897,-17.407 12.882,-8.357 37.253,-26.112 55.009,-36.558 17.756,-10.444 43.52,-24.022 56.75,-30.985"
       style="fill:none;stroke:#231f20;stroke-width:0.5;stroke-linecap:round;stroke-linejoin:round;stroke-miterlimit:4;stroke-dasharray:2.8, 1.8;stroke-dashoffset:0;stroke-opacity:1"
       id="path140995" />
    <path
       d="m 445.279,484.094 c 2.807,-5.058 3.851,-13.762 1.066,-18.638 -2.785,-4.874 -12.102,-8.108 -29.594,-0.696 -20.541,8.704 -36.938,20.14 -49.438,29.246 -10.96,7.986 -21.069,20.743 -25.331,18.902"
       style="fill:none;stroke:#231f20;stroke-width:0.5;stroke-linecap:round;stroke-linejoin:round;stroke-miterlimit:4;stroke-dasharray:2.8, 1.8;stroke-dashoffset:0;stroke-opacity:1"
       id="path140997" />
    <path
       d="m 471.413,516.289 c 8.356,1.392 21.934,3.132 29.593,5.221 7.66,2.09 11.766,4.69 19.497,7.312 7.439,2.524 17.409,0.696 19.497,0.696 2.089,0 12.058,1.828 19.498,-0.696 7.731,-2.622 11.836,-5.222 19.497,-7.312 7.659,-2.089 21.237,-3.829 29.592,-5.221"
       style="fill:none;stroke:#231f20;stroke-width:0.5;stroke-linecap:round;stroke-linejoin:round;stroke-miterlimit:4;stroke-dasharray:2.8, 1.8;stroke-dashoffset:0;stroke-opacity:1"
       id="path140999" />
    <path
       d="m 519.355,528.422 c -1.289,-7.956 -0.593,-14.571 0.452,-16.66 1.044,-2.089 1.044,-8.304 -2.437,-9.348"
       style="fill:none;stroke:#231f20;stroke-width:0.5;stroke-linecap:round;stroke-linejoin:round;stroke-miterlimit:4;stroke-dasharray:2.8, 1.8;stroke-dashoffset:0;stroke-opacity:1"
       id="path141001" />
    <path
       d="m 526.422,524.993 c -3.83,0 -6.615,-18.453 0.348,-18.453 5.223,0 2.438,18.453 -0.348,18.453 z"
       style="fill:none;stroke:#231f20;stroke-width:0.5;stroke-linecap:round;stroke-linejoin:round;stroke-miterlimit:4;stroke-dasharray:2.8, 1.8;stroke-dashoffset:0;stroke-opacity:1"
       id="path141003" />
    <path
       d="m 514.237,541.007 c 7.31,1.045 21.586,1.045 25.763,1.045 4.178,0 18.453,0 25.764,-1.045"
       style="fill:none;stroke:#231f20;stroke-width:0.5;stroke-linecap:round;stroke-linejoin:round;stroke-miterlimit:4;stroke-dasharray:2.8, 1.8;stroke-dashoffset:0;stroke-opacity:1"
       id="path141005" />
    <path
       d="m 518.428,528.087 c 2.075,4.216 3.589,9.722 -5.932,13.617 -7.66,3.133 -24.682,-2.787 -37.253,-2.437 -4.831,0.136 -8.085,0.84 -11.838,0.929 -7.192,0.17 -13.462,0.464 -19.149,0.115 -8.369,-0.511 -33.576,-3.057 -40.718,-12.495"
       style="fill:none;stroke:#231f20;stroke-width:0.5;stroke-linecap:round;stroke-linejoin:round;stroke-miterlimit:4;stroke-dasharray:2.8, 1.8;stroke-dashoffset:0;stroke-opacity:1"
       id="path141007" />
    <path
       d="m 440.948,540.064 c -10.116,2.733 -24.979,12.529 -39.516,29.144 -9.748,11.144 -12.465,19.174 -14.971,26.113 -4.525,12.533 -20.388,44.933 -37.796,36.926"
       style="fill:none;stroke:#231f20;stroke-width:0.5;stroke-linecap:round;stroke-linejoin:round;stroke-miterlimit:4;stroke-dasharray:2.8, 1.8;stroke-dashoffset:0;stroke-opacity:1"
       id="path141009" />
    <path
       d="m 342.25,618.878 c 2.781,-3.364 2.446,-15.735 4.173,-24.95 3.134,-16.712 9.377,-38.401 22.98,-53.611"
       style="fill:none;stroke:#231f20;stroke-width:0.5;stroke-linecap:round;stroke-linejoin:round;stroke-miterlimit:4;stroke-dasharray:2.8, 1.8;stroke-dashoffset:0;stroke-opacity:1"
       id="path141011" />
    <path
       d="m 518.415,416.946 c 9.051,11.14 17.408,34.236 16.363,58.26 -1.044,24.022 -15.667,27.852 -20.89,27.504 -5.222,-0.348 -20.541,-9.4 -17.756,-22.63 2.786,-13.231 11.141,-16.016 11.837,-25.068 0.697,-9.052 -1.392,-18.104 -4.177,-24.72 -2.786,-6.615 -1.501,-10.703 -1.154,-12.095"
       style="fill:none;stroke:#231f20;stroke-width:0.5;stroke-linecap:round;stroke-linejoin:round;stroke-miterlimit:4;stroke-dasharray:2.8, 1.8;stroke-dashoffset:0;stroke-opacity:1"
       id="path141013" />
    <path
       d="m 509.787,501.497 c -2.84,-1.494 -7.039,1.91 -12.262,5.739 -5.223,3.83 -9.536,7.839 -14.343,10.883"
       style="fill:none;stroke:#231f20;stroke-width:0.5;stroke-linecap:round;stroke-linejoin:round;stroke-miterlimit:4;stroke-dasharray:2.8, 1.8;stroke-dashoffset:0;stroke-opacity:1"
       id="path141015" />
    <path
       d="m 338.416,546.579 c -3.71,-2.473 -14.275,2.436 -19.845,16.711 -5.571,14.275 -5.571,28.897 2.785,26.808 2.339,-0.585 0.914,-8.451 4.874,-18.104 5.57,-13.578 16.363,-22.63 12.186,-25.415 z"
       style="fill:none;stroke:#231f20;stroke-width:0.5;stroke-linecap:round;stroke-linejoin:round;stroke-miterlimit:4;stroke-dasharray:2.8, 1.8;stroke-dashoffset:0;stroke-opacity:1"
       id="path141017" />
    <path
       d="m 445.003,617.219 c -6.963,7.312 -28.948,24.06 -49.837,27.889"
       style="fill:none;stroke:#231f20;stroke-width:0.5;stroke-linecap:round;stroke-linejoin:round;stroke-miterlimit:4;stroke-dasharray:2.8, 1.8;stroke-dashoffset:0;stroke-opacity:1"
       id="path141019" />
    <path
       d="m 411.648,686.25 c -1.512,-10.156 -8.475,-25.475 -11.956,-32.786 -3.482,-7.311 -4.526,-10.445 -11.142,-10.793 -6.614,-0.348 -31.334,-3.133 -40.385,-9.052"
       style="fill:none;stroke:#231f20;stroke-width:0.5;stroke-linecap:round;stroke-linejoin:round;stroke-miterlimit:4;stroke-dasharray:2.8, 1.8;stroke-dashoffset:0;stroke-opacity:1"
       id="path141021" />
    <path
       d="m 371.564,688.481 c -1.393,-12.186 -20.957,-42.735 -27.923,-52.977"
       style="fill:none;stroke:#231f20;stroke-width:0.5;stroke-linecap:round;stroke-linejoin:round;stroke-miterlimit:4;stroke-dasharray:2.8, 1.8;stroke-dashoffset:0;stroke-opacity:1"
       id="path141023" />
    <path
       d="m 499.961,389.906 c -6.962,-4.526 -14.042,-5.685 -21.469,-5.453 -6.303,0.196 -15.551,1.392 -15.986,-2.234 -0.172,-1.425 0.202,-4.264 13.084,-11.809 12.496,-7.318 17.421,-9.33 26.418,-2.462 5.961,4.55 8.399,12.862 8.746,20.522"
       style="fill:none;stroke:#231f20;stroke-width:0.5;stroke-linecap:round;stroke-linejoin:round;stroke-miterlimit:4;stroke-dasharray:2.8, 1.8;stroke-dashoffset:0;stroke-opacity:1"
       id="path141025" />
    <path
       d="m 540,402.789 c 0,-7.312 -5.222,-16.712 -14.274,-16.016 -9.053,0.696 -24.72,3.133 -28.897,3.481 -4.178,0.348 -8.589,0.697 -8.42,4.162 0.204,4.189 0.063,12.898 3.893,17.424 3.83,4.527 4.894,6.977 14.623,6.267 8.326,-0.607 14.971,-1.74 20.89,-2.089 C 533.734,415.67 540,415.322 540,402.789 Z"
       style="fill:none;stroke:#231f20;stroke-width:0.5;stroke-linecap:round;stroke-linejoin:round;stroke-miterlimit:4;stroke-dasharray:2.8, 1.8;stroke-dashoffset:0;stroke-opacity:1"
       id="path141027" />
    <path
       d="m 487.57,442.965 c -2.347,-3.734 -4.353,-10.578 2.105,-18.183"
       style="fill:none;stroke:#231f20;stroke-width:0.5;stroke-linecap:round;stroke-linejoin:round;stroke-miterlimit:4;stroke-dasharray:2.8, 1.8;stroke-dashoffset:0;stroke-opacity:1"
       id="path141029" />
    <path
       d="m 496.774,423.24 c 1.447,-1.882 5.864,-5.043 5.864,-5.043"
       style="fill:none;stroke:#231f20;stroke-width:0.5;stroke-linecap:round;stroke-linejoin:round;stroke-miterlimit:4;stroke-dasharray:2.8, 1.8;stroke-dashoffset:0;stroke-opacity:1"
       id="path141031" />
    <path
       d="m 507.791,456.413 c 0,0 -2.617,2.277 -5.901,3.642"
       style="fill:none;stroke:#231f20;stroke-width:0.5;stroke-linecap:round;stroke-linejoin:round;stroke-miterlimit:4;stroke-dasharray:2.8, 1.8;stroke-dashoffset:0;stroke-opacity:1"
       id="path141033" />
    <path
       d="m 478.256,661.911 c -2.549,-7.983 -8.932,-26.638 -0.692,-36.532"
       style="fill:none;stroke:#231f20;stroke-width:0.5;stroke-linecap:round;stroke-linejoin:round;stroke-miterlimit:4;stroke-dasharray:2.8, 1.8;stroke-dashoffset:0;stroke-opacity:1"
       id="path141035" />
    <path
       d="m 495.492,658.664 c 0,0 0.176,-12.86 0.873,-20.288 0.696,-7.426 1.59,-15.477 0.678,-19.691"
       style="fill:none;stroke:#231f20;stroke-width:0.5;stroke-linecap:round;stroke-linejoin:round;stroke-miterlimit:4;stroke-dasharray:2.8, 1.8;stroke-dashoffset:0;stroke-opacity:1"
       id="path141037" />
    <path
       d="m 532.863,634.788 c -4.468,-2.213 -8.183,-6.623 -10.039,-8.712 -1.856,-2.089 -5.338,-3.947 -5.338,-3.947"
       style="fill:none;stroke:#231f20;stroke-width:0.5;stroke-linecap:round;stroke-linejoin:round;stroke-miterlimit:4;stroke-dasharray:2.8, 1.8;stroke-dashoffset:0;stroke-opacity:1"
       id="path141039" />
    <path
       d="m 507.505,658.341 c 3.947,-1.164 6.498,-3.02 6.732,-10.448 0.232,-7.428 1.16,-11.605 3.249,-15.551 1.412,-2.666 4.362,-4.362 8.332,-2.994"
       style="fill:none;stroke:#231f20;stroke-width:0.5;stroke-linecap:round;stroke-linejoin:round;stroke-miterlimit:4;stroke-dasharray:2.8, 1.8;stroke-dashoffset:0;stroke-opacity:1"
       id="path141041" />
    <path
       d="m 523.36,626.682 c 3.41,-0.606 12.927,-7.801 11.766,-14.533 -1.161,-6.732 -12.301,-20.658 -14.855,-19.033 -2.553,1.626 -6.989,5.299 -6.86,24.235"
       style="fill:none;stroke:#231f20;stroke-width:0.5;stroke-linecap:round;stroke-linejoin:round;stroke-miterlimit:4;stroke-dasharray:2.8, 1.8;stroke-dashoffset:0;stroke-opacity:1"
       id="path141043" />
    <path
       d="m 520.271,593.116 c 0.697,-5.571 -0.464,-11.141 -4.642,-16.015 -4.177,-4.875 -13.231,-11.142 -18.337,-8.589 -5.105,2.554 -5.337,6.501 -5.801,12.767"
       style="fill:none;stroke:#231f20;stroke-width:0.5;stroke-linecap:round;stroke-linejoin:round;stroke-miterlimit:4;stroke-dasharray:2.8, 1.8;stroke-dashoffset:0;stroke-opacity:1"
       id="path141045" />
    <path
       d="m 526.683,567.643 c 0.929,4.642 2.872,18.046 4.961,24.776 2.09,6.731 5.571,1.626 8.356,1.626 2.786,0 6.267,5.105 8.356,-1.626 2.089,-6.73 4.034,-20.134 4.962,-24.776"
       style="fill:none;stroke:#231f20;stroke-width:0.5;stroke-linecap:round;stroke-linejoin:round;stroke-miterlimit:4;stroke-dasharray:2.8, 1.8;stroke-dashoffset:0;stroke-opacity:1"
       id="path141047" />
    <path
       d="m 473.657,634.93 c -1.122,-3.447 -4.218,-17.676 -9.092,-27.655 -4.874,-9.98 -5.802,-16.944 -3.249,-26.229 2.553,-9.284 9.981,-17.872 18.568,-22.746 8.587,-4.874 14.159,-2.089 17.873,-1.392 3.714,0.696 10.212,0.464 14.854,0.232 4.642,-0.231 7.428,2.089 9.981,6.731 2.554,4.641 6.499,4.41 9.517,4.41 3.017,0 5.106,-2.089 7.891,-2.089 2.786,0 4.874,2.089 7.891,2.089 3.02,0 6.963,0.231 9.518,-4.41 2.553,-4.642 5.339,-6.962 9.98,-6.731 4.642,0.232 11.14,0.464 14.855,-0.232 3.714,-0.697 9.286,-3.482 17.873,1.392 8.587,4.874 16.014,13.462 18.567,22.746 2.553,9.285 1.626,16.249 -3.249,26.229 -4.874,9.979 -7.969,24.208 -9.091,27.655"
       style="fill:none;stroke:#231f20;stroke-width:0.5;stroke-linecap:round;stroke-linejoin:round;stroke-miterlimit:4;stroke-dasharray:2.8, 1.8;stroke-dashoffset:0;stroke-opacity:1"
       id="path141049" />
    <path
       d="m 470.916,662.641 c 0.701,-0.157 0.613,-6.855 -1.94,-10.802 -2.553,-3.946 -12.303,-23.674 -14.855,-30.406 -2.553,-6.731 -5.57,-19.265 -7.195,-26.925 -1.626,-7.659 -5.572,-25.531 -2.554,-33.886 3.018,-8.356 9.052,-19.034 19.033,-19.73 0,0 -15.318,-1.392 -24.139,17.176 -8.82,18.569 -4.41,36.44 -0.929,46.189 3.482,9.748 16.48,27.853 19.961,35.512 3.482,7.66 10.9,23.317 11.489,23.16"
       style="fill:none;stroke:#231f20;stroke-width:0.5;stroke-linecap:round;stroke-linejoin:round;stroke-miterlimit:4;stroke-dasharray:2.8, 1.8;stroke-dashoffset:0;stroke-opacity:1"
       id="path141051" />
    <path
       d="m 463.405,540.892 c 3.715,-0.464 13.699,-1.447 10.445,9.285 -3.562,11.747 -31.482,26.079 -29.784,11.415"
       style="fill:none;stroke:#231f20;stroke-width:0.5;stroke-linecap:round;stroke-linejoin:round;stroke-miterlimit:4;stroke-dasharray:2.8, 1.8;stroke-dashoffset:0;stroke-opacity:1"
       id="path141053" />
    <path
       d="m 321.704,612.729 c -7.544,-10.793 -13.146,-18.865 -16.596,-19.381 -1.943,-0.291 -6.17,-0.056 -8.508,2.797 -1.571,1.917 -2.36,5.116 -1.24,10.434 2.785,13.23 7.427,29.245 8.355,32.494 0.929,3.25 2.089,13.231 6.963,18.337 4.874,5.106 10.678,12.534 18.337,18.337 7.66,5.801 14.621,9.98 22.05,11.373 7.429,1.392 15.088,1.624 16.248,0.696 1.16,-0.929 -1.625,-8.588 -5.57,-15.551 -3.946,-6.964 -8.821,-13.927 -13.695,-20.193 -4.874,-6.268 -10.092,-15.635 -12.766,-19.497"
       style="fill:none;stroke:#231f20;stroke-width:0.5;stroke-linecap:round;stroke-linejoin:round;stroke-miterlimit:4;stroke-dasharray:2.8, 1.8;stroke-dashoffset:0;stroke-opacity:1"
       id="path141055" />
    <path
       d="m 337.443,635.924 c -2.638,-4.037 -6.804,-7.991 -10.053,-7.063 -3.249,0.929 -21.624,9.81 -23.48,10.971"
       style="fill:none;stroke:#231f20;stroke-width:0.5;stroke-linecap:round;stroke-linejoin:round;stroke-miterlimit:4;stroke-dasharray:2.8, 1.8;stroke-dashoffset:0;stroke-opacity:1"
       id="path141057" />
    <path
       d="m 327.171,620.801 c 0.452,3.186 -10.595,10.023 -24.104,16.004"
       style="fill:none;stroke:#231f20;stroke-width:0.5;stroke-linecap:round;stroke-linejoin:round;stroke-miterlimit:4;stroke-dasharray:2.8, 1.8;stroke-dashoffset:0;stroke-opacity:1"
       id="path141059" />
    <path
       d="m 534.662,722.167 c -2.553,-0.232 -4.41,-1.392 -4.41,-3.249 0,-1.857 -0.696,-3.25 -1.625,-4.178 -0.928,-0.928 -0.697,-3.946 3.249,-5.338 0.464,5.57 2.786,8.355 4.643,9.052 1.857,0.696 0.695,3.946 -1.857,3.713"
       style="fill:#b2b1b1;fill-opacity:1;fill-rule:nonzero;stroke:none;stroke-width:0.1"
       id="path141061" />
    <path
       d="m 534.662,722.167 c -2.553,-0.232 -4.41,-1.392 -4.41,-3.249 0,-1.857 -0.696,-3.25 -1.625,-4.178 -0.928,-0.928 -0.697,-3.946 3.249,-5.338 0.464,5.57 2.786,8.355 4.643,9.052 1.857,0.696 0.695,3.946 -1.857,3.713 z"
       style="fill:none;stroke:#231f20;stroke-width:0.5;stroke-linecap:round;stroke-linejoin:round;stroke-miterlimit:4;stroke-dasharray:2.8, 1.8;stroke-dashoffset:0;stroke-opacity:1"
       id="path141063" />
    <path
       d="m 532.302,705.573 c -1.586,-5.92 -10.87,-25.417 -22.707,-32.38 -11.838,-6.963 -22.573,-8.865 -30.175,0.929 -12.07,15.55 -15.549,26.923 -26.923,51.991 -11.374,25.068 -20.194,36.441 -31.568,40.619 -11.373,4.179 -27.62,-0.465 -42.938,-5.803 -15.32,-5.338 -36.673,-13.927 -48.047,-21.817 -11.373,-7.892 -26.925,-25.301 -29.478,-28.318 -2.552,-3.017 -6.73,-10.444 -3.249,-14.39 3.482,-3.946 27.597,13.789 39.667,24.234"
       style="fill:none;stroke:#231f20;stroke-width:0.5;stroke-linecap:round;stroke-linejoin:round;stroke-miterlimit:4;stroke-dasharray:2.8, 1.8;stroke-dashoffset:0;stroke-opacity:1"
       id="path141065" />
    <path
       d="m 323.445,724.72 -11.361,-1.406"
       style="fill:none;stroke:#231f20;stroke-width:0.5;stroke-linecap:round;stroke-linejoin:round;stroke-miterlimit:4;stroke-dasharray:2.8, 1.8;stroke-dashoffset:0;stroke-opacity:1"
       id="path141067" />
    <path
       d="m 284.683,716.365 c -3.946,-9.284 -8.124,-23.675 -6.035,-31.567 2.089,-7.891 8.123,-12.534 17.408,-6.731 9.284,5.804 15.088,10.678 20.658,13.694 5.571,3.018 24.323,14.856 34.767,20.426"
       style="fill:none;stroke:#231f20;stroke-width:0.5;stroke-linecap:round;stroke-linejoin:round;stroke-miterlimit:4;stroke-dasharray:2.8, 1.8;stroke-dashoffset:0;stroke-opacity:1"
       id="path141069" />
    <path
       d="m 339.577,717.254 c 7.079,1.432 45.64,14.529 55.605,8.909"
       style="fill:none;stroke:#231f20;stroke-width:0.5;stroke-linecap:round;stroke-linejoin:round;stroke-miterlimit:4;stroke-dasharray:2.8, 1.8;stroke-dashoffset:0;stroke-opacity:1"
       id="path141071" />
    <path
       d="m 397.474,719.484 c -9.735,-4.744 -26.911,-13.332 -32.017,-18.439"
       style="fill:none;stroke:#231f20;stroke-width:0.5;stroke-linecap:round;stroke-linejoin:round;stroke-miterlimit:4;stroke-dasharray:2.8, 1.8;stroke-dashoffset:0;stroke-opacity:1"
       id="path141073" />
    <path
       d="m 531.876,709.402 c -0.464,-5.571 4.432,-11.043 4.432,-11.043"
       style="fill:none;stroke:#231f20;stroke-width:0.5;stroke-linecap:round;stroke-linejoin:round;stroke-miterlimit:4;stroke-dasharray:2.8, 1.8;stroke-dashoffset:7.5038;stroke-opacity:1"
       id="path141075" />
    <path
       d="m 545.339,722.167 c 2.552,-0.232 4.41,-1.392 4.41,-3.249 0,-1.857 0.696,-3.25 1.624,-4.178 0.93,-0.928 0.697,-3.946 -3.249,-5.338 -0.464,5.57 -2.785,8.355 -4.642,9.052 -1.858,0.696 -0.696,3.946 1.857,3.713"
       style="fill:#b2b1b1;fill-opacity:1;fill-rule:nonzero;stroke:none;stroke-width:0.1"
       id="path141077" />
    <path
       d="m 545.339,722.167 c 2.552,-0.232 4.41,-1.392 4.41,-3.249 0,-1.857 0.696,-3.25 1.624,-4.178 0.93,-0.928 0.697,-3.946 -3.249,-5.338 -0.464,5.57 -2.785,8.355 -4.642,9.052 -1.858,0.696 -0.696,3.946 1.857,3.713 z"
       style="fill:none;stroke:#231f20;stroke-width:0.5;stroke-linecap:round;stroke-linejoin:round;stroke-miterlimit:4;stroke-dasharray:2.8, 1.8;stroke-dashoffset:0;stroke-opacity:1"
       id="path141079" />
    <path
       d="m 548.124,709.402 c 0.464,-5.571 -4.431,-11.043 -4.431,-11.043"
       style="fill:none;stroke:#231f20;stroke-width:0.5;stroke-linecap:round;stroke-linejoin:round;stroke-miterlimit:4;stroke-dasharray:2.8, 1.8;stroke-dashoffset:7.5038;stroke-opacity:1"
       id="path141081" />
    <path
       d="m 612.241,511.585 c -11.66,-3.653 -26.98,-14.097 -23.15,-26.631 3.829,-12.534 17.408,-12.882 29.245,-8.704 11.837,4.178 33.097,15.243 40.049,33.733"
       style="fill:none;stroke:#231f20;stroke-width:0.5;stroke-linecap:round;stroke-linejoin:round;stroke-miterlimit:4;stroke-dasharray:2.8, 1.8;stroke-dashoffset:0;stroke-opacity:1"
       id="path141083" />
    <path
       d="m 467.76,511.585 c 11.66,-3.653 26.98,-14.097 23.15,-26.631 -3.83,-12.534 -17.409,-12.882 -29.245,-8.704 -11.838,4.178 -33.098,15.243 -40.05,33.733"
       style="fill:none;stroke:#231f20;stroke-width:0.5;stroke-linecap:round;stroke-linejoin:round;stroke-miterlimit:4;stroke-dasharray:2.8, 1.8;stroke-dashoffset:0;stroke-opacity:1"
       id="path141085" />
    <path
       d="m 798.678,712.382 4.238,3.683"
       style="fill:#c8c7c7;fill-opacity:1;fill-rule:nonzero;stroke:none;stroke-width:0.1"
       id="path141087" />
    <path
       d="m 798.678,712.382 4.238,3.683"
       style="fill:none;stroke:#231f20;stroke-width:0.5;stroke-linecap:round;stroke-linejoin:round;stroke-miterlimit:4;stroke-dasharray:2.8, 1.8;stroke-dashoffset:0;stroke-opacity:1"
       id="path141089" />
    <path
       d="m 786.691,731.724 2.739,2.734"
       style="fill:#c8c7c7;fill-opacity:1;fill-rule:nonzero;stroke:none;stroke-width:0.1"
       id="path141091" />
    <path
       d="m 786.691,731.724 2.739,2.734"
       style="fill:none;stroke:#231f20;stroke-width:0.5;stroke-linecap:round;stroke-linejoin:round;stroke-miterlimit:4;stroke-dasharray:2.8, 1.8;stroke-dashoffset:0;stroke-opacity:1"
       id="path141093" />
    <path
       d="m 281.323,712.382 -4.238,3.683"
       style="fill:#c8c7c7;fill-opacity:1;fill-rule:nonzero;stroke:none;stroke-width:0.1"
       id="path141095" />
    <path
       d="m 281.323,712.382 -4.238,3.683"
       style="fill:none;stroke:#231f20;stroke-width:0.5;stroke-linecap:round;stroke-linejoin:round;stroke-miterlimit:4;stroke-dasharray:2.8, 1.8;stroke-dashoffset:0;stroke-opacity:1"
       id="path141097" />
    <path
       d="m 293.31,731.724 -2.739,2.734"
       style="fill:#c8c7c7;fill-opacity:1;fill-rule:nonzero;stroke:none;stroke-width:0.1"
       id="path141099" />
    <path
       d="m 293.31,731.724 -2.739,2.734"
       style="fill:none;stroke:#231f20;stroke-width:0.5;stroke-linecap:round;stroke-linejoin:round;stroke-miterlimit:4;stroke-dasharray:2.8, 1.8;stroke-dashoffset:0;stroke-opacity:1"
       id="path141101" />
  </g>
</svg>
