<?xml version="1.0" encoding="UTF-8" standalone="no"?>
<!-- Created with Inkscape (http://www.inkscape.org/) -->

<svg
   version="1.1"
   id="svg132454"
   width="1440"
   height="1344"
   viewBox="0 0 1440 1344"
   xmlns="http://www.w3.org/2000/svg"
   xmlns:svg="http://www.w3.org/2000/svg">
  <defs
     id="defs132458" />
  <g
     id="g132462">
    <path
       d="m 540,330.595 c -8.523,0 -13.138,2.729 -13.138,5.116 0,2.389 4.261,4.437 4.261,4.437 -4.617,-0.34 -37.288,3.411 -42.97,5.802 -5.682,2.387 -19.177,5.116 -32.671,13.306 -13.495,8.187 -31.962,27.295 -37.999,33.777 -6.036,6.484 -5.682,10.578 -5.682,10.578 -9.944,-3.071 -24.148,9.213 -24.148,9.213 10.298,-26.616 -11.009,-48.792 -24.504,-57.322 -13.494,-8.53 -39.419,-18.765 -54.689,-20.813 -15.27,-2.048 -40.839,-6.481 -87.715,3.07 -46.876,9.553 -62.147,34.46 -75.996,66.534 -13.85,32.072 -17.046,66.535 -17.046,82.229 0,15.694 3.55,16.377 7.101,19.105 3.552,2.731 2.487,8.19 0.711,10.239 -1.775,2.045 -1.775,2.045 -15.626,12.965 -4.619,3.641 -9.298,8.254 -11.719,16.717 -3.053,10.678 -2.435,27.265 -1.42,48.792 0.594,12.567 0.386,26.143 2.131,42.991 7.103,68.58 34.447,111.913 68.894,149.103 34.447,37.19 72.801,65.51 108.312,81.887 35.513,16.378 80.614,31.049 126.424,31.39 45.812,0.341 80.968,-1.706 102.631,-15.695 C 536.804,870.027 540,851.26 540,844.096 c 0,7.164 3.197,25.931 24.86,39.92 21.662,13.989 56.819,16.036 102.63,15.695 45.811,-0.341 90.911,-15.012 126.424,-31.39 35.512,-16.377 73.866,-44.697 108.313,-81.887 34.446,-37.19 61.79,-80.523 68.894,-149.103 1.744,-16.848 1.536,-30.424 2.131,-42.991 1.014,-21.527 1.631,-38.114 -1.421,-48.792 -2.421,-8.463 -7.1,-13.076 -11.72,-16.717 -13.85,-10.92 -13.85,-10.92 -15.625,-12.965 -1.776,-2.049 -2.841,-7.508 0.71,-10.239 3.551,-2.728 7.102,-3.411 7.102,-19.105 0,-15.694 -3.196,-50.157 -17.045,-82.229 -13.85,-32.074 -29.121,-56.981 -75.997,-66.534 -46.877,-9.551 -72.444,-5.118 -87.715,-3.07 -15.271,2.048 -41.195,12.283 -54.689,20.813 -13.495,8.53 -34.803,30.706 -24.503,57.322 0,0 -14.205,-12.284 -24.149,-9.213 0,0 0.356,-4.094 -5.681,-10.578 -6.039,-6.482 -24.505,-25.59 -37.999,-33.777 -13.495,-8.19 -26.989,-10.919 -32.671,-13.306 -5.683,-2.391 -38.353,-6.142 -42.971,-5.802 0,0 4.262,-2.048 4.262,-4.437 0,-2.387 -4.617,-5.116 -13.14,-5.116 z m 56.584,330.051 c -4.973,2.729 -3.552,5.686 -3.552,5.686 -1.421,-1.591 -4.497,-1.591 -4.497,-1.591 z m -105.118,4.095 c 0,0 -3.076,0 -4.496,1.591 0,0 1.42,-2.957 -3.552,-5.686 z m 50.971,36.717 c -1.656,3.185 -2.437,15.827 -2.437,15.827 0,0 -0.781,-12.642 -2.437,-15.827 -1.656,-3.185 -8.216,-11.469 -8.216,-11.469 1.656,0.682 6.629,0.227 10.653,0.227 4.026,0 8.997,0.455 10.655,-0.227 0,0 -6.56,8.284 -8.218,11.469"
       style="fill:#ffffff;fill-opacity:1;fill-rule:nonzero;stroke:none;stroke-width:0.1"
       id="path133122" />
    <path
       d="m 540,330.595 c -8.523,0 -13.138,2.729 -13.138,5.116 0,2.389 4.261,4.437 4.261,4.437 -4.617,-0.34 -37.288,3.411 -42.97,5.802 -5.682,2.387 -19.177,5.116 -32.671,13.306 -13.495,8.187 -31.962,27.295 -37.999,33.777 -6.036,6.484 -5.682,10.578 -5.682,10.578 -9.944,-3.071 -24.148,9.213 -24.148,9.213 10.298,-26.616 -11.009,-48.792 -24.504,-57.322 -13.494,-8.53 -39.419,-18.765 -54.689,-20.813 -15.27,-2.048 -40.839,-6.481 -87.715,3.07 -46.876,9.553 -62.147,34.46 -75.996,66.534 -13.85,32.072 -17.046,66.535 -17.046,82.229 0,15.694 3.55,16.377 7.101,19.105 3.552,2.731 2.487,8.19 0.711,10.239 -1.775,2.045 -1.775,2.045 -15.626,12.965 -4.619,3.641 -9.298,8.254 -11.719,16.717 -3.053,10.678 -2.435,27.265 -1.42,48.792 0.594,12.567 0.386,26.143 2.131,42.991 7.103,68.58 34.447,111.913 68.894,149.103 34.447,37.19 72.801,65.51 108.312,81.887 35.513,16.378 80.614,31.049 126.424,31.39 45.812,0.341 80.968,-1.706 102.631,-15.695 C 536.804,870.027 540,851.26 540,844.096 c 0,7.164 3.197,25.931 24.86,39.92 21.662,13.989 56.819,16.036 102.63,15.695 45.811,-0.341 90.911,-15.012 126.424,-31.39 35.512,-16.377 73.866,-44.697 108.313,-81.887 34.446,-37.19 61.79,-80.523 68.894,-149.103 1.744,-16.848 1.536,-30.424 2.131,-42.991 1.014,-21.527 1.631,-38.114 -1.421,-48.792 -2.421,-8.463 -7.1,-13.076 -11.72,-16.717 -13.85,-10.92 -13.85,-10.92 -15.625,-12.965 -1.776,-2.049 -2.841,-7.508 0.71,-10.239 3.551,-2.728 7.102,-3.411 7.102,-19.105 0,-15.694 -3.196,-50.157 -17.045,-82.229 -13.85,-32.074 -29.121,-56.981 -75.997,-66.534 -46.877,-9.551 -72.444,-5.118 -87.715,-3.07 -15.271,2.048 -41.195,12.283 -54.689,20.813 -13.495,8.53 -34.803,30.706 -24.503,57.322 0,0 -14.205,-12.284 -24.149,-9.213 0,0 0.356,-4.094 -5.681,-10.578 -6.039,-6.482 -24.505,-25.59 -37.999,-33.777 -13.495,-8.19 -26.989,-10.919 -32.671,-13.306 -5.683,-2.391 -38.353,-6.142 -42.971,-5.802 0,0 4.262,-2.048 4.262,-4.437 0,-2.387 -4.617,-5.116 -13.14,-5.116 z m 56.584,330.051 c -4.973,2.729 -3.552,5.686 -3.552,5.686 -1.421,-1.591 -4.497,-1.591 -4.497,-1.591 z m -105.118,4.095 c 0,0 -3.076,0 -4.496,1.591 0,0 1.42,-2.957 -3.552,-5.686 z m 50.971,36.717 c -1.656,3.185 -2.437,15.827 -2.437,15.827 0,0 -0.781,-12.642 -2.437,-15.827 -1.656,-3.185 -8.216,-11.469 -8.216,-11.469 1.656,0.682 6.629,0.227 10.653,0.227 4.026,0 8.997,0.455 10.655,-0.227 0,0 -6.56,8.284 -8.218,11.469 z"
       style="fill:none;stroke:#231f20;stroke-width:0.75;stroke-linecap:round;stroke-linejoin:round;stroke-miterlimit:4;stroke-dasharray:none;stroke-opacity:1"
       id="path133124" />
    <path
       d="m 541.906,723.226 c 1.882,-1.62 5.75,-6.321 5.908,-9.352 0.236,-4.55 -0.71,-8.873 0,-9.1 0.709,-0.228 4.497,5.459 3.551,10.918 -0.947,5.459 -5.927,7.667 -5.927,7.667"
       style="fill:#bdbcbc;fill-opacity:1;fill-rule:nonzero;stroke:none;stroke-width:0.1"
       id="path133126" />
    <path
       d="m 538.095,723.226 c -1.883,-1.62 -5.75,-6.321 -5.908,-9.352 -0.235,-4.55 0.711,-8.873 0,-9.1 -0.71,-0.228 -4.497,5.459 -3.551,10.918 0.946,5.459 5.927,7.667 5.927,7.667"
       style="fill:#bdbcbc;fill-opacity:1;fill-rule:nonzero;stroke:none;stroke-width:0.1"
       id="path133128" />
    <path
       d="m 598.559,404.732 c 5.24,2.445 10.335,0.244 12.466,-5.215 2.131,-5.459 2.131,-9.555 -1.775,-10.918 -3.907,-1.365 -7.458,0.68 -9.589,4.777 -2.13,4.093 -4.971,9.552 -1.102,11.356 z"
       style="fill:none;stroke:#231f20;stroke-width:0.5;stroke-linecap:butt;stroke-linejoin:miter;stroke-miterlimit:4;stroke-dasharray:none;stroke-opacity:1"
       id="path133130" />
    <path
       d="m 594.743,423.873 c 0,0 11.115,46.661 -6.09,43.201 -7.631,-1.536 -8.455,-8.903 -6.037,-16.037 2.42,-7.14 5.444,-6.256 8.537,-15.776 2.128,-6.555 3.59,-11.388 3.59,-11.388 z"
       style="fill:none;stroke:#231f20;stroke-width:0.5;stroke-linecap:butt;stroke-linejoin:miter;stroke-miterlimit:4;stroke-dasharray:none;stroke-opacity:1"
       id="path133132" />
    <path
       d="M 540,475.604 V 443.873"
       style="fill:none;stroke:#231f20;stroke-width:0.75;stroke-linecap:round;stroke-linejoin:round;stroke-miterlimit:4;stroke-dasharray:none;stroke-opacity:1"
       id="path133134" />
    <path
       d="m 674,506.653 c -3.788,-8.419 -13.257,-27.752 -35.276,-33.892 -22.017,-6.141 -39.538,-7.278 -42.85,8.87 -3.315,16.149 13.02,23.43 20.833,23.885 0,0 18.704,-5.005 32.198,-4.322 13.495,0.682 25.095,5.459 25.095,5.459 z"
       style="fill:none;stroke:#231f20;stroke-width:0.5;stroke-linecap:butt;stroke-linejoin:miter;stroke-miterlimit:4;stroke-dasharray:none;stroke-opacity:1"
       id="path133136" />
    <path
       d="m 616.707,505.516 -3.314,1.137 c 0,0 25.806,2.273 37.644,3.865 11.837,1.594 22.727,3.413 33.144,7.964 10.416,4.548 28.882,12.736 34.091,15.239 0,0 -15.129,-16.379 -44.272,-27.068"
       style="fill:none;stroke:#231f20;stroke-width:0.5;stroke-linecap:butt;stroke-linejoin:miter;stroke-miterlimit:4;stroke-dasharray:none;stroke-opacity:1"
       id="path133138" />
    <path
       d="m 704.025,522.042 c 1.463,0.078 25.849,7.129 25.849,7.129 0,0 22.492,22.065 26.278,43.673 3.788,21.611 -4.902,40.597 -6.866,48.45 -1.982,7.933 -2.604,11.146 -1.184,15.922"
       style="fill:none;stroke:#231f20;stroke-width:0.5;stroke-linecap:butt;stroke-linejoin:miter;stroke-miterlimit:4;stroke-dasharray:none;stroke-opacity:1"
       id="path133140" />
    <path
       d="m 794.742,523.484 c -4.499,-7.05 -6.392,-3.638 -6.392,-3.638 0,0 -4.498,-7.734 -6.865,-11.828 -2.368,-4.097 -8.05,-9.784 -13.495,-17.971 -5.445,-8.19 -14.915,-18.197 -23.2,-27.75 -8.288,-9.554 -26.99,-24.795 -34.093,-30.936 -3.793,-3.279 -7.652,-6.752 -11.021,-10.124 8.653,5.576 11.493,5.233 18.24,2.505 6.75,-2.731 24.86,-6.485 48.654,-3.754 23.793,2.731 35.773,9.082 48.651,25.25 8.878,11.143 14.323,25.25 16.691,29.569 2.368,4.322 10.891,13.42 13.494,19.563 2.604,6.141 9.707,23.655 10.654,29.57 0.948,5.914 0.002,9.1 -4.024,13.193 -4.026,4.094 -9.943,8.415 -12.312,21.154 -2.368,12.737 -4.263,16.833 -8.76,23.429 -4.498,6.597 -6.628,12.056 -8.758,24.111 -2.131,12.054 -2.368,22.292 0.473,32.982 2.841,10.691 7.101,14.103 6.865,30.481 -0.236,16.376 -9.706,26.613 -16.809,36.167 0,0 -2.129,-31.391 -3.315,-41.627 -1.184,-10.236 -0.471,-43.901 0.711,-58.003 1.184,-14.104 5.208,-40.945 5.208,-46.404 0,-5.459 -3.306,-8.546 -6.392,-13.647 -4.024,-6.652 -14.205,-22.292 -14.205,-22.292"
       style="fill:#706d6e;fill-opacity:1;fill-rule:nonzero;stroke:none;stroke-width:0.1"
       id="path133142" />
    <path
       d="m 794.742,523.484 c -4.499,-7.05 -6.392,-3.638 -6.392,-3.638 0,0 -4.498,-7.734 -6.865,-11.828 -2.368,-4.097 -8.05,-9.784 -13.495,-17.971 -5.445,-8.19 -14.915,-18.197 -23.2,-27.75 -8.288,-9.554 -26.99,-24.795 -34.093,-30.936 -3.793,-3.279 -7.652,-6.752 -11.021,-10.124 8.653,5.576 11.493,5.233 18.24,2.505 6.75,-2.731 24.86,-6.485 48.654,-3.754 23.793,2.731 35.773,9.082 48.651,25.25 8.878,11.143 14.323,25.25 16.691,29.569 2.368,4.322 10.891,13.42 13.494,19.563 2.604,6.141 9.707,23.655 10.654,29.57 0.948,5.914 0.002,9.1 -4.024,13.193 -4.026,4.094 -9.943,8.415 -12.312,21.154 -2.368,12.737 -4.263,16.833 -8.76,23.429 -4.498,6.597 -6.628,12.056 -8.758,24.111 -2.131,12.054 -2.368,22.292 0.473,32.982 2.841,10.691 7.101,14.103 6.865,30.481 -0.236,16.376 -9.706,26.613 -16.809,36.167 0,0 -2.129,-31.391 -3.315,-41.627 -1.184,-10.236 -0.471,-43.901 0.711,-58.003 1.184,-14.104 5.208,-40.945 5.208,-46.404 0,-5.459 -3.306,-8.546 -6.392,-13.647 -4.024,-6.652 -14.205,-22.292 -14.205,-22.292 z"
       style="fill:none;stroke:#231f20;stroke-width:0.75;stroke-linecap:round;stroke-linejoin:round;stroke-miterlimit:4;stroke-dasharray:none;stroke-opacity:1"
       id="path133144" />
    <path
       d="m 692.349,412.824 c 1.82,2.597 4.387,5.466 7.327,8.413"
       style="fill:none;stroke:#231f20;stroke-width:0.75;stroke-linecap:round;stroke-linejoin:round;stroke-miterlimit:4;stroke-dasharray:none;stroke-opacity:1"
       id="path133146" />
    <path
       d="m 555.389,683.166 c 3.254,-4.076 9.472,-13.194 17.521,-15.924 8.048,-2.73 11.925,-3.213 15.625,-2.501"
       style="fill:none;stroke:#231f20;stroke-width:0.75;stroke-linecap:round;stroke-linejoin:round;stroke-miterlimit:4;stroke-dasharray:none;stroke-opacity:1"
       id="path133148" />
    <path
       d="m 596.584,660.646 c 1.894,-1.819 6.391,-5.004 13.493,-3.412 7.103,1.593 12.757,7.507 21.546,12.966 9.906,6.153 23.674,13.192 30.777,15.922 7.102,2.729 29.119,1.592 35.748,2.047 6.63,0.455 12.075,1.592 31.015,-5.232 18.939,-6.823 31.014,-17.514 36.695,-28.433 5.683,-10.918 5.576,-29.258 9.472,-35.712 6.865,-11.373 29.12,-25.249 34.381,-6.809"
       style="fill:none;stroke:#231f20;stroke-width:0.75;stroke-linecap:round;stroke-linejoin:round;stroke-miterlimit:4;stroke-dasharray:none;stroke-opacity:1"
       id="path133150" />
    <path
       d="m 555.304,668.894 c 2.689,-2.789 6.003,-8.249 10.266,-7.794 4.261,0.456 11.836,0.684 19.886,-1.818 8.05,-2.503 19.65,-7.052 21.07,-7.962 1.422,-0.91 2.955,1.748 2.78,5.764"
       style="fill:none;stroke:#231f20;stroke-width:0.5;stroke-linecap:butt;stroke-linejoin:miter;stroke-miterlimit:4;stroke-dasharray:none;stroke-opacity:1"
       id="path133152" />
    <path
       d="m 718.272,533.721 c 6.394,4.549 18.469,12.965 23.676,22.745 5.208,9.782 7.338,19.563 5.918,29.118 -1.42,9.553 -7.814,27.977 -8.997,31.617 -1.183,3.638 -2.603,14.329 -2.129,17.969 0.471,3.639 2.131,8.643 5.208,7.279 1.935,-0.859 3.871,-2.706 5.04,-3.96"
       style="fill:none;stroke:#231f20;stroke-width:0.5;stroke-linecap:butt;stroke-linejoin:miter;stroke-miterlimit:4;stroke-dasharray:none;stroke-opacity:1"
       id="path133154" />
    <path
       d="m 788.35,519.846 c 1.895,3.866 3.787,14.558 3.787,20.926 0,6.368 0.237,23.656 -2.367,35.485 -1.119,5.081 -2.344,12.2 -4.261,18.652 -2.548,8.565 -5.782,16.216 -6.347,18.919"
       style="fill:none;stroke:#231f20;stroke-width:0.5;stroke-linecap:butt;stroke-linejoin:miter;stroke-miterlimit:4;stroke-dasharray:none;stroke-opacity:1"
       id="path133156" />
    <path
       d="m 788.35,519.846 c -1.421,3.184 0.236,15.921 0.236,22.518 0,6.595 -1.42,20.245 -3.55,36.168 -2.131,15.923 -8.05,31.845 -10.228,41.253"
       style="fill:none;stroke:#231f20;stroke-width:0.5;stroke-linecap:butt;stroke-linejoin:miter;stroke-miterlimit:4;stroke-dasharray:none;stroke-opacity:1"
       id="path133158" />
    <path
       d="m 790.852,569.933 c -0.322,2.236 2.708,7.461 5.784,2.457 3.078,-5.005 3.789,-18.426 2.131,-21.837 -1.657,-3.413 -6.003,-1.594 -6.67,-10e-4"
       style="fill:none;stroke:#231f20;stroke-width:0.5;stroke-linecap:butt;stroke-linejoin:miter;stroke-miterlimit:4;stroke-dasharray:none;stroke-opacity:1"
       id="path133160" />
    <path
       d="m 775.33,618.792 c -1.686,-1.008 -7.578,0.228 -11.839,4.322 0,0 8.288,-13.419 11.601,-23.656 3.314,-10.236 5.32,-15.729 2.604,-24.338 -4.735,-15.014 -26.988,-42.538 -37.169,-55.047 -10.181,-12.512 -17.046,-21.382 -21.307,-27.752 -4.262,-6.367 -11.601,-12.737 -13.732,-17.968 -2.131,-5.233 -8.524,-13.878 -14.205,-19.791 -5.683,-5.913 -18.703,-18.194 -25.096,-23.428 -6.393,-5.233 -13.968,-11.146 -9.707,-17.288 4.263,-6.141 8.052,-8.644 11.72,-10.235"
       style="fill:none;stroke:#231f20;stroke-width:0.5;stroke-linecap:butt;stroke-linejoin:miter;stroke-miterlimit:4;stroke-dasharray:none;stroke-opacity:1"
       id="path133162" />
    <path
       d="m 788.392,547.599 c -1.936,-14.788 -14.956,-36.17 -26.558,-47.77 -11.601,-11.602 -47.042,-50.15 -50.272,-67.723"
       style="fill:none;stroke:#231f20;stroke-width:0.5;stroke-linecap:butt;stroke-linejoin:miter;stroke-miterlimit:4;stroke-dasharray:none;stroke-opacity:1"
       id="path133164" />
    <path
       d="m 761.834,499.829 c -6.628,-9.782 -10.654,-15.469 -18.229,-25.476 -7.577,-10.01 -18.102,-24.644 -23.848,-35.298"
       style="fill:none;stroke:#231f20;stroke-width:0.5;stroke-linecap:butt;stroke-linejoin:miter;stroke-miterlimit:4;stroke-dasharray:none;stroke-opacity:1"
       id="path133166" />
    <path
       d="m 640.208,465.361 c -5.982,-0.789 -13.794,-8.751 -16.635,-14.21 -2.842,-5.459 -0.474,-12.283 3.077,-14.331 3.553,-2.046 8.584,-1.521 16.67,3.766"
       style="fill:none;stroke:#231f20;stroke-width:0.5;stroke-linecap:butt;stroke-linejoin:miter;stroke-miterlimit:4;stroke-dasharray:none;stroke-opacity:1"
       id="path133168" />
    <path
       d="m 655.728,465.186 c 4.305,-0.389 6.671,-2.889 6.907,-5.391 0.239,-2.503 -2.709,-8.206 -13.73,-15.24"
       style="fill:none;stroke:#231f20;stroke-width:0.5;stroke-linecap:butt;stroke-linejoin:miter;stroke-miterlimit:4;stroke-dasharray:none;stroke-opacity:1"
       id="path133170" />
    <path
       d="m 756.388,629.624 7.103,-6.51"
       style="fill:none;stroke:#231f20;stroke-width:0.5;stroke-linecap:butt;stroke-linejoin:miter;stroke-miterlimit:4;stroke-dasharray:none;stroke-opacity:1"
       id="path133172" />
    <path
       d="m 540,749.925 v 94.171"
       style="fill:none;stroke:#231f20;stroke-width:0.75;stroke-linecap:round;stroke-linejoin:round;stroke-miterlimit:4;stroke-dasharray:none;stroke-opacity:1"
       id="path133174" />
    <path
       d="m 862.817,406.696 c 2.831,0.669 6.027,1.863 6.382,4.08"
       style="fill:none;stroke:#231f20;stroke-width:0.5;stroke-linecap:butt;stroke-linejoin:miter;stroke-miterlimit:4;stroke-dasharray:none;stroke-opacity:1"
       id="path133176" />
    <path
       d="m 554.686,752.621 c 15.145,4.811 24.378,7.541 38.583,23.577 14.205,16.036 22.019,26.272 34.447,28.319 12.429,2.048 29.12,3.412 29.12,3.412"
       style="fill:none;stroke:#231f20;stroke-width:0.5;stroke-linecap:butt;stroke-linejoin:miter;stroke-miterlimit:4;stroke-dasharray:none;stroke-opacity:1"
       id="path133178" />
    <path
       d="m 593.032,666.332 c 4.262,7.052 22.967,35.484 28.884,45.266 5.918,9.781 15.863,24.11 22.018,30.707 6.154,6.597 17.519,15.24 26.751,12.966 9.233,-2.274 26.989,-9.553 34.803,-12.738 7.813,-3.184 22.49,-9.553 25.331,-11.6"
       style="fill:none;stroke:#231f20;stroke-width:0.5;stroke-linecap:butt;stroke-linejoin:miter;stroke-miterlimit:4;stroke-dasharray:none;stroke-opacity:1"
       id="path133180" />
    <path
       d="m 694.449,700.244 c 2.793,-1.856 10.575,-9.093 0.863,-12.176"
       style="fill:none;stroke:#231f20;stroke-width:0.5;stroke-linecap:butt;stroke-linejoin:miter;stroke-miterlimit:4;stroke-dasharray:none;stroke-opacity:1"
       id="path133182" />
    <path
       d="m 531.123,340.148 8.877,-0.34 8.878,0.34"
       style="fill:none;stroke:#231f20;stroke-width:0.75;stroke-linecap:round;stroke-linejoin:round;stroke-miterlimit:4;stroke-dasharray:none;stroke-opacity:1"
       id="path133184" />
    <path
       d="m 533.963,336.054 h 12.075"
       style="fill:none;stroke:#231f20;stroke-width:0.5;stroke-linecap:butt;stroke-linejoin:miter;stroke-miterlimit:4;stroke-dasharray:none;stroke-opacity:1"
       id="path133186" />
    <path
       d="m 546.392,387.574 c 0,5.802 -3.905,14.332 -6.392,14.332 -2.486,0 -6.392,-8.53 -6.392,-14.332 0,-5.799 4.262,-16.034 4.262,-19.448 0,-3.411 -2.486,-12.966 -2.486,-15.355 0,-2.388 2.486,-6.481 4.616,-6.481 2.131,0 4.618,4.093 4.618,6.481 0,2.389 -2.487,11.944 -2.487,15.355 0,3.414 4.261,13.649 4.261,19.448"
       style="fill:#706d6e;fill-opacity:1;fill-rule:nonzero;stroke:none;stroke-width:0.1"
       id="path133188" />
    <path
       d="m 546.392,387.574 c 0,5.802 -3.905,14.332 -6.392,14.332 -2.486,0 -6.392,-8.53 -6.392,-14.332 0,-5.799 4.262,-16.034 4.262,-19.448 0,-3.411 -2.486,-12.966 -2.486,-15.355 0,-2.388 2.486,-6.481 4.616,-6.481 2.131,0 4.618,4.093 4.618,6.481 0,2.389 -2.487,11.944 -2.487,15.355 0,3.414 4.261,13.649 4.261,19.448 z"
       style="fill:none;stroke:#231f20;stroke-width:0.75;stroke-linecap:round;stroke-linejoin:round;stroke-miterlimit:4;stroke-dasharray:none;stroke-opacity:1"
       id="path133190" />
    <path
       d="m 481.442,404.732 c -5.24,2.445 -10.335,0.244 -12.466,-5.215 -2.132,-5.459 -2.132,-9.555 1.775,-10.918 3.907,-1.365 7.457,0.68 9.588,4.777 2.132,4.093 4.973,9.552 1.103,11.356 z"
       style="fill:none;stroke:#231f20;stroke-width:0.5;stroke-linecap:butt;stroke-linejoin:miter;stroke-miterlimit:4;stroke-dasharray:none;stroke-opacity:1"
       id="path133192" />
    <path
       d="m 485.257,423.873 c 0,0 -11.113,46.661 6.092,43.201 7.631,-1.536 8.455,-8.903 6.037,-16.037 -2.421,-7.14 -5.445,-6.256 -8.537,-15.776 -2.13,-6.555 -3.592,-11.388 -3.592,-11.388 z"
       style="fill:none;stroke:#231f20;stroke-width:0.5;stroke-linecap:butt;stroke-linejoin:miter;stroke-miterlimit:4;stroke-dasharray:none;stroke-opacity:1"
       id="path133194" />
    <path
       d="m 406,506.653 c 3.789,-8.419 13.258,-27.752 35.277,-33.892 22.016,-6.141 39.538,-7.278 42.851,8.87 3.314,16.149 -13.021,23.43 -20.835,23.885 0,0 -18.702,-5.005 -32.198,-4.322 C 417.6,501.876 406,506.653 406,506.653 Z"
       style="fill:none;stroke:#231f20;stroke-width:0.5;stroke-linecap:butt;stroke-linejoin:miter;stroke-miterlimit:4;stroke-dasharray:none;stroke-opacity:1"
       id="path133196" />
    <path
       d="m 463.293,505.516 3.315,1.137 c 0,0 -25.806,2.273 -37.644,3.865 -11.836,1.594 -22.726,3.413 -33.144,7.964 -10.416,4.548 -28.882,12.736 -34.091,15.239 0,0 15.128,-16.379 44.271,-27.068"
       style="fill:none;stroke:#231f20;stroke-width:0.5;stroke-linecap:butt;stroke-linejoin:miter;stroke-miterlimit:4;stroke-dasharray:none;stroke-opacity:1"
       id="path133198" />
    <path
       d="m 375.976,522.042 c -1.463,0.078 -25.848,7.129 -25.848,7.129 0,0 -22.493,22.065 -26.28,43.673 -3.787,21.611 4.904,40.597 6.866,48.45 1.984,7.933 2.605,11.146 1.185,15.922"
       style="fill:none;stroke:#231f20;stroke-width:0.5;stroke-linecap:butt;stroke-linejoin:miter;stroke-miterlimit:4;stroke-dasharray:none;stroke-opacity:1"
       id="path133200" />
    <path
       d="m 285.259,523.484 c 4.498,-7.05 6.392,-3.638 6.392,-3.638 0,0 4.498,-7.734 6.866,-11.828 2.367,-4.097 8.05,-9.784 13.494,-17.971 5.445,-8.19 14.915,-18.197 23.201,-27.75 8.286,-9.554 26.99,-24.795 34.092,-30.936 3.793,-3.279 7.652,-6.752 11.02,-10.124 -8.653,5.576 -11.493,5.233 -18.24,2.505 -6.748,-2.731 -24.859,-6.485 -48.652,-3.754 -23.794,2.731 -35.774,9.082 -48.652,25.25 -8.878,11.143 -14.323,25.25 -16.691,29.569 -2.368,4.322 -10.89,13.42 -13.495,19.563 -2.603,6.141 -9.706,23.655 -10.653,29.57 -0.948,5.914 -0.001,9.1 4.024,13.193 4.026,4.094 9.944,8.415 12.312,21.154 2.367,12.737 4.263,16.833 8.76,23.429 4.497,6.597 6.628,12.056 8.758,24.111 2.131,12.054 2.369,22.292 -0.473,32.982 -2.841,10.691 -7.101,14.103 -6.865,30.481 0.236,16.376 9.707,26.613 16.809,36.167 0,0 2.129,-31.391 3.314,-41.627 1.185,-10.236 0.473,-43.901 -0.71,-58.003 -1.184,-14.104 -5.207,-40.945 -5.207,-46.404 0,-5.459 3.304,-8.546 6.391,-13.647 4.025,-6.652 14.205,-22.292 14.205,-22.292"
       style="fill:#706d6e;fill-opacity:1;fill-rule:nonzero;stroke:none;stroke-width:0.1"
       id="path133202" />
    <path
       d="m 285.259,523.484 c 4.498,-7.05 6.392,-3.638 6.392,-3.638 0,0 4.498,-7.734 6.866,-11.828 2.367,-4.097 8.05,-9.784 13.494,-17.971 5.445,-8.19 14.915,-18.197 23.201,-27.75 8.286,-9.554 26.99,-24.795 34.092,-30.936 3.793,-3.279 7.652,-6.752 11.02,-10.124 -8.653,5.576 -11.493,5.233 -18.24,2.505 -6.748,-2.731 -24.859,-6.485 -48.652,-3.754 -23.794,2.731 -35.774,9.082 -48.652,25.25 -8.878,11.143 -14.323,25.25 -16.691,29.569 -2.368,4.322 -10.89,13.42 -13.495,19.563 -2.603,6.141 -9.706,23.655 -10.653,29.57 -0.948,5.914 -0.001,9.1 4.024,13.193 4.026,4.094 9.944,8.415 12.312,21.154 2.367,12.737 4.263,16.833 8.76,23.429 4.497,6.597 6.628,12.056 8.758,24.111 2.131,12.054 2.369,22.292 -0.473,32.982 -2.841,10.691 -7.101,14.103 -6.865,30.481 0.236,16.376 9.707,26.613 16.809,36.167 0,0 2.129,-31.391 3.314,-41.627 1.185,-10.236 0.473,-43.901 -0.71,-58.003 -1.184,-14.104 -5.207,-40.945 -5.207,-46.404 0,-5.459 3.304,-8.546 6.391,-13.647 4.025,-6.652 14.205,-22.292 14.205,-22.292 z"
       style="fill:none;stroke:#231f20;stroke-width:0.75;stroke-linecap:round;stroke-linejoin:round;stroke-miterlimit:4;stroke-dasharray:none;stroke-opacity:1"
       id="path133204" />
    <path
       d="m 387.653,412.824 c -1.822,2.597 -4.389,5.466 -7.329,8.413"
       style="fill:none;stroke:#231f20;stroke-width:0.75;stroke-linecap:round;stroke-linejoin:round;stroke-miterlimit:4;stroke-dasharray:none;stroke-opacity:1"
       id="path133206" />
    <path
       d="m 555.389,683.166 -4.734,6.823 c -1.658,0.682 -6.629,0.227 -10.655,0.227 -4.024,0 -8.997,0.455 -10.653,-0.227 l -4.735,-6.823 c 0,0 -0.71,-5.234 -0.474,-9.1 0.238,-3.866 0.474,-8.871 4.498,-12.51 4.026,-3.64 7.966,-10.433 7.814,-13.648 -0.238,-5.004 -3.552,-10.464 -3.552,-12.056 0,-1.592 2.842,-8.871 7.102,-8.871 4.262,0 7.104,7.279 7.104,8.871 0,1.592 -3.316,7.052 -3.553,12.056 -0.151,3.215 3.787,10.008 7.814,13.648 4.024,3.639 4.261,8.644 4.497,12.51 0.236,3.866 -0.473,9.1 -0.473,9.1"
       style="fill:#706d6e;fill-opacity:1;fill-rule:nonzero;stroke:none;stroke-width:0.1"
       id="path133208" />
    <path
       d="m 555.389,683.166 -4.734,6.823 c -1.658,0.682 -6.629,0.227 -10.655,0.227 -4.024,0 -8.997,0.455 -10.653,-0.227 l -4.735,-6.823 c 0,0 -0.71,-5.234 -0.474,-9.1 0.238,-3.866 0.474,-8.871 4.498,-12.51 4.026,-3.64 7.966,-10.433 7.814,-13.648 -0.238,-5.004 -3.552,-10.464 -3.552,-12.056 0,-1.592 2.842,-8.871 7.102,-8.871 4.262,0 7.104,7.279 7.104,8.871 0,1.592 -3.316,7.052 -3.553,12.056 -0.151,3.215 3.787,10.008 7.814,13.648 4.024,3.639 4.261,8.644 4.497,12.51 0.236,3.866 -0.473,9.1 -0.473,9.1 z"
       style="fill:none;stroke:#231f20;stroke-width:0.75;stroke-linecap:round;stroke-linejoin:round;stroke-miterlimit:4;stroke-dasharray:none;stroke-opacity:1"
       id="path133210" />
    <path
       d="m 524.612,683.166 c -3.255,-4.076 -9.471,-13.194 -17.52,-15.924 -8.049,-2.73 -11.926,-3.213 -15.626,-2.501"
       style="fill:none;stroke:#231f20;stroke-width:0.75;stroke-linecap:round;stroke-linejoin:round;stroke-miterlimit:4;stroke-dasharray:none;stroke-opacity:1"
       id="path133212" />
    <path
       d="m 483.418,660.646 c -1.895,-1.819 -6.392,-5.004 -13.495,-3.412 -7.103,1.593 -12.757,7.507 -21.545,12.966 -9.906,6.153 -23.674,13.192 -30.778,15.922 -7.101,2.729 -29.117,1.592 -35.747,2.047 -6.63,0.455 -12.076,1.592 -31.016,-5.232 -18.938,-6.823 -31.013,-17.514 -36.695,-28.433 -5.682,-10.918 -5.575,-29.258 -9.47,-35.712 -6.865,-11.373 -29.121,-25.249 -34.382,-6.809"
       style="fill:none;stroke:#231f20;stroke-width:0.75;stroke-linecap:round;stroke-linejoin:round;stroke-miterlimit:4;stroke-dasharray:none;stroke-opacity:1"
       id="path133214" />
    <path
       d="m 524.696,668.894 c -2.689,-2.789 -6.003,-8.249 -10.265,-7.794 -4.261,0.456 -11.836,0.684 -19.886,-1.818 -8.049,-2.503 -19.651,-7.052 -21.071,-7.962 -1.419,-0.91 -2.955,1.748 -2.779,5.764"
       style="fill:none;stroke:#231f20;stroke-width:0.5;stroke-linecap:butt;stroke-linejoin:miter;stroke-miterlimit:4;stroke-dasharray:none;stroke-opacity:1"
       id="path133216" />
    <path
       d="m 533.012,636.508 c -4.376,-3.613 -12.186,-10.437 -21.184,-14.303 -8.997,-3.867 -35.276,-8.417 -39.064,7.051 0,0 -1.422,-3.867 0.946,-9.326 2.369,-5.459 5.211,-6.596 4.737,-10.01 -0.475,-3.411 0.474,-11.143 7.811,-8.641 7.339,2.501 9.47,4.319 15.863,4.548 6.391,0.228 8.286,-0.683 12.075,6.595 3.787,7.281 7.101,14.105 11.598,14.105 8.049,0 6.158,-4.322 14.206,-4.322 8.05,0 6.157,4.322 14.207,4.322 4.496,0 7.812,-6.824 11.599,-14.105 3.788,-7.278 5.683,-6.367 12.074,-6.595 6.392,-0.229 8.524,-2.047 15.862,-4.548 7.339,-2.502 8.287,5.23 7.813,8.641 -0.474,3.414 2.368,4.551 4.736,10.01 2.368,5.459 0.945,9.326 0.945,9.326 -3.787,-15.468 -30.066,-10.918 -39.064,-7.051 -8.996,3.866 -16.807,10.69 -21.184,14.303"
       style="fill:none;stroke:#231f20;stroke-width:0.5;stroke-linecap:butt;stroke-linejoin:miter;stroke-miterlimit:4;stroke-dasharray:none;stroke-opacity:1"
       id="path133218" />
    <path
       d="m 361.729,533.721 c -6.393,4.549 -18.468,12.965 -23.676,22.745 -5.207,9.782 -7.339,19.563 -5.918,29.118 1.421,9.553 7.814,27.977 8.996,31.617 1.184,3.638 2.604,14.329 2.131,17.969 -0.472,3.639 -2.132,8.643 -5.209,7.279 -1.931,-0.857 -3.864,-2.7 -5.035,-3.954"
       style="fill:none;stroke:#231f20;stroke-width:0.5;stroke-linecap:butt;stroke-linejoin:miter;stroke-miterlimit:4;stroke-dasharray:none;stroke-opacity:1"
       id="path133220" />
    <path
       d="m 291.651,519.846 c -1.895,3.866 -3.788,14.558 -3.788,20.926 0,6.368 -0.236,23.656 2.368,35.485 1.119,5.081 2.343,12.2 4.262,18.652 2.546,8.565 5.78,16.216 6.345,18.919"
       style="fill:none;stroke:#231f20;stroke-width:0.5;stroke-linecap:butt;stroke-linejoin:miter;stroke-miterlimit:4;stroke-dasharray:none;stroke-opacity:1"
       id="path133222" />
    <path
       d="m 291.651,519.846 c 1.421,3.184 -0.237,15.921 -0.237,22.518 0,6.595 1.42,20.245 3.551,36.168 2.131,15.923 8.05,31.845 10.227,41.253"
       style="fill:none;stroke:#231f20;stroke-width:0.5;stroke-linecap:butt;stroke-linejoin:miter;stroke-miterlimit:4;stroke-dasharray:none;stroke-opacity:1"
       id="path133224" />
    <path
       d="m 289.149,569.933 c 0.321,2.236 -2.708,7.461 -5.785,2.457 -3.076,-5.005 -3.788,-18.426 -2.13,-21.837 1.657,-3.413 6.002,-1.594 6.671,-10e-4"
       style="fill:none;stroke:#231f20;stroke-width:0.5;stroke-linecap:butt;stroke-linejoin:miter;stroke-miterlimit:4;stroke-dasharray:none;stroke-opacity:1"
       id="path133226" />
    <path
       d="m 304.672,618.792 c 1.685,-1.008 7.577,0.228 11.838,4.322 0,0 -8.287,-13.419 -11.601,-23.656 -3.314,-10.236 -5.32,-15.729 -2.604,-24.338 4.735,-15.014 26.987,-42.538 37.169,-55.047 10.181,-12.512 17.046,-21.382 21.307,-27.752 4.262,-6.367 11.6,-12.737 13.732,-17.968 2.131,-5.233 8.523,-13.878 14.205,-19.791 5.682,-5.913 18.704,-18.194 25.096,-23.428 6.392,-5.233 13.968,-11.146 9.706,-17.288 -4.262,-6.141 -8.05,-8.644 -11.719,-10.235"
       style="fill:none;stroke:#231f20;stroke-width:0.5;stroke-linecap:butt;stroke-linejoin:miter;stroke-miterlimit:4;stroke-dasharray:none;stroke-opacity:1"
       id="path133228" />
    <path
       d="m 291.609,547.599 c 1.936,-14.788 14.956,-36.17 26.557,-47.77 11.601,-11.602 47.042,-50.15 50.274,-67.723"
       style="fill:none;stroke:#231f20;stroke-width:0.5;stroke-linecap:butt;stroke-linejoin:miter;stroke-miterlimit:4;stroke-dasharray:none;stroke-opacity:1"
       id="path133230" />
    <path
       d="m 318.166,499.829 c 6.63,-9.782 10.656,-15.469 18.231,-25.476 7.575,-10.01 18.102,-24.644 23.847,-35.298"
       style="fill:none;stroke:#231f20;stroke-width:0.5;stroke-linecap:butt;stroke-linejoin:miter;stroke-miterlimit:4;stroke-dasharray:none;stroke-opacity:1"
       id="path133232" />
    <path
       d="m 439.792,465.361 c 5.984,-0.789 13.795,-8.751 16.636,-14.21 2.841,-5.459 0.474,-12.283 -3.077,-14.331 -3.552,-2.046 -8.585,-1.521 -16.669,3.766"
       style="fill:none;stroke:#231f20;stroke-width:0.5;stroke-linecap:butt;stroke-linejoin:miter;stroke-miterlimit:4;stroke-dasharray:none;stroke-opacity:1"
       id="path133234" />
    <path
       d="m 424.274,465.186 c -4.305,-0.389 -6.672,-2.889 -6.909,-5.391 -0.237,-2.503 2.709,-8.206 13.73,-15.24"
       style="fill:none;stroke:#231f20;stroke-width:0.5;stroke-linecap:butt;stroke-linejoin:miter;stroke-miterlimit:4;stroke-dasharray:none;stroke-opacity:1"
       id="path133236" />
    <path
       d="m 323.613,629.623 -7.103,-6.509"
       style="fill:none;stroke:#231f20;stroke-width:0.5;stroke-linecap:butt;stroke-linejoin:miter;stroke-miterlimit:4;stroke-dasharray:none;stroke-opacity:1"
       id="path133238" />
    <path
       d="m 212.241,523.178 c -1.896,-2.697 -2.795,-4.828 -2.505,-9.021 0.354,-5.117 -0.71,-23.541 -1.776,-33.777 -1.065,-10.235 -0.355,-14.672 1.066,-19.448 1.421,-4.776 11.719,-19.448 10.299,-31.731 -2.245,-19.405 -8.524,-18.425 -8.524,-18.425 1.066,2.048 3.197,11.261 3.197,18.082 0,6.824 -4.617,23.201 -7.458,29.686 -2.841,6.482 -4.262,12.624 -4.262,15.355 0,2.727 2.486,33.436 2.486,40.601 0,7.165 -2.841,32.415 -0.71,56.297 2.131,23.884 9.944,67.557 19.887,95.535 9.943,27.979 29.476,52.886 45.811,71.652 16.335,18.766 37.998,40.262 58.595,50.838 20.598,10.578 57.529,21.154 82.744,23.202 25.213,2.047 45.101,0 54.689,-1.024 9.588,-1.024 13.495,-4.777 15.269,-9.553 1.777,-4.777 5.683,-15.013 11.72,-23.884 6.037,-8.872 15.27,-16.037 24.503,-21.496 9.234,-5.459 22.728,-6.142 22.728,-6.142 0,0 13.496,0.683 22.729,6.142 9.232,5.459 18.466,12.624 24.503,21.496 6.037,8.871 9.942,19.107 11.719,23.884 1.776,4.776 5.682,8.529 15.27,9.553 9.588,1.024 29.475,3.071 54.69,1.024 25.213,-2.048 62.146,-12.624 82.744,-23.202 20.597,-10.576 42.259,-32.072 58.594,-50.838 16.336,-18.766 35.869,-43.673 45.811,-71.652 9.943,-27.978 17.757,-71.651 19.888,-95.535 2.13,-23.882 -0.712,-49.132 -0.712,-56.297 0,-7.165 2.486,-37.874 2.486,-40.601 0,-2.731 -1.42,-8.873 -4.261,-15.355 -2.84,-6.485 -7.458,-22.862 -7.458,-29.686 0,-6.821 2.131,-16.034 3.196,-18.082 0,0 -6.278,-0.98 -8.523,18.425 -1.42,12.283 8.878,26.955 10.299,31.731 1.42,4.776 2.132,9.213 1.066,19.448 -1.066,10.236 -2.13,28.66 -1.776,33.777 0.287,4.132 -0.583,6.263 -2.425,8.905"
       style="fill:none;stroke:#231f20;stroke-width:0.5;stroke-linecap:butt;stroke-linejoin:miter;stroke-miterlimit:4;stroke-dasharray:none;stroke-opacity:1"
       id="path133240" />
    <path
       d="m 217.184,406.696 c -2.832,0.669 -6.027,1.863 -6.383,4.08"
       style="fill:none;stroke:#231f20;stroke-width:0.5;stroke-linecap:butt;stroke-linejoin:miter;stroke-miterlimit:4;stroke-dasharray:none;stroke-opacity:1"
       id="path133242" />
    <path
       d="m 525.315,752.621 c -15.145,4.811 -24.378,7.541 -38.583,23.577 -14.205,16.036 -22.018,26.272 -34.447,28.319 -12.43,2.048 -29.119,3.412 -29.119,3.412"
       style="fill:none;stroke:#231f20;stroke-width:0.5;stroke-linecap:butt;stroke-linejoin:miter;stroke-miterlimit:4;stroke-dasharray:none;stroke-opacity:1"
       id="path133244" />
    <path
       d="m 267.266,705.457 c 0,0 6.392,10.69 20.834,30.479 14.442,19.79 36.459,35.94 47.112,41.172 10.654,5.231 42.142,16.149 54.926,19.562 12.785,3.412 22.728,5.686 39.537,4.322 16.809,-1.366 32.199,-15.468 36.459,-21.837 4.263,-6.37 16.338,-20.244 27.938,-29.797 11.599,-9.555 35.51,-14.331 45.928,-14.331 10.418,0 34.33,4.776 45.929,14.331 11.601,9.553 23.676,23.427 27.937,29.797 4.262,6.369 19.651,20.471 36.461,21.837 16.807,1.364 26.751,-0.91 39.536,-4.322 12.784,-3.413 44.272,-14.331 54.927,-19.562 10.652,-5.232 32.67,-21.382 47.111,-41.172 14.441,-19.789 20.834,-30.479 20.834,-30.479"
       style="fill:none;stroke:#231f20;stroke-width:0.5;stroke-linecap:butt;stroke-linejoin:miter;stroke-miterlimit:4;stroke-dasharray:none;stroke-opacity:1"
       id="path133246" />
    <path
       d="m 380.355,694.436 c -16.1,-3.186 -49.404,-16.958 -66.213,-22.644 -16.808,-5.687 -21.07,-6.142 -29.831,1.137 -8.76,7.279 -8.285,25.476 -6.154,35.485 2.131,10.008 17.756,32.073 24.858,40.261 7.103,8.189 26.279,21.609 35.038,25.931 8.759,4.322 38.591,14.558 51.138,18.425 12.548,3.867 26.754,6.141 40.248,5.004 13.495,-1.138 29.83,-15.468 34.328,-21.61 4.497,-6.141 13.259,-17.742 18.466,-23.428 5.207,-5.687 14.441,-15.923 18.468,-21.382 4.024,-5.459 8.759,-6.369 13.495,-6.823 4.734,-0.456 19.649,-1.593 25.804,-1.593 6.156,0 21.071,1.137 25.806,1.593 4.735,0.454 9.472,1.364 13.495,6.823 4.025,5.459 13.259,15.695 18.467,21.382 5.207,5.686 13.968,17.287 18.466,23.428 4.497,6.142 20.834,20.472 34.327,21.61 13.496,1.137 27.702,-1.137 40.248,-5.004 12.548,-3.867 42.379,-14.103 51.139,-18.425 8.759,-4.322 27.934,-17.742 35.038,-25.931 7.101,-8.188 22.728,-30.253 24.858,-40.261 2.131,-10.009 2.606,-28.206 -6.154,-35.485 -8.761,-7.279 -13.022,-6.824 -29.832,-1.137 -16.808,5.686 -50.113,19.458 -66.213,22.644"
       style="fill:none;stroke:#231f20;stroke-width:0.5;stroke-linecap:butt;stroke-linejoin:miter;stroke-miterlimit:4;stroke-dasharray:none;stroke-opacity:1"
       id="path133248" />
    <path
       d="m 486.97,666.332 c -4.262,7.052 -22.968,35.484 -28.886,45.266 -5.916,9.781 -15.862,24.11 -22.016,30.707 -6.155,6.597 -17.52,15.24 -26.753,12.966 -9.232,-2.274 -26.989,-9.553 -34.802,-12.738 -7.812,-3.184 -22.491,-9.553 -25.332,-11.6"
       style="fill:none;stroke:#231f20;stroke-width:0.5;stroke-linecap:butt;stroke-linejoin:miter;stroke-miterlimit:4;stroke-dasharray:none;stroke-opacity:1"
       id="path133250" />
    <path
       d="m 385.552,700.244 c -2.794,-1.856 -10.576,-9.093 -0.864,-12.176"
       style="fill:none;stroke:#231f20;stroke-width:0.5;stroke-linecap:butt;stroke-linejoin:miter;stroke-miterlimit:4;stroke-dasharray:none;stroke-opacity:1"
       id="path133252" />
    <path
       d="m 542.955,735.133 c 1.049,-2.347 11.192,-2.726 14.651,2.25"
       style="fill:none;stroke:#231f20;stroke-width:0.5;stroke-linecap:butt;stroke-linejoin:miter;stroke-miterlimit:4;stroke-dasharray:none;stroke-opacity:1"
       id="path133254" />
    <path
       d="m 537.047,735.133 c -1.049,-2.347 -11.192,-2.726 -14.651,2.25"
       style="fill:none;stroke:#231f20;stroke-width:0.5;stroke-linecap:butt;stroke-linejoin:miter;stroke-miterlimit:4;stroke-dasharray:none;stroke-opacity:1"
       id="path133256" />
    <path
       d="m 264.78,445.238 c 0,0 -4.262,-1.708 -1.065,-6.824 3.196,-5.12 15.98,-19.449 33.736,-23.203 17.757,-3.753 42.97,-4.435 52.204,-2.73 9.233,1.708 18.445,2.554 23.602,12.484"
       style="fill:none;stroke:#231f20;stroke-width:0.5;stroke-linecap:butt;stroke-linejoin:miter;stroke-miterlimit:4;stroke-dasharray:none;stroke-opacity:1"
       id="path133258" />
    <path
       d="m 815.221,445.238 c 0,0 4.262,-1.708 1.065,-6.824 -3.197,-5.12 -15.98,-19.449 -33.737,-23.203 -17.755,-3.753 -42.968,-4.435 -52.203,-2.73 -9.233,1.708 -18.446,2.554 -23.603,12.484"
       style="fill:none;stroke:#231f20;stroke-width:0.5;stroke-linecap:butt;stroke-linejoin:miter;stroke-miterlimit:4;stroke-dasharray:none;stroke-opacity:1"
       id="path133260" />
    <path
       d="m 640.197,465.348 c 0.523,-0.285 1.135,-0.48 1.842,-0.551 3.01,-0.303 5.809,-1.526 13.582,0.361"
       style="fill:none;stroke:#231f20;stroke-width:0.5;stroke-linecap:butt;stroke-linejoin:miter;stroke-miterlimit:4;stroke-dasharray:none;stroke-opacity:1"
       id="path133262" />
    <path
       d="m 439.803,465.348 c -0.523,-0.285 -1.135,-0.48 -1.841,-0.551 -3.01,-0.303 -5.81,-1.526 -13.582,0.361"
       style="fill:none;stroke:#231f20;stroke-width:0.5;stroke-linecap:butt;stroke-linejoin:miter;stroke-miterlimit:4;stroke-dasharray:none;stroke-opacity:1"
       id="path133264" />
    <path
       d="m 840.562,554.62 c -1.548,15.04 1.531,20.044 3.424,27.322 1.893,7.28 4.024,15.469 3.314,22.748 -0.711,7.278 -1.255,12.672 0.238,13.191 2.603,0.911 4.498,-3.865 8.284,-19.333 3.788,-15.467 8.924,-28.903 10.181,-34.574 2.128,-9.597 6.082,-21.554 1.822,-40.887"
       style="fill:none;stroke:#231f20;stroke-width:0.5;stroke-linecap:butt;stroke-linejoin:miter;stroke-miterlimit:4;stroke-dasharray:none;stroke-opacity:1"
       id="path133266" />
    <path
       d="m 867.84,523.062 c -0.439,0.632 -0.934,1.292 -1.482,2.016 -2.841,3.753 -7.654,11.239 -10.041,4.083"
       style="fill:none;stroke:#231f20;stroke-width:0.5;stroke-linecap:butt;stroke-linejoin:miter;stroke-miterlimit:4;stroke-dasharray:none;stroke-opacity:1"
       id="path133268" />
    <path
       d="m 239.439,554.62 c 1.548,15.04 -1.53,20.044 -3.424,27.322 -1.893,7.28 -4.024,15.469 -3.314,22.748 0.711,7.278 1.256,12.672 -0.238,13.191 -2.603,0.911 -4.498,-3.865 -8.286,-19.333 -3.786,-15.467 -8.922,-28.903 -10.179,-34.574 -2.128,-9.597 -6.081,-21.554 -1.821,-40.887"
       style="fill:none;stroke:#231f20;stroke-width:0.5;stroke-linecap:butt;stroke-linejoin:miter;stroke-miterlimit:4;stroke-dasharray:none;stroke-opacity:1"
       id="path133270" />
    <path
       d="m 223.684,529.161 c -2.388,7.156 -7.2,-0.33 -10.042,-4.083 -0.514,-0.68 -0.981,-1.304 -1.401,-1.9"
       style="fill:none;stroke:#231f20;stroke-width:0.5;stroke-linecap:butt;stroke-linejoin:miter;stroke-miterlimit:4;stroke-dasharray:none;stroke-opacity:1"
       id="path133272" />
    <path
       d="m 826.636,684.643 c 9.996,-17.658 19.978,-48.992 25.354,-72.257"
       style="fill:none;stroke:#231f20;stroke-width:0.5;stroke-linecap:butt;stroke-linejoin:miter;stroke-miterlimit:4;stroke-dasharray:none;stroke-opacity:1"
       id="path133274" />
    <path
       d="m 253.364,684.643 c -9.996,-17.658 -19.977,-48.992 -25.353,-72.257"
       style="fill:none;stroke:#231f20;stroke-width:0.5;stroke-linecap:butt;stroke-linejoin:miter;stroke-miterlimit:4;stroke-dasharray:none;stroke-opacity:1"
       id="path133276" />
    <path
       d="m 551.424,715.217 c 2.782,0.93 9.617,1.442 12.488,-3.619 2.08,-3.667 7.34,-15.014 11.128,-14.558 3.787,0.456 5.207,4.094 6.865,8.417 1.657,4.321 5.207,12.964 6.865,16.377 1.658,3.412 6.394,10.463 11.127,15.24 4.736,4.777 10.89,12.965 15.389,20.926 4.499,7.961 10.665,16.49 17.283,21.155 7.665,5.402 17.519,9.753 24.385,10.009 9.474,0.352 18.23,-2.957 23.674,-4.55 5.446,-1.592 19.178,-7.505 31.961,-11.372 12.787,-3.868 30.541,-9.783 36.933,-13.421 6.394,-3.64 13.969,-11.601 16.1,-14.559 2.13,-2.957 15.386,-18.652 18.465,-21.608 3.079,-2.957 12.549,-18.653 8.762,-33.893 -3.789,-15.239 -11.364,-13.42 -19.651,-11.828 -8.286,1.592 -24.86,7.279 -38.827,12.738 -13.968,5.459 -39.774,17.515 -46.166,20.7 -6.393,3.184 -23.304,6.651 -21.071,11.373 1.184,2.502 23.675,1.591 33.382,-5.914 3.551,-4.323 14.203,-15.012 31.723,-21.382 17.521,-6.369 28.884,-11.146 36.222,-12.282 7.341,-1.138 11.732,-1.932 15.39,2.046 3.315,3.604 6.394,6.825 5.682,14.558 -0.68,7.422 -3.313,16.833 -9.943,21.609 -4.498,2.502 -10.418,9.781 -11.129,12.284 -0.709,2.502 -2.603,5.913 -7.575,13.192 -4.97,7.279 -14.914,11.601 -21.544,14.331 -6.63,2.73 -30.776,9.553 -39.063,12.282 -8.288,2.73 -31.014,11.146 -38.354,12.056 -7.34,0.911 -18.369,-3.687 -22.58,-5.829 -4.527,-2.303 -13.643,-11.458 -16.719,-16.463 -3.077,-5.004 -8.287,-14.33 -14.68,-22.064 -6.392,-7.733 -11.6,-13.647 -15.387,-19.106 -3.789,-5.459 -5.209,-13.421 -5.92,-20.018 -0.71,-6.597 -3.786,-12.283 -8.049,-14.785 -4.26,-2.502 -6.629,1.137 -8.286,4.549 -1.658,3.412 -6.629,10.464 -9.47,16.15 -2.841,5.687 -7.103,4.778 -9.438,4.289"
       style="fill:#b2b1b1;fill-opacity:1;fill-rule:nonzero;stroke:none;stroke-width:0.1"
       id="path133278" />
    <path
       d="m 551.424,715.217 c 2.782,0.93 9.617,1.442 12.488,-3.619 2.08,-3.667 7.34,-15.014 11.128,-14.558 3.787,0.456 5.207,4.094 6.865,8.417 1.657,4.321 5.207,12.964 6.865,16.377 1.658,3.412 6.394,10.463 11.127,15.24 4.736,4.777 10.89,12.965 15.389,20.926 4.499,7.961 10.665,16.49 17.283,21.155 7.665,5.402 17.519,9.753 24.385,10.009 9.474,0.352 18.23,-2.957 23.674,-4.55 5.446,-1.592 19.178,-7.505 31.961,-11.372 12.787,-3.868 30.541,-9.783 36.933,-13.421 6.394,-3.64 13.969,-11.601 16.1,-14.559 2.13,-2.957 15.386,-18.652 18.465,-21.608 3.079,-2.957 12.549,-18.653 8.762,-33.893 -3.789,-15.239 -11.364,-13.42 -19.651,-11.828 -8.286,1.592 -24.86,7.279 -38.827,12.738 -13.968,5.459 -39.774,17.515 -46.166,20.7 -6.393,3.184 -23.304,6.651 -21.071,11.373 1.184,2.502 23.675,1.591 33.382,-5.914 3.551,-4.323 14.203,-15.012 31.723,-21.382 17.521,-6.369 28.884,-11.146 36.222,-12.282 7.341,-1.138 11.732,-1.932 15.39,2.046 3.315,3.604 6.394,6.825 5.682,14.558 -0.68,7.422 -3.313,16.833 -9.943,21.609 -4.498,2.502 -10.418,9.781 -11.129,12.284 -0.709,2.502 -2.603,5.913 -7.575,13.192 -4.97,7.279 -14.914,11.601 -21.544,14.331 -6.63,2.73 -30.776,9.553 -39.063,12.282 -8.288,2.73 -31.014,11.146 -38.354,12.056 -7.34,0.911 -18.369,-3.687 -22.58,-5.829 -4.527,-2.303 -13.643,-11.458 -16.719,-16.463 -3.077,-5.004 -8.287,-14.33 -14.68,-22.064 -6.392,-7.733 -11.6,-13.647 -15.387,-19.106 -3.789,-5.459 -5.209,-13.421 -5.92,-20.018 -0.71,-6.597 -3.786,-12.283 -8.049,-14.785 -4.26,-2.502 -6.629,1.137 -8.286,4.549 -1.658,3.412 -6.629,10.464 -9.47,16.15 -2.841,5.687 -7.103,4.778 -9.438,4.289"
       style="fill:none;stroke:#231f20;stroke-width:0.5;stroke-linecap:round;stroke-linejoin:round;stroke-miterlimit:4;stroke-dasharray:2.8, 1.8;stroke-dashoffset:0;stroke-opacity:1"
       id="path133280" />
    <path
       d="m 779.59,721.379 c 0,0 0.239,-4.548 2.131,-9.553 1.894,-5.005 3.076,-15.242 -1.658,-19.563 -4.733,-4.321 -11.126,-3.867 -21.07,-1.138 -9.943,2.73 -26.042,7.962 -34.329,12.056 -8.286,4.095 -24.148,13.649 -24.148,13.649"
       style="fill:none;stroke:#231f20;stroke-width:0.5;stroke-linecap:round;stroke-linejoin:round;stroke-miterlimit:4;stroke-dasharray:2.8, 1.8;stroke-dashoffset:0;stroke-opacity:1"
       id="path133282" />
    <path
       d="m 528.577,715.217 c -2.782,0.93 -9.617,1.442 -12.489,-3.619 -2.079,-3.667 -7.339,-15.014 -11.127,-14.558 -3.788,0.456 -5.208,4.094 -6.865,8.417 -1.658,4.321 -5.208,12.964 -6.865,16.377 -1.658,3.412 -6.394,10.463 -11.128,15.24 -4.735,4.777 -10.89,12.965 -15.389,20.926 -4.498,7.961 -10.665,16.49 -17.282,21.155 -7.665,5.402 -17.519,9.753 -24.385,10.009 -9.475,0.352 -18.231,-2.957 -23.674,-4.55 -5.446,-1.592 -19.178,-7.505 -31.962,-11.372 -12.785,-3.868 -30.541,-9.783 -36.933,-13.421 -6.393,-3.64 -13.968,-11.601 -16.099,-14.559 -2.13,-2.957 -15.387,-18.652 -18.466,-21.608 -3.079,-2.957 -12.549,-18.653 -8.76,-33.893 3.789,-15.239 11.362,-13.42 19.649,-11.828 8.287,1.592 24.861,7.279 38.828,12.738 13.967,5.459 39.774,17.515 46.165,20.7 6.394,3.184 23.304,6.651 21.071,11.373 -1.183,2.502 -23.675,1.591 -33.381,-5.914 -3.551,-4.323 -14.204,-15.012 -31.724,-21.382 -17.52,-6.369 -28.884,-11.146 -36.222,-12.282 -7.34,-1.138 -11.731,-1.932 -15.39,2.046 -3.315,3.604 -6.393,6.825 -5.682,14.558 0.681,7.422 3.314,16.833 9.944,21.609 4.497,2.502 10.417,9.781 11.128,12.284 0.71,2.502 2.603,5.913 7.575,13.192 4.971,7.279 14.915,11.601 21.545,14.331 6.63,2.73 30.776,9.553 39.062,12.282 8.288,2.73 31.014,11.146 38.354,12.056 7.34,0.911 18.37,-3.687 22.58,-5.829 4.527,-2.303 13.643,-11.458 16.72,-16.463 3.077,-5.004 8.287,-14.33 14.68,-22.064 6.392,-7.733 11.599,-13.647 15.387,-19.106 3.789,-5.459 5.209,-13.421 5.92,-20.018 0.71,-6.597 3.786,-12.283 8.049,-14.785 4.26,-2.502 6.628,1.137 8.286,4.549 1.658,3.412 6.629,10.464 9.469,16.15 2.841,5.687 7.104,4.778 9.439,4.289"
       style="fill:#b2b1b1;fill-opacity:1;fill-rule:nonzero;stroke:none;stroke-width:0.1"
       id="path133284" />
    <path
       d="m 528.577,715.217 c -2.782,0.93 -9.617,1.442 -12.489,-3.619 -2.079,-3.667 -7.339,-15.014 -11.127,-14.558 -3.788,0.456 -5.208,4.094 -6.865,8.417 -1.658,4.321 -5.208,12.964 -6.865,16.377 -1.658,3.412 -6.394,10.463 -11.128,15.24 -4.735,4.777 -10.89,12.965 -15.389,20.926 -4.498,7.961 -10.665,16.49 -17.282,21.155 -7.665,5.402 -17.519,9.753 -24.385,10.009 -9.475,0.352 -18.231,-2.957 -23.674,-4.55 -5.446,-1.592 -19.178,-7.505 -31.962,-11.372 -12.785,-3.868 -30.541,-9.783 -36.933,-13.421 -6.393,-3.64 -13.968,-11.601 -16.099,-14.559 -2.13,-2.957 -15.387,-18.652 -18.466,-21.608 -3.079,-2.957 -12.549,-18.653 -8.76,-33.893 3.789,-15.239 11.362,-13.42 19.649,-11.828 8.287,1.592 24.861,7.279 38.828,12.738 13.967,5.459 39.774,17.515 46.165,20.7 6.394,3.184 23.304,6.651 21.071,11.373 -1.183,2.502 -23.675,1.591 -33.381,-5.914 -3.551,-4.323 -14.204,-15.012 -31.724,-21.382 -17.52,-6.369 -28.884,-11.146 -36.222,-12.282 -7.34,-1.138 -11.731,-1.932 -15.39,2.046 -3.315,3.604 -6.393,6.825 -5.682,14.558 0.681,7.422 3.314,16.833 9.944,21.609 4.497,2.502 10.417,9.781 11.128,12.284 0.71,2.502 2.603,5.913 7.575,13.192 4.971,7.279 14.915,11.601 21.545,14.331 6.63,2.73 30.776,9.553 39.062,12.282 8.288,2.73 31.014,11.146 38.354,12.056 7.34,0.911 18.37,-3.687 22.58,-5.829 4.527,-2.303 13.643,-11.458 16.72,-16.463 3.077,-5.004 8.287,-14.33 14.68,-22.064 6.392,-7.733 11.599,-13.647 15.387,-19.106 3.789,-5.459 5.209,-13.421 5.92,-20.018 0.71,-6.597 3.786,-12.283 8.049,-14.785 4.26,-2.502 6.628,1.137 8.286,4.549 1.658,3.412 6.629,10.464 9.469,16.15 2.841,5.687 7.104,4.778 9.439,4.289"
       style="fill:none;stroke:#231f20;stroke-width:0.5;stroke-linecap:round;stroke-linejoin:round;stroke-miterlimit:4;stroke-dasharray:2.8, 1.8;stroke-dashoffset:0;stroke-opacity:1"
       id="path133286" />
    <path
       d="m 300.411,721.379 c 0,0 -0.238,-4.548 -2.131,-9.553 -1.894,-5.005 -3.077,-15.242 1.657,-19.563 4.735,-4.321 11.127,-3.867 21.07,-1.138 9.944,2.73 26.043,7.962 34.329,12.056 8.286,4.095 24.149,13.649 24.149,13.649"
       style="fill:none;stroke:#231f20;stroke-width:0.5;stroke-linecap:round;stroke-linejoin:round;stroke-miterlimit:4;stroke-dasharray:2.8, 1.8;stroke-dashoffset:0;stroke-opacity:1"
       id="path133288" />
    <path
       d="m 615.164,354.346 c -2.178,-0.955 -3.784,1.839 0.478,4.227 4.261,2.388 7.812,4.093 14.204,8.87 6.394,4.776 9.945,8.53 12.075,10.918 2.13,2.389 6.081,-0.025 3.9,-2.037"
       style="fill:none;stroke:#231f20;stroke-width:0.5;stroke-linecap:round;stroke-linejoin:round;stroke-miterlimit:4;stroke-dasharray:2.8, 1.8;stroke-dashoffset:0;stroke-opacity:1"
       id="path133290" />
    <path
       d="m 635.884,396.531 c 4.971,0 10.298,0.256 9.944,-7.592 -0.356,-7.847 -5.328,-8.529 -10.655,-8.529 -5.327,0 -8.502,2.844 -9.233,8.983 -0.798,6.711 9.944,7.138 9.944,7.138 z"
       style="fill:none;stroke:#231f20;stroke-width:0.5;stroke-linecap:round;stroke-linejoin:round;stroke-miterlimit:4;stroke-dasharray:2.8, 1.8;stroke-dashoffset:0;stroke-opacity:1"
       id="path133292" />
    <path
       d="m 541.016,401.505 c 0.049,3.128 5.278,7.285 10.349,4.154 4.971,-3.071 5.55,-15.436 -5.038,-16.76"
       style="fill:none;stroke:#231f20;stroke-width:0.5;stroke-linecap:round;stroke-linejoin:round;stroke-miterlimit:4;stroke-dasharray:2.8, 1.8;stroke-dashoffset:0;stroke-opacity:1"
       id="path133294" />
    <path
       d="m 550.796,390.444 c 4.474,-1.845 8.737,-6.624 9.091,-13.106 0.356,-6.481 -0.976,-9.723 -6.189,-8.078"
       style="fill:none;stroke:#231f20;stroke-width:0.5;stroke-linecap:round;stroke-linejoin:round;stroke-miterlimit:4;stroke-dasharray:2.8, 1.8;stroke-dashoffset:0;stroke-opacity:1"
       id="path133296" />
    <path
       d="m 542.72,371.482 c 4.384,1.42 10.776,-1.99 14.682,-4.379 3.905,-2.388 13.495,-11.261 22.373,-12.966 8.878,-1.706 14.299,-3.675 11.233,-8.492"
       style="fill:none;stroke:#231f20;stroke-width:0.5;stroke-linecap:round;stroke-linejoin:round;stroke-miterlimit:4;stroke-dasharray:2.8, 1.8;stroke-dashoffset:0;stroke-opacity:1"
       id="path133298" />
    <path
       d="m 561.836,363.905 c 0.538,-4.991 0.893,-12.157 -4.434,-14.887 -5.327,-2.728 -9.944,-6.14 -12.43,-6.14 -2.485,0 -4.972,3.412 -4.972,3.412"
       style="fill:none;stroke:#231f20;stroke-width:0.5;stroke-linecap:round;stroke-linejoin:round;stroke-miterlimit:4;stroke-dasharray:2.8, 1.8;stroke-dashoffset:0;stroke-opacity:1"
       id="path133300" />
    <path
       d="m 571.252,500.168 c 4.901,1.885 10.653,-1.363 12.074,-9.552 1.42,-8.188 -4.618,-11.258 -6.748,-11.601 -2.13,-0.341 -8.878,2.731 -9.944,7.164 -1.064,4.437 1.066,12.626 4.618,13.989 z"
       style="fill:none;stroke:#231f20;stroke-width:0.5;stroke-linecap:round;stroke-linejoin:round;stroke-miterlimit:4;stroke-dasharray:2.8, 1.8;stroke-dashoffset:0;stroke-opacity:1"
       id="path133302" />
    <path
       d="m 566.423,487.558 c -5.116,-2.401 -14.348,-12.637 -17.9,-22.872 -3.551,-10.238 -1.598,-27.723 -1.065,-32.414 0.502,-4.409 2.841,-8.53 9.234,-9.896 6.392,-1.365 34.893,-7.249 36.688,5.903"
       style="fill:none;stroke:#231f20;stroke-width:0.5;stroke-linecap:round;stroke-linejoin:round;stroke-miterlimit:4;stroke-dasharray:2.8, 1.8;stroke-dashoffset:0;stroke-opacity:1"
       id="path133304" />
    <path
       d="m 577.696,479.332 c 4.588,-2.335 5.891,-10.177 5.761,-15.141"
       style="fill:none;stroke:#231f20;stroke-width:0.5;stroke-linecap:round;stroke-linejoin:round;stroke-miterlimit:4;stroke-dasharray:2.8, 1.8;stroke-dashoffset:0;stroke-opacity:1"
       id="path133306" />
    <path
       d="m 580.46,420.029 c -4.71,-2.997 -9.208,-15.736 -5.658,-22.56 3.552,-6.824 9.234,-14.332 20.598,-14.672 11.364,-0.339 25.213,1.705 29.12,13.307 3.906,11.601 0.71,19.79 -9.589,23.544 -10.298,3.751 -16.934,3.99 -24.093,3.699"
       style="fill:none;stroke:#231f20;stroke-width:0.5;stroke-linecap:round;stroke-linejoin:round;stroke-miterlimit:4;stroke-dasharray:2.8, 1.8;stroke-dashoffset:0;stroke-opacity:1"
       id="path133308" />
    <path
       d="m 586.581,384.845 c -6.806,1.252 -18.41,4.434 -19.829,-0.343 -1.418,-4.775 4.262,-13.191 13.023,-18.196 8.76,-5.005 17.519,-3.182 24.148,0.683 6.628,3.868 17.163,8.506 17.23,13.282 0.053,3.777 -12.116,2.61 -15.857,2.967"
       style="fill:none;stroke:#231f20;stroke-width:0.5;stroke-linecap:round;stroke-linejoin:round;stroke-miterlimit:4;stroke-dasharray:2.8, 1.8;stroke-dashoffset:0;stroke-opacity:1"
       id="path133310" />
    <path
       d="m 611.025,485.725 c 0.458,-6.164 5.683,-9.324 15.863,-8.187 10.18,1.136 28.174,10.918 27.699,14.783 -0.474,3.868 -24.384,5.459 -30.067,4.776 -5.682,-0.68 -13.969,-5.002 -13.495,-11.372 z"
       style="fill:none;stroke:#231f20;stroke-width:0.5;stroke-linecap:round;stroke-linejoin:round;stroke-miterlimit:4;stroke-dasharray:2.8, 1.8;stroke-dashoffset:0;stroke-opacity:1"
       id="path133312" />
    <path
       d="m 565.57,661.1 c -3.316,-3.866 -4.135,-6.483 -3.078,-13.192 1.183,-7.506 -0.238,-14.558 -7.212,-18.038"
       style="fill:none;stroke:#231f20;stroke-width:0.5;stroke-linecap:round;stroke-linejoin:round;stroke-miterlimit:4;stroke-dasharray:2.8, 1.8;stroke-dashoffset:0;stroke-opacity:1"
       id="path133314" />
    <path
       d="m 585.954,659.125 c -0.26,-8.26 -2.189,-30.33 -1.225,-40.563"
       style="fill:none;stroke:#231f20;stroke-width:0.5;stroke-linecap:round;stroke-linejoin:round;stroke-miterlimit:4;stroke-dasharray:2.8, 1.8;stroke-dashoffset:0;stroke-opacity:1"
       id="path133316" />
    <path
       d="m 608.843,653.158 c -0.186,-8.207 0.287,-15.713 -1.607,-23.902"
       style="fill:none;stroke:#231f20;stroke-width:0.5;stroke-linecap:round;stroke-linejoin:round;stroke-miterlimit:4;stroke-dasharray:2.8, 1.8;stroke-dashoffset:0;stroke-opacity:1"
       id="path133318" />
    <path
       d="m 569.496,598.334 c 3.175,-6.382 5.878,-11.529 10.515,-9.794 4.682,1.75 16.099,4.094 13.731,12.739"
       style="fill:none;stroke:#231f20;stroke-width:0.5;stroke-linecap:round;stroke-linejoin:round;stroke-miterlimit:4;stroke-dasharray:2.8, 1.8;stroke-dashoffset:0;stroke-opacity:1"
       id="path133320" />
    <path
       d="m 593.742,601.279 c 4.972,-8.873 8.76,-27.07 -8.286,-48.451"
       style="fill:none;stroke:#231f20;stroke-width:0.5;stroke-linecap:round;stroke-linejoin:round;stroke-miterlimit:4;stroke-dasharray:2.8, 1.8;stroke-dashoffset:0;stroke-opacity:1"
       id="path133322" />
    <path
       d="m 549.782,594.834 c 1.392,-2.401 2.055,-11.297 2.041,-14.482 -0.017,-3.184 -2.353,-12.738 0.252,-18.426 2.604,-5.686 10.18,-10.235 16.572,-10.69 6.393,-0.455 15.625,-0.229 27.699,5.914 12.076,6.142 23.2,15.694 25.095,20.016 1.896,4.322 9.275,26.905 -13.118,58.718"
       style="fill:none;stroke:#231f20;stroke-width:0.5;stroke-linecap:round;stroke-linejoin:round;stroke-miterlimit:4;stroke-dasharray:2.8, 1.8;stroke-dashoffset:0;stroke-opacity:1"
       id="path133324" />
    <path
       d="m 625.704,565.793 c 3.794,0 8.524,-5.004 8.286,-10.235 -0.237,-5.233 -8.048,-20.018 -25.568,-20.018 -10.654,0 -2.606,17.516 1.893,22.292 3.595,3.816 10.416,7.961 15.389,7.961 z"
       style="fill:none;stroke:#231f20;stroke-width:0.5;stroke-linecap:round;stroke-linejoin:round;stroke-miterlimit:4;stroke-dasharray:2.8, 1.8;stroke-dashoffset:0;stroke-opacity:1"
       id="path133326" />
    <path
       d="m 733.119,624.617 c -0.168,-9.919 -2.813,-38.053 -5.376,-47.906 -3.551,-13.647 -22.334,-39.826 -32.783,-53.491"
       style="fill:none;stroke:#231f20;stroke-width:0.5;stroke-linecap:round;stroke-linejoin:round;stroke-miterlimit:4;stroke-dasharray:2.8, 1.8;stroke-dashoffset:0;stroke-opacity:1"
       id="path133328" />
    <path
       d="m 610.682,657.384 c 4.367,-4.017 20.229,-25.627 22.833,-42.005 2.606,-16.377 3.553,-31.842 3.789,-35.938 0.237,-4.095 2.368,-13.193 2.131,-19.562 -0.237,-6.369 -0.715,-15.387 -2.014,-19.977"
       style="fill:none;stroke:#231f20;stroke-width:0.5;stroke-linecap:round;stroke-linejoin:round;stroke-miterlimit:4;stroke-dasharray:2.8, 1.8;stroke-dashoffset:0;stroke-opacity:1"
       id="path133330" />
    <path
       d="m 632.181,621.025 c 2.755,8.914 27.14,23.698 44.897,23.472 21.779,-0.28 41.194,-2.958 59.662,-9.327"
       style="fill:none;stroke:#231f20;stroke-width:0.5;stroke-linecap:round;stroke-linejoin:round;stroke-miterlimit:4;stroke-dasharray:2.8, 1.8;stroke-dashoffset:0;stroke-opacity:1"
       id="path133332" />
    <path
       d="m 672.108,687.688 c 3.313,-5.205 6.864,-24.768 4.97,-43.191"
       style="fill:none;stroke:#231f20;stroke-width:0.5;stroke-linecap:round;stroke-linejoin:round;stroke-miterlimit:4;stroke-dasharray:2.8, 1.8;stroke-dashoffset:0;stroke-opacity:1"
       id="path133334" />
    <path
       d="m 711.868,687.876 c 3.8,-10.398 8.298,-24.727 15.4,-34.053 7.103,-9.326 31.978,-16.107 43.216,-14.536"
       style="fill:none;stroke:#231f20;stroke-width:0.5;stroke-linecap:round;stroke-linejoin:round;stroke-miterlimit:4;stroke-dasharray:2.8, 1.8;stroke-dashoffset:0;stroke-opacity:1"
       id="path133336" />
    <path
       d="m 709.831,420.51 c -1.975,-0.068 -9.55,1.072 -11.918,-6.435 -2.369,-7.507 -2.369,-15.012 -0.949,-17.743 1.422,-2.731 4.025,-5.687 11.838,-5.004 7.812,0.682 24.149,0.682 31.961,-1.366 7.813,-2.046 17.758,-5.914 25.333,-7.733 7.575,-1.819 24.384,-0.917 17.991,12.504"
       style="fill:none;stroke:#231f20;stroke-width:0.5;stroke-linecap:round;stroke-linejoin:round;stroke-miterlimit:4;stroke-dasharray:2.8, 1.8;stroke-dashoffset:0;stroke-opacity:1"
       id="path133338" />
    <path
       d="m 771.977,413.427 c 2.404,-5.268 8.798,-19.826 19.688,-22.782 10.889,-2.957 34.751,-3.397 40.906,3.427"
       style="fill:none;stroke:#231f20;stroke-width:0.5;stroke-linecap:round;stroke-linejoin:round;stroke-miterlimit:4;stroke-dasharray:2.8, 1.8;stroke-dashoffset:0;stroke-opacity:1"
       id="path133340" />
    <path
       d="m 801.814,423.975 c 1.215,-9.675 40.932,-17.514 49.455,-16.831"
       style="fill:none;stroke:#231f20;stroke-width:0.5;stroke-linecap:round;stroke-linejoin:round;stroke-miterlimit:4;stroke-dasharray:2.8, 1.8;stroke-dashoffset:0;stroke-opacity:1"
       id="path133342" />
    <path
       d="m 718.123,490.765 c -10.742,-9.362 -37.256,-28.925 -45.78,-34.384 -8.523,-5.459 -15.153,-10.463 -17.519,-15.465 -2.368,-5.005 -4.347,-16.187 0.43,-22.993"
       style="fill:none;stroke:#231f20;stroke-width:0.5;stroke-linecap:round;stroke-linejoin:round;stroke-miterlimit:4;stroke-dasharray:2.8, 1.8;stroke-dashoffset:0;stroke-opacity:1"
       id="path133344" />
    <path
       d="m 678.95,460.877 c -11.578,-6.769 -25.507,-13.887 -30.045,-16.322 -8.05,-4.322 -15.428,-14.174 -14.915,-21.61 0.236,-3.411 2.035,-5.881 4.498,-6.596 4.105,-1.194 10.253,2.149 14.05,9.107"
       style="fill:none;stroke:#231f20;stroke-width:0.5;stroke-linecap:round;stroke-linejoin:round;stroke-miterlimit:4;stroke-dasharray:2.8, 1.8;stroke-dashoffset:0;stroke-opacity:1"
       id="path133346" />
    <path
       d="m 573.145,530.553 c -5.456,-0.005 -13.258,-7.751 -5.531,-19.619"
       style="fill:none;stroke:#231f20;stroke-width:0.5;stroke-linecap:round;stroke-linejoin:round;stroke-miterlimit:4;stroke-dasharray:2.8, 1.8;stroke-dashoffset:0;stroke-opacity:1"
       id="path133348" />
    <path
       d="m 611.95,529.49 c 4.52,-0.545 21.33,-4.869 28.905,-6.914 7.575,-2.048 22.077,-8.337 13.762,-11.561"
       style="fill:none;stroke:#231f20;stroke-width:0.5;stroke-linecap:round;stroke-linejoin:round;stroke-miterlimit:4;stroke-dasharray:2.8, 1.8;stroke-dashoffset:0;stroke-opacity:1"
       id="path133350" />
    <path
       d="m 729.874,529.171 c 2.841,0.683 10.178,2.049 10.889,1.137 0.71,-0.909 -0.766,-8.224 -0.62,-10.708"
       style="fill:none;stroke:#231f20;stroke-width:0.5;stroke-linecap:round;stroke-linejoin:round;stroke-miterlimit:4;stroke-dasharray:2.8, 1.8;stroke-dashoffset:0;stroke-opacity:1"
       id="path133352" />
    <path
       d="m 740.763,530.308 c -6.628,-5.913 -49.221,-40.631 -85.692,-49.318"
       style="fill:none;stroke:#231f20;stroke-width:0.5;stroke-linecap:round;stroke-linejoin:round;stroke-miterlimit:4;stroke-dasharray:2.8, 1.8;stroke-dashoffset:0;stroke-opacity:1"
       id="path133354" />
    <path
       d="m 655.621,465.158 c 3.837,0.931 8.888,2.622 15.776,5.555 20.834,8.871 44.561,20.73 51.756,27.198"
       style="fill:none;stroke:#231f20;stroke-width:0.5;stroke-linecap:round;stroke-linejoin:round;stroke-miterlimit:4;stroke-dasharray:2.8, 1.8;stroke-dashoffset:0;stroke-opacity:1"
       id="path133356" />
    <path
       d="m 638.724,472.761 c -1.597,-1.726 -1.344,-5.881 1.473,-7.413"
       style="fill:none;stroke:#231f20;stroke-width:0.5;stroke-linecap:round;stroke-linejoin:round;stroke-miterlimit:4;stroke-dasharray:2.8, 1.8;stroke-dashoffset:0;stroke-opacity:1"
       id="path133358" />
    <path
       d="m 424.38,465.158 c -3.838,0.931 -8.889,2.622 -15.776,5.555 -20.834,8.871 -44.562,20.73 -51.756,27.198"
       style="fill:none;stroke:#231f20;stroke-width:0.5;stroke-linecap:round;stroke-linejoin:round;stroke-miterlimit:4;stroke-dasharray:2.8, 1.8;stroke-dashoffset:0;stroke-opacity:1"
       id="path133360" />
    <path
       d="m 441.277,472.761 c 1.597,-1.726 1.344,-5.881 -1.474,-7.413"
       style="fill:none;stroke:#231f20;stroke-width:0.5;stroke-linecap:round;stroke-linejoin:round;stroke-miterlimit:4;stroke-dasharray:2.8, 1.8;stroke-dashoffset:0;stroke-opacity:1"
       id="path133362" />
    <path
       d="m 748.82,642.018 c -2.067,0.633 -3.706,-1.539 -1.91,-3.446"
       style="fill:none;stroke:#231f20;stroke-width:0.5;stroke-linecap:round;stroke-linejoin:round;stroke-miterlimit:4;stroke-dasharray:2.8, 1.8;stroke-dashoffset:0;stroke-opacity:1"
       id="path133364" />
    <path
       d="m 707.376,391.241 c -3.546,-1.962 -5.914,-12.426 0.005,-20.384 5.92,-7.962 26.28,-18.88 54.926,-23.885 28.648,-5.005 51.136,-5.913 57.293,-4.776 6.156,1.136 11.839,2.731 16.1,5.005 4.262,2.274 12.072,4.093 21.544,3.865 9.47,-0.229 16.335,1.365 29.12,7.735 12.784,6.368 22.49,11.373 31.25,27.979 8.76,16.602 16.099,42.306 18.23,51.179 2.132,8.87 7.605,26.223 4.288,27.135"
       style="fill:none;stroke:#231f20;stroke-width:0.5;stroke-linecap:round;stroke-linejoin:round;stroke-miterlimit:4;stroke-dasharray:2.8, 1.8;stroke-dashoffset:0;stroke-opacity:1"
       id="path133366" />
    <path
       d="m 937.475,465.469 c -1.656,0.229 -5.891,-4.765 -7.549,-14.093 -1.658,-9.324 -6.865,-33.436 -10.654,-42.989 -3.788,-9.553 -9.708,-25.475 -22.965,-35.031 -13.258,-9.552 -18.231,-12.055 -24.148,-13.417 -5.918,-1.366 -12.311,-1.823 -15.625,-0.911 -3.315,0.911 -8.287,2.276 -20.361,-2.275 -12.074,-4.55 -22.965,-4.093 -36.222,-3.639 -13.257,0.454 -20.991,-0.712 -30.699,2.015"
       style="fill:none;stroke:#231f20;stroke-width:0.5;stroke-linecap:round;stroke-linejoin:round;stroke-miterlimit:4;stroke-dasharray:2.8, 1.8;stroke-dashoffset:0;stroke-opacity:1"
       id="path133368" />
    <path
       d="m 759.196,384.179 c 3.294,-0.99 8.854,-6.854 10.215,-12.639 1.658,-7.053 3.471,-21.1 -9.747,-24.084"
       style="fill:none;stroke:#231f20;stroke-width:0.5;stroke-linecap:round;stroke-linejoin:round;stroke-miterlimit:4;stroke-dasharray:2.8, 1.8;stroke-dashoffset:0;stroke-opacity:1"
       id="path133370" />
    <path
       d="m 858.487,337.605 c -2.9,24.833 -1.007,31.658 1.597,38.937 2.604,7.281 7.34,15.24 5.682,25.25 -1.266,7.651 -8.29,5.752 -13.495,5.458 -4.024,-0.228 -15.625,-3.868 -18.939,-11.146 -3.314,-7.279 -0.42,-14.77 1.183,-20.471 2.368,-8.419 1.95,-29.743 0.976,-41.826"
       style="fill:none;stroke:#231f20;stroke-width:0.5;stroke-linecap:round;stroke-linejoin:round;stroke-miterlimit:4;stroke-dasharray:2.8, 1.8;stroke-dashoffset:0;stroke-opacity:1"
       id="path133372" />
    <path
       d="m 545.328,750.608 c 0,0 0.354,2.729 4.26,3.071"
       style="fill:none;stroke:#231f20;stroke-width:0.5;stroke-linecap:round;stroke-linejoin:round;stroke-miterlimit:4;stroke-dasharray:2.8, 1.8;stroke-dashoffset:6.0038;stroke-opacity:1"
       id="path133374" />
    <path
       d="m 867.14,418.356 c 4.191,-5.192 9.518,-8.604 13.068,-7.921 3.038,0.582 24.087,11.239 9.234,46.403 -2.52,5.963 -5.683,11.599 -11.72,17.061"
       style="fill:none;stroke:#231f20;stroke-width:0.5;stroke-linecap:round;stroke-linejoin:round;stroke-miterlimit:4;stroke-dasharray:2.8, 1.8;stroke-dashoffset:0;stroke-opacity:1"
       id="path133376" />
    <path
       d="m 815.943,446.163 c 6.024,-4.339 16.164,-11.95 44.831,-11.215"
       style="fill:none;stroke:#231f20;stroke-width:0.5;stroke-linecap:round;stroke-linejoin:round;stroke-miterlimit:4;stroke-dasharray:2.8, 1.8;stroke-dashoffset:0;stroke-opacity:1"
       id="path133378" />
    <path
       d="m 834.158,478.155 c 8.052,3.591 29.55,-0.174 38.334,-8.699"
       style="fill:none;stroke:#231f20;stroke-width:0.5;stroke-linecap:round;stroke-linejoin:round;stroke-miterlimit:4;stroke-dasharray:2.8, 1.8;stroke-dashoffset:0;stroke-opacity:1"
       id="path133380" />
    <path
       d="m 877.722,473.899 73.026,-10.304"
       style="fill:none;stroke:#231f20;stroke-width:0.5;stroke-linecap:round;stroke-linejoin:round;stroke-miterlimit:4;stroke-dasharray:2.8, 1.8;stroke-dashoffset:0;stroke-opacity:1"
       id="path133382" />
    <path
       d="m 876.759,488.554 75.521,-4.08"
       style="fill:none;stroke:#231f20;stroke-width:0.5;stroke-linecap:round;stroke-linejoin:round;stroke-miterlimit:4;stroke-dasharray:2.8, 1.8;stroke-dashoffset:0;stroke-opacity:1"
       id="path133384" />
    <path
       d="m 876.025,529.185 78.989,-4.376"
       style="fill:none;stroke:#231f20;stroke-width:0.5;stroke-linecap:round;stroke-linejoin:round;stroke-miterlimit:4;stroke-dasharray:2.8, 1.8;stroke-dashoffset:0;stroke-opacity:1"
       id="path133386" />
    <path
       d="m 875.723,573.165 98.343,-2.021"
       style="fill:none;stroke:#231f20;stroke-width:0.5;stroke-linecap:round;stroke-linejoin:round;stroke-miterlimit:4;stroke-dasharray:2.8, 1.8;stroke-dashoffset:0;stroke-opacity:1"
       id="path133388" />
    <path
       d="m 872.363,598.088 100.459,9.225"
       style="fill:none;stroke:#231f20;stroke-width:0.5;stroke-linecap:round;stroke-linejoin:round;stroke-miterlimit:4;stroke-dasharray:2.8, 1.8;stroke-dashoffset:0;stroke-opacity:1"
       id="path133390" />
    <path
       d="M 860.222,653.34 963.12,681.046"
       style="fill:none;stroke:#231f20;stroke-width:0.5;stroke-linecap:round;stroke-linejoin:round;stroke-miterlimit:4;stroke-dasharray:2.8, 1.8;stroke-dashoffset:0;stroke-opacity:1"
       id="path133392" />
    <path
       d="m 850.442,679.853 98.645,39.358"
       style="fill:none;stroke:#231f20;stroke-width:0.5;stroke-linecap:round;stroke-linejoin:round;stroke-miterlimit:4;stroke-dasharray:2.8, 1.8;stroke-dashoffset:0;stroke-opacity:1"
       id="path133394" />
    <path
       d="M 833.098,709.171 925,759.169"
       style="fill:none;stroke:#231f20;stroke-width:0.5;stroke-linecap:round;stroke-linejoin:round;stroke-miterlimit:4;stroke-dasharray:2.8, 1.8;stroke-dashoffset:0;stroke-opacity:1"
       id="path133396" />
    <path
       d="m 771.879,775.496 49.966,77.821"
       style="fill:none;stroke:#231f20;stroke-width:0.5;stroke-linecap:round;stroke-linejoin:round;stroke-miterlimit:4;stroke-dasharray:2.8, 1.8;stroke-dashoffset:0;stroke-opacity:1"
       id="path133398" />
    <path
       d="m 699.11,806.959 20.336,86.734"
       style="fill:none;stroke:#231f20;stroke-width:0.5;stroke-linecap:round;stroke-linejoin:round;stroke-miterlimit:4;stroke-dasharray:2.8, 1.8;stroke-dashoffset:0;stroke-opacity:1"
       id="path133400" />
    <path
       d="m 635.176,812.64 -8.544,86.337"
       style="fill:none;stroke:#231f20;stroke-width:0.5;stroke-linecap:round;stroke-linejoin:round;stroke-miterlimit:4;stroke-dasharray:2.8, 1.8;stroke-dashoffset:0;stroke-opacity:1"
       id="path133402" />
    <path
       d="m 607.505,809.553 -56.584,62.248"
       style="fill:none;stroke:#231f20;stroke-width:0.5;stroke-linecap:round;stroke-linejoin:round;stroke-miterlimit:4;stroke-dasharray:2.8, 1.8;stroke-dashoffset:0;stroke-opacity:1"
       id="path133404" />
    <path
       d="m 541.906,723.226 c 1.882,-1.62 5.75,-6.321 5.908,-9.352 0.236,-4.55 -0.71,-8.873 0,-9.1 0.709,-0.228 4.497,5.459 3.551,10.918 -0.947,5.459 -5.927,7.667 -5.927,7.667"
       style="fill:#b2b1b1;fill-opacity:1;fill-rule:nonzero;stroke:none;stroke-width:0.1"
       id="path133406" />
    <path
       d="m 541.906,723.226 c 1.882,-1.62 5.75,-6.321 5.908,-9.352 0.236,-4.55 -0.71,-8.873 0,-9.1 0.709,-0.228 4.497,5.459 3.551,10.918 -0.947,5.459 -5.927,7.667 -5.927,7.667"
       style="fill:none;stroke:#231f20;stroke-width:0.5;stroke-linecap:round;stroke-linejoin:round;stroke-miterlimit:4;stroke-dasharray:2.8, 1.8;stroke-dashoffset:0;stroke-opacity:1"
       id="path133408" />
    <path
       d="m 547.814,704.774 c 3.551,-5.687 11.836,-16.15 16.335,-22.291 4.498,-6.142 9.706,-12.283 15.626,-12.057 5.919,0.229 12.074,6.143 22.017,23.202 9.943,17.06 26.989,42.537 33.381,51.863 6.392,9.326 19.412,22.291 29.594,19.334 10.181,-2.957 40.722,-12.511 50.901,-17.287 10.18,-4.777 22.254,-10.692 26.753,-14.786 4.497,-4.094 6.238,-9.888 2.369,-12.738 -3.168,-2.332 -7.786,-2.417 -12.549,0 -5.618,2.85 -9.909,5.448 -9.909,5.448"
       style="fill:none;stroke:#231f20;stroke-width:0.5;stroke-linecap:round;stroke-linejoin:round;stroke-miterlimit:4;stroke-dasharray:2.8, 1.8;stroke-dashoffset:0;stroke-opacity:1"
       id="path133410" />
    <path
       d="m 766.245,738.518 3.3,1.843"
       style="fill:none;stroke:#231f20;stroke-width:0.5;stroke-linecap:round;stroke-linejoin:round;stroke-miterlimit:4;stroke-dasharray:2.8, 1.8;stroke-dashoffset:0;stroke-opacity:1"
       id="path133412" />
    <path
       d="m 779.59,721.379 4.497,2.275"
       style="fill:none;stroke:#231f20;stroke-width:0.5;stroke-linecap:round;stroke-linejoin:round;stroke-miterlimit:4;stroke-dasharray:2.8, 1.8;stroke-dashoffset:0;stroke-opacity:1"
       id="path133414" />
    <path
       d="m 730.819,730.933 11.602,1.819"
       style="fill:none;stroke:#231f20;stroke-width:0.5;stroke-linecap:round;stroke-linejoin:round;stroke-miterlimit:4;stroke-dasharray:2.8, 1.8;stroke-dashoffset:0;stroke-opacity:1"
       id="path133416" />
    <path
       d="m 693.887,700.679 c -3.788,2.048 -20.03,9.561 -27.225,8.417 -7.162,-1.138 -13.733,-4.322 -21.544,-11.146 -7.814,-6.825 -15.154,-10.918 -17.994,-13.875 0,0 11.601,14.102 15.389,19.335 3.787,5.231 11.837,17.287 14.679,22.291 2.841,5.004 7.1,10.919 14.677,9.553 7.578,-1.364 22.965,-5.004 27.227,-5.915 4.261,-0.909 15.388,-5.003 17.756,-7.277 2.368,-2.275 5.445,-3.867 6.629,-2.73 1.185,1.137 2.367,4.549 -2.368,6.824 -4.735,2.274 -13.257,5.005 -21.069,6.824 -7.813,1.818 -14.68,3.185 -20.126,5.686 -5.444,2.502 -8.286,2.729 -13.02,2.275 -4.735,-0.454 -10.18,-0.227 -13.021,-5.914 -2.84,-5.688 -8.524,-20.927 -12.548,-27.069 -4.025,-6.141 -20.124,-22.292 -24.859,-26.613 -4.735,-4.322 -9.231,-9.098 -7.339,-12.511 1.894,-3.411 4.734,-0.909 10.18,4.095 5.446,5.004 14.442,11.373 19.413,15.467 4.972,4.095 14.916,12.283 19.178,14.104 4.261,1.819 12.308,2.729 17.519,0.681 5.208,-2.047 9.705,-3.735 12.784,-5.003 3.316,-1.365 6.392,-1.594 7.102,-0.228 0.71,1.364 -1.42,2.729 -1.42,2.729"
       style="fill:#b2b1b1;fill-opacity:1;fill-rule:nonzero;stroke:none;stroke-width:0.1"
       id="path133418" />
    <path
       d="m 693.887,700.679 c -3.788,2.048 -20.03,9.561 -27.225,8.417 -7.162,-1.138 -13.733,-4.322 -21.544,-11.146 -7.814,-6.825 -15.154,-10.918 -17.994,-13.875 0,0 11.601,14.102 15.389,19.335 3.787,5.231 11.837,17.287 14.679,22.291 2.841,5.004 7.1,10.919 14.677,9.553 7.578,-1.364 22.965,-5.004 27.227,-5.915 4.261,-0.909 15.388,-5.003 17.756,-7.277 2.368,-2.275 5.445,-3.867 6.629,-2.73 1.185,1.137 2.367,4.549 -2.368,6.824 -4.735,2.274 -13.257,5.005 -21.069,6.824 -7.813,1.818 -14.68,3.185 -20.126,5.686 -5.444,2.502 -8.286,2.729 -13.02,2.275 -4.735,-0.454 -10.18,-0.227 -13.021,-5.914 -2.84,-5.688 -8.524,-20.927 -12.548,-27.069 -4.025,-6.141 -20.124,-22.292 -24.859,-26.613 -4.735,-4.322 -9.231,-9.098 -7.339,-12.511 1.894,-3.411 4.734,-0.909 10.18,4.095 5.446,5.004 14.442,11.373 19.413,15.467 4.972,4.095 14.916,12.283 19.178,14.104 4.261,1.819 12.308,2.729 17.519,0.681 5.208,-2.047 9.705,-3.735 12.784,-5.003 3.316,-1.365 6.392,-1.594 7.102,-0.228 0.71,1.364 -1.42,2.729 -1.42,2.729 z"
       style="fill:none;stroke:#231f20;stroke-width:0.5;stroke-linecap:round;stroke-linejoin:round;stroke-miterlimit:4;stroke-dasharray:2.8, 1.8;stroke-dashoffset:0;stroke-opacity:1"
       id="path133420" />
    <path
       d="m 689.849,702.7 c -1.407,3.211 -7.798,7.534 -11.114,9.126 -3.314,1.591 -11.397,6.21 -11.735,9.587 -0.338,3.379 3.212,6.335 13.157,5.197 9.942,-1.137 22.253,-3.411 25.331,-4.321 3.078,-0.91 12.071,-3.673 13.494,-1.951"
       style="fill:none;stroke:#231f20;stroke-width:0.5;stroke-linecap:round;stroke-linejoin:round;stroke-miterlimit:4;stroke-dasharray:2.8, 1.8;stroke-dashoffset:0;stroke-opacity:1"
       id="path133422" />
    <path
       d="m 464.837,354.346 c 2.177,-0.955 3.784,1.839 -0.477,4.227 -4.263,2.388 -7.814,4.093 -14.205,8.87 -6.393,4.776 -9.945,8.53 -12.074,10.918 -2.131,2.389 -6.082,-0.025 -3.901,-2.037"
       style="fill:none;stroke:#231f20;stroke-width:0.5;stroke-linecap:round;stroke-linejoin:round;stroke-miterlimit:4;stroke-dasharray:2.8, 1.8;stroke-dashoffset:0;stroke-opacity:1"
       id="path133424" />
    <path
       d="m 444.118,396.531 c -4.973,0 -10.3,0.256 -9.945,-7.592 0.355,-7.847 5.327,-8.529 10.655,-8.529 5.327,0 8.503,2.844 9.232,8.983 0.8,6.711 -9.942,7.138 -9.942,7.138 z"
       style="fill:none;stroke:#231f20;stroke-width:0.5;stroke-linecap:round;stroke-linejoin:round;stroke-miterlimit:4;stroke-dasharray:2.8, 1.8;stroke-dashoffset:0;stroke-opacity:1"
       id="path133426" />
    <path
       d="m 538.985,401.505 c -0.05,3.128 -5.278,7.285 -10.349,4.154 -4.97,-3.071 -5.55,-15.436 5.037,-16.76"
       style="fill:none;stroke:#231f20;stroke-width:0.5;stroke-linecap:round;stroke-linejoin:round;stroke-miterlimit:4;stroke-dasharray:2.8, 1.8;stroke-dashoffset:0;stroke-opacity:1"
       id="path133428" />
    <path
       d="m 529.205,390.444 c -4.475,-1.845 -8.736,-6.624 -9.092,-13.106 -0.355,-6.481 0.976,-9.723 6.189,-8.078"
       style="fill:none;stroke:#231f20;stroke-width:0.5;stroke-linecap:round;stroke-linejoin:round;stroke-miterlimit:4;stroke-dasharray:2.8, 1.8;stroke-dashoffset:0;stroke-opacity:1"
       id="path133430" />
    <path
       d="m 537.281,371.482 c -4.383,1.42 -10.775,-1.99 -14.682,-4.379 -3.906,-2.388 -13.494,-11.261 -22.372,-12.966 -8.878,-1.706 -14.299,-3.675 -11.233,-8.492"
       style="fill:none;stroke:#231f20;stroke-width:0.5;stroke-linecap:round;stroke-linejoin:round;stroke-miterlimit:4;stroke-dasharray:2.8, 1.8;stroke-dashoffset:0;stroke-opacity:1"
       id="path133432" />
    <path
       d="m 518.165,363.905 c -0.537,-4.991 -0.893,-12.157 4.434,-14.887 5.327,-2.728 9.945,-6.14 12.429,-6.14 2.486,0 4.972,3.412 4.972,3.412"
       style="fill:none;stroke:#231f20;stroke-width:0.5;stroke-linecap:round;stroke-linejoin:round;stroke-miterlimit:4;stroke-dasharray:2.8, 1.8;stroke-dashoffset:0;stroke-opacity:1"
       id="path133434" />
    <path
       d="m 508.75,500.168 c -4.903,1.885 -10.654,-1.363 -12.076,-9.552 -1.419,-8.188 4.618,-11.258 6.749,-11.601 2.13,-0.341 8.878,2.731 9.943,7.164 1.065,4.437 -1.065,12.626 -4.616,13.989 z"
       style="fill:none;stroke:#231f20;stroke-width:0.5;stroke-linecap:round;stroke-linejoin:round;stroke-miterlimit:4;stroke-dasharray:2.8, 1.8;stroke-dashoffset:0;stroke-opacity:1"
       id="path133436" />
    <path
       d="m 513.577,487.558 c 5.116,-2.401 14.349,-12.637 17.9,-22.872 3.551,-10.238 1.598,-27.723 1.067,-32.414 -0.502,-4.409 -2.841,-8.53 -9.235,-9.896 -6.391,-1.365 -34.893,-7.249 -36.687,5.903"
       style="fill:none;stroke:#231f20;stroke-width:0.5;stroke-linecap:round;stroke-linejoin:round;stroke-miterlimit:4;stroke-dasharray:2.8, 1.8;stroke-dashoffset:0;stroke-opacity:1"
       id="path133438" />
    <path
       d="m 502.306,479.332 c -4.588,-2.335 -5.891,-10.177 -5.761,-15.141"
       style="fill:none;stroke:#231f20;stroke-width:0.5;stroke-linecap:round;stroke-linejoin:round;stroke-miterlimit:4;stroke-dasharray:2.8, 1.8;stroke-dashoffset:0;stroke-opacity:1"
       id="path133440" />
    <path
       d="m 499.541,420.029 c 4.71,-2.997 9.209,-15.736 5.657,-22.56 -3.551,-6.824 -9.233,-14.332 -20.597,-14.672 -11.363,-0.339 -25.214,1.705 -29.119,13.307 -3.907,11.601 -0.712,19.79 9.588,23.544 10.298,3.751 16.934,3.99 24.093,3.699"
       style="fill:none;stroke:#231f20;stroke-width:0.5;stroke-linecap:round;stroke-linejoin:round;stroke-miterlimit:4;stroke-dasharray:2.8, 1.8;stroke-dashoffset:0;stroke-opacity:1"
       id="path133442" />
    <path
       d="m 493.421,384.845 c 6.806,1.252 18.409,4.434 19.827,-0.343 1.42,-4.775 -4.261,-13.191 -13.021,-18.196 -8.761,-5.005 -17.519,-3.182 -24.148,0.683 -6.63,3.868 -17.164,8.506 -17.231,13.282 -0.054,3.777 12.116,2.61 15.858,2.967"
       style="fill:none;stroke:#231f20;stroke-width:0.5;stroke-linecap:round;stroke-linejoin:round;stroke-miterlimit:4;stroke-dasharray:2.8, 1.8;stroke-dashoffset:0;stroke-opacity:1"
       id="path133444" />
    <path
       d="m 468.976,485.725 c -0.457,-6.164 -5.684,-9.324 -15.863,-8.187 -10.179,1.136 -28.174,10.918 -27.699,14.783 0.474,3.868 24.385,5.459 30.068,4.776 5.681,-0.68 13.967,-5.002 13.494,-11.372 z"
       style="fill:none;stroke:#231f20;stroke-width:0.5;stroke-linecap:round;stroke-linejoin:round;stroke-miterlimit:4;stroke-dasharray:2.8, 1.8;stroke-dashoffset:0;stroke-opacity:1"
       id="path133446" />
    <path
       d="m 514.431,661.1 c 3.316,-3.866 4.136,-6.483 3.077,-13.192 -1.182,-7.506 0.239,-14.558 7.212,-18.038"
       style="fill:none;stroke:#231f20;stroke-width:0.5;stroke-linecap:round;stroke-linejoin:round;stroke-miterlimit:4;stroke-dasharray:2.8, 1.8;stroke-dashoffset:0;stroke-opacity:1"
       id="path133448" />
    <path
       d="m 494.048,659.125 c 0.259,-8.26 2.188,-30.33 1.223,-40.563"
       style="fill:none;stroke:#231f20;stroke-width:0.5;stroke-linecap:round;stroke-linejoin:round;stroke-miterlimit:4;stroke-dasharray:2.8, 1.8;stroke-dashoffset:0;stroke-opacity:1"
       id="path133450" />
    <path
       d="m 471.159,653.158 c 0.184,-8.207 -0.288,-15.713 1.605,-23.902"
       style="fill:none;stroke:#231f20;stroke-width:0.5;stroke-linecap:round;stroke-linejoin:round;stroke-miterlimit:4;stroke-dasharray:2.8, 1.8;stroke-dashoffset:0;stroke-opacity:1"
       id="path133452" />
    <path
       d="m 511.353,608.079 c -3.789,-12.536 3.64,-18.885 4.973,-19.539 1.39,-0.683 8.05,-2.047 10.89,1.592 2.841,3.64 6.392,10.464 6.866,17.06 0.474,6.596 3.55,9.098 5.918,9.098 2.368,0 5.446,-2.502 5.919,-9.098 0.473,-6.596 4.024,-13.42 6.866,-17.06 2.841,-3.639 9.499,-2.275 10.89,-1.592 1.334,0.654 8.761,7.003 4.972,19.539"
       style="fill:none;stroke:#231f20;stroke-width:0.5;stroke-linecap:round;stroke-linejoin:round;stroke-miterlimit:4;stroke-dasharray:2.8, 1.8;stroke-dashoffset:0;stroke-opacity:1"
       id="path133454" />
    <path
       d="m 510.504,598.334 c -3.175,-6.382 -5.878,-11.529 -10.515,-9.794 -4.681,1.75 -16.098,4.094 -13.731,12.739"
       style="fill:none;stroke:#231f20;stroke-width:0.5;stroke-linecap:round;stroke-linejoin:round;stroke-miterlimit:4;stroke-dasharray:2.8, 1.8;stroke-dashoffset:0;stroke-opacity:1"
       id="path133456" />
    <path
       d="m 486.258,601.279 c -4.97,-8.873 -8.759,-27.07 8.287,-48.451"
       style="fill:none;stroke:#231f20;stroke-width:0.5;stroke-linecap:round;stroke-linejoin:round;stroke-miterlimit:4;stroke-dasharray:2.8, 1.8;stroke-dashoffset:0;stroke-opacity:1"
       id="path133458" />
    <path
       d="m 530.22,594.834 c -1.393,-2.401 -2.057,-11.297 -2.041,-14.482 0.015,-3.184 2.352,-12.738 -0.253,-18.426 -2.604,-5.686 -10.18,-10.235 -16.573,-10.69 -6.392,-0.455 -15.625,-0.229 -27.699,5.914 -12.074,6.142 -23.2,15.694 -25.095,20.016 -1.894,4.322 -9.274,26.905 13.119,58.718"
       style="fill:none;stroke:#231f20;stroke-width:0.5;stroke-linecap:round;stroke-linejoin:round;stroke-miterlimit:4;stroke-dasharray:2.8, 1.8;stroke-dashoffset:0;stroke-opacity:1"
       id="path133460" />
    <path
       d="m 526.988,560.245 c 2.847,4.461 10.172,5.093 13.012,5.093 2.841,0 10.165,-0.632 13.014,-5.093"
       style="fill:none;stroke:#231f20;stroke-width:0.5;stroke-linecap:round;stroke-linejoin:round;stroke-miterlimit:4;stroke-dasharray:2.8, 1.8;stroke-dashoffset:0;stroke-opacity:1"
       id="path133462" />
    <path
       d="m 454.298,565.793 c -3.796,0 -8.524,-5.004 -8.288,-10.235 0.238,-5.233 8.049,-20.018 25.57,-20.018 10.653,0 2.604,17.516 -1.894,22.292 -3.594,3.816 -10.417,7.961 -15.388,7.961 z"
       style="fill:none;stroke:#231f20;stroke-width:0.5;stroke-linecap:round;stroke-linejoin:round;stroke-miterlimit:4;stroke-dasharray:2.8, 1.8;stroke-dashoffset:0;stroke-opacity:1"
       id="path133464" />
    <path
       d="m 340.974,616.72 c 2.757,4.632 7.26,9.578 10.101,12.308 2.841,2.729 6.865,2.047 9.944,-0.909 3.077,-2.957 17.045,-20.927 26.279,-34.12 9.233,-13.194 23.91,-32.528 40.246,-44.357 16.335,-11.826 32.435,-19.105 39.064,-20.017 6.629,-0.908 31.015,1.138 41.904,0.912 10.89,-0.229 26.043,2.045 31.488,2.045 5.446,0 20.599,-2.274 31.489,-2.045 10.888,0.226 35.276,-1.82 41.904,-0.912 6.628,0.912 22.728,8.191 39.063,20.017 16.336,11.829 31.015,31.163 40.248,44.357 9.233,13.193 23.2,31.163 26.279,34.12 3.078,2.956 7.102,3.638 9.943,0.909 2.841,-2.73 7.344,-7.676 10.102,-12.308"
       style="fill:none;stroke:#231f20;stroke-width:0.5;stroke-linecap:round;stroke-linejoin:round;stroke-miterlimit:4;stroke-dasharray:2.8, 1.8;stroke-dashoffset:0;stroke-opacity:1"
       id="path133466" />
    <path
       d="m 346.881,624.617 c 0.169,-9.919 2.813,-38.053 5.376,-47.906 3.553,-13.647 22.334,-39.826 32.784,-53.491"
       style="fill:none;stroke:#231f20;stroke-width:0.5;stroke-linecap:round;stroke-linejoin:round;stroke-miterlimit:4;stroke-dasharray:2.8, 1.8;stroke-dashoffset:0;stroke-opacity:1"
       id="path133468" />
    <path
       d="m 469.319,657.384 c -4.367,-4.017 -20.23,-25.627 -22.834,-42.005 -2.606,-16.377 -3.551,-31.842 -3.788,-35.938 -0.237,-4.095 -2.368,-13.193 -2.13,-19.562 0.236,-6.369 0.714,-15.387 2.014,-19.977"
       style="fill:none;stroke:#231f20;stroke-width:0.5;stroke-linecap:round;stroke-linejoin:round;stroke-miterlimit:4;stroke-dasharray:2.8, 1.8;stroke-dashoffset:0;stroke-opacity:1"
       id="path133470" />
    <path
       d="m 447.82,621.025 c -2.756,8.914 -27.141,23.698 -44.897,23.472 -21.779,-0.28 -41.194,-2.958 -59.661,-9.327"
       style="fill:none;stroke:#231f20;stroke-width:0.5;stroke-linecap:round;stroke-linejoin:round;stroke-miterlimit:4;stroke-dasharray:2.8, 1.8;stroke-dashoffset:0;stroke-opacity:1"
       id="path133472" />
    <path
       d="m 407.893,687.688 c -3.312,-5.205 -6.863,-24.768 -4.97,-43.191"
       style="fill:none;stroke:#231f20;stroke-width:0.5;stroke-linecap:round;stroke-linejoin:round;stroke-miterlimit:4;stroke-dasharray:2.8, 1.8;stroke-dashoffset:0;stroke-opacity:1"
       id="path133474" />
    <path
       d="m 368.133,687.876 c -3.801,-10.398 -8.298,-24.727 -15.401,-34.053 -7.102,-9.326 -31.978,-16.107 -43.215,-14.536"
       style="fill:none;stroke:#231f20;stroke-width:0.5;stroke-linecap:round;stroke-linejoin:round;stroke-miterlimit:4;stroke-dasharray:2.8, 1.8;stroke-dashoffset:0;stroke-opacity:1"
       id="path133476" />
    <path
       d="m 370.171,420.51 c 1.974,-0.068 9.549,1.072 11.917,-6.435 2.37,-7.507 2.37,-15.012 0.948,-17.743 -1.42,-2.731 -4.025,-5.687 -11.837,-5.004 -7.813,0.682 -24.149,0.682 -31.96,-1.366 -7.814,-2.046 -17.759,-5.914 -25.334,-7.733 -7.575,-1.819 -24.384,-0.917 -17.992,12.504"
       style="fill:none;stroke:#231f20;stroke-width:0.5;stroke-linecap:round;stroke-linejoin:round;stroke-miterlimit:4;stroke-dasharray:2.8, 1.8;stroke-dashoffset:0;stroke-opacity:1"
       id="path133478" />
    <path
       d="m 308.024,413.427 c -2.404,-5.268 -8.799,-19.826 -19.689,-22.782 -10.889,-2.957 -34.751,-3.397 -40.905,3.427"
       style="fill:none;stroke:#231f20;stroke-width:0.5;stroke-linecap:round;stroke-linejoin:round;stroke-miterlimit:4;stroke-dasharray:2.8, 1.8;stroke-dashoffset:0;stroke-opacity:1"
       id="path133480" />
    <path
       d="M 278.187,423.975 C 276.972,414.3 237.255,406.461 228.732,407.144"
       style="fill:none;stroke:#231f20;stroke-width:0.5;stroke-linecap:round;stroke-linejoin:round;stroke-miterlimit:4;stroke-dasharray:2.8, 1.8;stroke-dashoffset:0;stroke-opacity:1"
       id="path133482" />
    <path
       d="m 361.878,490.765 c 10.742,-9.362 37.256,-28.925 45.78,-34.384 8.522,-5.459 15.154,-10.463 17.52,-15.465 2.366,-5.005 4.345,-16.187 -0.432,-22.993"
       style="fill:none;stroke:#231f20;stroke-width:0.5;stroke-linecap:round;stroke-linejoin:round;stroke-miterlimit:4;stroke-dasharray:2.8, 1.8;stroke-dashoffset:0;stroke-opacity:1"
       id="path133484" />
    <path
       d="m 401.05,460.877 c 11.579,-6.769 25.509,-13.887 30.045,-16.322 8.05,-4.322 15.428,-14.174 14.915,-21.61 -0.234,-3.411 -2.033,-5.881 -4.497,-6.596 -4.105,-1.194 -10.253,2.149 -14.049,9.107"
       style="fill:none;stroke:#231f20;stroke-width:0.5;stroke-linecap:round;stroke-linejoin:round;stroke-miterlimit:4;stroke-dasharray:2.8, 1.8;stroke-dashoffset:0;stroke-opacity:1"
       id="path133486" />
    <path
       d="m 466.608,506.653 c 8.285,0.682 22.255,2.727 29.595,2.273 7.339,-0.454 13.494,1.138 17.045,2.275 3.552,1.136 21.07,0.457 26.752,0.457 5.682,0 23.202,0.679 26.752,-0.457 3.552,-1.137 9.708,-2.729 17.047,-2.275 7.338,0.454 21.309,-1.591 29.594,-2.273"
       style="fill:none;stroke:#231f20;stroke-width:0.5;stroke-linecap:round;stroke-linejoin:round;stroke-miterlimit:4;stroke-dasharray:2.8, 1.8;stroke-dashoffset:0;stroke-opacity:1"
       id="path133488" />
    <path
       d="m 506.856,530.553 c 5.456,-0.005 13.257,-7.751 5.531,-19.619"
       style="fill:none;stroke:#231f20;stroke-width:0.5;stroke-linecap:round;stroke-linejoin:round;stroke-miterlimit:4;stroke-dasharray:2.8, 1.8;stroke-dashoffset:0;stroke-opacity:1"
       id="path133490" />
    <path
       d="m 468.051,529.49 c -4.519,-0.545 -21.331,-4.869 -28.906,-6.914 -7.575,-2.048 -22.076,-8.337 -13.76,-11.561"
       style="fill:none;stroke:#231f20;stroke-width:0.5;stroke-linecap:round;stroke-linejoin:round;stroke-miterlimit:4;stroke-dasharray:2.8, 1.8;stroke-dashoffset:0;stroke-opacity:1"
       id="path133492" />
    <path
       d="m 350.128,529.171 c -2.841,0.683 -10.179,2.049 -10.889,1.137 -0.712,-0.909 0.766,-8.224 0.62,-10.708"
       style="fill:none;stroke:#231f20;stroke-width:0.5;stroke-linecap:round;stroke-linejoin:round;stroke-miterlimit:4;stroke-dasharray:2.8, 1.8;stroke-dashoffset:0;stroke-opacity:1"
       id="path133494" />
    <path
       d="m 339.239,530.308 c 6.627,-5.913 49.219,-40.631 85.69,-49.318"
       style="fill:none;stroke:#231f20;stroke-width:0.5;stroke-linecap:round;stroke-linejoin:round;stroke-miterlimit:4;stroke-dasharray:2.8, 1.8;stroke-dashoffset:0;stroke-opacity:1"
       id="path133496" />
    <path
       d="m 331.181,642.018 c 2.068,0.633 3.705,-1.539 1.91,-3.446"
       style="fill:none;stroke:#231f20;stroke-width:0.5;stroke-linecap:round;stroke-linejoin:round;stroke-miterlimit:4;stroke-dasharray:2.8, 1.8;stroke-dashoffset:0;stroke-opacity:1"
       id="path133498" />
    <path
       d="m 372.624,391.241 c 3.546,-1.962 5.915,-12.426 -0.004,-20.384 -5.919,-7.962 -26.28,-18.88 -54.927,-23.885 -28.647,-5.005 -51.137,-5.913 -57.292,-4.776 -6.157,1.136 -11.839,2.731 -16.1,5.005 -4.261,2.274 -12.073,4.093 -21.543,3.865 -9.471,-0.229 -16.337,1.365 -29.121,7.735 -12.784,6.368 -22.49,11.373 -31.25,27.979 -8.761,16.602 -16.1,42.306 -18.231,51.179 -2.13,8.87 -7.603,26.223 -4.288,27.135"
       style="fill:none;stroke:#231f20;stroke-width:0.5;stroke-linecap:round;stroke-linejoin:round;stroke-miterlimit:4;stroke-dasharray:2.8, 1.8;stroke-dashoffset:0;stroke-opacity:1"
       id="path133500" />
    <path
       d="m 142.526,465.469 c 1.656,0.229 5.892,-4.765 7.55,-14.093 1.657,-9.324 6.865,-33.436 10.653,-42.989 3.788,-9.553 9.708,-25.475 22.965,-35.031 13.257,-9.552 18.23,-12.055 24.148,-13.417 5.918,-1.366 12.312,-1.823 15.625,-0.911 3.315,0.911 8.286,2.276 20.361,-2.275 12.074,-4.55 22.964,-4.093 36.222,-3.639 13.258,0.454 20.992,-0.712 30.7,2.015"
       style="fill:none;stroke:#231f20;stroke-width:0.5;stroke-linecap:round;stroke-linejoin:round;stroke-miterlimit:4;stroke-dasharray:2.8, 1.8;stroke-dashoffset:0;stroke-opacity:1"
       id="path133502" />
    <path
       d="m 320.805,384.179 c -3.293,-0.99 -8.855,-6.854 -10.215,-12.639 -1.657,-7.053 -3.471,-21.1 9.747,-24.084"
       style="fill:none;stroke:#231f20;stroke-width:0.5;stroke-linecap:round;stroke-linejoin:round;stroke-miterlimit:4;stroke-dasharray:2.8, 1.8;stroke-dashoffset:0;stroke-opacity:1"
       id="path133504" />
    <path
       d="m 221.515,337.605 c 2.899,24.833 1.006,31.658 -1.598,38.937 -2.604,7.281 -7.34,15.24 -5.682,25.25 1.265,7.651 8.29,5.752 13.494,5.458 4.024,-0.228 15.625,-3.868 18.939,-11.146 3.315,-7.279 0.421,-14.77 -1.182,-20.471 -2.368,-8.419 -1.95,-29.743 -0.976,-41.826"
       style="fill:none;stroke:#231f20;stroke-width:0.5;stroke-linecap:round;stroke-linejoin:round;stroke-miterlimit:4;stroke-dasharray:2.8, 1.8;stroke-dashoffset:0;stroke-opacity:1"
       id="path133506" />
    <path
       d="m 534.673,750.608 c 0,0 -0.355,2.729 -4.26,3.071"
       style="fill:none;stroke:#231f20;stroke-width:0.5;stroke-linecap:round;stroke-linejoin:round;stroke-miterlimit:4;stroke-dasharray:2.8, 1.8;stroke-dashoffset:6.0038;stroke-opacity:1"
       id="path133508" />
    <path
       d="m 212.861,418.356 c -4.191,-5.192 -9.517,-8.604 -13.069,-7.921 -3.036,0.582 -24.086,11.239 -9.233,46.403 2.52,5.963 5.683,11.599 11.719,17.061"
       style="fill:none;stroke:#231f20;stroke-width:0.5;stroke-linecap:round;stroke-linejoin:round;stroke-miterlimit:4;stroke-dasharray:2.8, 1.8;stroke-dashoffset:0;stroke-opacity:1"
       id="path133510" />
    <path
       d="m 264.058,446.163 c -6.025,-4.339 -16.163,-11.95 -44.831,-11.215"
       style="fill:none;stroke:#231f20;stroke-width:0.5;stroke-linecap:round;stroke-linejoin:round;stroke-miterlimit:4;stroke-dasharray:2.8, 1.8;stroke-dashoffset:0;stroke-opacity:1"
       id="path133512" />
    <path
       d="m 245.843,478.155 c -8.052,3.591 -29.551,-0.174 -38.334,-8.699"
       style="fill:none;stroke:#231f20;stroke-width:0.5;stroke-linecap:round;stroke-linejoin:round;stroke-miterlimit:4;stroke-dasharray:2.8, 1.8;stroke-dashoffset:0;stroke-opacity:1"
       id="path133514" />
    <path
       d="M 202.278,473.899 129.253,463.595"
       style="fill:none;stroke:#231f20;stroke-width:0.5;stroke-linecap:round;stroke-linejoin:round;stroke-miterlimit:4;stroke-dasharray:2.8, 1.8;stroke-dashoffset:0;stroke-opacity:1"
       id="path133516" />
    <path
       d="m 203.241,488.554 -75.521,-4.08"
       style="fill:none;stroke:#231f20;stroke-width:0.5;stroke-linecap:round;stroke-linejoin:round;stroke-miterlimit:4;stroke-dasharray:2.8, 1.8;stroke-dashoffset:0;stroke-opacity:1"
       id="path133518" />
    <path
       d="m 203.976,529.185 -78.988,-4.376"
       style="fill:none;stroke:#231f20;stroke-width:0.5;stroke-linecap:round;stroke-linejoin:round;stroke-miterlimit:4;stroke-dasharray:2.8, 1.8;stroke-dashoffset:0;stroke-opacity:1"
       id="path133520" />
    <path
       d="m 204.278,573.165 -98.344,-2.021"
       style="fill:none;stroke:#231f20;stroke-width:0.5;stroke-linecap:round;stroke-linejoin:round;stroke-miterlimit:4;stroke-dasharray:2.8, 1.8;stroke-dashoffset:0;stroke-opacity:1"
       id="path133522" />
    <path
       d="m 207.639,598.088 -100.46,9.225"
       style="fill:none;stroke:#231f20;stroke-width:0.5;stroke-linecap:round;stroke-linejoin:round;stroke-miterlimit:4;stroke-dasharray:2.8, 1.8;stroke-dashoffset:0;stroke-opacity:1"
       id="path133524" />
    <path
       d="M 219.78,653.34 116.881,681.046"
       style="fill:none;stroke:#231f20;stroke-width:0.5;stroke-linecap:round;stroke-linejoin:round;stroke-miterlimit:4;stroke-dasharray:2.8, 1.8;stroke-dashoffset:0;stroke-opacity:1"
       id="path133526" />
    <path
       d="m 229.559,679.853 -98.645,39.358"
       style="fill:none;stroke:#231f20;stroke-width:0.5;stroke-linecap:round;stroke-linejoin:round;stroke-miterlimit:4;stroke-dasharray:2.8, 1.8;stroke-dashoffset:0;stroke-opacity:1"
       id="path133528" />
    <path
       d="m 246.903,709.171 -91.902,49.998"
       style="fill:none;stroke:#231f20;stroke-width:0.5;stroke-linecap:round;stroke-linejoin:round;stroke-miterlimit:4;stroke-dasharray:2.8, 1.8;stroke-dashoffset:0;stroke-opacity:1"
       id="path133530" />
    <path
       d="m 308.122,775.496 -49.966,77.821"
       style="fill:none;stroke:#231f20;stroke-width:0.5;stroke-linecap:round;stroke-linejoin:round;stroke-miterlimit:4;stroke-dasharray:2.8, 1.8;stroke-dashoffset:0;stroke-opacity:1"
       id="path133532" />
    <path
       d="m 380.891,806.959 -20.336,86.734"
       style="fill:none;stroke:#231f20;stroke-width:0.5;stroke-linecap:round;stroke-linejoin:round;stroke-miterlimit:4;stroke-dasharray:2.8, 1.8;stroke-dashoffset:0;stroke-opacity:1"
       id="path133534" />
    <path
       d="m 444.825,812.64 8.544,86.337"
       style="fill:none;stroke:#231f20;stroke-width:0.5;stroke-linecap:round;stroke-linejoin:round;stroke-miterlimit:4;stroke-dasharray:2.8, 1.8;stroke-dashoffset:0;stroke-opacity:1"
       id="path133536" />
    <path
       d="m 472.496,809.553 56.584,62.248"
       style="fill:none;stroke:#231f20;stroke-width:0.5;stroke-linecap:round;stroke-linejoin:round;stroke-miterlimit:4;stroke-dasharray:2.8, 1.8;stroke-dashoffset:0;stroke-opacity:1"
       id="path133538" />
    <path
       d="m 538.095,723.226 c -1.883,-1.62 -5.75,-6.321 -5.908,-9.352 -0.235,-4.55 0.711,-8.873 0,-9.1 -0.71,-0.228 -4.497,5.459 -3.551,10.918 0.946,5.459 5.927,7.667 5.927,7.667"
       style="fill:#b2b1b1;fill-opacity:1;fill-rule:nonzero;stroke:none;stroke-width:0.1"
       id="path133540" />
    <path
       d="m 538.095,723.226 c -1.883,-1.62 -5.75,-6.321 -5.908,-9.352 -0.235,-4.55 0.711,-8.873 0,-9.1 -0.71,-0.228 -4.497,5.459 -3.551,10.918 0.946,5.459 5.927,7.667 5.927,7.667"
       style="fill:none;stroke:#231f20;stroke-width:0.5;stroke-linecap:round;stroke-linejoin:round;stroke-miterlimit:4;stroke-dasharray:2.8, 1.8;stroke-dashoffset:0;stroke-opacity:1"
       id="path133542" />
    <path
       d="m 532.187,704.774 c -3.551,-5.687 -11.836,-16.15 -16.335,-22.291 -4.499,-6.142 -9.706,-12.283 -15.625,-12.057 -5.92,0.229 -12.074,6.143 -22.019,23.202 -9.942,17.06 -26.989,42.537 -33.38,51.863 -6.393,9.326 -19.413,22.291 -29.594,19.334 -10.18,-2.957 -40.723,-12.511 -50.902,-17.287 -10.178,-4.777 -22.252,-10.692 -26.752,-14.786 -4.498,-4.094 -6.238,-9.888 -2.368,-12.738 3.167,-2.332 7.785,-2.417 12.549,0 5.618,2.85 9.907,5.448 9.907,5.448"
       style="fill:none;stroke:#231f20;stroke-width:0.5;stroke-linecap:round;stroke-linejoin:round;stroke-miterlimit:4;stroke-dasharray:2.8, 1.8;stroke-dashoffset:0;stroke-opacity:1"
       id="path133544" />
    <path
       d="m 313.756,738.518 -3.299,1.843"
       style="fill:none;stroke:#231f20;stroke-width:0.5;stroke-linecap:round;stroke-linejoin:round;stroke-miterlimit:4;stroke-dasharray:2.8, 1.8;stroke-dashoffset:0;stroke-opacity:1"
       id="path133546" />
    <path
       d="m 300.411,721.379 -4.498,2.275"
       style="fill:none;stroke:#231f20;stroke-width:0.5;stroke-linecap:round;stroke-linejoin:round;stroke-miterlimit:4;stroke-dasharray:2.8, 1.8;stroke-dashoffset:0;stroke-opacity:1"
       id="path133548" />
    <path
       d="m 349.181,730.933 -11.601,1.819"
       style="fill:none;stroke:#231f20;stroke-width:0.5;stroke-linecap:round;stroke-linejoin:round;stroke-miterlimit:4;stroke-dasharray:2.8, 1.8;stroke-dashoffset:0;stroke-opacity:1"
       id="path133550" />
    <path
       d="m 386.114,700.679 c 3.787,2.048 20.03,9.561 27.225,8.417 7.162,-1.138 13.733,-4.322 21.545,-11.146 7.813,-6.825 15.153,-10.918 17.993,-13.875 0,0 -11.602,14.102 -15.389,19.335 -3.786,5.231 -11.838,17.287 -14.678,22.291 -2.841,5.004 -7.102,10.919 -14.678,9.553 -7.577,-1.364 -22.964,-5.004 -27.227,-5.915 -4.261,-0.909 -15.387,-5.003 -17.756,-7.277 -2.368,-2.275 -5.445,-3.867 -6.629,-2.73 -1.184,1.137 -2.366,4.549 2.368,6.824 4.734,2.274 13.257,5.005 21.07,6.824 7.812,1.818 14.678,3.185 20.125,5.686 5.443,2.502 8.286,2.729 13.021,2.275 4.734,-0.454 10.179,-0.227 13.02,-5.914 2.84,-5.688 8.524,-20.927 12.548,-27.069 4.025,-6.141 20.124,-22.292 24.86,-26.613 4.734,-4.322 9.231,-9.098 7.337,-12.511 -1.893,-3.411 -4.733,-0.909 -10.178,4.095 -5.447,5.004 -14.443,11.373 -19.414,15.467 -4.973,4.095 -14.915,12.283 -19.178,14.104 -4.261,1.819 -12.309,2.729 -17.518,0.681 -5.208,-2.047 -9.706,-3.735 -12.786,-5.003 -3.314,-1.365 -6.391,-1.594 -7.101,-0.228 -0.71,1.364 1.42,2.729 1.42,2.729"
       style="fill:#b2b1b1;fill-opacity:1;fill-rule:nonzero;stroke:none;stroke-width:0.1"
       id="path133552" />
    <path
       d="m 386.114,700.679 c 3.787,2.048 20.03,9.561 27.225,8.417 7.162,-1.138 13.733,-4.322 21.545,-11.146 7.813,-6.825 15.153,-10.918 17.993,-13.875 0,0 -11.602,14.102 -15.389,19.335 -3.786,5.231 -11.838,17.287 -14.678,22.291 -2.841,5.004 -7.102,10.919 -14.678,9.553 -7.577,-1.364 -22.964,-5.004 -27.227,-5.915 -4.261,-0.909 -15.387,-5.003 -17.756,-7.277 -2.368,-2.275 -5.445,-3.867 -6.629,-2.73 -1.184,1.137 -2.366,4.549 2.368,6.824 4.734,2.274 13.257,5.005 21.07,6.824 7.812,1.818 14.678,3.185 20.125,5.686 5.443,2.502 8.286,2.729 13.021,2.275 4.734,-0.454 10.179,-0.227 13.02,-5.914 2.84,-5.688 8.524,-20.927 12.548,-27.069 4.025,-6.141 20.124,-22.292 24.86,-26.613 4.734,-4.322 9.231,-9.098 7.337,-12.511 -1.893,-3.411 -4.733,-0.909 -10.178,4.095 -5.447,5.004 -14.443,11.373 -19.414,15.467 -4.973,4.095 -14.915,12.283 -19.178,14.104 -4.261,1.819 -12.309,2.729 -17.518,0.681 -5.208,-2.047 -9.706,-3.735 -12.786,-5.003 -3.314,-1.365 -6.391,-1.594 -7.101,-0.228 -0.71,1.364 1.42,2.729 1.42,2.729 z"
       style="fill:none;stroke:#231f20;stroke-width:0.5;stroke-linecap:round;stroke-linejoin:round;stroke-miterlimit:4;stroke-dasharray:2.8, 1.8;stroke-dashoffset:0;stroke-opacity:1"
       id="path133554" />
    <path
       d="m 390.153,702.7 c 1.406,3.211 7.797,7.534 11.112,9.126 3.316,1.591 11.398,6.21 11.735,9.587 0.339,3.379 -3.211,6.335 -13.156,5.197 -9.943,-1.137 -22.252,-3.411 -25.331,-4.321 -3.078,-0.91 -12.071,-3.673 -13.493,-1.951"
       style="fill:none;stroke:#231f20;stroke-width:0.5;stroke-linecap:round;stroke-linejoin:round;stroke-miterlimit:4;stroke-dasharray:2.8, 1.8;stroke-dashoffset:0;stroke-opacity:1"
       id="path133556" />
    <path
       d="m 746.988,638.489 c 0.69,-0.739 1.114,-1.273 1.114,-1.273"
       style="fill:none;stroke:#231f20;stroke-width:0.5;stroke-linecap:round;stroke-linejoin:round;stroke-miterlimit:4;stroke-dasharray:2.8, 1.8;stroke-dashoffset:0;stroke-opacity:1"
       id="path133558" />
    <path
       d="m 748.102,637.216 8.286,-7.592"
       style="fill:none;stroke:#231f20;stroke-width:0.5;stroke-linecap:round;stroke-linejoin:round;stroke-miterlimit:4;stroke-dasharray:2.8, 1.8;stroke-dashoffset:0;stroke-opacity:1"
       id="path133560" />
    <path
       d="m 333.018,638.495 c -0.693,-0.744 -1.119,-1.279 -1.119,-1.279"
       style="fill:none;stroke:#231f20;stroke-width:0.5;stroke-linecap:round;stroke-linejoin:round;stroke-miterlimit:4;stroke-dasharray:2.8, 1.8;stroke-dashoffset:0;stroke-opacity:1"
       id="path133562" />
    <path
       d="m 331.899,637.216 -8.286,-7.593"
       style="fill:none;stroke:#231f20;stroke-width:0.5;stroke-linecap:round;stroke-linejoin:round;stroke-miterlimit:4;stroke-dasharray:2.8, 1.8;stroke-dashoffset:0;stroke-opacity:1"
       id="path133564" />
  </g>
</svg>
