<?xml version="1.0" encoding="UTF-8" standalone="no"?>
<!-- Created with Inkscape (http://www.inkscape.org/) -->

<svg
   version="1.1"
   id="svg143745"
   width="1440"
   height="1344"
   viewBox="0 0 1440 1344"
   xmlns="http://www.w3.org/2000/svg"
   xmlns:svg="http://www.w3.org/2000/svg">
  <defs
     id="defs143749" />
  <g
     id="g143753">
    <path
       d="m 624.791,681.159 c 0,0 1.24,-16.016 32.401,-0.349 0,0 -37.914,-18.104 -44.464,-23.675 -4.913,-4.177 -5.672,-6.729 -13.442,-5.57 -2.591,0.386 -4.826,2.089 -10.685,2.436 0,0 21.368,0 36.19,27.158 z M 569.297,341.703 c 2.758,0.347 13.444,1.392 18.614,2.436 5.171,1.045 15.166,3.83 24.471,7.312 9.308,3.481 20.337,8.007 25.851,13.23 5.517,5.222 15.513,14.275 23.439,20.193 7.928,5.918 11.374,4.874 18.613,5.918 7.239,1.045 22.058,10.097 22.058,10.097 -7.237,-40.386 51.702,-60.231 68.936,-64.061 17.234,-3.83 31.367,-4.526 42.052,-2.437 10.685,2.089 33.088,2.785 36.536,2.089 3.446,-0.696 12.063,-0.696 26.54,1.393 14.476,2.088 22.059,11.141 36.535,21.934 14.477,10.793 28.264,40.038 32.745,52.571 4.481,12.535 10.34,40.04 12.408,55.706 2.07,15.667 -3.791,25.068 -5.859,28.202 -2.068,3.132 -6.893,7.659 -6.549,11.14 0.346,3.482 2.758,4.178 6.894,5.572 4.135,1.392 8.271,7.31 11.719,18.799 3.447,11.49 9.306,40.04 9.651,86.344 0.345,46.305 -18.268,91.218 -34.468,117.679 -16.199,26.46 -58.596,75.202 -89.273,101.314 -30.675,26.112 -92.373,47.698 -123.739,51.876 -31.365,4.178 -63.764,7.776 -96.395,5.918 -32.629,-1.856 -59.285,-17.407 -73.991,-29.245 C 541.379,853.846 540,829.257 540,822.976 c 0,6.281 -1.378,30.87 -16.084,42.707 -14.706,11.838 -41.361,27.389 -73.992,29.245 -32.629,1.858 -65.029,-1.74 -96.394,-5.918 -31.366,-4.178 -93.064,-25.764 -123.74,-51.876 -30.676,-26.112 -73.072,-74.854 -89.271,-101.314 -16.201,-26.461 -34.813,-71.374 -34.468,-117.679 0.344,-46.304 6.203,-74.854 9.651,-86.344 3.446,-11.489 7.583,-17.407 11.718,-18.799 4.137,-1.394 6.549,-2.09 6.894,-5.572 0.345,-3.481 -4.48,-8.008 -6.549,-11.14 -2.067,-3.134 -7.928,-12.535 -5.859,-28.202 2.067,-15.666 7.928,-43.171 12.408,-55.706 4.48,-12.533 18.268,-41.778 32.744,-52.571 14.477,-10.793 22.061,-19.846 36.537,-21.934 14.476,-2.089 23.093,-2.089 26.539,-1.393 3.448,0.696 25.852,0 36.536,-2.089 10.686,-2.089 24.818,-1.393 42.051,2.437 17.235,3.83 76.174,23.675 68.936,64.061 0,0 14.821,-9.052 22.059,-10.097 7.239,-1.044 10.686,0 18.614,-5.918 7.926,-5.918 17.922,-14.971 23.437,-20.193 5.516,-5.223 16.545,-9.749 25.852,-13.23 9.305,-3.482 19.301,-6.267 24.471,-7.312 5.17,-1.044 15.856,-2.089 18.614,-2.436 2.756,-0.349 19.301,-6.268 29.296,-6.268 9.997,0 26.541,5.919 29.297,6.268 z M 540,685.336 c 0,0 -4.135,0.348 -5.514,2.437 3.014,3.557 5.514,10.195 5.514,12.883 0,-2.688 2.5,-9.326 5.516,-12.883 -1.379,-2.089 -5.516,-2.437 -5.516,-2.437 z m -48.599,-31.335 c -5.859,-0.347 -8.094,-2.05 -10.685,-2.436 -7.771,-1.159 -8.531,1.393 -13.442,5.57 -6.55,5.571 -44.464,23.675 -44.464,23.675 31.159,-15.667 32.4,0.349 32.4,0.349 14.821,-27.158 36.191,-27.158 36.191,-27.158"
       style="fill:#ffffff;fill-opacity:1;fill-rule:nonzero;stroke:none;stroke-width:0.1"
       id="path144413" />
    <path
       d="m 624.791,681.159 c 0,0 1.24,-16.016 32.401,-0.349 0,0 -37.914,-18.104 -44.464,-23.675 -4.913,-4.177 -5.672,-6.729 -13.442,-5.57 -2.591,0.386 -4.826,2.089 -10.685,2.436 0,0 21.368,0 36.19,27.158 z M 569.297,341.703 c 2.758,0.347 13.444,1.392 18.614,2.436 5.171,1.045 15.166,3.83 24.471,7.312 9.308,3.481 20.337,8.007 25.851,13.23 5.517,5.222 15.513,14.275 23.439,20.193 7.928,5.918 11.374,4.874 18.613,5.918 7.239,1.045 22.058,10.097 22.058,10.097 -7.237,-40.386 51.702,-60.231 68.936,-64.061 17.234,-3.83 31.367,-4.526 42.052,-2.437 10.685,2.089 33.088,2.785 36.536,2.089 3.446,-0.696 12.063,-0.696 26.54,1.393 14.476,2.088 22.059,11.141 36.535,21.934 14.477,10.793 28.264,40.038 32.745,52.571 4.481,12.535 10.34,40.04 12.408,55.706 2.07,15.667 -3.791,25.068 -5.859,28.202 -2.068,3.132 -6.893,7.659 -6.549,11.14 0.346,3.482 2.758,4.178 6.894,5.572 4.135,1.392 8.271,7.31 11.719,18.799 3.447,11.49 9.306,40.04 9.651,86.344 0.345,46.305 -18.268,91.218 -34.468,117.679 -16.199,26.46 -58.596,75.202 -89.273,101.314 -30.675,26.112 -92.373,47.698 -123.739,51.876 -31.365,4.178 -63.764,7.776 -96.395,5.918 -32.629,-1.856 -59.285,-17.407 -73.991,-29.245 C 541.379,853.846 540,829.257 540,822.976 c 0,6.281 -1.378,30.87 -16.084,42.707 -14.706,11.838 -41.361,27.389 -73.992,29.245 -32.629,1.858 -65.029,-1.74 -96.394,-5.918 -31.366,-4.178 -93.064,-25.764 -123.74,-51.876 -30.676,-26.112 -73.072,-74.854 -89.271,-101.314 -16.201,-26.461 -34.813,-71.374 -34.468,-117.679 0.344,-46.304 6.203,-74.854 9.651,-86.344 3.446,-11.489 7.583,-17.407 11.718,-18.799 4.137,-1.394 6.549,-2.09 6.894,-5.572 0.345,-3.481 -4.48,-8.008 -6.549,-11.14 -2.067,-3.134 -7.928,-12.535 -5.859,-28.202 2.067,-15.666 7.928,-43.171 12.408,-55.706 4.48,-12.533 18.268,-41.778 32.744,-52.571 14.477,-10.793 22.061,-19.846 36.537,-21.934 14.476,-2.089 23.093,-2.089 26.539,-1.393 3.448,0.696 25.852,0 36.536,-2.089 10.686,-2.089 24.818,-1.393 42.051,2.437 17.235,3.83 76.174,23.675 68.936,64.061 0,0 14.821,-9.052 22.059,-10.097 7.239,-1.044 10.686,0 18.614,-5.918 7.926,-5.918 17.922,-14.971 23.437,-20.193 5.516,-5.223 16.545,-9.749 25.852,-13.23 9.305,-3.482 19.301,-6.267 24.471,-7.312 5.17,-1.044 15.856,-2.089 18.614,-2.436 2.756,-0.349 19.301,-6.268 29.296,-6.268 9.997,0 26.541,5.919 29.297,6.268 z M 540,685.336 c 0,0 -4.135,0.348 -5.514,2.437 3.014,3.557 5.514,10.195 5.514,12.883 0,-2.688 2.5,-9.326 5.516,-12.883 -1.379,-2.089 -5.516,-2.437 -5.516,-2.437 z m -48.599,-31.335 c -5.859,-0.347 -8.094,-2.05 -10.685,-2.436 -7.771,-1.159 -8.531,1.393 -13.442,5.57 -6.55,5.571 -44.464,23.675 -44.464,23.675 31.159,-15.667 32.4,0.349 32.4,0.349 14.821,-27.158 36.191,-27.158 36.191,-27.158 z"
       style="fill:none;stroke:#231f20;stroke-width:0.75;stroke-linecap:round;stroke-linejoin:round;stroke-miterlimit:4;stroke-dasharray:none;stroke-opacity:1"
       id="path144415" />
    <path
       d="m 601.698,398.453 c 3.678,3.096 8.617,0.696 12.063,-5.223 3.447,-5.919 1.033,-10.444 -1.379,-12.186 -2.413,-1.741 -6.892,-2.785 -10.684,3.482 -3.791,6.266 -4.137,10.445 0,13.927 z"
       style="fill:none;stroke:#231f20;stroke-width:0.5;stroke-linecap:butt;stroke-linejoin:miter;stroke-miterlimit:4;stroke-dasharray:none;stroke-opacity:1"
       id="path144417" />
    <path
       d="m 687.292,386.847 c 0,-2.307 -2.468,-4.178 -5.514,-4.178 -3.045,0 -5.515,1.871 -5.515,4.178 0,2.309 2.47,4.12 5.515,4.12 3.046,0 5.514,-1.811 5.514,-4.12"
       style="fill:#ffffff;fill-opacity:1;fill-rule:nonzero;stroke:none;stroke-width:0.1"
       id="path144419" />
    <path
       d="m 687.292,386.847 c 0,-2.307 -2.468,-4.178 -5.514,-4.178 -3.045,0 -5.515,1.871 -5.515,4.178 0,2.309 2.47,4.12 5.515,4.12 3.046,0 5.514,-1.811 5.514,-4.12 z"
       style="fill:none;stroke:#231f20;stroke-width:0.5;stroke-linecap:butt;stroke-linejoin:miter;stroke-miterlimit:4;stroke-dasharray:none;stroke-opacity:1"
       id="path144421" />
    <path
       d="m 598.753,393.321 c -1.095,2.157 -3.144,5.364 -7.51,3.971 0,0 0.23,6.034 -4.825,10.676 -5.056,4.644 -8.732,15.32 -10.339,20.426 -1.611,5.107 -2.76,17.64 -0.463,19.961 2.299,2.321 9.653,1.856 13.559,-3.481 3.907,-5.338 8.503,-13.693 4.137,-18.336 -4.368,-4.643 -8.274,-7.195 -5.516,-9.748 2.758,-2.555 5.745,-5.766 5.745,-8.589 0,-4.642 4.391,-13.619 5.212,-14.88"
       style="fill:none;stroke:#231f20;stroke-width:0.5;stroke-linecap:butt;stroke-linejoin:miter;stroke-miterlimit:4;stroke-dasharray:none;stroke-opacity:1"
       id="path144423" />
    <path
       d="M 540,496.866 V 456.48"
       style="fill:none;stroke:#231f20;stroke-width:0.75;stroke-linecap:round;stroke-linejoin:round;stroke-miterlimit:4;stroke-dasharray:none;stroke-opacity:1"
       id="path144425" />
    <path
       d="m 540,751.254 v 71.722"
       style="fill:none;stroke:#231f20;stroke-width:0.75;stroke-linecap:round;stroke-linejoin:round;stroke-miterlimit:4;stroke-dasharray:none;stroke-opacity:1"
       id="path144427" />
    <path
       d="m 702.343,400.889 c 0,0 8.963,8.563 11.72,12.882"
       style="fill:none;stroke:#231f20;stroke-width:0.75;stroke-linecap:round;stroke-linejoin:round;stroke-miterlimit:4;stroke-dasharray:none;stroke-opacity:1"
       id="path144429" />
    <path
       d="m 561.792,754.694 c 11.988,3.059 23.706,11.067 32.668,25.69 8.961,14.622 11.03,22.979 25.505,26.808 14.478,3.83 39.293,5.919 47.223,5.571"
       style="fill:none;stroke:#231f20;stroke-width:0.5;stroke-linecap:butt;stroke-linejoin:miter;stroke-miterlimit:4;stroke-dasharray:none;stroke-opacity:1"
       id="path144431" />
    <path
       d="m 858.138,461.469 c -5.514,-4.874 -13.786,-18.104 -15.51,-23.326 -1.723,-5.223 -6.893,-7.66 -10.684,-9.053 -3.792,-1.392 -16.891,-5.919 -27.574,-8.355 -10.686,-2.438 -28.954,-9.401 -37.571,-11.838 -8.617,-2.437 -34.124,5.223 -39.293,6.268 -5.171,1.043 -13.443,-1.394 -13.443,-1.394 l 23.783,37.254 c 22.404,11.837 39.983,38.297 39.983,38.297 19.301,14.275 27.23,45.262 34.467,64.758 7.239,19.497 6.895,47.35 14.822,82.514 7.927,35.164 3.446,63.365 3.446,63.365 16.2,-21.238 18.613,-45.261 18.613,-61.972 0,-16.712 8.961,-41.083 14.132,-56.75 5.171,-15.668 8.617,-37.602 11.374,-51.876 2.758,-14.275 -0.688,-22.282 1.379,-29.246 2.068,-24.719 -12.409,-33.772 -17.924,-38.646 z m -59.972,-4.526 c 6.236,-0.241 13.441,6.615 14.82,23.327 1.378,16.712 0.345,21.935 -5.86,22.282 -6.205,0.349 -11.719,-12.185 -13.787,-21.586 -2.068,-9.4 -4.136,-23.674 4.827,-24.023"
       style="fill:#706d6e;fill-opacity:1;fill-rule:nonzero;stroke:none;stroke-width:0.1"
       id="path144433" />
    <path
       d="m 858.138,461.469 c -5.514,-4.874 -13.786,-18.104 -15.51,-23.326 -1.723,-5.223 -6.893,-7.66 -10.684,-9.053 -3.792,-1.392 -16.891,-5.919 -27.574,-8.355 -10.686,-2.438 -28.954,-9.401 -37.571,-11.838 -8.617,-2.437 -34.124,5.223 -39.293,6.268 -5.171,1.043 -13.443,-1.394 -13.443,-1.394 l 23.783,37.254 c 22.404,11.837 39.983,38.297 39.983,38.297 19.301,14.275 27.23,45.262 34.467,64.758 7.239,19.497 6.895,47.35 14.822,82.514 7.927,35.164 3.446,63.365 3.446,63.365 16.2,-21.238 18.613,-45.261 18.613,-61.972 0,-16.712 8.961,-41.083 14.132,-56.75 5.171,-15.668 8.617,-37.602 11.374,-51.876 2.758,-14.275 -0.688,-22.282 1.379,-29.246 2.068,-24.719 -12.409,-33.772 -17.924,-38.646 z m -59.972,-4.526 c 6.236,-0.241 13.441,6.615 14.82,23.327 1.378,16.712 0.345,21.935 -5.86,22.282 -6.205,0.349 -11.719,-12.185 -13.787,-21.586 -2.068,-9.4 -4.136,-23.674 4.827,-24.023 z"
       style="fill:none;stroke:#231f20;stroke-width:0.75;stroke-linecap:round;stroke-linejoin:round;stroke-miterlimit:4;stroke-dasharray:none;stroke-opacity:1"
       id="path144435" />
    <path
       d="m 777.829,489.322 c 6.205,11.838 22.749,49.439 23.092,69.284 0.346,19.846 3.792,41.431 -4.479,64.41 -8.273,22.979 -19.283,38.973 -27.919,48.394 -8.617,9.4 -27.231,20.889 -30.677,22.282 -3.447,1.392 -5.514,3.83 -13.787,1.045 -8.271,-2.785 -25.162,-2.089 -27.919,-2.785 -2.758,-0.697 -13.787,-3.134 -18.612,-4.527 -4.825,-1.392 -14.821,-4.526 -20.336,-6.615"
       style="fill:none;stroke:#231f20;stroke-width:0.75;stroke-linecap:round;stroke-linejoin:round;stroke-miterlimit:4;stroke-dasharray:none;stroke-opacity:1"
       id="path144437" />
    <path
       d="m 675.53,686.837 c 8.891,0.588 24.746,-0.108 31.295,0.588 6.549,0.697 18.268,3.482 23.783,2.785 5.516,-0.696 23.437,-8.704 28.953,-14.274 5.516,-5.57 16.199,-20.89 20.681,-28.201 4.481,-7.312 12.063,-19.845 13.787,-33.423 1.723,-13.578 0.786,-33.23 -2.758,-44.913 -1.982,-6.54 -6.548,-20.541 -8.961,-28.898 -2.414,-8.355 -3.102,-13.229 -3.102,-13.229 1.377,-4.526 0.688,-7.312 -1.379,-12.882 -2.069,-5.571 -9.306,-8.704 -9.997,-10.793 -0.689,-2.09 -6.547,-15.319 -10.339,-21.586 -3.791,-6.267 -13.098,-20.542 -19.647,-30.986"
       style="fill:none;stroke:#231f20;stroke-width:0.5;stroke-linecap:butt;stroke-linejoin:miter;stroke-miterlimit:4;stroke-dasharray:none;stroke-opacity:1"
       id="path144439" />
    <path
       d="m 754.278,462.644 c 2.182,7.529 5.972,17.975 10.453,25.285 4.481,7.312 9.139,15.301 12.135,24.537"
       style="fill:none;stroke:#231f20;stroke-width:0.5;stroke-linecap:butt;stroke-linejoin:miter;stroke-miterlimit:4;stroke-dasharray:none;stroke-opacity:1"
       id="path144441" />
    <path
       d="m 673.012,389.977 c -2.951,-0.616 -11.684,9.868 -7.204,21.009 4.482,11.141 15.511,24.72 27.574,38.298 12.064,13.578 46.877,51.527 51.702,56.75 4.826,5.222 12.409,10.445 13.098,12.185 0.69,1.741 2.068,8.704 8.617,10.793 6.973,2.226 10.685,0.349 12.409,-1.74"
       style="fill:none;stroke:#231f20;stroke-width:0.5;stroke-linecap:butt;stroke-linejoin:miter;stroke-miterlimit:4;stroke-dasharray:none;stroke-opacity:1"
       id="path144443" />
    <path
       d="m 731.296,540.501 c 0,0 -26.884,-12.185 -43.772,-16.711 -16.891,-4.526 -51.703,-11.837 -61.009,-13.579 0,0 5.555,-13.791 35.157,-6.614 34.468,8.356 59.272,27.649 69.624,36.904 z"
       style="fill:none;stroke:#231f20;stroke-width:0.5;stroke-linecap:butt;stroke-linejoin:miter;stroke-miterlimit:4;stroke-dasharray:none;stroke-opacity:1"
       id="path144445" />
    <path
       d="m 731.296,540.501 c 7.24,4.874 17.58,14.626 21.026,31.336 3.448,16.71 1.723,28.548 -3.791,40.037 -5.515,11.49 -13.443,24.024 -16.889,27.157 -3.447,3.134 -26.54,8.356 -32.056,8.704 -5.514,0.349 -27.573,-1.393 -32.744,-2.437 0,0 25.161,6.615 32.401,6.267 7.238,-0.349 25.506,-5.223 34.467,-10.445 8.961,-5.222 25.506,-20.89 28.953,-29.593 3.447,-8.704 11.03,-29.246 10.34,-42.824 -0.689,-13.579 -3.447,-24.72 -15.856,-31.683 -12.407,-6.963 -23.922,-10.136 -36.089,-4.894"
       style="fill:none;stroke:#231f20;stroke-width:0.5;stroke-linecap:butt;stroke-linejoin:miter;stroke-miterlimit:4;stroke-dasharray:none;stroke-opacity:1"
       id="path144447" />
    <path
       d="m 559.647,654.001 c 5.86,-7.31 24.128,-3.132 28.954,0"
       style="fill:none;stroke:#231f20;stroke-width:0.5;stroke-linecap:butt;stroke-linejoin:miter;stroke-miterlimit:4;stroke-dasharray:none;stroke-opacity:1"
       id="path144449" />
    <path
       d="m 571.729,617.306 c 1.435,-10.359 2.051,-27.365 2.395,-35.025 0.344,-7.659 2.413,-31.334 9.306,-29.942 6.893,1.393 11.718,14.275 12.409,25.415 0.689,11.142 -2.496,31.006 -4.522,38.403 -2.018,-0.784 -4.209,-1.516 -6.507,-2.194 -4.367,-1.286 -9.386,0.973 -13.081,3.343 z"
       style="fill:none;stroke:#231f20;stroke-width:0.5;stroke-linecap:butt;stroke-linejoin:miter;stroke-miterlimit:4;stroke-dasharray:none;stroke-opacity:1"
       id="path144451" />
    <path
       d="m 545.5,726.894 c 1.408,-1.326 5.544,-4.387 12.08,-3.956 9.524,0.627 22.592,6.31 26.884,16.015"
       style="fill:none;stroke:#231f20;stroke-width:0.5;stroke-linecap:butt;stroke-linejoin:miter;stroke-miterlimit:4;stroke-dasharray:none;stroke-opacity:1"
       id="path144453" />
    <path
       d="m 547.883,714.675 c 10.385,0 29.343,-2.182 37.615,8.959 8.273,11.141 27.575,40.038 32.745,48.394 5.169,8.356 9.306,16.364 20.336,20.889 11.029,4.527 26.54,7.661 36.881,7.312 10.339,-0.348 22.404,-4.526 30.675,-6.615 8.273,-2.089 26.886,-6.963 36.536,-10.097 9.651,-3.133 36.537,-17.059 51.703,-36.208 15.165,-19.149 31.021,-34.816 32.399,-56.402 1.379,-21.586 -1.82,-38.322 -15.855,-40.735 -16.201,-2.785 -34.468,16.712 -45.154,26.808 -10.683,10.097 -28.953,21.586 -41.36,23.327"
       style="fill:none;stroke:#231f20;stroke-width:0.5;stroke-linecap:butt;stroke-linejoin:miter;stroke-miterlimit:4;stroke-dasharray:none;stroke-opacity:1"
       id="path144455" />
    <path
       d="m 540,714.234 c 0,0 0,-10.891 0,-13.578"
       style="fill:none;stroke:#231f20;stroke-width:0.75;stroke-linecap:round;stroke-linejoin:round;stroke-miterlimit:4;stroke-dasharray:none;stroke-opacity:1"
       id="path144457" />
    <path
       d="m 624.791,681.159 c 0,4.874 6.238,14.998 9.996,23.675 4.825,11.14 14.476,35.164 18.267,41.082 3.792,5.918 10.686,14.275 24.818,12.882 14.131,-1.392 40.328,-7.66 52.046,-12.882 11.72,-5.222 21.371,-10.096 27.575,-17.408"
       style="fill:none;stroke:#231f20;stroke-width:0.5;stroke-linecap:butt;stroke-linejoin:miter;stroke-miterlimit:4;stroke-dasharray:none;stroke-opacity:1"
       id="path144459" />
    <path
       d="m 558.958,670.017 c 3.792,-4.874 16.2,-15.319 29.643,-16.016"
       style="fill:none;stroke:#231f20;stroke-width:0.75;stroke-linecap:round;stroke-linejoin:round;stroke-miterlimit:4;stroke-dasharray:none;stroke-opacity:1"
       id="path144461" />
    <path
       d="m 549.997,357.717 c -2.413,0.697 -6.895,4.179 -9.997,4.179 -3.101,0 -7.582,-3.482 -9.995,-4.179 -2.413,-0.696 -9.306,-0.347 -9.306,-3.481 0,-3.133 8.271,-2.785 10.341,-6.963 2.067,-4.178 6.892,-6.963 8.96,-6.963 2.069,0 6.894,2.785 8.962,6.963 2.068,4.178 10.341,3.83 10.341,6.963 0,3.134 -6.894,2.785 -9.306,3.481"
       style="fill:#706d6e;fill-opacity:1;fill-rule:nonzero;stroke:none;stroke-width:0.1"
       id="path144463" />
    <path
       d="m 549.997,357.717 c -2.413,0.697 -6.895,4.179 -9.997,4.179 -3.101,0 -7.582,-3.482 -9.995,-4.179 -2.413,-0.696 -9.306,-0.347 -9.306,-3.481 0,-3.133 8.271,-2.785 10.341,-6.963 2.067,-4.178 6.892,-6.963 8.96,-6.963 2.069,0 6.894,2.785 8.962,6.963 2.068,4.178 10.341,3.83 10.341,6.963 0,3.134 -6.894,2.785 -9.306,3.481 z"
       style="fill:none;stroke:#231f20;stroke-width:0.75;stroke-linecap:round;stroke-linejoin:round;stroke-miterlimit:4;stroke-dasharray:none;stroke-opacity:1"
       id="path144465" />
    <path
       d="m 478.303,398.453 c -3.677,3.096 -8.617,0.696 -12.063,-5.223 -3.448,-5.919 -1.034,-10.444 1.379,-12.186 2.412,-1.741 6.892,-2.785 10.684,3.482 3.792,6.266 4.137,10.445 0,13.927 z"
       style="fill:none;stroke:#231f20;stroke-width:0.5;stroke-linecap:butt;stroke-linejoin:miter;stroke-miterlimit:4;stroke-dasharray:none;stroke-opacity:1"
       id="path144467" />
    <path
       d="m 392.708,386.847 c 0,-2.307 2.47,-4.178 5.515,-4.178 3.046,0 5.516,1.871 5.516,4.178 0,2.309 -2.47,4.12 -5.516,4.12 -3.045,0 -5.515,-1.811 -5.515,-4.12"
       style="fill:#ffffff;fill-opacity:1;fill-rule:nonzero;stroke:none;stroke-width:0.1"
       id="path144469" />
    <path
       d="m 392.708,386.847 c 0,-2.307 2.47,-4.178 5.515,-4.178 3.046,0 5.516,1.871 5.516,4.178 0,2.309 -2.47,4.12 -5.516,4.12 -3.045,0 -5.515,-1.811 -5.515,-4.12 z"
       style="fill:none;stroke:#231f20;stroke-width:0.5;stroke-linecap:butt;stroke-linejoin:miter;stroke-miterlimit:4;stroke-dasharray:none;stroke-opacity:1"
       id="path144471" />
    <path
       d="m 481.248,393.321 c 1.096,2.157 3.144,5.364 7.51,3.971 0,0 -0.23,6.034 4.826,10.676 5.055,4.644 8.731,15.32 10.339,20.426 1.61,5.107 2.759,17.64 0.461,19.961 -2.298,2.321 -9.652,1.856 -13.558,-3.481 -3.906,-5.338 -8.502,-13.693 -4.136,-18.336 4.366,-4.643 8.271,-7.195 5.515,-9.748 -2.758,-2.555 -5.744,-5.766 -5.744,-8.589 0,-4.642 -4.392,-13.619 -5.213,-14.88"
       style="fill:none;stroke:#231f20;stroke-width:0.5;stroke-linecap:butt;stroke-linejoin:miter;stroke-miterlimit:4;stroke-dasharray:none;stroke-opacity:1"
       id="path144473" />
    <path
       d="m 203.939,500.115 c -2.068,-6.963 -2.413,-14.275 -2.068,-25.068 0.344,-10.793 10.34,-26.111 13.098,-33.423 2.757,-7.311 6.548,-23.674 3.102,-28.897 -3.446,-5.223 -5.86,-3.481 -5.86,-3.481 10.686,10.096 -0.689,30.986 -8.272,45.608 -7.583,14.623 -5.859,33.075 -6.204,40.735 -0.345,7.66 1.034,27.504 -1.379,43.52 -2.412,16.015 -4.136,42.824 2.413,74.507 6.549,31.682 15.397,77.756 43.43,112.107 28.033,34.352 59.973,59.883 84.101,71.489 24.127,11.606 69.855,20.193 86.4,21.818 16.545,1.624 47.105,3.25 56.986,3.25 9.881,0 17.004,-4.875 19.761,-16.481 2.758,-11.605 6.894,-24.602 12.409,-34.584 5.515,-9.98 12.18,-14.622 14.936,-16.015 2.756,-1.393 18.842,-3.946 23.208,-3.946 4.368,0 20.452,2.553 23.21,3.946 2.755,1.393 9.42,6.035 14.936,16.015 5.515,9.982 9.65,22.979 12.408,34.584 2.758,11.606 9.879,16.481 19.761,16.481 9.882,0 40.441,-1.626 56.986,-3.25 16.545,-1.625 62.273,-10.212 86.401,-21.818 24.127,-11.606 56.068,-37.137 84.1,-71.489 28.033,-34.351 36.881,-80.425 43.431,-112.107 6.548,-31.683 4.825,-58.492 2.412,-74.507 -2.412,-16.016 -1.033,-35.86 -1.379,-43.52 -0.344,-7.66 1.379,-26.112 -6.204,-40.735 -7.582,-14.622 -18.957,-35.512 -8.271,-45.608 0,0 -2.414,-1.742 -5.861,3.481 -3.446,5.223 0.346,21.586 3.102,28.897 2.759,7.312 12.753,22.63 13.098,33.423 0.344,10.793 0,18.105 -2.068,25.068"
       style="fill:none;stroke:#231f20;stroke-width:0.5;stroke-linecap:butt;stroke-linejoin:miter;stroke-miterlimit:4;stroke-dasharray:none;stroke-opacity:1"
       id="path144475" />
    <path
       d="m 377.657,400.889 c 0,0 -8.961,8.563 -11.719,12.882"
       style="fill:none;stroke:#231f20;stroke-width:0.75;stroke-linecap:round;stroke-linejoin:round;stroke-miterlimit:4;stroke-dasharray:none;stroke-opacity:1"
       id="path144477" />
    <path
       d="m 518.207,754.694 c -11.985,3.059 -23.705,11.067 -32.665,25.69 -8.961,14.622 -11.031,22.979 -25.507,26.808 -14.477,3.83 -39.293,5.919 -47.221,5.571"
       style="fill:none;stroke:#231f20;stroke-width:0.5;stroke-linecap:butt;stroke-linejoin:miter;stroke-miterlimit:4;stroke-dasharray:none;stroke-opacity:1"
       id="path144479" />
    <path
       d="m 203.939,500.115 c 2.068,6.964 -1.379,14.971 1.379,29.246 2.758,14.274 6.204,36.208 11.374,51.876 5.17,15.667 14.132,40.038 14.132,56.75 0,16.711 2.413,40.734 18.613,61.972 0,0 -4.481,-28.201 3.446,-63.365 7.928,-35.164 7.583,-63.017 14.822,-82.514 7.238,-19.496 15.166,-50.483 34.467,-64.758 0,0 17.579,-26.46 39.983,-38.297 l 23.783,-37.254 c 0,0 -8.272,2.437 -13.442,1.394 -5.17,-1.045 -30.677,-8.705 -39.294,-6.268 -8.617,2.437 -26.884,9.4 -37.57,11.838 -10.685,2.436 -23.783,6.963 -27.574,8.355 -3.792,1.393 -8.962,3.83 -10.684,9.053 -1.725,5.222 -9.997,18.452 -15.512,23.326 -5.515,4.874 -19.991,13.927 -17.923,38.646 z m 82.724,-19.149 c -2.07,9.401 -7.584,21.935 -13.788,21.586 -6.205,-0.347 -7.239,-5.57 -5.859,-22.282 1.378,-16.712 8.582,-23.568 14.82,-23.327 8.962,0.349 6.894,14.623 4.827,24.023"
       style="fill:#706d6e;fill-opacity:1;fill-rule:nonzero;stroke:none;stroke-width:0.1"
       id="path144481" />
    <path
       d="m 203.939,500.115 c 2.068,6.964 -1.379,14.971 1.379,29.246 2.758,14.274 6.204,36.208 11.374,51.876 5.17,15.667 14.132,40.038 14.132,56.75 0,16.711 2.413,40.734 18.613,61.972 0,0 -4.481,-28.201 3.446,-63.365 7.928,-35.164 7.583,-63.017 14.822,-82.514 7.238,-19.496 15.166,-50.483 34.467,-64.758 0,0 17.579,-26.46 39.983,-38.297 l 23.783,-37.254 c 0,0 -8.272,2.437 -13.442,1.394 -5.17,-1.045 -30.677,-8.705 -39.294,-6.268 -8.617,2.437 -26.884,9.4 -37.57,11.838 -10.685,2.436 -23.783,6.963 -27.574,8.355 -3.792,1.393 -8.962,3.83 -10.684,9.053 -1.725,5.222 -9.997,18.452 -15.512,23.326 -5.515,4.874 -19.991,13.927 -17.923,38.646 z m 82.724,-19.149 c -2.07,9.401 -7.584,21.935 -13.788,21.586 -6.205,-0.347 -7.239,-5.57 -5.859,-22.282 1.378,-16.712 8.582,-23.568 14.82,-23.327 8.962,0.349 6.894,14.623 4.827,24.023 z"
       style="fill:none;stroke:#231f20;stroke-width:0.75;stroke-linecap:round;stroke-linejoin:round;stroke-miterlimit:4;stroke-dasharray:none;stroke-opacity:1"
       id="path144483" />
    <path
       d="m 302.172,489.322 c -6.204,11.838 -22.749,49.439 -23.093,69.284 -0.345,19.846 -3.791,41.431 4.481,64.41 8.273,22.979 19.283,38.973 27.919,48.394 8.617,9.4 27.229,20.889 30.676,22.282 3.447,1.392 5.514,3.83 13.788,1.045 8.272,-2.785 25.161,-2.089 27.919,-2.785 2.757,-0.697 13.786,-3.134 18.612,-4.527 4.825,-1.392 14.821,-4.526 20.336,-6.615"
       style="fill:none;stroke:#231f20;stroke-width:0.75;stroke-linecap:round;stroke-linejoin:round;stroke-miterlimit:4;stroke-dasharray:none;stroke-opacity:1"
       id="path144485" />
    <path
       d="m 404.472,686.837 c -8.891,0.588 -24.747,-0.108 -31.296,0.588 -6.549,0.697 -18.267,3.482 -23.782,2.785 -5.516,-0.696 -23.438,-8.704 -28.953,-14.274 -5.516,-5.57 -16.2,-20.89 -20.682,-28.201 -4.48,-7.312 -12.063,-19.845 -13.786,-33.423 -1.723,-13.578 -0.786,-33.23 2.757,-44.913 1.983,-6.54 6.549,-20.541 8.962,-28.898 2.412,-8.355 3.102,-13.229 3.102,-13.229 -1.379,-4.526 -0.69,-7.312 1.378,-12.882 2.069,-5.571 9.307,-8.704 9.996,-10.793 0.69,-2.09 6.549,-15.319 10.34,-21.586 3.792,-6.267 13.099,-20.542 19.647,-30.986"
       style="fill:none;stroke:#231f20;stroke-width:0.5;stroke-linecap:butt;stroke-linejoin:miter;stroke-miterlimit:4;stroke-dasharray:none;stroke-opacity:1"
       id="path144487" />
    <path
       d="m 325.723,462.644 c -2.181,7.529 -5.972,17.975 -10.453,25.285 -4.48,7.312 -9.14,15.301 -12.135,24.537"
       style="fill:none;stroke:#231f20;stroke-width:0.5;stroke-linecap:butt;stroke-linejoin:miter;stroke-miterlimit:4;stroke-dasharray:none;stroke-opacity:1"
       id="path144489" />
    <path
       d="m 406.988,389.977 c 2.951,-0.616 11.686,9.868 7.205,21.009 -4.481,11.141 -15.51,24.72 -27.574,38.298 -12.064,13.578 -46.876,51.527 -51.701,56.75 -4.827,5.222 -12.41,10.445 -13.099,12.185 -0.689,1.741 -2.068,8.704 -8.617,10.793 -6.973,2.226 -10.685,0.349 -12.408,-1.74"
       style="fill:none;stroke:#231f20;stroke-width:0.5;stroke-linecap:butt;stroke-linejoin:miter;stroke-miterlimit:4;stroke-dasharray:none;stroke-opacity:1"
       id="path144491" />
    <path
       d="m 348.704,540.501 c 0,0 26.885,-12.185 43.774,-16.711 16.89,-4.526 51.702,-11.837 61.009,-13.579 0,0 -5.556,-13.791 -35.157,-6.614 -34.468,8.356 -59.274,27.649 -69.626,36.904 z"
       style="fill:none;stroke:#231f20;stroke-width:0.5;stroke-linecap:butt;stroke-linejoin:miter;stroke-miterlimit:4;stroke-dasharray:none;stroke-opacity:1"
       id="path144493" />
    <path
       d="m 348.704,540.501 c -7.238,4.874 -17.578,14.626 -21.026,31.336 -3.446,16.71 -1.722,28.548 3.792,40.037 5.515,11.49 13.443,24.024 16.889,27.157 3.447,3.134 26.541,8.356 32.056,8.704 5.514,0.349 27.574,-1.393 32.745,-2.437 0,0 -25.162,6.615 -32.401,6.267 -7.238,-0.349 -25.506,-5.223 -34.467,-10.445 -8.962,-5.222 -25.506,-20.89 -28.954,-29.593 -3.447,-8.704 -11.029,-29.246 -10.339,-42.824 0.688,-13.579 3.446,-24.72 15.854,-31.683 12.409,-6.963 23.923,-10.136 36.089,-4.894"
       style="fill:none;stroke:#231f20;stroke-width:0.5;stroke-linecap:butt;stroke-linejoin:miter;stroke-miterlimit:4;stroke-dasharray:none;stroke-opacity:1"
       id="path144495" />
    <path
       d="m 558.958,670.017 c -1.378,3.83 -13.442,17.756 -13.442,17.756 -1.379,-2.089 -5.516,-2.437 -5.516,-2.437 0,0 -4.135,0.348 -5.514,2.437 0,0 -12.064,-13.926 -13.443,-17.756 -1.378,-3.829 -2.757,-10.793 -0.689,-16.016 0,0 5.859,-3.481 9.307,-6.614 3.446,-3.134 7.926,-12.185 4.48,-17.06 -3.446,-4.874 -4.321,-7.07 -2.413,-12.534 2.068,-5.919 4.137,-9.4 8.272,-9.4 4.137,0 6.205,3.481 8.273,9.4 1.908,5.464 1.034,7.66 -2.414,12.534 -3.446,4.875 1.035,13.926 4.482,17.06 3.447,3.133 9.306,6.614 9.306,6.614 2.068,5.223 0.689,12.187 -0.689,16.016"
       style="fill:#706d6e;fill-opacity:1;fill-rule:nonzero;stroke:none;stroke-width:0.1"
       id="path144497" />
    <path
       d="m 558.958,670.017 c -1.378,3.83 -13.442,17.756 -13.442,17.756 -1.379,-2.089 -5.516,-2.437 -5.516,-2.437 0,0 -4.135,0.348 -5.514,2.437 0,0 -12.064,-13.926 -13.443,-17.756 -1.378,-3.829 -2.757,-10.793 -0.689,-16.016 0,0 5.859,-3.481 9.307,-6.614 3.446,-3.134 7.926,-12.185 4.48,-17.06 -3.446,-4.874 -4.321,-7.07 -2.413,-12.534 2.068,-5.919 4.137,-9.4 8.272,-9.4 4.137,0 6.205,3.481 8.273,9.4 1.908,5.464 1.034,7.66 -2.414,12.534 -3.446,4.875 1.035,13.926 4.482,17.06 3.447,3.133 9.306,6.614 9.306,6.614 2.068,5.223 0.689,12.187 -0.689,16.016 z"
       style="fill:none;stroke:#231f20;stroke-width:0.75;stroke-linecap:round;stroke-linejoin:round;stroke-miterlimit:4;stroke-dasharray:none;stroke-opacity:1"
       id="path144499" />
    <path
       d="m 520.354,654.001 c -5.859,-7.31 -24.127,-3.132 -28.953,0"
       style="fill:none;stroke:#231f20;stroke-width:0.5;stroke-linecap:butt;stroke-linejoin:miter;stroke-miterlimit:4;stroke-dasharray:none;stroke-opacity:1"
       id="path144501" />
    <path
       d="m 508.272,617.306 c -1.435,-10.359 -2.05,-27.365 -2.395,-35.025 -0.344,-7.659 -2.413,-31.334 -9.305,-29.942 -6.895,1.393 -11.72,14.275 -12.409,25.415 -0.69,11.142 2.495,31.006 4.521,38.403 2.019,-0.784 4.21,-1.516 6.508,-2.194 4.367,-1.286 9.385,0.973 13.08,3.343 z"
       style="fill:none;stroke:#231f20;stroke-width:0.5;stroke-linecap:butt;stroke-linejoin:miter;stroke-miterlimit:4;stroke-dasharray:none;stroke-opacity:1"
       id="path144503" />
    <path
       d="m 249.437,699.959 c 4.136,8.356 9.142,20.371 20.461,34.719 15.729,19.943 29.517,30.387 45.027,41.18 15.511,10.793 28.264,12.882 36.881,14.971 8.617,2.088 27.574,9.052 38.948,11.837 11.375,2.786 28.265,1.393 49.979,-5.222 16.573,-5.048 25.851,-20.194 31.366,-31.334 5.515,-11.142 15.166,-19.497 23.439,-27.157 8.271,-7.66 38.258,-12.534 44.462,-12.534 6.205,0 36.193,4.874 44.464,12.534 8.272,7.66 17.923,16.015 23.439,27.157 5.515,11.14 14.792,26.286 31.365,31.334 21.715,6.615 38.604,8.008 49.979,5.222 11.374,-2.785 30.331,-9.749 38.948,-11.837 8.616,-2.089 21.371,-4.178 36.882,-14.971 15.508,-10.793 29.297,-21.237 45.026,-41.18 11.319,-14.348 16.325,-26.363 20.461,-34.719"
       style="fill:none;stroke:#231f20;stroke-width:0.5;stroke-linecap:butt;stroke-linejoin:miter;stroke-miterlimit:4;stroke-dasharray:none;stroke-opacity:1"
       id="path144505" />
    <path
       d="m 534.502,726.894 c -1.409,-1.326 -5.545,-4.387 -12.08,-3.956 -9.524,0.627 -22.592,6.31 -26.884,16.015"
       style="fill:none;stroke:#231f20;stroke-width:0.5;stroke-linecap:butt;stroke-linejoin:miter;stroke-miterlimit:4;stroke-dasharray:none;stroke-opacity:1"
       id="path144507" />
    <path
       d="m 532.12,714.675 c -10.387,0 -29.345,-2.182 -37.618,8.959 -8.271,11.141 -27.573,40.038 -32.743,48.394 -5.171,8.356 -9.306,16.364 -20.337,20.889 -11.029,4.527 -26.54,7.661 -36.88,7.312 -10.34,-0.348 -22.405,-4.526 -30.676,-6.615 -8.273,-2.089 -26.885,-6.963 -36.536,-10.097 -9.652,-3.133 -36.536,-17.059 -51.703,-36.208 -15.166,-19.149 -31.02,-34.816 -32.399,-56.402 -1.379,-21.586 1.82,-38.322 15.856,-40.735 16.199,-2.785 34.467,16.712 45.152,26.808 10.685,10.097 28.953,21.586 41.362,23.327"
       style="fill:none;stroke:#231f20;stroke-width:0.5;stroke-linecap:butt;stroke-linejoin:miter;stroke-miterlimit:4;stroke-dasharray:none;stroke-opacity:1"
       id="path144509" />
    <path
       d="m 455.21,681.159 c 0,4.874 -6.238,14.998 -9.997,23.675 -4.825,11.14 -14.475,35.164 -18.267,41.082 -3.791,5.918 -10.685,14.275 -24.817,12.882 -14.131,-1.392 -40.327,-7.66 -52.045,-12.882 -11.72,-5.222 -21.372,-10.096 -27.576,-17.408"
       style="fill:none;stroke:#231f20;stroke-width:0.5;stroke-linecap:butt;stroke-linejoin:miter;stroke-miterlimit:4;stroke-dasharray:none;stroke-opacity:1"
       id="path144511" />
    <path
       d="m 521.043,670.017 c -3.792,-4.874 -16.2,-15.319 -29.642,-16.016"
       style="fill:none;stroke:#231f20;stroke-width:0.75;stroke-linecap:round;stroke-linejoin:round;stroke-miterlimit:4;stroke-dasharray:none;stroke-opacity:1"
       id="path144513" />
    <path
       d="m 474.666,761.556 c 5.668,-14.998 18.114,-29.218 29.833,-37.225 11.719,-8.008 25.851,-10.097 35.501,-10.097 9.651,0 23.784,2.089 35.502,10.097 11.72,8.007 24.166,22.227 29.834,37.225"
       style="fill:none;stroke:#231f20;stroke-width:0.5;stroke-linecap:butt;stroke-linejoin:miter;stroke-miterlimit:4;stroke-dasharray:none;stroke-opacity:1"
       id="path144515" />
    <path
       d="m 549.515,707.469 c 0,0 10.332,4.397 14.613,-0.547 4.826,-5.57 8.273,-13.23 11.03,-20.889 2.757,-7.659 5.86,-12.534 9.996,-11.838 4.136,0.696 6.548,4.526 7.237,18.104 0.691,13.578 5.17,22.979 11.374,35.513 6.204,12.533 19.304,34.119 23.095,40.734 3.791,6.616 8.616,16.016 19.99,19.846 11.375,3.829 27.919,3.482 38.949,1.044 11.03,-2.436 20.682,-9.052 32.745,-10.444 12.064,-1.393 33.528,-8.872 46.876,-18.453 13.098,-9.401 23.439,-17.756 32.746,-30.29 9.305,-12.534 22.068,-34.349 21.025,-48.046 -1.035,-13.579 -10.026,-22.261 -21.025,-17.756 -12.753,5.222 -30.677,18.801 -39.984,25.416 -9.306,6.614 -16.2,8.703 -18.612,10.444 -2.413,1.741 -8.962,8.704 -17.235,11.142 -8.272,2.436 -17.233,6.266 -22.059,5.918 -4.825,-0.348 -12.752,0.696 -12.408,4.178 0.343,3.482 6.893,3.482 13.788,3.133 6.891,-0.347 21.713,-1.74 33.432,-10.096 11.719,-8.356 16.89,-13.926 29.989,-24.023 13.096,-10.097 23.436,-17.06 32.743,-18.104 9.306,-1.045 15.166,2.088 16.544,11.14 1.101,7.235 -3.79,22.979 -8.272,28.898 -5.657,7.472 -12.408,18.104 -15.165,21.586 -2.758,3.481 -16.546,16.712 -26.885,22.978 -10.34,6.267 -18.958,12.186 -35.847,17.06 -10.464,3.02 -12.753,1.392 -24.127,5.222 -11.375,3.83 -23.094,10.097 -37.226,8.704 -14.132,-1.392 -24.817,-4.874 -31.021,-11.836 -6.205,-6.964 -12.752,-19.846 -20.335,-34.121 -7.583,-14.274 -17.234,-35.512 -17.925,-42.127 -0.688,-6.615 -2.067,-26.112 -8.96,-28.897 -6.894,-2.785 -13.787,4.178 -16.891,12.533 -3.101,8.357 -6.427,27.29 -22,23.046"
       style="fill:#b2b1b1;fill-opacity:1;fill-rule:nonzero;stroke:none;stroke-width:0.1"
       id="path144517" />
    <path
       d="m 549.515,707.469 c 0,0 10.332,4.397 14.613,-0.547 4.826,-5.57 8.273,-13.23 11.03,-20.889 2.757,-7.659 5.86,-12.534 9.996,-11.838 4.136,0.696 6.548,4.526 7.237,18.104 0.691,13.578 5.17,22.979 11.374,35.513 6.204,12.533 19.304,34.119 23.095,40.734 3.791,6.616 8.616,16.016 19.99,19.846 11.375,3.829 27.919,3.482 38.949,1.044 11.03,-2.436 20.682,-9.052 32.745,-10.444 12.064,-1.393 33.528,-8.872 46.876,-18.453 13.098,-9.401 23.439,-17.756 32.746,-30.29 9.305,-12.534 22.068,-34.349 21.025,-48.046 -1.035,-13.579 -10.026,-22.261 -21.025,-17.756 -12.753,5.222 -30.677,18.801 -39.984,25.416 -9.306,6.614 -16.2,8.703 -18.612,10.444 -2.413,1.741 -8.962,8.704 -17.235,11.142 -8.272,2.436 -17.233,6.266 -22.059,5.918 -4.825,-0.348 -12.752,0.696 -12.408,4.178 0.343,3.482 6.893,3.482 13.788,3.133 6.891,-0.347 21.713,-1.74 33.432,-10.096 11.719,-8.356 16.89,-13.926 29.989,-24.023 13.096,-10.097 23.436,-17.06 32.743,-18.104 9.306,-1.045 15.166,2.088 16.544,11.14 1.101,7.235 -3.79,22.979 -8.272,28.898 -5.657,7.472 -12.408,18.104 -15.165,21.586 -2.758,3.481 -16.546,16.712 -26.885,22.978 -10.34,6.267 -18.958,12.186 -35.847,17.06 -10.464,3.02 -12.753,1.392 -24.127,5.222 -11.375,3.83 -23.094,10.097 -37.226,8.704 -14.132,-1.392 -24.817,-4.874 -31.021,-11.836 -6.205,-6.964 -12.752,-19.846 -20.335,-34.121 -7.583,-14.274 -17.234,-35.512 -17.925,-42.127 -0.688,-6.615 -2.067,-26.112 -8.96,-28.897 -6.894,-2.785 -13.787,4.178 -16.891,12.533 -3.101,8.357 -6.427,27.29 -22,23.046"
       style="fill:none;stroke:#231f20;stroke-width:0.5;stroke-linecap:round;stroke-linejoin:round;stroke-miterlimit:4;stroke-dasharray:2.8, 1.8;stroke-dashoffset:0;stroke-opacity:1"
       id="path144519" />
    <path
       d="m 700.966,739.649 c 8.374,-1.134 21.026,-1.393 30.33,-5.222 9.307,-3.83 22.406,-12.185 18.959,-15.668 -3.448,-3.481 -6.894,7.66 -20.681,11.49 -13.786,3.83 -24.128,4.526 -32.056,5.571 -7.928,1.044 -12.753,1.74 -17.233,2.436 -4.481,0.697 -7.582,0 -7.928,-5.57 -0.344,-5.57 -2.757,-22.978 -13.786,-31.334 0,0 17.578,9.052 31.71,8.007 14.131,-1.044 26.884,-3.829 29.297,-4.874 2.414,-1.044 5.515,-2.785 4.826,-4.178 -0.69,-1.392 -8.616,0.349 -17.923,2.089 -9.307,1.741 -20.682,5.57 -30.332,1.045 -9.651,-4.526 -18.268,-10.793 -23.439,-12.882 -5.169,-2.089 -7.582,-3.134 -9.306,-1.045 -1.723,2.089 2.497,6.435 7.583,12.534 5.515,6.615 12.063,13.926 13.098,20.194 1.034,6.266 0.344,11.489 0,14.622 -0.345,3.134 2.413,11.141 11.03,9.749 8.617,-1.393 16.566,-5.706 25.851,-6.964"
       style="fill:#b2b1b1;fill-opacity:1;fill-rule:nonzero;stroke:none;stroke-width:0.1"
       id="path144521" />
    <path
       d="m 700.966,739.649 c 8.374,-1.134 21.026,-1.393 30.33,-5.222 9.307,-3.83 22.406,-12.185 18.959,-15.668 -3.448,-3.481 -6.894,7.66 -20.681,11.49 -13.786,3.83 -24.128,4.526 -32.056,5.571 -7.928,1.044 -12.753,1.74 -17.233,2.436 -4.481,0.697 -7.582,0 -7.928,-5.57 -0.344,-5.57 -2.757,-22.978 -13.786,-31.334 0,0 17.578,9.052 31.71,8.007 14.131,-1.044 26.884,-3.829 29.297,-4.874 2.414,-1.044 5.515,-2.785 4.826,-4.178 -0.69,-1.392 -8.616,0.349 -17.923,2.089 -9.307,1.741 -20.682,5.57 -30.332,1.045 -9.651,-4.526 -18.268,-10.793 -23.439,-12.882 -5.169,-2.089 -7.582,-3.134 -9.306,-1.045 -1.723,2.089 2.497,6.435 7.583,12.534 5.515,6.615 12.063,13.926 13.098,20.194 1.034,6.266 0.344,11.489 0,14.622 -0.345,3.134 2.413,11.141 11.03,9.749 8.617,-1.393 16.566,-5.706 25.851,-6.964 z"
       style="fill:none;stroke:#231f20;stroke-width:0.5;stroke-linecap:round;stroke-linejoin:round;stroke-miterlimit:4;stroke-dasharray:2.8, 1.8;stroke-dashoffset:0;stroke-opacity:1"
       id="path144523" />
    <path
       d="m 530.488,707.469 c 0,0 -10.333,4.397 -14.614,-0.547 -4.826,-5.57 -8.273,-13.23 -11.031,-20.889 -2.757,-7.659 -5.859,-12.534 -9.996,-11.838 -4.136,0.696 -6.549,4.526 -7.237,18.104 -0.69,13.578 -5.17,22.979 -11.375,35.513 -6.204,12.533 -19.302,34.119 -23.093,40.734 -3.792,6.616 -8.617,16.016 -19.991,19.846 -11.375,3.829 -27.92,3.482 -38.949,1.044 -11.03,-2.436 -20.681,-9.052 -32.744,-10.444 -12.064,-1.393 -33.529,-8.872 -46.877,-18.453 -13.097,-9.401 -23.438,-17.756 -32.745,-30.29 -9.305,-12.534 -22.069,-34.349 -21.025,-48.046 1.034,-13.579 10.025,-22.261 21.025,-17.756 12.753,5.222 30.677,18.801 39.983,25.416 9.307,6.614 16.2,8.703 18.613,10.444 2.412,1.741 8.962,8.704 17.234,11.142 8.272,2.436 17.234,6.266 22.059,5.918 4.826,-0.348 12.753,0.696 12.408,4.178 -0.344,3.482 -6.893,3.482 -13.787,3.133 -6.893,-0.347 -21.715,-1.74 -33.433,-10.096 -11.72,-8.356 -16.89,-13.926 -29.988,-24.023 -13.097,-10.097 -23.437,-17.06 -32.744,-18.104 -9.306,-1.045 -15.165,2.088 -16.545,11.14 -1.101,7.235 3.792,22.979 8.273,28.898 5.657,7.472 12.409,18.104 15.166,21.586 2.758,3.481 16.545,16.712 26.885,22.978 10.34,6.267 18.958,12.186 35.846,17.06 10.465,3.02 12.754,1.392 24.128,5.222 11.374,3.83 23.094,10.097 37.226,8.704 14.131,-1.392 24.816,-4.874 31.02,-11.836 6.204,-6.964 12.753,-19.846 20.336,-34.121 7.583,-14.274 17.234,-35.512 17.924,-42.127 0.688,-6.615 2.067,-26.112 8.961,-28.897 6.893,-2.785 13.787,4.178 16.89,12.533 3.101,8.357 6.428,27.29 21.999,23.046"
       style="fill:#b2b1b1;fill-opacity:1;fill-rule:nonzero;stroke:none;stroke-width:0.1"
       id="path144525" />
    <path
       d="m 530.488,707.469 c 0,0 -10.333,4.397 -14.614,-0.547 -4.826,-5.57 -8.273,-13.23 -11.031,-20.889 -2.757,-7.659 -5.859,-12.534 -9.996,-11.838 -4.136,0.696 -6.549,4.526 -7.237,18.104 -0.69,13.578 -5.17,22.979 -11.375,35.513 -6.204,12.533 -19.302,34.119 -23.093,40.734 -3.792,6.616 -8.617,16.016 -19.991,19.846 -11.375,3.829 -27.92,3.482 -38.949,1.044 -11.03,-2.436 -20.681,-9.052 -32.744,-10.444 -12.064,-1.393 -33.529,-8.872 -46.877,-18.453 -13.097,-9.401 -23.438,-17.756 -32.745,-30.29 -9.305,-12.534 -22.069,-34.349 -21.025,-48.046 1.034,-13.579 10.025,-22.261 21.025,-17.756 12.753,5.222 30.677,18.801 39.983,25.416 9.307,6.614 16.2,8.703 18.613,10.444 2.412,1.741 8.962,8.704 17.234,11.142 8.272,2.436 17.234,6.266 22.059,5.918 4.826,-0.348 12.753,0.696 12.408,4.178 -0.344,3.482 -6.893,3.482 -13.787,3.133 -6.893,-0.347 -21.715,-1.74 -33.433,-10.096 -11.72,-8.356 -16.89,-13.926 -29.988,-24.023 -13.097,-10.097 -23.437,-17.06 -32.744,-18.104 -9.306,-1.045 -15.165,2.088 -16.545,11.14 -1.101,7.235 3.792,22.979 8.273,28.898 5.657,7.472 12.409,18.104 15.166,21.586 2.758,3.481 16.545,16.712 26.885,22.978 10.34,6.267 18.958,12.186 35.846,17.06 10.465,3.02 12.754,1.392 24.128,5.222 11.374,3.83 23.094,10.097 37.226,8.704 14.131,-1.392 24.816,-4.874 31.02,-11.836 6.204,-6.964 12.753,-19.846 20.336,-34.121 7.583,-14.274 17.234,-35.512 17.924,-42.127 0.688,-6.615 2.067,-26.112 8.961,-28.897 6.893,-2.785 13.787,4.178 16.89,12.533 3.101,8.357 6.428,27.29 21.999,23.046"
       style="fill:none;stroke:#231f20;stroke-width:0.5;stroke-linecap:round;stroke-linejoin:round;stroke-miterlimit:4;stroke-dasharray:2.8, 1.8;stroke-dashoffset:0;stroke-opacity:1"
       id="path144527" />
    <path
       d="m 379.036,739.649 c -8.374,-1.134 -21.026,-1.393 -30.332,-5.222 -9.306,-3.83 -22.404,-12.185 -18.957,-15.668 3.446,-3.481 6.893,7.66 20.68,11.49 13.788,3.83 24.128,4.526 32.055,5.571 7.929,1.044 12.754,1.74 17.234,2.436 4.482,0.697 7.583,0 7.928,-5.57 0.345,-5.57 2.758,-22.978 13.787,-31.334 0,0 -17.578,9.052 -31.71,8.007 -14.132,-1.044 -26.886,-3.829 -29.298,-4.874 -2.413,-1.044 -5.514,-2.785 -4.825,-4.178 0.689,-1.392 8.617,0.349 17.923,2.089 9.306,1.741 20.681,5.57 30.332,1.045 9.651,-4.526 18.268,-10.793 23.438,-12.882 5.17,-2.089 7.583,-3.134 9.306,-1.045 1.724,2.089 -2.497,6.435 -7.583,12.534 -5.514,6.615 -12.063,13.926 -13.098,20.194 -1.034,6.266 -0.344,11.489 0,14.622 0.345,3.134 -2.412,11.141 -11.029,9.749 -8.617,-1.393 -16.566,-5.706 -25.851,-6.964"
       style="fill:#b2b1b1;fill-opacity:1;fill-rule:nonzero;stroke:none;stroke-width:0.1"
       id="path144529" />
    <path
       d="m 379.036,739.649 c -8.374,-1.134 -21.026,-1.393 -30.332,-5.222 -9.306,-3.83 -22.404,-12.185 -18.957,-15.668 3.446,-3.481 6.893,7.66 20.68,11.49 13.788,3.83 24.128,4.526 32.055,5.571 7.929,1.044 12.754,1.74 17.234,2.436 4.482,0.697 7.583,0 7.928,-5.57 0.345,-5.57 2.758,-22.978 13.787,-31.334 0,0 -17.578,9.052 -31.71,8.007 -14.132,-1.044 -26.886,-3.829 -29.298,-4.874 -2.413,-1.044 -5.514,-2.785 -4.825,-4.178 0.689,-1.392 8.617,0.349 17.923,2.089 9.306,1.741 20.681,5.57 30.332,1.045 9.651,-4.526 18.268,-10.793 23.438,-12.882 5.17,-2.089 7.583,-3.134 9.306,-1.045 1.724,2.089 -2.497,6.435 -7.583,12.534 -5.514,6.615 -12.063,13.926 -13.098,20.194 -1.034,6.266 -0.344,11.489 0,14.622 0.345,3.134 -2.412,11.141 -11.029,9.749 -8.617,-1.393 -16.566,-5.706 -25.851,-6.964 z"
       style="fill:none;stroke:#231f20;stroke-width:0.5;stroke-linecap:round;stroke-linejoin:round;stroke-miterlimit:4;stroke-dasharray:2.8, 1.8;stroke-dashoffset:0;stroke-opacity:1"
       id="path144531" />
    <path
       d="m 547.603,358.797 c 1.359,3.795 8.252,12.499 17.56,8.669 9.305,-3.83 17.578,-10.445 21.369,-11.489 3.791,-1.045 11.314,-3.955 8.931,-9.985"
       style="fill:none;stroke:#231f20;stroke-width:0.5;stroke-linecap:round;stroke-linejoin:round;stroke-miterlimit:4;stroke-dasharray:2.8, 1.8;stroke-dashoffset:0;stroke-opacity:1"
       id="path144533" />
    <path
       d="m 569.511,365.458 c 4.241,-2.301 3.746,-15.997 -6.026,-25.309"
       style="fill:none;stroke:#231f20;stroke-width:0.5;stroke-linecap:round;stroke-linejoin:round;stroke-miterlimit:4;stroke-dasharray:2.8, 1.8;stroke-dashoffset:0;stroke-opacity:1"
       id="path144535" />
    <path
       d="m 613.1,351.721 c -1.061,2.515 1.352,4.952 3.765,5.996 2.413,1.045 17.234,11.142 19.99,13.579 2.757,2.437 7.774,3.957 10.781,1.979"
       style="fill:none;stroke:#231f20;stroke-width:0.5;stroke-linecap:round;stroke-linejoin:round;stroke-miterlimit:4;stroke-dasharray:2.8, 1.8;stroke-dashoffset:0;stroke-opacity:1"
       id="path144537" />
    <path
       d="m 604.928,380.889 c -0.471,-6.46 -13.362,-17.534 -34.044,-16.141"
       style="fill:none;stroke:#231f20;stroke-width:0.5;stroke-linecap:round;stroke-linejoin:round;stroke-miterlimit:4;stroke-dasharray:2.8, 1.8;stroke-dashoffset:0;stroke-opacity:1"
       id="path144539" />
    <path
       d="m 561.907,396.8 c 0,0 -3.639,2.349 -5.361,-2.874 -1.724,-5.222 1.391,-23.468 7.178,-25.968"
       style="fill:none;stroke:#231f20;stroke-width:0.5;stroke-linecap:round;stroke-linejoin:round;stroke-miterlimit:4;stroke-dasharray:2.8, 1.8;stroke-dashoffset:0;stroke-opacity:1"
       id="path144541" />
    <path
       d="m 609.855,449.748 c -3.561,-0.72 -4.594,-5.571 -3.446,-10.212 1.148,-4.642 3.905,-8.587 7.812,-7.428 3.907,1.16 5.744,6.962 4.825,10.677 -0.918,3.713 -4.594,7.89 -9.191,6.963 z"
       style="fill:none;stroke:#231f20;stroke-width:0.5;stroke-linecap:round;stroke-linejoin:round;stroke-miterlimit:4;stroke-dasharray:2.8, 1.8;stroke-dashoffset:0;stroke-opacity:1"
       id="path144543" />
    <path
       d="m 595.061,430.731 c 3.076,-5.818 6.063,-19.281 -1.52,-22.53"
       style="fill:none;stroke:#231f20;stroke-width:0.5;stroke-linecap:round;stroke-linejoin:round;stroke-miterlimit:4;stroke-dasharray:2.8, 1.8;stroke-dashoffset:0;stroke-opacity:1"
       id="path144545" />
    <path
       d="m 583.963,410.809 c -4.669,2.033 -11.794,3.892 -17.998,-0.983 -6.201,-4.874 -6.892,-12.07 -1.147,-16.247 5.744,-4.179 13.27,-2.787 15.166,-2.323 3.58,0.876 6.434,4.875 11.259,6.036"
       style="fill:none;stroke:#231f20;stroke-width:0.5;stroke-linecap:round;stroke-linejoin:round;stroke-miterlimit:4;stroke-dasharray:2.8, 1.8;stroke-dashoffset:0;stroke-opacity:1"
       id="path144547" />
    <path
       d="m 556.775,508.471 c 2.298,0 4.366,-0.929 4.366,-7.66 0,-6.73 0.46,-12.301 -4.825,-12.301 -5.286,0 -5.286,6.73 -5.286,9.283 0,2.555 0.46,10.678 5.745,10.678 z"
       style="fill:none;stroke:#231f20;stroke-width:0.5;stroke-linecap:round;stroke-linejoin:round;stroke-miterlimit:4;stroke-dasharray:2.8, 1.8;stroke-dashoffset:0;stroke-opacity:1"
       id="path144549" />
    <path
       d="m 552.216,490.973 c -4.861,-1.535 -7.39,-7.569 -7.619,-13.141 -0.231,-5.57 0.229,-22.048 0.919,-29.012 0.689,-6.963 3.46,-16.098 8.96,-16.481 5.429,-0.377 14.814,-0.731 20.354,14.42 4.234,11.577 0.311,42.864 0.311,42.864"
       style="fill:none;stroke:#231f20;stroke-width:0.5;stroke-linecap:round;stroke-linejoin:round;stroke-miterlimit:4;stroke-dasharray:2.8, 1.8;stroke-dashoffset:0;stroke-opacity:1"
       id="path144551" />
    <path
       d="m 595.14,514.72 c -7.811,0.464 -28.613,2.958 -31.701,-2.767 -3.089,-5.726 -2.987,-18.802 1.15,-21.819 4.134,-3.016 9.65,-1.856 16.083,2.554 6.436,4.411 21.44,18.663 21.44,18.663"
       style="fill:none;stroke:#231f20;stroke-width:0.5;stroke-linecap:round;stroke-linejoin:round;stroke-miterlimit:4;stroke-dasharray:2.8, 1.8;stroke-dashoffset:0;stroke-opacity:1"
       id="path144553" />
    <path
       d="m 867.791,409.246 c 3.791,-2.089 10.339,-4.527 15.508,10.096 5.171,14.622 5.139,39.793 -1.566,56.802"
       style="fill:none;stroke:#231f20;stroke-width:0.5;stroke-linecap:round;stroke-linejoin:round;stroke-miterlimit:4;stroke-dasharray:2.8, 1.8;stroke-dashoffset:0;stroke-opacity:1"
       id="path144555" />
    <path
       d="m 858.878,462.105 c 5.629,-1.143 13.673,-4.939 13.534,-5.231"
       style="fill:none;stroke:#231f20;stroke-width:0.5;stroke-linecap:round;stroke-linejoin:round;stroke-miterlimit:4;stroke-dasharray:2.8, 1.8;stroke-dashoffset:0;stroke-opacity:1"
       id="path144557" />
    <path
       d="m 842.628,438.143 c 3.447,-3.134 11.891,-6.735 19.56,-6.327"
       style="fill:none;stroke:#231f20;stroke-width:0.5;stroke-linecap:round;stroke-linejoin:round;stroke-miterlimit:4;stroke-dasharray:2.8, 1.8;stroke-dashoffset:0;stroke-opacity:1"
       id="path144559" />
    <path
       d="m 552.072,861.803 49.484,-41.161"
       style="fill:none;stroke:#231f20;stroke-width:0.5;stroke-linecap:round;stroke-linejoin:round;stroke-miterlimit:4;stroke-dasharray:2.8, 1.8;stroke-dashoffset:0;stroke-opacity:1"
       id="path144561" />
    <path
       d="m 627.536,894.753 4.826,-73.277"
       style="fill:none;stroke:#231f20;stroke-width:0.5;stroke-linecap:round;stroke-linejoin:round;stroke-miterlimit:4;stroke-dasharray:2.8, 1.8;stroke-dashoffset:0;stroke-opacity:1"
       id="path144563" />
    <path
       d="m 452.465,894.753 -4.827,-73.277"
       style="fill:none;stroke:#231f20;stroke-width:0.5;stroke-linecap:round;stroke-linejoin:round;stroke-miterlimit:4;stroke-dasharray:2.8, 1.8;stroke-dashoffset:0;stroke-opacity:1"
       id="path144565" />
    <path
       d="M 711.711,890.905 702.26,813.069"
       style="fill:none;stroke:#231f20;stroke-width:0.5;stroke-linecap:round;stroke-linejoin:round;stroke-miterlimit:4;stroke-dasharray:2.8, 1.8;stroke-dashoffset:0;stroke-opacity:1"
       id="path144567" />
    <path
       d="m 767.3,789.695 37.184,74.851"
       style="fill:none;stroke:#231f20;stroke-width:0.5;stroke-linecap:round;stroke-linejoin:round;stroke-miterlimit:4;stroke-dasharray:2.8, 1.8;stroke-dashoffset:0;stroke-opacity:1"
       id="path144569" />
    <path
       d="m 798.678,766.25 51.532,70.884"
       style="fill:none;stroke:#231f20;stroke-width:0.5;stroke-linecap:round;stroke-linejoin:round;stroke-miterlimit:4;stroke-dasharray:2.8, 1.8;stroke-dashoffset:0;stroke-opacity:1"
       id="path144571" />
    <path
       d="m 845.591,715.182 73.139,49.409"
       style="fill:none;stroke:#231f20;stroke-width:0.5;stroke-linecap:round;stroke-linejoin:round;stroke-miterlimit:4;stroke-dasharray:2.8, 1.8;stroke-dashoffset:0;stroke-opacity:1"
       id="path144573" />
    <path
       d="m 856.966,695.186 82.517,40.634"
       style="fill:none;stroke:#231f20;stroke-width:0.5;stroke-linecap:round;stroke-linejoin:round;stroke-miterlimit:4;stroke-dasharray:2.8, 1.8;stroke-dashoffset:0;stroke-opacity:1"
       id="path144575" />
    <path
       d="m 868.288,666.473 90.491,29.653"
       style="fill:none;stroke:#231f20;stroke-width:0.5;stroke-linecap:round;stroke-linejoin:round;stroke-miterlimit:4;stroke-dasharray:2.8, 1.8;stroke-dashoffset:0;stroke-opacity:1"
       id="path144577" />
    <path
       d="m 881.792,610.805 92.159,7.336"
       style="fill:none;stroke:#231f20;stroke-width:0.5;stroke-linecap:round;stroke-linejoin:round;stroke-miterlimit:4;stroke-dasharray:2.8, 1.8;stroke-dashoffset:0;stroke-opacity:1"
       id="path144579" />
    <path
       d="m 885.691,576.025 c 0.711,-0.011 85.504,-6.799 85.504,-6.799"
       style="fill:none;stroke:#231f20;stroke-width:0.5;stroke-linecap:round;stroke-linejoin:round;stroke-miterlimit:4;stroke-dasharray:2.8, 1.8;stroke-dashoffset:0;stroke-opacity:1"
       id="path144581" />
    <path
       d="m 883.275,536.37 80.298,-6.881"
       style="fill:none;stroke:#231f20;stroke-width:0.5;stroke-linecap:round;stroke-linejoin:round;stroke-miterlimit:4;stroke-dasharray:2.8, 1.8;stroke-dashoffset:0;stroke-opacity:1"
       id="path144583" />
    <path
       d="m 882.266,495.589 c 1.723,0 73.402,-5.786 73.402,-5.786"
       style="fill:none;stroke:#231f20;stroke-width:0.5;stroke-linecap:round;stroke-linejoin:round;stroke-miterlimit:4;stroke-dasharray:2.8, 1.8;stroke-dashoffset:0;stroke-opacity:1"
       id="path144585" />
    <path
       d="m 882.052,480.645 76.358,-9.447"
       style="fill:none;stroke:#231f20;stroke-width:0.5;stroke-linecap:round;stroke-linejoin:round;stroke-miterlimit:4;stroke-dasharray:2.8, 1.8;stroke-dashoffset:0;stroke-opacity:1"
       id="path144587" />
    <path
       d="m 664.557,404.72 c -3.574,-0.697 -10.468,3.829 -1.507,18.104 8.963,14.274 39.138,44.042 54.21,52.833"
       style="fill:none;stroke:#231f20;stroke-width:0.5;stroke-linecap:round;stroke-linejoin:round;stroke-miterlimit:4;stroke-dasharray:2.8, 1.8;stroke-dashoffset:0;stroke-opacity:1"
       id="path144589" />
    <path
       d="m 771.348,584.112 c 3.033,-8.794 10.962,-23.417 19.923,-14.713"
       style="fill:none;stroke:#231f20;stroke-width:0.5;stroke-linecap:round;stroke-linejoin:round;stroke-miterlimit:4;stroke-dasharray:2.8, 1.8;stroke-dashoffset:0;stroke-opacity:1"
       id="path144591" />
    <path
       d="m 748.124,612.71 c -4.074,-7.102 -7.865,-16.502 -11.313,-34.607 -3.446,-18.104 -11.029,-35.714 -14.031,-41.322"
       style="fill:none;stroke:#231f20;stroke-width:0.5;stroke-linecap:round;stroke-linejoin:round;stroke-miterlimit:4;stroke-dasharray:2.8, 1.8;stroke-dashoffset:0;stroke-opacity:1"
       id="path144593" />
    <path
       d="m 685.786,647.235 c 4.495,-6.463 22.558,-17.943 42.135,-6.284"
       style="fill:none;stroke:#231f20;stroke-width:0.5;stroke-linecap:round;stroke-linejoin:round;stroke-miterlimit:4;stroke-dasharray:2.8, 1.8;stroke-dashoffset:0;stroke-opacity:1"
       id="path144595" />
    <path
       d="m 670.95,685.434 c 0,0 6.41,-32.64 13.216,-36.04"
       style="fill:none;stroke:#231f20;stroke-width:0.5;stroke-linecap:round;stroke-linejoin:round;stroke-miterlimit:4;stroke-dasharray:2.8, 1.8;stroke-dashoffset:0;stroke-opacity:1"
       id="path144597" />
    <path
       d="m 705.798,687.334 21.13,-42.971"
       style="fill:none;stroke:#231f20;stroke-width:0.5;stroke-linecap:round;stroke-linejoin:round;stroke-miterlimit:4;stroke-dasharray:2.8, 1.8;stroke-dashoffset:0;stroke-opacity:1"
       id="path144599" />
    <path
       d="m 713.666,688.442 19.226,-46.86"
       style="fill:none;stroke:#231f20;stroke-width:0.5;stroke-linecap:round;stroke-linejoin:round;stroke-miterlimit:4;stroke-dasharray:2.8, 1.8;stroke-dashoffset:0;stroke-opacity:1"
       id="path144601" />
    <path
       d="m 757.078,620.17 c 2.138,10.505 12.134,23.735 23.164,27.565"
       style="fill:none;stroke:#231f20;stroke-width:0.5;stroke-linecap:round;stroke-linejoin:round;stroke-miterlimit:4;stroke-dasharray:2.8, 1.8;stroke-dashoffset:0;stroke-opacity:1"
       id="path144603" />
    <path
       d="m 759.03,617.655 c 0,0 7.401,23.865 23.612,26.102"
       style="fill:none;stroke:#231f20;stroke-width:0.5;stroke-linecap:round;stroke-linejoin:round;stroke-miterlimit:4;stroke-dasharray:2.8, 1.8;stroke-dashoffset:0;stroke-opacity:1"
       id="path144605" />
    <path
       d="m 767.15,633.37 c 3.096,-10.354 6.543,-23.237 7.921,-28.111 1.379,-4.874 4.825,-13.229 7.239,-11.837 2.413,1.393 -1.379,12.186 -3.447,19.845 -2.068,7.659 -7.389,24.89 -7.389,24.89"
       style="fill:none;stroke:#231f20;stroke-width:0.5;stroke-linecap:round;stroke-linejoin:round;stroke-miterlimit:4;stroke-dasharray:2.8, 1.8;stroke-dashoffset:0;stroke-opacity:1"
       id="path144607" />
    <path
       d="m 764.042,585.415 c 1.85,0.934 8.617,-8.705 4.825,-20.194 -3.79,-11.489 -9.995,-20.542 -14.822,-18.801 -4.825,1.742 -1.723,8.704 0.346,15.32 2.069,6.615 5.859,18.104 6.548,19.497 0.689,1.392 1.724,3.481 3.103,4.178 z"
       style="fill:none;stroke:#231f20;stroke-width:0.5;stroke-linecap:round;stroke-linejoin:round;stroke-miterlimit:4;stroke-dasharray:2.8, 1.8;stroke-dashoffset:0;stroke-opacity:1"
       id="path144609" />
    <path
       d="m 762.49,540.76 c -3.675,-2.743 -6.57,-18.357 -0.486,-14.865"
       style="fill:none;stroke:#231f20;stroke-width:0.5;stroke-linecap:round;stroke-linejoin:round;stroke-miterlimit:4;stroke-dasharray:2.8, 1.8;stroke-dashoffset:0;stroke-opacity:1"
       id="path144611" />
    <path
       d="m 688.662,524.104 c 2.956,0.87 5.754,4.908 -1.138,6.997 -6.895,2.089 -23.095,4.179 -33.091,2.785 -9.996,-1.392 -15.509,-2.089 -22.747,-2.436 -7.239,-0.349 -17.234,-1.742 -24.817,-2.438 -7.583,-0.696 -15.855,-1.044 -16.89,-6.266 -1.035,-5.223 2.643,-7.08 7.582,-9.052 4.941,-1.973 10.196,-7.312 28.954,-3.483"
       style="fill:none;stroke:#231f20;stroke-width:0.5;stroke-linecap:round;stroke-linejoin:round;stroke-miterlimit:4;stroke-dasharray:2.8, 1.8;stroke-dashoffset:0;stroke-opacity:1"
       id="path144613" />
    <path
       d="m 609.678,509.212 c -10.047,-4.919 -17.631,-14.668 -17.287,-23.719 0.345,-9.053 9.773,-20.862 23.214,-11.81"
       style="fill:none;stroke:#231f20;stroke-width:0.5;stroke-linecap:round;stroke-linejoin:round;stroke-miterlimit:4;stroke-dasharray:2.8, 1.8;stroke-dashoffset:0;stroke-opacity:1"
       id="path144615" />
    <path
       d="m 645.482,501.534 c -5.87,-7.337 -12.763,-13.256 -18.967,-16.738 -6.204,-3.481 -11.721,-8.356 -11.029,-13.578 0.688,-5.222 7.583,-7.66 12.753,-8.356 5.169,-0.696 14.729,-0.857 20.336,6.964 7.237,10.096 10.683,24.022 13.097,33.771"
       style="fill:none;stroke:#231f20;stroke-width:0.5;stroke-linecap:round;stroke-linejoin:round;stroke-miterlimit:4;stroke-dasharray:2.8, 1.8;stroke-dashoffset:0;stroke-opacity:1"
       id="path144617" />
    <path
       d="m 651.415,474.304 c 11.292,-0.301 23.354,5.618 48.516,21.633 25.162,16.016 47.499,31.813 54.772,39.756"
       style="fill:none;stroke:#231f20;stroke-width:0.5;stroke-linecap:round;stroke-linejoin:round;stroke-miterlimit:4;stroke-dasharray:2.8, 1.8;stroke-dashoffset:0;stroke-opacity:1"
       id="path144619" />
    <path
       d="m 642.785,464.796 c 1.652,-4.719 19.646,-6.83 35.776,-0.542 19.647,7.661 49.289,28.55 66.523,41.78"
       style="fill:none;stroke:#231f20;stroke-width:0.5;stroke-linecap:round;stroke-linejoin:round;stroke-miterlimit:4;stroke-dasharray:2.8, 1.8;stroke-dashoffset:0;stroke-opacity:1"
       id="path144621" />
    <path
       d="m 735.885,633.784 c -6.311,-2.412 -11.826,-10.072 -16.307,-15.991 -4.481,-5.919 -33.393,-50.165 -40.328,-59.535 -8.573,-11.588 -14.665,-22.043 -26.462,-24.599"
       style="fill:none;stroke:#231f20;stroke-width:0.5;stroke-linecap:round;stroke-linejoin:round;stroke-miterlimit:4;stroke-dasharray:2.8, 1.8;stroke-dashoffset:0;stroke-opacity:1"
       id="path144623" />
    <path
       d="m 612.728,657.135 c 3.102,-9.4 13.787,-41.779 20.68,-51.527 0,0 2.804,5.235 8.617,10.793 8.212,7.847 21.698,18.072 35.451,30.169"
       style="fill:none;stroke:#231f20;stroke-width:0.5;stroke-linecap:round;stroke-linejoin:round;stroke-miterlimit:4;stroke-dasharray:2.8, 1.8;stroke-dashoffset:0;stroke-opacity:1"
       id="path144625" />
    <path
       d="m 603.421,624.756 c 6.894,-3.481 27.919,-15.319 32.4,-22.282 4.482,-6.963 9.059,-26.009 7.929,-34.468 -1.725,-12.882 -4.138,-24.719 -12.064,-36.556"
       style="fill:none;stroke:#231f20;stroke-width:0.5;stroke-linecap:round;stroke-linejoin:round;stroke-miterlimit:4;stroke-dasharray:2.8, 1.8;stroke-dashoffset:0;stroke-opacity:1"
       id="path144627" />
    <path
       d="m 591.317,616.157 c 5.248,2.04 9.328,4.44 11.07,7.207 2.413,3.83 7.961,18.662 1.051,27.958"
       style="fill:none;stroke:#231f20;stroke-width:0.5;stroke-linecap:round;stroke-linejoin:round;stroke-miterlimit:4;stroke-dasharray:2.8, 1.8;stroke-dashoffset:0;stroke-opacity:1"
       id="path144629" />
    <path
       d="m 549.059,624.34 c 4.039,-3.761 9.554,-6.547 17.138,-2.717 0,0 2.228,-2.198 5.532,-4.317"
       style="fill:none;stroke:#231f20;stroke-width:0.5;stroke-linecap:round;stroke-linejoin:round;stroke-miterlimit:4;stroke-dasharray:2.8, 1.8;stroke-dashoffset:0;stroke-opacity:1"
       id="path144631" />
    <path
       d="m 559.647,654.001 c 5.86,-4.874 17.579,-13.578 6.55,-32.378"
       style="fill:none;stroke:#231f20;stroke-width:0.5;stroke-linecap:round;stroke-linejoin:round;stroke-miterlimit:4;stroke-dasharray:2.8, 1.8;stroke-dashoffset:0;stroke-opacity:1"
       id="path144633" />
    <path
       d="m 588.601,654.001 c 1.034,-11.489 4.135,-21.933 2.067,-27.156 -2.067,-5.222 -5.858,-12.882 -5.858,-12.882"
       style="fill:none;stroke:#231f20;stroke-width:0.5;stroke-linecap:round;stroke-linejoin:round;stroke-miterlimit:4;stroke-dasharray:2.8, 1.8;stroke-dashoffset:0;stroke-opacity:1"
       id="path144635" />
    <path
       d="m 572.225,612.552 c -3.616,-6.944 -7.753,-27.137 -5.34,-46.287 2.412,-19.148 5.51,-40.399 12.406,-44.571"
       style="fill:none;stroke:#231f20;stroke-width:0.5;stroke-linecap:round;stroke-linejoin:round;stroke-miterlimit:4;stroke-dasharray:2.8, 1.8;stroke-dashoffset:0;stroke-opacity:1"
       id="path144637" />
    <path
       d="m 566.271,573.565 c -3.271,-13.928 -10.76,-14.263 -16.274,-11.129 -5.515,3.133 -5.171,16.016 -5.171,16.016 -4.136,5.221 -3.791,16.363 -0.344,25.067 3.447,8.704 13.441,10.444 15.854,9.4 0,0 8.961,1.741 7.24,-10.445 -1.725,-12.185 -3.104,-13.578 -6.896,-12.185 -3.79,1.392 -6.204,5.57 -5.169,9.4"
       style="fill:none;stroke:#231f20;stroke-width:0.5;stroke-linecap:round;stroke-linejoin:round;stroke-miterlimit:4;stroke-dasharray:2.8, 1.8;stroke-dashoffset:0;stroke-opacity:1"
       id="path144639" />
    <path
       d="m 560.336,612.919 c 0,-3.83 -5.86,-15.668 -8.617,-19.845 -2.757,-4.178 -5.169,-8.009 -6.893,-14.622"
       style="fill:none;stroke:#231f20;stroke-width:0.5;stroke-linecap:round;stroke-linejoin:round;stroke-miterlimit:4;stroke-dasharray:2.8, 1.8;stroke-dashoffset:0;stroke-opacity:1"
       id="path144641" />
    <path
       d="m 563.425,589.987 c 0.703,-1.787 2.474,-9.126 2.783,-14.669"
       style="fill:none;stroke:#231f20;stroke-width:0.5;stroke-linecap:round;stroke-linejoin:round;stroke-miterlimit:4;stroke-dasharray:2.8, 1.8;stroke-dashoffset:0;stroke-opacity:1"
       id="path144643" />
    <path
       d="m 704.69,379.97 c 3.857,-1.711 11.787,-1.014 12.475,9.082 0.689,10.097 -1.892,25.043 -1.892,25.043"
       style="fill:none;stroke:#231f20;stroke-width:0.5;stroke-linecap:round;stroke-linejoin:round;stroke-miterlimit:4;stroke-dasharray:2.8, 1.8;stroke-dashoffset:0;stroke-opacity:1"
       id="path144645" />
    <path
       d="m 711.004,409.863 c 4.559,2.427 9.609,4.257 14.778,2.168 5.171,-2.089 8.617,-5.919 21.371,-7.659 12.753,-1.742 37.57,1.044 45.497,3.829 7.928,2.785 25.162,8.704 25.162,8.704"
       style="fill:none;stroke:#231f20;stroke-width:0.5;stroke-linecap:round;stroke-linejoin:round;stroke-miterlimit:4;stroke-dasharray:2.8, 1.8;stroke-dashoffset:0;stroke-opacity:1"
       id="path144647" />
    <path
       d="m 743.706,380.696 c 7.539,1.325 18.612,4.178 27.229,0 8.617,-4.178 24.817,-12.882 21.025,-27.156 -3.791,-14.275 -18.267,-10.793 -29.986,-7.66 -11.719,3.134 -23.739,8.815 -31.711,15.32 -8.961,7.31 -10.34,15.318 13.443,19.496 z"
       style="fill:none;stroke:#231f20;stroke-width:0.5;stroke-linecap:round;stroke-linejoin:round;stroke-miterlimit:4;stroke-dasharray:2.8, 1.8;stroke-dashoffset:0;stroke-opacity:1"
       id="path144649" />
    <path
       d="m 717.071,388.072 c 1.473,-2.85 8.257,-9.048 15.721,-10.127"
       style="fill:none;stroke:#231f20;stroke-width:0.5;stroke-linecap:round;stroke-linejoin:round;stroke-miterlimit:4;stroke-dasharray:2.8, 1.8;stroke-dashoffset:0;stroke-opacity:1"
       id="path144651" />
    <path
       d="m 767.107,404.214 c 0.036,-6.11 -0.983,-17.095 -8.229,-21.351"
       style="fill:none;stroke:#231f20;stroke-width:0.5;stroke-linecap:round;stroke-linejoin:round;stroke-miterlimit:4;stroke-dasharray:2.8, 1.8;stroke-dashoffset:0;stroke-opacity:1"
       id="path144653" />
    <path
       d="m 761.015,384.47 c 7.163,0.056 36.115,-5.167 36.805,2.493"
       style="fill:none;stroke:#231f20;stroke-width:0.5;stroke-linecap:round;stroke-linejoin:round;stroke-miterlimit:4;stroke-dasharray:2.8, 1.8;stroke-dashoffset:0;stroke-opacity:1"
       id="path144655" />
    <path
       d="m 792.65,408.201 c -5.515,-4.874 -4.951,-8.955 -0.345,-16.015 4.608,-7.06 11.029,-8.008 17.579,-8.356 6.548,-0.348 22.06,-0.697 21.026,15.319"
       style="fill:none;stroke:#231f20;stroke-width:0.5;stroke-linecap:round;stroke-linejoin:round;stroke-miterlimit:4;stroke-dasharray:2.8, 1.8;stroke-dashoffset:0;stroke-opacity:1"
       id="path144657" />
    <path
       d="m 791.71,352.681 c 9.901,-0.882 23.689,-0.882 36.097,2.251 12.408,3.134 18.268,7.312 28.953,5.919 10.685,-1.393 25.852,-5.919 36.881,3.83 11.029,9.748 23.093,28.549 31.365,50.831 8.273,22.282 16.889,47.698 17.578,50.135 0.69,2.437 2.061,7.255 5.202,6.865 3.138,-0.388 4.105,-7.213 1.693,-14.873 -2.413,-7.659 -7.928,-21.933 -14.821,-34.815 -3.799,-7.098 -2.413,-14.971 -6.205,-24.024 -3.791,-9.052 -9.306,-23.326 -17.234,-30.29 -7.927,-6.963 -18.381,-17.341 -32.399,-19.148 -16.2,-2.089 -26.54,3.134 -29.988,2.437 -3.447,-0.696 -20.68,-6.267 -30.676,-8.356 -9.995,-2.089 -24.849,-2.182 -33.622,0.824"
       style="fill:none;stroke:#231f20;stroke-width:0.5;stroke-linecap:round;stroke-linejoin:round;stroke-miterlimit:4;stroke-dasharray:2.8, 1.8;stroke-dashoffset:0;stroke-opacity:1"
       id="path144659" />
    <path
       d="m 861.497,413.54 c -16.289,10.911 -29.209,12.069 -34.724,11.024 -5.515,-1.044 -12.409,-9.748 -9.307,-15.667 3.102,-5.918 8.618,-8.008 18.614,-11.837 9.995,-3.83 15.532,-4.319 19.324,-4.668"
       style="fill:none;stroke:#231f20;stroke-width:0.5;stroke-linecap:round;stroke-linejoin:round;stroke-miterlimit:4;stroke-dasharray:2.8, 1.8;stroke-dashoffset:0;stroke-opacity:1"
       id="path144661" />
    <path
       d="m 866.161,409.027 c 4.135,-4.875 6.455,-13.359 3.352,-18.235"
       style="fill:none;stroke:#231f20;stroke-width:0.5;stroke-linecap:round;stroke-linejoin:round;stroke-miterlimit:4;stroke-dasharray:2.8, 1.8;stroke-dashoffset:0;stroke-opacity:1"
       id="path144663" />
    <path
       d="m 849.867,336.48 c -0.346,6.615 -0.346,13.927 -1.035,20.193 -0.688,6.267 -1.723,26.46 0,29.594 1.724,3.133 5.17,6.963 11.031,6.963 5.859,0 14.748,-3.279 16.544,-10.793 2.413,-10.097 2.383,-17.259 1.709,-23.774 -0.675,-6.516 2.44,-16.666 3.124,-19.773"
       style="fill:none;stroke:#231f20;stroke-width:0.5;stroke-linecap:round;stroke-linejoin:round;stroke-miterlimit:4;stroke-dasharray:2.8, 1.8;stroke-dashoffset:0;stroke-opacity:1"
       id="path144665" />
    <path
       d="m 543.792,713.189 c 2.758,-4.874 2.076,-8.99 0,-13.926 0,0 13.442,5.918 0,13.926"
       style="fill:#b2b1b1;fill-opacity:1;fill-rule:nonzero;stroke:none;stroke-width:0.1"
       id="path144667" />
    <path
       d="m 543.792,713.189 c 2.758,-4.874 2.076,-8.99 0,-13.926 0,0 13.442,5.918 0,13.926 z"
       style="fill:none;stroke:#231f20;stroke-width:0.5;stroke-linecap:round;stroke-linejoin:round;stroke-miterlimit:4;stroke-dasharray:2.8, 1.8;stroke-dashoffset:0;stroke-opacity:1"
       id="path144669" />
    <path
       d="m 546.427,700.828 c 2.88,-8.18 11.841,-25.241 19.77,-31.855 7.927,-6.615 16.888,-13.927 28.607,-9.4 11.719,4.525 18.269,18.801 24.818,31.334 6.547,12.534 13.786,37.253 20.336,53.617 6.548,16.363 16.544,27.852 36.191,23.675 19.646,-4.179 42.74,-10.793 54.114,-14.623 11.375,-3.83 23.439,-10.445 28.264,-16.364 4.825,-5.919 6.55,-7.66 12.064,-11.141 5.515,-3.482 20.994,-18.084 16.889,-24.719 -3.446,-5.571 -21.716,6.267 -25.162,8.704 -3.446,2.437 -11.373,9.748 -11.373,9.748"
       style="fill:none;stroke:#231f20;stroke-width:0.5;stroke-linecap:round;stroke-linejoin:round;stroke-miterlimit:4;stroke-dasharray:2.8, 1.8;stroke-dashoffset:0;stroke-opacity:1"
       id="path144671" />
    <path
       d="m 790.927,734.079 3.558,0.847"
       style="fill:none;stroke:#231f20;stroke-width:0.5;stroke-linecap:round;stroke-linejoin:round;stroke-miterlimit:4;stroke-dasharray:2.8, 1.8;stroke-dashoffset:0;stroke-opacity:1"
       id="path144673" />
    <path
       d="m 803.398,716.021 3.511,1.075"
       style="fill:none;stroke:#231f20;stroke-width:0.5;stroke-linecap:round;stroke-linejoin:round;stroke-miterlimit:4;stroke-dasharray:2.8, 1.8;stroke-dashoffset:0;stroke-opacity:1"
       id="path144675" />
    <path
       d="m 724.012,720.374 c 12.112,-4.748 35.549,-21.459 44.855,-29.119 9.306,-7.66 25.507,-18.8 33.09,-13.578 7.582,5.222 12.063,19.149 -11.03,56.402"
       style="fill:none;stroke:#231f20;stroke-width:0.5;stroke-linecap:round;stroke-linejoin:round;stroke-miterlimit:4;stroke-dasharray:2.8, 1.8;stroke-dashoffset:0;stroke-opacity:1"
       id="path144677" />
    <path
       d="m 757.493,728.508 7.281,1.79"
       style="fill:none;stroke:#231f20;stroke-width:0.5;stroke-linecap:round;stroke-linejoin:round;stroke-miterlimit:4;stroke-dasharray:2.8, 1.8;stroke-dashoffset:0;stroke-opacity:1"
       id="path144679" />
    <path
       d="m 689.956,723.931 c 6.184,2.836 21.35,3.532 33.758,1.443 12.41,-2.088 19.879,-6.603 24.831,-7.246"
       style="fill:none;stroke:#231f20;stroke-width:0.5;stroke-linecap:round;stroke-linejoin:round;stroke-miterlimit:4;stroke-dasharray:2.8, 1.8;stroke-dashoffset:0;stroke-opacity:1"
       id="path144681" />
    <path
       d="m 689.679,718.933 c 7.839,-4.699 15.767,-6.788 21.971,-8.877 6.204,-2.09 11.562,-4.608 12.676,-8.745"
       style="fill:none;stroke:#231f20;stroke-width:0.5;stroke-linecap:round;stroke-linejoin:round;stroke-miterlimit:4;stroke-dasharray:2.8, 1.8;stroke-dashoffset:0;stroke-opacity:1"
       id="path144683" />
    <path
       d="m 707.872,406.447 c -1.364,-1.412 -1.391,-3.468 -0.702,-7.994 0.69,-4.527 0.04,-9.628 4.48,-8.705 3.906,0.812 1.379,10.097 0.689,12.534 -0.689,2.437 -2.591,6.102 -4.467,4.165"
       style="fill:#b2b1b1;fill-opacity:1;fill-rule:nonzero;stroke:none;stroke-width:0.1"
       id="path144685" />
    <path
       d="m 707.872,406.447 c -1.364,-1.412 -1.391,-3.468 -0.702,-7.994 0.69,-4.527 0.04,-9.628 4.48,-8.705 3.906,0.812 1.379,10.097 0.689,12.534 -0.689,2.437 -2.591,6.102 -4.467,4.165 z"
       style="fill:none;stroke:#231f20;stroke-width:0.5;stroke-linecap:round;stroke-linejoin:round;stroke-miterlimit:4;stroke-dasharray:2.8, 1.8;stroke-dashoffset:0;stroke-opacity:1"
       id="path144687" />
    <path
       d="m 543.792,753.227 c 0,0 1.986,1.618 3.792,0.349"
       style="fill:none;stroke:#231f20;stroke-width:0.5;stroke-linecap:round;stroke-linejoin:round;stroke-miterlimit:4;stroke-dasharray:2.8, 1.8;stroke-dashoffset:0;stroke-opacity:1"
       id="path144689" />
    <path
       d="m 532.399,358.797 c -1.359,3.795 -8.254,12.499 -17.56,8.669 -9.306,-3.83 -17.579,-10.445 -21.37,-11.489 -3.792,-1.045 -11.315,-3.955 -8.932,-9.985"
       style="fill:none;stroke:#231f20;stroke-width:0.5;stroke-linecap:round;stroke-linejoin:round;stroke-miterlimit:4;stroke-dasharray:2.8, 1.8;stroke-dashoffset:0;stroke-opacity:1"
       id="path144691" />
    <path
       d="m 510.491,365.458 c -4.243,-2.301 -3.748,-15.997 6.026,-25.309"
       style="fill:none;stroke:#231f20;stroke-width:0.5;stroke-linecap:round;stroke-linejoin:round;stroke-miterlimit:4;stroke-dasharray:2.8, 1.8;stroke-dashoffset:0;stroke-opacity:1"
       id="path144693" />
    <path
       d="m 466.9,351.721 c 1.063,2.515 -1.35,4.952 -3.763,5.996 -2.413,1.045 -17.234,11.142 -19.991,13.579 -2.758,2.437 -7.773,3.957 -10.781,1.979"
       style="fill:none;stroke:#231f20;stroke-width:0.5;stroke-linecap:round;stroke-linejoin:round;stroke-miterlimit:4;stroke-dasharray:2.8, 1.8;stroke-dashoffset:0;stroke-opacity:1"
       id="path144695" />
    <path
       d="m 475.073,380.889 c 0.472,-6.46 13.363,-17.534 34.044,-16.141"
       style="fill:none;stroke:#231f20;stroke-width:0.5;stroke-linecap:round;stroke-linejoin:round;stroke-miterlimit:4;stroke-dasharray:2.8, 1.8;stroke-dashoffset:0;stroke-opacity:1"
       id="path144697" />
    <path
       d="m 518.095,396.8 c 0,0 3.638,2.349 5.361,-2.874 1.724,-5.222 -1.392,-23.468 -7.179,-25.968"
       style="fill:none;stroke:#231f20;stroke-width:0.5;stroke-linecap:round;stroke-linejoin:round;stroke-miterlimit:4;stroke-dasharray:2.8, 1.8;stroke-dashoffset:0;stroke-opacity:1"
       id="path144699" />
    <path
       d="m 470.145,449.748 c 3.563,-0.72 4.596,-5.571 3.447,-10.212 -1.148,-4.642 -3.904,-8.587 -7.811,-7.428 -3.907,1.16 -5.744,6.962 -4.826,10.677 0.919,3.713 4.593,7.89 9.19,6.963 z"
       style="fill:none;stroke:#231f20;stroke-width:0.5;stroke-linecap:round;stroke-linejoin:round;stroke-miterlimit:4;stroke-dasharray:2.8, 1.8;stroke-dashoffset:0;stroke-opacity:1"
       id="path144701" />
    <path
       d="m 484.939,430.731 c -3.074,-5.818 -6.062,-19.281 1.522,-22.53"
       style="fill:none;stroke:#231f20;stroke-width:0.5;stroke-linecap:round;stroke-linejoin:round;stroke-miterlimit:4;stroke-dasharray:2.8, 1.8;stroke-dashoffset:0;stroke-opacity:1"
       id="path144703" />
    <path
       d="m 496.037,410.809 c 4.671,2.033 11.796,3.892 17.999,-0.983 6.203,-4.874 6.892,-12.07 1.148,-16.247 -5.744,-4.179 -13.27,-2.787 -15.166,-2.323 -3.58,0.876 -6.434,4.875 -11.26,6.036"
       style="fill:none;stroke:#231f20;stroke-width:0.5;stroke-linecap:round;stroke-linejoin:round;stroke-miterlimit:4;stroke-dasharray:2.8, 1.8;stroke-dashoffset:0;stroke-opacity:1"
       id="path144705" />
    <path
       d="m 523.227,508.471 c -2.299,0 -4.366,-0.929 -4.366,-7.66 0,-6.73 -0.461,-12.301 4.825,-12.301 5.284,0 5.284,6.73 5.284,9.283 0,2.555 -0.459,10.678 -5.743,10.678 z"
       style="fill:none;stroke:#231f20;stroke-width:0.5;stroke-linecap:round;stroke-linejoin:round;stroke-miterlimit:4;stroke-dasharray:2.8, 1.8;stroke-dashoffset:0;stroke-opacity:1"
       id="path144707" />
    <path
       d="m 527.786,490.973 c 4.862,-1.535 7.388,-7.569 7.619,-13.141 0.229,-5.57 -0.23,-22.048 -0.919,-29.012 -0.69,-6.963 -3.46,-16.098 -8.961,-16.481 -5.43,-0.377 -14.814,-0.731 -20.355,14.42 -4.232,11.577 -0.311,42.864 -0.311,42.864"
       style="fill:none;stroke:#231f20;stroke-width:0.5;stroke-linecap:round;stroke-linejoin:round;stroke-miterlimit:4;stroke-dasharray:2.8, 1.8;stroke-dashoffset:0;stroke-opacity:1"
       id="path144709" />
    <path
       d="m 489.908,519.381 c 14.248,-0.233 21.829,11.372 25.966,15.085 4.135,3.714 10.799,2.323 13.556,0.465 2.758,-1.857 6.435,-5.339 10.57,-5.339 4.137,0 7.812,3.482 10.57,5.339 2.759,1.858 9.423,3.249 13.558,-0.465 4.136,-3.713 11.718,-15.318 25.965,-15.085"
       style="fill:none;stroke:#231f20;stroke-width:0.5;stroke-linecap:round;stroke-linejoin:round;stroke-miterlimit:4;stroke-dasharray:2.8, 1.8;stroke-dashoffset:0;stroke-opacity:1"
       id="path144711" />
    <path
       d="m 484.861,514.72 c 7.812,0.464 28.613,2.958 31.702,-2.767 3.088,-5.726 2.985,-18.802 -1.149,-21.819 -4.136,-3.016 -9.651,-1.856 -16.085,2.554 -6.435,4.411 -21.439,18.663 -21.439,18.663"
       style="fill:none;stroke:#231f20;stroke-width:0.5;stroke-linecap:round;stroke-linejoin:round;stroke-miterlimit:4;stroke-dasharray:2.8, 1.8;stroke-dashoffset:0;stroke-opacity:1"
       id="path144713" />
    <path
       d="m 212.211,409.246 c -3.791,-2.089 -10.34,-4.527 -15.51,10.096 -5.17,14.622 -5.138,39.793 1.567,56.802"
       style="fill:none;stroke:#231f20;stroke-width:0.5;stroke-linecap:round;stroke-linejoin:round;stroke-miterlimit:4;stroke-dasharray:2.8, 1.8;stroke-dashoffset:0;stroke-opacity:1"
       id="path144715" />
    <path
       d="m 221.124,462.105 c -5.63,-1.143 -13.675,-4.939 -13.535,-5.231"
       style="fill:none;stroke:#231f20;stroke-width:0.5;stroke-linecap:round;stroke-linejoin:round;stroke-miterlimit:4;stroke-dasharray:2.8, 1.8;stroke-dashoffset:0;stroke-opacity:1"
       id="path144717" />
    <path
       d="m 237.374,438.143 c -3.448,-3.134 -11.893,-6.735 -19.562,-6.327"
       style="fill:none;stroke:#231f20;stroke-width:0.5;stroke-linecap:round;stroke-linejoin:round;stroke-miterlimit:4;stroke-dasharray:2.8, 1.8;stroke-dashoffset:0;stroke-opacity:1"
       id="path144719" />
    <path
       d="m 500.271,774.244 39.729,0.221 39.73,-0.221"
       style="fill:none;stroke:#231f20;stroke-width:0.5;stroke-linecap:round;stroke-linejoin:round;stroke-miterlimit:4;stroke-dasharray:2.8, 1.8;stroke-dashoffset:0;stroke-opacity:1"
       id="path144721" />
    <path
       d="M 527.929,861.803 478.445,820.642"
       style="fill:none;stroke:#231f20;stroke-width:0.5;stroke-linecap:round;stroke-linejoin:round;stroke-miterlimit:4;stroke-dasharray:2.8, 1.8;stroke-dashoffset:0;stroke-opacity:1"
       id="path144723" />
    <path
       d="m 368.291,890.905 9.45,-77.836"
       style="fill:none;stroke:#231f20;stroke-width:0.5;stroke-linecap:round;stroke-linejoin:round;stroke-miterlimit:4;stroke-dasharray:2.8, 1.8;stroke-dashoffset:0;stroke-opacity:1"
       id="path144725" />
    <path
       d="m 312.702,789.695 -37.184,74.851"
       style="fill:none;stroke:#231f20;stroke-width:0.5;stroke-linecap:round;stroke-linejoin:round;stroke-miterlimit:4;stroke-dasharray:2.8, 1.8;stroke-dashoffset:0;stroke-opacity:1"
       id="path144727" />
    <path
       d="M 281.324,766.25 229.79,837.134"
       style="fill:none;stroke:#231f20;stroke-width:0.5;stroke-linecap:round;stroke-linejoin:round;stroke-miterlimit:4;stroke-dasharray:2.8, 1.8;stroke-dashoffset:0;stroke-opacity:1"
       id="path144729" />
    <path
       d="M 234.411,715.182 161.27,764.591"
       style="fill:none;stroke:#231f20;stroke-width:0.5;stroke-linecap:round;stroke-linejoin:round;stroke-miterlimit:4;stroke-dasharray:2.8, 1.8;stroke-dashoffset:0;stroke-opacity:1"
       id="path144731" />
    <path
       d="M 223.036,695.186 140.519,735.82"
       style="fill:none;stroke:#231f20;stroke-width:0.5;stroke-linecap:round;stroke-linejoin:round;stroke-miterlimit:4;stroke-dasharray:2.8, 1.8;stroke-dashoffset:0;stroke-opacity:1"
       id="path144733" />
    <path
       d="m 211.713,666.473 -90.49,29.653"
       style="fill:none;stroke:#231f20;stroke-width:0.5;stroke-linecap:round;stroke-linejoin:round;stroke-miterlimit:4;stroke-dasharray:2.8, 1.8;stroke-dashoffset:0;stroke-opacity:1"
       id="path144735" />
    <path
       d="m 198.209,610.805 -92.158,7.336"
       style="fill:none;stroke:#231f20;stroke-width:0.5;stroke-linecap:round;stroke-linejoin:round;stroke-miterlimit:4;stroke-dasharray:2.8, 1.8;stroke-dashoffset:0;stroke-opacity:1"
       id="path144737" />
    <path
       d="m 194.311,576.025 c -0.712,-0.011 -85.504,-6.799 -85.504,-6.799"
       style="fill:none;stroke:#231f20;stroke-width:0.5;stroke-linecap:round;stroke-linejoin:round;stroke-miterlimit:4;stroke-dasharray:2.8, 1.8;stroke-dashoffset:0;stroke-opacity:1"
       id="path144739" />
    <path
       d="m 196.727,536.37 -80.299,-6.881"
       style="fill:none;stroke:#231f20;stroke-width:0.5;stroke-linecap:round;stroke-linejoin:round;stroke-miterlimit:4;stroke-dasharray:2.8, 1.8;stroke-dashoffset:0;stroke-opacity:1"
       id="path144741" />
    <path
       d="m 197.735,495.589 c -1.724,0 -73.401,-5.786 -73.401,-5.786"
       style="fill:none;stroke:#231f20;stroke-width:0.5;stroke-linecap:round;stroke-linejoin:round;stroke-miterlimit:4;stroke-dasharray:2.8, 1.8;stroke-dashoffset:0;stroke-opacity:1"
       id="path144743" />
    <path
       d="m 197.949,480.645 -76.357,-9.447"
       style="fill:none;stroke:#231f20;stroke-width:0.5;stroke-linecap:round;stroke-linejoin:round;stroke-miterlimit:4;stroke-dasharray:2.8, 1.8;stroke-dashoffset:0;stroke-opacity:1"
       id="path144745" />
    <path
       d="m 415.444,404.72 c 3.575,-0.697 10.468,3.829 1.507,18.104 -8.962,14.274 -39.137,44.042 -54.209,52.833"
       style="fill:none;stroke:#231f20;stroke-width:0.5;stroke-linecap:round;stroke-linejoin:round;stroke-miterlimit:4;stroke-dasharray:2.8, 1.8;stroke-dashoffset:0;stroke-opacity:1"
       id="path144747" />
    <path
       d="M 308.653,584.112 C 305.62,575.318 297.692,560.695 288.73,569.399"
       style="fill:none;stroke:#231f20;stroke-width:0.5;stroke-linecap:round;stroke-linejoin:round;stroke-miterlimit:4;stroke-dasharray:2.8, 1.8;stroke-dashoffset:0;stroke-opacity:1"
       id="path144749" />
    <path
       d="m 331.876,612.71 c 4.076,-7.102 7.867,-16.502 11.313,-34.607 3.447,-18.104 11.03,-35.714 14.033,-41.322"
       style="fill:none;stroke:#231f20;stroke-width:0.5;stroke-linecap:round;stroke-linejoin:round;stroke-miterlimit:4;stroke-dasharray:2.8, 1.8;stroke-dashoffset:0;stroke-opacity:1"
       id="path144751" />
    <path
       d="m 394.215,647.235 c -4.494,-6.463 -22.557,-17.943 -42.134,-6.284"
       style="fill:none;stroke:#231f20;stroke-width:0.5;stroke-linecap:round;stroke-linejoin:round;stroke-miterlimit:4;stroke-dasharray:2.8, 1.8;stroke-dashoffset:0;stroke-opacity:1"
       id="path144753" />
    <path
       d="m 409.052,685.434 c 0,0 -6.411,-32.64 -13.216,-36.04"
       style="fill:none;stroke:#231f20;stroke-width:0.5;stroke-linecap:round;stroke-linejoin:round;stroke-miterlimit:4;stroke-dasharray:2.8, 1.8;stroke-dashoffset:0;stroke-opacity:1"
       id="path144755" />
    <path
       d="M 374.204,687.334 353.073,644.363"
       style="fill:none;stroke:#231f20;stroke-width:0.5;stroke-linecap:round;stroke-linejoin:round;stroke-miterlimit:4;stroke-dasharray:2.8, 1.8;stroke-dashoffset:0;stroke-opacity:1"
       id="path144757" />
    <path
       d="M 366.335,688.442 347.11,641.582"
       style="fill:none;stroke:#231f20;stroke-width:0.5;stroke-linecap:round;stroke-linejoin:round;stroke-miterlimit:4;stroke-dasharray:2.8, 1.8;stroke-dashoffset:0;stroke-opacity:1"
       id="path144759" />
    <path
       d="m 322.923,620.17 c -2.137,10.505 -12.133,23.735 -23.164,27.565"
       style="fill:none;stroke:#231f20;stroke-width:0.5;stroke-linecap:round;stroke-linejoin:round;stroke-miterlimit:4;stroke-dasharray:2.8, 1.8;stroke-dashoffset:0;stroke-opacity:1"
       id="path144761" />
    <path
       d="m 320.971,617.655 c 0,0 -7.4,23.865 -23.612,26.102"
       style="fill:none;stroke:#231f20;stroke-width:0.5;stroke-linecap:round;stroke-linejoin:round;stroke-miterlimit:4;stroke-dasharray:2.8, 1.8;stroke-dashoffset:0;stroke-opacity:1"
       id="path144763" />
    <path
       d="m 312.851,633.37 c -3.096,-10.354 -6.542,-23.237 -7.921,-28.111 -1.379,-4.874 -4.826,-13.229 -7.238,-11.837 -2.413,1.393 1.378,12.186 3.447,19.845 2.068,7.659 7.389,24.89 7.389,24.89"
       style="fill:none;stroke:#231f20;stroke-width:0.5;stroke-linecap:round;stroke-linejoin:round;stroke-miterlimit:4;stroke-dasharray:2.8, 1.8;stroke-dashoffset:0;stroke-opacity:1"
       id="path144765" />
    <path
       d="m 315.96,585.415 c -1.85,0.934 -8.618,-8.705 -4.826,-20.194 3.791,-11.489 9.996,-20.542 14.822,-18.801 4.825,1.742 1.722,8.704 -0.345,15.32 -2.069,6.615 -5.86,18.104 -6.55,19.497 -0.688,1.392 -1.723,3.481 -3.101,4.178 z"
       style="fill:none;stroke:#231f20;stroke-width:0.5;stroke-linecap:round;stroke-linejoin:round;stroke-miterlimit:4;stroke-dasharray:2.8, 1.8;stroke-dashoffset:0;stroke-opacity:1"
       id="path144767" />
    <path
       d="m 317.512,540.76 c 3.674,-2.743 6.57,-18.357 0.485,-14.865"
       style="fill:none;stroke:#231f20;stroke-width:0.5;stroke-linecap:round;stroke-linejoin:round;stroke-miterlimit:4;stroke-dasharray:2.8, 1.8;stroke-dashoffset:0;stroke-opacity:1"
       id="path144769" />
    <path
       d="m 391.339,524.104 c -2.955,0.87 -5.755,4.908 1.139,6.997 6.894,2.089 23.094,4.179 33.089,2.785 9.996,-1.392 15.511,-2.089 22.749,-2.436 7.238,-0.349 17.234,-1.742 24.817,-2.438 7.583,-0.696 15.855,-1.044 16.889,-6.266 1.034,-5.223 -2.643,-7.08 -7.582,-9.052 -4.94,-1.973 -10.195,-7.312 -28.953,-3.483"
       style="fill:none;stroke:#231f20;stroke-width:0.5;stroke-linecap:round;stroke-linejoin:round;stroke-miterlimit:4;stroke-dasharray:2.8, 1.8;stroke-dashoffset:0;stroke-opacity:1"
       id="path144771" />
    <path
       d="m 470.322,509.212 c 10.05,-4.919 17.633,-14.668 17.288,-23.719 -0.345,-9.053 -9.773,-20.862 -23.215,-11.81"
       style="fill:none;stroke:#231f20;stroke-width:0.5;stroke-linecap:round;stroke-linejoin:round;stroke-miterlimit:4;stroke-dasharray:2.8, 1.8;stroke-dashoffset:0;stroke-opacity:1"
       id="path144773" />
    <path
       d="m 434.519,501.534 c 5.869,-7.337 12.764,-13.256 18.968,-16.738 6.203,-3.481 11.719,-8.356 11.029,-13.578 -0.689,-5.222 -7.583,-7.66 -12.753,-8.356 -5.17,-0.696 -14.729,-0.857 -20.337,6.964 -7.237,10.096 -10.684,24.022 -13.096,33.771"
       style="fill:none;stroke:#231f20;stroke-width:0.5;stroke-linecap:round;stroke-linejoin:round;stroke-miterlimit:4;stroke-dasharray:2.8, 1.8;stroke-dashoffset:0;stroke-opacity:1"
       id="path144775" />
    <path
       d="m 428.587,474.304 c -11.292,-0.301 -23.356,5.618 -48.517,21.633 -25.161,16.016 -47.498,31.813 -54.77,39.756"
       style="fill:none;stroke:#231f20;stroke-width:0.5;stroke-linecap:round;stroke-linejoin:round;stroke-miterlimit:4;stroke-dasharray:2.8, 1.8;stroke-dashoffset:0;stroke-opacity:1"
       id="path144777" />
    <path
       d="m 437.216,464.796 c -1.653,-4.719 -19.646,-6.83 -35.776,-0.542 -19.647,7.661 -49.289,28.55 -66.522,41.78"
       style="fill:none;stroke:#231f20;stroke-width:0.5;stroke-linecap:round;stroke-linejoin:round;stroke-miterlimit:4;stroke-dasharray:2.8, 1.8;stroke-dashoffset:0;stroke-opacity:1"
       id="path144779" />
    <path
       d="m 344.116,633.784 c 6.311,-2.412 11.827,-10.072 16.307,-15.991 4.481,-5.919 33.394,-50.165 40.327,-59.535 8.575,-11.588 14.666,-22.043 26.462,-24.599"
       style="fill:none;stroke:#231f20;stroke-width:0.5;stroke-linecap:round;stroke-linejoin:round;stroke-miterlimit:4;stroke-dasharray:2.8, 1.8;stroke-dashoffset:0;stroke-opacity:1"
       id="path144781" />
    <path
       d="m 467.274,657.135 c -3.103,-9.4 -13.787,-41.779 -20.681,-51.527 0,0 -2.803,5.235 -8.617,10.793 -8.212,7.847 -21.699,18.072 -35.451,30.169"
       style="fill:none;stroke:#231f20;stroke-width:0.5;stroke-linecap:round;stroke-linejoin:round;stroke-miterlimit:4;stroke-dasharray:2.8, 1.8;stroke-dashoffset:0;stroke-opacity:1"
       id="path144783" />
    <path
       d="m 476.581,624.756 c -6.895,-3.481 -27.92,-15.319 -32.401,-22.282 -4.481,-6.963 -9.058,-26.009 -7.928,-34.468 1.724,-12.882 4.136,-24.719 12.064,-36.556"
       style="fill:none;stroke:#231f20;stroke-width:0.5;stroke-linecap:round;stroke-linejoin:round;stroke-miterlimit:4;stroke-dasharray:2.8, 1.8;stroke-dashoffset:0;stroke-opacity:1"
       id="path144785" />
    <path
       d="m 488.684,616.157 c -5.248,2.04 -9.328,4.44 -11.07,7.207 -2.413,3.83 -7.96,18.662 -1.05,27.958"
       style="fill:none;stroke:#231f20;stroke-width:0.5;stroke-linecap:round;stroke-linejoin:round;stroke-miterlimit:4;stroke-dasharray:2.8, 1.8;stroke-dashoffset:0;stroke-opacity:1"
       id="path144787" />
    <path
       d="m 530.942,624.34 c -4.039,-3.761 -9.554,-6.547 -17.137,-2.717 0,0 -2.229,-2.198 -5.533,-4.317"
       style="fill:none;stroke:#231f20;stroke-width:0.5;stroke-linecap:round;stroke-linejoin:round;stroke-miterlimit:4;stroke-dasharray:2.8, 1.8;stroke-dashoffset:0;stroke-opacity:1"
       id="path144789" />
    <path
       d="m 520.354,654.001 c -5.859,-4.874 -17.579,-13.578 -6.549,-32.378"
       style="fill:none;stroke:#231f20;stroke-width:0.5;stroke-linecap:round;stroke-linejoin:round;stroke-miterlimit:4;stroke-dasharray:2.8, 1.8;stroke-dashoffset:0;stroke-opacity:1"
       id="path144791" />
    <path
       d="m 491.401,654.001 c -1.034,-11.489 -4.136,-21.933 -2.068,-27.156 2.068,-5.222 5.859,-12.882 5.859,-12.882"
       style="fill:none;stroke:#231f20;stroke-width:0.5;stroke-linecap:round;stroke-linejoin:round;stroke-miterlimit:4;stroke-dasharray:2.8, 1.8;stroke-dashoffset:0;stroke-opacity:1"
       id="path144793" />
    <path
       d="m 507.776,612.552 c 3.616,-6.944 7.753,-27.137 5.34,-46.287 -2.412,-19.148 -5.509,-40.399 -12.406,-44.571"
       style="fill:none;stroke:#231f20;stroke-width:0.5;stroke-linecap:round;stroke-linejoin:round;stroke-miterlimit:4;stroke-dasharray:2.8, 1.8;stroke-dashoffset:0;stroke-opacity:1"
       id="path144795" />
    <path
       d="m 513.73,573.565 c 3.27,-13.928 10.76,-14.263 16.275,-11.129 5.515,3.133 5.17,16.016 5.17,16.016 4.136,5.221 3.791,16.363 0.345,25.067 -3.447,8.704 -13.442,10.444 -15.855,9.4 0,0 -8.961,1.741 -7.239,-10.445 1.724,-12.185 3.103,-13.578 6.894,-12.185 3.791,1.392 6.205,5.57 5.17,9.4"
       style="fill:none;stroke:#231f20;stroke-width:0.5;stroke-linecap:round;stroke-linejoin:round;stroke-miterlimit:4;stroke-dasharray:2.8, 1.8;stroke-dashoffset:0;stroke-opacity:1"
       id="path144797" />
    <path
       d="m 519.665,612.919 c 0,-3.83 5.86,-15.668 8.617,-19.845 2.758,-4.178 5.17,-8.009 6.893,-14.622"
       style="fill:none;stroke:#231f20;stroke-width:0.5;stroke-linecap:round;stroke-linejoin:round;stroke-miterlimit:4;stroke-dasharray:2.8, 1.8;stroke-dashoffset:0;stroke-opacity:1"
       id="path144799" />
    <path
       d="m 516.576,589.987 c -0.702,-1.787 -2.474,-9.126 -2.783,-14.669"
       style="fill:none;stroke:#231f20;stroke-width:0.5;stroke-linecap:round;stroke-linejoin:round;stroke-miterlimit:4;stroke-dasharray:2.8, 1.8;stroke-dashoffset:0;stroke-opacity:1"
       id="path144801" />
    <path
       d="m 375.312,379.97 c -3.859,-1.711 -11.787,-1.014 -12.477,9.082 -0.689,10.097 1.893,25.043 1.893,25.043"
       style="fill:none;stroke:#231f20;stroke-width:0.5;stroke-linecap:round;stroke-linejoin:round;stroke-miterlimit:4;stroke-dasharray:2.8, 1.8;stroke-dashoffset:0;stroke-opacity:1"
       id="path144803" />
    <path
       d="m 368.998,409.863 c -4.56,2.427 -9.609,4.257 -14.779,2.168 -5.171,-2.089 -8.617,-5.919 -21.37,-7.659 -12.753,-1.742 -37.57,1.044 -45.498,3.829 -7.928,2.785 -25.161,8.704 -25.161,8.704"
       style="fill:none;stroke:#231f20;stroke-width:0.5;stroke-linecap:round;stroke-linejoin:round;stroke-miterlimit:4;stroke-dasharray:2.8, 1.8;stroke-dashoffset:0;stroke-opacity:1"
       id="path144805" />
    <path
       d="m 336.295,380.696 c -7.54,1.325 -18.612,4.178 -27.229,0 -8.617,-4.178 -24.816,-12.882 -21.025,-27.156 3.792,-14.275 18.268,-10.793 29.987,-7.66 11.719,3.134 23.738,8.815 31.711,15.32 8.961,7.31 10.34,15.318 -13.444,19.496 z"
       style="fill:none;stroke:#231f20;stroke-width:0.5;stroke-linecap:round;stroke-linejoin:round;stroke-miterlimit:4;stroke-dasharray:2.8, 1.8;stroke-dashoffset:0;stroke-opacity:1"
       id="path144807" />
    <path
       d="m 362.93,388.072 c -1.472,-2.85 -8.257,-9.048 -15.722,-10.127"
       style="fill:none;stroke:#231f20;stroke-width:0.5;stroke-linecap:round;stroke-linejoin:round;stroke-miterlimit:4;stroke-dasharray:2.8, 1.8;stroke-dashoffset:0;stroke-opacity:1"
       id="path144809" />
    <path
       d="m 312.894,404.214 c -0.036,-6.11 0.983,-17.095 8.23,-21.351"
       style="fill:none;stroke:#231f20;stroke-width:0.5;stroke-linecap:round;stroke-linejoin:round;stroke-miterlimit:4;stroke-dasharray:2.8, 1.8;stroke-dashoffset:0;stroke-opacity:1"
       id="path144811" />
    <path
       d="m 318.987,384.47 c -7.163,0.056 -36.116,-5.167 -36.806,2.493"
       style="fill:none;stroke:#231f20;stroke-width:0.5;stroke-linecap:round;stroke-linejoin:round;stroke-miterlimit:4;stroke-dasharray:2.8, 1.8;stroke-dashoffset:0;stroke-opacity:1"
       id="path144813" />
    <path
       d="m 287.351,408.201 c 5.516,-4.874 4.952,-8.955 0.345,-16.015 -4.608,-7.06 -11.03,-8.008 -17.579,-8.356 -6.548,-0.348 -22.059,-0.697 -21.025,15.319"
       style="fill:none;stroke:#231f20;stroke-width:0.5;stroke-linecap:round;stroke-linejoin:round;stroke-miterlimit:4;stroke-dasharray:2.8, 1.8;stroke-dashoffset:0;stroke-opacity:1"
       id="path144815" />
    <path
       d="m 288.292,352.681 c -9.902,-0.882 -23.69,-0.882 -36.097,2.251 -12.409,3.134 -18.269,7.312 -28.953,5.919 -10.686,-1.393 -25.852,-5.919 -36.881,3.83 -11.03,9.748 -23.094,28.549 -31.365,50.831 -8.274,22.282 -16.891,47.698 -17.579,50.135 -0.69,2.437 -2.061,7.255 -5.201,6.865 -3.139,-0.388 -4.106,-7.213 -1.693,-14.873 2.412,-7.659 7.927,-21.933 14.821,-34.815 3.798,-7.098 2.412,-14.971 6.204,-24.024 3.791,-9.052 9.306,-23.326 17.234,-30.29 7.927,-6.963 18.382,-17.341 32.399,-19.148 16.2,-2.089 26.541,3.134 29.987,2.437 3.448,-0.696 20.681,-6.267 30.677,-8.356 9.996,-2.089 24.849,-2.182 33.622,0.824"
       style="fill:none;stroke:#231f20;stroke-width:0.5;stroke-linecap:round;stroke-linejoin:round;stroke-miterlimit:4;stroke-dasharray:2.8, 1.8;stroke-dashoffset:0;stroke-opacity:1"
       id="path144817" />
    <path
       d="m 218.504,413.54 c 16.289,10.911 29.209,12.069 34.724,11.024 5.515,-1.044 12.408,-9.748 9.307,-15.667 -3.103,-5.918 -8.617,-8.008 -18.613,-11.837 -9.996,-3.83 -15.533,-4.319 -19.324,-4.668"
       style="fill:none;stroke:#231f20;stroke-width:0.5;stroke-linecap:round;stroke-linejoin:round;stroke-miterlimit:4;stroke-dasharray:2.8, 1.8;stroke-dashoffset:0;stroke-opacity:1"
       id="path144819" />
    <path
       d="m 213.84,409.027 c -4.135,-4.875 -6.454,-13.359 -3.352,-18.235"
       style="fill:none;stroke:#231f20;stroke-width:0.5;stroke-linecap:round;stroke-linejoin:round;stroke-miterlimit:4;stroke-dasharray:2.8, 1.8;stroke-dashoffset:0;stroke-opacity:1"
       id="path144821" />
    <path
       d="m 230.134,336.48 c 0.345,6.615 0.345,13.927 1.034,20.193 0.69,6.267 1.724,26.46 0,29.594 -1.722,3.133 -5.169,6.963 -11.029,6.963 -5.859,0 -14.748,-3.279 -16.544,-10.793 -2.414,-10.097 -2.384,-17.259 -1.709,-23.774 0.674,-6.516 -2.441,-16.666 -3.124,-19.773"
       style="fill:none;stroke:#231f20;stroke-width:0.5;stroke-linecap:round;stroke-linejoin:round;stroke-miterlimit:4;stroke-dasharray:2.8, 1.8;stroke-dashoffset:0;stroke-opacity:1"
       id="path144823" />
    <path
       d="m 536.21,713.189 c -2.758,-4.874 -2.076,-8.99 0,-13.926 0,0 -13.444,5.918 0,13.926"
       style="fill:#b2b1b1;fill-opacity:1;fill-rule:nonzero;stroke:none;stroke-width:0.1"
       id="path144825" />
    <path
       d="m 536.21,713.189 c -2.758,-4.874 -2.076,-8.99 0,-13.926 0,0 -13.444,5.918 0,13.926 z"
       style="fill:none;stroke:#231f20;stroke-width:0.5;stroke-linecap:round;stroke-linejoin:round;stroke-miterlimit:4;stroke-dasharray:2.8, 1.8;stroke-dashoffset:0;stroke-opacity:1"
       id="path144827" />
    <path
       d="m 533.574,700.828 c -2.879,-8.18 -11.841,-25.241 -19.769,-31.855 -7.928,-6.615 -16.889,-13.927 -28.608,-9.4 -11.719,4.525 -18.268,18.801 -24.818,31.334 -6.548,12.534 -13.786,37.253 -20.336,53.617 -6.547,16.363 -16.543,27.852 -36.19,23.675 -19.646,-4.179 -42.74,-10.793 -54.114,-14.623 -11.375,-3.83 -23.439,-10.445 -28.264,-16.364 -4.826,-5.919 -6.55,-7.66 -12.064,-11.141 -5.515,-3.482 -20.995,-18.084 -16.889,-24.719 3.446,-5.571 21.714,6.267 25.161,8.704 3.447,2.437 11.374,9.748 11.374,9.748"
       style="fill:none;stroke:#231f20;stroke-width:0.5;stroke-linecap:round;stroke-linejoin:round;stroke-miterlimit:4;stroke-dasharray:2.8, 1.8;stroke-dashoffset:0;stroke-opacity:1"
       id="path144829" />
    <path
       d="m 289.075,734.079 -3.559,0.847"
       style="fill:none;stroke:#231f20;stroke-width:0.5;stroke-linecap:round;stroke-linejoin:round;stroke-miterlimit:4;stroke-dasharray:2.8, 1.8;stroke-dashoffset:0;stroke-opacity:1"
       id="path144831" />
    <path
       d="m 276.603,716.021 -3.51,1.075"
       style="fill:none;stroke:#231f20;stroke-width:0.5;stroke-linecap:round;stroke-linejoin:round;stroke-miterlimit:4;stroke-dasharray:2.8, 1.8;stroke-dashoffset:0;stroke-opacity:1"
       id="path144833" />
    <path
       d="m 355.99,720.374 c -12.112,-4.748 -35.549,-21.459 -44.856,-29.119 -9.306,-7.66 -25.507,-18.8 -33.089,-13.578 -7.584,5.222 -12.064,19.149 11.03,56.402"
       style="fill:none;stroke:#231f20;stroke-width:0.5;stroke-linecap:round;stroke-linejoin:round;stroke-miterlimit:4;stroke-dasharray:2.8, 1.8;stroke-dashoffset:0;stroke-opacity:1"
       id="path144835" />
    <path
       d="m 322.508,728.508 -7.281,1.79"
       style="fill:none;stroke:#231f20;stroke-width:0.5;stroke-linecap:round;stroke-linejoin:round;stroke-miterlimit:4;stroke-dasharray:2.8, 1.8;stroke-dashoffset:0;stroke-opacity:1"
       id="path144837" />
    <path
       d="m 390.046,723.931 c -6.184,2.836 -21.35,3.532 -33.759,1.443 -12.409,-2.088 -19.879,-6.603 -24.831,-7.246"
       style="fill:none;stroke:#231f20;stroke-width:0.5;stroke-linecap:round;stroke-linejoin:round;stroke-miterlimit:4;stroke-dasharray:2.8, 1.8;stroke-dashoffset:0;stroke-opacity:1"
       id="path144839" />
    <path
       d="m 390.323,718.933 c -7.841,-4.699 -15.768,-6.788 -21.972,-8.877 -6.205,-2.09 -11.563,-4.608 -12.675,-8.745"
       style="fill:none;stroke:#231f20;stroke-width:0.5;stroke-linecap:round;stroke-linejoin:round;stroke-miterlimit:4;stroke-dasharray:2.8, 1.8;stroke-dashoffset:0;stroke-opacity:1"
       id="path144841" />
    <path
       d="m 372.128,406.447 c 1.366,-1.412 1.393,-3.468 0.704,-7.994 -0.69,-4.527 -0.041,-9.628 -4.481,-8.705 -3.906,0.812 -1.379,10.097 -0.69,12.534 0.69,2.437 2.593,6.102 4.467,4.165"
       style="fill:#b2b1b1;fill-opacity:1;fill-rule:nonzero;stroke:none;stroke-width:0.1"
       id="path144843" />
    <path
       d="m 372.128,406.447 c 1.366,-1.412 1.393,-3.468 0.704,-7.994 -0.69,-4.527 -0.041,-9.628 -4.481,-8.705 -3.906,0.812 -1.379,10.097 -0.69,12.534 0.69,2.437 2.593,6.102 4.467,4.165 z"
       style="fill:none;stroke:#231f20;stroke-width:0.5;stroke-linecap:round;stroke-linejoin:round;stroke-miterlimit:4;stroke-dasharray:2.8, 1.8;stroke-dashoffset:0;stroke-opacity:1"
       id="path144845" />
    <path
       d="m 536.21,753.227 c 0,0 -1.986,1.618 -3.792,0.349"
       style="fill:none;stroke:#231f20;stroke-width:0.5;stroke-linecap:round;stroke-linejoin:round;stroke-miterlimit:4;stroke-dasharray:2.8, 1.8;stroke-dashoffset:0;stroke-opacity:1"
       id="path144847" />
  </g>
</svg>
