<?xml version="1.0" encoding="UTF-8" standalone="no"?>
<!-- Created with Inkscape (http://www.inkscape.org/) -->

<svg
   version="1.1"
   id="svg166482"
   width="1440"
   height="1344"
   viewBox="0 0 1440 1344"
   xmlns="http://www.w3.org/2000/svg"
   xmlns:svg="http://www.w3.org/2000/svg">
  <defs
     id="defs166486" />
  <g
     id="g166490">
    <path
       d="m 693.129,408.359 c 0,-1.801 -1.531,-3.259 -3.419,-3.259 -1.89,0 -3.421,1.458 -3.421,3.259 l 4.066,3.201 c 1.89,0 2.774,-1.4 2.774,-3.201"
       style="fill:#ffffff;fill-opacity:1;fill-rule:nonzero;stroke:none;stroke-width:0.1"
       id="path167150" />
    <path
       d="m 693.129,408.359 c 0,-1.801 -1.531,-3.259 -3.419,-3.259 -1.89,0 -3.421,1.458 -3.421,3.259 l 4.066,3.201 c 1.89,0 2.774,-1.4 2.774,-3.201 z"
       style="fill:none;stroke:#231f20;stroke-width:0.5;stroke-linecap:butt;stroke-linejoin:miter;stroke-miterlimit:4;stroke-dasharray:none;stroke-opacity:1"
       id="path167152" />
    <path
       d="m 386.871,408.359 c 0,-1.801 1.532,-3.259 3.421,-3.259 1.888,0 3.419,1.458 3.419,3.259 l -4.066,3.201 c -1.889,0 -2.774,-1.4 -2.774,-3.201"
       style="fill:#ffffff;fill-opacity:1;fill-rule:nonzero;stroke:none;stroke-width:0.1"
       id="path167154" />
    <path
       d="m 386.871,408.359 c 0,-1.801 1.532,-3.259 3.421,-3.259 1.888,0 3.419,1.458 3.419,3.259 l -4.066,3.201 c -1.889,0 -2.774,-1.4 -2.774,-3.201 z"
       style="fill:none;stroke:#231f20;stroke-width:0.5;stroke-linecap:butt;stroke-linejoin:miter;stroke-miterlimit:4;stroke-dasharray:none;stroke-opacity:1"
       id="path167156" />
    <path
       d="m 562.979,658.106 c 3.713,2.322 6.034,11.605 6.034,16.712 0,5.107 -1.856,11.838 -1.856,11.838 0,0 12.882,-11.258 24.138,-11.374 0,0 -11.14,-5.571 -15.087,-7.659 -3.945,-2.089 -13.229,-9.517 -13.229,-9.517 z m 69.399,31.102 c 0,0 23.212,12.07 29.014,22.979 0,0 3.249,-14.855 15.087,-14.391 0,0 -31.334,-4.41 -44.101,-8.588 z M 590.135,367.276 c 8.008,2.437 11.374,3.716 18.801,8.355 7.263,4.54 5.223,10.097 4.874,11.49 -0.348,1.392 -3.83,7.311 1.045,12.881 4.874,5.572 9.052,3.134 9.052,3.134 11.838,-12.882 27.852,-12.882 44.217,-5.222 16.363,7.66 27.156,17.756 27.156,17.756 -7.312,-21.934 6.266,-20.889 6.266,-20.889 0.697,-4.179 2.089,-14.041 7.661,-21.935 5.57,-7.89 16.247,-12.533 19.496,-12.533 3.249,0 6.5,-2.786 17.175,-7.426 10.676,-4.643 19.498,-12.071 46.886,-12.534 34.352,-0.582 50.6,10.211 57.563,16.712 4.967,4.635 9.457,3.539 15.319,1.624 3.018,-0.987 7.896,-0.231 10.503,-0.117 15.075,0.661 18.742,4.526 37.311,21.237 18.57,16.712 34.817,49.673 38.995,61.742 4.177,12.069 4.641,32.495 4.177,47.815 -0.464,15.319 -6.963,22.745 -10.214,27.387 -3.25,4.641 -5.105,7.427 1.393,10.212 6.498,2.785 7.429,5.108 11.607,16.712 2.947,8.186 15.364,36.449 14.853,81.238 -0.212,18.713 0,40.851 -8.355,65.454 -26.203,77.147 -55.706,118.839 -118.374,156.44 -62.669,37.602 -116.053,52.456 -177.793,55.241 -61.741,2.785 -94.7,-10.213 -110.948,-21.354 C 542.553,869.555 540,840.781 540,833.811 c 0,6.97 -2.552,35.744 -18.8,46.885 -16.248,11.141 -49.208,24.139 -110.948,21.354 -61.74,-2.785 -115.124,-17.639 -177.793,-55.241 -62.668,-37.601 -92.172,-79.293 -118.374,-156.44 -8.356,-24.603 -8.144,-46.741 -8.356,-65.454 -0.51,-44.789 11.907,-73.052 14.855,-81.238 4.177,-11.604 5.107,-13.927 11.605,-16.712 6.498,-2.785 4.644,-5.571 1.393,-10.212 -3.25,-4.642 -9.749,-12.068 -10.213,-27.387 -0.464,-15.32 0,-35.746 4.177,-47.815 4.178,-12.069 20.425,-45.03 38.995,-61.742 18.569,-16.711 22.235,-20.576 37.311,-21.237 2.606,-0.114 7.485,-0.87 10.503,0.117 5.861,1.915 10.351,3.011 15.319,-1.624 6.963,-6.501 23.211,-17.294 57.562,-16.712 27.39,0.463 36.21,7.891 46.887,12.534 10.675,4.64 13.925,7.426 17.174,7.426 3.249,0 13.927,4.643 19.497,12.533 5.571,7.894 6.963,17.756 7.66,21.935 0,0 13.579,-1.045 6.267,20.889 0,0 10.793,-10.096 27.156,-17.756 16.364,-7.66 32.379,-7.66 44.216,5.222 0,0 4.179,2.438 9.053,-3.134 4.874,-5.57 1.393,-11.489 1.044,-12.881 -0.348,-1.393 -2.388,-6.95 4.875,-11.49 7.427,-4.639 10.793,-5.918 18.801,-8.355 8.007,-2.438 36.904,-8.704 50.134,-8.704 13.23,0 42.127,6.266 50.135,8.704 z m -86.343,300.347 c -3.946,2.088 -15.086,7.659 -15.086,7.659 11.255,0.116 24.138,11.374 24.138,11.374 0,0 -1.856,-6.731 -1.856,-11.838 0,-5.107 2.321,-14.39 6.034,-16.712 0,0 -9.285,7.428 -13.23,9.517 z m -100.27,30.173 c 11.837,-0.464 15.086,14.391 15.086,14.391 5.802,-10.909 29.015,-22.979 29.015,-22.979 -12.767,4.178 -44.101,8.588 -44.101,8.588"
       style="fill:#ffffff;fill-opacity:1;fill-rule:nonzero;stroke:none;stroke-width:0.1"
       id="path167158" />
    <path
       d="m 562.979,658.106 c 3.713,2.322 6.034,11.605 6.034,16.712 0,5.107 -1.856,11.838 -1.856,11.838 0,0 12.882,-11.258 24.138,-11.374 0,0 -11.14,-5.571 -15.087,-7.659 -3.945,-2.089 -13.229,-9.517 -13.229,-9.517 z m 69.399,31.102 c 0,0 23.212,12.07 29.014,22.979 0,0 3.249,-14.855 15.087,-14.391 0,0 -31.334,-4.41 -44.101,-8.588 z M 590.135,367.276 c 8.008,2.437 11.374,3.716 18.801,8.355 7.263,4.54 5.223,10.097 4.874,11.49 -0.348,1.392 -3.83,7.311 1.045,12.881 4.874,5.572 9.052,3.134 9.052,3.134 11.838,-12.882 27.852,-12.882 44.217,-5.222 16.363,7.66 27.156,17.756 27.156,17.756 -7.312,-21.934 6.266,-20.889 6.266,-20.889 0.697,-4.179 2.089,-14.041 7.661,-21.935 5.57,-7.89 16.247,-12.533 19.496,-12.533 3.249,0 6.5,-2.786 17.175,-7.426 10.676,-4.643 19.498,-12.071 46.886,-12.534 34.352,-0.582 50.6,10.211 57.563,16.712 4.967,4.635 9.457,3.539 15.319,1.624 3.018,-0.987 7.896,-0.231 10.503,-0.117 15.075,0.661 18.742,4.526 37.311,21.237 18.57,16.712 34.817,49.673 38.995,61.742 4.177,12.069 4.641,32.495 4.177,47.815 -0.464,15.319 -6.963,22.745 -10.214,27.387 -3.25,4.641 -5.105,7.427 1.393,10.212 6.498,2.785 7.429,5.108 11.607,16.712 2.947,8.186 15.364,36.449 14.853,81.238 -0.212,18.713 0,40.851 -8.355,65.454 -26.203,77.147 -55.706,118.839 -118.374,156.44 -62.669,37.602 -116.053,52.456 -177.793,55.241 -61.741,2.785 -94.7,-10.213 -110.948,-21.354 C 542.553,869.555 540,840.781 540,833.811 c 0,6.97 -2.552,35.744 -18.8,46.885 -16.248,11.141 -49.208,24.139 -110.948,21.354 -61.74,-2.785 -115.124,-17.639 -177.793,-55.241 -62.668,-37.601 -92.172,-79.293 -118.374,-156.44 -8.356,-24.603 -8.144,-46.741 -8.356,-65.454 -0.51,-44.789 11.907,-73.052 14.855,-81.238 4.177,-11.604 5.107,-13.927 11.605,-16.712 6.498,-2.785 4.644,-5.571 1.393,-10.212 -3.25,-4.642 -9.749,-12.068 -10.213,-27.387 -0.464,-15.32 0,-35.746 4.177,-47.815 4.178,-12.069 20.425,-45.03 38.995,-61.742 18.569,-16.711 22.235,-20.576 37.311,-21.237 2.606,-0.114 7.485,-0.87 10.503,0.117 5.861,1.915 10.351,3.011 15.319,-1.624 6.963,-6.501 23.211,-17.294 57.562,-16.712 27.39,0.463 36.21,7.891 46.887,12.534 10.675,4.64 13.925,7.426 17.174,7.426 3.249,0 13.927,4.643 19.497,12.533 5.571,7.894 6.963,17.756 7.66,21.935 0,0 13.579,-1.045 6.267,20.889 0,0 10.793,-10.096 27.156,-17.756 16.364,-7.66 32.379,-7.66 44.216,5.222 0,0 4.179,2.438 9.053,-3.134 4.874,-5.57 1.393,-11.489 1.044,-12.881 -0.348,-1.393 -2.388,-6.95 4.875,-11.49 7.427,-4.639 10.793,-5.918 18.801,-8.355 8.007,-2.438 36.904,-8.704 50.134,-8.704 13.23,0 42.127,6.266 50.135,8.704 z m -86.343,300.347 c -3.946,2.088 -15.086,7.659 -15.086,7.659 11.255,0.116 24.138,11.374 24.138,11.374 0,0 -1.856,-6.731 -1.856,-11.838 0,-5.107 2.321,-14.39 6.034,-16.712 0,0 -9.285,7.428 -13.23,9.517 z m -100.27,30.173 c 11.837,-0.464 15.086,14.391 15.086,14.391 5.802,-10.909 29.015,-22.979 29.015,-22.979 -12.767,4.178 -44.101,8.588 -44.101,8.588 z"
       style="fill:none;stroke:#231f20;stroke-width:0.75;stroke-linecap:round;stroke-linejoin:round;stroke-miterlimit:4;stroke-dasharray:none;stroke-opacity:1"
       id="path167160" />
    <path
       d="m 544.172,718.053 c 0,0 -0.076,-1.448 0.934,-1.688 1.219,-0.29 2.263,-1.277 2.38,-2.843 0.09,-1.216 0,-2.96 1.566,-2.96 1.568,0 1.928,7.484 -1.039,7.833"
       style="fill:#b2b1b1;fill-opacity:1;fill-rule:nonzero;stroke:none;stroke-width:0.1"
       id="path167162" />
    <path
       d="m 535.827,718.053 c 0,0 0.077,-1.448 -0.933,-1.688 -1.219,-0.29 -2.263,-1.277 -2.379,-2.843 -0.091,-1.216 0,-2.96 -1.567,-2.96 -1.567,0 -1.927,7.484 1.039,7.833"
       style="fill:#b2b1b1;fill-opacity:1;fill-rule:nonzero;stroke:none;stroke-width:0.1"
       id="path167164" />
    <path
       d="m 843.525,704.045 c 0,0 10.168,-35.61 11.56,-42.921 1.393,-7.312 5.222,-28.202 6.963,-38.995 1.742,-10.793 3.83,-22.63 7.66,-31.682 3.83,-9.053 9.749,-22.631 11.141,-39.691 0,0 2.437,15.667 0.696,24.023 -1.741,8.356 2.437,16.015 -2.437,26.461 -4.874,10.444 -8.008,21.237 -14.274,45.26 -6.267,24.024 -13.998,46.405 -21.309,57.545"
       style="fill:#706d6e;fill-opacity:1;fill-rule:nonzero;stroke:none;stroke-width:0.1"
       id="path167166" />
    <path
       d="m 843.525,704.045 c 0,0 10.168,-35.61 11.56,-42.921 1.393,-7.312 5.222,-28.202 6.963,-38.995 1.742,-10.793 3.83,-22.63 7.66,-31.682 3.83,-9.053 9.749,-22.631 11.141,-39.691 0,0 2.437,15.667 0.696,24.023 -1.741,8.356 2.437,16.015 -2.437,26.461 -4.874,10.444 -8.008,21.237 -14.274,45.26 -6.267,24.024 -13.998,46.405 -21.309,57.545 z"
       style="fill:none;stroke:#231f20;stroke-width:0.75;stroke-linecap:round;stroke-linejoin:round;stroke-miterlimit:4;stroke-dasharray:none;stroke-opacity:1"
       id="path167168" />
    <path
       d="m 880.849,550.756 c 1.044,-16.363 3.482,-35.512 -6.267,-65.106 -9.748,-29.594 -18.104,-46.653 -29.942,-53.965 -11.837,-7.311 -34.468,-16.363 -42.823,-20.193 -8.357,-3.829 -54.196,-19.38 -56.866,-23.093"
       style="fill:none;stroke:#231f20;stroke-width:0.5;stroke-linecap:butt;stroke-linejoin:miter;stroke-miterlimit:4;stroke-dasharray:none;stroke-opacity:1"
       id="path167170" />
    <path
       d="m 540,833.811 v -73.81"
       style="fill:none;stroke:#231f20;stroke-width:0.75;stroke-linecap:round;stroke-linejoin:round;stroke-miterlimit:4;stroke-dasharray:none;stroke-opacity:1"
       id="path167172" />
    <path
       d="m 561.48,765.79 c 16.818,7.093 22.04,8.486 33.182,25.545 11.14,17.06 14.97,27.157 28.201,27.157 13.229,0 43.884,-0.873 61.284,0.782"
       style="fill:none;stroke:#231f20;stroke-width:0.5;stroke-linecap:butt;stroke-linejoin:miter;stroke-miterlimit:4;stroke-dasharray:none;stroke-opacity:1"
       id="path167174" />
    <path
       d="m 575.864,722.362 c 12.879,2.823 22.085,4.982 34.465,13.964 11.837,8.588 10.793,8.356 14.623,24.719 3.829,16.364 12.473,39.864 25.385,44.999"
       style="fill:none;stroke:#231f20;stroke-width:0.5;stroke-linecap:butt;stroke-linejoin:miter;stroke-miterlimit:4;stroke-dasharray:none;stroke-opacity:1"
       id="path167176" />
    <path
       d="m 591.295,675.282 c 0,0 9.982,2.785 14.16,4.642 4.177,1.858 23.21,7.66 26.923,9.284"
       style="fill:none;stroke:#231f20;stroke-width:0.75;stroke-linecap:round;stroke-linejoin:round;stroke-miterlimit:4;stroke-dasharray:none;stroke-opacity:1"
       id="path167178" />
    <path
       d="m 676.479,697.796 c 6.731,0.233 20.193,1.162 22.979,0.929 2.785,-0.232 13.694,-1.857 20.889,-2.785 7.195,-0.929 14.391,-1.858 17.408,-2.09 3.018,-0.231 8.82,-1.392 13.926,-6.498 5.108,-5.107 12.767,-12.767 19.73,-25.997 6.963,-13.23 12.766,-22.513 15.319,-35.279 2.553,-12.767 3.251,-20.426 4.178,-26.229 0.927,-5.802 0.696,-13.926 -1.625,-21.817 -2.322,-7.893 -2.785,-16.945 -4.874,-23.907 -2.089,-6.964 -11.605,-30.869 -24.139,-36.208 0,0 -2.089,-7.428 -3.714,-10.445 -1.626,-3.019 -6.73,-9.517 -9.053,-12.303 0,0 -4.41,-9.748 -9.748,-16.48 -5.337,-6.729 -13.228,-18.336 -19.264,-26.923 C 712.456,443.174 700.386,426 695.28,415.67"
       style="fill:none;stroke:#231f20;stroke-width:0.75;stroke-linecap:round;stroke-linejoin:round;stroke-miterlimit:4;stroke-dasharray:none;stroke-opacity:1"
       id="path167180" />
    <path
       d="m 576.8,411.484 c 0,0 -1.056,3.142 3.355,2.214 4.41,-0.927 16.247,-2.089 19.729,-1.393 3.482,0.696 11.14,2.785 12.301,-0.465 1.161,-3.248 -5.803,-6.036 -11.838,-7.194 -6.034,-1.161 -13.011,-1.959 -18.226,0.762"
       style="fill:none;stroke:#231f20;stroke-width:0.5;stroke-linecap:butt;stroke-linejoin:miter;stroke-miterlimit:4;stroke-dasharray:none;stroke-opacity:1"
       id="path167182" />
    <path
       d="m 623.907,403.136 c -1.306,2.612 0.346,9.632 3.597,9.865 3.25,0.232 5.108,-1.625 6.732,-3.481 1.624,-1.857 4.64,-5.339 11.372,-3.481 6.732,1.857 16.479,3.25 30.639,14.157 14.159,10.91 30.869,27.853 41.083,47.119 10.212,19.266 10.502,28.693 7.891,30.869 -2.177,1.815 -6.035,5.339 -6.499,9.052 0,0 6.965,9.517 12.999,13.463 6.034,3.945 22.513,12.302 21.817,6.499 -0.325,-2.71 -0.209,-10.439 -1.393,-16.711 -1.351,-7.156 -4.657,-13.653 -4.642,-15.32"
       style="fill:none;stroke:#231f20;stroke-width:0.5;stroke-linecap:butt;stroke-linejoin:miter;stroke-miterlimit:4;stroke-dasharray:none;stroke-opacity:1"
       id="path167184" />
    <path
       d="m 604.863,679.672 c 1.984,-1.373 4.305,-1.837 17.303,0.716 12.998,2.553 18.337,5.339 21.819,6.732 3.481,1.392 5.57,2.785 12.301,3.481 6.73,0.696 19.033,0.929 25.299,1.625 6.268,0.696 16.944,2.554 23.907,0.696 6.964,-1.857 12.302,-3.714 19.962,-4.642 0,0 5.569,0.232 10.676,-0.464 5.107,-0.696 13.694,-3.715 21.586,-13.927 7.892,-10.212 16.246,-26.227 20.194,-36.44 3.946,-10.213 7.194,-21.819 4.177,-23.444 0,0 0.465,-5.569 3.25,-7.426 2.089,-1.393 -0.232,-19.497 -0.696,-24.604 -0.464,-5.107 -6.963,-26.227 -11.374,-34.352 -4.41,-8.123 -9.98,-13.694 -10.677,-16.016 -0.696,-2.319 -1.159,-7.891 -2.32,-13.692"
       style="fill:none;stroke:#231f20;stroke-width:0.5;stroke-linecap:butt;stroke-linejoin:miter;stroke-miterlimit:4;stroke-dasharray:none;stroke-opacity:1"
       id="path167186" />
    <path
       d="m 661.392,712.187 c 6.035,11.373 13.694,24.14 18.568,29.478 4.874,5.337 16.248,13.461 31.335,12.998 15.086,-0.464 33.888,-7.661 46.19,-15.32 12.301,-7.659 29.708,-24.603 38.528,-41.779"
       style="fill:none;stroke:#231f20;stroke-width:0.5;stroke-linecap:butt;stroke-linejoin:miter;stroke-miterlimit:4;stroke-dasharray:none;stroke-opacity:1"
       id="path167188" />
    <path
       d="m 675.783,519.539 c -4.643,-0.686 -23.907,-3.017 -32.264,-9.284 -8.355,-6.266 -11.605,-12.536 -16.015,-20.658 -4.409,-8.125 -7.66,-14.391 -5.338,-17.177 2.322,-2.785 9.285,-3.944 19.73,2.323 10.444,6.267 22.515,15.086 27.853,22.049 5.337,6.962 13.229,21.123 20.193,27.388 0,0 -8.835,-3.855 -14.159,-4.641 z"
       style="fill:none;stroke:#231f20;stroke-width:0.5;stroke-linecap:butt;stroke-linejoin:miter;stroke-miterlimit:4;stroke-dasharray:none;stroke-opacity:1"
       id="path167190" />
    <path
       d="m 740.541,593.812 c -1.895,-2.525 -7.893,1.162 -13.231,5.107 -5.338,3.946 -7.195,7.428 -6.266,9.052 0.928,1.624 7.659,-1.161 9.051,0.928 1.394,2.089 -1.393,8.357 0.464,9.517 1.859,1.161 6.268,-1.392 8.357,-9.285 2.088,-7.891 3.017,-13.463 1.625,-15.319 z"
       style="fill:none;stroke:#231f20;stroke-width:0.5;stroke-linecap:butt;stroke-linejoin:miter;stroke-miterlimit:4;stroke-dasharray:none;stroke-opacity:1"
       id="path167192" />
    <path
       d="m 583.367,598.611 c 0,0 0.707,-9.489 0.461,-14.595"
       style="fill:none;stroke:#231f20;stroke-width:0.5;stroke-linecap:butt;stroke-linejoin:miter;stroke-miterlimit:4;stroke-dasharray:none;stroke-opacity:1"
       id="path167194" />
    <path
       d="m 583.474,562.718 c -1.16,-8.121 -7.041,-14.641 -6.808,-27.64"
       style="fill:none;stroke:#231f20;stroke-width:0.5;stroke-linecap:butt;stroke-linejoin:miter;stroke-miterlimit:4;stroke-dasharray:none;stroke-opacity:1"
       id="path167196" />
    <path
       d="m 572.727,507.702 c 0.809,0.219 3.017,5.105 4.642,11.837 1.335,5.527 2.045,12.465 -0.703,15.539"
       style="fill:none;stroke:#231f20;stroke-width:0.5;stroke-linecap:butt;stroke-linejoin:miter;stroke-miterlimit:4;stroke-dasharray:none;stroke-opacity:1"
       id="path167198" />
    <path
       d="m 566.603,499.269 c 0.479,1.63 1.083,3.189 1.482,3.789 0.928,1.393 2.033,4.208 4.642,4.644 2.785,0.464 9.054,-2.321 9.285,-9.981 0.232,-7.659 1.158,-22.051 -2.554,-28.086 -3.712,-6.033 -9.978,-11.838 -12.765,-3.713 -2.786,8.124 -3.661,21.2 -0.09,33.347 z"
       style="fill:none;stroke:#231f20;stroke-width:0.5;stroke-linecap:butt;stroke-linejoin:miter;stroke-miterlimit:4;stroke-dasharray:none;stroke-opacity:1"
       id="path167200" />
    <path
       d="m 565.276,493.693 c -2.297,-3.168 -3.458,-9.433 -3.458,-18.254 0,-8.82 -0.928,-22.979 1.857,-22.979 2.785,0 3.187,4.535 3.87,11.564"
       style="fill:none;stroke:#231f20;stroke-width:0.5;stroke-linecap:butt;stroke-linejoin:miter;stroke-miterlimit:4;stroke-dasharray:none;stroke-opacity:1"
       id="path167202" />
    <path
       d="m 540,717.874 c -8.356,0 -27.156,3.133 -33.075,4.177 -5.919,1.045 -8.282,-0.555 -14.97,-2.785 -9.401,-3.133 -24.371,3.134 -33.424,9.053 -9.052,5.918 -12.533,33.075 -16.363,50.135 -3.831,17.059 -16.712,24.718 -26.809,26.808 -10.097,2.089 -55.009,-8.704 -91.567,-22.631 -36.556,-13.926 -54.893,-35.629 -71.835,-60 -16.944,-24.371 -19.498,-49.67 -23.445,-66.614 -3.946,-16.943 -4.874,-34.119 -8.819,-49.903 -3.945,-15.783 -13.463,-31.799 -16.712,-51.759 -3.249,-19.961 -3.249,-32.264 2.786,-58.26 6.034,-25.995 10.444,-35.974 19.496,-50.135 9.053,-14.158 20.194,-17.174 28.086,-20.656 7.892,-3.481 23.675,-10.91 30.638,-14.16 6.964,-3.248 36.44,-12.534 42.243,-15.085 5.803,-2.555 10.445,-5.571 8.819,-7.66 -1.625,-2.089 -9.283,3.017 -14.622,5.337 -5.34,2.323 -30.869,10.214 -35.28,11.838 -4.41,1.626 -21.168,8.844 -35.049,15.784 -16.297,8.146 -22.7,9.503 -35.279,31.565 -14.159,24.836 -17.756,53.269 -18.452,58.143 -0.421,2.934 -4.527,28.897 -3.83,50.135 0.502,15.327 -5.484,38.474 -2.438,57.446 7.66,47.699 18.453,76.597 31.335,99.923 12.882,23.327 41.779,45.957 79.032,68.239 37.253,22.282 60.232,29.246 90.87,32.031 30.638,2.785 60.232,8.704 74.506,11.49 14.275,2.785 17.408,-5.919 19.497,-12.186 2.089,-6.268 8.008,-26.112 16.712,-38.994 8.703,-12.882 28.549,-19.149 37.949,-19.149 9.401,0 29.246,6.267 37.95,19.149 8.704,12.882 14.623,32.726 16.712,38.994 2.088,6.267 5.222,14.971 19.497,12.186 14.274,-2.786 43.868,-8.705 74.506,-11.49 30.637,-2.785 53.617,-9.749 90.87,-32.031 37.253,-22.282 66.15,-44.912 79.032,-68.239 12.882,-23.326 23.675,-52.224 31.334,-99.923 3.047,-18.972 -2.939,-42.119 -2.437,-57.446 0.697,-21.238 -3.41,-47.201 -3.83,-50.135 -0.696,-4.874 -4.294,-33.307 -18.452,-58.143 -12.579,-22.062 -18.983,-23.419 -35.28,-31.565 -13.88,-6.94 -30.638,-14.158 -35.049,-15.784 -4.41,-1.624 -29.94,-9.515 -35.279,-11.838 -5.34,-2.32 -12.998,-7.426 -14.623,-5.337 -1.625,2.089 3.016,5.105 8.82,7.66 5.803,2.551 35.279,11.837 42.242,15.085 6.964,3.25 22.746,10.679 30.639,14.16 7.892,3.482 19.033,6.498 28.085,20.656 9.053,14.161 13.463,24.14 19.497,50.135 6.034,25.996 6.034,38.299 2.785,58.26 -3.249,19.96 -12.767,35.976 -16.712,51.759 -3.945,15.784 -4.872,32.96 -8.819,49.903 -3.946,16.944 -6.501,42.243 -23.444,66.614 -16.943,24.371 -35.28,46.074 -71.836,60 -36.557,13.927 -81.47,24.72 -91.567,22.631 -10.096,-2.09 -22.978,-9.749 -26.807,-26.808 -3.831,-17.06 -7.312,-44.217 -16.364,-50.135 -9.052,-5.919 -24.023,-12.186 -33.424,-9.053 -6.688,2.23 -9.051,3.83 -14.97,2.785 -5.919,-1.044 -24.72,-4.177 -33.076,-4.177 z"
       style="fill:none;stroke:#231f20;stroke-width:0.5;stroke-linecap:butt;stroke-linejoin:miter;stroke-miterlimit:4;stroke-dasharray:none;stroke-opacity:1"
       id="path167204" />
    <path
       d="m 236.475,704.045 c 8.221,23.082 21.472,36.068 35.79,50.385 16.363,16.364 39.691,27.854 55.358,34.12 15.667,6.267 44.216,13.926 55.357,16.364 11.142,2.437 28.897,8.355 48.742,0.348 19.846,-8.008 24.024,-26.808 46.306,-46.305 16.128,-14.113 52.572,-21.935 61.972,-21.935 9.401,0 45.844,7.822 61.973,21.935 22.282,19.497 26.46,38.297 46.305,46.305 19.846,8.007 37.601,2.089 48.742,-0.348 11.142,-2.438 39.69,-10.097 55.357,-16.364 15.668,-6.266 38.995,-17.756 55.359,-34.12 14.317,-14.317 27.569,-27.303 35.789,-50.385"
       style="fill:none;stroke:#231f20;stroke-width:0.5;stroke-linecap:butt;stroke-linejoin:miter;stroke-miterlimit:4;stroke-dasharray:none;stroke-opacity:1"
       id="path167206" />
    <path
       d="m 236.475,704.045 c 0,0 -10.167,-35.61 -11.559,-42.921 -1.393,-7.312 -5.223,-28.202 -6.963,-38.995 -1.742,-10.793 -3.83,-22.63 -7.661,-31.682 -3.829,-9.053 -9.748,-22.631 -11.14,-39.691 0,0 -2.438,15.667 -0.696,24.023 1.74,8.356 -2.438,16.015 2.436,26.461 4.875,10.444 8.008,21.237 14.276,45.26 6.266,24.024 13.997,46.405 21.307,57.545"
       style="fill:#706d6e;fill-opacity:1;fill-rule:nonzero;stroke:none;stroke-width:0.1"
       id="path167208" />
    <path
       d="m 236.475,704.045 c 0,0 -10.167,-35.61 -11.559,-42.921 -1.393,-7.312 -5.223,-28.202 -6.963,-38.995 -1.742,-10.793 -3.83,-22.63 -7.661,-31.682 -3.829,-9.053 -9.748,-22.631 -11.14,-39.691 0,0 -2.438,15.667 -0.696,24.023 1.74,8.356 -2.438,16.015 2.436,26.461 4.875,10.444 8.008,21.237 14.276,45.26 6.266,24.024 13.997,46.405 21.307,57.545 z"
       style="fill:none;stroke:#231f20;stroke-width:0.75;stroke-linecap:round;stroke-linejoin:round;stroke-miterlimit:4;stroke-dasharray:none;stroke-opacity:1"
       id="path167210" />
    <path
       d="m 199.152,550.756 c -1.045,-16.363 -3.482,-35.512 6.266,-65.106 9.75,-29.594 18.105,-46.653 29.942,-53.965 11.838,-7.311 34.468,-16.363 42.824,-20.193 8.356,-3.829 54.196,-19.38 56.865,-23.093"
       style="fill:none;stroke:#231f20;stroke-width:0.5;stroke-linecap:butt;stroke-linejoin:miter;stroke-miterlimit:4;stroke-dasharray:none;stroke-opacity:1"
       id="path167212" />
    <path
       d="m 518.52,765.79 c -16.817,7.093 -22.04,8.486 -33.181,25.545 -11.141,17.06 -14.97,27.157 -28.201,27.157 -13.23,0 -43.885,-0.873 -61.284,0.782"
       style="fill:none;stroke:#231f20;stroke-width:0.5;stroke-linecap:butt;stroke-linejoin:miter;stroke-miterlimit:4;stroke-dasharray:none;stroke-opacity:1"
       id="path167214" />
    <path
       d="m 504.137,722.362 c -12.879,2.823 -22.085,4.982 -34.465,13.964 -11.838,8.588 -10.793,8.356 -14.623,24.719 -3.83,16.364 -12.473,39.864 -25.385,44.999"
       style="fill:none;stroke:#231f20;stroke-width:0.5;stroke-linecap:butt;stroke-linejoin:miter;stroke-miterlimit:4;stroke-dasharray:none;stroke-opacity:1"
       id="path167216" />
    <path
       d="m 567.157,686.656 c -4.41,3.017 -11.141,8.355 -13.696,11.604 -2.552,3.249 -11.024,11.258 -13.461,13.695 -2.437,-2.437 -10.909,-10.446 -13.461,-13.695 -2.554,-3.249 -9.285,-8.587 -13.695,-11.604 0,0 -1.856,-6.731 -1.856,-11.838 0,-5.107 2.321,-14.39 6.034,-16.712 3.713,-2.321 12.272,-8.298 14.391,-13.462 1.645,-4.013 3.017,-9.053 8.587,-9.053 5.571,0 6.942,5.04 8.587,9.053 2.12,5.164 10.679,11.141 14.392,13.462 3.713,2.322 6.034,11.605 6.034,16.712 0,5.107 -1.856,11.838 -1.856,11.838"
       style="fill:#706d6e;fill-opacity:1;fill-rule:nonzero;stroke:none;stroke-width:0.1"
       id="path167218" />
    <path
       d="m 567.157,686.656 c -4.41,3.017 -11.141,8.355 -13.696,11.604 -2.552,3.249 -11.024,11.258 -13.461,13.695 -2.437,-2.437 -10.909,-10.446 -13.461,-13.695 -2.554,-3.249 -9.285,-8.587 -13.695,-11.604 0,0 -1.856,-6.731 -1.856,-11.838 0,-5.107 2.321,-14.39 6.034,-16.712 3.713,-2.321 12.272,-8.298 14.391,-13.462 1.645,-4.013 3.017,-9.053 8.587,-9.053 5.571,0 6.942,5.04 8.587,9.053 2.12,5.164 10.679,11.141 14.392,13.462 3.713,2.322 6.034,11.605 6.034,16.712 0,5.107 -1.856,11.838 -1.856,11.838 z"
       style="fill:none;stroke:#231f20;stroke-width:0.75;stroke-linecap:round;stroke-linejoin:round;stroke-miterlimit:4;stroke-dasharray:none;stroke-opacity:1"
       id="path167220" />
    <path
       d="m 488.706,675.282 c 0,0 -9.982,2.785 -14.16,4.642 -4.177,1.858 -23.21,7.66 -26.923,9.284"
       style="fill:none;stroke:#231f20;stroke-width:0.75;stroke-linecap:round;stroke-linejoin:round;stroke-miterlimit:4;stroke-dasharray:none;stroke-opacity:1"
       id="path167222" />
    <path
       d="m 403.522,697.796 c -6.731,0.233 -20.193,1.162 -22.979,0.929 -2.786,-0.232 -13.694,-1.857 -20.889,-2.785 -7.196,-0.929 -14.391,-1.858 -17.408,-2.09 -3.018,-0.231 -8.82,-1.392 -13.927,-6.498 -5.107,-5.107 -12.767,-12.767 -19.73,-25.997 -6.963,-13.23 -12.766,-22.513 -15.319,-35.279 -2.553,-12.767 -3.25,-20.426 -4.178,-26.229 -0.927,-5.802 -0.696,-13.926 1.625,-21.817 2.323,-7.893 2.786,-16.945 4.875,-23.907 2.089,-6.964 11.605,-30.869 24.139,-36.208 0,0 2.089,-7.428 3.714,-10.445 1.625,-3.019 6.73,-9.517 9.052,-12.303 0,0 4.411,-9.748 9.749,-16.48 5.338,-6.729 13.228,-18.336 19.264,-26.923 6.035,-8.59 18.104,-25.764 23.211,-36.094"
       style="fill:none;stroke:#231f20;stroke-width:0.75;stroke-linecap:round;stroke-linejoin:round;stroke-miterlimit:4;stroke-dasharray:none;stroke-opacity:1"
       id="path167224" />
    <path
       d="m 503.2,411.484 c 0,0 1.056,3.142 -3.354,2.214 -4.41,-0.927 -16.248,-2.089 -19.729,-1.393 -3.482,0.696 -11.14,2.785 -12.301,-0.465 -1.162,-3.248 5.803,-6.036 11.837,-7.194 6.034,-1.161 13.012,-1.959 18.226,0.762"
       style="fill:none;stroke:#231f20;stroke-width:0.5;stroke-linecap:butt;stroke-linejoin:miter;stroke-miterlimit:4;stroke-dasharray:none;stroke-opacity:1"
       id="path167226" />
    <path
       d="m 456.093,403.136 c 1.306,2.612 -0.346,9.632 -3.596,9.865 -3.25,0.232 -5.109,-1.625 -6.733,-3.481 -1.623,-1.857 -4.639,-5.339 -11.372,-3.481 -6.731,1.857 -16.478,3.25 -30.638,14.157 -14.159,10.91 -30.869,27.853 -41.083,47.119 -10.213,19.266 -10.503,28.693 -7.892,30.869 2.178,1.815 6.036,5.339 6.5,9.052 0,0 -6.965,9.517 -12.999,13.463 -6.034,3.945 -22.514,12.302 -21.818,6.499 0.326,-2.71 0.21,-10.439 1.393,-16.711 1.351,-7.156 4.658,-13.653 4.642,-15.32"
       style="fill:none;stroke:#231f20;stroke-width:0.5;stroke-linecap:butt;stroke-linejoin:miter;stroke-miterlimit:4;stroke-dasharray:none;stroke-opacity:1"
       id="path167228" />
    <path
       d="m 475.138,679.672 c -1.984,-1.373 -4.305,-1.837 -17.304,0.716 -12.997,2.553 -18.336,5.339 -21.818,6.732 -3.481,1.392 -5.57,2.785 -12.301,3.481 -6.731,0.696 -19.033,0.929 -25.3,1.625 -6.267,0.696 -16.943,2.554 -23.907,0.696 -6.963,-1.857 -12.301,-3.714 -19.962,-4.642 0,0 -5.569,0.232 -10.675,-0.464 -5.107,-0.696 -13.694,-3.715 -21.586,-13.927 -7.892,-10.212 -16.246,-26.227 -20.194,-36.44 -3.946,-10.213 -7.194,-21.819 -4.177,-23.444 0,0 -0.465,-5.569 -3.251,-7.426 -2.089,-1.393 0.233,-19.497 0.697,-24.604 0.463,-5.107 6.963,-26.227 11.373,-34.352 4.411,-8.123 9.981,-13.694 10.678,-16.016 0.696,-2.319 1.158,-7.891 2.32,-13.692"
       style="fill:none;stroke:#231f20;stroke-width:0.5;stroke-linecap:butt;stroke-linejoin:miter;stroke-miterlimit:4;stroke-dasharray:none;stroke-opacity:1"
       id="path167230" />
    <path
       d="m 418.608,712.187 c -6.034,11.373 -13.693,24.14 -18.568,29.478 -4.874,5.337 -16.248,13.461 -31.334,12.998 -15.087,-0.464 -33.889,-7.661 -46.19,-15.32 -12.302,-7.659 -29.708,-24.603 -38.529,-41.779"
       style="fill:none;stroke:#231f20;stroke-width:0.5;stroke-linecap:butt;stroke-linejoin:miter;stroke-miterlimit:4;stroke-dasharray:none;stroke-opacity:1"
       id="path167232" />
    <path
       d="m 404.218,519.539 c 4.643,-0.686 23.908,-3.017 32.263,-9.284 8.356,-6.266 11.606,-12.536 16.016,-20.658 4.409,-8.125 7.659,-14.391 5.337,-17.177 -2.321,-2.785 -9.284,-3.944 -19.729,2.323 -10.444,6.267 -22.515,15.086 -27.853,22.049 -5.337,6.962 -13.23,21.123 -20.193,27.388 0,0 8.834,-3.855 14.159,-4.641 z"
       style="fill:none;stroke:#231f20;stroke-width:0.5;stroke-linecap:butt;stroke-linejoin:miter;stroke-miterlimit:4;stroke-dasharray:none;stroke-opacity:1"
       id="path167234" />
    <path
       d="m 339.46,593.812 c 1.895,-2.525 7.892,1.162 13.23,5.107 5.338,3.946 7.196,7.428 6.268,9.052 -0.93,1.624 -7.661,-1.161 -9.053,0.928 -1.393,2.089 1.394,8.357 -0.464,9.517 -1.857,1.161 -6.267,-1.392 -8.356,-9.285 -2.088,-7.891 -3.017,-13.463 -1.625,-15.319 z"
       style="fill:none;stroke:#231f20;stroke-width:0.5;stroke-linecap:butt;stroke-linejoin:miter;stroke-miterlimit:4;stroke-dasharray:none;stroke-opacity:1"
       id="path167236" />
    <path
       d="m 532.34,615.398 c -29.012,0 -35.511,-16.248 -35.511,-16.248 0.463,16.48 3.713,18.801 10.212,24.837 6.498,6.035 26.228,7.659 32.959,7.659 6.732,0 26.461,-1.624 32.96,-7.659 6.498,-6.036 9.748,-8.357 10.212,-24.837 0,0 -6.5,16.248 -35.512,16.248"
       style="fill:none;stroke:#231f20;stroke-width:0.5;stroke-linecap:butt;stroke-linejoin:miter;stroke-miterlimit:4;stroke-dasharray:none;stroke-opacity:1"
       id="path167238" />
    <path
       d="m 496.634,598.611 c 0,0 -0.707,-9.489 -0.461,-14.595"
       style="fill:none;stroke:#231f20;stroke-width:0.5;stroke-linecap:butt;stroke-linejoin:miter;stroke-miterlimit:4;stroke-dasharray:none;stroke-opacity:1"
       id="path167240" />
    <path
       d="m 496.527,562.718 c 1.16,-8.121 7.04,-14.641 6.807,-27.64"
       style="fill:none;stroke:#231f20;stroke-width:0.5;stroke-linecap:butt;stroke-linejoin:miter;stroke-miterlimit:4;stroke-dasharray:none;stroke-opacity:1"
       id="path167242" />
    <path
       d="m 507.273,507.702 c -0.808,0.219 -3.017,5.105 -4.642,11.837 -1.334,5.527 -2.044,12.465 0.703,15.539"
       style="fill:none;stroke:#231f20;stroke-width:0.5;stroke-linecap:butt;stroke-linejoin:miter;stroke-miterlimit:4;stroke-dasharray:none;stroke-opacity:1"
       id="path167244" />
    <path
       d="m 513.397,499.269 c -0.479,1.63 -1.082,3.189 -1.482,3.789 -0.927,1.393 -2.032,4.208 -4.642,4.644 -2.785,0.464 -9.053,-2.321 -9.284,-9.981 -0.232,-7.659 -1.159,-22.051 2.553,-28.086 3.713,-6.033 9.979,-11.838 12.765,-3.713 2.786,8.124 3.661,21.2 0.09,33.347 z"
       style="fill:none;stroke:#231f20;stroke-width:0.5;stroke-linecap:butt;stroke-linejoin:miter;stroke-miterlimit:4;stroke-dasharray:none;stroke-opacity:1"
       id="path167246" />
    <path
       d="m 514.725,493.693 c 2.297,-3.168 3.457,-9.433 3.457,-18.254 0,-8.82 0.929,-22.979 -1.856,-22.979 -2.785,0 -3.187,4.535 -3.871,11.564"
       style="fill:none;stroke:#231f20;stroke-width:0.5;stroke-linecap:butt;stroke-linejoin:miter;stroke-miterlimit:4;stroke-dasharray:none;stroke-opacity:1"
       id="path167248" />
    <path
       d="m 540,610.756 c -2.088,0 -4.2,-0.249 -3.713,-5.802 1.16,-13.231 1.856,-63.133 3.713,-63.133 1.858,0 2.554,49.902 3.713,63.133 0.487,5.553 -1.624,5.802 -3.713,5.802"
       style="fill:#706d6e;fill-opacity:1;fill-rule:nonzero;stroke:none;stroke-width:0.1"
       id="path167250" />
    <path
       d="m 540,610.756 c -2.088,0 -4.2,-0.249 -3.713,-5.802 1.16,-13.231 1.856,-63.133 3.713,-63.133 1.858,0 2.554,49.902 3.713,63.133 0.487,5.553 -1.624,5.802 -3.713,5.802 z"
       style="fill:none;stroke:#231f20;stroke-width:0.75;stroke-linecap:round;stroke-linejoin:round;stroke-miterlimit:4;stroke-dasharray:none;stroke-opacity:1"
       id="path167252" />
    <path
       d="m 532.34,615.398 c 2.082,0.03 5.572,0 7.66,0 2.089,0 5.579,0.03 7.66,0"
       style="fill:none;stroke:#231f20;stroke-width:0.75;stroke-linecap:round;stroke-linejoin:round;stroke-miterlimit:4;stroke-dasharray:none;stroke-opacity:1"
       id="path167254" />
    <path
       d="m 540,717.874 v -5.919"
       style="fill:none;stroke:#231f20;stroke-width:0.75;stroke-linecap:round;stroke-linejoin:round;stroke-miterlimit:4;stroke-dasharray:none;stroke-opacity:1"
       id="path167256" />
    <path
       d="m 560.89,403.718 c 0,-1.539 -1.35,-2.785 -3.016,-2.785 -1.667,0 -3.018,1.246 -3.018,2.785 0,1.537 1.351,2.785 3.018,2.785 1.666,0 3.016,-1.248 3.016,-2.785 z"
       style="fill:none;stroke:#231f20;stroke-width:0.5;stroke-linecap:butt;stroke-linejoin:miter;stroke-miterlimit:4;stroke-dasharray:none;stroke-opacity:1"
       id="path167258" />
    <path
       d="m 565.533,395.363 c 0,-1.796 -1.144,-3.251 -2.554,-3.251 -1.41,0 -2.555,1.455 -2.555,3.251 0,1.795 1.145,3.25 2.555,3.25 1.41,0 2.554,-1.455 2.554,-3.25 z"
       style="fill:none;stroke:#231f20;stroke-width:0.5;stroke-linecap:butt;stroke-linejoin:miter;stroke-miterlimit:4;stroke-dasharray:none;stroke-opacity:1"
       id="path167260" />
    <path
       d="m 519.111,403.718 c 0,-1.539 1.35,-2.785 3.016,-2.785 1.667,0 3.018,1.246 3.018,2.785 0,1.537 -1.351,2.785 -3.018,2.785 -1.666,0 -3.016,-1.248 -3.016,-2.785 z"
       style="fill:none;stroke:#231f20;stroke-width:0.5;stroke-linecap:butt;stroke-linejoin:miter;stroke-miterlimit:4;stroke-dasharray:none;stroke-opacity:1"
       id="path167262" />
    <path
       d="m 514.468,395.363 c 0,-1.796 1.144,-3.251 2.554,-3.251 1.41,0 2.553,1.455 2.553,3.251 0,1.795 -1.143,3.25 -2.553,3.25 -1.41,0 -2.554,-1.455 -2.554,-3.25 z"
       style="fill:none;stroke:#231f20;stroke-width:0.5;stroke-linecap:butt;stroke-linejoin:miter;stroke-miterlimit:4;stroke-dasharray:none;stroke-opacity:1"
       id="path167264" />
    <path
       d="m 497.873,405.401 c 1.4,2.307 3.24,4.337 5.37,6.122"
       style="fill:none;stroke:#231f20;stroke-width:0.5;stroke-linecap:butt;stroke-linejoin:miter;stroke-miterlimit:4;stroke-dasharray:none;stroke-opacity:1"
       id="path167266" />
    <path
       d="m 576.658,411.608 c 2.173,-1.805 4.049,-3.864 5.471,-6.207"
       style="fill:none;stroke:#231f20;stroke-width:0.5;stroke-linecap:butt;stroke-linejoin:miter;stroke-miterlimit:4;stroke-dasharray:none;stroke-opacity:1"
       id="path167268" />
    <path
       d="m 746.341,711.33 c 2.477,-1.842 4.785,-3.637 6.734,-5.177 9.98,-7.892 24.835,-24.605 32.03,-34.817 7.195,-10.212 19.265,-30.406 23.907,-41.547 4.644,-11.142 9.053,-25.068 8.357,-36.906 -0.697,-11.837 -2.323,-30.173 -5.108,-42.475 -2.785,-12.301 -8.123,-21.817 -20.193,-35.975 -12.069,-14.16 -20.26,-24.289 -34.352,-38.298 -13.07,-12.993 -33.655,-35.977 -40.618,-46.887 -6.963,-10.907 -11.606,-21.121 -11.606,-21.121"
       style="fill:none;stroke:#231f20;stroke-width:0.5;stroke-linecap:round;stroke-linejoin:round;stroke-miterlimit:4;stroke-dasharray:2.8, 1.8;stroke-dashoffset:0;stroke-opacity:1"
       id="path167270" />
    <path
       d="m 727.774,454.549 c 10.213,13.231 25.533,29.243 33.889,39.457 8.355,10.213 27.387,33.192 35.743,50.6 8.356,17.408 8.125,44.1 3.947,64.525 -4.178,20.426 -12.303,38.531 -20.658,52.457 -8.357,13.926 -28.709,37.556 -34.584,42.476 -9.981,8.355 -28.549,12.301 -25.764,17.871 2.691,5.38 15.781,-3.011 25.994,-10.605 18.097,-15.942 33.194,-38.37 42.245,-53.224 9.053,-14.855 18.337,-37.833 20.658,-48.742 2.32,-10.908 0.928,-32.263 -0.928,-49.904 -1.856,-17.639 -14.159,-30.869 -29.478,-51.528 -15.319,-20.658 -22.514,-27.156 -38.994,-45.723 -16.477,-18.568 -30.173,-41.545 -35.194,-51.564 -0.829,3.364 -1.247,7.928 -1.247,7.928 0,0 14.159,22.747 24.371,35.976"
       style="fill:#b2b1b1;fill-opacity:1;fill-rule:nonzero;stroke:none;stroke-width:0.1"
       id="path167272" />
    <path
       d="m 727.774,454.549 c 10.213,13.231 25.533,29.243 33.889,39.457 8.355,10.213 27.387,33.192 35.743,50.6 8.356,17.408 8.125,44.1 3.947,64.525 -4.178,20.426 -12.303,38.531 -20.658,52.457 -8.357,13.926 -28.709,37.556 -34.584,42.476 -9.981,8.355 -28.549,12.301 -25.764,17.871 2.691,5.38 15.781,-3.011 25.994,-10.605 18.097,-15.942 33.194,-38.37 42.245,-53.224 9.053,-14.855 18.337,-37.833 20.658,-48.742 2.32,-10.908 0.928,-32.263 -0.928,-49.904 -1.856,-17.639 -14.159,-30.869 -29.478,-51.528 -15.319,-20.658 -22.514,-27.156 -38.994,-45.723 -16.477,-18.568 -30.173,-41.545 -35.194,-51.564 -0.829,3.364 -1.247,7.928 -1.247,7.928 0,0 14.159,22.747 24.371,35.976 z"
       style="fill:none;stroke:#231f20;stroke-width:0.5;stroke-linecap:round;stroke-linejoin:round;stroke-miterlimit:4;stroke-dasharray:2.8, 1.8;stroke-dashoffset:0;stroke-opacity:1"
       id="path167274" />
    <path
       d="m 333.66,711.33 c -2.477,-1.842 -4.785,-3.637 -6.734,-5.177 -9.98,-7.892 -24.835,-24.605 -32.03,-34.817 -7.196,-10.212 -19.265,-30.406 -23.908,-41.547 -4.643,-11.142 -9.052,-25.068 -8.356,-36.906 0.697,-11.837 2.322,-30.173 5.107,-42.475 2.786,-12.301 8.124,-21.817 20.193,-35.975 12.07,-14.16 20.26,-24.289 34.353,-38.298 13.069,-12.993 33.654,-35.977 40.618,-46.887 6.963,-10.907 11.605,-21.121 11.605,-21.121"
       style="fill:none;stroke:#231f20;stroke-width:0.5;stroke-linecap:round;stroke-linejoin:round;stroke-miterlimit:4;stroke-dasharray:2.8, 1.8;stroke-dashoffset:0;stroke-opacity:1"
       id="path167276" />
    <path
       d="m 352.226,454.549 c -10.212,13.231 -25.532,29.243 -33.888,39.457 -8.356,10.213 -27.387,33.192 -35.744,50.6 -8.355,17.408 -8.124,44.1 -3.946,64.525 4.178,20.426 12.303,38.531 20.658,52.457 8.356,13.926 28.708,37.556 34.583,42.476 9.982,8.355 28.55,12.301 25.765,17.871 -2.692,5.38 -15.782,-3.011 -25.994,-10.605 -18.098,-15.942 -33.195,-38.37 -42.246,-53.224 -9.052,-14.855 -18.336,-37.833 -20.657,-48.742 -2.32,-10.908 -0.929,-32.263 0.927,-49.904 1.857,-17.639 14.159,-30.869 29.479,-51.528 15.319,-20.658 22.514,-27.156 38.994,-45.723 16.478,-18.568 30.173,-41.545 35.193,-51.564 0.83,3.364 1.247,7.928 1.247,7.928 0,0 -14.158,22.747 -24.371,35.976"
       style="fill:#b2b1b1;fill-opacity:1;fill-rule:nonzero;stroke:none;stroke-width:0.1"
       id="path167278" />
    <path
       d="m 352.226,454.549 c -10.212,13.231 -25.532,29.243 -33.888,39.457 -8.356,10.213 -27.387,33.192 -35.744,50.6 -8.355,17.408 -8.124,44.1 -3.946,64.525 4.178,20.426 12.303,38.531 20.658,52.457 8.356,13.926 28.708,37.556 34.583,42.476 9.982,8.355 28.55,12.301 25.765,17.871 -2.692,5.38 -15.782,-3.011 -25.994,-10.605 -18.098,-15.942 -33.195,-38.37 -42.246,-53.224 -9.052,-14.855 -18.336,-37.833 -20.657,-48.742 -2.32,-10.908 -0.929,-32.263 0.927,-49.904 1.857,-17.639 14.159,-30.869 29.479,-51.528 15.319,-20.658 22.514,-27.156 38.994,-45.723 16.478,-18.568 30.173,-41.545 35.193,-51.564 0.83,3.364 1.247,7.928 1.247,7.928 0,0 -14.158,22.747 -24.371,35.976 z"
       style="fill:none;stroke:#231f20;stroke-width:0.5;stroke-linecap:round;stroke-linejoin:round;stroke-miterlimit:4;stroke-dasharray:2.8, 1.8;stroke-dashoffset:0;stroke-opacity:1"
       id="path167280" />
    <path
       d="m 553.418,719.027 c 0,0 1.436,-0.805 5.383,-0.805 3.947,0 10.444,-2.089 12.997,-3.714 2.555,-1.625 4.412,-6.732 8.822,-7.195 4.409,-0.464 9.98,-2.554 11.14,-3.482 1.16,-0.928 0.929,-2.321 5.572,-1.624 4.641,0.696 22.048,3.946 31.101,9.748 9.052,5.802 17.409,15.087 17.641,29.246 0.231,14.158 -0.698,31.333 3.713,38.529 4.41,7.195 12.068,15.552 22.282,15.783 10.213,0.233 36.21,-4.179 58.26,-12.302 22.048,-8.123 43.404,-19.729 59.882,-30.637 16.48,-10.909 31.101,-29.71 37.137,-41.316 6.035,-11.605 12.303,-37.601 16.248,-62.436 3.946,-24.835 1.119,-27.804 5.993,-44.516 4.874,-16.712 8.397,-33.24 11.414,-44.846 3.019,-11.605 7.659,-31.566 8.124,-50.832 0.465,-19.262 -3.016,-41.313 -15.086,-57.329 C 841.97,435.284 834.08,432.267 834.08,432.267 l -35.703,-20.019 c 0,0 -18.55,3.074 -29.52,4.701 11.605,3.481 22.515,10.444 35.281,13.925 12.767,3.482 20.89,6.964 34.583,15.32 13.695,8.355 21.586,30.869 23.908,38.76 2.322,7.893 1.161,32.031 -0.929,39.922 -2.089,7.893 -8.82,39.691 -11.373,51.761 -2.555,12.07 -7.661,29.245 -8.82,43.403 -1.16,14.159 -5.803,43.405 -7.427,50.135 -1.623,6.732 -1.858,16.945 -1.858,16.945 -7.428,32.494 -31.101,54.312 -47.813,65.454 -16.712,11.14 -44.332,24.371 -64.294,31.102 -19.962,6.731 -42.243,9.283 -50.366,8.356 -8.123,-0.929 -14.856,-10.909 -18.337,-19.497 -3.482,-8.588 -1.857,-22.979 -2.089,-32.031 -0.233,-9.052 -5.108,-21.818 -15.32,-29.246 -10.211,-7.427 -22.978,-11.605 -31.334,-12.765 -8.356,-1.161 -9.052,0.464 -11.605,1.856 -2.553,1.393 -7.659,3.018 -11.373,3.946 -3.715,0.928 -6.731,4.178 -10.213,6.732 -3.481,2.554 -10.908,4.178 -14.855,5.338 -3.947,1.16 -2.801,2.462 -2.801,2.462 l 1.596,0.2"
       style="fill:#b2b1b1;fill-opacity:1;fill-rule:nonzero;stroke:none;stroke-width:0.1"
       id="path167282" />
    <path
       d="m 553.418,719.027 c 0,0 1.436,-0.805 5.383,-0.805 3.947,0 10.444,-2.089 12.997,-3.714 2.555,-1.625 4.412,-6.732 8.822,-7.195 4.409,-0.464 9.98,-2.554 11.14,-3.482 1.16,-0.928 0.929,-2.321 5.572,-1.624 4.641,0.696 22.048,3.946 31.101,9.748 9.052,5.802 17.409,15.087 17.641,29.246 0.231,14.158 -0.698,31.333 3.713,38.529 4.41,7.195 12.068,15.552 22.282,15.783 10.213,0.233 36.21,-4.179 58.26,-12.302 22.048,-8.123 43.404,-19.729 59.882,-30.637 16.48,-10.909 31.101,-29.71 37.137,-41.316 6.035,-11.605 12.303,-37.601 16.248,-62.436 3.946,-24.835 1.119,-27.804 5.993,-44.516 4.874,-16.712 8.397,-33.24 11.414,-44.846 3.019,-11.605 7.659,-31.566 8.124,-50.832 0.465,-19.262 -3.016,-41.313 -15.086,-57.329 C 841.97,435.284 834.08,432.267 834.08,432.267 l -35.703,-20.019 c 0,0 -18.55,3.074 -29.52,4.701 11.605,3.481 22.515,10.444 35.281,13.925 12.767,3.482 20.89,6.964 34.583,15.32 13.695,8.355 21.586,30.869 23.908,38.76 2.322,7.893 1.161,32.031 -0.929,39.922 -2.089,7.893 -8.82,39.691 -11.373,51.761 -2.555,12.07 -7.661,29.245 -8.82,43.403 -1.16,14.159 -5.803,43.405 -7.427,50.135 -1.623,6.732 -1.858,16.945 -1.858,16.945 -7.428,32.494 -31.101,54.312 -47.813,65.454 -16.712,11.14 -44.332,24.371 -64.294,31.102 -19.962,6.731 -42.243,9.283 -50.366,8.356 -8.123,-0.929 -14.856,-10.909 -18.337,-19.497 -3.482,-8.588 -1.857,-22.979 -2.089,-32.031 -0.233,-9.052 -5.108,-21.818 -15.32,-29.246 -10.211,-7.427 -22.978,-11.605 -31.334,-12.765 -8.356,-1.161 -9.052,0.464 -11.605,1.856 -2.553,1.393 -7.659,3.018 -11.373,3.946 -3.715,0.928 -6.731,4.178 -10.213,6.732 -3.481,2.554 -10.908,4.178 -14.855,5.338 -3.947,1.16 -2.801,2.462 -2.801,2.462 z"
       style="fill:none;stroke:#231f20;stroke-width:0.5;stroke-linecap:round;stroke-linejoin:round;stroke-miterlimit:4;stroke-dasharray:2.8, 1.8;stroke-dashoffset:0;stroke-opacity:1"
       id="path167284" />
    <path
       d="m 768.857,416.949 c -11.605,-3.482 -31.798,-11.373 -40.154,-17.409 -8.356,-6.036 -16.015,-13.926 -16.015,-18.8 0,-4.874 3.945,-15.088 15.086,-13.696"
       style="fill:none;stroke:#231f20;stroke-width:0.5;stroke-linecap:round;stroke-linejoin:round;stroke-miterlimit:4;stroke-dasharray:2.8, 1.8;stroke-dashoffset:0;stroke-opacity:1"
       id="path167286" />
    <path
       d="m 526.582,719.027 c 0,0 -1.436,-0.805 -5.382,-0.805 -3.947,0 -10.444,-2.089 -12.998,-3.714 -2.554,-1.625 -4.411,-6.732 -8.821,-7.195 -4.409,-0.464 -9.981,-2.554 -11.141,-3.482 -1.16,-0.928 -0.929,-2.321 -5.571,-1.624 -4.641,0.696 -22.049,3.946 -31.101,9.748 -9.053,5.802 -17.409,15.087 -17.641,29.246 -0.231,14.158 0.698,31.333 -3.713,38.529 -4.41,7.195 -12.068,15.552 -22.282,15.783 -10.214,0.233 -36.21,-4.179 -58.26,-12.302 -22.049,-8.123 -43.404,-19.729 -59.883,-30.637 -16.479,-10.909 -31.101,-29.71 -37.136,-41.316 -6.036,-11.605 -12.303,-37.601 -16.248,-62.436 -3.946,-24.835 -1.119,-27.804 -5.993,-44.516 -4.875,-16.712 -8.398,-33.24 -11.415,-44.846 -3.018,-11.605 -7.659,-31.566 -8.123,-50.832 -0.465,-19.262 3.016,-41.313 15.085,-57.329 12.071,-16.015 19.961,-19.032 19.961,-19.032 l 35.704,-20.019 c 0,0 18.549,3.074 29.52,4.701 -11.605,3.481 -22.516,10.444 -35.281,13.925 -12.767,3.482 -20.89,6.964 -34.584,15.32 -13.694,8.355 -21.586,30.869 -23.907,38.76 -2.322,7.893 -1.161,32.031 0.928,39.922 2.089,7.893 8.82,39.691 11.374,51.761 2.554,12.07 7.66,29.245 8.82,43.403 1.16,14.159 5.802,43.405 7.426,50.135 1.624,6.732 1.859,16.945 1.859,16.945 7.428,32.494 31.101,54.312 47.813,65.454 16.711,11.14 44.332,24.371 64.294,31.102 19.962,6.731 42.243,9.283 50.366,8.356 8.124,-0.929 14.856,-10.909 18.337,-19.497 3.482,-8.588 1.857,-22.979 2.089,-32.031 0.233,-9.052 5.107,-21.818 15.32,-29.246 10.212,-7.427 22.978,-11.605 31.334,-12.765 8.355,-1.161 9.051,0.464 11.604,1.856 2.553,1.393 7.66,3.018 11.374,3.946 3.714,0.928 6.731,4.178 10.212,6.732 3.481,2.554 10.909,4.178 14.855,5.338 3.947,1.16 2.803,2.462 2.803,2.462 l -1.598,0.2"
       style="fill:#b2b1b1;fill-opacity:1;fill-rule:nonzero;stroke:none;stroke-width:0.1"
       id="path167288" />
    <path
       d="m 526.582,719.027 c 0,0 -1.436,-0.805 -5.382,-0.805 -3.947,0 -10.444,-2.089 -12.998,-3.714 -2.554,-1.625 -4.411,-6.732 -8.821,-7.195 -4.409,-0.464 -9.981,-2.554 -11.141,-3.482 -1.16,-0.928 -0.929,-2.321 -5.571,-1.624 -4.641,0.696 -22.049,3.946 -31.101,9.748 -9.053,5.802 -17.409,15.087 -17.641,29.246 -0.231,14.158 0.698,31.333 -3.713,38.529 -4.41,7.195 -12.068,15.552 -22.282,15.783 -10.214,0.233 -36.21,-4.179 -58.26,-12.302 -22.049,-8.123 -43.404,-19.729 -59.883,-30.637 -16.479,-10.909 -31.101,-29.71 -37.136,-41.316 -6.036,-11.605 -12.303,-37.601 -16.248,-62.436 -3.946,-24.835 -1.119,-27.804 -5.993,-44.516 -4.875,-16.712 -8.398,-33.24 -11.415,-44.846 -3.018,-11.605 -7.659,-31.566 -8.123,-50.832 -0.465,-19.262 3.016,-41.313 15.085,-57.329 12.071,-16.015 19.961,-19.032 19.961,-19.032 l 35.704,-20.019 c 0,0 18.549,3.074 29.52,4.701 -11.605,3.481 -22.516,10.444 -35.281,13.925 -12.767,3.482 -20.89,6.964 -34.584,15.32 -13.694,8.355 -21.586,30.869 -23.907,38.76 -2.322,7.893 -1.161,32.031 0.928,39.922 2.089,7.893 8.82,39.691 11.374,51.761 2.554,12.07 7.66,29.245 8.82,43.403 1.16,14.159 5.802,43.405 7.426,50.135 1.624,6.732 1.859,16.945 1.859,16.945 7.428,32.494 31.101,54.312 47.813,65.454 16.711,11.14 44.332,24.371 64.294,31.102 19.962,6.731 42.243,9.283 50.366,8.356 8.124,-0.929 14.856,-10.909 18.337,-19.497 3.482,-8.588 1.857,-22.979 2.089,-32.031 0.233,-9.052 5.107,-21.818 15.32,-29.246 10.212,-7.427 22.978,-11.605 31.334,-12.765 8.355,-1.161 9.051,0.464 11.604,1.856 2.553,1.393 7.66,3.018 11.374,3.946 3.714,0.928 6.731,4.178 10.212,6.732 3.481,2.554 10.909,4.178 14.855,5.338 3.947,1.16 2.803,2.462 2.803,2.462 z"
       style="fill:none;stroke:#231f20;stroke-width:0.5;stroke-linecap:round;stroke-linejoin:round;stroke-miterlimit:4;stroke-dasharray:2.8, 1.8;stroke-dashoffset:0;stroke-opacity:1"
       id="path167290" />
    <path
       d="m 695.699,404.931 c -0.281,4.559 5.335,13.985 7.704,13.642 0.265,-2.947 0.684,-5.18 1.247,-7.93 -0.147,-2.142 -1.362,-4.633 -0.068,-7.712 1.499,-3.006 0.778,-4.845 -1.8,-5.19 -2.584,-0.342 -6.719,1.305 -7.083,7.19"
       style="fill:#b2b1b1;fill-opacity:1;fill-rule:nonzero;stroke:none;stroke-width:0.1"
       id="path167292" />
    <path
       d="m 695.699,404.931 c -0.281,4.559 5.335,13.985 7.704,13.642 0.265,-2.947 0.684,-5.18 1.247,-7.93 -0.147,-2.142 -1.362,-4.633 -0.068,-7.712 1.499,-3.006 0.778,-4.845 -1.8,-5.19 -2.584,-0.342 -6.719,1.305 -7.083,7.19 z"
       style="fill:none;stroke:#231f20;stroke-width:0.5;stroke-linecap:round;stroke-linejoin:round;stroke-miterlimit:4;stroke-dasharray:2.8, 1.8;stroke-dashoffset:0;stroke-opacity:1"
       id="path167294" />
    <path
       d="M 878.702,486.616 956.36,465.438"
       style="fill:none;stroke:#231f20;stroke-width:0.5;stroke-linecap:round;stroke-linejoin:round;stroke-miterlimit:4;stroke-dasharray:2.8, 1.8;stroke-dashoffset:0;stroke-opacity:1"
       id="path167296" />
    <path
       d="m 884.198,514.915 70.858,-14.536"
       style="fill:none;stroke:#231f20;stroke-width:0.5;stroke-linecap:round;stroke-linejoin:round;stroke-miterlimit:4;stroke-dasharray:2.8, 1.8;stroke-dashoffset:0;stroke-opacity:1"
       id="path167298" />
    <path
       d="m 887.035,541.733 66.459,-11.015"
       style="fill:none;stroke:#231f20;stroke-width:0.5;stroke-linecap:round;stroke-linejoin:round;stroke-miterlimit:4;stroke-dasharray:2.8, 1.8;stroke-dashoffset:0;stroke-opacity:1"
       id="path167300" />
    <path
       d="m 887.715,569.914 78.88,-5.161"
       style="fill:none;stroke:#231f20;stroke-width:0.5;stroke-linecap:round;stroke-linejoin:round;stroke-miterlimit:4;stroke-dasharray:2.8, 1.8;stroke-dashoffset:0;stroke-opacity:1"
       id="path167302" />
    <path
       d="m 890.686,602.294 83.032,3.802"
       style="fill:none;stroke:#231f20;stroke-width:0.5;stroke-linecap:round;stroke-linejoin:round;stroke-miterlimit:4;stroke-dasharray:2.8, 1.8;stroke-dashoffset:0;stroke-opacity:1"
       id="path167304" />
    <path
       d="m 886.18,639.211 87.4,10.756"
       style="fill:none;stroke:#231f20;stroke-width:0.5;stroke-linecap:round;stroke-linejoin:round;stroke-miterlimit:4;stroke-dasharray:2.8, 1.8;stroke-dashoffset:0;stroke-opacity:1"
       id="path167306" />
    <path
       d="m 863.743,708.628 77.827,40.654"
       style="fill:none;stroke:#231f20;stroke-width:0.5;stroke-linecap:round;stroke-linejoin:round;stroke-miterlimit:4;stroke-dasharray:2.8, 1.8;stroke-dashoffset:0;stroke-opacity:1"
       id="path167308" />
    <path
       d="m 845.335,736.707 68.441,55.142"
       style="fill:none;stroke:#231f20;stroke-width:0.5;stroke-linecap:round;stroke-linejoin:round;stroke-miterlimit:4;stroke-dasharray:2.8, 1.8;stroke-dashoffset:0;stroke-opacity:1"
       id="path167310" />
    <path
       d="m 808.995,767.79 49.989,72.209"
       style="fill:none;stroke:#231f20;stroke-width:0.5;stroke-linecap:round;stroke-linejoin:round;stroke-miterlimit:4;stroke-dasharray:2.8, 1.8;stroke-dashoffset:0;stroke-opacity:1"
       id="path167312" />
    <path
       d="m 829.039,752.357 59.025,65.617"
       style="fill:none;stroke:#231f20;stroke-width:0.5;stroke-linecap:round;stroke-linejoin:round;stroke-miterlimit:4;stroke-dasharray:2.8, 1.8;stroke-dashoffset:0;stroke-opacity:1"
       id="path167314" />
    <path
       d="m 271.006,767.79 -49.99,72.209"
       style="fill:none;stroke:#231f20;stroke-width:0.5;stroke-linecap:round;stroke-linejoin:round;stroke-miterlimit:4;stroke-dasharray:2.8, 1.8;stroke-dashoffset:0;stroke-opacity:1"
       id="path167316" />
    <path
       d="m 250.962,752.357 -59.025,65.617"
       style="fill:none;stroke:#231f20;stroke-width:0.5;stroke-linecap:round;stroke-linejoin:round;stroke-miterlimit:4;stroke-dasharray:2.8, 1.8;stroke-dashoffset:0;stroke-opacity:1"
       id="path167318" />
    <path
       d="m 785.561,783.155 40.65,75.767"
       style="fill:none;stroke:#231f20;stroke-width:0.5;stroke-linecap:round;stroke-linejoin:round;stroke-miterlimit:4;stroke-dasharray:2.8, 1.8;stroke-dashoffset:0;stroke-opacity:1"
       id="path167320" />
    <path
       d="m 721.95,813.114 19.991,78.874"
       style="fill:none;stroke:#231f20;stroke-width:0.5;stroke-linecap:round;stroke-linejoin:round;stroke-miterlimit:4;stroke-dasharray:2.8, 1.8;stroke-dashoffset:0;stroke-opacity:1"
       id="path167322" />
    <path
       d="m 673.978,820.407 2.89,81.265"
       style="fill:none;stroke:#231f20;stroke-width:0.5;stroke-linecap:round;stroke-linejoin:round;stroke-miterlimit:4;stroke-dasharray:2.8, 1.8;stroke-dashoffset:0;stroke-opacity:1"
       id="path167324" />
    <path
       d="m 627.976,827.664 -2.379,73.518"
       style="fill:none;stroke:#231f20;stroke-width:0.5;stroke-linecap:round;stroke-linejoin:round;stroke-miterlimit:4;stroke-dasharray:2.8, 1.8;stroke-dashoffset:0;stroke-opacity:1"
       id="path167326" />
    <path
       d="m 599.644,827.44 c 0,0 -28.39,32.785 -39.665,54.046"
       style="fill:none;stroke:#231f20;stroke-width:0.5;stroke-linecap:round;stroke-linejoin:round;stroke-miterlimit:4;stroke-dasharray:2.8, 1.8;stroke-dashoffset:0;stroke-opacity:1"
       id="path167328" />
    <path
       d="m 540,788.55 42.879,-0.895"
       style="fill:none;stroke:#231f20;stroke-width:0.5;stroke-linecap:round;stroke-linejoin:round;stroke-miterlimit:4;stroke-dasharray:2.8, 1.8;stroke-dashoffset:0;stroke-opacity:1"
       id="path167330" />
    <path
       d="m 544.178,762.787 c 0,0 2.785,1.392 4.178,0.696"
       style="fill:none;stroke:#231f20;stroke-width:0.5;stroke-linecap:round;stroke-linejoin:round;stroke-miterlimit:4;stroke-dasharray:2.8, 1.8;stroke-dashoffset:0;stroke-opacity:1"
       id="path167332" />
    <path
       d="m 746.803,387.958 c -5.102,-2.578 -14.387,-10.006 -16.94,-13.253 -2.553,-3.251 -3.713,-10.214 1.162,-8.822 3.374,0.966 11.372,3.947 19.96,4.412 3.683,0.199 8.346,1.613 11.131,3.005"
       style="fill:none;stroke:#231f20;stroke-width:0.5;stroke-linecap:round;stroke-linejoin:round;stroke-miterlimit:4;stroke-dasharray:2.8, 1.8;stroke-dashoffset:0;stroke-opacity:1"
       id="path167334" />
    <path
       d="m 546.803,705.296 c 0,0 2.249,1.784 2.249,4.802 0,0 6.268,-9.516 8.587,-11.373 2.323,-1.857 22.05,-14.854 30.175,-16.016 8.124,-1.161 18.335,2.089 29.245,6.267 10.91,4.178 23.443,9.284 29.943,17.408 6.498,8.124 20.192,32.495 23.907,42.941 3.714,10.444 9.747,19.728 22.746,19.032 12.999,-0.696 32.495,-5.339 51.76,-14.623 19.264,-9.284 38.994,-24.835 49.438,-39.691 10.445,-14.854 19.033,-30.172 21.819,-37.6 2.786,-7.428 1.855,-12.998 -1.858,-14.623 -3.713,-1.624 -6.962,1.16 -14.854,11.373 -7.892,10.213 -16.711,23.211 -19.729,26.228"
       style="fill:none;stroke:#231f20;stroke-width:0.5;stroke-linecap:round;stroke-linejoin:round;stroke-miterlimit:4;stroke-dasharray:2.8, 1.8;stroke-dashoffset:0;stroke-opacity:1"
       id="path167336" />
    <path
       d="m 585.892,401.169 c 7.957,-2.325 25.208,-7.362 26.446,-8.791"
       style="fill:none;stroke:#231f20;stroke-width:0.5;stroke-linecap:round;stroke-linejoin:round;stroke-miterlimit:4;stroke-dasharray:2.8, 1.8;stroke-dashoffset:0;stroke-opacity:1"
       id="path167338" />
    <path
       d="m 606.1,394.979 c -1.806,2.704 -0.647,7.81 3.3,9.202 3.946,1.393 9.751,1.28 12.071,-0.519"
       style="fill:none;stroke:#231f20;stroke-width:0.5;stroke-linecap:round;stroke-linejoin:round;stroke-miterlimit:4;stroke-dasharray:2.8, 1.8;stroke-dashoffset:0;stroke-opacity:1"
       id="path167340" />
    <path
       d="m 696.969,494.425 c 6.499,0.465 25.699,-1.115 24.86,-17.764"
       style="fill:none;stroke:#231f20;stroke-width:0.5;stroke-linecap:round;stroke-linejoin:round;stroke-miterlimit:4;stroke-dasharray:2.8, 1.8;stroke-dashoffset:0;stroke-opacity:1"
       id="path167342" />
    <path
       d="m 544.172,718.053 c 0,0 -0.076,-1.448 0.934,-1.688 1.219,-0.29 2.263,-1.277 2.38,-2.843 0.09,-1.216 0,-2.96 1.566,-2.96 1.568,0 1.928,7.484 -1.039,7.833"
       style="fill:none;stroke:#231f20;stroke-width:0.5;stroke-linecap:round;stroke-linejoin:round;stroke-miterlimit:4;stroke-dasharray:2.8, 1.8;stroke-dashoffset:0;stroke-opacity:1"
       id="path167344" />
    <path
       d="m 562.979,658.106 c 1.393,-6.267 28.908,-26.02 56.296,-1.648"
       style="fill:none;stroke:#231f20;stroke-width:0.5;stroke-linecap:round;stroke-linejoin:round;stroke-miterlimit:4;stroke-dasharray:2.8, 1.8;stroke-dashoffset:0;stroke-opacity:1"
       id="path167346" />
    <path
       d="m 589.254,674.258 c 2.506,-5.939 8.54,-12.438 13.415,-15.92 4.875,-3.481 14.437,-8.271 24.881,5.887"
       style="fill:none;stroke:#231f20;stroke-width:0.5;stroke-linecap:round;stroke-linejoin:round;stroke-miterlimit:4;stroke-dasharray:2.8, 1.8;stroke-dashoffset:0;stroke-opacity:1"
       id="path167348" />
    <path
       d="m 652.108,682.013 c -7.456,-0.23 -18.8,-6.963 -22.05,-12.534 -3.25,-5.57 -11.606,-27.62 -12.766,-45.261 -1.161,-17.639 1.162,-39.69 9.981,-51.528 8.819,-11.837 20.207,-15.947 33.887,-7.194 5.803,3.712 11.807,16.13 13.694,26.46 1.886,10.328 0.814,19.033 0.696,22.282 -0.232,6.498 -2.552,18.57 -2.552,29.246 0,10.677 1.625,39.225 -20.89,38.529 z"
       style="fill:none;stroke:#231f20;stroke-width:0.5;stroke-linecap:round;stroke-linejoin:round;stroke-miterlimit:4;stroke-dasharray:2.8, 1.8;stroke-dashoffset:0;stroke-opacity:1"
       id="path167350" />
    <path
       d="m 662.062,691.042 c 0.027,-5.083 2.579,-8.796 5.365,-11.35 2.785,-2.553 5.339,-8.356 12.07,-12.302 6.73,-3.945 16.48,-8.588 21.585,-6.731 5.106,1.857 10.463,9.727 6.161,31.788"
       style="fill:none;stroke:#231f20;stroke-width:0.5;stroke-linecap:round;stroke-linejoin:round;stroke-miterlimit:4;stroke-dasharray:2.8, 1.8;stroke-dashoffset:0;stroke-opacity:1"
       id="path167352" />
    <path
       d="m 660.105,680.758 c 3.607,-0.37 7.137,-0.494 9.308,-3.342 2.171,-2.847 6.137,-7.472 7.53,-26.273 1.392,-18.801 3.481,-47.581 3.481,-50.831 0,-3.251 -4.409,-23.211 -11.372,-31.567 -6.963,-8.356 -13.258,-14.804 -20.889,-22.746 -6.938,-7.22 -12.535,-16.481 -9.749,-22.051"
       style="fill:none;stroke:#231f20;stroke-width:0.5;stroke-linecap:round;stroke-linejoin:round;stroke-miterlimit:4;stroke-dasharray:2.8, 1.8;stroke-dashoffset:0;stroke-opacity:1"
       id="path167354" />
    <path
       d="m 652.483,550.494 c 7.284,2.235 28.64,6.878 30.495,7.574 1.856,0.696 3.017,4.642 2.32,9.284 -0.696,4.642 -3.623,33.027 -5.293,29.745"
       style="fill:none;stroke:#231f20;stroke-width:0.5;stroke-linecap:round;stroke-linejoin:round;stroke-miterlimit:4;stroke-dasharray:2.8, 1.8;stroke-dashoffset:0;stroke-opacity:1"
       id="path167356" />
    <path
       d="m 682.978,558.068 c 2.09,0.696 7.196,-6.266 6.268,-21.121"
       style="fill:none;stroke:#231f20;stroke-width:0.5;stroke-linecap:round;stroke-linejoin:round;stroke-miterlimit:4;stroke-dasharray:2.8, 1.8;stroke-dashoffset:0;stroke-opacity:1"
       id="path167358" />
    <path
       d="m 727.542,688.317 c -2.088,-0.037 -6.267,-2.59 -5.338,-10.25 0.928,-7.659 6.73,-43.868 8.355,-49.439 1.626,-5.57 4.876,-9.285 10.214,-14.855 5.338,-5.57 10.695,-10.377 16.943,-9.052 7.66,1.625 21.176,7.406 24.371,9.284"
       style="fill:none;stroke:#231f20;stroke-width:0.5;stroke-linecap:round;stroke-linejoin:round;stroke-miterlimit:4;stroke-dasharray:2.8, 1.8;stroke-dashoffset:0;stroke-opacity:1"
       id="path167360" />
    <path
       d="m 719.256,689.305 c -0.069,-12.166 0.859,-55.803 10.607,-71.122 0,0 -35.941,14.629 -53.179,35.997"
       style="fill:none;stroke:#231f20;stroke-width:0.5;stroke-linecap:round;stroke-linejoin:round;stroke-miterlimit:4;stroke-dasharray:2.8, 1.8;stroke-dashoffset:0;stroke-opacity:1"
       id="path167362" />
    <path
       d="m 784.704,607.106 c -1.92,1.097 -18.631,-0.296 -20.952,-8.652 -2.322,-8.356 -9.075,-42.484 -27.642,-48.054"
       style="fill:none;stroke:#231f20;stroke-width:0.5;stroke-linecap:round;stroke-linejoin:round;stroke-miterlimit:4;stroke-dasharray:2.8, 1.8;stroke-dashoffset:0;stroke-opacity:1"
       id="path167364" />
    <path
       d="m 772.531,605.768 c -0.193,-7.777 -10.062,-50.439 -33.737,-64.598"
       style="fill:none;stroke:#231f20;stroke-width:0.5;stroke-linecap:round;stroke-linejoin:round;stroke-miterlimit:4;stroke-dasharray:2.8, 1.8;stroke-dashoffset:0;stroke-opacity:1"
       id="path167366" />
    <path
       d="m 777.777,607.043 c -1.027,-14.16 -4.742,-38.298 -13.562,-49.439 -8.819,-11.142 -10.678,-19.186 -11.606,-21.044"
       style="fill:none;stroke:#231f20;stroke-width:0.5;stroke-linecap:round;stroke-linejoin:round;stroke-miterlimit:4;stroke-dasharray:2.8, 1.8;stroke-dashoffset:0;stroke-opacity:1"
       id="path167368" />
    <path
       d="m 767.412,538.612 c -1.198,-1.597 -4.125,-5.378 -11.552,-3.058 -7.428,2.32 -16.247,4.874 -19.961,6.963 -3.714,2.089 -7.891,5.57 -13.231,2.089 -5.338,-3.482 -24.138,-17.641 -32.726,-20.426"
       style="fill:none;stroke:#231f20;stroke-width:0.5;stroke-linecap:round;stroke-linejoin:round;stroke-miterlimit:4;stroke-dasharray:2.8, 1.8;stroke-dashoffset:0;stroke-opacity:1"
       id="path167370" />
    <path
       d="m 755.012,535.818 c 0,0 -1.334,-6.758 -1.474,-8.62"
       style="fill:none;stroke:#231f20;stroke-width:0.5;stroke-linecap:round;stroke-linejoin:round;stroke-miterlimit:4;stroke-dasharray:2.8, 1.8;stroke-dashoffset:0;stroke-opacity:1"
       id="path167372" />
    <path
       d="m 674.757,504.004 c 3.714,-4.874 11.238,-6.513 18.434,-3.497 7.195,3.016 31.426,14.909 35.635,17.963"
       style="fill:none;stroke:#231f20;stroke-width:0.5;stroke-linecap:round;stroke-linejoin:round;stroke-miterlimit:4;stroke-dasharray:2.8, 1.8;stroke-dashoffset:0;stroke-opacity:1"
       id="path167374" />
    <path
       d="m 718.722,507.236 c -9.515,-5.336 -20.657,-10.676 -31.101,-18.335 -10.446,-7.66 -23.443,-18.105 -29.247,-25.299 -5.802,-7.197 -12.997,-16.715 -18.8,-21.354 -5.803,-4.644 -23.211,-22.283 -12.993,-29.486"
       style="fill:none;stroke:#231f20;stroke-width:0.5;stroke-linecap:round;stroke-linejoin:round;stroke-miterlimit:4;stroke-dasharray:2.8, 1.8;stroke-dashoffset:0;stroke-opacity:1"
       id="path167376" />
    <path
       d="m 627.504,413.001 c 3.482,4.178 6.035,9.053 9.052,15.088 3.018,6.034 7.659,13.696 11.838,16.712 4.178,3.017 10.909,5.571 13.695,8.819 2.785,3.25 15.55,16.249 21.353,23.674 5.804,7.429 15.804,16.361 13.124,17.582"
       style="fill:none;stroke:#231f20;stroke-width:0.5;stroke-linecap:round;stroke-linejoin:round;stroke-miterlimit:4;stroke-dasharray:2.8, 1.8;stroke-dashoffset:0;stroke-opacity:1"
       id="path167378" />
    <path
       d="m 670.203,475.178 c -4.865,-2.989 -14.846,-9.49 -21.809,-7.863 -6.964,1.624 -13.921,2.714 -20.191,2.866 -6.27,0.151 -28.088,-2.17 -36.908,-7.044 -8.819,-4.875 -11.837,-14.854 -12.3,-19.728 -0.464,-4.874 4.281,-9.92 11.373,-12.535 8.253,-3.042 25.862,-9.892 34.632,-16.668 0,0 -13.047,12.259 -16.296,17.365 -3.249,5.105 -5.571,16.478 1.392,21.352 5.805,4.064 12.069,1.858 20.194,2.554 8.124,0.696 26.765,5.492 32.648,13.075"
       style="fill:none;stroke:#231f20;stroke-width:0.5;stroke-linecap:round;stroke-linejoin:round;stroke-miterlimit:4;stroke-dasharray:2.8, 1.8;stroke-dashoffset:0;stroke-opacity:1"
       id="path167380" />
    <path
       d="m 651.193,514.162 c -8.601,0.967 -17.654,5.377 -26.474,8.393 -8.82,3.018 -23.21,7.892 -31.102,4.178 -7.892,-3.713 -14.856,-14.157 -11.837,-25.067 3.017,-10.908 14.857,-11.936 19.033,-12.069 7.194,-0.231 14.621,0.696 21.12,5.57 6.5,4.875 16.979,11.417 19.282,13.252"
       style="fill:none;stroke:#231f20;stroke-width:0.5;stroke-linecap:round;stroke-linejoin:round;stroke-miterlimit:4;stroke-dasharray:2.8, 1.8;stroke-dashoffset:0;stroke-opacity:1"
       id="path167382" />
    <path
       d="m 718.068,541.432 c -8.165,-1.004 -25.806,-4.485 -30.447,-5.182 -4.643,-0.696 -14.623,-0.696 -25.069,-1.857 -10.444,-1.16 -25.065,-8.354 -24.138,-11.373 0.927,-3.018 10.445,-3.018 21.586,-0.929 11.141,2.089 24.834,4.642 28.78,6.267 3.947,1.626 14.161,6.5 17.874,8.589 3.712,2.089 11.414,4.485 11.414,4.485 z"
       style="fill:none;stroke:#231f20;stroke-width:0.5;stroke-linecap:round;stroke-linejoin:round;stroke-miterlimit:4;stroke-dasharray:2.8, 1.8;stroke-dashoffset:0;stroke-opacity:1"
       id="path167384" />
    <path
       d="m 639.182,522.005 c 1.61,-3.715 2.655,-4.673 4.54,-6.283"
       style="fill:none;stroke:#231f20;stroke-width:0.5;stroke-linecap:round;stroke-linejoin:round;stroke-miterlimit:4;stroke-dasharray:2.8, 1.8;stroke-dashoffset:0;stroke-opacity:1"
       id="path167386" />
    <path
       d="m 740.114,604.265 c 5.301,-3.025 12.033,-9.06 11.801,-15.559 -0.234,-6.498 -1.627,-16.712 -6.733,-24.835 -5.105,-8.123 -8.848,-17.285 -18.35,-17.81 -9.502,-0.527 -14.146,11.775 -15.073,22.684 -0.927,10.909 6.536,29.974 11.16,34.135"
       style="fill:none;stroke:#231f20;stroke-width:0.5;stroke-linecap:round;stroke-linejoin:round;stroke-miterlimit:4;stroke-dasharray:2.8, 1.8;stroke-dashoffset:0;stroke-opacity:1"
       id="path167388" />
    <path
       d="m 712.935,580.352 c 6.716,4.176 21.388,10.576 38.888,9.967"
       style="fill:none;stroke:#231f20;stroke-width:0.5;stroke-linecap:round;stroke-linejoin:round;stroke-miterlimit:4;stroke-dasharray:2.8, 1.8;stroke-dashoffset:0;stroke-opacity:1"
       id="path167390" />
    <path
       d="m 714.435,556.634 c 5.68,-2.975 15.662,-2.745 22.16,6.308 6.498,9.052 9.034,18.116 8.579,27.278"
       style="fill:none;stroke:#231f20;stroke-width:0.5;stroke-linecap:round;stroke-linejoin:round;stroke-miterlimit:4;stroke-dasharray:2.8, 1.8;stroke-dashoffset:0;stroke-opacity:1"
       id="path167392" />
    <path
       d="m 715.154,588.04 c -10.822,-4.44 -22.194,-16.046 -19.642,-22.777 2.553,-6.73 12.002,-6.295 17.374,-3.612"
       style="fill:none;stroke:#231f20;stroke-width:0.5;stroke-linecap:round;stroke-linejoin:round;stroke-miterlimit:4;stroke-dasharray:2.8, 1.8;stroke-dashoffset:0;stroke-opacity:1"
       id="path167394" />
    <path
       d="m 751.042,593.139 c -0.52,3.922 1.702,9.487 5.928,11.464"
       style="fill:none;stroke:#231f20;stroke-width:0.5;stroke-linecap:round;stroke-linejoin:round;stroke-miterlimit:4;stroke-dasharray:2.8, 1.8;stroke-dashoffset:0;stroke-opacity:1"
       id="path167396" />
    <path
       d="m 706.884,711.027 c 7.917,-0.311 23.908,-5.804 28.086,-9.982 2.089,-2.088 1.858,-0.23 0.233,2.322 -1.625,2.552 -11.606,9.516 -23.675,11.141 -12.07,1.625 -20.892,0.465 -24.141,-0.696 -3.249,-1.161 -6.963,-1.394 -3.945,1.856 3.018,3.25 8.82,6.963 14.623,10.213 5.803,3.25 14.623,9.052 22.282,9.052 7.659,0 12.997,-4.178 17.408,-6.267 4.411,-2.088 11.607,-5.569 16.248,-7.195 4.642,-1.625 11.605,-7.891 14.39,-10.213 2.785,-2.32 10.676,-12.301 11.838,-11.837 1.161,0.464 1.624,3.946 -4.411,11.141 -6.034,7.195 -17.177,15.551 -22.282,16.943 -5.106,1.394 -14.39,6.035 -21.353,10.213 -6.964,4.179 -10.479,6.029 -21.586,1.625 -13.463,-5.338 -27.639,-17.001 -32.96,-21.121 -7.194,-5.571 -3.966,-11.036 2.533,-9.875 6.5,1.16 14.875,3.144 26.712,2.68"
       style="fill:#b2b1b1;fill-opacity:1;fill-rule:nonzero;stroke:none;stroke-width:0.1"
       id="path167398" />
    <path
       d="m 706.884,711.027 c 7.917,-0.311 23.908,-5.804 28.086,-9.982 2.089,-2.088 1.858,-0.23 0.233,2.322 -1.625,2.552 -11.606,9.516 -23.675,11.141 -12.07,1.625 -20.892,0.465 -24.141,-0.696 -3.249,-1.161 -6.963,-1.394 -3.945,1.856 3.018,3.25 8.82,6.963 14.623,10.213 5.803,3.25 14.623,9.052 22.282,9.052 7.659,0 12.997,-4.178 17.408,-6.267 4.411,-2.088 11.607,-5.569 16.248,-7.195 4.642,-1.625 11.605,-7.891 14.39,-10.213 2.785,-2.32 10.676,-12.301 11.838,-11.837 1.161,0.464 1.624,3.946 -4.411,11.141 -6.034,7.195 -17.177,15.551 -22.282,16.943 -5.106,1.394 -14.39,6.035 -21.353,10.213 -6.964,4.179 -10.479,6.029 -21.586,1.625 -13.463,-5.338 -27.639,-17.001 -32.96,-21.121 -7.194,-5.571 -3.966,-11.036 2.533,-9.875 6.5,1.16 14.875,3.144 26.712,2.68 z"
       style="fill:none;stroke:#231f20;stroke-width:0.5;stroke-linecap:round;stroke-linejoin:round;stroke-miterlimit:4;stroke-dasharray:2.8, 1.8;stroke-dashoffset:0;stroke-opacity:1"
       id="path167400" />
    <path
       d="m 779.503,699.702 c -5.54,2.505 -15.288,7.842 -22.947,11.789 -7.66,3.945 -18.484,9.436 -27.304,10.597"
       style="fill:none;stroke:#231f20;stroke-width:0.5;stroke-linecap:round;stroke-linejoin:round;stroke-miterlimit:4;stroke-dasharray:2.8, 1.8;stroke-dashoffset:0;stroke-opacity:1"
       id="path167402" />
    <path
       d="m 550.548,630.95 c -0.334,1.856 2.452,3.249 6.861,3.713 4.409,0.464 13.229,-0.464 20.193,-2.786 6.963,-2.32 17.615,-10.255 18.081,-16.522"
       style="fill:none;stroke:#231f20;stroke-width:0.5;stroke-linecap:round;stroke-linejoin:round;stroke-miterlimit:4;stroke-dasharray:2.8, 1.8;stroke-dashoffset:0;stroke-opacity:1"
       id="path167404" />
    <path
       d="m 576.421,620.718 c 5.107,-0.696 22.303,-3.464 24.856,-10.89 2.553,-7.427 1.623,-16.016 -6.5,-16.248 -8.123,-0.232 -9.748,0.232 -11.605,5.57"
       style="fill:none;stroke:#231f20;stroke-width:0.5;stroke-linecap:round;stroke-linejoin:round;stroke-miterlimit:4;stroke-dasharray:2.8, 1.8;stroke-dashoffset:6.0038;stroke-opacity:1"
       id="path167406" />
    <path
       d="m 593.613,593.552 c 2.113,0.101 6.271,-0.204 9.056,-4.614 2.786,-4.41 4.642,-9.284 -0.929,-18.568 -6.205,-10.344 -13.229,-9.981 -15.55,-9.285 -2.321,0.697 -4.876,2.786 -5.339,8.82"
       style="fill:none;stroke:#231f20;stroke-width:0.5;stroke-linecap:round;stroke-linejoin:round;stroke-miterlimit:4;stroke-dasharray:2.8, 1.8;stroke-dashoffset:0;stroke-opacity:1"
       id="path167408" />
    <path
       d="m 583.636,578.726 c -0.64,-4.232 -3.018,-11.374 -8.356,-18.337 -5.338,-6.963 -10.444,-11.605 -15.318,-9.285 -4.874,2.322 -9.053,10.91 -7.197,19.73 1.858,8.82 7.983,18.509 11.985,20.918 3.568,2.146 10.762,1.393 14.477,-1.189 2.806,-1.95 5.569,-4.178 4.409,-11.837 z"
       style="fill:none;stroke:#231f20;stroke-width:0.5;stroke-linecap:round;stroke-linejoin:round;stroke-miterlimit:4;stroke-dasharray:2.8, 1.8;stroke-dashoffset:1;stroke-opacity:1"
       id="path167410" />
    <path
       d="m 583.727,583.617 c 0.838,3.696 4.548,10.173 7.575,9.926"
       style="fill:none;stroke:#231f20;stroke-width:0.5;stroke-linecap:round;stroke-linejoin:round;stroke-miterlimit:4;stroke-dasharray:2.8, 1.8;stroke-dashoffset:6.5038;stroke-opacity:1"
       id="path167412" />
    <path
       d="m 576.666,535.078 c -0.597,0.67 -1.359,1.156 -2.313,1.404 -5.34,1.392 -13.463,-0.463 -17.872,-8.588 -2.982,-5.492 -7.429,-26.228 1.624,-29.941 5.148,-2.114 7.369,-0.621 8.498,1.316"
       style="fill:none;stroke:#231f20;stroke-width:0.5;stroke-linecap:round;stroke-linejoin:round;stroke-miterlimit:4;stroke-dasharray:2.8, 1.8;stroke-dashoffset:0;stroke-opacity:1"
       id="path167414" />
    <path
       d="m 824.425,354.456 c 4.642,17.639 -6.13,29.765 -14.485,34.174 -8.356,4.41 -21.69,0.229 -29.013,-3.25 -9.285,-4.409 -21.122,-12.069 -23.211,-17.871 -2.089,-5.803 -3.713,-11.605 5.803,-16.014 9.516,-4.413 25.3,-3.716 37.834,-2.555 12.533,1.162 23.906,3.019 29.709,11.606 5.803,8.587 6.732,12.303 7.893,15.32 1.159,3.016 7.194,11.835 14.157,6.498 6.963,-5.34 16.248,-13.927 27.388,-13.461 11.142,0.462 16.016,4.871 22.283,9.979 6.267,5.106 12.766,13.23 14.159,16.246 1.392,3.02 -4.643,8.125 -9.052,10.911 -4.409,2.785 -17.873,8.587 -26.926,10.444 -9.051,1.858 -16.248,2.786 -20.889,4.643 -4.642,1.855 -8.588,6.034 -17.409,3.248 -8.819,-2.786 -18.089,-6.555 -21.926,-7.456"
       style="fill:none;stroke:#231f20;stroke-width:0.5;stroke-linecap:round;stroke-linejoin:round;stroke-miterlimit:4;stroke-dasharray:2.8, 1.8;stroke-dashoffset:0;stroke-opacity:1"
       id="path167416" />
    <path
       d="m 805.324,390.17 c 4.152,0.781 9.026,3.334 6.241,8.674 -2.785,5.337 -5.539,8.277 -5.185,11.549"
       style="fill:none;stroke:#231f20;stroke-width:0.5;stroke-linecap:round;stroke-linejoin:round;stroke-miterlimit:4;stroke-dasharray:2.8, 1.8;stroke-dashoffset:0;stroke-opacity:1"
       id="path167418" />
    <path
       d="m 810.782,400.289 c 5.657,-0.983 20.338,-2.174 36.324,-16.432"
       style="fill:none;stroke:#231f20;stroke-width:0.5;stroke-linecap:round;stroke-linejoin:round;stroke-miterlimit:4;stroke-dasharray:2.8, 1.8;stroke-dashoffset:0;stroke-opacity:1"
       id="path167420" />
    <path
       d="m 847.552,425.286 c -0.938,2.107 2.335,4.101 5.096,4.892 3.25,0.931 7.427,2.089 11.374,-0.233 3.971,-2.337 6.868,-10.883 -5.27,-8.226"
       style="fill:none;stroke:#231f20;stroke-width:0.5;stroke-linecap:round;stroke-linejoin:round;stroke-miterlimit:4;stroke-dasharray:2.8, 1.8;stroke-dashoffset:0;stroke-opacity:1"
       id="path167422" />
    <path
       d="m 939.01,470.17 c -1.411,-7.033 -3.036,-14.693 -8.374,-26.996 -5.338,-12.3 -12.302,-27.852 -14.623,-32.726 -2.321,-4.874 -3.36,-8.432 -1.1,-10.135 2.26,-1.703 6.672,2.706 8.992,8.511 2.32,5.802 9.284,22.978 13.462,33.888 4.177,10.908 6.948,18.744 8.812,25.503"
       style="fill:none;stroke:#231f20;stroke-width:0.5;stroke-linecap:round;stroke-linejoin:round;stroke-miterlimit:4;stroke-dasharray:2.8, 1.8;stroke-dashoffset:0;stroke-opacity:1"
       id="path167424" />
    <path
       d="m 614.176,678.996 c 2.419,-4.874 9.062,-9.893 24.193,-1.929"
       style="fill:none;stroke:#231f20;stroke-width:0.5;stroke-linecap:round;stroke-linejoin:round;stroke-miterlimit:4;stroke-dasharray:2.8, 1.8;stroke-dashoffset:0;stroke-opacity:1"
       id="path167426" />
    <path
       d="m 861.483,525.721 5.951,2.429"
       style="fill:none;stroke:#231f20;stroke-width:0.5;stroke-linecap:round;stroke-linejoin:round;stroke-miterlimit:4;stroke-dasharray:2.8, 1.8;stroke-dashoffset:0;stroke-opacity:1"
       id="path167428" />
    <path
       d="m 832.222,687.12 3.363,0.464"
       style="fill:none;stroke:#231f20;stroke-width:0.5;stroke-linecap:round;stroke-linejoin:round;stroke-miterlimit:4;stroke-dasharray:2.8, 1.8;stroke-dashoffset:0;stroke-opacity:1"
       id="path167430" />
    <path
       d="M 201.299,486.616 123.64,465.438"
       style="fill:none;stroke:#231f20;stroke-width:0.5;stroke-linecap:round;stroke-linejoin:round;stroke-miterlimit:4;stroke-dasharray:2.8, 1.8;stroke-dashoffset:0;stroke-opacity:1"
       id="path167432" />
    <path
       d="M 195.803,514.915 124.945,500.379"
       style="fill:none;stroke:#231f20;stroke-width:0.5;stroke-linecap:round;stroke-linejoin:round;stroke-miterlimit:4;stroke-dasharray:2.8, 1.8;stroke-dashoffset:0;stroke-opacity:1"
       id="path167434" />
    <path
       d="M 192.966,541.733 126.507,530.718"
       style="fill:none;stroke:#231f20;stroke-width:0.5;stroke-linecap:round;stroke-linejoin:round;stroke-miterlimit:4;stroke-dasharray:2.8, 1.8;stroke-dashoffset:0;stroke-opacity:1"
       id="path167436" />
    <path
       d="m 192.285,569.914 -78.88,-5.161"
       style="fill:none;stroke:#231f20;stroke-width:0.5;stroke-linecap:round;stroke-linejoin:round;stroke-miterlimit:4;stroke-dasharray:2.8, 1.8;stroke-dashoffset:0;stroke-opacity:1"
       id="path167438" />
    <path
       d="m 189.315,602.294 -83.032,3.802"
       style="fill:none;stroke:#231f20;stroke-width:0.5;stroke-linecap:round;stroke-linejoin:round;stroke-miterlimit:4;stroke-dasharray:2.8, 1.8;stroke-dashoffset:0;stroke-opacity:1"
       id="path167440" />
    <path
       d="m 193.821,639.211 -87.4,10.756"
       style="fill:none;stroke:#231f20;stroke-width:0.5;stroke-linecap:round;stroke-linejoin:round;stroke-miterlimit:4;stroke-dasharray:2.8, 1.8;stroke-dashoffset:0;stroke-opacity:1"
       id="path167442" />
    <path
       d="M 216.257,708.628 138.43,749.282"
       style="fill:none;stroke:#231f20;stroke-width:0.5;stroke-linecap:round;stroke-linejoin:round;stroke-miterlimit:4;stroke-dasharray:2.8, 1.8;stroke-dashoffset:0;stroke-opacity:1"
       id="path167444" />
    <path
       d="m 234.666,736.707 -68.441,55.142"
       style="fill:none;stroke:#231f20;stroke-width:0.5;stroke-linecap:round;stroke-linejoin:round;stroke-miterlimit:4;stroke-dasharray:2.8, 1.8;stroke-dashoffset:0;stroke-opacity:1"
       id="path167446" />
    <path
       d="m 294.44,783.155 -40.65,75.767"
       style="fill:none;stroke:#231f20;stroke-width:0.5;stroke-linecap:round;stroke-linejoin:round;stroke-miterlimit:4;stroke-dasharray:2.8, 1.8;stroke-dashoffset:0;stroke-opacity:1"
       id="path167448" />
    <path
       d="m 358.051,813.114 -19.992,78.874"
       style="fill:none;stroke:#231f20;stroke-width:0.5;stroke-linecap:round;stroke-linejoin:round;stroke-miterlimit:4;stroke-dasharray:2.8, 1.8;stroke-dashoffset:0;stroke-opacity:1"
       id="path167450" />
    <path
       d="m 406.023,820.407 -2.891,81.265"
       style="fill:none;stroke:#231f20;stroke-width:0.5;stroke-linecap:round;stroke-linejoin:round;stroke-miterlimit:4;stroke-dasharray:2.8, 1.8;stroke-dashoffset:0;stroke-opacity:1"
       id="path167452" />
    <path
       d="m 452.025,827.664 2.378,73.518"
       style="fill:none;stroke:#231f20;stroke-width:0.5;stroke-linecap:round;stroke-linejoin:round;stroke-miterlimit:4;stroke-dasharray:2.8, 1.8;stroke-dashoffset:0;stroke-opacity:1"
       id="path167454" />
    <path
       d="m 480.356,827.44 c 0,0 28.391,32.785 39.665,54.046"
       style="fill:none;stroke:#231f20;stroke-width:0.5;stroke-linecap:round;stroke-linejoin:round;stroke-miterlimit:4;stroke-dasharray:2.8, 1.8;stroke-dashoffset:0;stroke-opacity:1"
       id="path167456" />
    <path
       d="m 540,788.55 -42.879,-0.895"
       style="fill:none;stroke:#231f20;stroke-width:0.5;stroke-linecap:round;stroke-linejoin:round;stroke-miterlimit:4;stroke-dasharray:2.8, 1.8;stroke-dashoffset:0;stroke-opacity:1"
       id="path167458" />
    <path
       d="m 535.823,762.787 c 0,0 -2.786,1.392 -4.179,0.696"
       style="fill:none;stroke:#231f20;stroke-width:0.5;stroke-linecap:round;stroke-linejoin:round;stroke-miterlimit:4;stroke-dasharray:2.8, 1.8;stroke-dashoffset:0;stroke-opacity:1"
       id="path167460" />
    <path
       d="m 311.144,416.949 c 11.605,-3.482 31.798,-11.373 40.153,-17.409 8.357,-6.036 16.016,-13.926 16.016,-18.8 0,-4.874 -3.945,-15.088 -15.087,-13.696"
       style="fill:none;stroke:#231f20;stroke-width:0.5;stroke-linecap:round;stroke-linejoin:round;stroke-miterlimit:4;stroke-dasharray:2.8, 1.8;stroke-dashoffset:0;stroke-opacity:1"
       id="path167462" />
    <path
       d="m 333.198,387.958 c 5.102,-2.578 14.386,-10.006 16.939,-13.253 2.553,-3.251 3.713,-10.214 -1.161,-8.822 -3.374,0.966 -11.372,3.947 -19.961,4.412 -3.682,0.199 -8.345,1.613 -11.13,3.005"
       style="fill:none;stroke:#231f20;stroke-width:0.5;stroke-linecap:round;stroke-linejoin:round;stroke-miterlimit:4;stroke-dasharray:2.8, 1.8;stroke-dashoffset:0;stroke-opacity:1"
       id="path167464" />
    <path
       d="m 384.301,404.931 c 0.282,4.559 -5.335,13.985 -7.704,13.642 -0.263,-2.947 -0.684,-5.18 -1.247,-7.93 0.149,-2.142 1.363,-4.633 0.068,-7.712 -1.498,-3.006 -0.777,-4.845 1.802,-5.19 2.582,-0.342 6.718,1.305 7.081,7.19"
       style="fill:#b2b1b1;fill-opacity:1;fill-rule:nonzero;stroke:none;stroke-width:0.1"
       id="path167466" />
    <path
       d="m 384.301,404.931 c 0.282,4.559 -5.335,13.985 -7.704,13.642 -0.263,-2.947 -0.684,-5.18 -1.247,-7.93 0.149,-2.142 1.363,-4.633 0.068,-7.712 -1.498,-3.006 -0.777,-4.845 1.802,-5.19 2.582,-0.342 6.718,1.305 7.081,7.19 z"
       style="fill:none;stroke:#231f20;stroke-width:0.5;stroke-linecap:round;stroke-linejoin:round;stroke-miterlimit:4;stroke-dasharray:2.8, 1.8;stroke-dashoffset:0;stroke-opacity:1"
       id="path167468" />
    <path
       d="m 533.197,705.296 c 0,0 -2.249,1.784 -2.249,4.802 0,0 -6.266,-9.516 -8.587,-11.373 -2.322,-1.857 -22.05,-14.854 -30.174,-16.016 -8.125,-1.161 -18.336,2.089 -29.246,6.267 -10.909,4.178 -23.442,9.284 -29.941,17.408 -6.5,8.124 -20.194,32.495 -23.908,42.941 -3.714,10.444 -9.747,19.728 -22.746,19.032 -12.999,-0.696 -32.496,-5.339 -51.761,-14.623 -19.263,-9.284 -38.993,-24.835 -49.438,-39.691 -10.444,-14.854 -19.033,-30.172 -21.818,-37.6 -2.786,-7.428 -1.855,-12.998 1.857,-14.623 3.713,-1.624 6.962,1.16 14.855,11.373 7.891,10.213 16.711,23.211 19.729,26.228"
       style="fill:none;stroke:#231f20;stroke-width:0.5;stroke-linecap:round;stroke-linejoin:round;stroke-miterlimit:4;stroke-dasharray:2.8, 1.8;stroke-dashoffset:0;stroke-opacity:1"
       id="path167470" />
    <path
       d="m 518.646,390.951 c 5.803,-6.033 16.944,-6.963 21.354,-6.963 4.41,0 15.552,0.93 21.355,6.963"
       style="fill:none;stroke:#231f20;stroke-width:0.5;stroke-linecap:round;stroke-linejoin:round;stroke-miterlimit:4;stroke-dasharray:2.8, 1.8;stroke-dashoffset:0;stroke-opacity:1"
       id="path167472" />
    <path
       d="m 485.874,368.53 c -6.777,2.878 -6.79,14.296 -4.701,18.474 1.572,3.142 7.995,10.448 11.942,13.464 3.945,3.017 10.444,4.874 16.247,6.732 5.804,1.858 24.14,6.033 30.638,6.033 6.499,0 24.835,-4.175 30.638,-6.033 5.804,-1.858 12.303,-3.715 16.248,-6.732 3.946,-3.016 10.37,-10.322 11.941,-13.464 2.089,-4.178 2.077,-15.596 -4.701,-18.474"
       style="fill:none;stroke:#231f20;stroke-width:0.5;stroke-linecap:round;stroke-linejoin:round;stroke-miterlimit:4;stroke-dasharray:2.8, 1.8;stroke-dashoffset:0;stroke-opacity:1"
       id="path167474" />
    <path
       d="m 494.109,401.169 c -7.958,-2.325 -25.208,-7.362 -26.447,-8.791"
       style="fill:none;stroke:#231f20;stroke-width:0.5;stroke-linecap:round;stroke-linejoin:round;stroke-miterlimit:4;stroke-dasharray:2.8, 1.8;stroke-dashoffset:0;stroke-opacity:1"
       id="path167476" />
    <path
       d="m 582.129,405.401 c 0.563,-0.928 1.055,-1.901 1.467,-2.92"
       style="fill:none;stroke:#231f20;stroke-width:0.5;stroke-linecap:round;stroke-linejoin:round;stroke-miterlimit:4;stroke-dasharray:2.8, 1.8;stroke-dashoffset:0;stroke-opacity:1"
       id="path167478" />
    <path
       d="m 503.243,411.523 c 11.586,9.711 31.775,12.154 36.757,12.154 4.968,0 25.055,-2.429 36.658,-12.069"
       style="fill:none;stroke:#231f20;stroke-width:0.5;stroke-linecap:round;stroke-linejoin:round;stroke-miterlimit:4;stroke-dasharray:2.8, 1.8;stroke-dashoffset:0;stroke-opacity:1"
       id="path167480" />
    <path
       d="m 496.404,402.481 c 0.412,1.019 0.904,1.992 1.469,2.92"
       style="fill:none;stroke:#231f20;stroke-width:0.5;stroke-linecap:round;stroke-linejoin:round;stroke-miterlimit:4;stroke-dasharray:2.8, 1.8;stroke-dashoffset:0;stroke-opacity:1"
       id="path167482" />
    <path
       d="m 473.9,394.979 c 1.807,2.704 0.647,7.81 -3.299,9.202 -3.947,1.393 -9.751,1.28 -12.071,-0.519"
       style="fill:none;stroke:#231f20;stroke-width:0.5;stroke-linecap:round;stroke-linejoin:round;stroke-miterlimit:4;stroke-dasharray:2.8, 1.8;stroke-dashoffset:0;stroke-opacity:1"
       id="path167484" />
    <path
       d="m 383.032,494.425 c -6.499,0.465 -25.7,-1.115 -24.86,-17.764"
       style="fill:none;stroke:#231f20;stroke-width:0.5;stroke-linecap:round;stroke-linejoin:round;stroke-miterlimit:4;stroke-dasharray:2.8, 1.8;stroke-dashoffset:0;stroke-opacity:1"
       id="path167486" />
    <path
       d="m 535.827,718.053 c 0,0 0.077,-1.448 -0.933,-1.688 -1.219,-0.29 -2.263,-1.277 -2.379,-2.843 -0.091,-1.216 0,-2.96 -1.567,-2.96 -1.567,0 -1.927,7.484 1.039,7.833"
       style="fill:none;stroke:#231f20;stroke-width:0.5;stroke-linecap:round;stroke-linejoin:round;stroke-miterlimit:4;stroke-dasharray:2.8, 1.8;stroke-dashoffset:0;stroke-opacity:1"
       id="path167488" />
    <path
       d="m 517.022,658.106 c -1.393,-6.267 -28.908,-26.02 -56.296,-1.648"
       style="fill:none;stroke:#231f20;stroke-width:0.5;stroke-linecap:round;stroke-linejoin:round;stroke-miterlimit:4;stroke-dasharray:2.8, 1.8;stroke-dashoffset:0;stroke-opacity:1"
       id="path167490" />
    <path
       d="m 490.747,674.258 c -2.507,-5.939 -8.541,-12.438 -13.415,-15.92 -4.874,-3.481 -14.437,-8.271 -24.881,5.887"
       style="fill:none;stroke:#231f20;stroke-width:0.5;stroke-linecap:round;stroke-linejoin:round;stroke-miterlimit:4;stroke-dasharray:2.8, 1.8;stroke-dashoffset:0;stroke-opacity:1"
       id="path167492" />
    <path
       d="m 427.893,682.013 c 7.455,-0.23 18.799,-6.963 22.05,-12.534 3.25,-5.57 11.605,-27.62 12.765,-45.261 1.161,-17.639 -1.161,-39.69 -9.98,-51.528 -8.82,-11.837 -20.207,-15.947 -33.888,-7.194 -5.802,3.712 -11.807,16.13 -13.693,26.46 -1.887,10.328 -0.813,19.033 -0.696,22.282 0.232,6.498 2.552,18.57 2.552,29.246 0,10.677 -1.625,39.225 20.89,38.529 z"
       style="fill:none;stroke:#231f20;stroke-width:0.5;stroke-linecap:round;stroke-linejoin:round;stroke-miterlimit:4;stroke-dasharray:2.8, 1.8;stroke-dashoffset:0;stroke-opacity:1"
       id="path167494" />
    <path
       d="m 417.939,691.042 c -0.027,-5.083 -2.58,-8.796 -5.365,-11.35 -2.785,-2.553 -5.34,-8.356 -12.071,-12.302 -6.73,-3.945 -16.48,-8.588 -21.585,-6.731 -5.106,1.857 -10.462,9.727 -6.16,31.788"
       style="fill:none;stroke:#231f20;stroke-width:0.5;stroke-linecap:round;stroke-linejoin:round;stroke-miterlimit:4;stroke-dasharray:2.8, 1.8;stroke-dashoffset:0;stroke-opacity:1"
       id="path167496" />
    <path
       d="m 419.896,680.758 c -3.608,-0.37 -7.138,-0.494 -9.308,-3.342 -2.17,-2.847 -6.137,-7.472 -7.53,-26.273 -1.392,-18.801 -3.481,-47.581 -3.481,-50.831 0,-3.251 4.408,-23.211 11.372,-31.567 6.963,-8.356 13.259,-14.804 20.889,-22.746 6.938,-7.22 12.534,-16.481 9.748,-22.051"
       style="fill:none;stroke:#231f20;stroke-width:0.5;stroke-linecap:round;stroke-linejoin:round;stroke-miterlimit:4;stroke-dasharray:2.8, 1.8;stroke-dashoffset:0;stroke-opacity:1"
       id="path167498" />
    <path
       d="m 427.517,550.494 c -7.284,2.235 -28.639,6.878 -30.495,7.574 -1.856,0.696 -3.017,4.642 -2.32,9.284 0.696,4.642 3.623,33.027 5.293,29.745"
       style="fill:none;stroke:#231f20;stroke-width:0.5;stroke-linecap:round;stroke-linejoin:round;stroke-miterlimit:4;stroke-dasharray:2.8, 1.8;stroke-dashoffset:0;stroke-opacity:1"
       id="path167500" />
    <path
       d="m 397.022,558.068 c -2.089,0.696 -7.195,-6.266 -6.267,-21.121"
       style="fill:none;stroke:#231f20;stroke-width:0.5;stroke-linecap:round;stroke-linejoin:round;stroke-miterlimit:4;stroke-dasharray:2.8, 1.8;stroke-dashoffset:0;stroke-opacity:1"
       id="path167502" />
    <path
       d="m 352.458,688.317 c 2.088,-0.037 6.268,-2.59 5.339,-10.25 -0.929,-7.659 -6.731,-43.868 -8.356,-49.439 -1.625,-5.57 -4.875,-9.285 -10.213,-14.855 -5.339,-5.57 -10.695,-10.377 -16.943,-9.052 -7.659,1.625 -21.177,7.406 -24.371,9.284"
       style="fill:none;stroke:#231f20;stroke-width:0.5;stroke-linecap:round;stroke-linejoin:round;stroke-miterlimit:4;stroke-dasharray:2.8, 1.8;stroke-dashoffset:0;stroke-opacity:1"
       id="path167504" />
    <path
       d="m 360.744,689.305 c 0.07,-12.166 -0.858,-55.803 -10.607,-71.122 0,0 35.942,14.629 53.179,35.997"
       style="fill:none;stroke:#231f20;stroke-width:0.5;stroke-linecap:round;stroke-linejoin:round;stroke-miterlimit:4;stroke-dasharray:2.8, 1.8;stroke-dashoffset:0;stroke-opacity:1"
       id="path167506" />
    <path
       d="m 295.296,607.106 c 1.921,1.097 18.631,-0.296 20.953,-8.652 2.322,-8.356 9.074,-42.484 27.642,-48.054"
       style="fill:none;stroke:#231f20;stroke-width:0.5;stroke-linecap:round;stroke-linejoin:round;stroke-miterlimit:4;stroke-dasharray:2.8, 1.8;stroke-dashoffset:0;stroke-opacity:1"
       id="path167508" />
    <path
       d="m 307.47,605.768 c 0.192,-7.777 10.062,-50.439 33.737,-64.598"
       style="fill:none;stroke:#231f20;stroke-width:0.5;stroke-linecap:round;stroke-linejoin:round;stroke-miterlimit:4;stroke-dasharray:2.8, 1.8;stroke-dashoffset:0;stroke-opacity:1"
       id="path167510" />
    <path
       d="m 302.223,607.043 c 1.028,-14.16 4.742,-38.298 13.563,-49.439 8.819,-11.142 10.678,-19.186 11.605,-21.044"
       style="fill:none;stroke:#231f20;stroke-width:0.5;stroke-linecap:round;stroke-linejoin:round;stroke-miterlimit:4;stroke-dasharray:2.8, 1.8;stroke-dashoffset:0;stroke-opacity:1"
       id="path167512" />
    <path
       d="m 312.589,538.612 c 1.197,-1.597 4.125,-5.378 11.552,-3.058 7.427,2.32 16.246,4.874 19.961,6.963 3.714,2.089 7.891,5.57 13.23,2.089 5.339,-3.482 24.138,-17.641 32.727,-20.426"
       style="fill:none;stroke:#231f20;stroke-width:0.5;stroke-linecap:round;stroke-linejoin:round;stroke-miterlimit:4;stroke-dasharray:2.8, 1.8;stroke-dashoffset:0;stroke-opacity:1"
       id="path167514" />
    <path
       d="m 324.989,535.818 c 0,0 1.334,-6.758 1.473,-8.62"
       style="fill:none;stroke:#231f20;stroke-width:0.5;stroke-linecap:round;stroke-linejoin:round;stroke-miterlimit:4;stroke-dasharray:2.8, 1.8;stroke-dashoffset:0;stroke-opacity:1"
       id="path167516" />
    <path
       d="m 405.244,504.004 c -3.715,-4.874 -11.239,-6.513 -18.434,-3.497 -7.196,3.016 -31.426,14.909 -35.635,17.963"
       style="fill:none;stroke:#231f20;stroke-width:0.5;stroke-linecap:round;stroke-linejoin:round;stroke-miterlimit:4;stroke-dasharray:2.8, 1.8;stroke-dashoffset:0;stroke-opacity:1"
       id="path167518" />
    <path
       d="m 361.279,507.236 c 9.515,-5.336 20.657,-10.676 31.101,-18.335 10.446,-7.66 23.443,-18.105 29.246,-25.299 5.803,-7.197 12.998,-16.715 18.8,-21.354 5.804,-4.644 23.211,-22.283 12.994,-29.486"
       style="fill:none;stroke:#231f20;stroke-width:0.5;stroke-linecap:round;stroke-linejoin:round;stroke-miterlimit:4;stroke-dasharray:2.8, 1.8;stroke-dashoffset:0;stroke-opacity:1"
       id="path167520" />
    <path
       d="m 452.497,413.001 c -3.482,4.178 -6.035,9.053 -9.052,15.088 -3.019,6.034 -7.66,13.696 -11.838,16.712 -4.178,3.017 -10.91,5.571 -13.695,8.819 -2.786,3.25 -15.55,16.249 -21.354,23.674 -5.803,7.429 -15.803,16.361 -13.124,17.582"
       style="fill:none;stroke:#231f20;stroke-width:0.5;stroke-linecap:round;stroke-linejoin:round;stroke-miterlimit:4;stroke-dasharray:2.8, 1.8;stroke-dashoffset:0;stroke-opacity:1"
       id="path167522" />
    <path
       d="m 409.798,475.178 c 4.865,-2.989 14.846,-9.49 21.809,-7.863 6.963,1.624 13.921,2.714 20.19,2.866 6.27,0.151 28.088,-2.17 36.909,-7.044 8.819,-4.875 11.836,-14.854 12.3,-19.728 0.464,-4.874 -4.281,-9.92 -11.374,-12.535 -8.252,-3.042 -25.861,-9.892 -34.632,-16.668 0,0 13.048,12.259 16.297,17.365 3.249,5.105 5.571,16.478 -1.392,21.352 -5.805,4.064 -12.07,1.858 -20.194,2.554 -8.125,0.696 -26.766,5.492 -32.648,13.075"
       style="fill:none;stroke:#231f20;stroke-width:0.5;stroke-linecap:round;stroke-linejoin:round;stroke-miterlimit:4;stroke-dasharray:2.8, 1.8;stroke-dashoffset:0;stroke-opacity:1"
       id="path167524" />
    <path
       d="m 428.808,514.162 c 8.601,0.967 17.654,5.377 26.474,8.393 8.819,3.018 23.21,7.892 31.101,4.178 7.893,-3.713 14.856,-14.157 11.838,-25.067 -3.017,-10.908 -14.858,-11.936 -19.033,-12.069 -7.194,-0.231 -14.621,0.696 -21.121,5.57 -6.499,4.875 -16.979,11.417 -19.282,13.252"
       style="fill:none;stroke:#231f20;stroke-width:0.5;stroke-linecap:round;stroke-linejoin:round;stroke-miterlimit:4;stroke-dasharray:2.8, 1.8;stroke-dashoffset:0;stroke-opacity:1"
       id="path167526" />
    <path
       d="m 361.933,541.432 c 8.165,-1.004 25.806,-4.485 30.447,-5.182 4.642,-0.696 14.623,-0.696 25.068,-1.857 10.445,-1.16 25.066,-8.354 24.138,-11.373 -0.927,-3.018 -10.444,-3.018 -21.586,-0.929 -11.14,2.089 -24.832,4.642 -28.78,6.267 -3.946,1.626 -14.16,6.5 -17.873,8.589 -3.713,2.089 -11.414,4.485 -11.414,4.485 z"
       style="fill:none;stroke:#231f20;stroke-width:0.5;stroke-linecap:round;stroke-linejoin:round;stroke-miterlimit:4;stroke-dasharray:2.8, 1.8;stroke-dashoffset:0;stroke-opacity:1"
       id="path167528" />
    <path
       d="m 440.818,522.005 c -1.61,-3.715 -2.654,-4.673 -4.539,-6.283"
       style="fill:none;stroke:#231f20;stroke-width:0.5;stroke-linecap:round;stroke-linejoin:round;stroke-miterlimit:4;stroke-dasharray:2.8, 1.8;stroke-dashoffset:0;stroke-opacity:1"
       id="path167530" />
    <path
       d="m 339.887,604.265 c -5.302,-3.025 -12.033,-9.06 -11.801,-15.559 0.233,-6.498 1.627,-16.712 6.733,-24.835 5.105,-8.123 8.847,-17.285 18.349,-17.81 9.503,-0.527 14.146,11.775 15.074,22.684 0.927,10.909 -6.536,29.974 -11.16,34.135"
       style="fill:none;stroke:#231f20;stroke-width:0.5;stroke-linecap:round;stroke-linejoin:round;stroke-miterlimit:4;stroke-dasharray:2.8, 1.8;stroke-dashoffset:0;stroke-opacity:1"
       id="path167532" />
    <path
       d="m 367.065,580.352 c -6.715,4.176 -21.387,10.576 -38.888,9.967"
       style="fill:none;stroke:#231f20;stroke-width:0.5;stroke-linecap:round;stroke-linejoin:round;stroke-miterlimit:4;stroke-dasharray:2.8, 1.8;stroke-dashoffset:0;stroke-opacity:1"
       id="path167534" />
    <path
       d="m 365.565,556.634 c -5.679,-2.975 -15.661,-2.745 -22.159,6.308 -6.498,9.052 -9.035,18.116 -8.579,27.278"
       style="fill:none;stroke:#231f20;stroke-width:0.5;stroke-linecap:round;stroke-linejoin:round;stroke-miterlimit:4;stroke-dasharray:2.8, 1.8;stroke-dashoffset:0;stroke-opacity:1"
       id="path167536" />
    <path
       d="m 364.847,588.04 c 10.821,-4.44 22.195,-16.046 19.642,-22.777 -2.553,-6.73 -12.002,-6.295 -17.374,-3.612"
       style="fill:none;stroke:#231f20;stroke-width:0.5;stroke-linecap:round;stroke-linejoin:round;stroke-miterlimit:4;stroke-dasharray:2.8, 1.8;stroke-dashoffset:0;stroke-opacity:1"
       id="path167538" />
    <path
       d="m 328.958,593.139 c 0.521,3.922 -1.701,9.487 -5.928,11.464"
       style="fill:none;stroke:#231f20;stroke-width:0.5;stroke-linecap:round;stroke-linejoin:round;stroke-miterlimit:4;stroke-dasharray:2.8, 1.8;stroke-dashoffset:0;stroke-opacity:1"
       id="path167540" />
    <path
       d="m 373.116,711.027 c -7.916,-0.311 -23.908,-5.804 -28.085,-9.982 -2.089,-2.088 -1.858,-0.23 -0.233,2.322 1.625,2.552 11.605,9.516 23.675,11.141 12.07,1.625 20.891,0.465 24.14,-0.696 3.249,-1.161 6.964,-1.394 3.945,1.856 -3.017,3.25 -8.819,6.963 -14.622,10.213 -5.804,3.25 -14.623,9.052 -22.282,9.052 -7.66,0 -12.998,-4.178 -17.408,-6.267 -4.412,-2.088 -11.607,-5.569 -16.248,-7.195 -4.642,-1.625 -11.605,-7.891 -14.391,-10.213 -2.785,-2.32 -10.676,-12.301 -11.837,-11.837 -1.161,0.464 -1.624,3.946 4.41,11.141 6.034,7.195 17.177,15.551 22.282,16.943 5.106,1.394 14.391,6.035 21.354,10.213 6.963,4.179 10.478,6.029 21.586,1.625 13.463,-5.338 27.638,-17.001 32.96,-21.121 7.194,-5.571 3.966,-11.036 -2.534,-9.875 -6.499,1.16 -14.874,3.144 -26.712,2.68"
       style="fill:#b2b1b1;fill-opacity:1;fill-rule:nonzero;stroke:none;stroke-width:0.1"
       id="path167542" />
    <path
       d="m 373.116,711.027 c -7.916,-0.311 -23.908,-5.804 -28.085,-9.982 -2.089,-2.088 -1.858,-0.23 -0.233,2.322 1.625,2.552 11.605,9.516 23.675,11.141 12.07,1.625 20.891,0.465 24.14,-0.696 3.249,-1.161 6.964,-1.394 3.945,1.856 -3.017,3.25 -8.819,6.963 -14.622,10.213 -5.804,3.25 -14.623,9.052 -22.282,9.052 -7.66,0 -12.998,-4.178 -17.408,-6.267 -4.412,-2.088 -11.607,-5.569 -16.248,-7.195 -4.642,-1.625 -11.605,-7.891 -14.391,-10.213 -2.785,-2.32 -10.676,-12.301 -11.837,-11.837 -1.161,0.464 -1.624,3.946 4.41,11.141 6.034,7.195 17.177,15.551 22.282,16.943 5.106,1.394 14.391,6.035 21.354,10.213 6.963,4.179 10.478,6.029 21.586,1.625 13.463,-5.338 27.638,-17.001 32.96,-21.121 7.194,-5.571 3.966,-11.036 -2.534,-9.875 -6.499,1.16 -14.874,3.144 -26.712,2.68 z"
       style="fill:none;stroke:#231f20;stroke-width:0.5;stroke-linecap:round;stroke-linejoin:round;stroke-miterlimit:4;stroke-dasharray:2.8, 1.8;stroke-dashoffset:0;stroke-opacity:1"
       id="path167544" />
    <path
       d="m 300.498,699.702 c 5.539,2.505 15.288,7.842 22.947,11.789 7.659,3.945 18.483,9.436 27.304,10.597"
       style="fill:none;stroke:#231f20;stroke-width:0.5;stroke-linecap:round;stroke-linejoin:round;stroke-miterlimit:4;stroke-dasharray:2.8, 1.8;stroke-dashoffset:0;stroke-opacity:1"
       id="path167546" />
    <path
       d="m 529.453,630.95 c 0.335,1.856 -2.451,3.249 -6.861,3.713 -4.41,0.464 -13.23,-0.464 -20.193,-2.786 -6.963,-2.32 -17.616,-10.255 -18.081,-16.522"
       style="fill:none;stroke:#231f20;stroke-width:0.5;stroke-linecap:round;stroke-linejoin:round;stroke-miterlimit:4;stroke-dasharray:2.8, 1.8;stroke-dashoffset:0;stroke-opacity:1"
       id="path167548" />
    <path
       d="m 503.58,620.718 c -5.107,-0.696 -22.303,-3.464 -24.856,-10.89 -2.553,-7.427 -1.624,-16.016 6.499,-16.248 8.124,-0.232 9.749,0.232 11.606,5.57"
       style="fill:none;stroke:#231f20;stroke-width:0.5;stroke-linecap:round;stroke-linejoin:round;stroke-miterlimit:4;stroke-dasharray:2.8, 1.8;stroke-dashoffset:2.25;stroke-opacity:1"
       id="path167550" />
    <path
       d="m 486.388,593.552 c -2.114,0.101 -6.271,-0.204 -9.056,-4.614 -2.786,-4.41 -4.642,-9.284 0.928,-18.568 6.206,-10.344 13.229,-9.981 15.551,-9.285 2.321,0.697 4.875,2.786 5.339,8.82"
       style="fill:none;stroke:#231f20;stroke-width:0.5;stroke-linecap:round;stroke-linejoin:round;stroke-miterlimit:4;stroke-dasharray:2.8, 1.8;stroke-dashoffset:0;stroke-opacity:1"
       id="path167552" />
    <path
       d="m 496.365,578.726 c 0.64,-4.232 3.017,-11.374 8.355,-18.337 5.338,-6.963 10.445,-11.605 15.319,-9.285 4.875,2.322 9.052,10.91 7.196,19.73 -1.858,8.82 -7.982,18.509 -11.984,20.918 -3.569,2.146 -10.763,1.393 -14.477,-1.189 -2.806,-1.95 -5.569,-4.178 -4.409,-11.837 z"
       style="fill:none;stroke:#231f20;stroke-width:0.5;stroke-linecap:round;stroke-linejoin:round;stroke-miterlimit:4;stroke-dasharray:2.8, 1.8;stroke-dashoffset:5.5038;stroke-opacity:1"
       id="path167554" />
    <path
       d="m 496.274,583.617 c -0.838,3.696 -4.548,10.173 -7.575,9.926"
       style="fill:none;stroke:#231f20;stroke-width:0.5;stroke-linecap:round;stroke-linejoin:round;stroke-miterlimit:4;stroke-dasharray:2.8, 1.8;stroke-dashoffset:2;stroke-opacity:1"
       id="path167556" />
    <path
       d="m 503.334,535.078 c 0.598,0.67 1.359,1.156 2.314,1.404 5.34,1.392 13.462,-0.463 17.872,-8.588 2.982,-5.492 7.428,-26.228 -1.624,-29.941 -5.149,-2.114 -7.37,-0.621 -8.499,1.316"
       style="fill:none;stroke:#231f20;stroke-width:0.5;stroke-linecap:round;stroke-linejoin:round;stroke-miterlimit:4;stroke-dasharray:2.8, 1.8;stroke-dashoffset:0;stroke-opacity:1"
       id="path167558" />
    <path
       d="m 255.576,354.456 c -4.642,17.639 6.129,29.765 14.485,34.174 8.355,4.41 21.69,0.229 29.013,-3.25 9.284,-4.409 21.122,-12.069 23.211,-17.871 2.089,-5.803 3.713,-11.605 -5.803,-16.014 -9.517,-4.413 -25.301,-3.716 -37.834,-2.555 -12.534,1.162 -23.906,3.019 -29.709,11.606 -5.804,8.587 -6.732,12.303 -7.893,15.32 -1.16,3.016 -7.194,11.835 -14.157,6.498 -6.964,-5.34 -16.248,-13.927 -27.389,-13.461 -11.141,0.462 -16.015,4.871 -22.283,9.979 -6.266,5.106 -12.765,13.23 -14.159,16.246 -1.392,3.02 4.644,8.125 9.053,10.911 4.409,2.785 17.873,8.587 26.925,10.444 9.052,1.858 16.248,2.786 20.889,4.643 4.642,1.855 8.589,6.034 17.409,3.248 8.819,-2.786 18.09,-6.555 21.927,-7.456"
       style="fill:none;stroke:#231f20;stroke-width:0.5;stroke-linecap:round;stroke-linejoin:round;stroke-miterlimit:4;stroke-dasharray:2.8, 1.8;stroke-dashoffset:0;stroke-opacity:1"
       id="path167560" />
    <path
       d="m 274.676,390.17 c -4.151,0.781 -9.026,3.334 -6.241,8.674 2.786,5.337 5.54,8.277 5.185,11.549"
       style="fill:none;stroke:#231f20;stroke-width:0.5;stroke-linecap:round;stroke-linejoin:round;stroke-miterlimit:4;stroke-dasharray:2.8, 1.8;stroke-dashoffset:0;stroke-opacity:1"
       id="path167562" />
    <path
       d="m 269.219,400.289 c -5.658,-0.983 -20.338,-2.174 -36.324,-16.432"
       style="fill:none;stroke:#231f20;stroke-width:0.5;stroke-linecap:round;stroke-linejoin:round;stroke-miterlimit:4;stroke-dasharray:2.8, 1.8;stroke-dashoffset:0;stroke-opacity:1"
       id="path167564" />
    <path
       d="m 232.449,425.286 c 0.938,2.107 -2.335,4.101 -5.096,4.892 -3.251,0.931 -7.428,2.089 -11.374,-0.233 -3.972,-2.337 -6.868,-10.883 5.27,-8.226"
       style="fill:none;stroke:#231f20;stroke-width:0.5;stroke-linecap:round;stroke-linejoin:round;stroke-miterlimit:4;stroke-dasharray:2.8, 1.8;stroke-dashoffset:0;stroke-opacity:1"
       id="path167566" />
    <path
       d="m 140.99,470.17 c 1.412,-7.033 3.037,-14.693 8.375,-26.996 5.338,-12.3 12.301,-27.852 14.623,-32.726 2.321,-4.874 3.36,-8.432 1.099,-10.135 -2.259,-1.703 -6.671,2.706 -8.992,8.511 -2.32,5.802 -9.283,22.978 -13.461,33.888 -4.177,10.908 -6.948,18.744 -8.812,25.503"
       style="fill:none;stroke:#231f20;stroke-width:0.5;stroke-linecap:round;stroke-linejoin:round;stroke-miterlimit:4;stroke-dasharray:2.8, 1.8;stroke-dashoffset:0;stroke-opacity:1"
       id="path167568" />
    <path
       d="m 465.825,678.996 c -2.42,-4.874 -9.062,-9.893 -24.194,-1.929"
       style="fill:none;stroke:#231f20;stroke-width:0.5;stroke-linecap:round;stroke-linejoin:round;stroke-miterlimit:4;stroke-dasharray:2.8, 1.8;stroke-dashoffset:0;stroke-opacity:1"
       id="path167570" />
    <path
       d="m 218.518,525.721 -5.951,2.429"
       style="fill:none;stroke:#231f20;stroke-width:0.5;stroke-linecap:round;stroke-linejoin:round;stroke-miterlimit:4;stroke-dasharray:2.8, 1.8;stroke-dashoffset:0;stroke-opacity:1"
       id="path167572" />
    <path
       d="m 247.779,687.12 -3.363,0.464"
       style="fill:none;stroke:#231f20;stroke-width:0.5;stroke-linecap:round;stroke-linejoin:round;stroke-miterlimit:4;stroke-dasharray:2.8, 1.8;stroke-dashoffset:0;stroke-opacity:1"
       id="path167574" />
    <path
       d="m 547.66,615.398 c -3.947,0 -4.31,-2.502 -4.148,-6.722"
       style="fill:none;stroke:#231f20;stroke-width:0.5;stroke-linecap:round;stroke-linejoin:round;stroke-miterlimit:4;stroke-dasharray:2.8, 1.8;stroke-dashoffset:0;stroke-opacity:1"
       id="path167576" />
    <path
       d="m 536.49,608.676 c 0.161,4.22 -0.203,6.722 -4.15,6.722"
       style="fill:none;stroke:#231f20;stroke-width:0.5;stroke-linecap:round;stroke-linejoin:round;stroke-miterlimit:4;stroke-dasharray:2.8, 1.8;stroke-dashoffset:0;stroke-opacity:1"
       id="path167578" />
  </g>
</svg>
