<?xml version="1.0" encoding="UTF-8" standalone="no"?>
<!-- Created with Inkscape (http://www.inkscape.org/) -->

<svg
   version="1.1"
   id="svg182856"
   width="1440"
   height="1344"
   viewBox="0 0 1440 1344"
   xmlns="http://www.w3.org/2000/svg"
   xmlns:svg="http://www.w3.org/2000/svg">
  <defs
     id="defs182860" />
  <g
     id="g182864">
    <path
       d="m 540,371.803 c -11.6,0 -37.873,10.097 -37.873,21.586 0,11.489 32.415,17.408 37.873,17.408 5.46,0 37.874,-5.919 37.874,-17.408 0,-11.489 -26.273,-21.586 -37.874,-21.586"
       style="fill:#ffffff;fill-opacity:1;fill-rule:nonzero;stroke:none;stroke-width:0.1"
       id="path183524" />
    <path
       d="m 540,371.803 c -11.6,0 -37.873,10.097 -37.873,21.586 0,11.489 32.415,17.408 37.873,17.408 5.46,0 37.874,-5.919 37.874,-17.408 0,-11.489 -26.273,-21.586 -37.874,-21.586 z"
       style="fill:none;stroke:#231f20;stroke-width:0.75;stroke-linecap:round;stroke-linejoin:round;stroke-miterlimit:4;stroke-dasharray:none;stroke-opacity:1"
       id="path183526" />
    <path
       d="m 685.692,721.356 c 0,0 -2.366,-8.564 -1.365,-11.838 1.705,-5.57 18.764,-12.186 30.025,-16.711 0,0 -13.648,4.178 -18.425,3.133 -4.776,-1.044 -7.847,0.349 -13.306,2.785 -5.459,2.438 -20.472,8.704 -28.661,9.053 0,0 25.248,8.704 31.732,13.578 z M 567.295,420.894 c 0,-6.964 9.554,-9.749 15.355,-12.186 5.801,-2.437 13.307,-2.437 13.307,-2.437 0,0 4.435,-3.134 6.482,-4.178 2.047,-1.045 5.118,-1.045 5.118,-1.045 0,0 2.731,-2.785 8.19,-4.874 5.459,-2.089 16.035,-0.347 30.025,2.089 13.988,2.438 26.953,9.053 33.096,12.534 6.141,3.482 7.506,5.919 7.506,5.919 -0.682,3.829 4.094,3.482 4.094,3.482 4.437,2.785 12.623,13.926 12.623,13.926 0,0 -6.14,-12.186 -7.504,-17.756 -1.366,-5.571 0.681,-9.052 5.799,-11.49 5.119,-2.437 9.896,1.393 9.896,1.393 -4.437,-6.963 0.34,-16.712 11.259,-27.156 10.917,-10.446 19.448,-10.446 29.001,-12.534 9.553,-2.089 12.285,-4.178 17.061,-10.097 4.776,-5.918 22.176,-8.704 42.989,-7.659 20.814,1.045 22.862,3.83 32.414,9.748 9.553,5.919 21.496,9.4 27.638,10.445 6.143,1.044 20.471,3.83 31.732,9.748 11.258,5.919 17.06,11.489 33.437,30.986 16.377,19.498 29.684,52.573 31.049,66.151 1.126,11.218 -2.731,36.556 -3.754,43.52 -1.023,6.963 -1.705,9.748 0.34,12.882 2.049,3.133 4.096,6.267 9.555,14.275 5.459,8.007 7.505,22.282 7.848,61.972 0.34,39.691 -1.025,100.27 -30.366,154.235 -29.344,53.964 -93.147,101.314 -150.128,118.375 -50.864,15.228 -102.359,26.807 -155.244,26.807 -52.885,0 -71.993,-14.622 -87.005,-30.289 C 544.094,862.012 540,838.686 540,829.633 v -73.461 c 0,-3.481 3.753,-14.275 5.46,-21.586 1.705,-7.311 7.164,-22.978 29.001,-29.942 0,0 -8.188,-4.178 -8.188,-7.659 0,-3.482 3.754,-5.57 2.388,-9.401 -1.366,-3.83 -3.412,-6.266 -9.212,-9.749 -5.801,-3.481 -16.719,-10.793 -19.449,-10.793 -2.729,0 -13.647,7.312 -19.448,10.793 -5.801,3.483 -7.847,5.919 -9.213,9.749 -1.364,3.831 2.389,5.919 2.389,9.401 0,3.481 -8.188,7.659 -8.188,7.659 21.836,6.964 27.295,22.631 29.002,29.942 1.706,7.311 5.458,18.105 5.458,21.586 v 73.461 c 0,9.053 -4.094,32.379 -19.107,48.047 -15.013,15.667 -34.12,30.289 -87.005,30.289 -52.886,0 -104.38,-11.579 -155.244,-26.807 C 221.664,864.101 157.86,816.751 128.517,762.787 99.1738,708.822 97.8086,648.243 98.1504,608.552 c 0.341,-39.69 2.3886,-53.965 7.8476,-61.972 5.459,-8.008 7.506,-11.142 9.553,-14.275 2.047,-3.134 1.366,-5.919 0.341,-12.882 -1.023,-6.964 -4.88,-32.302 -3.753,-43.52 1.365,-13.578 14.672,-46.653 31.049,-66.151 16.378,-19.497 22.178,-25.067 33.438,-30.986 11.259,-5.918 25.589,-8.704 31.731,-9.748 6.142,-1.045 18.084,-4.526 27.637,-10.445 9.553,-5.918 11.601,-8.703 32.414,-9.748 20.812,-1.045 38.214,1.741 42.991,7.659 4.776,5.919 7.506,8.008 17.059,10.097 9.554,2.088 18.084,2.088 29.002,12.534 10.918,10.444 15.695,20.193 11.259,27.156 0,0 4.778,-3.83 9.895,-1.393 5.118,2.438 7.165,5.919 5.801,11.49 -1.366,5.57 -7.506,17.756 -7.506,17.756 0,0 8.188,-11.141 12.624,-13.926 0,0 4.776,0.347 4.093,-3.482 0,0 1.366,-2.437 7.507,-5.919 6.142,-3.481 19.107,-10.096 33.096,-12.534 13.989,-2.436 24.566,-4.178 30.025,-2.089 5.459,2.089 8.189,4.874 8.189,4.874 0,0 3.071,0 5.118,1.045 2.047,1.044 6.482,4.178 6.482,4.178 0,0 7.507,0 13.308,2.437 5.8,2.437 15.354,5.222 15.354,12.186 0,3.829 7.506,12.882 27.295,12.882 19.79,0 27.295,-9.053 27.295,-12.882 z M 426.041,707.778 c -8.189,-0.349 -23.203,-6.615 -28.662,-9.053 -5.459,-2.436 -8.529,-3.829 -13.305,-2.785 -4.778,1.045 -18.425,-3.133 -18.425,-3.133 11.26,4.525 28.319,11.141 30.024,16.711 1.003,3.274 -1.364,11.838 -1.364,11.838 6.483,-4.874 31.732,-13.578 31.732,-13.578"
       style="fill:#ffffff;fill-opacity:1;fill-rule:nonzero;stroke:none;stroke-width:0.1"
       id="path183528" />
    <path
       d="m 685.692,721.356 c 0,0 -2.366,-8.564 -1.365,-11.838 1.705,-5.57 18.764,-12.186 30.025,-16.711 0,0 -13.648,4.178 -18.425,3.133 -4.776,-1.044 -7.847,0.349 -13.306,2.785 -5.459,2.438 -20.472,8.704 -28.661,9.053 0,0 25.248,8.704 31.732,13.578 z M 567.295,420.894 c 0,-6.964 9.554,-9.749 15.355,-12.186 5.801,-2.437 13.307,-2.437 13.307,-2.437 0,0 4.435,-3.134 6.482,-4.178 2.047,-1.045 5.118,-1.045 5.118,-1.045 0,0 2.731,-2.785 8.19,-4.874 5.459,-2.089 16.035,-0.347 30.025,2.089 13.988,2.438 26.953,9.053 33.096,12.534 6.141,3.482 7.506,5.919 7.506,5.919 -0.682,3.829 4.094,3.482 4.094,3.482 4.437,2.785 12.623,13.926 12.623,13.926 0,0 -6.14,-12.186 -7.504,-17.756 -1.366,-5.571 0.681,-9.052 5.799,-11.49 5.119,-2.437 9.896,1.393 9.896,1.393 -4.437,-6.963 0.34,-16.712 11.259,-27.156 10.917,-10.446 19.448,-10.446 29.001,-12.534 9.553,-2.089 12.285,-4.178 17.061,-10.097 4.776,-5.918 22.176,-8.704 42.989,-7.659 20.814,1.045 22.862,3.83 32.414,9.748 9.553,5.919 21.496,9.4 27.638,10.445 6.143,1.044 20.471,3.83 31.732,9.748 11.258,5.919 17.06,11.489 33.437,30.986 16.377,19.498 29.684,52.573 31.049,66.151 1.126,11.218 -2.731,36.556 -3.754,43.52 -1.023,6.963 -1.705,9.748 0.34,12.882 2.049,3.133 4.096,6.267 9.555,14.275 5.459,8.007 7.505,22.282 7.848,61.972 0.34,39.691 -1.025,100.27 -30.366,154.235 -29.344,53.964 -93.147,101.314 -150.128,118.375 -50.864,15.228 -102.359,26.807 -155.244,26.807 -52.885,0 -71.993,-14.622 -87.005,-30.289 C 544.094,862.012 540,838.686 540,829.633 v -73.461 c 0,-3.481 3.753,-14.275 5.46,-21.586 1.705,-7.311 7.164,-22.978 29.001,-29.942 0,0 -8.188,-4.178 -8.188,-7.659 0,-3.482 3.754,-5.57 2.388,-9.401 -1.366,-3.83 -3.412,-6.266 -9.212,-9.749 -5.801,-3.481 -16.719,-10.793 -19.449,-10.793 -2.729,0 -13.647,7.312 -19.448,10.793 -5.801,3.483 -7.847,5.919 -9.213,9.749 -1.364,3.831 2.389,5.919 2.389,9.401 0,3.481 -8.188,7.659 -8.188,7.659 21.836,6.964 27.295,22.631 29.002,29.942 1.706,7.311 5.458,18.105 5.458,21.586 v 73.461 c 0,9.053 -4.094,32.379 -19.107,48.047 -15.013,15.667 -34.12,30.289 -87.005,30.289 -52.886,0 -104.38,-11.579 -155.244,-26.807 C 221.664,864.101 157.86,816.751 128.517,762.787 99.1738,708.822 97.8086,648.243 98.1504,608.552 c 0.341,-39.69 2.3886,-53.965 7.8476,-61.972 5.459,-8.008 7.506,-11.142 9.553,-14.275 2.047,-3.134 1.366,-5.919 0.341,-12.882 -1.023,-6.964 -4.88,-32.302 -3.753,-43.52 1.365,-13.578 14.672,-46.653 31.049,-66.151 16.378,-19.497 22.178,-25.067 33.438,-30.986 11.259,-5.918 25.589,-8.704 31.731,-9.748 6.142,-1.045 18.084,-4.526 27.637,-10.445 9.553,-5.918 11.601,-8.703 32.414,-9.748 20.812,-1.045 38.214,1.741 42.991,7.659 4.776,5.919 7.506,8.008 17.059,10.097 9.554,2.088 18.084,2.088 29.002,12.534 10.918,10.444 15.695,20.193 11.259,27.156 0,0 4.778,-3.83 9.895,-1.393 5.118,2.438 7.165,5.919 5.801,11.49 -1.366,5.57 -7.506,17.756 -7.506,17.756 0,0 8.188,-11.141 12.624,-13.926 0,0 4.776,0.347 4.093,-3.482 0,0 1.366,-2.437 7.507,-5.919 6.142,-3.481 19.107,-10.096 33.096,-12.534 13.989,-2.436 24.566,-4.178 30.025,-2.089 5.459,2.089 8.189,4.874 8.189,4.874 0,0 3.071,0 5.118,1.045 2.047,1.044 6.482,4.178 6.482,4.178 0,0 7.507,0 13.308,2.437 5.8,2.437 15.354,5.222 15.354,12.186 0,3.829 7.506,12.882 27.295,12.882 19.79,0 27.295,-9.053 27.295,-12.882 z M 426.041,707.778 c -8.189,-0.349 -23.203,-6.615 -28.662,-9.053 -5.459,-2.436 -8.529,-3.829 -13.305,-2.785 -4.778,1.045 -18.425,-3.133 -18.425,-3.133 11.26,4.525 28.319,11.141 30.024,16.711 1.003,3.274 -1.364,11.838 -1.364,11.838 6.483,-4.874 31.732,-13.578 31.732,-13.578 z"
       style="fill:none;stroke:#231f20;stroke-width:0.75;stroke-linecap:round;stroke-linejoin:round;stroke-miterlimit:4;stroke-dasharray:none;stroke-opacity:1"
       id="path183530" />
    <path
       d="m 552.624,731.113 c 0.682,-3.838 3.753,-10.106 6.484,-9.061 4.55,1.741 0,6.151 -0.368,9.213"
       style="fill:#b2b1b1;fill-opacity:1;fill-rule:nonzero;stroke:none;stroke-width:0.1"
       id="path183532" />
    <path
       d="m 527.376,731.113 c -0.682,-3.838 -3.753,-10.106 -6.483,-9.061 -4.549,1.741 0,6.151 0.368,9.213"
       style="fill:#b2b1b1;fill-opacity:1;fill-rule:nonzero;stroke:none;stroke-width:0.1"
       id="path183534" />
    <path
       d="m 692.003,417.064 c 0,-1.635 -1.298,-2.959 -2.9,-2.959 -1.603,0 -2.9,1.324 -2.9,2.959 0,1.635 1.297,2.959 2.9,2.959 1.602,0 2.9,-1.324 2.9,-2.959"
       style="fill:#ffffff;fill-opacity:1;fill-rule:nonzero;stroke:none;stroke-width:0.1"
       id="path183536" />
    <path
       d="m 692.003,417.064 c 0,-1.635 -1.298,-2.959 -2.9,-2.959 -1.603,0 -2.9,1.324 -2.9,2.959 0,1.635 1.297,2.959 2.9,2.959 1.602,0 2.9,-1.324 2.9,-2.959 z"
       style="fill:none;stroke:#231f20;stroke-width:0.5;stroke-linecap:butt;stroke-linejoin:miter;stroke-miterlimit:4;stroke-dasharray:none;stroke-opacity:1"
       id="path183538" />
    <path
       d="m 574.461,704.644 c 5.801,1.393 14.331,2.785 18.424,2.785 4.095,0 13.989,0.349 18.426,-0.347 4.436,-0.697 5.459,-3.831 15.694,-2.786 10.237,1.044 23.922,3.201 27.674,3.548"
       style="fill:none;stroke:#231f20;stroke-width:0.75;stroke-linecap:round;stroke-linejoin:round;stroke-miterlimit:4;stroke-dasharray:none;stroke-opacity:1"
       id="path183540" />
    <path
       d="m 714.352,692.807 c 7.429,-3.065 19.448,-9.749 26.954,-12.185 7.506,-2.438 18.767,-6.616 22.178,-7.661 3.412,-1.044 8.189,-3.132 10.918,-8.355 2.73,-5.223 8.872,-20.193 10.918,-35.513 2.048,-15.318 0,-32.379 0,-37.949 0,-5.57 -0.683,-16.016 -1.705,-21.586"
       style="fill:none;stroke:#231f20;stroke-width:0.75;stroke-linecap:round;stroke-linejoin:round;stroke-miterlimit:4;stroke-dasharray:none;stroke-opacity:1"
       id="path183542" />
    <path
       d="m 753.249,511.067 c -5.119,-10.097 -17.744,-32.03 -22.861,-40.038 -5.118,-8.008 -11.942,-19.497 -13.989,-22.63 -2.047,-3.134 -5.117,-5.223 -7.849,-5.571 -2.727,-0.348 -3.292,-4.237 -5.459,-8.704"
       style="fill:none;stroke:#231f20;stroke-width:0.75;stroke-linecap:round;stroke-linejoin:round;stroke-miterlimit:4;stroke-dasharray:none;stroke-opacity:1"
       id="path183544" />
    <path
       d="m 783.615,569.558 c 0,0 1.365,-16.712 -3.754,-25.067 -5.116,-8.356 -23.542,-28.549 -26.612,-33.424 0,0 11.942,19.497 14.671,28.201 0,0 7.85,7.852 10.236,11.838 3.753,6.267 5.459,18.452 5.459,18.452 z"
       style="fill:none;stroke:#231f20;stroke-width:0.75;stroke-linecap:round;stroke-linejoin:round;stroke-miterlimit:4;stroke-dasharray:none;stroke-opacity:1"
       id="path183546" />
    <path
       d="M 540,606.463 V 563.292"
       style="fill:none;stroke:#231f20;stroke-width:0.75;stroke-linecap:round;stroke-linejoin:round;stroke-miterlimit:4;stroke-dasharray:none;stroke-opacity:1"
       id="path183548" />
    <path
       d="m 544.5,738.337 c 0.448,2.69 5.736,5.649 10.172,6.694 4.436,1.045 12.966,4.874 25.248,18.104 12.283,13.23 21.155,22.979 26.272,34.468 5.119,11.489 7.507,27.505 22.861,27.156 15.355,-0.347 54.933,-4.177 93.829,-11.14 38.896,-6.964 91.782,-28.55 120.784,-54.661 29.002,-26.113 56.639,-76.25 60.05,-127.427 3.41,-51.179 1.023,-105.145 -3.071,-126.731 -4.094,-21.586 -12.623,-60.58 -45.038,-76.247 -32.414,-15.667 -96.559,-41.43 -98.605,-35.86 -2.048,5.57 23.542,11.141 31.732,14.274 8.186,3.134 39.918,14.275 53.907,21.586 13.989,7.312 29.003,15.32 38.556,36.209 9.553,20.89 13.989,30.29 15.694,63.017 1.706,32.727 1.706,59.535 -9.552,104.099 -12.148,48.082 -22.862,77.292 -51.179,106.886 -28.322,29.594 -83.594,55.009 -110.549,58.143 -26.954,3.134 -50.154,-4.178 -56.639,-18.105 -6.482,-13.927 -13.989,-34.119 -32.072,-37.601 -18.082,-3.482 -54.934,-7.392 -63.123,-8.785"
       style="fill:none;stroke:#231f20;stroke-width:0.5;stroke-linecap:butt;stroke-linejoin:miter;stroke-miterlimit:4;stroke-dasharray:none;stroke-opacity:1"
       id="path183550" />
    <path
       d="m 568.155,752.215 c 16.543,11.964 28.825,20.668 37.013,32.158 8.189,11.489 26.614,35.86 52.886,34.12"
       style="fill:none;stroke:#231f20;stroke-width:0.5;stroke-linecap:butt;stroke-linejoin:miter;stroke-miterlimit:4;stroke-dasharray:none;stroke-opacity:1"
       id="path183552" />
    <path
       d="m 545.46,734.586 c 0.935,-3.396 4.093,-3.482 8.53,-3.482 4.435,0 12.707,0.71 16.377,1.045 3.416,0.311 5.119,-1.045 20.471,9.748 15.354,10.793 31.049,24.023 43.674,37.602 6.312,6.789 12.196,13.143 18.936,17.886"
       style="fill:none;stroke:#231f20;stroke-width:0.5;stroke-linecap:butt;stroke-linejoin:miter;stroke-miterlimit:4;stroke-dasharray:none;stroke-opacity:1"
       id="path183554" />
    <path
       d="m 653.448,797.385 c 6.738,4.744 14.33,7.877 24.054,8.226 19.449,0.696 35.825,-1.393 44.015,-2.438 16.377,-2.436 50.839,-11.837 88.71,-35.164 37.873,-23.326 62.441,-63.713 73.701,-107.233 11.258,-43.52 19.106,-66.151 16.377,-116.285 -2.73,-50.135 -5.802,-79.033 -31.049,-102.707 -25.25,-23.675 -100.653,-44.565 -112.254,-49.091 0,0 -14.245,-6.876 -12.879,-17.922"
       style="fill:none;stroke:#231f20;stroke-width:0.75;stroke-linecap:round;stroke-linejoin:round;stroke-miterlimit:4;stroke-dasharray:none;stroke-opacity:1"
       id="path183556" />
    <path
       d="m 578.034,733.93 c 10.075,1.7 28.003,6.195 34.3,7.724 6.716,1.63 15.695,3.029 23.543,6.858 7.848,3.83 12.625,9.401 16.717,21.238 4.096,11.837 11.262,28.201 24.908,30.987 13.649,2.785 27.638,4.874 44.015,2.436"
       style="fill:none;stroke:#231f20;stroke-width:0.5;stroke-linecap:butt;stroke-linejoin:miter;stroke-miterlimit:4;stroke-dasharray:none;stroke-opacity:1"
       id="path183558" />
    <path
       d="m 534.542,734.586 c -0.936,-3.396 -4.094,-3.482 -8.531,-3.482 -4.436,0 -12.708,0.71 -16.377,1.045 -3.416,0.311 -5.119,-1.045 -20.471,9.748 -15.354,10.793 -31.049,24.023 -43.674,37.602 -6.313,6.789 -12.197,13.143 -18.936,17.886"
       style="fill:none;stroke:#231f20;stroke-width:0.5;stroke-linecap:butt;stroke-linejoin:miter;stroke-miterlimit:4;stroke-dasharray:none;stroke-opacity:1"
       id="path183560" />
    <path
       d="m 426.553,797.385 c -6.739,4.744 -14.33,7.877 -24.054,8.226 -19.45,0.696 -35.826,-1.393 -44.015,-2.438 -16.377,-2.436 -50.84,-11.837 -88.71,-35.164 -37.873,-23.326 -62.44,-63.713 -73.701,-107.233 -11.258,-43.52 -19.106,-66.151 -16.377,-116.285 2.73,-50.135 5.802,-79.033 31.049,-102.707 25.249,-23.675 100.653,-44.565 112.254,-49.091 0,0 14.245,-6.876 12.878,-17.922"
       style="fill:none;stroke:#231f20;stroke-width:0.75;stroke-linecap:round;stroke-linejoin:round;stroke-miterlimit:4;stroke-dasharray:none;stroke-opacity:1"
       id="path183562" />
    <path
       d="m 501.966,733.93 c -10.074,1.7 -28.002,6.195 -34.298,7.724 -6.717,1.63 -15.697,3.029 -23.545,6.858 -7.847,3.83 -12.623,9.401 -16.717,21.238 -4.095,11.837 -11.261,28.201 -24.907,30.987 -13.649,2.785 -27.638,4.874 -44.015,2.436"
       style="fill:none;stroke:#231f20;stroke-width:0.5;stroke-linecap:butt;stroke-linejoin:miter;stroke-miterlimit:4;stroke-dasharray:none;stroke-opacity:1"
       id="path183564" />
    <path
       d="m 711.282,406.271 c 5.117,4.874 9.895,11.838 13.305,17.408 3.413,5.571 11.26,15.667 18.766,19.149 7.507,3.481 35.485,14.97 47.426,20.193 11.943,5.223 33.244,18.029 41.287,28.897 6.31,8.531 7.504,12.882 8.529,21.586 1.024,8.704 3.071,23.675 3.071,23.675"
       style="fill:none;stroke:#231f20;stroke-width:0.5;stroke-linecap:butt;stroke-linejoin:miter;stroke-miterlimit:4;stroke-dasharray:none;stroke-opacity:1"
       id="path183566" />
    <path
       d="m 568.607,691.045 c 7.788,2.806 18.706,6.289 25.303,7.449 6.595,1.16 20.454,5.338 27.53,5.65"
       style="fill:none;stroke:#231f20;stroke-width:0.5;stroke-linecap:butt;stroke-linejoin:miter;stroke-miterlimit:4;stroke-dasharray:none;stroke-opacity:1"
       id="path183568" />
    <path
       d="m 631.441,660.428 c 5.005,-1.625 20.195,-6.545 18.426,-13.23 -1.926,-7.268 -3.64,-17.408 -12.739,-16.016 -9.099,1.393 -24.112,4.642 -30.481,8.589 -6.369,3.945 -16.378,11.837 -15.467,15.782 0.911,3.947 5.231,8.821 10.918,9.053 5.688,0.231 14.103,0.929 19.108,-0.929 5.004,-1.856 10.235,-3.249 10.235,-3.249 z"
       style="fill:none;stroke:#231f20;stroke-width:0.5;stroke-linecap:butt;stroke-linejoin:miter;stroke-miterlimit:4;stroke-dasharray:none;stroke-opacity:1"
       id="path183570" />
    <path
       d="m 566.605,683.645 c 3.876,1.618 20.253,4.403 31.853,6.26 11.601,1.857 25.022,2.553 31.164,2.786 6.141,0.232 17.329,-0.092 20.699,-6.964 0.91,-1.856 -2.957,-2.553 -6.596,-2.553 -3.641,0 -12.056,-0.232 -22.292,-0.464 -10.236,-0.232 -18.651,-0.232 -28.661,-1.161 -10.008,-0.927 -24.926,-2.024 -23.039,3.05"
       style="fill:none;stroke:#231f20;stroke-width:0.5;stroke-linecap:butt;stroke-linejoin:miter;stroke-miterlimit:4;stroke-dasharray:none;stroke-opacity:1"
       id="path183572" />
    <path
       d="m 704.604,437.639 c 3.492,-3.283 8.494,0.856 4.515,5.285"
       style="fill:none;stroke:#231f20;stroke-width:0.5;stroke-linecap:butt;stroke-linejoin:miter;stroke-miterlimit:4;stroke-dasharray:none;stroke-opacity:1"
       id="path183574" />
    <path
       d="m 607.557,401.048 c 0,4.527 2.045,11.953 7.278,10.793 5.234,-1.16 13.875,-5.571 30.027,-0.928 16.15,4.643 26.384,9.75 38.895,19.265 12.511,9.517 20.017,16.944 27.979,27.388 7.961,10.445 15.241,22.284 15.469,31.103 0.225,8.82 -3.413,11.604 -4.323,13.461 -0.911,1.859 -3.414,8.589 1.82,13.231 5.232,4.642 13.419,9.517 17.06,11.374 3.639,1.856 7.053,1.39 7.961,-1.16 0.908,-2.555 0.68,-5.805 1.591,-7.429 0.912,-1.624 2.604,-5.787 1.536,-7.859"
       style="fill:none;stroke:#231f20;stroke-width:0.5;stroke-linecap:butt;stroke-linejoin:miter;stroke-miterlimit:4;stroke-dasharray:none;stroke-opacity:1"
       id="path183576" />
    <path
       d="m 567.295,420.894 c 0.229,3.249 4.323,4.643 7.28,3.714 2.957,-0.929 9.78,-4.874 13.648,-6.963 3.868,-2.089 12.055,-5.571 7.734,-11.374"
       style="fill:none;stroke:#231f20;stroke-width:0.5;stroke-linecap:butt;stroke-linejoin:miter;stroke-miterlimit:4;stroke-dasharray:none;stroke-opacity:1"
       id="path183578" />
    <path
       d="m 551.563,432.558 c -1.972,0.408 -3.374,6.903 -2.235,10.618 1.134,3.714 3.597,9.017 8.831,9.017 5.229,0 10.417,-2.837 11.868,-9.481 1.19,-5.456 3.067,-13.197 -10.407,-13.098"
       style="fill:none;stroke:#231f20;stroke-width:0.5;stroke-linecap:butt;stroke-linejoin:miter;stroke-miterlimit:4;stroke-dasharray:none;stroke-opacity:1"
       id="path183580" />
    <path
       d="m 549.541,495.593 c 1.377,-9.941 0.171,-24.794 -0.513,-31.408"
       style="fill:none;stroke:#231f20;stroke-width:0.5;stroke-linecap:butt;stroke-linejoin:miter;stroke-miterlimit:4;stroke-dasharray:none;stroke-opacity:1"
       id="path183582" />
    <path
       d="m 616.374,462.94 c 5.686,3.541 21.664,13.427 26.668,17.837 5.004,4.411 17.06,13.929 20.471,17.64 3.413,3.713 7.961,9.982 5.914,12.535 -2.047,2.552 -7.28,3.017 -12.283,3.481 -5.004,0.464 -9.78,1.625 -15.468,-3.481 -5.687,-5.107 -15.694,-17.873 -23.655,-26.229 -7.962,-8.356 -13.647,-15.783 -15.694,-18.568 -2.049,-2.785 -5.688,-6.965 -2.958,-8.589 2.729,-1.624 6.915,-0.909 17.005,5.374 z"
       style="fill:none;stroke:#231f20;stroke-width:0.5;stroke-linecap:butt;stroke-linejoin:miter;stroke-miterlimit:4;stroke-dasharray:none;stroke-opacity:1"
       id="path183584" />
    <path
       d="m 767.92,539.268 c 0.454,2.785 0.68,5.107 -0.911,6.267 0,0 3.642,0.233 5.915,5.803 2.275,5.571 3.64,11.372 4.094,15.55 0.454,4.178 -0.908,11.373 -6.824,6.733 0,0 3.868,11.14 -0.226,19.264 18.877,16.247 7.277,49.206 5.685,53.616 -1.591,4.411 -7.05,16.48 -12.737,19.729 -5.688,3.249 -25.022,10.445 -36.168,14.855 -11.146,4.412 -21.154,5.338 -27.979,5.803 -6.822,0.464 -9.324,2.554 -12.965,4.643 -3.64,2.089 -14.784,6.963 -22.746,9.284 -7.96,2.32 -20.016,1.624 -21.153,-1.857 -1.137,-3.482 1.592,-6.267 5.555,-9.848"
       style="fill:none;stroke:#231f20;stroke-width:0.5;stroke-linecap:butt;stroke-linejoin:miter;stroke-miterlimit:4;stroke-dasharray:none;stroke-opacity:1"
       id="path183586" />
    <path
       d="m 672.613,708.706 c 0,-1.794 -1.427,-3.249 -3.186,-3.249 -1.759,0 -3.186,1.455 -3.186,3.249 0,1.794 1.427,3.249 3.186,3.249 1.759,0 3.186,-1.455 3.186,-3.249"
       style="fill:#ffffff;fill-opacity:1;fill-rule:nonzero;stroke:none;stroke-width:0.1"
       id="path183588" />
    <path
       d="m 672.613,708.706 c 0,-1.794 -1.427,-3.249 -3.186,-3.249 -1.759,0 -3.186,1.455 -3.186,3.249 0,1.794 1.427,3.249 3.186,3.249 1.759,0 3.186,-1.455 3.186,-3.249 z"
       style="fill:none;stroke:#231f20;stroke-width:0.5;stroke-linecap:butt;stroke-linejoin:miter;stroke-miterlimit:4;stroke-dasharray:none;stroke-opacity:1"
       id="path183590" />
    <path
       d="m 387.998,417.064 c 0,-1.635 1.297,-2.959 2.899,-2.959 1.603,0 2.9,1.324 2.9,2.959 0,1.635 -1.297,2.959 -2.9,2.959 -1.602,0 -2.899,-1.324 -2.899,-2.959"
       style="fill:#ffffff;fill-opacity:1;fill-rule:nonzero;stroke:none;stroke-width:0.1"
       id="path183592" />
    <path
       d="m 387.998,417.064 c 0,-1.635 1.297,-2.959 2.899,-2.959 1.603,0 2.9,1.324 2.9,2.959 0,1.635 -1.297,2.959 -2.9,2.959 -1.602,0 -2.899,-1.324 -2.899,-2.959 z"
       style="fill:none;stroke:#231f20;stroke-width:0.5;stroke-linecap:butt;stroke-linejoin:miter;stroke-miterlimit:4;stroke-dasharray:none;stroke-opacity:1"
       id="path183594" />
    <path
       d="m 505.54,704.644 c -5.801,1.393 -14.332,2.785 -18.425,2.785 -4.095,0 -13.989,0.349 -18.425,-0.347 -4.436,-0.697 -5.459,-3.831 -15.695,-2.786 -10.236,1.044 -23.921,3.201 -27.674,3.548"
       style="fill:none;stroke:#231f20;stroke-width:0.75;stroke-linecap:round;stroke-linejoin:round;stroke-miterlimit:4;stroke-dasharray:none;stroke-opacity:1"
       id="path183596" />
    <path
       d="m 365.649,692.807 c -7.429,-3.065 -19.448,-9.749 -26.954,-12.185 -7.507,-2.438 -18.767,-6.616 -22.179,-7.661 -3.411,-1.044 -8.188,-3.132 -10.918,-8.355 -2.729,-5.223 -8.871,-20.193 -10.918,-35.513 -2.048,-15.318 0,-32.379 0,-37.949 0,-5.57 0.682,-16.016 1.705,-21.586"
       style="fill:none;stroke:#231f20;stroke-width:0.75;stroke-linecap:round;stroke-linejoin:round;stroke-miterlimit:4;stroke-dasharray:none;stroke-opacity:1"
       id="path183598" />
    <path
       d="m 326.752,511.067 c 5.118,-10.097 17.743,-32.03 22.861,-40.038 5.117,-8.008 11.941,-19.497 13.988,-22.63 2.048,-3.134 5.118,-5.223 7.849,-5.571 2.729,-0.348 3.293,-4.237 5.459,-8.704"
       style="fill:none;stroke:#231f20;stroke-width:0.75;stroke-linecap:round;stroke-linejoin:round;stroke-miterlimit:4;stroke-dasharray:none;stroke-opacity:1"
       id="path183600" />
    <path
       d="m 296.385,569.558 c 0,0 -1.364,-16.712 3.754,-25.067 5.117,-8.356 23.542,-28.549 26.613,-33.424 0,0 -11.942,19.497 -14.671,28.201 0,0 -7.849,7.852 -10.237,11.838 -3.753,6.267 -5.459,18.452 -5.459,18.452 z"
       style="fill:none;stroke:#231f20;stroke-width:0.75;stroke-linecap:round;stroke-linejoin:round;stroke-miterlimit:4;stroke-dasharray:none;stroke-opacity:1"
       id="path183602" />
    <path
       d="m 535.5,738.337 c -0.448,2.69 -5.736,5.649 -10.171,6.694 -4.436,1.045 -12.966,4.874 -25.248,18.104 -12.284,13.23 -21.155,22.979 -26.273,34.468 -5.118,11.489 -7.506,27.505 -22.86,27.156 -15.354,-0.347 -54.933,-4.177 -93.829,-11.14 -38.897,-6.964 -91.783,-28.55 -120.784,-54.661 -29.001,-26.113 -56.64,-76.25 -60.05,-127.427 -3.411,-51.179 -1.024,-105.145 3.071,-126.731 4.094,-21.586 12.624,-60.58 45.037,-76.247 32.414,-15.667 96.559,-41.43 98.607,-35.86 2.046,5.57 -23.543,11.141 -31.732,14.274 -8.188,3.134 -39.92,14.275 -53.909,21.586 -13.989,7.312 -29.002,15.32 -38.556,36.209 -9.553,20.89 -13.988,30.29 -15.695,63.017 -1.706,32.727 -1.706,59.535 9.554,104.099 12.149,48.082 22.86,77.292 51.179,106.886 28.32,29.594 83.593,55.009 110.548,58.143 26.955,3.134 50.156,-4.178 56.639,-18.105 6.482,-13.927 13.989,-34.119 32.072,-37.601 18.083,-3.482 54.934,-7.392 63.123,-8.785"
       style="fill:none;stroke:#231f20;stroke-width:0.5;stroke-linecap:butt;stroke-linejoin:miter;stroke-miterlimit:4;stroke-dasharray:none;stroke-opacity:1"
       id="path183604" />
    <path
       d="m 511.845,752.215 c -16.542,11.964 -28.825,20.668 -37.013,32.158 -8.189,11.489 -26.614,35.86 -52.886,34.12"
       style="fill:none;stroke:#231f20;stroke-width:0.5;stroke-linecap:butt;stroke-linejoin:miter;stroke-miterlimit:4;stroke-dasharray:none;stroke-opacity:1"
       id="path183606" />
    <path
       d="m 368.719,406.271 c -5.118,4.874 -9.894,11.838 -13.306,17.408 -3.413,5.571 -11.259,15.667 -18.766,19.149 -7.507,3.481 -35.484,14.97 -47.427,20.193 -11.941,5.223 -33.242,18.029 -41.285,28.897 -6.311,8.531 -7.506,12.882 -8.529,21.586 -1.024,8.704 -3.071,23.675 -3.071,23.675"
       style="fill:none;stroke:#231f20;stroke-width:0.5;stroke-linecap:butt;stroke-linejoin:miter;stroke-miterlimit:4;stroke-dasharray:none;stroke-opacity:1"
       id="path183608" />
    <path
       d="m 296.526,459.883 c -1.846,-3.825 -20.953,-13.574 -30.507,-9.744 -9.554,3.83 -26.272,17.756 -34.802,28.549 -8.53,10.793 -18.083,27.505 -13.989,71.722 4.095,44.215 8.53,63.365 15.013,87.736 6.482,24.371 17.059,51.876 35.484,73.81 18.425,21.934 39.92,36.556 59.709,42.823 19.79,6.267 26.273,4.875 40.604,-3.482 14.33,-8.355 34.461,-25.067 26.271,-29.941 0,0 0,-1.741 -6.482,2.785 -6.483,4.526 -29.343,18.105 -40.603,18.801 -11.26,0.696 -50.251,-3.767 -77.452,-41.431 -6.923,-9.588 -9.895,-15.668 -13.647,-32.031"
       style="fill:none;stroke:#231f20;stroke-width:0.5;stroke-linecap:butt;stroke-linejoin:miter;stroke-miterlimit:4;stroke-dasharray:none;stroke-opacity:1"
       id="path183610" />
    <path
       d="m 783.476,459.883 c 1.844,-3.825 20.952,-13.574 30.505,-9.744 9.555,3.83 26.272,17.756 34.802,28.549 8.53,10.793 18.086,27.505 13.989,71.722 -4.094,44.215 -8.53,63.365 -15.012,87.736 -6.481,24.371 -17.059,51.876 -35.485,73.81 -18.425,21.934 -39.919,36.556 -59.709,42.823 -19.79,6.267 -26.272,4.875 -40.602,-3.482 -14.332,-8.355 -34.462,-25.067 -26.272,-29.941 0,0 0,-1.741 6.481,2.785 6.484,4.526 29.344,18.105 40.603,18.801 11.26,0.696 50.254,-3.767 77.451,-41.431 6.925,-9.588 9.896,-15.668 13.649,-32.031"
       style="fill:none;stroke:#231f20;stroke-width:0.5;stroke-linecap:butt;stroke-linejoin:miter;stroke-miterlimit:4;stroke-dasharray:none;stroke-opacity:1"
       id="path183612" />
    <path
       d="m 511.393,691.045 c -7.788,2.806 -18.706,6.289 -25.302,7.449 -6.595,1.16 -20.454,5.338 -27.53,5.65"
       style="fill:none;stroke:#231f20;stroke-width:0.5;stroke-linecap:butt;stroke-linejoin:miter;stroke-miterlimit:4;stroke-dasharray:none;stroke-opacity:1"
       id="path183614" />
    <path
       d="m 448.559,660.428 c -5.005,-1.625 -20.194,-6.545 -18.425,-13.23 1.925,-7.268 3.639,-17.408 12.739,-16.016 9.098,1.393 24.112,4.642 30.48,8.589 6.369,3.945 16.378,11.837 15.468,15.782 -0.91,3.947 -5.232,8.821 -10.918,9.053 -5.688,0.231 -14.103,0.929 -19.108,-0.929 -5.004,-1.856 -10.236,-3.249 -10.236,-3.249 z"
       style="fill:none;stroke:#231f20;stroke-width:0.5;stroke-linecap:butt;stroke-linejoin:miter;stroke-miterlimit:4;stroke-dasharray:none;stroke-opacity:1"
       id="path183616" />
    <path
       d="m 513.395,683.645 c -3.874,1.618 -20.252,4.403 -31.853,6.26 -11.6,1.857 -25.022,2.553 -31.163,2.786 -6.142,0.232 -17.329,-0.092 -20.699,-6.964 -0.91,-1.856 2.956,-2.553 6.597,-2.553 3.639,0 12.055,-0.232 22.291,-0.464 10.235,-0.232 18.65,-0.232 28.66,-1.161 10.009,-0.927 24.927,-2.024 23.04,3.05"
       style="fill:none;stroke:#231f20;stroke-width:0.5;stroke-linecap:butt;stroke-linejoin:miter;stroke-miterlimit:4;stroke-dasharray:none;stroke-opacity:1"
       id="path183618" />
    <path
       d="m 375.397,437.639 c -3.493,-3.283 -8.495,0.856 -4.516,5.285"
       style="fill:none;stroke:#231f20;stroke-width:0.5;stroke-linecap:butt;stroke-linejoin:miter;stroke-miterlimit:4;stroke-dasharray:none;stroke-opacity:1"
       id="path183620" />
    <path
       d="m 472.443,401.048 c 0,4.527 -2.045,11.953 -7.278,10.793 -5.233,-1.16 -13.874,-5.571 -30.026,-0.928 -16.15,4.643 -26.385,9.75 -38.896,19.265 -12.511,9.517 -20.016,16.944 -27.978,27.388 -7.962,10.445 -15.242,22.284 -15.469,31.103 -0.226,8.82 3.412,11.604 4.323,13.461 0.91,1.859 3.413,8.589 -1.82,13.231 -5.232,4.642 -13.42,9.517 -17.059,11.374 -3.641,1.856 -7.053,1.39 -7.962,-1.16 -0.909,-2.555 -0.681,-5.805 -1.592,-7.429 -0.91,-1.624 -2.604,-5.787 -1.535,-7.859"
       style="fill:none;stroke:#231f20;stroke-width:0.5;stroke-linecap:butt;stroke-linejoin:miter;stroke-miterlimit:4;stroke-dasharray:none;stroke-opacity:1"
       id="path183622" />
    <path
       d="m 512.705,420.894 c -0.228,3.249 -4.322,4.643 -7.279,3.714 -2.958,-0.929 -9.78,-4.874 -13.648,-6.963 -3.867,-2.089 -12.056,-5.571 -7.735,-11.374"
       style="fill:none;stroke:#231f20;stroke-width:0.5;stroke-linecap:butt;stroke-linejoin:miter;stroke-miterlimit:4;stroke-dasharray:none;stroke-opacity:1"
       id="path183624" />
    <path
       d="m 528.438,432.558 c 1.972,0.408 3.373,6.903 2.236,10.618 -1.136,3.714 -3.6,9.017 -8.831,9.017 -5.231,0 -10.418,-2.837 -11.868,-9.481 -1.191,-5.456 -3.069,-13.197 10.407,-13.098"
       style="fill:none;stroke:#231f20;stroke-width:0.5;stroke-linecap:butt;stroke-linejoin:miter;stroke-miterlimit:4;stroke-dasharray:none;stroke-opacity:1"
       id="path183626" />
    <path
       d="m 530.46,495.593 c -1.378,-9.941 -0.172,-24.794 0.512,-31.408"
       style="fill:none;stroke:#231f20;stroke-width:0.5;stroke-linecap:butt;stroke-linejoin:miter;stroke-miterlimit:4;stroke-dasharray:none;stroke-opacity:1"
       id="path183628" />
    <path
       d="m 502.445,587.084 c 2.445,11.153 10.26,22.976 15.945,27.85 3.592,3.079 9.555,4.644 12.284,6.268 2.73,1.626 0,3.017 -2.274,3.25 -2.276,0.231 -4.095,0.696 -6.597,0.927 -2.503,0.234 -12.055,1.161 -12.055,6.036 0,4.875 4.402,5.706 8.842,6.905 5.8,1.566 16.178,1.682 21.41,1.682 5.234,0 15.611,-0.116 21.41,-1.682 4.441,-1.199 8.843,-2.03 8.843,-6.905 0,-4.875 -9.553,-5.802 -12.054,-6.036 -2.504,-0.231 -4.323,-0.696 -6.598,-0.927 -2.273,-0.233 -5.003,-1.624 -2.273,-3.25 2.729,-1.624 8.692,-3.189 12.283,-6.268 5.684,-4.874 13.499,-16.697 15.944,-27.85"
       style="fill:none;stroke:#231f20;stroke-width:0.5;stroke-linecap:butt;stroke-linejoin:miter;stroke-miterlimit:4;stroke-dasharray:none;stroke-opacity:1"
       id="path183630" />
    <path
       d="m 522.447,519.759 c 0.01,0.237 0.023,0.473 0.039,0.708 0.682,10.446 -1.82,23.211 -7.962,33.888 -6.142,10.677 -9.922,18.939 -11.373,23.675 -2.275,7.428 0.911,11.837 -1.364,16.944 -1.787,4.009 -3.187,8.588 -3.641,10.908 -0.454,2.322 0.685,5.34 3.186,6.963 2.502,1.626 3.868,3.251 6.141,4.179 2.275,0.929 3.185,2.554 0.455,4.642 -2.73,2.089 -6.823,5.106 -6.596,8.124 0.226,3.018 2.5,4.411 5.002,5.571 2.504,1.159 5.947,1.663 5.459,4.874 -0.401,2.656 -1.591,4.875 -2.045,6.035 0,0 4.093,1.624 8.871,2.32 4.777,0.697 18.425,0.697 21.381,0.697 2.957,0 16.605,0 21.381,-0.697 4.778,-0.696 8.872,-2.32 8.872,-2.32 -0.454,-1.16 -1.644,-3.379 -2.046,-6.035 -0.487,-3.211 2.957,-3.715 5.459,-4.874 2.502,-1.16 4.776,-2.553 5.002,-5.571 0.228,-3.018 -3.866,-6.035 -6.596,-8.124 -2.729,-2.088 -1.819,-3.713 0.456,-4.642 2.273,-0.928 3.64,-2.553 6.14,-4.179 2.502,-1.623 3.64,-4.641 3.186,-6.963 -0.455,-2.32 -1.854,-6.899 -3.641,-10.908 -2.273,-5.107 0.911,-9.516 -1.364,-16.944 -1.451,-4.736 -5.231,-12.998 -11.373,-23.675 -6.141,-10.677 -8.642,-23.442 -7.96,-33.888 0.015,-0.235 0.028,-0.471 0.038,-0.71"
       style="fill:none;stroke:#231f20;stroke-width:0.5;stroke-linecap:butt;stroke-linejoin:miter;stroke-miterlimit:4;stroke-dasharray:none;stroke-opacity:1"
       id="path183632" />
    <path
       d="m 463.626,462.94 c -5.686,3.541 -21.663,13.427 -26.668,17.837 -5.003,4.411 -17.059,13.929 -20.471,17.64 -3.412,3.713 -7.96,9.982 -5.914,12.535 2.048,2.552 7.28,3.017 12.284,3.481 5.003,0.464 9.779,1.625 15.467,-3.481 5.687,-5.107 15.693,-17.873 23.656,-26.229 7.962,-8.356 13.647,-15.783 15.694,-18.568 2.048,-2.785 5.688,-6.965 2.958,-8.589 -2.729,-1.624 -6.915,-0.909 -17.006,5.374 z"
       style="fill:none;stroke:#231f20;stroke-width:0.5;stroke-linecap:butt;stroke-linejoin:miter;stroke-miterlimit:4;stroke-dasharray:none;stroke-opacity:1"
       id="path183634" />
    <path
       d="m 312.081,539.268 c -0.455,2.785 -0.681,5.107 0.91,6.267 0,0 -3.641,0.233 -5.915,5.803 -2.274,5.571 -3.64,11.372 -4.094,15.55 -0.455,4.178 0.909,11.373 6.824,6.733 0,0 -3.866,11.14 0.228,19.264 -18.88,16.247 -7.279,49.206 -5.688,53.616 1.592,4.411 7.053,16.48 12.739,19.729 5.687,3.249 25.021,10.445 36.167,14.855 11.147,4.412 21.155,5.338 27.979,5.803 6.823,0.464 9.325,2.554 12.965,4.643 3.64,2.089 14.785,6.963 22.745,9.284 7.961,2.32 20.017,1.624 21.154,-1.857 1.138,-3.482 -1.591,-6.267 -5.553,-9.848"
       style="fill:none;stroke:#231f20;stroke-width:0.5;stroke-linecap:butt;stroke-linejoin:miter;stroke-miterlimit:4;stroke-dasharray:none;stroke-opacity:1"
       id="path183636" />
    <path
       d="m 407.388,708.706 c 0,-1.794 1.426,-3.249 3.185,-3.249 1.761,0 3.186,1.455 3.186,3.249 0,1.794 -1.425,3.249 -3.186,3.249 -1.759,0 -3.185,-1.455 -3.185,-3.249"
       style="fill:#ffffff;fill-opacity:1;fill-rule:nonzero;stroke:none;stroke-width:0.1"
       id="path183638" />
    <path
       d="m 407.388,708.706 c 0,-1.794 1.426,-3.249 3.185,-3.249 1.761,0 3.186,1.455 3.186,3.249 0,1.794 -1.425,3.249 -3.186,3.249 -1.759,0 -3.185,-1.455 -3.185,-3.249 z"
       style="fill:none;stroke:#231f20;stroke-width:0.5;stroke-linecap:butt;stroke-linejoin:miter;stroke-miterlimit:4;stroke-dasharray:none;stroke-opacity:1"
       id="path183640" />
    <path
       d="m 556.522,509.292 c 3.041,-1.126 12.305,-1.259 16.915,0.498 4.266,1.626 8.645,5.107 13.193,13.926 4.55,8.822 1.274,31.395 -15.389,41.276"
       style="fill:none;stroke:#231f20;stroke-width:0.25;stroke-linecap:butt;stroke-linejoin:miter;stroke-miterlimit:4;stroke-dasharray:none;stroke-opacity:1"
       id="path183642" />
    <path
       d="m 523.479,509.292 c -3.041,-1.126 -12.306,-1.259 -16.916,0.498 -4.266,1.626 -8.645,5.107 -13.193,13.926 -4.549,8.822 -1.273,31.395 15.389,41.276"
       style="fill:none;stroke:#231f20;stroke-width:0.25;stroke-linecap:butt;stroke-linejoin:miter;stroke-miterlimit:4;stroke-dasharray:none;stroke-opacity:1"
       id="path183644" />
    <path
       d="m 783.141,685.687 c 4.137,-4.953 5.96,-8.198 10.709,-18.296 5.46,-11.605 15.469,-32.264 18.653,-50.599 3.186,-18.338 3.412,-35.048 1.366,-48.511 -2.048,-13.461 -5.688,-25.068 -11.601,-34.119 -5.914,-9.053 -15.469,-18.569 -22.747,-26.228 -7.279,-7.66 -19.791,-22.05 -24.567,-29.013 -4.777,-6.963 -17.97,-19.73 -22.746,-26.925 -4.778,-7.196 -0.42,-8.711 1.239,-7.857"
       style="fill:none;stroke:#231f20;stroke-width:0.5;stroke-linecap:round;stroke-linejoin:round;stroke-miterlimit:4;stroke-dasharray:2.8, 1.8;stroke-dashoffset:0;stroke-opacity:1"
       id="path183646" />
    <path
       d="m 721.082,455.985 c 2.71,-0.972 5.991,-1.745 9.306,2.51"
       style="fill:none;stroke:#231f20;stroke-width:0.5;stroke-linecap:round;stroke-linejoin:round;stroke-miterlimit:4;stroke-dasharray:2.8, 1.8;stroke-dashoffset:0;stroke-opacity:1"
       id="path183648" />
    <path
       d="m 783.028,685.772 c 1.285,-3.861 4.568,-15.975 7.069,-22.474 2.502,-6.499 9.554,-22.282 12.966,-35.976 3.411,-13.696 5.687,-27.389 5.459,-37.834 -0.228,-10.445 -1.137,-28.317 -5.686,-41.316 -4.549,-12.996 -12.51,-20.193 -17.969,-25.763 -5.459,-5.57 -10.918,-12.301 -14.558,-17.639 -3.641,-5.338 -14.332,-17.641 -19.108,-24.604 -4.777,-6.963 -11.584,-17.373 -15.24,-21.586 -3.653,-4.213 -7.504,-7.66 -8.87,-6.499 -1.365,1.16 1.597,4.669 3.184,6.499 4.731,6.071 13.876,18.104 20.7,27.621 6.823,9.515 12.738,15.784 18.424,24.139 5.686,8.356 15.468,19.033 22.292,26.692 6.823,7.659 11.145,36.441 10.689,55.705 -0.455,19.266 -7.049,40.852 -10.462,50.599 -3.412,9.749 -12.964,32.264 -17.515,41.083 -4.551,8.82 -14.561,13.705 -22.527,17.408 -4.996,2.322 -4.944,7.452 -0.166,6.755 12.008,-1.75 23.603,-13.95 29.29,-20.449 0.739,-0.843 1.409,-1.622 2.028,-2.361"
       style="fill:#b2b1b1;fill-opacity:1;fill-rule:nonzero;stroke:none;stroke-width:0.1"
       id="path183650" />
    <path
       d="m 783.028,685.772 c 1.285,-3.861 4.568,-15.975 7.069,-22.474 2.502,-6.499 9.554,-22.282 12.966,-35.976 3.411,-13.696 5.687,-27.389 5.459,-37.834 -0.228,-10.445 -1.137,-28.317 -5.686,-41.316 -4.549,-12.996 -12.51,-20.193 -17.969,-25.763 -5.459,-5.57 -10.918,-12.301 -14.558,-17.639 -3.641,-5.338 -14.332,-17.641 -19.108,-24.604 -4.777,-6.963 -11.584,-17.373 -15.24,-21.586 -3.653,-4.213 -7.504,-7.66 -8.87,-6.499 -1.365,1.16 1.597,4.669 3.184,6.499 4.731,6.071 13.876,18.104 20.7,27.621 6.823,9.515 12.738,15.784 18.424,24.139 5.686,8.356 15.468,19.033 22.292,26.692 6.823,7.659 11.145,36.441 10.689,55.705 -0.455,19.266 -7.049,40.852 -10.462,50.599 -3.412,9.749 -12.964,32.264 -17.515,41.083 -4.551,8.82 -14.561,13.705 -22.527,17.408 -4.996,2.322 -4.944,7.452 -0.166,6.755 12.008,-1.75 23.603,-13.95 29.29,-20.449 0.739,-0.843 1.409,-1.622 2.028,-2.361 z"
       style="fill:none;stroke:#231f20;stroke-width:0.5;stroke-linecap:round;stroke-linejoin:round;stroke-miterlimit:4;stroke-dasharray:2.8, 1.8;stroke-dashoffset:0;stroke-opacity:1"
       id="path183652" />
    <path
       d="m 296.86,685.687 c -4.138,-4.953 -5.96,-8.198 -10.71,-18.296 -5.459,-11.605 -15.467,-32.264 -18.652,-50.599 -3.186,-18.338 -3.413,-35.048 -1.366,-48.511 2.048,-13.461 5.688,-25.068 11.601,-34.119 5.914,-9.053 15.469,-18.569 22.747,-26.228 7.278,-7.66 19.79,-22.05 24.566,-29.013 4.777,-6.963 17.97,-19.73 22.746,-26.925 4.778,-7.196 0.421,-8.711 -1.238,-7.857"
       style="fill:none;stroke:#231f20;stroke-width:0.5;stroke-linecap:round;stroke-linejoin:round;stroke-miterlimit:4;stroke-dasharray:2.8, 1.8;stroke-dashoffset:0;stroke-opacity:1"
       id="path183654" />
    <path
       d="m 358.918,455.985 c -2.71,-0.972 -5.99,-1.745 -9.305,2.51"
       style="fill:none;stroke:#231f20;stroke-width:0.5;stroke-linecap:round;stroke-linejoin:round;stroke-miterlimit:4;stroke-dasharray:2.8, 1.8;stroke-dashoffset:0;stroke-opacity:1"
       id="path183656" />
    <path
       d="m 296.86,685.687 c -1.285,-3.861 -4.568,-15.975 -7.07,-22.474 -2.502,-6.499 -9.554,-22.282 -12.966,-35.976 -3.411,-13.695 -5.687,-27.389 -5.459,-37.834 0.227,-10.445 1.136,-28.317 5.686,-41.316 4.548,-12.996 12.511,-20.193 17.97,-25.763 5.459,-5.57 10.919,-12.301 14.558,-17.639 3.64,-5.338 14.331,-17.641 19.107,-24.604 4.777,-6.963 11.585,-17.373 15.239,-21.586 3.655,-4.213 7.506,-7.66 8.871,-6.499 1.365,1.16 -1.596,4.669 -3.183,6.499 -4.732,6.071 -13.876,18.104 -20.7,27.621 -6.825,9.515 -12.738,15.784 -18.425,24.139 -5.687,8.356 -15.467,19.033 -22.291,26.692 -6.823,7.659 -11.146,36.441 -10.691,55.705 0.456,19.266 7.051,40.852 10.463,50.599 3.412,9.749 12.966,32.264 17.516,41.083 4.551,8.82 14.56,13.705 22.526,17.408 4.996,2.322 4.945,7.452 0.167,6.756 -12.01,-1.751 -23.603,-13.951 -29.291,-20.45 -0.739,-0.843 -1.409,-1.622 -2.027,-2.361"
       style="fill:#b2b1b1;fill-opacity:1;fill-rule:nonzero;stroke:none;stroke-width:0.1"
       id="path183658" />
    <path
       d="m 296.86,685.687 c -1.285,-3.861 -4.568,-15.975 -7.07,-22.474 -2.502,-6.499 -9.554,-22.282 -12.966,-35.976 -3.411,-13.695 -5.687,-27.389 -5.459,-37.834 0.227,-10.445 1.136,-28.317 5.686,-41.316 4.548,-12.996 12.511,-20.193 17.97,-25.763 5.459,-5.57 10.919,-12.301 14.558,-17.639 3.64,-5.338 14.331,-17.641 19.107,-24.604 4.777,-6.963 11.585,-17.373 15.239,-21.586 3.655,-4.213 7.506,-7.66 8.871,-6.499 1.365,1.16 -1.596,4.669 -3.183,6.499 -4.732,6.071 -13.876,18.104 -20.7,27.621 -6.825,9.515 -12.738,15.784 -18.425,24.139 -5.687,8.356 -15.467,19.033 -22.291,26.692 -6.823,7.659 -11.146,36.441 -10.691,55.705 0.456,19.266 7.051,40.852 10.463,50.599 3.412,9.749 12.966,32.264 17.516,41.083 4.551,8.82 14.56,13.705 22.526,17.408 4.996,2.322 4.945,7.452 0.167,6.756 -12.01,-1.751 -23.603,-13.951 -29.291,-20.45 -0.739,-0.843 -1.409,-1.622 -2.027,-2.361 z"
       style="fill:none;stroke:#231f20;stroke-width:0.5;stroke-linecap:round;stroke-linejoin:round;stroke-miterlimit:4;stroke-dasharray:2.8, 1.8;stroke-dashoffset:0;stroke-opacity:1"
       id="path183660" />
    <path
       d="m 698.884,782.021 c 5.459,6.615 17.743,8.008 32.415,5.57 14.671,-2.437 32.414,-8.704 59.367,-25.416 26.955,-16.711 46.403,-33.075 59.71,-57.794 13.307,-24.719 18.424,-41.083 25.931,-67.195 7.506,-26.112 12.965,-53.616 13.989,-87.736 1.023,-34.119 1.366,-49.091 -10.578,-74.506 -11.94,-25.416 -21.836,-29.943 -33.095,-36.905 -11.259,-6.963 -42.65,-15.32 -44.697,-10.097 0,0 11.942,2.437 31.049,9.4 19.107,6.963 30.027,19.149 38.214,32.379 8.189,13.231 13.307,30.987 14.671,66.151 1.366,35.164 -6.142,62.668 -9.553,76.943 -3.412,14.274 -5.118,29.245 -14.331,58.491 -9.212,29.245 -29.342,56.054 -55.956,76.595 -26.612,20.542 -58.344,32.379 -69.604,35.86 -11.259,3.482 -22.177,1.393 -28.319,-2.089 -6.141,-3.481 -10.918,-13.229 -14.33,-19.844 -3.412,-6.616 -4.435,-11.838 -8.188,-9.749 -3.754,2.088 7.846,23.327 13.305,29.942"
       style="fill:#b2b1b1;fill-opacity:1;fill-rule:nonzero;stroke:none;stroke-width:0.1"
       id="path183662" />
    <path
       d="m 698.884,782.021 c 5.459,6.615 17.743,8.008 32.415,5.57 14.671,-2.437 32.414,-8.704 59.367,-25.416 26.955,-16.711 46.403,-33.075 59.71,-57.794 13.307,-24.719 18.424,-41.083 25.931,-67.195 7.506,-26.112 12.965,-53.616 13.989,-87.736 1.023,-34.119 1.366,-49.091 -10.578,-74.506 -11.94,-25.416 -21.836,-29.943 -33.095,-36.905 -11.259,-6.963 -42.65,-15.32 -44.697,-10.097 0,0 11.942,2.437 31.049,9.4 19.107,6.963 30.027,19.149 38.214,32.379 8.189,13.231 13.307,30.987 14.671,66.151 1.366,35.164 -6.142,62.668 -9.553,76.943 -3.412,14.274 -5.118,29.245 -14.331,58.491 -9.212,29.245 -29.342,56.054 -55.956,76.595 -26.612,20.542 -58.344,32.379 -69.604,35.86 -11.259,3.482 -22.177,1.393 -28.319,-2.089 -6.141,-3.481 -10.918,-13.229 -14.33,-19.844 -3.412,-6.616 -4.435,-11.838 -8.188,-9.749 -3.754,2.088 7.846,23.327 13.305,29.942 z"
       style="fill:none;stroke:#231f20;stroke-width:0.5;stroke-linecap:round;stroke-linejoin:round;stroke-miterlimit:4;stroke-dasharray:2.8, 1.8;stroke-dashoffset:0;stroke-opacity:1"
       id="path183664" />
    <path
       d="m 812.48,449.672 c -4.64,-2.667 -13.17,-14.852 -10.44,-21.815"
       style="fill:none;stroke:#231f20;stroke-width:0.5;stroke-linecap:round;stroke-linejoin:round;stroke-miterlimit:4;stroke-dasharray:2.8, 1.8;stroke-dashoffset:0;stroke-opacity:1"
       id="path183666" />
    <path
       d="m 381.002,781.936 c -5.459,6.615 -17.742,8.008 -32.413,5.57 -14.671,-2.437 -32.414,-8.704 -59.369,-25.416 -26.954,-16.711 -46.402,-33.075 -59.709,-57.794 -13.306,-24.719 -18.425,-41.083 -25.93,-67.195 -7.507,-26.112 -12.966,-53.616 -13.99,-87.736 -1.023,-34.119 -1.365,-49.091 10.577,-74.506 11.943,-25.416 21.837,-29.943 33.096,-36.905 11.26,-6.963 42.651,-15.32 44.696,-10.097 0,0 -11.941,2.437 -31.047,9.4 -19.108,6.963 -30.027,19.149 -38.215,32.379 -8.189,13.231 -13.307,30.987 -14.671,66.151 -1.365,35.164 6.141,62.669 9.554,76.943 3.411,14.274 5.117,29.245 14.33,58.491 9.212,29.245 29.342,56.054 55.956,76.595 26.613,20.542 58.344,32.379 69.604,35.86 11.259,3.482 22.178,1.393 28.32,-2.089 6.141,-3.481 10.917,-13.229 14.33,-19.844 3.412,-6.616 4.435,-11.838 8.188,-9.749 3.754,2.088 -7.848,23.327 -13.307,29.942"
       style="fill:#b2b1b1;fill-opacity:1;fill-rule:nonzero;stroke:none;stroke-width:0.1"
       id="path183668" />
    <path
       d="m 381.002,781.936 c -5.459,6.615 -17.742,8.008 -32.413,5.57 -14.671,-2.437 -32.414,-8.704 -59.369,-25.416 -26.954,-16.711 -46.402,-33.075 -59.709,-57.794 -13.306,-24.719 -18.425,-41.083 -25.93,-67.195 -7.507,-26.112 -12.966,-53.616 -13.99,-87.736 -1.023,-34.119 -1.365,-49.091 10.577,-74.506 11.943,-25.416 21.837,-29.943 33.096,-36.905 11.26,-6.963 42.651,-15.32 44.696,-10.097 0,0 -11.941,2.437 -31.047,9.4 -19.108,6.963 -30.027,19.149 -38.215,32.379 -8.189,13.231 -13.307,30.987 -14.671,66.151 -1.365,35.164 6.141,62.669 9.554,76.943 3.411,14.274 5.117,29.245 14.33,58.491 9.212,29.245 29.342,56.054 55.956,76.595 26.613,20.542 58.344,32.379 69.604,35.86 11.259,3.482 22.178,1.393 28.32,-2.089 6.141,-3.481 10.917,-13.229 14.33,-19.844 3.412,-6.616 4.435,-11.838 8.188,-9.749 3.754,2.088 -7.848,23.327 -13.307,29.942 z"
       style="fill:none;stroke:#231f20;stroke-width:0.5;stroke-linecap:round;stroke-linejoin:round;stroke-miterlimit:4;stroke-dasharray:2.8, 1.8;stroke-dashoffset:0;stroke-opacity:1"
       id="path183670" />
    <path
       d="m 267.52,449.672 c 4.641,-2.667 13.171,-14.852 10.44,-21.815"
       style="fill:none;stroke:#231f20;stroke-width:0.5;stroke-linecap:round;stroke-linejoin:round;stroke-miterlimit:4;stroke-dasharray:2.8, 1.8;stroke-dashoffset:0;stroke-opacity:1"
       id="path183672" />
    <path
       d="m 803.387,679.131 c -7.23,13.289 -12.526,18.659 -17.042,23.077 -5.459,5.337 -14.786,12.301 -22.747,16.479 -7.963,4.178 -15.014,3.249 -19.108,2.089 -4.094,-1.16 -8.643,-3.482 -10.918,-3.714 -2.274,-0.232 -8.87,1.393 -13.193,1.393 -4.775,0 -9.551,0 -12.964,-1.857 0,0 12.736,-3.251 18.879,-5.804 6.141,-2.552 17.742,-9.284 22.974,-13.229 5.232,-3.945 14.33,-10.909 12.738,-13.927 -0.87,-1.647 -5.687,3.249 -11.146,6.963 -5.459,3.715 -22.065,14.623 -27.978,17.177 -5.913,2.554 -13.194,3.946 -19.108,4.178 -5.913,0.231 -8.415,0.232 -8.869,2.553 -0.455,2.321 6.141,4.874 9.552,6.498 3.413,1.625 12.509,4.643 16.832,4.41 4.322,-0.231 7.732,-1.79 14.558,-1.624 9.554,0.232 12.282,3.714 16.151,3.946 3.867,0.232 7.96,-2.785 12.283,-4.874 4.322,-2.089 18.425,-7.66 22.292,-12.071 3.866,-4.409 10.69,-13.925 14.33,-17.174 3.639,-3.25 9.325,-9.517 8.642,-13.695 -0.681,-4.178 -4.425,-3.896 -6.158,-0.794"
       style="fill:#b2b1b1;fill-opacity:1;fill-rule:nonzero;stroke:none;stroke-width:0.1"
       id="path183674" />
    <path
       d="m 803.387,679.131 c -7.23,13.289 -12.526,18.659 -17.042,23.077 -5.459,5.337 -14.786,12.301 -22.747,16.479 -7.963,4.178 -15.014,3.249 -19.108,2.089 -4.094,-1.16 -8.643,-3.482 -10.918,-3.714 -2.274,-0.232 -8.87,1.393 -13.193,1.393 -4.775,0 -9.551,0 -12.964,-1.857 0,0 12.736,-3.251 18.879,-5.804 6.141,-2.552 17.742,-9.284 22.974,-13.229 5.232,-3.945 14.33,-10.909 12.738,-13.927 -0.87,-1.647 -5.687,3.249 -11.146,6.963 -5.459,3.715 -22.065,14.623 -27.978,17.177 -5.913,2.554 -13.194,3.946 -19.108,4.178 -5.913,0.231 -8.415,0.232 -8.869,2.553 -0.455,2.321 6.141,4.874 9.552,6.498 3.413,1.625 12.509,4.643 16.832,4.41 4.322,-0.231 7.732,-1.79 14.558,-1.624 9.554,0.232 12.282,3.714 16.151,3.946 3.867,0.232 7.96,-2.785 12.283,-4.874 4.322,-2.089 18.425,-7.66 22.292,-12.071 3.866,-4.409 10.69,-13.925 14.33,-17.174 3.639,-3.25 9.325,-9.517 8.642,-13.695 -0.681,-4.178 -4.425,-3.896 -6.158,-0.794 z"
       style="fill:none;stroke:#231f20;stroke-width:0.5;stroke-linecap:round;stroke-linejoin:round;stroke-miterlimit:4;stroke-dasharray:2.8, 1.8;stroke-dashoffset:0;stroke-opacity:1"
       id="path183676" />
    <path
       d="m 724.642,437.878 c 0,0 4.61,4.138 7.793,5.762 3.185,1.623 9.327,3.946 17.514,13.695 8.19,9.749 26.841,25.764 41.401,40.154 14.558,14.39 25.02,24.138 30.934,39.458 5.914,15.319 9.765,43.405 7.279,64.294 -2.487,20.888 -11.601,48.046 -21.382,68.471 -1.688,3.527 -3.284,6.646 -4.794,9.419"
       style="fill:none;stroke:#231f20;stroke-width:0.5;stroke-linecap:round;stroke-linejoin:round;stroke-miterlimit:4;stroke-dasharray:2.8, 1.8;stroke-dashoffset:0;stroke-opacity:1"
       id="path183678" />
    <path
       d="m 276.613,679.131 c 7.232,13.289 12.527,18.659 17.043,23.077 5.459,5.337 14.785,12.301 22.748,16.479 7.962,4.178 15.012,3.249 19.106,2.089 4.094,-1.16 8.644,-3.482 10.918,-3.714 2.276,-0.232 8.871,1.393 13.193,1.393 4.776,0 9.553,0 12.964,-1.857 0,0 -12.737,-3.251 -18.878,-5.804 -6.142,-2.552 -17.742,-9.284 -22.974,-13.229 -5.232,-3.945 -14.331,-10.909 -12.738,-13.927 0.87,-1.647 5.686,3.249 11.145,6.963 5.459,3.715 22.066,14.623 27.979,17.177 5.914,2.554 13.193,3.946 19.107,4.178 5.914,0.231 8.417,0.232 8.871,2.553 0.454,2.321 -6.141,4.874 -9.554,6.498 -3.412,1.625 -12.509,4.643 -16.832,4.41 -4.322,-0.231 -7.732,-1.79 -14.557,-1.624 -9.555,0.232 -12.282,3.714 -16.151,3.946 -3.868,0.232 -7.961,-2.785 -12.283,-4.874 -4.321,-2.089 -18.426,-7.66 -22.292,-12.071 -3.866,-4.409 -10.691,-13.925 -14.33,-17.174 -3.638,-3.25 -9.326,-9.517 -8.642,-13.695 0.681,-4.178 4.424,-3.896 6.157,-0.794"
       style="fill:#b2b1b1;fill-opacity:1;fill-rule:nonzero;stroke:none;stroke-width:0.1"
       id="path183680" />
    <path
       d="m 276.613,679.131 c 7.232,13.289 12.527,18.659 17.043,23.077 5.459,5.337 14.785,12.301 22.748,16.479 7.962,4.178 15.012,3.249 19.106,2.089 4.094,-1.16 8.644,-3.482 10.918,-3.714 2.276,-0.232 8.871,1.393 13.193,1.393 4.776,0 9.553,0 12.964,-1.857 0,0 -12.737,-3.251 -18.878,-5.804 -6.142,-2.552 -17.742,-9.284 -22.974,-13.229 -5.232,-3.945 -14.331,-10.909 -12.738,-13.927 0.87,-1.647 5.686,3.249 11.145,6.963 5.459,3.715 22.066,14.623 27.979,17.177 5.914,2.554 13.193,3.946 19.107,4.178 5.914,0.231 8.417,0.232 8.871,2.553 0.454,2.321 -6.141,4.874 -9.554,6.498 -3.412,1.625 -12.509,4.643 -16.832,4.41 -4.322,-0.231 -7.732,-1.79 -14.557,-1.624 -9.555,0.232 -12.282,3.714 -16.151,3.946 -3.868,0.232 -7.961,-2.785 -12.283,-4.874 -4.321,-2.089 -18.426,-7.66 -22.292,-12.071 -3.866,-4.409 -10.691,-13.925 -14.33,-17.174 -3.638,-3.25 -9.326,-9.517 -8.642,-13.695 0.681,-4.178 4.424,-3.896 6.157,-0.794 z"
       style="fill:none;stroke:#231f20;stroke-width:0.5;stroke-linecap:round;stroke-linejoin:round;stroke-miterlimit:4;stroke-dasharray:2.8, 1.8;stroke-dashoffset:0;stroke-opacity:1"
       id="path183682" />
    <path
       d="m 355.358,437.878 c 0,0 -4.608,4.138 -7.793,5.762 -3.184,1.623 -9.325,3.946 -17.514,13.695 -8.188,9.749 -26.841,25.764 -41.4,40.154 -14.558,14.39 -25.021,24.138 -30.934,39.458 -5.914,15.319 -9.766,43.405 -7.28,64.294 2.487,20.888 11.601,48.046 21.383,68.471 1.689,3.527 3.284,6.646 4.793,9.419"
       style="fill:none;stroke:#231f20;stroke-width:0.5;stroke-linecap:round;stroke-linejoin:round;stroke-miterlimit:4;stroke-dasharray:2.8, 1.8;stroke-dashoffset:0;stroke-opacity:1"
       id="path183684" />
    <path
       d="m 854.228,427.889 c 11.957,2.057 52.024,7.793 83.51,-17.009"
       style="fill:none;stroke:#231f20;stroke-width:0.5;stroke-linecap:round;stroke-linejoin:round;stroke-miterlimit:4;stroke-dasharray:2.8, 1.8;stroke-dashoffset:0;stroke-opacity:1"
       id="path183686" />
    <path
       d="m 820.351,412.824 c -2.274,-5.857 -8.759,-13.168 12.567,-23.133"
       style="fill:none;stroke:#231f20;stroke-width:0.5;stroke-linecap:round;stroke-linejoin:round;stroke-miterlimit:4;stroke-dasharray:2.8, 1.8;stroke-dashoffset:0;stroke-opacity:1"
       id="path183688" />
    <path
       d="m 802.04,427.857 c -13.649,-3.481 -31.732,-8.008 -51.18,-17.408 -19.447,-9.401 -28.319,-17.06 -24.907,-25.415 3.411,-8.357 13.989,-9.401 19.107,-10.446 5.117,-1.044 10.576,-3.83 17.06,0.349 6.483,4.178 23.2,11.489 32.756,13.229 9.552,1.742 38.895,8.357 44.694,-4.525 5.802,-12.883 -9.212,-23.327 -21.154,-25.068 -11.94,-1.741 -25.248,-2.785 -35.142,0.696 -9.895,3.482 -13.306,5.223 -13.648,10.793 -0.34,5.571 4.96,11.561 11.181,13.789"
       style="fill:none;stroke:#231f20;stroke-width:0.5;stroke-linecap:round;stroke-linejoin:round;stroke-miterlimit:4;stroke-dasharray:2.8, 1.8;stroke-dashoffset:0;stroke-opacity:1"
       id="path183690" />
    <path
       d="m 833.047,389.461 c -2.346,3.928 0.381,8.106 8.911,8.455 8.531,0.347 20.474,-0.349 31.392,-4.527 10.918,-4.178 18.082,-6.963 27.638,0 9.553,6.963 21.205,19.848 25.274,25.069"
       style="fill:none;stroke:#231f20;stroke-width:0.5;stroke-linecap:round;stroke-linejoin:round;stroke-miterlimit:4;stroke-dasharray:2.8, 1.8;stroke-dashoffset:0;stroke-opacity:1"
       id="path183692" />
    <path
       d="m 823.876,669.48 c 2.388,-7.312 12.98,-51.908 15.45,-65.714 3.315,-18.541 5.551,-50.945 4.34,-66.587"
       style="fill:none;stroke:#231f20;stroke-width:0.5;stroke-linecap:round;stroke-linejoin:round;stroke-miterlimit:4;stroke-dasharray:2.8, 1.8;stroke-dashoffset:0;stroke-opacity:1"
       id="path183694" />
    <path
       d="m 902.079,514.236 63.607,-5.926"
       style="fill:none;stroke:#231f20;stroke-width:0.5;stroke-linecap:round;stroke-linejoin:round;stroke-miterlimit:4;stroke-dasharray:2.8, 1.8;stroke-dashoffset:0;stroke-opacity:1"
       id="path183696" />
    <path
       d="m 904.551,545.544 66.858,-2.782"
       style="fill:none;stroke:#231f20;stroke-width:0.5;stroke-linecap:round;stroke-linejoin:round;stroke-miterlimit:4;stroke-dasharray:2.8, 1.8;stroke-dashoffset:0;stroke-opacity:1"
       id="path183698" />
    <path
       d="m 905.329,575.824 75.224,-3.456"
       style="fill:none;stroke:#231f20;stroke-width:0.5;stroke-linecap:round;stroke-linejoin:round;stroke-miterlimit:4;stroke-dasharray:2.8, 1.8;stroke-dashoffset:0;stroke-opacity:1"
       id="path183700" />
    <path
       d="m 905.106,600.545 76.693,3.138"
       style="fill:none;stroke:#231f20;stroke-width:0.5;stroke-linecap:round;stroke-linejoin:round;stroke-miterlimit:4;stroke-dasharray:2.8, 1.8;stroke-dashoffset:0;stroke-opacity:1"
       id="path183702" />
    <path
       d="m 903.716,631.531 77.77,7.658"
       style="fill:none;stroke:#231f20;stroke-width:0.5;stroke-linecap:round;stroke-linejoin:round;stroke-miterlimit:4;stroke-dasharray:2.8, 1.8;stroke-dashoffset:0;stroke-opacity:1"
       id="path183704" />
    <path
       d="m 882.513,706.191 78.456,36.722"
       style="fill:none;stroke:#231f20;stroke-width:0.5;stroke-linecap:round;stroke-linejoin:round;stroke-miterlimit:4;stroke-dasharray:2.8, 1.8;stroke-dashoffset:0;stroke-opacity:1"
       id="path183706" />
    <path
       d="m 865.918,733.69 73.177,48.768"
       style="fill:none;stroke:#231f20;stroke-width:0.5;stroke-linecap:round;stroke-linejoin:round;stroke-miterlimit:4;stroke-dasharray:2.8, 1.8;stroke-dashoffset:0;stroke-opacity:1"
       id="path183708" />
    <path
       d="m 809.33,782.521 41.964,76.931"
       style="fill:none;stroke:#231f20;stroke-width:0.5;stroke-linecap:round;stroke-linejoin:round;stroke-miterlimit:4;stroke-dasharray:2.8, 1.8;stroke-dashoffset:0;stroke-opacity:1"
       id="path183710" />
    <path
       d="m 712.595,815.386 14.084,84.479"
       style="fill:none;stroke:#231f20;stroke-width:0.5;stroke-linecap:round;stroke-linejoin:round;stroke-miterlimit:4;stroke-dasharray:2.8, 1.8;stroke-dashoffset:0;stroke-opacity:1"
       id="path183712" />
    <path
       d="m 680.51,820.065 4.88,85.871"
       style="fill:none;stroke:#231f20;stroke-width:0.5;stroke-linecap:round;stroke-linejoin:round;stroke-miterlimit:4;stroke-dasharray:2.8, 1.8;stroke-dashoffset:0;stroke-opacity:1"
       id="path183714" />
    <path
       d="m 641.655,824.085 -2.373,83.799"
       style="fill:none;stroke:#231f20;stroke-width:0.5;stroke-linecap:round;stroke-linejoin:round;stroke-miterlimit:4;stroke-dasharray:2.8, 1.8;stroke-dashoffset:0;stroke-opacity:1"
       id="path183716" />
    <path
       d="M 615.923,818.753 559.108,877.68"
       style="fill:none;stroke:#231f20;stroke-width:0.5;stroke-linecap:round;stroke-linejoin:round;stroke-miterlimit:4;stroke-dasharray:2.8, 1.8;stroke-dashoffset:0;stroke-opacity:1"
       id="path183718" />
    <path
       d="M 595.355,780.538 540,784.373"
       style="fill:none;stroke:#231f20;stroke-width:0.5;stroke-linecap:round;stroke-linejoin:round;stroke-miterlimit:4;stroke-dasharray:2.8, 1.8;stroke-dashoffset:0;stroke-opacity:1"
       id="path183720" />
    <path
       d="m 561.453,731.421 c 4.82,-7.28 15.412,-15.769 38.598,-14.939 19.449,0.696 15.696,2.436 32.756,4.178 17.06,1.74 32.071,6.615 39.918,13.926 7.848,7.311 10.578,9.745 15.189,17.056"
       style="fill:none;stroke:#231f20;stroke-width:0.5;stroke-linecap:round;stroke-linejoin:round;stroke-miterlimit:4;stroke-dasharray:2.8, 1.8;stroke-dashoffset:0;stroke-opacity:1"
       id="path183722" />
    <path
       d="m 675.995,787.347 c -4.975,-3.322 -10.573,-30.277 9.797,-38.908"
       style="fill:none;stroke:#231f20;stroke-width:0.5;stroke-linecap:round;stroke-linejoin:round;stroke-miterlimit:4;stroke-dasharray:2.8, 1.8;stroke-dashoffset:0;stroke-opacity:1"
       id="path183724" />
    <path
       d="m 685.792,748.439 c -2.489,-8.282 -2.823,-15.946 -1.461,-21.515"
       style="fill:none;stroke:#231f20;stroke-width:0.5;stroke-linecap:round;stroke-linejoin:round;stroke-miterlimit:4;stroke-dasharray:2.8, 1.8;stroke-dashoffset:0;stroke-opacity:1"
       id="path183726" />
    <path
       d="m 573.016,692.589 c -1.626,1.495 -1.627,4.743 2.241,7.529 3.867,2.786 12.056,4.178 17.288,4.178 5.231,0 9.792,0.191 14.334,-2.805"
       style="fill:none;stroke:#231f20;stroke-width:0.5;stroke-linecap:round;stroke-linejoin:round;stroke-miterlimit:4;stroke-dasharray:2.8, 1.8;stroke-dashoffset:0;stroke-opacity:1"
       id="path183728" />
    <path
       d="m 552.196,673.341 c 4.638,-5.022 9.643,-10.128 22.152,-9.664 12.51,0.464 25.247,0.464 25.247,0.464"
       style="fill:none;stroke:#231f20;stroke-width:0.5;stroke-linecap:round;stroke-linejoin:round;stroke-miterlimit:4;stroke-dasharray:2.8, 1.8;stroke-dashoffset:0;stroke-opacity:1"
       id="path183730" />
    <path
       d="m 604.374,682.478 c 2.046,-5.803 10.27,-16.832 14.5,-18.156"
       style="fill:none;stroke:#231f20;stroke-width:0.5;stroke-linecap:round;stroke-linejoin:round;stroke-miterlimit:4;stroke-dasharray:2.8, 1.8;stroke-dashoffset:0;stroke-opacity:1"
       id="path183732" />
    <path
       d="m 645.063,654.582 c 5.258,-2.045 17.541,-5.759 28.232,5.381"
       style="fill:none;stroke:#231f20;stroke-width:0.5;stroke-linecap:round;stroke-linejoin:round;stroke-miterlimit:4;stroke-dasharray:2.8, 1.8;stroke-dashoffset:0;stroke-opacity:1"
       id="path183734" />
    <path
       d="m 647.541,683.474 c -2.679,-1.692 -2.679,-6.102 -0.634,-8.191 2.049,-2.089 4.423,-4.406 8.873,-8.123 4.409,-3.686 14.786,-8.125 20.245,-7.197 5.459,0.929 10.689,9.286 8.416,12.998 -2.275,3.714 -4.322,5.804 -8.416,6.732"
       style="fill:none;stroke:#231f20;stroke-width:0.5;stroke-linecap:round;stroke-linejoin:round;stroke-miterlimit:4;stroke-dasharray:2.8, 1.8;stroke-dashoffset:0;stroke-opacity:1"
       id="path183736" />
    <path
       d="m 650.321,685.727 c 2.728,-2.089 12.282,-5.338 17.287,-5.802 5.005,-0.465 9.329,-0.721 12.965,0.928 4.095,1.857 9.327,7.428 4.427,11.119"
       style="fill:none;stroke:#231f20;stroke-width:0.5;stroke-linecap:round;stroke-linejoin:round;stroke-miterlimit:4;stroke-dasharray:2.8, 1.8;stroke-dashoffset:0;stroke-opacity:1"
       id="path183738" />
    <path
       d="m 684.851,671.965 c 2.666,-7.417 6.64,-20.822 11.191,-23.142 4.548,-2.322 30.024,-13.23 34.119,-15.319 4.093,-2.089 10.008,-6.5 13.192,-9.749"
       style="fill:none;stroke:#231f20;stroke-width:0.5;stroke-linecap:round;stroke-linejoin:round;stroke-miterlimit:4;stroke-dasharray:2.8, 1.8;stroke-dashoffset:0;stroke-opacity:1"
       id="path183740" />
    <path
       d="m 689.546,658.948 c 1.077,-3.699 10.589,-6.644 20.825,-6.411 10.236,0.231 20.119,5.894 23.533,12.857"
       style="fill:none;stroke:#231f20;stroke-width:0.5;stroke-linecap:round;stroke-linejoin:round;stroke-miterlimit:4;stroke-dasharray:2.8, 1.8;stroke-dashoffset:0;stroke-opacity:1"
       id="path183742" />
    <path
       d="m 731.795,679.11 c -0.724,-3.363 2.231,-14.504 3.825,-20.074 1.591,-5.572 3.513,-24.543 3.348,-31.429"
       style="fill:none;stroke:#231f20;stroke-width:0.5;stroke-linecap:round;stroke-linejoin:round;stroke-miterlimit:4;stroke-dasharray:2.8, 1.8;stroke-dashoffset:0;stroke-opacity:1"
       id="path183744" />
    <path
       d="m 738.587,676.473 c -1.815,0.705 -5.925,1.131 -4.333,-3.743 1.593,-4.874 4.142,-14.237 5.915,-22.747 2.274,-10.908 0.399,-23.211 3.355,-26.46"
       style="fill:none;stroke:#231f20;stroke-width:0.5;stroke-linecap:round;stroke-linejoin:round;stroke-miterlimit:4;stroke-dasharray:2.8, 1.8;stroke-dashoffset:0;stroke-opacity:1"
       id="path183746" />
    <path
       d="m 710.371,422.287 c 1.827,-1.049 6.598,3.249 9.326,6.963 2.731,3.713 6.142,8.819 4.55,9.515 -1.593,0.696 -4.55,-4.409 -6.141,-6.034 -1.594,-1.625 -5.232,-6.267 -6.596,-4.874 -1.366,1.393 -1.137,5.569 -2.731,5.338 -1.593,-0.232 -2.048,-8.819 1.592,-10.908"
       style="fill:#b2b1b1;fill-opacity:1;fill-rule:nonzero;stroke:none;stroke-width:0.1"
       id="path183748" />
    <path
       d="m 710.371,422.287 c 1.827,-1.049 6.598,3.249 9.326,6.963 2.731,3.713 6.142,8.819 4.55,9.515 -1.593,0.696 -4.55,-4.409 -6.141,-6.034 -1.594,-1.625 -5.232,-6.267 -6.596,-4.874 -1.366,1.393 -1.137,5.569 -2.731,5.338 -1.593,-0.232 -2.048,-8.819 1.592,-10.908 z"
       style="fill:none;stroke:#231f20;stroke-width:0.5;stroke-linecap:round;stroke-linejoin:round;stroke-miterlimit:4;stroke-dasharray:2.8, 1.8;stroke-dashoffset:0;stroke-opacity:1"
       id="path183750" />
    <path
       d="m 607.728,403.43 c 0.74,8.179 3.695,23.267 10.747,32.086 7.053,8.82 17.288,19.499 14.559,21.819 -2.73,2.32 -11.144,-4.98 -19.789,-18.337 -7.962,-12.301 -8.209,-18.092 -10.236,-22.049 -2.878,-5.617 -4.316,-8.925 -6.481,-11.077"
       style="fill:none;stroke:#231f20;stroke-width:0.5;stroke-linecap:round;stroke-linejoin:round;stroke-miterlimit:4;stroke-dasharray:2.8, 1.8;stroke-dashoffset:0;stroke-opacity:1"
       id="path183752" />
    <path
       d="m 626.488,445.182 c 2.905,-1.077 7.227,0.315 16.783,9.599 9.552,9.285 27.978,25.299 33.437,29.942 5.458,4.643 20.414,14.333 18.537,17.205 -1.617,2.474 -3.982,1.131 -15.582,-5.832 -11.6,-6.963 -25.185,-17.264 -32.299,-23.675 -7.385,-6.654 -10.839,-9.036 -17.019,-14.963"
       style="fill:none;stroke:#231f20;stroke-width:0.5;stroke-linecap:round;stroke-linejoin:round;stroke-miterlimit:4;stroke-dasharray:2.8, 1.8;stroke-dashoffset:0;stroke-opacity:1"
       id="path183754" />
    <path
       d="m 727.122,491.697 c -5.151,3.47 -12.43,7.881 -18.798,9.273 -6.369,1.393 -13.644,1.03 -14.557,2.372 -0.911,1.343 1.592,5.056 7.051,7.145 5.459,2.089 12.022,3.035 21.591,1.865"
       style="fill:none;stroke:#231f20;stroke-width:0.5;stroke-linecap:round;stroke-linejoin:round;stroke-miterlimit:4;stroke-dasharray:2.8, 1.8;stroke-dashoffset:0;stroke-opacity:1"
       id="path183756" />
    <path
       d="m 590.932,416.212 c 2.296,6.771 15.705,17.849 21.624,21.71"
       style="fill:none;stroke:#231f20;stroke-width:0.5;stroke-linecap:round;stroke-linejoin:round;stroke-miterlimit:4;stroke-dasharray:2.8, 1.8;stroke-dashoffset:0;stroke-opacity:1"
       id="path183758" />
    <path
       d="m 549.028,464.185 c 4.62,0 17.357,-0.583 20.77,-7.546 3.41,-6.964 13.496,-25.881 16.17,-37.76"
       style="fill:none;stroke:#231f20;stroke-width:0.5;stroke-linecap:round;stroke-linejoin:round;stroke-miterlimit:4;stroke-dasharray:2.8, 1.8;stroke-dashoffset:0;stroke-opacity:1"
       id="path183760" />
    <path
       d="m 553.197,487.887 c 5.682,-5.717 11.37,-11.982 16.146,-13.841 4.777,-1.857 16.15,-4.874 19.108,-6.499 2.958,-1.625 7.051,-5.803 16.377,-5.803 9.325,0 15.238,2.09 19.56,3.482 4.323,1.393 11.745,3.818 16.11,1.213"
       style="fill:none;stroke:#231f20;stroke-width:0.5;stroke-linecap:round;stroke-linejoin:round;stroke-miterlimit:4;stroke-dasharray:2.8, 1.8;stroke-dashoffset:0;stroke-opacity:1"
       id="path183762" />
    <path
       d="m 578.323,631.361 c 4.669,-3.196 13.973,-10.54 16.269,-17.354 2.501,-7.428 2.047,-20.659 -14.33,-13.763"
       style="fill:none;stroke:#231f20;stroke-width:0.5;stroke-linecap:round;stroke-linejoin:round;stroke-miterlimit:4;stroke-dasharray:2.8, 1.8;stroke-dashoffset:0;stroke-opacity:1"
       id="path183764" />
    <path
       d="m 571.39,663.676 c -3.308,-0.16 -4.095,-5.802 -2.729,-10.676 1.366,-4.874 7.051,-11.605 12.966,-9.98 5.914,1.624 4.777,7.195 2.274,10.677 -2.502,3.481 -7.733,10.211 -12.511,9.979 z"
       style="fill:none;stroke:#231f20;stroke-width:0.5;stroke-linecap:round;stroke-linejoin:round;stroke-miterlimit:4;stroke-dasharray:2.8, 1.8;stroke-dashoffset:0;stroke-opacity:1"
       id="path183766" />
    <path
       d="m 580.471,642.807 c 6.615,0.213 17.079,-2.108 20.034,-7.68 3.058,-5.76 1.165,-14.42 -7.265,-18.234"
       style="fill:none;stroke:#231f20;stroke-width:0.5;stroke-linecap:round;stroke-linejoin:round;stroke-miterlimit:4;stroke-dasharray:2.8, 1.8;stroke-dashoffset:0;stroke-opacity:1"
       id="path183768" />
    <path
       d="m 570.253,646.27 c 1.591,-0.465 5.11,-2.137 5.11,-2.137"
       style="fill:none;stroke:#231f20;stroke-width:0.5;stroke-linecap:round;stroke-linejoin:round;stroke-miterlimit:4;stroke-dasharray:2.8, 1.8;stroke-dashoffset:0;stroke-opacity:1"
       id="path183770" />
    <path
       d="m 543.868,542.517 c 2.274,-6.963 5.912,-26.691 -0.455,-26.691 -5.46,0 0.455,26.691 0.455,26.691 z"
       style="fill:none;stroke:#231f20;stroke-width:0.5;stroke-linecap:round;stroke-linejoin:round;stroke-miterlimit:4;stroke-dasharray:2.8, 1.8;stroke-dashoffset:0;stroke-opacity:1"
       id="path183772" />
    <path
       d="m 557.549,519.762 c 2.468,-3.24 13.927,-4.256 18.391,-1.384 4.689,3.018 13.647,25.997 -10.19,36.453"
       style="fill:none;stroke:#231f20;stroke-width:0.5;stroke-linecap:round;stroke-linejoin:round;stroke-miterlimit:4;stroke-dasharray:2.8, 1.8;stroke-dashoffset:0;stroke-opacity:1"
       id="path183774" />
    <path
       d="m 571.241,564.992 c -8.365,4.961 -17.593,1.2 -20.323,-1.585 -2.729,-2.785 -7.278,-9.748 -4.32,-20.425 2.955,-10.677 8.484,-19.98 10.951,-23.22"
       style="fill:none;stroke:#231f20;stroke-width:0.5;stroke-linecap:round;stroke-linejoin:round;stroke-miterlimit:4;stroke-dasharray:2.8, 1.8;stroke-dashoffset:0;stroke-opacity:1"
       id="path183776" />
    <path
       d="m 644.601,513.099 c 1.398,4.351 5.947,14.565 7.993,17.117 2.049,2.553 8.645,4.179 13.421,4.642 4.777,0.465 15.667,0.755 13.619,-3.423 -2.046,-4.179 -5.885,-14.447 -10.207,-20.483"
       style="fill:none;stroke:#231f20;stroke-width:0.5;stroke-linecap:round;stroke-linejoin:round;stroke-miterlimit:4;stroke-dasharray:2.8, 1.8;stroke-dashoffset:0;stroke-opacity:1"
       id="path183778" />
    <path
       d="m 616.124,482.706 c 4.444,4.758 7.458,13.981 8.721,19.657 1.137,5.107 0.122,13.068 -5.108,16.783 -5.232,3.714 -14.454,7.355 -20.596,6.893 -6.141,-0.464 -13.646,-3.715 -17.97,-15.552 -4.322,-11.838 -2.503,-23.442 1.593,-28.084 4.094,-4.644 18.555,-14.98 30.089,-3.312"
       style="fill:none;stroke:#231f20;stroke-width:0.5;stroke-linecap:round;stroke-linejoin:round;stroke-miterlimit:4;stroke-dasharray:2.8, 1.8;stroke-dashoffset:0;stroke-opacity:1"
       id="path183780" />
    <path
       d="m 695.196,649.375 c 1.3,-10.3 4.713,-44.885 -3.023,-65.543 -7.732,-20.657 -9.55,-39.922 -28.431,-43.404 -18.88,-3.481 -29.798,6.036 -30.027,16.248 -0.227,10.212 1.594,27.389 7.507,44.565 5.913,17.175 17.286,37.137 24.339,44.333 7.052,7.194 11.863,9.855 16.605,10.444 3.27,0.406 10.233,1.156 10.461,-7.195 0.308,-11.154 1.14,-36.905 -2.045,-56.634 -2.379,-14.733 -10.909,-46.022 -28.428,-52.024"
       style="fill:none;stroke:#231f20;stroke-width:0.5;stroke-linecap:round;stroke-linejoin:round;stroke-miterlimit:4;stroke-dasharray:2.8, 1.8;stroke-dashoffset:0;stroke-opacity:1"
       id="path183782" />
    <path
       d="m 687.737,570.718 c -2.159,-8.704 -6.963,-34.769 -7.743,-37.772 -0.78,-3 4.901,-7.141 11.269,-6.907 6.369,0.232 33.102,0.866 43.563,-3.313"
       style="fill:none;stroke:#231f20;stroke-width:0.5;stroke-linecap:round;stroke-linejoin:round;stroke-miterlimit:4;stroke-dasharray:2.8, 1.8;stroke-dashoffset:0;stroke-opacity:1"
       id="path183784" />
    <path
       d="m 680.76,536.539 c 0.648,3.255 2.315,6.674 7.774,7.603 5.459,0.93 27.687,4.447 34.055,5.144"
       style="fill:none;stroke:#231f20;stroke-width:0.5;stroke-linecap:round;stroke-linejoin:round;stroke-miterlimit:4;stroke-dasharray:2.8, 1.8;stroke-dashoffset:0;stroke-opacity:1"
       id="path183786" />
    <path
       d="m 738.577,544.375 c -4.094,-0.929 -16.962,-11.761 -12.12,-19.459"
       style="fill:none;stroke:#231f20;stroke-width:0.5;stroke-linecap:round;stroke-linejoin:round;stroke-miterlimit:4;stroke-dasharray:2.8, 1.8;stroke-dashoffset:0;stroke-opacity:1"
       id="path183788" />
    <path
       d="m 748.901,526.842 c 1.959,5.696 9.238,21.711 14.243,20.782"
       style="fill:none;stroke:#231f20;stroke-width:0.5;stroke-linecap:round;stroke-linejoin:round;stroke-miterlimit:4;stroke-dasharray:2.8, 1.8;stroke-dashoffset:0;stroke-opacity:1"
       id="path183790" />
    <path
       d="m 760.285,604.258 c -4.45,-9.283 -19.435,-12.765 -25.348,-14.159 -5.913,-1.392 -13.42,-0.463 -14.558,-3.714 -1.136,-3.247 -3.638,-12.997 -4.092,-18.801 -0.455,-5.801 -0.457,-10.444 3.41,-12.997 3.868,-2.552 16.605,-6.73 22.973,-6.5 6.371,0.235 12.966,7.661 19.108,15.32 6.142,7.659 7.508,18.337 6.371,25.067 -1.138,6.733 -9.783,19.266 -13.878,23.444 -4.094,4.178 -13.647,11.837 -13.647,11.837 l 4.01,-0.232 c 6.141,-4.178 14.642,-12.301 16.69,-15.087 2.047,-2.785 7.02,-10.217 8.644,-15.551"
       style="fill:none;stroke:#231f20;stroke-width:0.5;stroke-linecap:round;stroke-linejoin:round;stroke-miterlimit:4;stroke-dasharray:2.8, 1.8;stroke-dashoffset:0;stroke-opacity:1"
       id="path183792" />
    <path
       d="m 730.161,633.504 c -1.756,0.84 -6.98,0.912 -8.415,-5.107 -1.595,-6.668 -3.869,-14.855 -4.323,-22.282 -0.454,-7.427 -2.274,-14.856 2.956,-19.73"
       style="fill:none;stroke:#231f20;stroke-width:0.5;stroke-linecap:round;stroke-linejoin:round;stroke-miterlimit:4;stroke-dasharray:2.8, 1.8;stroke-dashoffset:0;stroke-opacity:1"
       id="path183794" />
    <path
       d="m 705.284,595.675 c -0.143,-2.547 10.963,-5.582 11.472,1.392"
       style="fill:none;stroke:#231f20;stroke-width:0.5;stroke-linecap:round;stroke-linejoin:round;stroke-miterlimit:4;stroke-dasharray:2.8, 1.8;stroke-dashoffset:0;stroke-opacity:1"
       id="path183796" />
    <path
       d="m 709.127,559.628 c 1.581,-2.349 6.25,-4.577 10.57,-5.041"
       style="fill:none;stroke:#231f20;stroke-width:0.5;stroke-linecap:round;stroke-linejoin:round;stroke-miterlimit:4;stroke-dasharray:2.8, 1.8;stroke-dashoffset:0;stroke-opacity:1"
       id="path183798" />
    <path
       d="m 770.194,573.621 c -2.274,-5.108 -6.9,-13.121 -11.372,-18.105 -7.225,-8.049 -12.738,-11.141 -20.245,-11.141 -7.506,0 -18.198,6.035 -22.747,8.356 -4.55,2.32 -8.87,8.819 -10.462,16.942 -1.591,8.125 0.226,32.96 1.137,41.083 0.91,8.125 7.96,26.926 10.597,28.634"
       style="fill:none;stroke:#231f20;stroke-width:0.5;stroke-linecap:round;stroke-linejoin:round;stroke-miterlimit:4;stroke-dasharray:2.8, 1.8;stroke-dashoffset:0;stroke-opacity:1"
       id="path183800" />
    <path
       d="m 759.971,556.86 c -1.921,-2.189 -0.013,-4.594 0.896,-6.45 0.911,-1.857 3.639,-4.411 6.142,-4.875"
       style="fill:none;stroke:#231f20;stroke-width:0.5;stroke-linecap:round;stroke-linejoin:round;stroke-miterlimit:4;stroke-dasharray:2.8, 1.8;stroke-dashoffset:0;stroke-opacity:1"
       id="path183802" />
    <path
       d="m 801.572,682.374 c -4.537,4.049 -14.544,13.798 -23.416,19.834 -8.87,6.034 -21.63,13.421 -29.466,5.434"
       style="fill:none;stroke:#231f20;stroke-width:0.5;stroke-linecap:round;stroke-linejoin:round;stroke-miterlimit:4;stroke-dasharray:2.8, 1.8;stroke-dashoffset:0;stroke-opacity:1"
       id="path183804" />
    <path
       d="m 748.432,705.248 c 1.291,-3.969 3.502,-8.458 6.005,-11.708"
       style="fill:none;stroke:#231f20;stroke-width:0.5;stroke-linecap:round;stroke-linejoin:round;stroke-miterlimit:4;stroke-dasharray:2.8, 1.8;stroke-dashoffset:0;stroke-opacity:1"
       id="path183806" />
    <path
       d="m 762.006,683.638 c 1.365,-2.32 2.746,-9.022 0.349,-10.313"
       style="fill:none;stroke:#231f20;stroke-width:0.5;stroke-linecap:round;stroke-linejoin:round;stroke-miterlimit:4;stroke-dasharray:2.8, 1.8;stroke-dashoffset:0;stroke-opacity:1"
       id="path183808" />
    <path
       d="m 552.624,731.113 c 0.682,-3.838 3.753,-10.106 6.484,-9.061 4.55,1.741 0,6.151 -0.368,9.213"
       style="fill:none;stroke:#231f20;stroke-width:0.5;stroke-linecap:round;stroke-linejoin:round;stroke-miterlimit:4;stroke-dasharray:2.8, 1.8;stroke-dashoffset:0;stroke-opacity:1"
       id="path183810" />
    <path
       d="m 525.376,374.731 c -6.521,1.851 -20.178,9.955 -20.178,17.975 0,8.691 29.344,14.61 34.802,14.61 5.46,0 34.802,-5.919 34.802,-14.61 0,-8.02 -13.656,-16.124 -20.176,-17.975"
       style="fill:none;stroke:#231f20;stroke-width:0.5;stroke-linecap:round;stroke-linejoin:round;stroke-miterlimit:4;stroke-dasharray:2.8, 1.8;stroke-dashoffset:0;stroke-opacity:1"
       id="path183812" />
    <path
       d="m 225.773,427.889 c -11.957,2.057 -52.023,7.793 -83.511,-17.009"
       style="fill:none;stroke:#231f20;stroke-width:0.5;stroke-linecap:round;stroke-linejoin:round;stroke-miterlimit:4;stroke-dasharray:2.8, 1.8;stroke-dashoffset:0;stroke-opacity:1"
       id="path183814" />
    <path
       d="m 259.651,412.824 c 2.274,-5.857 8.757,-13.168 -12.568,-23.133"
       style="fill:none;stroke:#231f20;stroke-width:0.5;stroke-linecap:round;stroke-linejoin:round;stroke-miterlimit:4;stroke-dasharray:2.8, 1.8;stroke-dashoffset:0;stroke-opacity:1"
       id="path183816" />
    <path
       d="m 277.96,427.857 c 13.649,-3.481 31.733,-8.008 51.18,-17.408 19.449,-9.401 28.32,-17.06 24.908,-25.415 -3.412,-8.357 -13.989,-9.401 -19.107,-10.446 -5.118,-1.044 -10.577,-3.83 -17.06,0.349 -6.482,4.178 -23.201,11.489 -32.755,13.229 -9.553,1.742 -38.896,8.357 -44.697,-4.525 -5.8,-12.883 9.213,-23.327 21.155,-25.068 11.941,-1.741 25.249,-2.785 35.143,0.696 9.895,3.482 13.307,5.223 13.648,10.793 0.341,5.571 -4.962,11.561 -11.181,13.789"
       style="fill:none;stroke:#231f20;stroke-width:0.5;stroke-linecap:round;stroke-linejoin:round;stroke-miterlimit:4;stroke-dasharray:2.8, 1.8;stroke-dashoffset:0;stroke-opacity:1"
       id="path183818" />
    <path
       d="m 246.953,389.461 c 2.347,3.928 -0.382,8.106 -8.912,8.455 -8.53,0.347 -20.471,-0.349 -31.39,-4.527 -10.918,-4.178 -18.083,-6.963 -27.637,0 -9.554,6.963 -21.208,19.848 -25.275,25.069"
       style="fill:none;stroke:#231f20;stroke-width:0.5;stroke-linecap:round;stroke-linejoin:round;stroke-miterlimit:4;stroke-dasharray:2.8, 1.8;stroke-dashoffset:0;stroke-opacity:1"
       id="path183820" />
    <path
       d="m 256.125,669.48 c -2.389,-7.312 -12.981,-51.908 -15.451,-65.714 -3.315,-18.541 -5.55,-50.945 -4.339,-66.587"
       style="fill:none;stroke:#231f20;stroke-width:0.5;stroke-linecap:round;stroke-linejoin:round;stroke-miterlimit:4;stroke-dasharray:2.8, 1.8;stroke-dashoffset:0;stroke-opacity:1"
       id="path183822" />
    <path
       d="M 177.921,514.236 114.316,508.31"
       style="fill:none;stroke:#231f20;stroke-width:0.5;stroke-linecap:round;stroke-linejoin:round;stroke-miterlimit:4;stroke-dasharray:2.8, 1.8;stroke-dashoffset:0;stroke-opacity:1"
       id="path183824" />
    <path
       d="m 175.449,545.544 -66.857,-2.782"
       style="fill:none;stroke:#231f20;stroke-width:0.5;stroke-linecap:round;stroke-linejoin:round;stroke-miterlimit:4;stroke-dasharray:2.8, 1.8;stroke-dashoffset:0;stroke-opacity:1"
       id="path183826" />
    <path
       d="M 174.67,575.824 99.4484,572.368"
       style="fill:none;stroke:#231f20;stroke-width:0.5;stroke-linecap:round;stroke-linejoin:round;stroke-miterlimit:4;stroke-dasharray:2.8, 1.8;stroke-dashoffset:0;stroke-opacity:1"
       id="path183828" />
    <path
       d="m 174.895,600.545 -76.6927,3.138"
       style="fill:none;stroke:#231f20;stroke-width:0.5;stroke-linecap:round;stroke-linejoin:round;stroke-miterlimit:4;stroke-dasharray:2.8, 1.8;stroke-dashoffset:0;stroke-opacity:1"
       id="path183830" />
    <path
       d="m 176.285,631.531 -77.7694,7.658"
       style="fill:none;stroke:#231f20;stroke-width:0.5;stroke-linecap:round;stroke-linejoin:round;stroke-miterlimit:4;stroke-dasharray:2.8, 1.8;stroke-dashoffset:0;stroke-opacity:1"
       id="path183832" />
    <path
       d="m 197.486,706.191 -78.454,36.722"
       style="fill:none;stroke:#231f20;stroke-width:0.5;stroke-linecap:round;stroke-linejoin:round;stroke-miterlimit:4;stroke-dasharray:2.8, 1.8;stroke-dashoffset:0;stroke-opacity:1"
       id="path183834" />
    <path
       d="m 214.083,733.69 -73.176,48.768"
       style="fill:none;stroke:#231f20;stroke-width:0.5;stroke-linecap:round;stroke-linejoin:round;stroke-miterlimit:4;stroke-dasharray:2.8, 1.8;stroke-dashoffset:0;stroke-opacity:1"
       id="path183836" />
    <path
       d="m 270.672,782.521 -41.965,76.931"
       style="fill:none;stroke:#231f20;stroke-width:0.5;stroke-linecap:round;stroke-linejoin:round;stroke-miterlimit:4;stroke-dasharray:2.8, 1.8;stroke-dashoffset:0;stroke-opacity:1"
       id="path183838" />
    <path
       d="m 367.406,815.386 -14.085,84.479"
       style="fill:none;stroke:#231f20;stroke-width:0.5;stroke-linecap:round;stroke-linejoin:round;stroke-miterlimit:4;stroke-dasharray:2.8, 1.8;stroke-dashoffset:0;stroke-opacity:1"
       id="path183840" />
    <path
       d="m 399.491,820.065 -4.879,85.871"
       style="fill:none;stroke:#231f20;stroke-width:0.5;stroke-linecap:round;stroke-linejoin:round;stroke-miterlimit:4;stroke-dasharray:2.8, 1.8;stroke-dashoffset:0;stroke-opacity:1"
       id="path183842" />
    <path
       d="m 438.346,824.085 2.373,83.799"
       style="fill:none;stroke:#231f20;stroke-width:0.5;stroke-linecap:round;stroke-linejoin:round;stroke-miterlimit:4;stroke-dasharray:2.8, 1.8;stroke-dashoffset:0;stroke-opacity:1"
       id="path183844" />
    <path
       d="m 464.077,818.753 56.816,58.927"
       style="fill:none;stroke:#231f20;stroke-width:0.5;stroke-linecap:round;stroke-linejoin:round;stroke-miterlimit:4;stroke-dasharray:2.8, 1.8;stroke-dashoffset:0;stroke-opacity:1"
       id="path183846" />
    <path
       d="M 484.645,780.538 540,784.373"
       style="fill:none;stroke:#231f20;stroke-width:0.5;stroke-linecap:round;stroke-linejoin:round;stroke-miterlimit:4;stroke-dasharray:2.8, 1.8;stroke-dashoffset:0;stroke-opacity:1"
       id="path183848" />
    <path
       d="m 518.547,731.421 c -4.819,-7.28 -15.411,-15.769 -38.597,-14.939 -19.449,0.696 -15.696,2.436 -32.755,4.178 -17.061,1.74 -32.072,6.615 -39.92,13.926 -7.848,7.311 -10.577,9.745 -15.188,17.056"
       style="fill:none;stroke:#231f20;stroke-width:0.5;stroke-linecap:round;stroke-linejoin:round;stroke-miterlimit:4;stroke-dasharray:2.8, 1.8;stroke-dashoffset:0;stroke-opacity:1"
       id="path183850" />
    <path
       d="m 404.005,787.347 c 4.976,-3.322 10.574,-30.277 -9.797,-38.908"
       style="fill:none;stroke:#231f20;stroke-width:0.5;stroke-linecap:round;stroke-linejoin:round;stroke-miterlimit:4;stroke-dasharray:2.8, 1.8;stroke-dashoffset:0;stroke-opacity:1"
       id="path183852" />
    <path
       d="m 394.208,748.439 c 2.49,-8.282 2.823,-15.946 1.462,-21.515"
       style="fill:none;stroke:#231f20;stroke-width:0.5;stroke-linecap:round;stroke-linejoin:round;stroke-miterlimit:4;stroke-dasharray:2.8, 1.8;stroke-dashoffset:0;stroke-opacity:1"
       id="path183854" />
    <path
       d="m 506.984,692.589 c 1.626,1.495 1.628,4.743 -2.24,7.529 -3.868,2.786 -12.057,4.178 -17.288,4.178 -5.231,0 -9.792,0.191 -14.335,-2.805"
       style="fill:none;stroke:#231f20;stroke-width:0.5;stroke-linecap:round;stroke-linejoin:round;stroke-miterlimit:4;stroke-dasharray:2.8, 1.8;stroke-dashoffset:0;stroke-opacity:1"
       id="path183856" />
    <path
       d="m 527.805,673.341 c -4.637,-5.022 -9.643,-10.128 -22.152,-9.664 -12.51,0.464 -25.248,0.464 -25.248,0.464"
       style="fill:none;stroke:#231f20;stroke-width:0.5;stroke-linecap:round;stroke-linejoin:round;stroke-miterlimit:4;stroke-dasharray:2.8, 1.8;stroke-dashoffset:0;stroke-opacity:1"
       id="path183858" />
    <path
       d="m 475.627,682.478 c -2.047,-5.803 -10.27,-16.832 -14.501,-18.156"
       style="fill:none;stroke:#231f20;stroke-width:0.5;stroke-linecap:round;stroke-linejoin:round;stroke-miterlimit:4;stroke-dasharray:2.8, 1.8;stroke-dashoffset:0;stroke-opacity:1"
       id="path183860" />
    <path
       d="m 434.938,654.582 c -5.258,-2.045 -17.542,-5.759 -28.232,5.381"
       style="fill:none;stroke:#231f20;stroke-width:0.5;stroke-linecap:round;stroke-linejoin:round;stroke-miterlimit:4;stroke-dasharray:2.8, 1.8;stroke-dashoffset:0;stroke-opacity:1"
       id="path183862" />
    <path
       d="m 432.458,683.474 c 2.681,-1.692 2.681,-6.102 0.634,-8.191 -2.047,-2.089 -4.421,-4.406 -8.871,-8.123 -4.41,-3.686 -14.786,-8.125 -20.245,-7.197 -5.459,0.929 -10.689,9.286 -8.415,12.998 2.273,3.714 4.32,5.804 8.415,6.732"
       style="fill:none;stroke:#231f20;stroke-width:0.5;stroke-linecap:round;stroke-linejoin:round;stroke-miterlimit:4;stroke-dasharray:2.8, 1.8;stroke-dashoffset:0;stroke-opacity:1"
       id="path183864" />
    <path
       d="m 429.68,685.727 c -2.729,-2.089 -12.282,-5.338 -17.287,-5.802 -5.005,-0.465 -9.33,-0.721 -12.966,0.928 -4.093,1.857 -9.325,7.428 -4.427,11.119"
       style="fill:none;stroke:#231f20;stroke-width:0.5;stroke-linecap:round;stroke-linejoin:round;stroke-miterlimit:4;stroke-dasharray:2.8, 1.8;stroke-dashoffset:0;stroke-opacity:1"
       id="path183866" />
    <path
       d="m 395.15,671.965 c -2.667,-7.417 -6.64,-20.822 -11.19,-23.142 -4.55,-2.322 -30.025,-13.23 -34.12,-15.319 -4.094,-2.089 -10.009,-6.5 -13.193,-9.749"
       style="fill:none;stroke:#231f20;stroke-width:0.5;stroke-linecap:round;stroke-linejoin:round;stroke-miterlimit:4;stroke-dasharray:2.8, 1.8;stroke-dashoffset:0;stroke-opacity:1"
       id="path183868" />
    <path
       d="m 390.455,658.948 c -1.078,-3.699 -10.589,-6.644 -20.826,-6.411 -10.235,0.231 -20.119,5.894 -23.532,12.857"
       style="fill:none;stroke:#231f20;stroke-width:0.5;stroke-linecap:round;stroke-linejoin:round;stroke-miterlimit:4;stroke-dasharray:2.8, 1.8;stroke-dashoffset:0;stroke-opacity:1"
       id="path183870" />
    <path
       d="m 348.205,679.11 c 0.725,-3.363 -2.231,-14.504 -3.824,-20.074 -1.592,-5.572 -3.513,-24.543 -3.349,-31.429"
       style="fill:none;stroke:#231f20;stroke-width:0.5;stroke-linecap:round;stroke-linejoin:round;stroke-miterlimit:4;stroke-dasharray:2.8, 1.8;stroke-dashoffset:0;stroke-opacity:1"
       id="path183872" />
    <path
       d="m 341.414,676.473 c 1.814,0.705 5.924,1.131 4.332,-3.743 -1.592,-4.874 -4.141,-14.237 -5.915,-22.747 -2.274,-10.908 -0.397,-23.211 -3.355,-26.46"
       style="fill:none;stroke:#231f20;stroke-width:0.5;stroke-linecap:round;stroke-linejoin:round;stroke-miterlimit:4;stroke-dasharray:2.8, 1.8;stroke-dashoffset:0;stroke-opacity:1"
       id="path183874" />
    <path
       d="m 369.629,422.287 c -1.827,-1.049 -6.596,3.249 -9.326,6.963 -2.729,3.713 -6.142,8.819 -4.549,9.515 1.593,0.696 4.549,-4.409 6.141,-6.034 1.593,-1.625 5.231,-6.267 6.597,-4.874 1.364,1.393 1.136,5.569 2.729,5.338 1.593,-0.232 2.049,-8.819 -1.592,-10.908"
       style="fill:#b2b1b1;fill-opacity:1;fill-rule:nonzero;stroke:none;stroke-width:0.1"
       id="path183876" />
    <path
       d="m 369.629,422.287 c -1.827,-1.049 -6.596,3.249 -9.326,6.963 -2.729,3.713 -6.142,8.819 -4.549,9.515 1.593,0.696 4.549,-4.409 6.141,-6.034 1.593,-1.625 5.231,-6.267 6.597,-4.874 1.364,1.393 1.136,5.569 2.729,5.338 1.593,-0.232 2.049,-8.819 -1.592,-10.908 z"
       style="fill:none;stroke:#231f20;stroke-width:0.5;stroke-linecap:round;stroke-linejoin:round;stroke-miterlimit:4;stroke-dasharray:2.8, 1.8;stroke-dashoffset:0;stroke-opacity:1"
       id="path183878" />
    <path
       d="m 472.273,403.43 c -0.74,8.179 -3.695,23.267 -10.748,32.086 -7.052,8.82 -17.288,19.499 -14.559,21.819 2.731,2.32 11.145,-4.98 19.79,-18.337 7.962,-12.301 8.209,-18.092 10.236,-22.049 2.878,-5.617 4.315,-8.925 6.48,-11.077"
       style="fill:none;stroke:#231f20;stroke-width:0.5;stroke-linecap:round;stroke-linejoin:round;stroke-miterlimit:4;stroke-dasharray:2.8, 1.8;stroke-dashoffset:0;stroke-opacity:1"
       id="path183880" />
    <path
       d="m 453.512,445.182 c -2.905,-1.077 -7.227,0.315 -16.781,9.599 -9.554,9.285 -27.979,25.299 -33.438,29.942 -5.459,4.643 -20.415,14.333 -18.538,17.205 1.617,2.474 3.982,1.131 15.582,-5.832 11.601,-6.963 25.185,-17.264 32.299,-23.675 7.386,-6.654 10.839,-9.036 17.02,-14.963"
       style="fill:none;stroke:#231f20;stroke-width:0.5;stroke-linecap:round;stroke-linejoin:round;stroke-miterlimit:4;stroke-dasharray:2.8, 1.8;stroke-dashoffset:0;stroke-opacity:1"
       id="path183882" />
    <path
       d="m 352.879,491.697 c 5.15,3.47 12.43,7.881 18.798,9.273 6.368,1.393 13.644,1.03 14.556,2.372 0.911,1.343 -1.59,5.056 -7.05,7.145 -5.459,2.089 -12.021,3.035 -21.593,1.865"
       style="fill:none;stroke:#231f20;stroke-width:0.5;stroke-linecap:round;stroke-linejoin:round;stroke-miterlimit:4;stroke-dasharray:2.8, 1.8;stroke-dashoffset:0;stroke-opacity:1"
       id="path183884" />
    <path
       d="m 489.069,416.212 c -2.296,6.771 -15.706,17.849 -21.625,21.71"
       style="fill:none;stroke:#231f20;stroke-width:0.5;stroke-linecap:round;stroke-linejoin:round;stroke-miterlimit:4;stroke-dasharray:2.8, 1.8;stroke-dashoffset:0;stroke-opacity:1"
       id="path183886" />
    <path
       d="m 529.891,445.498 c -1.138,2.787 -0.582,11.604 0.328,16.711 0.91,5.107 6.142,3.482 9.781,3.482 3.64,0 8.872,1.625 9.78,-3.482 0.913,-5.107 1.467,-13.924 0.328,-16.711"
       style="fill:none;stroke:#231f20;stroke-width:0.5;stroke-linecap:round;stroke-linejoin:round;stroke-miterlimit:4;stroke-dasharray:2.8, 1.8;stroke-dashoffset:0;stroke-opacity:1"
       id="path183888" />
    <path
       d="m 530.972,464.185 c -4.619,0 -17.357,-0.583 -20.769,-7.546 -3.411,-6.964 -13.496,-25.881 -16.17,-37.76"
       style="fill:none;stroke:#231f20;stroke-width:0.5;stroke-linecap:round;stroke-linejoin:round;stroke-miterlimit:4;stroke-dasharray:2.8, 1.8;stroke-dashoffset:0;stroke-opacity:1"
       id="path183890" />
    <path
       d="m 530.46,495.593 c 0.456,7.429 6.356,18.84 9.54,23.714 3.185,-4.874 9.085,-16.285 9.541,-23.714"
       style="fill:none;stroke:#231f20;stroke-width:0.5;stroke-linecap:round;stroke-linejoin:round;stroke-miterlimit:4;stroke-dasharray:2.8, 1.8;stroke-dashoffset:0;stroke-opacity:1"
       id="path183892" />
    <path
       d="m 526.804,487.887 c -5.683,-5.717 -11.37,-11.982 -16.146,-13.841 -4.778,-1.857 -16.151,-4.874 -19.108,-6.499 -2.957,-1.625 -7.051,-5.803 -16.377,-5.803 -9.326,0 -15.239,2.09 -19.561,3.482 -4.323,1.393 -11.745,3.818 -16.109,1.213"
       style="fill:none;stroke:#231f20;stroke-width:0.5;stroke-linecap:round;stroke-linejoin:round;stroke-miterlimit:4;stroke-dasharray:2.8, 1.8;stroke-dashoffset:0;stroke-opacity:1"
       id="path183894" />
    <path
       d="m 501.678,631.361 c -4.669,-3.196 -13.974,-10.54 -16.269,-17.354 -2.502,-7.428 -2.047,-20.659 14.33,-13.763"
       style="fill:none;stroke:#231f20;stroke-width:0.5;stroke-linecap:round;stroke-linejoin:round;stroke-miterlimit:4;stroke-dasharray:2.8, 1.8;stroke-dashoffset:0;stroke-opacity:1"
       id="path183896" />
    <path
       d="m 508.61,663.676 c 3.308,-0.16 4.095,-5.802 2.729,-10.676 -1.364,-4.874 -7.051,-11.605 -12.964,-9.98 -5.915,1.624 -4.779,7.195 -2.276,10.677 2.503,3.481 7.735,10.211 12.511,9.979 z"
       style="fill:none;stroke:#231f20;stroke-width:0.5;stroke-linecap:round;stroke-linejoin:round;stroke-miterlimit:4;stroke-dasharray:2.8, 1.8;stroke-dashoffset:0;stroke-opacity:1"
       id="path183898" />
    <path
       d="m 499.529,642.807 c -6.613,0.213 -17.077,-2.108 -20.033,-7.68 -3.058,-5.76 -1.165,-14.42 7.264,-18.234"
       style="fill:none;stroke:#231f20;stroke-width:0.5;stroke-linecap:round;stroke-linejoin:round;stroke-miterlimit:4;stroke-dasharray:2.8, 1.8;stroke-dashoffset:0;stroke-opacity:1"
       id="path183900" />
    <path
       d="m 509.748,646.27 c -1.592,-0.465 -5.11,-2.137 -5.11,-2.137"
       style="fill:none;stroke:#231f20;stroke-width:0.5;stroke-linecap:round;stroke-linejoin:round;stroke-miterlimit:4;stroke-dasharray:2.8, 1.8;stroke-dashoffset:0;stroke-opacity:1"
       id="path183902" />
    <path
       d="m 536.133,542.517 c -2.274,-6.963 -5.914,-26.691 0.455,-26.691 5.46,0 -0.455,26.691 -0.455,26.691 z"
       style="fill:none;stroke:#231f20;stroke-width:0.5;stroke-linecap:round;stroke-linejoin:round;stroke-miterlimit:4;stroke-dasharray:2.8, 1.8;stroke-dashoffset:0;stroke-opacity:1"
       id="path183904" />
    <path
       d="m 508.759,564.992 c 8.367,4.961 17.594,1.2 20.323,-1.585 2.73,-2.785 7.278,-9.748 4.322,-20.425 -2.957,-10.677 -8.486,-19.98 -10.953,-23.22 -2.467,-3.24 -13.926,-4.256 -18.389,-1.384 -4.691,3.018 -13.648,25.997 10.188,36.453"
       style="fill:none;stroke:#231f20;stroke-width:0.5;stroke-linecap:round;stroke-linejoin:round;stroke-miterlimit:4;stroke-dasharray:2.8, 1.8;stroke-dashoffset:0;stroke-opacity:1"
       id="path183906" />
    <path
       d="m 435.399,513.099 c -1.398,4.351 -5.946,14.565 -7.994,17.117 -2.046,2.553 -8.643,4.179 -13.419,4.642 -4.778,0.465 -15.668,0.755 -13.62,-3.423 2.047,-4.179 5.886,-14.447 10.207,-20.483"
       style="fill:none;stroke:#231f20;stroke-width:0.5;stroke-linecap:round;stroke-linejoin:round;stroke-miterlimit:4;stroke-dasharray:2.8, 1.8;stroke-dashoffset:0;stroke-opacity:1"
       id="path183908" />
    <path
       d="m 463.875,482.706 c -4.443,4.758 -7.457,13.981 -8.719,19.657 -1.138,5.107 -0.123,13.068 5.108,16.783 5.232,3.714 14.454,7.355 20.596,6.893 6.141,-0.464 13.646,-3.715 17.969,-15.552 4.322,-11.838 2.503,-23.442 -1.592,-28.084 -4.094,-4.644 -18.555,-14.98 -30.091,-3.312"
       style="fill:none;stroke:#231f20;stroke-width:0.5;stroke-linecap:round;stroke-linejoin:round;stroke-miterlimit:4;stroke-dasharray:2.8, 1.8;stroke-dashoffset:0;stroke-opacity:1"
       id="path183910" />
    <path
       d="m 384.805,649.375 c -1.301,-10.3 -4.713,-44.885 3.022,-65.543 7.734,-20.657 9.551,-39.922 28.432,-43.404 18.88,-3.481 29.797,6.036 30.026,16.248 0.227,10.212 -1.593,27.389 -7.507,44.565 -5.914,17.175 -17.286,37.137 -24.338,44.333 -7.052,7.194 -11.863,9.855 -16.606,10.444 -3.269,0.406 -10.233,1.156 -10.461,-7.195 -0.307,-11.154 -1.139,-36.905 2.046,-56.634 2.379,-14.733 10.908,-46.022 28.427,-52.024"
       style="fill:none;stroke:#231f20;stroke-width:0.5;stroke-linecap:round;stroke-linejoin:round;stroke-miterlimit:4;stroke-dasharray:2.8, 1.8;stroke-dashoffset:0;stroke-opacity:1"
       id="path183912" />
    <path
       d="m 392.263,570.718 c 2.159,-8.704 6.964,-34.769 7.743,-37.772 0.781,-3 -4.899,-7.141 -11.269,-6.907 -6.369,0.232 -33.101,0.866 -43.563,-3.313"
       style="fill:none;stroke:#231f20;stroke-width:0.5;stroke-linecap:round;stroke-linejoin:round;stroke-miterlimit:4;stroke-dasharray:2.8, 1.8;stroke-dashoffset:0;stroke-opacity:1"
       id="path183914" />
    <path
       d="m 399.241,536.539 c -0.648,3.255 -2.316,6.674 -7.775,7.603 -5.459,0.93 -27.685,4.447 -34.055,5.144"
       style="fill:none;stroke:#231f20;stroke-width:0.5;stroke-linecap:round;stroke-linejoin:round;stroke-miterlimit:4;stroke-dasharray:2.8, 1.8;stroke-dashoffset:0;stroke-opacity:1"
       id="path183916" />
    <path
       d="m 341.424,544.375 c 4.094,-0.929 16.962,-11.761 12.12,-19.459"
       style="fill:none;stroke:#231f20;stroke-width:0.5;stroke-linecap:round;stroke-linejoin:round;stroke-miterlimit:4;stroke-dasharray:2.8, 1.8;stroke-dashoffset:0;stroke-opacity:1"
       id="path183918" />
    <path
       d="m 331.099,526.842 c -1.959,5.696 -9.236,21.711 -14.241,20.782"
       style="fill:none;stroke:#231f20;stroke-width:0.5;stroke-linecap:round;stroke-linejoin:round;stroke-miterlimit:4;stroke-dasharray:2.8, 1.8;stroke-dashoffset:0;stroke-opacity:1"
       id="path183920" />
    <path
       d="m 319.715,604.258 c 4.451,-9.283 19.435,-12.765 25.348,-14.159 5.914,-1.392 13.421,-0.463 14.558,-3.714 1.136,-3.247 3.639,-12.997 4.094,-18.801 0.454,-5.801 0.455,-10.444 -3.412,-12.997 -3.868,-2.552 -16.604,-6.73 -22.973,-6.5 -6.37,0.235 -12.966,7.661 -19.108,15.32 -6.141,7.659 -7.506,18.337 -6.369,25.067 1.137,6.733 9.781,19.266 13.876,23.444 4.094,4.178 13.647,11.837 13.647,11.837 l -4.008,-0.232 c -6.142,-4.178 -14.644,-12.301 -16.692,-15.087 -2.047,-2.785 -7.019,-10.217 -8.642,-15.551"
       style="fill:none;stroke:#231f20;stroke-width:0.5;stroke-linecap:round;stroke-linejoin:round;stroke-miterlimit:4;stroke-dasharray:2.8, 1.8;stroke-dashoffset:0;stroke-opacity:1"
       id="path183922" />
    <path
       d="m 349.84,633.504 c 1.755,0.84 6.979,0.912 8.415,-5.107 1.593,-6.668 3.869,-14.855 4.323,-22.282 0.455,-7.427 2.274,-14.856 -2.957,-19.73"
       style="fill:none;stroke:#231f20;stroke-width:0.5;stroke-linecap:round;stroke-linejoin:round;stroke-miterlimit:4;stroke-dasharray:2.8, 1.8;stroke-dashoffset:0;stroke-opacity:1"
       id="path183924" />
    <path
       d="m 374.715,595.675 c 0.145,-2.547 -10.962,-5.582 -11.47,1.392"
       style="fill:none;stroke:#231f20;stroke-width:0.5;stroke-linecap:round;stroke-linejoin:round;stroke-miterlimit:4;stroke-dasharray:2.8, 1.8;stroke-dashoffset:0;stroke-opacity:1"
       id="path183926" />
    <path
       d="m 370.874,559.628 c -1.581,-2.349 -6.25,-4.577 -10.571,-5.041"
       style="fill:none;stroke:#231f20;stroke-width:0.5;stroke-linecap:round;stroke-linejoin:round;stroke-miterlimit:4;stroke-dasharray:2.8, 1.8;stroke-dashoffset:0;stroke-opacity:1"
       id="path183928" />
    <path
       d="m 309.806,573.621 c 2.275,-5.108 6.901,-13.121 11.373,-18.105 7.225,-8.049 12.739,-11.141 20.245,-11.141 7.506,0 18.197,6.035 22.746,8.356 4.55,2.32 8.872,8.819 10.463,16.942 1.591,8.125 -0.226,32.96 -1.136,41.083 -0.912,8.125 -7.961,26.926 -10.598,28.634"
       style="fill:none;stroke:#231f20;stroke-width:0.5;stroke-linecap:round;stroke-linejoin:round;stroke-miterlimit:4;stroke-dasharray:2.8, 1.8;stroke-dashoffset:0;stroke-opacity:1"
       id="path183930" />
    <path
       d="m 320.03,556.86 c 1.92,-2.189 0.012,-4.594 -0.897,-6.45 -0.911,-1.857 -3.638,-4.411 -6.142,-4.875"
       style="fill:none;stroke:#231f20;stroke-width:0.5;stroke-linecap:round;stroke-linejoin:round;stroke-miterlimit:4;stroke-dasharray:2.8, 1.8;stroke-dashoffset:0;stroke-opacity:1"
       id="path183932" />
    <path
       d="m 278.429,682.374 c 4.536,4.049 14.545,13.798 23.415,19.834 8.872,6.034 21.631,13.421 29.468,5.434"
       style="fill:none;stroke:#231f20;stroke-width:0.5;stroke-linecap:round;stroke-linejoin:round;stroke-miterlimit:4;stroke-dasharray:2.8, 1.8;stroke-dashoffset:0;stroke-opacity:1"
       id="path183934" />
    <path
       d="m 331.567,705.248 c -1.289,-3.969 -3.502,-8.458 -6.003,-11.708"
       style="fill:none;stroke:#231f20;stroke-width:0.5;stroke-linecap:round;stroke-linejoin:round;stroke-miterlimit:4;stroke-dasharray:2.8, 1.8;stroke-dashoffset:0;stroke-opacity:1"
       id="path183936" />
    <path
       d="m 317.995,683.638 c -1.366,-2.32 -2.746,-9.022 -0.35,-10.313"
       style="fill:none;stroke:#231f20;stroke-width:0.5;stroke-linecap:round;stroke-linejoin:round;stroke-miterlimit:4;stroke-dasharray:2.8, 1.8;stroke-dashoffset:0;stroke-opacity:1"
       id="path183938" />
    <path
       d="m 527.376,731.113 c -0.682,-3.838 -3.753,-10.106 -6.483,-9.061 -4.549,1.741 0,6.151 0.368,9.213"
       style="fill:none;stroke:#231f20;stroke-width:0.5;stroke-linecap:round;stroke-linejoin:round;stroke-miterlimit:4;stroke-dasharray:2.8, 1.8;stroke-dashoffset:0;stroke-opacity:1"
       id="path183940" />
    <path
       d="m 532.262,639.972 c 0,-3.915 0.459,-14.36 0.914,-19.234 0.455,-4.874 2.957,-7.427 6.824,-7.427 3.868,0 6.368,2.553 6.825,7.427 0.454,4.874 0.914,15.319 0.914,19.234"
       style="fill:none;stroke:#231f20;stroke-width:0.5;stroke-linecap:round;stroke-linejoin:round;stroke-miterlimit:4;stroke-dasharray:2.8, 1.8;stroke-dashoffset:0;stroke-opacity:1"
       id="path183942" />
    <path
       d="m 549.148,465.456 c 7.804,16.708 4.487,23.407 0.393,30.137"
       style="fill:none;stroke:#231f20;stroke-width:0.5;stroke-linecap:round;stroke-linejoin:round;stroke-miterlimit:4;stroke-dasharray:2.8, 1.8;stroke-dashoffset:0;stroke-opacity:1"
       id="path183944" />
    <path
       d="m 530.852,465.456 c -7.804,16.708 -4.485,23.407 -0.392,30.137"
       style="fill:none;stroke:#231f20;stroke-width:0.5;stroke-linecap:round;stroke-linejoin:round;stroke-miterlimit:4;stroke-dasharray:2.8, 1.8;stroke-dashoffset:0;stroke-opacity:1"
       id="path183946" />
    <path
       d="m 557.554,519.757 c 0.441,-10.256 -3.992,-21.414 -7.699,-24.686"
       style="fill:none;stroke:#231f20;stroke-width:0.5;stroke-linecap:round;stroke-linejoin:round;stroke-miterlimit:4;stroke-dasharray:2.8, 1.8;stroke-dashoffset:0;stroke-opacity:1"
       id="path183948" />
    <path
       d="m 530.146,495.071 c -3.708,3.27 -8.138,14.43 -7.699,24.688"
       style="fill:none;stroke:#231f20;stroke-width:0.5;stroke-linecap:round;stroke-linejoin:round;stroke-miterlimit:4;stroke-dasharray:2.8, 1.8;stroke-dashoffset:0;stroke-opacity:1"
       id="path183950" />
  </g>
</svg>
