<?xml version="1.0" encoding="UTF-8" standalone="no"?>
<!-- Created with Inkscape (http://www.inkscape.org/) -->

<svg
   version="1.1"
   id="svg190394"
   width="1440"
   height="1344"
   viewBox="0 0 1440 1344"
   xmlns="http://www.w3.org/2000/svg"
   xmlns:svg="http://www.w3.org/2000/svg">
  <defs
     id="defs190398" />
  <g
     id="g190402">
    <path
       d="m 700.154,717.526 c -7.196,-4.41 2.785,-16.944 8.589,-23.444 5.802,-6.498 15.318,-13.461 15.318,-13.461 -6.73,3.481 -12.302,3.481 -15.552,4.177 -3.249,0.697 -6.266,0.929 -10.908,5.803 -4.641,4.874 -9.284,6.035 -16.48,8.356 -7.196,2.321 -23.443,3.017 -23.443,3.017 11.374,6.5 -0.914,9.222 -0.914,9.222 24.168,-1.054 43.39,6.33 43.39,6.33 z m 51.295,-198.452 c 3.945,4.874 10.677,13.463 21.122,29.477 10.445,16.016 13.927,31.103 13.463,43.636 -0.464,12.534 -11.373,39.923 -11.373,39.923 9.515,-9.052 10.212,3.945 10.212,3.945 4.177,-13.926 6.266,-28.78 4.642,-52.687 -1.623,-23.908 -4.178,-33.657 -12.069,-46.886 -7.893,-13.231 -17.641,-22.049 -21.586,-26.227 -3.945,-4.177 -11.374,-13.463 -11.374,-13.463 0.928,2.785 -2.32,2.322 -2.32,2.322 9.981,11.606 9.283,19.96 9.283,19.96 z M 545.223,416.54 c 2.263,-0.173 5.048,0.348 5.048,0.348 2.263,-0.348 6.093,-1.218 10.619,-2.262 4.526,-1.044 11.141,3.133 11.141,3.133 1.219,-4.177 4.874,-4.526 8.008,-5.571 3.133,-1.044 9.749,-4.525 9.749,-4.525 2.785,-3.482 10.793,-11.49 19.496,-11.49 8.704,0 5.571,3.829 5.571,3.829 3.133,0.697 13.229,0.697 33.075,7.661 19.845,6.963 51.528,22.282 51.528,22.282 -4.178,-19.497 15.319,-17.757 15.319,-17.757 -11.489,-12.186 3.829,-27.853 12.185,-34.468 8.356,-6.614 22.979,-9.052 34.468,-8.355 11.489,0.696 20.89,-3.83 29.594,-6.267 8.704,-2.437 17.408,-3.481 30.29,-0.348 12.882,3.133 21.934,11.141 33.771,13.926 11.837,2.785 38.646,0.697 67.195,20.89 28.55,20.193 49.091,60.231 51.876,72.766 1.027,4.624 2.089,20.541 1.392,34.467 -0.696,13.926 -4.177,14.275 -6.266,17.408 -2.089,3.133 -7.194,8.957 0,15.319 9.052,8.008 21.933,25.067 19.844,87.389 -2.088,62.321 -15.318,113.152 -58.838,164.679 -43.52,51.529 -111.412,82.863 -160.502,97.486 -49.09,14.622 -121.16,17.755 -160.154,11.489 -38.994,-6.267 -55.735,-27.613 -63.539,-37.776 C 540,852.858 540,846.518 540,842.166 v -77.523 c 0,-40.85 27.157,-47.117 27.157,-47.117 -5.803,-0.233 -8.356,-3.018 -9.518,-5.571 -1.16,-2.553 -2.319,-3.713 -4.874,-4.874 -2.553,-1.162 -9.283,-4.178 -9.283,-12.999 0,-8.82 9.283,-9.98 9.283,-9.98 0.233,-0.928 1.393,-1.624 1.393,-1.624 0,0 -2.784,-1.394 -7.426,-3.715 -4.643,-2.321 -5.108,-6.498 -5.108,-10.677 0,-4.177 0.234,-5.337 -1.624,-5.337 -1.858,0 -1.624,1.16 -1.624,5.337 0,4.179 -0.464,8.356 -5.108,10.677 -4.642,2.321 -7.426,3.715 -7.426,3.715 0,0 1.16,0.696 1.393,1.624 0,0 9.284,1.16 9.284,9.98 0,8.821 -6.731,11.837 -9.284,12.999 -2.554,1.161 -3.714,2.321 -4.874,4.874 -1.161,2.553 -3.714,5.338 -9.517,5.571 0,0 27.156,6.267 27.156,47.117 v 77.523 c 0,4.352 0,10.692 -6.092,18.627 -7.803,10.163 -24.546,31.509 -63.539,37.776 -38.994,6.266 -111.064,3.133 -160.155,-11.489 -49.089,-14.623 -116.981,-45.957 -160.501,-97.486 -43.52,-51.527 -56.7509,-102.358 -58.84,-164.679 -2.0886,-62.322 10.794,-79.381 19.846,-87.389 7.193,-6.362 2.089,-12.186 0,-15.319 -2.089,-3.133 -5.571,-3.482 -6.267,-17.408 -0.697,-13.926 0.366,-29.843 1.393,-34.467 2.785,-12.535 23.326,-52.573 51.875,-72.766 28.55,-20.193 55.358,-18.105 67.196,-20.89 11.836,-2.785 20.889,-10.793 33.771,-13.926 12.882,-3.133 21.586,-2.089 30.29,0.348 8.704,2.437 18.105,6.963 29.594,6.267 11.489,-0.697 26.111,1.741 34.468,8.355 8.355,6.615 23.674,22.282 12.185,34.468 0,0 19.497,-1.74 15.319,17.757 0,0 31.682,-15.319 51.528,-22.282 19.845,-6.964 29.941,-6.964 33.075,-7.661 0,0 -3.134,-3.829 5.57,-3.829 8.704,0 16.712,8.008 19.497,11.49 0,0 6.616,3.481 9.748,4.525 3.134,1.045 6.79,1.394 8.008,5.571 0,0 6.615,-4.177 11.142,-3.133 4.526,1.044 8.355,1.914 10.619,2.262 0,0 2.785,-0.521 5.048,-0.348 2.263,0.174 5.222,1.219 5.222,1.219 0,0 2.96,-1.045 5.223,-1.219 z M 423.236,711.196 c 0,0 -12.287,-2.722 -0.914,-9.222 0,0 -16.246,-0.696 -23.442,-3.017 -7.196,-2.321 -11.838,-3.482 -16.481,-8.356 -4.642,-4.874 -7.659,-5.106 -10.908,-5.803 -3.249,-0.696 -8.822,-0.696 -15.552,-4.177 0,0 9.517,6.963 15.319,13.461 5.803,6.5 15.784,19.034 8.589,23.444 0,0 19.222,-7.384 43.389,-6.33 z M 337.834,499.114 c 0,0 -3.247,0.463 -2.319,-2.322 0,0 -7.429,9.286 -11.374,13.463 -3.945,4.178 -13.694,12.996 -21.586,26.227 -7.892,13.229 -10.446,22.978 -12.07,46.886 -1.624,23.907 0.466,38.761 4.643,52.687 0,0 0.697,-12.997 10.212,-3.945 0,0 -10.91,-27.389 -11.374,-39.923 -0.463,-12.533 3.019,-27.62 13.463,-43.636 10.446,-16.014 17.177,-24.603 21.122,-29.477 0,0 -0.697,-8.354 9.283,-19.96"
       style="fill:#ffffff;fill-opacity:1;fill-rule:nonzero;stroke:none;stroke-width:0.1"
       id="path191062" />
    <path
       d="m 700.154,717.526 c -7.196,-4.41 2.785,-16.944 8.589,-23.444 5.802,-6.498 15.318,-13.461 15.318,-13.461 -6.73,3.481 -12.302,3.481 -15.552,4.177 -3.249,0.697 -6.266,0.929 -10.908,5.803 -4.641,4.874 -9.284,6.035 -16.48,8.356 -7.196,2.321 -23.443,3.017 -23.443,3.017 11.374,6.5 -0.914,9.222 -0.914,9.222 24.168,-1.054 43.39,6.33 43.39,6.33 z m 51.295,-198.452 c 3.945,4.874 10.677,13.463 21.122,29.477 10.445,16.016 13.927,31.103 13.463,43.636 -0.464,12.534 -11.373,39.923 -11.373,39.923 9.515,-9.052 10.212,3.945 10.212,3.945 4.177,-13.926 6.266,-28.78 4.642,-52.687 -1.623,-23.908 -4.178,-33.657 -12.069,-46.886 -7.893,-13.231 -17.641,-22.049 -21.586,-26.227 -3.945,-4.177 -11.374,-13.463 -11.374,-13.463 0.928,2.785 -2.32,2.322 -2.32,2.322 9.981,11.606 9.283,19.96 9.283,19.96 z M 545.223,416.54 c 2.263,-0.173 5.048,0.348 5.048,0.348 2.263,-0.348 6.093,-1.218 10.619,-2.262 4.526,-1.044 11.141,3.133 11.141,3.133 1.219,-4.177 4.874,-4.526 8.008,-5.571 3.133,-1.044 9.749,-4.525 9.749,-4.525 2.785,-3.482 10.793,-11.49 19.496,-11.49 8.704,0 5.571,3.829 5.571,3.829 3.133,0.697 13.229,0.697 33.075,7.661 19.845,6.963 51.528,22.282 51.528,22.282 -4.178,-19.497 15.319,-17.757 15.319,-17.757 -11.489,-12.186 3.829,-27.853 12.185,-34.468 8.356,-6.614 22.979,-9.052 34.468,-8.355 11.489,0.696 20.89,-3.83 29.594,-6.267 8.704,-2.437 17.408,-3.481 30.29,-0.348 12.882,3.133 21.934,11.141 33.771,13.926 11.837,2.785 38.646,0.697 67.195,20.89 28.55,20.193 49.091,60.231 51.876,72.766 1.027,4.624 2.089,20.541 1.392,34.467 -0.696,13.926 -4.177,14.275 -6.266,17.408 -2.089,3.133 -7.194,8.957 0,15.319 9.052,8.008 21.933,25.067 19.844,87.389 -2.088,62.321 -15.318,113.152 -58.838,164.679 -43.52,51.529 -111.412,82.863 -160.502,97.486 -49.09,14.622 -121.16,17.755 -160.154,11.489 -38.994,-6.267 -55.735,-27.613 -63.539,-37.776 C 540,852.858 540,846.518 540,842.166 v -77.523 c 0,-40.85 27.157,-47.117 27.157,-47.117 -5.803,-0.233 -8.356,-3.018 -9.518,-5.571 -1.16,-2.553 -2.319,-3.713 -4.874,-4.874 -2.553,-1.162 -9.283,-4.178 -9.283,-12.999 0,-8.82 9.283,-9.98 9.283,-9.98 0.233,-0.928 1.393,-1.624 1.393,-1.624 0,0 -2.784,-1.394 -7.426,-3.715 -4.643,-2.321 -5.108,-6.498 -5.108,-10.677 0,-4.177 0.234,-5.337 -1.624,-5.337 -1.858,0 -1.624,1.16 -1.624,5.337 0,4.179 -0.464,8.356 -5.108,10.677 -4.642,2.321 -7.426,3.715 -7.426,3.715 0,0 1.16,0.696 1.393,1.624 0,0 9.284,1.16 9.284,9.98 0,8.821 -6.731,11.837 -9.284,12.999 -2.554,1.161 -3.714,2.321 -4.874,4.874 -1.161,2.553 -3.714,5.338 -9.517,5.571 0,0 27.156,6.267 27.156,47.117 v 77.523 c 0,4.352 0,10.692 -6.092,18.627 -7.803,10.163 -24.546,31.509 -63.539,37.776 -38.994,6.266 -111.064,3.133 -160.155,-11.489 -49.089,-14.623 -116.981,-45.957 -160.501,-97.486 -43.52,-51.527 -56.7509,-102.358 -58.84,-164.679 -2.0886,-62.322 10.794,-79.381 19.846,-87.389 7.193,-6.362 2.089,-12.186 0,-15.319 -2.089,-3.133 -5.571,-3.482 -6.267,-17.408 -0.697,-13.926 0.366,-29.843 1.393,-34.467 2.785,-12.535 23.326,-52.573 51.875,-72.766 28.55,-20.193 55.358,-18.105 67.196,-20.89 11.836,-2.785 20.889,-10.793 33.771,-13.926 12.882,-3.133 21.586,-2.089 30.29,0.348 8.704,2.437 18.105,6.963 29.594,6.267 11.489,-0.697 26.111,1.741 34.468,8.355 8.355,6.615 23.674,22.282 12.185,34.468 0,0 19.497,-1.74 15.319,17.757 0,0 31.682,-15.319 51.528,-22.282 19.845,-6.964 29.941,-6.964 33.075,-7.661 0,0 -3.134,-3.829 5.57,-3.829 8.704,0 16.712,8.008 19.497,11.49 0,0 6.616,3.481 9.748,4.525 3.134,1.045 6.79,1.394 8.008,5.571 0,0 6.615,-4.177 11.142,-3.133 4.526,1.044 8.355,1.914 10.619,2.262 0,0 2.785,-0.521 5.048,-0.348 2.263,0.174 5.222,1.219 5.222,1.219 0,0 2.96,-1.045 5.223,-1.219 z M 423.236,711.196 c 0,0 -12.287,-2.722 -0.914,-9.222 0,0 -16.246,-0.696 -23.442,-3.017 -7.196,-2.321 -11.838,-3.482 -16.481,-8.356 -4.642,-4.874 -7.659,-5.106 -10.908,-5.803 -3.249,-0.696 -8.822,-0.696 -15.552,-4.177 0,0 9.517,6.963 15.319,13.461 5.803,6.5 15.784,19.034 8.589,23.444 0,0 19.222,-7.384 43.389,-6.33 z M 337.834,499.114 c 0,0 -3.247,0.463 -2.319,-2.322 0,0 -7.429,9.286 -11.374,13.463 -3.945,4.178 -13.694,12.996 -21.586,26.227 -7.892,13.229 -10.446,22.978 -12.07,46.886 -1.624,23.907 0.466,38.761 4.643,52.687 0,0 0.697,-12.997 10.212,-3.945 0,0 -10.91,-27.389 -11.374,-39.923 -0.463,-12.533 3.019,-27.62 13.463,-43.636 10.446,-16.014 17.177,-24.603 21.122,-29.477 0,0 -0.697,-8.354 9.283,-19.96 z"
       style="fill:none;stroke:#231f20;stroke-width:0.75;stroke-linecap:round;stroke-linejoin:round;stroke-miterlimit:4;stroke-dasharray:none;stroke-opacity:1"
       id="path191064" />
    <path
       d="m 691.566,708.009 c 0,-1.538 -1.351,-2.786 -3.017,-2.786 -1.666,0 -3.016,1.248 -3.016,2.786 0,1.538 1.35,2.785 3.016,2.785 1.666,0 3.017,-1.247 3.017,-2.785"
       style="fill:#ffffff;fill-opacity:1;fill-rule:nonzero;stroke:none;stroke-width:0.1"
       id="path191066" />
    <path
       d="m 691.566,708.009 c 0,-1.538 -1.351,-2.786 -3.017,-2.786 -1.666,0 -3.016,1.248 -3.016,2.786 0,1.538 1.35,2.785 3.016,2.785 1.666,0 3.017,-1.247 3.017,-2.785 z"
       style="fill:none;stroke:#231f20;stroke-width:0.5;stroke-linecap:butt;stroke-linejoin:miter;stroke-miterlimit:4;stroke-dasharray:none;stroke-opacity:1"
       id="path191068" />
    <path
       d="m 723.6,458.611 c -0.244,-2.247 -1.794,-4.069 -3.46,-4.069 -1.666,0 -2.82,1.822 -2.575,4.069 0.244,2.246 1.794,4.069 3.46,4.069 1.666,0 2.819,-1.823 2.575,-4.069 z"
       style="fill:none;stroke:#231f20;stroke-width:0.5;stroke-linecap:butt;stroke-linejoin:miter;stroke-miterlimit:4;stroke-dasharray:none;stroke-opacity:1"
       id="path191070" />
    <path
       d="m 699.458,429.945 c 5.106,3.715 16.168,13.063 18.761,25.681"
       style="fill:none;stroke:#231f20;stroke-width:0.75;stroke-linecap:round;stroke-linejoin:round;stroke-miterlimit:4;stroke-dasharray:none;stroke-opacity:1"
       id="path191072" />
    <path
       d="m 742.166,499.114 c -3.018,-3.25 -5.106,-9.052 -6.267,-12.533 -1.161,-3.482 -2.785,-7.429 -4.178,-9.287 0,0 5.106,1.162 7.891,5.805 3.737,6.229 2.089,8.122 4.874,13.693"
       style="fill:none;stroke:#231f20;stroke-width:0.5;stroke-linecap:butt;stroke-linejoin:miter;stroke-miterlimit:4;stroke-dasharray:none;stroke-opacity:1"
       id="path191074" />
    <path
       d="m 731.721,477.294 c -3.251,-4.177 -5.378,-8.342 -10.696,-14.614"
       style="fill:none;stroke:#231f20;stroke-width:0.75;stroke-linecap:round;stroke-linejoin:round;stroke-miterlimit:4;stroke-dasharray:none;stroke-opacity:1"
       id="path191076" />
    <path
       d="m 724.061,680.621 c 10.445,-5.107 17.871,-10.677 26.691,-18.336 8.822,-7.661 14.392,-13.696 23.909,-30.175"
       style="fill:none;stroke:#231f20;stroke-width:0.75;stroke-linecap:round;stroke-linejoin:round;stroke-miterlimit:4;stroke-dasharray:none;stroke-opacity:1"
       id="path191078" />
    <path
       d="m 567.157,717.526 c 12.534,0.231 34.814,1.159 42.939,0.231 8.125,-0.927 17.177,-4.177 25.3,-4.41 8.123,-0.231 14.42,-1.285 21.368,-2.151"
       style="fill:none;stroke:#231f20;stroke-width:0.75;stroke-linecap:round;stroke-linejoin:round;stroke-miterlimit:4;stroke-dasharray:none;stroke-opacity:1"
       id="path191080" />
    <path
       d="m 552.765,684.102 c -0.928,1.654 0.931,2.786 6.036,6.035 5.106,3.249 12.766,7.892 28.549,9.284 15.783,1.393 33.889,3.017 43.404,2.786 9.516,-0.233 21.122,-2.089 26.924,-0.233"
       style="fill:none;stroke:#231f20;stroke-width:0.5;stroke-linecap:butt;stroke-linejoin:miter;stroke-miterlimit:4;stroke-dasharray:none;stroke-opacity:1"
       id="path191082" />
    <path
       d="m 554.158,682.478 c 10.91,3.713 17.873,6.963 40.851,6.498 22.979,-0.464 61.986,-7.892 74.055,-10.909"
       style="fill:none;stroke:#231f20;stroke-width:0.5;stroke-linecap:butt;stroke-linejoin:miter;stroke-miterlimit:4;stroke-dasharray:none;stroke-opacity:1"
       id="path191084" />
    <path
       d="m 707.844,757.98 c -1.424,-2.94 -1.424,-6.103 -1.424,-8.424 0,-2.321 -0.232,-2.785 -12.997,-11.838 -12.764,-9.052 -34.816,-12.765 -46.885,-13.926 -12.071,-1.161 -41.547,1.393 -41.78,6.5 -0.232,5.105 11.141,9.748 31.334,14.158 20.194,4.411 17.176,0.696 38.762,19.961 21.586,19.264 26.925,20.889 46.422,22.747 19.497,1.856 34.351,-3.482 47.581,-8.124 30.488,-10.699 66.615,-26.228 92.146,-67.079 31.155,-49.847 36.442,-75.667 41.316,-101.663 4.875,-25.996 1.856,-47.35 -0.929,-78.916 -2.785,-31.566 -5.106,-36.673 -16.014,-58.722 -10.91,-22.051 -28.55,-34.585 -47.584,-44.102 -19.033,-9.514 -32.261,-13.926 -49.669,-19.96 -17.409,-6.035 -25.997,-11.14 -28.318,-13.464 -2.322,-2.32 0.929,-2.785 1.858,-2.088 0.928,0.696 16.015,6.732 28.78,10.678 12.765,3.948 43.868,17.64 56.171,23.442 10.328,4.871 37.832,16.711 50.598,53.154 6.914,19.733 11.518,49.009 14.623,80.308 2.921,29.465 4.785,60.715 -1.856,87.503 -13.694,55.242 -32.727,82.63 -56.635,105.145 -8.965,8.441 -20.787,18.373 -32.96,25.764 -20.287,12.317 -41.052,20.222 -47.58,21.818 -10.445,2.554 -55.938,12.997 -74.507,15.319 -18.568,2.322 -53.385,6.267 -61.508,7.195 -8.123,0.928 -9.047,0.482 -13.463,-4.178 -4.178,-4.409 -7.195,-10.677 -9.284,-20.193 -2.088,-9.517 -8.355,-20.658 -11.14,-29.014 -2.785,-8.356 -4.644,-20.192 5.105,-23.442 9.748,-3.249 19.962,-2.553 28.085,-2.089"
       style="fill:none;stroke:#231f20;stroke-width:0.5;stroke-linecap:butt;stroke-linejoin:miter;stroke-miterlimit:4;stroke-dasharray:none;stroke-opacity:1"
       id="path191086" />
    <path
       d="m 603.037,749.95 c 10.309,-0.625 34.45,-2.715 45.822,5.641 11.372,8.356 19.497,25.995 38.065,33.191 15.471,5.996 37.068,7.8 49.883,7.028"
       style="fill:none;stroke:#231f20;stroke-width:0.5;stroke-linecap:butt;stroke-linejoin:miter;stroke-miterlimit:4;stroke-dasharray:none;stroke-opacity:1"
       id="path191088" />
    <path
       d="m 606.366,749.74 c 0.017,9.333 1.874,23.723 6.052,31.15 4.177,7.428 8.355,15.552 13.23,21.586 4.874,6.035 19.497,12.07 28.085,12.303 8.589,0.231 32.031,-2.554 40.387,-3.25"
       style="fill:none;stroke:#231f20;stroke-width:0.5;stroke-linecap:butt;stroke-linejoin:miter;stroke-miterlimit:4;stroke-dasharray:none;stroke-opacity:1"
       id="path191090" />
    <path
       d="m 657.678,793.656 c 9.749,4.411 21.819,6.964 40.619,5.803 18.801,-1.161 33.395,-3.131 38.514,-3.65 2.563,-0.155 4.773,-0.412 6.515,-0.76 10.445,-2.09 51.529,-17.872 76.132,-33.191 24.602,-15.319 43.171,-40.619 58.954,-70.097 15.783,-29.476 25.401,-62.971 29.246,-92.842 3.017,-23.444 -4.875,-86.11 -8.357,-101.198 -3.481,-15.088 -13.925,-44.795 -38.064,-59.186 -24.141,-14.392 -25.302,-14.161 -37.37,-19.035 -4.766,-1.923 -15.731,-6.7 -26.576,-10.619 -16.828,-6.082 -28.724,-9.575 -38.06,-15.721"
       style="fill:none;stroke:#231f20;stroke-width:0.75;stroke-linecap:round;stroke-linejoin:round;stroke-miterlimit:4;stroke-dasharray:none;stroke-opacity:1"
       id="path191092" />
    <path
       d="m 476.964,749.95 c -10.31,-0.625 -34.45,-2.715 -45.822,5.641 -11.373,8.356 -19.497,25.995 -38.065,33.191 -15.472,5.996 -37.069,7.8 -49.884,7.028"
       style="fill:none;stroke:#231f20;stroke-width:0.5;stroke-linecap:butt;stroke-linejoin:miter;stroke-miterlimit:4;stroke-dasharray:none;stroke-opacity:1"
       id="path191094" />
    <path
       d="m 422.322,793.656 c -9.748,4.411 -21.819,6.964 -40.619,5.803 -18.8,-1.161 -33.395,-3.131 -38.514,-3.65 -2.563,-0.155 -4.771,-0.412 -6.514,-0.76 -10.445,-2.09 -51.529,-17.872 -76.132,-33.191 -24.602,-15.319 -43.171,-40.619 -58.955,-70.097 -15.782,-29.476 -25.4,-62.971 -29.245,-92.842 -3.017,-23.444 4.874,-86.11 8.356,-101.198 3.482,-15.088 13.926,-44.795 38.065,-59.186 24.14,-14.392 25.302,-14.161 37.37,-19.035 4.766,-1.923 15.73,-6.7 26.576,-10.619 16.828,-6.082 28.723,-9.575 38.06,-15.721"
       style="fill:none;stroke:#231f20;stroke-width:0.75;stroke-linecap:round;stroke-linejoin:round;stroke-miterlimit:4;stroke-dasharray:none;stroke-opacity:1"
       id="path191096" />
    <path
       d="m 714.777,412.188 c 3.017,3.134 8.82,12.651 14.159,18.453 5.338,5.805 11.604,13.23 21.12,16.481 9.518,3.25 32.495,10.213 52.457,19.962 19.962,9.748 31.333,21.817 40.153,36.905 8.822,15.085 13.696,34.814 10.678,68.005 -3.017,33.192 -10.908,67.079 -15.086,84.952 -4.178,17.872 -7.891,29.246 -20.889,42.243 -12.999,12.998 -33.192,28.549 -53.617,29.71 -20.426,1.16 -45.261,0.464 -63.598,-11.373"
       style="fill:none;stroke:#231f20;stroke-width:0.5;stroke-linecap:butt;stroke-linejoin:miter;stroke-miterlimit:4;stroke-dasharray:none;stroke-opacity:1"
       id="path191098" />
    <path
       d="M 540,604.954 V 573.156"
       style="fill:none;stroke:#231f20;stroke-width:0.75;stroke-linecap:round;stroke-linejoin:round;stroke-miterlimit:4;stroke-dasharray:none;stroke-opacity:1"
       id="path191100" />
    <path
       d="m 593.153,607.506 -13.926,-7.194 c 0,0 0.928,-8.125 0.928,-10.91 0,-2.785 0.232,-5.337 2.321,-3.713 2.089,1.624 14.856,9.053 10.677,21.817 z"
       style="fill:none;stroke:#231f20;stroke-width:0.5;stroke-linecap:butt;stroke-linejoin:miter;stroke-miterlimit:4;stroke-dasharray:none;stroke-opacity:1"
       id="path191102" />
    <path
       d="m 577.464,637.391 c 5.244,-5.977 10.118,-12.012 15.689,-29.885 0,0 18.104,1.625 33.424,4.178 15.319,2.554 38.528,8.125 42.707,9.518 4.177,1.392 20.658,8.587 30.87,30.173"
       style="fill:none;stroke:#231f20;stroke-width:0.5;stroke-linecap:butt;stroke-linejoin:miter;stroke-miterlimit:4;stroke-dasharray:none;stroke-opacity:1"
       id="path191104" />
    <path
       d="m 784.884,600.187 c -5.002,6.274 -10.572,12.542 -16.665,18.286 -6.093,5.745 -13.23,11.663 -15.842,16.538 -2.61,4.874 -7.31,15.668 -10.966,20.542 -3.656,4.874 -15.319,10.967 -24.023,15.841 -8.704,4.874 -18.974,8.878 -19.323,9.749"
       style="fill:none;stroke:#231f20;stroke-width:0.5;stroke-linecap:butt;stroke-linejoin:miter;stroke-miterlimit:4;stroke-dasharray:none;stroke-opacity:1"
       id="path191106" />
    <path
       d="m 666.801,620.476 c -1.551,-0.413 -6.685,1.131 -15.389,5.831 -8.704,4.7 -17.756,8.878 -28.202,13.404 -10.444,4.527 -19.323,9.053 -25.416,11.838 -6.092,2.785 -14.274,5.048 -12.359,9.748 1.915,4.701 19.497,4.874 34.12,3.482 14.622,-1.393 37.253,-7.486 45.261,-17.582 8.008,-10.097 14.927,-20.786 9.813,-23.623"
       style="fill:none;stroke:#231f20;stroke-width:0.5;stroke-linecap:butt;stroke-linejoin:miter;stroke-miterlimit:4;stroke-dasharray:none;stroke-opacity:1"
       id="path191108" />
    <path
       d="m 607.01,647.173 c 7.496,-7.288 27.69,-29.742 39.005,-31.658"
       style="fill:none;stroke:#231f20;stroke-width:0.5;stroke-linecap:butt;stroke-linejoin:miter;stroke-miterlimit:4;stroke-dasharray:none;stroke-opacity:1"
       id="path191110" />
    <path
       d="m 580.814,585.428 c -1.994,-2.293 -2.863,-6.46 -3.734,-7.863 -2.002,-3.221 -7.759,-9.164 -8.878,-11.315 -1.132,-2.176 -1.393,-4.004 -1.393,-4.004"
       style="fill:none;stroke:#231f20;stroke-width:0.5;stroke-linecap:butt;stroke-linejoin:miter;stroke-miterlimit:4;stroke-dasharray:none;stroke-opacity:1"
       id="path191112" />
    <path
       d="m 551.664,512.632 c 2.029,-0.184 2.785,2.438 3.656,5.745 0.87,3.308 1.74,12.882 2.089,15.145 0.347,2.264 1.131,4.787 4.004,8.182 2.547,3.013 5.256,7.306 6.44,10.967 1.197,3.704 1.045,9.226 -1.044,9.575 -2.09,0.347 -2.555,-6.114 -3.656,-9.053 -1.567,-4.178 -3.655,-6.093 -5.223,-8.704 -1.566,-2.611 -4.508,-7.955 -5.222,-13.578 -1.063,-8.376 -2.959,-18.104 -1.044,-18.279 z"
       style="fill:none;stroke:#231f20;stroke-width:0.5;stroke-linecap:butt;stroke-linejoin:miter;stroke-miterlimit:4;stroke-dasharray:none;stroke-opacity:1"
       id="path191114" />
    <path
       d="m 572.031,417.759 c -0.523,2.612 -0.523,5.048 0.522,6.267 1.045,1.219 5.223,2.785 8.531,0.522 2.873,-1.966 3.481,-2.96 3.481,-2.96 0,0 -0.174,-3.132 2.263,-4.525 2.437,-1.393 5.229,-2.421 8.873,-2.101 0,0 -4.72,-5.252 -6.883,-6.796"
       style="fill:none;stroke:#231f20;stroke-width:0.5;stroke-linecap:butt;stroke-linejoin:miter;stroke-miterlimit:4;stroke-dasharray:none;stroke-opacity:1"
       id="path191116" />
    <path
       d="m 592.718,411.857 c 3.684,-3.847 8.384,-7.851 11.692,-9.243 3.307,-1.393 6.615,-2.612 10.445,-2.612"
       style="fill:none;stroke:#231f20;stroke-width:0.5;stroke-linecap:butt;stroke-linejoin:miter;stroke-miterlimit:4;stroke-dasharray:none;stroke-opacity:1"
       id="path191118" />
    <path
       d="m 565.439,414.881 c -0.197,4.097 -0.371,11.582 -5.768,12.279 -5.396,0.696 -8.355,-1.045 -8.877,-2.96 -0.523,-1.915 -0.014,-4.614 -0.523,-7.312"
       style="fill:none;stroke:#231f20;stroke-width:0.5;stroke-linecap:butt;stroke-linejoin:miter;stroke-miterlimit:4;stroke-dasharray:none;stroke-opacity:1"
       id="path191120" />
    <path
       d="m 552.069,480.776 c 1.817,0.606 2.554,5.105 0.931,12.999 -1.627,7.891 -3.948,17.408 -7.661,19.265 0,0 2.785,-5.108 3.482,-15.087 0.697,-9.98 1.159,-17.873 3.248,-17.177 z"
       style="fill:none;stroke:#231f20;stroke-width:0.5;stroke-linecap:butt;stroke-linejoin:miter;stroke-miterlimit:4;stroke-dasharray:none;stroke-opacity:1"
       id="path191122" />
    <path
       d="m 585.725,452.46 c 1.651,-3.065 6.731,-2.788 14.856,2.321 8.124,5.105 15.784,10.675 19.729,12.764 3.945,2.09 18.335,11.142 23.905,17.409 5.572,6.267 16.712,20.424 12.071,26.925 -3.749,5.249 -12.372,8.18 -19.961,1.393 -4.41,-3.947 -10.447,-10.211 -15.088,-15.551 -4.642,-5.339 -10.211,-14.856 -14.854,-19.034 -4.643,-4.178 -15.088,-13.924 -17.64,-16.478 -2.553,-2.554 -4.643,-6.732 -3.018,-9.749 z"
       style="fill:none;stroke:#231f20;stroke-width:0.5;stroke-linecap:butt;stroke-linejoin:miter;stroke-miterlimit:4;stroke-dasharray:none;stroke-opacity:1"
       id="path191124" />
    <path
       d="m 610.137,482.832 c 5.298,1.66 14.205,1.078 15.511,4.21 2.289,5.493 -8.72,5.098 -3.649,11.547"
       style="fill:none;stroke:#231f20;stroke-width:0.5;stroke-linecap:butt;stroke-linejoin:miter;stroke-miterlimit:4;stroke-dasharray:none;stroke-opacity:1"
       id="path191126" />
    <path
       d="m 388.435,708.009 c 0,-1.538 1.351,-2.786 3.017,-2.786 1.666,0 3.016,1.248 3.016,2.786 0,1.538 -1.35,2.785 -3.016,2.785 -1.666,0 -3.017,-1.247 -3.017,-2.785"
       style="fill:#ffffff;fill-opacity:1;fill-rule:nonzero;stroke:none;stroke-width:0.1"
       id="path191128" />
    <path
       d="m 388.435,708.009 c 0,-1.538 1.351,-2.786 3.017,-2.786 1.666,0 3.016,1.248 3.016,2.786 0,1.538 -1.35,2.785 -3.016,2.785 -1.666,0 -3.017,-1.247 -3.017,-2.785 z"
       style="fill:none;stroke:#231f20;stroke-width:0.5;stroke-linecap:butt;stroke-linejoin:miter;stroke-miterlimit:4;stroke-dasharray:none;stroke-opacity:1"
       id="path191130" />
    <path
       d="m 356.4,458.611 c 0.245,-2.247 1.794,-4.069 3.46,-4.069 1.666,0 2.821,1.822 2.576,4.069 -0.245,2.246 -1.794,4.069 -3.46,4.069 -1.666,0 -2.819,-1.823 -2.576,-4.069 z"
       style="fill:none;stroke:#231f20;stroke-width:0.5;stroke-linecap:butt;stroke-linejoin:miter;stroke-miterlimit:4;stroke-dasharray:none;stroke-opacity:1"
       id="path191132" />
    <path
       d="m 380.543,429.945 c -5.107,3.715 -16.169,13.063 -18.761,25.681"
       style="fill:none;stroke:#231f20;stroke-width:0.75;stroke-linecap:round;stroke-linejoin:round;stroke-miterlimit:4;stroke-dasharray:none;stroke-opacity:1"
       id="path191134" />
    <path
       d="m 337.834,499.114 c 3.019,-3.25 5.106,-9.052 6.268,-12.533 1.161,-3.482 2.785,-7.429 4.178,-9.287 0,0 -5.106,1.162 -7.891,5.805 -3.737,6.229 -2.089,8.122 -4.874,13.693"
       style="fill:none;stroke:#231f20;stroke-width:0.5;stroke-linecap:butt;stroke-linejoin:miter;stroke-miterlimit:4;stroke-dasharray:none;stroke-opacity:1"
       id="path191136" />
    <path
       d="m 348.28,477.294 c 3.25,-4.177 5.377,-8.342 10.696,-14.614"
       style="fill:none;stroke:#231f20;stroke-width:0.75;stroke-linecap:round;stroke-linejoin:round;stroke-miterlimit:4;stroke-dasharray:none;stroke-opacity:1"
       id="path191138" />
    <path
       d="m 355.939,680.621 c -10.444,-5.107 -17.87,-10.677 -26.691,-18.336 -8.821,-7.661 -14.392,-13.696 -23.908,-30.175"
       style="fill:none;stroke:#231f20;stroke-width:0.75;stroke-linecap:round;stroke-linejoin:round;stroke-miterlimit:4;stroke-dasharray:none;stroke-opacity:1"
       id="path191140" />
    <path
       d="m 512.844,717.526 c -12.534,0.231 -34.815,1.159 -42.939,0.231 -8.125,-0.927 -17.177,-4.177 -25.301,-4.41 -8.123,-0.231 -14.42,-1.285 -21.368,-2.151"
       style="fill:none;stroke:#231f20;stroke-width:0.75;stroke-linecap:round;stroke-linejoin:round;stroke-miterlimit:4;stroke-dasharray:none;stroke-opacity:1"
       id="path191142" />
    <path
       d="m 527.235,684.102 c 0.928,1.654 -0.929,2.786 -6.035,6.035 -5.107,3.249 -12.767,7.892 -28.549,9.284 -15.783,1.393 -33.889,3.017 -43.404,2.786 -9.517,-0.233 -21.121,-2.089 -26.925,-0.233"
       style="fill:none;stroke:#231f20;stroke-width:0.5;stroke-linecap:butt;stroke-linejoin:miter;stroke-miterlimit:4;stroke-dasharray:none;stroke-opacity:1"
       id="path191144" />
    <path
       d="m 525.842,682.478 c -10.909,3.713 -17.873,6.963 -40.851,6.498 -22.979,-0.464 -61.985,-7.892 -74.055,-10.909"
       style="fill:none;stroke:#231f20;stroke-width:0.5;stroke-linecap:butt;stroke-linejoin:miter;stroke-miterlimit:4;stroke-dasharray:none;stroke-opacity:1"
       id="path191146" />
    <path
       d="m 540,642.788 c -9.052,0 -22.05,-2.323 -35.048,-4.874 -12.997,-2.553 -25.299,-9.286 -27.157,-2.787 -1.858,6.5 12.999,11.606 24.371,14.391 11.373,2.785 31.102,5.339 37.834,5.339 6.732,0 26.461,-2.554 37.834,-5.339 11.373,-2.785 26.229,-7.891 24.372,-14.391 -1.859,-6.499 -14.16,0.234 -27.157,2.787 -12.998,2.551 -25.997,4.874 -35.049,4.874 z"
       style="fill:none;stroke:#231f20;stroke-width:0.5;stroke-linecap:butt;stroke-linejoin:miter;stroke-miterlimit:4;stroke-dasharray:none;stroke-opacity:1"
       id="path191148" />
    <path
       d="m 372.156,757.98 c 1.424,-2.94 1.424,-6.103 1.424,-8.424 0,-2.321 0.232,-2.785 12.998,-11.838 12.764,-9.052 34.815,-12.765 46.885,-13.926 12.071,-1.161 41.547,1.393 41.78,6.5 0.232,5.105 -11.142,9.748 -31.335,14.158 -20.193,4.411 -17.175,0.696 -38.761,19.961 -21.586,19.264 -26.926,20.889 -46.423,22.747 -19.496,1.856 -34.35,-3.482 -47.58,-8.124 -30.489,-10.699 -66.616,-26.228 -92.147,-67.079 -31.154,-49.847 -36.442,-75.667 -41.316,-101.663 -4.874,-25.996 -1.856,-47.35 0.929,-78.916 2.785,-31.566 5.107,-36.673 16.016,-58.722 10.908,-22.051 28.548,-34.585 47.582,-44.102 19.033,-9.514 32.262,-13.926 49.669,-19.96 17.409,-6.035 25.998,-11.14 28.319,-13.464 2.321,-2.32 -0.929,-2.785 -1.858,-2.088 -0.929,0.696 -16.015,6.732 -28.78,10.678 -12.766,3.948 -43.868,17.64 -56.171,23.442 -10.328,4.871 -37.833,16.711 -50.598,53.154 -6.913,19.733 -11.519,49.009 -14.623,80.308 -2.922,29.465 -4.785,60.715 1.856,87.503 13.693,55.242 32.727,82.63 56.635,105.145 8.965,8.441 20.787,18.373 32.959,25.764 20.287,12.317 41.052,20.222 47.581,21.818 10.445,2.554 55.938,12.997 74.506,15.319 18.568,2.322 53.385,6.267 61.508,7.195 8.124,0.928 9.047,0.482 13.463,-4.178 4.178,-4.409 7.195,-10.677 9.284,-20.193 2.088,-9.517 8.356,-20.658 11.141,-29.014 2.785,-8.356 4.643,-20.192 -5.105,-23.442 -9.749,-3.249 -19.962,-2.553 -28.086,-2.089"
       style="fill:none;stroke:#231f20;stroke-width:0.5;stroke-linecap:butt;stroke-linejoin:miter;stroke-miterlimit:4;stroke-dasharray:none;stroke-opacity:1"
       id="path191150" />
    <path
       d="m 473.635,749.74 c -0.017,9.333 -1.874,23.723 -6.051,31.15 -4.179,7.428 -8.357,15.552 -13.231,21.586 -4.874,6.035 -19.497,12.07 -28.086,12.303 -8.588,0.231 -32.03,-2.554 -40.386,-3.25"
       style="fill:none;stroke:#231f20;stroke-width:0.5;stroke-linecap:butt;stroke-linejoin:miter;stroke-miterlimit:4;stroke-dasharray:none;stroke-opacity:1"
       id="path191152" />
    <path
       d="m 365.224,412.188 c -3.017,3.134 -8.821,12.651 -14.159,18.453 -5.338,5.805 -11.604,13.23 -21.121,16.481 -9.517,3.25 -32.494,10.213 -52.456,19.962 -19.962,9.748 -31.333,21.817 -40.154,36.905 -8.822,15.085 -13.696,34.814 -10.677,68.005 3.017,33.192 10.908,67.079 15.086,84.952 4.177,17.872 7.89,29.246 20.889,42.243 12.999,12.998 33.191,28.549 53.617,29.71 20.426,1.16 45.261,0.464 63.598,-11.373"
       style="fill:none;stroke:#231f20;stroke-width:0.5;stroke-linecap:butt;stroke-linejoin:miter;stroke-miterlimit:4;stroke-dasharray:none;stroke-opacity:1"
       id="path191154" />
    <path
       d="m 486.847,607.506 13.927,-7.194 c 0,0 -0.928,-8.125 -0.928,-10.91 0,-2.785 -0.232,-5.337 -2.321,-3.713 -2.089,1.624 -14.856,9.053 -10.678,21.817 z"
       style="fill:none;stroke:#231f20;stroke-width:0.5;stroke-linecap:butt;stroke-linejoin:miter;stroke-miterlimit:4;stroke-dasharray:none;stroke-opacity:1"
       id="path191156" />
    <path
       d="m 502.537,637.391 c -5.245,-5.977 -10.119,-12.012 -15.69,-29.885 0,0 -18.104,1.625 -33.423,4.178 -15.319,2.554 -38.529,8.125 -42.707,9.518 -4.177,1.392 -20.658,8.587 -30.87,30.173"
       style="fill:none;stroke:#231f20;stroke-width:0.5;stroke-linecap:butt;stroke-linejoin:miter;stroke-miterlimit:4;stroke-dasharray:none;stroke-opacity:1"
       id="path191158" />
    <path
       d="m 295.116,600.187 c 5.002,6.274 10.573,12.542 16.666,18.286 6.093,5.745 13.229,11.663 15.841,16.538 2.611,4.874 7.311,15.668 10.966,20.542 3.657,4.874 15.32,10.967 24.024,15.841 8.704,4.874 18.974,8.878 19.323,9.749"
       style="fill:none;stroke:#231f20;stroke-width:0.5;stroke-linecap:butt;stroke-linejoin:miter;stroke-miterlimit:4;stroke-dasharray:none;stroke-opacity:1"
       id="path191160" />
    <path
       d="m 413.2,620.476 c 1.551,-0.413 6.685,1.131 15.389,5.831 8.704,4.7 17.756,8.878 28.202,13.404 10.444,4.527 19.322,9.053 25.415,11.838 6.092,2.785 14.274,5.048 12.359,9.748 -1.914,4.701 -19.496,4.874 -34.119,3.482 -14.623,-1.393 -37.253,-7.486 -45.261,-17.582 -8.008,-10.097 -14.928,-20.786 -9.813,-23.623"
       style="fill:none;stroke:#231f20;stroke-width:0.5;stroke-linecap:butt;stroke-linejoin:miter;stroke-miterlimit:4;stroke-dasharray:none;stroke-opacity:1"
       id="path191162" />
    <path
       d="M 472.991,647.173 C 465.494,639.885 445.3,617.431 433.986,615.515"
       style="fill:none;stroke:#231f20;stroke-width:0.5;stroke-linecap:butt;stroke-linejoin:miter;stroke-miterlimit:4;stroke-dasharray:none;stroke-opacity:1"
       id="path191164" />
    <path
       d="m 499.187,585.428 c 1.993,-2.293 2.862,-6.46 3.734,-7.863 2.002,-3.221 7.759,-9.164 8.878,-11.315 1.132,-2.176 1.393,-4.004 1.393,-4.004"
       style="fill:none;stroke:#231f20;stroke-width:0.5;stroke-linecap:butt;stroke-linejoin:miter;stroke-miterlimit:4;stroke-dasharray:none;stroke-opacity:1"
       id="path191166" />
    <path
       d="m 528.337,512.632 c -2.029,-0.184 -2.786,2.438 -3.656,5.745 -0.87,3.308 -1.74,12.882 -2.089,15.145 -0.347,2.264 -1.132,4.787 -4.004,8.182 -2.548,3.013 -5.257,7.306 -6.44,10.967 -1.197,3.704 -1.045,9.226 1.044,9.575 2.089,0.347 2.554,-6.114 3.656,-9.053 1.567,-4.178 3.655,-6.093 5.222,-8.704 1.567,-2.611 4.509,-7.955 5.222,-13.578 1.064,-8.376 2.96,-18.104 1.045,-18.279 z"
       style="fill:none;stroke:#231f20;stroke-width:0.5;stroke-linecap:butt;stroke-linejoin:miter;stroke-miterlimit:4;stroke-dasharray:none;stroke-opacity:1"
       id="path191168" />
    <path
       d="m 507.969,417.759 c 0.523,2.612 0.523,5.048 -0.521,6.267 -1.045,1.219 -5.223,2.785 -8.53,0.522 -2.875,-1.966 -3.482,-2.96 -3.482,-2.96 0,0 0.174,-3.132 -2.264,-4.525 -2.436,-1.393 -5.228,-2.421 -8.872,-2.101 0,0 4.719,-5.252 6.883,-6.796"
       style="fill:none;stroke:#231f20;stroke-width:0.5;stroke-linecap:butt;stroke-linejoin:miter;stroke-miterlimit:4;stroke-dasharray:none;stroke-opacity:1"
       id="path191170" />
    <path
       d="m 487.283,411.857 c -3.685,-3.847 -8.385,-7.851 -11.693,-9.243 -3.307,-1.393 -6.614,-2.612 -10.444,-2.612"
       style="fill:none;stroke:#231f20;stroke-width:0.5;stroke-linecap:butt;stroke-linejoin:miter;stroke-miterlimit:4;stroke-dasharray:none;stroke-opacity:1"
       id="path191172" />
    <path
       d="m 514.561,414.881 c 0.197,4.097 0.372,11.582 5.769,12.279 5.396,0.696 8.355,-1.045 8.878,-2.96 0.522,-1.915 0.013,-4.614 0.522,-7.312"
       style="fill:none;stroke:#231f20;stroke-width:0.5;stroke-linecap:butt;stroke-linejoin:miter;stroke-miterlimit:4;stroke-dasharray:none;stroke-opacity:1"
       id="path191174" />
    <path
       d="m 527.932,480.776 c -1.816,0.606 -2.556,5.105 -0.93,12.999 1.626,7.891 3.946,17.408 7.659,19.265 0,0 -2.785,-5.108 -3.482,-15.087 -0.696,-9.98 -1.158,-17.873 -3.247,-17.177 z"
       style="fill:none;stroke:#231f20;stroke-width:0.5;stroke-linecap:butt;stroke-linejoin:miter;stroke-miterlimit:4;stroke-dasharray:none;stroke-opacity:1"
       id="path191176" />
    <path
       d="m 494.276,452.46 c -1.651,-3.065 -6.731,-2.788 -14.856,2.321 -8.125,5.105 -15.784,10.675 -19.729,12.764 -3.945,2.09 -18.336,11.142 -23.906,17.409 -5.571,6.267 -16.712,20.424 -12.07,26.925 3.749,5.249 12.371,8.18 19.96,1.393 4.411,-3.947 10.447,-10.211 15.088,-15.551 4.642,-5.339 10.211,-14.856 14.855,-19.034 4.642,-4.178 15.088,-13.924 17.64,-16.478 2.553,-2.554 4.643,-6.732 3.018,-9.749 z"
       style="fill:none;stroke:#231f20;stroke-width:0.5;stroke-linecap:butt;stroke-linejoin:miter;stroke-miterlimit:4;stroke-dasharray:none;stroke-opacity:1"
       id="path191178" />
    <path
       d="m 469.864,482.832 c -5.299,1.66 -14.205,1.078 -15.511,4.21 -2.289,5.493 8.719,5.098 3.648,11.547"
       style="fill:none;stroke:#231f20;stroke-width:0.5;stroke-linecap:butt;stroke-linejoin:miter;stroke-miterlimit:4;stroke-dasharray:none;stroke-opacity:1"
       id="path191180" />
    <path
       d="m 570.957,570.313 c 13.608,-4.238 18.098,-27.546 15.348,-36.442 -2.959,-9.575 -15.144,-25.416 -34.641,-21.239"
       style="fill:none;stroke:#231f20;stroke-width:0.25;stroke-linecap:butt;stroke-linejoin:miter;stroke-miterlimit:4;stroke-dasharray:none;stroke-opacity:1"
       id="path191182" />
    <path
       d="m 509.044,570.313 c -13.608,-4.238 -18.099,-27.546 -15.349,-36.442 2.96,-9.575 15.145,-25.416 34.642,-21.239"
       style="fill:none;stroke:#231f20;stroke-width:0.25;stroke-linecap:butt;stroke-linejoin:miter;stroke-miterlimit:4;stroke-dasharray:none;stroke-opacity:1"
       id="path191184" />
    <path
       d="m 702.641,783.865 c -4.112,-8.777 -7.907,-23.597 13.679,-44.487"
       style="fill:none;stroke:#231f20;stroke-width:0.5;stroke-linecap:round;stroke-linejoin:round;stroke-miterlimit:4;stroke-dasharray:2.8, 1.8;stroke-dashoffset:0;stroke-opacity:1"
       id="path191186" />
    <path
       d="m 757.252,376.097 c -2.785,5.571 -2.552,12.765 1.979,17.063"
       style="fill:none;stroke:#231f20;stroke-width:0.5;stroke-linecap:round;stroke-linejoin:round;stroke-miterlimit:4;stroke-dasharray:2.8, 1.8;stroke-dashoffset:0;stroke-opacity:1"
       id="path191188" />
    <path
       d="m 884.86,456.614 64.848,-31.517"
       style="fill:none;stroke:#231f20;stroke-width:0.5;stroke-linecap:round;stroke-linejoin:round;stroke-miterlimit:4;stroke-dasharray:2.8, 1.8;stroke-dashoffset:0;stroke-opacity:1"
       id="path191190" />
    <path
       d="m 906.621,520.058 68.781,-13.002"
       style="fill:none;stroke:#231f20;stroke-width:0.5;stroke-linecap:round;stroke-linejoin:round;stroke-miterlimit:4;stroke-dasharray:2.8, 1.8;stroke-dashoffset:0;stroke-opacity:1"
       id="path191192" />
    <path
       d="m 910.963,552.26 63.801,-8.891"
       style="fill:none;stroke:#231f20;stroke-width:0.5;stroke-linecap:round;stroke-linejoin:round;stroke-miterlimit:4;stroke-dasharray:2.8, 1.8;stroke-dashoffset:0;stroke-opacity:1"
       id="path191194" />
    <path
       d="m 913.47,579.406 72.549,-8.089"
       style="fill:none;stroke:#231f20;stroke-width:0.5;stroke-linecap:round;stroke-linejoin:round;stroke-miterlimit:4;stroke-dasharray:2.8, 1.8;stroke-dashoffset:0;stroke-opacity:1"
       id="path191196" />
    <path
       d="m 914.492,606.114 74.726,-3.485"
       style="fill:none;stroke:#231f20;stroke-width:0.5;stroke-linecap:round;stroke-linejoin:round;stroke-miterlimit:4;stroke-dasharray:2.8, 1.8;stroke-dashoffset:0;stroke-opacity:1"
       id="path191198" />
    <path
       d="m 912.58,634.704 75.75,6.019"
       style="fill:none;stroke:#231f20;stroke-width:0.5;stroke-linecap:round;stroke-linejoin:round;stroke-miterlimit:4;stroke-dasharray:2.8, 1.8;stroke-dashoffset:0;stroke-opacity:1"
       id="path191200" />
    <path
       d="m 888.302,707.852 71.44,39.095"
       style="fill:none;stroke:#231f20;stroke-width:0.5;stroke-linecap:round;stroke-linejoin:round;stroke-miterlimit:4;stroke-dasharray:2.8, 1.8;stroke-dashoffset:0;stroke-opacity:1"
       id="path191202" />
    <path
       d="m 874.965,729.157 65.163,48.12"
       style="fill:none;stroke:#231f20;stroke-width:0.5;stroke-linecap:round;stroke-linejoin:round;stroke-miterlimit:4;stroke-dasharray:2.8, 1.8;stroke-dashoffset:0;stroke-opacity:1"
       id="path191204" />
    <path
       d="m 819.123,779.793 36.787,70.219"
       style="fill:none;stroke:#231f20;stroke-width:0.5;stroke-linecap:round;stroke-linejoin:round;stroke-miterlimit:4;stroke-dasharray:2.8, 1.8;stroke-dashoffset:0;stroke-opacity:1"
       id="path191206" />
    <path
       d="m 703.852,815.37 10.738,82.644"
       style="fill:none;stroke:#231f20;stroke-width:0.5;stroke-linecap:round;stroke-linejoin:round;stroke-miterlimit:4;stroke-dasharray:2.8, 1.8;stroke-dashoffset:0;stroke-opacity:1"
       id="path191208" />
    <path
       d="m 667.881,819.798 5.131,81.505"
       style="fill:none;stroke:#231f20;stroke-width:0.5;stroke-linecap:round;stroke-linejoin:round;stroke-miterlimit:4;stroke-dasharray:2.8, 1.8;stroke-dashoffset:0;stroke-opacity:1"
       id="path191210" />
    <path
       d="m 634.952,823.562 -9.788,76.866"
       style="fill:none;stroke:#231f20;stroke-width:0.5;stroke-linecap:round;stroke-linejoin:round;stroke-miterlimit:4;stroke-dasharray:2.8, 1.8;stroke-dashoffset:0;stroke-opacity:1"
       id="path191212" />
    <path
       d="m 620.255,815.277 -66.19,55.077"
       style="fill:none;stroke:#231f20;stroke-width:0.5;stroke-linecap:round;stroke-linejoin:round;stroke-miterlimit:4;stroke-dasharray:2.8, 1.8;stroke-dashoffset:0;stroke-opacity:1"
       id="path191214" />
    <path
       d="m 540,782.515 68.139,0.175"
       style="fill:none;stroke:#231f20;stroke-width:0.5;stroke-linecap:round;stroke-linejoin:round;stroke-miterlimit:4;stroke-dasharray:2.8, 1.8;stroke-dashoffset:0;stroke-opacity:1"
       id="path191216" />
    <path
       d="m 560.773,720.275 42.264,29.675"
       style="fill:none;stroke:#231f20;stroke-width:0.5;stroke-linecap:round;stroke-linejoin:round;stroke-miterlimit:4;stroke-dasharray:2.8, 1.8;stroke-dashoffset:0;stroke-opacity:1"
       id="path191218" />
    <path
       d="m 596.633,718.155 c 0,0 5.107,9.35 8.125,12.137"
       style="fill:none;stroke:#231f20;stroke-width:0.5;stroke-linecap:round;stroke-linejoin:round;stroke-miterlimit:4;stroke-dasharray:2.8, 1.8;stroke-dashoffset:0;stroke-opacity:1"
       id="path191220" />
    <path
       d="m 697.307,716.556 c -0.635,6.54 3.311,12.11 8.881,16.984 5.571,4.876 12.534,6.963 21.818,9.285 9.286,2.321 22.05,5.803 31.103,3.017 9.052,-2.785 40.387,-15.319 61.509,-38.529 21.122,-23.211 32.262,-51.064 39.226,-90.523 6.963,-39.456 7.196,-42.706 6.963,-70.095 -0.232,-27.389 -2.089,-42.01 -8.589,-49.67 -6.499,-7.659 -20.191,-12.536 -30.405,-12.302"
       style="fill:none;stroke:#231f20;stroke-width:0.5;stroke-linecap:round;stroke-linejoin:round;stroke-miterlimit:4;stroke-dasharray:2.8, 1.8;stroke-dashoffset:0;stroke-opacity:1"
       id="path191222" />
    <path
       d="m 862.97,506.189 c -1.967,-8.701 -0.11,-28.43 8.479,-32.143"
       style="fill:none;stroke:#231f20;stroke-width:0.5;stroke-linecap:round;stroke-linejoin:round;stroke-miterlimit:4;stroke-dasharray:2.8, 1.8;stroke-dashoffset:0;stroke-opacity:1"
       id="path191224" />
    <path
       d="m 941,429.33 c -6.882,0.848 -36.825,5.492 -52.143,5.026 -15.319,-0.465 -27.017,-1.022 -33.586,-2.948"
       style="fill:none;stroke:#231f20;stroke-width:0.5;stroke-linecap:round;stroke-linejoin:round;stroke-miterlimit:4;stroke-dasharray:2.8, 1.8;stroke-dashoffset:0;stroke-opacity:1"
       id="path191226" />
    <path
       d="m 812.351,412.072 c -3.339,-3.945 -1.25,-17.871 9.195,-18.798 10.445,-0.931 6.962,4.178 41.314,1.854 34.352,-2.32 59.419,8.125 71.025,23.675 11.606,15.553 17.641,25.533 23.211,37.602 5.57,12.071 9.75,19.5 9.981,28.783 0.231,9.283 -0.399,23.565 -0.399,23.565"
       style="fill:none;stroke:#231f20;stroke-width:0.5;stroke-linecap:round;stroke-linejoin:round;stroke-miterlimit:4;stroke-dasharray:2.8, 1.8;stroke-dashoffset:0;stroke-opacity:1"
       id="path191228" />
    <path
       d="m 872.36,475.59 c 0.838,1.573 1.686,3.288 2.57,5.186 7.893,16.945 12.302,26.926 14.623,57.331 2.321,30.405 2.785,36.672 0.697,55.473 -2.089,18.8 -6.5,37.834 -16.945,62.901 -10.445,25.067 -12.998,33.424 -24.139,48.279 -11.141,14.855 -20.425,25.299 -23.907,29.477 -3.481,4.179 -11.141,9.749 -27.853,17.873 -16.711,8.123 -36.904,18.336 -45.725,19.728 -8.819,1.393 -20.711,3.939 -24.371,1.393 -4.004,-2.785 -7.659,-6.731 -9.748,-9.284 -2.089,-2.553 -7.196,-9.284 -9.285,-7.659 -2.089,1.624 3.017,9.284 8.356,13.926 5.339,4.642 10.676,8.82 19.497,7.891 8.821,-0.928 16.711,-0.929 22.515,-3.249 5.803,-2.321 12.766,-5.57 28.316,-12.766 15.55,-7.196 38.532,-19.033 46.422,-30.87 7.891,-11.838 16.944,-20.426 22.514,-29.478 7.325,-11.904 24.371,-44.795 29.245,-62.436 4.875,-17.64 12.071,-45.958 10.214,-83.095 -1.857,-37.137 -7.892,-60.812 -19.033,-79.613 l -3.963,-1.008"
       style="fill:#b2b1b1;fill-opacity:1;fill-rule:nonzero;stroke:none;stroke-width:0.1"
       id="path191230" />
    <path
       d="m 872.36,475.59 c 0.838,1.573 1.686,3.288 2.57,5.186 7.893,16.945 12.302,26.926 14.623,57.331 2.321,30.405 2.785,36.672 0.697,55.473 -2.089,18.8 -6.5,37.834 -16.945,62.901 -10.445,25.067 -12.998,33.424 -24.139,48.279 -11.141,14.855 -20.425,25.299 -23.907,29.477 -3.481,4.179 -11.141,9.749 -27.853,17.873 -16.711,8.123 -36.904,18.336 -45.725,19.728 -8.819,1.393 -20.711,3.939 -24.371,1.393 -4.004,-2.785 -7.659,-6.731 -9.748,-9.284 -2.089,-2.553 -7.196,-9.284 -9.285,-7.659 -2.089,1.624 3.017,9.284 8.356,13.926 5.339,4.642 10.676,8.82 19.497,7.891 8.821,-0.928 16.711,-0.929 22.515,-3.249 5.803,-2.321 12.766,-5.57 28.316,-12.766 15.55,-7.196 38.532,-19.033 46.422,-30.87 7.891,-11.838 16.944,-20.426 22.514,-29.478 7.325,-11.904 24.371,-44.795 29.245,-62.436 4.875,-17.64 12.071,-45.958 10.214,-83.095 -1.857,-37.137 -7.892,-60.812 -19.033,-79.613 z"
       style="fill:none;stroke:#231f20;stroke-width:0.5;stroke-linecap:round;stroke-linejoin:round;stroke-miterlimit:4;stroke-dasharray:2.8, 1.8;stroke-dashoffset:0;stroke-opacity:1"
       id="path191232" />
    <path
       d="m 786.382,387.483 c -6.926,-2.299 -8.935,-11.849 -1.741,-15.099 7.194,-3.251 13.695,-4.877 29.245,-2.554 15.551,2.32 22.748,6.732 22.282,12.069 -0.464,5.339 -9.052,11.375 -19.961,10.679 -10.909,-0.697 -28.084,-3.251 -41.314,-9.286 -13.23,-6.034 -25.531,-11.374 -35.513,-6.964 -9.981,4.412 -13.695,12.999 -7.891,21.586 5.803,8.589 21.122,21.82 44.1,28.086 22.979,6.267 47.35,7.891 66.847,21.586 17.314,12.161 23.279,15.536 29.924,28.004"
       style="fill:none;stroke:#231f20;stroke-width:0.5;stroke-linecap:round;stroke-linejoin:round;stroke-miterlimit:4;stroke-dasharray:2.8, 1.8;stroke-dashoffset:0;stroke-opacity:1"
       id="path191234" />
    <path
       d="m 876.323,476.598 c 0,0 8.063,1.781 12.619,3.329"
       style="fill:none;stroke:#231f20;stroke-width:0.5;stroke-linecap:round;stroke-linejoin:round;stroke-miterlimit:4;stroke-dasharray:2.8, 1.8;stroke-dashoffset:0;stroke-opacity:1"
       id="path191236" />
    <path
       d="m 706.953,436.374 c -0.069,-5.964 0.86,-11.998 4.342,-11.766 3.482,0.231 9.051,5.105 15.783,13.461 6.732,8.356 18.568,21.121 35.512,27.157 16.945,6.035 37.834,12.068 50.368,20.89 12.534,8.82 20.657,23.905 24.138,35.975 3.482,12.071 5.805,23.908 4.644,25.764 -1.162,1.856 -3.484,3.481 -4.644,-0.232 -1.16,-3.713 -6.498,-24.603 -10.676,-33.19 -4.177,-8.59 -14.159,-25.067 -29.477,-30.176 -15.319,-5.105 -35.977,-10.91 -47.815,-17.638 -11.836,-6.733 -20.192,-16.016 -27.156,-23.21 -6.963,-7.198 -8.769,-12.257 -11.373,-11.142 -1.626,0.696 -0.36,7.726 -0.36,7.726"
       style="fill:#b2b1b1;fill-opacity:1;fill-rule:nonzero;stroke:none;stroke-width:0.1"
       id="path191238" />
    <path
       d="m 706.953,436.374 c -0.069,-5.964 0.86,-11.998 4.342,-11.766 3.482,0.231 9.051,5.105 15.783,13.461 6.732,8.356 18.568,21.121 35.512,27.157 16.945,6.035 37.834,12.068 50.368,20.89 12.534,8.82 20.657,23.905 24.138,35.975 3.482,12.071 5.805,23.908 4.644,25.764 -1.162,1.856 -3.484,3.481 -4.644,-0.232 -1.16,-3.713 -6.498,-24.603 -10.676,-33.19 -4.177,-8.59 -14.159,-25.067 -29.477,-30.176 -15.319,-5.105 -35.977,-10.91 -47.815,-17.638 -11.836,-6.733 -20.192,-16.016 -27.156,-23.21 -6.963,-7.198 -8.769,-12.257 -11.373,-11.142 -1.626,0.696 -0.36,7.726 -0.36,7.726"
       style="fill:none;stroke:#231f20;stroke-width:0.5;stroke-linecap:round;stroke-linejoin:round;stroke-miterlimit:4;stroke-dasharray:2.8, 1.8;stroke-dashoffset:0;stroke-opacity:1"
       id="path191240" />
    <path
       d="m 770.847,665.642 c 7.719,-8.46 11.223,-15.012 14.026,-29.587"
       style="fill:none;stroke:#231f20;stroke-width:0.5;stroke-linecap:round;stroke-linejoin:round;stroke-miterlimit:4;stroke-dasharray:2.8, 1.8;stroke-dashoffset:0;stroke-opacity:1"
       id="path191242" />
    <path
       d="m 770.847,665.642 c 1.74,1.034 1.491,5.231 -3.383,9.872 -4.874,4.642 -13.23,12.766 -19.961,16.247 -6.73,3.483 -18.798,6.964 -17.174,11.606 1.623,4.642 15.085,6.266 28.084,4.642 12.998,-1.625 32.494,-9.749 43.171,-22.978 10.677,-13.231 14.855,-24.139 16.248,-29.014 1.393,-4.874 2.322,-9.052 4.411,-8.82 2.089,0.232 2.089,4.41 0.696,10.445 -1.393,6.035 -4.874,19.265 -18.337,31.799 -13.463,12.533 -30.173,24.139 -47.117,24.835 -16.944,0.696 -24.373,-1.857 -29.015,-3.018 -4.641,-1.16 -7.426,-2.321 -15.55,-1.856 0,0 4.874,-12.767 13.694,-15.32 8.82,-2.552 24.604,-8.587 37.834,-21.817 2.413,-2.414 4.529,-4.574 6.399,-6.623"
       style="fill:#b2b1b1;fill-opacity:1;fill-rule:nonzero;stroke:none;stroke-width:0.1"
       id="path191244" />
    <path
       d="m 770.847,665.642 c 1.74,1.034 1.491,5.231 -3.383,9.872 -4.874,4.642 -13.23,12.766 -19.961,16.247 -6.73,3.483 -18.798,6.964 -17.174,11.606 1.623,4.642 15.085,6.266 28.084,4.642 12.998,-1.625 32.494,-9.749 43.171,-22.978 10.677,-13.231 14.855,-24.139 16.248,-29.014 1.393,-4.874 2.322,-9.052 4.411,-8.82 2.089,0.232 2.089,4.41 0.696,10.445 -1.393,6.035 -4.874,19.265 -18.337,31.799 -13.463,12.533 -30.173,24.139 -47.117,24.835 -16.944,0.696 -24.373,-1.857 -29.015,-3.018 -4.641,-1.16 -7.426,-2.321 -15.55,-1.856 0,0 4.874,-12.767 13.694,-15.32 8.82,-2.552 24.604,-8.587 37.834,-21.817 2.413,-2.414 4.529,-4.574 6.399,-6.623 z"
       style="fill:none;stroke:#231f20;stroke-width:0.5;stroke-linecap:round;stroke-linejoin:round;stroke-miterlimit:4;stroke-dasharray:2.8, 1.8;stroke-dashoffset:0;stroke-opacity:1"
       id="path191246" />
    <path
       d="m 790.908,675.05 c 14.391,-15.088 19.728,-37.37 23.21,-57.796 3.481,-20.423 6.036,-32.726 3.947,-53.847 -2.385,-24.112 -7.893,-37.138 -25.765,-56.633 -17.871,-19.497 -27.156,-18.801 -26.924,-20.89 0.231,-2.089 15.319,2.785 34.12,12.533 18.799,9.749 26.692,27.156 27.852,28.781 1.16,1.626 2.785,26.691 2.785,26.691 0.233,9.285 0.233,34.585 -1.16,47.816 -1.392,13.229 -5.463,40.176 -7.489,45.62"
       style="fill:none;stroke:#231f20;stroke-width:0.5;stroke-linecap:round;stroke-linejoin:round;stroke-miterlimit:4;stroke-dasharray:2.8, 1.8;stroke-dashoffset:0;stroke-opacity:1"
       id="path191248" />
    <path
       d="m 790.908,675.05 c 14.391,-26.692 18.568,-66.383 20.193,-79.845 1.626,-13.462 3.017,-29.942 -2.321,-49.903 -5.543,-20.728 -16.712,-32.495 -22.979,-38.993 -6.266,-6.501 -22.514,-21.355 -28.085,-27.157 -5.571,-5.805 -9.516,-7.659 -11.373,-5.106 -1.856,2.555 5.338,11.373 12.766,19.729 7.427,8.355 28.781,27.388 37.37,41.779 8.588,14.392 9.283,41.78 6.267,68.703 -3.017,26.924 -6.733,40.387 -19.73,62.205 -12.998,21.819 -23.907,21.586 -20.657,25.532 3.25,3.945 14.157,-1.857 28.549,-16.944"
       style="fill:#b2b1b1;fill-opacity:1;fill-rule:nonzero;stroke:none;stroke-width:0.1"
       id="path191250" />
    <path
       d="m 790.908,675.05 c 14.391,-26.692 18.568,-66.383 20.193,-79.845 1.626,-13.462 3.017,-29.942 -2.321,-49.903 -5.543,-20.728 -16.712,-32.495 -22.979,-38.993 -6.266,-6.501 -22.514,-21.355 -28.085,-27.157 -5.571,-5.805 -9.516,-7.659 -11.373,-5.106 -1.856,2.555 5.338,11.373 12.766,19.729 7.427,8.355 28.781,27.388 37.37,41.779 8.588,14.392 9.283,41.78 6.267,68.703 -3.017,26.924 -6.733,40.387 -19.73,62.205 -12.998,21.819 -23.907,21.586 -20.657,25.532 3.25,3.945 14.157,-1.857 28.549,-16.944 z"
       style="fill:none;stroke:#231f20;stroke-width:0.5;stroke-linecap:round;stroke-linejoin:round;stroke-miterlimit:4;stroke-dasharray:2.8, 1.8;stroke-dashoffset:0;stroke-opacity:1"
       id="path191252" />
    <path
       d="m 827.348,527.198 c 0,0 7.755,10.587 8.288,15.273"
       style="fill:none;stroke:#231f20;stroke-width:0.5;stroke-linecap:round;stroke-linejoin:round;stroke-miterlimit:4;stroke-dasharray:2.8, 1.8;stroke-dashoffset:0;stroke-opacity:1"
       id="path191254" />
    <path
       d="m 767.663,692.808 c 6.534,-0.35 30.764,-9.166 51.259,-40.618"
       style="fill:none;stroke:#231f20;stroke-width:0.5;stroke-linecap:round;stroke-linejoin:round;stroke-miterlimit:4;stroke-dasharray:2.8, 1.8;stroke-dashoffset:0;stroke-opacity:1"
       id="path191256" />
    <path
       d="m 377.359,783.865 c 4.113,-8.777 7.907,-23.597 -13.679,-44.487"
       style="fill:none;stroke:#231f20;stroke-width:0.5;stroke-linecap:round;stroke-linejoin:round;stroke-miterlimit:4;stroke-dasharray:2.8, 1.8;stroke-dashoffset:0;stroke-opacity:1"
       id="path191258" />
    <path
       d="m 382.693,716.556 c 0.636,6.54 -3.31,12.11 -8.881,16.984 -5.57,4.876 -12.533,6.963 -21.818,9.285 -9.284,2.321 -22.05,5.803 -31.102,3.017 -9.052,-2.785 -40.387,-15.319 -61.509,-38.529 -21.122,-23.211 -32.263,-51.064 -39.226,-90.523 -6.963,-39.456 -7.196,-42.706 -6.963,-70.095 0.232,-27.389 2.089,-42.01 8.588,-49.67 6.5,-7.659 20.192,-12.536 30.406,-12.302"
       style="fill:none;stroke:#231f20;stroke-width:0.5;stroke-linecap:round;stroke-linejoin:round;stroke-miterlimit:4;stroke-dasharray:2.8, 1.8;stroke-dashoffset:0;stroke-opacity:1"
       id="path191260" />
    <path
       d="m 217.03,506.189 c 1.967,-8.701 0.11,-28.43 -8.478,-32.143"
       style="fill:none;stroke:#231f20;stroke-width:0.5;stroke-linecap:round;stroke-linejoin:round;stroke-miterlimit:4;stroke-dasharray:2.8, 1.8;stroke-dashoffset:0;stroke-opacity:1"
       id="path191262" />
    <path
       d="m 207.641,475.59 c -0.838,1.573 -1.686,3.288 -2.57,5.186 -7.893,16.945 -12.302,26.926 -14.623,57.331 -2.322,30.405 -2.785,36.672 -0.697,55.473 2.089,18.8 6.499,37.834 16.945,62.901 10.444,25.067 12.997,33.424 24.138,48.279 11.141,14.855 20.426,25.299 23.908,29.477 3.481,4.179 11.14,9.749 27.852,17.873 16.712,8.123 36.906,18.336 45.725,19.728 8.819,1.393 20.712,3.939 24.371,1.393 4.004,-2.785 7.66,-6.731 9.749,-9.284 2.089,-2.553 7.195,-9.284 9.284,-7.659 2.089,1.624 -3.016,9.284 -8.355,13.926 -5.34,4.642 -10.676,8.82 -19.497,7.891 -8.822,-0.928 -16.712,-0.929 -22.515,-3.249 -5.804,-2.321 -12.767,-5.57 -28.316,-12.766 -15.551,-7.196 -38.533,-19.033 -46.423,-30.87 -7.891,-11.838 -16.943,-20.426 -22.513,-29.478 -7.325,-11.904 -24.372,-44.795 -29.246,-62.436 -4.874,-17.64 -12.071,-45.958 -10.214,-83.095 1.858,-37.137 7.893,-60.812 19.033,-79.613 l 3.964,-1.008"
       style="fill:#b2b1b1;fill-opacity:1;fill-rule:nonzero;stroke:none;stroke-width:0.1"
       id="path191264" />
    <path
       d="m 207.641,475.59 c -0.838,1.573 -1.686,3.288 -2.57,5.186 -7.893,16.945 -12.302,26.926 -14.623,57.331 -2.322,30.405 -2.785,36.672 -0.697,55.473 2.089,18.8 6.499,37.834 16.945,62.901 10.444,25.067 12.997,33.424 24.138,48.279 11.141,14.855 20.426,25.299 23.908,29.477 3.481,4.179 11.14,9.749 27.852,17.873 16.712,8.123 36.906,18.336 45.725,19.728 8.819,1.393 20.712,3.939 24.371,1.393 4.004,-2.785 7.66,-6.731 9.749,-9.284 2.089,-2.553 7.195,-9.284 9.284,-7.659 2.089,1.624 -3.016,9.284 -8.355,13.926 -5.34,4.642 -10.676,8.82 -19.497,7.891 -8.822,-0.928 -16.712,-0.929 -22.515,-3.249 -5.804,-2.321 -12.767,-5.57 -28.316,-12.766 -15.551,-7.196 -38.533,-19.033 -46.423,-30.87 -7.891,-11.838 -16.943,-20.426 -22.513,-29.478 -7.325,-11.904 -24.372,-44.795 -29.246,-62.436 -4.874,-17.64 -12.071,-45.958 -10.214,-83.095 1.858,-37.137 7.893,-60.812 19.033,-79.613 z"
       style="fill:none;stroke:#231f20;stroke-width:0.5;stroke-linecap:round;stroke-linejoin:round;stroke-miterlimit:4;stroke-dasharray:2.8, 1.8;stroke-dashoffset:0;stroke-opacity:1"
       id="path191266" />
    <path
       d="m 293.619,387.483 c 6.926,-2.299 8.935,-11.849 1.741,-15.099 -7.195,-3.251 -13.695,-4.877 -29.246,-2.554 -15.55,2.32 -22.747,6.732 -22.282,12.069 0.464,5.339 9.053,11.375 19.961,10.679 10.91,-0.697 28.084,-3.251 41.315,-9.286 13.23,-6.034 25.531,-11.374 35.513,-6.964 9.98,4.412 13.694,12.999 7.891,21.586 -5.802,8.589 -21.122,21.82 -44.1,28.086 -22.979,6.267 -47.35,7.891 -66.847,21.586 -17.315,12.161 -23.279,15.536 -29.924,28.004"
       style="fill:none;stroke:#231f20;stroke-width:0.5;stroke-linecap:round;stroke-linejoin:round;stroke-miterlimit:4;stroke-dasharray:2.8, 1.8;stroke-dashoffset:0;stroke-opacity:1"
       id="path191268" />
    <path
       d="m 373.048,436.374 c 0.068,-5.964 -0.861,-11.998 -4.342,-11.766 -3.482,0.231 -9.051,5.105 -15.784,13.461 -6.731,8.356 -18.567,21.121 -35.511,27.157 -16.945,6.035 -37.834,12.068 -50.369,20.89 -12.533,8.82 -20.656,23.905 -24.138,35.975 -3.482,12.071 -5.804,23.908 -4.643,25.764 1.161,1.856 3.483,3.481 4.643,-0.232 1.16,-3.713 6.498,-24.603 10.677,-33.19 4.177,-8.59 14.158,-25.067 29.477,-30.176 15.319,-5.105 35.977,-10.91 47.814,-17.638 11.838,-6.733 20.193,-16.016 27.156,-23.21 6.964,-7.198 8.769,-12.257 11.374,-11.142 1.625,0.696 0.36,7.726 0.36,7.726"
       style="fill:#b2b1b1;fill-opacity:1;fill-rule:nonzero;stroke:none;stroke-width:0.1"
       id="path191270" />
    <path
       d="m 373.048,436.374 c 0.068,-5.964 -0.861,-11.998 -4.342,-11.766 -3.482,0.231 -9.051,5.105 -15.784,13.461 -6.731,8.356 -18.567,21.121 -35.511,27.157 -16.945,6.035 -37.834,12.068 -50.369,20.89 -12.533,8.82 -20.656,23.905 -24.138,35.975 -3.482,12.071 -5.804,23.908 -4.643,25.764 1.161,1.856 3.483,3.481 4.643,-0.232 1.16,-3.713 6.498,-24.603 10.677,-33.19 4.177,-8.59 14.158,-25.067 29.477,-30.176 15.319,-5.105 35.977,-10.91 47.814,-17.638 11.838,-6.733 20.193,-16.016 27.156,-23.21 6.964,-7.198 8.769,-12.257 11.374,-11.142 1.625,0.696 0.36,7.726 0.36,7.726"
       style="fill:none;stroke:#231f20;stroke-width:0.5;stroke-linecap:round;stroke-linejoin:round;stroke-miterlimit:4;stroke-dasharray:2.8, 1.8;stroke-dashoffset:0;stroke-opacity:1"
       id="path191272" />
    <path
       d="m 309.154,665.642 c -7.72,-8.46 -11.223,-15.012 -14.026,-29.587"
       style="fill:none;stroke:#231f20;stroke-width:0.5;stroke-linecap:round;stroke-linejoin:round;stroke-miterlimit:4;stroke-dasharray:2.8, 1.8;stroke-dashoffset:0;stroke-opacity:1"
       id="path191274" />
    <path
       d="m 309.154,665.642 c -1.741,1.034 -1.492,5.231 3.383,9.872 4.874,4.642 13.229,12.766 19.96,16.247 6.731,3.483 18.799,6.964 17.175,11.606 -1.624,4.642 -15.085,6.266 -28.084,4.642 -12.999,-1.625 -32.494,-9.749 -43.172,-22.978 -10.677,-13.231 -14.855,-24.139 -16.248,-29.014 -1.392,-4.874 -2.321,-9.052 -4.41,-8.82 -2.089,0.232 -2.089,4.41 -0.696,10.445 1.393,6.035 4.874,19.265 18.337,31.799 13.462,12.533 30.173,24.139 47.117,24.835 16.944,0.696 24.372,-1.857 29.014,-3.018 4.641,-1.16 7.426,-2.321 15.551,-1.856 0,0 -4.874,-12.767 -13.695,-15.32 -8.819,-2.552 -24.603,-8.587 -37.834,-21.817 -2.412,-2.414 -4.528,-4.574 -6.398,-6.623"
       style="fill:#b2b1b1;fill-opacity:1;fill-rule:nonzero;stroke:none;stroke-width:0.1"
       id="path191276" />
    <path
       d="m 309.154,665.642 c -1.741,1.034 -1.492,5.231 3.383,9.872 4.874,4.642 13.229,12.766 19.96,16.247 6.731,3.483 18.799,6.964 17.175,11.606 -1.624,4.642 -15.085,6.266 -28.084,4.642 -12.999,-1.625 -32.494,-9.749 -43.172,-22.978 -10.677,-13.231 -14.855,-24.139 -16.248,-29.014 -1.392,-4.874 -2.321,-9.052 -4.41,-8.82 -2.089,0.232 -2.089,4.41 -0.696,10.445 1.393,6.035 4.874,19.265 18.337,31.799 13.462,12.533 30.173,24.139 47.117,24.835 16.944,0.696 24.372,-1.857 29.014,-3.018 4.641,-1.16 7.426,-2.321 15.551,-1.856 0,0 -4.874,-12.767 -13.695,-15.32 -8.819,-2.552 -24.603,-8.587 -37.834,-21.817 -2.412,-2.414 -4.528,-4.574 -6.398,-6.623 z"
       style="fill:none;stroke:#231f20;stroke-width:0.5;stroke-linecap:round;stroke-linejoin:round;stroke-miterlimit:4;stroke-dasharray:2.8, 1.8;stroke-dashoffset:0;stroke-opacity:1"
       id="path191278" />
    <path
       d="m 289.092,675.05 c -14.391,-15.088 -19.727,-37.37 -23.21,-57.796 -3.481,-20.423 -6.035,-32.726 -3.946,-53.847 2.384,-24.112 7.892,-37.138 25.764,-56.633 17.872,-19.497 27.156,-18.801 26.926,-20.89 -0.232,-2.089 -15.32,2.785 -34.121,12.533 -18.8,9.749 -26.692,27.156 -27.852,28.781 -1.16,1.626 -2.785,26.691 -2.785,26.691 -0.233,9.285 -0.233,34.585 1.16,47.816 1.392,13.229 5.463,40.176 7.489,45.62"
       style="fill:none;stroke:#231f20;stroke-width:0.5;stroke-linecap:round;stroke-linejoin:round;stroke-miterlimit:4;stroke-dasharray:2.8, 1.8;stroke-dashoffset:0;stroke-opacity:1"
       id="path191280" />
    <path
       d="m 289.092,675.05 c -14.391,-26.692 -18.567,-66.383 -20.193,-79.845 -1.625,-13.462 -3.017,-29.942 2.322,-49.903 5.543,-20.728 16.711,-32.495 22.979,-38.993 6.266,-6.501 22.514,-21.355 28.085,-27.157 5.57,-5.805 9.515,-7.659 11.372,-5.106 1.856,2.555 -5.338,11.373 -12.765,19.729 -7.427,8.355 -28.781,27.388 -37.37,41.779 -8.589,14.392 -9.283,41.78 -6.267,68.703 3.017,26.924 6.732,40.387 19.73,62.205 12.997,21.819 23.907,21.586 20.657,25.532 -3.251,3.945 -14.158,-1.857 -28.55,-16.944"
       style="fill:#b2b1b1;fill-opacity:1;fill-rule:nonzero;stroke:none;stroke-width:0.1"
       id="path191282" />
    <path
       d="m 289.092,675.05 c -14.391,-26.692 -18.567,-66.383 -20.193,-79.845 -1.625,-13.462 -3.017,-29.942 2.322,-49.903 5.543,-20.728 16.711,-32.495 22.979,-38.993 6.266,-6.501 22.514,-21.355 28.085,-27.157 5.57,-5.805 9.515,-7.659 11.372,-5.106 1.856,2.555 -5.338,11.373 -12.765,19.729 -7.427,8.355 -28.781,27.388 -37.37,41.779 -8.589,14.392 -9.283,41.78 -6.267,68.703 3.017,26.924 6.732,40.387 19.73,62.205 12.997,21.819 23.907,21.586 20.657,25.532 -3.251,3.945 -14.158,-1.857 -28.55,-16.944 z"
       style="fill:none;stroke:#231f20;stroke-width:0.5;stroke-linecap:round;stroke-linejoin:round;stroke-miterlimit:4;stroke-dasharray:2.8, 1.8;stroke-dashoffset:0;stroke-opacity:1"
       id="path191284" />
    <path
       d="m 252.653,527.198 c 0,0 -7.755,10.587 -8.288,15.273"
       style="fill:none;stroke:#231f20;stroke-width:0.5;stroke-linecap:round;stroke-linejoin:round;stroke-miterlimit:4;stroke-dasharray:2.8, 1.8;stroke-dashoffset:0;stroke-opacity:1"
       id="path191286" />
    <path
       d="m 312.337,692.808 c -6.533,-0.35 -30.764,-9.166 -51.259,-40.618"
       style="fill:none;stroke:#231f20;stroke-width:0.5;stroke-linecap:round;stroke-linejoin:round;stroke-miterlimit:4;stroke-dasharray:2.8, 1.8;stroke-dashoffset:0;stroke-opacity:1"
       id="path191288" />
    <path
       d="m 668.124,682.536 c 0,0 25.011,-10.968 32.148,-15.494"
       style="fill:none;stroke:#231f20;stroke-width:0.5;stroke-linecap:round;stroke-linejoin:round;stroke-miterlimit:4;stroke-dasharray:2.8, 1.8;stroke-dashoffset:0;stroke-opacity:1"
       id="path191290" />
    <path
       d="m 577.128,649.754 c -2.293,0.589 -9.623,4.928 -12.06,9.281 -2.438,4.351 -2.959,8.007 0.522,9.574 3.866,1.739 8.356,1.392 13.578,-4.352 5.223,-5.745 9.401,-11.489 7.486,-13.23 -1.915,-1.741 -6.417,-2.072 -9.526,-1.273 z"
       style="fill:none;stroke:#231f20;stroke-width:0.5;stroke-linecap:round;stroke-linejoin:round;stroke-miterlimit:4;stroke-dasharray:2.8, 1.8;stroke-dashoffset:0;stroke-opacity:1"
       id="path191292" />
    <path
       d="m 557.93,544.489 c -3.481,0.175 -12.011,5.571 -11.663,12.883 0.349,7.31 11.081,17.178 24.69,12.941"
       style="fill:none;stroke:#231f20;stroke-width:0.5;stroke-linecap:round;stroke-linejoin:round;stroke-miterlimit:4;stroke-dasharray:2.8, 1.8;stroke-dashoffset:0;stroke-opacity:1"
       id="path191294" />
    <path
       d="m 568.196,560.677 c 4.706,-1.913 13.235,-12.01 9.58,-23.674 -3.656,-11.663 -14.332,-16.785 -22.05,-16.659"
       style="fill:none;stroke:#231f20;stroke-width:0.5;stroke-linecap:round;stroke-linejoin:round;stroke-miterlimit:4;stroke-dasharray:2.8, 1.8;stroke-dashoffset:0;stroke-opacity:1"
       id="path191296" />
    <path
       d="m 542.089,556.849 c 0,0 -1.566,-7.834 -1.566,-13.057 0,-5.221 -1.219,-28.026 2.089,-28.026 3.307,0 3.655,3.482 2.959,12.534 -0.697,9.052 -2.089,24.371 -3.482,28.549 z"
       style="fill:none;stroke:#231f20;stroke-width:0.5;stroke-linecap:round;stroke-linejoin:round;stroke-miterlimit:4;stroke-dasharray:2.8, 1.8;stroke-dashoffset:0;stroke-opacity:1"
       id="path191298" />
    <path
       d="m 546.829,553.729 c -1.432,-0.884 -3.241,-4.722 -2.847,-8.372"
       style="fill:none;stroke:#231f20;stroke-width:0.5;stroke-linecap:round;stroke-linejoin:round;stroke-miterlimit:4;stroke-dasharray:2.8, 1.8;stroke-dashoffset:0;stroke-opacity:1"
       id="path191300" />
    <path
       d="m 698.414,633.096 c -2.054,-2.295 -36.732,-32.205 -44.043,-39.69 -7.312,-7.486 -13.23,-18.975 -10.619,-30.638 2.611,-11.664 13.579,-19.497 22.108,-18.453 8.53,1.045 17.582,6.615 23.85,17.06 6.266,10.445 12.01,23.849 13.403,37.427 1.393,13.578 0.348,30.813 0,34.12 -0.348,3.307 -1.74,3.482 -4.699,0.174 z"
       style="fill:none;stroke:#231f20;stroke-width:0.5;stroke-linecap:round;stroke-linejoin:round;stroke-miterlimit:4;stroke-dasharray:2.8, 1.8;stroke-dashoffset:0;stroke-opacity:1"
       id="path191302" />
    <path
       d="m 698.91,633.634 c 1.244,-2.627 2.463,-22.82 -1.194,-40.402 -3.655,-17.582 -11.4,-32.094 -19.496,-38.124 -8.182,-6.093 -15.417,-7.981 -24.072,-7.472"
       style="fill:none;stroke:#231f20;stroke-width:0.5;stroke-linecap:round;stroke-linejoin:round;stroke-miterlimit:4;stroke-dasharray:2.8, 1.8;stroke-dashoffset:0;stroke-opacity:1"
       id="path191304" />
    <path
       d="m 715.688,597.94 c 6.748,-0.704 18.586,-1.749 27.986,-1.053 9.401,0.697 21.064,3.482 24.545,4.874 3.482,1.393 11.804,4.299 11.804,4.299 1.01,-11.368 -2.229,-32.325 -5.015,-38.592 -5.565,-12.523 -17.93,-15.668 -22.282,-17.234 -4.352,-1.567 -17.234,-3.482 -24.023,4.526 -6.789,8.008 -2.611,29.245 -1.567,36.034 1.045,6.79 2.263,27.853 2.263,36.209 0,8.356 -3.666,9.921 -5.581,9.921 -1.915,0 -7.475,-1.739 -7.822,-9.05 -0.349,-7.312 0.347,-27.853 -0.697,-34.121 -1.045,-6.266 -5.571,-28.896 2.263,-39.864 7.834,-10.967 19.497,-10.27 25.938,-9.922 6.441,0.348 29.841,3.745 39.205,25.46"
       style="fill:none;stroke:#231f20;stroke-width:0.5;stroke-linecap:round;stroke-linejoin:round;stroke-miterlimit:4;stroke-dasharray:2.8, 1.8;stroke-dashoffset:0;stroke-opacity:1"
       id="path191306" />
    <path
       d="m 684.49,554.398 c -7.662,-8.69 -17.411,-23.313 -15.149,-29.232 2.264,-5.918 10.272,-4.177 14.797,-3.307 4.527,0.87 23.675,5.396 27.505,6.441 3.83,1.044 8.895,3.24 10.271,3.829 2.437,1.045 2.364,7.997 2.313,15.401"
       style="fill:none;stroke:#231f20;stroke-width:0.5;stroke-linecap:round;stroke-linejoin:round;stroke-miterlimit:4;stroke-dasharray:2.8, 1.8;stroke-dashoffset:0;stroke-opacity:1"
       id="path191308" />
    <path
       d="m 671.724,535.989 c 0.605,1.176 4.929,3.626 9.107,4.671 4.178,1.044 18.8,5.048 24.719,6.266 5.919,1.219 20.534,3.468 27.153,4.52"
       style="fill:none;stroke:#231f20;stroke-width:0.5;stroke-linecap:round;stroke-linejoin:round;stroke-miterlimit:4;stroke-dasharray:2.8, 1.8;stroke-dashoffset:0;stroke-opacity:1"
       id="path191310" />
    <path
       d="m 595.701,414.962 c 0,0 10.108,0.975 13.245,0.768 9.286,-0.612 15.309,0.288 28.191,3.77 12.882,3.481 40.387,12.881 49.09,17.408 8.704,4.526 16.712,13.578 19.846,19.323 3.134,5.744 11.489,14.797 15.319,24.545 3.829,9.749 2.446,21.967 0.522,24.371 -1.393,1.741 -1.914,5.57 0,7.138 1.915,1.566 8.181,8.007 12.36,11.837 4.178,3.83 10.444,4.178 13.404,2.437 2.959,-1.741 3.656,-3.83 3.771,-7.485"
       style="fill:none;stroke:#231f20;stroke-width:0.5;stroke-linecap:round;stroke-linejoin:round;stroke-miterlimit:4;stroke-dasharray:2.8, 1.8;stroke-dashoffset:0;stroke-opacity:1"
       id="path191312" />
    <path
       d="m 548.598,446.466 c 7.592,-0.68 25.099,-9.085 25.987,-21.232"
       style="fill:none;stroke:#231f20;stroke-width:0.5;stroke-linecap:round;stroke-linejoin:round;stroke-miterlimit:4;stroke-dasharray:2.8, 1.8;stroke-dashoffset:0;stroke-opacity:1"
       id="path191314" />
    <path
       d="m 548.182,436.734 c 5.048,-0.696 12.186,-2.96 15.667,-6.093 3.482,-3.134 7.926,-6.522 9.534,-5.96"
       style="fill:none;stroke:#231f20;stroke-width:0.5;stroke-linecap:round;stroke-linejoin:round;stroke-miterlimit:4;stroke-dasharray:2.8, 1.8;stroke-dashoffset:0;stroke-opacity:1"
       id="path191316" />
    <path
       d="m 541.335,433.038 c 1.973,0 9.759,-2.596 9.347,-9.372"
       style="fill:none;stroke:#231f20;stroke-width:0.5;stroke-linecap:round;stroke-linejoin:round;stroke-miterlimit:4;stroke-dasharray:2.8, 1.8;stroke-dashoffset:0;stroke-opacity:1"
       id="path191318" />
    <path
       d="m 713.04,528.714 c 4.29,-4.07 13.972,-3.991 21.897,-4.031"
       style="fill:none;stroke:#231f20;stroke-width:0.5;stroke-linecap:round;stroke-linejoin:round;stroke-miterlimit:4;stroke-dasharray:2.8, 1.8;stroke-dashoffset:0;stroke-opacity:1"
       id="path191320" />
    <path
       d="m 721.914,532.129 c 5.628,0.871 13.466,-1.438 17.439,-5.157"
       style="fill:none;stroke:#231f20;stroke-width:0.5;stroke-linecap:round;stroke-linejoin:round;stroke-miterlimit:4;stroke-dasharray:2.8, 1.8;stroke-dashoffset:0;stroke-opacity:1"
       id="path191322" />
    <path
       d="m 692.262,511.879 c 6.732,-1.624 23.205,-9.509 31.49,-14.851"
       style="fill:none;stroke:#231f20;stroke-width:0.5;stroke-linecap:round;stroke-linejoin:round;stroke-miterlimit:4;stroke-dasharray:2.8, 1.8;stroke-dashoffset:0;stroke-opacity:1"
       id="path191324" />
    <path
       d="m 649.323,481.937 c 7.195,2.552 32.885,10.197 46.036,29.007"
       style="fill:none;stroke:#231f20;stroke-width:0.5;stroke-linecap:round;stroke-linejoin:round;stroke-miterlimit:4;stroke-dasharray:2.8, 1.8;stroke-dashoffset:0;stroke-opacity:1"
       id="path191326" />
    <path
       d="m 584.565,421.588 c 1.16,3.483 6.963,13.462 11.604,19.267 4.642,5.802 14.625,14.853 20.659,19.727 6.035,4.874 18.104,11.142 22.282,13.927 4.179,2.785 7.978,4.812 10.213,7.428 11.818,13.84 42.939,29.942 42.939,29.942 8.587,9.748 28.085,9.516 35.179,5.668"
       style="fill:none;stroke:#231f20;stroke-width:0.5;stroke-linecap:round;stroke-linejoin:round;stroke-miterlimit:4;stroke-dasharray:2.8, 1.8;stroke-dashoffset:0;stroke-opacity:1"
       id="path191328" />
    <path
       d="m 645.523,478.681 c -2.089,-5.802 -3.684,-10.909 -10.823,-16.01 -12.997,-9.283 -19.671,-17.911 -27.156,-24.833 -9.286,-8.59 -20.513,-21.156 -22.559,-18.586"
       style="fill:none;stroke:#231f20;stroke-width:0.5;stroke-linecap:round;stroke-linejoin:round;stroke-miterlimit:4;stroke-dasharray:2.8, 1.8;stroke-dashoffset:0;stroke-opacity:1"
       id="path191330" />
    <path
       d="m 553.739,483.852 c 0.187,-6.789 5.989,-30.015 12.714,-33.04"
       style="fill:none;stroke:#231f20;stroke-width:0.5;stroke-linecap:round;stroke-linejoin:round;stroke-miterlimit:4;stroke-dasharray:2.8, 1.8;stroke-dashoffset:0;stroke-opacity:1"
       id="path191332" />
    <path
       d="m 553.852,484.959 c 7.966,-4.415 25.373,-11.146 32.569,-13.466 7.196,-2.321 18.72,-6.942 30.789,-5.784"
       style="fill:none;stroke:#231f20;stroke-width:0.5;stroke-linecap:round;stroke-linejoin:round;stroke-miterlimit:4;stroke-dasharray:2.8, 1.8;stroke-dashoffset:0;stroke-opacity:1"
       id="path191334" />
    <path
       d="m 625.88,470.565 c 0,0 1.503,-2.979 3.468,-1.836"
       style="fill:none;stroke:#231f20;stroke-width:0.5;stroke-linecap:round;stroke-linejoin:round;stroke-miterlimit:4;stroke-dasharray:2.8, 1.8;stroke-dashoffset:0;stroke-opacity:1"
       id="path191336" />
    <path
       d="m 636.469,472.874 c 2.408,4.189 5.657,9.879 5.657,9.879"
       style="fill:none;stroke:#231f20;stroke-width:0.5;stroke-linecap:round;stroke-linejoin:round;stroke-miterlimit:4;stroke-dasharray:2.8, 1.8;stroke-dashoffset:0;stroke-opacity:1"
       id="path191338" />
    <path
       d="m 640.734,516.985 c 5.772,2.34 16.48,9.982 14.392,19.265 -2.089,9.284 -12.301,17.639 -23.675,12.765 -11.374,-4.874 -16.017,-12.765 -12.303,-22.514 3.715,-9.748 12.998,-12.998 21.586,-9.516 z"
       style="fill:none;stroke:#231f20;stroke-width:0.5;stroke-linecap:round;stroke-linejoin:round;stroke-miterlimit:4;stroke-dasharray:2.8, 1.8;stroke-dashoffset:0;stroke-opacity:1"
       id="path191340" />
    <path
       d="m 630.519,507.704 c -1.157,4.872 -4.175,9.746 -13.227,12.995 -9.052,3.249 -18.802,5.572 -28.782,-0.464 -9.979,-6.035 -14.391,-16.943 -13.926,-24.836 0.465,-7.891 4.267,-20.273 24.3,-23.599"
       style="fill:none;stroke:#231f20;stroke-width:0.5;stroke-linecap:round;stroke-linejoin:round;stroke-miterlimit:4;stroke-dasharray:2.8, 1.8;stroke-dashoffset:0;stroke-opacity:1"
       id="path191342" />
    <path
       d="m 580.15,480.977 c -0.227,4.907 4.182,8.854 9.057,10.478 4.874,1.624 12.535,2.785 16.48,2.088 3.945,-0.696 5.421,-3.551 6.308,-8.276"
       style="fill:none;stroke:#231f20;stroke-width:0.5;stroke-linecap:round;stroke-linejoin:round;stroke-miterlimit:4;stroke-dasharray:2.8, 1.8;stroke-dashoffset:0;stroke-opacity:1"
       id="path191344" />
    <path
       d="m 534.164,642.528 c 0,-7.633 -2.054,-27.826 5.836,-27.826 7.891,0 5.837,20.193 5.837,27.826"
       style="fill:none;stroke:#231f20;stroke-width:0.5;stroke-linecap:round;stroke-linejoin:round;stroke-miterlimit:4;stroke-dasharray:2.8, 1.8;stroke-dashoffset:0;stroke-opacity:1"
       id="path191346" />
    <path
       d="m 322.749,376.097 c 2.785,5.571 2.552,12.765 -1.979,17.063"
       style="fill:none;stroke:#231f20;stroke-width:0.5;stroke-linecap:round;stroke-linejoin:round;stroke-miterlimit:4;stroke-dasharray:2.8, 1.8;stroke-dashoffset:0;stroke-opacity:1"
       id="path191348" />
    <path
       d="M 195.141,456.614 130.292,425.097"
       style="fill:none;stroke:#231f20;stroke-width:0.5;stroke-linecap:round;stroke-linejoin:round;stroke-miterlimit:4;stroke-dasharray:2.8, 1.8;stroke-dashoffset:0;stroke-opacity:1"
       id="path191350" />
    <path
       d="m 173.379,520.058 -68.78,-13.002"
       style="fill:none;stroke:#231f20;stroke-width:0.5;stroke-linecap:round;stroke-linejoin:round;stroke-miterlimit:4;stroke-dasharray:2.8, 1.8;stroke-dashoffset:0;stroke-opacity:1"
       id="path191352" />
    <path
       d="m 169.038,552.26 -63.801,-8.891"
       style="fill:none;stroke:#231f20;stroke-width:0.5;stroke-linecap:round;stroke-linejoin:round;stroke-miterlimit:4;stroke-dasharray:2.8, 1.8;stroke-dashoffset:0;stroke-opacity:1"
       id="path191354" />
    <path
       d="M 166.531,579.406 93.9816,571.317"
       style="fill:none;stroke:#231f20;stroke-width:0.5;stroke-linecap:round;stroke-linejoin:round;stroke-miterlimit:4;stroke-dasharray:2.8, 1.8;stroke-dashoffset:0;stroke-opacity:1"
       id="path191356" />
    <path
       d="M 165.509,606.114 90.7824,602.629"
       style="fill:none;stroke:#231f20;stroke-width:0.5;stroke-linecap:round;stroke-linejoin:round;stroke-miterlimit:4;stroke-dasharray:2.8, 1.8;stroke-dashoffset:0;stroke-opacity:1"
       id="path191358" />
    <path
       d="m 167.421,634.704 -75.7511,6.019"
       style="fill:none;stroke:#231f20;stroke-width:0.5;stroke-linecap:round;stroke-linejoin:round;stroke-miterlimit:4;stroke-dasharray:2.8, 1.8;stroke-dashoffset:0;stroke-opacity:1"
       id="path191360" />
    <path
       d="m 191.699,707.852 -71.44,39.095"
       style="fill:none;stroke:#231f20;stroke-width:0.5;stroke-linecap:round;stroke-linejoin:round;stroke-miterlimit:4;stroke-dasharray:2.8, 1.8;stroke-dashoffset:0;stroke-opacity:1"
       id="path191362" />
    <path
       d="m 205.035,729.157 -65.163,48.12"
       style="fill:none;stroke:#231f20;stroke-width:0.5;stroke-linecap:round;stroke-linejoin:round;stroke-miterlimit:4;stroke-dasharray:2.8, 1.8;stroke-dashoffset:0;stroke-opacity:1"
       id="path191364" />
    <path
       d="m 260.878,779.793 -36.787,70.219"
       style="fill:none;stroke:#231f20;stroke-width:0.5;stroke-linecap:round;stroke-linejoin:round;stroke-miterlimit:4;stroke-dasharray:2.8, 1.8;stroke-dashoffset:0;stroke-opacity:1"
       id="path191366" />
    <path
       d="m 376.149,815.37 -10.738,82.644"
       style="fill:none;stroke:#231f20;stroke-width:0.5;stroke-linecap:round;stroke-linejoin:round;stroke-miterlimit:4;stroke-dasharray:2.8, 1.8;stroke-dashoffset:0;stroke-opacity:1"
       id="path191368" />
    <path
       d="m 412.12,819.798 -5.132,81.505"
       style="fill:none;stroke:#231f20;stroke-width:0.5;stroke-linecap:round;stroke-linejoin:round;stroke-miterlimit:4;stroke-dasharray:2.8, 1.8;stroke-dashoffset:0;stroke-opacity:1"
       id="path191370" />
    <path
       d="m 445.049,823.562 9.788,76.866"
       style="fill:none;stroke:#231f20;stroke-width:0.5;stroke-linecap:round;stroke-linejoin:round;stroke-miterlimit:4;stroke-dasharray:2.8, 1.8;stroke-dashoffset:0;stroke-opacity:1"
       id="path191372" />
    <path
       d="m 459.746,815.277 66.189,55.077"
       style="fill:none;stroke:#231f20;stroke-width:0.5;stroke-linecap:round;stroke-linejoin:round;stroke-miterlimit:4;stroke-dasharray:2.8, 1.8;stroke-dashoffset:0;stroke-opacity:1"
       id="path191374" />
    <path
       d="m 540,782.515 -68.138,0.175"
       style="fill:none;stroke:#231f20;stroke-width:0.5;stroke-linecap:round;stroke-linejoin:round;stroke-miterlimit:4;stroke-dasharray:2.8, 1.8;stroke-dashoffset:0;stroke-opacity:1"
       id="path191376" />
    <path
       d="M 519.228,720.275 476.964,749.95"
       style="fill:none;stroke:#231f20;stroke-width:0.5;stroke-linecap:round;stroke-linejoin:round;stroke-miterlimit:4;stroke-dasharray:2.8, 1.8;stroke-dashoffset:0;stroke-opacity:1"
       id="path191378" />
    <path
       d="m 483.367,718.155 c 0,0 -5.107,9.35 -8.124,12.137"
       style="fill:none;stroke:#231f20;stroke-width:0.5;stroke-linecap:round;stroke-linejoin:round;stroke-miterlimit:4;stroke-dasharray:2.8, 1.8;stroke-dashoffset:0;stroke-opacity:1"
       id="path191380" />
    <path
       d="m 139,429.33 c 6.883,0.848 36.825,5.492 52.144,5.026 15.319,-0.465 27.017,-1.022 33.585,-2.948"
       style="fill:none;stroke:#231f20;stroke-width:0.5;stroke-linecap:round;stroke-linejoin:round;stroke-miterlimit:4;stroke-dasharray:2.8, 1.8;stroke-dashoffset:0;stroke-opacity:1"
       id="path191382" />
    <path
       d="m 267.649,412.072 c 3.339,-3.945 1.25,-17.871 -9.194,-18.798 -10.446,-0.931 -6.962,4.178 -41.315,1.854 -34.351,-2.32 -59.418,8.125 -71.024,23.675 -11.607,15.553 -17.641,25.533 -23.211,37.602 -5.571,12.071 -9.75,19.5 -9.982,28.783 -0.231,9.283 0.399,23.565 0.399,23.565"
       style="fill:none;stroke:#231f20;stroke-width:0.5;stroke-linecap:round;stroke-linejoin:round;stroke-miterlimit:4;stroke-dasharray:2.8, 1.8;stroke-dashoffset:0;stroke-opacity:1"
       id="path191384" />
    <path
       d="m 207.701,475.48 c 0,0 -12.086,2.899 -16.643,4.447"
       style="fill:none;stroke:#231f20;stroke-width:0.5;stroke-linecap:round;stroke-linejoin:round;stroke-miterlimit:4;stroke-dasharray:2.8, 1.8;stroke-dashoffset:0;stroke-opacity:1"
       id="path191386" />
    <path
       d="m 411.877,682.536 c 0,0 -25.011,-10.968 -32.149,-15.494"
       style="fill:none;stroke:#231f20;stroke-width:0.5;stroke-linecap:round;stroke-linejoin:round;stroke-miterlimit:4;stroke-dasharray:2.8, 1.8;stroke-dashoffset:0;stroke-opacity:1"
       id="path191388" />
    <path
       d="m 502.873,649.754 c 2.293,0.589 9.623,4.928 12.06,9.281 2.437,4.351 2.959,8.007 -0.522,9.574 -3.866,1.739 -8.356,1.392 -13.578,-4.352 -5.223,-5.745 -9.401,-11.489 -7.486,-13.23 1.915,-1.741 6.416,-2.072 9.526,-1.273 z"
       style="fill:none;stroke:#231f20;stroke-width:0.5;stroke-linecap:round;stroke-linejoin:round;stroke-miterlimit:4;stroke-dasharray:2.8, 1.8;stroke-dashoffset:0;stroke-opacity:1"
       id="path191390" />
    <path
       d="m 522.07,544.489 c 3.481,0.175 12.012,5.571 11.664,12.883 -0.349,7.31 -11.082,17.178 -24.69,12.941"
       style="fill:none;stroke:#231f20;stroke-width:0.5;stroke-linecap:round;stroke-linejoin:round;stroke-miterlimit:4;stroke-dasharray:2.8, 1.8;stroke-dashoffset:0;stroke-opacity:1"
       id="path191392" />
    <path
       d="m 511.805,560.677 c -4.706,-1.913 -13.236,-12.01 -9.58,-23.674 3.655,-11.663 14.331,-16.785 22.05,-16.659"
       style="fill:none;stroke:#231f20;stroke-width:0.5;stroke-linecap:round;stroke-linejoin:round;stroke-miterlimit:4;stroke-dasharray:2.8, 1.8;stroke-dashoffset:0;stroke-opacity:1"
       id="path191394" />
    <path
       d="m 537.912,556.849 c 0,0 1.566,-7.834 1.566,-13.057 0,-5.221 1.219,-28.026 -2.089,-28.026 -3.307,0 -3.655,3.482 -2.959,12.534 0.696,9.052 2.089,24.371 3.482,28.549 z"
       style="fill:none;stroke:#231f20;stroke-width:0.5;stroke-linecap:round;stroke-linejoin:round;stroke-miterlimit:4;stroke-dasharray:2.8, 1.8;stroke-dashoffset:0;stroke-opacity:1"
       id="path191396" />
    <path
       d="m 533.171,553.729 c 1.433,-0.884 3.242,-4.722 2.847,-8.372"
       style="fill:none;stroke:#231f20;stroke-width:0.5;stroke-linecap:round;stroke-linejoin:round;stroke-miterlimit:4;stroke-dasharray:2.8, 1.8;stroke-dashoffset:0;stroke-opacity:1"
       id="path191398" />
    <path
       d="m 381.587,633.096 c 2.054,-2.295 36.732,-32.205 44.042,-39.69 7.312,-7.486 13.231,-18.975 10.62,-30.638 -2.612,-11.664 -13.579,-19.497 -22.109,-18.453 -8.529,1.045 -17.582,6.615 -23.848,17.06 -6.267,10.445 -12.012,23.849 -13.405,37.427 -1.392,13.578 -0.347,30.813 0,34.12 0.349,3.307 1.741,3.482 4.7,0.174 z"
       style="fill:none;stroke:#231f20;stroke-width:0.5;stroke-linecap:round;stroke-linejoin:round;stroke-miterlimit:4;stroke-dasharray:2.8, 1.8;stroke-dashoffset:0;stroke-opacity:1"
       id="path191400" />
    <path
       d="m 381.091,633.634 c -1.244,-2.627 -2.463,-22.82 1.193,-40.402 3.656,-17.582 11.401,-32.094 19.497,-38.124 8.181,-6.093 15.417,-7.981 24.072,-7.472"
       style="fill:none;stroke:#231f20;stroke-width:0.5;stroke-linecap:round;stroke-linejoin:round;stroke-miterlimit:4;stroke-dasharray:2.8, 1.8;stroke-dashoffset:0;stroke-opacity:1"
       id="path191402" />
    <path
       d="m 364.313,597.94 c -6.749,-0.704 -18.586,-1.749 -27.986,-1.053 -9.401,0.697 -21.064,3.482 -24.545,4.874 -3.483,1.393 -11.804,4.299 -11.804,4.299 -1.011,-11.368 2.229,-32.325 5.015,-38.592 5.564,-12.523 17.929,-15.668 22.282,-17.234 4.351,-1.567 17.233,-3.482 24.022,4.526 6.789,8.008 2.612,29.245 1.568,36.034 -1.045,6.79 -2.264,27.853 -2.264,36.209 0,8.356 3.667,9.921 5.582,9.921 1.914,0 7.475,-1.739 7.822,-9.05 0.349,-7.312 -0.347,-27.853 0.697,-34.121 1.045,-6.266 5.57,-28.896 -2.263,-39.864 -7.834,-10.967 -19.497,-10.27 -25.939,-9.922 -6.44,0.348 -29.84,3.745 -39.204,25.46"
       style="fill:none;stroke:#231f20;stroke-width:0.5;stroke-linecap:round;stroke-linejoin:round;stroke-miterlimit:4;stroke-dasharray:2.8, 1.8;stroke-dashoffset:0;stroke-opacity:1"
       id="path191404" />
    <path
       d="m 395.511,554.398 c 7.662,-8.69 17.411,-23.313 15.148,-29.232 -2.263,-5.918 -10.271,-4.177 -14.797,-3.307 -4.526,0.87 -23.675,5.396 -27.505,6.441 -3.829,1.044 -8.894,3.24 -10.271,3.829 -2.436,1.045 -2.363,7.997 -2.313,15.401"
       style="fill:none;stroke:#231f20;stroke-width:0.5;stroke-linecap:round;stroke-linejoin:round;stroke-miterlimit:4;stroke-dasharray:2.8, 1.8;stroke-dashoffset:0;stroke-opacity:1"
       id="path191406" />
    <path
       d="m 408.276,535.989 c -0.604,1.176 -4.929,3.626 -9.107,4.671 -4.177,1.044 -18.8,5.048 -24.718,6.266 -5.919,1.219 -20.535,3.468 -27.154,4.52"
       style="fill:none;stroke:#231f20;stroke-width:0.5;stroke-linecap:round;stroke-linejoin:round;stroke-miterlimit:4;stroke-dasharray:2.8, 1.8;stroke-dashoffset:0;stroke-opacity:1"
       id="path191408" />
    <path
       d="m 484.3,414.962 c 0,0 -10.109,0.975 -13.245,0.768 -9.286,-0.612 -15.309,0.288 -28.191,3.77 -12.882,3.481 -40.387,12.881 -49.091,17.408 -8.704,4.526 -16.712,13.578 -19.845,19.323 -3.134,5.744 -11.489,14.797 -15.319,24.545 -3.83,9.749 -2.446,21.967 -0.523,24.371 1.393,1.741 1.915,5.57 0,7.138 -1.915,1.566 -8.181,8.007 -12.359,11.837 -4.178,3.83 -10.445,4.178 -13.404,2.437 -2.959,-1.741 -3.655,-3.83 -3.772,-7.485"
       style="fill:none;stroke:#231f20;stroke-width:0.5;stroke-linecap:round;stroke-linejoin:round;stroke-miterlimit:4;stroke-dasharray:2.8, 1.8;stroke-dashoffset:0;stroke-opacity:1"
       id="path191410" />
    <path
       d="m 488.647,434.645 c 22.107,21.063 43.346,20.541 51.353,20.541 8.008,0 29.246,0.522 51.354,-20.541"
       style="fill:none;stroke:#231f20;stroke-width:0.5;stroke-linecap:round;stroke-linejoin:round;stroke-miterlimit:4;stroke-dasharray:2.8, 1.8;stroke-dashoffset:0;stroke-opacity:1"
       id="path191412" />
    <path
       d="m 532.678,455.009 c -1.382,-3.304 -1.904,-16.709 -0.859,-18.275 1.044,-1.566 5.222,-3.83 8.181,-3.83 2.96,0 7.137,2.264 8.182,3.83 1.044,1.566 0.523,14.971 -0.859,18.275"
       style="fill:none;stroke:#231f20;stroke-width:0.5;stroke-linecap:round;stroke-linejoin:round;stroke-miterlimit:4;stroke-dasharray:2.8, 1.8;stroke-dashoffset:0;stroke-opacity:1"
       id="path191414" />
    <path
       d="m 531.403,446.466 c -7.592,-0.68 -25.1,-9.085 -25.987,-21.232"
       style="fill:none;stroke:#231f20;stroke-width:0.5;stroke-linecap:round;stroke-linejoin:round;stroke-miterlimit:4;stroke-dasharray:2.8, 1.8;stroke-dashoffset:0;stroke-opacity:1"
       id="path191416" />
    <path
       d="m 531.819,436.734 c -5.049,-0.696 -12.186,-2.96 -15.668,-6.093 -3.482,-3.134 -7.926,-6.522 -9.533,-5.96"
       style="fill:none;stroke:#231f20;stroke-width:0.5;stroke-linecap:round;stroke-linejoin:round;stroke-miterlimit:4;stroke-dasharray:2.8, 1.8;stroke-dashoffset:0;stroke-opacity:1"
       id="path191418" />
    <path
       d="m 538.665,433.038 c -1.972,0 -9.758,-2.596 -9.346,-9.372"
       style="fill:none;stroke:#231f20;stroke-width:0.5;stroke-linecap:round;stroke-linejoin:round;stroke-miterlimit:4;stroke-dasharray:2.8, 1.8;stroke-dashoffset:0;stroke-opacity:1"
       id="path191420" />
    <path
       d="m 366.96,528.714 c -4.289,-4.07 -13.972,-3.991 -21.897,-4.031"
       style="fill:none;stroke:#231f20;stroke-width:0.5;stroke-linecap:round;stroke-linejoin:round;stroke-miterlimit:4;stroke-dasharray:2.8, 1.8;stroke-dashoffset:0;stroke-opacity:1"
       id="path191422" />
    <path
       d="M 358.086,532.129 C 352.458,533 344.62,530.691 340.647,526.972"
       style="fill:none;stroke:#231f20;stroke-width:0.5;stroke-linecap:round;stroke-linejoin:round;stroke-miterlimit:4;stroke-dasharray:2.8, 1.8;stroke-dashoffset:0;stroke-opacity:1"
       id="path191424" />
    <path
       d="m 387.739,511.879 c -6.733,-1.624 -23.206,-9.509 -31.491,-14.851"
       style="fill:none;stroke:#231f20;stroke-width:0.5;stroke-linecap:round;stroke-linejoin:round;stroke-miterlimit:4;stroke-dasharray:2.8, 1.8;stroke-dashoffset:0;stroke-opacity:1"
       id="path191426" />
    <path
       d="m 430.678,481.937 c -7.196,2.552 -32.885,10.197 -46.036,29.007"
       style="fill:none;stroke:#231f20;stroke-width:0.5;stroke-linecap:round;stroke-linejoin:round;stroke-miterlimit:4;stroke-dasharray:2.8, 1.8;stroke-dashoffset:0;stroke-opacity:1"
       id="path191428" />
    <path
       d="m 495.436,421.588 c -1.16,3.483 -6.964,13.462 -11.605,19.267 -4.642,5.802 -14.624,14.853 -20.659,19.727 -6.034,4.874 -18.104,11.142 -22.282,13.927 -4.178,2.785 -7.977,4.812 -10.212,7.428 -11.818,13.84 -42.939,29.942 -42.939,29.942 -8.587,9.748 -28.085,9.516 -35.179,5.668"
       style="fill:none;stroke:#231f20;stroke-width:0.5;stroke-linecap:round;stroke-linejoin:round;stroke-miterlimit:4;stroke-dasharray:2.8, 1.8;stroke-dashoffset:0;stroke-opacity:1"
       id="path191430" />
    <path
       d="m 434.478,478.681 c 2.089,-5.802 3.683,-10.909 10.822,-16.01 12.998,-9.283 19.672,-17.911 27.158,-24.833 9.284,-8.59 20.512,-21.156 22.557,-18.586"
       style="fill:none;stroke:#231f20;stroke-width:0.5;stroke-linecap:round;stroke-linejoin:round;stroke-miterlimit:4;stroke-dasharray:2.8, 1.8;stroke-dashoffset:0;stroke-opacity:1"
       id="path191432" />
    <path
       d="m 527.932,480.776 c 4.408,-2.552 9.052,-3.248 12.068,-3.248 3.017,0 7.66,0.696 12.069,3.248"
       style="fill:none;stroke:#231f20;stroke-width:0.5;stroke-linecap:round;stroke-linejoin:round;stroke-miterlimit:4;stroke-dasharray:2.8, 1.8;stroke-dashoffset:0;stroke-opacity:1"
       id="path191434" />
    <path
       d="m 534.661,513.04 c 1.404,1.122 3.481,2.089 5.339,2.089 1.858,0 3.936,-0.967 5.339,-2.089"
       style="fill:none;stroke:#231f20;stroke-width:0.5;stroke-linecap:round;stroke-linejoin:round;stroke-miterlimit:4;stroke-dasharray:2.8, 1.8;stroke-dashoffset:0;stroke-opacity:1"
       id="path191436" />
    <path
       d="m 526.262,483.852 c -0.188,-6.789 -5.99,-30.015 -12.714,-33.04"
       style="fill:none;stroke:#231f20;stroke-width:0.5;stroke-linecap:round;stroke-linejoin:round;stroke-miterlimit:4;stroke-dasharray:2.8, 1.8;stroke-dashoffset:0;stroke-opacity:1"
       id="path191438" />
    <path
       d="m 526.149,484.959 c -7.967,-4.415 -25.374,-11.146 -32.569,-13.466 -7.197,-2.321 -18.721,-6.942 -30.789,-5.784"
       style="fill:none;stroke:#231f20;stroke-width:0.5;stroke-linecap:round;stroke-linejoin:round;stroke-miterlimit:4;stroke-dasharray:2.8, 1.8;stroke-dashoffset:0;stroke-opacity:1"
       id="path191440" />
    <path
       d="m 454.121,470.565 c 0,0 -1.503,-2.979 -3.468,-1.836"
       style="fill:none;stroke:#231f20;stroke-width:0.5;stroke-linecap:round;stroke-linejoin:round;stroke-miterlimit:4;stroke-dasharray:2.8, 1.8;stroke-dashoffset:0;stroke-opacity:1"
       id="path191442" />
    <path
       d="m 443.532,472.874 c -2.409,4.189 -5.658,9.879 -5.658,9.879"
       style="fill:none;stroke:#231f20;stroke-width:0.5;stroke-linecap:round;stroke-linejoin:round;stroke-miterlimit:4;stroke-dasharray:2.8, 1.8;stroke-dashoffset:0;stroke-opacity:1"
       id="path191444" />
    <path
       d="m 439.266,516.985 c -5.771,2.34 -16.48,9.982 -14.391,19.265 2.089,9.284 12.301,17.639 23.675,12.765 11.373,-4.874 16.017,-12.765 12.302,-22.514 -3.714,-9.748 -12.997,-12.998 -21.586,-9.516 z"
       style="fill:none;stroke:#231f20;stroke-width:0.5;stroke-linecap:round;stroke-linejoin:round;stroke-miterlimit:4;stroke-dasharray:2.8, 1.8;stroke-dashoffset:0;stroke-opacity:1"
       id="path191446" />
    <path
       d="m 449.481,507.704 c 1.158,4.872 4.176,9.746 13.227,12.995 9.053,3.249 18.803,5.572 28.783,-0.464 9.979,-6.035 14.391,-16.943 13.925,-24.836 -0.464,-7.891 -4.267,-20.273 -24.299,-23.599"
       style="fill:none;stroke:#231f20;stroke-width:0.5;stroke-linecap:round;stroke-linejoin:round;stroke-miterlimit:4;stroke-dasharray:2.8, 1.8;stroke-dashoffset:0;stroke-opacity:1"
       id="path191448" />
    <path
       d="m 499.85,480.977 c 0.228,4.907 -4.182,8.854 -9.056,10.478 -4.875,1.624 -12.535,2.785 -16.48,2.088 -3.945,-0.696 -5.421,-3.551 -6.308,-8.276"
       style="fill:none;stroke:#231f20;stroke-width:0.5;stroke-linecap:round;stroke-linejoin:round;stroke-miterlimit:4;stroke-dasharray:2.8, 1.8;stroke-dashoffset:0;stroke-opacity:1"
       id="path191450" />
    <path
       d="m 698.065,681.143 c -0.349,0.87 -1.915,5.918 -9.227,9.052 -7.31,3.134 -30.986,10.097 -33.075,5.049 -2.089,-5.049 8.008,-10.62 12.361,-12.708 0,0 -0.697,-4.701 6.962,-13.753 7.66,-9.052 18.105,-21.238 27.853,-16.364"
       style="fill:none;stroke:#231f20;stroke-width:0.5;stroke-linecap:round;stroke-linejoin:round;stroke-miterlimit:4;stroke-dasharray:2.8, 1.8;stroke-dashoffset:0;stroke-opacity:1"
       id="path191452" />
    <path
       d="m 381.936,681.143 c 0.348,0.87 1.914,5.918 9.226,9.052 7.311,3.134 30.986,10.097 33.075,5.049 2.089,-5.049 -8.008,-10.62 -12.36,-12.708 0,0 0.697,-4.701 -6.962,-13.753 -7.661,-9.052 -18.105,-21.238 -27.854,-16.364"
       style="fill:none;stroke:#231f20;stroke-width:0.5;stroke-linecap:round;stroke-linejoin:round;stroke-miterlimit:4;stroke-dasharray:2.8, 1.8;stroke-dashoffset:0;stroke-opacity:1"
       id="path191454" />
    <path
       d="m 702.939,652.419 c 0.871,-3.481 2.437,-16.015 10.967,-15.841 8.53,0.173 17.408,1.044 22.631,-0.349 5.222,-1.393 10.915,-2.148 19.906,-6.558"
       style="fill:none;stroke:#231f20;stroke-width:0.5;stroke-linecap:round;stroke-linejoin:round;stroke-miterlimit:4;stroke-dasharray:2.8, 1.8;stroke-dashoffset:0;stroke-opacity:1"
       id="path191456" />
    <path
       d="m 698.065,681.143 c 0.65,-5.738 4.004,-25.242 4.874,-28.724"
       style="fill:none;stroke:#231f20;stroke-width:0.5;stroke-linecap:round;stroke-linejoin:round;stroke-miterlimit:4;stroke-dasharray:2.8, 1.8;stroke-dashoffset:0;stroke-opacity:1"
       id="path191458" />
    <path
       d="m 377.061,652.419 c -0.87,-3.481 -2.436,-16.015 -10.967,-15.841 -8.53,0.173 -17.408,1.044 -22.63,-0.349 -5.222,-1.393 -10.916,-2.148 -19.906,-6.558"
       style="fill:none;stroke:#231f20;stroke-width:0.5;stroke-linecap:round;stroke-linejoin:round;stroke-miterlimit:4;stroke-dasharray:2.8, 1.8;stroke-dashoffset:0;stroke-opacity:1"
       id="path191460" />
    <path
       d="m 381.936,681.143 c -0.65,-5.738 -4.004,-25.242 -4.875,-28.724"
       style="fill:none;stroke:#231f20;stroke-width:0.5;stroke-linecap:round;stroke-linejoin:round;stroke-miterlimit:4;stroke-dasharray:2.8, 1.8;stroke-dashoffset:0;stroke-opacity:1"
       id="path191462" />
    <path
       d="m 555.744,688.221 c -3.675,1.568 -5.299,3.309 -5.995,7.023 -0.697,3.713 2.088,7.195 6.267,10.213 4.178,3.016 5.802,7.194 12.997,7.89 7.195,0.696 24.606,2.554 40.852,1.161 16.247,-1.392 37.137,-5.338 41.083,-6.266 3.945,-0.929 8.898,-3.957 4.68,-6.738"
       style="fill:none;stroke:#231f20;stroke-width:0.5;stroke-linecap:round;stroke-linejoin:round;stroke-miterlimit:4;stroke-dasharray:2.8, 1.8;stroke-dashoffset:0;stroke-opacity:1"
       id="path191464" />
    <path
       d="m 524.257,688.221 c 3.675,1.568 5.298,3.309 5.995,7.023 0.696,3.713 -2.089,7.195 -6.267,10.213 -4.178,3.016 -5.802,7.194 -12.997,7.89 -7.196,0.696 -24.606,2.554 -40.853,1.161 -16.246,-1.392 -37.136,-5.338 -41.082,-6.266 -3.945,-0.929 -8.898,-3.957 -4.681,-6.738"
       style="fill:none;stroke:#231f20;stroke-width:0.5;stroke-linecap:round;stroke-linejoin:round;stroke-miterlimit:4;stroke-dasharray:2.8, 1.8;stroke-dashoffset:0;stroke-opacity:1"
       id="path191466" />
  </g>
</svg>
