<?xml version="1.0" encoding="UTF-8" standalone="no"?>
<!-- Created with Inkscape (http://www.inkscape.org/) -->

<svg
   version="1.1"
   id="svg194049"
   width="1440"
   height="1344"
   viewBox="0 0 1440 1344"
   xmlns="http://www.w3.org/2000/svg"
   xmlns:svg="http://www.w3.org/2000/svg">
  <defs
     id="defs194053" />
  <g
     id="g194057">
    <path
       d="m 97.1406,543.446 c -1.0078,2.015 -2.8047,6.281 -4.9168,11.966 -9.2636,24.933 -6.589,99.504 -2.0468,120.161 19.497,88.665 68.478,130.121 91.791,147.335 9.501,7.015 21.201,13.732 34.592,21.348 55.705,31.683 141.237,47.815 185.106,51.993 43.868,4.177 73.577,4.874 102.358,-7.893 C 532.806,875.59 540,852.396 540,837.525 v -71.934 c 0,-46.673 -40.386,-46.44 -40.386,-46.44 38.994,2.785 40.386,-26.424 40.386,-28.296 0,-4.874 0,-9.77 0,-9.77 0,0 0,4.896 0,9.77 0,1.872 1.393,31.081 40.387,28.296 0,0 -40.387,-0.233 -40.387,46.44 v 71.934 c 0,14.871 7.195,38.065 35.976,50.831 28.782,12.767 58.491,12.07 102.359,7.893 43.869,-4.178 129.401,-20.31 185.106,-51.993 13.391,-7.616 25.091,-14.333 34.592,-21.348 23.312,-17.214 72.293,-58.67 91.79,-147.335 4.544,-20.663 7.219,-95.222 -2.047,-120.16 -2.111,-5.685 -3.908,-9.95 -4.916,-11.967 -3.482,-6.963 -8.704,-6.614 -9.4,-12.186 -0.697,-5.57 6.962,-11.14 8.704,-22.63 1.741,-11.489 6.962,-39.342 -12.186,-67.543 -19.148,-28.201 -36.209,-47.349 -72.766,-57.446 -36.556,-10.097 -33.771,-3.134 -61.276,-13.927 -27.504,-10.793 -80.425,-3.133 -95.395,1.044 -14.971,4.179 -28.549,10.446 -32.379,38.298 0,0 -17.756,12.186 -9.052,33.075 0,0 -20.89,-28.549 -68.937,-37.253 0,0 -26.807,-7.311 -36.208,3.83 0,0 -4.177,-1.044 -7.311,0.348 -3.134,1.393 -10.793,3.482 -12.534,7.66 0,0 2.437,-12.185 -34.12,-12.185 -36.556,0 -34.12,12.185 -34.12,12.185 -1.74,-4.178 -9.4,-6.267 -12.533,-7.66 -3.134,-1.392 -7.311,-0.348 -7.311,-0.348 -9.401,-11.141 -36.209,-3.83 -36.209,-3.83 -48.046,8.704 -68.936,37.253 -68.936,37.253 8.704,-20.889 -9.052,-33.075 -9.052,-33.075 -3.83,-27.852 -17.408,-34.119 -32.379,-38.298 -14.971,-4.177 -67.891,-11.837 -95.396,-1.044 -27.504,10.793 -24.719,3.83 -61.275,13.927 -36.558,10.097 -53.618,29.245 -72.766,57.446 -19.15,28.201 -13.9273,56.054 -12.1859,67.543 1.7402,11.49 9.4009,17.06 8.7049,22.63 -0.697,5.572 -5.919,5.223 -9.4014,12.186 z M 676.479,693.155 c 0,0 11.142,-1.044 20.541,-8.008 9.4,-6.963 15.319,-12.186 20.542,-12.533 5.223,-0.349 14.623,-5.919 18.801,-9.749 4.178,-3.829 -2.089,4.177 -16.363,13.23 -14.276,9.052 -19.846,26.809 -13.231,35.164 0,0 -26.112,-6.266 -50.483,-0.696 0,0 22.978,-3.134 20.193,-17.408 z m 108.974,-90.522 c 0,0 8.007,-23.327 -1.044,-38.994 0,0 7.311,8.704 10.793,1.741 0,0 1.392,17.409 0.696,24.023 0,0 -3.482,-9.748 -10.445,13.23 z m -37.95,-87.387 c -4.874,-6.964 -12.881,-22.979 -12.881,-22.979 3.83,7.311 8.704,7.311 11.141,10.096 2.437,2.786 8.356,13.579 12.882,19.497 4.525,5.919 13.926,25.416 13.926,25.416 -4.526,-5.57 -20.194,-25.068 -25.068,-32.03 z m -25.067,-42.128 c 0,0 -9.748,-15.32 -13.578,-19.845 0,0 11.142,8.355 12.534,10.097 1.393,1.74 1.044,5.918 1.044,9.748 z M 423.715,710.563 c -24.372,-5.57 -50.483,0.696 -50.483,0.696 6.615,-8.355 1.044,-26.112 -13.231,-35.164 -14.274,-9.053 -20.541,-17.059 -16.363,-13.23 4.178,3.83 13.578,9.4 18.801,9.749 5.222,0.347 11.141,5.57 20.541,12.533 9.4,6.964 20.542,8.008 20.542,8.008 -2.786,14.274 20.193,17.408 20.193,17.408 z M 284.103,589.403 c -0.696,-6.614 0.696,-24.023 0.696,-24.023 3.482,6.963 10.793,-1.741 10.793,-1.741 -9.052,15.667 -1.045,38.994 -1.045,38.994 -6.963,-22.978 -10.444,-13.23 -10.444,-13.23 z m 23.326,-42.127 c 0,0 9.401,-19.497 13.927,-25.416 4.526,-5.918 10.444,-16.711 12.882,-19.497 2.437,-2.785 7.311,-2.785 11.14,-10.096 0,0 -8.006,16.015 -12.881,22.979 -4.874,6.962 -20.541,26.46 -25.068,32.03 z m 51.18,-83.906 c 1.392,-1.742 12.534,-10.097 12.534,-10.097 -3.83,4.525 -13.579,19.845 -13.579,19.845 0,-3.83 -0.348,-8.008 1.045,-9.748"
       style="fill:#ffffff;fill-opacity:1;fill-rule:nonzero;stroke:none;stroke-width:0.1"
       id="path194717" />
    <path
       d="m 97.1406,543.446 c -1.0078,2.015 -2.8047,6.281 -4.9168,11.966 -9.2636,24.933 -6.589,99.504 -2.0468,120.161 19.497,88.665 68.478,130.121 91.791,147.335 9.501,7.015 21.201,13.732 34.592,21.348 55.705,31.683 141.237,47.815 185.106,51.993 43.868,4.177 73.577,4.874 102.358,-7.893 C 532.806,875.59 540,852.396 540,837.525 v -71.934 c 0,-46.673 -40.386,-46.44 -40.386,-46.44 38.994,2.785 40.386,-26.424 40.386,-28.296 0,-4.874 0,-9.77 0,-9.77 0,0 0,4.896 0,9.77 0,1.872 1.393,31.081 40.387,28.296 0,0 -40.387,-0.233 -40.387,46.44 v 71.934 c 0,14.871 7.195,38.065 35.976,50.831 28.782,12.767 58.491,12.07 102.359,7.893 43.869,-4.178 129.401,-20.31 185.106,-51.993 13.391,-7.616 25.091,-14.333 34.592,-21.348 23.312,-17.214 72.293,-58.67 91.79,-147.335 4.544,-20.663 7.219,-95.222 -2.047,-120.16 -2.111,-5.685 -3.908,-9.95 -4.916,-11.967 -3.482,-6.963 -8.704,-6.614 -9.4,-12.186 -0.697,-5.57 6.962,-11.14 8.704,-22.63 1.741,-11.489 6.962,-39.342 -12.186,-67.543 -19.148,-28.201 -36.209,-47.349 -72.766,-57.446 -36.556,-10.097 -33.771,-3.134 -61.276,-13.927 -27.504,-10.793 -80.425,-3.133 -95.395,1.044 -14.971,4.179 -28.549,10.446 -32.379,38.298 0,0 -17.756,12.186 -9.052,33.075 0,0 -20.89,-28.549 -68.937,-37.253 0,0 -26.807,-7.311 -36.208,3.83 0,0 -4.177,-1.044 -7.311,0.348 -3.134,1.393 -10.793,3.482 -12.534,7.66 0,0 2.437,-12.185 -34.12,-12.185 -36.556,0 -34.12,12.185 -34.12,12.185 -1.74,-4.178 -9.4,-6.267 -12.533,-7.66 -3.134,-1.392 -7.311,-0.348 -7.311,-0.348 -9.401,-11.141 -36.209,-3.83 -36.209,-3.83 -48.046,8.704 -68.936,37.253 -68.936,37.253 8.704,-20.889 -9.052,-33.075 -9.052,-33.075 -3.83,-27.852 -17.408,-34.119 -32.379,-38.298 -14.971,-4.177 -67.891,-11.837 -95.396,-1.044 -27.504,10.793 -24.719,3.83 -61.275,13.927 -36.558,10.097 -53.618,29.245 -72.766,57.446 -19.15,28.201 -13.9273,56.054 -12.1859,67.543 1.7402,11.49 9.4009,17.06 8.7049,22.63 -0.697,5.572 -5.919,5.223 -9.4014,12.186 z M 676.479,693.155 c 0,0 11.142,-1.044 20.541,-8.008 9.4,-6.963 15.319,-12.186 20.542,-12.533 5.223,-0.349 14.623,-5.919 18.801,-9.749 4.178,-3.829 -2.089,4.177 -16.363,13.23 -14.276,9.052 -19.846,26.809 -13.231,35.164 0,0 -26.112,-6.266 -50.483,-0.696 0,0 22.978,-3.134 20.193,-17.408 z m 108.974,-90.522 c 0,0 8.007,-23.327 -1.044,-38.994 0,0 7.311,8.704 10.793,1.741 0,0 1.392,17.409 0.696,24.023 0,0 -3.482,-9.748 -10.445,13.23 z m -37.95,-87.387 c -4.874,-6.964 -12.881,-22.979 -12.881,-22.979 3.83,7.311 8.704,7.311 11.141,10.096 2.437,2.786 8.356,13.579 12.882,19.497 4.525,5.919 13.926,25.416 13.926,25.416 -4.526,-5.57 -20.194,-25.068 -25.068,-32.03 z m -25.067,-42.128 c 0,0 -9.748,-15.32 -13.578,-19.845 0,0 11.142,8.355 12.534,10.097 1.393,1.74 1.044,5.918 1.044,9.748 z M 423.715,710.563 c -24.372,-5.57 -50.483,0.696 -50.483,0.696 6.615,-8.355 1.044,-26.112 -13.231,-35.164 -14.274,-9.053 -20.541,-17.059 -16.363,-13.23 4.178,3.83 13.578,9.4 18.801,9.749 5.222,0.347 11.141,5.57 20.541,12.533 9.4,6.964 20.542,8.008 20.542,8.008 -2.786,14.274 20.193,17.408 20.193,17.408 z M 284.103,589.403 c -0.696,-6.614 0.696,-24.023 0.696,-24.023 3.482,6.963 10.793,-1.741 10.793,-1.741 -9.052,15.667 -1.045,38.994 -1.045,38.994 -6.963,-22.978 -10.444,-13.23 -10.444,-13.23 z m 23.326,-42.127 c 0,0 9.401,-19.497 13.927,-25.416 4.526,-5.918 10.444,-16.711 12.882,-19.497 2.437,-2.785 7.311,-2.785 11.14,-10.096 0,0 -8.006,16.015 -12.881,22.979 -4.874,6.962 -20.541,26.46 -25.068,32.03 z m 51.18,-83.906 c 1.392,-1.742 12.534,-10.097 12.534,-10.097 -3.83,4.525 -13.579,19.845 -13.579,19.845 0,-3.83 -0.348,-8.008 1.045,-9.748 z"
       style="fill:none;stroke:#231f20;stroke-width:0.75;stroke-linecap:round;stroke-linejoin:round;stroke-miterlimit:4;stroke-dasharray:none;stroke-opacity:1"
       id="path194719" />
    <path
       d="m 630.173,404.878 c 0,0 -26.807,-7.311 -36.208,3.83 0,0 -4.177,-1.044 -7.311,0.348 -2.043,0.818 -5.57,-2.436 1.741,-4.874 7.311,-2.437 18.448,-7.218 27.853,-6.963 12.881,0.348 18.452,5.222 13.925,7.659"
       style="fill:#ffffff;fill-opacity:1;fill-rule:nonzero;stroke:none;stroke-width:0.1"
       id="path194721" />
    <path
       d="m 630.173,404.878 c 0,0 -26.807,-7.311 -36.208,3.83 0,0 -4.177,-1.044 -7.311,0.348 -2.043,0.818 -5.57,-2.436 1.741,-4.874 7.311,-2.437 18.448,-7.218 27.853,-6.963 12.881,0.348 18.452,5.222 13.925,7.659 z"
       style="fill:none;stroke:#231f20;stroke-width:0.5;stroke-linecap:butt;stroke-linejoin:miter;stroke-miterlimit:4;stroke-dasharray:none;stroke-opacity:1"
       id="path194723" />
    <path
       d="m 747.717,505.064 c -1.465,-2.144 -3.878,-3.552 -5.305,-2.575 -1.428,0.977 -0.854,3.374 0.613,5.517 1.467,2.142 3.269,3.218 4.696,2.24 1.428,-0.977 1.462,-3.039 -0.004,-5.182"
       style="fill:#ffffff;fill-opacity:1;fill-rule:nonzero;stroke:none;stroke-width:0.1"
       id="path194729" />
    <path
       d="m 747.717,505.064 c -1.465,-2.144 -3.878,-3.552 -5.305,-2.575 -1.428,0.977 -0.854,3.374 0.613,5.517 1.467,2.142 3.269,3.218 4.696,2.24 1.428,-0.977 1.462,-3.039 -0.004,-5.182 z"
       style="fill:none;stroke:#231f20;stroke-width:0.5;stroke-linecap:butt;stroke-linejoin:miter;stroke-miterlimit:4;stroke-dasharray:none;stroke-opacity:1"
       id="path194731" />
    <path
       d="m 449.827,404.878 c 0,0 26.808,-7.311 36.209,3.83 0,0 4.177,-1.044 7.311,0.348 2.042,0.818 5.571,-2.436 -1.741,-4.874 -7.312,-2.437 -18.448,-7.218 -27.853,-6.963 -12.881,0.348 -18.453,5.222 -13.926,7.659"
       style="fill:#ffffff;fill-opacity:1;fill-rule:nonzero;stroke:none;stroke-width:0.1"
       id="path194733" />
    <path
       d="m 449.827,404.878 c 0,0 26.808,-7.311 36.209,3.83 0,0 4.177,-1.044 7.311,0.348 2.042,0.818 5.571,-2.436 -1.741,-4.874 -7.312,-2.437 -18.448,-7.218 -27.853,-6.963 -12.881,0.348 -18.453,5.222 -13.926,7.659 z"
       style="fill:none;stroke:#231f20;stroke-width:0.5;stroke-linecap:butt;stroke-linejoin:miter;stroke-miterlimit:4;stroke-dasharray:none;stroke-opacity:1"
       id="path194735" />
    <path
       d="m 332.284,505.064 c 1.466,-2.144 3.877,-3.552 5.304,-2.575 1.429,0.977 0.855,3.374 -0.613,5.517 -1.466,2.142 -3.267,3.218 -4.695,2.24 -1.429,-0.977 -1.463,-3.039 0.004,-5.182"
       style="fill:#ffffff;fill-opacity:1;fill-rule:nonzero;stroke:none;stroke-width:0.1"
       id="path194741" />
    <path
       d="m 332.284,505.064 c 1.466,-2.144 3.877,-3.552 5.304,-2.575 1.429,0.977 0.855,3.374 -0.613,5.517 -1.466,2.142 -3.267,3.218 -4.695,2.24 -1.429,-0.977 -1.463,-3.039 0.004,-5.182 z"
       style="fill:none;stroke:#231f20;stroke-width:0.5;stroke-linecap:butt;stroke-linejoin:miter;stroke-miterlimit:4;stroke-dasharray:none;stroke-opacity:1"
       id="path194743" />
    <path
       d="m 615.899,787.39 c 2.39,12.385 3.945,36.442 22.746,32.495 18.801,-3.946 78.221,-15.087 108.858,-22.282 30.639,-7.195 87.737,-23.327 118.375,-60.928 30.638,-37.601 48.046,-76.943 52.92,-114.545 4.874,-37.601 -5.919,-97.485 -13.23,-123.945 -4.365,-15.798 -15.318,-45.261 -49.439,-67.543 -34.119,-22.282 -75.202,-29.941 -79.032,-30.638 -3.83,-0.696 -5.57,2.786 1.393,4.527 6.963,1.74 36.556,10.095 51.179,17.059 14.623,6.963 41.732,20.292 59.536,51.18 17.803,30.887 19.497,76.595 19.497,97.484 0,20.89 0.348,46.306 -22.979,95.745 -23.326,49.438 -35.513,69.284 -78.336,91.217 -42.823,21.935 -64.409,19.845 -78.684,19.845 -14.275,0 -24.719,0 -38.297,-10.444 -13.578,-10.445 -20.194,-18.105 -40.387,-20.541 -20.193,-2.438 -44.817,0.299 -40.948,16.259 2.383,9.829 4.711,14.081 6.828,25.055 z"
       style="fill:none;stroke:#231f20;stroke-width:0.5;stroke-linecap:butt;stroke-linejoin:miter;stroke-miterlimit:4;stroke-dasharray:none;stroke-opacity:1"
       id="path194745" />
    <path
       d="m 580.387,719.151 c 12.533,0.464 42.127,-1.625 57.794,-4.758 15.667,-3.134 18.105,-3.83 18.105,-3.83"
       style="fill:none;stroke:#231f20;stroke-width:0.75;stroke-linecap:round;stroke-linejoin:round;stroke-miterlimit:4;stroke-dasharray:none;stroke-opacity:1"
       id="path194747" />
    <path
       d="m 737.476,661.945 c 14.044,-12.422 42.406,-35.637 47.977,-59.312"
       style="fill:none;stroke:#231f20;stroke-width:0.75;stroke-linecap:round;stroke-linejoin:round;stroke-miterlimit:4;stroke-dasharray:none;stroke-opacity:1"
       id="path194749" />
    <path
       d="m 784.409,563.639 c -2.438,-3.829 -4.53,-7.28 -11.838,-16.363"
       style="fill:none;stroke:#231f20;stroke-width:0.75;stroke-linecap:round;stroke-linejoin:round;stroke-miterlimit:4;stroke-dasharray:none;stroke-opacity:1"
       id="path194751" />
    <path
       d="m 722.436,473.118 c 3.83,4.874 10.201,15.264 12.186,19.149"
       style="fill:none;stroke:#231f20;stroke-width:0.75;stroke-linecap:round;stroke-linejoin:round;stroke-miterlimit:4;stroke-dasharray:none;stroke-opacity:1"
       id="path194753" />
    <path
       d="m 699.11,442.131 c 3.416,4.901 7.284,8.079 9.748,11.142"
       style="fill:none;stroke:#231f20;stroke-width:0.75;stroke-linecap:round;stroke-linejoin:round;stroke-miterlimit:4;stroke-dasharray:none;stroke-opacity:1"
       id="path194755" />
    <path
       d="m 746.46,785.069 c 22.282,-4.178 51.527,-10.793 85.647,-36.208 34.119,-25.416 43.172,-40.387 62.668,-87.737 19.497,-47.349 21.227,-75.85 16.016,-115.589 -5.571,-42.476 -9.749,-67.543 -32.727,-92.611 -22.979,-25.067 -40.735,-31.334 -55.01,-37.253 -14.274,-5.919 -41.142,-12.047 -49.294,-14.205"
       style="fill:none;stroke:#231f20;stroke-width:0.75;stroke-linecap:round;stroke-linejoin:round;stroke-miterlimit:4;stroke-dasharray:none;stroke-opacity:1"
       id="path194757" />
    <path
       d="m 651.063,810.485 c -6.963,1.045 -16.015,3.481 -21.237,-4.874 -5.223,-8.357 -10.793,-31.683 -10.446,-41.083 0.349,-9.401 5.919,-14.623 18.801,-13.927 12.882,0.696 22.631,4.526 38.647,18.105 16.014,13.578 47.349,20.542 69.632,16.363"
       style="fill:none;stroke:#231f20;stroke-width:0.5;stroke-linecap:butt;stroke-linejoin:miter;stroke-miterlimit:4;stroke-dasharray:none;stroke-opacity:1"
       id="path194759" />
    <path
       d="m 665.338,789.595 c 10.445,2.785 42.054,3.647 81.122,-4.526"
       style="fill:none;stroke:#231f20;stroke-width:0.75;stroke-linecap:round;stroke-linejoin:round;stroke-miterlimit:4;stroke-dasharray:none;stroke-opacity:1"
       id="path194761" />
    <path
       d="m 706.769,711.259 c 8.008,3.83 30.986,14.623 56.054,11.49 25.067,-3.134 45.261,-14.275 61.624,-32.727 16.364,-18.453 27.505,-58.144 34.12,-95.397 6.615,-37.252 2.785,-64.757 -5.223,-79.728 C 845.336,499.926 836.632,486 819.225,475.555 801.817,465.11 795.202,460.932 780.579,457.102 765.957,453.273 732.533,447.005 708.162,409.056"
       style="fill:none;stroke:#231f20;stroke-width:0.5;stroke-linecap:butt;stroke-linejoin:miter;stroke-miterlimit:4;stroke-dasharray:none;stroke-opacity:1"
       id="path194763" />
    <path
       d="m 547.676,681.519 c 1.728,0.147 5.432,7.097 9.036,10.592 5.745,5.57 11.141,6.789 18.453,8.355 7.104,1.523 14.274,3.482 28.201,2.785 10.136,-0.506 31.81,-3.648 40.038,-5.919 10.096,-2.785 23.327,-3.829 33.075,-4.177"
       style="fill:none;stroke:#231f20;stroke-width:0.5;stroke-linecap:butt;stroke-linejoin:miter;stroke-miterlimit:4;stroke-dasharray:none;stroke-opacity:1"
       id="path194765" />
    <path
       d="m 563.327,641.634 c 10.096,-5.926 25.839,-24.426 26.808,-34.127 0.697,-6.963 -3.442,-13.621 -8.008,-20.193 -3.537,-5.09 -10.096,-13.578 -13.229,-19.148"
       style="fill:none;stroke:#231f20;stroke-width:0.5;stroke-linecap:butt;stroke-linejoin:miter;stroke-miterlimit:4;stroke-dasharray:none;stroke-opacity:1"
       id="path194767" />
    <path
       d="m 590.01,603.41 c 6.392,-4.954 26.585,-15.4 38.074,-14.355 11.49,1.044 30.519,9.737 41.084,16.712 12.053,7.957 28.548,17.407 36.208,39.69"
       style="fill:none;stroke:#231f20;stroke-width:0.5;stroke-linecap:butt;stroke-linejoin:miter;stroke-miterlimit:4;stroke-dasharray:none;stroke-opacity:1"
       id="path194769" />
    <path
       d="m 666.29,603.952 c -2.017,-1.191 -6.523,-4.104 -12.442,4.252 -5.918,8.356 -14.622,18.453 -24.719,25.416 -10.096,6.962 -16.711,13.578 -24.371,18.104 -7.66,4.526 -21.723,13.829 -20.542,19.149 0.697,3.133 30.639,-0.697 37.254,-1.741 6.614,-1.045 26.808,-8.008 40.735,-20.889 13.926,-12.882 24.613,-26.389 25.188,-29.383"
       style="fill:none;stroke:#231f20;stroke-width:0.5;stroke-linecap:butt;stroke-linejoin:miter;stroke-miterlimit:4;stroke-dasharray:none;stroke-opacity:1"
       id="path194771" />
    <path
       d="m 608.332,649.42 c 3.738,-8.489 23.931,-55.575 43.253,-53.095"
       style="fill:none;stroke:#231f20;stroke-width:0.5;stroke-linecap:butt;stroke-linejoin:miter;stroke-miterlimit:4;stroke-dasharray:none;stroke-opacity:1"
       id="path194773" />
    <path
       d="m 745.042,511.43 c 0.914,1.475 1.069,5.904 -2.413,7.645 -3.481,1.741 -5.919,2.785 -12.881,-1.393 -8.555,-5.133 -9.748,-9.748 -11.49,-16.712 -1.741,-6.963 -2.089,-14.274 -9.749,-28.896 -7.659,-14.623 -17.756,-31.683 -27.156,-35.862 -9.4,-4.177 -27.156,-9.748 -40.387,-13.578 -13.229,-3.829 -19.148,-8.355 -27.504,-9.052 -6.245,-0.52 -8.007,-0.348 -11.489,1.044 -3.482,1.394 -9.4,3.483 -8.008,-5.918"
       style="fill:none;stroke:#231f20;stroke-width:0.5;stroke-linecap:butt;stroke-linejoin:miter;stroke-miterlimit:4;stroke-dasharray:none;stroke-opacity:1"
       id="path194775" />
    <path
       d="m 574.12,416.716 c 0.348,5.222 5.222,9.052 9.749,8.007 4.526,-1.044 8.475,-4.307 10.225,-11.07"
       style="fill:none;stroke:#231f20;stroke-width:0.5;stroke-linecap:butt;stroke-linejoin:miter;stroke-miterlimit:4;stroke-dasharray:none;stroke-opacity:1"
       id="path194777" />
    <path
       d="m 583.172,442.828 c 3.426,-2.855 10.445,0 20.89,7.311 10.444,7.312 23.675,17.756 32.379,28.549 8.704,10.793 19.497,25.765 14.274,29.594 -5.222,3.83 -11.489,-1.044 -18.104,-8.704 -6.615,-7.66 -16.016,-17.756 -20.193,-21.586 -4.178,-3.829 -11.837,-6.963 -18.801,-13.926 -6.963,-6.964 -14.622,-17.757 -10.445,-21.238 z"
       style="fill:none;stroke:#231f20;stroke-width:0.5;stroke-linecap:butt;stroke-linejoin:miter;stroke-miterlimit:4;stroke-dasharray:none;stroke-opacity:1"
       id="path194779" />
    <path
       d="m 546.616,507.934 c 2.089,0.696 5.57,-6.964 6.266,-13.927 0.697,-6.963 1.044,-15.667 -3.133,-15.667 0,0 -0.697,12.534 -1.393,17.06 -0.696,4.526 -1.74,12.534 -1.74,12.534 z"
       style="fill:none;stroke:#231f20;stroke-width:0.5;stroke-linecap:butt;stroke-linejoin:miter;stroke-miterlimit:4;stroke-dasharray:none;stroke-opacity:1"
       id="path194781" />
    <path
       d="m 573.166,413.176 c 0.794,1.75 -0.094,6.397 -8.098,6.673 -10.097,0.349 -12.767,-12.979 -3.076,-13.104"
       style="fill:none;stroke:#231f20;stroke-width:0.5;stroke-linecap:butt;stroke-linejoin:miter;stroke-miterlimit:4;stroke-dasharray:none;stroke-opacity:1"
       id="path194783" />
    <path
       d="m 568.898,568.166 c 0,0 -6.73,-12.843 -9.749,-20.194 -3.107,-7.561 -4.031,-12.13 -5.919,-19.148 -1.316,-4.895 -5.57,-17.061 -3.829,-18.105 1.74,-1.045 5.57,8.356 8.008,16.712 2.436,8.356 10.444,32.03 11.489,40.735 z"
       style="fill:none;stroke:#231f20;stroke-width:0.5;stroke-linecap:butt;stroke-linejoin:miter;stroke-miterlimit:4;stroke-dasharray:none;stroke-opacity:1"
       id="path194785" />
    <path
       d="m 464.101,787.39 c -2.39,12.385 -3.945,36.442 -22.746,32.495 -18.8,-3.946 -78.22,-15.087 -108.858,-22.282 -30.638,-7.195 -87.737,-23.327 -118.374,-60.928 -30.638,-37.601 -48.046,-76.943 -52.92,-114.545 -4.875,-37.601 5.918,-97.485 13.229,-123.945 4.366,-15.798 15.319,-45.261 49.439,-67.543 34.12,-22.282 75.203,-29.941 79.033,-30.638 3.829,-0.696 5.57,2.786 -1.394,4.527 -6.963,1.74 -36.556,10.095 -51.178,17.059 -14.624,6.963 -41.733,20.292 -59.537,51.18 -17.803,30.887 -19.496,76.595 -19.496,97.484 0,20.89 -0.348,46.306 22.979,95.745 23.326,49.438 35.512,69.284 78.336,91.217 42.823,21.935 64.409,19.845 78.683,19.845 14.275,0 24.72,0 38.298,-10.444 13.578,-10.445 20.194,-18.105 40.387,-20.541 20.193,-2.438 44.817,0.299 40.948,16.259 -2.383,9.829 -4.711,14.081 -6.829,25.055 z"
       style="fill:none;stroke:#231f20;stroke-width:0.5;stroke-linecap:butt;stroke-linejoin:miter;stroke-miterlimit:4;stroke-dasharray:none;stroke-opacity:1"
       id="path194787" />
    <path
       d="m 499.614,719.151 c -12.534,0.464 -42.127,-1.625 -57.795,-4.758 -15.667,-3.134 -18.104,-3.83 -18.104,-3.83"
       style="fill:none;stroke:#231f20;stroke-width:0.75;stroke-linecap:round;stroke-linejoin:round;stroke-miterlimit:4;stroke-dasharray:none;stroke-opacity:1"
       id="path194789" />
    <path
       d="M 342.524,661.945 C 328.481,649.523 300.118,626.308 294.547,602.633"
       style="fill:none;stroke:#231f20;stroke-width:0.75;stroke-linecap:round;stroke-linejoin:round;stroke-miterlimit:4;stroke-dasharray:none;stroke-opacity:1"
       id="path194791" />
    <path
       d="m 295.592,563.639 c 2.437,-3.829 4.529,-7.28 11.837,-16.363"
       style="fill:none;stroke:#231f20;stroke-width:0.75;stroke-linecap:round;stroke-linejoin:round;stroke-miterlimit:4;stroke-dasharray:none;stroke-opacity:1"
       id="path194793" />
    <path
       d="m 357.564,473.118 c -3.829,4.874 -10.201,15.264 -12.186,19.149"
       style="fill:none;stroke:#231f20;stroke-width:0.75;stroke-linecap:round;stroke-linejoin:round;stroke-miterlimit:4;stroke-dasharray:none;stroke-opacity:1"
       id="path194795" />
    <path
       d="m 380.891,442.131 c -3.416,4.901 -7.284,8.079 -9.748,11.142"
       style="fill:none;stroke:#231f20;stroke-width:0.75;stroke-linecap:round;stroke-linejoin:round;stroke-miterlimit:4;stroke-dasharray:none;stroke-opacity:1"
       id="path194797" />
    <path
       d="m 333.542,785.069 c -22.283,-4.178 -51.528,-10.793 -85.648,-36.208 -34.12,-25.416 -43.172,-40.387 -62.669,-87.737 -19.497,-47.349 -21.226,-75.85 -16.016,-115.589 5.572,-42.476 9.749,-67.543 32.728,-92.611 22.979,-25.067 40.734,-31.334 55.009,-37.253 14.275,-5.919 41.143,-12.047 49.295,-14.205"
       style="fill:none;stroke:#231f20;stroke-width:0.75;stroke-linecap:round;stroke-linejoin:round;stroke-miterlimit:4;stroke-dasharray:none;stroke-opacity:1"
       id="path194799" />
    <path
       d="m 428.937,810.485 c 6.964,1.045 16.016,3.481 21.238,-4.874 5.222,-8.357 10.793,-31.683 10.445,-41.083 -0.348,-9.401 -5.919,-14.623 -18.801,-13.927 -12.882,0.696 -22.63,4.526 -38.646,18.105 -16.015,13.578 -47.349,20.542 -69.631,16.363"
       style="fill:none;stroke:#231f20;stroke-width:0.5;stroke-linecap:butt;stroke-linejoin:miter;stroke-miterlimit:4;stroke-dasharray:none;stroke-opacity:1"
       id="path194801" />
    <path
       d="m 414.663,789.595 c -10.445,2.785 -42.054,3.647 -81.121,-4.526"
       style="fill:none;stroke:#231f20;stroke-width:0.75;stroke-linecap:round;stroke-linejoin:round;stroke-miterlimit:4;stroke-dasharray:none;stroke-opacity:1"
       id="path194803" />
    <path
       d="m 373.232,711.259 c -8.008,3.83 -30.986,14.623 -56.054,11.49 -25.067,-3.134 -45.26,-14.275 -61.625,-32.727 -16.363,-18.453 -27.504,-58.144 -34.119,-95.397 -6.615,-37.252 -2.785,-64.757 5.223,-79.728 8.007,-14.971 16.711,-28.897 34.119,-39.342 17.408,-10.445 24.023,-14.623 38.645,-18.453 14.623,-3.829 48.047,-10.097 72.418,-48.046"
       style="fill:none;stroke:#231f20;stroke-width:0.5;stroke-linecap:butt;stroke-linejoin:miter;stroke-miterlimit:4;stroke-dasharray:none;stroke-opacity:1"
       id="path194805" />
    <path
       d="m 299.168,614.586 c 6.015,4.641 22.536,17.292 30.196,22.864 7.659,5.57 20.889,16.014 26.111,19.148 5.223,3.134 11.142,7.659 13.231,8.008 2.088,0.348 5.919,1.393 12.185,7.659 6.267,6.267 12.186,10.445 15.667,8.357 3.482,-2.09 -3.133,-16.712 -3.133,-16.712 16.364,14.274 37.253,19.148 55.705,22.978 18.454,3.83 45.61,0.696 56.403,-1.741 10.793,-2.437 27.504,-4.062 34.467,-4.062 6.963,0 23.675,1.625 34.468,4.062 10.793,2.437 37.95,5.571 56.402,1.741 18.453,-3.83 39.342,-8.704 55.706,-22.978 0,0 -6.616,14.622 -3.134,16.712 3.482,2.088 9.4,-2.09 15.668,-8.357 6.266,-6.266 10.097,-7.311 12.185,-7.659 2.089,-0.349 8.007,-4.874 13.23,-8.008 5.223,-3.134 18.453,-13.578 26.112,-19.148 7.659,-5.572 24.181,-18.223 30.195,-22.864"
       style="fill:none;stroke:#231f20;stroke-width:0.5;stroke-linecap:butt;stroke-linejoin:miter;stroke-miterlimit:4;stroke-dasharray:none;stroke-opacity:1"
       id="path194807" />
    <path
       d="m 532.325,681.519 c -1.728,0.147 -5.432,7.097 -9.036,10.592 -5.745,5.57 -11.141,6.789 -18.453,8.355 -7.104,1.523 -14.274,3.482 -28.201,2.785 -10.137,-0.506 -31.81,-3.648 -40.038,-5.919 -10.097,-2.785 -23.327,-3.829 -33.075,-4.177"
       style="fill:none;stroke:#231f20;stroke-width:0.5;stroke-linecap:butt;stroke-linejoin:miter;stroke-miterlimit:4;stroke-dasharray:none;stroke-opacity:1"
       id="path194809" />
    <path
       d="m 540,642.671 c -56.053,0 -57.185,-14.883 -61.624,-6.963 -4.266,7.612 41.431,20.194 61.624,20.194 20.194,0 65.891,-12.582 61.624,-20.194 -4.438,-7.92 -5.57,6.963 -61.624,6.963 z"
       style="fill:none;stroke:#231f20;stroke-width:0.5;stroke-linecap:butt;stroke-linejoin:miter;stroke-miterlimit:4;stroke-dasharray:none;stroke-opacity:1"
       id="path194811" />
    <path
       d="m 516.673,641.634 c -10.096,-5.926 -25.839,-24.426 -26.807,-34.127 -0.698,-6.963 3.441,-13.621 8.007,-20.193 3.538,-5.09 10.096,-13.578 13.23,-19.148"
       style="fill:none;stroke:#231f20;stroke-width:0.5;stroke-linecap:butt;stroke-linejoin:miter;stroke-miterlimit:4;stroke-dasharray:none;stroke-opacity:1"
       id="path194813" />
    <path
       d="m 489.991,603.41 c -6.393,-4.954 -26.586,-15.4 -38.075,-14.355 -11.49,1.044 -30.519,9.737 -41.083,16.712 -12.054,7.957 -28.549,17.407 -36.208,39.69"
       style="fill:none;stroke:#231f20;stroke-width:0.5;stroke-linecap:butt;stroke-linejoin:miter;stroke-miterlimit:4;stroke-dasharray:none;stroke-opacity:1"
       id="path194815" />
    <path
       d="m 413.71,603.952 c 2.018,-1.191 6.523,-4.104 12.442,4.252 5.919,8.356 14.623,18.453 24.72,25.416 10.096,6.962 16.712,13.578 24.371,18.104 7.659,4.526 21.722,13.829 20.541,19.149 -0.697,3.133 -30.638,-0.697 -37.253,-1.741 -6.615,-1.045 -26.809,-8.008 -40.735,-20.889 -13.926,-12.882 -24.613,-26.389 -25.188,-29.383"
       style="fill:none;stroke:#231f20;stroke-width:0.5;stroke-linecap:butt;stroke-linejoin:miter;stroke-miterlimit:4;stroke-dasharray:none;stroke-opacity:1"
       id="path194817" />
    <path
       d="m 471.668,649.42 c -3.737,-8.489 -23.93,-55.575 -43.253,-53.095"
       style="fill:none;stroke:#231f20;stroke-width:0.5;stroke-linecap:butt;stroke-linejoin:miter;stroke-miterlimit:4;stroke-dasharray:none;stroke-opacity:1"
       id="path194819" />
    <path
       d="m 334.958,511.43 c -0.914,1.475 -1.069,5.904 2.414,7.645 3.481,1.741 5.918,2.785 12.881,-1.393 8.554,-5.133 9.748,-9.748 11.49,-16.712 1.74,-6.963 2.089,-14.274 9.748,-28.896 7.659,-14.623 17.756,-31.683 27.156,-35.862 9.4,-4.177 27.157,-9.748 40.387,-13.578 13.23,-3.829 19.149,-8.355 27.505,-9.052 6.245,-0.52 8.007,-0.348 11.489,1.044 3.481,1.394 9.4,3.483 8.008,-5.918"
       style="fill:none;stroke:#231f20;stroke-width:0.5;stroke-linecap:butt;stroke-linejoin:miter;stroke-miterlimit:4;stroke-dasharray:none;stroke-opacity:1"
       id="path194821" />
    <path
       d="m 505.88,416.716 c -0.347,5.222 -5.221,9.052 -9.748,8.007 -4.526,-1.044 -8.475,-4.307 -10.225,-11.07"
       style="fill:none;stroke:#231f20;stroke-width:0.5;stroke-linecap:butt;stroke-linejoin:miter;stroke-miterlimit:4;stroke-dasharray:none;stroke-opacity:1"
       id="path194823" />
    <path
       d="m 496.829,442.828 c -3.426,-2.855 -10.446,0 -20.89,7.311 -10.445,7.312 -23.675,17.756 -32.379,28.549 -8.704,10.793 -19.497,25.765 -14.274,29.594 5.222,3.83 11.489,-1.044 18.104,-8.704 6.614,-7.66 16.015,-17.756 20.194,-21.586 4.177,-3.829 11.836,-6.963 18.799,-13.926 6.964,-6.964 14.623,-17.757 10.446,-21.238 z"
       style="fill:none;stroke:#231f20;stroke-width:0.5;stroke-linecap:butt;stroke-linejoin:miter;stroke-miterlimit:4;stroke-dasharray:none;stroke-opacity:1"
       id="path194825" />
    <path
       d="m 533.385,507.934 c -2.089,0.696 -5.57,-6.964 -6.266,-13.927 -0.697,-6.963 -1.045,-15.667 3.133,-15.667 0,0 0.696,12.534 1.392,17.06 0.696,4.526 1.741,12.534 1.741,12.534 z"
       style="fill:none;stroke:#231f20;stroke-width:0.5;stroke-linecap:butt;stroke-linejoin:miter;stroke-miterlimit:4;stroke-dasharray:none;stroke-opacity:1"
       id="path194827" />
    <path
       d="m 506.834,413.176 c -0.792,1.75 0.095,6.397 8.099,6.673 10.097,0.349 12.766,-12.979 3.075,-13.104"
       style="fill:none;stroke:#231f20;stroke-width:0.5;stroke-linecap:butt;stroke-linejoin:miter;stroke-miterlimit:4;stroke-dasharray:none;stroke-opacity:1"
       id="path194829" />
    <path
       d="m 511.103,568.166 c 0,0 6.73,-12.843 9.748,-20.194 3.107,-7.561 4.032,-12.13 5.919,-19.148 1.316,-4.895 5.57,-17.061 3.83,-18.105 -1.741,-1.045 -5.57,8.356 -8.008,16.712 -2.437,8.356 -10.444,32.03 -11.489,40.735 z"
       style="fill:none;stroke:#231f20;stroke-width:0.5;stroke-linecap:butt;stroke-linejoin:miter;stroke-miterlimit:4;stroke-dasharray:none;stroke-opacity:1"
       id="path194831" />
    <path
       d="M 540,602.286 V 580.7"
       style="fill:none;stroke:#231f20;stroke-width:0.75;stroke-linecap:round;stroke-linejoin:round;stroke-miterlimit:4;stroke-dasharray:none;stroke-opacity:1"
       id="path194833" />
    <path
       d="m 563.808,667.447 c 0,-1.725 -1.316,-3.122 -2.94,-3.122 -1.622,0 -2.939,1.397 -2.939,3.122 0,1.724 1.317,3.123 2.939,3.123 1.624,0 2.94,-1.399 2.94,-3.123 z"
       style="fill:none;stroke:#231f20;stroke-width:0.5;stroke-linecap:butt;stroke-linejoin:miter;stroke-miterlimit:4;stroke-dasharray:none;stroke-opacity:1"
       id="path194835" />
    <path
       d="m 516.192,667.447 c 0,-1.725 1.316,-3.122 2.939,-3.122 1.624,0 2.941,1.397 2.941,3.122 0,1.724 -1.317,3.123 -2.941,3.123 -1.623,0 -2.939,-1.399 -2.939,-3.123 z"
       style="fill:none;stroke:#231f20;stroke-width:0.5;stroke-linecap:butt;stroke-linejoin:miter;stroke-miterlimit:4;stroke-dasharray:none;stroke-opacity:1"
       id="path194837" />
    <path
       d="m 568.898,568.166 c 8.355,-3.831 19.497,-15.32 18.452,-26.809 -1.04,-11.447 -9.077,-38.646 -37.949,-30.638"
       style="fill:none;stroke:#231f20;stroke-width:0.25;stroke-linecap:butt;stroke-linejoin:miter;stroke-miterlimit:4;stroke-dasharray:none;stroke-opacity:1"
       id="path194839" />
    <path
       d="m 511.103,568.166 c -8.355,-3.831 -19.497,-15.32 -18.452,-26.809 1.04,-11.447 9.076,-38.646 37.949,-30.638"
       style="fill:none;stroke:#231f20;stroke-width:0.25;stroke-linecap:butt;stroke-linejoin:miter;stroke-miterlimit:4;stroke-dasharray:none;stroke-opacity:1"
       id="path194841" />
    <path
       d="m 628.36,745.793 c 2.858,2.719 8.376,4.628 11.207,4.9"
       style="fill:none;stroke:#231f20;stroke-width:0.5;stroke-linecap:butt;stroke-linejoin:miter;stroke-miterlimit:4;stroke-dasharray:none;stroke-opacity:1"
       id="path194843" />
    <path
       d="m 451.641,745.793 c -2.858,2.719 -8.376,4.628 -11.208,4.9"
       style="fill:none;stroke:#231f20;stroke-width:0.5;stroke-linecap:butt;stroke-linejoin:miter;stroke-miterlimit:4;stroke-dasharray:none;stroke-opacity:1"
       id="path194845" />
    <path
       d="m 888.929,462.168 65.745,-41.737"
       style="fill:none;stroke:#231f20;stroke-width:0.5;stroke-linecap:round;stroke-linejoin:round;stroke-miterlimit:4;stroke-dasharray:2.8, 1.8;stroke-dashoffset:0;stroke-opacity:1"
       id="path194847" />
    <path
       d="M 910.686,519.865 982.164,508.63"
       style="fill:none;stroke:#231f20;stroke-width:0.5;stroke-linecap:round;stroke-linejoin:round;stroke-miterlimit:4;stroke-dasharray:2.8, 1.8;stroke-dashoffset:0;stroke-opacity:1"
       id="path194849" />
    <path
       d="m 915.221,545.202 61.412,-8.768"
       style="fill:none;stroke:#231f20;stroke-width:0.5;stroke-linecap:round;stroke-linejoin:round;stroke-miterlimit:4;stroke-dasharray:2.8, 1.8;stroke-dashoffset:0;stroke-opacity:1"
       id="path194851" />
    <path
       d="m 918.558,572.018 71.197,-9.806"
       style="fill:none;stroke:#231f20;stroke-width:0.5;stroke-linecap:round;stroke-linejoin:round;stroke-miterlimit:4;stroke-dasharray:2.8, 1.8;stroke-dashoffset:0;stroke-opacity:1"
       id="path194853" />
    <path
       d="m 919.991,597.066 73.343,-5.856"
       style="fill:none;stroke:#231f20;stroke-width:0.5;stroke-linecap:round;stroke-linejoin:round;stroke-miterlimit:4;stroke-dasharray:2.8, 1.8;stroke-dashoffset:0;stroke-opacity:1"
       id="path194855" />
    <path
       d="m 918.621,623.451 75.27,1.654"
       style="fill:none;stroke:#231f20;stroke-width:0.5;stroke-linecap:round;stroke-linejoin:round;stroke-miterlimit:4;stroke-dasharray:2.8, 1.8;stroke-dashoffset:0;stroke-opacity:1"
       id="path194857" />
    <path
       d="m 899.281,685.138 75.799,38.026"
       style="fill:none;stroke:#231f20;stroke-width:0.5;stroke-linecap:round;stroke-linejoin:round;stroke-miterlimit:4;stroke-dasharray:2.8, 1.8;stroke-dashoffset:0;stroke-opacity:1"
       id="path194859" />
    <path
       d="m 883.503,712.685 73.137,46.752"
       style="fill:none;stroke:#231f20;stroke-width:0.5;stroke-linecap:round;stroke-linejoin:round;stroke-miterlimit:4;stroke-dasharray:2.8, 1.8;stroke-dashoffset:0;stroke-opacity:1"
       id="path194861" />
    <path
       d="m 819.937,772.219 40.788,73.557"
       style="fill:none;stroke:#231f20;stroke-width:0.5;stroke-linecap:round;stroke-linejoin:round;stroke-miterlimit:4;stroke-dasharray:2.8, 1.8;stroke-dashoffset:0;stroke-opacity:1"
       id="path194863" />
    <path
       d="m 700.482,807.595 10.809,84.33"
       style="fill:none;stroke:#231f20;stroke-width:0.5;stroke-linecap:round;stroke-linejoin:round;stroke-miterlimit:4;stroke-dasharray:2.8, 1.8;stroke-dashoffset:0;stroke-opacity:1"
       id="path194865" />
    <path
       d="m 661.165,815.379 0.729,82.301"
       style="fill:none;stroke:#231f20;stroke-width:0.5;stroke-linecap:round;stroke-linejoin:round;stroke-miterlimit:4;stroke-dasharray:2.8, 1.8;stroke-dashoffset:0;stroke-opacity:1"
       id="path194867" />
    <path
       d="m 634.336,820.309 -12.889,78.343"
       style="fill:none;stroke:#231f20;stroke-width:0.5;stroke-linecap:round;stroke-linejoin:round;stroke-miterlimit:4;stroke-dasharray:2.8, 1.8;stroke-dashoffset:0;stroke-opacity:1"
       id="path194869" />
    <path
       d="M 619.829,806.275 545.46,860.5"
       style="fill:none;stroke:#231f20;stroke-width:0.5;stroke-linecap:round;stroke-linejoin:round;stroke-miterlimit:4;stroke-dasharray:2.8, 1.8;stroke-dashoffset:0;stroke-opacity:1"
       id="path194871" />
    <path
       d="m 540,776.713 73.364,0.275"
       style="fill:none;stroke:#231f20;stroke-width:0.5;stroke-linecap:round;stroke-linejoin:round;stroke-miterlimit:4;stroke-dasharray:2.8, 1.8;stroke-dashoffset:0;stroke-opacity:1"
       id="path194873" />
    <path
       d="m 613.885,750.211 -33.498,-31.06"
       style="fill:none;stroke:#231f20;stroke-width:0.5;stroke-linecap:round;stroke-linejoin:round;stroke-miterlimit:4;stroke-dasharray:2.8, 1.8;stroke-dashoffset:0;stroke-opacity:1"
       id="path194875" />
    <path
       d="m 643.376,745.48 c -7.98,-4.976 -26.781,-19.25 -10.765,-22.035 16.015,-2.785 50.831,-2.438 63.365,4.526 12.533,6.963 19.664,14.788 21.405,16.529"
       style="fill:none;stroke:#231f20;stroke-width:0.5;stroke-linecap:round;stroke-linejoin:round;stroke-miterlimit:4;stroke-dasharray:2.8, 1.8;stroke-dashoffset:0;stroke-opacity:1"
       id="path194877" />
    <path
       d="m 723.127,777.035 c -4.521,-6.588 -14.53,-37.14 4.877,-45.173"
       style="fill:none;stroke:#231f20;stroke-width:0.5;stroke-linecap:round;stroke-linejoin:round;stroke-miterlimit:4;stroke-dasharray:2.8, 1.8;stroke-dashoffset:0;stroke-opacity:1"
       id="path194879" />
    <path
       d="m 717.004,746.227 c 0,0 9.958,19.345 21.448,22.131 11.489,2.785 31.793,-0.485 58.839,-14.623 30.637,-16.016 34.467,-20.89 53.268,-42.824 18.801,-21.934 34.12,-56.75 41.083,-80.773 6.963,-24.023 13.23,-42.128 9.052,-81.817 -4.178,-39.691 -3.133,-60.233 -27.505,-84.951 0,0 -9.399,-5.223 -13.229,-6.268 0,0 19.148,20.542 26.112,39.343 6.963,18.801 12.882,51.179 10.793,82.165 -2.09,30.986 -8.357,60.232 -26.461,93.655 -18.104,33.424 -37.809,56.913 -55.304,67.289 -16.491,9.781 -39.743,20.1 -51.581,22.536 -11.838,2.438 -19.497,2.785 -26.112,-1.74 -6.615,-4.526 -14.438,-14.881 -20.403,-14.123"
       style="fill:#b2b1b1;fill-opacity:1;fill-rule:nonzero;stroke:none;stroke-width:0.1"
       id="path194881" />
    <path
       d="m 717.004,746.227 c 0,0 9.958,19.345 21.448,22.131 11.489,2.785 31.793,-0.485 58.839,-14.623 30.637,-16.016 34.467,-20.89 53.268,-42.824 18.801,-21.934 34.12,-56.75 41.083,-80.773 6.963,-24.023 13.23,-42.128 9.052,-81.817 -4.178,-39.691 -3.133,-60.233 -27.505,-84.951 0,0 -9.399,-5.223 -13.229,-6.268 0,0 19.148,20.542 26.112,39.343 6.963,18.801 12.882,51.179 10.793,82.165 -2.09,30.986 -8.357,60.232 -26.461,93.655 -18.104,33.424 -37.809,56.913 -55.304,67.289 -16.491,9.781 -39.743,20.1 -51.581,22.536 -11.838,2.438 -19.497,2.785 -26.112,-1.74 -6.615,-4.526 -14.438,-14.881 -20.403,-14.123 z"
       style="fill:none;stroke:#231f20;stroke-width:0.5;stroke-linecap:round;stroke-linejoin:round;stroke-miterlimit:4;stroke-dasharray:2.8, 1.8;stroke-dashoffset:0;stroke-opacity:1"
       id="path194883" />
    <path
       d="m 788.935,632.227 c 0,0 -4.179,4.178 -7.66,10.444 -3.481,6.268 -11.489,19.497 -22.63,28.55 -11.142,9.052 -20.193,15.319 -28.897,17.407 -8.704,2.09 -9.748,4.875 -9.052,8.704 0.696,3.831 3.481,7.312 10.096,7.312 6.615,0 29.246,0.349 42.127,-1.74 12.882,-2.089 27.853,-12.882 35.513,-20.194 7.659,-7.311 18.8,-18.453 23.675,-35.86 4.874,-17.408 8.007,-32.379 9.4,-40.735 1.393,-8.356 -1.393,-10.445 -2.786,-6.267 -1.392,4.178 -3.829,20.541 -6.266,24.72 -2.437,4.178 -5.223,9.748 -6.963,18.452 -1.742,8.704 -4.874,20.193 -16.364,31.683 -11.489,11.489 -22.282,19.844 -37.254,22.978 -14.97,3.134 -33.771,0.696 -41.43,-1.392 0,0 8.355,-5.223 18.452,-11.838 10.097,-6.616 25.067,-20.194 30.29,-29.594 5.223,-9.4 7.66,-13.23 9.749,-22.63"
       style="fill:#b2b1b1;fill-opacity:1;fill-rule:nonzero;stroke:none;stroke-width:0.1"
       id="path194885" />
    <path
       d="m 788.935,632.227 c 0,0 -4.179,4.178 -7.66,10.444 -3.481,6.268 -11.489,19.497 -22.63,28.55 -11.142,9.052 -20.193,15.319 -28.897,17.407 -8.704,2.09 -9.748,4.875 -9.052,8.704 0.696,3.831 3.481,7.312 10.096,7.312 6.615,0 29.246,0.349 42.127,-1.74 12.882,-2.089 27.853,-12.882 35.513,-20.194 7.659,-7.311 18.8,-18.453 23.675,-35.86 4.874,-17.408 8.007,-32.379 9.4,-40.735 1.393,-8.356 -1.393,-10.445 -2.786,-6.267 -1.392,4.178 -3.829,20.541 -6.266,24.72 -2.437,4.178 -5.223,9.748 -6.963,18.452 -1.742,8.704 -4.874,20.193 -16.364,31.683 -11.489,11.489 -22.282,19.844 -37.254,22.978 -14.97,3.134 -33.771,0.696 -41.43,-1.392 0,0 8.355,-5.223 18.452,-11.838 10.097,-6.616 25.067,-20.194 30.29,-29.594 5.223,-9.4 7.66,-13.23 9.749,-22.63 z"
       style="fill:none;stroke:#231f20;stroke-width:0.5;stroke-linecap:round;stroke-linejoin:round;stroke-miterlimit:4;stroke-dasharray:2.8, 1.8;stroke-dashoffset:0;stroke-opacity:1"
       id="path194887" />
    <path
       d="m 770.134,488.437 c 1.497,-4.492 11.49,-0.696 16.364,0.696 4.874,1.393 20.889,9.052 24.719,13.926 3.829,4.875 5.222,5.919 4.874,17.757 -0.348,11.837 0.348,37.949 -0.348,54.661 -0.697,16.712 -1.393,30.638 -5.222,46.653 -3.83,16.016 -8.356,34.12 -13.927,41.083 -5.57,6.963 -21.933,23.675 -26.112,21.238 -4.178,-2.437 9.053,-16.015 14.274,-21.934 5.223,-5.919 11.49,-9.053 17.409,-34.816 5.919,-25.764 11.489,-57.447 4.526,-82.863 -6.963,-25.415 -15.667,-38.645 -25.067,-45.26 -9.401,-6.615 -12.535,-8.008 -11.49,-11.141"
       style="fill:#b2b1b1;fill-opacity:1;fill-rule:nonzero;stroke:none;stroke-width:0.1"
       id="path194889" />
    <path
       d="m 770.134,488.437 c 1.497,-4.492 11.49,-0.696 16.364,0.696 4.874,1.393 20.889,9.052 24.719,13.926 3.829,4.875 5.222,5.919 4.874,17.757 -0.348,11.837 0.348,37.949 -0.348,54.661 -0.697,16.712 -1.393,30.638 -5.222,46.653 -3.83,16.016 -8.356,34.12 -13.927,41.083 -5.57,6.963 -21.933,23.675 -26.112,21.238 -4.178,-2.437 9.053,-16.015 14.274,-21.934 5.223,-5.919 11.49,-9.053 17.409,-34.816 5.919,-25.764 11.489,-57.447 4.526,-82.863 -6.963,-25.415 -15.667,-38.645 -25.067,-45.26 -9.401,-6.615 -12.535,-8.008 -11.49,-11.141 z"
       style="fill:none;stroke:#231f20;stroke-width:0.5;stroke-linecap:round;stroke-linejoin:round;stroke-miterlimit:4;stroke-dasharray:2.8, 1.8;stroke-dashoffset:0;stroke-opacity:1"
       id="path194891" />
    <path
       d="m 788.935,632.227 c 3.481,-12.185 6.267,-27.505 6.963,-42.824"
       style="fill:none;stroke:#231f20;stroke-width:0.5;stroke-linecap:round;stroke-linejoin:round;stroke-miterlimit:4;stroke-dasharray:2.8, 1.8;stroke-dashoffset:0;stroke-opacity:1"
       id="path194893" />
    <path
       d="m 776.429,659.056 c -1.768,5.201 -6.295,11.817 -9.776,16.343 -3.483,4.526 -4.273,9.079 3.067,7.916"
       style="fill:none;stroke:#231f20;stroke-width:0.5;stroke-linecap:round;stroke-linejoin:round;stroke-miterlimit:4;stroke-dasharray:2.8, 1.8;stroke-dashoffset:0;stroke-opacity:1"
       id="path194895" />
    <path
       d="m 778.004,681.476 c 9.19,-4.337 32.476,-12.888 52.167,-52.654"
       style="fill:none;stroke:#231f20;stroke-width:0.5;stroke-linecap:round;stroke-linejoin:round;stroke-miterlimit:4;stroke-dasharray:2.8, 1.8;stroke-dashoffset:0;stroke-opacity:1"
       id="path194897" />
    <path
       d="m 706.769,711.259 c 4.178,8.008 10.793,19.497 32.379,24.024 21.586,4.525 44.564,4.177 77.291,-23.675 32.727,-27.854 42.981,-72.117 54.313,-116.634 9.748,-38.298 2.089,-65.803 1.044,-70.329 -1.044,-4.525 -9.051,-33.075 -12.881,-41.778 -3.83,-8.704 -9.052,-27.854 1.045,-25.765"
       style="fill:none;stroke:#231f20;stroke-width:0.5;stroke-linecap:round;stroke-linejoin:round;stroke-miterlimit:4;stroke-dasharray:2.8, 1.8;stroke-dashoffset:0;stroke-opacity:1"
       id="path194899" />
    <path
       d="m 862.894,493.958 c -7.461,-5.87 -22.171,-16.56 -33.312,-10.99"
       style="fill:none;stroke:#231f20;stroke-width:0.5;stroke-linecap:round;stroke-linejoin:round;stroke-miterlimit:4;stroke-dasharray:2.8, 1.8;stroke-dashoffset:0;stroke-opacity:1"
       id="path194903" />
    <path
       d="m 859.96,457.102 c -9.053,-8.355 -23.675,-18.452 -46.306,-22.63 -22.63,-4.178 -50.484,-8.704 -68.239,-16.712 -17.756,-8.008 -24.371,-19.844 -22.283,-26.46 2.089,-6.615 17.755,-22.293 51.875,-7.671"
       style="fill:none;stroke:#231f20;stroke-width:0.5;stroke-linecap:round;stroke-linejoin:round;stroke-miterlimit:4;stroke-dasharray:2.8, 1.8;stroke-dashoffset:0;stroke-opacity:1"
       id="path194905" />
    <path
       d="m 747.849,377.611 c 2.092,7.77 15.67,21.348 25.911,23.855"
       style="fill:none;stroke:#231f20;stroke-width:0.5;stroke-linecap:round;stroke-linejoin:round;stroke-miterlimit:4;stroke-dasharray:2.8, 1.8;stroke-dashoffset:0;stroke-opacity:1"
       id="path194907" />
    <path
       d="m 799.379,387.123 c 8.314,-1.087 25.068,-3.831 24.371,-11.142 -0.696,-7.312 -17.408,-5.919 -26.807,-5.223 -9.401,0.697 -24.372,3.83 -22.98,10.793 1.394,6.964 18.772,6.441 25.416,5.572 z"
       style="fill:none;stroke:#231f20;stroke-width:0.5;stroke-linecap:round;stroke-linejoin:round;stroke-miterlimit:4;stroke-dasharray:2.8, 1.8;stroke-dashoffset:0;stroke-opacity:1"
       id="path194909" />
    <path
       d="m 808.252,408.205 c -2.606,-5.415 -4.294,-17.04 2.294,-23.066"
       style="fill:none;stroke:#231f20;stroke-width:0.5;stroke-linecap:round;stroke-linejoin:round;stroke-miterlimit:4;stroke-dasharray:2.8, 1.8;stroke-dashoffset:0;stroke-opacity:1"
       id="path194911" />
    <path
       d="m 812.587,384.606 c 8.378,3.213 25.09,9.132 38.668,8.783 13.579,-0.349 41.525,-1.053 57.099,7.312 18.8,10.096 34.203,24.194 33.117,27.764 -1.087,3.57 -26.158,1.885 -48.089,-1.304 -20.814,-3.028 -53.827,-9.009 -66.59,-11.968"
       style="fill:none;stroke:#231f20;stroke-width:0.5;stroke-linecap:round;stroke-linejoin:round;stroke-miterlimit:4;stroke-dasharray:2.8, 1.8;stroke-dashoffset:0;stroke-opacity:1"
       id="path194913" />
    <path
       d="m 800.055,657.285 c 6.636,-7.302 19.17,-29.236 21.955,-57.785 2.785,-28.549 2.773,-57.568 -5.919,-78.684"
       style="fill:none;stroke:#231f20;stroke-width:0.5;stroke-linecap:round;stroke-linejoin:round;stroke-miterlimit:4;stroke-dasharray:2.8, 1.8;stroke-dashoffset:0;stroke-opacity:1"
       id="path194915" />
    <path
       d="m 814.092,506.916 c 6.873,3.803 14.532,11.462 19.755,31.308 5.223,19.845 10.397,31.214 5.721,59.997"
       style="fill:none;stroke:#231f20;stroke-width:0.5;stroke-linecap:round;stroke-linejoin:round;stroke-miterlimit:4;stroke-dasharray:2.8, 1.8;stroke-dashoffset:0;stroke-opacity:1"
       id="path194917" />
    <path
       d="m 750.242,496.613 c 3.768,0.933 8.286,3.345 13.626,8.536 12.533,12.185 38.993,38.993 31.334,60.231 0,0 -2.05,-14.583 -6.963,-23.674 -6.964,-12.882 -16.16,-25.69 -24.371,-32.728 -9.749,-8.355 -15.76,-11.146 -13.626,-12.365"
       style="fill:#b2b1b1;fill-opacity:1;fill-rule:nonzero;stroke:none;stroke-width:0.1"
       id="path194919" />
    <path
       d="m 750.242,496.613 c 3.768,0.933 8.286,3.345 13.626,8.536 12.533,12.185 38.993,38.993 31.334,60.231 0,0 -2.05,-14.583 -6.963,-23.674 -6.964,-12.882 -16.16,-25.69 -24.371,-32.728 -9.749,-8.355 -15.76,-11.146 -13.626,-12.365 z"
       style="fill:none;stroke:#231f20;stroke-width:0.5;stroke-linecap:round;stroke-linejoin:round;stroke-miterlimit:4;stroke-dasharray:2.8, 1.8;stroke-dashoffset:0;stroke-opacity:1"
       id="path194921" />
    <path
       d="m 738.91,497.707 c 2.535,-0.925 6.254,-2.35 11.332,-1.094"
       style="fill:none;stroke:#231f20;stroke-width:0.5;stroke-linecap:round;stroke-linejoin:round;stroke-miterlimit:4;stroke-dasharray:2.8, 1.8;stroke-dashoffset:0;stroke-opacity:1"
       id="path194923" />
    <path
       d="m 329.759,496.613 c -3.768,0.933 -8.286,3.345 -13.626,8.536 -12.533,12.185 -38.994,38.993 -31.334,60.231 0,0 2.049,-14.583 6.963,-23.674 6.963,-12.882 16.159,-25.69 24.371,-32.728 9.749,-8.355 15.76,-11.146 13.626,-12.365"
       style="fill:#b2b1b1;fill-opacity:1;fill-rule:nonzero;stroke:none;stroke-width:0.1"
       id="path194925" />
    <path
       d="m 329.759,496.613 c -3.768,0.933 -8.286,3.345 -13.626,8.536 -12.533,12.185 -38.994,38.993 -31.334,60.231 0,0 2.049,-14.583 6.963,-23.674 6.963,-12.882 16.159,-25.69 24.371,-32.728 9.749,-8.355 15.76,-11.146 13.626,-12.365 z"
       style="fill:none;stroke:#231f20;stroke-width:0.5;stroke-linecap:round;stroke-linejoin:round;stroke-miterlimit:4;stroke-dasharray:2.8, 1.8;stroke-dashoffset:0;stroke-opacity:1"
       id="path194927" />
    <path
       d="m 341.09,497.707 c -2.534,-0.925 -6.253,-2.35 -11.331,-1.094"
       style="fill:none;stroke:#231f20;stroke-width:0.5;stroke-linecap:round;stroke-linejoin:round;stroke-miterlimit:4;stroke-dasharray:2.8, 1.8;stroke-dashoffset:0;stroke-opacity:1"
       id="path194929" />
    <path
       d="m 761.53,503.003 c -3.234,-4.122 -7.096,-13.739 8.588,-12.586"
       style="fill:none;stroke:#231f20;stroke-width:0.5;stroke-linecap:round;stroke-linejoin:round;stroke-miterlimit:4;stroke-dasharray:2.8, 1.8;stroke-dashoffset:0;stroke-opacity:1"
       id="path194931" />
    <path
       d="m 698.414,436.909 c 2.765,5.24 6.748,11.601 10.793,10.445 2.436,-0.696 -2.438,-9.052 1.392,-9.748 3.829,-0.697 0.696,5.57 19.149,17.407 18.452,11.838 34.12,16.016 50.134,20.89 16.016,4.874 32.728,11.489 40.387,19.846 7.659,8.355 18.105,22.282 20.542,35.86 2.437,13.578 -1.429,26.272 -0.687,31.451 0.741,5.179 1.731,14.854 4.516,14.854 2.785,0 5.223,-5.918 5.57,-18.104 0.349,-12.186 -0.347,-25.068 -7.31,-40.039 -6.964,-14.971 -23.113,-34.534 -30.639,-38.297 -9.051,-4.526 -36.208,-11.49 -53.965,-18.104 -17.755,-6.616 -34.467,-16.365 -39.341,-24.72 -4.874,-8.356 -8.008,-12.186 -10.793,-11.489 -2.786,0.696 -3.83,4.526 -4.178,8.355 -0.349,3.83 -2.438,3.134 -5.57,1.393"
       style="fill:#b2b1b1;fill-opacity:1;fill-rule:nonzero;stroke:none;stroke-width:0.1"
       id="path194933" />
    <path
       d="m 698.414,436.909 c 2.765,5.24 6.748,11.601 10.793,10.445 2.436,-0.696 -2.438,-9.052 1.392,-9.748 3.829,-0.697 0.696,5.57 19.149,17.407 18.452,11.838 34.12,16.016 50.134,20.89 16.016,4.874 32.728,11.489 40.387,19.846 7.659,8.355 18.105,22.282 20.542,35.86 2.437,13.578 -1.429,26.272 -0.687,31.451 0.741,5.179 1.731,14.854 4.516,14.854 2.785,0 5.223,-5.918 5.57,-18.104 0.349,-12.186 -0.347,-25.068 -7.31,-40.039 -6.964,-14.971 -23.113,-34.534 -30.639,-38.297 -9.051,-4.526 -36.208,-11.49 -53.965,-18.104 -17.755,-6.616 -34.467,-16.365 -39.341,-24.72 -4.874,-8.356 -8.008,-12.186 -10.793,-11.489 -2.786,0.696 -3.83,4.526 -4.178,8.355 -0.349,3.83 -2.438,3.134 -5.57,1.393 z"
       style="fill:none;stroke:#231f20;stroke-width:0.5;stroke-linecap:round;stroke-linejoin:round;stroke-miterlimit:4;stroke-dasharray:2.8, 1.8;stroke-dashoffset:0;stroke-opacity:1"
       id="path194935" />
    <path
       d="m 546.933,681.387 c -1.361,-0.09 -1.014,10.375 1.075,16.294 2.089,5.919 6.963,13.927 22.63,16.016 12.202,1.626 22.631,2.436 40.387,0.347 17.756,-2.088 37.461,-6.27 47.698,-8.355 9.401,-1.915 16.015,-9.465 11.489,-12.25"
       style="fill:none;stroke:#231f20;stroke-width:0.5;stroke-linecap:round;stroke-linejoin:round;stroke-miterlimit:4;stroke-dasharray:2.8, 1.8;stroke-dashoffset:0;stroke-opacity:1"
       id="path194937" />
    <path
       d="m 540,629.79 c 11.141,0 4.527,-20.194 0,-20.194"
       style="fill:none;stroke:#231f20;stroke-width:0.5;stroke-linecap:round;stroke-linejoin:round;stroke-miterlimit:4;stroke-dasharray:2.8, 1.8;stroke-dashoffset:0;stroke-opacity:1"
       id="path194939" />
    <path
       d="m 686.576,663.91 c 3.83,-6.267 14.623,-26.113 27.505,-15.32"
       style="fill:none;stroke:#231f20;stroke-width:0.5;stroke-linecap:round;stroke-linejoin:round;stroke-miterlimit:4;stroke-dasharray:2.8, 1.8;stroke-dashoffset:0;stroke-opacity:1"
       id="path194941" />
    <path
       d="m 722.55,657.823 c -4.988,-0.529 -12.996,-4.706 -6.381,-12.366 6.616,-7.66 31.683,-14.971 39.342,-19.149 7.659,-4.178 19.846,-10.097 21.935,-19.845 2.089,-9.749 4.525,-28.897 0.696,-37.253 -3.83,-8.356 -10.097,-13.926 -11.142,-16.711 -1.043,-2.786 -3.481,-7.312 -9.748,-9.401 -6.267,-2.089 -28.897,-5.919 -35.86,8.356 -6.964,14.274 -2.09,33.771 -0.696,37.601 1.392,3.83 3.481,11.141 3.133,20.194 -0.348,9.051 4.292,22.268 6.15,27.671"
       style="fill:none;stroke:#231f20;stroke-width:0.5;stroke-linecap:round;stroke-linejoin:round;stroke-miterlimit:4;stroke-dasharray:2.8, 1.8;stroke-dashoffset:0;stroke-opacity:1"
       id="path194943" />
    <path
       d="m 720.759,641.729 c -4.59,-11.591 -10.16,-35.614 -12.597,-43.97 -2.438,-8.356 -12.882,-43.172 10.793,-54.661 23.674,-11.489 46.003,-6.361 54.873,5.749"
       style="fill:none;stroke:#231f20;stroke-width:0.5;stroke-linecap:round;stroke-linejoin:round;stroke-miterlimit:4;stroke-dasharray:2.8, 1.8;stroke-dashoffset:0;stroke-opacity:1"
       id="path194945" />
    <path
       d="m 708.553,599.139 c 6.92,-1.728 16.668,-4.514 24.328,-4.861 7.66,-0.349 40.718,-1.949 46.123,3.202"
       style="fill:none;stroke:#231f20;stroke-width:0.5;stroke-linecap:round;stroke-linejoin:round;stroke-miterlimit:4;stroke-dasharray:2.8, 1.8;stroke-dashoffset:0;stroke-opacity:1"
       id="path194947" />
    <path
       d="m 764.208,621.424 c 0,0 4.196,0.828 7.846,-0.103"
       style="fill:none;stroke:#231f20;stroke-width:0.5;stroke-linecap:round;stroke-linejoin:round;stroke-miterlimit:4;stroke-dasharray:2.8, 1.8;stroke-dashoffset:0;stroke-opacity:1"
       id="path194949" />
    <path
       d="m 698.761,616.56 c -6.266,-3.481 -22.282,-12.186 -34.816,-28.201 -12.533,-16.016 -17.379,-24.775 -12.533,-34.12 4.874,-9.401 9.4,-11.489 17.756,-9.052 8.356,2.437 17.059,14.97 19.845,25.067 2.785,10.098 9.748,46.306 9.748,46.306 z"
       style="fill:none;stroke:#231f20;stroke-width:0.5;stroke-linecap:round;stroke-linejoin:round;stroke-miterlimit:4;stroke-dasharray:2.8, 1.8;stroke-dashoffset:0;stroke-opacity:1"
       id="path194951" />
    <path
       d="m 674.084,547.699 c 7.965,4.103 16.322,10.369 19.107,21.511 2.785,11.142 7.311,34.468 9.052,42.824 1.741,8.355 4.526,14.97 1.741,15.667 -2.785,0.696 -3.852,-4.106 -5.223,-11.141"
       style="fill:none;stroke:#231f20;stroke-width:0.5;stroke-linecap:round;stroke-linejoin:round;stroke-miterlimit:4;stroke-dasharray:2.8, 1.8;stroke-dashoffset:0;stroke-opacity:1"
       id="path194953" />
    <path
       d="m 686.303,556.58 c -7.039,-8.956 -15.047,-24.623 -15.394,-33.328 -0.349,-8.703 2.785,-10.793 9.4,-9.4 6.615,1.394 23.675,3.83 27.504,5.223 3.83,1.392 6.964,1.045 8.008,8.356 1.045,7.311 3.751,17.763 6.227,22.809"
       style="fill:none;stroke:#231f20;stroke-width:0.5;stroke-linecap:round;stroke-linejoin:round;stroke-miterlimit:4;stroke-dasharray:2.8, 1.8;stroke-dashoffset:0;stroke-opacity:1"
       id="path194955" />
    <path
       d="m 673.22,533.049 c 6.393,3.783 27.63,11.472 46.103,9.873"
       style="fill:none;stroke:#231f20;stroke-width:0.5;stroke-linecap:round;stroke-linejoin:round;stroke-miterlimit:4;stroke-dasharray:2.8, 1.8;stroke-dashoffset:0;stroke-opacity:1"
       id="path194957" />
    <path
       d="m 700.503,603.47 c 0,0 3.829,-3.274 8.05,-4.331"
       style="fill:none;stroke:#231f20;stroke-width:0.5;stroke-linecap:round;stroke-linejoin:round;stroke-miterlimit:4;stroke-dasharray:2.8, 1.8;stroke-dashoffset:0;stroke-opacity:1"
       id="path194959" />
    <path
       d="m 710.668,476.402 c 1.109,2.423 -2.649,10.56 -5.64,14.472 -4.526,5.918 -11.837,8.704 -14.971,10.096 -3.133,1.393 -2.785,5.223 2.089,7.66 4.874,2.437 21.478,3.998 27.103,-3.92"
       style="fill:none;stroke:#231f20;stroke-width:0.5;stroke-linecap:round;stroke-linejoin:round;stroke-miterlimit:4;stroke-dasharray:2.8, 1.8;stroke-dashoffset:0;stroke-opacity:1"
       id="path194965" />
    <path
       d="m 690.057,500.97 c -8.008,-1.74 -11.837,-2.785 -19.845,-11.14 -8.007,-8.356 -19.497,-21.239 -29.942,-28.898 -10.444,-7.659 -24.371,-18.801 -29.941,-25.067 -5.571,-6.267 -7.66,-11.142 -11.49,-12.186 -3.83,-1.045 -9.081,-2.098 -9.081,-2.098"
       style="fill:none;stroke:#231f20;stroke-width:0.5;stroke-linecap:round;stroke-linejoin:round;stroke-miterlimit:4;stroke-dasharray:2.8, 1.8;stroke-dashoffset:0;stroke-opacity:1"
       id="path194967" />
    <path
       d="m 588.826,422.388 c 7.228,8.95 23.244,26.011 28.466,30.885 5.222,4.874 20.386,16.143 29.69,13.12"
       style="fill:none;stroke:#231f20;stroke-width:0.5;stroke-linecap:round;stroke-linejoin:round;stroke-miterlimit:4;stroke-dasharray:2.8, 1.8;stroke-dashoffset:0;stroke-opacity:1"
       id="path194969" />
    <path
       d="m 665.638,485 c 0.744,7.615 4.922,13.881 8.056,16.666 3.134,2.787 10.51,6.338 15.178,4.388"
       style="fill:none;stroke:#231f20;stroke-width:0.5;stroke-linecap:round;stroke-linejoin:round;stroke-miterlimit:4;stroke-dasharray:2.8, 1.8;stroke-dashoffset:0;stroke-opacity:1"
       id="path194971" />
    <path
       d="m 634.352,508.282 c 7.665,-0.201 19.148,3.134 19.845,13.23 0.696,10.097 -2.438,19.497 -15.667,19.845 -13.231,0.349 -20.89,-5.919 -21.935,-14.622 -1.044,-8.704 4.527,-18.105 17.757,-18.453 z"
       style="fill:none;stroke:#231f20;stroke-width:0.5;stroke-linecap:round;stroke-linejoin:round;stroke-miterlimit:4;stroke-dasharray:2.8, 1.8;stroke-dashoffset:0;stroke-opacity:1"
       id="path194973" />
    <path
       d="m 602.669,471.377 c -5.571,0 -10.096,1.741 -10.096,6.963 0,5.223 6.963,9.401 11.14,9.401 4.178,0 11.316,-0.87 10.924,-7.617"
       style="fill:none;stroke:#231f20;stroke-width:0.5;stroke-linecap:round;stroke-linejoin:round;stroke-miterlimit:4;stroke-dasharray:2.8, 1.8;stroke-dashoffset:0;stroke-opacity:1"
       id="path194975" />
    <path
       d="m 553.216,484.322 c 7.312,-6.268 21.949,-18.516 40.401,-20.256 18.453,-1.741 28.797,2.17 32.503,3.696 3.706,1.526 11.956,2.753 12.182,-1.69"
       style="fill:none;stroke:#231f20;stroke-width:0.5;stroke-linecap:round;stroke-linejoin:round;stroke-miterlimit:4;stroke-dasharray:2.8, 1.8;stroke-dashoffset:0;stroke-opacity:1"
       id="path194977" />
    <path
       d="m 550.834,478.576 c 0.656,-5.806 2.649,-16.16 6.131,-21.731"
       style="fill:none;stroke:#231f20;stroke-width:0.5;stroke-linecap:round;stroke-linejoin:round;stroke-miterlimit:4;stroke-dasharray:2.8, 1.8;stroke-dashoffset:0;stroke-opacity:1"
       id="path194979" />
    <path
       d="m 558.41,456.294 c -2.476,0.924 -9.219,1.327 -10.402,-1.628 -1.183,-2.956 0,-7.312 5.222,-9.75 5.223,-2.436 22.978,-12.185 30.639,-20.193"
       style="fill:none;stroke:#231f20;stroke-width:0.5;stroke-linecap:round;stroke-linejoin:round;stroke-miterlimit:4;stroke-dasharray:2.8, 1.8;stroke-dashoffset:0;stroke-opacity:1"
       id="path194981" />
    <path
       d="m 555.98,539.033 c -5.535,6.85 -13.543,15.902 -8.32,23.91 5.222,8.008 12.882,9.053 21.238,5.223"
       style="fill:none;stroke:#231f20;stroke-width:0.5;stroke-linecap:round;stroke-linejoin:round;stroke-miterlimit:4;stroke-dasharray:2.8, 1.8;stroke-dashoffset:0;stroke-opacity:1"
       id="path194983" />
    <path
       d="m 566.039,555.75 c 6.688,-2.904 15.427,-12.292 12.259,-22.749 -3.482,-11.489 -12.247,-15.583 -23.879,-14.406"
       style="fill:none;stroke:#231f20;stroke-width:0.5;stroke-linecap:round;stroke-linejoin:round;stroke-miterlimit:4;stroke-dasharray:2.8, 1.8;stroke-dashoffset:0;stroke-opacity:1"
       id="path194985" />
    <path
       d="m 542.437,553.891 c 1.393,0 3.482,-9.749 4.179,-12.882 0.696,-3.134 3.481,-14.274 -0.349,-14.623 -3.83,-0.347 -6.267,11.838 -6.267,15.32 0,3.481 0.697,12.185 2.437,12.185 z"
       style="fill:none;stroke:#231f20;stroke-width:0.5;stroke-linecap:round;stroke-linejoin:round;stroke-miterlimit:4;stroke-dasharray:2.8, 1.8;stroke-dashoffset:0;stroke-opacity:1"
       id="path194987" />
    <path
       d="m 551.137,545.184 c -2.085,-2.086 -3.415,-7.763 -3.153,-11.191"
       style="fill:none;stroke:#231f20;stroke-width:0.5;stroke-linecap:round;stroke-linejoin:round;stroke-miterlimit:4;stroke-dasharray:2.8, 1.8;stroke-dashoffset:0;stroke-opacity:1"
       id="path194989" />
    <path
       d="m 542.508,530.389 c -0.767,-5.047 0.313,-17.195 1.514,-20.173"
       style="fill:none;stroke:#231f20;stroke-width:0.5;stroke-linecap:round;stroke-linejoin:round;stroke-miterlimit:4;stroke-dasharray:2.8, 1.8;stroke-dashoffset:0;stroke-opacity:1"
       id="path194991" />
    <path
       d="m 545.269,509.002 c 0,0 1.92,0.308 3.723,3.102"
       style="fill:none;stroke:#231f20;stroke-width:0.5;stroke-linecap:round;stroke-linejoin:round;stroke-miterlimit:4;stroke-dasharray:2.8, 1.8;stroke-dashoffset:0;stroke-opacity:1"
       id="path194993" />
    <path
       d="m 565.764,618.416 14.045,7.989"
       style="fill:none;stroke:#231f20;stroke-width:0.5;stroke-linecap:round;stroke-linejoin:round;stroke-miterlimit:4;stroke-dasharray:2.8, 1.8;stroke-dashoffset:0;stroke-opacity:1"
       id="path194995" />
    <path
       d="m 623.231,716.651 3.162,12.013"
       style="fill:none;stroke:#231f20;stroke-width:0.5;stroke-linecap:round;stroke-linejoin:round;stroke-miterlimit:4;stroke-dasharray:2.8, 1.8;stroke-dashoffset:0;stroke-opacity:1"
       id="path194997" />
    <path
       d="M 191.072,462.168 125.327,420.431"
       style="fill:none;stroke:#231f20;stroke-width:0.5;stroke-linecap:round;stroke-linejoin:round;stroke-miterlimit:4;stroke-dasharray:2.8, 1.8;stroke-dashoffset:0;stroke-opacity:1"
       id="path194999" />
    <path
       d="M 169.315,519.865 97.8371,508.63"
       style="fill:none;stroke:#231f20;stroke-width:0.5;stroke-linecap:round;stroke-linejoin:round;stroke-miterlimit:4;stroke-dasharray:2.8, 1.8;stroke-dashoffset:0;stroke-opacity:1"
       id="path195001" />
    <path
       d="m 164.779,545.202 -61.412,-8.768"
       style="fill:none;stroke:#231f20;stroke-width:0.5;stroke-linecap:round;stroke-linejoin:round;stroke-miterlimit:4;stroke-dasharray:2.8, 1.8;stroke-dashoffset:0;stroke-opacity:1"
       id="path195003" />
    <path
       d="M 161.443,572.018 90.3008,561.968"
       style="fill:none;stroke:#231f20;stroke-width:0.5;stroke-linecap:round;stroke-linejoin:round;stroke-miterlimit:4;stroke-dasharray:2.8, 1.8;stroke-dashoffset:0;stroke-opacity:1"
       id="path195005" />
    <path
       d="M 160.009,597.066 86.668,591.21"
       style="fill:none;stroke:#231f20;stroke-width:0.5;stroke-linecap:round;stroke-linejoin:round;stroke-miterlimit:4;stroke-dasharray:2.8, 1.8;stroke-dashoffset:0;stroke-opacity:1"
       id="path195007" />
    <path
       d="m 161.38,623.451 -75.2695,1.654"
       style="fill:none;stroke:#231f20;stroke-width:0.5;stroke-linecap:round;stroke-linejoin:round;stroke-miterlimit:4;stroke-dasharray:2.8, 1.8;stroke-dashoffset:0;stroke-opacity:1"
       id="path195009" />
    <path
       d="M 180.719,685.138 104.92,723.164"
       style="fill:none;stroke:#231f20;stroke-width:0.5;stroke-linecap:round;stroke-linejoin:round;stroke-miterlimit:4;stroke-dasharray:2.8, 1.8;stroke-dashoffset:0;stroke-opacity:1"
       id="path195011" />
    <path
       d="M 196.497,712.685 123.36,759.437"
       style="fill:none;stroke:#231f20;stroke-width:0.5;stroke-linecap:round;stroke-linejoin:round;stroke-miterlimit:4;stroke-dasharray:2.8, 1.8;stroke-dashoffset:0;stroke-opacity:1"
       id="path195013" />
    <path
       d="m 260.063,772.219 -40.787,73.557"
       style="fill:none;stroke:#231f20;stroke-width:0.5;stroke-linecap:round;stroke-linejoin:round;stroke-miterlimit:4;stroke-dasharray:2.8, 1.8;stroke-dashoffset:0;stroke-opacity:1"
       id="path195015" />
    <path
       d="m 379.519,807.595 -10.809,84.33"
       style="fill:none;stroke:#231f20;stroke-width:0.5;stroke-linecap:round;stroke-linejoin:round;stroke-miterlimit:4;stroke-dasharray:2.8, 1.8;stroke-dashoffset:0;stroke-opacity:1"
       id="path195017" />
    <path
       d="m 418.836,815.379 -0.73,82.301"
       style="fill:none;stroke:#231f20;stroke-width:0.5;stroke-linecap:round;stroke-linejoin:round;stroke-miterlimit:4;stroke-dasharray:2.8, 1.8;stroke-dashoffset:0;stroke-opacity:1"
       id="path195019" />
    <path
       d="m 445.664,820.309 12.89,78.343"
       style="fill:none;stroke:#231f20;stroke-width:0.5;stroke-linecap:round;stroke-linejoin:round;stroke-miterlimit:4;stroke-dasharray:2.8, 1.8;stroke-dashoffset:0;stroke-opacity:1"
       id="path195021" />
    <path
       d="m 460.172,806.275 74.37,54.225"
       style="fill:none;stroke:#231f20;stroke-width:0.5;stroke-linecap:round;stroke-linejoin:round;stroke-miterlimit:4;stroke-dasharray:2.8, 1.8;stroke-dashoffset:0;stroke-opacity:1"
       id="path195023" />
    <path
       d="m 540,776.713 -73.364,0.275"
       style="fill:none;stroke:#231f20;stroke-width:0.5;stroke-linecap:round;stroke-linejoin:round;stroke-miterlimit:4;stroke-dasharray:2.8, 1.8;stroke-dashoffset:0;stroke-opacity:1"
       id="path195025" />
    <path
       d="m 466.116,750.211 33.498,-31.06"
       style="fill:none;stroke:#231f20;stroke-width:0.5;stroke-linecap:round;stroke-linejoin:round;stroke-miterlimit:4;stroke-dasharray:2.8, 1.8;stroke-dashoffset:0;stroke-opacity:1"
       id="path195027" />
    <path
       d="m 436.624,745.48 c 7.98,-4.976 26.781,-19.25 10.766,-22.035 -16.015,-2.785 -50.832,-2.438 -63.365,4.526 -12.534,6.963 -19.664,14.788 -21.405,16.529"
       style="fill:none;stroke:#231f20;stroke-width:0.5;stroke-linecap:round;stroke-linejoin:round;stroke-miterlimit:4;stroke-dasharray:2.8, 1.8;stroke-dashoffset:0;stroke-opacity:1"
       id="path195029" />
    <path
       d="m 356.874,777.035 c 4.52,-6.588 14.53,-37.14 -4.877,-45.173"
       style="fill:none;stroke:#231f20;stroke-width:0.5;stroke-linecap:round;stroke-linejoin:round;stroke-miterlimit:4;stroke-dasharray:2.8, 1.8;stroke-dashoffset:0;stroke-opacity:1"
       id="path195031" />
    <path
       d="m 362.997,746.227 c 0,0 -9.958,19.345 -21.448,22.131 -11.489,2.785 -31.793,-0.485 -58.839,-14.623 -30.638,-16.016 -34.467,-20.89 -53.268,-42.824 -18.801,-21.934 -34.12,-56.75 -41.083,-80.773 -6.964,-24.023 -13.231,-42.128 -9.053,-81.817 4.179,-39.691 3.134,-60.233 27.505,-84.951 0,0 9.4,-5.223 13.231,-6.268 0,0 -19.15,20.542 -26.113,39.343 -6.963,18.801 -12.882,51.179 -10.793,82.165 2.089,30.986 8.356,60.232 26.46,93.655 18.105,33.424 37.81,56.913 55.305,67.289 16.491,9.781 39.743,20.1 51.581,22.536 11.837,2.438 19.497,2.785 26.111,-1.74 6.615,-4.526 14.439,-14.881 20.404,-14.123"
       style="fill:#b2b1b1;fill-opacity:1;fill-rule:nonzero;stroke:none;stroke-width:0.1"
       id="path195033" />
    <path
       d="m 362.997,746.227 c 0,0 -9.958,19.345 -21.448,22.131 -11.489,2.785 -31.793,-0.485 -58.839,-14.623 -30.638,-16.016 -34.467,-20.89 -53.268,-42.824 -18.801,-21.934 -34.12,-56.75 -41.083,-80.773 -6.964,-24.023 -13.231,-42.128 -9.053,-81.817 4.179,-39.691 3.134,-60.233 27.505,-84.951 0,0 9.4,-5.223 13.231,-6.268 0,0 -19.15,20.542 -26.113,39.343 -6.963,18.801 -12.882,51.179 -10.793,82.165 2.089,30.986 8.356,60.232 26.46,93.655 18.105,33.424 37.81,56.913 55.305,67.289 16.491,9.781 39.743,20.1 51.581,22.536 11.837,2.438 19.497,2.785 26.111,-1.74 6.615,-4.526 14.439,-14.881 20.404,-14.123 z"
       style="fill:none;stroke:#231f20;stroke-width:0.5;stroke-linecap:round;stroke-linejoin:round;stroke-miterlimit:4;stroke-dasharray:2.8, 1.8;stroke-dashoffset:0;stroke-opacity:1"
       id="path195035" />
    <path
       d="m 291.066,632.227 c 0,0 4.178,4.178 7.659,10.444 3.482,6.268 11.489,19.497 22.631,28.55 11.141,9.052 20.193,15.319 28.897,17.407 8.705,2.09 9.748,4.875 9.052,8.704 -0.696,3.831 -3.481,7.312 -10.097,7.312 -6.615,0 -29.245,0.349 -42.126,-1.74 -12.882,-2.089 -27.854,-12.882 -35.513,-20.194 -7.659,-7.311 -18.801,-18.453 -23.675,-35.86 -4.874,-17.408 -8.008,-32.379 -9.4,-40.735 -1.393,-8.356 1.392,-10.445 2.785,-6.267 1.392,4.178 3.83,20.541 6.266,24.72 2.438,4.178 5.223,9.748 6.964,18.452 1.741,8.704 4.874,20.193 16.364,31.683 11.489,11.489 22.282,19.844 37.253,22.978 14.97,3.134 33.771,0.696 41.431,-1.392 0,0 -8.356,-5.223 -18.453,-11.838 -10.097,-6.616 -25.067,-20.194 -30.29,-29.594 -5.222,-9.4 -7.659,-13.23 -9.748,-22.63"
       style="fill:#b2b1b1;fill-opacity:1;fill-rule:nonzero;stroke:none;stroke-width:0.1"
       id="path195037" />
    <path
       d="m 291.066,632.227 c 0,0 4.178,4.178 7.659,10.444 3.482,6.268 11.489,19.497 22.631,28.55 11.141,9.052 20.193,15.319 28.897,17.407 8.705,2.09 9.748,4.875 9.052,8.704 -0.696,3.831 -3.481,7.312 -10.097,7.312 -6.615,0 -29.245,0.349 -42.126,-1.74 -12.882,-2.089 -27.854,-12.882 -35.513,-20.194 -7.659,-7.311 -18.801,-18.453 -23.675,-35.86 -4.874,-17.408 -8.008,-32.379 -9.4,-40.735 -1.393,-8.356 1.392,-10.445 2.785,-6.267 1.392,4.178 3.83,20.541 6.266,24.72 2.438,4.178 5.223,9.748 6.964,18.452 1.741,8.704 4.874,20.193 16.364,31.683 11.489,11.489 22.282,19.844 37.253,22.978 14.97,3.134 33.771,0.696 41.431,-1.392 0,0 -8.356,-5.223 -18.453,-11.838 -10.097,-6.616 -25.067,-20.194 -30.29,-29.594 -5.222,-9.4 -7.659,-13.23 -9.748,-22.63 z"
       style="fill:none;stroke:#231f20;stroke-width:0.5;stroke-linecap:round;stroke-linejoin:round;stroke-miterlimit:4;stroke-dasharray:2.8, 1.8;stroke-dashoffset:0;stroke-opacity:1"
       id="path195039" />
    <path
       d="m 309.867,488.437 c -1.497,-4.492 -11.49,-0.696 -16.364,0.696 -4.875,1.393 -20.889,9.052 -24.719,13.926 -3.83,4.875 -5.223,5.919 -4.874,17.757 0.347,11.837 -0.349,37.949 0.347,54.661 0.697,16.712 1.393,30.638 5.223,46.653 3.83,16.016 8.355,34.12 13.927,41.083 5.57,6.963 21.933,23.675 26.111,21.238 4.178,-2.437 -9.052,-16.015 -14.274,-21.934 -5.223,-5.919 -11.49,-9.053 -17.409,-34.816 -5.917,-25.764 -11.489,-57.447 -4.525,-82.863 6.963,-25.415 15.667,-38.645 25.067,-45.26 9.401,-6.615 12.534,-8.008 11.49,-11.141"
       style="fill:#b2b1b1;fill-opacity:1;fill-rule:nonzero;stroke:none;stroke-width:0.1"
       id="path195041" />
    <path
       d="m 309.867,488.437 c -1.497,-4.492 -11.49,-0.696 -16.364,0.696 -4.875,1.393 -20.889,9.052 -24.719,13.926 -3.83,4.875 -5.223,5.919 -4.874,17.757 0.347,11.837 -0.349,37.949 0.347,54.661 0.697,16.712 1.393,30.638 5.223,46.653 3.83,16.016 8.355,34.12 13.927,41.083 5.57,6.963 21.933,23.675 26.111,21.238 4.178,-2.437 -9.052,-16.015 -14.274,-21.934 -5.223,-5.919 -11.49,-9.053 -17.409,-34.816 -5.917,-25.764 -11.489,-57.447 -4.525,-82.863 6.963,-25.415 15.667,-38.645 25.067,-45.26 9.401,-6.615 12.534,-8.008 11.49,-11.141 z"
       style="fill:none;stroke:#231f20;stroke-width:0.5;stroke-linecap:round;stroke-linejoin:round;stroke-miterlimit:4;stroke-dasharray:2.8, 1.8;stroke-dashoffset:0;stroke-opacity:1"
       id="path195043" />
    <path
       d="m 291.066,632.227 c -3.482,-12.185 -6.267,-27.505 -6.963,-42.824"
       style="fill:none;stroke:#231f20;stroke-width:0.5;stroke-linecap:round;stroke-linejoin:round;stroke-miterlimit:4;stroke-dasharray:2.8, 1.8;stroke-dashoffset:0;stroke-opacity:1"
       id="path195045" />
    <path
       d="m 303.571,659.056 c 1.769,5.201 6.296,11.817 9.777,16.343 3.482,4.526 4.272,9.079 -3.068,7.916"
       style="fill:none;stroke:#231f20;stroke-width:0.5;stroke-linecap:round;stroke-linejoin:round;stroke-miterlimit:4;stroke-dasharray:2.8, 1.8;stroke-dashoffset:0;stroke-opacity:1"
       id="path195047" />
    <path
       d="m 301.997,681.476 c -9.19,-4.337 -32.476,-12.888 -52.167,-52.654"
       style="fill:none;stroke:#231f20;stroke-width:0.5;stroke-linecap:round;stroke-linejoin:round;stroke-miterlimit:4;stroke-dasharray:2.8, 1.8;stroke-dashoffset:0;stroke-opacity:1"
       id="path195049" />
    <path
       d="m 373.232,711.259 c -4.178,8.008 -10.793,19.497 -32.379,24.024 -21.586,4.525 -44.564,4.177 -77.292,-23.675 -32.727,-27.854 -42.981,-72.117 -54.312,-116.634 -9.749,-38.298 -2.089,-65.803 -1.045,-70.329 1.045,-4.525 9.052,-33.075 12.881,-41.778 3.831,-8.704 9.053,-27.854 -1.043,-25.765"
       style="fill:none;stroke:#231f20;stroke-width:0.5;stroke-linecap:round;stroke-linejoin:round;stroke-miterlimit:4;stroke-dasharray:2.8, 1.8;stroke-dashoffset:0;stroke-opacity:1"
       id="path195051" />
    <path
       d="m 217.106,493.958 c 7.461,-5.87 22.171,-16.56 33.312,-10.99"
       style="fill:none;stroke:#231f20;stroke-width:0.5;stroke-linecap:round;stroke-linejoin:round;stroke-miterlimit:4;stroke-dasharray:2.8, 1.8;stroke-dashoffset:0;stroke-opacity:1"
       id="path195055" />
    <path
       d="m 220.042,457.102 c 9.051,-8.355 23.674,-18.452 46.304,-22.63 22.631,-4.178 50.484,-8.704 68.239,-16.712 17.757,-8.008 24.373,-19.844 22.283,-26.46 -2.089,-6.615 -17.754,-22.293 -51.874,-7.671"
       style="fill:none;stroke:#231f20;stroke-width:0.5;stroke-linecap:round;stroke-linejoin:round;stroke-miterlimit:4;stroke-dasharray:2.8, 1.8;stroke-dashoffset:0;stroke-opacity:1"
       id="path195057" />
    <path
       d="m 332.152,377.611 c -2.092,7.77 -15.67,21.348 -25.911,23.855"
       style="fill:none;stroke:#231f20;stroke-width:0.5;stroke-linecap:round;stroke-linejoin:round;stroke-miterlimit:4;stroke-dasharray:2.8, 1.8;stroke-dashoffset:0;stroke-opacity:1"
       id="path195059" />
    <path
       d="m 280.621,387.123 c -8.314,-1.087 -25.068,-3.831 -24.371,-11.142 0.696,-7.312 17.408,-5.919 26.808,-5.223 9.4,0.697 24.371,3.83 22.979,10.793 -1.393,6.964 -18.771,6.441 -25.416,5.572 z"
       style="fill:none;stroke:#231f20;stroke-width:0.5;stroke-linecap:round;stroke-linejoin:round;stroke-miterlimit:4;stroke-dasharray:2.8, 1.8;stroke-dashoffset:0;stroke-opacity:1"
       id="path195061" />
    <path
       d="m 271.749,408.205 c 2.605,-5.415 4.294,-17.04 -2.294,-23.066"
       style="fill:none;stroke:#231f20;stroke-width:0.5;stroke-linecap:round;stroke-linejoin:round;stroke-miterlimit:4;stroke-dasharray:2.8, 1.8;stroke-dashoffset:0;stroke-opacity:1"
       id="path195063" />
    <path
       d="m 267.413,384.606 c -8.377,3.213 -25.089,9.132 -38.667,8.783 -13.578,-0.349 -41.526,-1.053 -57.099,7.312 -18.801,10.096 -34.204,24.194 -33.117,27.764 1.087,3.57 26.158,1.885 48.088,-1.304 20.815,-3.028 53.828,-9.009 66.59,-11.968"
       style="fill:none;stroke:#231f20;stroke-width:0.5;stroke-linecap:round;stroke-linejoin:round;stroke-miterlimit:4;stroke-dasharray:2.8, 1.8;stroke-dashoffset:0;stroke-opacity:1"
       id="path195065" />
    <path
       d="m 279.945,657.285 c -6.635,-7.302 -19.169,-29.236 -21.954,-57.785 -2.785,-28.549 -2.774,-57.568 5.919,-78.684"
       style="fill:none;stroke:#231f20;stroke-width:0.5;stroke-linecap:round;stroke-linejoin:round;stroke-miterlimit:4;stroke-dasharray:2.8, 1.8;stroke-dashoffset:0;stroke-opacity:1"
       id="path195067" />
    <path
       d="m 265.909,506.916 c -6.873,3.803 -14.533,11.462 -19.756,31.308 -5.222,19.845 -10.396,31.214 -5.72,59.997"
       style="fill:none;stroke:#231f20;stroke-width:0.5;stroke-linecap:round;stroke-linejoin:round;stroke-miterlimit:4;stroke-dasharray:2.8, 1.8;stroke-dashoffset:0;stroke-opacity:1"
       id="path195069" />
    <path
       d="m 318.471,503.003 c 3.233,-4.122 7.095,-13.739 -8.588,-12.586"
       style="fill:none;stroke:#231f20;stroke-width:0.5;stroke-linecap:round;stroke-linejoin:round;stroke-miterlimit:4;stroke-dasharray:2.8, 1.8;stroke-dashoffset:0;stroke-opacity:1"
       id="path195071" />
    <path
       d="m 381.587,436.909 c -2.766,5.24 -6.748,11.601 -10.793,10.445 -2.437,-0.696 2.438,-9.052 -1.392,-9.748 -3.83,-0.697 -0.696,5.57 -19.149,17.407 -18.453,11.838 -34.12,16.016 -50.135,20.89 -16.015,4.874 -32.727,11.489 -40.386,19.846 -7.66,8.355 -18.105,22.282 -20.542,35.86 -2.438,13.578 1.428,26.272 0.686,31.451 -0.741,5.179 -1.73,14.854 -4.516,14.854 -2.785,0 -5.222,-5.918 -5.57,-18.104 -0.348,-12.186 0.348,-25.068 7.311,-40.039 6.963,-14.971 23.113,-34.534 30.638,-38.297 9.053,-4.526 36.209,-11.49 53.965,-18.104 17.756,-6.616 34.467,-16.365 39.342,-24.72 4.874,-8.356 8.008,-12.186 10.793,-11.489 2.786,0.696 3.829,4.526 4.178,8.355 0.348,3.83 2.437,3.134 5.57,1.393"
       style="fill:#b2b1b1;fill-opacity:1;fill-rule:nonzero;stroke:none;stroke-width:0.1"
       id="path195073" />
    <path
       d="m 381.587,436.909 c -2.766,5.24 -6.748,11.601 -10.793,10.445 -2.437,-0.696 2.438,-9.052 -1.392,-9.748 -3.83,-0.697 -0.696,5.57 -19.149,17.407 -18.453,11.838 -34.12,16.016 -50.135,20.89 -16.015,4.874 -32.727,11.489 -40.386,19.846 -7.66,8.355 -18.105,22.282 -20.542,35.86 -2.438,13.578 1.428,26.272 0.686,31.451 -0.741,5.179 -1.73,14.854 -4.516,14.854 -2.785,0 -5.222,-5.918 -5.57,-18.104 -0.348,-12.186 0.348,-25.068 7.311,-40.039 6.963,-14.971 23.113,-34.534 30.638,-38.297 9.053,-4.526 36.209,-11.49 53.965,-18.104 17.756,-6.616 34.467,-16.365 39.342,-24.72 4.874,-8.356 8.008,-12.186 10.793,-11.489 2.786,0.696 3.829,4.526 4.178,8.355 0.348,3.83 2.437,3.134 5.57,1.393 z"
       style="fill:none;stroke:#231f20;stroke-width:0.5;stroke-linecap:round;stroke-linejoin:round;stroke-miterlimit:4;stroke-dasharray:2.8, 1.8;stroke-dashoffset:0;stroke-opacity:1"
       id="path195075" />
    <path
       d="m 533.067,681.387 c 1.361,-0.09 1.015,10.375 -1.074,16.294 -2.089,5.919 -6.963,13.927 -22.631,16.016 -12.201,1.626 -22.63,2.436 -40.386,0.347 -17.757,-2.088 -37.462,-6.27 -47.698,-8.355 -9.401,-1.915 -16.016,-9.465 -11.489,-12.25"
       style="fill:none;stroke:#231f20;stroke-width:0.5;stroke-linecap:round;stroke-linejoin:round;stroke-miterlimit:4;stroke-dasharray:2.8, 1.8;stroke-dashoffset:0;stroke-opacity:1"
       id="path195077" />
    <path
       d="m 540,629.79 c -11.141,0 -4.526,-20.194 0,-20.194"
       style="fill:none;stroke:#231f20;stroke-width:0.5;stroke-linecap:round;stroke-linejoin:round;stroke-miterlimit:4;stroke-dasharray:2.8, 1.8;stroke-dashoffset:0;stroke-opacity:1"
       id="path195079" />
    <path
       d="m 393.425,663.91 c -3.83,-6.267 -14.623,-26.113 -27.505,-15.32"
       style="fill:none;stroke:#231f20;stroke-width:0.5;stroke-linecap:round;stroke-linejoin:round;stroke-miterlimit:4;stroke-dasharray:2.8, 1.8;stroke-dashoffset:0;stroke-opacity:1"
       id="path195081" />
    <path
       d="m 357.451,657.823 c 4.988,-0.529 12.996,-4.706 6.381,-12.366 -6.616,-7.66 -31.683,-14.971 -39.343,-19.149 -7.659,-4.178 -19.845,-10.097 -21.934,-19.845 -2.089,-9.749 -4.526,-28.897 -0.696,-37.253 3.83,-8.356 10.097,-13.926 11.141,-16.711 1.044,-2.786 3.482,-7.312 9.749,-9.401 6.266,-2.089 28.897,-5.919 35.86,8.356 6.963,14.274 2.089,33.771 0.696,37.601 -1.392,3.83 -3.481,11.141 -3.134,20.194 0.349,9.051 -4.292,22.268 -6.149,27.671"
       style="fill:none;stroke:#231f20;stroke-width:0.5;stroke-linecap:round;stroke-linejoin:round;stroke-miterlimit:4;stroke-dasharray:2.8, 1.8;stroke-dashoffset:0;stroke-opacity:1"
       id="path195083" />
    <path
       d="m 359.242,641.729 c 4.59,-11.591 10.16,-35.614 12.597,-43.97 2.437,-8.356 12.882,-43.172 -10.793,-54.661 -23.674,-11.489 -46.004,-6.361 -54.874,5.749"
       style="fill:none;stroke:#231f20;stroke-width:0.5;stroke-linecap:round;stroke-linejoin:round;stroke-miterlimit:4;stroke-dasharray:2.8, 1.8;stroke-dashoffset:0;stroke-opacity:1"
       id="path195085" />
    <path
       d="m 371.448,599.139 c -6.92,-1.728 -16.669,-4.514 -24.328,-4.861 -7.66,-0.349 -40.719,-1.949 -46.123,3.202"
       style="fill:none;stroke:#231f20;stroke-width:0.5;stroke-linecap:round;stroke-linejoin:round;stroke-miterlimit:4;stroke-dasharray:2.8, 1.8;stroke-dashoffset:0;stroke-opacity:1"
       id="path195087" />
    <path
       d="m 315.792,621.424 c 0,0 -4.196,0.828 -7.846,-0.103"
       style="fill:none;stroke:#231f20;stroke-width:0.5;stroke-linecap:round;stroke-linejoin:round;stroke-miterlimit:4;stroke-dasharray:2.8, 1.8;stroke-dashoffset:0;stroke-opacity:1"
       id="path195089" />
    <path
       d="m 381.24,616.56 c 6.266,-3.481 22.282,-12.186 34.815,-28.201 12.534,-16.016 17.38,-24.775 12.534,-34.12 -4.874,-9.401 -9.4,-11.489 -17.756,-9.052 -8.356,2.437 -17.06,14.97 -19.845,25.067 -2.785,10.098 -9.748,46.306 -9.748,46.306 z"
       style="fill:none;stroke:#231f20;stroke-width:0.5;stroke-linecap:round;stroke-linejoin:round;stroke-miterlimit:4;stroke-dasharray:2.8, 1.8;stroke-dashoffset:0;stroke-opacity:1"
       id="path195091" />
    <path
       d="m 405.916,547.699 c -7.965,4.103 -16.321,10.369 -19.106,21.511 -2.785,11.142 -7.311,34.468 -9.053,42.824 -1.74,8.355 -4.525,14.97 -1.74,15.667 2.785,0.696 3.852,-4.106 5.223,-11.141"
       style="fill:none;stroke:#231f20;stroke-width:0.5;stroke-linecap:round;stroke-linejoin:round;stroke-miterlimit:4;stroke-dasharray:2.8, 1.8;stroke-dashoffset:0;stroke-opacity:1"
       id="path195093" />
    <path
       d="m 393.697,556.58 c 7.039,-8.956 15.047,-24.623 15.395,-33.328 0.348,-8.703 -2.785,-10.793 -9.4,-9.4 -6.615,1.394 -23.675,3.83 -27.505,5.223 -3.83,1.392 -6.963,1.045 -8.008,8.356 -1.044,7.311 -3.751,17.763 -6.227,22.809"
       style="fill:none;stroke:#231f20;stroke-width:0.5;stroke-linecap:round;stroke-linejoin:round;stroke-miterlimit:4;stroke-dasharray:2.8, 1.8;stroke-dashoffset:0;stroke-opacity:1"
       id="path195095" />
    <path
       d="m 406.78,533.049 c -6.392,3.783 -27.63,11.472 -46.103,9.873"
       style="fill:none;stroke:#231f20;stroke-width:0.5;stroke-linecap:round;stroke-linejoin:round;stroke-miterlimit:4;stroke-dasharray:2.8, 1.8;stroke-dashoffset:0;stroke-opacity:1"
       id="path195097" />
    <path
       d="m 379.498,603.47 c 0,0 -3.83,-3.274 -8.05,-4.331"
       style="fill:none;stroke:#231f20;stroke-width:0.5;stroke-linecap:round;stroke-linejoin:round;stroke-miterlimit:4;stroke-dasharray:2.8, 1.8;stroke-dashoffset:0;stroke-opacity:1"
       id="path195099" />
    <path
       d="m 369.333,476.402 c -1.109,2.423 2.649,10.56 5.639,14.472 4.527,5.918 11.838,8.704 14.971,10.096 3.134,1.393 2.786,5.223 -2.089,7.66 -4.874,2.437 -21.477,3.998 -27.102,-3.92"
       style="fill:none;stroke:#231f20;stroke-width:0.5;stroke-linecap:round;stroke-linejoin:round;stroke-miterlimit:4;stroke-dasharray:2.8, 1.8;stroke-dashoffset:0;stroke-opacity:1"
       id="path195105" />
    <path
       d="m 389.943,500.97 c 8.008,-1.74 11.838,-2.785 19.846,-11.14 8.007,-8.356 19.497,-21.239 29.941,-28.898 10.445,-7.659 24.371,-18.801 29.942,-25.067 5.571,-6.267 7.66,-11.142 11.49,-12.186 3.829,-1.045 9.08,-2.098 9.08,-2.098"
       style="fill:none;stroke:#231f20;stroke-width:0.5;stroke-linecap:round;stroke-linejoin:round;stroke-miterlimit:4;stroke-dasharray:2.8, 1.8;stroke-dashoffset:0;stroke-opacity:1"
       id="path195107" />
    <path
       d="m 491.175,422.388 c -7.228,8.95 -23.244,26.011 -28.467,30.885 -5.221,4.874 -20.385,16.143 -29.689,13.12"
       style="fill:none;stroke:#231f20;stroke-width:0.5;stroke-linecap:round;stroke-linejoin:round;stroke-miterlimit:4;stroke-dasharray:2.8, 1.8;stroke-dashoffset:0;stroke-opacity:1"
       id="path195109" />
    <path
       d="m 414.362,485 c -0.743,7.615 -4.922,13.881 -8.055,16.666 -3.134,2.787 -10.511,6.338 -15.178,4.388"
       style="fill:none;stroke:#231f20;stroke-width:0.5;stroke-linecap:round;stroke-linejoin:round;stroke-miterlimit:4;stroke-dasharray:2.8, 1.8;stroke-dashoffset:0;stroke-opacity:1"
       id="path195111" />
    <path
       d="m 445.649,508.282 c -7.665,-0.201 -19.149,3.134 -19.845,13.23 -0.696,10.097 2.437,19.497 15.667,19.845 13.23,0.349 20.89,-5.919 21.934,-14.622 1.045,-8.704 -4.526,-18.105 -17.756,-18.453 z"
       style="fill:none;stroke:#231f20;stroke-width:0.5;stroke-linecap:round;stroke-linejoin:round;stroke-miterlimit:4;stroke-dasharray:2.8, 1.8;stroke-dashoffset:0;stroke-opacity:1"
       id="path195113" />
    <path
       d="m 477.332,471.377 c 5.57,0 10.096,1.741 10.096,6.963 0,5.223 -6.963,9.401 -11.141,9.401 -4.178,0 -11.315,-0.87 -10.923,-7.617"
       style="fill:none;stroke:#231f20;stroke-width:0.5;stroke-linecap:round;stroke-linejoin:round;stroke-miterlimit:4;stroke-dasharray:2.8, 1.8;stroke-dashoffset:0;stroke-opacity:1"
       id="path195115" />
    <path
       d="m 526.785,484.322 c -7.312,-6.268 -21.949,-18.516 -40.402,-20.256 -18.452,-1.741 -28.796,2.17 -32.502,3.696 -3.706,1.526 -11.956,2.753 -12.183,-1.69"
       style="fill:none;stroke:#231f20;stroke-width:0.5;stroke-linecap:round;stroke-linejoin:round;stroke-miterlimit:4;stroke-dasharray:2.8, 1.8;stroke-dashoffset:0;stroke-opacity:1"
       id="path195117" />
    <path
       d="m 530.252,478.34 c 1.044,-4.874 6.615,-5.222 9.748,-5.222 3.133,0 8.705,0.348 9.749,5.222"
       style="fill:none;stroke:#231f20;stroke-width:0.5;stroke-linecap:round;stroke-linejoin:round;stroke-miterlimit:4;stroke-dasharray:2.8, 1.8;stroke-dashoffset:0;stroke-opacity:1"
       id="path195119" />
    <path
       d="m 533.385,507.934 c 2.034,1.241 5.223,5.57 6.615,5.57 1.393,0 4.581,-4.329 6.616,-5.57"
       style="fill:none;stroke:#231f20;stroke-width:0.5;stroke-linecap:round;stroke-linejoin:round;stroke-miterlimit:4;stroke-dasharray:2.8, 1.8;stroke-dashoffset:0;stroke-opacity:1"
       id="path195121" />
    <path
       d="m 529.166,478.576 c -0.655,-5.806 -2.649,-16.16 -6.13,-21.731"
       style="fill:none;stroke:#231f20;stroke-width:0.5;stroke-linecap:round;stroke-linejoin:round;stroke-miterlimit:4;stroke-dasharray:2.8, 1.8;stroke-dashoffset:0;stroke-opacity:1"
       id="path195123" />
    <path
       d="m 482.556,432.386 c 7.315,6.617 26.458,18.102 34.466,21.931 8.008,3.83 17.408,6.267 22.978,6.267 5.571,0 14.971,-2.437 22.979,-6.267 8.008,-3.829 27.151,-15.314 34.465,-21.931"
       style="fill:none;stroke:#231f20;stroke-width:0.5;stroke-linecap:round;stroke-linejoin:round;stroke-miterlimit:4;stroke-dasharray:2.8, 1.8;stroke-dashoffset:0;stroke-opacity:1"
       id="path195127" />
    <path
       d="m 528.859,434.472 c 0,2.089 -1.044,6.267 1.393,12.186 3.314,8.048 7.311,8.008 9.748,8.008 2.437,0 6.434,0.04 9.749,-8.008 2.437,-5.919 1.392,-10.097 1.392,-12.186"
       style="fill:none;stroke:#231f20;stroke-width:0.5;stroke-linecap:round;stroke-linejoin:round;stroke-miterlimit:4;stroke-dasharray:2.8, 1.8;stroke-dashoffset:0;stroke-opacity:1"
       id="path195129" />
    <path
       d="m 521.591,456.294 c 2.476,0.924 9.218,1.327 10.402,-1.628 1.183,-2.956 0,-7.312 -5.223,-9.75 -5.223,-2.436 -22.978,-12.185 -30.638,-20.193"
       style="fill:none;stroke:#231f20;stroke-width:0.5;stroke-linecap:round;stroke-linejoin:round;stroke-miterlimit:4;stroke-dasharray:2.8, 1.8;stroke-dashoffset:0;stroke-opacity:1"
       id="path195131" />
    <path
       d="m 505.88,416.716 c 0.862,10.324 8.008,12.534 15.32,15.667 7.311,3.133 14.623,1.741 18.8,1.741 4.178,0 11.49,1.392 18.801,-1.741 7.311,-3.133 14.458,-5.343 15.319,-15.667"
       style="fill:none;stroke:#231f20;stroke-width:0.5;stroke-linecap:round;stroke-linejoin:round;stroke-miterlimit:4;stroke-dasharray:2.8, 1.8;stroke-dashoffset:0;stroke-opacity:1"
       id="path195133" />
    <path
       d="m 521.982,432.7 0.959,-16.332 c 0,0 11.141,-0.348 17.059,-0.348 5.919,0 17.06,0.348 17.06,0.348 l 0.959,16.332"
       style="fill:none;stroke:#231f20;stroke-width:0.5;stroke-linecap:round;stroke-linejoin:round;stroke-miterlimit:4;stroke-dasharray:2.8, 1.8;stroke-dashoffset:0;stroke-opacity:1"
       id="path195135" />
    <path
       d="m 524.02,539.033 c 5.535,6.85 13.543,15.902 8.32,23.91 -5.221,8.008 -12.882,9.053 -21.237,5.223"
       style="fill:none;stroke:#231f20;stroke-width:0.5;stroke-linecap:round;stroke-linejoin:round;stroke-miterlimit:4;stroke-dasharray:2.8, 1.8;stroke-dashoffset:0;stroke-opacity:1"
       id="path195137" />
    <path
       d="m 513.961,555.75 c -6.688,-2.904 -15.427,-12.292 -12.258,-22.749 3.481,-11.489 12.247,-15.583 23.879,-14.406"
       style="fill:none;stroke:#231f20;stroke-width:0.5;stroke-linecap:round;stroke-linejoin:round;stroke-miterlimit:4;stroke-dasharray:2.8, 1.8;stroke-dashoffset:0;stroke-opacity:1"
       id="path195139" />
    <path
       d="m 537.563,553.891 c -1.393,0 -3.481,-9.749 -4.178,-12.882 -0.696,-3.134 -3.481,-14.274 0.349,-14.623 3.829,-0.347 6.266,11.838 6.266,15.32 0,3.481 -0.696,12.185 -2.437,12.185 z"
       style="fill:none;stroke:#231f20;stroke-width:0.5;stroke-linecap:round;stroke-linejoin:round;stroke-miterlimit:4;stroke-dasharray:2.8, 1.8;stroke-dashoffset:0;stroke-opacity:1"
       id="path195141" />
    <path
       d="m 528.863,545.184 c 2.085,-2.086 3.415,-7.763 3.154,-11.191"
       style="fill:none;stroke:#231f20;stroke-width:0.5;stroke-linecap:round;stroke-linejoin:round;stroke-miterlimit:4;stroke-dasharray:2.8, 1.8;stroke-dashoffset:0;stroke-opacity:1"
       id="path195143" />
    <path
       d="m 537.493,530.389 c 0.766,-5.047 -0.314,-17.195 -1.514,-20.173"
       style="fill:none;stroke:#231f20;stroke-width:0.5;stroke-linecap:round;stroke-linejoin:round;stroke-miterlimit:4;stroke-dasharray:2.8, 1.8;stroke-dashoffset:0;stroke-opacity:1"
       id="path195145" />
    <path
       d="m 534.732,509.002 c 0,0 -1.921,0.308 -3.723,3.102"
       style="fill:none;stroke:#231f20;stroke-width:0.5;stroke-linecap:round;stroke-linejoin:round;stroke-miterlimit:4;stroke-dasharray:2.8, 1.8;stroke-dashoffset:0;stroke-opacity:1"
       id="path195147" />
    <path
       d="m 514.237,618.416 -14.045,7.989"
       style="fill:none;stroke:#231f20;stroke-width:0.5;stroke-linecap:round;stroke-linejoin:round;stroke-miterlimit:4;stroke-dasharray:2.8, 1.8;stroke-dashoffset:0;stroke-opacity:1"
       id="path195149" />
    <path
       d="m 456.77,716.651 -3.162,12.013"
       style="fill:none;stroke:#231f20;stroke-width:0.5;stroke-linecap:round;stroke-linejoin:round;stroke-miterlimit:4;stroke-dasharray:2.8, 1.8;stroke-dashoffset:0;stroke-opacity:1"
       id="path195151" />
    <path
       d="m 624.777,490.787 c 2.786,6.267 3.307,11.924 -2.611,18.887 -5.918,6.964 -15.667,10.793 -21.585,10.446 -5.919,-0.349 -24.373,-11.838 -24.72,-26.113 -0.349,-14.274 5.071,-27.189 23.872,-24.752"
       style="fill:none;stroke:#231f20;stroke-width:0.5;stroke-linecap:round;stroke-linejoin:round;stroke-miterlimit:4;stroke-dasharray:2.8, 1.8;stroke-dashoffset:0;stroke-opacity:1"
       id="path195153" />
    <path
       d="m 455.223,490.787 c -2.785,6.267 -3.307,11.924 2.611,18.887 5.919,6.964 15.667,10.793 21.586,10.446 5.919,-0.349 24.372,-11.838 24.72,-26.113 0.348,-14.274 -5.071,-27.189 -23.872,-24.752"
       style="fill:none;stroke:#231f20;stroke-width:0.5;stroke-linecap:round;stroke-linejoin:round;stroke-miterlimit:4;stroke-dasharray:2.8, 1.8;stroke-dashoffset:0;stroke-opacity:1"
       id="path195155" />
  </g>
</svg>
