<?xml version="1.0" encoding="UTF-8" standalone="no"?>
<!-- Created with Inkscape (http://www.inkscape.org/) -->

<svg
   version="1.1"
   id="svg201471"
   width="1440"
   height="1344"
   viewBox="0 0 1440 1344"
   xmlns="http://www.w3.org/2000/svg"
   xmlns:svg="http://www.w3.org/2000/svg">
  <defs
     id="defs201475" />
  <g
     id="g201479">
    <path
       d="m 667.155,413.399 c -7.313,-3.888 -25.928,-16.161 -43.345,-21.436 2.295,-0.48 4.275,-0.763 8.359,-1.297 4.085,-0.531 7.105,-0.354 11.367,0.889 4.261,1.243 20.245,11.544 23.619,14.207 3.374,2.663 6.394,5.151 5.682,7.104 -0.71,1.954 -4.377,1.112 -5.682,0.533"
       style="fill:#ffffff;fill-opacity:1;fill-rule:nonzero;stroke:none;stroke-width:0.1"
       id="path202139" />
    <path
       d="m 667.155,413.399 c -7.313,-3.888 -25.928,-16.161 -43.345,-21.436 2.295,-0.48 4.275,-0.763 8.359,-1.297 4.085,-0.531 7.105,-0.354 11.367,0.889 4.261,1.243 20.245,11.544 23.619,14.207 3.374,2.663 6.394,5.151 5.682,7.104 -0.71,1.954 -4.377,1.112 -5.682,0.533 z"
       style="fill:none;stroke:#231f20;stroke-width:0.5;stroke-linecap:butt;stroke-linejoin:miter;stroke-miterlimit:4;stroke-dasharray:none;stroke-opacity:1"
       id="path202141" />
    <path
       d="m 758.907,530.482 -5.751,-6.167 c -2.364,-0.009 -4.14,1.898 -4.131,4.438 l 5.652,5.763 c 1.905,0.079 4.352,-1.421 4.23,-4.034"
       style="fill:#ffffff;fill-opacity:1;fill-rule:nonzero;stroke:none;stroke-width:0.1"
       id="path202143" />
    <path
       d="m 758.907,530.482 -5.751,-6.167 c -2.364,-0.009 -4.14,1.898 -4.131,4.438 l 5.652,5.763 c 1.905,0.079 4.352,-1.421 4.23,-4.034 z"
       style="fill:none;stroke:#231f20;stroke-width:0.5;stroke-linecap:butt;stroke-linejoin:miter;stroke-miterlimit:4;stroke-dasharray:none;stroke-opacity:1"
       id="path202145" />
    <path
       d="m 412.847,413.399 c 7.313,-3.888 25.927,-16.161 43.345,-21.436 -2.295,-0.48 -4.276,-0.763 -8.359,-1.297 -4.085,-0.531 -7.105,-0.354 -11.367,0.889 -4.261,1.243 -20.246,11.544 -23.619,14.207 -3.374,2.663 -6.394,5.151 -5.682,7.104 0.71,1.954 4.377,1.112 5.682,0.533"
       style="fill:#ffffff;fill-opacity:1;fill-rule:nonzero;stroke:none;stroke-width:0.1"
       id="path202147" />
    <path
       d="m 412.847,413.399 c 7.313,-3.888 25.927,-16.161 43.345,-21.436 -2.295,-0.48 -4.276,-0.763 -8.359,-1.297 -4.085,-0.531 -7.105,-0.354 -11.367,0.889 -4.261,1.243 -20.246,11.544 -23.619,14.207 -3.374,2.663 -6.394,5.151 -5.682,7.104 0.71,1.954 4.377,1.112 5.682,0.533 z"
       style="fill:none;stroke:#231f20;stroke-width:0.5;stroke-linecap:butt;stroke-linejoin:miter;stroke-miterlimit:4;stroke-dasharray:none;stroke-opacity:1"
       id="path202149" />
    <path
       d="m 321.095,530.482 5.751,-6.167 c 2.364,-0.009 4.141,1.898 4.131,4.438 l -5.652,5.763 c -1.905,0.079 -4.352,-1.421 -4.23,-4.034"
       style="fill:#ffffff;fill-opacity:1;fill-rule:nonzero;stroke:none;stroke-width:0.1"
       id="path202151" />
    <path
       d="m 321.095,530.482 5.751,-6.167 c 2.364,-0.009 4.141,1.898 4.131,4.438 l -5.652,5.763 c -1.905,0.079 -4.352,-1.421 -4.23,-4.034 z"
       style="fill:none;stroke:#231f20;stroke-width:0.5;stroke-linecap:butt;stroke-linejoin:miter;stroke-miterlimit:4;stroke-dasharray:none;stroke-opacity:1"
       id="path202153" />
    <path
       d="m 678.52,712.105 c 0,0 24.391,-6.394 39.781,-3.552 0,0 -10.974,-6.85 -10.182,-14.918 1.184,-12.075 23.442,-38.596 32.203,-46.884 0,0 -9.709,5.684 -16.575,6.394 -6.868,0.71 -19.653,1.185 -20.363,6.393 -0.842,6.172 -0.711,17.048 -3.315,20.6 -2.607,3.552 -8.761,5.92 -7.341,11.366 1.421,5.447 -1.42,8.288 -4.973,12.077 -3.551,3.788 -9.235,8.524 -9.235,8.524 z m 60.856,-198.9 c 11.6,23.915 26.183,28.349 26.183,28.349 -7.341,-16.812 -26.183,-28.349 -26.183,-28.349 z M 552.078,384.452 c 6.748,0.71 15.272,5.504 21.31,9.413 6.038,3.906 8.525,3.196 11.366,3.196 2.841,0 5.166,-2.125 7.801,-5.008 3.743,-4.095 18.555,-3.935 31.255,-0.09 17.417,5.275 36.032,17.548 43.345,21.436 6.466,3.437 14.562,8.524 19.179,12.786 4.619,4.263 7.815,8.524 7.815,8.524 -1.776,-22.73 15.272,-14.917 15.272,-14.917 -6.749,-8.525 -3.55,-16.337 -0.71,-22.731 2.841,-6.395 13.497,-26.283 44.753,-31.611 36.841,-6.281 98.74,0.355 141.717,17.758 42.976,17.405 58.248,35.164 74.587,60.736 16.338,25.573 9.59,49.37 8.88,60.381 -0.712,11.01 -8.776,12.748 -8.17,22.732 0.237,3.906 6.394,2.13 9.944,14.206 1.66,5.641 24.398,49.844 16.813,127.036 -7.579,77.192 -70.444,139.348 -116.616,168.118 -46.174,28.77 -122.183,52.922 -193.219,61.091 -71.036,8.169 -112.236,-1.776 -129.284,-17.403 -17.049,-15.629 -18.114,-35.519 -18.114,-43.688 0,0 0,-45.36 0,-50.791 0,-9.057 13.496,-47.771 38.83,-51.026 0,0 -21.072,2.366 -29.361,-5.446 -8.285,-7.815 -9.469,-11.13 -9.469,-21.785 0,-10.656 1.419,-18.943 2.129,-20.601 0,0 -1.184,-0.473 -2.129,-0.473 -0.947,0 -2.131,0.473 -2.131,0.473 0.71,1.658 2.131,9.945 2.131,20.601 0,10.655 -1.186,13.97 -9.471,21.785 -8.288,7.812 -29.363,5.446 -29.363,5.446 25.336,3.255 38.834,41.969 38.834,51.026 0,5.431 0,50.791 0,50.791 0,8.169 -1.067,28.059 -18.116,43.688 -17.048,15.627 -58.248,25.572 -129.284,17.403 C 321.566,889.339 245.557,865.187 199.384,836.417 153.21,807.647 90.3449,745.491 82.7668,668.299 75.1887,591.107 97.9191,546.904 99.5781,541.263 c 3.5519,-12.076 9.7089,-10.3 9.9459,-14.206 0.606,-9.984 -7.459,-11.722 -8.169,-22.732 -0.711,-11.011 -7.4593,-34.808 8.879,-60.381 16.339,-25.572 31.611,-43.331 74.588,-60.736 42.976,-17.403 104.875,-24.039 141.716,-17.758 31.256,5.328 41.912,25.216 44.754,31.611 2.839,6.394 6.038,14.206 -0.712,22.731 0,0 17.049,-7.813 15.272,14.917 0,0 3.198,-4.261 7.814,-8.524 4.619,-4.262 12.715,-9.349 19.181,-12.786 7.313,-3.888 25.927,-16.161 43.345,-21.436 12.7,-3.845 27.512,-4.005 31.255,0.09 2.635,2.883 4.96,5.008 7.801,5.008 2.841,0 5.328,0.71 11.366,-3.196 6.038,-3.909 14.562,-8.703 21.31,-9.413 6.749,-0.71 12.078,-0.888 12.078,-0.888 0,0 5.327,0.178 12.076,0.888 z M 392.247,703.581 c -3.553,-3.789 -6.395,-6.63 -4.973,-12.077 1.42,-5.446 -4.735,-7.814 -7.341,-11.366 -2.605,-3.552 -2.473,-14.428 -3.315,-20.6 -0.71,-5.208 -13.496,-5.683 -20.363,-6.393 -6.866,-0.71 -16.575,-6.394 -16.575,-6.394 8.761,8.288 31.019,34.809 32.203,46.884 0.791,8.068 -10.182,14.918 -10.182,14.918 15.39,-2.842 39.78,3.552 39.78,3.552 0,0 -5.683,-4.736 -9.234,-8.524 z M 314.443,541.554 c 0,0 14.583,-4.434 26.185,-28.349 0,0 -18.844,11.537 -26.185,28.349"
       style="fill:#ffffff;fill-opacity:1;fill-rule:nonzero;stroke:none;stroke-width:0.1"
       id="path202155" />
    <path
       d="m 678.52,712.105 c 0,0 24.391,-6.394 39.781,-3.552 0,0 -10.974,-6.85 -10.182,-14.918 1.184,-12.075 23.442,-38.596 32.203,-46.884 0,0 -9.709,5.684 -16.575,6.394 -6.868,0.71 -19.653,1.185 -20.363,6.393 -0.842,6.172 -0.711,17.048 -3.315,20.6 -2.607,3.552 -8.761,5.92 -7.341,11.366 1.421,5.447 -1.42,8.288 -4.973,12.077 -3.551,3.788 -9.235,8.524 -9.235,8.524 z m 60.856,-198.9 c 11.6,23.915 26.183,28.349 26.183,28.349 -7.341,-16.812 -26.183,-28.349 -26.183,-28.349 z M 552.078,384.452 c 6.748,0.71 15.272,5.504 21.31,9.413 6.038,3.906 8.525,3.196 11.366,3.196 2.841,0 5.166,-2.125 7.801,-5.008 3.743,-4.095 18.555,-3.935 31.255,-0.09 17.417,5.275 36.032,17.548 43.345,21.436 6.466,3.437 14.562,8.524 19.179,12.786 4.619,4.263 7.815,8.524 7.815,8.524 -1.776,-22.73 15.272,-14.917 15.272,-14.917 -6.749,-8.525 -3.55,-16.337 -0.71,-22.731 2.841,-6.395 13.497,-26.283 44.753,-31.611 36.841,-6.281 98.74,0.355 141.717,17.758 42.976,17.405 58.248,35.164 74.587,60.736 16.338,25.573 9.59,49.37 8.88,60.381 -0.712,11.01 -8.776,12.748 -8.17,22.732 0.237,3.906 6.394,2.13 9.944,14.206 1.66,5.641 24.398,49.844 16.813,127.036 -7.579,77.192 -70.444,139.348 -116.616,168.118 -46.174,28.77 -122.183,52.922 -193.219,61.091 -71.036,8.169 -112.236,-1.776 -129.284,-17.403 -17.049,-15.629 -18.114,-35.519 -18.114,-43.688 0,0 0,-45.36 0,-50.791 0,-9.057 13.496,-47.771 38.83,-51.026 0,0 -21.072,2.366 -29.361,-5.446 -8.285,-7.815 -9.469,-11.13 -9.469,-21.785 0,-10.656 1.419,-18.943 2.129,-20.601 0,0 -1.184,-0.473 -2.129,-0.473 -0.947,0 -2.131,0.473 -2.131,0.473 0.71,1.658 2.131,9.945 2.131,20.601 0,10.655 -1.186,13.97 -9.471,21.785 -8.288,7.812 -29.363,5.446 -29.363,5.446 25.336,3.255 38.834,41.969 38.834,51.026 0,5.431 0,50.791 0,50.791 0,8.169 -1.067,28.059 -18.116,43.688 -17.048,15.627 -58.248,25.572 -129.284,17.403 C 321.566,889.339 245.557,865.187 199.384,836.417 153.21,807.647 90.3449,745.491 82.7668,668.299 75.1887,591.107 97.9191,546.904 99.5781,541.263 c 3.5519,-12.076 9.7089,-10.3 9.9459,-14.206 0.606,-9.984 -7.459,-11.722 -8.169,-22.732 -0.711,-11.011 -7.4593,-34.808 8.879,-60.381 16.339,-25.572 31.611,-43.331 74.588,-60.736 42.976,-17.403 104.875,-24.039 141.716,-17.758 31.256,5.328 41.912,25.216 44.754,31.611 2.839,6.394 6.038,14.206 -0.712,22.731 0,0 17.049,-7.813 15.272,14.917 0,0 3.198,-4.261 7.814,-8.524 4.619,-4.262 12.715,-9.349 19.181,-12.786 7.313,-3.888 25.927,-16.161 43.345,-21.436 12.7,-3.845 27.512,-4.005 31.255,0.09 2.635,2.883 4.96,5.008 7.801,5.008 2.841,0 5.328,0.71 11.366,-3.196 6.038,-3.909 14.562,-8.703 21.31,-9.413 6.749,-0.71 12.078,-0.888 12.078,-0.888 0,0 5.327,0.178 12.076,0.888 z M 392.247,703.581 c -3.553,-3.789 -6.395,-6.63 -4.973,-12.077 1.42,-5.446 -4.735,-7.814 -7.341,-11.366 -2.605,-3.552 -2.473,-14.428 -3.315,-20.6 -0.71,-5.208 -13.496,-5.683 -20.363,-6.393 -6.866,-0.71 -16.575,-6.394 -16.575,-6.394 8.761,8.288 31.019,34.809 32.203,46.884 0.791,8.068 -10.182,14.918 -10.182,14.918 15.39,-2.842 39.78,3.552 39.78,3.552 0,0 -5.683,-4.736 -9.234,-8.524 z M 314.443,541.554 c 0,0 14.583,-4.434 26.185,-28.349 0,0 -18.844,11.537 -26.185,28.349 z"
       style="fill:none;stroke:#231f20;stroke-width:0.75;stroke-linecap:round;stroke-linejoin:round;stroke-miterlimit:4;stroke-dasharray:none;stroke-opacity:1"
       id="path202157" />
    <path
       d="m 666.918,819.131 c 9.945,-2.368 63.933,-17.521 84.77,-23.205 20.837,-5.682 61.093,-22.967 84.77,-38.359 23.677,-15.391 33.148,-22.731 51.381,-54.224 18.235,-31.493 29.835,-55.644 29.835,-96.135 0,-40.49 -7.814,-91.635 -13.022,-107.973 -5.305,-16.642 -16.102,-42.386 -36.702,-59.197 -20.601,-16.812 -20.126,-17.523 -41.437,-27.231 -21.311,-9.708 -47.213,-18.734 -48.305,-14.918 -0.475,1.657 25.098,11.13 31.492,13.735 6.392,2.603 22.023,5.68 41.676,21.784 19.652,16.101 26.097,21.371 35.042,40.254 10.657,22.494 12.551,26.045 19.656,71.746 7.102,45.699 -0.927,72.7 -4.974,86.663 -4.735,16.338 -8.761,31.728 -30.782,64.642 -22.021,32.913 -41.438,48.778 -70.326,61.566 -28.887,12.785 -45.938,14.679 -67.721,14.442 -21.784,-0.236 -35.517,-6.866 -49.251,-13.732 -13.734,-6.868 -23.678,-6.866 -38.359,2.604 -14.681,9.471 -17.521,26.521 -18.469,44.28 -0.948,17.758 4.024,23.205 12.549,21.31 8.524,-1.895 28.177,-8.052 28.177,-8.052 z"
       style="fill:none;stroke:#231f20;stroke-width:0.5;stroke-linecap:butt;stroke-linejoin:miter;stroke-miterlimit:4;stroke-dasharray:none;stroke-opacity:1"
       id="path202159" />
    <path
       d="m 753.109,781.246 c 13.733,-2.13 51.619,-16.101 75.06,-31.967 23.442,-15.863 34.335,-30.307 45.227,-46.646 10.891,-16.338 22.258,-35.281 29.836,-58.96 7.576,-23.678 11.838,-44.989 8.996,-74.589 -2.841,-29.596 -8.996,-65.588 -14.917,-80.27 -5.92,-14.679 -13.496,-32.676 -32.677,-48.066 -19.178,-15.39 -28.176,-22.733 -53.039,-31.494 -24.863,-8.759 -30.912,-11.354 -32.031,-12.187"
       style="fill:none;stroke:#231f20;stroke-width:0.75;stroke-linecap:round;stroke-linejoin:round;stroke-miterlimit:4;stroke-dasharray:none;stroke-opacity:1"
       id="path202161" />
    <path
       d="m 666.918,819.131 c -6.688,0.327 -23.56,-0.828 -27.704,-5.682 -3.509,-4.11 -6.984,-15.628 -4.38,-28.887 2.604,-13.261 23.592,-22.639 31.611,-21.785 11.129,1.184 22.257,7.102 35.991,13.261 13.733,6.156 36.94,7.339 50.673,5.208"
       style="fill:none;stroke:#231f20;stroke-width:0.5;stroke-linecap:butt;stroke-linejoin:miter;stroke-miterlimit:4;stroke-dasharray:none;stroke-opacity:1"
       id="path202163" />
    <path
       d="m 578.832,734.6 c 7.105,-1.422 23.918,-3.078 35.284,-3.552 11.366,-0.474 23.676,-1.894 38.121,-7.814 14.445,-5.92 24.153,-10.182 26.283,-11.129"
       style="fill:none;stroke:#231f20;stroke-width:0.75;stroke-linecap:round;stroke-linejoin:round;stroke-miterlimit:4;stroke-dasharray:none;stroke-opacity:1"
       id="path202165" />
    <path
       d="m 740.322,646.751 c 3.079,-2.84 6.866,-7.102 10.656,-9.234 3.788,-2.132 14.207,-8.998 16.337,-12.076 2.132,-3.079 14.078,-29.915 15.636,-39.305 1.413,-8.527 -2.612,-21.313 -6.163,-27.706 -3.552,-6.392 -8.861,-14.034 -11.229,-16.876"
       style="fill:none;stroke:#231f20;stroke-width:0.75;stroke-linecap:round;stroke-linejoin:round;stroke-miterlimit:4;stroke-dasharray:none;stroke-opacity:1"
       id="path202167" />
    <path
       d="m 739.702,513.87 c -5.3,-7.296 -14.297,-21.031 -17.849,-27.897 -3.552,-6.866 -12.786,-24.152 -17.049,-31.728 -4.262,-7.577 -7.578,-13.141 -10.655,-19.536"
       style="fill:none;stroke:#231f20;stroke-width:0.75;stroke-linecap:round;stroke-linejoin:round;stroke-miterlimit:4;stroke-dasharray:none;stroke-opacity:1"
       id="path202169" />
    <path
       d="m 675.207,794.27 c 11.837,-0.474 52.381,-5.452 77.902,-13.024"
       style="fill:none;stroke:#231f20;stroke-width:0.75;stroke-linecap:round;stroke-linejoin:round;stroke-miterlimit:4;stroke-dasharray:none;stroke-opacity:1"
       id="path202171" />
    <path
       d="m 644.661,761.593 c 3.314,0.474 11.269,3.245 14.047,2.281"
       style="fill:none;stroke:#231f20;stroke-width:0.5;stroke-linecap:butt;stroke-linejoin:miter;stroke-miterlimit:4;stroke-dasharray:none;stroke-opacity:1"
       id="path202173" />
    <path
       d="m 542.131,686.768 c 0,0 1.51,-0.681 3.079,0.238 0,0 3.45,-1.895 5.344,0.71"
       style="fill:none;stroke:#231f20;stroke-width:0.5;stroke-linecap:butt;stroke-linejoin:miter;stroke-miterlimit:4;stroke-dasharray:none;stroke-opacity:1"
       id="path202175" />
    <path
       d="m 702.713,666.408 c -1.697,6.39 -7.034,14.707 -11.405,17.993 -4.372,3.286 -16.576,10.181 -32.205,16.574 -15.627,6.394 -31.493,10.656 -44.041,12.786 -12.549,2.132 -33.149,2.843 -43.568,0.239 -10.418,-2.606 -16.812,-7.341 -18.232,-12.315 -1.421,-4.972 -4.263,-14.917 -1.659,-17.047 2.605,-2.132 7.105,-3.554 13.735,3.315 6.628,6.866 13.97,13.022 26.045,13.022 12.077,0 38.122,-4.734 57.066,-11.602 18.943,-6.867 38.033,-16.339 56.027,-33.86"
       style="fill:none;stroke:#231f20;stroke-width:0.5;stroke-linecap:butt;stroke-linejoin:miter;stroke-miterlimit:4;stroke-dasharray:none;stroke-opacity:1"
       id="path202177" />
    <path
       d="m 579.308,672.798 c 1.656,3.315 12.075,11.84 19.89,11.84 7.813,0 22.493,-5.21 30.782,-9.235 8.288,-4.026 37.173,-22.022 45.462,-28.652 8.288,-6.63 26.6,-22.459 23.997,-35.008"
       style="fill:none;stroke:#231f20;stroke-width:0.5;stroke-linecap:butt;stroke-linejoin:miter;stroke-miterlimit:4;stroke-dasharray:none;stroke-opacity:1"
       id="path202179" />
    <path
       d="m 703.642,658.599 c 1.872,-7.349 5.425,-14.926 0.452,-33.868 -4.973,-18.942 -16.338,-34.097 -28.887,-39.308 -12.551,-5.208 -51.858,-7.339 -80.035,8.288"
       style="fill:none;stroke:#231f20;stroke-width:0.5;stroke-linecap:butt;stroke-linejoin:miter;stroke-miterlimit:4;stroke-dasharray:none;stroke-opacity:1"
       id="path202181" />
    <path
       d="m 718.301,708.553 c 7.458,3.552 22.731,9.945 47.949,7.103 25.217,-2.841 63.933,-22.732 84.534,-79.56 20.598,-56.827 8.879,-90.215 0,-109.395 -8.88,-19.18 -21.667,-41.556 -36.94,-52.566 -15.272,-11.011 -24.862,-15.272 -38.005,-15.984 -13.14,-0.71 -23.441,-4.616 -34.918,-11.167 -11.726,-6.692 -26.171,-18.313 -31.5,-27.192"
       style="fill:none;stroke:#231f20;stroke-width:0.5;stroke-linecap:butt;stroke-linejoin:miter;stroke-miterlimit:4;stroke-dasharray:none;stroke-opacity:1"
       id="path202183" />
    <path
       d="M 540.002,603.064 V 579.269"
       style="fill:none;stroke:#231f20;stroke-width:0.75;stroke-linecap:round;stroke-linejoin:round;stroke-miterlimit:4;stroke-dasharray:none;stroke-opacity:1"
       id="path202185" />
    <path
       d="m 546.63,520.781 c 0,0 5.448,-0.71 6.393,5.21 0.949,5.921 1.422,11.129 3.316,15.627 1.895,4.5 8.154,16.428 10.183,20.364 0,0 -1.658,-11.127 -3.08,-18.469 -1.42,-7.34 -2.366,-17.996 -2.841,-22.022 -0.474,-4.025 -3.789,-6.154 -6.868,-6.628 -3.077,-0.475 -6.153,-1.658 -7.103,5.918 z"
       style="fill:none;stroke:#231f20;stroke-width:0.5;stroke-linecap:butt;stroke-linejoin:miter;stroke-miterlimit:4;stroke-dasharray:none;stroke-opacity:1"
       id="path202187" />
    <path
       d="m 546.947,518.903 c 0,0 -3.158,-5.225 -2.448,-8.777 0.711,-3.552 3.789,-20.599 0.711,-25.098 l 1.895,-0.712 c 0,0 3.788,3.79 3.076,12.077 -0.71,8.287 -0.832,14.805 -1.006,18.532"
       style="fill:none;stroke:#231f20;stroke-width:0.5;stroke-linecap:butt;stroke-linejoin:miter;stroke-miterlimit:4;stroke-dasharray:none;stroke-opacity:1"
       id="path202189" />
    <path
       d="m 616.958,469.399 c 0,0 -8.525,-4.263 -19.181,-13.261 -10.654,-8.997 -20.602,-21.31 -13.971,-26.756 6.631,-5.446 17.049,2.368 27.942,12.786 10.892,10.418 31.964,29.834 35.28,33.861 3.315,4.025 7.814,8.999 5.921,10.419 -1.896,1.421 -12.315,0.473 -25.811,-8.762"
       style="fill:none;stroke:#231f20;stroke-width:0.5;stroke-linecap:butt;stroke-linejoin:miter;stroke-miterlimit:4;stroke-dasharray:none;stroke-opacity:1"
       id="path202191" />
    <path
       d="m 578.239,396.376 c 0,0 -2.046,3.444 -2.72,8.617 -0.711,5.447 3.077,9.472 6.865,8.524 3.79,-0.948 10.319,-4.76 5.99,-17.653"
       style="fill:none;stroke:#231f20;stroke-width:0.5;stroke-linecap:butt;stroke-linejoin:miter;stroke-miterlimit:4;stroke-dasharray:none;stroke-opacity:1"
       id="path202193" />
    <path
       d="m 589.797,403.1 c 2.296,1.183 6.795,2.603 6.795,2.603 0,0 3.551,-0.946 12.787,0.474 9.235,1.422 35.518,7.575 50.672,14.443 15.156,6.868 25.336,14.918 31.019,24.864 5.682,9.944 14.682,26.755 16.813,31.965 2.13,5.211 2.367,16.339 4.026,21.311 1.656,4.972 7.102,14.207 14.206,17.286 7.103,3.078 11.617,3.073 14.452,-0.476"
       style="fill:none;stroke:#231f20;stroke-width:0.5;stroke-linecap:butt;stroke-linejoin:miter;stroke-miterlimit:4;stroke-dasharray:none;stroke-opacity:1"
       id="path202195" />
    <path
       d="m 717.353,584.241 c 2.192,-0.153 6.808,-1.156 6.769,5.914 -0.029,4.994 -0.375,14.213 -5.347,13.503 -4.974,-0.71 -6.155,-3.08 -6.63,-8.763 -0.475,-5.682 -0.94,-10.227 5.208,-10.654 z"
       style="fill:none;stroke:#231f20;stroke-width:0.5;stroke-linecap:butt;stroke-linejoin:miter;stroke-miterlimit:4;stroke-dasharray:none;stroke-opacity:1"
       id="path202197" />
    <path
       d="m 413.084,819.131 c -9.945,-2.368 -63.933,-17.521 -84.77,-23.205 -20.838,-5.682 -61.092,-22.967 -84.77,-38.359 -23.678,-15.391 -33.148,-22.731 -51.381,-54.224 -18.234,-31.493 -29.835,-55.644 -29.835,-96.135 0,-40.49 7.813,-91.635 13.022,-107.973 5.306,-16.642 16.102,-42.386 36.702,-59.197 20.601,-16.812 20.126,-17.523 41.438,-27.231 21.31,-9.708 47.212,-18.734 48.303,-14.918 0.475,1.657 -25.098,11.13 -31.492,13.735 -6.392,2.603 -22.021,5.68 -41.675,21.784 -19.653,16.101 -26.098,21.371 -35.042,40.254 -10.657,22.494 -12.551,26.045 -19.655,71.746 -7.103,45.699 0.926,72.7 4.972,86.663 4.737,16.338 8.763,31.728 30.783,64.642 22.022,32.913 41.439,48.778 70.325,61.566 28.888,12.785 45.939,14.679 67.722,14.442 21.784,-0.236 35.517,-6.866 49.251,-13.732 13.734,-6.868 23.677,-6.866 38.359,2.604 14.681,9.471 17.521,26.521 18.469,44.28 0.948,17.758 -4.024,23.205 -12.549,21.31 -8.524,-1.895 -28.177,-8.052 -28.177,-8.052 z"
       style="fill:none;stroke:#231f20;stroke-width:0.5;stroke-linecap:butt;stroke-linejoin:miter;stroke-miterlimit:4;stroke-dasharray:none;stroke-opacity:1"
       id="path202199" />
    <path
       d="m 326.894,781.246 c -13.734,-2.13 -51.619,-16.101 -75.061,-31.967 -23.442,-15.863 -34.336,-30.307 -45.227,-46.646 -10.892,-16.338 -22.259,-35.281 -29.835,-58.96 -7.577,-23.678 -11.839,-44.989 -8.998,-74.589 2.841,-29.596 8.998,-65.588 14.918,-80.27 5.92,-14.679 13.497,-32.676 32.677,-48.066 19.179,-15.39 28.176,-22.733 53.039,-31.494 24.862,-8.759 30.912,-11.354 32.031,-12.187"
       style="fill:none;stroke:#231f20;stroke-width:0.75;stroke-linecap:round;stroke-linejoin:round;stroke-miterlimit:4;stroke-dasharray:none;stroke-opacity:1"
       id="path202201" />
    <path
       d="m 413.084,819.131 c 6.688,0.327 23.56,-0.828 27.704,-5.682 3.509,-4.11 6.984,-15.628 4.38,-28.887 -2.604,-13.261 -23.592,-22.639 -31.611,-21.785 -11.129,1.184 -22.257,7.102 -35.991,13.261 -13.734,6.156 -36.938,7.339 -50.672,5.208"
       style="fill:none;stroke:#231f20;stroke-width:0.5;stroke-linecap:butt;stroke-linejoin:miter;stroke-miterlimit:4;stroke-dasharray:none;stroke-opacity:1"
       id="path202203" />
    <path
       d="m 501.168,734.6 c -7.104,-1.422 -23.916,-3.078 -35.282,-3.552 -11.366,-0.474 -23.678,-1.894 -38.121,-7.814 -14.445,-5.92 -24.153,-10.182 -26.284,-11.129"
       style="fill:none;stroke:#231f20;stroke-width:0.75;stroke-linecap:round;stroke-linejoin:round;stroke-miterlimit:4;stroke-dasharray:none;stroke-opacity:1"
       id="path202205" />
    <path
       d="m 339.68,646.751 c -3.08,-2.84 -6.866,-7.102 -10.656,-9.234 -3.788,-2.132 -14.207,-8.998 -16.338,-12.076 -2.131,-3.079 -14.078,-29.915 -15.635,-39.305 -1.414,-8.527 2.612,-21.313 6.163,-27.706 3.552,-6.392 8.861,-14.034 11.229,-16.876"
       style="fill:none;stroke:#231f20;stroke-width:0.75;stroke-linecap:round;stroke-linejoin:round;stroke-miterlimit:4;stroke-dasharray:none;stroke-opacity:1"
       id="path202207" />
    <path
       d="m 340.3,513.87 c 5.3,-7.296 14.297,-21.031 17.849,-27.897 3.552,-6.866 12.786,-24.152 17.049,-31.728 4.262,-7.577 7.578,-13.141 10.654,-19.536"
       style="fill:none;stroke:#231f20;stroke-width:0.75;stroke-linecap:round;stroke-linejoin:round;stroke-miterlimit:4;stroke-dasharray:none;stroke-opacity:1"
       id="path202209" />
    <path
       d="m 404.796,794.27 c -11.839,-0.474 -52.383,-5.452 -77.902,-13.024"
       style="fill:none;stroke:#231f20;stroke-width:0.75;stroke-linecap:round;stroke-linejoin:round;stroke-miterlimit:4;stroke-dasharray:none;stroke-opacity:1"
       id="path202211" />
    <path
       d="m 435.341,761.593 c -3.314,0.474 -11.269,3.245 -14.049,2.281"
       style="fill:none;stroke:#231f20;stroke-width:0.5;stroke-linecap:butt;stroke-linejoin:miter;stroke-miterlimit:4;stroke-dasharray:none;stroke-opacity:1"
       id="path202213" />
    <path
       d="m 537.871,686.768 c 0,0 -1.511,-0.681 -3.079,0.238 0,0 -3.45,-1.895 -5.344,0.71"
       style="fill:none;stroke:#231f20;stroke-width:0.5;stroke-linecap:butt;stroke-linejoin:miter;stroke-miterlimit:4;stroke-dasharray:none;stroke-opacity:1"
       id="path202215" />
    <path
       d="m 377.289,666.408 c 1.697,6.39 7.034,14.707 11.405,17.993 4.372,3.286 16.576,10.181 32.205,16.574 15.627,6.394 31.492,10.656 44.042,12.786 12.548,2.132 33.148,2.843 43.567,0.239 10.418,-2.606 16.812,-7.341 18.233,-12.315 1.42,-4.972 4.262,-14.917 1.658,-17.047 -2.605,-2.132 -7.105,-3.554 -13.734,3.315 -6.629,6.866 -13.971,13.022 -26.047,13.022 -12.076,0 -38.121,-4.734 -57.065,-11.602 -18.944,-6.867 -38.033,-16.339 -56.027,-33.86"
       style="fill:none;stroke:#231f20;stroke-width:0.5;stroke-linecap:butt;stroke-linejoin:miter;stroke-miterlimit:4;stroke-dasharray:none;stroke-opacity:1"
       id="path202217" />
    <path
       d="m 395.089,591.582 c 18.47,4.498 22.256,12.548 28.412,24.386 6.613,12.721 10.893,24.153 23.443,32.678 12.55,8.525 42.385,21.548 53.75,24.152 11.366,2.605 31.493,-0.236 39.308,-0.236 7.813,0 27.94,2.841 39.306,0.236 11.365,-2.604 41.2,-15.627 53.75,-24.152 12.549,-8.525 16.83,-19.957 23.442,-32.678 6.156,-11.838 9.943,-19.888 28.412,-24.386"
       style="fill:none;stroke:#231f20;stroke-width:0.5;stroke-linecap:butt;stroke-linejoin:miter;stroke-miterlimit:4;stroke-dasharray:none;stroke-opacity:1"
       id="path202219" />
    <path
       d="m 500.694,672.798 c -1.656,3.315 -12.076,11.84 -19.891,11.84 -7.812,0 -22.492,-5.21 -30.781,-9.235 -8.288,-4.026 -37.173,-22.022 -45.463,-28.652 -8.287,-6.63 -26.599,-22.459 -23.996,-35.008"
       style="fill:none;stroke:#231f20;stroke-width:0.5;stroke-linecap:butt;stroke-linejoin:miter;stroke-miterlimit:4;stroke-dasharray:none;stroke-opacity:1"
       id="path202221" />
    <path
       d="m 376.36,658.599 c -1.872,-7.349 -5.425,-14.926 -0.452,-33.868 4.973,-18.942 16.338,-34.097 28.888,-39.308 12.549,-5.208 51.857,-7.339 80.034,8.288"
       style="fill:none;stroke:#231f20;stroke-width:0.5;stroke-linecap:butt;stroke-linejoin:miter;stroke-miterlimit:4;stroke-dasharray:none;stroke-opacity:1"
       id="path202223" />
    <path
       d="m 439.136,581.763 c 4.267,25.23 21.778,50.781 45.457,66.173 23.679,15.392 49.961,12.076 55.409,12.076 5.446,0 31.728,3.316 55.407,-12.076 23.679,-15.392 41.189,-40.943 45.458,-66.173"
       style="fill:none;stroke:#231f20;stroke-width:0.5;stroke-linecap:butt;stroke-linejoin:miter;stroke-miterlimit:4;stroke-dasharray:none;stroke-opacity:1"
       id="path202225" />
    <path
       d="m 513.48,561.982 c -3.553,7.342 -15.848,17.287 -23.915,24.39 -8.066,7.101 -6.394,21.784 -5.445,31.964 0.948,10.183 9.944,16.813 22.494,22.969 12.55,6.156 27.705,6.631 33.388,6.631 5.681,0 20.836,-0.475 33.386,-6.631 12.549,-6.156 21.546,-12.786 22.494,-22.969 0.948,-10.18 2.621,-24.863 -5.445,-31.964 -8.067,-7.103 -20.362,-17.048 -23.915,-24.39"
       style="fill:none;stroke:#231f20;stroke-width:0.5;stroke-linecap:butt;stroke-linejoin:miter;stroke-miterlimit:4;stroke-dasharray:none;stroke-opacity:1"
       id="path202227" />
    <path
       d="m 361.701,708.553 c -7.458,3.552 -22.731,9.945 -47.95,7.103 -25.217,-2.841 -63.931,-22.732 -84.532,-79.56 -20.6,-56.827 -8.88,-90.215 0,-109.395 8.879,-19.18 21.666,-41.556 36.939,-52.566 15.272,-11.011 24.862,-15.272 38.005,-15.984 13.14,-0.71 23.441,-4.616 34.918,-11.167 11.725,-6.692 26.171,-18.313 31.499,-27.192"
       style="fill:none;stroke:#231f20;stroke-width:0.5;stroke-linecap:butt;stroke-linejoin:miter;stroke-miterlimit:4;stroke-dasharray:none;stroke-opacity:1"
       id="path202229" />
    <path
       d="m 533.372,520.781 c 0,0 -5.448,-0.71 -6.394,5.21 -0.947,5.921 -1.421,11.129 -3.315,15.627 -1.895,4.5 -8.154,16.428 -10.183,20.364 0,0 1.658,-11.127 3.08,-18.469 1.42,-7.34 2.366,-17.996 2.841,-22.022 0.474,-4.025 3.788,-6.154 6.866,-6.628 3.078,-0.475 6.155,-1.658 7.105,5.918 z"
       style="fill:none;stroke:#231f20;stroke-width:0.5;stroke-linecap:butt;stroke-linejoin:miter;stroke-miterlimit:4;stroke-dasharray:none;stroke-opacity:1"
       id="path202231" />
    <path
       d="m 533.055,518.903 c 0,0 3.158,-5.225 2.448,-8.777 -0.711,-3.552 -3.79,-20.599 -0.711,-25.098 l -1.895,-0.712 c 0,0 -3.786,3.79 -3.076,12.077 0.71,8.287 0.832,14.805 1.006,18.532"
       style="fill:none;stroke:#231f20;stroke-width:0.5;stroke-linecap:butt;stroke-linejoin:miter;stroke-miterlimit:4;stroke-dasharray:none;stroke-opacity:1"
       id="path202233" />
    <path
       d="m 463.044,469.399 c 0,0 8.525,-4.263 19.181,-13.261 10.654,-8.997 20.602,-21.31 13.971,-26.756 -6.631,-5.446 -17.049,2.368 -27.942,12.786 -10.892,10.418 -31.963,29.834 -35.28,33.861 -3.315,4.025 -7.814,8.999 -5.921,10.419 1.895,1.421 12.315,0.473 25.811,-8.762"
       style="fill:none;stroke:#231f20;stroke-width:0.5;stroke-linecap:butt;stroke-linejoin:miter;stroke-miterlimit:4;stroke-dasharray:none;stroke-opacity:1"
       id="path202235" />
    <path
       d="m 501.763,396.376 c 0,0 2.046,3.444 2.721,8.617 0.71,5.447 -3.078,9.472 -6.866,8.524 -3.79,-0.948 -10.32,-4.76 -5.99,-17.653"
       style="fill:none;stroke:#231f20;stroke-width:0.5;stroke-linecap:butt;stroke-linejoin:miter;stroke-miterlimit:4;stroke-dasharray:none;stroke-opacity:1"
       id="path202237" />
    <path
       d="m 490.205,403.1 c -2.297,1.183 -6.795,2.603 -6.795,2.603 0,0 -3.552,-0.946 -12.787,0.474 -9.235,1.422 -35.518,7.575 -50.672,14.443 -15.155,6.868 -25.336,14.918 -31.019,24.864 -5.682,9.944 -14.682,26.755 -16.813,31.965 -2.13,5.211 -2.368,16.339 -4.026,21.311 -1.656,4.972 -7.102,14.207 -14.206,17.286 -7.104,3.078 -11.617,3.073 -14.452,-0.476"
       style="fill:none;stroke:#231f20;stroke-width:0.5;stroke-linecap:butt;stroke-linejoin:miter;stroke-miterlimit:4;stroke-dasharray:none;stroke-opacity:1"
       id="path202239" />
    <path
       d="m 362.649,584.241 c -2.193,-0.153 -6.809,-1.156 -6.769,5.914 0.029,4.994 0.375,14.213 5.347,13.503 4.973,-0.71 6.155,-3.08 6.63,-8.763 0.475,-5.682 0.939,-10.227 -5.208,-10.654 z"
       style="fill:none;stroke:#231f20;stroke-width:0.5;stroke-linecap:butt;stroke-linejoin:miter;stroke-miterlimit:4;stroke-dasharray:none;stroke-opacity:1"
       id="path202241" />
    <path
       d="m 569.746,566.835 c 5.3,-6.037 19.98,-19.296 19.98,-30.426 0,-10.915 -3.313,-15.154 -8.287,-20.126 -4.973,-4.972 -21.221,-21.547 -32.111,-5.21"
       style="fill:none;stroke:#231f20;stroke-width:0.25;stroke-linecap:butt;stroke-linejoin:miter;stroke-miterlimit:4;stroke-dasharray:none;stroke-opacity:1"
       id="path202243" />
    <path
       d="m 510.256,566.835 c -5.3,-6.037 -19.98,-19.296 -19.98,-30.426 0,-10.915 3.315,-15.154 8.287,-20.126 4.973,-4.972 21.221,-21.547 32.111,-5.21"
       style="fill:none;stroke:#231f20;stroke-width:0.25;stroke-linecap:butt;stroke-linejoin:miter;stroke-miterlimit:4;stroke-dasharray:none;stroke-opacity:1"
       id="path202245" />
    <path
       d="m 873.334,444.837 47.034,-49.708"
       style="fill:none;stroke:#231f20;stroke-width:0.5;stroke-linecap:round;stroke-linejoin:round;stroke-miterlimit:4;stroke-dasharray:2.8, 1.8;stroke-dashoffset:0;stroke-opacity:1"
       id="path202247" />
    <path
       d="M 908.511,515.369 979.245,498.79"
       style="fill:none;stroke:#231f20;stroke-width:0.5;stroke-linecap:round;stroke-linejoin:round;stroke-miterlimit:4;stroke-dasharray:2.8, 1.8;stroke-dashoffset:0;stroke-opacity:1"
       id="path202249" />
    <path
       d="m 913.487,547.056 65.507,-9.695"
       style="fill:none;stroke:#231f20;stroke-width:0.5;stroke-linecap:round;stroke-linejoin:round;stroke-miterlimit:4;stroke-dasharray:2.8, 1.8;stroke-dashoffset:0;stroke-opacity:1"
       id="path202251" />
    <path
       d="m 916.35,575.253 73.635,-6.428"
       style="fill:none;stroke:#231f20;stroke-width:0.5;stroke-linecap:round;stroke-linejoin:round;stroke-miterlimit:4;stroke-dasharray:2.8, 1.8;stroke-dashoffset:0;stroke-opacity:1"
       id="path202253" />
    <path
       d="m 917.628,601.768 78.502,-3.061"
       style="fill:none;stroke:#231f20;stroke-width:0.5;stroke-linecap:round;stroke-linejoin:round;stroke-miterlimit:4;stroke-dasharray:2.8, 1.8;stroke-dashoffset:0;stroke-opacity:1"
       id="path202255" />
    <path
       d="m 916.171,630.875 82.596,9.01"
       style="fill:none;stroke:#231f20;stroke-width:0.5;stroke-linecap:round;stroke-linejoin:round;stroke-miterlimit:4;stroke-dasharray:2.8, 1.8;stroke-dashoffset:0;stroke-opacity:1"
       id="path202257" />
    <path
       d="m 893.655,693.104 81.742,43.962"
       style="fill:none;stroke:#231f20;stroke-width:0.5;stroke-linecap:round;stroke-linejoin:round;stroke-miterlimit:4;stroke-dasharray:2.8, 1.8;stroke-dashoffset:0;stroke-opacity:1"
       id="path202259" />
    <path
       d="m 881.776,713.435 73.676,54.412"
       style="fill:none;stroke:#231f20;stroke-width:0.5;stroke-linecap:round;stroke-linejoin:round;stroke-miterlimit:4;stroke-dasharray:2.8, 1.8;stroke-dashoffset:0;stroke-opacity:1"
       id="path202261" />
    <path
       d="m 822.027,766.118 37.499,82.1"
       style="fill:none;stroke:#231f20;stroke-width:0.5;stroke-linecap:round;stroke-linejoin:round;stroke-miterlimit:4;stroke-dasharray:2.8, 1.8;stroke-dashoffset:0;stroke-opacity:1"
       id="path202263" />
    <path
       d="m 766.786,791.033 21.545,85.212"
       style="fill:none;stroke:#231f20;stroke-width:0.5;stroke-linecap:round;stroke-linejoin:round;stroke-miterlimit:4;stroke-dasharray:2.8, 1.8;stroke-dashoffset:0;stroke-opacity:1"
       id="path202265" />
    <path
       d="m 694.658,811.686 17.466,82.375"
       style="fill:none;stroke:#231f20;stroke-width:0.5;stroke-linecap:round;stroke-linejoin:round;stroke-miterlimit:4;stroke-dasharray:2.8, 1.8;stroke-dashoffset:0;stroke-opacity:1"
       id="path202267" />
    <path
       d="m 665.735,819.605 7.597,79.321"
       style="fill:none;stroke:#231f20;stroke-width:0.5;stroke-linecap:round;stroke-linejoin:round;stroke-miterlimit:4;stroke-dasharray:2.8, 1.8;stroke-dashoffset:0;stroke-opacity:1"
       id="path202269" />
    <path
       d="m 635.897,827.535 -6.624,72.7"
       style="fill:none;stroke:#231f20;stroke-width:0.5;stroke-linecap:round;stroke-linejoin:round;stroke-miterlimit:4;stroke-dasharray:2.8, 1.8;stroke-dashoffset:0;stroke-opacity:1"
       id="path202271" />
    <path
       d="m 630.611,825.814 -70.858,55.71"
       style="fill:none;stroke:#231f20;stroke-width:0.5;stroke-linecap:round;stroke-linejoin:round;stroke-miterlimit:4;stroke-dasharray:2.8, 1.8;stroke-dashoffset:0;stroke-opacity:1"
       id="path202273" />
    <path
       d="m 540.002,785.626 86.663,8.17"
       style="fill:none;stroke:#231f20;stroke-width:0.5;stroke-linecap:round;stroke-linejoin:round;stroke-miterlimit:4;stroke-dasharray:2.8, 1.8;stroke-dashoffset:0;stroke-opacity:1"
       id="path202275" />
    <path
       d="M 632.099,776.143 593.012,732.66"
       style="fill:none;stroke:#231f20;stroke-width:0.5;stroke-linecap:round;stroke-linejoin:round;stroke-miterlimit:4;stroke-dasharray:2.8, 1.8;stroke-dashoffset:0;stroke-opacity:1"
       id="path202277" />
    <path
       d="m 660.967,754.534 c -4.705,-0.755 -7.544,-3.36 -11.334,-10.463 -3.789,-7.105 -4.017,-14.655 -3.785,-18.457"
       style="fill:none;stroke:#231f20;stroke-width:0.5;stroke-linecap:round;stroke-linejoin:round;stroke-miterlimit:4;stroke-dasharray:2.8, 1.8;stroke-dashoffset:0;stroke-opacity:1"
       id="path202279" />
    <path
       d="m 730.851,745.728 c -0.362,-3.726 6.394,-0.947 11.129,0.711 4.734,1.657 22.02,4.262 25.809,5.21 3.79,0.946 10.477,1.621 14.682,-0.948 5.178,-3.167 13.259,-4.972 18.943,-7.577 5.682,-2.605 25.098,-14.444 35.991,-25.1 10.892,-10.655 25.571,-30.31 27.939,-36.228 2.37,-5.92 9.708,-21.548 14.208,-29.835 4.499,-8.288 9.236,-21.785 10.893,-31.254 1.656,-9.473 7.812,-26.049 8.05,-33.388 0.237,-7.342 0.711,-34.099 -6.156,-56.829 -6.866,-22.732 -18.47,-43.096 -24.153,-51.383 0,0 3.553,0.475 6.156,1.421 0,0 11.366,16.809 15.866,28.177 4.5,11.366 9.71,29.125 11.603,48.069 1.893,18.942 1.657,33.386 -2.842,47.594 -4.5,14.207 -4.501,23.202 -8.288,34.097 -3.788,10.892 -13.732,33.623 -25.337,50.908 -11.602,17.286 -22.73,35.044 -44.989,48.305 -20.033,11.935 -40.965,22.021 -53.276,20.837 -12.313,-1.183 -35.518,-5.446 -36.228,-12.787"
       style="fill:#b2b1b1;fill-opacity:1;fill-rule:nonzero;stroke:none;stroke-width:0.1"
       id="path202281" />
    <path
       d="m 730.851,745.728 c -0.362,-3.726 6.394,-0.947 11.129,0.711 4.734,1.657 22.02,4.262 25.809,5.21 3.79,0.946 10.477,1.621 14.682,-0.948 5.178,-3.167 13.259,-4.972 18.943,-7.577 5.682,-2.605 25.098,-14.444 35.991,-25.1 10.892,-10.655 25.571,-30.31 27.939,-36.228 2.37,-5.92 9.708,-21.548 14.208,-29.835 4.499,-8.288 9.236,-21.785 10.893,-31.254 1.656,-9.473 7.812,-26.049 8.05,-33.388 0.237,-7.342 0.711,-34.099 -6.156,-56.829 -6.866,-22.732 -18.47,-43.096 -24.153,-51.383 0,0 3.553,0.475 6.156,1.421 0,0 11.366,16.809 15.866,28.177 4.5,11.366 9.71,29.125 11.603,48.069 1.893,18.942 1.657,33.386 -2.842,47.594 -4.5,14.207 -4.501,23.202 -8.288,34.097 -3.788,10.892 -13.732,33.623 -25.337,50.908 -11.602,17.286 -22.73,35.044 -44.989,48.305 -20.033,11.935 -40.965,22.021 -53.276,20.837 -12.313,-1.183 -35.518,-5.446 -36.228,-12.787 z"
       style="fill:none;stroke:#231f20;stroke-width:0.5;stroke-linecap:round;stroke-linejoin:round;stroke-miterlimit:4;stroke-dasharray:2.8, 1.8;stroke-dashoffset:0;stroke-opacity:1"
       id="path202283" />
    <path
       d="m 759.964,771.004 c -7.328,-2.071 -33.337,-15.913 -29.094,-25.922"
       style="fill:none;stroke:#231f20;stroke-width:0.5;stroke-linecap:round;stroke-linejoin:round;stroke-miterlimit:4;stroke-dasharray:2.8, 1.8;stroke-dashoffset:0;stroke-opacity:1"
       id="path202285" />
    <path
       d="m 646.111,732.732 c 10.389,-1.684 33.122,-3.816 46.855,-3.816 13.732,0 21.783,1.184 27.939,5.446 6.157,4.262 13.015,9.323 15.988,10.324"
       style="fill:none;stroke:#231f20;stroke-width:0.5;stroke-linecap:round;stroke-linejoin:round;stroke-miterlimit:4;stroke-dasharray:2.8, 1.8;stroke-dashoffset:0;stroke-opacity:1"
       id="path202287" />
    <path
       d="m 545.21,687.006 c 0.473,5.208 -0.473,12.549 -0.711,18.469 -0.236,5.919 4.262,13.971 7.579,17.759 3.314,3.788 11.838,7.102 22.02,6.392 10.183,-0.71 22.257,-2.84 31.729,-2.84 9.472,0 25.338,-1.896 33.862,-4.5 8.523,-2.604 28.177,-11.128 34.57,-14.68 6.393,-3.551 10.893,-6.393 11.365,-11.129 0.474,-4.736 0.474,-8.524 1.894,-9.471"
       style="fill:none;stroke:#231f20;stroke-width:0.5;stroke-linecap:round;stroke-linejoin:round;stroke-miterlimit:4;stroke-dasharray:2.8, 1.8;stroke-dashoffset:0;stroke-opacity:1"
       id="path202289" />
    <path
       d="m 584.362,635.031 c -3.161,-4.145 -6.949,-11.248 -5.53,-13.615 1.422,-2.368 10.515,0.042 15.441,2.862"
       style="fill:none;stroke:#231f20;stroke-width:0.5;stroke-linecap:round;stroke-linejoin:round;stroke-miterlimit:4;stroke-dasharray:2.8, 1.8;stroke-dashoffset:0;stroke-opacity:1"
       id="path202291" />
    <path
       d="m 868.186,479.107 c -8.523,-13.852 -23.086,-35.873 -50.08,-41.557 -26.994,-5.682 -41.557,-1.774 -64.642,-9.589 -23.087,-7.814 -33.387,-19.179 -31.966,-33.386 1.42,-14.207 30.19,-17.405 55.763,-15.273 25.573,2.13 72.456,8.525 79.915,9.235 7.458,0.71 22.731,2.841 32.677,4.616 9.944,1.776 24.715,5.171 22.178,10.787"
       style="fill:none;stroke:#231f20;stroke-width:0.5;stroke-linecap:round;stroke-linejoin:round;stroke-miterlimit:4;stroke-dasharray:2.8, 1.8;stroke-dashoffset:0;stroke-opacity:1"
       id="path202293" />
    <path
       d="m 900.446,416.182 c -1.369,1.448 -8.818,2.9 -16.986,1.48 -8.169,-1.422 -32.073,-5.536 -46.884,-8.88 -15.076,-3.405 -20.988,-5.113 -31.256,-8.525 -13.431,-4.463 -19.534,-6.866 -23.851,-3.223"
       style="fill:none;stroke:#231f20;stroke-width:0.5;stroke-linecap:round;stroke-linejoin:round;stroke-miterlimit:4;stroke-dasharray:2.8, 1.8;stroke-dashoffset:0;stroke-opacity:1"
       id="path202295" />
    <path
       d="m 710.03,394.352 c 11.468,0.223 60.601,5.431 68.178,3.537"
       style="fill:none;stroke:#231f20;stroke-width:0.5;stroke-linecap:round;stroke-linejoin:round;stroke-miterlimit:4;stroke-dasharray:2.8, 1.8;stroke-dashoffset:0;stroke-opacity:1"
       id="path202297" />
    <path
       d="m 736.132,370.584 c 7.386,4.1 44.941,21.864 46.302,25.688"
       style="fill:none;stroke:#231f20;stroke-width:0.5;stroke-linecap:round;stroke-linejoin:round;stroke-miterlimit:4;stroke-dasharray:2.8, 1.8;stroke-dashoffset:0;stroke-opacity:1"
       id="path202299" />
    <path
       d="m 821.639,480.897 c 6.412,1.051 25.946,1.763 32.341,14.549 0,0 -2.132,-17.76 14.206,-16.339"
       style="fill:none;stroke:#231f20;stroke-width:0.5;stroke-linecap:round;stroke-linejoin:round;stroke-miterlimit:4;stroke-dasharray:2.8, 1.8;stroke-dashoffset:0;stroke-opacity:1"
       id="path202301" />
    <path
       d="m 874.342,480.528 c 4.5,1.775 12.256,5.131 20.276,11.445"
       style="fill:none;stroke:#231f20;stroke-width:0.5;stroke-linecap:round;stroke-linejoin:round;stroke-miterlimit:4;stroke-dasharray:2.8, 1.8;stroke-dashoffset:0;stroke-opacity:1"
       id="path202303" />
    <path
       d="m 735.042,714.374 c 0.308,8.032 7.412,16.554 25.17,17.621 17.759,1.065 50.79,-12.787 72.813,-39.781 22.02,-26.994 36.827,-69.589 39.424,-95.543 2.842,-28.415 4.617,-61.801 -18.469,-101.225"
       style="fill:none;stroke:#231f20;stroke-width:0.5;stroke-linecap:round;stroke-linejoin:round;stroke-miterlimit:4;stroke-dasharray:2.8, 1.8;stroke-dashoffset:0;stroke-opacity:1"
       id="path202305" />
    <path
       d="m 747.781,699.319 c 9.649,0 45.107,-8.88 63.221,-26.994 18.115,-18.114 27.349,-50.435 30.902,-64.287 3.552,-13.853 9.944,-34.809 3.552,-56.12 -6.394,-21.31 -9.235,-30.189 -23.087,-47.593 -13.853,-17.404 -18.825,-24.507 -41.911,-30.545 -23.087,-6.038 -50.79,-14.563 -59.315,-21.667 -8.524,-7.103 -18.548,-18.026 -20.641,-5.46 l 12.003,21.694 c 0,0 -1.485,-8.101 -2.374,-11.971 -1.302,-5.683 0.407,-6.124 8.526,-0.711 10.299,6.866 30.545,14.562 42.265,18.115 11.721,3.552 30.902,6.038 45.108,19.534 14.207,13.497 31.966,36.939 35.874,60.381 3.906,23.441 0,34.097 -5.328,53.987 -5.327,19.891 -6.038,28.77 -20.245,47.239 -14.207,18.469 -22.377,25.217 -39.782,31.966 -17.402,6.748 -39.87,9.447 -41.555,3.552 -1.42,-4.973 24.153,-28.77 31.256,-34.453 7.103,-5.683 28.416,-24.152 33.742,-55.408 5.328,-31.255 2.486,-47.239 -15.273,-71.391 -17.759,-24.152 -20.245,-24.507 -28.058,-30.545 -7.815,-6.038 -24.745,-19.181 -28.652,-21.666 -3.908,-2.486 -14.902,-13.022 -14.081,-5.979 l 1.202,2.249 c 0,0 9.919,1.599 13.826,7.637 3.908,6.038 10.656,13.853 21.312,19.535 10.654,5.682 14.917,9.235 27.703,26.994 12.786,17.758 20.739,26.248 21.665,47.949 0.93,21.701 -6.037,38.359 -11.72,49.013 -5.683,10.657 -15.983,21.313 -24.507,26.996 -8.525,5.681 -17.049,16.338 -22.021,22.02 -4.972,5.683 -6.913,10.282 -11.72,12.786 -5.684,2.96 -12.471,8.723 -3.316,11.011 6.629,1.657 11.128,2.132 21.429,2.132"
       style="fill:#b2b1b1;fill-opacity:1;fill-rule:nonzero;stroke:none;stroke-width:0.1"
       id="path202307" />
    <path
       d="m 747.781,699.319 c 9.649,0 45.107,-8.88 63.221,-26.994 18.115,-18.114 27.349,-50.435 30.902,-64.287 3.552,-13.853 9.944,-34.809 3.552,-56.12 -6.394,-21.31 -9.235,-30.189 -23.087,-47.593 -13.853,-17.404 -18.825,-24.507 -41.911,-30.545 -23.087,-6.038 -50.79,-14.563 -59.315,-21.667 -8.524,-7.103 -18.548,-18.026 -20.641,-5.46 l 12.003,21.694 c 0,0 -1.485,-8.101 -2.374,-11.971 -1.302,-5.683 0.407,-6.124 8.526,-0.711 10.299,6.866 30.545,14.562 42.265,18.115 11.721,3.552 30.902,6.038 45.108,19.534 14.207,13.497 31.966,36.939 35.874,60.381 3.906,23.441 0,34.097 -5.328,53.987 -5.327,19.891 -6.038,28.77 -20.245,47.239 -14.207,18.469 -22.377,25.217 -39.782,31.966 -17.402,6.748 -39.87,9.447 -41.555,3.552 -1.42,-4.973 24.153,-28.77 31.256,-34.453 7.103,-5.683 28.416,-24.152 33.742,-55.408 5.328,-31.255 2.486,-47.239 -15.273,-71.391 -17.759,-24.152 -20.245,-24.507 -28.058,-30.545 -7.815,-6.038 -24.745,-19.181 -28.652,-21.666 -3.908,-2.486 -14.902,-13.022 -14.081,-5.979 l 1.202,2.249 c 0,0 9.919,1.599 13.826,7.637 3.908,6.038 10.656,13.853 21.312,19.535 10.654,5.682 14.917,9.235 27.703,26.994 12.786,17.758 20.739,26.248 21.665,47.949 0.93,21.701 -6.037,38.359 -11.72,49.013 -5.683,10.657 -15.983,21.313 -24.507,26.996 -8.525,5.681 -17.049,16.338 -22.021,22.02 -4.972,5.683 -6.913,10.282 -11.72,12.786 -5.684,2.96 -12.471,8.723 -3.316,11.011 6.629,1.657 11.128,2.132 21.429,2.132 z"
       style="fill:none;stroke:#231f20;stroke-width:0.5;stroke-linecap:round;stroke-linejoin:round;stroke-miterlimit:4;stroke-dasharray:2.8, 1.8;stroke-dashoffset:0;stroke-opacity:1"
       id="path202309" />
    <path
       d="m 792.716,623.22 c -3.379,9.798 -8.825,19.742 -16.167,27.083 -7.339,7.341 -14.917,14.917 -12.785,17.996 2.131,3.078 8.272,1.14 10.877,-0.756"
       style="fill:none;stroke:#231f20;stroke-width:0.5;stroke-linecap:round;stroke-linejoin:round;stroke-miterlimit:4;stroke-dasharray:2.8, 1.8;stroke-dashoffset:0;stroke-opacity:1"
       id="path202311" />
    <path
       d="m 775.367,669.009 c 1.545,1.543 5.444,-1.183 8.049,-2.842 2.606,-1.657 15.866,-10.181 20.128,-19.888 4.262,-9.71 14.916,-35.519 18.232,-64.406 3.315,-28.889 2.369,-48.068 1.895,-50.91 0,0 -4.499,-10.657 -8.05,-11.129 -3.553,-0.473 -1.659,8.761 -1.422,19.416 0.238,10.656 0.473,25.573 -2.131,47.832 -2.604,22.258 -4.498,31.018 -11.365,45.462 -6.867,14.445 -8.762,18.944 -16.339,24.627 -7.576,5.683 -11.454,9.381 -8.997,11.838"
       style="fill:#b2b1b1;fill-opacity:1;fill-rule:nonzero;stroke:none;stroke-width:0.1"
       id="path202313" />
    <path
       d="m 775.367,669.009 c 1.545,1.543 5.444,-1.183 8.049,-2.842 2.606,-1.657 15.866,-10.181 20.128,-19.888 4.262,-9.71 14.916,-35.519 18.232,-64.406 3.315,-28.889 2.369,-48.068 1.895,-50.91 0,0 -4.499,-10.657 -8.05,-11.129 -3.553,-0.473 -1.659,8.761 -1.422,19.416 0.238,10.656 0.473,25.573 -2.131,47.832 -2.604,22.258 -4.498,31.018 -11.365,45.462 -6.867,14.445 -8.762,18.944 -16.339,24.627 -7.576,5.683 -11.454,9.381 -8.997,11.838 z"
       style="fill:none;stroke:#231f20;stroke-width:0.5;stroke-linecap:round;stroke-linejoin:round;stroke-miterlimit:4;stroke-dasharray:2.8, 1.8;stroke-dashoffset:0;stroke-opacity:1"
       id="path202315" />
    <path
       d="m 779.047,668.794 c 3.897,-0.495 11.947,-1.678 16.445,-5.94 4.5,-4.263 23.206,-31.968 25.574,-37.176 2.368,-5.21 6.631,-16.195 10.183,-28.178 3.102,-10.464 4.025,-48.068 -7.578,-66.537"
       style="fill:none;stroke:#231f20;stroke-width:0.5;stroke-linecap:round;stroke-linejoin:round;stroke-miterlimit:4;stroke-dasharray:2.8, 1.8;stroke-dashoffset:0;stroke-opacity:1"
       id="path202317" />
    <path
       d="m 800.616,651.186 c 5.297,-5.854 15.241,-22.193 19.266,-34.979 4.025,-12.788 7.815,-32.915 7.815,-45.464 0,-12.549 -0.984,-24.861 -3.571,-31.729"
       style="fill:none;stroke:#231f20;stroke-width:0.5;stroke-linecap:round;stroke-linejoin:round;stroke-miterlimit:4;stroke-dasharray:2.8, 1.8;stroke-dashoffset:0;stroke-opacity:1"
       id="path202319" />
    <path
       d="m 801.342,563.932 c -2.06,-12.842 -4.902,-23.261 -6.322,-27.759 -1.421,-4.5 -2.451,-18.935 19.73,-16.216"
       style="fill:none;stroke:#231f20;stroke-width:0.5;stroke-linecap:round;stroke-linejoin:round;stroke-miterlimit:4;stroke-dasharray:2.8, 1.8;stroke-dashoffset:0;stroke-opacity:1"
       id="path202321" />
    <path
       d="m 703.642,658.599 c 1.935,-4.789 12.055,-16.109 17.737,-15.399 5.683,0.711 15.865,1.421 31.242,-6.653"
       style="fill:none;stroke:#231f20;stroke-width:0.5;stroke-linecap:round;stroke-linejoin:round;stroke-miterlimit:4;stroke-dasharray:2.8, 1.8;stroke-dashoffset:0;stroke-opacity:1"
       id="path202323" />
    <path
       d="m 565.114,553.022 c 4.959,-1.222 15.14,-9.272 15.377,-19.455 0.238,-10.18 -8.525,-25.098 -22.451,-16.807"
       style="fill:none;stroke:#231f20;stroke-width:0.5;stroke-linecap:round;stroke-linejoin:round;stroke-miterlimit:4;stroke-dasharray:2.8, 1.8;stroke-dashoffset:0;stroke-opacity:1"
       id="path202325" />
    <path
       d="m 557.932,545.086 c -4.434,2.453 -12.484,7.187 -9.642,18.08 2.841,10.892 8.348,16.029 27.379,10.028"
       style="fill:none;stroke:#231f20;stroke-width:0.5;stroke-linecap:round;stroke-linejoin:round;stroke-miterlimit:4;stroke-dasharray:2.8, 1.8;stroke-dashoffset:0;stroke-opacity:1"
       id="path202327" />
    <path
       d="m 543.789,563.166 c 1.184,0 3.789,-4.026 3.551,-12.076 -0.235,-8.05 -0.235,-19.89 -3.551,-19.89 -1.183,0 -1.42,31.966 0,31.966 z"
       style="fill:none;stroke:#231f20;stroke-width:0.5;stroke-linecap:round;stroke-linejoin:round;stroke-miterlimit:4;stroke-dasharray:2.8, 1.8;stroke-dashoffset:0;stroke-opacity:1"
       id="path202329" />
    <path
       d="m 543.789,531.2 c -0.003,-5.967 0.031,-10.093 2.841,-10.419"
       style="fill:none;stroke:#231f20;stroke-width:0.5;stroke-linecap:round;stroke-linejoin:round;stroke-miterlimit:4;stroke-dasharray:2.8, 1.8;stroke-dashoffset:0;stroke-opacity:1"
       id="path202331" />
    <path
       d="m 581.676,434.232 c -6.867,4.026 -23.916,14.565 -30.783,22.617 -6.865,8.052 -7.576,17.049 -8.287,20.364 -0.71,3.315 0.709,8.525 2.604,7.815"
       style="fill:none;stroke:#231f20;stroke-width:0.5;stroke-linecap:round;stroke-linejoin:round;stroke-miterlimit:4;stroke-dasharray:2.8, 1.8;stroke-dashoffset:0;stroke-opacity:1"
       id="path202333" />
    <path
       d="m 547.105,484.316 c 3.551,-2.368 12.077,-10.419 20.837,-16.102 8.761,-5.683 15.39,-7.103 27.23,-5.919 8.919,0.893 15.658,3.507 15.658,3.507"
       style="fill:none;stroke:#231f20;stroke-width:0.5;stroke-linecap:round;stroke-linejoin:round;stroke-miterlimit:4;stroke-dasharray:2.8, 1.8;stroke-dashoffset:0;stroke-opacity:1"
       id="path202335" />
    <path
       d="m 616.958,469.399 c -4.5,0 -19.653,-1.42 -24.865,-0.947 -5.209,0.473 -26.283,1.893 -26.994,11.838 -0.71,9.946 1.896,19.654 8.999,26.284 7.103,6.631 15.865,10.655 24.862,8.761 8.998,-1.894 16.812,-14.206 20.601,-21.073 3.789,-6.868 5.681,-11.366 7.577,-16.576"
       style="fill:none;stroke:#231f20;stroke-width:0.5;stroke-linecap:round;stroke-linejoin:round;stroke-miterlimit:4;stroke-dasharray:2.8, 1.8;stroke-dashoffset:0;stroke-opacity:1"
       id="path202337" />
    <path
       d="m 614.572,502.301 c 4.792,-5.882 10.197,-9.933 20.38,-9.223 10.182,0.71 17.048,7.101 16.575,15.627 -0.474,8.524 -5.683,20.365 -17.049,22.258 -11.364,1.894 -25.099,-3.078 -25.572,-10.656 -0.473,-7.576 2.251,-13.815 5.666,-18.006 z"
       style="fill:none;stroke:#231f20;stroke-width:0.5;stroke-linecap:round;stroke-linejoin:round;stroke-miterlimit:4;stroke-dasharray:2.8, 1.8;stroke-dashoffset:0;stroke-opacity:1"
       id="path202339" />
    <path
       d="m 630.94,493.054 c -3.092,-2.108 -2.39,-14.275 0.167,-12.831"
       style="fill:none;stroke:#231f20;stroke-width:0.5;stroke-linecap:round;stroke-linejoin:round;stroke-miterlimit:4;stroke-dasharray:2.8, 1.8;stroke-dashoffset:0;stroke-opacity:1"
       id="path202341" />
    <path
       d="m 633.997,493.027 c 1.661,0.073 4.385,-7.031 0.893,-10.712"
       style="fill:none;stroke:#231f20;stroke-width:0.5;stroke-linecap:round;stroke-linejoin:round;stroke-miterlimit:4;stroke-dasharray:2.8, 1.8;stroke-dashoffset:0;stroke-opacity:1"
       id="path202343" />
    <path
       d="m 606.741,463.054 c 5.243,-2.417 18.977,-4.783 30.816,3.503"
       style="fill:none;stroke:#231f20;stroke-width:0.5;stroke-linecap:round;stroke-linejoin:round;stroke-miterlimit:4;stroke-dasharray:2.8, 1.8;stroke-dashoffset:0;stroke-opacity:1"
       id="path202345" />
    <path
       d="m 565.958,492.096 c 6.482,2.166 12.64,3.112 20.216,-3.044 7.576,-6.156 10.658,-12.313 5.919,-20.6"
       style="fill:none;stroke:#231f20;stroke-width:0.5;stroke-linecap:round;stroke-linejoin:round;stroke-miterlimit:4;stroke-dasharray:2.8, 1.8;stroke-dashoffset:0;stroke-opacity:1"
       id="path202347" />
    <path
       d="m 543.063,447.766 c 3.567,0.559 11.32,1.741 17.862,0.084"
       style="fill:none;stroke:#231f20;stroke-width:0.5;stroke-linecap:round;stroke-linejoin:round;stroke-miterlimit:4;stroke-dasharray:2.8, 1.8;stroke-dashoffset:0;stroke-opacity:1"
       id="path202349" />
    <path
       d="m 552.66,436.972 c 8.177,-5.46 24.988,-17.537 29.724,-23.455"
       style="fill:none;stroke:#231f20;stroke-width:0.5;stroke-linecap:round;stroke-linejoin:round;stroke-miterlimit:4;stroke-dasharray:2.8, 1.8;stroke-dashoffset:0;stroke-opacity:1"
       id="path202351" />
    <path
       d="m 590.894,427.811 9.919,-5.358"
       style="fill:none;stroke:#231f20;stroke-width:0.5;stroke-linecap:round;stroke-linejoin:round;stroke-miterlimit:4;stroke-dasharray:2.8, 1.8;stroke-dashoffset:0;stroke-opacity:1"
       id="path202353" />
    <path
       d="m 562.257,418.017 c -0.47,-7.342 -1.603,-24.994 -2.102,-31.322"
       style="fill:none;stroke:#231f20;stroke-width:0.5;stroke-linecap:round;stroke-linejoin:round;stroke-miterlimit:4;stroke-dasharray:2.8, 1.8;stroke-dashoffset:0;stroke-opacity:1"
       id="path202355" />
    <path
       d="m 685.862,501.602 c 2.131,-4.498 7.576,-8.289 11.129,-10.656 3.551,-2.366 9.709,-9.709 10.892,-13.497"
       style="fill:none;stroke:#231f20;stroke-width:0.5;stroke-linecap:round;stroke-linejoin:round;stroke-miterlimit:4;stroke-dasharray:2.8, 1.8;stroke-dashoffset:0;stroke-opacity:1"
       id="path202357" />
    <path
       d="m 589.797,403.805 c 2.77,7.819 8.452,16.579 16.03,24.156 7.579,7.577 26.047,23.205 34.334,31.018 8.288,7.814 17.997,17.999 23.68,24.627 5.683,6.63 9.235,11.841 15.627,14.918 6.394,3.078 13.498,7.579 19.891,9.945 6.393,2.367 12.311,4.498 18.232,7.104 5.92,2.604 12.617,4.004 17.049,2.716"
       style="fill:none;stroke:#231f20;stroke-width:0.5;stroke-linecap:round;stroke-linejoin:round;stroke-miterlimit:4;stroke-dasharray:2.8, 1.8;stroke-dashoffset:0;stroke-opacity:1"
       id="path202359" />
    <path
       d="m 596.592,405.703 c 7.341,11.131 22.496,30.073 30.31,37.175 7.814,7.105 23.441,19.18 31.256,27.467 7.813,8.289 19.174,20.868 31.964,25.825"
       style="fill:none;stroke:#231f20;stroke-width:0.5;stroke-linecap:round;stroke-linejoin:round;stroke-miterlimit:4;stroke-dasharray:2.8, 1.8;stroke-dashoffset:0;stroke-opacity:1"
       id="path202361" />
    <path
       d="m 594.907,414.245 c 1.024,1.609 6.97,-0.943 5.458,-3.082"
       style="fill:none;stroke:#231f20;stroke-width:0.5;stroke-linecap:round;stroke-linejoin:round;stroke-miterlimit:4;stroke-dasharray:2.8, 1.8;stroke-dashoffset:0;stroke-opacity:1"
       id="path202363" />
    <path
       d="m 657.92,447.614 c -5.68,-3.501 -17.996,-12.547 -17.286,-14.444 0.71,-1.894 6.633,0.239 16.103,5.684 9.471,5.446 16.339,9.234 15.39,11.129 -0.948,1.893 -9.229,0.7 -14.207,-2.369 z"
       style="fill:none;stroke:#231f20;stroke-width:0.5;stroke-linecap:round;stroke-linejoin:round;stroke-miterlimit:4;stroke-dasharray:2.8, 1.8;stroke-dashoffset:0;stroke-opacity:1"
       id="path202365" />
    <path
       d="m 715.652,645.151 c -1.851,-4.319 -3.981,-20.894 -3.507,-31.313 0.474,-10.419 0.294,-16.471 0.294,-16.471"
       style="fill:none;stroke:#231f20;stroke-width:0.5;stroke-linecap:round;stroke-linejoin:round;stroke-miterlimit:4;stroke-dasharray:2.8, 1.8;stroke-dashoffset:0;stroke-opacity:1"
       id="path202367" />
    <path
       d="m 712.08,617.152 c -6.328,-11.602 -17.458,-34.57 -24.562,-44.515 -7.102,-9.945 -10.772,-23.293 0.587,-22.606"
       style="fill:none;stroke:#231f20;stroke-width:0.5;stroke-linecap:round;stroke-linejoin:round;stroke-miterlimit:4;stroke-dasharray:2.8, 1.8;stroke-dashoffset:0;stroke-opacity:1"
       id="path202369" />
    <path
       d="m 704.078,601.894 c 0.924,1.782 2.857,2.474 2.857,-2.026 0,-4.499 -2.843,-25.335 -7.341,-34.808 -4.498,-9.472 -9.234,-13.97 -14.917,-17.286 -5.683,-3.315 -6.63,-6.628 -12.311,-13.021 -5.684,-6.394 -8.999,-11.366 -3.317,-13.262 5.683,-1.894 20.409,-2.069 27.468,-0.71 10.455,2.014 25.784,5.12 39.058,-2.531"
       style="fill:none;stroke:#231f20;stroke-width:0.5;stroke-linecap:round;stroke-linejoin:round;stroke-miterlimit:4;stroke-dasharray:2.8, 1.8;stroke-dashoffset:0;stroke-opacity:1"
       id="path202371" />
    <path
       d="m 668.71,530.33 c 2.274,2.7 8.258,5.478 17.624,8.448 8.436,2.673 18.708,5.21 24.391,6.392"
       style="fill:none;stroke:#231f20;stroke-width:0.5;stroke-linecap:round;stroke-linejoin:round;stroke-miterlimit:4;stroke-dasharray:2.8, 1.8;stroke-dashoffset:0;stroke-opacity:1"
       id="path202373" />
    <path
       d="m 715.46,551.564 c -3.551,-2.842 -7.521,-6.766 -5.891,-28.719"
       style="fill:none;stroke:#231f20;stroke-width:0.5;stroke-linecap:round;stroke-linejoin:round;stroke-miterlimit:4;stroke-dasharray:2.8, 1.8;stroke-dashoffset:0;stroke-opacity:1"
       id="path202375" />
    <path
       d="m 726.355,643.59 c 0.948,-5.681 0.232,-14.124 -1.661,-18.859 -1.893,-4.736 -4.073,-14.699 -3.127,-22.039"
       style="fill:none;stroke:#231f20;stroke-width:0.5;stroke-linecap:round;stroke-linejoin:round;stroke-miterlimit:4;stroke-dasharray:2.8, 1.8;stroke-dashoffset:0;stroke-opacity:1"
       id="path202377" />
    <path
       d="m 724.067,593.691 c 4.179,3.335 30.773,16.007 43.324,20.743"
       style="fill:none;stroke:#231f20;stroke-width:0.5;stroke-linecap:round;stroke-linejoin:round;stroke-miterlimit:4;stroke-dasharray:2.8, 1.8;stroke-dashoffset:0;stroke-opacity:1"
       id="path202379" />
    <path
       d="m 711.986,588.781 c -2.462,-9.512 -4.816,-20.642 -3.867,-24.431 0.948,-3.788 2.604,-7.813 3.551,-9.234 0.949,-1.421 4.412,-5.95 10.878,-4.974"
       style="fill:none;stroke:#231f20;stroke-width:0.5;stroke-linecap:round;stroke-linejoin:round;stroke-miterlimit:4;stroke-dasharray:2.8, 1.8;stroke-dashoffset:0;stroke-opacity:1"
       id="path202381" />
    <path
       d="m 723.234,585.821 c -1.618,-8.447 -1.855,-15.076 -2.091,-21.708 -0.238,-6.629 -0.291,-13.951 2.841,-15.391 3.285,-1.51 13.734,-6.156 26.284,-4.734 12.548,1.42 17.285,6.864 21.547,13.496 4.263,6.629 7.341,19.65 7.104,25.573 -0.238,5.918 -0.949,12.076 -6.158,21.311 -5.208,9.234 -9.708,20.365 -16.1,23.676 -6.393,3.317 -16.408,9.008 -29.751,11.845"
       style="fill:none;stroke:#231f20;stroke-width:0.5;stroke-linecap:round;stroke-linejoin:round;stroke-miterlimit:4;stroke-dasharray:2.8, 1.8;stroke-dashoffset:0;stroke-opacity:1"
       id="path202383" />
    <path
       d="m 720.908,550.075 c -0.477,-2.301 4.26,-5.142 10.889,-7.984 6.631,-2.841 25.517,-7.461 38.451,5.86"
       style="fill:none;stroke:#231f20;stroke-width:0.5;stroke-linecap:round;stroke-linejoin:round;stroke-miterlimit:4;stroke-dasharray:2.8, 1.8;stroke-dashoffset:0;stroke-opacity:1"
       id="path202385" />
    <path
       d="m 646.086,474.973 c 1.794,2.082 7.114,3.834 9.245,-0.761"
       style="fill:none;stroke:#231f20;stroke-width:0.5;stroke-linecap:round;stroke-linejoin:round;stroke-miterlimit:4;stroke-dasharray:2.8, 1.8;stroke-dashoffset:0;stroke-opacity:1"
       id="path202387" />
    <path
       d="M 206.669,444.837 159.634,395.129"
       style="fill:none;stroke:#231f20;stroke-width:0.5;stroke-linecap:round;stroke-linejoin:round;stroke-miterlimit:4;stroke-dasharray:2.8, 1.8;stroke-dashoffset:0;stroke-opacity:1"
       id="path202389" />
    <path
       d="M 171.492,515.369 100.756,498.79"
       style="fill:none;stroke:#231f20;stroke-width:0.5;stroke-linecap:round;stroke-linejoin:round;stroke-miterlimit:4;stroke-dasharray:2.8, 1.8;stroke-dashoffset:0;stroke-opacity:1"
       id="path202391" />
    <path
       d="m 166.514,547.056 -65.505,-9.695"
       style="fill:none;stroke:#231f20;stroke-width:0.5;stroke-linecap:round;stroke-linejoin:round;stroke-miterlimit:4;stroke-dasharray:2.8, 1.8;stroke-dashoffset:0;stroke-opacity:1"
       id="path202393" />
    <path
       d="M 163.653,575.253 90.0168,568.825"
       style="fill:none;stroke:#231f20;stroke-width:0.5;stroke-linecap:round;stroke-linejoin:round;stroke-miterlimit:4;stroke-dasharray:2.8, 1.8;stroke-dashoffset:0;stroke-opacity:1"
       id="path202395" />
    <path
       d="M 162.374,601.768 83.8711,598.707"
       style="fill:none;stroke:#231f20;stroke-width:0.5;stroke-linecap:round;stroke-linejoin:round;stroke-miterlimit:4;stroke-dasharray:2.8, 1.8;stroke-dashoffset:0;stroke-opacity:1"
       id="path202397" />
    <path
       d="m 163.831,630.875 -82.5955,9.01"
       style="fill:none;stroke:#231f20;stroke-width:0.5;stroke-linecap:round;stroke-linejoin:round;stroke-miterlimit:4;stroke-dasharray:2.8, 1.8;stroke-dashoffset:0;stroke-opacity:1"
       id="path202399" />
    <path
       d="m 186.348,693.104 -81.743,43.962"
       style="fill:none;stroke:#231f20;stroke-width:0.5;stroke-linecap:round;stroke-linejoin:round;stroke-miterlimit:4;stroke-dasharray:2.8, 1.8;stroke-dashoffset:0;stroke-opacity:1"
       id="path202401" />
    <path
       d="m 198.225,713.435 -73.676,54.412"
       style="fill:none;stroke:#231f20;stroke-width:0.5;stroke-linecap:round;stroke-linejoin:round;stroke-miterlimit:4;stroke-dasharray:2.8, 1.8;stroke-dashoffset:0;stroke-opacity:1"
       id="path202403" />
    <path
       d="m 257.975,766.118 -37.498,82.1"
       style="fill:none;stroke:#231f20;stroke-width:0.5;stroke-linecap:round;stroke-linejoin:round;stroke-miterlimit:4;stroke-dasharray:2.8, 1.8;stroke-dashoffset:0;stroke-opacity:1"
       id="path202405" />
    <path
       d="m 313.215,791.033 -21.544,85.212"
       style="fill:none;stroke:#231f20;stroke-width:0.5;stroke-linecap:round;stroke-linejoin:round;stroke-miterlimit:4;stroke-dasharray:2.8, 1.8;stroke-dashoffset:0;stroke-opacity:1"
       id="path202407" />
    <path
       d="m 385.344,811.686 -17.467,82.375"
       style="fill:none;stroke:#231f20;stroke-width:0.5;stroke-linecap:round;stroke-linejoin:round;stroke-miterlimit:4;stroke-dasharray:2.8, 1.8;stroke-dashoffset:0;stroke-opacity:1"
       id="path202409" />
    <path
       d="m 414.267,819.605 -7.597,79.321"
       style="fill:none;stroke:#231f20;stroke-width:0.5;stroke-linecap:round;stroke-linejoin:round;stroke-miterlimit:4;stroke-dasharray:2.8, 1.8;stroke-dashoffset:0;stroke-opacity:1"
       id="path202411" />
    <path
       d="m 444.105,827.535 6.624,72.7"
       style="fill:none;stroke:#231f20;stroke-width:0.5;stroke-linecap:round;stroke-linejoin:round;stroke-miterlimit:4;stroke-dasharray:2.8, 1.8;stroke-dashoffset:0;stroke-opacity:1"
       id="path202413" />
    <path
       d="m 449.391,825.814 70.858,55.71"
       style="fill:none;stroke:#231f20;stroke-width:0.5;stroke-linecap:round;stroke-linejoin:round;stroke-miterlimit:4;stroke-dasharray:2.8, 1.8;stroke-dashoffset:0;stroke-opacity:1"
       id="path202415" />
    <path
       d="m 540.002,785.626 -86.666,8.17"
       style="fill:none;stroke:#231f20;stroke-width:0.5;stroke-linecap:round;stroke-linejoin:round;stroke-miterlimit:4;stroke-dasharray:2.8, 1.8;stroke-dashoffset:0;stroke-opacity:1"
       id="path202417" />
    <path
       d="M 447.903,776.143 486.99,732.66"
       style="fill:none;stroke:#231f20;stroke-width:0.5;stroke-linecap:round;stroke-linejoin:round;stroke-miterlimit:4;stroke-dasharray:2.8, 1.8;stroke-dashoffset:0;stroke-opacity:1"
       id="path202419" />
    <path
       d="m 419.035,754.534 c 4.705,-0.755 7.546,-3.36 11.334,-10.463 3.789,-7.105 4.017,-14.655 3.785,-18.457"
       style="fill:none;stroke:#231f20;stroke-width:0.5;stroke-linecap:round;stroke-linejoin:round;stroke-miterlimit:4;stroke-dasharray:2.8, 1.8;stroke-dashoffset:0;stroke-opacity:1"
       id="path202421" />
    <path
       d="m 349.151,745.728 c 0.362,-3.726 -6.394,-0.947 -11.129,0.711 -4.735,1.657 -22.02,4.262 -25.809,5.21 -3.789,0.946 -10.477,1.621 -14.681,-0.948 -5.18,-3.167 -13.26,-4.972 -18.944,-7.577 -5.681,-2.605 -25.097,-14.444 -35.99,-25.1 -10.892,-10.655 -25.573,-30.31 -27.941,-36.228 -2.368,-5.92 -9.708,-21.548 -14.207,-29.835 -4.499,-8.288 -9.237,-21.785 -10.893,-31.254 -1.656,-9.473 -7.812,-26.049 -8.051,-33.388 -0.236,-7.342 -0.71,-34.099 6.158,-56.829 6.866,-22.732 18.468,-43.096 24.151,-51.383 0,0 -3.552,0.475 -6.155,1.421 0,0 -11.367,16.809 -15.867,28.177 -4.498,11.366 -9.709,29.125 -11.602,48.069 -1.894,18.942 -1.658,33.386 2.842,47.594 4.5,14.207 4.501,23.202 8.288,34.097 3.788,10.892 13.733,33.623 25.336,50.908 11.603,17.286 22.731,35.044 44.989,48.305 20.033,11.935 40.965,22.021 53.277,20.837 12.313,-1.183 35.518,-5.446 36.228,-12.787"
       style="fill:#b2b1b1;fill-opacity:1;fill-rule:nonzero;stroke:none;stroke-width:0.1"
       id="path202423" />
    <path
       d="m 349.151,745.728 c 0.362,-3.726 -6.394,-0.947 -11.129,0.711 -4.735,1.657 -22.02,4.262 -25.809,5.21 -3.789,0.946 -10.477,1.621 -14.681,-0.948 -5.18,-3.167 -13.26,-4.972 -18.944,-7.577 -5.681,-2.605 -25.097,-14.444 -35.99,-25.1 -10.892,-10.655 -25.573,-30.31 -27.941,-36.228 -2.368,-5.92 -9.708,-21.548 -14.207,-29.835 -4.499,-8.288 -9.237,-21.785 -10.893,-31.254 -1.656,-9.473 -7.812,-26.049 -8.051,-33.388 -0.236,-7.342 -0.71,-34.099 6.158,-56.829 6.866,-22.732 18.468,-43.096 24.151,-51.383 0,0 -3.552,0.475 -6.155,1.421 0,0 -11.367,16.809 -15.867,28.177 -4.498,11.366 -9.709,29.125 -11.602,48.069 -1.894,18.942 -1.658,33.386 2.842,47.594 4.5,14.207 4.501,23.202 8.288,34.097 3.788,10.892 13.733,33.623 25.336,50.908 11.603,17.286 22.731,35.044 44.989,48.305 20.033,11.935 40.965,22.021 53.277,20.837 12.313,-1.183 35.518,-5.446 36.228,-12.787 z"
       style="fill:none;stroke:#231f20;stroke-width:0.5;stroke-linecap:round;stroke-linejoin:round;stroke-miterlimit:4;stroke-dasharray:2.8, 1.8;stroke-dashoffset:0;stroke-opacity:1"
       id="path202425" />
    <path
       d="m 320.038,771.004 c 7.328,-2.071 33.337,-15.913 29.094,-25.922"
       style="fill:none;stroke:#231f20;stroke-width:0.5;stroke-linecap:round;stroke-linejoin:round;stroke-miterlimit:4;stroke-dasharray:2.8, 1.8;stroke-dashoffset:0;stroke-opacity:1"
       id="path202427" />
    <path
       d="m 433.891,732.732 c -10.39,-1.684 -33.122,-3.816 -46.853,-3.816 -13.734,0 -21.784,1.184 -27.941,5.446 -6.158,4.262 -13.015,9.323 -15.988,10.324"
       style="fill:none;stroke:#231f20;stroke-width:0.5;stroke-linecap:round;stroke-linejoin:round;stroke-miterlimit:4;stroke-dasharray:2.8, 1.8;stroke-dashoffset:0;stroke-opacity:1"
       id="path202429" />
    <path
       d="m 534.792,687.006 c -0.473,5.208 0.473,12.549 0.711,18.469 0.236,5.919 -4.262,13.971 -7.579,17.759 -3.314,3.788 -11.838,7.102 -22.02,6.392 -10.183,-0.71 -22.257,-2.84 -31.729,-2.84 -9.472,0 -25.338,-1.896 -33.861,-4.5 -8.524,-2.604 -28.178,-11.128 -34.571,-14.68 -6.393,-3.551 -10.893,-6.393 -11.366,-11.129 -0.472,-4.736 -0.472,-8.524 -1.893,-9.471"
       style="fill:none;stroke:#231f20;stroke-width:0.5;stroke-linecap:round;stroke-linejoin:round;stroke-miterlimit:4;stroke-dasharray:2.8, 1.8;stroke-dashoffset:0;stroke-opacity:1"
       id="path202431" />
    <path
       d="m 495.639,635.031 c 3.161,-4.145 6.95,-11.248 5.529,-13.615 -1.42,-2.368 -10.513,0.042 -15.439,2.862"
       style="fill:none;stroke:#231f20;stroke-width:0.5;stroke-linecap:round;stroke-linejoin:round;stroke-miterlimit:4;stroke-dasharray:2.8, 1.8;stroke-dashoffset:0;stroke-opacity:1"
       id="path202433" />
    <path
       d="m 211.815,479.107 c 8.524,-13.852 23.087,-35.873 50.08,-41.557 26.994,-5.682 41.557,-1.774 64.643,-9.589 23.087,-7.814 33.387,-19.179 31.966,-33.386 -1.42,-14.207 -30.19,-17.405 -55.762,-15.273 -25.574,2.13 -72.457,8.525 -79.916,9.235 -7.458,0.71 -22.732,2.841 -32.676,4.616 -9.945,1.776 -24.716,5.171 -22.18,10.787"
       style="fill:none;stroke:#231f20;stroke-width:0.5;stroke-linecap:round;stroke-linejoin:round;stroke-miterlimit:4;stroke-dasharray:2.8, 1.8;stroke-dashoffset:0;stroke-opacity:1"
       id="path202435" />
    <path
       d="m 179.555,416.182 c 1.371,1.448 8.819,2.9 16.987,1.48 8.169,-1.422 32.073,-5.536 46.884,-8.88 15.075,-3.405 20.988,-5.113 31.256,-8.525 13.432,-4.463 19.535,-6.866 23.85,-3.223"
       style="fill:none;stroke:#231f20;stroke-width:0.5;stroke-linecap:round;stroke-linejoin:round;stroke-miterlimit:4;stroke-dasharray:2.8, 1.8;stroke-dashoffset:0;stroke-opacity:1"
       id="path202437" />
    <path
       d="m 369.973,394.352 c -11.469,0.223 -60.602,5.431 -68.18,3.537"
       style="fill:none;stroke:#231f20;stroke-width:0.5;stroke-linecap:round;stroke-linejoin:round;stroke-miterlimit:4;stroke-dasharray:2.8, 1.8;stroke-dashoffset:0;stroke-opacity:1"
       id="path202439" />
    <path
       d="m 343.87,370.584 c -7.386,4.1 -44.94,21.864 -46.302,25.688"
       style="fill:none;stroke:#231f20;stroke-width:0.5;stroke-linecap:round;stroke-linejoin:round;stroke-miterlimit:4;stroke-dasharray:2.8, 1.8;stroke-dashoffset:0;stroke-opacity:1"
       id="path202441" />
    <path
       d="m 258.362,480.897 c -6.411,1.051 -25.946,1.763 -32.339,14.549 0,0 2.13,-17.76 -14.208,-16.339"
       style="fill:none;stroke:#231f20;stroke-width:0.5;stroke-linecap:round;stroke-linejoin:round;stroke-miterlimit:4;stroke-dasharray:2.8, 1.8;stroke-dashoffset:0;stroke-opacity:1"
       id="path202443" />
    <path
       d="m 205.66,480.528 c -4.5,1.775 -12.256,5.131 -20.277,11.445"
       style="fill:none;stroke:#231f20;stroke-width:0.5;stroke-linecap:round;stroke-linejoin:round;stroke-miterlimit:4;stroke-dasharray:2.8, 1.8;stroke-dashoffset:0;stroke-opacity:1"
       id="path202445" />
    <path
       d="m 344.96,714.374 c -0.307,8.032 -7.412,16.554 -25.17,17.621 -17.759,1.065 -50.79,-12.787 -72.812,-39.781 -22.021,-26.994 -36.829,-69.589 -39.425,-95.543 -2.842,-28.415 -4.617,-61.801 18.47,-101.225"
       style="fill:none;stroke:#231f20;stroke-width:0.5;stroke-linecap:round;stroke-linejoin:round;stroke-miterlimit:4;stroke-dasharray:2.8, 1.8;stroke-dashoffset:0;stroke-opacity:1"
       id="path202447" />
    <path
       d="m 332.22,699.319 c -9.649,0 -45.107,-8.88 -63.22,-26.994 -18.115,-18.114 -27.35,-50.435 -30.902,-64.287 -3.551,-13.853 -9.945,-34.809 -3.551,-56.12 6.393,-21.31 9.235,-30.189 23.086,-47.593 13.853,-17.404 18.825,-24.507 41.911,-30.545 23.087,-6.038 50.79,-14.563 59.315,-21.667 8.524,-7.103 18.548,-18.026 20.64,-5.46 l -12.002,21.694 c 0,0 1.485,-8.101 2.373,-11.971 1.303,-5.683 -0.406,-6.124 -8.525,-0.711 -10.299,6.866 -30.545,14.562 -42.265,18.115 -11.721,3.552 -30.901,6.038 -45.109,19.534 -14.206,13.497 -31.966,36.939 -35.873,60.381 -3.907,23.441 0,34.097 5.328,53.987 5.327,19.891 6.038,28.77 20.245,47.239 14.207,18.469 22.376,25.217 39.781,31.966 17.403,6.748 39.871,9.447 41.556,3.552 1.42,-4.973 -24.153,-28.77 -31.257,-34.453 -7.103,-5.683 -28.414,-24.152 -33.742,-55.408 -5.327,-31.255 -2.485,-47.239 15.274,-71.391 17.759,-24.152 20.245,-24.507 28.058,-30.545 7.815,-6.038 24.745,-19.181 28.652,-21.666 3.908,-2.486 14.902,-13.022 14.081,-5.979 l -1.202,2.249 c 0,0 -9.919,1.599 -13.826,7.637 -3.908,6.038 -10.656,13.853 -21.312,19.535 -10.654,5.682 -14.917,9.235 -27.703,26.994 -12.786,17.758 -20.739,26.248 -21.666,47.949 -0.928,21.701 6.038,38.359 11.721,49.013 5.682,10.657 15.983,21.313 24.507,26.996 8.525,5.681 17.049,16.338 22.021,22.02 4.972,5.683 6.912,10.282 11.72,12.786 5.684,2.96 12.471,8.723 3.316,11.011 -6.629,1.657 -11.128,2.132 -21.43,2.132"
       style="fill:#b2b1b1;fill-opacity:1;fill-rule:nonzero;stroke:none;stroke-width:0.1"
       id="path202449" />
    <path
       d="m 332.22,699.319 c -9.649,0 -45.107,-8.88 -63.22,-26.994 -18.115,-18.114 -27.35,-50.435 -30.902,-64.287 -3.551,-13.853 -9.945,-34.809 -3.551,-56.12 6.393,-21.31 9.235,-30.189 23.086,-47.593 13.853,-17.404 18.825,-24.507 41.911,-30.545 23.087,-6.038 50.79,-14.563 59.315,-21.667 8.524,-7.103 18.548,-18.026 20.64,-5.46 l -12.002,21.694 c 0,0 1.485,-8.101 2.373,-11.971 1.303,-5.683 -0.406,-6.124 -8.525,-0.711 -10.299,6.866 -30.545,14.562 -42.265,18.115 -11.721,3.552 -30.901,6.038 -45.109,19.534 -14.206,13.497 -31.966,36.939 -35.873,60.381 -3.907,23.441 0,34.097 5.328,53.987 5.327,19.891 6.038,28.77 20.245,47.239 14.207,18.469 22.376,25.217 39.781,31.966 17.403,6.748 39.871,9.447 41.556,3.552 1.42,-4.973 -24.153,-28.77 -31.257,-34.453 -7.103,-5.683 -28.414,-24.152 -33.742,-55.408 -5.327,-31.255 -2.485,-47.239 15.274,-71.391 17.759,-24.152 20.245,-24.507 28.058,-30.545 7.815,-6.038 24.745,-19.181 28.652,-21.666 3.908,-2.486 14.902,-13.022 14.081,-5.979 l -1.202,2.249 c 0,0 -9.919,1.599 -13.826,7.637 -3.908,6.038 -10.656,13.853 -21.312,19.535 -10.654,5.682 -14.917,9.235 -27.703,26.994 -12.786,17.758 -20.739,26.248 -21.666,47.949 -0.928,21.701 6.038,38.359 11.721,49.013 5.682,10.657 15.983,21.313 24.507,26.996 8.525,5.681 17.049,16.338 22.021,22.02 4.972,5.683 6.912,10.282 11.72,12.786 5.684,2.96 12.471,8.723 3.316,11.011 -6.629,1.657 -11.128,2.132 -21.43,2.132 z"
       style="fill:none;stroke:#231f20;stroke-width:0.5;stroke-linecap:round;stroke-linejoin:round;stroke-miterlimit:4;stroke-dasharray:2.8, 1.8;stroke-dashoffset:0;stroke-opacity:1"
       id="path202451" />
    <path
       d="m 287.286,623.22 c 3.38,9.798 8.825,19.742 16.166,27.083 7.34,7.341 14.918,14.917 12.786,17.996 -2.131,3.078 -8.272,1.14 -10.877,-0.756"
       style="fill:none;stroke:#231f20;stroke-width:0.5;stroke-linecap:round;stroke-linejoin:round;stroke-miterlimit:4;stroke-dasharray:2.8, 1.8;stroke-dashoffset:0;stroke-opacity:1"
       id="path202453" />
    <path
       d="m 304.635,669.009 c -1.544,1.543 -5.444,-1.183 -8.05,-2.842 -2.605,-1.657 -15.865,-10.181 -20.127,-19.888 -4.262,-9.71 -14.916,-35.519 -18.232,-64.406 -3.316,-28.889 -2.368,-48.068 -1.895,-50.91 0,0 4.499,-10.657 8.051,-11.129 3.551,-0.473 1.659,8.761 1.42,19.416 -0.237,10.656 -0.472,25.573 2.131,47.832 2.605,22.258 4.5,31.018 11.366,45.462 6.867,14.445 8.762,18.944 16.338,24.627 7.577,5.683 11.455,9.381 8.998,11.838"
       style="fill:#b2b1b1;fill-opacity:1;fill-rule:nonzero;stroke:none;stroke-width:0.1"
       id="path202455" />
    <path
       d="m 304.635,669.009 c -1.544,1.543 -5.444,-1.183 -8.05,-2.842 -2.605,-1.657 -15.865,-10.181 -20.127,-19.888 -4.262,-9.71 -14.916,-35.519 -18.232,-64.406 -3.316,-28.889 -2.368,-48.068 -1.895,-50.91 0,0 4.499,-10.657 8.051,-11.129 3.551,-0.473 1.659,8.761 1.42,19.416 -0.237,10.656 -0.472,25.573 2.131,47.832 2.605,22.258 4.5,31.018 11.366,45.462 6.867,14.445 8.762,18.944 16.338,24.627 7.577,5.683 11.455,9.381 8.998,11.838 z"
       style="fill:none;stroke:#231f20;stroke-width:0.5;stroke-linecap:round;stroke-linejoin:round;stroke-miterlimit:4;stroke-dasharray:2.8, 1.8;stroke-dashoffset:0;stroke-opacity:1"
       id="path202457" />
    <path
       d="m 300.954,668.794 c -3.896,-0.495 -11.946,-1.678 -16.445,-5.94 -4.5,-4.263 -23.205,-31.968 -25.573,-37.176 -2.368,-5.21 -6.63,-16.195 -10.183,-28.178 -3.101,-10.464 -4.026,-48.068 7.578,-66.537"
       style="fill:none;stroke:#231f20;stroke-width:0.5;stroke-linecap:round;stroke-linejoin:round;stroke-miterlimit:4;stroke-dasharray:2.8, 1.8;stroke-dashoffset:0;stroke-opacity:1"
       id="path202459" />
    <path
       d="m 279.385,651.186 c -5.296,-5.854 -15.24,-22.193 -19.265,-34.979 -4.025,-12.788 -7.814,-32.915 -7.814,-45.464 0,-12.549 0.984,-24.861 3.57,-31.729"
       style="fill:none;stroke:#231f20;stroke-width:0.5;stroke-linecap:round;stroke-linejoin:round;stroke-miterlimit:4;stroke-dasharray:2.8, 1.8;stroke-dashoffset:0;stroke-opacity:1"
       id="path202461" />
    <path
       d="m 278.66,563.932 c 2.06,-12.842 4.902,-23.261 6.322,-27.759 1.421,-4.5 2.45,-18.935 -19.731,-16.216"
       style="fill:none;stroke:#231f20;stroke-width:0.5;stroke-linecap:round;stroke-linejoin:round;stroke-miterlimit:4;stroke-dasharray:2.8, 1.8;stroke-dashoffset:0;stroke-opacity:1"
       id="path202463" />
    <path
       d="m 376.36,658.599 c -1.935,-4.789 -12.055,-16.109 -17.737,-15.399 -5.684,0.711 -15.865,1.421 -31.242,-6.653"
       style="fill:none;stroke:#231f20;stroke-width:0.5;stroke-linecap:round;stroke-linejoin:round;stroke-miterlimit:4;stroke-dasharray:2.8, 1.8;stroke-dashoffset:0;stroke-opacity:1"
       id="path202465" />
    <path
       d="m 514.889,553.022 c -4.961,-1.222 -15.141,-9.272 -15.379,-19.455 -0.237,-10.18 8.526,-25.098 22.453,-16.807"
       style="fill:none;stroke:#231f20;stroke-width:0.5;stroke-linecap:round;stroke-linejoin:round;stroke-miterlimit:4;stroke-dasharray:2.8, 1.8;stroke-dashoffset:0;stroke-opacity:1"
       id="path202467" />
    <path
       d="m 522.07,545.086 c 4.434,2.453 12.484,7.187 9.642,18.08 -2.841,10.892 -8.348,16.029 -27.379,10.028"
       style="fill:none;stroke:#231f20;stroke-width:0.5;stroke-linecap:round;stroke-linejoin:round;stroke-miterlimit:4;stroke-dasharray:2.8, 1.8;stroke-dashoffset:0;stroke-opacity:1"
       id="path202469" />
    <path
       d="m 536.213,563.166 c -1.184,0 -3.789,-4.026 -3.551,-12.076 0.235,-8.05 0.235,-19.89 3.551,-19.89 1.182,0 1.42,31.966 0,31.966 z"
       style="fill:none;stroke:#231f20;stroke-width:0.5;stroke-linecap:round;stroke-linejoin:round;stroke-miterlimit:4;stroke-dasharray:2.8, 1.8;stroke-dashoffset:0;stroke-opacity:1"
       id="path202471" />
    <path
       d="m 536.213,531.2 c 0.003,-5.967 -0.031,-10.093 -2.841,-10.419"
       style="fill:none;stroke:#231f20;stroke-width:0.5;stroke-linecap:round;stroke-linejoin:round;stroke-miterlimit:4;stroke-dasharray:2.8, 1.8;stroke-dashoffset:0;stroke-opacity:1"
       id="path202473" />
    <path
       d="m 535.594,511.075 c 0.889,5.433 3.461,8.759 4.408,8.759 0.945,0 3.517,-3.326 4.406,-8.759"
       style="fill:none;stroke:#231f20;stroke-width:0.5;stroke-linecap:round;stroke-linejoin:round;stroke-miterlimit:4;stroke-dasharray:2.8, 1.8;stroke-dashoffset:0;stroke-opacity:1"
       id="path202475" />
    <path
       d="m 498.326,434.232 c 6.866,4.026 23.917,14.565 30.785,22.617 6.863,8.052 7.574,17.049 8.284,20.364 0.71,3.315 -0.708,8.525 -2.603,7.815"
       style="fill:none;stroke:#231f20;stroke-width:0.5;stroke-linecap:round;stroke-linejoin:round;stroke-miterlimit:4;stroke-dasharray:2.8, 1.8;stroke-dashoffset:0;stroke-opacity:1"
       id="path202477" />
    <path
       d="m 532.897,484.316 c -3.552,-2.368 -12.077,-10.419 -20.837,-16.102 -8.761,-5.683 -15.391,-7.103 -27.23,-5.919 -8.919,0.893 -15.656,3.507 -15.656,3.507"
       style="fill:none;stroke:#231f20;stroke-width:0.5;stroke-linecap:round;stroke-linejoin:round;stroke-miterlimit:4;stroke-dasharray:2.8, 1.8;stroke-dashoffset:0;stroke-opacity:1"
       id="path202479" />
    <path
       d="m 463.044,469.399 c 4.5,0 19.653,-1.42 24.864,-0.947 5.21,0.473 26.284,1.893 26.994,11.838 0.71,9.946 -1.896,19.654 -8.998,26.284 -7.104,6.631 -15.865,10.655 -24.862,8.761 -8.999,-1.894 -16.813,-14.206 -20.601,-21.073 -3.789,-6.868 -5.682,-11.366 -7.577,-16.576"
       style="fill:none;stroke:#231f20;stroke-width:0.5;stroke-linecap:round;stroke-linejoin:round;stroke-miterlimit:4;stroke-dasharray:2.8, 1.8;stroke-dashoffset:0;stroke-opacity:1"
       id="path202481" />
    <path
       d="m 465.43,502.301 c -4.79,-5.882 -10.197,-9.933 -20.38,-9.223 -10.182,0.71 -17.049,7.101 -16.575,15.627 0.473,8.524 5.683,20.365 17.049,22.258 11.364,1.894 25.099,-3.078 25.572,-10.656 0.473,-7.576 -2.252,-13.815 -5.666,-18.006 z"
       style="fill:none;stroke:#231f20;stroke-width:0.5;stroke-linecap:round;stroke-linejoin:round;stroke-miterlimit:4;stroke-dasharray:2.8, 1.8;stroke-dashoffset:0;stroke-opacity:1"
       id="path202483" />
    <path
       d="m 449.062,493.054 c 3.092,-2.108 2.39,-14.275 -0.168,-12.831"
       style="fill:none;stroke:#231f20;stroke-width:0.5;stroke-linecap:round;stroke-linejoin:round;stroke-miterlimit:4;stroke-dasharray:2.8, 1.8;stroke-dashoffset:0;stroke-opacity:1"
       id="path202485" />
    <path
       d="m 446.005,493.027 c -1.661,0.073 -4.385,-7.031 -0.893,-10.712"
       style="fill:none;stroke:#231f20;stroke-width:0.5;stroke-linecap:round;stroke-linejoin:round;stroke-miterlimit:4;stroke-dasharray:2.8, 1.8;stroke-dashoffset:0;stroke-opacity:1"
       id="path202487" />
    <path
       d="m 473.261,463.054 c -5.243,-2.417 -18.977,-4.783 -30.817,3.503"
       style="fill:none;stroke:#231f20;stroke-width:0.5;stroke-linecap:round;stroke-linejoin:round;stroke-miterlimit:4;stroke-dasharray:2.8, 1.8;stroke-dashoffset:0;stroke-opacity:1"
       id="path202489" />
    <path
       d="m 514.044,492.096 c -6.482,2.166 -12.64,3.112 -20.216,-3.044 -7.577,-6.156 -10.658,-12.313 -5.92,-20.6"
       style="fill:none;stroke:#231f20;stroke-width:0.5;stroke-linecap:round;stroke-linejoin:round;stroke-miterlimit:4;stroke-dasharray:2.8, 1.8;stroke-dashoffset:0;stroke-opacity:1"
       id="path202491" />
    <path
       d="m 525.432,421.587 c 0,0 1.309,11.109 2.257,17.977 0.946,6.867 8.76,8.524 12.313,8.524 3.551,0 11.364,-1.657 12.311,-8.524 0.949,-6.868 2.258,-17.977 2.258,-17.977"
       style="fill:none;stroke:#231f20;stroke-width:0.5;stroke-linecap:round;stroke-linejoin:round;stroke-miterlimit:4;stroke-dasharray:2.8, 1.8;stroke-dashoffset:0;stroke-opacity:1"
       id="path202493" />
    <path
       d="m 536.938,447.766 c -3.566,0.559 -11.319,1.741 -17.862,0.084"
       style="fill:none;stroke:#231f20;stroke-width:0.5;stroke-linecap:round;stroke-linejoin:round;stroke-miterlimit:4;stroke-dasharray:2.8, 1.8;stroke-dashoffset:0;stroke-opacity:1"
       id="path202495" />
    <path
       d="m 527.342,436.972 c -8.177,-5.46 -24.988,-17.537 -29.724,-23.455"
       style="fill:none;stroke:#231f20;stroke-width:0.5;stroke-linecap:round;stroke-linejoin:round;stroke-miterlimit:4;stroke-dasharray:2.8, 1.8;stroke-dashoffset:0;stroke-opacity:1"
       id="path202497" />
    <path
       d="m 489.108,427.811 -9.919,-5.358"
       style="fill:none;stroke:#231f20;stroke-width:0.5;stroke-linecap:round;stroke-linejoin:round;stroke-miterlimit:4;stroke-dasharray:2.8, 1.8;stroke-dashoffset:0;stroke-opacity:1"
       id="path202499" />
    <path
       d="m 504.484,404.993 c 1.893,5.918 5.682,8.524 13.259,13.024 7.578,4.499 16.811,6.393 22.259,6.393 5.446,0 14.679,-1.894 22.255,-6.393 7.579,-4.5 11.367,-7.106 13.262,-13.024"
       style="fill:none;stroke:#231f20;stroke-width:0.5;stroke-linecap:round;stroke-linejoin:round;stroke-miterlimit:4;stroke-dasharray:2.8, 1.8;stroke-dashoffset:0;stroke-opacity:1"
       id="path202501" />
    <path
       d="m 517.743,418.017 c 0.473,-7.342 1.605,-24.994 2.106,-31.322"
       style="fill:none;stroke:#231f20;stroke-width:0.5;stroke-linecap:round;stroke-linejoin:round;stroke-miterlimit:4;stroke-dasharray:2.8, 1.8;stroke-dashoffset:0;stroke-opacity:1"
       id="path202503" />
    <path
       d="m 518.807,401.655 c 3.432,-0.024 17.642,0.022 21.195,0.022 3.551,0 17.761,-0.046 21.193,-0.022"
       style="fill:none;stroke:#231f20;stroke-width:0.5;stroke-linecap:round;stroke-linejoin:round;stroke-miterlimit:4;stroke-dasharray:2.8, 1.8;stroke-dashoffset:0;stroke-opacity:1"
       id="path202505" />
    <path
       d="m 394.14,501.602 c -2.131,-4.498 -7.576,-8.289 -11.129,-10.656 -3.551,-2.366 -9.708,-9.709 -10.892,-13.497"
       style="fill:none;stroke:#231f20;stroke-width:0.5;stroke-linecap:round;stroke-linejoin:round;stroke-miterlimit:4;stroke-dasharray:2.8, 1.8;stroke-dashoffset:0;stroke-opacity:1"
       id="path202507" />
    <path
       d="m 490.205,403.805 c -2.77,7.819 -8.452,16.579 -16.03,24.156 -7.579,7.577 -26.048,23.205 -34.334,31.018 -8.288,7.814 -17.997,17.999 -23.68,24.627 -5.683,6.63 -9.235,11.841 -15.627,14.918 -6.394,3.078 -13.496,7.579 -19.891,9.945 -6.393,2.367 -12.311,4.498 -18.231,7.104 -5.921,2.604 -12.618,4.004 -17.05,2.716"
       style="fill:none;stroke:#231f20;stroke-width:0.5;stroke-linecap:round;stroke-linejoin:round;stroke-miterlimit:4;stroke-dasharray:2.8, 1.8;stroke-dashoffset:0;stroke-opacity:1"
       id="path202509" />
    <path
       d="m 483.41,405.703 c -7.341,11.131 -22.496,30.073 -30.31,37.175 -7.814,7.105 -23.441,19.18 -31.256,27.467 -7.813,8.289 -19.174,20.868 -31.963,25.825"
       style="fill:none;stroke:#231f20;stroke-width:0.5;stroke-linecap:round;stroke-linejoin:round;stroke-miterlimit:4;stroke-dasharray:2.8, 1.8;stroke-dashoffset:0;stroke-opacity:1"
       id="path202511" />
    <path
       d="m 485.095,414.245 c -1.024,1.609 -6.97,-0.943 -5.459,-3.082"
       style="fill:none;stroke:#231f20;stroke-width:0.5;stroke-linecap:round;stroke-linejoin:round;stroke-miterlimit:4;stroke-dasharray:2.8, 1.8;stroke-dashoffset:0;stroke-opacity:1"
       id="path202513" />
    <path
       d="m 422.082,447.614 c 5.68,-3.501 17.996,-12.547 17.286,-14.444 -0.71,-1.894 -6.633,0.239 -16.103,5.684 -9.471,5.446 -16.339,9.234 -15.39,11.129 0.948,1.893 9.228,0.7 14.207,-2.369 z"
       style="fill:none;stroke:#231f20;stroke-width:0.5;stroke-linecap:round;stroke-linejoin:round;stroke-miterlimit:4;stroke-dasharray:2.8, 1.8;stroke-dashoffset:0;stroke-opacity:1"
       id="path202515" />
    <path
       d="m 364.35,645.151 c 1.85,-4.319 3.981,-20.894 3.507,-31.313 -0.474,-10.419 -0.294,-16.471 -0.294,-16.471"
       style="fill:none;stroke:#231f20;stroke-width:0.5;stroke-linecap:round;stroke-linejoin:round;stroke-miterlimit:4;stroke-dasharray:2.8, 1.8;stroke-dashoffset:0;stroke-opacity:1"
       id="path202517" />
    <path
       d="m 367.922,617.152 c 6.328,-11.602 17.458,-34.57 24.562,-44.515 7.102,-9.945 10.772,-23.293 -0.587,-22.606"
       style="fill:none;stroke:#231f20;stroke-width:0.5;stroke-linecap:round;stroke-linejoin:round;stroke-miterlimit:4;stroke-dasharray:2.8, 1.8;stroke-dashoffset:0;stroke-opacity:1"
       id="path202519" />
    <path
       d="m 375.924,601.894 c -0.924,1.782 -2.857,2.474 -2.857,-2.026 0,-4.499 2.843,-25.335 7.341,-34.808 4.498,-9.472 9.234,-13.97 14.917,-17.286 5.683,-3.315 6.63,-6.628 12.311,-13.021 5.684,-6.394 8.999,-11.366 3.317,-13.262 -5.683,-1.894 -20.41,-2.069 -27.468,-0.71 -10.455,2.014 -25.785,5.12 -39.058,-2.531"
       style="fill:none;stroke:#231f20;stroke-width:0.5;stroke-linecap:round;stroke-linejoin:round;stroke-miterlimit:4;stroke-dasharray:2.8, 1.8;stroke-dashoffset:0;stroke-opacity:1"
       id="path202521" />
    <path
       d="m 411.292,530.33 c -2.274,2.7 -8.258,5.478 -17.626,8.448 -8.432,2.673 -18.706,5.21 -24.388,6.392"
       style="fill:none;stroke:#231f20;stroke-width:0.5;stroke-linecap:round;stroke-linejoin:round;stroke-miterlimit:4;stroke-dasharray:2.8, 1.8;stroke-dashoffset:0;stroke-opacity:1"
       id="path202523" />
    <path
       d="m 364.542,551.564 c 3.551,-2.842 7.521,-6.766 5.891,-28.719"
       style="fill:none;stroke:#231f20;stroke-width:0.5;stroke-linecap:round;stroke-linejoin:round;stroke-miterlimit:4;stroke-dasharray:2.8, 1.8;stroke-dashoffset:0;stroke-opacity:1"
       id="path202525" />
    <path
       d="m 353.647,643.59 c -0.947,-5.681 -0.232,-14.124 1.66,-18.859 1.894,-4.736 4.074,-14.699 3.128,-22.039"
       style="fill:none;stroke:#231f20;stroke-width:0.5;stroke-linecap:round;stroke-linejoin:round;stroke-miterlimit:4;stroke-dasharray:2.8, 1.8;stroke-dashoffset:0;stroke-opacity:1"
       id="path202527" />
    <path
       d="m 355.935,593.691 c -4.179,3.335 -30.774,16.007 -43.325,20.743"
       style="fill:none;stroke:#231f20;stroke-width:0.5;stroke-linecap:round;stroke-linejoin:round;stroke-miterlimit:4;stroke-dasharray:2.8, 1.8;stroke-dashoffset:0;stroke-opacity:1"
       id="path202529" />
    <path
       d="m 368.016,588.781 c 2.462,-9.512 4.816,-20.642 3.867,-24.431 -0.948,-3.788 -2.603,-7.813 -3.551,-9.234 -0.949,-1.421 -4.412,-5.95 -10.878,-4.974"
       style="fill:none;stroke:#231f20;stroke-width:0.5;stroke-linecap:round;stroke-linejoin:round;stroke-miterlimit:4;stroke-dasharray:2.8, 1.8;stroke-dashoffset:0;stroke-opacity:1"
       id="path202531" />
    <path
       d="m 356.768,585.821 c 1.619,-8.447 1.855,-15.076 2.091,-21.708 0.238,-6.629 0.293,-13.951 -2.841,-15.391 -3.285,-1.51 -13.734,-6.156 -26.284,-4.734 -12.548,1.42 -17.284,6.864 -21.547,13.496 -4.263,6.629 -7.341,19.65 -7.103,25.573 0.237,5.918 0.948,12.076 6.157,21.311 5.209,9.234 9.707,20.365 16.1,23.676 6.393,3.317 16.408,9.008 29.75,11.845"
       style="fill:none;stroke:#231f20;stroke-width:0.5;stroke-linecap:round;stroke-linejoin:round;stroke-miterlimit:4;stroke-dasharray:2.8, 1.8;stroke-dashoffset:0;stroke-opacity:1"
       id="path202533" />
    <path
       d="m 359.094,550.075 c 0.477,-2.301 -4.26,-5.142 -10.889,-7.984 -6.631,-2.841 -25.517,-7.461 -38.451,5.86"
       style="fill:none;stroke:#231f20;stroke-width:0.5;stroke-linecap:round;stroke-linejoin:round;stroke-miterlimit:4;stroke-dasharray:2.8, 1.8;stroke-dashoffset:0;stroke-opacity:1"
       id="path202535" />
    <path
       d="m 433.916,474.973 c -1.794,2.082 -7.114,3.834 -9.245,-0.761"
       style="fill:none;stroke:#231f20;stroke-width:0.5;stroke-linecap:round;stroke-linejoin:round;stroke-miterlimit:4;stroke-dasharray:2.8, 1.8;stroke-dashoffset:0;stroke-opacity:1"
       id="path202537" />
    <path
       d="m 627.138,477.686 c 0,0 1.656,-6.394 -0.711,-8.051 -2.367,-1.656 -9.469,-0.236 -9.469,-0.236"
       style="fill:none;stroke:#231f20;stroke-width:0.5;stroke-linecap:round;stroke-linejoin:round;stroke-miterlimit:4;stroke-dasharray:2.8, 1.8;stroke-dashoffset:0;stroke-opacity:1"
       id="path202539" />
    <path
       d="m 452.864,477.686 c 0,0 -1.656,-6.394 0.711,-8.051 2.367,-1.656 9.469,-0.236 9.469,-0.236"
       style="fill:none;stroke:#231f20;stroke-width:0.5;stroke-linecap:round;stroke-linejoin:round;stroke-miterlimit:4;stroke-dasharray:2.8, 1.8;stroke-dashoffset:0;stroke-opacity:1"
       id="path202541" />
  </g>
</svg>
