<?xml version="1.0" encoding="UTF-8" standalone="no"?>
<!-- Created with Inkscape (http://www.inkscape.org/) -->

<svg
   version="1.1"
   id="svg179162"
   width="1440"
   height="1344"
   viewBox="0 0 1440 1344"
   xmlns="http://www.w3.org/2000/svg"
   xmlns:svg="http://www.w3.org/2000/svg">
  <defs
     id="defs179166" />
  <g
     id="g179170">
    <path
       d="m 540,363.147 c -18.288,0 -47.694,10.793 -44.466,23.326 2.876,11.167 27.612,23.327 44.466,23.327 16.855,0 41.592,-12.16 44.468,-23.327 C 587.696,373.94 558.29,363.147 540,363.147"
       style="fill:#ffffff;fill-opacity:1;fill-rule:nonzero;stroke:none;stroke-width:0.1"
       id="path179830" />
    <path
       d="m 540,363.147 c -18.288,0 -47.694,10.793 -44.466,23.326 2.876,11.167 27.612,23.327 44.466,23.327 16.855,0 41.592,-12.16 44.468,-23.327 C 587.696,373.94 558.29,363.147 540,363.147 Z"
       style="fill:none;stroke:#231f20;stroke-width:0.75;stroke-linecap:round;stroke-linejoin:round;stroke-miterlimit:4;stroke-dasharray:none;stroke-opacity:1"
       id="path179832" />
    <path
       d="m 661.208,690.417 c 0,0 9.324,4.294 12.67,8.241 3.349,3.946 5.5,6.035 8.131,7.891 0,0 -4.544,-8.588 -2.87,-12.533 1.674,-3.946 6.215,-9.517 11.953,-12.07 0,0 -6.455,-0.465 -7.65,0 -1.193,0.465 -3.347,4.41 -7.41,5.339 -4.064,0.927 -14.824,3.132 -14.824,3.132 z M 566.179,416.763 c 5.737,-8.008 8.606,-9.748 19.006,-13.578 10.399,-3.829 17.214,-3.829 17.214,-3.829 0,0 -1.436,-3.134 9.682,-9.4 11.116,-6.268 15.061,-5.572 41.957,-1.393 26.895,4.178 40.164,20.192 40.164,20.192 1.792,-0.696 4.661,-0.347 4.661,-0.347 -3.945,-22.979 13.508,-15.435 13.508,-15.435 0,0 -4.542,-8.936 -0.957,-21.818 4.386,-15.762 22.951,-21.819 31.08,-22.746 8.129,-0.928 15.778,-5.108 22.95,-9.285 7.172,-4.178 27.731,-8.356 47.813,-6.035 20.083,2.322 32.993,10.212 43.034,15.32 10.04,5.106 17.69,0 27.253,1.392 9.564,1.393 32.036,11.605 51.161,32.958 19.127,21.354 27.255,56.635 30.124,78.917 2.868,22.282 -9.086,40.851 -9.564,45.957 -0.478,5.107 6.695,8.82 13.867,29.245 7.171,20.426 11.474,80.309 -4.783,145.3 -16.258,64.99 -52.117,117.91 -103.756,154.816 -51.639,36.904 -128.739,55.008 -191.135,61.275 -62.399,6.268 -83.556,2.09 -103.16,-8.355 C 546.696,879.469 540,860.915 540,846.974 c 0,13.941 -6.694,32.495 -26.296,42.94 -19.605,10.445 -40.762,14.623 -103.16,8.355 C 348.146,892.002 271.046,873.898 219.408,836.994 167.769,800.088 131.91,747.168 115.653,682.178 99.3938,617.187 103.698,557.304 110.87,536.878 c 7.172,-20.425 14.344,-24.138 13.867,-29.245 -0.479,-5.106 -12.433,-23.675 -9.564,-45.957 2.869,-22.282 10.996,-57.563 30.122,-78.917 19.127,-21.353 41.599,-31.565 51.163,-32.958 9.563,-1.392 17.211,3.714 27.253,-1.392 10.041,-5.108 22.951,-12.998 43.033,-15.32 20.082,-2.321 40.642,1.857 47.813,6.035 7.173,4.177 14.822,8.357 22.951,9.285 8.129,0.927 26.692,6.984 31.079,22.746 3.586,12.882 -0.956,21.818 -0.956,21.818 0,0 17.453,-7.544 13.508,15.435 0,0 2.868,-0.349 4.661,0.347 0,0 13.269,-16.014 40.164,-20.192 26.896,-4.179 30.841,-4.875 41.957,1.393 11.118,6.266 9.682,9.4 9.682,9.4 0,0 6.815,0 17.214,3.829 10.398,3.83 13.268,5.57 19.006,13.578 5.738,8.008 19.364,13.578 26.177,13.578 6.814,0 20.441,-5.57 26.179,-13.578 z M 540,659.78 c 0,0 -3.831,0.427 -7.889,1.045 -6.464,0.984 -13.627,3.829 -26.177,14.274 -12.552,10.444 -17.573,11.837 -17.573,11.837 28.689,3.134 40.522,22.979 43.04,31.865 l 8.599,-0.53 8.601,0.53 c 2.516,-8.886 14.351,-28.731 43.038,-31.865 0,0 -5.019,-1.393 -17.571,-11.837 -12.551,-10.445 -19.713,-13.29 -26.178,-14.274 -4.058,-0.618 -7.89,-1.045 -7.89,-1.045 m -136.03,27.505 c -4.063,-0.929 -6.217,-4.874 -7.412,-5.339 -1.193,-0.465 -7.649,0 -7.649,0 5.737,2.553 10.28,8.124 11.953,12.07 1.674,3.945 -2.868,12.533 -2.868,12.533 2.628,-1.856 4.78,-3.945 8.128,-7.891 3.348,-3.947 12.67,-8.241 12.67,-8.241 0,0 -10.758,-2.205 -14.822,-3.132"
       style="fill:#ffffff;fill-opacity:1;fill-rule:nonzero;stroke:none;stroke-width:0.1"
       id="path179834" />
    <path
       d="m 661.208,690.417 c 0,0 9.324,4.294 12.67,8.241 3.349,3.946 5.5,6.035 8.131,7.891 0,0 -4.544,-8.588 -2.87,-12.533 1.674,-3.946 6.215,-9.517 11.953,-12.07 0,0 -6.455,-0.465 -7.65,0 -1.193,0.465 -3.347,4.41 -7.41,5.339 -4.064,0.927 -14.824,3.132 -14.824,3.132 z M 566.179,416.763 c 5.737,-8.008 8.606,-9.748 19.006,-13.578 10.399,-3.829 17.214,-3.829 17.214,-3.829 0,0 -1.436,-3.134 9.682,-9.4 11.116,-6.268 15.061,-5.572 41.957,-1.393 26.895,4.178 40.164,20.192 40.164,20.192 1.792,-0.696 4.661,-0.347 4.661,-0.347 -3.945,-22.979 13.508,-15.435 13.508,-15.435 0,0 -4.542,-8.936 -0.957,-21.818 4.386,-15.762 22.951,-21.819 31.08,-22.746 8.129,-0.928 15.778,-5.108 22.95,-9.285 7.172,-4.178 27.731,-8.356 47.813,-6.035 20.083,2.322 32.993,10.212 43.034,15.32 10.04,5.106 17.69,0 27.253,1.392 9.564,1.393 32.036,11.605 51.161,32.958 19.127,21.354 27.255,56.635 30.124,78.917 2.868,22.282 -9.086,40.851 -9.564,45.957 -0.478,5.107 6.695,8.82 13.867,29.245 7.171,20.426 11.474,80.309 -4.783,145.3 -16.258,64.99 -52.117,117.91 -103.756,154.816 -51.639,36.904 -128.739,55.008 -191.135,61.275 -62.399,6.268 -83.556,2.09 -103.16,-8.355 C 546.696,879.469 540,860.915 540,846.974 c 0,13.941 -6.694,32.495 -26.296,42.94 -19.605,10.445 -40.762,14.623 -103.16,8.355 C 348.146,892.002 271.046,873.898 219.408,836.994 167.769,800.088 131.91,747.168 115.653,682.178 99.3938,617.187 103.698,557.304 110.87,536.878 c 7.172,-20.425 14.344,-24.138 13.867,-29.245 -0.479,-5.106 -12.433,-23.675 -9.564,-45.957 2.869,-22.282 10.996,-57.563 30.122,-78.917 19.127,-21.353 41.599,-31.565 51.163,-32.958 9.563,-1.392 17.211,3.714 27.253,-1.392 10.041,-5.108 22.951,-12.998 43.033,-15.32 20.082,-2.321 40.642,1.857 47.813,6.035 7.173,4.177 14.822,8.357 22.951,9.285 8.129,0.927 26.692,6.984 31.079,22.746 3.586,12.882 -0.956,21.818 -0.956,21.818 0,0 17.453,-7.544 13.508,15.435 0,0 2.868,-0.349 4.661,0.347 0,0 13.269,-16.014 40.164,-20.192 26.896,-4.179 30.841,-4.875 41.957,1.393 11.118,6.266 9.682,9.4 9.682,9.4 0,0 6.815,0 17.214,3.829 10.398,3.83 13.268,5.57 19.006,13.578 5.738,8.008 19.364,13.578 26.177,13.578 6.814,0 20.441,-5.57 26.179,-13.578 z M 540,659.78 c 0,0 -3.831,0.427 -7.889,1.045 -6.464,0.984 -13.627,3.829 -26.177,14.274 -12.552,10.444 -17.573,11.837 -17.573,11.837 28.689,3.134 40.522,22.979 43.04,31.865 l 8.599,-0.53 8.601,0.53 c 2.516,-8.886 14.351,-28.731 43.038,-31.865 0,0 -5.019,-1.393 -17.571,-11.837 -12.551,-10.445 -19.713,-13.29 -26.178,-14.274 -4.058,-0.618 -7.89,-1.045 -7.89,-1.045 m -136.03,27.505 c -4.063,-0.929 -6.217,-4.874 -7.412,-5.339 -1.193,-0.465 -7.649,0 -7.649,0 5.737,2.553 10.28,8.124 11.953,12.07 1.674,3.945 -2.868,12.533 -2.868,12.533 2.628,-1.856 4.78,-3.945 8.128,-7.891 3.348,-3.947 12.67,-8.241 12.67,-8.241 0,0 -10.758,-2.205 -14.822,-3.132 z"
       style="fill:none;stroke:#231f20;stroke-width:0.75;stroke-linecap:round;stroke-linejoin:round;stroke-miterlimit:4;stroke-dasharray:none;stroke-opacity:1"
       id="path179836" />
    <path
       d="M 540,739.857 V 846.974"
       style="fill:none;stroke:#231f20;stroke-width:0.75;stroke-linecap:round;stroke-linejoin:round;stroke-miterlimit:4;stroke-dasharray:none;stroke-opacity:1"
       id="path179838" />
    <path
       d="m 591.639,686.936 c 4.662,2.438 10.401,2.785 20.082,2.438 9.684,-0.349 27.613,0.696 34.427,1.043 6.812,0.349 10.996,0.536 15.06,0"
       style="fill:none;stroke:#231f20;stroke-width:0.75;stroke-linecap:round;stroke-linejoin:round;stroke-miterlimit:4;stroke-dasharray:none;stroke-opacity:1"
       id="path179840" />
    <path
       d="m 765.653,379.427 c 4.572,1.998 10.685,1.299 28.24,7.046 30.84,10.097 39.805,14.275 60.605,26.809 19.652,11.842 25.46,24.371 33.349,44.913 7.89,20.541 8.607,46.305 10.041,75.898 1.435,29.594 -3.227,50.484 -8.248,76.945 -5.019,26.46 -21.157,67.543 -38.012,95.047 -16.854,27.504 -38.371,43.172 -55.584,52.224 -17.212,9.052 -49.726,24.14 -76.382,29.941 -23.255,5.063 -42.555,4.179 -56.54,1.045 -13.986,-3.133 -18.492,-11.861 -22.593,-19.148"
       style="fill:none;stroke:#231f20;stroke-width:0.75;stroke-linecap:round;stroke-linejoin:round;stroke-miterlimit:4;stroke-dasharray:none;stroke-opacity:1"
       id="path179842" />
    <path
       d="m 580.011,679.816 c 9.954,2.13 21.192,1.897 28.124,2.13 6.933,0.232 13.388,-0.232 17.93,-2.553 0,0 -1.435,2.554 4.065,3.481 5.498,0.929 16.974,1.625 22.712,1.857 5.738,0.232 14.105,1.625 19.843,-0.464 5.737,-2.089 13.149,-5.803 15.778,-7.428 0,0 10.28,0 16.256,-2.089 5.978,-2.088 15.541,-5.569 23.907,-8.587 8.368,-3.018 14.345,-4.41 22.234,-8.356 7.89,-3.946 14.106,-7.195 19.604,-18.104 5.499,-10.91 8.846,-26.459 8.607,-34.816 -0.239,-8.356 1.194,-14.161 0.956,-20.659 -0.238,-6.498 -2.87,-32.262 -3.347,-36.439 -0.477,-4.178 -6.064,-18.442 -4.39,-24.478"
       style="fill:none;stroke:#231f20;stroke-width:0.5;stroke-linecap:butt;stroke-linejoin:miter;stroke-miterlimit:4;stroke-dasharray:none;stroke-opacity:1"
       id="path179844" />
    <path
       d="m 691.092,681.946 c 5.261,-0.696 17.214,-2.322 25.342,-5.571 8.129,-3.249 17.931,-8.82 22.95,-10.445 5.022,-1.624 12.671,-4.177 19.843,-8.819 7.173,-4.643 12.192,-10.91 15.301,-18.337 3.109,-7.426 10.28,-27.389 10.758,-44.332 0.288,-10.208 -4.065,-38.531 -4.542,-45.494 -0.478,-6.964 0,-12.534 -5.02,-20.425 -5.021,-7.891 -10.52,-15.087 -12.672,-18.801 -2.151,-3.714 -6.456,-12.999 -7.41,-14.855 -0.956,-1.857 -1.911,-7.195 -6.694,-14.39 -4.782,-7.196 -18.409,-28.086 -25.342,-37.138 -6.932,-9.052 -22.473,-26.923 -29.404,-34.584"
       style="fill:none;stroke:#231f20;stroke-width:0.75;stroke-linecap:round;stroke-linejoin:round;stroke-miterlimit:4;stroke-dasharray:none;stroke-opacity:1"
       id="path179846" />
    <path
       d="m 611.427,390.331 c 1.489,-0.841 3.543,1.888 2.924,6.355 -0.575,4.146 -0.478,6.732 -0.478,6.732 0,0 1.434,-4.642 15.062,-4.178 13.627,0.464 25.818,3.947 39.207,9.749 13.388,5.801 23.667,10.211 41.12,32.261 17.452,22.051 23.907,35.28 18.169,41.78 -5.737,6.499 -8.607,6.73 -8.368,9.748 0.239,3.017 3.587,4.409 5.738,5.57 2.152,1.162 3.11,4.411 5.978,7.196 4.542,4.411 13.387,10.212 17.929,7.66 5.289,-2.972 4.781,-6.963 4.064,-11.141 -0.717,-4.178 1.185,-5.101 3.104,-6.729"
       style="fill:none;stroke:#231f20;stroke-width:0.5;stroke-linecap:butt;stroke-linejoin:miter;stroke-miterlimit:4;stroke-dasharray:none;stroke-opacity:1"
       id="path179848" />
    <path
       d="m 698.863,408.408 c 2.988,3.366 11.962,10.921 8.551,15.382"
       style="fill:none;stroke:#231f20;stroke-width:0.5;stroke-linecap:butt;stroke-linejoin:miter;stroke-miterlimit:4;stroke-dasharray:none;stroke-opacity:1"
       id="path179850" />
    <path
       d="m 682.009,706.549 c 6.215,8.357 17.69,17.409 22.71,20.426 5.02,3.017 16.975,7.194 32.514,3.713 15.539,-3.481 32.272,-11.604 44.227,-19.961 11.955,-8.355 27.732,-21.818 32.276,-37.833 2.096,-7.393 3.284,-14.409 3.236,-19.498"
       style="fill:none;stroke:#231f20;stroke-width:0.5;stroke-linecap:butt;stroke-linejoin:miter;stroke-miterlimit:4;stroke-dasharray:none;stroke-opacity:1"
       id="path179852" />
    <path
       d="m 742.968,355.585 c -0.356,6.866 4.665,14.525 22.685,23.842"
       style="fill:none;stroke:#231f20;stroke-width:0.5;stroke-linecap:butt;stroke-linejoin:miter;stroke-miterlimit:4;stroke-dasharray:none;stroke-opacity:1"
       id="path179854" />
    <path
       d="M 540,607.439 V 556.375"
       style="fill:none;stroke:#231f20;stroke-width:0.75;stroke-linecap:round;stroke-linejoin:round;stroke-miterlimit:4;stroke-dasharray:none;stroke-opacity:1"
       id="path179856" />
    <path
       d="m 555.321,662.866 c 2.372,-4.363 9.782,-10.397 21.974,-10.629 12.193,-0.233 36.34,-0.929 41.121,-2.089 4.781,-1.161 19.363,-5.34 18.168,-8.589 -1.195,-3.249 -11.475,-12.997 -19.124,-12.766 -7.651,0.232 -27.016,6.732 -30.363,9.517 -3.347,2.785 -13.12,10.506 -12.417,14.073"
       style="fill:none;stroke:#231f20;stroke-width:0.5;stroke-linecap:butt;stroke-linejoin:miter;stroke-miterlimit:4;stroke-dasharray:none;stroke-opacity:1"
       id="path179858" />
    <path
       d="m 550.395,460.675 c 5.202,0.237 5.862,10.053 4.905,19.802 -0.956,9.748 -5.264,11.154 -7.654,11.521"
       style="fill:none;stroke:#231f20;stroke-width:0.5;stroke-linecap:butt;stroke-linejoin:miter;stroke-miterlimit:4;stroke-dasharray:none;stroke-opacity:1"
       id="path179860" />
    <path
       d="m 566.659,416.101 c -0.915,1.244 -0.601,4.027 3.224,3.564 3.827,-0.464 11.239,-3.017 13.867,-5.106 2.63,-2.089 5.26,-5.338 8.608,-6.267 3.346,-0.929 12.102,-1.799 10.041,-8.936"
       style="fill:none;stroke:#231f20;stroke-width:0.5;stroke-linecap:butt;stroke-linejoin:miter;stroke-miterlimit:4;stroke-dasharray:none;stroke-opacity:1"
       id="path179862" />
    <path
       d="m 562.952,426.627 c -2.878,0.086 -5.976,0.235 -7.173,8.822 -1.195,8.587 0.478,21.122 4.783,21.586 4.303,0.463 8.126,-4.642 8.604,-10.446 0.48,-5.802 1.555,-20.193 -6.214,-19.962 z"
       style="fill:none;stroke:#231f20;stroke-width:0.5;stroke-linecap:butt;stroke-linejoin:miter;stroke-miterlimit:4;stroke-dasharray:none;stroke-opacity:1"
       id="path179864" />
    <path
       d="m 555.615,436.848 c 0.164,-6.043 1.155,-10.542 1.497,-12.237"
       style="fill:none;stroke:#231f20;stroke-width:0.5;stroke-linecap:butt;stroke-linejoin:miter;stroke-miterlimit:4;stroke-dasharray:none;stroke-opacity:1"
       id="path179866" />
    <path
       d="m 649.016,476.762 c -7.55,-5.391 -20.319,-14.157 -25.58,-18.335 -5.259,-4.177 -13.389,-9.283 -16.018,-6.266 -2.628,3.015 5.26,16.246 9.325,23.441 4.063,7.196 12.192,18.568 18.646,21.586 6.455,3.019 18.888,5.569 29.406,5.339 10.519,-0.232 16.973,0.927 19.126,1.392 2.152,0.465 6.696,0.001 2.63,-3.712 -4.065,-3.715 -25.333,-14.73 -37.535,-23.445 z"
       style="fill:none;stroke:#231f20;stroke-width:0.5;stroke-linecap:butt;stroke-linejoin:miter;stroke-miterlimit:4;stroke-dasharray:none;stroke-opacity:1"
       id="path179868" />
    <path
       d="m 540,697.381 c -5.378,0 -19.722,-4.173 -19.364,-17.055 0.359,-12.882 9.667,-20.546 19.364,-20.546 9.699,0 19.006,7.664 19.366,20.546 0.358,12.882 -13.987,17.055 -19.366,17.055"
       style="fill:#706d6e;fill-opacity:1;fill-rule:nonzero;stroke:none;stroke-width:0.1"
       id="path179870" />
    <path
       d="m 540,697.381 c -5.378,0 -19.722,-4.173 -19.364,-17.055 0.359,-12.882 9.667,-20.546 19.364,-20.546 9.699,0 19.006,7.664 19.366,20.546 0.358,12.882 -13.987,17.055 -19.366,17.055 z"
       style="fill:none;stroke:#231f20;stroke-width:0.75;stroke-linecap:round;stroke-linejoin:round;stroke-miterlimit:4;stroke-dasharray:none;stroke-opacity:1"
       id="path179872" />
    <path
       d="m 488.361,686.936 c -4.66,2.438 -10.399,2.785 -20.081,2.438 -9.683,-0.349 -27.612,0.696 -34.426,1.043 -6.813,0.349 -10.996,0.536 -15.062,0"
       style="fill:none;stroke:#231f20;stroke-width:0.75;stroke-linecap:round;stroke-linejoin:round;stroke-miterlimit:4;stroke-dasharray:none;stroke-opacity:1"
       id="path179874" />
    <path
       d="m 499.989,679.816 c -9.953,2.13 -21.19,1.897 -28.123,2.13 -6.932,0.232 -13.388,-0.232 -17.931,-2.553 0,0 1.437,2.554 -4.063,3.481 -5.5,0.929 -16.974,1.625 -22.712,1.857 -5.738,0.232 -14.105,1.625 -19.843,-0.464 -5.737,-2.089 -13.149,-5.803 -15.778,-7.428 0,0 -10.28,0 -16.256,-2.089 -5.978,-2.088 -15.541,-5.569 -23.907,-8.587 -8.369,-3.018 -14.346,-4.41 -22.236,-8.356 -7.889,-3.946 -14.105,-7.195 -19.602,-18.104 -5.499,-10.91 -8.847,-26.459 -8.608,-34.816 0.239,-8.356 -1.193,-14.161 -0.955,-20.659 0.238,-6.498 2.868,-32.262 3.346,-36.439 0.478,-4.178 6.064,-18.442 4.391,-24.478"
       style="fill:none;stroke:#231f20;stroke-width:0.5;stroke-linecap:butt;stroke-linejoin:miter;stroke-miterlimit:4;stroke-dasharray:none;stroke-opacity:1"
       id="path179876" />
    <path
       d="m 388.909,681.946 c -5.26,-0.696 -17.213,-2.322 -25.341,-5.571 -8.129,-3.249 -17.931,-8.82 -22.952,-10.445 -5.02,-1.624 -12.669,-4.177 -19.842,-8.819 -7.172,-4.643 -12.192,-10.91 -15.3,-18.337 -3.109,-7.426 -10.282,-27.389 -10.76,-44.332 -0.286,-10.208 4.066,-38.531 4.543,-45.494 0.479,-6.964 0,-12.534 5.021,-20.425 5.02,-7.891 10.518,-15.087 12.67,-18.801 2.151,-3.714 6.458,-12.999 7.412,-14.855 0.956,-1.857 1.911,-7.195 6.692,-14.39 4.783,-7.196 18.411,-28.086 25.343,-37.138 6.934,-9.052 22.473,-26.923 29.405,-34.584"
       style="fill:none;stroke:#231f20;stroke-width:0.75;stroke-linecap:round;stroke-linejoin:round;stroke-miterlimit:4;stroke-dasharray:none;stroke-opacity:1"
       id="path179878" />
    <path
       d="m 468.575,390.331 c -1.49,-0.841 -3.543,1.888 -2.924,6.355 0.573,4.146 0.476,6.732 0.476,6.732 0,0 -1.434,-4.642 -15.06,-4.178 -13.627,0.464 -25.818,3.947 -39.207,9.749 -13.39,5.801 -23.668,10.211 -41.121,32.261 -17.451,22.051 -23.907,35.28 -18.17,41.78 5.738,6.499 8.609,6.73 8.368,9.748 -0.239,3.017 -3.585,4.409 -5.736,5.57 -2.153,1.162 -3.109,4.411 -5.978,7.196 -4.543,4.411 -13.388,10.212 -17.93,7.66 -5.289,-2.972 -4.782,-6.963 -4.065,-11.141 0.719,-4.178 -1.185,-5.101 -3.102,-6.729"
       style="fill:none;stroke:#231f20;stroke-width:0.5;stroke-linecap:butt;stroke-linejoin:miter;stroke-miterlimit:4;stroke-dasharray:none;stroke-opacity:1"
       id="path179880" />
    <path
       d="m 381.139,408.408 c -2.988,3.366 -11.962,10.921 -8.551,15.382"
       style="fill:none;stroke:#231f20;stroke-width:0.5;stroke-linecap:butt;stroke-linejoin:miter;stroke-miterlimit:4;stroke-dasharray:none;stroke-opacity:1"
       id="path179882" />
    <path
       d="m 397.994,706.549 c -6.216,8.357 -17.692,17.409 -22.711,20.426 -5.022,3.017 -16.976,7.194 -32.515,3.713 -15.54,-3.481 -32.273,-11.604 -44.227,-19.961 -11.955,-8.355 -27.732,-21.818 -32.275,-37.833 -2.097,-7.393 -3.284,-14.409 -3.236,-19.498"
       style="fill:none;stroke:#231f20;stroke-width:0.5;stroke-linecap:butt;stroke-linejoin:miter;stroke-miterlimit:4;stroke-dasharray:none;stroke-opacity:1"
       id="path179884" />
    <path
       d="m 337.033,355.585 c 0.356,6.866 -4.664,14.525 -22.684,23.842"
       style="fill:none;stroke:#231f20;stroke-width:0.5;stroke-linecap:butt;stroke-linejoin:miter;stroke-miterlimit:4;stroke-dasharray:none;stroke-opacity:1"
       id="path179886" />
    <path
       d="m 506.219,595.601 c -1.05,-1.303 -4.947,-0.463 -7.817,3.715 -2.391,3.482 4.063,9.516 7.65,12.301 3.586,2.785 6.935,3.715 7.412,7.197 0.477,3.481 -5.738,2.552 -7.889,6.963 -2.152,4.409 4.78,8.819 11.236,12.301 6.456,3.481 17.214,5.106 23.189,5.106 5.976,0 16.735,-1.625 23.19,-5.106 6.456,-3.482 13.389,-7.892 11.237,-12.301 -2.152,-4.411 -8.368,-3.482 -7.889,-6.963 0.477,-3.482 3.826,-4.412 7.411,-7.197 3.586,-2.785 10.041,-8.819 7.649,-12.301 -2.868,-4.178 -6.766,-5.018 -7.815,-3.715"
       style="fill:none;stroke:#231f20;stroke-width:0.5;stroke-linecap:butt;stroke-linejoin:miter;stroke-miterlimit:4;stroke-dasharray:none;stroke-opacity:1"
       id="path179888" />
    <path
       d="m 540,625.777 c -9.084,0 -18.647,-3.715 -18.647,-0.234 0,4.206 14.344,6.5 18.647,6.5 4.303,0 18.649,-2.294 18.649,-6.5 0,-3.481 -9.563,0.234 -18.649,0.234 z"
       style="fill:none;stroke:#231f20;stroke-width:0.5;stroke-linecap:butt;stroke-linejoin:miter;stroke-miterlimit:4;stroke-dasharray:none;stroke-opacity:1"
       id="path179890" />
    <path
       d="m 525.041,524.894 c -1.434,3.251 -11.816,26.607 -17.792,39.838 -5.976,13.229 -6.455,18.335 -4.303,25.067 2.151,6.732 8.366,10.676 10.279,12.069 1.912,1.392 4.542,4.177 7.889,7.198 3.347,3.016 16.256,2.319 18.886,2.319 2.632,0 15.54,0.697 18.886,-2.319 3.348,-3.021 5.979,-5.806 7.892,-7.198 1.912,-1.393 8.127,-5.337 10.278,-12.069 2.152,-6.732 1.673,-11.838 -4.303,-25.067 -5.975,-13.231 -16.358,-36.587 -17.792,-39.838"
       style="fill:none;stroke:#231f20;stroke-width:0.5;stroke-linecap:butt;stroke-linejoin:miter;stroke-miterlimit:4;stroke-dasharray:none;stroke-opacity:1"
       id="path179892" />
    <path
       d="m 524.68,662.866 c -2.371,-4.363 -9.781,-10.397 -21.973,-10.629 -12.195,-0.233 -36.341,-0.929 -41.122,-2.089 -4.78,-1.161 -19.363,-5.34 -18.167,-8.589 1.193,-3.249 11.475,-12.997 19.124,-12.766 7.65,0.232 27.016,6.732 30.363,9.517 3.345,2.785 13.12,10.506 12.417,14.073"
       style="fill:none;stroke:#231f20;stroke-width:0.5;stroke-linecap:butt;stroke-linejoin:miter;stroke-miterlimit:4;stroke-dasharray:none;stroke-opacity:1"
       id="path179894" />
    <path
       d="m 529.607,460.675 c -5.203,0.237 -5.862,10.053 -4.906,19.802 0.957,9.748 5.264,11.154 7.655,11.521"
       style="fill:none;stroke:#231f20;stroke-width:0.5;stroke-linecap:butt;stroke-linejoin:miter;stroke-miterlimit:4;stroke-dasharray:none;stroke-opacity:1"
       id="path179896" />
    <path
       d="m 513.341,416.101 c 0.917,1.244 0.602,4.027 -3.224,3.564 -3.825,-0.464 -11.237,-3.017 -13.867,-5.106 -2.628,-2.089 -5.258,-5.338 -8.606,-6.267 -3.347,-0.929 -12.102,-1.799 -10.041,-8.936"
       style="fill:none;stroke:#231f20;stroke-width:0.5;stroke-linecap:butt;stroke-linejoin:miter;stroke-miterlimit:4;stroke-dasharray:none;stroke-opacity:1"
       id="path179898" />
    <path
       d="m 517.05,426.627 c 2.876,0.086 5.976,0.235 7.171,8.822 1.197,8.587 -0.476,21.122 -4.781,21.586 -4.303,0.463 -8.126,-4.642 -8.605,-10.446 -0.48,-5.802 -1.556,-20.193 6.215,-19.962 z"
       style="fill:none;stroke:#231f20;stroke-width:0.5;stroke-linecap:butt;stroke-linejoin:miter;stroke-miterlimit:4;stroke-dasharray:none;stroke-opacity:1"
       id="path179900" />
    <path
       d="m 524.386,436.848 c -0.165,-6.043 -1.154,-10.542 -1.496,-12.237"
       style="fill:none;stroke:#231f20;stroke-width:0.5;stroke-linecap:butt;stroke-linejoin:miter;stroke-miterlimit:4;stroke-dasharray:none;stroke-opacity:1"
       id="path179902" />
    <path
       d="m 430.986,476.762 c 7.549,-5.391 20.319,-14.157 25.578,-18.335 5.261,-4.177 13.39,-9.283 16.019,-6.266 2.629,3.015 -5.259,16.246 -9.324,23.441 -4.063,7.196 -12.192,18.568 -18.648,21.586 -6.454,3.019 -18.886,5.569 -29.404,5.339 -10.52,-0.232 -16.974,0.927 -19.126,1.392 -2.152,0.465 -6.696,0.001 -2.63,-3.712 4.065,-3.715 25.331,-14.73 37.535,-23.445 z"
       style="fill:none;stroke:#231f20;stroke-width:0.5;stroke-linecap:butt;stroke-linejoin:miter;stroke-miterlimit:4;stroke-dasharray:none;stroke-opacity:1"
       id="path179904" />
    <path
       d="m 540,739.857 c 7.757,0 22.168,4.499 35.83,17.059 15.143,13.927 22.439,27.782 26.593,33.772 5.712,8.239 10.246,14.803 34.721,14.971 33.629,0.232 55.264,-0.348 84.311,-5.106 30.1,-4.93 49.248,-9.285 76.382,-23.792 15.062,-7.659 43.034,-20.889 69.21,-60.231 26.179,-39.342 34.069,-75.899 35.145,-122.553 1.075,-46.653 -3.228,-93.655 -3.228,-106.537 0,-12.882 -11.475,-42.476 -18.647,-53.965 -7.172,-11.489 -15.778,-17.756 -36.578,-29.245 -20.799,-11.489 -45.184,-20.193 -58.094,-22.979 -12.909,-2.785 -20.441,-3.481 -20.799,-0.696 -0.358,2.785 15.42,5.222 22.591,7.311 7.173,2.09 44.109,13.579 58.813,23.327 14.703,9.748 26.895,14.971 35.143,37.253 8.247,22.282 12.192,41.779 13.626,70.677 1.435,28.897 -1.076,63.365 -12.909,104.796 -11.834,41.431 -24.028,74.159 -43.75,96.789 -19.723,22.63 -39.447,32.378 -59.17,41.083 -19.724,8.704 -58.094,24.371 -80.686,23.327 -22.592,-1.045 -33.349,-8.357 -38.73,-24.371 -5.379,-16.016 -7.53,-33.424 -37.294,-36.906 -29.765,-3.481 -64.196,-5.04 -73.879,-5.04"
       style="fill:none;stroke:#231f20;stroke-width:0.5;stroke-linecap:butt;stroke-linejoin:miter;stroke-miterlimit:4;stroke-dasharray:none;stroke-opacity:1"
       id="path179906" />
    <path
       d="m 540,739.857 c -7.757,0 -22.166,4.499 -35.828,17.059 -15.143,13.927 -22.441,27.782 -26.594,33.772 -5.712,8.239 -10.245,14.803 -34.72,14.971 -33.629,0.232 -55.265,-0.348 -84.312,-5.106 -30.099,-4.93 -49.248,-9.285 -76.382,-23.792 -15.061,-7.659 -43.033,-20.889 -69.211,-60.231 -26.178,-39.342 -34.068,-75.899 -35.143,-122.553 -1.076,-46.653 3.228,-93.655 3.228,-106.537 0,-12.882 11.475,-42.476 18.647,-53.965 7.172,-11.489 15.778,-17.756 36.577,-29.245 20.8,-11.489 45.185,-20.193 58.094,-22.979 12.91,-2.785 20.44,-3.481 20.8,-0.696 0.358,2.785 -15.42,5.222 -22.593,7.311 -7.173,2.09 -44.108,13.579 -58.811,23.327 -14.703,9.748 -26.895,14.971 -35.143,37.253 -8.248,22.282 -12.192,41.779 -13.627,70.677 -1.435,28.897 1.075,63.365 12.909,104.796 11.835,41.431 24.027,74.159 43.751,96.789 19.723,22.63 39.445,32.378 59.17,41.083 19.723,8.704 58.094,24.371 80.686,23.327 22.592,-1.045 33.349,-8.357 38.728,-24.371 5.379,-16.016 7.53,-33.424 37.296,-36.906 29.764,-3.481 64.196,-5.04 73.879,-5.04"
       style="fill:none;stroke:#231f20;stroke-width:0.5;stroke-linecap:butt;stroke-linejoin:miter;stroke-miterlimit:4;stroke-dasharray:none;stroke-opacity:1"
       id="path179908" />
    <path
       d="m 555.206,743.469 c 13.357,4.976 25.67,11.011 37.246,21.223 11.569,10.213 24.867,23.676 28.561,26.692 3.694,3.018 11.029,11.026 42.847,10.097"
       style="fill:none;stroke:#231f20;stroke-width:0.5;stroke-linecap:butt;stroke-linejoin:miter;stroke-miterlimit:4;stroke-dasharray:none;stroke-opacity:1"
       id="path179910" />
    <path
       d="m 439.472,770.147 c 5.618,-9.981 7.995,-38.497 61.081,-42.012 21.039,-1.392 39.447,-1.971 39.447,-1.971 0,0 18.411,0.579 39.447,1.971 53.088,3.515 55.465,32.031 61.082,42.012"
       style="fill:none;stroke:#231f20;stroke-width:0.5;stroke-linecap:butt;stroke-linejoin:miter;stroke-miterlimit:4;stroke-dasharray:none;stroke-opacity:1"
       id="path179912" />
    <path
       d="m 314.349,379.427 c -4.572,1.998 -10.685,1.299 -28.24,7.046 -30.841,10.097 -39.806,14.275 -60.605,26.809 -19.652,11.842 -25.461,24.371 -33.35,44.913 -7.89,20.541 -8.607,46.305 -10.041,75.898 -1.434,29.594 3.228,50.484 8.248,76.945 5.02,26.46 21.157,67.543 38.012,95.047 16.854,27.504 38.371,43.172 55.585,52.224 17.211,9.052 49.726,24.14 76.382,29.941 23.255,5.063 42.555,4.179 56.539,1.045 13.987,-3.133 18.491,-11.861 22.593,-19.148"
       style="fill:none;stroke:#231f20;stroke-width:0.75;stroke-linecap:round;stroke-linejoin:round;stroke-miterlimit:4;stroke-dasharray:none;stroke-opacity:1"
       id="path179914" />
    <path
       d="m 524.796,743.469 c -13.357,4.976 -25.67,11.011 -37.246,21.223 -11.57,10.213 -24.869,23.676 -28.562,26.692 -3.694,3.018 -11.03,11.026 -42.846,10.097"
       style="fill:none;stroke:#231f20;stroke-width:0.5;stroke-linecap:butt;stroke-linejoin:miter;stroke-miterlimit:4;stroke-dasharray:none;stroke-opacity:1"
       id="path179916" />
    <path
       d="m 712.371,392.973 c 4.78,8.123 15.54,20.425 28.448,27.388 12.911,6.963 31.318,17.409 46.379,26.228 15.062,8.821 28.212,16.712 39.686,32.032"
       style="fill:none;stroke:#231f20;stroke-width:0.5;stroke-linecap:butt;stroke-linejoin:miter;stroke-miterlimit:4;stroke-dasharray:none;stroke-opacity:1"
       id="path179918" />
    <path
       d="m 367.631,392.973 c -4.782,8.123 -15.539,20.425 -28.45,27.388 -12.909,6.963 -31.316,17.409 -46.379,26.228 -15.06,8.821 -28.21,16.712 -39.685,32.032"
       style="fill:none;stroke:#231f20;stroke-width:0.5;stroke-linecap:butt;stroke-linejoin:miter;stroke-miterlimit:4;stroke-dasharray:none;stroke-opacity:1"
       id="path179920" />
    <path
       d="m 557.743,517.149 c 11.475,-2.785 20.987,2.321 26.247,9.285 5.2,6.883 4.304,13.926 -0.479,22.514 -4.782,8.588 -10.04,10.874 -12.856,11.119"
       style="fill:none;stroke:#231f20;stroke-width:0.25;stroke-linecap:butt;stroke-linejoin:miter;stroke-miterlimit:4;stroke-dasharray:none;stroke-opacity:1"
       id="path179922" />
    <path
       d="m 522.259,517.149 c -11.475,-2.785 -20.987,2.321 -26.248,9.285 -5.199,6.883 -4.303,13.926 0.479,22.514 4.783,8.588 10.04,10.874 12.857,11.119"
       style="fill:none;stroke:#231f20;stroke-width:0.25;stroke-linecap:butt;stroke-linejoin:miter;stroke-miterlimit:4;stroke-dasharray:none;stroke-opacity:1"
       id="path179924" />
    <path
       d="m 708.117,420.818 c 1.145,-0.457 4.969,1.633 6.642,3.489"
       style="fill:none;stroke:#231f20;stroke-width:0.5;stroke-linecap:round;stroke-linejoin:round;stroke-miterlimit:4;stroke-dasharray:2.8, 1.8;stroke-dashoffset:0;stroke-opacity:1"
       id="path179926" />
    <path
       d="m 721.255,427.126 c 2.018,1.286 4.671,2.68 6.893,4.375 3.348,2.555 13.148,11.607 19.843,17.873 6.693,6.268 12.671,12.767 23.19,25.765 10.519,12.997 26.299,33.191 31.558,43.866 5.258,10.679 8.845,22.748 10.041,32.496 1.194,9.749 0.238,25.068 -1.914,39.691 -2.152,14.622 -4.782,28.317 -10.52,42.012 -5.736,13.694 -18.314,37.253 -28.282,43.114"
       style="fill:none;stroke:#231f20;stroke-width:0.5;stroke-linecap:round;stroke-linejoin:round;stroke-miterlimit:4;stroke-dasharray:2.8, 1.8;stroke-dashoffset:0;stroke-opacity:1"
       id="path179928" />
    <path
       d="m 714.759,424.307 c 0,0 -3.585,-4.178 -2.868,-5.106 0.717,-0.929 3.302,0.87 3.302,0.87 1.043,1.952 2.542,3.955 3.631,5.164 0.563,0.624 1.412,1.242 2.431,1.891 5.261,5.106 23.868,27.354 35.102,41.513 11.236,14.159 32.275,40.154 38.97,49.672 6.694,9.517 10.518,18.799 11.475,45.027 0.956,26.23 -2.391,40.387 -6.933,57.565 -4.541,17.176 -16.018,36.904 -23.668,49.67 -7.65,12.765 -22.473,20.889 -26.536,22.514 -4.064,1.624 -6.935,2.553 -8.129,0.697 -1.196,-1.858 0.239,-2.786 2.152,-4.179 1.912,-1.393 10.04,-8.355 16.734,-14.622 6.696,-6.268 10.759,-11.142 21.038,-30.87 10.279,-19.729 14.823,-33.655 16.496,-51.297 1.672,-17.64 0.717,-26.923 -0.239,-44.331 -0.954,-17.408 -3.347,-17.408 -8.844,-26.695 -5.499,-9.283 -11.716,-16.246 -18.649,-25.761 -6.932,-9.517 -15.06,-21.123 -24.385,-34.12 -9.324,-12.997 -22.472,-26.925 -31.08,-37.602"
       style="fill:#b2b1b1;fill-opacity:1;fill-rule:nonzero;stroke:none;stroke-width:0.1"
       id="path179930" />
    <path
       d="m 714.759,424.307 c 0,0 -3.585,-4.178 -2.868,-5.106 0.717,-0.929 3.302,0.87 3.302,0.87 1.043,1.952 2.542,3.955 3.631,5.164 0.563,0.624 1.412,1.242 2.431,1.891 5.261,5.106 23.868,27.354 35.102,41.513 11.236,14.159 32.275,40.154 38.97,49.672 6.694,9.517 10.518,18.799 11.475,45.027 0.956,26.23 -2.391,40.387 -6.933,57.565 -4.541,17.176 -16.018,36.904 -23.668,49.67 -7.65,12.765 -22.473,20.889 -26.536,22.514 -4.064,1.624 -6.935,2.553 -8.129,0.697 -1.196,-1.858 0.239,-2.786 2.152,-4.179 1.912,-1.393 10.04,-8.355 16.734,-14.622 6.696,-6.268 10.759,-11.142 21.038,-30.87 10.279,-19.729 14.823,-33.655 16.496,-51.297 1.672,-17.64 0.717,-26.923 -0.239,-44.331 -0.954,-17.408 -3.347,-17.408 -8.844,-26.695 -5.499,-9.283 -11.716,-16.246 -18.649,-25.761 -6.932,-9.517 -15.06,-21.123 -24.385,-34.12 -9.324,-12.997 -22.472,-26.925 -31.08,-37.602 z"
       style="fill:none;stroke:#231f20;stroke-width:0.5;stroke-linecap:round;stroke-linejoin:round;stroke-miterlimit:4;stroke-dasharray:2.8, 1.8;stroke-dashoffset:0;stroke-opacity:1"
       id="path179932" />
    <path
       d="m 749.561,674.683 c -3.245,5.639 -9.918,14.393 -8.375,18.371 1.544,3.979 9.435,3.746 14.934,2.122 5.498,-1.625 18.846,-8.476 28.171,-15.903 9.322,-7.427 13.304,-11.178 15.099,-13.807 12.088,-17.707 15.061,-25.531 21.279,-45.493 6.216,-19.962 6.455,-21.353 8.367,-42.243 1.912,-20.89 -1.912,-35.05 -7.651,-55.474 -5.737,-20.424 -13.627,-28.317 -24.624,-41.083 -10.998,-12.766 -27.254,-26.693 -42.794,-39.923 -15.539,-13.23 -28.21,-23.674 -34.665,-27.852 -6.455,-4.179 -5.737,1.161 -5.26,3.714 0.166,0.889 0.593,1.915 1.151,2.959"
       style="fill:none;stroke:#231f20;stroke-width:0.5;stroke-linecap:round;stroke-linejoin:round;stroke-miterlimit:4;stroke-dasharray:2.8, 1.8;stroke-dashoffset:0;stroke-opacity:1"
       id="path179934" />
    <path
       d="m 371.884,420.818 c -1.145,-0.457 -4.969,1.633 -6.642,3.489"
       style="fill:none;stroke:#231f20;stroke-width:0.5;stroke-linecap:round;stroke-linejoin:round;stroke-miterlimit:4;stroke-dasharray:2.8, 1.8;stroke-dashoffset:0;stroke-opacity:1"
       id="path179936" />
    <path
       d="m 358.745,427.126 c -2.017,1.286 -4.67,2.68 -6.893,4.375 -3.347,2.555 -13.148,11.607 -19.842,17.873 -6.694,6.268 -12.671,12.767 -23.191,25.765 -10.518,12.997 -26.298,33.191 -31.557,43.866 -5.258,10.679 -8.846,22.748 -10.041,32.496 -1.194,9.749 -0.238,25.068 1.913,39.691 2.152,14.622 4.782,28.317 10.52,42.012 5.736,13.694 18.315,37.253 28.283,43.114"
       style="fill:none;stroke:#231f20;stroke-width:0.5;stroke-linecap:round;stroke-linejoin:round;stroke-miterlimit:4;stroke-dasharray:2.8, 1.8;stroke-dashoffset:0;stroke-opacity:1"
       id="path179938" />
    <path
       d="m 365.242,424.307 c 0,0 3.585,-4.178 2.868,-5.106 -0.717,-0.929 -3.302,0.87 -3.302,0.87 -1.043,1.952 -2.542,3.955 -3.632,5.164 -0.562,0.624 -1.412,1.242 -2.431,1.891 -5.261,5.106 -23.867,27.354 -35.102,41.513 -11.236,14.159 -32.275,40.154 -38.969,49.672 -6.694,9.517 -10.518,18.799 -11.476,45.027 -0.956,26.23 2.392,40.387 6.933,57.565 4.541,17.176 16.019,36.904 23.668,49.67 7.651,12.765 22.473,20.889 26.536,22.514 4.065,1.624 6.936,2.553 8.129,0.697 1.196,-1.858 -0.239,-2.786 -2.151,-4.179 -1.912,-1.393 -10.041,-8.355 -16.734,-14.622 -6.696,-6.268 -10.76,-11.142 -21.038,-30.87 -10.28,-19.729 -14.823,-33.655 -16.496,-51.297 -1.672,-17.64 -0.718,-26.923 0.238,-44.331 0.955,-17.408 3.348,-17.408 8.845,-26.695 5.498,-9.283 11.715,-16.246 18.649,-25.761 6.931,-9.517 15.06,-21.123 24.385,-34.12 9.324,-12.997 22.472,-26.925 31.08,-37.602"
       style="fill:#b2b1b1;fill-opacity:1;fill-rule:nonzero;stroke:none;stroke-width:0.1"
       id="path179940" />
    <path
       d="m 365.242,424.307 c 0,0 3.585,-4.178 2.868,-5.106 -0.717,-0.929 -3.302,0.87 -3.302,0.87 -1.043,1.952 -2.542,3.955 -3.632,5.164 -0.562,0.624 -1.412,1.242 -2.431,1.891 -5.261,5.106 -23.867,27.354 -35.102,41.513 -11.236,14.159 -32.275,40.154 -38.969,49.672 -6.694,9.517 -10.518,18.799 -11.476,45.027 -0.956,26.23 2.392,40.387 6.933,57.565 4.541,17.176 16.019,36.904 23.668,49.67 7.651,12.765 22.473,20.889 26.536,22.514 4.065,1.624 6.936,2.553 8.129,0.697 1.196,-1.858 -0.239,-2.786 -2.151,-4.179 -1.912,-1.393 -10.041,-8.355 -16.734,-14.622 -6.696,-6.268 -10.76,-11.142 -21.038,-30.87 -10.28,-19.729 -14.823,-33.655 -16.496,-51.297 -1.672,-17.64 -0.718,-26.923 0.238,-44.331 0.955,-17.408 3.348,-17.408 8.845,-26.695 5.498,-9.283 11.715,-16.246 18.649,-25.761 6.931,-9.517 15.06,-21.123 24.385,-34.12 9.324,-12.997 22.472,-26.925 31.08,-37.602 z"
       style="fill:none;stroke:#231f20;stroke-width:0.5;stroke-linecap:round;stroke-linejoin:round;stroke-miterlimit:4;stroke-dasharray:2.8, 1.8;stroke-dashoffset:0;stroke-opacity:1"
       id="path179942" />
    <path
       d="m 330.439,674.683 c 3.245,5.639 9.919,14.393 8.375,18.371 -1.543,3.979 -9.435,3.746 -14.933,2.122 -5.498,-1.625 -18.846,-8.476 -28.171,-15.903 -9.323,-7.427 -13.304,-11.178 -15.1,-13.807 -12.087,-17.707 -15.061,-25.531 -21.278,-45.493 -6.217,-19.962 -6.455,-21.353 -8.367,-42.243 -1.912,-20.89 1.912,-35.05 7.65,-55.474 5.738,-20.424 13.627,-28.317 24.624,-41.083 10.999,-12.766 27.255,-26.693 42.794,-39.923 15.539,-13.23 28.211,-23.674 34.665,-27.852 6.456,-4.179 5.738,1.161 5.26,3.714 -0.166,0.889 -0.592,1.915 -1.15,2.959"
       style="fill:none;stroke:#231f20;stroke-width:0.5;stroke-linecap:round;stroke-linejoin:round;stroke-miterlimit:4;stroke-dasharray:2.8, 1.8;stroke-dashoffset:0;stroke-opacity:1"
       id="path179944" />
    <path
       d="m 824.462,400.631 c -6.847,-0.19 -19.43,-0.564 -28.87,2.391"
       style="fill:none;stroke:#231f20;stroke-width:0.5;stroke-linecap:round;stroke-linejoin:round;stroke-miterlimit:4;stroke-dasharray:2.8, 1.8;stroke-dashoffset:0;stroke-opacity:1"
       id="path179946" />
    <path
       d="m 795.592,403.022 c -2.053,0.644 -3.948,1.434 -5.614,2.431 1.272,0.266 2.495,0.515 3.675,0.75 8.129,1.624 25.102,4.875 40.402,12.534 15.302,7.659 23.429,13.694 33.47,31.101 10.041,17.409 12.431,32.726 14.344,49.206 1.915,16.481 1.675,27.159 0.479,43.406 -1.196,16.246 -2.631,22.282 -2.631,22.282 0,0 -0.954,2.319 -2.389,8.355 -1.435,6.036 -5.259,22.051 -8.606,34.817 -3.348,12.765 -7.89,32.495 -8.368,35.744 -0.478,3.25 -2.151,13.463 -10.28,30.175 -8.129,16.712 -15.78,30.869 -35.623,47.813 -19.841,16.945 -38.488,24.836 -57.614,33.888 -19.127,9.052 -36.34,15.783 -45.184,16.247 -8.361,0.438 -20.321,-2.553 -23.907,-7.659 -3.377,-4.81 -4.541,-17.408 -5.499,-24.371 -0.956,-6.964 -7.265,-22.746 -9.085,-22.746 -2.153,0 -1.197,3.945 0,8.123 1.196,4.177 1.828,6.237 2.391,8.82 1.525,6.995 2.152,14.391 2.152,18.104 0,3.713 3.586,12.999 7.171,16.016 3.962,3.334 14.823,6.964 25.819,6.034 10.999,-0.928 27.732,-4.642 50.923,-15.55 23.19,-10.91 40.162,-17.64 58.571,-35.977 18.41,-18.337 31.319,-38.53 38.253,-56.17 6.932,-17.64 13.386,-45.029 16.495,-57.563 2.169,-8.748 7.171,-26.693 8.635,-44.563 0.638,-7.807 2.094,-15.504 2.6,-22.516 1.675,-23.211 1.435,-44.566 -3.585,-62.901 -5.021,-18.336 -15.6,-42.976 -32.173,-54.116 -18.649,-12.534 -31.154,-18.001 -54.822,-21.714"
       style="fill:#b2b1b1;fill-opacity:1;fill-rule:nonzero;stroke:none;stroke-width:0.1"
       id="path179948" />
    <path
       d="m 795.592,403.022 c -2.053,0.644 -3.948,1.434 -5.614,2.431 1.272,0.266 2.495,0.515 3.675,0.75 8.129,1.624 25.102,4.875 40.402,12.534 15.302,7.659 23.429,13.694 33.47,31.101 10.041,17.409 12.431,32.726 14.344,49.206 1.915,16.481 1.675,27.159 0.479,43.406 -1.196,16.246 -2.631,22.282 -2.631,22.282 0,0 -0.954,2.319 -2.389,8.355 -1.435,6.036 -5.259,22.051 -8.606,34.817 -3.348,12.765 -7.89,32.495 -8.368,35.744 -0.478,3.25 -2.151,13.463 -10.28,30.175 -8.129,16.712 -15.78,30.869 -35.623,47.813 -19.841,16.945 -38.488,24.836 -57.614,33.888 -19.127,9.052 -36.34,15.783 -45.184,16.247 -8.361,0.438 -20.321,-2.553 -23.907,-7.659 -3.377,-4.81 -4.541,-17.408 -5.499,-24.371 -0.956,-6.964 -7.265,-22.746 -9.085,-22.746 -2.153,0 -1.197,3.945 0,8.123 1.196,4.177 1.828,6.237 2.391,8.82 1.525,6.995 2.152,14.391 2.152,18.104 0,3.713 3.586,12.999 7.171,16.016 3.962,3.334 14.823,6.964 25.819,6.034 10.999,-0.928 27.732,-4.642 50.923,-15.55 23.19,-10.91 40.162,-17.64 58.571,-35.977 18.41,-18.337 31.319,-38.53 38.253,-56.17 6.932,-17.64 13.386,-45.029 16.495,-57.563 2.169,-8.748 7.171,-26.693 8.635,-44.563 0.638,-7.807 2.094,-15.504 2.6,-22.516 1.675,-23.211 1.435,-44.566 -3.585,-62.901 -5.021,-18.336 -15.6,-42.976 -32.173,-54.116 -18.649,-12.534 -31.154,-18.001 -54.822,-21.714 z"
       style="fill:none;stroke:#231f20;stroke-width:0.5;stroke-linecap:round;stroke-linejoin:round;stroke-miterlimit:4;stroke-dasharray:2.8, 1.8;stroke-dashoffset:10.0039;stroke-opacity:1"
       id="path179950" />
    <path
       d="m 776.25,361.602 c -9.323,-2.785 -20.847,-5.535 -32.562,-5.999 -11.716,-0.464 -17.932,4.874 -19.604,9.748 -1.673,4.875 -0.956,10.91 8.846,17.641 9.8,6.73 21.517,12.301 31.797,15.783 8.788,2.976 17.756,5.106 25.251,6.678"
       style="fill:none;stroke:#231f20;stroke-width:0.5;stroke-linecap:round;stroke-linejoin:round;stroke-miterlimit:4;stroke-dasharray:2.8, 1.8;stroke-dashoffset:0;stroke-opacity:1"
       id="path179952" />
    <path
       d="m 255.539,400.631 c 6.846,-0.19 19.43,-0.564 28.87,2.391"
       style="fill:none;stroke:#231f20;stroke-width:0.5;stroke-linecap:round;stroke-linejoin:round;stroke-miterlimit:4;stroke-dasharray:2.8, 1.8;stroke-dashoffset:0;stroke-opacity:1"
       id="path179954" />
    <path
       d="m 284.409,403.022 c 2.053,0.644 3.948,1.434 5.614,2.431 -1.272,0.266 -2.496,0.515 -3.675,0.75 -8.129,1.624 -25.102,4.875 -40.403,12.534 -15.301,7.659 -23.429,13.694 -33.47,31.101 -10.04,17.409 -12.43,32.726 -14.344,49.206 -1.914,16.481 -1.674,27.159 -0.479,43.406 1.196,16.246 2.631,22.282 2.631,22.282 0,0 0.955,2.319 2.389,8.355 1.436,6.036 5.26,22.051 8.607,34.817 3.348,12.765 7.89,32.495 8.368,35.744 0.479,3.25 2.151,13.463 10.28,30.175 8.129,16.712 15.781,30.869 35.622,47.813 19.841,16.945 38.489,24.836 57.615,33.888 19.127,9.052 36.339,15.783 45.184,16.247 8.36,0.438 20.321,-2.553 23.907,-7.659 3.377,-4.81 4.541,-17.408 5.498,-24.371 0.957,-6.964 7.266,-22.746 9.085,-22.746 2.154,0 1.198,3.945 0,8.123 -1.195,4.177 -1.827,6.237 -2.39,8.82 -1.525,6.995 -2.152,14.391 -2.152,18.104 0,3.713 -3.586,12.999 -7.171,16.016 -3.963,3.334 -14.823,6.964 -25.82,6.034 -10.998,-0.928 -27.731,-4.642 -50.922,-15.55 -23.191,-10.91 -40.163,-17.64 -58.571,-35.977 -18.41,-18.337 -31.319,-38.53 -38.253,-56.17 -6.932,-17.64 -13.387,-45.029 -16.495,-57.563 -2.17,-8.748 -7.173,-26.693 -8.635,-44.563 -0.638,-7.807 -2.095,-15.504 -2.601,-22.516 -1.674,-23.211 -1.434,-44.566 3.587,-62.901 5.02,-18.336 15.599,-42.976 32.172,-54.116 18.649,-12.534 31.154,-18.001 54.822,-21.714"
       style="fill:#b2b1b1;fill-opacity:1;fill-rule:nonzero;stroke:none;stroke-width:0.1"
       id="path179956" />
    <path
       d="m 284.409,403.022 c 2.053,0.644 3.948,1.434 5.614,2.431 -1.272,0.266 -2.496,0.515 -3.675,0.75 -8.129,1.624 -25.102,4.875 -40.403,12.534 -15.301,7.659 -23.429,13.694 -33.47,31.101 -10.04,17.409 -12.43,32.726 -14.344,49.206 -1.914,16.481 -1.674,27.159 -0.479,43.406 1.196,16.246 2.631,22.282 2.631,22.282 0,0 0.955,2.319 2.389,8.355 1.436,6.036 5.26,22.051 8.607,34.817 3.348,12.765 7.89,32.495 8.368,35.744 0.479,3.25 2.151,13.463 10.28,30.175 8.129,16.712 15.781,30.869 35.622,47.813 19.841,16.945 38.489,24.836 57.615,33.888 19.127,9.052 36.339,15.783 45.184,16.247 8.36,0.438 20.321,-2.553 23.907,-7.659 3.377,-4.81 4.541,-17.408 5.498,-24.371 0.957,-6.964 7.266,-22.746 9.085,-22.746 2.154,0 1.198,3.945 0,8.123 -1.195,4.177 -1.827,6.237 -2.39,8.82 -1.525,6.995 -2.152,14.391 -2.152,18.104 0,3.713 -3.586,12.999 -7.171,16.016 -3.963,3.334 -14.823,6.964 -25.82,6.034 -10.998,-0.928 -27.731,-4.642 -50.922,-15.55 -23.191,-10.91 -40.163,-17.64 -58.571,-35.977 -18.41,-18.337 -31.319,-38.53 -38.253,-56.17 -6.932,-17.64 -13.387,-45.029 -16.495,-57.563 -2.17,-8.748 -7.173,-26.693 -8.635,-44.563 -0.638,-7.807 -2.095,-15.504 -2.601,-22.516 -1.674,-23.211 -1.434,-44.566 3.587,-62.901 5.02,-18.336 15.599,-42.976 32.172,-54.116 18.649,-12.534 31.154,-18.001 54.822,-21.714 z"
       style="fill:none;stroke:#231f20;stroke-width:0.5;stroke-linecap:round;stroke-linejoin:round;stroke-miterlimit:4;stroke-dasharray:2.8, 1.8;stroke-dashoffset:10.0039;stroke-opacity:1"
       id="path179958" />
    <path
       d="m 303.75,361.602 c 9.324,-2.785 20.848,-5.535 32.563,-5.999 11.715,-0.464 17.932,4.874 19.605,9.748 1.672,4.875 0.955,10.91 -8.847,17.641 -9.8,6.73 -21.517,12.301 -31.797,15.783 -8.788,2.976 -17.756,5.106 -25.251,6.678"
       style="fill:none;stroke:#231f20;stroke-width:0.5;stroke-linecap:round;stroke-linejoin:round;stroke-miterlimit:4;stroke-dasharray:2.8, 1.8;stroke-dashoffset:0;stroke-opacity:1"
       id="path179960" />
    <path
       d="m 540,776.761 53.075,-0.347"
       style="fill:none;stroke:#231f20;stroke-width:0.5;stroke-linecap:round;stroke-linejoin:round;stroke-miterlimit:4;stroke-dasharray:2.8, 1.8;stroke-dashoffset:0;stroke-opacity:1"
       id="path179962" />
    <path
       d="m 554.174,881.014 58.623,-78.837"
       style="fill:none;stroke:#231f20;stroke-width:0.5;stroke-linecap:round;stroke-linejoin:round;stroke-miterlimit:4;stroke-dasharray:2.8, 1.8;stroke-dashoffset:0;stroke-opacity:1"
       id="path179964" />
    <path
       d="m 626.069,901.165 5.257,-95.041"
       style="fill:none;stroke:#231f20;stroke-width:0.5;stroke-linecap:round;stroke-linejoin:round;stroke-miterlimit:4;stroke-dasharray:2.8, 1.8;stroke-dashoffset:0;stroke-opacity:1"
       id="path179966" />
    <path
       d="m 678.422,805.195 5.088,91.489"
       style="fill:none;stroke:#231f20;stroke-width:0.5;stroke-linecap:round;stroke-linejoin:round;stroke-miterlimit:4;stroke-dasharray:2.8, 1.8;stroke-dashoffset:0;stroke-opacity:1"
       id="path179968" />
    <path
       d="m 718.586,801.25 15.399,86.83"
       style="fill:none;stroke:#231f20;stroke-width:0.5;stroke-linecap:round;stroke-linejoin:round;stroke-miterlimit:4;stroke-dasharray:2.8, 1.8;stroke-dashoffset:0;stroke-opacity:1"
       id="path179970" />
    <path
       d="m 789.59,781.056 34.895,77.043"
       style="fill:none;stroke:#231f20;stroke-width:0.5;stroke-linecap:round;stroke-linejoin:round;stroke-miterlimit:4;stroke-dasharray:2.8, 1.8;stroke-dashoffset:0;stroke-opacity:1"
       id="path179972" />
    <path
       d="m 540,776.761 -53.073,-0.347"
       style="fill:none;stroke:#231f20;stroke-width:0.5;stroke-linecap:round;stroke-linejoin:round;stroke-miterlimit:4;stroke-dasharray:2.8, 1.8;stroke-dashoffset:0;stroke-opacity:1"
       id="path179974" />
    <path
       d="M 525.827,881.014 467.204,802.177"
       style="fill:none;stroke:#231f20;stroke-width:0.5;stroke-linecap:round;stroke-linejoin:round;stroke-miterlimit:4;stroke-dasharray:2.8, 1.8;stroke-dashoffset:0;stroke-opacity:1"
       id="path179976" />
    <path
       d="m 453.933,901.165 -5.258,-95.041"
       style="fill:none;stroke:#231f20;stroke-width:0.5;stroke-linecap:round;stroke-linejoin:round;stroke-miterlimit:4;stroke-dasharray:2.8, 1.8;stroke-dashoffset:0;stroke-opacity:1"
       id="path179978" />
    <path
       d="m 401.58,805.195 -5.088,91.489"
       style="fill:none;stroke:#231f20;stroke-width:0.5;stroke-linecap:round;stroke-linejoin:round;stroke-miterlimit:4;stroke-dasharray:2.8, 1.8;stroke-dashoffset:0;stroke-opacity:1"
       id="path179980" />
    <path
       d="m 361.416,801.25 -15.399,86.83"
       style="fill:none;stroke:#231f20;stroke-width:0.5;stroke-linecap:round;stroke-linejoin:round;stroke-miterlimit:4;stroke-dasharray:2.8, 1.8;stroke-dashoffset:0;stroke-opacity:1"
       id="path179982" />
    <path
       d="m 290.412,781.056 -34.895,77.043"
       style="fill:none;stroke:#231f20;stroke-width:0.5;stroke-linecap:round;stroke-linejoin:round;stroke-miterlimit:4;stroke-dasharray:2.8, 1.8;stroke-dashoffset:0;stroke-opacity:1"
       id="path179984" />
    <path
       d="m 560.436,719.116 c 5.743,-7.113 10.046,-13.727 26.9,-17.209 16.855,-3.482 45.902,-2.089 55.943,0.348 10.041,2.438 19.365,10.793 22.592,24.72 3.227,13.926 0.961,26.553 -5.258,36.08"
       style="fill:none;stroke:#231f20;stroke-width:0.5;stroke-linecap:round;stroke-linejoin:round;stroke-miterlimit:4;stroke-dasharray:2.8, 1.8;stroke-dashoffset:0;stroke-opacity:1"
       id="path179986" />
    <path
       d="m 544.663,742.642 c 0,0 3.227,2.089 5.737,1.74"
       style="fill:none;stroke:#231f20;stroke-width:0.5;stroke-linecap:round;stroke-linejoin:round;stroke-miterlimit:4;stroke-dasharray:2.8, 1.8;stroke-dashoffset:1.25;stroke-opacity:1"
       id="path179988" />
    <path
       d="m 862.453,415.428 c 9.257,-5.976 17.505,-9.109 28.262,-9.805 10.76,-0.697 26.245,5.518 40.524,-5.571 3.586,-2.786 9.734,-6.644 10.9,-7.526"
       style="fill:none;stroke:#231f20;stroke-width:0.5;stroke-linecap:round;stroke-linejoin:round;stroke-miterlimit:4;stroke-dasharray:2.8, 1.8;stroke-dashoffset:0;stroke-opacity:1"
       id="path179990" />
    <path
       d="m 823.132,394.145 c 0.525,-6.976 2.067,-16.397 5.814,-20.901 3.765,-4.527 4.752,-5.136 4.752,-5.136 7.53,6.964 16.137,8.965 27.613,8.965 11.475,0 15.061,-10.445 27.972,-11.837 10.036,-1.083 21.514,6.266 30.122,12.534 8.606,6.267 11.834,14.274 13.026,21.386"
       style="fill:none;stroke:#231f20;stroke-width:0.5;stroke-linecap:round;stroke-linejoin:round;stroke-miterlimit:4;stroke-dasharray:2.8, 1.8;stroke-dashoffset:0;stroke-opacity:1"
       id="path179992" />
    <path
       d="m 899.366,498.25 61.199,-5.023"
       style="fill:none;stroke:#231f20;stroke-width:0.5;stroke-linecap:round;stroke-linejoin:round;stroke-miterlimit:4;stroke-dasharray:2.8, 1.8;stroke-dashoffset:0;stroke-opacity:1"
       id="path179994" />
    <path
       d="m 901.139,531.308 62.275,-7.786"
       style="fill:none;stroke:#231f20;stroke-width:0.5;stroke-linecap:round;stroke-linejoin:round;stroke-miterlimit:4;stroke-dasharray:2.8, 1.8;stroke-dashoffset:0;stroke-opacity:1"
       id="path179996" />
    <path
       d="m 902.057,556.03 70.441,-5.228"
       style="fill:none;stroke:#231f20;stroke-width:0.5;stroke-linecap:round;stroke-linejoin:round;stroke-miterlimit:4;stroke-dasharray:2.8, 1.8;stroke-dashoffset:0;stroke-opacity:1"
       id="path179998" />
    <path
       d="m 902.355,582.139 c 1.271,-0.347 73,-0.707 73,-0.707"
       style="fill:none;stroke:#231f20;stroke-width:0.5;stroke-linecap:round;stroke-linejoin:round;stroke-miterlimit:4;stroke-dasharray:2.8, 1.8;stroke-dashoffset:0;stroke-opacity:1"
       id="path180000" />
    <path
       d="m 901.421,611.383 73.148,6.638"
       style="fill:none;stroke:#231f20;stroke-width:0.5;stroke-linecap:round;stroke-linejoin:round;stroke-miterlimit:4;stroke-dasharray:2.8, 1.8;stroke-dashoffset:0;stroke-opacity:1"
       id="path180002" />
    <path
       d="m 878.854,696.671 67.041,37.752"
       style="fill:none;stroke:#231f20;stroke-width:0.5;stroke-linecap:round;stroke-linejoin:round;stroke-miterlimit:4;stroke-dasharray:2.8, 1.8;stroke-dashoffset:0;stroke-opacity:1"
       id="path180004" />
    <path
       d="m 862.263,723.409 65.122,44.23"
       style="fill:none;stroke:#231f20;stroke-width:0.5;stroke-linecap:round;stroke-linejoin:round;stroke-miterlimit:4;stroke-dasharray:2.8, 1.8;stroke-dashoffset:0;stroke-opacity:1"
       id="path180006" />
    <path
       d="m 839.958,748.728 55.207,58.807"
       style="fill:none;stroke:#231f20;stroke-width:0.5;stroke-linecap:round;stroke-linejoin:round;stroke-miterlimit:4;stroke-dasharray:2.8, 1.8;stroke-dashoffset:0;stroke-opacity:1"
       id="path180008" />
    <path
       d="m 745.64,528.665 c 2.631,-3.019 6.632,-8.506 26.445,-0.591"
       style="fill:none;stroke:#231f20;stroke-width:0.5;stroke-linecap:round;stroke-linejoin:round;stroke-miterlimit:4;stroke-dasharray:2.8, 1.8;stroke-dashoffset:0;stroke-opacity:1"
       id="path180010" />
    <path
       d="m 753.276,524.11 c -2.416,-2.085 -4.568,-7.193 -4.568,-10.906"
       style="fill:none;stroke:#231f20;stroke-width:0.5;stroke-linecap:round;stroke-linejoin:round;stroke-miterlimit:4;stroke-dasharray:2.8, 1.8;stroke-dashoffset:0;stroke-opacity:1"
       id="path180012" />
    <path
       d="m 726.372,529.704 c -2.87,-4.178 -9.939,-20.679 -1.571,-31.356"
       style="fill:none;stroke:#231f20;stroke-width:0.5;stroke-linecap:round;stroke-linejoin:round;stroke-miterlimit:4;stroke-dasharray:2.8, 1.8;stroke-dashoffset:0;stroke-opacity:1"
       id="path180014" />
    <path
       d="m 626.784,439.626 c 3.825,5.802 19.843,20.889 33.948,30.173 14.104,9.285 38.174,30.018 59.728,25.802"
       style="fill:none;stroke:#231f20;stroke-width:0.5;stroke-linecap:round;stroke-linejoin:round;stroke-miterlimit:4;stroke-dasharray:2.8, 1.8;stroke-dashoffset:0;stroke-opacity:1"
       id="path180016" />
    <path
       d="m 628.696,433.36 c 2.63,1.16 5.017,2.755 13.148,9.979 8.833,7.847 24.148,18.105 31.08,23.675 6.932,5.57 21.512,15.202 24.981,25.59"
       style="fill:none;stroke:#231f20;stroke-width:0.5;stroke-linecap:round;stroke-linejoin:round;stroke-miterlimit:4;stroke-dasharray:2.8, 1.8;stroke-dashoffset:0;stroke-opacity:1"
       id="path180018" />
    <path
       d="m 690.795,481.922 c 4.363,3.429 6.275,5.053 14.163,4.589 7.89,-0.464 19.594,-2.686 23.782,-5.527"
       style="fill:none;stroke:#231f20;stroke-width:0.5;stroke-linecap:round;stroke-linejoin:round;stroke-miterlimit:4;stroke-dasharray:2.8, 1.8;stroke-dashoffset:0;stroke-opacity:1"
       id="path180020" />
    <path
       d="m 707.587,403.185 c 2.234,-1.084 5.171,-0.174 6.696,2.553 1.554,2.783 2.629,3.251 1.912,0.465 -0.718,-2.785 -3.346,-10.213 -9.562,-8.124 -6.217,2.089 -3.916,9.197 -3.348,11.373 0.411,1.575 2.392,2.088 2.631,-0.233 0.238,-2.32 -0.242,-5.105 1.671,-6.034"
       style="fill:#b2b1b1;fill-opacity:1;fill-rule:nonzero;stroke:none;stroke-width:0.1"
       id="path180022" />
    <path
       d="m 707.587,403.185 c 2.234,-1.084 5.171,-0.174 6.696,2.553 1.554,2.783 2.629,3.251 1.912,0.465 -0.718,-2.785 -3.346,-10.213 -9.562,-8.124 -6.217,2.089 -3.916,9.197 -3.348,11.373 0.411,1.575 2.392,2.088 2.631,-0.233 0.238,-2.32 -0.242,-5.105 1.671,-6.034 z"
       style="fill:none;stroke:#231f20;stroke-width:0.5;stroke-linecap:round;stroke-linejoin:round;stroke-miterlimit:4;stroke-dasharray:2.8, 1.8;stroke-dashoffset:0;stroke-opacity:1"
       id="path180024" />
    <path
       d="m 826.884,478.621 c 11.476,15.318 19.127,27.852 22.474,43.404 3.346,15.55 0.955,21.584 -3.825,33.189 -4.783,11.607 -8.368,19.73 -10.759,23.675 -2.392,3.946 -6.085,2.984 -5.8,-0.489"
       style="fill:none;stroke:#231f20;stroke-width:0.5;stroke-linecap:round;stroke-linejoin:round;stroke-miterlimit:4;stroke-dasharray:2.8, 1.8;stroke-dashoffset:0;stroke-opacity:1"
       id="path180026" />
    <path
       d="m 826.884,478.621 c 5.261,-0.233 17.212,5.105 22.712,15.086 5.498,9.981 9.563,26.218 9.563,36.673 0,12.535 -4.782,24.138 -8.367,32.958 -2.75,6.763 -4.305,14.16 -4.782,24.141 -0.477,9.979 -1.196,32.263 -6.216,47.813 -5.02,15.552 -9.084,28.318 -19.365,44.332 -10.28,16.016 -16.972,26.461 -30.122,35.978 -13.15,9.516 -28.929,16.943 -41.121,22.514 -12.192,5.57 -25.34,11.14 -33.228,9.98 -7.89,-1.16 -12.195,-7.427 -17.931,-12.765 -5.738,-5.339 -21.563,-20.143 -20.226,-32.354"
       style="fill:none;stroke:#231f20;stroke-width:0.5;stroke-linecap:round;stroke-linejoin:round;stroke-miterlimit:4;stroke-dasharray:2.8, 1.8;stroke-dashoffset:0;stroke-opacity:1"
       id="path180028" />
    <path
       d="m 816.972,653.396 c -0.056,-5.935 -1.794,-9.247 -5.729,-7.473"
       style="fill:none;stroke:#231f20;stroke-width:0.5;stroke-linecap:round;stroke-linejoin:round;stroke-miterlimit:4;stroke-dasharray:2.8, 1.8;stroke-dashoffset:0;stroke-opacity:1"
       id="path180030" />
    <path
       d="m 673.162,716.995 c 0.479,-4.643 2.248,-11.465 4.639,-14.018"
       style="fill:none;stroke:#231f20;stroke-width:0.5;stroke-linecap:round;stroke-linejoin:round;stroke-miterlimit:4;stroke-dasharray:2.8, 1.8;stroke-dashoffset:0;stroke-opacity:1"
       id="path180032" />
    <path
       d="m 794.969,370.458 c 10.041,2.437 42.764,8.095 45.542,-14.623 2.556,-20.883 -50.294,-20.019 -62.756,-14.97 -9.661,3.914 -17.493,9.815 -1.792,20.541 9.682,6.615 19.006,9.052 19.006,9.052 z"
       style="fill:none;stroke:#231f20;stroke-width:0.5;stroke-linecap:round;stroke-linejoin:round;stroke-miterlimit:4;stroke-dasharray:2.8, 1.8;stroke-dashoffset:0;stroke-opacity:1"
       id="path180034" />
    <path
       d="m 699.939,707.709 c 5.712,3.063 14.105,7.892 16.495,9.053 2.392,1.16 4.541,2.32 6.933,-0.696 2.391,-3.018 4.064,-4.643 7.412,-4.875 3.347,-0.232 5.976,0.93 8.845,2.322 2.87,1.393 5.976,3.945 11.953,0 5.977,-3.946 12.192,-8.589 16.257,-10.213 4.065,-1.625 13.626,-6.964 16.735,-10.213 3.109,-3.249 10.518,-10.909 14.344,-14.39 3.826,-3.482 7.427,-7.981 6.215,-9.982 -1.194,-1.972 -3.824,-5.105 -6.931,0.465 -3.11,5.57 -10.279,14.622 -16.257,19.032 -5.977,4.412 -15.54,8.124 -19.844,10.91 -4.302,2.785 -13.149,9.052 -17.93,8.356 -4.782,-0.696 -6.695,-2.089 -16.497,-0.232 -9.799,1.856 -19.84,0.928 -31.793,-8.124 0,0 10.757,1.161 22.233,-3.017 11.473,-4.178 23.429,-11.606 27.971,-16.944 4.541,-5.338 5.497,-7.892 5.497,-7.892 0,0 -11.953,8.356 -15.778,11.605 -3.825,3.25 -10.28,7.427 -19.125,9.981 -8.845,2.554 -15.301,3.018 -20.321,2.554 -5.021,-0.465 -7.173,0.928 -7.89,2.785 -0.717,1.856 -0.239,3.481 2.629,4.874 2.869,1.392 6.224,3.236 8.847,4.641"
       style="fill:#b2b1b1;fill-opacity:1;fill-rule:nonzero;stroke:none;stroke-width:0.1"
       id="path180036" />
    <path
       d="m 699.939,707.709 c 5.712,3.063 14.105,7.892 16.495,9.053 2.392,1.16 4.541,2.32 6.933,-0.696 2.391,-3.018 4.064,-4.643 7.412,-4.875 3.347,-0.232 5.976,0.93 8.845,2.322 2.87,1.393 5.976,3.945 11.953,0 5.977,-3.946 12.192,-8.589 16.257,-10.213 4.065,-1.625 13.626,-6.964 16.735,-10.213 3.109,-3.249 10.518,-10.909 14.344,-14.39 3.826,-3.482 7.427,-7.981 6.215,-9.982 -1.194,-1.972 -3.824,-5.105 -6.931,0.465 -3.11,5.57 -10.279,14.622 -16.257,19.032 -5.977,4.412 -15.54,8.124 -19.844,10.91 -4.302,2.785 -13.149,9.052 -17.93,8.356 -4.782,-0.696 -6.695,-2.089 -16.497,-0.232 -9.799,1.856 -19.84,0.928 -31.793,-8.124 0,0 10.757,1.161 22.233,-3.017 11.473,-4.178 23.429,-11.606 27.971,-16.944 4.541,-5.338 5.497,-7.892 5.497,-7.892 0,0 -11.953,8.356 -15.778,11.605 -3.825,3.25 -10.28,7.427 -19.125,9.981 -8.845,2.554 -15.301,3.018 -20.321,2.554 -5.021,-0.465 -7.173,0.928 -7.89,2.785 -0.717,1.856 -0.239,3.481 2.629,4.874 2.869,1.392 6.224,3.236 8.847,4.641 z"
       style="fill:none;stroke:#231f20;stroke-width:0.5;stroke-linecap:round;stroke-linejoin:round;stroke-miterlimit:4;stroke-dasharray:2.8, 1.8;stroke-dashoffset:0;stroke-opacity:1"
       id="path180038" />
    <path
       d="m 574.622,626.253 c 4.825,-0.245 21.586,-8.759 21.586,-23.847"
       style="fill:none;stroke:#231f20;stroke-width:0.5;stroke-linecap:round;stroke-linejoin:round;stroke-miterlimit:4;stroke-dasharray:2.8, 1.8;stroke-dashoffset:0;stroke-opacity:1"
       id="path180040" />
    <path
       d="m 557.452,568.444 c 4.26,-0.556 10.758,2.787 12.671,7.893 1.912,5.106 1.672,17.64 -5.737,18.336 -7.41,0.697 -11.475,-7.89 -13.148,-11.838 -1.676,-3.946 -2.003,-13.316 6.214,-14.391 z"
       style="fill:none;stroke:#231f20;stroke-width:0.5;stroke-linecap:round;stroke-linejoin:round;stroke-miterlimit:4;stroke-dasharray:2.8, 1.8;stroke-dashoffset:0;stroke-opacity:1"
       id="path180042" />
    <path
       d="m 580.136,605.563 c 3.375,1.413 13.417,1.413 18.198,-5.551 4.781,-6.963 4.304,-15.553 -1.673,-21.123 -5.978,-5.57 -14.187,-9.664 -21.558,-8.662"
       style="fill:none;stroke:#231f20;stroke-width:0.5;stroke-linecap:round;stroke-linejoin:round;stroke-miterlimit:4;stroke-dasharray:2.8, 1.8;stroke-dashoffset:0;stroke-opacity:1"
       id="path180044" />
    <path
       d="m 575.34,649.891 c -0.476,1.012 -5.218,2.346 -6.174,-1.832 -0.956,-4.179 -0.478,-11.373 3.587,-14.623 4.065,-3.25 6.693,-2.786 7.889,-0.232 1.196,2.552 -0.157,10.47 -2.159,12.744"
       style="fill:none;stroke:#231f20;stroke-width:0.5;stroke-linecap:round;stroke-linejoin:round;stroke-miterlimit:4;stroke-dasharray:2.8, 1.8;stroke-dashoffset:0;stroke-opacity:1"
       id="path180046" />
    <path
       d="m 602.869,681.827 c 2.875,-5.219 10.764,-18.913 20.089,-23.788 9.324,-4.874 28.121,-13.839 38.954,-11.637"
       style="fill:none;stroke:#231f20;stroke-width:0.5;stroke-linecap:round;stroke-linejoin:round;stroke-miterlimit:4;stroke-dasharray:2.8, 1.8;stroke-dashoffset:0;stroke-opacity:1"
       id="path180048" />
    <path
       d="m 622.958,658.039 c 0,0 -0.024,-6.657 -0.371,-9.015"
       style="fill:none;stroke:#231f20;stroke-width:0.5;stroke-linecap:round;stroke-linejoin:round;stroke-miterlimit:4;stroke-dasharray:2.8, 1.8;stroke-dashoffset:0;stroke-opacity:1"
       id="path180050" />
    <path
       d="m 626.065,679.393 c 5.021,-2.785 13.148,-7.428 21.277,-9.517 8.129,-2.088 20.106,-7.894 31.341,-4.412"
       style="fill:none;stroke:#231f20;stroke-width:0.5;stroke-linecap:round;stroke-linejoin:round;stroke-miterlimit:4;stroke-dasharray:2.8, 1.8;stroke-dashoffset:0;stroke-opacity:1"
       id="path180052" />
    <path
       d="m 645.454,670.409 c -4.781,-5.33 -5.477,-20.043 6.458,-23.613"
       style="fill:none;stroke:#231f20;stroke-width:0.5;stroke-linecap:round;stroke-linejoin:round;stroke-miterlimit:4;stroke-dasharray:2.8, 1.8;stroke-dashoffset:0;stroke-opacity:1"
       id="path180054" />
    <path
       d="m 686.154,678.146 c -3.189,-3.396 -7.971,-11.056 -7.971,-15.697 0,-4.642 2.032,-9.545 3.322,-10.982"
       style="fill:none;stroke:#231f20;stroke-width:0.5;stroke-linecap:round;stroke-linejoin:round;stroke-miterlimit:4;stroke-dasharray:2.8, 1.8;stroke-dashoffset:0;stroke-opacity:1"
       id="path180056" />
    <path
       d="m 689.226,643.184 c 2.631,-3.018 9.039,-8.355 20.036,-6.267 10.998,2.089 14.584,13.695 17.452,22.747"
       style="fill:none;stroke:#231f20;stroke-width:0.5;stroke-linecap:round;stroke-linejoin:round;stroke-miterlimit:4;stroke-dasharray:2.8, 1.8;stroke-dashoffset:0;stroke-opacity:1"
       id="path180058" />
    <path
       d="m 568.219,554.616 c 4.863,-2.854 12.663,-11.558 10.033,-19.362 -3.133,-9.298 -11.237,-12.533 -22.378,-8.529"
       style="fill:none;stroke:#231f20;stroke-width:0.5;stroke-linecap:round;stroke-linejoin:round;stroke-miterlimit:4;stroke-dasharray:2.8, 1.8;stroke-dashoffset:0;stroke-opacity:1"
       id="path180060" />
    <path
       d="m 570.655,560.067 c -2.923,0.256 -10.573,-2.299 -15.83,-6.942 -5.263,-4.64 -9.564,-13.926 -4.304,-22.513"
       style="fill:none;stroke:#231f20;stroke-width:0.5;stroke-linecap:round;stroke-linejoin:round;stroke-miterlimit:4;stroke-dasharray:2.8, 1.8;stroke-dashoffset:0;stroke-opacity:1"
       id="path180062" />
    <path
       d="m 542.632,536.878 c 1.433,0 5.02,-5.57 4.303,-13.695 -0.718,-8.123 -0.958,-19.031 -2.151,-19.031 -1.198,0 -3.111,10.214 -3.349,18.569 -0.238,8.356 -0.477,14.157 1.197,14.157 z"
       style="fill:none;stroke:#231f20;stroke-width:0.5;stroke-linecap:round;stroke-linejoin:round;stroke-miterlimit:4;stroke-dasharray:2.8, 1.8;stroke-dashoffset:0;stroke-opacity:1"
       id="path180064" />
    <path
       d="m 546.73,528.956 c 1.16,1.887 3.549,3.048 6.181,-0.433 2.631,-3.481 5.738,-12.767 5.975,-17.641 0.241,-4.874 -0.145,-10.328 -2.629,-13.461 -2.391,-3.018 -7.171,-6.036 -10.04,-2.554 -2.279,2.767 -1.291,7.095 -0.815,10.515"
       style="fill:none;stroke:#231f20;stroke-width:0.5;stroke-linecap:round;stroke-linejoin:round;stroke-miterlimit:4;stroke-dasharray:2.8, 1.8;stroke-dashoffset:0;stroke-opacity:1"
       id="path180066" />
    <path
       d="m 550.395,460.675 c -0.64,-5.247 -1.538,-10.449 -2.435,-13.313"
       style="fill:none;stroke:#231f20;stroke-width:0.5;stroke-linecap:round;stroke-linejoin:round;stroke-miterlimit:4;stroke-dasharray:2.8, 1.8;stroke-dashoffset:0;stroke-opacity:1"
       id="path180068" />
    <path
       d="m 546.217,494.867 c 0.524,-0.921 0.996,-1.875 1.424,-2.856"
       style="fill:none;stroke:#231f20;stroke-width:0.5;stroke-linecap:round;stroke-linejoin:round;stroke-miterlimit:4;stroke-dasharray:2.8, 1.8;stroke-dashoffset:0;stroke-opacity:1"
       id="path180070" />
    <path
       d="m 565.582,486.511 c 3.34,-7.095 11.657,-12.341 21.038,-11.372 11.235,1.16 33.23,17.871 28.448,31.566 -4.903,14.045 -32.992,11.14 -40.163,6.499 -7.173,-4.642 -13.149,-18.57 -9.323,-26.693 z"
       style="fill:none;stroke:#231f20;stroke-width:0.5;stroke-linecap:round;stroke-linejoin:round;stroke-miterlimit:4;stroke-dasharray:2.8, 1.8;stroke-dashoffset:0;stroke-opacity:1"
       id="path180072" />
    <path
       d="m 569.444,438.008 c 2.591,-4.418 10.242,-12.773 15.024,-16.951 4.781,-4.178 8.276,-7.035 9.083,-7.891 1.316,-1.392 1.914,-3.133 1.694,-5.476"
       style="fill:none;stroke:#231f20;stroke-width:0.5;stroke-linecap:round;stroke-linejoin:round;stroke-miterlimit:4;stroke-dasharray:2.8, 1.8;stroke-dashoffset:0;stroke-opacity:1"
       id="path180074" />
    <path
       d="m 566.137,454.35 c -2.23,3.612 -6.055,9.647 -2.707,13.36 3.348,3.714 7.889,3.25 14.582,-0.463 6.696,-3.714 11.278,-6.201 15.78,-9.052 3.285,-2.081 7.68,-5.108 13.179,-4.875"
       style="fill:none;stroke:#231f20;stroke-width:0.5;stroke-linecap:round;stroke-linejoin:round;stroke-miterlimit:4;stroke-dasharray:2.8, 1.8;stroke-dashoffset:0;stroke-opacity:1"
       id="path180076" />
    <path
       d="m 613.873,403.418 c -0.24,4.178 0.958,9.052 3.826,14.39 2.869,5.338 14.343,17.408 11.714,20.193 -2.629,2.786 -5.5,2.787 -12.91,-6.73 -7.411,-9.518 -12.126,-21.031 -14.311,-27.924"
       style="fill:none;stroke:#231f20;stroke-width:0.5;stroke-linecap:round;stroke-linejoin:round;stroke-miterlimit:4;stroke-dasharray:2.8, 1.8;stroke-dashoffset:0;stroke-opacity:1"
       id="path180078" />
    <path
       d="m 622.449,437.776 c -5.467,-3.024 -15.033,-9.754 -17.421,-14.861 -2.39,-5.107 -3.523,-12.323 -2.119,-17.419"
       style="fill:none;stroke:#231f20;stroke-width:0.5;stroke-linecap:round;stroke-linejoin:round;stroke-miterlimit:4;stroke-dasharray:2.8, 1.8;stroke-dashoffset:0;stroke-opacity:1"
       id="path180080" />
    <path
       d="m 617.809,454.447 c 8.256,2.355 31.202,9.016 38.019,11.952"
       style="fill:none;stroke:#231f20;stroke-width:0.5;stroke-linecap:round;stroke-linejoin:round;stroke-miterlimit:4;stroke-dasharray:2.8, 1.8;stroke-dashoffset:0;stroke-opacity:1"
       id="path180082" />
    <path
       d="m 643.299,499.9 c 1.892,6.341 10.499,19.107 13.846,22.125 3.348,3.017 6.214,4.178 9.563,3.481 3.348,-0.696 11.476,-3.481 16.257,-5.57 4.781,-2.091 10.518,-3.019 9.801,-7.196 -0.717,-4.178 -2.139,-9.052 -4.774,-10.793"
       style="fill:none;stroke:#231f20;stroke-width:0.5;stroke-linecap:round;stroke-linejoin:round;stroke-miterlimit:4;stroke-dasharray:2.8, 1.8;stroke-dashoffset:0;stroke-opacity:1"
       id="path180084" />
    <path
       d="m 687.238,500.89 c 4.094,0.941 28.226,6.345 33.732,7.124"
       style="fill:none;stroke:#231f20;stroke-width:0.5;stroke-linecap:round;stroke-linejoin:round;stroke-miterlimit:4;stroke-dasharray:2.8, 1.8;stroke-dashoffset:0;stroke-opacity:1"
       id="path180086" />
    <path
       d="m 724.555,526.438 c -7.165,-2.324 -33.097,-8.261 -32.443,-10.98"
       style="fill:none;stroke:#231f20;stroke-width:0.5;stroke-linecap:round;stroke-linejoin:round;stroke-miterlimit:4;stroke-dasharray:2.8, 1.8;stroke-dashoffset:0;stroke-opacity:1"
       id="path180088" />
    <path
       d="m 692.808,513.647 c 0.914,-0.907 6.652,0.719 12.39,1.878 5.738,1.16 13.143,2.488 16.732,3.682"
       style="fill:none;stroke:#231f20;stroke-width:0.5;stroke-linecap:round;stroke-linejoin:round;stroke-miterlimit:4;stroke-dasharray:2.8, 1.8;stroke-dashoffset:0;stroke-opacity:1"
       id="path180090" />
    <path
       d="m 636.347,589.103 c 4.947,16.665 12.191,34.585 16.734,43.637 4.542,9.052 12.192,19.961 18.887,20.425 6.694,0.464 14.583,-1.625 18.647,-13.462 3.073,-8.953 7.65,-20.889 5.261,-40.156 -0.697,-5.616 -0.537,-12.06 -2.632,-18.335 -8.607,-25.764 -18.647,-56.17 -37.055,-55.009 -18.409,1.159 -25.102,24.137 -24.863,35.278 0.238,11.142 3.827,23.601 5.021,27.622 z"
       style="fill:none;stroke:#231f20;stroke-width:0.5;stroke-linecap:round;stroke-linejoin:round;stroke-miterlimit:4;stroke-dasharray:2.8, 1.8;stroke-dashoffset:0;stroke-opacity:1"
       id="path180092" />
    <path
       d="m 654.273,526.41 c 7.893,2.344 19.607,10.468 25.105,24.86 5.499,14.391 9.325,26.227 11.237,45.492 1.912,19.267 3.775,37.921 -9.11,54.705"
       style="fill:none;stroke:#231f20;stroke-width:0.5;stroke-linecap:round;stroke-linejoin:round;stroke-miterlimit:4;stroke-dasharray:2.8, 1.8;stroke-dashoffset:0;stroke-opacity:1"
       id="path180094" />
    <path
       d="m 672.71,535.001 c 4.755,0.95 22.498,3.501 36.604,3.734"
       style="fill:none;stroke:#231f20;stroke-width:0.5;stroke-linecap:round;stroke-linejoin:round;stroke-miterlimit:4;stroke-dasharray:2.8, 1.8;stroke-dashoffset:0;stroke-opacity:1"
       id="path180096" />
    <path
       d="m 731.802,609.641 c -3.825,1.16 -15.128,0.121 -20.149,-5.916 -5.02,-6.035 -9.564,-20.658 -9.802,-30.638 -0.239,-9.979 2.391,-27.622 5.259,-30.407"
       style="fill:none;stroke:#231f20;stroke-width:0.5;stroke-linecap:round;stroke-linejoin:round;stroke-miterlimit:4;stroke-dasharray:2.8, 1.8;stroke-dashoffset:0;stroke-opacity:1"
       id="path180098" />
    <path
       d="m 712.371,539.199 c 2.151,1.857 1.194,5.57 -0.24,12.534 -1.434,6.963 -2.152,14.622 -1.673,22.282 0.478,7.659 2.151,10.679 3.107,13.464 0.957,2.785 4.745,13.039 -0.257,17.892"
       style="fill:none;stroke:#231f20;stroke-width:0.5;stroke-linecap:round;stroke-linejoin:round;stroke-miterlimit:4;stroke-dasharray:2.8, 1.8;stroke-dashoffset:0;stroke-opacity:1"
       id="path180100" />
    <path
       d="m 703.517,584.694 c 3.116,-1.859 6.224,-3.02 13.873,-1.162 7.651,1.858 15.54,-0.697 19.604,-1.623 4.063,-0.93 18.369,-2.24 21.477,-3.632"
       style="fill:none;stroke:#231f20;stroke-width:0.5;stroke-linecap:round;stroke-linejoin:round;stroke-miterlimit:4;stroke-dasharray:2.8, 1.8;stroke-dashoffset:0;stroke-opacity:1"
       id="path180102" />
    <path
       d="m 715.716,618.118 c 6.217,-3.948 17.929,-8.125 25.58,-15.089 7.652,-6.963 19.126,-24.603 20.082,-34.119 0.957,-9.518 -0.955,-25.534 -6.931,-31.335 -5.978,-5.802 -14.105,-9.052 -25.821,-5.106 -11.714,3.945 -19.686,8.184 -21.516,10.211 0,0 1.259,-4.972 7.65,-7.89 8.28,-3.781 13.151,-7.195 24.624,-6.963 11.476,0.231 17.453,6.731 20.323,12.302 2.869,5.571 5.976,16.246 5.976,26.46 0,10.211 -6.964,22.187 -12.911,30.405 -6.215,8.59 -9.083,12.534 -22.71,17.176 -9.919,3.379 -14.346,3.948 -14.346,3.948 z"
       style="fill:none;stroke:#231f20;stroke-width:0.5;stroke-linecap:round;stroke-linejoin:round;stroke-miterlimit:4;stroke-dasharray:2.8, 1.8;stroke-dashoffset:0;stroke-opacity:1"
       id="path180104" />
    <path
       d="m 763.568,577.428 c 3.535,2.624 15.147,14.45 15.53,22.816"
       style="fill:none;stroke:#231f20;stroke-width:0.5;stroke-linecap:round;stroke-linejoin:round;stroke-miterlimit:4;stroke-dasharray:2.8, 1.8;stroke-dashoffset:0;stroke-opacity:1"
       id="path180106" />
    <path
       d="m 693.106,632.236 c 1.188,-4.232 7.31,-11.566 22.61,-14.118"
       style="fill:none;stroke:#231f20;stroke-width:0.5;stroke-linecap:round;stroke-linejoin:round;stroke-miterlimit:4;stroke-dasharray:2.8, 1.8;stroke-dashoffset:0;stroke-opacity:1"
       id="path180108" />
    <path
       d="m 723.88,667.877 c 1.878,-4.732 6.182,-17.033 6.182,-25.389 0,-8.356 0.121,-25.53 1.973,-29.012"
       style="fill:none;stroke:#231f20;stroke-width:0.5;stroke-linecap:round;stroke-linejoin:round;stroke-miterlimit:4;stroke-dasharray:2.8, 1.8;stroke-dashoffset:0;stroke-opacity:1"
       id="path180110" />
    <path
       d="m 729.489,665.855 c 2.485,-7.119 5.353,-16.172 5.353,-25.92 0,-9.749 -1.164,-26.057 3.992,-29.381"
       style="fill:none;stroke:#231f20;stroke-width:0.5;stroke-linecap:round;stroke-linejoin:round;stroke-miterlimit:4;stroke-dasharray:2.8, 1.8;stroke-dashoffset:0;stroke-opacity:1"
       id="path180112" />
    <path
       d="m 496.809,379.771 c -1.95,13.84 34.944,26.548 43.191,26.548 8.249,0 45.143,-12.708 43.191,-26.548"
       style="fill:none;stroke:#231f20;stroke-width:0.5;stroke-linecap:round;stroke-linejoin:round;stroke-miterlimit:4;stroke-dasharray:2.8, 1.8;stroke-dashoffset:0;stroke-opacity:1"
       id="path180114" />
    <path
       d="m 519.566,719.116 c -5.743,-7.113 -10.047,-13.727 -26.9,-17.209 -16.855,-3.482 -45.903,-2.089 -55.944,0.348 -10.041,2.438 -19.364,10.793 -22.591,24.72 -3.229,13.926 -0.962,26.553 5.256,36.08"
       style="fill:none;stroke:#231f20;stroke-width:0.5;stroke-linecap:round;stroke-linejoin:round;stroke-miterlimit:4;stroke-dasharray:2.8, 1.8;stroke-dashoffset:0;stroke-opacity:1"
       id="path180116" />
    <path
       d="m 535.338,742.642 c 0,0 -3.227,2.089 -5.736,1.74"
       style="fill:none;stroke:#231f20;stroke-width:0.5;stroke-linecap:round;stroke-linejoin:round;stroke-miterlimit:4;stroke-dasharray:2.8, 1.8;stroke-dashoffset:1.25;stroke-opacity:1"
       id="path180118" />
    <path
       d="m 217.549,415.428 c -9.258,-5.976 -17.506,-9.109 -28.264,-9.805 -10.758,-0.697 -26.244,5.518 -40.522,-5.571 -3.587,-2.786 -9.734,-6.644 -10.9,-7.526"
       style="fill:none;stroke:#231f20;stroke-width:0.5;stroke-linecap:round;stroke-linejoin:round;stroke-miterlimit:4;stroke-dasharray:2.8, 1.8;stroke-dashoffset:0;stroke-opacity:1"
       id="path180120" />
    <path
       d="m 256.87,394.145 c -0.527,-6.976 -2.069,-16.397 -5.816,-20.901 -3.765,-4.527 -4.751,-5.136 -4.751,-5.136 -7.53,6.964 -16.136,8.965 -27.612,8.965 -11.476,0 -15.063,-10.445 -27.972,-11.837 -10.036,-1.083 -21.516,6.266 -30.122,12.534 -8.607,6.267 -11.834,14.274 -13.026,21.386"
       style="fill:none;stroke:#231f20;stroke-width:0.5;stroke-linecap:round;stroke-linejoin:round;stroke-miterlimit:4;stroke-dasharray:2.8, 1.8;stroke-dashoffset:0;stroke-opacity:1"
       id="path180122" />
    <path
       d="m 180.636,498.25 -61.2,-5.023"
       style="fill:none;stroke:#231f20;stroke-width:0.5;stroke-linecap:round;stroke-linejoin:round;stroke-miterlimit:4;stroke-dasharray:2.8, 1.8;stroke-dashoffset:0;stroke-opacity:1"
       id="path180124" />
    <path
       d="m 178.863,531.308 -62.275,-7.786"
       style="fill:none;stroke:#231f20;stroke-width:0.5;stroke-linecap:round;stroke-linejoin:round;stroke-miterlimit:4;stroke-dasharray:2.8, 1.8;stroke-dashoffset:0;stroke-opacity:1"
       id="path180126" />
    <path
       d="m 177.945,556.03 -70.441,-5.228"
       style="fill:none;stroke:#231f20;stroke-width:0.5;stroke-linecap:round;stroke-linejoin:round;stroke-miterlimit:4;stroke-dasharray:2.8, 1.8;stroke-dashoffset:0;stroke-opacity:1"
       id="path180128" />
    <path
       d="m 177.647,582.139 c -1.271,-0.347 -73.001,-0.707 -73.001,-0.707"
       style="fill:none;stroke:#231f20;stroke-width:0.5;stroke-linecap:round;stroke-linejoin:round;stroke-miterlimit:4;stroke-dasharray:2.8, 1.8;stroke-dashoffset:0;stroke-opacity:1"
       id="path180130" />
    <path
       d="m 178.581,611.383 -73.149,6.638"
       style="fill:none;stroke:#231f20;stroke-width:0.5;stroke-linecap:round;stroke-linejoin:round;stroke-miterlimit:4;stroke-dasharray:2.8, 1.8;stroke-dashoffset:0;stroke-opacity:1"
       id="path180132" />
    <path
       d="m 201.147,696.671 -67.041,37.752"
       style="fill:none;stroke:#231f20;stroke-width:0.5;stroke-linecap:round;stroke-linejoin:round;stroke-miterlimit:4;stroke-dasharray:2.8, 1.8;stroke-dashoffset:0;stroke-opacity:1"
       id="path180134" />
    <path
       d="m 217.739,723.409 -65.122,44.23"
       style="fill:none;stroke:#231f20;stroke-width:0.5;stroke-linecap:round;stroke-linejoin:round;stroke-miterlimit:4;stroke-dasharray:2.8, 1.8;stroke-dashoffset:0;stroke-opacity:1"
       id="path180136" />
    <path
       d="m 240.042,748.728 -55.205,58.807"
       style="fill:none;stroke:#231f20;stroke-width:0.5;stroke-linecap:round;stroke-linejoin:round;stroke-miterlimit:4;stroke-dasharray:2.8, 1.8;stroke-dashoffset:0;stroke-opacity:1"
       id="path180138" />
    <path
       d="m 334.36,528.665 c -2.629,-3.019 -6.631,-8.506 -26.444,-0.591"
       style="fill:none;stroke:#231f20;stroke-width:0.5;stroke-linecap:round;stroke-linejoin:round;stroke-miterlimit:4;stroke-dasharray:2.8, 1.8;stroke-dashoffset:0;stroke-opacity:1"
       id="path180140" />
    <path
       d="m 326.726,524.11 c 2.414,-2.085 4.567,-7.193 4.567,-10.906"
       style="fill:none;stroke:#231f20;stroke-width:0.5;stroke-linecap:round;stroke-linejoin:round;stroke-miterlimit:4;stroke-dasharray:2.8, 1.8;stroke-dashoffset:0;stroke-opacity:1"
       id="path180142" />
    <path
       d="m 353.63,529.704 c 2.869,-4.178 9.939,-20.679 1.571,-31.356"
       style="fill:none;stroke:#231f20;stroke-width:0.5;stroke-linecap:round;stroke-linejoin:round;stroke-miterlimit:4;stroke-dasharray:2.8, 1.8;stroke-dashoffset:0;stroke-opacity:1"
       id="path180144" />
    <path
       d="m 453.218,439.626 c -3.825,5.802 -19.843,20.889 -33.948,30.173 -14.104,9.285 -38.175,30.018 -59.728,25.802"
       style="fill:none;stroke:#231f20;stroke-width:0.5;stroke-linecap:round;stroke-linejoin:round;stroke-miterlimit:4;stroke-dasharray:2.8, 1.8;stroke-dashoffset:0;stroke-opacity:1"
       id="path180146" />
    <path
       d="m 451.306,433.36 c -2.631,1.16 -5.019,2.755 -13.149,9.979 -8.832,7.847 -24.147,18.105 -31.079,23.675 -6.933,5.57 -21.512,15.202 -24.981,25.59"
       style="fill:none;stroke:#231f20;stroke-width:0.5;stroke-linecap:round;stroke-linejoin:round;stroke-miterlimit:4;stroke-dasharray:2.8, 1.8;stroke-dashoffset:0;stroke-opacity:1"
       id="path180148" />
    <path
       d="m 389.207,481.922 c -4.364,3.429 -6.276,5.053 -14.165,4.589 -7.888,-0.464 -19.592,-2.686 -23.781,-5.527"
       style="fill:none;stroke:#231f20;stroke-width:0.5;stroke-linecap:round;stroke-linejoin:round;stroke-miterlimit:4;stroke-dasharray:2.8, 1.8;stroke-dashoffset:0;stroke-opacity:1"
       id="path180150" />
    <path
       d="m 372.413,403.185 c -2.233,-1.084 -5.17,-0.174 -6.694,2.553 -1.554,2.783 -2.631,3.251 -1.912,0.465 0.717,-2.785 3.344,-10.213 9.562,-8.124 6.216,2.089 3.914,9.197 3.347,11.373 -0.41,1.575 -2.392,2.088 -2.631,-0.233 -0.237,-2.32 0.242,-5.105 -1.672,-6.034"
       style="fill:#b2b1b1;fill-opacity:1;fill-rule:nonzero;stroke:none;stroke-width:0.1"
       id="path180152" />
    <path
       d="m 372.413,403.185 c -2.233,-1.084 -5.17,-0.174 -6.694,2.553 -1.554,2.783 -2.631,3.251 -1.912,0.465 0.717,-2.785 3.344,-10.213 9.562,-8.124 6.216,2.089 3.914,9.197 3.347,11.373 -0.41,1.575 -2.392,2.088 -2.631,-0.233 -0.237,-2.32 0.242,-5.105 -1.672,-6.034 z"
       style="fill:none;stroke:#231f20;stroke-width:0.5;stroke-linecap:round;stroke-linejoin:round;stroke-miterlimit:4;stroke-dasharray:2.8, 1.8;stroke-dashoffset:0;stroke-opacity:1"
       id="path180154" />
    <path
       d="m 253.117,478.621 c -11.475,15.318 -19.126,27.852 -22.473,43.404 -3.348,15.55 -0.955,21.584 3.825,33.189 4.781,11.607 8.367,19.73 10.758,23.675 2.393,3.946 6.086,2.984 5.801,-0.489"
       style="fill:none;stroke:#231f20;stroke-width:0.5;stroke-linecap:round;stroke-linejoin:round;stroke-miterlimit:4;stroke-dasharray:2.8, 1.8;stroke-dashoffset:0;stroke-opacity:1"
       id="path180156" />
    <path
       d="m 253.117,478.621 c -5.26,-0.233 -17.211,5.105 -22.711,15.086 -5.5,9.981 -9.564,26.218 -9.564,36.673 0,12.535 4.781,24.138 8.367,32.958 2.749,6.763 4.304,14.16 4.783,24.141 0.477,9.979 1.194,32.263 6.216,47.813 5.019,15.552 9.083,28.318 19.365,44.332 10.28,16.016 16.972,26.461 30.122,35.978 13.148,9.516 28.928,16.943 41.12,22.514 12.192,5.57 25.341,11.14 33.229,9.98 7.89,-1.16 12.193,-7.427 17.931,-12.765 5.738,-5.339 21.563,-20.143 20.225,-32.354"
       style="fill:none;stroke:#231f20;stroke-width:0.5;stroke-linecap:round;stroke-linejoin:round;stroke-miterlimit:4;stroke-dasharray:2.8, 1.8;stroke-dashoffset:0;stroke-opacity:1"
       id="path180158" />
    <path
       d="m 263.03,653.396 c 0.055,-5.935 1.794,-9.247 5.727,-7.473"
       style="fill:none;stroke:#231f20;stroke-width:0.5;stroke-linecap:round;stroke-linejoin:round;stroke-miterlimit:4;stroke-dasharray:2.8, 1.8;stroke-dashoffset:0;stroke-opacity:1"
       id="path180160" />
    <path
       d="M 406.838,716.995 C 406.36,712.352 404.59,705.53 402.2,702.977"
       style="fill:none;stroke:#231f20;stroke-width:0.5;stroke-linecap:round;stroke-linejoin:round;stroke-miterlimit:4;stroke-dasharray:2.8, 1.8;stroke-dashoffset:0;stroke-opacity:1"
       id="path180162" />
    <path
       d="m 285.033,370.458 c -10.041,2.437 -42.764,8.095 -45.544,-14.623 -2.554,-20.883 50.296,-20.019 62.756,-14.97 9.662,3.914 17.494,9.815 1.794,20.541 -9.683,6.615 -19.006,9.052 -19.006,9.052 z"
       style="fill:none;stroke:#231f20;stroke-width:0.5;stroke-linecap:round;stroke-linejoin:round;stroke-miterlimit:4;stroke-dasharray:2.8, 1.8;stroke-dashoffset:0;stroke-opacity:1"
       id="path180164" />
    <path
       d="m 380.063,707.709 c -5.712,3.063 -14.105,7.892 -16.495,9.053 -2.392,1.16 -4.543,2.32 -6.934,-0.696 -2.39,-3.018 -4.065,-4.643 -7.411,-4.875 -3.347,-0.232 -5.976,0.93 -8.847,2.322 -2.868,1.393 -5.975,3.945 -11.953,0 -5.976,-3.946 -12.19,-8.589 -16.255,-10.213 -4.065,-1.625 -13.627,-6.964 -16.735,-10.213 -3.109,-3.249 -10.519,-10.909 -14.346,-14.39 -3.825,-3.482 -7.426,-7.981 -6.214,-9.982 1.195,-1.972 3.824,-5.105 6.932,0.465 3.109,5.57 10.279,14.622 16.257,19.032 5.977,4.412 15.54,8.124 19.844,10.91 4.302,2.785 13.148,9.052 17.929,8.356 4.781,-0.696 6.695,-2.089 16.497,-0.232 9.8,1.856 19.841,0.928 31.794,-8.124 0,0 -10.757,1.161 -22.233,-3.017 -11.475,-4.178 -23.43,-11.606 -27.971,-16.944 -4.541,-5.338 -5.499,-7.892 -5.499,-7.892 0,0 11.953,8.356 15.78,11.605 3.825,3.25 10.278,7.427 19.126,9.981 8.844,2.554 15.299,3.018 20.32,2.554 5.02,-0.465 7.172,0.928 7.89,2.785 0.716,1.856 0.239,3.481 -2.63,4.874 -2.868,1.392 -6.224,3.236 -8.846,4.641"
       style="fill:#b2b1b1;fill-opacity:1;fill-rule:nonzero;stroke:none;stroke-width:0.1"
       id="path180166" />
    <path
       d="m 380.063,707.709 c -5.712,3.063 -14.105,7.892 -16.495,9.053 -2.392,1.16 -4.543,2.32 -6.934,-0.696 -2.39,-3.018 -4.065,-4.643 -7.411,-4.875 -3.347,-0.232 -5.976,0.93 -8.847,2.322 -2.868,1.393 -5.975,3.945 -11.953,0 -5.976,-3.946 -12.19,-8.589 -16.255,-10.213 -4.065,-1.625 -13.627,-6.964 -16.735,-10.213 -3.109,-3.249 -10.519,-10.909 -14.346,-14.39 -3.825,-3.482 -7.426,-7.981 -6.214,-9.982 1.195,-1.972 3.824,-5.105 6.932,0.465 3.109,5.57 10.279,14.622 16.257,19.032 5.977,4.412 15.54,8.124 19.844,10.91 4.302,2.785 13.148,9.052 17.929,8.356 4.781,-0.696 6.695,-2.089 16.497,-0.232 9.8,1.856 19.841,0.928 31.794,-8.124 0,0 -10.757,1.161 -22.233,-3.017 -11.475,-4.178 -23.43,-11.606 -27.971,-16.944 -4.541,-5.338 -5.499,-7.892 -5.499,-7.892 0,0 11.953,8.356 15.78,11.605 3.825,3.25 10.278,7.427 19.126,9.981 8.844,2.554 15.299,3.018 20.32,2.554 5.02,-0.465 7.172,0.928 7.89,2.785 0.716,1.856 0.239,3.481 -2.63,4.874 -2.868,1.392 -6.224,3.236 -8.846,4.641 z"
       style="fill:none;stroke:#231f20;stroke-width:0.5;stroke-linecap:round;stroke-linejoin:round;stroke-miterlimit:4;stroke-dasharray:2.8, 1.8;stroke-dashoffset:0;stroke-opacity:1"
       id="path180168" />
    <path
       d="m 505.38,626.253 c -4.827,-0.245 -21.586,-8.759 -21.586,-23.847"
       style="fill:none;stroke:#231f20;stroke-width:0.5;stroke-linecap:round;stroke-linejoin:round;stroke-miterlimit:4;stroke-dasharray:2.8, 1.8;stroke-dashoffset:0;stroke-opacity:1"
       id="path180170" />
    <path
       d="m 522.548,568.444 c -4.26,-0.556 -10.758,2.787 -12.671,7.893 -1.912,5.106 -1.672,17.64 5.739,18.336 7.41,0.697 11.473,-7.89 13.148,-11.838 1.674,-3.946 2.003,-13.316 -6.216,-14.391 z"
       style="fill:none;stroke:#231f20;stroke-width:0.5;stroke-linecap:round;stroke-linejoin:round;stroke-miterlimit:4;stroke-dasharray:2.8, 1.8;stroke-dashoffset:0;stroke-opacity:1"
       id="path180172" />
    <path
       d="m 499.866,605.563 c -3.376,1.413 -13.418,1.413 -18.198,-5.551 -4.781,-6.963 -4.304,-15.553 1.673,-21.123 5.978,-5.57 14.187,-9.664 21.558,-8.662"
       style="fill:none;stroke:#231f20;stroke-width:0.5;stroke-linecap:round;stroke-linejoin:round;stroke-miterlimit:4;stroke-dasharray:2.8, 1.8;stroke-dashoffset:0;stroke-opacity:1"
       id="path180174" />
    <path
       d="m 504.661,649.891 c 0.477,1.012 5.218,2.346 6.174,-1.832 0.955,-4.179 0.479,-11.373 -3.586,-14.623 -4.065,-3.25 -6.693,-2.786 -7.889,-0.232 -1.197,2.552 0.156,10.47 2.158,12.744"
       style="fill:none;stroke:#231f20;stroke-width:0.5;stroke-linecap:round;stroke-linejoin:round;stroke-miterlimit:4;stroke-dasharray:2.8, 1.8;stroke-dashoffset:0;stroke-opacity:1"
       id="path180176" />
    <path
       d="m 477.133,681.827 c -2.877,-5.219 -10.766,-18.913 -20.089,-23.788 -9.324,-4.874 -28.122,-13.839 -38.956,-11.637"
       style="fill:none;stroke:#231f20;stroke-width:0.5;stroke-linecap:round;stroke-linejoin:round;stroke-miterlimit:4;stroke-dasharray:2.8, 1.8;stroke-dashoffset:0;stroke-opacity:1"
       id="path180178" />
    <path
       d="m 457.044,658.039 c 0,0 0.022,-6.657 0.371,-9.015"
       style="fill:none;stroke:#231f20;stroke-width:0.5;stroke-linecap:round;stroke-linejoin:round;stroke-miterlimit:4;stroke-dasharray:2.8, 1.8;stroke-dashoffset:0;stroke-opacity:1"
       id="path180180" />
    <path
       d="m 453.935,679.393 c -5.019,-2.785 -13.146,-7.428 -21.276,-9.517 -8.129,-2.088 -20.104,-7.894 -31.342,-4.412"
       style="fill:none;stroke:#231f20;stroke-width:0.5;stroke-linecap:round;stroke-linejoin:round;stroke-miterlimit:4;stroke-dasharray:2.8, 1.8;stroke-dashoffset:0;stroke-opacity:1"
       id="path180182" />
    <path
       d="m 434.548,670.409 c 4.78,-5.33 5.476,-20.043 -6.458,-23.613"
       style="fill:none;stroke:#231f20;stroke-width:0.5;stroke-linecap:round;stroke-linejoin:round;stroke-miterlimit:4;stroke-dasharray:2.8, 1.8;stroke-dashoffset:0;stroke-opacity:1"
       id="path180184" />
    <path
       d="m 393.846,678.146 c 3.191,-3.396 7.973,-11.056 7.973,-15.697 0,-4.642 -2.033,-9.545 -3.322,-10.982"
       style="fill:none;stroke:#231f20;stroke-width:0.5;stroke-linecap:round;stroke-linejoin:round;stroke-miterlimit:4;stroke-dasharray:2.8, 1.8;stroke-dashoffset:0;stroke-opacity:1"
       id="path180186" />
    <path
       d="m 390.774,643.184 c -2.63,-3.018 -9.037,-8.355 -20.035,-6.267 -10.997,2.089 -14.583,13.695 -17.451,22.747"
       style="fill:none;stroke:#231f20;stroke-width:0.5;stroke-linecap:round;stroke-linejoin:round;stroke-miterlimit:4;stroke-dasharray:2.8, 1.8;stroke-dashoffset:0;stroke-opacity:1"
       id="path180188" />
    <path
       d="m 511.783,554.616 c -4.864,-2.854 -12.663,-11.558 -10.034,-19.362 3.133,-9.298 11.238,-12.533 22.378,-8.529"
       style="fill:none;stroke:#231f20;stroke-width:0.5;stroke-linecap:round;stroke-linejoin:round;stroke-miterlimit:4;stroke-dasharray:2.8, 1.8;stroke-dashoffset:0;stroke-opacity:1"
       id="path180190" />
    <path
       d="m 509.347,560.067 c 2.921,0.256 10.571,-2.299 15.83,-6.942 5.261,-4.64 9.564,-13.926 4.304,-22.513"
       style="fill:none;stroke:#231f20;stroke-width:0.5;stroke-linecap:round;stroke-linejoin:round;stroke-miterlimit:4;stroke-dasharray:2.8, 1.8;stroke-dashoffset:0;stroke-opacity:1"
       id="path180192" />
    <path
       d="m 537.37,536.878 c -1.433,0 -5.02,-5.57 -4.303,-13.695 0.718,-8.123 0.956,-19.031 2.151,-19.031 1.196,0 3.11,10.214 3.349,18.569 0.238,8.356 0.477,14.157 -1.197,14.157 z"
       style="fill:none;stroke:#231f20;stroke-width:0.5;stroke-linecap:round;stroke-linejoin:round;stroke-miterlimit:4;stroke-dasharray:2.8, 1.8;stroke-dashoffset:0;stroke-opacity:1"
       id="path180194" />
    <path
       d="m 533.271,528.956 c -1.16,1.887 -3.55,3.048 -6.18,-0.433 -2.63,-3.481 -5.738,-12.767 -5.977,-17.641 -0.239,-4.874 0.147,-10.328 2.631,-13.461 2.39,-3.018 7.171,-6.036 10.04,-2.554 2.28,2.767 1.291,7.095 0.815,10.515"
       style="fill:none;stroke:#231f20;stroke-width:0.5;stroke-linecap:round;stroke-linejoin:round;stroke-miterlimit:4;stroke-dasharray:2.8, 1.8;stroke-dashoffset:0;stroke-opacity:1"
       id="path180196" />
    <path
       d="m 529.607,460.675 c 0.64,-5.247 1.537,-10.449 2.435,-13.313"
       style="fill:none;stroke:#231f20;stroke-width:0.5;stroke-linecap:round;stroke-linejoin:round;stroke-miterlimit:4;stroke-dasharray:2.8, 1.8;stroke-dashoffset:0;stroke-opacity:1"
       id="path180198" />
    <path
       d="m 533.785,494.867 c -0.524,-0.921 -0.996,-1.875 -1.425,-2.856"
       style="fill:none;stroke:#231f20;stroke-width:0.5;stroke-linecap:round;stroke-linejoin:round;stroke-miterlimit:4;stroke-dasharray:2.8, 1.8;stroke-dashoffset:0;stroke-opacity:1"
       id="path180200" />
    <path
       d="m 514.42,486.511 c -3.34,-7.095 -11.657,-12.341 -21.038,-11.372 -11.236,1.16 -33.231,17.871 -28.448,31.566 4.904,14.045 32.99,11.14 40.163,6.499 7.171,-4.642 13.148,-18.57 9.323,-26.693 z"
       style="fill:none;stroke:#231f20;stroke-width:0.5;stroke-linecap:round;stroke-linejoin:round;stroke-miterlimit:4;stroke-dasharray:2.8, 1.8;stroke-dashoffset:0;stroke-opacity:1"
       id="path180202" />
    <path
       d="m 528.471,427.445 c 2.816,4.53 3.402,15.894 3.64,19.841 0.239,3.947 5.259,5.105 7.889,5.105 2.632,0 7.652,-1.158 7.89,-5.105 0.237,-3.947 0.825,-15.311 3.639,-19.841"
       style="fill:none;stroke:#231f20;stroke-width:0.5;stroke-linecap:round;stroke-linejoin:round;stroke-miterlimit:4;stroke-dasharray:2.8, 1.8;stroke-dashoffset:0;stroke-opacity:1"
       id="path180204" />
    <path
       d="m 510.558,438.008 c -2.593,-4.418 -10.244,-12.773 -15.024,-16.951 -4.781,-4.178 -8.276,-7.035 -9.085,-7.891 -1.315,-1.392 -1.913,-3.133 -1.694,-5.476"
       style="fill:none;stroke:#231f20;stroke-width:0.5;stroke-linecap:round;stroke-linejoin:round;stroke-miterlimit:4;stroke-dasharray:2.8, 1.8;stroke-dashoffset:0;stroke-opacity:1"
       id="path180206" />
    <path
       d="m 513.865,454.35 c 2.229,3.612 6.053,9.647 2.707,13.36 -3.347,3.714 -7.889,3.25 -14.583,-0.463 -6.695,-3.714 -11.277,-6.201 -15.779,-9.052 -3.285,-2.081 -7.68,-5.108 -13.179,-4.875"
       style="fill:none;stroke:#231f20;stroke-width:0.5;stroke-linecap:round;stroke-linejoin:round;stroke-miterlimit:4;stroke-dasharray:2.8, 1.8;stroke-dashoffset:0;stroke-opacity:1"
       id="path180208" />
    <path
       d="m 466.127,403.418 c 0.24,4.178 -0.956,9.052 -3.825,14.39 -2.868,5.338 -14.342,17.408 -11.714,20.193 2.63,2.786 5.5,2.787 12.911,-6.73 7.411,-9.518 12.126,-21.031 14.31,-27.924"
       style="fill:none;stroke:#231f20;stroke-width:0.5;stroke-linecap:round;stroke-linejoin:round;stroke-miterlimit:4;stroke-dasharray:2.8, 1.8;stroke-dashoffset:0;stroke-opacity:1"
       id="path180210" />
    <path
       d="m 457.553,437.776 c 5.467,-3.024 15.031,-9.754 17.422,-14.861 2.389,-5.107 3.521,-12.323 2.118,-17.419"
       style="fill:none;stroke:#231f20;stroke-width:0.5;stroke-linecap:round;stroke-linejoin:round;stroke-miterlimit:4;stroke-dasharray:2.8, 1.8;stroke-dashoffset:0;stroke-opacity:1"
       id="path180212" />
    <path
       d="m 462.193,454.447 c -8.258,2.355 -31.202,9.016 -38.019,11.952"
       style="fill:none;stroke:#231f20;stroke-width:0.5;stroke-linecap:round;stroke-linejoin:round;stroke-miterlimit:4;stroke-dasharray:2.8, 1.8;stroke-dashoffset:0;stroke-opacity:1"
       id="path180214" />
    <path
       d="m 436.703,499.9 c -1.893,6.341 -10.5,19.107 -13.848,22.125 -3.346,3.017 -6.214,4.178 -9.561,3.481 -3.348,-0.696 -11.476,-3.481 -16.257,-5.57 -4.782,-2.091 -10.52,-3.019 -9.801,-7.196 0.717,-4.178 2.138,-9.052 4.774,-10.793"
       style="fill:none;stroke:#231f20;stroke-width:0.5;stroke-linecap:round;stroke-linejoin:round;stroke-miterlimit:4;stroke-dasharray:2.8, 1.8;stroke-dashoffset:0;stroke-opacity:1"
       id="path180216" />
    <path
       d="m 392.764,500.89 c -4.095,0.941 -28.228,6.345 -33.732,7.124"
       style="fill:none;stroke:#231f20;stroke-width:0.5;stroke-linecap:round;stroke-linejoin:round;stroke-miterlimit:4;stroke-dasharray:2.8, 1.8;stroke-dashoffset:0;stroke-opacity:1"
       id="path180218" />
    <path
       d="m 355.447,526.438 c 7.163,-2.324 33.096,-8.261 32.443,-10.98"
       style="fill:none;stroke:#231f20;stroke-width:0.5;stroke-linecap:round;stroke-linejoin:round;stroke-miterlimit:4;stroke-dasharray:2.8, 1.8;stroke-dashoffset:0;stroke-opacity:1"
       id="path180220" />
    <path
       d="m 387.194,513.647 c -0.916,-0.907 -6.653,0.719 -12.392,1.878 -5.737,1.16 -13.141,2.488 -16.73,3.682"
       style="fill:none;stroke:#231f20;stroke-width:0.5;stroke-linecap:round;stroke-linejoin:round;stroke-miterlimit:4;stroke-dasharray:2.8, 1.8;stroke-dashoffset:0;stroke-opacity:1"
       id="path180222" />
    <path
       d="m 443.655,589.103 c -4.947,16.665 -12.191,34.585 -16.734,43.637 -4.543,9.052 -12.193,19.961 -18.887,20.425 -6.694,0.464 -14.583,-1.625 -18.647,-13.462 -3.073,-8.953 -7.65,-20.889 -5.261,-40.156 0.697,-5.616 0.535,-12.06 2.631,-18.335 8.608,-25.764 18.648,-56.17 37.056,-55.009 18.407,1.159 25.102,24.137 24.862,35.278 -0.238,11.142 -3.827,23.601 -5.02,27.622 z"
       style="fill:none;stroke:#231f20;stroke-width:0.5;stroke-linecap:round;stroke-linejoin:round;stroke-miterlimit:4;stroke-dasharray:2.8, 1.8;stroke-dashoffset:0;stroke-opacity:1"
       id="path180224" />
    <path
       d="m 425.729,526.41 c -7.894,2.344 -19.608,10.468 -25.107,24.86 -5.497,14.391 -9.323,26.227 -11.235,45.492 -1.912,19.267 -3.775,37.921 9.11,54.705"
       style="fill:none;stroke:#231f20;stroke-width:0.5;stroke-linecap:round;stroke-linejoin:round;stroke-miterlimit:4;stroke-dasharray:2.8, 1.8;stroke-dashoffset:0;stroke-opacity:1"
       id="path180226" />
    <path
       d="m 407.291,535.001 c -4.755,0.95 -22.499,3.501 -36.604,3.734"
       style="fill:none;stroke:#231f20;stroke-width:0.5;stroke-linecap:round;stroke-linejoin:round;stroke-miterlimit:4;stroke-dasharray:2.8, 1.8;stroke-dashoffset:0;stroke-opacity:1"
       id="path180228" />
    <path
       d="m 348.2,609.641 c 3.825,1.16 15.129,0.121 20.148,-5.916 5.021,-6.035 9.565,-20.658 9.803,-30.638 0.238,-9.979 -2.391,-27.622 -5.261,-30.407"
       style="fill:none;stroke:#231f20;stroke-width:0.5;stroke-linecap:round;stroke-linejoin:round;stroke-miterlimit:4;stroke-dasharray:2.8, 1.8;stroke-dashoffset:0;stroke-opacity:1"
       id="path180230" />
    <path
       d="m 367.631,539.199 c -2.151,1.857 -1.195,5.57 0.24,12.534 1.434,6.963 2.152,14.622 1.673,22.282 -0.479,7.659 -2.151,10.679 -3.108,13.464 -0.956,2.785 -4.744,13.039 0.258,17.892"
       style="fill:none;stroke:#231f20;stroke-width:0.5;stroke-linecap:round;stroke-linejoin:round;stroke-miterlimit:4;stroke-dasharray:2.8, 1.8;stroke-dashoffset:0;stroke-opacity:1"
       id="path180232" />
    <path
       d="m 376.484,584.694 c -3.115,-1.859 -6.224,-3.02 -13.874,-1.162 -7.65,1.858 -15.539,-0.697 -19.603,-1.623 -4.064,-0.93 -18.368,-2.24 -21.477,-3.632"
       style="fill:none;stroke:#231f20;stroke-width:0.5;stroke-linecap:round;stroke-linejoin:round;stroke-miterlimit:4;stroke-dasharray:2.8, 1.8;stroke-dashoffset:0;stroke-opacity:1"
       id="path180234" />
    <path
       d="m 364.285,618.118 c -6.216,-3.948 -17.93,-8.125 -25.581,-15.089 -7.652,-6.963 -19.124,-24.603 -20.081,-34.119 -0.957,-9.518 0.956,-25.534 6.932,-31.335 5.978,-5.802 14.105,-9.052 25.821,-5.106 11.712,3.945 19.685,8.184 21.514,10.211 0,0 -1.258,-4.972 -7.648,-7.89 -8.282,-3.781 -13.15,-7.195 -24.626,-6.963 -11.476,0.231 -17.452,6.731 -20.321,12.302 -2.868,5.571 -5.976,16.246 -5.976,26.46 0,10.211 6.962,22.187 12.909,30.405 6.217,8.59 9.085,12.534 22.712,17.176 9.917,3.379 14.345,3.948 14.345,3.948 z"
       style="fill:none;stroke:#231f20;stroke-width:0.5;stroke-linecap:round;stroke-linejoin:round;stroke-miterlimit:4;stroke-dasharray:2.8, 1.8;stroke-dashoffset:0;stroke-opacity:1"
       id="path180236" />
    <path
       d="m 316.432,577.428 c -3.533,2.624 -15.145,14.45 -15.528,22.816"
       style="fill:none;stroke:#231f20;stroke-width:0.5;stroke-linecap:round;stroke-linejoin:round;stroke-miterlimit:4;stroke-dasharray:2.8, 1.8;stroke-dashoffset:0;stroke-opacity:1"
       id="path180238" />
    <path
       d="m 386.894,632.236 c -1.186,-4.232 -7.309,-11.566 -22.609,-14.118"
       style="fill:none;stroke:#231f20;stroke-width:0.5;stroke-linecap:round;stroke-linejoin:round;stroke-miterlimit:4;stroke-dasharray:2.8, 1.8;stroke-dashoffset:0;stroke-opacity:1"
       id="path180240" />
    <path
       d="m 356.121,667.877 c -1.877,-4.732 -6.181,-17.033 -6.181,-25.389 0,-8.356 -0.122,-25.53 -1.973,-29.012"
       style="fill:none;stroke:#231f20;stroke-width:0.5;stroke-linecap:round;stroke-linejoin:round;stroke-miterlimit:4;stroke-dasharray:2.8, 1.8;stroke-dashoffset:0;stroke-opacity:1"
       id="path180242" />
    <path
       d="m 350.511,665.855 c -2.483,-7.119 -5.352,-16.172 -5.352,-25.92 0,-9.749 1.164,-26.057 -3.991,-29.381"
       style="fill:none;stroke:#231f20;stroke-width:0.5;stroke-linecap:round;stroke-linejoin:round;stroke-miterlimit:4;stroke-dasharray:2.8, 1.8;stroke-dashoffset:0;stroke-opacity:1"
       id="path180244" />
    <path
       d="m 547.646,491.998 c 2.704,-6.189 3.592,-13.371 3.592,-19.181 0,-3.119 -0.291,-7.609 -0.843,-12.142"
       style="fill:none;stroke:#231f20;stroke-width:0.5;stroke-linecap:round;stroke-linejoin:round;stroke-miterlimit:4;stroke-dasharray:2.8, 1.8;stroke-dashoffset:0;stroke-opacity:1"
       id="path180246" />
    <path
       d="m 532.356,491.998 c -2.705,-6.189 -3.592,-13.371 -3.592,-19.181 0,-3.119 0.289,-7.609 0.843,-12.142"
       style="fill:none;stroke:#231f20;stroke-width:0.5;stroke-linecap:round;stroke-linejoin:round;stroke-miterlimit:4;stroke-dasharray:2.8, 1.8;stroke-dashoffset:0;stroke-opacity:1"
       id="path180248" />
  </g>
</svg>
