<?xml version="1.0" encoding="UTF-8" standalone="no"?>
<!-- Created with Inkscape (http://www.inkscape.org/) -->

<svg
   version="1.1"
   id="svg2"
   width="1440"
   height="1344"
   viewBox="0 0 1440 1344"
   xmlns="http://www.w3.org/2000/svg"
   xmlns:svg="http://www.w3.org/2000/svg">
  <defs
     id="defs6" />
  <g
     id="g10">
    <path
       d="m 543.949,335.154 c 0,-2.179 -1.769,-3.946 -3.947,-3.946 -2.18,0 -3.947,1.767 -3.947,3.946 0,2.178 1.767,3.946 3.947,3.946 2.178,0 3.947,-1.768 3.947,-3.946"
       style="fill:#ffffff;fill-opacity:1;fill-rule:nonzero;stroke:none;stroke-width:0.1"
       id="path674" />
    <path
       d="m 543.949,335.154 c 0,-2.179 -1.769,-3.946 -3.947,-3.946 -2.18,0 -3.947,1.767 -3.947,3.946 0,2.178 1.767,3.946 3.947,3.946 2.178,0 3.947,-1.768 3.947,-3.946 z"
       style="fill:none;stroke:#231f20;stroke-width:0.5;stroke-linecap:butt;stroke-linejoin:miter;stroke-miterlimit:4;stroke-dasharray:none;stroke-opacity:1"
       id="path676" />
    <path
       d="m 676.965,429.171 c 9.035,5.116 20.894,7.894 27.394,8.358 6.501,0.464 9.982,1.391 15.555,-3.715 5.571,-5.106 10.446,-12.07 15.785,-14.393 5.339,-2.321 10.678,-5.802 11.375,-11.606 0.696,-5.804 -1.161,-9.518 -6.036,-7.661 -4.875,1.857 -7.197,3.249 -9.286,5.106 -2.088,1.859 -3.019,2.554 -5.339,0.696 -2.322,-1.856 -4.411,-3.712 -10.678,-6.498 -6.269,-2.786 -11.609,-5.804 -16.251,-9.287 -4.643,-3.481 -11.143,-8.126 -13.929,-9.982 -2.785,-1.857 -8.59,-3.483 -11.142,1.393 -2.553,4.874 -5.107,13 -7.428,18.572 -2.322,5.572 -5.572,9.981 -6.965,12.071 -1.393,2.089 4.642,9.983 16.945,16.946"
       style="fill:#ffffff;fill-opacity:1;fill-rule:nonzero;stroke:none;stroke-width:0.1"
       id="path678" />
    <path
       d="m 676.965,429.171 c 9.035,5.116 20.894,7.894 27.394,8.358 6.501,0.464 9.982,1.391 15.555,-3.715 5.571,-5.106 10.446,-12.07 15.785,-14.393 5.339,-2.321 10.678,-5.802 11.375,-11.606 0.696,-5.804 -1.161,-9.518 -6.036,-7.661 -4.875,1.857 -7.197,3.249 -9.286,5.106 -2.088,1.859 -3.019,2.554 -5.339,0.696 -2.322,-1.856 -4.411,-3.712 -10.678,-6.498 -6.269,-2.786 -11.609,-5.804 -16.251,-9.287 -4.643,-3.481 -11.143,-8.126 -13.929,-9.982 -2.785,-1.857 -8.59,-3.483 -11.142,1.393 -2.553,4.874 -5.107,13 -7.428,18.572 -2.322,5.572 -5.572,9.981 -6.965,12.071 -1.393,2.089 4.642,9.983 16.945,16.946 z"
       style="fill:none;stroke:#231f20;stroke-width:0.75;stroke-linecap:round;stroke-linejoin:round;stroke-miterlimit:4;stroke-dasharray:none;stroke-opacity:1"
       id="path680" />
    <path
       d="m 693.397,706.483 c -11.678,16.258 -19.371,23.937 -25.716,27.957 -6.965,4.411 -40.624,22.054 -66.857,27.625 -6.447,1.248 -18.805,3.482 -30.876,17.411 -12.071,13.929 -18.107,39.696 -16.366,59.545 1.741,19.848 15.67,39 39,48.054 23.331,9.053 46.313,11.142 97.5,3.83 51.188,-7.313 104.464,-24.375 154.608,-53.974 50.142,-29.598 103.768,-94.017 121.179,-127.795 17.41,-33.776 18.455,-107.943 11.142,-128.838 -7.312,-20.894 -9.401,-27.858 -20.196,-33.082 -10.795,-5.222 -7.313,-11.839 -3.483,-17.062 3.832,-5.223 6.269,-8.705 3.483,-23.33 -2.786,-14.625 -9.75,-42.134 -38.652,-66.509 -28.902,-24.375 -76.955,-46.661 -97.848,-48.402 -20.894,-1.742 -51.885,-1.393 -58.5,10.098 -6.616,11.491 -14.277,14.973 -18.804,17.759 -4.527,2.785 -11.491,10.098 -15.321,23.679 -3.831,13.58 -1.394,21.937 -4.527,29.597 -3.134,7.662 -3.483,20.198 1.392,31.34 4.875,11.143 17.76,24.724 22.983,42.483 5.223,17.758 7.661,28.205 9.402,41.089 1.74,12.883 5.919,36.214 -1.045,44.919 -6.965,8.705 -28.554,29.25 -35.866,39 -7.313,9.75 -20.543,27.182 -26.632,34.606"
       style="fill:#ffffff;fill-opacity:1;fill-rule:nonzero;stroke:none;stroke-width:0.1"
       id="path682" />
    <path
       d="m 693.397,706.483 c -11.678,16.258 -19.371,23.937 -25.716,27.957 -6.965,4.411 -40.624,22.054 -66.857,27.625 -6.447,1.248 -18.805,3.482 -30.876,17.411 -12.071,13.929 -18.107,39.696 -16.366,59.545 1.741,19.848 15.67,39 39,48.054 23.331,9.053 46.313,11.142 97.5,3.83 51.188,-7.313 104.464,-24.375 154.608,-53.974 50.142,-29.598 103.768,-94.017 121.179,-127.795 17.41,-33.776 18.455,-107.943 11.142,-128.838 -7.312,-20.894 -9.401,-27.858 -20.196,-33.082 -10.795,-5.222 -7.313,-11.839 -3.483,-17.062 3.832,-5.223 6.269,-8.705 3.483,-23.33 -2.786,-14.625 -9.75,-42.134 -38.652,-66.509 -28.902,-24.375 -76.955,-46.661 -97.848,-48.402 -20.894,-1.742 -51.885,-1.393 -58.5,10.098 -6.616,11.491 -14.277,14.973 -18.804,17.759 -4.527,2.785 -11.491,10.098 -15.321,23.679 -3.831,13.58 -1.394,21.937 -4.527,29.597 -3.134,7.662 -3.483,20.198 1.392,31.34 4.875,11.143 17.76,24.724 22.983,42.483 5.223,17.758 7.661,28.205 9.402,41.089 1.74,12.883 5.919,36.214 -1.045,44.919 -6.965,8.705 -28.554,29.25 -35.866,39 -7.313,9.75 -20.543,27.182 -26.632,34.606 z"
       style="fill:none;stroke:#231f20;stroke-width:0.75;stroke-linecap:round;stroke-linejoin:round;stroke-miterlimit:4;stroke-dasharray:none;stroke-opacity:1"
       id="path684" />
    <path
       d="m 540.002,339.1 c -5.804,0 -22.514,-3.946 -27.858,-3.946 -7.893,0 -25.535,2.089 -39.464,8.357 -13.929,6.268 -23.909,16.018 -28.554,24.375 -4.643,8.357 -8.587,20.661 -3.481,23.911 5.105,3.249 0.232,6.034 -1.394,7.196 -1.625,1.161 -4.409,7.662 -9.75,17.179 -5.339,9.518 -12.071,21.356 -24.607,35.749 -12.535,14.394 -23.679,28.555 -25.768,31.109 -2.089,2.552 -1.394,6.033 -0.232,7.891 1.161,1.859 -1.159,8.126 -2.321,10.913 -1.161,2.785 -9.284,18.802 -13.928,28.087 -4.645,9.287 -8.59,17.645 -12.769,24.375 -4.178,6.734 -6.964,18.108 -7.661,36.68 -0.696,18.571 0.464,30.874 3.947,37.375 2.942,5.49 15.089,15.785 18.339,20.196 3.249,4.411 8.125,19.732 9.054,24.607 0,0 -4.18,8.59 9.517,28.322 1.218,1.753 2.394,3.421 3.534,5.007 11.678,16.258 19.371,23.937 25.717,27.957 6.964,4.411 40.624,22.054 66.856,27.625 26.234,5.571 33.431,1.857 44.572,-7.196 11.144,-9.053 15.089,-16.249 14.858,-25.768 -0.233,-9.517 1.393,-28.321 -4.179,-32.5 0,0 3.715,0.464 5.572,-0.929 1.858,1.393 5.571,0.929 5.571,0.929 -5.571,4.179 -3.947,22.983 -4.179,32.5 -0.23,9.519 3.714,16.715 14.856,25.768 11.144,9.053 18.34,12.767 44.574,7.196 26.233,-5.571 59.892,-23.214 66.857,-27.625 6.345,-4.02 14.038,-11.699 25.716,-27.957 1.14,-1.586 2.316,-3.254 3.534,-5.007 13.697,-19.732 9.518,-28.322 9.518,-28.322 0.928,-4.875 5.803,-20.196 9.053,-24.607 3.25,-4.411 15.398,-14.706 18.339,-20.196 3.483,-6.501 4.643,-18.804 3.947,-37.375 -0.697,-18.572 -3.483,-29.946 -7.661,-36.68 -4.178,-6.73 -8.125,-15.088 -12.768,-24.375 -4.644,-9.285 -12.768,-25.302 -13.929,-28.087 -1.162,-2.787 -3.482,-9.054 -2.32,-10.913 1.161,-1.858 1.856,-5.339 -0.234,-7.891 -2.088,-2.554 -13.231,-16.715 -25.767,-31.109 -12.535,-14.393 -19.268,-26.231 -24.607,-35.749 -5.34,-9.517 -8.126,-16.018 -9.75,-17.179 -1.626,-1.162 -6.5,-3.947 -1.393,-7.196 5.105,-3.25 1.161,-15.554 -3.483,-23.911 -4.643,-8.357 -14.624,-18.107 -28.553,-24.375 -13.929,-6.268 -31.571,-8.357 -39.464,-8.357 -5.343,0 -22.055,3.946 -27.857,3.946"
       style="fill:#ffffff;fill-opacity:1;fill-rule:nonzero;stroke:none;stroke-width:0.1"
       id="path686" />
    <path
       d="m 540.002,339.1 c -5.804,0 -22.514,-3.946 -27.858,-3.946 -7.893,0 -25.535,2.089 -39.464,8.357 -13.929,6.268 -23.909,16.018 -28.554,24.375 -4.643,8.357 -8.587,20.661 -3.481,23.911 5.105,3.249 0.232,6.034 -1.394,7.196 -1.625,1.161 -4.409,7.662 -9.75,17.179 -5.339,9.518 -12.071,21.356 -24.607,35.749 -12.535,14.394 -23.679,28.555 -25.768,31.109 -2.089,2.552 -1.394,6.033 -0.232,7.891 1.161,1.859 -1.159,8.126 -2.321,10.913 -1.161,2.785 -9.284,18.802 -13.928,28.087 -4.645,9.287 -8.59,17.645 -12.769,24.375 -4.178,6.734 -6.964,18.108 -7.661,36.68 -0.696,18.571 0.464,30.874 3.947,37.375 2.942,5.49 15.089,15.785 18.339,20.196 3.249,4.411 8.125,19.732 9.054,24.607 0,0 -4.18,8.59 9.517,28.322 1.218,1.753 2.394,3.421 3.534,5.007 11.678,16.258 19.371,23.937 25.717,27.957 6.964,4.411 40.624,22.054 66.856,27.625 26.234,5.571 33.431,1.857 44.572,-7.196 11.144,-9.053 15.089,-16.249 14.858,-25.768 -0.233,-9.517 1.393,-28.321 -4.179,-32.5 0,0 3.715,0.464 5.572,-0.929 1.858,1.393 5.571,0.929 5.571,0.929 -5.571,4.179 -3.947,22.983 -4.179,32.5 -0.23,9.519 3.714,16.715 14.856,25.768 11.144,9.053 18.34,12.767 44.574,7.196 26.233,-5.571 59.892,-23.214 66.857,-27.625 6.345,-4.02 14.038,-11.699 25.716,-27.957 1.14,-1.586 2.316,-3.254 3.534,-5.007 13.697,-19.732 9.518,-28.322 9.518,-28.322 0.928,-4.875 5.803,-20.196 9.053,-24.607 3.25,-4.411 15.398,-14.706 18.339,-20.196 3.483,-6.501 4.643,-18.804 3.947,-37.375 -0.697,-18.572 -3.483,-29.946 -7.661,-36.68 -4.178,-6.73 -8.125,-15.088 -12.768,-24.375 -4.644,-9.285 -12.768,-25.302 -13.929,-28.087 -1.162,-2.787 -3.482,-9.054 -2.32,-10.913 1.161,-1.858 1.856,-5.339 -0.234,-7.891 -2.088,-2.554 -13.231,-16.715 -25.767,-31.109 -12.535,-14.393 -19.268,-26.231 -24.607,-35.749 -5.34,-9.517 -8.126,-16.018 -9.75,-17.179 -1.626,-1.162 -6.5,-3.947 -1.393,-7.196 5.105,-3.25 1.161,-15.554 -3.483,-23.911 -4.643,-8.357 -14.624,-18.107 -28.553,-24.375 -13.929,-6.268 -31.571,-8.357 -39.464,-8.357 -5.343,0 -22.055,3.946 -27.857,3.946 z"
       style="fill:none;stroke:#231f20;stroke-width:0.75;stroke-linecap:round;stroke-linejoin:round;stroke-miterlimit:4;stroke-dasharray:none;stroke-opacity:1"
       id="path688" />
    <path
       d="m 403.038,429.171 c -9.035,5.116 -20.893,7.894 -27.394,8.358 -6.5,0.464 -9.982,1.391 -15.554,-3.715 -5.571,-5.106 -10.446,-12.07 -15.785,-14.393 -5.339,-2.321 -10.679,-5.802 -11.376,-11.606 -0.696,-5.804 1.162,-9.518 6.037,-7.661 4.875,1.857 7.196,3.249 9.284,5.106 2.09,1.859 3.02,2.554 5.341,0.696 2.321,-1.856 4.409,-3.712 10.678,-6.498 6.268,-2.786 11.607,-5.804 16.25,-9.287 4.643,-3.481 11.143,-8.126 13.929,-9.982 2.786,-1.857 8.59,-3.483 11.142,1.393 2.554,4.874 5.107,13 7.429,18.572 2.321,5.572 5.571,9.981 6.964,12.071 1.393,2.089 -4.641,9.983 -16.945,16.946"
       style="fill:#ffffff;fill-opacity:1;fill-rule:nonzero;stroke:none;stroke-width:0.1"
       id="path690" />
    <path
       d="m 403.038,429.171 c -9.035,5.116 -20.893,7.894 -27.394,8.358 -6.5,0.464 -9.982,1.391 -15.554,-3.715 -5.571,-5.106 -10.446,-12.07 -15.785,-14.393 -5.339,-2.321 -10.679,-5.802 -11.376,-11.606 -0.696,-5.804 1.162,-9.518 6.037,-7.661 4.875,1.857 7.196,3.249 9.284,5.106 2.09,1.859 3.02,2.554 5.341,0.696 2.321,-1.856 4.409,-3.712 10.678,-6.498 6.268,-2.786 11.607,-5.804 16.25,-9.287 4.643,-3.481 11.143,-8.126 13.929,-9.982 2.786,-1.857 8.59,-3.483 11.142,1.393 2.554,4.874 5.107,13 7.429,18.572 2.321,5.572 5.571,9.981 6.964,12.071 1.393,2.089 -4.641,9.983 -16.945,16.946 z"
       style="fill:none;stroke:#231f20;stroke-width:0.75;stroke-linecap:round;stroke-linejoin:round;stroke-miterlimit:4;stroke-dasharray:none;stroke-opacity:1"
       id="path692" />
    <path
       d="m 386.606,706.483 c 11.678,16.258 19.371,23.937 25.717,27.957 6.964,4.411 40.624,22.054 66.856,27.625 6.447,1.248 18.806,3.482 30.876,17.411 12.071,13.929 18.108,39.696 16.366,59.545 -1.741,19.848 -15.67,39 -39,48.054 -23.331,9.053 -46.312,11.142 -97.5,3.83 C 338.733,883.592 285.457,866.53 235.314,836.931 185.17,807.333 131.545,742.914 114.134,709.136 96.7238,675.36 95.6789,601.193 102.992,580.298 c 7.312,-20.894 9.402,-27.858 20.196,-33.082 10.795,-5.222 7.312,-11.839 3.482,-17.062 -3.83,-5.223 -6.267,-8.705 -3.482,-23.33 2.786,-14.625 9.75,-42.134 38.652,-66.509 28.902,-24.375 76.955,-46.661 97.849,-48.402 20.893,-1.742 51.884,-1.393 58.5,10.098 6.616,11.491 14.276,14.973 18.804,17.759 4.526,2.785 11.49,10.098 15.321,23.679 3.83,13.58 1.393,21.937 4.526,29.597 3.134,7.662 3.483,20.198 -1.392,31.34 -4.875,11.143 -17.759,24.724 -22.983,42.483 -5.222,17.758 -7.66,28.205 -9.401,41.089 -1.741,12.883 -5.92,36.214 1.044,44.919 6.965,8.705 28.554,29.25 35.866,39 7.313,9.75 20.544,27.182 26.632,34.606"
       style="fill:#ffffff;fill-opacity:1;fill-rule:nonzero;stroke:none;stroke-width:0.1"
       id="path694" />
    <path
       d="m 386.606,706.483 c 11.678,16.258 19.371,23.937 25.717,27.957 6.964,4.411 40.624,22.054 66.856,27.625 6.447,1.248 18.806,3.482 30.876,17.411 12.071,13.929 18.108,39.696 16.366,59.545 -1.741,19.848 -15.67,39 -39,48.054 -23.331,9.053 -46.312,11.142 -97.5,3.83 C 338.733,883.592 285.457,866.53 235.314,836.931 185.17,807.333 131.545,742.914 114.134,709.136 96.7238,675.36 95.6789,601.193 102.992,580.298 c 7.312,-20.894 9.402,-27.858 20.196,-33.082 10.795,-5.222 7.312,-11.839 3.482,-17.062 -3.83,-5.223 -6.267,-8.705 -3.482,-23.33 2.786,-14.625 9.75,-42.134 38.652,-66.509 28.902,-24.375 76.955,-46.661 97.849,-48.402 20.893,-1.742 51.884,-1.393 58.5,10.098 6.616,11.491 14.276,14.973 18.804,17.759 4.526,2.785 11.49,10.098 15.321,23.679 3.83,13.58 1.393,21.937 4.526,29.597 3.134,7.662 3.483,20.198 -1.392,31.34 -4.875,11.143 -17.759,24.724 -22.983,42.483 -5.222,17.758 -7.66,28.205 -9.401,41.089 -1.741,12.883 -5.92,36.214 1.044,44.919 6.965,8.705 28.554,29.25 35.866,39 7.313,9.75 20.544,27.182 26.632,34.606 z"
       style="fill:none;stroke:#231f20;stroke-width:0.75;stroke-linecap:round;stroke-linejoin:round;stroke-miterlimit:4;stroke-dasharray:none;stroke-opacity:1"
       id="path696" />
    <path
       d="m 606.192,608.689 c -0.262,-4.946 -0.495,-10.052 -3.048,-13.07 -2.553,-3.019 -3.017,-8.125 -3.946,-9.75 -0.929,-1.626 -2.327,-4.061 -5.226,-6.672"
       style="fill:none;stroke:#231f20;stroke-width:0.5;stroke-linecap:butt;stroke-linejoin:miter;stroke-miterlimit:4;stroke-dasharray:none;stroke-opacity:1"
       id="path698" />
    <path
       d="m 606.879,619.066 c 0.929,-9.518 2.779,-25.771 4.159,-32.269 1.378,-6.499 5.182,-13.312 6.5,-18.803 1.393,-5.804 3.482,-14.162 0.696,-18.804 -2.785,-4.644 -4.411,-7.196 -4.411,-7.196"
       style="fill:none;stroke:#231f20;stroke-width:0.25;stroke-linecap:butt;stroke-linejoin:miter;stroke-miterlimit:4;stroke-dasharray:none;stroke-opacity:1"
       id="path700" />
    <path
       d="m 603.847,596.591 c -0.471,-4.919 -0.702,-14.902 0.459,-20.24 1.16,-5.34 5.34,-16.947 -1.393,-23.911"
       style="fill:none;stroke:#231f20;stroke-width:0.25;stroke-linecap:butt;stroke-linejoin:miter;stroke-miterlimit:4;stroke-dasharray:none;stroke-opacity:1"
       id="path702" />
    <path
       d="m 595.112,580.298 c 7.429,0.696 22.193,0.463 43.086,8.123 20.893,7.661 43.412,18.108 59.197,33.429 0,0 6.036,5.109 8.59,7.661 2.553,2.554 6.492,5.561 7.251,4.058"
       style="fill:none;stroke:#231f20;stroke-width:0.5;stroke-linecap:butt;stroke-linejoin:miter;stroke-miterlimit:4;stroke-dasharray:none;stroke-opacity:1"
       id="path704" />
    <path
       d="m 602.646,601.156 c 0,-0.623 -0.5,-1.126 -1.126,-1.126 -0.623,0 -1.126,0.503 -1.126,1.126 0,0.623 0.503,1.126 1.126,1.126 0.626,0 1.126,-0.503 1.126,-1.126"
       style="fill:#231f20;fill-opacity:1;fill-rule:nonzero;stroke:none;stroke-width:0.1"
       id="path706" />
    <path
       d="m 595.216,594.656 c 0,-0.623 -0.5,-1.127 -1.126,-1.127 -0.623,0 -1.126,0.504 -1.126,1.127 0,0.623 0.503,1.126 1.126,1.126 0.626,0 1.126,-0.503 1.126,-1.126"
       style="fill:#231f20;fill-opacity:1;fill-rule:nonzero;stroke:none;stroke-width:0.1"
       id="path708" />
    <path
       d="m 598.235,594.888 c 0,-0.623 -0.5,-1.126 -1.126,-1.126 -0.623,0 -1.126,0.503 -1.126,1.126 0,0.623 0.503,1.126 1.126,1.126 0.626,0 1.126,-0.503 1.126,-1.126"
       style="fill:#231f20;fill-opacity:1;fill-rule:nonzero;stroke:none;stroke-width:0.1"
       id="path710" />
    <path
       d="m 597.539,591.173 c 0,-0.623 -0.5,-1.126 -1.126,-1.126 -0.623,0 -1.126,0.503 -1.126,1.126 0,0.623 0.503,1.126 1.126,1.126 0.626,0 1.126,-0.503 1.126,-1.126"
       style="fill:#231f20;fill-opacity:1;fill-rule:nonzero;stroke:none;stroke-width:0.1"
       id="path712" />
    <path
       d="m 594.753,587.227 c 0,-0.623 -0.501,-1.126 -1.127,-1.126 -0.623,0 -1.126,0.503 -1.126,1.126 0,0.623 0.503,1.127 1.126,1.127 0.626,0 1.127,-0.504 1.127,-1.127"
       style="fill:#231f20;fill-opacity:1;fill-rule:nonzero;stroke:none;stroke-width:0.1"
       id="path714" />
    <path
       d="m 594.29,583.976 c 0,-0.623 -0.501,-1.126 -1.127,-1.126 -0.623,0 -1.126,0.503 -1.126,1.126 0,0.623 0.503,1.127 1.126,1.127 0.626,0 1.127,-0.504 1.127,-1.127"
       style="fill:#231f20;fill-opacity:1;fill-rule:nonzero;stroke:none;stroke-width:0.1"
       id="path716" />
    <path
       d="m 599.395,606.727 c 0,-0.623 -0.5,-1.126 -1.126,-1.126 -0.623,0 -1.126,0.503 -1.126,1.126 0,0.623 0.503,1.127 1.126,1.127 0.626,0 1.126,-0.504 1.126,-1.127"
       style="fill:#231f20;fill-opacity:1;fill-rule:nonzero;stroke:none;stroke-width:0.1"
       id="path718" />
    <path
       d="m 561.827,521.41 c -0.005,-6.114 4.64,-20.04 6.961,-26.541 2.32,-6.5 3.712,-20.429 -0.465,-28.09"
       style="fill:none;stroke:#231f20;stroke-width:0.25;stroke-linecap:butt;stroke-linejoin:miter;stroke-miterlimit:4;stroke-dasharray:none;stroke-opacity:1"
       id="path720" />
    <path
       d="m 548.359,509.261 c 0.231,-5.803 5.339,-12.304 5.803,-23.215 0.464,-10.91 0,-18.34 -1.624,-21.588"
       style="fill:none;stroke:#231f20;stroke-width:0.25;stroke-linecap:butt;stroke-linejoin:miter;stroke-miterlimit:4;stroke-dasharray:none;stroke-opacity:1"
       id="path722" />
    <path
       d="m 617.305,467.939 c 4.168,0.388 16.168,-1.15 16.482,-7.428 0.233,-4.642 -9.983,-7.662 -16.018,-8.59 -6.035,-0.927 -15.089,-0.232 -15.089,5.572 0,5.803 4.643,9.517 14.625,10.446 z"
       style="fill:none;stroke:#231f20;stroke-width:0.5;stroke-linecap:butt;stroke-linejoin:miter;stroke-miterlimit:4;stroke-dasharray:none;stroke-opacity:1"
       id="path724" />
    <path
       d="m 545.573,696.601 c 3.017,-1.857 6.037,-3.481 11.608,6.036 5.571,9.517 12.069,21.821 21.588,22.749 9.519,0.929 26.233,-3.715 44.34,-9.054 18.107,-5.338 32.445,-10.787 54.322,-26.463 22.16,-15.882 27.153,-20.06 30.639,-22.914"
       style="fill:none;stroke:#231f20;stroke-width:0.5;stroke-linecap:butt;stroke-linejoin:miter;stroke-miterlimit:4;stroke-dasharray:none;stroke-opacity:1"
       id="path726" />
    <path
       d="m 706.449,673.154 c -3.483,2.786 -11.374,9.982 -16.483,16.018 -5.107,6.036 -11.607,15.553 -19.732,20.197 -8.124,4.642 -20.895,12.536 -44.804,21.125 -23.91,8.59 -36.446,13 -47.821,11.375 -11.376,-1.625 -19.269,-8.589 -20.893,-18.339 -1.624,-9.75 -2.786,-22.286 -6.268,-22.75 0,0 -0.15,-2.765 -0.656,-5.561"
       style="fill:none;stroke:#231f20;stroke-width:0.5;stroke-linecap:butt;stroke-linejoin:miter;stroke-miterlimit:4;stroke-dasharray:none;stroke-opacity:1"
       id="path728" />
    <path
       d="m 715.502,648.547 c -0.929,-3.017 -3.481,-8.822 -2.553,-13.928 0.927,-5.108 6.73,-4.875 9.285,-21.59 2.555,-16.714 1.856,-43.411 -8.358,-65 0,0 11.143,-4.875 16.776,7.161"
       style="fill:none;stroke:#231f20;stroke-width:0.5;stroke-linecap:butt;stroke-linejoin:miter;stroke-miterlimit:4;stroke-dasharray:none;stroke-opacity:1"
       id="path730" />
    <path
       d="m 704.321,627.927 c -2.436,-2.189 -18.068,-10.256 -36.64,10.174 -18.572,20.428 -34.186,41.359 -51.536,52.231 -17.411,10.912 -29.715,15.554 -39.465,11.144 -9.75,-4.411 -13,-6.5 -13,-6.5 0,0 0.464,10.679 4.875,13.464 4.411,2.786 16.482,7.429 40.393,0 23.912,-7.429 42.25,-18.804 66.625,-39 24.375,-20.196 37.177,-33.655 35.884,-35.747"
       style="fill:none;stroke:#231f20;stroke-width:0.5;stroke-linecap:butt;stroke-linejoin:miter;stroke-miterlimit:4;stroke-dasharray:none;stroke-opacity:1"
       id="path732" />
    <path
       d="m 594.804,380.728 c 12.984,1.551 36.189,12.604 42.694,12.766"
       style="fill:none;stroke:#231f20;stroke-width:0.5;stroke-linecap:butt;stroke-linejoin:miter;stroke-miterlimit:4;stroke-dasharray:none;stroke-opacity:1"
       id="path734" />
    <path
       d="m 584.663,383.688 c -2.875,1.144 -3.341,3.234 0.374,5.323 3.715,2.09 32.501,16.481 42.018,26.695 9.518,10.216 18.804,23.681 29.25,35.984 10.447,12.304 26.234,31.105 30.876,35.053 4.643,3.947 9.054,10.446 13.929,4.178"
       style="fill:none;stroke:#231f20;stroke-width:0.5;stroke-linecap:butt;stroke-linejoin:miter;stroke-miterlimit:4;stroke-dasharray:none;stroke-opacity:1"
       id="path736" />
    <path
       d="m 572.956,388.273 c 7.439,2.362 41.1,13.97 54.099,27.433"
       style="fill:none;stroke:#231f20;stroke-width:0.5;stroke-linecap:butt;stroke-linejoin:miter;stroke-miterlimit:4;stroke-dasharray:none;stroke-opacity:1"
       id="path738" />
    <path
       d="m 566.93,398.296 c 8.822,5.804 44.881,22.61 65.968,24.074"
       style="fill:none;stroke:#231f20;stroke-width:0.5;stroke-linecap:butt;stroke-linejoin:miter;stroke-miterlimit:4;stroke-dasharray:none;stroke-opacity:1"
       id="path740" />
    <path
       d="m 562.989,416.186 c 7.196,4.644 23.675,3.699 32.263,4.396 8.588,0.697 33.347,5.636 41.512,6.533"
       style="fill:none;stroke:#231f20;stroke-width:0.5;stroke-linecap:butt;stroke-linejoin:miter;stroke-miterlimit:4;stroke-dasharray:none;stroke-opacity:1"
       id="path742" />
    <path
       d="m 562.869,416.318 c 0.521,-0.492 0.928,-1.422 1.276,-3.628 0.697,-4.411 3.25,-17.644 5.803,-23.911"
       style="fill:none;stroke:#231f20;stroke-width:0.5;stroke-linecap:butt;stroke-linejoin:miter;stroke-miterlimit:4;stroke-dasharray:none;stroke-opacity:1"
       id="path744" />
    <path
       d="m 671.393,388.546 c -1.187,3.155 -1.543,11.936 6.27,15.322 6.963,3.018 19.179,-9.715 16.322,-17.742"
       style="fill:none;stroke:#231f20;stroke-width:0.5;stroke-linecap:butt;stroke-linejoin:miter;stroke-miterlimit:4;stroke-dasharray:none;stroke-opacity:1"
       id="path746" />
    <path
       d="m 643.421,814.994 c -1.356,-3.731 4.527,-5.572 9.75,-8.705 5.224,-3.134 32.733,-25.42 40.393,-35.17 7.661,-9.75 20.197,-26.464 26.813,-32.035 6.616,-5.573 25.768,-20.545 32.732,-15.67 6.965,4.875 20.545,13.928 36.911,8.357 16.366,-5.572 58.5,-34.126 77.304,-75.215 18.803,-41.09 22.286,-71.732 8.008,-112.474 -14.276,-40.741 -24.723,-55.017 -39,-63.723 -14.276,-8.705 -25.767,-12.535 -29.598,-13.58 -3.83,-1.045 -7.66,-8.009 0.348,-11.491 8.009,-3.482 31.688,9.402 39,17.411 7.313,8.009 32.384,36.911 44.572,76.955 12.187,40.045 10.098,74.17 -7.313,112.822 -17.41,38.651 -32.035,58.848 -81.83,86.705 -49.795,27.858 -93.67,46.661 -114.911,53.974 -21.241,7.312 -41.786,15.67 -43.179,11.839 z"
       style="fill:none;stroke:#231f20;stroke-width:0.5;stroke-linecap:butt;stroke-linejoin:miter;stroke-miterlimit:4;stroke-dasharray:none;stroke-opacity:1"
       id="path748" />
    <path
       d="m 711.584,748.412 c 4.408,-5.02 14.365,-10.373 21.329,-12.463 6.964,-2.089 13.837,-4.412 26.116,1.045 12.536,5.571 17.411,5.223 21.937,3.133 4.527,-2.088 11.84,-4.875 14.974,-6.267"
       style="fill:none;stroke:#231f20;stroke-width:0.5;stroke-linecap:butt;stroke-linejoin:miter;stroke-miterlimit:4;stroke-dasharray:none;stroke-opacity:1"
       id="path750" />
    <path
       d="m 716.199,776.342 c 9.053,-6.268 42.83,-22.982 55.714,-28.206 12.883,-5.222 54.558,-26.47 75.562,-48.401 23.679,-24.724 43.875,-67.554 44.224,-97.849 0.42,-36.559 -5.572,-55.017 -20.197,-83.223 -14.625,-28.205 -31.451,-51.634 -68.654,-59.768"
       style="fill:none;stroke:#231f20;stroke-width:0.75;stroke-linecap:round;stroke-linejoin:round;stroke-miterlimit:4;stroke-dasharray:none;stroke-opacity:1"
       id="path752" />
    <path
       d="m 508.199,549.421 c 1.161,-6.499 4.178,-14.856 7.196,-21.356 3.018,-6.501 10.91,-16.481 16.249,-18.804 5.34,-2.322 6.501,6.268 6.501,7.894 0,1.625 0.464,4.875 -2.09,6.731 -2.553,1.857 -16.946,13 -18.339,14.161 -1.393,1.16 -1.161,3.017 -1.161,3.017 0,0 -1.393,2.555 -8.356,8.357 -6.963,5.806 -15.555,18.34 -19.036,24.144 -3.483,5.803 -5.109,9.517 -6.037,13.232 -0.926,3.714 -3.947,9.982 -7.196,15.322 -3.25,5.338 -2.786,16.482 -2.786,22.286 0,5.803 -0.232,9.517 3.25,18.106 3.482,8.589 15.321,15.554 25.304,19.733 9.982,4.178 33.661,0.696 38.304,0.696 4.643,0 28.321,3.482 38.303,-0.696 9.983,-4.179 21.822,-11.144 25.304,-19.733 3.482,-8.589 3.25,-12.303 3.25,-18.106 0,-5.804 0.464,-16.948 -2.786,-22.286 -3.249,-5.34 -6.269,-11.608 -7.197,-15.322 -0.927,-3.715 -2.553,-7.429 -6.035,-13.232 -3.482,-5.804 -12.073,-18.338 -19.036,-24.144 -6.963,-5.802 -8.356,-8.357 -8.356,-8.357 0,0 0.231,-1.857 -1.161,-3.017 -1.394,-1.161 -15.786,-12.304 -18.339,-14.161 -2.555,-1.856 -2.089,-5.106 -2.089,-6.731 0,-1.626 1.158,-10.216 6.499,-7.894 5.34,2.323 13.232,12.303 16.249,18.804 3.018,6.5 6.035,14.857 7.197,21.356"
       style="fill:none;stroke:#231f20;stroke-width:0.5;stroke-linecap:butt;stroke-linejoin:miter;stroke-miterlimit:4;stroke-dasharray:none;stroke-opacity:1"
       id="path754" />
    <path
       d="m 546.5,617.208 c -2.32,0.463 -5.571,5.804 -6.498,5.804 -0.928,0 -4.178,-5.341 -6.5,-5.804 -2.322,-0.464 -3.715,-3.946 -1.626,-7.197 2.089,-3.25 5.804,-6.732 5.804,-8.821 0,-2.089 1.16,-3.715 2.322,-3.715 1.162,0 2.32,1.626 2.32,3.715 0,2.089 3.717,5.571 5.805,8.821 2.09,3.251 0.697,6.733 -1.627,7.197"
       style="fill:#706d6e;fill-opacity:1;fill-rule:nonzero;stroke:none;stroke-width:0.1"
       id="path756" />
    <path
       d="m 546.5,617.208 c -2.32,0.463 -5.571,5.804 -6.498,5.804 -0.928,0 -4.178,-5.341 -6.5,-5.804 -2.322,-0.464 -3.715,-3.946 -1.626,-7.197 2.089,-3.25 5.804,-6.732 5.804,-8.821 0,-2.089 1.16,-3.715 2.322,-3.715 1.162,0 2.32,1.626 2.32,3.715 0,2.089 3.717,5.571 5.805,8.821 2.09,3.251 0.697,6.733 -1.627,7.197 z"
       style="fill:none;stroke:#231f20;stroke-width:0.75;stroke-linecap:round;stroke-linejoin:round;stroke-miterlimit:4;stroke-dasharray:none;stroke-opacity:1"
       id="path758" />
    <path
       d="m 473.811,608.689 c 0.263,-4.946 0.495,-10.052 3.048,-13.07 2.554,-3.019 3.017,-8.125 3.946,-9.75 0.929,-1.626 2.327,-4.061 5.226,-6.672"
       style="fill:none;stroke:#231f20;stroke-width:0.5;stroke-linecap:butt;stroke-linejoin:miter;stroke-miterlimit:4;stroke-dasharray:none;stroke-opacity:1"
       id="path760" />
    <path
       d="m 473.124,619.066 c -0.929,-9.518 -2.779,-25.771 -4.159,-32.269 -1.379,-6.499 -5.181,-13.312 -6.5,-18.803 -1.392,-5.804 -3.482,-14.162 -0.696,-18.804 2.785,-4.644 4.411,-7.196 4.411,-7.196"
       style="fill:none;stroke:#231f20;stroke-width:0.25;stroke-linecap:butt;stroke-linejoin:miter;stroke-miterlimit:4;stroke-dasharray:none;stroke-opacity:1"
       id="path762" />
    <path
       d="m 476.156,596.591 c 0.47,-4.919 0.702,-14.902 -0.458,-20.24 -1.16,-5.34 -5.341,-16.947 1.392,-23.911"
       style="fill:none;stroke:#231f20;stroke-width:0.25;stroke-linecap:butt;stroke-linejoin:miter;stroke-miterlimit:4;stroke-dasharray:none;stroke-opacity:1"
       id="path764" />
    <path
       d="m 484.891,580.298 c -7.428,0.696 -22.193,0.463 -43.086,8.123 -20.893,7.661 -43.411,18.108 -59.196,33.429 0,0 -6.037,5.109 -8.59,7.661 -2.554,2.554 -6.493,5.561 -7.252,4.058"
       style="fill:none;stroke:#231f20;stroke-width:0.5;stroke-linecap:butt;stroke-linejoin:miter;stroke-miterlimit:4;stroke-dasharray:none;stroke-opacity:1"
       id="path766" />
    <path
       d="m 477.357,601.156 c 0,-0.623 0.501,-1.126 1.126,-1.126 0.623,0 1.127,0.503 1.127,1.126 0,0.623 -0.504,1.126 -1.127,1.126 -0.625,0 -1.126,-0.503 -1.126,-1.126"
       style="fill:#231f20;fill-opacity:1;fill-rule:nonzero;stroke:none;stroke-width:0.1"
       id="path768" />
    <path
       d="m 484.787,594.656 c 0,-0.623 0.5,-1.127 1.126,-1.127 0.623,0 1.126,0.504 1.126,1.127 0,0.623 -0.503,1.126 -1.126,1.126 -0.626,0 -1.126,-0.503 -1.126,-1.126"
       style="fill:#231f20;fill-opacity:1;fill-rule:nonzero;stroke:none;stroke-width:0.1"
       id="path770" />
    <path
       d="m 481.768,594.888 c 0,-0.623 0.501,-1.126 1.126,-1.126 0.623,0 1.127,0.503 1.127,1.126 0,0.623 -0.504,1.126 -1.127,1.126 -0.625,0 -1.126,-0.503 -1.126,-1.126"
       style="fill:#231f20;fill-opacity:1;fill-rule:nonzero;stroke:none;stroke-width:0.1"
       id="path772" />
    <path
       d="m 482.464,591.173 c 0,-0.623 0.501,-1.126 1.126,-1.126 0.623,0 1.127,0.503 1.127,1.126 0,0.623 -0.504,1.126 -1.127,1.126 -0.625,0 -1.126,-0.503 -1.126,-1.126"
       style="fill:#231f20;fill-opacity:1;fill-rule:nonzero;stroke:none;stroke-width:0.1"
       id="path774" />
    <path
       d="m 485.25,587.227 c 0,-0.623 0.5,-1.126 1.126,-1.126 0.624,0 1.126,0.503 1.126,1.126 0,0.623 -0.502,1.127 -1.126,1.127 -0.626,0 -1.126,-0.504 -1.126,-1.127"
       style="fill:#231f20;fill-opacity:1;fill-rule:nonzero;stroke:none;stroke-width:0.1"
       id="path776" />
    <path
       d="m 485.714,583.976 c 0,-0.623 0.5,-1.126 1.126,-1.126 0.623,0 1.126,0.503 1.126,1.126 0,0.623 -0.503,1.127 -1.126,1.127 -0.626,0 -1.126,-0.504 -1.126,-1.127"
       style="fill:#231f20;fill-opacity:1;fill-rule:nonzero;stroke:none;stroke-width:0.1"
       id="path778" />
    <path
       d="m 480.608,606.727 c 0,-0.623 0.5,-1.126 1.126,-1.126 0.623,0 1.126,0.503 1.126,1.126 0,0.623 -0.503,1.127 -1.126,1.127 -0.626,0 -1.126,-0.504 -1.126,-1.127"
       style="fill:#231f20;fill-opacity:1;fill-rule:nonzero;stroke:none;stroke-width:0.1"
       id="path780" />
    <path
       d="m 518.177,521.41 c 0.003,-6.114 -4.641,-20.04 -6.962,-26.541 -2.32,-6.5 -3.712,-20.429 0.465,-28.09"
       style="fill:none;stroke:#231f20;stroke-width:0.25;stroke-linecap:butt;stroke-linejoin:miter;stroke-miterlimit:4;stroke-dasharray:none;stroke-opacity:1"
       id="path782" />
    <path
       d="m 531.644,509.261 c -0.231,-5.803 -5.339,-12.304 -5.803,-23.215 -0.465,-10.91 0,-18.34 1.625,-21.588"
       style="fill:none;stroke:#231f20;stroke-width:0.25;stroke-linecap:butt;stroke-linejoin:miter;stroke-miterlimit:4;stroke-dasharray:none;stroke-opacity:1"
       id="path784" />
    <path
       d="m 462.698,467.939 c -4.168,0.388 -16.167,-1.15 -16.482,-7.428 -0.232,-4.642 9.983,-7.662 16.018,-8.59 6.035,-0.927 15.089,-0.232 15.089,5.572 0,5.803 -4.643,9.517 -14.625,10.446 z"
       style="fill:none;stroke:#231f20;stroke-width:0.5;stroke-linecap:butt;stroke-linejoin:miter;stroke-miterlimit:4;stroke-dasharray:none;stroke-opacity:1"
       id="path786" />
    <path
       d="m 519.227,465.879 c 9.636,-2.292 16.132,-1.885 20.775,-1.885 4.643,0 11.138,-0.407 20.774,1.885"
       style="fill:none;stroke:#231f20;stroke-width:0.25;stroke-linecap:butt;stroke-linejoin:miter;stroke-miterlimit:4;stroke-dasharray:none;stroke-opacity:1"
       id="path788" />
    <path
       d="m 520.55,443.595 c 7.745,-3.536 13.535,-3.824 13.535,-3.824 l 2.908,0.253 3.009,0.058 3.008,-0.058 2.908,-0.253 c 0,0 5.79,0.288 13.535,3.824"
       style="fill:none;stroke:#231f20;stroke-width:0.25;stroke-linecap:butt;stroke-linejoin:miter;stroke-miterlimit:4;stroke-dasharray:none;stroke-opacity:1"
       id="path790" />
    <path
       d="m 534.43,696.601 c -3.017,-1.857 -6.036,-3.481 -11.607,6.036 -5.572,9.517 -12.071,21.821 -21.589,22.749 -9.519,0.929 -26.233,-3.715 -44.34,-9.054 -18.107,-5.338 -32.445,-10.787 -54.321,-26.463 -22.161,-15.882 -27.154,-20.06 -30.64,-22.914"
       style="fill:none;stroke:#231f20;stroke-width:0.5;stroke-linecap:butt;stroke-linejoin:miter;stroke-miterlimit:4;stroke-dasharray:none;stroke-opacity:1"
       id="path792" />
    <path
       d="m 373.555,673.154 c 3.482,2.786 11.374,9.982 16.482,16.018 5.107,6.036 11.608,15.553 19.732,20.197 8.125,4.642 20.895,12.536 44.805,21.125 23.909,8.59 36.445,13 47.82,11.375 11.376,-1.625 19.269,-8.589 20.894,-18.339 1.624,-9.75 2.785,-22.286 6.267,-22.75 0,0 0.151,-2.765 0.655,-5.561"
       style="fill:none;stroke:#231f20;stroke-width:0.5;stroke-linecap:butt;stroke-linejoin:miter;stroke-miterlimit:4;stroke-dasharray:none;stroke-opacity:1"
       id="path794" />
    <path
       d="m 364.501,648.547 c 0.929,-3.017 3.481,-8.822 2.553,-13.928 -0.928,-5.108 -6.73,-4.875 -9.284,-21.59 -2.555,-16.714 -1.857,-43.411 8.356,-65 0,0 -11.142,-4.875 -16.775,7.161"
       style="fill:none;stroke:#231f20;stroke-width:0.5;stroke-linecap:butt;stroke-linejoin:miter;stroke-miterlimit:4;stroke-dasharray:none;stroke-opacity:1"
       id="path796" />
    <path
       d="m 375.682,627.927 c 2.437,-2.189 18.068,-10.256 36.641,10.174 18.572,20.428 34.185,41.359 51.535,52.231 17.411,10.912 29.716,15.554 39.466,11.144 9.75,-4.411 12.999,-6.5 12.999,-6.5 0,0 -0.464,10.679 -4.875,13.464 -4.411,2.786 -16.482,7.429 -40.393,0 -23.911,-7.429 -42.25,-18.804 -66.625,-39 -24.375,-20.196 -37.177,-33.655 -35.884,-35.747"
       style="fill:none;stroke:#231f20;stroke-width:0.5;stroke-linecap:butt;stroke-linejoin:miter;stroke-miterlimit:4;stroke-dasharray:none;stroke-opacity:1"
       id="path798" />
    <path
       d="m 485.199,380.728 c -12.984,1.551 -36.189,12.604 -42.694,12.766"
       style="fill:none;stroke:#231f20;stroke-width:0.5;stroke-linecap:butt;stroke-linejoin:miter;stroke-miterlimit:4;stroke-dasharray:none;stroke-opacity:1"
       id="path800" />
    <path
       d="m 495.34,383.688 c 2.875,1.144 3.341,3.234 -0.374,5.323 -3.715,2.09 -32.501,16.481 -42.018,26.695 -9.518,10.216 -18.804,23.681 -29.25,35.984 -10.447,12.304 -26.234,31.105 -30.875,35.053 -4.643,3.947 -9.054,10.446 -13.929,4.178"
       style="fill:none;stroke:#231f20;stroke-width:0.5;stroke-linecap:butt;stroke-linejoin:miter;stroke-miterlimit:4;stroke-dasharray:none;stroke-opacity:1"
       id="path802" />
    <path
       d="m 507.047,388.273 c -7.438,2.362 -41.099,13.97 -54.099,27.433"
       style="fill:none;stroke:#231f20;stroke-width:0.5;stroke-linecap:butt;stroke-linejoin:miter;stroke-miterlimit:4;stroke-dasharray:none;stroke-opacity:1"
       id="path804" />
    <path
       d="m 513.074,398.296 c -8.823,5.804 -44.882,22.61 -65.968,24.074"
       style="fill:none;stroke:#231f20;stroke-width:0.5;stroke-linecap:butt;stroke-linejoin:miter;stroke-miterlimit:4;stroke-dasharray:none;stroke-opacity:1"
       id="path806" />
    <path
       d="m 517.014,416.186 c -7.195,4.644 -23.675,3.699 -32.263,4.396 -8.588,0.697 -33.347,5.636 -41.512,6.533"
       style="fill:none;stroke:#231f20;stroke-width:0.5;stroke-linecap:butt;stroke-linejoin:miter;stroke-miterlimit:4;stroke-dasharray:none;stroke-opacity:1"
       id="path808" />
    <path
       d="m 569.948,388.779 c 2.748,-0.463 7.661,-2.089 11.84,-3.947 4.178,-1.856 10.678,-3.714 19.5,-5.571 8.821,-1.856 13.296,-5.806 13.464,-10.679 0.232,-6.731 -6.268,-11.839 -17.876,-15.321 -11.608,-3.482 -20.66,-0.233 -25.768,2.089 -5.108,2.322 -25.766,3.482 -31.106,3.482 -5.34,0 -26,-1.16 -31.107,-3.482 -5.107,-2.322 -14.16,-5.571 -25.769,-2.089 -11.607,3.482 -18.106,8.59 -17.875,15.321 0.167,4.873 4.644,8.823 13.464,10.679 8.822,1.857 15.323,3.715 19.5,5.571 4.179,1.858 9.092,3.484 11.84,3.947"
       style="fill:none;stroke:#231f20;stroke-width:0.5;stroke-linecap:butt;stroke-linejoin:miter;stroke-miterlimit:4;stroke-dasharray:none;stroke-opacity:1"
       id="path810" />
    <path
       d="m 517.135,416.319 c -0.522,-0.493 -0.928,-1.423 -1.276,-3.629 -0.697,-4.411 -3.251,-17.644 -5.804,-23.911"
       style="fill:none;stroke:#231f20;stroke-width:0.5;stroke-linecap:butt;stroke-linejoin:miter;stroke-miterlimit:4;stroke-dasharray:none;stroke-opacity:1"
       id="path812" />
    <path
       d="m 408.61,388.546 c 1.187,3.155 1.543,11.936 -6.269,15.322 -6.965,3.018 -19.18,-9.715 -16.323,-17.742"
       style="fill:none;stroke:#231f20;stroke-width:0.5;stroke-linecap:butt;stroke-linejoin:miter;stroke-miterlimit:4;stroke-dasharray:none;stroke-opacity:1"
       id="path814" />
    <path
       d="m 436.582,814.994 c 1.356,-3.731 -4.527,-5.572 -9.75,-8.705 -5.223,-3.134 -32.733,-25.42 -40.393,-35.17 -7.661,-9.75 -20.196,-26.464 -26.813,-32.035 -6.616,-5.573 -25.768,-20.545 -32.732,-15.67 -6.964,4.875 -20.545,13.928 -36.911,8.357 -16.366,-5.572 -58.5,-34.126 -77.304,-75.215 -18.803,-41.09 -22.285,-71.732 -8.009,-112.474 14.278,-40.741 24.724,-55.017 39,-63.723 14.278,-8.705 25.769,-12.535 29.599,-13.58 3.83,-1.045 7.66,-8.009 -0.349,-11.491 -8.008,-3.482 -31.687,9.402 -39,17.411 -7.312,8.009 -32.383,36.911 -44.571,76.955 -12.187,40.045 -10.099,74.17 7.313,112.822 17.411,38.651 32.036,58.848 81.83,86.705 49.795,27.858 93.67,46.661 114.911,53.974 21.241,7.312 41.786,15.67 43.179,11.839 z"
       style="fill:none;stroke:#231f20;stroke-width:0.5;stroke-linecap:butt;stroke-linejoin:miter;stroke-miterlimit:4;stroke-dasharray:none;stroke-opacity:1"
       id="path816" />
    <path
       d="m 368.418,748.412 c -4.407,-5.02 -14.363,-10.373 -21.328,-12.463 -6.964,-2.089 -13.837,-4.412 -26.116,1.045 -12.535,5.571 -17.41,5.223 -21.937,3.133 -4.527,-2.088 -11.839,-4.875 -14.973,-6.267"
       style="fill:none;stroke:#231f20;stroke-width:0.5;stroke-linecap:butt;stroke-linejoin:miter;stroke-miterlimit:4;stroke-dasharray:none;stroke-opacity:1"
       id="path818" />
    <path
       d="m 363.805,776.342 c -9.054,-6.268 -42.831,-22.982 -55.715,-28.206 -12.883,-5.222 -54.558,-26.47 -75.562,-48.401 -23.679,-24.724 -43.875,-67.554 -44.224,-97.849 -0.42,-36.559 5.572,-55.017 20.196,-83.223 14.626,-28.205 31.452,-51.634 68.655,-59.768"
       style="fill:none;stroke:#231f20;stroke-width:0.75;stroke-linecap:round;stroke-linejoin:round;stroke-miterlimit:4;stroke-dasharray:none;stroke-opacity:1"
       id="path820" />
    <path
       d="m 560.702,521.466 c 8.317,-0.83 25.033,6.889 26.193,18.032 1.16,11.142 -1.133,17.557 -4.767,21.338"
       style="fill:none;stroke:#231f20;stroke-width:0.5;stroke-linecap:round;stroke-linejoin:round;stroke-miterlimit:4;stroke-dasharray:2.8, 1.8;stroke-dashoffset:0;stroke-opacity:1"
       id="path822" />
    <path
       d="m 519.302,521.466 c -8.318,-0.83 -25.034,6.889 -26.194,18.032 -1.16,11.142 1.134,17.557 4.767,21.338"
       style="fill:none;stroke:#231f20;stroke-width:0.5;stroke-linecap:round;stroke-linejoin:round;stroke-miterlimit:4;stroke-dasharray:2.8, 1.8;stroke-dashoffset:0;stroke-opacity:1"
       id="path824" />
    <path
       d="m 545.992,617.379 c 6.08,3.543 34.317,22.916 33.547,44.337"
       style="fill:none;stroke:#231f20;stroke-width:0.5;stroke-linecap:round;stroke-linejoin:round;stroke-miterlimit:4;stroke-dasharray:2.8, 1.8;stroke-dashoffset:0;stroke-opacity:1"
       id="path826" />
    <path
       d="m 549.103,613.963 c 5.755,1.619 46.171,3.936 57.767,3.939"
       style="fill:none;stroke:#231f20;stroke-width:0.5;stroke-linecap:round;stroke-linejoin:round;stroke-miterlimit:4;stroke-dasharray:2.8, 1.8;stroke-dashoffset:0;stroke-opacity:1"
       id="path828" />
    <path
       d="m 545.112,606.016 c 5.336,-2.04 43.11,-14.874 52.197,-17.743"
       style="fill:none;stroke:#231f20;stroke-width:0.5;stroke-linecap:round;stroke-linejoin:round;stroke-miterlimit:4;stroke-dasharray:2.8, 1.8;stroke-dashoffset:0;stroke-opacity:1"
       id="path830" />
    <path
       d="m 546.784,562.863 c 2.736,2.576 11.325,3.969 13.88,1.416 2.551,-2.553 7.71,-8.184 10.006,-15.815"
       style="fill:none;stroke:#231f20;stroke-width:0.5;stroke-linecap:round;stroke-linejoin:round;stroke-miterlimit:4;stroke-dasharray:2.8, 1.8;stroke-dashoffset:0;stroke-opacity:1"
       id="path832" />
    <path
       d="m 542.556,544.082 c -0.019,2.554 3.944,10.911 11.374,10.911 6.037,0 9.75,-10.678 9.519,-13.929"
       style="fill:none;stroke:#231f20;stroke-width:0.5;stroke-linecap:round;stroke-linejoin:round;stroke-miterlimit:4;stroke-dasharray:2.8, 1.8;stroke-dashoffset:0;stroke-opacity:1"
       id="path834" />
    <path
       d="m 546.966,581.922 c 3.482,2.554 30.187,1.535 45.272,-5.965"
       style="fill:none;stroke:#231f20;stroke-width:0.5;stroke-linecap:round;stroke-linejoin:round;stroke-miterlimit:4;stroke-dasharray:2.8, 1.8;stroke-dashoffset:0;stroke-opacity:1"
       id="path836" />
    <path
       d="m 547.757,580.298 c 5.245,0.928 26.358,-5.963 36.694,-16.331"
       style="fill:none;stroke:#231f20;stroke-width:0.5;stroke-linecap:round;stroke-linejoin:round;stroke-miterlimit:4;stroke-dasharray:2.8, 1.8;stroke-dashoffset:0;stroke-opacity:1"
       id="path838" />
    <path
       d="m 570.877,501.368 c -0.822,-5.087 1.393,-13.233 19.268,-13.697 17.874,-0.463 45.965,0.93 57.34,2.323 11.374,1.392 32.267,8.355 32.267,16.945 0,8.59 -6.734,12.072 -20.197,12.072 -13.464,0 -32.034,-6.501 -42.017,-7.661 -9.983,-1.16 -24.839,-3.018 -31.339,-2.089 -6.501,0.929 -14.16,-0.698 -15.322,-7.893 z"
       style="fill:none;stroke:#231f20;stroke-width:0.5;stroke-linecap:round;stroke-linejoin:round;stroke-miterlimit:4;stroke-dasharray:2.8, 1.8;stroke-dashoffset:0;stroke-opacity:1"
       id="path840" />
    <path
       d="m 649.616,479.14 c 6.671,1.878 16.033,3.416 15.541,-5.028 -0.449,-7.697 -5.713,-9.763 -11.502,-11.925 -5.151,-1.925 -13.893,-3.105 -14.821,3.003 -0.995,6.554 5.812,12.551 10.782,13.95 z"
       style="fill:none;stroke:#231f20;stroke-width:0.5;stroke-linecap:round;stroke-linejoin:round;stroke-miterlimit:4;stroke-dasharray:2.8, 1.8;stroke-dashoffset:0;stroke-opacity:1"
       id="path842" />
    <path
       d="m 430.387,479.14 c -6.67,1.878 -16.033,3.416 -15.54,-5.028 0.448,-7.697 5.713,-9.763 11.502,-11.925 5.15,-1.925 13.892,-3.105 14.819,3.003 0.997,6.554 -5.81,12.551 -10.781,13.95 z"
       style="fill:none;stroke:#231f20;stroke-width:0.5;stroke-linecap:round;stroke-linejoin:round;stroke-miterlimit:4;stroke-dasharray:2.8, 1.8;stroke-dashoffset:0;stroke-opacity:1"
       id="path844" />
    <path
       d="m 562.288,466.315 c 2.847,0.363 11.84,2.09 13.464,-4.411 1.624,-6.5 -5.804,-13.465 -10.91,-16.25 -5.109,-2.786 -11.377,-4.178 -13.001,3.251 -1.624,7.427 5.566,16.789 10.447,17.41 z"
       style="fill:none;stroke:#231f20;stroke-width:0.5;stroke-linecap:round;stroke-linejoin:round;stroke-miterlimit:4;stroke-dasharray:2.8, 1.8;stroke-dashoffset:0;stroke-opacity:1"
       id="path846" />
    <path
       d="m 550.448,700.78 c -2.522,0.014 -5.108,9.516 -4.644,21.124 0.465,11.607 8.591,25.072 13.698,29.25 5.106,4.178 19.267,8.126 29.017,7.429 9.75,-0.697 24.143,-2.786 31.34,-5.572 7.196,-2.785 14.393,-7.195 21.821,-9.75 7.429,-2.553 16.715,-6.731 25.072,-13.464 8.357,-6.732 13.928,-12.071 23.678,-27.16 9.75,-15.09 12.281,-19.323 12.641,-26.608"
       style="fill:none;stroke:#231f20;stroke-width:0.5;stroke-linecap:round;stroke-linejoin:round;stroke-miterlimit:4;stroke-dasharray:2.8, 1.8;stroke-dashoffset:0;stroke-opacity:1"
       id="path848" />
    <path
       d="m 696.568,621.06 c -1.94,-1.783 -1.03,-4.085 0.827,-9.424 1.857,-5.339 7.428,-24.142 5.339,-35.054 -2.09,-10.91 -7.196,-22.517 -3.25,-27.624"
       style="fill:none;stroke:#231f20;stroke-width:0.5;stroke-linecap:round;stroke-linejoin:round;stroke-miterlimit:4;stroke-dasharray:2.8, 1.8;stroke-dashoffset:0;stroke-opacity:1"
       id="path850" />
    <path
       d="m 713.876,548.029 c -6.499,0.696 -14.39,1.392 -19.035,0.232 -4.643,-1.16 -5.339,-4.411 -7.196,-9.053 -1.857,-4.643 -1.857,-8.358 0.929,-9.054 2.786,-0.696 22.637,-3.196 25.479,-6.822"
       style="fill:none;stroke:#231f20;stroke-width:0.5;stroke-linecap:round;stroke-linejoin:round;stroke-miterlimit:4;stroke-dasharray:2.8, 1.8;stroke-dashoffset:0;stroke-opacity:1"
       id="path852" />
    <path
       d="m 688.574,530.154 c -2.786,0.232 -7.895,-5.572 -3.251,-9.054 4.643,-3.481 20.43,-4.529 25.421,-4.353"
       style="fill:none;stroke:#231f20;stroke-width:0.5;stroke-linecap:round;stroke-linejoin:round;stroke-miterlimit:4;stroke-dasharray:2.8, 1.8;stroke-dashoffset:0;stroke-opacity:1"
       id="path854" />
    <path
       d="m 548.412,437.005 c 6.273,1.861 42.454,6.396 53.585,-15.576"
       style="fill:none;stroke:#231f20;stroke-width:0.5;stroke-linecap:round;stroke-linejoin:round;stroke-miterlimit:4;stroke-dasharray:2.8, 1.8;stroke-dashoffset:0;stroke-opacity:1"
       id="path856" />
    <path
       d="m 549.966,417.354 c 0.251,-1.648 1.644,-3.04 3.733,-4.433 2.09,-1.392 11.875,-7.885 11.875,-7.885"
       style="fill:none;stroke:#231f20;stroke-width:0.5;stroke-linecap:round;stroke-linejoin:round;stroke-miterlimit:4;stroke-dasharray:2.8, 1.8;stroke-dashoffset:0;stroke-opacity:1"
       id="path858" />
    <path
       d="m 551.169,415.014 c 1.6,-4.879 8.273,-26.786 10.509,-32.314"
       style="fill:none;stroke:#231f20;stroke-width:0.5;stroke-linecap:round;stroke-linejoin:round;stroke-miterlimit:4;stroke-dasharray:2.8, 1.8;stroke-dashoffset:0;stroke-opacity:1"
       id="path860" />
    <path
       d="m 554.609,412.316 c 1.876,-4.734 6.908,-18.821 10.428,-25.59"
       style="fill:none;stroke:#231f20;stroke-width:0.5;stroke-linecap:round;stroke-linejoin:round;stroke-miterlimit:4;stroke-dasharray:2.8, 1.8;stroke-dashoffset:0;stroke-opacity:1"
       id="path862" />
    <path
       d="m 759.212,406.07 c 3.996,5.343 38.346,44.994 43.917,52.306"
       style="fill:none;stroke:#231f20;stroke-width:0.5;stroke-linecap:round;stroke-linejoin:round;stroke-miterlimit:4;stroke-dasharray:2.8, 1.8;stroke-dashoffset:0;stroke-opacity:1"
       id="path864" />
    <path
       d="m 746.145,518.315 c 3.482,0 8.357,-8.009 8.009,-16.366 -0.349,-8.358 0.348,-24.028 -8.009,-25.072 -8.357,-1.045 -9.402,16.367 -9.054,21.242 0.349,4.875 3.483,20.196 9.054,20.196 z"
       style="fill:none;stroke:#231f20;stroke-width:0.5;stroke-linecap:round;stroke-linejoin:round;stroke-miterlimit:4;stroke-dasharray:2.8, 1.8;stroke-dashoffset:0;stroke-opacity:1"
       id="path866" />
    <path
       d="m 785.493,639.494 c 6.242,3.528 22.982,1.741 31.339,-10.099 8.358,-11.839 16.714,-33.776 7.662,-60.241 -9.054,-26.464 -17.412,-30.643 -25.073,-29.598 -7.66,1.044 -13.58,10.098 -13.928,21.589 -0.348,11.491 -5.919,37.607 -6.616,51.187 -0.697,13.582 -1.393,22.634 6.616,27.162 z"
       style="fill:none;stroke:#231f20;stroke-width:0.5;stroke-linecap:round;stroke-linejoin:round;stroke-miterlimit:4;stroke-dasharray:2.8, 1.8;stroke-dashoffset:0;stroke-opacity:1"
       id="path868" />
    <path
       d="m 809.302,505.561 c 7.53,1.611 17.454,5.615 27.03,15.191 19.152,19.152 30.643,47.358 31.34,73.125 0.697,25.768 -18.107,58.5 -37.607,79.393 -19.5,20.894 -28.902,29.599 -39.349,21.241 -10.446,-8.356 -20.196,-16.714 -30.295,-14.972 -10.097,1.741 -16.366,5.222 -15.669,17.758 0.697,12.535 4.277,19.97 5.223,21.589 1.201,2.056 2.894,4.503 5.685,6.274"
       style="fill:none;stroke:#231f20;stroke-width:0.5;stroke-linecap:round;stroke-linejoin:round;stroke-miterlimit:4;stroke-dasharray:2.8, 1.8;stroke-dashoffset:0;stroke-opacity:1"
       id="path870" />
    <path
       d="m 730.597,659.826 c 6.146,5.784 23.717,21.212 23.717,21.212"
       style="fill:none;stroke:#231f20;stroke-width:0.5;stroke-linecap:round;stroke-linejoin:round;stroke-miterlimit:4;stroke-dasharray:2.8, 1.8;stroke-dashoffset:0;stroke-opacity:1"
       id="path872" />
    <path
       d="m 761.514,679.391 c 4.131,-2.986 11.444,-6.817 7.265,-11.692 -4.179,-4.875 -16.698,-17.759 -23.845,-22.808"
       style="fill:none;stroke:#231f20;stroke-width:0.5;stroke-linecap:round;stroke-linejoin:round;stroke-miterlimit:4;stroke-dasharray:2.8, 1.8;stroke-dashoffset:0;stroke-opacity:1"
       id="path874" />
    <path
       d="m 578.291,771.564 c 0,0 58.805,27.962 80.115,30.979"
       style="fill:none;stroke:#231f20;stroke-width:0.5;stroke-linecap:round;stroke-linejoin:round;stroke-miterlimit:4;stroke-dasharray:2.8, 1.8;stroke-dashoffset:0;stroke-opacity:1"
       id="path876" />
    <path
       d="m 556.618,806.905 89.668,3.214"
       style="fill:none;stroke:#231f20;stroke-width:0.5;stroke-linecap:round;stroke-linejoin:round;stroke-miterlimit:4;stroke-dasharray:2.8, 1.8;stroke-dashoffset:0;stroke-opacity:1"
       id="path878" />
    <path
       d="m 553.582,839.021 89.839,-24.027"
       style="fill:none;stroke:#231f20;stroke-width:0.5;stroke-linecap:round;stroke-linejoin:round;stroke-miterlimit:4;stroke-dasharray:2.8, 1.8;stroke-dashoffset:0;stroke-opacity:1"
       id="path880" />
    <path
       d="m 588.723,885.444 54.698,-70.45"
       style="fill:none;stroke:#231f20;stroke-width:0.5;stroke-linecap:round;stroke-linejoin:round;stroke-miterlimit:4;stroke-dasharray:2.8, 1.8;stroke-dashoffset:0;stroke-opacity:1"
       id="path882" />
    <path
       d="m 636.33,895.301 11.63,-79.545"
       style="fill:none;stroke:#231f20;stroke-width:0.5;stroke-linecap:round;stroke-linejoin:round;stroke-miterlimit:4;stroke-dasharray:2.8, 1.8;stroke-dashoffset:0;stroke-opacity:1"
       id="path884" />
    <path
       d="M 678.208,892.495 668.087,809.689"
       style="fill:none;stroke:#231f20;stroke-width:0.5;stroke-linecap:round;stroke-linejoin:round;stroke-miterlimit:4;stroke-dasharray:2.8, 1.8;stroke-dashoffset:0;stroke-opacity:1"
       id="path886" />
    <path
       d="M 763.683,873.65 733.454,783.824"
       style="fill:none;stroke:#231f20;stroke-width:0.5;stroke-linecap:round;stroke-linejoin:round;stroke-miterlimit:4;stroke-dasharray:2.8, 1.8;stroke-dashoffset:0;stroke-opacity:1"
       id="path888" />
    <path
       d="M 844.69,836.931 795.557,752.485"
       style="fill:none;stroke:#231f20;stroke-width:0.5;stroke-linecap:round;stroke-linejoin:round;stroke-miterlimit:4;stroke-dasharray:2.8, 1.8;stroke-dashoffset:0;stroke-opacity:1"
       id="path890" />
    <path
       d="m 916.427,775.834 -61.61,-66.233"
       style="fill:none;stroke:#231f20;stroke-width:0.5;stroke-linecap:round;stroke-linejoin:round;stroke-miterlimit:4;stroke-dasharray:2.8, 1.8;stroke-dashoffset:0;stroke-opacity:1"
       id="path892" />
    <path
       d="M 943.135,743.891 870.42,688.058"
       style="fill:none;stroke:#231f20;stroke-width:0.5;stroke-linecap:round;stroke-linejoin:round;stroke-miterlimit:4;stroke-dasharray:2.8, 1.8;stroke-dashoffset:0;stroke-opacity:1"
       id="path894" />
    <path
       d="m 655.469,741.124 35.907,32.543"
       style="fill:none;stroke:#231f20;stroke-width:0.5;stroke-linecap:round;stroke-linejoin:round;stroke-miterlimit:4;stroke-dasharray:2.8, 1.8;stroke-dashoffset:0;stroke-opacity:1"
       id="path896" />
    <path
       d="M 890.654,549.654 957.92,519.543"
       style="fill:none;stroke:#231f20;stroke-width:0.5;stroke-linecap:round;stroke-linejoin:round;stroke-miterlimit:4;stroke-dasharray:2.8, 1.8;stroke-dashoffset:0;stroke-opacity:1"
       id="path898" />
    <path
       d="m 895.634,569.665 66.908,-18.851"
       style="fill:none;stroke:#231f20;stroke-width:0.5;stroke-linecap:round;stroke-linejoin:round;stroke-miterlimit:4;stroke-dasharray:2.8, 1.8;stroke-dashoffset:0;stroke-opacity:1"
       id="path900" />
    <path
       d="m 898.374,597.476 81.496,-3.245"
       style="fill:none;stroke:#231f20;stroke-width:0.5;stroke-linecap:round;stroke-linejoin:round;stroke-miterlimit:4;stroke-dasharray:2.8, 1.8;stroke-dashoffset:0;stroke-opacity:1"
       id="path902" />
    <path
       d="m 894.025,632.298 86.202,14.417"
       style="fill:none;stroke:#231f20;stroke-width:0.5;stroke-linecap:round;stroke-linejoin:round;stroke-miterlimit:4;stroke-dasharray:2.8, 1.8;stroke-dashoffset:0;stroke-opacity:1"
       id="path904" />
    <path
       d="m 886.464,655.183 88.982,25.072"
       style="fill:none;stroke:#231f20;stroke-width:0.5;stroke-linecap:round;stroke-linejoin:round;stroke-miterlimit:4;stroke-dasharray:2.8, 1.8;stroke-dashoffset:0;stroke-opacity:1"
       id="path906" />
    <path
       d="m 753.705,569.953 c 6.369,-8.112 14.029,-22.737 19.949,-30.745 5.92,-8.009 13.22,-17.638 17.759,-21.242 4.725,-3.75 9.012,-7.399 6.964,-11.142 -1.845,-3.372 -6.268,-5.224 -17.062,1.045 -4.864,2.825 -9.773,7.442 -16.366,11.839 -8.036,5.358 -17.724,10.649 -22.182,15.268"
       style="fill:none;stroke:#231f20;stroke-width:0.5;stroke-linecap:round;stroke-linejoin:round;stroke-miterlimit:4;stroke-dasharray:2.8, 1.8;stroke-dashoffset:0;stroke-opacity:1"
       id="path908" />
    <path
       d="m 745.1,457.725 c -4.142,-3.105 -2.437,-7.66 0.349,-11.839 2.785,-4.178 10.729,-14.203 17.41,-8.357 5.571,4.875 -1.741,11.84 -3.134,13.58 -1.393,1.741 -9.054,10.795 -14.625,6.616 z"
       style="fill:none;stroke:#231f20;stroke-width:0.5;stroke-linecap:round;stroke-linejoin:round;stroke-miterlimit:4;stroke-dasharray:2.8, 1.8;stroke-dashoffset:0;stroke-opacity:1"
       id="path910" />
    <path
       d="m 536.284,510.657 c -0.468,-4.872 1.861,-5.342 3.718,-5.342 1.858,0 4.186,0.47 3.718,5.342"
       style="fill:none;stroke:#231f20;stroke-width:0.5;stroke-linecap:round;stroke-linejoin:round;stroke-miterlimit:4;stroke-dasharray:2.8, 1.8;stroke-dashoffset:0;stroke-opacity:1"
       id="path912" />
    <path
       d="m 534.011,617.379 c -6.081,3.543 -34.316,22.916 -33.547,44.337"
       style="fill:none;stroke:#231f20;stroke-width:0.5;stroke-linecap:round;stroke-linejoin:round;stroke-miterlimit:4;stroke-dasharray:2.8, 1.8;stroke-dashoffset:0;stroke-opacity:1"
       id="path914" />
    <path
       d="m 530.901,613.963 c -5.756,1.619 -46.172,3.936 -57.768,3.939"
       style="fill:none;stroke:#231f20;stroke-width:0.5;stroke-linecap:round;stroke-linejoin:round;stroke-miterlimit:4;stroke-dasharray:2.8, 1.8;stroke-dashoffset:0;stroke-opacity:1"
       id="path916" />
    <path
       d="m 534.891,606.016 c -5.336,-2.04 -43.11,-14.874 -52.196,-17.743"
       style="fill:none;stroke:#231f20;stroke-width:0.5;stroke-linecap:round;stroke-linejoin:round;stroke-miterlimit:4;stroke-dasharray:2.8, 1.8;stroke-dashoffset:0;stroke-opacity:1"
       id="path918" />
    <path
       d="m 536.788,523.224 c 0.267,6.535 0.428,11.572 0.66,20.858 0.232,9.287 -1.16,12.073 -4.875,20.197 -3.715,8.125 -1.393,14.161 0.465,17.643 1.857,3.483 5.107,3.25 6.964,3.25 1.858,0 5.106,0.233 6.964,-3.25 1.858,-3.482 4.178,-9.518 0.465,-17.643 -3.716,-8.124 -5.107,-10.91 -4.875,-20.197 0.232,-9.286 0.392,-14.323 0.659,-20.858"
       style="fill:none;stroke:#231f20;stroke-width:0.5;stroke-linecap:round;stroke-linejoin:round;stroke-miterlimit:4;stroke-dasharray:2.8, 1.8;stroke-dashoffset:0;stroke-opacity:1"
       id="path920" />
    <path
       d="m 533.22,562.863 c -2.736,2.576 -11.326,3.969 -13.88,1.416 -2.552,-2.553 -7.712,-8.184 -10.007,-15.815"
       style="fill:none;stroke:#231f20;stroke-width:0.5;stroke-linecap:round;stroke-linejoin:round;stroke-miterlimit:4;stroke-dasharray:2.8, 1.8;stroke-dashoffset:0;stroke-opacity:1"
       id="path922" />
    <path
       d="m 537.448,544.082 c 0.019,2.554 -3.946,10.911 -11.375,10.911 -6.036,0 -9.75,-10.678 -9.518,-13.929"
       style="fill:none;stroke:#231f20;stroke-width:0.5;stroke-linecap:round;stroke-linejoin:round;stroke-miterlimit:4;stroke-dasharray:2.8, 1.8;stroke-dashoffset:0;stroke-opacity:1"
       id="path924" />
    <path
       d="m 536.055,584.71 c 0,0 0,-3.484 0,-4.876 0,-1.394 2.321,-5.108 3.947,-5.108 1.624,0 3.947,3.714 3.947,5.108 0,1.392 0,4.876 0,4.876"
       style="fill:none;stroke:#231f20;stroke-width:0.5;stroke-linecap:round;stroke-linejoin:round;stroke-miterlimit:4;stroke-dasharray:2.8, 1.8;stroke-dashoffset:0;stroke-opacity:1"
       id="path926" />
    <path
       d="m 533.038,581.922 c -3.483,2.554 -30.188,1.535 -45.273,-5.965"
       style="fill:none;stroke:#231f20;stroke-width:0.5;stroke-linecap:round;stroke-linejoin:round;stroke-miterlimit:4;stroke-dasharray:2.8, 1.8;stroke-dashoffset:0;stroke-opacity:1"
       id="path928" />
    <path
       d="m 532.245,580.298 c -5.243,0.928 -26.356,-5.963 -36.693,-16.331"
       style="fill:none;stroke:#231f20;stroke-width:0.5;stroke-linecap:round;stroke-linejoin:round;stroke-miterlimit:4;stroke-dasharray:2.8, 1.8;stroke-dashoffset:0;stroke-opacity:1"
       id="path930" />
    <path
       d="m 509.126,501.368 c 0.822,-5.087 -1.393,-13.233 -19.267,-13.697 -17.875,-0.463 -45.966,0.93 -57.34,2.323 -11.374,1.392 -32.268,8.355 -32.268,16.945 0,8.59 6.734,12.072 20.197,12.072 13.464,0 32.035,-6.501 42.017,-7.661 9.983,-1.16 24.839,-3.018 31.339,-2.089 6.501,0.929 14.16,-0.698 15.322,-7.893 z"
       style="fill:none;stroke:#231f20;stroke-width:0.5;stroke-linecap:round;stroke-linejoin:round;stroke-miterlimit:4;stroke-dasharray:2.8, 1.8;stroke-dashoffset:0;stroke-opacity:1"
       id="path932" />
    <path
       d="m 517.716,466.315 c -2.848,0.363 -11.84,2.09 -13.465,-4.411 -1.624,-6.5 5.804,-13.465 10.911,-16.25 5.108,-2.786 11.376,-4.178 13.001,3.251 1.624,7.427 -5.567,16.789 -10.447,17.41 z"
       style="fill:none;stroke:#231f20;stroke-width:0.5;stroke-linecap:round;stroke-linejoin:round;stroke-miterlimit:4;stroke-dasharray:2.8, 1.8;stroke-dashoffset:0;stroke-opacity:1"
       id="path934" />
    <path
       d="m 540.002,420.118 c -0.697,-1.393 -3.714,-3.714 -7.893,-3.714 -4.411,0 -5.107,10.215 -3.483,15.321 1.626,5.107 5.572,8.081 7.197,8.081 1.625,0 4.179,-3.437 4.179,-3.437 0,0 2.554,3.437 4.178,3.437 1.624,0 5.572,-2.974 7.196,-8.081 1.626,-5.106 0.93,-15.321 -3.482,-15.321 -4.179,0 -7.196,2.321 -7.892,3.714 z"
       style="fill:none;stroke:#231f20;stroke-width:0.5;stroke-linecap:round;stroke-linejoin:round;stroke-miterlimit:4;stroke-dasharray:2.8, 1.8;stroke-dashoffset:0;stroke-opacity:1"
       id="path936" />
    <path
       d="m 529.555,700.78 c 2.522,0.014 5.108,9.516 4.643,21.124 -0.464,11.607 -8.589,25.072 -13.697,29.25 -5.106,4.178 -19.267,8.126 -29.017,7.429 -9.75,-0.697 -24.143,-2.786 -31.339,-5.572 -7.197,-2.785 -14.395,-7.195 -21.822,-9.75 -7.428,-2.553 -16.714,-6.731 -25.072,-13.464 -8.357,-6.732 -13.928,-12.071 -23.678,-27.16 -9.75,-15.09 -12.281,-19.323 -12.641,-26.608"
       style="fill:none;stroke:#231f20;stroke-width:0.5;stroke-linecap:round;stroke-linejoin:round;stroke-miterlimit:4;stroke-dasharray:2.8, 1.8;stroke-dashoffset:0;stroke-opacity:1"
       id="path938" />
    <path
       d="m 383.435,621.06 c 1.941,-1.783 1.03,-4.085 -0.826,-9.424 -1.858,-5.339 -7.429,-24.142 -5.339,-35.054 2.089,-10.91 7.195,-22.517 3.249,-27.624"
       style="fill:none;stroke:#231f20;stroke-width:0.5;stroke-linecap:round;stroke-linejoin:round;stroke-miterlimit:4;stroke-dasharray:2.8, 1.8;stroke-dashoffset:0;stroke-opacity:1"
       id="path940" />
    <path
       d="m 366.126,548.029 c 6.5,0.696 14.392,1.392 19.036,0.232 4.643,-1.16 5.339,-4.411 7.197,-9.053 1.856,-4.643 1.856,-8.358 -0.93,-9.054 -2.785,-0.696 -22.637,-3.196 -25.479,-6.822"
       style="fill:none;stroke:#231f20;stroke-width:0.5;stroke-linecap:round;stroke-linejoin:round;stroke-miterlimit:4;stroke-dasharray:2.8, 1.8;stroke-dashoffset:0;stroke-opacity:1"
       id="path942" />
    <path
       d="m 391.429,530.154 c 2.786,0.232 7.895,-5.572 3.251,-9.054 -4.643,-3.481 -20.43,-4.529 -25.421,-4.353"
       style="fill:none;stroke:#231f20;stroke-width:0.5;stroke-linecap:round;stroke-linejoin:round;stroke-miterlimit:4;stroke-dasharray:2.8, 1.8;stroke-dashoffset:0;stroke-opacity:1"
       id="path944" />
    <path
       d="m 531.608,437.024 c -6.274,1.861 -42.47,6.377 -53.601,-15.595"
       style="fill:none;stroke:#231f20;stroke-width:0.5;stroke-linecap:round;stroke-linejoin:round;stroke-miterlimit:4;stroke-dasharray:2.8, 1.8;stroke-dashoffset:0;stroke-opacity:1"
       id="path946" />
    <path
       d="m 532.321,375.574 c -0.949,3.742 -0.908,8.33 -0.445,16.223 0.464,7.894 6.037,17.411 8.126,17.411 2.089,0 7.661,-9.517 8.125,-17.411 0.463,-7.893 0.503,-12.481 -0.444,-16.223"
       style="fill:none;stroke:#231f20;stroke-width:0.5;stroke-linecap:round;stroke-linejoin:round;stroke-miterlimit:4;stroke-dasharray:2.8, 1.8;stroke-dashoffset:0;stroke-opacity:1"
       id="path948" />
    <path
       d="m 530.037,417.354 c -0.25,-1.648 -1.643,-3.04 -3.732,-4.433 -2.09,-1.392 -11.875,-7.885 -11.875,-7.885"
       style="fill:none;stroke:#231f20;stroke-width:0.5;stroke-linecap:round;stroke-linejoin:round;stroke-miterlimit:4;stroke-dasharray:2.8, 1.8;stroke-dashoffset:0;stroke-opacity:1"
       id="path950" />
    <path
       d="m 528.834,415.014 c -1.6,-4.879 -8.273,-26.786 -10.508,-32.314"
       style="fill:none;stroke:#231f20;stroke-width:0.5;stroke-linecap:round;stroke-linejoin:round;stroke-miterlimit:4;stroke-dasharray:2.8, 1.8;stroke-dashoffset:0;stroke-opacity:1"
       id="path952" />
    <path
       d="m 525.394,412.316 c -1.875,-4.734 -6.908,-18.821 -10.427,-25.59"
       style="fill:none;stroke:#231f20;stroke-width:0.5;stroke-linecap:round;stroke-linejoin:round;stroke-miterlimit:4;stroke-dasharray:2.8, 1.8;stroke-dashoffset:0;stroke-opacity:1"
       id="path954" />
    <path
       d="m 333.858,518.315 c -3.482,0 -8.357,-8.009 -8.009,-16.366 0.349,-8.358 -0.348,-24.028 8.009,-25.072 8.357,-1.045 9.402,16.367 9.054,21.242 -0.348,4.875 -3.482,20.196 -9.054,20.196 z"
       style="fill:none;stroke:#231f20;stroke-width:0.5;stroke-linecap:round;stroke-linejoin:round;stroke-miterlimit:4;stroke-dasharray:2.8, 1.8;stroke-dashoffset:0;stroke-opacity:1"
       id="path956" />
    <path
       d="m 294.51,639.494 c -6.242,3.528 -22.982,1.741 -31.34,-10.099 -8.356,-11.839 -16.713,-33.776 -7.66,-60.241 9.054,-26.464 17.41,-30.643 25.072,-29.598 7.66,1.044 13.58,10.098 13.928,21.589 0.348,11.491 5.919,37.607 6.616,51.187 0.697,13.582 1.393,22.634 -6.616,27.162 z"
       style="fill:none;stroke:#231f20;stroke-width:0.5;stroke-linecap:round;stroke-linejoin:round;stroke-miterlimit:4;stroke-dasharray:2.8, 1.8;stroke-dashoffset:0;stroke-opacity:1"
       id="path958" />
    <path
       d="m 349.406,659.826 c -6.146,5.784 -23.717,21.212 -23.717,21.212"
       style="fill:none;stroke:#231f20;stroke-width:0.5;stroke-linecap:round;stroke-linejoin:round;stroke-miterlimit:4;stroke-dasharray:2.8, 1.8;stroke-dashoffset:0;stroke-opacity:1"
       id="path960" />
    <path
       d="m 318.49,679.391 c -4.132,-2.986 -11.445,-6.817 -7.266,-11.692 4.179,-4.875 16.698,-17.759 23.845,-22.808"
       style="fill:none;stroke:#231f20;stroke-width:0.5;stroke-linecap:round;stroke-linejoin:round;stroke-miterlimit:4;stroke-dasharray:2.8, 1.8;stroke-dashoffset:0;stroke-opacity:1"
       id="path962" />
    <path
       d="m 501.713,771.564 c 0,0 -58.806,27.962 -80.116,30.979"
       style="fill:none;stroke:#231f20;stroke-width:0.5;stroke-linecap:round;stroke-linejoin:round;stroke-miterlimit:4;stroke-dasharray:2.8, 1.8;stroke-dashoffset:0;stroke-opacity:1"
       id="path964" />
    <path
       d="m 523.384,806.905 -89.667,3.214"
       style="fill:none;stroke:#231f20;stroke-width:0.5;stroke-linecap:round;stroke-linejoin:round;stroke-miterlimit:4;stroke-dasharray:2.8, 1.8;stroke-dashoffset:0;stroke-opacity:1"
       id="path966" />
    <path
       d="M 526.421,839.021 436.582,814.994"
       style="fill:none;stroke:#231f20;stroke-width:0.5;stroke-linecap:round;stroke-linejoin:round;stroke-miterlimit:4;stroke-dasharray:2.8, 1.8;stroke-dashoffset:0;stroke-opacity:1"
       id="path968" />
    <path
       d="m 491.28,885.444 -54.698,-70.45"
       style="fill:none;stroke:#231f20;stroke-width:0.5;stroke-linecap:round;stroke-linejoin:round;stroke-miterlimit:4;stroke-dasharray:2.8, 1.8;stroke-dashoffset:0;stroke-opacity:1"
       id="path970" />
    <path
       d="m 443.674,895.301 -11.63,-79.545"
       style="fill:none;stroke:#231f20;stroke-width:0.5;stroke-linecap:round;stroke-linejoin:round;stroke-miterlimit:4;stroke-dasharray:2.8, 1.8;stroke-dashoffset:0;stroke-opacity:1"
       id="path972" />
    <path
       d="m 401.794,892.495 10.122,-82.806"
       style="fill:none;stroke:#231f20;stroke-width:0.5;stroke-linecap:round;stroke-linejoin:round;stroke-miterlimit:4;stroke-dasharray:2.8, 1.8;stroke-dashoffset:0;stroke-opacity:1"
       id="path974" />
    <path
       d="m 316.32,873.65 30.229,-89.826"
       style="fill:none;stroke:#231f20;stroke-width:0.5;stroke-linecap:round;stroke-linejoin:round;stroke-miterlimit:4;stroke-dasharray:2.8, 1.8;stroke-dashoffset:0;stroke-opacity:1"
       id="path976" />
    <path
       d="m 235.314,836.931 49.132,-84.446"
       style="fill:none;stroke:#231f20;stroke-width:0.5;stroke-linecap:round;stroke-linejoin:round;stroke-miterlimit:4;stroke-dasharray:2.8, 1.8;stroke-dashoffset:0;stroke-opacity:1"
       id="path978" />
    <path
       d="m 163.576,775.834 61.611,-66.233"
       style="fill:none;stroke:#231f20;stroke-width:0.5;stroke-linecap:round;stroke-linejoin:round;stroke-miterlimit:4;stroke-dasharray:2.8, 1.8;stroke-dashoffset:0;stroke-opacity:1"
       id="path980" />
    <path
       d="m 136.868,743.891 72.715,-55.833"
       style="fill:none;stroke:#231f20;stroke-width:0.5;stroke-linecap:round;stroke-linejoin:round;stroke-miterlimit:4;stroke-dasharray:2.8, 1.8;stroke-dashoffset:0;stroke-opacity:1"
       id="path982" />
    <path
       d="m 424.535,741.124 -35.908,32.543"
       style="fill:none;stroke:#231f20;stroke-width:0.5;stroke-linecap:round;stroke-linejoin:round;stroke-miterlimit:4;stroke-dasharray:2.8, 1.8;stroke-dashoffset:0;stroke-opacity:1"
       id="path984" />
    <path
       d="M 189.349,549.654 122.083,519.543"
       style="fill:none;stroke:#231f20;stroke-width:0.5;stroke-linecap:round;stroke-linejoin:round;stroke-miterlimit:4;stroke-dasharray:2.8, 1.8;stroke-dashoffset:0;stroke-opacity:1"
       id="path986" />
    <path
       d="M 184.37,569.665 117.46,550.814"
       style="fill:none;stroke:#231f20;stroke-width:0.5;stroke-linecap:round;stroke-linejoin:round;stroke-miterlimit:4;stroke-dasharray:2.8, 1.8;stroke-dashoffset:0;stroke-opacity:1"
       id="path988" />
    <path
       d="m 181.628,597.476 -81.494,-3.245"
       style="fill:none;stroke:#231f20;stroke-width:0.5;stroke-linecap:round;stroke-linejoin:round;stroke-miterlimit:4;stroke-dasharray:2.8, 1.8;stroke-dashoffset:0;stroke-opacity:1"
       id="path990" />
    <path
       d="M 185.978,632.298 99.7754,646.715"
       style="fill:none;stroke:#231f20;stroke-width:0.5;stroke-linecap:round;stroke-linejoin:round;stroke-miterlimit:4;stroke-dasharray:2.8, 1.8;stroke-dashoffset:0;stroke-opacity:1"
       id="path992" />
    <path
       d="m 193.539,655.183 -88.982,25.072"
       style="fill:none;stroke:#231f20;stroke-width:0.5;stroke-linecap:round;stroke-linejoin:round;stroke-miterlimit:4;stroke-dasharray:2.8, 1.8;stroke-dashoffset:0;stroke-opacity:1"
       id="path994" />
    <path
       d="m 326.298,569.953 c -6.368,-8.112 -14.029,-22.737 -19.949,-30.745 -5.92,-8.009 -13.22,-17.638 -17.759,-21.242 -4.725,-3.75 -9.012,-7.399 -6.964,-11.142 1.846,-3.372 6.268,-5.224 17.063,1.045 4.864,2.825 9.772,7.442 16.366,11.839 8.036,5.358 17.723,10.649 22.181,15.268"
       style="fill:none;stroke:#231f20;stroke-width:0.5;stroke-linecap:round;stroke-linejoin:round;stroke-miterlimit:4;stroke-dasharray:2.8, 1.8;stroke-dashoffset:0;stroke-opacity:1"
       id="path996" />
    <path
       d="m 334.903,457.725 c 4.141,-3.105 2.437,-7.66 -0.348,-11.839 -2.786,-4.178 -10.729,-14.203 -17.411,-8.357 -5.571,4.875 1.741,11.84 3.134,13.58 1.392,1.741 9.054,10.795 14.625,6.616 z"
       style="fill:none;stroke:#231f20;stroke-width:0.5;stroke-linecap:round;stroke-linejoin:round;stroke-miterlimit:4;stroke-dasharray:2.8, 1.8;stroke-dashoffset:0;stroke-opacity:1"
       id="path998" />
    <path
       d="m 814.803,455.252 14.504,-61.765"
       style="fill:none;stroke:#231f20;stroke-width:0.5;stroke-linecap:round;stroke-linejoin:round;stroke-miterlimit:4;stroke-dasharray:2.8, 1.8;stroke-dashoffset:0;stroke-opacity:1"
       id="path1000" />
    <path
       d="M 889.913,420.445 851.557,478.97"
       style="fill:none;stroke:#231f20;stroke-width:0.5;stroke-linecap:round;stroke-linejoin:round;stroke-miterlimit:4;stroke-dasharray:2.8, 1.8;stroke-dashoffset:0;stroke-opacity:1"
       id="path1002" />
    <path
       d="m 942.64,468.679 -69.28,41.549"
       style="fill:none;stroke:#231f20;stroke-width:0.5;stroke-linecap:round;stroke-linejoin:round;stroke-miterlimit:4;stroke-dasharray:2.8, 1.8;stroke-dashoffset:0;stroke-opacity:1"
       id="path1004" />
    <path
       d="m 724.689,466.786 77.928,-7.3"
       style="fill:none;stroke:#231f20;stroke-width:0.5;stroke-linecap:round;stroke-linejoin:round;stroke-miterlimit:4;stroke-dasharray:2.8, 1.8;stroke-dashoffset:0;stroke-opacity:1"
       id="path1006" />
    <path
       d="m 811.002,468.129 -68.235,66.847"
       style="fill:none;stroke:#231f20;stroke-width:0.5;stroke-linecap:round;stroke-linejoin:round;stroke-miterlimit:4;stroke-dasharray:2.8, 1.8;stroke-dashoffset:0;stroke-opacity:1"
       id="path1008" />
    <path
       d="m 832.153,477.902 -77.494,96.479"
       style="fill:none;stroke:#231f20;stroke-width:0.5;stroke-linecap:round;stroke-linejoin:round;stroke-miterlimit:4;stroke-dasharray:2.8, 1.8;stroke-dashoffset:0;stroke-opacity:1"
       id="path1010" />
    <path
       d="m 320.791,406.07 c -3.996,5.343 -38.346,44.994 -43.917,52.306"
       style="fill:none;stroke:#231f20;stroke-width:0.5;stroke-linecap:round;stroke-linejoin:round;stroke-miterlimit:4;stroke-dasharray:2.8, 1.8;stroke-dashoffset:0;stroke-opacity:1"
       id="path1012" />
    <path
       d="m 270.701,505.561 c -7.531,1.611 -17.454,5.615 -27.031,15.191 -19.151,19.152 -30.642,47.358 -31.338,73.125 -0.697,25.768 18.106,58.5 37.607,79.393 19.5,20.894 28.901,29.599 39.348,21.241 10.446,-8.356 20.196,-16.714 30.295,-14.972 10.098,1.741 16.366,5.222 15.669,17.758 -0.696,12.535 -4.276,19.97 -5.223,21.589 -1.201,2.056 -2.893,4.503 -5.685,6.274"
       style="fill:none;stroke:#231f20;stroke-width:0.5;stroke-linecap:round;stroke-linejoin:round;stroke-miterlimit:4;stroke-dasharray:2.8, 1.8;stroke-dashoffset:0;stroke-opacity:1"
       id="path1014" />
    <path
       d="M 265.2,455.252 250.696,393.487"
       style="fill:none;stroke:#231f20;stroke-width:0.5;stroke-linecap:round;stroke-linejoin:round;stroke-miterlimit:4;stroke-dasharray:2.8, 1.8;stroke-dashoffset:0;stroke-opacity:1"
       id="path1016" />
    <path
       d="m 190.09,420.445 38.356,58.525"
       style="fill:none;stroke:#231f20;stroke-width:0.5;stroke-linecap:round;stroke-linejoin:round;stroke-miterlimit:4;stroke-dasharray:2.8, 1.8;stroke-dashoffset:0;stroke-opacity:1"
       id="path1018" />
    <path
       d="m 137.363,468.679 69.28,41.549"
       style="fill:none;stroke:#231f20;stroke-width:0.5;stroke-linecap:round;stroke-linejoin:round;stroke-miterlimit:4;stroke-dasharray:2.8, 1.8;stroke-dashoffset:0;stroke-opacity:1"
       id="path1020" />
    <path
       d="m 355.314,466.786 -77.928,-7.3"
       style="fill:none;stroke:#231f20;stroke-width:0.5;stroke-linecap:round;stroke-linejoin:round;stroke-miterlimit:4;stroke-dasharray:2.8, 1.8;stroke-dashoffset:0;stroke-opacity:1"
       id="path1022" />
    <path
       d="m 269.001,468.129 68.235,66.847"
       style="fill:none;stroke:#231f20;stroke-width:0.5;stroke-linecap:round;stroke-linejoin:round;stroke-miterlimit:4;stroke-dasharray:2.8, 1.8;stroke-dashoffset:0;stroke-opacity:1"
       id="path1024" />
    <path
       d="m 247.85,477.902 77.495,96.479"
       style="fill:none;stroke:#231f20;stroke-width:0.5;stroke-linecap:round;stroke-linejoin:round;stroke-miterlimit:4;stroke-dasharray:2.8, 1.8;stroke-dashoffset:0;stroke-opacity:1"
       id="path1026" />
    <path
       d="M 863.717,663.773 845.945,653.234"
       style="fill:none;stroke:#231f20;stroke-width:0.5;stroke-linecap:round;stroke-linejoin:round;stroke-miterlimit:4;stroke-dasharray:2.8, 1.8;stroke-dashoffset:0;stroke-opacity:1"
       id="path1028" />
    <path
       d="m 883.91,597.58 -16.275,-0.015"
       style="fill:none;stroke:#231f20;stroke-width:0.5;stroke-linecap:round;stroke-linejoin:round;stroke-miterlimit:4;stroke-dasharray:2.8, 1.8;stroke-dashoffset:0;stroke-opacity:1"
       id="path1030" />
    <path
       d="m 216.286,663.773 17.772,-10.539"
       style="fill:none;stroke:#231f20;stroke-width:0.5;stroke-linecap:round;stroke-linejoin:round;stroke-miterlimit:4;stroke-dasharray:2.8, 1.8;stroke-dashoffset:0;stroke-opacity:1"
       id="path1032" />
    <path
       d="m 196.093,597.58 16.275,-0.015"
       style="fill:none;stroke:#231f20;stroke-width:0.5;stroke-linecap:round;stroke-linejoin:round;stroke-miterlimit:4;stroke-dasharray:2.8, 1.8;stroke-dashoffset:0;stroke-opacity:1"
       id="path1034" />
    <path
       d="m 552.075,428.035 c 1.159,-3.275 7.195,-9.774 8.819,-10.703 0.813,-0.463 1.45,-0.522 1.975,-1.014"
       style="fill:none;stroke:#231f20;stroke-width:0.5;stroke-linecap:round;stroke-linejoin:round;stroke-miterlimit:4;stroke-dasharray:2.8, 1.8;stroke-dashoffset:0;stroke-opacity:1"
       id="path1036" />
    <path
       d="m 527.928,428.035 c -1.159,-3.275 -7.194,-9.774 -8.819,-10.703 -0.813,-0.463 -1.451,-0.521 -1.974,-1.013"
       style="fill:none;stroke:#231f20;stroke-width:0.5;stroke-linecap:round;stroke-linejoin:round;stroke-miterlimit:4;stroke-dasharray:2.8, 1.8;stroke-dashoffset:0;stroke-opacity:1"
       id="path1038" />
    <path
       d="m 510.055,388.779 c 3.008,0.506 5.344,-2.363 6.733,-4.179 3.017,-3.946 4.875,-5.339 9.285,-7.428 3.735,-1.769 8.125,-1.858 13.929,-1.858 5.802,0 10.193,0.089 13.928,1.858 4.41,2.089 6.268,3.482 9.285,7.428 1.39,1.816 3.726,4.685 6.733,4.179"
       style="fill:none;stroke:#231f20;stroke-width:0.5;stroke-linecap:round;stroke-linejoin:round;stroke-miterlimit:4;stroke-dasharray:2.8, 1.8;stroke-dashoffset:0;stroke-opacity:1"
       id="path1040" />
  </g>
</svg>
