<?xml version="1.0" encoding="UTF-8" standalone="no"?>
<!-- Created with Inkscape (http://www.inkscape.org/) -->

<svg
   version="1.1"
   id="svg2"
   width="1440"
   height="1344"
   viewBox="0 0 1440 1344"
   xmlns="http://www.w3.org/2000/svg"
   xmlns:svg="http://www.w3.org/2000/svg">
  <defs
     id="defs6" />
  <g
     id="g10">
    <path
       d="m 658.763,421.681 c 0.851,1.894 1.485,3.311 1.831,4.065 0.347,0.751 4.764,2.262 6.621,1.104 1.859,-1.162 2.09,-6.268 0.93,-8.822 -1.16,-2.552 -9.853,-8.904 -12.239,-2.71 l 2.857,6.363"
       style="fill:#ffffff;fill-opacity:1;fill-rule:nonzero;stroke:none;stroke-width:0.1"
       id="path674" />
    <path
       d="m 658.763,421.681 c 0.851,1.894 1.485,3.311 1.831,4.065 0.347,0.751 4.764,2.262 6.621,1.104 1.859,-1.162 2.09,-6.268 0.93,-8.822 -1.16,-2.552 -9.853,-8.904 -12.239,-2.71 z"
       style="fill:none;stroke:#231f20;stroke-width:0.5;stroke-linecap:butt;stroke-linejoin:miter;stroke-miterlimit:4;stroke-dasharray:none;stroke-opacity:1"
       id="path676" />
    <path
       d="m 739.546,561.144 c 0,-2.692 -1.878,-4.875 -4.196,-4.875 -2.317,0 -4.196,2.183 -4.196,4.875 0,2.693 1.879,4.875 4.196,4.875 2.318,0 4.196,-2.182 4.196,-4.875"
       style="fill:#ffffff;fill-opacity:1;fill-rule:nonzero;stroke:none;stroke-width:0.1"
       id="path678" />
    <path
       d="m 739.546,561.144 c 0,-2.692 -1.878,-4.875 -4.196,-4.875 -2.317,0 -4.196,2.183 -4.196,4.875 0,2.693 1.879,4.875 4.196,4.875 2.318,0 4.196,-2.182 4.196,-4.875 z"
       style="fill:none;stroke:#231f20;stroke-width:0.5;stroke-linecap:butt;stroke-linejoin:miter;stroke-miterlimit:4;stroke-dasharray:none;stroke-opacity:1"
       id="path680" />
    <path
       d="m 544.544,331.039 c 0,-2.027 -2.034,-3.669 -4.542,-3.669 -2.508,0 -4.542,1.642 -4.542,3.669 0,2.024 2.034,3.667 4.542,3.667 2.508,0 4.542,-1.643 4.542,-3.667"
       style="fill:#ffffff;fill-opacity:1;fill-rule:nonzero;stroke:none;stroke-width:0.1"
       id="path682" />
    <path
       d="m 544.544,331.039 c 0,-2.027 -2.034,-3.669 -4.542,-3.669 -2.508,0 -4.542,1.642 -4.542,3.669 0,2.024 2.034,3.667 4.542,3.667 2.508,0 4.542,-1.643 4.542,-3.667 z"
       style="fill:none;stroke:#231f20;stroke-width:0.5;stroke-linecap:butt;stroke-linejoin:miter;stroke-miterlimit:4;stroke-dasharray:none;stroke-opacity:1"
       id="path684" />
    <path
       d="m 421.24,421.681 c -0.85,1.894 -1.484,3.311 -1.831,4.065 -0.347,0.751 -4.763,2.262 -6.621,1.104 -1.859,-1.162 -2.09,-6.268 -0.929,-8.822 1.16,-2.552 9.852,-8.904 12.239,-2.71 l -2.858,6.363"
       style="fill:#ffffff;fill-opacity:1;fill-rule:nonzero;stroke:none;stroke-width:0.1"
       id="path686" />
    <path
       d="m 421.24,421.681 c -0.85,1.894 -1.484,3.311 -1.831,4.065 -0.347,0.751 -4.763,2.262 -6.621,1.104 -1.859,-1.162 -2.09,-6.268 -0.929,-8.822 1.16,-2.552 9.852,-8.904 12.239,-2.71 z"
       style="fill:none;stroke:#231f20;stroke-width:0.5;stroke-linecap:butt;stroke-linejoin:miter;stroke-miterlimit:4;stroke-dasharray:none;stroke-opacity:1"
       id="path688" />
    <path
       d="m 340.457,561.144 c 0,-2.692 1.878,-4.875 4.196,-4.875 2.318,0 4.196,2.183 4.196,4.875 0,2.693 -1.878,4.875 -4.196,4.875 -2.318,0 -4.196,-2.182 -4.196,-4.875"
       style="fill:#ffffff;fill-opacity:1;fill-rule:nonzero;stroke:none;stroke-width:0.1"
       id="path690" />
    <path
       d="m 340.457,561.144 c 0,-2.692 1.878,-4.875 4.196,-4.875 2.318,0 4.196,2.183 4.196,4.875 0,2.693 -1.878,4.875 -4.196,4.875 -2.318,0 -4.196,-2.182 -4.196,-4.875 z"
       style="fill:none;stroke:#231f20;stroke-width:0.5;stroke-linecap:butt;stroke-linejoin:miter;stroke-miterlimit:4;stroke-dasharray:none;stroke-opacity:1"
       id="path692" />
    <path
       d="m 675.109,418.724 c 2.481,4.342 6.501,10.449 12.768,14.162 6.268,3.714 17.177,7.196 27.392,4.41 10.216,-2.786 14.627,-6.034 15.787,-14.16 1.118,-7.826 1.16,-14.393 -8.59,-21.823 -11.045,-8.414 -26.233,-12.998 -36.447,-9.054 -10.214,3.947 -16.481,16.715 -10.91,26.465"
       style="fill:#ffffff;fill-opacity:1;fill-rule:nonzero;stroke:none;stroke-width:0.1"
       id="path694" />
    <path
       d="m 675.109,418.724 c 2.481,4.342 6.501,10.449 12.768,14.162 6.268,3.714 17.177,7.196 27.392,4.41 10.216,-2.786 14.627,-6.034 15.787,-14.16 1.118,-7.826 1.16,-14.393 -8.59,-21.823 -11.045,-8.414 -26.233,-12.998 -36.447,-9.054 -10.214,3.947 -16.481,16.715 -10.91,26.465 z"
       style="fill:none;stroke:#231f20;stroke-width:0.75;stroke-linecap:round;stroke-linejoin:round;stroke-miterlimit:4;stroke-dasharray:none;stroke-opacity:1"
       id="path696" />
    <path
       d="m 686.019,392.259 c -10.214,3.947 -16.481,16.715 -10.91,26.465 0,0 -6.035,0.003 -8.124,-8.123 -2.09,-8.126 0.23,-23.447 5.105,-27.857 4.875,-4.413 11.84,-6.734 15.091,-2.786 3.251,3.945 2.785,9.516 -1.162,12.301"
       style="fill:#ffffff;fill-opacity:1;fill-rule:nonzero;stroke:none;stroke-width:0.1"
       id="path698" />
    <path
       d="m 686.019,392.259 c -10.214,3.947 -16.481,16.715 -10.91,26.465 0,0 -6.035,0.003 -8.124,-8.123 -2.09,-8.126 0.23,-23.447 5.105,-27.857 4.875,-4.413 11.84,-6.734 15.091,-2.786 3.251,3.945 2.785,9.516 -1.162,12.301 z"
       style="fill:none;stroke:#231f20;stroke-width:0.75;stroke-linecap:round;stroke-linejoin:round;stroke-miterlimit:4;stroke-dasharray:none;stroke-opacity:1"
       id="path700" />
    <path
       d="m 692.288,708.904 c 8.725,-7.481 22.981,-36.679 26.232,-41.322 3.251,-4.643 19.5,-26.464 25.535,-35.75 6.036,-9.286 5.572,-33.893 5.109,-42.25 -0.464,-8.357 -2.787,-27.393 -4.645,-32.965 -1.857,-5.572 -18.106,-20.893 -22.749,-50.143 -5.469,-34.451 10.214,-64.071 32.499,-84.499 22.286,-20.431 35.287,-26.93 69.18,-23.214 33.892,3.714 66.857,34.357 92.857,54.321 26.001,19.966 34.357,55.715 37.143,67.321 2.785,11.608 -3.714,25.536 -2.786,28.322 0.927,2.786 8.357,5.571 10.678,9.75 2.323,4.179 10.68,24.143 11.144,42.25 0.464,18.107 5.571,54.786 -20.894,105.857 -26.464,51.072 -52.58,83.339 -97.847,117.117 -45.269,33.776 -109.106,52.593 -117.349,54.321 -14.492,3.04 -53.974,13.929 -89.491,12.884 -49.082,-1.444 -70.34,-18.107 -83.572,-32.732 -13.232,-14.625 -14.277,-28.553 -8.706,-50.84 5.572,-22.286 24.724,-33.08 36.215,-37.955 11.491,-4.875 21.822,-9.696 33.893,-14.277 8.868,-3.365 30.18,-9.982 36.679,-12.304 6.5,-2.321 9.517,-6.151 12.303,-9.981 2.786,-3.831 16.893,-21.773 18.572,-23.911"
       style="fill:#ffffff;fill-opacity:1;fill-rule:nonzero;stroke:none;stroke-width:0.1"
       id="path702" />
    <path
       d="m 692.288,708.904 c 8.725,-7.481 22.981,-36.679 26.232,-41.322 3.251,-4.643 19.5,-26.464 25.535,-35.75 6.036,-9.286 5.572,-33.893 5.109,-42.25 -0.464,-8.357 -2.787,-27.393 -4.645,-32.965 -1.857,-5.572 -18.106,-20.893 -22.749,-50.143 -5.469,-34.451 10.214,-64.071 32.499,-84.499 22.286,-20.431 35.287,-26.93 69.18,-23.214 33.892,3.714 66.857,34.357 92.857,54.321 26.001,19.966 34.357,55.715 37.143,67.321 2.785,11.608 -3.714,25.536 -2.786,28.322 0.927,2.786 8.357,5.571 10.678,9.75 2.323,4.179 10.68,24.143 11.144,42.25 0.464,18.107 5.571,54.786 -20.894,105.857 -26.464,51.072 -52.58,83.339 -97.847,117.117 -45.269,33.776 -109.106,52.593 -117.349,54.321 -14.492,3.04 -53.974,13.929 -89.491,12.884 -49.082,-1.444 -70.34,-18.107 -83.572,-32.732 -13.232,-14.625 -14.277,-28.553 -8.706,-50.84 5.572,-22.286 24.724,-33.08 36.215,-37.955 11.491,-4.875 21.822,-9.696 33.893,-14.277 8.868,-3.365 30.18,-9.982 36.679,-12.304 6.5,-2.321 9.517,-6.151 12.303,-9.981 2.786,-3.831 16.893,-21.773 18.572,-23.911 z"
       style="fill:none;stroke:#231f20;stroke-width:0.75;stroke-linecap:round;stroke-linejoin:round;stroke-miterlimit:4;stroke-dasharray:none;stroke-opacity:1"
       id="path704" />
    <path
       d="m 554.8,758.93 c 3.135,2.438 4.354,4.701 2.786,6.965 -1.401,2.024 -5.397,1.219 -7.834,-0.522 -2.438,-1.742 -4.353,-6.268 -3.134,-8.009 1.218,-1.741 4.576,-1.239 8.182,1.566"
       style="fill:#ffffff;fill-opacity:1;fill-rule:nonzero;stroke:none;stroke-width:0.1"
       id="path706" />
    <path
       d="m 554.8,758.93 c 3.135,2.438 4.354,4.701 2.786,6.965 -1.401,2.024 -5.397,1.219 -7.834,-0.522 -2.438,-1.742 -4.353,-6.268 -3.134,-8.009 1.218,-1.741 4.576,-1.239 8.182,1.566 z"
       style="fill:none;stroke:#231f20;stroke-width:0.5;stroke-linecap:butt;stroke-linejoin:miter;stroke-miterlimit:4;stroke-dasharray:none;stroke-opacity:1"
       id="path708" />
    <path
       d="m 550.448,764.502 c 1.518,1.114 2.786,2.786 1.915,4.527 -0.87,1.741 -4.353,1.219 -5.919,0 -1.568,-1.219 -2.438,-3.656 -1.568,-4.875 0.872,-1.219 2.96,-1.568 5.572,0.348"
       style="fill:#ffffff;fill-opacity:1;fill-rule:nonzero;stroke:none;stroke-width:0.1"
       id="path710" />
    <path
       d="m 550.448,764.502 c 1.518,1.114 2.786,2.786 1.915,4.527 -0.87,1.741 -4.353,1.219 -5.919,0 -1.568,-1.219 -2.438,-3.656 -1.568,-4.875 0.872,-1.219 2.96,-1.568 5.572,0.348 z"
       style="fill:none;stroke:#231f20;stroke-width:0.5;stroke-linecap:butt;stroke-linejoin:miter;stroke-miterlimit:4;stroke-dasharray:none;stroke-opacity:1"
       id="path712" />
    <path
       d="m 540.002,334.69 c -2.322,0 -5.107,-0.234 -7.429,-0.931 -2.323,-0.696 -10.214,-5.571 -34.821,-2.785 -24.608,2.785 -41.439,12.442 -45.037,15.321 -5.802,4.644 -11.142,11.143 -13.928,19.734 -2.787,8.589 -8.125,27.624 -9.286,31.571 -1.16,3.944 0.464,5.571 0.464,5.571 -0.928,0.928 -1.856,3.251 -10.214,21.821 -8.356,18.572 -21.357,35.517 -25.767,41.786 -4.41,6.267 -1.161,10.68 -1.161,10.68 -1.859,5.106 -21.59,39.231 -24.607,44.803 -3.017,5.571 -6.733,16.714 -17.643,36.91 -10.91,20.197 -14.393,48.982 -3.715,70.108 10.678,21.124 23.447,27.392 23.447,27.392 0.465,7.198 12.536,21.358 12.536,21.358 -3.25,-2.322 -4.644,1.392 -5.107,6.267 -0.464,4.875 7.428,21.125 9.982,24.608 2.555,3.482 16.249,21.59 28.088,28.786 11.84,7.195 35.055,15.785 39.466,17.41 4.411,1.625 28.32,7.661 31.803,8.358 3.482,0.696 11.142,1.624 18.803,0 7.662,-1.626 21.822,-11.143 26.697,-16.018 4.875,-4.875 7.429,-12.523 7.429,-16.946 0,4.423 2.554,12.071 7.429,16.946 4.875,4.875 19.035,14.392 26.695,16.018 7.662,1.624 15.322,0.696 18.804,0 3.483,-0.697 27.393,-6.733 31.804,-8.358 4.411,-1.625 27.626,-10.215 39.465,-17.41 11.839,-7.196 25.534,-25.304 28.089,-28.786 2.553,-3.483 10.446,-19.733 9.982,-24.608 -0.464,-4.875 -1.858,-8.589 -5.107,-6.267 0,0 12.07,-14.16 12.535,-21.358 0,0 12.769,-6.268 23.447,-27.392 10.678,-21.126 7.196,-49.911 -3.715,-70.108 -10.91,-20.196 -14.626,-31.339 -17.642,-36.91 -3.018,-5.572 -22.749,-39.697 -24.607,-44.803 0,0 3.248,-4.413 -1.162,-10.68 -4.409,-6.269 -17.41,-23.214 -25.767,-41.786 -8.358,-18.57 -9.286,-20.893 -10.214,-21.821 0,0 1.624,-1.627 0.464,-5.571 -1.161,-3.947 -6.5,-22.982 -9.286,-31.571 -2.785,-8.591 -8.126,-15.09 -13.928,-19.734 -3.598,-2.879 -20.429,-12.536 -45.036,-15.321 -24.608,-2.786 -32.5,2.089 -34.821,2.785 -2.323,0.697 -5.109,0.931 -7.429,0.931"
       style="fill:#ffffff;fill-opacity:1;fill-rule:nonzero;stroke:none;stroke-width:0.1"
       id="path714" />
    <path
       d="m 540.002,334.69 c -2.322,0 -5.107,-0.234 -7.429,-0.931 -2.323,-0.696 -10.214,-5.571 -34.821,-2.785 -24.608,2.785 -41.439,12.442 -45.037,15.321 -5.802,4.644 -11.142,11.143 -13.928,19.734 -2.787,8.589 -8.125,27.624 -9.286,31.571 -1.16,3.944 0.464,5.571 0.464,5.571 -0.928,0.928 -1.856,3.251 -10.214,21.821 -8.356,18.572 -21.357,35.517 -25.767,41.786 -4.41,6.267 -1.161,10.68 -1.161,10.68 -1.859,5.106 -21.59,39.231 -24.607,44.803 -3.017,5.571 -6.733,16.714 -17.643,36.91 -10.91,20.197 -14.393,48.982 -3.715,70.108 10.678,21.124 23.447,27.392 23.447,27.392 0.465,7.198 12.536,21.358 12.536,21.358 -3.25,-2.322 -4.644,1.392 -5.107,6.267 -0.464,4.875 7.428,21.125 9.982,24.608 2.555,3.482 16.249,21.59 28.088,28.786 11.84,7.195 35.055,15.785 39.466,17.41 4.411,1.625 28.32,7.661 31.803,8.358 3.482,0.696 11.142,1.624 18.803,0 7.662,-1.626 21.822,-11.143 26.697,-16.018 4.875,-4.875 7.429,-12.523 7.429,-16.946 0,4.423 2.554,12.071 7.429,16.946 4.875,4.875 19.035,14.392 26.695,16.018 7.662,1.624 15.322,0.696 18.804,0 3.483,-0.697 27.393,-6.733 31.804,-8.358 4.411,-1.625 27.626,-10.215 39.465,-17.41 11.839,-7.196 25.534,-25.304 28.089,-28.786 2.553,-3.483 10.446,-19.733 9.982,-24.608 -0.464,-4.875 -1.858,-8.589 -5.107,-6.267 0,0 12.07,-14.16 12.535,-21.358 0,0 12.769,-6.268 23.447,-27.392 10.678,-21.126 7.196,-49.911 -3.715,-70.108 -10.91,-20.196 -14.626,-31.339 -17.642,-36.91 -3.018,-5.572 -22.749,-39.697 -24.607,-44.803 0,0 3.248,-4.413 -1.162,-10.68 -4.409,-6.269 -17.41,-23.214 -25.767,-41.786 -8.358,-18.57 -9.286,-20.893 -10.214,-21.821 0,0 1.624,-1.627 0.464,-5.571 -1.161,-3.947 -6.5,-22.982 -9.286,-31.571 -2.785,-8.591 -8.126,-15.09 -13.928,-19.734 -3.598,-2.879 -20.429,-12.536 -45.036,-15.321 -24.608,-2.786 -32.5,2.089 -34.821,2.785 -2.323,0.697 -5.109,0.931 -7.429,0.931 z"
       style="fill:none;stroke:#231f20;stroke-width:0.75;stroke-linecap:round;stroke-linejoin:round;stroke-miterlimit:4;stroke-dasharray:none;stroke-opacity:1"
       id="path716" />
    <path
       d="m 404.894,418.724 c -2.48,4.342 -6.5,10.449 -12.768,14.162 -6.268,3.714 -17.177,7.196 -27.392,4.41 -10.215,-2.786 -14.626,-6.034 -15.787,-14.16 -1.118,-7.826 -1.16,-14.393 8.59,-21.823 11.045,-8.414 26.233,-12.998 36.447,-9.054 10.214,3.947 16.481,16.715 10.91,26.465"
       style="fill:#ffffff;fill-opacity:1;fill-rule:nonzero;stroke:none;stroke-width:0.1"
       id="path718" />
    <path
       d="m 404.894,418.724 c -2.48,4.342 -6.5,10.449 -12.768,14.162 -6.268,3.714 -17.177,7.196 -27.392,4.41 -10.215,-2.786 -14.626,-6.034 -15.787,-14.16 -1.118,-7.826 -1.16,-14.393 8.59,-21.823 11.045,-8.414 26.233,-12.998 36.447,-9.054 10.214,3.947 16.481,16.715 10.91,26.465 z"
       style="fill:none;stroke:#231f20;stroke-width:0.75;stroke-linecap:round;stroke-linejoin:round;stroke-miterlimit:4;stroke-dasharray:none;stroke-opacity:1"
       id="path720" />
    <path
       d="m 393.984,392.259 c 10.214,3.947 16.481,16.715 10.91,26.465 0,0 6.035,0.003 8.125,-8.123 2.089,-8.126 -0.231,-23.447 -5.106,-27.857 -4.875,-4.413 -11.84,-6.734 -15.09,-2.786 -3.251,3.945 -2.786,9.516 1.161,12.301"
       style="fill:#ffffff;fill-opacity:1;fill-rule:nonzero;stroke:none;stroke-width:0.1"
       id="path722" />
    <path
       d="m 393.984,392.259 c 10.214,3.947 16.481,16.715 10.91,26.465 0,0 6.035,0.003 8.125,-8.123 2.089,-8.126 -0.231,-23.447 -5.106,-27.857 -4.875,-4.413 -11.84,-6.734 -15.09,-2.786 -3.251,3.945 -2.786,9.516 1.161,12.301 z"
       style="fill:none;stroke:#231f20;stroke-width:0.75;stroke-linecap:round;stroke-linejoin:round;stroke-miterlimit:4;stroke-dasharray:none;stroke-opacity:1"
       id="path724" />
    <path
       d="m 387.716,708.904 c -8.725,-7.481 -22.982,-36.679 -26.233,-41.322 -3.251,-4.643 -19.5,-26.464 -25.535,-35.75 -6.035,-9.286 -5.572,-33.893 -5.108,-42.25 0.464,-8.357 2.786,-27.393 4.644,-32.965 1.858,-5.572 18.107,-20.893 22.749,-50.143 5.469,-34.451 -10.214,-64.071 -32.499,-84.499 -22.286,-20.431 -35.287,-26.93 -69.18,-23.214 -33.891,3.714 -66.856,34.357 -92.857,54.321 -26,19.966 -34.357,55.715 -37.142,67.321 -2.786,11.608 3.713,25.536 2.785,28.322 -0.927,2.786 -8.357,5.571 -10.678,9.75 -2.323,4.179 -10.68,24.143 -11.143,42.25 -0.464,18.107 -5.572,54.786 20.893,105.857 26.464,51.072 52.58,83.339 97.848,117.117 45.268,33.776 109.106,52.593 117.348,54.321 14.492,3.04 53.974,13.929 89.491,12.884 49.082,-1.444 70.34,-18.107 83.572,-32.732 13.233,-14.625 14.277,-28.553 8.705,-50.84 -5.571,-22.286 -24.723,-33.08 -36.213,-37.955 -11.492,-4.875 -21.823,-9.696 -33.893,-14.277 -8.869,-3.365 -30.181,-9.982 -36.68,-12.304 -6.499,-2.321 -9.517,-6.151 -12.303,-9.981 -2.786,-3.831 -16.892,-21.773 -18.571,-23.911"
       style="fill:#ffffff;fill-opacity:1;fill-rule:nonzero;stroke:none;stroke-width:0.1"
       id="path726" />
    <path
       d="m 387.716,708.904 c -8.725,-7.481 -22.982,-36.679 -26.233,-41.322 -3.251,-4.643 -19.5,-26.464 -25.535,-35.75 -6.035,-9.286 -5.572,-33.893 -5.108,-42.25 0.464,-8.357 2.786,-27.393 4.644,-32.965 1.858,-5.572 18.107,-20.893 22.749,-50.143 5.469,-34.451 -10.214,-64.071 -32.499,-84.499 -22.286,-20.431 -35.287,-26.93 -69.18,-23.214 -33.891,3.714 -66.856,34.357 -92.857,54.321 -26,19.966 -34.357,55.715 -37.142,67.321 -2.786,11.608 3.713,25.536 2.785,28.322 -0.927,2.786 -8.357,5.571 -10.678,9.75 -2.323,4.179 -10.68,24.143 -11.143,42.25 -0.464,18.107 -5.572,54.786 20.893,105.857 26.464,51.072 52.58,83.339 97.848,117.117 45.268,33.776 109.106,52.593 117.348,54.321 14.492,3.04 53.974,13.929 89.491,12.884 49.082,-1.444 70.34,-18.107 83.572,-32.732 13.233,-14.625 14.277,-28.553 8.705,-50.84 -5.571,-22.286 -24.723,-33.08 -36.213,-37.955 -11.492,-4.875 -21.823,-9.696 -33.893,-14.277 -8.869,-3.365 -30.181,-9.982 -36.68,-12.304 -6.499,-2.321 -9.517,-6.151 -12.303,-9.981 -2.786,-3.831 -16.892,-21.773 -18.571,-23.911 z"
       style="fill:none;stroke:#231f20;stroke-width:0.75;stroke-linecap:round;stroke-linejoin:round;stroke-miterlimit:4;stroke-dasharray:none;stroke-opacity:1"
       id="path728" />
    <path
       d="m 525.203,758.93 c -3.134,2.438 -4.353,4.701 -2.787,6.965 1.403,2.024 5.398,1.219 7.836,-0.522 2.437,-1.742 4.352,-6.268 3.133,-8.009 -1.219,-1.741 -4.575,-1.239 -8.182,1.566"
       style="fill:#ffffff;fill-opacity:1;fill-rule:nonzero;stroke:none;stroke-width:0.1"
       id="path730" />
    <path
       d="m 525.203,758.93 c -3.134,2.438 -4.353,4.701 -2.787,6.965 1.403,2.024 5.398,1.219 7.836,-0.522 2.437,-1.742 4.352,-6.268 3.133,-8.009 -1.219,-1.741 -4.575,-1.239 -8.182,1.566 z"
       style="fill:none;stroke:#231f20;stroke-width:0.5;stroke-linecap:butt;stroke-linejoin:miter;stroke-miterlimit:4;stroke-dasharray:none;stroke-opacity:1"
       id="path732" />
    <path
       d="m 529.555,764.502 c -1.518,1.114 -2.786,2.786 -1.915,4.527 0.87,1.741 4.353,1.219 5.92,0 1.566,-1.219 2.438,-3.656 1.566,-4.875 -0.87,-1.219 -2.96,-1.568 -5.571,0.348"
       style="fill:#ffffff;fill-opacity:1;fill-rule:nonzero;stroke:none;stroke-width:0.1"
       id="path734" />
    <path
       d="m 529.555,764.502 c -1.518,1.114 -2.786,2.786 -1.915,4.527 0.87,1.741 4.353,1.219 5.92,0 1.566,-1.219 2.438,-3.656 1.566,-4.875 -0.87,-1.219 -2.96,-1.568 -5.571,0.348 z"
       style="fill:none;stroke:#231f20;stroke-width:0.5;stroke-linecap:butt;stroke-linejoin:miter;stroke-miterlimit:4;stroke-dasharray:none;stroke-opacity:1"
       id="path736" />
    <path
       d="m 540.002,730.494 v -28.67"
       style="fill:none;stroke:#231f20;stroke-width:0.75;stroke-linecap:round;stroke-linejoin:round;stroke-miterlimit:4;stroke-dasharray:none;stroke-opacity:1"
       id="path738" />
    <path
       d="m 547.894,698.689 c 2.048,-0.364 2.206,3.482 2.206,10.099 0,6.616 1.741,20.196 9.402,26.464 7.661,6.268 22.286,8.009 41.089,4.875 18.804,-3.134 52.458,-14.759 68.947,-29.598 13.928,-12.536 24.043,-27.989 27.625,-32.5"
       style="fill:none;stroke:#231f20;stroke-width:0.5;stroke-linecap:butt;stroke-linejoin:miter;stroke-miterlimit:4;stroke-dasharray:none;stroke-opacity:1"
       id="path740" />
    <path
       d="m 611.385,590.045 c 8.358,0 48.751,3.134 82.876,42.135"
       style="fill:none;stroke:#231f20;stroke-width:0.5;stroke-linecap:butt;stroke-linejoin:miter;stroke-miterlimit:4;stroke-dasharray:none;stroke-opacity:1"
       id="path742" />
    <path
       d="m 709.698,656.671 c -0.696,-5.919 -3.598,-13 -8.473,-18.92 -4.875,-5.919 -6.267,-5.919 -15.321,-5.919 -9.054,0 -24.028,7.661 -35.518,22.634 -11.491,14.973 -25.072,29.598 -37.26,37.608 -12.187,8.008 -35.866,8.356 -41.088,6.267 -5.224,-2.09 -13.848,-4.16 -14.278,-2.437 -0.347,1.392 3.134,2.437 6.965,8.357 3.83,5.919 11.143,8.705 18.455,9.402 7.313,0.696 20.545,1.045 29.946,-3.134 11.825,-5.256 33.429,-14.625 44.92,-24.375 11.492,-9.75 32.384,-28.554 43.179,-48.403"
       style="fill:none;stroke:#231f20;stroke-width:0.5;stroke-linecap:butt;stroke-linejoin:miter;stroke-miterlimit:4;stroke-dasharray:none;stroke-opacity:1"
       id="path744" />
    <path
       d="m 613.475,615.237 c -0.349,-6.039 -2.616,-23.023 -1.919,-30.684 0.696,-7.661 7.839,-22.713 2.964,-34.553"
       style="fill:none;stroke:#231f20;stroke-width:0.25;stroke-linecap:butt;stroke-linejoin:miter;stroke-miterlimit:4;stroke-dasharray:none;stroke-opacity:1"
       id="path746" />
    <path
       d="m 601.743,591.422 c -1.393,-1.045 -4.112,-6.338 -5.33,-13.215 -0.621,-3.499 -2.09,-9.054 -2.787,-11.492"
       style="fill:none;stroke:#231f20;stroke-width:0.5;stroke-linecap:butt;stroke-linejoin:miter;stroke-miterlimit:4;stroke-dasharray:none;stroke-opacity:1"
       id="path748" />
    <path
       d="m 573.962,547.568 c 0.056,-1.052 -0.154,-2.322 -0.764,-3.95 -1.393,-3.715 -6.268,-18.34 -7.894,-20.894 -1.624,-2.553 -8.819,-9.516 -11.374,-10.214 -2.554,-0.696 -6.267,-1.624 -8.357,0.466 -2.089,2.089 -1.858,6.964 -2.089,8.588 -0.232,1.624 1.407,5.844 3.713,5.572 3.947,-0.466 4.877,2.089 5.805,1.857 0.928,-0.233 1.624,-2.323 1.393,-4.179 -0.233,-1.856 3.25,-2.32 4.179,0.929 0.928,3.25 0.928,6.268 0.928,8.357 0,2.089 1.392,3.019 2.554,4.179 1.159,1.16 3.481,3.482 3.713,5.106 0.233,1.625 4.642,4.44 8.193,4.183 z"
       style="fill:none;stroke:#231f20;stroke-width:0.5;stroke-linecap:butt;stroke-linejoin:miter;stroke-miterlimit:4;stroke-dasharray:none;stroke-opacity:1"
       id="path750" />
    <path
       d="m 549.516,511.698 c 2.79,-4.759 11.403,-26.528 3.963,-40.831"
       style="fill:none;stroke:#231f20;stroke-width:0.25;stroke-linecap:butt;stroke-linejoin:miter;stroke-miterlimit:4;stroke-dasharray:none;stroke-opacity:1"
       id="path752" />
    <path
       d="m 561.855,518.746 c 4.378,-5.538 14.12,-22.599 9.945,-47.034"
       style="fill:none;stroke:#231f20;stroke-width:0.25;stroke-linecap:butt;stroke-linejoin:miter;stroke-miterlimit:4;stroke-dasharray:none;stroke-opacity:1"
       id="path754" />
    <path
       d="m 604.073,453.082 c -3.415,-4.605 0.233,-12.538 3.715,-14.393 3.482,-1.857 13,-5.34 17.411,-1.393 4.899,4.383 4.985,12.257 2.32,16.018 -3.249,4.586 -18.107,6.965 -23.446,-0.232 z"
       style="fill:none;stroke:#231f20;stroke-width:0.5;stroke-linecap:butt;stroke-linejoin:miter;stroke-miterlimit:4;stroke-dasharray:none;stroke-opacity:1"
       id="path756" />
    <path
       d="m 475.93,453.082 c 3.415,-4.605 -0.232,-12.538 -3.715,-14.393 -3.482,-1.857 -13,-5.34 -17.411,-1.393 -4.899,4.383 -4.984,12.257 -2.32,16.018 3.25,4.586 18.107,6.965 23.446,-0.232 z"
       style="fill:none;stroke:#231f20;stroke-width:0.5;stroke-linecap:butt;stroke-linejoin:miter;stroke-miterlimit:4;stroke-dasharray:none;stroke-opacity:1"
       id="path758" />
    <path
       d="m 687.181,477.458 c -1.393,2.089 -4.179,2.551 -10.446,-1.858 -6.269,-4.41 -19.5,-18.339 -25.769,-24.606 -6.267,-6.268 -10.447,-13.698 -11.607,-16.949 0,0 -3.524,-6.45 -6.499,-9.053 -4.486,-3.92 -10.216,-9.054 -10.216,-9.054 -1.392,-4.875 -8.473,-11.491 -19.035,-18.107 -9.078,-5.686 -15.09,-8.357 -19.733,-8.588 -4.642,-0.232 -7.429,-7.895 -0.232,-9.054 7.197,-1.161 21.358,0.231 34.358,6.499 13,6.268 26.697,16.249 32.036,16.483"
       style="fill:none;stroke:#231f20;stroke-width:0.5;stroke-linecap:butt;stroke-linejoin:miter;stroke-miterlimit:4;stroke-dasharray:none;stroke-opacity:1"
       id="path760" />
    <path
       d="m 622.644,415.938 c -4.41,-4.641 -12.478,-10.446 -18.571,-13.232 -5.489,-2.508 -16.534,-8.643 -19.964,-12.071 -2.902,-2.902 -6.5,-3.016 -10.679,-0.465 -4.178,2.555 -7.428,10.447 -8.588,13.001 -1.162,2.555 -6.037,12.071 -6.268,15.322 -0.234,3.251 0.928,7.195 3.714,8.822 0,0 2.978,-2.032 5.803,-2.089 2.665,-0.055 9.982,-0.696 12.767,-1.394 2.786,-0.696 16.251,-1.857 24.608,-0.464 8.357,1.392 25.116,5.076 32.523,8.34"
       style="fill:none;stroke:#231f20;stroke-width:0.5;stroke-linecap:butt;stroke-linejoin:miter;stroke-miterlimit:4;stroke-dasharray:none;stroke-opacity:1"
       id="path762" />
    <path
       d="m 564.842,403.171 c 1.624,-0.465 7.427,0.928 16.016,4.41 8.59,3.482 26.699,10.215 33.894,13.232 7.196,3.019 11.004,5.341 17.542,8.822"
       style="fill:none;stroke:#231f20;stroke-width:0.5;stroke-linecap:butt;stroke-linejoin:miter;stroke-miterlimit:4;stroke-dasharray:none;stroke-opacity:1"
       id="path764" />
    <path
       d="m 707.571,648.516 c -0.761,-1.689 1.489,-6.76 4.1,-9.023 2.694,-2.335 9.925,-9.402 12.119,-18.429 1.041,-4.28 3.551,-18.482 2.506,-25.447 -1.398,-9.323 -5.222,-18.803 -6.267,-22.982 -1.045,-4.178 -3.83,-10.795 -1.393,-11.84 2.438,-1.044 6.616,-3.481 11.839,0.349"
       style="fill:none;stroke:#231f20;stroke-width:0.5;stroke-linecap:butt;stroke-linejoin:miter;stroke-miterlimit:4;stroke-dasharray:none;stroke-opacity:1"
       id="path766" />
    <path
       d="m 676.735,792.475 c -0.117,3.25 5.571,2.321 24.141,-3.25 18.572,-5.571 68.715,-26.929 100.287,-46.429 31.572,-19.5 48.285,-32.036 60.357,-46.892 12.071,-14.858 27.856,-38.536 31.571,-68.715 3.715,-30.179 1.858,-63.143 -8.356,-87.75 -10.214,-24.607 -18.571,-39.927 -32.036,-51.534 -13.465,-11.609 -19.499,-11.609 -25.535,-12.536 -6.038,-0.931 -19.502,-0.465 -18.573,6.963 0.929,7.428 12.999,0 25.072,4.642 12.071,4.644 28.786,26.464 34.357,36.214 5.571,9.75 15.32,35.751 17.179,58.501 1.857,22.751 2.323,47.822 -20.428,83.572 -22.751,35.749 -56.189,64.583 -84.037,60.358 -7.265,-1.103 -14.127,-4.618 -19.964,-9.287 -2.614,-2.091 -11.606,-7.428 -15.785,-1.857 -4.179,5.571 -12.072,18.107 -16.251,23.679 -4.179,5.571 -24.607,27.392 -32.499,34.357 -7.894,6.964 -19.408,17.402 -19.5,19.964 z"
       style="fill:none;stroke:#231f20;stroke-width:0.5;stroke-linecap:butt;stroke-linejoin:miter;stroke-miterlimit:4;stroke-dasharray:none;stroke-opacity:1"
       id="path768" />
    <path
       d="m 725.788,741.73 c 7.125,-6.826 15.535,-12.076 21.053,-14.835 4.875,-2.437 8.009,-3.83 16.714,1.045 5.591,3.131 16.366,7.66 22.635,5.919 7.65,-2.125 27.856,-9.75 37.606,-17.759"
       style="fill:none;stroke:#231f20;stroke-width:0.5;stroke-linecap:butt;stroke-linejoin:miter;stroke-miterlimit:4;stroke-dasharray:none;stroke-opacity:1"
       id="path770" />
    <path
       d="m 731.171,766.243 c 6.965,-2.785 19.849,-10.794 23.331,-13.928 3.482,-3.135 9.053,-8.01 16.714,-8.706 9.389,-0.854 32.384,-8.357 50.143,-20.893 17.76,-12.536 41.786,-34.125 53.973,-56.758 12.188,-22.634 22.634,-64.073 13.233,-98.198 -10.903,-39.573 -26.328,-89.978 -79.151,-88.863"
       style="fill:none;stroke:#231f20;stroke-width:0.75;stroke-linecap:round;stroke-linejoin:round;stroke-miterlimit:4;stroke-dasharray:none;stroke-opacity:1"
       id="path772" />
    <path
       d="m 370.305,656.671 c 5.804,13.001 37.375,37.143 52,45.849 14.625,8.705 52.233,26.812 71.035,24.026 21.922,-3.247 18.804,-11.491 25.42,-21.588 6.616,-10.099 17.528,-6.5 21.242,-3.134 3.713,-3.366 14.624,-6.965 21.241,3.134 6.616,10.097 3.498,18.341 25.42,21.588 18.803,2.786 56.41,-15.321 71.036,-24.026 14.625,-8.706 46.195,-32.848 51.999,-45.849"
       style="fill:none;stroke:#231f20;stroke-width:0.5;stroke-linecap:butt;stroke-linejoin:miter;stroke-miterlimit:4;stroke-dasharray:none;stroke-opacity:1"
       id="path774" />
    <path
       d="m 532.109,698.689 c -2.048,-0.364 -2.205,3.482 -2.205,10.099 0,6.616 -1.741,20.196 -9.403,26.464 -7.66,6.268 -22.286,8.009 -41.088,4.875 -18.804,-3.134 -52.458,-14.759 -68.948,-29.598 -13.928,-12.536 -24.043,-27.989 -27.624,-32.5"
       style="fill:none;stroke:#231f20;stroke-width:0.5;stroke-linecap:butt;stroke-linejoin:miter;stroke-miterlimit:4;stroke-dasharray:none;stroke-opacity:1"
       id="path776" />
    <path
       d="m 468.618,590.045 c -8.358,0 -48.75,3.134 -82.875,42.135"
       style="fill:none;stroke:#231f20;stroke-width:0.5;stroke-linecap:butt;stroke-linejoin:miter;stroke-miterlimit:4;stroke-dasharray:none;stroke-opacity:1"
       id="path778" />
    <path
       d="m 423.981,602.105 c 18.39,34.692 38.02,52.709 49.512,59.674 11.491,6.964 29.25,6.964 34.472,6.964 5.224,0 24.724,-2.785 32.037,-2.785 7.312,0 26.812,2.785 32.036,2.785 5.222,0 22.982,0 34.472,-6.964 11.492,-6.965 31.122,-24.982 49.513,-59.674"
       style="fill:none;stroke:#231f20;stroke-width:0.5;stroke-linecap:butt;stroke-linejoin:miter;stroke-miterlimit:4;stroke-dasharray:none;stroke-opacity:1"
       id="path780" />
    <path
       d="m 370.305,656.671 c 0.696,-5.919 3.598,-13 8.473,-18.92 4.875,-5.919 6.268,-5.919 15.321,-5.919 9.054,0 24.027,7.661 35.519,22.634 11.491,14.973 25.071,29.598 37.258,37.608 12.188,8.008 35.867,8.356 41.089,6.267 5.224,-2.09 13.847,-4.16 14.278,-2.437 0.348,1.392 -3.134,2.437 -6.964,8.357 -3.831,5.919 -11.144,8.705 -18.456,9.402 -7.313,0.696 -20.545,1.045 -29.947,-3.134 -11.824,-5.256 -33.428,-14.625 -44.919,-24.375 -11.492,-9.75 -32.384,-28.554 -43.179,-48.403"
       style="fill:none;stroke:#231f20;stroke-width:0.5;stroke-linecap:butt;stroke-linejoin:miter;stroke-miterlimit:4;stroke-dasharray:none;stroke-opacity:1"
       id="path782" />
    <path
       d="m 505.876,546.519 c -3.83,0 -7.312,3.134 -8.357,5.919 -1.044,2.786 -3.481,7.313 -11.143,14.277 -7.661,6.964 -8.008,20.545 -8.008,23.679 0,3.134 -3.134,7.66 -6.965,12.188 -3.83,4.526 -6.964,16.017 -4.178,25.419 2.785,9.403 18.455,26.117 30.294,32.037 11.84,5.92 36.215,2.786 42.483,2.786 6.267,0 30.642,3.134 42.482,-2.786 11.839,-5.92 27.509,-22.634 30.295,-32.037 2.785,-9.402 -0.349,-20.893 -4.179,-25.419 -3.83,-4.528 -6.965,-9.054 -6.965,-12.188 0,-3.134 -0.347,-16.715 -8.009,-23.679 -7.66,-6.964 -10.097,-11.491 -11.142,-14.277 -1.045,-2.785 -4.527,-5.919 -8.358,-5.919"
       style="fill:none;stroke:#231f20;stroke-width:0.5;stroke-linecap:butt;stroke-linejoin:miter;stroke-miterlimit:4;stroke-dasharray:none;stroke-opacity:1"
       id="path784" />
    <path
       d="m 466.528,615.237 c 0.348,-6.039 2.616,-23.023 1.92,-30.684 -0.697,-7.661 -7.839,-22.713 -2.964,-34.553"
       style="fill:none;stroke:#231f20;stroke-width:0.25;stroke-linecap:butt;stroke-linejoin:miter;stroke-miterlimit:4;stroke-dasharray:none;stroke-opacity:1"
       id="path786" />
    <path
       d="m 546.618,618.599 c -1.393,1.393 -6.616,7.661 -6.616,7.661 0,0 -5.223,-6.268 -6.617,-7.661 -1.392,-1.392 -5.222,-2.785 -3.83,-6.964 1.393,-4.178 9.054,-14.973 10.447,-14.973 1.392,0 9.053,10.795 10.446,14.973 1.393,4.179 -2.438,5.572 -3.83,6.964"
       style="fill:#706d6e;fill-opacity:1;fill-rule:nonzero;stroke:none;stroke-width:0.1"
       id="path788" />
    <path
       d="m 546.618,618.599 c -1.393,1.393 -6.616,7.661 -6.616,7.661 0,0 -5.223,-6.268 -6.617,-7.661 -1.392,-1.392 -5.222,-2.785 -3.83,-6.964 1.393,-4.178 9.054,-14.973 10.447,-14.973 1.392,0 9.053,10.795 10.446,14.973 1.393,4.179 -2.438,5.572 -3.83,6.964 z"
       style="fill:none;stroke:#231f20;stroke-width:0.75;stroke-linecap:round;stroke-linejoin:round;stroke-miterlimit:4;stroke-dasharray:none;stroke-opacity:1"
       id="path790" />
    <path
       d="m 478.26,591.422 c 1.393,-1.045 4.112,-6.338 5.33,-13.215 0.621,-3.499 2.09,-9.054 2.786,-11.492"
       style="fill:none;stroke:#231f20;stroke-width:0.5;stroke-linecap:butt;stroke-linejoin:miter;stroke-miterlimit:4;stroke-dasharray:none;stroke-opacity:1"
       id="path792" />
    <path
       d="m 506.042,547.568 c -0.057,-1.052 0.153,-2.322 0.763,-3.95 1.394,-3.715 6.269,-18.34 7.893,-20.894 1.625,-2.553 8.821,-9.516 11.375,-10.214 2.553,-0.696 6.268,-1.624 8.357,0.466 2.089,2.089 1.858,6.964 2.089,8.588 0.233,1.624 -1.407,5.844 -3.714,5.572 -3.946,-0.466 -4.875,2.089 -5.803,1.857 -0.929,-0.233 -1.626,-2.323 -1.393,-4.179 0.232,-1.856 -3.251,-2.32 -4.179,0.929 -0.929,3.25 -0.929,6.268 -0.929,8.357 0,2.089 -1.393,3.019 -2.553,4.179 -1.16,1.16 -3.482,3.482 -3.714,5.106 -0.233,1.625 -4.642,4.44 -8.192,4.183 z"
       style="fill:none;stroke:#231f20;stroke-width:0.5;stroke-linecap:butt;stroke-linejoin:miter;stroke-miterlimit:4;stroke-dasharray:none;stroke-opacity:1"
       id="path794" />
    <path
       d="m 540.002,445.654 c -2.309,0 -10.679,-0.232 -20.429,-1.394 -7.399,-0.881 -14.974,0.463 -20.428,1.394 -10.912,1.857 -14.625,10.911 -14.161,16.017 0.464,5.107 14.857,10.678 20.66,10.215 5.803,-0.465 28.321,-1.392 34.358,-1.392 6.037,0 28.554,0.927 34.357,1.392 5.803,0.463 20.197,-5.108 20.661,-10.215 0.463,-5.106 -3.25,-14.16 -14.162,-16.017 -5.454,-0.931 -13.029,-2.275 -20.429,-1.394 -9.75,1.162 -18.119,1.394 -20.427,1.394 z"
       style="fill:none;stroke:#231f20;stroke-width:0.25;stroke-linecap:butt;stroke-linejoin:miter;stroke-miterlimit:4;stroke-dasharray:none;stroke-opacity:1"
       id="path796" />
    <path
       d="m 530.487,511.698 c -2.789,-4.759 -11.403,-26.528 -3.962,-40.831"
       style="fill:none;stroke:#231f20;stroke-width:0.25;stroke-linecap:butt;stroke-linejoin:miter;stroke-miterlimit:4;stroke-dasharray:none;stroke-opacity:1"
       id="path798" />
    <path
       d="m 518.148,518.746 c -4.378,-5.538 -14.12,-22.599 -9.945,-47.034"
       style="fill:none;stroke:#231f20;stroke-width:0.25;stroke-linecap:butt;stroke-linejoin:miter;stroke-miterlimit:4;stroke-dasharray:none;stroke-opacity:1"
       id="path800" />
    <path
       d="m 465.311,385.208 c -19.209,-4.731 -14.685,-15.93 -9.811,-23.591 4.876,-7.661 11.376,-13.929 26.698,-19.035 15.321,-5.109 25.071,-4.179 34.125,-1.858 9.053,2.323 17.179,5.571 19.5,11.143 1.174,2.818 2.553,5.109 4.179,5.109 1.624,0 3.004,-2.291 4.178,-5.109 2.32,-5.572 10.446,-8.82 19.5,-11.143 9.054,-2.321 18.804,-3.251 34.125,1.858 15.321,5.106 21.822,11.374 26.697,19.035 4.875,7.661 9.399,18.86 -9.81,23.591"
       style="fill:none;stroke:#231f20;stroke-width:0.5;stroke-linecap:butt;stroke-linejoin:miter;stroke-miterlimit:4;stroke-dasharray:none;stroke-opacity:1"
       id="path802" />
    <path
       d="m 392.823,477.458 c 1.392,2.089 4.177,2.551 10.446,-1.858 6.268,-4.41 19.5,-18.339 25.768,-24.606 6.267,-6.268 10.448,-13.698 11.608,-16.949 0,0 3.523,-6.45 6.499,-9.053 4.484,-3.92 10.215,-9.054 10.215,-9.054 1.392,-4.875 8.473,-11.491 19.035,-18.107 9.078,-5.686 15.09,-8.357 19.732,-8.588 4.643,-0.232 7.43,-7.895 0.233,-9.054 -7.196,-1.161 -21.358,0.231 -34.358,6.499 -13,6.268 -26.697,16.249 -32.036,16.483"
       style="fill:none;stroke:#231f20;stroke-width:0.5;stroke-linecap:butt;stroke-linejoin:miter;stroke-miterlimit:4;stroke-dasharray:none;stroke-opacity:1"
       id="path804" />
    <path
       d="m 457.359,415.938 c 4.41,-4.641 12.477,-10.446 18.571,-13.232 5.489,-2.508 16.534,-8.643 19.964,-12.071 2.902,-2.902 6.5,-3.016 10.679,-0.465 4.178,2.555 7.428,10.447 8.589,13.001 1.161,2.555 6.036,12.071 6.268,15.322 0.233,3.251 -0.929,7.195 -3.714,8.822 0,0 -2.98,-2.032 -5.804,-2.089 -2.664,-0.055 -9.982,-0.696 -12.767,-1.394 -2.786,-0.696 -16.251,-1.857 -24.607,-0.464 -8.358,1.392 -25.118,5.076 -32.524,8.34"
       style="fill:none;stroke:#231f20;stroke-width:0.5;stroke-linecap:butt;stroke-linejoin:miter;stroke-miterlimit:4;stroke-dasharray:none;stroke-opacity:1"
       id="path806" />
    <path
       d="m 515.162,403.171 c -1.624,-0.465 -7.427,0.928 -16.017,4.41 -8.59,3.482 -26.698,10.215 -33.894,13.232 -7.196,3.019 -11.004,5.341 -17.541,8.822"
       style="fill:none;stroke:#231f20;stroke-width:0.5;stroke-linecap:butt;stroke-linejoin:miter;stroke-miterlimit:4;stroke-dasharray:none;stroke-opacity:1"
       id="path808" />
    <path
       d="m 372.433,648.516 c 0.76,-1.689 -1.49,-6.76 -4.101,-9.023 -2.694,-2.335 -9.924,-9.402 -12.119,-18.429 -1.04,-4.28 -3.551,-18.482 -2.506,-25.447 1.398,-9.323 5.223,-18.803 6.267,-22.982 1.045,-4.178 3.831,-10.795 1.394,-11.84 -2.438,-1.044 -6.617,-3.481 -11.84,0.349"
       style="fill:none;stroke:#231f20;stroke-width:0.5;stroke-linecap:butt;stroke-linejoin:miter;stroke-miterlimit:4;stroke-dasharray:none;stroke-opacity:1"
       id="path810" />
    <path
       d="m 403.269,792.475 c 0.116,3.25 -5.571,2.321 -24.143,-3.25 -18.571,-5.571 -68.713,-26.929 -100.286,-46.429 -31.572,-19.5 -48.285,-32.036 -60.356,-46.892 -12.072,-14.858 -27.858,-38.536 -31.572,-68.715 -3.715,-30.179 -1.857,-63.143 8.357,-87.75 10.214,-24.607 18.57,-39.927 32.035,-51.534 13.465,-11.609 19.499,-11.609 25.536,-12.536 6.036,-0.931 19.501,-0.465 18.573,6.963 -0.93,7.428 -13,0 -25.073,4.642 -12.071,4.644 -28.786,26.464 -34.357,36.214 -5.571,9.75 -15.32,35.751 -17.178,58.501 -1.858,22.751 -2.323,47.822 20.428,83.572 22.751,35.749 56.187,64.583 84.036,60.358 7.266,-1.103 14.128,-4.618 19.964,-9.287 2.614,-2.091 11.607,-7.428 15.786,-1.857 4.178,5.571 12.071,18.107 16.25,23.679 4.179,5.571 24.607,27.392 32.5,34.357 7.893,6.964 19.407,17.402 19.5,19.964 z"
       style="fill:none;stroke:#231f20;stroke-width:0.5;stroke-linecap:butt;stroke-linejoin:miter;stroke-miterlimit:4;stroke-dasharray:none;stroke-opacity:1"
       id="path812" />
    <path
       d="m 354.215,741.73 c -7.125,-6.826 -15.535,-12.076 -21.053,-14.835 -4.875,-2.437 -8.009,-3.83 -16.714,1.045 -5.591,3.131 -16.366,7.66 -22.634,5.919 -7.651,-2.125 -27.857,-9.75 -37.607,-17.759"
       style="fill:none;stroke:#231f20;stroke-width:0.5;stroke-linecap:butt;stroke-linejoin:miter;stroke-miterlimit:4;stroke-dasharray:none;stroke-opacity:1"
       id="path814" />
    <path
       d="m 348.832,766.243 c -6.964,-2.785 -19.849,-10.794 -23.331,-13.928 -3.482,-3.135 -9.053,-8.01 -16.714,-8.706 -9.388,-0.854 -32.384,-8.357 -50.143,-20.893 -17.759,-12.536 -41.786,-34.125 -53.974,-56.758 -12.187,-22.634 -22.633,-64.073 -13.232,-98.198 10.904,-39.573 26.329,-89.978 79.151,-88.863"
       style="fill:none;stroke:#231f20;stroke-width:0.75;stroke-linecap:round;stroke-linejoin:round;stroke-miterlimit:4;stroke-dasharray:none;stroke-opacity:1"
       id="path816" />
    <path
       d="m 599.466,599.669 c 0,-0.623 -0.501,-1.127 -1.126,-1.127 -0.623,0 -1.127,0.504 -1.127,1.127 0,0.623 0.504,1.126 1.127,1.126 0.625,0 1.126,-0.503 1.126,-1.126"
       style="fill:#231f20;fill-opacity:1;fill-rule:nonzero;stroke:none;stroke-width:0.1"
       id="path818" />
    <path
       d="m 599.069,595.702 c 0,-0.623 -0.5,-1.126 -1.126,-1.126 -0.623,0 -1.126,0.503 -1.126,1.126 0,0.623 0.503,1.126 1.126,1.126 0.626,0 1.126,-0.503 1.126,-1.126"
       style="fill:#231f20;fill-opacity:1;fill-rule:nonzero;stroke:none;stroke-width:0.1"
       id="path820" />
    <path
       d="m 583.594,557.803 c 0,-0.623 -0.501,-1.126 -1.127,-1.126 -0.623,0 -1.126,0.503 -1.126,1.126 0,0.623 0.503,1.126 1.126,1.126 0.626,0 1.127,-0.503 1.127,-1.126"
       style="fill:#231f20;fill-opacity:1;fill-rule:nonzero;stroke:none;stroke-width:0.1"
       id="path822" />
    <path
       d="m 589.149,567.128 c 0,-0.623 -0.501,-1.126 -1.126,-1.126 -0.623,0 -1.127,0.503 -1.127,1.126 0,0.623 0.504,1.127 1.127,1.127 0.625,0 1.126,-0.504 1.126,-1.127"
       style="fill:#231f20;fill-opacity:1;fill-rule:nonzero;stroke:none;stroke-width:0.1"
       id="path824" />
    <path
       d="m 480.537,599.669 c 0,-0.623 0.501,-1.127 1.127,-1.127 0.623,0 1.126,0.504 1.126,1.127 0,0.623 -0.503,1.126 -1.126,1.126 -0.626,0 -1.127,-0.503 -1.127,-1.126"
       style="fill:#231f20;fill-opacity:1;fill-rule:nonzero;stroke:none;stroke-width:0.1"
       id="path826" />
    <path
       d="m 480.934,595.702 c 0,-0.623 0.501,-1.126 1.126,-1.126 0.623,0 1.127,0.503 1.127,1.126 0,0.623 -0.504,1.126 -1.127,1.126 -0.625,0 -1.126,-0.503 -1.126,-1.126"
       style="fill:#231f20;fill-opacity:1;fill-rule:nonzero;stroke:none;stroke-width:0.1"
       id="path828" />
    <path
       d="m 496.41,557.803 c 0,-0.623 0.5,-1.126 1.126,-1.126 0.623,0 1.126,0.503 1.126,1.126 0,0.623 -0.503,1.126 -1.126,1.126 -0.626,0 -1.126,-0.503 -1.126,-1.126"
       style="fill:#231f20;fill-opacity:1;fill-rule:nonzero;stroke:none;stroke-width:0.1"
       id="path830" />
    <path
       d="m 490.854,567.128 c 0,-0.623 0.501,-1.126 1.127,-1.126 0.623,0 1.126,0.503 1.126,1.126 0,0.623 -0.503,1.127 -1.126,1.127 -0.626,0 -1.127,-0.504 -1.127,-1.127"
       style="fill:#231f20;fill-opacity:1;fill-rule:nonzero;stroke:none;stroke-width:0.1"
       id="path832" />
    <path
       d="m 547.894,698.689 c -1.894,0.35 -1.973,4.527 -1.973,8.357 0,3.831 0.697,21.242 1.393,26.117 0.696,4.875 5.571,16.366 18.107,21.241 12.536,4.875 23.679,6.616 35.867,3.134 12.187,-3.483 38.179,-13.733 46.312,-17.411 8.528,-3.858 14.974,-7.312 20.545,-12.187 5.571,-4.875 18.455,-21.241 22.285,-27.161 3.831,-5.92 7.313,-16.018 3.641,-18.594"
       style="fill:none;stroke:#231f20;stroke-width:0.5;stroke-linecap:round;stroke-linejoin:round;stroke-miterlimit:4;stroke-dasharray:2.8, 1.8;stroke-dashoffset:0;stroke-opacity:1"
       id="path834" />
    <path
       d="m 547.759,617.688 c 0,0 13.484,10.662 34.725,42.35"
       style="fill:none;stroke:#231f20;stroke-width:0.5;stroke-linecap:round;stroke-linejoin:round;stroke-miterlimit:4;stroke-dasharray:2.8, 1.8;stroke-dashoffset:0;stroke-opacity:1"
       id="path836" />
    <path
       d="m 550.655,614.167 c 6.061,0.602 43.331,4.432 63.174,6.87"
       style="fill:none;stroke:#231f20;stroke-width:0.5;stroke-linecap:round;stroke-linejoin:round;stroke-miterlimit:4;stroke-dasharray:2.8, 1.8;stroke-dashoffset:0;stroke-opacity:1"
       id="path838" />
    <path
       d="m 545.5,602.981 c 12.26,-3.186 40.982,-11.542 53.517,-16.069"
       style="fill:none;stroke:#231f20;stroke-width:0.5;stroke-linecap:round;stroke-linejoin:round;stroke-miterlimit:4;stroke-dasharray:2.8, 1.8;stroke-dashoffset:0;stroke-opacity:1"
       id="path840" />
    <path
       d="m 614.82,570.279 c 8.986,-5.536 43.807,-19.929 77.932,-20.161"
       style="fill:none;stroke:#231f20;stroke-width:0.5;stroke-linecap:round;stroke-linejoin:round;stroke-miterlimit:4;stroke-dasharray:2.8, 1.8;stroke-dashoffset:0;stroke-opacity:1"
       id="path842" />
    <path
       d="m 551.942,568.308 c 1.754,2.705 9.185,6.649 12.9,6.416 3.713,-0.231 24.882,-4.244 27.994,-8.738"
       style="fill:none;stroke:#231f20;stroke-width:0.5;stroke-linecap:round;stroke-linejoin:round;stroke-miterlimit:4;stroke-dasharray:2.8, 1.8;stroke-dashoffset:0;stroke-opacity:1"
       id="path844" />
    <path
       d="m 550.298,565.521 c 2.936,0.615 6.651,-1.242 9.669,-3.563 3.017,-2.323 11.607,-9.518 12.767,-11.144 0.651,-0.914 1.157,-1.898 1.228,-3.246"
       style="fill:none;stroke:#231f20;stroke-width:0.5;stroke-linecap:round;stroke-linejoin:round;stroke-miterlimit:4;stroke-dasharray:2.8, 1.8;stroke-dashoffset:0;stroke-opacity:1"
       id="path846" />
    <path
       d="m 543.671,540.882 c 0.509,2.503 7.243,11.326 10.028,11.326 2.786,0 3.946,-3.251 6.268,-3.948 2.321,-0.697 4.873,-3.017 5.802,-4.875"
       style="fill:none;stroke:#231f20;stroke-width:0.5;stroke-linecap:round;stroke-linejoin:round;stroke-miterlimit:4;stroke-dasharray:2.8, 1.8;stroke-dashoffset:0;stroke-opacity:1"
       id="path848" />
    <path
       d="m 553.189,565.444 c 3.296,3.245 24.028,2.825 33.277,-6.251"
       style="fill:none;stroke:#231f20;stroke-width:0.5;stroke-linecap:round;stroke-linejoin:round;stroke-miterlimit:4;stroke-dasharray:2.8, 1.8;stroke-dashoffset:0;stroke-opacity:1"
       id="path850" />
    <path
       d="m 607.091,516.92 c 8.116,0.602 23.214,-2.554 35.053,-7.195 11.84,-4.643 19.966,-7.427 19.732,-10.678 -0.232,-3.251 -6.266,-3.715 -24.838,-4.643 -18.573,-0.928 -39.465,-2.32 -43.412,-2.32 -3.945,0 -5.803,2.32 -7.196,6.033 -1.393,3.717 -0.231,9.518 3.715,12.769 3.945,3.249 10.679,5.572 16.946,6.034 z"
       style="fill:none;stroke:#231f20;stroke-width:0.5;stroke-linecap:round;stroke-linejoin:round;stroke-miterlimit:4;stroke-dasharray:2.8, 1.8;stroke-dashoffset:0;stroke-opacity:1"
       id="path852" />
    <path
       d="m 566.93,467.708 c 5.046,0.787 10.446,-4.178 10.446,-8.591 0,-4.409 -5.338,-9.865 -12.072,-9.75 -5.802,0.1 -9.981,1.858 -9.981,6.037 0,4.178 4.177,11.142 11.607,12.304 z"
       style="fill:none;stroke:#231f20;stroke-width:0.5;stroke-linecap:round;stroke-linejoin:round;stroke-miterlimit:4;stroke-dasharray:2.8, 1.8;stroke-dashoffset:0;stroke-opacity:1"
       id="path854" />
    <path
       d="m 632.86,451.225 c 1.856,-3.482 10.213,-0.231 15.088,3.251 4.876,3.482 18.34,16.249 21.822,22.748 3.482,6.502 3.019,9.982 1.393,11.608 -1.625,1.625 -8.357,2.554 -18.339,-3.017 -9.984,-5.571 -19.966,-13.463 -20.43,-21.589 -0.464,-8.126 -0.415,-11.352 0.466,-13.001 z"
       style="fill:none;stroke:#231f20;stroke-width:0.5;stroke-linecap:round;stroke-linejoin:round;stroke-miterlimit:4;stroke-dasharray:2.8, 1.8;stroke-dashoffset:0;stroke-opacity:1"
       id="path856" />
    <path
       d="m 718.636,560.795 c -6.616,3.134 -16.598,3.019 -20.081,0 -3.482,-3.016 -5.106,-7.659 -5.803,-12.07 -0.696,-4.411 -0.234,-10.214 0.928,-11.143 1.161,-0.929 3.02,-3.714 3.251,-5.34 0.232,-1.624 2.321,-2.089 5.571,-0.464 3.25,1.626 8.098,3.16 14.727,2.509"
       style="fill:none;stroke:#231f20;stroke-width:0.5;stroke-linecap:round;stroke-linejoin:round;stroke-miterlimit:4;stroke-dasharray:2.8, 1.8;stroke-dashoffset:0;stroke-opacity:1"
       id="path858" />
    <path
       d="m 693.68,537.582 c -2.786,0.697 -5.571,-3.018 -8.125,-7.197 -2.553,-4.178 -8.358,-17.643 -9.982,-22.053 -1.624,-4.41 0.929,-9.288 5.107,-10.447 4.179,-1.161 10.91,3.018 13.233,5.107"
       style="fill:none;stroke:#231f20;stroke-width:0.5;stroke-linecap:round;stroke-linejoin:round;stroke-miterlimit:4;stroke-dasharray:2.8, 1.8;stroke-dashoffset:0;stroke-opacity:1"
       id="path860" />
    <path
       d="m 708.717,533.91 c -2.315,-0.585 -6.447,-6.311 -8.537,-10.489 -2.089,-4.178 -4.875,-10.679 -5.804,-15.32 -0.491,-2.451 -3.019,-8.123 6.732,-4.758"
       style="fill:none;stroke:#231f20;stroke-width:0.5;stroke-linecap:round;stroke-linejoin:round;stroke-miterlimit:4;stroke-dasharray:2.8, 1.8;stroke-dashoffset:0;stroke-opacity:1"
       id="path862" />
    <path
       d="m 753.109,534.1 c 4.191,0.332 9.982,-6.034 9.75,-16.249 -0.233,-10.216 -1.625,-20.895 -6.964,-29.019 -5.339,-8.126 -12.769,5.572 -13.929,17.179 -1.16,11.606 2.323,27.393 11.143,28.089 z"
       style="fill:none;stroke:#231f20;stroke-width:0.5;stroke-linecap:round;stroke-linejoin:round;stroke-miterlimit:4;stroke-dasharray:2.8, 1.8;stroke-dashoffset:0;stroke-opacity:1"
       id="path864" />
    <path
       d="m 751.716,465.154 c 1.679,1.082 4.18,3.016 6.5,1.392 2.322,-1.624 14.857,-16.948 16.483,-19.5 1.625,-2.554 3.307,-8.126 0.232,-9.053 -2.897,-0.876 -7.545,3.016 -11.608,6.267 -3.734,2.985 -10.215,10.448 -12.535,13.698 -2.322,3.248 -1.098,5.887 0.928,7.196 z"
       style="fill:none;stroke:#231f20;stroke-width:0.5;stroke-linecap:round;stroke-linejoin:round;stroke-miterlimit:4;stroke-dasharray:2.8, 1.8;stroke-dashoffset:0;stroke-opacity:1"
       id="path866" />
    <path
       d="m 728.454,457.042 c 6.872,3.042 43.836,16.634 51.263,19.884"
       style="fill:none;stroke:#231f20;stroke-width:0.5;stroke-linecap:round;stroke-linejoin:round;stroke-miterlimit:4;stroke-dasharray:2.8, 1.8;stroke-dashoffset:0;stroke-opacity:1"
       id="path868" />
    <path
       d="m 562.288,427.315 c 1.857,1.159 6.499,1.391 10.214,0.928 3.714,-0.465 17.177,-0.931 32.732,0.696 15.554,1.624 21.823,3.482 24.143,3.947 2.321,0.463 7.767,0.868 9.571,0.433"
       style="fill:none;stroke:#231f20;stroke-width:0.5;stroke-linecap:round;stroke-linejoin:round;stroke-miterlimit:4;stroke-dasharray:2.8, 1.8;stroke-dashoffset:0;stroke-opacity:1"
       id="path870" />
    <path
       d="m 548.127,429.17 c -0.93,-3.016 -0.696,-9.518 0.928,-14.16 1.624,-4.643 4.179,-12.073 5.34,-14.625"
       style="fill:none;stroke:#231f20;stroke-width:0.5;stroke-linecap:round;stroke-linejoin:round;stroke-miterlimit:4;stroke-dasharray:2.8, 1.8;stroke-dashoffset:0;stroke-opacity:1"
       id="path872" />
    <path
       d="m 554.395,383.903 c -1.393,3.481 -0.233,14.855 0,16.482 0,0 3.249,-3.713 4.271,-13.92"
       style="fill:none;stroke:#231f20;stroke-width:0.5;stroke-linecap:round;stroke-linejoin:round;stroke-miterlimit:4;stroke-dasharray:2.8, 1.8;stroke-dashoffset:0;stroke-opacity:1"
       id="path874" />
    <path
       d="m 542.788,445.599 c -0.697,-2.09 -1.083,-14.108 1.663,-15.732"
       style="fill:none;stroke:#231f20;stroke-width:0.5;stroke-linecap:round;stroke-linejoin:round;stroke-miterlimit:4;stroke-dasharray:2.8, 1.8;stroke-dashoffset:0;stroke-opacity:1"
       id="path876" />
    <path
       d="m 542.282,439.851 c 0.081,2.317 1.894,5.699 4.101,5.626 3.016,-0.101 4.531,-2.609 4.909,-7.003 0.28,-3.269 0.318,-9.418 -3.861,-9.276"
       style="fill:none;stroke:#231f20;stroke-width:0.5;stroke-linecap:round;stroke-linejoin:round;stroke-miterlimit:4;stroke-dasharray:2.8, 1.8;stroke-dashoffset:0;stroke-opacity:1"
       id="path878" />
    <path
       d="m 696.103,632.997 c -1.145,-2.558 2.336,-13.005 4.773,-18.924 2.438,-5.92 5.677,-33.862 -1.368,-52.624"
       style="fill:none;stroke:#231f20;stroke-width:0.5;stroke-linecap:round;stroke-linejoin:round;stroke-miterlimit:4;stroke-dasharray:2.8, 1.8;stroke-dashoffset:0;stroke-opacity:1"
       id="path880" />
    <path
       d="m 703.707,585.505 c -3.178,0.014 -11.902,-2.319 -13.044,-6.37 -1.314,-4.661 1.846,-7.761 4.41,-9.053 2.943,-1.484 6.148,-3.159 4.435,-8.633"
       style="fill:none;stroke:#231f20;stroke-width:0.5;stroke-linecap:round;stroke-linejoin:round;stroke-miterlimit:4;stroke-dasharray:2.8, 1.8;stroke-dashoffset:0;stroke-opacity:1"
       id="path882" />
    <path
       d="m 775.96,405.257 c 0,0 29.387,58.694 37.219,71.077"
       style="fill:none;stroke:#231f20;stroke-width:0.5;stroke-linecap:round;stroke-linejoin:round;stroke-miterlimit:4;stroke-dasharray:2.8, 1.8;stroke-dashoffset:0;stroke-opacity:1"
       id="path884" />
    <path
       d="m 807.431,533.131 c -2.09,-1.392 -5.223,-8.549 -6.965,-14.818 -1.741,-6.268 -1.392,-14.973 6.965,-21.24 8.357,-6.269 19.241,-11.097 24.768,-10.597"
       style="fill:none;stroke:#231f20;stroke-width:0.5;stroke-linecap:round;stroke-linejoin:round;stroke-miterlimit:4;stroke-dasharray:2.8, 1.8;stroke-dashoffset:0;stroke-opacity:1"
       id="path886" />
    <path
       d="m 891.492,562.243 c 0,0 56.677,-26.511 62.218,-29.648"
       style="fill:none;stroke:#231f20;stroke-width:0.5;stroke-linecap:round;stroke-linejoin:round;stroke-miterlimit:4;stroke-dasharray:2.8, 1.8;stroke-dashoffset:0;stroke-opacity:1"
       id="path888" />
    <path
       d="m 894.409,584.851 c 0,0 57.297,-16.647 69.601,-20.524"
       style="fill:none;stroke:#231f20;stroke-width:0.5;stroke-linecap:round;stroke-linejoin:round;stroke-miterlimit:4;stroke-dasharray:2.8, 1.8;stroke-dashoffset:0;stroke-opacity:1"
       id="path890" />
    <path
       d="m 894.756,605.366 c 0,0 67.007,1.372 77.973,1.384"
       style="fill:none;stroke:#231f20;stroke-width:0.5;stroke-linecap:round;stroke-linejoin:round;stroke-miterlimit:4;stroke-dasharray:2.8, 1.8;stroke-dashoffset:0;stroke-opacity:1"
       id="path892" />
    <path
       d="m 880.229,667.699 c 0,0 58.131,31.106 71.362,38.883"
       style="fill:none;stroke:#231f20;stroke-width:0.5;stroke-linecap:round;stroke-linejoin:round;stroke-miterlimit:4;stroke-dasharray:2.8, 1.8;stroke-dashoffset:0;stroke-opacity:1"
       id="path894" />
    <path
       d="m 799.632,743.733 c 0,0 34.612,47.582 54.112,79.966"
       style="fill:none;stroke:#231f20;stroke-width:0.5;stroke-linecap:round;stroke-linejoin:round;stroke-miterlimit:4;stroke-dasharray:2.8, 1.8;stroke-dashoffset:0;stroke-opacity:1"
       id="path896" />
    <path
       d="m 738.788,774.498 35.708,91.017"
       style="fill:none;stroke:#231f20;stroke-width:0.5;stroke-linecap:round;stroke-linejoin:round;stroke-miterlimit:4;stroke-dasharray:2.8, 1.8;stroke-dashoffset:0;stroke-opacity:1"
       id="path898" />
    <path
       d="m 683.446,793.994 11.245,92.861"
       style="fill:none;stroke:#231f20;stroke-width:0.5;stroke-linecap:round;stroke-linejoin:round;stroke-miterlimit:4;stroke-dasharray:2.8, 1.8;stroke-dashoffset:0;stroke-opacity:1"
       id="path900" />
    <path
       d="m 676.979,793.458 -30.075,97.446"
       style="fill:none;stroke:#231f20;stroke-width:0.5;stroke-linecap:round;stroke-linejoin:round;stroke-miterlimit:4;stroke-dasharray:2.8, 1.8;stroke-dashoffset:0;stroke-opacity:1"
       id="path902" />
    <path
       d="m 601.444,883.448 75.535,-89.99"
       style="fill:none;stroke:#231f20;stroke-width:0.5;stroke-linecap:round;stroke-linejoin:round;stroke-miterlimit:4;stroke-dasharray:2.8, 1.8;stroke-dashoffset:0;stroke-opacity:1"
       id="path904" />
    <path
       d="M 552.717,839.5 676.979,793.458"
       style="fill:none;stroke:#231f20;stroke-width:0.5;stroke-linecap:round;stroke-linejoin:round;stroke-miterlimit:4;stroke-dasharray:2.8, 1.8;stroke-dashoffset:0;stroke-opacity:1"
       id="path906" />
    <path
       d="m 602.589,764.293 c 6.707,7.173 39.524,27.615 74.477,26.795"
       style="fill:none;stroke:#231f20;stroke-width:0.5;stroke-linecap:round;stroke-linejoin:round;stroke-miterlimit:4;stroke-dasharray:2.8, 1.8;stroke-dashoffset:0;stroke-opacity:1"
       id="path908" />
    <path
       d="m 661.413,742.796 c 0,0 16.023,29.938 24.224,39.23"
       style="fill:none;stroke:#231f20;stroke-width:0.5;stroke-linecap:round;stroke-linejoin:round;stroke-miterlimit:4;stroke-dasharray:2.8, 1.8;stroke-dashoffset:0;stroke-opacity:1"
       id="path910" />
    <path
       d="m 784.1,652.029 c 2.786,-9.75 6.616,-26.813 6.616,-30.992 0,-4.179 0.349,-10.795 0.697,-12.188 0.348,-1.392 9.053,-14.625 9.402,-21.937 0.348,-7.313 -2.786,-28.554 -2.786,-34.822 0,-6.267 0,-12.883 6.965,-17.411 6.964,-4.526 19.5,-5.919 28.901,-0.347 9.401,5.571 22.634,18.803 26.813,34.125 4.178,15.321 0.696,55.714 -13.929,79.393 -5.309,8.596 -12.802,17.517 -21.938,22.286 -16.028,8.37 -34.973,6.069 -40.741,-18.107 z"
       style="fill:none;stroke:#231f20;stroke-width:0.5;stroke-linecap:round;stroke-linejoin:round;stroke-miterlimit:4;stroke-dasharray:2.8, 1.8;stroke-dashoffset:0;stroke-opacity:1"
       id="path912" />
    <path
       d="m 757.757,714.359 c -3.012,-1.973 -12.889,-10.62 -6.969,-24.897 5.919,-14.276 23.935,-22.552 35.066,-31.734"
       style="fill:none;stroke:#231f20;stroke-width:0.5;stroke-linecap:round;stroke-linejoin:round;stroke-miterlimit:4;stroke-dasharray:2.8, 1.8;stroke-dashoffset:0;stroke-opacity:1"
       id="path914" />
    <path
       d="m 736.443,544.051 c 9.702,-1.014 69.512,-9.95 69.512,-9.95"
       style="fill:none;stroke:#231f20;stroke-width:0.5;stroke-linecap:round;stroke-linejoin:round;stroke-miterlimit:4;stroke-dasharray:2.8, 1.8;stroke-dashoffset:0;stroke-opacity:1"
       id="path916" />
    <path
       d="m 726.704,656.313 28.084,26.32"
       style="fill:none;stroke:#231f20;stroke-width:0.5;stroke-linecap:round;stroke-linejoin:round;stroke-miterlimit:4;stroke-dasharray:2.8, 1.8;stroke-dashoffset:0;stroke-opacity:1"
       id="path918" />
    <path
       d="m 532.109,698.689 c 1.893,0.35 1.973,4.527 1.973,8.357 0,3.831 -0.697,21.242 -1.393,26.117 -0.696,4.875 -5.571,16.366 -18.107,21.241 -12.536,4.875 -23.679,6.616 -35.867,3.134 -12.187,-3.483 -38.179,-13.733 -46.312,-17.411 -8.528,-3.858 -14.973,-7.312 -20.544,-12.187 -5.572,-4.875 -18.456,-21.241 -22.286,-27.161 -3.83,-5.92 -7.313,-16.018 -3.64,-18.594"
       style="fill:none;stroke:#231f20;stroke-width:0.5;stroke-linecap:round;stroke-linejoin:round;stroke-miterlimit:4;stroke-dasharray:2.8, 1.8;stroke-dashoffset:0;stroke-opacity:1"
       id="path920" />
    <path
       d="m 532.245,617.688 c 0,0 -13.485,10.662 -34.726,42.35"
       style="fill:none;stroke:#231f20;stroke-width:0.5;stroke-linecap:round;stroke-linejoin:round;stroke-miterlimit:4;stroke-dasharray:2.8, 1.8;stroke-dashoffset:0;stroke-opacity:1"
       id="path922" />
    <path
       d="m 529.349,614.167 c -6.061,0.602 -43.332,4.432 -63.175,6.87"
       style="fill:none;stroke:#231f20;stroke-width:0.5;stroke-linecap:round;stroke-linejoin:round;stroke-miterlimit:4;stroke-dasharray:2.8, 1.8;stroke-dashoffset:0;stroke-opacity:1"
       id="path924" />
    <path
       d="m 534.502,602.981 c -12.259,-3.186 -40.98,-11.542 -53.516,-16.069"
       style="fill:none;stroke:#231f20;stroke-width:0.5;stroke-linecap:round;stroke-linejoin:round;stroke-miterlimit:4;stroke-dasharray:2.8, 1.8;stroke-dashoffset:0;stroke-opacity:1"
       id="path926" />
    <path
       d="M 465.183,570.279 C 456.198,564.743 421.376,550.35 387.25,550.118"
       style="fill:none;stroke:#231f20;stroke-width:0.5;stroke-linecap:round;stroke-linejoin:round;stroke-miterlimit:4;stroke-dasharray:2.8, 1.8;stroke-dashoffset:0;stroke-opacity:1"
       id="path928" />
    <path
       d="m 533.965,527.136 c 4.643,4.875 2.554,12.767 1.858,16.249 -0.697,3.482 -3.482,12.072 -3.714,15.09 -0.232,3.019 -1.393,6.035 -6.268,13.233 -4.875,7.196 -3.715,12.766 -3.018,16.945 0.696,4.179 11.607,6.964 17.179,6.964 5.571,0 16.483,-2.785 17.179,-6.964 0.696,-4.179 1.856,-9.749 -3.019,-16.945 -4.875,-7.198 -6.036,-10.214 -6.268,-13.233 -0.231,-3.018 -3.018,-11.608 -3.714,-15.09 -0.696,-3.482 -2.786,-11.374 1.859,-16.249"
       style="fill:none;stroke:#231f20;stroke-width:0.5;stroke-linecap:round;stroke-linejoin:round;stroke-miterlimit:4;stroke-dasharray:2.8, 1.8;stroke-dashoffset:0;stroke-opacity:1"
       id="path930" />
    <path
       d="m 528.062,568.308 c -1.754,2.705 -9.186,6.649 -12.9,6.416 -3.714,-0.231 -24.883,-4.244 -27.996,-8.738"
       style="fill:none;stroke:#231f20;stroke-width:0.5;stroke-linecap:round;stroke-linejoin:round;stroke-miterlimit:4;stroke-dasharray:2.8, 1.8;stroke-dashoffset:0;stroke-opacity:1"
       id="path932" />
    <path
       d="m 529.704,565.521 c -2.935,0.615 -6.65,-1.242 -9.667,-3.563 -3.018,-2.323 -11.608,-9.518 -12.768,-11.144 -0.651,-0.914 -1.157,-1.898 -1.227,-3.246"
       style="fill:none;stroke:#231f20;stroke-width:0.5;stroke-linecap:round;stroke-linejoin:round;stroke-miterlimit:4;stroke-dasharray:2.8, 1.8;stroke-dashoffset:0;stroke-opacity:1"
       id="path934" />
    <path
       d="m 536.332,540.882 c -0.509,2.503 -7.242,11.326 -10.027,11.326 -2.786,0 -3.947,-3.251 -6.268,-3.948 -2.321,-0.697 -4.874,-3.017 -5.803,-4.875"
       style="fill:none;stroke:#231f20;stroke-width:0.5;stroke-linecap:round;stroke-linejoin:round;stroke-miterlimit:4;stroke-dasharray:2.8, 1.8;stroke-dashoffset:0;stroke-opacity:1"
       id="path936" />
    <path
       d="m 526.814,565.444 c -3.295,3.245 -24.028,2.825 -33.277,-6.251"
       style="fill:none;stroke:#231f20;stroke-width:0.5;stroke-linecap:round;stroke-linejoin:round;stroke-miterlimit:4;stroke-dasharray:2.8, 1.8;stroke-dashoffset:0;stroke-opacity:1"
       id="path938" />
    <path
       d="m 534.43,512.976 c -0.928,-3.482 3.714,-7.198 5.572,-7.198 1.858,0 6.498,3.716 5.571,7.198"
       style="fill:none;stroke:#231f20;stroke-width:0.5;stroke-linecap:round;stroke-linejoin:round;stroke-miterlimit:4;stroke-dasharray:2.8, 1.8;stroke-dashoffset:0;stroke-opacity:1"
       id="path940" />
    <path
       d="m 472.912,516.92 c -8.116,0.602 -23.213,-2.554 -35.053,-7.195 -11.839,-4.643 -19.965,-7.427 -19.733,-10.678 0.233,-3.251 6.267,-3.715 24.839,-4.643 18.573,-0.928 39.465,-2.32 43.411,-2.32 3.947,0 5.804,2.32 7.198,6.033 1.392,3.717 0.23,9.518 -3.715,12.769 -3.946,3.249 -10.68,5.572 -16.947,6.034 z"
       style="fill:none;stroke:#231f20;stroke-width:0.5;stroke-linecap:round;stroke-linejoin:round;stroke-miterlimit:4;stroke-dasharray:2.8, 1.8;stroke-dashoffset:0;stroke-opacity:1"
       id="path942" />
    <path
       d="m 513.074,467.708 c -5.047,0.787 -10.447,-4.178 -10.447,-8.591 0,-4.409 5.338,-9.865 12.071,-9.75 5.802,0.1 9.982,1.858 9.982,6.037 0,4.178 -4.178,11.142 -11.606,12.304 z"
       style="fill:none;stroke:#231f20;stroke-width:0.5;stroke-linecap:round;stroke-linejoin:round;stroke-miterlimit:4;stroke-dasharray:2.8, 1.8;stroke-dashoffset:0;stroke-opacity:1"
       id="path944" />
    <path
       d="m 447.144,451.225 c -1.856,-3.482 -10.214,-0.231 -15.089,3.251 -4.875,3.482 -18.34,16.249 -21.822,22.748 -3.483,6.502 -3.019,9.982 -1.393,11.608 1.625,1.625 8.358,2.554 18.34,-3.017 9.983,-5.571 19.965,-13.463 20.429,-21.589 0.464,-8.126 0.415,-11.352 -0.465,-13.001 z"
       style="fill:none;stroke:#231f20;stroke-width:0.5;stroke-linecap:round;stroke-linejoin:round;stroke-miterlimit:4;stroke-dasharray:2.8, 1.8;stroke-dashoffset:0;stroke-opacity:1"
       id="path946" />
    <path
       d="m 361.368,560.795 c 6.615,3.134 16.598,3.019 20.08,0 3.482,-3.016 5.106,-7.659 5.802,-12.07 0.698,-4.411 0.235,-10.214 -0.927,-11.143 -1.161,-0.929 -3.02,-3.714 -3.251,-5.34 -0.231,-1.624 -2.322,-2.089 -5.572,-0.464 -3.249,1.626 -8.096,3.16 -14.726,2.509"
       style="fill:none;stroke:#231f20;stroke-width:0.5;stroke-linecap:round;stroke-linejoin:round;stroke-miterlimit:4;stroke-dasharray:2.8, 1.8;stroke-dashoffset:0;stroke-opacity:1"
       id="path948" />
    <path
       d="m 386.323,537.582 c 2.786,0.697 5.572,-3.018 8.125,-7.197 2.552,-4.178 8.358,-17.643 9.982,-22.053 1.624,-4.41 -0.929,-9.288 -5.107,-10.447 -4.179,-1.161 -10.91,3.018 -13.233,5.107"
       style="fill:none;stroke:#231f20;stroke-width:0.5;stroke-linecap:round;stroke-linejoin:round;stroke-miterlimit:4;stroke-dasharray:2.8, 1.8;stroke-dashoffset:0;stroke-opacity:1"
       id="path950" />
    <path
       d="m 371.286,533.91 c 2.315,-0.585 6.448,-6.311 8.537,-10.489 2.089,-4.178 4.875,-10.679 5.803,-15.32 0.492,-2.451 3.02,-8.123 -6.731,-4.758"
       style="fill:none;stroke:#231f20;stroke-width:0.5;stroke-linecap:round;stroke-linejoin:round;stroke-miterlimit:4;stroke-dasharray:2.8, 1.8;stroke-dashoffset:0;stroke-opacity:1"
       id="path952" />
    <path
       d="m 326.894,534.1 c -4.19,0.332 -9.982,-6.034 -9.75,-16.249 0.232,-10.216 1.625,-20.895 6.964,-29.019 5.339,-8.126 12.768,5.572 13.929,17.179 1.16,11.606 -2.322,27.393 -11.143,28.089 z"
       style="fill:none;stroke:#231f20;stroke-width:0.5;stroke-linecap:round;stroke-linejoin:round;stroke-miterlimit:4;stroke-dasharray:2.8, 1.8;stroke-dashoffset:0;stroke-opacity:1"
       id="path954" />
    <path
       d="m 328.287,465.154 c -1.679,1.082 -4.18,3.016 -6.5,1.392 -2.321,-1.624 -14.857,-16.948 -16.482,-19.5 -1.626,-2.554 -3.308,-8.126 -0.233,-9.053 2.897,-0.876 7.546,3.016 11.608,6.267 3.734,2.985 10.215,10.448 12.536,13.698 2.321,3.248 1.098,5.887 -0.929,7.196 z"
       style="fill:none;stroke:#231f20;stroke-width:0.5;stroke-linecap:round;stroke-linejoin:round;stroke-miterlimit:4;stroke-dasharray:2.8, 1.8;stroke-dashoffset:0;stroke-opacity:1"
       id="path956" />
    <path
       d="m 517.716,427.315 c -1.857,1.159 -6.5,1.391 -10.214,0.928 -3.714,-0.465 -17.178,-0.931 -32.732,0.696 -15.555,1.624 -21.823,3.482 -24.144,3.947 -2.321,0.463 -7.767,0.868 -9.571,0.433"
       style="fill:none;stroke:#231f20;stroke-width:0.5;stroke-linecap:round;stroke-linejoin:round;stroke-miterlimit:4;stroke-dasharray:2.8, 1.8;stroke-dashoffset:0;stroke-opacity:1"
       id="path958" />
    <path
       d="m 521.276,417.546 c 5.721,13.536 8.976,11.624 10.6,11.624 1.626,0 3.25,0.235 4.876,1.393 1.624,1.162 1.857,2.09 3.25,2.09 1.392,0 1.625,-0.928 3.25,-2.09 1.624,-1.158 3.25,-1.393 4.875,-1.393 1.625,0 4.879,1.912 10.599,-11.624"
       style="fill:none;stroke:#231f20;stroke-width:0.5;stroke-linecap:round;stroke-linejoin:round;stroke-miterlimit:4;stroke-dasharray:2.8, 1.8;stroke-dashoffset:0;stroke-opacity:1"
       id="path960" />
    <path
       d="m 532.002,419.303 c 6.267,-5.337 5.911,2.206 8,2.206 2.089,0 1.733,-7.543 8,-2.206"
       style="fill:none;stroke:#231f20;stroke-width:0.5;stroke-linecap:round;stroke-linejoin:round;stroke-miterlimit:4;stroke-dasharray:2.8, 1.8;stroke-dashoffset:0;stroke-opacity:1"
       id="path962" />
    <path
       d="m 531.876,429.17 c 0.929,-3.016 0.697,-9.518 -0.928,-14.16 -1.625,-4.643 -4.179,-12.073 -5.339,-14.625"
       style="fill:none;stroke:#231f20;stroke-width:0.5;stroke-linecap:round;stroke-linejoin:round;stroke-miterlimit:4;stroke-dasharray:2.8, 1.8;stroke-dashoffset:0;stroke-opacity:1"
       id="path964" />
    <path
       d="m 525.609,383.903 c 1.393,3.481 0.232,14.855 0,16.482 0,0 -3.25,-3.713 -4.272,-13.92"
       style="fill:none;stroke:#231f20;stroke-width:0.5;stroke-linecap:round;stroke-linejoin:round;stroke-miterlimit:4;stroke-dasharray:2.8, 1.8;stroke-dashoffset:0;stroke-opacity:1"
       id="path966" />
    <path
       d="m 532.127,380.94 c 3.734,2.84 4.625,17.356 4.625,19.911 0,2.554 1.161,5.803 3.25,5.803 2.089,0 3.25,-3.249 3.25,-5.803 0,-2.555 0.89,-17.071 4.624,-19.911"
       style="fill:none;stroke:#231f20;stroke-width:0.5;stroke-linecap:round;stroke-linejoin:round;stroke-miterlimit:4;stroke-dasharray:2.8, 1.8;stroke-dashoffset:0;stroke-opacity:1"
       id="path968" />
    <path
       d="m 537.216,445.599 c 0.697,-2.09 1.083,-14.108 -1.664,-15.732"
       style="fill:none;stroke:#231f20;stroke-width:0.5;stroke-linecap:round;stroke-linejoin:round;stroke-miterlimit:4;stroke-dasharray:2.8, 1.8;stroke-dashoffset:0;stroke-opacity:1"
       id="path970" />
    <path
       d="m 537.721,439.851 c -0.08,2.317 -1.894,5.699 -4.102,5.626 -3.015,-0.101 -4.529,-2.609 -4.907,-7.003 -0.281,-3.269 -0.318,-9.418 3.86,-9.276"
       style="fill:none;stroke:#231f20;stroke-width:0.5;stroke-linecap:round;stroke-linejoin:round;stroke-miterlimit:4;stroke-dasharray:2.8, 1.8;stroke-dashoffset:0;stroke-opacity:1"
       id="path972" />
    <path
       d="m 383.901,632.997 c 1.145,-2.558 -2.337,-13.005 -4.775,-18.924 -2.437,-5.92 -5.676,-33.862 1.369,-52.624"
       style="fill:none;stroke:#231f20;stroke-width:0.5;stroke-linecap:round;stroke-linejoin:round;stroke-miterlimit:4;stroke-dasharray:2.8, 1.8;stroke-dashoffset:0;stroke-opacity:1"
       id="path974" />
    <path
       d="m 376.297,585.505 c 3.177,0.014 11.901,-2.319 13.043,-6.37 1.314,-4.661 -1.845,-7.761 -4.41,-9.053 -2.943,-1.484 -6.148,-3.159 -4.435,-8.633"
       style="fill:none;stroke:#231f20;stroke-width:0.5;stroke-linecap:round;stroke-linejoin:round;stroke-miterlimit:4;stroke-dasharray:2.8, 1.8;stroke-dashoffset:0;stroke-opacity:1"
       id="path976" />
    <path
       d="m 304.043,405.257 c 0,0 -29.386,58.694 -37.218,71.077"
       style="fill:none;stroke:#231f20;stroke-width:0.5;stroke-linecap:round;stroke-linejoin:round;stroke-miterlimit:4;stroke-dasharray:2.8, 1.8;stroke-dashoffset:0;stroke-opacity:1"
       id="path978" />
    <path
       d="m 272.573,533.131 c 2.089,-1.392 5.222,-8.549 6.964,-14.818 1.741,-6.268 1.392,-14.973 -6.964,-21.24 -8.358,-6.269 -19.242,-11.097 -24.769,-10.597"
       style="fill:none;stroke:#231f20;stroke-width:0.5;stroke-linecap:round;stroke-linejoin:round;stroke-miterlimit:4;stroke-dasharray:2.8, 1.8;stroke-dashoffset:0;stroke-opacity:1"
       id="path980" />
    <path
       d="m 185.595,584.851 c 0,0 -57.298,-16.647 -69.602,-20.524"
       style="fill:none;stroke:#231f20;stroke-width:0.5;stroke-linecap:round;stroke-linejoin:round;stroke-miterlimit:4;stroke-dasharray:2.8, 1.8;stroke-dashoffset:0;stroke-opacity:1"
       id="path982" />
    <path
       d="m 185.247,605.366 c 0,0 -67.007,1.372 -77.973,1.384"
       style="fill:none;stroke:#231f20;stroke-width:0.5;stroke-linecap:round;stroke-linejoin:round;stroke-miterlimit:4;stroke-dasharray:2.8, 1.8;stroke-dashoffset:0;stroke-opacity:1"
       id="path984" />
    <path
       d="m 199.774,667.699 c 0,0 -58.13,31.106 -71.362,38.883"
       style="fill:none;stroke:#231f20;stroke-width:0.5;stroke-linecap:round;stroke-linejoin:round;stroke-miterlimit:4;stroke-dasharray:2.8, 1.8;stroke-dashoffset:0;stroke-opacity:1"
       id="path986" />
    <path
       d="m 280.371,743.733 c 0,0 -34.611,47.582 -54.111,79.966"
       style="fill:none;stroke:#231f20;stroke-width:0.5;stroke-linecap:round;stroke-linejoin:round;stroke-miterlimit:4;stroke-dasharray:2.8, 1.8;stroke-dashoffset:0;stroke-opacity:1"
       id="path988" />
    <path
       d="m 341.215,774.498 -35.708,91.017"
       style="fill:none;stroke:#231f20;stroke-width:0.5;stroke-linecap:round;stroke-linejoin:round;stroke-miterlimit:4;stroke-dasharray:2.8, 1.8;stroke-dashoffset:0;stroke-opacity:1"
       id="path990" />
    <path
       d="m 396.557,793.994 -11.244,92.861"
       style="fill:none;stroke:#231f20;stroke-width:0.5;stroke-linecap:round;stroke-linejoin:round;stroke-miterlimit:4;stroke-dasharray:2.8, 1.8;stroke-dashoffset:0;stroke-opacity:1"
       id="path992" />
    <path
       d="m 403.024,793.458 30.075,97.446"
       style="fill:none;stroke:#231f20;stroke-width:0.5;stroke-linecap:round;stroke-linejoin:round;stroke-miterlimit:4;stroke-dasharray:2.8, 1.8;stroke-dashoffset:0;stroke-opacity:1"
       id="path994" />
    <path
       d="m 478.559,883.448 -75.535,-89.99"
       style="fill:none;stroke:#231f20;stroke-width:0.5;stroke-linecap:round;stroke-linejoin:round;stroke-miterlimit:4;stroke-dasharray:2.8, 1.8;stroke-dashoffset:0;stroke-opacity:1"
       id="path996" />
    <path
       d="M 527.287,839.5 403.024,793.458"
       style="fill:none;stroke:#231f20;stroke-width:0.5;stroke-linecap:round;stroke-linejoin:round;stroke-miterlimit:4;stroke-dasharray:2.8, 1.8;stroke-dashoffset:0;stroke-opacity:1"
       id="path998" />
    <path
       d="m 477.414,764.293 c -6.707,7.173 -39.524,27.615 -74.477,26.795"
       style="fill:none;stroke:#231f20;stroke-width:0.5;stroke-linecap:round;stroke-linejoin:round;stroke-miterlimit:4;stroke-dasharray:2.8, 1.8;stroke-dashoffset:0;stroke-opacity:1"
       id="path1000" />
    <path
       d="m 418.59,742.796 c 0,0 -16.023,29.938 -24.224,39.23"
       style="fill:none;stroke:#231f20;stroke-width:0.5;stroke-linecap:round;stroke-linejoin:round;stroke-miterlimit:4;stroke-dasharray:2.8, 1.8;stroke-dashoffset:0;stroke-opacity:1"
       id="path1002" />
    <path
       d="m 343.561,544.051 c -9.703,-1.014 -69.513,-9.95 -69.513,-9.95"
       style="fill:none;stroke:#231f20;stroke-width:0.5;stroke-linecap:round;stroke-linejoin:round;stroke-miterlimit:4;stroke-dasharray:2.8, 1.8;stroke-dashoffset:0;stroke-opacity:1"
       id="path1004" />
    <path
       d="M 825.027,475.129 V 399.412"
       style="fill:none;stroke:#231f20;stroke-width:0.5;stroke-linecap:round;stroke-linejoin:round;stroke-miterlimit:4;stroke-dasharray:2.8, 1.8;stroke-dashoffset:0;stroke-opacity:1"
       id="path1006" />
    <path
       d="m 890.231,432.507 -37.532,55.398"
       style="fill:none;stroke:#231f20;stroke-width:0.5;stroke-linecap:round;stroke-linejoin:round;stroke-miterlimit:4;stroke-dasharray:2.8, 1.8;stroke-dashoffset:0;stroke-opacity:1"
       id="path1008" />
    <path
       d="m 941.893,486.209 -64.15,37.333"
       style="fill:none;stroke:#231f20;stroke-width:0.5;stroke-linecap:round;stroke-linejoin:round;stroke-miterlimit:4;stroke-dasharray:2.8, 1.8;stroke-dashoffset:0;stroke-opacity:1"
       id="path1010" />
    <path
       d="m 351.549,457.042 c -6.872,3.042 -43.836,16.634 -51.263,19.884"
       style="fill:none;stroke:#231f20;stroke-width:0.5;stroke-linecap:round;stroke-linejoin:round;stroke-miterlimit:4;stroke-dasharray:2.8, 1.8;stroke-dashoffset:0;stroke-opacity:1"
       id="path1012" />
    <path
       d="m 304.043,405.257 c 0,0 -29.386,58.694 -37.218,71.077"
       style="fill:none;stroke:#231f20;stroke-width:0.5;stroke-linecap:round;stroke-linejoin:round;stroke-miterlimit:4;stroke-dasharray:2.8, 1.8;stroke-dashoffset:0;stroke-opacity:1"
       id="path1014" />
    <path
       d="m 188.511,562.243 c 0,0 -56.677,-26.511 -62.219,-29.648"
       style="fill:none;stroke:#231f20;stroke-width:0.5;stroke-linecap:round;stroke-linejoin:round;stroke-miterlimit:4;stroke-dasharray:2.8, 1.8;stroke-dashoffset:0;stroke-opacity:1"
       id="path1016" />
    <path
       d="m 295.903,652.029 c -2.786,-9.75 -6.616,-26.813 -6.616,-30.992 0,-4.179 -0.348,-10.795 -0.697,-12.188 -0.348,-1.392 -9.053,-14.625 -9.401,-21.937 -0.349,-7.313 2.785,-28.554 2.785,-34.822 0,-6.267 0,-12.883 -6.964,-17.411 -6.965,-4.526 -19.5,-5.919 -28.902,-0.347 -9.401,5.571 -22.634,18.803 -26.813,34.125 -4.178,15.321 -0.696,55.714 13.929,79.393 5.309,8.596 12.803,17.517 21.938,22.286 16.029,8.37 34.973,6.069 40.741,-18.107 z"
       style="fill:none;stroke:#231f20;stroke-width:0.5;stroke-linecap:round;stroke-linejoin:round;stroke-miterlimit:4;stroke-dasharray:2.8, 1.8;stroke-dashoffset:0;stroke-opacity:1"
       id="path1018" />
    <path
       d="m 322.247,714.359 c 3.012,-1.973 12.888,-10.62 6.969,-24.897 -5.92,-14.276 -23.936,-22.552 -35.066,-31.734"
       style="fill:none;stroke:#231f20;stroke-width:0.5;stroke-linecap:round;stroke-linejoin:round;stroke-miterlimit:4;stroke-dasharray:2.8, 1.8;stroke-dashoffset:0;stroke-opacity:1"
       id="path1020" />
    <path
       d="m 353.3,656.313 -28.085,26.32"
       style="fill:none;stroke:#231f20;stroke-width:0.5;stroke-linecap:round;stroke-linejoin:round;stroke-miterlimit:4;stroke-dasharray:2.8, 1.8;stroke-dashoffset:0;stroke-opacity:1"
       id="path1022" />
    <path
       d="M 254.977,475.129 V 399.412"
       style="fill:none;stroke:#231f20;stroke-width:0.5;stroke-linecap:round;stroke-linejoin:round;stroke-miterlimit:4;stroke-dasharray:2.8, 1.8;stroke-dashoffset:0;stroke-opacity:1"
       id="path1024" />
    <path
       d="m 189.772,432.507 37.532,55.398"
       style="fill:none;stroke:#231f20;stroke-width:0.5;stroke-linecap:round;stroke-linejoin:round;stroke-miterlimit:4;stroke-dasharray:2.8, 1.8;stroke-dashoffset:0;stroke-opacity:1"
       id="path1026" />
    <path
       d="m 138.11,486.209 64.15,37.333"
       style="fill:none;stroke:#231f20;stroke-width:0.5;stroke-linecap:round;stroke-linejoin:round;stroke-miterlimit:4;stroke-dasharray:2.8, 1.8;stroke-dashoffset:0;stroke-opacity:1"
       id="path1028" />
    <path
       d="m 508.703,391.977 c 3.755,-0.05 12.727,-5.521 16.906,-8.074 4.178,-2.552 10.91,-4.642 14.393,-4.642 3.482,0 10.215,2.09 14.393,4.642 4.179,2.553 13.149,8.024 16.905,8.074"
       style="fill:none;stroke:#231f20;stroke-width:0.5;stroke-linecap:round;stroke-linejoin:round;stroke-miterlimit:4;stroke-dasharray:2.8, 1.8;stroke-dashoffset:0;stroke-opacity:1"
       id="path1030" />
  </g>
</svg>
