<?xml version="1.0" encoding="UTF-8" standalone="no"?>
<!-- Created with Inkscape (http://www.inkscape.org/) -->

<svg
   version="1.1"
   id="svg2"
   width="1440"
   height="1344"
   viewBox="0 0 1440 1344"
   xmlns="http://www.w3.org/2000/svg"
   xmlns:svg="http://www.w3.org/2000/svg">
  <defs
     id="defs6" />
  <g
     id="g10">
    <path
       d="m 306.04,522.738 c 6.755,0.683 23.869,2.274 34.452,-10.919 10.584,-13.195 11.486,-22.523 12.611,-30.485 1.126,-7.962 5.405,-25.708 -2.253,-44.591 -7.655,-18.883 -26.795,-45.271 -67.554,-48.001 -40.757,-2.73 -83.427,20.246 -98.289,29.801 -14.861,9.554 -27.21,20.997 -35.007,29.722 -9.75,10.911 -18.24,23.292 -19.963,26 -6.5,10.214 -9.287,16.251 -10.679,23.331 -1.343,6.827 -1.724,11.254 -1.045,16.714 0.698,5.615 2.517,7.973 4.881,11.727 2.366,3.753 4.054,7.848 -1.012,10.92 -5.065,3.071 -15.537,7.167 -19.928,18.426 -4.3935,11.263 -10.1337,29.69 -11.4852,60.403 -1.3528,30.713 2.957,63.167 14.5242,90.431 9.12,21.499 27.36,42.316 43.911,60.061 16.55,17.745 61.473,54.599 87.481,71.321 26.008,16.722 61.791,34.217 118.219,46.41 25.466,5.503 35.804,7.508 54.381,9.897 18.578,2.388 51.003,3.753 70.931,0 19.929,-3.754 43.572,-11.945 49.315,-35.15 5.743,-23.205 5.743,-49.822 -2.027,-68.25 -7.769,-18.426 -17.563,-24.911 -27.022,-27.299 -9.456,-2.389 -30.061,-7.508 -44.248,-11.603 -14.186,-4.095 -32.762,-10.578 -44.922,-20.475 -12.161,-9.896 -15.199,-13.65 -19.929,-20.133 -4.729,-6.485 -11.821,-15.699 -21.955,-23.888 -10.134,-8.191 -21.279,-16.722 -32.088,-16.039 -10.808,0.682 -16.55,1.023 -16.55,1.023 0,0 19.252,-6.483 12.16,-21.84 -7.094,-15.357 -15.538,-22.523 -20.605,-37.538 -5.065,-15.014 -11.484,-44.021 -7.769,-61.424 3.716,-17.405 2.815,-23.432 1.464,-28.552"
       style="fill:#ffffff;fill-opacity:1;fill-rule:nonzero;stroke:none;stroke-width:0.1"
       id="path674" />
    <path
       d="m 306.04,522.738 c 6.755,0.683 23.869,2.274 34.452,-10.919 10.584,-13.195 11.486,-22.523 12.611,-30.485 1.126,-7.962 5.405,-25.708 -2.253,-44.591 -7.655,-18.883 -26.795,-45.271 -67.554,-48.001 -40.757,-2.73 -83.427,20.246 -98.289,29.801 -14.861,9.554 -27.21,20.997 -35.007,29.722 -9.75,10.911 -18.24,23.292 -19.963,26 -6.5,10.214 -9.287,16.251 -10.679,23.331 -1.343,6.827 -1.724,11.254 -1.045,16.714 0.698,5.615 2.517,7.973 4.881,11.727 2.366,3.753 4.054,7.848 -1.012,10.92 -5.065,3.071 -15.537,7.167 -19.928,18.426 -4.3935,11.263 -10.1337,29.69 -11.4852,60.403 -1.3528,30.713 2.957,63.167 14.5242,90.431 9.12,21.499 27.36,42.316 43.911,60.061 16.55,17.745 61.473,54.599 87.481,71.321 26.008,16.722 61.791,34.217 118.219,46.41 25.466,5.503 35.804,7.508 54.381,9.897 18.578,2.388 51.003,3.753 70.931,0 19.929,-3.754 43.572,-11.945 49.315,-35.15 5.743,-23.205 5.743,-49.822 -2.027,-68.25 -7.769,-18.426 -17.563,-24.911 -27.022,-27.299 -9.456,-2.389 -30.061,-7.508 -44.248,-11.603 -14.186,-4.095 -32.762,-10.578 -44.922,-20.475 -12.161,-9.896 -15.199,-13.65 -19.929,-20.133 -4.729,-6.485 -11.821,-15.699 -21.955,-23.888 -10.134,-8.191 -21.279,-16.722 -32.088,-16.039 -10.808,0.682 -16.55,1.023 -16.55,1.023 0,0 19.252,-6.483 12.16,-21.84 -7.094,-15.357 -15.538,-22.523 -20.605,-37.538 -5.065,-15.014 -11.484,-44.021 -7.769,-61.424 3.716,-17.405 2.815,-23.432 1.464,-28.552 z"
       style="fill:none;stroke:#231f20;stroke-width:0.75;stroke-linecap:round;stroke-linejoin:round;stroke-miterlimit:4;stroke-dasharray:none;stroke-opacity:1"
       id="path676" />
    <path
       d="m 544.73,363.26 c 0,-2.636 -2.115,-4.777 -4.728,-4.777 -2.612,0 -4.729,2.141 -4.729,4.777 0,2.64 2.117,4.777 4.729,4.777 2.613,0 4.728,-2.137 4.728,-4.777"
       style="fill:#ffffff;fill-opacity:1;fill-rule:nonzero;stroke:none;stroke-width:0.1"
       id="path678" />
    <path
       d="m 544.73,363.26 c 0,-2.636 -2.115,-4.777 -4.728,-4.777 -2.612,0 -4.729,2.141 -4.729,4.777 0,2.64 2.117,4.777 4.729,4.777 2.613,0 4.728,-2.137 4.728,-4.777 z"
       style="fill:none;stroke:#231f20;stroke-width:0.5;stroke-linecap:butt;stroke-linejoin:miter;stroke-miterlimit:4;stroke-dasharray:none;stroke-opacity:1"
       id="path680" />
    <path
       d="m 740.973,543.781 c 0,-1.884 -1.511,-3.411 -3.376,-3.411 -1.866,0 -3.379,1.527 -3.379,3.411 0,1.885 1.513,3.414 3.379,3.414 1.865,0 3.376,-1.529 3.376,-3.414"
       style="fill:#ffffff;fill-opacity:1;fill-rule:nonzero;stroke:none;stroke-width:0.1"
       id="path682" />
    <path
       d="m 740.973,543.781 c 0,-1.884 -1.511,-3.411 -3.376,-3.411 -1.866,0 -3.379,1.527 -3.379,3.411 0,1.885 1.513,3.414 3.379,3.414 1.865,0 3.376,-1.529 3.376,-3.414 z"
       style="fill:none;stroke:#231f20;stroke-width:0.5;stroke-linecap:butt;stroke-linejoin:miter;stroke-miterlimit:4;stroke-dasharray:none;stroke-opacity:1"
       id="path684" />
    <path
       d="m 731.854,528.425 c 0,-1.883 -1.512,-3.413 -3.377,-3.413 -1.866,0 -3.377,1.53 -3.377,3.413 0,1.885 1.511,3.413 3.377,3.413 1.865,0 3.377,-1.528 3.377,-3.413"
       style="fill:#ffffff;fill-opacity:1;fill-rule:nonzero;stroke:none;stroke-width:0.1"
       id="path686" />
    <path
       d="m 731.854,528.425 c 0,-1.883 -1.512,-3.413 -3.377,-3.413 -1.866,0 -3.377,1.53 -3.377,3.413 0,1.885 1.511,3.413 3.377,3.413 1.865,0 3.377,-1.528 3.377,-3.413 z"
       style="fill:none;stroke:#231f20;stroke-width:0.5;stroke-linecap:butt;stroke-linejoin:miter;stroke-miterlimit:4;stroke-dasharray:none;stroke-opacity:1"
       id="path688" />
    <path
       d="m 748.743,535.932 c 0,-1.318 -1.058,-2.389 -2.365,-2.389 -1.305,0 -2.363,1.071 -2.363,2.389 0,1.319 1.058,2.389 2.363,2.389 1.307,0 2.365,-1.07 2.365,-2.389"
       style="fill:#ffffff;fill-opacity:1;fill-rule:nonzero;stroke:none;stroke-width:0.1"
       id="path690" />
    <path
       d="m 748.743,535.932 c 0,-1.318 -1.058,-2.389 -2.365,-2.389 -1.305,0 -2.363,1.071 -2.363,2.389 0,1.319 1.058,2.389 2.363,2.389 1.307,0 2.365,-1.07 2.365,-2.389 z"
       style="fill:none;stroke:#231f20;stroke-width:0.5;stroke-linecap:butt;stroke-linejoin:miter;stroke-miterlimit:4;stroke-dasharray:none;stroke-opacity:1"
       id="path692" />
    <path
       d="m 744.352,614.42 c 0,-1.695 -1.361,-3.071 -3.04,-3.071 -1.679,0 -3.04,1.376 -3.04,3.071 0,1.698 1.361,3.072 3.04,3.072 1.679,0 3.04,-1.374 3.04,-3.072"
       style="fill:#ffffff;fill-opacity:1;fill-rule:nonzero;stroke:none;stroke-width:0.1"
       id="path694" />
    <path
       d="m 744.352,614.42 c 0,-1.695 -1.361,-3.071 -3.04,-3.071 -1.679,0 -3.04,1.376 -3.04,3.071 0,1.698 1.361,3.072 3.04,3.072 1.679,0 3.04,-1.374 3.04,-3.072 z"
       style="fill:none;stroke:#231f20;stroke-width:0.5;stroke-linecap:butt;stroke-linejoin:miter;stroke-miterlimit:4;stroke-dasharray:none;stroke-opacity:1"
       id="path696" />
    <path
       d="m 771.711,580.298 c 0,-1.32 -1.058,-2.392 -2.364,-2.392 -1.306,0 -2.366,1.072 -2.366,2.392 0,1.32 1.06,2.389 2.366,2.389 1.306,0 2.364,-1.069 2.364,-2.389"
       style="fill:#ffffff;fill-opacity:1;fill-rule:nonzero;stroke:none;stroke-width:0.1"
       id="path698" />
    <path
       d="m 771.711,580.298 c 0,-1.32 -1.058,-2.392 -2.364,-2.392 -1.306,0 -2.366,1.072 -2.366,2.392 0,1.32 1.06,2.389 2.366,2.389 1.306,0 2.364,-1.069 2.364,-2.389 z"
       style="fill:none;stroke:#231f20;stroke-width:0.5;stroke-linecap:butt;stroke-linejoin:miter;stroke-miterlimit:4;stroke-dasharray:none;stroke-opacity:1"
       id="path700" />
    <path
       d="m 753.246,616.242 c 2.962,0 9.02,-8.647 10.809,-22.296 1.788,-13.648 1.351,-20.475 -3.378,-28.209 -4.729,-7.737 -6.304,-7.508 -7.206,-7.508 -0.9,0 -6.529,2.729 -7.429,14.105 -0.902,11.374 0,28.209 1.575,33.897 1.576,5.687 3.377,10.011 5.629,10.011"
       style="fill:#ffffff;fill-opacity:1;fill-rule:nonzero;stroke:none;stroke-width:0.1"
       id="path702" />
    <path
       d="m 753.246,616.242 c 2.962,0 9.02,-8.647 10.809,-22.296 1.788,-13.648 1.351,-20.475 -3.378,-28.209 -4.729,-7.737 -6.304,-7.508 -7.206,-7.508 -0.9,0 -6.529,2.729 -7.429,14.105 -0.902,11.374 0,28.209 1.575,33.897 1.576,5.687 3.377,10.011 5.629,10.011 z"
       style="fill:none;stroke:#231f20;stroke-width:0.75;stroke-linecap:round;stroke-linejoin:round;stroke-miterlimit:4;stroke-dasharray:none;stroke-opacity:1"
       id="path704" />
    <path
       d="m 681.415,439.247 c 8.014,3.205 25.894,5.004 30.849,1.135 4.954,-3.865 7.88,-11.828 6.755,-17.288 -1.126,-5.46 -4.279,-11.602 -16.888,-17.29 -12.609,-5.689 -20.942,-7.281 -24.996,-8.419 -4.053,-1.135 -5.853,-0.909 -9.457,4.096 -3.603,5.005 -9.458,15.925 -9.008,21.839 0.451,5.917 4.282,8.19 7.883,10.012 3.602,1.819 14.862,5.915 14.862,5.915"
       style="fill:#ffffff;fill-opacity:1;fill-rule:nonzero;stroke:none;stroke-width:0.1"
       id="path706" />
    <path
       d="m 681.415,439.247 c 8.014,3.205 25.894,5.004 30.849,1.135 4.954,-3.865 7.88,-11.828 6.755,-17.288 -1.126,-5.46 -4.279,-11.602 -16.888,-17.29 -12.609,-5.689 -20.942,-7.281 -24.996,-8.419 -4.053,-1.135 -5.853,-0.909 -9.457,4.096 -3.603,5.005 -9.458,15.925 -9.008,21.839 0.451,5.917 4.282,8.19 7.883,10.012 3.602,1.819 14.862,5.915 14.862,5.915 z"
       style="fill:none;stroke:#231f20;stroke-width:0.75;stroke-linecap:round;stroke-linejoin:round;stroke-miterlimit:4;stroke-dasharray:none;stroke-opacity:1"
       id="path708" />
    <path
       d="m 773.964,522.738 c -6.756,0.683 -23.869,2.274 -34.453,-10.919 -10.584,-13.195 -11.485,-22.523 -12.61,-30.485 -1.127,-7.962 -5.406,-25.708 2.252,-44.591 7.655,-18.883 26.795,-45.271 67.554,-48.001 40.757,-2.73 83.427,20.246 98.289,29.801 14.862,9.554 27.21,20.997 35.006,29.722 9.75,10.911 18.241,23.292 19.964,26 6.5,10.214 9.286,16.251 10.679,23.331 1.343,6.827 1.724,11.254 1.045,16.714 -0.698,5.615 -2.517,7.973 -4.881,11.727 -2.366,3.753 -4.053,7.848 1.013,10.92 5.065,3.071 15.536,7.167 19.927,18.426 4.393,11.263 10.133,29.69 11.485,60.403 1.352,30.713 -2.957,63.167 -14.524,90.431 -9.119,21.499 -27.36,42.316 -43.911,60.061 -16.55,17.745 -61.473,54.599 -87.48,71.321 -26.009,16.722 -61.792,34.217 -118.219,46.41 -25.467,5.503 -35.804,7.508 -54.382,9.897 -18.578,2.388 -51.003,3.753 -70.93,0 -19.929,-3.754 -43.573,-11.945 -49.316,-35.15 -5.742,-23.205 -5.742,-49.822 2.028,-68.25 7.769,-18.426 17.562,-24.911 27.021,-27.299 9.456,-2.389 30.061,-7.508 44.248,-11.603 14.186,-4.095 32.762,-10.578 44.923,-20.475 12.16,-9.896 15.198,-13.65 19.928,-20.133 4.729,-6.485 11.822,-15.699 21.956,-23.888 10.132,-8.191 21.278,-16.722 32.087,-16.039 10.808,0.682 16.55,1.023 16.55,1.023 0,0 -19.252,-6.483 -12.16,-21.84 7.094,-15.357 15.538,-22.523 20.605,-37.538 5.065,-15.014 11.484,-44.021 7.769,-61.424 -3.716,-17.405 -2.815,-23.432 -1.463,-28.552"
       style="fill:#ffffff;fill-opacity:1;fill-rule:nonzero;stroke:none;stroke-width:0.1"
       id="path710" />
    <path
       d="m 773.964,522.738 c -6.756,0.683 -23.869,2.274 -34.453,-10.919 -10.584,-13.195 -11.485,-22.523 -12.61,-30.485 -1.127,-7.962 -5.406,-25.708 2.252,-44.591 7.655,-18.883 26.795,-45.271 67.554,-48.001 40.757,-2.73 83.427,20.246 98.289,29.801 14.862,9.554 27.21,20.997 35.006,29.722 9.75,10.911 18.241,23.292 19.964,26 6.5,10.214 9.286,16.251 10.679,23.331 1.343,6.827 1.724,11.254 1.045,16.714 -0.698,5.615 -2.517,7.973 -4.881,11.727 -2.366,3.753 -4.053,7.848 1.013,10.92 5.065,3.071 15.536,7.167 19.927,18.426 4.393,11.263 10.133,29.69 11.485,60.403 1.352,30.713 -2.957,63.167 -14.524,90.431 -9.119,21.499 -27.36,42.316 -43.911,60.061 -16.55,17.745 -61.473,54.599 -87.48,71.321 -26.009,16.722 -61.792,34.217 -118.219,46.41 -25.467,5.503 -35.804,7.508 -54.382,9.897 -18.578,2.388 -51.003,3.753 -70.93,0 -19.929,-3.754 -43.573,-11.945 -49.316,-35.15 -5.742,-23.205 -5.742,-49.822 2.028,-68.25 7.769,-18.426 17.562,-24.911 27.021,-27.299 9.456,-2.389 30.061,-7.508 44.248,-11.603 14.186,-4.095 32.762,-10.578 44.923,-20.475 12.16,-9.896 15.198,-13.65 19.928,-20.133 4.729,-6.485 11.822,-15.699 21.956,-23.888 10.132,-8.191 21.278,-16.722 32.087,-16.039 10.808,0.682 16.55,1.023 16.55,1.023 0,0 -19.252,-6.483 -12.16,-21.84 7.094,-15.357 15.538,-22.523 20.605,-37.538 5.065,-15.014 11.484,-44.021 7.769,-61.424 -3.716,-17.405 -2.815,-23.432 -1.463,-28.552 z"
       style="fill:none;stroke:#231f20;stroke-width:0.75;stroke-linecap:round;stroke-linejoin:round;stroke-miterlimit:4;stroke-dasharray:none;stroke-opacity:1"
       id="path712" />
    <path
       d="m 339.03,543.781 c 0,-1.884 1.512,-3.411 3.378,-3.411 1.865,0 3.377,1.527 3.377,3.411 0,1.885 -1.512,3.414 -3.377,3.414 -1.866,0 -3.378,-1.529 -3.378,-3.414"
       style="fill:#ffffff;fill-opacity:1;fill-rule:nonzero;stroke:none;stroke-width:0.1"
       id="path714" />
    <path
       d="m 339.03,543.781 c 0,-1.884 1.512,-3.411 3.378,-3.411 1.865,0 3.377,1.527 3.377,3.411 0,1.885 -1.512,3.414 -3.377,3.414 -1.866,0 -3.378,-1.529 -3.378,-3.414 z"
       style="fill:none;stroke:#231f20;stroke-width:0.5;stroke-linecap:butt;stroke-linejoin:miter;stroke-miterlimit:4;stroke-dasharray:none;stroke-opacity:1"
       id="path716" />
    <path
       d="m 348.15,528.425 c 0,-1.883 1.512,-3.413 3.377,-3.413 1.865,0 3.378,1.53 3.378,3.413 0,1.885 -1.513,3.413 -3.378,3.413 -1.865,0 -3.377,-1.528 -3.377,-3.413"
       style="fill:#ffffff;fill-opacity:1;fill-rule:nonzero;stroke:none;stroke-width:0.1"
       id="path718" />
    <path
       d="m 348.15,528.425 c 0,-1.883 1.512,-3.413 3.377,-3.413 1.865,0 3.378,1.53 3.378,3.413 0,1.885 -1.513,3.413 -3.378,3.413 -1.865,0 -3.377,-1.528 -3.377,-3.413 z"
       style="fill:none;stroke:#231f20;stroke-width:0.5;stroke-linecap:butt;stroke-linejoin:miter;stroke-miterlimit:4;stroke-dasharray:none;stroke-opacity:1"
       id="path720" />
    <path
       d="m 331.261,535.932 c 0,-1.318 1.058,-2.389 2.365,-2.389 1.305,0 2.364,1.071 2.364,2.389 0,1.319 -1.059,2.389 -2.364,2.389 -1.307,0 -2.365,-1.07 -2.365,-2.389"
       style="fill:#ffffff;fill-opacity:1;fill-rule:nonzero;stroke:none;stroke-width:0.1"
       id="path722" />
    <path
       d="m 331.261,535.932 c 0,-1.318 1.058,-2.389 2.365,-2.389 1.305,0 2.364,1.071 2.364,2.389 0,1.319 -1.059,2.389 -2.364,2.389 -1.307,0 -2.365,-1.07 -2.365,-2.389 z"
       style="fill:none;stroke:#231f20;stroke-width:0.5;stroke-linecap:butt;stroke-linejoin:miter;stroke-miterlimit:4;stroke-dasharray:none;stroke-opacity:1"
       id="path724" />
    <path
       d="m 335.652,614.42 c 0,-1.695 1.361,-3.071 3.04,-3.071 1.679,0 3.04,1.376 3.04,3.071 0,1.698 -1.361,3.072 -3.04,3.072 -1.679,0 -3.04,-1.374 -3.04,-3.072"
       style="fill:#ffffff;fill-opacity:1;fill-rule:nonzero;stroke:none;stroke-width:0.1"
       id="path726" />
    <path
       d="m 335.652,614.42 c 0,-1.695 1.361,-3.071 3.04,-3.071 1.679,0 3.04,1.376 3.04,3.071 0,1.698 -1.361,3.072 -3.04,3.072 -1.679,0 -3.04,-1.374 -3.04,-3.072 z"
       style="fill:none;stroke:#231f20;stroke-width:0.5;stroke-linecap:butt;stroke-linejoin:miter;stroke-miterlimit:4;stroke-dasharray:none;stroke-opacity:1"
       id="path728" />
    <path
       d="m 308.292,580.298 c 0,-1.32 1.059,-2.392 2.365,-2.392 1.306,0 2.366,1.072 2.366,2.392 0,1.32 -1.06,2.389 -2.366,2.389 -1.306,0 -2.365,-1.069 -2.365,-2.389"
       style="fill:#ffffff;fill-opacity:1;fill-rule:nonzero;stroke:none;stroke-width:0.1"
       id="path730" />
    <path
       d="m 308.292,580.298 c 0,-1.32 1.059,-2.392 2.365,-2.392 1.306,0 2.366,1.072 2.366,2.392 0,1.32 -1.06,2.389 -2.366,2.389 -1.306,0 -2.365,-1.069 -2.365,-2.389 z"
       style="fill:none;stroke:#231f20;stroke-width:0.5;stroke-linecap:butt;stroke-linejoin:miter;stroke-miterlimit:4;stroke-dasharray:none;stroke-opacity:1"
       id="path732" />
    <path
       d="m 326.758,616.242 c -2.963,0 -9.019,-8.647 -10.809,-22.296 -1.788,-13.648 -1.351,-20.475 3.379,-28.209 4.728,-7.737 6.303,-7.508 7.204,-7.508 0.901,0 6.53,2.729 7.431,14.105 0.901,11.374 -0.002,28.209 -1.577,33.897 -1.575,5.687 -3.376,10.011 -5.628,10.011"
       style="fill:#ffffff;fill-opacity:1;fill-rule:nonzero;stroke:none;stroke-width:0.1"
       id="path734" />
    <path
       d="m 326.758,616.242 c -2.963,0 -9.019,-8.647 -10.809,-22.296 -1.788,-13.648 -1.351,-20.475 3.379,-28.209 4.728,-7.737 6.303,-7.508 7.204,-7.508 0.901,0 6.53,2.729 7.431,14.105 0.901,11.374 -0.002,28.209 -1.577,33.897 -1.575,5.687 -3.376,10.011 -5.628,10.011 z"
       style="fill:none;stroke:#231f20;stroke-width:0.75;stroke-linecap:round;stroke-linejoin:round;stroke-miterlimit:4;stroke-dasharray:none;stroke-opacity:1"
       id="path736" />
    <path
       d="m 540.002,368.037 c -6.981,-1.818 -16.889,-1.136 -27.248,0.913 -10.358,2.047 -14.861,5.004 -26.569,13.42 -11.709,8.42 -12.16,10.92 -11.26,13.423 0.9,2.501 10.359,2.73 10.359,2.73 -7.881,1.366 -26.573,10.465 -29.95,13.651 -3.377,3.183 -7.206,7.052 -10.133,8.646 -2.927,1.592 -10.809,7.96 -20.715,14.786 -9.908,6.825 -18.466,14.56 -23.195,18.656 -4.729,4.095 -14.186,13.42 -18.014,21.384 -2.603,5.415 -6.59,13.936 -9.457,21.841 -1.347,3.714 -1.777,7.99 -2.928,10.463 -3.603,7.737 -17.112,27.757 -22.067,37.084 -4.954,9.327 -9.457,17.972 -9.907,35.264 -0.451,17.29 5.178,30.028 12.16,39.582 6.98,9.555 13.96,20.932 13.96,20.932 -3.603,14.56 7.88,32.987 7.88,32.987 -2.702,3.64 0.676,10.238 9.234,22.749 8.558,12.513 19.591,22.979 29.048,31.396 9.458,8.417 21.842,13.422 32.876,17.745 11.034,4.322 37.604,11.375 44.811,13.195 7.206,1.821 19.652,1.209 22.968,0.57 3.434,-0.662 16.212,-4.893 21.842,-9.897 5.63,-5.005 6.305,-10.679 6.305,-13.424 0,2.745 0.675,8.419 6.304,13.424 5.631,5.004 18.571,9.279 21.843,9.897 3.318,0.626 15.762,1.251 22.968,-0.57 7.207,-1.82 33.777,-8.873 44.811,-13.195 11.034,-4.323 23.419,-9.328 32.875,-17.745 9.459,-8.417 20.491,-18.883 29.049,-31.396 8.559,-12.511 11.935,-19.109 9.232,-22.749 0,0 11.485,-18.427 7.882,-32.987 0,0 6.981,-11.377 13.961,-20.932 6.981,-9.554 12.61,-22.292 12.159,-39.582 -0.45,-17.292 -4.953,-25.937 -9.906,-35.264 -4.956,-9.327 -18.465,-29.347 -22.068,-37.084 -1.152,-2.473 -1.581,-6.749 -2.928,-10.463 -2.867,-7.905 -6.855,-16.426 -9.459,-21.841 -3.827,-7.964 -13.283,-17.289 -18.012,-21.384 -4.729,-4.096 -13.286,-11.831 -23.194,-18.656 -9.907,-6.826 -17.789,-13.194 -20.716,-14.786 -2.927,-1.594 -6.755,-5.463 -10.134,-8.646 -3.377,-3.186 -22.068,-12.285 -29.949,-13.651 0,0 9.459,-0.229 10.36,-2.73 0.899,-2.503 0.449,-5.003 -11.26,-13.423 -11.709,-8.416 -16.212,-11.373 -26.57,-13.42 -10.36,-2.049 -20.268,-2.731 -27.248,-0.913"
       style="fill:#ffffff;fill-opacity:1;fill-rule:nonzero;stroke:none;stroke-width:0.1"
       id="path738" />
    <path
       d="m 540.002,368.037 c -6.981,-1.818 -16.889,-1.136 -27.248,0.913 -10.358,2.047 -14.861,5.004 -26.569,13.42 -11.709,8.42 -12.16,10.92 -11.26,13.423 0.9,2.501 10.359,2.73 10.359,2.73 -7.881,1.366 -26.573,10.465 -29.95,13.651 -3.377,3.183 -7.206,7.052 -10.133,8.646 -2.927,1.592 -10.809,7.96 -20.715,14.786 -9.908,6.825 -18.466,14.56 -23.195,18.656 -4.729,4.095 -14.186,13.42 -18.014,21.384 -2.603,5.415 -6.59,13.936 -9.457,21.841 -1.347,3.714 -1.777,7.99 -2.928,10.463 -3.603,7.737 -17.112,27.757 -22.067,37.084 -4.954,9.327 -9.457,17.972 -9.907,35.264 -0.451,17.29 5.178,30.028 12.16,39.582 6.98,9.555 13.96,20.932 13.96,20.932 -3.603,14.56 7.88,32.987 7.88,32.987 -2.702,3.64 0.676,10.238 9.234,22.749 8.558,12.513 19.591,22.979 29.048,31.396 9.458,8.417 21.842,13.422 32.876,17.745 11.034,4.322 37.604,11.375 44.811,13.195 7.206,1.821 19.652,1.209 22.968,0.57 3.434,-0.662 16.212,-4.893 21.842,-9.897 5.63,-5.005 6.305,-10.679 6.305,-13.424 0,2.745 0.675,8.419 6.304,13.424 5.631,5.004 18.571,9.279 21.843,9.897 3.318,0.626 15.762,1.251 22.968,-0.57 7.207,-1.82 33.777,-8.873 44.811,-13.195 11.034,-4.323 23.419,-9.328 32.875,-17.745 9.459,-8.417 20.491,-18.883 29.049,-31.396 8.559,-12.511 11.935,-19.109 9.232,-22.749 0,0 11.485,-18.427 7.882,-32.987 0,0 6.981,-11.377 13.961,-20.932 6.981,-9.554 12.61,-22.292 12.159,-39.582 -0.45,-17.292 -4.953,-25.937 -9.906,-35.264 -4.956,-9.327 -18.465,-29.347 -22.068,-37.084 -1.152,-2.473 -1.581,-6.749 -2.928,-10.463 -2.867,-7.905 -6.855,-16.426 -9.459,-21.841 -3.827,-7.964 -13.283,-17.289 -18.012,-21.384 -4.729,-4.096 -13.286,-11.831 -23.194,-18.656 -9.907,-6.826 -17.789,-13.194 -20.716,-14.786 -2.927,-1.594 -6.755,-5.463 -10.134,-8.646 -3.377,-3.186 -22.068,-12.285 -29.949,-13.651 0,0 9.459,-0.229 10.36,-2.73 0.899,-2.503 0.449,-5.003 -11.26,-13.423 -11.709,-8.416 -16.212,-11.373 -26.57,-13.42 -10.36,-2.049 -20.268,-2.731 -27.248,-0.913"
       style="fill:none;stroke:#231f20;stroke-width:0.75;stroke-linecap:round;stroke-linejoin:round;stroke-miterlimit:4;stroke-dasharray:none;stroke-opacity:1"
       id="path740" />
    <path
       d="m 398.589,439.247 c -8.013,3.205 -25.894,5.004 -30.849,1.135 -4.954,-3.865 -7.881,-11.828 -6.755,-17.288 1.125,-5.46 4.278,-11.602 16.888,-17.29 12.61,-5.689 20.942,-7.281 24.995,-8.419 4.053,-1.135 5.854,-0.909 9.458,4.096 3.603,5.005 9.458,15.925 9.008,21.839 -0.453,5.917 -4.281,8.19 -7.883,10.012 -3.602,1.819 -14.862,5.915 -14.862,5.915"
       style="fill:#ffffff;fill-opacity:1;fill-rule:nonzero;stroke:none;stroke-width:0.1"
       id="path742" />
    <path
       d="m 398.589,439.247 c -8.013,3.205 -25.894,5.004 -30.849,1.135 -4.954,-3.865 -7.881,-11.828 -6.755,-17.288 1.125,-5.46 4.278,-11.602 16.888,-17.29 12.61,-5.689 20.942,-7.281 24.995,-8.419 4.053,-1.135 5.854,-0.909 9.458,4.096 3.603,5.005 9.458,15.925 9.008,21.839 -0.453,5.917 -4.281,8.19 -7.883,10.012 -3.602,1.819 -14.862,5.915 -14.862,5.915 z"
       style="fill:none;stroke:#231f20;stroke-width:0.75;stroke-linecap:round;stroke-linejoin:round;stroke-miterlimit:4;stroke-dasharray:none;stroke-opacity:1"
       id="path744" />
    <path
       d="m 609.688,614.611 c 0,-0.611 -0.484,-1.104 -1.091,-1.104 -0.603,0 -1.094,0.493 -1.094,1.104 0,0.611 0.491,1.104 1.094,1.104 0.607,0 1.091,-0.493 1.091,-1.104"
       style="fill:#231f20;fill-opacity:1;fill-rule:nonzero;stroke:none;stroke-width:0.1"
       id="path746" />
    <path
       d="m 594.028,592.835 c 0,-0.609 -0.486,-1.103 -1.092,-1.103 -0.604,0 -1.094,0.494 -1.094,1.103 0,0.613 0.49,1.105 1.094,1.105 0.606,0 1.092,-0.492 1.092,-1.105"
       style="fill:#231f20;fill-opacity:1;fill-rule:nonzero;stroke:none;stroke-width:0.1"
       id="path748" />
    <path
       d="m 589.717,588.047 c 0,-0.612 -0.485,-1.104 -1.093,-1.104 -0.604,0 -1.091,0.492 -1.091,1.104 0,0.61 0.487,1.104 1.091,1.104 0.608,0 1.093,-0.494 1.093,-1.104"
       style="fill:#231f20;fill-opacity:1;fill-rule:nonzero;stroke:none;stroke-width:0.1"
       id="path750" />
    <path
       d="m 540.002,693.364 v 42.769"
       style="fill:none;stroke:#231f20;stroke-width:0.75;stroke-linecap:round;stroke-linejoin:round;stroke-miterlimit:4;stroke-dasharray:none;stroke-opacity:1"
       id="path752" />
    <path
       d="m 660.185,415.644 c 2.315,4.036 11.773,8.358 17.177,8.358 5.404,0 13.705,-1.468 15.536,-8.872 1.352,-5.46 -1.164,-10.573 -2.721,-14.044"
       style="fill:none;stroke:#231f20;stroke-width:0.5;stroke-linecap:butt;stroke-linejoin:miter;stroke-miterlimit:4;stroke-dasharray:none;stroke-opacity:1"
       id="path754" />
    <path
       d="m 639.305,815.417 c -1.45,-3.37 0.338,-6.483 6.418,-11.602 6.08,-5.118 29.724,-27.3 35.129,-33.442 5.404,-6.143 22.292,-24.912 26.007,-28.324 3.717,-3.413 14.862,-10.92 26.685,-6.142 11.822,4.777 32.087,14.332 44.248,10.579 12.159,-3.755 44.922,-19.111 62.485,-37.88 17.566,-18.769 38.846,-41.291 47.627,-74.734 8.781,-33.444 8.781,-59.719 -1.015,-91.797 -9.794,-32.076 -18.914,-54.942 -39.517,-72.686 -20.605,-17.745 -39.506,-20.247 -41.883,-20.475 -3.548,-0.341 -4.884,-3.786 0.337,-3.413 6.409,0.461 23.305,2.39 39.857,15.015 16.551,12.626 34.113,33.784 44.247,61.767 10.134,27.983 17.564,48.117 16.552,73.711 -1.015,25.593 -4.732,56.306 -29.049,94.868 -24.319,38.56 -59.109,55.965 -81.065,66.885 -21.955,10.919 -73.971,32.419 -93.562,38.561 -19.59,6.142 -47.534,16.866 -52.599,18.572 -5.069,1.706 -9.775,3.154 -10.902,0.537 z"
       style="fill:none;stroke:#231f20;stroke-width:0.5;stroke-linecap:butt;stroke-linejoin:miter;stroke-miterlimit:4;stroke-dasharray:none;stroke-opacity:1"
       id="path756" />
    <path
       d="m 675.86,775.563 c 9.832,-7.807 32.014,-21.57 40.119,-24.642 8.105,-3.071 20.942,-5.46 31.074,-2.047 10.134,3.413 30.4,4.436 39.52,1.365"
       style="fill:none;stroke:#231f20;stroke-width:0.5;stroke-linecap:butt;stroke-linejoin:miter;stroke-miterlimit:4;stroke-dasharray:none;stroke-opacity:1"
       id="path758" />
    <path
       d="m 703.144,779.586 c 12.497,-6.142 28.373,-13.308 41.545,-16.721 13.173,-3.412 39.521,-10.578 53.03,-17.404 13.511,-6.825 43.573,-23.887 63.5,-51.187 19.93,-27.3 31.75,-47.093 36.819,-93.503 5.065,-46.41 -17.565,-94.868 -30.063,-111.589 -12.497,-16.723 -30.448,-39.906 -65.722,-42.645"
       style="fill:none;stroke:#231f20;stroke-width:0.75;stroke-linecap:round;stroke-linejoin:round;stroke-miterlimit:4;stroke-dasharray:none;stroke-opacity:1"
       id="path760" />
    <path
       d="m 734.01,611.759 c -2.156,0.273 -9.248,0.614 -10.262,-6.552 -1.012,-7.167 -6.418,-31.737 -9.12,-36.514 -2.702,-4.778 -3.378,-11.261 3.378,-11.261 6.756,0 19.254,0.614 19.254,0.614"
       style="fill:none;stroke:#231f20;stroke-width:0.5;stroke-linecap:butt;stroke-linejoin:miter;stroke-miterlimit:4;stroke-dasharray:none;stroke-opacity:1"
       id="path762" />
    <path
       d="m 714.966,640.812 c 0,0 -0.338,-1.139 -1.352,-2.162 0,0 0,-8.191 -5.403,-13.992 -4.75,-5.098 -17.225,-12.285 -34.453,-13.309 -17.227,-1.023 -27.359,1.365 -38.168,2.389 -10.809,1.023 -22.292,2.73 -24.995,6.142"
       style="fill:none;stroke:#231f20;stroke-width:0.5;stroke-linecap:butt;stroke-linejoin:miter;stroke-miterlimit:4;stroke-dasharray:none;stroke-opacity:1"
       id="path764" />
    <path
       d="m 675.078,611.443 c -5.358,-0.276 -12.129,0.589 -18.208,18.676 -6.08,18.086 -19.591,42.656 -39.857,53.918 -20.266,11.26 -27.697,12.967 -37.829,12.967 -10.134,0 -14.187,9.555 -4.054,12.626 10.133,3.072 33.439,2.047 58.771,-11.602 25.333,-13.651 48.302,-42.656 55.395,-53.918 7.092,-11.262 11.53,-22.616 9.142,-26.322"
       style="fill:none;stroke:#231f20;stroke-width:0.5;stroke-linecap:butt;stroke-linejoin:miter;stroke-miterlimit:4;stroke-dasharray:none;stroke-opacity:1"
       id="path766" />
    <path
       d="m 548.109,697.004 c 3.632,5.333 5.658,9.469 5.742,16.38 0.1,8.189 0,17.063 9.794,20.816 9.796,3.754 21.956,7.166 48.639,1.024 26.684,-6.142 45.936,-19.452 57.76,-30.371 11.82,-10.92 21.954,-22.864 25.669,-27.301 3.716,-4.436 6.869,-7.507 11.371,-3.753"
       style="fill:none;stroke:#231f20;stroke-width:0.5;stroke-linecap:butt;stroke-linejoin:miter;stroke-miterlimit:4;stroke-dasharray:none;stroke-opacity:1"
       id="path768" />
    <path
       d="m 610.964,617.79 c 2.671,-4.393 3.823,-16.505 -10.095,-22.22"
       style="fill:none;stroke:#231f20;stroke-width:0.5;stroke-linecap:butt;stroke-linejoin:miter;stroke-miterlimit:4;stroke-dasharray:none;stroke-opacity:1"
       id="path770" />
    <path
       d="m 602.243,596.176 c -3.132,-4.279 -5.833,-13.15 -5.833,-19.293 0,-6.143 -5.882,-21.202 -12.498,-32.42"
       style="fill:none;stroke:#231f20;stroke-width:0.25;stroke-linecap:butt;stroke-linejoin:miter;stroke-miterlimit:4;stroke-dasharray:none;stroke-opacity:1"
       id="path772" />
    <path
       d="m 609.643,602.004 c -2.425,-6.01 -5.129,-13.518 -4.452,-17.613 0.678,-4.093 2.702,-11.602 0,-18.088 -2.701,-6.482 -12.16,-23.545 -13.511,-26.275"
       style="fill:none;stroke:#231f20;stroke-width:0.25;stroke-linecap:butt;stroke-linejoin:miter;stroke-miterlimit:4;stroke-dasharray:none;stroke-opacity:1"
       id="path774" />
    <path
       d="m 572.878,470.868 c 6.489,1.762 16.711,1.437 18.015,-4.094 1.126,-4.777 -6.982,-9.101 -11.26,-10.465 -4.277,-1.364 -14.636,-2.729 -16.438,4.191 -0.904,3.48 3.829,8.776 9.683,10.368 z"
       style="fill:none;stroke:#231f20;stroke-width:0.5;stroke-linecap:butt;stroke-linejoin:miter;stroke-miterlimit:4;stroke-dasharray:none;stroke-opacity:1"
       id="path776" />
    <path
       d="m 708.913,507.486 c -1.377,1.602 -4.081,1.146 -8.36,-2.266 -4.276,-3.413 -7.655,-8.416 -9.005,-11.373 -1.351,-2.96 -4.729,-13.423 -13.06,-22.752 -8.333,-9.326 -25.446,-22.293 -37.156,-29.347 -11.708,-7.051 -20.939,-10.919 -26.796,-14.559 -5.855,-3.641 -8.776,-6.266 -14.862,-9.329 -5.736,-2.885 -13.735,-6.368 -16.213,-7.734 -2.476,-1.366 -6.081,-4.094 -2.476,-7.734 3.601,-3.642 7.059,-4.018 10.847,-4.324"
       style="fill:none;stroke:#231f20;stroke-width:0.5;stroke-linecap:butt;stroke-linejoin:miter;stroke-miterlimit:4;stroke-dasharray:none;stroke-opacity:1"
       id="path778" />
    <path
       d="m 585.534,411.168 c -2.073,-1.042 -6.802,-3.09 -10.178,1.006 -3.379,4.095 -10.135,12.284 -11.711,14.559 -1.575,2.275 -4.054,9.101 3.827,10.92 7.884,1.821 20.042,4.55 26.348,7.281 6.304,2.73 10.808,5.46 13.735,7.279 2.928,1.82 9.683,5.232 11.259,2.957 1.576,-2.273 0.676,-5.459 -2.025,-9.553 -2.704,-4.096 -5.406,-7.735 -5.406,-9.328 0,0 -2.702,-4.096 -5.629,-7.052 -2.926,-2.957 -12.827,-14.614 -15.47,-15.842 -2.645,-1.229 -4.75,-2.227 -4.75,-2.227 z"
       style="fill:none;stroke:#231f20;stroke-width:0.5;stroke-linecap:butt;stroke-linejoin:miter;stroke-miterlimit:4;stroke-dasharray:none;stroke-opacity:1"
       id="path780" />
    <path
       d="m 569.757,418.988 c 1.32,1.149 7.849,4.557 13.929,8.884 6.08,4.321 11.935,9.1 18.239,14.105 6.306,5.004 16.889,13.193 16.889,13.193"
       style="fill:none;stroke:#231f20;stroke-width:0.5;stroke-linecap:butt;stroke-linejoin:miter;stroke-miterlimit:4;stroke-dasharray:none;stroke-opacity:1"
       id="path782" />
    <path
       d="m 470.314,614.611 c 0,-0.611 0.486,-1.104 1.094,-1.104 0.603,0 1.092,0.493 1.092,1.104 0,0.611 -0.489,1.104 -1.092,1.104 -0.608,0 -1.094,-0.493 -1.094,-1.104"
       style="fill:#231f20;fill-opacity:1;fill-rule:nonzero;stroke:none;stroke-width:0.1"
       id="path784" />
    <path
       d="m 485.976,592.835 c 0,-0.609 0.485,-1.103 1.093,-1.103 0.603,0 1.092,0.494 1.092,1.103 0,0.613 -0.489,1.105 -1.092,1.105 -0.608,0 -1.093,-0.492 -1.093,-1.105"
       style="fill:#231f20;fill-opacity:1;fill-rule:nonzero;stroke:none;stroke-width:0.1"
       id="path786" />
    <path
       d="m 490.287,588.047 c 0,-0.612 0.485,-1.104 1.092,-1.104 0.604,0 1.092,0.492 1.092,1.104 0,0.61 -0.488,1.104 -1.092,1.104 -0.607,0 -1.092,-0.494 -1.092,-1.104"
       style="fill:#231f20;fill-opacity:1;fill-rule:nonzero;stroke:none;stroke-width:0.1"
       id="path788" />
    <path
       d="m 419.82,415.644 c -2.316,4.036 -11.774,8.358 -17.178,8.358 -5.404,0 -13.706,-1.468 -15.537,-8.872 -1.351,-5.46 1.165,-10.573 2.722,-14.044"
       style="fill:none;stroke:#231f20;stroke-width:0.5;stroke-linecap:butt;stroke-linejoin:miter;stroke-miterlimit:4;stroke-dasharray:none;stroke-opacity:1"
       id="path790" />
    <path
       d="m 440.698,815.417 c 1.45,-3.37 -0.337,-6.483 -6.418,-11.602 -6.079,-5.118 -29.723,-27.3 -35.127,-33.442 -5.405,-6.143 -22.293,-24.912 -26.009,-28.324 -3.716,-3.413 -14.861,-10.92 -26.684,-6.142 -11.822,4.777 -32.087,14.332 -44.247,10.579 -12.16,-3.755 -44.923,-19.111 -62.488,-37.88 -17.563,-18.769 -38.843,-41.291 -47.625,-74.734 -8.781,-33.444 -8.781,-59.719 1.014,-91.797 9.795,-32.076 18.915,-54.942 39.518,-72.686 20.605,-17.745 39.506,-20.247 41.883,-20.475 3.547,-0.341 4.884,-3.786 -0.337,-3.413 -6.41,0.461 -23.305,2.39 -39.857,15.015 -16.55,12.626 -34.114,33.784 -44.247,61.767 -10.133,27.983 -17.565,48.117 -16.551,73.711 1.014,25.593 4.728,56.306 29.048,94.868 24.319,38.56 59.109,55.965 81.065,66.885 21.954,10.919 73.971,32.419 93.562,38.561 19.59,6.142 47.534,16.866 52.6,18.572 5.067,1.706 9.774,3.154 10.9,0.537 z"
       style="fill:none;stroke:#231f20;stroke-width:0.5;stroke-linecap:butt;stroke-linejoin:miter;stroke-miterlimit:4;stroke-dasharray:none;stroke-opacity:1"
       id="path792" />
    <path
       d="m 404.144,775.563 c -9.832,-7.807 -32.014,-21.57 -40.119,-24.642 -8.107,-3.071 -20.942,-5.46 -31.075,-2.047 -10.133,3.413 -30.399,4.436 -39.519,1.365"
       style="fill:none;stroke:#231f20;stroke-width:0.5;stroke-linecap:butt;stroke-linejoin:miter;stroke-miterlimit:4;stroke-dasharray:none;stroke-opacity:1"
       id="path794" />
    <path
       d="m 376.86,779.586 c -12.497,-6.142 -28.372,-13.308 -41.546,-16.721 -13.173,-3.412 -39.519,-10.578 -53.029,-17.404 -13.511,-6.825 -43.573,-23.887 -63.501,-51.187 -19.928,-27.3 -31.75,-47.093 -36.817,-93.503 -5.066,-46.41 17.564,-94.868 30.062,-111.589 12.497,-16.723 30.449,-39.906 65.721,-42.645"
       style="fill:none;stroke:#231f20;stroke-width:0.75;stroke-linecap:round;stroke-linejoin:round;stroke-miterlimit:4;stroke-dasharray:none;stroke-opacity:1"
       id="path796" />
    <path
       d="m 345.994,611.759 c 2.156,0.273 9.249,0.614 10.261,-6.552 1.014,-7.167 6.418,-31.737 9.121,-36.514 2.702,-4.778 3.377,-11.261 -3.378,-11.261 -6.755,0 -19.254,0.614 -19.254,0.614"
       style="fill:none;stroke:#231f20;stroke-width:0.5;stroke-linecap:butt;stroke-linejoin:miter;stroke-miterlimit:4;stroke-dasharray:none;stroke-opacity:1"
       id="path798" />
    <path
       d="m 440.022,613.397 c 3.716,21.84 23.981,39.586 32.764,47.093 8.782,7.508 17.226,8.19 27.697,8.531 10.471,0.342 31.751,-2.047 39.519,-2.047 7.769,0 29.048,2.389 39.519,2.047 10.472,-0.341 18.915,-1.023 27.697,-8.531 8.782,-7.507 29.049,-25.253 32.764,-47.093"
       style="fill:none;stroke:#231f20;stroke-width:0.5;stroke-linecap:butt;stroke-linejoin:miter;stroke-miterlimit:4;stroke-dasharray:none;stroke-opacity:1"
       id="path800" />
    <path
       d="m 365.038,640.812 c 0,0 0.338,-1.139 1.35,-2.162 0,0 0,-8.191 5.405,-13.992 4.75,-5.098 17.226,-12.285 34.453,-13.309 17.226,-1.023 27.359,1.365 38.168,2.389 10.808,1.023 22.293,2.73 24.995,6.142"
       style="fill:none;stroke:#231f20;stroke-width:0.5;stroke-linecap:butt;stroke-linejoin:miter;stroke-miterlimit:4;stroke-dasharray:none;stroke-opacity:1"
       id="path802" />
    <path
       d="m 404.926,611.443 c 5.357,-0.276 12.128,0.589 18.208,18.676 6.08,18.086 19.59,42.656 39.857,53.918 20.265,11.26 27.697,12.967 37.83,12.967 10.133,0 14.186,9.555 4.054,12.626 -10.134,3.072 -33.44,2.047 -58.772,-11.602 -25.333,-13.651 -48.302,-42.656 -55.395,-53.918 -7.093,-11.262 -11.529,-22.616 -9.142,-26.322"
       style="fill:none;stroke:#231f20;stroke-width:0.5;stroke-linecap:butt;stroke-linejoin:miter;stroke-miterlimit:4;stroke-dasharray:none;stroke-opacity:1"
       id="path804" />
    <path
       d="m 366.388,638.65 c 0.677,5.46 10.472,21.158 27.023,37.537 16.55,16.381 39.172,33.332 65.188,41.633 25.671,8.19 46.95,10.238 54.381,1.365 6.293,-7.515 7.094,-15.697 8.782,-18.769 1.69,-3.071 6.756,-5.801 10.133,-3.412 0,0 2.702,-5.461 8.107,-3.64 5.405,-1.821 8.107,3.64 8.107,3.64 3.377,-2.389 8.443,0.341 10.133,3.412 1.688,3.072 2.488,11.254 8.782,18.769 7.431,8.873 28.71,6.825 54.381,-1.365 26.016,-8.301 48.639,-25.252 65.188,-41.633 16.551,-16.379 26.346,-32.077 27.021,-37.537"
       style="fill:none;stroke:#231f20;stroke-width:0.5;stroke-linecap:butt;stroke-linejoin:miter;stroke-miterlimit:4;stroke-dasharray:none;stroke-opacity:1"
       id="path806" />
    <path
       d="m 531.895,697.004 c -3.63,5.333 -5.657,9.469 -5.742,16.38 -0.1,8.189 0,17.063 -9.795,20.816 -9.795,3.754 -21.955,7.166 -48.639,1.024 -26.683,-6.142 -45.936,-19.452 -57.758,-30.371 -11.822,-10.92 -21.956,-22.864 -25.67,-27.301 -3.716,-4.436 -6.869,-7.507 -11.373,-3.753"
       style="fill:none;stroke:#231f20;stroke-width:0.5;stroke-linecap:butt;stroke-linejoin:miter;stroke-miterlimit:4;stroke-dasharray:none;stroke-opacity:1"
       id="path808" />
    <path
       d="m 503.101,565.23 c 1.941,-3.122 4.137,-4.387 6.164,-5.409 2.027,-1.024 5.404,-5.119 7.431,-9.215 2.026,-4.094 7.43,-13.649 9.796,-17.063 2.363,-3.411 9.457,-4.435 9.457,-4.435 4.728,-7.167 0,-10.921 -1.352,-11.261 -5.334,-1.347 -10.471,9.554 -10.471,9.554 0,0 -7.43,10.58 -11.821,18.087 -4.39,7.507 -6.756,12.967 -6.756,12.967 -1.013,5.46 -3.04,7.508 -4.39,9.897 -1.352,2.388 -5.743,9.897 -10.471,16.721 -4.73,6.824 -7.093,8.531 -12.498,10.921 -5.404,2.388 -7.769,11.601 -9.119,17.062 -1.352,5.46 3.377,17.063 7.093,23.546 3.715,6.483 9.12,15.356 23.643,21.499 14.525,6.143 34.453,3.413 40.195,3.413 5.743,0 25.669,2.73 40.194,-3.413 14.524,-6.143 19.928,-15.016 23.643,-21.499 3.716,-6.483 8.445,-18.086 7.095,-23.546 -1.352,-5.461 -3.716,-14.674 -9.12,-17.062 -5.404,-2.39 -7.769,-4.097 -12.498,-10.921 -4.73,-6.824 -9.12,-14.333 -10.471,-16.721 -1.35,-2.389 -3.377,-4.437 -4.39,-9.897 0,0 -2.366,-5.46 -6.756,-12.967 -4.392,-7.507 -11.821,-18.087 -11.821,-18.087 0,0 -5.137,-10.901 -10.471,-9.554 -1.352,0.34 -6.08,4.094 -1.352,11.261 0,0 7.094,1.024 9.457,4.435 2.366,3.414 7.769,12.969 9.795,17.063 2.027,4.096 5.406,8.191 7.433,9.215 2.026,1.022 4.221,2.287 6.163,5.409"
       style="fill:none;stroke:#231f20;stroke-width:0.5;stroke-linecap:butt;stroke-linejoin:miter;stroke-miterlimit:4;stroke-dasharray:none;stroke-opacity:1"
       id="path810" />
    <path
       d="m 469.04,617.79 c -2.671,-4.393 -3.823,-16.505 10.094,-22.22"
       style="fill:none;stroke:#231f20;stroke-width:0.5;stroke-linecap:butt;stroke-linejoin:miter;stroke-miterlimit:4;stroke-dasharray:none;stroke-opacity:1"
       id="path812" />
    <path
       d="m 477.761,596.176 c 3.131,-4.279 5.834,-13.15 5.834,-19.293 0,-6.143 5.88,-21.202 12.497,-32.42"
       style="fill:none;stroke:#231f20;stroke-width:0.25;stroke-linecap:butt;stroke-linejoin:miter;stroke-miterlimit:4;stroke-dasharray:none;stroke-opacity:1"
       id="path814" />
    <path
       d="m 470.361,602.004 c 2.425,-6.01 5.129,-13.518 4.452,-17.613 -0.677,-4.093 -2.702,-11.602 0,-18.088 2.702,-6.482 12.159,-23.545 13.511,-26.275"
       style="fill:none;stroke:#231f20;stroke-width:0.25;stroke-linecap:butt;stroke-linejoin:miter;stroke-miterlimit:4;stroke-dasharray:none;stroke-opacity:1"
       id="path816" />
    <path
       d="m 540.002,622.611 c -2.027,0 -5.405,-2.389 -5.405,-5.802 0,-3.412 1.352,-5.801 1.69,-9.214 0.337,-3.413 2.364,-8.531 3.715,-8.531 1.351,0 3.378,5.118 3.715,8.531 0.338,3.413 1.69,5.802 1.69,9.214 0,3.413 -3.379,5.802 -5.405,5.802"
       style="fill:#706d6e;fill-opacity:1;fill-rule:nonzero;stroke:none;stroke-width:0.1"
       id="path818" />
    <path
       d="m 540.002,622.611 c -2.027,0 -5.405,-2.389 -5.405,-5.802 0,-3.412 1.352,-5.801 1.69,-9.214 0.337,-3.413 2.364,-8.531 3.715,-8.531 1.351,0 3.378,5.118 3.715,8.531 0.338,3.413 1.69,5.802 1.69,9.214 0,3.413 -3.379,5.802 -5.405,5.802 z"
       style="fill:none;stroke:#231f20;stroke-width:0.75;stroke-linecap:round;stroke-linejoin:round;stroke-miterlimit:4;stroke-dasharray:none;stroke-opacity:1"
       id="path820" />
    <path
       d="m 507.126,470.868 c -6.489,1.762 -16.711,1.437 -18.015,-4.094 -1.125,-4.777 6.982,-9.101 11.26,-10.465 4.277,-1.364 14.636,-2.729 16.437,4.191 0.905,3.48 -3.828,8.776 -9.682,10.368 z"
       style="fill:none;stroke:#231f20;stroke-width:0.5;stroke-linecap:butt;stroke-linejoin:miter;stroke-miterlimit:4;stroke-dasharray:none;stroke-opacity:1"
       id="path822" />
    <path
       d="m 520.636,461.769 c 4.729,-0.455 16.439,-0.455 19.366,-0.455 2.927,0 14.638,0 19.367,0.455"
       style="fill:none;stroke:#231f20;stroke-width:0.5;stroke-linecap:butt;stroke-linejoin:miter;stroke-miterlimit:4;stroke-dasharray:none;stroke-opacity:1"
       id="path824" />
    <path
       d="m 485.284,398.523 c 6.529,-0.911 13.509,-2.73 17.563,-3.64 4.054,-0.908 10.359,-2.275 15.988,-5.006 5.629,-2.73 16.213,-5.003 21.167,-5.003 4.954,0 15.538,2.273 21.166,5.003 5.629,2.731 11.936,4.098 15.989,5.006 4.053,0.91 11.034,2.729 17.563,3.64"
       style="fill:none;stroke:#231f20;stroke-width:0.5;stroke-linecap:butt;stroke-linejoin:miter;stroke-miterlimit:4;stroke-dasharray:none;stroke-opacity:1"
       id="path826" />
    <path
       d="m 371.091,507.486 c 1.377,1.602 4.081,1.146 8.359,-2.266 4.277,-3.413 7.655,-8.416 9.006,-11.373 1.351,-2.96 4.729,-13.423 13.061,-22.752 8.332,-9.326 25.444,-22.293 37.154,-29.347 11.71,-7.051 20.941,-10.919 26.796,-14.559 5.856,-3.641 8.777,-6.266 14.862,-9.329 5.737,-2.885 13.735,-6.368 16.213,-7.734 2.478,-1.366 6.081,-4.094 2.478,-7.734 -3.604,-3.642 -7.06,-4.018 -10.848,-4.324"
       style="fill:none;stroke:#231f20;stroke-width:0.5;stroke-linecap:butt;stroke-linejoin:miter;stroke-miterlimit:4;stroke-dasharray:none;stroke-opacity:1"
       id="path828" />
    <path
       d="m 494.47,411.168 c 2.072,-1.042 6.801,-3.09 10.178,1.006 3.378,4.095 10.135,12.284 11.71,14.559 1.576,2.275 4.055,9.101 -3.827,10.92 -7.883,1.821 -20.041,4.55 -26.346,7.281 -6.306,2.73 -10.809,5.46 -13.737,7.279 -2.927,1.82 -9.682,5.232 -11.259,2.957 -1.576,-2.273 -0.675,-5.459 2.027,-9.553 2.702,-4.096 5.405,-7.735 5.405,-9.328 0,0 2.701,-4.096 5.629,-7.052 2.926,-2.957 12.827,-14.614 15.47,-15.842 2.645,-1.229 4.75,-2.227 4.75,-2.227 z"
       style="fill:none;stroke:#231f20;stroke-width:0.5;stroke-linecap:butt;stroke-linejoin:miter;stroke-miterlimit:4;stroke-dasharray:none;stroke-opacity:1"
       id="path830" />
    <path
       d="m 510.246,418.988 c -1.319,1.149 -7.849,4.557 -13.928,8.884 -6.08,4.321 -11.935,9.1 -18.24,14.105 -6.305,5.004 -16.889,13.193 -16.889,13.193"
       style="fill:none;stroke:#231f20;stroke-width:0.5;stroke-linecap:butt;stroke-linejoin:miter;stroke-miterlimit:4;stroke-dasharray:none;stroke-opacity:1"
       id="path832" />
    <path
       d="m 773.964,522.738 c 3.152,-6.257 7.542,-7.28 13.96,-8.987 6.417,-1.706 12.158,-3.07 21.281,2.39 9.119,5.46 22.627,15.014 30.735,41.974 8.106,26.958 6.08,53.234 -9.456,77.804 -4.383,6.929 -10.597,12.562 -15.539,18.429 -13.51,16.038 -28.325,24.115 -55.732,17.744"
       style="fill:none;stroke:#231f20;stroke-width:0.5;stroke-linecap:butt;stroke-linejoin:miter;stroke-miterlimit:4;stroke-dasharray:none;stroke-opacity:1"
       id="path834" />
    <path
       d="m 306.041,522.738 c -3.153,-6.257 -7.543,-7.28 -13.961,-8.987 -6.417,-1.706 -12.16,-3.07 -21.28,2.39 -9.12,5.46 -22.631,15.014 -30.737,41.974 -8.105,26.958 -6.079,53.234 9.458,77.804 4.382,6.929 10.595,12.562 15.537,18.429 13.511,16.038 28.326,24.115 55.733,17.744"
       style="fill:none;stroke:#231f20;stroke-width:0.5;stroke-linecap:butt;stroke-linejoin:miter;stroke-miterlimit:4;stroke-dasharray:none;stroke-opacity:1"
       id="path836" />
    <path
       d="m 875.744,647.864 c -4.391,6.825 -9.12,18.768 -21.28,32.76 -12.16,13.991 -32.088,26.958 -42.558,31.395 -1.745,0.175 -4.024,-0.114 -6.357,-0.995 0.042,-0.01 0.092,-0.019 0.132,-0.028 3.139,-1.367 14.331,-10.921 19.06,-13.992 4.728,-3.071 8.107,-6.142 10.808,-11.602 2.703,-5.46 8.107,-5.802 11.147,-6.144 3.04,-0.341 6.418,-6.483 7.43,-8.531 1.014,-2.047 7.432,-7.166 8.108,-11.943 0.675,-4.778 3.039,-10.92 12.159,-25.253 9.12,-14.333 11.25,-32.486 9.795,-47.434 -2.027,-20.817 -13.548,-39.81 -22.293,-54.942 2.432,-0.094 9.243,4.134 15.723,9.547 13.281,20.775 13.665,36.325 13.665,58.362 0,22.523 -11.149,41.975 -15.539,48.8"
       style="fill:#b2b1b1;fill-opacity:1;fill-rule:nonzero;stroke:none;stroke-width:0.1"
       id="path838" />
    <path
       d="m 204.26,647.864 c 4.391,6.825 9.118,18.768 21.279,32.76 12.161,13.991 32.087,26.958 42.558,31.395 1.745,0.175 4.024,-0.114 6.357,-0.995 -0.042,-0.01 -0.091,-0.019 -0.132,-0.028 -3.138,-1.367 -14.331,-10.921 -19.06,-13.992 -4.727,-3.071 -8.106,-6.142 -10.807,-11.602 -2.704,-5.46 -8.108,-5.802 -11.148,-6.144 -3.04,-0.341 -6.417,-6.483 -7.431,-8.531 -1.013,-2.047 -7.43,-7.166 -8.107,-11.943 -0.674,-4.778 -3.038,-10.92 -12.158,-25.253 -9.12,-14.333 -11.251,-32.486 -9.795,-47.434 2.026,-20.817 13.548,-39.81 22.292,-54.942 -2.432,-0.094 -9.242,4.134 -15.723,9.547 -13.281,20.775 -13.665,36.325 -13.665,58.362 0,22.523 11.149,41.975 15.54,48.8"
       style="fill:#b2b1b1;fill-opacity:1;fill-rule:nonzero;stroke:none;stroke-width:0.1"
       id="path840" />
    <path
       d="m 780.493,654.916 c 3.822,1.379 7.657,0 8.333,-2.501 0.674,-2.503 -1.126,-5.461 -4.73,-6.598 -3.603,-1.138 -6.081,-0.456 -7.206,2.273 -1.125,2.731 0.45,5.689 3.603,6.826 z"
       style="fill:none;stroke:#231f20;stroke-width:0.5;stroke-linecap:round;stroke-linejoin:round;stroke-miterlimit:4;stroke-dasharray:2.8, 1.8;stroke-dashoffset:0;stroke-opacity:1"
       id="path842" />
    <path
       d="m 795.355,636.943 c 5.811,1.445 13.736,-0.909 18.466,-7.052 4.728,-6.141 13.215,-23.124 11.483,-43.225 -1.802,-20.929 -4.954,-34.354 -14.638,-35.036 -11.027,-0.776 -14.185,1.365 -12.834,8.191 1.35,6.825 6.53,7.962 0.45,25.252 -6.079,17.29 -12.385,30.258 -10.584,40.041 1.568,8.516 5.603,11.32 7.657,11.829"
       style="fill:#b2b1b1;fill-opacity:1;fill-rule:nonzero;stroke:none;stroke-width:0.1"
       id="path844" />
    <path
       d="m 795.355,636.943 c 5.811,1.445 13.736,-0.909 18.466,-7.052 4.728,-6.141 13.215,-23.124 11.483,-43.225 -1.802,-20.929 -4.954,-34.354 -14.638,-35.036 -11.027,-0.776 -14.185,1.365 -12.834,8.191 1.35,6.825 6.53,7.962 0.45,25.252 -6.079,17.29 -12.385,30.258 -10.584,40.041 1.568,8.516 5.603,11.32 7.657,11.829 z"
       style="fill:none;stroke:#231f20;stroke-width:0.5;stroke-linecap:round;stroke-linejoin:round;stroke-miterlimit:4;stroke-dasharray:2.8, 1.8;stroke-dashoffset:0;stroke-opacity:1"
       id="path846" />
    <path
       d="m 753.471,604.182 c 2.252,0 9.685,-7.051 8.782,-18.199 -0.901,-11.149 -3.827,-16.834 -7.88,-16.609 -4.053,0.229 -5.63,10.011 -5.63,16.155 0,6.142 2.027,18.653 4.728,18.653 z"
       style="fill:none;stroke:#231f20;stroke-width:0.5;stroke-linecap:round;stroke-linejoin:round;stroke-miterlimit:4;stroke-dasharray:2.8, 1.8;stroke-dashoffset:0;stroke-opacity:1"
       id="path848" />
    <path
       d="m 752.571,493.847 c 3.598,0.482 8.781,-3.868 8.781,-12.513 0,-8.643 -4.276,-12.058 -9.231,-12.287 -4.955,-0.225 -6.079,7.509 -5.854,13.423 0.224,5.917 2.926,10.92 6.304,11.377 z"
       style="fill:none;stroke:#231f20;stroke-width:0.5;stroke-linecap:round;stroke-linejoin:round;stroke-miterlimit:4;stroke-dasharray:2.8, 1.8;stroke-dashoffset:0;stroke-opacity:1"
       id="path850" />
    <path
       d="m 760.3,493.367 c 8.656,-6.746 17.293,-12.051 20.868,-9.987 7.094,4.096 7.278,19.393 3.133,31.366"
       style="fill:none;stroke:#231f20;stroke-width:0.5;stroke-linecap:round;stroke-linejoin:round;stroke-miterlimit:4;stroke-dasharray:2.8, 1.8;stroke-dashoffset:0;stroke-opacity:1"
       id="path852" />
    <path
       d="m 828.819,391.234 -7.222,57.11"
       style="fill:none;stroke:#231f20;stroke-width:0.5;stroke-linecap:round;stroke-linejoin:round;stroke-miterlimit:4;stroke-dasharray:2.8, 1.8;stroke-dashoffset:0;stroke-opacity:1"
       id="path854" />
    <path
       d="m 820.509,452.939 -18.312,60.076"
       style="fill:none;stroke:#231f20;stroke-width:0.5;stroke-linecap:round;stroke-linejoin:round;stroke-miterlimit:4;stroke-dasharray:2.8, 1.8;stroke-dashoffset:0;stroke-opacity:1"
       id="path856" />
    <path
       d="m 892.818,417.172 -33.514,55.572"
       style="fill:none;stroke:#231f20;stroke-width:0.5;stroke-linecap:round;stroke-linejoin:round;stroke-miterlimit:4;stroke-dasharray:2.8, 1.8;stroke-dashoffset:0;stroke-opacity:1"
       id="path858" />
    <path
       d="m 724.835,465.29 77.418,-18.753"
       style="fill:none;stroke:#231f20;stroke-width:0.5;stroke-linecap:round;stroke-linejoin:round;stroke-miterlimit:4;stroke-dasharray:2.8, 1.8;stroke-dashoffset:0;stroke-opacity:1"
       id="path860" />
    <path
       d="m 739.511,511.819 68.946,-62.453"
       style="fill:none;stroke:#231f20;stroke-width:0.5;stroke-linecap:round;stroke-linejoin:round;stroke-miterlimit:4;stroke-dasharray:2.8, 1.8;stroke-dashoffset:0;stroke-opacity:1"
       id="path862" />
    <path
       d="m 659.199,737.548 9.261,45.241"
       style="fill:none;stroke:#231f20;stroke-width:0.5;stroke-linecap:round;stroke-linejoin:round;stroke-miterlimit:4;stroke-dasharray:2.8, 1.8;stroke-dashoffset:0;stroke-opacity:1"
       id="path864" />
    <path
       d="m 615.948,753.793 39.58,41.189"
       style="fill:none;stroke:#231f20;stroke-width:0.5;stroke-linecap:round;stroke-linejoin:round;stroke-miterlimit:4;stroke-dasharray:2.8, 1.8;stroke-dashoffset:0;stroke-opacity:1"
       id="path866" />
    <path
       d="m 547.113,812.348 96.789,-6.937"
       style="fill:none;stroke:#231f20;stroke-width:0.5;stroke-linecap:round;stroke-linejoin:round;stroke-miterlimit:4;stroke-dasharray:2.8, 1.8;stroke-dashoffset:0;stroke-opacity:1"
       id="path868" />
    <path
       d="m 550.472,858.756 88.833,-43.339"
       style="fill:none;stroke:#231f20;stroke-width:0.5;stroke-linecap:round;stroke-linejoin:round;stroke-miterlimit:4;stroke-dasharray:2.8, 1.8;stroke-dashoffset:0;stroke-opacity:1"
       id="path870" />
    <path
       d="m 607.841,895.086 31.464,-79.669"
       style="fill:none;stroke:#231f20;stroke-width:0.5;stroke-linecap:round;stroke-linejoin:round;stroke-miterlimit:4;stroke-dasharray:2.8, 1.8;stroke-dashoffset:0;stroke-opacity:1"
       id="path872" />
    <path
       d="m 648.789,895.787 -5.104,-79.079"
       style="fill:none;stroke:#231f20;stroke-width:0.5;stroke-linecap:round;stroke-linejoin:round;stroke-miterlimit:4;stroke-dasharray:2.8, 1.8;stroke-dashoffset:0;stroke-opacity:1"
       id="path874" />
    <path
       d="M 686.282,891.684 665.829,809.168"
       style="fill:none;stroke:#231f20;stroke-width:0.5;stroke-linecap:round;stroke-linejoin:round;stroke-miterlimit:4;stroke-dasharray:2.8, 1.8;stroke-dashoffset:0;stroke-opacity:1"
       id="path876" />
    <path
       d="M 764.38,873.759 734.684,784.504"
       style="fill:none;stroke:#231f20;stroke-width:0.5;stroke-linecap:round;stroke-linejoin:round;stroke-miterlimit:4;stroke-dasharray:2.8, 1.8;stroke-dashoffset:0;stroke-opacity:1"
       id="path878" />
    <path
       d="m 843.319,837.599 -42.21,-82.22"
       style="fill:none;stroke:#231f20;stroke-width:0.5;stroke-linecap:round;stroke-linejoin:round;stroke-miterlimit:4;stroke-dasharray:2.8, 1.8;stroke-dashoffset:0;stroke-opacity:1"
       id="path880" />
    <path
       d="m 863.381,709.751 70.043,53.701"
       style="fill:none;stroke:#231f20;stroke-width:0.5;stroke-linecap:round;stroke-linejoin:round;stroke-miterlimit:4;stroke-dasharray:2.8, 1.8;stroke-dashoffset:0;stroke-opacity:1"
       id="path882" />
    <path
       d="m 877.433,690.862 78.715,46.001"
       style="fill:none;stroke:#231f20;stroke-width:0.5;stroke-linecap:round;stroke-linejoin:round;stroke-miterlimit:4;stroke-dasharray:2.8, 1.8;stroke-dashoffset:0;stroke-opacity:1"
       id="path884" />
    <path
       d="m 894.403,657.792 87.739,26.774"
       style="fill:none;stroke:#231f20;stroke-width:0.5;stroke-linecap:round;stroke-linejoin:round;stroke-miterlimit:4;stroke-dasharray:2.8, 1.8;stroke-dashoffset:0;stroke-opacity:1"
       id="path886" />
    <path
       d="m 902.668,630.098 86.322,11.948"
       style="fill:none;stroke:#231f20;stroke-width:0.5;stroke-linecap:round;stroke-linejoin:round;stroke-miterlimit:4;stroke-dasharray:2.8, 1.8;stroke-dashoffset:0;stroke-opacity:1"
       id="path888" />
    <path
       d="m 906.139,602.838 81.215,-8.866"
       style="fill:none;stroke:#231f20;stroke-width:0.5;stroke-linecap:round;stroke-linejoin:round;stroke-miterlimit:4;stroke-dasharray:2.8, 1.8;stroke-dashoffset:0;stroke-opacity:1"
       id="path890" />
    <path
       d="M 903.918,566.616 976.336,552.35"
       style="fill:none;stroke:#231f20;stroke-width:0.5;stroke-linecap:round;stroke-linejoin:round;stroke-miterlimit:4;stroke-dasharray:2.8, 1.8;stroke-dashoffset:0;stroke-opacity:1"
       id="path892" />
    <path
       d="m 896.408,540.467 62.939,-18.602"
       style="fill:none;stroke:#231f20;stroke-width:0.5;stroke-linecap:round;stroke-linejoin:round;stroke-miterlimit:4;stroke-dasharray:2.8, 1.8;stroke-dashoffset:0;stroke-opacity:1"
       id="path894" />
    <path
       d="m 732.868,698.028 c -4.391,-4.437 -3.001,-22.296 7.045,-26.938"
       style="fill:none;stroke:#231f20;stroke-width:0.5;stroke-linecap:round;stroke-linejoin:round;stroke-miterlimit:4;stroke-dasharray:2.8, 1.8;stroke-dashoffset:0;stroke-opacity:1"
       id="path896" />
    <path
       d="m 810.215,487.259 c 10.174,2.395 17.383,5.48 28.374,15.231 15.453,13.709 20.266,23.205 23.306,28.665"
       style="fill:none;stroke:#231f20;stroke-width:0.5;stroke-linecap:round;stroke-linejoin:round;stroke-miterlimit:4;stroke-dasharray:2.8, 1.8;stroke-dashoffset:0;stroke-opacity:1"
       id="path898" />
    <path
       d="m 786.215,689.816 c 12.159,0 35.149,-14.652 45.956,-25.232 10.81,-10.578 31.075,-37.196 33.102,-58.013 2.026,-20.816 -0.338,-34.807 -3.378,-47.092 0,0 -2.929,-13.481 -14.906,-26.895"
       style="fill:none;stroke:#231f20;stroke-width:0.5;stroke-linecap:round;stroke-linejoin:round;stroke-miterlimit:4;stroke-dasharray:2.8, 1.8;stroke-dashoffset:0;stroke-opacity:1"
       id="path900" />
    <path
       d="m 831.128,537.657 c 10.679,-4.879 19.018,-6.052 30.767,-6.502 4.429,-0.17 23.375,13.975 28.408,23.539"
       style="fill:none;stroke:#231f20;stroke-width:0.5;stroke-linecap:round;stroke-linejoin:round;stroke-miterlimit:4;stroke-dasharray:2.8, 1.8;stroke-dashoffset:0;stroke-opacity:1"
       id="path902" />
    <path
       d="m 784.574,673.631 c -5.464,12.581 8.929,26.545 14.036,32.545 3.964,4.658 9.735,6.199 13.296,5.843 10.175,-1.02 32.929,-10.449 36.393,-12.05"
       style="fill:none;stroke:#231f20;stroke-width:0.5;stroke-linecap:round;stroke-linejoin:round;stroke-miterlimit:4;stroke-dasharray:2.8, 1.8;stroke-dashoffset:0;stroke-opacity:1"
       id="path904" />
    <path
       d="m 811.906,712.019 c 10.47,-4.437 30.398,-17.404 42.558,-31.395 12.16,-13.992 16.889,-25.935 21.28,-32.76 4.39,-6.825 15.539,-26.277 15.539,-48.8 0,-22.522 -0.392,-38.265 -14.552,-59.739"
       style="fill:none;stroke:#231f20;stroke-width:0.5;stroke-linecap:round;stroke-linejoin:round;stroke-miterlimit:4;stroke-dasharray:2.8, 1.8;stroke-dashoffset:0;stroke-opacity:1"
       id="path906" />
    <path
       d="m 861.895,531.155 c 8.745,15.132 20.266,34.125 22.293,54.942 1.455,14.948 -0.675,33.101 -9.795,47.434 -9.12,14.333 -11.484,20.475 -12.159,25.253 -0.676,4.777 -7.094,9.896 -8.108,11.943 -1.012,2.048 -4.39,8.19 -7.43,8.531 -3.04,0.342 -8.444,0.684 -11.147,6.144 -2.701,5.46 -6.08,8.531 -10.808,11.602 -4.729,3.071 -15.921,12.625 -19.06,13.992 -7.093,1.706 -29.241,1.023 -36.334,-2.048 -7.094,-3.072 -19.929,-11.603 -36.479,-10.92 -16.55,0.681 -20.604,12.114 -21.618,16.721 -1.067,4.85 5.406,16.38 12.848,19.665"
       style="fill:none;stroke:#231f20;stroke-width:0.5;stroke-linecap:round;stroke-linejoin:round;stroke-miterlimit:4;stroke-dasharray:2.8, 1.8;stroke-dashoffset:0;stroke-opacity:1"
       id="path908" />
    <path
       d="m 718.006,557.432 c -7.093,0.34 -17.564,1.023 -22.63,-1.366 -5.068,-2.389 -6.756,-7.507 -6.418,-12.625 0.338,-5.12 1.156,-10.346 9.457,-11.944 7.093,-1.365 17.303,-0.526 27.424,4.396"
       style="fill:none;stroke:#231f20;stroke-width:0.5;stroke-linecap:round;stroke-linejoin:round;stroke-miterlimit:4;stroke-dasharray:2.8, 1.8;stroke-dashoffset:0;stroke-opacity:1"
       id="path910" />
    <path
       d="m 698.75,557.111 c -1.009,7.486 0.679,16.701 2.029,27.62 1.352,10.92 4.47,21.931 5.713,24.584 2.394,5.105 14.876,7.025 17.755,-2.124"
       style="fill:none;stroke:#231f20;stroke-width:0.5;stroke-linecap:round;stroke-linejoin:round;stroke-miterlimit:4;stroke-dasharray:2.8, 1.8;stroke-dashoffset:0;stroke-opacity:1"
       id="path912" />
    <path
       d="m 545.707,694.214 c -1.652,6.202 -2.327,29.408 -0.3,37.256 2.027,7.849 9.794,19.451 25.333,21.499 15.536,2.048 26.007,-1.707 35.126,-3.754 9.122,-2.048 30.062,-7.849 43.911,-15.015 13.849,-7.166 30.737,-22.864 38.167,-32.419 7.432,-9.555 17.862,-23.898 19.14,-27.982"
       style="fill:none;stroke:#231f20;stroke-width:0.5;stroke-linecap:round;stroke-linejoin:round;stroke-miterlimit:4;stroke-dasharray:2.8, 1.8;stroke-dashoffset:0;stroke-opacity:1"
       id="path914" />
    <path
       d="m 574.455,558.455 c 0,0 7.093,-8.871 5.741,-16.039 -1.351,-7.166 -3.039,-18.426 -24.318,-15.015"
       style="fill:none;stroke:#231f20;stroke-width:0.5;stroke-linecap:round;stroke-linejoin:round;stroke-miterlimit:4;stroke-dasharray:2.8, 1.8;stroke-dashoffset:0;stroke-opacity:1"
       id="path916" />
    <path
       d="m 543.955,620.478 c 7.531,4.18 28.134,20.219 36.241,37.623"
       style="fill:none;stroke:#231f20;stroke-width:0.5;stroke-linecap:round;stroke-linejoin:round;stroke-miterlimit:4;stroke-dasharray:2.8, 1.8;stroke-dashoffset:0;stroke-opacity:1"
       id="path918" />
    <path
       d="m 545.407,616.809 c 9.794,-0.683 51.638,0.416 65,3.791"
       style="fill:none;stroke:#231f20;stroke-width:0.5;stroke-linecap:round;stroke-linejoin:round;stroke-miterlimit:4;stroke-dasharray:2.8, 1.8;stroke-dashoffset:0;stroke-opacity:1"
       id="path920" />
    <path
       d="m 543.12,604.603 c 8.029,-3.492 37.019,-15.631 45.66,-20.31"
       style="fill:none;stroke:#231f20;stroke-width:0.5;stroke-linecap:round;stroke-linejoin:round;stroke-miterlimit:4;stroke-dasharray:2.8, 1.8;stroke-dashoffset:0;stroke-opacity:1"
       id="path922" />
    <path
       d="m 544.73,577.566 c 2.362,-0.109 1.689,-7.509 1.015,-12.627 -0.676,-5.118 -0.923,-14.791 -3.379,-14.673 -1.773,0.084 -0.72,9.9 -0.338,14.673 0.419,5.226 0.845,12.711 2.702,12.627 z"
       style="fill:none;stroke:#231f20;stroke-width:0.5;stroke-linecap:round;stroke-linejoin:round;stroke-miterlimit:4;stroke-dasharray:2.8, 1.8;stroke-dashoffset:0;stroke-opacity:1"
       id="path924" />
    <path
       d="m 546.275,570.068 c 2.171,2.721 27.795,15.033 33.559,0.005"
       style="fill:none;stroke:#231f20;stroke-width:0.5;stroke-linecap:round;stroke-linejoin:round;stroke-miterlimit:4;stroke-dasharray:2.8, 1.8;stroke-dashoffset:0;stroke-opacity:1"
       id="path926" />
    <path
       d="m 548.237,571.545 c 4.937,7.726 24.932,20.42 39.593,11.343"
       style="fill:none;stroke:#231f20;stroke-width:0.5;stroke-linecap:round;stroke-linejoin:round;stroke-miterlimit:4;stroke-dasharray:2.8, 1.8;stroke-dashoffset:0;stroke-opacity:1"
       id="path928" />
    <path
       d="m 545.953,566.622 c 4.182,2.413 17.575,0.132 24.787,-6.801"
       style="fill:none;stroke:#231f20;stroke-width:0.5;stroke-linecap:round;stroke-linejoin:round;stroke-miterlimit:4;stroke-dasharray:2.8, 1.8;stroke-dashoffset:0;stroke-opacity:1"
       id="path930" />
    <path
       d="m 544.055,529.108 c -1.689,0.682 -3.716,2.389 -1.013,8.873 2.703,6.482 2.011,12.853 2.703,15.356 0.789,2.863 1.255,3.792 3.377,4.778 3.203,1.488 7.634,-0.611 9.458,-1.366 1.857,-0.767 5.012,-2.755 6.316,-3.349"
       style="fill:none;stroke:#231f20;stroke-width:0.5;stroke-linecap:round;stroke-linejoin:round;stroke-miterlimit:4;stroke-dasharray:2.8, 1.8;stroke-dashoffset:0;stroke-opacity:1"
       id="path932" />
    <path
       d="m 571.526,512.727 c 5.649,2.075 8.783,-1.137 10.134,-5.003 1.351,-3.868 1.8,-8.873 -4.054,-10.694 -5.854,-1.818 -10.356,0.683 -11.709,5.46 -1.352,4.777 0.675,8.42 5.629,10.237 z"
       style="fill:none;stroke:#231f20;stroke-width:0.5;stroke-linecap:round;stroke-linejoin:round;stroke-miterlimit:4;stroke-dasharray:2.8, 1.8;stroke-dashoffset:0;stroke-opacity:1"
       id="path934" />
    <path
       d="m 618.138,524.104 c 4.328,0.184 10.133,-1.818 10.81,-7.052 0.676,-5.233 -2.271,-9.547 -6.757,-10.01 -4.592,-0.478 -8.218,-1.736 -11.708,1.819 -3.701,3.77 -2.027,9.1 -0.225,11.375 1.801,2.275 5.864,3.782 7.88,3.868 z"
       style="fill:none;stroke:#231f20;stroke-width:0.5;stroke-linecap:round;stroke-linejoin:round;stroke-miterlimit:4;stroke-dasharray:2.8, 1.8;stroke-dashoffset:0;stroke-opacity:1"
       id="path936" />
    <path
       d="m 613.41,502.947 c 9.982,2.184 28.148,5.46 33.328,4.777 5.177,-0.682 10.048,-4.21 9.681,-9.1 -0.312,-4.179 -4.052,-13.879 -12.61,-16.835 -8.557,-2.957 -18.014,-1.822 -29.499,-1.138 -11.482,0.683 -27.923,2.276 -30.624,2.276 -2.701,0 -4.277,0.683 -5.628,2.729 -1.352,2.049 -3.379,5.231 1.351,7.052 4.729,1.822 25.279,8.327 34.001,10.239 z"
       style="fill:none;stroke:#231f20;stroke-width:0.5;stroke-linecap:round;stroke-linejoin:round;stroke-miterlimit:4;stroke-dasharray:2.8, 1.8;stroke-dashoffset:0;stroke-opacity:1"
       id="path938" />
    <path
       d="m 544.406,518.377 c 0.775,-4.51 6.404,-14.521 8.208,-19.526 1.798,-5.004 7.655,-26.318 -2.703,-37.468"
       style="fill:none;stroke:#231f20;stroke-width:0.5;stroke-linecap:round;stroke-linejoin:round;stroke-miterlimit:4;stroke-dasharray:2.8, 1.8;stroke-dashoffset:0;stroke-opacity:1"
       id="path940" />
    <path
       d="m 565.857,391.82 c 3.419,1.927 10.624,5.795 14.002,11.708"
       style="fill:none;stroke:#231f20;stroke-width:0.5;stroke-linecap:round;stroke-linejoin:round;stroke-miterlimit:4;stroke-dasharray:2.8, 1.8;stroke-dashoffset:0;stroke-opacity:1"
       id="path942" />
    <path
       d="m 700.065,504.816 c -1.087,3.816 -12.118,6.547 -21.352,2.908 -9.234,-3.64 -17.621,-9.84 -22.304,-21.48"
       style="fill:none;stroke:#231f20;stroke-width:0.5;stroke-linecap:round;stroke-linejoin:round;stroke-miterlimit:4;stroke-dasharray:2.8, 1.8;stroke-dashoffset:0;stroke-opacity:1"
       id="path944" />
    <path
       d="m 611.383,436.289 c 0.451,-1.367 1.802,-0.681 4.505,1.593 2.701,2.275 9.456,6.598 14.186,10.92 4.729,4.322 9.231,10.463 7.205,12.056 -2.027,1.594 -4.504,-2.274 -9.682,-5.913 -5.179,-3.643 -10.074,-8.214 -12.134,-11.312"
       style="fill:none;stroke:#231f20;stroke-width:0.5;stroke-linecap:round;stroke-linejoin:round;stroke-miterlimit:4;stroke-dasharray:2.8, 1.8;stroke-dashoffset:0;stroke-opacity:1"
       id="path946" />
    <path
       d="m 646.822,467.752 c 1.575,1.365 6.722,6.956 9.372,10.168 2.956,3.583 3.778,7.31 2.253,8.19 -1.577,0.912 -3.378,0 -6.755,-4.321 -3.379,-4.322 -7.883,-9.782 -10.586,-12.513 -2.701,-2.729 -5.628,-7.279 -3.827,-8.418"
       style="fill:none;stroke:#231f20;stroke-width:0.5;stroke-linecap:round;stroke-linejoin:round;stroke-miterlimit:4;stroke-dasharray:2.8, 1.8;stroke-dashoffset:0;stroke-opacity:1"
       id="path948" />
    <path
       d="m 640.883,464.271 c 2.476,1.364 6.362,3.813 9.005,5.232 2.406,1.289 7.432,4.096 8.559,0.456 1.126,-3.641 -2.931,-7.054 -4.506,-7.962 -1.574,-0.91 -5.854,-0.91 -8.781,-1.592 -2.927,-0.683 -6.292,-2.598 -7.419,-0.323 -1.126,2.276 1.945,3.531 3.142,4.189 z"
       style="fill:none;stroke:#231f20;stroke-width:0.5;stroke-linecap:round;stroke-linejoin:round;stroke-miterlimit:4;stroke-dasharray:2.8, 1.8;stroke-dashoffset:0;stroke-opacity:1"
       id="path950" />
    <path
       d="m 543.609,444.014 c 0.222,-4.085 5.851,-11.592 11.931,-11.14"
       style="fill:none;stroke:#231f20;stroke-width:0.5;stroke-linecap:round;stroke-linejoin:round;stroke-miterlimit:4;stroke-dasharray:2.8, 1.8;stroke-dashoffset:0;stroke-opacity:1"
       id="path952" />
    <path
       d="m 571.575,416.764 c -3.876,0.188 -9.055,2.462 -12.883,4.965 -3.828,2.502 -4.28,4.321 -5.63,4.776 -1.352,0.457 -5.628,-0.908 -3.827,-4.321 1.801,-3.412 11.115,-23.794 12.764,-31.917"
       style="fill:none;stroke:#231f20;stroke-width:0.5;stroke-linecap:round;stroke-linejoin:round;stroke-miterlimit:4;stroke-dasharray:2.8, 1.8;stroke-dashoffset:0;stroke-opacity:1"
       id="path954" />
    <path
       d="m 542.48,428.941 c 1.531,-1.078 4.677,-3.686 6.616,-4.085"
       style="fill:none;stroke:#231f20;stroke-width:0.5;stroke-linecap:round;stroke-linejoin:round;stroke-miterlimit:4;stroke-dasharray:2.8, 1.8;stroke-dashoffset:0;stroke-opacity:1"
       id="path956" />
    <path
       d="m 552.396,426.588 c 1.961,1.082 3.144,1.509 3.144,6.286"
       style="fill:none;stroke:#231f20;stroke-width:0.5;stroke-linecap:round;stroke-linejoin:round;stroke-miterlimit:4;stroke-dasharray:2.8, 1.8;stroke-dashoffset:0;stroke-opacity:1"
       id="path958" />
    <path
       d="m 299.511,654.916 c -3.822,1.379 -7.657,0 -8.332,-2.501 -0.677,-2.503 1.125,-5.461 4.729,-6.598 3.603,-1.138 6.081,-0.456 7.206,2.273 1.126,2.731 -0.451,5.689 -3.603,6.826 z"
       style="fill:none;stroke:#231f20;stroke-width:0.5;stroke-linecap:round;stroke-linejoin:round;stroke-miterlimit:4;stroke-dasharray:2.8, 1.8;stroke-dashoffset:0;stroke-opacity:1"
       id="path960" />
    <path
       d="m 284.649,636.943 c -5.811,1.445 -13.736,-0.909 -18.466,-7.052 -4.728,-6.141 -13.215,-23.124 -11.483,-43.225 1.802,-20.929 4.954,-34.354 14.637,-35.036 11.026,-0.776 14.187,1.365 12.835,8.191 -1.35,6.825 -6.531,7.962 -0.451,25.252 6.079,17.29 12.386,30.258 10.584,40.041 -1.567,8.516 -5.602,11.32 -7.656,11.829"
       style="fill:#b2b1b1;fill-opacity:1;fill-rule:nonzero;stroke:none;stroke-width:0.1"
       id="path962" />
    <path
       d="m 284.649,636.943 c -5.811,1.445 -13.736,-0.909 -18.466,-7.052 -4.728,-6.141 -13.215,-23.124 -11.483,-43.225 1.802,-20.929 4.954,-34.354 14.637,-35.036 11.026,-0.776 14.187,1.365 12.835,8.191 -1.35,6.825 -6.531,7.962 -0.451,25.252 6.079,17.29 12.386,30.258 10.584,40.041 -1.567,8.516 -5.602,11.32 -7.656,11.829 z"
       style="fill:none;stroke:#231f20;stroke-width:0.5;stroke-linecap:round;stroke-linejoin:round;stroke-miterlimit:4;stroke-dasharray:2.8, 1.8;stroke-dashoffset:0;stroke-opacity:1"
       id="path964" />
    <path
       d="m 326.532,604.182 c -2.252,0 -9.683,-7.051 -8.782,-18.199 0.901,-11.149 3.828,-16.834 7.881,-16.609 4.053,0.229 5.63,10.011 5.63,16.155 0,6.142 -2.027,18.653 -4.729,18.653 z"
       style="fill:none;stroke:#231f20;stroke-width:0.5;stroke-linecap:round;stroke-linejoin:round;stroke-miterlimit:4;stroke-dasharray:2.8, 1.8;stroke-dashoffset:0;stroke-opacity:1"
       id="path966" />
    <path
       d="m 420.805,737.548 -9.263,45.241"
       style="fill:none;stroke:#231f20;stroke-width:0.5;stroke-linecap:round;stroke-linejoin:round;stroke-miterlimit:4;stroke-dasharray:2.8, 1.8;stroke-dashoffset:0;stroke-opacity:1"
       id="path968" />
    <path
       d="m 464.057,753.793 -39.58,41.189"
       style="fill:none;stroke:#231f20;stroke-width:0.5;stroke-linecap:round;stroke-linejoin:round;stroke-miterlimit:4;stroke-dasharray:2.8, 1.8;stroke-dashoffset:0;stroke-opacity:1"
       id="path970" />
    <path
       d="m 532.89,812.348 -96.788,-6.937"
       style="fill:none;stroke:#231f20;stroke-width:0.5;stroke-linecap:round;stroke-linejoin:round;stroke-miterlimit:4;stroke-dasharray:2.8, 1.8;stroke-dashoffset:0;stroke-opacity:1"
       id="path972" />
    <path
       d="M 529.532,858.756 440.698,815.417"
       style="fill:none;stroke:#231f20;stroke-width:0.5;stroke-linecap:round;stroke-linejoin:round;stroke-miterlimit:4;stroke-dasharray:2.8, 1.8;stroke-dashoffset:0;stroke-opacity:1"
       id="path974" />
    <path
       d="M 472.163,895.086 440.698,815.417"
       style="fill:none;stroke:#231f20;stroke-width:0.5;stroke-linecap:round;stroke-linejoin:round;stroke-miterlimit:4;stroke-dasharray:2.8, 1.8;stroke-dashoffset:0;stroke-opacity:1"
       id="path976" />
    <path
       d="m 431.214,895.787 5.105,-79.079"
       style="fill:none;stroke:#231f20;stroke-width:0.5;stroke-linecap:round;stroke-linejoin:round;stroke-miterlimit:4;stroke-dasharray:2.8, 1.8;stroke-dashoffset:0;stroke-opacity:1"
       id="path978" />
    <path
       d="m 393.722,891.684 20.453,-82.516"
       style="fill:none;stroke:#231f20;stroke-width:0.5;stroke-linecap:round;stroke-linejoin:round;stroke-miterlimit:4;stroke-dasharray:2.8, 1.8;stroke-dashoffset:0;stroke-opacity:1"
       id="path980" />
    <path
       d="m 315.624,873.759 29.697,-89.255"
       style="fill:none;stroke:#231f20;stroke-width:0.5;stroke-linecap:round;stroke-linejoin:round;stroke-miterlimit:4;stroke-dasharray:2.8, 1.8;stroke-dashoffset:0;stroke-opacity:1"
       id="path982" />
    <path
       d="m 236.686,837.599 42.21,-82.22"
       style="fill:none;stroke:#231f20;stroke-width:0.5;stroke-linecap:round;stroke-linejoin:round;stroke-miterlimit:4;stroke-dasharray:2.8, 1.8;stroke-dashoffset:0;stroke-opacity:1"
       id="path984" />
    <path
       d="M 216.622,709.751 146.58,763.452"
       style="fill:none;stroke:#231f20;stroke-width:0.5;stroke-linecap:round;stroke-linejoin:round;stroke-miterlimit:4;stroke-dasharray:2.8, 1.8;stroke-dashoffset:0;stroke-opacity:1"
       id="path986" />
    <path
       d="m 202.571,690.862 -78.714,46.001"
       style="fill:none;stroke:#231f20;stroke-width:0.5;stroke-linecap:round;stroke-linejoin:round;stroke-miterlimit:4;stroke-dasharray:2.8, 1.8;stroke-dashoffset:0;stroke-opacity:1"
       id="path988" />
    <path
       d="M 185.602,657.792 97.8625,684.566"
       style="fill:none;stroke:#231f20;stroke-width:0.5;stroke-linecap:round;stroke-linejoin:round;stroke-miterlimit:4;stroke-dasharray:2.8, 1.8;stroke-dashoffset:0;stroke-opacity:1"
       id="path990" />
    <path
       d="M 177.337,630.098 91.0148,642.046"
       style="fill:none;stroke:#231f20;stroke-width:0.5;stroke-linecap:round;stroke-linejoin:round;stroke-miterlimit:4;stroke-dasharray:2.8, 1.8;stroke-dashoffset:0;stroke-opacity:1"
       id="path992" />
    <path
       d="M 173.865,602.838 92.6484,593.972"
       style="fill:none;stroke:#231f20;stroke-width:0.5;stroke-linecap:round;stroke-linejoin:round;stroke-miterlimit:4;stroke-dasharray:2.8, 1.8;stroke-dashoffset:0;stroke-opacity:1"
       id="path994" />
    <path
       d="M 176.085,566.616 103.668,552.35"
       style="fill:none;stroke:#231f20;stroke-width:0.5;stroke-linecap:round;stroke-linejoin:round;stroke-miterlimit:4;stroke-dasharray:2.8, 1.8;stroke-dashoffset:0;stroke-opacity:1"
       id="path996" />
    <path
       d="M 183.595,540.467 120.656,521.865"
       style="fill:none;stroke:#231f20;stroke-width:0.5;stroke-linecap:round;stroke-linejoin:round;stroke-miterlimit:4;stroke-dasharray:2.8, 1.8;stroke-dashoffset:0;stroke-opacity:1"
       id="path998" />
    <path
       d="m 361.998,557.432 c 7.093,0.34 17.564,1.023 22.63,-1.366 5.067,-2.389 6.756,-7.507 6.417,-12.625 -0.337,-5.12 -1.155,-10.346 -9.457,-11.944 -7.092,-1.365 -17.302,-0.526 -27.425,4.396"
       style="fill:none;stroke:#231f20;stroke-width:0.5;stroke-linecap:round;stroke-linejoin:round;stroke-miterlimit:4;stroke-dasharray:2.8, 1.8;stroke-dashoffset:0;stroke-opacity:1"
       id="path1000" />
    <path
       d="m 381.254,557.111 c 1.01,7.486 -0.679,16.701 -2.03,27.62 -1.351,10.92 -4.469,21.931 -5.713,24.584 -2.393,5.105 -14.875,7.025 -17.754,-2.124"
       style="fill:none;stroke:#231f20;stroke-width:0.5;stroke-linecap:round;stroke-linejoin:round;stroke-miterlimit:4;stroke-dasharray:2.8, 1.8;stroke-dashoffset:0;stroke-opacity:1"
       id="path1002" />
    <path
       d="m 534.296,694.214 c 1.653,6.202 2.328,29.408 0.301,37.256 -2.026,7.849 -9.795,19.451 -25.332,21.499 -15.537,2.048 -26.009,-1.707 -35.128,-3.754 -9.12,-2.048 -30.061,-7.849 -43.91,-15.015 -13.849,-7.166 -30.737,-22.864 -38.168,-32.419 -7.431,-9.555 -17.861,-23.898 -19.141,-27.982"
       style="fill:none;stroke:#231f20;stroke-width:0.5;stroke-linecap:round;stroke-linejoin:round;stroke-miterlimit:4;stroke-dasharray:2.8, 1.8;stroke-dashoffset:0;stroke-opacity:1"
       id="path1004" />
    <path
       d="m 505.549,558.455 c 0,0 -7.092,-8.871 -5.742,-16.039 1.352,-7.166 3.04,-18.426 24.319,-15.015"
       style="fill:none;stroke:#231f20;stroke-width:0.5;stroke-linecap:round;stroke-linejoin:round;stroke-miterlimit:4;stroke-dasharray:2.8, 1.8;stroke-dashoffset:0;stroke-opacity:1"
       id="path1006" />
    <path
       d="m 536.05,620.478 c -7.532,4.18 -28.135,20.219 -36.243,37.623"
       style="fill:none;stroke:#231f20;stroke-width:0.5;stroke-linecap:round;stroke-linejoin:round;stroke-miterlimit:4;stroke-dasharray:2.8, 1.8;stroke-dashoffset:0;stroke-opacity:1"
       id="path1008" />
    <path
       d="m 534.597,616.809 c -9.795,-0.683 -51.639,0.416 -65,3.791"
       style="fill:none;stroke:#231f20;stroke-width:0.5;stroke-linecap:round;stroke-linejoin:round;stroke-miterlimit:4;stroke-dasharray:2.8, 1.8;stroke-dashoffset:0;stroke-opacity:1"
       id="path1010" />
    <path
       d="m 536.884,604.603 c -8.029,-3.492 -37.018,-15.631 -45.661,-20.31"
       style="fill:none;stroke:#231f20;stroke-width:0.5;stroke-linecap:round;stroke-linejoin:round;stroke-miterlimit:4;stroke-dasharray:2.8, 1.8;stroke-dashoffset:0;stroke-opacity:1"
       id="path1012" />
    <path
       d="m 535.273,577.566 c -2.361,-0.109 -1.689,-7.509 -1.013,-12.627 0.675,-5.118 0.922,-14.791 3.377,-14.673 1.774,0.084 0.722,9.9 0.338,14.673 -0.419,5.226 -0.844,12.711 -2.702,12.627 z"
       style="fill:none;stroke:#231f20;stroke-width:0.5;stroke-linecap:round;stroke-linejoin:round;stroke-miterlimit:4;stroke-dasharray:2.8, 1.8;stroke-dashoffset:0;stroke-opacity:1"
       id="path1014" />
    <path
       d="m 533.729,570.068 c -2.172,2.721 -27.794,15.033 -33.56,0.005"
       style="fill:none;stroke:#231f20;stroke-width:0.5;stroke-linecap:round;stroke-linejoin:round;stroke-miterlimit:4;stroke-dasharray:2.8, 1.8;stroke-dashoffset:0;stroke-opacity:1"
       id="path1016" />
    <path
       d="m 531.767,571.545 c -4.938,7.726 -24.933,20.42 -39.593,11.343"
       style="fill:none;stroke:#231f20;stroke-width:0.5;stroke-linecap:round;stroke-linejoin:round;stroke-miterlimit:4;stroke-dasharray:2.8, 1.8;stroke-dashoffset:0;stroke-opacity:1"
       id="path1018" />
    <path
       d="m 534.051,566.622 c -4.182,2.413 -17.574,0.132 -24.786,-6.801"
       style="fill:none;stroke:#231f20;stroke-width:0.5;stroke-linecap:round;stroke-linejoin:round;stroke-miterlimit:4;stroke-dasharray:2.8, 1.8;stroke-dashoffset:0;stroke-opacity:1"
       id="path1020" />
    <path
       d="m 535.949,529.108 c 1.688,0.682 3.716,2.389 1.013,8.873 -2.702,6.482 -2.012,12.853 -2.702,15.356 -0.79,2.863 -1.257,3.792 -3.378,4.778 -3.204,1.488 -7.634,-0.611 -9.458,-1.366 -1.857,-0.767 -5.012,-2.755 -6.316,-3.349"
       style="fill:none;stroke:#231f20;stroke-width:0.5;stroke-linecap:round;stroke-linejoin:round;stroke-miterlimit:4;stroke-dasharray:2.8, 1.8;stroke-dashoffset:0;stroke-opacity:1"
       id="path1022" />
    <path
       d="m 508.477,512.727 c -5.648,2.075 -8.782,-1.137 -10.133,-5.003 -1.351,-3.868 -1.801,-8.873 4.053,-10.694 5.854,-1.818 10.356,0.683 11.709,5.46 1.352,4.777 -0.674,8.42 -5.629,10.237 z"
       style="fill:none;stroke:#231f20;stroke-width:0.5;stroke-linecap:round;stroke-linejoin:round;stroke-miterlimit:4;stroke-dasharray:2.8, 1.8;stroke-dashoffset:0;stroke-opacity:1"
       id="path1024" />
    <path
       d="m 461.866,524.104 c -4.328,0.184 -10.134,-1.818 -10.81,-7.052 -0.675,-5.233 2.272,-9.547 6.756,-10.01 4.593,-0.478 8.219,-1.736 11.709,1.819 3.701,3.77 2.025,9.1 0.225,11.375 -1.801,2.275 -5.864,3.782 -7.88,3.868 z"
       style="fill:none;stroke:#231f20;stroke-width:0.5;stroke-linecap:round;stroke-linejoin:round;stroke-miterlimit:4;stroke-dasharray:2.8, 1.8;stroke-dashoffset:0;stroke-opacity:1"
       id="path1026" />
    <path
       d="m 466.594,502.947 c -9.982,2.184 -28.148,5.46 -33.327,4.777 -5.179,-0.682 -10.049,-4.21 -9.683,-9.1 0.312,-4.179 4.054,-13.879 12.611,-16.835 8.556,-2.957 18.013,-1.822 29.498,-1.138 11.483,0.683 27.923,2.276 30.625,2.276 2.702,0 4.277,0.683 5.628,2.729 1.351,2.049 3.378,5.231 -1.351,7.052 -4.729,1.822 -25.28,8.327 -34.001,10.239 z"
       style="fill:none;stroke:#231f20;stroke-width:0.5;stroke-linecap:round;stroke-linejoin:round;stroke-miterlimit:4;stroke-dasharray:2.8, 1.8;stroke-dashoffset:0;stroke-opacity:1"
       id="path1028" />
    <path
       d="m 535.598,518.377 c -0.775,-4.51 -6.405,-14.521 -8.206,-19.526 -1.802,-5.004 -7.657,-26.318 2.702,-37.468"
       style="fill:none;stroke:#231f20;stroke-width:0.5;stroke-linecap:round;stroke-linejoin:round;stroke-miterlimit:4;stroke-dasharray:2.8, 1.8;stroke-dashoffset:0;stroke-opacity:1"
       id="path1030" />
    <path
       d="m 514.148,391.82 c -3.42,1.927 -10.625,5.795 -14.003,11.708"
       style="fill:none;stroke:#231f20;stroke-width:0.5;stroke-linecap:round;stroke-linejoin:round;stroke-miterlimit:4;stroke-dasharray:2.8, 1.8;stroke-dashoffset:0;stroke-opacity:1"
       id="path1032" />
    <path
       d="m 379.939,504.816 c 1.086,3.816 12.119,6.547 21.352,2.908 9.233,-3.64 17.621,-9.84 22.303,-21.48"
       style="fill:none;stroke:#231f20;stroke-width:0.5;stroke-linecap:round;stroke-linejoin:round;stroke-miterlimit:4;stroke-dasharray:2.8, 1.8;stroke-dashoffset:0;stroke-opacity:1"
       id="path1034" />
    <path
       d="m 468.621,436.289 c -0.452,-1.367 -1.803,-0.681 -4.505,1.593 -2.702,2.275 -9.457,6.598 -14.187,10.92 -4.728,4.322 -9.231,10.463 -7.205,12.056 2.027,1.594 4.505,-2.274 9.684,-5.913 5.178,-3.643 10.074,-8.214 12.133,-11.312"
       style="fill:none;stroke:#231f20;stroke-width:0.5;stroke-linecap:round;stroke-linejoin:round;stroke-miterlimit:4;stroke-dasharray:2.8, 1.8;stroke-dashoffset:0;stroke-opacity:1"
       id="path1036" />
    <path
       d="m 433.182,467.752 c -1.576,1.365 -6.722,6.956 -9.373,10.168 -2.955,3.583 -3.778,7.31 -2.252,8.19 1.577,0.912 3.378,0 6.755,-4.321 3.378,-4.322 7.883,-9.782 10.585,-12.513 2.702,-2.729 5.629,-7.279 3.827,-8.418"
       style="fill:none;stroke:#231f20;stroke-width:0.5;stroke-linecap:round;stroke-linejoin:round;stroke-miterlimit:4;stroke-dasharray:2.8, 1.8;stroke-dashoffset:0;stroke-opacity:1"
       id="path1038" />
    <path
       d="m 439.122,464.271 c -2.477,1.364 -6.363,3.813 -9.006,5.232 -2.406,1.289 -7.433,4.096 -8.559,0.456 -1.125,-3.641 2.929,-7.054 4.505,-7.962 1.575,-0.91 5.856,-0.91 8.781,-1.592 2.927,-0.683 6.294,-2.598 7.419,-0.323 1.126,2.276 -1.945,3.531 -3.14,4.189 z"
       style="fill:none;stroke:#231f20;stroke-width:0.5;stroke-linecap:round;stroke-linejoin:round;stroke-miterlimit:4;stroke-dasharray:2.8, 1.8;stroke-dashoffset:0;stroke-opacity:1"
       id="path1040" />
    <path
       d="m 516.78,427.43 c 5.151,2.294 7.684,5.444 7.684,5.444 0.452,5.008 2.478,7.283 4.729,9.329 2.252,2.048 7.206,1.822 10.809,1.822 3.601,0 8.558,0.226 10.808,-1.822 2.252,-2.046 4.277,-4.321 4.73,-9.329 0,0 2.534,-3.15 7.683,-5.444"
       style="fill:none;stroke:#231f20;stroke-width:0.5;stroke-linecap:round;stroke-linejoin:round;stroke-miterlimit:4;stroke-dasharray:2.8, 1.8;stroke-dashoffset:0;stroke-opacity:1"
       id="path1042" />
    <path
       d="m 536.394,444.014 c -0.22,-4.085 -5.85,-11.592 -11.93,-11.14"
       style="fill:none;stroke:#231f20;stroke-width:0.5;stroke-linecap:round;stroke-linejoin:round;stroke-miterlimit:4;stroke-dasharray:2.8, 1.8;stroke-dashoffset:0;stroke-opacity:1"
       id="path1044" />
    <path
       d="m 508.428,416.764 c 3.877,0.188 9.055,2.462 12.884,4.965 3.828,2.502 4.278,4.321 5.63,4.776 1.35,0.457 5.628,-0.908 3.827,-4.321 -1.801,-3.412 -11.116,-23.794 -12.764,-31.917"
       style="fill:none;stroke:#231f20;stroke-width:0.5;stroke-linecap:round;stroke-linejoin:round;stroke-miterlimit:4;stroke-dasharray:2.8, 1.8;stroke-dashoffset:0;stroke-opacity:1"
       id="path1046" />
    <path
       d="m 532.645,385.732 c 0.299,3.814 3.268,34.634 3.529,38.726 0.282,4.408 2.702,6.371 3.828,6.371 1.126,0 3.547,-1.963 3.829,-6.371 0.26,-4.092 3.23,-34.912 3.528,-38.726"
       style="fill:none;stroke:#231f20;stroke-width:0.5;stroke-linecap:round;stroke-linejoin:round;stroke-miterlimit:4;stroke-dasharray:2.8, 1.8;stroke-dashoffset:0;stroke-opacity:1"
       id="path1048" />
    <path
       d="m 537.525,428.941 c -1.532,-1.078 -4.676,-3.686 -6.616,-4.085"
       style="fill:none;stroke:#231f20;stroke-width:0.5;stroke-linecap:round;stroke-linejoin:round;stroke-miterlimit:4;stroke-dasharray:2.8, 1.8;stroke-dashoffset:0;stroke-opacity:1"
       id="path1050" />
    <path
       d="m 527.609,426.588 c -1.962,1.082 -3.145,1.509 -3.145,6.286"
       style="fill:none;stroke:#231f20;stroke-width:0.5;stroke-linecap:round;stroke-linejoin:round;stroke-miterlimit:4;stroke-dasharray:2.8, 1.8;stroke-dashoffset:0;stroke-opacity:1"
       id="path1052" />
    <path
       d="m 886.554,513.818 63.412,-39.553"
       style="fill:none;stroke:#231f20;stroke-width:0.5;stroke-linecap:round;stroke-linejoin:round;stroke-miterlimit:4;stroke-dasharray:2.8, 1.8;stroke-dashoffset:0;stroke-opacity:1"
       id="path1054" />
    <path
       d="m 782.233,390.857 27.896,55.077"
       style="fill:none;stroke:#231f20;stroke-width:0.5;stroke-linecap:round;stroke-linejoin:round;stroke-miterlimit:4;stroke-dasharray:2.8, 1.8;stroke-dashoffset:0;stroke-opacity:1"
       id="path1056" />
    <path
       d="m 327.433,493.847 c -3.599,0.482 -8.782,-3.868 -8.782,-12.513 0,-8.643 4.276,-12.058 9.232,-12.287 4.953,-0.225 6.078,7.509 5.853,13.423 -0.223,5.917 -2.926,10.92 -6.303,11.377 z"
       style="fill:none;stroke:#231f20;stroke-width:0.5;stroke-linecap:round;stroke-linejoin:round;stroke-miterlimit:4;stroke-dasharray:2.8, 1.8;stroke-dashoffset:0;stroke-opacity:1"
       id="path1058" />
    <path
       d="m 319.703,493.367 c -8.656,-6.746 -17.292,-12.051 -20.868,-9.987 -7.094,4.096 -7.278,19.393 -3.133,31.366"
       style="fill:none;stroke:#231f20;stroke-width:0.5;stroke-linecap:round;stroke-linejoin:round;stroke-miterlimit:4;stroke-dasharray:2.8, 1.8;stroke-dashoffset:0;stroke-opacity:1"
       id="path1060" />
    <path
       d="m 251.184,391.234 7.222,57.11"
       style="fill:none;stroke:#231f20;stroke-width:0.5;stroke-linecap:round;stroke-linejoin:round;stroke-miterlimit:4;stroke-dasharray:2.8, 1.8;stroke-dashoffset:0;stroke-opacity:1"
       id="path1062" />
    <path
       d="m 259.494,452.939 18.312,60.076"
       style="fill:none;stroke:#231f20;stroke-width:0.5;stroke-linecap:round;stroke-linejoin:round;stroke-miterlimit:4;stroke-dasharray:2.8, 1.8;stroke-dashoffset:0;stroke-opacity:1"
       id="path1064" />
    <path
       d="M 187.185,417.172 220.7,472.744"
       style="fill:none;stroke:#231f20;stroke-width:0.5;stroke-linecap:round;stroke-linejoin:round;stroke-miterlimit:4;stroke-dasharray:2.8, 1.8;stroke-dashoffset:0;stroke-opacity:1"
       id="path1066" />
    <path
       d="M 355.168,465.29 277.75,446.537"
       style="fill:none;stroke:#231f20;stroke-width:0.5;stroke-linecap:round;stroke-linejoin:round;stroke-miterlimit:4;stroke-dasharray:2.8, 1.8;stroke-dashoffset:0;stroke-opacity:1"
       id="path1068" />
    <path
       d="M 340.492,511.819 271.547,449.366"
       style="fill:none;stroke:#231f20;stroke-width:0.5;stroke-linecap:round;stroke-linejoin:round;stroke-miterlimit:4;stroke-dasharray:2.8, 1.8;stroke-dashoffset:0;stroke-opacity:1"
       id="path1070" />
    <path
       d="m 347.135,698.028 c 4.391,-4.437 3.001,-22.296 -7.044,-26.938"
       style="fill:none;stroke:#231f20;stroke-width:0.5;stroke-linecap:round;stroke-linejoin:round;stroke-miterlimit:4;stroke-dasharray:2.8, 1.8;stroke-dashoffset:0;stroke-opacity:1"
       id="path1072" />
    <path
       d="m 269.789,487.259 c -10.175,2.395 -17.384,5.48 -28.375,15.231 -15.452,13.709 -20.266,23.205 -23.306,28.665"
       style="fill:none;stroke:#231f20;stroke-width:0.5;stroke-linecap:round;stroke-linejoin:round;stroke-miterlimit:4;stroke-dasharray:2.8, 1.8;stroke-dashoffset:0;stroke-opacity:1"
       id="path1074" />
    <path
       d="m 293.788,689.816 c -12.16,0 -35.148,-14.652 -45.956,-25.232 -10.81,-10.578 -31.075,-37.196 -33.101,-58.013 -2.027,-20.816 0.337,-34.807 3.377,-47.092 0,0 2.929,-13.481 14.907,-26.895"
       style="fill:none;stroke:#231f20;stroke-width:0.5;stroke-linecap:round;stroke-linejoin:round;stroke-miterlimit:4;stroke-dasharray:2.8, 1.8;stroke-dashoffset:0;stroke-opacity:1"
       id="path1076" />
    <path
       d="m 248.875,537.657 c -10.679,-4.879 -19.017,-6.052 -30.767,-6.502 -4.429,-0.17 -23.375,13.975 -28.408,23.539"
       style="fill:none;stroke:#231f20;stroke-width:0.5;stroke-linecap:round;stroke-linejoin:round;stroke-miterlimit:4;stroke-dasharray:2.8, 1.8;stroke-dashoffset:0;stroke-opacity:1"
       id="path1078" />
    <path
       d="m 295.429,673.631 c 5.464,12.581 -8.929,26.545 -14.036,32.545 -3.963,4.658 -9.734,6.199 -13.296,5.843 -10.174,-1.02 -32.929,-10.449 -36.393,-12.05"
       style="fill:none;stroke:#231f20;stroke-width:0.5;stroke-linecap:round;stroke-linejoin:round;stroke-miterlimit:4;stroke-dasharray:2.8, 1.8;stroke-dashoffset:0;stroke-opacity:1"
       id="path1080" />
    <path
       d="m 268.097,712.019 c -10.471,-4.437 -30.397,-17.404 -42.558,-31.395 -12.161,-13.992 -16.888,-25.935 -21.279,-32.76 -4.391,-6.825 -15.54,-26.277 -15.54,-48.8 0,-22.522 0.393,-38.265 14.552,-59.739"
       style="fill:none;stroke:#231f20;stroke-width:0.5;stroke-linecap:round;stroke-linejoin:round;stroke-miterlimit:4;stroke-dasharray:2.8, 1.8;stroke-dashoffset:0;stroke-opacity:1"
       id="path1082" />
    <path
       d="m 218.108,531.155 c -8.744,15.132 -20.266,34.125 -22.292,54.942 -1.456,14.948 0.675,33.101 9.795,47.434 9.12,14.333 11.484,20.475 12.158,25.253 0.677,4.777 7.094,9.896 8.107,11.943 1.014,2.048 4.391,8.19 7.431,8.531 3.04,0.342 8.444,0.684 11.148,6.144 2.701,5.46 6.08,8.531 10.807,11.602 4.729,3.071 15.922,12.625 19.06,13.992 7.094,1.706 29.242,1.023 36.334,-2.048 7.094,-3.072 19.929,-11.603 36.479,-10.92 16.55,0.681 20.604,12.114 21.618,16.721 1.067,4.85 -5.405,16.38 -12.848,19.665"
       style="fill:none;stroke:#231f20;stroke-width:0.5;stroke-linecap:round;stroke-linejoin:round;stroke-miterlimit:4;stroke-dasharray:2.8, 1.8;stroke-dashoffset:0;stroke-opacity:1"
       id="path1084" />
    <path
       d="M 193.449,513.818 130.037,474.265"
       style="fill:none;stroke:#231f20;stroke-width:0.5;stroke-linecap:round;stroke-linejoin:round;stroke-miterlimit:4;stroke-dasharray:2.8, 1.8;stroke-dashoffset:0;stroke-opacity:1"
       id="path1086" />
    <path
       d="m 297.77,390.857 -27.896,55.077"
       style="fill:none;stroke:#231f20;stroke-width:0.5;stroke-linecap:round;stroke-linejoin:round;stroke-miterlimit:4;stroke-dasharray:2.8, 1.8;stroke-dashoffset:0;stroke-opacity:1"
       id="path1088" />
    <path
       d="m 548.56,443.568 c 7.655,2.957 21.616,9.783 25.444,10.465 3.828,0.682 26.122,3.186 36.479,0"
       style="fill:none;stroke:#231f20;stroke-width:0.5;stroke-linecap:round;stroke-linejoin:round;stroke-miterlimit:4;stroke-dasharray:2.8, 1.8;stroke-dashoffset:0;stroke-opacity:1"
       id="path1090" />
    <path
       d="m 531.445,443.568 c -7.655,2.957 -21.617,9.783 -25.445,10.465 -3.828,0.682 -26.122,3.186 -36.479,0"
       style="fill:none;stroke:#231f20;stroke-width:0.5;stroke-linecap:round;stroke-linejoin:round;stroke-miterlimit:4;stroke-dasharray:2.8, 1.8;stroke-dashoffset:0;stroke-opacity:1"
       id="path1092" />
  </g>
</svg>
