<?xml version="1.0" encoding="UTF-8" standalone="no"?>
<!-- Created with Inkscape (http://www.inkscape.org/) -->

<svg
   version="1.1"
   id="svg208513"
   width="1440"
   height="1344"
   viewBox="0 0 1440 1344"
   xmlns="http://www.w3.org/2000/svg"
   xmlns:svg="http://www.w3.org/2000/svg">
  <defs
     id="defs208517" />
  <g
     id="g208521">
    <path
       d="m 762.511,528.761 c 0,0 -6.268,-15.67 -12.536,-20.196 -6.267,-4.527 -16.366,-11.84 -20.196,-15.67 0,0 2.786,26.116 32.732,35.866 z M 577.609,406.19 c 1.741,0.348 7.312,2.089 7.312,2.089 1.742,-6.964 5.92,-9.402 10.099,-11.143 4.178,-1.741 21.938,-0.348 39.348,4.875 17.411,5.223 35.17,17.063 40.393,20.893 5.223,3.83 21.241,11.84 25.071,16.715 3.831,4.875 14.277,29.25 14.277,29.25 -5.571,-11.144 -9.054,-32.037 -3.83,-36.215 5.223,-4.179 13.929,0.696 13.929,0.696 -12.884,-12.187 -8.358,-32.035 1.392,-43.526 9.75,-11.492 21.59,-19.153 74.866,-23.331 53.278,-4.179 90.188,11.143 122.224,35.17 32.036,24.027 41.437,59.545 43.526,76.607 2.09,17.062 -5.571,28.902 -4.875,35.866 0.698,6.964 4.528,-0.348 13.233,22.286 8.705,22.634 7.312,35.866 8.357,51.536 1.182,17.733 4.875,66.509 -1.741,101.678 -6.616,35.17 -21.011,56.461 -42.598,82.411 -21.822,26.233 -44.774,49.276 -115.143,84.036 -57.804,28.554 -107.947,35.518 -150.429,38.652 -39.858,2.94 -83.805,1.973 -108.644,-17.759 -24.838,-19.731 -24.374,-44.324 -24.374,-49.446 0,0 0,-17.062 0,-34.125 0,-17.064 10.794,-34.125 21.241,-41.438 10.446,-7.312 23.33,-10.446 30.295,-11.84 6.964,-1.392 18.455,-3.481 25.071,-4.526 6.616,-1.045 18.904,-4.115 21.241,-4.527 2.323,-0.409 5.223,-0.348 9.402,-2.089 4.178,-1.741 16.714,-9.054 22.286,-12.188 5.571,-3.133 6.428,-6.965 26.464,-17.411 20.036,-10.446 32.384,-6.616 32.384,-6.616 0,0 -11.84,-3.83 -6.268,-20.893 5.572,-17.062 19.152,-35.866 21.59,-39.348 0,0 -12.295,4.047 -19.849,-6.268 -2.628,-3.59 -8.705,1.045 -9.401,8.009 -0.697,6.965 -3.483,12.536 -6.617,18.804 -3.133,6.268 -7.661,14.277 -4.527,17.062 3.135,2.786 6.268,13.233 -0.696,19.849 -6.964,6.616 -29.25,21.937 -37.955,27.161 -8.705,5.223 -30.643,13.928 -48.75,16.714 -18.108,2.786 -25.584,4.085 -29.25,4.875 -5.659,1.219 -17.853,3.392 -26.465,1.045 -10.215,-2.786 -20.196,-10.2 -20.196,-20.647 0,10.447 -9.982,17.861 -20.197,20.647 -8.611,2.347 -20.805,0.174 -26.465,-1.045 -3.665,-0.79 -11.142,-2.089 -29.25,-4.875 -18.106,-2.786 -40.044,-11.491 -48.75,-16.714 -8.705,-5.224 -30.991,-20.545 -37.955,-27.161 -6.964,-6.616 -3.83,-17.063 -0.696,-19.849 3.134,-2.785 -1.393,-10.794 -4.527,-17.062 -3.134,-6.268 -5.919,-11.839 -6.617,-18.804 -0.696,-6.964 -6.773,-11.599 -9.401,-8.009 -7.554,10.315 -19.849,6.268 -19.849,6.268 2.438,3.482 16.019,22.286 21.59,39.348 5.572,17.063 -6.267,20.893 -6.267,20.893 0,0 12.347,-3.83 32.383,6.616 20.037,10.446 20.893,14.278 26.464,17.411 5.572,3.134 18.108,10.447 22.286,12.188 4.179,1.741 7.079,1.68 9.402,2.089 2.337,0.412 14.625,3.482 21.241,4.527 6.616,1.045 18.107,3.134 25.071,4.526 6.965,1.394 19.849,4.528 30.295,11.84 10.447,7.313 21.242,24.374 21.242,41.438 0,17.063 0,34.125 0,34.125 0,5.122 0.463,29.715 -24.376,49.446 -24.838,19.732 -68.784,20.699 -108.642,17.759 -42.483,-3.134 -92.626,-10.098 -150.43,-38.652 -70.369,-34.76 -93.321,-57.803 -115.143,-84.036 -21.586,-25.95 -35.982,-47.241 -42.5985,-82.411 -6.616,-35.169 -2.9227,-83.945 -1.741,-101.678 1.0449,-15.67 -0.3477,-28.902 8.3575,-51.536 8.705,-22.634 12.536,-15.322 13.233,-22.286 0.696,-6.964 -6.965,-18.804 -4.875,-35.866 2.089,-17.062 11.491,-52.58 43.526,-76.607 32.036,-24.027 68.947,-39.349 122.224,-35.17 53.277,4.178 65.116,11.839 74.866,23.331 9.75,11.491 14.277,31.339 1.392,43.526 0,0 8.706,-4.875 13.929,-0.696 5.224,4.178 1.741,25.071 -3.83,36.215 0,0 10.446,-24.375 14.277,-29.25 3.83,-4.875 19.848,-12.885 25.072,-16.715 5.222,-3.83 22.981,-15.67 40.392,-20.893 17.411,-5.223 35.17,-6.616 39.349,-4.875 4.179,1.741 8.356,4.179 10.098,11.143 0,0 5.571,-1.741 7.312,-2.089 0,0 8.357,-18.804 37.608,-18.804 29.25,0 37.607,18.804 37.607,18.804 z m -227.385,86.705 c -3.83,3.83 -13.929,11.143 -20.196,15.67 -6.268,4.526 -12.535,20.196 -12.535,20.196 29.946,-9.75 32.731,-35.866 32.731,-35.866"
       style="fill:#ffffff;fill-opacity:1;fill-rule:nonzero;stroke:none;stroke-width:0.1"
       id="path209181" />
    <path
       d="m 762.511,528.761 c 0,0 -6.268,-15.67 -12.536,-20.196 -6.267,-4.527 -16.366,-11.84 -20.196,-15.67 0,0 2.786,26.116 32.732,35.866 z M 577.609,406.19 c 1.741,0.348 7.312,2.089 7.312,2.089 1.742,-6.964 5.92,-9.402 10.099,-11.143 4.178,-1.741 21.938,-0.348 39.348,4.875 17.411,5.223 35.17,17.063 40.393,20.893 5.223,3.83 21.241,11.84 25.071,16.715 3.831,4.875 14.277,29.25 14.277,29.25 -5.571,-11.144 -9.054,-32.037 -3.83,-36.215 5.223,-4.179 13.929,0.696 13.929,0.696 -12.884,-12.187 -8.358,-32.035 1.392,-43.526 9.75,-11.492 21.59,-19.153 74.866,-23.331 53.278,-4.179 90.188,11.143 122.224,35.17 32.036,24.027 41.437,59.545 43.526,76.607 2.09,17.062 -5.571,28.902 -4.875,35.866 0.698,6.964 4.528,-0.348 13.233,22.286 8.705,22.634 7.312,35.866 8.357,51.536 1.182,17.733 4.875,66.509 -1.741,101.678 -6.616,35.17 -21.011,56.461 -42.598,82.411 -21.822,26.233 -44.774,49.276 -115.143,84.036 -57.804,28.554 -107.947,35.518 -150.429,38.652 -39.858,2.94 -83.805,1.973 -108.644,-17.759 -24.838,-19.731 -24.374,-44.324 -24.374,-49.446 0,0 0,-17.062 0,-34.125 0,-17.064 10.794,-34.125 21.241,-41.438 10.446,-7.312 23.33,-10.446 30.295,-11.84 6.964,-1.392 18.455,-3.481 25.071,-4.526 6.616,-1.045 18.904,-4.115 21.241,-4.527 2.323,-0.409 5.223,-0.348 9.402,-2.089 4.178,-1.741 16.714,-9.054 22.286,-12.188 5.571,-3.133 6.428,-6.965 26.464,-17.411 20.036,-10.446 32.384,-6.616 32.384,-6.616 0,0 -11.84,-3.83 -6.268,-20.893 5.572,-17.062 19.152,-35.866 21.59,-39.348 0,0 -12.295,4.047 -19.849,-6.268 -2.628,-3.59 -8.705,1.045 -9.401,8.009 -0.697,6.965 -3.483,12.536 -6.617,18.804 -3.133,6.268 -7.661,14.277 -4.527,17.062 3.135,2.786 6.268,13.233 -0.696,19.849 -6.964,6.616 -29.25,21.937 -37.955,27.161 -8.705,5.223 -30.643,13.928 -48.75,16.714 -18.108,2.786 -25.584,4.085 -29.25,4.875 -5.659,1.219 -17.853,3.392 -26.465,1.045 -10.215,-2.786 -20.196,-10.2 -20.196,-20.647 0,10.447 -9.982,17.861 -20.197,20.647 -8.611,2.347 -20.805,0.174 -26.465,-1.045 -3.665,-0.79 -11.142,-2.089 -29.25,-4.875 -18.106,-2.786 -40.044,-11.491 -48.75,-16.714 -8.705,-5.224 -30.991,-20.545 -37.955,-27.161 -6.964,-6.616 -3.83,-17.063 -0.696,-19.849 3.134,-2.785 -1.393,-10.794 -4.527,-17.062 -3.134,-6.268 -5.919,-11.839 -6.617,-18.804 -0.696,-6.964 -6.773,-11.599 -9.401,-8.009 -7.554,10.315 -19.849,6.268 -19.849,6.268 2.438,3.482 16.019,22.286 21.59,39.348 5.572,17.063 -6.267,20.893 -6.267,20.893 0,0 12.347,-3.83 32.383,6.616 20.037,10.446 20.893,14.278 26.464,17.411 5.572,3.134 18.108,10.447 22.286,12.188 4.179,1.741 7.079,1.68 9.402,2.089 2.337,0.412 14.625,3.482 21.241,4.527 6.616,1.045 18.107,3.134 25.071,4.526 6.965,1.394 19.849,4.528 30.295,11.84 10.447,7.313 21.242,24.374 21.242,41.438 0,17.063 0,34.125 0,34.125 0,5.122 0.463,29.715 -24.376,49.446 -24.838,19.732 -68.784,20.699 -108.642,17.759 -42.483,-3.134 -92.626,-10.098 -150.43,-38.652 -70.369,-34.76 -93.321,-57.803 -115.143,-84.036 -21.586,-25.95 -35.982,-47.241 -42.5985,-82.411 -6.616,-35.169 -2.9227,-83.945 -1.741,-101.678 1.0449,-15.67 -0.3477,-28.902 8.3575,-51.536 8.705,-22.634 12.536,-15.322 13.233,-22.286 0.696,-6.964 -6.965,-18.804 -4.875,-35.866 2.089,-17.062 11.491,-52.58 43.526,-76.607 32.036,-24.027 68.947,-39.349 122.224,-35.17 53.277,4.178 65.116,11.839 74.866,23.331 9.75,11.491 14.277,31.339 1.392,43.526 0,0 8.706,-4.875 13.929,-0.696 5.224,4.178 1.741,25.071 -3.83,36.215 0,0 10.446,-24.375 14.277,-29.25 3.83,-4.875 19.848,-12.885 25.072,-16.715 5.222,-3.83 22.981,-15.67 40.392,-20.893 17.411,-5.223 35.17,-6.616 39.349,-4.875 4.179,1.741 8.356,4.179 10.098,11.143 0,0 5.571,-1.741 7.312,-2.089 0,0 8.357,-18.804 37.608,-18.804 29.25,0 37.607,18.804 37.607,18.804 z m -227.385,86.705 c -3.83,3.83 -13.929,11.143 -20.196,15.67 -6.268,4.526 -12.535,20.196 -12.535,20.196 29.946,-9.75 32.731,-35.866 32.731,-35.866 z"
       style="fill:none;stroke:#231f20;stroke-width:0.75;stroke-linecap:round;stroke-linejoin:round;stroke-miterlimit:4;stroke-dasharray:none;stroke-opacity:1"
       id="path209183" />
    <path
       d="m 720.725,478.619 c 1.741,-0.698 9.402,8.356 5.92,10.446 -3.482,2.089 -7.661,-9.75 -5.92,-10.446 z"
       style="fill:none;stroke:#231f20;stroke-width:0.5;stroke-linecap:butt;stroke-linejoin:miter;stroke-miterlimit:4;stroke-dasharray:none;stroke-opacity:1"
       id="path209185" />
    <path
       d="m 729.779,492.895 -2.413,-4.645"
       style="fill:none;stroke:#231f20;stroke-width:0.75;stroke-linecap:round;stroke-linejoin:round;stroke-miterlimit:4;stroke-dasharray:none;stroke-opacity:1"
       id="path209187" />
    <path
       d="m 720.336,479.353 c 0,0 -4.407,-6.311 -6.227,-10.484"
       style="fill:none;stroke:#231f20;stroke-width:0.75;stroke-linecap:round;stroke-linejoin:round;stroke-miterlimit:4;stroke-dasharray:none;stroke-opacity:1"
       id="path209189" />
    <path
       d="m 767.038,536.422 c 1.044,-2.09 6.616,1.044 5.223,3.482 -1.393,2.437 -6.268,-1.393 -5.223,-3.482 z"
       style="fill:none;stroke:#231f20;stroke-width:0.5;stroke-linecap:butt;stroke-linejoin:miter;stroke-miterlimit:4;stroke-dasharray:none;stroke-opacity:1"
       id="path209191" />
    <path
       d="m 773.654,546.869 c 2.437,-1.045 6.616,5.222 3.83,6.963 -2.785,1.742 -6.268,-5.919 -3.83,-6.963 z"
       style="fill:none;stroke:#231f20;stroke-width:0.5;stroke-linecap:butt;stroke-linejoin:miter;stroke-miterlimit:4;stroke-dasharray:none;stroke-opacity:1"
       id="path209193" />
    <path
       d="m 762.511,528.761 c 2.438,2.089 4.527,7.661 4.527,7.661"
       style="fill:none;stroke:#231f20;stroke-width:0.75;stroke-linecap:round;stroke-linejoin:round;stroke-miterlimit:4;stroke-dasharray:none;stroke-opacity:1"
       id="path209195" />
    <path
       d="m 770.859,540.678 2.795,6.191"
       style="fill:none;stroke:#231f20;stroke-width:0.75;stroke-linecap:round;stroke-linejoin:round;stroke-miterlimit:4;stroke-dasharray:none;stroke-opacity:1"
       id="path209197" />
    <path
       d="m 777.484,553.832 c 4.875,13.929 6.965,25.769 0,43.179 -6.964,17.411 -16.366,23.679 -20.893,27.161 -4.526,3.482 -12.883,8.357 -12.883,8.357"
       style="fill:none;stroke:#231f20;stroke-width:0.75;stroke-linecap:round;stroke-linejoin:round;stroke-miterlimit:4;stroke-dasharray:none;stroke-opacity:1"
       id="path209199" />
    <path
       d="m 701.829,748.792 c 9.732,2.784 20.222,5.405 29.691,7.005 24.723,4.179 39.696,-2.089 39.696,-2.089 6.268,2.089 15.322,-2.437 36.215,-13.232 38.893,-20.095 49.794,-33.777 69.294,-67.206 19.5,-33.429 26.813,-65.116 27.51,-83.223 0.696,-18.107 0.347,-41.786 -10.447,-79.741 -10.794,-37.956 -26.813,-59.893 -46.313,-77.652 -19.5,-17.759 -46.312,-23.33 -51.187,-24.375 -4.875,-1.045 -10.795,-1.393 -10.795,-5.571 0,-4.179 14.973,-3.134 41.089,9.053 26.117,12.188 45.617,35.866 60.938,64.42 15.321,28.554 23.33,68.598 25.071,114.91 1.741,46.313 -15.321,81.483 -33.776,110.733 -18.455,29.25 -54.321,53.277 -77.304,63.375 -22.982,10.098 -71.732,25.072 -91.929,31.34 -20.196,6.267 -50.143,16.017 -58.5,18.803 -8.357,2.785 -19.848,3.134 -14.973,-9.053 4.875,-12.188 14.973,-33.081 22.634,-43.179 7.661,-10.099 18.456,-17.411 27.857,-15.67 9.402,1.741 12.011,1.661 15.234,1.352"
       style="fill:none;stroke:#231f20;stroke-width:0.5;stroke-linecap:butt;stroke-linejoin:miter;stroke-miterlimit:4;stroke-dasharray:none;stroke-opacity:1"
       id="path209201" />
    <path
       d="m 378.174,748.792 c -9.732,2.784 -20.222,5.405 -29.691,7.005 -24.723,4.179 -39.696,-2.089 -39.696,-2.089 -6.268,2.089 -15.322,-2.437 -36.214,-13.232 -38.893,-20.095 -49.795,-33.777 -69.295,-67.206 -19.5,-33.429 -26.813,-65.116 -27.509,-83.223 -0.696,-18.107 -0.349,-41.786 10.446,-79.741 10.795,-37.956 26.813,-59.893 46.313,-77.652 19.5,-17.759 46.312,-23.33 51.187,-24.375 4.875,-1.045 10.795,-1.393 10.795,-5.571 0,-4.179 -14.973,-3.134 -41.09,9.053 -26.116,12.188 -45.616,35.866 -60.937,64.42 -15.321,28.554 -23.33,68.598 -25.071,114.91 -1.742,46.313 15.321,81.483 33.776,110.733 18.456,29.25 54.322,53.277 77.304,63.375 22.982,10.098 71.732,25.072 91.929,31.34 20.197,6.267 50.143,16.017 58.5,18.803 8.357,2.785 19.848,3.134 14.973,-9.053 -4.875,-12.188 -14.973,-33.081 -22.634,-43.179 -7.661,-10.099 -18.455,-17.411 -27.857,-15.67 -9.402,1.741 -12.011,1.661 -15.233,1.352"
       style="fill:none;stroke:#231f20;stroke-width:0.5;stroke-linecap:butt;stroke-linejoin:miter;stroke-miterlimit:4;stroke-dasharray:none;stroke-opacity:1"
       id="path209203" />
    <path
       d="m 651.55,774.322 c 4.366,-7.178 22.514,-17.48 36.791,-17.132 14.277,0.349 27.858,5.92 43.875,7.312 16.018,1.394 34.822,-0.347 50.143,-4.875"
       style="fill:none;stroke:#231f20;stroke-width:0.5;stroke-linecap:butt;stroke-linejoin:miter;stroke-miterlimit:4;stroke-dasharray:none;stroke-opacity:1"
       id="path209205" />
    <path
       d="m 691.126,782.958 c 17.412,-2.437 69.644,-13.581 107.251,-29.598 37.607,-16.018 54.669,-32.384 71.036,-56.759 16.366,-24.375 32.036,-53.974 36.911,-97.5 4.875,-43.527 -7.661,-96.107 -19.152,-117.001 -11.491,-20.892 -32.732,-69.991 -101.679,-79.392"
       style="fill:none;stroke:#231f20;stroke-width:0.75;stroke-linecap:round;stroke-linejoin:round;stroke-miterlimit:4;stroke-dasharray:none;stroke-opacity:1"
       id="path209207" />
    <path
       d="m 719.68,663.52 c -0.545,-2.308 -2.702,-4.178 -4.817,-4.178 -2.115,0 -3.389,1.87 -2.843,4.178 0.545,2.308 2.702,4.179 4.817,4.179 2.116,0 3.389,-1.871 2.843,-4.179"
       style="fill:#ffffff;fill-opacity:1;fill-rule:nonzero;stroke:none;stroke-width:0.1"
       id="path209209" />
    <path
       d="m 719.68,663.52 c -0.545,-2.308 -2.702,-4.178 -4.817,-4.178 -2.115,0 -3.389,1.87 -2.843,4.178 0.545,2.308 2.702,4.179 4.817,4.179 2.116,0 3.389,-1.871 2.843,-4.179 z"
       style="fill:none;stroke:#231f20;stroke-width:0.5;stroke-linecap:butt;stroke-linejoin:miter;stroke-miterlimit:4;stroke-dasharray:none;stroke-opacity:1"
       id="path209211" />
    <path
       d="m 702.7,670.05 c 0.01,-0.255 0.008,-0.493 -0.008,-0.716 0,0 -0.424,0.106 -6.227,4.981 -5.802,4.875 -21.356,19.732 -54.785,30.875 -33.428,11.142 -54.18,14.5 -68.482,11.375 -20.196,-4.411 -16.482,-28.786 -20.66,-28.786"
       style="fill:none;stroke:#231f20;stroke-width:0.5;stroke-linecap:butt;stroke-linejoin:miter;stroke-miterlimit:4;stroke-dasharray:none;stroke-opacity:1"
       id="path209213" />
    <path
       d="m 552.538,687.779 c 2.785,-0.464 9.982,6.733 14.857,9.286 4.875,2.554 20.661,9.286 45.268,4.179 24.606,-5.108 43.874,-13.233 58.035,-20.429 14.161,-7.196 25.769,-13.233 31.108,-22.983 5.339,-9.75 11.839,-26.232 9.518,-37.838 -2.322,-11.607 -7.95,-20.794 -19.557,-28.454 -13.005,-8.585 -67.497,-15.421 -86.997,1.525"
       style="fill:none;stroke:#231f20;stroke-width:0.5;stroke-linecap:butt;stroke-linejoin:miter;stroke-miterlimit:4;stroke-dasharray:none;stroke-opacity:1"
       id="path209215" />
    <path
       d="m 572.039,681.739 c 8.123,-1.157 29.946,-4.87 55.945,-26.692 26,-21.821 33.892,-44.571 35.982,-51.304 2.089,-6.732 2.695,-17.247 7.732,-18.722"
       style="fill:none;stroke:#231f20;stroke-width:0.5;stroke-linecap:butt;stroke-linejoin:miter;stroke-miterlimit:4;stroke-dasharray:none;stroke-opacity:1"
       id="path209217" />
    <path
       d="m 724.208,433.35 c 6.382,4.875 22.168,17.412 37.722,21.126 15.554,3.713 42.715,9.284 50.376,17.642 7.66,8.357 19.498,23.679 30.41,46.197 10.911,22.519 16.019,36.446 15.786,63.375 -0.232,26.928 -10.446,55.251 -26.463,74.286 -16.019,19.035 -32.965,32.036 -49.68,37.143 -16.714,5.107 -24.375,5.339 -33.429,3.713 -9.053,-1.624 -13.231,-1.392 -20.544,-4.062"
       style="fill:none;stroke:#231f20;stroke-width:0.5;stroke-linecap:butt;stroke-linejoin:miter;stroke-miterlimit:4;stroke-dasharray:none;stroke-opacity:1"
       id="path209219" />
    <path
       d="m 711.647,622.124 c -1.005,-5.091 0.373,-12.113 5.248,-11.416 4.875,0.696 7.718,3.569 11.665,9.373 3.947,5.803 4.755,5.733 4.544,12.602"
       style="fill:none;stroke:#231f20;stroke-width:0.5;stroke-linecap:butt;stroke-linejoin:miter;stroke-miterlimit:4;stroke-dasharray:none;stroke-opacity:1"
       id="path209221" />
    <path
       d="m 720.84,588.654 c 3.525,0.431 7.51,-0.355 7.662,-5.108 0.141,-4.462 -0.697,-7.66 -4.876,-8.357 -3.669,-0.61 -7.195,0.931 -7.427,6.269 -0.234,5.339 2.098,6.884 4.641,7.196 z"
       style="fill:none;stroke:#231f20;stroke-width:0.5;stroke-linecap:butt;stroke-linejoin:miter;stroke-miterlimit:4;stroke-dasharray:none;stroke-opacity:1"
       id="path209223" />
    <path
       d="m 736.824,510.214 c 1.165,1.623 0.731,7.637 -6.234,5.547 -6.964,-2.089 -18.802,-17.412 -22.981,-31.107 -4.179,-13.696 -7.429,-25.769 -13.696,-32.733 -6.268,-6.965 -17.644,-14.856 -32.037,-21.124 -14.391,-6.267 -36.678,-16.018 -44.803,-19.036 -8.125,-3.018 -19.268,-6.732 -23.447,-4.875 -3.354,1.49 -8.356,5.108 -8.705,1.393"
       style="fill:none;stroke:#231f20;stroke-width:0.5;stroke-linecap:butt;stroke-linejoin:miter;stroke-miterlimit:4;stroke-dasharray:none;stroke-opacity:1"
       id="path209225" />
    <path
       d="m 543.035,525.04 c 0,0 0.217,-9.975 1.145,-9.975 0.928,0 7.892,5.339 12.767,11.607 4.875,6.268 7.429,18.107 5.805,23.678 0,0 -1.858,-2.784 -4.643,-9.286 -2.786,-6.499 -7.628,-16.031 -15.074,-16.024 z"
       style="fill:none;stroke:#231f20;stroke-width:0.5;stroke-linecap:butt;stroke-linejoin:miter;stroke-miterlimit:4;stroke-dasharray:none;stroke-opacity:1"
       id="path209227" />
    <path
       d="m 540.002,459.597 c 0,0 12.072,9.273 15.09,10.897"
       style="fill:none;stroke:#231f20;stroke-width:0.2;stroke-linecap:butt;stroke-linejoin:miter;stroke-miterlimit:4;stroke-dasharray:none;stroke-opacity:1"
       id="path209229" />
    <path
       d="m 541.33,459.356 c 4.007,-1.064 34.074,-16.055 37.556,-21.626"
       style="fill:none;stroke:#231f20;stroke-width:0.2;stroke-linecap:butt;stroke-linejoin:miter;stroke-miterlimit:4;stroke-dasharray:none;stroke-opacity:1"
       id="path209231" />
    <path
       d="m 583.477,407.834 c 0,0 15.721,15.765 19.203,19.712 3.483,3.948 20.892,24.61 26.232,30.412 5.34,5.802 17.643,17.642 18.34,18.571 0.696,0.929 -16.25,1.391 -25.536,-4.411 -9.286,-5.803 -31.34,-23.91 -36.679,-28.786 -5.339,-4.874 -12.767,-9.75 -9.518,-18.106 3.25,-8.357 7.958,-17.392 7.958,-17.392 z"
       style="fill:none;stroke:#231f20;stroke-width:0.5;stroke-linecap:butt;stroke-linejoin:miter;stroke-miterlimit:4;stroke-dasharray:none;stroke-opacity:1"
       id="path209233" />
    <path
       d="m 578.47,418.232 c 0,0 47.847,53.717 56.457,58.213"
       style="fill:none;stroke:#231f20;stroke-width:0.5;stroke-linecap:butt;stroke-linejoin:miter;stroke-miterlimit:4;stroke-dasharray:none;stroke-opacity:1"
       id="path209235" />
    <path
       d="m 359.278,478.619 c -1.741,-0.698 -9.402,8.356 -5.92,10.446 3.482,2.089 7.661,-9.75 5.92,-10.446 z"
       style="fill:none;stroke:#231f20;stroke-width:0.5;stroke-linecap:butt;stroke-linejoin:miter;stroke-miterlimit:4;stroke-dasharray:none;stroke-opacity:1"
       id="path209237" />
    <path
       d="m 350.224,492.895 2.413,-4.645"
       style="fill:none;stroke:#231f20;stroke-width:0.75;stroke-linecap:round;stroke-linejoin:round;stroke-miterlimit:4;stroke-dasharray:none;stroke-opacity:1"
       id="path209239" />
    <path
       d="m 359.668,479.353 c 0,0 4.406,-6.311 6.226,-10.484"
       style="fill:none;stroke:#231f20;stroke-width:0.75;stroke-linecap:round;stroke-linejoin:round;stroke-miterlimit:4;stroke-dasharray:none;stroke-opacity:1"
       id="path209241" />
    <path
       d="m 312.965,536.422 c -1.045,-2.09 -6.616,1.044 -5.222,3.482 1.392,2.437 6.267,-1.393 5.222,-3.482 z"
       style="fill:none;stroke:#231f20;stroke-width:0.5;stroke-linecap:butt;stroke-linejoin:miter;stroke-miterlimit:4;stroke-dasharray:none;stroke-opacity:1"
       id="path209243" />
    <path
       d="m 306.349,546.869 c -2.437,-1.045 -6.616,5.222 -3.83,6.963 2.786,1.742 6.268,-5.919 3.83,-6.963 z"
       style="fill:none;stroke:#231f20;stroke-width:0.5;stroke-linecap:butt;stroke-linejoin:miter;stroke-miterlimit:4;stroke-dasharray:none;stroke-opacity:1"
       id="path209245" />
    <path
       d="m 317.493,528.761 c -2.438,2.089 -4.528,7.661 -4.528,7.661"
       style="fill:none;stroke:#231f20;stroke-width:0.75;stroke-linecap:round;stroke-linejoin:round;stroke-miterlimit:4;stroke-dasharray:none;stroke-opacity:1"
       id="path209247" />
    <path
       d="m 309.145,540.678 -2.796,6.191"
       style="fill:none;stroke:#231f20;stroke-width:0.75;stroke-linecap:round;stroke-linejoin:round;stroke-miterlimit:4;stroke-dasharray:none;stroke-opacity:1"
       id="path209249" />
    <path
       d="m 302.519,553.832 c -4.875,13.929 -6.965,25.769 0,43.179 6.964,17.411 16.366,23.679 20.893,27.161 4.527,3.482 12.883,8.357 12.883,8.357"
       style="fill:none;stroke:#231f20;stroke-width:0.75;stroke-linecap:round;stroke-linejoin:round;stroke-miterlimit:4;stroke-dasharray:none;stroke-opacity:1"
       id="path209251" />
    <path
       d="m 428.453,774.322 c -4.367,-7.178 -22.514,-17.48 -36.791,-17.132 -14.277,0.349 -27.857,5.92 -43.875,7.312 -16.018,1.394 -34.822,-0.347 -50.143,-4.875"
       style="fill:none;stroke:#231f20;stroke-width:0.5;stroke-linecap:butt;stroke-linejoin:miter;stroke-miterlimit:4;stroke-dasharray:none;stroke-opacity:1"
       id="path209253" />
    <path
       d="m 388.876,782.958 c -17.411,-2.437 -69.643,-13.581 -107.25,-29.598 -37.607,-16.018 -54.669,-32.384 -71.036,-56.759 -16.366,-24.375 -32.036,-53.974 -36.911,-97.5 -4.875,-43.527 7.661,-96.107 19.153,-117.001 11.491,-20.892 32.731,-69.991 101.678,-79.392"
       style="fill:none;stroke:#231f20;stroke-width:0.75;stroke-linecap:round;stroke-linejoin:round;stroke-miterlimit:4;stroke-dasharray:none;stroke-opacity:1"
       id="path209255" />
    <path
       d="m 360.323,663.52 c 0.545,-2.308 2.703,-4.178 4.817,-4.178 2.115,0 3.389,1.87 2.843,4.178 -0.545,2.308 -2.702,4.179 -4.817,4.179 -2.116,0 -3.389,-1.871 -2.843,-4.179"
       style="fill:#ffffff;fill-opacity:1;fill-rule:nonzero;stroke:none;stroke-width:0.1"
       id="path209257" />
    <path
       d="m 360.323,663.52 c 0.545,-2.308 2.703,-4.178 4.817,-4.178 2.115,0 3.389,1.87 2.843,4.178 -0.545,2.308 -2.702,4.179 -4.817,4.179 -2.116,0 -3.389,-1.871 -2.843,-4.179 z"
       style="fill:none;stroke:#231f20;stroke-width:0.5;stroke-linecap:butt;stroke-linejoin:miter;stroke-miterlimit:4;stroke-dasharray:none;stroke-opacity:1"
       id="path209259" />
    <path
       d="m 377.312,669.334 c 0,0 0.423,0.106 6.226,4.981 5.802,4.875 21.356,19.732 54.785,30.875 33.428,11.142 54.179,14.5 68.482,11.375 20.197,-4.411 16.483,-28.786 20.661,-28.786"
       style="fill:none;stroke:#231f20;stroke-width:0.5;stroke-linecap:butt;stroke-linejoin:miter;stroke-miterlimit:4;stroke-dasharray:none;stroke-opacity:1"
       id="path209261" />
    <path
       d="m 527.466,687.779 c -2.786,-0.464 -9.983,6.733 -14.858,9.286 -4.875,2.554 -20.661,9.286 -45.268,4.179 -24.606,-5.108 -43.874,-13.233 -58.035,-20.429 -14.161,-7.196 -25.769,-13.233 -31.108,-22.983 -5.338,-9.75 -11.839,-26.232 -9.517,-37.838 2.321,-11.607 7.949,-20.794 19.556,-28.454 13.005,-8.585 67.498,-15.421 86.998,1.525"
       style="fill:none;stroke:#231f20;stroke-width:0.5;stroke-linecap:butt;stroke-linejoin:miter;stroke-miterlimit:4;stroke-dasharray:none;stroke-opacity:1"
       id="path209263" />
    <path
       d="m 441.582,582.913 c 1.619,2.616 4.866,10.383 8.347,20.133 3.483,9.75 15.555,23.679 34.822,41.788 19.267,18.106 48.517,14.624 55.251,14.624 6.733,0 35.983,3.482 55.25,-14.624 19.268,-18.109 31.339,-32.038 34.822,-41.788 3.482,-9.75 6.728,-17.517 8.347,-20.133"
       style="fill:none;stroke:#231f20;stroke-width:0.5;stroke-linecap:butt;stroke-linejoin:miter;stroke-miterlimit:4;stroke-dasharray:none;stroke-opacity:1"
       id="path209265" />
    <path
       d="m 379.079,599.137 c 0.228,25.764 19.315,45.697 44.386,61.945 25.072,16.25 49.679,23.448 62.679,24.608 12.999,1.16 13.929,-1.393 15.786,-2.321 1.859,-0.929 9.054,-2.322 15.321,-3.25 6.267,-0.93 19.268,-2.322 22.751,-2.322 3.482,0 16.483,1.392 22.75,2.322 6.267,0.928 13.462,2.321 15.321,3.25 1.858,0.928 2.787,3.481 15.786,2.321 13,-1.16 37.607,-8.358 62.679,-24.608 25.072,-16.248 44.158,-36.181 44.386,-61.945"
       style="fill:none;stroke:#231f20;stroke-width:0.5;stroke-linecap:butt;stroke-linejoin:miter;stroke-miterlimit:4;stroke-dasharray:none;stroke-opacity:1"
       id="path209267" />
    <path
       d="m 507.964,681.739 c -8.123,-1.157 -29.946,-4.87 -55.945,-26.692 -25.999,-21.821 -33.893,-44.571 -35.982,-51.304 -2.089,-6.732 -2.695,-17.247 -7.732,-18.722"
       style="fill:none;stroke:#231f20;stroke-width:0.5;stroke-linecap:butt;stroke-linejoin:miter;stroke-miterlimit:4;stroke-dasharray:none;stroke-opacity:1"
       id="path209269" />
    <path
       d="m 517.251,550.35 c -3.017,5.108 -10.911,20.43 -10.911,20.43 -4.642,7.428 -18.107,11.374 -26.231,16.481 -8.125,5.108 -7.197,16.715 -6.269,22.75 0.93,6.036 10.448,22.982 22.286,32.733 11.839,9.75 38.769,9.75 43.876,9.75 5.106,0 32.036,0 43.874,-9.75 11.84,-9.751 21.358,-26.697 22.287,-32.733 0.928,-6.035 1.856,-17.642 -6.268,-22.75 -8.125,-5.107 -21.59,-9.053 -26.232,-16.481 0,0 -7.894,-15.322 -10.911,-20.43"
       style="fill:none;stroke:#231f20;stroke-width:0.5;stroke-linecap:butt;stroke-linejoin:miter;stroke-miterlimit:4;stroke-dasharray:none;stroke-opacity:1"
       id="path209271" />
    <path
       d="m 541.394,602.582 c -0.465,3.019 0.697,4.643 0.697,4.643 -0.697,0.931 -2.089,4.179 -2.089,4.179 0,0 -1.393,-3.248 -2.089,-4.179 0,0 1.161,-1.624 0.696,-4.643 -0.466,-3.017 -2.09,-15.785 1.393,-15.785 3.482,0 1.858,12.768 1.392,15.785"
       style="fill:#706d6e;fill-opacity:1;fill-rule:nonzero;stroke:none;stroke-width:0.1"
       id="path209273" />
    <path
       d="m 541.394,602.582 c -0.465,3.019 0.697,4.643 0.697,4.643 -0.697,0.931 -2.089,4.179 -2.089,4.179 0,0 -1.393,-3.248 -2.089,-4.179 0,0 1.161,-1.624 0.696,-4.643 -0.466,-3.017 -2.09,-15.785 1.393,-15.785 3.482,0 1.858,12.768 1.392,15.785 z"
       style="fill:none;stroke:#231f20;stroke-width:0.75;stroke-linecap:round;stroke-linejoin:round;stroke-miterlimit:4;stroke-dasharray:none;stroke-opacity:1"
       id="path209275" />
    <path
       d="m 355.795,433.35 c -6.382,4.875 -22.168,17.412 -37.722,21.126 -15.554,3.713 -42.715,9.284 -50.375,17.642 -7.661,8.357 -19.499,23.679 -30.41,46.197 -10.912,22.519 -16.02,36.446 -15.788,63.375 0.233,26.928 10.447,55.251 26.464,74.286 16.019,19.035 32.965,32.036 49.68,37.143 16.714,5.107 24.375,5.339 33.429,3.713 9.053,-1.624 13.232,-1.392 20.545,-4.062"
       style="fill:none;stroke:#231f20;stroke-width:0.5;stroke-linecap:butt;stroke-linejoin:miter;stroke-miterlimit:4;stroke-dasharray:none;stroke-opacity:1"
       id="path209277" />
    <path
       d="m 368.356,622.124 c 1.005,-5.091 -0.373,-12.113 -5.248,-11.416 -4.875,0.696 -7.718,3.569 -11.665,9.373 -3.947,5.803 -4.755,5.733 -4.544,12.602"
       style="fill:none;stroke:#231f20;stroke-width:0.5;stroke-linecap:butt;stroke-linejoin:miter;stroke-miterlimit:4;stroke-dasharray:none;stroke-opacity:1"
       id="path209279" />
    <path
       d="m 359.163,588.654 c -3.525,0.431 -7.51,-0.355 -7.662,-5.108 -0.141,-4.462 0.697,-7.66 4.875,-8.357 3.67,-0.61 7.196,0.931 7.429,6.269 0.233,5.339 -2.099,6.884 -4.642,7.196 z"
       style="fill:none;stroke:#231f20;stroke-width:0.5;stroke-linecap:butt;stroke-linejoin:miter;stroke-miterlimit:4;stroke-dasharray:none;stroke-opacity:1"
       id="path209281" />
    <path
       d="m 343.18,510.214 c -1.166,1.623 -0.732,7.637 6.233,5.547 6.963,-2.089 18.803,-17.412 22.982,-31.107 4.178,-13.696 7.428,-25.769 13.695,-32.733 6.269,-6.965 17.644,-14.856 32.036,-21.124 14.393,-6.267 36.68,-16.018 44.804,-19.036 8.125,-3.018 19.268,-6.732 23.446,-4.875 3.355,1.49 8.358,5.108 8.706,1.393"
       style="fill:none;stroke:#231f20;stroke-width:0.5;stroke-linecap:butt;stroke-linejoin:miter;stroke-miterlimit:4;stroke-dasharray:none;stroke-opacity:1"
       id="path209283" />
    <path
       d="m 536.968,525.04 c 0,0 -0.218,-9.975 -1.145,-9.975 -0.928,0 -7.892,5.339 -12.768,11.607 -4.875,6.268 -7.429,18.107 -5.804,23.678 0,0 1.858,-2.784 4.643,-9.286 2.786,-6.499 7.629,-16.031 15.074,-16.024 z"
       style="fill:none;stroke:#231f20;stroke-width:0.5;stroke-linecap:butt;stroke-linejoin:miter;stroke-miterlimit:4;stroke-dasharray:none;stroke-opacity:1"
       id="path209285" />
    <path
       d="m 515.626,511.814 c 8.125,1.624 24.376,-5.571 24.376,-5.571 0,0 9.518,-3.945 15.09,-7.892"
       style="fill:none;stroke:#231f20;stroke-width:0.2;stroke-linecap:butt;stroke-linejoin:miter;stroke-miterlimit:4;stroke-dasharray:none;stroke-opacity:1"
       id="path209287" />
    <path
       d="m 524.912,498.351 c 5.571,3.947 15.09,7.892 15.09,7.892 0,0 16.25,7.195 24.374,5.571"
       style="fill:none;stroke:#231f20;stroke-width:0.2;stroke-linecap:butt;stroke-linejoin:miter;stroke-miterlimit:4;stroke-dasharray:none;stroke-opacity:1"
       id="path209289" />
    <path
       d="m 540.002,459.597 c 0,0 -12.072,9.273 -15.09,10.897"
       style="fill:none;stroke:#231f20;stroke-width:0.2;stroke-linecap:butt;stroke-linejoin:miter;stroke-miterlimit:4;stroke-dasharray:none;stroke-opacity:1"
       id="path209291" />
    <path
       d="m 538.674,459.356 c -4.008,-1.064 -34.075,-16.055 -37.557,-21.626"
       style="fill:none;stroke:#231f20;stroke-width:0.2;stroke-linecap:butt;stroke-linejoin:miter;stroke-miterlimit:4;stroke-dasharray:none;stroke-opacity:1"
       id="path209293" />
    <path
       d="m 496.527,407.834 c 0,0 -15.722,15.765 -19.204,19.712 -3.483,3.948 -20.892,24.61 -26.232,30.412 -5.341,5.802 -17.643,17.642 -18.34,18.571 -0.696,0.929 16.249,1.391 25.536,-4.411 9.286,-5.803 31.34,-23.91 36.679,-28.786 5.339,-4.874 12.767,-9.75 9.518,-18.106 -3.25,-8.357 -7.957,-17.392 -7.957,-17.392 z"
       style="fill:none;stroke:#231f20;stroke-width:0.5;stroke-linecap:butt;stroke-linejoin:miter;stroke-miterlimit:4;stroke-dasharray:none;stroke-opacity:1"
       id="path209295" />
    <path
       d="m 501.534,418.232 c 0,0 -47.848,53.717 -56.457,58.213"
       style="fill:none;stroke:#231f20;stroke-width:0.5;stroke-linecap:butt;stroke-linejoin:miter;stroke-miterlimit:4;stroke-dasharray:none;stroke-opacity:1"
       id="path209297" />
    <path
       d="m 540.002,685.806 c 0,0 0,26.362 0,33.327"
       style="fill:none;stroke:#231f20;stroke-width:0.75;stroke-linecap:round;stroke-linejoin:round;stroke-miterlimit:4;stroke-dasharray:none;stroke-opacity:1"
       id="path209299" />
    <path
       d="m 573.663,570.78 c 5.339,-1.393 20.893,-8.822 19.5,-29.483 -1.393,-20.661 -21.591,-29.25 -45.966,-24.375"
       style="fill:none;stroke:#231f20;stroke-width:0.2;stroke-linecap:butt;stroke-linejoin:miter;stroke-miterlimit:4;stroke-dasharray:none;stroke-opacity:1"
       id="path209301" />
    <path
       d="m 506.34,570.78 c -5.339,-1.393 -20.892,-8.822 -19.5,-29.483 1.393,-20.661 21.591,-29.25 45.966,-24.375"
       style="fill:none;stroke:#231f20;stroke-width:0.2;stroke-linecap:butt;stroke-linejoin:miter;stroke-miterlimit:4;stroke-dasharray:none;stroke-opacity:1"
       id="path209303" />
    <path
       d="m 756.591,678.262 c 9.279,-1.444 19.499,-3.018 23.447,-4.178 3.947,-1.162 19.267,-8.59 23.678,-11.608 4.411,-3.018 8.588,-6.268 11.839,-12.536 3.251,-6.268 7.429,-9.751 11.143,-12.999 3.715,-3.251 11.143,-16.715 15.322,-29.716 4.178,-12.999 4.178,-46.661 -1.161,-60.124 -5.339,-13.465 -5.107,-5.804 -11.143,-23.447 -4.134,-12.086 -10.214,-18.339 -19.732,-26.696 -9.518,-8.357 -14.392,-13.698 -27.392,-17.179 -13.001,-3.483 -23.91,-6.965 -32.732,-11.84 -8.822,-4.875 -12.072,-8.588 -16.251,-12.07 -4.179,-3.483 -8.588,-4.876 -11.607,-2.555 -3.018,2.322 1.16,8.589 6.5,15.321 5.339,6.734 8.589,10.681 14.161,13.697 5.571,3.018 13.927,5.803 22.75,16.25 8.822,10.447 11.607,16.482 12.767,19.5 1.161,3.018 6.27,8.59 10.68,14.858 4.409,6.268 11.142,11.841 13.696,28.321 2.553,16.483 -2.554,34.359 -9.287,47.357 -6.731,13.001 -17.177,26.233 -27.392,29.716 -10.214,3.482 -13.465,3.713 -15.089,9.981 -1.624,6.269 -1.161,14.161 -5.339,19.036 -4.179,4.875 -8.991,9.11 -7.661,12.768 0.928,2.553 8.393,-0.238 18.803,-1.857 z m 5.339,-9.75 c -5.845,-2.729 -9.285,-15.322 1.859,-22.751 11.142,-7.427 24.14,-14.161 32.963,-31.106 8.822,-16.947 16.248,-45.268 5.571,-66.626 -10.678,-21.357 -13.696,-23.679 -16.482,-27.393 -2.786,-3.714 -4.178,-7.66 -4.178,-10.678 0,-3.019 0,-5.572 -4.631,-9.512 -3.246,-2.762 -5.008,-8.49 -3.263,-10.452 1.858,-2.089 6.965,-0.929 10.68,2.552 3.715,3.483 10.214,7.661 14.625,9.518 4.411,1.858 13.929,6.501 19.036,14.858 5.106,8.357 13.001,19.501 17.41,34.589 4.41,15.09 4.876,27.392 2.554,43.644 -2.322,16.249 -11.838,32.266 -17.875,39 -6.036,6.731 -11.608,13.232 -15.554,18.339 -3.946,5.107 -15.09,11.375 -21.822,13.464 -6.732,2.089 -17.41,4.179 -20.893,2.554"
       style="fill:#b2b1b1;fill-opacity:1;fill-rule:nonzero;stroke:none;stroke-width:0.1"
       id="path209305" />
    <path
       d="m 756.591,678.262 c 9.279,-1.444 19.499,-3.018 23.447,-4.178 3.947,-1.162 19.267,-8.59 23.678,-11.608 4.411,-3.018 8.588,-6.268 11.839,-12.536 3.251,-6.268 7.429,-9.751 11.143,-12.999 3.715,-3.251 11.143,-16.715 15.322,-29.716 4.178,-12.999 4.178,-46.661 -1.161,-60.124 -5.339,-13.465 -5.107,-5.804 -11.143,-23.447 -4.134,-12.086 -10.214,-18.339 -19.732,-26.696 -9.518,-8.357 -14.392,-13.698 -27.392,-17.179 -13.001,-3.483 -23.91,-6.965 -32.732,-11.84 -8.822,-4.875 -12.072,-8.588 -16.251,-12.07 -4.179,-3.483 -8.588,-4.876 -11.607,-2.555 -3.018,2.322 1.16,8.589 6.5,15.321 5.339,6.734 8.589,10.681 14.161,13.697 5.571,3.018 13.927,5.803 22.75,16.25 8.822,10.447 11.607,16.482 12.767,19.5 1.161,3.018 6.27,8.59 10.68,14.858 4.409,6.268 11.142,11.841 13.696,28.321 2.553,16.483 -2.554,34.359 -9.287,47.357 -6.731,13.001 -17.177,26.233 -27.392,29.716 -10.214,3.482 -13.465,3.713 -15.089,9.981 -1.624,6.269 -1.161,14.161 -5.339,19.036 -4.179,4.875 -8.991,9.11 -7.661,12.768 0.928,2.553 8.393,-0.238 18.803,-1.857 z m 5.339,-9.75 c -5.845,-2.729 -9.285,-15.322 1.859,-22.751 11.142,-7.427 24.14,-14.161 32.963,-31.106 8.822,-16.947 16.248,-45.268 5.571,-66.626 -10.678,-21.357 -13.696,-23.679 -16.482,-27.393 -2.786,-3.714 -4.178,-7.66 -4.178,-10.678 0,-3.019 0,-5.572 -4.631,-9.512 -3.246,-2.762 -5.008,-8.49 -3.263,-10.452 1.858,-2.089 6.965,-0.929 10.68,2.552 3.715,3.483 10.214,7.661 14.625,9.518 4.411,1.858 13.929,6.501 19.036,14.858 5.106,8.357 13.001,19.501 17.41,34.589 4.41,15.09 4.876,27.392 2.554,43.644 -2.322,16.249 -11.838,32.266 -17.875,39 -6.036,6.731 -11.608,13.232 -15.554,18.339 -3.946,5.107 -15.09,11.375 -21.822,13.464 -6.732,2.089 -17.41,4.179 -20.893,2.554 z"
       style="fill:none;stroke:#231f20;stroke-width:0.5;stroke-linecap:round;stroke-linejoin:round;stroke-miterlimit:4;stroke-dasharray:2.8, 1.8;stroke-dashoffset:0;stroke-opacity:1"
       id="path209307" />
    <path
       d="m 849.088,426.256 38.846,-45.627"
       style="fill:none;stroke:#231f20;stroke-width:0.5;stroke-linecap:round;stroke-linejoin:round;stroke-miterlimit:4;stroke-dasharray:2.8, 1.8;stroke-dashoffset:0;stroke-opacity:1"
       id="path209309" />
    <path
       d="M 901.922,513.595 965.73,493.567"
       style="fill:none;stroke:#231f20;stroke-width:0.5;stroke-linecap:round;stroke-linejoin:round;stroke-miterlimit:4;stroke-dasharray:2.8, 1.8;stroke-dashoffset:0;stroke-opacity:1"
       id="path209311" />
    <path
       d="M 908.12,543.084 970.915,527.98"
       style="fill:none;stroke:#231f20;stroke-width:0.5;stroke-linecap:round;stroke-linejoin:round;stroke-miterlimit:4;stroke-dasharray:2.8, 1.8;stroke-dashoffset:0;stroke-opacity:1"
       id="path209313" />
    <path
       d="m 911.746,575.458 69.699,-12.211"
       style="fill:none;stroke:#231f20;stroke-width:0.5;stroke-linecap:round;stroke-linejoin:round;stroke-miterlimit:4;stroke-dasharray:2.8, 1.8;stroke-dashoffset:0;stroke-opacity:1"
       id="path209315" />
    <path
       d="m 912.483,606.408 71.452,-2.798"
       style="fill:none;stroke:#231f20;stroke-width:0.5;stroke-linecap:round;stroke-linejoin:round;stroke-miterlimit:4;stroke-dasharray:2.8, 1.8;stroke-dashoffset:0;stroke-opacity:1"
       id="path209317" />
    <path
       d="m 908.834,633.318 76.192,4.086"
       style="fill:none;stroke:#231f20;stroke-width:0.5;stroke-linecap:round;stroke-linejoin:round;stroke-miterlimit:4;stroke-dasharray:2.8, 1.8;stroke-dashoffset:0;stroke-opacity:1"
       id="path209319" />
    <path
       d="m 890.386,682.019 81.51,38.806"
       style="fill:none;stroke:#231f20;stroke-width:0.5;stroke-linecap:round;stroke-linejoin:round;stroke-miterlimit:4;stroke-dasharray:2.8, 1.8;stroke-dashoffset:0;stroke-opacity:1"
       id="path209321" />
    <path
       d="m 880.556,699.039 77.121,48.048"
       style="fill:none;stroke:#231f20;stroke-width:0.5;stroke-linecap:round;stroke-linejoin:round;stroke-miterlimit:4;stroke-dasharray:2.8, 1.8;stroke-dashoffset:0;stroke-opacity:1"
       id="path209323" />
    <path
       d="m 870.482,713.334 68.653,58.058"
       style="fill:none;stroke:#231f20;stroke-width:0.5;stroke-linecap:round;stroke-linejoin:round;stroke-miterlimit:4;stroke-dasharray:2.8, 1.8;stroke-dashoffset:0;stroke-opacity:1"
       id="path209325" />
    <path
       d="m 819.204,756.032 39.084,81.664"
       style="fill:none;stroke:#231f20;stroke-width:0.5;stroke-linecap:round;stroke-linejoin:round;stroke-miterlimit:4;stroke-dasharray:2.8, 1.8;stroke-dashoffset:0;stroke-opacity:1"
       id="path209327" />
    <path
       d="m 757.024,781.472 29.815,90.354"
       style="fill:none;stroke:#231f20;stroke-width:0.5;stroke-linecap:round;stroke-linejoin:round;stroke-miterlimit:4;stroke-dasharray:2.8, 1.8;stroke-dashoffset:0;stroke-opacity:1"
       id="path209329" />
    <path
       d="m 685.853,804.042 16.299,87.881"
       style="fill:none;stroke:#231f20;stroke-width:0.5;stroke-linecap:round;stroke-linejoin:round;stroke-miterlimit:4;stroke-dasharray:2.8, 1.8;stroke-dashoffset:0;stroke-opacity:1"
       id="path209331" />
    <path
       d="m 657.253,813.306 7.081,81.999"
       style="fill:none;stroke:#231f20;stroke-width:0.5;stroke-linecap:round;stroke-linejoin:round;stroke-miterlimit:4;stroke-dasharray:2.8, 1.8;stroke-dashoffset:0;stroke-opacity:1"
       id="path209333" />
    <path
       d="M 641,816.882 617.114,894.81"
       style="fill:none;stroke:#231f20;stroke-width:0.5;stroke-linecap:round;stroke-linejoin:round;stroke-miterlimit:4;stroke-dasharray:2.8, 1.8;stroke-dashoffset:0;stroke-opacity:1"
       id="path209335" />
    <path
       d="m 556.248,869.451 79.05,-60.669"
       style="fill:none;stroke:#231f20;stroke-width:0.5;stroke-linecap:round;stroke-linejoin:round;stroke-miterlimit:4;stroke-dasharray:2.8, 1.8;stroke-dashoffset:0;stroke-opacity:1"
       id="path209337" />
    <path
       d="m 540.418,787.504 101.914,4.651"
       style="fill:none;stroke:#231f20;stroke-width:0.5;stroke-linecap:round;stroke-linejoin:round;stroke-miterlimit:4;stroke-dasharray:2.8, 1.8;stroke-dashoffset:0;stroke-opacity:1"
       id="path209339" />
    <path
       d="m 608.93,736.892 45.64,32.358"
       style="fill:none;stroke:#231f20;stroke-width:0.5;stroke-linecap:round;stroke-linejoin:round;stroke-miterlimit:4;stroke-dasharray:2.8, 1.8;stroke-dashoffset:0;stroke-opacity:1"
       id="path209341" />
    <path
       d="m 645.855,729.531 18.963,26.802"
       style="fill:none;stroke:#231f20;stroke-width:0.5;stroke-linecap:round;stroke-linejoin:round;stroke-miterlimit:4;stroke-dasharray:2.8, 1.8;stroke-dashoffset:0;stroke-opacity:1"
       id="path209343" />
    <path
       d="m 661.803,721.195 3.11,7.715"
       style="fill:none;stroke:#231f20;stroke-width:0.5;stroke-linecap:round;stroke-linejoin:round;stroke-miterlimit:4;stroke-dasharray:2.8, 1.8;stroke-dashoffset:0;stroke-opacity:1"
       id="path209345" />
    <path
       d="m 583.332,643.172 c -7.116,-4.375 -23.197,-16.152 -19.652,-26.197 2.786,-7.891 33.901,-2.351 40.398,-0.942"
       style="fill:none;stroke:#231f20;stroke-width:0.5;stroke-linecap:round;stroke-linejoin:round;stroke-miterlimit:4;stroke-dasharray:2.8, 1.8;stroke-dashoffset:0;stroke-opacity:1"
       id="path209347" />
    <path
       d="m 759.029,730.03 c 0.482,-3.864 6.964,-1.045 18.803,-0.696 11.839,0.347 37.956,-3.832 54.67,-17.76 16.714,-13.929 30.643,-32.035 45.268,-66.16 14.625,-34.125 18.804,-67.554 13.58,-94.715 -5.223,-27.161 -8.705,-33.08 -18.455,-47.009 -9.75,-13.929 -18.107,-23.679 -16.366,-26.465 1.741,-2.785 4.875,-4.526 14.973,11.84 10.098,16.366 18.456,35.17 21.589,46.312 3.134,11.143 6.965,33.081 4.179,55.367 -2.785,22.285 -8.357,50.491 -29.25,83.92 -20.893,33.428 -45.616,54.321 -66.161,58.847 -20.544,4.528 -43.527,2.09 -42.83,-3.481"
       style="fill:#b2b1b1;fill-opacity:1;fill-rule:nonzero;stroke:none;stroke-width:0.1"
       id="path209349" />
    <path
       d="m 759.029,730.03 c 0.482,-3.864 6.964,-1.045 18.803,-0.696 11.839,0.347 37.956,-3.832 54.67,-17.76 16.714,-13.929 30.643,-32.035 45.268,-66.16 14.625,-34.125 18.804,-67.554 13.58,-94.715 -5.223,-27.161 -8.705,-33.08 -18.455,-47.009 -9.75,-13.929 -18.107,-23.679 -16.366,-26.465 1.741,-2.785 4.875,-4.526 14.973,11.84 10.098,16.366 18.456,35.17 21.589,46.312 3.134,11.143 6.965,33.081 4.179,55.367 -2.785,22.285 -8.357,50.491 -29.25,83.92 -20.893,33.428 -45.616,54.321 -66.161,58.847 -20.544,4.528 -43.527,2.09 -42.83,-3.481 z"
       style="fill:none;stroke:#231f20;stroke-width:0.5;stroke-linecap:round;stroke-linejoin:round;stroke-miterlimit:4;stroke-dasharray:2.8, 1.8;stroke-dashoffset:0;stroke-opacity:1"
       id="path209351" />
    <path
       d="m 771.216,753.708 c -5.92,-3.482 -17.062,-17.411 -11.142,-28.902 5.919,-11.491 27.508,-16.017 35.517,-19.848 6.658,-3.184 35.17,-13.928 56.759,-59.544 21.59,-45.617 29.947,-86.706 -2.437,-145.555"
       style="fill:none;stroke:#231f20;stroke-width:0.5;stroke-linecap:round;stroke-linejoin:round;stroke-miterlimit:4;stroke-dasharray:2.8, 1.8;stroke-dashoffset:0;stroke-opacity:1"
       id="path209353" />
    <path
       d="m 825.886,489.761 c 0,0 17.063,-0.348 24.027,10.098 0,0 -1.044,-11.49 6.616,-22.634"
       style="fill:none;stroke:#231f20;stroke-width:0.5;stroke-linecap:round;stroke-linejoin:round;stroke-miterlimit:4;stroke-dasharray:2.8, 1.8;stroke-dashoffset:0;stroke-opacity:1"
       id="path209355" />
    <path
       d="m 861.056,476.067 c 0,0 22.108,19.907 33.212,35.943"
       style="fill:none;stroke:#231f20;stroke-width:0.5;stroke-linecap:round;stroke-linejoin:round;stroke-miterlimit:4;stroke-dasharray:2.8, 1.8;stroke-dashoffset:0;stroke-opacity:1"
       id="path209357" />
    <path
       d="m 792.409,400.58 c 0,0 -2.389,-10.409 -14.577,-14.587 -12.187,-4.178 -30.829,-10.68 -30.829,-10.68"
       style="fill:none;stroke:#231f20;stroke-width:0.5;stroke-linecap:round;stroke-linejoin:round;stroke-miterlimit:4;stroke-dasharray:2.8, 1.8;stroke-dashoffset:0;stroke-opacity:1"
       id="path209359" />
    <path
       d="m 718.841,401.26 c 0,0 43.67,-0.294 66.652,1.448"
       style="fill:none;stroke:#231f20;stroke-width:0.5;stroke-linecap:round;stroke-linejoin:round;stroke-miterlimit:4;stroke-dasharray:2.8, 1.8;stroke-dashoffset:0;stroke-opacity:1"
       id="path209361" />
    <path
       d="m 855.835,478.271 c -3.833,-6.617 -20.547,-32.385 -38.654,-40.046 -18.107,-7.66 -23.685,-5.393 -39.006,-6.118 -17.869,-0.846 -34.12,-8.507 -41.432,-18.257 -4.769,-6.358 -9.75,-17.41 3.831,-22.982 13.58,-5.572 33.776,-14.973 64.767,-13.928 30.991,1.044 54.896,3.675 74.98,12.632"
       style="fill:none;stroke:#231f20;stroke-width:0.5;stroke-linecap:round;stroke-linejoin:round;stroke-miterlimit:4;stroke-dasharray:2.8, 1.8;stroke-dashoffset:0;stroke-opacity:1"
       id="path209363" />
    <path
       d="m 789.978,395.298 c 8.051,-3.733 18.846,-3.733 35.56,1.49 16.714,5.223 29.65,10.089 39.896,10.268"
       style="fill:none;stroke:#231f20;stroke-width:0.5;stroke-linecap:round;stroke-linejoin:round;stroke-miterlimit:4;stroke-dasharray:2.8, 1.8;stroke-dashoffset:0;stroke-opacity:1"
       id="path209365" />
    <path
       d="m 767.041,717.365 c -6.967,-1.729 -14.392,-10.462 -10.679,-19.676"
       style="fill:none;stroke:#231f20;stroke-width:0.5;stroke-linecap:round;stroke-linejoin:round;stroke-miterlimit:4;stroke-dasharray:2.8, 1.8;stroke-dashoffset:0;stroke-opacity:1"
       id="path209367" />
    <path
       d="m 807.198,623.94 c 1.162,1.161 9.519,-1.858 13.465,-13 3.946,-11.143 7.753,-32.366 7.197,-41.09 -0.696,-10.91 -6.037,-17.874 -8.126,-15.321 -2.089,2.553 3.21,0.654 1.858,19.964 -1.626,23.215 -7.892,34.822 -11.143,39.929 -3.251,5.108 -4.18,8.59 -3.251,9.518"
       style="fill:#b2b1b1;fill-opacity:1;fill-rule:nonzero;stroke:none;stroke-width:0.1"
       id="path209369" />
    <path
       d="m 807.198,623.94 c 1.162,1.161 9.519,-1.858 13.465,-13 3.946,-11.143 7.753,-32.366 7.197,-41.09 -0.696,-10.91 -6.037,-17.874 -8.126,-15.321 -2.089,2.553 3.21,0.654 1.858,19.964 -1.626,23.215 -7.892,34.822 -11.143,39.929 -3.251,5.108 -4.18,8.59 -3.251,9.518 z"
       style="fill:none;stroke:#231f20;stroke-width:0.5;stroke-linecap:round;stroke-linejoin:round;stroke-miterlimit:4;stroke-dasharray:2.8, 1.8;stroke-dashoffset:0;stroke-opacity:1"
       id="path209371" />
    <path
       d="m 807.198,623.94 c -1.857,1.161 -5.803,1.625 -4.409,-3.25 1.392,-4.875 8.355,-21.822 9.284,-30.41 0.929,-8.59 -0.233,-39.466 7.661,-35.751"
       style="fill:none;stroke:#231f20;stroke-width:0.5;stroke-linecap:round;stroke-linejoin:round;stroke-miterlimit:4;stroke-dasharray:2.8, 1.8;stroke-dashoffset:0;stroke-opacity:1"
       id="path209373" />
    <path
       d="m 714.684,632.839 c -0.111,-5.881 -1.968,-17.488 2.907,-17.72 4.875,-0.233 6.035,2.785 6.268,11.142"
       style="fill:none;stroke:#231f20;stroke-width:0.5;stroke-linecap:round;stroke-linejoin:round;stroke-miterlimit:4;stroke-dasharray:2.8, 1.8;stroke-dashoffset:0;stroke-opacity:1"
       id="path209375" />
    <path
       d="m 732.986,628.608 c 4.338,-0.024 24.069,-6.526 33.123,-18.364 9.054,-11.84 13.696,-25.536 11.839,-40.16 -1.857,-14.626 -9.054,-23.214 -20.196,-24.145 -11.143,-0.928 -20.892,0.466 -27.392,3.482"
       style="fill:none;stroke:#231f20;stroke-width:0.5;stroke-linecap:round;stroke-linejoin:round;stroke-miterlimit:4;stroke-dasharray:2.8, 1.8;stroke-dashoffset:0;stroke-opacity:1"
       id="path209377" />
    <path
       d="m 715.285,610.778 c -1.64,-6.802 -5.453,-25.142 1.743,-32.803"
       style="fill:none;stroke:#231f20;stroke-width:0.5;stroke-linecap:round;stroke-linejoin:round;stroke-miterlimit:4;stroke-dasharray:2.8, 1.8;stroke-dashoffset:0;stroke-opacity:1"
       id="path209379" />
    <path
       d="m 724.42,614.75 c 1.574,-9.418 3.619,-20.757 3.85,-29.578"
       style="fill:none;stroke:#231f20;stroke-width:0.5;stroke-linecap:round;stroke-linejoin:round;stroke-miterlimit:4;stroke-dasharray:2.8, 1.8;stroke-dashoffset:0;stroke-opacity:1"
       id="path209381" />
    <path
       d="m 728.156,587.733 c 1.508,4.636 5.802,10.497 11.024,11.601 4.792,1.01 18.803,3.481 26.929,10.91"
       style="fill:none;stroke:#231f20;stroke-width:0.5;stroke-linecap:round;stroke-linejoin:round;stroke-miterlimit:4;stroke-dasharray:2.8, 1.8;stroke-dashoffset:0;stroke-opacity:1"
       id="path209383" />
    <path
       d="m 717.832,576.805 c -0.705,-5.794 1.608,-33.605 8.349,-32.259 5.803,1.162 4.875,10.912 4.643,15.554 -0.234,4.643 -1.335,15.237 -2.525,19.807"
       style="fill:none;stroke:#231f20;stroke-width:0.5;stroke-linecap:round;stroke-linejoin:round;stroke-miterlimit:4;stroke-dasharray:2.8, 1.8;stroke-dashoffset:0;stroke-opacity:1"
       id="path209385" />
    <path
       d="m 716.174,578.83 c -3.922,-6.658 -15.992,-28.48 -20.636,-36.14 -4.644,-7.661 -11.375,-18.571 -9.286,-21.822 2.089,-3.249 9.286,-2.089 12.768,-0.928 3.482,1.16 11.606,3.018 14.856,3.482"
       style="fill:none;stroke:#231f20;stroke-width:0.5;stroke-linecap:round;stroke-linejoin:round;stroke-miterlimit:4;stroke-dasharray:2.8, 1.8;stroke-dashoffset:0;stroke-opacity:1"
       id="path209387" />
    <path
       d="m 693.477,539.283 c 1.422,2.352 17.613,7.122 27.363,3.407"
       style="fill:none;stroke:#231f20;stroke-width:0.5;stroke-linecap:round;stroke-linejoin:round;stroke-miterlimit:4;stroke-dasharray:2.8, 1.8;stroke-dashoffset:0;stroke-opacity:1"
       id="path209389" />
    <path
       d="m 772.914,547.811 c -6.109,-3.961 -12.608,-5.353 -21.662,-5.585 -9.053,-0.232 -15.787,0.928 -19.268,1.393 -3.482,0.463 -9.517,1.159 -14.16,-2.785 -4.644,-3.948 -6.734,-9.054 -6.734,-11.609 0,-2.553 2.344,-8.226 10.216,-9.75 7.196,-1.391 9.516,-2.553 11.374,-3.25"
       style="fill:none;stroke:#231f20;stroke-width:0.5;stroke-linecap:round;stroke-linejoin:round;stroke-miterlimit:4;stroke-dasharray:2.8, 1.8;stroke-dashoffset:0;stroke-opacity:1"
       id="path209391" />
    <path
       d="m 649.805,450.994 c 8.779,4.726 38.769,16.25 40.858,11.142 2.089,-5.107 -11.608,-18.572 -30.875,-26.232 -15.865,-6.308 -28.374,-7.246 -34.589,-5.572 -6.035,1.626 -6.501,6.733 -2.786,8.357 6.479,2.832 18.339,7.43 27.392,12.305 z"
       style="fill:none;stroke:#231f20;stroke-width:0.5;stroke-linecap:round;stroke-linejoin:round;stroke-miterlimit:4;stroke-dasharray:2.8, 1.8;stroke-dashoffset:0;stroke-opacity:1"
       id="path209393" />
    <path
       d="m 555.555,573.285 c -1.91,0.452 -5.107,3.066 1.161,5.619 6.268,2.554 22.234,3.606 27.483,0.296"
       style="fill:none;stroke:#231f20;stroke-width:0.5;stroke-linecap:round;stroke-linejoin:round;stroke-miterlimit:4;stroke-dasharray:2.8, 1.8;stroke-dashoffset:0;stroke-opacity:1"
       id="path209395" />
    <path
       d="m 568.135,560.2 c 5.295,-0.1 16.902,-2.885 17.135,-16.118 0.232,-13.232 -10.012,-23.029 -31.136,-20.706"
       style="fill:none;stroke:#231f20;stroke-width:0.5;stroke-linecap:round;stroke-linejoin:round;stroke-miterlimit:4;stroke-dasharray:2.8, 1.8;stroke-dashoffset:0;stroke-opacity:1"
       id="path209397" />
    <path
       d="m 541.86,572.636 c 2.32,-1.856 4.875,-47.821 0.696,-47.821 -3.251,0 -0.696,20.428 -0.696,25.535 0,5.108 0,22.286 0,22.286 z"
       style="fill:none;stroke:#231f20;stroke-width:0.5;stroke-linecap:round;stroke-linejoin:round;stroke-miterlimit:4;stroke-dasharray:2.8, 1.8;stroke-dashoffset:0;stroke-opacity:1"
       id="path209399" />
    <path
       d="m 544.553,550.346 c 4.037,1.862 14.252,0.934 16.111,-3.477"
       style="fill:none;stroke:#231f20;stroke-width:0.5;stroke-linecap:round;stroke-linejoin:round;stroke-miterlimit:4;stroke-dasharray:2.8, 1.8;stroke-dashoffset:0;stroke-opacity:1"
       id="path209401" />
    <path
       d="m 625.43,520.636 c 7.911,1.965 24.144,3.714 26.93,-6.5 2.785,-10.214 0.23,-16.017 -10.68,-20.892 -10.91,-4.875 -24.142,-6.501 -27.857,6.035 -3.714,12.535 5.967,19.957 11.607,21.357 z"
       style="fill:none;stroke:#231f20;stroke-width:0.5;stroke-linecap:round;stroke-linejoin:round;stroke-miterlimit:4;stroke-dasharray:2.8, 1.8;stroke-dashoffset:0;stroke-opacity:1"
       id="path209403" />
    <path
       d="m 569.948,512.28 c 5.214,2.33 13.696,1.391 20.197,-0.466 6.5,-1.856 14.392,-4.641 17.178,-12.07 2.786,-7.43 6.964,-25.536 -11.84,-31.573 -18.803,-6.035 -29.714,2.555 -32.034,11.376 -2.323,8.822 -4.411,27.858 6.499,32.733 z"
       style="fill:none;stroke:#231f20;stroke-width:0.5;stroke-linecap:round;stroke-linejoin:round;stroke-miterlimit:4;stroke-dasharray:2.8, 1.8;stroke-dashoffset:0;stroke-opacity:1"
       id="path209405" />
    <path
       d="m 561.624,492.077 c 6.699,0.469 31.32,6.388 40.018,14.803"
       style="fill:none;stroke:#231f20;stroke-width:0.5;stroke-linecap:round;stroke-linejoin:round;stroke-miterlimit:4;stroke-dasharray:2.8, 1.8;stroke-dashoffset:0;stroke-opacity:1"
       id="path209407" />
    <path
       d="m 540.002,459.597 c 0.927,4.411 3.25,17.861 5.802,24.361 1.406,3.577 4.644,8.822 6.037,8.822 1.393,0 3.017,-6.27 5.803,-12.305 2.785,-6.035 8.82,-17.411 16.946,-18.804 8.126,-1.392 12.768,-0.928 20.197,1.393 7.429,2.322 18.108,8.126 22.751,10.216 4.642,2.089 16.714,6.732 19.964,8.356 3.25,1.624 7.197,6.965 11.375,11.84 4.179,4.875 19.733,20.196 29.947,11.606"
       style="fill:none;stroke:#231f20;stroke-width:0.5;stroke-linecap:round;stroke-linejoin:round;stroke-miterlimit:4;stroke-dasharray:2.8, 1.8;stroke-dashoffset:0;stroke-opacity:1"
       id="path209409" />
    <path
       d="m 544.447,430.932 c -0.035,-3.617 4.981,-11.497 16.982,-6.976"
       style="fill:none;stroke:#231f20;stroke-width:0.5;stroke-linecap:round;stroke-linejoin:round;stroke-miterlimit:4;stroke-dasharray:2.8, 1.8;stroke-dashoffset:0;stroke-opacity:1"
       id="path209411" />
    <path
       d="m 560.222,412.79 c -1.882,-5.671 -3.457,-20.875 0.93,-21.283"
       style="fill:none;stroke:#231f20;stroke-width:0.5;stroke-linecap:round;stroke-linejoin:round;stroke-miterlimit:4;stroke-dasharray:2.8, 1.8;stroke-dashoffset:0;stroke-opacity:1"
       id="path209413" />
    <path
       d="m 587.11,409.827 c 4.428,0.774 15.338,7.738 20.213,12.381 4.875,4.642 15.323,11.838 6.733,18.803"
       style="fill:none;stroke:#231f20;stroke-width:0.5;stroke-linecap:round;stroke-linejoin:round;stroke-miterlimit:4;stroke-dasharray:2.8, 1.8;stroke-dashoffset:0;stroke-opacity:1"
       id="path209415" />
    <path
       d="m 617.148,433.793 c 5.496,6.289 34.412,36.068 40.783,42.968 7.237,7.839 16.018,15.089 20.893,28.321 0,0 -12.769,-8.357 -31.572,-28.553"
       style="fill:none;stroke:#231f20;stroke-width:0.5;stroke-linecap:round;stroke-linejoin:round;stroke-miterlimit:4;stroke-dasharray:2.8, 1.8;stroke-dashoffset:0;stroke-opacity:1"
       id="path209417" />
    <path
       d="m 719.509,506.425 c -18.633,12.819 -37.899,5.622 -40.685,-1.343 0,0 23.238,1.015 27.636,-24.215"
       style="fill:none;stroke:#231f20;stroke-width:0.5;stroke-linecap:round;stroke-linejoin:round;stroke-miterlimit:4;stroke-dasharray:2.8, 1.8;stroke-dashoffset:0;stroke-opacity:1"
       id="path209419" />
    <path
       d="m 549.989,438.689 c 3.71,0 21.707,-7.427 26.349,-15.553"
       style="fill:none;stroke:#231f20;stroke-width:0.5;stroke-linecap:round;stroke-linejoin:round;stroke-miterlimit:4;stroke-dasharray:2.8, 1.8;stroke-dashoffset:0;stroke-opacity:1"
       id="path209421" />
    <path
       d="m 342.215,680.119 c 1.33,-3.658 -3.482,-7.893 -7.66,-12.768 -4.179,-4.875 -3.715,-12.767 -5.339,-19.036 -1.624,-6.268 -4.875,-6.499 -15.09,-9.981 -10.215,-3.483 -20.661,-16.715 -27.392,-29.716 -6.732,-12.998 -11.84,-30.874 -9.286,-47.357 2.552,-16.48 9.286,-22.053 13.695,-28.321 4.41,-6.268 9.52,-11.84 10.68,-14.858 1.16,-3.018 3.945,-9.053 12.768,-19.5 8.823,-10.447 17.178,-13.232 22.749,-16.25 5.572,-3.016 8.822,-6.963 14.161,-13.697 5.341,-6.732 9.518,-12.999 6.499,-15.321 -3.017,-2.321 -7.427,-0.928 -11.606,2.555 -4.179,3.482 -7.428,7.195 -16.25,12.07 -8.823,4.875 -19.731,8.357 -32.732,11.84 -13.001,3.481 -17.875,8.822 -27.393,17.179 -9.518,8.357 -15.598,14.61 -19.732,26.696 -6.036,17.643 -5.804,9.982 -11.143,23.447 -5.339,13.463 -5.339,47.125 -1.16,60.124 4.179,13.001 11.606,26.465 15.321,29.716 3.715,3.248 7.892,6.731 11.143,12.999 3.251,6.268 7.428,9.518 11.84,12.536 4.411,3.018 19.73,10.446 23.678,11.608 3.948,1.16 14.168,2.734 23.446,4.178 10.41,1.619 17.875,4.41 18.803,1.857 z M 297.18,665.958 c -6.731,-2.089 -17.876,-8.357 -21.822,-13.464 -3.945,-5.107 -9.518,-11.608 -15.554,-18.339 -6.037,-6.734 -15.553,-22.751 -17.875,-39 -2.321,-16.252 -1.856,-28.554 2.554,-43.644 4.409,-15.088 12.305,-26.232 17.41,-34.589 5.107,-8.357 14.625,-13 19.036,-14.858 4.412,-1.857 10.911,-6.035 14.625,-9.518 3.715,-3.481 8.822,-4.641 10.68,-2.552 1.745,1.962 -0.017,7.69 -3.262,10.452 -4.632,3.94 -4.632,6.493 -4.632,9.512 0,3.018 -1.392,6.964 -4.178,10.678 -2.786,3.714 -5.804,6.036 -16.482,27.393 -10.678,21.358 -3.251,49.679 5.571,66.626 8.823,16.945 21.821,23.679 32.964,31.106 11.143,7.429 7.703,20.022 1.858,22.751 -3.482,1.625 -14.161,-0.465 -20.893,-2.554"
       style="fill:#b2b1b1;fill-opacity:1;fill-rule:nonzero;stroke:none;stroke-width:0.1"
       id="path209423" />
    <path
       d="m 342.215,680.119 c 1.33,-3.658 -3.482,-7.893 -7.66,-12.768 -4.179,-4.875 -3.715,-12.767 -5.339,-19.036 -1.624,-6.268 -4.875,-6.499 -15.09,-9.981 -10.215,-3.483 -20.661,-16.715 -27.392,-29.716 -6.732,-12.998 -11.84,-30.874 -9.286,-47.357 2.552,-16.48 9.286,-22.053 13.695,-28.321 4.41,-6.268 9.52,-11.84 10.68,-14.858 1.16,-3.018 3.945,-9.053 12.768,-19.5 8.823,-10.447 17.178,-13.232 22.749,-16.25 5.572,-3.016 8.822,-6.963 14.161,-13.697 5.341,-6.732 9.518,-12.999 6.499,-15.321 -3.017,-2.321 -7.427,-0.928 -11.606,2.555 -4.179,3.482 -7.428,7.195 -16.25,12.07 -8.823,4.875 -19.731,8.357 -32.732,11.84 -13.001,3.481 -17.875,8.822 -27.393,17.179 -9.518,8.357 -15.598,14.61 -19.732,26.696 -6.036,17.643 -5.804,9.982 -11.143,23.447 -5.339,13.463 -5.339,47.125 -1.16,60.124 4.179,13.001 11.606,26.465 15.321,29.716 3.715,3.248 7.892,6.731 11.143,12.999 3.251,6.268 7.428,9.518 11.84,12.536 4.411,3.018 19.73,10.446 23.678,11.608 3.948,1.16 14.168,2.734 23.446,4.178 10.41,1.619 17.875,4.41 18.803,1.857 z M 297.18,665.958 c -6.731,-2.089 -17.876,-8.357 -21.822,-13.464 -3.945,-5.107 -9.518,-11.608 -15.554,-18.339 -6.037,-6.734 -15.553,-22.751 -17.875,-39 -2.321,-16.252 -1.856,-28.554 2.554,-43.644 4.409,-15.088 12.305,-26.232 17.41,-34.589 5.107,-8.357 14.625,-13 19.036,-14.858 4.412,-1.857 10.911,-6.035 14.625,-9.518 3.715,-3.481 8.822,-4.641 10.68,-2.552 1.745,1.962 -0.017,7.69 -3.262,10.452 -4.632,3.94 -4.632,6.493 -4.632,9.512 0,3.018 -1.392,6.964 -4.178,10.678 -2.786,3.714 -5.804,6.036 -16.482,27.393 -10.678,21.358 -3.251,49.679 5.571,66.626 8.823,16.945 21.821,23.679 32.964,31.106 11.143,7.429 7.703,20.022 1.858,22.751 -3.482,1.625 -14.161,-0.465 -20.893,-2.554 z"
       style="fill:none;stroke:#231f20;stroke-width:0.5;stroke-linecap:round;stroke-linejoin:round;stroke-miterlimit:4;stroke-dasharray:2.8, 1.8;stroke-dashoffset:0;stroke-opacity:1"
       id="path209425" />
    <path
       d="M 230.915,426.256 192.07,380.629"
       style="fill:none;stroke:#231f20;stroke-width:0.5;stroke-linecap:round;stroke-linejoin:round;stroke-miterlimit:4;stroke-dasharray:2.8, 1.8;stroke-dashoffset:0;stroke-opacity:1"
       id="path209427" />
    <path
       d="M 178.082,513.595 114.273,493.567"
       style="fill:none;stroke:#231f20;stroke-width:0.5;stroke-linecap:round;stroke-linejoin:round;stroke-miterlimit:4;stroke-dasharray:2.8, 1.8;stroke-dashoffset:0;stroke-opacity:1"
       id="path209429" />
    <path
       d="M 171.884,543.084 109.088,527.98"
       style="fill:none;stroke:#231f20;stroke-width:0.5;stroke-linecap:round;stroke-linejoin:round;stroke-miterlimit:4;stroke-dasharray:2.8, 1.8;stroke-dashoffset:0;stroke-opacity:1"
       id="path209431" />
    <path
       d="M 168.257,575.458 98.5586,563.247"
       style="fill:none;stroke:#231f20;stroke-width:0.5;stroke-linecap:round;stroke-linejoin:round;stroke-miterlimit:4;stroke-dasharray:2.8, 1.8;stroke-dashoffset:0;stroke-opacity:1"
       id="path209433" />
    <path
       d="M 167.52,606.408 96.0676,603.61"
       style="fill:none;stroke:#231f20;stroke-width:0.5;stroke-linecap:round;stroke-linejoin:round;stroke-miterlimit:4;stroke-dasharray:2.8, 1.8;stroke-dashoffset:0;stroke-opacity:1"
       id="path209435" />
    <path
       d="m 171.169,633.318 -76.1924,4.086"
       style="fill:none;stroke:#231f20;stroke-width:0.5;stroke-linecap:round;stroke-linejoin:round;stroke-miterlimit:4;stroke-dasharray:2.8, 1.8;stroke-dashoffset:0;stroke-opacity:1"
       id="path209437" />
    <path
       d="m 189.617,682.019 -81.509,38.806"
       style="fill:none;stroke:#231f20;stroke-width:0.5;stroke-linecap:round;stroke-linejoin:round;stroke-miterlimit:4;stroke-dasharray:2.8, 1.8;stroke-dashoffset:0;stroke-opacity:1"
       id="path209439" />
    <path
       d="m 199.448,699.039 -77.122,48.048"
       style="fill:none;stroke:#231f20;stroke-width:0.5;stroke-linecap:round;stroke-linejoin:round;stroke-miterlimit:4;stroke-dasharray:2.8, 1.8;stroke-dashoffset:0;stroke-opacity:1"
       id="path209441" />
    <path
       d="m 209.521,713.334 -68.652,58.058"
       style="fill:none;stroke:#231f20;stroke-width:0.5;stroke-linecap:round;stroke-linejoin:round;stroke-miterlimit:4;stroke-dasharray:2.8, 1.8;stroke-dashoffset:0;stroke-opacity:1"
       id="path209443" />
    <path
       d="m 260.8,756.032 -39.085,81.664"
       style="fill:none;stroke:#231f20;stroke-width:0.5;stroke-linecap:round;stroke-linejoin:round;stroke-miterlimit:4;stroke-dasharray:2.8, 1.8;stroke-dashoffset:0;stroke-opacity:1"
       id="path209445" />
    <path
       d="m 322.979,781.472 -29.815,90.354"
       style="fill:none;stroke:#231f20;stroke-width:0.5;stroke-linecap:round;stroke-linejoin:round;stroke-miterlimit:4;stroke-dasharray:2.8, 1.8;stroke-dashoffset:0;stroke-opacity:1"
       id="path209447" />
    <path
       d="m 394.15,804.042 -16.298,87.881"
       style="fill:none;stroke:#231f20;stroke-width:0.5;stroke-linecap:round;stroke-linejoin:round;stroke-miterlimit:4;stroke-dasharray:2.8, 1.8;stroke-dashoffset:0;stroke-opacity:1"
       id="path209449" />
    <path
       d="m 422.75,813.306 -7.082,81.999"
       style="fill:none;stroke:#231f20;stroke-width:0.5;stroke-linecap:round;stroke-linejoin:round;stroke-miterlimit:4;stroke-dasharray:2.8, 1.8;stroke-dashoffset:0;stroke-opacity:1"
       id="path209451" />
    <path
       d="M 439.002,816.882 462.89,894.81"
       style="fill:none;stroke:#231f20;stroke-width:0.5;stroke-linecap:round;stroke-linejoin:round;stroke-miterlimit:4;stroke-dasharray:2.8, 1.8;stroke-dashoffset:0;stroke-opacity:1"
       id="path209453" />
    <path
       d="M 523.754,869.451 444.705,808.782"
       style="fill:none;stroke:#231f20;stroke-width:0.5;stroke-linecap:round;stroke-linejoin:round;stroke-miterlimit:4;stroke-dasharray:2.8, 1.8;stroke-dashoffset:0;stroke-opacity:1"
       id="path209455" />
    <path
       d="m 539.585,787.504 -101.914,4.651"
       style="fill:none;stroke:#231f20;stroke-width:0.5;stroke-linecap:round;stroke-linejoin:round;stroke-miterlimit:4;stroke-dasharray:2.8, 1.8;stroke-dashoffset:0;stroke-opacity:1"
       id="path209457" />
    <path
       d="m 471.073,736.892 -45.64,32.358"
       style="fill:none;stroke:#231f20;stroke-width:0.5;stroke-linecap:round;stroke-linejoin:round;stroke-miterlimit:4;stroke-dasharray:2.8, 1.8;stroke-dashoffset:0;stroke-opacity:1"
       id="path209459" />
    <path
       d="m 434.148,729.531 -18.962,26.802"
       style="fill:none;stroke:#231f20;stroke-width:0.5;stroke-linecap:round;stroke-linejoin:round;stroke-miterlimit:4;stroke-dasharray:2.8, 1.8;stroke-dashoffset:0;stroke-opacity:1"
       id="path209461" />
    <path
       d="m 418.2,721.195 -3.11,7.715"
       style="fill:none;stroke:#231f20;stroke-width:0.5;stroke-linecap:round;stroke-linejoin:round;stroke-miterlimit:4;stroke-dasharray:2.8, 1.8;stroke-dashoffset:0;stroke-opacity:1"
       id="path209463" />
    <path
       d="m 496.672,643.172 c 7.116,-4.375 23.196,-16.152 19.651,-26.197 -2.785,-7.891 -33.901,-2.351 -40.397,-0.942"
       style="fill:none;stroke:#231f20;stroke-width:0.5;stroke-linecap:round;stroke-linejoin:round;stroke-miterlimit:4;stroke-dasharray:2.8, 1.8;stroke-dashoffset:0;stroke-opacity:1"
       id="path209465" />
    <path
       d="m 320.974,730.03 c -0.482,-3.864 -6.964,-1.045 -18.804,-0.696 -11.838,0.347 -37.955,-3.832 -54.669,-17.76 -16.714,-13.929 -30.643,-32.035 -45.268,-66.16 -14.625,-34.125 -18.804,-67.554 -13.58,-94.715 5.223,-27.161 8.705,-33.08 18.455,-47.009 9.75,-13.929 18.107,-23.679 16.366,-26.465 -1.741,-2.785 -4.875,-4.526 -14.974,11.84 -10.097,16.366 -18.455,35.17 -21.588,46.312 -3.134,11.143 -6.964,33.081 -4.179,55.367 2.786,22.285 8.357,50.491 29.25,83.92 20.893,33.428 45.616,54.321 66.161,58.847 20.545,4.528 43.526,2.09 42.83,-3.481"
       style="fill:#b2b1b1;fill-opacity:1;fill-rule:nonzero;stroke:none;stroke-width:0.1"
       id="path209467" />
    <path
       d="m 320.974,730.03 c -0.482,-3.864 -6.964,-1.045 -18.804,-0.696 -11.838,0.347 -37.955,-3.832 -54.669,-17.76 -16.714,-13.929 -30.643,-32.035 -45.268,-66.16 -14.625,-34.125 -18.804,-67.554 -13.58,-94.715 5.223,-27.161 8.705,-33.08 18.455,-47.009 9.75,-13.929 18.107,-23.679 16.366,-26.465 -1.741,-2.785 -4.875,-4.526 -14.974,11.84 -10.097,16.366 -18.455,35.17 -21.588,46.312 -3.134,11.143 -6.964,33.081 -4.179,55.367 2.786,22.285 8.357,50.491 29.25,83.92 20.893,33.428 45.616,54.321 66.161,58.847 20.545,4.528 43.526,2.09 42.83,-3.481 z"
       style="fill:none;stroke:#231f20;stroke-width:0.5;stroke-linecap:round;stroke-linejoin:round;stroke-miterlimit:4;stroke-dasharray:2.8, 1.8;stroke-dashoffset:0;stroke-opacity:1"
       id="path209469" />
    <path
       d="m 308.787,753.708 c 5.92,-3.482 17.062,-17.411 11.143,-28.902 -5.92,-11.491 -27.51,-16.017 -35.518,-19.848 -6.657,-3.184 -35.17,-13.928 -56.759,-59.544 -21.59,-45.617 -29.946,-86.706 2.437,-145.555"
       style="fill:none;stroke:#231f20;stroke-width:0.5;stroke-linecap:round;stroke-linejoin:round;stroke-miterlimit:4;stroke-dasharray:2.8, 1.8;stroke-dashoffset:0;stroke-opacity:1"
       id="path209471" />
    <path
       d="m 254.117,489.761 c 0,0 -17.063,-0.348 -24.027,10.098 0,0 1.045,-11.49 -6.616,-22.634"
       style="fill:none;stroke:#231f20;stroke-width:0.5;stroke-linecap:round;stroke-linejoin:round;stroke-miterlimit:4;stroke-dasharray:2.8, 1.8;stroke-dashoffset:0;stroke-opacity:1"
       id="path209473" />
    <path
       d="m 218.948,476.067 c 0,0 -22.109,19.907 -33.213,35.943"
       style="fill:none;stroke:#231f20;stroke-width:0.5;stroke-linecap:round;stroke-linejoin:round;stroke-miterlimit:4;stroke-dasharray:2.8, 1.8;stroke-dashoffset:0;stroke-opacity:1"
       id="path209475" />
    <path
       d="m 287.594,400.58 c 0,0 2.389,-10.409 14.576,-14.587 12.188,-4.178 30.83,-10.68 30.83,-10.68"
       style="fill:none;stroke:#231f20;stroke-width:0.5;stroke-linecap:round;stroke-linejoin:round;stroke-miterlimit:4;stroke-dasharray:2.8, 1.8;stroke-dashoffset:0;stroke-opacity:1"
       id="path209477" />
    <path
       d="m 361.162,401.26 c 0,0 -43.669,-0.294 -66.652,1.448"
       style="fill:none;stroke:#231f20;stroke-width:0.5;stroke-linecap:round;stroke-linejoin:round;stroke-miterlimit:4;stroke-dasharray:2.8, 1.8;stroke-dashoffset:0;stroke-opacity:1"
       id="path209479" />
    <path
       d="m 224.168,478.271 c 3.832,-6.617 20.547,-32.385 38.655,-40.046 18.106,-7.66 23.685,-5.393 39.005,-6.118 17.869,-0.846 34.12,-8.507 41.432,-18.257 4.769,-6.358 9.75,-17.41 -3.83,-22.982 -13.581,-5.572 -33.777,-14.973 -64.768,-13.928 -30.992,1.044 -54.896,3.675 -74.979,12.632"
       style="fill:none;stroke:#231f20;stroke-width:0.5;stroke-linecap:round;stroke-linejoin:round;stroke-miterlimit:4;stroke-dasharray:2.8, 1.8;stroke-dashoffset:0;stroke-opacity:1"
       id="path209481" />
    <path
       d="m 290.026,395.298 c -8.052,-3.733 -18.847,-3.733 -35.561,1.49 -16.714,5.223 -29.65,10.089 -39.896,10.268"
       style="fill:none;stroke:#231f20;stroke-width:0.5;stroke-linecap:round;stroke-linejoin:round;stroke-miterlimit:4;stroke-dasharray:2.8, 1.8;stroke-dashoffset:0;stroke-opacity:1"
       id="path209483" />
    <path
       d="m 312.962,717.365 c 6.968,-1.729 14.392,-10.462 10.68,-19.676"
       style="fill:none;stroke:#231f20;stroke-width:0.5;stroke-linecap:round;stroke-linejoin:round;stroke-miterlimit:4;stroke-dasharray:2.8, 1.8;stroke-dashoffset:0;stroke-opacity:1"
       id="path209485" />
    <path
       d="m 272.805,623.94 c -1.162,1.161 -9.518,-1.858 -13.465,-13 -3.946,-11.143 -7.753,-32.366 -7.197,-41.09 0.697,-10.91 6.037,-17.874 8.126,-15.321 2.09,2.553 -3.21,0.654 -1.857,19.964 1.625,23.215 7.891,34.822 11.142,39.929 3.251,5.108 4.18,8.59 3.251,9.518"
       style="fill:#b2b1b1;fill-opacity:1;fill-rule:nonzero;stroke:none;stroke-width:0.1"
       id="path209487" />
    <path
       d="m 272.805,623.94 c -1.162,1.161 -9.518,-1.858 -13.465,-13 -3.946,-11.143 -7.753,-32.366 -7.197,-41.09 0.697,-10.91 6.037,-17.874 8.126,-15.321 2.09,2.553 -3.21,0.654 -1.857,19.964 1.625,23.215 7.891,34.822 11.142,39.929 3.251,5.108 4.18,8.59 3.251,9.518 z"
       style="fill:none;stroke:#231f20;stroke-width:0.5;stroke-linecap:round;stroke-linejoin:round;stroke-miterlimit:4;stroke-dasharray:2.8, 1.8;stroke-dashoffset:0;stroke-opacity:1"
       id="path209489" />
    <path
       d="m 272.805,623.94 c 1.857,1.161 5.803,1.625 4.41,-3.25 -1.393,-4.875 -8.356,-21.822 -9.285,-30.41 -0.929,-8.59 0.233,-39.466 -7.661,-35.751"
       style="fill:none;stroke:#231f20;stroke-width:0.5;stroke-linecap:round;stroke-linejoin:round;stroke-miterlimit:4;stroke-dasharray:2.8, 1.8;stroke-dashoffset:0;stroke-opacity:1"
       id="path209491" />
    <path
       d="m 365.319,632.839 c 0.111,-5.881 1.968,-17.488 -2.907,-17.72 -4.875,-0.233 -6.036,2.785 -6.268,11.142"
       style="fill:none;stroke:#231f20;stroke-width:0.5;stroke-linecap:round;stroke-linejoin:round;stroke-miterlimit:4;stroke-dasharray:2.8, 1.8;stroke-dashoffset:0;stroke-opacity:1"
       id="path209493" />
    <path
       d="m 347.017,628.608 c -4.338,-0.024 -24.069,-6.526 -33.123,-18.364 -9.053,-11.84 -13.695,-25.536 -11.839,-40.16 1.857,-14.626 9.054,-23.214 20.196,-24.145 11.143,-0.928 20.892,0.466 27.393,3.482"
       style="fill:none;stroke:#231f20;stroke-width:0.5;stroke-linecap:round;stroke-linejoin:round;stroke-miterlimit:4;stroke-dasharray:2.8, 1.8;stroke-dashoffset:0;stroke-opacity:1"
       id="path209495" />
    <path
       d="m 364.719,610.778 c 1.639,-6.802 5.453,-25.142 -1.744,-32.803"
       style="fill:none;stroke:#231f20;stroke-width:0.5;stroke-linecap:round;stroke-linejoin:round;stroke-miterlimit:4;stroke-dasharray:2.8, 1.8;stroke-dashoffset:0;stroke-opacity:1"
       id="path209497" />
    <path
       d="m 355.583,614.75 c -1.573,-9.418 -3.619,-20.757 -3.85,-29.578"
       style="fill:none;stroke:#231f20;stroke-width:0.5;stroke-linecap:round;stroke-linejoin:round;stroke-miterlimit:4;stroke-dasharray:2.8, 1.8;stroke-dashoffset:0;stroke-opacity:1"
       id="path209499" />
    <path
       d="m 351.847,587.733 c -1.507,4.636 -5.802,10.497 -11.024,11.601 -4.792,1.01 -18.803,3.481 -26.929,10.91"
       style="fill:none;stroke:#231f20;stroke-width:0.5;stroke-linecap:round;stroke-linejoin:round;stroke-miterlimit:4;stroke-dasharray:2.8, 1.8;stroke-dashoffset:0;stroke-opacity:1"
       id="path209501" />
    <path
       d="m 362.171,576.805 c 0.705,-5.794 -1.608,-33.605 -8.349,-32.259 -5.803,1.162 -4.875,10.912 -4.642,15.554 0.233,4.643 1.334,15.237 2.525,19.807"
       style="fill:none;stroke:#231f20;stroke-width:0.5;stroke-linecap:round;stroke-linejoin:round;stroke-miterlimit:4;stroke-dasharray:2.8, 1.8;stroke-dashoffset:0;stroke-opacity:1"
       id="path209503" />
    <path
       d="m 363.83,578.83 c 3.92,-6.658 15.992,-28.48 20.635,-36.14 4.644,-7.661 11.375,-18.571 9.286,-21.822 -2.089,-3.249 -9.286,-2.089 -12.768,-0.928 -3.483,1.16 -11.606,3.018 -14.857,3.482"
       style="fill:none;stroke:#231f20;stroke-width:0.5;stroke-linecap:round;stroke-linejoin:round;stroke-miterlimit:4;stroke-dasharray:2.8, 1.8;stroke-dashoffset:0;stroke-opacity:1"
       id="path209505" />
    <path
       d="m 386.526,539.283 c -1.422,2.352 -17.613,7.122 -27.363,3.407"
       style="fill:none;stroke:#231f20;stroke-width:0.5;stroke-linecap:round;stroke-linejoin:round;stroke-miterlimit:4;stroke-dasharray:2.8, 1.8;stroke-dashoffset:0;stroke-opacity:1"
       id="path209507" />
    <path
       d="m 307.089,547.811 c 6.109,-3.961 12.608,-5.353 21.661,-5.585 9.054,-0.232 15.788,0.928 19.269,1.393 3.482,0.463 9.517,1.159 14.16,-2.785 4.644,-3.948 6.734,-9.054 6.734,-11.609 0,-2.553 -2.344,-8.226 -10.216,-9.75 -7.197,-1.391 -9.516,-2.553 -11.374,-3.25"
       style="fill:none;stroke:#231f20;stroke-width:0.5;stroke-linecap:round;stroke-linejoin:round;stroke-miterlimit:4;stroke-dasharray:2.8, 1.8;stroke-dashoffset:0;stroke-opacity:1"
       id="path209509" />
    <path
       d="m 430.199,450.994 c -8.78,4.726 -38.77,16.25 -40.859,11.142 -2.09,-5.107 11.608,-18.572 30.875,-26.232 15.865,-6.308 28.374,-7.246 34.589,-5.572 6.035,1.626 6.501,6.733 2.786,8.357 -6.478,2.832 -18.339,7.43 -27.391,12.305 z"
       style="fill:none;stroke:#231f20;stroke-width:0.5;stroke-linecap:round;stroke-linejoin:round;stroke-miterlimit:4;stroke-dasharray:2.8, 1.8;stroke-dashoffset:0;stroke-opacity:1"
       id="path209511" />
    <path
       d="m 508.781,566.076 c 11.142,8.357 26.114,9.346 31.221,9.346 5.106,0 20.078,-0.989 31.22,-9.346"
       style="fill:none;stroke:#231f20;stroke-width:0.5;stroke-linecap:round;stroke-linejoin:round;stroke-miterlimit:4;stroke-dasharray:2.8, 1.8;stroke-dashoffset:0;stroke-opacity:1"
       id="path209513" />
    <path
       d="m 524.448,573.285 c 1.91,0.452 5.107,3.066 -1.16,5.619 -6.269,2.554 -22.235,3.606 -27.484,0.296"
       style="fill:none;stroke:#231f20;stroke-width:0.5;stroke-linecap:round;stroke-linejoin:round;stroke-miterlimit:4;stroke-dasharray:2.8, 1.8;stroke-dashoffset:0;stroke-opacity:1"
       id="path209515" />
    <path
       d="m 511.869,560.2 c -5.296,-0.1 -16.903,-2.885 -17.135,-16.118 -0.233,-13.232 10.011,-23.029 31.136,-20.706"
       style="fill:none;stroke:#231f20;stroke-width:0.5;stroke-linecap:round;stroke-linejoin:round;stroke-miterlimit:4;stroke-dasharray:2.8, 1.8;stroke-dashoffset:0;stroke-opacity:1"
       id="path209517" />
    <path
       d="m 538.143,572.636 c -2.32,-1.856 -4.875,-47.821 -0.696,-47.821 3.251,0 0.696,20.428 0.696,25.535 0,5.108 0,22.286 0,22.286 z"
       style="fill:none;stroke:#231f20;stroke-width:0.5;stroke-linecap:round;stroke-linejoin:round;stroke-miterlimit:4;stroke-dasharray:2.8, 1.8;stroke-dashoffset:0;stroke-opacity:1"
       id="path209519" />
    <path
       d="m 535.451,550.346 c -4.037,1.862 -14.253,0.934 -16.111,-3.477"
       style="fill:none;stroke:#231f20;stroke-width:0.5;stroke-linecap:round;stroke-linejoin:round;stroke-miterlimit:4;stroke-dasharray:2.8, 1.8;stroke-dashoffset:0;stroke-opacity:1"
       id="path209521" />
    <path
       d="m 540.002,481.171 c -4.876,0 -5.34,4.411 -5.34,12.537 0,8.124 3.947,10.214 5.34,10.214 1.392,0 5.34,-2.09 5.34,-10.214 0,-8.126 -0.466,-12.537 -5.34,-12.537 z"
       style="fill:none;stroke:#231f20;stroke-width:0.5;stroke-linecap:round;stroke-linejoin:round;stroke-miterlimit:4;stroke-dasharray:2.8, 1.8;stroke-dashoffset:0;stroke-opacity:1"
       id="path209523" />
    <path
       d="m 454.574,520.636 c -7.911,1.965 -24.145,3.714 -26.93,-6.5 -2.786,-10.214 -0.231,-16.017 10.679,-20.892 10.91,-4.875 24.142,-6.501 27.857,6.035 3.715,12.535 -5.966,19.957 -11.606,21.357 z"
       style="fill:none;stroke:#231f20;stroke-width:0.5;stroke-linecap:round;stroke-linejoin:round;stroke-miterlimit:4;stroke-dasharray:2.8, 1.8;stroke-dashoffset:0;stroke-opacity:1"
       id="path209525" />
    <path
       d="m 510.055,512.28 c -5.214,2.33 -13.696,1.391 -20.196,-0.466 -6.501,-1.856 -14.393,-4.641 -17.179,-12.07 -2.785,-7.43 -6.964,-25.536 11.84,-31.573 18.804,-6.035 29.714,2.555 32.035,11.376 2.321,8.822 4.41,27.858 -6.5,32.733 z"
       style="fill:none;stroke:#231f20;stroke-width:0.5;stroke-linecap:round;stroke-linejoin:round;stroke-miterlimit:4;stroke-dasharray:2.8, 1.8;stroke-dashoffset:0;stroke-opacity:1"
       id="path209527" />
    <path
       d="m 518.38,492.077 c -6.7,0.469 -31.321,6.388 -40.019,14.803"
       style="fill:none;stroke:#231f20;stroke-width:0.5;stroke-linecap:round;stroke-linejoin:round;stroke-miterlimit:4;stroke-dasharray:2.8, 1.8;stroke-dashoffset:0;stroke-opacity:1"
       id="path209529" />
    <path
       d="m 530.292,429.317 c 0,7.197 -0.968,15.873 0.191,20.515 1.161,4.642 6.267,9.765 9.519,9.765 3.25,0 8.357,-5.123 9.518,-9.765 1.159,-4.642 0.19,-13.318 0.19,-20.515"
       style="fill:none;stroke:#231f20;stroke-width:0.5;stroke-linecap:round;stroke-linejoin:round;stroke-miterlimit:4;stroke-dasharray:2.8, 1.8;stroke-dashoffset:0;stroke-opacity:1"
       id="path209531" />
    <path
       d="m 540.002,459.597 c -0.928,4.411 -3.252,17.861 -5.803,24.361 -1.407,3.577 -4.644,8.822 -6.036,8.822 -1.394,0 -3.018,-6.27 -5.804,-12.305 -2.786,-6.035 -8.82,-17.411 -16.946,-18.804 -8.126,-1.392 -12.767,-0.928 -20.197,1.393 -7.429,2.322 -18.108,8.126 -22.751,10.216 -4.642,2.089 -16.715,6.732 -19.964,8.356 -3.25,1.624 -7.197,6.965 -11.375,11.84 -4.178,4.875 -19.733,20.196 -29.947,11.606"
       style="fill:none;stroke:#231f20;stroke-width:0.5;stroke-linecap:round;stroke-linejoin:round;stroke-miterlimit:4;stroke-dasharray:2.8, 1.8;stroke-dashoffset:0;stroke-opacity:1"
       id="path209533" />
    <path
       d="m 502.394,406.19 c 5.339,17.642 33.197,25.535 37.608,25.535 4.41,0 32.268,-7.893 37.607,-25.535"
       style="fill:none;stroke:#231f20;stroke-width:0.5;stroke-linecap:round;stroke-linejoin:round;stroke-miterlimit:4;stroke-dasharray:2.8, 1.8;stroke-dashoffset:0;stroke-opacity:1"
       id="path209535" />
    <path
       d="m 535.556,430.932 c 0.035,-3.617 -4.98,-11.497 -16.982,-6.976"
       style="fill:none;stroke:#231f20;stroke-width:0.5;stroke-linecap:round;stroke-linejoin:round;stroke-miterlimit:4;stroke-dasharray:2.8, 1.8;stroke-dashoffset:0;stroke-opacity:1"
       id="path209537" />
    <path
       d="m 517.199,423.131 c 1.802,-21.13 17.696,-21.352 22.803,-21.352 5.106,0 20.998,0.222 22.802,21.352"
       style="fill:none;stroke:#231f20;stroke-width:0.5;stroke-linecap:round;stroke-linejoin:round;stroke-miterlimit:4;stroke-dasharray:2.8, 1.8;stroke-dashoffset:0;stroke-opacity:1"
       id="path209539" />
    <path
       d="m 519.782,412.79 c 1.881,-5.671 3.456,-20.875 -0.93,-21.283"
       style="fill:none;stroke:#231f20;stroke-width:0.5;stroke-linecap:round;stroke-linejoin:round;stroke-miterlimit:4;stroke-dasharray:2.8, 1.8;stroke-dashoffset:0;stroke-opacity:1"
       id="path209541" />
    <path
       d="m 492.893,409.827 c -4.428,0.774 -15.338,7.738 -20.213,12.381 -4.875,4.642 -15.322,11.838 -6.732,18.803"
       style="fill:none;stroke:#231f20;stroke-width:0.5;stroke-linecap:round;stroke-linejoin:round;stroke-miterlimit:4;stroke-dasharray:2.8, 1.8;stroke-dashoffset:0;stroke-opacity:1"
       id="path209543" />
    <path
       d="m 462.856,433.793 c -5.497,6.289 -34.412,36.068 -40.783,42.968 -7.239,7.839 -16.019,15.089 -20.894,28.321 0,0 12.769,-8.357 31.572,-28.553"
       style="fill:none;stroke:#231f20;stroke-width:0.5;stroke-linecap:round;stroke-linejoin:round;stroke-miterlimit:4;stroke-dasharray:2.8, 1.8;stroke-dashoffset:0;stroke-opacity:1"
       id="path209545" />
    <path
       d="m 360.494,506.425 c 18.632,12.819 37.9,5.622 40.685,-1.343 0,0 -23.237,1.015 -27.637,-24.215"
       style="fill:none;stroke:#231f20;stroke-width:0.5;stroke-linecap:round;stroke-linejoin:round;stroke-miterlimit:4;stroke-dasharray:2.8, 1.8;stroke-dashoffset:0;stroke-opacity:1"
       id="path209547" />
    <path
       d="m 530.015,438.689 c -3.71,0 -21.708,-7.427 -26.35,-15.553"
       style="fill:none;stroke:#231f20;stroke-width:0.5;stroke-linecap:round;stroke-linejoin:round;stroke-miterlimit:4;stroke-dasharray:2.8, 1.8;stroke-dashoffset:0;stroke-opacity:1"
       id="path209549" />
    <path
       d="m 758.68,728.289 c -14.276,1.045 -22.981,-12.537 -43.526,-15.322 -13.673,-1.854 -40.393,8.705 -47.705,13.929 -7.313,5.223 -6.269,8.009 0.696,10.794 4.297,1.719 18.006,6.619 33.684,11.102"
       style="fill:none;stroke:#231f20;stroke-width:0.5;stroke-linecap:round;stroke-linejoin:round;stroke-miterlimit:4;stroke-dasharray:2.8, 1.8;stroke-dashoffset:0;stroke-opacity:1"
       id="path209551" />
    <path
       d="m 321.323,728.289 c 14.276,1.045 22.982,-12.537 43.526,-15.322 13.673,-1.854 40.394,8.705 47.706,13.929 7.313,5.223 6.268,8.009 -0.696,10.794 -4.297,1.719 -18.007,6.619 -33.685,11.102"
       style="fill:none;stroke:#231f20;stroke-width:0.5;stroke-linecap:round;stroke-linejoin:round;stroke-miterlimit:4;stroke-dasharray:2.8, 1.8;stroke-dashoffset:0;stroke-opacity:1"
       id="path209553" />
    <path
       d="m 552.538,687.779 c -4.179,0 -3.483,3.947 -3.948,9.286 -0.463,5.339 -2.321,19.732 2.786,26 5.109,6.269 14.161,13 28.322,11.84 14.161,-1.161 29.076,-4.429 40.626,-7.197 11.336,-2.716 35.517,-7.893 55.017,-22.053 18.739,-13.609 27.109,-29.34 27.359,-35.605"
       style="fill:none;stroke:#231f20;stroke-width:0.5;stroke-linecap:round;stroke-linejoin:round;stroke-miterlimit:4;stroke-dasharray:2.8, 1.8;stroke-dashoffset:0;stroke-opacity:1"
       id="path209555" />
    <path
       d="m 527.466,687.779 c 4.178,0 3.482,3.947 3.948,9.286 0.462,5.339 2.32,19.732 -2.787,26 -5.108,6.269 -14.161,13 -28.322,11.84 -14.161,-1.161 -29.076,-4.429 -40.626,-7.197 -11.336,-2.716 -35.517,-7.893 -55.017,-22.053 -19.5,-14.161 -27.772,-30.622 -27.35,-36.321"
       style="fill:none;stroke:#231f20;stroke-width:0.5;stroke-linecap:round;stroke-linejoin:round;stroke-miterlimit:4;stroke-dasharray:2.8, 1.8;stroke-dashoffset:0;stroke-opacity:1"
       id="path209557" />
  </g>
</svg>
