<?xml version="1.0" encoding="UTF-8" standalone="no"?>
<!-- Created with Inkscape (http://www.inkscape.org/) -->

<svg
   version="1.1"
   id="svg2"
   width="1440"
   height="1344"
   viewBox="0 0 1440 1344"
   xmlns="http://www.w3.org/2000/svg"
   xmlns:svg="http://www.w3.org/2000/svg">
  <defs
     id="defs6" />
  <g
     id="g10">
    <path
       d="m 543.831,358.027 c 0,-2.136 -1.715,-3.868 -3.829,-3.868 -2.114,0 -3.829,1.732 -3.829,3.868 0,2.136 1.715,3.868 3.829,3.868 2.114,0 3.829,-1.732 3.829,-3.868"
       style="fill:#ffffff;fill-opacity:1;fill-rule:nonzero;stroke:none;stroke-width:0.1"
       id="path674" />
    <path
       d="m 543.831,358.027 c 0,-2.136 -1.715,-3.868 -3.829,-3.868 -2.114,0 -3.829,1.732 -3.829,3.868 0,2.136 1.715,3.868 3.829,3.868 2.114,0 3.829,-1.732 3.829,-3.868 z"
       style="fill:none;stroke:#231f20;stroke-width:0.5;stroke-linecap:butt;stroke-linejoin:miter;stroke-miterlimit:4;stroke-dasharray:none;stroke-opacity:1"
       id="path676" />
    <path
       d="m 680.063,439.7 c 9.276,2.813 28.077,5.239 34.677,1.138 6.221,-3.868 13.737,-12.966 10.36,-21.158 -3.379,-8.188 -6.757,-11.374 -16.214,-15.471 -9.457,-4.094 -19.364,-9.097 -24.319,-11.601 -4.954,-2.502 -10.896,-4.685 -16.449,2.797 -5.405,7.281 -9.898,22.455 -9.221,27.689 0.676,5.233 7.656,12.512 21.166,16.606"
       style="fill:#ffffff;fill-opacity:1;fill-rule:nonzero;stroke:none;stroke-width:0.1"
       id="path678" />
    <path
       d="m 680.063,439.7 c 9.276,2.813 28.077,5.239 34.677,1.138 6.221,-3.868 13.737,-12.966 10.36,-21.158 -3.379,-8.188 -6.757,-11.374 -16.214,-15.471 -9.457,-4.094 -19.364,-9.097 -24.319,-11.601 -4.954,-2.502 -10.896,-4.685 -16.449,2.797 -5.405,7.281 -9.898,22.455 -9.221,27.689 0.676,5.233 7.656,12.512 21.166,16.606 z"
       style="fill:none;stroke:#231f20;stroke-width:0.75;stroke-linecap:round;stroke-linejoin:round;stroke-miterlimit:4;stroke-dasharray:none;stroke-opacity:1"
       id="path680" />
    <path
       d="m 739.961,545.488 c 0,-2.386 -1.917,-4.322 -4.279,-4.322 -2.364,0 -4.279,1.936 -4.279,4.322 0,2.388 1.915,4.322 4.279,4.322 2.362,0 4.279,-1.934 4.279,-4.322"
       style="fill:#ffffff;fill-opacity:1;fill-rule:nonzero;stroke:none;stroke-width:0.1"
       id="path682" />
    <path
       d="m 739.961,545.488 c 0,-2.386 -1.917,-4.322 -4.279,-4.322 -2.364,0 -4.279,1.936 -4.279,4.322 0,2.388 1.915,4.322 4.279,4.322 2.362,0 4.279,-1.934 4.279,-4.322 z"
       style="fill:none;stroke:#231f20;stroke-width:0.5;stroke-linecap:butt;stroke-linejoin:miter;stroke-miterlimit:4;stroke-dasharray:none;stroke-opacity:1"
       id="path684" />
    <path
       d="m 751.218,568.466 c 0,-2.26 -1.812,-4.094 -4.052,-4.094 -2.24,0 -4.053,1.834 -4.053,4.094 0,2.26 1.813,4.095 4.053,4.095 2.24,0 4.052,-1.835 4.052,-4.095"
       style="fill:#ffffff;fill-opacity:1;fill-rule:nonzero;stroke:none;stroke-width:0.1"
       id="path686" />
    <path
       d="m 751.218,568.466 c 0,-2.26 -1.812,-4.094 -4.052,-4.094 -2.24,0 -4.053,1.834 -4.053,4.094 0,2.26 1.813,4.095 4.053,4.095 2.24,0 4.052,-1.835 4.052,-4.095 z"
       style="fill:none;stroke:#231f20;stroke-width:0.5;stroke-linecap:butt;stroke-linejoin:miter;stroke-miterlimit:4;stroke-dasharray:none;stroke-opacity:1"
       id="path688" />
    <path
       d="m 759.326,596.448 c 0,-2.639 -2.118,-4.777 -4.729,-4.777 -2.611,0 -4.728,2.138 -4.728,4.777 0,2.64 2.117,4.779 4.728,4.779 2.611,0 4.729,-2.139 4.729,-4.779"
       style="fill:#ffffff;fill-opacity:1;fill-rule:nonzero;stroke:none;stroke-width:0.1"
       id="path690" />
    <path
       d="m 759.326,596.448 c 0,-2.639 -2.118,-4.777 -4.729,-4.777 -2.611,0 -4.728,2.138 -4.728,4.777 0,2.64 2.117,4.779 4.728,4.779 2.611,0 4.729,-2.139 4.729,-4.779 z"
       style="fill:none;stroke:#231f20;stroke-width:0.5;stroke-linecap:butt;stroke-linejoin:miter;stroke-miterlimit:4;stroke-dasharray:none;stroke-opacity:1"
       id="path692" />
    <path
       d="m 764.505,665.609 c -4.503,-2.503 -9.007,-4.095 -16.663,1.138 -7.655,5.231 -27.021,20.019 -37.604,30.257 -10.584,10.237 -20.043,25.026 -24.546,30.486 -4.503,5.459 -8.782,12.057 -24.318,19.109 -15.539,7.053 -45.936,15.242 -69.129,20.021 -23.195,4.776 -41.56,30.49 -40.083,62.562 0.9,19.565 10.584,45.273 28.235,54.657 14.443,7.679 36.624,12.264 60.261,13.138 27.696,1.023 61.473,-4.778 88.495,-10.011 37.799,-7.32 47.624,-11.488 83.09,-25.479 35.467,-13.991 56.071,-32.76 73.297,-46.751 17.225,-13.991 39.519,-33.784 59.784,-63.132 20.267,-29.348 34.792,-73.027 37.493,-106.471 2.701,-33.442 -8.667,-70.209 -12.498,-80.536 -5.066,-13.649 -11.483,-8.531 -12.16,-12.967 -0.697,-4.588 5.068,-16.038 4.39,-23.546 -0.675,-7.507 -3.376,-29.348 -19.926,-53.918 -16.551,-24.569 -45.938,-53.918 -94.913,-64.496 -48.976,-10.578 -66.542,-10.578 -81.742,0.682 -15.198,11.263 -33.776,26.959 -36.815,48.799 -3.041,21.84 0.338,44.705 5.741,57.33 5.404,12.627 24.319,35.831 27.359,41.291 3.041,5.461 8.107,11.263 10.809,11.263 2.703,0 6.756,-6.827 9.12,-13.652 0,0 4.729,7.85 0.338,28.325 -4.391,20.474 -6.755,35.49 -14.188,52.211 -4.77,10.736 -12.159,13.993 -3.827,29.69"
       style="fill:#ffffff;fill-opacity:1;fill-rule:nonzero;stroke:none;stroke-width:0.1"
       id="path694" />
    <path
       d="m 764.505,665.609 c -4.503,-2.503 -9.007,-4.095 -16.663,1.138 -7.655,5.231 -27.021,20.019 -37.604,30.257 -10.584,10.237 -20.043,25.026 -24.546,30.486 -4.503,5.459 -8.782,12.057 -24.318,19.109 -15.539,7.053 -45.936,15.242 -69.129,20.021 -23.195,4.776 -41.56,30.49 -40.083,62.562 0.9,19.565 10.584,45.273 28.235,54.657 14.443,7.679 36.624,12.264 60.261,13.138 27.696,1.023 61.473,-4.778 88.495,-10.011 37.799,-7.32 47.624,-11.488 83.09,-25.479 35.467,-13.991 56.071,-32.76 73.297,-46.751 17.225,-13.991 39.519,-33.784 59.784,-63.132 20.267,-29.348 34.792,-73.027 37.493,-106.471 2.701,-33.442 -8.667,-70.209 -12.498,-80.536 -5.066,-13.649 -11.483,-8.531 -12.16,-12.967 -0.697,-4.588 5.068,-16.038 4.39,-23.546 -0.675,-7.507 -3.376,-29.348 -19.926,-53.918 -16.551,-24.569 -45.938,-53.918 -94.913,-64.496 -48.976,-10.578 -66.542,-10.578 -81.742,0.682 -15.198,11.263 -33.776,26.959 -36.815,48.799 -3.041,21.84 0.338,44.705 5.741,57.33 5.404,12.627 24.319,35.831 27.359,41.291 3.041,5.461 8.107,11.263 10.809,11.263 2.703,0 6.756,-6.827 9.12,-13.652 0,0 4.729,7.85 0.338,28.325 -4.391,20.474 -6.755,35.49 -14.188,52.211 -4.77,10.736 -12.159,13.993 -3.827,29.69 z"
       style="fill:none;stroke:#231f20;stroke-width:0.75;stroke-linecap:round;stroke-linejoin:round;stroke-miterlimit:4;stroke-dasharray:none;stroke-opacity:1"
       id="path696" />
    <path
       d="m 399.94,439.7 c -9.276,2.813 -28.076,5.239 -34.677,1.138 -6.221,-3.868 -13.736,-12.966 -10.358,-21.158 3.378,-8.188 6.756,-11.374 16.213,-15.471 9.457,-4.094 19.365,-9.097 24.319,-11.601 4.954,-2.502 10.896,-4.685 16.448,2.797 5.406,7.281 9.898,22.455 9.222,27.689 -0.675,5.233 -7.656,12.512 -21.167,16.606"
       style="fill:#ffffff;fill-opacity:1;fill-rule:nonzero;stroke:none;stroke-width:0.1"
       id="path698" />
    <path
       d="m 399.94,439.7 c -9.276,2.813 -28.076,5.239 -34.677,1.138 -6.221,-3.868 -13.736,-12.966 -10.358,-21.158 3.378,-8.188 6.756,-11.374 16.213,-15.471 9.457,-4.094 19.365,-9.097 24.319,-11.601 4.954,-2.502 10.896,-4.685 16.448,2.797 5.406,7.281 9.898,22.455 9.222,27.689 -0.675,5.233 -7.656,12.512 -21.167,16.606 z"
       style="fill:none;stroke:#231f20;stroke-width:0.75;stroke-linecap:round;stroke-linejoin:round;stroke-miterlimit:4;stroke-dasharray:none;stroke-opacity:1"
       id="path700" />
    <path
       d="m 340.043,545.488 c 0,-2.386 1.915,-4.322 4.279,-4.322 2.363,0 4.278,1.936 4.278,4.322 0,2.388 -1.915,4.322 -4.278,4.322 -2.364,0 -4.279,-1.934 -4.279,-4.322"
       style="fill:#ffffff;fill-opacity:1;fill-rule:nonzero;stroke:none;stroke-width:0.1"
       id="path702" />
    <path
       d="m 340.043,545.488 c 0,-2.386 1.915,-4.322 4.279,-4.322 2.363,0 4.278,1.936 4.278,4.322 0,2.388 -1.915,4.322 -4.278,4.322 -2.364,0 -4.279,-1.934 -4.279,-4.322 z"
       style="fill:none;stroke:#231f20;stroke-width:0.5;stroke-linecap:butt;stroke-linejoin:miter;stroke-miterlimit:4;stroke-dasharray:none;stroke-opacity:1"
       id="path704" />
    <path
       d="m 328.785,568.466 c 0,-2.26 1.813,-4.094 4.052,-4.094 2.24,0 4.054,1.834 4.054,4.094 0,2.26 -1.814,4.095 -4.054,4.095 -2.239,0 -4.052,-1.835 -4.052,-4.095"
       style="fill:#ffffff;fill-opacity:1;fill-rule:nonzero;stroke:none;stroke-width:0.1"
       id="path706" />
    <path
       d="m 328.785,568.466 c 0,-2.26 1.813,-4.094 4.052,-4.094 2.24,0 4.054,1.834 4.054,4.094 0,2.26 -1.814,4.095 -4.054,4.095 -2.239,0 -4.052,-1.835 -4.052,-4.095 z"
       style="fill:none;stroke:#231f20;stroke-width:0.5;stroke-linecap:butt;stroke-linejoin:miter;stroke-miterlimit:4;stroke-dasharray:none;stroke-opacity:1"
       id="path708" />
    <path
       d="m 320.678,596.448 c 0,-2.639 2.117,-4.777 4.729,-4.777 2.61,0 4.728,2.138 4.728,4.777 0,2.64 -2.118,4.779 -4.728,4.779 -2.612,0 -4.729,-2.139 -4.729,-4.779"
       style="fill:#ffffff;fill-opacity:1;fill-rule:nonzero;stroke:none;stroke-width:0.1"
       id="path710" />
    <path
       d="m 320.678,596.448 c 0,-2.639 2.117,-4.777 4.729,-4.777 2.61,0 4.728,2.138 4.728,4.777 0,2.64 -2.118,4.779 -4.728,4.779 -2.612,0 -4.729,-2.139 -4.729,-4.779 z"
       style="fill:none;stroke:#231f20;stroke-width:0.5;stroke-linecap:butt;stroke-linejoin:miter;stroke-miterlimit:4;stroke-dasharray:none;stroke-opacity:1"
       id="path712" />
    <path
       d="m 315.499,665.609 c 4.503,-2.503 9.008,-4.095 16.664,1.138 7.655,5.231 27.02,20.019 37.604,30.257 10.583,10.237 20.041,25.026 24.545,30.486 4.503,5.459 8.781,12.057 24.319,19.109 15.537,7.053 45.935,15.242 69.129,20.021 23.194,4.776 41.559,30.49 40.082,62.562 -0.9,19.565 -10.583,45.273 -28.237,54.657 -14.44,7.679 -36.622,12.264 -60.258,13.138 -27.697,1.023 -61.474,-4.778 -88.496,-10.011 -37.799,-7.32 -47.625,-11.488 -83.091,-25.479 -35.466,-13.991 -56.069,-32.76 -73.295,-46.751 -17.226,-13.991 -39.519,-33.784 -59.786,-63.132 -20.265,-29.348 -34.7892,-73.027 -37.4923,-106.471 -2.7023,-33.442 8.6663,-70.209 12.4983,-80.536 5.066,-13.649 11.484,-8.531 12.159,-12.967 0.698,-4.588 -5.066,-16.038 -4.39,-23.546 0.675,-7.507 3.377,-29.348 19.928,-53.918 16.55,-24.569 45.937,-53.918 94.912,-64.496 48.977,-10.578 66.54,-10.578 81.741,0.682 15.199,11.263 33.776,26.959 36.816,48.799 3.04,21.84 -0.338,44.705 -5.742,57.33 -5.403,12.627 -24.318,35.831 -27.359,41.291 -3.04,5.461 -8.106,11.263 -10.808,11.263 -2.702,0 -6.756,-6.827 -9.12,-13.652 0,0 -4.729,7.85 -0.338,28.325 4.391,20.474 6.756,35.49 14.186,52.211 4.772,10.736 12.161,13.993 3.829,29.69"
       style="fill:#ffffff;fill-opacity:1;fill-rule:nonzero;stroke:none;stroke-width:0.1"
       id="path714" />
    <path
       d="m 315.499,665.609 c 4.503,-2.503 9.008,-4.095 16.664,1.138 7.655,5.231 27.02,20.019 37.604,30.257 10.583,10.237 20.041,25.026 24.545,30.486 4.503,5.459 8.781,12.057 24.319,19.109 15.537,7.053 45.935,15.242 69.129,20.021 23.194,4.776 41.559,30.49 40.082,62.562 -0.9,19.565 -10.583,45.273 -28.237,54.657 -14.44,7.679 -36.622,12.264 -60.258,13.138 -27.697,1.023 -61.474,-4.778 -88.496,-10.011 -37.799,-7.32 -47.625,-11.488 -83.091,-25.479 -35.466,-13.991 -56.069,-32.76 -73.295,-46.751 -17.226,-13.991 -39.519,-33.784 -59.786,-63.132 -20.265,-29.348 -34.7892,-73.027 -37.4923,-106.471 -2.7023,-33.442 8.6663,-70.209 12.4983,-80.536 5.066,-13.649 11.484,-8.531 12.159,-12.967 0.698,-4.588 -5.066,-16.038 -4.39,-23.546 0.675,-7.507 3.377,-29.348 19.928,-53.918 16.55,-24.569 45.937,-53.918 94.912,-64.496 48.977,-10.578 66.54,-10.578 81.741,0.682 15.199,11.263 33.776,26.959 36.816,48.799 3.04,21.84 -0.338,44.705 -5.742,57.33 -5.403,12.627 -24.318,35.831 -27.359,41.291 -3.04,5.461 -8.106,11.263 -10.808,11.263 -2.702,0 -6.756,-6.827 -9.12,-13.652 0,0 -4.729,7.85 -0.338,28.325 4.391,20.474 6.756,35.49 14.186,52.211 4.772,10.736 12.161,13.993 3.829,29.69 z"
       style="fill:none;stroke:#231f20;stroke-width:0.75;stroke-linecap:round;stroke-linejoin:round;stroke-miterlimit:4;stroke-dasharray:none;stroke-opacity:1"
       id="path716" />
    <path
       d="m 540.002,701.44 c -1.351,0.512 -2.871,0.683 -4.222,0.683 0,0 4.222,1.877 4.222,5.63 0,-3.753 4.222,-5.63 4.222,-5.63 -1.351,0 -2.871,-0.171 -4.222,-0.683 z m 22.517,-340.91 c 7.995,-0.229 26.571,3.641 41.885,11.376 15.311,7.735 20.377,21.955 21.618,25.934 1.091,3.507 1.124,5.688 -1.804,6.826 -2.927,1.136 -8.107,1.82 -8.107,1.82 2.478,0.457 5.632,1.82 13.963,7.962 8.333,6.142 10.358,9.554 17.112,16.153 6.755,6.596 25.671,21.158 33.553,28.21 7.883,7.054 18.465,20.474 22.969,31.851 4.503,11.373 2.25,20.248 2.25,20.248 6.304,9.781 26.571,40.494 33.778,53.687 7.206,13.197 5.63,27.757 0.675,47.776 -4.954,20.02 -15.085,28.893 -19.139,32.988 -4.054,4.095 -3.604,6.37 -3.604,6.37 0.675,11.376 -5.629,20.93 -7.43,23.433 -1.801,2.502 -2.477,3.413 -0.676,6.142 1.801,2.731 0.901,5.915 -1.351,10.694 -2.253,4.776 -18.24,25.251 -24.995,34.351 -6.755,9.101 -15.312,15.015 -22.518,18.201 -7.207,3.185 -24.319,8.872 -29.274,10.009 -4.954,1.137 -23.643,6.37 -28.148,7.508 -4.504,1.137 -18.013,6.597 -29.497,4.551 -11.484,-2.048 -25.502,-13.139 -29.218,-19.623 -3.715,-6.484 -4.559,-17.574 -4.559,-21.329 0,3.755 -0.844,14.845 -4.56,21.329 -3.715,6.484 -17.732,17.575 -29.217,19.623 -11.484,2.046 -24.993,-3.414 -29.498,-4.551 -4.504,-1.138 -23.193,-6.371 -28.148,-7.508 -4.954,-1.137 -22.066,-6.824 -29.273,-10.009 -7.206,-3.186 -15.763,-9.1 -22.518,-18.201 -6.755,-9.1 -22.743,-29.575 -24.995,-34.351 -2.252,-4.779 -3.152,-7.963 -1.351,-10.694 1.801,-2.729 1.126,-3.64 -0.675,-6.142 -1.802,-2.503 -8.106,-12.057 -7.432,-23.433 0,0 0.451,-2.275 -3.602,-6.37 -4.054,-4.095 -14.186,-12.968 -19.14,-32.988 -4.955,-20.019 -6.531,-34.579 0.675,-47.776 7.207,-13.193 27.474,-43.906 33.777,-53.687 0,0 -2.253,-8.875 2.251,-20.248 4.504,-11.377 15.086,-24.797 22.968,-31.851 7.883,-7.052 26.798,-21.614 33.553,-28.21 6.755,-6.599 8.78,-10.011 17.112,-16.153 8.333,-6.142 11.487,-7.505 13.963,-7.962 0,0 -5.179,-0.684 -8.106,-1.82 -2.929,-1.138 -2.894,-3.319 -1.803,-6.826 1.239,-3.979 6.304,-18.199 21.617,-25.934 15.314,-7.735 33.891,-11.605 41.884,-11.376 7.881,0.229 19.364,1.365 22.518,1.365 3.153,0 14.638,-1.136 22.517,-1.365"
       style="fill:#ffffff;fill-opacity:1;fill-rule:nonzero;stroke:none;stroke-width:0.1"
       id="path718" />
    <path
       d="m 540.002,701.44 c -1.351,0.512 -2.871,0.683 -4.222,0.683 0,0 4.222,1.877 4.222,5.63 0,-3.753 4.222,-5.63 4.222,-5.63 -1.351,0 -2.871,-0.171 -4.222,-0.683 z m 22.517,-340.91 c 7.995,-0.229 26.571,3.641 41.885,11.376 15.311,7.735 20.377,21.955 21.618,25.934 1.091,3.507 1.124,5.688 -1.804,6.826 -2.927,1.136 -8.107,1.82 -8.107,1.82 2.478,0.457 5.632,1.82 13.963,7.962 8.333,6.142 10.358,9.554 17.112,16.153 6.755,6.596 25.671,21.158 33.553,28.21 7.883,7.054 18.465,20.474 22.969,31.851 4.503,11.373 2.25,20.248 2.25,20.248 6.304,9.781 26.571,40.494 33.778,53.687 7.206,13.197 5.63,27.757 0.675,47.776 -4.954,20.02 -15.085,28.893 -19.139,32.988 -4.054,4.095 -3.604,6.37 -3.604,6.37 0.675,11.376 -5.629,20.93 -7.43,23.433 -1.801,2.502 -2.477,3.413 -0.676,6.142 1.801,2.731 0.901,5.915 -1.351,10.694 -2.253,4.776 -18.24,25.251 -24.995,34.351 -6.755,9.101 -15.312,15.015 -22.518,18.201 -7.207,3.185 -24.319,8.872 -29.274,10.009 -4.954,1.137 -23.643,6.37 -28.148,7.508 -4.504,1.137 -18.013,6.597 -29.497,4.551 -11.484,-2.048 -25.502,-13.139 -29.218,-19.623 -3.715,-6.484 -4.559,-17.574 -4.559,-21.329 0,3.755 -0.844,14.845 -4.56,21.329 -3.715,6.484 -17.732,17.575 -29.217,19.623 -11.484,2.046 -24.993,-3.414 -29.498,-4.551 -4.504,-1.138 -23.193,-6.371 -28.148,-7.508 -4.954,-1.137 -22.066,-6.824 -29.273,-10.009 -7.206,-3.186 -15.763,-9.1 -22.518,-18.201 -6.755,-9.1 -22.743,-29.575 -24.995,-34.351 -2.252,-4.779 -3.152,-7.963 -1.351,-10.694 1.801,-2.729 1.126,-3.64 -0.675,-6.142 -1.802,-2.503 -8.106,-12.057 -7.432,-23.433 0,0 0.451,-2.275 -3.602,-6.37 -4.054,-4.095 -14.186,-12.968 -19.14,-32.988 -4.955,-20.019 -6.531,-34.579 0.675,-47.776 7.207,-13.193 27.474,-43.906 33.777,-53.687 0,0 -2.253,-8.875 2.251,-20.248 4.504,-11.377 15.086,-24.797 22.968,-31.851 7.883,-7.052 26.798,-21.614 33.553,-28.21 6.755,-6.599 8.78,-10.011 17.112,-16.153 8.333,-6.142 11.487,-7.505 13.963,-7.962 0,0 -5.179,-0.684 -8.106,-1.82 -2.929,-1.138 -2.894,-3.319 -1.803,-6.826 1.239,-3.979 6.304,-18.199 21.617,-25.934 15.314,-7.735 33.891,-11.605 41.884,-11.376 7.881,0.229 19.364,1.365 22.518,1.365 3.153,0 14.638,-1.136 22.517,-1.365 z"
       style="fill:none;stroke:#231f20;stroke-width:0.75;stroke-linecap:round;stroke-linejoin:round;stroke-miterlimit:4;stroke-dasharray:none;stroke-opacity:1"
       id="path720" />
    <path
       d="m 661.025,410.384 c 0.123,4.519 4.402,8.385 10.48,9.296 6.081,0.91 17.567,-1.137 19.368,-8.188 1.8,-7.052 -3.245,-17.337 -5.225,-18.339"
       style="fill:none;stroke:#231f20;stroke-width:0.5;stroke-linecap:butt;stroke-linejoin:miter;stroke-miterlimit:4;stroke-dasharray:none;stroke-opacity:1"
       id="path722" />
    <path
       d="m 658.22,814.736 c -0.625,-1.056 2.028,-4.778 8.782,-11.944 6.756,-7.167 32.765,-34.467 41.209,-44.022 8.445,-9.555 22.291,-20.816 28.71,-22.181 6.417,-1.365 14.186,-1.024 22.63,4.777 8.445,5.801 33.777,7.849 64.515,-12.967 30.735,-20.817 51.34,-45.728 63.5,-73.369 12.161,-27.642 18.238,-58.696 3.039,-98.281 -15.199,-39.585 -21.616,-49.139 -33.439,-60.742 -11.821,-11.602 -19.59,-18.769 -29.385,-22.865 -9.795,-4.095 -13.174,-4.777 -16.889,-5.117 -3.715,-0.343 -5.403,-3.754 2.027,-4.438 7.431,-0.682 24.657,3.073 42.559,19.111 17.901,16.038 35.127,43.68 43.908,74.051 8.785,30.371 13.513,49.482 3.379,90.773 -10.133,41.292 -40.531,72.346 -56.745,85.996 -16.213,13.649 -66.202,38.562 -92.21,48.799 -26.009,10.237 -47.626,16.038 -64.514,22.181 -16.888,6.142 -30.062,11.944 -31.076,10.238 z"
       style="fill:none;stroke:#231f20;stroke-width:0.5;stroke-linecap:butt;stroke-linejoin:miter;stroke-miterlimit:4;stroke-dasharray:none;stroke-opacity:1"
       id="path724" />
    <path
       d="m 685.488,783.251 c 12.59,-11.513 29.14,-26.87 39.274,-29.941 10.132,-3.071 24.656,-6.824 34.451,-3.071 9.795,3.754 16.552,4.094 32.088,-0.682 15.538,-4.778 31.075,-13.65 34.453,-15.698"
       style="fill:none;stroke:#231f20;stroke-width:0.5;stroke-linecap:butt;stroke-linejoin:miter;stroke-miterlimit:4;stroke-dasharray:none;stroke-opacity:1"
       id="path726" />
    <path
       d="m 713.614,784.364 c 10.809,-4.778 36.142,-17.744 47.289,-20.475 11.145,-2.73 15.874,-1.365 31.074,-7.508 15.2,-6.142 34.79,-17.062 49.989,-29.006 15.2,-11.943 42.559,-40.267 53.368,-75.758 10.81,-35.491 13.849,-56.989 -1.687,-101.011 -15.539,-44.022 -38.846,-65.861 -51.681,-73.71 -12.835,-7.849 -18.357,-10.96 -34.174,-11.278"
       style="fill:none;stroke:#231f20;stroke-width:0.75;stroke-linecap:round;stroke-linejoin:round;stroke-miterlimit:4;stroke-dasharray:none;stroke-opacity:1"
       id="path728" />
    <path
       d="M 540.002,725.668 V 707.753"
       style="fill:none;stroke:#231f20;stroke-width:0.75;stroke-linecap:round;stroke-linejoin:round;stroke-miterlimit:4;stroke-dasharray:none;stroke-opacity:1"
       id="path730" />
    <path
       d="m 612.248,622.605 c 1.613,-2.725 0.937,-6.59 -0.414,-9.776 -1.351,-3.186 -6.567,-16.289 -13.735,-22.638"
       style="fill:none;stroke:#231f20;stroke-width:0.5;stroke-linecap:butt;stroke-linejoin:miter;stroke-miterlimit:4;stroke-dasharray:none;stroke-opacity:1"
       id="path732" />
    <path
       d="m 601.801,594.223 c 0.35,-5.282 1.226,-15.433 0.8,-19.16 -0.676,-5.914 -2.025,-14.105 -8.33,-19.564"
       style="fill:none;stroke:#231f20;stroke-width:0.25;stroke-linecap:butt;stroke-linejoin:miter;stroke-miterlimit:4;stroke-dasharray:none;stroke-opacity:1"
       id="path734" />
    <path
       d="m 607.521,603.412 c 2.737,-6.509 5.663,-11.287 6.564,-18.793 0.903,-7.507 0.451,-15.696 -3.377,-20.93 -3.828,-5.234 -7.206,-13.877 -9.458,-18.429"
       style="fill:none;stroke:#231f20;stroke-width:0.25;stroke-linecap:butt;stroke-linejoin:miter;stroke-miterlimit:4;stroke-dasharray:none;stroke-opacity:1"
       id="path736" />
    <path
       d="m 608.029,604.403 c 8.76,-2.949 22.496,-4.54 45.013,1.374 22.517,5.914 41.208,16.834 49.315,22.976 8.106,6.142 13.51,12.059 15.311,22.978"
       style="fill:none;stroke:#231f20;stroke-width:0.5;stroke-linecap:butt;stroke-linejoin:miter;stroke-miterlimit:4;stroke-dasharray:none;stroke-opacity:1"
       id="path738" />
    <path
       d="m 568.922,558.136 c 2.381,-8.552 -0.998,-43.815 -25.542,-35.625 0,0 -1.128,4.779 -0.451,9.782"
       style="fill:none;stroke:#231f20;stroke-width:0.5;stroke-linecap:butt;stroke-linejoin:miter;stroke-miterlimit:4;stroke-dasharray:none;stroke-opacity:1"
       id="path740" />
    <path
       d="m 544.224,702.123 c 2.702,-0.228 12.892,-2.162 15.145,1.251 2.249,3.412 9.315,15.432 12.833,20.929 3.603,5.631 11.712,6.37 18.691,5.461 6.981,-0.91 19.363,-4.323 27.245,-5.915 7.884,-1.593 22.776,-6.997 38.506,-16.152 20.718,-12.058 47.87,-30.654 56.813,-37.85"
       style="fill:none;stroke:#231f20;stroke-width:0.5;stroke-linecap:butt;stroke-linejoin:miter;stroke-miterlimit:4;stroke-dasharray:none;stroke-opacity:1"
       id="path742" />
    <path
       d="m 549.439,701.535 c 1.601,-0.114 3.623,2.749 4.298,9.119 0.675,6.37 0.452,21.157 4.728,26.162 4.281,5.006 11.935,7.508 18.466,7.508 6.53,0 37.379,-4.324 51.34,-8.872 13.962,-4.55 23.869,-8.191 37.382,-18.656 13.51,-10.464 18.464,-16.153 22.741,-21.157 4.279,-5.005 12.61,-12.285 21.168,-14.333"
       style="fill:none;stroke:#231f20;stroke-width:0.5;stroke-linecap:butt;stroke-linejoin:miter;stroke-miterlimit:4;stroke-dasharray:none;stroke-opacity:1"
       id="path744" />
    <path
       d="m 695.626,624.162 c -4.157,-2.496 -13.311,-7.011 -19.165,3.226 -5.854,10.237 -21.393,31.168 -34.678,43.681 -13.285,12.512 -28.945,22.698 -41.883,27.982 -10.584,4.323 -18.69,6.598 -25.221,5.46 -3.017,-0.525 -6.08,-2.503 -7.207,-1.137 -1.125,1.365 5.632,10.464 16.666,12.058 8.355,1.205 27.922,-0.456 45.26,-8.646 17.34,-8.19 36.479,-22.522 50.665,-34.125 14.187,-11.603 37.109,-24.757 30.602,-36.379"
       style="fill:none;stroke:#231f20;stroke-width:0.5;stroke-linecap:butt;stroke-linejoin:miter;stroke-miterlimit:4;stroke-dasharray:none;stroke-opacity:1"
       id="path746" />
    <path
       d="m 711.138,636.488 c 3.154,-2.501 9.908,-11.146 11.935,-15.469 2.027,-4.323 6.561,-16.689 5.629,-25.025 -1.576,-14.106 -4.053,-18.2 -6.079,-22.068 -2.027,-3.869 -3.671,-7.109 -1.577,-8.189 2.533,-1.31 15.987,-5.115 19.703,0.854"
       style="fill:none;stroke:#231f20;stroke-width:0.5;stroke-linecap:butt;stroke-linejoin:miter;stroke-miterlimit:4;stroke-dasharray:none;stroke-opacity:1"
       id="path748" />
    <path
       d="m 705.958,510.91 c -7.543,-12.174 -22.405,-28.894 -39.968,-43.568 -17.565,-14.674 -37.83,-28.325 -43.236,-31.053 -5.402,-2.732 -11.82,-6.827 -15.874,-11.263 -4.052,-4.436 -11.822,-10.237 -19.252,-13.309 -7.432,-3.071 -11.823,-5.801 -14.524,-8.189 -2.703,-2.389 -1.032,-2.219 1.351,-2.047 2.582,0.185 12.159,0.34 17.225,0.683 5.067,0.339 15.086,1.136 24.431,4.322"
       style="fill:none;stroke:#231f20;stroke-width:0.5;stroke-linecap:butt;stroke-linejoin:miter;stroke-miterlimit:4;stroke-dasharray:none;stroke-opacity:1"
       id="path750" />
    <path
       d="m 584.925,477.92 c -3.334,-4.145 1.043,-9.011 3.715,-11.26 4.054,-3.413 12.084,-6.1 16.214,-5.46 4.391,0.682 9.795,5.118 6.417,11.942 -3.378,6.825 -21.955,10.238 -26.346,4.778 z"
       style="fill:none;stroke:#231f20;stroke-width:0.5;stroke-linecap:butt;stroke-linejoin:miter;stroke-miterlimit:4;stroke-dasharray:none;stroke-opacity:1"
       id="path752" />
    <path
       d="m 581.02,408.687 c -2.213,-1.197 -3.64,-1.519 -6.791,3.03 -3.152,4.552 -7.657,12.285 -8.558,14.788 -0.898,2.503 -1.575,7.282 0.676,9.329 2.253,2.048 13.962,3.869 19.366,4.777 5.404,0.91 19.59,4.093 22.968,5.006 3.378,0.908 9.323,3.52 10.584,-0.683 0.997,-3.324 -1.577,-5.234 -5.855,-7.509 -4.277,-2.274 -13.06,-6.824 -20.491,-9.328 -7.43,-2.5 -16.095,-7.018 -24.035,-7.832"
       style="fill:none;stroke:#231f20;stroke-width:0.5;stroke-linecap:butt;stroke-linejoin:miter;stroke-miterlimit:4;stroke-dasharray:none;stroke-opacity:1"
       id="path754" />
    <path
       d="m 418.979,410.384 c -0.124,4.519 -4.401,8.385 -10.48,9.296 -6.081,0.91 -17.567,-1.137 -19.368,-8.188 -1.8,-7.052 3.245,-17.337 5.226,-18.339"
       style="fill:none;stroke:#231f20;stroke-width:0.5;stroke-linecap:butt;stroke-linejoin:miter;stroke-miterlimit:4;stroke-dasharray:none;stroke-opacity:1"
       id="path756" />
    <path
       d="m 421.783,814.736 c 0.627,-1.056 -2.027,-4.778 -8.782,-11.944 -6.755,-7.167 -32.763,-34.467 -41.208,-44.022 -8.444,-9.555 -22.293,-20.816 -28.71,-22.181 -6.417,-1.365 -14.187,-1.024 -22.631,4.777 -8.444,5.801 -33.777,7.849 -64.514,-12.967 -30.736,-20.817 -51.34,-45.728 -63.5,-73.369 -12.159,-27.642 -18.239,-58.696 -3.04,-98.281 15.2,-39.585 21.617,-49.139 33.439,-60.742 11.823,-11.602 19.591,-18.769 29.386,-22.865 9.796,-4.095 13.173,-4.777 16.889,-5.117 3.715,-0.343 5.403,-3.754 -2.028,-4.438 -7.43,-0.682 -24.656,3.073 -42.558,19.111 -17.901,16.038 -35.128,43.68 -43.91,74.051 -8.782,30.371 -13.51,49.482 -3.377,90.773 10.133,41.292 40.532,72.346 56.745,85.996 16.212,13.649 66.202,38.562 92.21,48.799 26.009,10.237 47.626,16.038 64.514,22.181 16.889,6.142 30.062,11.944 31.075,10.238 z"
       style="fill:none;stroke:#231f20;stroke-width:0.5;stroke-linecap:butt;stroke-linejoin:miter;stroke-miterlimit:4;stroke-dasharray:none;stroke-opacity:1"
       id="path758" />
    <path
       d="m 394.516,783.251 c -12.59,-11.513 -29.14,-26.87 -39.273,-29.941 -10.134,-3.071 -24.658,-6.824 -34.452,-3.071 -9.795,3.754 -16.551,4.094 -32.089,-0.682 -15.537,-4.778 -31.075,-13.65 -34.452,-15.698"
       style="fill:none;stroke:#231f20;stroke-width:0.5;stroke-linecap:butt;stroke-linejoin:miter;stroke-miterlimit:4;stroke-dasharray:none;stroke-opacity:1"
       id="path760" />
    <path
       d="m 366.388,784.364 c -10.807,-4.778 -36.14,-17.744 -47.287,-20.475 -11.146,-2.73 -15.875,-1.365 -31.074,-7.508 -15.2,-6.142 -34.79,-17.062 -49.99,-29.006 -15.2,-11.943 -42.559,-40.267 -53.368,-75.758 -10.808,-35.491 -13.848,-56.989 1.689,-101.011 15.538,-44.022 38.844,-65.861 51.679,-73.71 12.836,-7.849 18.358,-10.96 34.173,-11.278"
       style="fill:none;stroke:#231f20;stroke-width:0.75;stroke-linecap:round;stroke-linejoin:round;stroke-miterlimit:4;stroke-dasharray:none;stroke-opacity:1"
       id="path762" />
    <path
       d="m 543.717,623.292 c -2.279,0.598 -3.124,4.779 -3.715,4.779 -0.591,0 -1.435,-4.181 -3.715,-4.779 -1.349,-0.351 -7.432,-2.388 -5.067,-6.483 2.364,-4.095 5.742,-8.531 6.079,-10.92 0.338,-2.389 2.703,-2.729 2.703,-2.729 0,0 2.364,0.34 2.703,2.729 0.337,2.389 3.714,6.825 6.078,10.92 2.366,4.095 -3.717,6.132 -5.066,6.483"
       style="fill:#706d6e;fill-opacity:1;fill-rule:nonzero;stroke:none;stroke-width:0.1"
       id="path764" />
    <path
       d="m 543.717,623.292 c -2.279,0.598 -3.124,4.779 -3.715,4.779 -0.591,0 -1.435,-4.181 -3.715,-4.779 -1.349,-0.351 -7.432,-2.388 -5.067,-6.483 2.364,-4.095 5.742,-8.531 6.079,-10.92 0.338,-2.389 2.703,-2.729 2.703,-2.729 0,0 2.364,0.34 2.703,2.729 0.337,2.389 3.714,6.825 6.078,10.92 2.366,4.095 -3.717,6.132 -5.066,6.483 z"
       style="fill:none;stroke:#231f20;stroke-width:0.75;stroke-linecap:round;stroke-linejoin:round;stroke-miterlimit:4;stroke-dasharray:none;stroke-opacity:1"
       id="path766" />
    <path
       d="m 467.756,622.605 c -1.613,-2.725 -0.938,-6.59 0.413,-9.776 1.352,-3.186 6.567,-16.289 13.737,-22.638"
       style="fill:none;stroke:#231f20;stroke-width:0.5;stroke-linecap:butt;stroke-linejoin:miter;stroke-miterlimit:4;stroke-dasharray:none;stroke-opacity:1"
       id="path768" />
    <path
       d="m 478.203,594.223 c -0.35,-5.282 -1.226,-15.433 -0.8,-19.16 0.675,-5.914 2.025,-14.105 8.33,-19.564"
       style="fill:none;stroke:#231f20;stroke-width:0.25;stroke-linecap:butt;stroke-linejoin:miter;stroke-miterlimit:4;stroke-dasharray:none;stroke-opacity:1"
       id="path770" />
    <path
       d="m 472.483,603.412 c -2.737,-6.509 -5.664,-11.287 -6.565,-18.793 -0.901,-7.507 -0.45,-15.696 3.378,-20.93 3.828,-5.234 7.206,-13.877 9.457,-18.429"
       style="fill:none;stroke:#231f20;stroke-width:0.25;stroke-linecap:butt;stroke-linejoin:miter;stroke-miterlimit:4;stroke-dasharray:none;stroke-opacity:1"
       id="path772" />
    <path
       d="m 471.974,604.403 c -8.758,-2.949 -22.495,-4.54 -45.013,1.374 -22.516,5.914 -41.207,16.834 -49.314,22.976 -8.106,6.142 -13.511,12.059 -15.312,22.978"
       style="fill:none;stroke:#231f20;stroke-width:0.5;stroke-linecap:butt;stroke-linejoin:miter;stroke-miterlimit:4;stroke-dasharray:none;stroke-opacity:1"
       id="path774" />
    <path
       d="m 511.083,558.136 c -2.381,-8.552 0.997,-43.815 25.541,-35.625 0,0 1.128,4.779 0.452,9.782"
       style="fill:none;stroke:#231f20;stroke-width:0.5;stroke-linecap:butt;stroke-linejoin:miter;stroke-miterlimit:4;stroke-dasharray:none;stroke-opacity:1"
       id="path776" />
    <path
       d="m 535.78,702.123 c -2.702,-0.228 -12.892,-2.162 -15.144,1.251 -2.252,3.412 -9.316,15.432 -12.834,20.929 -3.603,5.631 -11.712,6.37 -18.691,5.461 -6.98,-0.91 -19.363,-4.323 -27.245,-5.915 -7.883,-1.593 -22.776,-6.997 -38.506,-16.152 -20.718,-12.058 -47.869,-30.654 -56.812,-37.85"
       style="fill:none;stroke:#231f20;stroke-width:0.5;stroke-linecap:butt;stroke-linejoin:miter;stroke-miterlimit:4;stroke-dasharray:none;stroke-opacity:1"
       id="path778" />
    <path
       d="m 530.567,701.535 c -1.604,-0.114 -3.625,2.749 -4.301,9.119 -0.676,6.37 -0.449,21.157 -4.728,26.162 -4.279,5.006 -11.934,7.508 -18.465,7.508 -6.531,0 -37.378,-4.324 -51.341,-8.872 -13.962,-4.55 -23.869,-8.191 -37.38,-18.656 -13.511,-10.464 -18.464,-16.153 -22.742,-21.157 -4.279,-5.005 -12.611,-12.285 -21.168,-14.333"
       style="fill:none;stroke:#231f20;stroke-width:0.5;stroke-linecap:butt;stroke-linejoin:miter;stroke-miterlimit:4;stroke-dasharray:none;stroke-opacity:1"
       id="path780" />
    <path
       d="m 384.377,624.162 c 4.157,-2.496 13.312,-7.011 19.166,3.226 5.855,10.237 21.393,31.168 34.678,43.681 13.285,12.512 28.945,22.698 41.884,27.982 10.583,4.323 18.688,6.598 25.219,5.46 3.018,-0.525 6.081,-2.503 7.207,-1.137 1.126,1.365 -5.632,10.464 -16.665,12.058 -8.355,1.205 -27.922,-0.456 -45.26,-8.646 -17.339,-8.19 -36.48,-22.522 -50.666,-34.125 -14.186,-11.603 -37.108,-24.757 -30.602,-36.379"
       style="fill:none;stroke:#231f20;stroke-width:0.5;stroke-linecap:butt;stroke-linejoin:miter;stroke-miterlimit:4;stroke-dasharray:none;stroke-opacity:1"
       id="path782" />
    <path
       d="m 368.866,636.488 c -3.153,-2.501 -9.908,-11.146 -11.934,-15.469 -2.027,-4.323 -6.562,-16.689 -5.631,-25.025 1.577,-14.106 4.053,-18.2 6.08,-22.068 2.027,-3.869 3.67,-7.109 1.577,-8.189 -2.533,-1.31 -15.988,-5.115 -19.703,0.854"
       style="fill:none;stroke:#231f20;stroke-width:0.5;stroke-linecap:butt;stroke-linejoin:miter;stroke-miterlimit:4;stroke-dasharray:none;stroke-opacity:1"
       id="path784" />
    <path
       d="m 374.045,510.91 c 7.543,-12.174 22.405,-28.894 39.969,-43.568 17.565,-14.674 37.83,-28.325 43.235,-31.053 5.404,-2.732 11.822,-6.827 15.875,-11.263 4.052,-4.436 11.822,-10.237 19.252,-13.309 7.431,-3.071 11.823,-5.801 14.525,-8.189 2.702,-2.389 1.031,-2.219 -1.352,-2.047 -2.582,0.185 -12.159,0.34 -17.225,0.683 -5.068,0.339 -15.086,1.136 -24.432,4.322"
       style="fill:none;stroke:#231f20;stroke-width:0.5;stroke-linecap:butt;stroke-linejoin:miter;stroke-miterlimit:4;stroke-dasharray:none;stroke-opacity:1"
       id="path786" />
    <path
       d="m 495.079,477.92 c 3.334,-4.145 -1.043,-9.011 -3.716,-11.26 -4.053,-3.413 -12.083,-6.1 -16.212,-5.46 -4.392,0.682 -9.796,5.118 -6.418,11.942 3.378,6.825 21.955,10.238 26.346,4.778 z"
       style="fill:none;stroke:#231f20;stroke-width:0.5;stroke-linecap:butt;stroke-linejoin:miter;stroke-miterlimit:4;stroke-dasharray:none;stroke-opacity:1"
       id="path788" />
    <path
       d="m 537.076,532.293 c 0,0 -5.181,1.365 -7.658,2.275 -2.477,0.91 -7.43,3.868 -9.007,7.281 -1.576,3.411 -3.828,7.052 -5.63,10.009 -0.626,1.028 -0.483,1.897 0.036,2.69 -2.702,2.048 -8.254,8.685 -10.618,11.755 -2.365,3.071 -3.716,6.486 -7.431,10.58 -3.717,4.094 -12.498,10.579 -14.862,13.308 -1.188,1.373 -1.354,3.485 -3.604,8.077 -2.229,4.552 -6.538,11.566 -8.556,16.152 -3.603,8.191 -1.689,10.58 0.675,18.428 2.365,7.85 16.889,26.618 22.63,31.396 5.742,4.777 13.85,4.436 22.294,5.119 8.445,0.682 19.59,-1.024 24.657,-1.024 5.067,0 16.213,1.706 24.658,1.024 8.444,-0.683 16.55,-0.342 22.291,-5.119 5.743,-4.778 20.267,-23.546 22.631,-31.396 2.364,-7.848 4.279,-10.237 0.676,-18.428 -2.017,-4.586 -6.326,-11.6 -8.557,-16.152 -2.25,-4.592 -2.415,-6.704 -3.602,-8.077 -2.365,-2.729 -11.148,-9.214 -14.863,-13.308 -3.715,-4.094 -5.067,-7.509 -7.431,-10.58 -2.364,-3.07 -7.916,-9.707 -10.618,-11.755 0.519,-0.793 0.661,-1.662 0.036,-2.69 -1.802,-2.957 -4.055,-6.598 -5.631,-10.009 -1.576,-3.413 -6.53,-6.371 -9.006,-7.281 -2.477,-0.91 -7.657,-2.275 -7.657,-2.275"
       style="fill:none;stroke:#231f20;stroke-width:0.5;stroke-linecap:butt;stroke-linejoin:miter;stroke-miterlimit:4;stroke-dasharray:none;stroke-opacity:1"
       id="path790" />
    <path
       d="m 514.764,471.044 c 5.18,-1.59 21.636,-4.27 25.238,-4.27 3.601,0 20.057,2.68 25.237,4.27"
       style="fill:none;stroke:#231f20;stroke-width:0.5;stroke-linecap:butt;stroke-linejoin:miter;stroke-miterlimit:4;stroke-dasharray:none;stroke-opacity:1"
       id="path792" />
    <path
       d="m 520.272,451.604 14.155,-1.618 5.575,-0.501 5.574,0.501 14.157,1.618"
       style="fill:none;stroke:#231f20;stroke-width:0.5;stroke-linecap:butt;stroke-linejoin:miter;stroke-miterlimit:4;stroke-dasharray:none;stroke-opacity:1"
       id="path794" />
    <path
       d="m 498.983,408.687 c 2.214,-1.197 3.64,-1.519 6.792,3.03 3.152,4.552 7.657,12.285 8.557,14.788 0.9,2.503 1.576,7.282 -0.675,9.329 -2.253,2.048 -13.962,3.869 -19.366,4.777 -5.404,0.91 -19.59,4.093 -22.968,5.006 -3.378,0.908 -9.323,3.52 -10.584,-0.683 -0.998,-3.324 1.577,-5.234 5.855,-7.509 4.278,-2.274 13.06,-6.824 20.49,-9.328 7.431,-2.5 16.096,-7.018 24.037,-7.832"
       style="fill:none;stroke:#231f20;stroke-width:0.5;stroke-linecap:butt;stroke-linejoin:miter;stroke-miterlimit:4;stroke-dasharray:none;stroke-opacity:1"
       id="path796" />
    <path
       d="m 600.205,606.993 c 0,-0.61 -0.488,-1.104 -1.094,-1.104 -0.604,0 -1.092,0.494 -1.092,1.104 0,0.61 0.488,1.103 1.092,1.103 0.606,0 1.094,-0.493 1.094,-1.103"
       style="fill:#231f20;fill-opacity:1;fill-rule:nonzero;stroke:none;stroke-width:0.1"
       id="path798" />
    <path
       d="m 595.813,604.378 c 0,-0.612 -0.486,-1.104 -1.093,-1.104 -0.603,0 -1.092,0.492 -1.092,1.104 0,0.61 0.489,1.103 1.092,1.103 0.607,0 1.093,-0.493 1.093,-1.103"
       style="fill:#231f20;fill-opacity:1;fill-rule:nonzero;stroke:none;stroke-width:0.1"
       id="path800" />
    <path
       d="m 604.37,614.387 c 0,-0.61 -0.488,-1.103 -1.094,-1.103 -0.604,0 -1.091,0.493 -1.091,1.103 0,0.611 0.487,1.105 1.091,1.105 0.606,0 1.094,-0.494 1.094,-1.105"
       style="fill:#231f20;fill-opacity:1;fill-rule:nonzero;stroke:none;stroke-width:0.1"
       id="path802" />
    <path
       d="m 605.946,616.889 c 0,-0.61 -0.486,-1.103 -1.092,-1.103 -0.604,0 -1.094,0.493 -1.094,1.103 0,0.611 0.49,1.104 1.094,1.104 0.606,0 1.092,-0.493 1.092,-1.104"
       style="fill:#231f20;fill-opacity:1;fill-rule:nonzero;stroke:none;stroke-width:0.1"
       id="path804" />
    <path
       d="m 607.296,619.62 c 0,-0.612 -0.485,-1.104 -1.091,-1.104 -0.606,0 -1.092,0.492 -1.092,1.104 0,0.61 0.486,1.103 1.092,1.103 0.606,0 1.091,-0.493 1.091,-1.103"
       style="fill:#231f20;fill-opacity:1;fill-rule:nonzero;stroke:none;stroke-width:0.1"
       id="path806" />
    <path
       d="m 479.8,606.993 c 0,-0.61 0.486,-1.104 1.092,-1.104 0.605,0 1.093,0.494 1.093,1.104 0,0.61 -0.488,1.103 -1.093,1.103 -0.606,0 -1.092,-0.493 -1.092,-1.103"
       style="fill:#231f20;fill-opacity:1;fill-rule:nonzero;stroke:none;stroke-width:0.1"
       id="path808" />
    <path
       d="m 484.191,604.378 c 0,-0.612 0.485,-1.104 1.093,-1.104 0.603,0 1.092,0.492 1.092,1.104 0,0.61 -0.489,1.103 -1.092,1.103 -0.608,0 -1.093,-0.493 -1.093,-1.103"
       style="fill:#231f20;fill-opacity:1;fill-rule:nonzero;stroke:none;stroke-width:0.1"
       id="path810" />
    <path
       d="m 475.635,614.387 c 0,-0.61 0.485,-1.103 1.092,-1.103 0.605,0 1.093,0.493 1.093,1.103 0,0.611 -0.488,1.105 -1.093,1.105 -0.607,0 -1.092,-0.494 -1.092,-1.105"
       style="fill:#231f20;fill-opacity:1;fill-rule:nonzero;stroke:none;stroke-width:0.1"
       id="path812" />
    <path
       d="m 474.058,616.889 c 0,-0.61 0.485,-1.103 1.093,-1.103 0.603,0 1.092,0.493 1.092,1.103 0,0.611 -0.489,1.104 -1.092,1.104 -0.608,0 -1.093,-0.493 -1.093,-1.104"
       style="fill:#231f20;fill-opacity:1;fill-rule:nonzero;stroke:none;stroke-width:0.1"
       id="path814" />
    <path
       d="m 472.707,619.62 c 0,-0.612 0.486,-1.104 1.092,-1.104 0.605,0 1.092,0.492 1.092,1.104 0,0.61 -0.487,1.103 -1.092,1.103 -0.606,0 -1.092,-0.493 -1.092,-1.103"
       style="fill:#231f20;fill-opacity:1;fill-rule:nonzero;stroke:none;stroke-width:0.1"
       id="path816" />
    <path
       d="m 782.182,555.383 c 1.351,-4.777 4.391,-19.451 9.795,-26.275 5.404,-6.825 13.849,-0.683 19.592,4.096 5.741,4.777 22.63,19.451 28.371,52.893 5.743,33.443 -10.809,64.496 -32.425,75.417 -21.618,10.92 -34.34,7.507 -43.01,4.095"
       style="fill:none;stroke:#231f20;stroke-width:0.5;stroke-linecap:butt;stroke-linejoin:miter;stroke-miterlimit:4;stroke-dasharray:none;stroke-opacity:1"
       id="path818" />
    <path
       d="m 297.822,555.383 c -1.351,-4.777 -4.391,-19.451 -9.795,-26.275 -5.404,-6.825 -13.849,-0.683 -19.591,4.096 -5.742,4.777 -22.631,19.451 -28.373,52.893 -5.742,33.443 10.81,64.496 32.427,75.417 21.617,10.92 34.339,7.507 43.009,4.095"
       style="fill:none;stroke:#231f20;stroke-width:0.5;stroke-linecap:butt;stroke-linejoin:miter;stroke-miterlimit:4;stroke-dasharray:none;stroke-opacity:1"
       id="path820" />
    <path
       d="m 878.108,658.784 c -7.769,13.65 -32.763,37.196 -40.194,42.656 -7.43,1.706 -12.956,-0.066 -15.2,-1.024 2.702,-2.047 34.79,-30.03 45.937,-49.823 11.145,-19.793 14.862,-33.101 14.524,-45.728 -0.338,-12.625 -1.014,-16.721 -4.391,-27.641 3.04,2.047 10.132,6.142 13.174,9.896 1.068,1.322 1.348,2.731 1.348,2.731 0.583,41.795 -7.429,55.282 -15.198,68.933"
       style="fill:#b2b1b1;fill-opacity:1;fill-rule:nonzero;stroke:none;stroke-width:0.1"
       id="path822" />
    <path
       d="m 201.896,658.784 c 7.769,13.65 32.764,37.196 40.194,42.656 7.431,1.706 12.956,-0.066 15.2,-1.024 -2.703,-2.047 -34.79,-30.03 -45.937,-49.823 -11.146,-19.793 -14.861,-33.101 -14.524,-45.728 0.338,-12.625 1.013,-16.721 4.391,-27.641 -3.04,2.047 -10.134,6.142 -13.173,9.896 -1.07,1.322 -1.351,2.731 -1.351,2.731 -0.581,41.795 7.43,55.282 15.2,68.933"
       style="fill:#b2b1b1;fill-opacity:1;fill-rule:nonzero;stroke:none;stroke-width:0.1"
       id="path824" />
    <path
       d="m 506.901,403.528 c 19.591,-12.967 28.034,-12.627 33.101,-12.627 5.067,0 13.51,-0.34 33.102,12.627"
       style="fill:none;stroke:#231f20;stroke-width:0.5;stroke-linecap:butt;stroke-linejoin:miter;stroke-miterlimit:4;stroke-dasharray:none;stroke-opacity:1"
       id="path826" />
    <path
       d="m 460.681,442.513 c -0.524,-1.563 0.063,-8.007 3.235,-10.035"
       style="fill:none;stroke:#231f20;stroke-width:0.5;stroke-linecap:butt;stroke-linejoin:miter;stroke-miterlimit:4;stroke-dasharray:none;stroke-opacity:1"
       id="path828" />
    <path
       d="m 619.323,442.513 c 0.523,-1.563 -0.063,-8.007 -3.237,-10.035"
       style="fill:none;stroke:#231f20;stroke-width:0.5;stroke-linecap:butt;stroke-linejoin:miter;stroke-miterlimit:4;stroke-dasharray:none;stroke-opacity:1"
       id="path830" />
    <path
       d="m 900.605,560.982 60.53,-22.834"
       style="fill:none;stroke:#231f20;stroke-width:0.5;stroke-linecap:round;stroke-linejoin:round;stroke-miterlimit:4;stroke-dasharray:2.8, 1.8;stroke-dashoffset:0;stroke-opacity:1"
       id="path832" />
    <path
       d="m 906.753,586.507 63.566,-21.91"
       style="fill:none;stroke:#231f20;stroke-width:0.5;stroke-linecap:round;stroke-linejoin:round;stroke-miterlimit:4;stroke-dasharray:2.8, 1.8;stroke-dashoffset:0;stroke-opacity:1"
       id="path834" />
    <path
       d="m 908.374,611.685 72.237,-6.847"
       style="fill:none;stroke:#231f20;stroke-width:0.5;stroke-linecap:round;stroke-linejoin:round;stroke-miterlimit:4;stroke-dasharray:2.8, 1.8;stroke-dashoffset:0;stroke-opacity:1"
       id="path836" />
    <path
       d="m 903.114,646.078 76.889,19.234"
       style="fill:none;stroke:#231f20;stroke-width:0.5;stroke-linecap:round;stroke-linejoin:round;stroke-miterlimit:4;stroke-dasharray:2.8, 1.8;stroke-dashoffset:0;stroke-opacity:1"
       id="path838" />
    <path
       d="m 895.78,668.193 74.68,32.274"
       style="fill:none;stroke:#231f20;stroke-width:0.5;stroke-linecap:round;stroke-linejoin:round;stroke-miterlimit:4;stroke-dasharray:2.8, 1.8;stroke-dashoffset:0;stroke-opacity:1"
       id="path840" />
    <path
       d="m 875.617,702.287 68.785,50.646"
       style="fill:none;stroke:#231f20;stroke-width:0.5;stroke-linecap:round;stroke-linejoin:round;stroke-miterlimit:4;stroke-dasharray:2.8, 1.8;stroke-dashoffset:0;stroke-opacity:1"
       id="path842" />
    <path
       d="m 864.329,715.836 62.744,59.303"
       style="fill:none;stroke:#231f20;stroke-width:0.5;stroke-linecap:round;stroke-linejoin:round;stroke-miterlimit:4;stroke-dasharray:2.8, 1.8;stroke-dashoffset:0;stroke-opacity:1"
       id="path844" />
    <path
       d="m 815.284,752.968 42.676,83.569"
       style="fill:none;stroke:#231f20;stroke-width:0.5;stroke-linecap:round;stroke-linejoin:round;stroke-miterlimit:4;stroke-dasharray:2.8, 1.8;stroke-dashoffset:0;stroke-opacity:1"
       id="path846" />
    <path
       d="m 755.618,781.596 26.782,91.43"
       style="fill:none;stroke:#231f20;stroke-width:0.5;stroke-linecap:round;stroke-linejoin:round;stroke-miterlimit:4;stroke-dasharray:2.8, 1.8;stroke-dashoffset:0;stroke-opacity:1"
       id="path848" />
    <path
       d="m 684.579,806.238 13.208,86.279"
       style="fill:none;stroke:#231f20;stroke-width:0.5;stroke-linecap:round;stroke-linejoin:round;stroke-miterlimit:4;stroke-dasharray:2.8, 1.8;stroke-dashoffset:0;stroke-opacity:1"
       id="path850" />
    <path
       d="m 664.624,813.673 -6.058,83.124"
       style="fill:none;stroke:#231f20;stroke-width:0.5;stroke-linecap:round;stroke-linejoin:round;stroke-miterlimit:4;stroke-dasharray:2.8, 1.8;stroke-dashoffset:0;stroke-opacity:1"
       id="path852" />
    <path
       d="m 658.22,814.736 -42.661,79.813"
       style="fill:none;stroke:#231f20;stroke-width:0.5;stroke-linecap:round;stroke-linejoin:round;stroke-miterlimit:4;stroke-dasharray:2.8, 1.8;stroke-dashoffset:0;stroke-opacity:1"
       id="path854" />
    <path
       d="m 559.39,859.004 98.83,-44.268"
       style="fill:none;stroke:#231f20;stroke-width:0.5;stroke-linecap:round;stroke-linejoin:round;stroke-miterlimit:4;stroke-dasharray:2.8, 1.8;stroke-dashoffset:0;stroke-opacity:1"
       id="path856" />
    <path
       d="m 553.257,812.299 c 25.249,7.555 86.386,8.238 104.963,2.437"
       style="fill:none;stroke:#231f20;stroke-width:0.5;stroke-linecap:round;stroke-linejoin:round;stroke-miterlimit:4;stroke-dasharray:2.8, 1.8;stroke-dashoffset:0;stroke-opacity:1"
       id="path858" />
    <path
       d="m 592.245,766.62 c 12.946,8.531 59.414,34.302 72.152,38.991"
       style="fill:none;stroke:#231f20;stroke-width:0.5;stroke-linecap:round;stroke-linejoin:round;stroke-miterlimit:4;stroke-dasharray:2.8, 1.8;stroke-dashoffset:0;stroke-opacity:1"
       id="path860" />
    <path
       d="m 661.374,746.599 22.137,38.748"
       style="fill:none;stroke:#231f20;stroke-width:0.5;stroke-linecap:round;stroke-linejoin:round;stroke-miterlimit:4;stroke-dasharray:2.8, 1.8;stroke-dashoffset:0;stroke-opacity:1"
       id="path862" />
    <path
       d="m 728.1,481.168 79.755,-14.667"
       style="fill:none;stroke:#231f20;stroke-width:0.5;stroke-linecap:round;stroke-linejoin:round;stroke-miterlimit:4;stroke-dasharray:2.8, 1.8;stroke-dashoffset:0;stroke-opacity:1"
       id="path864" />
    <path
       d="m 757.742,416.716 50.244,48.55"
       style="fill:none;stroke:#231f20;stroke-width:0.5;stroke-linecap:round;stroke-linejoin:round;stroke-miterlimit:4;stroke-dasharray:2.8, 1.8;stroke-dashoffset:0;stroke-opacity:1"
       id="path866" />
    <path
       d="m 760.739,524.33 c 7.093,-4.778 31.577,-17.063 31.238,4.778"
       style="fill:none;stroke:#231f20;stroke-width:0.5;stroke-linecap:round;stroke-linejoin:round;stroke-miterlimit:4;stroke-dasharray:2.8, 1.8;stroke-dashoffset:0;stroke-opacity:1"
       id="path868" />
    <path
       d="m 319.264,524.33 c -7.093,-4.778 -31.577,-17.063 -31.238,4.778"
       style="fill:none;stroke:#231f20;stroke-width:0.5;stroke-linecap:round;stroke-linejoin:round;stroke-miterlimit:4;stroke-dasharray:2.8, 1.8;stroke-dashoffset:0;stroke-opacity:1"
       id="path870" />
    <path
       d="m 804.476,512.101 c 3.282,-0.914 7.174,-1.539 11.484,-1.763 13.171,-0.682 27.359,6.485 37.83,20.476 10.47,13.992 20.941,39.586 24.994,46.41"
       style="fill:none;stroke:#231f20;stroke-width:0.5;stroke-linecap:round;stroke-linejoin:round;stroke-miterlimit:4;stroke-dasharray:2.8, 1.8;stroke-dashoffset:0;stroke-opacity:1"
       id="path872" />
    <path
       d="m 834.581,566.158 c 5.359,-2.583 22.585,-2.071 44.203,11.066"
       style="fill:none;stroke:#231f20;stroke-width:0.5;stroke-linecap:round;stroke-linejoin:round;stroke-miterlimit:4;stroke-dasharray:2.8, 1.8;stroke-dashoffset:0;stroke-opacity:1"
       id="path874" />
    <path
       d="m 752.796,521.941 c 3.706,0.44 5.066,-4.436 6.417,-11.942 1.352,-7.509 3.717,-27.983 -4.727,-29.008 -8.444,-1.024 -10.353,16.023 -9.797,20.476 1.263,10.079 2.364,19.791 8.107,20.474 z"
       style="fill:none;stroke:#231f20;stroke-width:0.5;stroke-linecap:round;stroke-linejoin:round;stroke-miterlimit:4;stroke-dasharray:2.8, 1.8;stroke-dashoffset:0;stroke-opacity:1"
       id="path876" />
    <path
       d="m 802.786,625.682 c 6.756,2.474 11.775,-1.888 13.51,-5.119 1.606,-2.986 3.632,-10.323 -5.742,-13.31 -9.881,-3.147 -12.159,-0.51 -13.847,3.413 -1.688,3.922 0.949,13.137 6.079,15.016"
       style="fill:#b2b1b1;fill-opacity:1;fill-rule:nonzero;stroke:none;stroke-width:0.1"
       id="path878" />
    <path
       d="m 802.786,625.682 c 6.756,2.474 11.775,-1.888 13.51,-5.119 1.606,-2.986 3.632,-10.323 -5.742,-13.31 -9.881,-3.147 -12.159,-0.51 -13.847,3.413 -1.688,3.922 0.949,13.137 6.079,15.016 z"
       style="fill:none;stroke:#231f20;stroke-width:0.5;stroke-linecap:round;stroke-linejoin:round;stroke-miterlimit:4;stroke-dasharray:2.8, 1.8;stroke-dashoffset:0;stroke-opacity:1"
       id="path880" />
    <path
       d="m 754.418,738.447 c -5.337,-3.393 -13.445,-10.729 -12.092,-27.963 1.292,-16.502 8.944,-32.352 23.387,-44.414"
       style="fill:none;stroke:#231f20;stroke-width:0.5;stroke-linecap:round;stroke-linejoin:round;stroke-miterlimit:4;stroke-dasharray:2.8, 1.8;stroke-dashoffset:0;stroke-opacity:1"
       id="path882" />
    <path
       d="m 738.392,673.619 c 3.665,7.47 5.779,14.794 8.923,16.721"
       style="fill:none;stroke:#231f20;stroke-width:0.5;stroke-linecap:round;stroke-linejoin:round;stroke-miterlimit:4;stroke-dasharray:2.8, 1.8;stroke-dashoffset:0;stroke-opacity:1"
       id="path884" />
    <path
       d="m 878.784,577.224 c 3.377,10.92 4.053,15.016 4.391,27.641 0.338,12.627 -3.379,25.935 -14.524,45.728 -11.147,19.793 -43.235,47.776 -45.937,49.823 -2.702,2.048 -8.107,6.143 -20.604,10.58 -12.498,4.436 -21.617,-5.12 -26.345,-11.945 -4.729,-6.825 -14.807,-13.733 -23.731,-17.553"
       style="fill:none;stroke:#231f20;stroke-width:0.5;stroke-linecap:round;stroke-linejoin:round;stroke-miterlimit:4;stroke-dasharray:2.8, 1.8;stroke-dashoffset:0;stroke-opacity:1"
       id="path886" />
    <path
       d="m 810.411,659.907 c -2.896,4.337 -4.172,15.439 -2.896,22.424 2.027,11.09 10.809,16.209 15.199,18.085 2.244,0.958 7.77,2.73 15.2,1.024 7.431,-1.706 20.649,-5.163 24.004,-6.165"
       style="fill:none;stroke:#231f20;stroke-width:0.5;stroke-linecap:round;stroke-linejoin:round;stroke-miterlimit:4;stroke-dasharray:2.8, 1.8;stroke-dashoffset:0;stroke-opacity:1"
       id="path888" />
    <path
       d="m 837.914,701.44 c 7.431,-5.46 32.425,-29.006 40.194,-42.656 7.769,-13.651 15.781,-27.138 15.198,-68.933"
       style="fill:none;stroke:#231f20;stroke-width:0.5;stroke-linecap:round;stroke-linejoin:round;stroke-miterlimit:4;stroke-dasharray:2.8, 1.8;stroke-dashoffset:0;stroke-opacity:1"
       id="path890" />
    <path
       d="m 878.784,577.224 c 3.04,2.047 10.132,6.142 13.174,9.896 1.068,1.322 1.348,2.731 1.348,2.731 0,0 6.26,3.926 6.293,10.405"
       style="fill:none;stroke:#231f20;stroke-width:0.5;stroke-linecap:round;stroke-linejoin:round;stroke-miterlimit:4;stroke-dasharray:2.8, 1.8;stroke-dashoffset:0;stroke-opacity:1"
       id="path892" />
    <path
       d="m 812.424,692.873 c 16.37,-15.149 34.948,-41.596 41.366,-53.882 6.418,-12.285 9.733,-22.529 10.47,-30.713 0.784,-8.722 0.969,-13.649 0.969,-16.72 0,-3.071 -0.294,-10.75 -3.314,-22.575"
       style="fill:none;stroke:#231f20;stroke-width:0.5;stroke-linecap:round;stroke-linejoin:round;stroke-miterlimit:4;stroke-dasharray:2.8, 1.8;stroke-dashoffset:0;stroke-opacity:1"
       id="path894" />
    <path
       d="m 245.422,566.158 c -5.359,-2.583 -22.585,-2.071 -44.203,11.066"
       style="fill:none;stroke:#231f20;stroke-width:0.5;stroke-linecap:round;stroke-linejoin:round;stroke-miterlimit:4;stroke-dasharray:2.8, 1.8;stroke-dashoffset:0;stroke-opacity:1"
       id="path896" />
    <path
       d="m 201.219,577.224 c -3.377,10.92 -4.052,15.016 -4.391,27.641 -0.337,12.627 3.379,25.935 14.524,45.728 11.147,19.793 43.235,47.776 45.938,49.823 2.701,2.048 8.106,6.143 20.604,10.58 12.497,4.436 21.616,-5.12 26.345,-11.945 4.728,-6.825 14.805,-13.733 23.731,-17.553"
       style="fill:none;stroke:#231f20;stroke-width:0.5;stroke-linecap:round;stroke-linejoin:round;stroke-miterlimit:4;stroke-dasharray:2.8, 1.8;stroke-dashoffset:0;stroke-opacity:1"
       id="path898" />
    <path
       d="m 269.592,659.907 c 2.896,4.337 4.172,15.439 2.896,22.424 -2.027,11.09 -10.808,16.209 -15.198,18.085 -2.244,0.958 -7.77,2.73 -15.2,1.024 -7.432,-1.706 -20.649,-5.163 -24.005,-6.165"
       style="fill:none;stroke:#231f20;stroke-width:0.5;stroke-linecap:round;stroke-linejoin:round;stroke-miterlimit:4;stroke-dasharray:2.8, 1.8;stroke-dashoffset:0;stroke-opacity:1"
       id="path900" />
    <path
       d="m 242.09,701.44 c -7.432,-5.46 -32.426,-29.006 -40.194,-42.656 -7.77,-13.651 -15.781,-27.138 -15.199,-68.933"
       style="fill:none;stroke:#231f20;stroke-width:0.5;stroke-linecap:round;stroke-linejoin:round;stroke-miterlimit:4;stroke-dasharray:2.8, 1.8;stroke-dashoffset:0;stroke-opacity:1"
       id="path902" />
    <path
       d="m 201.219,577.224 c -3.04,2.047 -10.132,6.142 -13.173,9.896 -1.069,1.322 -1.349,2.731 -1.349,2.731 0,0 -6.26,3.926 -6.292,10.405"
       style="fill:none;stroke:#231f20;stroke-width:0.5;stroke-linecap:round;stroke-linejoin:round;stroke-miterlimit:4;stroke-dasharray:2.8, 1.8;stroke-dashoffset:0;stroke-opacity:1"
       id="path904" />
    <path
       d="m 267.58,692.873 c -16.372,-15.149 -34.949,-41.596 -41.367,-53.882 -6.417,-12.285 -9.733,-22.529 -10.47,-30.713 -0.784,-8.722 -0.969,-13.649 -0.969,-16.72 0,-3.071 0.294,-10.75 3.315,-22.575"
       style="fill:none;stroke:#231f20;stroke-width:0.5;stroke-linecap:round;stroke-linejoin:round;stroke-miterlimit:4;stroke-dasharray:2.8, 1.8;stroke-dashoffset:0;stroke-opacity:1"
       id="path906" />
    <path
       d="m 543.717,623.292 c 5.743,3.755 27.487,18.358 32.151,45.182"
       style="fill:none;stroke:#231f20;stroke-width:0.5;stroke-linecap:round;stroke-linejoin:round;stroke-miterlimit:4;stroke-dasharray:2.8, 1.8;stroke-dashoffset:0;stroke-opacity:1"
       id="path908" />
    <path
       d="m 549.087,619.709 c 10.167,1.195 47.769,9.353 60.212,13.976"
       style="fill:none;stroke:#231f20;stroke-width:0.5;stroke-linecap:round;stroke-linejoin:round;stroke-miterlimit:4;stroke-dasharray:2.8, 1.8;stroke-dashoffset:0;stroke-opacity:1"
       id="path910" />
    <path
       d="m 544.444,609.814 c 11.434,-5.289 37.747,-13.942 55.68,-15.136"
       style="fill:none;stroke:#231f20;stroke-width:0.5;stroke-linecap:round;stroke-linejoin:round;stroke-miterlimit:4;stroke-dasharray:2.8, 1.8;stroke-dashoffset:0;stroke-opacity:1"
       id="path912" />
    <path
       d="m 540.002,586.894 c 0,2.064 0.675,4.549 1.802,4.549 1.125,0 1.816,-2.957 2.476,-7.052 0.662,-4.093 1.351,-14.334 0.901,-16.835 -0.451,-2.502 -2.026,-4.323 -2.929,-4.323 -0.899,0 -1.741,10.664 -1.913,14.105 -0.147,2.954 -0.337,9.556 -0.337,9.556 z"
       style="fill:none;stroke:#231f20;stroke-width:0.5;stroke-linecap:round;stroke-linejoin:round;stroke-miterlimit:4;stroke-dasharray:2.8, 1.8;stroke-dashoffset:0;stroke-opacity:1"
       id="path914" />
    <path
       d="m 544.613,581.85 c 1.693,3.223 31.648,17.911 47.182,2.718"
       style="fill:none;stroke:#231f20;stroke-width:0.5;stroke-linecap:round;stroke-linejoin:round;stroke-miterlimit:4;stroke-dasharray:2.8, 1.8;stroke-dashoffset:0;stroke-opacity:1"
       id="path916" />
    <path
       d="m 545.165,575.063 c 0,0 17.775,-3.597 23.757,-16.927"
       style="fill:none;stroke:#231f20;stroke-width:0.5;stroke-linecap:round;stroke-linejoin:round;stroke-miterlimit:4;stroke-dasharray:2.8, 1.8;stroke-dashoffset:0;stroke-opacity:1"
       id="path918" />
    <path
       d="m 582.702,576.278 c -13.597,7.583 -34.142,1.288 -37.537,-1.215"
       style="fill:none;stroke:#231f20;stroke-width:0.5;stroke-linecap:round;stroke-linejoin:round;stroke-miterlimit:4;stroke-dasharray:2.8, 1.8;stroke-dashoffset:0;stroke-opacity:1"
       id="path920" />
    <path
       d="m 564.586,530.582 c 3.338,0.347 6.714,-0.107 11.669,5.125 4.955,5.231 9.216,12.712 8.558,20.019 -0.452,5.006 -3.997,9.827 -7.318,13.039"
       style="fill:none;stroke:#231f20;stroke-width:0.5;stroke-linecap:round;stroke-linejoin:round;stroke-miterlimit:4;stroke-dasharray:2.8, 1.8;stroke-dashoffset:0;stroke-opacity:1"
       id="path922" />
    <path
       d="m 705.311,682.74 c 0.275,2.637 -0.253,5.619 -2.505,8.803 -2.253,3.186 -12.835,20.249 -23.869,30.258 -11.033,10.01 -18.464,15.926 -26.797,20.021 -8.331,4.094 -30.624,12.056 -46.837,15.469 -16.213,3.413 -34,5.461 -41.207,1.593 -7.206,-3.867 -13.407,-9.813 -15.764,-17.745 -3.376,-11.375 -1.301,-39.351 1.107,-39.604"
       style="fill:none;stroke:#231f20;stroke-width:0.5;stroke-linecap:round;stroke-linejoin:round;stroke-miterlimit:4;stroke-dasharray:2.8, 1.8;stroke-dashoffset:0;stroke-opacity:1"
       id="path924" />
    <path
       d="m 703.892,629.942 c -2.632,-2.001 -4.463,-5.055 -1.761,-12.336 2.701,-7.28 9.459,-14.558 9.007,-25.252 -0.451,-10.694 -0.495,-14.788 -0.394,-17.745 0.169,-4.892 0.831,-7.271 2.195,-8.191 1.689,-1.138 5.722,-1.364 7.073,0.911"
       style="fill:none;stroke:#231f20;stroke-width:0.5;stroke-linecap:round;stroke-linejoin:round;stroke-miterlimit:4;stroke-dasharray:2.8, 1.8;stroke-dashoffset:0;stroke-opacity:1"
       id="path926" />
    <path
       d="m 711.706,567.843 c -4.847,-1.651 -14.303,-9.614 -14.303,-14.62 0,-5.006 3.601,-9.327 11.034,-9.099 7.43,0.227 15.161,0.644 19.802,1.372"
       style="fill:none;stroke:#231f20;stroke-width:0.5;stroke-linecap:round;stroke-linejoin:round;stroke-miterlimit:4;stroke-dasharray:2.8, 1.8;stroke-dashoffset:0;stroke-opacity:1"
       id="path928" />
    <path
       d="m 573.104,392.266 c 7.043,1.333 18.915,2.389 19.59,-1.705 0.676,-4.096 -7.093,-8.874 -11.146,-13.651 -4.053,-4.778 -9.12,-10.92 -17.226,-10.578 -8.107,0.34 -14.187,0 -15.539,6.825 -1.349,6.824 -1.688,13.308 3.042,14.333 4.727,1.022 7.862,1.458 11.82,2.387 3.436,0.812 6.045,1.745 9.459,2.389 z"
       style="fill:none;stroke:#231f20;stroke-width:0.5;stroke-linecap:round;stroke-linejoin:round;stroke-miterlimit:4;stroke-dasharray:2.8, 1.8;stroke-dashoffset:0;stroke-opacity:1"
       id="path930" />
    <path
       d="m 702.8,506.152 c -6.412,-2.979 -28.366,-13.899 -42.89,-27.55"
       style="fill:none;stroke:#231f20;stroke-width:0.5;stroke-linecap:round;stroke-linejoin:round;stroke-miterlimit:4;stroke-dasharray:2.8, 1.8;stroke-dashoffset:0;stroke-opacity:1"
       id="path932" />
    <path
       d="m 619.489,440.724 c 4.053,7.167 22.17,21.709 28.587,26.827"
       style="fill:none;stroke:#231f20;stroke-width:0.5;stroke-linecap:round;stroke-linejoin:round;stroke-miterlimit:4;stroke-dasharray:2.8, 1.8;stroke-dashoffset:0;stroke-opacity:1"
       id="path934" />
    <path
       d="m 635.928,471.095 c -0.412,3.746 1.688,5.801 4.392,6.484 2.8,0.708 12.812,2.653 15.199,2.73 2.617,0.086 4.729,-0.342 4.729,-4.435 0,-4.096 -1.014,-5.46 -5.744,-6.827 -4.727,-1.365 -9.404,-2.057 -12.835,-2.387 -3.545,-0.342 -5.291,0.34 -5.741,4.435 z"
       style="fill:none;stroke:#231f20;stroke-width:0.5;stroke-linecap:round;stroke-linejoin:round;stroke-miterlimit:4;stroke-dasharray:2.8, 1.8;stroke-dashoffset:0;stroke-opacity:1"
       id="path936" />
    <path
       d="m 617.013,488.499 c 11.827,2.024 27.697,4.777 32.764,4.777 5.066,0 13.172,-1.023 16.551,-1.706 3.377,-0.683 8.781,4.095 3.716,9.215 -5.069,5.118 -13.174,13.307 -20.605,12.966 -7.431,-0.341 -27.359,-3.752 -39.52,-5.459 -12.159,-1.708 -21.954,-3.753 -26.683,-4.436 -4.73,-0.683 -7.431,-2.732 -7.094,-5.46 0.339,-2.731 0.677,-10.58 1.353,-12.969 0.674,-2.388 3.715,-3.411 8.106,-3.071 4.392,0.342 21.175,4.391 31.412,6.143 z"
       style="fill:none;stroke:#231f20;stroke-width:0.5;stroke-linecap:round;stroke-linejoin:round;stroke-miterlimit:4;stroke-dasharray:2.8, 1.8;stroke-dashoffset:0;stroke-opacity:1"
       id="path938" />
    <path
       d="m 543.802,564.35 c 2.954,0.022 13.51,-4.188 16.467,-6.121 1.577,-1.034 3.895,-2.31 4.918,-3.681"
       style="fill:none;stroke:#231f20;stroke-width:0.5;stroke-linecap:round;stroke-linejoin:round;stroke-miterlimit:4;stroke-dasharray:2.8, 1.8;stroke-dashoffset:0;stroke-opacity:1"
       id="path940" />
    <path
       d="m 542.252,563.233 c -1.124,-2.957 -0.899,-18.199 -0.675,-22.524 0.227,-4.32 0.451,-6.823 1.352,-8.416"
       style="fill:none;stroke:#231f20;stroke-width:0.5;stroke-linecap:round;stroke-linejoin:round;stroke-miterlimit:4;stroke-dasharray:2.8, 1.8;stroke-dashoffset:0;stroke-opacity:1"
       id="path942" />
    <path
       d="m 543.38,522.511 c 3.602,-3.641 5.855,-12.74 6.755,-20.247 0.901,-7.509 0.174,-26.937 -1.177,-34.446"
       style="fill:none;stroke:#231f20;stroke-width:0.5;stroke-linecap:round;stroke-linejoin:round;stroke-miterlimit:4;stroke-dasharray:2.8, 1.8;stroke-dashoffset:0;stroke-opacity:1"
       id="path944" />
    <path
       d="m 571.077,472.007 c 3.384,0.395 9.007,-3.642 9.908,-8.42 0.9,-4.776 0.449,-9.328 -6.08,-12.51 -6.531,-3.186 -13.737,-2.957 -15.989,1.82 -2.25,4.776 -0.9,11.374 1.803,14.785 2.702,3.413 4.502,3.643 10.358,4.325 z"
       style="fill:none;stroke:#231f20;stroke-width:0.5;stroke-linecap:round;stroke-linejoin:round;stroke-miterlimit:4;stroke-dasharray:2.8, 1.8;stroke-dashoffset:0;stroke-opacity:1"
       id="path946" />
    <path
       d="m 542.929,449.456 c 2.386,0.965 6.531,-0.654 7.657,-4.067 1.124,-3.412 1.802,-7.964 -1.351,-9.555 -3.153,-1.594 -6.53,-0.468 -7.882,3.866 -1.351,4.338 -1.803,8.391 1.576,9.756 z"
       style="fill:none;stroke:#231f20;stroke-width:0.5;stroke-linecap:round;stroke-linejoin:round;stroke-miterlimit:4;stroke-dasharray:2.8, 1.8;stroke-dashoffset:0;stroke-opacity:1"
       id="path948" />
    <path
       d="m 579.976,455.238 c 5.737,1.524 17.75,3.84 24.878,1.524 7.092,-2.303 10.19,-5.419 10.64,-9.514"
       style="fill:none;stroke:#231f20;stroke-width:0.5;stroke-linecap:round;stroke-linejoin:round;stroke-miterlimit:4;stroke-dasharray:2.8, 1.8;stroke-dashoffset:0;stroke-opacity:1"
       id="path950" />
    <path
       d="m 551.256,392.397 c -0.446,7.718 -2.359,14.432 -4.274,20.459 -1.978,6.226 -3.46,12.222 -3.94,16.152 -0.386,3.161 0.113,4.549 1.238,5.006 1.127,0.454 4.617,-3.528 8.105,-10.466 3.244,-6.444 8.283,-16.28 8.871,-27.021"
       style="fill:none;stroke:#231f20;stroke-width:0.5;stroke-linecap:round;stroke-linejoin:round;stroke-miterlimit:4;stroke-dasharray:2.8, 1.8;stroke-dashoffset:0;stroke-opacity:1"
       id="path952" />
    <path
       d="m 551.036,437.754 c 1.349,-5.332 6.532,-18.528 16.214,-14.434"
       style="fill:none;stroke:#231f20;stroke-width:0.5;stroke-linecap:round;stroke-linejoin:round;stroke-miterlimit:4;stroke-dasharray:2.8, 1.8;stroke-dashoffset:0;stroke-opacity:1"
       id="path954" />
    <path
       d="m 551.166,443.266 c 3.698,-1.289 11.254,-7.644 13.781,-10.384"
       style="fill:none;stroke:#231f20;stroke-width:0.5;stroke-linecap:round;stroke-linejoin:round;stroke-miterlimit:4;stroke-dasharray:2.8, 1.8;stroke-dashoffset:0;stroke-opacity:1"
       id="path956" />
    <path
       d="M 179.4,560.982 118.869,538.148"
       style="fill:none;stroke:#231f20;stroke-width:0.5;stroke-linecap:round;stroke-linejoin:round;stroke-miterlimit:4;stroke-dasharray:2.8, 1.8;stroke-dashoffset:0;stroke-opacity:1"
       id="path958" />
    <path
       d="m 173.25,586.507 -63.565,-21.91"
       style="fill:none;stroke:#231f20;stroke-width:0.5;stroke-linecap:round;stroke-linejoin:round;stroke-miterlimit:4;stroke-dasharray:2.8, 1.8;stroke-dashoffset:0;stroke-opacity:1"
       id="path960" />
    <path
       d="M 171.629,611.685 99.3926,604.838"
       style="fill:none;stroke:#231f20;stroke-width:0.5;stroke-linecap:round;stroke-linejoin:round;stroke-miterlimit:4;stroke-dasharray:2.8, 1.8;stroke-dashoffset:0;stroke-opacity:1"
       id="path962" />
    <path
       d="M 176.889,646.078 99.9992,665.312"
       style="fill:none;stroke:#231f20;stroke-width:0.5;stroke-linecap:round;stroke-linejoin:round;stroke-miterlimit:4;stroke-dasharray:2.8, 1.8;stroke-dashoffset:0;stroke-opacity:1"
       id="path964" />
    <path
       d="m 184.224,668.193 -74.681,32.274"
       style="fill:none;stroke:#231f20;stroke-width:0.5;stroke-linecap:round;stroke-linejoin:round;stroke-miterlimit:4;stroke-dasharray:2.8, 1.8;stroke-dashoffset:0;stroke-opacity:1"
       id="path966" />
    <path
       d="m 204.387,702.287 -68.784,50.646"
       style="fill:none;stroke:#231f20;stroke-width:0.5;stroke-linecap:round;stroke-linejoin:round;stroke-miterlimit:4;stroke-dasharray:2.8, 1.8;stroke-dashoffset:0;stroke-opacity:1"
       id="path968" />
    <path
       d="m 215.675,715.836 -62.744,59.303"
       style="fill:none;stroke:#231f20;stroke-width:0.5;stroke-linecap:round;stroke-linejoin:round;stroke-miterlimit:4;stroke-dasharray:2.8, 1.8;stroke-dashoffset:0;stroke-opacity:1"
       id="path970" />
    <path
       d="m 264.72,752.968 -42.676,83.569"
       style="fill:none;stroke:#231f20;stroke-width:0.5;stroke-linecap:round;stroke-linejoin:round;stroke-miterlimit:4;stroke-dasharray:2.8, 1.8;stroke-dashoffset:0;stroke-opacity:1"
       id="path972" />
    <path
       d="m 324.387,781.596 -26.784,91.43"
       style="fill:none;stroke:#231f20;stroke-width:0.5;stroke-linecap:round;stroke-linejoin:round;stroke-miterlimit:4;stroke-dasharray:2.8, 1.8;stroke-dashoffset:0;stroke-opacity:1"
       id="path974" />
    <path
       d="m 395.425,806.238 -13.209,86.279"
       style="fill:none;stroke:#231f20;stroke-width:0.5;stroke-linecap:round;stroke-linejoin:round;stroke-miterlimit:4;stroke-dasharray:2.8, 1.8;stroke-dashoffset:0;stroke-opacity:1"
       id="path976" />
    <path
       d="m 415.378,813.673 6.059,83.124"
       style="fill:none;stroke:#231f20;stroke-width:0.5;stroke-linecap:round;stroke-linejoin:round;stroke-miterlimit:4;stroke-dasharray:2.8, 1.8;stroke-dashoffset:0;stroke-opacity:1"
       id="path978" />
    <path
       d="m 421.783,814.736 42.662,79.813"
       style="fill:none;stroke:#231f20;stroke-width:0.5;stroke-linecap:round;stroke-linejoin:round;stroke-miterlimit:4;stroke-dasharray:2.8, 1.8;stroke-dashoffset:0;stroke-opacity:1"
       id="path980" />
    <path
       d="M 520.614,859.004 421.783,814.736"
       style="fill:none;stroke:#231f20;stroke-width:0.5;stroke-linecap:round;stroke-linejoin:round;stroke-miterlimit:4;stroke-dasharray:2.8, 1.8;stroke-dashoffset:0;stroke-opacity:1"
       id="path982" />
    <path
       d="m 526.748,812.299 c -25.252,7.555 -86.387,8.238 -104.965,2.437"
       style="fill:none;stroke:#231f20;stroke-width:0.5;stroke-linecap:round;stroke-linejoin:round;stroke-miterlimit:4;stroke-dasharray:2.8, 1.8;stroke-dashoffset:0;stroke-opacity:1"
       id="path984" />
    <path
       d="m 487.76,766.62 c -12.947,8.531 -59.415,34.302 -72.153,38.991"
       style="fill:none;stroke:#231f20;stroke-width:0.5;stroke-linecap:round;stroke-linejoin:round;stroke-miterlimit:4;stroke-dasharray:2.8, 1.8;stroke-dashoffset:0;stroke-opacity:1"
       id="path986" />
    <path
       d="m 418.631,746.599 -22.138,38.748"
       style="fill:none;stroke:#231f20;stroke-width:0.5;stroke-linecap:round;stroke-linejoin:round;stroke-miterlimit:4;stroke-dasharray:2.8, 1.8;stroke-dashoffset:0;stroke-opacity:1"
       id="path988" />
    <path
       d="m 311.714,408.737 -44.63,54.85"
       style="fill:none;stroke:#231f20;stroke-width:0.5;stroke-linecap:round;stroke-linejoin:round;stroke-miterlimit:4;stroke-dasharray:2.8, 1.8;stroke-dashoffset:0;stroke-opacity:1"
       id="path990" />
    <path
       d="m 327.208,521.941 c -3.705,0.44 -5.067,-4.436 -6.417,-11.942 -1.352,-7.509 -3.716,-27.983 4.728,-29.008 8.444,-1.024 10.352,16.023 9.795,20.476 -1.261,10.079 -2.364,19.791 -8.106,20.474 z"
       style="fill:none;stroke:#231f20;stroke-width:0.5;stroke-linecap:round;stroke-linejoin:round;stroke-miterlimit:4;stroke-dasharray:2.8, 1.8;stroke-dashoffset:0;stroke-opacity:1"
       id="path992" />
    <path
       d="m 277.218,625.682 c -6.756,2.474 -11.776,-1.888 -13.51,-5.119 -1.605,-2.986 -3.631,-10.323 5.742,-13.31 9.88,-3.147 12.159,-0.51 13.847,3.413 1.688,3.922 -0.949,13.137 -6.079,15.016"
       style="fill:#b2b1b1;fill-opacity:1;fill-rule:nonzero;stroke:none;stroke-width:0.1"
       id="path994" />
    <path
       d="m 277.218,625.682 c -6.756,2.474 -11.776,-1.888 -13.51,-5.119 -1.605,-2.986 -3.631,-10.323 5.742,-13.31 9.88,-3.147 12.159,-0.51 13.847,3.413 1.688,3.922 -0.949,13.137 -6.079,15.016 z"
       style="fill:none;stroke:#231f20;stroke-width:0.5;stroke-linecap:round;stroke-linejoin:round;stroke-miterlimit:4;stroke-dasharray:2.8, 1.8;stroke-dashoffset:0;stroke-opacity:1"
       id="path996" />
    <path
       d="m 325.586,738.447 c 3.648,-3.223 9.39,-16.531 7.026,-32.911 -2.364,-16.381 -3.879,-27.404 -18.321,-39.466"
       style="fill:none;stroke:#231f20;stroke-width:0.5;stroke-linecap:round;stroke-linejoin:round;stroke-miterlimit:4;stroke-dasharray:2.8, 1.8;stroke-dashoffset:0;stroke-opacity:1"
       id="path998" />
    <path
       d="m 341.613,673.619 c -4.61,9.393 -6.777,18.555 -11.604,17.046"
       style="fill:none;stroke:#231f20;stroke-width:0.5;stroke-linecap:round;stroke-linejoin:round;stroke-miterlimit:4;stroke-dasharray:2.8, 1.8;stroke-dashoffset:0;stroke-opacity:1"
       id="path1000" />
    <path
       d="m 536.287,623.292 c -5.743,3.755 -27.487,18.358 -32.152,45.182"
       style="fill:none;stroke:#231f20;stroke-width:0.5;stroke-linecap:round;stroke-linejoin:round;stroke-miterlimit:4;stroke-dasharray:2.8, 1.8;stroke-dashoffset:0;stroke-opacity:1"
       id="path1002" />
    <path
       d="m 530.918,619.709 c -10.168,1.195 -47.769,9.353 -60.212,13.976"
       style="fill:none;stroke:#231f20;stroke-width:0.5;stroke-linecap:round;stroke-linejoin:round;stroke-miterlimit:4;stroke-dasharray:2.8, 1.8;stroke-dashoffset:0;stroke-opacity:1"
       id="path1004" />
    <path
       d="m 535.559,609.814 c -11.433,-5.289 -37.747,-13.942 -55.68,-15.136"
       style="fill:none;stroke:#231f20;stroke-width:0.5;stroke-linecap:round;stroke-linejoin:round;stroke-miterlimit:4;stroke-dasharray:2.8, 1.8;stroke-dashoffset:0;stroke-opacity:1"
       id="path1006" />
    <path
       d="m 540.002,586.894 c 0,2.064 -0.675,4.549 -1.802,4.549 -1.124,0 -1.816,-2.957 -2.476,-7.052 -0.662,-4.093 -1.352,-14.334 -0.902,-16.835 0.451,-2.502 2.028,-4.323 2.93,-4.323 0.899,0 1.741,10.664 1.913,14.105 0.147,2.954 0.337,9.556 0.337,9.556 z"
       style="fill:none;stroke:#231f20;stroke-width:0.5;stroke-linecap:round;stroke-linejoin:round;stroke-miterlimit:4;stroke-dasharray:2.8, 1.8;stroke-dashoffset:0;stroke-opacity:1"
       id="path1008" />
    <path
       d="m 535.392,581.85 c -1.694,3.223 -31.649,17.911 -47.184,2.718"
       style="fill:none;stroke:#231f20;stroke-width:0.5;stroke-linecap:round;stroke-linejoin:round;stroke-miterlimit:4;stroke-dasharray:2.8, 1.8;stroke-dashoffset:0;stroke-opacity:1"
       id="path1010" />
    <path
       d="m 534.839,575.063 c 0,0 -17.775,-3.597 -23.756,-16.927"
       style="fill:none;stroke:#231f20;stroke-width:0.5;stroke-linecap:round;stroke-linejoin:round;stroke-miterlimit:4;stroke-dasharray:2.8, 1.8;stroke-dashoffset:0;stroke-opacity:1"
       id="path1012" />
    <path
       d="m 497.303,576.278 c 13.597,7.583 34.142,1.288 37.536,-1.215"
       style="fill:none;stroke:#231f20;stroke-width:0.5;stroke-linecap:round;stroke-linejoin:round;stroke-miterlimit:4;stroke-dasharray:2.8, 1.8;stroke-dashoffset:0;stroke-opacity:1"
       id="path1014" />
    <path
       d="m 515.418,530.582 c -3.338,0.347 -6.715,-0.107 -11.669,5.125 -4.956,5.231 -9.216,12.712 -8.558,20.019 0.451,5.006 3.996,9.827 7.317,13.039"
       style="fill:none;stroke:#231f20;stroke-width:0.5;stroke-linecap:round;stroke-linejoin:round;stroke-miterlimit:4;stroke-dasharray:2.8, 1.8;stroke-dashoffset:0;stroke-opacity:1"
       id="path1016" />
    <path
       d="m 374.692,682.74 c -0.274,2.637 0.253,5.619 2.506,8.803 2.252,3.186 12.836,20.249 23.869,30.258 11.033,10.01 18.464,15.926 26.796,20.021 8.332,4.094 30.625,12.056 46.838,15.469 16.213,3.413 34.001,5.461 41.207,1.593 7.205,-3.867 13.407,-9.813 15.762,-17.745 3.379,-11.375 1.302,-39.351 -1.103,-39.604"
       style="fill:none;stroke:#231f20;stroke-width:0.5;stroke-linecap:round;stroke-linejoin:round;stroke-miterlimit:4;stroke-dasharray:2.8, 1.8;stroke-dashoffset:0;stroke-opacity:1"
       id="path1018" />
    <path
       d="m 376.112,629.942 c 2.632,-2.001 4.463,-5.055 1.761,-12.336 -2.703,-7.28 -9.459,-14.558 -9.007,-25.252 0.45,-10.694 0.495,-14.788 0.394,-17.745 -0.169,-4.892 -0.831,-7.271 -2.195,-8.191 -1.689,-1.138 -5.722,-1.364 -7.073,0.911"
       style="fill:none;stroke:#231f20;stroke-width:0.5;stroke-linecap:round;stroke-linejoin:round;stroke-miterlimit:4;stroke-dasharray:2.8, 1.8;stroke-dashoffset:0;stroke-opacity:1"
       id="path1020" />
    <path
       d="m 368.298,567.843 c 4.846,-1.651 14.304,-9.614 14.304,-14.62 0,-5.006 -3.603,-9.327 -11.034,-9.099 -7.432,0.227 -15.163,0.644 -19.803,1.372"
       style="fill:none;stroke:#231f20;stroke-width:0.5;stroke-linecap:round;stroke-linejoin:round;stroke-miterlimit:4;stroke-dasharray:2.8, 1.8;stroke-dashoffset:0;stroke-opacity:1"
       id="path1022" />
    <path
       d="m 506.901,392.266 c -7.043,1.333 -18.915,2.389 -19.591,-1.705 -0.676,-4.096 7.093,-8.874 11.147,-13.651 4.052,-4.778 9.119,-10.92 17.225,-10.578 8.108,0.34 14.187,0 15.538,6.825 1.351,6.824 1.689,13.308 -3.04,14.333 -4.728,1.022 -7.864,1.458 -11.822,2.387 -3.435,0.812 -6.044,1.745 -9.457,2.389 z"
       style="fill:none;stroke:#231f20;stroke-width:0.5;stroke-linecap:round;stroke-linejoin:round;stroke-miterlimit:4;stroke-dasharray:2.8, 1.8;stroke-dashoffset:0;stroke-opacity:1"
       id="path1024" />
    <path
       d="m 377.205,506.152 c 6.41,-2.979 28.365,-13.899 42.889,-27.55"
       style="fill:none;stroke:#231f20;stroke-width:0.5;stroke-linecap:round;stroke-linejoin:round;stroke-miterlimit:4;stroke-dasharray:2.8, 1.8;stroke-dashoffset:0;stroke-opacity:1"
       id="path1026" />
    <path
       d="m 460.513,440.724 c -4.053,7.167 -22.168,21.709 -28.585,26.827"
       style="fill:none;stroke:#231f20;stroke-width:0.5;stroke-linecap:round;stroke-linejoin:round;stroke-miterlimit:4;stroke-dasharray:2.8, 1.8;stroke-dashoffset:0;stroke-opacity:1"
       id="path1028" />
    <path
       d="m 444.076,471.095 c 0.412,3.746 -1.69,5.801 -4.392,6.484 -2.799,0.708 -12.812,2.653 -15.198,2.73 -2.618,0.086 -4.73,-0.342 -4.73,-4.435 0,-4.096 1.014,-5.46 5.742,-6.827 4.729,-1.365 9.407,-2.057 12.836,-2.387 3.546,-0.342 5.292,0.34 5.742,4.435 z"
       style="fill:none;stroke:#231f20;stroke-width:0.5;stroke-linecap:round;stroke-linejoin:round;stroke-miterlimit:4;stroke-dasharray:2.8, 1.8;stroke-dashoffset:0;stroke-opacity:1"
       id="path1030" />
    <path
       d="m 462.991,488.499 c -11.826,2.024 -27.698,4.777 -32.764,4.777 -5.066,0 -13.173,-1.023 -16.551,-1.706 -3.377,-0.683 -8.782,4.095 -3.715,9.215 5.067,5.118 13.173,13.307 20.604,12.966 7.431,-0.341 27.359,-3.752 39.519,-5.459 12.16,-1.708 21.956,-3.753 26.684,-4.436 4.728,-0.683 7.431,-2.732 7.093,-5.46 -0.338,-2.731 -0.676,-10.58 -1.352,-12.969 -0.675,-2.388 -3.716,-3.411 -8.106,-3.071 -4.391,0.342 -21.175,4.391 -31.412,6.143 z"
       style="fill:none;stroke:#231f20;stroke-width:0.5;stroke-linecap:round;stroke-linejoin:round;stroke-miterlimit:4;stroke-dasharray:2.8, 1.8;stroke-dashoffset:0;stroke-opacity:1"
       id="path1032" />
    <path
       d="m 536.202,564.35 c -2.955,0.022 -13.51,-4.188 -16.466,-6.121 -1.578,-1.034 -3.896,-2.31 -4.919,-3.681"
       style="fill:none;stroke:#231f20;stroke-width:0.5;stroke-linecap:round;stroke-linejoin:round;stroke-miterlimit:4;stroke-dasharray:2.8, 1.8;stroke-dashoffset:0;stroke-opacity:1"
       id="path1034" />
    <path
       d="m 537.752,563.233 c 1.124,-2.957 0.899,-18.199 0.674,-22.524 -0.226,-4.32 -0.451,-6.823 -1.35,-8.416"
       style="fill:none;stroke:#231f20;stroke-width:0.5;stroke-linecap:round;stroke-linejoin:round;stroke-miterlimit:4;stroke-dasharray:2.8, 1.8;stroke-dashoffset:0;stroke-opacity:1"
       id="path1036" />
    <path
       d="m 536.624,522.511 c -3.602,-3.641 -5.855,-12.74 -6.755,-20.247 -0.901,-7.509 -0.174,-26.937 1.177,-34.446"
       style="fill:none;stroke:#231f20;stroke-width:0.5;stroke-linecap:round;stroke-linejoin:round;stroke-miterlimit:4;stroke-dasharray:2.8, 1.8;stroke-dashoffset:0;stroke-opacity:1"
       id="path1038" />
    <path
       d="m 508.927,472.007 c -3.385,0.395 -9.007,-3.642 -9.907,-8.42 -0.901,-4.776 -0.45,-9.328 6.08,-12.51 6.529,-3.186 13.735,-2.957 15.987,1.82 2.251,4.776 0.901,11.374 -1.801,14.785 -2.703,3.413 -4.503,3.643 -10.359,4.325 z"
       style="fill:none;stroke:#231f20;stroke-width:0.5;stroke-linecap:round;stroke-linejoin:round;stroke-miterlimit:4;stroke-dasharray:2.8, 1.8;stroke-dashoffset:0;stroke-opacity:1"
       id="path1040" />
    <path
       d="m 537.076,449.456 c -2.386,0.965 -6.532,-0.654 -7.658,-4.067 -1.126,-3.412 -1.801,-7.964 1.351,-9.555 3.153,-1.594 6.53,-0.468 7.882,3.866 1.351,4.338 1.803,8.391 -1.575,9.756 z"
       style="fill:none;stroke:#231f20;stroke-width:0.5;stroke-linecap:round;stroke-linejoin:round;stroke-miterlimit:4;stroke-dasharray:2.8, 1.8;stroke-dashoffset:0;stroke-opacity:1"
       id="path1042" />
    <path
       d="m 500.029,455.238 c -5.738,1.524 -17.753,3.84 -24.878,1.524 -7.094,-2.303 -10.191,-5.419 -10.642,-9.514"
       style="fill:none;stroke:#231f20;stroke-width:0.5;stroke-linecap:round;stroke-linejoin:round;stroke-miterlimit:4;stroke-dasharray:2.8, 1.8;stroke-dashoffset:0;stroke-opacity:1"
       id="path1044" />
    <path
       d="m 528.748,392.397 c 0.445,7.718 2.359,14.432 4.274,20.459 1.977,6.226 3.46,12.222 3.94,16.152 0.386,3.161 -0.112,4.549 -1.238,5.006 -1.127,0.454 -4.617,-3.528 -8.106,-10.466 -3.244,-6.444 -8.283,-16.28 -8.87,-27.021"
       style="fill:none;stroke:#231f20;stroke-width:0.5;stroke-linecap:round;stroke-linejoin:round;stroke-miterlimit:4;stroke-dasharray:2.8, 1.8;stroke-dashoffset:0;stroke-opacity:1"
       id="path1046" />
    <path
       d="m 528.969,437.754 c -1.351,-5.332 -6.533,-18.528 -16.215,-14.434"
       style="fill:none;stroke:#231f20;stroke-width:0.5;stroke-linecap:round;stroke-linejoin:round;stroke-miterlimit:4;stroke-dasharray:2.8, 1.8;stroke-dashoffset:0;stroke-opacity:1"
       id="path1048" />
    <path
       d="m 528.836,443.266 c -3.696,-1.289 -11.253,-7.644 -13.78,-10.384"
       style="fill:none;stroke:#231f20;stroke-width:0.5;stroke-linecap:round;stroke-linejoin:round;stroke-miterlimit:4;stroke-dasharray:2.8, 1.8;stroke-dashoffset:0;stroke-opacity:1"
       id="path1050" />
    <path
       d="m 886.598,524.678 63.203,-38.494"
       style="fill:none;stroke:#231f20;stroke-width:0.5;stroke-linecap:round;stroke-linejoin:round;stroke-miterlimit:4;stroke-dasharray:2.8, 1.8;stroke-dashoffset:0;stroke-opacity:1"
       id="path1052" />
    <path
       d="M 818.666,463.8 V 404.394"
       style="fill:none;stroke:#231f20;stroke-width:0.5;stroke-linecap:round;stroke-linejoin:round;stroke-miterlimit:4;stroke-dasharray:2.8, 1.8;stroke-dashoffset:0;stroke-opacity:1"
       id="path1054" />
    <path
       d="m 859.464,486.472 33.021,-59.651"
       style="fill:none;stroke:#231f20;stroke-width:0.5;stroke-linecap:round;stroke-linejoin:round;stroke-miterlimit:4;stroke-dasharray:2.8, 1.8;stroke-dashoffset:0;stroke-opacity:1"
       id="path1056" />
    <path
       d="M 193.405,524.678 130.202,486.184"
       style="fill:none;stroke:#231f20;stroke-width:0.5;stroke-linecap:round;stroke-linejoin:round;stroke-miterlimit:4;stroke-dasharray:2.8, 1.8;stroke-dashoffset:0;stroke-opacity:1"
       id="path1058" />
    <path
       d="M 261.337,463.8 V 404.394"
       style="fill:none;stroke:#231f20;stroke-width:0.5;stroke-linecap:round;stroke-linejoin:round;stroke-miterlimit:4;stroke-dasharray:2.8, 1.8;stroke-dashoffset:0;stroke-opacity:1"
       id="path1060" />
    <path
       d="M 220.539,486.472 187.518,426.821"
       style="fill:none;stroke:#231f20;stroke-width:0.5;stroke-linecap:round;stroke-linejoin:round;stroke-miterlimit:4;stroke-dasharray:2.8, 1.8;stroke-dashoffset:0;stroke-opacity:1"
       id="path1062" />
    <path
       d="m 810.15,467.91 -61.692,70.501"
       style="fill:none;stroke:#231f20;stroke-width:0.5;stroke-linecap:round;stroke-linejoin:round;stroke-miterlimit:4;stroke-dasharray:2.8, 1.8;stroke-dashoffset:0;stroke-opacity:1"
       id="path1064" />
    <path
       d="M 351.903,481.168 272.148,466.501"
       style="fill:none;stroke:#231f20;stroke-width:0.5;stroke-linecap:round;stroke-linejoin:round;stroke-miterlimit:4;stroke-dasharray:2.8, 1.8;stroke-dashoffset:0;stroke-opacity:1"
       id="path1066" />
    <path
       d="m 269.853,467.91 61.693,70.501"
       style="fill:none;stroke:#231f20;stroke-width:0.5;stroke-linecap:round;stroke-linejoin:round;stroke-miterlimit:4;stroke-dasharray:2.8, 1.8;stroke-dashoffset:0;stroke-opacity:1"
       id="path1068" />
    <path
       d="m 820.837,470.414 -21.873,55.725"
       style="fill:none;stroke:#231f20;stroke-width:0.5;stroke-linecap:round;stroke-linejoin:round;stroke-miterlimit:4;stroke-dasharray:2.8, 1.8;stroke-dashoffset:0;stroke-opacity:1"
       id="path1070" />
    <path
       d="m 275.527,512.101 c -3.282,-0.914 -7.174,-1.539 -11.484,-1.763 -13.171,-0.682 -27.358,6.485 -37.83,20.476 -10.47,13.992 -20.941,39.586 -24.994,46.41"
       style="fill:none;stroke:#231f20;stroke-width:0.5;stroke-linecap:round;stroke-linejoin:round;stroke-miterlimit:4;stroke-dasharray:2.8, 1.8;stroke-dashoffset:0;stroke-opacity:1"
       id="path1072" />
    <path
       d="m 259.167,470.414 21.872,55.725"
       style="fill:none;stroke:#231f20;stroke-width:0.5;stroke-linecap:round;stroke-linejoin:round;stroke-miterlimit:4;stroke-dasharray:2.8, 1.8;stroke-dashoffset:0;stroke-opacity:1"
       id="path1074" />
  </g>
</svg>
