<?xml version="1.0" encoding="UTF-8" standalone="no"?>
<!-- Created with Inkscape (http://www.inkscape.org/) -->

<svg
   version="1.1"
   id="svg212002"
   width="1440"
   height="1344"
   viewBox="0 0 1440 1344"
   xmlns="http://www.w3.org/2000/svg"
   xmlns:svg="http://www.w3.org/2000/svg">
  <defs
     id="defs212006" />
  <g
     id="g212010">
    <path
       d="m 722.466,515.065 c 4.508,-2.625 -0.892,-13.836 -5.571,-10.911 -3.715,2.321 -0.044,14.181 5.571,10.911"
       style="fill:#ffffff;fill-opacity:1;fill-rule:nonzero;stroke:none;stroke-width:0.1"
       id="path212674" />
    <path
       d="m 722.466,515.065 c 4.508,-2.625 -0.892,-13.836 -5.571,-10.911 -3.715,2.321 -0.044,14.181 5.571,10.911 z"
       style="fill:none;stroke:#231f20;stroke-width:0.5;stroke-linecap:butt;stroke-linejoin:miter;stroke-miterlimit:4;stroke-dasharray:none;stroke-opacity:1"
       id="path212676" />
    <path
       d="m 357.537,515.065 c -4.508,-2.625 0.892,-13.836 5.571,-10.911 3.715,2.321 0.044,14.181 -5.571,10.911"
       style="fill:#ffffff;fill-opacity:1;fill-rule:nonzero;stroke:none;stroke-width:0.1"
       id="path212678" />
    <path
       d="m 357.537,515.065 c -4.508,-2.625 0.892,-13.836 5.571,-10.911 3.715,2.321 0.044,14.181 -5.571,10.911 z"
       style="fill:none;stroke:#231f20;stroke-width:0.5;stroke-linecap:butt;stroke-linejoin:miter;stroke-miterlimit:4;stroke-dasharray:none;stroke-opacity:1"
       id="path212680" />
    <path
       d="m 540.002,389.011 c -1.858,0 -3.949,-0.121 -4.878,-0.817 0,0 -5.57,2.676 -10.212,4.3 -4.642,1.624 -18.572,6.964 -22.518,7.427 -3.945,0.464 -5.288,0.758 -6.105,-1.465 -0.813,-2.206 0.998,-3.178 7.265,-5.731 6.269,-2.554 16.483,-5.803 19.965,-6.732 3.483,-0.929 6.731,-2.089 10.446,0 0,0 0.117,-1.625 1.278,-2.438 1.372,-0.96 2.901,-1.267 4.759,-1.267 1.858,0 3.386,0.307 4.757,1.267 1.162,0.813 1.28,2.438 1.28,2.438 3.713,-2.089 6.963,-0.929 10.446,0 3.482,0.929 13.696,4.178 19.964,6.732 6.267,2.553 8.078,3.525 7.265,5.731 -0.817,2.223 -2.159,1.929 -6.105,1.465 -3.946,-0.463 -17.876,-5.803 -22.517,-7.427 -4.644,-1.624 -10.213,-4.3 -10.213,-4.3 -0.928,0.696 -3.019,0.817 -4.877,0.817"
       style="fill:#ffffff;fill-opacity:1;fill-rule:nonzero;stroke:none;stroke-width:0.1"
       id="path212682" />
    <path
       d="m 540.002,389.011 c -1.858,0 -3.949,-0.121 -4.878,-0.817 0,0 -5.57,2.676 -10.212,4.3 -4.642,1.624 -18.572,6.964 -22.518,7.427 -3.945,0.464 -5.288,0.758 -6.105,-1.465 -0.813,-2.206 0.998,-3.178 7.265,-5.731 6.269,-2.554 16.483,-5.803 19.965,-6.732 3.483,-0.929 6.731,-2.089 10.446,0 0,0 0.117,-1.625 1.278,-2.438 1.372,-0.96 2.901,-1.267 4.759,-1.267 1.858,0 3.386,0.307 4.757,1.267 1.162,0.813 1.28,2.438 1.28,2.438 3.713,-2.089 6.963,-0.929 10.446,0 3.482,0.929 13.696,4.178 19.964,6.732 6.267,2.553 8.078,3.525 7.265,5.731 -0.817,2.223 -2.159,1.929 -6.105,1.465 -3.946,-0.463 -17.876,-5.803 -22.517,-7.427 -4.644,-1.624 -10.213,-4.3 -10.213,-4.3 -0.928,0.696 -3.019,0.817 -4.877,0.817 z"
       style="fill:none;stroke:#231f20;stroke-width:0.5;stroke-linecap:butt;stroke-linejoin:miter;stroke-miterlimit:4;stroke-dasharray:none;stroke-opacity:1"
       id="path212684" />
    <path
       d="m 709.26,657.136 c 0,-2.307 -1.672,-4.178 -3.734,-4.178 -2.064,0 -3.735,1.871 -3.735,4.178 0,2.308 1.671,4.179 3.735,4.179 2.062,0 3.734,-1.871 3.734,-4.179"
       style="fill:#ffffff;fill-opacity:1;fill-rule:nonzero;stroke:none;stroke-width:0.1"
       id="path212686" />
    <path
       d="m 709.26,657.136 c 0,-2.307 -1.672,-4.178 -3.734,-4.178 -2.064,0 -3.735,1.871 -3.735,4.178 0,2.308 1.671,4.179 3.735,4.179 2.062,0 3.734,-1.871 3.734,-4.179 z"
       style="fill:none;stroke:#231f20;stroke-width:0.5;stroke-linecap:butt;stroke-linejoin:miter;stroke-miterlimit:4;stroke-dasharray:none;stroke-opacity:1"
       id="path212688" />
    <path
       d="m 760.77,566.834 c -1.626,-6.268 -3.715,-10.912 -5.804,-14.163 -2.09,-3.248 -4.178,-9.981 -6.268,-14.16 -2.089,-4.179 -11.606,-14.857 -17.642,-21.822 -6.037,-6.964 -14.67,-16.693 -19.036,-26.464 -4.875,-10.91 -9.518,-43.179 10.91,-29.946 0,0 -7.893,-8.125 -6.267,-17.179 1.625,-9.054 8.589,-30.875 31.571,-39.929 22.982,-9.053 56.062,-9.866 82.527,-4.991 26.464,4.875 65.813,22.635 96.455,54.322 30.644,31.688 33.081,69.295 33.778,75.563 0.696,6.267 2.088,16.017 -2.09,21.937 -4.178,5.92 -8.009,12.884 -3.134,16.714 4.875,3.831 6.279,5.664 7.429,9.171 4.643,14.16 14.162,44.803 16.482,66.858 2.321,22.052 -5.904,83.463 -42.366,132.204 -34.125,45.616 -93.321,79.045 -151.474,101.679 -58.151,22.634 -116.652,26.116 -144.509,27.857 -27.857,1.741 -69.991,2.786 -90.188,-11.839 -10.642,-7.707 -11.142,-34.474 -11.142,-43.527 0,-9.053 0,-60.358 0,-60.358 0,-3.003 0.231,-7.892 2.089,-14.625 1.858,-6.731 3.748,-13.056 13.698,-18.106 9.948,-5.051 20.194,-5.107 31.337,-6.733 11.143,-1.625 33.662,-7.892 42.019,-11.142 8.357,-3.25 22.518,-10.912 29.482,-16.251 6.964,-5.339 17.642,-12.07 23.447,-14.392 5.803,-2.322 14.161,-5.34 27.856,-2.554 0,0 -9.982,-9.053 -4.411,-18.339 4.712,-7.853 7.197,-10.679 8.59,-18.34 1.393,-7.66 5.563,-16.733 11.376,-19.5 0,0 15.09,-6.034 23.679,-16.481 8.588,-10.446 16.481,-24.375 16.481,-39.697 0,-15.321 -3.019,-22.517 -4.875,-25.767"
       style="fill:#ffffff;fill-opacity:1;fill-rule:nonzero;stroke:none;stroke-width:0.1"
       id="path212690" />
    <path
       d="m 760.77,566.834 c -1.626,-6.268 -3.715,-10.912 -5.804,-14.163 -2.09,-3.248 -4.178,-9.981 -6.268,-14.16 -2.089,-4.179 -11.606,-14.857 -17.642,-21.822 -6.037,-6.964 -14.67,-16.693 -19.036,-26.464 -4.875,-10.91 -9.518,-43.179 10.91,-29.946 0,0 -7.893,-8.125 -6.267,-17.179 1.625,-9.054 8.589,-30.875 31.571,-39.929 22.982,-9.053 56.062,-9.866 82.527,-4.991 26.464,4.875 65.813,22.635 96.455,54.322 30.644,31.688 33.081,69.295 33.778,75.563 0.696,6.267 2.088,16.017 -2.09,21.937 -4.178,5.92 -8.009,12.884 -3.134,16.714 4.875,3.831 6.279,5.664 7.429,9.171 4.643,14.16 14.162,44.803 16.482,66.858 2.321,22.052 -5.904,83.463 -42.366,132.204 -34.125,45.616 -93.321,79.045 -151.474,101.679 -58.151,22.634 -116.652,26.116 -144.509,27.857 -27.857,1.741 -69.991,2.786 -90.188,-11.839 -10.642,-7.707 -11.142,-34.474 -11.142,-43.527 0,-9.053 0,-60.358 0,-60.358 0,-3.003 0.231,-7.892 2.089,-14.625 1.858,-6.731 3.748,-13.056 13.698,-18.106 9.948,-5.051 20.194,-5.107 31.337,-6.733 11.143,-1.625 33.662,-7.892 42.019,-11.142 8.357,-3.25 22.518,-10.912 29.482,-16.251 6.964,-5.339 17.642,-12.07 23.447,-14.392 5.803,-2.322 14.161,-5.34 27.856,-2.554 0,0 -9.982,-9.053 -4.411,-18.339 4.712,-7.853 7.197,-10.679 8.59,-18.34 1.393,-7.66 5.563,-16.733 11.376,-19.5 0,0 15.09,-6.034 23.679,-16.481 8.588,-10.446 16.481,-24.375 16.481,-39.697 0,-15.321 -3.019,-22.517 -4.875,-25.767 z"
       style="fill:none;stroke:#231f20;stroke-width:0.75;stroke-linecap:round;stroke-linejoin:round;stroke-miterlimit:4;stroke-dasharray:none;stroke-opacity:1"
       id="path212692" />
    <path
       d="m 540.002,390.404 c -2.786,0 -13.233,2.554 -21.358,5.802 -14.518,5.808 -18.803,10.448 -18.803,10.448 -1.162,-10.678 -36.679,-1.161 -50.142,3.25 -13.464,4.412 -16.715,7.892 -22.055,13.464 -5.341,5.571 -14.16,14.161 -22.982,19.268 -8.823,5.108 -16.714,11.608 -20.893,19.035 -4.179,7.428 -6.499,18.573 -7.893,23.679 -1.392,5.107 -6.267,12.769 -9.286,18.34 -3.018,5.571 -3.482,15.321 -3.482,15.321 -2.553,5.571 -12.303,20.197 -19.5,25.071 -7.196,4.876 -13.695,13.464 -13.695,13.464 -8.822,1.625 -8.823,6.036 -10.68,9.288 -1.857,3.25 -4.875,10.446 -4.875,25.767 0,15.322 7.893,29.251 16.482,39.697 8.588,10.447 23.679,16.481 23.679,16.481 14.856,-1.858 16.482,-13.464 16.482,-13.464 5.341,3.714 12.071,0.465 12.071,0.465 -1.625,10.911 0,20.892 3.482,28.554 3.483,7.66 10.446,17.642 10.446,17.642 -1.392,2.321 -3.481,7.66 -3.712,8.821 -0.232,1.161 3.016,8.358 6.963,13.233 3.948,4.875 15.786,12.302 19.964,14.16 4.179,1.857 7.661,5.34 11.84,8.822 4.179,3.482 19.964,9.285 27.16,12.303 7.198,3.017 27.625,6.964 33.662,7.429 6.037,0.464 21.357,4.875 27.857,5.107 6.499,0.231 13.231,-6.732 16.018,-10.679 2.785,-3.946 3.25,-6.484 3.25,-9.75 0,3.266 0.464,5.804 3.25,9.75 2.787,3.947 9.518,10.91 16.018,10.679 6.499,-0.232 21.819,-4.643 27.856,-5.107 6.037,-0.465 26.464,-4.412 33.662,-7.429 7.196,-3.018 22.982,-8.821 27.16,-12.303 4.178,-3.482 7.661,-6.965 11.84,-8.822 4.178,-1.858 16.016,-9.285 19.964,-14.16 3.947,-4.875 7.195,-12.072 6.963,-13.233 -0.23,-1.161 -2.32,-6.5 -3.713,-8.821 0,0 6.964,-9.982 10.447,-17.642 3.482,-7.662 5.107,-17.643 3.482,-28.554 0,0 6.731,3.249 12.071,-0.465 0,0 1.626,11.606 16.483,13.464 0,0 15.09,-6.034 23.679,-16.481 8.588,-10.446 16.481,-24.375 16.481,-39.697 0,-15.321 -3.019,-22.517 -4.875,-25.767 -1.856,-3.252 -1.858,-7.663 -10.679,-9.288 0,0 -6.5,-8.588 -13.696,-13.464 -7.197,-4.874 -16.947,-19.5 -19.5,-25.071 0,0 -0.464,-9.75 -3.482,-15.321 -3.019,-5.571 -7.894,-13.233 -9.287,-18.34 -1.392,-5.106 -3.713,-16.251 -7.891,-23.679 -4.179,-7.427 -12.071,-13.927 -20.894,-19.035 -8.822,-5.107 -17.641,-13.697 -22.981,-19.268 -5.341,-5.572 -8.592,-9.052 -22.055,-13.464 -13.464,-4.411 -48.981,-13.928 -50.143,-3.25 0,0 -4.285,-4.64 -18.802,-10.448 -8.126,-3.248 -18.572,-5.802 -21.358,-5.802"
       style="fill:#ffffff;fill-opacity:1;fill-rule:nonzero;stroke:none;stroke-width:0.1"
       id="path212694" />
    <path
       d="m 540.002,390.404 c -2.786,0 -13.233,2.554 -21.358,5.802 -14.518,5.808 -18.803,10.448 -18.803,10.448 -1.162,-10.678 -36.679,-1.161 -50.142,3.25 -13.464,4.412 -16.715,7.892 -22.055,13.464 -5.341,5.571 -14.16,14.161 -22.982,19.268 -8.823,5.108 -16.714,11.608 -20.893,19.035 -4.179,7.428 -6.499,18.573 -7.893,23.679 -1.392,5.107 -6.267,12.769 -9.286,18.34 -3.018,5.571 -3.482,15.321 -3.482,15.321 -2.553,5.571 -12.303,20.197 -19.5,25.071 -7.196,4.876 -13.695,13.464 -13.695,13.464 -8.822,1.625 -8.823,6.036 -10.68,9.288 -1.857,3.25 -4.875,10.446 -4.875,25.767 0,15.322 7.893,29.251 16.482,39.697 8.588,10.447 23.679,16.481 23.679,16.481 14.856,-1.858 16.482,-13.464 16.482,-13.464 5.341,3.714 12.071,0.465 12.071,0.465 -1.625,10.911 0,20.892 3.482,28.554 3.483,7.66 10.446,17.642 10.446,17.642 -1.392,2.321 -3.481,7.66 -3.712,8.821 -0.232,1.161 3.016,8.358 6.963,13.233 3.948,4.875 15.786,12.302 19.964,14.16 4.179,1.857 7.661,5.34 11.84,8.822 4.179,3.482 19.964,9.285 27.16,12.303 7.198,3.017 27.625,6.964 33.662,7.429 6.037,0.464 21.357,4.875 27.857,5.107 6.499,0.231 13.231,-6.732 16.018,-10.679 2.785,-3.946 3.25,-6.484 3.25,-9.75 0,3.266 0.464,5.804 3.25,9.75 2.787,3.947 9.518,10.91 16.018,10.679 6.499,-0.232 21.819,-4.643 27.856,-5.107 6.037,-0.465 26.464,-4.412 33.662,-7.429 7.196,-3.018 22.982,-8.821 27.16,-12.303 4.178,-3.482 7.661,-6.965 11.84,-8.822 4.178,-1.858 16.016,-9.285 19.964,-14.16 3.947,-4.875 7.195,-12.072 6.963,-13.233 -0.23,-1.161 -2.32,-6.5 -3.713,-8.821 0,0 6.964,-9.982 10.447,-17.642 3.482,-7.662 5.107,-17.643 3.482,-28.554 0,0 6.731,3.249 12.071,-0.465 0,0 1.626,11.606 16.483,13.464 0,0 15.09,-6.034 23.679,-16.481 8.588,-10.446 16.481,-24.375 16.481,-39.697 0,-15.321 -3.019,-22.517 -4.875,-25.767 -1.856,-3.252 -1.858,-7.663 -10.679,-9.288 0,0 -6.5,-8.588 -13.696,-13.464 -7.197,-4.874 -16.947,-19.5 -19.5,-25.071 0,0 -0.464,-9.75 -3.482,-15.321 -3.019,-5.571 -7.894,-13.233 -9.287,-18.34 -1.392,-5.106 -3.713,-16.251 -7.891,-23.679 -4.179,-7.427 -12.071,-13.927 -20.894,-19.035 -8.822,-5.107 -17.641,-13.697 -22.981,-19.268 -5.341,-5.572 -8.592,-9.052 -22.055,-13.464 -13.464,-4.411 -48.981,-13.928 -50.143,-3.25 0,0 -4.285,-4.64 -18.802,-10.448 -8.126,-3.248 -18.572,-5.802 -21.358,-5.802 z"
       style="fill:none;stroke:#231f20;stroke-width:0.75;stroke-linecap:round;stroke-linejoin:round;stroke-miterlimit:4;stroke-dasharray:none;stroke-opacity:1"
       id="path212696" />
    <path
       d="m 370.744,657.136 c 0,-2.307 1.671,-4.178 3.733,-4.178 2.064,0 3.735,1.871 3.735,4.178 0,2.308 -1.671,4.179 -3.735,4.179 -2.062,0 -3.733,-1.871 -3.733,-4.179"
       style="fill:#ffffff;fill-opacity:1;fill-rule:nonzero;stroke:none;stroke-width:0.1"
       id="path212698" />
    <path
       d="m 370.744,657.136 c 0,-2.307 1.671,-4.178 3.733,-4.178 2.064,0 3.735,1.871 3.735,4.178 0,2.308 -1.671,4.179 -3.735,4.179 -2.062,0 -3.733,-1.871 -3.733,-4.179 z"
       style="fill:none;stroke:#231f20;stroke-width:0.5;stroke-linecap:butt;stroke-linejoin:miter;stroke-miterlimit:4;stroke-dasharray:none;stroke-opacity:1"
       id="path212700" />
    <path
       d="m 319.233,566.834 c 1.626,-6.268 3.715,-10.912 5.805,-14.163 2.088,-3.248 4.178,-9.981 6.267,-14.16 2.089,-4.179 11.606,-14.857 17.642,-21.822 6.037,-6.964 14.67,-16.693 19.036,-26.464 4.876,-10.91 9.519,-43.179 -10.91,-29.946 0,0 7.893,-8.125 6.268,-17.179 -1.626,-9.054 -8.59,-30.875 -31.572,-39.929 -22.982,-9.053 -56.062,-9.866 -82.527,-4.991 -26.464,4.875 -65.813,22.635 -96.455,54.322 -30.643,31.688 -33.08,69.295 -33.778,75.563 -0.696,6.267 -2.089,16.017 2.09,21.937 4.179,5.92 8.009,12.884 3.134,16.714 -4.875,3.831 -6.278,5.664 -7.428,9.171 -4.644,14.16 -14.163,44.803 -16.483,66.858 -2.3208,22.052 5.904,83.463 42.366,132.204 34.125,45.616 93.322,79.045 151.474,101.679 58.152,22.634 116.652,26.116 144.509,27.857 27.857,1.741 69.992,2.786 90.188,-11.839 10.643,-7.707 11.143,-34.474 11.143,-43.527 0,-9.053 0,-60.358 0,-60.358 0,-3.003 -0.232,-7.892 -2.089,-14.625 -1.858,-6.731 -3.748,-13.056 -13.698,-18.106 -9.948,-5.051 -20.195,-5.107 -31.338,-6.733 -11.143,-1.625 -33.662,-7.892 -42.018,-11.142 -8.358,-3.25 -22.519,-10.912 -29.483,-16.251 -6.964,-5.339 -17.642,-12.07 -23.446,-14.392 -5.804,-2.322 -14.161,-5.34 -27.857,-2.554 0,0 9.982,-9.053 4.411,-18.339 -4.712,-7.853 -7.197,-10.679 -8.59,-18.34 -1.393,-7.66 -5.563,-16.733 -11.375,-19.5 0,0 -15.091,-6.034 -23.679,-16.481 -8.589,-10.446 -16.482,-24.375 -16.482,-39.697 0,-15.321 3.018,-22.517 4.875,-25.767"
       style="fill:#ffffff;fill-opacity:1;fill-rule:nonzero;stroke:none;stroke-width:0.1"
       id="path212702" />
    <path
       d="m 319.233,566.834 c 1.626,-6.268 3.715,-10.912 5.805,-14.163 2.088,-3.248 4.178,-9.981 6.267,-14.16 2.089,-4.179 11.606,-14.857 17.642,-21.822 6.037,-6.964 14.67,-16.693 19.036,-26.464 4.876,-10.91 9.519,-43.179 -10.91,-29.946 0,0 7.893,-8.125 6.268,-17.179 -1.626,-9.054 -8.59,-30.875 -31.572,-39.929 -22.982,-9.053 -56.062,-9.866 -82.527,-4.991 -26.464,4.875 -65.813,22.635 -96.455,54.322 -30.643,31.688 -33.08,69.295 -33.778,75.563 -0.696,6.267 -2.089,16.017 2.09,21.937 4.179,5.92 8.009,12.884 3.134,16.714 -4.875,3.831 -6.278,5.664 -7.428,9.171 -4.644,14.16 -14.163,44.803 -16.483,66.858 -2.3208,22.052 5.904,83.463 42.366,132.204 34.125,45.616 93.322,79.045 151.474,101.679 58.152,22.634 116.652,26.116 144.509,27.857 27.857,1.741 69.992,2.786 90.188,-11.839 10.643,-7.707 11.143,-34.474 11.143,-43.527 0,-9.053 0,-60.358 0,-60.358 0,-3.003 -0.232,-7.892 -2.089,-14.625 -1.858,-6.731 -3.748,-13.056 -13.698,-18.106 -9.948,-5.051 -20.195,-5.107 -31.338,-6.733 -11.143,-1.625 -33.662,-7.892 -42.018,-11.142 -8.358,-3.25 -22.519,-10.912 -29.483,-16.251 -6.964,-5.339 -17.642,-12.07 -23.446,-14.392 -5.804,-2.322 -14.161,-5.34 -27.857,-2.554 0,0 9.982,-9.053 4.411,-18.339 -4.712,-7.853 -7.197,-10.679 -8.59,-18.34 -1.393,-7.66 -5.563,-16.733 -11.375,-19.5 0,0 -15.091,-6.034 -23.679,-16.481 -8.589,-10.446 -16.482,-24.375 -16.482,-39.697 0,-15.321 3.018,-22.517 4.875,-25.767 z"
       style="fill:none;stroke:#231f20;stroke-width:0.75;stroke-linecap:round;stroke-linejoin:round;stroke-miterlimit:4;stroke-dasharray:none;stroke-opacity:1"
       id="path212704" />
    <path
       d="m 580.162,406.654 c 0.696,2.321 2.321,3.945 7.661,5.571 5.34,1.625 19.268,4.644 26.697,8.59 7.428,3.945 14.161,9.517 18.106,12.535 3.947,3.019 12.537,6.734 20.198,9.982 7.66,3.25 19.964,9.286 25.071,13 5.107,3.715 11.375,8.358 12.535,15.322 1.16,6.965 1.624,14.393 3.25,17.643 1.625,3.249 6.27,11.839 8.126,18.572 1.857,6.731 4.6,13.548 6.732,14.855 2.176,1.336 6.501,2.091 8.357,-3.713"
       style="fill:none;stroke:#231f20;stroke-width:0.5;stroke-linecap:butt;stroke-linejoin:miter;stroke-miterlimit:4;stroke-dasharray:none;stroke-opacity:1"
       id="path212706" />
    <path
       d="m 705.404,766.592 c 0,0 23.33,14.277 68.598,-5.223 51.666,-22.256 75.214,-48.054 96.456,-83.224 21.241,-35.169 22.286,-59.893 19.152,-92.625 -3.135,-32.732 -8.358,-63.375 -26.813,-94.018 -18.456,-30.643 -39.697,-41.089 -52.928,-47.706 -13.233,-6.615 -24.376,-7.66 -24.376,-9.401 0,-1.741 11.143,-3.83 36.911,9.401 25.767,13.233 44.92,37.26 57.804,62.679 12.883,25.42 18.455,77.652 19.848,109.34 1.393,31.687 -9.833,54.025 -22.634,81.134 -11.84,25.072 -37.607,54.322 -65.116,66.857 -34.879,15.895 -89.143,34.474 -108.295,37.608 -19.152,3.133 -73.197,15.044 -79.045,16.713 -4.875,1.394 -12.536,0.698 -9.053,-6.615 3.482,-7.312 24.026,-35.17 28.901,-41.786 4.875,-6.616 11.491,-13.58 24.724,-12.536 12.669,1.001 25.42,4.527 35.866,9.402 z"
       style="fill:none;stroke:#231f20;stroke-width:0.5;stroke-linecap:butt;stroke-linejoin:miter;stroke-miterlimit:4;stroke-dasharray:none;stroke-opacity:1"
       id="path212708" />
    <path
       d="m 785.493,434.395 c 6.268,0.696 32.452,4.387 55.715,25.42 23.262,21.032 44.223,51.884 49.794,105.857 5.572,53.973 4.875,61.982 -5.223,91.929 -10.098,29.946 -41.089,75.563 -76.259,93.321 -35.17,17.759 -55.366,29.25 -143.465,42.83"
       style="fill:none;stroke:#231f20;stroke-width:0.75;stroke-linecap:round;stroke-linejoin:round;stroke-miterlimit:4;stroke-dasharray:none;stroke-opacity:1"
       id="path212710" />
    <path
       d="m 643.616,771.353 c 7.814,-3.02 27.407,-4.311 40.547,-1.976 15.669,2.787 33.885,13.973 60.295,8.554"
       style="fill:none;stroke:#231f20;stroke-width:0.5;stroke-linecap:butt;stroke-linejoin:miter;stroke-miterlimit:4;stroke-dasharray:none;stroke-opacity:1"
       id="path212712" />
    <path
       d="m 544.883,692.578 c 2.977,0.585 6.261,5.067 5.565,15.166 -0.696,10.098 5.571,19.5 14.277,19.848 8.705,0.348 30.991,1.742 63.375,-12.536 32.384,-14.276 49.823,-25.261 54.902,-33.08"
       style="fill:none;stroke:#231f20;stroke-width:0.5;stroke-linecap:butt;stroke-linejoin:miter;stroke-miterlimit:4;stroke-dasharray:none;stroke-opacity:1"
       id="path212714" />
    <path
       d="M 540.002,731.422 V 691.03"
       style="fill:none;stroke:#231f20;stroke-width:0.75;stroke-linecap:round;stroke-linejoin:round;stroke-miterlimit:4;stroke-dasharray:none;stroke-opacity:1"
       id="path212716" />
    <path
       d="m 664.645,606.502 c -4.856,-0.794 -9.036,-0.786 -17.393,7.92 -8.357,8.705 -16.714,18.455 -19.5,27.509 -2.786,9.054 -7.574,14.197 -10.794,19.151 -3.22,4.954 -10.099,8.01 -14.011,14.636 -2.503,1.849 -5.259,3.604 -8.276,5.213 -7.706,4.111 -18.455,6.268 -22.982,5.224 -4.526,-1.045 -10.098,-2.438 -10.795,-0.349 -0.696,2.089 9.402,8.705 14.974,9.402 5.571,0.697 22.634,3.482 37.955,-5.223 15.322,-8.705 37.607,-25.768 51.188,-42.483 13.58,-16.713 22.344,-27.58 17.746,-33.412"
       style="fill:none;stroke:#231f20;stroke-width:0.5;stroke-linecap:butt;stroke-linejoin:miter;stroke-miterlimit:4;stroke-dasharray:none;stroke-opacity:1"
       id="path212718" />
    <path
       d="m 563.68,554.181 c 3.483,2.089 3.83,4.527 4.179,10.098 0.348,5.571 0,12.885 8.009,18.107 8.008,5.224 18.803,8.705 21.241,14.974 2.437,6.267 8.183,8.121 1.654,29.481"
       style="fill:none;stroke:#231f20;stroke-width:0.5;stroke-linecap:butt;stroke-linejoin:miter;stroke-miterlimit:4;stroke-dasharray:none;stroke-opacity:1"
       id="path212720" />
    <path
       d="m 596.502,596.128 c -1.482,-6.429 0.464,-14.12 1.767,-20.754 1.974,-10.05 0.929,-30.247 -17.178,-44.524"
       style="fill:none;stroke:#231f20;stroke-width:0.25;stroke-linecap:butt;stroke-linejoin:miter;stroke-miterlimit:4;stroke-dasharray:none;stroke-opacity:1"
       id="path212722" />
    <path
       d="m 600.825,604.838 c -0.93,-8.872 1.507,-22.799 3.596,-31.853 2.089,-9.054 7.313,-24.724 -12.536,-45.965"
       style="fill:none;stroke:#231f20;stroke-width:0.25;stroke-linecap:butt;stroke-linejoin:miter;stroke-miterlimit:4;stroke-dasharray:none;stroke-opacity:1"
       id="path212724" />
    <path
       d="m 563.68,554.181 c 1.249,0.069 1.859,-7.081 1.393,-10.795 -0.465,-3.713 -1.825,-11.102 -6.499,-15.552 -4.875,-4.644 -13.466,-9.519 -13.466,-5.34 0,4.665 -0.696,7.428 2.555,8.126 3.251,0.696 9.75,3.016 10.446,8.356 0.696,5.338 1.393,14.974 5.571,15.205 z"
       style="fill:none;stroke:#231f20;stroke-width:0.5;stroke-linecap:butt;stroke-linejoin:miter;stroke-miterlimit:4;stroke-dasharray:none;stroke-opacity:1"
       id="path212726" />
    <path
       d="m 623.573,481.404 c -1.726,0.726 -4.642,2.322 -8.124,-2.553 -3.483,-4.875 -10.91,-20.196 -22.286,-26.465 -11.375,-6.267 -18.338,-15.785 -19.5,-19.5 -1.161,-3.715 -0.465,-8.588 3.946,-11.142 4.411,-2.555 9.751,-2.089 14.857,1.392 5.107,3.483 12.304,8.358 22.054,22.75 9.75,14.393 13.233,21.357 13.464,25.535 0.231,4.179 0,8.126 -4.411,9.983 z"
       style="fill:none;stroke:#231f20;stroke-width:0.5;stroke-linecap:butt;stroke-linejoin:miter;stroke-miterlimit:4;stroke-dasharray:none;stroke-opacity:1"
       id="path212728" />
    <path
       d="M 623.573,481.404 C 621.252,475.6 615.68,463.76 603.144,449.369 590.608,434.976 582.252,427.084 577.609,421.744"
       style="fill:none;stroke:#231f20;stroke-width:0.5;stroke-linecap:butt;stroke-linejoin:miter;stroke-miterlimit:4;stroke-dasharray:none;stroke-opacity:1"
       id="path212730" />
    <path
       d="m 499.841,406.654 c -0.696,2.321 -2.32,3.945 -7.661,5.571 -5.34,1.625 -19.268,4.644 -26.696,8.59 -7.429,3.945 -14.161,9.517 -18.108,12.535 -3.946,3.019 -12.536,6.734 -20.196,9.982 -7.661,3.25 -19.964,9.286 -25.071,13 -5.109,3.715 -11.376,8.358 -12.536,15.322 -1.16,6.965 -1.624,14.393 -3.25,17.643 -1.625,3.249 -6.269,11.839 -8.126,18.572 -1.857,6.731 -4.6,13.548 -6.732,14.855 -2.175,1.336 -6.5,2.091 -8.357,-3.713"
       style="fill:none;stroke:#231f20;stroke-width:0.5;stroke-linecap:butt;stroke-linejoin:miter;stroke-miterlimit:4;stroke-dasharray:none;stroke-opacity:1"
       id="path212732" />
    <path
       d="m 374.599,766.592 c 0,0 -23.33,14.277 -68.598,-5.223 -51.667,-22.256 -75.214,-48.054 -96.456,-83.224 -21.241,-35.169 -22.285,-59.893 -19.151,-92.625 3.134,-32.732 8.356,-63.375 26.813,-94.018 18.455,-30.643 39.696,-41.089 52.928,-47.706 13.232,-6.615 24.375,-7.66 24.375,-9.401 0,-1.741 -11.143,-3.83 -36.911,9.401 -25.767,13.233 -44.92,37.26 -57.804,62.679 -12.883,25.42 -18.455,77.652 -19.847,109.34 -1.394,31.687 9.833,54.025 22.634,81.134 11.838,25.072 37.607,54.322 65.116,66.857 34.878,15.895 89.142,34.474 108.295,37.608 19.151,3.133 73.197,15.044 79.045,16.713 4.875,1.394 12.535,0.698 9.052,-6.615 -3.481,-7.312 -24.026,-35.17 -28.901,-41.786 -4.875,-6.616 -11.491,-13.58 -24.724,-12.536 -12.669,1.001 -25.419,4.527 -35.866,9.402 z"
       style="fill:none;stroke:#231f20;stroke-width:0.5;stroke-linecap:butt;stroke-linejoin:miter;stroke-miterlimit:4;stroke-dasharray:none;stroke-opacity:1"
       id="path212734" />
    <path
       d="m 294.51,434.395 c -6.268,0.696 -32.452,4.387 -55.715,25.42 -23.261,21.032 -44.222,51.884 -49.795,105.857 -5.571,53.973 -4.874,61.982 5.224,91.929 10.099,29.946 41.09,75.563 76.259,93.321 35.17,17.759 55.366,29.25 143.465,42.83"
       style="fill:none;stroke:#231f20;stroke-width:0.75;stroke-linecap:round;stroke-linejoin:round;stroke-miterlimit:4;stroke-dasharray:none;stroke-opacity:1"
       id="path212736" />
    <path
       d="m 436.387,771.353 c -7.814,-3.02 -27.407,-4.311 -40.547,-1.976 -15.669,2.787 -33.885,13.973 -60.295,8.554"
       style="fill:none;stroke:#231f20;stroke-width:0.5;stroke-linecap:butt;stroke-linejoin:miter;stroke-miterlimit:4;stroke-dasharray:none;stroke-opacity:1"
       id="path212738" />
    <path
       d="m 365.105,644.69 c -3.227,-6.992 -0.604,-12.509 3.227,-19.125 3.83,-6.616 10.794,-4.526 14.277,-2.438 3.481,2.089 4.875,10.099 3.83,19.849 -1.045,9.75 5.571,21.241 8.705,26.813 3.134,5.571 9.054,8.705 14.974,10.446 5.919,1.741 16.714,9.75 39.696,20.196 22.982,10.446 41.089,10.446 52.929,10.446 11.839,0 18.107,-9.053 25.071,-14.972 6.965,-5.92 11.143,-2.786 12.188,0.347 1.044,-3.133 5.223,-6.267 12.187,-0.347 6.965,5.919 13.232,14.972 25.071,14.972 11.84,0 29.948,0 52.929,-10.446 22.982,-10.446 33.777,-18.455 39.697,-20.196 5.919,-1.741 11.839,-4.875 14.973,-10.446 3.134,-5.572 9.75,-17.063 8.705,-26.813 -1.044,-9.75 0.349,-17.76 3.831,-19.849 3.481,-2.088 10.446,-4.178 14.276,2.438 3.831,6.616 6.453,12.133 3.227,19.125"
       style="fill:none;stroke:#231f20;stroke-width:0.5;stroke-linecap:butt;stroke-linejoin:miter;stroke-miterlimit:4;stroke-dasharray:none;stroke-opacity:1"
       id="path212740" />
    <path
       d="m 535.12,692.578 c -2.976,0.585 -6.261,5.067 -5.565,15.166 0.697,10.098 -5.571,19.5 -14.276,19.848 -8.706,0.348 -30.991,1.742 -63.376,-12.536 C 419.519,700.78 402.08,689.795 397,681.976"
       style="fill:none;stroke:#231f20;stroke-width:0.5;stroke-linecap:butt;stroke-linejoin:miter;stroke-miterlimit:4;stroke-dasharray:none;stroke-opacity:1"
       id="path212742" />
    <path
       d="m 386.142,629.806 c 7.364,-23.963 36.859,-25.482 49.047,-24.437 12.187,1.045 31.687,9.053 36.911,12.883 5.223,3.83 11.143,10.447 13.232,13.929 2.089,3.483 20.196,15.67 29.25,20.893 9.053,5.223 19.848,8.008 25.42,8.008 5.571,0 16.366,-2.785 25.419,-8.008 9.054,-5.223 27.161,-17.41 29.25,-20.893 2.089,-3.482 8.009,-10.099 13.233,-13.929 5.222,-3.83 24.722,-11.838 36.91,-12.883 12.188,-1.045 41.683,0.474 49.047,24.437"
       style="fill:none;stroke:#231f20;stroke-width:0.5;stroke-linecap:butt;stroke-linejoin:miter;stroke-miterlimit:4;stroke-dasharray:none;stroke-opacity:1"
       id="path212744" />
    <path
       d="m 446.954,607.722 c 3.407,5.137 11.914,20.28 34.547,37.692 22.634,17.41 52.581,20.196 58.501,20.196 5.919,0 35.866,-2.786 58.5,-20.196 22.633,-17.412 31.14,-32.555 34.548,-37.692"
       style="fill:none;stroke:#231f20;stroke-width:0.5;stroke-linecap:butt;stroke-linejoin:miter;stroke-miterlimit:4;stroke-dasharray:none;stroke-opacity:1"
       id="path212746" />
    <path
       d="m 415.358,606.502 c 4.856,-0.794 9.036,-0.786 17.393,7.92 8.358,8.705 16.714,18.455 19.5,27.509 2.787,9.054 7.574,14.197 10.795,19.151 3.22,4.954 10.098,8.01 14.01,14.636 2.503,1.849 5.259,3.604 8.276,5.213 7.706,4.111 18.456,6.268 22.982,5.224 4.527,-1.045 10.099,-2.438 10.795,-0.349 0.696,2.089 -9.402,8.705 -14.974,9.402 -5.571,0.697 -22.634,3.482 -37.955,-5.223 -15.321,-8.705 -37.607,-25.768 -51.187,-42.483 -13.581,-16.713 -22.345,-27.58 -17.747,-33.412"
       style="fill:none;stroke:#231f20;stroke-width:0.5;stroke-linecap:butt;stroke-linejoin:miter;stroke-miterlimit:4;stroke-dasharray:none;stroke-opacity:1"
       id="path212748" />
    <path
       d="m 516.323,554.181 c -3.482,2.089 -3.83,4.527 -4.179,10.098 -0.348,5.571 0,12.885 -8.009,18.107 -8.009,5.224 -18.803,8.705 -21.241,14.974 -2.437,6.267 -8.183,8.121 -1.653,29.481"
       style="fill:none;stroke:#231f20;stroke-width:0.5;stroke-linecap:butt;stroke-linejoin:miter;stroke-miterlimit:4;stroke-dasharray:none;stroke-opacity:1"
       id="path212750" />
    <path
       d="m 483.501,596.128 c 1.483,-6.429 -0.463,-14.12 -1.767,-20.754 -1.974,-10.05 -0.929,-30.247 17.179,-44.524"
       style="fill:none;stroke:#231f20;stroke-width:0.25;stroke-linecap:butt;stroke-linejoin:miter;stroke-miterlimit:4;stroke-dasharray:none;stroke-opacity:1"
       id="path212752" />
    <path
       d="m 479.178,604.838 c 0.931,-8.872 -1.507,-22.799 -3.596,-31.853 -2.089,-9.054 -7.313,-24.724 12.536,-45.965"
       style="fill:none;stroke:#231f20;stroke-width:0.25;stroke-linecap:butt;stroke-linejoin:miter;stroke-miterlimit:4;stroke-dasharray:none;stroke-opacity:1"
       id="path212754" />
    <path
       d="m 542.265,611.462 c -0.522,0 -0.522,1.567 -0.522,2.786 0,1.218 -0.697,2.786 -1.741,2.786 -1.045,0 -1.742,-1.568 -1.742,-2.786 0,-1.219 0,-2.786 -0.522,-2.786 -0.783,0 -0.967,-2.611 0.078,-2.611 0.793,0 0.749,-2.612 0.749,-4.005 0,-0.944 0.044,-4.962 0.087,-7.53 0.02,-1.194 0.732,-1.871 1.35,-1.871 0.617,0 1.329,0.677 1.349,1.871 0.043,2.568 0.087,6.586 0.087,7.53 0,1.393 -0.044,4.005 0.749,4.005 1.045,0 0.861,2.611 0.078,2.611"
       style="fill:#706d6e;fill-opacity:1;fill-rule:nonzero;stroke:none;stroke-width:0.1"
       id="path212756" />
    <path
       d="m 542.265,611.462 c -0.522,0 -0.522,1.567 -0.522,2.786 0,1.218 -0.697,2.786 -1.741,2.786 -1.045,0 -1.742,-1.568 -1.742,-2.786 0,-1.219 0,-2.786 -0.522,-2.786 -0.783,0 -0.967,-2.611 0.078,-2.611 0.793,0 0.749,-2.612 0.749,-4.005 0,-0.944 0.044,-4.962 0.087,-7.53 0.02,-1.194 0.732,-1.871 1.35,-1.871 0.617,0 1.329,0.677 1.349,1.871 0.043,2.568 0.087,6.586 0.087,7.53 0,1.393 -0.044,4.005 0.749,4.005 1.045,0 0.861,2.611 0.078,2.611 z"
       style="fill:none;stroke:#231f20;stroke-width:0.75;stroke-linecap:round;stroke-linejoin:round;stroke-miterlimit:4;stroke-dasharray:none;stroke-opacity:1"
       id="path212758" />
    <path
       d="m 516.323,554.181 c -1.248,0.069 -1.858,-7.081 -1.393,-10.795 0.465,-3.713 1.826,-11.102 6.5,-15.552 4.875,-4.644 13.465,-9.519 13.465,-5.34 0,4.665 0.696,7.428 -2.554,8.126 -3.251,0.696 -9.75,3.016 -10.447,8.356 -0.696,5.338 -1.392,14.974 -5.571,15.205 z"
       style="fill:none;stroke:#231f20;stroke-width:0.5;stroke-linecap:butt;stroke-linejoin:miter;stroke-miterlimit:4;stroke-dasharray:none;stroke-opacity:1"
       id="path212760" />
    <path
       d="m 517.251,522.262 c 4.178,-0.928 17.644,-9.054 22.751,-11.841 3.189,-1.739 14.666,-3.033 17.642,-3.016"
       style="fill:none;stroke:#231f20;stroke-width:0.25;stroke-linecap:butt;stroke-linejoin:miter;stroke-miterlimit:4;stroke-dasharray:none;stroke-opacity:1"
       id="path212762" />
    <path
       d="m 522.359,507.405 c 2.976,-0.017 14.393,1.391 17.643,3.016 5.203,2.603 18.572,10.913 22.75,11.841"
       style="fill:none;stroke:#231f20;stroke-width:0.25;stroke-linecap:butt;stroke-linejoin:miter;stroke-miterlimit:4;stroke-dasharray:none;stroke-opacity:1"
       id="path212764" />
    <path
       d="m 456.43,481.404 c 1.726,0.726 4.643,2.322 8.124,-2.553 3.483,-4.875 10.911,-20.196 22.286,-26.465 11.375,-6.267 18.339,-15.785 19.5,-19.5 1.162,-3.715 0.465,-8.588 -3.946,-11.142 -4.411,-2.555 -9.751,-2.089 -14.857,1.392 -5.107,3.483 -12.303,8.358 -22.053,22.75 -9.75,14.393 -13.234,21.357 -13.465,25.535 -0.231,4.179 0,8.126 4.411,9.983 z"
       style="fill:none;stroke:#231f20;stroke-width:0.5;stroke-linecap:butt;stroke-linejoin:miter;stroke-miterlimit:4;stroke-dasharray:none;stroke-opacity:1"
       id="path212766" />
    <path
       d="m 456.43,481.404 c 2.321,-5.804 7.894,-17.644 20.429,-32.035 12.536,-14.393 20.893,-22.285 25.535,-27.625"
       style="fill:none;stroke:#231f20;stroke-width:0.5;stroke-linecap:butt;stroke-linejoin:miter;stroke-miterlimit:4;stroke-dasharray:none;stroke-opacity:1"
       id="path212768" />
    <path
       d="m 709.93,704.958 c 6.269,2.089 22.286,5.223 34.125,5.572 11.84,0.347 30.991,-2.786 48.403,-17.063 17.411,-14.277 45.616,-43.875 50.491,-71.036 4.875,-27.161 4.717,-53.147 -27.161,-102.027 -26.117,-40.045 -35.518,-28.205 -62.33,-38.652 -22.502,-8.766 -30.528,-21.473 -30.528,-21.473"
       style="fill:none;stroke:#231f20;stroke-width:0.5;stroke-linecap:butt;stroke-linejoin:miter;stroke-miterlimit:4;stroke-dasharray:none;stroke-opacity:1"
       id="path212770" />
    <path
       d="m 370.073,704.958 c -6.268,2.089 -22.286,5.223 -34.125,5.572 -11.84,0.347 -30.991,-2.786 -48.403,-17.063 -17.41,-14.277 -45.616,-43.875 -50.491,-71.036 -4.875,-27.161 -4.717,-53.147 27.161,-102.027 26.117,-40.045 35.518,-28.205 62.33,-38.652 22.502,-8.766 30.528,-21.473 30.528,-21.473"
       style="fill:none;stroke:#231f20;stroke-width:0.5;stroke-linecap:butt;stroke-linejoin:miter;stroke-miterlimit:4;stroke-dasharray:none;stroke-opacity:1"
       id="path212772" />
    <path
       d="m 705.404,766.592 c -6.268,-5.571 -13.929,-10.098 -25.072,-14.277 -11.143,-4.179 -18.456,-11.491 -14.973,-18.107 3.482,-6.616 22.634,-16.018 44.223,-8.706 21.589,7.313 36.214,16.367 44.572,16.715"
       style="fill:none;stroke:#231f20;stroke-width:0.5;stroke-linecap:round;stroke-linejoin:round;stroke-miterlimit:4;stroke-dasharray:2.8, 1.8;stroke-dashoffset:0;stroke-opacity:1"
       id="path212774" />
    <path
       d="m 665.359,734.208 c -4.179,-2.437 -8.733,-8.192 -6.732,-12.304"
       style="fill:none;stroke:#231f20;stroke-width:0.5;stroke-linecap:round;stroke-linejoin:round;stroke-miterlimit:4;stroke-dasharray:2.8, 1.8;stroke-dashoffset:0;stroke-opacity:1"
       id="path212776" />
    <path
       d="m 756.765,746.396 c 4.14,4.733 9.324,9.927 18.37,14.481"
       style="fill:none;stroke:#231f20;stroke-width:0.5;stroke-linecap:round;stroke-linejoin:round;stroke-miterlimit:4;stroke-dasharray:2.8, 1.8;stroke-dashoffset:0;stroke-opacity:1"
       id="path212778" />
    <path
       d="m 747.586,732.084 c 4.126,-1.021 6.269,-2.071 12.488,-4.144 8.671,-2.891 42.134,-17.759 62.33,-41.089 20.196,-23.331 33.777,-48.402 37.259,-76.956 3.482,-28.554 -0.348,-60.066 -21.835,-84.42"
       style="fill:none;stroke:#231f20;stroke-width:0.5;stroke-linecap:round;stroke-linejoin:round;stroke-miterlimit:4;stroke-dasharray:2.8, 1.8;stroke-dashoffset:0;stroke-opacity:1"
       id="path212780" />
    <path
       d="m 754.154,742.217 c -6.616,-8.88 -11.724,-19.094 -16.018,-32.051"
       style="fill:none;stroke:#231f20;stroke-width:0.5;stroke-linecap:round;stroke-linejoin:round;stroke-miterlimit:4;stroke-dasharray:2.8, 1.8;stroke-dashoffset:0;stroke-opacity:1"
       id="path212782" />
    <path
       d="m 323.238,746.396 c -4.139,4.733 -9.324,9.927 -18.37,14.481"
       style="fill:none;stroke:#231f20;stroke-width:0.5;stroke-linecap:round;stroke-linejoin:round;stroke-miterlimit:4;stroke-dasharray:2.8, 1.8;stroke-dashoffset:0;stroke-opacity:1"
       id="path212784" />
    <path
       d="m 332.416,732.084 c -4.125,-1.021 -6.267,-2.071 -12.486,-4.144 -8.672,-2.891 -42.135,-17.759 -62.331,-41.089 -20.196,-23.331 -33.776,-48.402 -37.259,-76.956 -3.482,-28.554 0.348,-60.066 21.835,-84.42"
       style="fill:none;stroke:#231f20;stroke-width:0.5;stroke-linecap:round;stroke-linejoin:round;stroke-miterlimit:4;stroke-dasharray:2.8, 1.8;stroke-dashoffset:0;stroke-opacity:1"
       id="path212786" />
    <path
       d="m 325.849,742.217 c 6.616,-8.88 11.724,-19.094 16.019,-32.051"
       style="fill:none;stroke:#231f20;stroke-width:0.5;stroke-linecap:round;stroke-linejoin:round;stroke-miterlimit:4;stroke-dasharray:2.8, 1.8;stroke-dashoffset:0;stroke-opacity:1"
       id="path212788" />
    <path
       d="m 815.788,520.404 c 6.268,0.696 33.081,5.92 49.794,18.107"
       style="fill:none;stroke:#231f20;stroke-width:0.5;stroke-linecap:round;stroke-linejoin:round;stroke-miterlimit:4;stroke-dasharray:2.8, 1.8;stroke-dashoffset:0;stroke-opacity:1"
       id="path212790" />
    <path
       d="m 865.582,538.511 c -4.526,-9.75 -14.973,-35.17 -35.517,-52.232 -20.545,-17.063 -36.275,-20.083 -51.188,-22.285 -18.619,-2.749 -48.402,-4.179 -44.572,-30.992"
       style="fill:none;stroke:#231f20;stroke-width:0.5;stroke-linecap:round;stroke-linejoin:round;stroke-miterlimit:4;stroke-dasharray:2.8, 1.8;stroke-dashoffset:0;stroke-opacity:1"
       id="path212792" />
    <path
       d="m 719.915,432.051 c 6.73,0.603 57.247,1.876 65.578,2.344"
       style="fill:none;stroke:#231f20;stroke-width:0.5;stroke-linecap:round;stroke-linejoin:round;stroke-miterlimit:4;stroke-dasharray:2.8, 1.8;stroke-dashoffset:0;stroke-opacity:1"
       id="path212794" />
    <path
       d="m 734.294,432.892 c 0.36,-4.068 2.275,-12.077 9.761,-15.908 5.651,-2.891 12.719,-5.272 21.569,-7.962 6.142,-1.868 13.576,-4.511 20.566,-4.226 17.062,0.697 39.348,1.045 53.276,5.224"
       style="fill:none;stroke:#231f20;stroke-width:0.5;stroke-linecap:round;stroke-linejoin:round;stroke-miterlimit:4;stroke-dasharray:2.8, 1.8;stroke-dashoffset:0;stroke-opacity:1"
       id="path212796" />
    <path
       d="m 785.493,434.395 c 1.045,-6.616 -0.697,-21.706 -37.259,-31.224"
       style="fill:none;stroke:#231f20;stroke-width:0.5;stroke-linecap:round;stroke-linejoin:round;stroke-miterlimit:4;stroke-dasharray:2.8, 1.8;stroke-dashoffset:0;stroke-opacity:1"
       id="path212798" />
    <path
       d="m 822.404,443.796 21.339,-42.465"
       style="fill:none;stroke:#231f20;stroke-width:0.5;stroke-linecap:round;stroke-linejoin:round;stroke-miterlimit:4;stroke-dasharray:2.8, 1.8;stroke-dashoffset:0;stroke-opacity:1"
       id="path212800" />
    <path
       d="m 780.43,419.188 c 8.857,-1.508 27.988,-3.972 52.392,3.876"
       style="fill:none;stroke:#231f20;stroke-width:0.5;stroke-linecap:round;stroke-linejoin:round;stroke-miterlimit:4;stroke-dasharray:2.8, 1.8;stroke-dashoffset:0;stroke-opacity:1"
       id="path212802" />
    <path
       d="m 875.332,545.475 c 0,0 7.792,5.55 10.861,12.699"
       style="fill:none;stroke:#231f20;stroke-width:0.5;stroke-linecap:round;stroke-linejoin:round;stroke-miterlimit:4;stroke-dasharray:2.8, 1.8;stroke-dashoffset:0;stroke-opacity:1"
       id="path212804" />
    <path
       d="m 637.777,779.329 c -3.409,-7.165 -8.284,-20.165 -8.632,-41.174"
       style="fill:none;stroke:#231f20;stroke-width:0.5;stroke-linecap:round;stroke-linejoin:round;stroke-miterlimit:4;stroke-dasharray:2.8, 1.8;stroke-dashoffset:0;stroke-opacity:1"
       id="path212806" />
    <path
       d="m 583.215,749.818 c 3.795,3.542 34.43,25.375 47.841,38.833"
       style="fill:none;stroke:#231f20;stroke-width:0.5;stroke-linecap:round;stroke-linejoin:round;stroke-miterlimit:4;stroke-dasharray:2.8, 1.8;stroke-dashoffset:0;stroke-opacity:1"
       id="path212808" />
    <path
       d="m 540.002,795.272 c 6.267,0.812 79.872,9.588 79.872,9.588"
       style="fill:none;stroke:#231f20;stroke-width:0.5;stroke-linecap:round;stroke-linejoin:round;stroke-miterlimit:4;stroke-dasharray:2.8, 1.8;stroke-dashoffset:0;stroke-opacity:1"
       id="path212810" />
    <path
       d="m 540.35,861.306 75.138,-44.739"
       style="fill:none;stroke:#231f20;stroke-width:0.5;stroke-linecap:round;stroke-linejoin:round;stroke-miterlimit:4;stroke-dasharray:2.8, 1.8;stroke-dashoffset:0;stroke-opacity:1"
       id="path212812" />
    <path
       d="m 588.738,904.266 37.698,-86.523"
       style="fill:none;stroke:#231f20;stroke-width:0.5;stroke-linecap:round;stroke-linejoin:round;stroke-miterlimit:4;stroke-dasharray:2.8, 1.8;stroke-dashoffset:0;stroke-opacity:1"
       id="path212814" />
    <path
       d="m 633.329,904.935 5.865,-90.157"
       style="fill:none;stroke:#231f20;stroke-width:0.5;stroke-linecap:round;stroke-linejoin:round;stroke-miterlimit:4;stroke-dasharray:2.8, 1.8;stroke-dashoffset:0;stroke-opacity:1"
       id="path212816" />
    <path
       d="M 672.02,902.157 660.411,810.124"
       style="fill:none;stroke:#231f20;stroke-width:0.5;stroke-linecap:round;stroke-linejoin:round;stroke-miterlimit:4;stroke-dasharray:2.8, 1.8;stroke-dashoffset:0;stroke-opacity:1"
       id="path212818" />
    <path
       d="M 751.19,888.041 731.234,794.304"
       style="fill:none;stroke:#231f20;stroke-width:0.5;stroke-linecap:round;stroke-linejoin:round;stroke-miterlimit:4;stroke-dasharray:2.8, 1.8;stroke-dashoffset:0;stroke-opacity:1"
       id="path212820" />
    <path
       d="M 830.371,857.049 794.126,771.638"
       style="fill:none;stroke:#231f20;stroke-width:0.5;stroke-linecap:round;stroke-linejoin:round;stroke-miterlimit:4;stroke-dasharray:2.8, 1.8;stroke-dashoffset:0;stroke-opacity:1"
       id="path212822" />
    <path
       d="M 908.239,806.181 846.8,739.101"
       style="fill:none;stroke:#231f20;stroke-width:0.5;stroke-linecap:round;stroke-linejoin:round;stroke-miterlimit:4;stroke-dasharray:2.8, 1.8;stroke-dashoffset:0;stroke-opacity:1"
       id="path212824" />
    <path
       d="m 862.416,721.299 74.899,53.65"
       style="fill:none;stroke:#231f20;stroke-width:0.5;stroke-linecap:round;stroke-linejoin:round;stroke-miterlimit:4;stroke-dasharray:2.8, 1.8;stroke-dashoffset:0;stroke-opacity:1"
       id="path212826" />
    <path
       d="m 888.035,673.888 85.981,21.09"
       style="fill:none;stroke:#231f20;stroke-width:0.5;stroke-linecap:round;stroke-linejoin:round;stroke-miterlimit:4;stroke-dasharray:2.8, 1.8;stroke-dashoffset:0;stroke-opacity:1"
       id="path212828" />
    <path
       d="m 897.398,646.059 82.608,7.368"
       style="fill:none;stroke:#231f20;stroke-width:0.5;stroke-linecap:round;stroke-linejoin:round;stroke-miterlimit:4;stroke-dasharray:2.8, 1.8;stroke-dashoffset:0;stroke-opacity:1"
       id="path212830" />
    <path
       d="m 900.158,619.301 74.803,-2.451"
       style="fill:none;stroke:#231f20;stroke-width:0.5;stroke-linecap:round;stroke-linejoin:round;stroke-miterlimit:4;stroke-dasharray:2.8, 1.8;stroke-dashoffset:0;stroke-opacity:1"
       id="path212832" />
    <path
       d="m 898.183,588.982 68.033,-3.65"
       style="fill:none;stroke:#231f20;stroke-width:0.5;stroke-linecap:round;stroke-linejoin:round;stroke-miterlimit:4;stroke-dasharray:2.8, 1.8;stroke-dashoffset:0;stroke-opacity:1"
       id="path212834" />
    <path
       d="m 895.158,563.535 c 0,0 42.137,-12.545 65.676,-17.657"
       style="fill:none;stroke:#231f20;stroke-width:0.5;stroke-linecap:round;stroke-linejoin:round;stroke-miterlimit:4;stroke-dasharray:2.8, 1.8;stroke-dashoffset:0;stroke-opacity:1"
       id="path212836" />
    <path
       d="m 696.931,635.78 c -0.929,-3.599 -1.626,-11.956 6.732,-12.304 8.357,-0.349 6.847,8.356 5.339,11.839"
       style="fill:none;stroke:#231f20;stroke-width:0.5;stroke-linecap:round;stroke-linejoin:round;stroke-miterlimit:4;stroke-dasharray:2.8, 1.8;stroke-dashoffset:0;stroke-opacity:1"
       id="path212838" />
    <path
       d="m 545.573,695.556 c 0,8.009 0,25.42 0,28.205 0,7.313 5.508,21.947 14.277,23.331 6.616,1.044 24.723,-5.223 35.518,-6.268 10.795,-1.044 27.161,-8.357 33.777,-9.75 6.615,-1.393 12.535,-3.83 22.634,-11.143 10.097,-7.312 22.982,-17.062 27.16,-21.589 4.179,-4.527 3.6,-10.343 0.233,-11.962"
       style="fill:none;stroke:#231f20;stroke-width:0.5;stroke-linecap:round;stroke-linejoin:round;stroke-miterlimit:4;stroke-dasharray:2.8, 1.8;stroke-dashoffset:0;stroke-opacity:1"
       id="path212840" />
    <path
       d="m 696.618,623.738 c -0.616,-4.093 -3.054,-19.762 4.258,-34.039 0,0 5.92,1.741 9.054,1.392 0,0 4.804,0.55 1.741,34.474"
       style="fill:none;stroke:#231f20;stroke-width:0.5;stroke-linecap:round;stroke-linejoin:round;stroke-miterlimit:4;stroke-dasharray:2.8, 1.8;stroke-dashoffset:0;stroke-opacity:1"
       id="path212842" />
    <path
       d="m 716.185,640.487 c 1.406,2.14 5.236,5.623 10.111,3.882 4.875,-1.742 13.233,-4.179 23.331,-18.455 10.098,-14.278 15.322,-27.855 12.188,-45.616 -3.135,-17.76 -10.099,-21.242 -16.366,-21.242 -6.269,0 -17.283,2.438 -20.068,6.964"
       style="fill:none;stroke:#231f20;stroke-width:0.5;stroke-linecap:round;stroke-linejoin:round;stroke-miterlimit:4;stroke-dasharray:2.8, 1.8;stroke-dashoffset:0;stroke-opacity:1"
       id="path212844" />
    <path
       d="m 700.876,589.699 c -1.392,-5.572 0.471,-24.459 11.144,-29.599 9.401,-4.526 17.522,0.259 12.188,8.01 -6.141,8.92 -10.795,17.41 -14.278,22.981"
       style="fill:none;stroke:#231f20;stroke-width:0.5;stroke-linecap:round;stroke-linejoin:round;stroke-miterlimit:4;stroke-dasharray:2.8, 1.8;stroke-dashoffset:0;stroke-opacity:1"
       id="path212846" />
    <path
       d="m 725.116,560.898 c 4.663,-1.494 16.73,-5.14 24.975,-3.352"
       style="fill:none;stroke:#231f20;stroke-width:0.5;stroke-linecap:round;stroke-linejoin:round;stroke-miterlimit:4;stroke-dasharray:2.8, 1.8;stroke-dashoffset:0;stroke-opacity:1"
       id="path212848" />
    <path
       d="m 712.02,560.1 c -5.224,1.741 -8.357,-1.044 -11.491,-5.223 -3.134,-4.178 -7.209,-17.699 -3.483,-22.286 4.528,-5.571 19.264,-5.205 27.043,-1.907"
       style="fill:none;stroke:#231f20;stroke-width:0.5;stroke-linecap:round;stroke-linejoin:round;stroke-miterlimit:4;stroke-dasharray:2.8, 1.8;stroke-dashoffset:0;stroke-opacity:1"
       id="path212850" />
    <path
       d="m 712.397,615.836 c 6.897,-0.37 25.043,-1.066 37.23,10.078"
       style="fill:none;stroke:#231f20;stroke-width:0.5;stroke-linecap:round;stroke-linejoin:round;stroke-miterlimit:4;stroke-dasharray:2.8, 1.8;stroke-dashoffset:0;stroke-opacity:1"
       id="path212852" />
    <path
       d="m 574.376,647.54 c -3.035,-5.958 -7.213,-11.529 -10.347,-15.011 -3.135,-3.482 -8.358,-11.143 -6.616,-15.321 1.741,-4.179 11.142,-3.482 17.41,-1.742 6.268,1.742 20.548,5.058 25.073,7.405"
       style="fill:none;stroke:#231f20;stroke-width:0.5;stroke-linecap:round;stroke-linejoin:round;stroke-miterlimit:4;stroke-dasharray:2.8, 1.8;stroke-dashoffset:0;stroke-opacity:1"
       id="path212854" />
    <path
       d="m 541.743,614.248 c 2.669,1.798 13.136,8.13 17.653,11.812"
       style="fill:none;stroke:#231f20;stroke-width:0.5;stroke-linecap:round;stroke-linejoin:round;stroke-miterlimit:4;stroke-dasharray:2.8, 1.8;stroke-dashoffset:0;stroke-opacity:1"
       id="path212856" />
    <path
       d="m 544.478,580.298 c 2.022,3.481 21.813,10.845 36.061,4.841"
       style="fill:none;stroke:#231f20;stroke-width:0.5;stroke-linecap:round;stroke-linejoin:round;stroke-miterlimit:4;stroke-dasharray:2.8, 1.8;stroke-dashoffset:0;stroke-opacity:1"
       id="path212858" />
    <path
       d="m 543.018,579.37 c 1.162,0 2.091,-12.074 2.324,-19.27 0.231,-7.195 0.462,-24.84 -1.858,-24.84 -2.32,0 -1.393,20.429 -1.393,25.768 0,5.341 -0.465,18.342 0.927,18.342 z"
       style="fill:none;stroke:#231f20;stroke-width:0.5;stroke-linecap:round;stroke-linejoin:round;stroke-miterlimit:4;stroke-dasharray:2.8, 1.8;stroke-dashoffset:0;stroke-opacity:1"
       id="path212860" />
    <path
       d="m 544.582,537.132 c -0.17,-3.496 0.395,-5.673 1.623,-7.137"
       style="fill:none;stroke:#231f20;stroke-width:0.5;stroke-linecap:round;stroke-linejoin:round;stroke-miterlimit:4;stroke-dasharray:2.8, 1.8;stroke-dashoffset:0;stroke-opacity:1"
       id="path212862" />
    <path
       d="m 545.342,560.1 c 2.552,1.625 13.695,0.466 18.338,-5.919"
       style="fill:none;stroke:#231f20;stroke-width:0.5;stroke-linecap:round;stroke-linejoin:round;stroke-miterlimit:4;stroke-dasharray:2.8, 1.8;stroke-dashoffset:0;stroke-opacity:1"
       id="path212864" />
    <path
       d="m 545.465,548.959 c 2.429,2.088 9.445,1.941 14.295,0.158"
       style="fill:none;stroke:#231f20;stroke-width:0.5;stroke-linecap:round;stroke-linejoin:round;stroke-miterlimit:4;stroke-dasharray:2.8, 1.8;stroke-dashoffset:0;stroke-opacity:1"
       id="path212866" />
    <path
       d="m 632.394,536.653 c 5.709,-1.678 6.732,-7.892 6.965,-16.018 0.232,-8.125 -3.483,-16.481 -11.84,-21.124 -8.357,-4.642 -18.107,-6.965 -24.143,1.393 -6.035,8.357 -5.338,19.035 0.233,24.606 5.572,5.572 20.891,13.465 28.785,11.143 z"
       style="fill:none;stroke:#231f20;stroke-width:0.5;stroke-linecap:round;stroke-linejoin:round;stroke-miterlimit:4;stroke-dasharray:2.8, 1.8;stroke-dashoffset:0;stroke-opacity:1"
       id="path212868" />
    <path
       d="m 563.68,519.476 c 1.523,2.928 6.966,3.714 11.376,0.696 4.409,-3.017 6.266,-5.803 6.499,-10.678 0.233,-4.875 2.321,-7.662 5.804,-7.43 3.482,0.232 10.313,1.179 12.072,0.232 1.943,-1.044 3.716,-3.955 3.945,-7.196 0.262,-3.684 0.872,-8.212 -5.107,-12.304 -7.172,-4.908 -14.16,-8.588 -21.82,-7.427 -7.661,1.16 -10.449,4.874 -12.537,10.677 -2.09,5.804 -6.268,21.823 -0.232,33.43 z"
       style="fill:none;stroke:#231f20;stroke-width:0.5;stroke-linecap:round;stroke-linejoin:round;stroke-miterlimit:4;stroke-dasharray:2.8, 1.8;stroke-dashoffset:0;stroke-opacity:1"
       id="path212870" />
    <path
       d="m 560.997,499.29 c 2.452,3.704 11.211,9.636 20.877,7.714"
       style="fill:none;stroke:#231f20;stroke-width:0.5;stroke-linecap:round;stroke-linejoin:round;stroke-miterlimit:4;stroke-dasharray:2.8, 1.8;stroke-dashoffset:0;stroke-opacity:1"
       id="path212872" />
    <path
       d="m 666.985,472.35 c -4.93,-2.929 -15.555,-9.052 -20.43,-12.303 -4.875,-3.251 -6.731,-6.731 -6.035,-8.357 0.696,-1.625 4.411,-1.393 12.536,1.856 8.124,3.25 20.428,11.145 25.303,14.859 4.875,3.713 8.59,10.677 9.286,12.999 0.696,2.322 1.16,6.731 -2.322,4.178 -3.483,-2.552 -8.754,-7.54 -18.338,-13.232 z"
       style="fill:none;stroke:#231f20;stroke-width:0.5;stroke-linecap:round;stroke-linejoin:round;stroke-miterlimit:4;stroke-dasharray:2.8, 1.8;stroke-dashoffset:0;stroke-opacity:1"
       id="path212874" />
    <path
       d="m 706.285,519.683 c -0.28,3.275 -5.175,6.758 -14.461,6.062 -9.286,-0.698 -17.41,-3.717 -38.072,-22.985 -20.662,-19.266 -20.662,-28.552 -21.126,-29.48"
       style="fill:none;stroke:#231f20;stroke-width:0.5;stroke-linecap:round;stroke-linejoin:round;stroke-miterlimit:4;stroke-dasharray:2.8, 1.8;stroke-dashoffset:0;stroke-opacity:1"
       id="path212876" />
    <path
       d="M 673.263,518.879 C 672.09,508.101 655.809,486.047 633.755,471.886"
       style="fill:none;stroke:#231f20;stroke-width:0.5;stroke-linecap:round;stroke-linejoin:round;stroke-miterlimit:4;stroke-dasharray:2.8, 1.8;stroke-dashoffset:0;stroke-opacity:1"
       id="path212878" />
    <path
       d="m 673.263,518.879 c 4.779,-0.488 13.59,-3.95 18.327,-6.135 3.019,-1.394 3.715,-4.875 3.715,-7.662 0,-2.786 -0.08,-7.434 -0.731,-14.029"
       style="fill:none;stroke:#231f20;stroke-width:0.5;stroke-linecap:round;stroke-linejoin:round;stroke-miterlimit:4;stroke-dasharray:2.8, 1.8;stroke-dashoffset:0;stroke-opacity:1"
       id="path212880" />
    <path
       d="m 552.072,437.529 c -1.158,7.427 -3.946,27.391 -5.572,38.071 -1.624,10.679 -2.784,25.071 0.931,25.768 3.713,0.696 7.427,-7.427 10.678,-12.767 3.251,-5.341 11.838,-16.947 14.393,-18.34 2.554,-1.392 8.358,-2.322 15.089,-0.696 6.732,1.625 13.464,4.643 25.999,14.625 12.536,9.982 28.793,19.819 40.162,18.57"
       style="fill:none;stroke:#231f20;stroke-width:0.5;stroke-linecap:round;stroke-linejoin:round;stroke-miterlimit:4;stroke-dasharray:2.8, 1.8;stroke-dashoffset:0;stroke-opacity:1"
       id="path212882" />
    <path
       d="m 590.502,421.951 c -1.865,-0.849 -1.054,-4.155 4.518,-2.762 5.571,1.393 13.93,7.661 21.821,17.643 7.893,9.983 13.161,19.988 14.857,25.072 2.554,7.661 2.787,10.448 0.928,11.376 -1.857,0.928 -3.961,-1.554 -5.229,-4.837"
       style="fill:none;stroke:#231f20;stroke-width:0.5;stroke-linecap:round;stroke-linejoin:round;stroke-miterlimit:4;stroke-dasharray:2.8, 1.8;stroke-dashoffset:0;stroke-opacity:1"
       id="path212884" />
    <path
       d="m 555.092,435.373 c -0.697,-2.322 -2.554,-3.415 -5.805,-2.719 -3.248,0.696 -6.732,2.784 -6.965,7.428 0,0 6.269,1.394 14.859,-6.5 8.588,-7.892 13.231,-13.231 15.553,-14.624 2.322,-1.393 11.268,-2.937 9.116,-9.593"
       style="fill:none;stroke:#231f20;stroke-width:0.5;stroke-linecap:round;stroke-linejoin:round;stroke-miterlimit:4;stroke-dasharray:2.8, 1.8;stroke-dashoffset:0;stroke-opacity:1"
       id="path212886" />
    <path
       d="m 554.626,415.01 c 1.624,-5.339 5.433,-13.205 11.422,-16.816"
       style="fill:none;stroke:#231f20;stroke-width:0.5;stroke-linecap:round;stroke-linejoin:round;stroke-miterlimit:4;stroke-dasharray:2.8, 1.8;stroke-dashoffset:0;stroke-opacity:1"
       id="path212888" />
    <path
       d="m 561.822,429.18 c -0.928,-8.357 3.159,-16.171 10.912,-10.222"
       style="fill:none;stroke:#231f20;stroke-width:0.5;stroke-linecap:round;stroke-linejoin:round;stroke-miterlimit:4;stroke-dasharray:2.8, 1.8;stroke-dashoffset:0;stroke-opacity:1"
       id="path212890" />
    <path
       d="m 374.599,766.592 c 6.269,-5.571 13.929,-10.098 25.072,-14.277 11.143,-4.179 18.455,-11.491 14.973,-18.107 -3.482,-6.616 -22.634,-16.018 -44.223,-8.706 -21.589,7.313 -36.214,16.367 -44.572,16.715"
       style="fill:none;stroke:#231f20;stroke-width:0.5;stroke-linecap:round;stroke-linejoin:round;stroke-miterlimit:4;stroke-dasharray:2.8, 1.8;stroke-dashoffset:0;stroke-opacity:1"
       id="path212892" />
    <path
       d="m 414.644,734.208 c 4.179,-2.437 8.734,-8.192 6.732,-12.304"
       style="fill:none;stroke:#231f20;stroke-width:0.5;stroke-linecap:round;stroke-linejoin:round;stroke-miterlimit:4;stroke-dasharray:2.8, 1.8;stroke-dashoffset:0;stroke-opacity:1"
       id="path212894" />
    <path
       d="m 264.215,520.404 c -6.267,0.696 -33.08,5.92 -49.795,18.107"
       style="fill:none;stroke:#231f20;stroke-width:0.5;stroke-linecap:round;stroke-linejoin:round;stroke-miterlimit:4;stroke-dasharray:2.8, 1.8;stroke-dashoffset:0;stroke-opacity:1"
       id="path212896" />
    <path
       d="m 214.42,538.511 c 4.528,-9.75 14.974,-35.17 35.519,-52.232 20.544,-17.063 36.275,-20.083 51.187,-22.285 18.619,-2.749 48.402,-4.179 44.572,-30.992"
       style="fill:none;stroke:#231f20;stroke-width:0.5;stroke-linecap:round;stroke-linejoin:round;stroke-miterlimit:4;stroke-dasharray:2.8, 1.8;stroke-dashoffset:0;stroke-opacity:1"
       id="path212898" />
    <path
       d="m 360.088,432.051 c -6.73,0.603 -57.247,1.876 -65.578,2.344"
       style="fill:none;stroke:#231f20;stroke-width:0.5;stroke-linecap:round;stroke-linejoin:round;stroke-miterlimit:4;stroke-dasharray:2.8, 1.8;stroke-dashoffset:0;stroke-opacity:1"
       id="path212900" />
    <path
       d="m 345.71,432.892 c -0.361,-4.068 -2.276,-12.077 -9.762,-15.908 -5.651,-2.891 -12.718,-5.272 -21.57,-7.962 -6.14,-1.868 -13.574,-4.511 -20.564,-4.226 -17.063,0.697 -39.349,1.045 -53.277,5.224"
       style="fill:none;stroke:#231f20;stroke-width:0.5;stroke-linecap:round;stroke-linejoin:round;stroke-miterlimit:4;stroke-dasharray:2.8, 1.8;stroke-dashoffset:0;stroke-opacity:1"
       id="path212902" />
    <path
       d="m 294.51,434.395 c -1.045,-6.616 0.697,-21.706 37.259,-31.224"
       style="fill:none;stroke:#231f20;stroke-width:0.5;stroke-linecap:round;stroke-linejoin:round;stroke-miterlimit:4;stroke-dasharray:2.8, 1.8;stroke-dashoffset:0;stroke-opacity:1"
       id="path212904" />
    <path
       d="M 257.599,443.796 236.26,401.331"
       style="fill:none;stroke:#231f20;stroke-width:0.5;stroke-linecap:round;stroke-linejoin:round;stroke-miterlimit:4;stroke-dasharray:2.8, 1.8;stroke-dashoffset:0;stroke-opacity:1"
       id="path212906" />
    <path
       d="m 299.573,419.188 c -8.857,-1.508 -27.988,-3.972 -52.392,3.876"
       style="fill:none;stroke:#231f20;stroke-width:0.5;stroke-linecap:round;stroke-linejoin:round;stroke-miterlimit:4;stroke-dasharray:2.8, 1.8;stroke-dashoffset:0;stroke-opacity:1"
       id="path212908" />
    <path
       d="m 204.67,545.475 c 0,0 -7.791,5.55 -10.859,12.699"
       style="fill:none;stroke:#231f20;stroke-width:0.5;stroke-linecap:round;stroke-linejoin:round;stroke-miterlimit:4;stroke-dasharray:2.8, 1.8;stroke-dashoffset:0;stroke-opacity:1"
       id="path212910" />
    <path
       d="m 442.227,779.329 c 3.408,-7.165 8.283,-20.165 8.632,-41.174"
       style="fill:none;stroke:#231f20;stroke-width:0.5;stroke-linecap:round;stroke-linejoin:round;stroke-miterlimit:4;stroke-dasharray:2.8, 1.8;stroke-dashoffset:0;stroke-opacity:1"
       id="path212912" />
    <path
       d="m 496.788,749.818 c -3.795,3.542 -34.43,25.375 -47.84,38.833"
       style="fill:none;stroke:#231f20;stroke-width:0.5;stroke-linecap:round;stroke-linejoin:round;stroke-miterlimit:4;stroke-dasharray:2.8, 1.8;stroke-dashoffset:0;stroke-opacity:1"
       id="path212914" />
    <path
       d="m 540.002,795.272 c -6.268,0.812 -79.874,9.588 -79.874,9.588"
       style="fill:none;stroke:#231f20;stroke-width:0.5;stroke-linecap:round;stroke-linejoin:round;stroke-miterlimit:4;stroke-dasharray:2.8, 1.8;stroke-dashoffset:0;stroke-opacity:1"
       id="path212916" />
    <path
       d="M 539.654,861.306 464.515,816.567"
       style="fill:none;stroke:#231f20;stroke-width:0.5;stroke-linecap:round;stroke-linejoin:round;stroke-miterlimit:4;stroke-dasharray:2.8, 1.8;stroke-dashoffset:0;stroke-opacity:1"
       id="path212918" />
    <path
       d="M 491.265,904.266 453.567,817.743"
       style="fill:none;stroke:#231f20;stroke-width:0.5;stroke-linecap:round;stroke-linejoin:round;stroke-miterlimit:4;stroke-dasharray:2.8, 1.8;stroke-dashoffset:0;stroke-opacity:1"
       id="path212920" />
    <path
       d="m 446.674,904.935 -5.865,-90.157"
       style="fill:none;stroke:#231f20;stroke-width:0.5;stroke-linecap:round;stroke-linejoin:round;stroke-miterlimit:4;stroke-dasharray:2.8, 1.8;stroke-dashoffset:0;stroke-opacity:1"
       id="path212922" />
    <path
       d="m 407.983,902.157 11.609,-92.033"
       style="fill:none;stroke:#231f20;stroke-width:0.5;stroke-linecap:round;stroke-linejoin:round;stroke-miterlimit:4;stroke-dasharray:2.8, 1.8;stroke-dashoffset:0;stroke-opacity:1"
       id="path212924" />
    <path
       d="m 328.813,888.041 19.956,-93.737"
       style="fill:none;stroke:#231f20;stroke-width:0.5;stroke-linecap:round;stroke-linejoin:round;stroke-miterlimit:4;stroke-dasharray:2.8, 1.8;stroke-dashoffset:0;stroke-opacity:1"
       id="path212926" />
    <path
       d="m 249.632,857.049 36.246,-85.411"
       style="fill:none;stroke:#231f20;stroke-width:0.5;stroke-linecap:round;stroke-linejoin:round;stroke-miterlimit:4;stroke-dasharray:2.8, 1.8;stroke-dashoffset:0;stroke-opacity:1"
       id="path212928" />
    <path
       d="m 171.764,806.181 61.439,-67.08"
       style="fill:none;stroke:#231f20;stroke-width:0.5;stroke-linecap:round;stroke-linejoin:round;stroke-miterlimit:4;stroke-dasharray:2.8, 1.8;stroke-dashoffset:0;stroke-opacity:1"
       id="path212930" />
    <path
       d="m 217.587,721.299 -74.899,53.65"
       style="fill:none;stroke:#231f20;stroke-width:0.5;stroke-linecap:round;stroke-linejoin:round;stroke-miterlimit:4;stroke-dasharray:2.8, 1.8;stroke-dashoffset:0;stroke-opacity:1"
       id="path212932" />
    <path
       d="m 191.969,673.888 -85.982,21.09"
       style="fill:none;stroke:#231f20;stroke-width:0.5;stroke-linecap:round;stroke-linejoin:round;stroke-miterlimit:4;stroke-dasharray:2.8, 1.8;stroke-dashoffset:0;stroke-opacity:1"
       id="path212934" />
    <path
       d="m 182.605,646.059 -82.6089,7.368"
       style="fill:none;stroke:#231f20;stroke-width:0.5;stroke-linecap:round;stroke-linejoin:round;stroke-miterlimit:4;stroke-dasharray:2.8, 1.8;stroke-dashoffset:0;stroke-opacity:1"
       id="path212936" />
    <path
       d="M 179.845,619.301 105.042,616.85"
       style="fill:none;stroke:#231f20;stroke-width:0.5;stroke-linecap:round;stroke-linejoin:round;stroke-miterlimit:4;stroke-dasharray:2.8, 1.8;stroke-dashoffset:0;stroke-opacity:1"
       id="path212938" />
    <path
       d="m 181.821,588.982 -68.034,-3.65"
       style="fill:none;stroke:#231f20;stroke-width:0.5;stroke-linecap:round;stroke-linejoin:round;stroke-miterlimit:4;stroke-dasharray:2.8, 1.8;stroke-dashoffset:0;stroke-opacity:1"
       id="path212940" />
    <path
       d="m 383.072,635.78 c 0.929,-3.599 1.626,-11.956 -6.732,-12.304 -8.357,-0.349 -6.846,8.356 -5.339,11.839"
       style="fill:none;stroke:#231f20;stroke-width:0.5;stroke-linecap:round;stroke-linejoin:round;stroke-miterlimit:4;stroke-dasharray:2.8, 1.8;stroke-dashoffset:0;stroke-opacity:1"
       id="path212942" />
    <path
       d="m 534.43,695.556 c 0,8.009 0,25.42 0,28.205 0,7.313 -5.508,21.947 -14.276,23.331 -6.616,1.044 -24.724,-5.223 -35.519,-6.268 -10.795,-1.044 -27.16,-8.357 -33.776,-9.75 -6.616,-1.393 -12.536,-3.83 -22.635,-11.143 -10.098,-7.312 -22.981,-17.062 -27.16,-21.589 -4.179,-4.527 -3.6,-10.343 -0.232,-11.962"
       style="fill:none;stroke:#231f20;stroke-width:0.5;stroke-linecap:round;stroke-linejoin:round;stroke-miterlimit:4;stroke-dasharray:2.8, 1.8;stroke-dashoffset:0;stroke-opacity:1"
       id="path212944" />
    <path
       d="m 383.385,623.738 c 0.616,-4.093 3.054,-19.762 -4.259,-34.039 0,0 -5.919,1.741 -9.053,1.392 0,0 -4.803,0.55 -1.741,34.474"
       style="fill:none;stroke:#231f20;stroke-width:0.5;stroke-linecap:round;stroke-linejoin:round;stroke-miterlimit:4;stroke-dasharray:2.8, 1.8;stroke-dashoffset:0;stroke-opacity:1"
       id="path212946" />
    <path
       d="m 363.819,640.487 c -1.407,2.14 -5.237,5.623 -10.112,3.882 -4.875,-1.742 -13.233,-4.179 -23.331,-18.455 -10.098,-14.278 -15.321,-27.855 -12.187,-45.616 3.134,-17.76 10.098,-21.242 16.366,-21.242 6.268,0 17.281,2.438 20.067,6.964"
       style="fill:none;stroke:#231f20;stroke-width:0.5;stroke-linecap:round;stroke-linejoin:round;stroke-miterlimit:4;stroke-dasharray:2.8, 1.8;stroke-dashoffset:0;stroke-opacity:1"
       id="path212948" />
    <path
       d="m 379.126,589.699 c 1.393,-5.572 -0.47,-24.459 -11.143,-29.599 -9.401,-4.526 -17.522,0.259 -12.188,8.01 6.141,8.92 10.795,17.41 14.278,22.981"
       style="fill:none;stroke:#231f20;stroke-width:0.5;stroke-linecap:round;stroke-linejoin:round;stroke-miterlimit:4;stroke-dasharray:2.8, 1.8;stroke-dashoffset:0;stroke-opacity:1"
       id="path212950" />
    <path
       d="m 354.887,560.898 c -4.663,-1.494 -16.73,-5.14 -24.974,-3.352"
       style="fill:none;stroke:#231f20;stroke-width:0.5;stroke-linecap:round;stroke-linejoin:round;stroke-miterlimit:4;stroke-dasharray:2.8, 1.8;stroke-dashoffset:0;stroke-opacity:1"
       id="path212952" />
    <path
       d="m 367.983,560.1 c 5.224,1.741 8.357,-1.044 11.491,-5.223 3.135,-4.178 7.21,-17.699 3.483,-22.286 -4.527,-5.571 -19.264,-5.205 -27.042,-1.907"
       style="fill:none;stroke:#231f20;stroke-width:0.5;stroke-linecap:round;stroke-linejoin:round;stroke-miterlimit:4;stroke-dasharray:2.8, 1.8;stroke-dashoffset:0;stroke-opacity:1"
       id="path212954" />
    <path
       d="m 367.607,615.836 c -6.899,-0.37 -25.043,-1.066 -37.231,10.078"
       style="fill:none;stroke:#231f20;stroke-width:0.5;stroke-linecap:round;stroke-linejoin:round;stroke-miterlimit:4;stroke-dasharray:2.8, 1.8;stroke-dashoffset:0;stroke-opacity:1"
       id="path212956" />
    <path
       d="m 505.626,647.54 c 3.037,-5.958 7.215,-11.529 10.349,-15.011 3.134,-3.482 8.357,-11.143 6.616,-15.321 -1.741,-4.179 -11.143,-3.482 -17.411,-1.742 -6.267,1.742 -20.548,5.058 -25.073,7.405"
       style="fill:none;stroke:#231f20;stroke-width:0.5;stroke-linecap:round;stroke-linejoin:round;stroke-miterlimit:4;stroke-dasharray:2.8, 1.8;stroke-dashoffset:0;stroke-opacity:1"
       id="path212958" />
    <path
       d="m 538.26,614.248 c -2.669,1.798 -13.136,8.13 -17.652,11.812"
       style="fill:none;stroke:#231f20;stroke-width:0.5;stroke-linecap:round;stroke-linejoin:round;stroke-miterlimit:4;stroke-dasharray:2.8, 1.8;stroke-dashoffset:0;stroke-opacity:1"
       id="path212960" />
    <path
       d="m 516.091,537.119 c -7.196,0.23 -12.767,5.106 -15.786,9.981 -3.018,4.875 -2.786,18.803 10.696,26.396 13.483,7.592 25.07,6.802 29.001,6.802 3.93,0 15.517,0.79 29,-6.802 13.482,-7.593 13.714,-21.521 10.696,-26.396 -3.018,-4.875 -8.59,-9.751 -15.786,-9.981"
       style="fill:none;stroke:#231f20;stroke-width:0.5;stroke-linecap:round;stroke-linejoin:round;stroke-miterlimit:4;stroke-dasharray:2.8, 1.8;stroke-dashoffset:0;stroke-opacity:1"
       id="path212962" />
    <path
       d="m 535.525,580.298 c -2.023,3.481 -21.813,10.845 -36.061,4.841"
       style="fill:none;stroke:#231f20;stroke-width:0.5;stroke-linecap:round;stroke-linejoin:round;stroke-miterlimit:4;stroke-dasharray:2.8, 1.8;stroke-dashoffset:0;stroke-opacity:1"
       id="path212964" />
    <path
       d="m 536.984,579.37 c -1.161,0 -2.09,-12.074 -2.322,-19.27 -0.232,-7.195 -0.464,-24.84 1.857,-24.84 2.321,0 1.394,20.429 1.394,25.768 0,5.341 0.463,18.342 -0.929,18.342 z"
       style="fill:none;stroke:#231f20;stroke-width:0.5;stroke-linecap:round;stroke-linejoin:round;stroke-miterlimit:4;stroke-dasharray:2.8, 1.8;stroke-dashoffset:0;stroke-opacity:1"
       id="path212966" />
    <path
       d="m 535.421,537.132 c 0.17,-3.496 -0.394,-5.673 -1.622,-7.137"
       style="fill:none;stroke:#231f20;stroke-width:0.5;stroke-linecap:round;stroke-linejoin:round;stroke-miterlimit:4;stroke-dasharray:2.8, 1.8;stroke-dashoffset:0;stroke-opacity:1"
       id="path212968" />
    <path
       d="m 534.662,560.1 c -2.553,1.625 -13.696,0.466 -18.339,-5.919"
       style="fill:none;stroke:#231f20;stroke-width:0.5;stroke-linecap:round;stroke-linejoin:round;stroke-miterlimit:4;stroke-dasharray:2.8, 1.8;stroke-dashoffset:0;stroke-opacity:1"
       id="path212970" />
    <path
       d="m 534.538,548.959 c -2.429,2.088 -9.445,1.941 -14.294,0.158"
       style="fill:none;stroke:#231f20;stroke-width:0.5;stroke-linecap:round;stroke-linejoin:round;stroke-miterlimit:4;stroke-dasharray:2.8, 1.8;stroke-dashoffset:0;stroke-opacity:1"
       id="path212972" />
    <path
       d="m 447.609,536.653 c -5.709,-1.678 -6.732,-7.892 -6.964,-16.018 -0.232,-8.125 3.481,-16.481 11.839,-21.124 8.357,-4.642 18.107,-6.965 24.142,1.393 6.036,8.357 5.339,19.035 -0.232,24.606 -5.571,5.572 -20.892,13.465 -28.785,11.143 z"
       style="fill:none;stroke:#231f20;stroke-width:0.5;stroke-linecap:round;stroke-linejoin:round;stroke-miterlimit:4;stroke-dasharray:2.8, 1.8;stroke-dashoffset:0;stroke-opacity:1"
       id="path212974" />
    <path
       d="m 516.323,519.476 c -1.522,2.928 -6.966,3.714 -11.375,0.696 -4.41,-3.017 -6.267,-5.803 -6.499,-10.678 -0.234,-4.875 -2.323,-7.662 -5.805,-7.43 -3.481,0.232 -10.312,1.179 -12.071,0.232 -1.945,-1.044 -3.717,-3.955 -3.947,-7.196 -0.26,-3.684 -0.87,-8.212 5.108,-12.304 7.173,-4.908 14.16,-8.588 21.82,-7.427 7.661,1.16 10.448,4.874 12.537,10.677 2.089,5.804 6.268,21.823 0.232,33.43 z"
       style="fill:none;stroke:#231f20;stroke-width:0.5;stroke-linecap:round;stroke-linejoin:round;stroke-miterlimit:4;stroke-dasharray:2.8, 1.8;stroke-dashoffset:0;stroke-opacity:1"
       id="path212976" />
    <path
       d="m 519.006,499.29 c -2.451,3.704 -11.212,9.636 -20.876,7.714"
       style="fill:none;stroke:#231f20;stroke-width:0.5;stroke-linecap:round;stroke-linejoin:round;stroke-miterlimit:4;stroke-dasharray:2.8, 1.8;stroke-dashoffset:0;stroke-opacity:1"
       id="path212978" />
    <path
       d="m 413.019,472.35 c 4.929,-2.929 15.554,-9.052 20.429,-12.303 4.875,-3.251 6.731,-6.731 6.035,-8.357 -0.696,-1.625 -4.411,-1.393 -12.535,1.856 -8.125,3.25 -20.428,11.145 -25.303,14.859 -4.875,3.713 -8.59,10.677 -9.286,12.999 -0.697,2.322 -1.161,6.731 2.321,4.178 3.483,-2.552 8.755,-7.54 18.339,-13.232 z"
       style="fill:none;stroke:#231f20;stroke-width:0.5;stroke-linecap:round;stroke-linejoin:round;stroke-miterlimit:4;stroke-dasharray:2.8, 1.8;stroke-dashoffset:0;stroke-opacity:1"
       id="path212980" />
    <path
       d="m 373.718,519.683 c 0.281,3.275 5.176,6.758 14.462,6.062 9.286,-0.698 17.409,-3.717 38.07,-22.985 20.663,-19.266 20.663,-28.552 21.126,-29.48"
       style="fill:none;stroke:#231f20;stroke-width:0.5;stroke-linecap:round;stroke-linejoin:round;stroke-miterlimit:4;stroke-dasharray:2.8, 1.8;stroke-dashoffset:0;stroke-opacity:1"
       id="path212982" />
    <path
       d="m 406.74,518.879 c 1.173,-10.778 17.454,-32.832 39.508,-46.993"
       style="fill:none;stroke:#231f20;stroke-width:0.5;stroke-linecap:round;stroke-linejoin:round;stroke-miterlimit:4;stroke-dasharray:2.8, 1.8;stroke-dashoffset:0;stroke-opacity:1"
       id="path212984" />
    <path
       d="m 406.74,518.879 c -4.779,-0.488 -13.59,-3.95 -18.327,-6.135 -3.019,-1.394 -3.715,-4.875 -3.715,-7.662 0,-2.786 0.08,-7.434 0.731,-14.029"
       style="fill:none;stroke:#231f20;stroke-width:0.5;stroke-linecap:round;stroke-linejoin:round;stroke-miterlimit:4;stroke-dasharray:2.8, 1.8;stroke-dashoffset:0;stroke-opacity:1"
       id="path212986" />
    <path
       d="m 527.93,437.529 c 1.16,7.427 3.947,27.391 5.572,38.071 1.624,10.679 2.785,25.071 -0.929,25.768 -3.714,0.696 -7.428,-7.427 -10.679,-12.767 -3.25,-5.341 -11.838,-16.947 -14.392,-18.34 -2.554,-1.392 -8.359,-2.322 -15.09,-0.696 -6.732,1.625 -13.463,4.643 -25.999,14.625 -12.537,9.982 -28.793,19.819 -40.163,18.57"
       style="fill:none;stroke:#231f20;stroke-width:0.5;stroke-linecap:round;stroke-linejoin:round;stroke-miterlimit:4;stroke-dasharray:2.8, 1.8;stroke-dashoffset:0;stroke-opacity:1"
       id="path212988" />
    <path
       d="m 481.886,455.869 c 5.108,-3.947 15.459,-1.104 20.972,0 5.255,1.051 14.393,3.482 23.447,8.357 9.054,4.875 11.839,6.499 13.697,6.499 1.858,0 4.643,-1.624 13.697,-6.499 9.053,-4.875 18.191,-7.306 23.446,-8.357 5.513,-1.104 15.864,-3.947 20.972,0"
       style="fill:none;stroke:#231f20;stroke-width:0.5;stroke-linecap:round;stroke-linejoin:round;stroke-miterlimit:4;stroke-dasharray:2.8, 1.8;stroke-dashoffset:0;stroke-opacity:1"
       id="path212990" />
    <path
       d="m 506.805,429.635 c 5.341,7.197 14.161,14.625 20.197,20.894 6.035,6.267 9.75,6.5 13,6.5 3.25,0 6.964,-0.233 13,-6.5 6.035,-6.269 14.856,-13.697 20.196,-20.894"
       style="fill:none;stroke:#231f20;stroke-width:0.5;stroke-linecap:round;stroke-linejoin:round;stroke-miterlimit:4;stroke-dasharray:2.8, 1.8;stroke-dashoffset:0;stroke-opacity:1"
       id="path212992" />
    <path
       d="m 489.5,421.951 c 1.866,-0.849 1.055,-4.155 -4.516,-2.762 -5.571,1.393 -13.931,7.661 -21.822,17.643 -7.892,9.983 -13.161,19.988 -14.857,25.072 -2.555,7.661 -2.787,10.448 -0.929,11.376 1.859,0.928 3.962,-1.554 5.23,-4.837"
       style="fill:none;stroke:#231f20;stroke-width:0.5;stroke-linecap:round;stroke-linejoin:round;stroke-miterlimit:4;stroke-dasharray:2.8, 1.8;stroke-dashoffset:0;stroke-opacity:1"
       id="path212994" />
    <path
       d="m 518.18,429.18 c 0.93,-3.018 4.643,-11.151 7.196,-14.17 2.554,-3.017 11.376,-3.016 14.626,-3.016 3.25,0 12.07,-0.001 14.624,3.016 2.555,3.019 6.268,11.152 7.196,14.17"
       style="fill:none;stroke:#231f20;stroke-width:0.5;stroke-linecap:round;stroke-linejoin:round;stroke-miterlimit:4;stroke-dasharray:2.8, 1.8;stroke-dashoffset:0;stroke-opacity:1"
       id="path212996" />
    <path
       d="m 524.912,435.373 c 0.697,-2.322 2.554,-3.415 5.804,-2.719 3.249,0.696 6.733,2.784 6.964,7.428 0,0 -6.268,1.394 -14.857,-6.5 -8.589,-7.892 -13.232,-13.231 -15.554,-14.624 -2.321,-1.393 -11.268,-2.937 -9.116,-9.593"
       style="fill:none;stroke:#231f20;stroke-width:0.5;stroke-linecap:round;stroke-linejoin:round;stroke-miterlimit:4;stroke-dasharray:2.8, 1.8;stroke-dashoffset:0;stroke-opacity:1"
       id="path212998" />
    <path
       d="m 525.376,415.01 c -1.625,-5.339 -5.432,-13.205 -11.421,-16.816"
       style="fill:none;stroke:#231f20;stroke-width:0.5;stroke-linecap:round;stroke-linejoin:round;stroke-miterlimit:4;stroke-dasharray:2.8, 1.8;stroke-dashoffset:0;stroke-opacity:1"
       id="path213000" />
    <path
       d="m 518.18,429.18 c 0.929,-8.357 -3.157,-16.171 -10.911,-10.222"
       style="fill:none;stroke:#231f20;stroke-width:0.5;stroke-linecap:round;stroke-linejoin:round;stroke-miterlimit:4;stroke-dasharray:2.8, 1.8;stroke-dashoffset:0;stroke-opacity:1"
       id="path213002" />
    <path
       d="m 888.777,530.711 68.045,-25.9"
       style="fill:none;stroke:#231f20;stroke-width:0.5;stroke-linecap:round;stroke-linejoin:round;stroke-miterlimit:4;stroke-dasharray:2.8, 1.8;stroke-dashoffset:0;stroke-opacity:1"
       id="path213004" />
    <path
       d="m 886.944,420.671 -32.515,48.005"
       style="fill:none;stroke:#231f20;stroke-width:0.5;stroke-linecap:round;stroke-linejoin:round;stroke-miterlimit:4;stroke-dasharray:2.8, 1.8;stroke-dashoffset:0;stroke-opacity:1"
       id="path213006" />
    <path
       d="m 184.845,563.535 c 0,0 -42.137,-12.545 -65.677,-17.657"
       style="fill:none;stroke:#231f20;stroke-width:0.5;stroke-linecap:round;stroke-linejoin:round;stroke-miterlimit:4;stroke-dasharray:2.8, 1.8;stroke-dashoffset:0;stroke-opacity:1"
       id="path213008" />
    <path
       d="m 191.226,530.711 -68.045,-25.9"
       style="fill:none;stroke:#231f20;stroke-width:0.5;stroke-linecap:round;stroke-linejoin:round;stroke-miterlimit:4;stroke-dasharray:2.8, 1.8;stroke-dashoffset:0;stroke-opacity:1"
       id="path213010" />
    <path
       d="m 193.06,420.671 32.515,48.005"
       style="fill:none;stroke:#231f20;stroke-width:0.5;stroke-linecap:round;stroke-linejoin:round;stroke-miterlimit:4;stroke-dasharray:2.8, 1.8;stroke-dashoffset:0;stroke-opacity:1"
       id="path213012" />
    <path
       d="m 756.765,746.396 c 0,0 -1.127,-1.771 -2.611,-4.179 0,0 1.625,1.219 15.321,0 14.634,-1.302 48.75,-14.625 68.25,-38.652 19.5,-24.026 38.304,-49.446 41.786,-84.964 3.483,-35.519 -3.134,-49.099 -13.929,-80.09 0,0 5.92,3.483 9.75,6.964 0,0 12.537,35.866 11.143,61.983 -1.393,26.116 -9.053,49.794 -28.205,77.303 -19.151,27.51 -41.089,52.929 -66.161,58.849 -25.071,5.92 -35.344,2.786 -35.344,2.786"
       style="fill:#b2b1b1;fill-opacity:1;fill-rule:nonzero;stroke:none;stroke-width:0.1"
       id="path213014" />
    <path
       d="m 756.765,746.396 c 0,0 -1.127,-1.771 -2.611,-4.179 0,0 1.625,1.219 15.321,0 14.634,-1.302 48.75,-14.625 68.25,-38.652 19.5,-24.026 38.304,-49.446 41.786,-84.964 3.483,-35.519 -3.134,-49.099 -13.929,-80.09 0,0 5.92,3.483 9.75,6.964 0,0 12.537,35.866 11.143,61.983 -1.393,26.116 -9.053,49.794 -28.205,77.303 -19.151,27.51 -41.089,52.929 -66.161,58.849 -25.071,5.92 -35.344,2.786 -35.344,2.786 z"
       style="fill:none;stroke:#231f20;stroke-width:0.5;stroke-linecap:round;stroke-linejoin:round;stroke-miterlimit:4;stroke-dasharray:2.8, 1.8;stroke-dashoffset:0;stroke-opacity:1"
       id="path213016" />
    <path
       d="m 323.238,746.396 c 0,0 1.128,-1.771 2.611,-4.179 0,0 -1.625,1.219 -15.321,0 -14.633,-1.302 -48.75,-14.625 -68.25,-38.652 -19.5,-24.026 -38.304,-49.446 -41.786,-84.964 -3.482,-35.519 3.134,-49.099 13.928,-80.09 0,0 -5.92,3.483 -9.75,6.964 0,0 -12.535,35.866 -11.142,61.983 1.392,26.116 9.054,49.794 28.205,77.303 19.152,27.51 41.09,52.929 66.161,58.849 25.071,5.92 35.344,2.786 35.344,2.786"
       style="fill:#b2b1b1;fill-opacity:1;fill-rule:nonzero;stroke:none;stroke-width:0.1"
       id="path213018" />
    <path
       d="m 323.238,746.396 c 0,0 1.128,-1.771 2.611,-4.179 0,0 -1.625,1.219 -15.321,0 -14.633,-1.302 -48.75,-14.625 -68.25,-38.652 -19.5,-24.026 -38.304,-49.446 -41.786,-84.964 -3.482,-35.519 3.134,-49.099 13.928,-80.09 0,0 -5.92,3.483 -9.75,6.964 0,0 -12.535,35.866 -11.142,61.983 1.392,26.116 9.054,49.794 28.205,77.303 19.152,27.51 41.09,52.929 66.161,58.849 25.071,5.92 35.344,2.786 35.344,2.786 z"
       style="fill:none;stroke:#231f20;stroke-width:0.5;stroke-linecap:round;stroke-linejoin:round;stroke-miterlimit:4;stroke-dasharray:2.8, 1.8;stroke-dashoffset:0;stroke-opacity:1"
       id="path213020" />
    <path
       d="m 730.824,680.582 c 0.609,3.047 9.314,9.49 14.972,9.403 3.134,-0.049 21.938,-2.438 28.903,-7.313 6.964,-4.875 15.321,-14.277 19.151,-18.455 3.831,-4.178 17.759,-16.366 23.679,-26.465 5.92,-10.098 12.884,-26.116 12.536,-38.303 -0.349,-12.188 -3.134,-27.858 -10.446,-40.045 -8.18,-13.631 -17.409,-27.638 -30.644,-33.429 -5.571,-2.437 -8.618,-2.35 -10.446,-2.089 -1.828,0.261 -11.491,2.786 -9.75,12.536 1.741,9.75 11.839,24.377 13.929,43.876 2.088,19.499 -0.053,32.343 -16.715,56.41 -12.535,18.107 -37.29,18.468 -36.563,34.124 0.211,4.541 1.394,9.75 1.394,9.75 z m 12.187,0.698 c -4.051,-1.621 -6.268,-11.84 0.348,-17.411 6.616,-5.572 18.804,-13.233 25.071,-21.589 6.269,-8.358 13.581,-23.679 17.411,-35.866 3.83,-12.188 3.873,-23.449 0.697,-35.519 -3.483,-13.232 -7.661,-22.634 -9.054,-26.464 -1.393,-3.831 0,-8.357 3.831,-9.402 3.83,-1.044 18.455,0 22.285,6.965 3.831,6.964 6.965,17.41 9.402,20.892 2.438,3.483 8.706,9.753 9.75,17.412 1.044,7.66 3.134,21.937 -1.393,37.258 -4.527,15.321 -19.151,30.295 -26.464,37.955 -7.313,7.661 -15.321,17.759 -22.982,21.241 -7.661,3.483 -25.42,5.92 -28.902,4.528"
       style="fill:#b2b1b1;fill-opacity:1;fill-rule:nonzero;stroke:none;stroke-width:0.1"
       id="path213022" />
    <path
       d="m 730.824,680.582 c 0.609,3.047 9.314,9.49 14.972,9.403 3.134,-0.049 21.938,-2.438 28.903,-7.313 6.964,-4.875 15.321,-14.277 19.151,-18.455 3.831,-4.178 17.759,-16.366 23.679,-26.465 5.92,-10.098 12.884,-26.116 12.536,-38.303 -0.349,-12.188 -3.134,-27.858 -10.446,-40.045 -8.18,-13.631 -17.409,-27.638 -30.644,-33.429 -5.571,-2.437 -8.618,-2.35 -10.446,-2.089 -1.828,0.261 -11.491,2.786 -9.75,12.536 1.741,9.75 11.839,24.377 13.929,43.876 2.088,19.499 -0.053,32.343 -16.715,56.41 -12.535,18.107 -37.29,18.468 -36.563,34.124 0.211,4.541 1.394,9.75 1.394,9.75 z m 12.187,0.698 c -4.051,-1.621 -6.268,-11.84 0.348,-17.411 6.616,-5.572 18.804,-13.233 25.071,-21.589 6.269,-8.358 13.581,-23.679 17.411,-35.866 3.83,-12.188 3.873,-23.449 0.697,-35.519 -3.483,-13.232 -7.661,-22.634 -9.054,-26.464 -1.393,-3.831 0,-8.357 3.831,-9.402 3.83,-1.044 18.455,0 22.285,6.965 3.831,6.964 6.965,17.41 9.402,20.892 2.438,3.483 8.706,9.753 9.75,17.412 1.044,7.66 3.134,21.937 -1.393,37.258 -4.527,15.321 -19.151,30.295 -26.464,37.955 -7.313,7.661 -15.321,17.759 -22.982,21.241 -7.661,3.483 -25.42,5.92 -28.902,4.528 z"
       style="fill:none;stroke:#231f20;stroke-width:0.5;stroke-linecap:round;stroke-linejoin:round;stroke-miterlimit:4;stroke-dasharray:2.8, 1.8;stroke-dashoffset:0;stroke-opacity:1"
       id="path213024" />
    <path
       d="m 350.573,670.832 c 0.727,-15.656 -24.028,-16.017 -36.563,-34.124 -16.661,-24.067 -18.803,-36.911 -16.715,-56.41 2.09,-19.499 12.188,-34.126 13.929,-43.876 1.741,-9.75 -7.922,-12.275 -9.75,-12.536 -1.828,-0.261 -4.875,-0.348 -10.446,2.089 -13.235,5.791 -22.464,19.798 -30.643,33.429 -7.312,12.187 -10.098,27.857 -10.446,40.045 -0.349,12.187 6.615,28.205 12.535,38.303 5.92,10.099 19.849,22.287 23.679,26.465 3.83,4.178 12.187,13.58 19.152,18.455 6.964,4.875 25.768,7.264 28.902,7.313 5.658,0.087 14.364,-6.356 14.973,-9.403 0,0 1.182,-5.209 1.393,-9.75 z m -42.483,5.92 c -7.661,-3.482 -15.67,-13.58 -22.982,-21.241 -7.313,-7.66 -21.938,-22.634 -26.464,-37.955 -4.527,-15.321 -2.437,-29.598 -1.393,-37.258 1.044,-7.659 7.313,-13.929 9.75,-17.412 2.438,-3.482 5.572,-13.928 9.402,-20.892 3.83,-6.965 18.455,-8.009 22.286,-6.965 3.83,1.045 5.223,5.571 3.83,9.402 -1.393,3.83 -5.571,13.232 -9.054,26.464 -3.175,12.07 -3.133,23.331 0.697,35.519 3.83,12.187 11.143,27.508 17.411,35.866 6.267,8.356 18.455,16.017 25.071,21.589 6.616,5.571 4.399,15.79 0.349,17.411 -3.483,1.392 -21.242,-1.045 -28.903,-4.528"
       style="fill:#b2b1b1;fill-opacity:1;fill-rule:nonzero;stroke:none;stroke-width:0.1"
       id="path213026" />
    <path
       d="m 350.573,670.832 c 0.727,-15.656 -24.028,-16.017 -36.563,-34.124 -16.661,-24.067 -18.803,-36.911 -16.715,-56.41 2.09,-19.499 12.188,-34.126 13.929,-43.876 1.741,-9.75 -7.922,-12.275 -9.75,-12.536 -1.828,-0.261 -4.875,-0.348 -10.446,2.089 -13.235,5.791 -22.464,19.798 -30.643,33.429 -7.312,12.187 -10.098,27.857 -10.446,40.045 -0.349,12.187 6.615,28.205 12.535,38.303 5.92,10.099 19.849,22.287 23.679,26.465 3.83,4.178 12.187,13.58 19.152,18.455 6.964,4.875 25.768,7.264 28.902,7.313 5.658,0.087 14.364,-6.356 14.973,-9.403 0,0 1.182,-5.209 1.393,-9.75 z m -42.483,5.92 c -7.661,-3.482 -15.67,-13.58 -22.982,-21.241 -7.313,-7.66 -21.938,-22.634 -26.464,-37.955 -4.527,-15.321 -2.437,-29.598 -1.393,-37.258 1.044,-7.659 7.313,-13.929 9.75,-17.412 2.438,-3.482 5.572,-13.928 9.402,-20.892 3.83,-6.965 18.455,-8.009 22.286,-6.965 3.83,1.045 5.223,5.571 3.83,9.402 -1.393,3.83 -5.571,13.232 -9.054,26.464 -3.175,12.07 -3.133,23.331 0.697,35.519 3.83,12.187 11.143,27.508 17.411,35.866 6.267,8.356 18.455,16.017 25.071,21.589 6.616,5.571 4.399,15.79 0.349,17.411 -3.483,1.392 -21.242,-1.045 -28.903,-4.528 z"
       style="fill:none;stroke:#231f20;stroke-width:0.5;stroke-linecap:round;stroke-linejoin:round;stroke-miterlimit:4;stroke-dasharray:2.8, 1.8;stroke-dashoffset:0;stroke-opacity:1"
       id="path213028" />
  </g>
</svg>
