<?xml version="1.0" encoding="UTF-8" standalone="no"?>
<!-- Created with Inkscape (http://www.inkscape.org/) -->

<svg
   version="1.1"
   id="svg2"
   width="1440"
   height="1344"
   viewBox="0 0 1440 1344"
   xmlns="http://www.w3.org/2000/svg"
   xmlns:svg="http://www.w3.org/2000/svg">
  <defs
     id="defs6" />
  <g
     id="g8">
    <path
       d="m 544.876,308.339 c 0,-2.306 -2.181,-4.177 -4.874,-4.177 -2.693,0 -4.876,1.871 -4.876,4.177 0,2.31 2.183,4.179 4.876,4.179 2.693,0 4.874,-1.869 4.874,-4.179"
       style="fill:#ffffff;fill-opacity:1;fill-rule:nonzero;stroke:none;stroke-width:0.1"
       id="path672" />
    <path
       d="m 544.876,308.339 c 0,-2.306 -2.181,-4.177 -4.874,-4.177 -2.693,0 -4.876,1.871 -4.876,4.177 0,2.31 2.183,4.179 4.876,4.179 2.693,0 4.874,-1.869 4.874,-4.179 z"
       style="fill:none;stroke:#231f20;stroke-width:0.5;stroke-linecap:butt;stroke-linejoin:miter;stroke-miterlimit:4;stroke-dasharray:none;stroke-opacity:1"
       id="path674" />
    <path
       d="m 792.109,435.09 c -19.848,11.839 -39.348,37.955 -47.357,59.197 -8.009,21.241 -6.268,31.338 -6.268,41.088 0,9.75 0.348,61.287 0.348,74.519 0,13.232 0.697,22.286 -1.044,27.857 -1.742,5.573 -10.795,31.688 -19.849,52.581 -2.263,5.223 -4.439,9.423 -6.594,12.835 -4.2,8.058 -14.299,27.21 -19.521,34.871 -5.224,7.661 -13.233,18.803 -20.198,21.589 -6.963,2.786 -37.955,6.268 -61.981,16.018 -8.574,3.479 -16.715,9.75 -24.724,14.625 -8.008,4.875 -33.777,22.286 -34.473,40.393 -0.696,18.107 27.509,41.089 44.92,50.143 17.411,9.054 56.758,17.063 90.187,16.018 33.429,-1.045 109.749,-21.98 156.001,-55.715 67.554,-49.272 83.328,-83.01 89.839,-95.932 4.872,-9.671 16.019,-39.001 22.982,-76.666 4.512,-24.403 3.251,-51.072 0.929,-65.929 -2.321,-14.857 -17.178,-16.715 -19.5,-26.929 -2.321,-10.214 6.037,-12.071 2.786,-26 -3.251,-13.929 -14.1,-43.989 -44.107,-76.608 -32.036,-34.821 -81.25,-48.285 -102.376,-37.955"
       style="fill:#ffffff;fill-opacity:1;fill-rule:nonzero;stroke:none;stroke-width:0.1"
       id="path676" />
    <path
       d="m 792.109,435.09 c -19.848,11.839 -39.348,37.955 -47.357,59.197 -8.009,21.241 -6.268,31.338 -6.268,41.088 0,9.75 0.348,61.287 0.348,74.519 0,13.232 0.697,22.286 -1.044,27.857 -1.742,5.573 -10.795,31.688 -19.849,52.581 -2.263,5.223 -4.439,9.423 -6.594,12.835 -4.2,8.058 -14.299,27.21 -19.521,34.871 -5.224,7.661 -13.233,18.803 -20.198,21.589 -6.963,2.786 -37.955,6.268 -61.981,16.018 -8.574,3.479 -16.715,9.75 -24.724,14.625 -8.008,4.875 -33.777,22.286 -34.473,40.393 -0.696,18.107 27.509,41.089 44.92,50.143 17.411,9.054 56.758,17.063 90.187,16.018 33.429,-1.045 109.749,-21.98 156.001,-55.715 67.554,-49.272 83.328,-83.01 89.839,-95.932 4.872,-9.671 16.019,-39.001 22.982,-76.666 4.512,-24.403 3.251,-51.072 0.929,-65.929 -2.321,-14.857 -17.178,-16.715 -19.5,-26.929 -2.321,-10.214 6.037,-12.071 2.786,-26 -3.251,-13.929 -14.1,-43.989 -44.107,-76.608 -32.036,-34.821 -81.25,-48.285 -102.376,-37.955 z"
       style="fill:none;stroke:#231f20;stroke-width:0.75;stroke-linecap:round;stroke-linejoin:round;stroke-miterlimit:4;stroke-dasharray:none;stroke-opacity:1"
       id="path678" />
    <path
       d="m 540.002,312.518 c -4.527,0 -8.706,-3.134 -15.67,-5.919 -6.964,-2.786 -23.679,-1.741 -49.794,3.83 -26.117,5.571 -49.795,22.634 -64.769,39.697 -14.973,17.062 -20.196,33.777 -20.196,33.777 2.089,-11.144 -11.491,-11.491 -20.197,-10.447 -8.706,1.044 -12.536,0.697 -17.758,8.009 -5.224,7.313 -20.545,24.375 -29.599,30.294 -9.054,5.92 -14.625,3.134 -26.465,7.313 -16.22,5.726 -7.312,15.67 -7.312,15.67 6.965,6.964 21.241,8.008 36.215,10.098 14.973,2.089 24.723,-0.696 24.723,-0.696 -1.741,2.785 -2.437,6.964 -0.697,12.188 1.741,5.222 7.661,5.918 12.187,4.526 4.528,-1.393 12.885,-7.313 12.885,-7.313 -1.509,0.931 -1.393,3.483 -1.393,4.875 0,1.393 0.464,7.199 0.464,12.305 0,5.107 -2.321,24.144 -6.964,35.749 -4.644,11.608 -14.393,35.751 -19.964,63.144 -5.572,27.393 -4.528,40.276 -4.528,40.276 0,13.232 -0.696,22.286 1.045,27.857 1.742,5.573 10.795,31.688 19.849,52.581 2.263,5.223 4.439,9.423 6.594,12.835 6.464,10.235 12.732,13.369 20.566,15.719 10.447,3.134 16.715,-2.786 16.715,-2.786 -0.696,1.741 -6.268,12.884 9.75,26.813 16.018,13.928 41.437,22.982 68.25,25.419 26.812,2.438 48.054,-14.973 51.187,-19.152 3.134,-4.178 4.876,-9.749 4.876,-12.187 0,2.438 1.741,8.009 4.874,12.187 3.134,4.179 24.376,21.59 51.188,19.152 26.812,-2.437 52.232,-11.491 68.25,-25.419 16.018,-13.929 10.447,-25.072 9.75,-26.813 0,0 6.268,5.92 16.715,2.786 7.835,-2.35 14.102,-5.484 20.566,-15.719 2.155,-3.412 4.331,-7.612 6.594,-12.835 9.054,-20.893 18.107,-47.008 19.849,-52.581 1.741,-5.571 1.044,-14.625 1.044,-27.857 0,0 1.045,-12.883 -4.527,-40.276 -5.571,-27.393 -15.319,-51.536 -19.964,-63.144 -4.643,-11.605 -6.964,-30.642 -6.964,-35.749 0,-5.106 0.464,-10.912 0.464,-12.305 0,-1.392 0.116,-3.944 -1.392,-4.875 0,0 8.356,5.92 12.883,7.313 4.527,1.392 10.447,0.696 12.188,-4.526 1.741,-5.224 1.045,-9.403 -0.696,-12.188 0,0 9.75,2.785 24.722,0.696 14.974,-2.09 29.25,-3.134 36.215,-10.098 0,0 8.908,-9.944 -7.312,-15.67 -11.84,-4.179 -17.411,-1.393 -26.465,-7.313 -9.054,-5.919 -24.375,-22.981 -29.598,-30.294 -5.223,-7.312 -9.054,-6.965 -17.76,-8.009 -8.705,-1.044 -22.285,-0.697 -20.196,10.447 0,0 -5.222,-16.715 -20.196,-33.777 -14.973,-17.063 -38.652,-34.126 -64.768,-39.697 -26.116,-5.571 -42.831,-6.616 -49.795,-3.83 -6.964,2.785 -11.142,5.919 -15.669,5.919"
       style="fill:#ffffff;fill-opacity:1;fill-rule:nonzero;stroke:none;stroke-width:0.1"
       id="path680" />
    <path
       d="m 540.002,312.518 c -4.527,0 -8.706,-3.134 -15.67,-5.919 -6.964,-2.786 -23.679,-1.741 -49.794,3.83 -26.117,5.571 -49.795,22.634 -64.769,39.697 -14.973,17.062 -20.196,33.777 -20.196,33.777 2.089,-11.144 -11.491,-11.491 -20.197,-10.447 -8.706,1.044 -12.536,0.697 -17.758,8.009 -5.224,7.313 -20.545,24.375 -29.599,30.294 -9.054,5.92 -14.625,3.134 -26.465,7.313 -16.22,5.726 -7.312,15.67 -7.312,15.67 6.965,6.964 21.241,8.008 36.215,10.098 14.973,2.089 24.723,-0.696 24.723,-0.696 -1.741,2.785 -2.437,6.964 -0.697,12.188 1.741,5.222 7.661,5.918 12.187,4.526 4.528,-1.393 12.885,-7.313 12.885,-7.313 -1.509,0.931 -1.393,3.483 -1.393,4.875 0,1.393 0.464,7.199 0.464,12.305 0,5.107 -2.321,24.144 -6.964,35.749 -4.644,11.608 -14.393,35.751 -19.964,63.144 -5.572,27.393 -4.528,40.276 -4.528,40.276 0,13.232 -0.696,22.286 1.045,27.857 1.742,5.573 10.795,31.688 19.849,52.581 2.263,5.223 4.439,9.423 6.594,12.835 6.464,10.235 12.732,13.369 20.566,15.719 10.447,3.134 16.715,-2.786 16.715,-2.786 -0.696,1.741 -6.268,12.884 9.75,26.813 16.018,13.928 41.437,22.982 68.25,25.419 26.812,2.438 48.054,-14.973 51.187,-19.152 3.134,-4.178 4.876,-9.749 4.876,-12.187 0,2.438 1.741,8.009 4.874,12.187 3.134,4.179 24.376,21.59 51.188,19.152 26.812,-2.437 52.232,-11.491 68.25,-25.419 16.018,-13.929 10.447,-25.072 9.75,-26.813 0,0 6.268,5.92 16.715,2.786 7.835,-2.35 14.102,-5.484 20.566,-15.719 2.155,-3.412 4.331,-7.612 6.594,-12.835 9.054,-20.893 18.107,-47.008 19.849,-52.581 1.741,-5.571 1.044,-14.625 1.044,-27.857 0,0 1.045,-12.883 -4.527,-40.276 -5.571,-27.393 -15.319,-51.536 -19.964,-63.144 -4.643,-11.605 -6.964,-30.642 -6.964,-35.749 0,-5.106 0.464,-10.912 0.464,-12.305 0,-1.392 0.116,-3.944 -1.392,-4.875 0,0 8.356,5.92 12.883,7.313 4.527,1.392 10.447,0.696 12.188,-4.526 1.741,-5.224 1.045,-9.403 -0.696,-12.188 0,0 9.75,2.785 24.722,0.696 14.974,-2.09 29.25,-3.134 36.215,-10.098 0,0 8.908,-9.944 -7.312,-15.67 -11.84,-4.179 -17.411,-1.393 -26.465,-7.313 -9.054,-5.919 -24.375,-22.981 -29.598,-30.294 -5.223,-7.312 -9.054,-6.965 -17.76,-8.009 -8.705,-1.044 -22.285,-0.697 -20.196,10.447 0,0 -5.222,-16.715 -20.196,-33.777 -14.973,-17.063 -38.652,-34.126 -64.768,-39.697 -26.116,-5.571 -42.831,-6.616 -49.795,-3.83 -6.964,2.785 -11.142,5.919 -15.669,5.919 z"
       style="fill:none;stroke:#231f20;stroke-width:0.75;stroke-linecap:round;stroke-linejoin:round;stroke-miterlimit:4;stroke-dasharray:none;stroke-opacity:1"
       id="path682" />
    <path
       d="m 693.564,730.377 c 0,-1.731 -1.559,-3.134 -3.482,-3.134 -1.923,0 -3.482,1.403 -3.482,3.134 0,1.731 1.559,3.134 3.482,3.134 1.923,0 3.482,-1.403 3.482,-3.134"
       style="fill:#ffffff;fill-opacity:1;fill-rule:nonzero;stroke:none;stroke-width:0.1"
       id="path684" />
    <path
       d="m 693.564,730.377 c 0,-1.731 -1.559,-3.134 -3.482,-3.134 -1.923,0 -3.482,1.403 -3.482,3.134 0,1.731 1.559,3.134 3.482,3.134 1.923,0 3.482,-1.403 3.482,-3.134 z"
       style="fill:none;stroke:#231f20;stroke-width:0.5;stroke-linecap:butt;stroke-linejoin:miter;stroke-miterlimit:4;stroke-dasharray:none;stroke-opacity:1"
       id="path686" />
    <path
       d="m 735.35,500.554 c 0,-3.653 -2.806,-6.616 -6.268,-6.616 -3.461,0 -6.267,2.963 -6.267,6.616 0,3.654 2.806,6.616 6.267,6.616 3.462,0 6.268,-2.962 6.268,-6.616"
       style="fill:#ffffff;fill-opacity:1;fill-rule:nonzero;stroke:none;stroke-width:0.1"
       id="path688" />
    <path
       d="m 735.35,500.554 c 0,-3.653 -2.806,-6.616 -6.268,-6.616 -3.461,0 -6.267,2.963 -6.267,6.616 0,3.654 2.806,6.616 6.267,6.616 3.462,0 6.268,-2.962 6.268,-6.616 z"
       style="fill:none;stroke:#231f20;stroke-width:0.5;stroke-linecap:butt;stroke-linejoin:miter;stroke-miterlimit:4;stroke-dasharray:none;stroke-opacity:1"
       id="path690" />
    <path
       d="m 722.118,480.706 c 0,-1.923 -2.027,-3.482 -4.527,-3.482 -2.5,0 -4.527,1.559 -4.527,3.482 0,1.923 2.027,3.482 4.527,3.482 2.5,0 4.527,-1.559 4.527,-3.482"
       style="fill:#ffffff;fill-opacity:1;fill-rule:nonzero;stroke:none;stroke-width:0.1"
       id="path692" />
    <path
       d="m 722.118,480.706 c 0,-1.923 -2.027,-3.482 -4.527,-3.482 -2.5,0 -4.527,1.559 -4.527,3.482 0,1.923 2.027,3.482 4.527,3.482 2.5,0 4.527,-1.559 4.527,-3.482 z"
       style="fill:none;stroke:#231f20;stroke-width:0.5;stroke-linecap:butt;stroke-linejoin:miter;stroke-miterlimit:4;stroke-dasharray:none;stroke-opacity:1"
       id="path694" />
    <path
       d="m 721.896,469.485 c 0.708,-1.146 -0.181,-2.974 -1.981,-4.084 -1.8,-1.109 -3.833,-1.083 -4.539,0.065 -0.708,1.146 0.18,2.974 1.981,4.083 1.802,1.111 3.833,1.083 4.539,-0.064"
       style="fill:#ffffff;fill-opacity:1;fill-rule:nonzero;stroke:none;stroke-width:0.1"
       id="path696" />
    <path
       d="m 721.896,469.485 c 0.708,-1.146 -0.181,-2.974 -1.981,-4.084 -1.8,-1.109 -3.833,-1.083 -4.539,0.065 -0.708,1.146 0.18,2.974 1.981,4.083 1.802,1.111 3.833,1.083 4.539,-0.064 z"
       style="fill:none;stroke:#231f20;stroke-width:0.5;stroke-linecap:butt;stroke-linejoin:miter;stroke-miterlimit:4;stroke-dasharray:none;stroke-opacity:1"
       id="path698" />
    <path
       d="m 731.971,524.832 c 2.832,-0.472 2.999,-3.417 2.334,-7.563 -0.575,-3.589 -2.373,-6.918 -5.401,-6.385 -2.765,0.49 -2.221,5.049 -1.563,7.778 0.866,3.589 2.293,6.558 4.63,6.17"
       style="fill:#ffffff;fill-opacity:1;fill-rule:nonzero;stroke:none;stroke-width:0.1"
       id="path700" />
    <path
       d="m 731.971,524.832 c 2.832,-0.472 2.999,-3.417 2.334,-7.563 -0.575,-3.589 -2.373,-6.918 -5.401,-6.385 -2.765,0.49 -2.221,5.049 -1.563,7.778 0.866,3.589 2.293,6.558 4.63,6.17 z"
       style="fill:none;stroke:#231f20;stroke-width:0.5;stroke-linecap:butt;stroke-linejoin:miter;stroke-miterlimit:4;stroke-dasharray:none;stroke-opacity:1"
       id="path702" />
    <path
       d="m 559.85,791.663 c -1.741,12.536 -14.277,14.277 -19.848,14.277 -5.572,0 -18.108,-1.741 -19.848,-14.277 -2.08,-14.975 -1.394,-22.634 9.053,-29.25 3.354,-2.124 9.053,-2.438 10.795,-2.438 1.741,0 7.44,0.314 10.794,2.438 10.447,6.616 11.133,14.275 9.054,29.25"
       style="fill:#b2b1b1;fill-opacity:1;fill-rule:nonzero;stroke:none;stroke-width:0.1"
       id="path704" />
    <path
       d="m 542.836,800.401 c -0.549,-3.06 -2.71,-5.539 -4.826,-5.539 -2.115,0 -3.384,2.479 -2.835,5.539 0.551,3.059 2.711,5.539 4.827,5.539 2.115,0 3.384,-2.48 2.834,-5.539"
       style="fill:#ffffff;fill-opacity:1;fill-rule:nonzero;stroke:none;stroke-width:0.1"
       id="path706" />
    <path
       d="m 542.836,800.401 c -0.549,-3.06 -2.71,-5.539 -4.826,-5.539 -2.115,0 -3.384,2.479 -2.835,5.539 0.551,3.059 2.711,5.539 4.827,5.539 2.115,0 3.384,-2.48 2.834,-5.539 z"
       style="fill:none;stroke:#231f20;stroke-width:0.5;stroke-linecap:butt;stroke-linejoin:miter;stroke-miterlimit:4;stroke-dasharray:none;stroke-opacity:1"
       id="path708" />
    <path
       d="m 730.824,444.144 c -6.965,-5.224 -12.885,-12.188 -20.198,-28.206 -7.312,-16.018 -2.325,-40.434 16.248,-36.407"
       style="fill:none;stroke:#231f20;stroke-width:0.5;stroke-linecap:butt;stroke-linejoin:miter;stroke-miterlimit:4;stroke-dasharray:none;stroke-opacity:1"
       id="path710" />
    <path
       d="m 690.43,383.903 c 0.696,9.053 7.035,34.949 23.889,39.587"
       style="fill:none;stroke:#231f20;stroke-width:0.5;stroke-linecap:butt;stroke-linejoin:miter;stroke-miterlimit:4;stroke-dasharray:none;stroke-opacity:1"
       id="path712" />
    <path
       d="m 706.449,453.545 c -4.875,-3.83 -14.278,-10.795 -24.375,-26.116 -10.099,-15.321 -18.108,-30.295 -19.849,-41.089"
       style="fill:none;stroke:#231f20;stroke-width:0.5;stroke-linecap:butt;stroke-linejoin:miter;stroke-miterlimit:4;stroke-dasharray:none;stroke-opacity:1"
       id="path714" />
    <path
       d="m 671.329,409.643 c 7.959,6.644 47.307,37.286 60.191,46.689"
       style="fill:none;stroke:#231f20;stroke-width:0.5;stroke-linecap:butt;stroke-linejoin:miter;stroke-miterlimit:4;stroke-dasharray:none;stroke-opacity:1"
       id="path716" />
    <path
       d="m 542.091,387.012 c 0,0 -0.348,-56.735 -0.348,-59.173 0,-2.437 3.83,-10.097 13.232,-13.231 9.401,-3.134 20.544,-5.92 38.304,-0.696 17.759,5.222 32.384,13.927 44.919,21.24 12.536,7.312 18.903,14.378 22.634,23.331 5.223,12.535 2.237,27.857 1.393,27.857 -1.245,0 -3.83,-9.053 -40.741,-19.848 -20.123,-5.885 -33.429,-6.616 -40.741,-6.616 -7.313,0 -18.804,5.919 -22.983,9.402 -4.178,3.481 -13.928,12.884 3.483,21.937 8.226,4.28 20.167,3.689 32.036,4.178 13.252,0.547 25.868,1.907 28.257,2.09"
       style="fill:none;stroke:#231f20;stroke-width:0.5;stroke-linecap:butt;stroke-linejoin:miter;stroke-miterlimit:4;stroke-dasharray:none;stroke-opacity:1"
       id="path718" />
    <path
       d="m 669.736,406.613 c 1.593,3.03 -3.332,6.54 -8.556,7.932 -5.222,1.393 -14.276,3.831 -22.982,-3.482 -8.705,-7.313 -17.063,-13.232 -21.938,-18.804 -4.875,-5.571 -12.187,-14.625 -24.026,-19.5 -11.839,-4.875 -18.036,-7.975 -22.773,-10.082"
       style="fill:none;stroke:#231f20;stroke-width:0.5;stroke-linecap:butt;stroke-linejoin:miter;stroke-miterlimit:4;stroke-dasharray:none;stroke-opacity:1"
       id="path720" />
    <path
       d="m 557.76,369.278 c 5.224,8.009 17.759,13.928 25.42,16.017 7.661,2.089 24.133,5.436 32.263,6.026"
       style="fill:none;stroke:#231f20;stroke-width:0.5;stroke-linecap:butt;stroke-linejoin:miter;stroke-miterlimit:4;stroke-dasharray:none;stroke-opacity:1"
       id="path722" />
    <path
       d="m 661.18,414.545 c 6.616,1.742 16.019,7.661 20.894,12.884"
       style="fill:none;stroke:#231f20;stroke-width:0.5;stroke-linecap:butt;stroke-linejoin:miter;stroke-miterlimit:4;stroke-dasharray:none;stroke-opacity:1"
       id="path724" />
    <path
       d="m 564.725,478.965 c 2.785,-8.009 6.268,-28.553 5.919,-38.652 -0.348,-10.098 -2.437,-19.848 -3.134,-23.33 -0.696,-3.483 -1.741,-6.616 1.394,-7.313 3.134,-0.696 5.222,-1.741 8.356,5.572 3.135,7.312 7.313,21.241 6.616,32.384 -0.696,11.143 -3.674,26.358 -6.112,33.323"
       style="fill:none;stroke:#231f20;stroke-width:0.25;stroke-linecap:butt;stroke-linejoin:miter;stroke-miterlimit:4;stroke-dasharray:none;stroke-opacity:1"
       id="path726" />
    <path
       d="m 649.685,415.985 c 2.441,9.355 16.719,35.819 20.897,41.391 0,0 4.179,1.741 9.75,12.187 5.572,10.446 12.188,24.027 13.929,33.429 1.741,9.402 2.089,17.758 -9.402,21.937"
       style="fill:none;stroke:#231f20;stroke-width:0.5;stroke-linecap:butt;stroke-linejoin:miter;stroke-miterlimit:4;stroke-dasharray:none;stroke-opacity:1"
       id="path728" />
    <path
       d="m 661.782,442.455 c 2.765,5.041 2.184,13.179 -7.218,11.09 -9.401,-2.089 -17.062,-8.008 -19.5,-15.321 -2.438,-7.312 3.482,-9.402 8.009,-9.75 4.527,-0.348 9.723,0.008 14.96,6.796"
       style="fill:none;stroke:#231f20;stroke-width:0.5;stroke-linecap:butt;stroke-linejoin:miter;stroke-miterlimit:4;stroke-dasharray:none;stroke-opacity:1"
       id="path730" />
    <path
       d="m 618.261,586.215 c 5.571,-6.616 18.683,-17.97 42.292,-24.655"
       style="fill:none;stroke:#231f20;stroke-width:0.5;stroke-linecap:butt;stroke-linejoin:miter;stroke-miterlimit:4;stroke-dasharray:none;stroke-opacity:1"
       id="path732" />
    <path
       d="m 612.685,598.279 c 8.705,3.134 32.562,15.971 39.79,34.946 5.571,14.625 7.313,19.151 10.446,43.179 2.282,17.484 2.09,32.732 11.143,39.696"
       style="fill:none;stroke:#231f20;stroke-width:0.5;stroke-linecap:butt;stroke-linejoin:miter;stroke-miterlimit:4;stroke-dasharray:none;stroke-opacity:1"
       id="path734" />
    <path
       d="m 675.458,594.54 c 4.874,-4.875 10.446,-20.861 10.794,-33.396"
       style="fill:none;stroke:#231f20;stroke-width:0.25;stroke-linecap:butt;stroke-linejoin:miter;stroke-miterlimit:4;stroke-dasharray:none;stroke-opacity:1"
       id="path736" />
    <path
       d="m 608.379,612.383 c -0.654,-3.554 2.31,-10.15 5.444,-16.418 3.135,-6.267 9.33,-13.694 -0.894,-23.91"
       style="fill:none;stroke:#231f20;stroke-width:0.5;stroke-linecap:butt;stroke-linejoin:miter;stroke-miterlimit:4;stroke-dasharray:none;stroke-opacity:1"
       id="path738" />
    <path
       d="m 558.109,534.332 c -5.571,-2.787 -10.446,-5.572 -11.491,-10.447 -1.045,-4.875 -1.393,-11.84 2.437,-13.581 3.83,-1.741 8.358,-2.437 14.974,3.134 6.615,5.572 9.053,8.357 8.009,12.187 -1.045,3.832 -1.751,9.054 -1.742,11.492 0.01,2.462 -1.741,2.786 -3.482,1.741 -1.741,-1.045 -8.705,-4.526 -8.705,-4.526 z"
       style="fill:none;stroke:#231f20;stroke-width:0.5;stroke-linecap:butt;stroke-linejoin:miter;stroke-miterlimit:4;stroke-dasharray:none;stroke-opacity:1"
       id="path740" />
    <path
       d="m 558.109,534.332 c -1.254,-0.637 -1.045,-4.875 2.785,-5.224 3.831,-0.348 7.492,1.11 9.563,5.256"
       style="fill:none;stroke:#231f20;stroke-width:0.5;stroke-linecap:butt;stroke-linejoin:miter;stroke-miterlimit:4;stroke-dasharray:none;stroke-opacity:1"
       id="path742" />
    <path
       d="m 669.886,711.574 c 0.348,7.66 -11.491,11.839 -29.947,20.196 -18.455,8.357 -31.339,14.625 -46.66,16.714 -15.322,2.09 -26.813,-4.526 -32.385,-9.054 -5.571,-4.526 -15.669,-21.24 -19.5,-25.419 0,0 6.269,-3.482 17.76,5.223 11.49,8.706 19.5,13.929 33.428,12.187 13.928,-1.741 29.947,-4.875 41.786,-10.097 11.84,-5.224 23.331,-12.188 25.42,-13.581 2.088,-1.393 6.509,-4.178 7.206,-3.134"
       style="fill:none;stroke:#231f20;stroke-width:0.5;stroke-linecap:butt;stroke-linejoin:miter;stroke-miterlimit:4;stroke-dasharray:none;stroke-opacity:1"
       id="path744" />
    <path
       d="m 651.381,630.812 c -1.409,-2.625 -10.397,-3.158 -17.013,5.199 -6.616,8.357 -17.41,29.25 -26.464,36.563 -9.054,7.312 -33.081,21.589 -37.26,25.419 -4.178,3.831 -10.446,7.312 -9.053,11.143 1.393,3.83 8.357,3.83 12.188,2.438 0,0 -3.831,5.222 3.481,6.616 7.313,1.392 28.554,0.696 51.536,-9.75 22.983,-10.447 36.15,-15.67 35.454,-20.545"
       style="fill:none;stroke:#231f20;stroke-width:0.5;stroke-linecap:butt;stroke-linejoin:miter;stroke-miterlimit:4;stroke-dasharray:none;stroke-opacity:1"
       id="path746" />
    <path
       d="m 573.779,711.574 c 13.929,-4.179 43.526,-13.929 55.017,-19.153 11.492,-5.222 18.108,-9.053 22.286,-11.839 4.179,-2.786 10.794,-8.357 11.839,-4.178"
       style="fill:none;stroke:#231f20;stroke-width:0.5;stroke-linecap:butt;stroke-linejoin:miter;stroke-miterlimit:4;stroke-dasharray:none;stroke-opacity:1"
       id="path748" />
    <path
       d="m 673.194,715.38 c 0.55,0.484 2.091,0.44 2.96,0.372 5.571,-0.435 13.754,-3.134 18.804,-6.616 8.905,-6.141 16.017,-19.152 20.544,-29.598 4.527,-10.447 14.625,-35.17 15.322,-52.58 0.696,-17.413 0,-34.126 -3.483,-36.564 -3.243,-2.269 -6.322,-3.436 -13.23,-3.394"
       style="fill:none;stroke:#231f20;stroke-width:0.5;stroke-linecap:butt;stroke-linejoin:miter;stroke-miterlimit:4;stroke-dasharray:none;stroke-opacity:1"
       id="path750" />
    <path
       d="m 727.341,590.394 c -1.045,-7.661 -1.764,-16.619 -0.102,-17.101"
       style="fill:none;stroke:#231f20;stroke-width:0.5;stroke-linecap:butt;stroke-linejoin:miter;stroke-miterlimit:4;stroke-dasharray:none;stroke-opacity:1"
       id="path752" />
    <path
       d="m 837.029,541.471 c 5.649,0 12.883,7.254 18.919,22.575 6.037,15.322 11.608,32.5 13.001,53.393 1.393,20.893 -2.323,34.821 -10.215,54.321 -7.892,19.5 -14.858,30.644 -26.464,45.036 -11.607,14.394 -27.697,31.084 -45.5,44.108 -17.881,13.081 -32.934,21.42 -46.893,28.321 -13.028,6.441 -38.478,16.019 -45.922,18.183 -6.682,1.942 -21.598,5.082 -22.329,3.638 -0.859,-1.698 2.343,-7.713 18.108,-15.321 17.204,-8.303 51.072,-32.036 66.393,-56.643 15.322,-24.607 26.763,-49.326 36.331,-70.165 7.73,-16.836 14.207,-31.745 17.032,-39.01 7.134,-18.345 16.86,-43.191 18.834,-65.802 1.212,-13.88 0.347,-22.634 8.705,-22.634 z"
       style="fill:none;stroke:#231f20;stroke-width:0.5;stroke-linecap:butt;stroke-linejoin:miter;stroke-miterlimit:4;stroke-dasharray:none;stroke-opacity:1"
       id="path754" />
    <path
       d="m 761.234,761.368 c 17.643,-13 69.761,-54.721 90.536,-104.464 17.074,-40.885 0.929,-76.606 0.929,-76.606"
       style="fill:none;stroke:#231f20;stroke-width:0.75;stroke-linecap:round;stroke-linejoin:round;stroke-miterlimit:4;stroke-dasharray:none;stroke-opacity:1"
       id="path756" />
    <path
       d="m 287.894,435.09 c 19.849,11.839 39.349,37.955 47.357,59.197 8.009,21.241 6.268,31.338 6.268,41.088 0,9.75 -0.349,61.287 -0.349,74.519 0,13.232 -0.696,22.286 1.045,27.857 1.742,5.573 10.795,31.688 19.849,52.581 2.263,5.223 4.439,9.423 6.594,12.835 4.201,8.058 14.299,27.21 19.522,34.871 5.223,7.661 13.232,18.803 20.196,21.589 6.964,2.786 37.956,6.268 61.983,16.018 8.573,3.479 16.714,9.75 24.723,14.625 8.008,4.875 33.777,22.286 34.473,40.393 0.697,18.107 -27.509,41.089 -44.92,50.143 -17.41,9.054 -56.759,17.063 -90.187,16.018 -33.429,-1.045 -109.749,-21.98 -156,-55.715 -67.554,-49.272 -83.328,-83.01 -89.84,-95.932 -4.872,-9.671 -16.018,-39.001 -22.982,-76.666 -4.512,-24.403 -3.251,-51.072 -0.929,-65.929 2.322,-14.857 17.178,-16.715 19.5,-26.929 2.322,-10.214 -6.037,-12.071 -2.786,-26 3.251,-13.929 14.1,-43.989 44.108,-76.608 32.035,-34.821 81.249,-48.285 102.375,-37.955"
       style="fill:#ffffff;fill-opacity:1;fill-rule:nonzero;stroke:none;stroke-width:0.1"
       id="path758" />
    <path
       d="m 287.894,435.09 c 19.849,11.839 39.349,37.955 47.357,59.197 8.009,21.241 6.268,31.338 6.268,41.088 0,9.75 -0.349,61.287 -0.349,74.519 0,13.232 -0.696,22.286 1.045,27.857 1.742,5.573 10.795,31.688 19.849,52.581 2.263,5.223 4.439,9.423 6.594,12.835 4.201,8.058 14.299,27.21 19.522,34.871 5.223,7.661 13.232,18.803 20.196,21.589 6.964,2.786 37.956,6.268 61.983,16.018 8.573,3.479 16.714,9.75 24.723,14.625 8.008,4.875 33.777,22.286 34.473,40.393 0.697,18.107 -27.509,41.089 -44.92,50.143 -17.41,9.054 -56.759,17.063 -90.187,16.018 -33.429,-1.045 -109.749,-21.98 -156,-55.715 -67.554,-49.272 -83.328,-83.01 -89.84,-95.932 -4.872,-9.671 -16.018,-39.001 -22.982,-76.666 -4.512,-24.403 -3.251,-51.072 -0.929,-65.929 2.322,-14.857 17.178,-16.715 19.5,-26.929 2.322,-10.214 -6.037,-12.071 -2.786,-26 3.251,-13.929 14.1,-43.989 44.108,-76.608 32.035,-34.821 81.249,-48.285 102.375,-37.955 z"
       style="fill:none;stroke:#231f20;stroke-width:0.75;stroke-linecap:round;stroke-linejoin:round;stroke-miterlimit:4;stroke-dasharray:none;stroke-opacity:1"
       id="path760" />
    <path
       d="m 242.974,541.471 c -5.648,0 -12.883,7.254 -18.919,22.575 -6.037,15.322 -11.608,32.5 -13.001,53.393 -1.392,20.893 2.323,34.821 10.215,54.321 7.893,19.5 14.857,30.644 26.465,45.036 11.606,14.394 27.696,31.084 45.499,44.108 17.881,13.081 32.933,21.42 46.893,28.321 13.029,6.441 38.478,16.019 45.922,18.183 6.682,1.942 21.598,5.082 22.328,3.638 0.86,-1.698 -2.342,-7.713 -18.107,-15.321 -17.204,-8.303 -51.072,-32.036 -66.393,-56.643 -15.322,-24.607 -26.762,-49.326 -36.331,-70.165 -7.729,-16.836 -14.207,-31.745 -17.032,-39.01 -7.135,-18.345 -16.86,-43.191 -18.834,-65.802 -1.212,-13.88 -0.347,-22.634 -8.705,-22.634 z"
       style="fill:none;stroke:#231f20;stroke-width:0.5;stroke-linecap:butt;stroke-linejoin:miter;stroke-miterlimit:4;stroke-dasharray:none;stroke-opacity:1"
       id="path762" />
    <path
       d="m 318.769,761.368 c -17.643,-13 -69.761,-54.721 -90.535,-104.464 -17.075,-40.885 -0.93,-76.606 -0.93,-76.606"
       style="fill:none;stroke:#231f20;stroke-width:0.75;stroke-linecap:round;stroke-linejoin:round;stroke-miterlimit:4;stroke-dasharray:none;stroke-opacity:1"
       id="path764" />
    <path
       d="m 612.164,567.529 c 0,-0.623 -0.5,-1.126 -1.126,-1.126 -0.623,0 -1.126,0.503 -1.126,1.126 0,0.623 0.503,1.126 1.126,1.126 0.626,0 1.126,-0.503 1.126,-1.126"
       style="fill:#231f20;fill-opacity:1;fill-rule:nonzero;stroke:none;stroke-width:0.1"
       id="path766" />
    <path
       d="m 616.575,586.332 c 0,-0.623 -0.5,-1.126 -1.126,-1.126 -0.623,0 -1.126,0.503 -1.126,1.126 0,0.624 0.503,1.126 1.126,1.126 0.626,0 1.126,-0.502 1.126,-1.126"
       style="fill:#231f20;fill-opacity:1;fill-rule:nonzero;stroke:none;stroke-width:0.1"
       id="path768" />
    <path
       d="m 386.439,730.377 c 0,-1.731 1.559,-3.134 3.482,-3.134 1.923,0 3.482,1.403 3.482,3.134 0,1.731 -1.559,3.134 -3.482,3.134 -1.923,0 -3.482,-1.403 -3.482,-3.134"
       style="fill:#ffffff;fill-opacity:1;fill-rule:nonzero;stroke:none;stroke-width:0.1"
       id="path770" />
    <path
       d="m 386.439,730.377 c 0,-1.731 1.559,-3.134 3.482,-3.134 1.923,0 3.482,1.403 3.482,3.134 0,1.731 -1.559,3.134 -3.482,3.134 -1.923,0 -3.482,-1.403 -3.482,-3.134 z"
       style="fill:none;stroke:#231f20;stroke-width:0.5;stroke-linecap:butt;stroke-linejoin:miter;stroke-miterlimit:4;stroke-dasharray:none;stroke-opacity:1"
       id="path772" />
    <path
       d="m 344.653,500.554 c 0,-3.653 2.807,-6.616 6.267,-6.616 3.462,0 6.269,2.963 6.269,6.616 0,3.654 -2.807,6.616 -6.269,6.616 -3.46,0 -6.267,-2.962 -6.267,-6.616"
       style="fill:#ffffff;fill-opacity:1;fill-rule:nonzero;stroke:none;stroke-width:0.1"
       id="path774" />
    <path
       d="m 344.653,500.554 c 0,-3.653 2.807,-6.616 6.267,-6.616 3.462,0 6.269,2.963 6.269,6.616 0,3.654 -2.807,6.616 -6.269,6.616 -3.46,0 -6.267,-2.962 -6.267,-6.616 z"
       style="fill:none;stroke:#231f20;stroke-width:0.5;stroke-linecap:butt;stroke-linejoin:miter;stroke-miterlimit:4;stroke-dasharray:none;stroke-opacity:1"
       id="path776" />
    <path
       d="m 357.885,480.706 c 0,-1.923 2.027,-3.482 4.527,-3.482 2.5,0 4.527,1.559 4.527,3.482 0,1.923 -2.027,3.482 -4.527,3.482 -2.5,0 -4.527,-1.559 -4.527,-3.482"
       style="fill:#ffffff;fill-opacity:1;fill-rule:nonzero;stroke:none;stroke-width:0.1"
       id="path778" />
    <path
       d="m 357.885,480.706 c 0,-1.923 2.027,-3.482 4.527,-3.482 2.5,0 4.527,1.559 4.527,3.482 0,1.923 -2.027,3.482 -4.527,3.482 -2.5,0 -4.527,-1.559 -4.527,-3.482 z"
       style="fill:none;stroke:#231f20;stroke-width:0.5;stroke-linecap:butt;stroke-linejoin:miter;stroke-miterlimit:4;stroke-dasharray:none;stroke-opacity:1"
       id="path780" />
    <path
       d="m 358.107,469.485 c -0.707,-1.146 0.181,-2.974 1.981,-4.084 1.8,-1.109 3.833,-1.083 4.539,0.065 0.708,1.146 -0.18,2.974 -1.981,4.083 -1.801,1.111 -3.833,1.083 -4.539,-0.064"
       style="fill:#ffffff;fill-opacity:1;fill-rule:nonzero;stroke:none;stroke-width:0.1"
       id="path782" />
    <path
       d="m 358.107,469.485 c -0.707,-1.146 0.181,-2.974 1.981,-4.084 1.8,-1.109 3.833,-1.083 4.539,0.065 0.708,1.146 -0.18,2.974 -1.981,4.083 -1.801,1.111 -3.833,1.083 -4.539,-0.064 z"
       style="fill:none;stroke:#231f20;stroke-width:0.5;stroke-linecap:butt;stroke-linejoin:miter;stroke-miterlimit:4;stroke-dasharray:none;stroke-opacity:1"
       id="path784" />
    <path
       d="m 348.032,524.832 c -2.832,-0.472 -2.999,-3.417 -2.334,-7.563 0.575,-3.589 2.373,-6.918 5.401,-6.385 2.766,0.49 2.221,5.049 1.563,7.778 -0.866,3.589 -2.293,6.558 -4.63,6.17"
       style="fill:#ffffff;fill-opacity:1;fill-rule:nonzero;stroke:none;stroke-width:0.1"
       id="path786" />
    <path
       d="m 348.032,524.832 c -2.832,-0.472 -2.999,-3.417 -2.334,-7.563 0.575,-3.589 2.373,-6.918 5.401,-6.385 2.766,0.49 2.221,5.049 1.563,7.778 -0.866,3.589 -2.293,6.558 -4.63,6.17 z"
       style="fill:none;stroke:#231f20;stroke-width:0.5;stroke-linecap:butt;stroke-linejoin:miter;stroke-miterlimit:4;stroke-dasharray:none;stroke-opacity:1"
       id="path788" />
    <path
       d="m 349.18,444.144 c 6.964,-5.224 12.884,-12.188 20.196,-28.206 7.313,-16.018 2.327,-40.434 -16.248,-36.407"
       style="fill:none;stroke:#231f20;stroke-width:0.5;stroke-linecap:butt;stroke-linejoin:miter;stroke-miterlimit:4;stroke-dasharray:none;stroke-opacity:1"
       id="path790" />
    <path
       d="m 389.573,383.903 c -0.697,9.053 -7.035,34.949 -23.888,39.587"
       style="fill:none;stroke:#231f20;stroke-width:0.5;stroke-linecap:butt;stroke-linejoin:miter;stroke-miterlimit:4;stroke-dasharray:none;stroke-opacity:1"
       id="path792" />
    <path
       d="m 373.555,453.545 c 4.875,-3.83 14.277,-10.795 24.375,-26.116 10.098,-15.321 18.107,-30.295 19.848,-41.089"
       style="fill:none;stroke:#231f20;stroke-width:0.5;stroke-linecap:butt;stroke-linejoin:miter;stroke-miterlimit:4;stroke-dasharray:none;stroke-opacity:1"
       id="path794" />
    <path
       d="m 408.674,409.643 c -7.959,6.644 -47.306,37.286 -60.191,46.689"
       style="fill:none;stroke:#231f20;stroke-width:0.5;stroke-linecap:butt;stroke-linejoin:miter;stroke-miterlimit:4;stroke-dasharray:none;stroke-opacity:1"
       id="path796" />
    <path
       d="m 537.913,387.012 c 0,0 0.347,-56.735 0.347,-59.173 0,-2.437 -3.83,-10.097 -13.231,-13.231 -9.403,-3.134 -20.545,-5.92 -38.304,-0.696 -17.76,5.222 -32.385,13.927 -44.92,21.24 -12.536,7.312 -18.903,14.378 -22.634,23.331 -5.223,12.535 -2.236,27.857 -1.393,27.857 1.245,0 3.831,-9.053 40.741,-19.848 20.123,-5.885 33.429,-6.616 40.741,-6.616 7.313,0 18.804,5.919 22.983,9.402 4.178,3.481 13.928,12.884 -3.483,21.937 -8.226,4.28 -20.166,3.689 -32.035,4.178 -13.253,0.547 -25.869,1.907 -28.258,2.09"
       style="fill:none;stroke:#231f20;stroke-width:0.5;stroke-linecap:butt;stroke-linejoin:miter;stroke-miterlimit:4;stroke-dasharray:none;stroke-opacity:1"
       id="path798" />
    <path
       d="m 410.267,406.613 c -1.593,3.03 3.332,6.54 8.556,7.932 5.223,1.393 14.276,3.831 22.982,-3.482 8.705,-7.313 17.063,-13.232 21.938,-18.804 4.875,-5.571 12.187,-14.625 24.026,-19.5 11.84,-4.875 18.037,-7.975 22.773,-10.082"
       style="fill:none;stroke:#231f20;stroke-width:0.5;stroke-linecap:butt;stroke-linejoin:miter;stroke-miterlimit:4;stroke-dasharray:none;stroke-opacity:1"
       id="path800" />
    <path
       d="m 522.243,369.278 c -5.224,8.009 -17.759,13.928 -25.42,16.017 -7.66,2.089 -24.133,5.436 -32.263,6.026"
       style="fill:none;stroke:#231f20;stroke-width:0.5;stroke-linecap:butt;stroke-linejoin:miter;stroke-miterlimit:4;stroke-dasharray:none;stroke-opacity:1"
       id="path802" />
    <path
       d="m 418.823,414.545 c -6.616,1.742 -16.018,7.661 -20.893,12.884"
       style="fill:none;stroke:#231f20;stroke-width:0.5;stroke-linecap:butt;stroke-linejoin:miter;stroke-miterlimit:4;stroke-dasharray:none;stroke-opacity:1"
       id="path804" />
    <path
       d="m 515.279,478.965 c -2.786,-8.009 -6.269,-28.553 -5.92,-38.652 0.348,-10.098 2.437,-19.848 3.134,-23.33 0.696,-3.483 1.741,-6.616 -1.393,-7.313 -3.135,-0.696 -5.224,-1.741 -8.357,5.572 -3.134,7.312 -7.313,21.241 -6.617,32.384 0.697,11.143 3.676,26.358 6.114,33.323"
       style="fill:none;stroke:#231f20;stroke-width:0.25;stroke-linecap:butt;stroke-linejoin:miter;stroke-miterlimit:4;stroke-dasharray:none;stroke-opacity:1"
       id="path806" />
    <path
       d="m 511.1,409.67 c 7.313,-0.696 22.285,-2.089 28.902,-2.437 6.616,0.348 21.589,1.741 28.902,2.437"
       style="fill:none;stroke:#231f20;stroke-width:0.5;stroke-linecap:butt;stroke-linejoin:miter;stroke-miterlimit:4;stroke-dasharray:none;stroke-opacity:1"
       id="path808" />
    <path
       d="m 540.002,469.563 c -2.786,0 -8.706,3.134 -12.536,5.224 -3.831,2.089 -10.795,3.83 -15.322,4.875 -4.526,1.044 -20.196,2.088 -24.723,2.785 -4.527,0.697 -25.071,5.223 -30.991,5.92 -5.92,0.696 -15.321,1.045 -18.107,0.696 -2.786,-0.348 -4.875,0.697 0,4.179 4.875,3.482 14.973,9.402 20.892,12.883 5.92,3.483 17.063,5.224 28.206,4.528 11.143,-0.696 31.339,-4.528 36.911,-4.875 5.572,-0.349 11.839,-1.393 15.67,-1.393 3.83,0 10.098,1.044 15.669,1.393 5.572,0.347 25.768,4.179 36.911,4.875 11.143,0.696 22.286,-1.045 28.206,-4.528 5.92,-3.481 16.017,-9.401 20.892,-12.883 4.875,-3.482 2.786,-4.527 0,-4.179 -2.785,0.349 -12.187,0 -18.107,-0.696 -5.919,-0.697 -26.464,-5.223 -30.991,-5.92 -4.527,-0.697 -20.197,-1.741 -24.723,-2.785 -4.527,-1.045 -11.491,-2.786 -15.321,-4.875 -3.831,-2.09 -9.75,-5.224 -12.536,-5.224 z"
       style="fill:none;stroke:#231f20;stroke-width:0.5;stroke-linecap:butt;stroke-linejoin:miter;stroke-miterlimit:4;stroke-dasharray:none;stroke-opacity:1"
       id="path810" />
    <path
       d="m 430.318,415.985 c -2.442,9.355 -16.719,35.819 -20.897,41.391 0,0 -4.178,1.741 -9.75,12.187 -5.572,10.446 -12.187,24.027 -13.928,33.429 -1.742,9.402 -2.09,17.758 9.401,21.937"
       style="fill:none;stroke:#231f20;stroke-width:0.5;stroke-linecap:butt;stroke-linejoin:miter;stroke-miterlimit:4;stroke-dasharray:none;stroke-opacity:1"
       id="path812" />
    <path
       d="m 418.221,442.455 c -2.764,5.041 -2.184,13.179 7.218,11.09 9.401,-2.089 17.062,-8.008 19.5,-15.321 2.437,-7.312 -3.482,-9.402 -8.009,-9.75 -4.527,-0.348 -9.722,0.008 -14.96,6.796"
       style="fill:none;stroke:#231f20;stroke-width:0.5;stroke-linecap:butt;stroke-linejoin:miter;stroke-miterlimit:4;stroke-dasharray:none;stroke-opacity:1"
       id="path814" />
    <path
       d="M 461.742,586.215 C 456.17,579.599 443.059,568.245 419.45,561.56"
       style="fill:none;stroke:#231f20;stroke-width:0.5;stroke-linecap:butt;stroke-linejoin:miter;stroke-miterlimit:4;stroke-dasharray:none;stroke-opacity:1"
       id="path816" />
    <path
       d="m 467.319,598.279 c -8.706,3.134 -32.563,15.971 -39.791,34.946 -5.571,14.625 -7.313,19.151 -10.446,43.179 -2.282,17.484 -2.089,32.732 -11.143,39.696"
       style="fill:none;stroke:#231f20;stroke-width:0.5;stroke-linecap:butt;stroke-linejoin:miter;stroke-miterlimit:4;stroke-dasharray:none;stroke-opacity:1"
       id="path818" />
    <path
       d="m 404.546,594.54 c -4.875,-4.875 -10.447,-20.861 -10.795,-33.396"
       style="fill:none;stroke:#231f20;stroke-width:0.25;stroke-linecap:butt;stroke-linejoin:miter;stroke-miterlimit:4;stroke-dasharray:none;stroke-opacity:1"
       id="path820" />
    <path
       d="m 557.413,625.913 c -0.349,4.875 -9.054,6.963 -11.84,8.705 -2.785,1.741 -3.482,5.571 -5.571,5.571 -2.089,0 -2.786,-3.83 -5.572,-5.571 -2.786,-1.742 -11.491,-3.83 -11.839,-8.705 -0.348,-4.875 3.411,-18.989 6.616,-24.724 3.308,-5.92 5.572,-9.054 6.964,-6.965 1.393,2.09 3.308,1.787 3.831,1.787 0.522,0 2.437,0.303 3.83,-1.787 1.393,-2.089 3.656,1.045 6.964,6.965 3.204,5.735 6.964,19.849 6.617,24.724"
       style="fill:#706d6e;fill-opacity:1;fill-rule:nonzero;stroke:none;stroke-width:0.1"
       id="path822" />
    <path
       d="m 557.413,625.913 c -0.349,4.875 -9.054,6.963 -11.84,8.705 -2.785,1.741 -3.482,5.571 -5.571,5.571 -2.089,0 -2.786,-3.83 -5.572,-5.571 -2.786,-1.742 -11.491,-3.83 -11.839,-8.705 -0.348,-4.875 3.411,-18.989 6.616,-24.724 3.308,-5.92 5.572,-9.054 6.964,-6.965 1.393,2.09 3.308,1.787 3.831,1.787 0.522,0 2.437,0.303 3.83,-1.787 1.393,-2.089 3.656,1.045 6.964,6.965 3.204,5.735 6.964,19.849 6.617,24.724 z"
       style="fill:none;stroke:#231f20;stroke-width:0.75;stroke-linecap:round;stroke-linejoin:round;stroke-miterlimit:4;stroke-dasharray:none;stroke-opacity:1"
       id="path824" />
    <path
       d="m 502.394,545.125 c -6.268,4.875 -17.759,13.233 -22.981,15.67 -5.224,2.438 -8.706,4.875 -12.885,12.188 -4.178,7.312 -0.348,16.018 1.045,18.107 1.392,2.089 5.223,10.447 4.875,16.018 -0.348,5.571 -2.438,9.402 -4.527,24.027 -2.089,14.626 12.536,25.073 27.857,32.036 15.322,6.965 38.652,7.313 44.224,7.313 5.571,0 28.902,-0.348 44.223,-7.313 15.321,-6.963 29.946,-17.41 27.857,-32.036 -2.089,-14.625 -4.178,-18.456 -4.527,-24.027 -0.347,-5.571 3.483,-13.929 4.875,-16.018 1.393,-2.089 5.224,-10.795 1.045,-18.107 -4.179,-7.313 -7.661,-9.75 -12.884,-12.188 -5.223,-2.437 -16.715,-10.795 -22.982,-15.67"
       style="fill:none;stroke:#231f20;stroke-width:0.5;stroke-linecap:butt;stroke-linejoin:miter;stroke-miterlimit:4;stroke-dasharray:none;stroke-opacity:1"
       id="path826" />
    <path
       d="m 471.624,612.383 c 0.654,-3.554 -2.31,-10.15 -5.444,-16.418 -3.134,-6.267 -9.33,-13.694 0.894,-23.91"
       style="fill:none;stroke:#231f20;stroke-width:0.5;stroke-linecap:butt;stroke-linejoin:miter;stroke-miterlimit:4;stroke-dasharray:none;stroke-opacity:1"
       id="path828" />
    <path
       d="m 521.894,534.332 c 5.572,-2.787 10.447,-5.572 11.491,-10.447 1.045,-4.875 1.394,-11.84 -2.437,-13.581 -3.83,-1.741 -8.357,-2.437 -14.973,3.134 -6.616,5.572 -9.054,8.357 -8.01,12.187 1.045,3.832 1.751,9.054 1.742,11.492 -0.009,2.462 1.741,2.786 3.482,1.741 1.741,-1.045 8.705,-4.526 8.705,-4.526 z"
       style="fill:none;stroke:#231f20;stroke-width:0.5;stroke-linecap:butt;stroke-linejoin:miter;stroke-miterlimit:4;stroke-dasharray:none;stroke-opacity:1"
       id="path830" />
    <path
       d="m 521.894,534.332 c 1.255,-0.637 1.045,-4.875 -2.785,-5.224 -3.83,-0.348 -7.492,1.11 -9.563,5.256"
       style="fill:none;stroke:#231f20;stroke-width:0.5;stroke-linecap:butt;stroke-linejoin:miter;stroke-miterlimit:4;stroke-dasharray:none;stroke-opacity:1"
       id="path832" />
    <path
       d="m 410.118,711.574 c -0.349,7.66 11.491,11.839 29.946,20.196 18.455,8.357 31.339,14.625 46.661,16.714 15.321,2.09 26.813,-4.526 32.384,-9.054 5.571,-4.526 15.67,-21.24 19.5,-25.419 0,0 -6.268,-3.482 -17.759,5.223 -11.491,8.706 -19.5,13.929 -33.429,12.187 -13.928,-1.741 -29.946,-4.875 -41.786,-10.097 -11.839,-5.224 -23.33,-12.188 -25.42,-13.581 -2.089,-1.393 -6.509,-4.178 -7.206,-3.134"
       style="fill:none;stroke:#231f20;stroke-width:0.5;stroke-linecap:butt;stroke-linejoin:miter;stroke-miterlimit:4;stroke-dasharray:none;stroke-opacity:1"
       id="path834" />
    <path
       d="m 428.622,630.812 c 1.409,-2.625 10.397,-3.158 17.013,5.199 6.616,8.357 17.411,29.25 26.465,36.563 9.053,7.312 33.08,21.589 37.259,25.419 4.179,3.831 10.446,7.312 9.054,11.143 -1.394,3.83 -8.358,3.83 -12.188,2.438 0,0 3.83,5.222 -3.482,6.616 -7.313,1.392 -28.554,0.696 -51.536,-9.75 -22.983,-10.447 -36.149,-15.67 -35.453,-20.545"
       style="fill:none;stroke:#231f20;stroke-width:0.5;stroke-linecap:butt;stroke-linejoin:miter;stroke-miterlimit:4;stroke-dasharray:none;stroke-opacity:1"
       id="path836" />
    <path
       d="m 506.225,711.574 c -13.929,-4.179 -43.527,-13.929 -55.018,-19.153 -11.492,-5.222 -18.108,-9.053 -22.286,-11.839 -4.178,-2.786 -10.795,-8.357 -11.839,-4.178"
       style="fill:none;stroke:#231f20;stroke-width:0.5;stroke-linecap:butt;stroke-linejoin:miter;stroke-miterlimit:4;stroke-dasharray:none;stroke-opacity:1"
       id="path838" />
    <path
       d="m 510.768,712.406 c 17.079,1.529 26.448,-4.315 29.234,-4.315 2.786,0 12.155,5.844 29.233,4.315"
       style="fill:none;stroke:#231f20;stroke-width:0.5;stroke-linecap:butt;stroke-linejoin:miter;stroke-miterlimit:4;stroke-dasharray:none;stroke-opacity:1"
       id="path840" />
    <path
       d="m 406.809,715.38 c -0.549,0.484 -2.091,0.44 -2.96,0.372 -5.571,-0.435 -13.754,-3.134 -18.803,-6.616 -8.906,-6.141 -16.018,-19.152 -20.545,-29.598 -4.527,-10.447 -14.625,-35.17 -15.321,-52.58 -0.697,-17.413 0,-34.126 3.482,-36.564 3.243,-2.269 6.322,-3.436 13.231,-3.394"
       style="fill:none;stroke:#231f20;stroke-width:0.5;stroke-linecap:butt;stroke-linejoin:miter;stroke-miterlimit:4;stroke-dasharray:none;stroke-opacity:1"
       id="path842" />
    <path
       d="m 352.662,590.394 c 1.045,-7.661 1.764,-16.619 0.102,-17.101"
       style="fill:none;stroke:#231f20;stroke-width:0.5;stroke-linecap:butt;stroke-linejoin:miter;stroke-miterlimit:4;stroke-dasharray:none;stroke-opacity:1"
       id="path844" />
    <path
       d="m 467.839,567.529 c 0,-0.623 0.501,-1.126 1.126,-1.126 0.623,0 1.127,0.503 1.127,1.126 0,0.623 -0.504,1.126 -1.127,1.126 -0.625,0 -1.126,-0.503 -1.126,-1.126"
       style="fill:#231f20;fill-opacity:1;fill-rule:nonzero;stroke:none;stroke-width:0.1"
       id="path846" />
    <path
       d="m 463.428,586.332 c 0,-0.623 0.501,-1.126 1.126,-1.126 0.623,0 1.127,0.503 1.127,1.126 0,0.624 -0.504,1.126 -1.127,1.126 -0.625,0 -1.126,-0.502 -1.126,-1.126"
       style="fill:#231f20;fill-opacity:1;fill-rule:nonzero;stroke:none;stroke-width:0.1"
       id="path848" />
    <path
       d="m 577.609,545.125 c -1.393,0 -7.261,-5.001 -7.32,-7.032"
       style="fill:none;stroke:#231f20;stroke-width:0.5;stroke-linecap:butt;stroke-linejoin:miter;stroke-miterlimit:4;stroke-dasharray:none;stroke-opacity:1"
       id="path850" />
    <path
       d="m 502.394,545.125 c 1.394,0 7.261,-5.001 7.321,-7.032"
       style="fill:none;stroke:#231f20;stroke-width:0.5;stroke-linecap:butt;stroke-linejoin:miter;stroke-miterlimit:4;stroke-dasharray:none;stroke-opacity:1"
       id="path852" />
    <path
       d="m 562.364,391.748 c 6.888,4.69 22.209,14.44 61.987,8.075"
       style="fill:none;stroke:#231f20;stroke-width:0.5;stroke-linecap:round;stroke-linejoin:round;stroke-miterlimit:4;stroke-dasharray:2.8, 1.8;stroke-dashoffset:0;stroke-opacity:1"
       id="path854" />
    <path
       d="m 576.055,412.742 c 5.733,-3.42 17.571,-7.25 51.349,6.678"
       style="fill:none;stroke:#231f20;stroke-width:0.5;stroke-linecap:round;stroke-linejoin:round;stroke-miterlimit:4;stroke-dasharray:2.8, 1.8;stroke-dashoffset:0;stroke-opacity:1"
       id="path856" />
    <path
       d="m 547.663,461.554 c 3.83,-6.964 13.612,-27.582 -0.681,-53.834"
       style="fill:none;stroke:#231f20;stroke-width:0.5;stroke-linecap:round;stroke-linejoin:round;stroke-miterlimit:4;stroke-dasharray:2.8, 1.8;stroke-dashoffset:0;stroke-opacity:1"
       id="path858" />
    <path
       d="m 581.397,466.073 c 6.658,-2.081 24.594,-0.449 36.519,21.369"
       style="fill:none;stroke:#231f20;stroke-width:0.5;stroke-linecap:round;stroke-linejoin:round;stroke-miterlimit:4;stroke-dasharray:2.8, 1.8;stroke-dashoffset:0;stroke-opacity:1"
       id="path860" />
    <path
       d="m 549.235,473.029 c 0.169,-4.859 1.909,-10.43 8.178,-9.037 6.267,1.392 8.068,6.287 7.312,14.973"
       style="fill:none;stroke:#231f20;stroke-width:0.5;stroke-linecap:round;stroke-linejoin:round;stroke-miterlimit:4;stroke-dasharray:2.8, 1.8;stroke-dashoffset:0;stroke-opacity:1"
       id="path862" />
    <path
       d="m 541.906,469.878 c -0.163,-3.796 -0.512,-10.761 3.667,-10.065 4.179,0.696 2.329,7.212 1.861,12.313"
       style="fill:none;stroke:#231f20;stroke-width:0.5;stroke-linecap:round;stroke-linejoin:round;stroke-miterlimit:4;stroke-dasharray:2.8, 1.8;stroke-dashoffset:0;stroke-opacity:1"
       id="path864" />
    <path
       d="m 668.493,521.004 c 1.654,-0.254 3.133,-11.744 2.089,-16.619 -1.044,-4.875 -5.141,-21.043 -12.187,-29.598 -4.875,-5.92 -18.804,1.045 -24.375,4.526 -5.572,3.482 -16.715,14.625 -20.545,19.5 -3.83,4.875 -5.979,7.326 -3.86,10.977 1.566,2.696 12.565,0.863 19.181,-0.53 6.617,-1.393 18.541,0.4 23.679,3.482 8.705,5.223 10.772,9.056 12.164,9.056"
       style="fill:none;stroke:#231f20;stroke-width:0.5;stroke-linecap:round;stroke-linejoin:round;stroke-miterlimit:4;stroke-dasharray:2.8, 1.8;stroke-dashoffset:0;stroke-opacity:1"
       id="path866" />
    <path
       d="m 659.902,476.799 c -3.248,-5.146 -6.034,-8.977 -3.944,-12.111 2.088,-3.134 8.705,-10.098 14.624,-7.312"
       style="fill:none;stroke:#231f20;stroke-width:0.5;stroke-linecap:round;stroke-linejoin:round;stroke-miterlimit:4;stroke-dasharray:2.8, 1.8;stroke-dashoffset:0;stroke-opacity:1"
       id="path868" />
    <path
       d="m 734.061,568.435 c -3.934,0.718 -12.64,-2.416 -14.032,-6.943 -1.393,-4.527 -2.438,-16.018 -3.134,-20.197 -0.696,-4.178 -0.88,-10.359 6.218,-11.677"
       style="fill:none;stroke:#231f20;stroke-width:0.5;stroke-linecap:round;stroke-linejoin:round;stroke-miterlimit:4;stroke-dasharray:2.8, 1.8;stroke-dashoffset:0;stroke-opacity:1"
       id="path870" />
    <path
       d="m 684.859,524.929 c -5.596,-2.014 -20.39,-9.013 -26.116,2.438 -2.785,5.571 -3.83,22.982 -3.83,26.465 0,3.482 2.786,8.357 8.357,8.008 5.571,-0.348 17.759,-1.045 22.982,-0.696 5.223,0.348 17.062,3.83 20.893,6.268 3.83,2.437 11.839,6.964 16.018,6.616 4.178,-0.349 8.716,-2.16 11.322,-3.518"
       style="fill:none;stroke:#231f20;stroke-width:0.5;stroke-linecap:round;stroke-linejoin:round;stroke-miterlimit:4;stroke-dasharray:2.8, 1.8;stroke-dashoffset:0;stroke-opacity:1"
       id="path872" />
    <path
       d="m 550.679,632.278 c 6.037,3.385 25.882,20.976 25.013,33.944"
       style="fill:none;stroke:#231f20;stroke-width:0.5;stroke-linecap:round;stroke-linejoin:round;stroke-miterlimit:4;stroke-dasharray:2.8, 1.8;stroke-dashoffset:0;stroke-opacity:1"
       id="path874" />
    <path
       d="m 557.094,621.332 c 8.675,0.053 36.658,2.708 50.35,25.583"
       style="fill:none;stroke:#231f20;stroke-width:0.5;stroke-linecap:round;stroke-linejoin:round;stroke-miterlimit:4;stroke-dasharray:2.8, 1.8;stroke-dashoffset:0;stroke-opacity:1"
       id="path876" />
    <path
       d="m 553.539,607.25 c 9.793,-2.231 35.561,-7.802 40.436,-8.499 4.875,-0.697 11.272,-2.587 15.502,-1.325"
       style="fill:none;stroke:#231f20;stroke-width:0.5;stroke-linecap:round;stroke-linejoin:round;stroke-miterlimit:4;stroke-dasharray:2.8, 1.8;stroke-dashoffset:0;stroke-opacity:1"
       id="path878" />
    <path
       d="m 555.957,587.834 c 3.299,-2.584 3.545,-4.405 0.411,-9.627 -3.134,-5.224 -7.661,-15.322 -4.875,-19.153 2.786,-3.83 13.368,-15.675 14.064,-20.898"
       style="fill:none;stroke:#231f20;stroke-width:0.5;stroke-linecap:round;stroke-linejoin:round;stroke-miterlimit:4;stroke-dasharray:2.8, 1.8;stroke-dashoffset:0;stroke-opacity:1"
       id="path880" />
    <path
       d="m 571.696,526.932 c 2.779,-3.395 5.913,-5.833 13.922,-6.182 8.008,-0.347 12.536,2.697 12.536,8.707 0,4.875 -5.572,7.66 -8.009,9.75 -2.437,2.088 -11.143,5.918 -12.536,5.918"
       style="fill:none;stroke:#231f20;stroke-width:0.5;stroke-linecap:round;stroke-linejoin:round;stroke-miterlimit:4;stroke-dasharray:2.8, 1.8;stroke-dashoffset:0;stroke-opacity:1"
       id="path882" />
    <path
       d="m 542.81,715.734 c 1.449,1.953 2.066,7.331 1.37,12.554 -0.696,5.223 -2.437,11.491 1.741,16.714 4.179,5.223 21.938,18.107 41.787,18.803 19.847,0.697 41.785,-4.875 57.455,-14.276 15.669,-9.402 21.241,-14.625 21.937,-21.241 0.696,-6.617 -0.803,-7.121 -3.187,-8.087"
       style="fill:none;stroke:#231f20;stroke-width:0.5;stroke-linecap:round;stroke-linejoin:round;stroke-miterlimit:4;stroke-dasharray:2.8, 1.8;stroke-dashoffset:0;stroke-opacity:1"
       id="path884" />
    <path
       d="m 714.111,587 c -2.702,0.016 -5.989,0.216 -10.1,0.608 -14.625,1.393 -25.768,2.786 -33.777,11.143 -8.009,8.357 -15.582,20.861 -17.367,35.502"
       style="fill:none;stroke:#231f20;stroke-width:0.5;stroke-linecap:round;stroke-linejoin:round;stroke-miterlimit:4;stroke-dasharray:2.8, 1.8;stroke-dashoffset:0;stroke-opacity:1"
       id="path886" />
    <path
       d="m 714.111,587 c 2.444,5.832 3.48,11.054 3.132,21.501 -0.348,10.447 -2.089,35.17 -7.313,51.537 -5.222,16.366 -14.708,34.264 -21.589,40.044 -8.705,7.313 -13.6,9.363 -14.973,10.098 -1.549,0.831 -2.122,3.143 -0.174,5.2"
       style="fill:none;stroke:#231f20;stroke-width:0.5;stroke-linecap:round;stroke-linejoin:round;stroke-miterlimit:4;stroke-dasharray:2.8, 1.8;stroke-dashoffset:0;stroke-opacity:1"
       id="path888" />
    <path
       d="m 671.626,811.046 c 0,0 -71.384,5.974 -107.101,-5.133"
       style="fill:none;stroke:#231f20;stroke-width:0.5;stroke-linecap:round;stroke-linejoin:round;stroke-miterlimit:4;stroke-dasharray:2.8, 1.8;stroke-dashoffset:0;stroke-opacity:1"
       id="path890" />
    <path
       d="m 598.238,781.701 73.388,29.345"
       style="fill:none;stroke:#231f20;stroke-width:0.5;stroke-linecap:round;stroke-linejoin:round;stroke-miterlimit:4;stroke-dasharray:2.8, 1.8;stroke-dashoffset:0;stroke-opacity:1"
       id="path892" />
    <path
       d="m 677.522,811.001 3.507,85.909"
       style="fill:none;stroke:#231f20;stroke-width:0.5;stroke-linecap:round;stroke-linejoin:round;stroke-miterlimit:4;stroke-dasharray:2.8, 1.8;stroke-dashoffset:0;stroke-opacity:1"
       id="path894" />
    <path
       d="m 582.864,873.1 94.658,-62.099"
       style="fill:none;stroke:#231f20;stroke-width:0.5;stroke-linecap:round;stroke-linejoin:round;stroke-miterlimit:4;stroke-dasharray:2.8, 1.8;stroke-dashoffset:0;stroke-opacity:1"
       id="path896" />
    <path
       d="m 631.898,892.113 45.624,-81.112"
       style="fill:none;stroke:#231f20;stroke-width:0.5;stroke-linecap:round;stroke-linejoin:round;stroke-miterlimit:4;stroke-dasharray:2.8, 1.8;stroke-dashoffset:0;stroke-opacity:1"
       id="path898" />
    <path
       d="M 767.668,878.371 739.877,789.225"
       style="fill:none;stroke:#231f20;stroke-width:0.5;stroke-linecap:round;stroke-linejoin:round;stroke-miterlimit:4;stroke-dasharray:2.8, 1.8;stroke-dashoffset:0;stroke-opacity:1"
       id="path900" />
    <path
       d="M 841.556,841.109 786.77,760.904"
       style="fill:none;stroke:#231f20;stroke-width:0.5;stroke-linecap:round;stroke-linejoin:round;stroke-miterlimit:4;stroke-dasharray:2.8, 1.8;stroke-dashoffset:0;stroke-opacity:1"
       id="path902" />
    <path
       d="m 838.334,708.981 81.733,56.093"
       style="fill:none;stroke:#231f20;stroke-width:0.5;stroke-linecap:round;stroke-linejoin:round;stroke-miterlimit:4;stroke-dasharray:2.8, 1.8;stroke-dashoffset:0;stroke-opacity:1"
       id="path904" />
    <path
       d="m 865.94,650.987 90.442,3.199"
       style="fill:none;stroke:#231f20;stroke-width:0.5;stroke-linecap:round;stroke-linejoin:round;stroke-miterlimit:4;stroke-dasharray:2.8, 1.8;stroke-dashoffset:0;stroke-opacity:1"
       id="path906" />
    <path
       d="m 867.437,604.012 c 0,0 23.217,-5.958 32.271,-9.092 9.053,-3.133 40.418,-12.212 40.418,-12.212"
       style="fill:none;stroke:#231f20;stroke-width:0.5;stroke-linecap:round;stroke-linejoin:round;stroke-miterlimit:4;stroke-dasharray:2.8, 1.8;stroke-dashoffset:0;stroke-opacity:1"
       id="path908" />
    <path
       d="M 862.846,583.836 937.79,546.485"
       style="fill:none;stroke:#231f20;stroke-width:0.5;stroke-linecap:round;stroke-linejoin:round;stroke-miterlimit:4;stroke-dasharray:2.8, 1.8;stroke-dashoffset:0;stroke-opacity:1"
       id="path910" />
    <path
       d="m 776.44,552.438 c 4.21,1.297 8.356,-1.393 9.75,-2.438 1.392,-1.043 4.526,-2.088 4.179,-10.446 -0.285,-6.833 -1.045,-23.679 7.66,-35.866 8.705,-12.188 24.375,-15.321 30.642,-16.714 6.269,-1.392 11.144,-2.786 11.84,-7.661 0.697,-4.875 -3.482,-12.187 -14.973,-13.58 -11.492,-1.393 -34.822,4.179 -43.875,17.062 -9.054,12.884 -12.884,31.688 -12.188,47.358 0.696,15.67 2.438,20.892 6.965,22.285 z"
       style="fill:none;stroke:#231f20;stroke-width:0.5;stroke-linecap:round;stroke-linejoin:round;stroke-miterlimit:4;stroke-dasharray:2.8, 1.8;stroke-dashoffset:0;stroke-opacity:1"
       id="path912" />
    <path
       d="m 738.491,538.51 88.95,32.879"
       style="fill:none;stroke:#231f20;stroke-width:0.5;stroke-linecap:round;stroke-linejoin:round;stroke-miterlimit:4;stroke-dasharray:2.8, 1.8;stroke-dashoffset:0;stroke-opacity:1"
       id="path914" />
    <path
       d="M 832.69,542.74 788.808,437.098"
       style="fill:none;stroke:#231f20;stroke-width:0.5;stroke-linecap:round;stroke-linejoin:round;stroke-miterlimit:4;stroke-dasharray:2.8, 1.8;stroke-dashoffset:0;stroke-opacity:1"
       id="path916" />
    <path
       d="m 765.993,653.77 c 2.772,0.277 5.223,-2.09 8.009,-13.929 2.786,-11.84 6.616,-28.902 6.616,-43.179 0,-14.277 -1.044,-39.348 -14.625,-39.348 -13.58,0 -16.018,17.41 -16.714,29.25 -0.697,11.839 3.482,40.045 4.875,46.661 1.392,6.616 4.875,19.849 11.839,20.545 z"
       style="fill:none;stroke:#231f20;stroke-width:0.5;stroke-linecap:round;stroke-linejoin:round;stroke-miterlimit:4;stroke-dasharray:2.8, 1.8;stroke-dashoffset:0;stroke-opacity:1"
       id="path918" />
    <path
       d="m 671.626,759.627 32.685,27.783"
       style="fill:none;stroke:#231f20;stroke-width:0.5;stroke-linecap:round;stroke-linejoin:round;stroke-miterlimit:4;stroke-dasharray:2.8, 1.8;stroke-dashoffset:0;stroke-opacity:1"
       id="path920" />
    <path
       d="m 521.942,389.365 c 5.532,-2.906 14.229,-2.328 18.06,-2.328 3.83,0 12.527,-0.578 18.059,2.328"
       style="fill:none;stroke:#231f20;stroke-width:0.5;stroke-linecap:round;stroke-linejoin:round;stroke-miterlimit:4;stroke-dasharray:2.8, 1.8;stroke-dashoffset:0;stroke-opacity:1"
       id="path922" />
    <path
       d="m 517.64,391.748 c -6.889,4.69 -22.21,14.44 -61.988,8.075"
       style="fill:none;stroke:#231f20;stroke-width:0.5;stroke-linecap:round;stroke-linejoin:round;stroke-miterlimit:4;stroke-dasharray:2.8, 1.8;stroke-dashoffset:0;stroke-opacity:1"
       id="path924" />
    <path
       d="m 503.948,412.742 c -5.733,-3.42 -17.572,-7.25 -51.348,6.678"
       style="fill:none;stroke:#231f20;stroke-width:0.5;stroke-linecap:round;stroke-linejoin:round;stroke-miterlimit:4;stroke-dasharray:2.8, 1.8;stroke-dashoffset:0;stroke-opacity:1"
       id="path926" />
    <path
       d="m 532.341,461.554 c -3.831,-6.964 -13.613,-27.582 0.68,-53.834"
       style="fill:none;stroke:#231f20;stroke-width:0.5;stroke-linecap:round;stroke-linejoin:round;stroke-miterlimit:4;stroke-dasharray:2.8, 1.8;stroke-dashoffset:0;stroke-opacity:1"
       id="path928" />
    <path
       d="m 498.606,466.073 c -6.658,-2.081 -24.594,-0.449 -36.519,21.369"
       style="fill:none;stroke:#231f20;stroke-width:0.5;stroke-linecap:round;stroke-linejoin:round;stroke-miterlimit:4;stroke-dasharray:2.8, 1.8;stroke-dashoffset:0;stroke-opacity:1"
       id="path930" />
    <path
       d="m 530.769,473.029 c -0.169,-4.859 -1.91,-10.43 -8.178,-9.037 -6.268,1.392 -8.069,6.287 -7.312,14.973"
       style="fill:none;stroke:#231f20;stroke-width:0.5;stroke-linecap:round;stroke-linejoin:round;stroke-miterlimit:4;stroke-dasharray:2.8, 1.8;stroke-dashoffset:0;stroke-opacity:1"
       id="path932" />
    <path
       d="m 538.096,469.878 c 0.164,-3.796 0.513,-10.761 -3.666,-10.065 -4.178,0.696 -2.329,7.212 -1.86,12.313"
       style="fill:none;stroke:#231f20;stroke-width:0.5;stroke-linecap:round;stroke-linejoin:round;stroke-miterlimit:4;stroke-dasharray:2.8, 1.8;stroke-dashoffset:0;stroke-opacity:1"
       id="path934" />
    <path
       d="m 411.51,521.004 c -1.654,-0.254 -3.134,-11.744 -2.089,-16.619 1.044,-4.875 5.142,-21.043 12.188,-29.598 4.875,-5.92 18.804,1.045 24.375,4.526 5.571,3.482 16.714,14.625 20.544,19.5 3.831,4.875 5.979,7.326 3.86,10.977 -1.566,2.696 -12.565,0.863 -19.181,-0.53 -6.617,-1.393 -18.541,0.4 -23.679,3.482 -8.705,5.223 -10.772,9.056 -12.164,9.056"
       style="fill:none;stroke:#231f20;stroke-width:0.5;stroke-linecap:round;stroke-linejoin:round;stroke-miterlimit:4;stroke-dasharray:2.8, 1.8;stroke-dashoffset:0;stroke-opacity:1"
       id="path936" />
    <path
       d="m 420.101,476.799 c 3.248,-5.146 6.034,-8.977 3.945,-12.111 -2.089,-3.134 -8.706,-10.098 -14.625,-7.312"
       style="fill:none;stroke:#231f20;stroke-width:0.5;stroke-linecap:round;stroke-linejoin:round;stroke-miterlimit:4;stroke-dasharray:2.8, 1.8;stroke-dashoffset:0;stroke-opacity:1"
       id="path938" />
    <path
       d="m 345.943,568.435 c 3.933,0.718 12.639,-2.416 14.031,-6.943 1.394,-4.527 2.438,-16.018 3.134,-20.197 0.697,-4.178 0.881,-10.359 -6.217,-11.677"
       style="fill:none;stroke:#231f20;stroke-width:0.5;stroke-linecap:round;stroke-linejoin:round;stroke-miterlimit:4;stroke-dasharray:2.8, 1.8;stroke-dashoffset:0;stroke-opacity:1"
       id="path940" />
    <path
       d="m 395.144,524.929 c 5.596,-2.014 20.39,-9.013 26.116,2.438 2.786,5.571 3.83,22.982 3.83,26.465 0,3.482 -2.785,8.357 -8.356,8.008 -5.572,-0.348 -17.76,-1.045 -22.983,-0.696 -5.223,0.348 -17.062,3.83 -20.892,6.268 -3.831,2.437 -11.84,6.964 -16.019,6.616 -4.178,-0.349 -8.715,-2.16 -11.322,-3.518"
       style="fill:none;stroke:#231f20;stroke-width:0.5;stroke-linecap:round;stroke-linejoin:round;stroke-miterlimit:4;stroke-dasharray:2.8, 1.8;stroke-dashoffset:0;stroke-opacity:1"
       id="path942" />
    <path
       d="m 529.323,632.278 c -6.035,3.385 -25.881,20.976 -25.012,33.944"
       style="fill:none;stroke:#231f20;stroke-width:0.5;stroke-linecap:round;stroke-linejoin:round;stroke-miterlimit:4;stroke-dasharray:2.8, 1.8;stroke-dashoffset:0;stroke-opacity:1"
       id="path944" />
    <path
       d="m 522.909,621.332 c -8.675,0.053 -36.658,2.708 -50.35,25.583"
       style="fill:none;stroke:#231f20;stroke-width:0.5;stroke-linecap:round;stroke-linejoin:round;stroke-miterlimit:4;stroke-dasharray:2.8, 1.8;stroke-dashoffset:0;stroke-opacity:1"
       id="path946" />
    <path
       d="m 526.464,607.25 c -9.793,-2.231 -35.561,-7.802 -40.436,-8.499 -4.875,-0.697 -11.272,-2.587 -15.502,-1.325"
       style="fill:none;stroke:#231f20;stroke-width:0.5;stroke-linecap:round;stroke-linejoin:round;stroke-miterlimit:4;stroke-dasharray:2.8, 1.8;stroke-dashoffset:0;stroke-opacity:1"
       id="path948" />
    <path
       d="m 486.649,556.501 c 4.799,2.67 12.264,7.428 21.316,13.697 9.054,6.267 8.706,9.053 12.189,14.276 3.481,5.224 11.839,5.92 19.848,5.92 8.008,0 16.366,-0.696 19.848,-5.92 3.482,-5.223 3.134,-8.009 12.188,-14.276 9.053,-6.269 16.518,-11.027 21.317,-13.697"
       style="fill:none;stroke:#231f20;stroke-width:0.5;stroke-linecap:round;stroke-linejoin:round;stroke-miterlimit:4;stroke-dasharray:2.8, 1.8;stroke-dashoffset:0;stroke-opacity:1"
       id="path950" />
    <path
       d="m 524.047,587.834 c -3.3,-2.584 -3.546,-4.405 -0.412,-9.627 3.134,-5.224 7.661,-15.322 4.875,-19.153 -2.785,-3.83 -13.368,-15.675 -14.065,-20.898"
       style="fill:none;stroke:#231f20;stroke-width:0.5;stroke-linecap:round;stroke-linejoin:round;stroke-miterlimit:4;stroke-dasharray:2.8, 1.8;stroke-dashoffset:0;stroke-opacity:1"
       id="path952" />
    <path
       d="m 493.074,552.066 c 5.653,5.547 24.99,7.337 29.517,7.685 4.527,0.348 12.884,-2.437 17.411,-2.437 4.527,0 12.883,2.785 17.411,2.437 4.526,-0.348 23.863,-2.138 29.516,-7.685"
       style="fill:none;stroke:#231f20;stroke-width:0.5;stroke-linecap:round;stroke-linejoin:round;stroke-miterlimit:4;stroke-dasharray:2.8, 1.8;stroke-dashoffset:0;stroke-opacity:1"
       id="path954" />
    <path
       d="m 533.038,512.045 c 1.392,-3.133 4.875,-3.133 6.964,-3.133 2.089,0 5.571,0 6.964,3.133"
       style="fill:none;stroke:#231f20;stroke-width:0.5;stroke-linecap:round;stroke-linejoin:round;stroke-miterlimit:4;stroke-dasharray:2.8, 1.8;stroke-dashoffset:0;stroke-opacity:1"
       id="path956" />
    <path
       d="m 508.307,526.932 c -2.779,-3.395 -5.913,-5.833 -13.922,-6.182 -8.009,-0.347 -12.535,2.697 -12.535,8.707 0,4.875 5.571,7.66 8.009,9.75 2.437,2.088 11.142,5.918 12.535,5.918"
       style="fill:none;stroke:#231f20;stroke-width:0.5;stroke-linecap:round;stroke-linejoin:round;stroke-miterlimit:4;stroke-dasharray:2.8, 1.8;stroke-dashoffset:0;stroke-opacity:1"
       id="path958" />
    <path
       d="m 537.193,715.734 c -1.449,1.953 -2.067,7.331 -1.37,12.554 0.696,5.223 2.437,11.491 -1.741,16.714 -4.178,5.223 -21.938,18.107 -41.786,18.803 -19.848,0.697 -41.786,-4.875 -57.456,-14.276 -15.669,-9.402 -21.241,-14.625 -21.937,-21.241 -0.696,-6.617 0.803,-7.121 3.187,-8.087"
       style="fill:none;stroke:#231f20;stroke-width:0.5;stroke-linecap:round;stroke-linejoin:round;stroke-miterlimit:4;stroke-dasharray:2.8, 1.8;stroke-dashoffset:0;stroke-opacity:1"
       id="path960" />
    <path
       d="m 365.893,587 c 2.701,0.016 5.988,0.216 10.1,0.608 14.625,1.393 25.767,2.786 33.776,11.143 8.009,8.357 15.583,20.861 17.367,35.502"
       style="fill:none;stroke:#231f20;stroke-width:0.5;stroke-linecap:round;stroke-linejoin:round;stroke-miterlimit:4;stroke-dasharray:2.8, 1.8;stroke-dashoffset:0;stroke-opacity:1"
       id="path962" />
    <path
       d="m 365.893,587 c -2.444,5.832 -3.481,11.054 -3.133,21.501 0.348,10.447 2.089,35.17 7.313,51.537 5.223,16.366 14.708,34.264 21.589,40.044 8.706,7.313 13.601,9.363 14.973,10.098 1.549,0.831 2.122,3.143 0.174,5.2"
       style="fill:none;stroke:#231f20;stroke-width:0.5;stroke-linecap:round;stroke-linejoin:round;stroke-miterlimit:4;stroke-dasharray:2.8, 1.8;stroke-dashoffset:0;stroke-opacity:1"
       id="path964" />
    <path
       d="m 723.03,529.383 c -6.048,2.511 -11.33,2.187 -21.456,0.77 -8.454,-1.181 -12.885,-3.134 -16.715,-5.224"
       style="fill:none;stroke:#231f20;stroke-width:0.5;stroke-linecap:round;stroke-linejoin:round;stroke-miterlimit:4;stroke-dasharray:2.8, 1.8;stroke-dashoffset:0;stroke-opacity:1"
       id="path966" />
    <path
       d="m 356.974,529.383 c 6.047,2.511 11.329,2.187 21.456,0.77 8.453,-1.181 12.884,-3.134 16.714,-5.224"
       style="fill:none;stroke:#231f20;stroke-width:0.5;stroke-linecap:round;stroke-linejoin:round;stroke-miterlimit:4;stroke-dasharray:2.8, 1.8;stroke-dashoffset:0;stroke-opacity:1"
       id="path968" />
    <path
       d="m 848.292,596.017 c 2.376,11.439 3.693,24.418 2.55,34.422 -1.857,16.25 -7.429,24.607 -12.072,24.607 -1.751,0 -3.324,-0.122 -5.579,-3.223 -2.256,-3.102 -2.779,-8.383 -2.315,-21.384 0.466,-13 4.411,-28.699 6.038,-33.429 1.856,-5.396 8.124,-9.923 11.378,-0.993 z"
       style="fill:none;stroke:#231f20;stroke-width:0.5;stroke-linecap:round;stroke-linejoin:round;stroke-miterlimit:4;stroke-dasharray:2.8, 1.8;stroke-dashoffset:0;stroke-opacity:1"
       id="path970" />
    <path
       d="m 738.955,627.267 48.406,52.691"
       style="fill:none;stroke:#231f20;stroke-width:0.5;stroke-linecap:round;stroke-linejoin:round;stroke-miterlimit:4;stroke-dasharray:2.8, 1.8;stroke-dashoffset:0;stroke-opacity:1"
       id="path972" />
    <path
       d="m 838.46,541.624 9.264,-101.248"
       style="fill:none;stroke:#231f20;stroke-width:0.5;stroke-linecap:round;stroke-linejoin:round;stroke-miterlimit:4;stroke-dasharray:2.8, 1.8;stroke-dashoffset:0;stroke-opacity:1"
       id="path974" />
    <path
       d="m 846.051,546.69 47.011,-75.164"
       style="fill:none;stroke:#231f20;stroke-width:0.5;stroke-linecap:round;stroke-linejoin:round;stroke-miterlimit:4;stroke-dasharray:2.8, 1.8;stroke-dashoffset:0;stroke-opacity:1"
       id="path976" />
    <path
       d="m 408.376,811.046 c 0,0 71.386,5.974 107.102,-5.133"
       style="fill:none;stroke:#231f20;stroke-width:0.5;stroke-linecap:round;stroke-linejoin:round;stroke-miterlimit:4;stroke-dasharray:2.8, 1.8;stroke-dashoffset:0;stroke-opacity:1"
       id="path978" />
    <path
       d="m 481.765,781.701 -73.389,29.345"
       style="fill:none;stroke:#231f20;stroke-width:0.5;stroke-linecap:round;stroke-linejoin:round;stroke-miterlimit:4;stroke-dasharray:2.8, 1.8;stroke-dashoffset:0;stroke-opacity:1"
       id="path980" />
    <path
       d="m 402.481,811.001 -3.507,85.909"
       style="fill:none;stroke:#231f20;stroke-width:0.5;stroke-linecap:round;stroke-linejoin:round;stroke-miterlimit:4;stroke-dasharray:2.8, 1.8;stroke-dashoffset:0;stroke-opacity:1"
       id="path982" />
    <path
       d="M 497.14,873.1 402.481,811.001"
       style="fill:none;stroke:#231f20;stroke-width:0.5;stroke-linecap:round;stroke-linejoin:round;stroke-miterlimit:4;stroke-dasharray:2.8, 1.8;stroke-dashoffset:0;stroke-opacity:1"
       id="path984" />
    <path
       d="M 448.106,892.113 402.481,811.001"
       style="fill:none;stroke:#231f20;stroke-width:0.5;stroke-linecap:round;stroke-linejoin:round;stroke-miterlimit:4;stroke-dasharray:2.8, 1.8;stroke-dashoffset:0;stroke-opacity:1"
       id="path986" />
    <path
       d="m 312.335,878.371 27.791,-89.146"
       style="fill:none;stroke:#231f20;stroke-width:0.5;stroke-linecap:round;stroke-linejoin:round;stroke-miterlimit:4;stroke-dasharray:2.8, 1.8;stroke-dashoffset:0;stroke-opacity:1"
       id="path988" />
    <path
       d="m 238.448,841.109 54.785,-80.205"
       style="fill:none;stroke:#231f20;stroke-width:0.5;stroke-linecap:round;stroke-linejoin:round;stroke-miterlimit:4;stroke-dasharray:2.8, 1.8;stroke-dashoffset:0;stroke-opacity:1"
       id="path990" />
    <path
       d="m 241.669,708.981 -81.733,56.093"
       style="fill:none;stroke:#231f20;stroke-width:0.5;stroke-linecap:round;stroke-linejoin:round;stroke-miterlimit:4;stroke-dasharray:2.8, 1.8;stroke-dashoffset:0;stroke-opacity:1"
       id="path992" />
    <path
       d="m 214.063,650.987 -90.442,3.199"
       style="fill:none;stroke:#231f20;stroke-width:0.5;stroke-linecap:round;stroke-linejoin:round;stroke-miterlimit:4;stroke-dasharray:2.8, 1.8;stroke-dashoffset:0;stroke-opacity:1"
       id="path994" />
    <path
       d="m 212.567,604.012 c 0,0 -23.218,-5.958 -32.272,-9.092 -9.053,-3.133 -40.419,-12.212 -40.419,-12.212"
       style="fill:none;stroke:#231f20;stroke-width:0.5;stroke-linecap:round;stroke-linejoin:round;stroke-miterlimit:4;stroke-dasharray:2.8, 1.8;stroke-dashoffset:0;stroke-opacity:1"
       id="path996" />
    <path
       d="M 217.158,583.836 142.213,546.485"
       style="fill:none;stroke:#231f20;stroke-width:0.5;stroke-linecap:round;stroke-linejoin:round;stroke-miterlimit:4;stroke-dasharray:2.8, 1.8;stroke-dashoffset:0;stroke-opacity:1"
       id="path998" />
    <path
       d="m 303.564,552.438 c -4.21,1.297 -8.357,-1.393 -9.75,-2.438 -1.394,-1.043 -4.527,-2.088 -4.179,-10.446 0.284,-6.833 1.044,-23.679 -7.661,-35.866 -8.705,-12.188 -24.375,-15.321 -30.642,-16.714 -6.268,-1.392 -11.143,-2.786 -11.84,-7.661 -0.697,-4.875 3.482,-12.187 14.973,-13.58 11.492,-1.393 34.822,4.179 43.875,17.062 9.054,12.884 12.884,31.688 12.188,47.358 -0.696,15.67 -2.438,20.892 -6.964,22.285 z"
       style="fill:none;stroke:#231f20;stroke-width:0.5;stroke-linecap:round;stroke-linejoin:round;stroke-miterlimit:4;stroke-dasharray:2.8, 1.8;stroke-dashoffset:0;stroke-opacity:1"
       id="path1000" />
    <path
       d="m 341.512,538.51 -88.95,32.879"
       style="fill:none;stroke:#231f20;stroke-width:0.5;stroke-linecap:round;stroke-linejoin:round;stroke-miterlimit:4;stroke-dasharray:2.8, 1.8;stroke-dashoffset:0;stroke-opacity:1"
       id="path1002" />
    <path
       d="M 247.313,542.74 291.195,437.098"
       style="fill:none;stroke:#231f20;stroke-width:0.5;stroke-linecap:round;stroke-linejoin:round;stroke-miterlimit:4;stroke-dasharray:2.8, 1.8;stroke-dashoffset:0;stroke-opacity:1"
       id="path1004" />
    <path
       d="m 314.01,653.77 c -2.772,0.277 -5.223,-2.09 -8.009,-13.929 -2.786,-11.84 -6.616,-28.902 -6.616,-43.179 0,-14.277 1.044,-39.348 14.625,-39.348 13.58,0 16.018,17.41 16.714,29.25 0.696,11.839 -3.481,40.045 -4.875,46.661 -1.392,6.616 -4.875,19.849 -11.839,20.545 z"
       style="fill:none;stroke:#231f20;stroke-width:0.5;stroke-linecap:round;stroke-linejoin:round;stroke-miterlimit:4;stroke-dasharray:2.8, 1.8;stroke-dashoffset:0;stroke-opacity:1"
       id="path1006" />
    <path
       d="M 408.376,759.627 375.692,787.41"
       style="fill:none;stroke:#231f20;stroke-width:0.5;stroke-linecap:round;stroke-linejoin:round;stroke-miterlimit:4;stroke-dasharray:2.8, 1.8;stroke-dashoffset:0;stroke-opacity:1"
       id="path1008" />
    <path
       d="m 231.711,596.017 c -2.376,11.439 -3.692,24.418 -2.549,34.422 1.856,16.25 7.428,24.607 12.071,24.607 1.751,0 3.324,-0.122 5.58,-3.223 2.255,-3.102 2.778,-8.383 2.313,-21.384 -0.464,-13 -4.41,-28.699 -6.037,-33.429 -1.856,-5.396 -8.124,-9.923 -11.378,-0.993 z"
       style="fill:none;stroke:#231f20;stroke-width:0.5;stroke-linecap:round;stroke-linejoin:round;stroke-miterlimit:4;stroke-dasharray:2.8, 1.8;stroke-dashoffset:0;stroke-opacity:1"
       id="path1010" />
    <path
       d="m 341.048,627.267 -48.406,52.691"
       style="fill:none;stroke:#231f20;stroke-width:0.5;stroke-linecap:round;stroke-linejoin:round;stroke-miterlimit:4;stroke-dasharray:2.8, 1.8;stroke-dashoffset:0;stroke-opacity:1"
       id="path1012" />
    <path
       d="M 241.543,541.624 232.279,440.376"
       style="fill:none;stroke:#231f20;stroke-width:0.5;stroke-linecap:round;stroke-linejoin:round;stroke-miterlimit:4;stroke-dasharray:2.8, 1.8;stroke-dashoffset:0;stroke-opacity:1"
       id="path1014" />
    <path
       d="m 233.952,546.69 -47.01,-75.164"
       style="fill:none;stroke:#231f20;stroke-width:0.5;stroke-linecap:round;stroke-linejoin:round;stroke-miterlimit:4;stroke-dasharray:2.8, 1.8;stroke-dashoffset:0;stroke-opacity:1"
       id="path1016" />
  </g>
</svg>
