<?xml version="1.0" encoding="UTF-8" standalone="no"?>
<!-- Created with Inkscape (http://www.inkscape.org/) -->

<svg
   version="1.1"
   id="svg2"
   width="1440"
   height="1344"
   viewBox="0 0 1440 1344"
   xmlns="http://www.w3.org/2000/svg"
   xmlns:svg="http://www.w3.org/2000/svg">
  <defs
     id="defs6" />
  <g
     id="g8">
    <path
       d="m 740.921,611.635 c 0.349,10.099 -6.616,51.536 -8.356,56.76 -1.741,5.223 -8.01,21.241 -19.152,39.348 0,0 -7.313,19.152 -12.188,27.857 -4.875,8.705 -13.232,22.286 -14.276,23.33 -1.045,1.045 -15.67,4.528 -23.331,5.92 -7.66,1.393 -38.652,8.358 -49.795,12.536 -11.143,4.179 -17.063,6.268 -25.071,16.018 -8.009,9.75 -22.983,25.42 -26.813,42.134 -3.83,16.714 17.411,30.294 30.643,35.17 13.232,4.874 18.456,7.661 20.893,8.008 2.438,0.349 11.491,1.742 14.973,3.134 3.482,1.394 7.661,5.92 14.277,8.01 6.616,2.089 32.036,7.312 45.268,5.571 13.232,-1.741 50.491,-9.054 86.009,-22.286 35.518,-13.232 72.777,-33.429 104.464,-63.026 31.688,-29.599 61.635,-77.304 72.778,-129.189 11.119,-51.776 -1.252,-83.846 -2.786,-88.447 -3.482,-10.446 -10.292,-7.237 -12.884,-14.276 -2.438,-6.617 0.696,-14.278 -1.045,-22.287 -1.74,-8.008 -15.321,-66.16 -41.785,-85.661 -26.465,-19.5 -52.581,-27.856 -83.92,-16.714 -31.34,11.143 -49.795,38.653 -56.411,60.938 -6.617,22.286 -5.572,29.946 -4.527,32.732 1.044,2.785 1.044,6.964 -2.437,15.67 -3.483,8.705 -4.875,18.107 -4.528,29.947 0.349,11.838 0,18.803 0,18.803"
       style="fill:#ffffff;fill-opacity:1;fill-rule:nonzero;stroke:none;stroke-width:0.1"
       id="path672" />
    <path
       d="m 740.921,611.635 c 0.349,10.099 -6.616,51.536 -8.356,56.76 -1.741,5.223 -8.01,21.241 -19.152,39.348 0,0 -7.313,19.152 -12.188,27.857 -4.875,8.705 -13.232,22.286 -14.276,23.33 -1.045,1.045 -15.67,4.528 -23.331,5.92 -7.66,1.393 -38.652,8.358 -49.795,12.536 -11.143,4.179 -17.063,6.268 -25.071,16.018 -8.009,9.75 -22.983,25.42 -26.813,42.134 -3.83,16.714 17.411,30.294 30.643,35.17 13.232,4.874 18.456,7.661 20.893,8.008 2.438,0.349 11.491,1.742 14.973,3.134 3.482,1.394 7.661,5.92 14.277,8.01 6.616,2.089 32.036,7.312 45.268,5.571 13.232,-1.741 50.491,-9.054 86.009,-22.286 35.518,-13.232 72.777,-33.429 104.464,-63.026 31.688,-29.599 61.635,-77.304 72.778,-129.189 11.119,-51.776 -1.252,-83.846 -2.786,-88.447 -3.482,-10.446 -10.292,-7.237 -12.884,-14.276 -2.438,-6.617 0.696,-14.278 -1.045,-22.287 -1.74,-8.008 -15.321,-66.16 -41.785,-85.661 -26.465,-19.5 -52.581,-27.856 -83.92,-16.714 -31.34,11.143 -49.795,38.653 -56.411,60.938 -6.617,22.286 -5.572,29.946 -4.527,32.732 1.044,2.785 1.044,6.964 -2.437,15.67 -3.483,8.705 -4.875,18.107 -4.528,29.947 0.349,11.838 0,18.803 0,18.803 z"
       style="fill:none;stroke:#231f20;stroke-width:0.75;stroke-linecap:round;stroke-linejoin:round;stroke-miterlimit:4;stroke-dasharray:none;stroke-opacity:1"
       id="path674" />
    <path
       d="m 528.163,305.554 c 0,-2.114 2.182,-3.83 4.875,-3.83 2.692,0 4.875,1.716 4.875,3.83 0,2.116 -2.183,3.83 -4.875,3.83 -2.693,0 -4.875,-1.714 -4.875,-3.83"
       style="fill:#ffffff;fill-opacity:1;fill-rule:nonzero;stroke:none;stroke-width:0.1"
       id="path676" />
    <path
       d="m 528.163,305.554 c 0,-2.114 2.182,-3.83 4.875,-3.83 2.692,0 4.875,1.716 4.875,3.83 0,2.116 -2.183,3.83 -4.875,3.83 -2.693,0 -4.875,-1.714 -4.875,-3.83 z"
       style="fill:none;stroke:#231f20;stroke-width:0.5;stroke-linecap:butt;stroke-linejoin:miter;stroke-miterlimit:4;stroke-dasharray:none;stroke-opacity:1"
       id="path678" />
    <path
       d="m 551.841,305.554 c 0,-2.114 -2.182,-3.83 -4.875,-3.83 -2.693,0 -4.875,1.716 -4.875,3.83 0,2.116 2.182,3.83 4.875,3.83 2.693,0 4.875,-1.714 4.875,-3.83"
       style="fill:#ffffff;fill-opacity:1;fill-rule:nonzero;stroke:none;stroke-width:0.1"
       id="path680" />
    <path
       d="m 551.841,305.554 c 0,-2.114 -2.182,-3.83 -4.875,-3.83 -2.693,0 -4.875,1.716 -4.875,3.83 0,2.116 2.182,3.83 4.875,3.83 2.693,0 4.875,-1.714 4.875,-3.83 z"
       style="fill:none;stroke:#231f20;stroke-width:0.5;stroke-linecap:butt;stroke-linejoin:miter;stroke-miterlimit:4;stroke-dasharray:none;stroke-opacity:1"
       id="path682" />
    <path
       d="m 738.484,495.679 c 0,-2.306 -1.87,-4.179 -4.179,-4.179 -2.307,0 -4.178,1.873 -4.178,4.179 0,2.31 1.871,4.179 4.178,4.179 2.309,0 4.179,-1.869 4.179,-4.179"
       style="fill:#ffffff;fill-opacity:1;fill-rule:nonzero;stroke:none;stroke-width:0.1"
       id="path684" />
    <path
       d="m 738.484,495.679 c 0,-2.306 -1.87,-4.179 -4.179,-4.179 -2.307,0 -4.178,1.873 -4.178,4.179 0,2.31 1.871,4.179 4.178,4.179 2.309,0 4.179,-1.869 4.179,-4.179 z"
       style="fill:none;stroke:#231f20;stroke-width:0.5;stroke-linecap:butt;stroke-linejoin:miter;stroke-miterlimit:4;stroke-dasharray:none;stroke-opacity:1"
       id="path686" />
    <path
       d="m 730.475,506.474 c 0,-1.924 -1.715,-3.482 -3.83,-3.482 -2.115,0 -3.593,1.558 -3.593,3.482 0,1.923 1.478,3.483 3.593,3.483 2.115,0 3.83,-1.56 3.83,-3.483"
       style="fill:#ffffff;fill-opacity:1;fill-rule:nonzero;stroke:none;stroke-width:0.1"
       id="path688" />
    <path
       d="m 730.475,506.474 c 0,-1.924 -1.715,-3.482 -3.83,-3.482 -2.115,0 -3.593,1.558 -3.593,3.482 0,1.923 1.478,3.483 3.593,3.483 2.115,0 3.83,-1.56 3.83,-3.483 z"
       style="fill:none;stroke:#231f20;stroke-width:0.5;stroke-linecap:butt;stroke-linejoin:miter;stroke-miterlimit:4;stroke-dasharray:none;stroke-opacity:1"
       id="path690" />
    <path
       d="m 735.35,539.903 c 3.271,-0.467 3.83,-4.875 2.786,-8.705 -1.045,-3.831 -4.241,-6.426 -6.268,-5.92 -2.786,0.696 -3.834,3.948 -2.727,8.553 1.334,5.549 3.772,6.419 6.209,6.072"
       style="fill:#ffffff;fill-opacity:1;fill-rule:nonzero;stroke:none;stroke-width:0.1"
       id="path692" />
    <path
       d="m 735.35,539.903 c 3.271,-0.467 3.83,-4.875 2.786,-8.705 -1.045,-3.831 -4.241,-6.426 -6.268,-5.92 -2.786,0.696 -3.834,3.948 -2.727,8.553 1.334,5.549 3.772,6.419 6.209,6.072 z"
       style="fill:none;stroke:#231f20;stroke-width:0.5;stroke-linecap:butt;stroke-linejoin:miter;stroke-miterlimit:4;stroke-dasharray:none;stroke-opacity:1"
       id="path694" />
    <path
       d="m 729.953,517.269 c -2.006,-2.675 -0.523,-6.442 1.915,-8.531 2.437,-2.09 7.536,-3.469 9.576,-0.523 1.567,2.264 1.454,5.855 -2.438,8.879 -3.133,2.438 -7.486,2.264 -9.053,0.175"
       style="fill:#ffffff;fill-opacity:1;fill-rule:nonzero;stroke:none;stroke-width:0.1"
       id="path696" />
    <path
       d="m 729.953,517.269 c -2.006,-2.675 -0.523,-6.442 1.915,-8.531 2.437,-2.09 7.536,-3.469 9.576,-0.523 1.567,2.264 1.454,5.855 -2.438,8.879 -3.133,2.438 -7.486,2.264 -9.053,0.175 z"
       style="fill:none;stroke:#231f20;stroke-width:0.5;stroke-linecap:butt;stroke-linejoin:miter;stroke-miterlimit:4;stroke-dasharray:none;stroke-opacity:1"
       id="path698" />
    <path
       d="m 544.18,303.813 c 0,-2.307 -1.872,-4.179 -4.178,-4.179 -2.308,0 -4.179,1.872 -4.179,4.179 0,2.31 1.871,4.179 4.179,4.179 2.306,0 4.178,-1.869 4.178,-4.179"
       style="fill:#ffffff;fill-opacity:1;fill-rule:nonzero;stroke:none;stroke-width:0.1"
       id="path700" />
    <path
       d="m 544.18,303.813 c 0,-2.307 -1.872,-4.179 -4.178,-4.179 -2.308,0 -4.179,1.872 -4.179,4.179 0,2.31 1.871,4.179 4.179,4.179 2.306,0 4.178,-1.869 4.178,-4.179 z"
       style="fill:none;stroke:#231f20;stroke-width:0.5;stroke-linecap:butt;stroke-linejoin:miter;stroke-miterlimit:4;stroke-dasharray:none;stroke-opacity:1"
       id="path702" />
    <path
       d="m 341.519,495.679 c 0,-2.306 1.87,-4.179 4.179,-4.179 2.308,0 4.178,1.873 4.178,4.179 0,2.31 -1.87,4.179 -4.178,4.179 -2.309,0 -4.179,-1.869 -4.179,-4.179"
       style="fill:#ffffff;fill-opacity:1;fill-rule:nonzero;stroke:none;stroke-width:0.1"
       id="path704" />
    <path
       d="m 341.519,495.679 c 0,-2.306 1.87,-4.179 4.179,-4.179 2.308,0 4.178,1.873 4.178,4.179 0,2.31 -1.87,4.179 -4.178,4.179 -2.309,0 -4.179,-1.869 -4.179,-4.179 z"
       style="fill:none;stroke:#231f20;stroke-width:0.5;stroke-linecap:butt;stroke-linejoin:miter;stroke-miterlimit:4;stroke-dasharray:none;stroke-opacity:1"
       id="path706" />
    <path
       d="m 349.528,506.474 c 0,-1.924 1.716,-3.482 3.83,-3.482 2.115,0 3.593,1.558 3.593,3.482 0,1.923 -1.478,3.483 -3.593,3.483 -2.114,0 -3.83,-1.56 -3.83,-3.483"
       style="fill:#ffffff;fill-opacity:1;fill-rule:nonzero;stroke:none;stroke-width:0.1"
       id="path708" />
    <path
       d="m 349.528,506.474 c 0,-1.924 1.716,-3.482 3.83,-3.482 2.115,0 3.593,1.558 3.593,3.482 0,1.923 -1.478,3.483 -3.593,3.483 -2.114,0 -3.83,-1.56 -3.83,-3.483 z"
       style="fill:none;stroke:#231f20;stroke-width:0.5;stroke-linecap:butt;stroke-linejoin:miter;stroke-miterlimit:4;stroke-dasharray:none;stroke-opacity:1"
       id="path710" />
    <path
       d="m 344.653,539.903 c -3.27,-0.467 -3.83,-4.875 -2.785,-8.705 1.044,-3.831 4.241,-6.426 6.267,-5.92 2.785,0.696 3.834,3.948 2.728,8.553 -1.335,5.549 -3.773,6.419 -6.21,6.072"
       style="fill:#ffffff;fill-opacity:1;fill-rule:nonzero;stroke:none;stroke-width:0.1"
       id="path712" />
    <path
       d="m 344.653,539.903 c -3.27,-0.467 -3.83,-4.875 -2.785,-8.705 1.044,-3.831 4.241,-6.426 6.267,-5.92 2.785,0.696 3.834,3.948 2.728,8.553 -1.335,5.549 -3.773,6.419 -6.21,6.072 z"
       style="fill:none;stroke:#231f20;stroke-width:0.5;stroke-linecap:butt;stroke-linejoin:miter;stroke-miterlimit:4;stroke-dasharray:none;stroke-opacity:1"
       id="path714" />
    <path
       d="m 350.05,517.269 c 2.006,-2.675 0.523,-6.442 -1.915,-8.531 -2.437,-2.09 -7.536,-3.469 -9.576,-0.523 -1.566,2.264 -1.454,5.855 2.438,8.879 3.133,2.438 7.486,2.264 9.053,0.175"
       style="fill:#ffffff;fill-opacity:1;fill-rule:nonzero;stroke:none;stroke-width:0.1"
       id="path716" />
    <path
       d="m 350.05,517.269 c 2.006,-2.675 0.523,-6.442 -1.915,-8.531 -2.437,-2.09 -7.536,-3.469 -9.576,-0.523 -1.566,2.264 -1.454,5.855 2.438,8.879 3.133,2.438 7.486,2.264 9.053,0.175 z"
       style="fill:none;stroke:#231f20;stroke-width:0.5;stroke-linecap:butt;stroke-linejoin:miter;stroke-miterlimit:4;stroke-dasharray:none;stroke-opacity:1"
       id="path718" />
    <path
       d="m 540.002,309.037 c -6.617,0 -7.351,-1.796 -13.233,-2.438 -7.571,-0.825 -17.708,-0.609 -30.643,-1.393 -22.982,-1.393 -48.053,11.491 -69.991,25.768 -21.937,14.276 -45.964,51.535 -45.964,51.535 -2.786,-4.178 -22.634,-3.133 -30.295,-1.044 -7.661,2.089 -9.402,7.661 -14.625,12.535 -5.223,4.876 -12.187,13.581 -22.633,20.545 -10.448,6.964 -31.34,19.152 -35.867,22.983 -4.527,3.83 -5.223,6.616 -3.482,11.491 1.741,4.875 7.313,8.705 21.589,7.66 14.277,-1.045 48.402,-12.884 48.402,-12.884 -9.053,11.143 -6.616,17.759 -4.527,21.242 2.09,3.482 10.795,2.437 10.795,2.437 l 4.179,1.393 c 0,0 -2.264,4.091 -3.831,9.053 -1.501,4.755 3.831,18.804 5.919,23.679 2.09,4.875 1.394,13.58 0.698,22.983 -0.698,9.401 -5.92,27.856 -8.706,39.696 -2.786,11.839 -8.357,37.259 -8.705,47.357 -0.349,10.099 6.616,51.536 8.357,56.76 1.741,5.223 8.009,21.241 19.151,39.348 11.144,18.107 30.684,24.879 41.09,27.161 9.924,2.177 12.884,-1.741 12.884,-1.741 9.054,21.241 33.776,32.383 61.982,32.036 28.205,-0.349 46.789,-12.027 52.929,-21.59 6.14,-9.564 0,-24.375 0,-24.375 2.438,-2.785 4.527,-3.482 4.527,-3.482 0,0 2.089,0.697 4.527,3.482 0,0 -6.14,14.811 0,24.375 6.139,9.563 24.723,21.241 52.929,21.59 28.205,0.347 52.928,-10.795 61.981,-32.036 0,0 2.96,3.918 12.885,1.741 10.405,-2.282 29.946,-9.054 41.089,-27.161 11.142,-18.107 17.411,-34.125 19.152,-39.348 1.74,-5.224 8.705,-46.661 8.356,-56.76 -0.347,-10.098 -5.919,-35.518 -8.705,-47.357 -2.786,-11.84 -8.008,-30.295 -8.705,-39.696 -0.696,-9.403 -1.393,-18.108 0.697,-22.983 2.088,-4.875 7.42,-18.924 5.919,-23.679 -1.567,-4.962 -3.831,-9.053 -3.831,-9.053 l 4.179,-1.393 c 0,0 8.705,1.045 10.795,-2.437 2.089,-3.483 4.526,-10.099 -4.527,-21.242 0,0 34.125,11.839 48.402,12.884 14.276,1.045 19.849,-2.785 21.589,-7.66 1.741,-4.875 1.045,-7.661 -3.482,-11.491 -4.527,-3.831 -25.42,-16.019 -35.866,-22.983 -10.446,-6.964 -17.411,-15.669 -22.634,-20.545 -5.223,-4.874 -6.964,-10.446 -14.625,-12.535 -7.661,-2.089 -27.509,-3.134 -30.295,1.044 0,0 -24.027,-37.259 -45.964,-51.535 -21.938,-14.277 -47.009,-27.161 -69.992,-25.768 -12.933,0.784 -23.071,0.568 -30.642,1.393 -5.882,0.642 -6.616,2.438 -13.232,2.438"
       style="fill:#ffffff;fill-opacity:1;fill-rule:nonzero;stroke:none;stroke-width:0.1"
       id="path720" />
    <path
       d="m 540.002,309.037 c -6.617,0 -7.351,-1.796 -13.233,-2.438 -7.571,-0.825 -17.708,-0.609 -30.643,-1.393 -22.982,-1.393 -48.053,11.491 -69.991,25.768 -21.937,14.276 -45.964,51.535 -45.964,51.535 -2.786,-4.178 -22.634,-3.133 -30.295,-1.044 -7.661,2.089 -9.402,7.661 -14.625,12.535 -5.223,4.876 -12.187,13.581 -22.633,20.545 -10.448,6.964 -31.34,19.152 -35.867,22.983 -4.527,3.83 -5.223,6.616 -3.482,11.491 1.741,4.875 7.313,8.705 21.589,7.66 14.277,-1.045 48.402,-12.884 48.402,-12.884 -9.053,11.143 -6.616,17.759 -4.527,21.242 2.09,3.482 10.795,2.437 10.795,2.437 l 4.179,1.393 c 0,0 -2.264,4.091 -3.831,9.053 -1.501,4.755 3.831,18.804 5.919,23.679 2.09,4.875 1.394,13.58 0.698,22.983 -0.698,9.401 -5.92,27.856 -8.706,39.696 -2.786,11.839 -8.357,37.259 -8.705,47.357 -0.349,10.099 6.616,51.536 8.357,56.76 1.741,5.223 8.009,21.241 19.151,39.348 11.144,18.107 30.684,24.879 41.09,27.161 9.924,2.177 12.884,-1.741 12.884,-1.741 9.054,21.241 33.776,32.383 61.982,32.036 28.205,-0.349 46.789,-12.027 52.929,-21.59 6.14,-9.564 0,-24.375 0,-24.375 2.438,-2.785 4.527,-3.482 4.527,-3.482 0,0 2.089,0.697 4.527,3.482 0,0 -6.14,14.811 0,24.375 6.139,9.563 24.723,21.241 52.929,21.59 28.205,0.347 52.928,-10.795 61.981,-32.036 0,0 2.96,3.918 12.885,1.741 10.405,-2.282 29.946,-9.054 41.089,-27.161 11.142,-18.107 17.411,-34.125 19.152,-39.348 1.74,-5.224 8.705,-46.661 8.356,-56.76 -0.347,-10.098 -5.919,-35.518 -8.705,-47.357 -2.786,-11.84 -8.008,-30.295 -8.705,-39.696 -0.696,-9.403 -1.393,-18.108 0.697,-22.983 2.088,-4.875 7.42,-18.924 5.919,-23.679 -1.567,-4.962 -3.831,-9.053 -3.831,-9.053 l 4.179,-1.393 c 0,0 8.705,1.045 10.795,-2.437 2.089,-3.483 4.526,-10.099 -4.527,-21.242 0,0 34.125,11.839 48.402,12.884 14.276,1.045 19.849,-2.785 21.589,-7.66 1.741,-4.875 1.045,-7.661 -3.482,-11.491 -4.527,-3.831 -25.42,-16.019 -35.866,-22.983 -10.446,-6.964 -17.411,-15.669 -22.634,-20.545 -5.223,-4.874 -6.964,-10.446 -14.625,-12.535 -7.661,-2.089 -27.509,-3.134 -30.295,1.044 0,0 -24.027,-37.259 -45.964,-51.535 -21.938,-14.277 -47.009,-27.161 -69.992,-25.768 -12.933,0.784 -23.071,0.568 -30.642,1.393 -5.882,0.642 -6.616,2.438 -13.232,2.438 z"
       style="fill:none;stroke:#231f20;stroke-width:0.75;stroke-linecap:round;stroke-linejoin:round;stroke-miterlimit:4;stroke-dasharray:none;stroke-opacity:1"
       id="path722" />
    <path
       d="m 736.743,443.795 c -10.098,-8.357 -23.33,-42.133 -36.911,-61.286"
       style="fill:none;stroke:#231f20;stroke-width:0.5;stroke-linecap:butt;stroke-linejoin:miter;stroke-miterlimit:4;stroke-dasharray:none;stroke-opacity:1"
       id="path724" />
    <path
       d="m 710.174,399.474 c 3.587,-5.125 11.908,-12.029 24.114,-16.238"
       style="fill:none;stroke:#231f20;stroke-width:0.5;stroke-linecap:butt;stroke-linejoin:miter;stroke-miterlimit:4;stroke-dasharray:none;stroke-opacity:1"
       id="path726" />
    <path
       d="m 778.877,748.136 c 0,0 53.973,-42.134 69.643,-86.357 15.67,-44.224 1.045,-73.126 -1.045,-77.305"
       style="fill:none;stroke:#231f20;stroke-width:0.75;stroke-linecap:round;stroke-linejoin:round;stroke-miterlimit:4;stroke-dasharray:none;stroke-opacity:1"
       id="path728" />
    <path
       d="m 696.699,806.288 c 0,0 32.383,-6.617 81.133,-44.223 48.75,-37.607 75.106,-66.434 83.224,-98.197 8.009,-31.339 8.705,-52.581 -2.149,-79.028 -4.724,-11.51 -13.026,-15.859 -18.744,-14.991 -7.615,1.156 -11.69,9.16 -11.492,19.5 0.308,16.02 -5.571,53.626 -27.16,97.501 -21.59,43.875 -35.518,57.455 -56.411,76.608 -20.192,18.509 -24.859,22.478 -48.401,42.83 z"
       style="fill:none;stroke:#231f20;stroke-width:0.5;stroke-linecap:butt;stroke-linejoin:miter;stroke-miterlimit:4;stroke-dasharray:none;stroke-opacity:1"
       id="path730" />
    <path
       d="m 339.082,611.635 c -0.349,10.099 6.616,51.536 8.357,56.76 1.741,5.223 8.009,21.241 19.151,39.348 0,0 7.313,19.152 12.188,27.857 4.875,8.705 13.232,22.286 14.277,23.33 1.044,1.045 15.669,4.528 23.33,5.92 7.661,1.393 38.653,8.358 49.795,12.536 11.143,4.179 17.063,6.268 25.071,16.018 8.009,9.75 22.983,25.42 26.813,42.134 3.83,16.714 -17.411,30.294 -30.643,35.17 -13.232,4.874 -18.456,7.661 -20.893,8.008 -2.438,0.349 -11.49,1.742 -14.973,3.134 -3.482,1.394 -7.661,5.92 -14.277,8.01 -6.616,2.089 -32.035,7.312 -45.268,5.571 -13.232,-1.741 -50.491,-9.054 -86.009,-22.286 -35.518,-13.232 -72.777,-33.429 -104.464,-63.026 -31.688,-29.599 -61.634,-77.304 -72.778,-129.189 -11.119,-51.776 1.252,-83.846 2.786,-88.447 3.483,-10.446 10.291,-7.237 12.884,-14.276 2.438,-6.617 -0.696,-14.278 1.045,-22.287 1.741,-8.008 15.321,-66.16 41.786,-85.661 26.464,-19.5 52.58,-27.856 83.919,-16.714 31.34,11.143 49.795,38.653 56.411,60.938 6.617,22.286 5.572,29.946 4.528,32.732 -1.045,2.785 -1.045,6.964 2.437,15.67 3.482,8.705 4.875,18.107 4.527,29.947 -0.349,11.838 0,18.803 0,18.803"
       style="fill:#ffffff;fill-opacity:1;fill-rule:nonzero;stroke:none;stroke-width:0.1"
       id="path732" />
    <path
       d="m 339.082,611.635 c -0.349,10.099 6.616,51.536 8.357,56.76 1.741,5.223 8.009,21.241 19.151,39.348 0,0 7.313,19.152 12.188,27.857 4.875,8.705 13.232,22.286 14.277,23.33 1.044,1.045 15.669,4.528 23.33,5.92 7.661,1.393 38.653,8.358 49.795,12.536 11.143,4.179 17.063,6.268 25.071,16.018 8.009,9.75 22.983,25.42 26.813,42.134 3.83,16.714 -17.411,30.294 -30.643,35.17 -13.232,4.874 -18.456,7.661 -20.893,8.008 -2.438,0.349 -11.49,1.742 -14.973,3.134 -3.482,1.394 -7.661,5.92 -14.277,8.01 -6.616,2.089 -32.035,7.312 -45.268,5.571 -13.232,-1.741 -50.491,-9.054 -86.009,-22.286 -35.518,-13.232 -72.777,-33.429 -104.464,-63.026 -31.688,-29.599 -61.634,-77.304 -72.778,-129.189 -11.119,-51.776 1.252,-83.846 2.786,-88.447 3.483,-10.446 10.291,-7.237 12.884,-14.276 2.438,-6.617 -0.696,-14.278 1.045,-22.287 1.741,-8.008 15.321,-66.16 41.786,-85.661 26.464,-19.5 52.58,-27.856 83.919,-16.714 31.34,11.143 49.795,38.653 56.411,60.938 6.617,22.286 5.572,29.946 4.528,32.732 -1.045,2.785 -1.045,6.964 2.437,15.67 3.482,8.705 4.875,18.107 4.527,29.947 -0.349,11.838 0,18.803 0,18.803 z"
       style="fill:none;stroke:#231f20;stroke-width:0.75;stroke-linecap:round;stroke-linejoin:round;stroke-miterlimit:4;stroke-dasharray:none;stroke-opacity:1"
       id="path734" />
    <path
       d="m 301.126,748.136 c 0,0 -53.973,-42.134 -69.643,-86.357 -15.67,-44.224 -1.045,-73.126 1.045,-77.305"
       style="fill:none;stroke:#231f20;stroke-width:0.75;stroke-linecap:round;stroke-linejoin:round;stroke-miterlimit:4;stroke-dasharray:none;stroke-opacity:1"
       id="path736" />
    <path
       d="m 383.305,806.288 c 0,0 -32.385,-6.617 -81.135,-44.223 -48.75,-37.607 -75.105,-66.434 -83.222,-98.197 -8.01,-31.339 -8.706,-52.581 2.148,-79.028 4.725,-11.51 13.026,-15.859 18.744,-14.991 7.615,1.156 11.69,9.16 11.492,19.5 -0.308,16.02 5.571,53.626 27.16,97.501 21.59,43.875 35.518,57.455 56.411,76.608 20.192,18.509 24.859,22.478 48.402,42.83 z"
       style="fill:none;stroke:#231f20;stroke-width:0.5;stroke-linecap:butt;stroke-linejoin:miter;stroke-miterlimit:4;stroke-dasharray:none;stroke-opacity:1"
       id="path738" />
    <path
       d="m 544.529,719.234 c 9.401,6.616 14.276,18.456 30.294,20.545 16.018,2.089 28.553,2.089 43.527,-3.134 14.973,-5.224 31.339,-14.625 37.608,-11.143"
       style="fill:none;stroke:#231f20;stroke-width:0.5;stroke-linecap:butt;stroke-linejoin:miter;stroke-miterlimit:4;stroke-dasharray:none;stroke-opacity:1"
       id="path740" />
    <path
       d="m 543.345,718.01 c 1.88,-3.999 8.148,-4.695 18.246,1.92 10.098,6.616 24.429,10.884 41.785,7.661 24.376,-4.526 34.406,-8.561 38.304,-9.75 3.882,-1.182 7.5,-2.123 8.706,-2.437 2.002,-0.523 7.66,-2.786 4.075,-15.443"
       style="fill:none;stroke:#231f20;stroke-width:0.5;stroke-linecap:butt;stroke-linejoin:miter;stroke-miterlimit:4;stroke-dasharray:none;stroke-opacity:1"
       id="path742" />
    <path
       d="m 659.439,733.163 c -2.437,-2.438 -5.763,-11.919 -4.236,-22.674"
       style="fill:none;stroke:#231f20;stroke-width:0.5;stroke-linecap:butt;stroke-linejoin:miter;stroke-miterlimit:4;stroke-dasharray:none;stroke-opacity:1"
       id="path744" />
    <path
       d="m 679.288,726.199 c 10.446,-3.134 20.892,-12.188 28.553,-22.983 7.661,-10.795 19.5,-36.215 22.286,-49.446 2.786,-13.232 6.829,-30.966 4.178,-45.617 -1.681,-9.293 -3.134,-18.108 -3.83,-21.241"
       style="fill:none;stroke:#231f20;stroke-width:0.5;stroke-linecap:butt;stroke-linejoin:miter;stroke-miterlimit:4;stroke-dasharray:none;stroke-opacity:1"
       id="path746" />
    <path
       d="m 643.421,632.18 c 0,0 -4.875,8.358 -17.411,21.241 -12.535,12.884 -33.776,30.295 -42.134,38.304 -8.357,8.009 -17.41,16.018 -16.017,20.196 2.333,7 14.973,5.572 22.634,5.224 7.661,-0.349 34.473,-5.571 39.696,-7.313 5.224,-1.741 14.625,-4.874 16.715,-5.571 2.089,-0.696 7.66,-1.305 7.66,-5.223 0,-6.268 -4.526,-9.054 -4.526,-9.054 0,0 3.22,-0.696 3.83,-10.098 0.654,-10.101 -1.044,-35.518 -10.447,-47.706 z"
       style="fill:none;stroke:#231f20;stroke-width:0.5;stroke-linecap:butt;stroke-linejoin:miter;stroke-miterlimit:4;stroke-dasharray:none;stroke-opacity:1"
       id="path748" />
    <path
       d="m 567.725,710.873 c -0.562,-2.433 8.143,-1.737 14.759,-3.13 5.156,-1.085 18.107,-4.527 28.205,-7.313 10.099,-2.785 25.42,-7.312 39.349,-10.446"
       style="fill:none;stroke:#231f20;stroke-width:0.5;stroke-linecap:butt;stroke-linejoin:miter;stroke-miterlimit:4;stroke-dasharray:none;stroke-opacity:1"
       id="path750" />
    <path
       d="m 574.742,542.14 c -0.963,-1.541 4.608,-3.63 9.134,-0.496 4.528,3.134 5.504,5.658 3.101,9.445"
       style="fill:none;stroke:#231f20;stroke-width:0.5;stroke-linecap:butt;stroke-linejoin:miter;stroke-miterlimit:4;stroke-dasharray:none;stroke-opacity:1"
       id="path752" />
    <path
       d="m 611.508,616.49 c 2.315,-5.551 3.36,-12.864 4.752,-17.391 1.394,-4.526 7.687,-14.206 0.349,-23.33"
       style="fill:none;stroke:#231f20;stroke-width:0.5;stroke-linecap:butt;stroke-linejoin:miter;stroke-miterlimit:4;stroke-dasharray:none;stroke-opacity:1"
       id="path754" />
    <path
       d="m 613.352,610.906 c 3.953,-1.012 10.221,1.078 15.444,5.257 5.224,4.178 11.495,9.344 14.625,16.017"
       style="fill:none;stroke:#231f20;stroke-width:0.5;stroke-linecap:butt;stroke-linejoin:miter;stroke-miterlimit:4;stroke-dasharray:none;stroke-opacity:1"
       id="path756" />
    <path
       d="m 670.699,600.339 c 5.106,-7.507 14.16,-21.785 15.901,-32.927"
       style="fill:none;stroke:#231f20;stroke-width:0.25;stroke-linecap:butt;stroke-linejoin:miter;stroke-miterlimit:4;stroke-dasharray:none;stroke-opacity:1"
       id="path758" />
    <path
       d="m 730.475,586.912 c -0.498,-2.604 -1.41,-10.267 4.78,-9.108"
       style="fill:none;stroke:#231f20;stroke-width:0.5;stroke-linecap:butt;stroke-linejoin:miter;stroke-miterlimit:4;stroke-dasharray:none;stroke-opacity:1"
       id="path760" />
    <path
       d="m 661.876,465.037 c 4.865,0.47 8.452,-4.124 7.313,-10.099 -1.393,-7.312 -7.624,-16.807 -19.151,-21.241 -9.054,-3.482 -11.84,0 -10.099,8.009 1.741,8.009 11.143,22.286 21.937,23.331 z"
       style="fill:none;stroke:#231f20;stroke-width:0.5;stroke-linecap:butt;stroke-linejoin:miter;stroke-miterlimit:4;stroke-dasharray:none;stroke-opacity:1"
       id="path762" />
    <path
       d="m 575.519,487.67 c 4.179,-10.794 7.313,-29.946 7.313,-38.303 0,-8.358 -1.348,-18.698 -2.786,-23.33 -1.567,-5.049 -2.419,-10.447 -11.471,-10.795"
       style="fill:none;stroke:#231f20;stroke-width:0.5;stroke-linecap:butt;stroke-linejoin:miter;stroke-miterlimit:4;stroke-dasharray:none;stroke-opacity:1"
       id="path764" />
    <path
       d="m 694.813,537.8 c 1.189,-10.433 1.189,-23.317 0.492,-28.888 -0.696,-5.572 -4.526,-21.242 -8.356,-32.384 -3.831,-11.144 -8.706,-20.545 -10.447,-27.858 -1.741,-7.312 -4.178,-18.455 -4.178,-23.33 0,-4.875 -2.438,-14.277 13.058,-8.803"
       style="fill:none;stroke:#231f20;stroke-width:0.5;stroke-linecap:butt;stroke-linejoin:miter;stroke-miterlimit:4;stroke-dasharray:none;stroke-opacity:1"
       id="path766" />
    <path
       d="m 726.296,468.867 c -6.267,-8.358 -19.5,-24.027 -24.375,-28.554 -4.875,-4.526 -8.705,-9.054 -11.839,-12.884 -3.133,-3.83 -1.741,-8.357 -7.661,-14.973 -5.919,-6.616 -5.222,-12.188 -5.919,-14.973 -0.697,-2.786 -2.438,-18.455 -8.009,-29.25 -5.572,-10.795 -23.679,-36.563 -50.491,-46.661 -26.813,-10.098 -38.304,-10.446 -48.054,-8.705 -9.75,1.741 -24.375,9.75 -26.464,12.187 -2.09,2.438 -2.09,6.964 -2.09,6.964 0,0 0,53.974 0,56.411 0,2.438 0.784,6.703 12.093,4.318"
       style="fill:none;stroke:#231f20;stroke-width:0.5;stroke-linecap:butt;stroke-linejoin:miter;stroke-miterlimit:4;stroke-dasharray:none;stroke-opacity:1"
       id="path768" />
    <path
       d="m 730.475,467.474 c -0.348,-7.312 -4.875,-13.929 -13.232,-22.634 -8.357,-8.706 -17.411,-13.232 -20.197,-16.366 -2.785,-3.134 -5.606,-6.371 -9.767,-7.538"
       style="fill:none;stroke:#231f20;stroke-width:0.5;stroke-linecap:butt;stroke-linejoin:miter;stroke-miterlimit:4;stroke-dasharray:none;stroke-opacity:1"
       id="path770" />
    <path
       d="m 564.893,478.84 c 2.037,-6.026 5.504,-16.285 5.984,-38.989 0.33,-15.553 -2.474,-28.29 -5.108,-32.501 -2.32,-3.714 -5.105,-6.965 -19.037,-7.71"
       style="fill:none;stroke:#231f20;stroke-width:0.5;stroke-linecap:butt;stroke-linejoin:miter;stroke-miterlimit:4;stroke-dasharray:none;stroke-opacity:1"
       id="path772" />
    <path
       d="m 564.842,368.581 c -0.261,-2.353 1.624,-4.873 9.284,-6.73 7.662,-1.858 32.035,-2.555 48.518,1.855 16.483,4.413 25.999,7.429 34.125,18.107 8.126,10.681 11.144,23.913 8.59,27.857 -2.553,3.948 -10.679,2.089 -17.644,-0.231 -6.963,-2.32 -14.855,-6.036 -27.391,-15.553 -10.061,-7.638 -17.876,-13.697 -24.144,-16.714 -6.268,-3.019 -15.785,-6.037 -19.964,-6.268 -4.178,-0.231 -11.143,-0.234 -11.374,-2.323 z"
       style="fill:none;stroke:#231f20;stroke-width:0.5;stroke-linecap:butt;stroke-linejoin:miter;stroke-miterlimit:4;stroke-dasharray:none;stroke-opacity:1"
       id="path774" />
    <path
       d="m 564.752,367.232 c -2.464,-0.74 -5.483,0.652 -7.108,3.438 -1.625,2.786 -6.268,9.288 -5.572,15.322 0.697,6.037 1.162,10.214 9.054,11.608 7.893,1.393 29.946,3.02 37.839,2.554 7.894,-0.465 28.435,-0.925 23.066,-4.986"
       style="fill:none;stroke:#231f20;stroke-width:0.5;stroke-linecap:butt;stroke-linejoin:miter;stroke-miterlimit:4;stroke-dasharray:none;stroke-opacity:1"
       id="path776" />
    <path
       d="m 553.421,378.407 c 5.384,4.102 10.258,6.192 17.687,8.049 7.43,1.859 42.614,8.108 51.37,10.788"
       style="fill:none;stroke:#231f20;stroke-width:0.5;stroke-linecap:butt;stroke-linejoin:miter;stroke-miterlimit:4;stroke-dasharray:none;stroke-opacity:1"
       id="path778" />
    <path
       d="m 540.002,809.19 c -11.839,0 -28.902,-8.474 -28.902,-26.581 0,-18.107 6.616,-30.643 28.902,-30.643 22.286,0 28.902,12.536 28.902,30.643 0,18.107 -17.063,26.581 -28.902,26.581"
       style="fill:#b2b1b1;fill-opacity:1;fill-rule:nonzero;stroke:none;stroke-width:0.1"
       id="path780" />
    <path
       d="m 343.26,443.795 c 10.098,-8.357 23.33,-42.133 36.911,-61.286"
       style="fill:none;stroke:#231f20;stroke-width:0.5;stroke-linecap:butt;stroke-linejoin:miter;stroke-miterlimit:4;stroke-dasharray:none;stroke-opacity:1"
       id="path782" />
    <path
       d="m 369.83,399.474 c -3.587,-5.125 -11.91,-12.029 -24.115,-16.238"
       style="fill:none;stroke:#231f20;stroke-width:0.5;stroke-linecap:butt;stroke-linejoin:miter;stroke-miterlimit:4;stroke-dasharray:none;stroke-opacity:1"
       id="path784" />
    <path
       d="m 535.475,719.234 c -9.402,6.616 -14.277,18.456 -30.295,20.545 -16.017,2.089 -28.554,2.089 -43.527,-3.134 -14.973,-5.224 -31.339,-14.625 -37.607,-11.143"
       style="fill:none;stroke:#231f20;stroke-width:0.5;stroke-linecap:butt;stroke-linejoin:miter;stroke-miterlimit:4;stroke-dasharray:none;stroke-opacity:1"
       id="path786" />
    <path
       d="m 536.658,718.01 c -1.879,-3.999 -8.148,-4.695 -18.245,1.92 -10.099,6.616 -24.43,10.884 -41.787,7.661 -24.375,-4.526 -34.405,-8.561 -38.303,-9.75 -3.882,-1.182 -7.5,-2.123 -8.705,-2.437 -2.003,-0.523 -7.661,-2.786 -4.076,-15.443"
       style="fill:none;stroke:#231f20;stroke-width:0.5;stroke-linecap:butt;stroke-linejoin:miter;stroke-miterlimit:4;stroke-dasharray:none;stroke-opacity:1"
       id="path788" />
    <path
       d="m 512.144,711.921 c 3.54,-2.456 4.527,-2.089 8.706,-2.089 4.179,0 13.232,0 19.152,0 5.919,0 14.973,0 19.152,0 4.178,0 5.166,-0.367 8.705,2.089"
       style="fill:none;stroke:#231f20;stroke-width:0.5;stroke-linecap:butt;stroke-linejoin:miter;stroke-miterlimit:4;stroke-dasharray:none;stroke-opacity:1"
       id="path790" />
    <path
       d="m 420.564,733.163 c 2.437,-2.438 5.763,-11.919 4.237,-22.674"
       style="fill:none;stroke:#231f20;stroke-width:0.5;stroke-linecap:butt;stroke-linejoin:miter;stroke-miterlimit:4;stroke-dasharray:none;stroke-opacity:1"
       id="path792" />
    <path
       d="m 400.715,726.199 c -10.446,-3.134 -20.892,-12.188 -28.553,-22.983 -7.661,-10.795 -19.5,-36.215 -22.286,-49.446 -2.786,-13.232 -6.828,-30.966 -4.178,-45.617 1.68,-9.293 3.134,-18.108 3.83,-21.241"
       style="fill:none;stroke:#231f20;stroke-width:0.5;stroke-linecap:butt;stroke-linejoin:miter;stroke-miterlimit:4;stroke-dasharray:none;stroke-opacity:1"
       id="path794" />
    <path
       d="m 436.582,632.18 c 0,0 4.875,8.358 17.411,21.241 12.535,12.884 33.776,30.295 42.133,38.304 8.358,8.009 17.412,16.018 16.018,20.196 -2.332,7 -14.973,5.572 -22.634,5.224 -7.66,-0.349 -34.472,-5.571 -39.696,-7.313 -5.224,-1.741 -14.625,-4.874 -16.715,-5.571 -2.089,-0.696 -7.66,-1.305 -7.66,-5.223 0,-6.268 4.526,-9.054 4.526,-9.054 0,0 -3.22,-0.696 -3.83,-10.098 -0.654,-10.101 1.045,-35.518 10.447,-47.706 z"
       style="fill:none;stroke:#231f20;stroke-width:0.5;stroke-linecap:butt;stroke-linejoin:miter;stroke-miterlimit:4;stroke-dasharray:none;stroke-opacity:1"
       id="path796" />
    <path
       d="m 512.278,710.873 c 0.563,-2.433 -8.143,-1.737 -14.759,-3.13 -5.156,-1.085 -18.106,-4.527 -28.205,-7.313 -10.099,-2.785 -25.42,-7.312 -39.349,-10.446"
       style="fill:none;stroke:#231f20;stroke-width:0.5;stroke-linecap:butt;stroke-linejoin:miter;stroke-miterlimit:4;stroke-dasharray:none;stroke-opacity:1"
       id="path798" />
    <path
       d="m 505.261,542.14 c 0.964,-1.541 -4.608,-3.63 -9.135,-0.496 -4.526,3.134 -5.502,5.658 -3.099,9.445"
       style="fill:none;stroke:#231f20;stroke-width:0.5;stroke-linecap:butt;stroke-linejoin:miter;stroke-miterlimit:4;stroke-dasharray:none;stroke-opacity:1"
       id="path800" />
    <path
       d="m 507.269,541.295 c 2.351,-3.917 2.149,-10.601 0.002,-13.925 8.705,-8.705 20.195,-13.932 24.722,-11.495 4.526,2.438 1.741,12.885 0.696,16.367 -1.045,3.482 -5.571,4.178 -10.098,4.875 -4.527,0.696 -10.098,2.437 -15.322,4.178 -5.223,1.742 -14.973,9.403 -17.759,13.929 -2.785,4.527 -6.616,7.661 -11.839,8.358 -5.223,0.696 -10.795,5.222 -14.277,12.187 -3.481,6.964 0,16.018 2.09,20.545 2.089,4.526 3.134,24.027 4.179,31.687 1.044,7.662 4.526,17.412 10.097,25.42 5.572,8.009 21.938,13.233 28.903,14.974 6.963,1.741 26.116,4.526 31.339,4.526 5.223,0 24.374,-2.785 31.339,-4.526 6.964,-1.741 23.33,-6.965 28.902,-14.974 5.571,-8.008 9.053,-17.758 10.098,-25.42 1.044,-7.66 2.089,-27.161 4.179,-31.687 2.089,-4.527 5.571,-13.581 2.089,-20.545 -3.483,-6.965 -9.054,-11.491 -14.277,-12.187 -5.223,-0.697 -9.053,-3.831 -11.839,-8.358 -2.785,-4.526 -12.536,-12.187 -17.759,-13.929 -5.224,-1.741 -10.795,-3.482 -15.321,-4.178 -4.528,-0.697 -9.054,-1.393 -10.099,-4.875 -1.045,-3.482 -3.83,-13.929 0.696,-16.367 4.528,-2.437 16.017,2.79 24.723,11.495 -2.147,3.324 -2.35,10.008 0.001,13.925"
       style="fill:none;stroke:#231f20;stroke-width:0.5;stroke-linecap:butt;stroke-linejoin:miter;stroke-miterlimit:4;stroke-dasharray:none;stroke-opacity:1"
       id="path802" />
    <path
       d="m 553.582,636.011 c -3.134,2.438 -10.447,7.313 -13.58,7.313 -3.134,0 -10.447,-4.875 -13.581,-7.313 -3.133,-2.437 -8.008,-7.313 -7.661,-10.447 0.349,-3.134 2.786,-11.143 7.313,-18.107 4.527,-6.965 6.965,-11.492 8.357,-11.492 1.393,0 3.483,1.045 5.572,1.045 2.089,0 4.178,-1.045 5.571,-1.045 1.393,0 3.831,4.527 8.357,11.492 4.527,6.964 6.964,14.973 7.313,18.107 0.348,3.134 -4.527,8.01 -7.661,10.447"
       style="fill:#706d6e;fill-opacity:1;fill-rule:nonzero;stroke:none;stroke-width:0.1"
       id="path804" />
    <path
       d="m 553.582,636.011 c -3.134,2.438 -10.447,7.313 -13.58,7.313 -3.134,0 -10.447,-4.875 -13.581,-7.313 -3.133,-2.437 -8.008,-7.313 -7.661,-10.447 0.349,-3.134 2.786,-11.143 7.313,-18.107 4.527,-6.965 6.965,-11.492 8.357,-11.492 1.393,0 3.483,1.045 5.572,1.045 2.089,0 4.178,-1.045 5.571,-1.045 1.393,0 3.831,4.527 8.357,11.492 4.527,6.964 6.964,14.973 7.313,18.107 0.348,3.134 -4.527,8.01 -7.661,10.447 z"
       style="fill:none;stroke:#231f20;stroke-width:0.75;stroke-linecap:round;stroke-linejoin:round;stroke-miterlimit:4;stroke-dasharray:none;stroke-opacity:1"
       id="path806" />
    <path
       d="m 468.495,616.49 c -2.315,-5.551 -3.36,-12.864 -4.752,-17.391 -1.393,-4.526 -7.687,-14.206 -0.349,-23.33"
       style="fill:none;stroke:#231f20;stroke-width:0.5;stroke-linecap:butt;stroke-linejoin:miter;stroke-miterlimit:4;stroke-dasharray:none;stroke-opacity:1"
       id="path808" />
    <path
       d="m 466.651,610.906 c -3.953,-1.012 -10.221,1.078 -15.444,5.257 -5.223,4.178 -11.494,9.344 -14.625,16.017"
       style="fill:none;stroke:#231f20;stroke-width:0.5;stroke-linecap:butt;stroke-linejoin:miter;stroke-miterlimit:4;stroke-dasharray:none;stroke-opacity:1"
       id="path810" />
    <path
       d="m 409.304,600.339 c -5.106,-7.507 -14.16,-21.785 -15.901,-32.927"
       style="fill:none;stroke:#231f20;stroke-width:0.25;stroke-linecap:butt;stroke-linejoin:miter;stroke-miterlimit:4;stroke-dasharray:none;stroke-opacity:1"
       id="path812" />
    <path
       d="m 540.002,480.358 c -1.393,0 -3.134,1.741 -8.706,3.134 -5.571,1.392 -26.812,4.178 -26.812,4.178 0,0 -3.483,1.393 -14.625,2.787 -11.144,1.392 -32.379,1.838 -40.741,1.043 -5.811,-0.551 -8.358,-2.088 -10.795,1.394 -2.438,3.481 2.786,6.964 5.92,9.054 3.133,2.089 14.276,8.356 22.982,12.535 8.705,4.179 13.928,5.92 15.669,5.92 1.741,0 8.706,-2.786 20.894,-4.875 12.187,-2.09 26.812,-2.09 36.214,-2.09 9.402,0 24.027,0 36.214,2.09 12.188,2.089 19.152,4.875 20.893,4.875 1.741,0 6.964,-1.741 15.67,-5.92 8.705,-4.179 19.847,-10.446 22.981,-12.535 3.135,-2.09 8.358,-5.573 5.92,-9.054 -2.437,-3.482 -4.983,-1.945 -10.795,-1.394 -8.362,0.795 -29.597,0.349 -40.74,-1.043 -11.143,-1.394 -14.626,-2.787 -14.626,-2.787 0,0 -21.24,-2.786 -26.812,-4.178 -5.572,-1.393 -7.313,-3.134 -8.705,-3.134 z"
       style="fill:none;stroke:#231f20;stroke-width:0.5;stroke-linecap:butt;stroke-linejoin:miter;stroke-miterlimit:4;stroke-dasharray:none;stroke-opacity:1"
       id="path814" />
    <path
       d="m 349.528,586.912 c 0.498,-2.604 1.411,-10.267 -4.779,-9.108"
       style="fill:none;stroke:#231f20;stroke-width:0.5;stroke-linecap:butt;stroke-linejoin:miter;stroke-miterlimit:4;stroke-dasharray:none;stroke-opacity:1"
       id="path816" />
    <path
       d="m 418.126,465.037 c -4.864,0.47 -8.451,-4.124 -7.312,-10.099 1.393,-7.312 7.624,-16.807 19.151,-21.241 9.054,-3.482 11.84,0 10.099,8.009 -1.741,8.009 -11.143,22.286 -21.938,23.331 z"
       style="fill:none;stroke:#231f20;stroke-width:0.5;stroke-linecap:butt;stroke-linejoin:miter;stroke-miterlimit:4;stroke-dasharray:none;stroke-opacity:1"
       id="path818" />
    <path
       d="m 504.484,487.67 c -4.179,-10.794 -7.313,-29.946 -7.313,-38.303 0,-8.358 1.348,-18.698 2.786,-23.33 1.567,-5.049 2.419,-10.447 11.472,-10.795"
       style="fill:none;stroke:#231f20;stroke-width:0.5;stroke-linecap:butt;stroke-linejoin:miter;stroke-miterlimit:4;stroke-dasharray:none;stroke-opacity:1"
       id="path820" />
    <path
       d="m 385.19,537.8 c -1.189,-10.433 -1.189,-23.317 -0.492,-28.888 0.696,-5.572 4.526,-21.242 8.357,-32.384 3.83,-11.144 8.705,-20.545 10.446,-27.858 1.742,-7.312 4.179,-18.455 4.179,-23.33 0,-4.875 2.438,-14.277 -13.059,-8.803"
       style="fill:none;stroke:#231f20;stroke-width:0.5;stroke-linecap:butt;stroke-linejoin:miter;stroke-miterlimit:4;stroke-dasharray:none;stroke-opacity:1"
       id="path822" />
    <path
       d="m 353.707,468.867 c 6.267,-8.358 19.5,-24.027 24.375,-28.554 4.875,-4.526 8.705,-9.054 11.839,-12.884 3.134,-3.83 1.741,-8.357 7.661,-14.973 5.919,-6.616 5.223,-12.188 5.919,-14.973 0.697,-2.786 2.438,-18.455 8.009,-29.25 5.572,-10.795 23.679,-36.563 50.491,-46.661 26.813,-10.098 38.304,-10.446 48.054,-8.705 9.75,1.741 24.375,9.75 26.464,12.187 2.09,2.438 2.09,6.964 2.09,6.964 0,0 0,53.974 0,56.411 0,2.438 -0.783,6.703 -12.093,4.318"
       style="fill:none;stroke:#231f20;stroke-width:0.5;stroke-linecap:butt;stroke-linejoin:miter;stroke-miterlimit:4;stroke-dasharray:none;stroke-opacity:1"
       id="path824" />
    <path
       d="m 349.528,467.474 c 0.348,-7.312 4.875,-13.929 13.232,-22.634 8.358,-8.706 17.411,-13.232 20.197,-16.366 2.786,-3.134 5.606,-6.371 9.767,-7.538"
       style="fill:none;stroke:#231f20;stroke-width:0.5;stroke-linecap:butt;stroke-linejoin:miter;stroke-miterlimit:4;stroke-dasharray:none;stroke-opacity:1"
       id="path826" />
    <path
       d="m 515.11,478.84 c -2.036,-6.026 -5.504,-16.285 -5.984,-38.989 -0.329,-15.553 2.474,-28.29 5.108,-32.501 2.321,-3.714 5.106,-6.965 19.037,-7.71"
       style="fill:none;stroke:#231f20;stroke-width:0.5;stroke-linecap:butt;stroke-linejoin:miter;stroke-miterlimit:4;stroke-dasharray:none;stroke-opacity:1"
       id="path828" />
    <path
       d="m 515.162,368.581 c 0.261,-2.353 -1.624,-4.873 -9.286,-6.73 -7.661,-1.858 -32.034,-2.555 -48.517,1.855 -16.483,4.413 -25.999,7.429 -34.125,18.107 -8.126,10.681 -11.143,23.913 -8.59,27.857 2.554,3.948 10.68,2.089 17.644,-0.231 6.963,-2.32 14.856,-6.036 27.391,-15.553 10.061,-7.638 17.876,-13.697 24.145,-16.714 6.267,-3.019 15.785,-6.037 19.964,-6.268 4.177,-0.231 11.142,-0.234 11.374,-2.323 z"
       style="fill:none;stroke:#231f20;stroke-width:0.5;stroke-linecap:butt;stroke-linejoin:miter;stroke-miterlimit:4;stroke-dasharray:none;stroke-opacity:1"
       id="path830" />
    <path
       d="m 515.251,367.232 c 2.465,-0.74 5.483,0.652 7.108,3.438 1.625,2.786 6.267,9.288 5.571,15.322 -0.696,6.037 -1.161,10.214 -9.054,11.608 -7.892,1.393 -29.945,3.02 -37.838,2.554 -7.894,-0.465 -28.434,-0.925 -23.066,-4.986"
       style="fill:none;stroke:#231f20;stroke-width:0.5;stroke-linecap:butt;stroke-linejoin:miter;stroke-miterlimit:4;stroke-dasharray:none;stroke-opacity:1"
       id="path832" />
    <path
       d="m 526.581,378.407 c -5.383,4.102 -10.256,6.192 -17.686,8.049 -7.43,1.859 -42.614,8.108 -51.37,10.788"
       style="fill:none;stroke:#231f20;stroke-width:0.5;stroke-linecap:butt;stroke-linejoin:miter;stroke-miterlimit:4;stroke-dasharray:none;stroke-opacity:1"
       id="path834" />
    <path
       d="m 683.606,745.223 c 0.308,-2.623 -1.272,-4.795 -3.529,-4.852 -2.257,-0.059 -4.335,2.019 -4.643,4.642 -0.308,2.623 1.274,4.795 3.529,4.853 2.257,0.058 4.336,-2.02 4.643,-4.643"
       style="fill:#ffffff;fill-opacity:1;fill-rule:nonzero;stroke:none;stroke-width:0.1"
       id="path836" />
    <path
       d="m 683.606,745.223 c 0.308,-2.623 -1.272,-4.795 -3.529,-4.852 -2.257,-0.059 -4.335,2.019 -4.643,4.642 -0.308,2.623 1.274,4.795 3.529,4.853 2.257,0.058 4.336,-2.02 4.643,-4.643 z"
       style="fill:none;stroke:#231f20;stroke-width:0.5;stroke-linecap:butt;stroke-linejoin:miter;stroke-miterlimit:4;stroke-dasharray:none;stroke-opacity:1"
       id="path838" />
    <path
       d="m 396.397,745.223 c -0.308,-2.623 1.273,-4.795 3.529,-4.852 2.257,-0.059 4.335,2.019 4.643,4.642 0.307,2.623 -1.273,4.795 -3.529,4.853 -2.257,0.058 -4.335,-2.02 -4.643,-4.643"
       style="fill:#ffffff;fill-opacity:1;fill-rule:nonzero;stroke:none;stroke-width:0.1"
       id="path840" />
    <path
       d="m 396.397,745.223 c -0.308,-2.623 1.273,-4.795 3.529,-4.852 2.257,-0.059 4.335,2.019 4.643,4.642 0.307,2.623 -1.273,4.795 -3.529,4.853 -2.257,0.058 -4.335,-2.02 -4.643,-4.643 z"
       style="fill:none;stroke:#231f20;stroke-width:0.5;stroke-linecap:butt;stroke-linejoin:miter;stroke-miterlimit:4;stroke-dasharray:none;stroke-opacity:1"
       id="path842" />
    <path
       d="m 615.656,607.246 c 0,-0.623 -0.501,-1.126 -1.127,-1.126 -0.623,0 -1.126,0.503 -1.126,1.126 0,0.623 0.503,1.126 1.126,1.126 0.626,0 1.127,-0.503 1.127,-1.126"
       style="fill:#231f20;fill-opacity:1;fill-rule:nonzero;stroke:none;stroke-width:0.1"
       id="path844" />
    <path
       d="m 616.592,603.192 c 0,-0.623 -0.5,-1.126 -1.126,-1.126 -0.623,0 -1.126,0.503 -1.126,1.126 0,0.623 0.503,1.127 1.126,1.127 0.626,0 1.126,-0.504 1.126,-1.127"
       style="fill:#231f20;fill-opacity:1;fill-rule:nonzero;stroke:none;stroke-width:0.1"
       id="path846" />
    <path
       d="m 619.592,574.69 c 0,-0.623 -0.501,-1.126 -1.127,-1.126 -0.623,0 -1.126,0.503 -1.126,1.126 0,0.623 0.503,1.127 1.126,1.127 0.626,0 1.127,-0.504 1.127,-1.127"
       style="fill:#231f20;fill-opacity:1;fill-rule:nonzero;stroke:none;stroke-width:0.1"
       id="path848" />
    <path
       d="m 619.592,589.082 c 0,-0.623 -0.501,-1.125 -1.127,-1.125 -0.623,0 -1.126,0.502 -1.126,1.125 0,0.624 0.503,1.126 1.126,1.126 0.626,0 1.127,-0.502 1.127,-1.126"
       style="fill:#231f20;fill-opacity:1;fill-rule:nonzero;stroke:none;stroke-width:0.1"
       id="path850" />
    <path
       d="m 464.348,607.246 c 0,-0.623 0.5,-1.126 1.126,-1.126 0.623,0 1.126,0.503 1.126,1.126 0,0.623 -0.503,1.126 -1.126,1.126 -0.626,0 -1.126,-0.503 -1.126,-1.126"
       style="fill:#231f20;fill-opacity:1;fill-rule:nonzero;stroke:none;stroke-width:0.1"
       id="path852" />
    <path
       d="m 463.411,603.192 c 0,-0.623 0.501,-1.126 1.126,-1.126 0.623,0 1.127,0.503 1.127,1.126 0,0.623 -0.504,1.127 -1.127,1.127 -0.625,0 -1.126,-0.504 -1.126,-1.127"
       style="fill:#231f20;fill-opacity:1;fill-rule:nonzero;stroke:none;stroke-width:0.1"
       id="path854" />
    <path
       d="m 460.412,574.69 c 0,-0.623 0.5,-1.126 1.126,-1.126 0.623,0 1.126,0.503 1.126,1.126 0,0.623 -0.503,1.127 -1.126,1.127 -0.626,0 -1.126,-0.504 -1.126,-1.127"
       style="fill:#231f20;fill-opacity:1;fill-rule:nonzero;stroke:none;stroke-width:0.1"
       id="path856" />
    <path
       d="m 460.412,589.082 c 0,-0.623 0.5,-1.125 1.126,-1.125 0.623,0 1.126,0.502 1.126,1.125 0,0.624 -0.503,1.126 -1.126,1.126 -0.626,0 -1.126,-0.502 -1.126,-1.126"
       style="fill:#231f20;fill-opacity:1;fill-rule:nonzero;stroke:none;stroke-width:0.1"
       id="path858" />
    <path
       d="m 591.69,790.069 c 0,0 86.205,17.263 105.009,16.219"
       style="fill:none;stroke:#231f20;stroke-width:0.5;stroke-linecap:round;stroke-linejoin:round;stroke-miterlimit:4;stroke-dasharray:2.8, 1.8;stroke-dashoffset:0;stroke-opacity:1"
       id="path860" />
    <path
       d="M 573.344,859.743 696.699,806.288"
       style="fill:none;stroke:#231f20;stroke-width:0.5;stroke-linecap:round;stroke-linejoin:round;stroke-miterlimit:4;stroke-dasharray:2.8, 1.8;stroke-dashoffset:0;stroke-opacity:1"
       id="path862" />
    <path
       d="m 622.76,880.326 c 10.911,-11.36 72.873,-73.577 72.873,-73.577"
       style="fill:none;stroke:#231f20;stroke-width:0.5;stroke-linecap:round;stroke-linejoin:round;stroke-miterlimit:4;stroke-dasharray:2.8, 1.8;stroke-dashoffset:0;stroke-opacity:1"
       id="path864" />
    <path
       d="m 673.657,895.389 21.976,-88.64"
       style="fill:none;stroke:#231f20;stroke-width:0.5;stroke-linecap:round;stroke-linejoin:round;stroke-miterlimit:4;stroke-dasharray:2.8, 1.8;stroke-dashoffset:0;stroke-opacity:1"
       id="path866" />
    <path
       d="M 768.939,874.988 741.422,786.704"
       style="fill:none;stroke:#231f20;stroke-width:0.5;stroke-linecap:round;stroke-linejoin:round;stroke-miterlimit:4;stroke-dasharray:2.8, 1.8;stroke-dashoffset:0;stroke-opacity:1"
       id="path868" />
    <path
       d="m 790.658,751.978 59.95,80.91"
       style="fill:none;stroke:#231f20;stroke-width:0.5;stroke-linecap:round;stroke-linejoin:round;stroke-miterlimit:4;stroke-dasharray:2.8, 1.8;stroke-dashoffset:0;stroke-opacity:1"
       id="path870" />
    <path
       d="m 842.405,701.176 77.21,57.654"
       style="fill:none;stroke:#231f20;stroke-width:0.5;stroke-linecap:round;stroke-linejoin:round;stroke-miterlimit:4;stroke-dasharray:2.8, 1.8;stroke-dashoffset:0;stroke-opacity:1"
       id="path872" />
    <path
       d="m 864.495,649.507 90.233,9.936"
       style="fill:none;stroke:#231f20;stroke-width:0.5;stroke-linecap:round;stroke-linejoin:round;stroke-miterlimit:4;stroke-dasharray:2.8, 1.8;stroke-dashoffset:0;stroke-opacity:1"
       id="path874" />
    <path
       d="m 867.053,622.435 80.269,-32.688"
       style="fill:none;stroke:#231f20;stroke-width:0.5;stroke-linecap:round;stroke-linejoin:round;stroke-miterlimit:4;stroke-dasharray:2.8, 1.8;stroke-dashoffset:0;stroke-opacity:1"
       id="path876" />
    <path
       d="m 864.768,603.132 c 0,0 44.94,-28.042 70.303,-42.34"
       style="fill:none;stroke:#231f20;stroke-width:0.5;stroke-linecap:round;stroke-linejoin:round;stroke-miterlimit:4;stroke-dasharray:2.8, 1.8;stroke-dashoffset:0;stroke-opacity:1"
       id="path878" />
    <path
       d="m 785.841,579.251 c 7.437,1.597 11.143,-9.053 12.188,-14.973 1.045,-5.92 6.267,-31.34 13.929,-39.349 7.661,-8.009 11.834,-16.502 20.544,-16.714 7.138,-0.173 21.502,1.655 22.982,-3.83 1.477,-5.471 4.527,-15.67 -3.482,-18.803 -8.008,-3.135 -20.893,-7.662 -29.25,-3.832 -8.357,3.832 -25.071,15.323 -29.25,20.894 -4.178,5.571 -9.402,22.285 -11.491,37.606 -2.09,15.323 -1.045,37.957 3.83,39.001 z"
       style="fill:none;stroke:#231f20;stroke-width:0.5;stroke-linecap:round;stroke-linejoin:round;stroke-miterlimit:4;stroke-dasharray:2.8, 1.8;stroke-dashoffset:0;stroke-opacity:1"
       id="path880" />
    <path
       d="m 745.847,561.861 82.429,37.092"
       style="fill:none;stroke:#231f20;stroke-width:0.5;stroke-linecap:round;stroke-linejoin:round;stroke-miterlimit:4;stroke-dasharray:2.8, 1.8;stroke-dashoffset:0;stroke-opacity:1"
       id="path882" />
    <path
       d="M 835.476,571.695 802.651,456.022"
       style="fill:none;stroke:#231f20;stroke-width:0.5;stroke-linecap:round;stroke-linejoin:round;stroke-miterlimit:4;stroke-dasharray:2.8, 1.8;stroke-dashoffset:0;stroke-opacity:1"
       id="path884" />
    <path
       d="m 769.423,666.793 c 1.445,0.152 2.573,-4.587 3.186,-8.497 1.135,-7.232 4.179,-20.892 3.482,-35.17 -0.696,-14.277 -1.916,-26.087 -2.089,-28.544 -0.348,-4.971 -4.849,-8.724 -11.839,-8.367 -6.79,0.349 -9.402,2.089 -10.447,12.188 -1.045,10.098 -1.392,27.857 -1.741,35.518 -0.348,7.661 -1.393,13.929 1.741,21.242 0.078,0.18 0.157,0.362 0.236,0.545"
       style="fill:none;stroke:#231f20;stroke-width:0.5;stroke-linecap:round;stroke-linejoin:round;stroke-miterlimit:4;stroke-dasharray:2.8, 1.8;stroke-dashoffset:0;stroke-opacity:1"
       id="path886" />
    <path
       d="m 681.416,760.817 39.308,24.625"
       style="fill:none;stroke:#231f20;stroke-width:0.5;stroke-linecap:round;stroke-linejoin:round;stroke-miterlimit:4;stroke-dasharray:2.8, 1.8;stroke-dashoffset:0;stroke-opacity:1"
       id="path888" />
    <path
       d="m 549.069,723.051 c -2.451,5.237 0.335,18.469 9.388,24.737 9.053,6.267 20.893,13.232 42.831,11.491 21.937,-1.741 37.955,-9.75 42.482,-15.321 4.526,-5.572 6.866,-16.644 -1.442,-16.854"
       style="fill:none;stroke:#231f20;stroke-width:0.5;stroke-linecap:round;stroke-linejoin:round;stroke-miterlimit:4;stroke-dasharray:2.8, 1.8;stroke-dashoffset:0;stroke-opacity:1"
       id="path890" />
    <path
       d="m 656.46,727.303 c 5.416,2.377 14.47,2.029 22.828,-1.104 8.357,-3.134 13.928,-16.367 17.758,-22.286 3.83,-5.92 19.153,-32.037 22.286,-57.108 3.134,-25.071 2.089,-46.313 -1.741,-59.197"
       style="fill:none;stroke:#231f20;stroke-width:0.5;stroke-linecap:round;stroke-linejoin:round;stroke-miterlimit:4;stroke-dasharray:2.8, 1.8;stroke-dashoffset:0;stroke-opacity:1"
       id="path892" />
    <path
       d="m 572.733,527.37 c 0.715,-1.108 1.669,-1.496 2.786,-1.745 4.701,-1.043 14.277,-3.133 18.456,2.438 4.179,5.572 5.223,10.447 -6.174,17.518"
       style="fill:none;stroke:#231f20;stroke-width:0.5;stroke-linecap:round;stroke-linejoin:round;stroke-miterlimit:4;stroke-dasharray:2.8, 1.8;stroke-dashoffset:0;stroke-opacity:1"
       id="path894" />
    <path
       d="m 552.639,636.721 c 7.559,6.95 16.349,14.581 19.441,31.485"
       style="fill:none;stroke:#231f20;stroke-width:0.5;stroke-linecap:round;stroke-linejoin:round;stroke-miterlimit:4;stroke-dasharray:2.8, 1.8;stroke-dashoffset:0;stroke-opacity:1"
       id="path896" />
    <path
       d="m 561.084,624.549 c 7.123,0.667 33.587,8.327 39.159,28.872"
       style="fill:none;stroke:#231f20;stroke-width:0.5;stroke-linecap:round;stroke-linejoin:round;stroke-miterlimit:4;stroke-dasharray:2.8, 1.8;stroke-dashoffset:0;stroke-opacity:1"
       id="path898" />
    <path
       d="m 555.554,610.153 c 0,0 39.786,-13.575 59.3,-14.576"
       style="fill:none;stroke:#231f20;stroke-width:0.5;stroke-linecap:round;stroke-linejoin:round;stroke-miterlimit:4;stroke-dasharray:2.8, 1.8;stroke-dashoffset:0;stroke-opacity:1"
       id="path900" />
    <path
       d="m 556.183,584.744 c 0,0 -3.298,-14.895 -4.69,-17.68 -1.393,-2.786 0.348,-6.616 2.089,-10.447 1.741,-3.83 4.244,-13.841 -0.664,-20.327"
       style="fill:none;stroke:#231f20;stroke-width:0.5;stroke-linecap:round;stroke-linejoin:round;stroke-miterlimit:4;stroke-dasharray:2.8, 1.8;stroke-dashoffset:0;stroke-opacity:1"
       id="path902" />
    <path
       d="m 643.421,632.18 c 4.875,-8.009 18.108,-26.813 28.205,-32.385 10.099,-5.571 31.688,-11.142 41.438,-11.838 9.751,-0.697 17.411,-1.045 17.411,-1.045"
       style="fill:none;stroke:#231f20;stroke-width:0.5;stroke-linecap:round;stroke-linejoin:round;stroke-miterlimit:4;stroke-dasharray:2.8, 1.8;stroke-dashoffset:0;stroke-opacity:1"
       id="path904" />
    <path
       d="m 619.664,581.787 c 5.65,-5.322 27.501,-15.072 37.69,-17.593"
       style="fill:none;stroke:#231f20;stroke-width:0.5;stroke-linecap:round;stroke-linejoin:round;stroke-miterlimit:4;stroke-dasharray:2.8, 1.8;stroke-dashoffset:0;stroke-opacity:1"
       id="path906" />
    <path
       d="m 730.765,579.744 c -5.513,0.554 -17.004,-0.493 -22.227,-3.975 -5.224,-3.482 -11.143,-7.312 -21.938,-8.357 -8.434,-0.817 -14.974,-1.393 -19.848,-1.393 -4.876,0 -13.581,-1.393 -13.581,-7.661 0,-6.268 2.438,-14.625 3.831,-23.33"
       style="fill:none;stroke:#231f20;stroke-width:0.5;stroke-linecap:round;stroke-linejoin:round;stroke-miterlimit:4;stroke-dasharray:2.8, 1.8;stroke-dashoffset:0;stroke-opacity:1"
       id="path908" />
    <path
       d="m 732.708,577.905 c -5.018,-1.091 -7.108,-4.573 -7.804,-8.404 -0.696,-3.831 -2.089,-12.187 -3.134,-16.366 -1.045,-4.178 -0.305,-8.188 5.593,-8.447"
       style="fill:none;stroke:#231f20;stroke-width:0.5;stroke-linecap:round;stroke-linejoin:round;stroke-miterlimit:4;stroke-dasharray:2.8, 1.8;stroke-dashoffset:0;stroke-opacity:1"
       id="path910" />
    <path
       d="m 724.208,491.153 c 2.663,-0.887 4.874,-5.571 1.741,-12.884 -3.134,-7.313 -8.358,-20.197 -21.59,-27.857 -13.233,-7.662 -13.929,-2.438 -11.839,3.83 2.089,6.267 10.446,18.803 16.018,25.071 5.571,6.269 12.536,12.885 15.67,11.84 z"
       style="fill:none;stroke:#231f20;stroke-width:0.5;stroke-linecap:round;stroke-linejoin:round;stroke-miterlimit:4;stroke-dasharray:2.8, 1.8;stroke-dashoffset:0;stroke-opacity:1"
       id="path912" />
    <path
       d="m 579.26,474.846 c 0.754,-3.476 3.92,-4.238 10.536,-3.542 6.617,0.696 19.757,3.67 34.731,14.813"
       style="fill:none;stroke:#231f20;stroke-width:0.5;stroke-linecap:round;stroke-linejoin:round;stroke-miterlimit:4;stroke-dasharray:2.8, 1.8;stroke-dashoffset:0;stroke-opacity:1"
       id="path914" />
    <path
       d="m 727.363,544.688 c -6.964,-0.349 -24.397,-3.393 -31.709,-6.526 -7.313,-3.134 -14.625,-6.617 -16.715,-6.617 -2.089,0 -12.187,-0.347 -21.937,3.483 -1.827,0.718 -2.786,-3.483 -3.831,-7.313 -1.045,-3.83 -5.223,-13.232 -11.142,-16.017 -5.92,-2.786 -12.884,-10.795 -14.277,-12.536 -1.393,-1.742 -3.134,-11.143 -3.482,-15.322 -0.349,-4.178 1.044,-7.661 7.312,-8.706 6.268,-1.044 19.5,2.438 26.464,5.92 6.965,3.483 10.099,5.224 15.322,18.456 4.901,12.416 5.538,18.76 5.571,32.035"
       style="fill:none;stroke:#231f20;stroke-width:0.5;stroke-linecap:round;stroke-linejoin:round;stroke-miterlimit:4;stroke-dasharray:2.8, 1.8;stroke-dashoffset:0;stroke-opacity:1"
       id="path916" />
    <path
       d="m 660.401,482.259 c 9.485,1.929 26.46,2.625 32.38,14.465"
       style="fill:none;stroke:#231f20;stroke-width:0.5;stroke-linecap:round;stroke-linejoin:round;stroke-miterlimit:4;stroke-dasharray:2.8, 1.8;stroke-dashoffset:0;stroke-opacity:1"
       id="path918" />
    <path
       d="m 666.165,407.053 c 4.243,1.399 11.255,-4.168 10.182,-10.302"
       style="fill:none;stroke:#231f20;stroke-width:0.5;stroke-linecap:round;stroke-linejoin:round;stroke-miterlimit:4;stroke-dasharray:2.8, 1.8;stroke-dashoffset:0;stroke-opacity:1"
       id="path920" />
    <path
       d="m 542.439,479.447 c 1.839,0.359 2.786,-0.83 3.83,-5.009 1.028,-4.107 0.349,-6.268 -1.044,-6.616 -1.393,-0.348 -3.134,0.234 -3.831,4.527 -0.614,3.798 -0.813,6.733 1.045,7.098 z"
       style="fill:none;stroke:#231f20;stroke-width:0.5;stroke-linecap:round;stroke-linejoin:round;stroke-miterlimit:4;stroke-dasharray:2.8, 1.8;stroke-dashoffset:0;stroke-opacity:1"
       id="path922" />
    <path
       d="m 549.205,483.612 c -1.311,-3.137 -1.774,-13.583 1.709,-15.207 3.481,-1.627 6.962,-1.162 10.212,2.551 3.25,3.716 6.741,9.75 -0.46,14.626"
       style="fill:none;stroke:#231f20;stroke-width:0.5;stroke-linecap:round;stroke-linejoin:round;stroke-miterlimit:4;stroke-dasharray:2.8, 1.8;stroke-dashoffset:0;stroke-opacity:1"
       id="path924" />
    <path
       d="m 530.935,723.051 c 2.45,5.237 -0.335,18.469 -9.389,24.737 -9.053,6.267 -20.893,13.232 -42.831,11.491 -21.937,-1.741 -37.955,-9.75 -42.481,-15.321 -4.527,-5.572 -6.867,-16.644 1.441,-16.854"
       style="fill:none;stroke:#231f20;stroke-width:0.5;stroke-linecap:round;stroke-linejoin:round;stroke-miterlimit:4;stroke-dasharray:2.8, 1.8;stroke-dashoffset:0;stroke-opacity:1"
       id="path926" />
    <path
       d="m 423.542,727.303 c -5.416,2.377 -14.469,2.029 -22.827,-1.104 -8.356,-3.134 -13.928,-16.367 -17.758,-22.286 -3.831,-5.92 -19.152,-32.037 -22.287,-57.108 -3.133,-25.071 -2.088,-46.313 1.742,-59.197"
       style="fill:none;stroke:#231f20;stroke-width:0.5;stroke-linecap:round;stroke-linejoin:round;stroke-miterlimit:4;stroke-dasharray:2.8, 1.8;stroke-dashoffset:0;stroke-opacity:1"
       id="path928" />
    <path
       d="m 507.271,527.37 c -0.716,-1.108 -1.669,-1.496 -2.787,-1.745 -4.701,-1.043 -14.277,-3.133 -18.456,2.438 -4.178,5.572 -5.223,10.447 6.175,17.518"
       style="fill:none;stroke:#231f20;stroke-width:0.5;stroke-linecap:round;stroke-linejoin:round;stroke-miterlimit:4;stroke-dasharray:2.8, 1.8;stroke-dashoffset:0;stroke-opacity:1"
       id="path930" />
    <path
       d="m 527.364,636.721 c -7.559,6.95 -16.349,14.581 -19.441,31.485"
       style="fill:none;stroke:#231f20;stroke-width:0.5;stroke-linecap:round;stroke-linejoin:round;stroke-miterlimit:4;stroke-dasharray:2.8, 1.8;stroke-dashoffset:0;stroke-opacity:1"
       id="path932" />
    <path
       d="m 518.919,624.549 c -7.123,0.667 -33.587,8.327 -39.159,28.872"
       style="fill:none;stroke:#231f20;stroke-width:0.5;stroke-linecap:round;stroke-linejoin:round;stroke-miterlimit:4;stroke-dasharray:2.8, 1.8;stroke-dashoffset:0;stroke-opacity:1"
       id="path934" />
    <path
       d="m 524.448,610.153 c 0,0 -39.785,-13.575 -59.299,-14.576"
       style="fill:none;stroke:#231f20;stroke-width:0.5;stroke-linecap:round;stroke-linejoin:round;stroke-miterlimit:4;stroke-dasharray:2.8, 1.8;stroke-dashoffset:0;stroke-opacity:1"
       id="path936" />
    <path
       d="m 483.063,561.775 c 0,0 28.733,15.735 37.438,20.958 8.706,5.224 13.581,8.706 19.501,8.706 5.919,0 10.794,-3.482 19.5,-8.706 8.705,-5.223 37.438,-20.958 37.438,-20.958"
       style="fill:none;stroke:#231f20;stroke-width:0.5;stroke-linecap:round;stroke-linejoin:round;stroke-miterlimit:4;stroke-dasharray:2.8, 1.8;stroke-dashoffset:0;stroke-opacity:1"
       id="path938" />
    <path
       d="m 496.777,547.773 c 8.31,9.96 38.002,13.371 43.225,13.371 5.223,0 34.914,-3.411 43.224,-13.371"
       style="fill:none;stroke:#231f20;stroke-width:0.5;stroke-linecap:round;stroke-linejoin:round;stroke-miterlimit:4;stroke-dasharray:2.8, 1.8;stroke-dashoffset:0;stroke-opacity:1"
       id="path940" />
    <path
       d="m 523.821,584.744 c 0,0 3.297,-14.895 4.689,-17.68 1.394,-2.786 -0.347,-6.616 -2.089,-10.447 -1.741,-3.83 -4.244,-13.841 0.664,-20.327"
       style="fill:none;stroke:#231f20;stroke-width:0.5;stroke-linecap:round;stroke-linejoin:round;stroke-miterlimit:4;stroke-dasharray:2.8, 1.8;stroke-dashoffset:0;stroke-opacity:1"
       id="path942" />
    <path
       d="m 436.582,632.18 c -4.875,-8.009 -18.108,-26.813 -28.206,-32.385 -10.098,-5.571 -31.687,-11.142 -41.437,-11.838 -9.75,-0.697 -17.411,-1.045 -17.411,-1.045"
       style="fill:none;stroke:#231f20;stroke-width:0.5;stroke-linecap:round;stroke-linejoin:round;stroke-miterlimit:4;stroke-dasharray:2.8, 1.8;stroke-dashoffset:0;stroke-opacity:1"
       id="path944" />
    <path
       d="m 460.339,581.787 c -5.65,-5.322 -27.501,-15.072 -37.69,-17.593"
       style="fill:none;stroke:#231f20;stroke-width:0.5;stroke-linecap:round;stroke-linejoin:round;stroke-miterlimit:4;stroke-dasharray:2.8, 1.8;stroke-dashoffset:0;stroke-opacity:1"
       id="path946" />
    <path
       d="m 349.238,579.744 c 5.513,0.554 17.005,-0.493 22.227,-3.975 5.224,-3.482 11.144,-7.312 21.938,-8.357 8.433,-0.817 14.973,-1.393 19.848,-1.393 4.875,0 13.581,-1.393 13.581,-7.661 0,-6.268 -2.438,-14.625 -3.831,-23.33"
       style="fill:none;stroke:#231f20;stroke-width:0.5;stroke-linecap:round;stroke-linejoin:round;stroke-miterlimit:4;stroke-dasharray:2.8, 1.8;stroke-dashoffset:0;stroke-opacity:1"
       id="path948" />
    <path
       d="m 347.294,577.905 c 5.02,-1.091 7.109,-4.573 7.805,-8.404 0.696,-3.831 2.09,-12.187 3.134,-16.366 1.045,-4.178 0.305,-8.188 -5.593,-8.447"
       style="fill:none;stroke:#231f20;stroke-width:0.5;stroke-linecap:round;stroke-linejoin:round;stroke-miterlimit:4;stroke-dasharray:2.8, 1.8;stroke-dashoffset:0;stroke-opacity:1"
       id="path950" />
    <path
       d="m 355.795,491.153 c -2.663,-0.887 -4.875,-5.571 -1.74,-12.884 3.134,-7.313 8.357,-20.197 21.589,-27.857 13.232,-7.662 13.929,-2.438 11.84,3.83 -2.09,6.267 -10.447,18.803 -16.019,25.071 -5.571,6.269 -12.535,12.885 -15.67,11.84 z"
       style="fill:none;stroke:#231f20;stroke-width:0.5;stroke-linecap:round;stroke-linejoin:round;stroke-miterlimit:4;stroke-dasharray:2.8, 1.8;stroke-dashoffset:0;stroke-opacity:1"
       id="path952" />
    <path
       d="m 500.743,474.846 c -0.753,-3.476 -3.92,-4.238 -10.536,-3.542 -6.617,0.696 -19.757,3.67 -34.731,14.813"
       style="fill:none;stroke:#231f20;stroke-width:0.5;stroke-linecap:round;stroke-linejoin:round;stroke-miterlimit:4;stroke-dasharray:2.8, 1.8;stroke-dashoffset:0;stroke-opacity:1"
       id="path954" />
    <path
       d="m 352.64,544.688 c 6.964,-0.349 24.397,-3.393 31.709,-6.526 7.313,-3.134 14.625,-6.617 16.715,-6.617 2.089,0 12.187,-0.347 21.937,3.483 1.828,0.718 2.786,-3.483 3.831,-7.313 1.044,-3.83 5.223,-13.232 11.142,-16.017 5.92,-2.786 12.885,-10.795 14.277,-12.536 1.393,-1.742 3.134,-11.143 3.483,-15.322 0.348,-4.178 -1.045,-7.661 -7.313,-8.706 -6.268,-1.044 -19.5,2.438 -26.464,5.92 -6.964,3.483 -10.098,5.224 -15.322,18.456 -4.9,12.416 -5.537,18.76 -5.571,32.035"
       style="fill:none;stroke:#231f20;stroke-width:0.5;stroke-linecap:round;stroke-linejoin:round;stroke-miterlimit:4;stroke-dasharray:2.8, 1.8;stroke-dashoffset:0;stroke-opacity:1"
       id="path956" />
    <path
       d="m 419.602,482.259 c -9.484,1.929 -26.46,2.625 -32.38,14.465"
       style="fill:none;stroke:#231f20;stroke-width:0.5;stroke-linecap:round;stroke-linejoin:round;stroke-miterlimit:4;stroke-dasharray:2.8, 1.8;stroke-dashoffset:0;stroke-opacity:1"
       id="path958" />
    <path
       d="m 413.839,407.053 c -4.244,1.399 -11.255,-4.168 -10.182,-10.302"
       style="fill:none;stroke:#231f20;stroke-width:0.5;stroke-linecap:round;stroke-linejoin:round;stroke-miterlimit:4;stroke-dasharray:2.8, 1.8;stroke-dashoffset:0;stroke-opacity:1"
       id="path960" />
    <path
       d="m 537.564,479.447 c -1.84,0.359 -2.785,-0.83 -3.83,-5.009 -1.027,-4.107 -0.349,-6.268 1.045,-6.616 1.392,-0.348 3.134,0.234 3.83,4.527 0.614,3.798 0.813,6.733 -1.045,7.098 z"
       style="fill:none;stroke:#231f20;stroke-width:0.5;stroke-linecap:round;stroke-linejoin:round;stroke-miterlimit:4;stroke-dasharray:2.8, 1.8;stroke-dashoffset:0;stroke-opacity:1"
       id="path962" />
    <path
       d="m 530.798,483.612 c 1.311,-3.137 1.775,-13.583 -1.708,-15.207 -3.481,-1.627 -6.963,-1.162 -10.214,2.551 -3.25,3.716 -6.74,9.75 0.46,14.626"
       style="fill:none;stroke:#231f20;stroke-width:0.5;stroke-linecap:round;stroke-linejoin:round;stroke-miterlimit:4;stroke-dasharray:2.8, 1.8;stroke-dashoffset:0;stroke-opacity:1"
       id="path964" />
    <path
       d="m 529.888,468.998 c -2.19,-12.898 -4.048,-21.487 -3.583,-36.808 0.464,-15.321 2.555,-25.536 3.715,-28.322 1.16,-2.786 2.553,-5.572 9.982,-5.572 7.429,0 8.822,2.786 9.981,5.572 1.161,2.786 3.251,13.001 3.716,28.322 0.464,15.321 -1.393,23.91 -3.583,36.808"
       style="fill:none;stroke:#231f20;stroke-width:0.5;stroke-linecap:round;stroke-linejoin:round;stroke-miterlimit:4;stroke-dasharray:2.8, 1.8;stroke-dashoffset:0;stroke-opacity:1"
       id="path966" />
    <path
       d="m 736.799,646.402 64.712,40.448"
       style="fill:none;stroke:#231f20;stroke-width:0.5;stroke-linecap:round;stroke-linejoin:round;stroke-miterlimit:4;stroke-dasharray:2.8, 1.8;stroke-dashoffset:0;stroke-opacity:1"
       id="path968" />
    <path
       d="m 852.657,450.422 -9.729,119.415"
       style="fill:none;stroke:#231f20;stroke-width:0.5;stroke-linecap:round;stroke-linejoin:round;stroke-miterlimit:4;stroke-dasharray:2.8, 1.8;stroke-dashoffset:0;stroke-opacity:1"
       id="path970" />
    <path
       d="m 909.513,489.634 -58.347,84.045"
       style="fill:none;stroke:#231f20;stroke-width:0.5;stroke-linecap:round;stroke-linejoin:round;stroke-miterlimit:4;stroke-dasharray:2.8, 1.8;stroke-dashoffset:0;stroke-opacity:1"
       id="path972" />
    <path
       d="m 488.313,790.069 c 0,0 -86.204,17.263 -105.008,16.219"
       style="fill:none;stroke:#231f20;stroke-width:0.5;stroke-linecap:round;stroke-linejoin:round;stroke-miterlimit:4;stroke-dasharray:2.8, 1.8;stroke-dashoffset:0;stroke-opacity:1"
       id="path974" />
    <path
       d="M 506.659,859.743 383.305,806.288"
       style="fill:none;stroke:#231f20;stroke-width:0.5;stroke-linecap:round;stroke-linejoin:round;stroke-miterlimit:4;stroke-dasharray:2.8, 1.8;stroke-dashoffset:0;stroke-opacity:1"
       id="path976" />
    <path
       d="M 457.244,880.326 C 446.332,868.966 384.37,806.749 384.37,806.749"
       style="fill:none;stroke:#231f20;stroke-width:0.5;stroke-linecap:round;stroke-linejoin:round;stroke-miterlimit:4;stroke-dasharray:2.8, 1.8;stroke-dashoffset:0;stroke-opacity:1"
       id="path978" />
    <path
       d="M 406.347,895.389 384.37,806.749"
       style="fill:none;stroke:#231f20;stroke-width:0.5;stroke-linecap:round;stroke-linejoin:round;stroke-miterlimit:4;stroke-dasharray:2.8, 1.8;stroke-dashoffset:0;stroke-opacity:1"
       id="path980" />
    <path
       d="m 311.064,874.988 27.517,-88.284"
       style="fill:none;stroke:#231f20;stroke-width:0.5;stroke-linecap:round;stroke-linejoin:round;stroke-miterlimit:4;stroke-dasharray:2.8, 1.8;stroke-dashoffset:0;stroke-opacity:1"
       id="path982" />
    <path
       d="m 289.345,751.978 -59.95,80.91"
       style="fill:none;stroke:#231f20;stroke-width:0.5;stroke-linecap:round;stroke-linejoin:round;stroke-miterlimit:4;stroke-dasharray:2.8, 1.8;stroke-dashoffset:0;stroke-opacity:1"
       id="path984" />
    <path
       d="m 237.599,701.176 -77.21,57.654"
       style="fill:none;stroke:#231f20;stroke-width:0.5;stroke-linecap:round;stroke-linejoin:round;stroke-miterlimit:4;stroke-dasharray:2.8, 1.8;stroke-dashoffset:0;stroke-opacity:1"
       id="path986" />
    <path
       d="m 215.508,649.507 -90.233,9.936"
       style="fill:none;stroke:#231f20;stroke-width:0.5;stroke-linecap:round;stroke-linejoin:round;stroke-miterlimit:4;stroke-dasharray:2.8, 1.8;stroke-dashoffset:0;stroke-opacity:1"
       id="path988" />
    <path
       d="M 212.95,622.435 132.681,589.747"
       style="fill:none;stroke:#231f20;stroke-width:0.5;stroke-linecap:round;stroke-linejoin:round;stroke-miterlimit:4;stroke-dasharray:2.8, 1.8;stroke-dashoffset:0;stroke-opacity:1"
       id="path990" />
    <path
       d="m 215.236,603.132 c 0,0 -44.941,-28.042 -70.303,-42.34"
       style="fill:none;stroke:#231f20;stroke-width:0.5;stroke-linecap:round;stroke-linejoin:round;stroke-miterlimit:4;stroke-dasharray:2.8, 1.8;stroke-dashoffset:0;stroke-opacity:1"
       id="path992" />
    <path
       d="m 294.162,579.251 c -7.437,1.597 -11.143,-9.053 -12.188,-14.973 -1.045,-5.92 -6.267,-31.34 -13.929,-39.349 -7.66,-8.009 -11.835,-16.502 -20.544,-16.714 -7.138,-0.173 -21.502,1.655 -22.982,-3.83 -1.477,-5.471 -4.527,-15.67 3.481,-18.803 8.01,-3.135 20.894,-7.662 29.251,-3.832 8.357,3.832 25.072,15.323 29.25,20.894 4.178,5.571 9.402,22.285 11.491,37.606 2.09,15.323 1.045,37.957 -3.83,39.001 z"
       style="fill:none;stroke:#231f20;stroke-width:0.5;stroke-linecap:round;stroke-linejoin:round;stroke-miterlimit:4;stroke-dasharray:2.8, 1.8;stroke-dashoffset:0;stroke-opacity:1"
       id="path994" />
    <path
       d="m 334.156,561.861 -82.429,37.092"
       style="fill:none;stroke:#231f20;stroke-width:0.5;stroke-linecap:round;stroke-linejoin:round;stroke-miterlimit:4;stroke-dasharray:2.8, 1.8;stroke-dashoffset:0;stroke-opacity:1"
       id="path996" />
    <path
       d="M 244.528,571.695 277.352,456.022"
       style="fill:none;stroke:#231f20;stroke-width:0.5;stroke-linecap:round;stroke-linejoin:round;stroke-miterlimit:4;stroke-dasharray:2.8, 1.8;stroke-dashoffset:0;stroke-opacity:1"
       id="path998" />
    <path
       d="m 310.58,666.793 c -1.445,0.152 -2.573,-4.587 -3.186,-8.497 -1.135,-7.232 -4.179,-20.892 -3.482,-35.17 0.696,-14.277 1.917,-26.087 2.089,-28.544 0.348,-4.971 4.849,-8.724 11.839,-8.367 6.79,0.349 9.403,2.089 10.447,12.188 1.045,10.098 1.393,27.857 1.741,35.518 0.348,7.661 1.392,13.929 -1.741,21.242 -0.077,0.18 -0.157,0.362 -0.236,0.545"
       style="fill:none;stroke:#231f20;stroke-width:0.5;stroke-linecap:round;stroke-linejoin:round;stroke-miterlimit:4;stroke-dasharray:2.8, 1.8;stroke-dashoffset:0;stroke-opacity:1"
       id="path1000" />
    <path
       d="M 398.586,760.817 359.28,785.442"
       style="fill:none;stroke:#231f20;stroke-width:0.5;stroke-linecap:round;stroke-linejoin:round;stroke-miterlimit:4;stroke-dasharray:2.8, 1.8;stroke-dashoffset:0;stroke-opacity:1"
       id="path1002" />
    <path
       d="M 343.205,646.402 278.492,686.85"
       style="fill:none;stroke:#231f20;stroke-width:0.5;stroke-linecap:round;stroke-linejoin:round;stroke-miterlimit:4;stroke-dasharray:2.8, 1.8;stroke-dashoffset:0;stroke-opacity:1"
       id="path1004" />
    <path
       d="m 227.347,450.422 9.728,119.415"
       style="fill:none;stroke:#231f20;stroke-width:0.5;stroke-linecap:round;stroke-linejoin:round;stroke-miterlimit:4;stroke-dasharray:2.8, 1.8;stroke-dashoffset:0;stroke-opacity:1"
       id="path1006" />
    <path
       d="m 170.49,489.634 58.347,84.045"
       style="fill:none;stroke:#231f20;stroke-width:0.5;stroke-linecap:round;stroke-linejoin:round;stroke-miterlimit:4;stroke-dasharray:2.8, 1.8;stroke-dashoffset:0;stroke-opacity:1"
       id="path1008" />
    <path
       d="m 652.126,478.617 c -0.347,-8.009 -3.065,-17.117 -5.188,-23.358"
       style="fill:none;stroke:#231f20;stroke-width:0.5;stroke-linecap:round;stroke-linejoin:round;stroke-miterlimit:4;stroke-dasharray:2.8, 1.8;stroke-dashoffset:0;stroke-opacity:1"
       id="path1010" />
    <path
       d="m 575.756,417.451 c 4.527,-4.527 13.692,-6.388 21.004,-5.692 7.313,0.697 20.894,3.134 27.51,6.269 6.615,3.134 12.799,9.442 15.976,16.214"
       style="fill:none;stroke:#231f20;stroke-width:0.5;stroke-linecap:round;stroke-linejoin:round;stroke-miterlimit:4;stroke-dasharray:2.8, 1.8;stroke-dashoffset:0;stroke-opacity:1"
       id="path1012" />
    <path
       d="m 427.876,478.617 c 0.348,-8.009 3.066,-17.117 5.19,-23.358"
       style="fill:none;stroke:#231f20;stroke-width:0.5;stroke-linecap:round;stroke-linejoin:round;stroke-miterlimit:4;stroke-dasharray:2.8, 1.8;stroke-dashoffset:0;stroke-opacity:1"
       id="path1014" />
    <path
       d="m 504.247,417.451 c -4.527,-4.527 -13.692,-6.388 -21.004,-5.692 -7.313,0.697 -20.893,3.134 -27.509,6.269 -6.616,3.134 -12.8,9.442 -15.976,16.214"
       style="fill:none;stroke:#231f20;stroke-width:0.5;stroke-linecap:round;stroke-linejoin:round;stroke-miterlimit:4;stroke-dasharray:2.8, 1.8;stroke-dashoffset:0;stroke-opacity:1"
       id="path1016" />
  </g>
</svg>
