<?xml version="1.0" encoding="UTF-8" standalone="no"?>
<!-- Created with Inkscape (http://www.inkscape.org/) -->

<svg
   version="1.1"
   id="svg2"
   width="1440"
   height="1344"
   viewBox="0 0 1440 1344"
   xmlns="http://www.w3.org/2000/svg"
   xmlns:svg="http://www.w3.org/2000/svg">
  <defs
     id="defs6" />
  <g
     id="g8">
    <path
       d="m 338.037,582.733 c -2.089,5.571 -3.482,16.366 -2.438,28.206 1.045,11.84 5.571,18.804 6.965,21.937 1.393,3.135 1.192,6.214 4.179,13.929 3.556,9.19 7.136,15.672 10.505,20.407 3.771,7.799 15.959,31.826 24.316,45.406 8.357,13.581 19.5,27.509 23.33,31.687 3.83,4.179 10.438,8.768 18.804,10.099 15.321,2.437 39.696,10.098 55.366,16.714 15.67,6.616 31.642,16.153 38.652,26.116 6.616,9.402 10.794,20.197 10.447,32.385 -0.349,12.187 -7.662,24.375 -13.581,29.25 -5.919,4.875 -31.688,21.937 -58.5,25.419 -26.813,3.482 -74.867,2.786 -117.697,-7.313 -42.831,-10.098 -80.437,-29.25 -120.482,-59.893 -40.045,-30.642 -65.465,-67.902 -79.045,-93.321 -13.58,-25.42 -32.269,-65.465 -28.554,-105.857 3.715,-40.394 11.145,-51.537 14.858,-56.179 3.714,-4.643 9.286,-8.821 11.143,-13 1.857,-4.179 1.392,-15.321 2.321,-22.751 0.928,-7.43 8.909,-24.457 22.75,-45.034 17.178,-25.536 44.107,-51.073 67.786,-60.358 23.678,-9.285 48.286,-15.784 70.571,1.858 22.286,17.642 44.154,50.138 47.357,87.285 2.323,26.928 -7.893,40.393 -9.053,73.008"
       style="fill:#ffffff;fill-opacity:1;fill-rule:nonzero;stroke:none;stroke-width:0.1"
       id="path672" />
    <path
       d="m 338.037,582.733 c -2.089,5.571 -3.482,16.366 -2.438,28.206 1.045,11.84 5.571,18.804 6.965,21.937 1.393,3.135 1.192,6.214 4.179,13.929 3.556,9.19 7.136,15.672 10.505,20.407 3.771,7.799 15.959,31.826 24.316,45.406 8.357,13.581 19.5,27.509 23.33,31.687 3.83,4.179 10.438,8.768 18.804,10.099 15.321,2.437 39.696,10.098 55.366,16.714 15.67,6.616 31.642,16.153 38.652,26.116 6.616,9.402 10.794,20.197 10.447,32.385 -0.349,12.187 -7.662,24.375 -13.581,29.25 -5.919,4.875 -31.688,21.937 -58.5,25.419 -26.813,3.482 -74.867,2.786 -117.697,-7.313 -42.831,-10.098 -80.437,-29.25 -120.482,-59.893 -40.045,-30.642 -65.465,-67.902 -79.045,-93.321 -13.58,-25.42 -32.269,-65.465 -28.554,-105.857 3.715,-40.394 11.145,-51.537 14.858,-56.179 3.714,-4.643 9.286,-8.821 11.143,-13 1.857,-4.179 1.392,-15.321 2.321,-22.751 0.928,-7.43 8.909,-24.457 22.75,-45.034 17.178,-25.536 44.107,-51.073 67.786,-60.358 23.678,-9.285 48.286,-15.784 70.571,1.858 22.286,17.642 44.154,50.138 47.357,87.285 2.323,26.928 -7.893,40.393 -9.053,73.008 z"
       style="fill:none;stroke:#231f20;stroke-width:0.75;stroke-linecap:round;stroke-linejoin:round;stroke-miterlimit:4;stroke-dasharray:none;stroke-opacity:1"
       id="path674" />
    <path
       d="m 335.019,764.154 c -7.429,-4.643 -34.358,-22.286 -43.179,-30.643 -8.821,-8.357 -11.143,-13.465 -12.536,-16.25 -1.392,-2.786 -6.499,-4.179 -12.07,-6.965 -5.571,-2.785 -30.644,-15.786 -55.715,-53.857 -25.071,-38.071 -19.117,-83.703 11.144,-131.393"
       style="fill:none;stroke:#231f20;stroke-width:0.75;stroke-linecap:round;stroke-linejoin:round;stroke-miterlimit:4;stroke-dasharray:none;stroke-opacity:1"
       id="path676" />
    <path
       d="m 423.698,806.404 c 0.712,-1.777 -18.572,-12.999 -34.822,-22.285 -16.25,-9.287 -43.642,-34.358 -56.178,-52.465 -12.535,-18.108 -19.5,-34.822 -26,-43.643 -6.501,-8.822 -13,-16.251 -19.964,-14.857"
       style="fill:none;stroke:#231f20;stroke-width:0.5;stroke-linecap:butt;stroke-linejoin:miter;stroke-miterlimit:4;stroke-dasharray:none;stroke-opacity:1"
       id="path678" />
    <path
       d="m 544.529,314.956 c 0,-1.923 -2.027,-3.482 -4.527,-3.482 -2.5,0 -4.527,1.559 -4.527,3.482 0,1.923 2.027,3.482 4.527,3.482 2.5,0 4.527,-1.559 4.527,-3.482"
       style="fill:#ffffff;fill-opacity:1;fill-rule:nonzero;stroke:none;stroke-width:0.1"
       id="path680" />
    <path
       d="m 544.529,314.956 c 0,-1.923 -2.027,-3.482 -4.527,-3.482 -2.5,0 -4.527,1.559 -4.527,3.482 0,1.923 2.027,3.482 4.527,3.482 2.5,0 4.527,-1.559 4.527,-3.482 z"
       style="fill:none;stroke:#231f20;stroke-width:0.5;stroke-linecap:butt;stroke-linejoin:miter;stroke-miterlimit:4;stroke-dasharray:none;stroke-opacity:1"
       id="path682" />
    <path
       d="m 722.815,499.162 c 4.526,-1.393 -1.741,-18.804 -5.224,-17.759 -6.328,1.898 1.946,18.767 5.224,17.759"
       style="fill:#ffffff;fill-opacity:1;fill-rule:nonzero;stroke:none;stroke-width:0.1"
       id="path684" />
    <path
       d="m 722.815,499.162 c 4.526,-1.393 -1.741,-18.804 -5.224,-17.759 -6.328,1.898 1.946,18.767 5.224,17.759 z"
       style="fill:none;stroke:#231f20;stroke-width:0.5;stroke-linecap:butt;stroke-linejoin:miter;stroke-miterlimit:4;stroke-dasharray:none;stroke-opacity:1"
       id="path686" />
    <path
       d="m 702.506,697.779 c 0.356,-1.298 -0.709,-2.723 -2.376,-3.181 -1.669,-0.459 -3.312,0.223 -3.667,1.521 -0.358,1.297 0.707,2.721 2.375,3.179 1.669,0.459 3.312,-0.221 3.668,-1.519"
       style="fill:#ffffff;fill-opacity:1;fill-rule:nonzero;stroke:none;stroke-width:0.1"
       id="path688" />
    <path
       d="m 702.506,697.779 c 0.356,-1.298 -0.709,-2.723 -2.376,-3.181 -1.669,-0.459 -3.312,0.223 -3.667,1.521 -0.358,1.297 0.707,2.721 2.375,3.179 1.669,0.459 3.312,-0.221 3.668,-1.519 z"
       style="fill:none;stroke:#231f20;stroke-width:0.5;stroke-linecap:butt;stroke-linejoin:miter;stroke-miterlimit:4;stroke-dasharray:none;stroke-opacity:1"
       id="path690" />
    <path
       d="m 696.173,456.976 c -0.484,-1.461 -2.357,-2.152 -4.182,-1.545 -1.825,0.604 -2.912,2.279 -2.428,3.74 0.484,1.458 2.356,2.152 4.183,1.545 1.825,-0.603 2.912,-2.279 2.427,-3.74"
       style="fill:#ffffff;fill-opacity:1;fill-rule:nonzero;stroke:none;stroke-width:0.1"
       id="path692" />
    <path
       d="m 696.173,456.976 c -0.484,-1.461 -2.357,-2.152 -4.182,-1.545 -1.825,0.604 -2.912,2.279 -2.428,3.74 0.484,1.458 2.356,2.152 4.183,1.545 1.825,-0.603 2.912,-2.279 2.427,-3.74 z"
       style="fill:none;stroke:#231f20;stroke-width:0.5;stroke-linecap:butt;stroke-linejoin:miter;stroke-miterlimit:4;stroke-dasharray:none;stroke-opacity:1"
       id="path694" />
    <path
       d="m 357.189,499.162 c -4.527,-1.393 1.741,-18.804 5.223,-17.759 6.328,1.898 -1.945,18.765 -5.223,17.759"
       style="fill:#ffffff;fill-opacity:1;fill-rule:nonzero;stroke:none;stroke-width:0.1"
       id="path696" />
    <path
       d="m 357.189,499.162 c -4.527,-1.393 1.741,-18.804 5.223,-17.759 6.328,1.898 -1.945,18.765 -5.223,17.759 z"
       style="fill:none;stroke:#231f20;stroke-width:0.5;stroke-linecap:butt;stroke-linejoin:miter;stroke-miterlimit:4;stroke-dasharray:none;stroke-opacity:1"
       id="path698" />
    <path
       d="m 377.497,697.779 c -0.355,-1.298 0.709,-2.723 2.376,-3.181 1.669,-0.459 3.312,0.223 3.668,1.521 0.357,1.297 -0.708,2.721 -2.375,3.179 -1.669,0.459 -3.313,-0.221 -3.669,-1.519"
       style="fill:#ffffff;fill-opacity:1;fill-rule:nonzero;stroke:none;stroke-width:0.1"
       id="path700" />
    <path
       d="m 377.497,697.779 c -0.355,-1.298 0.709,-2.723 2.376,-3.181 1.669,-0.459 3.312,0.223 3.668,1.521 0.357,1.297 -0.708,2.721 -2.375,3.179 -1.669,0.459 -3.313,-0.221 -3.669,-1.519 z"
       style="fill:none;stroke:#231f20;stroke-width:0.5;stroke-linecap:butt;stroke-linejoin:miter;stroke-miterlimit:4;stroke-dasharray:none;stroke-opacity:1"
       id="path702" />
    <path
       d="m 383.83,456.976 c 0.484,-1.461 2.357,-2.154 4.182,-1.548 1.826,0.607 2.912,2.28 2.429,3.74 -0.484,1.461 -2.357,2.155 -4.183,1.548 -1.826,-0.606 -2.913,-2.282 -2.428,-3.74"
       style="fill:#ffffff;fill-opacity:1;fill-rule:nonzero;stroke:none;stroke-width:0.1"
       id="path704" />
    <path
       d="m 383.83,456.976 c 0.484,-1.461 2.357,-2.154 4.182,-1.548 1.826,0.607 2.912,2.28 2.429,3.74 -0.484,1.461 -2.357,2.155 -4.183,1.548 -1.826,-0.606 -2.913,-2.282 -2.428,-3.74 z"
       style="fill:none;stroke:#231f20;stroke-width:0.5;stroke-linecap:butt;stroke-linejoin:miter;stroke-miterlimit:4;stroke-dasharray:none;stroke-opacity:1"
       id="path706" />
    <path
       d="m 741.966,582.733 c 2.089,5.571 3.483,16.366 2.438,28.206 -1.045,11.84 -5.572,18.804 -6.964,21.937 -1.394,3.135 -1.193,6.214 -4.179,13.929 -3.557,9.19 -7.137,15.672 -10.505,20.407 -3.772,7.799 -15.96,31.826 -24.317,45.406 -8.357,13.581 -19.5,27.509 -23.33,31.687 -3.83,4.179 -10.437,8.768 -18.804,10.099 -15.321,2.437 -39.696,10.098 -55.366,16.714 -15.669,6.616 -31.641,16.153 -38.651,26.116 -6.617,9.402 -10.795,20.197 -10.447,32.385 0.348,12.187 7.661,24.375 13.58,29.25 5.92,4.875 31.688,21.937 58.5,25.419 26.813,3.482 74.867,2.786 117.697,-7.313 42.831,-10.098 80.438,-29.25 120.482,-59.893 40.045,-30.642 65.465,-67.902 79.045,-93.321 13.581,-25.42 32.269,-65.465 28.554,-105.857 -3.715,-40.394 -11.145,-51.537 -14.858,-56.179 -3.714,-4.643 -9.286,-8.821 -11.142,-13 -1.858,-4.179 -1.392,-15.321 -2.322,-22.751 -0.928,-7.43 -8.909,-24.457 -22.751,-45.034 -17.177,-25.536 -44.105,-51.073 -67.784,-60.358 -23.678,-9.285 -48.286,-15.784 -70.572,1.858 -22.286,17.642 -44.154,50.138 -47.357,87.285 -2.323,26.928 7.893,40.393 9.053,73.008"
       style="fill:#ffffff;fill-opacity:1;fill-rule:nonzero;stroke:none;stroke-width:0.1"
       id="path708" />
    <path
       d="m 741.966,582.733 c 2.089,5.571 3.483,16.366 2.438,28.206 -1.045,11.84 -5.572,18.804 -6.964,21.937 -1.394,3.135 -1.193,6.214 -4.179,13.929 -3.557,9.19 -7.137,15.672 -10.505,20.407 -3.772,7.799 -15.96,31.826 -24.317,45.406 -8.357,13.581 -19.5,27.509 -23.33,31.687 -3.83,4.179 -10.437,8.768 -18.804,10.099 -15.321,2.437 -39.696,10.098 -55.366,16.714 -15.669,6.616 -31.641,16.153 -38.651,26.116 -6.617,9.402 -10.795,20.197 -10.447,32.385 0.348,12.187 7.661,24.375 13.58,29.25 5.92,4.875 31.688,21.937 58.5,25.419 26.813,3.482 74.867,2.786 117.697,-7.313 42.831,-10.098 80.438,-29.25 120.482,-59.893 40.045,-30.642 65.465,-67.902 79.045,-93.321 13.581,-25.42 32.269,-65.465 28.554,-105.857 -3.715,-40.394 -11.145,-51.537 -14.858,-56.179 -3.714,-4.643 -9.286,-8.821 -11.142,-13 -1.858,-4.179 -1.392,-15.321 -2.322,-22.751 -0.928,-7.43 -8.909,-24.457 -22.751,-45.034 -17.177,-25.536 -44.105,-51.073 -67.784,-60.358 -23.678,-9.285 -48.286,-15.784 -70.572,1.858 -22.286,17.642 -44.154,50.138 -47.357,87.285 -2.323,26.928 7.893,40.393 9.053,73.008 z"
       style="fill:none;stroke:#231f20;stroke-width:0.75;stroke-linecap:round;stroke-linejoin:round;stroke-miterlimit:4;stroke-dasharray:none;stroke-opacity:1"
       id="path710" />
    <path
       d="m 540.002,318.438 c -2.438,0 -4.179,-0.349 -7.661,-2.438 -3.482,-2.088 -19.5,-4.874 -45.268,0.349 -25.768,5.223 -36.91,8.705 -57.804,26.464 -20.893,17.759 -25.768,45.268 -25.768,45.268 -1.392,-17.411 -14.277,-19.5 -22.286,-17.759 -8.008,1.741 -7.66,5.571 -7.66,5.571 -9.054,1.045 -13.232,7.313 -14.625,10.447 -1.393,3.134 -4.179,6.964 -10.447,12.536 -6.268,5.571 -14.625,13.58 -18.455,18.456 -3.83,4.874 -3.83,8.705 -1.393,11.838 2.438,3.134 6.964,7.662 11.839,11.839 4.875,4.179 11.491,1.741 15.321,-0.347 3.831,-2.09 16.715,-7.662 16.715,-7.662 -2.089,6.269 -1.392,7.662 0,9.054 1.393,1.393 6.268,6.616 13.929,5.572 7.66,-1.044 12.884,-9.402 12.884,-9.402 0,4.179 -5.224,19.848 -8.705,28.205 -3.483,8.358 -6.965,13.233 -10.795,18.804 -3.83,5.571 -11.143,18.107 -11.84,21.59 -0.696,3.481 -5.223,9.052 -8.009,13.58 -2.785,4.526 -9.054,17.759 -10.098,21.937 -1.044,4.179 -2.437,5.223 -2.089,7.66 0.348,2.438 -0.348,4.179 -0.697,6.617 -0.347,2.437 -6.964,20.545 -9.053,26.116 -2.089,5.571 -3.482,16.366 -2.438,28.206 1.045,11.84 5.571,18.804 6.965,21.937 1.393,3.135 1.192,6.214 4.179,13.929 3.556,9.19 7.136,15.672 10.505,20.407 4.324,6.08 8.299,9.28 11.432,11.629 5.571,4.179 9.402,3.83 11.491,3.483 2.089,-0.349 5.919,-1.045 7.313,1.392 0.863,1.512 1.044,4.527 -1.045,5.92 -2.09,1.393 -3.482,6.268 -2.438,14.277 1.045,8.008 11.839,22.633 21.938,33.08 10.098,10.447 34.821,21.241 61.286,27.161 26.464,5.92 43.179,0 55.018,-4.875 11.839,-4.875 17.759,-22.981 17.759,-26.464 0,3.483 5.919,21.589 17.758,26.464 11.84,4.875 28.554,10.795 55.019,4.875 26.464,-5.92 51.187,-16.714 61.285,-27.161 10.099,-10.447 20.894,-25.072 21.938,-33.08 1.044,-8.009 -0.348,-12.884 -2.438,-14.277 -2.089,-1.393 -1.908,-4.408 -1.044,-5.92 1.393,-2.437 5.223,-1.741 7.312,-1.392 2.089,0.347 5.92,0.696 11.492,-3.483 3.132,-2.349 7.108,-5.549 11.432,-11.629 3.368,-4.735 6.948,-11.217 10.505,-20.407 2.986,-7.715 2.785,-10.794 4.179,-13.929 1.392,-3.133 5.919,-10.097 6.964,-21.937 1.045,-11.84 -0.349,-22.635 -2.438,-28.206 -2.089,-5.571 -8.705,-23.679 -9.053,-26.116 -0.348,-2.438 -1.045,-4.179 -0.697,-6.617 0.349,-2.437 -1.045,-3.481 -2.089,-7.66 -1.045,-4.178 -7.312,-17.411 -10.098,-21.937 -2.786,-4.528 -7.313,-10.099 -8.009,-13.58 -0.696,-3.483 -8.009,-16.019 -11.84,-21.59 -3.83,-5.571 -7.312,-10.446 -10.794,-18.804 -3.482,-8.357 -8.706,-24.026 -8.706,-28.205 0,0 5.224,8.358 12.884,9.402 7.661,1.044 12.536,-4.179 13.929,-5.572 1.393,-1.392 2.089,-2.785 0,-9.054 0,0 12.884,5.572 16.715,7.662 3.83,2.088 10.446,4.526 15.321,0.347 4.875,-4.177 9.401,-8.705 11.839,-11.839 2.437,-3.133 2.437,-6.964 -1.393,-11.838 -3.83,-4.876 -12.187,-12.885 -18.455,-18.456 -6.268,-5.572 -9.054,-9.402 -10.446,-12.536 -1.394,-3.134 -5.572,-9.402 -14.625,-10.447 0,0 0.347,-3.83 -7.661,-5.571 -8.009,-1.741 -20.893,0.348 -22.286,17.759 0,0 -4.876,-27.509 -25.768,-45.268 -20.893,-17.759 -32.036,-21.241 -57.804,-26.464 -25.767,-5.223 -41.786,-2.437 -45.267,-0.349 -3.483,2.089 -5.224,2.438 -7.661,2.438"
       style="fill:#ffffff;fill-opacity:1;fill-rule:nonzero;stroke:none;stroke-width:0.1"
       id="path712" />
    <path
       d="m 540.002,318.438 c -2.438,0 -4.179,-0.349 -7.661,-2.438 -3.482,-2.088 -19.5,-4.874 -45.268,0.349 -25.768,5.223 -36.91,8.705 -57.804,26.464 -20.893,17.759 -25.768,45.268 -25.768,45.268 -1.392,-17.411 -14.277,-19.5 -22.286,-17.759 -8.008,1.741 -7.66,5.571 -7.66,5.571 -9.054,1.045 -13.232,7.313 -14.625,10.447 -1.393,3.134 -4.179,6.964 -10.447,12.536 -6.268,5.571 -14.625,13.58 -18.455,18.456 -3.83,4.874 -3.83,8.705 -1.393,11.838 2.438,3.134 6.964,7.662 11.839,11.839 4.875,4.179 11.491,1.741 15.321,-0.347 3.831,-2.09 16.715,-7.662 16.715,-7.662 -2.089,6.269 -1.392,7.662 0,9.054 1.393,1.393 6.268,6.616 13.929,5.572 7.66,-1.044 12.884,-9.402 12.884,-9.402 0,4.179 -5.224,19.848 -8.705,28.205 -3.483,8.358 -6.965,13.233 -10.795,18.804 -3.83,5.571 -11.143,18.107 -11.84,21.59 -0.696,3.481 -5.223,9.052 -8.009,13.58 -2.785,4.526 -9.054,17.759 -10.098,21.937 -1.044,4.179 -2.437,5.223 -2.089,7.66 0.348,2.438 -0.348,4.179 -0.697,6.617 -0.347,2.437 -6.964,20.545 -9.053,26.116 -2.089,5.571 -3.482,16.366 -2.438,28.206 1.045,11.84 5.571,18.804 6.965,21.937 1.393,3.135 1.192,6.214 4.179,13.929 3.556,9.19 7.136,15.672 10.505,20.407 4.324,6.08 8.299,9.28 11.432,11.629 5.571,4.179 9.402,3.83 11.491,3.483 2.089,-0.349 5.919,-1.045 7.313,1.392 0.863,1.512 1.044,4.527 -1.045,5.92 -2.09,1.393 -3.482,6.268 -2.438,14.277 1.045,8.008 11.839,22.633 21.938,33.08 10.098,10.447 34.821,21.241 61.286,27.161 26.464,5.92 43.179,0 55.018,-4.875 11.839,-4.875 17.759,-22.981 17.759,-26.464 0,3.483 5.919,21.589 17.758,26.464 11.84,4.875 28.554,10.795 55.019,4.875 26.464,-5.92 51.187,-16.714 61.285,-27.161 10.099,-10.447 20.894,-25.072 21.938,-33.08 1.044,-8.009 -0.348,-12.884 -2.438,-14.277 -2.089,-1.393 -1.908,-4.408 -1.044,-5.92 1.393,-2.437 5.223,-1.741 7.312,-1.392 2.089,0.347 5.92,0.696 11.492,-3.483 3.132,-2.349 7.108,-5.549 11.432,-11.629 3.368,-4.735 6.948,-11.217 10.505,-20.407 2.986,-7.715 2.785,-10.794 4.179,-13.929 1.392,-3.133 5.919,-10.097 6.964,-21.937 1.045,-11.84 -0.349,-22.635 -2.438,-28.206 -2.089,-5.571 -8.705,-23.679 -9.053,-26.116 -0.348,-2.438 -1.045,-4.179 -0.697,-6.617 0.349,-2.437 -1.045,-3.481 -2.089,-7.66 -1.045,-4.178 -7.312,-17.411 -10.098,-21.937 -2.786,-4.528 -7.313,-10.099 -8.009,-13.58 -0.696,-3.483 -8.009,-16.019 -11.84,-21.59 -3.83,-5.571 -7.312,-10.446 -10.794,-18.804 -3.482,-8.357 -8.706,-24.026 -8.706,-28.205 0,0 5.224,8.358 12.884,9.402 7.661,1.044 12.536,-4.179 13.929,-5.572 1.393,-1.392 2.089,-2.785 0,-9.054 0,0 12.884,5.572 16.715,7.662 3.83,2.088 10.446,4.526 15.321,0.347 4.875,-4.177 9.401,-8.705 11.839,-11.839 2.437,-3.133 2.437,-6.964 -1.393,-11.838 -3.83,-4.876 -12.187,-12.885 -18.455,-18.456 -6.268,-5.572 -9.054,-9.402 -10.446,-12.536 -1.394,-3.134 -5.572,-9.402 -14.625,-10.447 0,0 0.347,-3.83 -7.661,-5.571 -8.009,-1.741 -20.893,0.348 -22.286,17.759 0,0 -4.876,-27.509 -25.768,-45.268 -20.893,-17.759 -32.036,-21.241 -57.804,-26.464 -25.767,-5.223 -41.786,-2.437 -45.267,-0.349 -3.483,2.089 -5.224,2.438 -7.661,2.438 z"
       style="fill:none;stroke:#231f20;stroke-width:0.75;stroke-linecap:round;stroke-linejoin:round;stroke-miterlimit:4;stroke-dasharray:none;stroke-opacity:1"
       id="path714" />
    <path
       d="m 707.493,433 c -2.785,-7.312 -6.964,-13.58 -7.661,-22.285 -0.696,-8.706 0.376,-17.522 2.438,-21.241 2.296,-4.138 4.411,-8.589 4.179,-13.581"
       style="fill:none;stroke:#231f20;stroke-width:0.5;stroke-linecap:butt;stroke-linejoin:miter;stroke-miterlimit:4;stroke-dasharray:none;stroke-opacity:1"
       id="path716" />
    <path
       d="m 680.68,438.224 c -3.83,-7.661 -5.919,-15.67 -7.66,-19.5 -1.741,-3.831 0,-4.527 1.044,-6.965 1.045,-2.437 4.875,-11.491 2.438,-23.678"
       style="fill:none;stroke:#231f20;stroke-width:0.5;stroke-linecap:butt;stroke-linejoin:miter;stroke-miterlimit:4;stroke-dasharray:none;stroke-opacity:1"
       id="path718" />
    <path
       d="m 673.02,418.724 c -3.134,-5.92 -5.571,-7.661 -11.144,-11.491 -5.571,-3.83 -8.008,-6.616 -9.052,-9.75 -1.045,-3.134 -2.438,-6.268 -5.572,-10.099 -3.134,-3.83 -10.447,-5.919 -22.982,-10.097 -12.536,-4.179 -31.341,-8.665 -37.26,-9.054 -7.079,-0.463 -10.446,0.696 -12.187,1.741 -1.231,0.739 -0.697,1.741 0.696,2.089 0,0 -8.356,-0.348 -6.267,6.616 0,0 -2.786,-0.696 -5.572,1.393 -2.786,2.09 -7.312,7.661 -3.482,12.884 3.831,5.223 12.884,12.884 17.759,13.581 4.875,0.696 10.795,-1.394 13.232,-1.045 2.437,0.348 34.224,4.698 39.446,6.439"
       style="fill:none;stroke:#231f20;stroke-width:0.5;stroke-linecap:butt;stroke-linejoin:miter;stroke-miterlimit:4;stroke-dasharray:none;stroke-opacity:1"
       id="path720" />
    <path
       d="m 679.676,436.116 c -5.612,1.76 -17.102,-1.026 -25.808,-6.597 -8.705,-5.572 -25.072,-19.501 -32.733,-24.724"
       style="fill:none;stroke:#231f20;stroke-width:0.5;stroke-linecap:butt;stroke-linejoin:miter;stroke-miterlimit:4;stroke-dasharray:none;stroke-opacity:1"
       id="path722" />
    <path
       d="m 569.252,378.679 c 0.696,4.179 7.661,6.964 12.883,9.402 5.224,2.437 16.019,6.268 20.894,8.009 4.875,1.741 15.321,6.268 18.106,8.705 0,0 -6.964,-9.402 -13.231,-16.017 -6.269,-6.616 -18.108,-15.322 -32.385,-16.715"
       style="fill:none;stroke:#231f20;stroke-width:0.5;stroke-linecap:butt;stroke-linejoin:miter;stroke-miterlimit:4;stroke-dasharray:none;stroke-opacity:1"
       id="path724" />
    <path
       d="m 644.466,461.554 c 4.193,-0.046 15.089,-1.322 15.67,-5.92 0.58,-4.594 -3.831,-10.446 -14.626,-10.794 -10.794,-0.348 -18.106,4.179 -18.106,8.357 0,4.179 5.776,8.482 17.062,8.357 z"
       style="fill:none;stroke:#231f20;stroke-width:0.5;stroke-linecap:butt;stroke-linejoin:miter;stroke-miterlimit:4;stroke-dasharray:none;stroke-opacity:1"
       id="path726" />
    <path
       d="m 563.226,467.028 c 0.803,-7.215 6.722,-30.545 11.249,-29.152 4.527,1.393 10.264,16.428 3.043,31.545"
       style="fill:none;stroke:#231f20;stroke-width:0.25;stroke-linecap:butt;stroke-linejoin:miter;stroke-miterlimit:4;stroke-dasharray:none;stroke-opacity:1"
       id="path728" />
    <path
       d="m 732.278,553.126 c -3.544,3.491 -8.07,9.411 -5.285,17.768 2.786,8.357 8.009,23.33 5.223,43.527 -2.786,20.197 -10.446,35.518 -15.67,44.224 -5.222,8.705 -11.491,13.231 -22.982,14.625"
       style="fill:none;stroke:#231f20;stroke-width:0.5;stroke-linecap:butt;stroke-linejoin:miter;stroke-miterlimit:4;stroke-dasharray:none;stroke-opacity:1"
       id="path730" />
    <path
       d="m 550.1,532.242 c -2.09,-1.044 -6.268,-2.089 -6.965,-6.617 -0.696,-4.526 -0.347,-11.49 7.313,-10.097 7.661,1.392 15.67,4.179 18.456,7.312 2.785,3.134 5.919,11.143 5.222,14.277 -0.696,3.133 -2.859,10.825 -2.859,10.825"
       style="fill:none;stroke:#231f20;stroke-width:0.5;stroke-linecap:butt;stroke-linejoin:miter;stroke-miterlimit:4;stroke-dasharray:none;stroke-opacity:1"
       id="path732" />
    <path
       d="m 550.448,515.528 c 1.045,-4.179 3.852,-14.736 5.234,-20.6"
       style="fill:none;stroke:#231f20;stroke-width:0.25;stroke-linecap:butt;stroke-linejoin:miter;stroke-miterlimit:4;stroke-dasharray:none;stroke-opacity:1"
       id="path734" />
    <path
       d="m 563.243,519.241 c 2.437,-7.66 5.672,-17.092 7.756,-23.635"
       style="fill:none;stroke:#231f20;stroke-width:0.25;stroke-linecap:butt;stroke-linejoin:miter;stroke-miterlimit:4;stroke-dasharray:none;stroke-opacity:1"
       id="path736" />
    <path
       d="m 572.038,670.484 c 5.919,1.392 30.294,0 46.66,-9.75 16.366,-9.75 20.893,-21.241 23.331,-26.464 2.437,-5.224 8.986,-18.977 11.076,-21.762"
       style="fill:none;stroke:#231f20;stroke-width:0.5;stroke-linecap:butt;stroke-linejoin:miter;stroke-miterlimit:4;stroke-dasharray:none;stroke-opacity:1"
       id="path738" />
    <path
       d="m 605.236,598.868 c 5.571,-0.697 36.793,-6.733 60.819,28.437"
       style="fill:none;stroke:#231f20;stroke-width:0.5;stroke-linecap:butt;stroke-linejoin:miter;stroke-miterlimit:4;stroke-dasharray:none;stroke-opacity:1"
       id="path740" />
    <path
       d="m 685.25,577.265 c 3.439,-4.978 11.595,-15.254 16.745,-20.214"
       style="fill:none;stroke:#231f20;stroke-width:0.25;stroke-linecap:butt;stroke-linejoin:miter;stroke-miterlimit:4;stroke-dasharray:none;stroke-opacity:1"
       id="path742" />
    <path
       d="m 693.564,673.27 c 0,0 -4.987,-1.467 -4.814,-6.062 -3.482,-5.223 -13.641,-23.188 -17.471,-29.804 -1.562,-2.696 -3.469,-6.202 -5.135,-9.976"
       style="fill:none;stroke:#231f20;stroke-width:0.5;stroke-linecap:butt;stroke-linejoin:miter;stroke-miterlimit:4;stroke-dasharray:none;stroke-opacity:1"
       id="path744" />
    <path
       d="m 386.439,673.27 c 0,0 4.987,-1.467 4.813,-6.062 3.483,-5.223 13.642,-23.188 17.472,-29.804 1.562,-2.696 3.469,-6.202 5.135,-9.976"
       style="fill:none;stroke:#231f20;stroke-width:0.5;stroke-linecap:butt;stroke-linejoin:miter;stroke-miterlimit:4;stroke-dasharray:none;stroke-opacity:1"
       id="path746" />
    <path
       d="m 694.664,682.175 c -1.796,-1.245 -3.885,-7.164 -1.1,-8.905"
       style="fill:none;stroke:#231f20;stroke-width:0.5;stroke-linecap:butt;stroke-linejoin:miter;stroke-miterlimit:4;stroke-dasharray:none;stroke-opacity:1"
       id="path748" />
    <path
       d="m 564.725,707.046 c 2.438,4.875 15.67,13.233 25.42,12.884 9.75,-0.348 32.035,-7.312 46.313,-14.972 14.276,-7.662 38.063,-20.697 50.893,-39.947"
       style="fill:none;stroke:#231f20;stroke-width:0.5;stroke-linecap:butt;stroke-linejoin:miter;stroke-miterlimit:4;stroke-dasharray:none;stroke-opacity:1"
       id="path750" />
    <path
       d="m 685.832,662.518 c -2.366,-1.436 -12.116,-7.007 -16.991,-2.829 -4.875,4.179 -18.803,17.411 -35.17,26.812 -16.366,9.403 -30.991,15.323 -43.875,16.715 -12.883,1.393 -18.107,1.393 -22.286,0.697 -4.178,-0.697 -8.356,3.133 -4.178,11.491 4.178,8.357 13.581,15.321 28.553,14.625 14.974,-0.697 41.786,-8.705 56.411,-17.063 14.625,-8.357 26.117,-16.715 30.295,-18.803 4.179,-2.089 15.037,-9.392 14.427,-14.338"
       style="fill:none;stroke:#231f20;stroke-width:0.5;stroke-linecap:butt;stroke-linejoin:miter;stroke-miterlimit:4;stroke-dasharray:none;stroke-opacity:1"
       id="path752" />
    <path
       d="m 696.35,697.993 c -1.741,-1.742 -5.571,-1.393 -7.661,-1.044"
       style="fill:none;stroke:#231f20;stroke-width:0.5;stroke-linecap:butt;stroke-linejoin:miter;stroke-miterlimit:4;stroke-dasharray:none;stroke-opacity:1"
       id="path754" />
    <path
       d="m 545.573,711.225 c 5.92,-0.348 10.446,4.179 10.446,9.75 0,5.571 5.92,16.715 12.188,20.196 6.268,3.483 21.241,7.313 34.822,6.269 13.58,-1.045 36.368,-10.028 50.839,-21.938 12.218,-10.056 16.417,-15.895 20.196,-19.5 5.827,-5.558 10.099,-9.402 14.625,-9.053"
       style="fill:none;stroke:#231f20;stroke-width:0.5;stroke-linecap:butt;stroke-linejoin:miter;stroke-miterlimit:4;stroke-dasharray:none;stroke-opacity:1"
       id="path756" />
    <path
       d="m 744.985,764.154 c 7.428,-4.643 34.357,-22.286 43.179,-30.643 8.82,-8.357 11.142,-13.465 12.535,-16.25 1.393,-2.786 6.499,-4.179 12.071,-6.965 5.571,-2.785 30.643,-15.786 55.714,-53.857 25.071,-38.071 19.118,-83.703 -11.143,-131.393"
       style="fill:none;stroke:#231f20;stroke-width:0.75;stroke-linecap:round;stroke-linejoin:round;stroke-miterlimit:4;stroke-dasharray:none;stroke-opacity:1"
       id="path758" />
    <path
       d="m 540.002,773.208 c -3.831,0 -10.795,-0.349 -10.795,-7.313 0,-6.965 5.919,-8.705 10.795,-8.705 4.874,0 10.794,1.74 10.794,8.705 0,6.964 -6.964,7.313 -10.794,7.313"
       style="fill:#b2b1b1;fill-opacity:1;fill-rule:nonzero;stroke:none;stroke-width:0.1"
       id="path760" />
    <path
       d="m 372.51,433 c 2.786,-7.312 6.964,-13.58 7.661,-22.285 0.697,-8.706 -0.376,-17.525 -2.437,-21.241 -2.297,-4.14 -4.412,-8.592 -4.179,-13.581"
       style="fill:none;stroke:#231f20;stroke-width:0.5;stroke-linecap:butt;stroke-linejoin:miter;stroke-miterlimit:4;stroke-dasharray:none;stroke-opacity:1"
       id="path762" />
    <path
       d="m 399.323,438.224 c 3.83,-7.661 5.92,-15.67 7.661,-19.5 1.74,-3.831 0,-4.527 -1.045,-6.965 -1.045,-2.437 -4.875,-11.491 -2.438,-23.678"
       style="fill:none;stroke:#231f20;stroke-width:0.5;stroke-linecap:butt;stroke-linejoin:miter;stroke-miterlimit:4;stroke-dasharray:none;stroke-opacity:1"
       id="path764" />
    <path
       d="m 406.984,418.724 c 3.134,-5.92 5.571,-7.661 11.142,-11.491 5.572,-3.83 8.009,-6.616 9.054,-9.75 1.044,-3.134 2.438,-6.268 5.571,-10.099 3.134,-3.83 10.447,-5.919 22.983,-10.097 12.535,-4.179 31.341,-8.668 37.259,-9.054 7.08,-0.466 10.446,0.696 12.187,1.741 1.231,0.737 0.696,1.741 -0.696,2.089 0,0 8.357,-0.348 6.267,6.616 0,0 2.787,-0.696 5.572,1.393 2.786,2.09 7.312,7.661 3.482,12.884 -3.83,5.223 -12.884,12.884 -17.759,13.581 -4.875,0.696 -10.795,-1.394 -13.232,-1.045 -2.438,0.348 -34.223,4.698 -39.446,6.439"
       style="fill:none;stroke:#231f20;stroke-width:0.5;stroke-linecap:butt;stroke-linejoin:miter;stroke-miterlimit:4;stroke-dasharray:none;stroke-opacity:1"
       id="path766" />
    <path
       d="m 400.327,436.116 c 5.612,1.76 17.103,-1.026 25.808,-6.597 8.705,-5.572 25.072,-19.501 32.733,-24.724"
       style="fill:none;stroke:#231f20;stroke-width:0.5;stroke-linecap:butt;stroke-linejoin:miter;stroke-miterlimit:4;stroke-dasharray:none;stroke-opacity:1"
       id="path768" />
    <path
       d="m 510.751,378.679 c -0.696,4.179 -7.661,6.964 -12.883,9.402 -5.224,2.437 -16.018,6.268 -20.893,8.009 -4.875,1.741 -15.322,6.268 -18.107,8.705 0,0 6.964,-9.402 13.232,-16.017 6.268,-6.616 18.107,-15.322 32.384,-16.715"
       style="fill:none;stroke:#231f20;stroke-width:0.5;stroke-linecap:butt;stroke-linejoin:miter;stroke-miterlimit:4;stroke-dasharray:none;stroke-opacity:1"
       id="path770" />
    <path
       d="m 431.162,389.477 c -2.287,-2.435 -5.375,-5.227 -5.723,-8.709 -0.349,-3.481 -0.349,-12.535 6.616,-25.071 6.964,-12.535 9.054,-15.67 25.071,-22.634 16.018,-6.964 25.072,-5.571 32.384,-5.92 7.313,-0.348 25.072,-0.348 31.34,0.349 6.268,0.696 13.58,3.134 19.152,3.134 5.571,0 12.883,-2.438 19.152,-3.134 6.267,-0.697 24.026,-0.697 31.339,-0.349 7.312,0.349 16.366,-1.044 32.383,5.92 16.019,6.964 18.108,10.099 25.072,22.634 6.965,12.536 6.965,21.59 6.616,25.071 -0.348,3.482 -3.436,6.274 -5.722,8.709"
       style="fill:none;stroke:#231f20;stroke-width:0.5;stroke-linecap:butt;stroke-linejoin:miter;stroke-miterlimit:4;stroke-dasharray:none;stroke-opacity:1"
       id="path772" />
    <path
       d="m 540.002,462.25 c -1.393,0 -9.75,2.09 -16.367,3.483 -6.616,1.393 -18.107,3.134 -28.205,4.875 -10.098,1.741 -26.465,6.616 -30.295,8.009 -3.83,1.392 -11.491,2.437 -7.66,5.92 3.83,3.482 13.232,11.142 19.151,12.536 5.92,1.392 29.25,-1.394 36.215,-1.741 6.964,-0.349 22.285,-0.697 27.161,-0.697 4.874,0 20.196,0.348 27.161,0.697 6.963,0.347 30.295,3.133 36.213,1.741 5.92,-1.394 15.322,-9.054 19.153,-12.536 3.83,-3.483 -3.831,-4.528 -7.661,-5.92 -3.83,-1.393 -20.197,-6.268 -30.295,-8.009 -10.098,-1.741 -21.589,-3.482 -28.205,-4.875 -6.616,-1.393 -14.974,-3.483 -16.366,-3.483 z"
       style="fill:none;stroke:#231f20;stroke-width:0.5;stroke-linecap:butt;stroke-linejoin:miter;stroke-miterlimit:4;stroke-dasharray:none;stroke-opacity:1"
       id="path774" />
    <path
       d="m 435.537,461.554 c -4.192,-0.046 -15.089,-1.324 -15.669,-5.92 -0.581,-4.596 3.83,-10.446 14.625,-10.794 10.795,-0.348 18.107,4.179 18.107,8.357 0,4.179 -5.777,8.48 -17.063,8.357 z"
       style="fill:none;stroke:#231f20;stroke-width:0.5;stroke-linecap:butt;stroke-linejoin:miter;stroke-miterlimit:4;stroke-dasharray:none;stroke-opacity:1"
       id="path776" />
    <path
       d="m 516.777,467.028 c -0.802,-7.215 -6.722,-30.545 -11.249,-29.152 -4.527,1.393 -10.264,16.428 -3.042,31.543"
       style="fill:none;stroke:#231f20;stroke-width:0.25;stroke-linecap:butt;stroke-linejoin:miter;stroke-miterlimit:4;stroke-dasharray:none;stroke-opacity:1"
       id="path778" />
    <path
       d="m 347.726,553.126 c 3.543,3.491 8.069,9.411 5.284,17.768 -2.786,8.357 -8.009,23.33 -5.223,43.527 2.786,20.197 10.446,35.518 15.67,44.224 5.223,8.705 11.491,13.231 22.982,14.625"
       style="fill:none;stroke:#231f20;stroke-width:0.5;stroke-linecap:butt;stroke-linejoin:miter;stroke-miterlimit:4;stroke-dasharray:none;stroke-opacity:1"
       id="path780" />
    <path
       d="m 529.904,532.242 c 2.089,-1.044 6.267,-2.089 6.964,-6.617 0.696,-4.526 0.348,-11.49 -7.313,-10.097 -7.661,1.392 -15.67,4.179 -18.455,7.312 -2.786,3.134 -5.92,11.143 -5.224,14.277 0.697,3.133 2.86,10.825 2.86,10.825"
       style="fill:none;stroke:#231f20;stroke-width:0.5;stroke-linecap:butt;stroke-linejoin:miter;stroke-miterlimit:4;stroke-dasharray:none;stroke-opacity:1"
       id="path782" />
    <path
       d="m 529.555,515.528 c -1.045,-4.179 -3.852,-14.736 -5.234,-20.602"
       style="fill:none;stroke:#231f20;stroke-width:0.25;stroke-linecap:butt;stroke-linejoin:miter;stroke-miterlimit:4;stroke-dasharray:none;stroke-opacity:1"
       id="path784" />
    <path
       d="m 516.761,519.241 c -2.437,-7.663 -5.672,-17.092 -7.756,-23.635"
       style="fill:none;stroke:#231f20;stroke-width:0.25;stroke-linecap:butt;stroke-linejoin:miter;stroke-miterlimit:4;stroke-dasharray:none;stroke-opacity:1"
       id="path786" />
    <path
       d="m 513.885,545.474 c -6.267,2.786 -21.937,11.143 -25.42,13.929 -3.481,2.786 -15.321,10.795 -16.017,18.107 -0.697,7.313 3.482,9.402 3.482,16.018 0,6.616 -3.482,7.312 -8.009,16.366 -4.527,9.054 -3.831,21.59 3.482,32.385 7.312,10.795 18.107,26.464 36.562,28.205 18.456,1.741 29.251,-1.045 32.037,-1.045 2.786,0 13.58,2.786 32.036,1.045 18.455,-1.741 29.25,-17.41 36.562,-28.205 7.313,-10.795 8.009,-23.331 3.482,-32.385 -4.527,-9.054 -8.009,-9.75 -8.009,-16.366 0,-6.616 4.179,-8.705 3.482,-16.018 -0.696,-7.312 -12.535,-15.321 -16.017,-18.107 -3.483,-2.786 -19.153,-11.143 -25.42,-13.929"
       style="fill:none;stroke:#231f20;stroke-width:0.5;stroke-linecap:butt;stroke-linejoin:miter;stroke-miterlimit:4;stroke-dasharray:none;stroke-opacity:1"
       id="path788" />
    <path
       d="m 507.965,670.484 c -5.919,1.392 -30.294,0 -46.66,-9.75 -16.366,-9.75 -20.892,-21.241 -23.331,-26.464 -2.437,-5.224 -8.986,-18.977 -11.076,-21.762"
       style="fill:none;stroke:#231f20;stroke-width:0.5;stroke-linecap:butt;stroke-linejoin:miter;stroke-miterlimit:4;stroke-dasharray:none;stroke-opacity:1"
       id="path790" />
    <path
       d="m 552.538,624.868 c -1.742,2.437 -6.965,2.786 -8.706,2.786 -3.83,0 -0.697,5.571 -3.83,5.571 -3.134,0 0,-5.571 -3.831,-5.571 -1.741,0 -6.964,-0.349 -8.705,-2.786 -1.741,-2.438 -3.831,-5.92 -0.348,-13.233 3.482,-7.312 4.875,-12.187 5.223,-13.928 0,0 4.527,0.696 7.661,0.696 3.133,0 7.661,-0.696 7.661,-0.696 0.347,1.741 1.741,6.616 5.222,13.928 3.483,7.313 1.394,10.795 -0.347,13.233"
       style="fill:#706d6e;fill-opacity:1;fill-rule:nonzero;stroke:none;stroke-width:0.1"
       id="path792" />
    <path
       d="m 552.538,624.868 c -1.742,2.437 -6.965,2.786 -8.706,2.786 -3.83,0 -0.697,5.571 -3.83,5.571 -3.134,0 0,-5.571 -3.831,-5.571 -1.741,0 -6.964,-0.349 -8.705,-2.786 -1.741,-2.438 -3.831,-5.92 -0.348,-13.233 3.482,-7.312 4.875,-12.187 5.223,-13.928 0,0 4.527,0.696 7.661,0.696 3.133,0 7.661,-0.696 7.661,-0.696 0.347,1.741 1.741,6.616 5.222,13.928 3.483,7.313 1.394,10.795 -0.347,13.233 z"
       style="fill:none;stroke:#231f20;stroke-width:0.75;stroke-linecap:round;stroke-linejoin:round;stroke-miterlimit:4;stroke-dasharray:none;stroke-opacity:1"
       id="path794" />
    <path
       d="m 474.767,598.868 c -5.571,-0.697 -36.793,-6.733 -60.819,28.437"
       style="fill:none;stroke:#231f20;stroke-width:0.5;stroke-linecap:butt;stroke-linejoin:miter;stroke-miterlimit:4;stroke-dasharray:none;stroke-opacity:1"
       id="path796" />
    <path
       d="m 394.752,577.265 c -3.438,-4.978 -11.594,-15.254 -16.744,-20.214"
       style="fill:none;stroke:#231f20;stroke-width:0.25;stroke-linecap:butt;stroke-linejoin:miter;stroke-miterlimit:4;stroke-dasharray:none;stroke-opacity:1"
       id="path798" />
    <path
       d="m 385.339,682.175 c 1.796,-1.245 3.885,-7.164 1.1,-8.905"
       style="fill:none;stroke:#231f20;stroke-width:0.5;stroke-linecap:butt;stroke-linejoin:miter;stroke-miterlimit:4;stroke-dasharray:none;stroke-opacity:1"
       id="path800" />
    <path
       d="m 515.279,707.046 c -2.438,4.875 -15.67,13.233 -25.42,12.884 -9.75,-0.348 -32.036,-7.312 -46.313,-14.972 -14.277,-7.662 -38.064,-20.697 -50.894,-39.947"
       style="fill:none;stroke:#231f20;stroke-width:0.5;stroke-linecap:butt;stroke-linejoin:miter;stroke-miterlimit:4;stroke-dasharray:none;stroke-opacity:1"
       id="path802" />
    <path
       d="m 394.17,662.518 c 2.367,-1.436 12.117,-7.007 16.992,-2.829 4.875,4.179 18.803,17.411 35.17,26.812 16.366,9.403 30.991,15.323 43.875,16.715 12.883,1.393 18.107,1.393 22.286,0.697 4.178,-0.697 8.357,3.133 4.178,11.491 -4.178,8.357 -13.581,15.321 -28.553,14.625 -14.974,-0.697 -41.786,-8.705 -56.411,-17.063 -14.625,-8.357 -26.117,-16.715 -30.295,-18.803 -4.178,-2.089 -15.037,-9.392 -14.426,-14.338"
       style="fill:none;stroke:#231f20;stroke-width:0.5;stroke-linecap:butt;stroke-linejoin:miter;stroke-miterlimit:4;stroke-dasharray:none;stroke-opacity:1"
       id="path804" />
    <path
       d="m 516.671,715.404 c 8.38,-9.552 16.367,-8.009 23.331,-8.009 6.964,0 14.95,-1.543 23.33,8.009"
       style="fill:none;stroke:#231f20;stroke-width:0.5;stroke-linecap:butt;stroke-linejoin:miter;stroke-miterlimit:4;stroke-dasharray:none;stroke-opacity:1"
       id="path806" />
    <path
       d="m 383.653,697.993 c 1.741,-1.742 5.571,-1.393 7.661,-1.044"
       style="fill:none;stroke:#231f20;stroke-width:0.5;stroke-linecap:butt;stroke-linejoin:miter;stroke-miterlimit:4;stroke-dasharray:none;stroke-opacity:1"
       id="path808" />
    <path
       d="m 534.43,711.225 c -5.92,-0.348 -10.446,4.179 -10.446,9.75 0,5.571 -5.92,16.715 -12.188,20.196 -6.268,3.483 -21.241,7.313 -34.821,6.269 -13.581,-1.045 -36.368,-10.028 -50.84,-21.938 -12.219,-10.056 -16.416,-15.895 -20.196,-19.5 -5.827,-5.558 -10.099,-9.402 -14.625,-9.053"
       style="fill:none;stroke:#231f20;stroke-width:0.5;stroke-linecap:butt;stroke-linejoin:miter;stroke-miterlimit:4;stroke-dasharray:none;stroke-opacity:1"
       id="path810" />
    <path
       d="m 600.229,595.095 c 0,-0.623 -0.5,-1.127 -1.126,-1.127 -0.623,0 -1.126,0.504 -1.126,1.127 0,0.623 0.503,1.126 1.126,1.126 0.626,0 1.126,-0.503 1.126,-1.126"
       style="fill:#231f20;fill-opacity:1;fill-rule:nonzero;stroke:none;stroke-width:0.1"
       id="path812" />
    <path
       d="m 601.796,590.565 c 0,-0.623 -0.501,-1.126 -1.127,-1.126 -0.622,0 -1.125,0.503 -1.125,1.126 0,0.623 0.503,1.127 1.125,1.127 0.626,0 1.127,-0.504 1.127,-1.127"
       style="fill:#231f20;fill-opacity:1;fill-rule:nonzero;stroke:none;stroke-width:0.1"
       id="path814" />
    <path
       d="m 602.762,597.266 c 0,-0.623 -0.501,-1.127 -1.127,-1.127 -0.623,0 -1.126,0.504 -1.126,1.127 0,0.623 0.503,1.126 1.126,1.126 0.626,0 1.127,-0.503 1.127,-1.126"
       style="fill:#231f20;fill-opacity:1;fill-rule:nonzero;stroke:none;stroke-width:0.1"
       id="path816" />
    <path
       d="m 607.115,575.502 c 0,-0.623 -0.501,-1.126 -1.126,-1.126 -0.623,0 -1.127,0.503 -1.127,1.126 0,0.623 0.504,1.126 1.127,1.126 0.625,0 1.126,-0.503 1.126,-1.126"
       style="fill:#231f20;fill-opacity:1;fill-rule:nonzero;stroke:none;stroke-width:0.1"
       id="path818" />
    <path
       d="m 611.432,588.011 c 0,-0.623 -0.501,-1.127 -1.127,-1.127 -0.622,0 -1.126,0.504 -1.126,1.127 0,0.622 0.504,1.126 1.126,1.126 0.626,0 1.127,-0.504 1.127,-1.126"
       style="fill:#231f20;fill-opacity:1;fill-rule:nonzero;stroke:none;stroke-width:0.1"
       id="path820" />
    <path
       d="m 479.774,595.095 c 0,-0.623 0.501,-1.127 1.126,-1.127 0.623,0 1.127,0.504 1.127,1.127 0,0.623 -0.504,1.126 -1.127,1.126 -0.625,0 -1.126,-0.503 -1.126,-1.126"
       style="fill:#231f20;fill-opacity:1;fill-rule:nonzero;stroke:none;stroke-width:0.1"
       id="path822" />
    <path
       d="m 478.208,590.565 c 0,-0.623 0.5,-1.126 1.126,-1.126 0.623,0 1.126,0.503 1.126,1.126 0,0.623 -0.503,1.127 -1.126,1.127 -0.626,0 -1.126,-0.504 -1.126,-1.127"
       style="fill:#231f20;fill-opacity:1;fill-rule:nonzero;stroke:none;stroke-width:0.1"
       id="path824" />
    <path
       d="m 477.242,597.266 c 0,-0.623 0.5,-1.127 1.126,-1.127 0.623,0 1.126,0.504 1.126,1.127 0,0.623 -0.503,1.126 -1.126,1.126 -0.626,0 -1.126,-0.503 -1.126,-1.126"
       style="fill:#231f20;fill-opacity:1;fill-rule:nonzero;stroke:none;stroke-width:0.1"
       id="path826" />
    <path
       d="m 472.888,575.502 c 0,-0.623 0.501,-1.126 1.127,-1.126 0.623,0 1.126,0.503 1.126,1.126 0,0.623 -0.503,1.126 -1.126,1.126 -0.626,0 -1.127,-0.503 -1.127,-1.126"
       style="fill:#231f20;fill-opacity:1;fill-rule:nonzero;stroke:none;stroke-width:0.1"
       id="path828" />
    <path
       d="m 468.571,588.011 c 0,-0.623 0.501,-1.127 1.127,-1.127 0.623,0 1.126,0.504 1.126,1.127 0,0.622 -0.503,1.126 -1.126,1.126 -0.626,0 -1.127,-0.504 -1.127,-1.126"
       style="fill:#231f20;fill-opacity:1;fill-rule:nonzero;stroke:none;stroke-width:0.1"
       id="path830" />
    <path
       d="m 656.305,806.404 c -0.711,-1.777 18.571,-12.999 34.821,-22.285 16.251,-9.287 43.643,-34.358 56.179,-52.465 12.536,-18.108 19.5,-34.822 26,-43.643 6.501,-8.822 13,-16.251 19.964,-14.857"
       style="fill:none;stroke:#231f20;stroke-width:0.5;stroke-linecap:butt;stroke-linejoin:miter;stroke-miterlimit:4;stroke-dasharray:none;stroke-opacity:1"
       id="path832" />
    <path
       d="m 423.698,806.404 c -0.929,2.322 -19.5,-1.393 -43.179,-8.822 -23.679,-7.428 -63.607,-26 -110.036,-62.678 -46.428,-36.679 -61.749,-62.679 -70.571,-83.572 -8.824,-20.893 -14.857,-50.607 -6.965,-80.787 7.891,-30.177 25.537,-48.284 33.893,-56.641 8.358,-8.361 16.886,-12.024 19.036,-11.144 3.925,1.607 7.726,5.861 3.366,9.984 -1.849,1.747 -5.422,0.031 -6.658,1.651"
       style="fill:none;stroke:#231f20;stroke-width:0.5;stroke-linecap:butt;stroke-linejoin:miter;stroke-miterlimit:4;stroke-dasharray:none;stroke-opacity:1"
       id="path834" />
    <path
       d="m 656.305,806.404 c 0.93,2.322 19.5,-1.393 43.179,-8.822 23.679,-7.428 63.607,-26 110.036,-62.678 46.428,-36.679 61.75,-62.679 70.572,-83.572 8.823,-20.893 14.857,-50.607 6.964,-80.787 -7.891,-30.177 -25.536,-48.284 -33.893,-56.641 -8.358,-8.361 -16.886,-12.024 -19.036,-11.144 -3.925,1.607 -7.725,5.861 -3.366,9.984 1.849,1.747 5.422,0.031 6.658,1.651"
       style="fill:none;stroke:#231f20;stroke-width:0.5;stroke-linecap:butt;stroke-linejoin:miter;stroke-miterlimit:4;stroke-dasharray:none;stroke-opacity:1"
       id="path836" />
    <path
       d="m 242.584,514.395 c -2.57,1.482 -3.381,2.768 -5.704,4.79 -10.785,9.396 -26.29,34.183 -31.861,56.932 -5.571,22.751 -3.715,42.715 6.035,65.001 9.75,22.286 34.822,45.501 43.179,52 8.357,6.5 17.18,0 20.429,-5.572 3.25,-5.571 5.107,-13 12.072,-14.392"
       style="fill:none;stroke:#231f20;stroke-width:0.5;stroke-linecap:butt;stroke-linejoin:miter;stroke-miterlimit:4;stroke-dasharray:none;stroke-opacity:1"
       id="path838" />
    <path
       d="m 837.419,514.395 c 2.57,1.482 3.382,2.768 5.704,4.79 10.785,9.396 26.29,34.183 31.862,56.932 5.571,22.751 3.714,42.715 -6.036,65.001 -9.75,22.286 -34.822,45.501 -43.179,52 -8.356,6.5 -17.179,0 -20.429,-5.572 -3.249,-5.571 -5.107,-13 -12.072,-14.392"
       style="fill:none;stroke:#231f20;stroke-width:0.5;stroke-linecap:butt;stroke-linejoin:miter;stroke-miterlimit:4;stroke-dasharray:none;stroke-opacity:1"
       id="path840" />
    <path
       d="m 286.734,673.154 c 0,0 6.73,-1.799 1.624,-10.155 -5.107,-8.358 -25.535,-44.574 -27.393,-76.144 -1.856,-31.571 -3.249,-44.572 -2.785,-55.715 0.464,-11.142 -4.356,-18.06 -15.596,-16.745"
       style="fill:none;stroke:#231f20;stroke-width:0.5;stroke-linecap:round;stroke-linejoin:round;stroke-miterlimit:4;stroke-dasharray:2.8, 1.8;stroke-dashoffset:0;stroke-opacity:1"
       id="path842" />
    <path
       d="m 521.679,803.604 c -19.633,5.645 -65.597,7.037 -97.981,2.8"
       style="fill:none;stroke:#231f20;stroke-width:0.5;stroke-linecap:round;stroke-linejoin:round;stroke-miterlimit:4;stroke-dasharray:2.8, 1.8;stroke-dashoffset:0;stroke-opacity:1"
       id="path844" />
    <path
       d="m 494.706,871.314 c -13.437,-11.518 -58.457,-51.49 -73.329,-64.225"
       style="fill:none;stroke:#231f20;stroke-width:0.5;stroke-linecap:round;stroke-linejoin:round;stroke-miterlimit:4;stroke-dasharray:2.8, 1.8;stroke-dashoffset:0;stroke-opacity:1"
       id="path846" />
    <path
       d="M 437.627,885.833 413.519,806.201"
       style="fill:none;stroke:#231f20;stroke-width:0.5;stroke-linecap:round;stroke-linejoin:round;stroke-miterlimit:4;stroke-dasharray:2.8, 1.8;stroke-dashoffset:0;stroke-opacity:1"
       id="path848" />
    <path
       d="M 397.692,885.417 400.887,803.4"
       style="fill:none;stroke:#231f20;stroke-width:0.5;stroke-linecap:round;stroke-linejoin:round;stroke-miterlimit:4;stroke-dasharray:2.8, 1.8;stroke-dashoffset:0;stroke-opacity:1"
       id="path850" />
    <path
       d="m 292.476,861.871 37.192,-87.063"
       style="fill:none;stroke:#231f20;stroke-width:0.5;stroke-linecap:round;stroke-linejoin:round;stroke-miterlimit:4;stroke-dasharray:2.8, 1.8;stroke-dashoffset:0;stroke-opacity:1"
       id="path852" />
    <path
       d="m 275.17,738.561 -58.451,77.608"
       style="fill:none;stroke:#231f20;stroke-width:0.5;stroke-linecap:round;stroke-linejoin:round;stroke-miterlimit:4;stroke-dasharray:2.8, 1.8;stroke-dashoffset:0;stroke-opacity:1"
       id="path854" />
    <path
       d="m 211.973,674.385 -73.115,49.376"
       style="fill:none;stroke:#231f20;stroke-width:0.5;stroke-linecap:round;stroke-linejoin:round;stroke-miterlimit:4;stroke-dasharray:2.8, 1.8;stroke-dashoffset:0;stroke-opacity:1"
       id="path856" />
    <path
       d="m 190.085,613.733 -79.781,4.171"
       style="fill:none;stroke:#231f20;stroke-width:0.5;stroke-linecap:round;stroke-linejoin:round;stroke-miterlimit:4;stroke-dasharray:2.8, 1.8;stroke-dashoffset:0;stroke-opacity:1"
       id="path858" />
    <path
       d="m 190.02,586.368 -62.466,-27.36"
       style="fill:none;stroke:#231f20;stroke-width:0.5;stroke-linecap:round;stroke-linejoin:round;stroke-miterlimit:4;stroke-dasharray:2.8, 1.8;stroke-dashoffset:0;stroke-opacity:1"
       id="path860" />
    <path
       d="M 194.707,564.497 138.172,531.373"
       style="fill:none;stroke:#231f20;stroke-width:0.5;stroke-linecap:round;stroke-linejoin:round;stroke-miterlimit:4;stroke-dasharray:2.8, 1.8;stroke-dashoffset:0;stroke-opacity:1"
       id="path862" />
    <path
       d="m 409.357,748.295 c -6.088,4.251 -11.659,6.11 -20.481,35.824"
       style="fill:none;stroke:#231f20;stroke-width:0.5;stroke-linecap:round;stroke-linejoin:round;stroke-miterlimit:4;stroke-dasharray:2.8, 1.8;stroke-dashoffset:0;stroke-opacity:1"
       id="path864" />
    <path
       d="m 298.478,499.597 c 5.814,11.292 12.398,-7.052 12.398,-14.015 0,-6.965 -2.322,-15.323 -9.286,-22.287 -6.964,-6.963 -16.249,-7.891 -25.072,-9.285 -8.822,-1.392 -6.964,3.251 -3.713,6.965 3.251,3.713 16.249,20.893 22.749,32.035 z"
       style="fill:none;stroke:#231f20;stroke-width:0.5;stroke-linecap:round;stroke-linejoin:round;stroke-miterlimit:4;stroke-dasharray:2.8, 1.8;stroke-dashoffset:0;stroke-opacity:1"
       id="path866" />
    <path
       d="m 347.09,509.725 -96.903,-3.694"
       style="fill:none;stroke:#231f20;stroke-width:0.5;stroke-linecap:round;stroke-linejoin:round;stroke-miterlimit:4;stroke-dasharray:2.8, 1.8;stroke-dashoffset:0;stroke-opacity:1"
       id="path868" />
    <path
       d="m 335.272,600.73 -72.228,1.032"
       style="fill:none;stroke:#231f20;stroke-width:0.5;stroke-linecap:round;stroke-linejoin:round;stroke-miterlimit:4;stroke-dasharray:2.8, 1.8;stroke-dashoffset:0;stroke-opacity:1"
       id="path870" />
    <path
       d="m 346.743,646.805 -60.009,26.349"
       style="fill:none;stroke:#231f20;stroke-width:0.5;stroke-linecap:round;stroke-linejoin:round;stroke-miterlimit:4;stroke-dasharray:2.8, 1.8;stroke-dashoffset:0;stroke-opacity:1"
       id="path872" />
    <path
       d="m 317.9,600.979 c 1.682,0.152 2.669,1.492 2.821,2.299 2.984,15.785 11.613,41.234 14.231,48.356 3.183,8.659 30.71,56.342 40.46,72.591 9.75,16.25 18.572,33.429 23.218,34.824"
       style="fill:none;stroke:#231f20;stroke-width:0.5;stroke-linecap:round;stroke-linejoin:round;stroke-miterlimit:4;stroke-dasharray:2.8, 1.8;stroke-dashoffset:0;stroke-opacity:1"
       id="path874" />
    <path
       d="m 328.573,654.248 c -6.09,-1.988 -11.197,-6.63 -16.304,-19.166 -5.107,-12.536 -9.939,-29.715 -4.041,-33.893"
       style="fill:none;stroke:#231f20;stroke-width:0.5;stroke-linecap:round;stroke-linejoin:round;stroke-miterlimit:4;stroke-dasharray:2.8, 1.8;stroke-dashoffset:0;stroke-opacity:1"
       id="path876" />
    <path
       d="m 423.264,805.527 75.324,-24.524"
       style="fill:none;stroke:#231f20;stroke-width:0.5;stroke-linecap:round;stroke-linejoin:round;stroke-miterlimit:4;stroke-dasharray:2.8, 1.8;stroke-dashoffset:0;stroke-opacity:1"
       id="path878" />
    <path
       d="m 297.931,421.073 -52.905,81.295"
       style="fill:none;stroke:#231f20;stroke-width:0.5;stroke-linecap:round;stroke-linejoin:round;stroke-miterlimit:4;stroke-dasharray:2.8, 1.8;stroke-dashoffset:0;stroke-opacity:1"
       id="path880" />
    <path
       d="m 241.837,503.102 -6.926,-84.7"
       style="fill:none;stroke:#231f20;stroke-width:0.5;stroke-linecap:round;stroke-linejoin:round;stroke-miterlimit:4;stroke-dasharray:2.8, 1.8;stroke-dashoffset:0;stroke-opacity:1"
       id="path882" />
    <path
       d="M 222.397,518.458 177.918,459.732"
       style="fill:none;stroke:#231f20;stroke-width:0.5;stroke-linecap:round;stroke-linejoin:round;stroke-miterlimit:4;stroke-dasharray:2.8, 1.8;stroke-dashoffset:0;stroke-opacity:1"
       id="path884" />
    <path
       d="m 210.931,532.316 -52.683,-46.63"
       style="fill:none;stroke:#231f20;stroke-width:0.5;stroke-linecap:round;stroke-linejoin:round;stroke-miterlimit:4;stroke-dasharray:2.8, 1.8;stroke-dashoffset:0;stroke-opacity:1"
       id="path886" />
    <path
       d="m 312.74,601.113 c 2.776,-0.047 6.492,-1.779 6.957,-6.423 0.466,-4.645 4.179,-23.679 8.357,-34.358 4.179,-10.679 9.286,-32.035 3.715,-39.464 -5.571,-7.43 -14.393,-12.074 -26.001,-4.179 -11.606,7.893 -14.217,37.864 -10.967,49.936 1.569,5.828 4.003,16.457 5.396,22.028 1.393,5.571 2.304,12.011 9.286,12.513"
       style="fill:none;stroke:#231f20;stroke-width:0.5;stroke-linecap:round;stroke-linejoin:round;stroke-miterlimit:4;stroke-dasharray:2.8, 1.8;stroke-dashoffset:0;stroke-opacity:1"
       id="path888" />
    <path
       d="m 567.784,400.709 c 1.12,4.434 3.905,6.175 7.387,7.22 3.483,1.045 23.679,5.92 32.384,6.616 8.705,0.697 22.191,2.212 27.81,1.108"
       style="fill:none;stroke:#231f20;stroke-width:0.5;stroke-linecap:round;stroke-linejoin:round;stroke-miterlimit:4;stroke-dasharray:2.8, 1.8;stroke-dashoffset:0;stroke-opacity:1"
       id="path890" />
    <path
       d="m 545.984,449.307 c 2.437,-5.571 8.61,-33.459 10.367,-59.877"
       style="fill:none;stroke:#231f20;stroke-width:0.5;stroke-linecap:round;stroke-linejoin:round;stroke-miterlimit:4;stroke-dasharray:2.8, 1.8;stroke-dashoffset:0;stroke-opacity:1"
       id="path892" />
    <path
       d="m 548.014,455.632 c 0,-3.846 -1.558,-6.964 -3.481,-6.964 -1.924,0 -3.483,3.118 -3.483,6.964 0,3.847 1.559,6.964 3.483,6.964 1.923,0 3.481,-3.117 3.481,-6.964 z"
       style="fill:none;stroke:#231f20;stroke-width:0.5;stroke-linecap:round;stroke-linejoin:round;stroke-miterlimit:4;stroke-dasharray:2.8, 1.8;stroke-dashoffset:0;stroke-opacity:1"
       id="path894" />
    <path
       d="m 603.376,497.073 c 10.099,-1.045 29.599,-0.698 42.134,1.74 12.536,2.437 18.108,2.437 20.545,2.09 2.438,-0.349 8.731,-0.719 8.009,-10.099 -0.291,-3.789 -2.172,-8.106 -4.875,-14.625 -2.33,-5.617 -6.473,-16.488 -13.437,-14.747 -6.964,1.741 -15.464,3.605 -20.688,10.917 -5.223,7.313 -7.476,8.525 -11.572,10.879"
       style="fill:none;stroke:#231f20;stroke-width:0.5;stroke-linecap:round;stroke-linejoin:round;stroke-miterlimit:4;stroke-dasharray:2.8, 1.8;stroke-dashoffset:0;stroke-opacity:1"
       id="path896" />
    <path
       d="m 674.064,490.804 c 1.741,6.965 8.01,17.063 11.491,19.5 3.483,2.438 6.965,3.134 8.706,3.483"
       style="fill:none;stroke:#231f20;stroke-width:0.5;stroke-linecap:round;stroke-linejoin:round;stroke-miterlimit:4;stroke-dasharray:2.8, 1.8;stroke-dashoffset:0;stroke-opacity:1"
       id="path898" />
    <path
       d="m 699.34,511.915 c 1.653,-2.307 -0.204,-9.271 -4.035,-14.495 -3.83,-5.222 -15.321,-25.767 -19.151,-33.428 -3.83,-7.66 -12.536,-18.108 -16.366,-11.839"
       style="fill:none;stroke:#231f20;stroke-width:0.5;stroke-linecap:round;stroke-linejoin:round;stroke-miterlimit:4;stroke-dasharray:2.8, 1.8;stroke-dashoffset:0;stroke-opacity:1"
       id="path900" />
    <path
       d="m 730.25,555.331 c -4.998,1.983 -11.614,6.161 -18.23,4.42 -6.616,-1.741 -25.071,-6.616 -34.125,-10.447 -9.054,-3.83 -13.232,-5.571 -14.277,-10.794 -1.044,-5.223 0.348,-14.277 2.786,-16.715 2.437,-2.437 8.009,-6.267 11.142,-4.526 3.134,1.741 6.965,0.348 8.706,-0.349 1.741,-0.696 11.491,-4.178 16.018,-6.267 4.526,-2.09 7.366,-2.811 10.474,-1.752"
       style="fill:none;stroke:#231f20;stroke-width:0.5;stroke-linecap:round;stroke-linejoin:round;stroke-miterlimit:4;stroke-dasharray:2.8, 1.8;stroke-dashoffset:0;stroke-opacity:1"
       id="path902" />
    <path
       d="m 713.727,560.061 c -1.707,-0.31 -3.448,-2.399 -1.707,-6.578 1.741,-4.179 3.134,-5.223 1.044,-10.098 -2.089,-4.875 -2.438,-8.357 0,-10.795 2.438,-2.437 2.438,-3.83 0.697,-7.312 -3.135,-6.268 3.1,-10.411 6.268,-4.875"
       style="fill:none;stroke:#231f20;stroke-width:0.5;stroke-linecap:round;stroke-linejoin:round;stroke-miterlimit:4;stroke-dasharray:2.8, 1.8;stroke-dashoffset:0;stroke-opacity:1"
       id="path904" />
    <path
       d="m 574.126,537.117 c 4.528,-0.348 16.715,-4.527 15.322,-12.884 -1.393,-8.358 -14.75,-5.939 -22.174,-2.795"
       style="fill:none;stroke:#231f20;stroke-width:0.5;stroke-linecap:round;stroke-linejoin:round;stroke-miterlimit:4;stroke-dasharray:2.8, 1.8;stroke-dashoffset:0;stroke-opacity:1"
       id="path906" />
    <path
       d="m 548.745,540.637 c -1.431,3.792 -0.68,11.56 0.659,14.238 1.624,3.251 3.83,6.965 8.356,2.09 4.528,-4.875 4.363,-6.671 4.968,-8.732"
       style="fill:none;stroke:#231f20;stroke-width:0.5;stroke-linecap:round;stroke-linejoin:round;stroke-miterlimit:4;stroke-dasharray:2.8, 1.8;stroke-dashoffset:0;stroke-opacity:1"
       id="path908" />
    <path
       d="m 551.215,626.042 c 4.456,3.701 22.835,14.159 32.276,41.314"
       style="fill:none;stroke:#231f20;stroke-width:0.5;stroke-linecap:round;stroke-linejoin:round;stroke-miterlimit:4;stroke-dasharray:2.8, 1.8;stroke-dashoffset:0;stroke-opacity:1"
       id="path910" />
    <path
       d="m 554.731,617.92 c 0,0 39.483,7.843 58.342,15.405"
       style="fill:none;stroke:#231f20;stroke-width:0.5;stroke-linecap:round;stroke-linejoin:round;stroke-miterlimit:4;stroke-dasharray:2.8, 1.8;stroke-dashoffset:0;stroke-opacity:1"
       id="path912" />
    <path
       d="m 552.885,611.635 c 11.84,-3.482 34.71,-11.605 52.351,-12.767"
       style="fill:none;stroke:#231f20;stroke-width:0.5;stroke-linecap:round;stroke-linejoin:round;stroke-miterlimit:4;stroke-dasharray:2.8, 1.8;stroke-dashoffset:0;stroke-opacity:1"
       id="path914" />
    <path
       d="m 547.663,597.707 c 3.83,-1.742 7.312,-3.486 7.66,-10.447 0.348,-6.961 0,-10.446 0.696,-13.928 0.697,-3.483 2.09,-7.662 3.831,-10.795 1.741,-3.134 3.418,-5.721 2.231,-11.914"
       style="fill:none;stroke:#231f20;stroke-width:0.5;stroke-linecap:round;stroke-linejoin:round;stroke-miterlimit:4;stroke-dasharray:2.8, 1.8;stroke-dashoffset:0;stroke-opacity:1"
       id="path916" />
    <path
       d="m 554.335,592.012 c 8.997,-4.404 24.319,-11.02 29.541,-14.154 5.224,-3.134 12.398,-4.1 15.95,-11.798"
       style="fill:none;stroke:#231f20;stroke-width:0.5;stroke-linecap:round;stroke-linejoin:round;stroke-miterlimit:4;stroke-dasharray:2.8, 1.8;stroke-dashoffset:0;stroke-opacity:1"
       id="path918" />
    <path
       d="m 606.259,573.627 c 9.654,-5.519 42.234,-25.593 78.35,-21.823"
       style="fill:none;stroke:#231f20;stroke-width:0.5;stroke-linecap:round;stroke-linejoin:round;stroke-miterlimit:4;stroke-dasharray:2.8, 1.8;stroke-dashoffset:0;stroke-opacity:1"
       id="path920" />
    <path
       d="m 688.75,667.208 c 0.287,-2.084 1.049,-4.439 1.85,-6.042 4.179,-8.357 12.714,-21.673 17.589,-41.87 4.875,-20.197 2.439,-33.426 1.743,-38.998 -0.696,-5.571 -0.373,-10.19 1.753,-10.743"
       style="fill:none;stroke:#231f20;stroke-width:0.5;stroke-linecap:round;stroke-linejoin:round;stroke-miterlimit:4;stroke-dasharray:2.8, 1.8;stroke-dashoffset:0;stroke-opacity:1"
       id="path922" />
    <path
       d="m 545.573,711.225 c -0.348,4.875 -0.348,20.893 0,24.375 0.348,3.482 4.527,10.446 8.357,13.58 3.83,3.135 13.58,11.84 32.036,12.885 18.455,1.044 41.089,-5.572 54.669,-11.491 13.581,-5.92 33.429,-19.5 42.483,-31.688 9.053,-12.187 12.187,-19.848 5.571,-21.937"
       style="fill:none;stroke:#231f20;stroke-width:0.5;stroke-linecap:round;stroke-linejoin:round;stroke-miterlimit:4;stroke-dasharray:2.8, 1.8;stroke-dashoffset:0;stroke-opacity:1"
       id="path924" />
    <path
       d="m 793.269,673.154 c 0,0 -6.729,-1.799 -1.624,-10.155 5.107,-8.358 25.536,-44.574 27.393,-76.144 1.856,-31.571 3.249,-44.572 2.785,-55.715 -0.464,-11.142 4.357,-18.06 15.596,-16.745"
       style="fill:none;stroke:#231f20;stroke-width:0.5;stroke-linecap:round;stroke-linejoin:round;stroke-miterlimit:4;stroke-dasharray:2.8, 1.8;stroke-dashoffset:0;stroke-opacity:1"
       id="path926" />
    <path
       d="m 558.324,803.604 c 19.633,5.645 65.597,7.037 97.981,2.8"
       style="fill:none;stroke:#231f20;stroke-width:0.5;stroke-linecap:round;stroke-linejoin:round;stroke-miterlimit:4;stroke-dasharray:2.8, 1.8;stroke-dashoffset:0;stroke-opacity:1"
       id="path928" />
    <path
       d="m 585.298,871.314 c 13.436,-11.518 58.456,-51.49 73.328,-64.225"
       style="fill:none;stroke:#231f20;stroke-width:0.5;stroke-linecap:round;stroke-linejoin:round;stroke-miterlimit:4;stroke-dasharray:2.8, 1.8;stroke-dashoffset:0;stroke-opacity:1"
       id="path930" />
    <path
       d="m 642.376,885.833 24.108,-79.632"
       style="fill:none;stroke:#231f20;stroke-width:0.5;stroke-linecap:round;stroke-linejoin:round;stroke-miterlimit:4;stroke-dasharray:2.8, 1.8;stroke-dashoffset:0;stroke-opacity:1"
       id="path932" />
    <path
       d="M 682.311,885.417 679.116,803.4"
       style="fill:none;stroke:#231f20;stroke-width:0.5;stroke-linecap:round;stroke-linejoin:round;stroke-miterlimit:4;stroke-dasharray:2.8, 1.8;stroke-dashoffset:0;stroke-opacity:1"
       id="path934" />
    <path
       d="M 787.527,861.871 750.335,774.808"
       style="fill:none;stroke:#231f20;stroke-width:0.5;stroke-linecap:round;stroke-linejoin:round;stroke-miterlimit:4;stroke-dasharray:2.8, 1.8;stroke-dashoffset:0;stroke-opacity:1"
       id="path936" />
    <path
       d="m 804.832,738.561 58.452,77.608"
       style="fill:none;stroke:#231f20;stroke-width:0.5;stroke-linecap:round;stroke-linejoin:round;stroke-miterlimit:4;stroke-dasharray:2.8, 1.8;stroke-dashoffset:0;stroke-opacity:1"
       id="path938" />
    <path
       d="m 868.03,674.385 73.115,49.376"
       style="fill:none;stroke:#231f20;stroke-width:0.5;stroke-linecap:round;stroke-linejoin:round;stroke-miterlimit:4;stroke-dasharray:2.8, 1.8;stroke-dashoffset:0;stroke-opacity:1"
       id="path940" />
    <path
       d="m 889.918,613.733 79.781,4.171"
       style="fill:none;stroke:#231f20;stroke-width:0.5;stroke-linecap:round;stroke-linejoin:round;stroke-miterlimit:4;stroke-dasharray:2.8, 1.8;stroke-dashoffset:0;stroke-opacity:1"
       id="path942" />
    <path
       d="m 889.984,586.368 62.465,-27.36"
       style="fill:none;stroke:#231f20;stroke-width:0.5;stroke-linecap:round;stroke-linejoin:round;stroke-miterlimit:4;stroke-dasharray:2.8, 1.8;stroke-dashoffset:0;stroke-opacity:1"
       id="path944" />
    <path
       d="m 885.296,564.497 56.535,-33.124"
       style="fill:none;stroke:#231f20;stroke-width:0.5;stroke-linecap:round;stroke-linejoin:round;stroke-miterlimit:4;stroke-dasharray:2.8, 1.8;stroke-dashoffset:0;stroke-opacity:1"
       id="path946" />
    <path
       d="m 670.646,748.295 c 6.089,4.251 11.66,6.11 20.48,35.824"
       style="fill:none;stroke:#231f20;stroke-width:0.5;stroke-linecap:round;stroke-linejoin:round;stroke-miterlimit:4;stroke-dasharray:2.8, 1.8;stroke-dashoffset:0;stroke-opacity:1"
       id="path948" />
    <path
       d="m 688.802,776.699 c -7.773,4.484 -22.682,11.681 -29.247,14.383 -7.893,3.25 -15.105,8.897 -17.192,14.612 -0.45,1.233 -0.681,2.187 -0.681,2.187"
       style="fill:none;stroke:#231f20;stroke-width:0.5;stroke-linecap:round;stroke-linejoin:round;stroke-miterlimit:4;stroke-dasharray:2.8, 1.8;stroke-dashoffset:0;stroke-opacity:1"
       id="path950" />
    <path
       d="m 781.526,499.597 c -5.816,11.292 -12.399,-7.052 -12.399,-14.015 0,-6.965 2.322,-15.323 9.287,-22.287 6.963,-6.963 16.249,-7.891 25.071,-9.285 8.822,-1.392 6.964,3.251 3.713,6.965 -3.251,3.713 -16.249,20.893 -22.749,32.035 z"
       style="fill:none;stroke:#231f20;stroke-width:0.5;stroke-linecap:round;stroke-linejoin:round;stroke-miterlimit:4;stroke-dasharray:2.8, 1.8;stroke-dashoffset:0;stroke-opacity:1"
       id="path952" />
    <path
       d="m 732.913,509.725 96.903,-3.694"
       style="fill:none;stroke:#231f20;stroke-width:0.5;stroke-linecap:round;stroke-linejoin:round;stroke-miterlimit:4;stroke-dasharray:2.8, 1.8;stroke-dashoffset:0;stroke-opacity:1"
       id="path954" />
    <path
       d="m 744.732,600.73 72.228,1.032"
       style="fill:none;stroke:#231f20;stroke-width:0.5;stroke-linecap:round;stroke-linejoin:round;stroke-miterlimit:4;stroke-dasharray:2.8, 1.8;stroke-dashoffset:0;stroke-opacity:1"
       id="path956" />
    <path
       d="m 733.261,646.805 60.008,26.349"
       style="fill:none;stroke:#231f20;stroke-width:0.5;stroke-linecap:round;stroke-linejoin:round;stroke-miterlimit:4;stroke-dasharray:2.8, 1.8;stroke-dashoffset:0;stroke-opacity:1"
       id="path958" />
    <path
       d="m 762.103,600.979 c -1.682,0.152 -2.669,1.492 -2.821,2.299 -2.983,15.785 -11.613,41.234 -14.231,48.356 -3.182,8.659 -30.71,56.342 -40.46,72.591 -9.75,16.25 -18.572,33.429 -23.218,34.824 -4.647,1.396 -27.853,7.426 -57.567,14.39 -29.714,6.965 -38.688,17.084 -46.156,23.056 -4.916,3.931 -6.288,5.912 -8.801,9.365"
       style="fill:none;stroke:#231f20;stroke-width:0.5;stroke-linecap:round;stroke-linejoin:round;stroke-miterlimit:4;stroke-dasharray:2.8, 1.8;stroke-dashoffset:0;stroke-opacity:1"
       id="path960" />
    <path
       d="m 751.43,654.248 c 6.09,-1.988 11.196,-6.63 16.304,-19.166 5.108,-12.536 9.939,-29.715 4.042,-33.893"
       style="fill:none;stroke:#231f20;stroke-width:0.5;stroke-linecap:round;stroke-linejoin:round;stroke-miterlimit:4;stroke-dasharray:2.8, 1.8;stroke-dashoffset:0;stroke-opacity:1"
       id="path962" />
    <path
       d="m 575.992,806.859 c 1.603,-2.593 5.034,-6.029 7.884,-8.522 7.766,-6.789 16.715,-15.031 41.09,-20.603 24.375,-5.571 52.929,-12.188 55.018,-12.535 0.974,-0.163 3.908,-1.269 4.796,0.73 1.207,2.716 -0.87,3.076 -2.359,3.448 -2.785,0.697 -32.035,6.964 -43.178,9.402 -11.143,2.437 -36.142,5.958 -49.15,20.458 -2.734,3.047 -5.744,6.438 -6.431,8.409"
       style="fill:none;stroke:#231f20;stroke-width:0.5;stroke-linecap:round;stroke-linejoin:round;stroke-miterlimit:4;stroke-dasharray:2.8, 1.8;stroke-dashoffset:0;stroke-opacity:1"
       id="path964" />
    <path
       d="m 686.776,770.922 c 0.417,1.104 -23.158,8.553 -38.828,12.732 -15.669,4.178 -31.486,11.961 -41.182,18.394 -3.853,2.557 -5.017,3.755 -8.266,6.523"
       style="fill:none;stroke:#231f20;stroke-width:0.5;stroke-linecap:round;stroke-linejoin:round;stroke-miterlimit:4;stroke-dasharray:2.8, 1.8;stroke-dashoffset:0;stroke-opacity:1"
       id="path966" />
    <path
       d="m 512.219,400.706 c -1.119,4.437 -3.905,6.178 -7.387,7.223 -3.482,1.045 -23.679,5.92 -32.384,6.616 -8.705,0.697 -22.191,2.212 -27.81,1.105"
       style="fill:none;stroke:#231f20;stroke-width:0.5;stroke-linecap:round;stroke-linejoin:round;stroke-miterlimit:4;stroke-dasharray:2.8, 1.8;stroke-dashoffset:0;stroke-opacity:1"
       id="path968" />
    <path
       d="m 521.256,388.089 c 3.541,2.797 8.299,2.081 10.737,1.733 2.437,-0.348 5.223,-1.741 8.009,-1.741 2.786,0 5.571,1.393 8.008,1.741 2.438,0.348 7.197,1.064 10.737,-1.73"
       style="fill:none;stroke:#231f20;stroke-width:0.5;stroke-linecap:round;stroke-linejoin:round;stroke-miterlimit:4;stroke-dasharray:2.8, 1.8;stroke-dashoffset:0;stroke-opacity:1"
       id="path970" />
    <path
       d="m 511.308,445.537 c 0,0 -1.601,-6.268 -1.253,-9.75 0.349,-3.483 6.616,-14.278 12.536,-19.849 5.919,-5.571 11.143,-5.571 17.411,-5.571 6.267,0 11.491,0 17.411,5.571 5.919,5.571 12.187,16.366 12.535,19.849 0.348,3.482 -1.252,9.75 -1.252,9.75"
       style="fill:none;stroke:#231f20;stroke-width:0.5;stroke-linecap:round;stroke-linejoin:round;stroke-miterlimit:4;stroke-dasharray:2.8, 1.8;stroke-dashoffset:0;stroke-opacity:1"
       id="path972" />
    <path
       d="m 534.019,449.307 c -2.437,-5.571 -8.609,-33.459 -10.367,-59.88"
       style="fill:none;stroke:#231f20;stroke-width:0.5;stroke-linecap:round;stroke-linejoin:round;stroke-miterlimit:4;stroke-dasharray:2.8, 1.8;stroke-dashoffset:0;stroke-opacity:1"
       id="path974" />
    <path
       d="m 531.989,455.632 c 0,-3.846 1.558,-6.964 3.482,-6.964 1.923,0 3.482,3.118 3.482,6.964 0,3.847 -1.559,6.964 -3.482,6.964 -1.924,0 -3.482,-3.117 -3.482,-6.964 z"
       style="fill:none;stroke:#231f20;stroke-width:0.5;stroke-linecap:round;stroke-linejoin:round;stroke-miterlimit:4;stroke-dasharray:2.8, 1.8;stroke-dashoffset:0;stroke-opacity:1"
       id="path976" />
    <path
       d="m 476.626,497.073 c -10.098,-1.045 -29.598,-0.698 -42.133,1.74 -12.536,2.437 -18.108,2.437 -20.545,2.09 -2.438,-0.349 -8.73,-0.719 -8.009,-10.099 0.291,-3.789 2.172,-8.109 4.875,-14.625 2.33,-5.617 6.473,-16.491 13.437,-14.75 6.964,1.741 15.464,3.608 20.688,10.92 5.224,7.313 7.476,8.525 11.572,10.879"
       style="fill:none;stroke:#231f20;stroke-width:0.5;stroke-linecap:round;stroke-linejoin:round;stroke-miterlimit:4;stroke-dasharray:2.8, 1.8;stroke-dashoffset:0;stroke-opacity:1"
       id="path978" />
    <path
       d="m 405.939,490.804 c -1.741,6.965 -8.009,17.063 -11.491,19.5 -3.483,2.438 -6.964,3.134 -8.705,3.483"
       style="fill:none;stroke:#231f20;stroke-width:0.5;stroke-linecap:round;stroke-linejoin:round;stroke-miterlimit:4;stroke-dasharray:2.8, 1.8;stroke-dashoffset:0;stroke-opacity:1"
       id="path980" />
    <path
       d="m 380.664,511.913 c -1.654,-2.305 0.204,-9.269 4.034,-14.493 3.83,-5.222 15.321,-25.767 19.151,-33.428 3.831,-7.66 12.536,-18.108 16.366,-11.839"
       style="fill:none;stroke:#231f20;stroke-width:0.5;stroke-linecap:round;stroke-linejoin:round;stroke-miterlimit:4;stroke-dasharray:2.8, 1.8;stroke-dashoffset:0;stroke-opacity:1"
       id="path982" />
    <path
       d="m 532.341,515.528 c 0.348,-5.92 4.875,-7.313 7.661,-7.313 2.786,0 7.312,1.393 7.661,7.313"
       style="fill:none;stroke:#231f20;stroke-width:0.5;stroke-linecap:round;stroke-linejoin:round;stroke-miterlimit:4;stroke-dasharray:2.8, 1.8;stroke-dashoffset:0;stroke-opacity:1"
       id="path984" />
    <path
       d="m 349.753,555.331 c 4.998,1.983 11.615,6.161 18.23,4.42 6.616,-1.741 25.072,-6.616 34.126,-10.447 9.053,-3.83 13.231,-5.571 14.276,-10.794 1.045,-5.223 -0.348,-14.277 -2.786,-16.715 -2.437,-2.437 -8.009,-6.267 -11.142,-4.526 -3.134,1.741 -6.964,0.348 -8.706,-0.349 -1.741,-0.696 -11.491,-4.178 -16.017,-6.267 -4.527,-2.09 -7.367,-2.811 -10.475,-1.755"
       style="fill:none;stroke:#231f20;stroke-width:0.5;stroke-linecap:round;stroke-linejoin:round;stroke-miterlimit:4;stroke-dasharray:2.8, 1.8;stroke-dashoffset:0;stroke-opacity:1"
       id="path986" />
    <path
       d="m 366.276,560.061 c 1.707,-0.31 3.448,-2.399 1.707,-6.578 -1.74,-4.179 -3.134,-5.223 -1.044,-10.098 2.089,-4.875 2.437,-8.357 0,-10.795 -2.438,-2.437 -2.438,-3.83 -0.696,-7.312 3.133,-6.268 -3.101,-10.411 -6.269,-4.875"
       style="fill:none;stroke:#231f20;stroke-width:0.5;stroke-linecap:round;stroke-linejoin:round;stroke-miterlimit:4;stroke-dasharray:2.8, 1.8;stroke-dashoffset:0;stroke-opacity:1"
       id="path988" />
    <path
       d="m 505.876,537.117 c -4.526,-0.348 -16.713,-4.527 -15.321,-12.884 1.393,-8.358 14.75,-5.941 22.174,-2.795"
       style="fill:none;stroke:#231f20;stroke-width:0.5;stroke-linecap:round;stroke-linejoin:round;stroke-miterlimit:4;stroke-dasharray:2.8, 1.8;stroke-dashoffset:0;stroke-opacity:1"
       id="path990" />
    <path
       d="m 531.258,540.637 c 1.431,3.792 0.681,11.56 -0.658,14.238 -1.625,3.251 -3.831,6.965 -8.357,2.09 -4.527,-4.875 -4.363,-6.671 -4.967,-8.732"
       style="fill:none;stroke:#231f20;stroke-width:0.5;stroke-linecap:round;stroke-linejoin:round;stroke-miterlimit:4;stroke-dasharray:2.8, 1.8;stroke-dashoffset:0;stroke-opacity:1"
       id="path992" />
    <path
       d="m 528.788,626.042 c -4.456,3.701 -22.835,14.159 -32.275,41.314"
       style="fill:none;stroke:#231f20;stroke-width:0.5;stroke-linecap:round;stroke-linejoin:round;stroke-miterlimit:4;stroke-dasharray:2.8, 1.8;stroke-dashoffset:0;stroke-opacity:1"
       id="path994" />
    <path
       d="m 525.272,617.92 c 0,0 -39.483,7.843 -58.341,15.405"
       style="fill:none;stroke:#231f20;stroke-width:0.5;stroke-linecap:round;stroke-linejoin:round;stroke-miterlimit:4;stroke-dasharray:2.8, 1.8;stroke-dashoffset:0;stroke-opacity:1"
       id="path996" />
    <path
       d="m 527.118,611.635 c -11.839,-3.482 -34.71,-11.605 -52.351,-12.767"
       style="fill:none;stroke:#231f20;stroke-width:0.5;stroke-linecap:round;stroke-linejoin:round;stroke-miterlimit:4;stroke-dasharray:2.8, 1.8;stroke-dashoffset:0;stroke-opacity:1"
       id="path998" />
    <path
       d="m 532.341,597.707 c -3.831,-1.742 -7.313,-3.486 -7.661,-10.447 -0.348,-6.961 0,-10.446 -0.696,-13.928 -0.696,-3.483 -2.09,-7.662 -3.83,-10.795 -1.741,-3.134 -3.419,-5.721 -2.232,-11.914"
       style="fill:none;stroke:#231f20;stroke-width:0.5;stroke-linecap:round;stroke-linejoin:round;stroke-miterlimit:4;stroke-dasharray:2.8, 1.8;stroke-dashoffset:0;stroke-opacity:1"
       id="path1000" />
    <path
       d="m 525.666,592.012 c -8.995,-4.404 -24.316,-11.02 -29.54,-14.154 -5.223,-3.134 -12.396,-4.1 -15.948,-11.798"
       style="fill:none;stroke:#231f20;stroke-width:0.5;stroke-linecap:round;stroke-linejoin:round;stroke-miterlimit:4;stroke-dasharray:2.8, 1.8;stroke-dashoffset:0;stroke-opacity:1"
       id="path1002" />
    <path
       d="m 480.178,566.06 c 0,0 12.466,2.397 21.868,2.744 9.402,0.349 20.414,-1.001 20.414,-1.001 6.834,1.437 12.666,1.698 17.542,1.698 4.874,0 10.708,-0.261 17.54,-1.698 0,0 11.013,1.35 20.415,1.001 9.402,-0.347 21.869,-2.744 21.869,-2.744"
       style="fill:none;stroke:#231f20;stroke-width:0.5;stroke-linecap:round;stroke-linejoin:round;stroke-miterlimit:4;stroke-dasharray:2.8, 1.8;stroke-dashoffset:0;stroke-opacity:1"
       id="path1004" />
    <path
       d="m 473.745,573.627 c -9.655,-5.519 -42.234,-25.593 -78.351,-21.823"
       style="fill:none;stroke:#231f20;stroke-width:0.5;stroke-linecap:round;stroke-linejoin:round;stroke-miterlimit:4;stroke-dasharray:2.8, 1.8;stroke-dashoffset:0;stroke-opacity:1"
       id="path1006" />
    <path
       d="m 391.252,667.208 c -0.285,-2.084 -1.048,-4.439 -1.849,-6.042 -4.179,-8.357 -12.714,-21.673 -17.589,-41.87 -4.875,-20.197 -2.439,-33.426 -1.742,-38.998 0.696,-5.571 0.372,-10.19 -1.754,-10.743"
       style="fill:none;stroke:#231f20;stroke-width:0.5;stroke-linecap:round;stroke-linejoin:round;stroke-miterlimit:4;stroke-dasharray:2.8, 1.8;stroke-dashoffset:0;stroke-opacity:1"
       id="path1008" />
    <path
       d="m 534.43,711.225 c 0.349,4.875 0.349,20.893 0,24.375 -0.348,3.482 -4.526,10.446 -8.357,13.58 -3.83,3.135 -13.58,11.84 -32.035,12.885 -18.456,1.044 -41.09,-5.572 -54.67,-11.491 -13.581,-5.92 -33.429,-19.5 -42.483,-31.688 -9.053,-12.187 -12.187,-19.848 -5.571,-21.937"
       style="fill:none;stroke:#231f20;stroke-width:0.5;stroke-linecap:round;stroke-linejoin:round;stroke-miterlimit:4;stroke-dasharray:2.8, 1.8;stroke-dashoffset:0;stroke-opacity:1"
       id="path1010" />
    <path
       d="m 659.373,457.319 c 0.415,2.494 1.121,4.232 2.862,6.319"
       style="fill:none;stroke:#231f20;stroke-width:0.5;stroke-linecap:round;stroke-linejoin:round;stroke-miterlimit:4;stroke-dasharray:2.8, 1.8;stroke-dashoffset:0;stroke-opacity:1"
       id="path1012" />
    <path
       d="m 420.63,457.319 c -0.415,2.494 -1.121,4.23 -2.861,6.319"
       style="fill:none;stroke:#231f20;stroke-width:0.5;stroke-linecap:round;stroke-linejoin:round;stroke-miterlimit:4;stroke-dasharray:2.8, 1.8;stroke-dashoffset:0;stroke-opacity:1"
       id="path1014" />
    <path
       d="M 656.74,805.527 581.415,781.003"
       style="fill:none;stroke:#231f20;stroke-width:0.5;stroke-linecap:round;stroke-linejoin:round;stroke-miterlimit:4;stroke-dasharray:2.8, 1.8;stroke-dashoffset:0;stroke-opacity:1"
       id="path1016" />
    <path
       d="m 782.072,421.073 52.906,81.295"
       style="fill:none;stroke:#231f20;stroke-width:0.5;stroke-linecap:round;stroke-linejoin:round;stroke-miterlimit:4;stroke-dasharray:2.8, 1.8;stroke-dashoffset:0;stroke-opacity:1"
       id="path1018" />
    <path
       d="m 838.166,503.102 6.926,-84.7"
       style="fill:none;stroke:#231f20;stroke-width:0.5;stroke-linecap:round;stroke-linejoin:round;stroke-miterlimit:4;stroke-dasharray:2.8, 1.8;stroke-dashoffset:0;stroke-opacity:1"
       id="path1020" />
    <path
       d="m 857.606,518.458 44.479,-58.726"
       style="fill:none;stroke:#231f20;stroke-width:0.5;stroke-linecap:round;stroke-linejoin:round;stroke-miterlimit:4;stroke-dasharray:2.8, 1.8;stroke-dashoffset:0;stroke-opacity:1"
       id="path1022" />
    <path
       d="m 869.072,532.316 52.683,-46.63"
       style="fill:none;stroke:#231f20;stroke-width:0.5;stroke-linecap:round;stroke-linejoin:round;stroke-miterlimit:4;stroke-dasharray:2.8, 1.8;stroke-dashoffset:0;stroke-opacity:1"
       id="path1024" />
    <path
       d="m 666.144,627.428 c -2.422,-5.485 -4.331,-11.538 -3.919,-16.489 0.696,-8.357 3.134,-16.366 7.313,-21.938 4.178,-5.572 10.446,-10.098 18.803,-12.884 8.358,-2.785 28.902,-8.009 31.688,-8.705 2.786,-0.697 5.684,-0.485 7.208,4.213"
       style="fill:none;stroke:#231f20;stroke-width:0.5;stroke-linecap:round;stroke-linejoin:round;stroke-miterlimit:4;stroke-dasharray:2.8, 1.8;stroke-dashoffset:0;stroke-opacity:1"
       id="path1026" />
    <path
       d="m 413.859,627.428 c 2.422,-5.485 4.331,-11.538 3.919,-16.489 -0.696,-8.357 -3.134,-16.366 -7.313,-21.938 -4.178,-5.572 -10.446,-10.098 -18.803,-12.884 -8.357,-2.785 -28.902,-8.009 -31.688,-8.705 -2.785,-0.697 -5.683,-0.485 -7.207,4.213"
       style="fill:none;stroke:#231f20;stroke-width:0.5;stroke-linecap:round;stroke-linejoin:round;stroke-miterlimit:4;stroke-dasharray:2.8, 1.8;stroke-dashoffset:0;stroke-opacity:1"
       id="path1028" />
    <path
       d="m 767.263,601.113 c -2.775,-0.047 -6.492,-1.779 -6.957,-6.423 -0.465,-4.645 -4.179,-23.679 -8.357,-34.358 -4.179,-10.679 -9.286,-32.035 -3.715,-39.464 5.571,-7.43 14.394,-12.074 26.001,-4.179 11.606,7.893 14.217,37.864 10.967,49.936 -1.569,5.828 -4.003,16.457 -5.396,22.028 -1.392,5.571 -2.304,12.011 -9.286,12.513"
       style="fill:none;stroke:#231f20;stroke-width:0.5;stroke-linecap:round;stroke-linejoin:round;stroke-miterlimit:4;stroke-dasharray:2.8, 1.8;stroke-dashoffset:0;stroke-opacity:1"
       id="path1030" />
    <path
       d="m 556.368,550.698 c 2.015,0.549 6.964,-2.438 9.75,-5.224 2.786,-2.786 7.312,-7.312 5.571,-12.884 -1.741,-5.571 -5.223,-6.616 -11.491,-5.571 -6.268,1.044 -10.794,3.134 -11.491,10.446 -0.697,7.313 3.831,12.188 7.661,13.233 z"
       style="fill:none;stroke:#231f20;stroke-width:0.5;stroke-linecap:round;stroke-linejoin:round;stroke-miterlimit:4;stroke-dasharray:2.8, 1.8;stroke-dashoffset:0;stroke-opacity:1"
       id="path1032" />
    <path
       d="m 523.635,550.698 c -2.015,0.549 -6.964,-2.438 -9.75,-5.224 -2.785,-2.786 -7.312,-7.312 -5.571,-12.884 1.741,-5.571 5.224,-6.616 11.491,-5.571 6.268,1.044 10.795,3.134 11.491,10.446 0.697,7.313 -3.83,12.188 -7.661,13.233 z"
       style="fill:none;stroke:#231f20;stroke-width:0.5;stroke-linecap:round;stroke-linejoin:round;stroke-miterlimit:4;stroke-dasharray:2.8, 1.8;stroke-dashoffset:0;stroke-opacity:1"
       id="path1034" />
  </g>
</svg>
