<?xml version="1.0" encoding="UTF-8" standalone="no"?>
<!-- Created with Inkscape (http://www.inkscape.org/) -->

<svg
   version="1.1"
   id="svg2"
   width="1440"
   height="1344"
   viewBox="0 0 1440 1344"
   xmlns="http://www.w3.org/2000/svg"
   xmlns:svg="http://www.w3.org/2000/svg">
  <defs
     id="defs6" />
  <g
     id="g8">
    <path
       d="m 544.529,298.589 c 0,-2.113 -2.027,-3.83 -4.527,-3.83 -2.5,0 -4.527,1.717 -4.527,3.83 0,2.117 2.027,3.831 4.527,3.831 2.5,0 4.527,-1.714 4.527,-3.831"
       style="fill:#ffffff;fill-opacity:1;fill-rule:nonzero;stroke:none;stroke-width:0.1"
       id="path672" />
    <path
       d="m 544.529,298.589 c 0,-2.113 -2.027,-3.83 -4.527,-3.83 -2.5,0 -4.527,1.717 -4.527,3.83 0,2.117 2.027,3.831 4.527,3.831 2.5,0 4.527,-1.714 4.527,-3.831 z"
       style="fill:none;stroke:#231f20;stroke-width:0.5;stroke-linecap:butt;stroke-linejoin:miter;stroke-miterlimit:4;stroke-dasharray:none;stroke-opacity:1"
       id="path674" />
    <path
       d="m 737.091,509.608 c 0,-1.537 -1.247,-2.785 -2.786,-2.785 -1.538,0 -2.785,1.248 -2.785,2.785 0,1.54 1.247,2.786 2.785,2.786 1.539,0 2.786,-1.246 2.786,-2.786"
       style="fill:#ffffff;fill-opacity:1;fill-rule:nonzero;stroke:none;stroke-width:0.1"
       id="path676" />
    <path
       d="m 737.091,509.608 c 0,-1.537 -1.247,-2.785 -2.786,-2.785 -1.538,0 -2.785,1.248 -2.785,2.785 0,1.54 1.247,2.786 2.785,2.786 1.539,0 2.786,-1.246 2.786,-2.786 z"
       style="fill:none;stroke:#231f20;stroke-width:0.5;stroke-linecap:butt;stroke-linejoin:miter;stroke-miterlimit:4;stroke-dasharray:none;stroke-opacity:1"
       id="path678" />
    <path
       d="m 736.395,520.75 c 0,-1.344 -1.404,-2.437 -3.134,-2.437 -1.73,0 -3.134,1.093 -3.134,2.437 0,1.347 1.404,2.438 3.134,2.438 1.73,0 3.134,-1.091 3.134,-2.438"
       style="fill:#ffffff;fill-opacity:1;fill-rule:nonzero;stroke:none;stroke-width:0.1"
       id="path680" />
    <path
       d="m 736.395,520.75 c 0,-1.344 -1.404,-2.437 -3.134,-2.437 -1.73,0 -3.134,1.093 -3.134,2.437 0,1.347 1.404,2.438 3.134,2.438 1.73,0 3.134,-1.091 3.134,-2.438 z"
       style="fill:none;stroke:#231f20;stroke-width:0.5;stroke-linecap:butt;stroke-linejoin:miter;stroke-miterlimit:4;stroke-dasharray:none;stroke-opacity:1"
       id="path682" />
    <path
       d="m 733.261,539.903 c 2.872,1.654 6.268,-1.393 7.66,-6.616 1.394,-5.224 1.394,-8.358 -0.347,-9.402 -1.742,-1.045 -5.224,1.74 -7.313,7.313 -2.09,5.571 -0.722,8.29 0,8.705"
       style="fill:#ffffff;fill-opacity:1;fill-rule:nonzero;stroke:none;stroke-width:0.1"
       id="path684" />
    <path
       d="m 733.261,539.903 c 2.872,1.654 6.268,-1.393 7.66,-6.616 1.394,-5.224 1.394,-8.358 -0.347,-9.402 -1.742,-1.045 -5.224,1.74 -7.313,7.313 -2.09,5.571 -0.722,8.29 0,8.705 z"
       style="fill:none;stroke:#231f20;stroke-width:0.5;stroke-linecap:butt;stroke-linejoin:miter;stroke-miterlimit:4;stroke-dasharray:none;stroke-opacity:1"
       id="path686" />
    <path
       d="m 732.565,560.448 c 3.536,-0.322 3.481,-3.134 2.785,-7.313 -0.696,-4.178 -2.437,-5.92 -5.223,-5.572 -2.786,0.349 -2.786,4.179 -2.089,7.661 0.696,3.483 0.696,5.571 4.527,5.224"
       style="fill:#ffffff;fill-opacity:1;fill-rule:nonzero;stroke:none;stroke-width:0.1"
       id="path688" />
    <path
       d="m 732.565,560.448 c 3.536,-0.322 3.481,-3.134 2.785,-7.313 -0.696,-4.178 -2.437,-5.92 -5.223,-5.572 -2.786,0.349 -2.786,4.179 -2.089,7.661 0.696,3.483 0.696,5.571 4.527,5.224 z"
       style="fill:none;stroke:#231f20;stroke-width:0.5;stroke-linecap:butt;stroke-linejoin:miter;stroke-miterlimit:4;stroke-dasharray:none;stroke-opacity:1"
       id="path690" />
    <path
       d="m 594.671,772.859 c 0,-1.538 -1.247,-2.785 -2.786,-2.785 -1.538,0 -2.785,1.247 -2.785,2.785 0,1.539 1.247,2.786 2.785,2.786 1.539,0 2.786,-1.247 2.786,-2.786"
       style="fill:#ffffff;fill-opacity:1;fill-rule:nonzero;stroke:none;stroke-width:0.1"
       id="path692" />
    <path
       d="m 594.671,772.859 c 0,-1.538 -1.247,-2.785 -2.786,-2.785 -1.538,0 -2.785,1.247 -2.785,2.785 0,1.539 1.247,2.786 2.785,2.786 1.539,0 2.786,-1.247 2.786,-2.786 z"
       style="fill:none;stroke:#231f20;stroke-width:0.5;stroke-linecap:butt;stroke-linejoin:miter;stroke-miterlimit:4;stroke-dasharray:none;stroke-opacity:1"
       id="path694" />
    <path
       d="m 572.734,745.93 c -0.581,2.438 2.437,4.644 5.571,5.34 3.134,0.696 8.276,1.64 9.054,-0.696 1.045,-3.134 -1.777,-3.428 -2.786,-5.572 -0.469,-0.997 -3.422,-2.768 -6.616,-2.437 -3.367,0.348 -4.682,1.093 -5.223,3.365"
       style="fill:#ffffff;fill-opacity:1;fill-rule:nonzero;stroke:none;stroke-width:0.1"
       id="path696" />
    <path
       d="m 572.734,745.93 c -0.581,2.438 2.437,4.644 5.571,5.34 3.134,0.696 8.276,1.64 9.054,-0.696 1.045,-3.134 -1.777,-3.428 -2.786,-5.572 -0.469,-0.997 -3.422,-2.768 -6.616,-2.437 -3.367,0.348 -4.682,1.093 -5.223,3.365 z"
       style="fill:none;stroke:#231f20;stroke-width:0.5;stroke-linecap:butt;stroke-linejoin:miter;stroke-miterlimit:4;stroke-dasharray:none;stroke-opacity:1"
       id="path698" />
    <path
       d="m 342.912,509.608 c 0,-1.537 1.248,-2.785 2.786,-2.785 1.538,0 2.785,1.248 2.785,2.785 0,1.54 -1.247,2.786 -2.785,2.786 -1.538,0 -2.786,-1.246 -2.786,-2.786"
       style="fill:#ffffff;fill-opacity:1;fill-rule:nonzero;stroke:none;stroke-width:0.1"
       id="path700" />
    <path
       d="m 342.912,509.608 c 0,-1.537 1.248,-2.785 2.786,-2.785 1.538,0 2.785,1.248 2.785,2.785 0,1.54 -1.247,2.786 -2.785,2.786 -1.538,0 -2.786,-1.246 -2.786,-2.786 z"
       style="fill:none;stroke:#231f20;stroke-width:0.5;stroke-linecap:butt;stroke-linejoin:miter;stroke-miterlimit:4;stroke-dasharray:none;stroke-opacity:1"
       id="path702" />
    <path
       d="m 343.608,520.75 c 0,-1.344 1.404,-2.437 3.135,-2.437 1.729,0 3.133,1.093 3.133,2.437 0,1.347 -1.404,2.438 -3.133,2.438 -1.731,0 -3.135,-1.091 -3.135,-2.438"
       style="fill:#ffffff;fill-opacity:1;fill-rule:nonzero;stroke:none;stroke-width:0.1"
       id="path704" />
    <path
       d="m 343.608,520.75 c 0,-1.344 1.404,-2.437 3.135,-2.437 1.729,0 3.133,1.093 3.133,2.437 0,1.347 -1.404,2.438 -3.133,2.438 -1.731,0 -3.135,-1.091 -3.135,-2.438 z"
       style="fill:none;stroke:#231f20;stroke-width:0.5;stroke-linecap:butt;stroke-linejoin:miter;stroke-miterlimit:4;stroke-dasharray:none;stroke-opacity:1"
       id="path706" />
    <path
       d="m 346.743,539.903 c -2.873,1.654 -6.269,-1.393 -7.661,-6.616 -1.393,-5.224 -1.393,-8.358 0.348,-9.402 1.74,-1.045 5.223,1.74 7.313,7.313 2.089,5.571 0.721,8.29 0,8.705"
       style="fill:#ffffff;fill-opacity:1;fill-rule:nonzero;stroke:none;stroke-width:0.1"
       id="path708" />
    <path
       d="m 346.743,539.903 c -2.873,1.654 -6.269,-1.393 -7.661,-6.616 -1.393,-5.224 -1.393,-8.358 0.348,-9.402 1.74,-1.045 5.223,1.74 7.313,7.313 2.089,5.571 0.721,8.29 0,8.705 z"
       style="fill:none;stroke:#231f20;stroke-width:0.5;stroke-linecap:butt;stroke-linejoin:miter;stroke-miterlimit:4;stroke-dasharray:none;stroke-opacity:1"
       id="path710" />
    <path
       d="m 347.439,560.448 c -3.537,-0.322 -3.482,-3.134 -2.786,-7.313 0.696,-4.178 2.437,-5.92 5.223,-5.572 2.786,0.349 2.786,4.179 2.089,7.661 -0.696,3.483 -0.696,5.571 -4.526,5.224"
       style="fill:#ffffff;fill-opacity:1;fill-rule:nonzero;stroke:none;stroke-width:0.1"
       id="path712" />
    <path
       d="m 347.439,560.448 c -3.537,-0.322 -3.482,-3.134 -2.786,-7.313 0.696,-4.178 2.437,-5.92 5.223,-5.572 2.786,0.349 2.786,4.179 2.089,7.661 -0.696,3.483 -0.696,5.571 -4.526,5.224 z"
       style="fill:none;stroke:#231f20;stroke-width:0.5;stroke-linecap:butt;stroke-linejoin:miter;stroke-miterlimit:4;stroke-dasharray:none;stroke-opacity:1"
       id="path714" />
    <path
       d="m 485.332,772.859 c 0,-1.538 1.248,-2.785 2.786,-2.785 1.538,0 2.785,1.247 2.785,2.785 0,1.539 -1.247,2.786 -2.785,2.786 -1.538,0 -2.786,-1.247 -2.786,-2.786"
       style="fill:#ffffff;fill-opacity:1;fill-rule:nonzero;stroke:none;stroke-width:0.1"
       id="path716" />
    <path
       d="m 485.332,772.859 c 0,-1.538 1.248,-2.785 2.786,-2.785 1.538,0 2.785,1.247 2.785,2.785 0,1.539 -1.247,2.786 -2.785,2.786 -1.538,0 -2.786,-1.247 -2.786,-2.786 z"
       style="fill:none;stroke:#231f20;stroke-width:0.5;stroke-linecap:butt;stroke-linejoin:miter;stroke-miterlimit:4;stroke-dasharray:none;stroke-opacity:1"
       id="path718" />
    <path
       d="m 507.269,745.93 c 0.581,2.438 -2.437,4.644 -5.571,5.34 -3.134,0.696 -8.276,1.64 -9.054,-0.696 -1.044,-3.134 1.776,-3.428 2.786,-5.572 0.469,-0.997 3.422,-2.768 6.616,-2.437 3.367,0.348 4.682,1.093 5.223,3.365"
       style="fill:#ffffff;fill-opacity:1;fill-rule:nonzero;stroke:none;stroke-width:0.1"
       id="path720" />
    <path
       d="m 507.269,745.93 c 0.581,2.438 -2.437,4.644 -5.571,5.34 -3.134,0.696 -8.276,1.64 -9.054,-0.696 -1.044,-3.134 1.776,-3.428 2.786,-5.572 0.469,-0.997 3.422,-2.768 6.616,-2.437 3.367,0.348 4.682,1.093 5.223,3.365 z"
       style="fill:none;stroke:#231f20;stroke-width:0.5;stroke-linecap:butt;stroke-linejoin:miter;stroke-miterlimit:4;stroke-dasharray:none;stroke-opacity:1"
       id="path722" />
    <path
       d="m 726.645,665.609 c -1.741,6.267 -8.706,35.517 -19.849,51.536 -1.741,9.054 -9.75,21.937 -12.535,27.16 -2.786,5.224 -1.393,6.616 -11.84,11.144 -10.446,4.526 -54.669,21.589 -72.428,32.383 -17.759,10.795 -28.554,27.162 -33.429,37.259 -4.875,10.099 -6.268,20.545 -2.785,26.813 3.481,6.268 29.25,26.465 53.276,34.821 24.027,8.358 69.295,12.188 102.375,3.135 33.081,-9.054 66.51,-32.385 106.554,-64.072 40.045,-31.688 58.423,-59.197 85.661,-118.742 27.238,-59.545 23.331,-89.491 15.321,-103.419 -8.008,-13.929 -9.75,-12.885 -11.491,-13.929 -1.74,-1.045 -1.044,-2.786 -0.696,-4.875 0.348,-2.09 6.965,-16.019 2.437,-28.206 -4.526,-12.188 -7.312,-24.027 -35.517,-55.714 -28.205,-31.688 -51.188,-41.438 -74.518,-39.697 -23.331,1.741 -49.102,22.34 -62.331,43.179 -13.227,20.838 -15.321,65.813 -16.018,74.518 0,0 -9.053,8.357 -9.402,29.947 -0.348,21.589 -0.451,42.092 -2.785,56.759"
       style="fill:#ffffff;fill-opacity:1;fill-rule:nonzero;stroke:none;stroke-width:0.1"
       id="path724" />
    <path
       d="m 726.645,665.609 c -1.741,6.267 -8.706,35.517 -19.849,51.536 -1.741,9.054 -9.75,21.937 -12.535,27.16 -2.786,5.224 -1.393,6.616 -11.84,11.144 -10.446,4.526 -54.669,21.589 -72.428,32.383 -17.759,10.795 -28.554,27.162 -33.429,37.259 -4.875,10.099 -6.268,20.545 -2.785,26.813 3.481,6.268 29.25,26.465 53.276,34.821 24.027,8.358 69.295,12.188 102.375,3.135 33.081,-9.054 66.51,-32.385 106.554,-64.072 40.045,-31.688 58.423,-59.197 85.661,-118.742 27.238,-59.545 23.331,-89.491 15.321,-103.419 -8.008,-13.929 -9.75,-12.885 -11.491,-13.929 -1.74,-1.045 -1.044,-2.786 -0.696,-4.875 0.348,-2.09 6.965,-16.019 2.437,-28.206 -4.526,-12.188 -7.312,-24.027 -35.517,-55.714 -28.205,-31.688 -51.188,-41.438 -74.518,-39.697 -23.331,1.741 -49.102,22.34 -62.331,43.179 -13.227,20.838 -15.321,65.813 -16.018,74.518 0,0 -9.053,8.357 -9.402,29.947 -0.348,21.589 -0.451,42.092 -2.785,56.759 z"
       style="fill:none;stroke:#231f20;stroke-width:0.75;stroke-linecap:round;stroke-linejoin:round;stroke-miterlimit:4;stroke-dasharray:none;stroke-opacity:1"
       id="path726" />
    <path
       d="m 540.002,302.42 c -4.527,0 -8.706,-2.089 -17.411,-3.133 -8.706,-1.045 -35.518,-2.09 -53.277,2.089 -17.759,4.178 -39.696,21.588 -56.411,36.911 -16.714,15.321 -20.544,30.991 -20.544,30.991 -17.76,-2.786 -22.286,6.267 -22.286,6.267 -3.134,0.348 -5.92,1.742 -10.447,6.268 -4.527,4.527 -13.581,15.321 -29.25,31.687 -15.669,16.367 -33.428,20.894 -32.384,33.778 1.045,12.884 19.848,13.928 27.509,12.884 7.661,-1.045 20.544,-11.84 20.544,-11.84 -2.437,3.482 -4.177,8.706 -3.83,14.277 0.349,5.571 -0.347,9.054 2.786,12.188 3.134,3.133 8.009,0 8.009,0 -1.392,3.133 -2.786,8.357 -3.134,16.366 -0.348,8.009 -1.044,25.767 0.348,30.642 1.394,4.875 6.616,25.42 8.009,33.778 1.393,8.356 0.349,14.972 -1.393,23.678 -1.741,8.706 -3.482,14.625 -3.83,34.822 -0.348,20.197 -1.392,45.268 0.348,51.536 1.741,6.267 8.706,35.517 19.849,51.536 7.661,17.41 9.053,16.714 18.803,27.16 9.75,10.447 29.947,18.804 43.527,21.938 13.581,3.134 25.42,3.482 35.518,-0.348 10.098,-3.83 17.063,-15.321 20.893,-19.5 3.83,-4.179 5.92,-9.75 18.107,-10.795 12.188,-1.045 23.679,-6.268 25.42,-7.312 1.741,-1.045 4.527,-0.697 4.527,-0.697 0,0 2.786,-0.348 4.527,0.697 1.74,1.044 13.231,6.267 25.419,7.312 12.187,1.045 14.277,6.616 18.107,10.795 3.83,4.179 10.795,15.67 20.893,19.5 10.098,3.83 21.937,3.482 35.518,0.348 13.58,-3.134 33.777,-11.491 43.527,-21.938 9.75,-10.446 11.143,-9.75 18.803,-27.16 11.143,-16.019 18.108,-45.269 19.849,-51.536 1.741,-6.268 0.696,-31.339 0.348,-51.536 -0.348,-20.197 -2.089,-26.116 -3.83,-34.822 -1.742,-8.706 -2.786,-15.322 -1.393,-23.678 1.393,-8.358 6.616,-28.903 8.009,-33.778 1.392,-4.875 0.696,-22.633 0.348,-30.642 -0.348,-8.009 -1.741,-13.233 -3.134,-16.366 0,0 4.875,3.133 8.009,0 3.134,-3.134 2.438,-6.617 2.786,-12.188 0.348,-5.571 -1.393,-10.795 -3.83,-14.277 0,0 12.883,10.795 20.544,11.84 7.661,1.044 26.464,0 27.509,-12.884 1.044,-12.884 -16.715,-17.411 -32.384,-33.778 -15.669,-16.366 -24.723,-27.16 -29.25,-31.687 -4.527,-4.526 -7.313,-5.92 -10.447,-6.268 0,0 -4.526,-9.053 -22.285,-6.267 0,0 -3.831,-15.67 -20.545,-30.991 -16.714,-15.323 -38.652,-32.733 -56.411,-36.911 -17.759,-4.179 -44.571,-3.134 -53.276,-2.089 -8.706,1.044 -12.884,3.133 -17.411,3.133"
       style="fill:#ffffff;fill-opacity:1;fill-rule:nonzero;stroke:none;stroke-width:0.1"
       id="path728" />
    <path
       d="m 540.002,302.42 c -4.527,0 -8.706,-2.089 -17.411,-3.133 -8.706,-1.045 -35.518,-2.09 -53.277,2.089 -17.759,4.178 -39.696,21.588 -56.411,36.911 -16.714,15.321 -20.544,30.991 -20.544,30.991 -17.76,-2.786 -22.286,6.267 -22.286,6.267 -3.134,0.348 -5.92,1.742 -10.447,6.268 -4.527,4.527 -13.581,15.321 -29.25,31.687 -15.669,16.367 -33.428,20.894 -32.384,33.778 1.045,12.884 19.848,13.928 27.509,12.884 7.661,-1.045 20.544,-11.84 20.544,-11.84 -2.437,3.482 -4.177,8.706 -3.83,14.277 0.349,5.571 -0.347,9.054 2.786,12.188 3.134,3.133 8.009,0 8.009,0 -1.392,3.133 -2.786,8.357 -3.134,16.366 -0.348,8.009 -1.044,25.767 0.348,30.642 1.394,4.875 6.616,25.42 8.009,33.778 1.393,8.356 0.349,14.972 -1.393,23.678 -1.741,8.706 -3.482,14.625 -3.83,34.822 -0.348,20.197 -1.392,45.268 0.348,51.536 1.741,6.267 8.706,35.517 19.849,51.536 7.661,17.41 9.053,16.714 18.803,27.16 9.75,10.447 29.947,18.804 43.527,21.938 13.581,3.134 25.42,3.482 35.518,-0.348 10.098,-3.83 17.063,-15.321 20.893,-19.5 3.83,-4.179 5.92,-9.75 18.107,-10.795 12.188,-1.045 23.679,-6.268 25.42,-7.312 1.741,-1.045 4.527,-0.697 4.527,-0.697 0,0 2.786,-0.348 4.527,0.697 1.74,1.044 13.231,6.267 25.419,7.312 12.187,1.045 14.277,6.616 18.107,10.795 3.83,4.179 10.795,15.67 20.893,19.5 10.098,3.83 21.937,3.482 35.518,0.348 13.58,-3.134 33.777,-11.491 43.527,-21.938 9.75,-10.446 11.143,-9.75 18.803,-27.16 11.143,-16.019 18.108,-45.269 19.849,-51.536 1.741,-6.268 0.696,-31.339 0.348,-51.536 -0.348,-20.197 -2.089,-26.116 -3.83,-34.822 -1.742,-8.706 -2.786,-15.322 -1.393,-23.678 1.393,-8.358 6.616,-28.903 8.009,-33.778 1.392,-4.875 0.696,-22.633 0.348,-30.642 -0.348,-8.009 -1.741,-13.233 -3.134,-16.366 0,0 4.875,3.133 8.009,0 3.134,-3.134 2.438,-6.617 2.786,-12.188 0.348,-5.571 -1.393,-10.795 -3.83,-14.277 0,0 12.883,10.795 20.544,11.84 7.661,1.044 26.464,0 27.509,-12.884 1.044,-12.884 -16.715,-17.411 -32.384,-33.778 -15.669,-16.366 -24.723,-27.16 -29.25,-31.687 -4.527,-4.526 -7.313,-5.92 -10.447,-6.268 0,0 -4.526,-9.053 -22.285,-6.267 0,0 -3.831,-15.67 -20.545,-30.991 -16.714,-15.323 -38.652,-32.733 -56.411,-36.911 -17.759,-4.179 -44.571,-3.134 -53.276,-2.089 -8.706,1.044 -12.884,3.133 -17.411,3.133 z"
       style="fill:none;stroke:#231f20;stroke-width:0.75;stroke-linecap:round;stroke-linejoin:round;stroke-miterlimit:4;stroke-dasharray:none;stroke-opacity:1"
       id="path730" />
    <path
       d="m 615.344,572.739 c 0,-0.623 -0.501,-1.127 -1.127,-1.127 -0.623,0 -1.126,0.504 -1.126,1.127 0,0.622 0.503,1.126 1.126,1.126 0.626,0 1.127,-0.504 1.127,-1.126"
       style="fill:#231f20;fill-opacity:1;fill-rule:nonzero;stroke:none;stroke-width:0.1"
       id="path732" />
    <path
       d="m 619.041,581.925 c 0,-0.623 -0.5,-1.126 -1.126,-1.126 -0.623,0 -1.126,0.503 -1.126,1.126 0,0.623 0.503,1.126 1.126,1.126 0.626,0 1.126,-0.503 1.126,-1.126"
       style="fill:#231f20;fill-opacity:1;fill-rule:nonzero;stroke:none;stroke-width:0.1"
       id="path734" />
    <path
       d="m 619.937,590.664 c 0,-0.624 -0.5,-1.127 -1.126,-1.127 -0.623,0 -1.126,0.503 -1.126,1.127 0,0.623 0.503,1.126 1.126,1.126 0.626,0 1.126,-0.503 1.126,-1.126"
       style="fill:#231f20;fill-opacity:1;fill-rule:nonzero;stroke:none;stroke-width:0.1"
       id="path736" />
    <path
       d="m 618.983,596.273 c 0,-0.623 -0.501,-1.126 -1.127,-1.126 -0.623,0 -1.126,0.503 -1.126,1.126 0,0.623 0.503,1.126 1.126,1.126 0.626,0 1.127,-0.503 1.127,-1.126"
       style="fill:#231f20;fill-opacity:1;fill-rule:nonzero;stroke:none;stroke-width:0.1"
       id="path738" />
    <path
       d="m 733.958,448.322 c -6.617,-8.357 -25.42,-34.473 -31.688,-44.223 -6.268,-9.75 -12.188,-21.241 -14.625,-34.821"
       style="fill:none;stroke:#231f20;stroke-width:0.5;stroke-linecap:butt;stroke-linejoin:miter;stroke-miterlimit:4;stroke-dasharray:none;stroke-opacity:1"
       id="path740" />
    <path
       d="m 701.183,402.385 c -2.665,-4.451 -3.44,-23.706 8.747,-26.84"
       style="fill:none;stroke:#231f20;stroke-width:0.5;stroke-linecap:butt;stroke-linejoin:miter;stroke-miterlimit:4;stroke-dasharray:none;stroke-opacity:1"
       id="path742" />
    <path
       d="m 695.305,809.074 c -1.666,-1.482 1.394,-8.009 24.375,-30.295 22.983,-22.286 71.036,-66.858 89.144,-91.58 18.107,-24.724 25.42,-35.867 28.553,-34.474 3.134,1.393 6.617,10.446 -12.883,43.875 -19.5,33.429 -56.76,62.33 -71.036,74.518 -14.278,12.188 -55.019,40.741 -58.153,37.956 z"
       style="fill:none;stroke:#231f20;stroke-width:0.5;stroke-linecap:butt;stroke-linejoin:miter;stroke-miterlimit:4;stroke-dasharray:none;stroke-opacity:1"
       id="path744" />
    <path
       d="m 353.358,665.609 c 1.741,6.267 8.706,35.517 19.849,51.536 1.741,9.054 9.75,21.937 12.536,27.16 2.785,5.224 1.392,6.616 11.839,11.144 10.446,4.526 54.669,21.589 72.428,32.383 17.759,10.795 28.554,27.162 33.429,37.259 4.875,10.099 6.268,20.545 2.786,26.813 -3.482,6.268 -29.25,26.465 -53.277,34.821 -24.027,8.358 -69.295,12.188 -102.375,3.135 -33.08,-9.054 -66.509,-32.385 -106.554,-64.072 -40.045,-31.688 -58.423,-59.197 -85.661,-118.742 -27.238,-59.545 -23.33,-89.491 -15.321,-103.419 8.008,-13.929 9.75,-12.885 11.491,-13.929 1.741,-1.045 1.044,-2.786 0.696,-4.875 -0.348,-2.09 -6.965,-16.019 -2.437,-28.206 4.526,-12.188 7.312,-24.027 35.517,-55.714 28.206,-31.688 51.188,-41.438 74.519,-39.697 23.33,1.741 49.102,22.34 62.33,43.179 13.228,20.838 15.321,65.813 16.017,74.518 0,0 9.054,8.357 9.403,29.947 0.347,21.589 0.451,42.092 2.785,56.759"
       style="fill:#ffffff;fill-opacity:1;fill-rule:nonzero;stroke:none;stroke-width:0.1"
       id="path746" />
    <path
       d="m 353.358,665.609 c 1.741,6.267 8.706,35.517 19.849,51.536 1.741,9.054 9.75,21.937 12.536,27.16 2.785,5.224 1.392,6.616 11.839,11.144 10.446,4.526 54.669,21.589 72.428,32.383 17.759,10.795 28.554,27.162 33.429,37.259 4.875,10.099 6.268,20.545 2.786,26.813 -3.482,6.268 -29.25,26.465 -53.277,34.821 -24.027,8.358 -69.295,12.188 -102.375,3.135 -33.08,-9.054 -66.509,-32.385 -106.554,-64.072 -40.045,-31.688 -58.423,-59.197 -85.661,-118.742 -27.238,-59.545 -23.33,-89.491 -15.321,-103.419 8.008,-13.929 9.75,-12.885 11.491,-13.929 1.741,-1.045 1.044,-2.786 0.696,-4.875 -0.348,-2.09 -6.965,-16.019 -2.437,-28.206 4.526,-12.188 7.312,-24.027 35.517,-55.714 28.206,-31.688 51.188,-41.438 74.519,-39.697 23.33,1.741 49.102,22.34 62.33,43.179 13.228,20.838 15.321,65.813 16.017,74.518 0,0 9.054,8.357 9.403,29.947 0.347,21.589 0.451,42.092 2.785,56.759 z"
       style="fill:none;stroke:#231f20;stroke-width:0.75;stroke-linecap:round;stroke-linejoin:round;stroke-miterlimit:4;stroke-dasharray:none;stroke-opacity:1"
       id="path748" />
    <path
       d="m 384.698,809.074 c 1.666,-1.482 -1.393,-8.009 -24.375,-30.295 -22.983,-22.286 -71.036,-66.858 -89.144,-91.58 -18.106,-24.724 -25.419,-35.867 -28.553,-34.474 -3.134,1.393 -6.616,10.446 12.884,43.875 19.5,33.429 56.759,62.33 71.035,74.518 14.278,12.188 55.019,40.741 58.153,37.956 z"
       style="fill:none;stroke:#231f20;stroke-width:0.5;stroke-linecap:butt;stroke-linejoin:miter;stroke-miterlimit:4;stroke-dasharray:none;stroke-opacity:1"
       id="path750" />
    <path
       d="m 706.796,717.145 c 3.83,-12.884 13.929,-47.706 14.625,-63.375 0.697,-15.67 2.438,-36.911 -2.089,-51.188 -4.527,-14.278 -1.844,-23.059 5.235,-16.435"
       style="fill:none;stroke:#231f20;stroke-width:0.5;stroke-linecap:butt;stroke-linejoin:miter;stroke-miterlimit:4;stroke-dasharray:none;stroke-opacity:1"
       id="path752" />
    <path
       d="m 579.487,738.088 c 6.131,-3.184 11.354,-9.104 19.711,-18.854 8.357,-9.75 24.027,-26.813 30.295,-45.616 6.267,-18.804 9.75,-42.83 -15.67,-60.242"
       style="fill:none;stroke:#231f20;stroke-width:0.5;stroke-linecap:butt;stroke-linejoin:miter;stroke-miterlimit:4;stroke-dasharray:none;stroke-opacity:1"
       id="path754" />
    <path
       d="m 666.055,598.054 c 4.527,-2.437 11.63,-7.633 13.371,-21.561"
       style="fill:none;stroke:#231f20;stroke-width:0.25;stroke-linecap:butt;stroke-linejoin:miter;stroke-miterlimit:4;stroke-dasharray:none;stroke-opacity:1"
       id="path756" />
    <path
       d="m 612.779,564.626 c 0,-2.307 -1.87,-4.178 -4.179,-4.178 -2.308,0 -4.179,1.871 -4.179,4.178 0,2.308 1.871,4.178 4.179,4.178 2.309,0 4.179,-1.87 4.179,-4.178 z"
       style="fill:none;stroke:#231f20;stroke-width:0.5;stroke-linecap:butt;stroke-linejoin:miter;stroke-miterlimit:4;stroke-dasharray:none;stroke-opacity:1"
       id="path758" />
    <path
       d="m 615.601,607.7 c 3.901,-8.252 11.256,-22.959 -3.27,-41.2"
       style="fill:none;stroke:#231f20;stroke-width:0.5;stroke-linecap:butt;stroke-linejoin:miter;stroke-miterlimit:4;stroke-dasharray:none;stroke-opacity:1"
       id="path760" />
    <path
       d="m 587.45,550.616 c -5.604,-4.214 -12.627,-10.366 -19.94,-11.409 -6.893,-0.986 -14.098,0.527 -18.106,-3.483 -6.965,-6.964 -4.179,-16.714 -4.179,-16.714 7.66,-1.741 18.224,0.697 21.938,3.482 3.49,2.619 12.535,16.018 16.713,23.331 4.179,7.312 14.468,14.276 20.736,19.847"
       style="fill:none;stroke:#231f20;stroke-width:0.5;stroke-linecap:butt;stroke-linejoin:miter;stroke-miterlimit:4;stroke-dasharray:none;stroke-opacity:1"
       id="path762" />
    <path
       d="m 623.921,389.474 c 3.829,0.614 8.358,0.696 11.143,-0.348 2.484,-0.931 6.616,-1.393 9.402,-0.697 2.786,0.697 7.66,-0.696 6.616,-4.875 -1.044,-4.178 -4.527,-21.589 -17.062,-27.857 -9.261,-4.63 -17.062,-5.223 -28.554,-3.83 -11.491,1.392 -14.277,1.045 -19.152,0 -4.875,-1.045 -14.625,-3.83 -18.455,5.92 0,0 -10.446,-1.394 -14.974,10.097 -4.526,11.492 -4.178,16.366 -4.178,16.366 0,0 27.857,13.581 57.456,-4.874 0,0 10.563,8.947 17.758,10.098 z"
       style="fill:none;stroke:#231f20;stroke-width:0.5;stroke-linecap:butt;stroke-linejoin:miter;stroke-miterlimit:4;stroke-dasharray:none;stroke-opacity:1"
       id="path764" />
    <path
       d="m 553.299,366.905 c 5.158,5.507 28.836,19.783 52.864,12.471"
       style="fill:none;stroke:#231f20;stroke-width:0.5;stroke-linecap:butt;stroke-linejoin:miter;stroke-miterlimit:4;stroke-dasharray:none;stroke-opacity:1"
       id="path766" />
    <path
       d="m 567.859,357.787 c -0.349,2.785 3.83,2.785 8.009,3.481 4.178,0.697 13.928,2.786 18.803,6.269 4.875,3.481 6.617,4.178 11.492,11.839"
       style="fill:none;stroke:#231f20;stroke-width:0.5;stroke-linecap:butt;stroke-linejoin:miter;stroke-miterlimit:4;stroke-dasharray:none;stroke-opacity:1"
       id="path768" />
    <path
       d="m 726.993,474.787 c -4.178,-8.358 -8.009,-13.233 -8.009,-13.233 0,0 -8.705,-16.366 -14.276,-24.026 -5.572,-7.661 -16.715,-20.545 -20.545,-25.42 0,0 -9.75,-14.277 -14.277,-25.071"
       style="fill:none;stroke:#231f20;stroke-width:0.5;stroke-linecap:butt;stroke-linejoin:miter;stroke-miterlimit:4;stroke-dasharray:none;stroke-opacity:1"
       id="path770" />
    <path
       d="m 718.984,461.554 c -5.92,-4.178 -27.288,-23.923 -34.821,-49.446"
       style="fill:none;stroke:#231f20;stroke-width:0.5;stroke-linecap:butt;stroke-linejoin:miter;stroke-miterlimit:4;stroke-dasharray:none;stroke-opacity:1"
       id="path772" />
    <path
       d="m 568.207,463.295 c 2.17,-20.226 2.99,-26.132 1.741,-39 -0.87,-8.966 1.393,-8.531 3.134,-8.705 1.866,-0.185 3.308,0 4.12,8.189 0.831,8.381 1.277,19.494 -0.986,38.124 -1.312,10.805 -5.07,29.552 -6.268,34.821 -0.87,3.83 -3.048,2.898 -4.875,2.438 -1.013,-0.253 -3.134,-0.349 -2.089,-4.527 1.045,-4.178 3.988,-19.832 5.223,-31.34 z"
       style="fill:none;stroke:#231f20;stroke-width:0.25;stroke-linecap:butt;stroke-linejoin:miter;stroke-miterlimit:4;stroke-dasharray:none;stroke-opacity:1"
       id="path774" />
    <path
       d="m 679.984,565.67 c 0.696,-10.446 2.437,-38.303 2.437,-44.92 0,-6.615 1.742,-22.285 -0.696,-32.035 -2.437,-9.75 -10.099,-30.991 -14.973,-41.089 -4.876,-10.098 -12.884,-29.598 -15.67,-36.214 -2.786,-6.617 -6.649,-18.622 1.387,-20.235"
       style="fill:none;stroke:#231f20;stroke-width:0.5;stroke-linecap:butt;stroke-linejoin:miter;stroke-miterlimit:4;stroke-dasharray:none;stroke-opacity:1"
       id="path776" />
    <path
       d="m 565.133,521.318 c 11.083,1.522 29.538,8.486 35.11,10.576 5.571,2.089 12.187,4.526 17.062,1.393 4.875,-3.134 20.893,-16.018 24.724,-20.893 3.83,-4.875 12.187,-13.581 8.705,-16.366 -3.482,-2.786 -11.491,3.482 -29.599,6.267 -18.106,2.787 -58.97,6.301 -75.971,4.543"
       style="fill:none;stroke:#231f20;stroke-width:0.5;stroke-linecap:butt;stroke-linejoin:miter;stroke-miterlimit:4;stroke-dasharray:none;stroke-opacity:1"
       id="path778" />
    <path
       d="m 464.66,572.739 c 0,-0.623 0.5,-1.127 1.126,-1.127 0.623,0 1.126,0.504 1.126,1.127 0,0.622 -0.503,1.126 -1.126,1.126 -0.626,0 -1.126,-0.504 -1.126,-1.126"
       style="fill:#231f20;fill-opacity:1;fill-rule:nonzero;stroke:none;stroke-width:0.1"
       id="path780" />
    <path
       d="m 460.962,581.925 c 0,-0.623 0.5,-1.126 1.126,-1.126 0.623,0 1.126,0.503 1.126,1.126 0,0.623 -0.503,1.126 -1.126,1.126 -0.626,0 -1.126,-0.503 -1.126,-1.126"
       style="fill:#231f20;fill-opacity:1;fill-rule:nonzero;stroke:none;stroke-width:0.1"
       id="path782" />
    <path
       d="m 460.066,590.664 c 0,-0.624 0.501,-1.127 1.126,-1.127 0.623,0 1.127,0.503 1.127,1.127 0,0.623 -0.504,1.126 -1.127,1.126 -0.625,0 -1.126,-0.503 -1.126,-1.126"
       style="fill:#231f20;fill-opacity:1;fill-rule:nonzero;stroke:none;stroke-width:0.1"
       id="path784" />
    <path
       d="m 461.021,596.273 c 0,-0.623 0.5,-1.126 1.126,-1.126 0.623,0 1.126,0.503 1.126,1.126 0,0.623 -0.503,1.126 -1.126,1.126 -0.626,0 -1.126,-0.503 -1.126,-1.126"
       style="fill:#231f20;fill-opacity:1;fill-rule:nonzero;stroke:none;stroke-width:0.1"
       id="path786" />
    <path
       d="m 464.402,607.7 c -3.901,-8.252 -11.256,-22.959 3.27,-41.2"
       style="fill:none;stroke:#231f20;stroke-width:0.5;stroke-linecap:butt;stroke-linejoin:miter;stroke-miterlimit:4;stroke-dasharray:none;stroke-opacity:1"
       id="path788" />
    <path
       d="m 660.136,464.34 c 3.461,-0.373 13.536,-1.558 8.858,-11.755 -4.68,-10.193 -12.689,-15.406 -18.608,-14.709 -5.92,0.696 -8.386,6.559 -6.268,10.794 3.134,6.268 6.148,11.222 7.312,12.884 1.828,2.612 5.504,3.132 8.706,2.786 z"
       style="fill:none;stroke:#231f20;stroke-width:0.5;stroke-linecap:butt;stroke-linejoin:miter;stroke-miterlimit:4;stroke-dasharray:none;stroke-opacity:1"
       id="path790" />
    <path
       d="m 563.648,814.052 c -7.977,16.263 -16.334,16.14 -23.646,16.14 -7.313,0 -15.67,0.123 -23.646,-16.14 -8.489,-17.308 -13.521,-25.402 -3.947,-42.311 9.573,-16.91 14.452,-23.097 27.593,-24.65 13.141,1.553 18.02,7.74 27.593,24.65 9.573,16.909 4.541,25.003 -3.947,42.311"
       style="fill:#b2b1b1;fill-opacity:1;fill-rule:nonzero;stroke:none;stroke-width:0.1"
       id="path792" />
    <path
       d="m 346.045,448.322 c 6.617,-8.357 25.42,-34.473 31.689,-44.223 6.267,-9.75 12.187,-21.241 14.625,-34.821"
       style="fill:none;stroke:#231f20;stroke-width:0.5;stroke-linecap:butt;stroke-linejoin:miter;stroke-miterlimit:4;stroke-dasharray:none;stroke-opacity:1"
       id="path794" />
    <path
       d="m 378.82,402.385 c 2.665,-4.451 3.44,-23.706 -8.747,-26.84"
       style="fill:none;stroke:#231f20;stroke-width:0.5;stroke-linecap:butt;stroke-linejoin:miter;stroke-miterlimit:4;stroke-dasharray:none;stroke-opacity:1"
       id="path796" />
    <path
       d="m 373.207,717.145 c -3.831,-12.884 -13.929,-47.706 -14.625,-63.375 -0.697,-15.67 -2.438,-36.911 2.088,-51.188 4.528,-14.278 1.845,-23.059 -5.233,-16.435"
       style="fill:none;stroke:#231f20;stroke-width:0.5;stroke-linecap:butt;stroke-linejoin:miter;stroke-miterlimit:4;stroke-dasharray:none;stroke-opacity:1"
       id="path798" />
    <path
       d="m 500.516,738.088 c -6.131,-3.184 -11.353,-9.104 -19.711,-18.854 -8.357,-9.75 -24.027,-26.813 -30.295,-45.616 -6.267,-18.804 -9.75,-42.83 15.67,-60.242"
       style="fill:none;stroke:#231f20;stroke-width:0.5;stroke-linecap:butt;stroke-linejoin:miter;stroke-miterlimit:4;stroke-dasharray:none;stroke-opacity:1"
       id="path800" />
    <path
       d="m 413.948,598.054 c -4.527,-2.437 -11.63,-7.633 -13.371,-21.561"
       style="fill:none;stroke:#231f20;stroke-width:0.25;stroke-linecap:butt;stroke-linejoin:miter;stroke-miterlimit:4;stroke-dasharray:none;stroke-opacity:1"
       id="path802" />
    <path
       d="m 470.776,568.804 c -13.127,12.014 -9.123,31.34 -4.596,44.572 4.527,13.233 16.366,35.17 20.196,42.483 3.831,7.312 14.625,11.491 16.714,11.84 2.09,0.347 6.965,3.83 9.751,5.571 2.785,1.741 20.544,4.875 27.161,4.875 6.616,0 24.374,-3.134 27.161,-4.875 2.785,-1.741 7.66,-5.224 9.75,-5.571 2.089,-0.349 12.883,-4.528 16.713,-11.84 3.832,-7.313 15.67,-29.25 20.197,-42.483 4.527,-13.232 8.531,-32.558 -4.596,-44.572"
       style="fill:none;stroke:#231f20;stroke-width:0.5;stroke-linecap:butt;stroke-linejoin:miter;stroke-miterlimit:4;stroke-dasharray:none;stroke-opacity:1"
       id="path804" />
    <path
       d="m 467.225,564.626 c 0,-2.307 1.87,-4.178 4.178,-4.178 2.308,0 4.179,1.871 4.179,4.178 0,2.308 -1.871,4.178 -4.179,4.178 -2.308,0 -4.178,-1.87 -4.178,-4.178 z"
       style="fill:none;stroke:#231f20;stroke-width:0.5;stroke-linecap:butt;stroke-linejoin:miter;stroke-miterlimit:4;stroke-dasharray:none;stroke-opacity:1"
       id="path806" />
    <path
       d="m 563.332,637.055 c -0.348,4.179 -2.438,4.527 -5.223,5.224 -2.786,0.696 -6.965,4.526 -10.446,7.312 -3.483,2.785 -4.179,5.223 -7.661,5.223 -3.483,0 -4.179,-2.438 -7.661,-5.223 -3.482,-2.786 -7.661,-6.616 -10.447,-7.312 -2.785,-0.697 -4.875,-1.045 -5.223,-5.224 -0.348,-4.179 -1.392,-14.276 1.742,-20.545 3.133,-6.267 6.093,-10.968 5.919,-16.018 -0.174,-5.046 2.655,-7.77 5.223,-9.053 2.786,-1.394 5.92,-1.741 10.447,-1.741 4.527,0 7.661,0.347 10.446,1.741 2.568,1.283 5.397,4.007 5.223,9.053 -0.173,5.05 2.786,9.751 5.92,16.018 3.134,6.269 2.089,16.366 1.741,20.545"
       style="fill:#706d6e;fill-opacity:1;fill-rule:nonzero;stroke:none;stroke-width:0.1"
       id="path808" />
    <path
       d="m 563.332,637.055 c -0.348,4.179 -2.438,4.527 -5.223,5.224 -2.786,0.696 -6.965,4.526 -10.446,7.312 -3.483,2.785 -4.179,5.223 -7.661,5.223 -3.483,0 -4.179,-2.438 -7.661,-5.223 -3.482,-2.786 -7.661,-6.616 -10.447,-7.312 -2.785,-0.697 -4.875,-1.045 -5.223,-5.224 -0.348,-4.179 -1.392,-14.276 1.742,-20.545 3.133,-6.267 6.093,-10.968 5.919,-16.018 -0.174,-5.046 2.655,-7.77 5.223,-9.053 2.786,-1.394 5.92,-1.741 10.447,-1.741 4.527,0 7.661,0.347 10.446,1.741 2.568,1.283 5.397,4.007 5.223,9.053 -0.173,5.05 2.786,9.751 5.92,16.018 3.134,6.269 2.089,16.366 1.741,20.545 z"
       style="fill:none;stroke:#231f20;stroke-width:0.75;stroke-linecap:round;stroke-linejoin:round;stroke-miterlimit:4;stroke-dasharray:none;stroke-opacity:1"
       id="path810" />
    <path
       d="m 492.553,550.616 c 5.605,-4.214 12.627,-10.366 19.94,-11.409 6.894,-0.986 14.098,0.527 18.107,-3.483 6.964,-6.964 4.179,-16.714 4.179,-16.714 -7.661,-1.741 -18.224,0.697 -21.938,3.482 -3.491,2.619 -12.536,16.018 -16.715,23.331 -4.178,7.312 -14.466,14.276 -20.735,19.847"
       style="fill:none;stroke:#231f20;stroke-width:0.5;stroke-linecap:butt;stroke-linejoin:miter;stroke-miterlimit:4;stroke-dasharray:none;stroke-opacity:1"
       id="path812" />
    <path
       d="m 427.528,391.179 c -8.4,-1.327 -17.41,-4.142 -17.41,-4.142 -3.831,-8.358 0.696,-24.724 9.053,-36.563 8.357,-11.84 19.5,-20.197 33.777,-29.947 14.277,-9.75 22.634,-13.928 32.384,-14.277 9.75,-0.348 45.964,8.009 49.447,9.402 3.481,1.393 3.134,3.831 3.134,5.92 0,2.09 0,64.768 0,68.598 0,3.83 0.696,5.223 2.089,5.223 1.392,0 2.089,-1.393 2.089,-5.223 0,-3.83 0,-66.508 0,-68.598 0,-2.089 -0.348,-4.527 3.134,-5.92 3.482,-1.393 39.696,-9.75 49.446,-9.402 9.75,0.349 18.108,4.527 32.384,14.277 14.277,9.75 25.42,18.107 33.777,29.947 8.357,11.839 12.884,28.205 9.054,36.563 0,0 -9.014,2.818 -17.417,4.144"
       style="fill:none;stroke:#231f20;stroke-width:0.5;stroke-linecap:butt;stroke-linejoin:miter;stroke-miterlimit:4;stroke-dasharray:none;stroke-opacity:1"
       id="path814" />
    <path
       d="m 456.082,389.474 c -3.83,0.614 -8.357,0.696 -11.143,-0.348 -2.483,-0.931 -6.616,-1.393 -9.402,-0.697 -2.786,0.697 -7.661,-0.696 -6.616,-4.875 1.044,-4.178 4.527,-21.589 17.063,-27.857 9.26,-4.63 17.062,-5.223 28.554,-3.83 11.49,1.392 14.276,1.045 19.151,0 4.875,-1.045 14.625,-3.83 18.455,5.92 0,0 10.447,-1.394 14.974,10.097 4.526,11.492 4.178,16.366 4.178,16.366 0,0 -27.857,13.581 -57.456,-4.874 0,0 -10.563,8.947 -17.758,10.098 z"
       style="fill:none;stroke:#231f20;stroke-width:0.5;stroke-linecap:butt;stroke-linejoin:miter;stroke-miterlimit:4;stroke-dasharray:none;stroke-opacity:1"
       id="path816" />
    <path
       d="m 526.704,366.905 c -5.158,5.507 -28.836,19.783 -52.864,12.471"
       style="fill:none;stroke:#231f20;stroke-width:0.5;stroke-linecap:butt;stroke-linejoin:miter;stroke-miterlimit:4;stroke-dasharray:none;stroke-opacity:1"
       id="path818" />
    <path
       d="m 512.144,357.787 c 0.349,2.785 -3.83,2.785 -8.009,3.481 -4.178,0.697 -13.928,2.786 -18.803,6.269 -4.875,3.481 -6.617,4.178 -11.492,11.839"
       style="fill:none;stroke:#231f20;stroke-width:0.5;stroke-linecap:butt;stroke-linejoin:miter;stroke-miterlimit:4;stroke-dasharray:none;stroke-opacity:1"
       id="path820" />
    <path
       d="m 353.01,474.787 c 4.179,-8.358 8.009,-13.233 8.009,-13.233 0,0 8.705,-16.366 14.277,-24.026 5.572,-7.661 16.714,-20.545 20.544,-25.42 0,0 9.75,-14.277 14.278,-25.071"
       style="fill:none;stroke:#231f20;stroke-width:0.5;stroke-linecap:butt;stroke-linejoin:miter;stroke-miterlimit:4;stroke-dasharray:none;stroke-opacity:1"
       id="path822" />
    <path
       d="m 361.019,461.554 c 5.92,-4.178 27.289,-23.923 34.821,-49.446"
       style="fill:none;stroke:#231f20;stroke-width:0.5;stroke-linecap:butt;stroke-linejoin:miter;stroke-miterlimit:4;stroke-dasharray:none;stroke-opacity:1"
       id="path824" />
    <path
       d="m 511.796,463.295 c -2.17,-20.226 -2.99,-26.132 -1.741,-39 0.87,-8.966 -1.392,-8.531 -3.134,-8.705 -1.866,-0.185 -3.308,0 -4.12,8.189 -0.831,8.381 -1.277,19.494 0.987,38.124 1.312,10.805 5.069,29.552 6.267,34.821 0.87,3.83 3.048,2.898 4.875,2.438 1.014,-0.253 3.134,-0.349 2.089,-4.527 -1.044,-4.178 -3.987,-19.832 -5.223,-31.34 z"
       style="fill:none;stroke:#231f20;stroke-width:0.25;stroke-linecap:butt;stroke-linejoin:miter;stroke-miterlimit:4;stroke-dasharray:none;stroke-opacity:1"
       id="path826" />
    <path
       d="m 400.019,565.67 c -0.696,-10.446 -2.437,-38.303 -2.437,-44.92 0,-6.615 -1.742,-22.285 0.696,-32.035 2.437,-9.75 10.098,-30.991 14.973,-41.089 4.875,-10.098 12.884,-29.598 15.67,-36.214 2.786,-6.617 6.649,-18.622 -1.387,-20.235"
       style="fill:none;stroke:#231f20;stroke-width:0.5;stroke-linecap:butt;stroke-linejoin:miter;stroke-miterlimit:4;stroke-dasharray:none;stroke-opacity:1"
       id="path828" />
    <path
       d="m 514.871,521.318 c -11.083,1.522 -29.539,8.486 -35.111,10.576 -5.571,2.089 -12.187,4.526 -17.062,1.393 -4.875,-3.134 -20.893,-16.018 -24.724,-20.893 -3.83,-4.875 -12.187,-13.581 -8.705,-16.366 3.482,-2.786 11.491,3.482 29.599,6.267 18.107,2.787 58.97,6.301 75.971,4.543"
       style="fill:none;stroke:#231f20;stroke-width:0.5;stroke-linecap:butt;stroke-linejoin:miter;stroke-miterlimit:4;stroke-dasharray:none;stroke-opacity:1"
       id="path830" />
    <path
       d="m 419.868,464.34 c -3.462,-0.373 -13.537,-1.558 -8.859,-11.755 4.68,-10.193 12.689,-15.406 18.609,-14.709 5.919,0.696 8.385,6.559 6.267,10.794 -3.134,6.268 -6.148,11.222 -7.312,12.884 -1.828,2.612 -5.503,3.132 -8.705,2.786 z"
       style="fill:none;stroke:#231f20;stroke-width:0.5;stroke-linecap:butt;stroke-linejoin:miter;stroke-miterlimit:4;stroke-dasharray:none;stroke-opacity:1"
       id="path832" />
    <path
       d="m 553.93,722.368 c 18.455,-3.134 48.054,-11.491 61.286,-23.33"
       style="fill:none;stroke:#231f20;stroke-width:0.5;stroke-linecap:butt;stroke-linejoin:miter;stroke-miterlimit:4;stroke-dasharray:none;stroke-opacity:1"
       id="path834" />
    <path
       d="m 551.256,724.007 c 6.504,1.843 26.701,6.37 38.192,5.673"
       style="fill:none;stroke:#231f20;stroke-width:0.5;stroke-linecap:butt;stroke-linejoin:miter;stroke-miterlimit:4;stroke-dasharray:none;stroke-opacity:1"
       id="path836" />
    <path
       d="m 450.618,630.096 c 0.696,10.099 16.955,25.067 22.526,31.683 5.571,6.616 14.277,16.017 19.849,21.937 5.571,5.92 16.714,16.714 21.241,22.983 4.526,6.267 8.705,12.883 11.839,15.669 3.134,2.786 9.402,3.482 13.929,3.831 4.527,-0.349 10.794,-1.045 13.928,-3.831 3.134,-2.786 7.313,-9.402 11.839,-15.669 4.527,-6.269 15.67,-17.063 21.241,-22.983 5.572,-5.92 14.278,-15.321 19.849,-21.937 5.571,-6.616 21.83,-21.584 22.526,-31.683"
       style="fill:none;stroke:#231f20;stroke-width:0.5;stroke-linecap:butt;stroke-linejoin:miter;stroke-miterlimit:4;stroke-dasharray:none;stroke-opacity:1"
       id="path838" />
    <path
       d="m 526.073,722.368 c -18.455,-3.134 -48.054,-11.491 -61.285,-23.33"
       style="fill:none;stroke:#231f20;stroke-width:0.5;stroke-linecap:butt;stroke-linejoin:miter;stroke-miterlimit:4;stroke-dasharray:none;stroke-opacity:1"
       id="path840" />
    <path
       d="m 528.747,724.007 c -6.504,1.843 -26.701,6.37 -38.192,5.673"
       style="fill:none;stroke:#231f20;stroke-width:0.5;stroke-linecap:butt;stroke-linejoin:miter;stroke-miterlimit:4;stroke-dasharray:none;stroke-opacity:1"
       id="path842" />
    <path
       d="m 593.916,800.658 c 14.718,4.446 72.806,18.752 101.026,7.664"
       style="fill:none;stroke:#231f20;stroke-width:0.5;stroke-linecap:round;stroke-linejoin:round;stroke-miterlimit:4;stroke-dasharray:2.8, 1.8;stroke-dashoffset:0;stroke-opacity:1"
       id="path844" />
    <path
       d="m 579.25,857.965 c 13.68,-5.713 111.876,-46.802 116.055,-48.891"
       style="fill:none;stroke:#231f20;stroke-width:0.5;stroke-linecap:round;stroke-linejoin:round;stroke-miterlimit:4;stroke-dasharray:2.8, 1.8;stroke-dashoffset:0;stroke-opacity:1"
       id="path846" />
    <path
       d="m 614.861,881.607 c 11.142,-11.143 69.6,-63.288 82.51,-72.611"
       style="fill:none;stroke:#231f20;stroke-width:0.5;stroke-linecap:round;stroke-linejoin:round;stroke-miterlimit:4;stroke-dasharray:2.8, 1.8;stroke-dashoffset:0;stroke-opacity:1"
       id="path848" />
    <path
       d="m 712.017,801.061 33.294,83.4"
       style="fill:none;stroke:#231f20;stroke-width:0.5;stroke-linecap:round;stroke-linejoin:round;stroke-miterlimit:4;stroke-dasharray:2.8, 1.8;stroke-dashoffset:0;stroke-opacity:1"
       id="path850" />
    <path
       d="m 768.977,758.06 57.804,74.948"
       style="fill:none;stroke:#231f20;stroke-width:0.5;stroke-linecap:round;stroke-linejoin:round;stroke-miterlimit:4;stroke-dasharray:2.8, 1.8;stroke-dashoffset:0;stroke-opacity:1"
       id="path852" />
    <path
       d="m 815.012,710.819 72.331,60.647"
       style="fill:none;stroke:#231f20;stroke-width:0.5;stroke-linecap:round;stroke-linejoin:round;stroke-miterlimit:4;stroke-dasharray:2.8, 1.8;stroke-dashoffset:0;stroke-opacity:1"
       id="path854" />
    <path
       d="m 829.135,688.305 c 0,0 45.297,-15.644 102.506,-5.416"
       style="fill:none;stroke:#231f20;stroke-width:0.5;stroke-linecap:round;stroke-linejoin:round;stroke-miterlimit:4;stroke-dasharray:2.8, 1.8;stroke-dashoffset:0;stroke-opacity:1"
       id="path856" />
    <path
       d="m 838.999,654.383 c 0,0 69.844,-47.19 95.397,-55.067"
       style="fill:none;stroke:#231f20;stroke-width:0.5;stroke-linecap:round;stroke-linejoin:round;stroke-miterlimit:4;stroke-dasharray:2.8, 1.8;stroke-dashoffset:0;stroke-opacity:1"
       id="path858" />
    <path
       d="m 837.377,652.725 c 8.705,-12.536 57.236,-62.669 91.296,-83.915"
       style="fill:none;stroke:#231f20;stroke-width:0.5;stroke-linecap:round;stroke-linejoin:round;stroke-miterlimit:4;stroke-dasharray:2.8, 1.8;stroke-dashoffset:0;stroke-opacity:1"
       id="path860" />
    <path
       d="m 692.666,747.693 c 0,0 22.139,22.032 27.014,31.086"
       style="fill:none;stroke:#231f20;stroke-width:0.5;stroke-linecap:round;stroke-linejoin:round;stroke-miterlimit:4;stroke-dasharray:2.8, 1.8;stroke-dashoffset:0;stroke-opacity:1"
       id="path862" />
    <path
       d="m 735.035,719.152 c 4.892,-1.175 10.822,-5.228 13.199,-13.847 2.786,-10.097 8.357,-30.294 8.706,-45.964 0.348,-15.67 0.337,-33.46 -2.09,-40.393 -2.437,-6.964 -5.571,-11.143 -12.187,-9.75 -7.77,1.636 -9.054,7.312 -8.705,21.241 0.347,13.929 0.619,35.107 -0.08,53.873 -0.269,7.239 -2.229,20.094 -1.437,23.554"
       style="fill:none;stroke:#231f20;stroke-width:0.5;stroke-linecap:round;stroke-linejoin:round;stroke-miterlimit:4;stroke-dasharray:2.8, 1.8;stroke-dashoffset:0;stroke-opacity:1"
       id="path864" />
    <path
       d="m 738.832,578.903 c 6.617,6.616 13.929,10.446 17.759,25.073 3.83,14.624 9.109,28.733 16.018,29.598 5.571,0.696 13.714,-14.27 16.366,-21.59 2.892,-7.98 5.697,-19.066 8.009,-39.697 2.176,-19.405 10.098,-32.037 21.59,-39.349 11.491,-7.313 20.545,-11.49 28.553,-13.58 8.009,-2.089 6.359,-12.791 0.348,-18.804 -6.267,-6.267 -19.5,-10.446 -34.821,-5.222 -15.322,5.222 -32.384,22.981 -33.429,36.562 -1.045,13.58 -2.089,38.306 -4.875,48.404 -2.785,10.096 -10.098,25.071 -17.759,23.678"
       style="fill:none;stroke:#231f20;stroke-width:0.5;stroke-linecap:round;stroke-linejoin:round;stroke-miterlimit:4;stroke-dasharray:2.8, 1.8;stroke-dashoffset:0;stroke-opacity:1"
       id="path866" />
    <path
       d="m 668.145,674.663 c 6.284,0.534 29.946,-9.054 25.419,-37.608 -4.526,-28.554 -23.678,-39.348 -27.509,-39.001 -3.83,0.349 -22.982,8.36 -26.116,30.296 -3.134,21.938 11.84,44.92 28.206,46.313 z"
       style="fill:none;stroke:#231f20;stroke-width:0.5;stroke-linecap:round;stroke-linejoin:round;stroke-miterlimit:4;stroke-dasharray:2.8, 1.8;stroke-dashoffset:0;stroke-opacity:1"
       id="path868" />
    <path
       d="m 633.719,644.402 c 2.39,-3.516 4.923,-9.685 6.79,-19.136"
       style="fill:none;stroke:#231f20;stroke-width:0.5;stroke-linecap:round;stroke-linejoin:round;stroke-miterlimit:4;stroke-dasharray:2.8, 1.8;stroke-dashoffset:0;stroke-opacity:1"
       id="path870" />
    <path
       d="m 666.055,598.054 c 12.211,-3.928 28.639,-11.153 51.056,-7.317"
       style="fill:none;stroke:#231f20;stroke-width:0.5;stroke-linecap:round;stroke-linejoin:round;stroke-miterlimit:4;stroke-dasharray:2.8, 1.8;stroke-dashoffset:0;stroke-opacity:1"
       id="path872" />
    <path
       d="m 553.861,644.619 21.425,23.665"
       style="fill:none;stroke:#231f20;stroke-width:0.5;stroke-linecap:round;stroke-linejoin:round;stroke-miterlimit:4;stroke-dasharray:2.8, 1.8;stroke-dashoffset:0;stroke-opacity:1"
       id="path874" />
    <path
       d="m 563.129,638.41 c 0,0 21.096,9.789 30.497,17.449"
       style="fill:none;stroke:#231f20;stroke-width:0.5;stroke-linecap:round;stroke-linejoin:round;stroke-miterlimit:4;stroke-dasharray:2.8, 1.8;stroke-dashoffset:0;stroke-opacity:1"
       id="path876" />
    <path
       d="m 560.416,614.136 c 0,0 34.111,-10.743 56.425,-11.496"
       style="fill:none;stroke:#231f20;stroke-width:0.5;stroke-linecap:round;stroke-linejoin:round;stroke-miterlimit:4;stroke-dasharray:2.8, 1.8;stroke-dashoffset:0;stroke-opacity:1"
       id="path878" />
    <path
       d="m 565.073,579.948 c 2.09,-4.179 1.741,-8.358 -1.044,-12.884 -2.786,-4.527 -4.527,-8.01 -4.875,-13.581 -0.349,-5.571 0.696,-11.491 -5.852,-15.564"
       style="fill:none;stroke:#231f20;stroke-width:0.5;stroke-linecap:round;stroke-linejoin:round;stroke-miterlimit:4;stroke-dasharray:2.8, 1.8;stroke-dashoffset:0;stroke-opacity:1"
       id="path880" />
    <path
       d="m 541.207,394.834 c 0.884,2.649 6.116,3.345 8.901,1.256"
       style="fill:none;stroke:#231f20;stroke-width:0.5;stroke-linecap:round;stroke-linejoin:round;stroke-miterlimit:4;stroke-dasharray:2.8, 1.8;stroke-dashoffset:0;stroke-opacity:1"
       id="path882" />
    <path
       d="m 548.707,384.25 c -0.348,3.134 0.348,18.456 8.357,20.545 8.009,2.089 18.455,0.348 23.679,-0.696 5.223,-1.045 19.5,-4.179 22.633,-4.875 3.134,-0.696 10.183,-6.107 12.679,-12.917"
       style="fill:none;stroke:#231f20;stroke-width:0.5;stroke-linecap:round;stroke-linejoin:round;stroke-miterlimit:4;stroke-dasharray:2.8, 1.8;stroke-dashoffset:0;stroke-opacity:1"
       id="path884" />
    <path
       d="m 549.807,395.124 c 3.427,3.404 6.533,3.975 11.087,3.055 4.337,-0.873 10.32,-2.067 13.581,-3.134 3.259,-1.066 3.482,-4.178 12.535,-3.482 9.054,0.696 25.091,1.266 29.045,-5.256"
       style="fill:none;stroke:#231f20;stroke-width:0.5;stroke-linecap:round;stroke-linejoin:round;stroke-miterlimit:4;stroke-dasharray:2.8, 1.8;stroke-dashoffset:0;stroke-opacity:1"
       id="path886" />
    <path
       d="m 547.221,407.233 c 6.269,-0.349 17.474,1.757 22.538,13.24"
       style="fill:none;stroke:#231f20;stroke-width:0.5;stroke-linecap:round;stroke-linejoin:round;stroke-miterlimit:4;stroke-dasharray:2.8, 1.8;stroke-dashoffset:0;stroke-opacity:1"
       id="path888" />
    <path
       d="m 576.509,419.162 c 9.072,-6.393 31.743,-15.412 60.296,6.875 4.353,3.397 6.366,6.831 9.5,13.447"
       style="fill:none;stroke:#231f20;stroke-width:0.5;stroke-linecap:round;stroke-linejoin:round;stroke-miterlimit:4;stroke-dasharray:2.8, 1.8;stroke-dashoffset:0;stroke-opacity:1"
       id="path890" />
    <path
       d="m 682.411,521.79 c 5.234,-2.432 24.35,-5.525 24.734,-9.745 0.348,-3.83 -2.437,-10.446 -25.098,-21.861"
       style="fill:none;stroke:#231f20;stroke-width:0.5;stroke-linecap:round;stroke-linejoin:round;stroke-miterlimit:4;stroke-dasharray:2.8, 1.8;stroke-dashoffset:0;stroke-opacity:1"
       id="path892" />
    <path
       d="m 542.788,521.795 c 1.971,0.105 2.785,-20.545 2.785,-27.857 0,-7.313 0,-13.232 -1.741,-13.232 -1.741,0 -1.559,18.11 -1.741,22.982 -0.244,6.532 -0.958,18.02 0.697,18.107 z"
       style="fill:none;stroke:#231f20;stroke-width:0.5;stroke-linecap:round;stroke-linejoin:round;stroke-miterlimit:4;stroke-dasharray:2.8, 1.8;stroke-dashoffset:0;stroke-opacity:1"
       id="path894" />
    <path
       d="m 568.579,507.053 c 2.065,-7.543 8.273,-16.515 13.905,-17.641 8.705,-1.742 28.88,0.617 47.52,11.104"
       style="fill:none;stroke:#231f20;stroke-width:0.5;stroke-linecap:round;stroke-linejoin:round;stroke-miterlimit:4;stroke-dasharray:2.8, 1.8;stroke-dashoffset:0;stroke-opacity:1"
       id="path896" />
    <path
       d="m 718.288,507.17 c 3.44,0.544 10.304,-3.996 9.402,-13.928 -1.045,-11.492 -1.741,-15.322 -20.197,-36.214 -18.455,-20.894 -23.33,-28.902 -28.554,-34.474 -5.223,-5.571 -9.401,-4.875 -11.49,-3.482 -2.09,1.393 0,10.795 2.437,16.366 2.438,5.571 22.634,45.965 26.116,50.491 3.482,4.528 15.669,20.196 22.286,21.241 z"
       style="fill:none;stroke:#231f20;stroke-width:0.5;stroke-linecap:round;stroke-linejoin:round;stroke-miterlimit:4;stroke-dasharray:2.8, 1.8;stroke-dashoffset:0;stroke-opacity:1"
       id="path898" />
    <path
       d="m 697.669,488.076 c 1.815,-6.326 12.727,-13.466 27.816,-6.412"
       style="fill:none;stroke:#231f20;stroke-width:0.5;stroke-linecap:round;stroke-linejoin:round;stroke-miterlimit:4;stroke-dasharray:2.8, 1.8;stroke-dashoffset:0;stroke-opacity:1"
       id="path900" />
    <path
       d="m 722.694,584.681 c -2.665,-5.43 -6.312,-19.409 -6.844,-22.144 -0.609,-3.134 4.474,-4.293 5.289,-0.433"
       style="fill:none;stroke:#231f20;stroke-width:0.5;stroke-linecap:round;stroke-linejoin:round;stroke-miterlimit:4;stroke-dasharray:2.8, 1.8;stroke-dashoffset:0;stroke-opacity:1"
       id="path902" />
    <path
       d="m 719.72,583.99 c -5.959,-1.953 -11.182,-4.042 -18.495,-5.783 -7.312,-1.742 -11.491,-2.09 -13.232,-2.438 -1.741,-0.349 -3.482,-1.393 -4.527,-5.224 -1.045,-3.83 1.045,-10.097 4.179,-10.446 3.134,-0.348 8.009,0 10.446,-1.392 2.438,-1.393 5.578,-5.404 18.143,1.745"
       style="fill:none;stroke:#231f20;stroke-width:0.5;stroke-linecap:round;stroke-linejoin:round;stroke-miterlimit:4;stroke-dasharray:2.8, 1.8;stroke-dashoffset:0;stroke-opacity:1"
       id="path904" />
    <path
       d="m 620.789,585.897 c 9.749,-6.646 20.192,-17.031 23.674,-27.13"
       style="fill:none;stroke:#231f20;stroke-width:0.5;stroke-linecap:round;stroke-linejoin:round;stroke-miterlimit:4;stroke-dasharray:2.8, 1.8;stroke-dashoffset:0;stroke-opacity:1"
       id="path906" />
    <path
       d="m 459.214,585.897 c -9.749,-6.646 -20.192,-17.031 -23.674,-27.13"
       style="fill:none;stroke:#231f20;stroke-width:0.5;stroke-linecap:round;stroke-linejoin:round;stroke-miterlimit:4;stroke-dasharray:2.8, 1.8;stroke-dashoffset:0;stroke-opacity:1"
       id="path908" />
    <path
       d="m 638.987,568.874 c 3.389,4.805 14.881,8.984 23.934,9.333 9.054,0.347 18.461,0.527 19.5,-5.92 1.039,-6.447 -2.995,-6.683 -5.432,-7.728"
       style="fill:none;stroke:#231f20;stroke-width:0.5;stroke-linecap:round;stroke-linejoin:round;stroke-miterlimit:4;stroke-dasharray:2.8, 1.8;stroke-dashoffset:0;stroke-opacity:1"
       id="path910" />
    <path
       d="m 680.188,562.574 c -3.686,2.749 -9.954,5.534 -18.312,4.49 -8.356,-1.045 -18.455,-3.482 -17.41,-10.099 1.044,-6.616 9.054,-5.571 14.973,-5.92 5.92,-0.347 18.445,-0.609 21.236,3.874"
       style="fill:none;stroke:#231f20;stroke-width:0.5;stroke-linecap:round;stroke-linejoin:round;stroke-miterlimit:4;stroke-dasharray:2.8, 1.8;stroke-dashoffset:0;stroke-opacity:1"
       id="path912" />
    <path
       d="m 649.841,551.72 c -1.951,0.654 -2.589,-3.112 -2.589,-5.55 0,-2.437 0,-15.321 -0.697,-21.241 -0.696,-5.919 -3.009,-9.29 -5.16,-11.782"
       style="fill:none;stroke:#231f20;stroke-width:0.5;stroke-linecap:round;stroke-linejoin:round;stroke-miterlimit:4;stroke-dasharray:2.8, 1.8;stroke-dashoffset:0;stroke-opacity:1"
       id="path914" />
    <path
       d="m 671.948,551.26 c 3.161,-1.956 3.161,-4.393 1.072,-13.098 -2.09,-8.705 -7.312,-19.849 -9.054,-27.858 -1.741,-8.009 -2.437,-12.535 -8.357,-16.714 -5.92,-4.178 -14.974,-8.706 -21.938,-7.312 -6.963,1.392 -12.187,2.437 -3.667,14.238"
       style="fill:none;stroke:#231f20;stroke-width:0.5;stroke-linecap:round;stroke-linejoin:round;stroke-miterlimit:4;stroke-dasharray:2.8, 1.8;stroke-dashoffset:0;stroke-opacity:1"
       id="path916" />
    <path
       d="m 631.601,486.71 c 5.553,-2.522 12.028,-6.701 13.77,-22.022"
       style="fill:none;stroke:#231f20;stroke-width:0.5;stroke-linecap:round;stroke-linejoin:round;stroke-miterlimit:4;stroke-dasharray:2.8, 1.8;stroke-dashoffset:0;stroke-opacity:1"
       id="path918" />
    <path
       d="m 682.612,493.958 c -3.324,3.115 -10.288,5.9 -15.86,-0.716 -5.572,-6.617 -7.372,-13.787 -9.46,-19.359"
       style="fill:none;stroke:#231f20;stroke-width:0.5;stroke-linecap:round;stroke-linejoin:round;stroke-miterlimit:4;stroke-dasharray:2.8, 1.8;stroke-dashoffset:0;stroke-opacity:1"
       id="path920" />
    <path
       d="m 668.482,461.451 c 2.437,4.527 6.627,12.291 0.359,13.336 -6.267,1.045 -10.836,-0.262 -16.017,-2.787 -6.791,-3.307 -12.006,-10.938 -1.908,-11.287"
       style="fill:none;stroke:#231f20;stroke-width:0.5;stroke-linecap:round;stroke-linejoin:round;stroke-miterlimit:4;stroke-dasharray:2.8, 1.8;stroke-dashoffset:0;stroke-opacity:1"
       id="path922" />
    <path
       d="m 679.288,746.046 c 7.533,-7.153 25.42,-26.116 29.946,-55.366 4.527,-29.25 -1.045,-59.545 -6.964,-74.866 -5.92,-15.322 -8.706,-16.715 -13.232,-14.625 -4.527,2.09 -4.875,5.225 -2.089,12.187 2.785,6.965 7.051,16.802 10.794,34.125 2.481,11.483 4.911,32.797 -1.393,57.108 -4.875,18.804 -6.964,22.286 -13.58,26.465 -4.608,2.91 -8.706,9.053 -11.84,12.884 -3.134,3.83 -10.446,9.75 -16.714,12.535 -6.268,2.786 -12.884,4.527 -12.187,7.661 0.789,3.549 31.733,-12.861 37.259,-18.108 z"
       style="fill:none;stroke:#231f20;stroke-width:0.5;stroke-linecap:round;stroke-linejoin:round;stroke-miterlimit:4;stroke-dasharray:2.8, 1.8;stroke-dashoffset:0;stroke-opacity:1"
       id="path924" />
    <path
       d="m 411.859,674.663 c -6.284,0.534 -29.947,-9.054 -25.42,-37.608 4.526,-28.554 23.679,-39.348 27.509,-39.001 3.83,0.349 22.982,8.36 26.116,30.296 3.134,21.938 -11.84,44.92 -28.205,46.313 z"
       style="fill:none;stroke:#231f20;stroke-width:0.5;stroke-linecap:round;stroke-linejoin:round;stroke-miterlimit:4;stroke-dasharray:2.8, 1.8;stroke-dashoffset:0;stroke-opacity:1"
       id="path926" />
    <path
       d="m 446.284,644.402 c -2.39,-3.516 -4.922,-9.685 -6.79,-19.136"
       style="fill:none;stroke:#231f20;stroke-width:0.5;stroke-linecap:round;stroke-linejoin:round;stroke-miterlimit:4;stroke-dasharray:2.8, 1.8;stroke-dashoffset:0;stroke-opacity:1"
       id="path928" />
    <path
       d="m 413.948,598.054 c -12.211,-3.928 -28.638,-11.153 -51.056,-7.317"
       style="fill:none;stroke:#231f20;stroke-width:0.5;stroke-linecap:round;stroke-linejoin:round;stroke-miterlimit:4;stroke-dasharray:2.8, 1.8;stroke-dashoffset:0;stroke-opacity:1"
       id="path930" />
    <path
       d="m 526.142,644.619 -21.425,23.665"
       style="fill:none;stroke:#231f20;stroke-width:0.5;stroke-linecap:round;stroke-linejoin:round;stroke-miterlimit:4;stroke-dasharray:2.8, 1.8;stroke-dashoffset:0;stroke-opacity:1"
       id="path932" />
    <path
       d="m 516.874,638.41 c 0,0 -21.096,9.789 -30.498,17.449"
       style="fill:none;stroke:#231f20;stroke-width:0.5;stroke-linecap:round;stroke-linejoin:round;stroke-miterlimit:4;stroke-dasharray:2.8, 1.8;stroke-dashoffset:0;stroke-opacity:1"
       id="path934" />
    <path
       d="m 519.587,614.136 c 0,0 -33.85,-10.743 -56.164,-11.496"
       style="fill:none;stroke:#231f20;stroke-width:0.5;stroke-linecap:round;stroke-linejoin:round;stroke-miterlimit:4;stroke-dasharray:2.8, 1.8;stroke-dashoffset:0;stroke-opacity:1"
       id="path936" />
    <path
       d="m 478.323,563.179 c 7.964,7.606 18.848,11.197 31.732,15.375 12.884,4.179 21.241,4.528 29.947,4.528 8.705,0 17.062,-0.349 29.946,-4.528 12.884,-4.178 23.768,-7.769 31.732,-15.375"
       style="fill:none;stroke:#231f20;stroke-width:0.5;stroke-linecap:round;stroke-linejoin:round;stroke-miterlimit:4;stroke-dasharray:2.8, 1.8;stroke-dashoffset:0;stroke-opacity:1"
       id="path938" />
    <path
       d="m 492.553,550.616 c 12.793,7.579 40.136,6.698 47.449,6.698 7.312,0 34.655,0.881 47.448,-6.698"
       style="fill:none;stroke:#231f20;stroke-width:0.5;stroke-linecap:round;stroke-linejoin:round;stroke-miterlimit:4;stroke-dasharray:2.8, 1.8;stroke-dashoffset:0;stroke-opacity:1"
       id="path940" />
    <path
       d="m 514.93,579.948 c -2.089,-4.179 -1.741,-8.358 1.045,-12.884 2.785,-4.527 4.526,-8.01 4.875,-13.581 0.348,-5.571 -0.696,-11.491 5.852,-15.564"
       style="fill:none;stroke:#231f20;stroke-width:0.5;stroke-linecap:round;stroke-linejoin:round;stroke-miterlimit:4;stroke-dasharray:2.8, 1.8;stroke-dashoffset:0;stroke-opacity:1"
       id="path942" />
    <path
       d="m 538.796,394.834 c -0.883,2.649 -6.115,3.345 -8.901,1.256"
       style="fill:none;stroke:#231f20;stroke-width:0.5;stroke-linecap:round;stroke-linejoin:round;stroke-miterlimit:4;stroke-dasharray:2.8, 1.8;stroke-dashoffset:0;stroke-opacity:1"
       id="path944" />
    <path
       d="m 531.296,384.25 c 0.348,3.134 -0.348,18.456 -8.357,20.545 -8.009,2.089 -18.455,0.348 -23.679,-0.696 -5.222,-1.045 -19.5,-4.179 -22.634,-4.875 -3.133,-0.696 -10.182,-6.107 -12.678,-12.917"
       style="fill:none;stroke:#231f20;stroke-width:0.5;stroke-linecap:round;stroke-linejoin:round;stroke-miterlimit:4;stroke-dasharray:2.8, 1.8;stroke-dashoffset:0;stroke-opacity:1"
       id="path946" />
    <path
       d="m 530.196,395.124 c -3.427,3.404 -6.533,3.975 -11.087,3.055 -4.336,-0.873 -10.32,-2.067 -13.581,-3.134 -3.259,-1.066 -3.482,-4.178 -12.535,-3.482 -9.054,0.696 -25.091,1.266 -29.045,-5.256"
       style="fill:none;stroke:#231f20;stroke-width:0.5;stroke-linecap:round;stroke-linejoin:round;stroke-miterlimit:4;stroke-dasharray:2.8, 1.8;stroke-dashoffset:0;stroke-opacity:1"
       id="path948" />
    <path
       d="m 532.781,407.233 c -6.268,-0.349 -17.473,1.757 -22.536,13.24"
       style="fill:none;stroke:#231f20;stroke-width:0.5;stroke-linecap:round;stroke-linejoin:round;stroke-miterlimit:4;stroke-dasharray:2.8, 1.8;stroke-dashoffset:0;stroke-opacity:1"
       id="path950" />
    <path
       d="m 503.494,419.162 c -9.072,-6.393 -31.743,-15.412 -60.296,6.875 -4.353,3.397 -6.366,6.831 -9.5,13.447"
       style="fill:none;stroke:#231f20;stroke-width:0.5;stroke-linecap:round;stroke-linejoin:round;stroke-miterlimit:4;stroke-dasharray:2.8, 1.8;stroke-dashoffset:0;stroke-opacity:1"
       id="path952" />
    <path
       d="m 397.592,521.79 c -5.233,-2.432 -24.35,-5.525 -24.733,-9.745 -0.349,-3.83 2.437,-10.446 25.097,-21.861"
       style="fill:none;stroke:#231f20;stroke-width:0.5;stroke-linecap:round;stroke-linejoin:round;stroke-miterlimit:4;stroke-dasharray:2.8, 1.8;stroke-dashoffset:0;stroke-opacity:1"
       id="path954" />
    <path
       d="m 533.044,507 c -5.571,-42.483 -3.14,-88.972 -1.748,-95.937 1.393,-6.964 5.92,-5.92 8.706,-5.92 2.786,0 7.312,-1.044 8.705,5.92 1.393,6.965 3.824,53.454 -1.747,95.937"
       style="fill:none;stroke:#231f20;stroke-width:0.5;stroke-linecap:round;stroke-linejoin:round;stroke-miterlimit:4;stroke-dasharray:2.8, 1.8;stroke-dashoffset:0;stroke-opacity:1"
       id="path956" />
    <path
       d="m 537.216,521.795 c -1.971,0.105 -2.786,-20.545 -2.786,-27.857 0,-7.313 0,-13.232 1.741,-13.232 1.742,0 1.56,18.11 1.742,22.982 0.243,6.532 0.957,18.02 -0.697,18.107 z"
       style="fill:none;stroke:#231f20;stroke-width:0.5;stroke-linecap:round;stroke-linejoin:round;stroke-miterlimit:4;stroke-dasharray:2.8, 1.8;stroke-dashoffset:0;stroke-opacity:1"
       id="path958" />
    <path
       d="m 511.425,507.053 c -2.066,-7.543 -8.274,-16.515 -13.906,-17.641 -8.705,-1.742 -28.88,0.617 -47.52,11.104"
       style="fill:none;stroke:#231f20;stroke-width:0.5;stroke-linecap:round;stroke-linejoin:round;stroke-miterlimit:4;stroke-dasharray:2.8, 1.8;stroke-dashoffset:0;stroke-opacity:1"
       id="path960" />
    <path
       d="m 361.715,507.17 c -3.439,0.544 -10.304,-3.996 -9.401,-13.928 1.044,-11.492 1.741,-15.322 20.196,-36.214 18.455,-20.894 23.33,-28.902 28.554,-34.474 5.223,-5.571 9.401,-4.875 11.491,-3.482 2.089,1.393 0,10.795 -2.437,16.366 -2.438,5.571 -22.634,45.965 -26.117,50.491 -3.482,4.528 -15.669,20.196 -22.286,21.241 z"
       style="fill:none;stroke:#231f20;stroke-width:0.5;stroke-linecap:round;stroke-linejoin:round;stroke-miterlimit:4;stroke-dasharray:2.8, 1.8;stroke-dashoffset:0;stroke-opacity:1"
       id="path962" />
    <path
       d="m 382.334,488.076 c -1.815,-6.326 -12.726,-13.466 -27.815,-6.412"
       style="fill:none;stroke:#231f20;stroke-width:0.5;stroke-linecap:round;stroke-linejoin:round;stroke-miterlimit:4;stroke-dasharray:2.8, 1.8;stroke-dashoffset:0;stroke-opacity:1"
       id="path964" />
    <path
       d="m 357.31,584.681 c 2.664,-5.43 6.312,-19.409 6.843,-22.144 0.609,-3.134 -4.474,-4.293 -5.288,-0.433"
       style="fill:none;stroke:#231f20;stroke-width:0.5;stroke-linecap:round;stroke-linejoin:round;stroke-miterlimit:4;stroke-dasharray:2.8, 1.8;stroke-dashoffset:0;stroke-opacity:1"
       id="path966" />
    <path
       d="m 360.284,583.99 c 5.959,-1.953 11.181,-4.042 18.494,-5.783 7.312,-1.742 11.491,-2.09 13.232,-2.438 1.741,-0.349 3.483,-1.393 4.527,-5.224 1.045,-3.83 -1.044,-10.097 -4.178,-10.446 -3.135,-0.348 -8.01,0 -10.447,-1.392 -2.438,-1.393 -5.578,-5.404 -18.143,1.745"
       style="fill:none;stroke:#231f20;stroke-width:0.5;stroke-linecap:round;stroke-linejoin:round;stroke-miterlimit:4;stroke-dasharray:2.8, 1.8;stroke-dashoffset:0;stroke-opacity:1"
       id="path968" />
    <path
       d="m 441.016,568.874 c -3.39,4.805 -14.881,8.984 -23.934,9.333 -9.054,0.347 -18.461,0.527 -19.5,-5.92 -1.04,-6.447 2.995,-6.683 5.432,-7.728"
       style="fill:none;stroke:#231f20;stroke-width:0.5;stroke-linecap:round;stroke-linejoin:round;stroke-miterlimit:4;stroke-dasharray:2.8, 1.8;stroke-dashoffset:0;stroke-opacity:1"
       id="path970" />
    <path
       d="m 399.815,562.574 c 3.686,2.749 9.954,5.534 18.311,4.49 8.358,-1.045 18.456,-3.482 17.411,-10.099 -1.044,-6.616 -9.053,-5.571 -14.973,-5.92 -5.92,-0.347 -18.444,-0.609 -21.235,3.874"
       style="fill:none;stroke:#231f20;stroke-width:0.5;stroke-linecap:round;stroke-linejoin:round;stroke-miterlimit:4;stroke-dasharray:2.8, 1.8;stroke-dashoffset:0;stroke-opacity:1"
       id="path972" />
    <path
       d="m 430.162,551.72 c 1.952,0.654 2.589,-3.112 2.589,-5.55 0,-2.437 0,-15.321 0.697,-21.241 0.696,-5.919 3.009,-9.29 5.161,-11.782"
       style="fill:none;stroke:#231f20;stroke-width:0.5;stroke-linecap:round;stroke-linejoin:round;stroke-miterlimit:4;stroke-dasharray:2.8, 1.8;stroke-dashoffset:0;stroke-opacity:1"
       id="path974" />
    <path
       d="m 408.055,551.26 c -3.161,-1.956 -3.161,-4.393 -1.071,-13.098 2.089,-8.705 7.312,-19.849 9.053,-27.858 1.741,-8.009 2.437,-12.535 8.357,-16.714 5.92,-4.178 14.974,-8.706 21.938,-7.312 6.964,1.392 12.187,2.437 3.667,14.238"
       style="fill:none;stroke:#231f20;stroke-width:0.5;stroke-linecap:round;stroke-linejoin:round;stroke-miterlimit:4;stroke-dasharray:2.8, 1.8;stroke-dashoffset:0;stroke-opacity:1"
       id="path976" />
    <path
       d="m 448.402,486.71 c -5.552,-2.522 -12.028,-6.701 -13.77,-22.022"
       style="fill:none;stroke:#231f20;stroke-width:0.5;stroke-linecap:round;stroke-linejoin:round;stroke-miterlimit:4;stroke-dasharray:2.8, 1.8;stroke-dashoffset:0;stroke-opacity:1"
       id="path978" />
    <path
       d="m 397.391,493.958 c 3.324,3.115 10.289,5.9 15.86,-0.716 5.572,-6.617 7.372,-13.787 9.46,-19.359"
       style="fill:none;stroke:#231f20;stroke-width:0.5;stroke-linecap:round;stroke-linejoin:round;stroke-miterlimit:4;stroke-dasharray:2.8, 1.8;stroke-dashoffset:0;stroke-opacity:1"
       id="path980" />
    <path
       d="m 411.521,461.451 c -2.437,4.527 -6.627,12.291 -0.359,13.336 6.268,1.045 10.836,-0.262 16.018,-2.787 6.79,-3.307 12.005,-10.938 1.907,-11.287"
       style="fill:none;stroke:#231f20;stroke-width:0.5;stroke-linecap:round;stroke-linejoin:round;stroke-miterlimit:4;stroke-dasharray:2.8, 1.8;stroke-dashoffset:0;stroke-opacity:1"
       id="path982" />
    <path
       d="m 400.715,746.046 c -7.532,-7.153 -25.419,-26.116 -29.946,-55.366 -4.526,-29.25 1.045,-59.545 6.965,-74.866 5.919,-15.322 8.705,-16.715 13.231,-14.625 4.528,2.09 4.875,5.225 2.09,12.187 -2.786,6.965 -7.052,16.802 -10.795,34.125 -2.481,11.483 -4.91,32.797 1.393,57.108 4.875,18.804 6.965,22.286 13.581,26.465 4.608,2.91 8.705,9.053 11.839,12.884 3.134,3.83 10.446,9.75 16.714,12.535 6.268,2.786 12.884,4.527 12.187,7.661 -0.788,3.549 -31.733,-12.861 -37.259,-18.108 z"
       style="fill:none;stroke:#231f20;stroke-width:0.5;stroke-linecap:round;stroke-linejoin:round;stroke-miterlimit:4;stroke-dasharray:2.8, 1.8;stroke-dashoffset:0;stroke-opacity:1"
       id="path984" />
    <path
       d="m 724.555,673.399 18.89,82.564"
       style="fill:none;stroke:#231f20;stroke-width:0.5;stroke-linecap:round;stroke-linejoin:round;stroke-miterlimit:4;stroke-dasharray:2.8, 1.8;stroke-dashoffset:0;stroke-opacity:1"
       id="path986" />
    <path
       d="M 807.329,462.99 828.768,660.1"
       style="fill:none;stroke:#231f20;stroke-width:0.5;stroke-linecap:round;stroke-linejoin:round;stroke-miterlimit:4;stroke-dasharray:2.8, 1.8;stroke-dashoffset:0;stroke-opacity:1"
       id="path988" />
    <path
       d="m 840.574,463.68 -8.237,192.159"
       style="fill:none;stroke:#231f20;stroke-width:0.5;stroke-linecap:round;stroke-linejoin:round;stroke-miterlimit:4;stroke-dasharray:2.8, 1.8;stroke-dashoffset:0;stroke-opacity:1"
       id="path990" />
    <path
       d="m 835.13,653.271 46.3,-163.17"
       style="fill:none;stroke:#231f20;stroke-width:0.5;stroke-linecap:round;stroke-linejoin:round;stroke-miterlimit:4;stroke-dasharray:2.8, 1.8;stroke-dashoffset:0;stroke-opacity:1"
       id="path992" />
    <path
       d="m 763.54,624.123 32.546,78.524"
       style="fill:none;stroke:#231f20;stroke-width:0.5;stroke-linecap:round;stroke-linejoin:round;stroke-miterlimit:4;stroke-dasharray:2.8, 1.8;stroke-dashoffset:0;stroke-opacity:1"
       id="path994" />
    <path
       d="m 486.088,800.658 c -14.718,4.446 -72.806,18.752 -101.027,7.664"
       style="fill:none;stroke:#231f20;stroke-width:0.5;stroke-linecap:round;stroke-linejoin:round;stroke-miterlimit:4;stroke-dasharray:2.8, 1.8;stroke-dashoffset:0;stroke-opacity:1"
       id="path996" />
    <path
       d="M 500.752,857.965 C 487.073,852.252 388.876,811.163 384.698,809.074"
       style="fill:none;stroke:#231f20;stroke-width:0.5;stroke-linecap:round;stroke-linejoin:round;stroke-miterlimit:4;stroke-dasharray:2.8, 1.8;stroke-dashoffset:0;stroke-opacity:1"
       id="path998" />
    <path
       d="M 465.142,881.607 C 454,870.464 395.542,818.319 382.633,808.996"
       style="fill:none;stroke:#231f20;stroke-width:0.5;stroke-linecap:round;stroke-linejoin:round;stroke-miterlimit:4;stroke-dasharray:2.8, 1.8;stroke-dashoffset:0;stroke-opacity:1"
       id="path1000" />
    <path
       d="m 367.986,801.061 -33.294,83.4"
       style="fill:none;stroke:#231f20;stroke-width:0.5;stroke-linecap:round;stroke-linejoin:round;stroke-miterlimit:4;stroke-dasharray:2.8, 1.8;stroke-dashoffset:0;stroke-opacity:1"
       id="path1002" />
    <path
       d="m 311.026,758.06 -57.804,74.948"
       style="fill:none;stroke:#231f20;stroke-width:0.5;stroke-linecap:round;stroke-linejoin:round;stroke-miterlimit:4;stroke-dasharray:2.8, 1.8;stroke-dashoffset:0;stroke-opacity:1"
       id="path1004" />
    <path
       d="M 264.991,710.819 192.66,771.466"
       style="fill:none;stroke:#231f20;stroke-width:0.5;stroke-linecap:round;stroke-linejoin:round;stroke-miterlimit:4;stroke-dasharray:2.8, 1.8;stroke-dashoffset:0;stroke-opacity:1"
       id="path1006" />
    <path
       d="m 250.868,688.305 c 0,0 -45.297,-15.644 -102.506,-5.416"
       style="fill:none;stroke:#231f20;stroke-width:0.5;stroke-linecap:round;stroke-linejoin:round;stroke-miterlimit:4;stroke-dasharray:2.8, 1.8;stroke-dashoffset:0;stroke-opacity:1"
       id="path1008" />
    <path
       d="m 241.004,654.383 c 0,0 -69.843,-47.19 -95.397,-55.067"
       style="fill:none;stroke:#231f20;stroke-width:0.5;stroke-linecap:round;stroke-linejoin:round;stroke-miterlimit:4;stroke-dasharray:2.8, 1.8;stroke-dashoffset:0;stroke-opacity:1"
       id="path1010" />
    <path
       d="M 242.626,652.725 C 233.92,640.189 185.391,590.056 151.33,568.81"
       style="fill:none;stroke:#231f20;stroke-width:0.5;stroke-linecap:round;stroke-linejoin:round;stroke-miterlimit:4;stroke-dasharray:2.8, 1.8;stroke-dashoffset:0;stroke-opacity:1"
       id="path1012" />
    <path
       d="m 387.336,747.693 c 0,0 -22.138,22.032 -27.013,31.086"
       style="fill:none;stroke:#231f20;stroke-width:0.5;stroke-linecap:round;stroke-linejoin:round;stroke-miterlimit:4;stroke-dasharray:2.8, 1.8;stroke-dashoffset:0;stroke-opacity:1"
       id="path1014" />
    <path
       d="m 344.968,719.152 c -4.892,-1.175 -10.821,-5.228 -13.199,-13.847 -2.786,-10.097 -8.357,-30.294 -8.705,-45.964 -0.349,-15.67 -0.338,-33.46 2.089,-40.393 2.437,-6.964 5.571,-11.143 12.187,-9.75 7.77,1.636 9.054,7.312 8.705,21.241 -0.347,13.929 -0.618,35.107 0.08,53.873 0.269,7.239 2.229,20.094 1.437,23.554"
       style="fill:none;stroke:#231f20;stroke-width:0.5;stroke-linecap:round;stroke-linejoin:round;stroke-miterlimit:4;stroke-dasharray:2.8, 1.8;stroke-dashoffset:0;stroke-opacity:1"
       id="path1016" />
    <path
       d="m 341.17,578.903 c -6.615,6.616 -13.927,10.446 -17.758,25.073 -3.83,14.624 -9.108,28.733 -16.018,29.598 -5.571,0.696 -13.714,-14.27 -16.366,-21.59 -2.892,-7.98 -5.696,-19.066 -8.009,-39.697 -2.175,-19.405 -10.099,-32.037 -21.59,-39.349 -11.49,-7.313 -20.544,-11.49 -28.553,-13.58 -8.009,-2.089 -6.359,-12.791 -0.348,-18.804 6.267,-6.267 19.5,-10.446 34.821,-5.222 15.321,5.222 32.384,22.981 33.429,36.562 1.045,13.58 2.09,38.306 4.875,48.404 2.786,10.096 10.098,25.071 17.759,23.678"
       style="fill:none;stroke:#231f20;stroke-width:0.5;stroke-linecap:round;stroke-linejoin:round;stroke-miterlimit:4;stroke-dasharray:2.8, 1.8;stroke-dashoffset:0;stroke-opacity:1"
       id="path1018" />
    <path
       d="m 355.448,673.399 -18.89,82.564"
       style="fill:none;stroke:#231f20;stroke-width:0.5;stroke-linecap:round;stroke-linejoin:round;stroke-miterlimit:4;stroke-dasharray:2.8, 1.8;stroke-dashoffset:0;stroke-opacity:1"
       id="path1020" />
    <path
       d="M 272.674,462.99 251.235,660.1"
       style="fill:none;stroke:#231f20;stroke-width:0.5;stroke-linecap:round;stroke-linejoin:round;stroke-miterlimit:4;stroke-dasharray:2.8, 1.8;stroke-dashoffset:0;stroke-opacity:1"
       id="path1022" />
    <path
       d="m 239.429,463.68 8.237,192.159"
       style="fill:none;stroke:#231f20;stroke-width:0.5;stroke-linecap:round;stroke-linejoin:round;stroke-miterlimit:4;stroke-dasharray:2.8, 1.8;stroke-dashoffset:0;stroke-opacity:1"
       id="path1024" />
    <path
       d="M 244.874,653.271 198.573,490.101"
       style="fill:none;stroke:#231f20;stroke-width:0.5;stroke-linecap:round;stroke-linejoin:round;stroke-miterlimit:4;stroke-dasharray:2.8, 1.8;stroke-dashoffset:0;stroke-opacity:1"
       id="path1026" />
    <path
       d="m 316.464,624.123 -32.548,78.524"
       style="fill:none;stroke:#231f20;stroke-width:0.5;stroke-linecap:round;stroke-linejoin:round;stroke-miterlimit:4;stroke-dasharray:2.8, 1.8;stroke-dashoffset:0;stroke-opacity:1"
       id="path1028" />
    <path
       d="m 652.469,391.181 c -0.938,0.149 -1.87,0.277 -2.78,0.382 -9.054,1.045 -14.363,2.606 -22.804,-1.738"
       style="fill:none;stroke:#231f20;stroke-width:0.5;stroke-linecap:round;stroke-linejoin:round;stroke-miterlimit:4;stroke-dasharray:2.8, 1.8;stroke-dashoffset:0;stroke-opacity:1"
       id="path1030" />
    <path
       d="m 453.118,389.825 c -8.44,4.344 -13.75,2.783 -22.804,1.738 -0.912,-0.105 -1.846,-0.235 -2.786,-0.384"
       style="fill:none;stroke:#231f20;stroke-width:0.5;stroke-linecap:round;stroke-linejoin:round;stroke-miterlimit:4;stroke-dasharray:2.8, 1.8;stroke-dashoffset:0;stroke-opacity:1"
       id="path1032" />
  </g>
</svg>
