<?xml version="1.0" encoding="UTF-8" standalone="no"?>
<!-- Created with Inkscape (http://www.inkscape.org/) -->

<svg
   version="1.1"
   id="svg2"
   width="1440"
   height="1344"
   viewBox="0 0 1440 1344"
   xmlns="http://www.w3.org/2000/svg"
   xmlns:svg="http://www.w3.org/2000/svg">
  <defs
     id="defs6" />
  <g
     id="g8">
    <path
       d="m 742.314,634.964 c 3.988,1.774 15.67,0.697 18.107,-6.964 2.438,-7.661 2.774,-15.128 -4.875,-19.5 -4.875,-2.786 -14.973,-3.483 -18.516,5.899 -4.32,11.438 2.15,19.172 5.284,20.565"
       style="fill:#ffffff;fill-opacity:1;fill-rule:nonzero;stroke:none;stroke-width:0.1"
       id="path668" />
    <path
       d="m 742.314,634.964 c 3.988,1.774 15.67,0.697 18.107,-6.964 2.438,-7.661 2.774,-15.128 -4.875,-19.5 -4.875,-2.786 -14.973,-3.483 -18.516,5.899 -4.32,11.438 2.15,19.172 5.284,20.565 z"
       style="fill:none;stroke:#231f20;stroke-width:0.75;stroke-linecap:round;stroke-linejoin:round;stroke-miterlimit:4;stroke-dasharray:none;stroke-opacity:1"
       id="path670" />
    <path
       d="m 534.199,828.804 c 0,-2.948 -1.259,-5.339 -2.925,-5.339 -1.668,0 -4.04,2.391 -4.04,5.339 0,2.948 1.35,5.339 3.018,5.339 1.666,0 3.947,-2.391 3.947,-5.339"
       style="fill:#ffffff;fill-opacity:1;fill-rule:nonzero;stroke:none;stroke-width:0.1"
       id="path672" />
    <path
       d="m 534.199,828.804 c 0,-2.948 -1.259,-5.339 -2.925,-5.339 -1.668,0 -4.04,2.391 -4.04,5.339 0,2.948 1.35,5.339 3.018,5.339 1.666,0 3.947,-2.391 3.947,-5.339 z"
       style="fill:none;stroke:#231f20;stroke-width:0.5;stroke-linecap:butt;stroke-linejoin:miter;stroke-miterlimit:4;stroke-dasharray:none;stroke-opacity:1"
       id="path674" />
    <path
       d="m 788.279,603.277 c 0,-1.924 -1.405,-3.483 -3.134,-3.483 -1.73,0 -3.135,1.559 -3.135,3.483 0,1.923 1.405,3.481 3.135,3.481 1.729,0 3.134,-1.558 3.134,-3.481"
       style="fill:#ffffff;fill-opacity:1;fill-rule:nonzero;stroke:none;stroke-width:0.1"
       id="path676" />
    <path
       d="m 788.279,603.277 c 0,-1.924 -1.405,-3.483 -3.134,-3.483 -1.73,0 -3.135,1.559 -3.135,3.483 0,1.923 1.405,3.481 3.135,3.481 1.729,0 3.134,-1.558 3.134,-3.481 z"
       style="fill:none;stroke:#231f20;stroke-width:0.5;stroke-linecap:butt;stroke-linejoin:miter;stroke-miterlimit:4;stroke-dasharray:none;stroke-opacity:1"
       id="path678" />
    <path
       d="m 775.394,616.508 c 0,-1.923 -1.715,-3.481 -3.83,-3.481 -2.115,0 -3.83,1.558 -3.83,3.481 0,1.924 1.715,3.483 3.83,3.483 2.115,0 3.83,-1.559 3.83,-3.483"
       style="fill:#ffffff;fill-opacity:1;fill-rule:nonzero;stroke:none;stroke-width:0.1"
       id="path680" />
    <path
       d="m 775.394,616.508 c 0,-1.923 -1.715,-3.481 -3.83,-3.481 -2.115,0 -3.83,1.558 -3.83,3.481 0,1.924 1.715,3.483 3.83,3.483 2.115,0 3.83,-1.559 3.83,-3.483 z"
       style="fill:none;stroke:#231f20;stroke-width:0.5;stroke-linecap:butt;stroke-linejoin:miter;stroke-miterlimit:4;stroke-dasharray:none;stroke-opacity:1"
       id="path682" />
    <path
       d="m 728.658,656.826 2.198,3.98 c 0,0 3.101,3.757 4.842,4.106 1.741,0.347 4.875,-9.403 0.348,-11.144 -4.527,-1.741 -5.922,-2.109 -9.054,-1.055 l 1.666,4.113"
       style="fill:#ffffff;fill-opacity:1;fill-rule:nonzero;stroke:none;stroke-width:0.1"
       id="path684" />
    <path
       d="m 728.658,656.826 2.198,3.98 c 0,0 3.101,3.757 4.842,4.106 1.741,0.347 4.875,-9.403 0.348,-11.144 -4.527,-1.741 -5.922,-2.109 -9.054,-1.055 z"
       style="fill:none;stroke:#231f20;stroke-width:0.5;stroke-linecap:butt;stroke-linejoin:miter;stroke-miterlimit:4;stroke-dasharray:none;stroke-opacity:1"
       id="path686" />
    <path
       d="m 730.672,652.159 c -1.718,-1.008 -3.679,-2.57 -2.287,-5.355 1.394,-2.786 6.965,-2.786 9.054,-1.392 2.09,1.392 3.482,6.441 -2.093,8.088 -2.228,0.659 -4.674,-1.341 -4.674,-1.341"
       style="fill:#ffffff;fill-opacity:1;fill-rule:nonzero;stroke:none;stroke-width:0.1"
       id="path688" />
    <path
       d="m 730.672,652.159 c -1.718,-1.008 -3.679,-2.57 -2.287,-5.355 1.394,-2.786 6.965,-2.786 9.054,-1.392 2.09,1.392 3.482,6.441 -2.093,8.088 -2.228,0.659 -4.674,-1.341 -4.674,-1.341 z"
       style="fill:none;stroke:#231f20;stroke-width:0.5;stroke-linecap:butt;stroke-linejoin:miter;stroke-miterlimit:4;stroke-dasharray:none;stroke-opacity:1"
       id="path690" />
    <path
       d="m 544.411,354.651 c 0,-1.923 -1.974,-3.483 -4.409,-3.483 -2.437,0 -4.411,1.56 -4.411,3.483 0,1.924 1.974,3.482 4.411,3.482 2.435,0 4.409,-1.558 4.409,-3.482"
       style="fill:#ffffff;fill-opacity:1;fill-rule:nonzero;stroke:none;stroke-width:0.1"
       id="path692" />
    <path
       d="m 544.411,354.651 c 0,-1.923 -1.974,-3.483 -4.409,-3.483 -2.437,0 -4.411,1.56 -4.411,3.483 0,1.924 1.974,3.482 4.411,3.482 2.435,0 4.409,-1.558 4.409,-3.482 z"
       style="fill:none;stroke:#231f20;stroke-width:0.5;stroke-linecap:butt;stroke-linejoin:miter;stroke-miterlimit:4;stroke-dasharray:none;stroke-opacity:1"
       id="path694" />
    <path
       d="m 540.002,821.143 c 8.822,0 21.124,5.572 21.357,17.876 0.139,7.326 -6.13,11.964 -12.073,13.696 -4.037,1.177 -8.083,0.683 -9.284,0.464 -2.555,-0.464 -10.795,-9.634 -9.982,-15.785 0.517,-3.913 2.837,-16.251 9.982,-16.251"
       style="fill:#b2b1b1;fill-opacity:1;fill-rule:nonzero;stroke:none;stroke-width:0.1"
       id="path696" />
    <path
       d="m 337.688,634.964 c -3.988,1.774 -15.669,0.697 -18.106,-6.964 -2.438,-7.661 -2.774,-15.128 4.875,-19.5 4.875,-2.786 14.972,-3.483 18.516,5.899 4.319,11.438 -2.151,19.172 -5.285,20.565"
       style="fill:#ffffff;fill-opacity:1;fill-rule:nonzero;stroke:none;stroke-width:0.1"
       id="path698" />
    <path
       d="m 337.688,634.964 c -3.988,1.774 -15.669,0.697 -18.106,-6.964 -2.438,-7.661 -2.774,-15.128 4.875,-19.5 4.875,-2.786 14.972,-3.483 18.516,5.899 4.319,11.438 -2.151,19.172 -5.285,20.565 z"
       style="fill:none;stroke:#231f20;stroke-width:0.75;stroke-linecap:round;stroke-linejoin:round;stroke-miterlimit:4;stroke-dasharray:none;stroke-opacity:1"
       id="path700" />
    <path
       d="m 291.724,603.277 c 0,-1.924 1.403,-3.483 3.134,-3.483 1.73,0 3.134,1.559 3.134,3.483 0,1.923 -1.404,3.481 -3.134,3.481 -1.731,0 -3.134,-1.558 -3.134,-3.481"
       style="fill:#ffffff;fill-opacity:1;fill-rule:nonzero;stroke:none;stroke-width:0.1"
       id="path702" />
    <path
       d="m 291.724,603.277 c 0,-1.924 1.403,-3.483 3.134,-3.483 1.73,0 3.134,1.559 3.134,3.483 0,1.923 -1.404,3.481 -3.134,3.481 -1.731,0 -3.134,-1.558 -3.134,-3.481 z"
       style="fill:none;stroke:#231f20;stroke-width:0.5;stroke-linecap:butt;stroke-linejoin:miter;stroke-miterlimit:4;stroke-dasharray:none;stroke-opacity:1"
       id="path704" />
    <path
       d="m 304.608,616.508 c 0,-1.923 1.715,-3.481 3.83,-3.481 2.115,0 3.831,1.558 3.831,3.481 0,1.924 -1.716,3.483 -3.831,3.483 -2.115,0 -3.83,-1.559 -3.83,-3.483"
       style="fill:#ffffff;fill-opacity:1;fill-rule:nonzero;stroke:none;stroke-width:0.1"
       id="path706" />
    <path
       d="m 304.608,616.508 c 0,-1.923 1.715,-3.481 3.83,-3.481 2.115,0 3.831,1.558 3.831,3.481 0,1.924 -1.716,3.483 -3.831,3.483 -2.115,0 -3.83,-1.559 -3.83,-3.483 z"
       style="fill:none;stroke:#231f20;stroke-width:0.5;stroke-linecap:butt;stroke-linejoin:miter;stroke-miterlimit:4;stroke-dasharray:none;stroke-opacity:1"
       id="path708" />
    <path
       d="m 351.345,656.826 -2.198,3.98 c 0,0 -3.102,3.757 -4.843,4.106 -1.741,0.347 -4.875,-9.403 -0.347,-11.144 4.526,-1.741 5.921,-2.109 9.054,-1.055 l -1.666,4.113"
       style="fill:#ffffff;fill-opacity:1;fill-rule:nonzero;stroke:none;stroke-width:0.1"
       id="path710" />
    <path
       d="m 351.345,656.826 -2.198,3.98 c 0,0 -3.102,3.757 -4.843,4.106 -1.741,0.347 -4.875,-9.403 -0.347,-11.144 4.526,-1.741 5.921,-2.109 9.054,-1.055 z"
       style="fill:none;stroke:#231f20;stroke-width:0.5;stroke-linecap:butt;stroke-linejoin:miter;stroke-miterlimit:4;stroke-dasharray:none;stroke-opacity:1"
       id="path712" />
    <path
       d="m 349.331,652.159 c 1.717,-1.008 3.678,-2.57 2.286,-5.355 -1.393,-2.786 -6.964,-2.786 -9.054,-1.392 -2.089,1.392 -3.481,6.441 2.094,8.088 2.227,0.659 4.674,-1.341 4.674,-1.341"
       style="fill:#ffffff;fill-opacity:1;fill-rule:nonzero;stroke:none;stroke-width:0.1"
       id="path714" />
    <path
       d="m 349.331,652.159 c 1.717,-1.008 3.678,-2.57 2.286,-5.355 -1.393,-2.786 -6.964,-2.786 -9.054,-1.392 -2.089,1.392 -3.481,6.441 2.094,8.088 2.227,0.659 4.674,-1.341 4.674,-1.341 z"
       style="fill:none;stroke:#231f20;stroke-width:0.5;stroke-linecap:butt;stroke-linejoin:miter;stroke-miterlimit:4;stroke-dasharray:none;stroke-opacity:1"
       id="path716" />
    <path
       d="m 716.198,773.903 c -5.572,9.401 -16.018,19.5 -31.339,32.384 -4.624,3.887 -9.977,8.029 -15.55,12.022 -15.096,11.818 -29.022,22.799 -35.638,31.853 -6.616,9.053 -15.669,23.678 -12.187,33.776 3.481,10.099 17.062,13.232 22.634,15.67 5.571,2.437 8.705,3.482 10.097,5.224 1.394,1.741 13.233,13.58 31.688,14.973 18.456,1.393 35.17,1.741 66.161,-10.098 30.991,-11.84 57.456,-25.072 71.384,-34.125 13.928,-9.054 32.384,-22.983 56.76,-51.188 24.374,-28.206 25.418,-37.956 33.08,-48.054 7.661,-10.098 17.758,-39.697 20.196,-56.062 2.437,-16.366 0.348,-34.822 -2.089,-44.224 -2.437,-9.402 -10.795,-13.929 -11.491,-32.384 -0.696,-18.456 -6.268,-29.251 -13.929,-40.046 -7.661,-10.794 -35.17,-25.071 -45.616,-25.071 -10.446,0 -33.777,10.099 -44.92,23.33 -11.143,13.233 -12.535,21.941 -16.366,35.173 -3.83,13.231 -13.232,37.606 -27.16,52.231 -13.929,14.625 -28.554,30.294 -32.733,37.606 -4.178,7.313 -9.75,20.545 2.786,21.938 0,0 -13.966,10.402 -25.768,25.072"
       style="fill:#ffffff;fill-opacity:1;fill-rule:nonzero;stroke:none;stroke-width:0.1"
       id="path718" />
    <path
       d="m 716.198,773.903 c -5.572,9.401 -16.018,19.5 -31.339,32.384 -4.624,3.887 -9.977,8.029 -15.55,12.022 -15.096,11.818 -29.022,22.799 -35.638,31.853 -6.616,9.053 -15.669,23.678 -12.187,33.776 3.481,10.099 17.062,13.232 22.634,15.67 5.571,2.437 8.705,3.482 10.097,5.224 1.394,1.741 13.233,13.58 31.688,14.973 18.456,1.393 35.17,1.741 66.161,-10.098 30.991,-11.84 57.456,-25.072 71.384,-34.125 13.928,-9.054 32.384,-22.983 56.76,-51.188 24.374,-28.206 25.418,-37.956 33.08,-48.054 7.661,-10.098 17.758,-39.697 20.196,-56.062 2.437,-16.366 0.348,-34.822 -2.089,-44.224 -2.437,-9.402 -10.795,-13.929 -11.491,-32.384 -0.696,-18.456 -6.268,-29.251 -13.929,-40.046 -7.661,-10.794 -35.17,-25.071 -45.616,-25.071 -10.446,0 -33.777,10.099 -44.92,23.33 -11.143,13.233 -12.535,21.941 -16.366,35.173 -3.83,13.231 -13.232,37.606 -27.16,52.231 -13.929,14.625 -28.554,30.294 -32.733,37.606 -4.178,7.313 -9.75,20.545 2.786,21.938 0,0 -13.966,10.402 -25.768,25.072 z"
       style="fill:none;stroke:#231f20;stroke-width:0.75;stroke-linecap:round;stroke-linejoin:round;stroke-miterlimit:4;stroke-dasharray:none;stroke-opacity:1"
       id="path720" />
    <path
       d="m 540.002,358.133 c -3.483,0 -7.662,-2.437 -9.75,-3.133 -2.09,-0.697 -5.92,-1.394 -13.582,-0.697 -7.66,0.697 -11.142,0 -21.588,0 -10.447,0 -26.117,4.875 -32.733,8.009 -6.616,3.134 -18.455,6.268 -32.732,12.535 -14.277,6.269 -26.464,18.804 -32.384,25.072 -5.92,6.268 -13.233,10.794 -27.16,16.714 -13.929,5.92 -21.59,10.447 -29.947,16.367 -8.357,5.919 -20.544,25.767 -25.768,36.213 -5.224,10.448 -6.964,17.063 -9.054,29.25 -2.089,12.188 2.438,32.733 2.786,38.304 0.348,5.572 3.83,2.786 3.83,2.786 -3.133,7.313 -1.741,35.17 -1.392,41.786 0.348,6.616 5.571,11.143 12.187,5.572 6.617,-5.572 20.544,-25.072 20.544,-25.072 -2.089,8.009 -3.481,20.893 -3.133,32.035 0.348,11.143 1.741,19.5 4.527,24.376 2.785,4.874 5.919,8.008 9.401,15.669 2.279,5.014 0.349,17.76 -3.134,23.68 -3.482,5.919 -5.223,10.794 -7.312,17.063 -2.7,8.098 -1.741,14.625 0.349,41.437 2.088,26.813 14.276,48.401 19.847,57.804 5.572,9.401 16.019,19.5 31.34,32.384 4.623,3.887 9.976,8.029 15.55,12.022 12.9,9.24 26.989,17.688 35.985,20.361 12.885,3.83 25.072,1.393 39,-2.437 13.929,-3.83 28.554,-15.67 34.126,-19.849 5.571,-4.177 14.277,-17.41 20.197,-17.41 5.918,0 14.624,13.233 20.196,17.41 5.571,4.179 20.196,16.019 34.125,19.849 13.929,3.83 26.116,6.267 39,2.437 8.996,-2.673 23.086,-11.121 35.986,-20.361 5.573,-3.993 10.926,-8.135 15.55,-12.022 15.321,-12.884 25.767,-22.983 31.339,-32.384 5.571,-9.403 17.759,-30.991 19.848,-57.804 2.089,-26.812 3.048,-33.339 0.348,-41.437 -2.089,-6.269 -3.83,-11.144 -7.312,-17.063 -3.482,-5.92 -5.413,-18.666 -3.134,-23.68 3.482,-7.661 6.616,-10.795 9.402,-15.669 2.785,-4.876 4.179,-13.233 4.526,-24.376 0.349,-11.142 -1.044,-24.026 -3.133,-32.035 0,0 13.928,19.5 20.545,25.072 6.616,5.571 11.838,1.044 12.187,-5.572 0.348,-6.616 1.741,-34.473 -1.393,-41.786 0,0 3.482,2.786 3.831,-2.786 0.347,-5.571 4.875,-26.116 2.785,-38.304 -2.089,-12.187 -3.83,-18.802 -9.054,-29.25 -5.223,-10.446 -17.41,-30.294 -25.768,-36.213 -8.357,-5.92 -16.017,-10.447 -29.946,-16.367 -13.928,-5.92 -21.241,-10.446 -27.161,-16.714 -5.919,-6.268 -18.106,-18.803 -32.384,-25.072 -14.276,-6.267 -26.116,-9.401 -32.732,-12.535 -6.616,-3.134 -22.285,-8.009 -32.732,-8.009 -10.447,0 -13.928,0.697 -21.589,0 -7.662,-0.697 -11.492,0 -13.58,0.697 -2.09,0.696 -6.269,3.133 -9.75,3.133"
       style="fill:#ffffff;fill-opacity:1;fill-rule:nonzero;stroke:none;stroke-width:0.1"
       id="path722" />
    <path
       d="m 540.002,358.133 c -3.483,0 -7.662,-2.437 -9.75,-3.133 -2.09,-0.697 -5.92,-1.394 -13.582,-0.697 -7.66,0.697 -11.142,0 -21.588,0 -10.447,0 -26.117,4.875 -32.733,8.009 -6.616,3.134 -18.455,6.268 -32.732,12.535 -14.277,6.269 -26.464,18.804 -32.384,25.072 -5.92,6.268 -13.233,10.794 -27.16,16.714 -13.929,5.92 -21.59,10.447 -29.947,16.367 -8.357,5.919 -20.544,25.767 -25.768,36.213 -5.224,10.448 -6.964,17.063 -9.054,29.25 -2.089,12.188 2.438,32.733 2.786,38.304 0.348,5.572 3.83,2.786 3.83,2.786 -3.133,7.313 -1.741,35.17 -1.392,41.786 0.348,6.616 5.571,11.143 12.187,5.572 6.617,-5.572 20.544,-25.072 20.544,-25.072 -2.089,8.009 -3.481,20.893 -3.133,32.035 0.348,11.143 1.741,19.5 4.527,24.376 2.785,4.874 5.919,8.008 9.401,15.669 2.279,5.014 0.349,17.76 -3.134,23.68 -3.482,5.919 -5.223,10.794 -7.312,17.063 -2.7,8.098 -1.741,14.625 0.349,41.437 2.088,26.813 14.276,48.401 19.847,57.804 5.572,9.401 16.019,19.5 31.34,32.384 4.623,3.887 9.976,8.029 15.55,12.022 12.9,9.24 26.989,17.688 35.985,20.361 12.885,3.83 25.072,1.393 39,-2.437 13.929,-3.83 28.554,-15.67 34.126,-19.849 5.571,-4.177 14.277,-17.41 20.197,-17.41 5.918,0 14.624,13.233 20.196,17.41 5.571,4.179 20.196,16.019 34.125,19.849 13.929,3.83 26.116,6.267 39,2.437 8.996,-2.673 23.086,-11.121 35.986,-20.361 5.573,-3.993 10.926,-8.135 15.55,-12.022 15.321,-12.884 25.767,-22.983 31.339,-32.384 5.571,-9.403 17.759,-30.991 19.848,-57.804 2.089,-26.812 3.048,-33.339 0.348,-41.437 -2.089,-6.269 -3.83,-11.144 -7.312,-17.063 -3.482,-5.92 -5.413,-18.666 -3.134,-23.68 3.482,-7.661 6.616,-10.795 9.402,-15.669 2.785,-4.876 4.179,-13.233 4.526,-24.376 0.349,-11.142 -1.044,-24.026 -3.133,-32.035 0,0 13.928,19.5 20.545,25.072 6.616,5.571 11.838,1.044 12.187,-5.572 0.348,-6.616 1.741,-34.473 -1.393,-41.786 0,0 3.482,2.786 3.831,-2.786 0.347,-5.571 4.875,-26.116 2.785,-38.304 -2.089,-12.187 -3.83,-18.802 -9.054,-29.25 -5.223,-10.446 -17.41,-30.294 -25.768,-36.213 -8.357,-5.92 -16.017,-10.447 -29.946,-16.367 -13.928,-5.92 -21.241,-10.446 -27.161,-16.714 -5.919,-6.268 -18.106,-18.803 -32.384,-25.072 -14.276,-6.267 -26.116,-9.401 -32.732,-12.535 -6.616,-3.134 -22.285,-8.009 -32.732,-8.009 -10.447,0 -13.928,0.697 -21.589,0 -7.662,-0.697 -11.492,0 -13.58,0.697 -2.09,0.696 -6.269,3.133 -9.75,3.133 z"
       style="fill:none;stroke:#231f20;stroke-width:0.75;stroke-linecap:round;stroke-linejoin:round;stroke-miterlimit:4;stroke-dasharray:none;stroke-opacity:1"
       id="path724" />
    <path
       d="m 363.804,773.903 c 5.572,9.401 16.019,19.5 31.34,32.384 4.623,3.887 9.976,8.029 15.55,12.022 15.096,11.818 29.021,22.799 35.638,31.853 6.616,9.053 15.669,23.678 12.187,33.776 -3.482,10.099 -17.062,13.232 -22.634,15.67 -5.572,2.437 -8.706,3.482 -10.098,5.224 -1.393,1.741 -13.233,13.58 -31.688,14.973 -18.455,1.393 -35.17,1.741 -66.161,-10.098 -30.991,-11.84 -57.455,-25.072 -71.384,-34.125 -13.928,-9.054 -32.384,-22.983 -56.759,-51.188 -24.375,-28.206 -25.419,-37.956 -33.081,-48.054 -7.66,-10.098 -17.758,-39.697 -20.196,-56.062 -2.437,-16.366 -0.348,-34.822 2.09,-44.224 2.437,-9.402 10.794,-13.929 11.491,-32.384 0.696,-18.456 6.268,-29.251 13.928,-40.046 7.661,-10.794 35.17,-25.071 45.616,-25.071 10.447,0 33.777,10.099 44.92,23.33 11.143,13.233 12.536,21.941 16.366,35.173 3.83,13.231 13.233,37.606 27.161,52.231 13.929,14.625 28.554,30.294 32.732,37.606 4.178,7.313 9.75,20.545 -2.785,21.938 0,0 13.966,10.402 25.767,25.072"
       style="fill:#ffffff;fill-opacity:1;fill-rule:nonzero;stroke:none;stroke-width:0.1"
       id="path726" />
    <path
       d="m 363.804,773.903 c 5.572,9.401 16.019,19.5 31.34,32.384 4.623,3.887 9.976,8.029 15.55,12.022 15.096,11.818 29.021,22.799 35.638,31.853 6.616,9.053 15.669,23.678 12.187,33.776 -3.482,10.099 -17.062,13.232 -22.634,15.67 -5.572,2.437 -8.706,3.482 -10.098,5.224 -1.393,1.741 -13.233,13.58 -31.688,14.973 -18.455,1.393 -35.17,1.741 -66.161,-10.098 -30.991,-11.84 -57.455,-25.072 -71.384,-34.125 -13.928,-9.054 -32.384,-22.983 -56.759,-51.188 -24.375,-28.206 -25.419,-37.956 -33.081,-48.054 -7.66,-10.098 -17.758,-39.697 -20.196,-56.062 -2.437,-16.366 -0.348,-34.822 2.09,-44.224 2.437,-9.402 10.794,-13.929 11.491,-32.384 0.696,-18.456 6.268,-29.251 13.928,-40.046 7.661,-10.794 35.17,-25.071 45.616,-25.071 10.447,0 33.777,10.099 44.92,23.33 11.143,13.233 12.536,21.941 16.366,35.173 3.83,13.231 13.233,37.606 27.161,52.231 13.929,14.625 28.554,30.294 32.732,37.606 4.178,7.313 9.75,20.545 -2.785,21.938 0,0 13.966,10.402 25.767,25.072 z"
       style="fill:none;stroke:#231f20;stroke-width:0.75;stroke-linecap:round;stroke-linejoin:round;stroke-miterlimit:4;stroke-dasharray:none;stroke-opacity:1"
       id="path728" />
    <path
       d="m 775.103,510.676 c -1.378,-17.577 -10.532,-43.554 -38.084,-79.66"
       style="fill:none;stroke:#231f20;stroke-width:0.5;stroke-linecap:butt;stroke-linejoin:miter;stroke-miterlimit:4;stroke-dasharray:none;stroke-opacity:1"
       id="path730" />
    <path
       d="m 768.082,539.553 c -6.964,-11.491 -24.839,-40.069 -37.259,-60.59 -16.018,-26.463 -31.266,-57.31 -37.571,-70.614"
       style="fill:none;stroke:#231f20;stroke-width:0.5;stroke-linecap:butt;stroke-linejoin:miter;stroke-miterlimit:4;stroke-dasharray:none;stroke-opacity:1"
       id="path732" />
    <path
       d="m 737.788,654.464 c 4.7,-8.182 12.187,-11.49 20.196,-14.625 8.009,-3.133 14.624,-2.783 17.062,2.09 2.439,4.873 -2.437,11.491 -5.571,15.67 -3.134,4.178 -13.7,16.722 -18.456,23.33 -3.003,4.173 -6.964,2.785 -8.705,1.045 -1.741,-1.741 -5.92,-7.312 -5.92,-7.312 -0.862,-2.555 -3.144,-12.298 1.394,-20.198"
       style="fill:#ffffff;fill-opacity:1;fill-rule:nonzero;stroke:none;stroke-width:0.1"
       id="path734" />
    <path
       d="m 737.788,654.464 c 4.7,-8.182 12.187,-11.49 20.196,-14.625 8.009,-3.133 14.624,-2.783 17.062,2.09 2.439,4.873 -2.437,11.491 -5.571,15.67 -3.134,4.178 -13.7,16.722 -18.456,23.33 -3.003,4.173 -6.964,2.785 -8.705,1.045 -1.741,-1.741 -5.92,-7.312 -5.92,-7.312 -0.862,-2.555 -3.144,-12.298 1.394,-20.198 z"
       style="fill:none;stroke:#231f20;stroke-width:0.75;stroke-linecap:round;stroke-linejoin:round;stroke-miterlimit:4;stroke-dasharray:none;stroke-opacity:1"
       id="path736" />
    <path
       d="m 736.743,561.839 c -3.367,-6.73 -11.724,-27.624 -13.58,-33.891 -1.858,-6.268 -1.858,-8.823 -2.09,-14.394 -0.233,-5.571 0.231,-10.446 -5.108,-24.841 -5.339,-14.39 -12.205,-24.059 -15.089,-29.015 -0.633,-1.091 -1.725,-5.076 -3.714,-10.447 -1.334,-3.604 -5.108,-14.393 -9.054,-24.609 C 684.163,414.43 677.779,407.58 669.71,399.28"
       style="fill:none;stroke:#231f20;stroke-width:0.5;stroke-linecap:butt;stroke-linejoin:miter;stroke-miterlimit:4;stroke-dasharray:none;stroke-opacity:1"
       id="path738" />
    <path
       d="m 721.159,515.649 c 0.118,2.304 -0.319,6.727 -3.801,3.245 -3.482,-3.482 -9.582,-16.608 -12.999,-25.306 -3.867,-9.839 -5.341,-15.321 -5.805,-20.196 -0.464,-4.875 -0.464,-16.711 2.322,-13.694"
       style="fill:none;stroke:#231f20;stroke-width:0.5;stroke-linecap:butt;stroke-linejoin:miter;stroke-miterlimit:4;stroke-dasharray:none;stroke-opacity:1"
       id="path740" />
    <path
       d="m 560.894,540.25 c 0.465,-11.606 -3.018,-53.857 -6.733,-70.339"
       style="fill:none;stroke:#231f20;stroke-width:0.25;stroke-linecap:round;stroke-linejoin:round;stroke-miterlimit:4;stroke-dasharray:none;stroke-opacity:1"
       id="path742" />
    <path
       d="m 569.484,540.484 c 0.696,-9.288 1.16,-49.216 -6.501,-71.733"
       style="fill:none;stroke:#231f20;stroke-width:0.25;stroke-linecap:round;stroke-linejoin:round;stroke-miterlimit:4;stroke-dasharray:none;stroke-opacity:1"
       id="path744" />
    <path
       d="m 680.68,498.463 c -6.096,0.322 -12.021,-9.384 -11.606,-16.249 0.464,-7.66 4.409,-9.983 9.516,-9.75 5.109,0.232 9.984,2.322 12.073,8.589 2.089,6.268 2.545,16.752 -9.983,17.41 z"
       style="fill:none;stroke:#231f20;stroke-width:0.5;stroke-linecap:butt;stroke-linejoin:miter;stroke-miterlimit:4;stroke-dasharray:none;stroke-opacity:1"
       id="path746" />
    <path
       d="m 551.376,414.43 c 4.874,-2.554 15.786,-7.661 28.089,0 0,0 8.357,0.462 12.769,-0.697 2.56,-0.674 8.589,-2.554 8.356,-4.644 -0.232,-2.089 -2.784,-4.178 -5.338,-5.802 -2.555,-1.627 -18.571,-10.447 -21.589,-13.233 -3.019,-2.785 -8.822,-8.356 -14.858,-9.053 -6.037,-0.697 -8.822,-0.697 -10.912,6.73 -2.089,7.43 -3.109,12.142 -4.179,16.949 -0.927,4.178 2.09,9.284 7.662,9.75"
       style="fill:none;stroke:#231f20;stroke-width:0.5;stroke-linecap:butt;stroke-linejoin:miter;stroke-miterlimit:4;stroke-dasharray:none;stroke-opacity:1"
       id="path748" />
    <path
       d="m 546.355,393.439 c 8.503,4.042 39.843,14.489 54.235,15.65"
       style="fill:none;stroke:#231f20;stroke-width:0.5;stroke-linecap:butt;stroke-linejoin:miter;stroke-miterlimit:4;stroke-dasharray:none;stroke-opacity:1"
       id="path750" />
    <path
       d="m 558.092,380.922 c -5.09,-2.707 -9.398,-10.979 -0.215,-13.849 7.427,-2.323 23.677,-0.928 34.123,0 10.448,0.927 18.804,1.161 23.912,4.875 5.108,3.713 8.588,6.264 8.125,11.374 -0.464,5.106 -5.338,11.607 -8.589,14.393 -3.25,2.786 -9.198,9.389 -20.91,5.137"
       style="fill:none;stroke:#231f20;stroke-width:0.5;stroke-linecap:butt;stroke-linejoin:miter;stroke-miterlimit:4;stroke-dasharray:none;stroke-opacity:1"
       id="path752" />
    <path
       d="m 708.015,529.398 c -2.09,-6.037 -14.724,-40.461 -16.387,-44.172"
       style="fill:none;stroke:#231f20;stroke-width:0.5;stroke-linecap:butt;stroke-linejoin:miter;stroke-miterlimit:4;stroke-dasharray:none;stroke-opacity:1"
       id="path754" />
    <path
       d="m 688.166,476.562 c -2.147,-4.328 -9.835,-22.102 -10.763,-24.887"
       style="fill:none;stroke:#231f20;stroke-width:0.5;stroke-linecap:butt;stroke-linejoin:miter;stroke-miterlimit:4;stroke-dasharray:none;stroke-opacity:1"
       id="path756" />
    <path
       d="m 680.216,451.803 c 2.089,4.179 13.695,28.787 16.249,34.125 2.555,5.34 4.644,10.215 4.644,13.697 0,3.483 -0.697,9.016 -0.11,10.596"
       style="fill:none;stroke:#231f20;stroke-width:0.5;stroke-linecap:butt;stroke-linejoin:miter;stroke-miterlimit:4;stroke-dasharray:none;stroke-opacity:1"
       id="path758" />
    <path
       d="m 716.546,523.536 c 0,-0.623 -0.501,-1.127 -1.126,-1.127 -0.623,0 -1.126,0.504 -1.126,1.127 0,0.623 0.503,1.126 1.126,1.126 0.625,0 1.126,-0.503 1.126,-1.126"
       style="fill:#231f20;fill-opacity:1;fill-rule:nonzero;stroke:none;stroke-width:0.1"
       id="path760" />
    <path
       d="m 708.967,524.465 c 0,-0.623 -0.501,-1.126 -1.127,-1.126 -0.622,0 -1.126,0.503 -1.126,1.126 0,0.623 0.504,1.127 1.126,1.127 0.626,0 1.127,-0.504 1.127,-1.127"
       style="fill:#231f20;fill-opacity:1;fill-rule:nonzero;stroke:none;stroke-width:0.1"
       id="path762" />
    <path
       d="m 708.038,521.912 c 0,-0.623 -0.5,-1.127 -1.126,-1.127 -0.623,0 -1.126,0.504 -1.126,1.127 0,0.622 0.503,1.126 1.126,1.126 0.626,0 1.126,-0.504 1.126,-1.126"
       style="fill:#231f20;fill-opacity:1;fill-rule:nonzero;stroke:none;stroke-width:0.1"
       id="path764" />
    <path
       d="m 624.235,626.573 c 0,-0.623 -0.5,-1.126 -1.126,-1.126 -0.623,0 -1.126,0.503 -1.126,1.126 0,0.623 0.503,1.126 1.126,1.126 0.626,0 1.126,-0.503 1.126,-1.126"
       style="fill:#231f20;fill-opacity:1;fill-rule:nonzero;stroke:none;stroke-width:0.1"
       id="path766" />
    <path
       d="m 622.146,617.055 c 0,-0.623 -0.501,-1.126 -1.126,-1.126 -0.623,0 -1.127,0.503 -1.127,1.126 0,0.623 0.504,1.127 1.127,1.127 0.625,0 1.126,-0.504 1.126,-1.127"
       style="fill:#231f20;fill-opacity:1;fill-rule:nonzero;stroke:none;stroke-width:0.1"
       id="path768" />
    <path
       d="m 622.61,611.715 c 0,-0.623 -0.501,-1.126 -1.126,-1.126 -0.623,0 -1.127,0.503 -1.127,1.126 0,0.623 0.504,1.126 1.127,1.126 0.625,0 1.126,-0.503 1.126,-1.126"
       style="fill:#231f20;fill-opacity:1;fill-rule:nonzero;stroke:none;stroke-width:0.1"
       id="path770" />
    <path
       d="m 617.967,603.59 c 0,-0.623 -0.501,-1.126 -1.126,-1.126 -0.623,0 -1.127,0.503 -1.127,1.126 0,0.623 0.504,1.127 1.127,1.127 0.625,0 1.126,-0.504 1.126,-1.127"
       style="fill:#231f20;fill-opacity:1;fill-rule:nonzero;stroke:none;stroke-width:0.1"
       id="path772" />
    <path
       d="m 616.342,598.715 c 0,-0.623 -0.501,-1.126 -1.127,-1.126 -0.623,0 -1.126,0.503 -1.126,1.126 0,0.623 0.503,1.127 1.126,1.127 0.626,0 1.127,-0.504 1.127,-1.127"
       style="fill:#231f20;fill-opacity:1;fill-rule:nonzero;stroke:none;stroke-width:0.1"
       id="path774" />
    <path
       d="m 620.984,605.216 c 0,-0.623 -0.5,-1.126 -1.126,-1.126 -0.623,0 -1.126,0.503 -1.126,1.126 0,0.623 0.503,1.126 1.126,1.126 0.626,0 1.126,-0.503 1.126,-1.126"
       style="fill:#231f20;fill-opacity:1;fill-rule:nonzero;stroke:none;stroke-width:0.1"
       id="path776" />
    <path
       d="m 619.824,609.163 c 0,-0.623 -0.5,-1.127 -1.126,-1.127 -0.623,0 -1.126,0.504 -1.126,1.127 0,0.622 0.503,1.126 1.126,1.126 0.626,0 1.126,-0.504 1.126,-1.126"
       style="fill:#231f20;fill-opacity:1;fill-rule:nonzero;stroke:none;stroke-width:0.1"
       id="path778" />
    <path
       d="m 623.306,620.073 c 0,-0.623 -0.501,-1.127 -1.126,-1.127 -0.623,0 -1.127,0.504 -1.127,1.127 0,0.623 0.504,1.126 1.127,1.126 0.625,0 1.126,-0.503 1.126,-1.126"
       style="fill:#231f20;fill-opacity:1;fill-rule:nonzero;stroke:none;stroke-width:0.1"
       id="path780" />
    <path
       d="m 619.591,624.02 c 0,-0.623 -0.5,-1.127 -1.126,-1.127 -0.623,0 -1.126,0.504 -1.126,1.127 0,0.623 0.503,1.126 1.126,1.126 0.626,0 1.126,-0.503 1.126,-1.126"
       style="fill:#231f20;fill-opacity:1;fill-rule:nonzero;stroke:none;stroke-width:0.1"
       id="path782" />
    <path
       d="m 621.217,629.359 c 0,-0.623 -0.501,-1.127 -1.127,-1.127 -0.623,0 -1.126,0.504 -1.126,1.127 0,0.623 0.503,1.126 1.126,1.126 0.626,0 1.127,-0.503 1.127,-1.126"
       style="fill:#231f20;fill-opacity:1;fill-rule:nonzero;stroke:none;stroke-width:0.1"
       id="path784" />
    <path
       d="m 624.931,622.394 c 0,-0.623 -0.5,-1.126 -1.126,-1.126 -0.623,0 -1.126,0.503 -1.126,1.126 0,0.623 0.503,1.127 1.126,1.127 0.626,0 1.126,-0.504 1.126,-1.127"
       style="fill:#231f20;fill-opacity:1;fill-rule:nonzero;stroke:none;stroke-width:0.1"
       id="path786" />
    <path
       d="m 544.645,563.232 c -1.499,-0.745 -3.147,-5.186 0.696,-9.285 3.483,-3.713 8.589,-3.713 12.536,-1.624 4.499,2.381 15.167,7.544 21.125,11.142 4.967,2.998 11.606,9.75 11.142,10.909 -0.464,1.163 -6.268,-1.392 -10.446,-3.482 -4.179,-2.089 -14.16,-7.427 -17.642,-8.819 -3.482,-1.393 -7.43,-2.092 -9.519,-0.465 -2.089,1.624 -3.249,3.934 -7.892,1.624 z"
       style="fill:none;stroke:#231f20;stroke-width:0.5;stroke-linecap:butt;stroke-linejoin:miter;stroke-miterlimit:4;stroke-dasharray:none;stroke-opacity:1"
       id="path788" />
    <path
       d="m 614.522,652.457 c 0.45,3.292 0.28,7.355 -0.932,12.686 -1.661,7.308 -7.841,20.433 -11.466,25.073"
       style="fill:none;stroke:#231f20;stroke-width:0.75;stroke-linecap:round;stroke-linejoin:round;stroke-miterlimit:4;stroke-dasharray:none;stroke-opacity:1"
       id="path790" />
    <path
       d="m 613.59,665.143 c 2.786,-4.875 7.66,-17.872 7.66,-28.087 0,-10.217 0.234,-14.859 -2.785,-25.074 -2.384,-8.067 -4.178,-11.606 -6.035,-15.321 -1.857,-3.714 -11.84,-16.715 -22.286,-22.287"
       style="fill:none;stroke:#231f20;stroke-width:0.5;stroke-linecap:butt;stroke-linejoin:miter;stroke-miterlimit:4;stroke-dasharray:none;stroke-opacity:1"
       id="path792" />
    <path
       d="m 621.184,639.14 c 1.692,-3.711 6.104,-11.837 3.318,-24.14 -2.786,-12.303 -4.191,-15.097 -9.995,-21.365"
       style="fill:none;stroke:#231f20;stroke-width:0.5;stroke-linecap:butt;stroke-linejoin:miter;stroke-miterlimit:4;stroke-dasharray:none;stroke-opacity:1"
       id="path794" />
    <path
       d="m 612.43,596.661 c 2.089,-3.25 7.893,-10.91 9.054,-12.768"
       style="fill:none;stroke:#231f20;stroke-width:0.5;stroke-linecap:butt;stroke-linejoin:miter;stroke-miterlimit:4;stroke-dasharray:none;stroke-opacity:1"
       id="path796" />
    <path
       d="m 621.484,583.893 c 0.929,1.16 3.481,-0.232 6.964,-2.554 3.482,-2.321 20.697,-10.653 26.465,-11.605 6.068,-1.004 12.614,-2.171 19.266,-5.806 7.278,-3.974 12.748,-6.956 16.231,-10.207"
       style="fill:none;stroke:#231f20;stroke-width:0.5;stroke-linecap:butt;stroke-linejoin:miter;stroke-miterlimit:4;stroke-dasharray:none;stroke-opacity:1"
       id="path798" />
    <path
       d="m 690.892,555.062 c -0.696,6.269 -4.64,13.51 -8.355,18.153 -3.715,4.645 -19.268,13.464 -26.464,17.643 -7.197,4.179 -20.428,14.856 -25.073,18.338 -4.643,3.482 -6.714,4.859 -6.195,7.275"
       style="fill:none;stroke:#231f20;stroke-width:0.5;stroke-linecap:butt;stroke-linejoin:miter;stroke-miterlimit:4;stroke-dasharray:none;stroke-opacity:1"
       id="path800" />
    <path
       d="m 389.11,555.062 c 0.696,6.269 4.64,13.51 8.355,18.153 3.715,4.645 19.268,13.464 26.465,17.643 7.196,4.179 20.428,14.856 25.071,18.338 4.644,3.482 6.716,4.859 6.196,7.275"
       style="fill:none;stroke:#231f20;stroke-width:0.5;stroke-linecap:butt;stroke-linejoin:miter;stroke-miterlimit:4;stroke-dasharray:none;stroke-opacity:1"
       id="path802" />
    <path
       d="m 699.716,566.251 c 0.6,2.525 5.01,4.83 11.839,2.552 5.572,-1.855 8.358,-6.962 9.054,-10.909 0.696,-3.947 2.09,-11.607 1.16,-17.18 -0.929,-5.571 -2.321,-12.303 -4.178,-12.07 -1.857,0.231 -4.642,3.248 -4.876,10.678 -0.232,7.429 0.002,10.216 -3.945,14.393 -3.947,4.179 -10.097,8.146 -9.054,12.536 z"
       style="fill:none;stroke:#231f20;stroke-width:0.5;stroke-linecap:butt;stroke-linejoin:miter;stroke-miterlimit:4;stroke-dasharray:none;stroke-opacity:1"
       id="path804" />
    <path
       d="m 551.12,761.343 c 0.373,5.944 1.069,18.131 -1.021,19.524 -2.089,1.392 -8.705,-1.045 -10.097,-1.393"
       style="fill:none;stroke:#231f20;stroke-width:0.5;stroke-linecap:butt;stroke-linejoin:miter;stroke-miterlimit:4;stroke-dasharray:none;stroke-opacity:1"
       id="path806" />
    <path
       d="m 614.522,652.457 c -0.932,-6.814 -8.127,-10.296 -15.092,-12.849 -6.964,-2.553 -23.926,-2.552 -30.875,-2.552 -6.949,0 -23.23,0 -28.553,0 -5.325,0 -21.605,0 -28.554,0 -6.949,0 -23.911,-0.001 -30.876,2.552 -6.964,2.553 -14.159,6.035 -15.092,12.849 -1.157,-6.349 -0.693,-16.796 4.878,-18.653 5.571,-1.857 10.68,-1.161 14.857,-1.393 3.135,-0.174 6.53,-1.001 9.5,-1.012 5.345,-0.499 11.858,-2.703 16.036,-5.256 4.179,-2.553 9.982,-7.893 15.09,-12.536 5.107,-4.642 11.143,-6.035 14.161,-6.035 3.016,0 9.053,1.393 14.159,6.035 5.109,4.643 10.912,9.983 15.091,12.536 4.178,2.553 10.691,4.757 16.035,5.256 2.97,0.011 6.366,0.838 9.5,1.012 4.178,0.232 9.286,-0.464 14.857,1.393 5.571,1.857 6.035,12.304 4.878,18.653"
       style="fill:#706d6e;fill-opacity:1;fill-rule:nonzero;stroke:none;stroke-width:0.1"
       id="path808" />
    <path
       d="m 614.522,652.457 c -0.932,-6.814 -8.127,-10.296 -15.092,-12.849 -6.964,-2.553 -23.926,-2.552 -30.875,-2.552 -6.949,0 -23.23,0 -28.553,0 -5.325,0 -21.605,0 -28.554,0 -6.949,0 -23.911,-0.001 -30.876,2.552 -6.964,2.553 -14.159,6.035 -15.092,12.849 -1.157,-6.349 -0.693,-16.796 4.878,-18.653 5.571,-1.857 10.68,-1.161 14.857,-1.393 3.135,-0.174 6.53,-1.001 9.5,-1.012 5.345,-0.499 11.858,-2.703 16.036,-5.256 4.179,-2.553 9.982,-7.893 15.09,-12.536 5.107,-4.642 11.143,-6.035 14.161,-6.035 3.016,0 9.053,1.393 14.159,6.035 5.109,4.643 10.912,9.983 15.091,12.536 4.178,2.553 10.691,4.757 16.035,5.256 2.97,0.011 6.366,0.838 9.5,1.012 4.178,0.232 9.286,-0.464 14.857,1.393 5.571,1.857 6.035,12.304 4.878,18.653 z"
       style="fill:none;stroke:#231f20;stroke-width:0.75;stroke-linecap:round;stroke-linejoin:round;stroke-miterlimit:4;stroke-dasharray:none;stroke-opacity:1"
       id="path810" />
    <path
       d="m 304.899,510.676 c 1.378,-17.577 10.532,-43.554 38.085,-79.66"
       style="fill:none;stroke:#231f20;stroke-width:0.5;stroke-linecap:butt;stroke-linejoin:miter;stroke-miterlimit:4;stroke-dasharray:none;stroke-opacity:1"
       id="path812" />
    <path
       d="m 311.92,539.553 c 6.964,-11.491 24.839,-40.069 37.259,-60.59 16.018,-26.463 31.266,-57.31 37.571,-70.614"
       style="fill:none;stroke:#231f20;stroke-width:0.5;stroke-linecap:butt;stroke-linejoin:miter;stroke-miterlimit:4;stroke-dasharray:none;stroke-opacity:1"
       id="path814" />
    <path
       d="m 342.269,694.179 c 34.305,-40.27 57.401,-42.152 75.509,-39.366 18.107,2.786 39.696,19.849 50.491,28.205 10.795,8.357 18.455,12.885 26.116,21.938 7.66,9.053 18.108,27.161 19.848,33.777 1.741,6.616 6.965,14.276 10.795,18.455 3.83,4.179 10.098,10.795 11.491,12.187 1.393,1.394 2.089,3.483 2.089,5.572 0,2.09 -0.348,4.527 1.394,4.527 1.741,0 1.392,-2.437 1.392,-4.527 0,-2.089 0.696,-4.178 2.089,-5.572 1.393,-1.392 7.661,-8.008 11.491,-12.187 3.831,-4.179 9.054,-11.839 10.795,-18.455 1.741,-6.616 12.188,-24.724 19.849,-33.777 7.66,-9.053 15.321,-13.581 26.116,-21.938 10.794,-8.356 32.384,-25.419 50.491,-28.205 18.107,-2.786 41.203,-0.904 75.508,39.366"
       style="fill:none;stroke:#231f20;stroke-width:0.5;stroke-linecap:butt;stroke-linejoin:miter;stroke-miterlimit:4;stroke-dasharray:none;stroke-opacity:1"
       id="path816" />
    <path
       d="m 495.76,706.64 c 16.232,5.299 39.366,4.242 44.242,4.242 4.874,0 28.008,1.057 44.24,-4.242"
       style="fill:none;stroke:#231f20;stroke-width:0.5;stroke-linecap:butt;stroke-linejoin:miter;stroke-miterlimit:4;stroke-dasharray:none;stroke-opacity:1"
       id="path818" />
    <path
       d="m 342.215,654.464 c -4.701,-8.182 -12.187,-11.49 -20.196,-14.625 -8.01,-3.133 -14.624,-2.783 -17.062,2.09 -2.44,4.873 2.437,11.491 5.571,15.67 3.134,4.178 13.7,16.722 18.455,23.33 3.003,4.173 6.964,2.785 8.705,1.045 1.741,-1.741 5.92,-7.312 5.92,-7.312 0.862,-2.555 3.144,-12.298 -1.393,-20.198"
       style="fill:#ffffff;fill-opacity:1;fill-rule:nonzero;stroke:none;stroke-width:0.1"
       id="path820" />
    <path
       d="m 342.215,654.464 c -4.701,-8.182 -12.187,-11.49 -20.196,-14.625 -8.01,-3.133 -14.624,-2.783 -17.062,2.09 -2.44,4.873 2.437,11.491 5.571,15.67 3.134,4.178 13.7,16.722 18.455,23.33 3.003,4.173 6.964,2.785 8.705,1.045 1.741,-1.741 5.92,-7.312 5.92,-7.312 0.862,-2.555 3.144,-12.298 -1.393,-20.198 z"
       style="fill:none;stroke:#231f20;stroke-width:0.75;stroke-linecap:round;stroke-linejoin:round;stroke-miterlimit:4;stroke-dasharray:none;stroke-opacity:1"
       id="path822" />
    <path
       d="m 343.259,561.839 c 3.367,-6.73 11.725,-27.624 13.581,-33.891 1.857,-6.268 1.857,-8.823 2.089,-14.394 0.233,-5.571 -0.231,-10.446 5.108,-24.841 5.339,-14.39 12.206,-24.059 15.089,-29.015 0.633,-1.091 1.726,-5.076 3.714,-10.447 1.335,-3.604 5.108,-14.393 9.054,-24.609 3.946,-10.212 10.33,-17.062 18.398,-25.362"
       style="fill:none;stroke:#231f20;stroke-width:0.5;stroke-linecap:butt;stroke-linejoin:miter;stroke-miterlimit:4;stroke-dasharray:none;stroke-opacity:1"
       id="path824" />
    <path
       d="m 358.843,515.649 c -0.118,2.304 0.319,6.727 3.801,3.245 3.482,-3.482 9.583,-16.608 13,-25.306 3.867,-9.839 5.34,-15.321 5.804,-20.196 0.464,-4.875 0.464,-16.711 -2.322,-13.694"
       style="fill:none;stroke:#231f20;stroke-width:0.5;stroke-linecap:butt;stroke-linejoin:miter;stroke-miterlimit:4;stroke-dasharray:none;stroke-opacity:1"
       id="path826" />
    <path
       d="m 519.108,540.25 c -0.464,-11.606 3.018,-53.857 6.733,-70.339"
       style="fill:none;stroke:#231f20;stroke-width:0.25;stroke-linecap:round;stroke-linejoin:round;stroke-miterlimit:4;stroke-dasharray:none;stroke-opacity:1"
       id="path828" />
    <path
       d="m 510.518,540.484 c -0.696,-9.288 -1.16,-49.216 6.501,-71.733"
       style="fill:none;stroke:#231f20;stroke-width:0.25;stroke-linecap:round;stroke-linejoin:round;stroke-miterlimit:4;stroke-dasharray:none;stroke-opacity:1"
       id="path830" />
    <path
       d="m 399.323,498.463 c 6.095,0.322 12.021,-9.384 11.606,-16.249 -0.464,-7.66 -4.41,-9.983 -9.517,-9.75 -5.108,0.232 -9.983,2.322 -12.073,8.589 -2.089,6.268 -2.545,16.752 9.984,17.41 z"
       style="fill:none;stroke:#231f20;stroke-width:0.5;stroke-linecap:butt;stroke-linejoin:miter;stroke-miterlimit:4;stroke-dasharray:none;stroke-opacity:1"
       id="path832" />
    <path
       d="m 528.627,414.43 c -4.876,-2.554 -15.787,-7.661 -28.089,0 0,0 -8.358,0.462 -12.769,-0.697 -2.559,-0.674 -8.59,-2.554 -8.357,-4.644 0.232,-2.089 2.784,-4.178 5.338,-5.802 2.555,-1.627 18.572,-10.447 21.59,-13.233 3.018,-2.785 8.822,-8.356 14.858,-9.053 6.036,-0.697 8.822,-0.697 10.911,6.73 2.09,7.43 3.109,12.142 4.179,16.949 0.927,4.178 -2.089,9.284 -7.661,9.75"
       style="fill:none;stroke:#231f20;stroke-width:0.5;stroke-linecap:butt;stroke-linejoin:miter;stroke-miterlimit:4;stroke-dasharray:none;stroke-opacity:1"
       id="path834" />
    <path
       d="m 533.648,393.439 c -8.504,4.042 -39.844,14.489 -54.236,15.65"
       style="fill:none;stroke:#231f20;stroke-width:0.5;stroke-linecap:butt;stroke-linejoin:miter;stroke-miterlimit:4;stroke-dasharray:none;stroke-opacity:1"
       id="path836" />
    <path
       d="m 521.911,380.922 c 5.089,-2.707 9.397,-10.979 0.215,-13.849 -7.428,-2.323 -23.678,-0.928 -34.125,0 -10.446,0.927 -18.803,1.161 -23.911,4.875 -5.107,3.713 -8.589,6.264 -8.125,11.374 0.464,5.106 5.338,11.607 8.589,14.393 3.251,2.786 9.199,9.389 20.91,5.137"
       style="fill:none;stroke:#231f20;stroke-width:0.5;stroke-linecap:butt;stroke-linejoin:miter;stroke-miterlimit:4;stroke-dasharray:none;stroke-opacity:1"
       id="path838" />
    <path
       d="m 371.988,529.398 c 2.089,-6.037 14.723,-40.461 16.386,-44.172"
       style="fill:none;stroke:#231f20;stroke-width:0.5;stroke-linecap:butt;stroke-linejoin:miter;stroke-miterlimit:4;stroke-dasharray:none;stroke-opacity:1"
       id="path840" />
    <path
       d="m 391.835,476.562 c 2.149,-4.328 9.836,-22.102 10.764,-24.887"
       style="fill:none;stroke:#231f20;stroke-width:0.5;stroke-linecap:butt;stroke-linejoin:miter;stroke-miterlimit:4;stroke-dasharray:none;stroke-opacity:1"
       id="path842" />
    <path
       d="m 399.787,451.803 c -2.09,4.179 -13.696,28.787 -16.25,34.125 -2.554,5.34 -4.644,10.215 -4.644,13.697 0,3.483 0.698,9.016 0.11,10.596"
       style="fill:none;stroke:#231f20;stroke-width:0.5;stroke-linecap:butt;stroke-linejoin:miter;stroke-miterlimit:4;stroke-dasharray:none;stroke-opacity:1"
       id="path844" />
    <path
       d="m 363.457,523.536 c 0,-0.623 0.5,-1.127 1.126,-1.127 0.623,0 1.125,0.504 1.125,1.127 0,0.623 -0.502,1.126 -1.125,1.126 -0.626,0 -1.126,-0.503 -1.126,-1.126"
       style="fill:#231f20;fill-opacity:1;fill-rule:nonzero;stroke:none;stroke-width:0.1"
       id="path846" />
    <path
       d="m 371.036,524.465 c 0,-0.623 0.5,-1.126 1.126,-1.126 0.623,0 1.126,0.503 1.126,1.126 0,0.623 -0.503,1.127 -1.126,1.127 -0.626,0 -1.126,-0.504 -1.126,-1.127"
       style="fill:#231f20;fill-opacity:1;fill-rule:nonzero;stroke:none;stroke-width:0.1"
       id="path848" />
    <path
       d="m 371.964,521.912 c 0,-0.623 0.501,-1.127 1.126,-1.127 0.623,0 1.127,0.504 1.127,1.127 0,0.622 -0.504,1.126 -1.127,1.126 -0.625,0 -1.126,-0.504 -1.126,-1.126"
       style="fill:#231f20;fill-opacity:1;fill-rule:nonzero;stroke:none;stroke-width:0.1"
       id="path850" />
    <path
       d="m 455.767,626.573 c 0,-0.623 0.501,-1.126 1.126,-1.126 0.623,0 1.127,0.503 1.127,1.126 0,0.623 -0.504,1.126 -1.127,1.126 -0.625,0 -1.126,-0.503 -1.126,-1.126"
       style="fill:#231f20;fill-opacity:1;fill-rule:nonzero;stroke:none;stroke-width:0.1"
       id="path852" />
    <path
       d="m 457.857,617.055 c 0,-0.623 0.5,-1.126 1.126,-1.126 0.623,0 1.126,0.503 1.126,1.126 0,0.623 -0.503,1.127 -1.126,1.127 -0.626,0 -1.126,-0.504 -1.126,-1.127"
       style="fill:#231f20;fill-opacity:1;fill-rule:nonzero;stroke:none;stroke-width:0.1"
       id="path854" />
    <path
       d="m 457.393,611.715 c 0,-0.623 0.5,-1.126 1.126,-1.126 0.623,0 1.126,0.503 1.126,1.126 0,0.623 -0.503,1.126 -1.126,1.126 -0.626,0 -1.126,-0.503 -1.126,-1.126"
       style="fill:#231f20;fill-opacity:1;fill-rule:nonzero;stroke:none;stroke-width:0.1"
       id="path856" />
    <path
       d="m 462.035,603.59 c 0,-0.623 0.501,-1.126 1.127,-1.126 0.623,0 1.126,0.503 1.126,1.126 0,0.623 -0.503,1.127 -1.126,1.127 -0.626,0 -1.127,-0.504 -1.127,-1.127"
       style="fill:#231f20;fill-opacity:1;fill-rule:nonzero;stroke:none;stroke-width:0.1"
       id="path858" />
    <path
       d="m 463.661,598.715 c 0,-0.623 0.5,-1.126 1.126,-1.126 0.623,0 1.126,0.503 1.126,1.126 0,0.623 -0.503,1.127 -1.126,1.127 -0.626,0 -1.126,-0.504 -1.126,-1.127"
       style="fill:#231f20;fill-opacity:1;fill-rule:nonzero;stroke:none;stroke-width:0.1"
       id="path860" />
    <path
       d="m 459.018,605.216 c 0,-0.623 0.501,-1.126 1.126,-1.126 0.623,0 1.127,0.503 1.127,1.126 0,0.623 -0.504,1.126 -1.127,1.126 -0.625,0 -1.126,-0.503 -1.126,-1.126"
       style="fill:#231f20;fill-opacity:1;fill-rule:nonzero;stroke:none;stroke-width:0.1"
       id="path862" />
    <path
       d="m 460.178,609.163 c 0,-0.623 0.501,-1.127 1.126,-1.127 0.623,0 1.127,0.504 1.127,1.127 0,0.622 -0.504,1.126 -1.127,1.126 -0.625,0 -1.126,-0.504 -1.126,-1.126"
       style="fill:#231f20;fill-opacity:1;fill-rule:nonzero;stroke:none;stroke-width:0.1"
       id="path864" />
    <path
       d="m 456.696,620.073 c 0,-0.623 0.501,-1.127 1.127,-1.127 0.623,0 1.126,0.504 1.126,1.127 0,0.623 -0.503,1.126 -1.126,1.126 -0.626,0 -1.127,-0.503 -1.127,-1.126"
       style="fill:#231f20;fill-opacity:1;fill-rule:nonzero;stroke:none;stroke-width:0.1"
       id="path866" />
    <path
       d="m 460.411,624.02 c 0,-0.623 0.501,-1.127 1.127,-1.127 0.623,0 1.126,0.504 1.126,1.127 0,0.623 -0.503,1.126 -1.126,1.126 -0.626,0 -1.127,-0.503 -1.127,-1.126"
       style="fill:#231f20;fill-opacity:1;fill-rule:nonzero;stroke:none;stroke-width:0.1"
       id="path868" />
    <path
       d="m 458.786,629.359 c 0,-0.623 0.5,-1.127 1.126,-1.127 0.623,0 1.126,0.504 1.126,1.127 0,0.623 -0.503,1.126 -1.126,1.126 -0.626,0 -1.126,-0.503 -1.126,-1.126"
       style="fill:#231f20;fill-opacity:1;fill-rule:nonzero;stroke:none;stroke-width:0.1"
       id="path870" />
    <path
       d="m 455.071,622.394 c 0,-0.623 0.501,-1.126 1.126,-1.126 0.623,0 1.127,0.503 1.127,1.126 0,0.623 -0.504,1.127 -1.127,1.127 -0.625,0 -1.126,-0.504 -1.126,-1.127"
       style="fill:#231f20;fill-opacity:1;fill-rule:nonzero;stroke:none;stroke-width:0.1"
       id="path872" />
    <path
       d="m 535.357,563.232 c 1.499,-0.745 3.148,-5.186 -0.696,-9.285 -3.482,-3.713 -8.588,-3.713 -12.535,-1.624 -4.5,2.381 -15.168,7.544 -21.125,11.142 -4.967,2.998 -11.607,9.75 -11.143,10.909 0.464,1.163 6.268,-1.392 10.446,-3.482 4.179,-2.089 14.161,-7.427 17.644,-8.819 3.481,-1.393 7.428,-2.092 9.517,-0.465 2.09,1.624 3.25,3.934 7.892,1.624 z"
       style="fill:none;stroke:#231f20;stroke-width:0.5;stroke-linecap:butt;stroke-linejoin:miter;stroke-miterlimit:4;stroke-dasharray:none;stroke-opacity:1"
       id="path874" />
    <path
       d="m 465.48,652.457 c -0.45,3.292 -0.279,7.355 0.933,12.686 1.66,7.308 7.84,20.433 11.464,25.073"
       style="fill:none;stroke:#231f20;stroke-width:0.75;stroke-linecap:round;stroke-linejoin:round;stroke-miterlimit:4;stroke-dasharray:none;stroke-opacity:1"
       id="path876" />
    <path
       d="m 466.413,665.143 c -2.787,-4.875 -7.662,-17.872 -7.662,-28.087 0,-10.217 -0.232,-14.859 2.787,-25.074 2.383,-8.067 4.177,-11.606 6.035,-15.321 1.856,-3.714 11.839,-16.715 22.285,-22.287"
       style="fill:none;stroke:#231f20;stroke-width:0.5;stroke-linecap:butt;stroke-linejoin:miter;stroke-miterlimit:4;stroke-dasharray:none;stroke-opacity:1"
       id="path878" />
    <path
       d="m 458.818,639.14 c -1.692,-3.711 -6.104,-11.837 -3.318,-24.14 2.787,-12.303 4.191,-15.097 9.996,-21.365"
       style="fill:none;stroke:#231f20;stroke-width:0.5;stroke-linecap:butt;stroke-linejoin:miter;stroke-miterlimit:4;stroke-dasharray:none;stroke-opacity:1"
       id="path880" />
    <path
       d="m 467.573,596.661 c -2.09,-3.25 -7.894,-10.91 -9.054,-12.768"
       style="fill:none;stroke:#231f20;stroke-width:0.5;stroke-linecap:butt;stroke-linejoin:miter;stroke-miterlimit:4;stroke-dasharray:none;stroke-opacity:1"
       id="path882" />
    <path
       d="m 458.519,583.893 c -0.929,1.16 -3.482,-0.232 -6.965,-2.554 -3.481,-2.321 -20.696,-10.653 -26.464,-11.605 -6.069,-1.004 -12.614,-2.171 -19.267,-5.806 -7.278,-3.974 -12.748,-6.956 -16.231,-10.207"
       style="fill:none;stroke:#231f20;stroke-width:0.5;stroke-linecap:butt;stroke-linejoin:miter;stroke-miterlimit:4;stroke-dasharray:none;stroke-opacity:1"
       id="path884" />
    <path
       d="m 380.286,566.251 c -0.6,2.525 -5.009,4.83 -11.839,2.552 -5.571,-1.855 -8.358,-6.962 -9.054,-10.909 -0.696,-3.947 -2.089,-11.607 -1.16,-17.18 0.929,-5.571 2.322,-12.303 4.179,-12.07 1.856,0.231 4.642,3.248 4.875,10.678 0.232,7.429 -10e-4,10.216 3.946,14.393 3.947,4.179 10.097,8.146 9.053,12.536 z"
       style="fill:none;stroke:#231f20;stroke-width:0.5;stroke-linecap:butt;stroke-linejoin:miter;stroke-miterlimit:4;stroke-dasharray:none;stroke-opacity:1"
       id="path886" />
    <path
       d="m 528.882,761.343 c -0.372,5.944 -1.068,18.131 1.021,19.524 2.09,1.392 8.705,-1.045 10.099,-1.393"
       style="fill:none;stroke:#231f20;stroke-width:0.5;stroke-linecap:butt;stroke-linejoin:miter;stroke-miterlimit:4;stroke-dasharray:none;stroke-opacity:1"
       id="path888" />
    <path
       d="m 599.43,639.608 c -6.964,-2.553 -23.926,-2.552 -30.875,-2.552 -6.949,0 -23.23,0 -28.553,0 -5.325,0 -21.605,0 -28.554,0 -6.949,0 -23.911,-0.001 -30.876,2.552 -3.598,0.231 -2.205,-2.552 0.232,-4.47 1.946,-1.529 6.448,-2.915 9.718,-3.364 3.27,-0.448 10.305,1.1 13.265,1.623 2.96,0.522 10.795,0.349 15.147,-0.174 4.353,-0.522 17.411,-0.871 21.068,-0.871 3.656,0 16.713,0.349 21.066,0.871 4.352,0.523 12.187,0.696 15.147,0.174 2.96,-0.523 9.995,-2.071 13.265,-1.623 3.27,0.449 7.772,1.835 9.718,3.364 2.437,1.918 3.83,4.701 0.232,4.47"
       style="fill:#ffffff;fill-opacity:1;fill-rule:nonzero;stroke:none;stroke-width:0.1"
       id="path890" />
    <path
       d="m 599.43,639.608 c -6.964,-2.553 -23.926,-2.552 -30.875,-2.552 -6.949,0 -23.23,0 -28.553,0 -5.325,0 -21.605,0 -28.554,0 -6.949,0 -23.911,-0.001 -30.876,2.552 -3.598,0.231 -2.205,-2.552 0.232,-4.47 1.946,-1.529 6.448,-2.915 9.718,-3.364 3.27,-0.448 10.305,1.1 13.265,1.623 2.96,0.522 10.795,0.349 15.147,-0.174 4.353,-0.522 17.411,-0.871 21.068,-0.871 3.656,0 16.713,0.349 21.066,0.871 4.352,0.523 12.187,0.696 15.147,0.174 2.96,-0.523 9.995,-2.071 13.265,-1.623 3.27,0.449 7.772,1.835 9.718,3.364 2.437,1.918 3.83,4.701 0.232,4.47 z"
       style="fill:none;stroke:#231f20;stroke-width:0.5;stroke-linecap:butt;stroke-linejoin:miter;stroke-miterlimit:4;stroke-dasharray:none;stroke-opacity:1"
       id="path892" />
    <path
       d="m 557.877,710.748 v 0 c 0.002,-0.001 0.005,-0.001 0.008,-0.001 -0.003,0 -0.006,0.001 -0.008,0.001"
       style="fill:#706d6e;fill-opacity:1;fill-rule:nonzero;stroke:none;stroke-width:0.1"
       id="path894" />
    <path
       d="m 557.877,710.748 v 0 c 0.002,-0.001 0.005,-0.001 0.008,-0.001 -0.003,0 -0.006,0.001 -0.008,0.001 z"
       style="fill:none;stroke:#231f20;stroke-width:0.75;stroke-linecap:round;stroke-linejoin:round;stroke-miterlimit:4;stroke-dasharray:none;stroke-opacity:1"
       id="path896" />
    <path
       d="m 522.123,710.747 c 10e-4,0.001 0.002,0 0.003,0.001 0,0 -0.002,0 -0.003,-0.001"
       style="fill:#706d6e;fill-opacity:1;fill-rule:nonzero;stroke:none;stroke-width:0.1"
       id="path898" />
    <path
       d="m 522.123,710.747 c 10e-4,0.001 0.002,0 0.003,0.001 0,0 -0.002,0 -0.003,-0.001 z"
       style="fill:none;stroke:#231f20;stroke-width:0.75;stroke-linecap:round;stroke-linejoin:round;stroke-miterlimit:4;stroke-dasharray:none;stroke-opacity:1"
       id="path900" />
    <path
       d="m 565.769,738.733 c -1.741,6.616 -6.964,14.276 -10.795,18.455 -3.83,4.179 -10.098,10.795 -11.491,12.187 -1.393,1.394 -2.089,3.483 -2.089,5.572 0,2.09 0.349,4.527 -1.392,4.527 -1.742,0 -1.394,-2.437 -1.394,-4.527 0,-2.089 -0.696,-4.178 -2.089,-5.572 -1.393,-1.392 -7.661,-8.008 -11.491,-12.187 -3.83,-4.179 -9.054,-11.839 -10.795,-18.455 -1.639,-6.23 -10.992,-22.637 -18.475,-32.093 h 0.002 c 7.85,2.563 17.314,3.639 25.546,4.067 -2.98,0.074 -7.96,2.44 -7.537,11.311 0.466,9.75 18.107,9.642 26.233,9.642 8.125,0 25.766,0.108 26.231,-9.642 0.443,-9.287 -5.022,-11.328 -7.939,-11.291 8.324,-0.414 17.97,-1.483 25.948,-4.087 h 0.003 c -7.483,9.455 -16.837,25.863 -18.476,32.093"
       style="fill:#706d6e;fill-opacity:1;fill-rule:nonzero;stroke:none;stroke-width:0.1"
       id="path902" />
    <path
       d="m 565.769,738.733 c -1.741,6.616 -6.964,14.276 -10.795,18.455 -3.83,4.179 -10.098,10.795 -11.491,12.187 -1.393,1.394 -2.089,3.483 -2.089,5.572 0,2.09 0.349,4.527 -1.392,4.527 -1.742,0 -1.394,-2.437 -1.394,-4.527 0,-2.089 -0.696,-4.178 -2.089,-5.572 -1.393,-1.392 -7.661,-8.008 -11.491,-12.187 -3.83,-4.179 -9.054,-11.839 -10.795,-18.455 -1.639,-6.23 -10.992,-22.637 -18.475,-32.093 h 0.002 c 7.85,2.563 17.314,3.639 25.546,4.067 -2.98,0.074 -7.96,2.44 -7.537,11.311 0.466,9.75 18.107,9.642 26.233,9.642 8.125,0 25.766,0.108 26.231,-9.642 0.443,-9.287 -5.022,-11.328 -7.939,-11.291 8.324,-0.414 17.97,-1.483 25.948,-4.087 h 0.003 c -7.483,9.455 -16.837,25.863 -18.476,32.093 z"
       style="fill:none;stroke:#231f20;stroke-width:0.75;stroke-linecap:round;stroke-linejoin:round;stroke-miterlimit:4;stroke-dasharray:none;stroke-opacity:1"
       id="path904" />
    <path
       d="m 625.038,864.009 c 12.231,-2.705 76.303,-18.955 90.696,-24.99 14.392,-6.036 45.037,-30.179 59.893,-38.536 14.856,-8.357 62.471,-39.684 80.786,-58.965 17.642,-18.571 48.844,-69.262 63.654,-95.22"
       style="fill:none;stroke:#231f20;stroke-width:0.5;stroke-linecap:round;stroke-linejoin:round;stroke-miterlimit:4;stroke-dasharray:2.8, 1.8;stroke-dashoffset:0;stroke-opacity:1"
       id="path906" />
    <path
       d="m 654.215,904.832 c 7.661,-10.099 46.581,-50.276 52.658,-62.688"
       style="fill:none;stroke:#231f20;stroke-width:0.5;stroke-linecap:round;stroke-linejoin:round;stroke-miterlimit:4;stroke-dasharray:2.8, 1.8;stroke-dashoffset:0;stroke-opacity:1"
       id="path908" />
    <path
       d="m 753.932,908.988 c 0,0 -16.15,-60.071 -23.46,-78.252"
       style="fill:none;stroke:#231f20;stroke-width:0.5;stroke-linecap:round;stroke-linejoin:round;stroke-miterlimit:4;stroke-dasharray:2.8, 1.8;stroke-dashoffset:0;stroke-opacity:1"
       id="path910" />
    <path
       d="m 823.448,875.582 c 0,0 -43.599,-59.511 -52.674,-72.18"
       style="fill:none;stroke:#231f20;stroke-width:0.5;stroke-linecap:round;stroke-linejoin:round;stroke-miterlimit:4;stroke-dasharray:2.8, 1.8;stroke-dashoffset:0;stroke-opacity:1"
       id="path912" />
    <path
       d="m 878.149,826.757 c 0,0 -43.193,-42.199 -56.607,-56.522"
       style="fill:none;stroke:#231f20;stroke-width:0.5;stroke-linecap:round;stroke-linejoin:round;stroke-miterlimit:4;stroke-dasharray:2.8, 1.8;stroke-dashoffset:0;stroke-opacity:1"
       id="path914" />
    <path
       d="m 909.734,781.681 c -6.893,-7.198 -39.857,-29.484 -53.321,-40.163"
       style="fill:none;stroke:#231f20;stroke-width:0.5;stroke-linecap:round;stroke-linejoin:round;stroke-miterlimit:4;stroke-dasharray:2.8, 1.8;stroke-dashoffset:0;stroke-opacity:1"
       id="path916" />
    <path
       d="m 876.341,715.958 c 9.785,-2.761 48.004,-22.393 57.216,-27.899"
       style="fill:none;stroke:#231f20;stroke-width:0.5;stroke-linecap:round;stroke-linejoin:round;stroke-miterlimit:4;stroke-dasharray:2.8, 1.8;stroke-dashoffset:0;stroke-opacity:1"
       id="path918" />
    <path
       d="m 755.198,721.554 c 3.912,-1.467 7.892,4.179 13,9.286 5.107,5.107 15.786,13.464 20.428,21.822 4.643,8.357 5.574,12.535 -1.856,16.25 -7.43,3.713 -16.249,1.392 -23.679,-1.394 -7.429,-2.785 -13.929,-5.571 -13.001,-7.893 0.929,-2.321 8.358,-1.393 8.358,-3.25 0,-1.856 -6.963,-6.5 -9.285,-9.285 -2.322,-2.786 -3.251,-11.607 -0.929,-16.25 2.321,-4.643 3.249,-7.893 6.964,-9.286 z"
       style="fill:none;stroke:#231f20;stroke-width:0.5;stroke-linecap:round;stroke-linejoin:round;stroke-miterlimit:4;stroke-dasharray:2.8, 1.8;stroke-dashoffset:0;stroke-opacity:1"
       id="path920" />
    <path
       d="m 783.934,746.142 c 10.264,4.198 20.48,5.126 30.693,3.27 10.214,-1.858 33.427,-15.787 39.928,-20.894 6.5,-5.106 20.72,-23.381 23.215,-36.214 3.249,-16.715 4.644,-32.5 -0.464,-42.715 -5.107,-10.214 -9.285,-18.107 -16.715,-18.107 -7.429,0 -19.036,10.679 -26,27.857 -6.965,17.18 -16.251,45.5 -21.822,58.036 -5.571,12.537 -16.249,15.323 -21.82,16.25 -5.572,0.929 -16.179,-1.392 -15.75,3.715"
       style="fill:none;stroke:#231f20;stroke-width:0.5;stroke-linecap:round;stroke-linejoin:round;stroke-miterlimit:4;stroke-dasharray:2.8, 1.8;stroke-dashoffset:0;stroke-opacity:1"
       id="path922" />
    <path
       d="m 872.741,640.996 35.288,-34.384"
       style="fill:none;stroke:#231f20;stroke-width:0.5;stroke-linecap:round;stroke-linejoin:round;stroke-miterlimit:4;stroke-dasharray:2.8, 1.8;stroke-dashoffset:0;stroke-opacity:1"
       id="path924" />
    <path
       d="m 623.374,840.468 c 11.575,-35.343 -15.52,-75.845 -44.223,-111.541"
       style="fill:none;stroke:#231f20;stroke-width:0.5;stroke-linecap:round;stroke-linejoin:round;stroke-miterlimit:4;stroke-dasharray:2.8, 1.8;stroke-dashoffset:0;stroke-opacity:1"
       id="path926" />
    <path
       d="m 656.566,826.898 c 0.436,-4.594 12.274,-21.308 18.891,-27.576 6.616,-6.268 21.241,-21.24 28.902,-34.125 7.66,-12.884 14.151,-27.461 13.232,-39 -1.045,-13.115 -3.482,-22.634 -4.876,-28.554 -1.392,-5.919 -1.392,-8.705 1.045,-9.75 2.438,-1.044 6.616,2.786 8.009,8.706 1.394,5.919 5.913,24.494 0,43.875 -6.267,20.545 -19.151,37.608 -33.08,52.58 -10.577,11.371 -16.315,18.961 -24.672,29.407"
       style="fill:none;stroke:#231f20;stroke-width:0.5;stroke-linecap:round;stroke-linejoin:round;stroke-miterlimit:4;stroke-dasharray:2.8, 1.8;stroke-dashoffset:0;stroke-opacity:1"
       id="path928" />
    <path
       d="m 639.59,658.295 c 3.483,0 8.113,-3.984 13.581,-7.312 8.009,-4.875 29.359,-13.666 28.902,-19.152 -0.348,-4.179 -9.055,-3.624 -21.589,-2.787 -8.714,0.582 -20.894,2.438 -24.436,10.063 -3.937,8.479 0.061,19.188 3.542,19.188 z"
       style="fill:none;stroke:#231f20;stroke-width:0.5;stroke-linecap:round;stroke-linejoin:round;stroke-miterlimit:4;stroke-dasharray:2.8, 1.8;stroke-dashoffset:0;stroke-opacity:1"
       id="path930" />
    <path
       d="m 732.374,622.885 c -1.597,2.357 -4.689,3.545 -6.949,1.284 -1.915,-1.915 -1.044,-8.008 1.394,-14.451 2.437,-6.441 9.104,-20.019 13.109,-18.801"
       style="fill:none;stroke:#231f20;stroke-width:0.5;stroke-linecap:round;stroke-linejoin:round;stroke-miterlimit:4;stroke-dasharray:2.8, 1.8;stroke-dashoffset:0;stroke-opacity:1"
       id="path932" />
    <path
       d="m 727.477,608.032 c -1.106,2.932 -7.623,7.78 -12.498,6.91 -4.875,-0.871 -7.835,-2.264 -9.924,-9.576 -2.09,-7.313 -1.567,-16.366 2.96,-21.938 4.527,-5.571 11.491,-4.701 16.366,-1.045 4.875,3.657 8.848,8.185 7.363,16.843"
       style="fill:none;stroke:#231f20;stroke-width:0.5;stroke-linecap:round;stroke-linejoin:round;stroke-miterlimit:4;stroke-dasharray:2.8, 1.8;stroke-dashoffset:0;stroke-opacity:1"
       id="path934" />
    <path
       d="m 569.838,525.859 c 4.985,3.248 19.146,8.356 27.271,4.875 8.124,-3.483 22.983,-11.84 28.786,-16.715 5.803,-4.875 15.786,-11.608 18.804,-19.733 3.016,-8.124 8.124,-23.679 -1.626,-42.018 -3.606,-4.937 -9.518,-9.285 -12.536,-13.697 -4.932,-2.087 -12.411,-1.545 -17.178,-1.393 -7.197,0.234 -13.697,-2.087 -17.18,-3.248 -3.482,-1.162 -6.73,-2.093 -11.374,0.928"
       style="fill:none;stroke:#231f20;stroke-width:0.5;stroke-linecap:round;stroke-linejoin:round;stroke-miterlimit:4;stroke-dasharray:2.8, 1.8;stroke-dashoffset:0;stroke-opacity:1"
       id="path936" />
    <path
       d="m 643.073,452.268 c 4.642,3.482 13.95,7.699 18.107,8.126 4.527,0.463 11.839,-5.947 6.5,-14.77"
       style="fill:none;stroke:#231f20;stroke-width:0.5;stroke-linecap:round;stroke-linejoin:round;stroke-miterlimit:4;stroke-dasharray:2.8, 1.8;stroke-dashoffset:0;stroke-opacity:1"
       id="path938" />
    <path
       d="m 630.537,438.571 c -2.089,-3.017 -3.713,-15.553 4.412,-15.553"
       style="fill:none;stroke:#231f20;stroke-width:0.5;stroke-linecap:round;stroke-linejoin:round;stroke-miterlimit:4;stroke-dasharray:2.8, 1.8;stroke-dashoffset:0;stroke-opacity:1"
       id="path940" />
    <path
       d="m 664.663,529.34 c 5.71,1.039 13.231,-2.089 16.017,-7.428 2.138,-4.101 2.785,-13.929 -3.018,-20.428 -7.115,-7.969 -21.359,-8.126 -25.768,-1.859 -4.41,6.268 -5.571,14.625 0,21.589 5.571,6.965 10.214,7.661 12.769,8.126 z"
       style="fill:none;stroke:#231f20;stroke-width:0.5;stroke-linecap:round;stroke-linejoin:round;stroke-miterlimit:4;stroke-dasharray:2.8, 1.8;stroke-dashoffset:0;stroke-opacity:1"
       id="path942" />
    <path
       d="m 579.465,414.43 c 3.019,1.393 4.049,5.547 5.108,9.053 0.9,2.982 1.191,6.777 0.232,11.375 -1.161,5.571 -3.018,6.499 -4.411,8.356 -1.392,1.856 -6.938,8.932 -10.214,11.144 -4.642,3.134 -10.407,4.415 -16.481,3.481 -3.02,-0.465 -6.734,-0.696 -9.054,-5.571 -2.323,-4.875 -2.284,-10.664 -1.858,-17.642 0.358,-5.868 0.696,-16.483 8.589,-20.196"
       style="fill:none;stroke:#231f20;stroke-width:0.5;stroke-linecap:round;stroke-linejoin:round;stroke-miterlimit:4;stroke-dasharray:2.8, 1.8;stroke-dashoffset:0;stroke-opacity:1"
       id="path944" />
    <path
       d="m 678.824,421.582 c -0.232,-5.109 -0.926,-8.548 -4.411,-15.278 -3.368,-6.499 -4.643,-6.965 -12.073,-14.16 -7.429,-7.195 -16.481,-9.518 -25.071,-10.446 -8.59,-0.928 -6.499,14.159 -6.035,17.41 0.464,3.251 2.116,1.916 5.107,2.321 3.819,0.514 6.964,1.161 10.678,3.482 3.112,1.945 9.054,5.802 12.305,10.446 3.25,4.641 4.409,7.893 2.785,10.678 -1.624,2.786 -8.13,2.26 -12.071,2.089 -5.339,-0.231 -12.104,-3.316 -15.089,-5.106 -3.483,-2.089 -11.84,-13.463 -3.715,-23.91"
       style="fill:none;stroke:#231f20;stroke-width:0.5;stroke-linecap:round;stroke-linejoin:round;stroke-miterlimit:4;stroke-dasharray:2.8, 1.8;stroke-dashoffset:0;stroke-opacity:1"
       id="path946" />
    <path
       d="m 658.886,414.75 c 2.294,1.769 7.633,4.555 9.954,5.017"
       style="fill:none;stroke:#231f20;stroke-width:0.5;stroke-linecap:round;stroke-linejoin:round;stroke-miterlimit:4;stroke-dasharray:2.8, 1.8;stroke-dashoffset:0;stroke-opacity:1"
       id="path948" />
    <path
       d="m 661.021,427.085 c -1.931,4.755 -1.232,10.327 3.874,15.665 5.107,5.339 11.375,9.983 15.321,9.053 3.947,-0.927 5.337,-6.73 5.803,-13.232 0.465,-6.499 -3.482,-11.839 -5.339,-14.625 -1.856,-2.786 -7.589,-9.906 -17.955,0.503"
       style="fill:none;stroke:#231f20;stroke-width:0.5;stroke-linecap:round;stroke-linejoin:round;stroke-miterlimit:4;stroke-dasharray:2.8, 1.8;stroke-dashoffset:0;stroke-opacity:1"
       id="path950" />
    <path
       d="m 578.072,589 c 0.875,-4.018 0,-7.196 -7.66,-11.143 -7.662,-3.947 -14.162,-0.928 -18.572,1.393 -4.409,2.322 -6.18,4.655 -6.045,6.518"
       style="fill:none;stroke:#231f20;stroke-width:0.5;stroke-linecap:round;stroke-linejoin:round;stroke-miterlimit:4;stroke-dasharray:2.8, 1.8;stroke-dashoffset:0;stroke-opacity:1"
       id="path952" />
    <path
       d="m 559.733,607.107 c 1.399,0.56 3.468,0.65 5.421,0.114"
       style="fill:none;stroke:#231f20;stroke-width:0.5;stroke-linecap:round;stroke-linejoin:round;stroke-miterlimit:4;stroke-dasharray:2.8, 1.8;stroke-dashoffset:0;stroke-opacity:1"
       id="path954" />
    <path
       d="m 651.458,553.68 c -2.35,-2.984 -3.51,-10.876 -2.814,-14.358 0.696,-3.483 1.16,-6.268 7.429,-5.572 6.267,0.697 16.25,0.928 19.732,0.697 3.483,-0.232 10.91,-0.465 12.999,3.714"
       style="fill:none;stroke:#231f20;stroke-width:0.5;stroke-linecap:round;stroke-linejoin:round;stroke-miterlimit:4;stroke-dasharray:2.8, 1.8;stroke-dashoffset:0;stroke-opacity:1"
       id="path956" />
    <path
       d="m 671.859,612.447 c 3.015,-0.708 3.48,-4.411 1.624,-6.733 -1.857,-2.321 -6.733,-3.482 -8.357,-0.464 -1.624,3.018 2.786,8.124 6.733,7.197 z"
       style="fill:none;stroke:#231f20;stroke-width:0.5;stroke-linecap:round;stroke-linejoin:round;stroke-miterlimit:4;stroke-dasharray:2.8, 1.8;stroke-dashoffset:0;stroke-opacity:1"
       id="path958" />
    <path
       d="m 671.347,619.954 c -2.044,-0.3 -5.797,-3.101 -4.035,-8.786"
       style="fill:none;stroke:#231f20;stroke-width:0.5;stroke-linecap:round;stroke-linejoin:round;stroke-miterlimit:4;stroke-dasharray:2.8, 1.8;stroke-dashoffset:0;stroke-opacity:1"
       id="path960" />
    <path
       d="m 673.483,605.714 c 4.411,-1.624 12.769,-4.875 15.091,-6.268 2.32,-1.393 7.529,-3.488 10.548,-5.81"
       style="fill:none;stroke:#231f20;stroke-width:0.5;stroke-linecap:round;stroke-linejoin:round;stroke-miterlimit:4;stroke-dasharray:2.8, 1.8;stroke-dashoffset:0;stroke-opacity:1"
       id="path962" />
    <path
       d="m 686.715,590.858 c -4.41,-0.696 -6.267,-13.929 -3.271,-18.82 4.354,-7.109 10.932,-8.573 14.182,-6.483 4.559,2.93 3.25,9.285 2.787,13.231 -0.464,3.946 -7.894,12.989 -13.698,12.072 z"
       style="fill:none;stroke:#231f20;stroke-width:0.5;stroke-linecap:round;stroke-linejoin:round;stroke-miterlimit:4;stroke-dasharray:2.8, 1.8;stroke-dashoffset:0;stroke-opacity:1"
       id="path964" />
    <path
       d="m 699.716,566.251 c -4.178,-3.482 -9.518,-9.285 -9.982,-16.017 -0.464,-6.734 -1.394,-9.285 -0.696,-15.322 0.696,-6.037 3.945,-12.618 11.142,-10.215 7.197,2.399 11.412,7.554 12.572,13.822"
       style="fill:none;stroke:#231f20;stroke-width:0.5;stroke-linecap:round;stroke-linejoin:round;stroke-miterlimit:4;stroke-dasharray:2.8, 1.8;stroke-dashoffset:0;stroke-opacity:1"
       id="path966" />
    <path
       d="m 454.964,864.009 c -12.23,-2.705 -76.303,-18.955 -90.696,-24.99 -14.392,-6.036 -45.036,-30.179 -59.892,-38.536 -14.857,-8.357 -62.471,-39.684 -80.787,-58.965 -17.641,-18.571 -48.843,-69.262 -63.654,-95.22"
       style="fill:none;stroke:#231f20;stroke-width:0.5;stroke-linecap:round;stroke-linejoin:round;stroke-miterlimit:4;stroke-dasharray:2.8, 1.8;stroke-dashoffset:0;stroke-opacity:1"
       id="path968" />
    <path
       d="m 425.787,904.832 c -7.661,-10.099 -46.58,-50.276 -52.657,-62.688"
       style="fill:none;stroke:#231f20;stroke-width:0.5;stroke-linecap:round;stroke-linejoin:round;stroke-miterlimit:4;stroke-dasharray:2.8, 1.8;stroke-dashoffset:0;stroke-opacity:1"
       id="path970" />
    <path
       d="m 326.071,908.988 c 0,0 16.149,-60.071 23.46,-78.252"
       style="fill:none;stroke:#231f20;stroke-width:0.5;stroke-linecap:round;stroke-linejoin:round;stroke-miterlimit:4;stroke-dasharray:2.8, 1.8;stroke-dashoffset:0;stroke-opacity:1"
       id="path972" />
    <path
       d="m 256.554,875.582 c 0,0 43.599,-59.511 52.674,-72.18"
       style="fill:none;stroke:#231f20;stroke-width:0.5;stroke-linecap:round;stroke-linejoin:round;stroke-miterlimit:4;stroke-dasharray:2.8, 1.8;stroke-dashoffset:0;stroke-opacity:1"
       id="path974" />
    <path
       d="m 201.853,826.757 c 0,0 43.193,-42.199 56.608,-56.522"
       style="fill:none;stroke:#231f20;stroke-width:0.5;stroke-linecap:round;stroke-linejoin:round;stroke-miterlimit:4;stroke-dasharray:2.8, 1.8;stroke-dashoffset:0;stroke-opacity:1"
       id="path976" />
    <path
       d="m 170.269,781.681 c 6.893,-7.198 39.856,-29.484 53.32,-40.163"
       style="fill:none;stroke:#231f20;stroke-width:0.5;stroke-linecap:round;stroke-linejoin:round;stroke-miterlimit:4;stroke-dasharray:2.8, 1.8;stroke-dashoffset:0;stroke-opacity:1"
       id="path978" />
    <path
       d="m 203.661,715.958 c -9.785,-2.761 -48.003,-22.393 -57.216,-27.899"
       style="fill:none;stroke:#231f20;stroke-width:0.5;stroke-linecap:round;stroke-linejoin:round;stroke-miterlimit:4;stroke-dasharray:2.8, 1.8;stroke-dashoffset:0;stroke-opacity:1"
       id="path980" />
    <path
       d="m 324.804,721.554 c -3.912,-1.467 -7.891,4.179 -12.999,9.286 -5.108,5.107 -15.787,13.464 -20.429,21.822 -4.643,8.357 -5.573,12.535 1.856,16.25 7.43,3.713 16.25,1.392 23.679,-1.394 7.429,-2.785 13.93,-5.571 13.001,-7.893 -0.929,-2.321 -8.357,-1.393 -8.357,-3.25 0,-1.856 6.963,-6.5 9.284,-9.285 2.323,-2.786 3.251,-11.607 0.93,-16.25 -2.322,-4.643 -3.25,-7.893 -6.965,-9.286 z"
       style="fill:none;stroke:#231f20;stroke-width:0.5;stroke-linecap:round;stroke-linejoin:round;stroke-miterlimit:4;stroke-dasharray:2.8, 1.8;stroke-dashoffset:0;stroke-opacity:1"
       id="path982" />
    <path
       d="m 296.069,746.142 c -10.265,4.198 -20.48,5.126 -30.693,3.27 -10.214,-1.858 -33.428,-15.787 -39.928,-20.894 -6.501,-5.106 -20.721,-23.381 -23.215,-36.214 -3.25,-16.715 -4.644,-32.5 0.464,-42.715 5.107,-10.214 9.284,-18.107 16.714,-18.107 7.429,0 19.036,10.679 26.001,27.857 6.964,17.18 16.25,45.5 21.821,58.036 5.571,12.537 16.249,15.323 21.821,16.25 5.572,0.929 16.178,-1.392 15.75,3.715"
       style="fill:none;stroke:#231f20;stroke-width:0.5;stroke-linecap:round;stroke-linejoin:round;stroke-miterlimit:4;stroke-dasharray:2.8, 1.8;stroke-dashoffset:0;stroke-opacity:1"
       id="path984" />
    <path
       d="m 207.261,640.996 c -9.207,-6.728 -30.626,-19.294 -40.344,-25.78"
       style="fill:none;stroke:#231f20;stroke-width:0.5;stroke-linecap:round;stroke-linejoin:round;stroke-miterlimit:4;stroke-dasharray:2.8, 1.8;stroke-dashoffset:0;stroke-opacity:1"
       id="path986" />
    <path
       d="m 456.628,840.468 c -11.574,-35.343 15.52,-75.845 44.223,-111.541"
       style="fill:none;stroke:#231f20;stroke-width:0.5;stroke-linecap:round;stroke-linejoin:round;stroke-miterlimit:4;stroke-dasharray:2.8, 1.8;stroke-dashoffset:0;stroke-opacity:1"
       id="path988" />
    <path
       d="M 423.436,826.898 C 423,822.304 411.162,805.59 404.545,799.322 c -6.616,-6.268 -21.241,-21.24 -28.901,-34.125 -7.661,-12.884 -14.152,-27.461 -13.232,-39 1.045,-13.115 3.482,-22.634 4.875,-28.554 1.392,-5.919 1.392,-8.705 -1.045,-9.75 -2.438,-1.044 -6.616,2.786 -8.009,8.706 -1.393,5.919 -5.913,24.494 0,43.875 6.267,20.545 19.152,37.608 33.08,52.58 10.577,11.371 16.314,18.961 24.672,29.407"
       style="fill:none;stroke:#231f20;stroke-width:0.5;stroke-linecap:round;stroke-linejoin:round;stroke-miterlimit:4;stroke-dasharray:2.8, 1.8;stroke-dashoffset:0;stroke-opacity:1"
       id="path990" />
    <path
       d="m 440.412,658.295 c -3.483,0 -8.113,-3.984 -13.58,-7.312 -8.009,-4.875 -29.36,-13.666 -28.903,-19.152 0.349,-4.179 9.056,-3.624 21.59,-2.787 8.713,0.582 20.893,2.438 24.435,10.063 3.937,8.479 -0.06,19.188 -3.542,19.188 z"
       style="fill:none;stroke:#231f20;stroke-width:0.5;stroke-linecap:round;stroke-linejoin:round;stroke-miterlimit:4;stroke-dasharray:2.8, 1.8;stroke-dashoffset:0;stroke-opacity:1"
       id="path992" />
    <path
       d="m 347.628,622.885 c 1.598,2.357 4.69,3.545 6.949,1.284 1.915,-1.915 1.045,-8.008 -1.393,-14.451 -2.437,-6.441 -9.105,-20.019 -13.11,-18.801"
       style="fill:none;stroke:#231f20;stroke-width:0.5;stroke-linecap:round;stroke-linejoin:round;stroke-miterlimit:4;stroke-dasharray:2.8, 1.8;stroke-dashoffset:0;stroke-opacity:1"
       id="path994" />
    <path
       d="m 352.526,608.032 c 1.105,2.932 7.622,7.78 12.497,6.91 4.875,-0.871 7.835,-2.264 9.925,-9.576 2.089,-7.313 1.566,-16.366 -2.96,-21.938 -4.528,-5.571 -11.491,-4.701 -16.366,-1.045 -4.875,3.657 -8.849,8.185 -7.364,16.843"
       style="fill:none;stroke:#231f20;stroke-width:0.5;stroke-linecap:round;stroke-linejoin:round;stroke-miterlimit:4;stroke-dasharray:2.8, 1.8;stroke-dashoffset:0;stroke-opacity:1"
       id="path996" />
    <path
       d="m 510.164,525.859 c -4.985,3.248 -19.146,8.356 -27.27,4.875 -8.125,-3.483 -22.983,-11.84 -28.786,-16.715 -5.803,-4.875 -15.787,-11.608 -18.804,-19.733 -3.016,-8.124 -8.125,-23.679 1.625,-42.018 3.607,-4.937 9.518,-9.285 12.536,-13.697 4.932,-2.087 12.412,-1.545 17.178,-1.393 7.197,0.234 13.697,-2.087 17.18,-3.248 3.482,-1.162 6.73,-2.093 11.374,0.928"
       style="fill:none;stroke:#231f20;stroke-width:0.5;stroke-linecap:round;stroke-linejoin:round;stroke-miterlimit:4;stroke-dasharray:2.8, 1.8;stroke-dashoffset:0;stroke-opacity:1"
       id="path998" />
    <path
       d="m 436.929,452.268 c -4.641,3.482 -13.95,7.699 -18.106,8.126 -4.528,0.463 -11.84,-5.947 -6.501,-14.77"
       style="fill:none;stroke:#231f20;stroke-width:0.5;stroke-linecap:round;stroke-linejoin:round;stroke-miterlimit:4;stroke-dasharray:2.8, 1.8;stroke-dashoffset:0;stroke-opacity:1"
       id="path1000" />
    <path
       d="m 449.465,438.571 c 2.089,-3.017 3.713,-15.553 -4.411,-15.553"
       style="fill:none;stroke:#231f20;stroke-width:0.5;stroke-linecap:round;stroke-linejoin:round;stroke-miterlimit:4;stroke-dasharray:2.8, 1.8;stroke-dashoffset:0;stroke-opacity:1"
       id="path1002" />
    <path
       d="m 415.34,529.34 c -5.71,1.039 -13.232,-2.089 -16.017,-7.428 -2.139,-4.101 -2.786,-13.929 3.017,-20.428 7.115,-7.969 21.359,-8.126 25.769,-1.859 4.409,6.268 5.571,14.625 0,21.589 -5.571,6.965 -10.214,7.661 -12.769,8.126 z"
       style="fill:none;stroke:#231f20;stroke-width:0.5;stroke-linecap:round;stroke-linejoin:round;stroke-miterlimit:4;stroke-dasharray:2.8, 1.8;stroke-dashoffset:0;stroke-opacity:1"
       id="path1004" />
    <path
       d="m 500.538,414.43 c -3.019,1.393 -4.05,5.547 -5.109,9.053 -0.9,2.982 -1.191,6.777 -0.232,11.375 1.162,5.571 3.018,6.499 4.411,8.356 1.393,1.856 6.938,8.932 10.214,11.144 4.643,3.134 10.408,4.415 16.482,3.481 3.02,-0.465 6.733,-0.696 9.053,-5.571 2.323,-4.875 2.284,-10.664 1.858,-17.642 -0.357,-5.868 -0.696,-16.483 -8.588,-20.196"
       style="fill:none;stroke:#231f20;stroke-width:0.5;stroke-linecap:round;stroke-linejoin:round;stroke-miterlimit:4;stroke-dasharray:2.8, 1.8;stroke-dashoffset:0;stroke-opacity:1"
       id="path1006" />
    <path
       d="m 536.228,547.257 c -2.552,-25.071 -0.174,-57.15 -0.174,-62.025 0,-4.875 1.626,-6.269 3.948,-6.269 2.32,0 3.947,1.394 3.947,6.269 0,4.875 2.378,36.954 -0.174,62.025"
       style="fill:none;stroke:#231f20;stroke-width:0.5;stroke-linecap:round;stroke-linejoin:round;stroke-miterlimit:4;stroke-dasharray:2.8, 1.8;stroke-dashoffset:0;stroke-opacity:1"
       id="path1008" />
    <path
       d="m 401.179,421.582 c 0.232,-5.109 0.925,-8.548 4.411,-15.278 3.367,-6.499 4.643,-6.965 12.072,-14.16 7.429,-7.195 16.482,-9.518 25.072,-10.446 8.59,-0.928 6.499,14.159 6.035,17.41 -0.464,3.251 -2.116,1.916 -5.107,2.321 -3.819,0.514 -6.965,1.161 -10.678,3.482 -3.112,1.945 -9.054,5.802 -12.305,10.446 -3.251,4.641 -4.41,7.893 -2.786,10.678 1.624,2.786 8.13,2.26 12.072,2.089 5.339,-0.231 12.104,-3.316 15.089,-5.106 3.483,-2.089 11.839,-13.463 3.715,-23.91"
       style="fill:none;stroke:#231f20;stroke-width:0.5;stroke-linecap:round;stroke-linejoin:round;stroke-miterlimit:4;stroke-dasharray:2.8, 1.8;stroke-dashoffset:0;stroke-opacity:1"
       id="path1010" />
    <path
       d="m 421.116,414.75 c -2.293,1.769 -7.632,4.555 -9.954,5.017"
       style="fill:none;stroke:#231f20;stroke-width:0.5;stroke-linecap:round;stroke-linejoin:round;stroke-miterlimit:4;stroke-dasharray:2.8, 1.8;stroke-dashoffset:0;stroke-opacity:1"
       id="path1012" />
    <path
       d="m 418.982,427.085 c 1.93,4.755 1.232,10.327 -3.874,15.665 -5.107,5.339 -11.376,9.983 -15.321,9.053 -3.947,-0.927 -5.338,-6.73 -5.803,-13.232 -0.466,-6.499 3.481,-11.839 5.339,-14.625 1.856,-2.786 7.588,-9.906 17.954,0.503"
       style="fill:none;stroke:#231f20;stroke-width:0.5;stroke-linecap:round;stroke-linejoin:round;stroke-miterlimit:4;stroke-dasharray:2.8, 1.8;stroke-dashoffset:0;stroke-opacity:1"
       id="path1014" />
    <path
       d="m 535.942,555.639 c 0,0 0.112,-1.686 0.112,-7.032 0,-3.018 2.323,-4.642 3.948,-4.642 1.624,0 3.947,1.624 3.947,4.642 0,5.346 0.111,7.032 0.111,7.032"
       style="fill:none;stroke:#231f20;stroke-width:0.5;stroke-linecap:round;stroke-linejoin:round;stroke-miterlimit:4;stroke-dasharray:2.8, 1.8;stroke-dashoffset:0;stroke-opacity:1"
       id="path1016" />
    <path
       d="m 535.357,563.232 c 0,3.251 -1.044,27.16 -2.089,30.411 -0.699,2.177 -1.855,7.661 -12.999,13.464 0,0 -1.625,7.893 2.554,6.036 5.043,-2.241 9.053,-9.982 17.179,-9.982 8.125,0 12.135,7.741 17.179,9.982 4.178,1.857 2.552,-6.036 2.552,-6.036 -11.144,-5.803 -12.3,-11.287 -12.999,-13.464 -1.044,-3.251 -2.089,-27.16 -2.089,-30.411"
       style="fill:none;stroke:#231f20;stroke-width:0.5;stroke-linecap:round;stroke-linejoin:round;stroke-miterlimit:4;stroke-dasharray:2.8, 1.8;stroke-dashoffset:0;stroke-opacity:1"
       id="path1018" />
    <path
       d="m 501.93,589 c -0.875,-4.018 0,-7.196 7.661,-11.143 7.66,-3.947 14.16,-0.928 18.571,1.393 4.41,2.322 6.18,4.655 6.045,6.518"
       style="fill:none;stroke:#231f20;stroke-width:0.5;stroke-linecap:round;stroke-linejoin:round;stroke-miterlimit:4;stroke-dasharray:2.8, 1.8;stroke-dashoffset:0;stroke-opacity:1"
       id="path1020" />
    <path
       d="m 520.269,607.107 c -1.398,0.56 -3.469,0.65 -5.422,0.114"
       style="fill:none;stroke:#231f20;stroke-width:0.5;stroke-linecap:round;stroke-linejoin:round;stroke-miterlimit:4;stroke-dasharray:2.8, 1.8;stroke-dashoffset:0;stroke-opacity:1"
       id="path1022" />
    <path
       d="m 428.545,553.68 c 2.349,-2.984 3.509,-10.876 2.813,-14.358 -0.696,-3.483 -1.16,-6.268 -7.428,-5.572 -6.268,0.697 -16.251,0.928 -19.732,0.697 -3.483,-0.232 -10.911,-0.465 -13,3.714"
       style="fill:none;stroke:#231f20;stroke-width:0.5;stroke-linecap:round;stroke-linejoin:round;stroke-miterlimit:4;stroke-dasharray:2.8, 1.8;stroke-dashoffset:0;stroke-opacity:1"
       id="path1024" />
    <path
       d="m 408.143,612.447 c -3.014,-0.708 -3.48,-4.411 -1.624,-6.733 1.857,-2.321 6.733,-3.482 8.357,-0.464 1.624,3.018 -2.786,8.124 -6.733,7.197 z"
       style="fill:none;stroke:#231f20;stroke-width:0.5;stroke-linecap:round;stroke-linejoin:round;stroke-miterlimit:4;stroke-dasharray:2.8, 1.8;stroke-dashoffset:0;stroke-opacity:1"
       id="path1026" />
    <path
       d="m 408.655,619.954 c 2.044,-0.3 5.797,-3.101 4.036,-8.786"
       style="fill:none;stroke:#231f20;stroke-width:0.5;stroke-linecap:round;stroke-linejoin:round;stroke-miterlimit:4;stroke-dasharray:2.8, 1.8;stroke-dashoffset:0;stroke-opacity:1"
       id="path1028" />
    <path
       d="m 406.519,605.714 c -4.411,-1.624 -12.769,-4.875 -15.09,-6.268 -2.32,-1.393 -7.53,-3.488 -10.549,-5.81"
       style="fill:none;stroke:#231f20;stroke-width:0.5;stroke-linecap:round;stroke-linejoin:round;stroke-miterlimit:4;stroke-dasharray:2.8, 1.8;stroke-dashoffset:0;stroke-opacity:1"
       id="path1030" />
    <path
       d="m 393.287,590.858 c 4.41,-0.696 6.268,-13.929 3.271,-18.82 -4.353,-7.109 -10.932,-8.573 -14.182,-6.483 -4.559,2.93 -3.25,9.285 -2.787,13.231 0.464,3.946 7.894,12.989 13.698,12.072 z"
       style="fill:none;stroke:#231f20;stroke-width:0.5;stroke-linecap:round;stroke-linejoin:round;stroke-miterlimit:4;stroke-dasharray:2.8, 1.8;stroke-dashoffset:0;stroke-opacity:1"
       id="path1032" />
    <path
       d="m 380.286,566.251 c 4.178,-3.482 9.519,-9.285 9.983,-16.017 0.464,-6.734 1.393,-9.285 0.696,-15.322 -0.696,-6.037 -3.946,-12.618 -11.142,-10.215 -7.197,2.399 -11.413,7.554 -12.573,13.822"
       style="fill:none;stroke:#231f20;stroke-width:0.5;stroke-linecap:round;stroke-linejoin:round;stroke-miterlimit:4;stroke-dasharray:2.8, 1.8;stroke-dashoffset:0;stroke-opacity:1"
       id="path1034" />
    <path
       d="m 552.73,808.832 c -2.747,-10.67 -2.746,-24.134 10.253,-51.528 13,-27.392 33.893,-54.321 45.965,-64.071 12.072,-9.75 26.928,-21.821 31.106,-25.071 4.179,-3.25 9.752,-6.501 19.966,-0.929 10.214,5.571 26.928,20.429 33.893,36.679 6.963,16.249 5.107,18.571 -0.464,32.5 -5.573,13.928 -25.073,50.142 -35.287,65 -10.214,14.856 -25.469,33.543 -34.788,39.056"
       style="fill:none;stroke:#231f20;stroke-width:0.5;stroke-linecap:round;stroke-linejoin:round;stroke-miterlimit:4;stroke-dasharray:2.8, 1.8;stroke-dashoffset:0;stroke-opacity:1"
       id="path1036" />
    <path
       d="m 527.272,808.832 c 2.748,-10.67 2.747,-24.134 -10.253,-51.528 -13,-27.392 -33.893,-54.321 -45.965,-64.071 -12.071,-9.75 -26.928,-21.821 -31.106,-25.071 -4.179,-3.25 -9.751,-6.501 -19.965,-0.929 -10.214,5.571 -26.929,20.429 -33.893,36.679 -6.964,16.249 -5.107,18.571 0.464,32.5 5.572,13.928 25.072,50.142 35.286,65 10.214,14.856 25.469,33.543 34.788,39.056"
       style="fill:none;stroke:#231f20;stroke-width:0.5;stroke-linecap:round;stroke-linejoin:round;stroke-miterlimit:4;stroke-dasharray:2.8, 1.8;stroke-dashoffset:0;stroke-opacity:1"
       id="path1038" />
    <path
       d="m 565.154,607.221 c -2.636,3.601 -1.473,8.94 3.634,11.261 5.106,2.322 15.321,4.411 20.66,2.786 5.339,-1.625 12.536,-7.659 16.714,-14.393 3.558,-5.733 6.268,-10.214 6.268,-10.214"
       style="fill:none;stroke:#231f20;stroke-width:0.5;stroke-linecap:round;stroke-linejoin:round;stroke-miterlimit:4;stroke-dasharray:2.8, 1.8;stroke-dashoffset:0;stroke-opacity:1"
       id="path1040" />
    <path
       d="m 578.072,589 c 3.018,-3.947 9.287,-12.071 12.072,-14.626 2.786,-2.554 3.94,-4.165 7.661,-7.891 3.151,-3.156 7.777,-7.313 11.375,-7.661 4.628,-0.448 22.983,-2.321 21.357,7.429"
       style="fill:none;stroke:#231f20;stroke-width:0.5;stroke-linecap:round;stroke-linejoin:round;stroke-miterlimit:4;stroke-dasharray:2.8, 1.8;stroke-dashoffset:0;stroke-opacity:1"
       id="path1042" />
    <path
       d="m 565.154,607.221 c 1.29,-0.355 2.435,-0.956 3.634,-1.971 3.016,-2.553 8.123,-10.91 9.284,-16.25"
       style="fill:none;stroke:#231f20;stroke-width:0.5;stroke-linecap:round;stroke-linejoin:round;stroke-miterlimit:4;stroke-dasharray:2.8, 1.8;stroke-dashoffset:0;stroke-opacity:1"
       id="path1044" />
    <path
       d="m 514.847,607.221 c 2.637,3.601 1.474,8.94 -3.632,11.261 -5.106,2.322 -15.322,4.411 -20.661,2.786 -5.339,-1.625 -12.535,-7.659 -16.714,-14.393 -3.558,-5.733 -6.267,-10.214 -6.267,-10.214"
       style="fill:none;stroke:#231f20;stroke-width:0.5;stroke-linecap:round;stroke-linejoin:round;stroke-miterlimit:4;stroke-dasharray:2.8, 1.8;stroke-dashoffset:0;stroke-opacity:1"
       id="path1046" />
    <path
       d="m 501.93,589 c -3.018,-3.947 -9.286,-12.071 -12.072,-14.626 -2.785,-2.554 -3.939,-4.165 -7.66,-7.891 -3.151,-3.156 -7.777,-7.313 -11.376,-7.661 -4.627,-0.448 -22.983,-2.321 -21.357,7.429"
       style="fill:none;stroke:#231f20;stroke-width:0.5;stroke-linecap:round;stroke-linejoin:round;stroke-miterlimit:4;stroke-dasharray:2.8, 1.8;stroke-dashoffset:0;stroke-opacity:1"
       id="path1048" />
    <path
       d="m 514.847,607.221 c -1.288,-0.355 -2.433,-0.956 -3.632,-1.971 -3.017,-2.553 -8.124,-10.91 -9.285,-16.25"
       style="fill:none;stroke:#231f20;stroke-width:0.5;stroke-linecap:round;stroke-linejoin:round;stroke-miterlimit:4;stroke-dasharray:2.8, 1.8;stroke-dashoffset:0;stroke-opacity:1"
       id="path1050" />
    <path
       d="m 624.805,616.471 c 0.51,2.37 4.805,3.404 10.84,3.404 6.035,0 17.409,-1.625 22.517,-1.393 5.107,0.233 9.518,0.93 15.787,1.857 6.267,0.929 19.268,4.644 22.285,1.858 3.018,-2.785 3.715,-6.268 3.482,-12.768 -0.232,-6.501 -1.083,-22.826 -0.153,-28.165"
       style="fill:none;stroke:#231f20;stroke-width:0.5;stroke-linecap:round;stroke-linejoin:round;stroke-miterlimit:4;stroke-dasharray:2.8, 1.8;stroke-dashoffset:0;stroke-opacity:1"
       id="path1052" />
    <path
       d="m 455.197,616.471 c -0.51,2.37 -4.804,3.404 -10.839,3.404 -6.035,0 -17.409,-1.625 -22.518,-1.393 -5.107,0.233 -9.518,0.93 -15.786,1.857 -6.267,0.929 -19.268,4.644 -22.286,1.858 -3.017,-2.785 -3.715,-6.268 -3.482,-12.768 0.233,-6.501 1.083,-22.826 0.154,-28.165"
       style="fill:none;stroke:#231f20;stroke-width:0.5;stroke-linecap:round;stroke-linejoin:round;stroke-miterlimit:4;stroke-dasharray:2.8, 1.8;stroke-dashoffset:0;stroke-opacity:1"
       id="path1054" />
    <path
       d="m 690.025,552.323 c -24.607,-0.697 -41.845,1.159 -47.649,3.248 -3.601,1.298 -6.731,3.947 -8.821,6.502 -2.089,2.554 -6.429,9.908 -8.126,12.767 -2.037,3.432 -5.283,7.383 -3.945,9.053"
       style="fill:none;stroke:#231f20;stroke-width:0.5;stroke-linecap:round;stroke-linejoin:round;stroke-miterlimit:4;stroke-dasharray:2.8, 1.8;stroke-dashoffset:0;stroke-opacity:1"
       id="path1056" />
    <path
       d="m 389.978,552.323 c 24.607,-0.697 41.844,1.159 47.648,3.248 3.602,1.298 6.732,3.947 8.821,6.502 2.09,2.554 6.429,9.908 8.126,12.767 2.038,3.432 5.283,7.383 3.946,9.053"
       style="fill:none;stroke:#231f20;stroke-width:0.5;stroke-linecap:round;stroke-linejoin:round;stroke-miterlimit:4;stroke-dasharray:2.8, 1.8;stroke-dashoffset:0;stroke-opacity:1"
       id="path1058" />
    <path
       d="m 540.002,658.295 c -18.804,0 -43.528,8.705 -41.438,24.375 2.637,19.784 33.08,16.604 41.438,16.604 8.356,0 38.799,3.18 41.437,-16.604 2.089,-15.67 -22.634,-24.375 -41.437,-24.375"
       style="fill:#d3d2d2;fill-opacity:1;fill-rule:nonzero;stroke:none;stroke-width:0.1"
       id="path1060" />
    <path
       d="m 540.002,658.295 c -18.804,0 -43.528,8.705 -41.438,24.375 2.637,19.784 33.08,16.604 41.438,16.604 8.356,0 38.799,3.18 41.437,-16.604 2.089,-15.67 -22.634,-24.375 -41.437,-24.375 z"
       style="fill:none;stroke:#231f20;stroke-width:0.75;stroke-linecap:round;stroke-linejoin:round;stroke-miterlimit:4;stroke-dasharray:0, 2;stroke-dashoffset:0;stroke-opacity:1"
       id="path1062" />
  </g>
</svg>
