<?xml version="1.0" encoding="UTF-8" standalone="no"?>
<!-- Created with Inkscape (http://www.inkscape.org/) -->

<svg
   version="1.1"
   id="svg2"
   width="1440"
   height="1344"
   viewBox="0 0 1440 1344"
   xmlns="http://www.w3.org/2000/svg"
   xmlns:svg="http://www.w3.org/2000/svg">
  <defs
     id="defs6" />
  <g
     id="g8">
    <path
       d="m 749.627,580.298 c 0,-3.463 -2.806,-6.268 -6.268,-6.268 -3.462,0 -6.268,2.805 -6.268,6.268 0,3.461 2.806,6.268 6.268,6.268 3.462,0 6.268,-2.807 6.268,-6.268"
       style="fill:#ffffff;fill-opacity:1;fill-rule:nonzero;stroke:none;stroke-width:0.1"
       id="path672" />
    <path
       d="m 749.627,580.298 c 0,-3.463 -2.806,-6.268 -6.268,-6.268 -3.462,0 -6.268,2.805 -6.268,6.268 0,3.461 2.806,6.268 6.268,6.268 3.462,0 6.268,-2.807 6.268,-6.268 z"
       style="fill:none;stroke:#231f20;stroke-width:0.5;stroke-linecap:butt;stroke-linejoin:miter;stroke-miterlimit:4;stroke-dasharray:none;stroke-opacity:1"
       id="path674" />
    <path
       d="m 748.234,558.706 c 3.184,1.275 5.92,-0.695 8.009,-6.268 2.089,-5.572 4.178,-10.794 0,-12.535 -4.178,-1.742 -6.616,2.785 -8.009,6.616 -1.393,3.83 -3.482,10.794 0,12.187"
       style="fill:#ffffff;fill-opacity:1;fill-rule:nonzero;stroke:none;stroke-width:0.1"
       id="path676" />
    <path
       d="m 748.234,558.706 c 3.184,1.275 5.92,-0.695 8.009,-6.268 2.089,-5.572 4.178,-10.794 0,-12.535 -4.178,-1.742 -6.616,2.785 -8.009,6.616 -1.393,3.83 -3.482,10.794 0,12.187 z"
       style="fill:none;stroke:#231f20;stroke-width:0.5;stroke-linecap:butt;stroke-linejoin:miter;stroke-miterlimit:4;stroke-dasharray:none;stroke-opacity:1"
       id="path678" />
    <path
       d="m 750.324,527.716 c 0,-1.731 -1.716,-3.135 -3.831,-3.135 -2.115,0 -3.83,1.404 -3.83,3.135 0,1.73 1.715,3.133 3.83,3.133 2.115,0 3.831,-1.403 3.831,-3.133"
       style="fill:#ffffff;fill-opacity:1;fill-rule:nonzero;stroke:none;stroke-width:0.1"
       id="path680" />
    <path
       d="m 750.324,527.716 c 0,-1.731 -1.716,-3.135 -3.831,-3.135 -2.115,0 -3.83,1.404 -3.83,3.135 0,1.73 1.715,3.133 3.83,3.133 2.115,0 3.831,-1.403 3.831,-3.133 z"
       style="fill:none;stroke:#231f20;stroke-width:0.5;stroke-linecap:butt;stroke-linejoin:miter;stroke-miterlimit:4;stroke-dasharray:none;stroke-opacity:1"
       id="path682" />
    <path
       d="m 751.02,520.751 c 0,-1.731 -1.559,-3.135 -3.482,-3.135 -1.923,0 -3.483,1.404 -3.483,3.135 0,1.732 1.56,3.135 3.483,3.135 1.923,0 3.482,-1.403 3.482,-3.135"
       style="fill:#ffffff;fill-opacity:1;fill-rule:nonzero;stroke:none;stroke-width:0.1"
       id="path684" />
    <path
       d="m 751.02,520.751 c 0,-1.731 -1.559,-3.135 -3.482,-3.135 -1.923,0 -3.483,1.404 -3.483,3.135 0,1.732 1.56,3.135 3.483,3.135 1.923,0 3.482,-1.403 3.482,-3.135 z"
       style="fill:none;stroke:#231f20;stroke-width:0.5;stroke-linecap:butt;stroke-linejoin:miter;stroke-miterlimit:4;stroke-dasharray:none;stroke-opacity:1"
       id="path686" />
    <path
       d="m 330.376,580.298 c 0,-3.463 2.806,-6.268 6.268,-6.268 3.462,0 6.268,2.805 6.268,6.268 0,3.461 -2.806,6.268 -6.268,6.268 -3.462,0 -6.268,-2.807 -6.268,-6.268"
       style="fill:#ffffff;fill-opacity:1;fill-rule:nonzero;stroke:none;stroke-width:0.1"
       id="path688" />
    <path
       d="m 330.376,580.298 c 0,-3.463 2.806,-6.268 6.268,-6.268 3.462,0 6.268,2.805 6.268,6.268 0,3.461 -2.806,6.268 -6.268,6.268 -3.462,0 -6.268,-2.807 -6.268,-6.268 z"
       style="fill:none;stroke:#231f20;stroke-width:0.5;stroke-linecap:butt;stroke-linejoin:miter;stroke-miterlimit:4;stroke-dasharray:none;stroke-opacity:1"
       id="path690" />
    <path
       d="m 331.769,558.706 c -3.185,1.275 -5.92,-0.695 -8.009,-6.268 -2.09,-5.572 -4.178,-10.794 0,-12.535 4.179,-1.742 6.616,2.785 8.009,6.616 1.393,3.83 3.482,10.794 0,12.187"
       style="fill:#ffffff;fill-opacity:1;fill-rule:nonzero;stroke:none;stroke-width:0.1"
       id="path692" />
    <path
       d="m 331.769,558.706 c -3.185,1.275 -5.92,-0.695 -8.009,-6.268 -2.09,-5.572 -4.178,-10.794 0,-12.535 4.179,-1.742 6.616,2.785 8.009,6.616 1.393,3.83 3.482,10.794 0,12.187 z"
       style="fill:none;stroke:#231f20;stroke-width:0.5;stroke-linecap:butt;stroke-linejoin:miter;stroke-miterlimit:4;stroke-dasharray:none;stroke-opacity:1"
       id="path694" />
    <path
       d="m 329.68,527.716 c 0,-1.731 1.715,-3.135 3.83,-3.135 2.116,0 3.83,1.404 3.83,3.135 0,1.73 -1.714,3.133 -3.83,3.133 -2.115,0 -3.83,-1.403 -3.83,-3.133"
       style="fill:#ffffff;fill-opacity:1;fill-rule:nonzero;stroke:none;stroke-width:0.1"
       id="path696" />
    <path
       d="m 329.68,527.716 c 0,-1.731 1.715,-3.135 3.83,-3.135 2.116,0 3.83,1.404 3.83,3.135 0,1.73 -1.714,3.133 -3.83,3.133 -2.115,0 -3.83,-1.403 -3.83,-3.133 z"
       style="fill:none;stroke:#231f20;stroke-width:0.5;stroke-linecap:butt;stroke-linejoin:miter;stroke-miterlimit:4;stroke-dasharray:none;stroke-opacity:1"
       id="path698" />
    <path
       d="m 328.983,520.751 c 0,-1.731 1.559,-3.135 3.482,-3.135 1.924,0 3.483,1.404 3.483,3.135 0,1.732 -1.559,3.135 -3.483,3.135 -1.923,0 -3.482,-1.403 -3.482,-3.135"
       style="fill:#ffffff;fill-opacity:1;fill-rule:nonzero;stroke:none;stroke-width:0.1"
       id="path700" />
    <path
       d="m 328.983,520.751 c 0,-1.731 1.559,-3.135 3.482,-3.135 1.924,0 3.483,1.404 3.483,3.135 0,1.732 -1.559,3.135 -3.483,3.135 -1.923,0 -3.482,-1.403 -3.482,-3.135 z"
       style="fill:none;stroke:#231f20;stroke-width:0.5;stroke-linecap:butt;stroke-linejoin:miter;stroke-miterlimit:4;stroke-dasharray:none;stroke-opacity:1"
       id="path702" />
    <path
       d="m 535.591,298.359 c 0,-2.051 1.975,-3.717 4.411,-3.717 2.436,0 4.41,1.666 4.41,3.717 0,2.051 -1.974,3.713 -4.41,3.713 -2.436,0 -4.411,-1.662 -4.411,-3.713"
       style="fill:#ffffff;fill-opacity:1;fill-rule:nonzero;stroke:none;stroke-width:0.1"
       id="path704" />
    <path
       d="m 535.591,298.359 c 0,-2.051 1.975,-3.717 4.411,-3.717 2.436,0 4.41,1.666 4.41,3.717 0,2.051 -1.974,3.713 -4.41,3.713 -2.436,0 -4.411,-1.662 -4.411,-3.713 z"
       style="fill:none;stroke:#231f20;stroke-width:0.5;stroke-linecap:butt;stroke-linejoin:miter;stroke-miterlimit:4;stroke-dasharray:none;stroke-opacity:1"
       id="path706" />
    <path
       d="m 732.168,633.197 c -0.554,5.01 -1.21,10.238 -1.693,16.046 -1.021,12.297 -0.57,25.64 -4.179,37.607 -13.232,43.875 -39.347,62.679 -59.892,75.215 -11.266,6.873 -22.113,11.443 -30.762,14.284 -8.587,4.171 -23.212,12.876 -29.132,18.796 -5.919,5.92 -16.365,23.679 -17.758,31.687 -1.393,8.009 1.307,14.17 12.536,23.331 13.232,10.795 34.821,27.857 74.17,32.036 39.347,4.178 87.542,-12.89 113.517,-25.768 29.245,-14.499 74.402,-36.562 109.688,-76.491 35.286,-39.93 44.572,-75.215 47.357,-109.572 2.786,-34.357 0,-49.215 -1.393,-55.714 -1.392,-6.5 -11.599,-22.287 -12.536,-28.322 -0.935,-6.034 0.466,-17.179 -3.249,-35.751 -3.715,-18.57 -13.929,-44.572 -24.143,-51.997 -10.214,-7.43 -35.286,-22.752 -63.143,-21.36 -27.857,1.393 -46.429,14.858 -58.501,32.502 -12.071,17.64 -21.356,44.107 -22.285,47.357 -0.929,3.248 -4.179,6.498 -6.965,21.82 -2.785,15.323 -5.571,19.501 -8.356,20.894 -2.786,1.393 -12.562,4.205 -13.281,33.4"
       style="fill:#ffffff;fill-opacity:1;fill-rule:nonzero;stroke:none;stroke-width:0.1"
       id="path708" />
    <path
       d="m 732.168,633.197 c -0.554,5.01 -1.21,10.238 -1.693,16.046 -1.021,12.297 -0.57,25.64 -4.179,37.607 -13.232,43.875 -39.347,62.679 -59.892,75.215 -11.266,6.873 -22.113,11.443 -30.762,14.284 -8.587,4.171 -23.212,12.876 -29.132,18.796 -5.919,5.92 -16.365,23.679 -17.758,31.687 -1.393,8.009 1.307,14.17 12.536,23.331 13.232,10.795 34.821,27.857 74.17,32.036 39.347,4.178 87.542,-12.89 113.517,-25.768 29.245,-14.499 74.402,-36.562 109.688,-76.491 35.286,-39.93 44.572,-75.215 47.357,-109.572 2.786,-34.357 0,-49.215 -1.393,-55.714 -1.392,-6.5 -11.599,-22.287 -12.536,-28.322 -0.935,-6.034 0.466,-17.179 -3.249,-35.751 -3.715,-18.57 -13.929,-44.572 -24.143,-51.997 -10.214,-7.43 -35.286,-22.752 -63.143,-21.36 -27.857,1.393 -46.429,14.858 -58.501,32.502 -12.071,17.64 -21.356,44.107 -22.285,47.357 -0.929,3.248 -4.179,6.498 -6.965,21.82 -2.785,15.323 -5.571,19.501 -8.356,20.894 -2.786,1.393 -12.562,4.205 -13.281,33.4 z"
       style="fill:none;stroke:#231f20;stroke-width:0.75;stroke-linecap:round;stroke-linejoin:round;stroke-miterlimit:4;stroke-dasharray:none;stroke-opacity:1"
       id="path710" />
    <path
       d="m 540.002,735.252 c -8.706,0 -15.67,4.178 -21.589,9.402 -3.917,3.456 -18.804,19.848 -16.367,39.696 3.588,29.215 32.036,28.632 37.956,28.632 5.919,0 34.367,0.583 37.955,-28.632 2.438,-19.848 -12.449,-36.24 -16.366,-39.696 -5.92,-5.224 -12.884,-9.402 -21.589,-9.402"
       style="fill:#b2b1b1;fill-opacity:1;fill-rule:nonzero;stroke:none;stroke-width:0.1"
       id="path712" />
    <path
       d="m 540.002,302.072 c -3.134,0 -5.92,0 -13.929,-3.133 -8.009,-3.135 -13.232,-3.83 -31.688,-0.35 -18.455,3.483 -23.33,3.135 -37.259,8.707 -13.928,5.571 -38.652,22.633 -49.098,32.383 -10.446,9.75 -16.018,20.545 -16.018,20.545 -4.178,2.438 -21.241,9.055 -28.553,9.75 -7.313,0.697 -13.581,3.482 -18.108,6.965 -4.526,3.482 -19.848,20.195 -23.679,28.553 -3.83,8.357 -19.5,29.25 -24.375,34.474 -4.875,5.223 -5.571,5.571 -4.875,17.063 0.697,11.49 4.875,15.668 11.492,17.41 6.616,1.74 17.758,-5.92 17.758,-5.92 -2.785,23.68 7.326,23.066 10.099,22.635 3.917,-0.61 9.401,-8.358 9.401,-8.358 0,0 -2.437,6.965 -4.526,12.536 -2.089,5.572 -1.393,8.009 -0.696,11.491 0.696,3.481 1.392,21.24 1.741,30.293 0.348,9.055 2.785,12.537 4.875,16.715 2.089,4.18 8.009,12.535 6.964,24.375 -0.481,5.434 -2.826,21.322 -2.785,39.002 0.011,5.381 0.492,10.556 1.091,15.989 0.555,5.01 1.211,10.238 1.694,16.046 1.021,12.297 0.57,25.64 4.179,37.607 13.232,43.875 39.348,62.679 59.892,75.215 11.266,6.873 22.113,11.443 30.762,14.284 7.123,2.342 12.755,3.508 15.899,3.822 6.965,0.698 18.804,-5.222 26.465,-10.446 5.496,-3.747 9.75,-9.75 22.634,-22.285 12.884,-12.536 22.634,-12.188 30.643,-12.188 8.008,0 17.758,-0.348 30.642,12.188 12.885,12.535 17.138,18.538 22.635,22.285 7.66,5.224 19.5,11.144 26.464,10.446 3.144,-0.314 8.776,-1.48 15.899,-3.822 8.649,-2.841 19.496,-7.411 30.762,-14.284 20.545,-12.536 46.66,-31.34 59.892,-75.215 3.609,-11.967 3.158,-25.31 4.179,-37.607 0.483,-5.808 1.139,-11.036 1.693,-16.046 0.6,-5.433 1.081,-10.608 1.093,-15.989 0.04,-17.68 -2.305,-33.568 -2.786,-39.002 -1.045,-11.84 4.875,-20.195 6.965,-24.375 2.089,-4.178 4.526,-7.66 4.875,-16.715 0.348,-9.053 1.044,-26.812 1.74,-30.293 0.697,-3.482 1.394,-5.919 -0.696,-11.491 -2.089,-5.571 -4.527,-12.536 -4.527,-12.536 0,0 5.485,7.748 9.402,8.358 2.773,0.431 12.884,1.045 10.098,-22.635 0,0 11.143,7.66 17.759,5.92 6.617,-1.742 10.795,-5.92 11.491,-17.41 0.697,-11.492 0,-11.84 -4.874,-17.063 -4.876,-5.224 -20.545,-26.117 -24.376,-34.474 -3.83,-8.358 -19.152,-25.071 -23.678,-28.553 -4.527,-3.483 -10.795,-6.268 -18.108,-6.965 -7.312,-0.695 -24.375,-7.312 -28.553,-9.75 0,0 -5.572,-10.795 -16.018,-20.545 -10.446,-9.75 -35.17,-26.812 -49.099,-32.383 -13.928,-5.572 -18.803,-5.224 -37.258,-8.707 -18.455,-3.48 -23.679,-2.785 -31.688,0.35 -8.009,3.133 -10.795,3.133 -13.928,3.133"
       style="fill:#ffffff;fill-opacity:1;fill-rule:nonzero;stroke:none;stroke-width:0.1"
       id="path714" />
    <path
       d="m 540.002,302.072 c -3.134,0 -5.92,0 -13.929,-3.133 -8.009,-3.135 -13.232,-3.83 -31.688,-0.35 -18.455,3.483 -23.33,3.135 -37.259,8.707 -13.928,5.571 -38.652,22.633 -49.098,32.383 -10.446,9.75 -16.018,20.545 -16.018,20.545 -4.178,2.438 -21.241,9.055 -28.553,9.75 -7.313,0.697 -13.581,3.482 -18.108,6.965 -4.526,3.482 -19.848,20.195 -23.679,28.553 -3.83,8.357 -19.5,29.25 -24.375,34.474 -4.875,5.223 -5.571,5.571 -4.875,17.063 0.697,11.49 4.875,15.668 11.492,17.41 6.616,1.74 17.758,-5.92 17.758,-5.92 -2.785,23.68 7.326,23.066 10.099,22.635 3.917,-0.61 9.401,-8.358 9.401,-8.358 0,0 -2.437,6.965 -4.526,12.536 -2.089,5.572 -1.393,8.009 -0.696,11.491 0.696,3.481 1.392,21.24 1.741,30.293 0.348,9.055 2.785,12.537 4.875,16.715 2.089,4.18 8.009,12.535 6.964,24.375 -0.481,5.434 -2.826,21.322 -2.785,39.002 0.011,5.381 0.492,10.556 1.091,15.989 0.555,5.01 1.211,10.238 1.694,16.046 1.021,12.297 0.57,25.64 4.179,37.607 13.232,43.875 39.348,62.679 59.892,75.215 11.266,6.873 22.113,11.443 30.762,14.284 7.123,2.342 12.755,3.508 15.899,3.822 6.965,0.698 18.804,-5.222 26.465,-10.446 5.496,-3.747 9.75,-9.75 22.634,-22.285 12.884,-12.536 22.634,-12.188 30.643,-12.188 8.008,0 17.758,-0.348 30.642,12.188 12.885,12.535 17.138,18.538 22.635,22.285 7.66,5.224 19.5,11.144 26.464,10.446 3.144,-0.314 8.776,-1.48 15.899,-3.822 8.649,-2.841 19.496,-7.411 30.762,-14.284 20.545,-12.536 46.66,-31.34 59.892,-75.215 3.609,-11.967 3.158,-25.31 4.179,-37.607 0.483,-5.808 1.139,-11.036 1.693,-16.046 0.6,-5.433 1.081,-10.608 1.093,-15.989 0.04,-17.68 -2.305,-33.568 -2.786,-39.002 -1.045,-11.84 4.875,-20.195 6.965,-24.375 2.089,-4.178 4.526,-7.66 4.875,-16.715 0.348,-9.053 1.044,-26.812 1.74,-30.293 0.697,-3.482 1.394,-5.919 -0.696,-11.491 -2.089,-5.571 -4.527,-12.536 -4.527,-12.536 0,0 5.485,7.748 9.402,8.358 2.773,0.431 12.884,1.045 10.098,-22.635 0,0 11.143,7.66 17.759,5.92 6.617,-1.742 10.795,-5.92 11.491,-17.41 0.697,-11.492 0,-11.84 -4.874,-17.063 -4.876,-5.224 -20.545,-26.117 -24.376,-34.474 -3.83,-8.358 -19.152,-25.071 -23.678,-28.553 -4.527,-3.483 -10.795,-6.268 -18.108,-6.965 -7.312,-0.695 -24.375,-7.312 -28.553,-9.75 0,0 -5.572,-10.795 -16.018,-20.545 -10.446,-9.75 -35.17,-26.812 -49.099,-32.383 -13.928,-5.572 -18.803,-5.224 -37.258,-8.707 -18.455,-3.48 -23.679,-2.785 -31.688,0.35 -8.009,3.133 -10.795,3.133 -13.928,3.133 z"
       style="fill:none;stroke:#231f20;stroke-width:0.75;stroke-linecap:round;stroke-linejoin:round;stroke-miterlimit:4;stroke-dasharray:none;stroke-opacity:1"
       id="path716" />
    <path
       d="m 544.412,298.359 c 0,-2.051 -1.974,-3.717 -4.41,-3.717 -2.436,0 -4.411,1.666 -4.411,3.717 0,2.051 1.975,3.713 4.411,3.713 2.436,0 4.41,-1.662 4.41,-3.713"
       style="fill:#ffffff;fill-opacity:1;fill-rule:nonzero;stroke:none;stroke-width:0.1"
       id="path718" />
    <path
       d="m 544.412,298.359 c 0,-2.051 -1.974,-3.717 -4.41,-3.717 -2.436,0 -4.411,1.666 -4.411,3.717 0,2.051 1.975,3.713 4.411,3.713 2.436,0 4.41,-1.662 4.41,-3.713 z"
       style="fill:none;stroke:#231f20;stroke-width:0.5;stroke-linecap:butt;stroke-linejoin:miter;stroke-miterlimit:4;stroke-dasharray:none;stroke-opacity:1"
       id="path720" />
    <path
       d="m 758.332,468.519 c -4.178,-6.615 -11.839,-20.197 -21.937,-36.563 -10.099,-16.365 -22.982,-33.777 -26.116,-38.302 -3.134,-4.528 -3.83,-11.84 -5.224,-16.367 -1.392,-4.528 -2.217,-10.205 4.638,-8.758"
       style="fill:none;stroke:#231f20;stroke-width:0.5;stroke-linecap:butt;stroke-linejoin:miter;stroke-miterlimit:4;stroke-dasharray:none;stroke-opacity:1"
       id="path722" />
    <path
       d="m 710.279,393.654 c -5.571,-6.965 -13.58,-18.108 -22.286,-33.43"
       style="fill:none;stroke:#231f20;stroke-width:0.5;stroke-linecap:butt;stroke-linejoin:miter;stroke-miterlimit:4;stroke-dasharray:none;stroke-opacity:1"
       id="path724" />
    <path
       d="m 682.47,595.883 c 2.243,1.311 5.746,3.307 7.264,3.914 2.322,0.928 9.75,-0.465 11.142,-0.465 1.394,0 21.48,9.676 25.659,14.32"
       style="fill:none;stroke:#231f20;stroke-width:0.5;stroke-linecap:butt;stroke-linejoin:miter;stroke-miterlimit:4;stroke-dasharray:none;stroke-opacity:1"
       id="path726" />
    <path
       d="m 563.517,741.522 c 7.493,-15.677 35.067,-61.909 52.067,-85.775"
       style="fill:none;stroke:#231f20;stroke-width:0.5;stroke-linecap:butt;stroke-linejoin:miter;stroke-miterlimit:4;stroke-dasharray:none;stroke-opacity:1"
       id="path728" />
    <path
       d="m 397.532,595.883 c -2.243,1.311 -5.746,3.307 -7.264,3.914 -2.322,0.928 -9.75,-0.465 -11.143,-0.465 -1.393,0 -21.479,9.676 -25.658,14.32"
       style="fill:none;stroke:#231f20;stroke-width:0.5;stroke-linecap:butt;stroke-linejoin:miter;stroke-miterlimit:4;stroke-dasharray:none;stroke-opacity:1"
       id="path730" />
    <path
       d="m 516.485,741.522 c -7.493,-15.677 -35.067,-61.909 -52.067,-85.775"
       style="fill:none;stroke:#231f20;stroke-width:0.5;stroke-linecap:butt;stroke-linejoin:miter;stroke-miterlimit:4;stroke-dasharray:none;stroke-opacity:1"
       id="path732" />
    <path
       d="m 730.282,651.839 c -2.012,-15.364 -2.967,-21.966 -3.173,-28.132 -0.142,-4.202 -0.702,-12.32 -1.16,-17.642 -0.561,-6.51 -2.554,-13.697 5.994,-14.202"
       style="fill:none;stroke:#231f20;stroke-width:0.5;stroke-linecap:butt;stroke-linejoin:miter;stroke-miterlimit:4;stroke-dasharray:none;stroke-opacity:1"
       id="path734" />
    <path
       d="m 564.096,482.423 c 5.107,-10.215 11.027,-37.707 -1.974,-71.599"
       style="fill:none;stroke:#231f20;stroke-width:0.5;stroke-linecap:butt;stroke-linejoin:miter;stroke-miterlimit:4;stroke-dasharray:none;stroke-opacity:1"
       id="path736" />
    <path
       d="m 571.997,487.042 c 5.107,-10.212 11.415,-42.318 -1.585,-76.21"
       style="fill:none;stroke:#231f20;stroke-width:0.5;stroke-linecap:butt;stroke-linejoin:miter;stroke-miterlimit:4;stroke-dasharray:none;stroke-opacity:1"
       id="path738" />
    <path
       d="m 670.698,460.048 c 7.429,-3.252 7.548,-10.925 3.833,-17.425 -4.539,-7.938 -10.333,-13.684 -17.762,-10.432 -7.428,3.248 -6.963,12.535 -2.32,19.963 4.642,7.43 11.91,9.793 16.249,7.894 z"
       style="fill:none;stroke:#231f20;stroke-width:0.5;stroke-linecap:butt;stroke-linejoin:miter;stroke-miterlimit:4;stroke-dasharray:none;stroke-opacity:1"
       id="path740" />
    <path
       d="m 664.15,431.855 c -0.88,-5.236 -1.81,-11.738 -4.595,-18.236 -2.786,-6.5 -8.973,-18.393 -5.571,-26.465 3.715,-8.822 9.343,-11.186 19.557,-13.51"
       style="fill:none;stroke:#231f20;stroke-width:0.5;stroke-linecap:butt;stroke-linejoin:miter;stroke-miterlimit:4;stroke-dasharray:none;stroke-opacity:1"
       id="path742" />
    <path
       d="m 738.832,482.796 c -4.991,-7.892 -9.632,-18.57 -10.562,-20.892"
       style="fill:none;stroke:#231f20;stroke-width:0.5;stroke-linecap:butt;stroke-linejoin:miter;stroke-miterlimit:4;stroke-dasharray:none;stroke-opacity:1"
       id="path744" />
    <path
       d="m 675.805,540.948 c 0,0 10.795,2.088 16.715,5.223"
       style="fill:none;stroke:#231f20;stroke-width:0.25;stroke-linecap:butt;stroke-linejoin:miter;stroke-miterlimit:4;stroke-dasharray:none;stroke-opacity:1"
       id="path746" />
    <path
       d="m 678.243,519.706 c 0,0 6.965,1.393 14.973,3.83"
       style="fill:none;stroke:#231f20;stroke-width:0.25;stroke-linecap:butt;stroke-linejoin:miter;stroke-miterlimit:4;stroke-dasharray:none;stroke-opacity:1"
       id="path748" />
    <path
       d="m 680.448,594.69 c 3.366,-6.733 7.197,-16.484 7.197,-16.484"
       style="fill:none;stroke:#231f20;stroke-width:0.25;stroke-linecap:butt;stroke-linejoin:miter;stroke-miterlimit:4;stroke-dasharray:none;stroke-opacity:1"
       id="path750" />
    <path
       d="m 690.43,568.804 c 0,0 7.313,-20.196 9.402,-28.553"
       style="fill:none;stroke:#231f20;stroke-width:0.25;stroke-linecap:butt;stroke-linejoin:miter;stroke-miterlimit:4;stroke-dasharray:none;stroke-opacity:1"
       id="path752" />
    <path
       d="m 700.876,599.332 c 4.179,-10.331 11.319,-28.86 14.105,-36.173"
       style="fill:none;stroke:#231f20;stroke-width:0.25;stroke-linecap:butt;stroke-linejoin:miter;stroke-miterlimit:4;stroke-dasharray:none;stroke-opacity:1"
       id="path754" />
    <path
       d="m 728.27,461.904 c 0,0 -3.366,-11.145 -12.42,-26.465 -9.054,-15.322 -24.375,-33.777 -24.375,-33.777 0,0 13.929,27.509 18.804,35.867 4.875,8.355 17.991,24.375 17.991,24.375 z"
       style="fill:none;stroke:#231f20;stroke-width:0.5;stroke-linecap:butt;stroke-linejoin:miter;stroke-miterlimit:4;stroke-dasharray:none;stroke-opacity:1"
       id="path756" />
    <path
       d="m 691.475,401.662 c 0,0 -7.312,-12.883 -11.839,-21.59"
       style="fill:none;stroke:#231f20;stroke-width:0.5;stroke-linecap:butt;stroke-linejoin:miter;stroke-miterlimit:4;stroke-dasharray:none;stroke-opacity:1"
       id="path758" />
    <path
       d="m 677.895,372.412 c -2.011,-5.327 -5.743,-11.328 -8.706,-9.75 -5.112,2.728 10.447,17.41 10.447,17.41 0,0 -0.207,-3.594 -1.741,-7.66 z"
       style="fill:none;stroke:#231f20;stroke-width:0.5;stroke-linecap:butt;stroke-linejoin:miter;stroke-miterlimit:4;stroke-dasharray:none;stroke-opacity:1"
       id="path760" />
    <path
       d="m 623.921,380.769 c 6.606,-0.514 14.974,-3.83 15.67,-11.49 0.697,-7.662 0,-21.242 -12.187,-24.725 -12.188,-3.482 -25.769,0 -32.036,-1.045 -6.268,-1.045 -21.242,-4.875 -29.25,-1.392 -8.009,3.482 -9.054,6.965 -4.527,8.009 4.527,1.045 21.938,5.92 29.25,10.795 7.313,4.875 15.838,12.008 18.455,14.625 2.873,2.873 10.578,5.539 14.625,5.223 z"
       style="fill:none;stroke:#231f20;stroke-width:0.5;stroke-linecap:butt;stroke-linejoin:miter;stroke-miterlimit:4;stroke-dasharray:none;stroke-opacity:1"
       id="path762" />
    <path
       d="m 551.493,385.296 c -0.349,-2.787 -0.697,-26.117 5.223,-27.857 5.919,-1.742 18.107,1.045 25.072,4.527 6.964,3.481 21.588,12.883 23.678,15.668 2.089,2.787 -1.393,4.528 -5.92,4.528 -4.526,0 -17.411,0.697 -26.116,3.134 -8.705,2.438 -17.411,4.178 -19.5,3.483 -2.089,-0.697 -2.437,-3.483 -2.437,-3.483 z"
       style="fill:none;stroke:#231f20;stroke-width:0.5;stroke-linecap:butt;stroke-linejoin:miter;stroke-miterlimit:4;stroke-dasharray:none;stroke-opacity:1"
       id="path764" />
    <path
       d="m 551.72,371.357 c 12.656,-0.686 28.229,0.412 35.988,2.099 8.008,1.741 13.58,3.336 18.281,5.151"
       style="fill:none;stroke:#231f20;stroke-width:0.5;stroke-linecap:butt;stroke-linejoin:miter;stroke-miterlimit:4;stroke-dasharray:none;stroke-opacity:1"
       id="path766" />
    <path
       d="m 578.159,523.384 c 8.009,-2.09 33.923,-10.99 46.459,-13.776 12.536,-2.785 24.723,-5.222 28.206,-5.92 3.481,-0.696 6.615,-0.696 8.008,1.045 1.393,1.741 3.482,2.786 -0.696,6.616 -4.904,4.498 -12.884,13.929 -16.715,19.5 -3.83,5.572 -14.276,15.67 -20.892,13.929 -6.616,-1.742 -28.806,-8.91 -28.806,-8.91"
       style="fill:none;stroke:#231f20;stroke-width:0.5;stroke-linecap:butt;stroke-linejoin:miter;stroke-miterlimit:4;stroke-dasharray:none;stroke-opacity:1"
       id="path768" />
    <path
       d="m 547.663,523.886 c 0.173,-2.432 0.347,-9.75 5.919,-8.358 5.572,1.393 15.67,4.178 18.803,5.223 3.134,1.045 8.01,3.482 14.974,8.705 6.964,5.223 13.58,17.41 17.411,24.027 0,0 -16.018,-13.929 -25.072,-18.107 -9.054,-4.178 -15.322,-3.135 -20.196,-2.438 -4.876,0.698 -12.536,0.698 -11.839,-9.052 z"
       style="fill:none;stroke:#231f20;stroke-width:0.5;stroke-linecap:butt;stroke-linejoin:miter;stroke-miterlimit:4;stroke-dasharray:none;stroke-opacity:1"
       id="path770" />
    <path
       d="m 619.395,567.411 c 0,-2.5 -2.027,-4.525 -4.527,-4.525 -2.5,0 -4.527,2.025 -4.527,4.525 0,2.5 2.027,4.527 4.527,4.527 2.5,0 4.527,-2.027 4.527,-4.527 z"
       style="fill:none;stroke:#231f20;stroke-width:0.5;stroke-linecap:butt;stroke-linejoin:miter;stroke-miterlimit:4;stroke-dasharray:none;stroke-opacity:1"
       id="path772" />
    <path
       d="m 604.77,553.483 c 0,0 4.045,4.862 7.245,10.442"
       style="fill:none;stroke:#231f20;stroke-width:0.5;stroke-linecap:butt;stroke-linejoin:miter;stroke-miterlimit:4;stroke-dasharray:none;stroke-opacity:1"
       id="path774" />
    <path
       d="m 624.27,599.101 c 0,-7.662 -1.461,-22.813 -5.432,-29.514"
       style="fill:none;stroke:#231f20;stroke-width:0.5;stroke-linecap:butt;stroke-linejoin:miter;stroke-miterlimit:4;stroke-dasharray:none;stroke-opacity:1"
       id="path776" />
    <path
       d="m 624.27,599.101 c -2.09,-8.011 -2.438,-17.065 -9.402,-27.163"
       style="fill:none;stroke:#231f20;stroke-width:0.5;stroke-linecap:butt;stroke-linejoin:miter;stroke-miterlimit:4;stroke-dasharray:none;stroke-opacity:1"
       id="path778" />
    <path
       d="m 321.67,468.519 c 4.179,-6.615 11.84,-20.197 21.938,-36.563 10.099,-16.365 22.982,-33.777 26.116,-38.302 3.135,-4.528 3.831,-11.84 5.224,-16.367 1.392,-4.528 2.217,-10.205 -4.637,-8.758"
       style="fill:none;stroke:#231f20;stroke-width:0.5;stroke-linecap:butt;stroke-linejoin:miter;stroke-miterlimit:4;stroke-dasharray:none;stroke-opacity:1"
       id="path780" />
    <path
       d="m 369.724,393.654 c 5.572,-6.965 13.581,-18.108 22.286,-33.43"
       style="fill:none;stroke:#231f20;stroke-width:0.5;stroke-linecap:butt;stroke-linejoin:miter;stroke-miterlimit:4;stroke-dasharray:none;stroke-opacity:1"
       id="path782" />
    <path
       d="m 349.721,651.839 c 2.012,-15.364 2.967,-21.966 3.174,-28.132 0.141,-4.202 0.701,-12.32 1.16,-17.642 0.56,-6.51 2.553,-13.697 -5.995,-14.202"
       style="fill:none;stroke:#231f20;stroke-width:0.5;stroke-linecap:butt;stroke-linejoin:miter;stroke-miterlimit:4;stroke-dasharray:none;stroke-opacity:1"
       id="path784" />
    <path
       d="m 455.734,599.101 c 0,4.642 0.464,21.588 2.321,36.91 1.859,15.321 10.678,21.821 16.249,26.464 5.572,4.644 18.108,11.607 27.858,14.857 9.75,3.25 30.644,3.714 37.84,3.714 7.195,0 28.089,-0.464 37.839,-3.714 9.75,-3.25 22.286,-10.213 27.858,-14.857 5.571,-4.643 14.39,-11.143 16.249,-26.464 1.858,-15.322 2.322,-32.268 2.322,-36.91"
       style="fill:none;stroke:#231f20;stroke-width:0.5;stroke-linecap:butt;stroke-linejoin:miter;stroke-miterlimit:4;stroke-dasharray:none;stroke-opacity:1"
       id="path786" />
    <path
       d="m 540.002,573.796 c -3.948,0 -8.126,0.928 -9.054,3.25 -0.928,2.322 -4.179,4.642 -7.893,6.965 -3.714,2.321 -3.715,5.571 -4.642,8.821 -0.929,3.25 -2.322,11.144 -6.501,15.322 -4.18,4.178 -2.321,16.714 -2.321,23.214 0,6.5 4.179,13 6.5,15.321 2.322,2.321 12.999,6.965 16.715,9.286 3.713,2.322 4.179,5.107 7.196,5.107 3.016,0 3.482,-2.785 7.195,-5.107 3.717,-2.321 14.394,-6.965 16.715,-9.286 2.321,-2.321 6.5,-8.821 6.5,-15.321 0,-6.5 1.859,-19.036 -2.321,-23.214 -4.179,-4.178 -5.572,-12.072 -6.5,-15.322 -0.927,-3.25 -0.929,-6.5 -4.644,-8.821 -3.713,-2.323 -6.964,-4.643 -7.892,-6.965 -0.928,-2.322 -5.106,-3.25 -9.053,-3.25"
       style="fill:#706d6e;fill-opacity:1;fill-rule:nonzero;stroke:none;stroke-width:0.1"
       id="path788" />
    <path
       d="m 540.002,573.796 c -3.948,0 -8.126,0.928 -9.054,3.25 -0.928,2.322 -4.179,4.642 -7.893,6.965 -3.714,2.321 -3.715,5.571 -4.642,8.821 -0.929,3.25 -2.322,11.144 -6.501,15.322 -4.18,4.178 -2.321,16.714 -2.321,23.214 0,6.5 4.179,13 6.5,15.321 2.322,2.321 12.999,6.965 16.715,9.286 3.713,2.322 4.179,5.107 7.196,5.107 3.016,0 3.482,-2.785 7.195,-5.107 3.717,-2.321 14.394,-6.965 16.715,-9.286 2.321,-2.321 6.5,-8.821 6.5,-15.321 0,-6.5 1.859,-19.036 -2.321,-23.214 -4.179,-4.178 -5.572,-12.072 -6.5,-15.322 -0.927,-3.25 -0.929,-6.5 -4.644,-8.821 -3.713,-2.323 -6.964,-4.643 -7.892,-6.965 -0.928,-2.322 -5.106,-3.25 -9.053,-3.25 z"
       style="fill:none;stroke:#231f20;stroke-width:0.75;stroke-linecap:round;stroke-linejoin:round;stroke-miterlimit:4;stroke-dasharray:none;stroke-opacity:1"
       id="path790" />
    <path
       d="M 515.908,482.423 C 510.8,472.208 504.88,444.716 517.881,410.824"
       style="fill:none;stroke:#231f20;stroke-width:0.5;stroke-linecap:butt;stroke-linejoin:miter;stroke-miterlimit:4;stroke-dasharray:none;stroke-opacity:1"
       id="path792" />
    <path
       d="m 508.006,487.042 c -5.107,-10.212 -11.415,-42.318 1.585,-76.21"
       style="fill:none;stroke:#231f20;stroke-width:0.5;stroke-linecap:butt;stroke-linejoin:miter;stroke-miterlimit:4;stroke-dasharray:none;stroke-opacity:1"
       id="path794" />
    <path
       d="m 409.305,460.048 c -7.429,-3.252 -7.548,-10.925 -3.833,-17.425 4.539,-7.938 10.334,-13.684 17.762,-10.432 7.428,3.248 6.963,12.535 2.32,19.963 -4.642,7.43 -11.91,9.793 -16.249,7.894 z"
       style="fill:none;stroke:#231f20;stroke-width:0.5;stroke-linecap:butt;stroke-linejoin:miter;stroke-miterlimit:4;stroke-dasharray:none;stroke-opacity:1"
       id="path796" />
    <path
       d="m 415.853,431.855 c 0.881,-5.236 1.81,-11.738 4.595,-18.236 2.786,-6.5 8.972,-18.393 5.572,-26.465 -3.715,-8.822 -9.344,-11.186 -19.558,-13.51"
       style="fill:none;stroke:#231f20;stroke-width:0.5;stroke-linecap:butt;stroke-linejoin:miter;stroke-miterlimit:4;stroke-dasharray:none;stroke-opacity:1"
       id="path798" />
    <path
       d="m 341.17,482.796 c 4.992,-7.892 9.634,-18.57 10.563,-20.892"
       style="fill:none;stroke:#231f20;stroke-width:0.5;stroke-linecap:butt;stroke-linejoin:miter;stroke-miterlimit:4;stroke-dasharray:none;stroke-opacity:1"
       id="path800" />
    <path
       d="m 404.198,540.948 c 0,0 -10.795,2.088 -16.714,5.223"
       style="fill:none;stroke:#231f20;stroke-width:0.25;stroke-linecap:butt;stroke-linejoin:miter;stroke-miterlimit:4;stroke-dasharray:none;stroke-opacity:1"
       id="path802" />
    <path
       d="m 401.76,519.706 c 0,0 -6.964,1.393 -14.973,3.83"
       style="fill:none;stroke:#231f20;stroke-width:0.25;stroke-linecap:butt;stroke-linejoin:miter;stroke-miterlimit:4;stroke-dasharray:none;stroke-opacity:1"
       id="path804" />
    <path
       d="m 399.555,594.69 c -3.366,-6.733 -7.196,-16.484 -7.196,-16.484"
       style="fill:none;stroke:#231f20;stroke-width:0.25;stroke-linecap:butt;stroke-linejoin:miter;stroke-miterlimit:4;stroke-dasharray:none;stroke-opacity:1"
       id="path806" />
    <path
       d="m 389.573,568.804 c 0,0 -7.313,-20.196 -9.402,-28.553"
       style="fill:none;stroke:#231f20;stroke-width:0.25;stroke-linecap:butt;stroke-linejoin:miter;stroke-miterlimit:4;stroke-dasharray:none;stroke-opacity:1"
       id="path808" />
    <path
       d="m 379.126,599.332 c -4.178,-10.331 -11.318,-28.86 -14.104,-36.173"
       style="fill:none;stroke:#231f20;stroke-width:0.25;stroke-linecap:butt;stroke-linejoin:miter;stroke-miterlimit:4;stroke-dasharray:none;stroke-opacity:1"
       id="path810" />
    <path
       d="m 351.733,461.904 c 0,0 3.366,-11.145 12.42,-26.465 9.054,-15.322 24.375,-33.777 24.375,-33.777 0,0 -13.929,27.509 -18.804,35.867 -4.875,8.355 -17.991,24.375 -17.991,24.375 z"
       style="fill:none;stroke:#231f20;stroke-width:0.5;stroke-linecap:butt;stroke-linejoin:miter;stroke-miterlimit:4;stroke-dasharray:none;stroke-opacity:1"
       id="path812" />
    <path
       d="m 388.528,401.662 c 0,0 7.312,-12.883 11.84,-21.59"
       style="fill:none;stroke:#231f20;stroke-width:0.5;stroke-linecap:butt;stroke-linejoin:miter;stroke-miterlimit:4;stroke-dasharray:none;stroke-opacity:1"
       id="path814" />
    <path
       d="m 402.109,372.412 c 2.01,-5.327 5.742,-11.328 8.705,-9.75 5.113,2.728 -10.446,17.41 -10.446,17.41 0,0 0.206,-3.594 1.741,-7.66 z"
       style="fill:none;stroke:#231f20;stroke-width:0.5;stroke-linecap:butt;stroke-linejoin:miter;stroke-miterlimit:4;stroke-dasharray:none;stroke-opacity:1"
       id="path816" />
    <path
       d="m 410.814,362.662 c 0,0 3.134,-7.313 11.839,-17.76 8.224,-9.865 16.018,-14.625 22.982,-24.375 6.965,-9.75 8.705,-9.401 14.278,-11.143 5.571,-1.74 19.847,-5.222 39,-4.525 19.151,0.695 32.035,8.355 35.169,11.142 3.134,2.786 3.482,4.178 3.482,5.571 0,1.392 0,21.242 0,26.465 0,5.222 0,50.839 0,53.277 0,2.437 2.438,2.09 2.438,2.09 0,0 2.437,0.347 2.437,-2.09 0,-2.438 0,-48.055 0,-53.277 0,-5.223 0,-25.073 0,-26.465 0,-1.393 0.349,-2.785 3.482,-5.571 3.134,-2.787 16.018,-10.447 35.17,-11.142 19.152,-0.697 33.429,2.785 39,4.525 5.572,1.742 7.313,1.393 14.277,11.143 6.964,9.75 14.758,14.51 22.982,24.375 8.705,10.447 11.839,17.76 11.839,17.76"
       style="fill:none;stroke:#231f20;stroke-width:0.5;stroke-linecap:butt;stroke-linejoin:miter;stroke-miterlimit:4;stroke-dasharray:none;stroke-opacity:1"
       id="path818" />
    <path
       d="m 456.082,380.769 c -6.605,-0.514 -14.973,-3.83 -15.669,-11.49 -0.698,-7.662 0,-21.242 12.187,-24.725 12.188,-3.482 25.768,0 32.035,-1.045 6.268,-1.045 21.241,-4.875 29.25,-1.392 8.009,3.482 9.054,6.965 4.528,8.009 -4.528,1.045 -21.938,5.92 -29.25,10.795 -7.313,4.875 -15.839,12.008 -18.456,14.625 -2.873,2.873 -10.579,5.539 -14.625,5.223 z"
       style="fill:none;stroke:#231f20;stroke-width:0.5;stroke-linecap:butt;stroke-linejoin:miter;stroke-miterlimit:4;stroke-dasharray:none;stroke-opacity:1"
       id="path820" />
    <path
       d="m 528.51,385.296 c 0.349,-2.787 0.697,-26.117 -5.222,-27.857 -5.92,-1.742 -18.108,1.045 -25.073,4.527 -6.964,3.481 -21.589,12.883 -23.677,15.668 -2.09,2.787 1.392,4.528 5.919,4.528 4.527,0 17.411,0.697 26.116,3.134 8.706,2.438 17.411,4.178 19.5,3.483 2.09,-0.697 2.437,-3.483 2.437,-3.483 z"
       style="fill:none;stroke:#231f20;stroke-width:0.5;stroke-linecap:butt;stroke-linejoin:miter;stroke-miterlimit:4;stroke-dasharray:none;stroke-opacity:1"
       id="path822" />
    <path
       d="m 528.284,371.357 c -12.658,-0.686 -28.229,0.412 -35.988,2.099 -8.008,1.741 -13.581,3.336 -18.281,5.151"
       style="fill:none;stroke:#231f20;stroke-width:0.5;stroke-linecap:butt;stroke-linejoin:miter;stroke-miterlimit:4;stroke-dasharray:none;stroke-opacity:1"
       id="path824" />
    <path
       d="m 501.845,523.384 c -8.01,-2.09 -33.924,-10.99 -46.46,-13.776 -12.535,-2.785 -24.723,-5.222 -28.205,-5.92 -3.482,-0.696 -6.616,-0.696 -8.009,1.045 -1.393,1.741 -3.482,2.786 0.697,6.616 4.903,4.498 12.883,13.929 16.714,19.5 3.831,5.572 14.277,15.67 20.893,13.929 6.615,-1.742 28.805,-8.91 28.805,-8.91"
       style="fill:none;stroke:#231f20;stroke-width:0.5;stroke-linecap:butt;stroke-linejoin:miter;stroke-miterlimit:4;stroke-dasharray:none;stroke-opacity:1"
       id="path826" />
    <path
       d="m 532.341,523.886 c -0.175,-2.432 -0.348,-9.75 -5.92,-8.358 -5.571,1.393 -15.67,4.178 -18.803,5.223 -3.134,1.045 -8.009,3.482 -14.974,8.705 -6.964,5.223 -13.58,17.41 -17.41,24.027 0,0 16.017,-13.929 25.071,-18.107 9.054,-4.178 15.321,-3.135 20.196,-2.438 4.875,0.698 12.537,0.698 11.84,-9.052 z"
       style="fill:none;stroke:#231f20;stroke-width:0.5;stroke-linecap:butt;stroke-linejoin:miter;stroke-miterlimit:4;stroke-dasharray:none;stroke-opacity:1"
       id="path828" />
    <path
       d="m 460.609,567.411 c 0,-2.5 2.026,-4.525 4.526,-4.525 2.5,0 4.528,2.025 4.528,4.525 0,2.5 -2.028,4.527 -4.528,4.527 -2.5,0 -4.526,-2.027 -4.526,-4.527 z"
       style="fill:none;stroke:#231f20;stroke-width:0.5;stroke-linecap:butt;stroke-linejoin:miter;stroke-miterlimit:4;stroke-dasharray:none;stroke-opacity:1"
       id="path830" />
    <path
       d="m 475.234,553.483 c 0,0 -4.046,4.862 -7.246,10.442"
       style="fill:none;stroke:#231f20;stroke-width:0.5;stroke-linecap:butt;stroke-linejoin:miter;stroke-miterlimit:4;stroke-dasharray:none;stroke-opacity:1"
       id="path832" />
    <path
       d="m 455.734,599.101 c 0,-7.662 1.461,-22.813 5.431,-29.514"
       style="fill:none;stroke:#231f20;stroke-width:0.5;stroke-linecap:butt;stroke-linejoin:miter;stroke-miterlimit:4;stroke-dasharray:none;stroke-opacity:1"
       id="path834" />
    <path
       d="m 455.734,599.101 c 2.089,-8.011 2.437,-17.065 9.401,-27.163"
       style="fill:none;stroke:#231f20;stroke-width:0.5;stroke-linecap:butt;stroke-linejoin:miter;stroke-miterlimit:4;stroke-dasharray:none;stroke-opacity:1"
       id="path836" />
    <path
       d="m 616.21,574.665 c 0,-0.623 -0.502,-1.125 -1.128,-1.125 -0.622,0 -1.125,0.502 -1.125,1.125 0,0.623 0.503,1.127 1.125,1.127 0.626,0 1.128,-0.504 1.128,-1.127"
       style="fill:#231f20;fill-opacity:1;fill-rule:nonzero;stroke:none;stroke-width:0.1"
       id="path838" />
    <path
       d="m 623.164,595.686 c 0,-0.622 -0.5,-1.126 -1.126,-1.126 -0.623,0 -1.126,0.504 -1.126,1.126 0,0.623 0.503,1.127 1.126,1.127 0.626,0 1.126,-0.504 1.126,-1.127"
       style="fill:#231f20;fill-opacity:1;fill-rule:nonzero;stroke:none;stroke-width:0.1"
       id="path840" />
    <path
       d="m 620.161,582.251 c 0,-0.623 -0.501,-1.125 -1.127,-1.125 -0.622,0 -1.126,0.502 -1.126,1.125 0,0.623 0.504,1.127 1.126,1.127 0.626,0 1.127,-0.504 1.127,-1.127"
       style="fill:#231f20;fill-opacity:1;fill-rule:nonzero;stroke:none;stroke-width:0.1"
       id="path842" />
    <path
       d="m 623.004,583.675 c 0,-0.623 -0.5,-1.127 -1.126,-1.127 -0.623,0 -1.126,0.504 -1.126,1.127 0,0.623 0.503,1.125 1.126,1.125 0.626,0 1.126,-0.502 1.126,-1.125"
       style="fill:#231f20;fill-opacity:1;fill-rule:nonzero;stroke:none;stroke-width:0.1"
       id="path844" />
    <path
       d="m 463.794,574.665 c 0,-0.623 0.5,-1.125 1.126,-1.125 0.623,0 1.126,0.502 1.126,1.125 0,0.623 -0.503,1.127 -1.126,1.127 -0.626,0 -1.126,-0.504 -1.126,-1.127"
       style="fill:#231f20;fill-opacity:1;fill-rule:nonzero;stroke:none;stroke-width:0.1"
       id="path846" />
    <path
       d="m 456.839,595.686 c 0,-0.622 0.501,-1.126 1.126,-1.126 0.623,0 1.127,0.504 1.127,1.126 0,0.623 -0.504,1.127 -1.127,1.127 -0.625,0 -1.126,-0.504 -1.126,-1.127"
       style="fill:#231f20;fill-opacity:1;fill-rule:nonzero;stroke:none;stroke-width:0.1"
       id="path848" />
    <path
       d="m 459.843,582.251 c 0,-0.623 0.5,-1.125 1.126,-1.125 0.623,0 1.126,0.502 1.126,1.125 0,0.623 -0.503,1.127 -1.126,1.127 -0.626,0 -1.126,-0.504 -1.126,-1.127"
       style="fill:#231f20;fill-opacity:1;fill-rule:nonzero;stroke:none;stroke-width:0.1"
       id="path850" />
    <path
       d="m 456.999,583.675 c 0,-0.623 0.501,-1.127 1.126,-1.127 0.623,0 1.126,0.504 1.126,1.127 0,0.623 -0.503,1.125 -1.126,1.125 -0.625,0 -1.126,-0.502 -1.126,-1.125"
       style="fill:#231f20;fill-opacity:1;fill-rule:nonzero;stroke:none;stroke-width:0.1"
       id="path852" />
    <path
       d="m 806.734,717.261 c -10.679,7.894 -34.358,25.536 -45.5,36.214 -11.143,10.679 -31.572,25.536 -30.644,27.394 0.93,1.856 8.824,-0.464 17.644,-7.894 8.821,-7.429 30.18,-26.465 37.607,-34.357 7.428,-7.893 20.893,-21.357 20.893,-21.357 z"
       style="fill:none;stroke:#231f20;stroke-width:0.5;stroke-linecap:butt;stroke-linejoin:miter;stroke-miterlimit:4;stroke-dasharray:none;stroke-opacity:1"
       id="path854" />
    <path
       d="m 347.834,633.197 c 0.554,5.01 1.209,10.238 1.693,16.046 1.021,12.297 0.569,25.64 4.179,37.607 13.231,43.875 39.347,62.679 59.892,75.215 11.266,6.873 22.113,11.443 30.762,14.284 8.587,4.171 23.212,12.876 29.131,18.796 5.92,5.92 16.366,23.679 17.759,31.687 1.393,8.009 -1.307,14.17 -12.536,23.331 -13.232,10.795 -34.821,27.857 -74.17,32.036 -39.347,4.178 -87.543,-12.89 -113.517,-25.768 -29.245,-14.499 -74.402,-36.562 -109.689,-76.491 -35.285,-39.93 -44.571,-75.215 -47.356,-109.572 -2.786,-34.357 0,-49.215 1.393,-55.714 1.392,-6.5 11.599,-22.287 12.536,-28.322 0.935,-6.034 -0.466,-17.179 3.249,-35.751 3.715,-18.57 13.929,-44.572 24.143,-51.997 10.214,-7.43 35.285,-22.752 63.143,-21.36 27.857,1.393 46.429,14.858 58.5,32.502 12.072,17.64 21.357,44.107 22.286,47.357 0.929,3.248 4.179,6.498 6.964,21.82 2.786,15.323 5.572,19.501 8.357,20.894 2.786,1.393 12.562,4.205 13.281,33.4"
       style="fill:#ffffff;fill-opacity:1;fill-rule:nonzero;stroke:none;stroke-width:0.1"
       id="path856" />
    <path
       d="m 347.834,633.197 c 0.554,5.01 1.209,10.238 1.693,16.046 1.021,12.297 0.569,25.64 4.179,37.607 13.231,43.875 39.347,62.679 59.892,75.215 11.266,6.873 22.113,11.443 30.762,14.284 8.587,4.171 23.212,12.876 29.131,18.796 5.92,5.92 16.366,23.679 17.759,31.687 1.393,8.009 -1.307,14.17 -12.536,23.331 -13.232,10.795 -34.821,27.857 -74.17,32.036 -39.347,4.178 -87.543,-12.89 -113.517,-25.768 -29.245,-14.499 -74.402,-36.562 -109.689,-76.491 -35.285,-39.93 -44.571,-75.215 -47.356,-109.572 -2.786,-34.357 0,-49.215 1.393,-55.714 1.392,-6.5 11.599,-22.287 12.536,-28.322 0.935,-6.034 -0.466,-17.179 3.249,-35.751 3.715,-18.57 13.929,-44.572 24.143,-51.997 10.214,-7.43 35.285,-22.752 63.143,-21.36 27.857,1.393 46.429,14.858 58.5,32.502 12.072,17.64 21.357,44.107 22.286,47.357 0.929,3.248 4.179,6.498 6.964,21.82 2.786,15.323 5.572,19.501 8.357,20.894 2.786,1.393 12.562,4.205 13.281,33.4 z"
       style="fill:none;stroke:#231f20;stroke-width:0.75;stroke-linecap:round;stroke-linejoin:round;stroke-miterlimit:4;stroke-dasharray:none;stroke-opacity:1"
       id="path858" />
    <path
       d="m 273.267,717.261 c 10.68,7.894 34.359,25.536 45.501,36.214 11.143,10.679 31.572,25.536 30.643,27.394 -0.929,1.856 -8.823,-0.464 -17.643,-7.894 -8.821,-7.429 -30.18,-26.465 -37.607,-34.357 -7.429,-7.893 -20.894,-21.357 -20.894,-21.357 z"
       style="fill:none;stroke:#231f20;stroke-width:0.5;stroke-linecap:butt;stroke-linejoin:miter;stroke-miterlimit:4;stroke-dasharray:none;stroke-opacity:1"
       id="path860" />
    <path
       d="m 637.936,872.969 c 19.299,-21.993 62.476,-70.28 92.654,-92.1"
       style="fill:none;stroke:#231f20;stroke-width:0.5;stroke-linecap:round;stroke-linejoin:round;stroke-miterlimit:4;stroke-dasharray:2.8, 1.8;stroke-dashoffset:0;stroke-opacity:1"
       id="path862" />
    <path
       d="m 931.453,571.903 c -13.29,17.679 -43.004,55.751 -56.468,75.251 -13.465,19.5 -45.501,51.536 -68.251,70.107"
       style="fill:none;stroke:#231f20;stroke-width:0.5;stroke-linecap:round;stroke-linejoin:round;stroke-miterlimit:4;stroke-dasharray:2.8, 1.8;stroke-dashoffset:0;stroke-opacity:1"
       id="path864" />
    <path
       d="m 601.288,850.163 c 13.696,-8.937 75.901,-41.913 101.906,-46.086"
       style="fill:none;stroke:#231f20;stroke-width:0.5;stroke-linecap:round;stroke-linejoin:round;stroke-miterlimit:4;stroke-dasharray:2.8, 1.8;stroke-dashoffset:0;stroke-opacity:1"
       id="path866" />
    <path
       d="m 612.098,790.486 c 10.315,5.239 57.252,15.57 92.516,12.262"
       style="fill:none;stroke:#231f20;stroke-width:0.5;stroke-linecap:round;stroke-linejoin:round;stroke-miterlimit:4;stroke-dasharray:2.8, 1.8;stroke-dashoffset:0;stroke-opacity:1"
       id="path868" />
    <path
       d="m 764.078,867.131 -26.75,-87.103"
       style="fill:none;stroke:#231f20;stroke-width:0.5;stroke-linecap:round;stroke-linejoin:round;stroke-miterlimit:4;stroke-dasharray:2.8, 1.8;stroke-dashoffset:0;stroke-opacity:1"
       id="path870" />
    <path
       d="m 840.803,828.196 -61.87,-82.741"
       style="fill:none;stroke:#231f20;stroke-width:0.5;stroke-linecap:round;stroke-linejoin:round;stroke-miterlimit:4;stroke-dasharray:2.8, 1.8;stroke-dashoffset:0;stroke-opacity:1"
       id="path872" />
    <path
       d="m 816.752,708.745 c 0,0 45.697,30.802 81.911,71.195"
       style="fill:none;stroke:#231f20;stroke-width:0.5;stroke-linecap:round;stroke-linejoin:round;stroke-miterlimit:4;stroke-dasharray:2.8, 1.8;stroke-dashoffset:0;stroke-opacity:1"
       id="path874" />
    <path
       d="m 845.324,681.552 c 19.447,-3.291 68.208,9.821 96.523,17.425"
       style="fill:none;stroke:#231f20;stroke-width:0.5;stroke-linecap:round;stroke-linejoin:round;stroke-miterlimit:4;stroke-dasharray:2.8, 1.8;stroke-dashoffset:0;stroke-opacity:1"
       id="path876" />
    <path
       d="m 869.258,654.827 c 9.441,-8.602 44.263,-26.709 75.369,-40.173"
       style="fill:none;stroke:#231f20;stroke-width:0.5;stroke-linecap:round;stroke-linejoin:round;stroke-miterlimit:4;stroke-dasharray:2.8, 1.8;stroke-dashoffset:0;stroke-opacity:1"
       id="path878" />
    <path
       d="m 745.449,599.797 c 3.249,0 7.427,4.179 9.75,33.428 2.321,29.25 4.177,60.821 4.642,69.179 0.465,8.356 -0.464,19.036 -6.036,19.964 -5.571,0.928 -8.486,-3.958 -10.343,-7.207 -1.856,-3.25 -4.514,-12.293 -4.978,-22.507 -0.464,-10.214 -0.929,-33.894 1.857,-45.965 2.785,-12.071 8.823,-20.893 14.858,-13.464"
       style="fill:none;stroke:#231f20;stroke-width:0.5;stroke-linecap:round;stroke-linejoin:round;stroke-miterlimit:4;stroke-dasharray:2.8, 1.8;stroke-dashoffset:0;stroke-opacity:1"
       id="path880" />
    <path
       d="m 760.356,674.184 c 3.25,3.831 9.025,5.33 13.413,4.077 6.501,-1.857 16.715,-15.321 27.857,-41.786 11.144,-26.464 15.788,-51.537 28.323,-71.501 12.536,-19.963 26.465,-18.571 37.607,-8.821 11.143,9.75 22.751,25.535 26.465,33.429 3.713,7.893 6.015,17.518 14.613,12.242"
       style="fill:none;stroke:#231f20;stroke-width:0.5;stroke-linecap:round;stroke-linejoin:round;stroke-miterlimit:4;stroke-dasharray:2.8, 1.8;stroke-dashoffset:7.5038;stroke-opacity:1"
       id="path882" />
    <path
       d="m 319.647,674.184 c -3.25,3.831 -9.025,5.33 -13.413,4.077 -6.501,-1.857 -16.715,-15.321 -27.858,-41.786 -11.142,-26.464 -15.786,-51.537 -28.322,-71.501 -12.536,-19.963 -26.465,-18.571 -37.607,-8.821 -11.143,9.75 -22.751,25.535 -26.464,33.429 -3.714,7.893 -6.016,17.518 -14.614,12.242"
       style="fill:none;stroke:#231f20;stroke-width:0.5;stroke-linecap:round;stroke-linejoin:round;stroke-miterlimit:4;stroke-dasharray:2.8, 1.8;stroke-dashoffset:7.5038;stroke-opacity:1"
       id="path884" />
    <path
       d="m 913.707,595.187 c 2.134,-8.855 4.458,-20.924 -5.758,-38.104 -10.215,-17.18 -28.784,-39.932 -52.928,-41.787 -24.145,-1.858 -42.251,6.502 -51.072,29.25 -8.822,22.75 -15.803,52.924 -19.5,65 -6.965,22.75 -18.375,32.95 -28.224,37.135"
       style="fill:none;stroke:#231f20;stroke-width:0.5;stroke-linecap:round;stroke-linejoin:round;stroke-miterlimit:4;stroke-dasharray:2.8, 1.8;stroke-dashoffset:0;stroke-opacity:1"
       id="path886" />
    <path
       d="M 849.06,677.685 860.755,478.732"
       style="fill:none;stroke:#231f20;stroke-width:0.5;stroke-linecap:round;stroke-linejoin:round;stroke-miterlimit:4;stroke-dasharray:2.8, 1.8;stroke-dashoffset:0;stroke-opacity:1"
       id="path888" />
    <path
       d="m 604.01,775.911 c 5.867,-10.365 12.785,-29.14 -9.71,-87.77"
       style="fill:none;stroke:#231f20;stroke-width:0.5;stroke-linecap:round;stroke-linejoin:round;stroke-miterlimit:4;stroke-dasharray:2.8, 1.8;stroke-dashoffset:0;stroke-opacity:1"
       id="path890" />
    <path
       d="m 615.587,655.744 c -3.549,5.083 -1.533,14.159 -0.603,22.981 0.929,8.821 6.5,23.446 12.535,28.321 6.718,5.427 14.857,7.893 21.822,2.322 6.964,-5.572 20.895,-26 24.608,-31.572 3.714,-5.571 9.75,-13.464 13.928,-17.178 4.179,-3.714 10.678,-6.964 7.892,-23.214 -2.785,-16.25 -8.097,-35.725 -13.334,-41.54"
       style="fill:none;stroke:#231f20;stroke-width:0.5;stroke-linecap:round;stroke-linejoin:round;stroke-miterlimit:4;stroke-dasharray:2.8, 1.8;stroke-dashoffset:0;stroke-opacity:1"
       id="path892" />
    <path
       d="m 674.413,746.046 c -3.522,0.321 8.822,-5.106 17.643,-16.714 8.82,-11.607 12.999,-20.428 12.999,-27.392 0,-6.965 3.25,-11.608 5.571,-20.894 2.323,-9.286 5.109,-19.964 2.787,-32.964 -2.323,-13 -5.108,-20.892 -9.287,-26.928 -4.178,-6.036 -7.427,-10.215 -7.427,-10.215 0,0 2.321,-7.893 9.286,-1.393 6.964,6.5 12.999,25.072 13.929,47.358 0.928,22.285 -6.502,45.5 -11.609,57.107 -5.106,11.608 -18.571,30.643 -33.892,32.035 z"
       style="fill:none;stroke:#231f20;stroke-width:0.5;stroke-linecap:round;stroke-linejoin:round;stroke-miterlimit:4;stroke-dasharray:2.8, 1.8;stroke-dashoffset:0;stroke-opacity:1"
       id="path894" />
    <path
       d="m 563.912,646.689 c 6.036,3.25 20.221,16.313 25.433,25.8"
       style="fill:none;stroke:#231f20;stroke-width:0.5;stroke-linecap:round;stroke-linejoin:round;stroke-miterlimit:4;stroke-dasharray:2.8, 1.8;stroke-dashoffset:0;stroke-opacity:1"
       id="path896" />
    <path
       d="m 567.546,641.542 c 8.903,4.219 21.792,9.645 33.454,24.342"
       style="fill:none;stroke:#231f20;stroke-width:0.5;stroke-linecap:round;stroke-linejoin:round;stroke-miterlimit:4;stroke-dasharray:2.8, 1.8;stroke-dashoffset:0;stroke-opacity:1"
       id="path898" />
    <path
       d="m 570.276,612.917 c 11.279,-4.299 37.279,-12.887 53.994,-13.816"
       style="fill:none;stroke:#231f20;stroke-width:0.5;stroke-linecap:round;stroke-linejoin:round;stroke-miterlimit:4;stroke-dasharray:2.8, 1.8;stroke-dashoffset:0;stroke-opacity:1"
       id="path900" />
    <path
       d="m 576.559,471.648 c 7.922,7.436 25.426,12.543 40.282,13.471 14.857,0.927 45.963,1.855 49.678,-24.61"
       style="fill:none;stroke:#231f20;stroke-width:0.5;stroke-linecap:round;stroke-linejoin:round;stroke-miterlimit:4;stroke-dasharray:2.8, 1.8;stroke-dashoffset:0;stroke-opacity:1"
       id="path902" />
    <path
       d="m 574.12,422.318 c 13.471,-12.879 26.471,-18.914 48.293,-16.592 21.555,2.293 30.728,8.799 40.478,19.01"
       style="fill:none;stroke:#231f20;stroke-width:0.5;stroke-linecap:round;stroke-linejoin:round;stroke-miterlimit:4;stroke-dasharray:2.8, 1.8;stroke-dashoffset:0;stroke-opacity:1"
       id="path904" />
    <path
       d="m 711.324,579.251 c 1.044,-4.178 6.988,-3.51 11.142,-2.438 4.383,1.131 9.307,2.75 7.313,8.358 -1.393,3.917 -8.005,1.726 -11.491,0.696 -5.311,-1.567 -7.412,-4.827 -6.964,-6.616 z"
       style="fill:none;stroke:#231f20;stroke-width:0.5;stroke-linecap:round;stroke-linejoin:round;stroke-miterlimit:4;stroke-dasharray:2.8, 1.8;stroke-dashoffset:0;stroke-opacity:1"
       id="path906" />
    <path
       d="m 718.636,562.536 c 4.527,-0.957 9.75,-6.963 9.75,-12.883 0,-5.92 0,-18.455 -5.571,-26.812 -5.572,-8.358 -12.885,-12.188 -17.76,-10.795 -4.875,1.392 -8.009,3.482 -7.312,11.142 0.696,7.661 2.437,16.366 3.482,25.42 1.045,9.053 4.527,14.278 9.054,14.625 4.526,0.348 8.357,-0.697 8.357,-0.697 z"
       style="fill:none;stroke:#231f20;stroke-width:0.5;stroke-linecap:round;stroke-linejoin:round;stroke-miterlimit:4;stroke-dasharray:2.8, 1.8;stroke-dashoffset:0;stroke-opacity:1"
       id="path908" />
    <path
       d="m 697.655,521.448 c -2.35,-8.01 -4.439,-27.857 -1.653,-40.742"
       style="fill:none;stroke:#231f20;stroke-width:0.5;stroke-linecap:round;stroke-linejoin:round;stroke-miterlimit:4;stroke-dasharray:2.8, 1.8;stroke-dashoffset:0;stroke-opacity:1"
       id="path910" />
    <path
       d="m 732.216,514.831 c 5.198,-1.484 7.497,-12.146 6.453,-18.066 -1.045,-5.92 -5.756,-20.586 -15.158,-34.166 -9.402,-13.58 -21.241,-33.08 -28.553,-44.223 -7.313,-11.142 -17.063,-27.16 -22.634,-24.027 -5.572,3.135 -2.09,15.322 3.481,33.08 5.571,17.76 16.019,42.83 18.108,48.055 2.089,5.222 11.747,24.183 15.321,29.249 4.179,5.92 15.67,12.188 22.982,10.098 z"
       style="fill:none;stroke:#231f20;stroke-width:0.5;stroke-linecap:round;stroke-linejoin:round;stroke-miterlimit:4;stroke-dasharray:2.8, 1.8;stroke-dashoffset:0;stroke-opacity:1"
       id="path912" />
    <path
       d="m 696.002,480.706 c 2.786,-9.052 14.973,-16.365 34.794,-13.058"
       style="fill:none;stroke:#231f20;stroke-width:0.5;stroke-linecap:round;stroke-linejoin:round;stroke-miterlimit:4;stroke-dasharray:2.8, 1.8;stroke-dashoffset:0;stroke-opacity:1"
       id="path914" />
    <path
       d="m 542.439,401.314 c 2.437,3.482 11.143,5.57 10.446,0.348 -0.696,-5.223 -1.392,-16.366 -1.392,-16.366"
       style="fill:none;stroke:#231f20;stroke-width:0.5;stroke-linecap:round;stroke-linejoin:round;stroke-miterlimit:4;stroke-dasharray:2.8, 1.8;stroke-dashoffset:0;stroke-opacity:1"
       id="path916" />
    <path
       d="m 552.885,401.662 c 3.483,2.437 14.625,1.044 25.769,-3.83 11.142,-4.876 21.589,-11.491 24.375,-12.536 2.785,-1.045 7.312,-2.787 7.66,0 0.349,2.786 -11.491,10.098 -18.804,14.276 -7.312,4.179 -17.403,11.314 -24.722,11.492 -7.226,0.174 -12.738,-1.545 -15.771,-6.518"
       style="fill:none;stroke:#231f20;stroke-width:0.5;stroke-linecap:round;stroke-linejoin:round;stroke-miterlimit:4;stroke-dasharray:2.8, 1.8;stroke-dashoffset:0;stroke-opacity:1"
       id="path918" />
    <path
       d="m 604.635,376.753 c 4.313,4.364 5.358,6.106 6.054,8.543 0.696,2.438 2.437,3.483 8.706,2.786 6.268,-0.698 16.365,-1.741 21.589,-5.223 5.224,-3.483 10.098,-6.965 13.929,-8.358 3.83,-1.392 11.564,-4.587 14.313,-6.82"
       style="fill:none;stroke:#231f20;stroke-width:0.5;stroke-linecap:round;stroke-linejoin:round;stroke-miterlimit:4;stroke-dasharray:2.8, 1.8;stroke-dashoffset:0;stroke-opacity:1"
       id="path920" />
    <path
       d="m 572.038,508.563 c 3.303,1.102 8.357,-3.482 7.312,-10.097 -1.045,-6.617 -3.134,-9.054 -9.75,-12.884 -6.616,-3.831 -11.428,-7.422 -13.581,-1.393 -1.74,4.875 2.786,13.58 5.92,17.062 3.134,3.482 6.965,6.268 10.099,7.312 z"
       style="fill:none;stroke:#231f20;stroke-width:0.5;stroke-linecap:round;stroke-linejoin:round;stroke-miterlimit:4;stroke-dasharray:2.8, 1.8;stroke-dashoffset:0;stroke-opacity:1"
       id="path922" />
    <path
       d="m 667.29,501.244 c -1.742,-7.662 -4.361,-19.621 -5.061,-29.131"
       style="fill:none;stroke:#231f20;stroke-width:0.5;stroke-linecap:round;stroke-linejoin:round;stroke-miterlimit:4;stroke-dasharray:2.8, 1.8;stroke-dashoffset:0;stroke-opacity:1"
       id="path924" />
    <path
       d="m 647.91,524.899 c 0,8.705 1.779,19.879 3.172,23.362 1.393,3.48 2.786,4.177 6.268,4.177 3.482,0 10.099,-0.697 11.491,-1.044 1.393,-0.348 4.179,-1.393 4.179,-6.268 0,-4.875 0.111,-16.885 -0.696,-27.16 -0.719,-9.133 0,-16.367 -6.616,-17.062 -6.617,-0.697 -9.054,1.045 -9.054,1.045"
       style="fill:none;stroke:#231f20;stroke-width:0.5;stroke-linecap:round;stroke-linejoin:round;stroke-miterlimit:4;stroke-dasharray:2.8, 1.8;stroke-dashoffset:0;stroke-opacity:1"
       id="path926" />
    <path
       d="m 577.374,522.958 c -3.134,-2.787 -2.551,-20.662 8.244,-25.884 10.795,-5.225 28.553,-3.832 37.607,-2.787 9.054,1.045 27.401,3.023 35.985,9.347"
       style="fill:none;stroke:#231f20;stroke-width:0.5;stroke-linecap:round;stroke-linejoin:round;stroke-miterlimit:4;stroke-dasharray:2.8, 1.8;stroke-dashoffset:0;stroke-opacity:1"
       id="path928" />
    <path
       d="m 551.458,532.313 c -0.314,8.635 3.116,30.409 10.776,35.981"
       style="fill:none;stroke:#231f20;stroke-width:0.5;stroke-linecap:round;stroke-linejoin:round;stroke-miterlimit:4;stroke-dasharray:2.8, 1.8;stroke-dashoffset:0;stroke-opacity:1"
       id="path930" />
    <path
       d="m 576.217,557.907 c 3.483,-3.832 6.357,-15.553 2.307,-23.047"
       style="fill:none;stroke:#231f20;stroke-width:0.5;stroke-linecap:round;stroke-linejoin:round;stroke-miterlimit:4;stroke-dasharray:2.8, 1.8;stroke-dashoffset:0;stroke-opacity:1"
       id="path932" />
    <path
       d="m 568.555,577.858 c 3.152,0.078 6.268,-1.045 11.491,-3.482 5.224,-2.438 10.795,-5.92 10.099,-9.75 -0.697,-3.83 -3.135,-5.223 -8.357,-6.268 -5.224,-1.045 -12.188,-0.347 -15.322,2.438 -3.134,2.785 -5.223,6.615 -3.831,11.142 1.394,4.528 4.525,5.885 5.92,5.92 z"
       style="fill:none;stroke:#231f20;stroke-width:0.5;stroke-linecap:round;stroke-linejoin:round;stroke-miterlimit:4;stroke-dasharray:2.8, 1.8;stroke-dashoffset:0;stroke-opacity:1"
       id="path934" />
    <path
       d="m 583.111,558.649 c 7.034,0.754 13.059,-0.58 16.488,-9.488"
       style="fill:none;stroke:#231f20;stroke-width:0.5;stroke-linecap:round;stroke-linejoin:round;stroke-miterlimit:4;stroke-dasharray:2.8, 1.8;stroke-dashoffset:0;stroke-opacity:1"
       id="path936" />
    <path
       d="m 541.881,402.871 c 2.822,1.576 3.344,2.621 5.085,13.763 1.741,11.145 1.741,20.545 0.697,34.475 -1.045,13.928 -2.438,26.812 -2.787,32.383 -0.347,5.572 -2.785,14.625 -2.785,14.625"
       style="fill:none;stroke:#231f20;stroke-width:0.5;stroke-linecap:round;stroke-linejoin:round;stroke-miterlimit:4;stroke-dasharray:2.8, 1.8;stroke-dashoffset:0;stroke-opacity:1"
       id="path938" />
    <path
       d="m 549.602,531.001 c -1.939,1.59 -6.467,-0.848 -6.814,-5.375 -0.349,-4.527 -0.697,-12.535 -0.697,-16.365 0,-3.832 -1.045,-10.795 0,-11.144 1.044,-0.348 3.134,5.224 4.178,8.706 1.045,3.481 1.494,8.408 1.81,13.313"
       style="fill:none;stroke:#231f20;stroke-width:0.5;stroke-linecap:round;stroke-linejoin:round;stroke-miterlimit:4;stroke-dasharray:2.8, 1.8;stroke-dashoffset:0;stroke-opacity:1"
       id="path940" />
    <path
       d="m 680.68,568.804 c 2.786,0 9.75,0 12.884,0 3.135,0 8.01,0.349 8.01,2.09 0,1.742 -3.135,3.134 -8.01,5.222 -4.875,2.09 -19.151,5.572 -24.723,5.92 -5.571,0.35 -15.67,-0.695 -24.723,-3.133 -9.054,-2.437 -11.839,-5.224 -11.492,-7.662 0.349,-2.437 1.394,-4.875 10.795,-3.48"
       style="fill:none;stroke:#231f20;stroke-width:0.5;stroke-linecap:round;stroke-linejoin:round;stroke-miterlimit:4;stroke-dasharray:2.8, 1.8;stroke-dashoffset:0;stroke-opacity:1"
       id="path942" />
    <path
       d="m 623.223,585.222 c 0,0 6.117,-9.108 10.024,-11.717"
       style="fill:none;stroke:#231f20;stroke-width:0.5;stroke-linecap:round;stroke-linejoin:round;stroke-miterlimit:4;stroke-dasharray:2.8, 1.8;stroke-dashoffset:0;stroke-opacity:1"
       id="path944" />
    <path
       d="m 654.216,570.894 c 3.124,0.248 11.492,0.347 16.366,0 4.876,-0.348 10.447,-0.348 11.143,-4.528 0.696,-4.178 -9.401,-8.355 -13.929,-10.445 -4.526,-2.09 -13.232,-3.83 -20.892,-4.18 -7.661,-0.347 -10.446,1.742 -11.144,5.572 -0.696,3.831 5.224,12.536 18.456,13.581 z"
       style="fill:none;stroke:#231f20;stroke-width:0.5;stroke-linecap:round;stroke-linejoin:round;stroke-miterlimit:4;stroke-dasharray:2.8, 1.8;stroke-dashoffset:0;stroke-opacity:1"
       id="path946" />
    <path
       d="m 475.993,775.911 c -5.867,-10.365 -12.785,-29.14 9.711,-87.77"
       style="fill:none;stroke:#231f20;stroke-width:0.5;stroke-linecap:round;stroke-linejoin:round;stroke-miterlimit:4;stroke-dasharray:2.8, 1.8;stroke-dashoffset:0;stroke-opacity:1"
       id="path948" />
    <path
       d="m 464.416,655.744 c 3.55,5.083 1.533,14.159 0.604,22.981 -0.93,8.821 -6.501,23.446 -12.536,28.321 -6.718,5.427 -14.858,7.893 -21.822,2.322 -6.964,-5.572 -20.894,-26 -24.608,-31.572 -3.713,-5.571 -9.75,-13.464 -13.928,-17.178 -4.178,-3.714 -10.678,-6.964 -7.892,-23.214 2.786,-16.25 8.098,-35.725 13.334,-41.54"
       style="fill:none;stroke:#231f20;stroke-width:0.5;stroke-linecap:round;stroke-linejoin:round;stroke-miterlimit:4;stroke-dasharray:2.8, 1.8;stroke-dashoffset:0;stroke-opacity:1"
       id="path950" />
    <path
       d="m 405.59,746.046 c 3.522,0.321 -8.822,-5.106 -17.642,-16.714 -8.822,-11.607 -13,-20.428 -13,-27.392 0,-6.965 -3.25,-11.608 -5.572,-20.894 -2.322,-9.286 -5.107,-19.964 -2.786,-32.964 2.323,-13 5.108,-20.892 9.286,-26.928 4.179,-6.036 7.429,-10.215 7.429,-10.215 0,0 -2.322,-7.893 -9.286,-1.393 -6.965,6.5 -13,25.072 -13.929,47.358 -0.929,22.285 6.502,45.5 11.608,57.107 5.106,11.608 18.571,30.643 33.892,32.035 z"
       style="fill:none;stroke:#231f20;stroke-width:0.5;stroke-linecap:round;stroke-linejoin:round;stroke-miterlimit:4;stroke-dasharray:2.8, 1.8;stroke-dashoffset:0;stroke-opacity:1"
       id="path952" />
    <path
       d="m 516.091,646.689 c -6.036,3.25 -20.221,16.313 -25.432,25.8"
       style="fill:none;stroke:#231f20;stroke-width:0.5;stroke-linecap:round;stroke-linejoin:round;stroke-miterlimit:4;stroke-dasharray:2.8, 1.8;stroke-dashoffset:0;stroke-opacity:1"
       id="path954" />
    <path
       d="m 512.458,641.542 c -8.904,4.219 -21.792,9.645 -33.456,24.342"
       style="fill:none;stroke:#231f20;stroke-width:0.5;stroke-linecap:round;stroke-linejoin:round;stroke-miterlimit:4;stroke-dasharray:2.8, 1.8;stroke-dashoffset:0;stroke-opacity:1"
       id="path956" />
    <path
       d="M 509.727,612.917 C 498.449,608.618 472.448,600.03 455.734,599.101"
       style="fill:none;stroke:#231f20;stroke-width:0.5;stroke-linecap:round;stroke-linejoin:round;stroke-miterlimit:4;stroke-dasharray:2.8, 1.8;stroke-dashoffset:0;stroke-opacity:1"
       id="path958" />
    <path
       d="m 503.445,471.648 c -7.922,7.436 -25.427,12.543 -40.283,13.471 -14.857,0.927 -45.963,1.855 -49.678,-24.61"
       style="fill:none;stroke:#231f20;stroke-width:0.5;stroke-linecap:round;stroke-linejoin:round;stroke-miterlimit:4;stroke-dasharray:2.8, 1.8;stroke-dashoffset:0;stroke-opacity:1"
       id="path960" />
    <path
       d="m 505.883,422.318 c -13.471,-12.879 -26.47,-18.914 -48.293,-16.592 -21.555,2.293 -30.728,8.799 -40.478,19.01"
       style="fill:none;stroke:#231f20;stroke-width:0.5;stroke-linecap:round;stroke-linejoin:round;stroke-miterlimit:4;stroke-dasharray:2.8, 1.8;stroke-dashoffset:0;stroke-opacity:1"
       id="path962" />
    <path
       d="m 368.68,579.251 c -1.045,-4.178 -6.989,-3.51 -11.143,-2.438 -4.382,1.131 -9.307,2.75 -7.313,8.358 1.394,3.917 8.005,1.726 11.491,0.696 5.311,-1.567 7.412,-4.827 6.965,-6.616 z"
       style="fill:none;stroke:#231f20;stroke-width:0.5;stroke-linecap:round;stroke-linejoin:round;stroke-miterlimit:4;stroke-dasharray:2.8, 1.8;stroke-dashoffset:0;stroke-opacity:1"
       id="path964" />
    <path
       d="m 361.368,562.536 c -4.528,-0.957 -9.75,-6.963 -9.75,-12.883 0,-5.92 0,-18.455 5.571,-26.812 5.571,-8.358 12.884,-12.188 17.759,-10.795 4.875,1.392 8.009,3.482 7.312,11.142 -0.696,7.661 -2.437,16.366 -3.482,25.42 -1.044,9.053 -4.527,14.278 -9.054,14.625 -4.526,0.348 -8.356,-0.697 -8.356,-0.697 z"
       style="fill:none;stroke:#231f20;stroke-width:0.5;stroke-linecap:round;stroke-linejoin:round;stroke-miterlimit:4;stroke-dasharray:2.8, 1.8;stroke-dashoffset:0;stroke-opacity:1"
       id="path966" />
    <path
       d="m 382.348,521.448 c 2.35,-8.01 4.439,-27.857 1.653,-40.742"
       style="fill:none;stroke:#231f20;stroke-width:0.5;stroke-linecap:round;stroke-linejoin:round;stroke-miterlimit:4;stroke-dasharray:2.8, 1.8;stroke-dashoffset:0;stroke-opacity:1"
       id="path968" />
    <path
       d="m 347.787,514.831 c -5.198,-1.484 -7.497,-12.146 -6.453,-18.066 1.044,-5.92 5.756,-20.586 15.159,-34.166 9.401,-13.58 21.241,-33.08 28.553,-44.223 7.313,-11.142 17.063,-27.16 22.634,-24.027 5.571,3.135 2.089,15.322 -3.482,33.08 -5.572,17.76 -16.018,42.83 -18.108,48.055 -2.089,5.222 -11.746,24.183 -15.321,29.249 -4.179,5.92 -15.67,12.188 -22.982,10.098 z"
       style="fill:none;stroke:#231f20;stroke-width:0.5;stroke-linecap:round;stroke-linejoin:round;stroke-miterlimit:4;stroke-dasharray:2.8, 1.8;stroke-dashoffset:0;stroke-opacity:1"
       id="path970" />
    <path
       d="m 384.001,480.706 c -2.786,-9.052 -14.973,-16.365 -34.794,-13.058"
       style="fill:none;stroke:#231f20;stroke-width:0.5;stroke-linecap:round;stroke-linejoin:round;stroke-miterlimit:4;stroke-dasharray:2.8, 1.8;stroke-dashoffset:0;stroke-opacity:1"
       id="path972" />
    <path
       d="m 537.564,401.314 c -2.438,3.482 -11.143,5.57 -10.446,0.348 0.696,-5.223 1.392,-16.366 1.392,-16.366"
       style="fill:none;stroke:#231f20;stroke-width:0.5;stroke-linecap:round;stroke-linejoin:round;stroke-miterlimit:4;stroke-dasharray:2.8, 1.8;stroke-dashoffset:0;stroke-opacity:1"
       id="path974" />
    <path
       d="m 527.118,401.662 c -3.483,2.437 -14.625,1.044 -25.768,-3.83 -11.143,-4.876 -21.59,-11.491 -24.375,-12.536 -2.786,-1.045 -7.312,-2.787 -7.661,0 -0.349,2.786 11.491,10.098 18.804,14.276 7.312,4.179 17.404,11.314 24.723,11.492 7.225,0.174 12.737,-1.545 15.77,-6.518"
       style="fill:none;stroke:#231f20;stroke-width:0.5;stroke-linecap:round;stroke-linejoin:round;stroke-miterlimit:4;stroke-dasharray:2.8, 1.8;stroke-dashoffset:0;stroke-opacity:1"
       id="path976" />
    <path
       d="m 475.369,376.753 c -4.314,4.364 -5.359,6.106 -6.055,8.543 -0.696,2.438 -2.438,3.483 -8.705,2.786 -6.269,-0.698 -16.366,-1.741 -21.59,-5.223 -5.223,-3.483 -10.098,-6.965 -13.929,-8.358 -3.83,-1.392 -11.564,-4.587 -14.313,-6.82"
       style="fill:none;stroke:#231f20;stroke-width:0.5;stroke-linecap:round;stroke-linejoin:round;stroke-miterlimit:4;stroke-dasharray:2.8, 1.8;stroke-dashoffset:0;stroke-opacity:1"
       id="path978" />
    <path
       d="m 507.965,508.563 c -3.303,1.102 -8.356,-3.482 -7.312,-10.097 1.045,-6.617 3.135,-9.054 9.751,-12.884 6.615,-3.831 11.427,-7.422 13.58,-1.393 1.741,4.875 -2.786,13.58 -5.92,17.062 -3.134,3.482 -6.964,6.268 -10.099,7.312 z"
       style="fill:none;stroke:#231f20;stroke-width:0.5;stroke-linecap:round;stroke-linejoin:round;stroke-miterlimit:4;stroke-dasharray:2.8, 1.8;stroke-dashoffset:0;stroke-opacity:1"
       id="path980" />
    <path
       d="m 412.714,501.244 c 1.742,-7.662 4.36,-19.621 5.06,-29.131"
       style="fill:none;stroke:#231f20;stroke-width:0.5;stroke-linecap:round;stroke-linejoin:round;stroke-miterlimit:4;stroke-dasharray:2.8, 1.8;stroke-dashoffset:0;stroke-opacity:1"
       id="path982" />
    <path
       d="m 432.093,524.899 c 0,8.705 -1.779,19.879 -3.172,23.362 -1.393,3.48 -2.786,4.177 -6.268,4.177 -3.482,0 -10.098,-0.697 -11.491,-1.044 -1.393,-0.348 -4.178,-1.393 -4.178,-6.268 0,-4.875 -0.112,-16.885 0.696,-27.16 0.718,-9.133 0,-16.367 6.616,-17.062 6.616,-0.697 9.053,1.045 9.053,1.045"
       style="fill:none;stroke:#231f20;stroke-width:0.5;stroke-linecap:round;stroke-linejoin:round;stroke-miterlimit:4;stroke-dasharray:2.8, 1.8;stroke-dashoffset:0;stroke-opacity:1"
       id="path984" />
    <path
       d="m 502.629,522.958 c 3.134,-2.787 2.551,-20.662 -8.244,-25.884 -10.795,-5.225 -28.553,-3.832 -37.607,-2.787 -9.053,1.045 -27.4,3.023 -35.986,9.347"
       style="fill:none;stroke:#231f20;stroke-width:0.5;stroke-linecap:round;stroke-linejoin:round;stroke-miterlimit:4;stroke-dasharray:2.8, 1.8;stroke-dashoffset:0;stroke-opacity:1"
       id="path986" />
    <path
       d="m 528.545,532.313 c 0.314,8.635 -3.116,30.409 -10.776,35.981"
       style="fill:none;stroke:#231f20;stroke-width:0.5;stroke-linecap:round;stroke-linejoin:round;stroke-miterlimit:4;stroke-dasharray:2.8, 1.8;stroke-dashoffset:0;stroke-opacity:1"
       id="path988" />
    <path
       d="m 517.368,571.938 c -0.923,2.188 0.696,3.483 0.696,3.483 3.134,2.437 8.357,-1.393 10.446,-4.527 2.09,-3.133 6.269,-3.831 11.492,-3.831 5.223,0 9.402,0.698 11.491,3.831 2.089,3.134 7.312,6.964 10.446,4.527 0,0 1.619,-1.295 0.696,-3.483"
       style="fill:none;stroke:#231f20;stroke-width:0.5;stroke-linecap:round;stroke-linejoin:round;stroke-miterlimit:4;stroke-dasharray:2.8, 1.8;stroke-dashoffset:0;stroke-opacity:1"
       id="path990" />
    <path
       d="m 527.211,547.517 c 3.228,0.302 12.791,0.394 12.791,0.394 0,0 9.562,-0.092 12.79,-0.394"
       style="fill:none;stroke:#231f20;stroke-width:0.5;stroke-linecap:round;stroke-linejoin:round;stroke-miterlimit:4;stroke-dasharray:2.8, 1.8;stroke-dashoffset:0;stroke-opacity:1"
       id="path992" />
    <path
       d="m 503.786,557.907 c -3.482,-3.832 -6.357,-15.553 -2.307,-23.047"
       style="fill:none;stroke:#231f20;stroke-width:0.5;stroke-linecap:round;stroke-linejoin:round;stroke-miterlimit:4;stroke-dasharray:2.8, 1.8;stroke-dashoffset:0;stroke-opacity:1"
       id="path994" />
    <path
       d="m 511.448,577.858 c -3.152,0.078 -6.268,-1.045 -11.491,-3.482 -5.223,-2.438 -10.794,-5.92 -10.098,-9.75 0.696,-3.83 3.134,-5.223 8.356,-6.268 5.224,-1.045 12.189,-0.347 15.323,2.438 3.133,2.785 5.222,6.615 3.83,11.142 -1.393,4.528 -4.525,5.885 -5.92,5.92 z"
       style="fill:none;stroke:#231f20;stroke-width:0.5;stroke-linecap:round;stroke-linejoin:round;stroke-miterlimit:4;stroke-dasharray:2.8, 1.8;stroke-dashoffset:0;stroke-opacity:1"
       id="path996" />
    <path
       d="m 496.892,558.649 c -7.033,0.754 -13.059,-0.58 -16.488,-9.488"
       style="fill:none;stroke:#231f20;stroke-width:0.5;stroke-linecap:round;stroke-linejoin:round;stroke-miterlimit:4;stroke-dasharray:2.8, 1.8;stroke-dashoffset:0;stroke-opacity:1"
       id="path998" />
    <path
       d="m 538.122,402.871 c -2.822,1.576 -3.343,2.621 -5.084,13.763 -1.742,11.145 -1.742,20.545 -0.697,34.475 1.044,13.928 2.438,26.812 2.785,32.383 0.349,5.572 2.787,14.625 2.787,14.625"
       style="fill:none;stroke:#231f20;stroke-width:0.5;stroke-linecap:round;stroke-linejoin:round;stroke-miterlimit:4;stroke-dasharray:2.8, 1.8;stroke-dashoffset:0;stroke-opacity:1"
       id="path1000" />
    <path
       d="m 530.401,531.001 c 1.94,1.59 6.467,-0.848 6.815,-5.375 0.348,-4.527 0.697,-12.535 0.697,-16.365 0,-3.832 1.044,-10.795 0,-11.144 -1.045,-0.348 -3.134,5.224 -4.179,8.706 -1.045,3.481 -1.494,8.408 -1.81,13.313"
       style="fill:none;stroke:#231f20;stroke-width:0.5;stroke-linecap:round;stroke-linejoin:round;stroke-miterlimit:4;stroke-dasharray:2.8, 1.8;stroke-dashoffset:0;stroke-opacity:1"
       id="path1002" />
    <path
       d="m 399.323,568.804 c -2.786,0 -9.75,0 -12.884,0 -3.134,0 -8.009,0.349 -8.009,2.09 0,1.742 3.134,3.134 8.009,5.222 4.875,2.09 19.151,5.572 24.723,5.92 5.572,0.35 15.67,-0.695 24.723,-3.133 9.054,-2.437 11.84,-5.224 11.491,-7.662 -0.348,-2.437 -1.392,-4.875 -10.794,-3.48"
       style="fill:none;stroke:#231f20;stroke-width:0.5;stroke-linecap:round;stroke-linejoin:round;stroke-miterlimit:4;stroke-dasharray:2.8, 1.8;stroke-dashoffset:0;stroke-opacity:1"
       id="path1004" />
    <path
       d="m 456.78,585.222 c 0,0 -6.117,-9.108 -10.024,-11.717"
       style="fill:none;stroke:#231f20;stroke-width:0.5;stroke-linecap:round;stroke-linejoin:round;stroke-miterlimit:4;stroke-dasharray:2.8, 1.8;stroke-dashoffset:0;stroke-opacity:1"
       id="path1006" />
    <path
       d="m 425.787,570.894 c -3.124,0.248 -11.491,0.347 -16.366,0 -4.875,-0.348 -10.447,-0.348 -11.143,-4.528 -0.696,-4.178 9.402,-8.355 13.929,-10.445 4.527,-2.09 13.232,-3.83 20.892,-4.18 7.661,-0.347 10.447,1.742 11.144,5.572 0.696,3.831 -5.224,12.536 -18.456,13.581 z"
       style="fill:none;stroke:#231f20;stroke-width:0.5;stroke-linecap:round;stroke-linejoin:round;stroke-miterlimit:4;stroke-dasharray:2.8, 1.8;stroke-dashoffset:0;stroke-opacity:1"
       id="path1008" />
    <path
       d="m 695.435,740.027 40.545,34.997"
       style="fill:none;stroke:#231f20;stroke-width:0.5;stroke-linecap:round;stroke-linejoin:round;stroke-miterlimit:4;stroke-dasharray:2.8, 1.8;stroke-dashoffset:0;stroke-opacity:1"
       id="path1010" />
    <path
       d="m 726.296,686.85 38.872,63.017"
       style="fill:none;stroke:#231f20;stroke-width:0.5;stroke-linecap:round;stroke-linejoin:round;stroke-miterlimit:4;stroke-dasharray:2.8, 1.8;stroke-dashoffset:0;stroke-opacity:1"
       id="path1012" />
    <path
       d="m 757.934,671.313 42.732,50.453"
       style="fill:none;stroke:#231f20;stroke-width:0.5;stroke-linecap:round;stroke-linejoin:round;stroke-miterlimit:4;stroke-dasharray:2.8, 1.8;stroke-dashoffset:0;stroke-opacity:1"
       id="path1014" />
    <path
       d="M 847.239,679.581 823.784,480.009"
       style="fill:none;stroke:#231f20;stroke-width:0.5;stroke-linecap:round;stroke-linejoin:round;stroke-miterlimit:4;stroke-dasharray:2.8, 1.8;stroke-dashoffset:0;stroke-opacity:1"
       id="path1016" />
    <path
       d="m 442.066,872.969 c -19.299,-21.993 -62.476,-70.28 -92.655,-92.1"
       style="fill:none;stroke:#231f20;stroke-width:0.5;stroke-linecap:round;stroke-linejoin:round;stroke-miterlimit:4;stroke-dasharray:2.8, 1.8;stroke-dashoffset:0;stroke-opacity:1"
       id="path1018" />
    <path
       d="m 148.549,571.903 c 13.289,17.679 43.003,55.751 56.468,75.251 13.465,19.5 45.501,51.536 68.25,70.107"
       style="fill:none;stroke:#231f20;stroke-width:0.5;stroke-linecap:round;stroke-linejoin:round;stroke-miterlimit:4;stroke-dasharray:2.8, 1.8;stroke-dashoffset:0;stroke-opacity:1"
       id="path1020" />
    <path
       d="M 478.714,850.163 C 465.018,841.226 402.813,808.25 376.808,804.077"
       style="fill:none;stroke:#231f20;stroke-width:0.5;stroke-linecap:round;stroke-linejoin:round;stroke-miterlimit:4;stroke-dasharray:2.8, 1.8;stroke-dashoffset:0;stroke-opacity:1"
       id="path1022" />
    <path
       d="m 467.904,790.486 c -10.315,5.239 -57.252,15.57 -92.516,12.262"
       style="fill:none;stroke:#231f20;stroke-width:0.5;stroke-linecap:round;stroke-linejoin:round;stroke-miterlimit:4;stroke-dasharray:2.8, 1.8;stroke-dashoffset:0;stroke-opacity:1"
       id="path1024" />
    <path
       d="m 315.924,867.131 26.75,-87.103"
       style="fill:none;stroke:#231f20;stroke-width:0.5;stroke-linecap:round;stroke-linejoin:round;stroke-miterlimit:4;stroke-dasharray:2.8, 1.8;stroke-dashoffset:0;stroke-opacity:1"
       id="path1026" />
    <path
       d="m 239.199,828.196 61.87,-82.741"
       style="fill:none;stroke:#231f20;stroke-width:0.5;stroke-linecap:round;stroke-linejoin:round;stroke-miterlimit:4;stroke-dasharray:2.8, 1.8;stroke-dashoffset:0;stroke-opacity:1"
       id="path1028" />
    <path
       d="m 263.25,708.745 c 0,0 -45.697,30.802 -81.912,71.195"
       style="fill:none;stroke:#231f20;stroke-width:0.5;stroke-linecap:round;stroke-linejoin:round;stroke-miterlimit:4;stroke-dasharray:2.8, 1.8;stroke-dashoffset:0;stroke-opacity:1"
       id="path1030" />
    <path
       d="m 234.678,681.552 c -19.447,-3.291 -68.208,9.821 -96.523,17.425"
       style="fill:none;stroke:#231f20;stroke-width:0.5;stroke-linecap:round;stroke-linejoin:round;stroke-miterlimit:4;stroke-dasharray:2.8, 1.8;stroke-dashoffset:0;stroke-opacity:1"
       id="path1032" />
    <path
       d="m 210.744,654.827 c -9.442,-8.602 -44.263,-26.709 -75.369,-40.173"
       style="fill:none;stroke:#231f20;stroke-width:0.5;stroke-linecap:round;stroke-linejoin:round;stroke-miterlimit:4;stroke-dasharray:2.8, 1.8;stroke-dashoffset:0;stroke-opacity:1"
       id="path1034" />
    <path
       d="m 334.553,599.797 c -3.249,0 -7.427,4.179 -9.75,33.428 -2.321,29.25 -4.177,60.821 -4.642,69.179 -0.465,8.356 0.464,19.036 6.035,19.964 5.572,0.928 8.486,-3.958 10.344,-7.207 1.856,-3.25 4.514,-12.293 4.978,-22.507 0.464,-10.214 0.929,-33.894 -1.857,-45.965 -2.785,-12.071 -8.823,-20.893 -14.858,-13.464"
       style="fill:none;stroke:#231f20;stroke-width:0.5;stroke-linecap:round;stroke-linejoin:round;stroke-miterlimit:4;stroke-dasharray:2.8, 1.8;stroke-dashoffset:0;stroke-opacity:1"
       id="path1036" />
    <path
       d="m 166.294,595.187 c -2.133,-8.855 -4.457,-20.924 5.758,-38.104 10.216,-17.18 28.785,-39.932 52.929,-41.787 24.145,-1.858 42.251,6.502 51.072,29.25 8.822,22.75 15.803,52.924 19.5,65 6.965,22.75 18.375,32.95 28.224,37.135"
       style="fill:none;stroke:#231f20;stroke-width:0.5;stroke-linecap:round;stroke-linejoin:round;stroke-miterlimit:4;stroke-dasharray:2.8, 1.8;stroke-dashoffset:0;stroke-opacity:1"
       id="path1038" />
    <path
       d="M 230.942,677.685 219.247,478.732"
       style="fill:none;stroke:#231f20;stroke-width:0.5;stroke-linecap:round;stroke-linejoin:round;stroke-miterlimit:4;stroke-dasharray:2.8, 1.8;stroke-dashoffset:0;stroke-opacity:1"
       id="path1040" />
    <path
       d="m 384.567,740.027 -40.545,34.997"
       style="fill:none;stroke:#231f20;stroke-width:0.5;stroke-linecap:round;stroke-linejoin:round;stroke-miterlimit:4;stroke-dasharray:2.8, 1.8;stroke-dashoffset:0;stroke-opacity:1"
       id="path1042" />
    <path
       d="m 353.706,686.85 -38.873,63.017"
       style="fill:none;stroke:#231f20;stroke-width:0.5;stroke-linecap:round;stroke-linejoin:round;stroke-miterlimit:4;stroke-dasharray:2.8, 1.8;stroke-dashoffset:0;stroke-opacity:1"
       id="path1044" />
    <path
       d="m 322.068,671.313 -42.733,50.453"
       style="fill:none;stroke:#231f20;stroke-width:0.5;stroke-linecap:round;stroke-linejoin:round;stroke-miterlimit:4;stroke-dasharray:2.8, 1.8;stroke-dashoffset:0;stroke-opacity:1"
       id="path1046" />
    <path
       d="M 232.763,679.581 256.218,480.009"
       style="fill:none;stroke:#231f20;stroke-width:0.5;stroke-linecap:round;stroke-linejoin:round;stroke-miterlimit:4;stroke-dasharray:2.8, 1.8;stroke-dashoffset:0;stroke-opacity:1"
       id="path1048" />
    <path
       d="m 615.584,655.747 c 0.75,-1.052 1.479,-2.061 2.185,-3.022 0,0 12.536,-24.607 18.107,-32.964 5.572,-8.357 26.464,-32.036 44.572,-25.071 0,0 0.835,0.5 2.022,1.193"
       style="fill:none;stroke:#231f20;stroke-width:0.5;stroke-linecap:round;stroke-linejoin:round;stroke-miterlimit:4;stroke-dasharray:2.8, 1.8;stroke-dashoffset:0;stroke-opacity:1"
       id="path1050" />
    <path
       d="m 464.418,655.747 c -0.75,-1.052 -1.479,-2.061 -2.185,-3.022 0,0 -12.536,-24.607 -18.107,-32.964 -5.572,-8.357 -26.464,-32.036 -44.572,-25.071 0,0 -0.835,0.5 -2.022,1.193"
       style="fill:none;stroke:#231f20;stroke-width:0.5;stroke-linecap:round;stroke-linejoin:round;stroke-miterlimit:4;stroke-dasharray:2.8, 1.8;stroke-dashoffset:0;stroke-opacity:1"
       id="path1052" />
  </g>
</svg>
