<?xml version="1.0" encoding="UTF-8" standalone="no"?>
<!-- Created with Inkscape (http://www.inkscape.org/) -->

<svg
   version="1.1"
   id="svg2"
   width="1440"
   height="1344"
   viewBox="0 0 1440 1344"
   xmlns="http://www.w3.org/2000/svg"
   xmlns:svg="http://www.w3.org/2000/svg">
  <defs
     id="defs6" />
  <g
     id="g8">
    <path
       d="m 728.038,584.685 c 0,-1.731 -1.404,-3.134 -3.134,-3.134 -1.731,0 -3.134,1.403 -3.134,3.134 0,1.731 1.403,3.134 3.134,3.134 1.73,0 3.134,-1.403 3.134,-3.134"
       style="fill:#ffffff;fill-opacity:1;fill-rule:nonzero;stroke:none;stroke-width:0.1"
       id="path672" />
    <path
       d="m 728.038,584.685 c 0,-1.731 -1.404,-3.134 -3.134,-3.134 -1.731,0 -3.134,1.403 -3.134,3.134 0,1.731 1.403,3.134 3.134,3.134 1.73,0 3.134,-1.403 3.134,-3.134 z"
       style="fill:none;stroke:#231f20;stroke-width:0.5;stroke-linecap:butt;stroke-linejoin:miter;stroke-miterlimit:4;stroke-dasharray:none;stroke-opacity:1"
       id="path674" />
    <path
       d="m 727.341,575.284 c 0,-1.733 -1.403,-3.135 -3.133,-3.135 -1.731,0 -3.134,1.402 -3.134,3.135 0,1.729 1.403,3.133 3.134,3.133 1.73,0 3.133,-1.404 3.133,-3.133"
       style="fill:#ffffff;fill-opacity:1;fill-rule:nonzero;stroke:none;stroke-width:0.1"
       id="path676" />
    <path
       d="m 727.341,575.284 c 0,-1.733 -1.403,-3.135 -3.133,-3.135 -1.731,0 -3.134,1.402 -3.134,3.135 0,1.729 1.403,3.133 3.134,3.133 1.73,0 3.133,-1.404 3.133,-3.133 z"
       style="fill:none;stroke:#231f20;stroke-width:0.5;stroke-linecap:butt;stroke-linejoin:miter;stroke-miterlimit:4;stroke-dasharray:none;stroke-opacity:1"
       id="path678" />
    <path
       d="m 724.555,554.042 c 2.429,-0.729 5.277,2.3 6.965,5.223 1.688,2.922 1.393,9.054 -2.786,10.099 -4.179,1.045 -5.571,-3.134 -5.919,-5.224 -0.349,-2.089 -1.741,-9.054 1.74,-10.098"
       style="fill:#ffffff;fill-opacity:1;fill-rule:nonzero;stroke:none;stroke-width:0.1"
       id="path680" />
    <path
       d="m 724.555,554.042 c 2.429,-0.729 5.277,2.3 6.965,5.223 1.688,2.922 1.393,9.054 -2.786,10.099 -4.179,1.045 -5.571,-3.134 -5.919,-5.224 -0.349,-2.089 -1.741,-9.054 1.74,-10.098 z"
       style="fill:none;stroke:#231f20;stroke-width:0.5;stroke-linecap:butt;stroke-linejoin:miter;stroke-miterlimit:4;stroke-dasharray:none;stroke-opacity:1"
       id="path682" />
    <path
       d="m 733.609,518.873 c 0,-2.117 -1.715,-3.831 -3.83,-3.831 -2.115,0 -3.83,1.714 -3.83,3.831 0,2.113 1.715,3.83 3.83,3.83 2.115,0 3.83,-1.717 3.83,-3.83"
       style="fill:#ffffff;fill-opacity:1;fill-rule:nonzero;stroke:none;stroke-width:0.1"
       id="path684" />
    <path
       d="m 733.609,518.873 c 0,-2.117 -1.715,-3.831 -3.83,-3.831 -2.115,0 -3.83,1.714 -3.83,3.831 0,2.113 1.715,3.83 3.83,3.83 2.115,0 3.83,-1.717 3.83,-3.83 z"
       style="fill:none;stroke:#231f20;stroke-width:0.5;stroke-linecap:butt;stroke-linejoin:miter;stroke-miterlimit:4;stroke-dasharray:none;stroke-opacity:1"
       id="path686" />
    <path
       d="m 736.743,523.399 c 3.062,1.546 1.741,6.616 0.348,10.446 -1.392,3.831 -4.178,9.403 -7.661,8.01 -3.481,-1.394 -1.999,-7.974 -1.044,-10.447 1.221,-3.166 3.139,-10.642 8.357,-8.009"
       style="fill:#ffffff;fill-opacity:1;fill-rule:nonzero;stroke:none;stroke-width:0.1"
       id="path688" />
    <path
       d="m 736.743,523.399 c 3.062,1.546 1.741,6.616 0.348,10.446 -1.392,3.831 -4.178,9.403 -7.661,8.01 -3.481,-1.394 -1.999,-7.974 -1.044,-10.447 1.221,-3.166 3.139,-10.642 8.357,-8.009 z"
       style="fill:none;stroke:#231f20;stroke-width:0.5;stroke-linecap:butt;stroke-linejoin:miter;stroke-miterlimit:4;stroke-dasharray:none;stroke-opacity:1"
       id="path690" />
    <path
       d="m 544.529,302.166 c 0,-1.923 -2.027,-3.482 -4.527,-3.482 -2.5,0 -4.527,1.559 -4.527,3.482 0,1.923 2.027,3.482 4.527,3.482 2.5,0 4.527,-1.559 4.527,-3.482"
       style="fill:#ffffff;fill-opacity:1;fill-rule:nonzero;stroke:none;stroke-width:0.1"
       id="path692" />
    <path
       d="m 544.529,302.166 c 0,-1.923 -2.027,-3.482 -4.527,-3.482 -2.5,0 -4.527,1.559 -4.527,3.482 0,1.923 2.027,3.482 4.527,3.482 2.5,0 4.527,-1.559 4.527,-3.482 z"
       style="fill:none;stroke:#231f20;stroke-width:0.5;stroke-linecap:butt;stroke-linejoin:miter;stroke-miterlimit:4;stroke-dasharray:none;stroke-opacity:1"
       id="path694" />
    <path
       d="m 351.965,584.685 c 0,-1.731 1.405,-3.134 3.134,-3.134 1.731,0 3.134,1.403 3.134,3.134 0,1.731 -1.403,3.134 -3.134,3.134 -1.729,0 -3.134,-1.403 -3.134,-3.134"
       style="fill:#ffffff;fill-opacity:1;fill-rule:nonzero;stroke:none;stroke-width:0.1"
       id="path696" />
    <path
       d="m 351.965,584.685 c 0,-1.731 1.405,-3.134 3.134,-3.134 1.731,0 3.134,1.403 3.134,3.134 0,1.731 -1.403,3.134 -3.134,3.134 -1.729,0 -3.134,-1.403 -3.134,-3.134 z"
       style="fill:none;stroke:#231f20;stroke-width:0.5;stroke-linecap:butt;stroke-linejoin:miter;stroke-miterlimit:4;stroke-dasharray:none;stroke-opacity:1"
       id="path698" />
    <path
       d="m 352.662,575.284 c 0,-1.733 1.404,-3.135 3.133,-3.135 1.731,0 3.135,1.402 3.135,3.135 0,1.729 -1.404,3.133 -3.135,3.133 -1.729,0 -3.133,-1.404 -3.133,-3.133"
       style="fill:#ffffff;fill-opacity:1;fill-rule:nonzero;stroke:none;stroke-width:0.1"
       id="path700" />
    <path
       d="m 352.662,575.284 c 0,-1.733 1.404,-3.135 3.133,-3.135 1.731,0 3.135,1.402 3.135,3.135 0,1.729 -1.404,3.133 -3.135,3.133 -1.729,0 -3.133,-1.404 -3.133,-3.133 z"
       style="fill:none;stroke:#231f20;stroke-width:0.5;stroke-linecap:butt;stroke-linejoin:miter;stroke-miterlimit:4;stroke-dasharray:none;stroke-opacity:1"
       id="path702" />
    <path
       d="m 355.448,554.042 c -2.428,-0.729 -5.277,2.3 -6.965,5.223 -1.688,2.922 -1.393,9.054 2.786,10.099 4.179,1.045 5.571,-3.134 5.92,-5.224 0.348,-2.089 1.741,-9.054 -1.741,-10.098"
       style="fill:#ffffff;fill-opacity:1;fill-rule:nonzero;stroke:none;stroke-width:0.1"
       id="path704" />
    <path
       d="m 355.448,554.042 c -2.428,-0.729 -5.277,2.3 -6.965,5.223 -1.688,2.922 -1.393,9.054 2.786,10.099 4.179,1.045 5.571,-3.134 5.92,-5.224 0.348,-2.089 1.741,-9.054 -1.741,-10.098 z"
       style="fill:none;stroke:#231f20;stroke-width:0.5;stroke-linecap:butt;stroke-linejoin:miter;stroke-miterlimit:4;stroke-dasharray:none;stroke-opacity:1"
       id="path706" />
    <path
       d="m 346.394,518.873 c 0,-2.117 1.715,-3.831 3.83,-3.831 2.115,0 3.831,1.714 3.831,3.831 0,2.113 -1.716,3.83 -3.831,3.83 -2.115,0 -3.83,-1.717 -3.83,-3.83"
       style="fill:#ffffff;fill-opacity:1;fill-rule:nonzero;stroke:none;stroke-width:0.1"
       id="path708" />
    <path
       d="m 346.394,518.873 c 0,-2.117 1.715,-3.831 3.83,-3.831 2.115,0 3.831,1.714 3.831,3.831 0,2.113 -1.716,3.83 -3.831,3.83 -2.115,0 -3.83,-1.717 -3.83,-3.83 z"
       style="fill:none;stroke:#231f20;stroke-width:0.5;stroke-linecap:butt;stroke-linejoin:miter;stroke-miterlimit:4;stroke-dasharray:none;stroke-opacity:1"
       id="path710" />
    <path
       d="m 343.26,523.399 c -3.061,1.546 -1.741,6.616 -0.348,10.446 1.393,3.831 4.178,9.403 7.661,8.01 3.482,-1.394 1.999,-7.974 1.045,-10.447 -1.222,-3.166 -3.14,-10.642 -8.358,-8.009"
       style="fill:#ffffff;fill-opacity:1;fill-rule:nonzero;stroke:none;stroke-width:0.1"
       id="path712" />
    <path
       d="m 343.26,523.399 c -3.061,1.546 -1.741,6.616 -0.348,10.446 1.393,3.831 4.178,9.403 7.661,8.01 3.482,-1.394 1.999,-7.974 1.045,-10.447 -1.222,-3.166 -3.14,-10.642 -8.358,-8.009 z"
       style="fill:none;stroke:#231f20;stroke-width:0.5;stroke-linecap:butt;stroke-linejoin:miter;stroke-miterlimit:4;stroke-dasharray:none;stroke-opacity:1"
       id="path714" />
    <path
       d="m 723.087,611.207 c 0.779,7.222 1.471,15.076 1.932,23.621 1.857,34.356 -5.571,44.571 -5.571,44.571 -0.929,6.036 -8.358,32.964 -19.5,51.071 -11.143,18.108 -45.964,40.393 -68.25,47.822 -10.678,4.643 -34.358,21.821 -39,29.25 -4.643,7.429 -10.213,21.357 -9.285,29.714 0.927,8.358 16.713,32.801 58.035,43.643 41.322,10.842 94.716,1.392 138.358,-22.285 43.643,-23.679 73.82,-46.429 103.999,-95.644 30.18,-49.214 39.466,-76.142 40.859,-82.178 1.392,-6.037 13.928,-35.286 9.75,-58.036 -4.179,-22.75 -10.688,-31.107 -20.429,-43.642 -3.028,-3.899 -4.643,-5.572 -2.786,-9.75 1.856,-4.179 6.963,-11.609 1.856,-25.537 -5.106,-13.929 -19.034,-32.498 -32.499,-48.75 -13.465,-16.249 -38.536,-35.749 -66.393,-34.357 -27.858,1.394 -49.678,5.11 -64.536,42.714 -14.858,37.608 -22.435,94.366 -26.54,107.773"
       style="fill:#ffffff;fill-opacity:1;fill-rule:nonzero;stroke:none;stroke-width:0.1"
       id="path716" />
    <path
       d="m 723.087,611.207 c 0.779,7.222 1.471,15.076 1.932,23.621 1.857,34.356 -5.571,44.571 -5.571,44.571 -0.929,6.036 -8.358,32.964 -19.5,51.071 -11.143,18.108 -45.964,40.393 -68.25,47.822 -10.678,4.643 -34.358,21.821 -39,29.25 -4.643,7.429 -10.213,21.357 -9.285,29.714 0.927,8.358 16.713,32.801 58.035,43.643 41.322,10.842 94.716,1.392 138.358,-22.285 43.643,-23.679 73.82,-46.429 103.999,-95.644 30.18,-49.214 39.466,-76.142 40.859,-82.178 1.392,-6.037 13.928,-35.286 9.75,-58.036 -4.179,-22.75 -10.688,-31.107 -20.429,-43.642 -3.028,-3.899 -4.643,-5.572 -2.786,-9.75 1.856,-4.179 6.963,-11.609 1.856,-25.537 -5.106,-13.929 -19.034,-32.498 -32.499,-48.75 -13.465,-16.249 -38.536,-35.749 -66.393,-34.357 -27.858,1.394 -49.678,5.11 -64.536,42.714 -14.858,37.608 -22.435,94.366 -26.54,107.773 z"
       style="fill:none;stroke:#231f20;stroke-width:0.75;stroke-linecap:round;stroke-linejoin:round;stroke-miterlimit:4;stroke-dasharray:none;stroke-opacity:1"
       id="path718" />
    <path
       d="m 540.002,751.828 c -15.554,0 -35.982,18.107 -34.589,44.571 1.392,26.465 29.249,31.107 34.589,31.107 5.34,0 33.196,-4.642 34.588,-31.107 1.393,-26.464 -19.036,-44.571 -34.588,-44.571"
       style="fill:#b2b1b1;fill-opacity:1;fill-rule:nonzero;stroke:none;stroke-width:0.1"
       id="path720" />
    <path
       d="m 540.002,305.648 c -10.912,0 -16.018,-2.786 -20.662,-4.644 -4.642,-1.858 -30.177,-5.106 -45.036,1.393 -46.861,20.498 -60.356,43.179 -62.678,46.43 -2.322,3.251 -11.143,6.036 -19.964,13.463 -8.821,7.429 -13.465,5.572 -20.893,6.037 -7.428,0.465 -16.25,7.429 -21.822,16.249 -5.571,8.822 -17.178,31.108 -24.142,36.214 -6.965,5.106 -15.322,13.466 -17.643,21.358 -2.323,7.894 6.964,18.572 16.25,23.214 9.286,4.643 13.464,-4.642 13.464,-4.642 -1.392,2.322 0.464,6.034 1.857,7.427 1.393,1.393 7.429,6.037 9.75,13.467 2.322,7.426 5.572,-0.466 5.572,-0.466 -1.857,7.43 -2.322,28.785 -0.929,37.142 1.393,8.357 9.286,27.395 9.286,43.18 0,11.86 -3.146,27.913 -5.496,49.737 -0.779,7.222 -1.471,15.076 -1.932,23.621 -1.857,34.356 5.571,44.571 5.571,44.571 0.929,6.036 8.358,32.964 19.5,51.071 11.143,18.108 45.965,40.393 68.25,47.822 19.036,5.107 38.535,-8.357 43.643,-13 5.107,-4.643 13.465,-16.714 19.036,-21.357 5.571,-4.643 23.214,-6.965 29.018,-6.965 5.802,0 23.446,2.322 29.017,6.965 5.571,4.643 13.929,16.714 19.036,21.357 5.108,4.643 24.607,18.107 43.643,13 22.286,-7.429 57.107,-29.714 68.25,-47.822 11.142,-18.107 18.571,-45.035 19.5,-51.071 0,0 7.428,-10.215 5.571,-44.571 -0.461,-8.545 -1.153,-16.399 -1.932,-23.621 -2.349,-21.824 -5.496,-37.877 -5.496,-49.737 0,-15.785 7.894,-34.823 9.286,-43.18 1.393,-8.357 0.928,-29.712 -0.928,-37.142 0,0 3.249,7.892 5.571,0.466 2.321,-7.43 8.357,-12.074 9.75,-13.467 1.393,-1.393 3.249,-5.105 1.856,-7.427 0,0 4.179,9.285 13.465,4.642 9.286,-4.642 18.573,-15.32 16.251,-23.214 -2.322,-7.892 -10.679,-16.252 -17.643,-21.358 -6.965,-5.106 -18.572,-27.392 -24.143,-36.214 -5.571,-8.82 -14.393,-15.784 -21.822,-16.249 -7.428,-0.465 -12.071,1.392 -20.893,-6.037 -8.821,-7.427 -17.642,-10.212 -19.964,-13.463 -2.322,-3.251 -15.816,-25.932 -62.678,-46.43 -14.858,-6.499 -40.393,-3.251 -45.035,-1.393 -4.645,1.858 -9.75,4.644 -20.662,4.644"
       style="fill:#ffffff;fill-opacity:1;fill-rule:nonzero;stroke:none;stroke-width:0.1"
       id="path722" />
    <path
       d="m 540.002,305.648 c -10.912,0 -16.018,-2.786 -20.662,-4.644 -4.642,-1.858 -30.177,-5.106 -45.036,1.393 -46.861,20.498 -60.356,43.179 -62.678,46.43 -2.322,3.251 -11.143,6.036 -19.964,13.463 -8.821,7.429 -13.465,5.572 -20.893,6.037 -7.428,0.465 -16.25,7.429 -21.822,16.249 -5.571,8.822 -17.178,31.108 -24.142,36.214 -6.965,5.106 -15.322,13.466 -17.643,21.358 -2.323,7.894 6.964,18.572 16.25,23.214 9.286,4.643 13.464,-4.642 13.464,-4.642 -1.392,2.322 0.464,6.034 1.857,7.427 1.393,1.393 7.429,6.037 9.75,13.467 2.322,7.426 5.572,-0.466 5.572,-0.466 -1.857,7.43 -2.322,28.785 -0.929,37.142 1.393,8.357 9.286,27.395 9.286,43.18 0,11.86 -3.146,27.913 -5.496,49.737 -0.779,7.222 -1.471,15.076 -1.932,23.621 -1.857,34.356 5.571,44.571 5.571,44.571 0.929,6.036 8.358,32.964 19.5,51.071 11.143,18.108 45.965,40.393 68.25,47.822 19.036,5.107 38.535,-8.357 43.643,-13 5.107,-4.643 13.465,-16.714 19.036,-21.357 5.571,-4.643 23.214,-6.965 29.018,-6.965 5.802,0 23.446,2.322 29.017,6.965 5.571,4.643 13.929,16.714 19.036,21.357 5.108,4.643 24.607,18.107 43.643,13 22.286,-7.429 57.107,-29.714 68.25,-47.822 11.142,-18.107 18.571,-45.035 19.5,-51.071 0,0 7.428,-10.215 5.571,-44.571 -0.461,-8.545 -1.153,-16.399 -1.932,-23.621 -2.349,-21.824 -5.496,-37.877 -5.496,-49.737 0,-15.785 7.894,-34.823 9.286,-43.18 1.393,-8.357 0.928,-29.712 -0.928,-37.142 0,0 3.249,7.892 5.571,0.466 2.321,-7.43 8.357,-12.074 9.75,-13.467 1.393,-1.393 3.249,-5.105 1.856,-7.427 0,0 4.179,9.285 13.465,4.642 9.286,-4.642 18.573,-15.32 16.251,-23.214 -2.322,-7.892 -10.679,-16.252 -17.643,-21.358 -6.965,-5.106 -18.572,-27.392 -24.143,-36.214 -5.571,-8.82 -14.393,-15.784 -21.822,-16.249 -7.428,-0.465 -12.071,1.392 -20.893,-6.037 -8.821,-7.427 -17.642,-10.212 -19.964,-13.463 -2.322,-3.251 -15.816,-25.932 -62.678,-46.43 -14.858,-6.499 -40.393,-3.251 -45.035,-1.393 -4.645,1.858 -9.75,4.644 -20.662,4.644 z"
       style="fill:none;stroke:#231f20;stroke-width:0.75;stroke-linecap:round;stroke-linejoin:round;stroke-miterlimit:4;stroke-dasharray:none;stroke-opacity:1"
       id="path724" />
    <path
       d="m 743.126,460.72 c -5.106,-7.428 -17.641,-27.859 -24.606,-38.537 -6.964,-10.678 -23.679,-35.284 -27.394,-39.928 -3.713,-4.643 -15.082,-24.481 -22.219,-32.808"
       style="fill:none;stroke:#231f20;stroke-width:0.5;stroke-linecap:butt;stroke-linejoin:miter;stroke-miterlimit:4;stroke-dasharray:none;stroke-opacity:1"
       id="path726" />
    <path
       d="m 691.866,383.215 c -2.596,-6.531 -10.023,-21.412 1.815,-17.222"
       style="fill:none;stroke:#231f20;stroke-width:0.5;stroke-linecap:butt;stroke-linejoin:miter;stroke-miterlimit:4;stroke-dasharray:none;stroke-opacity:1"
       id="path728" />
    <path
       d="m 577.775,721.067 c 2.566,-3.971 7.146,-19.731 7.495,-27.043 0.348,-7.313 0.696,-10.795 0.696,-12.884 0,-2.09 0,-3.83 2.438,-6.267 2.437,-2.438 12.884,-14.278 16.366,-20.198 3.482,-5.919 11.143,-16.366 11.143,-16.366 0.696,11.84 -4.528,17.76 -7.661,28.554 -3.134,10.795 -7.313,17.76 -10.794,23.331 -3.483,5.571 -21.59,34.125 -25.073,39 -3.481,4.875 -6.267,9.75 -5.749,13.226"
       style="fill:none;stroke:#231f20;stroke-width:0.5;stroke-linecap:butt;stroke-linejoin:miter;stroke-miterlimit:4;stroke-dasharray:none;stroke-opacity:1"
       id="path730" />
    <path
       d="m 615.913,638.309 c 0,-3.481 -1.742,-10.446 -1.393,-13.58 0.348,-3.134 1.044,-7.312 2.438,-10.794"
       style="fill:none;stroke:#231f20;stroke-width:0.5;stroke-linecap:butt;stroke-linejoin:miter;stroke-miterlimit:4;stroke-dasharray:none;stroke-opacity:1"
       id="path732" />
    <path
       d="m 615.009,648.266 c 2.113,-3.224 4.536,-8.317 7.025,-12.722"
       style="fill:none;stroke:#231f20;stroke-width:0.5;stroke-linecap:butt;stroke-linejoin:miter;stroke-miterlimit:4;stroke-dasharray:none;stroke-opacity:1"
       id="path734" />
    <path
       d="m 719.448,679.399 c 1.626,-9.054 2.322,-15.67 0.929,-32.036 -1.393,-16.366 -2.786,-31.338 -3.831,-37.258 -1.044,-5.92 -1.533,-10.368 -1.924,-12.1 -0.964,-4.266 3.413,-8.02 7.196,2.388"
       style="fill:none;stroke:#231f20;stroke-width:0.5;stroke-linecap:butt;stroke-linejoin:miter;stroke-miterlimit:4;stroke-dasharray:none;stroke-opacity:1"
       id="path736" />
    <path
       d="m 717.245,614.935 c -0.686,-4.741 -4.389,-16.571 -22.965,-15.359"
       style="fill:none;stroke:#231f20;stroke-width:0.5;stroke-linecap:butt;stroke-linejoin:miter;stroke-miterlimit:4;stroke-dasharray:none;stroke-opacity:1"
       id="path738" />
    <path
       d="m 362.759,614.935 c 0.686,-4.741 4.388,-16.571 22.964,-15.359"
       style="fill:none;stroke:#231f20;stroke-width:0.5;stroke-linecap:butt;stroke-linejoin:miter;stroke-miterlimit:4;stroke-dasharray:none;stroke-opacity:1"
       id="path740" />
    <path
       d="m 694.279,599.581 c 0,0 3.415,-11.08 4.833,-16.47"
       style="fill:none;stroke:#231f20;stroke-width:0.25;stroke-linecap:butt;stroke-linejoin:miter;stroke-miterlimit:4;stroke-dasharray:none;stroke-opacity:1"
       id="path742" />
    <path
       d="m 667.796,596.524 10.539,-19.04"
       style="fill:none;stroke:#231f20;stroke-width:0.25;stroke-linecap:butt;stroke-linejoin:miter;stroke-miterlimit:4;stroke-dasharray:none;stroke-opacity:1"
       id="path744" />
    <path
       d="m 614.868,580.855 c 8.357,13.929 3.482,29.598 2.09,33.08 0,0 6.615,-6.268 5.571,-15.321 -1.045,-9.054 -3.483,-16.018 -7.661,-17.759 z"
       style="fill:none;stroke:#231f20;stroke-width:0.5;stroke-linecap:butt;stroke-linejoin:miter;stroke-miterlimit:4;stroke-dasharray:none;stroke-opacity:1"
       id="path746" />
    <path
       d="m 614.868,580.855 c -3.134,-3.831 -14.625,-18.804 -17.063,-21.241"
       style="fill:none;stroke:#231f20;stroke-width:0.5;stroke-linecap:butt;stroke-linejoin:miter;stroke-miterlimit:4;stroke-dasharray:none;stroke-opacity:1"
       id="path748" />
    <path
       d="m 603.34,566.258 c -0.917,-1.146 1.081,-2.814 4.912,-2.466 3.83,0.348 7.312,2.438 6.964,5.919 -0.348,3.483 -4.847,3.733 -7.125,2.564"
       style="fill:none;stroke:#231f20;stroke-width:0.5;stroke-linecap:butt;stroke-linejoin:miter;stroke-miterlimit:4;stroke-dasharray:none;stroke-opacity:1"
       id="path750" />
    <path
       d="m 583.529,531.06 c 9.053,3.482 30.642,12.188 36.214,11.839 5.571,-0.348 9.75,-4.526 14.973,-11.491 5.223,-6.964 14.973,-17.063 16.366,-19.152 1.393,-2.089 1.044,-6.616 0.348,-8.705 -0.696,-2.09 -8.357,-1.393 -14.625,1.044 -6.267,2.438 -21.589,8.358 -33.08,8.01 -11.491,-0.349 -21.248,-2.642 -39.177,8.95"
       style="fill:none;stroke:#231f20;stroke-width:0.5;stroke-linecap:butt;stroke-linejoin:miter;stroke-miterlimit:4;stroke-dasharray:none;stroke-opacity:1"
       id="path752" />
    <path
       d="m 550.448,537.328 c -6.268,-6.617 -4.527,-14.277 -4.527,-14.277 7.313,-3.831 13.581,-2.786 17.759,-1.741 4.179,1.045 16.018,6.616 19.849,9.75 3.83,3.134 4.875,7.313 7.312,11.839 2.438,4.527 6.964,16.715 6.964,16.715 -2.785,-2.786 -9.053,-10.447 -13.232,-15.322 -4.178,-4.875 -8.009,-7.312 -15.669,-6.616 -7.661,0.697 -14.974,2.785 -18.456,-0.348"
       style="fill:none;stroke:#231f20;stroke-width:0.5;stroke-linecap:butt;stroke-linejoin:miter;stroke-miterlimit:4;stroke-dasharray:none;stroke-opacity:1"
       id="path754" />
    <path
       d="m 564.722,495.131 c 2.092,-14.213 1.146,-55.678 -7.212,-81.098"
       style="fill:none;stroke:#231f20;stroke-width:0.5;stroke-linecap:butt;stroke-linejoin:miter;stroke-miterlimit:4;stroke-dasharray:none;stroke-opacity:1"
       id="path756" />
    <path
       d="m 572.782,499.533 c 3.434,-18.268 4.478,-49.607 -6.316,-85.125"
       style="fill:none;stroke:#231f20;stroke-width:0.5;stroke-linecap:butt;stroke-linejoin:miter;stroke-miterlimit:4;stroke-dasharray:none;stroke-opacity:1"
       id="path758" />
    <path
       d="m 646.208,448.881 c 0,-6.616 6.616,-11.491 15.321,-5.223 8.705,6.268 13.929,16.366 9.401,20.893 -4.526,4.527 -11.142,1.393 -17.41,-4.178 -6.268,-5.572 -7.312,-9.272 -7.312,-11.492 z"
       style="fill:none;stroke:#231f20;stroke-width:0.5;stroke-linecap:butt;stroke-linejoin:miter;stroke-miterlimit:4;stroke-dasharray:none;stroke-opacity:1"
       id="path760" />
    <path
       d="m 717.243,461.416 c -1.044,-5.918 -5.617,-26.232 -28.403,-42.019"
       style="fill:none;stroke:#231f20;stroke-width:0.5;stroke-linecap:butt;stroke-linejoin:miter;stroke-miterlimit:4;stroke-dasharray:none;stroke-opacity:1"
       id="path762" />
    <path
       d="m 653.52,440.873 c -6.006,-15.415 -9.75,-30.992 -10.099,-39.697 -0.348,-8.706 5.142,-26.535 18.589,-21.102"
       style="fill:none;stroke:#231f20;stroke-width:0.5;stroke-linecap:butt;stroke-linejoin:miter;stroke-miterlimit:4;stroke-dasharray:none;stroke-opacity:1"
       id="path764" />
    <path
       d="m 667.131,530.015 c 0,0 19.736,5.814 26.218,10.394"
       style="fill:none;stroke:#231f20;stroke-width:0.25;stroke-linecap:butt;stroke-linejoin:miter;stroke-miterlimit:4;stroke-dasharray:none;stroke-opacity:1"
       id="path766" />
    <path
       d="m 673.368,514.694 c 5.571,1.741 11.45,3.175 17.589,5.514"
       style="fill:none;stroke:#231f20;stroke-width:0.25;stroke-linecap:butt;stroke-linejoin:miter;stroke-miterlimit:4;stroke-dasharray:none;stroke-opacity:1"
       id="path768" />
    <path
       d="m 608.948,386.203 c -5.919,0.696 -21.24,1.392 -28.553,2.437 -7.313,1.045 -16.715,2.438 -20.893,3.134 -4.179,0.696 -10.447,1.045 -11.492,-2.438 -1.044,-3.482 0,-14.276 0.697,-17.758 0.697,-3.483 3.831,-14.278 11.839,-13.233 0,0 -6.964,-4.526 -0.348,-8.009 6.616,-3.482 21.937,-1.392 26.116,-1.044 4.179,0.348 10.446,1.741 17.411,0 6.964,-1.742 14.625,-4.527 22.634,1.741 8.009,6.267 12.187,14.625 13.929,17.759 1.741,3.133 2.088,7.312 -0.697,10.098 -2.786,2.785 -9.461,6.659 -15.67,8.009 -8.008,1.741 -14.973,-0.696 -14.973,-0.696 z"
       style="fill:none;stroke:#231f20;stroke-width:0.5;stroke-linecap:butt;stroke-linejoin:miter;stroke-miterlimit:4;stroke-dasharray:none;stroke-opacity:1"
       id="path770" />
    <path
       d="m 548.707,371.578 c 9.053,3.133 43.935,12.212 56.441,14.984"
       style="fill:none;stroke:#231f20;stroke-width:0.5;stroke-linecap:butt;stroke-linejoin:miter;stroke-miterlimit:4;stroke-dasharray:none;stroke-opacity:1"
       id="path772" />
    <path
       d="m 560.546,358.345 c 9.054,2.438 23.679,7.313 27.858,10.447 4.178,3.133 11.839,13.581 20.544,17.411"
       style="fill:none;stroke:#231f20;stroke-width:0.5;stroke-linecap:butt;stroke-linejoin:miter;stroke-miterlimit:4;stroke-dasharray:none;stroke-opacity:1"
       id="path774" />
    <path
       d="m 336.876,460.72 c 5.107,-7.428 17.643,-27.859 24.607,-38.537 6.964,-10.678 23.679,-35.284 27.393,-39.928 3.715,-4.643 15.082,-24.481 22.221,-32.808"
       style="fill:none;stroke:#231f20;stroke-width:0.5;stroke-linecap:butt;stroke-linejoin:miter;stroke-miterlimit:4;stroke-dasharray:none;stroke-opacity:1"
       id="path776" />
    <path
       d="m 388.138,383.215 c 2.595,-6.531 10.022,-21.412 -1.816,-17.222"
       style="fill:none;stroke:#231f20;stroke-width:0.5;stroke-linecap:butt;stroke-linejoin:miter;stroke-miterlimit:4;stroke-dasharray:none;stroke-opacity:1"
       id="path778" />
    <path
       d="m 502.228,721.067 c -2.566,-3.971 -7.146,-19.731 -7.494,-27.043 -0.349,-7.313 -0.696,-10.795 -0.696,-12.884 0,-2.09 0,-3.83 -2.438,-6.267 -2.437,-2.438 -12.885,-14.278 -16.366,-20.198 -3.483,-5.919 -11.144,-16.366 -11.144,-16.366 -0.696,11.84 4.528,17.76 7.661,28.554 3.134,10.795 7.313,17.76 10.795,23.331 3.482,5.571 21.589,34.125 25.072,39 3.482,4.875 6.267,9.75 5.75,13.226"
       style="fill:none;stroke:#231f20;stroke-width:0.5;stroke-linecap:butt;stroke-linejoin:miter;stroke-miterlimit:4;stroke-dasharray:none;stroke-opacity:1"
       id="path780" />
    <path
       d="m 464.09,638.309 c 0,-3.481 1.742,-10.446 1.394,-13.58 -0.349,-3.134 -1.045,-7.312 -2.438,-10.794"
       style="fill:none;stroke:#231f20;stroke-width:0.5;stroke-linecap:butt;stroke-linejoin:miter;stroke-miterlimit:4;stroke-dasharray:none;stroke-opacity:1"
       id="path782" />
    <path
       d="m 465.356,628.197 c 3.006,5.557 8.833,13.595 16.494,22.3 7.66,8.706 18.803,16.018 28.554,20.893 9.75,4.875 25.071,6.616 29.598,6.616 4.527,0 19.848,-1.741 29.598,-6.616 9.75,-4.875 20.893,-12.187 28.554,-20.893 7.66,-8.705 13.487,-16.743 16.494,-22.3"
       style="fill:none;stroke:#231f20;stroke-width:0.5;stroke-linecap:butt;stroke-linejoin:miter;stroke-miterlimit:4;stroke-dasharray:none;stroke-opacity:1"
       id="path784" />
    <path
       d="m 566.814,636.916 c -1.045,8.009 -8.009,11.143 -11.143,11.84 -3.133,0.697 -6.964,3.83 -8.705,5.572 -1.741,1.741 -3.831,2.785 -6.964,2.785 -3.134,0 -5.223,-1.044 -6.964,-2.785 -1.742,-1.742 -5.572,-4.875 -8.706,-5.572 -3.134,-0.697 -10.098,-3.831 -11.143,-11.84 -1.045,-8.008 0.696,-20.195 3.83,-25.418 3.135,-5.224 3.831,-10.795 4.875,-14.277 1.045,-3.482 3.831,-12.885 18.108,-12.885 14.277,0 17.062,9.403 18.107,12.885 1.045,3.482 1.741,9.053 4.875,14.277 3.134,5.223 4.875,17.41 3.83,25.418"
       style="fill:#706d6e;fill-opacity:1;fill-rule:nonzero;stroke:none;stroke-width:0.1"
       id="path786" />
    <path
       d="m 566.814,636.916 c -1.045,8.009 -8.009,11.143 -11.143,11.84 -3.133,0.697 -6.964,3.83 -8.705,5.572 -1.741,1.741 -3.831,2.785 -6.964,2.785 -3.134,0 -5.223,-1.044 -6.964,-2.785 -1.742,-1.742 -5.572,-4.875 -8.706,-5.572 -3.134,-0.697 -10.098,-3.831 -11.143,-11.84 -1.045,-8.008 0.696,-20.195 3.83,-25.418 3.135,-5.224 3.831,-10.795 4.875,-14.277 1.045,-3.482 3.831,-12.885 18.108,-12.885 14.277,0 17.062,9.403 18.107,12.885 1.045,3.482 1.741,9.053 4.875,14.277 3.134,5.223 4.875,17.41 3.83,25.418 z"
       style="fill:none;stroke:#231f20;stroke-width:0.75;stroke-linecap:round;stroke-linejoin:round;stroke-miterlimit:4;stroke-dasharray:none;stroke-opacity:1"
       id="path788" />
    <path
       d="m 360.555,679.399 c -1.625,-9.054 -2.322,-15.67 -0.929,-32.036 1.393,-16.366 2.786,-31.338 3.831,-37.258 1.044,-5.92 1.533,-10.368 1.924,-12.1 0.964,-4.266 -3.413,-8.02 -7.195,2.388"
       style="fill:none;stroke:#231f20;stroke-width:0.5;stroke-linecap:butt;stroke-linejoin:miter;stroke-miterlimit:4;stroke-dasharray:none;stroke-opacity:1"
       id="path790" />
    <path
       d="m 385.725,599.581 c 0,0 -3.416,-11.08 -4.833,-16.47"
       style="fill:none;stroke:#231f20;stroke-width:0.25;stroke-linecap:butt;stroke-linejoin:miter;stroke-miterlimit:4;stroke-dasharray:none;stroke-opacity:1"
       id="path792" />
    <path
       d="m 412.207,596.524 -10.539,-19.04"
       style="fill:none;stroke:#231f20;stroke-width:0.25;stroke-linecap:butt;stroke-linejoin:miter;stroke-miterlimit:4;stroke-dasharray:none;stroke-opacity:1"
       id="path794" />
    <path
       d="m 465.135,580.855 c -8.357,13.929 -3.482,29.598 -2.089,33.08 0,0 -6.616,-6.268 -5.571,-15.321 1.044,-9.054 3.482,-16.018 7.66,-17.759 z"
       style="fill:none;stroke:#231f20;stroke-width:0.5;stroke-linecap:butt;stroke-linejoin:miter;stroke-miterlimit:4;stroke-dasharray:none;stroke-opacity:1"
       id="path796" />
    <path
       d="m 465.135,580.855 c 3.134,-3.831 14.625,-18.804 17.063,-21.241"
       style="fill:none;stroke:#231f20;stroke-width:0.5;stroke-linecap:butt;stroke-linejoin:miter;stroke-miterlimit:4;stroke-dasharray:none;stroke-opacity:1"
       id="path798" />
    <path
       d="m 476.664,566.258 c 0.916,-1.146 -1.082,-2.814 -4.913,-2.466 -3.83,0.348 -7.312,2.438 -6.963,5.919 0.347,3.483 4.847,3.733 7.124,2.564"
       style="fill:none;stroke:#231f20;stroke-width:0.5;stroke-linecap:butt;stroke-linejoin:miter;stroke-miterlimit:4;stroke-dasharray:none;stroke-opacity:1"
       id="path800" />
    <path
       d="m 496.475,531.06 c -9.054,3.482 -30.643,12.188 -36.215,11.839 -5.571,-0.348 -9.75,-4.526 -14.972,-11.491 -5.224,-6.964 -14.974,-17.063 -16.367,-19.152 -1.393,-2.089 -1.045,-6.616 -0.348,-8.705 0.696,-2.09 8.357,-1.393 14.625,1.044 6.267,2.438 21.59,8.358 33.08,8.01 11.491,-0.349 21.248,-2.642 39.178,8.95"
       style="fill:none;stroke:#231f20;stroke-width:0.5;stroke-linecap:butt;stroke-linejoin:miter;stroke-miterlimit:4;stroke-dasharray:none;stroke-opacity:1"
       id="path802" />
    <path
       d="m 529.555,537.328 c 6.268,-6.617 4.527,-14.277 4.527,-14.277 -7.313,-3.831 -13.581,-2.786 -17.759,-1.741 -4.179,1.045 -16.018,6.616 -19.848,9.75 -3.831,3.134 -4.875,7.313 -7.312,11.839 -2.438,4.527 -6.965,16.715 -6.965,16.715 2.786,-2.786 9.053,-10.447 13.232,-15.322 4.179,-4.875 8.009,-7.312 15.67,-6.616 7.66,0.697 14.973,2.785 18.455,-0.348"
       style="fill:none;stroke:#231f20;stroke-width:0.5;stroke-linecap:butt;stroke-linejoin:miter;stroke-miterlimit:4;stroke-dasharray:none;stroke-opacity:1"
       id="path804" />
    <path
       d="m 515.281,495.131 c -2.092,-14.213 -1.145,-55.678 7.213,-81.098"
       style="fill:none;stroke:#231f20;stroke-width:0.5;stroke-linecap:butt;stroke-linejoin:miter;stroke-miterlimit:4;stroke-dasharray:none;stroke-opacity:1"
       id="path806" />
    <path
       d="m 507.222,499.533 c -3.434,-18.268 -4.479,-49.607 6.316,-85.125"
       style="fill:none;stroke:#231f20;stroke-width:0.5;stroke-linecap:butt;stroke-linejoin:miter;stroke-miterlimit:4;stroke-dasharray:none;stroke-opacity:1"
       id="path808" />
    <path
       d="m 433.796,448.881 c 0,-6.616 -6.616,-11.491 -15.322,-5.223 -8.705,6.268 -13.928,16.366 -9.401,20.893 4.526,4.527 11.142,1.393 17.411,-4.178 6.267,-5.572 7.312,-9.272 7.312,-11.492 z"
       style="fill:none;stroke:#231f20;stroke-width:0.5;stroke-linecap:butt;stroke-linejoin:miter;stroke-miterlimit:4;stroke-dasharray:none;stroke-opacity:1"
       id="path810" />
    <path
       d="m 354.055,481.148 c 2.089,-6.382 6.615,-15.9 8.705,-19.732 2.089,-3.83 17.411,-21.937 19.849,-26.812 2.437,-4.875 13.58,-24.026 19.5,-33.428 5.919,-9.402 14.625,-18.456 16.365,-21.938 1.741,-3.482 2.786,-11.49 4.527,-17.063 1.742,-5.571 6.617,-18.802 15.322,-27.509 8.705,-8.705 24.375,-23.678 35.517,-28.205 11.144,-4.527 25.769,-2.089 33.429,0 7.661,2.089 26.457,12.549 28.902,13.929 1.724,0.971 1.742,3.482 1.742,5.223 0,1.741 0,70.34 0,74.518 0,4.179 0,6.268 2.089,6.268 2.089,0 2.089,-2.089 2.089,-6.268 0,-4.178 0,-72.777 0,-74.518 0,-1.741 0.018,-4.252 1.741,-5.223 2.446,-1.38 21.241,-11.84 28.902,-13.929 7.661,-2.089 22.286,-4.527 33.429,0 11.142,4.527 26.812,19.5 35.517,28.205 8.706,8.707 13.581,21.938 15.322,27.509 1.741,5.573 2.786,13.581 4.527,17.063 1.741,3.482 10.446,12.536 16.366,21.938 5.919,9.402 17.063,28.553 19.5,33.428 2.437,4.875 17.759,22.982 19.848,26.812 2.089,3.832 6.616,13.35 8.706,19.732"
       style="fill:none;stroke:#231f20;stroke-width:0.5;stroke-linecap:butt;stroke-linejoin:miter;stroke-miterlimit:4;stroke-dasharray:none;stroke-opacity:1"
       id="path812" />
    <path
       d="m 362.76,461.416 c 1.045,-5.918 5.617,-26.232 28.403,-42.019"
       style="fill:none;stroke:#231f20;stroke-width:0.5;stroke-linecap:butt;stroke-linejoin:miter;stroke-miterlimit:4;stroke-dasharray:none;stroke-opacity:1"
       id="path814" />
    <path
       d="m 426.484,440.873 c 6.005,-15.415 9.75,-30.992 10.098,-39.697 0.348,-8.706 -5.142,-26.535 -18.589,-21.102"
       style="fill:none;stroke:#231f20;stroke-width:0.5;stroke-linecap:butt;stroke-linejoin:miter;stroke-miterlimit:4;stroke-dasharray:none;stroke-opacity:1"
       id="path816" />
    <path
       d="m 412.872,530.015 c 0,0 -19.736,5.814 -26.218,10.394"
       style="fill:none;stroke:#231f20;stroke-width:0.25;stroke-linecap:butt;stroke-linejoin:miter;stroke-miterlimit:4;stroke-dasharray:none;stroke-opacity:1"
       id="path818" />
    <path
       d="m 406.635,514.694 c -5.571,1.741 -11.45,3.175 -17.589,5.514"
       style="fill:none;stroke:#231f20;stroke-width:0.25;stroke-linecap:butt;stroke-linejoin:miter;stroke-miterlimit:4;stroke-dasharray:none;stroke-opacity:1"
       id="path820" />
    <path
       d="m 471.055,386.203 c 5.92,0.696 21.241,1.392 28.554,2.437 7.312,1.045 16.714,2.438 20.892,3.134 4.179,0.696 10.447,1.045 11.492,-2.438 1.045,-3.482 0,-14.276 -0.697,-17.758 -0.696,-3.483 -3.83,-14.278 -11.839,-13.233 0,0 6.964,-4.526 0.348,-8.009 -6.616,-3.482 -21.937,-1.392 -26.116,-1.044 -4.179,0.348 -10.446,1.741 -17.411,0 -6.964,-1.742 -14.625,-4.527 -22.634,1.741 -8.009,6.267 -12.187,14.625 -13.929,17.759 -1.741,3.133 -2.089,7.312 0.698,10.098 2.785,2.785 9.46,6.659 15.669,8.009 8.008,1.741 14.973,-0.696 14.973,-0.696 z"
       style="fill:none;stroke:#231f20;stroke-width:0.5;stroke-linecap:butt;stroke-linejoin:miter;stroke-miterlimit:4;stroke-dasharray:none;stroke-opacity:1"
       id="path822" />
    <path
       d="m 531.296,371.578 c -9.053,3.133 -43.935,12.212 -56.44,14.984"
       style="fill:none;stroke:#231f20;stroke-width:0.5;stroke-linecap:butt;stroke-linejoin:miter;stroke-miterlimit:4;stroke-dasharray:none;stroke-opacity:1"
       id="path824" />
    <path
       d="m 519.457,358.345 c -9.053,2.438 -23.679,7.313 -27.857,10.447 -4.179,3.133 -11.84,13.581 -20.545,17.411"
       style="fill:none;stroke:#231f20;stroke-width:0.5;stroke-linecap:butt;stroke-linejoin:miter;stroke-miterlimit:4;stroke-dasharray:none;stroke-opacity:1"
       id="path826" />
    <path
       d="m 600.591,780.033 c 0,-1.538 -1.248,-2.785 -2.786,-2.785 -1.538,0 -2.785,1.247 -2.785,2.785 0,1.539 1.247,2.786 2.785,2.786 1.538,0 2.786,-1.247 2.786,-2.786"
       style="fill:#ffffff;fill-opacity:1;fill-rule:nonzero;stroke:none;stroke-width:0.1"
       id="path828" />
    <path
       d="m 600.591,780.033 c 0,-1.538 -1.248,-2.785 -2.786,-2.785 -1.538,0 -2.785,1.247 -2.785,2.785 0,1.539 1.247,2.786 2.785,2.786 1.538,0 2.786,-1.247 2.786,-2.786 z"
       style="fill:none;stroke:#231f20;stroke-width:0.5;stroke-linecap:butt;stroke-linejoin:miter;stroke-miterlimit:4;stroke-dasharray:none;stroke-opacity:1"
       id="path830" />
    <path
       d="m 479.413,780.033 c 0,-1.538 1.247,-2.785 2.785,-2.785 1.538,0 2.786,1.247 2.786,2.785 0,1.539 -1.248,2.786 -2.786,2.786 -1.538,0 -2.785,-1.247 -2.785,-2.786"
       style="fill:#ffffff;fill-opacity:1;fill-rule:nonzero;stroke:none;stroke-width:0.1"
       id="path832" />
    <path
       d="m 479.413,780.033 c 0,-1.538 1.247,-2.785 2.785,-2.785 1.538,0 2.786,1.247 2.786,2.785 0,1.539 -1.248,2.786 -2.786,2.786 -1.538,0 -2.785,-1.247 -2.785,-2.786 z"
       style="fill:none;stroke:#231f20;stroke-width:0.5;stroke-linecap:butt;stroke-linejoin:miter;stroke-miterlimit:4;stroke-dasharray:none;stroke-opacity:1"
       id="path834" />
    <path
       d="m 616.11,611.58 c 0,-0.623 -0.501,-1.127 -1.126,-1.127 -0.623,0 -1.127,0.504 -1.127,1.127 0,0.623 0.504,1.126 1.127,1.126 0.625,0 1.126,-0.503 1.126,-1.126"
       style="fill:#231f20;fill-opacity:1;fill-rule:nonzero;stroke:none;stroke-width:0.1"
       id="path836" />
    <path
       d="m 617.502,607.865 c 0,-0.623 -0.5,-1.127 -1.126,-1.127 -0.623,0 -1.126,0.504 -1.126,1.127 0,0.623 0.503,1.126 1.126,1.126 0.626,0 1.126,-0.503 1.126,-1.126"
       style="fill:#231f20;fill-opacity:1;fill-rule:nonzero;stroke:none;stroke-width:0.1"
       id="path838" />
    <path
       d="m 618.199,604.846 c 0,-0.623 -0.5,-1.126 -1.126,-1.126 -0.623,0 -1.126,0.503 -1.126,1.126 0,0.623 0.503,1.126 1.126,1.126 0.626,0 1.126,-0.503 1.126,-1.126"
       style="fill:#231f20;fill-opacity:1;fill-rule:nonzero;stroke:none;stroke-width:0.1"
       id="path840" />
    <path
       d="m 620.289,590.221 c 0,-0.623 -0.501,-1.126 -1.127,-1.126 -0.623,0 -1.126,0.503 -1.126,1.126 0,0.623 0.503,1.126 1.126,1.126 0.626,0 1.127,-0.503 1.127,-1.126"
       style="fill:#231f20;fill-opacity:1;fill-rule:nonzero;stroke:none;stroke-width:0.1"
       id="path842" />
    <path
       d="m 621.878,598.276 c 0,-0.622 -0.501,-1.126 -1.126,-1.126 -0.623,0 -1.126,0.504 -1.126,1.126 0,0.623 0.503,1.128 1.126,1.128 0.625,0 1.126,-0.505 1.126,-1.128"
       style="fill:#231f20;fill-opacity:1;fill-rule:nonzero;stroke:none;stroke-width:0.1"
       id="path844" />
    <path
       d="m 463.893,611.58 c 0,-0.623 0.501,-1.127 1.127,-1.127 0.623,0 1.126,0.504 1.126,1.127 0,0.623 -0.503,1.126 -1.126,1.126 -0.626,0 -1.127,-0.503 -1.127,-1.126"
       style="fill:#231f20;fill-opacity:1;fill-rule:nonzero;stroke:none;stroke-width:0.1"
       id="path846" />
    <path
       d="m 462.5,607.865 c 0,-0.623 0.501,-1.127 1.126,-1.127 0.624,0 1.127,0.504 1.127,1.127 0,0.623 -0.503,1.126 -1.127,1.126 -0.625,0 -1.126,-0.503 -1.126,-1.126"
       style="fill:#231f20;fill-opacity:1;fill-rule:nonzero;stroke:none;stroke-width:0.1"
       id="path848" />
    <path
       d="m 461.804,604.846 c 0,-0.623 0.501,-1.126 1.126,-1.126 0.623,0 1.127,0.503 1.127,1.126 0,0.623 -0.504,1.126 -1.127,1.126 -0.625,0 -1.126,-0.503 -1.126,-1.126"
       style="fill:#231f20;fill-opacity:1;fill-rule:nonzero;stroke:none;stroke-width:0.1"
       id="path850" />
    <path
       d="m 459.715,590.221 c 0,-0.623 0.5,-1.126 1.126,-1.126 0.623,0 1.126,0.503 1.126,1.126 0,0.623 -0.503,1.126 -1.126,1.126 -0.626,0 -1.126,-0.503 -1.126,-1.126"
       style="fill:#231f20;fill-opacity:1;fill-rule:nonzero;stroke:none;stroke-width:0.1"
       id="path852" />
    <path
       d="m 458.125,598.276 c 0,-0.622 0.501,-1.126 1.126,-1.126 0.624,0 1.126,0.504 1.126,1.126 0,0.623 -0.502,1.128 -1.126,1.128 -0.625,0 -1.126,-0.505 -1.126,-1.128"
       style="fill:#231f20;fill-opacity:1;fill-rule:nonzero;stroke:none;stroke-width:0.1"
       id="path854" />
    <path
       d="m 707.377,795.006 c 1.635,3.817 31.107,-9.285 64.536,-41.321 33.428,-32.036 60.822,-77.536 57.107,-83.571 -3.715,-6.036 -28.785,30.178 -47.821,49.678 -19.036,19.5 -51.071,48.75 -58.5,56.642 -7.43,7.894 -16.714,15.322 -15.322,18.572 z"
       style="fill:none;stroke:#231f20;stroke-width:0.5;stroke-linecap:butt;stroke-linejoin:miter;stroke-miterlimit:4;stroke-dasharray:none;stroke-opacity:1"
       id="path856" />
    <path
       d="m 356.916,611.207 c -0.779,7.222 -1.471,15.076 -1.932,23.621 -1.857,34.356 5.571,44.571 5.571,44.571 0.929,6.036 8.358,32.964 19.5,51.071 11.143,18.108 45.965,40.393 68.25,47.822 10.678,4.643 34.359,21.821 39,29.25 4.643,7.429 10.213,21.357 9.285,29.714 -0.927,8.358 -16.713,32.801 -58.035,43.643 -41.321,10.842 -94.716,1.392 -138.358,-22.285 -43.643,-23.679 -73.821,-46.429 -103.999,-95.644 -30.179,-49.214 -39.465,-76.142 -40.859,-82.178 -1.392,-6.037 -13.928,-35.286 -9.75,-58.036 4.179,-22.75 10.688,-31.107 20.43,-43.642 3.027,-3.899 4.642,-5.572 2.785,-9.75 -1.856,-4.179 -6.963,-11.609 -1.856,-25.537 5.106,-13.929 19.035,-32.498 32.5,-48.75 13.464,-16.249 38.536,-35.749 66.392,-34.357 27.858,1.394 49.678,5.11 64.536,42.714 14.858,37.608 22.436,94.366 26.54,107.773"
       style="fill:#ffffff;fill-opacity:1;fill-rule:nonzero;stroke:none;stroke-width:0.1"
       id="path858" />
    <path
       d="m 356.916,611.207 c -0.779,7.222 -1.471,15.076 -1.932,23.621 -1.857,34.356 5.571,44.571 5.571,44.571 0.929,6.036 8.358,32.964 19.5,51.071 11.143,18.108 45.965,40.393 68.25,47.822 10.678,4.643 34.359,21.821 39,29.25 4.643,7.429 10.213,21.357 9.285,29.714 -0.927,8.358 -16.713,32.801 -58.035,43.643 -41.321,10.842 -94.716,1.392 -138.358,-22.285 -43.643,-23.679 -73.821,-46.429 -103.999,-95.644 -30.179,-49.214 -39.465,-76.142 -40.859,-82.178 -1.392,-6.037 -13.928,-35.286 -9.75,-58.036 4.179,-22.75 10.688,-31.107 20.43,-43.642 3.027,-3.899 4.642,-5.572 2.785,-9.75 -1.856,-4.179 -6.963,-11.609 -1.856,-25.537 5.106,-13.929 19.035,-32.498 32.5,-48.75 13.464,-16.249 38.536,-35.749 66.392,-34.357 27.858,1.394 49.678,5.11 64.536,42.714 14.858,37.608 22.436,94.366 26.54,107.773 z"
       style="fill:none;stroke:#231f20;stroke-width:0.75;stroke-linecap:round;stroke-linejoin:round;stroke-miterlimit:4;stroke-dasharray:none;stroke-opacity:1"
       id="path860" />
    <path
       d="m 372.626,795.006 c -1.635,3.817 -31.107,-9.285 -64.536,-41.321 -33.428,-32.036 -60.822,-77.536 -57.107,-83.571 3.715,-6.036 28.785,30.178 47.821,49.678 19.036,19.5 51.071,48.75 58.5,56.642 7.43,7.894 16.715,15.322 15.322,18.572 z"
       style="fill:none;stroke:#231f20;stroke-width:0.5;stroke-linecap:butt;stroke-linejoin:miter;stroke-miterlimit:4;stroke-dasharray:none;stroke-opacity:1"
       id="path862" />
    <path
       d="m 598.924,800.786 c 9.095,3.506 51.332,7.831 108.447,-7.331"
       style="fill:none;stroke:#231f20;stroke-width:0.5;stroke-linecap:round;stroke-linejoin:round;stroke-miterlimit:4;stroke-dasharray:2.8, 1.8;stroke-dashoffset:0;stroke-opacity:1"
       id="path864" />
    <path
       d="m 596.371,857.287 c 17.685,-8.424 85.8,-49.183 110.872,-63.111"
       style="fill:none;stroke:#231f20;stroke-width:0.5;stroke-linecap:round;stroke-linejoin:round;stroke-miterlimit:4;stroke-dasharray:2.8, 1.8;stroke-dashoffset:0;stroke-opacity:1"
       id="path866" />
    <path
       d="m 637.51,879.801 c 15.08,-18.402 63.383,-76.728 69.867,-84.795"
       style="fill:none;stroke:#231f20;stroke-width:0.5;stroke-linecap:round;stroke-linejoin:round;stroke-miterlimit:4;stroke-dasharray:2.8, 1.8;stroke-dashoffset:0;stroke-opacity:1"
       id="path868" />
    <path
       d="m 725.294,789.163 34.715,78.945"
       style="fill:none;stroke:#231f20;stroke-width:0.5;stroke-linecap:round;stroke-linejoin:round;stroke-miterlimit:4;stroke-dasharray:2.8, 1.8;stroke-dashoffset:0;stroke-opacity:1"
       id="path870" />
    <path
       d="m 774.442,751.223 54.877,75.494"
       style="fill:none;stroke:#231f20;stroke-width:0.5;stroke-linecap:round;stroke-linejoin:round;stroke-miterlimit:4;stroke-dasharray:2.8, 1.8;stroke-dashoffset:0;stroke-opacity:1"
       id="path872" />
    <path
       d="m 808.074,711.397 74.438,53.665"
       style="fill:none;stroke:#231f20;stroke-width:0.5;stroke-linecap:round;stroke-linejoin:round;stroke-miterlimit:4;stroke-dasharray:2.8, 1.8;stroke-dashoffset:0;stroke-opacity:1"
       id="path874" />
    <path
       d="m 824.315,685.406 99.767,-6.007"
       style="fill:none;stroke:#231f20;stroke-width:0.5;stroke-linecap:round;stroke-linejoin:round;stroke-miterlimit:4;stroke-dasharray:2.8, 1.8;stroke-dashoffset:0;stroke-opacity:1"
       id="path876" />
    <path
       d="m 829.02,670.114 c 0,0 65.467,-58.725 92.104,-81.479"
       style="fill:none;stroke:#231f20;stroke-width:0.5;stroke-linecap:round;stroke-linejoin:round;stroke-miterlimit:4;stroke-dasharray:2.8, 1.8;stroke-dashoffset:0;stroke-opacity:1"
       id="path878" />
    <path
       d="M 826.472,669.812 C 842.6,640.747 903.544,570.079 915.206,556.836"
       style="fill:none;stroke:#231f20;stroke-width:0.5;stroke-linecap:round;stroke-linejoin:round;stroke-miterlimit:4;stroke-dasharray:2.8, 1.8;stroke-dashoffset:0;stroke-opacity:1"
       id="path880" />
    <path
       d="m 684.786,747.135 33.594,33.693"
       style="fill:none;stroke:#231f20;stroke-width:0.5;stroke-linecap:round;stroke-linejoin:round;stroke-miterlimit:4;stroke-dasharray:2.8, 1.8;stroke-dashoffset:0;stroke-opacity:1"
       id="path882" />
    <path
       d="m 734.654,720.14 c 4.875,-17.411 0.696,-31.34 -2.438,-32.732"
       style="fill:none;stroke:#231f20;stroke-width:0.5;stroke-linecap:round;stroke-linejoin:round;stroke-miterlimit:4;stroke-dasharray:2.8, 1.8;stroke-dashoffset:0;stroke-opacity:1"
       id="path884" />
    <path
       d="m 732.216,687.408 c -0.696,-14.277 0,-35.866 -0.348,-45.616 -0.348,-9.75 0,-29.946 6.616,-29.25 6.616,0.697 9.75,13.232 13.232,32.732 3.483,19.5 3.83,29.25 1.393,55.714 -1.443,15.665 -14.973,20.545 -18.455,19.152 l 5.103,39.758"
       style="fill:none;stroke:#231f20;stroke-width:0.5;stroke-linecap:round;stroke-linejoin:round;stroke-miterlimit:4;stroke-dasharray:2.8, 1.8;stroke-dashoffset:0;stroke-opacity:1"
       id="path886" />
    <path
       d="m 776.091,657.809 c 6.268,-11.143 15.322,-45.264 20.197,-66.16 4.875,-20.893 7.661,-36.91 13.232,-47.705 5.571,-10.795 12.536,-12.188 18.804,-12.188 6.267,0 13.928,1.393 16.714,-5.223 2.786,-6.616 1.741,-14.973 -3.482,-18.455 -5.224,-3.483 -18.456,-11.839 -27.161,-13.58 -8.705,-1.742 -20.893,-2.438 -27.857,6.963 -6.964,9.403 -9.054,18.108 -10.795,33.778 -1.741,15.67 -5.572,37.607 -12.535,65.116 -2.348,9.271 -3.801,17.318 -5.956,22.39"
       style="fill:none;stroke:#231f20;stroke-width:0.5;stroke-linecap:round;stroke-linejoin:round;stroke-miterlimit:4;stroke-dasharray:2.8, 1.8;stroke-dashoffset:0;stroke-opacity:1"
       id="path888" />
    <path
       d="m 720.147,587.756 c -6.386,-1.33 -15.788,-4.116 -22.404,-4.812 -6.617,-0.696 -11.839,-2.785 -11.839,-6.964 0,-4.179 0.71,-8.526 6.267,-9.054 7.313,-0.696 17.065,0.86 25.913,3.848"
       style="fill:none;stroke:#231f20;stroke-width:0.5;stroke-linecap:round;stroke-linejoin:round;stroke-miterlimit:4;stroke-dasharray:2.8, 1.8;stroke-dashoffset:0;stroke-opacity:1"
       id="path890" />
    <path
       d="m 622.08,635.466 c -1.868,3.419 -3.382,8.415 -2.685,17.468 0.696,9.054 10.098,19.501 20.196,21.241 10.098,1.741 27.161,-0.696 39.348,-15.321 12.187,-14.625 12.127,-45.203 5.511,-58.087"
       style="fill:none;stroke:#231f20;stroke-width:0.5;stroke-linecap:round;stroke-linejoin:round;stroke-miterlimit:4;stroke-dasharray:2.8, 1.8;stroke-dashoffset:0;stroke-opacity:1"
       id="path892" />
    <path
       d="m 555.671,648.756 c 3.483,2.089 16.282,11.95 19.981,19.381"
       style="fill:none;stroke:#231f20;stroke-width:0.5;stroke-linecap:round;stroke-linejoin:round;stroke-miterlimit:4;stroke-dasharray:2.8, 1.8;stroke-dashoffset:0;stroke-opacity:1"
       id="path894" />
    <path
       d="m 566.156,639.716 c 5.185,2.424 20.397,8.679 25.499,17.185"
       style="fill:none;stroke:#231f20;stroke-width:0.5;stroke-linecap:round;stroke-linejoin:round;stroke-miterlimit:4;stroke-dasharray:2.8, 1.8;stroke-dashoffset:0;stroke-opacity:1"
       id="path896" />
    <path
       d="m 562.984,611.498 c 7.66,0.348 34.205,-4.034 56.491,-16.221"
       style="fill:none;stroke:#231f20;stroke-width:0.5;stroke-linecap:round;stroke-linejoin:round;stroke-miterlimit:4;stroke-dasharray:2.8, 1.8;stroke-dashoffset:0;stroke-opacity:1"
       id="path898" />
    <path
       d="m 688.214,613.953 c 6.744,6.25 19.279,24.008 18.582,48.731 -0.696,24.724 -7.312,45.965 -12.535,56.76 -5.223,10.794 -20.197,30.642 -26.465,35.17 0,0 20.197,-9.054 30.992,-29.948 10.794,-20.892 12.883,-38.651 14.276,-52.231 1.394,-13.581 2.09,-25.42 -1.393,-40.741 -3.482,-15.321 -8.008,-24.028 -18.455,-32.035"
       style="fill:none;stroke:#231f20;stroke-width:0.5;stroke-linecap:round;stroke-linejoin:round;stroke-miterlimit:4;stroke-dasharray:2.8, 1.8;stroke-dashoffset:0;stroke-opacity:1"
       id="path900" />
    <path
       d="m 566.958,580.669 c 3.686,-3.296 7.559,-6.177 12.392,-7.127 6.714,-1.319 18.444,-3.79 23.99,-7.284"
       style="fill:none;stroke:#231f20;stroke-width:0.5;stroke-linecap:round;stroke-linejoin:round;stroke-miterlimit:4;stroke-dasharray:2.8, 1.8;stroke-dashoffset:0;stroke-opacity:1"
       id="path902" />
    <path
       d="m 569.072,518.824 c 0.18,-5.871 3.313,-22.585 22.117,-24.326 18.804,-1.742 29.974,4.512 40.581,12.004"
       style="fill:none;stroke:#231f20;stroke-width:0.5;stroke-linecap:round;stroke-linejoin:round;stroke-miterlimit:4;stroke-dasharray:2.8, 1.8;stroke-dashoffset:0;stroke-opacity:1"
       id="path904" />
    <path
       d="m 551.455,539.259 c -3.445,0 -7.275,-2.628 -8.32,-6.806 -1.044,-4.179 -0.484,-13.21 -0.696,-14.973 -0.555,-4.598 -3.134,-9.402 -1.393,-10.099 1.742,-0.696 4.927,1.739 4.875,15.67"
       style="fill:none;stroke:#231f20;stroke-width:0.5;stroke-linecap:round;stroke-linejoin:round;stroke-miterlimit:4;stroke-dasharray:2.8, 1.8;stroke-dashoffset:0;stroke-opacity:1"
       id="path906" />
    <path
       d="m 570.743,510.2 c -2.188,1.36 -12.286,1.708 -13.33,-7.694 -1.045,-9.401 15.926,-10.764 16.527,1.404"
       style="fill:none;stroke:#231f20;stroke-width:0.5;stroke-linecap:round;stroke-linejoin:round;stroke-miterlimit:4;stroke-dasharray:2.8, 1.8;stroke-dashoffset:0;stroke-opacity:1"
       id="path908" />
    <path
       d="m 568.218,420.512 c 9.739,-4.363 25.079,-9.012 43.167,-6.104 19.5,3.134 28.903,7.312 42.135,26.465"
       style="fill:none;stroke:#231f20;stroke-width:0.5;stroke-linecap:round;stroke-linejoin:round;stroke-miterlimit:4;stroke-dasharray:2.8, 1.8;stroke-dashoffset:0;stroke-opacity:1"
       id="path910" />
    <path
       d="m 651.43,503.551 c 3.134,-3.831 7.252,-23.646 3.77,-41.754"
       style="fill:none;stroke:#231f20;stroke-width:0.5;stroke-linecap:round;stroke-linejoin:round;stroke-miterlimit:4;stroke-dasharray:2.8, 1.8;stroke-dashoffset:0;stroke-opacity:1"
       id="path912" />
    <path
       d="m 636.369,381.447 c 2.437,1.393 8.663,2.666 14.268,0.166"
       style="fill:none;stroke:#231f20;stroke-width:0.5;stroke-linecap:round;stroke-linejoin:round;stroke-miterlimit:4;stroke-dasharray:2.8, 1.8;stroke-dashoffset:0;stroke-opacity:1"
       id="path914" />
    <path
       d="m 671.958,456.668 c 4.196,7.883 12.205,20.418 14.991,27.035 2.785,6.616 8.009,18.455 12.535,22.982 4.527,4.526 12.536,11.143 18.107,9.054 5.572,-2.09 5.92,-13.581 5.224,-19.5 -0.697,-5.92 -2.438,-23.331 -6.269,-28.554 -3.83,-5.224 -11.838,-14.625 -19.5,-24.375 -7.66,-9.75 -15.321,-19.849 -19.5,-27.857 -4.178,-8.009 -7.66,-9.402 -10.446,-8.358 -2.786,1.045 -5.571,6.616 -2.437,20.197 3.133,13.581 4.656,23.169 7.295,29.376"
       style="fill:none;stroke:#231f20;stroke-width:0.5;stroke-linecap:round;stroke-linejoin:round;stroke-miterlimit:4;stroke-dasharray:2.8, 1.8;stroke-dashoffset:0;stroke-opacity:1"
       id="path916" />
    <path
       d="m 718.166,470.868 c -7.887,-1.442 -25.298,-0.049 -30.861,13.675"
       style="fill:none;stroke:#231f20;stroke-width:0.5;stroke-linecap:round;stroke-linejoin:round;stroke-miterlimit:4;stroke-dasharray:2.8, 1.8;stroke-dashoffset:0;stroke-opacity:1"
       id="path918" />
    <path
       d="m 699.832,515.042 c 3.151,-0.138 8.357,3.482 10.098,15.322 1.741,11.839 0.696,22.634 -6.267,22.982 -6.964,0.348 -9.75,-5.92 -10.447,-14.277 -0.696,-8.358 -1.392,-23.679 6.616,-24.027 z"
       style="fill:none;stroke:#231f20;stroke-width:0.5;stroke-linecap:round;stroke-linejoin:round;stroke-miterlimit:4;stroke-dasharray:2.8, 1.8;stroke-dashoffset:0;stroke-opacity:1"
       id="path920" />
    <path
       d="m 693.216,539.069 c -1.392,-8.358 -5.546,-48.465 -5.911,-54.526"
       style="fill:none;stroke:#231f20;stroke-width:0.5;stroke-linecap:round;stroke-linejoin:round;stroke-miterlimit:4;stroke-dasharray:2.8, 1.8;stroke-dashoffset:0;stroke-opacity:1"
       id="path922" />
    <path
       d="m 652.893,500.792 c 0.793,-2.279 5.85,-3.161 9.332,1.366 3.483,4.527 6.616,11.491 5.92,16.366 -0.696,4.875 -1.741,14.277 -0.349,20.893 1.393,6.617 8.009,13.929 -9.401,15.669 -5.224,0.349 -13.126,1.648 -14.277,-2.785 -1.483,-5.71 -1.393,-12.884 0.696,-20.196 2.09,-7.313 2.977,-12.949 3.056,-16.051"
       style="fill:none;stroke:#231f20;stroke-width:0.5;stroke-linecap:round;stroke-linejoin:round;stroke-miterlimit:4;stroke-dasharray:2.8, 1.8;stroke-dashoffset:0;stroke-opacity:1"
       id="path924" />
    <path
       d="m 618.703,584.587 c 2.085,-6.518 5.024,-12.786 8.158,-18.357"
       style="fill:none;stroke:#231f20;stroke-width:0.5;stroke-linecap:round;stroke-linejoin:round;stroke-miterlimit:4;stroke-dasharray:2.8, 1.8;stroke-dashoffset:0;stroke-opacity:1"
       id="path926" />
    <path
       d="m 631.234,575.631 c 2.437,4.179 13.58,9.054 21.59,8.358 8.008,-0.697 18.802,-3.134 21.24,-4.179 2.438,-1.045 8.357,-2.437 4.875,-11.491 0,0 2.437,-3.483 -2.437,-8.009 -4.876,-4.526 -9.446,-5.921 -17.077,-5.34 -7.63,0.58 -12.87,1.858 -19.137,3.251 -6.268,1.393 -14.416,4.807 -13.929,11.143 0.349,4.526 4.875,6.267 4.875,6.267 z"
       style="fill:none;stroke:#231f20;stroke-width:0.5;stroke-linecap:round;stroke-linejoin:round;stroke-miterlimit:4;stroke-dasharray:2.8, 1.8;stroke-dashoffset:0;stroke-opacity:1"
       id="path928" />
    <path
       d="m 631.234,575.631 c 6.964,0.349 14.625,0.349 23.679,-1.045 9.053,-1.392 20.892,-2.437 24.026,-6.267"
       style="fill:none;stroke:#231f20;stroke-width:0.5;stroke-linecap:round;stroke-linejoin:round;stroke-miterlimit:4;stroke-dasharray:2.8, 1.8;stroke-dashoffset:0;stroke-opacity:1"
       id="path930" />
    <path
       d="m 541.544,405.578 c 2.636,3.258 13.089,8.549 19.002,8.83 6.005,0.283 16.367,-0.697 23.33,-3.482 6.965,-2.786 24.376,-11.491 28.903,-16.366 0,0 4.948,-0.588 1.429,-7.259"
       style="fill:none;stroke:#231f20;stroke-width:0.5;stroke-linecap:round;stroke-linejoin:round;stroke-miterlimit:4;stroke-dasharray:2.8, 1.8;stroke-dashoffset:0;stroke-opacity:1"
       id="path932" />
    <path
       d="m 542.752,406.786 c 3.866,0.658 15.876,1.357 22.144,-1.08 6.269,-2.438 12.43,-6.021 19.677,-8.012 13.929,-3.831 26.62,-2.448 28.206,-3.134"
       style="fill:none;stroke:#231f20;stroke-width:0.5;stroke-linecap:round;stroke-linejoin:round;stroke-miterlimit:4;stroke-dasharray:2.8, 1.8;stroke-dashoffset:0;stroke-opacity:1"
       id="path934" />
    <path
       d="m 359.856,587.756 c 6.387,-1.33 15.788,-4.116 22.404,-4.812 6.616,-0.696 11.839,-2.785 11.839,-6.964 0,-4.179 -0.71,-8.526 -6.267,-9.054 -7.313,-0.696 -17.064,0.86 -25.913,3.848"
       style="fill:none;stroke:#231f20;stroke-width:0.5;stroke-linecap:round;stroke-linejoin:round;stroke-miterlimit:4;stroke-dasharray:2.8, 1.8;stroke-dashoffset:0;stroke-opacity:1"
       id="path936" />
    <path
       d="m 457.923,635.466 c 1.869,3.419 3.382,8.415 2.686,17.468 -0.696,9.054 -10.099,19.501 -20.196,21.241 -10.099,1.741 -27.162,-0.696 -39.349,-15.321 -12.188,-14.625 -12.126,-45.203 -5.511,-58.087"
       style="fill:none;stroke:#231f20;stroke-width:0.5;stroke-linecap:round;stroke-linejoin:round;stroke-miterlimit:4;stroke-dasharray:2.8, 1.8;stroke-dashoffset:0;stroke-opacity:1"
       id="path938" />
    <path
       d="m 524.332,648.756 c -3.482,2.089 -16.282,11.95 -19.98,19.381"
       style="fill:none;stroke:#231f20;stroke-width:0.5;stroke-linecap:round;stroke-linejoin:round;stroke-miterlimit:4;stroke-dasharray:2.8, 1.8;stroke-dashoffset:0;stroke-opacity:1"
       id="path940" />
    <path
       d="m 513.847,639.716 c -5.184,2.424 -20.397,8.679 -25.498,17.185"
       style="fill:none;stroke:#231f20;stroke-width:0.5;stroke-linecap:round;stroke-linejoin:round;stroke-miterlimit:4;stroke-dasharray:2.8, 1.8;stroke-dashoffset:0;stroke-opacity:1"
       id="path942" />
    <path
       d="m 517.019,611.498 c -7.66,0.348 -34.205,-4.034 -56.49,-16.221"
       style="fill:none;stroke:#231f20;stroke-width:0.5;stroke-linecap:round;stroke-linejoin:round;stroke-miterlimit:4;stroke-dasharray:2.8, 1.8;stroke-dashoffset:0;stroke-opacity:1"
       id="path944" />
    <path
       d="m 391.789,613.953 c -6.743,6.25 -19.279,24.008 -18.582,48.731 0.696,24.724 7.312,45.965 12.536,56.76 5.222,10.794 20.196,30.642 26.464,35.17 0,0 -20.197,-9.054 -30.992,-29.948 -10.794,-20.892 -12.883,-38.651 -14.276,-52.231 -1.394,-13.581 -2.09,-25.42 1.393,-40.741 3.482,-15.321 8.008,-24.028 18.455,-32.035"
       style="fill:none;stroke:#231f20;stroke-width:0.5;stroke-linecap:round;stroke-linejoin:round;stroke-miterlimit:4;stroke-dasharray:2.8, 1.8;stroke-dashoffset:0;stroke-opacity:1"
       id="path946" />
    <path
       d="m 529.555,537.328 c -2.089,3.831 -5.389,11.387 -9.401,16.714 -5.64,7.483 -8.01,17.063 -8.358,21.589 -0.348,4.528 2.089,6.617 4.527,6.617 2.437,0 7.661,-1.742 11.143,-3.134 3.482,-1.393 8.357,-1.393 12.536,-1.393 4.178,0 9.053,0 12.536,1.393 3.481,1.392 8.705,3.134 11.142,3.134 2.438,0 4.875,-2.089 4.527,-6.617 -0.348,-4.526 -2.717,-14.106 -8.357,-21.589 -4.013,-5.327 -7.312,-12.883 -9.402,-16.714"
       style="fill:none;stroke:#231f20;stroke-width:0.5;stroke-linecap:round;stroke-linejoin:round;stroke-miterlimit:4;stroke-dasharray:2.8, 1.8;stroke-dashoffset:0;stroke-opacity:1"
       id="path948" />
    <path
       d="m 490.542,550.073 c 11.838,6.616 44.237,9.541 49.46,9.541 5.223,0 37.621,-2.925 49.459,-9.541"
       style="fill:none;stroke:#231f20;stroke-width:0.5;stroke-linecap:round;stroke-linejoin:round;stroke-miterlimit:4;stroke-dasharray:2.8, 1.8;stroke-dashoffset:0;stroke-opacity:1"
       id="path950" />
    <path
       d="m 513.044,580.669 c -3.685,-3.296 -7.558,-6.177 -12.391,-7.127 -6.714,-1.319 -18.443,-3.79 -23.989,-7.284"
       style="fill:none;stroke:#231f20;stroke-width:0.5;stroke-linecap:round;stroke-linejoin:round;stroke-miterlimit:4;stroke-dasharray:2.8, 1.8;stroke-dashoffset:0;stroke-opacity:1"
       id="path952" />
    <path
       d="m 510.931,518.824 c -0.18,-5.871 -3.313,-22.585 -22.117,-24.326 -18.804,-1.742 -29.974,4.512 -40.581,12.004"
       style="fill:none;stroke:#231f20;stroke-width:0.5;stroke-linecap:round;stroke-linejoin:round;stroke-miterlimit:4;stroke-dasharray:2.8, 1.8;stroke-dashoffset:0;stroke-opacity:1"
       id="path954" />
    <path
       d="m 528.548,539.259 c 3.445,0 7.275,-2.628 8.32,-6.806 1.045,-4.179 0.483,-13.21 0.696,-14.973 0.556,-4.598 3.134,-9.402 1.393,-10.099 -1.741,-0.696 -4.927,1.739 -4.875,15.67"
       style="fill:none;stroke:#231f20;stroke-width:0.5;stroke-linecap:round;stroke-linejoin:round;stroke-miterlimit:4;stroke-dasharray:2.8, 1.8;stroke-dashoffset:0;stroke-opacity:1"
       id="path956" />
    <path
       d="m 537.481,507.561 c -2.355,-20.028 -4.443,-47.188 -3.747,-63.207 0.696,-16.018 0.696,-30.99 6.268,-30.99 5.571,0 5.571,14.972 6.267,30.99 0.697,16.019 -1.393,43.179 -3.747,63.207"
       style="fill:none;stroke:#231f20;stroke-width:0.5;stroke-linecap:round;stroke-linejoin:round;stroke-miterlimit:4;stroke-dasharray:2.8, 1.8;stroke-dashoffset:0;stroke-opacity:1"
       id="path958" />
    <path
       d="m 509.26,510.2 c 2.188,1.36 12.286,1.708 13.331,-7.694 1.044,-9.401 -15.926,-10.764 -16.528,1.404"
       style="fill:none;stroke:#231f20;stroke-width:0.5;stroke-linecap:round;stroke-linejoin:round;stroke-miterlimit:4;stroke-dasharray:2.8, 1.8;stroke-dashoffset:0;stroke-opacity:1"
       id="path960" />
    <path
       d="m 511.786,420.512 c -9.74,-4.363 -25.08,-9.012 -43.168,-6.104 -19.5,3.134 -28.903,7.312 -42.134,26.465"
       style="fill:none;stroke:#231f20;stroke-width:0.5;stroke-linecap:round;stroke-linejoin:round;stroke-miterlimit:4;stroke-dasharray:2.8, 1.8;stroke-dashoffset:0;stroke-opacity:1"
       id="path962" />
    <path
       d="m 428.573,503.551 c -3.134,-3.831 -7.251,-23.646 -3.77,-41.754"
       style="fill:none;stroke:#231f20;stroke-width:0.5;stroke-linecap:round;stroke-linejoin:round;stroke-miterlimit:4;stroke-dasharray:2.8, 1.8;stroke-dashoffset:0;stroke-opacity:1"
       id="path964" />
    <path
       d="m 443.634,381.447 c -2.437,1.393 -8.663,2.666 -14.268,0.166"
       style="fill:none;stroke:#231f20;stroke-width:0.5;stroke-linecap:round;stroke-linejoin:round;stroke-miterlimit:4;stroke-dasharray:2.8, 1.8;stroke-dashoffset:0;stroke-opacity:1"
       id="path966" />
    <path
       d="m 408.044,456.668 c -4.195,7.883 -12.204,20.418 -14.989,27.035 -2.786,6.616 -8.009,18.455 -12.536,22.982 -4.526,4.526 -12.536,11.143 -18.107,9.054 -5.572,-2.09 -5.919,-13.581 -5.223,-19.5 0.696,-5.92 2.437,-23.331 6.268,-28.554 3.83,-5.224 11.839,-14.625 19.5,-24.375 7.661,-9.75 15.321,-19.849 19.5,-27.857 4.178,-8.009 7.661,-9.402 10.446,-8.358 2.786,1.045 5.571,6.616 2.437,20.197 -3.133,13.581 -4.655,23.169 -7.296,29.376"
       style="fill:none;stroke:#231f20;stroke-width:0.5;stroke-linecap:round;stroke-linejoin:round;stroke-miterlimit:4;stroke-dasharray:2.8, 1.8;stroke-dashoffset:0;stroke-opacity:1"
       id="path968" />
    <path
       d="m 361.838,470.868 c 7.886,-1.442 25.297,-0.049 30.861,13.675"
       style="fill:none;stroke:#231f20;stroke-width:0.5;stroke-linecap:round;stroke-linejoin:round;stroke-miterlimit:4;stroke-dasharray:2.8, 1.8;stroke-dashoffset:0;stroke-opacity:1"
       id="path970" />
    <path
       d="m 380.171,515.042 c -3.15,-0.138 -8.357,3.482 -10.098,15.322 -1.741,11.839 -0.697,22.634 6.267,22.982 6.965,0.348 9.75,-5.92 10.447,-14.277 0.697,-8.358 1.393,-23.679 -6.616,-24.027 z"
       style="fill:none;stroke:#231f20;stroke-width:0.5;stroke-linecap:round;stroke-linejoin:round;stroke-miterlimit:4;stroke-dasharray:2.8, 1.8;stroke-dashoffset:0;stroke-opacity:1"
       id="path972" />
    <path
       d="m 386.787,539.069 c 1.393,-8.358 5.546,-48.465 5.912,-54.526"
       style="fill:none;stroke:#231f20;stroke-width:0.5;stroke-linecap:round;stroke-linejoin:round;stroke-miterlimit:4;stroke-dasharray:2.8, 1.8;stroke-dashoffset:0;stroke-opacity:1"
       id="path974" />
    <path
       d="m 427.111,500.792 c -0.793,-2.279 -5.851,-3.161 -9.333,1.366 -3.482,4.527 -6.616,11.491 -5.919,16.366 0.696,4.875 1.74,14.277 0.348,20.893 -1.393,6.617 -8.009,13.929 9.402,15.669 5.223,0.349 13.126,1.648 14.276,-2.785 1.483,-5.71 1.393,-12.884 -0.696,-20.196 -2.09,-7.313 -2.977,-12.949 -3.055,-16.051"
       style="fill:none;stroke:#231f20;stroke-width:0.5;stroke-linecap:round;stroke-linejoin:round;stroke-miterlimit:4;stroke-dasharray:2.8, 1.8;stroke-dashoffset:0;stroke-opacity:1"
       id="path976" />
    <path
       d="m 461.301,584.587 c -2.086,-6.518 -5.025,-12.786 -8.159,-18.357"
       style="fill:none;stroke:#231f20;stroke-width:0.5;stroke-linecap:round;stroke-linejoin:round;stroke-miterlimit:4;stroke-dasharray:2.8, 1.8;stroke-dashoffset:0;stroke-opacity:1"
       id="path978" />
    <path
       d="m 448.769,575.631 c -2.437,4.179 -13.58,9.054 -21.589,8.358 -8.009,-0.697 -18.804,-3.134 -21.241,-4.179 -2.438,-1.045 -8.357,-2.437 -4.875,-11.491 0,0 -2.438,-3.483 2.437,-8.009 4.875,-4.526 9.446,-5.921 17.077,-5.34 7.63,0.58 12.87,1.858 19.137,3.251 6.269,1.393 14.416,4.807 13.929,11.143 -0.348,4.526 -4.875,6.267 -4.875,6.267 z"
       style="fill:none;stroke:#231f20;stroke-width:0.5;stroke-linecap:round;stroke-linejoin:round;stroke-miterlimit:4;stroke-dasharray:2.8, 1.8;stroke-dashoffset:0;stroke-opacity:1"
       id="path980" />
    <path
       d="m 448.769,575.631 c -6.964,0.349 -14.625,0.349 -23.679,-1.045 -9.053,-1.392 -20.892,-2.437 -24.026,-6.267"
       style="fill:none;stroke:#231f20;stroke-width:0.5;stroke-linecap:round;stroke-linejoin:round;stroke-miterlimit:4;stroke-dasharray:2.8, 1.8;stroke-dashoffset:0;stroke-opacity:1"
       id="path982" />
    <path
       d="m 538.46,405.578 c -2.637,3.258 -13.09,8.549 -19.003,8.83 -6.005,0.283 -16.367,-0.697 -23.331,-3.482 -6.963,-2.786 -24.375,-11.491 -28.901,-16.366 0,0 -4.949,-0.588 -1.43,-7.259"
       style="fill:none;stroke:#231f20;stroke-width:0.5;stroke-linecap:round;stroke-linejoin:round;stroke-miterlimit:4;stroke-dasharray:2.8, 1.8;stroke-dashoffset:0;stroke-opacity:1"
       id="path984" />
    <path
       d="m 537.25,406.786 c -3.865,0.658 -15.875,1.357 -22.144,-1.08 -6.267,-2.438 -12.429,-6.021 -19.676,-8.012 -13.929,-3.831 -26.619,-2.448 -28.205,-3.134"
       style="fill:none;stroke:#231f20;stroke-width:0.5;stroke-linecap:round;stroke-linejoin:round;stroke-miterlimit:4;stroke-dasharray:2.8, 1.8;stroke-dashoffset:0;stroke-opacity:1"
       id="path986" />
    <path
       d="m 732.171,686.401 -7.006,-34.048"
       style="fill:none;stroke:#231f20;stroke-width:0.5;stroke-linecap:round;stroke-linejoin:round;stroke-miterlimit:4;stroke-dasharray:2.8, 1.8;stroke-dashoffset:0;stroke-opacity:1"
       id="path988" />
    <path
       d="m 727.736,589.568 c 7.963,4.171 29.464,18.89 29.514,33.182 0.038,10.742 6.664,17.849 18.841,35.059 13.042,18.432 27.467,36.294 27.467,36.294"
       style="fill:none;stroke:#231f20;stroke-width:0.5;stroke-linecap:round;stroke-linejoin:round;stroke-miterlimit:4;stroke-dasharray:2.8, 1.8;stroke-dashoffset:0;stroke-opacity:1"
       id="path990" />
    <path
       d="M 822.009,673.183 793.012,462.969"
       style="fill:none;stroke:#231f20;stroke-width:0.5;stroke-linecap:round;stroke-linejoin:round;stroke-miterlimit:4;stroke-dasharray:2.8, 1.8;stroke-dashoffset:0;stroke-opacity:1"
       id="path992" />
    <path
       d="m 820.405,460.758 3.379,210.859"
       style="fill:none;stroke:#231f20;stroke-width:0.5;stroke-linecap:round;stroke-linejoin:round;stroke-miterlimit:4;stroke-dasharray:2.8, 1.8;stroke-dashoffset:0;stroke-opacity:1"
       id="path994" />
    <path
       d="M 856.466,473.586 825.292,670.487"
       style="fill:none;stroke:#231f20;stroke-width:0.5;stroke-linecap:round;stroke-linejoin:round;stroke-miterlimit:4;stroke-dasharray:2.8, 1.8;stroke-dashoffset:0;stroke-opacity:1"
       id="path996" />
    <path
       d="m 481.079,800.786 c -9.095,3.506 -51.332,7.831 -108.447,-7.331"
       style="fill:none;stroke:#231f20;stroke-width:0.5;stroke-linecap:round;stroke-linejoin:round;stroke-miterlimit:4;stroke-dasharray:2.8, 1.8;stroke-dashoffset:0;stroke-opacity:1"
       id="path998" />
    <path
       d="M 483.633,857.287 C 465.948,848.863 397.832,808.104 372.76,794.176"
       style="fill:none;stroke:#231f20;stroke-width:0.5;stroke-linecap:round;stroke-linejoin:round;stroke-miterlimit:4;stroke-dasharray:2.8, 1.8;stroke-dashoffset:0;stroke-opacity:1"
       id="path1000" />
    <path
       d="M 442.494,879.801 C 427.413,861.399 379.11,803.073 372.626,795.006"
       style="fill:none;stroke:#231f20;stroke-width:0.5;stroke-linecap:round;stroke-linejoin:round;stroke-miterlimit:4;stroke-dasharray:2.8, 1.8;stroke-dashoffset:0;stroke-opacity:1"
       id="path1002" />
    <path
       d="m 354.71,789.163 -34.716,78.945"
       style="fill:none;stroke:#231f20;stroke-width:0.5;stroke-linecap:round;stroke-linejoin:round;stroke-miterlimit:4;stroke-dasharray:2.8, 1.8;stroke-dashoffset:0;stroke-opacity:1"
       id="path1004" />
    <path
       d="m 305.562,751.223 -54.878,75.494"
       style="fill:none;stroke:#231f20;stroke-width:0.5;stroke-linecap:round;stroke-linejoin:round;stroke-miterlimit:4;stroke-dasharray:2.8, 1.8;stroke-dashoffset:0;stroke-opacity:1"
       id="path1006" />
    <path
       d="m 271.929,711.397 -74.437,53.665"
       style="fill:none;stroke:#231f20;stroke-width:0.5;stroke-linecap:round;stroke-linejoin:round;stroke-miterlimit:4;stroke-dasharray:2.8, 1.8;stroke-dashoffset:0;stroke-opacity:1"
       id="path1008" />
    <path
       d="M 255.688,685.406 155.92,679.399"
       style="fill:none;stroke:#231f20;stroke-width:0.5;stroke-linecap:round;stroke-linejoin:round;stroke-miterlimit:4;stroke-dasharray:2.8, 1.8;stroke-dashoffset:0;stroke-opacity:1"
       id="path1010" />
    <path
       d="m 250.983,670.114 c 0,0 -65.467,-58.725 -92.104,-81.479"
       style="fill:none;stroke:#231f20;stroke-width:0.5;stroke-linecap:round;stroke-linejoin:round;stroke-miterlimit:4;stroke-dasharray:2.8, 1.8;stroke-dashoffset:0;stroke-opacity:1"
       id="path1012" />
    <path
       d="M 253.531,669.812 C 237.403,640.747 176.459,570.079 164.797,556.836"
       style="fill:none;stroke:#231f20;stroke-width:0.5;stroke-linecap:round;stroke-linejoin:round;stroke-miterlimit:4;stroke-dasharray:2.8, 1.8;stroke-dashoffset:0;stroke-opacity:1"
       id="path1014" />
    <path
       d="m 395.217,747.135 -33.594,33.693"
       style="fill:none;stroke:#231f20;stroke-width:0.5;stroke-linecap:round;stroke-linejoin:round;stroke-miterlimit:4;stroke-dasharray:2.8, 1.8;stroke-dashoffset:0;stroke-opacity:1"
       id="path1016" />
    <path
       d="m 345.349,720.14 c -4.875,-17.411 -0.696,-31.34 2.438,-32.732"
       style="fill:none;stroke:#231f20;stroke-width:0.5;stroke-linecap:round;stroke-linejoin:round;stroke-miterlimit:4;stroke-dasharray:2.8, 1.8;stroke-dashoffset:0;stroke-opacity:1"
       id="path1018" />
    <path
       d="m 347.787,687.408 c 0.696,-14.277 0,-35.866 0.348,-45.616 0.348,-9.75 0,-29.946 -6.616,-29.25 -6.616,0.697 -9.75,13.232 -13.232,32.732 -3.482,19.5 -3.83,29.25 -1.393,55.714 1.443,15.665 14.974,20.545 18.455,19.152 l -5.103,39.758"
       style="fill:none;stroke:#231f20;stroke-width:0.5;stroke-linecap:round;stroke-linejoin:round;stroke-miterlimit:4;stroke-dasharray:2.8, 1.8;stroke-dashoffset:0;stroke-opacity:1"
       id="path1020" />
    <path
       d="m 303.912,657.809 c -6.268,-11.143 -15.322,-45.264 -20.197,-66.16 -4.875,-20.893 -7.661,-36.91 -13.232,-47.705 -5.571,-10.795 -12.535,-12.188 -18.804,-12.188 -6.267,0 -13.928,1.393 -16.714,-5.223 -2.786,-6.616 -1.741,-14.973 3.483,-18.455 5.222,-3.483 18.455,-11.839 27.16,-13.58 8.706,-1.742 20.893,-2.438 27.857,6.963 6.964,9.403 9.054,18.108 10.795,33.778 1.741,15.67 5.572,37.607 12.535,65.116 2.348,9.271 3.801,17.318 5.955,22.39"
       style="fill:none;stroke:#231f20;stroke-width:0.5;stroke-linecap:round;stroke-linejoin:round;stroke-miterlimit:4;stroke-dasharray:2.8, 1.8;stroke-dashoffset:0;stroke-opacity:1"
       id="path1022" />
    <path
       d="m 347.832,686.401 7.006,-34.048"
       style="fill:none;stroke:#231f20;stroke-width:0.5;stroke-linecap:round;stroke-linejoin:round;stroke-miterlimit:4;stroke-dasharray:2.8, 1.8;stroke-dashoffset:0;stroke-opacity:1"
       id="path1024" />
    <path
       d="m 352.267,589.568 c -7.962,4.171 -29.463,18.89 -29.514,33.182 -0.038,10.742 -6.664,17.849 -18.841,35.059 -13.042,18.432 -27.467,36.294 -27.467,36.294"
       style="fill:none;stroke:#231f20;stroke-width:0.5;stroke-linecap:round;stroke-linejoin:round;stroke-miterlimit:4;stroke-dasharray:2.8, 1.8;stroke-dashoffset:0;stroke-opacity:1"
       id="path1026" />
    <path
       d="M 257.994,673.183 286.991,462.969"
       style="fill:none;stroke:#231f20;stroke-width:0.5;stroke-linecap:round;stroke-linejoin:round;stroke-miterlimit:4;stroke-dasharray:2.8, 1.8;stroke-dashoffset:0;stroke-opacity:1"
       id="path1028" />
    <path
       d="M 259.599,460.758 256.22,671.617"
       style="fill:none;stroke:#231f20;stroke-width:0.5;stroke-linecap:round;stroke-linejoin:round;stroke-miterlimit:4;stroke-dasharray:2.8, 1.8;stroke-dashoffset:0;stroke-opacity:1"
       id="path1030" />
    <path
       d="m 223.537,473.586 31.174,196.901"
       style="fill:none;stroke:#231f20;stroke-width:0.5;stroke-linecap:round;stroke-linejoin:round;stroke-miterlimit:4;stroke-dasharray:2.8, 1.8;stroke-dashoffset:0;stroke-opacity:1"
       id="path1032" />
    <path
       d="m 694.28,599.576 c -0.35,0.022 -0.704,0.049 -1.064,0.083 -11.92,1.063 -12.187,3.481 -25.42,-3.135"
       style="fill:none;stroke:#231f20;stroke-width:0.5;stroke-linecap:round;stroke-linejoin:round;stroke-miterlimit:4;stroke-dasharray:2.8, 1.8;stroke-dashoffset:0;stroke-opacity:1"
       id="path1034" />
    <path
       d="m 622.034,635.544 c 0.625,-1.108 1.257,-2.173 1.887,-3.154 3.134,-4.875 16.245,-20.714 22.983,-25.767 8.357,-6.268 13.232,-9.054 20.892,-10.099"
       style="fill:none;stroke:#231f20;stroke-width:0.5;stroke-linecap:round;stroke-linejoin:round;stroke-miterlimit:4;stroke-dasharray:2.8, 1.8;stroke-dashoffset:0;stroke-opacity:1"
       id="path1036" />
    <path
       d="m 385.723,599.576 c 0.35,0.022 0.705,0.049 1.064,0.083 11.92,1.063 12.187,3.481 25.42,-3.135"
       style="fill:none;stroke:#231f20;stroke-width:0.5;stroke-linecap:round;stroke-linejoin:round;stroke-miterlimit:4;stroke-dasharray:2.8, 1.8;stroke-dashoffset:0;stroke-opacity:1"
       id="path1038" />
    <path
       d="m 457.97,635.544 c -0.626,-1.108 -1.257,-2.173 -1.888,-3.154 -3.134,-4.875 -16.246,-20.714 -22.983,-25.767 -8.356,-6.268 -13.231,-9.054 -20.892,-10.099"
       style="fill:none;stroke:#231f20;stroke-width:0.5;stroke-linecap:round;stroke-linejoin:round;stroke-miterlimit:4;stroke-dasharray:2.8, 1.8;stroke-dashoffset:0;stroke-opacity:1"
       id="path1040" />
  </g>
</svg>
