<?xml version="1.0" encoding="UTF-8" standalone="no"?>
<!-- Created with Inkscape (http://www.inkscape.org/) -->

<svg
   version="1.1"
   id="svg2"
   width="1440"
   height="1344"
   viewBox="0 0 1440 1344"
   xmlns="http://www.w3.org/2000/svg"
   xmlns:svg="http://www.w3.org/2000/svg">
  <defs
     id="defs6" />
  <g
     id="g8">
    <path
       d="m 246.969,643.675 c 2.917,-1.98 2.281,-4.537 1.776,-5.843 -0.956,-1.678 -4.888,-2.036 -5.484,1.076 0,0 -5.827,2.914 -10.859,-2.649 -5.031,-5.562 -6.09,-21.716 -1.853,-24.628 4.237,-2.913 10.064,-4.503 10.064,-4.503 3.972,0.597 21.318,6.091 28.27,9.865 6.951,3.773 6.356,7.747 8.342,13.109 1.986,5.363 1.589,15.89 0,18.869 -1.589,2.98 -8.806,15.427 -11.188,18.803 0,0 -6.357,6.092 -10.329,5.826 -3.972,-0.265 -12.447,-3.707 -13.506,-9.268 -1.061,-5.562 -0.266,-6.886 0.264,-10.859 0.531,-3.973 3.974,-9.004 4.503,-9.798"
       style="fill:#ffffff;fill-opacity:1;fill-rule:nonzero;stroke:none;stroke-width:0.1"
       id="path668" />
    <path
       d="m 833.034,643.675 c -2.918,-1.98 -2.282,-4.537 -1.776,-5.843 0.955,-1.678 4.888,-2.036 5.484,1.076 0,0 5.827,2.914 10.858,-2.649 5.031,-5.562 6.091,-21.716 1.853,-24.628 -4.236,-2.913 -10.063,-4.503 -10.063,-4.503 -3.972,0.597 -21.319,6.091 -28.27,9.865 -6.952,3.773 -6.356,7.747 -8.341,13.109 -1.987,5.363 -1.591,15.89 0,18.869 1.588,2.98 8.805,15.427 11.187,18.803 0,0 6.357,6.092 10.328,5.826 3.972,-0.265 12.446,-3.707 13.507,-9.268 1.06,-5.562 0.266,-6.886 -0.265,-10.859 -0.53,-3.973 -3.973,-9.004 -4.502,-9.798"
       style="fill:#ffffff;fill-opacity:1;fill-rule:nonzero;stroke:none;stroke-width:0.1"
       id="path670" />
    <path
       d="m 243.261,638.908 c 0.596,-3.112 4.528,-2.754 5.484,-1.076 0.505,1.306 1.141,3.863 -1.776,5.843 0,0 -5.298,0.264 -3.708,-4.767"
       style="fill:#ffffff;fill-opacity:1;fill-rule:nonzero;stroke:none;stroke-width:0.1"
       id="path672" />
    <path
       d="m 243.261,638.908 c 0.596,-3.112 4.528,-2.754 5.484,-1.076 0.505,1.306 1.141,3.863 -1.776,5.843 0,0 -5.298,0.264 -3.708,-4.767 z"
       style="fill:none;stroke:#231f20;stroke-width:0.5;stroke-linecap:butt;stroke-linejoin:miter;stroke-miterlimit:4;stroke-dasharray:none;stroke-opacity:1"
       id="path674" />
    <path
       d="m 540.002,341.77 c -3.773,0 -4.369,-7.019 0,-7.019 4.37,0 3.774,7.019 0,7.019"
       style="fill:#ffffff;fill-opacity:1;fill-rule:nonzero;stroke:none;stroke-width:0.1"
       id="path676" />
    <path
       d="m 540.002,341.77 c -3.773,0 -4.369,-7.019 0,-7.019 4.37,0 3.774,7.019 0,7.019 z"
       style="fill:none;stroke:#231f20;stroke-width:0.5;stroke-linecap:butt;stroke-linejoin:miter;stroke-miterlimit:4;stroke-dasharray:none;stroke-opacity:1"
       id="path678" />
    <path
       d="m 540.002,895.262 c -10.991,0 -44.624,-3.707 -56.276,-4.766 -11.653,-1.06 -42.639,-18.539 -61.706,-36.547 -19.067,-18.008 -27.012,-28.337 -32.838,-41.578 0,0 -0.795,5.562 -3.708,5.296 -2.914,-0.264 -22.124,-11.421 -35.487,-19.862 -15.096,-9.533 -30.456,-19.597 -34.958,-26.483 -4.501,-6.885 -5.561,-8.739 -6.356,-10.064 0,0 2.648,6.092 0,7.946 -2.648,1.854 -8.21,-4.502 -15.095,-12.182 -6.885,-7.68 -9.949,-11.591 -18.802,-16.42 -2.914,-1.589 -10.33,-4.237 -15.361,-14.831 -5.032,-10.593 -8.474,-16.684 -6.885,-29.131 1.589,-12.446 6.621,-19.333 13.507,-28.866 2.382,-3.376 9.599,-15.823 11.188,-18.803 0,0 4.568,-4.966 5.562,-6.952 0.993,-1.985 2.978,-1.787 2.978,-1.787 -3.773,-2.78 -2.78,-6.753 -1.985,-8.144 0.794,-1.39 6.753,-1.588 6.753,-1.588 0,0 -4.966,-1.391 -7.349,-3.576 -2.384,-2.184 -0.199,-5.562 -0.199,-5.562 0,0 -4.171,0.796 -7.349,-1.192 -3.178,-1.986 -2.781,-5.958 -2.781,-5.958 -0.397,0.596 -3.972,2.781 -3.972,2.781 -6.952,-3.774 -24.298,-9.268 -28.27,-9.865 0,0 -11.388,-4.765 -15.096,-16.153 -3.708,-11.388 -1.892,-39.999 28.336,-53.498 28.21,-12.595 34.958,-4.766 34.958,-4.766 0,0 -8.475,-5.033 -7.415,-13.24 1.06,-8.211 2.384,-24.1 3.708,-28.602 0.637,-2.166 2.98,-7.797 5.296,-11.388 2.5,-3.874 5.058,-5.792 7.945,-10.327 5.561,-8.74 9.268,-13.774 11.917,-18.009 2.65,-4.239 3.443,-5.033 8.739,-10.33 5.297,-5.297 23.571,-25.687 31.515,-32.044 7.945,-6.355 9.005,-7.416 13.242,-10.593 4.238,-3.178 10.064,-8.738 13.506,-10.594 3.444,-1.852 3.973,-1.588 16.155,-10.593 12.181,-9.004 21.981,-18.006 54.82,-28.6 32.838,-10.593 43.167,-12.712 54.819,-13.507 11.652,-0.794 23.172,-2.582 29.661,3.445 3.708,3.441 7.283,3.441 7.283,3.441 0,0 3.576,0 7.283,-3.441 6.488,-6.027 18.007,-4.239 29.661,-3.445 11.651,0.795 21.981,2.914 54.819,13.507 32.839,10.594 42.638,19.596 54.819,28.6 12.183,9.005 12.713,8.741 16.155,10.593 3.444,1.856 9.268,7.416 13.507,10.594 4.235,3.177 5.296,4.238 13.24,10.593 7.946,6.357 26.22,26.747 31.516,32.044 5.296,5.297 6.091,6.091 8.741,10.33 2.647,4.235 6.355,9.269 11.916,18.009 2.885,4.535 5.446,6.453 7.946,10.327 2.314,3.591 4.657,9.222 5.294,11.388 1.324,4.502 2.649,20.391 3.708,28.602 1.061,8.207 -7.413,13.24 -7.413,13.24 0,0 6.746,-7.829 34.957,4.766 30.226,13.499 32.044,42.11 28.336,53.498 -3.708,11.388 -15.096,16.153 -15.096,16.153 -3.972,0.597 -21.32,6.091 -28.27,9.865 0,0 -3.575,-2.185 -3.972,-2.781 0,0 0.397,3.972 -2.78,5.958 -3.178,1.988 -7.351,1.192 -7.351,1.192 0,0 2.185,3.378 -0.199,5.562 -2.383,2.185 -7.348,3.576 -7.348,3.576 0,0 5.958,0.198 6.752,1.588 0.795,1.391 1.788,5.364 -1.985,8.144 0,0 1.985,-0.198 2.978,1.787 0.994,1.986 5.564,6.952 5.564,6.952 1.589,2.98 8.804,15.427 11.186,18.803 6.885,9.533 11.918,16.42 13.507,28.866 1.589,12.447 -1.852,18.538 -6.886,29.131 -5.03,10.594 -12.445,13.242 -15.359,14.831 -8.852,4.829 -11.918,8.74 -18.804,16.42 -6.882,7.68 -12.445,14.036 -15.092,12.182 -2.65,-1.854 0,-7.946 0,-7.946 -0.794,1.325 -1.856,3.179 -6.358,10.064 -4.5,6.886 -19.862,16.95 -34.958,26.483 -13.362,8.441 -32.574,19.598 -35.485,19.862 -2.913,0.266 -3.708,-5.296 -3.708,-5.296 -5.827,13.241 -13.771,23.57 -32.841,41.578 -19.067,18.008 -50.05,35.487 -61.704,36.547 -11.652,1.059 -45.285,4.766 -56.276,4.766"
       style="fill:#ffffff;fill-opacity:1;fill-rule:nonzero;stroke:none;stroke-width:0.1"
       id="path680" />
    <path
       d="m 794.238,640.232 c -1.325,-4.502 -5.164,-5.363 -7.944,-5.363 -2.781,0 -10.925,0.199 -23.241,10.924 -12.312,10.726 -16.684,21.849 -21.252,31.382 -4.567,9.534 -17.28,39.923 -22.642,51.046 -5.362,11.123 -12.315,22.047 -14.897,28.403 -2.582,6.356 -16.486,40.122 -22.443,50.251 -5.961,10.13 -16.487,28.602 -31.383,41.314 -14.897,12.712 -33.767,24.033 -55.614,28.204 -21.848,4.171 -48.266,4.966 -54.82,4.966 -6.555,0 -32.972,-0.795 -54.82,-4.966 -21.848,-4.171 -40.718,-15.492 -55.614,-28.204 -14.897,-12.712 -25.424,-31.184 -31.382,-41.314 -5.959,-10.129 -19.862,-43.895 -22.444,-50.251 -2.582,-6.356 -9.534,-17.28 -14.898,-28.403 -5.362,-11.123 -18.074,-41.512 -22.642,-51.046 -4.569,-9.533 -8.938,-20.656 -21.253,-31.382 -12.314,-10.725 -20.457,-10.924 -23.239,-10.924 -2.78,0 -6.62,0.861 -7.945,5.363 -3.773,-2.78 -2.78,-6.753 -1.985,-8.144 0.794,-1.39 6.753,-1.588 6.753,-1.588 4.766,0.396 11.321,-1.391 18.273,-3.973 6.951,-2.582 14.499,-6.357 24.232,-12.711 8.36,-5.46 13.789,-11.065 18.048,-15.937 3.609,0.054 7.971,2.429 12.142,4.217 4.172,1.787 20.656,12.316 28.602,16.684 7.945,4.371 19.266,9.733 33.567,9.931 14.301,0.2 28.006,-7.349 34.759,-11.519 6.753,-4.171 8.739,-3.178 11.123,-1.192 2.384,1.986 5.76,3.575 10.725,4.766 4.966,1.192 18.472,0.398 28.8,0 10.328,-0.397 22.643,-0.596 29.198,-0.596 6.554,0 18.87,0.199 29.196,0.596 10.33,0.398 23.837,1.192 28.802,0 4.964,-1.191 8.343,-2.78 10.726,-4.766 2.383,-1.986 4.369,-2.979 11.121,1.192 6.755,4.17 20.458,11.719 34.759,11.519 14.302,-0.198 25.624,-5.56 33.567,-9.931 7.947,-4.368 24.433,-14.897 28.603,-16.684 4.171,-1.788 8.531,-4.163 12.142,-4.217 4.259,4.872 9.687,10.477 18.046,15.937 9.735,6.354 17.281,10.129 24.235,12.711 6.95,2.582 13.507,4.369 18.272,3.973 0,0 5.958,0.198 6.752,1.588 0.795,1.391 1.788,5.364 -1.985,8.144 z M 401.96,762.384 c 3.773,7.746 19.664,34.957 22.841,40.121 3.178,5.164 13.308,25.226 28.602,34.561 15.294,9.335 43.299,15.891 56.805,17.082 13.506,1.191 22.246,-0.596 29.794,-0.596 7.547,0 16.288,1.787 29.792,0.596 13.507,-1.191 41.514,-7.747 56.808,-17.082 15.294,-9.335 25.422,-29.397 28.6,-34.561 3.177,-5.164 19.067,-32.375 22.843,-40.121 3.774,-7.746 13.504,-25.622 8.739,-29.395 -4.767,-3.775 -17.281,8.738 -26.416,22.642 -9.138,13.904 -17.677,36.15 -24.631,45.087 -6.95,8.939 -20.061,18.075 -38.929,19.863 -18.869,1.788 -51.443,1.192 -56.806,1.192 -5.364,0 -37.937,0.596 -56.806,-1.192 -18.869,-1.788 -31.978,-10.924 -38.93,-19.863 -6.951,-8.937 -15.492,-31.183 -24.629,-45.087 -9.137,-13.904 -21.65,-26.417 -26.417,-22.642 -4.766,3.773 4.966,21.649 8.74,29.395 z M 658.777,645.198 c -7.349,-0.198 -14.299,0.397 -21.451,2.78 -7.15,2.384 -17.876,5.363 -28.402,3.377 -10.527,-1.986 -25.027,-5.363 -34.957,-4.768 -9.932,0.596 -16.684,1.788 -33.965,1.788 -17.28,0 -24.034,-1.192 -33.964,-1.788 -9.932,-0.595 -24.431,2.782 -34.958,4.768 -10.527,1.986 -21.253,-0.993 -28.403,-3.377 -7.15,-2.383 -14.102,-2.978 -21.451,-2.78 -7.35,0.198 -10.726,4.568 -8.343,10.13 2.384,5.56 7.152,8.937 11.123,10.526 3.973,1.589 11.123,9.335 15.89,11.52 4.767,2.185 17.082,4.965 21.849,6.157 4.766,1.192 12.712,4.966 23.635,4.966 10.925,0 20.26,-1.788 28.404,-5.76 8.143,-3.973 21.452,-3.973 26.218,-3.973 4.767,0 18.075,0 26.217,3.973 8.146,3.972 17.479,5.76 28.405,5.76 10.921,0 18.869,-3.774 23.634,-4.966 4.767,-1.192 17.082,-3.972 21.848,-6.157 4.77,-2.185 11.918,-9.931 15.891,-11.52 3.974,-1.589 8.74,-4.966 11.123,-10.526 2.383,-5.562 -0.993,-9.932 -8.343,-10.13 z m 96.729,-17.876 c -1.191,-3.179 -4.567,-7.152 -15.094,-6.556 -10.526,0.596 -16.089,2.186 -29.795,10.925 -13.702,8.74 -22.444,19.664 -30.586,30.39 -8.145,10.725 -14.103,25.422 -20.657,38.532 -6.555,13.109 -15.691,27.608 -33.765,39.525 -18.074,11.918 -29.992,17.28 -45.485,20.062 -15.494,2.78 -34.958,1.589 -40.122,1.589 -5.164,0 -24.629,1.191 -40.122,-1.589 -15.493,-2.782 -27.41,-8.144 -45.485,-20.062 -18.074,-11.917 -27.211,-26.416 -33.765,-39.525 -6.554,-13.11 -12.513,-27.807 -20.657,-38.532 -8.143,-10.726 -16.883,-21.65 -30.588,-30.39 -13.705,-8.739 -19.265,-10.329 -29.793,-10.925 -10.527,-0.596 -13.904,3.377 -15.095,6.556 -1.192,3.178 0,7.547 4.767,10.725 4.767,3.178 14.697,9.733 22.444,14.698 7.747,4.965 15.89,11.123 22.246,17.082 6.356,5.959 17.876,19.862 28.006,35.552 10.129,15.692 20.656,34.759 35.355,50.65 14.697,15.888 34.56,27.608 57.6,33.368 23.04,5.761 38.334,3.377 45.087,3.377 6.752,0 22.047,2.384 45.086,-3.377 23.042,-5.76 42.904,-17.48 57.603,-33.368 14.695,-15.891 25.224,-34.958 35.354,-50.65 10.128,-15.69 21.65,-29.593 28.004,-35.552 6.358,-5.959 14.5,-12.117 22.245,-17.082 7.748,-4.965 17.678,-11.52 22.447,-14.698 4.765,-3.178 5.958,-7.547 4.765,-10.725"
       style="fill:#d3d2d2;fill-opacity:1;fill-rule:nonzero;stroke:none;stroke-width:0.1"
       id="path682" />
    <path
       d="m 797.018,621.362 c -4.171,-4.965 -18.869,-22.841 -21.054,-26.614 -1.787,-3.773 -6.354,-13.308 -0.993,-16.883 5.363,-3.575 20.458,-3.575 27.611,-3.177 7.148,0.396 21.616,1.193 23.436,1.39 1.942,0.21 4.274,0.032 3.972,-0.994 -0.224,-0.761 -10.327,-6.555 -22.245,-8.343 -11.918,-1.787 -16.487,-0.397 -25.425,1.192 -8.938,1.591 -10.338,-0.036 -11.921,-0.316 -0.4,-0.04 -0.792,-0.313 -1.187,-0.876 2.016,2.868 3.91,-1.754 7.547,-6.355 4.502,-5.694 7.549,-8.21 12.117,-10.528 9.932,-5.038 19.464,-5.163 36.745,2.783 17.28,7.943 19.265,23.238 17.676,31.38 -1.587,8.145 -8.342,11.521 -12.513,12.911 -4.17,1.391 -14.103,2.78 -21.45,-0.198 -7.349,-2.979 -19.267,-10.128 -23.437,-12.514 -4.174,-2.384 -6.954,1.589 -5.762,5.563 1.192,3.972 3.577,7.547 6.755,11.717 3.177,4.173 4.837,7.063 8.341,9.932 4.986,4.081 7.535,3.97 11.918,2.78 0,0 0.397,3.972 -2.78,5.958 -3.178,1.988 -7.351,1.192 -7.351,1.192"
       style="fill:#d3d2d2;fill-opacity:1;fill-rule:nonzero;stroke:none;stroke-width:0.1"
       id="path684" />
    <path
       d="m 842.503,623.349 c -1.787,3.774 -9.532,3.377 -11.98,2.24 -5.21,-5.9 -10.446,-3.977 -16.622,-2.24 -6.353,1.786 -9.133,3.572 -10.849,5.979 1.673,-4.976 1.455,-8.744 8.069,-12.335 4.736,-2.571 14.3,-5.942 21.17,-8.017 4.684,0.92 6.638,2.258 9.021,4.641 1.95,1.951 2.979,5.958 1.191,9.732"
       style="fill:#d3d2d2;fill-opacity:1;fill-rule:nonzero;stroke:none;stroke-width:0.1"
       id="path686" />
    <path
       d="m 770.399,567.617 c 1.583,0.28 2.983,1.907 11.921,0.316 8.938,-1.589 13.507,-2.979 25.425,-1.192 11.918,1.788 22.021,7.582 22.245,8.343 0.302,1.026 -2.03,1.204 -3.972,0.994 -1.82,-0.197 -16.288,-0.994 -23.436,-1.39 -7.153,-0.398 -22.248,-0.398 -27.611,3.177 -5.361,3.575 -0.794,13.11 0.993,16.883 -2.184,-3.773 -15.691,-20.855 -17.478,-24.033 -1.787,-3.179 -5.76,-7.35 -5.76,-7.35 1.397,1.537 5.379,0.677 5.841,-3.199 0,9.617 10.645,6.575 10.645,6.575 0.395,0.563 0.787,0.836 1.187,0.876"
       style="fill:#b2b1b1;fill-opacity:1;fill-rule:nonzero;stroke:none;stroke-width:0.1"
       id="path688" />
    <path
       d="m 803.049,629.332 c 1.717,-2.408 4.497,-4.196 10.852,-5.983 6.357,-1.789 11.72,-3.774 17.081,2.78 5.365,6.555 0.675,10.944 0.278,11.703"
       style="fill:none;stroke:#231f20;stroke-width:0.5;stroke-linecap:butt;stroke-linejoin:miter;stroke-miterlimit:4;stroke-dasharray:none;stroke-opacity:1"
       id="path690" />
    <path
       d="m 807.149,614.212 c -3.376,-2.978 -9.933,-10.329 -14.5,-14.5"
       style="fill:none;stroke:#231f20;stroke-width:0.5;stroke-linecap:butt;stroke-linejoin:miter;stroke-miterlimit:4;stroke-dasharray:none;stroke-opacity:1"
       id="path692" />
    <path
       d="m 765.836,549.064 c -2.584,3.379 -6.556,6.159 -6.556,6.159 -0.495,1.937 -0.713,3.569 -0.713,4.943 0,9.617 10.645,6.575 10.645,6.575 -3.376,-8.738 9.135,-24.628 9.135,-24.628 -4.17,1.191 -9.929,3.575 -12.511,6.951"
       style="fill:#706d6e;fill-opacity:1;fill-rule:nonzero;stroke:none;stroke-width:0.1"
       id="path694" />
    <path
       d="m 765.836,549.064 c -2.584,3.379 -6.556,6.159 -6.556,6.159 -0.495,1.937 -0.713,3.569 -0.713,4.943 0,9.617 10.645,6.575 10.645,6.575 -3.376,-8.738 9.135,-24.628 9.135,-24.628 -4.17,1.191 -9.929,3.575 -12.511,6.951 z"
       style="fill:none;stroke:#231f20;stroke-width:0.75;stroke-linecap:butt;stroke-linejoin:miter;stroke-miterlimit:4;stroke-dasharray:none;stroke-opacity:1"
       id="path696" />
    <path
       d="m 778.347,542.113 c 3.178,-1.787 9.555,-6.736 12.847,-9.402"
       style="fill:none;stroke:#231f20;stroke-width:0.75;stroke-linecap:butt;stroke-linejoin:miter;stroke-miterlimit:4;stroke-dasharray:none;stroke-opacity:1"
       id="path698" />
    <path
       d="m 771.332,761.258 c 2.05,-3.84 7.81,-16.948 10.789,-26.88"
       style="fill:none;stroke:#231f20;stroke-width:0.5;stroke-linecap:butt;stroke-linejoin:miter;stroke-miterlimit:4;stroke-dasharray:none;stroke-opacity:1"
       id="path700" />
    <path
       d="m 690.823,812.371 c 5.297,-10.858 9.864,-30.522 17.213,-43.63 7.35,-13.11 25.623,-40.122 32.574,-50.451 6.953,-10.328 13.507,-26.615 19.663,-37.54 6.159,-10.923 20.259,-32.97 33.965,-40.518"
       style="fill:none;stroke:#231f20;stroke-width:0.5;stroke-linecap:butt;stroke-linejoin:miter;stroke-miterlimit:4;stroke-dasharray:none;stroke-opacity:1"
       id="path702" />
    <path
       d="m 542.783,517.684 c 2.78,3.972 5.759,10.524 8.539,10.922 2.783,0.397 9.932,1.391 12.514,0.795 2.266,-0.523 3.575,-0.993 2.582,-4.369 -0.993,-3.376 -4.864,-11.323 -4.864,-11.323"
       style="fill:none;stroke:#231f20;stroke-width:0.5;stroke-linecap:butt;stroke-linejoin:miter;stroke-miterlimit:4;stroke-dasharray:none;stroke-opacity:1"
       id="path704" />
    <path
       d="m 585.131,392.871 c 6.557,7.35 27.782,22.475 45.549,27.563"
       style="fill:none;stroke:#231f20;stroke-width:0.25;stroke-linecap:butt;stroke-linejoin:miter;stroke-miterlimit:4;stroke-dasharray:none;stroke-opacity:1"
       id="path706" />
    <path
       d="m 650.039,563.166 c -2.185,-1.39 -7.825,-3.294 -9.536,-3.773 -4.964,-1.39 -7.745,-1.39 -9.532,0.596"
       style="fill:none;stroke:#231f20;stroke-width:0.5;stroke-linecap:butt;stroke-linejoin:miter;stroke-miterlimit:4;stroke-dasharray:none;stroke-opacity:1"
       id="path708" />
    <path
       d="m 630.971,559.989 c 0.794,-3.972 3.376,-13.905 3.972,-16.088 0.596,-2.185 1.389,-5.76 4.965,-5.362 3.577,0.397 10.329,0.397 8.939,8.34 0,0 -1.787,2.383 -2.384,5.96 -0.393,2.365 0.951,5.428 2.77,7.689 0,0 0.443,1.235 1.814,3.723"
       style="fill:none;stroke:#231f20;stroke-width:0.5;stroke-linecap:butt;stroke-linejoin:miter;stroke-miterlimit:4;stroke-dasharray:none;stroke-opacity:1"
       id="path710" />
    <path
       d="m 685.591,557.606 c 0,0 4.569,0.993 7.745,2.383 0,0 -1.587,-4.766 -1.191,-10.329 0.397,-5.561 1.589,-20.061 1.986,-24.628 0.4,-4.568 0.199,-9.735 -0.595,-9.735 -0.795,0 -2.98,1.99 -4.965,14.302 -1.987,12.316 -2.78,10.329 -2.78,15.096 0,4.766 0.595,8.344 -0.2,12.911"
       style="fill:none;stroke:#231f20;stroke-width:0.5;stroke-linecap:butt;stroke-linejoin:miter;stroke-miterlimit:4;stroke-dasharray:none;stroke-opacity:1"
       id="path712" />
    <path
       d="m 429.964,563.166 c 2.184,-1.39 7.824,-3.294 9.535,-3.773 4.964,-1.39 7.745,-1.39 9.533,0.596"
       style="fill:none;stroke:#231f20;stroke-width:0.5;stroke-linecap:butt;stroke-linejoin:miter;stroke-miterlimit:4;stroke-dasharray:none;stroke-opacity:1"
       id="path714" />
    <path
       d="m 449.032,559.989 c -0.795,-3.972 -3.376,-13.905 -3.973,-16.088 -0.596,-2.185 -1.39,-5.76 -4.964,-5.362 -3.578,0.397 -10.33,0.397 -8.939,8.34 0,0 1.787,2.383 2.383,5.96 0.394,2.365 -0.95,5.428 -2.77,7.689 0,0 -0.443,1.235 -1.814,3.723"
       style="fill:none;stroke:#231f20;stroke-width:0.5;stroke-linecap:butt;stroke-linejoin:miter;stroke-miterlimit:4;stroke-dasharray:none;stroke-opacity:1"
       id="path716" />
    <path
       d="m 394.411,557.606 c 0,0 -4.568,0.993 -7.745,2.383 0,0 1.588,-4.766 1.191,-10.329 -0.397,-5.561 -1.589,-20.061 -1.985,-24.628 -0.401,-4.568 -0.2,-9.735 0.595,-9.735 0.794,0 2.979,1.99 4.965,14.302 1.986,12.316 2.78,10.329 2.78,15.096 0,4.766 -0.595,8.344 0.199,12.911"
       style="fill:none;stroke:#231f20;stroke-width:0.5;stroke-linecap:butt;stroke-linejoin:miter;stroke-miterlimit:4;stroke-dasharray:none;stroke-opacity:1"
       id="path718" />
    <path
       d="m 628.958,497.958 c -0.37,4.961 4.263,22.571 10.223,28.001 5.958,5.427 18.14,9.402 27.806,6.752 9.668,-2.647 14.301,-9.402 16.421,-15.89 2.119,-6.487 0.611,-15.134 -0.09,-21.205"
       style="fill:none;stroke:#231f20;stroke-width:0.25;stroke-linecap:butt;stroke-linejoin:miter;stroke-miterlimit:4;stroke-dasharray:none;stroke-opacity:1"
       id="path720" />
    <path
       d="m 678.122,480.977 c 2.029,1.286 5.881,1.891 7.405,0.489 1.653,-1.523 2.946,-5.297 -0.795,-7.679 -4.048,-2.579 -7.78,-2.283 -9.401,0.795 -1.475,2.794 1.705,5.707 2.791,6.395 z"
       style="fill:none;stroke:#231f20;stroke-width:0.5;stroke-linecap:butt;stroke-linejoin:miter;stroke-miterlimit:4;stroke-dasharray:none;stroke-opacity:1"
       id="path722" />
    <path
       d="m 700.886,439.226 c 11.322,0.398 16.883,7.351 22.642,14.5 5.76,7.15 13.11,15.295 11.521,20.061 -2.344,7.035 -1.249,11.131 -1.787,16.684 -0.892,9.197 3.177,26.616 1.986,33.766 -1.192,7.149 0.993,17.678 0.993,17.678 0,0 4.965,5.958 9.334,1.389 0,0 2.385,-6.752 5.761,-15.889 3.376,-9.135 6.554,-26.019 5.958,-39.922 -0.595,-13.905 -1.66,-21.283 -2.184,-26.022 -0.596,-5.361 -8.741,-19.465 -16.089,-26.613 -7.348,-7.15 -7.943,-7.947 -12.117,-9.139 -4.17,-1.191 -23.039,-0.794 -26.018,13.507 z"
       style="fill:none;stroke:#231f20;stroke-width:0.5;stroke-linecap:butt;stroke-linejoin:miter;stroke-miterlimit:4;stroke-dasharray:none;stroke-opacity:1"
       id="path724" />
    <path
       d="m 772.191,480.939 c -0.198,-5.563 -2.119,-21.057 -11.189,-40.124"
       style="fill:none;stroke:#231f20;stroke-width:0.5;stroke-linecap:butt;stroke-linejoin:miter;stroke-miterlimit:4;stroke-dasharray:none;stroke-opacity:1"
       id="path726" />
    <path
       d="m 541.077,341.639 c -1.075,2.601 -1.736,5.824 3.295,9.796 5.405,4.269 18.273,12.911 31.978,13.508 13.706,0.596 24.827,-1.589 33.369,-6.157 8.539,-4.571 9.449,-11.496 5.221,-15.68"
       style="fill:none;stroke:#231f20;stroke-width:0.5;stroke-linecap:butt;stroke-linejoin:miter;stroke-miterlimit:4;stroke-dasharray:none;stroke-opacity:1"
       id="path728" />
    <path
       d="m 696.002,442.235 c -6.24,-0.359 -11.8,-6.981 -5.976,-14.66 5.827,-7.68 5.563,-10.858 6.622,-14.566 1.06,-3.708 6.289,-15.803 20.359,-14.258"
       style="fill:none;stroke:#231f20;stroke-width:0.5;stroke-linecap:butt;stroke-linejoin:miter;stroke-miterlimit:4;stroke-dasharray:none;stroke-opacity:1"
       id="path730" />
    <path
       d="m 728.746,408.178 c -4.027,-0.465 -11.175,1.918 -13.294,2.712 0,0 2.119,2.384 6.09,3.972 3.972,1.589 15.229,7.947 5.362,10.857"
       style="fill:none;stroke:#231f20;stroke-width:0.5;stroke-linecap:butt;stroke-linejoin:miter;stroke-miterlimit:4;stroke-dasharray:none;stroke-opacity:1"
       id="path732" />
    <path
       d="m 690.026,427.575 c -3.972,0 -9.799,-5.561 -8.738,-9.269 1.061,-3.708 6.885,-11.654 8.474,-14.832 1.589,-3.177 2.913,-7.148 2.913,-7.148 0,0 6.717,-7.512 13.557,4.319"
       style="fill:none;stroke:#231f20;stroke-width:0.5;stroke-linecap:butt;stroke-linejoin:miter;stroke-miterlimit:4;stroke-dasharray:none;stroke-opacity:1"
       id="path734" />
    <path
       d="m 282.985,621.362 c 4.172,-4.965 18.869,-22.841 21.054,-26.614 1.788,-3.773 6.356,-13.308 0.994,-16.883 -5.365,-3.575 -20.459,-3.575 -27.61,-3.177 -7.15,0.396 -21.616,1.193 -23.437,1.39 -1.942,0.21 -4.273,0.032 -3.973,-0.994 0.225,-0.761 10.329,-6.555 22.246,-8.343 11.917,-1.787 16.486,-0.397 25.424,1.192 8.938,1.591 10.339,-0.036 11.923,-0.316 0.4,-0.04 0.79,-0.313 1.186,-0.876 -2.017,2.868 -3.91,-1.754 -7.547,-6.355 -4.503,-5.694 -7.548,-8.21 -12.117,-10.528 -9.933,-5.038 -19.464,-5.163 -36.745,2.783 -17.28,7.943 -19.265,23.238 -17.677,31.38 1.589,8.145 8.342,11.521 12.513,12.911 4.171,1.391 14.102,2.78 21.451,-0.198 7.35,-2.979 19.267,-10.128 23.438,-12.514 4.171,-2.384 6.952,1.589 5.761,5.563 -1.193,3.972 -3.577,7.547 -6.754,11.717 -3.178,4.173 -4.837,7.063 -8.342,9.932 -4.987,4.081 -7.534,3.97 -11.918,2.78 0,0 -0.397,3.972 2.781,5.958 3.178,1.988 7.349,1.192 7.349,1.192"
       style="fill:#d3d2d2;fill-opacity:1;fill-rule:nonzero;stroke:none;stroke-width:0.1"
       id="path736" />
    <path
       d="m 237.5,623.349 c 1.789,3.774 9.532,3.377 11.98,2.24 5.211,-5.9 10.447,-3.977 16.622,-2.24 6.353,1.786 9.134,3.572 10.85,5.979 -1.673,-4.976 -1.456,-8.744 -8.069,-12.335 -4.737,-2.571 -14.3,-5.942 -21.17,-8.017 h -0.001 c -4.684,0.92 -6.636,2.258 -9.019,4.641 -1.951,1.951 -2.98,5.958 -1.193,9.732"
       style="fill:#d3d2d2;fill-opacity:1;fill-rule:nonzero;stroke:none;stroke-width:0.1"
       id="path738" />
    <path
       d="m 616.273,801.116 c -7.944,3.177 -20.458,3.377 -29,3.773 -8.54,0.398 -39.525,0.596 -47.271,0.596 -7.747,0 -38.732,-0.198 -47.272,-0.596 -8.541,-0.396 -21.055,-0.596 -28.999,-3.773 -7.944,-3.178 -14.897,-9.137 -13.507,-11.323 1.451,-2.278 18.671,6.953 26.417,9.734 7.746,2.78 28.602,3.575 33.567,2.978 4.966,-0.595 22.643,-0.396 29.794,-0.396 7.15,0 24.828,-0.199 29.792,0.396 4.967,0.597 25.823,-0.198 33.568,-2.978 7.747,-2.781 24.968,-12.012 26.418,-9.734 1.389,2.186 -5.561,8.145 -13.507,11.323"
       style="fill:#b2b1b1;fill-opacity:1;fill-rule:nonzero;stroke:none;stroke-width:0.1"
       id="path740" />
    <path
       d="m 309.606,567.617 c -1.584,0.28 -2.985,1.907 -11.923,0.316 -8.938,-1.589 -13.507,-2.979 -25.424,-1.192 -11.917,1.788 -22.021,7.582 -22.246,8.343 -0.3,1.026 2.031,1.204 3.973,0.994 1.821,-0.197 16.287,-0.994 23.437,-1.39 7.151,-0.398 22.245,-0.398 27.61,3.177 5.362,3.575 0.794,13.11 -0.994,16.883 2.185,-3.773 15.691,-20.855 17.478,-24.033 1.788,-3.179 5.761,-7.35 5.761,-7.35 -1.395,1.537 -5.378,0.677 -5.841,-3.199 0,9.617 -10.645,6.575 -10.645,6.575 -0.396,0.563 -0.786,0.836 -1.186,0.876"
       style="fill:#b2b1b1;fill-opacity:1;fill-rule:nonzero;stroke:none;stroke-width:0.1"
       id="path742" />
    <path
       d="m 714.591,622.555 c -9.931,6.554 -27.212,14.499 -32.376,21.45 -5.163,6.953 -10.726,18.274 -15.492,24.034 -4.766,5.76 -14.5,17.479 -17.479,22.246 -2.979,4.766 -8.145,20.458 -12.117,26.615 -3.971,6.157 -10.723,11.519 -21.649,16.684 -10.925,5.165 -19.345,9.644 -36.149,6.753 -18.472,-3.178 -29.595,-3.178 -39.327,-3.178 -9.734,0 -20.856,0 -39.328,3.178 -16.803,2.891 -25.224,-1.588 -36.148,-6.753 -10.925,-5.165 -17.678,-10.527 -21.65,-16.684 -3.973,-6.157 -9.137,-21.849 -12.117,-26.615 -2.979,-4.767 -12.712,-16.486 -17.478,-22.246 -4.767,-5.76 -10.328,-17.081 -15.492,-24.034 -5.165,-6.951 -22.445,-14.896 -32.376,-21.45 -9.931,-6.555 -16.883,-7.349 -26.416,-6.754 -7.044,0.441 -14.341,3.505 -19.121,5.786 3.974,-2.061 8.294,-4.592 13.162,-7.771 6.011,-3.926 10.504,-7.928 14.14,-11.677 -1.75,4.214 9.694,8.897 13.468,10.684 3.773,1.787 14.698,9.135 20.855,13.306 6.158,4.171 18.87,10.13 21.452,10.926 2.582,0.795 10.725,0 14.499,0 h 20.657 c 2.582,0 11.122,-1.789 15.89,-2.782 4.766,-0.993 15.492,-1.191 22.245,-0.794 6.754,0.396 10.329,0.396 15.295,-0.397 4.964,-0.794 14.499,-1.987 21.451,-2.98 6.951,-0.993 20.854,-0.397 27.012,-0.397 6.157,0 20.061,-0.596 27.012,0.397 6.953,0.993 16.486,2.186 21.453,2.98 4.965,0.793 8.539,0.793 15.291,0.397 6.755,-0.397 17.479,-0.199 22.248,0.794 4.766,0.993 13.306,2.782 15.89,2.782 h 20.656 c 3.774,0 11.916,0.795 14.5,0 2.582,-0.796 15.292,-6.755 21.451,-10.926 6.157,-4.171 17.081,-11.519 20.855,-13.306 3.773,-1.787 15.218,-6.47 13.469,-10.684 3.634,3.749 8.129,7.751 14.137,11.677 4.87,3.179 9.19,5.71 13.162,7.771 -4.78,-2.281 -12.076,-5.345 -19.119,-5.786 -9.533,-0.595 -16.486,0.199 -26.416,6.754 z m -264.168,96.728 c 6.158,4.568 10.528,5.363 13.904,8.938 3.376,3.575 10.725,6.357 16.485,7.746 5.761,1.391 21.849,0.795 34.958,-3.773 13.108,-4.569 18.472,-4.171 24.232,-4.171 5.759,0 11.122,-0.398 24.232,4.171 13.109,4.568 29.198,5.164 34.957,3.773 5.759,-1.389 13.109,-4.171 16.485,-7.746 3.377,-3.575 7.748,-4.37 13.905,-8.938 6.156,-4.569 12.315,-16.485 12.117,-18.868 -0.198,-2.384 -4.372,-1.987 -7.351,-1.789 -2.978,0.2 -13.11,1.589 -19.663,3.178 -6.554,1.59 -22.841,3.377 -29.993,4.171 -7.149,0.795 -16.089,1.788 -21.649,3.377 -5.561,1.59 -11.935,2.34 -16.143,2.064 -2.395,-0.156 -5.903,-2.064 -6.897,-2.064 -0.993,0 -4.503,1.908 -6.898,2.064 -4.208,0.276 -10.581,-0.474 -16.143,-2.064 -5.561,-1.589 -14.499,-2.582 -21.649,-3.377 -7.15,-0.794 -23.437,-2.581 -29.992,-4.171 -6.555,-1.589 -16.685,-2.978 -19.664,-3.178 -2.979,-0.198 -7.15,-0.595 -7.349,1.789 -0.198,2.383 5.959,14.299 12.116,18.868 z m 223.45,-73.291 c -1.391,-2.384 -1.589,-6.753 -12.91,-6.555 -11.322,0.198 -13.705,-0.397 -20.261,0.994 -6.553,1.39 -12.114,1.787 -17.078,1.588 -4.968,-0.198 -7.748,0.199 -14.104,0.397 -6.357,0.2 -14.896,-0.595 -20.06,-2.581 -5.166,-1.987 -14.103,-3.972 -21.056,-3.972 -6.95,0 -24.032,0.396 -28.402,0.396 -4.369,0 -21.452,-0.396 -28.404,-0.396 -6.951,0 -15.888,1.985 -21.053,3.972 -5.165,1.986 -13.706,2.781 -20.061,2.581 -6.356,-0.198 -9.137,-0.595 -14.102,-0.397 -4.966,0.199 -10.527,-0.198 -17.082,-1.588 -6.554,-1.391 -8.937,-0.796 -20.259,-0.994 -11.322,-0.198 -11.52,4.171 -12.911,6.555 -1.39,2.383 -0.795,5.363 0.398,7.747 1.191,2.383 4.966,8.54 8.143,13.307 3.178,4.767 7.548,8.938 11.123,12.712 3.576,3.773 7.548,11.52 8.938,13.506 1.391,1.986 5.561,2.78 9.534,2.979 3.973,0.199 10.328,1.192 17.081,2.583 6.753,1.389 17.48,2.581 21.849,2.581 4.37,0 21.054,0.199 28.006,0.596 6.952,0.398 23.04,1.787 28.8,1.787 5.759,0 21.848,-1.389 28.799,-1.787 6.953,-0.397 23.638,-0.596 28.007,-0.596 4.369,0 15.096,-1.192 21.848,-2.581 6.755,-1.391 13.109,-2.384 17.081,-2.583 3.973,-0.199 8.145,-0.993 9.535,-2.979 1.391,-1.986 5.362,-9.733 8.936,-13.506 3.576,-3.774 7.947,-7.945 11.124,-12.712 3.178,-4.767 6.952,-10.924 8.143,-13.307 1.191,-2.384 1.787,-5.364 0.398,-7.747"
       style="fill:#b2b1b1;fill-opacity:1;fill-rule:nonzero;stroke:none;stroke-width:0.1"
       id="path744" />
    <path
       d="m 786.313,630.477 c -5.643,0.828 -11.342,2.009 -15.512,4.193 -4.171,2.185 -12.117,7.151 -15.89,10.528 -2.938,2.629 -7.149,9.533 -11.918,12.91 -4.766,3.376 -11.717,7.547 -16.089,11.917 -4.368,4.37 -13.306,17.478 -15.89,23.041 -2.582,5.56 -3.773,10.328 -4.567,14.301 -0.795,3.971 -2.98,14.697 -3.774,18.868 -0.794,4.172 -6.752,21.055 -8.343,24.431 -1.589,3.376 -10.526,26.217 -12.115,29.197 -1.588,2.979 -4.765,11.983 -5.329,13.573 -0.562,1.589 -4.799,9.076 -5.128,9.646 -0.326,0.568 -1.493,3.098 -2.255,2.8 -0.944,-0.369 0.994,-5.759 2.979,-9.335 1.986,-3.575 5.563,-14.3 7.946,-19.067 2.383,-4.768 9.93,-21.451 11.519,-26.417 1.589,-4.966 5.364,-21.253 5.364,-30.588 0,-9.335 0.993,-18.272 2.582,-22.047 1.589,-3.773 8.539,-16.089 16.485,-25.225 7.945,-9.136 22.246,-19.266 28.204,-23.636 5.96,-4.369 11.322,-11.321 15.095,-13.704 3.774,-2.384 10.925,-5.165 10.925,-6.357 0,-1.191 -2.886,-4.186 -6.469,-5.943 l -0.044,-0.023 c 2.471,1.157 4.825,2.138 7.11,2.987 5.522,2.052 10.791,3.597 15.117,3.948 l -0.003,0.002"
       style="fill:#b2b1b1;fill-opacity:1;fill-rule:nonzero;stroke:none;stroke-width:0.1"
       id="path746" />
    <path
       d="m 309.402,629.506 c 0,1.192 7.15,3.973 10.924,6.357 3.774,2.383 9.136,9.335 15.095,13.704 5.959,4.37 20.259,14.5 28.205,23.636 7.945,9.136 14.896,21.452 16.486,25.225 1.588,3.775 2.581,12.712 2.581,22.047 0,9.335 3.774,25.622 5.363,30.588 1.589,4.966 9.136,21.649 11.52,26.417 2.384,4.767 5.959,15.492 7.945,19.067 1.986,3.576 3.923,8.966 2.979,9.335 -0.761,0.298 -1.929,-2.232 -2.256,-2.8 -0.328,-0.57 -4.564,-8.057 -5.126,-9.646 -0.563,-1.59 -3.741,-10.594 -5.329,-13.573 -1.589,-2.98 -10.528,-25.821 -12.117,-29.197 -1.588,-3.376 -7.547,-20.259 -8.341,-24.431 -0.795,-4.171 -2.98,-14.897 -3.775,-18.868 -0.794,-3.973 -1.985,-8.741 -4.568,-14.301 -2.581,-5.563 -11.52,-18.671 -15.889,-23.041 -4.37,-4.37 -11.322,-8.541 -16.089,-11.917 -4.766,-3.377 -8.979,-10.281 -11.918,-12.91 -3.773,-3.377 -11.717,-8.343 -15.888,-10.528 -4.171,-2.184 -9.87,-3.365 -15.512,-4.193 l -0.003,-0.002 c 4.324,-0.351 9.594,-1.896 15.117,-3.948 2.285,-0.849 4.638,-1.83 7.109,-2.987 l -0.044,0.023 c -3.583,1.757 -6.469,4.752 -6.469,5.943"
       style="fill:#b2b1b1;fill-opacity:1;fill-rule:nonzero;stroke:none;stroke-width:0.1"
       id="path748" />
    <path
       d="m 276.955,629.332 c -1.716,-2.408 -4.497,-4.196 -10.853,-5.983 -6.356,-1.789 -11.719,-3.774 -17.081,2.78 -5.363,6.555 -0.675,10.944 -0.276,11.703"
       style="fill:none;stroke:#231f20;stroke-width:0.5;stroke-linecap:butt;stroke-linejoin:miter;stroke-miterlimit:4;stroke-dasharray:none;stroke-opacity:1"
       id="path750" />
    <path
       d="m 272.855,614.212 c 3.377,-2.978 9.932,-10.329 14.5,-14.5"
       style="fill:none;stroke:#231f20;stroke-width:0.5;stroke-linecap:butt;stroke-linejoin:miter;stroke-miterlimit:4;stroke-dasharray:none;stroke-opacity:1"
       id="path752" />
    <path
       d="m 301.656,542.113 c 0,0 12.512,15.89 9.136,24.628 0,0 10.645,3.042 10.645,-6.575 0,-1.374 -0.218,-3.006 -0.714,-4.943 0,0 -3.973,-2.78 -6.555,-6.159 -2.582,-3.376 -8.341,-5.76 -12.512,-6.951"
       style="fill:#7b7979;fill-opacity:1;fill-rule:nonzero;stroke:none;stroke-width:0.1"
       id="path754" />
    <path
       d="m 301.656,542.113 c 0,0 12.512,15.89 9.136,24.628 0,0 10.645,3.042 10.645,-6.575 0,-1.374 -0.218,-3.006 -0.714,-4.943 0,0 -3.973,-2.78 -6.555,-6.159 -2.582,-3.376 -8.341,-5.76 -12.512,-6.951 z"
       style="fill:none;stroke:#231f20;stroke-width:0.75;stroke-linecap:butt;stroke-linejoin:miter;stroke-miterlimit:4;stroke-dasharray:none;stroke-opacity:1"
       id="path756" />
    <path
       d="m 301.656,542.113 c -3.179,-1.787 -9.555,-6.736 -12.845,-9.402"
       style="fill:none;stroke:#231f20;stroke-width:0.75;stroke-linecap:butt;stroke-linejoin:miter;stroke-miterlimit:4;stroke-dasharray:none;stroke-opacity:1"
       id="path758" />
    <path
       d="m 282.985,621.362 c 4.172,-4.965 18.869,-22.841 21.054,-26.614 2.185,-3.773 15.691,-20.855 17.478,-24.033 1.788,-3.179 5.761,-7.35 5.761,-7.35 0,0 4.171,-3.575 6.355,-4.568 2.186,-0.993 6.159,-1.589 11.323,-0.794 5.164,0.794 9.93,5.163 12.712,10.724 2.78,5.563 4.766,12.315 4.568,14.897 -0.199,2.582 -4.568,6.556 -9.137,11.918 -4.569,5.362 -10.329,11.917 -20.061,18.274 -9.733,6.354 -17.281,10.129 -24.232,12.711 -6.952,2.582 -13.507,4.369 -18.273,3.973"
       style="fill:none;stroke:#231f20;stroke-width:0.5;stroke-linecap:butt;stroke-linejoin:miter;stroke-miterlimit:4;stroke-dasharray:none;stroke-opacity:1"
       id="path760" />
    <path
       d="m 308.673,761.258 c -2.052,-3.84 -7.812,-16.948 -10.792,-26.88"
       style="fill:none;stroke:#231f20;stroke-width:0.5;stroke-linecap:butt;stroke-linejoin:miter;stroke-miterlimit:4;stroke-dasharray:none;stroke-opacity:1"
       id="path762" />
    <path
       d="m 389.182,812.371 c -5.298,-10.858 -9.866,-30.522 -17.215,-43.63 -7.348,-13.11 -25.622,-40.122 -32.574,-50.451 -6.951,-10.328 -13.506,-26.615 -19.663,-37.54 -6.157,-10.923 -20.26,-32.97 -33.965,-40.518"
       style="fill:none;stroke:#231f20;stroke-width:0.5;stroke-linecap:butt;stroke-linejoin:miter;stroke-miterlimit:4;stroke-dasharray:none;stroke-opacity:1"
       id="path764" />
    <path
       d="m 409.507,761.391 c 3.376,5.76 11.322,15.294 15.692,24.033 4.369,8.74 16.683,24.828 22.841,32.773 6.157,7.945 12.116,8.541 18.869,9.931 6.754,1.39 21.649,5.76 29.793,6.753 8.144,0.993 31.779,0.596 43.3,0.596 11.519,0 35.157,0.397 43.299,-0.596 8.145,-0.993 23.042,-5.363 29.794,-6.753 6.752,-1.39 12.712,-1.986 18.869,-9.931 6.157,-7.945 18.472,-24.033 22.84,-32.773 4.372,-8.739 12.316,-18.273 15.693,-24.033"
       style="fill:none;stroke:#231f20;stroke-width:0.5;stroke-linecap:butt;stroke-linejoin:miter;stroke-miterlimit:4;stroke-dasharray:none;stroke-opacity:1"
       id="path766" />
    <path
       d="m 347.537,635.465 c 8.143,4.966 29.992,18.075 44.094,34.162 14.102,16.089 23.239,37.74 35.951,56.608 12.711,18.869 27.012,33.369 52.634,41.711 25.622,8.342 50.252,7.548 59.786,7.548 9.533,0 34.164,0.794 59.785,-7.548 25.624,-8.342 39.923,-22.842 52.634,-41.711 12.713,-18.868 21.848,-40.519 35.951,-56.608 14.103,-16.087 35.951,-29.196 44.095,-34.162"
       style="fill:none;stroke:#231f20;stroke-width:0.5;stroke-linecap:butt;stroke-linejoin:miter;stroke-miterlimit:4;stroke-dasharray:none;stroke-opacity:1"
       id="path768" />
    <path
       d="m 433.938,658.903 c 2.78,1.589 16.883,6.156 24.231,7.746 7.349,1.589 17.876,-0.597 26.02,-1.192 8.144,-0.596 17.479,-2.383 28.801,-3.376 11.32,-0.994 22.246,0.793 27.012,0.793 4.767,0 15.692,-1.787 27.012,-0.793 11.322,0.993 20.655,2.78 28.801,3.376 8.143,0.595 18.67,2.781 26.019,1.192 7.35,-1.59 21.453,-6.157 24.233,-7.746"
       style="fill:none;stroke:#231f20;stroke-width:0.5;stroke-linecap:butt;stroke-linejoin:miter;stroke-miterlimit:4;stroke-dasharray:none;stroke-opacity:1"
       id="path770" />
    <path
       d="m 710.155,581.97 c -2.384,-2.119 -11.121,3.972 -15.891,7.15 0,0 -9.799,6.354 -13.507,9.798 -3.705,3.445 -19.067,12.713 -34.426,11.389 -15.36,-1.325 -26.481,-9.8 -28.336,-11.125 0,0 -1.981,-1.645 -6.091,-3.705"
       style="fill:none;stroke:#231f20;stroke-width:0.5;stroke-linecap:butt;stroke-linejoin:miter;stroke-miterlimit:4;stroke-dasharray:none;stroke-opacity:1"
       id="path772" />
    <path
       d="m 611.904,595.477 c 0,0 1.852,5.03 11.388,12.18 9.532,7.151 21.713,11.388 40.253,7.416 18.537,-3.973 31.25,-15.096 38.665,-22.245 7.414,-7.15 8.832,-10.072 7.945,-10.858"
       style="fill:none;stroke:#231f20;stroke-width:0.75;stroke-linecap:butt;stroke-linejoin:miter;stroke-miterlimit:4;stroke-dasharray:none;stroke-opacity:1"
       id="path774" />
    <path
       d="m 468.1,595.477 c 11.123,5.03 64.619,7.419 71.902,7.419 7.283,0 60.778,-2.389 71.902,-7.419"
       style="fill:none;stroke:#231f20;stroke-width:0.5;stroke-linecap:butt;stroke-linejoin:miter;stroke-miterlimit:4;stroke-dasharray:none;stroke-opacity:1"
       id="path776" />
    <path
       d="m 369.848,581.97 c -0.885,0.786 0.53,3.708 7.945,10.858 7.415,7.149 20.128,18.272 38.667,22.245 18.537,3.972 30.719,-0.265 40.253,-7.416 9.534,-7.15 11.387,-12.18 11.387,-12.18"
       style="fill:none;stroke:#231f20;stroke-width:0.75;stroke-linecap:butt;stroke-linejoin:miter;stroke-miterlimit:4;stroke-dasharray:none;stroke-opacity:1"
       id="path778" />
    <path
       d="m 468.1,595.477 c -4.109,2.06 -6.091,3.705 -6.091,3.705 -1.854,1.325 -12.976,9.8 -28.336,11.125 -15.36,1.324 -30.72,-7.944 -34.428,-11.389 -3.708,-3.444 -13.506,-9.798 -13.506,-9.798 -4.768,-3.178 -13.507,-9.269 -15.891,-7.15"
       style="fill:none;stroke:#231f20;stroke-width:0.5;stroke-linecap:butt;stroke-linejoin:miter;stroke-miterlimit:4;stroke-dasharray:none;stroke-opacity:1"
       id="path780" />
    <path
       d="m 468.1,595.477 c 2.622,-4.043 4.503,-9.005 4.503,-9.005 0,0 2.383,-6.091 3.972,-8.74 1.59,-2.648 2.648,-7.15 5.032,-7.944 2.384,-0.794 19.862,1.588 23.835,1.588 3.972,0 9.798,-0.263 14.3,-1.852 4.503,-1.591 15.36,-2.386 20.26,-2.386 4.9,0 15.757,0.795 20.259,2.386 4.503,1.589 10.33,1.852 14.302,1.852 3.972,0 21.45,-2.382 23.834,-1.588 2.383,0.794 3.443,5.296 5.032,7.944 1.589,2.649 3.972,8.74 3.972,8.74 0,0 1.88,4.962 4.503,9.005"
       style="fill:none;stroke:#231f20;stroke-width:0.75;stroke-linecap:round;stroke-linejoin:round;stroke-miterlimit:4;stroke-dasharray:none;stroke-opacity:1"
       id="path782" />
    <path
       d="m 540.002,515.297 c -3.773,0 -3.444,4.968 0,4.968 3.442,0 3.774,-4.968 0,-4.968"
       style="fill:#7b7979;fill-opacity:1;fill-rule:nonzero;stroke:none;stroke-width:0.1"
       id="path784" />
    <path
       d="m 540.002,515.297 c -3.773,0 -3.444,4.968 0,4.968 3.442,0 3.774,-4.968 0,-4.968 z"
       style="fill:none;stroke:#231f20;stroke-width:0.75;stroke-linecap:butt;stroke-linejoin:miter;stroke-miterlimit:4;stroke-dasharray:none;stroke-opacity:1"
       id="path786" />
    <path
       d="m 537.222,517.684 c -2.782,3.972 -5.761,10.524 -8.543,10.922 -2.779,0.397 -9.929,1.391 -12.513,0.795 -2.264,-0.523 -3.574,-0.993 -2.581,-4.369 0.993,-3.376 4.867,-11.323 4.867,-11.323"
       style="fill:none;stroke:#231f20;stroke-width:0.5;stroke-linecap:butt;stroke-linejoin:miter;stroke-miterlimit:4;stroke-dasharray:none;stroke-opacity:1"
       id="path788" />
    <path
       d="m 523.262,507.803 c 3.775,-5.958 9.192,-13.956 11.376,-16.538 2.187,-2.581 2.584,-3.376 5.364,-3.376 2.781,0 3.178,0.795 5.363,3.376 2.184,2.582 7.603,10.58 11.377,16.538"
       style="fill:none;stroke:#231f20;stroke-width:0.5;stroke-linecap:butt;stroke-linejoin:miter;stroke-miterlimit:4;stroke-dasharray:none;stroke-opacity:1"
       id="path790" />
    <path
       d="m 494.872,392.871 c -6.555,7.35 -27.781,22.475 -45.549,27.563"
       style="fill:none;stroke:#231f20;stroke-width:0.25;stroke-linecap:butt;stroke-linejoin:miter;stroke-miterlimit:4;stroke-dasharray:none;stroke-opacity:1"
       id="path792" />
    <path
       d="m 451.044,497.958 c 0.372,4.961 -4.261,22.571 -10.221,28.001 -5.958,5.427 -18.14,9.402 -27.807,6.752 -9.666,-2.647 -14.301,-9.402 -16.42,-15.89 -2.118,-6.487 -0.612,-15.134 0.092,-21.205"
       style="fill:none;stroke:#231f20;stroke-width:0.25;stroke-linecap:butt;stroke-linejoin:miter;stroke-miterlimit:4;stroke-dasharray:none;stroke-opacity:1"
       id="path794" />
    <path
       d="m 401.881,480.977 c -2.03,1.286 -5.881,1.891 -7.403,0.489 -1.655,-1.523 -2.946,-5.297 0.794,-7.679 4.047,-2.579 7.78,-2.283 9.402,0.795 1.473,2.794 -1.708,5.707 -2.793,6.395 z"
       style="fill:none;stroke:#231f20;stroke-width:0.5;stroke-linecap:butt;stroke-linejoin:miter;stroke-miterlimit:4;stroke-dasharray:none;stroke-opacity:1"
       id="path796" />
    <path
       d="m 379.118,439.226 c -11.322,0.398 -16.882,7.351 -22.643,14.5 -5.76,7.15 -13.109,15.295 -11.519,20.061 2.344,7.035 1.248,11.131 1.787,16.684 0.892,9.197 -3.179,26.616 -1.987,33.766 1.192,7.149 -0.993,17.678 -0.993,17.678 0,0 -4.966,5.958 -9.335,1.389 0,0 -2.384,-6.752 -5.76,-15.889 -3.376,-9.135 -6.554,-26.019 -5.958,-39.922 0.595,-13.905 1.659,-21.283 2.184,-26.022 0.596,-5.361 8.739,-19.465 16.089,-26.613 7.349,-7.15 7.944,-7.947 12.116,-9.139 4.17,-1.191 23.04,-0.794 26.019,13.507 z"
       style="fill:none;stroke:#231f20;stroke-width:0.5;stroke-linecap:butt;stroke-linejoin:miter;stroke-miterlimit:4;stroke-dasharray:none;stroke-opacity:1"
       id="path798" />
    <path
       d="m 307.813,480.939 c 0.198,-5.563 2.118,-21.057 11.188,-40.124"
       style="fill:none;stroke:#231f20;stroke-width:0.5;stroke-linecap:butt;stroke-linejoin:miter;stroke-miterlimit:4;stroke-dasharray:none;stroke-opacity:1"
       id="path800" />
    <path
       d="m 537.636,384.842 c 0,0 0.182,10.49 -1.209,12.079 -1.39,1.588 -26.417,-7.696 -33.965,-22.84 -0.14,-0.284 0.132,-3.213 4.965,-3.777 5.163,-0.6 12.048,-1.286 18.473,-3.376 7.944,-2.582 12.713,-5.759 14.102,-5.759 1.391,0 6.157,3.177 14.103,5.759 6.423,2.09 13.309,2.776 18.472,3.376 4.832,0.564 5.106,3.493 4.965,3.777 -7.549,15.144 -32.575,24.428 -33.964,22.84 -1.391,-1.589 -1.211,-12.079 -1.211,-12.079"
       style="fill:none;stroke:#231f20;stroke-width:0.5;stroke-linecap:butt;stroke-linejoin:miter;stroke-miterlimit:4;stroke-dasharray:none;stroke-opacity:1"
       id="path802" />
    <path
       d="m 538.928,341.639 c 1.074,2.601 1.978,5.824 -3.295,9.796 -5.501,4.144 -18.274,12.911 -31.979,13.508 -13.705,0.596 -24.827,-1.589 -33.368,-6.157 -8.541,-4.571 -9.45,-11.496 -5.221,-15.68"
       style="fill:none;stroke:#231f20;stroke-width:0.5;stroke-linecap:butt;stroke-linejoin:miter;stroke-miterlimit:4;stroke-dasharray:none;stroke-opacity:1"
       id="path804" />
    <path
       d="m 384,442.235 c 6.241,-0.359 11.803,-6.981 5.976,-14.66 -5.827,-7.68 -5.562,-10.858 -6.621,-14.566 -1.06,-3.708 -6.288,-15.803 -20.357,-14.258"
       style="fill:none;stroke:#231f20;stroke-width:0.5;stroke-linecap:butt;stroke-linejoin:miter;stroke-miterlimit:4;stroke-dasharray:none;stroke-opacity:1"
       id="path806" />
    <path
       d="m 351.259,408.178 c 4.025,-0.465 11.176,1.918 13.293,2.712 0,0 -2.118,2.384 -6.091,3.972 -3.972,1.589 -15.228,7.947 -5.362,10.857"
       style="fill:none;stroke:#231f20;stroke-width:0.5;stroke-linecap:butt;stroke-linejoin:miter;stroke-miterlimit:4;stroke-dasharray:none;stroke-opacity:1"
       id="path808" />
    <path
       d="m 389.976,427.575 c 3.973,0 9.799,-5.561 8.739,-9.269 -1.059,-3.708 -6.885,-11.654 -8.474,-14.832 -1.589,-3.177 -2.913,-7.148 -2.913,-7.148 0,0 -6.718,-7.512 -13.555,4.319"
       style="fill:none;stroke:#231f20;stroke-width:0.5;stroke-linecap:butt;stroke-linejoin:miter;stroke-miterlimit:4;stroke-dasharray:none;stroke-opacity:1"
       id="path810" />
    <path
       d="m 836.742,638.908 c -0.596,-3.112 -4.529,-2.754 -5.484,-1.076 -0.506,1.306 -1.142,3.863 1.776,5.843 0,0 5.298,0.264 3.708,-4.767"
       style="fill:#ffffff;fill-opacity:1;fill-rule:nonzero;stroke:none;stroke-width:0.1"
       id="path812" />
    <path
       d="m 836.742,638.908 c -0.596,-3.112 -4.529,-2.754 -5.484,-1.076 -0.506,1.306 -1.142,3.863 1.776,5.843 0,0 5.298,0.264 3.708,-4.767 z"
       style="fill:none;stroke:#231f20;stroke-width:0.5;stroke-linecap:butt;stroke-linejoin:miter;stroke-miterlimit:4;stroke-dasharray:none;stroke-opacity:1"
       id="path814" />
    <path
       d="m 797.018,621.362 c -4.171,-4.965 -18.869,-22.841 -21.054,-26.614 -2.184,-3.773 -15.691,-20.855 -17.478,-24.033 -1.787,-3.179 -5.76,-7.35 -5.76,-7.35 0,0 -4.17,-3.575 -6.357,-4.568 -2.185,-0.993 -6.157,-1.589 -11.32,-0.794 -5.163,0.794 -9.932,5.163 -12.713,10.724 -2.78,5.563 -4.765,12.315 -4.567,14.897 0.198,2.582 4.567,6.556 9.135,11.918 4.57,5.362 10.33,11.917 20.06,18.274 9.735,6.354 17.281,10.129 24.235,12.711 6.95,2.582 13.507,4.369 18.272,3.973"
       style="fill:none;stroke:#231f20;stroke-width:0.5;stroke-linecap:butt;stroke-linejoin:miter;stroke-miterlimit:4;stroke-dasharray:none;stroke-opacity:1"
       id="path816" />
    <path
       d="m 691.974,415.494 c 0,-0.626 -0.501,-1.129 -1.127,-1.129 -0.622,0 -1.126,0.503 -1.126,1.129 0,0.623 0.504,1.123 1.126,1.123 0.626,0 1.127,-0.5 1.127,-1.123"
       style="fill:#231f20;fill-opacity:1;fill-rule:nonzero;stroke:none;stroke-width:0.1"
       id="path818" />
    <path
       d="m 698.528,404.04 c 0,-0.625 -0.501,-1.125 -1.127,-1.125 -0.623,0 -1.126,0.5 -1.126,1.125 0,0.624 0.503,1.126 1.126,1.126 0.626,0 1.127,-0.502 1.127,-1.126"
       style="fill:#231f20;fill-opacity:1;fill-rule:nonzero;stroke:none;stroke-width:0.1"
       id="path820" />
    <path
       d="m 388.029,415.494 c 0,-0.626 0.502,-1.129 1.127,-1.129 0.623,0 1.126,0.503 1.126,1.129 0,0.623 -0.503,1.123 -1.126,1.123 -0.625,0 -1.127,-0.5 -1.127,-1.123"
       style="fill:#231f20;fill-opacity:1;fill-rule:nonzero;stroke:none;stroke-width:0.1"
       id="path822" />
    <path
       d="m 381.476,404.04 c 0,-0.625 0.502,-1.125 1.126,-1.125 0.623,0 1.126,0.5 1.126,1.125 0,0.624 -0.503,1.126 -1.126,1.126 -0.624,0 -1.126,-0.502 -1.126,-1.126"
       style="fill:#231f20;fill-opacity:1;fill-rule:nonzero;stroke:none;stroke-width:0.1"
       id="path824" />
    <path
       d="m 607.401,586.472 c 0,0 -2.383,-6.091 -3.972,-8.74 -1.589,-2.648 -2.649,-7.15 -5.032,-7.944 -2.384,-0.794 -19.862,1.588 -23.834,1.588 7.149,0.795 25.158,5.034 32.838,15.096"
       style="fill:#706d6e;fill-opacity:1;fill-rule:nonzero;stroke:none;stroke-width:0.1"
       id="path826" />
    <path
       d="m 607.401,586.472 c 0,0 -2.383,-6.091 -3.972,-8.74 -1.589,-2.648 -2.649,-7.15 -5.032,-7.944 -2.384,-0.794 -19.862,1.588 -23.834,1.588 7.149,0.795 25.158,5.034 32.838,15.096 z"
       style="fill:none;stroke:#231f20;stroke-width:0.75;stroke-linecap:round;stroke-linejoin:round;stroke-miterlimit:4;stroke-dasharray:none;stroke-opacity:1"
       id="path828" />
    <path
       d="m 472.603,586.472 c 0,0 2.383,-6.091 3.972,-8.74 1.59,-2.648 2.648,-7.15 5.032,-7.944 2.384,-0.794 19.862,1.588 23.835,1.588 -7.151,0.795 -25.159,5.034 -32.839,15.096"
       style="fill:#706d6e;fill-opacity:1;fill-rule:nonzero;stroke:none;stroke-width:0.1"
       id="path830" />
    <path
       d="m 472.603,586.472 c 0,0 2.383,-6.091 3.972,-8.74 1.59,-2.648 2.648,-7.15 5.032,-7.944 2.384,-0.794 19.862,1.588 23.835,1.588 -7.151,0.795 -25.159,5.034 -32.839,15.096 z"
       style="fill:none;stroke:#231f20;stroke-width:0.75;stroke-linecap:round;stroke-linejoin:round;stroke-miterlimit:4;stroke-dasharray:none;stroke-opacity:1"
       id="path832" />
    <path
       d="m 540.002,567.138 c -3.399,0 -9.663,0.384 -14.685,1.149 2.113,-0.291 8.725,-4.525 10.515,-8.099 1.695,-3.39 1.918,-6.554 4.17,-6.554 2.25,0 2.476,3.164 4.171,6.554 1.787,3.574 8.401,7.808 10.514,8.099 -5.022,-0.765 -11.285,-1.149 -14.685,-1.149"
       style="fill:#706d6e;fill-opacity:1;fill-rule:nonzero;stroke:none;stroke-width:0.1"
       id="path834" />
    <path
       d="m 540.002,567.138 c -3.399,0 -9.663,0.384 -14.685,1.149 2.113,-0.291 8.725,-4.525 10.515,-8.099 1.695,-3.39 1.918,-6.554 4.17,-6.554 2.25,0 2.476,3.164 4.171,6.554 1.787,3.574 8.401,7.808 10.514,8.099 -5.022,-0.765 -11.285,-1.149 -14.685,-1.149 z"
       style="fill:none;stroke:#231f20;stroke-width:0.75;stroke-linecap:round;stroke-linejoin:round;stroke-miterlimit:4;stroke-dasharray:none;stroke-opacity:1"
       id="path836" />
    <path
       d="m 246.969,643.675 c 2.917,-1.98 2.281,-4.537 1.776,-5.843 -0.956,-1.678 -4.888,-2.036 -5.484,1.076 0,0 -5.827,2.914 -10.859,-2.649 -5.031,-5.562 -6.09,-21.716 -1.853,-24.628 4.237,-2.913 10.064,-4.503 10.064,-4.503 3.972,0.597 21.318,6.091 28.27,9.865 6.951,3.773 6.356,7.747 8.342,13.109 1.986,5.363 1.589,15.89 0,18.869 -1.589,2.98 -8.806,15.427 -11.188,18.803 0,0 -6.357,6.092 -10.329,5.826 -3.972,-0.265 -12.447,-3.707 -13.506,-9.268 -1.061,-5.562 -0.266,-6.886 0.264,-10.859 0.531,-3.973 3.974,-9.004 4.503,-9.798 z"
       style="fill:none;stroke:#231f20;stroke-width:0.75;stroke-linecap:round;stroke-linejoin:round;stroke-miterlimit:4;stroke-dasharray:none;stroke-opacity:1"
       id="path838" />
    <path
       d="m 833.034,643.675 c -2.918,-1.98 -2.282,-4.537 -1.776,-5.843 0.955,-1.678 4.888,-2.036 5.484,1.076 0,0 5.827,2.914 10.858,-2.649 5.031,-5.562 6.091,-21.716 1.853,-24.628 -4.236,-2.913 -10.063,-4.503 -10.063,-4.503 -3.972,0.597 -21.319,6.091 -28.27,9.865 -6.952,3.773 -6.356,7.747 -8.341,13.109 -1.987,5.363 -1.591,15.89 0,18.869 1.588,2.98 8.805,15.427 11.187,18.803 0,0 6.357,6.092 10.328,5.826 3.972,-0.265 12.446,-3.707 13.507,-9.268 1.06,-5.562 0.266,-6.886 -0.265,-10.859 -0.53,-3.973 -3.973,-9.004 -4.502,-9.798 z"
       style="fill:none;stroke:#231f20;stroke-width:0.75;stroke-linecap:round;stroke-linejoin:round;stroke-miterlimit:4;stroke-dasharray:none;stroke-opacity:1"
       id="path840" />
    <path
       d="m 803.805,650.828 c 0.762,5.691 3.145,15.224 5.727,20.985 2.582,5.76 8.142,12.115 7.347,16.883 -0.794,4.766 -4.575,20.741 -5.056,22.976 -0.466,2.171 -3.085,1.255 -4.277,0.66 -1.192,-0.596 -8.145,-4.37 -11.919,-6.555 -3.773,-2.185 -8.141,-4.37 -13.109,2.384 -4.965,6.753 -6.156,16.485 -8.738,22.642 -2.581,6.157 -7.546,14.103 -9.138,20.26 -1.589,6.157 -6.951,12.911 -14.696,17.876 -7.747,4.966 -15.89,9.534 -21.453,11.917 -5.561,2.384 -11.717,3.773 -10.724,-0.794 0.993,-4.568 3.178,-11.52 15.493,-29.596 12.313,-18.074 22.642,-34.956 33.766,-52.038 11.121,-17.081 29.394,-42.306 30.983,-44.689 1.588,-2.384 3.378,-4.966 4.769,-4.768"
       style="fill:#d3d2d2;fill-opacity:1;fill-rule:nonzero;stroke:none;stroke-width:0.1"
       id="path842" />
    <path
       d="m 276.199,650.828 c -0.762,5.691 -3.146,15.224 -5.727,20.985 -2.583,5.76 -8.143,12.115 -7.349,16.883 0.795,4.766 4.576,20.741 5.057,22.976 0.467,2.171 3.086,1.255 4.278,0.66 1.192,-0.596 8.143,-4.37 11.918,-6.555 3.773,-2.185 8.143,-4.37 13.109,2.384 4.965,6.753 6.156,16.485 8.739,22.642 2.582,6.157 7.548,14.103 9.137,20.26 1.588,6.157 6.951,12.911 14.697,17.876 7.746,4.966 15.89,9.534 21.451,11.917 5.562,2.384 11.719,3.773 10.727,-0.794 -0.994,-4.568 -3.179,-11.52 -15.493,-29.596 -12.315,-18.074 -22.643,-34.956 -33.766,-52.038 -11.123,-17.081 -29.396,-42.306 -30.985,-44.689 -1.589,-2.384 -3.376,-4.966 -4.767,-4.768"
       style="fill:#d3d2d2;fill-opacity:1;fill-rule:nonzero;stroke:none;stroke-width:0.1"
       id="path844" />
    <path
       d="m 540.002,895.262 c -10.991,0 -44.624,-3.707 -56.276,-4.766 -11.653,-1.06 -42.639,-18.539 -61.706,-36.547 -19.067,-18.008 -27.012,-28.337 -32.838,-41.578 0,0 -0.795,5.562 -3.708,5.296 -2.914,-0.264 -22.124,-11.421 -35.487,-19.862 -15.096,-9.533 -30.456,-19.597 -34.958,-26.483 -4.501,-6.885 -5.561,-8.739 -6.356,-10.064 0,0 2.648,6.092 0,7.946 -2.648,1.854 -8.21,-4.502 -15.095,-12.182 -6.885,-7.68 -9.949,-11.591 -18.802,-16.42 -2.914,-1.589 -10.33,-4.237 -15.361,-14.831 -5.032,-10.593 -8.474,-16.684 -6.885,-29.131 1.589,-12.446 6.621,-19.333 13.507,-28.866 2.382,-3.376 9.599,-15.823 11.188,-18.803 0,0 4.568,-4.966 5.562,-6.952 0.993,-1.985 2.978,-1.787 2.978,-1.787 -3.773,-2.78 -2.78,-6.753 -1.985,-8.144 0.794,-1.39 6.753,-1.588 6.753,-1.588 0,0 -4.966,-1.391 -7.349,-3.576 -2.384,-2.184 -0.199,-5.562 -0.199,-5.562 0,0 -4.171,0.796 -7.349,-1.192 -3.178,-1.986 -2.781,-5.958 -2.781,-5.958 -0.397,0.596 -3.972,2.781 -3.972,2.781 -6.952,-3.774 -24.298,-9.268 -28.27,-9.865 0,0 -11.388,-4.765 -15.096,-16.153 -3.708,-11.388 -1.892,-39.999 28.336,-53.498 28.21,-12.595 34.958,-4.766 34.958,-4.766 0,0 -8.475,-5.033 -7.415,-13.24 1.06,-8.211 2.384,-24.1 3.708,-28.602 0.637,-2.166 2.98,-7.797 5.296,-11.388 2.5,-3.874 5.058,-5.792 7.945,-10.327 5.561,-8.74 9.268,-13.774 11.917,-18.009 2.65,-4.239 3.443,-5.033 8.739,-10.33 5.297,-5.297 23.571,-25.687 31.515,-32.044 7.945,-6.355 9.005,-7.416 13.242,-10.593 4.238,-3.178 10.064,-8.738 13.506,-10.594 3.444,-1.852 3.973,-1.588 16.155,-10.593 12.181,-9.004 21.981,-18.006 54.82,-28.6 32.838,-10.593 43.167,-12.712 54.819,-13.507 11.652,-0.794 23.172,-2.582 29.661,3.445 3.708,3.441 7.283,3.441 7.283,3.441 0,0 3.576,0 7.283,-3.441 6.488,-6.027 18.007,-4.239 29.661,-3.445 11.651,0.795 21.981,2.914 54.819,13.507 32.839,10.594 42.638,19.596 54.819,28.6 12.183,9.005 12.713,8.741 16.155,10.593 3.444,1.856 9.268,7.416 13.507,10.594 4.235,3.177 5.296,4.238 13.24,10.593 7.946,6.357 26.22,26.747 31.516,32.044 5.296,5.297 6.091,6.091 8.741,10.33 2.647,4.235 6.355,9.269 11.916,18.009 2.885,4.535 5.446,6.453 7.946,10.327 2.314,3.591 4.657,9.222 5.294,11.388 1.324,4.502 2.649,20.391 3.708,28.602 1.061,8.207 -7.413,13.24 -7.413,13.24 0,0 6.746,-7.829 34.957,4.766 30.226,13.499 32.044,42.11 28.336,53.498 -3.708,11.388 -15.096,16.153 -15.096,16.153 -3.972,0.597 -21.32,6.091 -28.27,9.865 0,0 -3.575,-2.185 -3.972,-2.781 0,0 0.397,3.972 -2.78,5.958 -3.178,1.988 -7.351,1.192 -7.351,1.192 0,0 2.185,3.378 -0.199,5.562 -2.383,2.185 -7.348,3.576 -7.348,3.576 0,0 5.958,0.198 6.752,1.588 0.795,1.391 1.788,5.364 -1.985,8.144 0,0 1.985,-0.198 2.978,1.787 0.994,1.986 5.564,6.952 5.564,6.952 1.589,2.98 8.804,15.427 11.186,18.803 6.885,9.533 11.918,16.42 13.507,28.866 1.589,12.447 -1.852,18.538 -6.886,29.131 -5.03,10.594 -12.445,13.242 -15.359,14.831 -8.852,4.829 -11.918,8.74 -18.804,16.42 -6.882,7.68 -12.445,14.036 -15.092,12.182 -2.65,-1.854 0,-7.946 0,-7.946 -0.794,1.325 -1.856,3.179 -6.358,10.064 -4.5,6.886 -19.862,16.95 -34.958,26.483 -13.362,8.441 -32.574,19.598 -35.485,19.862 -2.913,0.266 -3.708,-5.296 -3.708,-5.296 -5.827,13.241 -13.771,23.57 -32.841,41.578 -19.067,18.008 -50.05,35.487 -61.704,36.547 -11.652,1.059 -45.285,4.766 -56.276,4.766 z"
       style="fill:none;stroke:#231f20;stroke-width:0.75;stroke-linecap:round;stroke-linejoin:round;stroke-miterlimit:4;stroke-dasharray:none;stroke-opacity:1"
       id="path846" />
    <path
       d="m 700.886,439.226 c -2.394,0.493 -3.915,1.51 -4.881,2.998"
       style="fill:none;stroke:#231f20;stroke-width:0.5;stroke-linecap:butt;stroke-linejoin:miter;stroke-miterlimit:4;stroke-dasharray:none;stroke-opacity:1"
       id="path848" />
    <path
       d="m 379.118,439.226 c 2.405,0.495 3.928,1.52 4.893,3.021"
       style="fill:none;stroke:#231f20;stroke-width:0.5;stroke-linecap:butt;stroke-linejoin:miter;stroke-miterlimit:4;stroke-dasharray:none;stroke-opacity:1"
       id="path850" />
    <path
       d="m 632.824,603.684 c 6.357,0.267 15.889,-3.44 19.597,-3.44 3.708,0 9.269,1.852 12.713,1.852 3.442,0 9.005,-2.647 14.566,-8.208 5.56,-5.563 10.065,-11.918 7.415,-15.889 -2.65,-3.972 -5.827,-3.445 -10.329,-2.384 -4.502,1.058 -14.829,6.885 -21.451,9.533 -6.622,2.649 -18.009,5.827 -21.981,7.415 -3.972,1.589 -7.416,5.033 -6.354,7.944 1.057,2.913 5.824,3.177 5.824,3.177 z"
       style="fill:none;stroke:#231f20;stroke-width:0.5;stroke-linecap:butt;stroke-linejoin:miter;stroke-miterlimit:4;stroke-dasharray:none;stroke-opacity:1"
       id="path852" />
    <path
       d="m 447.179,603.684 c -6.356,0.267 -15.889,-3.44 -19.597,-3.44 -3.708,0 -9.27,1.852 -12.712,1.852 -3.443,0 -9.004,-2.647 -14.566,-8.208 -5.56,-5.563 -10.064,-11.918 -7.416,-15.889 2.65,-3.972 5.827,-3.445 10.329,-2.384 4.502,1.058 14.83,6.885 21.451,9.533 6.622,2.649 18.009,5.827 21.982,7.415 3.973,1.589 7.414,5.033 6.355,7.944 -1.058,2.913 -5.826,3.177 -5.826,3.177 z"
       style="fill:none;stroke:#231f20;stroke-width:0.5;stroke-linecap:butt;stroke-linejoin:miter;stroke-miterlimit:4;stroke-dasharray:none;stroke-opacity:1"
       id="path854" />
    <path
       d="m 452.807,573.099 c 0,-5.763 4.372,-9.139 8.94,-12.713 4.567,-3.574 5.813,-7.294 7.204,-11.665 0.382,-1.204 0.8,-1.679 1.455,-2.721 2.184,-2.78 7.23,-5.476 10.607,-6.866 3.376,-1.39 14.366,-4.04 19.133,-4.834 4.766,-0.795 14.633,-2.516 21.782,-2.516 7.152,0 15.096,0 18.074,0 2.979,0 10.923,0 18.075,0 7.149,0 17.016,1.721 21.783,2.516 4.766,0.794 15.757,3.444 19.133,4.834 3.376,1.39 8.422,4.086 10.606,6.866 0.654,1.042 1.073,1.517 1.456,2.721 1.39,4.371 2.636,8.091 7.203,11.665 4.568,3.574 8.94,6.95 8.94,12.713"
       style="fill:none;stroke:#231f20;stroke-width:0.5;stroke-linecap:butt;stroke-linejoin:miter;stroke-miterlimit:4;stroke-dasharray:none;stroke-opacity:1"
       id="path856" />
    <path
       d="m 747.229,559.254 c -2.149,-1.55 -5.03,-5.422 -3.738,-11.281"
       style="fill:none;stroke:#231f20;stroke-width:0.5;stroke-linecap:round;stroke-linejoin:round;stroke-miterlimit:4;stroke-dasharray:2.8, 1.8;stroke-dashoffset:0;stroke-opacity:1"
       id="path858" />
    <path
       d="m 694.264,589.12 c 0,-3.708 -0.492,-7.025 -6.469,-9.47"
       style="fill:none;stroke:#231f20;stroke-width:0.5;stroke-linecap:round;stroke-linejoin:round;stroke-miterlimit:4;stroke-dasharray:2.8, 1.8;stroke-dashoffset:0;stroke-opacity:1"
       id="path860" />
    <path
       d="m 553.311,518.875 c 3.376,0 6.752,-0.595 7.745,-2.979 0.993,-2.386 0.398,-6.556 -1.986,-7.351 -2.383,-0.794 -4.176,-1.379 -7.549,-1.787 -3.153,-0.384 -5.958,1.192 -6.355,3.576 -0.397,2.382 -0.496,7.747 3.575,8.144 3.563,0.346 4.57,0.397 4.57,0.397 z"
       style="fill:none;stroke:#231f20;stroke-width:0.5;stroke-linecap:round;stroke-linejoin:round;stroke-miterlimit:4;stroke-dasharray:2.8, 1.8;stroke-dashoffset:0;stroke-opacity:1"
       id="path862" />
    <path
       d="m 686.892,571.271 c 3.664,-1.151 12.803,-3.14 16.179,-2.941 3.376,0.199 15.204,-4.37 17.984,-5.957"
       style="fill:none;stroke:#231f20;stroke-width:0.5;stroke-linecap:round;stroke-linejoin:round;stroke-miterlimit:4;stroke-dasharray:2.8, 1.8;stroke-dashoffset:0;stroke-opacity:1"
       id="path864" />
    <path
       d="m 718.648,578.287 c -3.461,0.968 -6.042,-0.819 -5.446,-4.592 0.595,-3.774 6.156,-9.535 8.936,-12.316 2.78,-2.78 7.946,-5.362 11.72,-6.355 3.773,-0.992 8.441,-4.866 9.633,-7.051 0,0 1.33,-2.666 2.084,-4.669"
       style="fill:none;stroke:#231f20;stroke-width:0.5;stroke-linecap:round;stroke-linejoin:round;stroke-miterlimit:4;stroke-dasharray:2.8, 1.8;stroke-dashoffset:0;stroke-opacity:1"
       id="path866" />
    <path
       d="m 623.261,587.427 c 3.937,-1.221 9.895,-4.796 12.675,-5.591 2.78,-0.794 9.932,-4.765 12.116,-6.95 1.225,-1.224 2.139,-2.201 2.738,-3.066 3.179,-1.787 16.727,-6.866 23.083,-8.256 6.357,-1.391 10.329,-1.191 11.52,0.198 1.191,1.391 4.943,7.672 -2.593,11.187"
       style="fill:none;stroke:#231f20;stroke-width:0.5;stroke-linecap:round;stroke-linejoin:round;stroke-miterlimit:4;stroke-dasharray:2.8, 1.8;stroke-dashoffset:0;stroke-opacity:1"
       id="path868" />
    <path
       d="m 648.847,546.879 c 2.519,-2.758 21.053,-15.095 36.944,-2.184"
       style="fill:none;stroke:#231f20;stroke-width:0.5;stroke-linecap:round;stroke-linejoin:round;stroke-miterlimit:4;stroke-dasharray:2.8, 1.8;stroke-dashoffset:0;stroke-opacity:1"
       id="path870" />
    <path
       d="m 696.005,442.224 c -1.758,2.711 -1.675,6.982 -1.675,12.495 0,8.542 2.962,22.281 7.35,29.596 1.787,2.978 1.589,6.752 0.993,9.532 -0.595,2.78 -6.735,38.304 -9.722,45.47"
       style="fill:none;stroke:#231f20;stroke-width:0.5;stroke-linecap:round;stroke-linejoin:round;stroke-miterlimit:4;stroke-dasharray:2.8, 1.8;stroke-dashoffset:0;stroke-opacity:1"
       id="path872" />
    <path
       d="m 693.336,559.989 c 2.983,1.787 30.391,9.337 42.905,-18.074"
       style="fill:none;stroke:#231f20;stroke-width:0.5;stroke-linecap:round;stroke-linejoin:round;stroke-miterlimit:4;stroke-dasharray:2.8, 1.8;stroke-dashoffset:0;stroke-opacity:1"
       id="path874" />
    <path
       d="m 721.502,558.526 c -4.13,-3.303 -6.513,-19.392 -8.5,-29.92 -1.988,-10.525 -8.193,-27.212 -9.956,-37.341"
       style="fill:none;stroke:#231f20;stroke-width:0.5;stroke-linecap:round;stroke-linejoin:round;stroke-miterlimit:4;stroke-dasharray:2.8, 1.8;stroke-dashoffset:0;stroke-opacity:1"
       id="path876" />
    <path
       d="m 759.28,555.223 c -4.568,0.596 -13.507,-3.178 -13.705,-11.919 0,0 2.584,-7.347 5.364,-11.123 2.78,-3.773 7.547,-11.518 10.923,-23.238 3.376,-11.72 7.35,-22.443 10.329,-28.004 2.979,-5.563 5.827,-13.045 9.468,-11.785"
       style="fill:none;stroke:#231f20;stroke-width:0.5;stroke-linecap:round;stroke-linejoin:round;stroke-miterlimit:4;stroke-dasharray:2.8, 1.8;stroke-dashoffset:0;stroke-opacity:1"
       id="path878" />
    <path
       d="m 681.288,418.306 c -3.177,1.589 -17.479,5.03 -19.862,-9.799 0,0 -0.53,7.944 -9.535,6.621 -9.002,-1.324 -8.21,-8.473 -7.149,-11.918 1.061,-3.443 12.288,-20.476 24.206,-9.352"
       style="fill:none;stroke:#231f20;stroke-width:0.5;stroke-linecap:round;stroke-linejoin:round;stroke-miterlimit:4;stroke-dasharray:2.8, 1.8;stroke-dashoffset:0;stroke-opacity:1"
       id="path880" />
    <path
       d="m 680.317,392.353 c 2.646,-1.855 10.506,-4.769 12.358,3.973"
       style="fill:none;stroke:#231f20;stroke-width:0.5;stroke-linecap:round;stroke-linejoin:round;stroke-miterlimit:4;stroke-dasharray:2.8, 1.8;stroke-dashoffset:0;stroke-opacity:1"
       id="path882" />
    <path
       d="m 663.739,373.814 c 5.032,0.794 9.736,1.855 14.505,4.238 4.766,2.383 9.625,7.949 4.171,12.313 -5.463,4.372 -4.304,7.813 -4.568,11.257 -0.266,3.441 -4.073,5.528 -6.622,0.794 -2.718,-5.043 -0.928,-10.362 -6.391,-16.716 -4.643,-5.407 -6.455,-6.258 -11.665,-9.582"
       style="fill:none;stroke:#231f20;stroke-width:0.5;stroke-linecap:round;stroke-linejoin:round;stroke-miterlimit:4;stroke-dasharray:2.8, 1.8;stroke-dashoffset:0;stroke-opacity:1"
       id="path884" />
    <path
       d="m 646.029,412.468 c 1.627,8.684 25.46,18.616 35.259,5.838"
       style="fill:none;stroke:#231f20;stroke-width:0.5;stroke-linecap:round;stroke-linejoin:round;stroke-miterlimit:4;stroke-dasharray:2.8, 1.8;stroke-dashoffset:0;stroke-opacity:1"
       id="path886" />
    <path
       d="m 332.775,559.254 c 2.149,-1.55 5.029,-5.422 3.739,-11.281"
       style="fill:none;stroke:#231f20;stroke-width:0.5;stroke-linecap:round;stroke-linejoin:round;stroke-miterlimit:4;stroke-dasharray:2.8, 1.8;stroke-dashoffset:0;stroke-opacity:1"
       id="path888" />
    <path
       d="m 385.739,589.12 c 0,-3.708 0.494,-7.025 6.471,-9.47"
       style="fill:none;stroke:#231f20;stroke-width:0.5;stroke-linecap:round;stroke-linejoin:round;stroke-miterlimit:4;stroke-dasharray:2.8, 1.8;stroke-dashoffset:0;stroke-opacity:1"
       id="path890" />
    <path
       d="m 526.694,518.875 c -3.376,0 -6.753,-0.595 -7.746,-2.979 -0.993,-2.386 -0.398,-6.556 1.986,-7.351 2.384,-0.794 4.174,-1.379 7.547,-1.787 3.155,-0.384 5.959,1.192 6.357,3.576 0.398,2.382 0.496,7.747 -3.576,8.144 -3.564,0.346 -4.568,0.397 -4.568,0.397 z"
       style="fill:none;stroke:#231f20;stroke-width:0.5;stroke-linecap:round;stroke-linejoin:round;stroke-miterlimit:4;stroke-dasharray:2.8, 1.8;stroke-dashoffset:0;stroke-opacity:1"
       id="path892" />
    <path
       d="m 393.112,571.271 c -3.665,-1.151 -12.802,-3.14 -16.179,-2.941 -3.377,0.199 -15.204,-4.37 -17.985,-5.957"
       style="fill:none;stroke:#231f20;stroke-width:0.5;stroke-linecap:round;stroke-linejoin:round;stroke-miterlimit:4;stroke-dasharray:2.8, 1.8;stroke-dashoffset:0;stroke-opacity:1"
       id="path894" />
    <path
       d="m 361.357,578.287 c 3.46,0.968 6.043,-0.819 5.446,-4.592 -0.595,-3.774 -6.157,-9.535 -8.937,-12.316 -2.782,-2.78 -7.946,-5.362 -11.719,-6.355 -3.774,-0.992 -8.441,-4.866 -9.633,-7.051 0,0 -1.331,-2.666 -2.086,-4.669"
       style="fill:none;stroke:#231f20;stroke-width:0.5;stroke-linecap:round;stroke-linejoin:round;stroke-miterlimit:4;stroke-dasharray:2.8, 1.8;stroke-dashoffset:0;stroke-opacity:1"
       id="path896" />
    <path
       d="m 456.741,587.427 c -3.934,-1.221 -9.893,-4.796 -12.674,-5.591 -2.78,-0.794 -9.931,-4.765 -12.116,-6.95 -1.224,-1.224 -2.137,-2.201 -2.738,-3.066 -3.177,-1.787 -16.726,-6.866 -23.083,-8.256 -6.355,-1.391 -10.328,-1.191 -11.519,0.198 -1.192,1.391 -4.943,7.672 2.594,11.187"
       style="fill:none;stroke:#231f20;stroke-width:0.5;stroke-linecap:round;stroke-linejoin:round;stroke-miterlimit:4;stroke-dasharray:2.8, 1.8;stroke-dashoffset:0;stroke-opacity:1"
       id="path898" />
    <path
       d="m 384.011,442.247 c 1.743,2.709 1.661,6.974 1.661,12.472 0,8.542 -2.96,22.281 -7.348,29.596 -1.788,2.978 -1.589,6.752 -0.993,9.532 0.595,2.78 6.734,38.304 9.722,45.47"
       style="fill:none;stroke:#231f20;stroke-width:0.5;stroke-linecap:round;stroke-linejoin:round;stroke-miterlimit:4;stroke-dasharray:2.8, 1.8;stroke-dashoffset:0;stroke-opacity:1"
       id="path900" />
    <path
       d="m 386.666,559.989 c -2.98,1.787 -30.39,9.337 -42.903,-18.074"
       style="fill:none;stroke:#231f20;stroke-width:0.5;stroke-linecap:round;stroke-linejoin:round;stroke-miterlimit:4;stroke-dasharray:2.8, 1.8;stroke-dashoffset:0;stroke-opacity:1"
       id="path902" />
    <path
       d="m 358.5,558.526 c 4.132,-3.303 6.516,-19.392 8.502,-29.92 1.986,-10.525 8.194,-27.212 9.956,-37.341"
       style="fill:none;stroke:#231f20;stroke-width:0.5;stroke-linecap:round;stroke-linejoin:round;stroke-miterlimit:4;stroke-dasharray:2.8, 1.8;stroke-dashoffset:0;stroke-opacity:1"
       id="path904" />
    <path
       d="m 320.723,555.223 c 4.569,0.596 13.506,-3.178 13.705,-11.919 0,0 -2.582,-7.347 -5.363,-11.123 -2.78,-3.773 -7.548,-11.518 -10.924,-23.238 -3.377,-11.72 -7.349,-22.443 -10.328,-28.004 -2.979,-5.563 -5.827,-13.045 -9.468,-11.785"
       style="fill:none;stroke:#231f20;stroke-width:0.5;stroke-linecap:round;stroke-linejoin:round;stroke-miterlimit:4;stroke-dasharray:2.8, 1.8;stroke-dashoffset:0;stroke-opacity:1"
       id="path906" />
    <path
       d="m 398.715,418.306 c 3.179,1.589 17.48,5.03 19.863,-9.799 0,0 0.53,7.944 9.533,6.621 9.004,-1.324 8.211,-8.473 7.151,-11.918 -1.059,-3.443 -12.288,-20.476 -24.206,-9.352"
       style="fill:none;stroke:#231f20;stroke-width:0.5;stroke-linecap:round;stroke-linejoin:round;stroke-miterlimit:4;stroke-dasharray:2.8, 1.8;stroke-dashoffset:0;stroke-opacity:1"
       id="path908" />
    <path
       d="m 399.688,392.353 c -2.648,-1.855 -10.507,-4.769 -12.36,3.973"
       style="fill:none;stroke:#231f20;stroke-width:0.5;stroke-linecap:round;stroke-linejoin:round;stroke-miterlimit:4;stroke-dasharray:2.8, 1.8;stroke-dashoffset:0;stroke-opacity:1"
       id="path910" />
    <path
       d="m 416.264,373.814 c -5.032,0.794 -9.736,1.855 -14.503,4.238 -4.767,2.383 -9.626,7.949 -4.171,12.313 5.462,4.372 4.304,7.813 4.569,11.257 0.264,3.441 4.071,5.528 6.62,0.794 2.716,-5.043 0.927,-10.362 6.389,-16.716 4.644,-5.407 6.456,-6.258 11.666,-9.582"
       style="fill:none;stroke:#231f20;stroke-width:0.5;stroke-linecap:round;stroke-linejoin:round;stroke-miterlimit:4;stroke-dasharray:2.8, 1.8;stroke-dashoffset:0;stroke-opacity:1"
       id="path912" />
    <path
       d="m 433.976,412.468 c -1.628,8.684 -25.462,18.616 -35.261,5.838"
       style="fill:none;stroke:#231f20;stroke-width:0.5;stroke-linecap:round;stroke-linejoin:round;stroke-miterlimit:4;stroke-dasharray:2.8, 1.8;stroke-dashoffset:0;stroke-opacity:1"
       id="path914" />
    <path
       d="m 611.904,595.477 c 2.383,-0.794 5.56,-2.649 6.618,-4.502"
       style="fill:none;stroke:#231f20;stroke-width:0.5;stroke-linecap:round;stroke-linejoin:round;stroke-miterlimit:4;stroke-dasharray:2.8, 1.8;stroke-dashoffset:0;stroke-opacity:1"
       id="path916" />
    <path
       d="m 579.86,534.3 c -2.914,2.65 -9.005,5.561 -13.243,6.091 -4.237,0.53 -9.269,2.913 -13.505,6.091 -4.238,3.178 -6.888,6.886 -5.032,10.594 1.852,3.708 4.765,10.329 14.3,10.062 9.534,-0.264 14.302,-5.56 14.302,-9.796 0,0 -5.563,-11.918 -14.832,-15.626"
       style="fill:none;stroke:#231f20;stroke-width:0.5;stroke-linecap:round;stroke-linejoin:round;stroke-miterlimit:4;stroke-dasharray:2.8, 1.8;stroke-dashoffset:0;stroke-opacity:1"
       id="path918" />
    <path
       d="m 576.682,557.342 c 2.911,2.383 8.474,2.913 10.327,-0.795 1.855,-3.708 2.119,-14.037 -11.121,-19.334"
       style="fill:none;stroke:#231f20;stroke-width:0.5;stroke-linecap:round;stroke-linejoin:round;stroke-miterlimit:4;stroke-dasharray:2.8, 1.8;stroke-dashoffset:0;stroke-opacity:1"
       id="path920" />
    <path
       d="m 545.43,559.458 c 1.324,0 1.545,-2.119 1.591,-3.971 0.099,-4.138 2.384,-13.771 3.178,-16.155 0.794,-2.382 1.986,-7.216 -0.531,-7.416 -2.244,-0.176 -6.622,-1.057 -6.622,7.153 0,8.208 0.145,20.389 2.384,20.389 z"
       style="fill:none;stroke:#231f20;stroke-width:0.5;stroke-linecap:round;stroke-linejoin:round;stroke-miterlimit:4;stroke-dasharray:2.8, 1.8;stroke-dashoffset:0;stroke-opacity:1"
       id="path922" />
    <path
       d="m 545.365,491.265 c 3.773,0.993 29.967,6.037 56.582,2.661"
       style="fill:none;stroke:#231f20;stroke-width:0.5;stroke-linecap:round;stroke-linejoin:round;stroke-miterlimit:4;stroke-dasharray:2.8, 1.8;stroke-dashoffset:0;stroke-opacity:1"
       id="path924" />
    <path
       d="m 598.993,539.134 c -0.596,-6.357 -0.199,-23.436 3.574,-49.656 3.776,-26.217 20.275,-63.07 37.357,-80.151"
       style="fill:none;stroke:#231f20;stroke-width:0.5;stroke-linecap:round;stroke-linejoin:round;stroke-miterlimit:4;stroke-dasharray:2.8, 1.8;stroke-dashoffset:0;stroke-opacity:1"
       id="path926" />
    <path
       d="m 610.712,498.616 c 0,0 4.766,-15.096 11.122,-25.425 6.357,-10.327 16.485,-20.656 17.676,-19.465 1.192,1.192 -8.673,10.792 -16.741,23.301 -5.857,9.083 -12.057,21.589 -12.057,21.589 z"
       style="fill:none;stroke:#231f20;stroke-width:0.5;stroke-linecap:round;stroke-linejoin:round;stroke-miterlimit:4;stroke-dasharray:2.8, 1.8;stroke-dashoffset:0;stroke-opacity:1"
       id="path928" />
    <path
       d="m 670.034,449.953 c 3.441,-3.444 19.597,13.11 16.684,16.021 -3.773,3.776 -19.533,-13.176 -16.684,-16.021 z"
       style="fill:none;stroke:#231f20;stroke-width:0.5;stroke-linecap:round;stroke-linejoin:round;stroke-miterlimit:4;stroke-dasharray:2.8, 1.8;stroke-dashoffset:0;stroke-opacity:1"
       id="path930" />
    <path
       d="m 670.034,511.658 c -3.284,1.665 -12.713,10.857 -15.89,13.11 -3.178,2.249 -7.547,4.102 -11.919,0.264 -4.369,-3.839 -4.151,-13.959 -1.985,-20.79 1.721,-5.427 5.106,-11.07 6.223,-12.712 2.25,-3.309 4.574,-6.328 6.489,-8.475 1.502,-1.681 8.607,-8.077 15.756,-6.091 7.15,1.986 10.594,4.37 12.049,6.621 1.458,2.253 3.842,7.814 2.386,12.713 -1.458,4.9 -4.238,10.858 -13.109,15.36 z"
       style="fill:none;stroke:#231f20;stroke-width:0.5;stroke-linecap:round;stroke-linejoin:round;stroke-miterlimit:4;stroke-dasharray:2.8, 1.8;stroke-dashoffset:0;stroke-opacity:1"
       id="path932" />
    <path
       d="m 646.463,491.53 c 3.442,0.794 18.01,3.71 23.571,20.128"
       style="fill:none;stroke:#231f20;stroke-width:0.5;stroke-linecap:round;stroke-linejoin:round;stroke-miterlimit:4;stroke-dasharray:2.8, 1.8;stroke-dashoffset:0;stroke-opacity:1"
       id="path934" />
    <path
       d="m 640.24,504.242 c -3.044,0 -10.196,-3.575 -11.519,-6.752 -1.325,-3.178 -2.641,-16.6 5.031,-20.259 5.827,-2.783 15.492,-2.78 19.2,5.824"
       style="fill:none;stroke:#231f20;stroke-width:0.5;stroke-linecap:round;stroke-linejoin:round;stroke-miterlimit:4;stroke-dasharray:2.8, 1.8;stroke-dashoffset:0;stroke-opacity:1"
       id="path936" />
    <path
       d="m 599.787,366.531 c 6.292,-1.51 14.102,-6.157 15.889,-7.348 1.788,-1.191 3.576,-2.185 5.958,0.596 2.386,2.78 8.146,13.505 3.379,19.663 0,0 -2.386,2.979 -11.322,4.369 -8.939,1.391 -16.486,1.589 -24.032,-1.985 -7.55,-3.576 -14.898,-9.735 -13.309,-12.713 1.589,-2.979 7.348,-2.185 10.724,-1.787 3.379,0.397 7.748,0.397 12.713,-0.795 z"
       style="fill:none;stroke:#231f20;stroke-width:0.5;stroke-linecap:round;stroke-linejoin:round;stroke-miterlimit:4;stroke-dasharray:2.8, 1.8;stroke-dashoffset:0;stroke-opacity:1"
       id="path938" />
    <path
       d="m 646.597,389.173 c -3.181,-1.058 -0.794,-10.591 2.647,-9.532 3.441,1.058 0.531,10.593 -2.647,9.532 z"
       style="fill:none;stroke:#231f20;stroke-width:0.5;stroke-linecap:round;stroke-linejoin:round;stroke-miterlimit:4;stroke-dasharray:2.8, 1.8;stroke-dashoffset:0;stroke-opacity:1"
       id="path940" />
    <path
       d="m 623.299,362.2 c 3.434,2.876 11.908,4.992 18.265,6.581 6.355,1.592 13.243,4.503 16.948,5.563 3.708,1.059 5.564,0.264 6.622,-3.178 1.059,-3.443 -0.53,-6.09 -7.152,-9.268 -6.618,-3.18 -12.182,-3.975 -18.801,-4.238 -6.621,-0.264 -18.142,-3.178 -17.547,2.119"
       style="fill:none;stroke:#231f20;stroke-width:0.5;stroke-linecap:round;stroke-linejoin:round;stroke-miterlimit:4;stroke-dasharray:2.8, 1.8;stroke-dashoffset:0;stroke-opacity:1"
       id="path942" />
    <path
       d="m 644.432,409.587 c -6.709,0.245 -17.83,-2.736 -25.776,-11.276 -7.944,-8.542 -3.151,-14.135 0.69,-15.809 3.845,-1.67 15.001,-6.237 15.001,-6.237 0,0 9.069,21.714 10.395,26.945"
       style="fill:none;stroke:#231f20;stroke-width:0.5;stroke-linecap:round;stroke-linejoin:round;stroke-miterlimit:4;stroke-dasharray:2.8, 1.8;stroke-dashoffset:0;stroke-opacity:1"
       id="path944" />
    <path
       d="m 640.365,391.094 c 2.922,2.054 9.758,3.093 12.713,1.42 2.951,-1.671 6.604,-3.042 5.699,-7.908 -0.903,-4.867 -4.767,-7.745 -7.745,-10.327 -2.98,-2.584 -7.15,-3.975 -9.334,0 -2.188,3.971 -4.601,8.632 -3.406,11.611 1.191,2.976 2.073,5.204 2.073,5.204 z"
       style="fill:none;stroke:#231f20;stroke-width:0.5;stroke-linecap:round;stroke-linejoin:round;stroke-miterlimit:4;stroke-dasharray:2.8, 1.8;stroke-dashoffset:0;stroke-opacity:1"
       id="path946" />
    <path
       d="m 468.1,595.477 c -2.383,-0.794 -5.56,-2.649 -6.62,-4.502"
       style="fill:none;stroke:#231f20;stroke-width:0.5;stroke-linecap:round;stroke-linejoin:round;stroke-miterlimit:4;stroke-dasharray:2.8, 1.8;stroke-dashoffset:0;stroke-opacity:1"
       id="path948" />
    <path
       d="m 500.145,534.3 c 2.913,2.65 9.005,5.561 13.241,6.091 4.238,0.53 9.269,2.913 13.507,6.091 4.237,3.178 6.885,6.886 5.032,10.594 -1.855,3.708 -4.767,10.329 -14.301,10.062 -9.535,-0.264 -14.301,-5.56 -14.301,-9.796 0,0 5.562,-11.918 14.831,-15.626"
       style="fill:none;stroke:#231f20;stroke-width:0.5;stroke-linecap:round;stroke-linejoin:round;stroke-miterlimit:4;stroke-dasharray:2.8, 1.8;stroke-dashoffset:0;stroke-opacity:1"
       id="path950" />
    <path
       d="m 503.323,557.342 c -2.913,2.383 -8.476,2.913 -10.328,-0.795 -1.854,-3.708 -2.119,-14.037 11.123,-19.334"
       style="fill:none;stroke:#231f20;stroke-width:0.5;stroke-linecap:round;stroke-linejoin:round;stroke-miterlimit:4;stroke-dasharray:2.8, 1.8;stroke-dashoffset:0;stroke-opacity:1"
       id="path952" />
    <path
       d="m 534.572,559.458 c -1.323,0 -1.544,-2.119 -1.589,-3.971 -0.098,-4.138 -2.383,-13.771 -3.177,-16.155 -0.795,-2.382 -1.986,-7.216 0.53,-7.416 2.244,-0.176 6.619,-1.057 6.619,7.153 0,8.208 -0.141,20.389 -2.383,20.389 z"
       style="fill:none;stroke:#231f20;stroke-width:0.5;stroke-linecap:round;stroke-linejoin:round;stroke-miterlimit:4;stroke-dasharray:2.8, 1.8;stroke-dashoffset:0;stroke-opacity:1"
       id="path954" />
    <path
       d="m 534.638,491.265 c -3.772,0.993 -29.967,6.037 -56.583,2.661"
       style="fill:none;stroke:#231f20;stroke-width:0.5;stroke-linecap:round;stroke-linejoin:round;stroke-miterlimit:4;stroke-dasharray:2.8, 1.8;stroke-dashoffset:0;stroke-opacity:1"
       id="path956" />
    <path
       d="m 481.01,539.134 c 0.597,-6.357 0.2,-23.436 -3.574,-49.656 -3.773,-26.217 -20.275,-63.07 -37.356,-80.151"
       style="fill:none;stroke:#231f20;stroke-width:0.5;stroke-linecap:round;stroke-linejoin:round;stroke-miterlimit:4;stroke-dasharray:2.8, 1.8;stroke-dashoffset:0;stroke-opacity:1"
       id="path958" />
    <path
       d="m 469.292,498.616 c 0,0 -4.766,-15.096 -11.123,-25.425 -6.355,-10.327 -16.485,-20.656 -17.677,-19.465 -1.192,1.192 8.674,10.792 16.742,23.301 5.859,9.083 12.058,21.589 12.058,21.589 z"
       style="fill:none;stroke:#231f20;stroke-width:0.5;stroke-linecap:round;stroke-linejoin:round;stroke-miterlimit:4;stroke-dasharray:2.8, 1.8;stroke-dashoffset:0;stroke-opacity:1"
       id="path960" />
    <path
       d="m 409.97,449.953 c -3.442,-3.444 -19.597,13.11 -16.683,16.021 3.773,3.776 19.53,-13.176 16.683,-16.021 z"
       style="fill:none;stroke:#231f20;stroke-width:0.5;stroke-linecap:round;stroke-linejoin:round;stroke-miterlimit:4;stroke-dasharray:2.8, 1.8;stroke-dashoffset:0;stroke-opacity:1"
       id="path962" />
    <path
       d="m 409.97,511.658 c 3.283,1.665 12.712,10.857 15.89,13.11 3.179,2.249 7.548,4.102 11.918,0.264 4.369,-3.839 4.151,-13.959 1.985,-20.79 -1.721,-5.427 -5.105,-11.07 -6.222,-12.712 -2.251,-3.309 -4.575,-6.328 -6.49,-8.475 -1.5,-1.681 -8.606,-8.077 -15.756,-6.091 -7.151,1.986 -10.594,4.37 -12.05,6.621 -1.456,2.253 -3.841,7.814 -2.384,12.713 1.458,4.9 4.237,10.858 13.109,15.36 z"
       style="fill:none;stroke:#231f20;stroke-width:0.5;stroke-linecap:round;stroke-linejoin:round;stroke-miterlimit:4;stroke-dasharray:2.8, 1.8;stroke-dashoffset:0;stroke-opacity:1"
       id="path964" />
    <path
       d="m 433.541,491.53 c -3.443,0.794 -18.009,3.71 -23.571,20.128"
       style="fill:none;stroke:#231f20;stroke-width:0.5;stroke-linecap:round;stroke-linejoin:round;stroke-miterlimit:4;stroke-dasharray:2.8, 1.8;stroke-dashoffset:0;stroke-opacity:1"
       id="path966" />
    <path
       d="m 439.763,504.242 c 3.047,0 10.197,-3.575 11.521,-6.752 1.324,-3.178 2.64,-16.6 -5.032,-20.259 -5.826,-2.783 -15.493,-2.78 -19.201,5.824"
       style="fill:none;stroke:#231f20;stroke-width:0.5;stroke-linecap:round;stroke-linejoin:round;stroke-miterlimit:4;stroke-dasharray:2.8, 1.8;stroke-dashoffset:0;stroke-opacity:1"
       id="path968" />
    <path
       d="m 533.447,426.242 c 0.397,4.173 0.795,23.314 0.795,29.271 0,5.958 0.396,12.713 5.76,12.713 5.363,0 5.759,-6.755 5.759,-12.713 0,-5.957 0.398,-25.098 0.795,-29.271"
       style="fill:none;stroke:#231f20;stroke-width:0.5;stroke-linecap:round;stroke-linejoin:round;stroke-miterlimit:4;stroke-dasharray:2.8, 1.8;stroke-dashoffset:0;stroke-opacity:1"
       id="path970" />
    <path
       d="m 489.071,382.394 c 21.649,43.298 48.151,44.917 50.931,44.917 2.781,0 29.281,-1.619 50.93,-44.917"
       style="fill:none;stroke:#231f20;stroke-width:0.5;stroke-linecap:round;stroke-linejoin:round;stroke-miterlimit:4;stroke-dasharray:2.8, 1.8;stroke-dashoffset:0;stroke-opacity:1"
       id="path972" />
    <path
       d="m 514.578,387.269 c -1.192,20.458 18.273,26.535 25.424,26.535 7.15,0 26.615,-6.077 25.423,-26.535"
       style="fill:none;stroke:#231f20;stroke-width:0.5;stroke-linecap:round;stroke-linejoin:round;stroke-miterlimit:4;stroke-dasharray:2.8, 1.8;stroke-dashoffset:0;stroke-opacity:1"
       id="path974" />
    <path
       d="m 540.002,366.531 c -5.364,0 -3.177,22.444 0,23.834 3.178,-1.39 5.363,-23.834 0,-23.834 z"
       style="fill:none;stroke:#231f20;stroke-width:0.5;stroke-linecap:round;stroke-linejoin:round;stroke-miterlimit:4;stroke-dasharray:2.8, 1.8;stroke-dashoffset:0;stroke-opacity:1"
       id="path976" />
    <path
       d="m 480.216,366.531 c -6.29,-1.51 -14.101,-6.157 -15.889,-7.348 -1.788,-1.191 -3.576,-2.185 -5.959,0.596 -2.383,2.78 -8.144,13.505 -3.376,19.663 0,0 2.383,2.979 11.321,4.369 8.937,1.391 16.485,1.589 24.033,-1.985 7.548,-3.576 14.897,-9.735 13.308,-12.713 -1.589,-2.979 -7.349,-2.185 -10.726,-1.787 -3.377,0.397 -7.746,0.397 -12.712,-0.795 z"
       style="fill:none;stroke:#231f20;stroke-width:0.5;stroke-linecap:round;stroke-linejoin:round;stroke-miterlimit:4;stroke-dasharray:2.8, 1.8;stroke-dashoffset:0;stroke-opacity:1"
       id="path978" />
    <path
       d="m 433.408,389.173 c 3.177,-1.058 0.795,-10.591 -2.649,-9.532 -3.442,1.058 -0.529,10.593 2.649,9.532 z"
       style="fill:none;stroke:#231f20;stroke-width:0.5;stroke-linecap:round;stroke-linejoin:round;stroke-miterlimit:4;stroke-dasharray:2.8, 1.8;stroke-dashoffset:0;stroke-opacity:1"
       id="path980" />
    <path
       d="m 456.703,362.2 c -3.433,2.876 -11.908,4.992 -18.263,6.581 -6.356,1.592 -13.242,4.503 -16.949,5.563 -3.708,1.059 -5.562,0.264 -6.621,-3.178 -1.059,-3.443 0.53,-6.09 7.15,-9.268 6.621,-3.18 12.183,-3.975 18.803,-4.238 6.621,-0.264 18.14,-3.178 17.545,2.119"
       style="fill:none;stroke:#231f20;stroke-width:0.5;stroke-linecap:round;stroke-linejoin:round;stroke-miterlimit:4;stroke-dasharray:2.8, 1.8;stroke-dashoffset:0;stroke-opacity:1"
       id="path982" />
    <path
       d="m 435.574,409.587 c 6.706,0.245 17.829,-2.736 25.773,-11.276 7.945,-8.542 3.153,-14.135 -0.691,-15.809 -3.843,-1.67 -15,-6.237 -15,-6.237 0,0 -9.07,21.714 -10.394,26.945"
       style="fill:none;stroke:#231f20;stroke-width:0.5;stroke-linecap:round;stroke-linejoin:round;stroke-miterlimit:4;stroke-dasharray:2.8, 1.8;stroke-dashoffset:0;stroke-opacity:1"
       id="path984" />
    <path
       d="m 439.638,391.094 c -2.92,2.054 -9.759,3.093 -12.712,1.42 -2.952,-1.671 -6.604,-3.042 -5.7,-7.908 0.903,-4.867 4.767,-7.745 7.746,-10.327 2.979,-2.584 7.151,-3.975 9.335,0 2.185,3.971 4.6,8.632 3.406,11.611 -1.193,2.976 -2.075,5.204 -2.075,5.204 z"
       style="fill:none;stroke:#231f20;stroke-width:0.5;stroke-linecap:round;stroke-linejoin:round;stroke-miterlimit:4;stroke-dasharray:2.8, 1.8;stroke-dashoffset:0;stroke-opacity:1"
       id="path986" />
    <path
       d="m 649.233,560.528 c 0.931,1.156 1.761,1.591 3.056,2.108 2.649,1.061 8.674,0.729 13.639,-1.456 4.965,-2.184 12.911,-4.965 19.663,-3.574"
       style="fill:none;stroke:#231f20;stroke-width:0.5;stroke-linecap:round;stroke-linejoin:round;stroke-miterlimit:4;stroke-dasharray:2.8, 1.8;stroke-dashoffset:0;stroke-opacity:1"
       id="path988" />
    <path
       d="m 627.198,573.099 c 0,5.759 -1.856,15.691 -8.676,17.876 -6.022,-6.755 -5.824,-10.131 -7.611,-14.103 -1.787,-3.972 -4.369,-9.138 -4.767,-14.103 -0.396,-4.965 0.199,-13.507 0.596,-15.096 0.289,-1.15 1.619,-2.615 2.859,-1.673"
       style="fill:none;stroke:#231f20;stroke-width:0.5;stroke-linecap:round;stroke-linejoin:round;stroke-miterlimit:4;stroke-dasharray:2.8, 1.8;stroke-dashoffset:0;stroke-opacity:1"
       id="path990" />
    <path
       d="m 452.807,573.099 c 0,5.759 1.856,15.691 8.676,17.876 6.022,-6.755 5.824,-10.131 7.611,-14.103 1.788,-3.972 4.369,-9.138 4.767,-14.103 0.397,-4.965 -0.198,-13.507 -0.596,-15.096 -0.288,-1.15 -1.619,-2.615 -2.859,-1.673"
       style="fill:none;stroke:#231f20;stroke-width:0.5;stroke-linecap:round;stroke-linejoin:round;stroke-miterlimit:4;stroke-dasharray:2.8, 1.8;stroke-dashoffset:0;stroke-opacity:1"
       id="path992" />
    <path
       d="m 630.971,559.989 c -1.787,1.986 -2.807,7.69 -3.887,15.664"
       style="fill:none;stroke:#231f20;stroke-width:0.5;stroke-linecap:round;stroke-linejoin:round;stroke-miterlimit:4;stroke-dasharray:2.8, 1.8;stroke-dashoffset:0;stroke-opacity:1"
       id="path994" />
    <path
       d="m 650.79,571.82 c 0.47,-0.677 0.751,-1.289 0.837,-1.899 0.199,-1.392 0.596,-5.365 -1.588,-6.755"
       style="fill:none;stroke:#231f20;stroke-width:0.5;stroke-linecap:round;stroke-linejoin:round;stroke-miterlimit:4;stroke-dasharray:2.8, 1.8;stroke-dashoffset:0;stroke-opacity:1"
       id="path996" />
    <path
       d="m 431.156,546.879 c -2.52,-2.758 -21.054,-15.095 -36.944,-2.184"
       style="fill:none;stroke:#231f20;stroke-width:0.5;stroke-linecap:round;stroke-linejoin:round;stroke-miterlimit:4;stroke-dasharray:2.8, 1.8;stroke-dashoffset:0;stroke-opacity:1"
       id="path998" />
    <path
       d="m 430.769,560.528 c -0.931,1.156 -1.76,1.591 -3.055,2.108 -2.65,1.061 -8.675,0.729 -13.64,-1.456 -4.965,-2.184 -12.911,-4.965 -19.663,-3.574"
       style="fill:none;stroke:#231f20;stroke-width:0.5;stroke-linecap:round;stroke-linejoin:round;stroke-miterlimit:4;stroke-dasharray:2.8, 1.8;stroke-dashoffset:0;stroke-opacity:1"
       id="path1000" />
    <path
       d="m 449.032,559.989 c 1.787,1.986 2.806,7.69 3.886,15.664"
       style="fill:none;stroke:#231f20;stroke-width:0.5;stroke-linecap:round;stroke-linejoin:round;stroke-miterlimit:4;stroke-dasharray:2.8, 1.8;stroke-dashoffset:0;stroke-opacity:1"
       id="path1002" />
    <path
       d="m 429.213,571.82 c -0.47,-0.677 -0.751,-1.289 -0.837,-1.899 -0.2,-1.392 -0.596,-5.365 1.588,-6.755"
       style="fill:none;stroke:#231f20;stroke-width:0.5;stroke-linecap:round;stroke-linejoin:round;stroke-miterlimit:4;stroke-dasharray:2.8, 1.8;stroke-dashoffset:0;stroke-opacity:1"
       id="path1004" />
    <path
       d="m 830.523,625.589 c 2.445,1.137 10.193,1.535 11.98,-2.24 1.788,-3.774 0.759,-7.781 -1.191,-9.732 -2.383,-2.383 -4.337,-3.721 -9.021,-4.641"
       style="fill:none;stroke:#231f20;stroke-width:0.75;stroke-linecap:round;stroke-linejoin:round;stroke-miterlimit:4;stroke-dasharray:0, 2;stroke-dashoffset:0;stroke-opacity:1"
       id="path1006" />
    <path
       d="m 807.149,614.212 c -4.383,1.19 -6.932,1.301 -11.918,-2.78 -3.504,-2.869 -5.164,-5.759 -8.341,-9.932 -3.178,-4.17 -5.563,-7.745 -6.755,-11.717 -1.192,-3.974 1.588,-7.947 5.762,-5.563 4.17,2.386 16.088,9.535 23.437,12.514 7.347,2.978 17.28,1.589 21.45,0.198 4.171,-1.39 10.926,-4.766 12.513,-12.911 1.589,-8.142 -0.396,-23.437 -17.676,-31.38 -17.281,-7.946 -26.813,-7.821 -36.745,-2.783 -4.568,2.318 -7.615,4.834 -12.117,10.528 -3.637,4.601 -5.531,9.223 -7.547,6.355"
       style="fill:none;stroke:#231f20;stroke-width:0.75;stroke-linecap:round;stroke-linejoin:round;stroke-miterlimit:4;stroke-dasharray:0, 2;stroke-dashoffset:0;stroke-opacity:1"
       id="path1008" />
    <path
       d="m 803.805,650.828 c 0.762,5.691 3.145,15.224 5.727,20.985 2.582,5.76 8.142,12.115 7.347,16.883 -0.794,4.766 -4.575,20.741 -5.056,22.976 -0.466,2.171 -3.085,1.255 -4.277,0.66 -1.192,-0.596 -8.145,-4.37 -11.919,-6.555 -3.773,-2.185 -8.141,-4.37 -13.109,2.384 -4.965,6.753 -6.156,16.485 -8.738,22.642 -2.581,6.157 -7.546,14.103 -9.138,20.26 -1.589,6.157 -6.951,12.911 -14.696,17.876 -7.747,4.966 -15.89,9.534 -21.453,11.917 -5.561,2.384 -11.717,3.773 -10.724,-0.794 0.993,-4.568 3.178,-11.52 15.493,-29.596 12.313,-18.074 22.642,-34.956 33.766,-52.038 11.121,-17.081 29.394,-42.306 30.983,-44.689 1.588,-2.384 3.378,-4.966 4.769,-4.768"
       style="fill:none;stroke:#231f20;stroke-width:0.75;stroke-linecap:round;stroke-linejoin:round;stroke-miterlimit:4;stroke-dasharray:0, 2;stroke-dashoffset:0;stroke-opacity:1"
       id="path1010" />
    <path
       d="m 594.855,723.239 c 2.91,-0.083 8.109,-1.075 7.486,-6.489 -0.693,-6.006 -6.907,-5.158 -8.569,-5.074 -1.662,0.083 -6.899,1.519 -6.404,6.655 0.501,5.222 7.487,4.908 7.487,4.908"
       style="fill:#ffffff;fill-opacity:1;fill-rule:nonzero;stroke:none;stroke-width:0.1"
       id="path1012" />
    <path
       d="m 594.855,723.239 c 2.91,-0.083 8.109,-1.075 7.486,-6.489 -0.693,-6.006 -6.907,-5.158 -8.569,-5.074 -1.662,0.083 -6.899,1.519 -6.404,6.655 0.501,5.222 7.487,4.908 7.487,4.908 z"
       style="fill:none;stroke:#231f20;stroke-width:0.75;stroke-linecap:round;stroke-linejoin:round;stroke-miterlimit:4;stroke-dasharray:0, 2;stroke-dashoffset:0;stroke-opacity:1"
       id="path1014" />
    <path
       d="m 249.482,625.589 c -2.447,1.137 -10.193,1.535 -11.982,-2.24 -1.787,-3.774 -0.758,-7.781 1.193,-9.732 2.383,-2.383 4.335,-3.721 9.019,-4.641"
       style="fill:none;stroke:#231f20;stroke-width:0.75;stroke-linecap:round;stroke-linejoin:round;stroke-miterlimit:4;stroke-dasharray:0, 2;stroke-dashoffset:0;stroke-opacity:1"
       id="path1016" />
    <path
       d="m 272.855,614.212 c 4.384,1.19 6.931,1.301 11.918,-2.78 3.505,-2.869 5.164,-5.759 8.342,-9.932 3.177,-4.17 5.561,-7.745 6.754,-11.717 1.191,-3.974 -1.59,-7.947 -5.761,-5.563 -4.171,2.386 -16.088,9.535 -23.438,12.514 -7.349,2.978 -17.28,1.589 -21.451,0.198 -4.171,-1.39 -10.924,-4.766 -12.513,-12.911 -1.588,-8.142 0.397,-23.437 17.677,-31.38 17.281,-7.946 26.812,-7.821 36.745,-2.783 4.569,2.318 7.614,4.834 12.117,10.528 3.637,4.601 5.53,9.223 7.547,6.355"
       style="fill:none;stroke:#231f20;stroke-width:0.75;stroke-linecap:round;stroke-linejoin:round;stroke-miterlimit:4;stroke-dasharray:0, 2;stroke-dashoffset:0;stroke-opacity:1"
       id="path1018" />
    <path
       d="m 276.199,650.828 c -0.762,5.691 -3.146,15.224 -5.727,20.985 -2.583,5.76 -8.143,12.115 -7.349,16.883 0.795,4.766 4.576,20.741 5.057,22.976 0.467,2.171 3.086,1.255 4.278,0.66 1.192,-0.596 8.143,-4.37 11.918,-6.555 3.773,-2.185 8.143,-4.37 13.109,2.384 4.965,6.753 6.156,16.485 8.739,22.642 2.582,6.157 7.548,14.103 9.137,20.26 1.588,6.157 6.951,12.911 14.697,17.876 7.746,4.966 15.89,9.534 21.451,11.917 5.562,2.384 11.719,3.773 10.727,-0.794 -0.994,-4.568 -3.179,-11.52 -15.493,-29.596 -12.315,-18.074 -22.643,-34.956 -33.766,-52.038 -11.123,-17.081 -29.396,-42.306 -30.985,-44.689 -1.589,-2.384 -3.376,-4.966 -4.767,-4.768"
       style="fill:none;stroke:#231f20;stroke-width:0.75;stroke-linecap:round;stroke-linejoin:round;stroke-miterlimit:4;stroke-dasharray:0, 2;stroke-dashoffset:0;stroke-opacity:1"
       id="path1020" />
    <path
       d="m 540.002,821.773 c -5.364,0 -37.937,0.596 -56.806,-1.192 -18.869,-1.788 -31.978,-10.924 -38.93,-19.863 -6.951,-8.937 -15.492,-31.183 -24.629,-45.087 -9.137,-13.904 -21.65,-26.417 -26.417,-22.642 -4.766,3.773 4.966,21.649 8.74,29.395 3.773,7.746 19.664,34.957 22.841,40.121 3.178,5.164 13.308,25.226 28.602,34.561 15.294,9.335 43.299,15.891 56.805,17.082 13.506,1.191 22.246,-0.596 29.794,-0.596 7.547,0 16.288,1.787 29.792,0.596 13.507,-1.191 41.514,-7.747 56.808,-17.082 15.294,-9.335 25.422,-29.397 28.6,-34.561 3.177,-5.164 19.067,-32.375 22.843,-40.121 3.774,-7.746 13.504,-25.622 8.739,-29.395 -4.767,-3.775 -17.281,8.738 -26.416,22.642 -9.138,13.904 -17.677,36.15 -24.631,45.087 -6.95,8.939 -20.061,18.075 -38.929,19.863 -18.869,1.788 -51.443,1.192 -56.806,1.192 z"
       style="fill:none;stroke:#231f20;stroke-width:0.75;stroke-linecap:round;stroke-linejoin:round;stroke-miterlimit:4;stroke-dasharray:0, 2;stroke-dashoffset:0;stroke-opacity:1"
       id="path1022" />
    <path
       d="m 540.002,761.789 c -5.164,0 -24.629,1.191 -40.122,-1.589 -15.493,-2.782 -27.41,-8.144 -45.485,-20.062 -18.074,-11.917 -27.211,-26.416 -33.765,-39.525 -6.554,-13.11 -12.513,-27.807 -20.657,-38.532 -8.143,-10.726 -16.883,-21.65 -30.588,-30.39 -13.705,-8.739 -19.265,-10.329 -29.793,-10.925 -10.527,-0.596 -13.904,3.377 -15.095,6.556 -1.192,3.178 0,7.547 4.767,10.725 4.767,3.178 14.697,9.733 22.444,14.698 7.747,4.965 15.89,11.123 22.246,17.082 6.356,5.959 17.876,19.862 28.006,35.552 10.129,15.692 20.656,34.759 35.355,50.65 14.697,15.888 34.56,27.608 57.6,33.368 23.04,5.761 38.334,3.377 45.087,3.377 6.752,0 22.047,2.384 45.086,-3.377 23.042,-5.76 42.904,-17.48 57.603,-33.368 14.695,-15.891 25.224,-34.958 35.354,-50.65 10.128,-15.69 21.65,-29.593 28.004,-35.552 6.358,-5.959 14.5,-12.117 22.245,-17.082 7.748,-4.965 17.678,-11.52 22.447,-14.698 4.765,-3.178 5.958,-7.547 4.765,-10.725 -1.191,-3.179 -4.567,-7.152 -15.094,-6.556 -10.526,0.596 -16.089,2.186 -29.795,10.925 -13.702,8.74 -22.444,19.664 -30.586,30.39 -8.145,10.725 -14.103,25.422 -20.657,38.532 -6.555,13.109 -15.691,27.608 -33.765,39.525 -18.074,11.918 -29.992,17.28 -45.485,20.062 -15.494,2.78 -34.958,1.589 -40.122,1.589 z"
       style="fill:none;stroke:#231f20;stroke-width:0.75;stroke-linecap:round;stroke-linejoin:round;stroke-miterlimit:4;stroke-dasharray:0, 2;stroke-dashoffset:0;stroke-opacity:1"
       id="path1024" />
    <path
       d="m 540.002,648.375 c -17.28,0 -24.034,-1.192 -33.964,-1.788 -9.932,-0.595 -24.431,2.782 -34.958,4.768 -10.527,1.986 -21.253,-0.993 -28.403,-3.377 -7.15,-2.383 -14.102,-2.978 -21.451,-2.78 -7.35,0.198 -10.726,4.568 -8.343,10.13 2.384,5.56 7.152,8.937 11.123,10.526 3.973,1.589 11.123,9.335 15.89,11.52 4.767,2.185 17.082,4.965 21.849,6.157 4.766,1.192 12.712,4.966 23.635,4.966 10.925,0 20.26,-1.788 28.404,-5.76 8.143,-3.973 21.452,-3.973 26.218,-3.973 4.767,0 18.075,0 26.217,3.973 8.146,3.972 17.479,5.76 28.405,5.76 10.921,0 18.869,-3.774 23.634,-4.966 4.767,-1.192 17.082,-3.972 21.848,-6.157 4.77,-2.185 11.918,-9.931 15.891,-11.52 3.974,-1.589 8.74,-4.966 11.123,-10.526 2.383,-5.562 -0.993,-9.932 -8.343,-10.13 -7.349,-0.198 -14.299,0.397 -21.451,2.78 -7.15,2.384 -17.876,5.363 -28.402,3.377 -10.527,-1.986 -25.027,-5.363 -34.957,-4.768 -9.932,0.596 -16.684,1.788 -33.965,1.788 z"
       style="fill:none;stroke:#231f20;stroke-width:0.75;stroke-linecap:round;stroke-linejoin:round;stroke-miterlimit:4;stroke-dasharray:0, 2;stroke-dashoffset:0;stroke-opacity:1"
       id="path1026" />
    <path
       d="m 485.151,723.239 c -2.912,-0.083 -8.112,-1.075 -7.487,-6.489 0.692,-6.006 6.904,-5.158 8.568,-5.074 1.663,0.083 6.899,1.519 6.404,6.655 -0.502,5.222 -7.485,4.908 -7.485,4.908"
       style="fill:#ffffff;fill-opacity:1;fill-rule:nonzero;stroke:none;stroke-width:0.1"
       id="path1028" />
    <path
       d="m 485.151,723.239 c -2.912,-0.083 -8.112,-1.075 -7.487,-6.489 0.692,-6.006 6.904,-5.158 8.568,-5.074 1.663,0.083 6.899,1.519 6.404,6.655 -0.502,5.222 -7.485,4.908 -7.485,4.908 z"
       style="fill:none;stroke:#231f20;stroke-width:0.75;stroke-linecap:round;stroke-linejoin:round;stroke-miterlimit:4;stroke-dasharray:0, 2;stroke-dashoffset:0;stroke-opacity:1"
       id="path1030" />
    <path
       d="m 351.086,597.879 c 3.609,0.054 7.971,2.429 12.142,4.217 4.172,1.787 20.656,12.316 28.602,16.684 7.945,4.371 19.266,9.733 33.567,9.931 14.301,0.2 28.006,-7.349 34.759,-11.519 6.753,-4.171 8.739,-3.178 11.123,-1.192 2.384,1.986 5.76,3.575 10.725,4.766 4.966,1.192 18.472,0.398 28.8,0 10.328,-0.397 22.643,-0.596 29.198,-0.596 6.554,0 18.87,0.199 29.196,0.596 10.33,0.398 23.837,1.192 28.802,0 4.964,-1.191 8.343,-2.78 10.726,-4.766 2.383,-1.986 4.369,-2.979 11.121,1.192 6.755,4.17 20.458,11.719 34.759,11.519 14.302,-0.198 25.624,-5.56 33.567,-9.931 7.947,-4.368 24.433,-14.897 28.603,-16.684 4.171,-1.788 8.531,-4.163 12.142,-4.217"
       style="fill:none;stroke:#231f20;stroke-width:0.75;stroke-linecap:round;stroke-linejoin:round;stroke-miterlimit:4;stroke-dasharray:0, 2;stroke-dashoffset:0;stroke-opacity:1"
       id="path1032" />
    <path
       d="m 540.002,579.056 c -2.004,0 -12.098,0.085 -22.113,2.119 -11.164,2.27 -22.246,6.563 -22.246,7.681 0,2.116 9.799,2.119 14.035,2.119 4.238,0 23.041,0.53 30.324,0.53 7.283,0 26.086,-0.53 30.323,-0.53 4.238,0 14.037,-0.003 14.037,-2.119 0,-1.118 -11.083,-5.411 -22.248,-7.681 -10.017,-2.034 -20.11,-2.119 -22.112,-2.119"
       style="fill:#d3d2d2;fill-opacity:1;fill-rule:nonzero;stroke:none;stroke-width:0.1"
       id="path1034" />
    <path
       d="m 540.002,579.056 c -2.004,0 -12.098,0.085 -22.113,2.119 -11.164,2.27 -22.246,6.563 -22.246,7.681 0,2.116 9.799,2.119 14.035,2.119 4.238,0 23.041,0.53 30.324,0.53 7.283,0 26.086,-0.53 30.323,-0.53 4.238,0 14.037,-0.003 14.037,-2.119 0,-1.118 -11.083,-5.411 -22.248,-7.681 -10.017,-2.034 -20.11,-2.119 -22.112,-2.119 z"
       style="fill:none;stroke:#231f20;stroke-width:0.75;stroke-linecap:round;stroke-linejoin:round;stroke-miterlimit:4;stroke-dasharray:0, 2;stroke-dashoffset:0;stroke-opacity:1"
       id="path1036" />
    <path
       d="m 285.765,640.232 c 1.325,-4.502 5.165,-5.363 7.945,-5.363 2.782,0 10.925,0.199 23.239,10.924 12.315,10.726 16.684,21.849 21.253,31.382 4.568,9.534 17.28,39.923 22.642,51.046 5.364,11.123 12.316,22.047 14.898,28.403 2.582,6.356 16.485,40.122 22.444,50.251 5.958,10.13 16.485,28.602 31.382,41.314 14.896,12.712 33.766,24.033 55.614,28.204 21.848,4.171 48.265,4.966 54.82,4.966 6.554,0 32.972,-0.795 54.82,-4.966 21.847,-4.171 40.717,-15.492 55.614,-28.204 14.896,-12.712 25.422,-31.184 31.383,-41.314 5.957,-10.129 19.861,-43.895 22.443,-50.251 2.582,-6.356 9.535,-17.28 14.897,-28.403 5.362,-11.123 18.075,-41.512 22.642,-51.046 4.568,-9.533 8.94,-20.656 21.252,-31.382 12.316,-10.725 20.46,-10.924 23.241,-10.924 2.78,0 6.619,0.861 7.944,5.363"
       style="fill:none;stroke:#231f20;stroke-width:0.75;stroke-linecap:round;stroke-linejoin:round;stroke-miterlimit:4;stroke-dasharray:0, 2;stroke-dashoffset:0;stroke-opacity:1"
       id="path1038" />
  </g>
</svg>
