<?xml version="1.0" encoding="UTF-8" standalone="no"?>
<!-- Created with Inkscape (http://www.inkscape.org/) -->

<svg
   version="1.1"
   id="svg2"
   width="1440"
   height="1344"
   viewBox="0 0 1440 1344"
   xmlns="http://www.w3.org/2000/svg"
   xmlns:svg="http://www.w3.org/2000/svg">
  <defs
     id="defs6" />
  <g
     id="g8">
    <path
       d="m 543.806,342.582 c 0.278,-2.328 -1.407,-4.481 -3.804,-4.481 -2.398,0 -4.084,2.153 -3.804,4.481 0.242,2.028 1.934,3.492 3.804,3.492 1.869,0 3.559,-1.464 3.804,-3.492"
       style="fill:#ffffff;fill-opacity:1;fill-rule:nonzero;stroke:none;stroke-width:0.1"
       id="path668" />
    <path
       d="m 543.806,342.582 c 0.278,-2.328 -1.407,-4.481 -3.804,-4.481 -2.398,0 -4.084,2.153 -3.804,4.481 0.242,2.028 1.934,3.492 3.804,3.492 1.869,0 3.559,-1.464 3.804,-3.492 z"
       style="fill:none;stroke:#231f20;stroke-width:0.5;stroke-linecap:round;stroke-linejoin:round;stroke-miterlimit:4;stroke-dasharray:none;stroke-opacity:1"
       id="path670" />
    <path
       d="m 692.94,899.235 c 10.725,7.548 31.604,7.711 55.218,-1.986 22.245,-9.137 38.924,-19.98 50.052,-28.999 12.281,-9.955 25.974,-22.945 30.577,-28.359 5.327,-6.264 10.215,-10.214 19.5,-23.214 6.927,-9.698 17.361,-27.085 17.056,-44.163 -0.397,-22.246 5.959,-33.368 7.549,-40.122 1.589,-6.753 4.766,-38.532 -0.397,-60.381 -5.165,-21.847 -13.11,-40.518 -30.588,-40.518 -17.48,0 -22.643,14.3 -26.616,34.958 -3.973,20.656 -26.218,57.202 -49.655,66.736 -23.439,9.534 -34.957,13.903 -24.631,20.656 0,0 -11.121,0 -18.272,5.959 -7.149,5.959 -54.423,57.203 -63.558,70.312 -9.137,13.109 -15.265,22.44 -7.549,28.999 7.946,6.753 19.067,16.287 23.834,22.643 4.768,6.356 13.022,14.342 17.48,17.479"
       style="fill:#ffffff;fill-opacity:1;fill-rule:nonzero;stroke:none;stroke-width:0.1"
       id="path672" />
    <path
       d="m 692.94,899.235 c 10.725,7.548 31.604,7.711 55.218,-1.986 22.245,-9.137 38.924,-19.98 50.052,-28.999 12.281,-9.955 25.974,-22.945 30.577,-28.359 5.327,-6.264 10.215,-10.214 19.5,-23.214 6.927,-9.698 17.361,-27.085 17.056,-44.163 -0.397,-22.246 5.959,-33.368 7.549,-40.122 1.589,-6.753 4.766,-38.532 -0.397,-60.381 -5.165,-21.847 -13.11,-40.518 -30.588,-40.518 -17.48,0 -22.643,14.3 -26.616,34.958 -3.973,20.656 -26.218,57.202 -49.655,66.736 -23.439,9.534 -34.957,13.903 -24.631,20.656 0,0 -11.121,0 -18.272,5.959 -7.149,5.959 -54.423,57.203 -63.558,70.312 -9.137,13.109 -15.265,22.44 -7.549,28.999 7.946,6.753 19.067,16.287 23.834,22.643 4.768,6.356 13.022,14.342 17.48,17.479 z"
       style="fill:none;stroke:#231f20;stroke-width:0.75;stroke-linecap:round;stroke-linejoin:round;stroke-miterlimit:4;stroke-dasharray:none;stroke-opacity:1"
       id="path674" />
    <path
       d="m 387.063,899.235 c -10.726,7.548 -31.605,7.711 -55.218,-1.986 -22.245,-9.137 -38.926,-19.98 -50.052,-28.999 -12.282,-9.955 -25.975,-22.945 -30.578,-28.359 -5.326,-6.264 -10.215,-10.214 -19.5,-23.214 -6.927,-9.698 -17.36,-27.085 -17.055,-44.163 0.397,-22.246 -5.959,-33.368 -7.549,-40.122 -1.589,-6.753 -4.767,-38.532 0.396,-60.381 5.165,-21.847 13.111,-40.518 30.589,-40.518 17.479,0 22.642,14.3 26.615,34.958 3.974,20.656 26.218,57.202 49.655,66.736 23.439,9.534 34.958,13.903 24.631,20.656 0,0 11.121,0 18.273,5.959 7.149,5.959 54.422,57.203 63.558,70.312 9.137,13.109 15.265,22.44 7.548,28.999 -7.946,6.753 -19.067,16.287 -23.834,22.643 -4.768,6.356 -13.022,14.342 -17.479,17.479"
       style="fill:#ffffff;fill-opacity:1;fill-rule:nonzero;stroke:none;stroke-width:0.1"
       id="path676" />
    <path
       d="m 387.063,899.235 c -10.726,7.548 -31.605,7.711 -55.218,-1.986 -22.245,-9.137 -38.926,-19.98 -50.052,-28.999 -12.282,-9.955 -25.975,-22.945 -30.578,-28.359 -5.326,-6.264 -10.215,-10.214 -19.5,-23.214 -6.927,-9.698 -17.36,-27.085 -17.055,-44.163 0.397,-22.246 -5.959,-33.368 -7.549,-40.122 -1.589,-6.753 -4.767,-38.532 0.396,-60.381 5.165,-21.847 13.111,-40.518 30.589,-40.518 17.479,0 22.642,14.3 26.615,34.958 3.974,20.656 26.218,57.202 49.655,66.736 23.439,9.534 34.958,13.903 24.631,20.656 0,0 11.121,0 18.273,5.959 7.149,5.959 54.422,57.203 63.558,70.312 9.137,13.109 15.265,22.44 7.548,28.999 -7.946,6.753 -19.067,16.287 -23.834,22.643 -4.768,6.356 -13.022,14.342 -17.479,17.479 z"
       style="fill:none;stroke:#231f20;stroke-width:0.75;stroke-linecap:round;stroke-linejoin:round;stroke-miterlimit:4;stroke-dasharray:none;stroke-opacity:1"
       id="path678" />
    <path
       d="m 540.002,346.074 c -1.192,0 -2.384,-0.398 -4.569,-3.974 -2.183,-3.574 -21.253,-4.568 -32.772,-2.78 -11.522,1.787 -33.766,6.356 -47.274,10.725 -13.505,4.37 -19.067,6.158 -28.202,14.103 -9.138,7.943 -22.445,17.478 -30.39,23.436 -7.945,5.959 -29.795,19.863 -37.54,26.816 -7.746,6.95 -27.41,24.032 -37.339,39.525 -9.933,15.493 -11.72,30.19 -11.72,30.19 -6.156,0.397 -13.978,20.337 -15.096,33.765 -0.709,8.52 0.398,15.293 0.398,15.293 -8.938,15.891 -32.375,23.44 -38.533,30.987 -3.195,3.917 -5.958,6.157 -11.321,22.048 -7.412,21.962 10.328,33.368 23.041,36.148 19.715,4.312 23.039,-4.369 23.039,-4.369 -1.191,8.738 6.357,6.355 6.357,6.355 -1.988,1.986 -11.123,10.726 -11.917,20.26 -0.795,9.533 6.752,34.957 15.492,46.874 8.738,11.918 30.189,29.794 44.093,44.094 13.904,14.301 34.163,37.739 41.711,46.876 7.547,9.136 21.055,27.409 23.835,25.423 4.396,-3.141 -2.383,-22.246 -2.383,-22.246 23.834,44.491 63.955,30.19 63.955,30.19 -5.561,2.781 -17.876,9.534 -17.876,12.315 0,2.781 6.755,10.329 6.755,10.329 0,0 -7.153,2.78 -7.153,9.136 0,6.356 13.11,25.027 30.192,32.574 17.081,7.547 45.682,5.561 55.217,5.561 9.533,0 38.134,1.986 55.215,-5.561 17.082,-7.547 30.192,-26.218 30.192,-32.574 0,-6.356 -7.152,-9.136 -7.152,-9.136 0,0 6.755,-7.548 6.755,-10.329 0,-2.781 -12.315,-9.534 -17.876,-12.315 0,0 40.121,14.301 63.954,-30.19 0,0 -6.779,19.105 -2.382,22.246 2.78,1.986 16.287,-16.287 23.834,-25.423 7.548,-9.137 27.807,-32.575 41.711,-46.876 13.905,-14.3 35.355,-32.176 44.093,-44.094 8.741,-11.917 16.287,-37.341 15.493,-46.874 -0.795,-9.534 -9.929,-18.274 -11.917,-20.26 0,0 7.548,2.383 6.357,-6.355 0,0 3.324,8.681 23.039,4.369 12.713,-2.78 30.452,-14.186 23.041,-36.148 -5.363,-15.891 -8.126,-18.131 -11.321,-22.048 -6.159,-7.547 -29.596,-15.096 -38.533,-30.987 0,0 1.106,-6.773 0.398,-15.293 -1.118,-13.428 -8.94,-33.368 -15.096,-33.765 0,0 -1.788,-14.697 -11.72,-30.19 -9.929,-15.493 -29.594,-32.575 -37.34,-39.525 -7.745,-6.953 -29.595,-20.857 -37.539,-26.816 -7.946,-5.958 -21.252,-15.493 -30.39,-23.436 -9.136,-7.945 -14.697,-9.733 -28.203,-14.103 -13.507,-4.369 -35.752,-8.938 -47.273,-10.725 -11.52,-1.788 -30.589,-0.794 -32.773,2.78 -2.185,3.576 -3.376,3.974 -4.567,3.974"
       style="fill:#ffffff;fill-opacity:1;fill-rule:nonzero;stroke:none;stroke-width:0.1"
       id="path680" />
    <path
       d="m 540.002,346.074 c -1.192,0 -2.384,-0.398 -4.569,-3.974 -2.183,-3.574 -21.253,-4.568 -32.772,-2.78 -11.522,1.787 -33.766,6.356 -47.274,10.725 -13.505,4.37 -19.067,6.158 -28.202,14.103 -9.138,7.943 -22.445,17.478 -30.39,23.436 -7.945,5.959 -29.795,19.863 -37.54,26.816 -7.746,6.95 -27.41,24.032 -37.339,39.525 -9.933,15.493 -11.72,30.19 -11.72,30.19 -6.156,0.397 -13.978,20.337 -15.096,33.765 -0.709,8.52 0.398,15.293 0.398,15.293 -8.938,15.891 -32.375,23.44 -38.533,30.987 -3.195,3.917 -5.958,6.157 -11.321,22.048 -7.412,21.962 10.328,33.368 23.041,36.148 19.715,4.312 23.039,-4.369 23.039,-4.369 -1.191,8.738 6.357,6.355 6.357,6.355 -1.988,1.986 -11.123,10.726 -11.917,20.26 -0.795,9.533 6.752,34.957 15.492,46.874 8.738,11.918 30.189,29.794 44.093,44.094 13.904,14.301 34.163,37.739 41.711,46.876 7.547,9.136 21.055,27.409 23.835,25.423 4.396,-3.141 -2.383,-22.246 -2.383,-22.246 23.834,44.491 63.955,30.19 63.955,30.19 -5.561,2.781 -17.876,9.534 -17.876,12.315 0,2.781 6.755,10.329 6.755,10.329 0,0 -7.153,2.78 -7.153,9.136 0,6.356 13.11,25.027 30.192,32.574 17.081,7.547 45.682,5.561 55.217,5.561 9.533,0 38.134,1.986 55.215,-5.561 17.082,-7.547 30.192,-26.218 30.192,-32.574 0,-6.356 -7.152,-9.136 -7.152,-9.136 0,0 6.755,-7.548 6.755,-10.329 0,-2.781 -12.315,-9.534 -17.876,-12.315 0,0 40.121,14.301 63.954,-30.19 0,0 -6.779,19.105 -2.382,22.246 2.78,1.986 16.287,-16.287 23.834,-25.423 7.548,-9.137 27.807,-32.575 41.711,-46.876 13.905,-14.3 35.355,-32.176 44.093,-44.094 8.741,-11.917 16.287,-37.341 15.493,-46.874 -0.795,-9.534 -9.929,-18.274 -11.917,-20.26 0,0 7.548,2.383 6.357,-6.355 0,0 3.324,8.681 23.039,4.369 12.713,-2.78 30.452,-14.186 23.041,-36.148 -5.363,-15.891 -8.126,-18.131 -11.321,-22.048 -6.159,-7.547 -29.596,-15.096 -38.533,-30.987 0,0 1.106,-6.773 0.398,-15.293 -1.118,-13.428 -8.94,-33.368 -15.096,-33.765 0,0 -1.788,-14.697 -11.72,-30.19 -9.929,-15.493 -29.594,-32.575 -37.34,-39.525 -7.745,-6.953 -29.595,-20.857 -37.539,-26.816 -7.946,-5.958 -21.252,-15.493 -30.39,-23.436 -9.136,-7.945 -14.697,-9.733 -28.203,-14.103 -13.507,-4.369 -35.752,-8.938 -47.273,-10.725 -11.52,-1.788 -30.589,-0.794 -32.773,2.78 -2.185,3.576 -3.376,3.974 -4.567,3.974 z"
       style="fill:none;stroke:#231f20;stroke-width:0.75;stroke-linecap:round;stroke-linejoin:round;stroke-miterlimit:4;stroke-dasharray:none;stroke-opacity:1"
       id="path682" />
    <path
       d="m 299.868,578.262 c -6.326,0.638 -16.287,2.383 -18.075,3.973 -1.788,1.589 2.186,5.099 5.165,4.369 2.728,-0.668 9.334,-1.787 14.897,-2.383 5.561,-0.596 5.325,6.129 4.834,8.143 l -0.001,0.008 c 0.921,-3.711 1.916,-7.449 2.713,-9.938 1.589,-4.968 4.965,-12.117 4.767,-15.892 -0.055,-1.031 -0.08,-2.358 -0.09,-3.771 -1.987,15.359 -10.273,15.094 -14.21,15.491"
       style="fill:#b2b1b1;fill-opacity:1;fill-rule:nonzero;stroke:none;stroke-width:0.1"
       id="path684" />
    <path
       d="m 265.109,602.097 c 4.172,6.951 9.732,8.738 15.492,7.943 5.761,-0.793 5.959,-8.539 12.513,-14.498 6.554,-5.958 10.33,0.199 9.734,4.569 -0.596,4.369 -3.973,12.114 -6.358,16.286 -2.383,4.172 1.789,2.185 2.98,1.59 1.192,-0.597 3.723,-7.549 4.319,-11.521 l 0.025,-0.12 c 0.126,-1.368 0.322,-2.804 0.622,-4.249 0.495,-2.378 1.336,-6.036 2.252,-9.725 l 0.001,-0.008 c 0.491,-2.014 0.727,-8.739 -4.834,-8.143 -5.563,0.596 -12.169,1.715 -14.897,2.383 -2.979,0.73 -6.953,-2.78 -5.165,-4.369 1.788,-1.59 11.749,-3.335 18.075,-3.973 3.937,-0.397 12.223,-0.132 14.21,-15.491 v -0.002 c -1.787,3.773 -5.074,3.972 -10.038,3.178 -4.517,-0.721 -8.542,-7.944 -13.507,-7.944 -3.376,0 -7.747,3.177 -15.493,11.321 -7.746,8.142 -13.109,16.684 -13.307,18.671 -0.199,1.985 -0.796,7.149 3.376,14.102"
       style="fill:#d3d2d2;fill-opacity:1;fill-rule:nonzero;stroke:none;stroke-width:0.1"
       id="path686" />
    <path
       d="m 671.09,785.623 c 2.783,-6.621 16.553,-38.665 17.876,-49.788 1.326,-11.123 -3.441,-35.487 -6.354,-45.816 -1.295,-4.589 -0.131,-9.44 2.072,-13.926 2.756,-5.607 7.138,-10.644 10.375,-13.881 5.825,-5.825 23.039,-19.067 37.869,-27.012 14.832,-7.945 36.283,-16.685 48.994,-10.858"
       style="fill:none;stroke:#231f20;stroke-width:0.75;stroke-linecap:round;stroke-linejoin:round;stroke-miterlimit:4;stroke-dasharray:none;stroke-opacity:1"
       id="path688" />
    <path
       d="m 620.196,713.384 c 7.331,-8.005 39.376,-46.405 62.416,-23.365"
       style="fill:none;stroke:#231f20;stroke-width:0.75;stroke-linecap:round;stroke-linejoin:round;stroke-miterlimit:4;stroke-dasharray:none;stroke-opacity:1"
       id="path690" />
    <path
       d="m 684.684,676.093 c -2.271,6.525 -28.025,5.982 -10.811,-15.999 0,0 -33.104,19.068 -38.931,20.127 2.3,6.901 -6.274,22.194 -14.746,33.163 -4.21,5.451 -8.395,9.835 -11.207,11.593"
       style="fill:none;stroke:#231f20;stroke-width:0.75;stroke-linecap:round;stroke-linejoin:round;stroke-miterlimit:4;stroke-dasharray:none;stroke-opacity:1"
       id="path692" />
    <path
       d="m 607.136,815.813 c -6.886,-2.912 -19.333,-10.328 -24.631,-14.3 -5.297,-3.972 -11.121,-10.593 -11.916,-12.447 -0.795,-1.854 -2.119,-4.768 0.53,-6.886 2.648,-2.118 7.678,-11.387 10.591,-18.538 2.914,-7.15 10.861,-24.1 13.507,-26.483 2.649,-2.383 12.183,-9.798 13.772,-12.182"
       style="fill:none;stroke:#231f20;stroke-width:0.75;stroke-linecap:round;stroke-linejoin:round;stroke-miterlimit:4;stroke-dasharray:none;stroke-opacity:1"
       id="path694" />
    <path
       d="m 592.383,741.327 c 0.849,-1.44 -0.071,-4.119 -1.668,-4.168"
       style="fill:none;stroke:#231f20;stroke-width:0.75;stroke-linecap:round;stroke-linejoin:round;stroke-miterlimit:4;stroke-dasharray:none;stroke-opacity:1"
       id="path696" />
    <path
       d="m 788.279,617.987 c -1.788,-3.179 -5.761,-11.719 -7.35,-17.479"
       style="fill:none;stroke:#231f20;stroke-width:0.5;stroke-linecap:butt;stroke-linejoin:miter;stroke-miterlimit:4;stroke-dasharray:none;stroke-opacity:1"
       id="path698" />
    <path
       d="m 804.566,628.116 c 0,-2.084 -1.69,-3.774 -3.774,-3.774 -2.084,0 -3.774,1.69 -3.774,3.774 0,2.085 1.69,3.774 3.774,3.774 2.084,0 3.774,-1.689 3.774,-3.774"
       style="fill:#ffffff;fill-opacity:1;fill-rule:nonzero;stroke:none;stroke-width:0.1"
       id="path700" />
    <path
       d="m 804.566,628.116 c 0,-2.084 -1.69,-3.774 -3.774,-3.774 -2.084,0 -3.774,1.69 -3.774,3.774 0,2.085 1.69,3.774 3.774,3.774 2.084,0 3.774,-1.689 3.774,-3.774 z"
       style="fill:none;stroke:#231f20;stroke-width:0.5;stroke-linecap:round;stroke-linejoin:round;stroke-miterlimit:4;stroke-dasharray:none;stroke-opacity:1"
       id="path702" />
    <path
       d="m 780.135,578.262 c 6.326,0.638 16.287,2.383 18.075,3.973 1.787,1.589 -2.186,5.099 -5.166,4.369 -2.728,-0.668 -9.334,-1.787 -14.896,-2.383 -5.561,-0.596 -5.325,6.129 -4.835,8.143 l 0.002,0.008 c -0.921,-3.711 -1.917,-7.449 -2.714,-9.938 -1.589,-4.968 -4.965,-12.117 -4.767,-15.892 0.055,-1.031 0.08,-2.358 0.09,-3.771 1.987,15.359 10.273,15.094 14.211,15.491"
       style="fill:#b2b1b1;fill-opacity:1;fill-rule:nonzero;stroke:none;stroke-width:0.1"
       id="path704" />
    <path
       d="m 814.894,602.097 c -4.172,6.951 -9.732,8.738 -15.493,7.943 -5.761,-0.793 -5.959,-8.539 -12.513,-14.498 -6.554,-5.958 -10.329,0.199 -9.733,4.569 0.595,4.369 3.972,12.114 6.357,16.286 2.383,4.172 -1.789,2.185 -2.98,1.59 -1.192,-0.597 -3.723,-7.549 -4.319,-11.521 l -0.024,-0.12 c -0.127,-1.368 -0.322,-2.804 -0.623,-4.249 -0.495,-2.378 -1.336,-6.036 -2.251,-9.725 l -0.002,-0.008 c -0.49,-2.014 -0.726,-8.739 4.835,-8.143 5.562,0.596 12.168,1.715 14.896,2.383 2.98,0.73 6.953,-2.78 5.166,-4.369 -1.788,-1.59 -11.749,-3.335 -18.075,-3.973 -3.938,-0.397 -12.224,-0.132 -14.211,-15.491 v -0.002 c 1.788,3.773 5.075,3.972 10.039,3.178 4.516,-0.721 8.542,-7.944 13.507,-7.944 3.376,0 7.746,3.177 15.492,11.321 7.746,8.142 13.109,16.684 13.308,18.671 0.198,1.985 0.796,7.149 -3.376,14.102"
       style="fill:#d3d2d2;fill-opacity:1;fill-rule:nonzero;stroke:none;stroke-width:0.1"
       id="path706" />
    <path
       d="m 761.572,542.48 c -0.108,-5.229 1.481,-11.491 4.064,-14.272"
       style="fill:none;stroke:#231f20;stroke-width:0.5;stroke-linecap:butt;stroke-linejoin:miter;stroke-miterlimit:4;stroke-dasharray:none;stroke-opacity:1"
       id="path708" />
    <path
       d="m 540.002,606.069 c -5.76,0 -13.707,1.589 -23.437,7.349 -9.734,5.761 -17.678,6.953 -26.22,7.945 -8.539,0.993 -13.506,2.78 -20.259,4.965 -6.752,2.184 -13.904,4.369 -20.458,4.767 -6.554,0.398 -22.245,2.582 -25.423,3.178 -3.179,0.596 -6.158,-0.398 -8.342,-1.39 -2.185,-0.993 -11.123,-5.76 -14.699,-7.349 -3.575,-1.589 -14.101,-8.144 -18.273,-11.718 -4.171,-3.576 -6.931,-8.532 -8.091,-10.849 -1.589,-3.177 -13.468,-12.608 -37.699,-5.062 -2.162,2.024 -3.408,3.237 -6.249,4.788 -4.369,2.383 -10.128,4.567 -14.3,6.951 -4.172,2.383 -10.13,5.959 -11.519,6.555 -0.478,0.205 -0.785,0.269 -0.987,0.177 l -0.004,0.014 c -0.155,0.288 -0.307,0.568 -0.461,0.842 -0.937,3.223 10.174,-4.28 22.043,-4.808 8.24,-0.365 24.097,6.885 32.044,15.361 7.943,8.475 22.244,18.273 28.335,20.657 6.091,2.384 7.416,-5.297 9.004,-8.21 1.589,-2.913 3.973,-1.854 6.092,-0.795 2.119,1.06 4.766,0.53 7.151,-0.265 2.382,-0.794 5.831,-2.117 8.472,1.589 2.645,3.707 7.416,10.065 10.329,14.036 2.913,3.973 15.096,11.388 24.629,13.771 9.534,2.384 25.425,2.119 33.899,2.119 8.474,0 44.756,-4.236 54.423,-4.236 9.664,0 45.948,4.236 54.421,4.236 8.475,0 24.365,0.265 33.9,-2.119 9.532,-2.383 21.716,-9.798 24.628,-13.771 2.914,-3.971 7.685,-10.329 10.329,-14.036 2.641,-3.706 6.09,-2.383 8.473,-1.589 2.384,0.795 5.032,1.325 7.151,0.265 2.119,-1.059 4.502,-2.118 6.091,0.795 1.589,2.913 2.914,10.594 9.005,8.21 6.09,-2.384 20.391,-12.182 28.335,-20.657 7.947,-8.476 23.804,-15.726 32.044,-15.361 11.868,0.528 22.98,8.031 22.042,4.808 -0.153,-0.274 -0.305,-0.554 -0.461,-0.842 l -0.003,-0.014 c -0.202,0.092 -0.509,0.028 -0.987,-0.177 -1.39,-0.596 -7.347,-4.172 -11.519,-6.555 -4.172,-2.384 -9.931,-4.568 -14.3,-6.951 -2.842,-1.551 -4.088,-2.764 -6.249,-4.788 -24.232,-7.546 -36.111,1.885 -37.7,5.062 -1.158,2.317 -3.92,7.273 -8.09,10.849 -4.172,3.574 -14.699,10.129 -18.274,11.718 -3.576,1.589 -12.513,6.356 -14.698,7.349 -2.184,0.992 -5.164,1.986 -8.343,1.39 -3.178,-0.596 -18.868,-2.78 -25.423,-3.178 -6.553,-0.398 -13.706,-2.583 -20.458,-4.767 -6.753,-2.185 -11.719,-3.972 -20.259,-4.965 -8.542,-0.992 -16.486,-2.184 -26.219,-7.945 -9.731,-5.76 -17.678,-7.349 -23.436,-7.349"
       style="fill:#d3d2d2;fill-opacity:1;fill-rule:nonzero;stroke:none;stroke-width:0.1"
       id="path710" />
    <path
       d="m 784.323,624.63 c -2.747,0.06 -5.384,-2.684 -8.363,-8.24"
       style="fill:none;stroke:#231f20;stroke-width:0.5;stroke-linecap:butt;stroke-linejoin:miter;stroke-miterlimit:4;stroke-dasharray:none;stroke-opacity:1"
       id="path712" />
    <path
       d="m 623.757,616.33 c 5.093,0.596 22.308,-1.523 33.165,-3.375 10.858,-1.853 20.393,-5.032 27.542,-9.799 7.152,-4.767 21.981,-16.948 13.244,-25.424"
       style="fill:none;stroke:#231f20;stroke-width:0.5;stroke-linecap:butt;stroke-linejoin:miter;stroke-miterlimit:4;stroke-dasharray:none;stroke-opacity:1"
       id="path714" />
    <path
       d="m 618.788,602.891 c -1.175,-2.057 4.767,-9.004 9.798,-11.918 5.032,-2.913 26.484,-16.419 34.164,-19.067 7.679,-2.649 16.154,-5.032 17.478,-1.06 1.325,3.974 -4.238,8.21 -7.415,12.184 -3.178,3.971 -13.241,12.446 -17.214,11.386 -3.973,-1.059 -11.388,2.12 -17.478,5.032 -6.093,2.913 -10.86,4.238 -12.183,4.502 -1.323,0.265 -6.09,0.795 -7.15,-1.059 z"
       style="fill:none;stroke:#231f20;stroke-width:0.5;stroke-linecap:butt;stroke-linejoin:miter;stroke-miterlimit:4;stroke-dasharray:none;stroke-opacity:1"
       id="path716" />
    <path
       d="m 753.011,534.366 c 2.693,0.728 5.077,-4.832 6.401,-9.334 1.324,-4.503 4.285,-31.046 -4.456,-52.498 -8.738,-21.452 -21.763,-44.959 -54.602,-51.845 0,0 -13.506,7.681 -3.441,20.656 0,0 8.209,1.854 17.743,11.653 9.533,9.798 12.976,12.711 17.215,34.427 4.235,21.716 6.627,35.748 12.978,41.842"
       style="fill:none;stroke:#231f20;stroke-width:0.5;stroke-linecap:butt;stroke-linejoin:miter;stroke-miterlimit:4;stroke-dasharray:none;stroke-opacity:1"
       id="path718" />
    <path
       d="m 680.493,522.913 c 1.589,1.855 10.242,4.262 12.976,-1.853 4.502,-10.066 4.825,-44.202 5.296,-48.728 0.473,-4.529 1.044,-21.443 -1.589,-25.955 -1.852,-3.178 -0.263,-5.032 -0.263,-5.032"
       style="fill:none;stroke:#231f20;stroke-width:0.5;stroke-linecap:butt;stroke-linejoin:miter;stroke-miterlimit:4;stroke-dasharray:none;stroke-opacity:1"
       id="path720" />
    <path
       d="m 581.904,398.474 c 2.911,7.413 11.709,29.63 66.528,36.78"
       style="fill:none;stroke:#231f20;stroke-width:0.25;stroke-linecap:butt;stroke-linejoin:miter;stroke-miterlimit:4;stroke-dasharray:none;stroke-opacity:1"
       id="path722" />
    <path
       d="m 603.173,344.374 c 3.432,2.162 12.172,8.254 11.113,11.166 -1.059,2.915 -3.178,9.536 -3.178,9.536 0,0 -5.297,3.971 -13.507,6.883 -8.209,2.913 -19.862,4.768 -34.428,-0.793 -14.619,-5.582 -23.171,-15.092 -23.171,-25.092"
       style="fill:none;stroke:#231f20;stroke-width:0.5;stroke-linecap:butt;stroke-linejoin:miter;stroke-miterlimit:4;stroke-dasharray:none;stroke-opacity:1"
       id="path724" />
    <path
       d="m 562.114,409.566 c 4.631,-2.173 21.452,-11.123 23.304,-14.036 1.855,-2.912 0,-3.972 -5.56,-5.563 -5.562,-1.589 -28.603,-8.473 -31.515,-9.532 -2.913,-1.059 -5.825,-0.53 -6.356,3.972 -0.529,4.503 -0.264,17.214 -0.264,21.716 0,4.503 -0.794,9.534 3.707,8.739 4.502,-0.794 12.074,-3.134 16.684,-5.296 z"
       style="fill:none;stroke:#231f20;stroke-width:0.5;stroke-linecap:butt;stroke-linejoin:miter;stroke-miterlimit:4;stroke-dasharray:none;stroke-opacity:1"
       id="path726" />
    <path
       d="m 541.665,392.884 c 5.088,1.586 30.062,5.448 38.762,6.562"
       style="fill:none;stroke:#231f20;stroke-width:0.5;stroke-linecap:butt;stroke-linejoin:miter;stroke-miterlimit:4;stroke-dasharray:none;stroke-opacity:1"
       id="path728" />
    <path
       d="m 693.951,436.157 c -0.746,2.011 -4.454,3.6 -10.282,2.011 -5.824,-1.588 -7.679,-3.973 -7.414,-7.946 0.265,-3.972 2.119,-10.857 2.385,-14.829 0.264,-3.974 3.177,-7.152 9.532,-5.297 6.358,1.853 10.593,4.502 12.182,10.593"
       style="fill:none;stroke:#231f20;stroke-width:0.5;stroke-linecap:butt;stroke-linejoin:miter;stroke-miterlimit:4;stroke-dasharray:none;stroke-opacity:1"
       id="path730" />
    <path
       d="m 658.511,536.419 c -5.03,0.794 -16.154,0.794 -22.509,-2.648 -6.357,-3.442 -12.976,-12.183 -14.037,-25.687 -1.058,-13.507 3.708,-26.22 9.269,-33.37 5.561,-7.15 13.77,-8.21 23.04,-8.21 9.27,0 18.274,3.708 24.1,12.182 5.827,8.475 2.649,17.743 4.768,25.689 2.116,7.944 0.527,14.3 -2.649,18.538 -3.178,4.236 -4.334,3.559 -5.827,3.443 -2.118,3.441 -16.155,10.063 -16.155,10.063"
       style="fill:none;stroke:#231f20;stroke-width:0.5;stroke-linecap:butt;stroke-linejoin:miter;stroke-miterlimit:4;stroke-dasharray:none;stroke-opacity:1"
       id="path732" />
    <path
       d="m 567.146,539.597 c 2.913,0.794 3.972,-2.12 2.119,-3.973 -1.854,-1.853 -18.273,-16.949 -20.392,-18.803 -2.12,-1.853 -3.708,-0.794 -3.708,2.648 0,3.444 -0.264,12.183 -0.53,14.302 -0.264,2.118 -0.529,5.561 3.179,4.502 3.707,-1.06 12.977,-0.265 19.332,1.324 6.356,1.588 8.739,3.443 10.856,4.502 2.121,1.059 11.919,5.032 13.773,8.474 0,0 7.682,3.441 11.123,4.503 3.443,1.059 6.621,2.119 8.74,2.648 2.116,0.528 9.798,2.384 12.711,10.064 2.912,7.678 3.288,12.017 -3.708,19.596 -6.355,6.886 -12.712,9.8 -18.802,9.8 -6.09,0 -10.329,-0.531 -10.329,-0.531"
       style="fill:none;stroke:#231f20;stroke-width:0.5;stroke-linecap:butt;stroke-linejoin:miter;stroke-miterlimit:4;stroke-dasharray:none;stroke-opacity:1"
       id="path734" />
    <path
       d="m 598.92,599.143 c 5.832,-1.284 33.9,-13.519 9.405,-40.371"
       style="fill:none;stroke:#231f20;stroke-width:0.5;stroke-linecap:butt;stroke-linejoin:miter;stroke-miterlimit:4;stroke-dasharray:none;stroke-opacity:1"
       id="path736" />
    <path
       d="m 553.277,596.779 c -1.227,-1.303 -2.816,-3.95 3.805,-2.892 6.621,1.058 18.804,3.177 23.041,3.443 4.238,0.265 9.534,1.059 11.387,1.323 1.854,0.266 5.562,1.855 3.177,3.973"
       style="fill:none;stroke:#231f20;stroke-width:0.75;stroke-linecap:round;stroke-linejoin:round;stroke-miterlimit:4;stroke-dasharray:none;stroke-opacity:1"
       id="path738" />
    <path
       d="m 679.891,425.768 c 0,-0.624 -0.501,-1.126 -1.126,-1.126 -0.623,0 -1.127,0.502 -1.127,1.126 0,0.623 0.504,1.127 1.127,1.127 0.625,0 1.126,-0.504 1.126,-1.127"
       style="fill:#231f20;fill-opacity:1;fill-rule:nonzero;stroke:none;stroke-width:0.1"
       id="path740" />
    <path
       d="m 683.025,421.764 c 0,-0.624 -0.5,-1.126 -1.126,-1.126 -0.623,0 -1.126,0.502 -1.126,1.126 0,0.623 0.503,1.126 1.126,1.126 0.626,0 1.126,-0.503 1.126,-1.126"
       style="fill:#231f20;fill-opacity:1;fill-rule:nonzero;stroke:none;stroke-width:0.1"
       id="path742" />
    <path
       d="m 687.03,420.719 c 0,-0.624 -0.501,-1.126 -1.127,-1.126 -0.622,0 -1.126,0.502 -1.126,1.126 0,0.623 0.504,1.126 1.126,1.126 0.626,0 1.127,-0.503 1.127,-1.126"
       style="fill:#231f20;fill-opacity:1;fill-rule:nonzero;stroke:none;stroke-width:0.1"
       id="path744" />
    <path
       d="m 658.476,437.782 c 0,-0.624 -0.501,-1.126 -1.126,-1.126 -0.623,0 -1.127,0.502 -1.127,1.126 0,0.623 0.504,1.126 1.127,1.126 0.625,0 1.126,-0.503 1.126,-1.126"
       style="fill:#231f20;fill-opacity:1;fill-rule:nonzero;stroke:none;stroke-width:0.1"
       id="path746" />
    <path
       d="m 666.834,430.122 c 0,-0.625 -0.502,-1.127 -1.127,-1.127 -0.623,0 -1.126,0.502 -1.126,1.127 0,0.622 0.503,1.126 1.126,1.126 0.625,0 1.127,-0.504 1.127,-1.126"
       style="fill:#231f20;fill-opacity:1;fill-rule:nonzero;stroke:none;stroke-width:0.1"
       id="path748" />
    <path
       d="m 670.315,431.514 c 0,-0.624 -0.5,-1.126 -1.126,-1.126 -0.623,0 -1.126,0.502 -1.126,1.126 0,0.623 0.503,1.126 1.126,1.126 0.626,0 1.126,-0.503 1.126,-1.126"
       style="fill:#231f20;fill-opacity:1;fill-rule:nonzero;stroke:none;stroke-width:0.1"
       id="path750" />
    <path
       d="m 615.645,592.563 c 0,-0.624 -0.5,-1.126 -1.126,-1.126 -0.623,0 -1.126,0.502 -1.126,1.126 0,0.623 0.503,1.127 1.126,1.127 0.626,0 1.126,-0.504 1.126,-1.127"
       style="fill:#231f20;fill-opacity:1;fill-rule:nonzero;stroke:none;stroke-width:0.1"
       id="path752" />
    <path
       d="m 624.525,580.724 c 0,-0.624 -0.501,-1.126 -1.126,-1.126 -0.623,0 -1.127,0.502 -1.127,1.126 0,0.623 0.504,1.126 1.127,1.126 0.625,0 1.126,-0.503 1.126,-1.126"
       style="fill:#231f20;fill-opacity:1;fill-rule:nonzero;stroke:none;stroke-width:0.1"
       id="path754" />
    <path
       d="m 624.525,575.849 c 0,-0.624 -0.501,-1.126 -1.126,-1.126 -0.623,0 -1.127,0.502 -1.127,1.126 0,0.623 0.504,1.126 1.127,1.126 0.625,0 1.126,-0.503 1.126,-1.126"
       style="fill:#231f20;fill-opacity:1;fill-rule:nonzero;stroke:none;stroke-width:0.1"
       id="path756" />
    <path
       d="m 408.912,785.623 c -2.782,-6.621 -16.552,-38.665 -17.876,-49.788 -1.325,-11.123 3.441,-35.487 6.355,-45.816 1.295,-4.589 0.13,-9.44 -2.073,-13.926 -2.756,-5.607 -7.137,-10.644 -10.374,-13.881 -5.826,-5.825 -23.04,-19.067 -37.87,-27.012 -14.832,-7.945 -36.282,-16.685 -48.993,-10.858"
       style="fill:none;stroke:#231f20;stroke-width:0.75;stroke-linecap:round;stroke-linejoin:round;stroke-miterlimit:4;stroke-dasharray:none;stroke-opacity:1"
       id="path758" />
    <path
       d="m 459.807,713.384 c -7.332,-8.005 -39.377,-46.405 -62.416,-23.365"
       style="fill:none;stroke:#231f20;stroke-width:0.75;stroke-linecap:round;stroke-linejoin:round;stroke-miterlimit:4;stroke-dasharray:none;stroke-opacity:1"
       id="path760" />
    <path
       d="m 395.318,676.093 c 2.271,6.525 28.025,5.982 10.812,-15.999 0,0 33.104,19.068 38.931,20.127 -2.3,6.901 6.273,22.194 14.746,33.163 4.21,5.451 8.394,9.835 11.207,11.593"
       style="fill:none;stroke:#231f20;stroke-width:0.75;stroke-linecap:round;stroke-linejoin:round;stroke-miterlimit:4;stroke-dasharray:none;stroke-opacity:1"
       id="path762" />
    <path
       d="m 445.061,680.221 c 14.034,-1.058 26.217,0.529 48.729,3.443 22.508,2.913 37.339,0 46.212,-1.325 8.871,1.325 23.703,4.238 46.211,1.325 22.512,-2.914 34.694,-4.501 48.729,-3.443"
       style="fill:none;stroke:#231f20;stroke-width:0.5;stroke-linecap:butt;stroke-linejoin:miter;stroke-miterlimit:4;stroke-dasharray:none;stroke-opacity:1"
       id="path764" />
    <path
       d="m 461.746,838.457 c 3.798,4.689 14.564,8.341 21.45,8.607 6.886,0.265 45.02,1.853 56.806,1.853 11.784,0 49.919,-1.588 56.804,-1.853 6.886,-0.266 17.652,-3.918 21.451,-8.607"
       style="fill:none;stroke:#231f20;stroke-width:0.5;stroke-linecap:butt;stroke-linejoin:miter;stroke-miterlimit:4;stroke-dasharray:none;stroke-opacity:1"
       id="path766" />
    <path
       d="m 508.883,782.18 c 5.827,4.767 24.63,2.649 31.119,2.649 6.488,0 25.292,2.118 31.117,-2.649"
       style="fill:none;stroke:#231f20;stroke-width:0.5;stroke-linecap:butt;stroke-linejoin:miter;stroke-miterlimit:4;stroke-dasharray:none;stroke-opacity:1"
       id="path768" />
    <path
       d="m 472.867,815.813 c 6.886,-2.912 19.332,-10.328 24.631,-14.3 5.295,-3.972 11.121,-10.593 11.915,-12.447 0.795,-1.854 2.119,-4.768 -0.53,-6.886 -2.648,-2.118 -7.677,-11.387 -10.591,-18.538 -2.914,-7.15 -10.861,-24.1 -13.507,-26.483 -2.649,-2.383 -12.182,-9.798 -13.771,-12.182"
       style="fill:none;stroke:#231f20;stroke-width:0.75;stroke-linecap:round;stroke-linejoin:round;stroke-miterlimit:4;stroke-dasharray:none;stroke-opacity:1"
       id="path770" />
    <path
       d="m 590.715,737.159 c 1.589,0 4.57,-0.083 5.477,-0.846"
       style="fill:none;stroke:#231f20;stroke-width:0.75;stroke-linecap:round;stroke-linejoin:round;stroke-miterlimit:4;stroke-dasharray:none;stroke-opacity:1"
       id="path772" />
    <path
       d="m 489.287,737.159 c 1.589,0 45.286,-1.853 50.715,-1.853 5.428,0 49.124,1.853 50.713,1.853"
       style="fill:none;stroke:#231f20;stroke-width:0.5;stroke-linecap:butt;stroke-linejoin:miter;stroke-miterlimit:4;stroke-dasharray:none;stroke-opacity:1"
       id="path774" />
    <path
       d="m 483.811,736.313 c 0.907,0.763 3.887,0.846 5.476,0.846"
       style="fill:#ffffff;fill-opacity:1;fill-rule:nonzero;stroke:none;stroke-width:0.1"
       id="path776" />
    <path
       d="m 483.811,736.313 c 0.907,0.763 3.887,0.846 5.476,0.846"
       style="fill:none;stroke:#231f20;stroke-width:0.75;stroke-linecap:round;stroke-linejoin:round;stroke-miterlimit:4;stroke-dasharray:none;stroke-opacity:1"
       id="path778" />
    <path
       d="m 487.62,741.327 c -0.849,-1.44 0.07,-4.119 1.667,-4.168"
       style="fill:#ffffff;fill-opacity:1;fill-rule:nonzero;stroke:none;stroke-width:0.1"
       id="path780" />
    <path
       d="m 487.62,741.327 c -0.849,-1.44 0.07,-4.119 1.667,-4.168"
       style="fill:none;stroke:#231f20;stroke-width:0.75;stroke-linecap:round;stroke-linejoin:round;stroke-miterlimit:4;stroke-dasharray:none;stroke-opacity:1"
       id="path782" />
    <path
       d="m 291.724,617.987 c 1.787,-3.179 5.761,-11.719 7.349,-17.479"
       style="fill:none;stroke:#231f20;stroke-width:0.5;stroke-linecap:butt;stroke-linejoin:miter;stroke-miterlimit:4;stroke-dasharray:none;stroke-opacity:1"
       id="path784" />
    <path
       d="m 275.437,628.116 c 0,-2.084 1.689,-3.774 3.773,-3.774 2.085,0 3.775,1.69 3.775,3.774 0,2.085 -1.69,3.774 -3.775,3.774 -2.084,0 -3.773,-1.689 -3.773,-3.774"
       style="fill:#ffffff;fill-opacity:1;fill-rule:nonzero;stroke:none;stroke-width:0.1"
       id="path786" />
    <path
       d="m 275.437,628.116 c 0,-2.084 1.689,-3.774 3.773,-3.774 2.085,0 3.775,1.69 3.775,3.774 0,2.085 -1.69,3.774 -3.775,3.774 -2.084,0 -3.773,-1.689 -3.773,-3.774 z"
       style="fill:none;stroke:#231f20;stroke-width:0.5;stroke-linecap:round;stroke-linejoin:round;stroke-miterlimit:4;stroke-dasharray:none;stroke-opacity:1"
       id="path788" />
    <path
       d="m 540.002,645.992 c -5.561,0 -22.444,1.191 -28.602,2.383 -6.157,1.192 -28.204,2.384 -32.374,3.178 -4.172,0.794 -2.981,2.98 0.198,2.98 3.178,0 19.068,0.595 33.169,-1.788 14.102,-2.383 21.849,-1.192 27.609,-1.192 5.758,0 13.506,-1.191 27.608,1.192 14.1,2.383 29.991,1.788 33.168,1.788 3.18,0 4.371,-2.186 0.199,-2.98 -4.171,-0.794 -26.217,-1.986 -32.375,-3.178 -6.157,-1.192 -23.04,-2.383 -28.6,-2.383"
       style="fill:#b2b1b1;fill-opacity:1;fill-rule:nonzero;stroke:none;stroke-width:0.1"
       id="path790" />
    <path
       d="m 318.43,542.48 c 0.108,-5.229 -1.481,-11.491 -4.064,-14.272"
       style="fill:none;stroke:#231f20;stroke-width:0.5;stroke-linecap:butt;stroke-linejoin:miter;stroke-miterlimit:4;stroke-dasharray:none;stroke-opacity:1"
       id="path792" />
    <path
       d="m 295.679,624.63 c 2.748,0.06 5.384,-2.684 8.363,-8.24"
       style="fill:none;stroke:#231f20;stroke-width:0.5;stroke-linecap:butt;stroke-linejoin:miter;stroke-miterlimit:4;stroke-dasharray:none;stroke-opacity:1"
       id="path794" />
    <path
       d="m 466.511,611.896 c 1.325,-0.53 6.092,-2.384 12.447,-4.768 6.357,-2.383 6.357,-4.502 6.357,-4.502 4.016,0.502 20.681,-1.189 31.779,-3.178 6.47,-1.159 9.882,-2.789 10.859,-3.178 2.646,-1.059 9.268,-1.325 12.049,-1.325 2.78,0 9.401,0.266 12.048,1.325 0.977,0.389 4.388,2.019 10.859,3.178 11.097,1.989 27.763,3.68 31.778,3.178 0,0 0,2.119 6.357,4.502 6.356,2.384 11.122,4.238 12.447,4.768"
       style="fill:none;stroke:#231f20;stroke-width:0.75;stroke-linecap:round;stroke-linejoin:round;stroke-miterlimit:4;stroke-dasharray:none;stroke-opacity:1"
       id="path796" />
    <path
       d="m 456.245,616.33 c -5.093,0.596 -22.308,-1.523 -33.165,-3.375 -10.858,-1.853 -20.392,-5.032 -27.541,-9.799 -7.153,-4.767 -21.982,-16.948 -13.244,-25.424"
       style="fill:none;stroke:#231f20;stroke-width:0.5;stroke-linecap:butt;stroke-linejoin:miter;stroke-miterlimit:4;stroke-dasharray:none;stroke-opacity:1"
       id="path798" />
    <path
       d="m 461.214,602.891 c 1.176,-2.057 -4.766,-9.004 -9.798,-11.918 -5.032,-2.913 -26.484,-16.419 -34.164,-19.067 -7.679,-2.649 -16.153,-5.032 -17.478,-1.06 -1.325,3.974 4.238,8.21 7.416,12.184 3.178,3.971 13.24,12.446 17.214,11.386 3.972,-1.059 11.388,2.12 17.478,5.032 6.092,2.913 10.859,4.238 12.182,4.502 1.323,0.265 6.09,0.795 7.15,-1.059 z"
       style="fill:none;stroke:#231f20;stroke-width:0.5;stroke-linecap:butt;stroke-linejoin:miter;stroke-miterlimit:4;stroke-dasharray:none;stroke-opacity:1"
       id="path800" />
    <path
       d="m 326.992,534.366 c -2.694,0.728 -5.078,-4.832 -6.402,-9.334 -1.323,-4.503 -4.284,-31.046 4.456,-52.498 8.739,-21.452 21.764,-44.959 54.602,-51.845 0,0 13.506,7.681 3.441,20.656 0,0 -8.209,1.854 -17.742,11.653 -9.534,9.798 -12.976,12.711 -17.215,34.427 -4.236,21.716 -6.627,35.748 -12.979,41.842"
       style="fill:none;stroke:#231f20;stroke-width:0.5;stroke-linecap:butt;stroke-linejoin:miter;stroke-miterlimit:4;stroke-dasharray:none;stroke-opacity:1"
       id="path802" />
    <path
       d="m 399.51,522.913 c -1.589,1.855 -10.242,4.262 -12.976,-1.853 -4.502,-10.066 -4.826,-44.202 -5.297,-48.728 -0.472,-4.529 -1.043,-21.443 1.589,-25.955 1.852,-3.178 0.263,-5.032 0.263,-5.032"
       style="fill:none;stroke:#231f20;stroke-width:0.5;stroke-linecap:butt;stroke-linejoin:miter;stroke-miterlimit:4;stroke-dasharray:none;stroke-opacity:1"
       id="path804" />
    <path
       d="m 498.098,398.474 c -2.91,7.413 -11.708,29.63 -66.528,36.78"
       style="fill:none;stroke:#231f20;stroke-width:0.25;stroke-linecap:butt;stroke-linejoin:miter;stroke-miterlimit:4;stroke-dasharray:none;stroke-opacity:1"
       id="path806" />
    <path
       d="m 476.829,344.374 c -3.432,2.162 -12.171,8.254 -11.112,11.166 1.058,2.915 3.178,9.536 3.178,9.536 0,0 5.296,3.971 13.507,6.883 8.209,2.913 19.861,4.768 34.427,-0.793 14.619,-5.582 23.173,-15.092 23.173,-25.092"
       style="fill:none;stroke:#231f20;stroke-width:0.5;stroke-linecap:butt;stroke-linejoin:miter;stroke-miterlimit:4;stroke-dasharray:none;stroke-opacity:1"
       id="path808" />
    <path
       d="m 517.888,409.566 c -4.63,-2.173 -21.452,-11.123 -23.304,-14.036 -1.854,-2.912 0,-3.972 5.56,-5.563 5.563,-1.589 28.603,-8.473 31.515,-9.532 2.914,-1.059 5.826,-0.53 6.356,3.972 0.529,4.503 0.264,17.214 0.264,21.716 0,4.503 0.795,9.534 -3.706,8.739 -4.503,-0.794 -12.075,-3.134 -16.685,-5.296 z"
       style="fill:none;stroke:#231f20;stroke-width:0.5;stroke-linecap:butt;stroke-linejoin:miter;stroke-miterlimit:4;stroke-dasharray:none;stroke-opacity:1"
       id="path810" />
    <path
       d="m 538.337,392.884 c -5.087,1.586 -30.061,5.448 -38.761,6.562"
       style="fill:none;stroke:#231f20;stroke-width:0.5;stroke-linecap:butt;stroke-linejoin:miter;stroke-miterlimit:4;stroke-dasharray:none;stroke-opacity:1"
       id="path812" />
    <path
       d="m 386.052,436.157 c 0.745,2.011 4.453,3.6 10.281,2.011 5.824,-1.588 7.679,-3.973 7.415,-7.946 -0.266,-3.972 -2.121,-10.857 -2.385,-14.829 -0.264,-3.974 -3.178,-7.152 -9.532,-5.297 -6.359,1.853 -10.594,4.502 -12.183,10.593"
       style="fill:none;stroke:#231f20;stroke-width:0.5;stroke-linecap:butt;stroke-linejoin:miter;stroke-miterlimit:4;stroke-dasharray:none;stroke-opacity:1"
       id="path814" />
    <path
       d="m 421.491,536.419 c 5.03,0.794 16.154,0.794 22.51,-2.648 6.357,-3.442 12.975,-12.183 14.037,-25.687 1.057,-13.507 -3.708,-26.22 -9.269,-33.37 -5.562,-7.15 -13.771,-8.21 -23.041,-8.21 -9.27,0 -18.274,3.708 -24.101,12.182 -5.825,8.475 -2.647,17.743 -4.767,25.689 -2.116,7.944 -0.527,14.3 2.65,18.538 3.178,4.236 4.333,3.559 5.825,3.443 2.119,3.441 16.156,10.063 16.156,10.063"
       style="fill:none;stroke:#231f20;stroke-width:0.5;stroke-linecap:butt;stroke-linejoin:miter;stroke-miterlimit:4;stroke-dasharray:none;stroke-opacity:1"
       id="path816" />
    <path
       d="m 512.857,539.597 c -2.914,0.794 -3.972,-2.12 -2.119,-3.973 1.853,-1.853 18.272,-16.949 20.391,-18.803 2.121,-1.853 3.708,-0.794 3.708,2.648 0,3.444 0.265,12.183 0.53,14.302 0.265,2.118 0.529,5.561 -3.179,4.502 -3.706,-1.06 -12.977,-0.265 -19.331,1.324 -6.357,1.588 -8.739,3.443 -10.857,4.502 -2.12,1.059 -11.918,5.032 -13.773,8.474 0,0 -7.681,3.441 -11.122,4.503 -3.444,1.059 -6.622,2.119 -8.741,2.648 -2.116,0.528 -9.797,2.384 -12.711,10.064 -2.912,7.678 -3.287,12.017 3.708,19.596 6.356,6.886 12.713,9.8 18.803,9.8 6.09,0 10.329,-0.531 10.329,-0.531"
       style="fill:none;stroke:#231f20;stroke-width:0.5;stroke-linecap:butt;stroke-linejoin:miter;stroke-miterlimit:4;stroke-dasharray:none;stroke-opacity:1"
       id="path818" />
    <path
       d="m 481.083,599.143 c -5.833,-1.284 -33.9,-13.519 -9.406,-40.371"
       style="fill:none;stroke:#231f20;stroke-width:0.5;stroke-linecap:butt;stroke-linejoin:miter;stroke-miterlimit:4;stroke-dasharray:none;stroke-opacity:1"
       id="path820" />
    <path
       d="m 526.725,596.779 c 1.228,-1.303 2.817,-3.95 -3.806,-2.892 -6.62,1.058 -18.803,3.177 -23.039,3.443 -4.238,0.265 -9.535,1.059 -11.387,1.323 -1.855,0.266 -5.563,1.855 -3.178,3.973"
       style="fill:none;stroke:#231f20;stroke-width:0.75;stroke-linecap:round;stroke-linejoin:round;stroke-miterlimit:4;stroke-dasharray:none;stroke-opacity:1"
       id="path822" />
    <path
       d="m 400.111,425.768 c 0,-0.624 0.501,-1.126 1.127,-1.126 0.623,0 1.126,0.502 1.126,1.126 0,0.623 -0.503,1.127 -1.126,1.127 -0.626,0 -1.127,-0.504 -1.127,-1.127"
       style="fill:#231f20;fill-opacity:1;fill-rule:nonzero;stroke:none;stroke-width:0.1"
       id="path824" />
    <path
       d="m 396.977,421.764 c 0,-0.624 0.501,-1.126 1.127,-1.126 0.622,0 1.126,0.502 1.126,1.126 0,0.623 -0.504,1.126 -1.126,1.126 -0.626,0 -1.127,-0.503 -1.127,-1.126"
       style="fill:#231f20;fill-opacity:1;fill-rule:nonzero;stroke:none;stroke-width:0.1"
       id="path826" />
    <path
       d="m 392.973,420.719 c 0,-0.624 0.5,-1.126 1.126,-1.126 0.623,0 1.126,0.502 1.126,1.126 0,0.623 -0.503,1.126 -1.126,1.126 -0.626,0 -1.126,-0.503 -1.126,-1.126"
       style="fill:#231f20;fill-opacity:1;fill-rule:nonzero;stroke:none;stroke-width:0.1"
       id="path828" />
    <path
       d="m 421.527,437.782 c 0,-0.624 0.5,-1.126 1.126,-1.126 0.623,0 1.126,0.502 1.126,1.126 0,0.623 -0.503,1.126 -1.126,1.126 -0.626,0 -1.126,-0.503 -1.126,-1.126"
       style="fill:#231f20;fill-opacity:1;fill-rule:nonzero;stroke:none;stroke-width:0.1"
       id="path830" />
    <path
       d="m 413.169,430.122 c 0,-0.625 0.5,-1.127 1.126,-1.127 0.623,0 1.126,0.502 1.126,1.127 0,0.622 -0.503,1.126 -1.126,1.126 -0.626,0 -1.126,-0.504 -1.126,-1.126"
       style="fill:#231f20;fill-opacity:1;fill-rule:nonzero;stroke:none;stroke-width:0.1"
       id="path832" />
    <path
       d="m 409.687,431.514 c 0,-0.624 0.501,-1.126 1.126,-1.126 0.623,0 1.127,0.502 1.127,1.126 0,0.623 -0.504,1.126 -1.127,1.126 -0.625,0 -1.126,-0.503 -1.126,-1.126"
       style="fill:#231f20;fill-opacity:1;fill-rule:nonzero;stroke:none;stroke-width:0.1"
       id="path834" />
    <path
       d="m 464.357,592.563 c 0,-0.624 0.501,-1.126 1.126,-1.126 0.623,0 1.127,0.502 1.127,1.126 0,0.623 -0.504,1.127 -1.127,1.127 -0.625,0 -1.126,-0.504 -1.126,-1.127"
       style="fill:#231f20;fill-opacity:1;fill-rule:nonzero;stroke:none;stroke-width:0.1"
       id="path836" />
    <path
       d="m 455.477,580.724 c 0,-0.624 0.501,-1.126 1.127,-1.126 0.623,0 1.126,0.502 1.126,1.126 0,0.623 -0.503,1.126 -1.126,1.126 -0.626,0 -1.127,-0.503 -1.127,-1.126"
       style="fill:#231f20;fill-opacity:1;fill-rule:nonzero;stroke:none;stroke-width:0.1"
       id="path838" />
    <path
       d="m 455.477,575.849 c 0,-0.624 0.501,-1.126 1.127,-1.126 0.623,0 1.126,0.502 1.126,1.126 0,0.623 -0.503,1.126 -1.126,1.126 -0.626,0 -1.127,-0.503 -1.127,-1.126"
       style="fill:#231f20;fill-opacity:1;fill-rule:nonzero;stroke:none;stroke-width:0.1"
       id="path840" />
    <path
       d="m 540.002,594.945 c -2.781,0 -9.403,0.266 -12.049,1.325 -0.248,0.1 -0.655,0.279 -1.228,0.509 0.917,-0.974 2.038,-2.7 -0.225,-3.067 2.648,-0.796 4.894,-2.739 7.807,-4.591 2.914,-1.854 4.503,-0.794 5.695,-0.794 1.191,0 2.78,-1.06 5.693,0.794 2.914,1.852 5.159,3.795 7.807,4.591 -2.262,0.367 -1.142,2.093 -0.225,3.067 v 10e-4 c -0.572,-0.231 -0.98,-0.41 -1.227,-0.51 -2.647,-1.059 -9.268,-1.325 -12.048,-1.325"
       style="fill:#706d6e;fill-opacity:1;fill-rule:nonzero;stroke:none;stroke-width:0.1"
       id="path842" />
    <path
       d="m 540.002,594.945 c -2.781,0 -9.403,0.266 -12.049,1.325 -0.248,0.1 -0.655,0.279 -1.228,0.509 0.917,-0.974 2.038,-2.7 -0.225,-3.067 2.648,-0.796 4.894,-2.739 7.807,-4.591 2.914,-1.854 4.503,-0.794 5.695,-0.794 1.191,0 2.78,-1.06 5.693,0.794 2.914,1.852 5.159,3.795 7.807,4.591 -2.262,0.367 -1.142,2.093 -0.225,3.067 v 10e-4 c -0.572,-0.231 -0.98,-0.41 -1.227,-0.51 -2.647,-1.059 -9.268,-1.325 -12.048,-1.325 z"
       style="fill:none;stroke:#231f20;stroke-width:0.75;stroke-linecap:round;stroke-linejoin:round;stroke-miterlimit:4;stroke-dasharray:none;stroke-opacity:1"
       id="path844" />
    <path
       d="m 772.786,541.716 c -4.171,2.185 -6.554,10.527 -6.752,11.916 -0.2,1.391 0,9.137 -0.2,12.91 -0.198,3.775 3.178,10.924 4.767,15.892 1.589,4.965 3.972,14.896 4.965,19.663 0.993,4.767 0.845,9.435 0.794,11.917 -0.043,2.194 0,2.78 -1.39,2.185 -1.39,-0.596 -7.347,-4.172 -11.519,-6.555 -4.172,-2.384 -9.931,-4.568 -14.3,-6.951 -4.371,-2.383 -4.967,-3.973 -10.926,-8.94 -5.958,-4.964 -10.526,-9.929 -14.896,-13.902 -4.369,-3.974 -5.561,-9.534 -4.369,-16.089 1.191,-6.554 6.517,-24.266 14.102,-32.177 6.95,-7.25 15.46,-0.501 18.273,1.588 2.715,2.019 13.307,8.344 14.699,20.459"
       style="fill:none;stroke:#231f20;stroke-width:0.5;stroke-linecap:butt;stroke-linejoin:miter;stroke-miterlimit:4;stroke-dasharray:none;stroke-opacity:1"
       id="path846" />
    <path
       d="m 307.216,541.716 c 4.171,2.185 6.554,10.527 6.753,11.916 0.199,1.391 0,9.137 0.199,12.91 0.198,3.775 -3.178,10.924 -4.767,15.892 -1.588,4.965 -3.972,14.896 -4.965,19.663 -0.992,4.767 -0.845,9.435 -0.794,11.917 0.044,2.194 0,2.78 1.391,2.185 1.389,-0.596 7.347,-4.172 11.519,-6.555 4.172,-2.384 9.931,-4.568 14.3,-6.951 4.37,-2.383 4.966,-3.973 10.925,-8.94 5.958,-4.964 10.527,-9.929 14.897,-13.902 4.369,-3.972 5.561,-9.534 4.369,-16.089 -1.191,-6.554 -6.518,-24.266 -14.102,-32.177 -6.951,-7.25 -15.461,-0.501 -18.273,1.588 -2.715,2.019 -13.307,8.344 -14.699,20.459"
       style="fill:none;stroke:#231f20;stroke-width:0.5;stroke-linecap:butt;stroke-linejoin:miter;stroke-miterlimit:4;stroke-dasharray:none;stroke-opacity:1"
       id="path848" />
    <path
       d="m 722.174,578.668 c -3.016,-0.406 -5.929,3.037 -9.902,5.685 -3.972,2.648 -9.535,4.767 -13.77,9.269 -4.238,4.502 -10.858,14.566 -23.306,19.863 -12.446,5.297 -26.484,7.943 -37.87,6.091 -11.388,-1.856 -22.51,-6.091 -23.835,-7.68"
       style="fill:none;stroke:#231f20;stroke-width:0.75;stroke-linecap:round;stroke-linejoin:round;stroke-miterlimit:4;stroke-dasharray:none;stroke-opacity:1"
       id="path850" />
    <path
       d="m 357.828,578.668 c 3.016,-0.406 5.93,3.037 9.902,5.685 3.972,2.648 9.535,4.767 13.77,9.269 4.238,4.502 10.858,14.566 23.307,19.863 12.445,5.297 26.484,7.943 37.869,6.091 11.388,-1.856 22.511,-6.091 23.835,-7.68"
       style="fill:none;stroke:#231f20;stroke-width:0.75;stroke-linecap:round;stroke-linejoin:round;stroke-miterlimit:4;stroke-dasharray:none;stroke-opacity:1"
       id="path852" />
    <path
       d="m 310.196,484.115 c -0.463,8.343 -0.993,21.318 0.332,28.469 1.323,7.151 3.342,11.416 3.838,15.624 0.441,3.72 -2.116,12.713 -7.15,13.508 -5.032,0.794 -10.063,-2.78 -11.718,-8.543"
       style="fill:none;stroke:#231f20;stroke-width:0.5;stroke-linecap:butt;stroke-linejoin:miter;stroke-miterlimit:4;stroke-dasharray:none;stroke-opacity:1"
       id="path854" />
    <path
       d="m 769.807,484.115 c 0.462,8.343 0.992,21.318 -0.332,28.469 -1.323,7.151 -3.343,11.416 -3.839,15.624 -0.44,3.72 2.116,12.713 7.15,13.508 5.033,0.794 10.064,-2.78 11.719,-8.543"
       style="fill:none;stroke:#231f20;stroke-width:0.5;stroke-linecap:butt;stroke-linejoin:miter;stroke-miterlimit:4;stroke-dasharray:none;stroke-opacity:1"
       id="path856" />
    <path
       d="m 696.458,444.709 c -2.194,-0.98 -11.463,6.436 -9.874,11.202"
       style="fill:none;stroke:#231f20;stroke-width:0.5;stroke-linecap:butt;stroke-linejoin:miter;stroke-miterlimit:4;stroke-dasharray:none;stroke-opacity:1"
       id="path858" />
    <path
       d="m 383.543,444.709 c 2.195,-0.98 11.464,6.436 9.876,11.202"
       style="fill:none;stroke:#231f20;stroke-width:0.5;stroke-linecap:butt;stroke-linejoin:miter;stroke-miterlimit:4;stroke-dasharray:none;stroke-opacity:1"
       id="path860" />
    <path
       d="m 692.94,899.235 c 7.944,-7.548 53.23,-69.915 66.339,-83.422 13.109,-13.506 46.876,-53.627 53.628,-61.175"
       style="fill:none;stroke:#231f20;stroke-width:0.5;stroke-linecap:round;stroke-linejoin:round;stroke-miterlimit:4;stroke-dasharray:2.8, 1.8;stroke-dashoffset:0;stroke-opacity:1"
       id="path862" />
    <path
       d="m 741.005,753.843 c 13.111,3.575 50.054,6.357 71.902,0.795 10.473,-2.666 40.122,-13.377 61.177,-30.126"
       style="fill:none;stroke:#231f20;stroke-width:0.5;stroke-linecap:round;stroke-linejoin:round;stroke-miterlimit:4;stroke-dasharray:2.8, 1.8;stroke-dashoffset:0;stroke-opacity:1"
       id="path864" />
    <path
       d="m 787.144,784.536 c 11.859,0.69 57.26,7.418 74.688,7.232"
       style="fill:none;stroke:#231f20;stroke-width:0.5;stroke-linecap:round;stroke-linejoin:round;stroke-miterlimit:4;stroke-dasharray:2.8, 1.8;stroke-dashoffset:0;stroke-opacity:1"
       id="path866" />
    <path
       d="m 775.52,797.897 c 6.005,9.574 40.556,34.05 53.267,41.994"
       style="fill:none;stroke:#231f20;stroke-width:0.5;stroke-linecap:round;stroke-linejoin:round;stroke-miterlimit:4;stroke-dasharray:2.8, 1.8;stroke-dashoffset:0;stroke-opacity:1"
       id="path868" />
    <path
       d="m 759.279,815.813 c 3.179,10.329 22.695,46.932 29.82,58.622"
       style="fill:none;stroke:#231f20;stroke-width:0.5;stroke-linecap:round;stroke-linejoin:round;stroke-miterlimit:4;stroke-dasharray:2.8, 1.8;stroke-dashoffset:0;stroke-opacity:1"
       id="path870" />
    <path
       d="m 672.225,814.122 c 8.798,2.088 38.887,12.938 84.62,4.336"
       style="fill:none;stroke:#231f20;stroke-width:0.5;stroke-linecap:round;stroke-linejoin:round;stroke-miterlimit:4;stroke-dasharray:2.8, 1.8;stroke-dashoffset:0;stroke-opacity:1"
       id="path872" />
    <path
       d="m 765.223,757.237 c -6.782,-0.57 -12.696,-4.585 -12.696,-8.16 0,-3.576 9.137,-8.74 19.861,-8.74 10.727,0 14.954,1.682 15.891,6.357 1.191,5.958 -5.971,10.218 -10.733,11.067"
       style="fill:none;stroke:#231f20;stroke-width:0.5;stroke-linecap:round;stroke-linejoin:round;stroke-miterlimit:4;stroke-dasharray:2.8, 1.8;stroke-dashoffset:0;stroke-opacity:1"
       id="path874" />
    <path
       d="m 387.063,899.235 c -7.945,-7.548 -53.23,-69.915 -66.339,-83.422 -13.11,-13.506 -46.876,-53.627 -53.628,-61.175"
       style="fill:none;stroke:#231f20;stroke-width:0.5;stroke-linecap:round;stroke-linejoin:round;stroke-miterlimit:4;stroke-dasharray:2.8, 1.8;stroke-dashoffset:0;stroke-opacity:1"
       id="path876" />
    <path
       d="m 338.997,753.843 c -13.11,3.575 -50.053,6.357 -71.901,0.795 -10.473,-2.666 -40.123,-13.377 -61.178,-30.126"
       style="fill:none;stroke:#231f20;stroke-width:0.5;stroke-linecap:round;stroke-linejoin:round;stroke-miterlimit:4;stroke-dasharray:2.8, 1.8;stroke-dashoffset:0;stroke-opacity:1"
       id="path878" />
    <path
       d="m 292.858,784.536 c -11.859,0.69 -57.259,7.418 -74.688,7.232"
       style="fill:none;stroke:#231f20;stroke-width:0.5;stroke-linecap:round;stroke-linejoin:round;stroke-miterlimit:4;stroke-dasharray:2.8, 1.8;stroke-dashoffset:0;stroke-opacity:1"
       id="path880" />
    <path
       d="m 304.483,797.897 c -6.006,9.574 -40.557,34.05 -53.268,41.994"
       style="fill:none;stroke:#231f20;stroke-width:0.5;stroke-linecap:round;stroke-linejoin:round;stroke-miterlimit:4;stroke-dasharray:2.8, 1.8;stroke-dashoffset:0;stroke-opacity:1"
       id="path882" />
    <path
       d="m 320.724,815.813 c -3.18,10.329 -22.695,46.932 -29.82,58.622"
       style="fill:none;stroke:#231f20;stroke-width:0.5;stroke-linecap:round;stroke-linejoin:round;stroke-miterlimit:4;stroke-dasharray:2.8, 1.8;stroke-dashoffset:0;stroke-opacity:1"
       id="path884" />
    <path
       d="m 407.778,814.122 c -8.798,2.088 -38.888,12.938 -84.621,4.336"
       style="fill:none;stroke:#231f20;stroke-width:0.5;stroke-linecap:round;stroke-linejoin:round;stroke-miterlimit:4;stroke-dasharray:2.8, 1.8;stroke-dashoffset:0;stroke-opacity:1"
       id="path886" />
    <path
       d="m 314.78,757.237 c 6.782,-0.57 12.696,-4.585 12.696,-8.16 0,-3.576 -9.137,-8.74 -19.862,-8.74 -10.727,0 -14.954,1.682 -15.89,6.357 -1.191,5.958 5.97,10.218 10.732,11.067"
       style="fill:none;stroke:#231f20;stroke-width:0.5;stroke-linecap:round;stroke-linejoin:round;stroke-miterlimit:4;stroke-dasharray:2.8, 1.8;stroke-dashoffset:0;stroke-opacity:1"
       id="path888" />
    <path
       d="m 730.005,478.887 c 1.335,9.333 2.129,33.962 -2.637,48.791 -4.768,14.832 -11.883,20.447 -18.786,18.831"
       style="fill:none;stroke:#231f20;stroke-width:0.5;stroke-linecap:round;stroke-linejoin:round;stroke-miterlimit:4;stroke-dasharray:2.8, 1.8;stroke-dashoffset:0;stroke-opacity:1"
       id="path890" />
    <path
       d="m 703.046,545.395 c -3.486,-1.826 -9.444,-4.606 -4.281,-33.87 0.955,-5.406 2.252,-12.114 2.384,-20.953"
       style="fill:none;stroke:#231f20;stroke-width:0.5;stroke-linecap:round;stroke-linejoin:round;stroke-miterlimit:4;stroke-dasharray:2.8, 1.8;stroke-dashoffset:0;stroke-opacity:1"
       id="path892" />
    <path
       d="m 722.166,539.128 c -2.478,4.176 -11.686,9.215 -15.324,3.516 -3.598,-5.645 -2.214,-20.621 -3.044,-30.589 -0.927,-11.124 -2.119,-18.804 -2.914,-22.775 -0.794,-3.972 -2.649,-11.652 -2.119,-16.948"
       style="fill:none;stroke:#231f20;stroke-width:0.5;stroke-linecap:round;stroke-linejoin:round;stroke-miterlimit:4;stroke-dasharray:2.8, 1.8;stroke-dashoffset:0;stroke-opacity:1"
       id="path894" />
    <path
       d="m 678.09,419.408 c -2.364,3.665 -10.044,6.313 -11.369,1.281 -1.324,-5.032 -4.767,-18.009 -14.83,-26.483 0,0 16.154,2.648 16.685,-1.854 0,0 9.798,3.442 10.605,20.662"
       style="fill:none;stroke:#231f20;stroke-width:0.5;stroke-linecap:round;stroke-linejoin:round;stroke-miterlimit:4;stroke-dasharray:2.8, 1.8;stroke-dashoffset:0;stroke-opacity:1"
       id="path896" />
    <path
       d="m 686.584,455.911 c 1.588,4.766 4.768,16.421 6.09,27.012 1.326,10.592 1.59,25.161 -1.323,25.161 -2.914,0 -1.854,-5.828 -2.914,-12.184 -1.06,-6.357 -3.309,-13.639 -8.209,-17.744 -4.138,-3.466 -6.357,-8.74 -5.296,-14.035 1.058,-5.296 7.416,-12.182 11.652,-8.21"
       style="fill:none;stroke:#231f20;stroke-width:0.5;stroke-linecap:round;stroke-linejoin:round;stroke-miterlimit:4;stroke-dasharray:2.8, 1.8;stroke-dashoffset:0;stroke-opacity:1"
       id="path898" />
    <path
       d="m 349.997,478.887 c -1.334,9.333 -2.129,33.962 2.637,48.791 4.768,14.832 11.883,20.447 18.786,18.831"
       style="fill:none;stroke:#231f20;stroke-width:0.5;stroke-linecap:round;stroke-linejoin:round;stroke-miterlimit:4;stroke-dasharray:2.8, 1.8;stroke-dashoffset:0;stroke-opacity:1"
       id="path900" />
    <path
       d="m 376.957,545.395 c 3.486,-1.826 9.443,-4.606 4.28,-33.87 -0.955,-5.406 -2.251,-12.114 -2.383,-20.953"
       style="fill:none;stroke:#231f20;stroke-width:0.5;stroke-linecap:round;stroke-linejoin:round;stroke-miterlimit:4;stroke-dasharray:2.8, 1.8;stroke-dashoffset:0;stroke-opacity:1"
       id="path902" />
    <path
       d="m 357.837,539.128 c 2.477,4.176 11.686,9.215 15.323,3.516 3.599,-5.645 2.215,-20.621 3.045,-30.589 0.926,-11.124 2.119,-18.804 2.913,-22.775 0.794,-3.972 2.649,-11.652 2.119,-16.948"
       style="fill:none;stroke:#231f20;stroke-width:0.5;stroke-linecap:round;stroke-linejoin:round;stroke-miterlimit:4;stroke-dasharray:2.8, 1.8;stroke-dashoffset:0;stroke-opacity:1"
       id="path904" />
    <path
       d="m 401.913,419.408 c 2.363,3.665 10.043,6.313 11.368,1.281 1.325,-5.032 4.767,-18.009 14.83,-26.483 0,0 -16.153,2.648 -16.684,-1.854 0,0 -9.8,3.442 -10.606,20.662"
       style="fill:none;stroke:#231f20;stroke-width:0.5;stroke-linecap:round;stroke-linejoin:round;stroke-miterlimit:4;stroke-dasharray:2.8, 1.8;stroke-dashoffset:0;stroke-opacity:1"
       id="path906" />
    <path
       d="m 393.419,455.911 c -1.588,4.766 -4.769,16.421 -6.091,27.012 -1.325,10.592 -1.59,25.161 1.324,25.161 2.913,0 1.853,-5.828 2.913,-12.184 1.06,-6.357 3.31,-13.639 8.209,-17.744 4.138,-3.466 6.357,-8.74 5.297,-14.035 -1.059,-5.296 -7.416,-12.182 -11.652,-8.21"
       style="fill:none;stroke:#231f20;stroke-width:0.5;stroke-linecap:round;stroke-linejoin:round;stroke-miterlimit:4;stroke-dasharray:2.8, 1.8;stroke-dashoffset:0;stroke-opacity:1"
       id="path908" />
    <path
       d="m 614.816,612.781 c -2.383,-3.445 1.323,-4.858 5.031,-4.858 3.708,0 27.277,0.529 37.075,5.032"
       style="fill:none;stroke:#231f20;stroke-width:0.5;stroke-linecap:round;stroke-linejoin:round;stroke-miterlimit:4;stroke-dasharray:2.8, 1.8;stroke-dashoffset:0;stroke-opacity:1"
       id="path910" />
    <path
       d="m 648.166,610.394 c 3.991,-2.736 30.208,-16.507 36.298,-7.238"
       style="fill:none;stroke:#231f20;stroke-width:0.5;stroke-linecap:round;stroke-linejoin:round;stroke-miterlimit:4;stroke-dasharray:2.8, 1.8;stroke-dashoffset:0;stroke-opacity:1"
       id="path912" />
    <path
       d="m 678.607,600.073 c -1.556,-3.273 0.561,-5.921 4.535,-8.57 3.972,-2.649 10.592,-6.886 14.566,-13.771 3.971,-6.886 3.708,-15.891 -4.768,-12.977"
       style="fill:none;stroke:#231f20;stroke-width:0.5;stroke-linecap:round;stroke-linejoin:round;stroke-miterlimit:4;stroke-dasharray:2.8, 1.8;stroke-dashoffset:0;stroke-opacity:1"
       id="path914" />
    <path
       d="m 697.708,577.732 c 1.588,0.796 2.646,0.796 7.149,-2.384 4.502,-3.177 10.328,-12.975 9.004,-19.067 -1.323,-6.091 -5.031,-10.593 -7.416,-10.857 -2.383,-0.266 -8.737,-0.266 -13.771,4.236"
       style="fill:none;stroke:#231f20;stroke-width:0.5;stroke-linecap:round;stroke-linejoin:round;stroke-miterlimit:4;stroke-dasharray:2.8, 1.8;stroke-dashoffset:0;stroke-opacity:1"
       id="path916" />
    <path
       d="m 625.938,603.95 c 1.854,2.119 18.803,8.739 29.661,-9.534"
       style="fill:none;stroke:#231f20;stroke-width:0.5;stroke-linecap:round;stroke-linejoin:round;stroke-miterlimit:4;stroke-dasharray:2.8, 1.8;stroke-dashoffset:0;stroke-opacity:1"
       id="path918" />
    <path
       d="m 650.069,601.336 c 4.205,1.025 8.442,0.76 15.063,-2.152 6.621,-2.914 12.977,-6.886 13.242,-11.389 0.266,-4.502 0.084,-7.108 -1.416,-9.38"
       style="fill:none;stroke:#231f20;stroke-width:0.5;stroke-linecap:round;stroke-linejoin:round;stroke-miterlimit:4;stroke-dasharray:2.8, 1.8;stroke-dashoffset:0;stroke-opacity:1"
       id="path920" />
    <path
       d="m 662.75,571.906 c -0.265,-3.973 3.708,-11.917 11.916,-15.36 8.21,-3.442 14.037,-6.356 15.626,-6.622 1.588,-0.264 3.442,-1.059 5.032,2.914 1.589,3.974 -0.177,9.629 -3.973,13.771 -2.914,3.179 -9.798,3.973 -11.123,4.237"
       style="fill:none;stroke:#231f20;stroke-width:0.5;stroke-linecap:round;stroke-linejoin:round;stroke-miterlimit:4;stroke-dasharray:2.8, 1.8;stroke-dashoffset:0;stroke-opacity:1"
       id="path922" />
    <path
       d="m 558.671,497.489 c 4.502,1.853 24.631,8.473 45.815,4.767"
       style="fill:none;stroke:#231f20;stroke-width:0.5;stroke-linecap:round;stroke-linejoin:round;stroke-miterlimit:4;stroke-dasharray:2.8, 1.8;stroke-dashoffset:0;stroke-opacity:1"
       id="path924" />
    <path
       d="m 657.453,426.514 c -5.033,4.238 -29.662,28.866 -39.725,46.875 -10.062,18.01 -20.747,40.842 -21.542,81.097"
       style="fill:none;stroke:#231f20;stroke-width:0.5;stroke-linecap:round;stroke-linejoin:round;stroke-miterlimit:4;stroke-dasharray:2.8, 1.8;stroke-dashoffset:0;stroke-opacity:1"
       id="path926" />
    <path
       d="m 601.309,396.326 c 6.926,1.088 19.598,3.441 24.895,2.646 5.296,-0.794 7.945,-2.913 6.884,-8.739 -1.06,-5.826 -1.854,-12.184 -12.447,-12.711 -10.592,-0.531 -27.277,2.648 -32.309,3.708 -5.033,1.058 -10.063,1.324 -8.474,4.502 1.589,3.178 6.644,8.262 21.451,10.594 z"
       style="fill:none;stroke:#231f20;stroke-width:0.5;stroke-linecap:round;stroke-linejoin:round;stroke-miterlimit:4;stroke-dasharray:2.8, 1.8;stroke-dashoffset:0;stroke-opacity:1"
       id="path928" />
    <path
       d="m 641.299,420.422 c -5.297,2.385 -19.863,0.795 -27.013,-6.354 -7.15,-7.15 -2.125,-12.367 1.324,-13.771 3.45,-1.406 17.733,-3.443 20.912,7.15"
       style="fill:none;stroke:#231f20;stroke-width:0.5;stroke-linecap:round;stroke-linejoin:round;stroke-miterlimit:4;stroke-dasharray:2.8, 1.8;stroke-dashoffset:0;stroke-opacity:1"
       id="path930" />
    <path
       d="m 667.494,422.229 c -3.177,3.441 -7.658,5.079 -14.543,3.756 -6.886,-1.323 -10.594,-3.707 -12.977,-8.475 -2.383,-4.767 -4.767,-9.269 -2.648,-15.36 2.118,-6.09 6.554,-7.541 8.938,-8.336"
       style="fill:none;stroke:#231f20;stroke-width:0.5;stroke-linecap:round;stroke-linejoin:round;stroke-miterlimit:4;stroke-dasharray:2.8, 1.8;stroke-dashoffset:0;stroke-opacity:1"
       id="path932" />
    <path
       d="m 668.576,392.352 c -2.118,-1.59 -7.415,-5.031 -6.62,-6.62 0.794,-1.589 10.062,1.587 12.71,2.118 2.649,0.528 3.708,-1.06 0.53,-2.648 -3.178,-1.589 -11.916,-5.561 -15.624,-9.005 -3.707,-3.443 -12.978,-8.474 -16.42,-10.858 -3.442,-2.383 -15.36,-5.56 -17.214,-6.621 -1.854,-1.058 -8.892,-6.501 -12.069,-2"
       style="fill:none;stroke:#231f20;stroke-width:0.5;stroke-linecap:round;stroke-linejoin:round;stroke-miterlimit:4;stroke-dasharray:2.8, 1.8;stroke-dashoffset:0;stroke-opacity:1"
       id="path934" />
    <path
       d="m 611.108,365.076 c 0,1.852 -1.059,4.766 4.502,4.235 5.56,-0.53 12.606,1.475 20.126,6.622 10.065,6.885 10.594,16.418 16.155,18.273"
       style="fill:none;stroke:#231f20;stroke-width:0.5;stroke-linecap:round;stroke-linejoin:round;stroke-miterlimit:4;stroke-dasharray:2.8, 1.8;stroke-dashoffset:0;stroke-opacity:1"
       id="path936" />
    <path
       d="m 651.626,422.011 c 2.921,-0.152 4.518,-1.528 2.119,-12.18 -2.47,-10.97 -3.177,-17.213 -5.428,-17.928 -1.528,-0.484 -2.476,-0.504 -1.987,6.805 0.585,8.744 0.266,23.569 5.296,23.303 z"
       style="fill:none;stroke:#231f20;stroke-width:0.5;stroke-linecap:round;stroke-linejoin:round;stroke-miterlimit:4;stroke-dasharray:2.8, 1.8;stroke-dashoffset:0;stroke-opacity:1"
       id="path938" />
    <path
       d="m 624.349,569.788 c -1.853,-3.179 -7.15,-15.626 5.296,-13.242 12.448,2.383 29.939,4.006 43.837,0.545"
       style="fill:none;stroke:#231f20;stroke-width:0.5;stroke-linecap:round;stroke-linejoin:round;stroke-miterlimit:4;stroke-dasharray:2.8, 1.8;stroke-dashoffset:0;stroke-opacity:1"
       id="path940" />
    <path
       d="m 629.645,556.546 c -1.853,-3.973 -2.914,-13.772 6.357,-22.775"
       style="fill:none;stroke:#231f20;stroke-width:0.5;stroke-linecap:round;stroke-linejoin:round;stroke-miterlimit:4;stroke-dasharray:2.8, 1.8;stroke-dashoffset:0;stroke-opacity:1"
       id="path942" />
    <path
       d="m 690.292,549.924 c 3.708,-3.178 4.502,-14.563 -4.503,-15.624 -9.003,-1.059 -16.683,4.502 -27.278,2.119"
       style="fill:none;stroke:#231f20;stroke-width:0.5;stroke-linecap:round;stroke-linejoin:round;stroke-miterlimit:4;stroke-dasharray:2.8, 1.8;stroke-dashoffset:0;stroke-opacity:1"
       id="path944" />
    <path
       d="m 658.511,536.419 c -5.824,-0.53 -12.71,-2.914 -16.418,-8.474 -2.761,-4.141 -3.422,-10.566 -3.422,-14.274 0,-3.708 -0.022,-20.683 8.189,-29.424 8.21,-8.738 15.096,-12.448 20.656,-7.415 5.562,5.032 3.442,10.329 0.794,12.448 0,0 10.318,-1.586 15.091,16.155"
       style="fill:none;stroke:#231f20;stroke-width:0.5;stroke-linecap:round;stroke-linejoin:round;stroke-miterlimit:4;stroke-dasharray:2.8, 1.8;stroke-dashoffset:0;stroke-opacity:1"
       id="path946" />
    <path
       d="m 638.671,513.671 c 3.158,-4.265 22.225,-20.95 29.639,-24.391"
       style="fill:none;stroke:#231f20;stroke-width:0.5;stroke-linecap:round;stroke-linejoin:round;stroke-miterlimit:4;stroke-dasharray:2.8, 1.8;stroke-dashoffset:0;stroke-opacity:1"
       id="path948" />
    <path
       d="m 674.666,526.356 c -2.648,-0.267 -2.913,-3.708 -4.501,-6.091 -1.589,-2.385 -12.995,-20.148 -20.666,-17.225"
       style="fill:none;stroke:#231f20;stroke-width:0.5;stroke-linecap:round;stroke-linejoin:round;stroke-miterlimit:4;stroke-dasharray:2.8, 1.8;stroke-dashoffset:0;stroke-opacity:1"
       id="path950" />
    <path
       d="m 611.638,559.724 c 8.209,-6.092 1.238,-40.501 -14.212,-24.355"
       style="fill:none;stroke:#231f20;stroke-width:0.5;stroke-linecap:round;stroke-linejoin:round;stroke-miterlimit:4;stroke-dasharray:2.8, 1.8;stroke-dashoffset:0;stroke-opacity:1"
       id="path952" />
    <path
       d="m 607.791,558.607 c 0.934,7.538 0.337,11.909 -0.655,18.661 -0.993,6.755 -1.589,14.272 -4.569,14.103 -1.521,-0.086 -2.583,-1.192 -2.981,-2.383 0,0 -18.272,7.944 -27.805,-3.774"
       style="fill:none;stroke:#231f20;stroke-width:0.5;stroke-linecap:round;stroke-linejoin:round;stroke-miterlimit:4;stroke-dasharray:2.8, 1.8;stroke-dashoffset:0;stroke-opacity:1"
       id="path954" />
    <path
       d="m 599.586,588.988 c -1.389,-2.98 -2.382,-6.156 -2.382,-14.499 0,-8.344 -1.018,-18.414 -1.018,-20.003"
       style="fill:none;stroke:#231f20;stroke-width:0.5;stroke-linecap:round;stroke-linejoin:round;stroke-miterlimit:4;stroke-dasharray:2.8, 1.8;stroke-dashoffset:0;stroke-opacity:1"
       id="path956" />
    <path
       d="m 548.451,579.236 c -1.631,-3.512 -2.068,-14.304 6.844,-21.432 10.924,-8.74 19.948,-12.158 23.457,-13.351"
       style="fill:none;stroke:#231f20;stroke-width:0.5;stroke-linecap:round;stroke-linejoin:round;stroke-miterlimit:4;stroke-dasharray:2.8, 1.8;stroke-dashoffset:0;stroke-opacity:1"
       id="path958" />
    <path
       d="m 557.552,588.694 c 2.906,1.088 10.852,0.492 14.229,-3.48 3.336,-3.925 5.76,-8.939 2.582,-14.301 -3.178,-5.364 -16.562,-8.59 -26.554,-0.42"
       style="fill:none;stroke:#231f20;stroke-width:0.5;stroke-linecap:round;stroke-linejoin:round;stroke-miterlimit:4;stroke-dasharray:2.8, 1.8;stroke-dashoffset:0;stroke-opacity:1"
       id="path960" />
    <path
       d="m 574.668,571.458 c 0.092,-2.333 -0.703,-6.902 -5.47,-10.278"
       style="fill:none;stroke:#231f20;stroke-width:0.5;stroke-linecap:round;stroke-linejoin:round;stroke-miterlimit:4;stroke-dasharray:2.8, 1.8;stroke-dashoffset:0;stroke-opacity:1"
       id="path962" />
    <path
       d="m 553.81,559.105 c 3.472,-0.903 12.163,0.139 15.388,2.075 3.226,1.938 9.732,2.582 12.91,2.384 3.179,-0.199 12.184,-5.893 9.667,-10.991"
       style="fill:none;stroke:#231f20;stroke-width:0.5;stroke-linecap:round;stroke-linejoin:round;stroke-miterlimit:4;stroke-dasharray:2.8, 1.8;stroke-dashoffset:0;stroke-opacity:1"
       id="path964" />
    <path
       d="m 465.187,612.781 c 2.383,-3.445 -1.324,-4.858 -5.032,-4.858 -3.707,0 -27.278,0.529 -37.075,5.032"
       style="fill:none;stroke:#231f20;stroke-width:0.5;stroke-linecap:round;stroke-linejoin:round;stroke-miterlimit:4;stroke-dasharray:2.8, 1.8;stroke-dashoffset:0;stroke-opacity:1"
       id="path966" />
    <path
       d="m 431.835,610.394 c -3.989,-2.736 -30.206,-16.507 -36.296,-7.238"
       style="fill:none;stroke:#231f20;stroke-width:0.5;stroke-linecap:round;stroke-linejoin:round;stroke-miterlimit:4;stroke-dasharray:2.8, 1.8;stroke-dashoffset:0;stroke-opacity:1"
       id="path968" />
    <path
       d="m 401.395,600.073 c 1.557,-3.273 -0.561,-5.921 -4.535,-8.57 -3.972,-2.649 -10.592,-6.886 -14.565,-13.771 -3.971,-6.886 -3.708,-15.891 4.768,-12.977"
       style="fill:none;stroke:#231f20;stroke-width:0.5;stroke-linecap:round;stroke-linejoin:round;stroke-miterlimit:4;stroke-dasharray:2.8, 1.8;stroke-dashoffset:0;stroke-opacity:1"
       id="path970" />
    <path
       d="m 382.295,577.732 c -1.588,0.796 -2.647,0.796 -7.149,-2.384 -4.502,-3.177 -10.328,-12.975 -9.005,-19.067 1.323,-6.091 5.031,-10.593 7.416,-10.857 2.383,-0.266 8.738,-0.266 13.771,4.236"
       style="fill:none;stroke:#231f20;stroke-width:0.5;stroke-linecap:round;stroke-linejoin:round;stroke-miterlimit:4;stroke-dasharray:2.8, 1.8;stroke-dashoffset:0;stroke-opacity:1"
       id="path972" />
    <path
       d="m 454.064,603.95 c -1.854,2.119 -18.802,8.739 -29.66,-9.534"
       style="fill:none;stroke:#231f20;stroke-width:0.5;stroke-linecap:round;stroke-linejoin:round;stroke-miterlimit:4;stroke-dasharray:2.8, 1.8;stroke-dashoffset:0;stroke-opacity:1"
       id="path974" />
    <path
       d="m 429.934,601.336 c -4.206,1.025 -8.443,0.76 -15.064,-2.152 -6.62,-2.914 -12.977,-6.886 -13.243,-11.389 -0.264,-4.502 -0.083,-7.108 1.416,-9.38"
       style="fill:none;stroke:#231f20;stroke-width:0.5;stroke-linecap:round;stroke-linejoin:round;stroke-miterlimit:4;stroke-dasharray:2.8, 1.8;stroke-dashoffset:0;stroke-opacity:1"
       id="path976" />
    <path
       d="m 417.252,571.906 c 0.266,-3.973 -3.708,-11.917 -11.917,-15.36 -8.209,-3.442 -14.036,-6.356 -15.624,-6.622 -1.588,-0.264 -3.443,-1.059 -5.033,2.914 -1.589,3.974 0.177,9.629 3.974,13.771 2.913,3.179 9.797,3.973 11.122,4.237"
       style="fill:none;stroke:#231f20;stroke-width:0.5;stroke-linecap:round;stroke-linejoin:round;stroke-miterlimit:4;stroke-dasharray:2.8, 1.8;stroke-dashoffset:0;stroke-opacity:1"
       id="path978" />
    <path
       d="m 521.331,497.489 c -4.502,1.853 -24.631,8.473 -45.815,4.767"
       style="fill:none;stroke:#231f20;stroke-width:0.5;stroke-linecap:round;stroke-linejoin:round;stroke-miterlimit:4;stroke-dasharray:2.8, 1.8;stroke-dashoffset:0;stroke-opacity:1"
       id="path980" />
    <path
       d="m 422.549,426.514 c 5.034,4.238 29.662,28.866 39.726,46.875 10.062,18.01 20.747,40.842 21.541,81.097"
       style="fill:none;stroke:#231f20;stroke-width:0.5;stroke-linecap:round;stroke-linejoin:round;stroke-miterlimit:4;stroke-dasharray:2.8, 1.8;stroke-dashoffset:0;stroke-opacity:1"
       id="path982" />
    <path
       d="m 540.002,472.595 c -3.84,0 -4.635,-7.416 -10.197,-7.416 -5.56,0 -10.168,12.945 -11.917,18.538 -1.323,4.238 0.266,6.887 3.179,7.946 2.348,0.854 6.63,1.461 10.131,0.159 2.002,-0.745 6.287,-4.131 8.804,-4.131 2.516,0 6.8,3.386 8.802,4.131 3.502,1.302 7.783,0.695 10.131,-0.159 2.914,-1.059 4.503,-3.708 3.179,-7.946 -1.749,-5.593 -6.356,-18.538 -11.916,-18.538 -5.563,0 -6.357,7.416 -10.196,7.416 z"
       style="fill:none;stroke:#231f20;stroke-width:0.5;stroke-linecap:round;stroke-linejoin:round;stroke-miterlimit:4;stroke-dasharray:2.8, 1.8;stroke-dashoffset:0;stroke-opacity:1"
       id="path984" />
    <path
       d="m 478.694,396.326 c -6.927,1.088 -19.599,3.441 -24.895,2.646 -5.297,-0.794 -7.945,-2.913 -6.885,-8.739 1.06,-5.826 1.855,-12.184 12.447,-12.711 10.592,-0.531 27.277,2.648 32.309,3.708 5.033,1.058 10.063,1.324 8.474,4.502 -1.589,3.178 -6.644,8.262 -21.45,10.594 z"
       style="fill:none;stroke:#231f20;stroke-width:0.5;stroke-linecap:round;stroke-linejoin:round;stroke-miterlimit:4;stroke-dasharray:2.8, 1.8;stroke-dashoffset:0;stroke-opacity:1"
       id="path986" />
    <path
       d="m 438.704,420.422 c 5.297,2.385 19.863,0.795 27.013,-6.354 7.15,-7.15 2.124,-12.367 -1.325,-13.771 -3.449,-1.406 -17.733,-3.443 -20.912,7.15"
       style="fill:none;stroke:#231f20;stroke-width:0.5;stroke-linecap:round;stroke-linejoin:round;stroke-miterlimit:4;stroke-dasharray:2.8, 1.8;stroke-dashoffset:0;stroke-opacity:1"
       id="path988" />
    <path
       d="m 412.508,422.229 c 3.178,3.441 7.658,5.079 14.543,3.756 6.886,-1.323 10.594,-3.707 12.977,-8.475 2.384,-4.767 4.767,-9.269 2.648,-15.36 -2.117,-6.09 -6.554,-7.541 -8.937,-8.336"
       style="fill:none;stroke:#231f20;stroke-width:0.5;stroke-linecap:round;stroke-linejoin:round;stroke-miterlimit:4;stroke-dasharray:2.8, 1.8;stroke-dashoffset:0;stroke-opacity:1"
       id="path990" />
    <path
       d="m 411.427,392.352 c 2.117,-1.59 7.414,-5.031 6.62,-6.62 -0.795,-1.589 -10.063,1.587 -12.712,2.118 -2.647,0.528 -3.708,-1.06 -0.528,-2.648 3.177,-1.589 11.915,-5.561 15.623,-9.005 3.708,-3.443 12.978,-8.474 16.421,-10.858 3.442,-2.383 15.359,-5.56 17.213,-6.621 1.854,-1.058 8.892,-6.501 12.069,-2"
       style="fill:none;stroke:#231f20;stroke-width:0.5;stroke-linecap:round;stroke-linejoin:round;stroke-miterlimit:4;stroke-dasharray:2.8, 1.8;stroke-dashoffset:0;stroke-opacity:1"
       id="path992" />
    <path
       d="m 468.895,365.076 c 0,1.852 1.058,4.766 -4.503,4.235 -5.56,-0.53 -12.606,1.475 -20.126,6.622 -10.065,6.885 -10.593,16.418 -16.155,18.273"
       style="fill:none;stroke:#231f20;stroke-width:0.5;stroke-linecap:round;stroke-linejoin:round;stroke-miterlimit:4;stroke-dasharray:2.8, 1.8;stroke-dashoffset:0;stroke-opacity:1"
       id="path994" />
    <path
       d="m 428.376,422.011 c -2.921,-0.152 -4.518,-1.528 -2.119,-12.18 2.47,-10.97 3.178,-17.213 5.429,-17.928 1.527,-0.484 2.476,-0.504 1.987,6.805 -0.585,8.744 -0.266,23.569 -5.297,23.303 z"
       style="fill:none;stroke:#231f20;stroke-width:0.5;stroke-linecap:round;stroke-linejoin:round;stroke-miterlimit:4;stroke-dasharray:2.8, 1.8;stroke-dashoffset:0;stroke-opacity:1"
       id="path996" />
    <path
       d="m 455.653,569.788 c 1.854,-3.179 7.15,-15.626 -5.295,-13.242 -12.449,2.383 -29.939,4.006 -43.837,0.545"
       style="fill:none;stroke:#231f20;stroke-width:0.5;stroke-linecap:round;stroke-linejoin:round;stroke-miterlimit:4;stroke-dasharray:2.8, 1.8;stroke-dashoffset:0;stroke-opacity:1"
       id="path998" />
    <path
       d="m 450.358,556.546 c 1.852,-3.973 2.913,-13.772 -6.357,-22.775"
       style="fill:none;stroke:#231f20;stroke-width:0.5;stroke-linecap:round;stroke-linejoin:round;stroke-miterlimit:4;stroke-dasharray:2.8, 1.8;stroke-dashoffset:0;stroke-opacity:1"
       id="path1000" />
    <path
       d="m 389.711,549.924 c -3.708,-3.178 -4.503,-14.563 4.502,-15.624 9.003,-1.059 16.683,4.502 27.278,2.119"
       style="fill:none;stroke:#231f20;stroke-width:0.5;stroke-linecap:round;stroke-linejoin:round;stroke-miterlimit:4;stroke-dasharray:2.8, 1.8;stroke-dashoffset:0;stroke-opacity:1"
       id="path1002" />
    <path
       d="m 421.491,536.419 c 5.825,-0.53 12.71,-2.914 16.418,-8.474 2.761,-4.141 3.423,-10.566 3.423,-14.274 0,-3.708 0.021,-20.683 -8.189,-29.424 -8.211,-8.738 -15.096,-12.448 -20.656,-7.415 -5.563,5.032 -3.444,10.329 -0.795,12.448 0,0 -10.318,-1.586 -15.09,16.155"
       style="fill:none;stroke:#231f20;stroke-width:0.5;stroke-linecap:round;stroke-linejoin:round;stroke-miterlimit:4;stroke-dasharray:2.8, 1.8;stroke-dashoffset:0;stroke-opacity:1"
       id="path1004" />
    <path
       d="m 441.332,513.671 c -3.158,-4.265 -22.225,-20.95 -29.64,-24.391"
       style="fill:none;stroke:#231f20;stroke-width:0.5;stroke-linecap:round;stroke-linejoin:round;stroke-miterlimit:4;stroke-dasharray:2.8, 1.8;stroke-dashoffset:0;stroke-opacity:1"
       id="path1006" />
    <path
       d="m 405.335,526.356 c 2.649,-0.267 2.915,-3.708 4.503,-6.091 1.589,-2.385 12.995,-20.148 20.665,-17.225"
       style="fill:none;stroke:#231f20;stroke-width:0.5;stroke-linecap:round;stroke-linejoin:round;stroke-miterlimit:4;stroke-dasharray:2.8, 1.8;stroke-dashoffset:0;stroke-opacity:1"
       id="path1008" />
    <path
       d="m 468.364,559.724 c -8.209,-6.092 -1.238,-40.501 14.212,-24.355"
       style="fill:none;stroke:#231f20;stroke-width:0.5;stroke-linecap:round;stroke-linejoin:round;stroke-miterlimit:4;stroke-dasharray:2.8, 1.8;stroke-dashoffset:0;stroke-opacity:1"
       id="path1010" />
    <path
       d="m 472.212,558.607 c -0.934,7.538 -0.338,11.909 0.655,18.661 0.993,6.755 1.589,14.272 4.568,14.103 1.522,-0.086 2.583,-1.192 2.981,-2.383 0,0 18.273,7.944 27.805,-3.774"
       style="fill:none;stroke:#231f20;stroke-width:0.5;stroke-linecap:round;stroke-linejoin:round;stroke-miterlimit:4;stroke-dasharray:2.8, 1.8;stroke-dashoffset:0;stroke-opacity:1"
       id="path1012" />
    <path
       d="m 480.416,588.988 c 1.39,-2.98 2.382,-6.156 2.382,-14.499 0,-8.344 1.018,-18.414 1.018,-20.003"
       style="fill:none;stroke:#231f20;stroke-width:0.5;stroke-linecap:round;stroke-linejoin:round;stroke-miterlimit:4;stroke-dasharray:2.8, 1.8;stroke-dashoffset:0;stroke-opacity:1"
       id="path1014" />
    <path
       d="m 540.002,530.989 c -4.569,0 -3.576,14.299 -3.576,20.459 0,10.791 -1.389,19.465 -3.574,25.224 -2.186,5.762 -9.933,11.918 -12.514,13.507 -2.582,1.589 -2.979,2.979 -0.199,3.376 2.78,0.398 8.144,-3.178 11.719,-6.355 3.575,-3.177 5.164,-4.965 8.144,-4.965 2.978,0 4.567,1.788 8.143,4.965 3.574,3.177 8.937,6.753 11.718,6.355 2.78,-0.397 2.384,-1.787 -0.198,-3.376 -2.583,-1.589 -10.329,-7.745 -12.514,-13.507 -2.185,-5.759 -3.575,-14.433 -3.575,-25.224 0,-6.16 0.993,-20.459 -3.574,-20.459 z"
       style="fill:none;stroke:#231f20;stroke-width:0.5;stroke-linecap:round;stroke-linejoin:round;stroke-miterlimit:4;stroke-dasharray:2.8, 1.8;stroke-dashoffset:0;stroke-opacity:1"
       id="path1016" />
    <path
       d="m 531.551,579.236 c 1.631,-3.512 2.068,-14.304 -6.844,-21.432 -10.924,-8.74 -19.948,-12.158 -23.457,-13.351"
       style="fill:none;stroke:#231f20;stroke-width:0.5;stroke-linecap:round;stroke-linejoin:round;stroke-miterlimit:4;stroke-dasharray:2.8, 1.8;stroke-dashoffset:0;stroke-opacity:1"
       id="path1018" />
    <path
       d="m 522.451,588.694 c -2.908,1.088 -10.853,0.492 -14.23,-3.48 -3.335,-3.925 -5.759,-8.938 -2.582,-14.301 3.178,-5.364 16.563,-8.59 26.555,-0.42"
       style="fill:none;stroke:#231f20;stroke-width:0.5;stroke-linecap:round;stroke-linejoin:round;stroke-miterlimit:4;stroke-dasharray:2.8, 1.8;stroke-dashoffset:0;stroke-opacity:1"
       id="path1020" />
    <path
       d="m 505.334,571.458 c -0.091,-2.333 0.703,-6.902 5.47,-10.278"
       style="fill:none;stroke:#231f20;stroke-width:0.5;stroke-linecap:round;stroke-linejoin:round;stroke-miterlimit:4;stroke-dasharray:2.8, 1.8;stroke-dashoffset:0;stroke-opacity:1"
       id="path1022" />
    <path
       d="m 526.192,559.105 c -3.471,-0.903 -12.163,0.139 -15.388,2.075 -3.226,1.938 -9.732,2.582 -12.91,2.384 -3.179,-0.199 -12.184,-5.893 -9.667,-10.991"
       style="fill:none;stroke:#231f20;stroke-width:0.5;stroke-linecap:round;stroke-linejoin:round;stroke-miterlimit:4;stroke-dasharray:2.8, 1.8;stroke-dashoffset:0;stroke-opacity:1"
       id="path1024" />
    <path
       d="m 634.525,816.542 c 2.27,-12.911 4.919,-27.211 3.33,-37.275 -1.589,-10.063 -13.24,-46.08 -28.866,-54.29"
       style="fill:none;stroke:#231f20;stroke-width:0.5;stroke-linecap:round;stroke-linejoin:round;stroke-miterlimit:4;stroke-dasharray:2.8, 1.8;stroke-dashoffset:0;stroke-opacity:1"
       id="path1026" />
    <path
       d="m 445.477,816.542 c -2.27,-12.911 -4.918,-27.211 -3.33,-37.275 1.589,-10.063 13.24,-46.08 28.867,-54.29"
       style="fill:none;stroke:#231f20;stroke-width:0.5;stroke-linecap:round;stroke-linejoin:round;stroke-miterlimit:4;stroke-dasharray:2.8, 1.8;stroke-dashoffset:0;stroke-opacity:1"
       id="path1028" />
    <path
       d="m 396.86,591.503 c 0,0 3.989,-7.262 6.183,-13.088"
       style="fill:none;stroke:#231f20;stroke-width:0.5;stroke-linecap:round;stroke-linejoin:round;stroke-miterlimit:4;stroke-dasharray:2.8, 1.8;stroke-dashoffset:0;stroke-opacity:1"
       id="path1030" />
    <path
       d="m 683.142,591.503 c 0,0 -3.988,-7.262 -6.184,-13.088"
       style="fill:none;stroke:#231f20;stroke-width:0.5;stroke-linecap:round;stroke-linejoin:round;stroke-miterlimit:4;stroke-dasharray:2.8, 1.8;stroke-dashoffset:0;stroke-opacity:1"
       id="path1032" />
    <path
       d="m 785.668,742.627 c 14.45,7.94 62.618,-0.714 73.752,-8.07"
       style="fill:none;stroke:#231f20;stroke-width:0.5;stroke-linecap:round;stroke-linejoin:round;stroke-miterlimit:4;stroke-dasharray:2.8, 1.8;stroke-dashoffset:0;stroke-opacity:1"
       id="path1034" />
    <path
       d="m 294.334,742.627 c -14.45,7.94 -62.618,-0.714 -73.752,-8.07"
       style="fill:none;stroke:#231f20;stroke-width:0.5;stroke-linecap:round;stroke-linejoin:round;stroke-miterlimit:4;stroke-dasharray:2.8, 1.8;stroke-dashoffset:0;stroke-opacity:1"
       id="path1036" />
    <path
       d="m 707.24,743.515 c 1.773,1.969 5.297,-1.853 9.005,-6.885 3.708,-5.032 20.128,-23.57 27.277,-29.661 7.15,-6.091 11.653,-13.242 15.096,-21.717 3.442,-8.473 7.679,-11.652 11.918,-15.625 4.236,-3.972 5.296,-8.473 8.474,-13.24 3.177,-4.767 12.977,-10.593 9.004,-19.332 -3.972,-8.741 -11.388,-8.741 -21.717,-5.562 -10.329,3.177 -16.154,7.15 -28.866,15.625 -12.713,8.474 -31.8,12.97 -34.428,21.981 -1.854,6.356 1.325,9.533 7.415,17.479 6.093,7.944 6.886,17.212 4.238,29.13 -2.649,11.917 -9.799,25.159 -7.416,27.807"
       style="fill:#d3d2d2;fill-opacity:1;fill-rule:nonzero;stroke:none;stroke-width:0.1"
       id="path1038" />
    <path
       d="m 707.24,743.515 c 1.773,1.969 5.297,-1.853 9.005,-6.885 3.708,-5.032 20.128,-23.57 27.277,-29.661 7.15,-6.091 11.653,-13.242 15.096,-21.717 3.442,-8.473 7.679,-11.652 11.918,-15.625 4.236,-3.972 5.296,-8.473 8.474,-13.24 3.177,-4.767 12.977,-10.593 9.004,-19.332 -3.972,-8.741 -11.388,-8.741 -21.717,-5.562 -10.329,3.177 -16.154,7.15 -28.866,15.625 -12.713,8.474 -31.8,12.97 -34.428,21.981 -1.854,6.356 1.325,9.533 7.415,17.479 6.093,7.944 6.886,17.212 4.238,29.13 -2.649,11.917 -9.799,25.159 -7.416,27.807 z"
       style="fill:none;stroke:#231f20;stroke-width:0.75;stroke-linecap:round;stroke-linejoin:round;stroke-miterlimit:4;stroke-dasharray:0, 2;stroke-dashoffset:0;stroke-opacity:1"
       id="path1040" />
    <path
       d="m 776.213,606.466 c 0.596,3.972 3.127,10.924 4.319,11.521 1.191,0.595 5.363,2.582 2.98,-1.59 -2.385,-4.172 -5.762,-11.917 -6.357,-16.286 -0.596,-4.37 3.179,-10.527 9.733,-4.569 6.554,5.959 6.752,13.705 12.513,14.498 5.761,0.795 11.321,-0.992 15.493,-7.943 4.172,-6.953 3.574,-12.117 3.376,-14.102 -0.199,-1.987 -5.562,-10.529 -13.308,-18.671 -7.746,-8.144 -12.116,-11.321 -15.492,-11.321 -4.965,0 -8.991,7.223 -13.507,7.944 -4.964,0.794 -8.251,0.595 -10.039,-3.178"
       style="fill:none;stroke:#231f20;stroke-width:0.75;stroke-linecap:round;stroke-linejoin:round;stroke-miterlimit:4;stroke-dasharray:0, 2;stroke-dashoffset:0;stroke-opacity:1"
       id="path1042" />
    <path
       d="m 372.763,743.515 c -1.774,1.969 -5.297,-1.853 -9.005,-6.885 -3.708,-5.032 -20.129,-23.57 -27.278,-29.661 -7.15,-6.091 -11.652,-13.242 -15.096,-21.717 -3.442,-8.473 -7.679,-11.652 -11.918,-15.625 -4.235,-3.972 -5.295,-8.473 -8.473,-13.24 -3.178,-4.767 -12.977,-10.593 -9.005,-19.332 3.973,-8.741 11.388,-8.741 21.717,-5.562 10.33,3.177 16.154,7.15 28.867,15.625 12.712,8.474 31.799,12.97 34.427,21.981 1.855,6.356 -1.324,9.533 -7.415,17.479 -6.092,7.944 -6.885,17.212 -4.237,29.13 2.649,11.917 9.799,25.159 7.416,27.807"
       style="fill:#d3d2d2;fill-opacity:1;fill-rule:nonzero;stroke:none;stroke-width:0.1"
       id="path1044" />
    <path
       d="m 372.763,743.515 c -1.774,1.969 -5.297,-1.853 -9.005,-6.885 -3.708,-5.032 -20.129,-23.57 -27.278,-29.661 -7.15,-6.091 -11.652,-13.242 -15.096,-21.717 -3.442,-8.473 -7.679,-11.652 -11.918,-15.625 -4.235,-3.972 -5.295,-8.473 -8.473,-13.24 -3.178,-4.767 -12.977,-10.593 -9.005,-19.332 3.973,-8.741 11.388,-8.741 21.717,-5.562 10.33,3.177 16.154,7.15 28.867,15.625 12.712,8.474 31.799,12.97 34.427,21.981 1.855,6.356 -1.324,9.533 -7.415,17.479 -6.092,7.944 -6.885,17.212 -4.237,29.13 2.649,11.917 9.799,25.159 7.416,27.807 z"
       style="fill:none;stroke:#231f20;stroke-width:0.75;stroke-linecap:round;stroke-linejoin:round;stroke-miterlimit:4;stroke-dasharray:0, 2;stroke-dashoffset:0;stroke-opacity:1"
       id="path1046" />
    <path
       d="m 540.002,697.435 c -7.616,0 -21.568,3.378 -34.825,2.649 -14.638,-0.806 -28.372,-5.775 -30.455,-6.886 -3.973,-2.119 -6.622,1.589 -7.68,3.442 -1.06,1.855 4.236,7.945 8.208,10.859 3.974,2.912 5.033,8.474 11.124,12.711 6.09,4.237 13.506,8.209 21.98,8.209 8.475,0 24.101,-3.442 31.648,-3.442 7.545,0 23.171,3.442 31.646,3.442 8.475,0 15.89,-3.972 21.981,-8.209 6.091,-4.237 7.149,-9.799 11.123,-12.711 3.973,-2.914 9.268,-9.004 8.208,-10.859 -1.058,-1.853 -3.707,-5.561 -7.679,-3.442 -2.084,1.111 -15.817,6.08 -30.455,6.886 -13.257,0.729 -27.21,-2.649 -34.824,-2.649"
       style="fill:#d3d2d2;fill-opacity:1;fill-rule:nonzero;stroke:none;stroke-width:0.1"
       id="path1048" />
    <path
       d="m 540.002,697.435 c -7.616,0 -21.568,3.378 -34.825,2.649 -14.638,-0.806 -28.372,-5.775 -30.455,-6.886 -3.973,-2.119 -6.622,1.589 -7.68,3.442 -1.06,1.855 4.236,7.945 8.208,10.859 3.974,2.912 5.033,8.474 11.124,12.711 6.09,4.237 13.506,8.209 21.98,8.209 8.475,0 24.101,-3.442 31.648,-3.442 7.545,0 23.171,3.442 31.646,3.442 8.475,0 15.89,-3.972 21.981,-8.209 6.091,-4.237 7.149,-9.799 11.123,-12.711 3.973,-2.914 9.268,-9.004 8.208,-10.859 -1.058,-1.853 -3.707,-5.561 -7.679,-3.442 -2.084,1.111 -15.817,6.08 -30.455,6.886 -13.257,0.729 -27.21,-2.649 -34.824,-2.649 z"
       style="fill:none;stroke:#231f20;stroke-width:0.75;stroke-linecap:round;stroke-linejoin:round;stroke-miterlimit:4;stroke-dasharray:0, 2;stroke-dashoffset:0;stroke-opacity:1"
       id="path1050" />
    <path
       d="m 540.002,801.513 c -3.046,0 -7.547,2.118 -10.46,5.032 -2.915,2.913 -9.8,11.387 -25.69,17.213 -15.89,5.826 -21.186,3.707 -22.51,7.946 -1.324,4.237 4.237,4.237 11.122,5.031 6.886,0.795 35.752,2.914 47.538,2.914 11.784,0 40.651,-2.119 47.536,-2.914 6.885,-0.794 12.446,-0.794 11.123,-5.031 -1.324,-4.239 -6.62,-2.12 -22.511,-7.946 -15.89,-5.826 -22.776,-14.3 -25.689,-17.213 -2.914,-2.914 -7.415,-5.032 -10.459,-5.032"
       style="fill:#d3d2d2;fill-opacity:1;fill-rule:nonzero;stroke:none;stroke-width:0.1"
       id="path1052" />
    <path
       d="m 540.002,801.513 c -3.046,0 -7.547,2.118 -10.46,5.032 -2.915,2.913 -9.8,11.387 -25.69,17.213 -15.89,5.826 -21.186,3.707 -22.51,7.946 -1.324,4.237 4.237,4.237 11.122,5.031 6.886,0.795 35.752,2.914 47.538,2.914 11.784,0 40.651,-2.119 47.536,-2.914 6.885,-0.794 12.446,-0.794 11.123,-5.031 -1.324,-4.239 -6.62,-2.12 -22.511,-7.946 -15.89,-5.826 -22.776,-14.3 -25.689,-17.213 -2.914,-2.914 -7.415,-5.032 -10.459,-5.032 z"
       style="fill:none;stroke:#231f20;stroke-width:0.75;stroke-linecap:round;stroke-linejoin:round;stroke-miterlimit:4;stroke-dasharray:0, 2;stroke-dashoffset:0;stroke-opacity:1"
       id="path1054" />
    <path
       d="m 540.002,749.081 c -1.458,0 -6.225,0.261 -13.638,2.114 -7.492,1.873 -2.023,13.386 -0.267,18.273 1.219,3.391 8.476,3.973 13.905,3.973 5.428,0 12.685,-0.582 13.904,-3.973 1.756,-4.887 7.224,-16.4 -0.267,-18.273 -7.414,-1.853 -12.181,-2.114 -13.637,-2.114"
       style="fill:#d3d2d2;fill-opacity:1;fill-rule:nonzero;stroke:none;stroke-width:0.1"
       id="path1056" />
    <path
       d="m 540.002,749.081 c -1.458,0 -6.225,0.261 -13.638,2.114 -7.492,1.873 -2.023,13.386 -0.267,18.273 1.219,3.391 8.476,3.973 13.905,3.973 5.428,0 12.685,-0.582 13.904,-3.973 1.756,-4.887 7.224,-16.4 -0.267,-18.273 -7.414,-1.853 -12.181,-2.114 -13.637,-2.114 z"
       style="fill:none;stroke:#231f20;stroke-width:0.75;stroke-linecap:round;stroke-linejoin:round;stroke-miterlimit:4;stroke-dasharray:0, 2;stroke-dashoffset:0;stroke-opacity:1"
       id="path1058" />
    <path
       d="m 303.593,617.192 c -1.045,3.327 10.112,-4.237 22.031,-4.768 8.24,-0.365 24.097,6.885 32.044,15.361 7.943,8.475 22.244,18.273 28.335,20.657 6.091,2.384 7.416,-5.297 9.004,-8.21 1.589,-2.913 3.973,-1.854 6.092,-0.795 2.119,1.06 4.766,0.53 7.151,-0.265 2.382,-0.794 5.831,-2.117 8.472,1.589 2.645,3.707 7.416,10.065 10.329,14.036 2.913,3.973 15.096,11.388 24.629,13.771 9.534,2.384 25.425,2.119 33.899,2.119 8.474,0 44.756,-4.236 54.423,-4.236 9.664,0 45.948,4.236 54.421,4.236 8.475,0 24.365,0.265 33.9,-2.119 9.532,-2.383 21.716,-9.798 24.628,-13.771 2.914,-3.971 7.685,-10.329 10.329,-14.036 2.641,-3.706 6.09,-2.383 8.473,-1.589 2.384,0.795 5.032,1.325 7.151,0.265 2.119,-1.059 4.502,-2.118 6.091,0.795 1.589,2.913 2.914,10.594 9.005,8.21 6.09,-2.384 20.391,-12.182 28.335,-20.657 7.947,-8.476 23.804,-15.726 32.044,-15.361 11.918,0.531 23.075,8.095 22.031,4.768"
       style="fill:none;stroke:#231f20;stroke-width:0.75;stroke-linecap:round;stroke-linejoin:round;stroke-miterlimit:4;stroke-dasharray:0, 2;stroke-dashoffset:0;stroke-opacity:1"
       id="path1060" />
    <path
       d="m 337.101,597.905 c 24.231,-7.546 36.11,1.885 37.699,5.062 1.16,2.317 3.92,7.273 8.091,10.849 4.172,3.574 14.698,10.129 18.273,11.718 3.576,1.589 12.514,6.356 14.699,7.349 2.184,0.992 5.163,1.986 8.342,1.39 3.178,-0.596 18.869,-2.78 25.423,-3.178 6.554,-0.398 13.706,-2.583 20.458,-4.767 6.753,-2.185 11.72,-3.972 20.259,-4.965 8.542,-0.992 16.486,-2.184 26.22,-7.945 9.73,-5.76 17.677,-7.349 23.437,-7.349 5.758,0 13.705,1.589 23.436,7.349 9.733,5.761 17.677,6.953 26.219,7.945 8.54,0.993 13.506,2.78 20.259,4.965 6.752,2.184 13.905,4.369 20.458,4.767 6.555,0.398 22.245,2.582 25.423,3.178 3.179,0.596 6.159,-0.398 8.343,-1.39 2.185,-0.993 11.122,-5.76 14.698,-7.349 3.575,-1.589 14.102,-8.144 18.274,-11.718 4.17,-3.576 6.932,-8.532 8.09,-10.849 1.589,-3.177 13.468,-12.608 37.7,-5.062"
       style="fill:none;stroke:#231f20;stroke-width:0.75;stroke-linecap:round;stroke-linejoin:round;stroke-miterlimit:4;stroke-dasharray:0, 2;stroke-dashoffset:0;stroke-opacity:1"
       id="path1062" />
    <path
       d="m 303.789,606.466 c -0.596,3.972 -3.127,10.924 -4.319,11.521 -1.191,0.595 -5.363,2.582 -2.98,-1.59 2.385,-4.172 5.762,-11.917 6.358,-16.286 0.596,-4.37 -3.18,-10.527 -9.734,-4.569 -6.554,5.959 -6.752,13.705 -12.513,14.498 -5.76,0.795 -11.32,-0.992 -15.492,-7.943 -4.172,-6.953 -3.575,-12.117 -3.376,-14.102 0.198,-1.987 5.561,-10.529 13.307,-18.671 7.746,-8.144 12.117,-11.321 15.493,-11.321 4.965,0 8.99,7.223 13.507,7.944 4.964,0.794 8.251,0.595 10.038,-3.178"
       style="fill:none;stroke:#231f20;stroke-width:0.75;stroke-linecap:round;stroke-linejoin:round;stroke-miterlimit:4;stroke-dasharray:0, 2;stroke-dashoffset:0;stroke-opacity:1"
       id="path1064" />
  </g>
</svg>
