<?xml version="1.0" encoding="UTF-8" standalone="no"?>
<!-- Created with Inkscape (http://www.inkscape.org/) -->

<svg
   version="1.1"
   id="svg2"
   width="1440"
   height="1344"
   viewBox="0 0 1440 1344"
   xmlns="http://www.w3.org/2000/svg"
   xmlns:svg="http://www.w3.org/2000/svg">
  <defs
     id="defs6" />
  <g
     id="g8">
    <path
       d="m 540.002,349.98 c 0,-0.006 -2.25,-3.444 -4.635,-5.562 -3.651,-3.244 -12.447,-3.973 -22.245,-3.178 -9.798,0.794 -32.575,4.766 -39.459,7.679 -6.887,2.913 -21.453,6.621 -28.338,9.536 -6.886,2.912 -17.743,8.737 -23.04,12.975 -5.297,4.239 -26.747,20.393 -37.606,28.072 -10.858,7.68 -20.127,14.037 -25.953,20.92 -5.827,6.886 -19.068,19.069 -23.04,25.69 -3.973,6.621 -8.475,12.976 -10.594,16.684 -2.118,3.708 -9.268,11.124 -12.447,15.625 -3.177,4.501 -8.473,16.156 -9.533,19.068 -1.06,2.912 -2.44,10.671 -5.617,24.705 -3.178,14.035 6.411,20.846 6.411,20.846 -9.269,-6.357 -21.186,3.706 -29.13,9.533 -7.945,5.827 -16.155,11.387 -23.04,23.835 -6.886,12.448 -5.563,28.867 0.529,38.929 6.09,10.064 25.953,16.42 30.985,18.01 5.031,1.588 7.283,-1.259 7.283,-1.259 -2.781,3.477 2.383,3.477 3.904,3.144 1.657,1.623 5.929,-0.165 7.634,-1.834 2.02,-1.978 5.259,-5.564 5.259,-5.564 l 1.609,-0.049 c -10.063,8.474 -12.978,17.478 -14.037,28.072 -1.059,10.593 7.15,16.552 7.15,16.552 -15.492,-9.535 -18.67,8.739 -16.683,13.506 -4.768,6.752 1.986,23.437 6.355,32.574 4.37,9.136 22.644,29.793 30.191,33.765 7.547,3.973 34.56,19.465 44.492,25.028 9.93,5.56 11.519,2.383 11.519,2.383 5.164,6.752 30.588,43.696 64.354,78.256 33.765,34.56 82.626,41.314 97.722,41.314 15.095,0 63.956,-6.754 97.722,-41.314 33.764,-34.56 59.189,-71.504 64.353,-78.256 0,0 1.588,3.177 11.52,-2.383 9.93,-5.563 36.944,-21.055 44.49,-25.028 7.549,-3.972 25.823,-24.629 30.192,-33.765 4.369,-9.137 11.123,-25.822 6.354,-32.574 1.989,-4.767 -1.191,-23.041 -16.684,-13.506 0,0 8.211,-5.959 7.152,-16.552 -1.059,-10.594 -3.975,-19.598 -14.037,-28.072 l 1.324,-0.265 c 0,0 3.524,3.9 5.545,5.878 1.702,1.669 5.977,3.457 7.633,1.834 1.521,0.333 6.684,0.333 3.904,-3.144 0,0 2.252,2.847 7.282,1.259 5.034,-1.59 24.895,-7.946 30.987,-18.01 6.091,-10.062 7.413,-26.481 0.53,-38.929 -6.886,-12.448 -15.096,-18.008 -23.042,-23.835 -7.944,-5.827 -19.862,-15.89 -29.131,-9.533 0,0 9.59,-6.811 6.412,-20.846 -3.177,-14.034 -4.556,-21.793 -5.617,-24.705 -1.059,-2.912 -6.355,-14.567 -9.533,-19.068 -3.18,-4.501 -10.329,-11.917 -12.448,-15.625 -2.119,-3.708 -6.619,-10.063 -10.594,-16.684 -3.972,-6.621 -17.212,-18.804 -23.039,-25.69 -5.827,-6.883 -15.096,-13.24 -25.953,-20.92 -10.86,-7.679 -32.308,-23.833 -37.607,-28.072 -5.297,-4.238 -16.154,-10.063 -23.04,-12.975 -6.885,-2.915 -21.45,-6.623 -28.336,-9.536 -6.884,-2.913 -29.66,-6.885 -39.46,-7.679 -9.799,-0.795 -18.593,-0.066 -22.244,3.178 -2.384,2.118 -4.635,5.556 -4.635,5.562"
       style="fill:#ffffff;fill-opacity:1;fill-rule:nonzero;stroke:none;stroke-width:0.1"
       id="path668" />
    <path
       d="m 792.517,648.707 c 5.03,0 5.03,-7.68 -0.267,-7.68 -5.296,0 -4.766,7.68 0.267,7.68"
       style="fill:#ffffff;fill-opacity:1;fill-rule:nonzero;stroke:none;stroke-width:0.1"
       id="path670" />
    <path
       d="m 792.517,648.707 c 5.03,0 5.03,-7.68 -0.267,-7.68 -5.296,0 -4.766,7.68 0.267,7.68 z"
       style="fill:none;stroke:#231f20;stroke-width:0.5;stroke-linecap:round;stroke-linejoin:round;stroke-miterlimit:4;stroke-dasharray:none;stroke-opacity:1"
       id="path672" />
    <path
       d="m 705.387,879.373 c 5.454,3.75 18.537,4.501 27.278,3.177 8.738,-1.324 24.894,-8.739 43.167,-21.716 18.274,-12.976 30.719,-24.364 28.073,-38.665 -2.65,-14.3 -6.094,-19.067 -0.267,-31.514 5.827,-12.447 15.36,-30.191 17.479,-34.163 2.119,-3.973 -0.531,-9.004 -3.972,-12.182 -3.444,-3.179 -5.297,-5.827 -14.035,-3.973 -8.74,1.854 -12.185,2.119 -20.923,10.064 -8.74,7.945 -22.244,13.771 -37.605,20.392 -15.362,6.621 -25.424,10.858 -37.871,23.04 -12.445,12.181 -24.894,15.095 -34.693,32.044 -9.799,16.949 -5.032,19.332 0.267,23.04 5.297,3.707 18.183,11.299 21.715,13.772 5.296,3.707 7.151,13.77 11.387,16.684"
       style="fill:#ffffff;fill-opacity:1;fill-rule:nonzero;stroke:none;stroke-width:0.1"
       id="path674" />
    <path
       d="m 705.387,879.373 c 5.454,3.75 18.537,4.501 27.278,3.177 8.738,-1.324 24.894,-8.739 43.167,-21.716 18.274,-12.976 30.719,-24.364 28.073,-38.665 -2.65,-14.3 -6.094,-19.067 -0.267,-31.514 5.827,-12.447 15.36,-30.191 17.479,-34.163 2.119,-3.973 -0.531,-9.004 -3.972,-12.182 -3.444,-3.179 -5.297,-5.827 -14.035,-3.973 -8.74,1.854 -12.185,2.119 -20.923,10.064 -8.74,7.945 -22.244,13.771 -37.605,20.392 -15.362,6.621 -25.424,10.858 -37.871,23.04 -12.445,12.181 -24.894,15.095 -34.693,32.044 -9.799,16.949 -5.032,19.332 0.267,23.04 5.297,3.707 18.183,11.299 21.715,13.772 5.296,3.707 7.151,13.77 11.387,16.684 z"
       style="fill:none;stroke:#231f20;stroke-width:0.75;stroke-linecap:round;stroke-linejoin:round;stroke-miterlimit:4;stroke-dasharray:none;stroke-opacity:1"
       id="path676" />
    <path
       d="m 287.488,648.707 c -5.032,0 -5.032,-7.68 0.264,-7.68 5.296,0 4.768,7.68 -0.264,7.68"
       style="fill:#ffffff;fill-opacity:1;fill-rule:nonzero;stroke:none;stroke-width:0.1"
       id="path678" />
    <path
       d="m 287.488,648.707 c -5.032,0 -5.032,-7.68 0.264,-7.68 5.296,0 4.768,7.68 -0.264,7.68 z"
       style="fill:none;stroke:#231f20;stroke-width:0.5;stroke-linecap:round;stroke-linejoin:round;stroke-miterlimit:4;stroke-dasharray:none;stroke-opacity:1"
       id="path680" />
    <path
       d="m 374.616,879.373 c -5.455,3.75 -18.538,4.501 -27.278,3.177 -8.739,-1.324 -24.893,-8.739 -43.166,-21.716 -18.274,-12.976 -30.722,-24.364 -28.073,-38.665 2.65,-14.3 6.093,-19.067 0.266,-31.514 -5.827,-12.447 -15.361,-30.191 -17.48,-34.163 -2.118,-3.973 0.531,-9.004 3.973,-12.182 3.443,-3.179 5.296,-5.827 14.035,-3.973 8.74,1.854 12.184,2.119 20.923,10.064 8.739,7.945 22.245,13.771 37.605,20.392 15.36,6.621 25.424,10.858 37.871,23.04 12.447,12.181 24.893,15.095 34.692,32.044 9.799,16.949 5.032,19.332 -0.265,23.04 -5.296,3.707 -18.183,11.299 -21.716,13.772 -5.295,3.707 -7.151,13.77 -11.387,16.684"
       style="fill:#ffffff;fill-opacity:1;fill-rule:nonzero;stroke:none;stroke-width:0.1"
       id="path682" />
    <path
       d="m 374.616,879.373 c -5.455,3.75 -18.538,4.501 -27.278,3.177 -8.739,-1.324 -24.893,-8.739 -43.166,-21.716 -18.274,-12.976 -30.722,-24.364 -28.073,-38.665 2.65,-14.3 6.093,-19.067 0.266,-31.514 -5.827,-12.447 -15.361,-30.191 -17.48,-34.163 -2.118,-3.973 0.531,-9.004 3.973,-12.182 3.443,-3.179 5.296,-5.827 14.035,-3.973 8.74,1.854 12.184,2.119 20.923,10.064 8.739,7.945 22.245,13.771 37.605,20.392 15.36,6.621 25.424,10.858 37.871,23.04 12.447,12.181 24.893,15.095 34.692,32.044 9.799,16.949 5.032,19.332 -0.265,23.04 -5.296,3.707 -18.183,11.299 -21.716,13.772 -5.295,3.707 -7.151,13.77 -11.387,16.684 z"
       style="fill:none;stroke:#231f20;stroke-width:0.75;stroke-linecap:round;stroke-linejoin:round;stroke-miterlimit:4;stroke-dasharray:none;stroke-opacity:1"
       id="path684" />
    <path
       d="m 323.305,573.097 c -0.198,1.987 -3.773,1.987 -8.739,2.187 -4.966,0.198 -12.116,0.794 -19.664,6.156 -7.547,5.363 -14.301,11.918 -12.513,13.903 1.787,1.987 10.328,-2.383 15.89,-4.766 5.561,-2.384 10.925,-3.377 14.698,-1.193 3.773,2.187 6.575,4.202 3.596,13.34 -1.794,3.978 -3.99,8.435 -5.98,10.893 -3.377,4.171 -4.369,9.335 -4.965,11.321 -0.149,0.496 -0.147,0.959 -0.028,1.363 -1.788,2.384 -5.136,7.376 -6.924,6.582 -1.788,-0.795 -1.39,-3.576 0.596,-6.157 1.986,-2.583 8.739,-12.514 11.123,-17.875 2.383,-5.365 3.773,-11.124 0.198,-12.315 -3.575,-1.193 -8.739,2.382 -10.724,6.354 -1.988,3.974 -4.37,9.932 -8.939,13.507 -4.569,3.575 -8.342,3.973 -12.91,2.185 -4.568,-1.788 -17.082,-9.533 -18.87,-17.678 -1.787,-8.142 1.788,-17.875 6.158,-23.833 4.369,-5.959 8.541,-8.741 13.704,-11.522 5.164,-2.78 13.904,-6.95 19.465,-6.95 5.562,0 12.116,4.766 16.287,7.546 4.172,2.782 8.74,4.967 8.541,6.952"
       style="fill:#d3d2d2;fill-opacity:1;fill-rule:nonzero;stroke:none;stroke-width:0.1"
       id="path686" />
    <path
       d="m 319.532,595.94 c -0.654,1.469 -1.708,4.01 -2.959,6.784 l 0.01,-0.032 c 2.979,-9.136 0.167,-11.121 -3.606,-13.308 -3.773,-2.184 -9.137,-1.191 -14.698,1.193 -5.562,2.383 -14.103,6.753 -15.89,4.766 -1.788,-1.985 4.966,-8.54 12.513,-13.903 7.548,-5.362 14.698,-5.958 19.664,-6.156 4.966,-0.2 8.541,-0.2 8.739,-2.187 2.781,0 5.76,-4.568 5.164,-7.348 3.907,-4.304 6.422,-4.435 9.055,-5.508 -3.232,4.141 -5.684,8.721 -8.657,15.043 -3.178,6.752 -7.746,17.081 -9.335,20.656"
       style="fill:#b2b1b1;fill-opacity:1;fill-rule:nonzero;stroke:none;stroke-width:0.1"
       id="path688" />
    <path
       d="m 756.697,573.097 c 0.199,1.987 3.776,1.987 8.741,2.187 4.965,0.198 12.116,0.794 19.663,6.156 7.547,5.363 14.301,11.918 12.514,13.903 -1.787,1.987 -10.329,-2.383 -15.89,-4.766 -5.56,-2.384 -10.926,-3.377 -14.698,-1.193 -3.774,2.187 -6.575,4.202 -3.597,13.34 1.795,3.978 3.991,8.435 5.98,10.893 3.376,4.171 4.369,9.335 4.964,11.321 0.15,0.496 0.147,0.959 0.03,1.363 1.788,2.384 5.137,7.376 6.924,6.582 1.787,-0.795 1.39,-3.576 -0.596,-6.157 -1.986,-2.583 -8.74,-12.514 -11.124,-17.875 -2.383,-5.365 -3.774,-11.124 -0.198,-12.315 3.574,-1.193 8.74,2.382 10.726,6.354 1.987,3.974 4.369,9.932 8.937,13.507 4.57,3.575 8.343,3.973 12.911,2.185 4.567,-1.788 17.082,-9.533 18.869,-17.678 1.787,-8.142 -1.787,-17.875 -6.156,-23.833 -4.372,-5.959 -8.542,-8.741 -13.706,-11.522 -5.163,-2.78 -13.904,-6.95 -19.465,-6.95 -5.561,0 -12.116,4.766 -16.287,7.546 -4.17,2.782 -8.74,4.967 -8.542,6.952"
       style="fill:#d3d2d2;fill-opacity:1;fill-rule:nonzero;stroke:none;stroke-width:0.1"
       id="path690" />
    <path
       d="m 760.473,595.94 c 0.653,1.469 1.705,4.01 2.957,6.784 l -0.008,-0.032 c -2.982,-9.136 -0.169,-11.121 3.605,-13.308 3.772,-2.184 9.138,-1.191 14.698,1.193 5.561,2.383 14.103,6.753 15.89,4.766 1.787,-1.985 -4.967,-8.54 -12.514,-13.903 -7.547,-5.362 -14.698,-5.958 -19.663,-6.156 -4.965,-0.2 -8.542,-0.2 -8.741,-2.187 -2.781,0 -5.759,-4.568 -5.163,-7.348 -3.907,-4.304 -6.42,-4.435 -9.054,-5.508 3.231,4.141 5.683,8.721 8.656,15.043 3.178,6.752 7.748,17.081 9.337,20.656"
       style="fill:#b2b1b1;fill-opacity:1;fill-rule:nonzero;stroke:none;stroke-width:0.1"
       id="path692" />
    <path
       d="m 781.829,641.863 c 2.005,6.161 -5.203,6.313 -12.221,13.465 -4.246,4.327 -34.957,42.107 -52.039,71.503 -17.081,29.396 -45.284,77.86 -56.805,91.763 -11.521,13.904 -35.752,37.738 -62.766,52.834 -27.011,15.095 -42.107,12.315 -57.996,12.315 -15.89,0 -30.986,2.78 -57.997,-12.315 -27.014,-15.096 -51.245,-38.93 -62.765,-52.834 -11.521,-13.903 -39.725,-62.367 -56.806,-91.763 -17.082,-29.396 -47.792,-67.176 -52.039,-71.503 -7.019,-7.152 -14.227,-7.304 -12.22,-13.465 h -0.001 c 2.107,-4.947 5.431,-9.587 10.765,-14.078 2.088,-0.575 7.216,-2.649 9.6,-3.642 2.382,-0.992 8.209,-3.309 10.79,-4.303 5.033,-1.324 23.57,-5.032 30.191,-3.708 6.622,1.325 11.652,1.855 16.685,6.091 5.033,4.237 12.713,12.714 14.565,14.832 1.854,2.117 3.444,0.793 1.854,-1.59 -1.588,-2.383 -9.269,-11.388 -16.154,-16.155 -6.886,-4.767 -17.478,-7.679 -20.658,-8.21 -3.177,-0.53 -6.091,-1.852 -2.913,-5.031 4.238,0.795 14.832,-1.06 21.981,-2.649 7.152,-1.588 11.123,4.503 14.831,9.27 3.705,4.767 12.183,12.712 27.806,18.008 15.625,5.297 31.251,3.177 40.254,0.53 9.005,-2.648 21.187,-11.388 27.809,-16.949 6.62,-5.562 11.651,-5.298 16.419,-5.031 4.767,0.264 11.123,2.383 18.802,-1.061 8.98,-4.026 14.301,-5.03 19.201,-5.03 4.899,0 10.22,1.004 19.2,5.03 7.679,3.444 14.035,1.325 18.8,1.061 4.77,-0.267 9.802,-0.531 16.421,5.031 6.621,5.561 18.804,14.301 27.809,16.949 9.002,2.647 24.628,4.767 40.254,-0.53 15.623,-5.296 24.1,-13.241 27.806,-18.008 3.708,-4.767 7.679,-10.858 14.832,-9.27 7.148,1.589 17.742,3.444 21.98,2.649 3.178,3.179 0.264,4.501 -2.913,5.031 -3.181,0.531 -13.772,3.443 -20.656,8.21 -6.889,4.767 -14.569,13.772 -16.158,16.155 -1.588,2.383 0,3.707 1.856,1.59 1.852,-2.118 9.532,-10.595 14.565,-14.832 5.033,-4.236 10.063,-4.766 16.685,-6.091 6.621,-1.324 25.158,2.384 30.191,3.708 2.581,0.994 8.407,3.311 10.792,4.303 2.383,0.993 7.511,3.067 9.598,3.642 5.334,4.491 8.659,9.131 10.765,14.078"
       style="fill:#d3d2d2;fill-opacity:1;fill-rule:nonzero;stroke:none;stroke-width:0.1"
       id="path694" />
    <path
       d="m 540.002,774.5 c -14.963,0 -29.264,-2.119 -56.276,-10.328 -27.013,-8.21 -33.899,-20.392 -43.168,-37.87 -9.269,-17.479 -16.949,-30.985 -33.897,-52.967 -16.95,-21.98 -39.46,-43.167 -54.556,-48.728 -15.095,-5.562 -33.897,2.648 -39.46,6.621 -5.561,3.972 5.827,8.209 16.95,11.917 11.123,3.707 29.66,16.684 42.637,25.689 12.976,9.004 21.451,13.505 29.927,25.688 8.474,12.183 17.478,37.076 13.241,39.194 -4.237,2.118 -14.566,-16.419 -18.539,-12.976 -5.283,4.579 -2.912,13.507 5.298,30.72 8.209,17.214 16.153,28.337 19.332,34.163 0.794,4.238 4.237,14.566 6.885,21.981 2.648,7.414 9.003,15.36 12.711,19.861 3.708,4.503 10.594,10.594 12.977,14.567 2.384,3.972 5.297,6.091 9.005,8.209 3.708,2.12 14.83,6.091 25.953,7.68 11.123,1.589 39.989,5.032 50.98,5.032 10.99,0 39.856,-3.443 50.98,-5.032 11.121,-1.589 22.245,-5.56 25.953,-7.68 3.708,-2.118 6.621,-4.237 9.005,-8.209 2.383,-3.973 9.268,-10.064 12.976,-14.567 3.708,-4.501 10.063,-12.447 12.71,-19.861 2.65,-7.415 6.091,-17.743 6.885,-21.981 3.181,-5.826 11.124,-16.949 19.334,-34.163 8.21,-17.213 10.58,-26.141 5.297,-30.72 -3.972,-3.443 -14.302,15.094 -18.54,12.976 -4.235,-2.118 4.77,-27.011 13.243,-39.194 8.475,-12.183 16.949,-16.684 29.925,-25.688 12.977,-9.005 31.517,-21.982 42.638,-25.689 11.123,-3.708 22.51,-7.945 16.95,-11.917 -5.563,-3.973 -24.366,-12.183 -39.459,-6.621 -15.096,5.561 -37.607,26.748 -54.556,48.728 -16.948,21.982 -24.628,35.488 -33.899,52.967 -9.269,17.478 -16.154,29.66 -43.168,37.87 -27.011,8.209 -41.311,10.328 -56.274,10.328"
       style="fill:#ffffff;fill-opacity:1;fill-rule:nonzero;stroke:none;stroke-width:0.1"
       id="path696" />
    <path
       d="m 540.002,721.27 c -31.382,0 -51.642,-1.987 -65.148,-7.151 -13.507,-5.164 -23.835,-8.74 -28.602,-3.576 -4.767,5.165 3.178,15.096 7.945,19.466 4.766,4.369 18.273,6.356 24.63,7.15 6.355,0.795 36.546,8.342 40.121,8.739 3.575,0.398 17.876,-1.985 21.054,-1.985 3.176,0 17.478,2.383 21.052,1.985 3.576,-0.397 33.767,-7.944 40.121,-8.739 6.358,-0.794 19.866,-2.781 24.631,-7.15 4.767,-4.37 12.713,-14.301 7.944,-19.466 -4.766,-5.164 -15.096,-1.588 -28.6,3.576 -13.507,5.164 -33.766,7.151 -65.148,7.151"
       style="fill:#ffffff;fill-opacity:1;fill-rule:nonzero;stroke:none;stroke-width:0.1"
       id="path698" />
    <path
       d="m 540.002,656.916 c -18.273,0 -34.56,5.562 -39.328,7.151 -4.766,1.588 -18.67,-0.795 -27.806,-2.384 -9.137,-1.589 -31.383,-3.178 -46.081,-7.944 -14.698,-4.768 -12.711,0.396 -14.3,5.56 -1.589,5.164 7.944,10.726 13.506,14.301 5.561,3.575 19.465,10.727 33.368,12.712 13.904,1.986 40.122,13.507 47.272,15.891 7.151,2.382 27.013,-0.399 33.369,-0.399 6.356,0 26.218,2.781 33.368,0.399 7.149,-2.384 33.369,-13.905 47.273,-15.891 13.901,-1.985 27.806,-9.137 33.366,-12.712 5.563,-3.575 15.096,-9.137 13.507,-14.301 -1.589,-5.164 0.397,-10.328 -14.302,-5.56 -14.695,4.766 -36.943,6.355 -46.078,7.944 -9.138,1.589 -23.04,3.972 -27.808,2.384 -4.767,-1.589 -21.054,-7.151 -39.326,-7.151"
       style="fill:#ffffff;fill-opacity:1;fill-rule:nonzero;stroke:none;stroke-width:0.1"
       id="path700" />
    <path
       d="m 540.002,839.383 c -11.52,0 -38.797,-0.53 -53.627,-5.561 -14.833,-5.031 -27.544,-15.361 -34.165,-23.305 -6.62,-7.944 -9.003,-18.804 -9.003,-21.98 0,-3.179 1.852,-2.649 6.09,0.529 4.238,3.178 18.274,12.976 25.424,16.684 7.151,3.708 19.598,4.767 21.187,0.53 1.589,-4.238 0.7,-8.198 0.53,-10.064 -0.266,-2.913 3.972,-5.826 11.122,-3.442 7.15,2.384 14.962,8.474 32.442,8.474 17.479,0 25.292,-6.09 32.44,-8.474 7.152,-2.384 11.388,0.529 11.124,3.442 -0.171,1.866 -1.061,5.826 0.53,10.064 1.589,4.237 14.035,3.178 21.185,-0.53 7.152,-3.708 21.186,-13.506 25.425,-16.684 4.238,-3.178 6.09,-3.708 6.09,-0.529 0,3.176 -2.382,14.036 -9.004,21.98 -6.622,7.944 -19.332,18.274 -34.163,23.305 -14.832,5.031 -42.107,5.561 -53.627,5.561"
       style="fill:#deddde;fill-opacity:1;fill-rule:nonzero;stroke:none;stroke-width:0.1"
       id="path702" />
    <path
       d="m 702.077,779.665 c -0.928,-1.722 9.665,-22.908 20.258,-39.857 10.593,-16.949 34.164,-54.556 55.614,-67.399"
       style="fill:none;stroke:#231f20;stroke-width:0.5;stroke-linecap:butt;stroke-linejoin:miter;stroke-miterlimit:4;stroke-dasharray:none;stroke-opacity:1"
       id="path704" />
    <path
       d="m 701.943,726.831 c 1.657,1.241 4.502,-5.171 6.357,-10.858 2.738,-8.398 5.034,-21.451 11.653,-30.19 6.621,-8.74 16.948,-20.922 25.688,-27.543 8.738,-6.62 24.101,-14.301 26.483,-15.095 2.383,-0.794 2.117,-2.384 -1.06,-1.59 -3.178,0.796 -15.891,4.503 -30.456,15.626 -14.564,11.122 -24.097,20.657 -27.274,23.834 -3.181,3.179 -4.626,7.948 -4.77,11.652 -0.119,3.179 0.397,6.489 -2.646,20.393 -1.684,7.678 -5.034,12.977 -3.975,13.771"
       style="fill:#b2b1b1;fill-opacity:1;fill-rule:nonzero;stroke:none;stroke-width:0.1"
       id="path706" />
    <path
       d="m 789.47,632.088 c -2.979,-2.979 -9.136,-12.116 -12.117,-18.272"
       style="fill:none;stroke:#231f20;stroke-width:0.5;stroke-linecap:butt;stroke-linejoin:miter;stroke-miterlimit:4;stroke-dasharray:none;stroke-opacity:1"
       id="path708" />
    <path
       d="m 785.566,635.232 c -2.252,-0.959 -3.245,-1.753 -4.238,-2.349"
       style="fill:none;stroke:#231f20;stroke-width:0.5;stroke-linecap:butt;stroke-linejoin:miter;stroke-miterlimit:4;stroke-dasharray:none;stroke-opacity:1"
       id="path710" />
    <path
       d="m 751.534,565.749 c 0.595,-2.781 3.773,-8.937 8.738,-12.315 4.967,-3.377 11.191,-6.288 15.824,-10.394"
       style="fill:none;stroke:#231f20;stroke-width:0.75;stroke-linecap:round;stroke-linejoin:round;stroke-miterlimit:4;stroke-dasharray:none;stroke-opacity:1"
       id="path712" />
    <path
       d="m 756.697,573.097 c -2.781,0 -5.759,-4.568 -5.163,-7.348"
       style="fill:none;stroke:#231f20;stroke-width:0.5;stroke-linecap:butt;stroke-linejoin:miter;stroke-miterlimit:4;stroke-dasharray:none;stroke-opacity:1"
       id="path714" />
    <path
       d="m 727.104,606.069 c 3.376,2.98 10.128,7.945 13.703,9.534 3.577,1.589 7.285,3.244 9.867,4.237 2.581,0.994 8.407,3.311 10.792,4.303 2.383,0.993 7.511,3.067 9.598,3.642 2.089,0.575 3.906,-0.861 3.31,-2.847 -0.595,-1.986 -1.588,-7.15 -4.964,-11.321 -3.376,-4.17 -7.348,-14.103 -8.94,-17.677 -1.589,-3.575 -6.156,-13.904 -9.334,-20.656 -3.178,-6.755 -5.759,-11.522 -9.336,-15.891 -3.575,-4.37 -6.355,-7.15 -8.34,-8.344 -1.987,-1.191 -5.561,-1.191 -8.94,0.796 -3.376,1.987 -8.143,8.144 -10.327,11.719 -2.185,3.574 -5.561,9.733 -7.152,14.698 -1.588,4.965 -4.369,9.733 4.701,15.625 7.582,4.925 13.226,10.046 15.362,12.182 3.178,3.179 0.264,4.501 -2.913,5.031 -3.181,0.531 -13.772,3.443 -20.656,8.21 -6.889,4.767 -14.569,13.772 -16.158,16.155 -1.588,2.383 0,3.707 1.856,1.59 1.852,-2.118 9.532,-10.595 14.565,-14.832 5.033,-4.236 10.063,-4.766 16.685,-6.091 6.621,-1.324 25.158,2.384 30.191,3.708"
       style="fill:none;stroke:#231f20;stroke-width:0.5;stroke-linecap:butt;stroke-linejoin:miter;stroke-miterlimit:4;stroke-dasharray:none;stroke-opacity:1"
       id="path716" />
    <path
       d="m 557.02,590.783 c 2.446,0.986 7.479,1.037 5.89,-2.671"
       style="fill:none;stroke:#231f20;stroke-width:0.5;stroke-linecap:butt;stroke-linejoin:miter;stroke-miterlimit:4;stroke-dasharray:none;stroke-opacity:1"
       id="path718" />
    <path
       d="m 599.089,603.843 c -1.11,-0.703 0.101,-3.601 3.281,-1.747 3.177,1.854 12.179,7.944 15.359,10.064 3.178,2.119 11.916,7.945 29.925,6.356 13.91,-1.228 23.039,-6.356 32.574,-14.301 2.579,-2.149 5.561,-4.238 8.29,-5.008"
       style="fill:none;stroke:#231f20;stroke-width:0.5;stroke-linecap:butt;stroke-linejoin:miter;stroke-miterlimit:4;stroke-dasharray:none;stroke-opacity:1"
       id="path720" />
    <path
       d="m 643.152,543.04 c -2.116,1.323 -7.944,0.529 -10.327,-0.266 -2.386,-0.794 -5.564,-2.647 -6.885,-4.235 -1.325,-1.59 -5.033,-9.005 -6.092,-15.096 -1.06,-6.091 -1.194,-17.612 1.322,-24.895 2.057,-5.95 12.45,-18.006 20.66,-22.245 8.208,-4.238 18.398,-6.689 28.336,1.589 3.177,2.648 4.766,7.945 6.09,10.593"
       style="fill:none;stroke:#231f20;stroke-width:0.25;stroke-linecap:butt;stroke-linejoin:miter;stroke-miterlimit:4;stroke-dasharray:none;stroke-opacity:1"
       id="path722" />
    <path
       d="m 684.201,488.75 c 1.324,-3.708 6.884,-19.863 1.324,-22.246 -5.561,-2.383 -14.307,7.202 -15.359,11.388"
       style="fill:none;stroke:#231f20;stroke-width:0.5;stroke-linecap:butt;stroke-linejoin:miter;stroke-miterlimit:4;stroke-dasharray:none;stroke-opacity:1"
       id="path724" />
    <path
       d="m 436.851,543.04 c 2.116,1.323 7.943,0.529 10.326,-0.266 2.386,-0.794 5.564,-2.647 6.886,-4.235 1.324,-1.59 5.032,-9.005 6.091,-15.096 1.06,-6.091 1.194,-17.612 -1.322,-24.895 -2.057,-5.95 -12.449,-18.006 -20.66,-22.245 -8.207,-4.238 -18.397,-6.689 -28.336,1.589 -3.176,2.648 -4.765,7.945 -6.09,10.593"
       style="fill:none;stroke:#231f20;stroke-width:0.25;stroke-linecap:butt;stroke-linejoin:miter;stroke-miterlimit:4;stroke-dasharray:none;stroke-opacity:1"
       id="path726" />
    <path
       d="m 395.802,488.75 c -1.325,-3.708 -6.886,-19.863 -1.325,-22.246 5.561,-2.383 14.307,7.202 15.359,11.388"
       style="fill:none;stroke:#231f20;stroke-width:0.5;stroke-linecap:butt;stroke-linejoin:miter;stroke-miterlimit:4;stroke-dasharray:none;stroke-opacity:1"
       id="path728" />
    <path
       d="m 673.25,481.914 c 2.74,2.069 8.037,5.51 10.951,6.836"
       style="fill:none;stroke:#231f20;stroke-width:0.5;stroke-linecap:butt;stroke-linejoin:miter;stroke-miterlimit:4;stroke-dasharray:none;stroke-opacity:1"
       id="path730" />
    <path
       d="m 705.918,453.528 c 9.14,1.371 12.451,8.937 15.092,19.331 2.914,11.454 1.647,15.625 2.119,28.072 0.48,12.509 -0.527,22.776 1.062,28.603 1.589,5.826 3.177,11.121 6.621,11.651 3.441,0.531 9.75,2.084 12.555,-4.255 2.804,-6.338 5.715,-13.488 4.657,-37.057 -1.058,-23.57 -7.15,-38.665 -13.771,-49.523 -6.621,-10.859 -15.359,-15.626 -25.422,-15.89 -10.066,-0.265 -14.464,2.166 -15.095,5.561 -0.673,3.605 -3.708,11.124 12.182,13.507 z"
       style="fill:none;stroke:#231f20;stroke-width:0.5;stroke-linecap:butt;stroke-linejoin:miter;stroke-miterlimit:4;stroke-dasharray:none;stroke-opacity:1"
       id="path732" />
    <path
       d="m 570.589,399.106 c 5.958,6.354 29.634,27.043 70.43,31.793"
       style="fill:none;stroke:#231f20;stroke-width:0.25;stroke-linecap:butt;stroke-linejoin:miter;stroke-miterlimit:4;stroke-dasharray:none;stroke-opacity:1"
       id="path734" />
    <path
       d="m 730.698,430.469 c -10.745,-1.305 -29.057,-9.709 -33.388,-13.885 -3.708,-3.576 -1.986,-6.356 1.192,-6.356 3.177,0 7.155,-1.195 7.946,-2.783"
       style="fill:none;stroke:#231f20;stroke-width:0.5;stroke-linecap:butt;stroke-linejoin:miter;stroke-miterlimit:4;stroke-dasharray:none;stroke-opacity:1"
       id="path736" />
    <path
       d="m 540.002,349.98 c 0,5.566 3.84,10.594 12.843,15.096 9.005,4.501 21.186,7.943 31.516,7.943 10.326,0 31.997,-8.477 22.62,-23.836"
       style="fill:none;stroke:#231f20;stroke-width:0.5;stroke-linecap:butt;stroke-linejoin:miter;stroke-miterlimit:4;stroke-dasharray:none;stroke-opacity:1"
       id="path738" />
    <path
       d="m 674.515,433.513 c 0,-0.356 -0.285,-0.641 -0.641,-0.641 -0.357,0 -0.645,0.285 -0.645,0.641 0,0.356 0.288,0.643 0.645,0.643 0.356,0 0.641,-0.287 0.641,-0.643"
       style="fill:#231f20;fill-opacity:1;fill-rule:nonzero;stroke:none;stroke-width:0.1"
       id="path740" />
    <path
       d="m 676.634,438.545 c 0,-0.355 -0.285,-0.643 -0.644,-0.643 -0.354,0 -0.642,0.288 -0.642,0.643 0,0.355 0.288,0.642 0.642,0.642 0.359,0 0.644,-0.287 0.644,-0.642"
       style="fill:#231f20;fill-opacity:1;fill-rule:nonzero;stroke:none;stroke-width:0.1"
       id="path742" />
    <path
       d="m 670.114,425.743 c -1.804,3.552 0.778,12.887 5.149,14.476 4.369,1.589 15.493,-0.198 16.884,-6.156 1.39,-5.959 1.985,-10.925 0.794,-13.904 -1.191,-2.979 -4.372,-7.746 -8.145,-7.746 -3.773,0 -9.766,6.423 -11.836,9.566"
       style="fill:none;stroke:#231f20;stroke-width:0.5;stroke-linecap:butt;stroke-linejoin:miter;stroke-miterlimit:4;stroke-dasharray:none;stroke-opacity:1"
       id="path744" />
    <path
       d="m 692.329,433.263 c 0.612,1.595 2.876,3.752 4.431,3.069"
       style="fill:none;stroke:#231f20;stroke-width:0.5;stroke-linecap:butt;stroke-linejoin:miter;stroke-miterlimit:4;stroke-dasharray:none;stroke-opacity:1"
       id="path746" />
    <path
       d="m 693.55,425.314 c 2.966,-0.786 9.916,-1.184 15.281,9.146"
       style="fill:none;stroke:#231f20;stroke-width:0.5;stroke-linecap:butt;stroke-linejoin:miter;stroke-miterlimit:4;stroke-dasharray:none;stroke-opacity:1"
       id="path748" />
    <path
       d="m 584.064,391.172 c -3.148,3.298 -8.972,6.079 -13.475,7.934 -4.502,1.852 -17.215,7.282 -20.656,8.605 -3.443,1.324 -6.885,0.53 -7.68,-2.648 -0.793,-3.177 -0.795,-14.301 -0.53,-16.419 0.264,-2.118 -0.263,-12.711 5.297,-11.122 5.561,1.589 19.595,10.328 34.163,11.122"
       style="fill:none;stroke:#231f20;stroke-width:0.5;stroke-linecap:butt;stroke-linejoin:miter;stroke-miterlimit:4;stroke-dasharray:none;stroke-opacity:1"
       id="path750" />
    <path
       d="m 541.723,388.644 c 3.708,2.383 22.62,9.639 27.463,11.044"
       style="fill:none;stroke:#231f20;stroke-width:0.5;stroke-linecap:butt;stroke-linejoin:miter;stroke-miterlimit:4;stroke-dasharray:none;stroke-opacity:1"
       id="path752" />
    <path
       d="m 575.079,540.685 c -4.781,-10.301 -21.439,-26.777 -26.47,-30.219 -5.031,-3.442 -6.685,2.329 -6.356,3.972 0.466,2.329 2.384,15.625 2.648,17.743 0.264,2.119 2.383,1.855 2.383,1.855 24.1,0 46.081,17.214 48.992,19.596 2.914,2.385 8.95,8.26 10.596,10.065"
       style="fill:none;stroke:#231f20;stroke-width:0.5;stroke-linecap:butt;stroke-linejoin:miter;stroke-miterlimit:4;stroke-dasharray:none;stroke-opacity:1"
       id="path754" />
    <path
       d="m 415.665,761.789 c 21.714,39.724 30.833,60.511 51.111,71.503 28.338,15.361 66.341,15.625 73.226,15.625 6.884,0 44.889,-0.264 73.225,-15.625 20.278,-10.992 29.397,-31.779 51.111,-71.503"
       style="fill:none;stroke:#231f20;stroke-width:0.5;stroke-linecap:butt;stroke-linejoin:miter;stroke-miterlimit:4;stroke-dasharray:none;stroke-opacity:1"
       id="path756" />
    <path
       d="m 334.626,631.228 c 11.124,1.588 20.132,5.827 40.254,21.187 20.123,15.359 27.808,27.276 38.665,44.225 10.858,16.95 25.69,47.404 35.223,57.469 9.534,10.063 31.25,19.597 46.346,23.834 15.094,4.238 35.752,7.945 44.888,7.945 9.137,0 29.793,-3.707 44.889,-7.945 15.093,-4.237 36.81,-13.771 46.343,-23.834 9.535,-10.065 24.366,-40.519 35.224,-57.469 10.857,-16.949 18.542,-28.866 38.666,-44.225 20.123,-15.36 29.129,-19.599 40.253,-21.187"
       style="fill:none;stroke:#231f20;stroke-width:0.5;stroke-linecap:butt;stroke-linejoin:miter;stroke-miterlimit:4;stroke-dasharray:none;stroke-opacity:1"
       id="path758" />
    <path
       d="m 377.926,779.665 c 0.927,-1.722 -9.666,-22.908 -20.258,-39.857 -10.594,-16.949 -34.164,-54.556 -55.616,-67.399"
       style="fill:none;stroke:#231f20;stroke-width:0.5;stroke-linecap:butt;stroke-linejoin:miter;stroke-miterlimit:4;stroke-dasharray:none;stroke-opacity:1"
       id="path760" />
    <path
       d="m 378.059,726.831 c -1.655,1.241 -4.503,-5.171 -6.355,-10.858 -2.739,-8.398 -5.033,-21.451 -11.654,-30.19 -6.62,-8.74 -16.949,-20.922 -25.688,-27.543 -8.739,-6.62 -24.1,-14.301 -26.484,-15.095 -2.382,-0.794 -2.118,-2.384 1.061,-1.59 3.178,0.796 15.89,4.503 30.454,15.626 14.567,11.122 24.1,20.657 27.278,23.834 3.177,3.179 4.624,7.948 4.767,11.652 0.122,3.179 -0.397,6.489 2.648,20.393 1.683,7.678 5.033,12.977 3.973,13.771"
       style="fill:#b2b1b1;fill-opacity:1;fill-rule:nonzero;stroke:none;stroke-width:0.1"
       id="path762" />
    <path
       d="m 540.002,817.8 c -11.124,0 -29.396,4.369 -29.396,6.356 0,1.986 24.629,-0.795 29.396,-0.795 4.767,0 29.396,2.781 29.396,0.795 0,-1.987 -18.272,-6.356 -29.396,-6.356"
       style="fill:#b2b1b1;fill-opacity:1;fill-rule:nonzero;stroke:none;stroke-width:0.1"
       id="path764" />
    <path
       d="m 540.002,711.74 c -8.601,0 -18.127,0.043 -27.41,-0.798 -13.872,-1.259 -26.217,-5.165 -26.217,-5.165 14.697,12.712 46.476,9.137 53.627,9.137 7.15,0 38.928,3.575 53.627,-9.137 0,0 -12.345,3.906 -26.216,5.165 -9.286,0.841 -18.811,0.798 -27.411,0.798"
       style="fill:#b2b1b1;fill-opacity:1;fill-rule:nonzero;stroke:none;stroke-width:0.1"
       id="path766" />
    <path
       d="m 430.363,665.258 c 20.26,9.137 73.092,15.096 81.037,15.096 7.945,0 21.849,-4.768 28.602,-4.768 6.752,0 20.656,4.768 28.602,4.768 7.943,0 60.777,-5.959 81.036,-15.096"
       style="fill:none;stroke:#231f20;stroke-width:0.5;stroke-linecap:butt;stroke-linejoin:miter;stroke-miterlimit:4;stroke-dasharray:none;stroke-opacity:1"
       id="path768" />
    <path
       d="m 540.002,633.082 c -18.274,0 -45.153,9.004 -62.898,9.798 -17.744,0.795 -35.222,3.443 -35.222,3.443 4.503,0.795 32.839,3.177 38.665,3.443 5.828,0.265 11.123,0.794 15.625,0 4.502,-0.795 36.282,-6.091 43.83,-6.091 7.547,0 39.329,5.296 43.828,6.091 4.502,0.794 9.799,0.265 15.627,0 5.824,-0.266 34.163,-2.648 38.665,-3.443 0,0 -17.479,-2.648 -35.224,-3.443 -17.743,-0.794 -44.622,-9.798 -62.896,-9.798"
       style="fill:#b2b1b1;fill-opacity:1;fill-rule:nonzero;stroke:none;stroke-width:0.1"
       id="path770" />
    <path
       d="m 290.533,632.088 c 2.979,-2.979 9.135,-12.116 12.116,-18.272"
       style="fill:none;stroke:#231f20;stroke-width:0.5;stroke-linecap:butt;stroke-linejoin:miter;stroke-miterlimit:4;stroke-dasharray:none;stroke-opacity:1"
       id="path772" />
    <path
       d="m 294.437,635.232 c 2.253,-0.959 3.246,-1.753 4.239,-2.349"
       style="fill:none;stroke:#231f20;stroke-width:0.5;stroke-linecap:butt;stroke-linejoin:miter;stroke-miterlimit:4;stroke-dasharray:none;stroke-opacity:1"
       id="path774" />
    <path
       d="m 328.469,565.749 c -0.595,-2.781 -3.773,-8.937 -8.739,-12.315 -4.966,-3.377 -11.189,-6.288 -15.824,-10.394"
       style="fill:none;stroke:#231f20;stroke-width:0.75;stroke-linecap:round;stroke-linejoin:round;stroke-miterlimit:4;stroke-dasharray:none;stroke-opacity:1"
       id="path776" />
    <path
       d="m 323.305,573.097 c 2.78,0 5.76,-4.568 5.164,-7.348"
       style="fill:none;stroke:#231f20;stroke-width:0.5;stroke-linecap:butt;stroke-linejoin:miter;stroke-miterlimit:4;stroke-dasharray:none;stroke-opacity:1"
       id="path778" />
    <path
       d="m 352.9,606.069 c -3.376,2.98 -10.13,7.945 -13.705,9.534 -3.575,1.589 -7.282,3.244 -9.865,4.237 -2.581,0.994 -8.409,3.311 -10.791,4.303 -2.384,0.993 -7.512,3.067 -9.6,3.642 -2.088,0.575 -3.906,-0.861 -3.311,-2.847 0.596,-1.986 1.588,-7.15 4.965,-11.321 3.377,-4.17 7.35,-14.103 8.939,-17.677 1.589,-3.575 6.156,-13.904 9.335,-20.656 3.177,-6.755 5.759,-11.522 9.335,-15.891 3.575,-4.37 6.356,-7.15 8.342,-8.344 1.986,-1.191 5.561,-1.191 8.938,0.796 3.377,1.987 8.144,8.144 10.328,11.719 2.186,3.574 5.562,9.733 7.15,14.698 1.589,4.965 4.371,9.733 -4.7,15.625 -7.58,4.925 -13.225,10.046 -15.36,12.182 -3.178,3.179 -0.265,4.501 2.913,5.031 3.179,0.531 13.771,3.443 20.657,8.21 6.885,4.767 14.566,13.772 16.154,16.155 1.589,2.383 0,3.707 -1.853,1.59 -1.853,-2.118 -9.534,-10.595 -14.566,-14.832 -5.033,-4.236 -10.063,-4.766 -16.685,-6.091 -6.621,-1.324 -25.158,2.384 -30.19,3.708"
       style="fill:none;stroke:#231f20;stroke-width:0.5;stroke-linecap:butt;stroke-linejoin:miter;stroke-miterlimit:4;stroke-dasharray:none;stroke-opacity:1"
       id="path780" />
    <path
       d="m 480.915,603.842 c 5.63,-3.655 8.335,-4.147 12.609,-4.924 5.826,-1.058 21.716,-1.852 25.954,-2.119 4.237,-0.263 14.83,-2.912 20.524,-2.912 5.693,0 16.287,2.649 20.524,2.912 4.236,0.267 20.127,1.061 25.954,2.119 4.27,0.777 6.978,1.269 12.606,4.921"
       style="fill:none;stroke:#231f20;stroke-width:0.75;stroke-linecap:round;stroke-linejoin:round;stroke-miterlimit:4;stroke-dasharray:none;stroke-opacity:1"
       id="path782" />
    <path
       d="m 522.984,590.783 c -2.447,0.986 -7.479,1.037 -5.89,-2.671"
       style="fill:none;stroke:#231f20;stroke-width:0.5;stroke-linecap:butt;stroke-linejoin:miter;stroke-miterlimit:4;stroke-dasharray:none;stroke-opacity:1"
       id="path784" />
    <path
       d="m 480.915,603.843 c 1.108,-0.703 -0.103,-3.601 -3.281,-1.747 -3.177,1.854 -12.181,7.944 -15.359,10.064 -3.179,2.119 -11.917,7.945 -29.927,6.356 -13.908,-1.228 -23.04,-6.356 -32.573,-14.301 -2.578,-2.149 -5.562,-4.238 -8.289,-5.008"
       style="fill:none;stroke:#231f20;stroke-width:0.5;stroke-linecap:butt;stroke-linejoin:miter;stroke-miterlimit:4;stroke-dasharray:none;stroke-opacity:1"
       id="path786" />
    <path
       d="m 478.87,598.946 c 1.764,-2.357 6.449,-4.098 9.357,-4.265 6.887,-0.397 12.315,-1.191 17.215,-2.648 4.68,-1.393 11.652,-3.708 18.008,-6.885 4.797,-2.398 10.112,-4.434 13.639,-8.608 1.691,-2.002 -0.265,-8.607 2.913,-8.607 3.176,0 1.22,6.605 2.913,8.607 3.526,4.174 8.841,6.21 13.637,8.608 6.358,3.177 13.327,5.492 18.009,6.885 4.9,1.457 10.33,2.251 17.216,2.648 2.907,0.167 7.592,1.908 9.357,4.265"
       style="fill:none;stroke:#231f20;stroke-width:0.75;stroke-linecap:round;stroke-linejoin:round;stroke-miterlimit:4;stroke-dasharray:none;stroke-opacity:1"
       id="path788" />
    <path
       d="m 406.753,481.914 c -2.742,2.069 -8.038,5.51 -10.951,6.836"
       style="fill:none;stroke:#231f20;stroke-width:0.5;stroke-linecap:butt;stroke-linejoin:miter;stroke-miterlimit:4;stroke-dasharray:none;stroke-opacity:1"
       id="path790" />
    <path
       d="m 374.086,453.528 c -9.142,1.371 -12.451,8.937 -15.094,19.331 -2.914,11.454 -1.645,15.625 -2.12,28.072 -0.477,12.509 0.531,22.776 -1.059,28.603 -1.589,5.826 -3.179,11.121 -6.621,11.651 -3.442,0.531 -9.75,2.084 -12.555,-4.255 -2.804,-6.338 -5.718,-13.488 -4.658,-37.057 1.059,-23.57 7.149,-38.665 13.771,-49.523 6.62,-10.859 15.359,-15.626 25.423,-15.89 10.064,-0.265 14.462,2.166 15.095,5.561 0.672,3.605 3.708,11.124 -12.182,13.507 z"
       style="fill:none;stroke:#231f20;stroke-width:0.5;stroke-linecap:butt;stroke-linejoin:miter;stroke-miterlimit:4;stroke-dasharray:none;stroke-opacity:1"
       id="path792" />
    <path
       d="m 509.414,399.106 c -5.959,6.354 -29.633,27.043 -70.431,31.793"
       style="fill:none;stroke:#231f20;stroke-width:0.25;stroke-linecap:butt;stroke-linejoin:miter;stroke-miterlimit:4;stroke-dasharray:none;stroke-opacity:1"
       id="path794" />
    <path
       d="m 349.305,430.469 c 10.745,-1.305 29.056,-9.709 33.388,-13.885 3.708,-3.576 1.986,-6.356 -1.192,-6.356 -3.177,0 -7.153,-1.195 -7.946,-2.783"
       style="fill:none;stroke:#231f20;stroke-width:0.5;stroke-linecap:butt;stroke-linejoin:miter;stroke-miterlimit:4;stroke-dasharray:none;stroke-opacity:1"
       id="path796" />
    <path
       d="m 540.002,349.98 c 0,5.566 -3.839,10.594 -12.844,15.096 -9.004,4.501 -21.187,7.943 -31.515,7.943 -10.329,0 -31.999,-8.477 -22.62,-23.836"
       style="fill:none;stroke:#231f20;stroke-width:0.5;stroke-linecap:butt;stroke-linejoin:miter;stroke-miterlimit:4;stroke-dasharray:none;stroke-opacity:1"
       id="path798" />
    <path
       d="m 405.488,433.513 c 0,-0.356 0.286,-0.641 0.642,-0.641 0.356,0 0.643,0.285 0.643,0.641 0,0.356 -0.287,0.643 -0.643,0.643 -0.356,0 -0.642,-0.287 -0.642,-0.643"
       style="fill:#231f20;fill-opacity:1;fill-rule:nonzero;stroke:none;stroke-width:0.1"
       id="path800" />
    <path
       d="m 403.369,438.545 c 0,-0.355 0.286,-0.643 0.642,-0.643 0.356,0 0.644,0.288 0.644,0.643 0,0.355 -0.288,0.642 -0.644,0.642 -0.356,0 -0.642,-0.287 -0.642,-0.642"
       style="fill:#231f20;fill-opacity:1;fill-rule:nonzero;stroke:none;stroke-width:0.1"
       id="path802" />
    <path
       d="m 409.889,425.743 c 1.803,3.552 -0.779,12.887 -5.149,14.476 -4.369,1.589 -15.492,-0.198 -16.883,-6.156 -1.39,-5.959 -1.985,-10.925 -0.794,-13.904 1.191,-2.979 4.369,-7.746 8.144,-7.746 3.773,0 9.767,6.423 11.835,9.566"
       style="fill:none;stroke:#231f20;stroke-width:0.5;stroke-linecap:butt;stroke-linejoin:miter;stroke-miterlimit:4;stroke-dasharray:none;stroke-opacity:1"
       id="path804" />
    <path
       d="m 387.675,433.263 c -0.612,1.595 -2.877,3.752 -4.432,3.069"
       style="fill:none;stroke:#231f20;stroke-width:0.5;stroke-linecap:butt;stroke-linejoin:miter;stroke-miterlimit:4;stroke-dasharray:none;stroke-opacity:1"
       id="path806" />
    <path
       d="m 386.452,425.314 c -2.964,-0.786 -9.916,-1.184 -15.279,9.146"
       style="fill:none;stroke:#231f20;stroke-width:0.5;stroke-linecap:butt;stroke-linejoin:miter;stroke-miterlimit:4;stroke-dasharray:none;stroke-opacity:1"
       id="path808" />
    <path
       d="m 495.94,391.172 c 3.145,3.298 8.972,6.079 13.474,7.934 4.502,1.852 17.213,7.282 20.656,8.605 3.443,1.324 6.886,0.53 7.682,-2.648 0.793,-3.177 0.793,-14.301 0.529,-16.419 -0.266,-2.118 0.264,-12.711 -5.297,-11.122 -5.562,1.589 -19.597,10.328 -34.163,11.122"
       style="fill:none;stroke:#231f20;stroke-width:0.5;stroke-linecap:butt;stroke-linejoin:miter;stroke-miterlimit:4;stroke-dasharray:none;stroke-opacity:1"
       id="path810" />
    <path
       d="m 538.281,388.644 c -3.708,2.383 -22.621,9.639 -27.465,11.044"
       style="fill:none;stroke:#231f20;stroke-width:0.5;stroke-linecap:butt;stroke-linejoin:miter;stroke-miterlimit:4;stroke-dasharray:none;stroke-opacity:1"
       id="path812" />
    <path
       d="m 504.924,540.685 c 4.782,-10.301 21.439,-26.777 26.47,-30.219 5.032,-3.442 6.686,2.329 6.358,3.972 -0.467,2.329 -2.385,15.625 -2.65,17.743 -0.265,2.119 -2.383,1.855 -2.383,1.855 -24.099,0 -46.081,17.214 -48.993,19.596 -2.913,2.385 -8.948,8.26 -10.594,10.065"
       style="fill:none;stroke:#231f20;stroke-width:0.5;stroke-linecap:butt;stroke-linejoin:miter;stroke-miterlimit:4;stroke-dasharray:none;stroke-opacity:1"
       id="path814" />
    <path
       d="m 544.662,342.64 c 0,-2.331 -2.087,-4.222 -4.66,-4.222 -2.575,0 -4.661,1.891 -4.661,4.222 0,2.332 2.086,4.223 4.661,4.223 2.573,0 4.66,-1.891 4.66,-4.223"
       style="fill:#ffffff;fill-opacity:1;fill-rule:nonzero;stroke:none;stroke-width:0.1"
       id="path816" />
    <path
       d="m 544.662,342.64 c 0,-2.331 -2.087,-4.222 -4.66,-4.222 -2.575,0 -4.661,1.891 -4.661,4.222 0,2.332 2.086,4.223 4.661,4.223 2.573,0 4.66,-1.891 4.66,-4.223 z"
       style="fill:none;stroke:#231f20;stroke-width:0.5;stroke-linecap:round;stroke-linejoin:round;stroke-miterlimit:4;stroke-dasharray:none;stroke-opacity:1"
       id="path818" />
    <path
       d="m 540.002,349.98 c 0,-0.006 -2.25,-3.444 -4.635,-5.562 -3.651,-3.244 -12.447,-3.973 -22.245,-3.178 -9.798,0.794 -32.575,4.766 -39.459,7.679 -6.887,2.913 -21.453,6.621 -28.338,9.536 -6.886,2.912 -17.743,8.737 -23.04,12.975 -5.297,4.239 -26.747,20.393 -37.606,28.072 -10.858,7.68 -20.127,14.037 -25.953,20.92 -5.827,6.886 -19.068,19.069 -23.04,25.69 -3.973,6.621 -8.475,12.976 -10.594,16.684 -2.118,3.708 -9.268,11.124 -12.447,15.625 -3.177,4.501 -8.473,16.156 -9.533,19.068 -1.06,2.912 -2.44,10.671 -5.617,24.705 -3.178,14.035 6.411,20.846 6.411,20.846 -9.269,-6.357 -21.186,3.706 -29.13,9.533 -7.945,5.827 -16.155,11.387 -23.04,23.835 -6.886,12.448 -5.563,28.867 0.529,38.929 6.09,10.064 25.953,16.42 30.985,18.01 5.031,1.588 7.283,-1.259 7.283,-1.259 -2.781,3.477 2.383,3.477 3.904,3.144 1.657,1.623 5.929,-0.165 7.634,-1.834 2.02,-1.978 5.259,-5.564 5.259,-5.564 l 1.609,-0.049 c -10.063,8.474 -12.978,17.478 -14.037,28.072 -1.059,10.593 7.15,16.552 7.15,16.552 -15.492,-9.535 -18.67,8.739 -16.683,13.506 -4.768,6.752 1.986,23.437 6.355,32.574 4.37,9.136 22.644,29.793 30.191,33.765 7.547,3.973 34.56,19.465 44.492,25.028 9.93,5.56 11.519,2.383 11.519,2.383 5.164,6.752 30.588,43.696 64.354,78.256 33.765,34.56 82.626,41.314 97.722,41.314 15.095,0 63.956,-6.754 97.722,-41.314 33.764,-34.56 59.189,-71.504 64.353,-78.256 0,0 1.588,3.177 11.52,-2.383 9.93,-5.563 36.944,-21.055 44.49,-25.028 7.549,-3.972 25.823,-24.629 30.192,-33.765 4.369,-9.137 11.123,-25.822 6.354,-32.574 1.989,-4.767 -1.191,-23.041 -16.684,-13.506 0,0 8.211,-5.959 7.152,-16.552 -1.059,-10.594 -3.975,-19.598 -14.037,-28.072 l 1.324,-0.265 c 0,0 3.524,3.9 5.545,5.878 1.702,1.669 5.977,3.457 7.633,1.834 1.521,0.333 6.684,0.333 3.904,-3.144 0,0 2.252,2.847 7.282,1.259 5.034,-1.59 24.895,-7.946 30.987,-18.01 6.091,-10.062 7.413,-26.481 0.53,-38.929 -6.886,-12.448 -15.096,-18.008 -23.042,-23.835 -7.944,-5.827 -19.862,-15.89 -29.131,-9.533 0,0 9.59,-6.811 6.412,-20.846 -3.177,-14.034 -4.556,-21.793 -5.617,-24.705 -1.059,-2.912 -6.355,-14.567 -9.533,-19.068 -3.18,-4.501 -10.329,-11.917 -12.448,-15.625 -2.119,-3.708 -6.619,-10.063 -10.594,-16.684 -3.972,-6.621 -17.212,-18.804 -23.039,-25.69 -5.827,-6.883 -15.096,-13.24 -25.953,-20.92 -10.86,-7.679 -32.308,-23.833 -37.607,-28.072 -5.297,-4.238 -16.154,-10.063 -23.04,-12.975 -6.885,-2.915 -21.45,-6.623 -28.336,-9.536 -6.884,-2.913 -29.66,-6.885 -39.46,-7.679 -9.799,-0.795 -18.593,-0.066 -22.244,3.178 -2.384,2.118 -4.635,5.556 -4.635,5.562 z"
       style="fill:none;stroke:#231f20;stroke-width:0.75;stroke-linecap:round;stroke-linejoin:round;stroke-miterlimit:4;stroke-dasharray:none;stroke-opacity:1"
       id="path820" />
    <path
       d="m 599.086,603.839 c 2.048,1.329 4.484,3.077 7.519,5.409 11.389,8.739 20.923,12.181 33.899,12.71 12.977,0.53 24.294,-2.443 28.601,-4.501 5.96,-2.847 18.009,-16.419 19.861,-18.802 1.856,-2.384 11.924,-11.397 21.985,-5.301"
       style="fill:none;stroke:#231f20;stroke-width:0.75;stroke-linecap:round;stroke-linejoin:round;stroke-miterlimit:4;stroke-dasharray:none;stroke-opacity:1"
       id="path822" />
    <path
       d="m 480.915,603.842 c -2.048,1.327 -4.482,3.074 -7.517,5.406 -11.389,8.739 -20.923,12.181 -33.899,12.71 -12.976,0.53 -24.293,-2.443 -28.601,-4.501 -5.959,-2.847 -18.01,-16.419 -19.862,-18.802 -1.854,-2.384 -11.924,-11.397 -21.984,-5.301"
       style="fill:none;stroke:#231f20;stroke-width:0.75;stroke-linecap:round;stroke-linejoin:round;stroke-miterlimit:4;stroke-dasharray:none;stroke-opacity:1"
       id="path824" />
    <path
       d="m 624.615,609.248 c 2.646,0 6.885,-3.708 10.062,-3.973 3.178,-0.266 24.365,-0.795 28.336,-2.649 3.973,-1.854 14.302,-10.593 13.507,-12.976 -0.794,-2.383 -8.474,-4.238 -13.77,-3.974 -5.297,0.266 -19.598,5.563 -26.748,8.74 -7.152,3.177 -11.651,3.708 -14.832,4.502 -3.176,0.794 -6.09,4.239 -3.708,7.416 2.651,1.324 5.034,2.914 7.153,2.914 z"
       style="fill:none;stroke:#231f20;stroke-width:0.5;stroke-linecap:butt;stroke-linejoin:miter;stroke-miterlimit:4;stroke-dasharray:none;stroke-opacity:1"
       id="path826" />
    <path
       d="m 455.387,609.248 c -2.646,0 -6.885,-3.708 -10.062,-3.973 -3.178,-0.266 -24.365,-0.795 -28.336,-2.649 -3.972,-1.854 -14.301,-10.593 -13.507,-12.976 0.794,-2.383 8.474,-4.238 13.77,-3.974 5.297,0.266 19.599,5.563 26.748,8.74 7.152,3.177 11.652,3.708 14.832,4.502 3.177,0.794 6.09,4.239 3.708,7.416 -2.65,1.324 -5.033,2.914 -7.153,2.914 z"
       style="fill:none;stroke:#231f20;stroke-width:0.5;stroke-linecap:butt;stroke-linejoin:miter;stroke-miterlimit:4;stroke-dasharray:none;stroke-opacity:1"
       id="path828" />
    <path
       d="m 609.443,561.821 c 1.907,-1.435 12.125,-6.071 17.818,-1.569 5.695,4.503 5.262,8.527 2.302,14.957"
       style="fill:none;stroke:#231f20;stroke-width:0.5;stroke-linecap:butt;stroke-linejoin:miter;stroke-miterlimit:4;stroke-dasharray:none;stroke-opacity:1"
       id="path830" />
    <path
       d="m 606.872,563.697 c 1.986,0.397 6.221,2.515 7.149,5.03 0.9,2.441 1.589,5.033 1.589,6.489 0,0 0.917,-1.411 2.384,-3.442 1.721,-2.383 6.621,-2.119 11.302,3.825"
       style="fill:none;stroke:#231f20;stroke-width:0.5;stroke-linecap:butt;stroke-linejoin:miter;stroke-miterlimit:4;stroke-dasharray:none;stroke-opacity:1"
       id="path832" />
    <path
       d="m 470.561,561.821 c -1.908,-1.435 -12.127,-6.071 -17.82,-1.569 -5.695,4.503 -5.262,8.527 -2.3,14.957"
       style="fill:none;stroke:#231f20;stroke-width:0.5;stroke-linecap:butt;stroke-linejoin:miter;stroke-miterlimit:4;stroke-dasharray:none;stroke-opacity:1"
       id="path834" />
    <path
       d="m 473.132,563.697 c -1.986,0.397 -6.223,2.515 -7.15,5.03 -0.899,2.441 -1.589,5.033 -1.589,6.489 0,0 -0.917,-1.411 -2.384,-3.442 -1.72,-2.383 -6.62,-2.119 -11.303,3.825"
       style="fill:none;stroke:#231f20;stroke-width:0.5;stroke-linecap:butt;stroke-linejoin:miter;stroke-miterlimit:4;stroke-dasharray:none;stroke-opacity:1"
       id="path836" />
    <path
       d="m 545.877,584.288 c -2.701,-1.119 -4.962,-1.788 -5.875,-1.788 -0.914,0 -3.177,0.672 -5.876,1.792 v -0.004 c 1.77,-2.318 2.3,-5.055 -2.997,-2.937 l -0.01,-0.065 c 2.225,-1.282 4.301,-2.771 5.97,-4.746 1.691,-2.002 -0.265,-8.607 2.913,-8.607 3.176,0 1.22,6.605 2.913,8.607 1.665,1.972 3.736,3.46 5.958,4.739 v 0.072 c -5.297,-2.118 -4.767,0.619 -2.996,2.937"
       style="fill:#706d6e;fill-opacity:1;fill-rule:nonzero;stroke:none;stroke-width:0.1"
       id="path838" />
    <path
       d="m 545.877,584.288 c -2.701,-1.119 -4.962,-1.788 -5.875,-1.788 -0.914,0 -3.177,0.672 -5.876,1.792 v -0.004 c 1.77,-2.318 2.3,-5.055 -2.997,-2.937 l -0.01,-0.065 c 2.225,-1.282 4.301,-2.771 5.97,-4.746 1.691,-2.002 -0.265,-8.607 2.913,-8.607 3.176,0 1.22,6.605 2.913,8.607 1.665,1.972 3.736,3.46 5.958,4.739 v 0.072 c -5.297,-2.118 -4.767,0.619 -2.996,2.937 z"
       style="fill:none;stroke:#231f20;stroke-width:0.75;stroke-linecap:round;stroke-linejoin:round;stroke-miterlimit:4;stroke-dasharray:none;stroke-opacity:1"
       id="path840" />
    <path
       d="m 625.376,577.515 c 0,-0.356 -0.286,-0.641 -0.643,-0.641 -0.355,0 -0.644,0.285 -0.644,0.641 0,0.356 0.289,0.643 0.644,0.643 0.357,0 0.643,-0.287 0.643,-0.643"
       style="fill:#231f20;fill-opacity:1;fill-rule:nonzero;stroke:none;stroke-width:0.1"
       id="path842" />
    <path
       d="m 619.394,575.711 c 0,-0.356 -0.284,-0.641 -0.642,-0.641 -0.355,0 -0.643,0.285 -0.643,0.641 0,0.356 0.288,0.643 0.643,0.643 0.358,0 0.642,-0.287 0.642,-0.643"
       style="fill:#231f20;fill-opacity:1;fill-rule:nonzero;stroke:none;stroke-width:0.1"
       id="path844" />
    <path
       d="m 622.18,574.551 c 0,-0.356 -0.284,-0.641 -0.642,-0.641 -0.355,0 -0.644,0.285 -0.644,0.641 0,0.354 0.289,0.643 0.644,0.643 0.358,0 0.642,-0.289 0.642,-0.643"
       style="fill:#231f20;fill-opacity:1;fill-rule:nonzero;stroke:none;stroke-width:0.1"
       id="path846" />
    <path
       d="m 625.429,574.551 c 0,-0.356 -0.284,-0.641 -0.641,-0.641 -0.356,0 -0.644,0.285 -0.644,0.641 0,0.354 0.288,0.643 0.644,0.643 0.357,0 0.641,-0.289 0.641,-0.643"
       style="fill:#231f20;fill-opacity:1;fill-rule:nonzero;stroke:none;stroke-width:0.1"
       id="path848" />
    <path
       d="m 454.627,577.515 c 0,-0.356 0.285,-0.641 0.642,-0.641 0.356,0 0.644,0.285 0.644,0.641 0,0.356 -0.288,0.643 -0.644,0.643 -0.357,0 -0.642,-0.287 -0.642,-0.643"
       style="fill:#231f20;fill-opacity:1;fill-rule:nonzero;stroke:none;stroke-width:0.1"
       id="path850" />
    <path
       d="m 460.608,575.711 c 0,-0.356 0.284,-0.641 0.642,-0.641 0.355,0 0.644,0.285 0.644,0.641 0,0.356 -0.289,0.643 -0.644,0.643 -0.358,0 -0.642,-0.287 -0.642,-0.643"
       style="fill:#231f20;fill-opacity:1;fill-rule:nonzero;stroke:none;stroke-width:0.1"
       id="path852" />
    <path
       d="m 457.823,574.551 c 0,-0.356 0.284,-0.641 0.641,-0.641 0.356,0 0.644,0.285 0.644,0.641 0,0.354 -0.288,0.643 -0.644,0.643 -0.357,0 -0.641,-0.289 -0.641,-0.643"
       style="fill:#231f20;fill-opacity:1;fill-rule:nonzero;stroke:none;stroke-width:0.1"
       id="path854" />
    <path
       d="m 454.573,574.551 c 0,-0.356 0.284,-0.641 0.642,-0.641 0.355,0 0.643,0.285 0.643,0.641 0,0.354 -0.288,0.643 -0.643,0.643 -0.358,0 -0.642,-0.289 -0.642,-0.643"
       style="fill:#231f20;fill-opacity:1;fill-rule:nonzero;stroke:none;stroke-width:0.1"
       id="path856" />
    <path
       d="m 522.976,590.783 c 5.279,-4.592 14.876,-8.283 17.026,-8.283 2.136,0 11.627,3.645 16.927,8.197"
       style="fill:none;stroke:#231f20;stroke-width:0.5;stroke-linecap:butt;stroke-linejoin:miter;stroke-miterlimit:4;stroke-dasharray:none;stroke-opacity:1"
       id="path858" />
    <path
       d="m 761.855,552.399 c -5.09,1.763 -9.328,2.558 -10.917,2.028 -1.589,-0.529 -10.857,-9.534 -9.269,-14.3 1.589,-4.767 10.594,-12.976 14.566,-23.835 2.529,-6.917 4.533,-16.777 3.734,-29.134 1.031,-2.646 3.001,-6.682 9.035,-6.121"
       style="fill:none;stroke:#231f20;stroke-width:0.5;stroke-linecap:butt;stroke-linejoin:miter;stroke-miterlimit:4;stroke-dasharray:none;stroke-opacity:1"
       id="path860" />
    <path
       d="m 318.147,552.399 c 5.091,1.763 9.329,2.558 10.918,2.028 1.588,-0.529 10.856,-9.534 9.269,-14.3 -1.589,-4.767 -10.594,-12.976 -14.566,-23.835 -2.53,-6.917 -4.534,-16.777 -3.735,-29.134 -1.032,-2.646 -3.001,-6.682 -9.034,-6.121"
       style="fill:none;stroke:#231f20;stroke-width:0.5;stroke-linecap:butt;stroke-linejoin:miter;stroke-miterlimit:4;stroke-dasharray:none;stroke-opacity:1"
       id="path862" />
    <path
       d="m 678.109,580.381 c 5.033,-0.794 17.604,3.149 13.967,15.346"
       style="fill:none;stroke:#231f20;stroke-width:0.5;stroke-linecap:round;stroke-linejoin:round;stroke-miterlimit:4;stroke-dasharray:2.8, 1.8;stroke-dashoffset:0;stroke-opacity:1"
       id="path864" />
    <path
       d="m 602.37,602.096 c -1.856,-2.119 -2.383,-5.297 3.708,-7.68 6.088,-2.383 16.681,-8.474 23.039,-18.537 6.355,-10.064 19.598,-10.33 24.628,-10.33 5.033,0 19.862,-0.794 24.364,4.768 4.503,5.562 -1.809,14.51 -6.199,16.522"
       style="fill:none;stroke:#231f20;stroke-width:0.5;stroke-linecap:round;stroke-linejoin:round;stroke-miterlimit:4;stroke-dasharray:2.8, 1.8;stroke-dashoffset:0;stroke-opacity:1"
       id="path866" />
    <path
       d="m 724.718,532.181 c -0.527,5.827 -7.149,21.453 -13.504,25.954 -6.357,4.501 -23.039,12.711 -26.483,3.706 -3.444,-9.003 1.855,-11.651 1.589,-21.714 -0.265,-10.064 -1.823,-19.969 6.621,-36.017 2.647,-5.031 1.853,-25.688 1.059,-31.778 -0.795,-6.093 1.237,-18.329 2.826,-21.771"
       style="fill:none;stroke:#231f20;stroke-width:0.5;stroke-linecap:round;stroke-linejoin:round;stroke-miterlimit:4;stroke-dasharray:2.8, 1.8;stroke-dashoffset:0;stroke-opacity:1"
       id="path868" />
    <path
       d="m 711.214,558.135 c -3.444,-3.178 -10.86,-11.651 -11.654,-24.63 -0.795,-12.976 -1.924,-24.486 -6.257,-30.251"
       style="fill:none;stroke:#231f20;stroke-width:0.5;stroke-linecap:round;stroke-linejoin:round;stroke-miterlimit:4;stroke-dasharray:2.8, 1.8;stroke-dashoffset:0;stroke-opacity:1"
       id="path870" />
    <path
       d="m 759.969,487.158 c -0.454,-7.046 -1.818,-14.905 -4.515,-23.49"
       style="fill:none;stroke:#231f20;stroke-width:0.5;stroke-linecap:round;stroke-linejoin:round;stroke-miterlimit:4;stroke-dasharray:2.8, 1.8;stroke-dashoffset:0;stroke-opacity:1"
       id="path872" />
    <path
       d="m 320.033,487.158 c 0.454,-7.046 1.818,-14.905 4.515,-23.49"
       style="fill:none;stroke:#231f20;stroke-width:0.5;stroke-linecap:round;stroke-linejoin:round;stroke-miterlimit:4;stroke-dasharray:2.8, 1.8;stroke-dashoffset:0;stroke-opacity:1"
       id="path874" />
    <path
       d="m 734.098,551.471 c -0.375,-2.606 0.419,-9.224 7.571,-11.344"
       style="fill:none;stroke:#231f20;stroke-width:0.5;stroke-linecap:round;stroke-linejoin:round;stroke-miterlimit:4;stroke-dasharray:2.8, 1.8;stroke-dashoffset:0;stroke-opacity:1"
       id="path876" />
    <path
       d="m 715.395,561.722 c -0.209,-2.793 3.635,-15.479 20.056,-19.981"
       style="fill:none;stroke:#231f20;stroke-width:0.5;stroke-linecap:round;stroke-linejoin:round;stroke-miterlimit:4;stroke-dasharray:2.8, 1.8;stroke-dashoffset:0;stroke-opacity:1"
       id="path878" />
    <path
       d="m 665.132,424.13 c 1.889,2.582 4.24,3.18 6.622,0 2.383,-3.176 2.647,-8.209 2.647,-12.181 0,-3.972 -0.726,-18.703 -3.708,-23.571 -2.82,-4.606 -8.044,-10.128 -14.828,-4.765 -4.035,3.188 0,12.447 1.324,15.095 1.322,2.647 4.358,7.649 5.297,12.182 1.159,5.594 0.55,10.372 2.646,13.24 z"
       style="fill:none;stroke:#231f20;stroke-width:0.5;stroke-linecap:round;stroke-linejoin:round;stroke-miterlimit:4;stroke-dasharray:2.8, 1.8;stroke-dashoffset:0;stroke-opacity:1"
       id="path880" />
    <path
       d="m 602.103,583.691 c -2.78,2.118 -11.023,4.816 -12.049,1.059 -0.794,-2.914 3.649,-4.832 5.428,-6.355 2.782,-2.384 3.806,-5.41 5.96,-7.151"
       style="fill:none;stroke:#231f20;stroke-width:0.5;stroke-linecap:round;stroke-linejoin:round;stroke-miterlimit:4;stroke-dasharray:2.8, 1.8;stroke-dashoffset:0;stroke-opacity:1"
       id="path882" />
    <path
       d="m 477.634,602.096 c 1.854,-2.119 2.383,-5.297 -3.708,-7.68 -6.091,-2.383 -16.683,-8.474 -23.04,-18.537 -6.355,-10.064 -19.597,-10.33 -24.629,-10.33 -5.031,0 -19.861,-0.794 -24.363,4.768 -4.503,5.562 1.809,14.51 6.2,16.522"
       style="fill:none;stroke:#231f20;stroke-width:0.5;stroke-linecap:round;stroke-linejoin:round;stroke-miterlimit:4;stroke-dasharray:2.8, 1.8;stroke-dashoffset:0;stroke-opacity:1"
       id="path884" />
    <path
       d="m 355.284,532.181 c 0.529,5.827 7.15,21.453 13.506,25.954 6.356,4.501 23.039,12.711 26.482,3.706 3.443,-9.003 -1.854,-11.651 -1.589,-21.714 0.266,-10.064 1.824,-19.969 -6.62,-36.017 -2.647,-5.031 -1.853,-25.688 -1.06,-31.778 0.795,-6.093 -1.236,-18.329 -2.825,-21.771"
       style="fill:none;stroke:#231f20;stroke-width:0.5;stroke-linecap:round;stroke-linejoin:round;stroke-miterlimit:4;stroke-dasharray:2.8, 1.8;stroke-dashoffset:0;stroke-opacity:1"
       id="path886" />
    <path
       d="m 368.79,558.135 c 3.442,-3.178 10.858,-11.651 11.653,-24.63 0.794,-12.976 1.925,-24.486 6.259,-30.251"
       style="fill:none;stroke:#231f20;stroke-width:0.5;stroke-linecap:round;stroke-linejoin:round;stroke-miterlimit:4;stroke-dasharray:2.8, 1.8;stroke-dashoffset:0;stroke-opacity:1"
       id="path888" />
    <path
       d="m 345.905,551.471 c 0.375,-2.606 -0.42,-9.224 -7.571,-11.344"
       style="fill:none;stroke:#231f20;stroke-width:0.5;stroke-linecap:round;stroke-linejoin:round;stroke-miterlimit:4;stroke-dasharray:2.8, 1.8;stroke-dashoffset:0;stroke-opacity:1"
       id="path890" />
    <path
       d="m 364.608,561.722 c 0.209,-2.793 -3.635,-15.479 -20.055,-19.981"
       style="fill:none;stroke:#231f20;stroke-width:0.5;stroke-linecap:round;stroke-linejoin:round;stroke-miterlimit:4;stroke-dasharray:2.8, 1.8;stroke-dashoffset:0;stroke-opacity:1"
       id="path892" />
    <path
       d="m 414.87,424.13 c -1.887,2.582 -4.237,3.18 -6.62,0 -2.384,-3.176 -2.65,-8.209 -2.65,-12.181 0,-3.972 0.73,-18.703 3.708,-23.571 2.821,-4.606 8.045,-10.128 14.831,-4.765 4.035,3.188 0,12.447 -1.324,15.095 -1.324,2.647 -4.358,7.649 -5.297,12.182 -1.158,5.594 -0.551,10.372 -2.648,13.24 z"
       style="fill:none;stroke:#231f20;stroke-width:0.5;stroke-linecap:round;stroke-linejoin:round;stroke-miterlimit:4;stroke-dasharray:2.8, 1.8;stroke-dashoffset:0;stroke-opacity:1"
       id="path894" />
    <path
       d="m 477.899,583.691 c 2.78,2.118 11.024,4.816 12.05,1.059 0.795,-2.914 -3.65,-4.832 -5.429,-6.355 -2.78,-2.384 -3.805,-5.41 -5.958,-7.151"
       style="fill:none;stroke:#231f20;stroke-width:0.5;stroke-linecap:round;stroke-linejoin:round;stroke-miterlimit:4;stroke-dasharray:2.8, 1.8;stroke-dashoffset:0;stroke-opacity:1"
       id="path896" />
    <path
       d="m 768.133,759.903 c 12.201,4.799 32.238,7.399 47.377,7.158"
       style="fill:none;stroke:#231f20;stroke-width:0.5;stroke-linecap:round;stroke-linejoin:round;stroke-miterlimit:4;stroke-dasharray:2.8, 1.8;stroke-dashoffset:0;stroke-opacity:1"
       id="path898" />
    <path
       d="m 624.615,609.248 c 0,0 9.005,5.031 14.829,5.031 0,0 5.297,1.853 8.21,4.237"
       style="fill:none;stroke:#231f20;stroke-width:0.5;stroke-linecap:round;stroke-linejoin:round;stroke-miterlimit:4;stroke-dasharray:2.8, 1.8;stroke-dashoffset:0;stroke-opacity:1"
       id="path900" />
    <path
       d="m 608.259,605.846 c 3.379,-0.571 6.557,-0.837 9.203,0.488"
       style="fill:none;stroke:#231f20;stroke-width:0.5;stroke-linecap:round;stroke-linejoin:round;stroke-miterlimit:4;stroke-dasharray:2.8, 1.8;stroke-dashoffset:0;stroke-opacity:1"
       id="path902" />
    <path
       d="m 455.387,609.248 c 0,0 -9.004,5.031 -14.828,5.031 0,0 -5.297,1.853 -8.211,4.237"
       style="fill:none;stroke:#231f20;stroke-width:0.5;stroke-linecap:round;stroke-linejoin:round;stroke-miterlimit:4;stroke-dasharray:2.8, 1.8;stroke-dashoffset:0;stroke-opacity:1"
       id="path904" />
    <path
       d="m 471.743,605.846 c -3.379,-0.571 -6.556,-0.837 -9.203,0.488"
       style="fill:none;stroke:#231f20;stroke-width:0.5;stroke-linecap:round;stroke-linejoin:round;stroke-miterlimit:4;stroke-dasharray:2.8, 1.8;stroke-dashoffset:0;stroke-opacity:1"
       id="path906" />
    <path
       d="m 639.444,614.279 c 4.85,0 21.105,-3.287 24.19,-11.971"
       style="fill:none;stroke:#231f20;stroke-width:0.5;stroke-linecap:round;stroke-linejoin:round;stroke-miterlimit:4;stroke-dasharray:2.8, 1.8;stroke-dashoffset:0;stroke-opacity:1"
       id="path908" />
    <path
       d="m 625.94,538.539 c -3.975,4.765 -6.622,16.948 1.321,21.713 7.947,4.768 14.319,5.871 24.637,5.32 10.321,-0.552 21.445,-2.936 23.564,-9.555 2.12,-6.621 -1.325,-12.713 -8.21,-12.448"
       style="fill:none;stroke:#231f20;stroke-width:0.5;stroke-linecap:round;stroke-linejoin:round;stroke-miterlimit:4;stroke-dasharray:2.8, 1.8;stroke-dashoffset:0;stroke-opacity:1"
       id="path910" />
    <path
       d="m 643.152,543.04 c -2.914,-0.793 -13.24,-5.297 -14.566,-13.243 -1.325,-7.943 -0.927,-13.108 3.839,-24.23 4.9,-11.432 9.402,-18.936 17.879,-23.703 8.474,-4.767 17.723,-5.782 25.414,5.452"
       style="fill:none;stroke:#231f20;stroke-width:0.5;stroke-linecap:round;stroke-linejoin:round;stroke-miterlimit:4;stroke-dasharray:2.8, 1.8;stroke-dashoffset:0;stroke-opacity:1"
       id="path912" />
    <path
       d="m 641.992,506.754 c 4.243,-4.282 8.046,-7.412 14.667,-10.06 6.621,-2.649 14.448,-12.974 11.991,-16.285"
       style="fill:none;stroke:#231f20;stroke-width:0.5;stroke-linecap:round;stroke-linejoin:round;stroke-miterlimit:4;stroke-dasharray:2.8, 1.8;stroke-dashoffset:0;stroke-opacity:1"
       id="path914" />
    <path
       d="m 631.675,507.357 c 3.461,-1.842 16.509,-0.864 23.395,3.373 6.886,4.237 19.331,12.977 21.717,18.01"
       style="fill:none;stroke:#231f20;stroke-width:0.5;stroke-linecap:round;stroke-linejoin:round;stroke-miterlimit:4;stroke-dasharray:2.8, 1.8;stroke-dashoffset:0;stroke-opacity:1"
       id="path916" />
    <path
       d="m 438.011,506.754 c -4.244,-4.282 -8.046,-7.412 -14.668,-10.06 -6.621,-2.649 -14.447,-12.974 -11.991,-16.285"
       style="fill:none;stroke:#231f20;stroke-width:0.5;stroke-linecap:round;stroke-linejoin:round;stroke-miterlimit:4;stroke-dasharray:2.8, 1.8;stroke-dashoffset:0;stroke-opacity:1"
       id="path918" />
    <path
       d="m 448.327,507.357 c -3.46,-1.842 -16.509,-0.864 -23.395,3.373 -6.885,4.237 -19.331,12.977 -21.717,18.01"
       style="fill:none;stroke:#231f20;stroke-width:0.5;stroke-linecap:round;stroke-linejoin:round;stroke-miterlimit:4;stroke-dasharray:2.8, 1.8;stroke-dashoffset:0;stroke-opacity:1"
       id="path920" />
    <path
       d="m 665.397,461.471 c 3.367,3.001 6.357,6.358 7.416,7.153 1.061,0.794 2.383,0.529 1.324,-2.385 -1.057,-2.912 -3.177,-6.223 -6.621,-9.003 -2.481,-2.005 -8.208,-4.238 -9.005,-2.65 -0.794,1.588 5.199,5.382 6.886,6.885 z"
       style="fill:none;stroke:#231f20;stroke-width:0.5;stroke-linecap:round;stroke-linejoin:round;stroke-miterlimit:4;stroke-dasharray:2.8, 1.8;stroke-dashoffset:0;stroke-opacity:1"
       id="path922" />
    <path
       d="m 750.938,554.427 c 0.264,2.385 -1.062,7.704 -3.708,7.704"
       style="fill:none;stroke:#231f20;stroke-width:0.5;stroke-linecap:round;stroke-linejoin:round;stroke-miterlimit:4;stroke-dasharray:2.8, 1.8;stroke-dashoffset:0;stroke-opacity:1"
       id="path924" />
    <path
       d="m 742.477,560.241 c 2.634,1.073 5.15,1.204 9.057,5.508"
       style="fill:none;stroke:#231f20;stroke-width:0.5;stroke-linecap:round;stroke-linejoin:round;stroke-miterlimit:4;stroke-dasharray:2.8, 1.8;stroke-dashoffset:0;stroke-opacity:1"
       id="path926" />
    <path
       d="m 693.736,440.021 c -3.975,-0.264 -11.124,3.442 -13.243,7.944 -1.783,3.789 -3.466,13.308 15.492,5.065"
       style="fill:none;stroke:#231f20;stroke-width:0.5;stroke-linecap:round;stroke-linejoin:round;stroke-miterlimit:4;stroke-dasharray:2.8, 1.8;stroke-dashoffset:0;stroke-opacity:1"
       id="path928" />
    <path
       d="m 595.217,552.708 c -0.396,-11.918 -1.191,-41.581 13.905,-70.579 15.095,-28.999 29.794,-50.449 39.723,-59.984"
       style="fill:none;stroke:#231f20;stroke-width:0.5;stroke-linecap:round;stroke-linejoin:round;stroke-miterlimit:4;stroke-dasharray:2.8, 1.8;stroke-dashoffset:0;stroke-opacity:1"
       id="path930" />
    <path
       d="m 605.547,396.589 c 8.739,0 16.154,0 20.126,-6.356 3.972,-6.357 1.853,-14.83 -3.177,-16.419 -5.034,-1.589 -7.68,-0.53 -11.918,1.06 -4.237,1.588 -12.71,4.5 -18.801,4.237 -6.092,-0.265 -16.576,0.362 -10.594,9.533 3.972,6.091 24.364,7.945 24.364,7.945 z"
       style="fill:none;stroke:#231f20;stroke-width:0.5;stroke-linecap:round;stroke-linejoin:round;stroke-miterlimit:4;stroke-dasharray:2.8, 1.8;stroke-dashoffset:0;stroke-opacity:1"
       id="path932" />
    <path
       d="m 633.088,375.138 c 5.713,3.627 11.388,7.679 13.772,9.533 2.383,1.855 7.149,1.325 9.005,-1.058 1.852,-2.383 2.913,-3.974 -2.12,-9.269 -5.033,-5.297 -10.593,-9.534 -18.273,-11.653 -7.68,-2.117 -13.507,-3.179 -18.273,0.529 -4.766,3.708 -5.033,5.033 1.058,6.091 6.094,1.06 9.563,2.481 14.831,5.827 z"
       style="fill:none;stroke:#231f20;stroke-width:0.5;stroke-linecap:round;stroke-linejoin:round;stroke-miterlimit:4;stroke-dasharray:2.8, 1.8;stroke-dashoffset:0;stroke-opacity:1"
       id="path934" />
    <path
       d="m 660.63,434.99 c 3.439,0.171 10.063,-3.708 4.502,-10.86 -5.56,-7.148 -12.181,-10.591 -15.889,-6.354 -3.708,4.235 6.091,16.948 11.387,17.214 z"
       style="fill:none;stroke:#231f20;stroke-width:0.5;stroke-linecap:round;stroke-linejoin:round;stroke-miterlimit:4;stroke-dasharray:2.8, 1.8;stroke-dashoffset:0;stroke-opacity:1"
       id="path936" />
    <path
       d="m 648.443,419.906 c -5.555,1.048 -10.588,-0.807 -14.296,-2.66 -3.708,-1.853 -13.771,-3.445 -16.153,-5.561 -2.384,-2.119 -3.442,-5.033 -0.795,-8.211 2.649,-3.177 5.297,-6.354 6.091,-7.944 0.794,-1.589 2.383,-6.09 6.355,-2.649 3.975,3.445 8.74,7.947 11.124,10.593 2.383,2.649 6.888,10.463 8.079,14.898"
       style="fill:none;stroke:#231f20;stroke-width:0.5;stroke-linecap:round;stroke-linejoin:round;stroke-miterlimit:4;stroke-dasharray:2.8, 1.8;stroke-dashoffset:0;stroke-opacity:1"
       id="path938" />
    <path
       d="m 639.093,401.701 c 4.059,0.979 16.641,2.326 16.772,-3.523 0.133,-6.024 -4.054,-12.481 -12.183,-11.919 -8.207,0.572 -12.672,1.075 -11.633,8.748"
       style="fill:none;stroke:#231f20;stroke-width:0.5;stroke-linecap:round;stroke-linejoin:round;stroke-miterlimit:4;stroke-dasharray:2.8, 1.8;stroke-dashoffset:0;stroke-opacity:1"
       id="path940" />
    <path
       d="m 646.46,402.565 c 3.18,0.215 2.726,-16.306 -2.778,-16.306 -3.155,0 -1.97,15.986 2.778,16.306 z"
       style="fill:none;stroke:#231f20;stroke-width:0.5;stroke-linecap:round;stroke-linejoin:round;stroke-miterlimit:4;stroke-dasharray:2.8, 1.8;stroke-dashoffset:0;stroke-opacity:1"
       id="path942" />
    <path
       d="m 540.002,376.462 c 1.985,0 4.532,-0.067 8.05,1.4"
       style="fill:none;stroke:#231f20;stroke-width:0.5;stroke-linecap:round;stroke-linejoin:round;stroke-miterlimit:4;stroke-dasharray:2.8, 1.8;stroke-dashoffset:0;stroke-opacity:1"
       id="path944" />
    <path
       d="m 542.518,500.61 c -0.231,1.953 -2.019,8.801 2.913,8.801 5.826,0 14.83,-0.798 12.977,-6.89"
       style="fill:none;stroke:#231f20;stroke-width:0.5;stroke-linecap:round;stroke-linejoin:round;stroke-miterlimit:4;stroke-dasharray:2.8, 1.8;stroke-dashoffset:0;stroke-opacity:1"
       id="path946" />
    <path
       d="m 549.403,503.05 c 2.645,-0.108 9.534,-0.266 11.651,-0.794 2.119,-0.531 5.827,-4.236 3.445,-8.474 -2.383,-4.239 -10.33,-11.653 -14.037,-13.242 -3.708,-1.59 -7.944,-2.118 -7.944,2.913 0,5.032 -0.265,10.592 -0.531,12.976 -0.264,2.384 -0.503,6.946 7.416,6.621 z"
       style="fill:none;stroke:#231f20;stroke-width:0.5;stroke-linecap:round;stroke-linejoin:round;stroke-miterlimit:4;stroke-dasharray:2.8, 1.8;stroke-dashoffset:0;stroke-opacity:1"
       id="path948" />
    <path
       d="m 561.054,502.256 c 4.77,0.531 28.089,3.418 39.602,0.914"
       style="fill:none;stroke:#231f20;stroke-width:0.5;stroke-linecap:round;stroke-linejoin:round;stroke-miterlimit:4;stroke-dasharray:2.8, 1.8;stroke-dashoffset:0;stroke-opacity:1"
       id="path950" />
    <path
       d="m 595.337,534.771 c 4.249,-6.959 26.96,7.399 12.659,29.247"
       style="fill:none;stroke:#231f20;stroke-width:0.5;stroke-linecap:round;stroke-linejoin:round;stroke-miterlimit:4;stroke-dasharray:2.8, 1.8;stroke-dashoffset:0;stroke-opacity:1"
       id="path952" />
    <path
       d="m 547.748,556.017 c 0.198,-1.789 0.198,-14.896 0.198,-16.883 0,-1.987 -0.132,-4.437 -0.662,-5.098"
       style="fill:none;stroke:#231f20;stroke-width:0.5;stroke-linecap:round;stroke-linejoin:round;stroke-miterlimit:4;stroke-dasharray:2.8, 1.8;stroke-dashoffset:0;stroke-opacity:1"
       id="path954" />
    <path
       d="m 545.96,557.804 c 0.855,-0.73 3.377,-3.972 8.144,-4.568 4.766,-0.596 13.507,1.191 15.493,2.184 1.985,0.995 5.759,6.953 5.759,8.74 0,1.787 -1.391,7.548 -7.149,6.554 -5.761,-0.993 -17.876,-2.583 -20.261,-2.98 -2.383,-0.398 -4.17,-2.581 -4.37,-3.774 -0.199,-1.191 -1,-3.263 2.384,-6.156 z"
       style="fill:none;stroke:#231f20;stroke-width:0.5;stroke-linecap:round;stroke-linejoin:round;stroke-miterlimit:4;stroke-dasharray:2.8, 1.8;stroke-dashoffset:0;stroke-opacity:1"
       id="path956" />
    <path
       d="m 543.849,564.717 c -0.472,2.819 2.905,11.956 12.24,13.148 9.336,1.191 15.902,-2.366 13.116,-7.043"
       style="fill:none;stroke:#231f20;stroke-width:0.5;stroke-linecap:round;stroke-linejoin:round;stroke-miterlimit:4;stroke-dasharray:2.8, 1.8;stroke-dashoffset:0;stroke-opacity:1"
       id="path958" />
    <path
       d="m 554.104,553.236 c 1.39,-2.187 9.931,-5.165 19.266,-2.782 9.334,2.384 15.295,5.166 16.486,5.563 1.191,0.398 8.275,2.582 6.42,-2.385"
       style="fill:none;stroke:#231f20;stroke-width:0.5;stroke-linecap:round;stroke-linejoin:round;stroke-miterlimit:4;stroke-dasharray:2.8, 1.8;stroke-dashoffset:0;stroke-opacity:1"
       id="path960" />
    <path
       d="m 575.356,564.16 c 1.39,3.176 4.369,7.548 8.542,7.548 4.171,0 12.03,-2.573 6.61,-15.49"
       style="fill:none;stroke:#231f20;stroke-width:0.5;stroke-linecap:round;stroke-linejoin:round;stroke-miterlimit:4;stroke-dasharray:2.8, 1.8;stroke-dashoffset:0;stroke-opacity:1"
       id="path962" />
    <path
       d="m 311.868,759.903 c -12.2,4.799 -32.236,7.399 -47.375,7.158"
       style="fill:none;stroke:#231f20;stroke-width:0.5;stroke-linecap:round;stroke-linejoin:round;stroke-miterlimit:4;stroke-dasharray:2.8, 1.8;stroke-dashoffset:0;stroke-opacity:1"
       id="path964" />
    <path
       d="m 556.929,590.697 c 2.258,1.94 3.754,4.044 3.597,6.102"
       style="fill:none;stroke:#231f20;stroke-width:0.5;stroke-linecap:round;stroke-linejoin:round;stroke-miterlimit:4;stroke-dasharray:2.8, 1.8;stroke-dashoffset:0;stroke-opacity:1"
       id="path966" />
    <path
       d="m 519.478,596.799 c -0.156,-2.027 1.295,-4.099 3.498,-6.016"
       style="fill:none;stroke:#231f20;stroke-width:0.5;stroke-linecap:round;stroke-linejoin:round;stroke-miterlimit:4;stroke-dasharray:2.8, 1.8;stroke-dashoffset:0;stroke-opacity:1"
       id="path968" />
    <path
       d="m 401.894,580.381 c -5.033,-0.794 -17.603,3.149 -13.966,15.346"
       style="fill:none;stroke:#231f20;stroke-width:0.5;stroke-linecap:round;stroke-linejoin:round;stroke-miterlimit:4;stroke-dasharray:2.8, 1.8;stroke-dashoffset:0;stroke-opacity:1"
       id="path970" />
    <path
       d="m 440.558,614.279 c -4.85,0 -21.102,-3.287 -24.19,-11.971"
       style="fill:none;stroke:#231f20;stroke-width:0.5;stroke-linecap:round;stroke-linejoin:round;stroke-miterlimit:4;stroke-dasharray:2.8, 1.8;stroke-dashoffset:0;stroke-opacity:1"
       id="path972" />
    <path
       d="m 454.064,538.539 c 3.973,4.765 6.622,16.948 -1.323,21.713 -7.946,4.768 -14.317,5.871 -24.637,5.32 -10.321,-0.552 -21.443,-2.936 -23.562,-9.555 -2.119,-6.621 1.323,-12.713 8.209,-12.448"
       style="fill:none;stroke:#231f20;stroke-width:0.5;stroke-linecap:round;stroke-linejoin:round;stroke-miterlimit:4;stroke-dasharray:2.8, 1.8;stroke-dashoffset:0;stroke-opacity:1"
       id="path974" />
    <path
       d="m 436.851,543.04 c 2.912,-0.793 13.24,-5.297 14.565,-13.243 1.325,-7.943 0.927,-13.108 -3.839,-24.23 -4.899,-11.432 -9.402,-18.936 -17.876,-23.703 -8.475,-4.767 -17.727,-5.782 -25.415,5.452"
       style="fill:none;stroke:#231f20;stroke-width:0.5;stroke-linecap:round;stroke-linejoin:round;stroke-miterlimit:4;stroke-dasharray:2.8, 1.8;stroke-dashoffset:0;stroke-opacity:1"
       id="path976" />
    <path
       d="m 414.605,461.471 c -3.368,3.001 -6.356,6.358 -7.415,7.153 -1.06,0.794 -2.383,0.529 -1.324,-2.385 1.059,-2.912 3.177,-6.223 6.621,-9.003 2.48,-2.005 8.209,-4.238 9.004,-2.65 0.794,1.588 -5.198,5.382 -6.886,6.885 z"
       style="fill:none;stroke:#231f20;stroke-width:0.5;stroke-linecap:round;stroke-linejoin:round;stroke-miterlimit:4;stroke-dasharray:2.8, 1.8;stroke-dashoffset:0;stroke-opacity:1"
       id="path978" />
    <path
       d="m 329.065,554.427 c -0.265,2.385 1.06,7.705 3.708,7.705"
       style="fill:none;stroke:#231f20;stroke-width:0.5;stroke-linecap:round;stroke-linejoin:round;stroke-miterlimit:4;stroke-dasharray:2.8, 1.8;stroke-dashoffset:0;stroke-opacity:1"
       id="path980" />
    <path
       d="m 337.524,560.241 c -2.633,1.073 -5.148,1.204 -9.055,5.508"
       style="fill:none;stroke:#231f20;stroke-width:0.5;stroke-linecap:round;stroke-linejoin:round;stroke-miterlimit:4;stroke-dasharray:2.8, 1.8;stroke-dashoffset:0;stroke-opacity:1"
       id="path982" />
    <path
       d="m 386.268,440.021 c 3.973,-0.264 11.123,3.442 13.242,7.944 1.783,3.789 3.467,13.308 -15.492,5.065"
       style="fill:none;stroke:#231f20;stroke-width:0.5;stroke-linecap:round;stroke-linejoin:round;stroke-miterlimit:4;stroke-dasharray:2.8, 1.8;stroke-dashoffset:0;stroke-opacity:1"
       id="path984" />
    <path
       d="m 484.785,552.708 c 0.397,-11.918 1.191,-41.581 -13.904,-70.579 -15.094,-28.999 -29.794,-50.449 -39.724,-59.984"
       style="fill:none;stroke:#231f20;stroke-width:0.5;stroke-linecap:round;stroke-linejoin:round;stroke-miterlimit:4;stroke-dasharray:2.8, 1.8;stroke-dashoffset:0;stroke-opacity:1"
       id="path986" />
    <path
       d="m 474.457,396.589 c -8.74,0 -16.155,0 -20.127,-6.356 -3.972,-6.357 -1.854,-14.83 3.177,-16.419 5.032,-1.589 7.681,-0.53 11.918,1.06 4.238,1.588 12.711,4.5 18.802,4.237 6.092,-0.265 16.574,0.362 10.594,9.533 -3.972,6.091 -24.364,7.945 -24.364,7.945 z"
       style="fill:none;stroke:#231f20;stroke-width:0.5;stroke-linecap:round;stroke-linejoin:round;stroke-miterlimit:4;stroke-dasharray:2.8, 1.8;stroke-dashoffset:0;stroke-opacity:1"
       id="path988" />
    <path
       d="m 446.915,375.138 c -5.713,3.627 -11.388,7.679 -13.772,9.533 -2.384,1.855 -7.149,1.325 -9.004,-1.058 -1.854,-2.383 -2.914,-3.974 2.118,-9.269 5.033,-5.297 10.593,-9.534 18.274,-11.653 7.679,-2.117 13.506,-3.179 18.272,0.529 4.768,3.708 5.032,5.033 -1.058,6.091 -6.091,1.06 -9.561,2.481 -14.83,5.827 z"
       style="fill:none;stroke:#231f20;stroke-width:0.5;stroke-linecap:round;stroke-linejoin:round;stroke-miterlimit:4;stroke-dasharray:2.8, 1.8;stroke-dashoffset:0;stroke-opacity:1"
       id="path990" />
    <path
       d="m 419.373,434.99 c -3.44,0.171 -10.065,-3.708 -4.503,-10.86 5.561,-7.148 12.181,-10.591 15.889,-6.354 3.708,4.235 -6.09,16.948 -11.386,17.214 z"
       style="fill:none;stroke:#231f20;stroke-width:0.5;stroke-linecap:round;stroke-linejoin:round;stroke-miterlimit:4;stroke-dasharray:2.8, 1.8;stroke-dashoffset:0;stroke-opacity:1"
       id="path992" />
    <path
       d="m 431.56,419.906 c 5.555,1.048 10.587,-0.807 14.295,-2.66 3.708,-1.853 13.771,-3.445 16.154,-5.561 2.384,-2.119 3.443,-5.033 0.794,-8.211 -2.647,-3.177 -5.296,-6.354 -6.09,-7.944 -0.795,-1.589 -2.383,-6.09 -6.355,-2.649 -3.973,3.445 -8.739,7.947 -11.123,10.593 -2.384,2.649 -6.89,10.463 -8.079,14.898"
       style="fill:none;stroke:#231f20;stroke-width:0.5;stroke-linecap:round;stroke-linejoin:round;stroke-miterlimit:4;stroke-dasharray:2.8, 1.8;stroke-dashoffset:0;stroke-opacity:1"
       id="path994" />
    <path
       d="m 440.911,401.701 c -4.06,0.979 -16.643,2.326 -16.772,-3.523 -0.133,-6.024 4.053,-12.481 12.182,-11.919 8.208,0.572 12.671,1.075 11.632,8.748"
       style="fill:none;stroke:#231f20;stroke-width:0.5;stroke-linecap:round;stroke-linejoin:round;stroke-miterlimit:4;stroke-dasharray:2.8, 1.8;stroke-dashoffset:0;stroke-opacity:1"
       id="path996" />
    <path
       d="m 433.543,402.565 c -3.18,0.215 -2.725,-16.306 2.778,-16.306 3.155,0 1.969,15.986 -2.778,16.306 z"
       style="fill:none;stroke:#231f20;stroke-width:0.5;stroke-linecap:round;stroke-linejoin:round;stroke-miterlimit:4;stroke-dasharray:2.8, 1.8;stroke-dashoffset:0;stroke-opacity:1"
       id="path998" />
    <path
       d="m 540.002,376.462 c -1.987,0 -4.533,-0.067 -8.051,1.4"
       style="fill:none;stroke:#231f20;stroke-width:0.5;stroke-linecap:round;stroke-linejoin:round;stroke-miterlimit:4;stroke-dasharray:2.8, 1.8;stroke-dashoffset:0;stroke-opacity:1"
       id="path1000" />
    <path
       d="m 537.486,500.61 c 0.231,1.953 2.02,8.801 -2.914,8.801 -5.825,0 -14.83,-0.798 -12.977,-6.89"
       style="fill:none;stroke:#231f20;stroke-width:0.5;stroke-linecap:round;stroke-linejoin:round;stroke-miterlimit:4;stroke-dasharray:2.8, 1.8;stroke-dashoffset:0;stroke-opacity:1"
       id="path1002" />
    <path
       d="m 530.6,503.05 c -2.645,-0.108 -9.534,-0.266 -11.652,-0.794 -2.119,-0.531 -5.826,-4.236 -3.443,-8.474 2.384,-4.239 10.329,-11.653 14.037,-13.242 3.707,-1.59 7.944,-2.118 7.944,2.913 0,5.032 0.266,10.592 0.529,12.976 0.266,2.384 0.503,6.946 -7.415,6.621 z"
       style="fill:none;stroke:#231f20;stroke-width:0.5;stroke-linecap:round;stroke-linejoin:round;stroke-miterlimit:4;stroke-dasharray:2.8, 1.8;stroke-dashoffset:0;stroke-opacity:1"
       id="path1004" />
    <path
       d="m 518.948,502.256 c -4.767,0.531 -28.089,3.418 -39.6,0.914"
       style="fill:none;stroke:#231f20;stroke-width:0.5;stroke-linecap:round;stroke-linejoin:round;stroke-miterlimit:4;stroke-dasharray:2.8, 1.8;stroke-dashoffset:0;stroke-opacity:1"
       id="path1006" />
    <path
       d="m 535.23,509.551 c 1.848,-0.843 4.772,-0.674 4.772,-0.674 0,0 2.923,-0.169 4.771,0.674"
       style="fill:none;stroke:#231f20;stroke-width:0.5;stroke-linecap:round;stroke-linejoin:round;stroke-miterlimit:4;stroke-dasharray:2.8, 1.8;stroke-dashoffset:0;stroke-opacity:1"
       id="path1008" />
    <path
       d="m 484.666,534.771 c -4.251,-6.959 -26.96,7.399 -12.66,29.247"
       style="fill:none;stroke:#231f20;stroke-width:0.5;stroke-linecap:round;stroke-linejoin:round;stroke-miterlimit:4;stroke-dasharray:2.8, 1.8;stroke-dashoffset:0;stroke-opacity:1"
       id="path1010" />
    <path
       d="m 535.895,559.859 c 1.191,-0.199 2.075,-2.045 2.12,-3.842 0.104,-4.107 0.993,-17.081 0.993,-19.664 0,-2.582 -1.191,-3.18 -1.191,-3.18 h 2.185 2.184 c 0,0 -1.192,0.598 -1.192,3.18 0,2.583 0.889,15.557 0.993,19.664 0.047,1.797 0.931,3.643 2.122,3.842"
       style="fill:none;stroke:#231f20;stroke-width:0.5;stroke-linecap:round;stroke-linejoin:round;stroke-miterlimit:4;stroke-dasharray:2.8, 1.8;stroke-dashoffset:0;stroke-opacity:1"
       id="path1012" />
    <path
       d="m 532.255,556.017 c -0.198,-1.789 -0.198,-14.896 -0.198,-16.883 0,-1.987 0.133,-4.437 0.662,-5.098"
       style="fill:none;stroke:#231f20;stroke-width:0.5;stroke-linecap:round;stroke-linejoin:round;stroke-miterlimit:4;stroke-dasharray:2.8, 1.8;stroke-dashoffset:0;stroke-opacity:1"
       id="path1014" />
    <path
       d="m 534.042,557.804 c -0.853,-0.73 -3.376,-3.972 -8.142,-4.568 -4.768,-0.596 -13.507,1.191 -15.493,2.184 -1.986,0.995 -5.76,6.953 -5.76,8.74 0,1.787 1.391,7.548 7.15,6.554 5.761,-0.993 17.876,-2.583 20.26,-2.98 2.383,-0.398 4.171,-2.581 4.369,-3.774 0.2,-1.191 1.001,-3.263 -2.384,-6.156 z"
       style="fill:none;stroke:#231f20;stroke-width:0.5;stroke-linecap:round;stroke-linejoin:round;stroke-miterlimit:4;stroke-dasharray:2.8, 1.8;stroke-dashoffset:0;stroke-opacity:1"
       id="path1016" />
    <path
       d="m 536.155,564.717 c 0.471,2.819 -2.906,11.956 -12.241,13.148 -9.336,1.191 -15.903,-2.366 -13.116,-7.043"
       style="fill:none;stroke:#231f20;stroke-width:0.5;stroke-linecap:round;stroke-linejoin:round;stroke-miterlimit:4;stroke-dasharray:2.8, 1.8;stroke-dashoffset:0;stroke-opacity:1"
       id="path1018" />
    <path
       d="m 525.9,553.236 c -1.391,-2.187 -9.932,-5.165 -19.267,-2.782 -9.335,2.384 -15.294,5.166 -16.486,5.563 -1.191,0.398 -8.274,2.582 -6.421,-2.385"
       style="fill:none;stroke:#231f20;stroke-width:0.5;stroke-linecap:round;stroke-linejoin:round;stroke-miterlimit:4;stroke-dasharray:2.8, 1.8;stroke-dashoffset:0;stroke-opacity:1"
       id="path1020" />
    <path
       d="m 504.647,564.16 c -1.391,3.176 -4.369,7.548 -8.541,7.548 -4.171,0 -12.032,-2.573 -6.611,-15.49"
       style="fill:none;stroke:#231f20;stroke-width:0.5;stroke-linecap:round;stroke-linejoin:round;stroke-miterlimit:4;stroke-dasharray:2.8, 1.8;stroke-dashoffset:0;stroke-opacity:1"
       id="path1022" />
    <path
       d="m 606.872,563.697 c 0.764,0.838 1.058,3.971 1.456,5.428 0.397,1.457 1.455,11.784 0.927,17.876 -0.53,6.091 -2.253,7.151 -4.168,7.836 -1.121,0.401 -3.381,-1.215 -3.381,-3.73 0,-2.517 0.327,-5.78 0.397,-7.416 0.134,-3.046 -0.397,-10.989 -0.661,-12.447 -0.267,-1.456 -1.999,-11.982 2.675,-10.355"
       style="fill:none;stroke:#231f20;stroke-width:0.5;stroke-linecap:round;stroke-linejoin:round;stroke-miterlimit:4;stroke-dasharray:2.8, 1.8;stroke-dashoffset:0;stroke-opacity:1"
       id="path1024" />
    <path
       d="m 473.132,563.697 c -0.764,0.838 -1.059,3.971 -1.457,5.428 -0.396,1.457 -1.456,11.784 -0.926,17.876 0.529,6.091 2.251,7.151 4.166,7.836 1.122,0.401 3.381,-1.215 3.381,-3.73 0,-2.517 -0.327,-5.78 -0.397,-7.416 -0.132,-3.046 0.398,-10.989 0.663,-12.447 0.265,-1.456 1.999,-11.982 -2.675,-10.355"
       style="fill:none;stroke:#231f20;stroke-width:0.5;stroke-linecap:round;stroke-linejoin:round;stroke-miterlimit:4;stroke-dasharray:2.8, 1.8;stroke-dashoffset:0;stroke-opacity:1"
       id="path1026" />
    <path
       d="m 676.256,488.485 c 1.326,2.647 4.767,17.743 3.708,26.482 -1.06,8.74 -2.913,10.859 -3.177,13.773 -0.267,2.912 -1.325,13.77 -9.535,14.829 -5.833,0.753 -19.862,0.795 -24.1,-0.529"
       style="fill:none;stroke:#231f20;stroke-width:0.5;stroke-linecap:round;stroke-linejoin:round;stroke-miterlimit:4;stroke-dasharray:2.8, 1.8;stroke-dashoffset:0;stroke-opacity:1"
       id="path1028" />
    <path
       d="m 679.935,506.496 c 1.088,0.526 2.149,-0.534 2.413,-3.446 0.264,-2.913 0.528,-10.592 1.853,-14.3"
       style="fill:none;stroke:#231f20;stroke-width:0.5;stroke-linecap:round;stroke-linejoin:round;stroke-miterlimit:4;stroke-dasharray:2.8, 1.8;stroke-dashoffset:0;stroke-opacity:1"
       id="path1030" />
    <path
       d="m 403.746,488.485 c -1.325,2.647 -4.766,17.743 -3.708,26.482 1.061,8.74 2.914,10.859 3.177,13.773 0.267,2.912 1.326,13.77 9.535,14.829 5.833,0.753 19.862,0.795 24.101,-0.529"
       style="fill:none;stroke:#231f20;stroke-width:0.5;stroke-linecap:round;stroke-linejoin:round;stroke-miterlimit:4;stroke-dasharray:2.8, 1.8;stroke-dashoffset:0;stroke-opacity:1"
       id="path1032" />
    <path
       d="m 400.068,506.496 c -1.088,0.526 -2.15,-0.534 -2.413,-3.446 -0.264,-2.913 -0.529,-10.592 -1.853,-14.3"
       style="fill:none;stroke:#231f20;stroke-width:0.5;stroke-linecap:round;stroke-linejoin:round;stroke-miterlimit:4;stroke-dasharray:2.8, 1.8;stroke-dashoffset:0;stroke-opacity:1"
       id="path1034" />
    <path
       d="m 735.312,745.898 c -1.978,-1.13 0.267,-5.561 2.913,-9.798 2.649,-4.237 23.837,-36.016 27.014,-39.194 3.177,-3.179 11.916,-7.68 12.976,-7.152 1.059,0.531 1.059,10.859 -2.649,17.745 -3.708,6.885 -10.566,19.354 -13.771,23.04 -5.296,6.091 -12.976,6.885 -16.684,9.003 -3.708,2.12 -7.943,7.416 -9.799,6.356"
       style="fill:#d3d2d2;fill-opacity:1;fill-rule:nonzero;stroke:none;stroke-width:0.1"
       id="path1036" />
    <path
       d="m 735.312,745.898 c -1.978,-1.13 0.267,-5.561 2.913,-9.798 2.649,-4.237 23.837,-36.016 27.014,-39.194 3.177,-3.179 11.916,-7.68 12.976,-7.152 1.059,0.531 1.059,10.859 -2.649,17.745 -3.708,6.885 -10.566,19.354 -13.771,23.04 -5.296,6.091 -12.976,6.885 -16.684,9.003 -3.708,2.12 -7.943,7.416 -9.799,6.356 z"
       style="fill:none;stroke:#231f20;stroke-width:0.75;stroke-linecap:round;stroke-linejoin:round;stroke-miterlimit:4;stroke-dasharray:0, 2;stroke-dashoffset:0;stroke-opacity:1"
       id="path1038" />
    <path
       d="m 540.002,774.5 c -14.963,0 -29.264,-2.119 -56.276,-10.328 -27.013,-8.21 -33.899,-20.392 -43.168,-37.87 -9.269,-17.479 -16.949,-30.985 -33.897,-52.967 -16.95,-21.98 -39.46,-43.167 -54.556,-48.728 -15.095,-5.562 -33.897,2.648 -39.46,6.621 -5.561,3.972 5.827,8.209 16.95,11.917 11.123,3.707 29.66,16.684 42.637,25.689 12.976,9.004 21.451,13.505 29.927,25.688 8.474,12.183 17.478,37.076 13.241,39.194 -4.237,2.118 -14.566,-16.419 -18.539,-12.976 -5.283,4.579 -2.912,13.507 5.298,30.72 8.209,17.214 16.153,28.337 19.332,34.163 0.794,4.238 4.237,14.566 6.885,21.981 2.648,7.414 9.003,15.36 12.711,19.861 3.708,4.503 10.594,10.594 12.977,14.567 2.384,3.972 5.297,6.091 9.005,8.209 3.708,2.12 14.83,6.091 25.953,7.68 11.123,1.589 39.989,5.032 50.98,5.032 10.99,0 39.856,-3.443 50.98,-5.032 11.121,-1.589 22.245,-5.56 25.953,-7.68 3.708,-2.118 6.621,-4.237 9.005,-8.209 2.383,-3.973 9.268,-10.064 12.976,-14.567 3.708,-4.501 10.063,-12.447 12.71,-19.861 2.65,-7.415 6.091,-17.743 6.885,-21.981 3.181,-5.826 11.124,-16.949 19.334,-34.163 8.21,-17.213 10.58,-26.141 5.297,-30.72 -3.972,-3.443 -14.302,15.094 -18.54,12.976 -4.235,-2.118 4.77,-27.011 13.243,-39.194 8.475,-12.183 16.949,-16.684 29.925,-25.688 12.977,-9.005 31.517,-21.982 42.638,-25.689 11.123,-3.708 22.51,-7.945 16.95,-11.917 -5.563,-3.973 -24.366,-12.183 -39.459,-6.621 -15.096,5.561 -37.607,26.748 -54.556,48.728 -16.948,21.982 -24.628,35.488 -33.899,52.967 -9.269,17.478 -16.154,29.66 -43.168,37.87 -27.011,8.209 -41.311,10.328 -56.274,10.328"
       style="fill:none;stroke:#231f20;stroke-width:0.75;stroke-linecap:round;stroke-linejoin:round;stroke-miterlimit:4;stroke-dasharray:0, 2;stroke-dashoffset:0;stroke-opacity:1"
       id="path1040" />
    <path
       d="m 540.002,839.383 c -11.52,0 -38.797,-0.53 -53.627,-5.561 -14.833,-5.031 -27.544,-15.361 -34.165,-23.305 -6.62,-7.944 -9.003,-18.804 -9.003,-21.98 0,-3.179 1.852,-2.649 6.09,0.529 4.238,3.178 18.274,12.976 25.424,16.684 7.151,3.708 19.598,4.767 21.187,0.53 1.589,-4.238 0.7,-8.198 0.53,-10.064 -0.266,-2.913 3.972,-5.826 11.122,-3.442 7.15,2.384 14.962,8.474 32.442,8.474 17.479,0 25.292,-6.09 32.44,-8.474 7.152,-2.384 11.388,0.529 11.124,3.442 -0.171,1.866 -1.061,5.826 0.53,10.064 1.589,4.237 14.035,3.178 21.185,-0.53 7.152,-3.708 21.186,-13.506 25.425,-16.684 4.238,-3.178 6.09,-3.708 6.09,-0.529 0,3.176 -2.382,14.036 -9.004,21.98 -6.622,7.944 -19.332,18.274 -34.163,23.305 -14.832,5.031 -42.107,5.561 -53.627,5.561 z"
       style="fill:none;stroke:#231f20;stroke-width:0.75;stroke-linecap:round;stroke-linejoin:round;stroke-miterlimit:4;stroke-dasharray:0, 2;stroke-dashoffset:0;stroke-opacity:1"
       id="path1042" />
    <path
       d="m 344.691,745.898 c 1.977,-1.13 -0.266,-5.561 -2.914,-9.798 -2.649,-4.237 -23.834,-36.016 -27.013,-39.194 -3.178,-3.179 -11.916,-7.68 -12.975,-7.152 -1.06,0.531 -1.06,10.859 2.647,17.745 3.708,6.885 10.566,19.354 13.772,23.04 5.296,6.091 12.975,6.885 16.683,9.003 3.708,2.12 7.945,7.416 9.8,6.356"
       style="fill:#d3d2d2;fill-opacity:1;fill-rule:nonzero;stroke:none;stroke-width:0.1"
       id="path1044" />
    <path
       d="m 344.691,745.898 c 1.977,-1.13 -0.266,-5.561 -2.914,-9.798 -2.649,-4.237 -23.834,-36.016 -27.013,-39.194 -3.178,-3.179 -11.916,-7.68 -12.975,-7.152 -1.06,0.531 -1.06,10.859 2.647,17.745 3.708,6.885 10.566,19.354 13.772,23.04 5.296,6.091 12.975,6.885 16.683,9.003 3.708,2.12 7.945,7.416 9.8,6.356 z"
       style="fill:none;stroke:#231f20;stroke-width:0.75;stroke-linecap:round;stroke-linejoin:round;stroke-miterlimit:4;stroke-dasharray:0, 2;stroke-dashoffset:0;stroke-opacity:1"
       id="path1046" />
    <path
       d="m 540.002,721.27 c -31.382,0 -51.642,-1.987 -65.148,-7.151 -13.507,-5.164 -23.835,-8.74 -28.602,-3.576 -4.767,5.165 3.178,15.096 7.945,19.466 4.766,4.369 18.273,6.356 24.63,7.15 6.355,0.795 36.546,8.342 40.121,8.739 3.575,0.398 17.876,-1.985 21.054,-1.985 3.176,0 17.478,2.383 21.052,1.985 3.576,-0.397 33.767,-7.944 40.121,-8.739 6.358,-0.794 19.866,-2.781 24.631,-7.15 4.767,-4.37 12.713,-14.301 7.944,-19.466 -4.766,-5.164 -15.096,-1.588 -28.6,3.576 -13.507,5.164 -33.766,7.151 -65.148,7.151 z"
       style="fill:none;stroke:#231f20;stroke-width:0.75;stroke-linecap:round;stroke-linejoin:round;stroke-miterlimit:4;stroke-dasharray:0, 2;stroke-dashoffset:0;stroke-opacity:1"
       id="path1048" />
    <path
       d="m 540.002,656.916 c -18.273,0 -34.56,5.562 -39.328,7.151 -4.766,1.588 -18.67,-0.795 -27.806,-2.384 -9.137,-1.589 -31.383,-3.178 -46.081,-7.944 -14.698,-4.768 -12.711,0.396 -14.3,5.56 -1.589,5.164 7.944,10.726 13.506,14.301 5.561,3.575 19.465,10.727 33.368,12.712 13.904,1.986 40.122,13.507 47.272,15.891 7.151,2.382 27.013,-0.399 33.369,-0.399 6.356,0 26.218,2.781 33.368,0.399 7.149,-2.384 33.369,-13.905 47.273,-15.891 13.901,-1.985 27.806,-9.137 33.366,-12.712 5.563,-3.575 15.096,-9.137 13.507,-14.301 -1.589,-5.164 0.397,-10.328 -14.302,-5.56 -14.695,4.766 -36.943,6.355 -46.078,7.944 -9.138,1.589 -23.04,3.972 -27.808,2.384 -4.767,-1.589 -21.054,-7.151 -39.326,-7.151 z"
       style="fill:none;stroke:#231f20;stroke-width:0.75;stroke-linecap:round;stroke-linejoin:round;stroke-miterlimit:4;stroke-dasharray:0, 2;stroke-dashoffset:0;stroke-opacity:1"
       id="path1050" />
    <path
       d="m 352.9,606.069 c 4.236,0.795 14.831,-1.06 21.98,-2.649 7.152,-1.588 11.123,4.503 14.831,9.27 3.707,4.767 12.183,12.712 27.807,18.008 15.624,5.297 31.25,3.177 40.254,0.53 9.004,-2.648 21.186,-11.388 27.807,-16.949 6.621,-5.562 11.653,-5.298 16.42,-5.031 4.767,0.264 11.123,2.383 18.802,-1.061 8.98,-4.026 14.301,-5.03 19.201,-5.03 4.899,0 10.22,1.004 19.2,5.03 7.679,3.444 14.035,1.325 18.8,1.061 4.77,-0.267 9.802,-0.531 16.421,5.031 6.621,5.561 18.804,14.301 27.809,16.949 9.002,2.647 24.628,4.767 40.254,-0.53 15.623,-5.296 24.1,-13.241 27.806,-18.008 3.708,-4.767 7.679,-10.858 14.832,-9.27 7.148,1.589 17.742,3.444 21.98,2.649"
       style="fill:none;stroke:#231f20;stroke-width:0.75;stroke-linecap:round;stroke-linejoin:round;stroke-miterlimit:4;stroke-dasharray:0, 2;stroke-dashoffset:0;stroke-opacity:1"
       id="path1052" />
    <path
       d="m 298.175,641.863 c -2.007,6.161 5.201,6.313 12.22,13.465 4.247,4.327 34.957,42.107 52.039,71.503 17.081,29.396 45.285,77.86 56.806,91.763 11.519,13.904 35.752,37.738 62.764,52.834 27.013,15.095 42.108,12.315 57.998,12.315 15.889,0 30.985,2.78 57.996,-12.315 27.014,-15.096 51.245,-38.93 62.766,-52.834 11.521,-13.903 39.724,-62.367 56.805,-91.763 17.082,-29.396 47.793,-67.176 52.039,-71.503 7.018,-7.152 14.226,-7.304 12.221,-13.465"
       style="fill:none;stroke:#231f20;stroke-width:0.75;stroke-linecap:round;stroke-linejoin:round;stroke-miterlimit:4;stroke-dasharray:0, 2;stroke-dashoffset:0;stroke-opacity:1"
       id="path1054" />
    <path
       d="m 774.573,626.527 c 1.787,2.384 4.968,7.15 6.755,6.356 1.787,-0.795 1.39,-3.576 -0.596,-6.157 -1.986,-2.583 -8.74,-12.514 -11.124,-17.875 -2.383,-5.365 -3.774,-11.124 -0.198,-12.315 3.574,-1.193 8.738,2.382 10.726,6.354 1.987,3.974 4.369,9.932 8.937,13.507 4.567,3.575 8.343,3.973 12.911,2.185 4.567,-1.788 17.082,-9.533 18.869,-17.678 1.787,-8.142 -1.787,-17.875 -6.156,-23.833 -4.372,-5.959 -8.542,-8.741 -13.706,-11.522 -5.166,-2.78 -13.904,-6.95 -19.465,-6.95 -5.563,0 -12.116,4.766 -16.287,7.546 -4.17,2.782 -8.74,4.967 -8.542,6.952"
       style="fill:none;stroke:#231f20;stroke-width:0.75;stroke-linecap:round;stroke-linejoin:round;stroke-miterlimit:4;stroke-dasharray:0, 2;stroke-dashoffset:0;stroke-opacity:1"
       id="path1056" />
    <path
       d="m 305.599,626.298 c -1.788,2.384 -5.135,7.379 -6.923,6.585 -1.788,-0.795 -1.39,-3.576 0.596,-6.157 1.986,-2.583 8.739,-12.514 11.123,-17.875 2.383,-5.365 3.773,-11.124 0.198,-12.315 -3.575,-1.193 -8.739,2.382 -10.724,6.354 -1.988,3.974 -4.37,9.932 -8.939,13.507 -4.569,3.575 -8.342,3.973 -12.91,2.185 -4.568,-1.788 -17.082,-9.533 -18.87,-17.678 -1.787,-8.142 1.788,-17.875 6.158,-23.833 4.369,-5.959 8.541,-8.741 13.704,-11.522 5.164,-2.78 13.904,-6.95 19.465,-6.95 5.562,0 12.116,4.766 16.287,7.546 4.172,2.782 8.74,4.967 8.541,6.952"
       style="fill:none;stroke:#231f20;stroke-width:0.75;stroke-linecap:round;stroke-linejoin:round;stroke-miterlimit:4;stroke-dasharray:0, 2;stroke-dashoffset:0;stroke-opacity:1"
       id="path1058" />
  </g>
</svg>
