<?xml version="1.0" encoding="UTF-8" standalone="no"?>
<!-- Created with Inkscape (http://www.inkscape.org/) -->

<svg
   version="1.1"
   id="svg2"
   width="1440"
   height="1344"
   viewBox="0 0 1440 1344"
   xmlns="http://www.w3.org/2000/svg"
   xmlns:svg="http://www.w3.org/2000/svg">
  <defs
     id="defs6" />
  <g
     id="g8">
    <path
       d="m 836.96,643.691 c -10.723,-2.383 -9.532,4.767 -5.56,7.151 0,0 11.918,-0.398 5.56,-7.151"
       style="fill:#ffffff;fill-opacity:1;fill-rule:nonzero;stroke:none;stroke-width:0.1"
       id="path668" />
    <path
       d="m 836.96,643.691 c -10.723,-2.383 -9.532,4.767 -5.56,7.151 0,0 11.918,-0.398 5.56,-7.151 z"
       style="fill:none;stroke:#231f20;stroke-width:0.5;stroke-linecap:butt;stroke-linejoin:miter;stroke-miterlimit:4;stroke-dasharray:none;stroke-opacity:1"
       id="path670" />
    <path
       d="m 836.96,643.691 c 0,0 9.536,3.973 13.905,-2.383 4.369,-6.356 9.932,-16.684 7.547,-25.026 -2.384,-8.343 -9.281,-5.315 -25.693,1.513 -16.415,6.829 -23.515,7.819 -27.141,22.322 -3.178,12.711 5.351,22.057 5.351,22.057 4.208,4.35 15.308,4.558 20.073,1.38 4.767,-3.179 4.767,-7.548 0.398,-12.712 -3.972,-2.384 -5.163,-9.534 5.56,-7.151"
       style="fill:#ffffff;fill-opacity:1;fill-rule:nonzero;stroke:none;stroke-width:0.1"
       id="path672" />
    <path
       d="m 836.96,643.691 c 0,0 9.536,3.973 13.905,-2.383 4.369,-6.356 9.932,-16.684 7.547,-25.026 -2.384,-8.343 -9.281,-5.315 -25.693,1.513 -16.415,6.829 -23.515,7.819 -27.141,22.322 -3.178,12.711 5.351,22.057 5.351,22.057 4.208,4.35 15.308,4.558 20.073,1.38 4.767,-3.179 4.767,-7.548 0.398,-12.712 -3.972,-2.384 -5.163,-9.534 5.56,-7.151 z"
       style="fill:none;stroke:#231f20;stroke-width:0.75;stroke-linecap:round;stroke-linejoin:round;stroke-miterlimit:4;stroke-dasharray:none;stroke-opacity:1"
       id="path674" />
    <path
       d="m 694.129,826.027 c -1.985,-8.343 13.478,-24.344 28.75,-33.083 15.276,-8.739 44.744,-21.34 58.247,-26.108 13.507,-4.766 20.66,-2.78 16.685,7.548 -3.972,10.328 -5.215,12.144 -4.023,18.896 1.64,9.308 1.64,32.747 -13.059,45.855 -14.695,13.109 -29.394,19.465 -46.873,11.123 -15.582,-7.437 -37.873,-16.455 -39.727,-24.231"
       style="fill:#ffffff;fill-opacity:1;fill-rule:nonzero;stroke:none;stroke-width:0.1"
       id="path676" />
    <path
       d="m 694.129,826.027 c -1.985,-8.343 13.478,-24.344 28.75,-33.083 15.276,-8.739 44.744,-21.34 58.247,-26.108 13.507,-4.766 20.66,-2.78 16.685,7.548 -3.972,10.328 -5.215,12.144 -4.023,18.896 1.64,9.308 1.64,32.747 -13.059,45.855 -14.695,13.109 -29.394,19.465 -46.873,11.123 -15.582,-7.437 -37.873,-16.455 -39.727,-24.231 z"
       style="fill:none;stroke:#231f20;stroke-width:0.75;stroke-linecap:round;stroke-linejoin:round;stroke-miterlimit:4;stroke-dasharray:none;stroke-opacity:1"
       id="path678" />
    <path
       d="m 385.871,826.027 c 1.985,-8.343 -13.475,-24.344 -28.749,-33.083 -15.275,-8.739 -44.742,-21.34 -58.248,-26.108 -13.506,-4.766 -20.657,-2.78 -16.684,7.548 3.972,10.328 5.216,12.144 4.025,18.896 -1.641,9.308 -1.641,32.747 13.056,45.855 14.698,13.109 29.397,19.465 46.875,11.123 15.582,-7.437 37.872,-16.455 39.725,-24.231"
       style="fill:#ffffff;fill-opacity:1;fill-rule:nonzero;stroke:none;stroke-width:0.1"
       id="path680" />
    <path
       d="m 385.871,826.027 c 1.985,-8.343 -13.475,-24.344 -28.749,-33.083 -15.275,-8.739 -44.742,-21.34 -58.248,-26.108 -13.506,-4.766 -20.657,-2.78 -16.684,7.548 3.972,10.328 5.216,12.144 4.025,18.896 -1.641,9.308 -1.641,32.747 13.056,45.855 14.698,13.109 29.397,19.465 46.875,11.123 15.582,-7.437 37.872,-16.455 39.725,-24.231 z"
       style="fill:none;stroke:#231f20;stroke-width:0.75;stroke-linecap:round;stroke-linejoin:round;stroke-miterlimit:4;stroke-dasharray:none;stroke-opacity:1"
       id="path682" />
    <path
       d="m 540.002,350.922 c -1.163,0 -1.97,-0.799 -3.178,-2.382 -9.634,-12.613 -37.74,-7.151 -54.026,1.191 -16.287,8.343 -31.779,4.767 -66.34,23.834 -34.56,19.068 -57.6,37.342 -66.737,44.492 -9.137,7.149 -31.779,34.958 -34.957,39.327 -3.179,4.369 -14.698,15.89 -20.657,23.04 -5.958,7.152 -6.356,14.3 -7.547,19.465 -1.192,5.165 -1.986,25.424 -1.986,28.204 0,2.781 1.986,7.548 8.342,11.522 -18.79,-2.893 -57.998,5.56 -66.738,21.847 -8.739,16.288 -5.56,32.97 0.795,41.711 6.357,8.739 15.492,13.903 30.191,17.876 14.698,3.972 30.19,6.752 30.19,6.752 -0.397,3.179 3.973,3.576 3.973,3.576 -5.165,3.177 -2.384,5.562 -2.384,5.562 -7.548,8.74 4.37,17.875 4.37,17.875 -10.328,-9.533 -23.835,7.151 -27.013,9.932 -3.178,2.78 -9.534,13.505 -10.328,29.395 -0.795,15.89 2.78,33.368 21.45,46.478 40.327,28.313 57.601,39.327 67.135,45.286 9.534,5.959 26.615,14.301 34.163,16.683 7.548,2.384 5.164,-7.944 5.164,-7.944 7.548,15.492 20.26,39.327 49.259,66.737 28.998,27.41 81.831,40.916 106.859,40.916 25.025,0 77.858,-13.506 106.858,-40.916 28.997,-27.41 41.709,-51.245 49.259,-66.737 0,0 -2.386,10.328 5.163,7.944 7.547,-2.382 24.628,-10.724 34.163,-16.683 9.532,-5.959 26.807,-16.973 67.135,-45.286 18.67,-13.11 22.245,-30.588 21.451,-46.478 -0.795,-15.89 -7.153,-26.615 -10.33,-29.395 -3.178,-2.781 -16.685,-19.465 -27.011,-9.932 0,0 11.915,-9.135 4.369,-17.875 0,0 2.78,-2.385 -2.384,-5.562 0,0 4.369,-0.397 3.973,-3.576 0,0 15.492,-2.78 30.19,-6.752 14.7,-3.973 23.834,-9.137 30.19,-17.876 6.357,-8.741 9.535,-25.423 0.794,-41.711 -8.738,-16.287 -47.948,-24.74 -66.735,-21.847 6.355,-3.974 8.341,-8.741 8.341,-11.522 0,-2.78 -0.795,-23.039 -1.986,-28.204 -1.192,-5.165 -1.589,-12.313 -7.547,-19.465 -5.96,-7.15 -17.479,-18.671 -20.658,-23.04 -3.178,-4.369 -25.821,-32.178 -34.955,-39.327 -9.138,-7.15 -32.178,-25.424 -66.738,-44.492 -34.56,-19.067 -50.053,-15.491 -66.34,-23.834 -16.288,-8.342 -44.392,-13.804 -54.026,-1.191 -1.21,1.583 -2.014,2.382 -3.176,2.382"
       style="fill:#ffffff;fill-opacity:1;fill-rule:nonzero;stroke:none;stroke-width:0.1"
       id="path684" />
    <path
       d="m 791.059,636.939 c -33.767,7.946 -55.217,52.833 -65.943,74.682 -10.725,21.848 -11.916,33.368 -38.135,78.653 -26.217,45.286 -52.039,62.766 -85.011,79.846 -32.971,17.082 -46.476,11.124 -61.968,11.124 -15.494,0 -29,5.958 -61.971,-11.124 -32.972,-17.08 -58.792,-34.56 -85.01,-79.846 -26.218,-45.285 -27.41,-56.805 -38.136,-78.653 -10.724,-21.849 -32.177,-66.736 -65.942,-74.682 0,0 -2.781,-2.385 2.384,-5.562 2.515,-0.265 5.164,-1.59 5.164,-1.59 l 3.972,-0.794 c 0,0 10.858,-4.767 16.684,-6.091 5.826,-1.323 15.626,-4.767 19.598,-6.886 3.972,-2.118 5.561,-3.441 7.15,-5.825 1.589,-2.384 3.442,-5.561 4.237,-6.357 1.325,0.794 3.443,2.914 10.064,1.854 6.621,-1.06 9.534,-0.265 16.154,3.708 6.621,3.974 19.598,11.917 25.954,14.83 6.356,2.914 28.866,6.622 41.578,7.681 12.711,1.058 19.597,-3.444 31.515,-11.653 11.917,-8.21 18.273,-6.621 27.277,-2.382 9.004,4.235 27.012,4.501 39.328,4.501 12.312,0 30.321,-0.266 39.326,-4.501 9.004,-4.239 15.359,-5.828 27.277,2.382 11.916,8.209 18.804,12.711 31.514,11.653 12.713,-1.059 35.224,-4.767 41.579,-7.681 6.355,-2.913 19.334,-10.856 25.953,-14.83 6.621,-3.973 9.532,-4.768 16.154,-3.708 6.621,1.06 8.74,-1.06 10.066,-1.854 0.794,0.796 2.646,3.973 4.235,6.357 1.589,2.384 3.178,3.707 7.149,5.825 3.975,2.119 13.774,5.563 19.598,6.886 5.827,1.324 16.685,6.091 16.685,6.091 l 3.974,0.794 c 0,0 2.648,1.325 5.163,1.59 5.164,3.177 2.384,5.562 2.384,5.562 z M 409.308,783.918 c 19.465,36.944 46.08,56.806 72.695,67.929 26.616,11.123 39.725,5.164 57.999,5.164 18.272,0 31.382,5.959 57.996,-5.164 26.617,-11.123 53.231,-30.985 72.695,-67.929 19.465,-36.943 28.206,-56.805 17.876,-59.983 -10.326,-3.178 -21.45,25.82 -38.135,51.642 -16.684,25.82 -38.532,56.408 -69.915,55.614 -31.383,-0.795 -36.546,-1.59 -40.517,-1.59 -3.972,0 -9.137,0.795 -40.519,1.59 -31.384,0.794 -53.232,-29.794 -69.915,-55.614 -16.685,-25.822 -27.808,-54.82 -38.136,-51.642 -10.328,3.178 -1.589,23.04 17.876,59.983 z M 653.214,648.061 c -11.121,3.178 -33.765,11.123 -48.067,10.726 -14.298,-0.397 -33.763,-5.164 -65.145,-5.164 -31.383,0 -50.848,4.767 -65.149,5.164 -14.301,0.397 -36.943,-7.548 -48.066,-10.726 -11.123,-3.178 -17.876,2.384 -12.712,9.137 5.164,6.753 21.053,20.26 59.189,31.383 38.135,11.122 50.45,5.958 66.738,5.958 16.287,0 28.599,5.164 66.737,-5.958 38.135,-11.123 54.025,-24.63 59.188,-31.383 5.163,-6.753 -1.589,-12.315 -12.713,-9.137 z m -200.21,68.724 c 0,6.355 8.74,11.519 24.233,16.287 9.679,2.977 27.409,6.355 34.162,3.178 9.551,-4.495 23.836,-2.781 28.603,-2.781 4.765,0 19.05,-1.714 28.599,2.781 6.755,3.177 24.483,-0.201 34.163,-3.178 15.493,-4.768 24.234,-9.932 24.234,-16.287 0,-6.357 -5.564,-7.152 -31.383,-4.37 -25.823,2.781 -42.504,3.972 -55.613,3.972 -13.11,0 -29.794,-1.191 -55.615,-3.972 -25.821,-2.782 -31.383,-1.987 -31.383,4.37 z m 314.221,-90.573 c -8.344,-3.177 -28.205,-7.546 -43.698,0.794 -15.493,8.344 -50.054,38.931 -63.16,63.163 -13.11,24.232 -25.823,59.984 -59.589,70.312 -33.766,10.328 -48.065,5.561 -60.776,5.561 -12.712,0 -27.013,4.767 -60.779,-5.561 -33.766,-10.328 -46.478,-46.08 -59.587,-70.312 -13.108,-24.232 -47.669,-54.819 -63.162,-63.163 -15.492,-8.34 -35.354,-3.971 -43.697,-0.794 -8.341,3.178 -4.767,5.562 4.767,9.932 9.535,4.37 35.355,20.259 61.573,42.107 26.218,21.849 27.807,34.958 45.287,61.574 17.478,26.615 35.751,38.929 57.997,46.477 22.245,7.547 42.505,9.534 57.601,9.534 15.095,0 35.354,-1.987 57.599,-9.534 22.245,-7.548 40.518,-19.862 57.997,-46.477 17.479,-26.616 19.068,-39.725 45.286,-61.574 26.217,-21.848 52.039,-37.737 61.573,-42.107 9.535,-4.37 13.109,-6.754 4.768,-9.932"
       style="fill:#d3d2d2;fill-opacity:1;fill-rule:nonzero;stroke:none;stroke-width:0.1"
       id="path686" />
    <path
       d="m 836.476,600.922 c -6.091,6.356 -12.445,7.151 -25.158,6.091 -12.713,-1.059 -17.479,-8.739 -21.187,-13.507 -3.708,-4.767 -9.799,-5.296 -12.446,-2.912 -2.646,2.383 -3.708,5.825 -0.53,10.857 3.177,5.032 9.005,12.713 13.243,17.479 2.238,2.519 3.705,5.031 6.618,3.708 2.914,-1.325 3.708,1.854 0.885,4.159 -3.248,0.645 -5.253,1.004 -5.253,1.004 -8.077,-8.341 -11.255,-15.757 -15.493,-22.113 -2.413,-3.622 -5.087,-6.728 -7.773,-10.347 l 0.093,0.019 c -1.059,-5.297 -1.059,-10.593 9.269,-11.388 10.329,-0.794 19.07,0.266 29.132,2.914 10.063,2.647 15.36,-0.264 15.36,-1.854 0,-1.589 -1.324,-2.649 -5.827,-3.708 -4.502,-1.06 -11.491,-3.606 -17.846,-5.196 -6.357,-1.588 -15.257,-2.255 -21.057,-2.054 -5.35,0.186 -10.163,-0.032 -12.739,-1.49 1.324,-4.767 7.151,-11.122 13.243,-15.625 6.088,-4.501 12.977,-4.765 18.801,-3.442 5.827,1.323 16.951,6.62 28.603,7.682 11.651,1.057 17.742,6.618 18.273,14.563 0.53,7.946 -2.12,18.804 -8.211,25.16"
       style="fill:#d3d2d2;fill-opacity:1;fill-rule:nonzero;stroke:none;stroke-width:0.1"
       id="path688" />
    <path
       d="m 696.119,794.644 c 3.574,-9.932 22.245,-50.45 33.366,-65.545 11.123,-15.096 42.109,-62.367 57.205,-74.285"
       style="fill:none;stroke:#231f20;stroke-width:0.5;stroke-linecap:butt;stroke-linejoin:miter;stroke-miterlimit:4;stroke-dasharray:none;stroke-opacity:1"
       id="path690" />
    <path
       d="m 783.512,629.787 c -2.386,6.357 -8.06,9.387 -18.502,16.034 -6.817,4.341 -21.224,9.788 -37.114,34.417 -15.891,24.629 -17.082,52.039 -30.188,67.135 0,0 6.752,-15.494 9.134,-31.78 1.929,-13.184 7.299,-36.259 21.65,-49.059 14.698,-13.11 23.665,-19.125 31.581,-23.637 8.883,-5.063 17.876,-8.343 19.465,-13.904 l 3.974,0.794"
       style="fill:#b2b1b1;fill-opacity:1;fill-rule:nonzero;stroke:none;stroke-width:0.1"
       id="path692" />
    <path
       d="m 783.57,477.724 c -1.613,-1.808 -5.091,-3.656 -7.74,1.904 -2.647,5.564 -6.088,19.599 -19.595,35.224"
       style="fill:none;stroke:#231f20;stroke-width:0.5;stroke-linecap:butt;stroke-linejoin:miter;stroke-miterlimit:4;stroke-dasharray:none;stroke-opacity:1"
       id="path694" />
    <path
       d="m 769.809,494.089 c 0.196,-4.925 0.46,-22.14 -4.572,-36.705"
       style="fill:none;stroke:#231f20;stroke-width:0.5;stroke-linecap:butt;stroke-linejoin:miter;stroke-miterlimit:4;stroke-dasharray:none;stroke-opacity:1"
       id="path696" />
    <path
       d="m 729.22,544.514 c 0.795,3.442 3.178,3.706 7.153,1.322 3.971,-2.383 6.619,-1.853 12.976,-14.3 6.355,-12.448 8.475,-15.358 7.68,-36.281 -0.794,-20.923 -7.416,-38.136 -13.774,-46.345 -6.354,-8.21 -10.59,-15.625 -20.92,-16.154 -10.33,-0.531 -12.712,0.794 -12.712,0.794 0,0 -11.388,3.442 -13.241,8.209 -1.852,4.768 0.531,8.476 4.502,7.681 3.973,-0.795 5.297,-1.856 9.269,0.795 3.971,2.646 11.124,8.209 15.096,13.77 3.971,5.561 7.149,8.74 6.091,17.743 -1.058,9.004 -3.177,15.096 -0.531,26.219 2.651,11.121 0.267,28.336 -1.589,36.547 z"
       style="fill:none;stroke:#231f20;stroke-width:0.5;stroke-linecap:butt;stroke-linejoin:miter;stroke-miterlimit:4;stroke-dasharray:none;stroke-opacity:1"
       id="path698" />
    <path
       d="m 553.906,581.854 c 3.971,1.324 17.742,2.118 21.45,1.854"
       style="fill:none;stroke:#231f20;stroke-width:0.75;stroke-linecap:round;stroke-linejoin:round;stroke-miterlimit:4;stroke-dasharray:none;stroke-opacity:1"
       id="path700" />
    <path
       d="m 715.256,590.776 c -6.161,1.406 -16.491,8.556 -29.731,15.972 -13.243,7.416 -27.541,13.506 -45.287,12.712 -17.742,-0.794 -21.981,-6.885 -31.513,-14.832"
       style="fill:none;stroke:#231f20;stroke-width:0.75;stroke-linecap:round;stroke-linejoin:round;stroke-miterlimit:4;stroke-dasharray:none;stroke-opacity:1"
       id="path702" />
    <path
       d="m 587.007,597.743 c 5.827,-1.324 10.858,-2.913 21.718,6.885"
       style="fill:none;stroke:#231f20;stroke-width:0.75;stroke-linecap:round;stroke-linejoin:round;stroke-miterlimit:4;stroke-dasharray:none;stroke-opacity:1"
       id="path704" />
    <path
       d="m 611.018,606.584 c -1.107,-0.955 -0.44,-3.014 5.914,0.694 6.358,3.708 15.099,10.328 25.69,9.268 10.592,-1.059 26.483,-6.354 38.134,-12.712 11.655,-6.355 23.836,-16.154 31.781,-18.802"
       style="fill:none;stroke:#231f20;stroke-width:0.5;stroke-linecap:butt;stroke-linejoin:miter;stroke-miterlimit:4;stroke-dasharray:none;stroke-opacity:1"
       id="path706" />
    <path
       d="m 579.124,404.191 c 4.97,5.524 32.726,29.862 62.017,24.446"
       style="fill:none;stroke:#231f20;stroke-width:0.25;stroke-linecap:butt;stroke-linejoin:miter;stroke-miterlimit:4;stroke-dasharray:none;stroke-opacity:1"
       id="path708" />
    <path
       d="m 541.194,404.418 c -1.419,-10.227 -1.192,-32.839 -1.192,-32.839 5.163,5.562 17.08,15.097 32.705,14.038 0,0 1.854,0.13 0,2.117 -5.006,5.366 -23.094,20.922 -28.868,20.922 -0.96,0 -2.209,-1.067 -2.645,-4.238 z"
       style="fill:none;stroke:#231f20;stroke-width:0.5;stroke-linecap:butt;stroke-linejoin:miter;stroke-miterlimit:4;stroke-dasharray:none;stroke-opacity:1"
       id="path710" />
    <path
       d="m 540.201,390.448 c 2.581,2.185 6.746,4.862 23.93,5.113"
       style="fill:none;stroke:#231f20;stroke-width:0.5;stroke-linecap:butt;stroke-linejoin:miter;stroke-miterlimit:4;stroke-dasharray:none;stroke-opacity:1"
       id="path712" />
    <path
       d="m 593.503,347.976 c 6.481,4.337 17.605,12.083 6.283,22.609 -11.321,10.529 -35.157,4.57 -43.497,1.193 -8.344,-3.376 -16.287,-11.521 -16.287,-20.856"
       style="fill:none;stroke:#231f20;stroke-width:0.5;stroke-linecap:butt;stroke-linejoin:miter;stroke-miterlimit:4;stroke-dasharray:none;stroke-opacity:1"
       id="path714" />
    <path
       d="m 682.612,483.073 c 5.56,0 6.091,-4.768 6.091,-7.416 0,-2.647 -1.336,-8.445 -7.158,-7.663 -5.819,0.778 -7.315,7.71 -6.613,10.046 0.794,2.65 2.647,5.033 7.68,5.033 z"
       style="fill:none;stroke:#231f20;stroke-width:0.5;stroke-linecap:butt;stroke-linejoin:miter;stroke-miterlimit:4;stroke-dasharray:none;stroke-opacity:1"
       id="path716" />
    <path
       d="m 682.348,538.422 c -6.888,2.913 -27.808,9.269 -43.699,9.269 -15.89,0 -20.922,-12.182 -22.511,-24.1 -1.589,-11.917 0.267,-21.715 6.885,-33.102 6.622,-11.389 16.951,-19.068 30.986,-16.685 14.037,2.384 24.1,11.121 32.311,37.87"
       style="fill:none;stroke:#231f20;stroke-width:0.25;stroke-linecap:butt;stroke-linejoin:miter;stroke-miterlimit:4;stroke-dasharray:none;stroke-opacity:1"
       id="path718" />
    <path
       d="m 688.847,541.419 c -2.263,1.24 -6.765,-1.409 -6.765,-5.116 0,-3.708 0.53,-27.013 6.621,-25.425 6.091,1.59 4.36,19.139 4.297,23.208"
       style="fill:none;stroke:#231f20;stroke-width:0.5;stroke-linecap:butt;stroke-linejoin:miter;stroke-miterlimit:4;stroke-dasharray:none;stroke-opacity:1"
       id="path720" />
    <path
       d="m 391.156,541.419 c 2.263,1.24 6.765,-1.409 6.765,-5.116 0,-3.708 -0.53,-27.013 -6.622,-25.425 -6.091,1.59 -4.36,19.139 -4.298,23.208"
       style="fill:none;stroke:#231f20;stroke-width:0.5;stroke-linecap:butt;stroke-linejoin:miter;stroke-miterlimit:4;stroke-dasharray:none;stroke-opacity:1"
       id="path722" />
    <path
       d="m 807.876,586.886 c -10.062,-2.648 -18.803,-3.708 -29.132,-2.914 -10.328,0.795 -10.328,6.091 -9.269,11.388 l -0.093,-0.019 c -2.026,-2.731 -4.061,-5.756 -5.998,-9.514 -4.503,-8.74 -11.652,-17.215 -16.949,-23.571 -0.206,-0.247 -0.413,-0.482 -0.622,-0.71 2.187,1.956 6.186,0.972 8.303,-0.879 -0.398,5.958 10.326,11.123 10.326,11.123 l 1.325,0.794 c 2.576,1.458 7.389,1.676 12.739,1.49 5.8,-0.201 14.7,0.466 21.057,2.054 6.355,1.59 13.344,4.136 17.846,5.196 4.503,1.059 5.827,2.119 5.827,3.708 0,1.59 -5.297,4.501 -15.36,1.854"
       style="fill:#b2b1b1;fill-opacity:1;fill-rule:nonzero;stroke:none;stroke-width:0.1"
       id="path724" />
    <path
       d="m 642.888,603.305 c 5.62,-1.032 12.977,-1.059 17.479,-0.265 4.502,0.794 13.507,-1.853 18.801,-6.091 5.296,-4.238 6.621,-9.533 6.885,-11.917 0.267,-2.383 -3.441,-10.593 -9.8,-9.005 -6.354,1.589 -10.062,1.06 -18.8,6.622 -8.741,5.561 -15.89,10.592 -17.215,11.387 -1.324,0.794 -3.972,-0.529 -7.15,2.119 -3.176,2.648 -5.296,0.53 -7.946,1.588 -2.646,1.06 -7.497,2.682 -2.913,7.68 2.913,3.179 9.005,2.65 12.977,1.06 3.974,-1.589 4.776,-2.645 7.682,-3.178 z"
       style="fill:none;stroke:#231f20;stroke-width:0.5;stroke-linecap:butt;stroke-linejoin:miter;stroke-miterlimit:4;stroke-dasharray:none;stroke-opacity:1"
       id="path726" />
    <path
       d="m 553.374,519.884 c 2.12,5.826 25.954,12.448 23.834,21.451"
       style="fill:none;stroke:#231f20;stroke-width:0.5;stroke-linecap:butt;stroke-linejoin:miter;stroke-miterlimit:4;stroke-dasharray:none;stroke-opacity:1"
       id="path728" />
    <path
       d="m 613.341,592.181 c 2.759,-1.459 5.232,-4.615 5.447,-12.974 0.266,-10.331 -4.239,-13.243 -10.33,-17.481 -6.088,-4.237 -12.709,-9.003 -19.068,-13.506 -6.354,-4.502 -12.975,-7.414 -21.714,-9.003 -8.741,-1.59 -18.273,0.53 -23.305,1.059 0,0 -1.589,-0.529 -2.384,-5.826 -0.793,-5.297 -0.53,-11.256 -0.53,-11.256"
       style="fill:none;stroke:#231f20;stroke-width:0.5;stroke-linecap:butt;stroke-linejoin:miter;stroke-miterlimit:4;stroke-dasharray:none;stroke-opacity:1"
       id="path730" />
    <path
       d="m 602.996,600.118 c -1.423,-2.375 -1.342,-3.11 3.079,-3.963 2.734,-0.529 4.184,-2.881 7.266,-3.973"
       style="fill:none;stroke:#231f20;stroke-width:0.5;stroke-linecap:butt;stroke-linejoin:miter;stroke-miterlimit:4;stroke-dasharray:none;stroke-opacity:1"
       id="path732" />
    <path
       d="m 618.798,578.409 c 0.52,-6.884 -0.518,-23.71 19.042,-28.274 -1.39,5.338 -0.687,11.407 1.604,15.299"
       style="fill:none;stroke:#231f20;stroke-width:0.5;stroke-linecap:butt;stroke-linejoin:miter;stroke-miterlimit:4;stroke-dasharray:none;stroke-opacity:1"
       id="path734" />
    <path
       d="m 461.204,578.409 c -0.52,-6.884 0.518,-23.71 -19.041,-28.274 1.389,5.338 0.686,11.407 -1.604,15.299"
       style="fill:none;stroke:#231f20;stroke-width:0.5;stroke-linecap:butt;stroke-linejoin:miter;stroke-miterlimit:4;stroke-dasharray:none;stroke-opacity:1"
       id="path736" />
    <path
       d="m 717.61,408.334 c -3.749,0.322 -25.795,2.296 -13.314,-9.548"
       style="fill:none;stroke:#231f20;stroke-width:0.5;stroke-linecap:butt;stroke-linejoin:miter;stroke-miterlimit:4;stroke-dasharray:none;stroke-opacity:1"
       id="path738" />
    <path
       d="m 743.182,430.996 c -6.546,-0.095 -27.469,-1.417 -33.559,-3.273 -6.091,-1.854 -14.829,-6.886 -11.121,-11.651 3.708,-4.768 13.09,3.74 24.818,-3.427"
       style="fill:none;stroke:#231f20;stroke-width:0.5;stroke-linecap:butt;stroke-linejoin:miter;stroke-miterlimit:4;stroke-dasharray:none;stroke-opacity:1"
       id="path740" />
    <path
       d="m 696.382,441.759 c -3.971,1.323 -9.798,10e-4 -9.535,-3.707 0.267,-3.708 1.325,-9.799 7.416,-9.004 6.091,0.794 11.831,1.141 15.98,4.278"
       style="fill:none;stroke:#231f20;stroke-width:0.5;stroke-linecap:butt;stroke-linejoin:miter;stroke-miterlimit:4;stroke-dasharray:none;stroke-opacity:1"
       id="path742" />
    <path
       d="m 681.651,448.116 c 0,-0.625 -0.5,-1.127 -1.126,-1.127 -0.623,0 -1.126,0.502 -1.126,1.127 0,0.623 0.503,1.126 1.126,1.126 0.626,0 1.126,-0.503 1.126,-1.126"
       style="fill:#231f20;fill-opacity:1;fill-rule:nonzero;stroke:none;stroke-width:0.1"
       id="path744" />
    <path
       d="m 674.203,448.779 c 0,-0.625 -0.501,-1.127 -1.126,-1.127 -0.623,0 -1.127,0.502 -1.127,1.127 0,0.623 0.504,1.125 1.127,1.125 0.625,0 1.126,-0.502 1.126,-1.125"
       style="fill:#231f20;fill-opacity:1;fill-rule:nonzero;stroke:none;stroke-width:0.1"
       id="path746" />
    <path
       d="m 678.575,449.971 c 0,-0.625 -0.504,-1.128 -1.127,-1.128 -0.623,0 -1.126,0.503 -1.126,1.128 0,0.622 0.503,1.124 1.126,1.124 0.623,0 1.127,-0.502 1.127,-1.124"
       style="fill:#231f20;fill-opacity:1;fill-rule:nonzero;stroke:none;stroke-width:0.1"
       id="path748" />
    <path
       d="m 687.71,450.368 c 0,-0.624 -0.503,-1.126 -1.126,-1.126 -0.624,0 -1.126,0.502 -1.126,1.126 0,0.623 0.502,1.125 1.126,1.125 0.623,0 1.126,-0.502 1.126,-1.125"
       style="fill:#231f20;fill-opacity:1;fill-rule:nonzero;stroke:none;stroke-width:0.1"
       id="path750" />
    <path
       d="m 691.681,452.95 c 0,-0.624 -0.5,-1.126 -1.126,-1.126 -0.623,0 -1.126,0.502 -1.126,1.126 0,0.623 0.503,1.126 1.126,1.126 0.626,0 1.126,-0.503 1.126,-1.126"
       style="fill:#231f20;fill-opacity:1;fill-rule:nonzero;stroke:none;stroke-width:0.1"
       id="path752" />
    <path
       d="m 690.292,447.985 c 0,-0.626 -0.501,-1.128 -1.126,-1.128 -0.624,0 -1.127,0.502 -1.127,1.128 0,0.623 0.503,1.125 1.127,1.125 0.625,0 1.126,-0.502 1.126,-1.125"
       style="fill:#231f20;fill-opacity:1;fill-rule:nonzero;stroke:none;stroke-width:0.1"
       id="path754" />
    <path
       d="m 684.929,434.676 c 0,-0.624 -0.503,-1.126 -1.126,-1.126 -0.623,0 -1.126,0.502 -1.126,1.126 0,0.623 0.503,1.127 1.126,1.127 0.623,0 1.126,-0.504 1.126,-1.127"
       style="fill:#231f20;fill-opacity:1;fill-rule:nonzero;stroke:none;stroke-width:0.1"
       id="path756" />
    <path
       d="m 681.553,433.287 c 0,-0.625 -0.503,-1.127 -1.126,-1.127 -0.623,0 -1.127,0.502 -1.127,1.127 0,0.623 0.504,1.125 1.127,1.125 0.623,0 1.126,-0.502 1.126,-1.125"
       style="fill:#231f20;fill-opacity:1;fill-rule:nonzero;stroke:none;stroke-width:0.1"
       id="path758" />
    <path
       d="m 685.922,420.376 c 0,-0.624 -0.503,-1.128 -1.126,-1.128 -0.623,0 -1.127,0.504 -1.127,1.128 0,0.622 0.504,1.125 1.127,1.125 0.623,0 1.126,-0.503 1.126,-1.125"
       style="fill:#231f20;fill-opacity:1;fill-rule:nonzero;stroke:none;stroke-width:0.1"
       id="path760" />
    <path
       d="m 691.285,417.793 c 0,-0.624 -0.501,-1.125 -1.127,-1.125 -0.623,0 -1.126,0.501 -1.126,1.125 0,0.623 0.503,1.126 1.126,1.126 0.626,0 1.127,-0.503 1.127,-1.126"
       style="fill:#231f20;fill-opacity:1;fill-rule:nonzero;stroke:none;stroke-width:0.1"
       id="path762" />
    <path
       d="m 691.085,425.341 c 0,-0.624 -0.5,-1.128 -1.125,-1.128 -0.624,0 -1.126,0.504 -1.126,1.128 0,0.622 0.502,1.125 1.126,1.125 0.625,0 1.125,-0.503 1.125,-1.125"
       style="fill:#231f20;fill-opacity:1;fill-rule:nonzero;stroke:none;stroke-width:0.1"
       id="path764" />
    <path
       d="m 769.608,550.338 c -3.574,2.782 -8.74,14.301 -5.166,21.452 0,0 -10.724,-5.165 -10.326,-11.123 0,0 7.943,-7.15 15.492,-10.329"
       style="fill:#706d6e;fill-opacity:1;fill-rule:nonzero;stroke:none;stroke-width:0.1"
       id="path766" />
    <path
       d="m 769.608,550.338 c -3.574,2.782 -8.74,14.301 -5.166,21.452 0,0 -10.724,-5.165 -10.326,-11.123 0,0 7.943,-7.15 15.492,-10.329 z"
       style="fill:none;stroke:#231f20;stroke-width:0.75;stroke-linecap:round;stroke-linejoin:round;stroke-miterlimit:4;stroke-dasharray:none;stroke-opacity:1"
       id="path768" />
    <path
       d="m 787.087,539.615 c -5.167,0.794 -13.904,7.943 -17.479,10.723"
       style="fill:none;stroke:#231f20;stroke-width:0.75;stroke-linecap:round;stroke-linejoin:round;stroke-miterlimit:4;stroke-dasharray:none;stroke-opacity:1"
       id="path770" />
    <path
       d="m 243.525,600.922 c 6.09,6.356 12.447,7.151 25.158,6.091 12.712,-1.059 17.479,-8.739 21.187,-13.507 3.708,-4.767 9.798,-5.296 12.447,-2.912 2.648,2.383 3.708,5.825 0.529,10.857 -3.178,5.032 -9.004,12.713 -13.241,17.479 -2.24,2.519 -3.708,5.031 -6.62,3.708 -2.914,-1.325 -3.708,1.854 -0.885,4.159 3.25,0.645 5.254,1.004 5.254,1.004 8.078,-8.341 11.255,-15.757 15.492,-22.113 2.415,-3.622 5.087,-6.728 7.774,-10.347 l -0.093,0.019 c 1.058,-5.297 1.058,-10.593 -9.27,-11.388 -10.328,-0.794 -19.068,0.266 -29.131,2.914 -10.063,2.647 -15.36,-0.264 -15.36,-1.854 0,-1.589 1.324,-2.649 5.826,-3.708 4.502,-1.06 11.492,-3.606 17.848,-5.196 6.355,-1.588 15.255,-2.255 21.055,-2.054 5.352,0.186 10.164,-0.032 12.739,-1.49 -1.324,-4.767 -7.15,-11.122 -13.241,-15.625 -6.09,-4.501 -12.977,-4.765 -18.803,-3.442 -5.826,1.323 -16.949,6.62 -28.602,7.682 -11.653,1.057 -17.743,6.618 -18.273,14.563 -0.529,7.946 2.119,18.804 8.21,25.16"
       style="fill:#d3d2d2;fill-opacity:1;fill-rule:nonzero;stroke:none;stroke-width:0.1"
       id="path772" />
    <path
       d="m 383.884,794.644 c -3.575,-9.932 -22.246,-50.45 -33.368,-65.545 -11.123,-15.096 -42.108,-62.367 -57.203,-74.285"
       style="fill:none;stroke:#231f20;stroke-width:0.5;stroke-linecap:butt;stroke-linejoin:miter;stroke-miterlimit:4;stroke-dasharray:none;stroke-opacity:1"
       id="path774" />
    <path
       d="m 405.732,754.919 c 21.055,40.917 42.506,69.121 70.71,81.832 28.204,12.712 40.916,7.152 63.56,7.152 22.641,0 35.354,5.56 63.556,-7.152 28.206,-12.711 49.656,-40.915 70.71,-81.832"
       style="fill:none;stroke:#231f20;stroke-width:0.5;stroke-linecap:butt;stroke-linejoin:miter;stroke-miterlimit:4;stroke-dasharray:none;stroke-opacity:1"
       id="path776" />
    <path
       d="m 540.002,816.889 c -7.946,0 -38.136,-1.589 -47.67,0.399 0,0 11.52,-6.754 47.67,-6.754 36.148,0 47.666,6.754 47.666,6.754 -9.532,-1.988 -39.723,-0.399 -47.666,-0.399"
       style="fill:#b2b1b1;fill-opacity:1;fill-rule:nonzero;stroke:none;stroke-width:0.1"
       id="path778" />
    <path
       d="m 346.146,636.939 c 21.849,12.315 47.67,34.957 65.942,62.366 18.274,27.41 25.822,54.423 57.204,69.915 31.382,15.492 56.01,10.726 70.71,10.726 14.698,0 39.326,4.766 70.708,-10.726 31.383,-15.492 38.93,-42.505 57.203,-69.915 18.273,-27.409 44.092,-50.051 65.943,-62.366"
       style="fill:none;stroke:#231f20;stroke-width:0.5;stroke-linecap:butt;stroke-linejoin:miter;stroke-miterlimit:4;stroke-dasharray:none;stroke-opacity:1"
       id="path780" />
    <path
       d="m 540.002,711.223 c -10.727,0 -25.822,-0.397 -58.395,-5.165 39.724,1.987 43.299,-0.396 58.395,-0.396 15.095,0 18.669,2.383 58.393,0.396 -32.574,4.768 -47.67,5.165 -58.393,5.165"
       style="fill:#b2b1b1;fill-opacity:1;fill-rule:nonzero;stroke:none;stroke-width:0.1"
       id="path782" />
    <path
       d="m 432.348,660.375 c 8.342,3.576 32.971,13.507 51.642,13.507 18.67,0 43.696,-3.177 56.012,-3.177 12.312,0 37.34,3.177 56.01,3.177 18.67,0 43.298,-9.931 51.642,-13.507"
       style="fill:none;stroke:#231f20;stroke-width:0.5;stroke-linecap:butt;stroke-linejoin:miter;stroke-miterlimit:4;stroke-dasharray:none;stroke-opacity:1"
       id="path784" />
    <path
       d="m 296.491,629.787 c 2.383,6.357 8.059,9.387 18.5,16.034 6.818,4.341 21.224,9.788 37.114,34.417 15.89,24.629 17.081,52.039 30.19,67.135 0,0 -6.753,-15.494 -9.136,-31.78 -1.93,-13.184 -7.297,-36.259 -21.651,-49.059 -14.697,-13.11 -23.664,-19.125 -31.58,-23.637 -8.883,-5.063 -17.876,-8.343 -19.465,-13.904 l -3.972,0.794"
       style="fill:#b2b1b1;fill-opacity:1;fill-rule:nonzero;stroke:none;stroke-width:0.1"
       id="path786" />
    <path
       d="m 492.994,597.743 c 4.502,1.325 36.016,6.622 47.008,6.622 10.99,0 42.503,-5.297 47.005,-6.622"
       style="fill:none;stroke:#231f20;stroke-width:0.5;stroke-linecap:butt;stroke-linejoin:miter;stroke-miterlimit:4;stroke-dasharray:none;stroke-opacity:1"
       id="path788" />
    <path
       d="m 296.431,477.724 c 1.613,-1.808 5.092,-3.656 7.74,1.904 2.648,5.564 6.09,19.599 19.597,35.224"
       style="fill:none;stroke:#231f20;stroke-width:0.5;stroke-linecap:butt;stroke-linejoin:miter;stroke-miterlimit:4;stroke-dasharray:none;stroke-opacity:1"
       id="path790" />
    <path
       d="m 310.192,494.089 c -0.195,-4.925 -0.459,-22.14 4.572,-36.705"
       style="fill:none;stroke:#231f20;stroke-width:0.5;stroke-linecap:butt;stroke-linejoin:miter;stroke-miterlimit:4;stroke-dasharray:none;stroke-opacity:1"
       id="path792" />
    <path
       d="m 350.781,544.514 c -0.795,3.442 -3.179,3.706 -7.152,1.322 -3.972,-2.383 -6.62,-1.853 -12.976,-14.3 -6.356,-12.448 -8.474,-15.358 -7.68,-36.281 0.795,-20.923 7.416,-38.136 13.772,-46.345 6.355,-8.21 10.592,-15.625 20.921,-16.154 10.329,-0.531 12.711,0.794 12.711,0.794 0,0 11.389,3.442 13.243,8.209 1.853,4.768 -0.531,8.476 -4.503,7.681 -3.972,-0.795 -5.296,-1.856 -9.269,0.795 -3.972,2.646 -11.123,8.209 -15.096,13.77 -3.971,5.561 -7.149,8.74 -6.089,17.743 1.058,9.004 3.176,15.096 0.529,26.219 -2.649,11.121 -0.267,28.336 1.589,36.547 z"
       style="fill:none;stroke:#231f20;stroke-width:0.5;stroke-linecap:butt;stroke-linejoin:miter;stroke-miterlimit:4;stroke-dasharray:none;stroke-opacity:1"
       id="path794" />
    <path
       d="m 526.098,581.854 c -3.972,1.324 -17.744,2.118 -21.452,1.854"
       style="fill:none;stroke:#231f20;stroke-width:0.75;stroke-linecap:round;stroke-linejoin:round;stroke-miterlimit:4;stroke-dasharray:none;stroke-opacity:1"
       id="path796" />
    <path
       d="m 364.746,590.776 c 6.162,1.406 16.49,8.556 29.731,15.972 13.242,7.416 27.542,13.506 45.286,12.712 17.744,-0.794 21.981,-6.885 31.515,-14.832"
       style="fill:none;stroke:#231f20;stroke-width:0.75;stroke-linecap:round;stroke-linejoin:round;stroke-miterlimit:4;stroke-dasharray:none;stroke-opacity:1"
       id="path798" />
    <path
       d="m 492.994,597.743 c -5.826,-1.324 -10.858,-2.913 -21.716,6.885"
       style="fill:none;stroke:#231f20;stroke-width:0.75;stroke-linecap:round;stroke-linejoin:round;stroke-miterlimit:4;stroke-dasharray:none;stroke-opacity:1"
       id="path800" />
    <path
       d="m 602.996,600.118 0.003,0.005 c -5.401,-3.545 -9.112,-3.697 -12.637,-3.092 3.806,-1.09 4.325,-2.465 4.325,-2.465 0,-4.238 -13.24,-10.594 -19.331,-10.858 3.708,-0.265 14.962,-4.105 29.43,12.724 -3.12,0.756 -3.058,1.571 -1.79,3.686"
       style="fill:#706d6e;fill-opacity:1;fill-rule:nonzero;stroke:none;stroke-width:0.1"
       id="path802" />
    <path
       d="m 602.996,600.118 0.003,0.005 c -5.401,-3.545 -9.112,-3.697 -12.637,-3.092 3.806,-1.09 4.325,-2.465 4.325,-2.465 0,-4.238 -13.24,-10.594 -19.331,-10.858 3.708,-0.265 14.962,-4.105 29.43,12.724 -3.12,0.756 -3.058,1.571 -1.79,3.686 z"
       style="fill:none;stroke:#231f20;stroke-width:0.75;stroke-linecap:round;stroke-linejoin:round;stroke-miterlimit:4;stroke-dasharray:none;stroke-opacity:1"
       id="path804" />
    <path
       d="m 477.007,600.118 -0.002,0.005 c 5.401,-3.545 9.112,-3.697 12.635,-3.092 -3.804,-1.09 -4.325,-2.465 -4.325,-2.465 0,-4.238 13.24,-10.594 19.331,-10.858 -3.707,-0.265 -14.962,-4.105 -29.429,12.724 3.121,0.756 3.058,1.571 1.79,3.686"
       style="fill:#706d6e;fill-opacity:1;fill-rule:nonzero;stroke:none;stroke-width:0.1"
       id="path806" />
    <path
       d="m 477.007,600.118 -0.002,0.005 c 5.401,-3.545 9.112,-3.697 12.635,-3.092 -3.804,-1.09 -4.325,-2.465 -4.325,-2.465 0,-4.238 13.24,-10.594 19.331,-10.858 -3.707,-0.265 -14.962,-4.105 -29.429,12.724 3.121,0.756 3.058,1.571 1.79,3.686 z"
       style="fill:none;stroke:#231f20;stroke-width:0.75;stroke-linecap:round;stroke-linejoin:round;stroke-miterlimit:4;stroke-dasharray:none;stroke-opacity:1"
       id="path808" />
    <path
       d="m 468.983,606.584 c 1.108,-0.955 0.441,-3.014 -5.915,0.694 -6.356,3.708 -15.096,10.328 -25.689,9.268 -10.592,-1.059 -26.483,-6.354 -38.135,-12.712 -11.652,-6.355 -23.834,-16.154 -31.78,-18.802"
       style="fill:none;stroke:#231f20;stroke-width:0.5;stroke-linecap:butt;stroke-linejoin:miter;stroke-miterlimit:4;stroke-dasharray:none;stroke-opacity:1"
       id="path810" />
    <path
       d="m 500.878,404.191 c -4.971,5.524 -32.727,29.862 -62.017,24.446"
       style="fill:none;stroke:#231f20;stroke-width:0.25;stroke-linecap:butt;stroke-linejoin:miter;stroke-miterlimit:4;stroke-dasharray:none;stroke-opacity:1"
       id="path812" />
    <path
       d="m 538.81,404.418 c 1.418,-10.227 1.192,-32.839 1.192,-32.839 -5.165,5.562 -17.084,15.097 -32.708,14.038 0,0 -1.853,0.13 0,2.117 5.008,5.366 23.093,20.922 28.866,20.922 0.961,0 2.209,-1.067 2.65,-4.238 z"
       style="fill:none;stroke:#231f20;stroke-width:0.5;stroke-linecap:butt;stroke-linejoin:miter;stroke-miterlimit:4;stroke-dasharray:none;stroke-opacity:1"
       id="path814" />
    <path
       d="m 539.802,390.448 c -2.581,2.185 -6.746,4.862 -23.93,5.113"
       style="fill:none;stroke:#231f20;stroke-width:0.5;stroke-linecap:butt;stroke-linejoin:miter;stroke-miterlimit:4;stroke-dasharray:none;stroke-opacity:1"
       id="path816" />
    <path
       d="m 486.499,347.976 c -6.482,4.337 -17.604,12.083 -6.284,22.609 11.323,10.529 35.157,4.57 43.499,1.193 8.342,-3.376 16.288,-11.521 16.288,-20.856"
       style="fill:none;stroke:#231f20;stroke-width:0.5;stroke-linecap:butt;stroke-linejoin:miter;stroke-miterlimit:4;stroke-dasharray:none;stroke-opacity:1"
       id="path818" />
    <path
       d="m 540.002,350.922 c -3.576,0 -4.767,-7.546 0,-7.546 4.765,0 3.574,7.546 0,7.546"
       style="fill:#ffffff;fill-opacity:1;fill-rule:nonzero;stroke:none;stroke-width:0.1"
       id="path820" />
    <path
       d="m 540.002,350.922 c -3.576,0 -4.767,-7.546 0,-7.546 4.765,0 3.574,7.546 0,7.546 z"
       style="fill:none;stroke:#231f20;stroke-width:0.5;stroke-linecap:round;stroke-linejoin:round;stroke-miterlimit:4;stroke-dasharray:none;stroke-opacity:1"
       id="path822" />
    <path
       d="m 397.391,483.073 c -5.562,0 -6.092,-4.768 -6.092,-7.416 0,-2.647 1.336,-8.445 7.157,-7.663 5.82,0.778 7.317,7.71 6.615,10.046 -0.795,2.65 -2.649,5.033 -7.68,5.033 z"
       style="fill:none;stroke:#231f20;stroke-width:0.5;stroke-linecap:butt;stroke-linejoin:miter;stroke-miterlimit:4;stroke-dasharray:none;stroke-opacity:1"
       id="path824" />
    <path
       d="m 397.656,538.422 c 6.885,2.913 27.806,9.269 43.696,9.269 15.89,0 20.922,-12.182 22.511,-24.1 1.589,-11.917 -0.266,-21.715 -6.886,-33.102 -6.62,-11.389 -16.949,-19.068 -30.985,-16.685 -14.036,2.384 -24.1,11.121 -32.309,37.87"
       style="fill:none;stroke:#231f20;stroke-width:0.25;stroke-linecap:butt;stroke-linejoin:miter;stroke-miterlimit:4;stroke-dasharray:none;stroke-opacity:1"
       id="path826" />
    <path
       d="m 272.126,586.886 c 10.063,-2.648 18.803,-3.708 29.131,-2.914 10.328,0.795 10.328,6.091 9.27,11.388 l 0.093,-0.019 c 2.027,-2.731 4.061,-5.756 5.998,-9.514 4.501,-8.74 11.652,-17.215 16.949,-23.571 0.205,-0.247 0.413,-0.482 0.622,-0.71 -2.188,1.956 -6.187,0.972 -8.303,-0.879 0.398,5.958 -10.328,11.123 -10.328,11.123 l -1.324,0.794 c -2.575,1.458 -7.387,1.676 -12.739,1.49 -5.8,-0.201 -14.7,0.466 -21.055,2.054 -6.356,1.59 -13.346,4.136 -17.848,5.196 -4.502,1.059 -5.826,2.119 -5.826,3.708 0,1.59 5.297,4.501 15.36,1.854"
       style="fill:#b2b1b1;fill-opacity:1;fill-rule:nonzero;stroke:none;stroke-width:0.1"
       id="path828" />
    <path
       d="m 437.115,603.305 c -5.623,-1.032 -12.976,-1.059 -17.479,-0.265 -4.503,0.794 -13.508,-1.853 -18.803,-6.091 -5.296,-4.238 -6.62,-9.533 -6.885,-11.917 -0.265,-2.383 3.443,-10.593 9.799,-9.005 6.355,1.589 10.063,1.06 18.802,6.622 8.74,5.561 15.89,10.592 17.214,11.387 1.324,0.794 3.973,-0.529 7.151,2.119 3.177,2.648 5.296,0.53 7.944,1.588 2.649,1.06 7.497,2.682 2.913,7.68 -2.913,3.179 -9.004,2.65 -12.976,1.06 -3.972,-1.589 -4.777,-2.645 -7.68,-3.178 z"
       style="fill:none;stroke:#231f20;stroke-width:0.5;stroke-linecap:butt;stroke-linejoin:miter;stroke-miterlimit:4;stroke-dasharray:none;stroke-opacity:1"
       id="path830" />
    <path
       d="m 526.626,519.884 c -2.118,5.826 -25.952,12.448 -23.834,21.451"
       style="fill:none;stroke:#231f20;stroke-width:0.5;stroke-linecap:butt;stroke-linejoin:miter;stroke-miterlimit:4;stroke-dasharray:none;stroke-opacity:1"
       id="path832" />
    <path
       d="m 466.69,592.198 c -2.772,-1.453 -5.26,-4.601 -5.476,-12.991 -0.265,-10.331 4.238,-13.243 10.328,-17.481 6.09,-4.237 12.712,-9.003 19.068,-13.506 6.356,-4.502 12.977,-7.414 21.717,-9.003 8.739,-1.59 18.272,0.53 23.305,1.059 0,0 1.589,-0.529 2.383,-5.826 0.795,-5.297 0.529,-11.256 0.529,-11.256"
       style="fill:none;stroke:#231f20;stroke-width:0.5;stroke-linecap:butt;stroke-linejoin:miter;stroke-miterlimit:4;stroke-dasharray:none;stroke-opacity:1"
       id="path834" />
    <path
       d="m 477.005,600.118 c 1.423,-2.375 1.341,-3.11 -3.079,-3.963 -2.733,-0.529 -4.182,-2.881 -7.265,-3.973"
       style="fill:none;stroke:#231f20;stroke-width:0.5;stroke-linecap:butt;stroke-linejoin:miter;stroke-miterlimit:4;stroke-dasharray:none;stroke-opacity:1"
       id="path836" />
    <path
       d="m 362.39,408.334 c 3.751,0.322 25.796,2.296 13.317,-9.548"
       style="fill:none;stroke:#231f20;stroke-width:0.5;stroke-linecap:butt;stroke-linejoin:miter;stroke-miterlimit:4;stroke-dasharray:none;stroke-opacity:1"
       id="path838" />
    <path
       d="m 336.821,430.996 c 6.544,-0.095 27.466,-1.417 33.556,-3.273 6.092,-1.854 14.831,-6.886 11.123,-11.651 -3.708,-4.768 -13.09,3.74 -24.818,-3.427"
       style="fill:none;stroke:#231f20;stroke-width:0.5;stroke-linecap:butt;stroke-linejoin:miter;stroke-miterlimit:4;stroke-dasharray:none;stroke-opacity:1"
       id="path840" />
    <path
       d="m 383.62,441.759 c 3.972,1.323 9.799,10e-4 9.534,-3.707 -0.266,-3.708 -1.325,-9.799 -7.416,-9.004 -6.09,0.794 -11.83,1.141 -15.979,4.278"
       style="fill:none;stroke:#231f20;stroke-width:0.5;stroke-linecap:butt;stroke-linejoin:miter;stroke-miterlimit:4;stroke-dasharray:none;stroke-opacity:1"
       id="path842" />
    <path
       d="m 398.35,448.116 c 0,-0.625 0.502,-1.127 1.126,-1.127 0.623,0 1.126,0.502 1.126,1.127 0,0.623 -0.503,1.126 -1.126,1.126 -0.624,0 -1.126,-0.503 -1.126,-1.126"
       style="fill:#231f20;fill-opacity:1;fill-rule:nonzero;stroke:none;stroke-width:0.1"
       id="path844" />
    <path
       d="m 405.797,448.779 c 0,-0.625 0.503,-1.127 1.127,-1.127 0.623,0 1.126,0.502 1.126,1.127 0,0.623 -0.503,1.125 -1.126,1.125 -0.624,0 -1.127,-0.502 -1.127,-1.125"
       style="fill:#231f20;fill-opacity:1;fill-rule:nonzero;stroke:none;stroke-width:0.1"
       id="path846" />
    <path
       d="m 401.428,449.971 c 0,-0.625 0.502,-1.128 1.127,-1.128 0.623,0 1.125,0.503 1.125,1.128 0,0.622 -0.502,1.124 -1.125,1.124 -0.625,0 -1.127,-0.502 -1.127,-1.124"
       style="fill:#231f20;fill-opacity:1;fill-rule:nonzero;stroke:none;stroke-width:0.1"
       id="path848" />
    <path
       d="m 392.292,450.368 c 0,-0.624 0.502,-1.126 1.126,-1.126 0.624,0 1.125,0.502 1.125,1.126 0,0.623 -0.501,1.125 -1.125,1.125 -0.624,0 -1.126,-0.502 -1.126,-1.125"
       style="fill:#231f20;fill-opacity:1;fill-rule:nonzero;stroke:none;stroke-width:0.1"
       id="path850" />
    <path
       d="m 388.319,452.95 c 0,-0.624 0.503,-1.126 1.127,-1.126 0.623,0 1.126,0.502 1.126,1.126 0,0.623 -0.503,1.126 -1.126,1.126 -0.624,0 -1.127,-0.503 -1.127,-1.126"
       style="fill:#231f20;fill-opacity:1;fill-rule:nonzero;stroke:none;stroke-width:0.1"
       id="path852" />
    <path
       d="m 389.71,447.985 c 0,-0.626 0.502,-1.128 1.126,-1.128 0.622,0 1.125,0.502 1.125,1.128 0,0.623 -0.503,1.125 -1.125,1.125 -0.624,0 -1.126,-0.502 -1.126,-1.125"
       style="fill:#231f20;fill-opacity:1;fill-rule:nonzero;stroke:none;stroke-width:0.1"
       id="path854" />
    <path
       d="m 395.073,434.676 c 0,-0.624 0.502,-1.126 1.126,-1.126 0.623,0 1.126,0.502 1.126,1.126 0,0.623 -0.503,1.127 -1.126,1.127 -0.624,0 -1.126,-0.504 -1.126,-1.127"
       style="fill:#231f20;fill-opacity:1;fill-rule:nonzero;stroke:none;stroke-width:0.1"
       id="path856" />
    <path
       d="m 398.449,433.287 c 0,-0.625 0.503,-1.127 1.127,-1.127 0.623,0 1.125,0.502 1.125,1.127 0,0.623 -0.502,1.125 -1.125,1.125 -0.624,0 -1.127,-0.502 -1.127,-1.125"
       style="fill:#231f20;fill-opacity:1;fill-rule:nonzero;stroke:none;stroke-width:0.1"
       id="path858" />
    <path
       d="m 394.08,420.376 c 0,-0.624 0.502,-1.128 1.126,-1.128 0.623,0 1.126,0.504 1.126,1.128 0,0.622 -0.503,1.125 -1.126,1.125 -0.624,0 -1.126,-0.503 -1.126,-1.125"
       style="fill:#231f20;fill-opacity:1;fill-rule:nonzero;stroke:none;stroke-width:0.1"
       id="path860" />
    <path
       d="m 388.716,417.793 c 0,-0.624 0.503,-1.125 1.127,-1.125 0.623,0 1.125,0.501 1.125,1.125 0,0.623 -0.502,1.126 -1.125,1.126 -0.624,0 -1.127,-0.503 -1.127,-1.126"
       style="fill:#231f20;fill-opacity:1;fill-rule:nonzero;stroke:none;stroke-width:0.1"
       id="path862" />
    <path
       d="m 388.915,425.341 c 0,-0.624 0.503,-1.128 1.127,-1.128 0.623,0 1.126,0.504 1.126,1.128 0,0.622 -0.503,1.125 -1.126,1.125 -0.624,0 -1.127,-0.503 -1.127,-1.125"
       style="fill:#231f20;fill-opacity:1;fill-rule:nonzero;stroke:none;stroke-width:0.1"
       id="path864" />
    <path
       d="m 705.915,627.669 c -6.885,4.767 -12.182,8.475 -26.217,12.448 -14.037,3.971 -26.484,3.971 -37.076,5.031 -10.591,1.06 -21.715,2.648 -48.729,1.59 -27.012,-1.06 -44.757,-1.855 -53.891,-1.855 -9.137,0 -26.88,0.795 -53.893,1.855 -27.014,1.058 -38.137,-0.53 -48.73,-1.59 -10.592,-1.06 -23.04,-1.06 -37.075,-5.031 -14.036,-3.973 -19.333,-7.681 -26.219,-12.448 -6.885,-4.767 -24.363,-14.566 -37.34,-11.653 l 7.15,-5.825 c 8.739,2.384 19.862,6.355 31.515,14.566 11.651,8.208 18.544,12.182 30.19,14.565 11.647,2.383 31.25,2.118 48.464,1.853 17.213,-0.264 37.606,-2.118 51.906,-3.177 14.301,-1.06 29.396,0 34.032,0 4.635,0 19.728,-1.06 34.029,0 14.301,1.059 34.694,2.913 51.906,3.177 17.215,0.265 36.818,0.53 48.464,-1.853 11.646,-2.383 18.54,-6.357 30.191,-14.565 11.653,-8.211 22.776,-12.182 31.514,-14.566 l 7.149,5.825 c -12.976,-2.913 -30.452,6.886 -37.34,11.653"
       style="fill:#b2b1b1;fill-opacity:1;fill-rule:nonzero;stroke:none;stroke-width:0.1"
       id="path866" />
    <path
       d="m 310.394,550.338 c 3.575,2.782 8.739,14.301 5.164,21.452 0,0 10.726,-5.165 10.328,-11.123 0,0 -7.944,-7.15 -15.492,-10.329"
       style="fill:#706d6e;fill-opacity:1;fill-rule:nonzero;stroke:none;stroke-width:0.1"
       id="path868" />
    <path
       d="m 310.394,550.338 c 3.575,2.782 8.739,14.301 5.164,21.452 0,0 10.726,-5.165 10.328,-11.123 0,0 -7.944,-7.15 -15.492,-10.329 z"
       style="fill:none;stroke:#231f20;stroke-width:0.75;stroke-linecap:round;stroke-linejoin:round;stroke-miterlimit:4;stroke-dasharray:none;stroke-opacity:1"
       id="path870" />
    <path
       d="m 292.916,539.615 c 5.164,0.794 13.903,7.943 17.478,10.723"
       style="fill:none;stroke:#231f20;stroke-width:0.75;stroke-linecap:round;stroke-linejoin:round;stroke-miterlimit:4;stroke-dasharray:none;stroke-opacity:1"
       id="path872" />
    <path
       d="m 540.002,568.612 c 0,9 -7.35,11.322 -13.904,13.242 3.971,-1.323 7.944,-1.06 13.904,-1.06 5.956,0 9.929,-0.263 13.904,1.06 -6.557,-1.92 -13.904,-4.242 -13.904,-13.242"
       style="fill:#706d6e;fill-opacity:1;fill-rule:nonzero;stroke:none;stroke-width:0.1"
       id="path874" />
    <path
       d="m 540.002,568.612 c 0,9 -7.35,11.322 -13.904,13.242 3.971,-1.323 7.944,-1.06 13.904,-1.06 5.956,0 9.929,-0.263 13.904,1.06 -6.557,-1.92 -13.904,-4.242 -13.904,-13.242 z"
       style="fill:none;stroke:#231f20;stroke-width:0.75;stroke-linecap:round;stroke-linejoin:round;stroke-miterlimit:4;stroke-dasharray:none;stroke-opacity:1"
       id="path876" />
    <path
       d="m 788.675,631.377 c -2.515,-0.265 -5.163,-1.59 -5.163,-1.59 l -3.974,-0.794 c 0,0 -10.858,-4.767 -16.685,-6.091 -5.824,-1.323 -15.623,-4.767 -19.598,-6.886 -3.971,-2.118 -5.56,-3.441 -7.149,-5.825 -1.589,-2.384 -3.441,-5.561 -4.235,-6.357 -0.795,-0.794 -1.326,-4.238 -6.358,-7.149 -5.03,-2.914 -13.505,-5.561 -12.976,-11.653 0.53,-6.091 1.587,-7.945 5.827,-13.771 4.235,-5.827 9.799,-11.124 12.976,-12.976 3.177,-1.854 9.799,-2.383 15.095,3.971 5.297,6.356 12.446,14.831 16.949,23.571 4.502,8.739 9.534,13.505 13.771,19.861 4.238,6.356 7.416,13.772 15.493,22.113"
       style="fill:none;stroke:#231f20;stroke-width:0.5;stroke-linecap:butt;stroke-linejoin:miter;stroke-miterlimit:4;stroke-dasharray:none;stroke-opacity:1"
       id="path878" />
    <path
       d="m 291.327,631.377 c 2.515,-0.265 5.164,-1.59 5.164,-1.59 l 3.972,-0.794 c 0,0 10.858,-4.767 16.684,-6.091 5.826,-1.323 15.626,-4.767 19.598,-6.886 3.972,-2.118 5.561,-3.441 7.15,-5.825 1.589,-2.384 3.442,-5.561 4.237,-6.357 0.795,-0.794 1.325,-4.238 6.357,-7.149 5.031,-2.914 13.505,-5.561 12.975,-11.653 -0.528,-6.091 -1.588,-7.945 -5.826,-13.771 -4.236,-5.827 -9.798,-11.124 -12.975,-12.976 -3.179,-1.854 -9.799,-2.383 -15.096,3.971 -5.297,6.356 -12.448,14.831 -16.949,23.571 -4.502,8.739 -9.534,13.505 -13.772,19.861 -4.237,6.356 -7.414,13.772 -15.492,22.113"
       style="fill:none;stroke:#231f20;stroke-width:0.5;stroke-linecap:butt;stroke-linejoin:miter;stroke-miterlimit:4;stroke-dasharray:none;stroke-opacity:1"
       id="path880" />
    <path
       d="m 540.002,350.922 c -1.163,0 -1.97,-0.799 -3.178,-2.382 -9.634,-12.613 -37.74,-7.151 -54.026,1.191 -16.287,8.343 -31.779,4.767 -66.34,23.834 -34.56,19.068 -57.6,37.342 -66.737,44.492 -9.137,7.149 -31.779,34.958 -34.957,39.327 -3.179,4.369 -14.698,15.89 -20.657,23.04 -5.958,7.152 -6.356,14.3 -7.547,19.465 -1.192,5.165 -1.986,25.424 -1.986,28.204 0,2.781 1.986,7.548 8.342,11.522 -18.79,-2.893 -57.998,5.56 -66.738,21.847 -8.739,16.288 -5.56,32.97 0.795,41.711 6.357,8.739 15.492,13.903 30.191,17.876 14.698,3.972 30.19,6.752 30.19,6.752 -0.397,3.179 3.973,3.576 3.973,3.576 -5.165,3.177 -2.384,5.562 -2.384,5.562 -7.548,8.74 4.37,17.875 4.37,17.875 -10.328,-9.533 -23.835,7.151 -27.013,9.932 -3.178,2.78 -9.534,13.505 -10.328,29.395 -0.795,15.89 2.78,33.368 21.45,46.478 40.327,28.313 57.601,39.327 67.135,45.286 9.534,5.959 26.615,14.301 34.163,16.683 7.548,2.384 5.164,-7.944 5.164,-7.944 7.548,15.492 20.26,39.327 49.259,66.737 28.998,27.41 81.831,40.916 106.859,40.916 25.025,0 77.858,-13.506 106.858,-40.916 28.997,-27.41 41.709,-51.245 49.259,-66.737 0,0 -2.386,10.328 5.163,7.944 7.547,-2.382 24.628,-10.724 34.163,-16.683 9.532,-5.959 26.807,-16.973 67.135,-45.286 18.67,-13.11 22.245,-30.588 21.451,-46.478 -0.795,-15.89 -7.153,-26.615 -10.33,-29.395 -3.178,-2.781 -16.685,-19.465 -27.011,-9.932 0,0 11.915,-9.135 4.369,-17.875 0,0 2.78,-2.385 -2.384,-5.562 0,0 4.369,-0.397 3.973,-3.576 0,0 15.492,-2.78 30.19,-6.752 14.7,-3.973 23.834,-9.137 30.19,-17.876 6.357,-8.741 9.535,-25.423 0.794,-41.711 -8.738,-16.287 -47.948,-24.74 -66.735,-21.847 6.355,-3.974 8.341,-8.741 8.341,-11.522 0,-2.78 -0.795,-23.039 -1.986,-28.204 -1.192,-5.165 -1.589,-12.313 -7.547,-19.465 -5.96,-7.15 -17.479,-18.671 -20.658,-23.04 -3.178,-4.369 -25.821,-32.178 -34.955,-39.327 -9.138,-7.15 -32.178,-25.424 -66.738,-44.492 -34.56,-19.067 -50.053,-15.491 -66.34,-23.834 -16.288,-8.342 -44.392,-13.804 -54.026,-1.191 -1.21,1.583 -2.014,2.382 -3.176,2.382 z"
       style="fill:none;stroke:#231f20;stroke-width:0.75;stroke-linecap:round;stroke-linejoin:round;stroke-miterlimit:4;stroke-dasharray:none;stroke-opacity:1"
       id="path882" />
    <path
       d="m 242.863,643.691 c 10.725,-2.383 9.534,4.767 5.561,7.151 0,0 -11.918,-0.398 -5.561,-7.151"
       style="fill:#ffffff;fill-opacity:1;fill-rule:nonzero;stroke:none;stroke-width:0.1"
       id="path884" />
    <path
       d="m 242.863,643.691 c 10.725,-2.383 9.534,4.767 5.561,7.151 0,0 -11.918,-0.398 -5.561,-7.151 z"
       style="fill:none;stroke:#231f20;stroke-width:0.5;stroke-linecap:butt;stroke-linejoin:miter;stroke-miterlimit:4;stroke-dasharray:none;stroke-opacity:1"
       id="path886" />
    <path
       d="m 242.863,643.691 c 0,0 -9.533,3.973 -13.904,-2.383 -4.37,-6.356 -9.931,-16.684 -7.547,-25.026 2.382,-8.343 9.279,-5.315 25.693,1.513 16.414,6.829 23.515,7.819 27.141,22.322 3.176,12.711 -5.351,22.057 -5.351,22.057 -4.209,4.35 -15.307,4.558 -20.073,1.38 -4.768,-3.179 -4.768,-7.548 -0.398,-12.712 3.973,-2.384 5.164,-9.534 -5.561,-7.151"
       style="fill:#ffffff;fill-opacity:1;fill-rule:nonzero;stroke:none;stroke-width:0.1"
       id="path888" />
    <path
       d="m 242.863,643.691 c 0,0 -9.533,3.973 -13.904,-2.383 -4.37,-6.356 -9.931,-16.684 -7.547,-25.026 2.382,-8.343 9.279,-5.315 25.693,1.513 16.414,6.829 23.515,7.819 27.141,22.322 3.176,12.711 -5.351,22.057 -5.351,22.057 -4.209,4.35 -15.307,4.558 -20.073,1.38 -4.768,-3.179 -4.768,-7.548 -0.398,-12.712 3.973,-2.384 5.164,-9.534 -5.561,-7.151 z"
       style="fill:none;stroke:#231f20;stroke-width:0.75;stroke-linecap:round;stroke-linejoin:round;stroke-miterlimit:4;stroke-dasharray:none;stroke-opacity:1"
       id="path890" />
    <path
       d="m 620.235,566.264 c 3.586,0 1.466,8.969 4.907,8.969 3.444,0 0.643,-7.111 2.914,-8.474 2.65,-1.589 8.74,-2.12 11.388,-1.325"
       style="fill:none;stroke:#231f20;stroke-width:0.5;stroke-linecap:butt;stroke-linejoin:miter;stroke-miterlimit:4;stroke-dasharray:none;stroke-opacity:1"
       id="path892" />
    <path
       d="m 459.766,566.264 c -3.583,0 -1.466,8.969 -4.908,8.969 -3.442,0 -0.641,-7.111 -2.912,-8.474 -2.65,-1.589 -8.74,-2.12 -11.389,-1.325"
       style="fill:none;stroke:#231f20;stroke-width:0.5;stroke-linecap:butt;stroke-linejoin:miter;stroke-miterlimit:4;stroke-dasharray:none;stroke-opacity:1"
       id="path894" />
    <path
       d="m 688.838,541.431 c 1.082,-1.854 2.592,-4.294 4.171,-7.357"
       style="fill:none;stroke:#231f20;stroke-width:0.5;stroke-linecap:butt;stroke-linejoin:miter;stroke-miterlimit:4;stroke-dasharray:none;stroke-opacity:1"
       id="path896" />
    <path
       d="m 391.164,541.431 c -1.081,-1.854 -2.591,-4.294 -4.17,-7.357"
       style="fill:none;stroke:#231f20;stroke-width:0.5;stroke-linecap:butt;stroke-linejoin:miter;stroke-miterlimit:4;stroke-dasharray:none;stroke-opacity:1"
       id="path898" />
    <path
       d="m 686.847,438.052 c -2.646,2.117 -9.002,1.059 -10.594,-4.502 -1.587,-5.561 0,-12.181 2.387,-17.744 2.383,-5.561 10.063,-9.798 14.829,-7.15 4.766,2.648 4.344,6.096 4.159,10.065 -0.187,3.971 -1.803,8.067 -4.437,10.256"
       style="fill:none;stroke:#231f20;stroke-width:0.5;stroke-linecap:butt;stroke-linejoin:miter;stroke-miterlimit:4;stroke-dasharray:none;stroke-opacity:1"
       id="path900" />
    <path
       d="m 393.154,438.052 c 2.647,2.117 9.004,1.059 10.593,-4.502 1.588,-5.561 0,-12.181 -2.384,-17.744 -2.383,-5.561 -10.064,-9.798 -14.83,-7.15 -4.768,2.648 -4.344,6.096 -4.158,10.065 0.185,3.971 1.802,8.067 4.437,10.256"
       style="fill:none;stroke:#231f20;stroke-width:0.5;stroke-linecap:butt;stroke-linejoin:miter;stroke-miterlimit:4;stroke-dasharray:none;stroke-opacity:1"
       id="path902" />
    <path
       d="m 765.084,552.645 c -6.203,2.991 -13.896,9.614 -22.419,-10.845"
       style="fill:none;stroke:#231f20;stroke-width:0.5;stroke-linecap:round;stroke-linejoin:round;stroke-miterlimit:4;stroke-dasharray:2.8, 1.8;stroke-dashoffset:0;stroke-opacity:1"
       id="path904" />
    <path
       d="m 729.22,544.514 c -1.588,4.766 -9.004,15.623 -11.121,18.006 0,0 -6.779,1.305 -9.004,-9.269 -3.18,-15.093 -1.589,-37.871 -8.474,-53.494"
       style="fill:none;stroke:#231f20;stroke-width:0.5;stroke-linecap:round;stroke-linejoin:round;stroke-miterlimit:4;stroke-dasharray:2.8, 1.8;stroke-dashoffset:0;stroke-opacity:1"
       id="path906" />
    <path
       d="m 718.099,562.52 c -3.443,3.444 -13.188,10.321 -27.544,2.119 -1.852,-1.057 -18.007,0.531 -23.569,2.914"
       style="fill:none;stroke:#231f20;stroke-width:0.5;stroke-linecap:round;stroke-linejoin:round;stroke-miterlimit:4;stroke-dasharray:2.8, 1.8;stroke-dashoffset:0;stroke-opacity:1"
       id="path908" />
    <path
       d="m 693.009,534.074 c 3.865,-7.498 8.155,-18.739 7.612,-34.317 -0.846,-24.23 -6.091,-37.341 0.263,-50.317"
       style="fill:none;stroke:#231f20;stroke-width:0.5;stroke-linecap:round;stroke-linejoin:round;stroke-miterlimit:4;stroke-dasharray:2.8, 1.8;stroke-dashoffset:0;stroke-opacity:1"
       id="path910" />
    <path
       d="m 690.555,564.639 c -2.913,-2.383 -5.56,-16.417 -2.119,-22.509 0.126,-0.222 0.261,-0.455 0.402,-0.699"
       style="fill:none;stroke:#231f20;stroke-width:0.5;stroke-linecap:round;stroke-linejoin:round;stroke-miterlimit:4;stroke-dasharray:2.8, 1.8;stroke-dashoffset:0;stroke-opacity:1"
       id="path912" />
    <path
       d="m 386.994,534.074 c -3.867,-7.498 -8.156,-18.739 -7.613,-34.317 0.847,-24.23 6.091,-37.341 -0.263,-50.317"
       style="fill:none;stroke:#231f20;stroke-width:0.5;stroke-linecap:round;stroke-linejoin:round;stroke-miterlimit:4;stroke-dasharray:2.8, 1.8;stroke-dashoffset:0;stroke-opacity:1"
       id="path914" />
    <path
       d="m 389.447,564.639 c 2.914,-2.383 5.56,-16.417 2.119,-22.509 -0.126,-0.222 -0.261,-0.455 -0.402,-0.699"
       style="fill:none;stroke:#231f20;stroke-width:0.5;stroke-linecap:round;stroke-linejoin:round;stroke-miterlimit:4;stroke-dasharray:2.8, 1.8;stroke-dashoffset:0;stroke-opacity:1"
       id="path916" />
    <path
       d="m 662.75,456.589 c 1.325,-3.708 22.214,3.701 20.656,10.33 -1.058,4.502 -22.095,-6.3 -20.656,-10.33 z"
       style="fill:none;stroke:#231f20;stroke-width:0.5;stroke-linecap:round;stroke-linejoin:round;stroke-miterlimit:4;stroke-dasharray:2.8, 1.8;stroke-dashoffset:0;stroke-opacity:1"
       id="path918" />
    <path
       d="m 637.838,550.131 c 0.221,-0.835 0.488,-1.651 0.811,-2.44"
       style="fill:none;stroke:#231f20;stroke-width:0.5;stroke-linecap:round;stroke-linejoin:round;stroke-miterlimit:4;stroke-dasharray:2.8, 1.8;stroke-dashoffset:3.5038;stroke-opacity:1"
       id="path920" />
    <path
       d="m 442.164,550.131 c -0.221,-0.835 -0.488,-1.651 -0.811,-2.44"
       style="fill:none;stroke:#231f20;stroke-width:0.5;stroke-linecap:round;stroke-linejoin:round;stroke-miterlimit:4;stroke-dasharray:2.8, 1.8;stroke-dashoffset:3.5038;stroke-opacity:1"
       id="path922" />
    <path
       d="m 671.415,542.142 c 1.928,4.755 2.456,23.293 -4.429,25.411 -6.886,2.119 -24.893,2.383 -27.542,-2.119"
       style="fill:none;stroke:#231f20;stroke-width:0.5;stroke-linecap:round;stroke-linejoin:round;stroke-miterlimit:4;stroke-dasharray:2.8, 1.8;stroke-dashoffset:0;stroke-opacity:1"
       id="path924" />
    <path
       d="m 614.743,606.114 c 0.337,-2.809 3.519,-2.544 6.433,-2.015"
       style="fill:none;stroke:#231f20;stroke-width:0.5;stroke-linecap:round;stroke-linejoin:round;stroke-miterlimit:4;stroke-dasharray:2.8, 1.8;stroke-dashoffset:0;stroke-opacity:1"
       id="path926" />
    <path
       d="m 642.713,611.625 c 3.883,-0.111 12.885,-0.176 15.268,-8.916"
       style="fill:none;stroke:#231f20;stroke-width:0.5;stroke-linecap:round;stroke-linejoin:round;stroke-miterlimit:4;stroke-dasharray:2.8, 1.8;stroke-dashoffset:0;stroke-opacity:1"
       id="path928" />
    <path
       d="m 686.053,585.032 c 2.119,2.384 7.416,3.708 11.918,2.384"
       style="fill:none;stroke:#231f20;stroke-width:0.5;stroke-linecap:round;stroke-linejoin:round;stroke-miterlimit:4;stroke-dasharray:2.8, 1.8;stroke-dashoffset:0;stroke-opacity:1"
       id="path930" />
    <path
       d="m 676.253,576.027 c 3.708,-2.383 7.153,-8.474 -9.267,-8.474"
       style="fill:none;stroke:#231f20;stroke-width:0.5;stroke-linecap:round;stroke-linejoin:round;stroke-miterlimit:4;stroke-dasharray:2.8, 1.8;stroke-dashoffset:0;stroke-opacity:1"
       id="path932" />
    <path
       d="m 314.918,552.645 c 6.202,2.991 13.895,9.614 22.418,-10.845"
       style="fill:none;stroke:#231f20;stroke-width:0.5;stroke-linecap:round;stroke-linejoin:round;stroke-miterlimit:4;stroke-dasharray:2.8, 1.8;stroke-dashoffset:0;stroke-opacity:1"
       id="path934" />
    <path
       d="m 350.781,544.514 c 1.588,4.766 9.004,15.623 11.122,18.006 0,0 6.779,1.305 9.005,-9.269 3.177,-15.093 1.589,-37.871 8.473,-53.494"
       style="fill:none;stroke:#231f20;stroke-width:0.5;stroke-linecap:round;stroke-linejoin:round;stroke-miterlimit:4;stroke-dasharray:2.8, 1.8;stroke-dashoffset:0;stroke-opacity:1"
       id="path936" />
    <path
       d="m 361.903,562.52 c 3.443,3.444 13.187,10.321 27.543,2.119 1.853,-1.057 18.009,0.531 23.569,2.914"
       style="fill:none;stroke:#231f20;stroke-width:0.5;stroke-linecap:round;stroke-linejoin:round;stroke-miterlimit:4;stroke-dasharray:2.8, 1.8;stroke-dashoffset:0;stroke-opacity:1"
       id="path938" />
    <path
       d="m 417.252,456.589 c -1.324,-3.708 -22.215,3.701 -20.656,10.33 1.06,4.502 22.096,-6.3 20.656,-10.33 z"
       style="fill:none;stroke:#231f20;stroke-width:0.5;stroke-linecap:round;stroke-linejoin:round;stroke-miterlimit:4;stroke-dasharray:2.8, 1.8;stroke-dashoffset:0;stroke-opacity:1"
       id="path940" />
    <path
       d="m 408.586,542.142 c -1.926,4.755 -2.455,23.293 4.429,25.411 6.886,2.119 24.894,2.383 27.542,-2.119"
       style="fill:none;stroke:#231f20;stroke-width:0.5;stroke-linecap:round;stroke-linejoin:round;stroke-miterlimit:4;stroke-dasharray:2.8, 1.8;stroke-dashoffset:0;stroke-opacity:1"
       id="path942" />
    <path
       d="m 465.26,606.114 c -0.338,-2.809 -3.52,-2.544 -6.433,-2.015"
       style="fill:none;stroke:#231f20;stroke-width:0.5;stroke-linecap:round;stroke-linejoin:round;stroke-miterlimit:4;stroke-dasharray:2.8, 1.8;stroke-dashoffset:0;stroke-opacity:1"
       id="path944" />
    <path
       d="m 437.288,611.625 c -3.88,-0.111 -12.884,-0.176 -15.268,-8.916"
       style="fill:none;stroke:#231f20;stroke-width:0.5;stroke-linecap:round;stroke-linejoin:round;stroke-miterlimit:4;stroke-dasharray:2.8, 1.8;stroke-dashoffset:0;stroke-opacity:1"
       id="path946" />
    <path
       d="m 393.948,585.032 c -2.119,2.384 -7.415,3.708 -11.917,2.384"
       style="fill:none;stroke:#231f20;stroke-width:0.5;stroke-linecap:round;stroke-linejoin:round;stroke-miterlimit:4;stroke-dasharray:2.8, 1.8;stroke-dashoffset:0;stroke-opacity:1"
       id="path948" />
    <path
       d="m 403.747,576.027 c -3.708,-2.383 -7.151,-8.474 9.268,-8.474"
       style="fill:none;stroke:#231f20;stroke-width:0.5;stroke-linecap:round;stroke-linejoin:round;stroke-miterlimit:4;stroke-dasharray:2.8, 1.8;stroke-dashoffset:0;stroke-opacity:1"
       id="path950" />
    <path
       d="m 702.468,590.218 c -2.108,1.328 -8.999,2.23 -4.497,-2.802 4.502,-5.033 13.771,-13.242 21.45,-21.982 7.68,-8.738 16.418,-14.83 22.509,-11.917"
       style="fill:none;stroke:#231f20;stroke-width:0.5;stroke-linecap:round;stroke-linejoin:round;stroke-miterlimit:4;stroke-dasharray:2.8, 1.8;stroke-dashoffset:0;stroke-opacity:1"
       id="path952" />
    <path
       d="m 593.098,550.604 c -1.852,-19.333 5.561,-88.718 53.232,-126.323"
       style="fill:none;stroke:#231f20;stroke-width:0.5;stroke-linecap:round;stroke-linejoin:round;stroke-miterlimit:4;stroke-dasharray:2.8, 1.8;stroke-dashoffset:0;stroke-opacity:1"
       id="path954" />
    <path
       d="m 544.106,508.496 c 9.005,1.853 31.497,3.088 53.09,0.617"
       style="fill:none;stroke:#231f20;stroke-width:0.5;stroke-linecap:round;stroke-linejoin:round;stroke-miterlimit:4;stroke-dasharray:2.8, 1.8;stroke-dashoffset:0;stroke-opacity:1"
       id="path956" />
    <path
       d="m 566.087,502.14 c 0.947,-4.738 -4.238,-6.62 -7.946,-8.474 -3.708,-1.855 -14.195,-6.037 -15.889,-2.649 -1.192,2.383 -1.358,10.948 -1.236,14.127 0.102,2.646 0.707,3.088 3.09,3.352 2.384,0.266 20.921,-1.059 21.981,-6.356 z"
       style="fill:none;stroke:#231f20;stroke-width:0.5;stroke-linecap:round;stroke-linejoin:round;stroke-miterlimit:4;stroke-dasharray:2.8, 1.8;stroke-dashoffset:0;stroke-opacity:1"
       id="path958" />
    <path
       d="m 595.416,397.004 c 8.739,0.596 18.075,-5.562 21.451,-8.939 3.376,-3.376 3.773,-8.341 2.184,-10.726 -1.589,-2.383 -3.773,-5.959 -10.128,-4.767 -6.357,1.193 -17.478,4.767 -23.637,5.563 -6.157,0.794 -10.725,0.199 -12.313,-0.398 -1.589,-0.596 -3.379,0.398 -1.986,3.576 1.39,3.177 6.801,14.488 24.429,15.691 z"
       style="fill:none;stroke:#231f20;stroke-width:0.5;stroke-linecap:round;stroke-linejoin:round;stroke-miterlimit:4;stroke-dasharray:2.8, 1.8;stroke-dashoffset:0;stroke-opacity:1"
       id="path960" />
    <path
       d="m 681.254,497.918 c 1.888,7.666 -0.498,18.524 -14.002,28.056 -13.507,9.535 -29.397,16.156 -33.635,10.065 -4.236,-6.091 -11.652,-20.127 -8.208,-27.543"
       style="fill:none;stroke:#231f20;stroke-width:0.5;stroke-linecap:round;stroke-linejoin:round;stroke-miterlimit:4;stroke-dasharray:2.8, 1.8;stroke-dashoffset:0;stroke-opacity:1"
       id="path962" />
    <path
       d="m 635.206,502.406 c 4.238,-1.325 25.626,3.011 33.072,22.824"
       style="fill:none;stroke:#231f20;stroke-width:0.5;stroke-linecap:round;stroke-linejoin:round;stroke-miterlimit:4;stroke-dasharray:2.8, 1.8;stroke-dashoffset:0;stroke-opacity:1"
       id="path964" />
    <path
       d="m 622.229,507.437 c 0.555,1.993 4.769,1.06 7.946,-1.06 3.178,-2.118 10.063,-7.68 11.124,-12.181 1.058,-4.501 -1.325,-10.065 -5.827,-10.065 -4.503,0 -16.154,12.819 -13.243,23.306 z"
       style="fill:none;stroke:#231f20;stroke-width:0.5;stroke-linecap:round;stroke-linejoin:round;stroke-miterlimit:4;stroke-dasharray:2.8, 1.8;stroke-dashoffset:0;stroke-opacity:1"
       id="path966" />
    <path
       d="m 640.04,496.983 c 4.701,-4.905 15.294,-9.144 20.06,-10.202 4.769,-1.06 11.336,0.121 8.847,-6.429"
       style="fill:none;stroke:#231f20;stroke-width:0.5;stroke-linecap:round;stroke-linejoin:round;stroke-miterlimit:4;stroke-dasharray:2.8, 1.8;stroke-dashoffset:0;stroke-opacity:1"
       id="path968" />
    <path
       d="m 636.927,484.343 c 4.106,-4.183 9.182,-9.179 17.898,-10.389"
       style="fill:none;stroke:#231f20;stroke-width:0.5;stroke-linecap:round;stroke-linejoin:round;stroke-miterlimit:4;stroke-dasharray:2.8, 1.8;stroke-dashoffset:0;stroke-opacity:1"
       id="path970" />
    <path
       d="m 617.939,585.802 c 3.231,2.937 7.47,2.142 11.973,-1.83 4.499,-3.972 14.826,-11.366 24.891,-14.951"
       style="fill:none;stroke:#231f20;stroke-width:0.5;stroke-linecap:round;stroke-linejoin:round;stroke-miterlimit:4;stroke-dasharray:2.8, 1.8;stroke-dashoffset:0;stroke-opacity:1"
       id="path972" />
    <path
       d="m 551.903,539.256 c -0.527,3.708 -4.619,12.408 -6.208,16.116 -1.589,3.706 -2.913,10.856 -4.238,10.856 -1.455,0 -1.455,-8.743 -1.455,-11.917 0,-3.173 2.32,-12.725 3.114,-15.638"
       style="fill:none;stroke:#231f20;stroke-width:0.5;stroke-linecap:round;stroke-linejoin:round;stroke-miterlimit:4;stroke-dasharray:2.8, 1.8;stroke-dashoffset:0;stroke-opacity:1"
       id="path974" />
    <path
       d="m 642.29,567.447 c 0.824,1.398 1.055,3.676 0.225,7.522"
       style="fill:none;stroke:#231f20;stroke-width:0.5;stroke-linecap:round;stroke-linejoin:round;stroke-miterlimit:4;stroke-dasharray:2.8, 1.8;stroke-dashoffset:0;stroke-opacity:1"
       id="path976" />
    <path
       d="m 543.214,563.018 c 2.481,-3.144 5.028,-15.979 44.538,-15.917"
       style="fill:none;stroke:#231f20;stroke-width:0.5;stroke-linecap:round;stroke-linejoin:round;stroke-miterlimit:4;stroke-dasharray:2.8, 1.8;stroke-dashoffset:0;stroke-opacity:1"
       id="path978" />
    <path
       d="m 547.572,556.984 c -2.674,3.33 -3.73,10.304 1.831,13.218 5.56,2.913 13.507,0.796 16.154,-0.266 2.647,-1.06 7.943,-8.474 4.766,-12.711 -3.177,-4.237 -5.36,-7.586 -12.742,-6.177"
       style="fill:none;stroke:#231f20;stroke-width:0.5;stroke-linecap:round;stroke-linejoin:round;stroke-miterlimit:4;stroke-dasharray:2.8, 1.8;stroke-dashoffset:0;stroke-opacity:1"
       id="path980" />
    <path
       d="m 570.323,557.225 c 3.177,2.118 10.33,6.887 17.479,6.357 7.152,-0.531 11.777,-8.122 6.684,-11.742"
       style="fill:none;stroke:#231f20;stroke-width:0.5;stroke-linecap:round;stroke-linejoin:round;stroke-miterlimit:4;stroke-dasharray:2.8, 1.8;stroke-dashoffset:0;stroke-opacity:1"
       id="path982" />
    <path
       d="m 550.254,570.597 c -1.381,1.458 -0.321,5.165 4.973,5.43 5.297,0.265 13.039,-1.91 9.698,-5.854"
       style="fill:none;stroke:#231f20;stroke-width:0.5;stroke-linecap:round;stroke-linejoin:round;stroke-miterlimit:4;stroke-dasharray:2.8, 1.8;stroke-dashoffset:0;stroke-opacity:1"
       id="path984" />
    <path
       d="m 665.927,380.849 c 1.853,1.59 7.944,6.089 20.393,15.096 12.092,8.747 13.24,9.003 13.382,19.106"
       style="fill:none;stroke:#231f20;stroke-width:0.5;stroke-linecap:round;stroke-linejoin:round;stroke-miterlimit:4;stroke-dasharray:2.8, 1.8;stroke-dashoffset:0;stroke-opacity:1"
       id="path986" />
    <path
       d="m 619.051,377.339 c 5.297,0.067 17.876,6.842 24.365,14.632 1.325,1.589 1.588,1.589 5.296,-1.059 3.708,-2.649 12.977,-9.003 17.215,-10.063 -5.805,-5.362 -13.243,-6.62 -28.866,-12.978 -15.624,-6.355 -26.483,0.266 -28.138,4.701"
       style="fill:none;stroke:#231f20;stroke-width:0.5;stroke-linecap:round;stroke-linejoin:round;stroke-miterlimit:4;stroke-dasharray:2.8, 1.8;stroke-dashoffset:0;stroke-opacity:1"
       id="path988" />
    <path
       d="m 659.594,383.802 c 3.419,-0.304 14.277,1.548 16.659,8.699 2.387,7.15 2.118,16.633 2.121,23.942"
       style="fill:none;stroke:#231f20;stroke-width:0.5;stroke-linecap:round;stroke-linejoin:round;stroke-miterlimit:4;stroke-dasharray:2.8, 1.8;stroke-dashoffset:0;stroke-opacity:1"
       id="path990" />
    <path
       d="m 666.458,430.901 c 3.705,-1.059 7.728,-1.301 9.821,-7.88"
       style="fill:none;stroke:#231f20;stroke-width:0.5;stroke-linecap:round;stroke-linejoin:round;stroke-miterlimit:4;stroke-dasharray:2.8, 1.8;stroke-dashoffset:0;stroke-opacity:1"
       id="path992" />
    <path
       d="m 657.453,412.364 c 3.177,-7.68 2.792,-15.422 -8.139,-21.879"
       style="fill:none;stroke:#231f20;stroke-width:0.5;stroke-linecap:round;stroke-linejoin:round;stroke-miterlimit:4;stroke-dasharray:2.8, 1.8;stroke-dashoffset:0;stroke-opacity:1"
       id="path994" />
    <path
       d="m 610.313,413.688 c -5.035,-3.172 -2.119,-10.593 -0.53,-13.772 1.589,-3.177 6.357,-10.593 9.799,-12.978 3.441,-2.383 6.009,-5.354 8.474,2.65 2.119,6.885 7.944,10.859 11.124,13.507 3.177,2.647 6.885,6.885 5.03,11.122 -1.853,4.238 -3.578,5.899 -10.593,2.912 -12.447,-5.295 -16.155,1.062 -23.304,-3.441 z"
       style="fill:none;stroke:#231f20;stroke-width:0.5;stroke-linecap:round;stroke-linejoin:round;stroke-miterlimit:4;stroke-dasharray:2.8, 1.8;stroke-dashoffset:0;stroke-opacity:1"
       id="path996" />
    <path
       d="m 654.54,432.491 c -4.625,-1.835 -7.416,-5.826 -8.739,-10.328 -1.325,-4.502 -3.444,-14.566 5.825,-11.918 9.268,2.648 11.121,4.765 13.771,9.268 2.649,4.502 4.502,19.069 -10.857,12.978 z"
       style="fill:none;stroke:#231f20;stroke-width:0.5;stroke-linecap:round;stroke-linejoin:round;stroke-miterlimit:4;stroke-dasharray:2.8, 1.8;stroke-dashoffset:0;stroke-opacity:1"
       id="path998" />
    <path
       d="m 653.999,432.254 c 1.694,1.435 5.791,5.191 10.339,5.798 5.436,0.727 11.181,-2.41 9.666,-10.71"
       style="fill:none;stroke:#231f20;stroke-width:0.5;stroke-linecap:round;stroke-linejoin:round;stroke-miterlimit:4;stroke-dasharray:2.8, 1.8;stroke-dashoffset:0;stroke-opacity:1"
       id="path1000" />
    <path
       d="m 636.261,400.719 c -2.245,-1.999 -5.936,-11.704 6.567,-9.43"
       style="fill:none;stroke:#231f20;stroke-width:0.5;stroke-linecap:round;stroke-linejoin:round;stroke-miterlimit:4;stroke-dasharray:2.8, 1.8;stroke-dashoffset:0;stroke-opacity:1"
       id="path1002" />
    <path
       d="m 643.402,407.767 c 4.252,-0.171 18.899,-5.464 3.438,-15.561"
       style="fill:none;stroke:#231f20;stroke-width:0.5;stroke-linecap:round;stroke-linejoin:round;stroke-miterlimit:4;stroke-dasharray:2.8, 1.8;stroke-dashoffset:0;stroke-opacity:1"
       id="path1004" />
    <path
       d="m 640.847,404.608 c -0.609,-2.838 0.615,-13.429 3.842,-11.576 3.229,1.853 0.832,12.352 -1.287,14.735"
       style="fill:none;stroke:#231f20;stroke-width:0.5;stroke-linecap:round;stroke-linejoin:round;stroke-miterlimit:4;stroke-dasharray:2.8, 1.8;stroke-dashoffset:0;stroke-opacity:1"
       id="path1006" />
    <path
       d="m 754.116,560.667 c -2.119,1.853 -6.13,2.839 -8.315,0.872 -2.184,-1.967 -3.34,-6.962 -4.398,-9.611 0,0 -2.109,-5.037 1.858,-8.742"
       style="fill:none;stroke:#231f20;stroke-width:0.5;stroke-linecap:round;stroke-linejoin:round;stroke-miterlimit:4;stroke-dasharray:2.8, 1.8;stroke-dashoffset:0;stroke-opacity:1"
       id="path1008" />
    <path
       d="m 377.534,590.218 c 2.108,1.328 8.999,2.23 4.497,-2.802 -4.503,-5.033 -13.771,-13.242 -21.451,-21.982 -7.681,-8.738 -16.418,-14.83 -22.51,-11.917"
       style="fill:none;stroke:#231f20;stroke-width:0.5;stroke-linecap:round;stroke-linejoin:round;stroke-miterlimit:4;stroke-dasharray:2.8, 1.8;stroke-dashoffset:0;stroke-opacity:1"
       id="path1010" />
    <path
       d="m 486.903,550.604 c 1.853,-19.333 -5.561,-88.718 -53.231,-126.323"
       style="fill:none;stroke:#231f20;stroke-width:0.5;stroke-linecap:round;stroke-linejoin:round;stroke-miterlimit:4;stroke-dasharray:2.8, 1.8;stroke-dashoffset:0;stroke-opacity:1"
       id="path1012" />
    <path
       d="m 535.896,508.496 c -9.004,1.853 -31.497,3.088 -53.09,0.617"
       style="fill:none;stroke:#231f20;stroke-width:0.5;stroke-linecap:round;stroke-linejoin:round;stroke-miterlimit:4;stroke-dasharray:2.8, 1.8;stroke-dashoffset:0;stroke-opacity:1"
       id="path1014" />
    <path
       d="m 513.916,502.14 c -0.949,-4.738 4.237,-6.62 7.945,-8.474 3.707,-1.855 14.195,-6.037 15.889,-2.649 1.192,2.383 1.359,10.948 1.237,14.127 -0.103,2.646 -0.708,3.088 -3.091,3.352 -2.383,0.266 -20.921,-1.059 -21.98,-6.356 z"
       style="fill:none;stroke:#231f20;stroke-width:0.5;stroke-linecap:round;stroke-linejoin:round;stroke-miterlimit:4;stroke-dasharray:2.8, 1.8;stroke-dashoffset:0;stroke-opacity:1"
       id="path1016" />
    <path
       d="m 533.777,434.609 c 0,3.708 -0.264,18.009 -0.264,22.244 0,4.239 1.589,12.184 6.489,12.184 4.899,0 6.488,-7.945 6.488,-12.184 0,-4.235 -0.265,-18.536 -0.265,-22.244"
       style="fill:none;stroke:#231f20;stroke-width:0.5;stroke-linecap:round;stroke-linejoin:round;stroke-miterlimit:4;stroke-dasharray:2.8, 1.8;stroke-dashoffset:0;stroke-opacity:1"
       id="path1018" />
    <path
       d="m 495.377,394.488 c 7.415,15.359 27.013,41.181 44.625,41.181 17.611,0 37.206,-25.822 44.622,-41.181"
       style="fill:none;stroke:#231f20;stroke-width:0.5;stroke-linecap:round;stroke-linejoin:round;stroke-miterlimit:4;stroke-dasharray:2.8, 1.8;stroke-dashoffset:0;stroke-opacity:1"
       id="path1020" />
    <path
       d="m 519.15,398.476 c 1.783,11.935 13.038,21.831 20.852,21.831 7.812,0 19.067,-9.896 20.851,-21.831"
       style="fill:none;stroke:#231f20;stroke-width:0.5;stroke-linecap:round;stroke-linejoin:round;stroke-miterlimit:4;stroke-dasharray:2.8, 1.8;stroke-dashoffset:0;stroke-opacity:1"
       id="path1022" />
    <path
       d="m 484.585,397.004 c -8.739,0.596 -18.074,-5.562 -21.451,-8.939 -3.376,-3.376 -3.774,-8.341 -2.184,-10.726 1.589,-2.383 3.773,-5.959 10.129,-4.767 6.356,1.193 17.479,4.767 23.636,5.563 6.158,0.794 10.726,0.199 12.315,-0.398 1.589,-0.596 3.377,0.398 1.986,3.576 -1.39,3.177 -6.803,14.488 -24.431,15.691 z"
       style="fill:none;stroke:#231f20;stroke-width:0.5;stroke-linecap:round;stroke-linejoin:round;stroke-miterlimit:4;stroke-dasharray:2.8, 1.8;stroke-dashoffset:0;stroke-opacity:1"
       id="path1024" />
    <path
       d="m 398.749,497.918 c -1.889,7.666 0.495,18.524 14.001,28.056 13.506,9.535 29.397,16.156 33.634,10.065 4.238,-6.091 11.652,-20.127 8.209,-27.543"
       style="fill:none;stroke:#231f20;stroke-width:0.5;stroke-linecap:round;stroke-linejoin:round;stroke-miterlimit:4;stroke-dasharray:2.8, 1.8;stroke-dashoffset:0;stroke-opacity:1"
       id="path1026" />
    <path
       d="m 444.795,502.406 c -4.238,-1.325 -25.626,3.011 -33.072,22.824"
       style="fill:none;stroke:#231f20;stroke-width:0.5;stroke-linecap:round;stroke-linejoin:round;stroke-miterlimit:4;stroke-dasharray:2.8, 1.8;stroke-dashoffset:0;stroke-opacity:1"
       id="path1028" />
    <path
       d="m 457.771,507.437 c -0.553,1.993 -4.767,1.06 -7.944,-1.06 -3.178,-2.118 -10.064,-7.68 -11.123,-12.181 -1.059,-4.501 1.324,-10.065 5.826,-10.065 4.502,0 16.154,12.819 13.241,23.306 z"
       style="fill:none;stroke:#231f20;stroke-width:0.5;stroke-linecap:round;stroke-linejoin:round;stroke-miterlimit:4;stroke-dasharray:2.8, 1.8;stroke-dashoffset:0;stroke-opacity:1"
       id="path1030" />
    <path
       d="m 439.961,496.983 c -4.7,-4.905 -15.293,-9.144 -20.06,-10.202 -4.768,-1.06 -11.336,0.121 -8.846,-6.429"
       style="fill:none;stroke:#231f20;stroke-width:0.5;stroke-linecap:round;stroke-linejoin:round;stroke-miterlimit:4;stroke-dasharray:2.8, 1.8;stroke-dashoffset:0;stroke-opacity:1"
       id="path1032" />
    <path
       d="m 443.075,484.343 c -4.107,-4.183 -9.182,-9.179 -17.899,-10.389"
       style="fill:none;stroke:#231f20;stroke-width:0.5;stroke-linecap:round;stroke-linejoin:round;stroke-miterlimit:4;stroke-dasharray:2.8, 1.8;stroke-dashoffset:0;stroke-opacity:1"
       id="path1034" />
    <path
       d="m 462.064,585.802 c -3.233,2.937 -7.472,2.142 -11.973,-1.83 -4.502,-3.972 -14.827,-11.366 -24.892,-14.951"
       style="fill:none;stroke:#231f20;stroke-width:0.5;stroke-linecap:round;stroke-linejoin:round;stroke-miterlimit:4;stroke-dasharray:2.8, 1.8;stroke-dashoffset:0;stroke-opacity:1"
       id="path1036" />
    <path
       d="m 528.096,539.256 c 0.531,3.708 4.622,12.408 6.211,16.116 1.589,3.706 2.914,10.856 4.237,10.856 1.458,0 1.458,-8.743 1.458,-11.917 0,-3.173 -2.322,-12.725 -3.116,-15.638"
       style="fill:none;stroke:#231f20;stroke-width:0.5;stroke-linecap:round;stroke-linejoin:round;stroke-miterlimit:4;stroke-dasharray:2.8, 1.8;stroke-dashoffset:0;stroke-opacity:1"
       id="path1038" />
    <path
       d="m 437.713,567.447 c -0.827,1.398 -1.056,3.676 -0.227,7.522"
       style="fill:none;stroke:#231f20;stroke-width:0.5;stroke-linecap:round;stroke-linejoin:round;stroke-miterlimit:4;stroke-dasharray:2.8, 1.8;stroke-dashoffset:0;stroke-opacity:1"
       id="path1040" />
    <path
       d="m 536.787,563.018 c -2.48,-3.144 -5.029,-15.979 -44.537,-15.917"
       style="fill:none;stroke:#231f20;stroke-width:0.5;stroke-linecap:round;stroke-linejoin:round;stroke-miterlimit:4;stroke-dasharray:2.8, 1.8;stroke-dashoffset:0;stroke-opacity:1"
       id="path1042" />
    <path
       d="m 532.43,556.984 c 2.672,3.33 3.73,10.304 -1.831,13.218 -5.56,2.913 -13.507,0.796 -16.154,-0.266 -2.649,-1.06 -7.945,-8.474 -4.767,-12.711 3.178,-4.237 5.359,-7.586 12.742,-6.177"
       style="fill:none;stroke:#231f20;stroke-width:0.5;stroke-linecap:round;stroke-linejoin:round;stroke-miterlimit:4;stroke-dasharray:2.8, 1.8;stroke-dashoffset:0;stroke-opacity:1"
       id="path1044" />
    <path
       d="m 509.678,557.225 c -3.178,2.118 -10.329,6.887 -17.479,6.357 -7.151,-0.531 -11.776,-8.122 -6.683,-11.742"
       style="fill:none;stroke:#231f20;stroke-width:0.5;stroke-linecap:round;stroke-linejoin:round;stroke-miterlimit:4;stroke-dasharray:2.8, 1.8;stroke-dashoffset:0;stroke-opacity:1"
       id="path1046" />
    <path
       d="m 529.748,570.597 c 1.381,1.458 0.321,5.165 -4.975,5.43 -5.296,0.265 -13.038,-1.91 -9.697,-5.854"
       style="fill:none;stroke:#231f20;stroke-width:0.5;stroke-linecap:round;stroke-linejoin:round;stroke-miterlimit:4;stroke-dasharray:2.8, 1.8;stroke-dashoffset:0;stroke-opacity:1"
       id="path1048" />
    <path
       d="m 414.075,380.849 c -1.854,1.59 -7.946,6.089 -20.392,15.096 -12.093,8.747 -13.241,9.003 -13.382,19.106"
       style="fill:none;stroke:#231f20;stroke-width:0.5;stroke-linecap:round;stroke-linejoin:round;stroke-miterlimit:4;stroke-dasharray:2.8, 1.8;stroke-dashoffset:0;stroke-opacity:1"
       id="path1050" />
    <path
       d="m 460.95,377.339 c -5.297,0.067 -17.875,6.842 -24.366,14.632 -1.323,1.589 -1.587,1.589 -5.295,-1.059 -3.708,-2.649 -12.977,-9.003 -17.214,-10.063 5.805,-5.362 13.241,-6.62 28.866,-12.978 15.624,-6.355 26.483,0.266 28.138,4.701"
       style="fill:none;stroke:#231f20;stroke-width:0.5;stroke-linecap:round;stroke-linejoin:round;stroke-miterlimit:4;stroke-dasharray:2.8, 1.8;stroke-dashoffset:0;stroke-opacity:1"
       id="path1052" />
    <path
       d="m 420.407,383.802 c -3.419,-0.304 -14.278,1.548 -16.66,8.699 -2.384,7.15 -2.115,16.633 -2.117,23.942"
       style="fill:none;stroke:#231f20;stroke-width:0.5;stroke-linecap:round;stroke-linejoin:round;stroke-miterlimit:4;stroke-dasharray:2.8, 1.8;stroke-dashoffset:0;stroke-opacity:1"
       id="path1054" />
    <path
       d="m 413.544,430.901 c -3.707,-1.059 -7.729,-1.301 -9.822,-7.88"
       style="fill:none;stroke:#231f20;stroke-width:0.5;stroke-linecap:round;stroke-linejoin:round;stroke-miterlimit:4;stroke-dasharray:2.8, 1.8;stroke-dashoffset:0;stroke-opacity:1"
       id="path1056" />
    <path
       d="m 422.549,412.364 c -3.177,-7.68 -2.793,-15.422 8.138,-21.879"
       style="fill:none;stroke:#231f20;stroke-width:0.5;stroke-linecap:round;stroke-linejoin:round;stroke-miterlimit:4;stroke-dasharray:2.8, 1.8;stroke-dashoffset:0;stroke-opacity:1"
       id="path1058" />
    <path
       d="m 469.689,413.688 c 5.036,-3.172 2.118,-10.593 0.53,-13.772 -1.589,-3.177 -6.357,-10.593 -9.8,-12.978 -3.442,-2.383 -6.01,-5.354 -8.473,2.65 -2.119,6.885 -7.946,10.859 -11.123,13.507 -3.178,2.647 -6.887,6.885 -5.032,11.122 1.854,4.238 3.577,5.899 10.593,2.912 12.447,-5.295 16.155,1.062 23.305,-3.441 z"
       style="fill:none;stroke:#231f20;stroke-width:0.5;stroke-linecap:round;stroke-linejoin:round;stroke-miterlimit:4;stroke-dasharray:2.8, 1.8;stroke-dashoffset:0;stroke-opacity:1"
       id="path1060" />
    <path
       d="m 425.462,432.491 c 4.625,-1.835 7.414,-5.826 8.74,-10.328 1.324,-4.502 3.443,-14.566 -5.826,-11.918 -9.27,2.648 -11.123,4.765 -13.772,9.268 -2.648,4.502 -4.503,19.069 10.858,12.978 z"
       style="fill:none;stroke:#231f20;stroke-width:0.5;stroke-linecap:round;stroke-linejoin:round;stroke-miterlimit:4;stroke-dasharray:2.8, 1.8;stroke-dashoffset:0;stroke-opacity:1"
       id="path1062" />
    <path
       d="m 426.004,432.254 c -1.694,1.435 -5.793,5.191 -10.34,5.798 -5.437,0.727 -11.181,-2.41 -9.667,-10.71"
       style="fill:none;stroke:#231f20;stroke-width:0.5;stroke-linecap:round;stroke-linejoin:round;stroke-miterlimit:4;stroke-dasharray:2.8, 1.8;stroke-dashoffset:0;stroke-opacity:1"
       id="path1064" />
    <path
       d="m 443.742,400.719 c 2.244,-1.999 5.935,-11.704 -6.57,-9.43"
       style="fill:none;stroke:#231f20;stroke-width:0.5;stroke-linecap:round;stroke-linejoin:round;stroke-miterlimit:4;stroke-dasharray:2.8, 1.8;stroke-dashoffset:0;stroke-opacity:1"
       id="path1066" />
    <path
       d="m 436.6,407.767 c -4.252,-0.171 -18.9,-5.464 -3.439,-15.561"
       style="fill:none;stroke:#231f20;stroke-width:0.5;stroke-linecap:round;stroke-linejoin:round;stroke-miterlimit:4;stroke-dasharray:2.8, 1.8;stroke-dashoffset:0;stroke-opacity:1"
       id="path1068" />
    <path
       d="m 439.155,404.608 c 0.608,-2.838 -0.614,-13.429 -3.843,-11.576 -3.228,1.853 -0.831,12.352 1.288,14.735"
       style="fill:none;stroke:#231f20;stroke-width:0.5;stroke-linecap:round;stroke-linejoin:round;stroke-miterlimit:4;stroke-dasharray:2.8, 1.8;stroke-dashoffset:0;stroke-opacity:1"
       id="path1070" />
    <path
       d="m 325.886,560.667 c 2.119,1.853 6.128,2.839 8.314,0.872 2.184,-1.967 3.34,-6.962 4.398,-9.611 0,0 2.11,-5.037 -1.858,-8.742"
       style="fill:none;stroke:#231f20;stroke-width:0.5;stroke-linecap:round;stroke-linejoin:round;stroke-miterlimit:4;stroke-dasharray:2.8, 1.8;stroke-dashoffset:0;stroke-opacity:1"
       id="path1072" />
    <path
       d="m 628.586,607.744 c 3.178,0 14.318,2.015 18.821,8.108"
       style="fill:none;stroke:#231f20;stroke-width:0.5;stroke-linecap:round;stroke-linejoin:round;stroke-miterlimit:4;stroke-dasharray:2.8, 1.8;stroke-dashoffset:0;stroke-opacity:1"
       id="path1074" />
    <path
       d="m 451.416,607.744 c -3.177,0 -14.32,2.015 -18.822,8.108"
       style="fill:none;stroke:#231f20;stroke-width:0.5;stroke-linecap:round;stroke-linejoin:round;stroke-miterlimit:4;stroke-dasharray:2.8, 1.8;stroke-dashoffset:0;stroke-opacity:1"
       id="path1076" />
    <path
       d="m 541.47,523.201 c -0.498,-0.402 -0.807,-0.965 -0.807,-1.728 0,-2.909 -1.853,-11.653 1.589,-11.653 1.854,0 8.456,4.764 10.592,8.474 0.349,0.603 0.506,1.128 0.517,1.589"
       style="fill:none;stroke:#231f20;stroke-width:0.5;stroke-linecap:round;stroke-linejoin:round;stroke-miterlimit:4;stroke-dasharray:2.8, 1.8;stroke-dashoffset:0;stroke-opacity:1"
       id="path1078" />
    <path
       d="m 538.532,523.201 c 0.499,-0.402 0.807,-0.965 0.807,-1.728 0,-2.909 1.854,-11.653 -1.587,-11.653 -1.856,0 -8.458,4.764 -10.594,8.474 -0.348,0.603 -0.506,1.128 -0.517,1.589"
       style="fill:none;stroke:#231f20;stroke-width:0.5;stroke-linecap:round;stroke-linejoin:round;stroke-miterlimit:4;stroke-dasharray:2.8, 1.8;stroke-dashoffset:0;stroke-opacity:1"
       id="path1080" />
    <path
       d="m 608.458,561.726 c -8.738,-5.56 -3.708,6.621 -2.914,11.124 0.797,4.501 -0.263,9.799 -0.263,15.36 0,5.561 2.649,5.826 6.091,4.767 0.655,-0.201 1.321,-0.452 1.969,-0.796"
       style="fill:none;stroke:#231f20;stroke-width:0.5;stroke-linecap:round;stroke-linejoin:round;stroke-miterlimit:4;stroke-dasharray:2.8, 1.8;stroke-dashoffset:0;stroke-opacity:1"
       id="path1082" />
    <path
       d="m 471.542,561.726 c 8.74,-5.56 3.708,6.621 2.914,11.124 -0.794,4.501 0.264,9.799 0.264,15.36 0,5.561 -2.648,5.826 -6.09,4.767 -0.646,-0.198 -1.3,-0.443 -1.94,-0.779"
       style="fill:none;stroke:#231f20;stroke-width:0.5;stroke-linecap:round;stroke-linejoin:round;stroke-miterlimit:4;stroke-dasharray:2.8, 1.8;stroke-dashoffset:0;stroke-opacity:1"
       id="path1084" />
    <path
       d="m 553.361,519.883 c 0.052,2.38 -3.817,3.043 -5.814,3.708 -1.756,0.586 -4.668,0.738 -6.077,-0.39"
       style="fill:none;stroke:#231f20;stroke-width:0.5;stroke-linecap:round;stroke-linejoin:round;stroke-miterlimit:4;stroke-dasharray:2.8, 1.8;stroke-dashoffset:0;stroke-opacity:1"
       id="path1086" />
    <path
       d="m 526.641,519.883 c -0.052,2.38 3.817,3.043 5.814,3.708 1.757,0.586 4.668,0.738 6.077,-0.39"
       style="fill:none;stroke:#231f20;stroke-width:0.5;stroke-linecap:round;stroke-linejoin:round;stroke-miterlimit:4;stroke-dasharray:2.8, 1.8;stroke-dashoffset:0;stroke-opacity:1"
       id="path1088" />
    <path
       d="m 727.101,757.701 c -5.003,-4.096 2.783,-10.328 9.535,-19.465 6.752,-9.137 44.888,-56.409 50.054,-62.765 5.163,-6.356 11.915,-9.137 15.492,-5.959 3.575,3.178 -2.386,9.931 -7.151,16.685 -4.767,6.753 -17.479,25.424 -22.643,37.738 -5.163,12.315 -3.972,15.095 -15.096,21.848 -11.124,6.754 -25.819,15.493 -30.191,11.918"
       style="fill:#d3d2d2;fill-opacity:1;fill-rule:nonzero;stroke:none;stroke-width:0.1"
       id="path1090" />
    <path
       d="m 727.101,757.701 c -5.003,-4.096 2.783,-10.328 9.535,-19.465 6.752,-9.137 44.888,-56.409 50.054,-62.765 5.163,-6.356 11.915,-9.137 15.492,-5.959 3.575,3.178 -2.386,9.931 -7.151,16.685 -4.767,6.753 -17.479,25.424 -22.643,37.738 -5.163,12.315 -3.972,15.095 -15.096,21.848 -11.124,6.754 -25.819,15.493 -30.191,11.918 z"
       style="fill:none;stroke:#231f20;stroke-width:0.75;stroke-linecap:round;stroke-linejoin:round;stroke-miterlimit:4;stroke-dasharray:0, 2;stroke-dashoffset:0;stroke-opacity:1"
       id="path1092" />
    <path
       d="m 797.901,626.797 c 2.823,-2.305 2.029,-5.484 -0.885,-4.159 -2.913,1.323 -4.38,-1.189 -6.618,-3.708 -4.238,-4.766 -10.066,-12.447 -13.243,-17.479 -3.178,-5.032 -2.116,-8.474 0.53,-10.857 2.647,-2.384 8.738,-1.855 12.446,2.912 3.708,4.768 8.474,12.448 21.187,13.507 12.713,1.06 19.067,0.265 25.158,-6.091 6.091,-6.356 8.741,-17.214 8.211,-25.16 -0.531,-7.945 -6.622,-13.506 -18.273,-14.563 -11.652,-1.062 -22.776,-6.359 -28.603,-7.682 -5.824,-1.323 -12.713,-1.059 -18.801,3.442 -6.092,4.503 -11.919,10.858 -13.243,15.625 l -1.325,-0.794"
       style="fill:none;stroke:#231f20;stroke-width:0.75;stroke-linecap:round;stroke-linejoin:round;stroke-miterlimit:4;stroke-dasharray:0, 2;stroke-dashoffset:0;stroke-opacity:1"
       id="path1094" />
    <path
       d="m 352.899,757.701 c 5.006,-4.096 -2.78,-10.328 -9.534,-19.465 -6.752,-9.137 -44.888,-56.409 -50.052,-62.765 -5.164,-6.356 -11.918,-9.137 -15.492,-5.959 -3.575,3.178 2.383,9.931 7.149,16.685 4.768,6.753 17.479,25.424 22.643,37.738 5.164,12.315 3.972,15.095 15.095,21.848 11.124,6.754 25.821,15.493 30.191,11.918"
       style="fill:#d3d2d2;fill-opacity:1;fill-rule:nonzero;stroke:none;stroke-width:0.1"
       id="path1096" />
    <path
       d="m 352.899,757.701 c 5.006,-4.096 -2.78,-10.328 -9.534,-19.465 -6.752,-9.137 -44.888,-56.409 -50.052,-62.765 -5.164,-6.356 -11.918,-9.137 -15.492,-5.959 -3.575,3.178 2.383,9.931 7.149,16.685 4.768,6.753 17.479,25.424 22.643,37.738 5.164,12.315 3.972,15.095 15.095,21.848 11.124,6.754 25.821,15.493 30.191,11.918 z"
       style="fill:none;stroke:#231f20;stroke-width:0.75;stroke-linecap:round;stroke-linejoin:round;stroke-miterlimit:4;stroke-dasharray:0, 2;stroke-dashoffset:0;stroke-opacity:1"
       id="path1098" />
    <path
       d="m 288.943,636.939 c 33.765,7.946 55.218,52.833 65.942,74.682 10.726,21.848 11.918,33.368 38.136,78.653 26.218,45.286 52.038,62.766 85.01,79.846 32.971,17.082 46.477,11.124 61.971,11.124 15.492,0 28.997,5.958 61.968,-11.124 32.972,-17.08 58.794,-34.56 85.011,-79.846 26.219,-45.285 27.41,-56.805 38.135,-78.653 10.726,-21.849 32.176,-66.736 65.943,-74.682"
       style="fill:none;stroke:#231f20;stroke-width:0.75;stroke-linecap:round;stroke-linejoin:round;stroke-miterlimit:4;stroke-dasharray:0, 2;stroke-dashoffset:0;stroke-opacity:1"
       id="path1100" />
    <path
       d="m 540.002,829.601 c -3.972,0 -9.137,0.795 -40.519,1.59 -31.384,0.794 -53.232,-29.794 -69.915,-55.614 -16.685,-25.822 -27.808,-54.82 -38.136,-51.642 -10.328,3.178 -1.589,23.04 17.876,59.983 19.465,36.944 46.08,56.806 72.695,67.929 26.616,11.123 39.725,5.164 57.999,5.164 18.272,0 31.382,5.959 57.996,-5.164 26.617,-11.123 53.231,-30.985 72.695,-67.929 19.465,-36.943 28.206,-56.805 17.876,-59.983 -10.326,-3.178 -21.45,25.82 -38.135,51.642 -16.684,25.82 -38.532,56.408 -69.915,55.614 -31.383,-0.795 -36.546,-1.59 -40.517,-1.59 z"
       style="fill:none;stroke:#231f20;stroke-width:0.75;stroke-linecap:round;stroke-linejoin:round;stroke-miterlimit:4;stroke-dasharray:0, 2;stroke-dashoffset:0;stroke-opacity:1"
       id="path1102" />
    <path
       d="m 540.002,766.042 c -12.712,0 -27.013,4.767 -60.779,-5.561 -33.766,-10.328 -46.478,-46.08 -59.587,-70.312 -13.108,-24.232 -47.669,-54.819 -63.162,-63.163 -15.492,-8.34 -35.354,-3.971 -43.697,-0.794 -8.341,3.178 -4.767,5.562 4.767,9.932 9.535,4.37 35.355,20.259 61.573,42.107 26.218,21.849 27.807,34.958 45.287,61.574 17.478,26.615 35.751,38.929 57.997,46.477 22.245,7.547 42.505,9.534 57.601,9.534 15.095,0 35.354,-1.987 57.599,-9.534 22.245,-7.548 40.518,-19.862 57.997,-46.477 17.479,-26.616 19.068,-39.725 45.286,-61.574 26.217,-21.848 52.039,-37.737 61.573,-42.107 9.535,-4.37 13.109,-6.754 4.768,-9.932 -8.344,-3.177 -28.205,-7.546 -43.698,0.794 -15.493,8.344 -50.054,38.931 -63.16,63.163 -13.11,24.232 -25.823,59.984 -59.589,70.312 -33.766,10.328 -48.065,5.561 -60.776,5.561 z"
       style="fill:none;stroke:#231f20;stroke-width:0.75;stroke-linecap:round;stroke-linejoin:round;stroke-miterlimit:4;stroke-dasharray:0, 2;stroke-dashoffset:0;stroke-opacity:1"
       id="path1104" />
    <path
       d="m 540.002,716.387 c -13.11,0 -29.794,-1.191 -55.615,-3.972 -25.821,-2.782 -31.383,-1.987 -31.383,4.37 0,6.355 8.74,11.519 24.233,16.287 9.679,2.977 27.409,6.355 34.162,3.178 9.551,-4.495 23.836,-2.781 28.603,-2.781 4.765,0 19.05,-1.714 28.599,2.781 6.755,3.177 24.483,-0.201 34.163,-3.178 15.493,-4.768 24.234,-9.932 24.234,-16.287 0,-6.357 -5.564,-7.152 -31.383,-4.37 -25.823,2.781 -42.504,3.972 -55.613,3.972 z"
       style="fill:none;stroke:#231f20;stroke-width:0.75;stroke-linecap:round;stroke-linejoin:round;stroke-miterlimit:4;stroke-dasharray:0, 2;stroke-dashoffset:0;stroke-opacity:1"
       id="path1106" />
    <path
       d="m 540.002,653.623 c -31.383,0 -50.848,4.767 -65.149,5.164 -14.301,0.397 -36.943,-7.548 -48.066,-10.726 -11.123,-3.178 -17.876,2.384 -12.712,9.137 5.164,6.753 21.053,20.26 59.189,31.383 38.135,11.122 50.45,5.958 66.738,5.958 16.287,0 28.599,5.164 66.737,-5.958 38.135,-11.123 54.025,-24.63 59.188,-31.383 5.163,-6.753 -1.589,-12.315 -12.713,-9.137 -11.121,3.178 -33.765,11.123 -48.067,10.726 -14.298,-0.397 -33.763,-5.164 -65.145,-5.164 z"
       style="fill:none;stroke:#231f20;stroke-width:0.75;stroke-linecap:round;stroke-linejoin:round;stroke-miterlimit:4;stroke-dasharray:0, 2;stroke-dashoffset:0;stroke-opacity:1"
       id="path1108" />
    <path
       d="m 348.132,603.834 c 1.325,0.794 3.443,2.914 10.064,1.854 6.621,-1.06 9.534,-0.265 16.154,3.708 6.621,3.974 19.598,11.917 25.954,14.83 6.356,2.914 28.866,6.622 41.578,7.681 12.711,1.058 19.597,-3.444 31.515,-11.653 11.917,-8.21 18.273,-6.621 27.277,-2.382 9.004,4.235 27.012,4.501 39.328,4.501 12.312,0 30.321,-0.266 39.326,-4.501 9.004,-4.239 15.359,-5.828 27.277,2.382 11.916,8.209 18.804,12.711 31.514,11.653 12.713,-1.059 35.224,-4.767 41.579,-7.681 6.355,-2.913 19.334,-10.856 25.953,-14.83 6.621,-3.973 9.532,-4.768 16.154,-3.708 6.621,1.06 8.74,-1.06 10.066,-1.854"
       style="fill:none;stroke:#231f20;stroke-width:0.75;stroke-linecap:round;stroke-linejoin:round;stroke-miterlimit:4;stroke-dasharray:0, 2;stroke-dashoffset:0;stroke-opacity:1"
       id="path1110" />
    <path
       d="m 282.1,626.797 c -2.823,-2.305 -2.029,-5.484 0.885,-4.159 2.912,1.323 4.38,-1.189 6.62,-3.708 4.237,-4.766 10.063,-12.447 13.241,-17.479 3.179,-5.032 2.119,-8.474 -0.529,-10.857 -2.649,-2.384 -8.739,-1.855 -12.447,2.912 -3.708,4.768 -8.475,12.448 -21.187,13.507 -12.711,1.06 -19.068,0.265 -25.158,-6.091 -6.091,-6.356 -8.739,-17.214 -8.21,-25.16 0.53,-7.945 6.62,-13.506 18.273,-14.563 11.653,-1.062 22.776,-6.359 28.602,-7.682 5.826,-1.323 12.713,-1.059 18.803,3.442 6.091,4.503 11.917,10.858 13.241,15.625 l 1.324,-0.794"
       style="fill:none;stroke:#231f20;stroke-width:0.75;stroke-linecap:round;stroke-linejoin:round;stroke-miterlimit:4;stroke-dasharray:0, 2;stroke-dashoffset:0;stroke-opacity:1"
       id="path1112" />
  </g>
</svg>
