<?xml version="1.0" encoding="UTF-8" standalone="no"?>
<!-- Created with Inkscape (http://www.inkscape.org/) -->

<svg
   version="1.1"
   id="svg2"
   width="1440"
   height="1344"
   viewBox="0 0 1440 1344"
   xmlns="http://www.w3.org/2000/svg"
   xmlns:svg="http://www.w3.org/2000/svg">
  <defs
     id="defs6" />
  <g
     id="g8">
    <path
       d="m 540.002,339.911 c -2.09,0 -6.965,-2.09 -10.214,-4.645 -3.251,-2.554 -13.698,-5.338 -29.25,-4.875 -15.555,0.464 -19.27,2.786 -25.073,4.875 -5.801,2.09 -22.751,7.661 -31.107,8.823 -8.358,1.161 -14.05,3.53 -19.732,6.964 -9.982,6.035 -27.161,18.571 -32.036,24.143 -4.875,5.571 -17.561,15.896 -32.731,26.231 -15.136,10.312 -17.505,12.37 -24.145,16.947 -6.361,4.387 -16.714,14.162 -25.767,30.411 -9.054,16.249 -8.589,36.679 -8.589,36.679 0,0 -0.929,-2.322 -2.321,-2.322 -1.394,0 -4.179,7.894 -5.339,13 -1.16,5.107 -1.162,24.144 1.856,34.59 3.019,10.446 8.59,15.089 9.518,15.089 0.928,0 0.928,-4.643 0.928,-4.643 0.233,2.555 1.394,0.232 1.394,0.232 0.232,3.946 0,10.215 0,10.215 -7.894,-7.661 -21.822,-11.375 -26.697,-12.304 -4.875,-0.93 -8.358,0.696 -12.304,1.625 -3.945,0.929 -8.589,0.929 -10.679,2.09 -2.088,1.16 -10.446,8.82 -15.321,16.25 -4.875,7.429 -3.25,15.088 3.715,27.159 6.964,12.072 23.446,18.107 29.25,19.269 5.804,1.161 7.428,-1.393 7.428,-1.393 -2.786,3.714 10.679,0.466 10.679,0.466 l -2.089,2.551 c -3.715,2.555 -11.607,13.001 -9.054,28.787 2.554,15.786 4.411,19.036 12.536,33.428 8.124,14.394 26.697,34.589 33.661,41.786 6.964,7.198 20.428,19.733 25.999,25.768 5.571,6.036 10.446,12.768 16.018,17.179 5.572,4.41 10.447,3.714 10.447,3.714 7.195,19.268 13.465,25.768 28.322,42.714 14.858,16.947 36.91,22.983 47.821,24.608 10.911,1.624 19.037,-1.161 19.037,-1.161 -1.624,0.697 -6.734,4.178 -6.501,9.286 0.232,5.106 5.382,9.692 10.446,11.607 5.457,2.064 11.376,2.785 11.376,2.785 -14.625,1.858 -14.858,12.304 -12.769,20.429 2.089,8.125 19.964,13.929 27.161,15.321 7.197,1.393 27.624,-0.464 34.126,-0.464 6.5,0 26.927,1.857 34.124,0.464 7.197,-1.392 25.072,-7.196 27.161,-15.321 2.089,-8.125 1.857,-18.571 -12.768,-20.429 0,0 5.918,-0.721 11.375,-2.785 5.064,-1.915 10.214,-6.501 10.446,-11.607 0.233,-5.108 -4.876,-8.589 -6.5,-9.286 0,0 8.126,2.785 19.036,1.161 10.911,-1.625 32.963,-7.661 47.822,-24.608 14.857,-16.946 21.127,-23.446 28.322,-42.714 0,0 4.875,0.696 10.446,-3.714 5.572,-4.411 10.447,-11.143 16.018,-17.179 5.571,-6.035 19.035,-18.57 25.999,-25.768 6.965,-7.197 25.537,-27.392 33.662,-41.786 8.124,-14.392 9.982,-17.642 12.535,-33.428 2.553,-15.786 -5.339,-26.232 -9.054,-28.787 l -2.088,-2.551 c 0,0 13.464,3.248 10.678,-0.466 0,0 1.624,2.554 7.429,1.393 5.804,-1.162 22.285,-7.197 29.25,-19.269 6.964,-12.071 8.59,-19.73 3.715,-27.159 -4.876,-7.43 -13.233,-15.09 -15.322,-16.25 -2.089,-1.161 -6.733,-1.161 -10.679,-2.09 -3.946,-0.929 -7.428,-2.555 -12.303,-1.625 -4.875,0.929 -18.804,4.643 -26.697,12.304 0,0 -0.233,-6.269 0,-10.215 0,0 1.16,2.323 1.393,-0.232 0,0 0.001,4.643 0.929,4.643 0.927,0 6.499,-4.643 9.517,-15.089 3.018,-10.446 3.017,-29.483 1.857,-34.59 -1.16,-5.106 -3.946,-13 -5.339,-13 -1.393,0 -2.322,2.322 -2.322,2.322 0,0 0.465,-20.43 -8.588,-36.679 -9.054,-16.249 -19.406,-26.024 -25.768,-30.411 -6.639,-4.577 -9.009,-6.635 -24.144,-16.947 -15.171,-10.335 -27.857,-20.66 -32.732,-26.231 -4.875,-5.572 -22.053,-18.108 -32.036,-24.143 -5.681,-3.434 -11.374,-5.803 -19.731,-6.964 -8.357,-1.162 -25.306,-6.733 -31.108,-8.823 -5.803,-2.089 -9.518,-4.411 -25.072,-4.875 -15.552,-0.463 -25.999,2.321 -29.25,4.875 -3.25,2.555 -8.125,4.645 -10.213,4.645 z m 115.955,316.642 c 5.223,-9.053 13.232,-17.759 20.893,-13.58 7.66,4.179 14.625,10.446 16.018,11.143 1.392,0.696 5.92,2.786 8.357,1.392 0,0 -3.135,4.179 -5.92,9.054 0,0 -2.786,-5.571 -12.884,-7.66 -10.098,-2.09 -15.59,-3.992 -26.464,-0.349 z m -258.375,0.349 c -10.099,2.089 -12.884,7.66 -12.884,7.66 -2.786,-4.875 -5.92,-9.054 -5.92,-9.054 2.437,1.394 6.964,-0.696 8.357,-1.392 1.393,-0.697 8.357,-6.964 16.018,-11.143 7.66,-4.179 15.67,4.527 20.892,13.58 -10.873,-3.643 -16.366,-1.741 -26.463,0.349"
       style="fill:#ffffff;fill-opacity:1;fill-rule:nonzero;stroke:none;stroke-width:0.1"
       id="path668" />
    <path
       d="m 540.002,339.911 c -2.09,0 -6.965,-2.09 -10.214,-4.645 -3.251,-2.554 -13.698,-5.338 -29.25,-4.875 -15.555,0.464 -19.27,2.786 -25.073,4.875 -5.801,2.09 -22.751,7.661 -31.107,8.823 -8.358,1.161 -14.05,3.53 -19.732,6.964 -9.982,6.035 -27.161,18.571 -32.036,24.143 -4.875,5.571 -17.561,15.896 -32.731,26.231 -15.136,10.312 -17.505,12.37 -24.145,16.947 -6.361,4.387 -16.714,14.162 -25.767,30.411 -9.054,16.249 -8.589,36.679 -8.589,36.679 0,0 -0.929,-2.322 -2.321,-2.322 -1.394,0 -4.179,7.894 -5.339,13 -1.16,5.107 -1.162,24.144 1.856,34.59 3.019,10.446 8.59,15.089 9.518,15.089 0.928,0 0.928,-4.643 0.928,-4.643 0.233,2.555 1.394,0.232 1.394,0.232 0.232,3.946 0,10.215 0,10.215 -7.894,-7.661 -21.822,-11.375 -26.697,-12.304 -4.875,-0.93 -8.358,0.696 -12.304,1.625 -3.945,0.929 -8.589,0.929 -10.679,2.09 -2.088,1.16 -10.446,8.82 -15.321,16.25 -4.875,7.429 -3.25,15.088 3.715,27.159 6.964,12.072 23.446,18.107 29.25,19.269 5.804,1.161 7.428,-1.393 7.428,-1.393 -2.786,3.714 10.679,0.466 10.679,0.466 l -2.089,2.551 c -3.715,2.555 -11.607,13.001 -9.054,28.787 2.554,15.786 4.411,19.036 12.536,33.428 8.124,14.394 26.697,34.589 33.661,41.786 6.964,7.198 20.428,19.733 25.999,25.768 5.571,6.036 10.446,12.768 16.018,17.179 5.572,4.41 10.447,3.714 10.447,3.714 7.195,19.268 13.465,25.768 28.322,42.714 14.858,16.947 36.91,22.983 47.821,24.608 10.911,1.624 19.037,-1.161 19.037,-1.161 -1.624,0.697 -6.734,4.178 -6.501,9.286 0.232,5.106 5.382,9.692 10.446,11.607 5.457,2.064 11.376,2.785 11.376,2.785 -14.625,1.858 -14.858,12.304 -12.769,20.429 2.089,8.125 19.964,13.929 27.161,15.321 7.197,1.393 27.624,-0.464 34.126,-0.464 6.5,0 26.927,1.857 34.124,0.464 7.197,-1.392 25.072,-7.196 27.161,-15.321 2.089,-8.125 1.857,-18.571 -12.768,-20.429 0,0 5.918,-0.721 11.375,-2.785 5.064,-1.915 10.214,-6.501 10.446,-11.607 0.233,-5.108 -4.876,-8.589 -6.5,-9.286 0,0 8.126,2.785 19.036,1.161 10.911,-1.625 32.963,-7.661 47.822,-24.608 14.857,-16.946 21.127,-23.446 28.322,-42.714 0,0 4.875,0.696 10.446,-3.714 5.572,-4.411 10.447,-11.143 16.018,-17.179 5.571,-6.035 19.035,-18.57 25.999,-25.768 6.965,-7.197 25.537,-27.392 33.662,-41.786 8.124,-14.392 9.982,-17.642 12.535,-33.428 2.553,-15.786 -5.339,-26.232 -9.054,-28.787 l -2.088,-2.551 c 0,0 13.464,3.248 10.678,-0.466 0,0 1.624,2.554 7.429,1.393 5.804,-1.162 22.285,-7.197 29.25,-19.269 6.964,-12.071 8.59,-19.73 3.715,-27.159 -4.876,-7.43 -13.233,-15.09 -15.322,-16.25 -2.089,-1.161 -6.733,-1.161 -10.679,-2.09 -3.946,-0.929 -7.428,-2.555 -12.303,-1.625 -4.875,0.929 -18.804,4.643 -26.697,12.304 0,0 -0.233,-6.269 0,-10.215 0,0 1.16,2.323 1.393,-0.232 0,0 0.001,4.643 0.929,4.643 0.927,0 6.499,-4.643 9.517,-15.089 3.018,-10.446 3.017,-29.483 1.857,-34.59 -1.16,-5.106 -3.946,-13 -5.339,-13 -1.393,0 -2.322,2.322 -2.322,2.322 0,0 0.465,-20.43 -8.588,-36.679 -9.054,-16.249 -19.406,-26.024 -25.768,-30.411 -6.639,-4.577 -9.009,-6.635 -24.144,-16.947 -15.171,-10.335 -27.857,-20.66 -32.732,-26.231 -4.875,-5.572 -22.053,-18.108 -32.036,-24.143 -5.681,-3.434 -11.374,-5.803 -19.731,-6.964 -8.357,-1.162 -25.306,-6.733 -31.108,-8.823 -5.803,-2.089 -9.518,-4.411 -25.072,-4.875 -15.552,-0.463 -25.999,2.321 -29.25,4.875 -3.25,2.555 -8.125,4.645 -10.213,4.645 z m 115.955,316.642 c 5.223,-9.053 13.232,-17.759 20.893,-13.58 7.66,4.179 14.625,10.446 16.018,11.143 1.392,0.696 5.92,2.786 8.357,1.392 0,0 -3.135,4.179 -5.92,9.054 0,0 -2.786,-5.571 -12.884,-7.66 -10.098,-2.09 -15.59,-3.992 -26.464,-0.349 z m -258.375,0.349 c -10.099,2.089 -12.884,7.66 -12.884,7.66 -2.786,-4.875 -5.92,-9.054 -5.92,-9.054 2.437,1.394 6.964,-0.696 8.357,-1.392 1.393,-0.697 8.357,-6.964 16.018,-11.143 7.66,-4.179 15.67,4.527 20.892,13.58 -10.873,-3.643 -16.366,-1.741 -26.463,0.349 z"
       style="fill:none;stroke:#231f20;stroke-width:0.75;stroke-linecap:round;stroke-linejoin:round;stroke-miterlimit:4;stroke-dasharray:none;stroke-opacity:1"
       id="path670" />
    <path
       d="m 770.425,598.476 c -6.521,2.363 -23.584,7.238 -31.593,13.157 -8.009,5.92 -20.544,17.063 -22.634,18.456 -2.089,1.393 -7.313,5.572 -11.491,3.134 -4.179,-2.437 -2.089,-10.446 1.045,-17.411 3.133,-6.964 7.312,-18.804 15.669,-24.375 8.358,-5.571 16.714,-6.616 31.339,-1.741"
       style="fill:#d3d2d2;fill-opacity:1;fill-rule:nonzero;stroke:none;stroke-width:0.1"
       id="path672" />
    <path
       d="m 309.577,598.476 c 6.522,2.363 23.585,7.238 31.593,13.157 8.009,5.92 20.545,17.063 22.634,18.456 2.09,1.393 7.313,5.572 11.491,3.134 4.179,-2.437 2.09,-10.446 -1.045,-17.411 -3.133,-6.964 -7.312,-18.804 -15.668,-24.375 -8.358,-5.571 -16.715,-6.616 -31.34,-1.741"
       style="fill:#d3d2d2;fill-opacity:1;fill-rule:nonzero;stroke:none;stroke-width:0.1"
       id="path674" />
    <path
       d="m 540.002,638.098 c -2.787,0 -11.492,0.348 -19.849,-1.043 -8.358,-1.391 -16.366,-5.224 -27.509,-10.099 -11.143,-4.875 -20.893,-1.045 -26.812,1.044 -5.92,2.089 -10.795,-0.697 -13.581,-0.697 -2.786,0 -7.312,8.705 -7.661,14.974 -0.348,6.267 5.224,14.973 12.536,22.285 7.313,7.312 15.322,6.269 24.723,5.571 9.402,-0.696 44.224,-2.089 58.153,-2.089 13.928,0 48.75,1.393 58.151,2.089 9.402,0.698 17.411,1.741 24.723,-5.571 7.313,-7.312 12.884,-16.018 12.536,-22.285 -0.348,-6.269 -4.875,-14.974 -7.66,-14.974 -2.787,0 -7.662,2.786 -13.581,0.697 -5.919,-2.089 -15.669,-5.919 -26.812,-1.044 -11.144,4.875 -19.152,8.708 -27.51,10.099 -8.356,1.391 -17.062,1.043 -19.847,1.043"
       style="fill:#d3d2d2;fill-opacity:1;fill-rule:nonzero;stroke:none;stroke-width:0.1"
       id="path676" />
    <path
       d="m 815.788,585.517 c -1.742,1.394 -6.268,2.438 -11.492,3.135 -5.223,0.696 -7.661,-2.09 -10.098,-5.572 -2.438,-3.482 -3.83,0.348 -4.178,2.437 -0.349,2.09 -2.09,1.394 -3.135,-0.348 -1.044,-1.741 -1.74,-3.133 -3.83,-3.133 -2.089,0 -2.089,4.526 -1.741,7.312 0.349,2.785 2.438,6.268 5.571,9.75 3.135,3.482 -3.494,3.152 -4.543,2.089 -1.534,-1.632 -2.94,-3.474 -3.466,-4.875 -1.044,-2.785 -3.83,-17.062 -4.526,-21.241 -0.625,-3.747 -1.446,-15.505 -1.682,-21.578 8.067,12.547 21.182,6.605 24.664,3.123 3.482,-3.483 4.717,-4.764 5.572,-5.224 1.635,-0.88 5.049,-2.959 7.66,1.741 2.959,5.325 7.661,19.153 9.054,22.983 1.392,3.83 -2.089,8.008 -3.83,9.401"
       style="fill:#d3d2d2;fill-opacity:1;fill-rule:nonzero;stroke:none;stroke-width:0.1"
       id="path678" />
    <path
       d="m 683.699,888.697 c 8.356,5.571 19.034,7.892 32.963,5.571 13.928,-2.321 30.952,-7.231 39.465,-12.071 8.667,-4.927 30.178,-16.251 39.464,-21.358 9.286,-5.107 31.572,-20.892 41.785,-33.428 10.214,-12.537 22.286,-27.393 25.536,-31.572 3.251,-4.178 19.965,-27.857 24.144,-45.964 4.179,-18.107 6.035,-29.714 6.035,-32.964 0,-3.25 2.785,-5.572 4.179,-6.964 1.393,-1.393 9.751,-11.608 3.715,-22.75 -6.037,-11.144 -9.75,-20.895 -9.286,-28.323 0.464,-7.427 4.352,-25.825 0,-35.285 -4.314,-9.375 -9.576,-20.835 -20.43,-22.75 -13.092,-2.309 -18.049,-2.786 -32.499,8.357 -16.032,12.361 -17.179,27.856 -21.357,41.321 -4.179,13.465 -26,46.43 -31.572,52.465 -5.572,6.035 -8.357,10.678 -15.322,13 -6.964,2.322 -36.213,6.964 -31.106,26.929 0,0 -13.466,7.428 -25.537,21.357 -12.071,13.929 -30.177,36.215 -42.713,45.965 -12.537,9.75 -24.046,27.098 -27.394,37.142 -2.437,7.313 1.393,14.625 5.571,17.643 3.552,2.564 34.359,23.679 34.359,23.679"
       style="fill:#ffffff;fill-opacity:1;fill-rule:nonzero;stroke:none;stroke-width:0.1"
       id="path680" />
    <path
       d="m 683.699,888.697 c 8.356,5.571 19.034,7.892 32.963,5.571 13.928,-2.321 30.952,-7.231 39.465,-12.071 8.667,-4.927 30.178,-16.251 39.464,-21.358 9.286,-5.107 31.572,-20.892 41.785,-33.428 10.214,-12.537 22.286,-27.393 25.536,-31.572 3.251,-4.178 19.965,-27.857 24.144,-45.964 4.179,-18.107 6.035,-29.714 6.035,-32.964 0,-3.25 2.785,-5.572 4.179,-6.964 1.393,-1.393 9.751,-11.608 3.715,-22.75 -6.037,-11.144 -9.75,-20.895 -9.286,-28.323 0.464,-7.427 4.352,-25.825 0,-35.285 -4.314,-9.375 -9.576,-20.835 -20.43,-22.75 -13.092,-2.309 -18.049,-2.786 -32.499,8.357 -16.032,12.361 -17.179,27.856 -21.357,41.321 -4.179,13.465 -26,46.43 -31.572,52.465 -5.572,6.035 -8.357,10.678 -15.322,13 -6.964,2.322 -36.213,6.964 -31.106,26.929 0,0 -13.466,7.428 -25.537,21.357 -12.071,13.929 -30.177,36.215 -42.713,45.965 -12.537,9.75 -24.046,27.098 -27.394,37.142 -2.437,7.313 1.393,14.625 5.571,17.643 3.552,2.564 34.359,23.679 34.359,23.679 z"
       style="fill:none;stroke:#231f20;stroke-width:0.75;stroke-linecap:round;stroke-linejoin:round;stroke-miterlimit:4;stroke-dasharray:none;stroke-opacity:1"
       id="path682" />
    <path
       d="m 544.18,335.732 c 0,-2.309 -1.871,-4.179 -4.178,-4.179 -2.309,0 -4.179,1.87 -4.179,4.179 0,2.308 1.87,4.179 4.179,4.179 2.307,0 4.178,-1.871 4.178,-4.179"
       style="fill:#ffffff;fill-opacity:1;fill-rule:nonzero;stroke:none;stroke-width:0.1"
       id="path684" />
    <path
       d="m 544.18,335.732 c 0,-2.309 -1.871,-4.179 -4.178,-4.179 -2.309,0 -4.179,1.87 -4.179,4.179 0,2.308 1.87,4.179 4.179,4.179 2.307,0 4.178,-1.871 4.178,-4.179 z"
       style="fill:none;stroke:#231f20;stroke-width:0.5;stroke-linecap:butt;stroke-linejoin:miter;stroke-miterlimit:4;stroke-dasharray:none;stroke-opacity:1"
       id="path686" />
    <path
       d="m 540.847,339.825 c -0.845,6.598 4.029,15.407 16.101,20.049 12.071,4.643 34.461,6.767 43.642,3.018 11.376,-4.644 16.251,-20.196 2.244,-28.261"
       style="fill:none;stroke:#231f20;stroke-width:0.5;stroke-linecap:butt;stroke-linejoin:miter;stroke-miterlimit:4;stroke-dasharray:none;stroke-opacity:1"
       id="path688" />
    <path
       d="m 544.528,405.491 c 3.066,0.952 10.098,-4.528 17.759,-8.358 7.661,-3.83 19.848,-9.053 21.589,-13.232 0,0 -1.741,-3.134 -2.089,-5.223 0,0 -5.966,-1.4 -9.75,-2.09 -4.369,-0.796 -19.179,-4.436 -23.33,-5.92 -3.666,-1.309 -6.268,-2.785 -6.617,1.394 -0.347,4.179 -0.347,13.231 -0.347,17.062 0,3.831 -0.581,15.322 2.785,16.367 z"
       style="fill:none;stroke:#231f20;stroke-width:0.5;stroke-linecap:butt;stroke-linejoin:miter;stroke-miterlimit:4;stroke-dasharray:none;stroke-opacity:1"
       id="path690" />
    <path
       d="m 541.752,384.596 c 6.606,3.484 27.426,4.838 36.516,4.335"
       style="fill:none;stroke:#231f20;stroke-width:0.5;stroke-linecap:butt;stroke-linejoin:miter;stroke-miterlimit:4;stroke-dasharray:none;stroke-opacity:1"
       id="path692" />
    <path
       d="m 579.584,388.087 c 3.944,11.135 12.339,26.857 63.682,36.929"
       style="fill:none;stroke:#231f20;stroke-width:0.25;stroke-linecap:butt;stroke-linejoin:miter;stroke-miterlimit:4;stroke-dasharray:none;stroke-opacity:1"
       id="path694" />
    <path
       d="m 680.68,380.071 c 4.527,4.179 23.264,20.91 37.889,34.142"
       style="fill:none;stroke:#231f20;stroke-width:0.5;stroke-linecap:butt;stroke-linejoin:miter;stroke-miterlimit:4;stroke-dasharray:none;stroke-opacity:1"
       id="path696" />
    <path
       d="m 774.002,541.178 c 1.044,-5.455 0.696,-15.554 0.696,-19.384 0,-3.831 1.624,-30.526 3.946,-36.33"
       style="fill:none;stroke:#231f20;stroke-width:0.5;stroke-linecap:butt;stroke-linejoin:miter;stroke-miterlimit:4;stroke-dasharray:none;stroke-opacity:1"
       id="path698" />
    <path
       d="m 774.701,522.492 c 2.434,-0.698 8.006,-4.18 9.051,-4.18 1.044,0 2.612,1.846 2.44,3.175"
       style="fill:none;stroke:#231f20;stroke-width:0.5;stroke-linecap:butt;stroke-linejoin:miter;stroke-miterlimit:4;stroke-dasharray:none;stroke-opacity:1"
       id="path700" />
    <path
       d="m 772.609,541.41 c -1.741,-2.902 -6.965,-13.348 -6.965,-14.741 0,-1.393 0.681,-5.876 9.395,-12.166"
       style="fill:none;stroke:#231f20;stroke-width:0.5;stroke-linecap:butt;stroke-linejoin:miter;stroke-miterlimit:4;stroke-dasharray:none;stroke-opacity:1"
       id="path702" />
    <path
       d="M 797.216,604.321 C 792.283,599.794 787.93,591.786 786.538,589"
       style="fill:none;stroke:#231f20;stroke-width:0.5;stroke-linecap:butt;stroke-linejoin:miter;stroke-miterlimit:4;stroke-dasharray:none;stroke-opacity:1"
       id="path704" />
    <path
       d="m 774.729,577.219 c -0.379,-2.148 2.059,-11.898 12.505,-9.808 0,0 -12.707,-1.382 -14.362,-9.745"
       style="fill:#b2b1b1;fill-opacity:1;fill-rule:nonzero;stroke:none;stroke-width:0.1"
       id="path706" />
    <path
       d="m 666.752,647.848 c 0.534,-2.137 5.919,-1.392 9.75,-0.696 3.83,0.696 10.232,1.708 9.75,5.571 -0.349,2.785 -7.662,1.045 -11.143,0.348 -3.483,-0.697 -9.054,-2.438 -8.357,-5.223"
       style="fill:#ffffff;fill-opacity:1;fill-rule:nonzero;stroke:none;stroke-width:0.1"
       id="path708" />
    <path
       d="m 666.752,647.848 c 0.534,-2.137 5.919,-1.392 9.75,-0.696 3.83,0.696 10.232,1.708 9.75,5.571 -0.349,2.785 -7.662,1.045 -11.143,0.348 -3.483,-0.697 -9.054,-2.438 -8.357,-5.223 z"
       style="fill:none;stroke:#231f20;stroke-width:0.5;stroke-linecap:butt;stroke-linejoin:miter;stroke-miterlimit:4;stroke-dasharray:none;stroke-opacity:1"
       id="path710" />
    <path
       d="m 730.531,572.934 c -4.235,-3.434 -9.806,-20.845 -4.583,-38.256 5.223,-17.411 12.884,-28.205 16.366,-30.991"
       style="fill:none;stroke:#231f20;stroke-width:0.5;stroke-linecap:butt;stroke-linejoin:miter;stroke-miterlimit:4;stroke-dasharray:none;stroke-opacity:1"
       id="path712" />
    <path
       d="m 762.221,523.498 c 3.075,-1.007 7.95,-5.882 8.647,-16.329 0.696,-10.446 2.089,-26.464 -2.089,-37.258 -4.179,-10.795 -10.795,-24.376 -14.974,-30.644 -4.179,-6.267 -12.361,-16.191 -17.759,-19.151 -4.372,-2.398 -13.58,-5.572 -19.848,-6.269 -6.268,-0.696 -10.246,-0.696 -13.38,3.135"
       style="fill:none;stroke:#231f20;stroke-width:0.5;stroke-linecap:butt;stroke-linejoin:miter;stroke-miterlimit:4;stroke-dasharray:none;stroke-opacity:1"
       id="path714" />
    <path
       d="m 707.144,438.919 c 3.134,-0.348 9.998,4.64 13.929,8.009 4.875,4.179 8.357,10.794 10.098,15.322 1.742,4.526 3.831,20.544 3.831,20.544 5.571,10.447 7.312,20.893 7.312,20.893 1.741,2.786 19.5,19.5 23.33,22.982"
       style="fill:none;stroke:#231f20;stroke-width:0.5;stroke-linecap:butt;stroke-linejoin:miter;stroke-miterlimit:4;stroke-dasharray:none;stroke-opacity:1"
       id="path716" />
    <path
       d="m 730.978,521.168 c 0.541,-3.901 1.238,-13.302 2.282,-17.132 1.045,-3.831 3.094,-12.124 1.742,-21.242"
       style="fill:none;stroke:#231f20;stroke-width:0.5;stroke-linecap:butt;stroke-linejoin:miter;stroke-miterlimit:4;stroke-dasharray:none;stroke-opacity:1"
       id="path718" />
    <path
       d="m 692.868,436.482 c -3.483,7.312 -10.099,23.33 -12.188,28.205 -2.09,4.875 -0.696,12.187 4.875,16.366 5.571,4.179 7.313,16.699 7.313,20.893 0,2.437 3.134,5.571 6.267,5.571 3.134,0 7.313,-2.785 7.313,-9.401 0,-6.616 0,-19.849 -0.348,-23.679 -0.348,-3.83 0.696,-29.599 1.044,-35.518 0,0 -3.83,-5.919 -3.83,-12.536 0,0 -4.526,6.964 -10.446,10.099 z"
       style="fill:none;stroke:#231f20;stroke-width:0.5;stroke-linecap:butt;stroke-linejoin:miter;stroke-miterlimit:4;stroke-dasharray:none;stroke-opacity:1"
       id="path720" />
    <path
       d="m 692.868,436.482 c -4.179,2.437 -7.661,2.437 -10.447,0.696 -2.786,-1.741 -6.616,-4.875 -4.875,-9.054 1.742,-4.178 5.223,-13.928 5.919,-17.062 0.698,-3.134 1.045,-8.009 3.135,-8.009 2.089,0 9.75,3.134 12.188,5.919 1.848,2.112 5.919,8.01 4.526,17.411"
       style="fill:none;stroke:#231f20;stroke-width:0.5;stroke-linecap:butt;stroke-linejoin:miter;stroke-miterlimit:4;stroke-dasharray:none;stroke-opacity:1"
       id="path722" />
    <path
       d="m 657.78,423.331 c 0,-0.623 -0.501,-1.126 -1.127,-1.126 -0.623,0 -1.126,0.503 -1.126,1.126 0,0.623 0.503,1.127 1.126,1.127 0.626,0 1.127,-0.504 1.127,-1.127"
       style="fill:#231f20;fill-opacity:1;fill-rule:nonzero;stroke:none;stroke-width:0.1"
       id="path724" />
    <path
       d="m 666.136,423.679 c 0,-0.623 -0.5,-1.126 -1.126,-1.126 -0.623,0 -1.126,0.503 -1.126,1.126 0,0.623 0.503,1.126 1.126,1.126 0.626,0 1.126,-0.503 1.126,-1.126"
       style="fill:#231f20;fill-opacity:1;fill-rule:nonzero;stroke:none;stroke-width:0.1"
       id="path726" />
    <path
       d="m 667.53,417.063 c 0,-0.623 -0.501,-1.126 -1.127,-1.126 -0.623,0 -1.126,0.503 -1.126,1.126 0,0.623 0.503,1.126 1.126,1.126 0.626,0 1.127,-0.503 1.127,-1.126"
       style="fill:#231f20;fill-opacity:1;fill-rule:nonzero;stroke:none;stroke-width:0.1"
       id="path728" />
    <path
       d="m 676.235,420.545 c 0,-0.623 -0.501,-1.126 -1.126,-1.126 -0.623,0 -1.127,0.503 -1.127,1.126 0,0.623 0.504,1.126 1.127,1.126 0.625,0 1.126,-0.503 1.126,-1.126"
       style="fill:#231f20;fill-opacity:1;fill-rule:nonzero;stroke:none;stroke-width:0.1"
       id="path730" />
    <path
       d="m 690.164,432.384 c 0,-0.623 -0.501,-1.126 -1.126,-1.126 -0.623,0 -1.127,0.503 -1.127,1.126 0,0.623 0.504,1.127 1.127,1.127 0.625,0 1.126,-0.504 1.126,-1.127"
       style="fill:#231f20;fill-opacity:1;fill-rule:nonzero;stroke:none;stroke-width:0.1"
       id="path732" />
    <path
       d="m 693.646,428.903 c 0,-0.623 -0.501,-1.127 -1.127,-1.127 -0.623,0 -1.126,0.504 -1.126,1.127 0,0.622 0.503,1.126 1.126,1.126 0.626,0 1.127,-0.504 1.127,-1.126"
       style="fill:#231f20;fill-opacity:1;fill-rule:nonzero;stroke:none;stroke-width:0.1"
       id="path734" />
    <path
       d="m 695.386,422.634 c 0,-0.623 -0.5,-1.126 -1.126,-1.126 -0.623,0 -1.126,0.503 -1.126,1.126 0,0.623 0.503,1.127 1.126,1.127 0.626,0 1.126,-0.504 1.126,-1.127"
       style="fill:#231f20;fill-opacity:1;fill-rule:nonzero;stroke:none;stroke-width:0.1"
       id="path736" />
    <path
       d="m 695.039,408.706 c 0,-0.624 -0.501,-1.126 -1.126,-1.126 -0.623,0 -1.127,0.502 -1.127,1.126 0,0.623 0.504,1.126 1.127,1.126 0.625,0 1.126,-0.503 1.126,-1.126"
       style="fill:#231f20;fill-opacity:1;fill-rule:nonzero;stroke:none;stroke-width:0.1"
       id="path738" />
    <path
       d="m 618.78,587.34 c 0,-0.623 -0.501,-1.126 -1.127,-1.126 -0.623,0 -1.126,0.503 -1.126,1.126 0,0.623 0.503,1.126 1.126,1.126 0.626,0 1.127,-0.503 1.127,-1.126"
       style="fill:#231f20;fill-opacity:1;fill-rule:nonzero;stroke:none;stroke-width:0.1"
       id="path740" />
    <path
       d="m 622.61,584.554 c 0,-0.623 -0.501,-1.126 -1.126,-1.126 -0.623,0 -1.127,0.503 -1.127,1.126 0,0.623 0.504,1.127 1.127,1.127 0.625,0 1.126,-0.504 1.126,-1.127"
       style="fill:#231f20;fill-opacity:1;fill-rule:nonzero;stroke:none;stroke-width:0.1"
       id="path742" />
    <path
       d="m 624.351,578.983 c 0,-0.623 -0.501,-1.126 -1.127,-1.126 -0.622,0 -1.126,0.503 -1.126,1.126 0,0.623 0.504,1.126 1.126,1.126 0.626,0 1.127,-0.503 1.127,-1.126"
       style="fill:#231f20;fill-opacity:1;fill-rule:nonzero;stroke:none;stroke-width:0.1"
       id="path744" />
    <path
       d="m 621.565,575.849 c 0,-0.623 -0.5,-1.126 -1.126,-1.126 -0.623,0 -1.126,0.503 -1.126,1.126 0,0.623 0.503,1.126 1.126,1.126 0.626,0 1.126,-0.503 1.126,-1.126"
       style="fill:#231f20;fill-opacity:1;fill-rule:nonzero;stroke:none;stroke-width:0.1"
       id="path746" />
    <path
       d="m 620.869,578.983 c 0,-0.623 -0.501,-1.126 -1.126,-1.126 -0.623,0 -1.127,0.503 -1.127,1.126 0,0.623 0.504,1.126 1.127,1.126 0.625,0 1.126,-0.503 1.126,-1.126"
       style="fill:#231f20;fill-opacity:1;fill-rule:nonzero;stroke:none;stroke-width:0.1"
       id="path748" />
    <path
       d="m 635.064,519.357 c -2.786,-3.831 -6.032,-14.217 -3.482,-24.724 2.901,-11.955 9.866,-25.652 16.714,-28.901 6.37,-3.023 26.883,-4.791 31.897,7.181"
       style="fill:none;stroke:#231f20;stroke-width:0.25;stroke-linecap:butt;stroke-linejoin:miter;stroke-miterlimit:4;stroke-dasharray:none;stroke-opacity:1"
       id="path750" />
    <path
       d="m 657.002,522.142 c -5.572,1.394 -15.67,0.349 -21.938,-2.785"
       style="fill:none;stroke:#231f20;stroke-width:0.5;stroke-linecap:butt;stroke-linejoin:miter;stroke-miterlimit:4;stroke-dasharray:none;stroke-opacity:1"
       id="path752" />
    <path
       d="m 635.015,618.147 c -1.409,-0.292 -4.13,-1.639 -0.996,-1.986 3.134,-0.349 16.366,-2.438 24.027,-4.179 7.661,-1.741 21.938,-6.268 28.554,-11.143 6.615,-4.875 10.098,-9.75 13.58,-12.536 3.483,-2.786 12.535,-9.75 14.277,-8.357"
       style="fill:none;stroke:#231f20;stroke-width:0.5;stroke-linecap:butt;stroke-linejoin:miter;stroke-miterlimit:4;stroke-dasharray:none;stroke-opacity:1"
       id="path754" />
    <path
       d="m 695.653,556.964 c -5.223,-3.134 -18.107,2.786 -24.723,6.268 -6.616,3.482 -20.196,9.054 -29.25,13.232 -9.054,4.178 -17.062,12.884 -20.545,17.063 -3.482,4.178 1.741,8.356 5.224,8.705"
       style="fill:none;stroke:#231f20;stroke-width:0.5;stroke-linecap:butt;stroke-linejoin:miter;stroke-miterlimit:4;stroke-dasharray:none;stroke-opacity:1"
       id="path756" />
    <path
       d="m 626.359,602.232 c 3.481,-3.134 14.625,-11.491 26.464,-13.929 11.84,-2.437 16.017,-1.741 21.937,-8.357 5.92,-6.616 10.447,-13.232 13.233,-16.018 1.822,-1.822 5.013,-4.896 7.66,-6.964"
       style="fill:none;stroke:#231f20;stroke-width:0.5;stroke-linecap:butt;stroke-linejoin:miter;stroke-miterlimit:4;stroke-dasharray:none;stroke-opacity:1"
       id="path758" />
    <path
       d="m 602.68,600.142 c 5.919,-1.74 8.705,-5.223 11.491,-10.446 2.786,-5.223 4.875,-13.929 2.438,-19.5 -2.438,-5.572 -4.875,-10.098 -11.144,-14.973 -6.267,-4.875 -14.276,-10.099 -23.678,-12.884 -9.402,-2.786 -12.535,-4.876 -18.455,-5.223 -5.92,-0.349 -9.402,0 -12.537,0.696 -3.133,0.696 -5.919,1.393 -7.312,-2.438 -1.393,-3.83 -1.393,-15.321 1.045,-16.017 2.437,-0.696 14.277,3.481 18.107,6.616 3.83,3.134 7.656,7.992 9.225,13.05"
       style="fill:none;stroke:#231f20;stroke-width:0.5;stroke-linecap:butt;stroke-linejoin:miter;stroke-miterlimit:4;stroke-dasharray:none;stroke-opacity:1"
       id="path760" />
    <path
       d="m 612.363,592.787 c 5.986,-2.046 13.996,-7.27 14.344,-12.841 0.348,-5.572 0.854,-17.62 -14.373,-17.69"
       style="fill:none;stroke:#231f20;stroke-width:0.5;stroke-linecap:butt;stroke-linejoin:miter;stroke-miterlimit:4;stroke-dasharray:none;stroke-opacity:1"
       id="path762" />
    <path
       d="m 729.779,572.633 c 4.526,1.394 20.892,16.019 22.981,17.063 l 17.665,8.78 c 2.09,1.045 8.104,3.06 8.451,-2.164"
       style="fill:none;stroke:#231f20;stroke-width:0.5;stroke-linecap:butt;stroke-linejoin:miter;stroke-miterlimit:4;stroke-dasharray:none;stroke-opacity:1"
       id="path764" />
    <path
       d="m 606.162,608.5 c 5.92,2.437 24.723,11.143 42.831,11.143 10.795,0 37.608,-14.993 42.133,-17.76 6.268,-3.83 18.108,-16.017 23.331,-21.937 5.223,-5.919 10.795,-8.705 15.322,-7.313"
       style="fill:none;stroke:#231f20;stroke-width:0.75;stroke-linecap:round;stroke-linejoin:round;stroke-miterlimit:4;stroke-dasharray:none;stroke-opacity:1"
       id="path766" />
    <path
       d="m 786.538,604.787 c -2.09,-1.163 -6.617,-5.689 -7.662,-8.475 -1.044,-2.785 -3.83,-17.062 -4.526,-21.241 -0.696,-4.179 -1.64,-18.341 -1.741,-23.446"
       style="fill:none;stroke:#231f20;stroke-width:0.5;stroke-linecap:butt;stroke-linejoin:miter;stroke-miterlimit:4;stroke-dasharray:none;stroke-opacity:1"
       id="path768" />
    <path
       d="m 264.215,585.517 c 1.741,1.394 6.268,2.438 11.491,3.135 5.223,0.696 7.661,-2.09 10.098,-5.572 2.438,-3.482 3.83,0.348 4.179,2.437 0.348,2.09 2.089,1.394 3.134,-0.348 1.045,-1.741 1.741,-3.133 3.83,-3.133 2.09,0 2.09,4.526 1.741,7.312 -0.348,2.785 -2.438,6.268 -5.571,9.75 -3.134,3.482 3.494,3.152 4.543,2.089 1.534,-1.632 2.941,-3.474 3.466,-4.875 1.044,-2.785 3.831,-17.062 4.527,-21.241 0.624,-3.747 1.445,-15.505 1.682,-21.578 -8.067,12.547 -21.182,6.605 -24.665,3.123 -3.482,-3.483 -4.717,-4.764 -5.571,-5.224 -1.635,-0.88 -5.05,-2.959 -7.661,1.741 -2.958,5.325 -7.66,19.153 -9.054,22.983 -1.392,3.83 2.09,8.008 3.831,9.401"
       style="fill:#d3d2d2;fill-opacity:1;fill-rule:nonzero;stroke:none;stroke-width:0.1"
       id="path770" />
    <path
       d="m 396.304,888.697 c -8.357,5.571 -19.035,7.892 -32.964,5.571 -13.928,-2.321 -30.951,-7.231 -39.464,-12.071 -8.666,-4.927 -30.178,-16.251 -39.464,-21.358 -9.286,-5.107 -31.573,-20.892 -41.786,-33.428 -10.214,-12.537 -22.285,-27.393 -25.536,-31.572 -3.251,-4.178 -19.964,-27.857 -24.143,-45.964 -4.179,-18.107 -6.035,-29.714 -6.035,-32.964 0,-3.25 -2.786,-5.572 -4.179,-6.964 -1.394,-1.393 -9.752,-11.608 -3.715,-22.75 6.036,-11.144 9.75,-20.895 9.286,-28.323 -0.464,-7.427 -4.352,-25.825 0,-35.285 4.314,-9.375 9.576,-20.835 20.429,-22.75 13.092,-2.309 18.049,-2.786 32.5,8.357 16.031,12.361 17.178,27.856 21.356,41.321 4.179,13.465 26.001,46.43 31.573,52.465 5.571,6.035 8.357,10.678 15.321,13 6.964,2.322 36.213,6.964 31.106,26.929 0,0 13.467,7.428 25.537,21.357 12.071,13.929 30.178,36.215 42.713,45.965 12.537,9.75 24.046,27.098 27.394,37.142 2.437,7.313 -1.393,14.625 -5.571,17.643 -3.552,2.564 -34.358,23.679 -34.358,23.679"
       style="fill:#ffffff;fill-opacity:1;fill-rule:nonzero;stroke:none;stroke-width:0.1"
       id="path772" />
    <path
       d="m 396.304,888.697 c -8.357,5.571 -19.035,7.892 -32.964,5.571 -13.928,-2.321 -30.951,-7.231 -39.464,-12.071 -8.666,-4.927 -30.178,-16.251 -39.464,-21.358 -9.286,-5.107 -31.573,-20.892 -41.786,-33.428 -10.214,-12.537 -22.285,-27.393 -25.536,-31.572 -3.251,-4.178 -19.964,-27.857 -24.143,-45.964 -4.179,-18.107 -6.035,-29.714 -6.035,-32.964 0,-3.25 -2.786,-5.572 -4.179,-6.964 -1.394,-1.393 -9.752,-11.608 -3.715,-22.75 6.036,-11.144 9.75,-20.895 9.286,-28.323 -0.464,-7.427 -4.352,-25.825 0,-35.285 4.314,-9.375 9.576,-20.835 20.429,-22.75 13.092,-2.309 18.049,-2.786 32.5,8.357 16.031,12.361 17.178,27.856 21.356,41.321 4.179,13.465 26.001,46.43 31.573,52.465 5.571,6.035 8.357,10.678 15.321,13 6.964,2.322 36.213,6.964 31.106,26.929 0,0 13.467,7.428 25.537,21.357 12.071,13.929 30.178,36.215 42.713,45.965 12.537,9.75 24.046,27.098 27.394,37.142 2.437,7.313 -1.393,14.625 -5.571,17.643 -3.552,2.564 -34.358,23.679 -34.358,23.679 z"
       style="fill:none;stroke:#231f20;stroke-width:0.75;stroke-linecap:round;stroke-linejoin:round;stroke-miterlimit:4;stroke-dasharray:none;stroke-opacity:1"
       id="path774" />
    <path
       d="m 539.155,339.825 c 0.847,6.598 -4.029,15.407 -16.1,20.049 -12.071,4.643 -34.462,6.767 -43.643,3.018 -11.375,-4.644 -16.25,-20.196 -2.244,-28.261"
       style="fill:none;stroke:#231f20;stroke-width:0.5;stroke-linecap:butt;stroke-linejoin:miter;stroke-miterlimit:4;stroke-dasharray:none;stroke-opacity:1"
       id="path776" />
    <path
       d="m 535.474,405.491 c -3.065,0.952 -10.098,-4.528 -17.759,-8.358 -7.66,-3.83 -19.848,-9.053 -21.589,-13.232 0,0 1.741,-3.134 2.089,-5.223 0,0 5.966,-1.4 9.75,-2.09 4.369,-0.796 19.179,-4.436 23.33,-5.92 3.666,-1.309 6.269,-2.785 6.617,1.394 0.348,4.179 0.348,13.231 0.348,17.062 0,3.831 0.581,15.322 -2.786,16.367 z"
       style="fill:none;stroke:#231f20;stroke-width:0.5;stroke-linecap:butt;stroke-linejoin:miter;stroke-miterlimit:4;stroke-dasharray:none;stroke-opacity:1"
       id="path778" />
    <path
       d="m 538.25,384.596 c -6.606,3.484 -27.425,4.838 -36.516,4.335"
       style="fill:none;stroke:#231f20;stroke-width:0.5;stroke-linecap:butt;stroke-linejoin:miter;stroke-miterlimit:4;stroke-dasharray:none;stroke-opacity:1"
       id="path780" />
    <path
       d="m 500.418,388.087 c -3.944,11.135 -12.339,26.857 -63.681,36.929"
       style="fill:none;stroke:#231f20;stroke-width:0.25;stroke-linecap:butt;stroke-linejoin:miter;stroke-miterlimit:4;stroke-dasharray:none;stroke-opacity:1"
       id="path782" />
    <path
       d="m 399.323,380.071 c -4.528,4.179 -23.265,20.91 -37.89,34.142"
       style="fill:none;stroke:#231f20;stroke-width:0.5;stroke-linecap:butt;stroke-linejoin:miter;stroke-miterlimit:4;stroke-dasharray:none;stroke-opacity:1"
       id="path784" />
    <path
       d="m 306,541.178 c -1.043,-5.455 -0.696,-15.554 -0.696,-19.384 0,-3.831 -1.624,-30.526 -3.946,-36.33"
       style="fill:none;stroke:#231f20;stroke-width:0.5;stroke-linecap:butt;stroke-linejoin:miter;stroke-miterlimit:4;stroke-dasharray:none;stroke-opacity:1"
       id="path786" />
    <path
       d="m 305.301,522.492 c -2.434,-0.698 -8.006,-4.18 -9.051,-4.18 -1.044,0 -2.611,1.846 -2.44,3.175"
       style="fill:none;stroke:#231f20;stroke-width:0.5;stroke-linecap:butt;stroke-linejoin:miter;stroke-miterlimit:4;stroke-dasharray:none;stroke-opacity:1"
       id="path788" />
    <path
       d="m 307.394,541.41 c 1.74,-2.902 6.964,-13.348 6.964,-14.741 0,-1.393 -0.68,-5.876 -9.394,-12.166"
       style="fill:none;stroke:#231f20;stroke-width:0.5;stroke-linecap:butt;stroke-linejoin:miter;stroke-miterlimit:4;stroke-dasharray:none;stroke-opacity:1"
       id="path790" />
    <path
       d="m 282.786,604.321 c 4.933,-4.527 9.286,-12.535 10.679,-15.321"
       style="fill:none;stroke:#231f20;stroke-width:0.5;stroke-linecap:butt;stroke-linejoin:miter;stroke-miterlimit:4;stroke-dasharray:none;stroke-opacity:1"
       id="path792" />
    <path
       d="m 305.273,577.219 c 0.38,-2.148 -2.058,-11.898 -12.505,-9.808 0,0 12.708,-1.382 14.363,-9.745"
       style="fill:#b2b1b1;fill-opacity:1;fill-rule:nonzero;stroke:none;stroke-width:0.1"
       id="path794" />
    <path
       d="m 491.484,847.839 c 7.196,-0.927 17.526,0.929 22.053,1.625 4.527,0.697 19.152,2.09 26.465,2.09 7.312,0 21.937,-1.393 26.463,-2.09 4.528,-0.696 14.857,-2.552 22.054,-1.625"
       style="fill:none;stroke:#231f20;stroke-width:0.5;stroke-linecap:butt;stroke-linejoin:miter;stroke-miterlimit:4;stroke-dasharray:none;stroke-opacity:1"
       id="path796" />
    <path
       d="m 520.56,782.172 c 6.327,2.352 17.352,-0.609 19.442,-0.609 2.088,0 13.113,2.961 19.441,0.609"
       style="fill:none;stroke:#231f20;stroke-width:0.5;stroke-linecap:butt;stroke-linejoin:miter;stroke-miterlimit:4;stroke-dasharray:none;stroke-opacity:1"
       id="path798" />
    <path
       d="m 499.472,740.239 c 10.659,-0.582 31.476,-0.811 40.53,-0.811 9.053,0 29.87,0.229 40.528,0.811"
       style="fill:none;stroke:#231f20;stroke-width:0.5;stroke-linecap:butt;stroke-linejoin:miter;stroke-miterlimit:4;stroke-dasharray:none;stroke-opacity:1"
       id="path800" />
    <path
       d="m 453.374,679.612 c 25.805,5.657 77.921,6.888 86.628,6.888 8.705,0 60.821,-1.231 86.627,-6.888"
       style="fill:none;stroke:#231f20;stroke-width:0.5;stroke-linecap:butt;stroke-linejoin:miter;stroke-miterlimit:4;stroke-dasharray:none;stroke-opacity:1"
       id="path802" />
    <path
       d="m 576.564,655.508 c -4.875,0.349 -28.554,-2.437 -36.562,-2.437 -8.009,0 -31.688,2.786 -36.563,2.437 -4.875,-0.347 -18.804,-1.392 -18.804,-4.875 0,-3.481 48.402,-2.785 55.367,-2.785 6.963,0 55.366,-0.696 55.366,2.785 0,3.483 -13.929,4.528 -18.804,4.875"
       style="fill:#b2b1b1;fill-opacity:1;fill-rule:nonzero;stroke:none;stroke-width:0.1"
       id="path804" />
    <path
       d="m 413.25,647.848 c -0.534,-2.137 -5.918,-1.392 -9.75,-0.696 -3.83,0.696 -10.232,1.708 -9.75,5.571 0.349,2.785 7.662,1.045 11.144,0.348 3.482,-0.697 9.054,-2.438 8.356,-5.223"
       style="fill:#ffffff;fill-opacity:1;fill-rule:nonzero;stroke:none;stroke-width:0.1"
       id="path806" />
    <path
       d="m 413.25,647.848 c -0.534,-2.137 -5.918,-1.392 -9.75,-0.696 -3.83,0.696 -10.232,1.708 -9.75,5.571 0.349,2.785 7.662,1.045 11.144,0.348 3.482,-0.697 9.054,-2.438 8.356,-5.223 z"
       style="fill:none;stroke:#231f20;stroke-width:0.5;stroke-linecap:butt;stroke-linejoin:miter;stroke-miterlimit:4;stroke-dasharray:none;stroke-opacity:1"
       id="path808" />
    <path
       d="m 572.385,599.446 c -8.009,-2.438 -24.723,-4.875 -32.383,-4.875 -7.662,0 -24.376,2.437 -32.384,4.875 -8.01,2.437 -27.858,10.098 -33.778,9.054 0,0 0.697,-5.92 3.483,-8.358 2.785,-2.437 4.526,-3.481 11.491,-3.83 6.964,-0.348 24.026,-3.134 29.25,-3.83 2.611,-0.349 7.399,-0.436 11.491,-1.393 4.091,-0.958 7.487,-2.786 10.447,-2.786 2.959,0 6.354,1.828 10.446,2.786 4.092,0.957 8.879,1.044 11.491,1.393 5.223,0.696 22.285,3.482 29.25,3.83 6.964,0.349 8.705,1.393 11.491,3.83 2.785,2.438 3.482,8.358 3.482,8.358 -5.919,1.044 -25.768,-6.617 -33.777,-9.054"
       style="fill:#706d6e;fill-opacity:1;fill-rule:nonzero;stroke:none;stroke-width:0.1"
       id="path810" />
    <path
       d="m 572.385,599.446 c -8.009,-2.438 -24.723,-4.875 -32.383,-4.875 -7.662,0 -24.376,2.437 -32.384,4.875 -8.01,2.437 -27.858,10.098 -33.778,9.054 0,0 0.697,-5.92 3.483,-8.358 2.785,-2.437 4.526,-3.481 11.491,-3.83 6.964,-0.348 24.026,-3.134 29.25,-3.83 2.611,-0.349 7.399,-0.436 11.491,-1.393 4.091,-0.958 7.487,-2.786 10.447,-2.786 2.959,0 6.354,1.828 10.446,2.786 4.092,0.957 8.879,1.044 11.491,1.393 5.223,0.696 22.285,3.482 29.25,3.83 6.964,0.349 8.705,1.393 11.491,3.83 2.785,2.438 3.482,8.358 3.482,8.358 -5.919,1.044 -25.768,-6.617 -33.777,-9.054 z"
       style="fill:none;stroke:#231f20;stroke-width:0.75;stroke-linecap:round;stroke-linejoin:round;stroke-miterlimit:4;stroke-dasharray:none;stroke-opacity:1"
       id="path812" />
    <path
       d="m 349.472,572.934 c 4.235,-3.434 9.806,-20.845 4.582,-38.256 -5.222,-17.411 -12.884,-28.205 -16.366,-30.991"
       style="fill:none;stroke:#231f20;stroke-width:0.5;stroke-linecap:butt;stroke-linejoin:miter;stroke-miterlimit:4;stroke-dasharray:none;stroke-opacity:1"
       id="path814" />
    <path
       d="m 317.782,523.498 c -3.075,-1.007 -7.95,-5.882 -8.648,-16.329 -0.696,-10.446 -2.089,-26.464 2.09,-37.258 4.179,-10.795 10.795,-24.376 14.973,-30.644 4.179,-6.267 12.362,-16.191 17.76,-19.151 4.371,-2.398 13.58,-5.572 19.847,-6.269 6.269,-0.696 10.247,-0.696 13.381,3.135"
       style="fill:none;stroke:#231f20;stroke-width:0.5;stroke-linecap:butt;stroke-linejoin:miter;stroke-miterlimit:4;stroke-dasharray:none;stroke-opacity:1"
       id="path816" />
    <path
       d="m 372.858,438.919 c -3.134,-0.348 -9.997,4.64 -13.929,8.009 -4.875,4.179 -8.357,10.794 -10.097,15.322 -1.742,4.526 -3.832,20.544 -3.832,20.544 -5.571,10.447 -7.312,20.893 -7.312,20.893 -1.741,2.786 -19.5,19.5 -23.33,22.982"
       style="fill:none;stroke:#231f20;stroke-width:0.5;stroke-linecap:butt;stroke-linejoin:miter;stroke-miterlimit:4;stroke-dasharray:none;stroke-opacity:1"
       id="path818" />
    <path
       d="m 349.024,521.168 c -0.541,-3.901 -1.237,-13.302 -2.282,-17.132 -1.045,-3.831 -3.093,-12.124 -1.742,-21.242"
       style="fill:none;stroke:#231f20;stroke-width:0.5;stroke-linecap:butt;stroke-linejoin:miter;stroke-miterlimit:4;stroke-dasharray:none;stroke-opacity:1"
       id="path820" />
    <path
       d="m 387.135,436.482 c 3.482,7.312 10.098,23.33 12.188,28.205 2.089,4.875 0.696,12.187 -4.875,16.366 -5.572,4.179 -7.313,16.699 -7.313,20.893 0,2.437 -3.135,5.571 -6.268,5.571 -3.134,0 -7.313,-2.785 -7.313,-9.401 0,-6.616 0,-19.849 0.349,-23.679 0.347,-3.83 -0.696,-29.599 -1.045,-35.518 0,0 3.83,-5.919 3.83,-12.536 0,0 4.527,6.964 10.447,10.099 z"
       style="fill:none;stroke:#231f20;stroke-width:0.5;stroke-linecap:butt;stroke-linejoin:miter;stroke-miterlimit:4;stroke-dasharray:none;stroke-opacity:1"
       id="path822" />
    <path
       d="m 387.135,436.482 c 4.178,2.437 7.66,2.437 10.447,0.696 2.785,-1.741 6.616,-4.875 4.875,-9.054 -1.742,-4.178 -5.224,-13.928 -5.92,-17.062 -0.697,-3.134 -1.045,-8.009 -3.134,-8.009 -2.09,0 -9.75,3.134 -12.188,5.919 -1.848,2.112 -5.92,8.01 -4.527,17.411"
       style="fill:none;stroke:#231f20;stroke-width:0.5;stroke-linecap:butt;stroke-linejoin:miter;stroke-miterlimit:4;stroke-dasharray:none;stroke-opacity:1"
       id="path824" />
    <path
       d="m 422.223,423.331 c 0,-0.623 0.5,-1.126 1.126,-1.126 0.623,0 1.126,0.503 1.126,1.126 0,0.623 -0.503,1.127 -1.126,1.127 -0.626,0 -1.126,-0.504 -1.126,-1.127"
       style="fill:#231f20;fill-opacity:1;fill-rule:nonzero;stroke:none;stroke-width:0.1"
       id="path826" />
    <path
       d="m 413.866,423.679 c 0,-0.623 0.501,-1.126 1.126,-1.126 0.623,0 1.127,0.503 1.127,1.126 0,0.623 -0.504,1.126 -1.127,1.126 -0.625,0 -1.126,-0.503 -1.126,-1.126"
       style="fill:#231f20;fill-opacity:1;fill-rule:nonzero;stroke:none;stroke-width:0.1"
       id="path828" />
    <path
       d="m 412.473,417.063 c 0,-0.623 0.5,-1.126 1.126,-1.126 0.623,0 1.126,0.503 1.126,1.126 0,0.623 -0.503,1.126 -1.126,1.126 -0.626,0 -1.126,-0.503 -1.126,-1.126"
       style="fill:#231f20;fill-opacity:1;fill-rule:nonzero;stroke:none;stroke-width:0.1"
       id="path830" />
    <path
       d="m 403.767,420.545 c 0,-0.623 0.501,-1.126 1.127,-1.126 0.623,0 1.126,0.503 1.126,1.126 0,0.623 -0.503,1.126 -1.126,1.126 -0.626,0 -1.127,-0.503 -1.127,-1.126"
       style="fill:#231f20;fill-opacity:1;fill-rule:nonzero;stroke:none;stroke-width:0.1"
       id="path832" />
    <path
       d="m 389.839,432.384 c 0,-0.623 0.5,-1.126 1.126,-1.126 0.623,0 1.126,0.503 1.126,1.126 0,0.623 -0.503,1.127 -1.126,1.127 -0.626,0 -1.126,-0.504 -1.126,-1.127"
       style="fill:#231f20;fill-opacity:1;fill-rule:nonzero;stroke:none;stroke-width:0.1"
       id="path834" />
    <path
       d="m 386.357,428.903 c 0,-0.623 0.5,-1.127 1.126,-1.127 0.623,0 1.126,0.504 1.126,1.127 0,0.622 -0.503,1.126 -1.126,1.126 -0.626,0 -1.126,-0.504 -1.126,-1.126"
       style="fill:#231f20;fill-opacity:1;fill-rule:nonzero;stroke:none;stroke-width:0.1"
       id="path836" />
    <path
       d="m 384.616,422.634 c 0,-0.623 0.501,-1.126 1.126,-1.126 0.623,0 1.127,0.503 1.127,1.126 0,0.623 -0.504,1.127 -1.127,1.127 -0.625,0 -1.126,-0.504 -1.126,-1.127"
       style="fill:#231f20;fill-opacity:1;fill-rule:nonzero;stroke:none;stroke-width:0.1"
       id="path838" />
    <path
       d="m 384.964,408.706 c 0,-0.624 0.5,-1.126 1.126,-1.126 0.623,0 1.126,0.502 1.126,1.126 0,0.623 -0.503,1.126 -1.126,1.126 -0.626,0 -1.126,-0.503 -1.126,-1.126"
       style="fill:#231f20;fill-opacity:1;fill-rule:nonzero;stroke:none;stroke-width:0.1"
       id="path840" />
    <path
       d="m 461.223,587.34 c 0,-0.623 0.5,-1.126 1.126,-1.126 0.623,0 1.126,0.503 1.126,1.126 0,0.623 -0.503,1.126 -1.126,1.126 -0.626,0 -1.126,-0.503 -1.126,-1.126"
       style="fill:#231f20;fill-opacity:1;fill-rule:nonzero;stroke:none;stroke-width:0.1"
       id="path842" />
    <path
       d="m 457.393,584.554 c 0,-0.623 0.5,-1.126 1.126,-1.126 0.623,0 1.126,0.503 1.126,1.126 0,0.623 -0.503,1.127 -1.126,1.127 -0.626,0 -1.126,-0.504 -1.126,-1.127"
       style="fill:#231f20;fill-opacity:1;fill-rule:nonzero;stroke:none;stroke-width:0.1"
       id="path844" />
    <path
       d="m 455.652,578.983 c 0,-0.623 0.5,-1.126 1.126,-1.126 0.623,0 1.126,0.503 1.126,1.126 0,0.623 -0.503,1.126 -1.126,1.126 -0.626,0 -1.126,-0.503 -1.126,-1.126"
       style="fill:#231f20;fill-opacity:1;fill-rule:nonzero;stroke:none;stroke-width:0.1"
       id="path846" />
    <path
       d="m 458.437,575.849 c 0,-0.623 0.501,-1.126 1.127,-1.126 0.622,0 1.126,0.503 1.126,1.126 0,0.623 -0.504,1.126 -1.126,1.126 -0.626,0 -1.127,-0.503 -1.127,-1.126"
       style="fill:#231f20;fill-opacity:1;fill-rule:nonzero;stroke:none;stroke-width:0.1"
       id="path848" />
    <path
       d="m 459.133,578.983 c 0,-0.623 0.501,-1.126 1.127,-1.126 0.623,0 1.126,0.503 1.126,1.126 0,0.623 -0.503,1.126 -1.126,1.126 -0.626,0 -1.127,-0.503 -1.127,-1.126"
       style="fill:#231f20;fill-opacity:1;fill-rule:nonzero;stroke:none;stroke-width:0.1"
       id="path850" />
    <path
       d="m 444.939,519.357 c 2.785,-3.831 6.032,-14.217 3.481,-24.724 -2.901,-11.955 -9.865,-25.652 -16.713,-28.901 -6.371,-3.023 -26.884,-4.791 -31.898,7.181"
       style="fill:none;stroke:#231f20;stroke-width:0.25;stroke-linecap:butt;stroke-linejoin:miter;stroke-miterlimit:4;stroke-dasharray:none;stroke-opacity:1"
       id="path852" />
    <path
       d="m 423,522.142 c 5.573,1.394 15.67,0.349 21.939,-2.785"
       style="fill:none;stroke:#231f20;stroke-width:0.5;stroke-linecap:butt;stroke-linejoin:miter;stroke-miterlimit:4;stroke-dasharray:none;stroke-opacity:1"
       id="path854" />
    <path
       d="m 444.988,618.147 c 1.409,-0.292 4.129,-1.639 0.995,-1.986 -3.134,-0.349 -16.366,-2.438 -24.026,-4.179 -7.662,-1.741 -21.938,-6.268 -28.554,-11.143 -6.616,-4.875 -10.099,-9.75 -13.58,-12.536 -3.483,-2.786 -12.536,-9.75 -14.278,-8.357"
       style="fill:none;stroke:#231f20;stroke-width:0.5;stroke-linecap:butt;stroke-linejoin:miter;stroke-miterlimit:4;stroke-dasharray:none;stroke-opacity:1"
       id="path856" />
    <path
       d="m 384.349,556.964 c 5.224,-3.134 18.108,2.786 24.724,6.268 6.615,3.482 20.196,9.054 29.25,13.232 9.053,4.178 17.062,12.884 20.544,17.063 3.482,4.178 -1.741,8.356 -5.223,8.705"
       style="fill:none;stroke:#231f20;stroke-width:0.5;stroke-linecap:butt;stroke-linejoin:miter;stroke-miterlimit:4;stroke-dasharray:none;stroke-opacity:1"
       id="path858" />
    <path
       d="m 453.644,602.232 c -3.482,-3.134 -14.625,-11.491 -26.465,-13.929 -11.839,-2.437 -16.017,-1.741 -21.937,-8.357 -5.919,-6.616 -10.447,-13.232 -13.232,-16.018 -1.823,-1.822 -5.014,-4.896 -7.661,-6.964"
       style="fill:none;stroke:#231f20;stroke-width:0.5;stroke-linecap:butt;stroke-linejoin:miter;stroke-miterlimit:4;stroke-dasharray:none;stroke-opacity:1"
       id="path860" />
    <path
       d="m 477.323,600.142 c -5.92,-1.74 -8.706,-5.223 -11.491,-10.446 -2.787,-5.223 -4.875,-13.929 -2.438,-19.5 2.438,-5.572 4.875,-10.098 11.143,-14.973 6.267,-4.875 14.277,-10.099 23.678,-12.884 9.403,-2.786 12.536,-4.876 18.455,-5.223 5.92,-0.349 9.403,0 12.537,0.696 3.133,0.696 5.919,1.393 7.312,-2.438 1.393,-3.83 1.393,-15.321 -1.045,-16.017 -2.437,-0.696 -14.276,3.481 -18.106,6.616 -3.831,3.134 -7.656,7.992 -9.226,13.05"
       style="fill:none;stroke:#231f20;stroke-width:0.5;stroke-linecap:butt;stroke-linejoin:miter;stroke-miterlimit:4;stroke-dasharray:none;stroke-opacity:1"
       id="path862" />
    <path
       d="m 467.639,592.787 c -5.986,-2.046 -13.995,-7.27 -14.344,-12.841 -0.347,-5.572 -0.853,-17.62 14.373,-17.69"
       style="fill:none;stroke:#231f20;stroke-width:0.5;stroke-linecap:butt;stroke-linejoin:miter;stroke-miterlimit:4;stroke-dasharray:none;stroke-opacity:1"
       id="path864" />
    <path
       d="m 350.224,572.633 c -4.527,1.394 -20.892,16.019 -22.982,17.063 l -17.665,8.78 c -2.089,1.045 -8.103,3.06 -8.451,-2.164"
       style="fill:none;stroke:#231f20;stroke-width:0.5;stroke-linecap:butt;stroke-linejoin:miter;stroke-miterlimit:4;stroke-dasharray:none;stroke-opacity:1"
       id="path866" />
    <path
       d="m 473.84,608.5 c -5.92,2.437 -24.723,11.143 -42.83,11.143 -10.795,0 -37.609,-14.993 -42.134,-17.76 -6.268,-3.83 -18.107,-16.017 -23.331,-21.937 -5.223,-5.919 -10.795,-8.705 -15.321,-7.313"
       style="fill:none;stroke:#231f20;stroke-width:0.75;stroke-linecap:round;stroke-linejoin:round;stroke-miterlimit:4;stroke-dasharray:none;stroke-opacity:1"
       id="path868" />
    <path
       d="m 293.465,604.787 c 2.089,-1.163 6.617,-5.689 7.661,-8.475 1.044,-2.785 3.831,-17.062 4.527,-21.241 0.696,-4.179 1.639,-18.341 1.741,-23.446"
       style="fill:none;stroke:#231f20;stroke-width:0.5;stroke-linecap:butt;stroke-linejoin:miter;stroke-miterlimit:4;stroke-dasharray:none;stroke-opacity:1"
       id="path870" />
    <path
       d="m 805.689,617.553 c 0,-1.73 -1.403,-3.134 -3.134,-3.134 -1.73,0 -3.134,1.404 -3.134,3.134 0,1.732 1.404,3.134 3.134,3.134 1.731,0 3.134,-1.402 3.134,-3.134"
       style="fill:#ffffff;fill-opacity:1;fill-rule:nonzero;stroke:none;stroke-width:0.1"
       id="path872" />
    <path
       d="m 805.689,617.553 c 0,-1.73 -1.403,-3.134 -3.134,-3.134 -1.73,0 -3.134,1.404 -3.134,3.134 0,1.732 1.404,3.134 3.134,3.134 1.731,0 3.134,-1.402 3.134,-3.134 z"
       style="fill:none;stroke:#231f20;stroke-width:0.5;stroke-linecap:butt;stroke-linejoin:miter;stroke-miterlimit:4;stroke-dasharray:none;stroke-opacity:1"
       id="path874" />
    <path
       d="m 274.313,617.553 c 0,-1.73 1.404,-3.134 3.134,-3.134 1.73,0 3.134,1.404 3.134,3.134 0,1.732 -1.404,3.134 -3.134,3.134 -1.73,0 -3.134,-1.402 -3.134,-3.134"
       style="fill:#ffffff;fill-opacity:1;fill-rule:nonzero;stroke:none;stroke-width:0.1"
       id="path876" />
    <path
       d="m 274.313,617.553 c 0,-1.73 1.404,-3.134 3.134,-3.134 1.73,0 3.134,1.404 3.134,3.134 0,1.732 -1.404,3.134 -3.134,3.134 -1.73,0 -3.134,-1.402 -3.134,-3.134 z"
       style="fill:none;stroke:#231f20;stroke-width:0.5;stroke-linecap:butt;stroke-linejoin:miter;stroke-miterlimit:4;stroke-dasharray:none;stroke-opacity:1"
       id="path878" />
    <path
       d="m 603.84,824.161 c -5.687,-1.857 -26.928,-10.214 -37.026,-26.58 -10.099,-16.367 -13.581,-30.295 1.393,-44.92 14.973,-14.625 25.419,-26.117 35.866,-40.393 10.446,-14.277 24.375,-35.866 27.857,-40.045 3.482,-4.179 15.322,-13.232 24.027,-15.67"
       style="fill:none;stroke:#231f20;stroke-width:0.75;stroke-linecap:round;stroke-linejoin:round;stroke-miterlimit:4;stroke-dasharray:none;stroke-opacity:1"
       id="path880" />
    <path
       d="m 701.225,655.508 c 6.964,-8.008 16.714,-19.5 35.169,-32.731 18.456,-13.233 37.956,-20.43 52.232,-15.439"
       style="fill:none;stroke:#231f20;stroke-width:0.75;stroke-linecap:round;stroke-linejoin:round;stroke-miterlimit:4;stroke-dasharray:none;stroke-opacity:1"
       id="path882" />
    <path
       d="m 476.163,824.161 c 5.686,-1.857 26.927,-10.214 37.026,-26.58 10.098,-16.367 13.58,-30.295 -1.394,-44.92 -14.972,-14.625 -25.419,-26.117 -35.866,-40.393 -10.446,-14.277 -24.375,-35.866 -27.856,-40.045 -3.483,-4.179 -15.323,-13.232 -24.028,-15.67"
       style="fill:none;stroke:#231f20;stroke-width:0.75;stroke-linecap:round;stroke-linejoin:round;stroke-miterlimit:4;stroke-dasharray:none;stroke-opacity:1"
       id="path884" />
    <path
       d="m 378.778,655.508 c -6.965,-8.008 -16.715,-19.5 -35.17,-32.731 -18.455,-13.233 -37.955,-20.43 -52.232,-15.439"
       style="fill:none;stroke:#231f20;stroke-width:0.75;stroke-linecap:round;stroke-linejoin:round;stroke-miterlimit:4;stroke-dasharray:none;stroke-opacity:1"
       id="path886" />
    <path
       d="m 563.332,466.776 c 0,-6.153 -4.99,-11.143 -11.143,-11.143 -6.154,0 -11.144,4.99 -11.144,11.143 0,6.154 4.99,11.143 11.144,11.143 6.153,0 11.143,-4.989 11.143,-11.143 z"
       style="fill:none;stroke:#231f20;stroke-width:0.5;stroke-linecap:round;stroke-linejoin:round;stroke-miterlimit:4;stroke-dasharray:2.8, 1.8;stroke-dashoffset:0;stroke-opacity:1"
       id="path888" />
    <path
       d="m 599.198,550.348 c 1.741,-36.562 14.625,-89.143 54.67,-139.635"
       style="fill:none;stroke:#231f20;stroke-width:0.5;stroke-linecap:round;stroke-linejoin:round;stroke-miterlimit:4;stroke-dasharray:2.8, 1.8;stroke-dashoffset:0;stroke-opacity:1"
       id="path890" />
    <path
       d="m 557.412,499.508 c 10.098,3.134 35.218,6.124 49.471,3.237"
       style="fill:none;stroke:#231f20;stroke-width:0.5;stroke-linecap:round;stroke-linejoin:round;stroke-miterlimit:4;stroke-dasharray:2.8, 1.8;stroke-dashoffset:0;stroke-opacity:1"
       id="path892" />
    <path
       d="m 583.876,383.901 c 7.661,4.179 26.813,11.142 35.867,9.402 9.053,-1.741 18.803,-11.143 7.66,-20.197 -11.143,-9.053 -24.027,-1.393 -28.901,0.349 -4.876,1.741 -13.581,4.526 -16.715,5.223"
       style="fill:none;stroke:#231f20;stroke-width:0.5;stroke-linecap:round;stroke-linejoin:round;stroke-miterlimit:4;stroke-dasharray:2.8, 1.8;stroke-dashoffset:0;stroke-opacity:1"
       id="path894" />
    <path
       d="m 739.413,742.911 c 1.392,4.643 41.786,21.821 79.857,5.107"
       style="fill:none;stroke:#231f20;stroke-width:0.5;stroke-linecap:round;stroke-linejoin:round;stroke-miterlimit:4;stroke-dasharray:2.8, 1.8;stroke-dashoffset:0;stroke-opacity:1"
       id="path896" />
    <path
       d="m 752.915,750.229 c -3.881,-1.416 -4.216,-9.64 -3.752,-11.497 0.463,-1.858 4.642,-9.285 15.785,-9.285 11.143,0 26.928,-10e-4 30.643,4.642 3.715,4.643 -1.431,19.474 -20.912,20.648"
       style="fill:none;stroke:#231f20;stroke-width:0.5;stroke-linecap:round;stroke-linejoin:round;stroke-miterlimit:4;stroke-dasharray:2.8, 1.8;stroke-dashoffset:0;stroke-opacity:1"
       id="path898" />
    <path
       d="m 683.699,888.697 c 8.82,-7.429 28.319,-32.965 41.32,-50.144 13.001,-17.178 26.464,-32.964 33.429,-38.535 6.964,-5.571 58.036,-49.679 60.822,-52 0,0 62.298,-22.743 77.529,-69.176"
       style="fill:none;stroke:#231f20;stroke-width:0.5;stroke-linecap:round;stroke-linejoin:round;stroke-miterlimit:4;stroke-dasharray:2.8, 1.8;stroke-dashoffset:0;stroke-opacity:1"
       id="path900" />
    <path
       d="m 829.021,743.841 c 11.605,-1.859 61.972,-12.495 61.972,-12.495"
       style="fill:none;stroke:#231f20;stroke-width:0.5;stroke-linecap:round;stroke-linejoin:round;stroke-miterlimit:4;stroke-dasharray:2.8, 1.8;stroke-dashoffset:0;stroke-opacity:1"
       id="path902" />
    <path
       d="m 794.556,769.251 c 0,0 43.744,43.125 49.318,50.178"
       style="fill:none;stroke:#231f20;stroke-width:0.5;stroke-linecap:round;stroke-linejoin:round;stroke-miterlimit:4;stroke-dasharray:2.8, 1.8;stroke-dashoffset:0;stroke-opacity:1"
       id="path904" />
    <path
       d="m 757.479,800.826 38.112,60.013"
       style="fill:none;stroke:#231f20;stroke-width:0.5;stroke-linecap:round;stroke-linejoin:round;stroke-miterlimit:4;stroke-dasharray:2.8, 1.8;stroke-dashoffset:0;stroke-opacity:1"
       id="path906" />
    <path
       d="m 671.163,810.233 c 20.892,1.856 48.825,-0.874 81.752,-5.08"
       style="fill:none;stroke:#231f20;stroke-width:0.5;stroke-linecap:round;stroke-linejoin:round;stroke-miterlimit:4;stroke-dasharray:2.8, 1.8;stroke-dashoffset:0;stroke-opacity:1"
       id="path908" />
    <path
       d="m 699.02,758 c 2.901,-7.081 9.169,-30.411 7.776,-50.259 -1.393,-19.848 -5.049,-34.299 -11.491,-43.179"
       style="fill:none;stroke:#231f20;stroke-width:0.5;stroke-linecap:round;stroke-linejoin:round;stroke-miterlimit:4;stroke-dasharray:2.8, 1.8;stroke-dashoffset:0;stroke-opacity:1"
       id="path910" />
    <path
       d="m 601.623,823.379 c 6.629,-9.781 34.137,-53.307 2.45,-111.111"
       style="fill:none;stroke:#231f20;stroke-width:0.5;stroke-linecap:round;stroke-linejoin:round;stroke-miterlimit:4;stroke-dasharray:2.8, 1.8;stroke-dashoffset:0;stroke-opacity:1"
       id="path912" />
    <path
       d="m 601.623,823.379 c 8.37,-9.432 39.012,-27.888 59.557,-62.361 20.545,-34.474 23.679,-66.161 4.875,-79.741 -18.803,-13.581 -30.994,-8.707 -36.216,-6.269"
       style="fill:none;stroke:#231f20;stroke-width:0.5;stroke-linecap:round;stroke-linejoin:round;stroke-miterlimit:4;stroke-dasharray:2.8, 1.8;stroke-dashoffset:0;stroke-opacity:1"
       id="path914" />
    <path
       d="m 621.832,821.607 c -1.559,-2.807 2.437,-5.571 6.267,-8.357 3.831,-2.786 21.939,-14.277 25.072,-16.366 8.357,-5.571 14.081,-11.595 18.804,-20.196 3.117,-5.679 10.691,-19.017 13.58,-24.375 2.217,-4.112 8.77,-13.694 10.795,-12.885 1.74,0.696 1.044,11.491 -3.831,19.849 -4.875,8.357 -12.884,20.196 -21.937,29.598 -9.054,9.402 -26.464,19.152 -32.036,23.331 -5.572,4.178 -15.843,10.968 -16.714,9.401 z"
       style="fill:none;stroke:#231f20;stroke-width:0.5;stroke-linecap:round;stroke-linejoin:round;stroke-miterlimit:4;stroke-dasharray:2.8, 1.8;stroke-dashoffset:0;stroke-opacity:1"
       id="path916" />
    <path
       d="m 701.573,499.161 c 2.34,-0.976 3.482,-5.92 2.09,-9.75 -1.394,-3.831 -5.224,-11.492 -5.224,-15.67 0,-4.179 3.482,-9.75 2.089,-13.581 -1.393,-3.83 -3.482,-8.357 -6.268,-8.357 -2.785,0 -8.357,5.223 -8.705,13.232 -0.348,8.009 4.179,12.536 5.92,16.366 1.74,3.831 2.785,9.75 4.178,13.581 1.393,3.83 3.831,5.049 5.92,4.179 z"
       style="fill:none;stroke:#231f20;stroke-width:0.5;stroke-linecap:round;stroke-linejoin:round;stroke-miterlimit:4;stroke-dasharray:2.8, 1.8;stroke-dashoffset:0;stroke-opacity:1"
       id="path918" />
    <path
       d="m 619.743,393.303 c 3.133,6.616 15.669,16.714 32.035,16.714 0,0 9.75,3.83 13.232,-1.045 0,0 8.322,12.528 17.876,4.214"
       style="fill:none;stroke:#231f20;stroke-width:0.5;stroke-linecap:round;stroke-linejoin:round;stroke-miterlimit:4;stroke-dasharray:2.8, 1.8;stroke-dashoffset:0;stroke-opacity:1"
       id="path920" />
    <path
       d="m 651.778,410.017 c -2.785,-3.134 -6.616,-11.491 -6.616,-19.151 0,-7.661 1.045,-10.099 10.467,-8.891"
       style="fill:none;stroke:#231f20;stroke-width:0.5;stroke-linecap:round;stroke-linejoin:round;stroke-miterlimit:4;stroke-dasharray:2.8, 1.8;stroke-dashoffset:0;stroke-opacity:1"
       id="path922" />
    <path
       d="m 665.01,408.972 c 1.045,-4.875 0.349,-16.017 -3.482,-21.937"
       style="fill:none;stroke:#231f20;stroke-width:0.5;stroke-linecap:round;stroke-linejoin:round;stroke-miterlimit:4;stroke-dasharray:2.8, 1.8;stroke-dashoffset:0;stroke-opacity:1"
       id="path924" />
    <path
       d="m 657.669,411.376 c 1.423,0.027 3.163,-0.663 2.119,-4.841 -1.045,-4.178 -6.526,-22.377 -10.448,-21.242 -3.921,1.137 0.349,10.099 1.394,12.885 1.044,2.785 5.166,13.164 6.935,13.198 z"
       style="fill:none;stroke:#231f20;stroke-width:0.5;stroke-linecap:round;stroke-linejoin:round;stroke-miterlimit:4;stroke-dasharray:2.8, 1.8;stroke-dashoffset:0;stroke-opacity:1"
       id="path926" />
    <path
       d="m 692.868,501.946 c 0.347,5.571 0,18.804 -9.054,22.286 -9.054,3.481 -22.634,2.437 -26.812,-2.09 -4.179,-4.526 -4.876,-13.929 2.786,-23.33 7.66,-9.401 17.219,-17.223 24.105,-19.232"
       style="fill:none;stroke:#231f20;stroke-width:0.5;stroke-linecap:round;stroke-linejoin:round;stroke-miterlimit:4;stroke-dasharray:2.8, 1.8;stroke-dashoffset:0;stroke-opacity:1"
       id="path928" />
    <path
       d="m 654.385,509.37 c -3.303,-4.987 -6.785,-22.746 0.528,-29.013 7.312,-6.269 19.822,-6.716 28.98,-0.777"
       style="fill:none;stroke:#231f20;stroke-width:0.5;stroke-linecap:round;stroke-linejoin:round;stroke-miterlimit:4;stroke-dasharray:2.8, 1.8;stroke-dashoffset:0;stroke-opacity:1"
       id="path930" />
    <path
       d="m 659.788,498.812 c 6.615,0.696 26.191,6.42 31.55,16.79"
       style="fill:none;stroke:#231f20;stroke-width:0.5;stroke-linecap:round;stroke-linejoin:round;stroke-miterlimit:4;stroke-dasharray:2.8, 1.8;stroke-dashoffset:0;stroke-opacity:1"
       id="path932" />
    <path
       d="m 635.064,519.357 c 0,0 -5.92,5.223 -5.92,17.062 0,9.402 12.188,10.795 16.366,11.143 4.179,0.349 30.295,-1.741 36.563,-3.134 6.267,-1.392 11.491,-2.786 11.491,-2.786 0,0 6.616,-10.794 1.741,-16.018 -4.483,-4.802 -10.497,-1.837 -10.497,-1.837"
       style="fill:none;stroke:#231f20;stroke-width:0.5;stroke-linecap:round;stroke-linejoin:round;stroke-miterlimit:4;stroke-dasharray:2.8, 1.8;stroke-dashoffset:0;stroke-opacity:1"
       id="path934" />
    <path
       d="m 601.381,528.72 c 0.375,-2.379 2.343,-2.382 4.084,-2.399 2.079,-0.021 8.184,-0.697 10.447,4.875 2.702,6.65 -0.374,22.445 -4.552,29.758"
       style="fill:none;stroke:#231f20;stroke-width:0.5;stroke-linecap:round;stroke-linejoin:round;stroke-miterlimit:4;stroke-dasharray:2.8, 1.8;stroke-dashoffset:0;stroke-opacity:1"
       id="path936" />
    <path
       d="m 618.002,562.361 c 4.178,-2.089 18.292,-12.366 23.422,-15.324"
       style="fill:none;stroke:#231f20;stroke-width:0.5;stroke-linecap:round;stroke-linejoin:round;stroke-miterlimit:4;stroke-dasharray:2.8, 1.8;stroke-dashoffset:0;stroke-opacity:1"
       id="path938" />
    <path
       d="m 609.79,610.029 c 8.559,-4.315 14.828,-8.146 16.569,-7.797 1.74,0.348 11.49,2.785 16.714,1.741 0,0 10.098,0.348 14.973,8.009"
       style="fill:none;stroke:#231f20;stroke-width:0.5;stroke-linecap:round;stroke-linejoin:round;stroke-miterlimit:4;stroke-dasharray:2.8, 1.8;stroke-dashoffset:0;stroke-opacity:1"
       id="path940" />
    <path
       d="m 670.93,563.232 c -0.696,-3.482 3.422,-16.921 12.212,-19.043"
       style="fill:none;stroke:#231f20;stroke-width:0.5;stroke-linecap:round;stroke-linejoin:round;stroke-miterlimit:4;stroke-dasharray:2.8, 1.8;stroke-dashoffset:0;stroke-opacity:1"
       id="path942" />
    <path
       d="m 693.564,541.642 c 4.526,-0.348 13.58,6.269 10.446,14.625"
       style="fill:none;stroke:#231f20;stroke-width:0.5;stroke-linecap:round;stroke-linejoin:round;stroke-miterlimit:4;stroke-dasharray:2.8, 1.8;stroke-dashoffset:0;stroke-opacity:1"
       id="path944" />
    <path
       d="m 693.564,541.642 c 5.096,-1.629 20.196,-6.616 23.679,0 3.482,6.616 3.133,13.581 -0.349,21.241 -3.481,7.661 -6.316,10.813 -13.265,16.367"
       style="fill:none;stroke:#231f20;stroke-width:0.5;stroke-linecap:round;stroke-linejoin:round;stroke-miterlimit:4;stroke-dasharray:2.8, 1.8;stroke-dashoffset:0;stroke-opacity:1"
       id="path946" />
    <path
       d="m 695.653,556.964 c 1.398,-1.092 2.519,-1.969 3.482,-2.09 2.786,-0.347 5.572,0.697 7.313,4.876 1.741,4.178 0.696,9.75 -2.089,14.624 0,0 -0.817,10.384 -5.317,14.91"
       style="fill:none;stroke:#231f20;stroke-width:0.5;stroke-linecap:round;stroke-linejoin:round;stroke-miterlimit:4;stroke-dasharray:2.8, 1.8;stroke-dashoffset:0;stroke-opacity:1"
       id="path948" />
    <path
       d="m 643.073,603.973 c 3.482,-0.696 13.58,-3.134 9.75,-15.67"
       style="fill:none;stroke:#231f20;stroke-width:0.5;stroke-linecap:round;stroke-linejoin:round;stroke-miterlimit:4;stroke-dasharray:2.8, 1.8;stroke-dashoffset:0;stroke-opacity:1"
       id="path950" />
    <path
       d="m 670.329,608.429 c -2.533,-4.108 -7.408,-12.813 -1.489,-15.599 5.92,-2.786 11.84,-2.089 19.5,-4.178 7.662,-2.09 11.84,-7.313 16.019,-14.278"
       style="fill:none;stroke:#231f20;stroke-width:0.5;stroke-linecap:round;stroke-linejoin:round;stroke-miterlimit:4;stroke-dasharray:2.8, 1.8;stroke-dashoffset:0;stroke-opacity:1"
       id="path952" />
    <path
       d="m 689.734,588.224 c -4.179,0.079 -9.054,-1.313 -6.965,-4.796 2.09,-3.482 8.706,-10.795 5.224,-19.5"
       style="fill:none;stroke:#231f20;stroke-width:0.5;stroke-linecap:round;stroke-linejoin:round;stroke-miterlimit:4;stroke-dasharray:2.8, 1.8;stroke-dashoffset:0;stroke-opacity:1"
       id="path954" />
    <path
       d="m 653.529,591.436 c 3.821,2.438 11.914,2.261 16.318,0.956 4.405,-1.306 9.758,-4.106 12.922,-8.964"
       style="fill:none;stroke:#231f20;stroke-width:0.5;stroke-linecap:round;stroke-linejoin:round;stroke-miterlimit:4;stroke-dasharray:2.8, 1.8;stroke-dashoffset:0;stroke-opacity:1"
       id="path956" />
    <path
       d="m 652.04,599.04 c 2.873,-1.335 12.17,-3.034 14.801,2.462"
       style="fill:none;stroke:#231f20;stroke-width:0.5;stroke-linecap:round;stroke-linejoin:round;stroke-miterlimit:4;stroke-dasharray:2.8, 1.8;stroke-dashoffset:0;stroke-opacity:1"
       id="path958" />
    <path
       d="m 542.937,559.395 c 2.636,-2.431 19.381,-19.321 23.24,-21.947"
       style="fill:none;stroke:#231f20;stroke-width:0.5;stroke-linecap:round;stroke-linejoin:round;stroke-miterlimit:4;stroke-dasharray:2.8, 1.8;stroke-dashoffset:0;stroke-opacity:1"
       id="path960" />
    <path
       d="m 579.782,541.725 c -2.405,-0.78 -9.834,0.614 -12.968,2.007 -3.134,1.392 -8.357,4.875 -6.269,7.312 2.09,2.438 10.448,1.742 14.974,2.786 4.527,1.044 12.536,1.741 13.58,-2.438 1.405,-5.621 -2.483,-7.372 -2.304,-7.3"
       style="fill:none;stroke:#231f20;stroke-width:0.5;stroke-linecap:round;stroke-linejoin:round;stroke-miterlimit:4;stroke-dasharray:2.8, 1.8;stroke-dashoffset:0;stroke-opacity:1"
       id="path962" />
    <path
       d="m 559.813,587.04 c 4.215,-0.129 11.776,-3.227 14.313,-6.398 2.089,-2.611 4.179,-9.053 1.742,-13.58 -2.438,-4.526 -8.706,-12.884 -17.411,-12.188 -8.705,0.697 -16.052,9.435 -15.878,12.883"
       style="fill:none;stroke:#231f20;stroke-width:0.5;stroke-linecap:round;stroke-linejoin:round;stroke-miterlimit:4;stroke-dasharray:2.8, 1.8;stroke-dashoffset:0;stroke-opacity:1"
       id="path964" />
    <path
       d="m 571.683,561.148 c -5.914,6.263 -22.28,7.307 -29.104,6.609"
       style="fill:none;stroke:#231f20;stroke-width:0.5;stroke-linecap:round;stroke-linejoin:round;stroke-miterlimit:4;stroke-dasharray:2.8, 1.8;stroke-dashoffset:0;stroke-opacity:1"
       id="path966" />
    <path
       d="m 565.346,585.969 c -0.97,1.638 -0.622,4.423 3.906,5.12 4.526,0.697 20.161,4.527 27.473,0.697"
       style="fill:none;stroke:#231f20;stroke-width:0.5;stroke-linecap:round;stroke-linejoin:round;stroke-miterlimit:4;stroke-dasharray:2.8, 1.8;stroke-dashoffset:0;stroke-opacity:1"
       id="path968" />
    <path
       d="m 576.598,568.882 c 2.404,-4.605 14.959,-13.984 22.948,-12.963"
       style="fill:none;stroke:#231f20;stroke-width:0.5;stroke-linecap:round;stroke-linejoin:round;stroke-miterlimit:4;stroke-dasharray:2.8, 1.8;stroke-dashoffset:0;stroke-opacity:1"
       id="path970" />
    <path
       d="m 603.469,553.707 c 1.996,1.516 5.13,10.221 6.175,17.534 1.045,7.312 0.696,14.625 0.349,16.714 -0.349,2.089 -1.394,7.312 -4.875,7.661 -3.483,0.348 -6.965,1.045 -8.009,-1.393 -1.045,-2.437 0.007,-9.552 0.348,-16.018 0.311,-5.912 3.482,-21.589 1.741,-27.857"
       style="fill:none;stroke:#231f20;stroke-width:0.5;stroke-linecap:round;stroke-linejoin:round;stroke-miterlimit:4;stroke-dasharray:2.8, 1.8;stroke-dashoffset:0;stroke-opacity:1"
       id="path972" />
    <path
       d="m 516.67,466.776 c 0,-6.153 4.99,-11.143 11.144,-11.143 6.153,0 11.143,4.99 11.143,11.143 0,6.154 -4.99,11.143 -11.143,11.143 -6.154,0 -11.144,-4.989 -11.144,-11.143 z"
       style="fill:none;stroke:#231f20;stroke-width:0.5;stroke-linecap:round;stroke-linejoin:round;stroke-miterlimit:4;stroke-dasharray:2.8, 1.8;stroke-dashoffset:0;stroke-opacity:1"
       id="path974" />
    <path
       d="m 480.804,550.348 c -1.74,-36.562 -14.625,-89.143 -54.669,-139.635"
       style="fill:none;stroke:#231f20;stroke-width:0.5;stroke-linecap:round;stroke-linejoin:round;stroke-miterlimit:4;stroke-dasharray:2.8, 1.8;stroke-dashoffset:0;stroke-opacity:1"
       id="path976" />
    <path
       d="m 522.59,499.508 c -10.097,3.134 -35.218,6.124 -49.47,3.237"
       style="fill:none;stroke:#231f20;stroke-width:0.5;stroke-linecap:round;stroke-linejoin:round;stroke-miterlimit:4;stroke-dasharray:2.8, 1.8;stroke-dashoffset:0;stroke-opacity:1"
       id="path978" />
    <path
       d="m 496.126,383.901 c -7.661,4.179 -26.812,11.142 -35.866,9.402 -9.053,-1.741 -18.803,-11.143 -7.661,-20.197 11.143,-9.053 24.027,-1.393 28.902,0.349 4.875,1.741 13.581,4.526 16.714,5.223"
       style="fill:none;stroke:#231f20;stroke-width:0.5;stroke-linecap:round;stroke-linejoin:round;stroke-miterlimit:4;stroke-dasharray:2.8, 1.8;stroke-dashoffset:0;stroke-opacity:1"
       id="path980" />
    <path
       d="m 340.589,742.911 c -1.392,4.643 -41.785,21.821 -79.856,5.107"
       style="fill:none;stroke:#231f20;stroke-width:0.5;stroke-linecap:round;stroke-linejoin:round;stroke-miterlimit:4;stroke-dasharray:2.8, 1.8;stroke-dashoffset:0;stroke-opacity:1"
       id="path982" />
    <path
       d="m 327.088,750.229 c 3.881,-1.416 4.215,-9.64 3.751,-11.497 -0.463,-1.858 -4.642,-9.285 -15.785,-9.285 -11.142,0 -26.928,-10e-4 -30.642,4.642 -3.715,4.643 1.43,19.474 20.912,20.648"
       style="fill:none;stroke:#231f20;stroke-width:0.5;stroke-linecap:round;stroke-linejoin:round;stroke-miterlimit:4;stroke-dasharray:2.8, 1.8;stroke-dashoffset:0;stroke-opacity:1"
       id="path984" />
    <path
       d="m 396.304,888.697 c -8.821,-7.429 -28.32,-32.965 -41.32,-50.144 -13.001,-17.178 -26.465,-32.964 -33.429,-38.535 -6.965,-5.571 -58.037,-49.679 -60.822,-52 0,0 -62.298,-22.743 -77.529,-69.176"
       style="fill:none;stroke:#231f20;stroke-width:0.5;stroke-linecap:round;stroke-linejoin:round;stroke-miterlimit:4;stroke-dasharray:2.8, 1.8;stroke-dashoffset:0;stroke-opacity:1"
       id="path986" />
    <path
       d="M 250.981,743.841 C 239.376,741.982 189.01,731.346 189.01,731.346"
       style="fill:none;stroke:#231f20;stroke-width:0.5;stroke-linecap:round;stroke-linejoin:round;stroke-miterlimit:4;stroke-dasharray:2.8, 1.8;stroke-dashoffset:0;stroke-opacity:1"
       id="path988" />
    <path
       d="m 285.447,769.251 c 0,0 -43.745,43.125 -49.32,50.178"
       style="fill:none;stroke:#231f20;stroke-width:0.5;stroke-linecap:round;stroke-linejoin:round;stroke-miterlimit:4;stroke-dasharray:2.8, 1.8;stroke-dashoffset:0;stroke-opacity:1"
       id="path990" />
    <path
       d="m 322.523,800.826 -38.111,60.013"
       style="fill:none;stroke:#231f20;stroke-width:0.5;stroke-linecap:round;stroke-linejoin:round;stroke-miterlimit:4;stroke-dasharray:2.8, 1.8;stroke-dashoffset:0;stroke-opacity:1"
       id="path992" />
    <path
       d="m 408.839,810.233 c -20.892,1.856 -48.824,-0.874 -81.751,-5.08"
       style="fill:none;stroke:#231f20;stroke-width:0.5;stroke-linecap:round;stroke-linejoin:round;stroke-miterlimit:4;stroke-dasharray:2.8, 1.8;stroke-dashoffset:0;stroke-opacity:1"
       id="path994" />
    <path
       d="m 380.983,758 c -2.901,-7.081 -9.17,-30.411 -7.776,-50.259 1.392,-19.848 5.048,-34.299 11.491,-43.179"
       style="fill:none;stroke:#231f20;stroke-width:0.5;stroke-linecap:round;stroke-linejoin:round;stroke-miterlimit:4;stroke-dasharray:2.8, 1.8;stroke-dashoffset:0;stroke-opacity:1"
       id="path996" />
    <path
       d="m 478.379,823.379 c -6.628,-9.781 -34.137,-53.307 -2.45,-111.111"
       style="fill:none;stroke:#231f20;stroke-width:0.5;stroke-linecap:round;stroke-linejoin:round;stroke-miterlimit:4;stroke-dasharray:2.8, 1.8;stroke-dashoffset:0;stroke-opacity:1"
       id="path998" />
    <path
       d="m 478.379,823.379 c -8.369,-9.432 -39.012,-27.888 -59.556,-62.361 -20.545,-34.474 -23.679,-66.161 -4.875,-79.741 18.802,-13.581 30.993,-8.707 36.215,-6.269"
       style="fill:none;stroke:#231f20;stroke-width:0.5;stroke-linecap:round;stroke-linejoin:round;stroke-miterlimit:4;stroke-dasharray:2.8, 1.8;stroke-dashoffset:0;stroke-opacity:1"
       id="path1000" />
    <path
       d="m 458.17,821.607 c 1.559,-2.807 -2.437,-5.571 -6.267,-8.357 -3.83,-2.786 -21.938,-14.277 -25.071,-16.366 -8.358,-5.571 -14.082,-11.595 -18.804,-20.196 -3.118,-5.679 -10.692,-19.017 -13.58,-24.375 -2.218,-4.112 -8.77,-13.694 -10.795,-12.885 -1.741,0.696 -1.045,11.491 3.83,19.849 4.875,8.357 12.884,20.196 21.937,29.598 9.054,9.402 26.465,19.152 32.037,23.331 5.571,4.178 15.843,10.968 16.713,9.401 z"
       style="fill:none;stroke:#231f20;stroke-width:0.5;stroke-linecap:round;stroke-linejoin:round;stroke-miterlimit:4;stroke-dasharray:2.8, 1.8;stroke-dashoffset:0;stroke-opacity:1"
       id="path1002" />
    <path
       d="m 378.429,499.161 c -2.339,-0.976 -3.481,-5.92 -2.089,-9.75 1.393,-3.831 5.223,-11.492 5.223,-15.67 0,-4.179 -3.481,-9.75 -2.089,-13.581 1.393,-3.83 3.483,-8.357 6.268,-8.357 2.786,0 8.357,5.223 8.706,13.232 0.347,8.009 -4.179,12.536 -5.92,16.366 -1.741,3.831 -2.786,9.75 -4.179,13.581 -1.392,3.83 -3.83,5.049 -5.92,4.179 z"
       style="fill:none;stroke:#231f20;stroke-width:0.5;stroke-linecap:round;stroke-linejoin:round;stroke-miterlimit:4;stroke-dasharray:2.8, 1.8;stroke-dashoffset:0;stroke-opacity:1"
       id="path1004" />
    <path
       d="m 460.26,393.303 c -3.134,6.616 -15.67,16.714 -32.036,16.714 0,0 -9.75,3.83 -13.232,-1.045 0,0 -8.322,12.528 -17.876,4.214"
       style="fill:none;stroke:#231f20;stroke-width:0.5;stroke-linecap:round;stroke-linejoin:round;stroke-miterlimit:4;stroke-dasharray:2.8, 1.8;stroke-dashoffset:0;stroke-opacity:1"
       id="path1006" />
    <path
       d="m 428.224,410.017 c 2.786,-3.134 6.616,-11.491 6.616,-19.151 0,-7.661 -1.045,-10.099 -10.466,-8.891"
       style="fill:none;stroke:#231f20;stroke-width:0.5;stroke-linecap:round;stroke-linejoin:round;stroke-miterlimit:4;stroke-dasharray:2.8, 1.8;stroke-dashoffset:0;stroke-opacity:1"
       id="path1008" />
    <path
       d="m 414.992,408.972 c -1.044,-4.875 -0.348,-16.017 3.482,-21.937"
       style="fill:none;stroke:#231f20;stroke-width:0.5;stroke-linecap:round;stroke-linejoin:round;stroke-miterlimit:4;stroke-dasharray:2.8, 1.8;stroke-dashoffset:0;stroke-opacity:1"
       id="path1010" />
    <path
       d="m 422.334,411.376 c -1.423,0.027 -3.164,-0.663 -2.119,-4.841 1.045,-4.178 6.525,-22.377 10.447,-21.242 3.922,1.137 -0.349,10.099 -1.393,12.885 -1.045,2.785 -5.166,13.164 -6.935,13.198 z"
       style="fill:none;stroke:#231f20;stroke-width:0.5;stroke-linecap:round;stroke-linejoin:round;stroke-miterlimit:4;stroke-dasharray:2.8, 1.8;stroke-dashoffset:0;stroke-opacity:1"
       id="path1012" />
    <path
       d="m 387.135,501.946 c -0.348,5.571 0,18.804 9.053,22.286 9.054,3.481 22.635,2.437 26.812,-2.09 4.179,-4.526 4.876,-13.929 -2.785,-23.33 -7.661,-9.401 -17.22,-17.223 -24.105,-19.232"
       style="fill:none;stroke:#231f20;stroke-width:0.5;stroke-linecap:round;stroke-linejoin:round;stroke-miterlimit:4;stroke-dasharray:2.8, 1.8;stroke-dashoffset:0;stroke-opacity:1"
       id="path1014" />
    <path
       d="m 425.617,509.37 c 3.303,-4.987 6.786,-22.746 -0.527,-29.013 -7.312,-6.269 -19.822,-6.716 -28.98,-0.777"
       style="fill:none;stroke:#231f20;stroke-width:0.5;stroke-linecap:round;stroke-linejoin:round;stroke-miterlimit:4;stroke-dasharray:2.8, 1.8;stroke-dashoffset:0;stroke-opacity:1"
       id="path1016" />
    <path
       d="m 420.215,498.812 c -6.616,0.696 -26.192,6.42 -31.551,16.79"
       style="fill:none;stroke:#231f20;stroke-width:0.5;stroke-linecap:round;stroke-linejoin:round;stroke-miterlimit:4;stroke-dasharray:2.8, 1.8;stroke-dashoffset:0;stroke-opacity:1"
       id="path1018" />
    <path
       d="m 444.939,519.357 c 0,0 5.919,5.223 5.919,17.062 0,9.402 -12.188,10.795 -16.366,11.143 -4.179,0.349 -30.294,-1.741 -36.563,-3.134 -6.267,-1.392 -11.491,-2.786 -11.491,-2.786 0,0 -6.615,-10.794 -1.74,-16.018 4.482,-4.802 10.496,-1.837 10.496,-1.837"
       style="fill:none;stroke:#231f20;stroke-width:0.5;stroke-linecap:round;stroke-linejoin:round;stroke-miterlimit:4;stroke-dasharray:2.8, 1.8;stroke-dashoffset:0;stroke-opacity:1"
       id="path1020" />
    <path
       d="m 478.622,528.72 c -0.376,-2.379 -2.344,-2.382 -4.085,-2.399 -2.079,-0.021 -8.183,-0.697 -10.447,4.875 -2.701,6.65 0.374,22.445 4.553,29.758"
       style="fill:none;stroke:#231f20;stroke-width:0.5;stroke-linecap:round;stroke-linejoin:round;stroke-miterlimit:4;stroke-dasharray:2.8, 1.8;stroke-dashoffset:0;stroke-opacity:1"
       id="path1022" />
    <path
       d="m 462.001,562.361 c -4.178,-2.089 -18.293,-12.366 -23.422,-15.324"
       style="fill:none;stroke:#231f20;stroke-width:0.5;stroke-linecap:round;stroke-linejoin:round;stroke-miterlimit:4;stroke-dasharray:2.8, 1.8;stroke-dashoffset:0;stroke-opacity:1"
       id="path1024" />
    <path
       d="m 470.212,610.029 c -8.559,-4.315 -14.827,-8.146 -16.568,-7.797 -1.741,0.348 -11.491,2.785 -16.715,1.741 0,0 -10.097,0.348 -14.972,8.009"
       style="fill:none;stroke:#231f20;stroke-width:0.5;stroke-linecap:round;stroke-linejoin:round;stroke-miterlimit:4;stroke-dasharray:2.8, 1.8;stroke-dashoffset:0;stroke-opacity:1"
       id="path1026" />
    <path
       d="m 409.073,563.232 c 0.696,-3.482 -3.423,-16.921 -12.213,-19.043"
       style="fill:none;stroke:#231f20;stroke-width:0.5;stroke-linecap:round;stroke-linejoin:round;stroke-miterlimit:4;stroke-dasharray:2.8, 1.8;stroke-dashoffset:0;stroke-opacity:1"
       id="path1028" />
    <path
       d="m 386.438,541.642 c -4.526,-0.348 -13.58,6.269 -10.446,14.625"
       style="fill:none;stroke:#231f20;stroke-width:0.5;stroke-linecap:round;stroke-linejoin:round;stroke-miterlimit:4;stroke-dasharray:2.8, 1.8;stroke-dashoffset:0;stroke-opacity:1"
       id="path1030" />
    <path
       d="m 386.438,541.642 c -5.095,-1.629 -20.196,-6.616 -23.679,0 -3.481,6.616 -3.133,13.581 0.349,21.241 3.482,7.661 6.317,10.813 13.265,16.367"
       style="fill:none;stroke:#231f20;stroke-width:0.5;stroke-linecap:round;stroke-linejoin:round;stroke-miterlimit:4;stroke-dasharray:2.8, 1.8;stroke-dashoffset:0;stroke-opacity:1"
       id="path1032" />
    <path
       d="m 384.349,556.964 c -1.398,-1.092 -2.519,-1.969 -3.482,-2.09 -2.785,-0.347 -5.572,0.697 -7.313,4.876 -1.741,4.178 -0.696,9.75 2.09,14.624 0,0 0.816,10.384 5.316,14.91"
       style="fill:none;stroke:#231f20;stroke-width:0.5;stroke-linecap:round;stroke-linejoin:round;stroke-miterlimit:4;stroke-dasharray:2.8, 1.8;stroke-dashoffset:0;stroke-opacity:1"
       id="path1034" />
    <path
       d="m 436.929,603.973 c -3.481,-0.696 -13.58,-3.134 -9.75,-15.67"
       style="fill:none;stroke:#231f20;stroke-width:0.5;stroke-linecap:round;stroke-linejoin:round;stroke-miterlimit:4;stroke-dasharray:2.8, 1.8;stroke-dashoffset:0;stroke-opacity:1"
       id="path1036" />
    <path
       d="m 409.673,608.429 c 2.534,-4.108 7.409,-12.813 1.489,-15.599 -5.92,-2.786 -11.839,-2.089 -19.5,-4.178 -7.662,-2.09 -11.839,-7.313 -16.018,-14.278"
       style="fill:none;stroke:#231f20;stroke-width:0.5;stroke-linecap:round;stroke-linejoin:round;stroke-miterlimit:4;stroke-dasharray:2.8, 1.8;stroke-dashoffset:0;stroke-opacity:1"
       id="path1038" />
    <path
       d="m 390.269,588.224 c 4.179,0.079 9.054,-1.313 6.964,-4.796 -2.089,-3.482 -8.705,-10.795 -5.223,-19.5"
       style="fill:none;stroke:#231f20;stroke-width:0.5;stroke-linecap:round;stroke-linejoin:round;stroke-miterlimit:4;stroke-dasharray:2.8, 1.8;stroke-dashoffset:0;stroke-opacity:1"
       id="path1040" />
    <path
       d="m 426.473,591.436 c -3.82,2.438 -11.914,2.261 -16.318,0.956 -4.405,-1.306 -9.758,-4.106 -12.922,-8.964"
       style="fill:none;stroke:#231f20;stroke-width:0.5;stroke-linecap:round;stroke-linejoin:round;stroke-miterlimit:4;stroke-dasharray:2.8, 1.8;stroke-dashoffset:0;stroke-opacity:1"
       id="path1042" />
    <path
       d="m 427.963,599.04 c -2.873,-1.335 -12.17,-3.034 -14.801,2.462"
       style="fill:none;stroke:#231f20;stroke-width:0.5;stroke-linecap:round;stroke-linejoin:round;stroke-miterlimit:4;stroke-dasharray:2.8, 1.8;stroke-dashoffset:0;stroke-opacity:1"
       id="path1044" />
    <path
       d="m 537.066,559.395 c -2.636,-2.431 -19.382,-19.321 -23.24,-21.947"
       style="fill:none;stroke:#231f20;stroke-width:0.5;stroke-linecap:round;stroke-linejoin:round;stroke-miterlimit:4;stroke-dasharray:2.8, 1.8;stroke-dashoffset:0;stroke-opacity:1"
       id="path1046" />
    <path
       d="m 500.22,541.725 c 2.406,-0.78 9.835,0.614 12.969,2.007 3.134,1.392 8.356,4.875 6.268,7.312 -2.089,2.438 -10.447,1.742 -14.974,2.786 -4.526,1.044 -12.535,1.741 -13.58,-2.438 -1.405,-5.621 2.483,-7.372 2.305,-7.3"
       style="fill:none;stroke:#231f20;stroke-width:0.5;stroke-linecap:round;stroke-linejoin:round;stroke-miterlimit:4;stroke-dasharray:2.8, 1.8;stroke-dashoffset:0;stroke-opacity:1"
       id="path1048" />
    <path
       d="m 520.19,587.04 c -4.216,-0.129 -11.777,-3.227 -14.314,-6.398 -2.089,-2.611 -4.178,-9.053 -1.741,-13.58 2.438,-4.526 8.705,-12.884 17.41,-12.188 8.707,0.697 16.053,9.435 15.878,12.883"
       style="fill:none;stroke:#231f20;stroke-width:0.5;stroke-linecap:round;stroke-linejoin:round;stroke-miterlimit:4;stroke-dasharray:2.8, 1.8;stroke-dashoffset:0;stroke-opacity:1"
       id="path1050" />
    <path
       d="m 508.319,561.148 c 5.914,6.263 22.28,7.307 29.104,6.609"
       style="fill:none;stroke:#231f20;stroke-width:0.5;stroke-linecap:round;stroke-linejoin:round;stroke-miterlimit:4;stroke-dasharray:2.8, 1.8;stroke-dashoffset:0;stroke-opacity:1"
       id="path1052" />
    <path
       d="m 514.657,585.969 c 0.969,1.638 0.621,4.423 -3.906,5.12 -4.527,0.697 -20.161,4.527 -27.473,0.697"
       style="fill:none;stroke:#231f20;stroke-width:0.5;stroke-linecap:round;stroke-linejoin:round;stroke-miterlimit:4;stroke-dasharray:2.8, 1.8;stroke-dashoffset:0;stroke-opacity:1"
       id="path1054" />
    <path
       d="m 503.405,568.882 c -2.404,-4.605 -14.96,-13.984 -22.948,-12.963"
       style="fill:none;stroke:#231f20;stroke-width:0.5;stroke-linecap:round;stroke-linejoin:round;stroke-miterlimit:4;stroke-dasharray:2.8, 1.8;stroke-dashoffset:0;stroke-opacity:1"
       id="path1056" />
    <path
       d="m 476.534,553.707 c -1.997,1.516 -5.131,10.221 -6.176,17.534 -1.044,7.312 -0.696,14.625 -0.348,16.714 0.348,2.089 1.393,7.312 4.875,7.661 3.482,0.348 6.964,1.045 8.009,-1.393 1.045,-2.437 -0.007,-9.552 -0.349,-16.018 -0.311,-5.912 -3.481,-21.589 -1.741,-27.857"
       style="fill:none;stroke:#231f20;stroke-width:0.5;stroke-linecap:round;stroke-linejoin:round;stroke-miterlimit:4;stroke-dasharray:2.8, 1.8;stroke-dashoffset:0;stroke-opacity:1"
       id="path1058" />
    <path
       d="m 518.788,592.398 c -1.769,-2.006 -1.42,-4.443 0.669,-5.14 2.088,-0.696 5.571,-1.044 10.795,-4.526 5.222,-3.482 6.267,-8.358 6.267,-8.358 1.045,-2.437 1.045,-6.963 0.696,-11.838 -0.347,-4.875 -0.193,-17.761 -0.347,-23.679 -0.113,-4.256 1.392,-4.527 3.134,-4.527 1.741,0 3.245,0.271 3.133,4.527 -0.155,5.918 0,18.804 -0.348,23.679 -0.348,4.875 -0.348,9.401 0.696,11.838 0,0 1.045,4.876 6.269,8.358 5.222,3.482 8.705,3.83 10.793,4.526 2.09,0.697 2.438,3.134 0.67,5.14"
       style="fill:none;stroke:#231f20;stroke-width:0.5;stroke-linecap:round;stroke-linejoin:round;stroke-miterlimit:4;stroke-dasharray:2.8, 1.8;stroke-dashoffset:0;stroke-opacity:1"
       id="path1060" />
    <path
       d="m 627.403,373.106 c 5.571,0 11.912,0.287 15.321,1.394 4.295,1.392 11.84,6.267 14.974,9.053 0,0 2.09,1.393 3.83,3.482 4.527,-2.089 10.447,-0.697 10.447,-0.697 4.527,-0.696 9.401,-1.741 8.705,-6.267 -0.696,-4.528 -15.574,-15.491 -26.116,-21.241 -11.491,-6.268 -21.715,-8.625 -29.25,-10.795 -6.987,-2.012 -8.705,4.527 -9.054,8.357 -0.348,3.83 2.089,11.491 4.755,13.235"
       style="fill:none;stroke:#231f20;stroke-width:0.5;stroke-linecap:round;stroke-linejoin:round;stroke-miterlimit:4;stroke-dasharray:2.8, 1.8;stroke-dashoffset:0;stroke-opacity:1"
       id="path1062" />
    <path
       d="m 671.975,386.338 c 5.919,1.045 14.973,7.313 14.625,16.715"
       style="fill:none;stroke:#231f20;stroke-width:0.5;stroke-linecap:round;stroke-linejoin:round;stroke-miterlimit:4;stroke-dasharray:2.8, 1.8;stroke-dashoffset:0;stroke-opacity:1"
       id="path1064" />
    <path
       d="m 452.599,373.106 c -5.571,0 -11.911,0.287 -15.321,1.394 -4.294,1.392 -11.84,6.267 -14.974,9.053 0,0 -2.089,1.393 -3.83,3.482 -4.526,-2.089 -10.446,-0.697 -10.446,-0.697 -4.528,-0.696 -9.402,-1.741 -8.705,-6.267 0.696,-4.528 15.574,-15.491 26.115,-21.241 11.491,-6.268 21.715,-8.625 29.251,-10.795 6.987,-2.012 8.705,4.527 9.053,8.357 0.348,3.83 -2.089,11.491 -4.755,13.235"
       style="fill:none;stroke:#231f20;stroke-width:0.5;stroke-linecap:round;stroke-linejoin:round;stroke-miterlimit:4;stroke-dasharray:2.8, 1.8;stroke-dashoffset:0;stroke-opacity:1"
       id="path1066" />
    <path
       d="m 408.028,386.338 c -5.92,1.045 -14.974,7.313 -14.625,16.715"
       style="fill:none;stroke:#231f20;stroke-width:0.5;stroke-linecap:round;stroke-linejoin:round;stroke-miterlimit:4;stroke-dasharray:2.8, 1.8;stroke-dashoffset:0;stroke-opacity:1"
       id="path1068" />
    <path
       d="m 725.948,534.678 c -5.223,2.785 -17.759,0.348 -18.804,-8.705 -1.044,-9.054 -0.884,-22.811 -0.696,-27.857"
       style="fill:none;stroke:#231f20;stroke-width:0.5;stroke-linecap:round;stroke-linejoin:round;stroke-miterlimit:4;stroke-dasharray:2.8, 1.8;stroke-dashoffset:0;stroke-opacity:1"
       id="path1070" />
    <path
       d="m 354.054,534.678 c 5.224,2.785 17.759,0.348 18.804,-8.705 1.045,-9.054 0.884,-22.811 0.696,-27.857"
       style="fill:none;stroke:#231f20;stroke-width:0.5;stroke-linecap:round;stroke-linejoin:round;stroke-miterlimit:4;stroke-dasharray:2.8, 1.8;stroke-dashoffset:0;stroke-opacity:1"
       id="path1072" />
    <path
       d="m 790.658,731.364 c 7.882,3.308 43.165,11.261 54.587,3.893"
       style="fill:none;stroke:#231f20;stroke-width:0.5;stroke-linecap:round;stroke-linejoin:round;stroke-miterlimit:4;stroke-dasharray:2.8, 1.8;stroke-dashoffset:0;stroke-opacity:1"
       id="path1074" />
    <path
       d="m 289.345,731.364 c -7.883,3.308 -43.165,11.261 -54.587,3.893"
       style="fill:none;stroke:#231f20;stroke-width:0.5;stroke-linecap:round;stroke-linejoin:round;stroke-miterlimit:4;stroke-dasharray:2.8, 1.8;stroke-dashoffset:0;stroke-opacity:1"
       id="path1076" />
    <path
       d="m 782.342,601.187 c 1.049,1.063 7.678,1.393 4.543,-2.089 -3.133,-3.482 -5.222,-6.965 -5.571,-9.75 -0.348,-2.786 -0.348,-7.312 1.741,-7.312 2.09,0 2.786,1.392 3.83,3.133 1.045,1.742 2.786,2.438 3.135,0.348 0.348,-2.089 1.74,-5.919 4.178,-2.437 2.437,3.482 4.875,6.268 10.098,5.572 5.224,-0.697 9.75,-1.741 11.492,-3.135 1.741,-1.393 5.222,-5.571 3.83,-9.401 -1.393,-3.83 -6.095,-17.658 -9.054,-22.983 -2.611,-4.7 -6.025,-2.621 -7.66,-1.741 -0.855,0.46 -2.09,1.741 -5.572,5.224 -3.482,3.482 -16.597,9.424 -24.664,-3.123"
       style="fill:none;stroke:#231f20;stroke-width:0.75;stroke-linecap:round;stroke-linejoin:round;stroke-miterlimit:4;stroke-dasharray:0, 2;stroke-dashoffset:0;stroke-opacity:1"
       id="path1078" />
    <path
       d="m 725.948,662.821 c 5.951,5.539 10.446,9.053 12.187,11.84 1.741,2.786 3.786,10.76 4.528,13.928 0.482,2.062 3.83,5.223 6.616,1.393 2.785,-3.83 7.66,-12.884 10.794,-21.589 3.134,-8.706 7.661,-14.974 10.795,-19.152 3.134,-4.179 10.272,-13.407 10.098,-19.5 -0.134,-4.644 -8.935,-11.64 -22.168,-3.98 -13.232,7.661 -20.323,14.437 -23.796,17.56 -5.042,4.535 -7.444,6.831 -12.188,12.885 -2.323,2.963 1.693,5.275 3.134,6.615"
       style="fill:#d3d2d2;fill-opacity:1;fill-rule:nonzero;stroke:none;stroke-width:0.1"
       id="path1080" />
    <path
       d="m 725.948,662.821 c 5.951,5.539 10.446,9.053 12.187,11.84 1.741,2.786 3.786,10.76 4.528,13.928 0.482,2.062 3.83,5.223 6.616,1.393 2.785,-3.83 7.66,-12.884 10.794,-21.589 3.134,-8.706 7.661,-14.974 10.795,-19.152 3.134,-4.179 10.272,-13.407 10.098,-19.5 -0.134,-4.644 -8.935,-11.64 -22.168,-3.98 -13.232,7.661 -20.323,14.437 -23.796,17.56 -5.042,4.535 -7.444,6.831 -12.188,12.885 -2.323,2.963 1.693,5.275 3.134,6.615 z"
       style="fill:none;stroke:#231f20;stroke-width:0.75;stroke-linecap:round;stroke-linejoin:round;stroke-miterlimit:4;stroke-dasharray:0, 2;stroke-dashoffset:0;stroke-opacity:1"
       id="path1082" />
    <path
       d="m 770.425,598.476 c -6.521,2.363 -23.584,7.238 -31.593,13.157 -8.009,5.92 -20.544,17.063 -22.634,18.456 -2.089,1.393 -7.313,5.572 -11.491,3.134 -4.179,-2.437 -2.089,-10.446 1.045,-17.411 3.133,-6.964 7.312,-18.804 15.669,-24.375 8.358,-5.571 16.714,-6.616 31.339,-1.741"
       style="fill:none;stroke:#231f20;stroke-width:0.75;stroke-linecap:round;stroke-linejoin:round;stroke-miterlimit:4;stroke-dasharray:0, 2;stroke-dashoffset:0;stroke-opacity:1"
       id="path1084" />
    <path
       d="m 297.66,601.187 c -1.049,1.063 -7.677,1.393 -4.543,-2.089 3.133,-3.482 5.223,-6.965 5.571,-9.75 0.349,-2.786 0.349,-7.312 -1.741,-7.312 -2.089,0 -2.785,1.392 -3.83,3.133 -1.045,1.742 -2.786,2.438 -3.134,0.348 -0.349,-2.089 -1.741,-5.919 -4.179,-2.437 -2.437,3.482 -4.875,6.268 -10.098,5.572 -5.223,-0.697 -9.75,-1.741 -11.491,-3.135 -1.741,-1.393 -5.223,-5.571 -3.831,-9.401 1.394,-3.83 6.096,-17.658 9.054,-22.983 2.611,-4.7 6.026,-2.621 7.661,-1.741 0.854,0.46 2.089,1.741 5.571,5.224 3.483,3.482 16.598,9.424 24.665,-3.123"
       style="fill:none;stroke:#231f20;stroke-width:0.75;stroke-linecap:round;stroke-linejoin:round;stroke-miterlimit:4;stroke-dasharray:0, 2;stroke-dashoffset:0;stroke-opacity:1"
       id="path1086" />
    <path
       d="m 540.002,812.206 c -11.492,0 -24.376,5.919 -31.688,13.58 -7.313,7.661 -1.394,10.098 2.089,11.143 3.482,1.044 24.375,0 29.599,0 5.222,0 26.116,1.044 29.597,0 3.483,-1.045 9.403,-3.482 2.09,-11.143 -7.313,-7.661 -20.196,-13.58 -31.687,-13.58"
       style="fill:#d3d2d2;fill-opacity:1;fill-rule:nonzero;stroke:none;stroke-width:0.1"
       id="path1088" />
    <path
       d="m 540.002,812.206 c -11.492,0 -24.376,5.919 -31.688,13.58 -7.313,7.661 -1.394,10.098 2.089,11.143 3.482,1.044 24.375,0 29.599,0 5.222,0 26.116,1.044 29.597,0 3.483,-1.045 9.403,-3.482 2.09,-11.143 -7.313,-7.661 -20.196,-13.58 -31.687,-13.58 z"
       style="fill:none;stroke:#231f20;stroke-width:0.75;stroke-linecap:round;stroke-linejoin:round;stroke-miterlimit:4;stroke-dasharray:0, 2;stroke-dashoffset:0;stroke-opacity:1"
       id="path1090" />
    <path
       d="m 540.002,699.732 c -11.713,0 -21.274,1.405 -29.947,1.045 -11.439,-0.476 -20.557,-2.84 -23.331,-3.83 -4.875,-1.741 -8.357,-1.741 -4.875,4.526 3.483,6.268 17.759,20.196 24.724,23.679 6.964,3.482 27.16,1.741 33.429,1.741 6.267,0 26.463,1.741 33.428,-1.741 6.964,-3.483 21.241,-17.411 24.723,-23.679 3.482,-6.267 0,-6.267 -4.875,-4.526 -2.774,0.99 -11.891,3.354 -23.33,3.83 -8.674,0.36 -18.234,-1.045 -29.946,-1.045"
       style="fill:#d3d2d2;fill-opacity:1;fill-rule:nonzero;stroke:none;stroke-width:0.1"
       id="path1092" />
    <path
       d="m 540.002,699.732 c -11.713,0 -21.274,1.405 -29.947,1.045 -11.439,-0.476 -20.557,-2.84 -23.331,-3.83 -4.875,-1.741 -8.357,-1.741 -4.875,4.526 3.483,6.268 17.759,20.196 24.724,23.679 6.964,3.482 27.16,1.741 33.429,1.741 6.267,0 26.463,1.741 33.428,-1.741 6.964,-3.483 21.241,-17.411 24.723,-23.679 3.482,-6.267 0,-6.267 -4.875,-4.526 -2.774,0.99 -11.891,3.354 -23.33,3.83 -8.674,0.36 -18.234,-1.045 -29.946,-1.045 z"
       style="fill:none;stroke:#231f20;stroke-width:0.75;stroke-linecap:round;stroke-linejoin:round;stroke-miterlimit:4;stroke-dasharray:0, 2;stroke-dashoffset:0;stroke-opacity:1"
       id="path1094" />
    <path
       d="m 540.002,638.098 c -2.787,0 -11.492,0.348 -19.849,-1.043 -8.358,-1.391 -16.366,-5.224 -27.509,-10.099 -11.143,-4.875 -20.893,-1.045 -26.812,1.044 -5.92,2.089 -10.795,-0.697 -13.581,-0.697 -2.786,0 -7.312,8.705 -7.661,14.974 -0.348,6.267 5.224,14.973 12.536,22.285 7.313,7.312 15.322,6.269 24.723,5.571 9.402,-0.696 44.224,-2.089 58.153,-2.089 13.928,0 48.75,1.393 58.151,2.089 9.402,0.698 17.411,1.741 24.723,-5.571 7.313,-7.312 12.884,-16.018 12.536,-22.285 -0.348,-6.269 -4.875,-14.974 -7.66,-14.974 -2.787,0 -7.662,2.786 -13.581,0.697 -5.919,-2.089 -15.669,-5.919 -26.812,-1.044 -11.144,4.875 -19.152,8.708 -27.51,10.099 -8.356,1.391 -17.062,1.043 -19.847,1.043"
       style="fill:none;stroke:#231f20;stroke-width:0.75;stroke-linecap:round;stroke-linejoin:round;stroke-miterlimit:4;stroke-dasharray:0, 2;stroke-dashoffset:0;stroke-opacity:1"
       id="path1096" />
    <path
       d="m 540.002,607.803 c -18.804,0 -25.769,4.179 -25.42,10.795 0.348,6.616 17.411,4.526 25.42,4.526 8.008,0 25.071,2.09 25.418,-4.526 0.349,-6.616 -6.615,-10.795 -25.418,-10.795"
       style="fill:#d3d2d2;fill-opacity:1;fill-rule:nonzero;stroke:none;stroke-width:0.1"
       id="path1098" />
    <path
       d="m 540.002,607.803 c -18.804,0 -25.769,4.179 -25.42,10.795 0.348,6.616 17.411,4.526 25.42,4.526 8.008,0 25.071,2.09 25.418,-4.526 0.349,-6.616 -6.615,-10.795 -25.418,-10.795 z"
       style="fill:none;stroke:#231f20;stroke-width:0.75;stroke-linecap:round;stroke-linejoin:round;stroke-miterlimit:4;stroke-dasharray:0, 2;stroke-dashoffset:0;stroke-opacity:1"
       id="path1100" />
    <path
       d="m 354.054,662.821 c -5.951,5.539 -10.446,9.053 -12.187,11.84 -1.741,2.786 -3.785,10.76 -4.527,13.928 -0.483,2.062 -3.831,5.223 -6.616,1.393 -2.786,-3.83 -7.661,-12.884 -10.795,-21.589 -3.134,-8.706 -7.66,-14.974 -10.795,-19.152 -3.134,-4.179 -10.271,-13.407 -10.097,-19.5 0.132,-4.644 8.934,-11.64 22.167,-3.98 13.232,7.661 20.323,14.437 23.796,17.56 5.043,4.535 7.444,6.831 12.188,12.885 2.323,2.963 -1.693,5.275 -3.134,6.615"
       style="fill:#d3d2d2;fill-opacity:1;fill-rule:nonzero;stroke:none;stroke-width:0.1"
       id="path1102" />
    <path
       d="m 354.054,662.821 c -5.951,5.539 -10.446,9.053 -12.187,11.84 -1.741,2.786 -3.785,10.76 -4.527,13.928 -0.483,2.062 -3.831,5.223 -6.616,1.393 -2.786,-3.83 -7.661,-12.884 -10.795,-21.589 -3.134,-8.706 -7.66,-14.974 -10.795,-19.152 -3.134,-4.179 -10.271,-13.407 -10.097,-19.5 0.132,-4.644 8.934,-11.64 22.167,-3.98 13.232,7.661 20.323,14.437 23.796,17.56 5.043,4.535 7.444,6.831 12.188,12.885 2.323,2.963 -1.693,5.275 -3.134,6.615 z"
       style="fill:none;stroke:#231f20;stroke-width:0.75;stroke-linecap:round;stroke-linejoin:round;stroke-miterlimit:4;stroke-dasharray:0, 2;stroke-dashoffset:0;stroke-opacity:1"
       id="path1104" />
    <path
       d="m 309.577,598.476 c 6.522,2.363 23.585,7.238 31.593,13.157 8.009,5.92 20.545,17.063 22.634,18.456 2.09,1.393 7.313,5.572 11.491,3.134 4.179,-2.437 2.09,-10.446 -1.045,-17.411 -3.133,-6.964 -7.312,-18.804 -15.668,-24.375 -8.358,-5.571 -16.715,-6.616 -31.34,-1.741"
       style="fill:none;stroke:#231f20;stroke-width:0.75;stroke-linecap:round;stroke-linejoin:round;stroke-miterlimit:4;stroke-dasharray:0, 2;stroke-dashoffset:0;stroke-opacity:1"
       id="path1106" />
  </g>
</svg>
