<?xml version="1.0" encoding="UTF-8" standalone="no"?>
<!-- Created with Inkscape (http://www.inkscape.org/) -->

<svg
   version="1.1"
   id="svg2"
   width="1440"
   height="1344"
   viewBox="0 0 1440 1344"
   xmlns="http://www.w3.org/2000/svg"
   xmlns:svg="http://www.w3.org/2000/svg">
  <defs
     id="defs6" />
  <g
     id="g8">
    <path
       d="m 853.146,788.499 c 3.412,4.274 5.119,6.411 11.1,5.135 5.98,-1.275 15.167,-5.323 19.447,-15.783 4.281,-10.46 8.139,-25.619 8.143,-29.463 0.004,-3.843 0.869,-14.734 1.3,-19.218 0.43,-4.484 1.723,-15.374 4.297,-27.544 2.574,-12.169 3.289,-20.637 1.307,-28.4 -1.256,-4.919 -4.049,-7.478 -4.896,-16.234 -0.844,-8.757 -1.464,-33.102 -2.31,-40.363 -0.847,-7.262 -3.181,-24.134 -3.171,-34.384 0.01,-10.252 3.227,-25.623 4.733,-37.153 1.506,-11.531 0.23,-17.086 -1.47,-26.054 -1.701,-8.971 -3.186,-17.515 -2.97,-19.649 0.215,-2.137 0.01,-10.467 -0.84,-14.736 -0.852,-4.274 0.444,-19.647 1.09,-25.412 0.395,-3.526 1.279,-10.836 2.692,-17.772 0.829,-4.07 3.644,-10.019 2.017,-16.25 -3.369,-12.89 -8.77,-18.847 -11.969,-22.053 -3.201,-3.207 -13.445,-5.319 -19.381,-0.115 -2.771,-3.633 -13.438,-14.746 -23.898,-18.813 -10.461,-4.068 -15.159,-2.364 -20.93,1.902 -5.769,4.265 -10.471,7.251 -12.613,13.868 -4.481,-2.566 -10.249,-0.437 -14.098,3.19 -3.846,3.627 -10.685,10.668 -9.201,20.492 -5.552,-0.005 -14.531,10.451 -19.235,16.639 -4.704,6.189 -11.105,13.87 -11.551,20.918 -0.216,3.416 1.061,6.832 1.061,6.832 0,0 -3.414,-3.418 -7.901,0.207 -4.488,3.627 -17.529,18.561 -19.88,21.337 -2.353,2.772 -3.637,6.616 0.845,9.183 l -2.137,1.492 c 0,0 -1.059,-9.397 -18.132,-20.09 5.123,0.858 15.161,-0.413 19.434,-1.69 4.272,-1.277 11.537,-5.969 14.318,-11.518 2.781,-5.55 3.212,-8.326 3.43,-14.091 0.221,-5.766 1.742,-35.021 1.748,-40.787 0.006,-5.765 0.014,-14.52 -2.75,-27.336 -2.766,-12.815 -6.817,-19.653 -13.43,-25.425 -6.615,-5.773 -25.242,-18.509 -45.674,-27.378 -20.706,-8.988 -36.931,-13.061 -46.324,-16.486 -9.392,-3.427 -24.121,-10.274 -39.92,-14.132 -15.799,-3.86 -40.994,-7.514 -60.214,-7.105 -19.22,0.408 -40.153,7.01 -56.811,7.42 -16.657,0.412 -51.466,0.592 -67.909,1.217 -16.444,0.626 -26.696,2.324 -29.901,3.389 -3.204,1.065 -4.275,4.908 -9.4,4.904 -5.126,-0.006 -13.454,0.199 -19.007,1.262 -5.554,1.062 -47.206,11.914 -61.731,16.172 -14.525,4.257 -32.255,10.005 -51.916,25.363 -19.662,15.357 -26.536,30.92 -35.916,42.461 -12.829,15.792 -30.14,31.363 -40.83,44.166 -10.69,12.804 -17.326,29.883 -21.823,43.545 -4.498,13.662 -3.002,13.45 -0.872,19.005 2.13,5.553 6.389,18.37 5.098,27.765 -1.29,9.395 -9.847,26.044 -13.059,34.583 -3.211,8.537 -4.928,17.506 3.18,24.774 -7.695,7.681 -6.629,9.817 -5.995,16.438 0.635,6.62 3.403,14.738 7.451,24.566 4.048,9.826 7.67,18.799 6.806,29.475 -0.865,10.677 -6.848,14.708 -6.858,25.833 -0.012,12.172 2.757,19.862 7.021,27.768 4.263,7.906 11.727,19.444 20.259,29.702 8.532,10.259 19.835,26.073 25.593,33.979 5.759,7.907 13.862,20.086 19.836,25.859 5.974,5.771 20.696,18.811 26.457,24.369 5.76,5.557 17.498,13.683 26.464,17.323 8.965,3.637 19.212,7.065 23.268,8.564 4.056,1.498 12.594,5.35 17.505,6.85 4.91,1.499 8.328,0.434 12.386,0.011 4.057,-0.423 6.192,0.219 8.752,3.425 2.559,3.206 9.815,7.484 15.153,9.624 5.336,2.14 19.213,6.211 31.811,8.145 12.597,1.934 33.094,5.797 42.703,6.66 9.609,0.864 27.546,2.162 32.884,2.167 5.339,0.005 14.094,0.654 21.996,0.662 7.9,0.007 20.927,0.02 26.052,-0.189 5.125,-0.209 14.946,2.577 20.07,4.076 5.123,1.5 15.798,3.859 24.981,4.294 9.182,0.436 32.191,0.872 48.477,-2.729 21.147,-4.679 27.346,-10.652 40.375,-14.911 7.465,-2.442 33.967,-12.567 38.026,-14.271 4.059,-1.706 16.021,-5.324 25.636,-10.654 9.615,-5.329 41.879,-25.8 55.991,-44.792 14.113,-18.992 14.983,-35.648 14.146,-54.442 -0.836,-18.793 -12.56,-41.653 -22.38,-45.506 -9.818,-3.854 -22.843,-5.788 -35.659,-3.238 5.343,-3.625 10.898,-8.105 12.609,-9.597 1.709,-1.494 4.491,-5.976 5.346,-8.111 0.422,5.126 4.902,10.256 8.958,11.754 4.056,1.499 13.237,3.857 15.157,4.713 1.921,0.856 9.389,7.27 13.878,3.644 -3.21,6.83 -1.507,12.597 1.265,17.725 2.771,5.129 11.302,16.881 13.648,19.233 2.347,2.351 8.75,5.347 11.742,3.641 -1.499,4.269 1.485,10.892 4.045,13.457 2.559,2.566 10.455,9.193 15.151,10.905 4.697,1.713 8.117,-1.914 9.4,-3.834 -1.072,5.337 -3.004,14.09 -0.448,22.208 2.556,8.117 6.61,11.111 14.085,10.05 7.475,-1.061 16.446,-4.041 24.787,-16.633 M 531.926,607.747 c 0,0 -0.852,-1.71 2.784,-7.258 0.488,-0.745 0.987,-1.447 1.487,-2.106 3.219,-4.244 6.423,-6.643 6.423,-6.643 0,0 -3.091,-2.191 -5.462,-5.626 -1.619,-2.345 -2.903,-5.27 -2.64,-8.475 9.614,-5.543 8.769,-14.086 8.769,-14.086 0,0 2.763,12.815 7.029,18.371 4.266,5.557 10.03,7.271 17.928,10.054 -8.33,3.623 -15.688,7.093 -19.229,10.659 -2.711,2.734 -5.352,14.09 -5.141,17.613 0,-0.107 -2.662,-10.022 -11.948,-12.503 z m 0.382,49.116 c 0,0 4.698,-1.277 7.907,-6.826 3.208,-5.549 3.64,-10.674 3.64,-10.674 0,0 1.269,13.668 2.331,19.435 1.063,5.767 4.474,12.177 5.325,14.74 0.851,2.564 2.981,9.613 5.753,13.032 2.773,3.419 10.03,8.338 10.03,8.338 0,0 4.908,2.994 4.694,2.994 -3.841,-2.566 -10.244,-5.562 -16.649,-7.277 -6.406,-1.714 -15.369,-7.062 -19.85,-10.055 -4.483,-2.994 -12.592,-8.554 -14.512,-10.264 -1.921,-1.71 -2.347,-3.419 -3.412,-6.197 -1.065,-2.777 -2.551,-11.319 -5.325,-14.098 5.336,3.208 14.514,7.274 20.068,6.852 z m 8.115,-0.42 c 4.057,-0.636 3.623,6.837 4.047,10.254 0.424,3.418 2.555,8.546 3.192,11.322 0.638,2.776 -5.766,0.848 -8.114,-0.222 -2.347,-1.069 -6.616,-4.704 -9.388,-8.337 -2.773,-3.632 -3.621,-10.467 2.148,-12.597 0,0 4.056,0.218 8.115,-0.42 z m 84.09,50.051 c -3.845,0.85 -6.62,0.634 -9.613,3.621 -2.992,2.986 -10.687,9.172 -11.977,18.353 -1.06,-7.688 -11.302,-15.599 -14.503,-18.164 -3.202,-2.567 -16.432,-12.402 -16.432,-12.402 0,0 13.877,5.138 18.573,6.21 4.697,1.073 16.228,2.792 23.062,1.73 6.835,-1.061 16.019,-3.187 21.148,-6.813 5.129,-3.625 7.265,-5.118 8.334,-7.04 -0.004,4.271 3.408,9.4 6.609,12.393 3.201,2.993 5.974,5.557 9.817,6.629 3.843,1.071 10.035,2.145 10.035,2.145 -10.25,-1.291 -27.115,-5.578 -31.813,-6.65 -4.697,-1.072 -9.394,-0.863 -13.24,-0.012 z M 661.84,475.787 c -9.184,2.127 -15.546,6.928 -18.329,12.905 -1.945,4.189 0.199,14.949 0.199,14.949 -1.062,-5.127 -1.483,-11.534 -4.682,-16.021 -2.273,-3.192 -8.751,-4.707 -11.526,-4.496 -0.757,0.057 -2.659,0.098 -5.075,0.131 8.043,-0.619 17.256,-3.015 25.151,-5.024 4.67,-1.188 9.524,-1.959 14.262,-2.444 z m -58.044,7.743 c -2.777,0.211 -16.871,0.41 -20.074,1.049 -3.204,0.637 -10.041,4.259 -12.603,4.685 -2.564,0.425 -7.479,4.051 -10.257,7.25 -2.78,3.201 -10.267,15.152 -12.191,18.781 -0.099,0.211 -0.209,0.439 -0.323,0.677 l -0.016,-0.061 c 0,0 -0.942,-2.112 -1.795,-3.18 -0.852,-1.068 -1.063,-3.417 -1.061,-5.768 0.002,-2.347 -3.158,-4.361 -5.079,-5.431 l -0.063,-0.034 c 0.301,-0.112 0.595,-0.215 0.876,-0.304 18.372,-6.389 43.166,-30.924 48.297,-37.112 -1.285,3.629 -1.289,7.26 2.551,12.388 3.83,5.117 14.892,6.203 24.062,6.852 -5.385,0.051 -10.894,0.098 -12.324,0.208 z m -72.001,37.09 c 4.058,0.429 7.045,2.781 8.326,4.064 1.279,1.282 2.771,3.419 4.269,1.071 l 0.013,0.004 c -0.928,3.132 -1.642,6.725 -1.732,10.671 -0.019,0.884 -0.039,1.781 -0.058,2.69 -2.552,-11.749 -11.885,-17.862 -14.874,-19.36 -2.989,-1.497 -10.746,1.485 -13.95,2.55 0,0 3.458,-5.25 7.979,-9.386 1.277,3.418 2.57,6.901 10.027,7.696"
       style="fill:#ffffff;fill-opacity:1;fill-rule:nonzero;stroke:none;stroke-width:0.1"
       id="path892" />
    <path
       d="m 853.146,788.499 c 3.412,4.274 5.119,6.411 11.1,5.135 5.98,-1.275 15.167,-5.323 19.447,-15.783 4.281,-10.46 8.139,-25.619 8.143,-29.463 0.004,-3.843 0.869,-14.734 1.3,-19.218 0.43,-4.484 1.723,-15.374 4.297,-27.544 2.574,-12.169 3.289,-20.637 1.307,-28.4 -1.256,-4.919 -4.049,-7.478 -4.896,-16.234 -0.844,-8.757 -1.464,-33.102 -2.31,-40.363 -0.847,-7.262 -3.181,-24.134 -3.171,-34.384 0.01,-10.252 3.227,-25.623 4.733,-37.153 1.506,-11.531 0.23,-17.086 -1.47,-26.054 -1.701,-8.971 -3.186,-17.515 -2.97,-19.649 0.215,-2.137 0.01,-10.467 -0.84,-14.736 -0.852,-4.274 0.444,-19.647 1.09,-25.412 0.395,-3.526 1.279,-10.836 2.692,-17.772 0.829,-4.07 3.644,-10.019 2.017,-16.25 -3.369,-12.89 -8.77,-18.847 -11.969,-22.053 -3.201,-3.207 -13.445,-5.319 -19.381,-0.115 -2.771,-3.633 -13.438,-14.746 -23.898,-18.813 -10.461,-4.068 -15.159,-2.364 -20.93,1.902 -5.769,4.265 -10.471,7.251 -12.613,13.868 -4.481,-2.566 -10.249,-0.437 -14.098,3.19 -3.846,3.627 -10.685,10.668 -9.201,20.492 -5.552,-0.005 -14.531,10.451 -19.235,16.639 -4.704,6.189 -11.105,13.87 -11.551,20.918 -0.216,3.416 1.061,6.832 1.061,6.832 0,0 -3.414,-3.418 -7.901,0.207 -4.488,3.627 -17.529,18.561 -19.88,21.337 -2.353,2.772 -3.637,6.616 0.845,9.183 l -2.137,1.492 c 0,0 -1.059,-9.397 -18.132,-20.09 5.123,0.858 15.161,-0.413 19.434,-1.69 4.272,-1.277 11.537,-5.969 14.318,-11.518 2.781,-5.55 3.212,-8.326 3.43,-14.091 0.221,-5.766 1.742,-35.021 1.748,-40.787 0.006,-5.765 0.014,-14.52 -2.75,-27.336 -2.766,-12.815 -6.817,-19.653 -13.43,-25.425 -6.615,-5.773 -25.242,-18.509 -45.674,-27.378 -20.706,-8.988 -36.931,-13.061 -46.324,-16.486 -9.392,-3.427 -24.121,-10.274 -39.92,-14.132 -15.799,-3.86 -40.994,-7.514 -60.214,-7.105 -19.22,0.408 -40.153,7.01 -56.811,7.42 -16.657,0.412 -51.466,0.592 -67.909,1.217 -16.444,0.626 -26.696,2.324 -29.901,3.389 -3.204,1.065 -4.275,4.908 -9.4,4.904 -5.126,-0.006 -13.454,0.199 -19.007,1.262 -5.554,1.062 -47.206,11.914 -61.731,16.172 -14.525,4.257 -32.255,10.005 -51.916,25.363 -19.662,15.357 -26.536,30.92 -35.916,42.461 -12.829,15.792 -30.14,31.363 -40.83,44.166 -10.69,12.804 -17.326,29.883 -21.823,43.545 -4.498,13.662 -3.002,13.45 -0.872,19.005 2.13,5.553 6.389,18.37 5.098,27.765 -1.29,9.395 -9.847,26.044 -13.059,34.583 -3.211,8.537 -4.928,17.506 3.18,24.774 -7.695,7.681 -6.629,9.817 -5.995,16.438 0.635,6.62 3.403,14.738 7.451,24.566 4.048,9.826 7.67,18.799 6.806,29.475 -0.865,10.677 -6.848,14.708 -6.858,25.833 -0.012,12.172 2.757,19.862 7.021,27.768 4.263,7.906 11.727,19.444 20.259,29.702 8.532,10.259 19.835,26.073 25.593,33.979 5.759,7.907 13.862,20.086 19.836,25.859 5.974,5.771 20.696,18.811 26.457,24.369 5.76,5.557 17.498,13.683 26.464,17.323 8.965,3.637 19.212,7.065 23.268,8.564 4.056,1.498 12.594,5.35 17.505,6.85 4.91,1.499 8.328,0.434 12.386,0.011 4.057,-0.423 6.192,0.219 8.752,3.425 2.559,3.206 9.815,7.484 15.153,9.624 5.336,2.14 19.213,6.211 31.811,8.145 12.597,1.934 33.094,5.797 42.703,6.66 9.609,0.864 27.546,2.162 32.884,2.167 5.339,0.005 14.094,0.654 21.996,0.662 7.9,0.007 20.927,0.02 26.052,-0.189 5.125,-0.209 14.946,2.577 20.07,4.076 5.123,1.5 15.798,3.859 24.981,4.294 9.182,0.436 32.191,0.872 48.477,-2.729 21.147,-4.679 27.346,-10.652 40.375,-14.911 7.465,-2.442 33.967,-12.567 38.026,-14.271 4.059,-1.706 16.021,-5.324 25.636,-10.654 9.615,-5.329 41.879,-25.8 55.991,-44.792 14.113,-18.992 14.983,-35.648 14.146,-54.442 -0.836,-18.793 -12.56,-41.653 -22.38,-45.506 -9.818,-3.854 -22.843,-5.788 -35.659,-3.238 5.343,-3.625 10.898,-8.105 12.609,-9.597 1.709,-1.494 4.491,-5.976 5.346,-8.111 0.422,5.126 4.902,10.256 8.958,11.754 4.056,1.499 13.237,3.857 15.157,4.713 1.921,0.856 9.389,7.27 13.878,3.644 -3.21,6.83 -1.507,12.597 1.265,17.725 2.771,5.129 11.302,16.881 13.648,19.233 2.347,2.351 8.75,5.347 11.742,3.641 -1.499,4.269 1.485,10.892 4.045,13.457 2.559,2.566 10.455,9.193 15.151,10.905 4.697,1.713 8.117,-1.914 9.4,-3.834 -1.072,5.337 -3.004,14.09 -0.448,22.208 2.556,8.117 6.61,11.111 14.085,10.05 7.475,-1.061 16.446,-4.041 24.787,-16.633 M 531.926,607.747 c 0,0 -0.852,-1.71 2.784,-7.258 0.488,-0.745 0.987,-1.447 1.487,-2.106 3.219,-4.244 6.423,-6.643 6.423,-6.643 0,0 -3.091,-2.191 -5.462,-5.626 -1.619,-2.345 -2.903,-5.27 -2.64,-8.475 9.614,-5.543 8.769,-14.086 8.769,-14.086 0,0 2.763,12.815 7.029,18.371 4.266,5.557 10.03,7.271 17.928,10.054 -8.33,3.623 -15.688,7.093 -19.229,10.659 -2.711,2.734 -5.352,14.09 -5.141,17.613 0,-0.107 -2.662,-10.022 -11.948,-12.503 z m 0.382,49.116 c 0,0 4.698,-1.277 7.907,-6.826 3.208,-5.549 3.64,-10.674 3.64,-10.674 0,0 1.269,13.668 2.331,19.435 1.063,5.767 4.474,12.177 5.325,14.74 0.851,2.564 2.981,9.613 5.753,13.032 2.773,3.419 10.03,8.338 10.03,8.338 0,0 4.908,2.994 4.694,2.994 -3.841,-2.566 -10.244,-5.562 -16.649,-7.277 -6.406,-1.714 -15.369,-7.062 -19.85,-10.055 -4.483,-2.994 -12.592,-8.554 -14.512,-10.264 -1.921,-1.71 -2.347,-3.419 -3.412,-6.197 -1.065,-2.777 -2.551,-11.319 -5.325,-14.098 5.336,3.208 14.514,7.274 20.068,6.852 z m 8.115,-0.42 c 4.057,-0.636 3.623,6.837 4.047,10.254 0.424,3.418 2.555,8.546 3.192,11.322 0.638,2.776 -5.766,0.848 -8.114,-0.222 -2.347,-1.069 -6.616,-4.704 -9.388,-8.337 -2.773,-3.632 -3.621,-10.467 2.148,-12.597 0,0 4.056,0.218 8.115,-0.42 z m 84.09,50.051 c -3.845,0.85 -6.62,0.634 -9.613,3.621 -2.992,2.986 -10.687,9.172 -11.977,18.353 -1.06,-7.688 -11.302,-15.599 -14.503,-18.164 -3.202,-2.567 -16.432,-12.402 -16.432,-12.402 0,0 13.877,5.138 18.573,6.21 4.697,1.073 16.228,2.792 23.062,1.73 6.835,-1.061 16.019,-3.187 21.148,-6.813 5.129,-3.625 7.265,-5.118 8.334,-7.04 -0.004,4.271 3.408,9.4 6.609,12.393 3.201,2.993 5.974,5.557 9.817,6.629 3.843,1.071 10.035,2.145 10.035,2.145 -10.25,-1.291 -27.115,-5.578 -31.813,-6.65 -4.697,-1.072 -9.394,-0.863 -13.24,-0.012 z M 661.84,475.787 c -9.184,2.127 -15.546,6.928 -18.329,12.905 -1.945,4.189 0.199,14.949 0.199,14.949 -1.062,-5.127 -1.483,-11.534 -4.682,-16.021 -2.273,-3.192 -8.751,-4.707 -11.526,-4.496 -0.757,0.057 -2.659,0.098 -5.075,0.131 8.043,-0.619 17.256,-3.015 25.151,-5.024 4.67,-1.188 9.524,-1.959 14.262,-2.444 z m -58.044,7.743 c -2.777,0.211 -16.871,0.41 -20.074,1.049 -3.204,0.637 -10.041,4.259 -12.603,4.685 -2.564,0.425 -7.479,4.051 -10.257,7.25 -2.78,3.201 -10.267,15.152 -12.191,18.781 -0.099,0.211 -0.209,0.439 -0.323,0.677 l -0.016,-0.061 c 0,0 -0.942,-2.112 -1.795,-3.18 -0.852,-1.068 -1.063,-3.417 -1.061,-5.768 0.002,-2.347 -3.158,-4.361 -5.079,-5.431 l -0.063,-0.034 c 0.301,-0.112 0.595,-0.215 0.876,-0.304 18.372,-6.389 43.166,-30.924 48.297,-37.112 -1.285,3.629 -1.289,7.26 2.551,12.388 3.83,5.117 14.892,6.203 24.062,6.852 -5.385,0.051 -10.894,0.098 -12.324,0.208 z m -72.001,37.09 c 4.058,0.429 7.045,2.781 8.326,4.064 1.279,1.282 2.771,3.419 4.269,1.071 l 0.013,0.004 c -0.928,3.132 -1.642,6.725 -1.732,10.671 -0.019,0.884 -0.039,1.781 -0.058,2.69 -2.552,-11.749 -11.885,-17.862 -14.874,-19.36 -2.989,-1.497 -10.746,1.485 -13.95,2.55 0,0 3.458,-5.25 7.979,-9.386 1.277,3.418 2.57,6.901 10.027,7.696 z"
       style="fill:none;stroke:#231f20;stroke-width:0.75;stroke-linecap:butt;stroke-linejoin:miter;stroke-miterlimit:4;stroke-dasharray:none;stroke-opacity:1"
       id="path894" />
    <path
       d="m 888.054,500.092 c 0.039,3.901 4.636,13.155 6.166,16.139 1.532,2.986 3.365,6.268 7.24,3.828 3.876,-2.44 9.206,-9.396 10.256,-24.109 1.049,-14.713 -1.039,-42.897 -5.564,-45.25 -4.525,-2.356 -13.213,-1.067 -14.375,2.547 -1.164,3.611 -4.019,10.571 -4.352,17.162 -0.353,6.988 -0.445,12.537 0.525,19.482 0.751,5.383 0.104,10.201 0.104,10.201"
       style="fill:#ffffff;fill-opacity:1;fill-rule:nonzero;stroke:none;stroke-width:0.1"
       id="path896" />
    <path
       d="m 888.054,500.092 c 0.039,3.901 4.636,13.155 6.166,16.139 1.532,2.986 3.365,6.268 7.24,3.828 3.876,-2.44 9.206,-9.396 10.256,-24.109 1.049,-14.713 -1.039,-42.897 -5.564,-45.25 -4.525,-2.356 -13.213,-1.067 -14.375,2.547 -1.164,3.611 -4.019,10.571 -4.352,17.162 -0.353,6.988 -0.445,12.537 0.525,19.482 0.751,5.383 0.104,10.201 0.104,10.201 z"
       style="fill:none;stroke:#231f20;stroke-width:0.75;stroke-linecap:butt;stroke-linejoin:miter;stroke-miterlimit:4;stroke-dasharray:none;stroke-opacity:1"
       id="path898" />
    <path
       d="m 892.758,647.609 c 0.044,4.201 5.521,11.645 10.322,11.597 4.798,-0.05 12.836,-6.433 14.77,-22.655 1.935,-16.222 2.843,-44.736 1.749,-63.629 -1.093,-18.89 -6.986,-37.734 -15.087,-37.651 -8.1,0.083 -13.028,16.937 -14.427,26.853 -1.4,9.915 -3.021,27.334 -1.125,36.916 1.9,9.582 3.256,24.871 3.327,31.772 0.071,6.9 0.471,16.797 0.471,16.797"
       style="fill:#ffffff;fill-opacity:1;fill-rule:nonzero;stroke:none;stroke-width:0.1"
       id="path900" />
    <path
       d="m 892.758,647.609 c 0.044,4.201 5.521,11.645 10.322,11.597 4.798,-0.05 12.836,-6.433 14.77,-22.655 1.935,-16.222 2.843,-44.736 1.749,-63.629 -1.093,-18.89 -6.986,-37.734 -15.087,-37.651 -8.1,0.083 -13.028,16.937 -14.427,26.853 -1.4,9.915 -3.021,27.334 -1.125,36.916 1.9,9.582 3.256,24.871 3.327,31.772 0.071,6.9 0.471,16.797 0.471,16.797 z"
       style="fill:none;stroke:#231f20;stroke-width:0.75;stroke-linecap:butt;stroke-linejoin:miter;stroke-miterlimit:4;stroke-dasharray:none;stroke-opacity:1"
       id="path902" />
    <path
       d="m 269.559,519.729 c -3.843,-1.711 -7.469,-5.559 -9.813,-10.686 -2.345,-5.128 -4.901,-10.683 -2.543,-21.143 2.36,-10.463 4.286,-16.013 13.268,-29.03 8.981,-13.019 23.73,-27.954 33.986,-33.709 10.255,-5.757 32.042,-10.648 40.372,-12.135 8.33,-1.486 21.571,-3.822 46.13,-3.801 24.559,0.025 35.02,1.742 40.357,3.67 5.337,1.928 5.437,1.707 4.903,9.614 -0.433,6.406 -5.287,16.653 -5.287,16.653"
       style="fill:none;stroke:#231f20;stroke-width:0.5;stroke-linecap:butt;stroke-linejoin:miter;stroke-miterlimit:4;stroke-dasharray:none;stroke-opacity:1"
       id="path904" />
    <path
       d="m 284.226,591.496 c 10e-4,-1.068 3.846,-2.773 4.169,-5.121 0.212,1.707 2.133,2.991 3.627,2.993 1.495,0.002 6.087,0.326 6.087,0.326 l -0.324,3.416 c 0,0 -5.125,-0.111 -6.193,-0.006 -1.069,0.106 -1.817,1.066 -1.711,2.988 -1.171,-3.738 -5.658,-1.286 -5.655,-4.596 z"
       style="fill:none;stroke:#231f20;stroke-width:0.75;stroke-linecap:butt;stroke-linejoin:miter;stroke-miterlimit:4;stroke-dasharray:none;stroke-opacity:1"
       id="path906" />
    <path
       d="m 444.658,757.575 c 1.063,3.631 2.762,13.883 -0.016,16.444 -2.779,2.56 -8.331,2.768 -13.883,2.335 -5.552,-0.432 -28.827,-2.589 -35.872,-3.878 -7.047,-1.288 -28.826,-4.084 -33.95,-4.303 -5.125,-0.218 -32.669,-4.088 -46.973,-9.44 -14.302,-5.353 -31.377,-15.619 -40.335,-27.159 -8.958,-11.54 -14.497,-25.853 -13.631,-37.171 0.864,-11.317 7.07,-24.764 17.966,-30.306"
       style="fill:none;stroke:#231f20;stroke-width:0.5;stroke-linecap:butt;stroke-linejoin:miter;stroke-miterlimit:4;stroke-dasharray:none;stroke-opacity:1"
       id="path908" />
    <path
       d="m 497.585,790.938 c 8.752,4.494 18.144,9.2 29.244,13.055 11.101,3.854 26.471,9.421 44.196,9.01 17.725,-0.409 31.394,-3.386 33.745,-4.025 2.35,-0.638 16.022,-6.604 23.073,-10.228 7.05,-3.624 15.811,-8.741 19.016,-11.086 3.205,-2.347 11.754,-9.386 14.744,-10.237 2.991,-0.851 7.264,-2.129 10.682,-2.766"
       style="fill:none;stroke:#231f20;stroke-width:0.5;stroke-linecap:butt;stroke-linejoin:miter;stroke-miterlimit:4;stroke-dasharray:none;stroke-opacity:1"
       id="path910" />
    <path
       d="m 331.171,629.338 c 3.421,-4.694 12.029,-18.587 14.339,-33.514 1.289,-8.326 0.392,-12.324 0.013,-14.521 -0.849,-4.912 -7.455,-19.013 -16.413,-30.766"
       style="fill:none;stroke:#231f20;stroke-width:0.5;stroke-linecap:butt;stroke-linejoin:miter;stroke-miterlimit:4;stroke-dasharray:none;stroke-opacity:1"
       id="path912" />
    <path
       d="m 273.691,666.869 c 2.778,-2.346 10.257,-7.465 15.811,-9.595 5.555,-2.13 18.372,-6.603 24.142,-11.509 5.771,-4.906 14.961,-13.013 17.527,-16.427 3.843,0.644 12.17,1.507 12.17,1.507 0,0 2.99,0.644 6.191,2.355 3.202,1.711 9.818,6.416 13.873,8.128 4.056,1.712 15.572,4.926 23.059,4.933 2.563,0.003 7.254,6.413 8.959,10.472 1.704,4.059 8.526,17.093 11.294,24.783 2.769,7.69 10.863,30.121 14.275,35.89 3.41,5.769 15.567,23.504 30.931,35.264 15.364,11.76 45.238,36.559 46.731,38.056 1.493,1.497 10.672,6.002 10.672,6.002 0,0 -30.526,-12.854 -43.758,-21.623 -13.231,-8.767 -20.486,-14.753 -36.267,-38.045 -15.78,-23.291 -23.672,-33.763 -32.418,-43.808 -7.946,-9.124 -16.847,-23.72 -35.205,-32.066 -18.357,-8.346 -38.214,-11.995 -49.32,-10.083 -11.106,1.911 -16.661,4.682 -17.304,6.603 -0.642,1.921 -6.39,4.052 -10.04,4.048 -1.708,-0.002 -6.836,2.557 -11.323,5.115"
       style="fill:#706d6e;fill-opacity:1;fill-rule:nonzero;stroke:none;stroke-width:0.1"
       id="path914" />
    <path
       d="m 273.691,666.869 c 2.778,-2.346 10.257,-7.465 15.811,-9.595 5.555,-2.13 18.372,-6.603 24.142,-11.509 5.771,-4.906 14.961,-13.013 17.527,-16.427 3.843,0.644 12.17,1.507 12.17,1.507 0,0 2.99,0.644 6.191,2.355 3.202,1.711 9.818,6.416 13.873,8.128 4.056,1.712 15.572,4.926 23.059,4.933 2.563,0.003 7.254,6.413 8.959,10.472 1.704,4.059 8.526,17.093 11.294,24.783 2.769,7.69 10.863,30.121 14.275,35.89 3.41,5.769 15.567,23.504 30.931,35.264 15.364,11.76 45.238,36.559 46.731,38.056 1.493,1.497 10.672,6.002 10.672,6.002 0,0 -30.526,-12.854 -43.758,-21.623 -13.231,-8.767 -20.486,-14.753 -36.267,-38.045 -15.78,-23.291 -23.672,-33.763 -32.418,-43.808 -7.946,-9.124 -16.847,-23.72 -35.205,-32.066 -18.357,-8.346 -38.214,-11.995 -49.32,-10.083 -11.106,1.911 -16.661,4.682 -17.304,6.603 -0.642,1.921 -6.39,4.052 -10.04,4.048 -1.708,-0.002 -6.836,2.557 -11.323,5.115 z"
       style="fill:none;stroke:#231f20;stroke-width:0.5;stroke-linecap:butt;stroke-linejoin:miter;stroke-miterlimit:4;stroke-dasharray:none;stroke-opacity:1"
       id="path916" />
    <path
       d="m 415.772,591.406 40.36,0.039"
       style="fill:none;stroke:#231f20;stroke-width:0.5;stroke-linecap:butt;stroke-linejoin:miter;stroke-miterlimit:4;stroke-dasharray:none;stroke-opacity:1"
       id="path918" />
    <path
       d="m 415.772,591.406 c -3.2,-4.06 -3.835,-8.544 -3.407,-11.107 0.43,-2.562 0.225,-11.318 -0.411,-15.802 -0.637,-4.486 -0.199,-16.231 2.585,-23.703 2.783,-7.471 10.906,-16.86 16.676,-20.485 5.769,-3.625 10.896,-6.182 10.896,-6.182 0,0 5.133,-7.043 11.757,-12.587 6.626,-5.547 23.722,-19.198 27.782,-21.757 4.06,-2.558 9.402,-5.542 9.402,-5.542 0,0 -9.189,6.396 -16.45,6.817 -7.261,0.42 -13.665,-1.722 -17.716,-8.772 -4.051,-7.051 -4.261,-10.682 -2.117,-19.222 2.143,-8.54 9.417,-23.054 18.397,-34.364 8.98,-11.31 13.254,-14.082 27.141,-20.902 13.887,-6.821 29.909,-12.999 47.208,-15.758 17.301,-2.76 37.158,-1.033 51.249,3.466 14.09,4.497 38.636,16.907 44.607,26.308 -1.284,2.135 -0.653,12.171 -0.442,15.374 0.211,3.205 -1.291,9.609 1.056,12.602 2.347,2.991 4.481,3.634 10.034,1.718 5.555,-1.918 21.149,-7.668 27.344,-9.371 6.195,-1.703 11.963,-4.687 11.969,-9.385 0.003,-4.698 -5.12,-7.906 -10.241,-11.115 -5.123,-3.207 -46.531,-23.961 -52.935,-26.101 -6.404,-2.143 -29.03,-14.336 -48.032,-17.343 -19.003,-3.009 -40.788,-1.108 -62.362,5.706 -21.575,6.813 -27.77,9.584 -41.654,12.773 -13.884,3.19 -34.603,9.364 -51.475,10.204 -16.871,0.837 -43.778,0.17 -52.533,0.589 -8.756,0.419 -27.123,1.897 -45.706,6.79 -18.583,4.894 -27.984,10.011 -38.669,17.474 -10.684,7.465 -31.627,23.248 -46.382,44.589 -14.755,21.341 -17.334,38.421 -17.125,43.12 0.21,4.698 -3.003,14.092 -3.007,18.576 -0.004,4.485 2.343,6.836 7.04,7.268 4.698,0.431 22.419,4.291 36.933,11.779 14.514,7.489 26.675,19.673 29.443,28.003 2.769,8.331 3.954,11.162 1.908,14.95 -0.748,1.388 -0.642,2.349 0.85,4.272 1.12,1.436 0.74,8.756 0.63,11.746 -0.11,2.989 -1.723,7.359 -2.892,9.821 -2.89,6.083 -9.129,13.765 -29.812,22.608 -5.982,2.556 -24.779,8.091 -32.897,11.5 -8.118,3.41 -9.189,7.252 -8.343,15.368 0.847,8.115 4.24,33.317 10.421,45.923 6.18,12.605 17.206,25.448 33.917,38.47 15.364,11.974 25.609,17.322 32.014,19.25 6.405,1.928 29.889,8.357 50.387,11.579 20.497,3.223 36.724,6.228 47.614,7.519 10.89,1.293 31.174,4.728 37.366,5.161 6.192,0.434 23.062,2.157 27.118,3.016 4.056,0.857 21.776,6 25.191,7.925 3.415,1.925 16.651,5.567 23.91,7.923 7.258,2.356 21.989,7.922 27.112,8.995 5.125,1.073 28.826,3.659 39.077,3.241 10.25,-0.417 26.269,-3.606 38.874,-9.36 12.605,-5.754 27.564,-17.272 33.974,-21.536 6.411,-4.265 19.017,-11.514 28.416,-14.281 9.399,-2.767 17.303,-6.39 17.948,-10.234 0.644,-3.842 -4.69,-8.119 -8.533,-9.831 -3.842,-1.712 -22.84,-9.204 -26.899,-9.208 -4.057,-0.004 -13.238,-1.721 -14.953,5.325 -1.715,7.045 4.042,16.233 -0.877,23.49 -4.918,7.255 -25.433,22.184 -45.724,26.65 -20.292,4.465 -32.036,4.454 -39.723,4.233 -7.688,-0.221 -29.251,-5.367 -39.285,-9.647 -10.032,-4.28 -16.65,-6.422 -23.053,-10.485 -6.403,-4.064 -19.202,-18.384 -23.68,-24.581 -4.479,-6.197 -10.657,-22.006 -12.569,-32.045 -1.913,-10.038 0.445,-19.859 5.999,-21.348 5.554,-1.49 15.59,-0.84 21.568,0.661 5.978,1.5 17.293,4.714 17.293,4.714 0,0 -22.199,-10.699 -33.082,-19.037 -10.883,-8.338 -32.433,-28.646 -38.831,-36.767 -6.399,-8.121 -17.273,-25.643 -20.462,-40.38 -3.189,-14.738 -4.041,-25.016 -0.827,-29.258 z"
       style="fill:none;stroke:#231f20;stroke-width:0.5;stroke-linecap:butt;stroke-linejoin:miter;stroke-miterlimit:4;stroke-dasharray:none;stroke-opacity:1"
       id="path920" />
    <path
       d="m 485.142,400.56 c 4.487,-2.346 16.237,-7.886 27.56,-12.36 11.322,-4.475 39.304,-12.348 57.028,-11.905 17.725,0.444 35.23,5.586 48.679,12.006 13.446,6.418 24.969,15.397 27.743,17.536 2.775,2.138 7.258,4.065 10.887,5.349 3.629,1.285 10.886,4.281 10.886,4.281"
       style="fill:none;stroke:#231f20;stroke-width:0.5;stroke-linecap:butt;stroke-linejoin:miter;stroke-miterlimit:4;stroke-dasharray:none;stroke-opacity:1"
       id="path922" />
    <path
       d="m 490.91,397.79 c -5.341,2.984 -28.636,22.181 -32.056,25.38 -3.419,3.201 -13.517,10.626 -23.938,22.188 -11.544,12.802 -22.449,27.526 -27.586,39.694 -5.136,12.167 -13.484,32.659 -15.198,38.423 -1.714,5.766 -2.788,13.025 -11.332,14.939 -6.674,1.495 -11.532,-0.011 -22.212,2.755 -10.679,2.765 -20.509,9.376 -29.478,9.368 -4.053,-4.275 -34.363,-19.466 -38.418,-21.605 -4.056,-2.139 -21.133,-9.203 -21.133,-9.203 0,0 4.06,-2.984 7.476,-1.273 3.415,1.71 8.749,6.201 11.31,7.698 2.561,1.497 6.616,4.063 14.945,4.072 8.328,0.007 24.987,-2.326 31.395,-3.601 6.407,-1.275 11.533,-2.125 19.012,-6.816 7.478,-4.69 24.357,-13.004 37.4,-30.502 13.043,-17.5 19.886,-27.743 26.726,-34.783 6.841,-7.041 19.028,-23.045 22.235,-26.459 3.206,-3.414 6.84,-7.682 8.977,-8.961 2.136,-1.279 8.604,-3.096 15.596,-7.673 14.85,-9.723 20.118,-11.886 26.279,-13.641"
       style="fill:#706d6e;fill-opacity:1;fill-rule:nonzero;stroke:none;stroke-width:0.1"
       id="path924" />
    <path
       d="m 490.91,397.79 c -5.341,2.984 -28.636,22.181 -32.056,25.38 -3.419,3.201 -13.517,10.626 -23.938,22.188 -11.544,12.802 -22.449,27.526 -27.586,39.694 -5.136,12.167 -13.484,32.659 -15.198,38.423 -1.714,5.766 -2.788,13.025 -11.332,14.939 -6.674,1.495 -11.532,-0.011 -22.212,2.755 -10.679,2.765 -20.509,9.376 -29.478,9.368 -4.053,-4.275 -34.363,-19.466 -38.418,-21.605 -4.056,-2.139 -21.133,-9.203 -21.133,-9.203 0,0 4.06,-2.984 7.476,-1.273 3.415,1.71 8.749,6.201 11.31,7.698 2.561,1.497 6.616,4.063 14.945,4.072 8.328,0.007 24.987,-2.326 31.395,-3.601 6.407,-1.275 11.533,-2.125 19.012,-6.816 7.478,-4.69 24.357,-13.004 37.4,-30.502 13.043,-17.5 19.886,-27.743 26.726,-34.783 6.841,-7.041 19.028,-23.045 22.235,-26.459 3.206,-3.414 6.84,-7.682 8.977,-8.961 2.136,-1.279 8.604,-3.096 15.596,-7.673 14.85,-9.723 20.118,-11.886 26.279,-13.641 z"
       style="fill:none;stroke:#231f20;stroke-width:0.5;stroke-linecap:butt;stroke-linejoin:miter;stroke-miterlimit:4;stroke-dasharray:none;stroke-opacity:1"
       id="path926" />
    <path
       d="m 589.507,464.082 c 3.422,-5.121 2.789,-14.091 -0.193,-21.783 -2.982,-7.689 -10.445,-19.015 -13.006,-20.939 -2.561,-1.925 -4.096,-2.913 -13.023,-3.856 -10.249,-1.078 -36.946,2.1 -49.765,8.282"
       style="fill:none;stroke:#231f20;stroke-width:0.5;stroke-linecap:butt;stroke-linejoin:miter;stroke-miterlimit:4;stroke-dasharray:none;stroke-opacity:1"
       id="path928" />
    <path
       d="m 542.613,539.12 c -0.195,9.193 -0.293,19.379 0.674,24.433"
       style="fill:none;stroke:#231f20;stroke-width:0.75;stroke-linecap:butt;stroke-linejoin:miter;stroke-miterlimit:4;stroke-dasharray:none;stroke-opacity:1"
       id="path930" />
    <path
       d="m 609.794,689.182 c 6.42,0.533 14.308,0.654 17.512,-1.478 3.206,-2.133 4.751,-5.227 2.572,-8.753 -2.771,-4.487 -11.953,-6.631 -18.143,-9.413 -6.191,-2.783 -17.715,-10.054 -23.259,-18.815 -5.543,-8.76 -7.668,-20.08 -7.236,-25.846 0.432,-5.765 4.926,-14.303 9.839,-16.648 4.915,-2.344 13.46,-5.539 17.304,-6.817 3.845,-1.278 6.411,-5.759 6.63,-9.603 0.216,-3.844 -3.949,-9.68 -7.679,-10.685 -5.549,-1.5 -21.135,-5.573 -25.612,-13.477 -4.478,-7.906 -3.831,-14.525 1.091,-24.771 4.921,-10.247 12.833,-21.983 25.225,-27.738 12.391,-5.755 17.729,-6.176 20.079,-6.388 2.349,-0.21 6.621,-0.633 6.625,-4.05 0.002,-3.417 -5.547,-5.985 -11.099,-6.204 -5.554,-0.218 -14.736,0.84 -23.495,4.463 -8.76,3.622 -19.229,8.95 -23.5,10.868 -4.274,1.918 -11.17,4.007 -17.098,12.797 -4.92,9.605 -3.651,23.914 -2.804,30.749 0.848,6.834 5.538,15.807 9.378,18.373 3.842,2.567 20.708,7.709 22.629,8.135 1.922,0.431 5.338,1.075 7.901,1.077 2.562,0.003 14.306,0.615 14.301,6.848 -0.002,3.416 -7.481,7.253 -10.899,8.104 -3.418,0.851 -26.484,5.099 -31.825,7.017 -5.341,1.916 -10.368,4.387 -11.118,14.083 -0.865,11.104 -0.664,25.198 2.315,36.092 2.98,10.894 8.74,15.811 15.357,19.661 6.616,3.85 25.394,11.616 35.009,12.419 z"
       style="fill:none;stroke:#231f20;stroke-width:0.5;stroke-linecap:butt;stroke-linejoin:miter;stroke-miterlimit:4;stroke-dasharray:none;stroke-opacity:1"
       id="path932" />
    <path
       d="m 610.912,592.018 -42.668,-0.04"
       style="fill:none;stroke:#231f20;stroke-width:0.5;stroke-linecap:butt;stroke-linejoin:miter;stroke-miterlimit:4;stroke-dasharray:none;stroke-opacity:1"
       id="path934" />
    <path
       d="m 602.385,579.678 c 1.929,-7.259 9.886,-25.029 17.79,-27.585 7.904,-2.554 13.88,0.867 17.294,3.433 3.414,2.566 14.513,8.129 17.717,7.705 3.204,-0.424 5.982,-2.984 4.706,-8.537 -1.275,-5.554 -2.338,-11.533 -7.885,-16.237 -5.549,-4.703 -13.87,-11.972 -23.48,-10.914 -9.611,1.059 -16.242,4.856 -21.793,11.084 -6.841,7.682 -19.668,22.484 -19.68,34.442"
       style="fill:none;stroke:#231f20;stroke-width:0.5;stroke-linecap:butt;stroke-linejoin:miter;stroke-miterlimit:4;stroke-dasharray:none;stroke-opacity:1"
       id="path936" />
    <path
       d="m 728.605,536.393 c 0.216,-2.562 1.353,-4.91 3.061,-4.267 0,0 -2.987,-4.059 -3.41,-7.478"
       style="fill:none;stroke:#231f20;stroke-width:0.75;stroke-linecap:butt;stroke-linejoin:miter;stroke-miterlimit:4;stroke-dasharray:none;stroke-opacity:1"
       id="path938" />
    <path
       d="m 731.55,654.916 c 7.049,-2.983 22.651,-15.995 27.362,-29.871 4.712,-13.877 4.932,-21.136 4.09,-34.378 -0.841,-13.241 -5.738,-29.902 -7.229,-33.534 -1.491,-3.633 -6.395,-11.11 -11.731,-15.599 -5.334,-4.49 -12.376,-9.408 -12.376,-9.408"
       style="fill:none;stroke:#231f20;stroke-width:0.5;stroke-linecap:butt;stroke-linejoin:miter;stroke-miterlimit:4;stroke-dasharray:none;stroke-opacity:1"
       id="path940" />
    <path
       d="m 728.126,661.746 c 0.645,-3.203 1.714,-5.978 3.424,-6.83 0,0 -3.205,1.492 -3.842,-1.712"
       style="fill:none;stroke:#231f20;stroke-width:0.75;stroke-linecap:butt;stroke-linejoin:miter;stroke-miterlimit:4;stroke-dasharray:none;stroke-opacity:1"
       id="path942" />
    <path
       d="m 728.107,682.461 c 3.418,-0.851 26.489,-9.586 33.326,-14.49"
       style="fill:none;stroke:#231f20;stroke-width:0.5;stroke-linecap:butt;stroke-linejoin:miter;stroke-miterlimit:4;stroke-dasharray:none;stroke-opacity:1"
       id="path944" />
    <path
       d="m 723.619,686.514 c 1.283,-2.135 2.992,-3.201 4.488,-4.053 0,0 -2.99,0.638 -2.346,-3.633"
       style="fill:none;stroke:#231f20;stroke-width:0.75;stroke-linecap:butt;stroke-linejoin:miter;stroke-miterlimit:4;stroke-dasharray:none;stroke-opacity:1"
       id="path946" />
    <path
       d="m 721.478,691.636 c 1.07,-2.561 3.424,-6.91 4.928,-16.437 1.718,-10.89 2.791,-16.441 0.664,-25.626 -2.126,-9.184 -4.676,-23.495 -9.362,-35.031 -4.688,-11.536 -7.568,-22.182 -7.236,-26.7 0.433,-5.98 6.207,-15.156 9.633,-23.268 3.423,-8.112 10.699,-23.48 8.151,-39.926 -2.548,-16.446 -5.529,-24.35 -5.529,-24.35"
       style="fill:none;stroke:#231f20;stroke-width:0.75;stroke-linecap:butt;stroke-linejoin:miter;stroke-miterlimit:4;stroke-dasharray:none;stroke-opacity:1"
       id="path948" />
    <path
       d="m 134.102,590.499 149.91,0.997"
       style="fill:none;stroke:#231f20;stroke-width:0.75;stroke-linecap:butt;stroke-linejoin:miter;stroke-miterlimit:4;stroke-dasharray:none;stroke-opacity:1"
       id="path950" />
    <path
       d="m 543.855,639.363 c -0.211,-2.99 0.019,-19.113 0.019,-19.113"
       style="fill:none;stroke:#231f20;stroke-width:0.75;stroke-linecap:butt;stroke-linejoin:miter;stroke-miterlimit:4;stroke-dasharray:none;stroke-opacity:1"
       id="path952" />
    <path
       d="m 512.24,650.011 c -5.975,-4.277 -12.802,-10.477 -20.268,-19.453 -7.466,-8.976 -13.011,-16.668 -10.019,-19.228"
       style="fill:none;stroke:#231f20;stroke-width:0.5;stroke-linecap:butt;stroke-linejoin:miter;stroke-miterlimit:4;stroke-dasharray:none;stroke-opacity:1"
       id="path954" />
    <path
       d="m 862.265,403.051 c 1.279,3.205 5.537,17.517 7.238,23.925"
       style="fill:none;stroke:#231f20;stroke-width:0.5;stroke-linecap:butt;stroke-linejoin:miter;stroke-miterlimit:4;stroke-dasharray:none;stroke-opacity:1"
       id="path956" />
    <path
       d="m 804.824,400.008 c 9.605,5.989 17.073,12.188 26.248,21.166 9.174,8.977 13.224,14.534 15.996,20.089 2.771,5.556 8.312,17.945 10.006,32.896 1.693,14.951 2.322,28.832 2.322,28.832"
       style="fill:none;stroke:#231f20;stroke-width:0.5;stroke-linecap:butt;stroke-linejoin:miter;stroke-miterlimit:4;stroke-dasharray:none;stroke-opacity:1"
       id="path958" />
    <path
       d="m 809.892,461.088 c -5.762,-4.062 -10.451,-13.462 -15.784,-19.662 -5.333,-6.197 -12.583,-17.736 -12.583,-17.736"
       style="fill:none;stroke:#231f20;stroke-width:0.5;stroke-linecap:butt;stroke-linejoin:miter;stroke-miterlimit:4;stroke-dasharray:none;stroke-opacity:1"
       id="path960" />
    <path
       d="m 724.864,498.806 c 4.909,2.14 11.313,4.495 15.798,5.353 4.484,0.858 15.798,3.646 22.414,8.776"
       style="fill:none;stroke:#231f20;stroke-width:0.5;stroke-linecap:butt;stroke-linejoin:miter;stroke-miterlimit:4;stroke-dasharray:none;stroke-opacity:1"
       id="path962" />
    <path
       d="m 759.471,711.747 c 6.625,-5.76 29.281,-25.812 34.623,-29.865 5.343,-4.052 16.241,-12.797 20.731,-17.277 4.489,-4.481 12.821,-8.957 15.607,-19.846 2.786,-10.888 3.218,-14.518 1.542,-50.182 -1.674,-35.664 -5.502,-53.179 -8.056,-61.51 -2.555,-8.33 -9.588,-22.432 -19.19,-31.196 -9.602,-8.765 -25.181,-19.244 -32.651,-23.308 C 764.607,474.5 751.8,468.079 751.8,468.079"
       style="fill:none;stroke:#231f20;stroke-width:0.5;stroke-linecap:butt;stroke-linejoin:miter;stroke-miterlimit:4;stroke-dasharray:none;stroke-opacity:1"
       id="path964" />
    <path
       d="m 786.126,752.346 c 2.564,-2.133 5.987,-8.963 8.984,-14.94 2.995,-5.976 6.204,-13.661 12.618,-20.062"
       style="fill:none;stroke:#231f20;stroke-width:0.5;stroke-linecap:butt;stroke-linejoin:miter;stroke-miterlimit:4;stroke-dasharray:none;stroke-opacity:1"
       id="path966" />
    <path
       d="m 814.722,772.874 c 3.207,-3.414 6.842,-8.749 10.051,-14.085 3.207,-5.336 10.477,-15.152 12.615,-18.14 2.139,-2.987 6.842,-8.109 9.196,-14.086 2.355,-5.977 7.488,-13.873 8.558,-15.794 1.069,-1.92 2.568,-7.044 4.279,-9.178 1.709,-2.134 5.346,-7.683 6.848,-16.01"
       style="fill:none;stroke:#231f20;stroke-width:0.5;stroke-linecap:butt;stroke-linejoin:miter;stroke-miterlimit:4;stroke-dasharray:none;stroke-opacity:1"
       id="path968" />
    <path
       d="m 853.146,788.499 c 2.352,-3.628 5.564,-13.234 6.421,-16.01 0.856,-2.775 3.181,-10.267 4.497,-12.595 1.926,-3.416 4.066,-9.606 5.354,-15.371"
       style="fill:none;stroke:#231f20;stroke-width:0.5;stroke-linecap:butt;stroke-linejoin:miter;stroke-miterlimit:4;stroke-dasharray:none;stroke-opacity:1"
       id="path970" />
    <path
       d="m 680.357,593.472 c 0,-1.495 1.709,-2.027 2.672,-1.812 0.959,0.214 1.92,0.855 2.988,0.323 1.068,-0.533 2.456,-0.959 3.313,-2.346 0.854,-1.387 3.524,-1.385 5.66,-2.556 2.136,-1.173 4.594,-2.239 6.089,-2.452 1.495,-0.211 3.096,-0.531 3.202,0.964 0.105,1.495 -0.11,2.777 -0.11,2.777 0,0 2.349,1.07 2.349,1.497 -10e-4,0.426 -0.11,3.096 -0.11,3.096 0,0 -1.389,0.96 -1.496,1.92 -0.108,0.962 0.529,4.272 -1.5,4.163 -2.029,-0.108 -6.085,-0.647 -7.26,-0.967 -1.174,-0.322 -4.59,-0.645 -4.59,-0.645 l -1.068,0.533 c 0,0 -1.921,-0.857 -2.348,-1.497 -0.426,-0.642 -1.174,-1.817 -2.882,-1.285 -0.821,0.253 -1.876,0.639 -2.862,0.365 -1.074,-0.302 -2.049,-1.304 -2.047,-2.078"
       style="fill:#706d6e;fill-opacity:1;fill-rule:nonzero;stroke:none;stroke-width:0.1"
       id="path972" />
    <path
       d="m 680.357,593.472 c 0,-1.495 1.709,-2.027 2.672,-1.812 0.959,0.214 1.92,0.855 2.988,0.323 1.068,-0.533 2.456,-0.959 3.313,-2.346 0.854,-1.387 3.524,-1.385 5.66,-2.556 2.136,-1.173 4.594,-2.239 6.089,-2.452 1.495,-0.211 3.096,-0.531 3.202,0.964 0.105,1.495 -0.11,2.777 -0.11,2.777 0,0 2.349,1.07 2.349,1.497 -10e-4,0.426 -0.11,3.096 -0.11,3.096 0,0 -1.389,0.96 -1.496,1.92 -0.108,0.962 0.529,4.272 -1.5,4.163 -2.029,-0.108 -6.085,-0.647 -7.26,-0.967 -1.174,-0.322 -4.59,-0.645 -4.59,-0.645 l -1.068,0.533 c 0,0 -1.921,-0.857 -2.348,-1.497 -0.426,-0.642 -1.174,-1.817 -2.882,-1.285 -0.821,0.253 -1.876,0.639 -2.862,0.365 -1.074,-0.302 -2.049,-1.304 -2.047,-2.078 z"
       style="fill:none;stroke:#231f20;stroke-width:0.5;stroke-linecap:butt;stroke-linejoin:miter;stroke-miterlimit:4;stroke-dasharray:none;stroke-opacity:1"
       id="path974" />
    <path
       d="m 673.074,616.635 c -1.486,-10.252 -0.61,-32.674 0.896,-45.058"
       style="fill:none;stroke:#231f20;stroke-width:0.5;stroke-linecap:butt;stroke-linejoin:miter;stroke-miterlimit:4;stroke-dasharray:none;stroke-opacity:1"
       id="path976" />
    <path
       d="m 670.084,616.419 -2.967,-23.493 3.651,-22.42"
       style="fill:none;stroke:#231f20;stroke-width:0.5;stroke-linecap:butt;stroke-linejoin:miter;stroke-miterlimit:4;stroke-dasharray:none;stroke-opacity:1"
       id="path978" />
    <path
       d="m 665.39,613.211 -2.116,-21.57 3.647,-19.002"
       style="fill:none;stroke:#231f20;stroke-width:0.5;stroke-linecap:butt;stroke-linejoin:miter;stroke-miterlimit:4;stroke-dasharray:none;stroke-opacity:1"
       id="path980" />
    <path
       d="m 588.593,610.08 c 1.701,7.475 6.516,26.982 13.343,34.89 6.825,7.907 15.577,11.973 23.264,13.262 7.686,1.289 14.95,-2.121 19.651,-5.32 4.701,-3.199 9.615,-5.33 13.039,-12.801 3.424,-7.47 4.711,-14.089 0.229,-16.87 -4.483,-2.78 -7.666,-1.301 -12.815,1.91 -6.838,4.265 -14.1,7.034 -20.932,5.105 -6.831,-1.928 -13.019,-8.554 -16.215,-14.963 -3.199,-6.41 -4.808,-12.036 -4.808,-12.036"
       style="fill:none;stroke:#231f20;stroke-width:0.5;stroke-linecap:butt;stroke-linejoin:miter;stroke-miterlimit:4;stroke-dasharray:none;stroke-opacity:1"
       id="path982" />
    <path
       d="m 387.131,646.338 c -0.852,-2.777 -1.718,-18.016 -2.358,-19.085 -0.639,-1.068 -7.458,-16.876 -9.164,-19.227 -1.706,-2.351 -10.226,-11.321 -12.16,-13.252 -2.346,-2.351 -2.344,-4.699 0.648,-7.26 2.992,-2.56 8.764,-8.961 10.26,-10.668 1.497,-1.707 2.568,-5.336 3.638,-8.111 1.07,-2.776 4.283,-12.809 4.927,-15.584 0.643,-2.776 1.08,-14.307 3.006,-17.081"
       style="fill:none;stroke:#231f20;stroke-width:0.5;stroke-linecap:butt;stroke-linejoin:miter;stroke-miterlimit:4;stroke-dasharray:none;stroke-opacity:1"
       id="path984" />
    <path
       d="m 474.944,571.175 c 2.14,-4.909 8.128,-14.513 12.831,-19.847 4.704,-5.335 10.263,-12.163 14.75,-16.429 4.49,-4.268 11.264,-12.589 11.264,-12.589"
       style="fill:none;stroke:#231f20;stroke-width:0.5;stroke-linecap:butt;stroke-linejoin:miter;stroke-miterlimit:4;stroke-dasharray:none;stroke-opacity:1"
       id="path986" />
    <path
       d="m 536.197,598.383 c 3.219,-4.244 6.423,-6.643 6.423,-6.643 0,0 -3.091,-2.191 -5.462,-5.626"
       style="fill:none;stroke:#231f20;stroke-width:0.75;stroke-linecap:butt;stroke-linejoin:miter;stroke-miterlimit:4;stroke-dasharray:none;stroke-opacity:1"
       id="path988" />
    <path
       d="m 463.185,586.327 c -1.283,0.853 -7.053,5.118 -7.053,5.118 0,0 2.776,0.643 8.324,5.347 0.509,0.431 1.044,0.871 1.597,1.316"
       style="fill:none;stroke:#231f20;stroke-width:0.5;stroke-linecap:butt;stroke-linejoin:miter;stroke-miterlimit:4;stroke-dasharray:none;stroke-opacity:1"
       id="path990" />
    <path
       d="m 768.739,679.085 c 6.491,-5.533 20.223,-17.609 27.013,-28.481 6.79,-10.871 10.546,-25.012 11.75,-54.129 1.201,-29.117 -1.782,-56.689 -6.986,-66.839 -5.204,-10.149 -20.98,-27.091 -30.945,-33.288 -9.965,-6.201 -12.691,-8.572 -18.075,-7.017 0,0 22.612,10.57 32.353,24.273 9.742,13.702 17.797,38.525 18.567,55.02 0.768,16.494 -0.217,37.507 -3.071,51.938 -2.852,14.432 -7.567,22.882 -9.615,28.004 -2.049,5.122 -12.413,18.429 -18.361,23.591 -5.95,5.162 -14.872,12.754 -16.96,13.976 -2.088,1.221 -1.467,3.315 2.112,1.179 3.579,-2.138 9.096,-5.565 12.218,-8.227 z"
       style="fill:none;stroke:#231f20;stroke-width:0.5;stroke-linecap:butt;stroke-linejoin:miter;stroke-miterlimit:4;stroke-dasharray:none;stroke-opacity:1"
       id="path992" />
    <path
       d="m 769.568,642.771 c 5.478,-6.204 14.519,-17.851 15.33,-26.562 0.812,-8.709 2.045,-34.826 0.119,-47.109 -1.926,-12.281 -3.83,-22.463 -12.926,-31.672 -9.095,-9.209 -19.982,-17.5 -19.982,-17.5 0,0 13.271,6.767 18.422,11.514 5.148,4.749 16.402,19.637 17.101,29.23 0.698,9.596 2.764,35.678 1.123,51.298 -1.64,15.619 -7.527,26.781 -14.372,32.252 -6.844,5.47 -16.078,12.166 -17.579,12.181 -1.5,0.015 10.156,-10.678 12.764,-13.632 z"
       style="fill:none;stroke:#231f20;stroke-width:0.5;stroke-linecap:butt;stroke-linejoin:miter;stroke-miterlimit:4;stroke-dasharray:none;stroke-opacity:1"
       id="path994" />
    <path
       d="m 857.337,599.266 c -0.827,-14.105 -1.952,-44.088 -2.353,-53.984 -0.4,-9.898 -4.73,-22.455 -12.963,-35.274 -8.231,-12.818 -13.442,-23.566 -30.632,-32.092 -17.19,-8.527 -29.279,-17.102 -32.907,-19.767 -3.628,-2.663 -6.99,-8.629 -2.15,-4.778 4.841,3.85 19.343,13.604 26.58,17.131 7.238,3.527 18.087,8.216 21.66,5.479 3.572,-2.736 4.64,-15.649 1.566,-22.819 -3.072,-7.171 -15.827,-22.042 -18.256,-24.717 -2.427,-2.677 -2.145,-4.48 1.788,-1.22 3.935,3.261 17.255,14.826 20.078,26.8 2.824,11.973 2.658,25.177 7.275,36.53 4.615,11.356 19.875,36.404 25.281,36.948 5.406,0.546 10.125,-7.604 11.161,-23.517 1.038,-15.913 0.501,-39.012 -0.2,-48.906 -0.701,-9.895 -3.172,-16.77 -6.5,-19.436 -3.328,-2.667 -5.467,-6.546 -6.4,-9.837 0,0 7.304,10.127 11.207,10.387 3.903,0.261 7.461,-3.977 7.461,-3.977 0,0 -4.44,6.047 -4.063,13.543 0.377,7.498 0.864,25.797 0.992,38.399 0.129,12.599 0.298,29.1 -2.867,42.335 -3.164,13.235 -1.498,29.419 -0.081,50.708 1.417,21.29 5.049,53.657 7.564,64.734 2.513,11.076 8.363,25.718 8.737,32.916 0.374,7.197 -2.8,19.531 -6.315,27.969 -3.514,8.437 -7.628,16.881 -5.777,21.963 1.853,5.082 5.224,11.948 5.224,11.948 0,0 -2.41,-0.876 -3.635,-3.264 -1.225,-2.387 -2.18,-7.779 -8.118,-1.717 -5.939,6.062 -10.968,13.014 -15.105,19.358 -4.134,6.343 -8.841,15.693 -11.504,19.321 -2.664,3.628 -8.596,10.289 -6.833,6.671 1.763,-3.619 6.18,-11.766 9.716,-18.103 3.536,-6.337 10.341,-15.708 13.606,-19.342 3.263,-3.634 12.767,-13.032 12.731,-16.633 -0.036,-3.6 0.825,-7.278 7.298,-19.877 6.473,-12.6 7.75,-34.285 2.59,-40.233 -5.163,-5.949 -18.359,-5.514 -29.045,5.998 -10.684,11.51 -17.457,23.882 -23.911,38.35 -6.452,14.468 -12.333,26.23 -14.675,31.955 -2.342,5.725 -3.506,9.338 -5.315,8.456 -1.81,-0.882 -0.04,-3.901 3.481,-11.737 3.52,-7.838 16.129,-36.471 12.795,-39.738 -3.334,-3.266 -12.313,-1.074 -21.843,5.924 -9.53,6.999 -17.229,16.979 -19.348,15.201 -2.118,-1.779 7.984,-11.484 15.139,-16.058 7.153,-4.574 36.62,-27.979 43.455,-34.349 6.837,-6.372 18.133,-16.689 17.105,-29.28 -1.029,-12.592 -2.992,-26.408 -3.694,-38.369 z"
       style="fill:none;stroke:#231f20;stroke-width:0.5;stroke-linecap:butt;stroke-linejoin:miter;stroke-miterlimit:4;stroke-dasharray:none;stroke-opacity:1"
       id="path996" />
    <path
       d="m 466.053,598.108 c -0.553,-0.445 -1.088,-0.885 -1.597,-1.316 -5.548,-4.704 -8.324,-5.347 -8.324,-5.347 0,0 5.77,-4.265 7.053,-5.118 1.282,-0.854 7.79,-10.584 11.759,-15.152 -1.286,5.552 15.367,9.198 19.424,9.415 4.057,0.217 18.152,-0.41 20.929,-1.048 2.776,-0.637 13.247,-0.614 19.221,-1.903 -0.263,3.205 1.021,6.13 2.64,8.475 2.371,3.435 5.462,5.626 5.462,5.626 0,0 -3.204,2.399 -6.423,6.643 -0.5,0.659 -0.999,1.361 -1.487,2.106 -3.636,5.548 -2.784,7.258 -2.784,7.258 0,0 -9.394,-2.359 -12.169,-2.788 -10.209,-1.578 -16.444,0.625 -24.133,2.113 -7.689,1.487 -11.075,1.515 -14.495,5.996 -2.322,-5.432 -9.603,-10.543 -15.076,-14.96"
       style="fill:#706d6e;fill-opacity:1;fill-rule:nonzero;stroke:none;stroke-width:0.1"
       id="path998" />
    <path
       d="m 466.053,598.108 c -0.553,-0.445 -1.088,-0.885 -1.597,-1.316 -5.548,-4.704 -8.324,-5.347 -8.324,-5.347 0,0 5.77,-4.265 7.053,-5.118 1.282,-0.854 7.79,-10.584 11.759,-15.152 -1.286,5.552 15.367,9.198 19.424,9.415 4.057,0.217 18.152,-0.41 20.929,-1.048 2.776,-0.637 13.247,-0.614 19.221,-1.903 -0.263,3.205 1.021,6.13 2.64,8.475 2.371,3.435 5.462,5.626 5.462,5.626 0,0 -3.204,2.399 -6.423,6.643 -0.5,0.659 -0.999,1.361 -1.487,2.106 -3.636,5.548 -2.784,7.258 -2.784,7.258 0,0 -9.394,-2.359 -12.169,-2.788 -10.209,-1.578 -16.444,0.625 -24.133,2.113 -7.689,1.487 -11.075,1.515 -14.495,5.996 -2.322,-5.432 -9.603,-10.543 -15.076,-14.96 z"
       style="fill:none;stroke:#231f20;stroke-width:0.5;stroke-linecap:butt;stroke-linejoin:miter;stroke-miterlimit:4;stroke-dasharray:none;stroke-opacity:1"
       id="path1000" />
    <path
       d="m 529.413,763.677 c 13.547,3.482 32.456,6.33 37.623,6.094 5.169,-0.235 19.16,-3.275 28.612,-16.067 1.881,-2.546 3.531,-5.565 4.912,-9.008 3.852,-9.606 2.364,-16.441 2.364,-16.441"
       style="fill:none;stroke:#231f20;stroke-width:0.5;stroke-linecap:butt;stroke-linejoin:miter;stroke-miterlimit:4;stroke-dasharray:none;stroke-opacity:1"
       id="path1002" />
    <path
       d="m 704.595,480.208 c -4.697,-1.926 -18.574,-5.143 -27.33,-5.151 -8.756,-0.01 -19.647,0.621 -29.687,3.174"
       style="fill:none;stroke:#231f20;stroke-width:0.75;stroke-linecap:butt;stroke-linejoin:miter;stroke-miterlimit:4;stroke-dasharray:none;stroke-opacity:1"
       id="path1004" />
    <path
       d="m 544.39,525.755 c 0.736,-2.255 2.486,-7.005 3.86,-9.505"
       style="fill:#ffffff;fill-opacity:1;fill-rule:nonzero;stroke:none;stroke-width:0.1"
       id="path1006" />
    <path
       d="m 544.39,525.755 c 0.736,-2.255 2.486,-7.005 3.86,-9.505"
       style="fill:none;stroke:#231f20;stroke-width:0.75;stroke-linecap:butt;stroke-linejoin:miter;stroke-miterlimit:4;stroke-dasharray:none;stroke-opacity:1"
       id="path1008" />
    <path
       d="m 521.768,512.924 c 4.454,-3.873 10.858,-8.924 18.629,-11.392"
       style="fill:#ffffff;fill-opacity:1;fill-rule:nonzero;stroke:none;stroke-width:0.1"
       id="path1010" />
    <path
       d="m 521.768,512.924 c 4.454,-3.873 10.858,-8.924 18.629,-11.392"
       style="fill:none;stroke:#231f20;stroke-width:0.75;stroke-linecap:butt;stroke-linejoin:miter;stroke-miterlimit:4;stroke-dasharray:none;stroke-opacity:1"
       id="path1012" />
    <path
       d="m 616.12,483.322 c 1.875,0 4.289,0.031 6.307,-0.067"
       style="fill:#ffffff;fill-opacity:1;fill-rule:nonzero;stroke:none;stroke-width:0.1"
       id="path1014" />
    <path
       d="m 616.12,483.322 c 1.875,0 4.289,0.031 6.307,-0.067"
       style="fill:none;stroke:#231f20;stroke-width:0.75;stroke-linecap:butt;stroke-linejoin:miter;stroke-miterlimit:4;stroke-dasharray:none;stroke-opacity:1"
       id="path1016" />
    <path
       d="m 669.566,713.156 c 6.927,1.174 26.737,1.442 33.957,-3.812"
       style="fill:none;stroke:#231f20;stroke-width:0.75;stroke-linecap:butt;stroke-linejoin:miter;stroke-miterlimit:4;stroke-dasharray:none;stroke-opacity:1"
       id="path1018" />
    <path
       d="m 384.617,539.935 c -2.99,-0.004 -4.041,9.796 -5.753,13.425 -1.712,3.628 -2.319,9.647 -9.839,16.646 -3.206,2.989 -5.346,7.471 -8.552,10.671 -3.206,3.198 -8.336,7.466 -8.766,11.31 -0.431,3.843 7.037,10.684 9.383,13.462 2.347,2.779 7.68,8.977 9.17,13.463 1.49,4.486 6.184,8.761 8.53,12.394 2.346,3.632 8.341,15.032 8.341,15.032"
       style="fill:none;stroke:#231f20;stroke-width:0.5;stroke-linecap:round;stroke-linejoin:round;stroke-miterlimit:4;stroke-dasharray:2.8, 1.8;stroke-dashoffset:0;stroke-opacity:1"
       id="path1020" />
    <path
       d="m 643.753,683.875 c -1.279,-0.855 -3.418,0.638 -3.419,3.201 -0.002,2.562 -8.553,11.736 -18.805,13.65 -10.252,1.911 -18.515,3.192 -32.885,-1.313 C 578.396,696.2 564.95,689.14 564.95,689.14 c 0,0 -5.548,-4.276 -8.317,-12.821 -2.767,-8.545 -5.967,-12.819 -7.245,-16.664 -1.277,-3.845 -2.33,-20.716 -2.534,-30.326 -0.204,-9.61 2.368,-19.431 5.362,-23.699 2.992,-4.268 12.395,-9.598 15.385,-10.022 2.989,-0.424 16.445,-1.266 21.996,-1.26 5.553,0.005 20.49,-0.408 20.49,-0.408"
       style="fill:none;stroke:#231f20;stroke-width:0.5;stroke-linecap:round;stroke-linejoin:round;stroke-miterlimit:4;stroke-dasharray:2.8, 1.8;stroke-dashoffset:0;stroke-opacity:1"
       id="path1022" />
    <path
       d="m 630.932,508.421 c 3.631,-0.423 7.009,-0.301 8.503,-0.301 1.496,0.003 3.807,-0.291 4.621,-3.479 4.264,9.185 12.726,35.742 14.213,43.645"
       style="fill:none;stroke:#231f20;stroke-width:0.5;stroke-linecap:round;stroke-linejoin:round;stroke-miterlimit:4;stroke-dasharray:2.8, 1.8;stroke-dashoffset:0;stroke-opacity:1"
       id="path1024" />
    <path
       d="m 610.32,589.668 c 0,0 -32.89,-0.884 -37.587,-1.103 -4.698,-0.217 -10.675,-2.359 -13.663,-3.856 -2.989,-1.498 -5.551,-2.782 -8.748,-8.978 -3.198,-6.195 -5.112,-13.672 -4.244,-27.764 0.867,-14.094 2.586,-24.557 8.362,-36.082 5.776,-11.527 14.325,-18.352 17.528,-19.203 3.204,-0.851 8.76,-3.195 11.537,-4.047 2.777,-0.852 9.183,-1.058 12.813,-1.054 3.631,10e-4 19.221,-0.411 22.85,-0.409 3.631,0.005 12.914,-0.293 15.587,2.578 2.987,3.208 6.184,10.043 6.395,11.967 0.212,1.922 1.279,2.35 2.56,1.924"
       style="fill:none;stroke:#231f20;stroke-width:0.5;stroke-linecap:round;stroke-linejoin:round;stroke-miterlimit:4;stroke-dasharray:2.8, 1.8;stroke-dashoffset:0;stroke-opacity:1"
       id="path1026" />
    <path
       d="m 674.861,462.174 c 2.988,2.138 10.738,6.911 14.795,7.555 4.056,0.645 7.688,-0.42 7.267,-7.039 -0.421,-6.621 -13.123,-8.471 -13.123,-8.471"
       style="fill:none;stroke:#231f20;stroke-width:0.5;stroke-linecap:round;stroke-linejoin:round;stroke-miterlimit:4;stroke-dasharray:2.8, 1.8;stroke-dashoffset:0;stroke-opacity:1"
       id="path1028" />
    <path
       d="m 666.382,465.436 c -8.544,2.769 -23.711,7.666 -30.117,8.087 -6.407,0.421 -15.377,1.053 -19.006,1.05 -3.631,-0.004 -5.765,-1.5 -4.908,-4.276 0.857,-2.775 8.762,-7.039 13.676,-9.382 4.914,-2.346 24.568,-10.014 33.326,-12.356 8.757,-2.34 21.143,-3.183 24.773,-2.325 3.629,0.858 3.84,3.634 2.13,5.555 -1.71,1.92 -7.053,6.612 -8.764,8.319 -1.709,1.707 -2.565,2.56 -11.11,5.328 z"
       style="fill:none;stroke:#231f20;stroke-width:0.5;stroke-linecap:round;stroke-linejoin:round;stroke-miterlimit:4;stroke-dasharray:2.8, 1.8;stroke-dashoffset:0;stroke-opacity:1"
       id="path1030" />
    <path
       d="m 651.609,507.279 c 1.709,0.216 1.712,-3.63 2.141,-5.765 0.429,-2.135 3.214,-11.529 12.614,-15.791 9.401,-4.262 17.513,-2.332 26.477,2.588 8.965,4.92 16.002,14.537 17.491,22.439 1.487,7.904 1.271,10.25 3.193,10.254 1.922,0.002 4.06,-3.84 3.639,-9.393 -0.422,-5.553 -5.326,-13.671 -9.378,-19.015 -4.052,-5.342 -12.591,-9.194 -19.208,-11.121 -6.62,-1.93 -14.946,-3.646 -20.928,-0.875 -5.982,2.77 -9.828,5.543 -14.106,12.799 -4.277,7.258 -3.644,13.664 -1.935,13.88 z"
       style="fill:none;stroke:#231f20;stroke-width:0.5;stroke-linecap:round;stroke-linejoin:round;stroke-miterlimit:4;stroke-dasharray:2.8, 1.8;stroke-dashoffset:0;stroke-opacity:1"
       id="path1032" />
    <path
       d="m 682.998,509.657 c 2.195,-1.055 12.387,-1.696 18.789,3.22 8.744,6.709 10.232,19.872 7.662,28.196 -2.571,8.326 -8.342,14.088 -12.4,14.084 -4.057,-0.004 -9.178,-4.708 -10.453,-11.328 -1.274,-6.623 -0.632,-9.398 -2.55,-13.884 -1.918,-4.487 -6.195,-9.648 -5.732,-13.814 0.371,-3.335 1.854,-5.115 4.684,-6.474 z"
       style="fill:none;stroke:#231f20;stroke-width:0.5;stroke-linecap:round;stroke-linejoin:round;stroke-miterlimit:4;stroke-dasharray:2.8, 1.8;stroke-dashoffset:0;stroke-opacity:1"
       id="path1034" />
    <path
       d="m 383.514,604.403 c -3.839,-5.342 -7.253,-8.976 -6.822,-12.179 0.429,-3.203 3.637,-6.616 7.057,-10.886 3.421,-4.266 8.769,-13.443 8.762,-6.182 -0.008,7.26 0.616,25.839 0.826,28.615 0.211,2.777 0.868,7.129 -1.928,7.686 -2.137,0.426 -4.056,-1.712 -7.895,-7.054 z"
       style="fill:none;stroke:#231f20;stroke-width:0.5;stroke-linecap:round;stroke-linejoin:round;stroke-miterlimit:4;stroke-dasharray:2.8, 1.8;stroke-dashoffset:0;stroke-opacity:1"
       id="path1036" />
    <path
       d="m 299.392,587.24 c -4.484,-0.218 -10.031,-6.202 -3.404,-13.671"
       style="fill:none;stroke:#231f20;stroke-width:0.5;stroke-linecap:round;stroke-linejoin:round;stroke-miterlimit:4;stroke-dasharray:2.8, 1.8;stroke-dashoffset:0;stroke-opacity:1"
       id="path1038" />
    <path
       d="m 299.585,608.594 c -4.056,-0.858 -9.173,-9.191 -0.2,-14.094"
       style="fill:none;stroke:#231f20;stroke-width:0.5;stroke-linecap:round;stroke-linejoin:round;stroke-miterlimit:4;stroke-dasharray:2.8, 1.8;stroke-dashoffset:0;stroke-opacity:1"
       id="path1040" />
    <path
       d="m 674.041,723.411 c 3.632,-3.628 9.828,-4.689 15.166,-4.47 5.337,0.218 14.094,-0.415 14.518,2.789 0.425,3.204 -5.131,6.402 -8.548,7.252 -3.418,0.852 -7.047,-1.074 -8.969,-1.502 -1.921,-0.429 -5.336,-1.501 -5.552,0.421"
       style="fill:none;stroke:#231f20;stroke-width:0.5;stroke-linecap:round;stroke-linejoin:round;stroke-miterlimit:4;stroke-dasharray:2.8, 1.8;stroke-dashoffset:0;stroke-opacity:1"
       id="path1042" />
    <path
       d="m 668.048,736.645 c 5.553,0.432 15.803,0.442 16.66,-2.974 0.858,-3.416 -4.265,-5.77 -8.107,-8.549 -3.841,-2.78 -10.03,-6.63 -18.783,-8.347 -8.756,-1.716 -18.576,-3.434 -23.916,-1.944 -5.34,1.489 -13.26,5.953 -10.262,11.949 1.278,2.563 12.598,2.147 17.08,3.86 4.483,1.713 14.518,4.284 17.293,4.714 2.776,0.43 4.484,0.859 10.035,1.291 z"
       style="fill:none;stroke:#231f20;stroke-width:0.5;stroke-linecap:round;stroke-linejoin:round;stroke-miterlimit:4;stroke-dasharray:2.8, 1.8;stroke-dashoffset:0;stroke-opacity:1"
       id="path1044" />
    <path
       d="m 643.105,691.989 c -0.209,-3.63 0.439,-12.598 2.795,-19.216 2.355,-6.618 8.35,-21.988 9.637,-28.179"
       style="fill:none;stroke:#231f20;stroke-width:0.5;stroke-linecap:round;stroke-linejoin:round;stroke-miterlimit:4;stroke-dasharray:2.8, 1.8;stroke-dashoffset:0;stroke-opacity:1"
       id="path1046" />
    <path
       d="m 689.97,588.89 c -2.775,-0.43 -11.174,-8.798 -15.824,-14.981 -5.363,-7.134 -12.228,-15.807 -14.613,-20.877"
       style="fill:none;stroke:#231f20;stroke-width:0.5;stroke-linecap:round;stroke-linejoin:round;stroke-miterlimit:4;stroke-dasharray:2.8, 1.8;stroke-dashoffset:0;stroke-opacity:1"
       id="path1048" />
    <path
       d="m 690.175,597.646 c -3.845,1.918 -13.306,13.254 -16.032,17.069 -3.874,5.421 -10.138,12.28 -14.015,19.736"
       style="fill:none;stroke:#231f20;stroke-width:0.5;stroke-linecap:round;stroke-linejoin:round;stroke-miterlimit:4;stroke-dasharray:2.8, 1.8;stroke-dashoffset:0;stroke-opacity:1"
       id="path1050" />
    <path
       d="m 630.728,683.009 c 2.992,-2.133 8.121,-6.612 12.816,-2.55"
       style="fill:none;stroke:#231f20;stroke-width:0.5;stroke-linecap:round;stroke-linejoin:round;stroke-miterlimit:4;stroke-dasharray:2.8, 1.8;stroke-dashoffset:0;stroke-opacity:1"
       id="path1052" />
    <path
       d="m 650.794,691.356 c 2.17,-1.739 4.055,1.498 5.975,3.85 1.92,2.351 8.16,8.296 16.008,10.052 5.764,1.287 12.812,-0.415 17.085,-1.906 4.272,-1.491 11.962,-4.259 15.811,-8.527 3.847,-4.267 4.703,-6.616 5.136,-11.741 0.432,-5.124 0.651,-11.317 1.294,-13.665 0.643,-2.349 2.566,-4.268 3.844,-0.424 1.279,3.845 1.916,7.477 0.416,13.027 -1.5,5.551 -1.719,10.462 -6.85,15.796 -5.13,5.334 -12.606,7.89 -20.297,10.232 -7.689,2.342 -15.164,2.762 -22.635,0.618 -7.472,-2.142 -14.298,-10.69 -15.792,-12.186 -1.494,-1.496 -2.132,-3.42 0.005,-5.126 z"
       style="fill:none;stroke:#231f20;stroke-width:0.5;stroke-linecap:round;stroke-linejoin:round;stroke-miterlimit:4;stroke-dasharray:2.8, 1.8;stroke-dashoffset:0;stroke-opacity:1"
       id="path1054" />
    <path
       d="m 678.785,674.726 c 3.855,-6.828 4.923,-13.235 6.21,-18.573 1.286,-5.337 -0.204,-9.61 2.577,-15.372 2.783,-5.764 12.821,-8.317 18.795,-2.332 5.973,5.985 4.256,16.234 1.469,26.908 -2.786,10.675 -9.839,16.434 -13.044,18.994 -3.206,2.559 -9.64,2.352 -12.672,0.099 -3.46,-2.569 -4.99,-6.794 -3.335,-9.724 z"
       style="fill:none;stroke:#231f20;stroke-width:0.5;stroke-linecap:round;stroke-linejoin:round;stroke-miterlimit:4;stroke-dasharray:2.8, 1.8;stroke-dashoffset:0;stroke-opacity:1"
       id="path1056" />
    <path
       d="m 242.096,591.246 20.836,48.815"
       style="fill:none;stroke:#231f20;stroke-width:0.5;stroke-linecap:round;stroke-linejoin:round;stroke-miterlimit:4;stroke-dasharray:2.8, 1.8;stroke-dashoffset:0;stroke-opacity:1"
       id="path1058" />
    <path
       d="m 176.548,590.801 50.422,64.805"
       style="fill:none;stroke:#231f20;stroke-width:0.5;stroke-linecap:round;stroke-linejoin:round;stroke-miterlimit:4;stroke-dasharray:2.8, 1.8;stroke-dashoffset:0;stroke-opacity:1"
       id="path1060" />
    <path
       d="m 142.663,658.424 c 0,0 64.46,15.399 84.233,14.608"
       style="fill:none;stroke:#231f20;stroke-width:0.5;stroke-linecap:round;stroke-linejoin:round;stroke-miterlimit:4;stroke-dasharray:2.8, 1.8;stroke-dashoffset:0;stroke-opacity:1"
       id="path1062" />
    <path
       d="m 142.811,714.333 c 15.818,1.582 34.405,-34.653 5.932,-54.425"
       style="fill:none;stroke:#231f20;stroke-width:0.5;stroke-linecap:round;stroke-linejoin:round;stroke-miterlimit:4;stroke-dasharray:2.8, 1.8;stroke-dashoffset:0;stroke-opacity:1"
       id="path1064" />
    <path
       d="m 177.068,762.381 58.28,-53.535"
       style="fill:none;stroke:#231f20;stroke-width:0.5;stroke-linecap:round;stroke-linejoin:round;stroke-miterlimit:4;stroke-dasharray:2.8, 1.8;stroke-dashoffset:0;stroke-opacity:1"
       id="path1066" />
    <path
       d="m 250.846,731.832 -48.79,64.584"
       style="fill:none;stroke:#231f20;stroke-width:0.5;stroke-linecap:round;stroke-linejoin:round;stroke-miterlimit:4;stroke-dasharray:2.8, 1.8;stroke-dashoffset:0;stroke-opacity:1"
       id="path1068" />
    <path
       d="m 284.618,854.162 23.897,-83.456"
       style="fill:none;stroke:#231f20;stroke-width:0.5;stroke-linecap:round;stroke-linejoin:round;stroke-miterlimit:4;stroke-dasharray:2.8, 1.8;stroke-dashoffset:0;stroke-opacity:1"
       id="path1070" />
    <path
       d="M 465.407,891.622 V 796.341"
       style="fill:none;stroke:#231f20;stroke-width:0.5;stroke-linecap:round;stroke-linejoin:round;stroke-miterlimit:4;stroke-dasharray:2.8, 1.8;stroke-dashoffset:0;stroke-opacity:1"
       id="path1072" />
    <path
       d="M 489.926,891.548 V 804.172"
       style="fill:none;stroke:#231f20;stroke-width:0.5;stroke-linecap:round;stroke-linejoin:round;stroke-miterlimit:4;stroke-dasharray:2.8, 1.8;stroke-dashoffset:0;stroke-opacity:1"
       id="path1074" />
    <path
       d="m 590.253,823.287 11.019,69.996"
       style="fill:none;stroke:#231f20;stroke-width:0.5;stroke-linecap:round;stroke-linejoin:round;stroke-miterlimit:4;stroke-dasharray:2.8, 1.8;stroke-dashoffset:0;stroke-opacity:1"
       id="path1076" />
    <path
       d="m 616.322,816.163 25.519,61.006"
       style="fill:none;stroke:#231f20;stroke-width:0.5;stroke-linecap:round;stroke-linejoin:round;stroke-miterlimit:4;stroke-dasharray:2.8, 1.8;stroke-dashoffset:0;stroke-opacity:1"
       id="path1078" />
    <path
       d="m 643.64,800.021 33.482,63.758"
       style="fill:none;stroke:#231f20;stroke-width:0.5;stroke-linecap:round;stroke-linejoin:round;stroke-miterlimit:4;stroke-dasharray:2.8, 1.8;stroke-dashoffset:0;stroke-opacity:1"
       id="path1080" />
    <path
       d="m 677.388,780.547 48.233,53.288"
       style="fill:none;stroke:#231f20;stroke-width:0.5;stroke-linecap:round;stroke-linejoin:round;stroke-miterlimit:4;stroke-dasharray:2.8, 1.8;stroke-dashoffset:0;stroke-opacity:1"
       id="path1082" />
    <path
       d="m 698.171,771.131 60.223,20.168"
       style="fill:none;stroke:#231f20;stroke-width:0.5;stroke-linecap:round;stroke-linejoin:round;stroke-miterlimit:4;stroke-dasharray:2.8, 1.8;stroke-dashoffset:0;stroke-opacity:1"
       id="path1084" />
    <path
       d="m 251.047,840.28 c 0,0 32.239,-64.293 39.787,-76.559"
       style="fill:none;stroke:#231f20;stroke-width:0.5;stroke-linecap:round;stroke-linejoin:round;stroke-miterlimit:4;stroke-dasharray:2.8, 1.8;stroke-dashoffset:0;stroke-opacity:1"
       id="path1086" />
    <path
       d="m 162.021,696.374 c 6.31,9.356 16.849,17.075 28.678,19.198 11.632,2.088 28.601,0.609 44.438,-7.754"
       style="fill:none;stroke:#231f20;stroke-width:0.5;stroke-linecap:round;stroke-linejoin:round;stroke-miterlimit:4;stroke-dasharray:2.8, 1.8;stroke-dashoffset:0;stroke-opacity:1"
       id="path1088" />
    <path
       d="m 674.994,575.008 c 0.643,-10.047 7.103,-19.146 18.579,-20.859"
       style="fill:none;stroke:#231f20;stroke-width:0.5;stroke-linecap:round;stroke-linejoin:round;stroke-miterlimit:4;stroke-dasharray:2.8, 1.8;stroke-dashoffset:0;stroke-opacity:1"
       id="path1090" />
    <path
       d="m 702.265,552.736 c 7.67,-0.599 16.37,2.156 20.967,4.357"
       style="fill:none;stroke:#231f20;stroke-width:0.5;stroke-linecap:round;stroke-linejoin:round;stroke-miterlimit:4;stroke-dasharray:2.8, 1.8;stroke-dashoffset:0;stroke-opacity:1"
       id="path1092" />
    <path
       d="m 581.226,898.292 -4.897,-73.929"
       style="fill:none;stroke:#231f20;stroke-width:0.5;stroke-linecap:round;stroke-linejoin:round;stroke-miterlimit:4;stroke-dasharray:2.8, 1.8;stroke-dashoffset:0;stroke-opacity:1"
       id="path1094" />
    <path
       d="m 404.848,887.872 8.339,-98.042"
       style="fill:none;stroke:#231f20;stroke-width:0.5;stroke-linecap:round;stroke-linejoin:round;stroke-miterlimit:4;stroke-dasharray:2.8, 1.8;stroke-dashoffset:0;stroke-opacity:1"
       id="path1096" />
    <path
       d="m 470.098,656.929 c 8.122,-3.074 16.694,-1.014 22.667,0.136 5.973,1.151 11.65,2.602 13.118,-0.689 1.468,-3.292 -9.605,-8.581 -16.202,-13.604 -6.597,-5.023 -15.302,-12.716 -17.402,-14.49 -2.1,-1.775 -1.823,-4.76 -1.248,-7.746 0.575,-2.986 1.137,-7.762 -3.36,-11.011 -4.496,-3.249 -12.893,-9.751 -23.626,-9.077 -10.731,0.673 -19.072,2.223 -22.03,5.525 -2.959,3.302 -7.105,7.507 -4.105,9.871 2.999,2.365 2.954,-3.898 8.902,-6.326 5.947,-2.429 10.411,-3.951 19.366,-2.822 8.955,1.129 13.152,4.081 12.571,6.173 -0.583,2.092 -5.667,0.041 -6.826,4.821 -1.159,4.78 7.517,8.595 13.816,13.621 6.299,5.025 22.48,15.647 21.598,17.442 -0.881,1.796 -6.275,-1.744 -17.9,-0.767 -11.625,0.978 -20.244,5.214 -23.799,8.521 -3.556,3.306 -6.214,6.904 -2.307,11.051 3.906,4.148 8.08,3.82 10.742,0.818 2.663,-3.002 7.993,-8.407 16.025,-11.447 z"
       style="fill:none;stroke:#231f20;stroke-width:0.5;stroke-linecap:round;stroke-linejoin:round;stroke-miterlimit:4;stroke-dasharray:2.8, 1.8;stroke-dashoffset:0;stroke-opacity:1"
       id="path1098" />
    <path
       d="m 442.797,634.457 c 7.267,2.704 14.645,4.369 14.377,8.546 -0.269,4.178 -6.547,2.134 -12.217,1.579 -5.671,-0.556 -15.224,-1.682 -16.778,-10.617 -1.555,-8.937 -4.021,-20.253 0.75,-20.287 4.772,-0.034 5.679,1.749 6.014,6.817 0.334,5.067 1.738,11.686 7.854,13.962 z"
       style="fill:none;stroke:#231f20;stroke-width:0.5;stroke-linecap:round;stroke-linejoin:round;stroke-miterlimit:4;stroke-dasharray:2.8, 1.8;stroke-dashoffset:0;stroke-opacity:1"
       id="path1100" />
    <path
       d="m 511.264,560.6 c 3.149,-2.684 6.127,-5.412 5.318,-7.195 -0.808,-1.784 -5.372,-0.559 -8.74,1.255 -3.366,1.814 -5.73,5.01 -4.922,6.795 0.808,1.782 4.923,2.061 8.344,-0.855 z"
       style="fill:none;stroke:#231f20;stroke-width:0.5;stroke-linecap:round;stroke-linejoin:round;stroke-miterlimit:4;stroke-dasharray:2.8, 1.8;stroke-dashoffset:0;stroke-opacity:1"
       id="path1102" />
    <path
       d="m 496.582,564.879 c 0.63,3.23 5.413,6.326 16.305,0.083 10.891,-6.241 12.043,-12.015 10.425,-15.781 -1.617,-3.766 -3.407,-3.954 -7.774,-2.729 -4.366,1.224 -12.685,5.659 -16.04,9.062 -3.356,3.404 -3.535,6.189 -2.916,9.365 z"
       style="fill:none;stroke:#231f20;stroke-width:0.5;stroke-linecap:round;stroke-linejoin:round;stroke-miterlimit:4;stroke-dasharray:2.8, 1.8;stroke-dashoffset:0;stroke-opacity:1"
       id="path1104" />
    <path
       d="m 429.261,548.659 c 3.215,-3.729 8.32,-4.434 10.307,-4.45 1.989,-0.013 7.523,-4.627 5.514,-7.593 -2.01,-2.969 -9.989,-6.69 -17.095,0.519 -7.107,7.209 -10.249,12.798 -10.384,21.746 -0.135,8.949 0.081,11.334 1.273,11.325 1.193,-0.009 2.987,0.576 3.168,-2.01 0.18,-2.588 3.076,-14.737 7.217,-19.537 z"
       style="fill:none;stroke:#231f20;stroke-width:0.5;stroke-linecap:round;stroke-linejoin:round;stroke-miterlimit:4;stroke-dasharray:2.8, 1.8;stroke-dashoffset:0;stroke-opacity:1"
       id="path1106" />
    <path
       d="m 440.175,515.133 c 0.43,4.572 2.621,7.58 7.81,10.326 5.189,2.749 15.363,7.447 18.946,8.018 3.583,0.571 12.118,-1.478 15.293,-2.494 3.173,-1.018 7.143,-2.039 7.747,-1.051 0.603,0.99 -4.336,5.402 -9.686,8.023 -5.35,2.624 -20.607,10.087 -24.961,12.903 -4.355,2.815 -11.887,6.051 -15.247,8.857 -3.361,2.807 -5.524,6.004 -5.7,9.385 -0.174,3.383 -0.149,6.962 2.444,8.137 2.594,1.174 3.403,3.157 -1.761,3.988 -5.163,0.833 -9.955,-1.918 -13.545,-3.482 -3.59,-1.565 -7.801,-6.507 -8.978,-4.311 -1.177,2.195 7.938,9.035 12.007,10.85 6.835,3.047 17.712,2.261 22.866,0.037 5.154,-2.225 9.285,-8.417 7.08,-10.987 -2.206,-2.568 -5.976,-1.548 -5.013,-5.929 0.962,-4.381 4.748,-3.416 7.304,-7.41 2.555,-3.994 4.521,-7.389 11.648,-11.614 7.128,-4.226 19.801,-11.673 23.757,-14.486 3.956,-2.812 15.424,-11.84 13.213,-15.205 -2.211,-3.364 -11.316,2.467 -16.467,5.088 -5.151,2.621 -16.661,5.686 -25.647,0.382 -8.985,-5.304 -11.418,-13.157 -18.577,-13.304"
       style="fill:none;stroke:#231f20;stroke-width:0.5;stroke-linecap:round;stroke-linejoin:round;stroke-miterlimit:4;stroke-dasharray:2.8, 1.8;stroke-dashoffset:0;stroke-opacity:1"
       id="path1108" />
    <path
       d="m 512.521,625.211 c 2.63,0.627 5.574,0.955 6.353,-1.237 0.78,-2.193 -3.005,-3.36 -4.998,-3.942 -1.993,-0.582 -4.773,0.034 -5.159,1.628 -0.386,1.592 2.209,3.172 3.804,3.551 z"
       style="fill:none;stroke:#231f20;stroke-width:0.5;stroke-linecap:round;stroke-linejoin:round;stroke-miterlimit:4;stroke-dasharray:2.8, 1.8;stroke-dashoffset:0;stroke-opacity:1"
       id="path1110" />
    <path
       d="m 511.354,628.998 c 3.218,1.305 12.745,2.692 14.292,-3.482 1.546,-6.175 -5.627,-8.311 -9.214,-9.479 -3.588,-1.167 -11.35,-2.305 -12.316,1.679 -0.965,3.983 1.456,8.936 7.238,11.282 z"
       style="fill:none;stroke:#231f20;stroke-width:0.5;stroke-linecap:round;stroke-linejoin:round;stroke-miterlimit:4;stroke-dasharray:2.8, 1.8;stroke-dashoffset:0;stroke-opacity:1"
       id="path1112" />
    <path
       d="m 619.939,799.616 c -0.477,-11.131 0.448,-27.855 -20.798,-51.763"
       style="fill:none;stroke:#231f20;stroke-width:0.5;stroke-linecap:round;stroke-linejoin:round;stroke-miterlimit:4;stroke-dasharray:2.8, 1.8;stroke-dashoffset:0;stroke-opacity:1"
       id="path1114" />
    <path
       d="m 617.33,778.438 c 3.611,-5.671 20.079,-38.396 7.464,-50.833"
       style="fill:none;stroke:#231f20;stroke-width:0.5;stroke-linecap:round;stroke-linejoin:round;stroke-miterlimit:4;stroke-dasharray:2.8, 1.8;stroke-dashoffset:0;stroke-opacity:1"
       id="path1116" />
    <path
       d="m 629.327,738.101 c 4.309,2.564 14.467,8.592 19.698,17.105"
       style="fill:none;stroke:#231f20;stroke-width:0.5;stroke-linecap:round;stroke-linejoin:round;stroke-miterlimit:4;stroke-dasharray:2.8, 1.8;stroke-dashoffset:0;stroke-opacity:1"
       id="path1118" />
    <path
       d="m 607.962,759.577 c -9.701,11.364 -20.356,22.773 -46.412,21.567 -26.055,-1.206 -46.216,-12.197 -47.053,-17.957 -0.836,-5.761 -1.088,-13.315 22.812,-7.719"
       style="fill:none;stroke:#231f20;stroke-width:0.5;stroke-linecap:round;stroke-linejoin:round;stroke-miterlimit:4;stroke-dasharray:2.8, 1.8;stroke-dashoffset:0;stroke-opacity:1"
       id="path1120" />
    <path
       d="m 617.33,778.438 c -1.217,-1.201 -4.461,5.521 -6.631,7.923 -2.17,2.401 -10.685,7.433 -14.463,7.459 -3.776,0.027 -25.248,0.379 -35.199,-0.942 -9.952,-1.32 -21.289,-2.035 -25.877,-4.19 -4.589,-2.154 -22.325,-7.595 -27.116,-10.344 -4.792,-2.75 -17.815,-16.774 -20.442,-22.72 -2.628,-5.947 -2.877,-13.103 1.274,-16.513 4.151,-3.409 15.076,-4.88 25.243,-1.174 10.167,3.706 20.525,6.416 27.675,5.172 7.148,-1.244 14.33,-6.285 13.458,-8.844 -1.422,-4.165 -12.511,2.275 -19.284,0.534 -6.773,-1.74 -32.061,-6.93 -40.231,-9.456 -8.17,-2.527 -12.729,-0.506 -15.496,1.9 -2.766,2.406 -2.082,14.729 0.754,22.065 2.837,7.337 7.891,19.032 24.276,30.447 16.385,11.416 35.297,14.661 44.25,15.393 8.953,0.731 30.241,2.568 37.398,2.517 7.159,-0.051 10.936,-0.078 16.291,-1.906 5.356,-1.828 6.93,-4.026 9.681,-8.618 2.751,-4.593 5.841,-7.321 4.439,-8.703 z"
       style="fill:none;stroke:#231f20;stroke-width:0.5;stroke-linecap:round;stroke-linejoin:round;stroke-miterlimit:4;stroke-dasharray:2.8, 1.8;stroke-dashoffset:0;stroke-opacity:1"
       id="path1122" />
    <path
       d="m 560.312,756.527 c 6.029,-2.708 13.553,-5.296 17.06,-15.263 2.641,-7.506 4.076,-13.947 5.863,-14.357 1.786,-0.41 5.952,-1.633 6.923,-4.822 0.973,-3.188 -4.637,-9.112 -11.42,-12.246 -6.783,-3.133 -13.946,-3.877 -22.26,1.352 -8.312,5.229 -16.624,10.855 -25.382,9.525 -8.758,-1.328 -17.932,-5.239 -18.715,-3.444 -0.783,1.794 4.412,5.337 11.382,6.877 6.971,1.541 17.511,1.864 23.057,-1.158 5.545,-3.022 13.864,-7.455 18.437,-7.687 4.571,-0.231 11.75,2.899 9.981,5.695 -1.77,2.796 -6.051,15.949 -7.411,20.135 -1.363,4.185 -3.555,9.58 -10.062,11.206 -6.908,1.726 -10.711,3.457 -17.084,2.11 -2.595,-0.548 -5.355,1.828 -1.765,3.194 3.587,1.366 13.796,2.297 21.396,-1.117 z"
       style="fill:none;stroke:#231f20;stroke-width:0.5;stroke-linecap:round;stroke-linejoin:round;stroke-miterlimit:4;stroke-dasharray:2.8, 1.8;stroke-dashoffset:0;stroke-opacity:1"
       id="path1124" />
    <path
       d="m 511.939,783.901 1.546,-3.151 c 0,0 -5.282,-8.174 -11.703,-16.28 -6.421,-8.106 -12.249,-16.813 -8.104,-21.218 4.143,-4.403 16.73,-3.129 35.012,-0.959"
       style="fill:none;stroke:#231f20;stroke-width:0.5;stroke-linecap:round;stroke-linejoin:round;stroke-miterlimit:4;stroke-dasharray:2.8, 1.8;stroke-dashoffset:0;stroke-opacity:1"
       id="path1126" />
    <path
       d="m 534.643,792.663 1.335,-3.633"
       style="fill:none;stroke:#231f20;stroke-width:0.5;stroke-linecap:round;stroke-linejoin:round;stroke-miterlimit:4;stroke-dasharray:2.8, 1.8;stroke-dashoffset:0;stroke-opacity:1"
       id="path1128" />
    <path
       d="m 618.058,465.201 c 0.725,-9.949 5.744,-44.187 -12.068,-60.564"
       style="fill:none;stroke:#231f20;stroke-width:0.5;stroke-linecap:round;stroke-linejoin:round;stroke-miterlimit:4;stroke-dasharray:2.8, 1.8;stroke-dashoffset:0;stroke-opacity:1"
       id="path1130" />
    <path
       d="m 618.435,460.901 c 3.388,-0.242 16.218,-9.208 24.236,-27.756"
       style="fill:none;stroke:#231f20;stroke-width:0.5;stroke-linecap:round;stroke-linejoin:round;stroke-miterlimit:4;stroke-dasharray:2.8, 1.8;stroke-dashoffset:0;stroke-opacity:1"
       id="path1132" />
    <path
       d="m 589.742,443.47 c 5.314,-7.395 15.3,-32.464 16.248,-38.833 0.949,-6.369 -3.876,-13.89 -6.694,-18.642"
       style="fill:none;stroke:#231f20;stroke-width:0.5;stroke-linecap:round;stroke-linejoin:round;stroke-miterlimit:4;stroke-dasharray:2.8, 1.8;stroke-dashoffset:0;stroke-opacity:1"
       id="path1134" />
    <path
       d="m 527.872,434.686 c -8.726,3.443 -25.585,9.131 -28.026,1.393 -2.441,-7.739 7.826,-17.952 21.926,-20.239 14.101,-2.287 55.805,-10.733 78.768,3.618"
       style="fill:none;stroke:#231f20;stroke-width:0.5;stroke-linecap:round;stroke-linejoin:round;stroke-miterlimit:4;stroke-dasharray:2.8, 1.8;stroke-dashoffset:0;stroke-opacity:1"
       id="path1136" />
    <path
       d="m 520.362,469.137 c 4.77,-0.423 16.304,-0.115 20.119,5.028 3.813,5.141 7.046,12.277 10.612,10.661 3.569,-1.618 13.269,-7.452 15.05,-8.658 1.781,-1.205 3.956,-3.009 1.948,-5.779 -2.009,-2.771 -2.245,-8.138 -1.687,-13.511 0.558,-5.372 2.842,-19.903 -2.149,-22.451 -4.989,-2.55 -11.631,-7.232 -17.341,-6.239 -7.15,1.244 -16.678,3.498 -18.064,4.305 -1.386,0.804 -2.768,2.207 -0.978,2.193 1.788,-0.013 16.898,-0.319 19.883,0.256 2.989,0.575 6.174,1.348 7.389,4.521 1.217,3.172 4.425,6.926 3.873,13.095 -0.554,6.166 -0.23,23.663 -3.809,23.689 -3.579,0.025 -10.801,-9.268 -14.384,-9.84 -3.584,-0.57 -13.737,-2.289 -19.301,-1.85 -5.565,0.436 -15.481,3.887 -19.248,5.505 -3.766,1.617 -6.342,2.828 -5.538,4.016 0.803,1.188 13.889,-4.075 23.625,-4.941 z"
       style="fill:none;stroke:#231f20;stroke-width:0.5;stroke-linecap:round;stroke-linejoin:round;stroke-miterlimit:4;stroke-dasharray:2.8, 1.8;stroke-dashoffset:0;stroke-opacity:1"
       id="path1138" />
    <path
       d="m 606.092,401.318 c -3.915,-2.355 -34.794,-11.081 -57.632,-7.141 -22.838,3.939 -42.27,11.435 -51.768,17.865 -9.498,6.431 -22.119,21.037 -21.639,32.565 0.48,11.529 9.634,12.655 14.405,12.423 4.77,-0.234 20.636,-5.913 27.577,-8.348 6.943,-2.435 19.273,-1.928 22.063,-0.953 2.792,0.973 6.396,4.527 4.624,6.926 -1.772,2.398 -4.198,2.261 -7.348,1.246 -3.831,-1.236 -9.767,-3.313 -19.491,-0.656 -9.723,2.653 -19.839,6.105 -23.804,7.724 -3.966,1.619 -15.462,6.474 -21.061,2.139 -5.599,-4.335 -6.475,-15.662 1.371,-30.83 7.845,-15.164 17.721,-24.383 35.167,-31.665 17.445,-7.282 44.238,-14.034 61.545,-12.765 17.309,1.268 34.203,6.598 35.84,10.026"
       style="fill:none;stroke:#231f20;stroke-width:0.5;stroke-linecap:round;stroke-linejoin:round;stroke-miterlimit:4;stroke-dasharray:2.8, 1.8;stroke-dashoffset:0;stroke-opacity:1"
       id="path1140" />
    <path
       d="m 520.126,447.848 c -6.089,-1.332 -16.615,0.334 -22.765,2.365 -6.149,2.032 -12.716,1.084 -15.127,-2.279 -2.409,-3.361 -1.484,-12.912 2.445,-19.701 3.928,-6.787 13.209,-17.455 18.481,-19.949 l -1.156,-2.662"
       style="fill:none;stroke:#231f20;stroke-width:0.5;stroke-linecap:round;stroke-linejoin:round;stroke-miterlimit:4;stroke-dasharray:2.8, 1.8;stroke-dashoffset:0;stroke-opacity:1"
       id="path1142" />
    <path
       d="m 526.025,399.419 -0.857,-2.686"
       style="fill:none;stroke:#231f20;stroke-width:0.5;stroke-linecap:round;stroke-linejoin:round;stroke-miterlimit:4;stroke-dasharray:2.8, 1.8;stroke-dashoffset:0;stroke-opacity:1"
       id="path1144" />
    <path
       d="m 675.263,613.217 c 1.27,7.217 8.276,19.404 18.342,22.555"
       style="fill:none;stroke:#231f20;stroke-width:0.5;stroke-linecap:round;stroke-linejoin:round;stroke-miterlimit:4;stroke-dasharray:2.8, 1.8;stroke-dashoffset:0;stroke-opacity:1"
       id="path1146" />
    <path
       d="m 706.367,638.449 c 5.656,1.37 14.703,0.95 18.381,0.564"
       style="fill:none;stroke:#231f20;stroke-width:0.5;stroke-linecap:round;stroke-linejoin:round;stroke-miterlimit:4;stroke-dasharray:2.8, 1.8;stroke-dashoffset:0;stroke-opacity:1"
       id="path1148" />
    <path
       d="m 907.328,634.558 c 3.798,0.651 7.952,-16.032 8.988,-30.697 1.213,-17.17 -1.316,-34.306 -4.557,-34.758 -6.009,-0.841 -13.316,18.138 -12.85,34.336 0.465,16.198 5.112,30.553 8.419,31.119 z"
       style="fill:none;stroke:#231f20;stroke-width:0.75;stroke-linecap:round;stroke-linejoin:round;stroke-miterlimit:4;stroke-dasharray:0, 2;stroke-dashoffset:0;stroke-opacity:1"
       id="path1150" />
    <path
       d="m 900.67,501.463 c 3.502,0.838 5.285,-11.456 5.179,-21.656 -0.103,-10.201 -0.789,-18.595 -4.689,-18.555 -3.901,0.04 -5.952,4.862 -5.912,8.761 0.04,3.902 -0.481,11.707 -0.744,15.312 -0.262,3.601 2.471,6.875 3.405,10.166 0.934,3.291 1.558,5.685 2.761,5.972 z"
       style="fill:none;stroke:#231f20;stroke-width:0.75;stroke-linecap:round;stroke-linejoin:round;stroke-miterlimit:4;stroke-dasharray:0, 2;stroke-dashoffset:0;stroke-opacity:1"
       id="path1152" />
    <path
       d="m 730.624,619.465 c -2.606,-14.923 -5.035,-22.752 -7.171,-26.331 -2.137,-3.579 -2.473,-7.176 -0.422,-11.997 2.051,-4.822 7.808,-28.585 8.065,-32.788 0.257,-4.204 2.024,-7.522 6.273,-2.765 4.25,4.758 11.9,19.381 12.264,25.679 0.365,6.297 0.427,12.298 -1.055,14.112 -1.482,1.817 -0.252,4.804 0.08,7.801 0.33,2.997 0.691,8.995 0.761,15.895 0.071,6.9 0.151,14.701 -2.512,18.329 -2.663,3.628 -8.294,10.586 -9.481,11.799 -1.188,1.212 -4.163,3.643 -4.512,-1.155 -0.35,-4.796 -0.764,-9.824 -2.29,-18.579 z"
       style="fill:none;stroke:#231f20;stroke-width:0.75;stroke-linecap:round;stroke-linejoin:round;stroke-miterlimit:4;stroke-dasharray:0, 2;stroke-dashoffset:0;stroke-opacity:1"
       id="path1154" />
    <path
       d="m 770.027,687.773 c 3.863,-3.097 9.067,-6.087 11.619,-8.22 8.379,-7.004 11.293,-10.617 16.944,-15.475 5.652,-4.859 10.718,-8.211 13.1,-10.036 2.382,-1.825 4.718,-8.15 5.52,-17.759 0.801,-9.61 3.252,-33.939 2.848,-44.137 -0.184,-4.648 -0.123,-15.873 -1.17,-26.393 -1.25,-12.557 -3.661,-24.522 -4.195,-28.76 -0.979,-7.791 -9.852,-24.504 -20.74,-33.094 -10.891,-8.589 -30.512,-20.09 -35.028,-21.545 -4.515,-1.455 -10.591,-8.893 -17.437,-3.424 -6.845,5.473 -11.874,12.424 -5.85,14.764 6.026,2.339 19.238,3.404 26.472,6.63 7.234,3.227 19.617,12.882 21.798,18.979 2.779,7.774 -1.396,10.217 1.041,13.793 2.437,3.575 5.168,6.548 6.09,8.639 0.921,2.09 -2.051,4.822 -4.783,1.849 -2.73,-2.972 -7.029,-12.531 -7.029,-12.531 0,0 -3.909,-0.859 -8.745,-4.41 -4.838,-3.552 -14.831,-12.451 -21.456,-14.783 -6.624,-2.333 -19.266,-6.105 -18.314,-1.014 0.954,5.092 3.442,13.768 11.264,15.787 7.822,2.021 16.256,5.235 23.565,15.662 7.307,10.427 9.533,22.706 9.691,38.307 0.16,15.602 3.391,38.073 -6.371,51.674 -9.763,13.602 -18.417,18.191 -22.596,20.335 -4.18,2.142 -8.34,6.086 -10.399,10.008 -2.061,3.921 -3.8,9.94 0.991,8.991 4.791,-0.949 20.885,-11.616 28.029,-17.09 7.147,-5.474 14.889,-11.253 17.619,-8.281 2.731,2.973 -2.584,11.428 -8.806,18.993 -6.225,7.565 -13.078,12.136 -21.16,14.018 -8.083,1.884 -16.455,4.67 -17.91,9.186 -1.454,4.515 2.765,6.272 8.781,7.71 6.015,1.439 12.642,4.073 15.619,1.641 1.723,-1.408 5.681,-5.748 10.998,-10.014 z"
       style="fill:none;stroke:#231f20;stroke-width:0.75;stroke-linecap:round;stroke-linejoin:round;stroke-miterlimit:4;stroke-dasharray:0, 2;stroke-dashoffset:0;stroke-opacity:1"
       id="path1156" />
    <path
       d="m 834.005,723.725 c 5.973,-9.809 13.25,-24.739 15.586,-31.064 2.335,-6.325 8.808,-18.994 12.065,-23.227 3.256,-4.234 9.215,-8.496 13.732,-6.742 4.52,1.754 7.266,6.227 5.26,15.549 -2.006,9.322 -7.561,23.481 -10.48,31.312 -2.922,7.831 -5.524,17.46 -13.533,26.543 -8.007,9.083 -24.594,30.256 -29.032,36.302 -4.439,6.047 -7.078,12.075 -6.742,15.672 0.338,3.597 1.875,7.182 6.069,6.539 4.194,-0.643 15.575,-2.56 21.136,-16.419 5.558,-13.859 13.775,-31.946 16.432,-36.173 2.657,-4.228 7.4,-9.978 10.115,-8.506 2.715,1.473 4.572,7.155 0.178,17.402 -4.397,10.246 -10.262,23.508 -6.34,25.568 3.922,2.061 6.867,-3.37 11.884,-11.523 5.018,-8.152 8.216,-18.087 7.481,-31.282 -0.734,-13.194 -1.772,-26.686 2.599,-39.332 4.372,-12.647 1.518,-27.62 -3.736,-42.569 -5.254,-14.949 -6.776,-46.439 -8.5,-68.323 -1.724,-21.887 -1.664,-45.291 0.063,-52.511 1.726,-7.218 4.357,-14.146 3.924,-27.044 -0.431,-12.898 -0.438,-42.902 -0.206,-49.506 0.233,-6.603 4.264,-23.148 2.985,-30.935 -1.28,-7.79 -4.517,-13.753 -10.334,-12.797 -3.893,0.64 -1.704,9.319 -1.377,12.016 0.328,2.697 2.461,5.976 -0.232,6.603 -2.694,0.628 -9.042,-3.807 -11.196,-9.186 -2.155,-5.379 -3.75,-14.665 -11.615,-20.886 -7.865,-6.219 -20.504,-9.692 -24.672,-6.648 -4.17,3.044 -6.246,5.464 -1.999,9.923 4.246,4.457 23.286,17.764 34.243,32.955 10.957,15.19 10.207,29.899 10.636,42.496 0.429,12.599 4.023,41.367 -3.469,42.344 -7.489,0.976 -15.423,-11.844 -19.014,-40.313 -3.592,-28.466 -6.036,-32.642 -12.733,-42.175 -6.699,-9.534 -21.562,-25.286 -27.303,-29.127 -5.74,-3.841 -9.304,-0.203 -12.869,3.132 -3.568,3.337 -5.903,9.663 1.968,16.483 7.871,6.82 22.112,20.477 25.483,27.344 3.372,6.867 3.706,10.164 1.633,12.884 -2.074,2.723 -8.373,2.788 -16.223,-1.933 -7.849,-4.72 -19.64,-13.302 -22.695,-18.67 -3.055,-5.371 -1.301,-9.889 -4.931,-12.854 -3.631,-2.963 -6.901,0.072 -11.916,8.524 -5.014,8.453 -8.816,18.095 1.424,21.889 10.242,3.796 24.085,7.857 41.623,21.178 17.539,13.323 34.044,42.86 35.919,50.042 1.873,7.181 3.436,42.57 4.207,59.366 0.772,16.795 5.851,44.047 -3.023,56.44 -8.875,12.392 -25.532,26.665 -37.156,34.285 -11.623,7.621 -29.196,20.402 -34.522,27.658 -5.328,7.256 -10.039,16.005 -3.986,21.044 6.053,5.039 14.383,-1.947 20.572,-12.813 6.19,-10.865 21.05,-24.819 27.09,-20.98 6.041,3.839 -5.195,20.156 -9.018,27.697 -3.824,7.54 -11.773,22.324 -9.319,27.7 2.456,5.376 8.208,10.418 12.638,3.471 4.429,-6.946 8.816,-18.093 11.767,-22.924 2.952,-4.831 6.889,-9.677 9.459,-13.899 z"
       style="fill:none;stroke:#231f20;stroke-width:0.75;stroke-linecap:round;stroke-linejoin:round;stroke-miterlimit:4;stroke-dasharray:0, 2;stroke-dashoffset:0;stroke-opacity:1"
       id="path1158" />
  </g>
</svg>
