<?xml version="1.0" encoding="UTF-8" standalone="no"?>
<!-- Created with Inkscape (http://www.inkscape.org/) -->

<svg
   version="1.1"
   id="svg2"
   width="1440"
   height="1344"
   viewBox="0 0 1440 1344"
   xmlns="http://www.w3.org/2000/svg"
   xmlns:svg="http://www.w3.org/2000/svg">
  <defs
     id="defs6" />
  <g
     id="g8">
    <path
       d="m 827.513,433.611 c -5.109,-3.652 -15.799,-0.707 -20.295,1.838 -4.494,2.544 -8.988,4.66 -8.81,13.417 -8.946,-5.805 -19.218,-0.508 -24.358,3.101 -5.14,3.608 -12.017,14.044 -12.068,26.003 -11.281,-8.376 -22.418,-0.948 -22.418,-0.948 11.748,-19.777 3.554,-32.871 0.379,-39.506 -3.176,-6.633 -4.014,-10.693 -2.902,-21.152 0.75,-7.057 -0.557,-20.076 -3.522,-26.068 -2.965,-5.991 -11.885,-17.774 -24.865,-28.719 -12.982,-10.946 -22.569,-16.325 -32.584,-21.491 -10.016,-5.168 -19.563,-7.095 -25.162,-8.647 -9.387,-2.601 -12.151,-5.175 -15.347,-6.897 -3.196,-1.722 -15.979,-8.823 -33.682,-14.448 -17.7,-5.627 -27.936,-9.086 -53.134,-9.191 -27.334,-0.113 -50.409,2.781 -59.808,3.595 -9.4,0.815 -23.285,1.825 -46.344,0.876 -23.06,-0.952 -45.926,3.011 -52.551,4.264 -6.626,1.255 -28.647,7.57 -35.486,8.821 -6.839,1.253 -37.189,7.534 -47.662,9.839 -10.474,2.305 -31.318,6.45 -57.958,20.687 -24.185,12.925 -50.757,35.023 -73.275,57.993 -30.575,31.185 -37.554,43.835 -46.807,60.88 -9.254,17.047 -11.424,25.364 -11.673,33.693 -0.248,8.327 1.61,23.709 2.219,31.4 0.608,7.691 -3.497,18.992 -5.01,23.682 -1.515,4.693 -3.034,10.451 -1.35,16.44 1.21,4.295 8.697,13.916 18.082,16.732 -10.277,6.363 -15.22,13.816 -15.893,21.715 -0.674,7.898 2.686,21.58 3.304,26.921 0.618,5.341 -0.739,23.487 -2.471,29.246 -1.732,5.758 -0.913,14.09 0.989,19.009 1.901,4.92 7.614,17.757 12.695,28.242 5.082,10.485 12.258,30.588 26.273,49.653 20.492,27.88 44.857,48.449 60.612,59.832 15.756,11.385 36.01,19.156 43.26,21.749 7.25,2.593 40.316,10.846 46.076,12.151 5.761,1.305 24.749,5.442 31.361,7.391 6.611,1.95 16.222,1.776 24.126,1.168 7.904,-0.608 7.685,0.673 11.097,1.968 3.41,1.296 20.463,8.841 37.115,9.979 16.652,1.137 41.424,1.24 64.272,1.762 22.847,0.522 29.456,3.113 48.452,5.54 18.995,2.429 32.023,2.269 65.149,-4.213 33.127,-6.481 54.955,-17.282 70.795,-26.398 15.84,-9.117 29.542,-17.575 38.119,-25.895 9.863,-9.568 31.918,-23.784 40.081,-35.282 6.008,-8.463 3.309,-25.398 3.77,-33.511 0.461,-8.113 3.899,-13.01 6.691,-17.056 2.792,-4.046 4.959,-11.298 2.871,-22.838 -2.087,-11.54 -6.544,-18.179 -6.544,-18.179 l -9.787,-8.797 -7.457,-4.088 c -4.252,-4.289 -1.858,-15.383 0.5,-17.295 -2.35,0.204 -6.612,-2.377 -7.667,-5.157 -1.31,6.828 -10.528,15.331 -19.3,19.566 10.053,-4.016 26.467,2.886 26.467,2.886 l 7.457,4.088 9.787,8.797 c 2.979,2.575 11.941,4.107 16.22,2.417 -1.292,2.557 -0.893,9.392 0.787,16.019 1.68,6.627 7.204,13.698 10.399,15.419 3.196,1.721 10.885,1.754 14.736,-0.366 -1.291,2.344 -0.668,6.617 3.37,11.333 4.039,4.715 13.419,8.383 20.682,7.773 7.263,-0.61 14.548,-6.132 18.194,-10.174 M 721.126,494.456 c 0,0 0.592,11.748 6.553,16.044 -5.758,-1.732 -7.7,2.958 -7.929,7.014 -1.045,-5.556 -8.688,-16.693 -13.376,-19.062 9.608,0.468 14.752,-3.996 14.752,-3.996 z M 592.38,591.298 c -2.562,-0.01 -10.907,3.799 -14.114,4.853 -3.208,1.055 -4.075,4.041 -3.46,10.45 -1.901,-5.133 -8.722,-8.151 -11.497,-8.59 -2.774,-0.439 -4.905,-1.302 -6.824,-1.95 -1.92,-0.649 -11.47,-4.033 -16.421,-5.407 -2.347,-0.652 -2.128,-1.718 -0.417,-2.352 1.71,-0.634 14.972,-5.704 19.038,-8.035 3.431,-1.968 10.211,-5.288 13.289,-11.032 1.444,11.733 17.633,21.197 20.406,22.063 z M 655.438,693.4 c -5.609,-1.976 -15.697,-6.886 -19.03,-8.384 -3.837,-1.724 -15.561,-6.684 -22.915,-9.705 3.093,0.439 9.283,1.319 16.123,-0.359 6.841,-1.681 15.437,-14.885 18.454,-21.279 0.054,-0.247 0.113,-0.509 0.196,-0.819 -0.85,4.02 -2.399,17.04 -1.778,21.74 0.622,4.701 4.424,15.157 8.95,18.806 z m 4.628,-202.615 c -4.916,1.047 -10.066,7.432 -11.36,10.417 -1.294,2.984 -1.132,15.371 -0.519,21.994 0,0 -7.836,-15.836 -13.588,-19.064 -5.753,-3.227 -10.024,-3.032 -14.73,-0.915 -4.707,2.117 -6.7,2.467 -8.603,2.004 5.762,-2.91 17.686,-8.616 28.507,-12.599 12.618,-4.645 22.24,-7.808 25.438,-6.514 2.204,0.892 4.608,1.682 7.339,2.803 -4.002,-0.649 -7.567,0.828 -12.484,1.874 z m -2.872,125.662 c 1.091,-5.227 -2.931,-14 -4.628,-16.783 -1.696,-2.783 -6.137,-8.048 -13.402,-8.115 5.486,-0.593 12.4,-7.478 14.124,-11.314 1.724,-3.838 5.37,-7.453 4.11,-12.797 3.79,13.042 9.102,19.471 10.366,23.534 -1.503,2.129 -9.268,20.889 -10.57,25.475 z m 57.296,-6.866 c -0.667,-1.972 -1.605,-3.929 -3,-6.041 -4.669,-7.067 -8.492,-12.208 -8.492,-12.208 0,0 4.93,-4.251 7.951,-11.925 1.106,-2.811 2.327,-5.593 3.485,-8.764 -0.493,8.136 -0.605,35.255 0.056,38.938"
       style="fill:#ffffff;fill-opacity:1;fill-rule:nonzero;stroke:none;stroke-width:0.1"
       id="path892" />
    <path
       d="m 827.513,433.611 c -5.109,-3.652 -15.799,-0.707 -20.295,1.838 -4.494,2.544 -8.988,4.66 -8.81,13.417 -8.946,-5.805 -19.218,-0.508 -24.358,3.101 -5.14,3.608 -12.017,14.044 -12.068,26.003 -11.281,-8.376 -22.418,-0.948 -22.418,-0.948 11.748,-19.777 3.554,-32.871 0.379,-39.506 -3.176,-6.633 -4.014,-10.693 -2.902,-21.152 0.75,-7.057 -0.557,-20.076 -3.522,-26.068 -2.965,-5.991 -11.885,-17.774 -24.865,-28.719 -12.982,-10.946 -22.569,-16.325 -32.584,-21.491 -10.016,-5.168 -19.563,-7.095 -25.162,-8.647 -9.387,-2.601 -12.151,-5.175 -15.347,-6.897 -3.196,-1.722 -15.979,-8.823 -33.682,-14.448 -17.7,-5.627 -27.936,-9.086 -53.134,-9.191 -27.334,-0.113 -50.409,2.781 -59.808,3.595 -9.4,0.815 -23.285,1.825 -46.344,0.876 -23.06,-0.952 -45.926,3.011 -52.551,4.264 -6.626,1.255 -28.647,7.57 -35.486,8.821 -6.839,1.253 -37.189,7.534 -47.662,9.839 -10.474,2.305 -31.318,6.45 -57.958,20.687 -24.185,12.925 -50.757,35.023 -73.275,57.993 -30.575,31.185 -37.554,43.835 -46.807,60.88 -9.254,17.047 -11.424,25.364 -11.673,33.693 -0.248,8.327 1.61,23.709 2.219,31.4 0.608,7.691 -3.497,18.992 -5.01,23.682 -1.515,4.693 -3.034,10.451 -1.35,16.44 1.21,4.295 8.697,13.916 18.082,16.732 -10.277,6.363 -15.22,13.816 -15.893,21.715 -0.674,7.898 2.686,21.58 3.304,26.921 0.618,5.341 -0.739,23.487 -2.471,29.246 -1.732,5.758 -0.913,14.09 0.989,19.009 1.901,4.92 7.614,17.757 12.695,28.242 5.082,10.485 12.258,30.588 26.273,49.653 20.492,27.88 44.857,48.449 60.612,59.832 15.756,11.385 36.01,19.156 43.26,21.749 7.25,2.593 40.316,10.846 46.076,12.151 5.761,1.305 24.749,5.442 31.361,7.391 6.611,1.95 16.222,1.776 24.126,1.168 7.904,-0.608 7.685,0.673 11.097,1.968 3.41,1.296 20.463,8.841 37.115,9.979 16.652,1.137 41.424,1.24 64.272,1.762 22.847,0.522 29.456,3.113 48.452,5.54 18.995,2.429 32.023,2.269 65.149,-4.213 33.127,-6.481 54.955,-17.282 70.795,-26.398 15.84,-9.117 29.542,-17.575 38.119,-25.895 9.863,-9.568 31.918,-23.784 40.081,-35.282 6.008,-8.463 3.309,-25.398 3.77,-33.511 0.461,-8.113 3.899,-13.01 6.691,-17.056 2.792,-4.046 4.959,-11.298 2.871,-22.838 -2.087,-11.54 -6.544,-18.179 -6.544,-18.179 l -9.787,-8.797 -7.457,-4.088 c -4.252,-4.289 -1.858,-15.383 0.5,-17.295 -2.35,0.204 -6.612,-2.377 -7.667,-5.157 -1.31,6.828 -10.528,15.331 -19.3,19.566 10.053,-4.016 26.467,2.886 26.467,2.886 l 7.457,4.088 9.787,8.797 c 2.979,2.575 11.941,4.107 16.22,2.417 -1.292,2.557 -0.893,9.392 0.787,16.019 1.68,6.627 7.204,13.698 10.399,15.419 3.196,1.721 10.885,1.754 14.736,-0.366 -1.291,2.344 -0.668,6.617 3.37,11.333 4.039,4.715 13.419,8.383 20.682,7.773 7.263,-0.61 14.548,-6.132 18.194,-10.174 M 721.126,494.456 c 0,0 0.592,11.748 6.553,16.044 -5.758,-1.732 -7.7,2.958 -7.929,7.014 -1.045,-5.556 -8.688,-16.693 -13.376,-19.062 9.608,0.468 14.752,-3.996 14.752,-3.996 z M 592.38,591.298 c -2.562,-0.01 -10.907,3.799 -14.114,4.853 -3.208,1.055 -4.075,4.041 -3.46,10.45 -1.901,-5.133 -8.722,-8.151 -11.497,-8.59 -2.774,-0.439 -4.905,-1.302 -6.824,-1.95 -1.92,-0.649 -11.47,-4.033 -16.421,-5.407 -2.347,-0.652 -2.128,-1.718 -0.417,-2.352 1.71,-0.634 14.972,-5.704 19.038,-8.035 3.431,-1.968 10.211,-5.288 13.289,-11.032 1.444,11.733 17.633,21.197 20.406,22.063 z M 655.438,693.4 c -5.609,-1.976 -15.697,-6.886 -19.03,-8.384 -3.837,-1.724 -15.561,-6.684 -22.915,-9.705 3.093,0.439 9.283,1.319 16.123,-0.359 6.841,-1.681 15.437,-14.885 18.454,-21.279 0.054,-0.247 0.113,-0.509 0.196,-0.819 -0.85,4.02 -2.399,17.04 -1.778,21.74 0.622,4.701 4.424,15.157 8.95,18.806 z m 4.628,-202.615 c -4.916,1.047 -10.066,7.432 -11.36,10.417 -1.294,2.984 -1.132,15.371 -0.519,21.994 0,0 -7.836,-15.836 -13.588,-19.064 -5.753,-3.227 -10.024,-3.032 -14.73,-0.915 -4.707,2.117 -6.7,2.467 -8.603,2.004 5.762,-2.91 17.686,-8.616 28.507,-12.599 12.618,-4.645 22.24,-7.808 25.438,-6.514 2.204,0.892 4.608,1.682 7.339,2.803 -4.002,-0.649 -7.567,0.828 -12.484,1.874 z m -2.872,125.662 c 1.091,-5.227 -2.931,-14 -4.628,-16.783 -1.696,-2.783 -6.137,-8.048 -13.402,-8.115 5.486,-0.593 12.4,-7.478 14.124,-11.314 1.724,-3.838 5.37,-7.453 4.11,-12.797 3.79,13.042 9.102,19.471 10.366,23.534 -1.503,2.129 -9.268,20.889 -10.57,25.475 z m 57.296,-6.866 c -0.667,-1.972 -1.605,-3.929 -3,-6.041 -4.669,-7.067 -8.492,-12.208 -8.492,-12.208 0,0 4.93,-4.251 7.951,-11.925 1.106,-2.811 2.327,-5.593 3.485,-8.764 -0.493,8.136 -0.605,35.255 0.056,38.938 z"
       style="fill:none;stroke:#231f20;stroke-width:0.75;stroke-linecap:butt;stroke-linejoin:miter;stroke-miterlimit:4;stroke-dasharray:none;stroke-opacity:1"
       id="path894" />
    <path
       d="m 721.126,494.456 18.438,-17.434"
       style="fill:#ffffff;fill-opacity:1;fill-rule:nonzero;stroke:none;stroke-width:0.1"
       id="path896" />
    <path
       d="m 721.126,494.456 18.438,-17.434"
       style="fill:none;stroke:#231f20;stroke-width:0.75;stroke-linecap:butt;stroke-linejoin:miter;stroke-miterlimit:4;stroke-dasharray:none;stroke-opacity:1"
       id="path898" />
    <path
       d="m 657.398,567.438 c -1.259,-5.344 -2.725,-12.396 -3.561,-16.671 -0.835,-4.274 -5.65,-27.571 -5.65,-27.571"
       style="fill:none;stroke:#231f20;stroke-width:0.75;stroke-linecap:butt;stroke-linejoin:miter;stroke-miterlimit:4;stroke-dasharray:none;stroke-opacity:1"
       id="path900" />
    <path
       d="m 648.247,652.887 c 1.953,-8.583 7.892,-31.166 8.947,-36.334"
       style="fill:none;stroke:#231f20;stroke-width:0.75;stroke-linecap:butt;stroke-linejoin:miter;stroke-miterlimit:4;stroke-dasharray:none;stroke-opacity:1"
       id="path902" />
    <path
       d="m 672.496,488.9 c 1.209,0.502 2.474,1.068 3.8,1.739 4.264,2.153 15.345,7.538 30.078,7.813"
       style="fill:none;stroke:#231f20;stroke-width:0.75;stroke-linecap:butt;stroke-linejoin:miter;stroke-miterlimit:4;stroke-dasharray:none;stroke-opacity:1"
       id="path904" />
    <path
       d="m 571.978,569.25 c 0.572,-1.063 1.018,-2.208 1.289,-3.443 1.742,-7.894 3.694,-15.361 4.559,-17.707 0.863,-2.344 2.154,-4.688 2.592,-7.035 0.436,-2.348 1.733,-6.187 3.452,-8.527 1.717,-2.343 4.085,-6.604 6.87,-8.728 2.785,-2.124 6.004,-5.955 7.293,-7.658 1.288,-1.702 6.865,-7.658 10.931,-9.777 0.58,-0.302 1.365,-0.703 2.32,-1.182"
       style="fill:none;stroke:#231f20;stroke-width:0.75;stroke-linecap:butt;stroke-linejoin:miter;stroke-miterlimit:4;stroke-dasharray:none;stroke-opacity:1"
       id="path906" />
    <path
       d="m 613.385,675.311 c -7.462,-3.021 -14.696,-9.244 -16.611,-10.961 -1.915,-1.716 -8.68,-18.188 -11.215,-24.818 -2.535,-6.631 -8.852,-27.798 -10.753,-32.931"
       style="fill:none;stroke:#231f20;stroke-width:0.75;stroke-linecap:butt;stroke-linejoin:miter;stroke-miterlimit:4;stroke-dasharray:none;stroke-opacity:1"
       id="path908" />
    <path
       d="m 699.611,686.988 c 0,0 -20.746,7.387 -25.664,9.076 -4.919,1.687 -11.528,-0.903 -16.222,-1.99 -0.616,-0.142 -1.372,-0.374 -2.228,-0.673"
       style="fill:none;stroke:#231f20;stroke-width:0.75;stroke-linecap:butt;stroke-linejoin:miter;stroke-miterlimit:4;stroke-dasharray:none;stroke-opacity:1"
       id="path910" />
    <path
       d="m 714.466,570.621 c 2.061,-5.527 4.031,-12.288 5.157,-22.57 2.309,-21.065 0.947,-22.633 0.127,-30.537"
       style="fill:none;stroke:#231f20;stroke-width:0.75;stroke-linecap:butt;stroke-linejoin:miter;stroke-miterlimit:4;stroke-dasharray:none;stroke-opacity:1"
       id="path912" />
    <path
       d="m 718.911,667.422 c 1.526,-7.468 2.253,-27.966 -0.475,-39.722 -1.912,-8.243 -2.263,-13.33 -3.911,-18.071"
       style="fill:none;stroke:#231f20;stroke-width:0.75;stroke-linecap:butt;stroke-linejoin:miter;stroke-miterlimit:4;stroke-dasharray:none;stroke-opacity:1"
       id="path914" />
    <path
       d="m 629.453,714.243 c 4.047,2.58 11.715,7.097 12.79,5.606 1.073,-1.49 -4.241,-7.065 -8.714,-9.859 -4.475,-2.795 -10.812,-8.134 -12.149,-5.817 -0.861,1.491 4.026,7.491 8.073,10.07 z"
       style="fill:none;stroke:#231f20;stroke-width:0.5;stroke-linecap:butt;stroke-linejoin:miter;stroke-miterlimit:4;stroke-dasharray:none;stroke-opacity:1"
       id="path916" />
    <path
       d="m 613.624,771.835 c 5.581,-6.81 16.292,-14.879 22.497,-17.843 6.205,-2.965 19.245,-6.327 23.519,-7.163"
       style="fill:none;stroke:#231f20;stroke-width:0.5;stroke-linecap:butt;stroke-linejoin:miter;stroke-miterlimit:4;stroke-dasharray:none;stroke-opacity:1"
       id="path918" />
    <path
       d="m 437.179,733.516 c 6.375,7.501 25.737,24.665 35.957,31.755 10.221,7.09 25.338,17.83 47.097,23.474 21.758,5.642 33.714,6.333 43.753,5.733 10.039,-0.598 17.306,-2.277 24.797,-6.089 7.49,-3.813 18.626,-11.027 25.074,-21.25 6.449,-10.223 7.536,-14.917 9.062,-22.385 1.526,-7.468 5.171,-11.083 7.948,-11.072"
       style="fill:none;stroke:#231f20;stroke-width:0.5;stroke-linecap:butt;stroke-linejoin:miter;stroke-miterlimit:4;stroke-dasharray:none;stroke-opacity:1"
       id="path920" />
    <path
       d="m 563.734,803.874 c 11.961,-0.471 31.637,-7.77 42.342,-14.131 10.703,-6.362 29.969,-17.815 36.384,-19.495 6.413,-1.682 23.959,-10.151 27.389,-13.127 3.429,-2.975 17.557,-11.031 13.305,-15.747 -4.252,-4.716 -18.358,-1.785 -27.738,-5.668 -7.115,-2.945 -18.114,-8.83 -21.522,-10.98 -3.408,-2.149 -12.16,-2.827 -14.307,-0.273 -2.146,2.553 0.345,19.648 -1.389,26.047 -1.736,6.399 -0.68,9.18 -9.463,15.763 -6.273,4.705 -15.206,10.827 -20.351,15.291 -5.143,4.463 -10.498,8.498 -20.752,9.096 -8.744,0.511 -26.062,2.027 -56.766,-8.992 -30.912,-11.093 -55.795,-37.177 -64.513,-46.182 -8.718,-9.005 -16.98,-24.842 -22.488,-35.543 -5.508,-10.7 -11.855,-24.821 -15.217,-38.075 -3.361,-13.254 -4.185,-20.517 -0.743,-26.696 3.443,-6.179 8.828,-14.472 18.461,-23.201 14.222,-12.893 29.617,-20.851 32.124,-21.861 1.571,-0.635 1.841,-1.301 0.149,-1.988 -1.773,-0.723 -7.174,-3.379 -11.429,-7.241 -4.254,-3.861 -14.909,-9.459 -23.632,-17.183 -8.723,-7.724 -14.664,-16.932 -16.774,-23.133 -2.109,-6.202 -1.014,-12.817 1.158,-21.564 2.172,-8.746 8.006,-24.951 16.826,-40.717 8.821,-15.768 19.135,-30.886 34.135,-43.209 14.999,-12.322 38.549,-26.532 65.054,-32.615 26.505,-6.082 44.432,-3.232 56.372,1.09 11.942,4.32 21.08,14.608 25.533,22.101 4.455,7.492 3.795,11.975 3.136,16.455 -0.659,4.483 -2.417,16.434 -1.149,19.429 1.268,2.995 2.759,4.069 6.822,3.018 4.061,-1.05 14.769,-8.267 23.537,-11.22 8.767,-2.953 20.732,-4.612 23.724,-4.813 2.989,-0.201 5.337,0.449 9.613,-1.028 4.277,-1.478 5.129,-0.831 7.693,-1.249 2.564,-0.416 5.347,-2.112 3.439,-5.324 -1.908,-3.211 -6.582,-8.996 -17.46,-12.246 -10.877,-3.248 -16.849,-5.195 -28.575,-9.728 -14.345,-5.546 -21.077,-15.464 -34.714,-22.567 -13.638,-7.104 -29.417,-12.509 -55.684,-12.618 -15.161,-0.063 -36.968,5.826 -41.676,8.368 -4.709,2.543 -14.765,7.199 -20.113,9.312 -5.347,2.114 -18.82,6.543 -23.099,8.66 -4.28,2.118 -25.248,11.639 -40.425,15.42 -15.178,3.782 -47.236,10.054 -61.13,13.199 -13.894,3.146 -22.863,3.323 -45.325,12.625 -22.461,9.303 -50.935,26.481 -60.587,36.692 -9.652,10.211 -9.032,15.125 -6.71,21.54 2.323,6.416 10.832,14.14 17.225,17.369 6.393,3.23 13.65,4.328 18.343,5.415 4.693,1.088 17.067,3.916 24.108,5.44 7.041,1.523 18.133,4.559 26.027,6.3 7.894,1.742 17.92,4.347 28.779,11.867 10.861,7.519 19.154,15.881 21.271,20.375 2.116,4.493 1.417,18.371 1.18,24.135 -0.237,5.765 -3.47,12.799 -12.038,19.17 -8.569,6.371 -17.778,12.739 -28.041,15.686 -10.262,2.947 -24.573,3.528 -47.03,11.976 -22.458,8.449 -44.895,11.772 -49.651,25.846 -4.757,14.075 19.736,29.766 24.636,32.563 4.899,2.795 13.846,8.171 23.446,10.774 9.599,2.603 21.543,6.069 27.088,7.801 5.544,1.731 42.659,11.923 47.565,13.438 4.905,1.516 16.42,5.407 21.968,6.498 5.548,1.091 14.506,3.691 17.063,4.983 2.558,1.292 14.713,5.401 18.764,6.912 4.051,1.511 47.318,21.551 59.676,28.223 12.358,6.671 32.607,15.725 46.695,17.492 14.086,1.767 24.549,2.238 29.461,2.045 z"
       style="fill:none;stroke:#231f20;stroke-width:0.5;stroke-linecap:butt;stroke-linejoin:miter;stroke-miterlimit:4;stroke-dasharray:none;stroke-opacity:1"
       id="path922" />
    <path
       d="M 348.724,590.711 131.122,589.805"
       style="fill:none;stroke:#231f20;stroke-width:0.75;stroke-linecap:butt;stroke-linejoin:miter;stroke-miterlimit:4;stroke-dasharray:none;stroke-opacity:1"
       id="path924" />
    <path
       d="m 364.349,582.02 c -2.544,1.984 -5.572,4.674 -8.349,4.877 -2.777,0.201 -7.049,0.611 -7.276,3.814 -0.227,3.202 3.617,3.218 6.818,3.872 3.2,0.654 8.538,0.676 10.874,4.102 -2.125,-2.784 -2.333,-4.067 -0.194,-4.912 2.139,-0.846 6.845,-2.961 6.638,-4.458 -0.207,-1.494 -7.034,-3.018 -8.74,-3.451 -1.707,-0.435 -1.49,-1.289 0.229,-3.844 z"
       style="fill:none;stroke:#231f20;stroke-width:0.75;stroke-linecap:butt;stroke-linejoin:miter;stroke-miterlimit:4;stroke-dasharray:none;stroke-opacity:1"
       id="path926" />
    <path
       d="m 394.408,645.569 c 5.148,-5.317 12.016,-13.831 18.694,-27.47 6.676,-13.639 8.643,-24.309 8.865,-26.657 0.224,-2.348 -0.573,-16.018 -3.758,-20.516 -3.184,-4.498 -3.8,-10.479 -6.345,-14.76 -2.544,-4.282 -7.626,-14.767 -14.869,-19.069"
       style="fill:none;stroke:#231f20;stroke-width:0.5;stroke-linecap:butt;stroke-linejoin:miter;stroke-miterlimit:4;stroke-dasharray:none;stroke-opacity:1"
       id="path928" />
    <path
       d="m 612.747,418.409 c 5.741,6.003 12.963,15.003 21.501,16.105 8.539,1.104 22.417,1.589 25.609,3.951"
       style="fill:none;stroke:#231f20;stroke-width:0.5;stroke-linecap:butt;stroke-linejoin:miter;stroke-miterlimit:4;stroke-dasharray:none;stroke-opacity:1"
       id="path930" />
    <path
       d="m 452.515,435.465 c 6.426,-4.884 22.272,-15.283 29.336,-19.095 7.062,-3.817 11.985,-6.572 15.195,-8.266 3.211,-1.695 20.114,-9.527 35.074,-12.24 14.96,-2.714 29.056,-3.296 42.705,1.032 13.649,4.328 25.358,12.918 32.163,19.993 6.804,7.076 9.76,14.989 9.738,20.542 -0.023,5.552 0.148,15.376 5.697,16.254"
       style="fill:none;stroke:#231f20;stroke-width:0.5;stroke-linecap:butt;stroke-linejoin:miter;stroke-miterlimit:4;stroke-dasharray:none;stroke-opacity:1"
       id="path932" />
    <path
       d="m 381.022,526.994 c 5.114,2.584 14.697,9.03 15.973,10.103 2.14,-1.058 4.087,-7.03 6.487,-19.192 2.4,-12.162 9.306,-29.645 14.469,-38.807 5.164,-9.16 17.409,-26.834 20.842,-30.662 3.433,-3.831 18.863,-16.793 18.863,-16.793 0,0 -16.7,10.395 -20.126,12.516 -3.426,2.121 -27.408,17.61 -31.904,20.581 -4.498,2.971 -25.903,15.268 -32.535,18.23 -6.633,2.962 -29.538,16.107 -33.177,18.227 -3.64,2.12 -11.131,6.36 -13.271,7.419 -2.14,1.058 -1.079,2.557 1.481,3.424 2.559,0.863 9.383,3.24 12.794,4.323 3.413,1.081 7.461,3.233 10.234,4.099 2.772,0.867 7.679,2.167 12.161,2.615 4.482,0.446 12.594,1.334 17.709,3.917"
       style="fill:#706d6e;fill-opacity:1;fill-rule:nonzero;stroke:none;stroke-width:0.1"
       id="path934" />
    <path
       d="m 381.022,526.994 c 5.114,2.584 14.697,9.03 15.973,10.103 2.14,-1.058 4.087,-7.03 6.487,-19.192 2.4,-12.162 9.306,-29.645 14.469,-38.807 5.164,-9.16 17.409,-26.834 20.842,-30.662 3.433,-3.831 18.863,-16.793 18.863,-16.793 0,0 -16.7,10.395 -20.126,12.516 -3.426,2.121 -27.408,17.61 -31.904,20.581 -4.498,2.971 -25.903,15.268 -32.535,18.23 -6.633,2.962 -29.538,16.107 -33.177,18.227 -3.64,2.12 -11.131,6.36 -13.271,7.419 -2.14,1.058 -1.079,2.557 1.481,3.424 2.559,0.863 9.383,3.24 12.794,4.323 3.413,1.081 7.461,3.233 10.234,4.099 2.772,0.867 7.679,2.167 12.161,2.615 4.482,0.446 12.594,1.334 17.709,3.917 z"
       style="fill:none;stroke:#231f20;stroke-width:0.5;stroke-linecap:butt;stroke-linejoin:miter;stroke-miterlimit:4;stroke-dasharray:none;stroke-opacity:1"
       id="path936" />
    <path
       d="m 375.839,694.395 c 8.314,3.665 18.116,8.831 26.209,13.989 8.093,5.159 14.055,9.456 16.185,10.745 2.13,1.291 5.319,4.721 9.149,7.94 3.83,3.219 13.131,10.928 16.324,13.289 -3.612,-4.285 -21.358,-35.092 -24.959,-42.154 -3.601,-7.062 -12.904,-29.523 -14.792,-37.647 -1.887,-8.122 -3.368,-11.759 -4,-13.683 -0.633,-1.925 -2.765,-2.574 -6.402,-1.094 -3.637,1.479 -12.187,3.579 -15.394,4.42 -3.206,0.84 -14.329,5.278 -18.185,8.039 -3.855,2.76 -13.694,6.349 -15.831,6.981 -2.139,0.632 -11.905,4.748 -13.264,5.497 -1.926,1.06 -4.71,2.97 1.899,5.56 6.609,2.59 16.202,6.687 20.252,8.413 4.051,1.726 14.496,6.039 22.809,9.705"
       style="fill:#706d6e;fill-opacity:1;fill-rule:nonzero;stroke:none;stroke-width:0.1"
       id="path938" />
    <path
       d="m 375.839,694.395 c 8.314,3.665 18.116,8.831 26.209,13.989 8.093,5.159 14.055,9.456 16.185,10.745 2.13,1.291 5.319,4.721 9.149,7.94 3.83,3.219 13.131,10.928 16.324,13.289 -3.612,-4.285 -21.358,-35.092 -24.959,-42.154 -3.601,-7.062 -12.904,-29.523 -14.792,-37.647 -1.887,-8.122 -3.368,-11.759 -4,-13.683 -0.633,-1.925 -2.765,-2.574 -6.402,-1.094 -3.637,1.479 -12.187,3.579 -15.394,4.42 -3.206,0.84 -14.329,5.278 -18.185,8.039 -3.855,2.76 -13.694,6.349 -15.831,6.981 -2.139,0.632 -11.905,4.748 -13.264,5.497 -1.926,1.06 -4.71,2.97 1.899,5.56 6.609,2.59 16.202,6.687 20.252,8.413 4.051,1.726 14.496,6.039 22.809,9.705 z"
       style="fill:none;stroke:#231f20;stroke-width:0.5;stroke-linecap:butt;stroke-linejoin:miter;stroke-miterlimit:4;stroke-dasharray:none;stroke-opacity:1"
       id="path940" />
    <path
       d="m 619.761,579.88 c 11.717,-1.165 17.535,-5.692 19.681,-8.032 2.145,-2.34 3.022,-7.889 2.414,-15.58 -0.608,-7.689 -2.456,-25.422 -4.153,-28.204 -1.698,-2.784 -6.377,-7.288 -13.442,-3.046 -7.064,4.241 -4.336,15.57 -8.634,22.173 -4.298,6.602 -5.362,5.316 -10.28,7.005 -4.918,1.687 -11.338,4.863 -11.361,10.629 -0.025,5.765 2.949,9.408 8.492,11.781 5.543,2.371 11.089,3.889 17.283,3.274 z"
       style="fill:none;stroke:#231f20;stroke-width:0.5;stroke-linecap:butt;stroke-linejoin:miter;stroke-miterlimit:4;stroke-dasharray:none;stroke-opacity:1"
       id="path942" />
    <path
       d="m 445.444,645.996 c 5.561,-1.899 14.531,-2.075 21.788,-1.191 7.256,0.884 16.867,0.711 24.751,4.801 7.884,4.09 16.188,9.89 20.224,15.246 4.035,5.356 7.365,11.649 11.036,16.49 5.522,7.283 11.485,11.152 14.244,15.221 2.76,4.069 11.62,17.252 7.564,29.501 -3.46,10.449 -18.207,13.377 -24.824,12.71 -6.617,-0.669 -20.702,-2.863 -37.513,-17.24"
       style="fill:none;stroke:#231f20;stroke-width:0.5;stroke-linecap:butt;stroke-linejoin:miter;stroke-miterlimit:4;stroke-dasharray:none;stroke-opacity:1"
       id="path944" />
    <path
       d="m 503.659,614.846 c 3.849,0.61 25.393,4.804 29.232,5.888 3.84,1.083 4.682,3.864 4.241,7.279 -0.442,3.414 -1.976,13.018 -2.63,16.431 -0.656,3.414 -3.217,3.19 -4.919,1.474 -1.701,-1.715 -9.775,-11.572 -11.048,-13.498 -1.274,-1.928 -2.758,-4.497 -7.656,-7.721 -4.898,-3.223 -7.45,-5.796 -8.727,-6.87 -1.276,-1.072 -1.267,-3.421 1.507,-2.983 z"
       style="fill:none;stroke:#231f20;stroke-width:0.5;stroke-linecap:butt;stroke-linejoin:miter;stroke-miterlimit:4;stroke-dasharray:none;stroke-opacity:1"
       id="path946" />
    <path
       d="m 726.363,672.578 c 5.342,-0.405 10.48,-3.8 17.549,-8.682 7.066,-4.882 20.568,-16.358 24.882,-26.59 4.313,-10.233 6.704,-20.259 6.121,-33.929 -0.584,-13.669 -1.968,-40.37 -7.251,-53.845 -5.283,-13.475 -10.584,-22.252 -16.542,-27.403 -5.958,-5.15 -17.897,-10.111 -23.443,-11.629"
       style="fill:none;stroke:#231f20;stroke-width:0.5;stroke-linecap:butt;stroke-linejoin:miter;stroke-miterlimit:4;stroke-dasharray:none;stroke-opacity:1"
       id="path948" />
    <path
       d="m 785.464,736.248 c 4.067,-1.905 18.655,-17.86 27.461,-30.423"
       style="fill:none;stroke:#231f20;stroke-width:0.5;stroke-linecap:butt;stroke-linejoin:miter;stroke-miterlimit:4;stroke-dasharray:none;stroke-opacity:1"
       id="path950" />
    <path
       d="m 761.982,477.97 c 3.824,4.714 10.765,12.917 13.178,15.216 4.041,3.861 10.009,6.234 15.547,10.102 5.535,3.867 10.64,9.013 13.589,18.209 2.953,9.195 3.362,13.68 3.937,29.272 0.576,15.591 4.035,50.381 5.063,66.221 0.802,12.389 -0.966,26.903 -2.265,31.383 -1.301,4.479 -6.666,10.863 -11.387,16.396 -4.722,5.532 -36.03,37.007 -40.102,40.407"
       style="fill:none;stroke:#231f20;stroke-width:0.5;stroke-linecap:butt;stroke-linejoin:miter;stroke-miterlimit:4;stroke-dasharray:none;stroke-opacity:1"
       id="path952" />
    <path
       d="m 798.408,448.866 c 2.338,2.358 5.316,5.36 7.223,8.785 1.908,3.425 13.56,25.896 16.74,31.461"
       style="fill:none;stroke:#231f20;stroke-width:0.5;stroke-linecap:butt;stroke-linejoin:miter;stroke-miterlimit:4;stroke-dasharray:none;stroke-opacity:1"
       id="path954" />
    <path
       d="m 629.396,471.438 c 3.424,-1.694 12.631,-7.635 14.558,-8.695 1.926,-1.061 3.003,-3.19 -1.271,-2.568 -4.273,0.622 -14.977,6.986 -18.404,9.32 -3.426,2.334 -5.998,4.673 -5.576,5.957 0.421,1.282 7.269,-2.32 10.693,-4.014 z"
       style="fill:none;stroke:#231f20;stroke-width:0.5;stroke-linecap:butt;stroke-linejoin:miter;stroke-miterlimit:4;stroke-dasharray:none;stroke-opacity:1"
       id="path956" />
    <path
       d="m 616.668,605.067 c 7.901,-0.088 15.374,0.064 18.773,4.349 3.4,4.285 4.227,10.694 3.35,16.244 -0.877,5.548 -5.831,15.564 -6.695,17.91 -0.864,2.345 -1.968,10.883 -6.888,13.211 -4.921,2.328 -11.121,3.798 -15.168,1.432 -4.047,-2.366 -1.466,-7.053 -0.39,-9.185 1.077,-2.13 5.373,-8.092 4.539,-12.793 -0.836,-4.702 -3.598,-7.917 -9.986,-12.428 -6.387,-4.511 -9.14,-10.075 -8.707,-11.354 0.689,-2.053 2.349,-4.688 5.783,-5.989 3.55,-1.34 8.121,-1.32 15.389,-1.397 z"
       style="fill:none;stroke:#231f20;stroke-width:0.5;stroke-linecap:butt;stroke-linejoin:miter;stroke-miterlimit:4;stroke-dasharray:none;stroke-opacity:1"
       id="path958" />
    <path
       d="m 447.633,530.901 c 9.809,3.246 26.469,2.46 37.169,-2.834 10.699,-5.295 13.696,-6.991 28.923,-22.516 15.226,-15.526 20.592,-21.91 24.69,-31.717 4.098,-9.806 4.763,-15.568 1.364,-19.853 -3.399,-4.285 -5.529,-5.789 -16.634,-5.408 -11.107,0.381 -26.279,2.881 -41.49,14.562"
       style="fill:none;stroke:#231f20;stroke-width:0.5;stroke-linecap:butt;stroke-linejoin:miter;stroke-miterlimit:4;stroke-dasharray:none;stroke-opacity:1"
       id="path960" />
    <path
       d="m 513.498,560.005 c 4.484,0.019 8.108,1.314 11.744,0.263 3.634,-1.054 4.704,-1.476 5.579,-6.597 0.876,-5.122 2.626,-14.938 3.069,-18.78 0.442,-3.842 -0.613,-6.623 -4.472,-3.222 -3.858,3.402 -22.291,19.553 -25.939,24.238 -3.651,4.682 1.687,4.919 3.397,4.498 1.71,-0.42 2.137,-0.418 6.622,-0.4 z"
       style="fill:none;stroke:#231f20;stroke-width:0.5;stroke-linecap:butt;stroke-linejoin:miter;stroke-miterlimit:4;stroke-dasharray:none;stroke-opacity:1"
       id="path962" />
    <path
       d="m 457.509,448.834 1.068,1.28"
       style="fill:none;stroke:#231f20;stroke-width:0.5;stroke-linecap:butt;stroke-linejoin:miter;stroke-miterlimit:4;stroke-dasharray:none;stroke-opacity:1"
       id="path964" />
    <path
       d="m 484.495,430.469 1.067,1.707"
       style="fill:none;stroke:#231f20;stroke-width:0.5;stroke-linecap:butt;stroke-linejoin:miter;stroke-miterlimit:4;stroke-dasharray:none;stroke-opacity:1"
       id="path966" />
    <path
       d="m 592.168,591.298 c 0,0 43.785,0.238 46.996,0.251"
       style="fill:none;stroke:#231f20;stroke-width:0.5;stroke-linecap:butt;stroke-linejoin:miter;stroke-miterlimit:4;stroke-dasharray:none;stroke-opacity:1"
       id="path968" />
    <path
       d="m 555.429,584.207 c 6.19,0.688 1.491,10.438 -2.385,8.947 -3.878,-1.491 -0.298,-9.245 2.385,-8.947"
       style="fill:#ffffff;fill-opacity:1;fill-rule:nonzero;stroke:none;stroke-width:0.1"
       id="path970" />
    <path
       d="m 555.429,584.207 c 6.19,0.688 1.491,10.438 -2.385,8.947 -3.878,-1.491 -0.298,-9.245 2.385,-8.947 z"
       style="fill:none;stroke:#231f20;stroke-width:0.75;stroke-linecap:butt;stroke-linejoin:miter;stroke-miterlimit:4;stroke-dasharray:none;stroke-opacity:1"
       id="path972" />
    <path
       d="m 752.566,600.908 c 0.635,-14.603 -1.5,-33.884 -3.579,-37.578 -2.685,-4.773 -4.175,-5.965 -5.667,-4.773 -1.49,1.193 2.088,4.176 2.982,8.352 0.896,4.175 3.282,19.683 2.685,28.929 -0.597,9.246 -2.685,26.245 -4.474,31.315 -1.789,5.07 -3.877,9.842 0,5.666 3.877,-4.175 7.456,-18.192 8.053,-31.911 z"
       style="fill:none;stroke:#231f20;stroke-width:0.5;stroke-linecap:butt;stroke-linejoin:miter;stroke-miterlimit:4;stroke-dasharray:none;stroke-opacity:1"
       id="path974" />
    <path
       d="m 570.015,885.048 c -0.59,-12.174 -4.846,-73.666 -5.668,-81.144"
       style="fill:none;stroke:#231f20;stroke-width:0.5;stroke-linecap:round;stroke-linejoin:round;stroke-miterlimit:4;stroke-dasharray:2.8, 1.8;stroke-dashoffset:0;stroke-opacity:1"
       id="path976" />
    <path
       d="m 501.216,791.161 1.365,91.934"
       style="fill:none;stroke:#231f20;stroke-width:0.5;stroke-linecap:round;stroke-linejoin:round;stroke-miterlimit:4;stroke-dasharray:2.8, 1.8;stroke-dashoffset:0;stroke-opacity:1"
       id="path978" />
    <path
       d="M 207.545,817.484 273.09,706.324"
       style="fill:none;stroke:#231f20;stroke-width:0.5;stroke-linecap:round;stroke-linejoin:round;stroke-miterlimit:4;stroke-dasharray:2.8, 1.8;stroke-dashoffset:0;stroke-opacity:1"
       id="path980" />
    <path
       d="m 180.603,793.253 76.1,-99.015"
       style="fill:none;stroke:#231f20;stroke-width:0.5;stroke-linecap:round;stroke-linejoin:round;stroke-miterlimit:4;stroke-dasharray:2.8, 1.8;stroke-dashoffset:0;stroke-opacity:1"
       id="path982" />
    <path
       d="M 143.923,745.03 248.397,683.4"
       style="fill:none;stroke:#231f20;stroke-width:0.5;stroke-linecap:round;stroke-linejoin:round;stroke-miterlimit:4;stroke-dasharray:2.8, 1.8;stroke-dashoffset:0;stroke-opacity:1"
       id="path984" />
    <path
       d="m 127.051,592.776 c 29.345,30.233 95.803,62.308 125.87,72.47"
       style="fill:none;stroke:#231f20;stroke-width:0.5;stroke-linecap:round;stroke-linejoin:round;stroke-miterlimit:4;stroke-dasharray:2.8, 1.8;stroke-dashoffset:0;stroke-opacity:1"
       id="path986" />
    <path
       d="m 285.474,651.309 -4.657,-60.881"
       style="fill:none;stroke:#231f20;stroke-width:0.5;stroke-linecap:round;stroke-linejoin:round;stroke-miterlimit:4;stroke-dasharray:2.8, 1.8;stroke-dashoffset:0;stroke-opacity:1"
       id="path988" />
    <path
       d="m 663.515,688.332 c 4.266,1.086 9.826,-0.599 16.887,-3.773 7.059,-3.174 17.113,-7.189 18.385,-4.835 1.271,2.354 -4.936,5.532 -12.207,8.064 -7.27,2.532 -17.53,4.625 -23.078,3.534 -5.547,-1.091 -7.676,-2.809 -10.012,-5.807 -2.336,-3 -5.088,-8.991 -5.291,-11.555 -0.202,-2.563 0.453,-6.19 2.16,-5.969 1.708,0.219 1.051,4.275 1.68,7.054 0.629,2.779 4.873,8.989 6.15,10.275 1.275,1.287 2.766,2.362 5.326,3.012 z"
       style="fill:none;stroke:#231f20;stroke-width:0.5;stroke-linecap:round;stroke-linejoin:round;stroke-miterlimit:4;stroke-dasharray:2.8, 1.8;stroke-dashoffset:0;stroke-opacity:1"
       id="path990" />
    <path
       d="m 658.953,707.106 c 3.853,-2.546 13.462,-2.08 17.724,-0.14 4.263,1.94 7.668,4.516 7.443,7.505 -0.226,2.989 -6.843,2.321 -6.843,2.321"
       style="fill:none;stroke:#231f20;stroke-width:0.5;stroke-linecap:round;stroke-linejoin:round;stroke-miterlimit:4;stroke-dasharray:2.8, 1.8;stroke-dashoffset:0;stroke-opacity:1"
       id="path992" />
    <path
       d="m 641.824,717.712 c 4.472,2.794 16.195,8.395 21.742,9.7 5.547,1.305 11.529,0.475 13.891,-2.29 2.359,-2.768 3.437,-5.326 -0.18,-8.33 -3.617,-3.005 -15.553,-8.82 -18.751,-9.901 -3.198,-1.081 -7.465,-2.381 -12.362,-5.604 -4.899,-3.225 -18.487,-12.65 -21.748,-8.419 -2.79,3.618 3.576,13.389 3.576,13.389"
       style="fill:none;stroke:#231f20;stroke-width:0.5;stroke-linecap:round;stroke-linejoin:round;stroke-miterlimit:4;stroke-dasharray:2.8, 1.8;stroke-dashoffset:0;stroke-opacity:1"
       id="path994" />
    <path
       d="m 655.031,765.272 41.209,64.42"
       style="fill:none;stroke:#231f20;stroke-width:0.5;stroke-linecap:round;stroke-linejoin:round;stroke-miterlimit:4;stroke-dasharray:2.8, 1.8;stroke-dashoffset:0;stroke-opacity:1"
       id="path996" />
    <path
       d="m 681.427,747.922 59.031,29.066"
       style="fill:none;stroke:#231f20;stroke-width:0.5;stroke-linecap:round;stroke-linejoin:round;stroke-miterlimit:4;stroke-dasharray:2.8, 1.8;stroke-dashoffset:0;stroke-opacity:1"
       id="path998" />
    <path
       d="m 384.321,584.45 c -5.124,-0.02 -10.298,-1.969 -10.143,-3.883 0.226,-2.775 3.808,-4.633 7.021,-6.969"
       style="fill:none;stroke:#231f20;stroke-width:0.5;stroke-linecap:round;stroke-linejoin:round;stroke-miterlimit:4;stroke-dasharray:2.8, 1.8;stroke-dashoffset:0;stroke-opacity:1"
       id="path1000" />
    <path
       d="m 383.11,605.588 c -3.407,-2.363 -7.731,-5.798 -7.724,-7.506 0.008,-1.708 5.696,-4.889 8.899,-4.876"
       style="fill:none;stroke:#231f20;stroke-width:0.5;stroke-linecap:round;stroke-linejoin:round;stroke-miterlimit:4;stroke-dasharray:2.8, 1.8;stroke-dashoffset:0;stroke-opacity:1"
       id="path1002" />
    <path
       d="m 336.958,493.284 c 4.232,-2.019 8.129,-3.597 11.122,-4.225 2.992,-0.629 4.324,-1.725 6.427,-5.099 2.795,-4.473 6.353,-9.563 5.818,-12.575 -1.095,-6.164 -6.15,-10.276 -12.791,-5.179 -6.641,5.099 -0.806,4.569 -12.64,9.771 -3.851,1.691 -8.12,1.033 -14.968,4.636 -6.848,3.602 -7.297,8.725 -4.525,9.592 2.773,0.864 7.034,3.446 5.526,6.428 -1.507,2.983 -2.374,6.182 2.325,5.776 4.7,-0.409 7.928,-6.373 13.706,-9.125 z"
       style="fill:none;stroke:#231f20;stroke-width:0.5;stroke-linecap:round;stroke-linejoin:round;stroke-miterlimit:4;stroke-dasharray:2.8, 1.8;stroke-dashoffset:0;stroke-opacity:1"
       id="path1004" />
    <path
       d="m 317.321,696.073 c 2.554,1.932 4.055,0.23 5.556,-1.045 1.5,-1.275 3.638,-1.693 5.345,-1.472 1.708,0.22 5.974,1.306 4.278,-1.905 -1.873,-3.544 -6.373,-7.927 -9.365,-7.299 -2.993,0.628 -8.369,9.788 -5.814,11.721 z"
       style="fill:none;stroke:#231f20;stroke-width:0.5;stroke-linecap:round;stroke-linejoin:round;stroke-miterlimit:4;stroke-dasharray:2.8, 1.8;stroke-dashoffset:0;stroke-opacity:1"
       id="path1006" />
    <path
       d="m 652.992,481.159 c 3.41,1.722 11.16,2.81 15.652,1.121 4.492,-1.69 10.064,-6.579 9.65,-9.571 -0.416,-2.992 -3.187,-4.07 -5.752,-3.439"
       style="fill:none;stroke:#231f20;stroke-width:0.5;stroke-linecap:round;stroke-linejoin:round;stroke-miterlimit:4;stroke-dasharray:2.8, 1.8;stroke-dashoffset:0;stroke-opacity:1"
       id="path1008" />
    <path
       d="m 643.525,463.034 c 10.274,-5.723 31.101,-6.784 32.889,-0.368 1.531,5.491 -9.008,9.358 -15.217,13.175 -6.209,3.82 -7.711,5.734 -13.057,7.207 -5.345,1.472 -22.879,6.952 -27.16,9.496 -4.281,2.544 -11.966,1.872 -10.879,-2.822 1.088,-4.692 7.416,-11.713 10.631,-14.263"
       style="fill:none;stroke:#231f20;stroke-width:0.5;stroke-linecap:round;stroke-linejoin:round;stroke-miterlimit:4;stroke-dasharray:2.8, 1.8;stroke-dashoffset:0;stroke-opacity:1"
       id="path1010" />
    <path
       d="m 652.039,521.29 c 2.562,0.009 2.364,-3.621 2.371,-5.331 0.008,-1.707 -0.604,-8.756 3.039,-11.945 3.643,-3.187 7.067,-4.668 14.537,-3.783 7.471,0.885 24.957,6.937 26.662,7.586 1.705,0.646 4.274,-0.836 1.934,-2.769 -2.341,-1.932 -12.363,-5.604 -15.35,-6.256 -2.986,-0.654 -11.305,-3.252 -15.574,-3.696 -4.268,-0.445 -11.316,-0.473 -14.748,3.569 -3.435,4.044 -4.75,12.146 -4.768,16.636 -0.014,2.991 0.615,5.983 1.897,5.989 z"
       style="fill:none;stroke:#231f20;stroke-width:0.5;stroke-linecap:round;stroke-linejoin:round;stroke-miterlimit:4;stroke-dasharray:2.8, 1.8;stroke-dashoffset:0;stroke-opacity:1"
       id="path1012" />
    <path
       d="m 558.49,596.807 c -1.729,4.691 -0.749,8.482 0.281,13.998 0.836,4.488 1.66,11.753 6.1,22.661 4.439,10.91 8.211,17.431 10.164,20.543 6.191,9.868 21.633,27.285 53.015,37.863"
       style="fill:none;stroke:#231f20;stroke-width:0.5;stroke-linecap:round;stroke-linejoin:round;stroke-miterlimit:4;stroke-dasharray:2.8, 1.8;stroke-dashoffset:0;stroke-opacity:1"
       id="path1014" />
    <path
       d="M 300.105,856.84 312.834,721.451"
       style="fill:none;stroke:#231f20;stroke-width:0.5;stroke-linecap:round;stroke-linejoin:round;stroke-miterlimit:4;stroke-dasharray:2.8, 1.8;stroke-dashoffset:0;stroke-opacity:1"
       id="path1016" />
    <path
       d="m 646.529,768.98 25.407,78.523"
       style="fill:none;stroke:#231f20;stroke-width:0.5;stroke-linecap:round;stroke-linejoin:round;stroke-miterlimit:4;stroke-dasharray:2.8, 1.8;stroke-dashoffset:0;stroke-opacity:1"
       id="path1018" />
    <path
       d="m 661.433,578.306 42.432,12.193"
       style="fill:none;stroke:#231f20;stroke-width:0.5;stroke-linecap:round;stroke-linejoin:round;stroke-miterlimit:4;stroke-dasharray:2.8, 1.8;stroke-dashoffset:0;stroke-opacity:1"
       id="path1020" />
    <path
       d="m 659.356,610.341 44.915,-17.264"
       style="fill:none;stroke:#231f20;stroke-width:0.5;stroke-linecap:round;stroke-linejoin:round;stroke-miterlimit:4;stroke-dasharray:2.8, 1.8;stroke-dashoffset:0;stroke-opacity:1"
       id="path1022" />
    <path
       d="m 705.068,541.561 c 0.419,-5.387 -3.875,-9.896 -9.977,-9.891 -6.554,0.006 -12.24,5.141 -12.244,11.231 -0.003,5.842 5.276,9.797 11.397,9.089 5.726,-0.661 10.421,-5.24 10.824,-10.429 z"
       style="fill:none;stroke:#231f20;stroke-width:0.5;stroke-linecap:round;stroke-linejoin:round;stroke-miterlimit:4;stroke-dasharray:2.8, 1.8;stroke-dashoffset:0;stroke-opacity:1"
       id="path1024" />
    <path
       d="m 691.038,586.813 c -6.156,-4.852 -7.48,-18.97 -0.786,-29.01 7.157,-10.736 17.882,-10.556 29.371,-9.752"
       style="fill:none;stroke:#231f20;stroke-width:0.5;stroke-linecap:round;stroke-linejoin:round;stroke-miterlimit:4;stroke-dasharray:2.8, 1.8;stroke-dashoffset:0;stroke-opacity:1"
       id="path1026" />
    <path
       d="m 699.899,594.758 c -7.035,2.704 -25.546,14.147 -14.41,33.128 11.025,18.793 29.771,17.146 34.741,17.318"
       style="fill:none;stroke:#231f20;stroke-width:0.5;stroke-linecap:round;stroke-linejoin:round;stroke-miterlimit:4;stroke-dasharray:2.8, 1.8;stroke-dashoffset:0;stroke-opacity:1"
       id="path1028" />
    <path
       d="m 704.376,649.232 c 1.69,-5.521 -2.002,-11.876 -8.729,-13.45 -7.007,-1.638 -12.955,2.853 -13.011,9.116 -0.049,5.393 4.428,10.025 9.837,10.96 5.244,0.908 10.435,-1.828 11.903,-6.626"
       style="fill:#ffffff;fill-opacity:1;fill-rule:nonzero;stroke:none;stroke-width:0.1"
       id="path1030" />
    <path
       d="m 704.376,649.232 c 1.69,-5.521 -2.002,-11.876 -8.729,-13.45 -7.007,-1.638 -12.955,2.853 -13.011,9.116 -0.049,5.393 4.428,10.025 9.837,10.96 5.244,0.908 10.435,-1.828 11.903,-6.626 z"
       style="fill:none;stroke:#231f20;stroke-width:0.5;stroke-linecap:round;stroke-linejoin:round;stroke-miterlimit:4;stroke-dasharray:2.8, 1.8;stroke-dashoffset:0;stroke-opacity:1"
       id="path1032" />
    <path
       d="m 468.794,717.851 c 11.718,10.935 35.988,28.233 54.28,28.233 18.292,0 32.011,-2.783 35.392,-13.52 3.379,-10.736 3.182,-18.093 -5.568,-28.83 -8.748,-10.736 -23.859,-27.836 -26.444,-29.625 -2.584,-1.789 -8.35,-13.918 -12.724,-18.292 -4.375,-4.374 -31.018,-17.497 -45.731,-18.292 -14.713,-0.795 -30.619,1.392 -34.596,7.556 -3.976,6.163 -2.982,18.292 4.772,29.227 7.754,10.936 13.322,23.462 17.696,28.83 4.374,5.368 8.818,10.882 12.923,14.713 z"
       style="fill:none;stroke:#231f20;stroke-width:0.5;stroke-linecap:round;stroke-linejoin:round;stroke-miterlimit:4;stroke-dasharray:2.8, 1.8;stroke-dashoffset:0;stroke-opacity:1"
       id="path1034" />
    <path
       d="m 476.748,693.594 c 6.225,4.893 15.508,12.129 24.654,14.117 9.146,1.988 17.894,0 19.883,-2.784 1.988,-2.783 2.187,-6.76 -5.17,-16.9 -7.356,-10.14 -19.485,-26.444 -29.227,-29.028 -9.742,-2.585 -23.462,-0.199 -25.847,3.777 -2.387,3.976 -2.784,10.736 1.192,15.906 3.977,5.17 10.481,11.742 14.515,14.912 z"
       style="fill:none;stroke:#231f20;stroke-width:0.5;stroke-linecap:round;stroke-linejoin:round;stroke-miterlimit:4;stroke-dasharray:2.8, 1.8;stroke-dashoffset:0;stroke-opacity:1"
       id="path1036" />
    <path
       d="m 480.724,692.6 c 7.235,5.245 17.895,9.146 23.86,10.14 5.964,0.994 10.338,1.194 12.525,-2.187 2.187,-3.38 -1.789,-7.357 -4.772,-12.327 -2.982,-4.971 -14.315,-18.889 -20.081,-22.666 -5.766,-3.778 -15.31,-6.164 -21.871,-2.585 -6.561,3.579 -8.947,10.538 -4.97,15.508 3.342,4.178 7.356,8.351 15.309,14.117 z"
       style="fill:none;stroke:#231f20;stroke-width:0.5;stroke-linecap:round;stroke-linejoin:round;stroke-miterlimit:4;stroke-dasharray:2.8, 1.8;stroke-dashoffset:0;stroke-opacity:1"
       id="path1038" />
    <path
       d="m 480.923,751.652 c 12.401,8.643 30.421,20.478 38.175,21.274 7.754,0.795 20.081,1.988 26.841,2.386 6.76,0.398 22.07,1.79 25.649,-0.597 3.58,-2.385 9.544,-2.982 11.134,-24.455 0,0 -0.795,-2.187 -2.186,3.976 -1.392,6.164 -5.568,12.328 -8.749,14.912 -3.181,2.585 -8.35,4.374 -14.118,3.38 -5.765,-0.994 -14.711,-0.994 -21.075,-1.789 -6.362,-0.796 -17.696,-1.392 -25.648,-4.573 -7.953,-3.181 -19.286,-11.731 -27.239,-16.9 -7.954,-5.17 -16.304,-11.135 -20.877,-15.111 -4.573,-3.977 -8.351,-7.357 -16.304,-18.491 -7.953,-11.134 -18.69,-30.818 -22.467,-41.754 -3.778,-10.935 -6.761,-24.455 -2.386,-33.203 4.374,-8.749 10.537,-12.726 18.689,-15.907 8.152,-3.181 19.684,-9.742 34.994,-4.772 15.31,4.971 20.081,10.339 21.473,11.532 1.392,1.193 15.111,9.147 17.894,11.93 2.784,2.783 14.714,15.707 17.696,20.479 2.983,4.772 7.357,11.731 8.749,11.333 1.391,-0.398 -6.76,-12.327 -10.737,-17.497 -3.977,-5.169 -15.906,-17.894 -21.473,-21.076 -5.567,-3.181 -13.72,-10.14 -18.292,-12.923 -4.574,-2.784 -22.468,-10.537 -38.573,-6.163 -16.105,4.374 -30.619,8.549 -34.993,24.654 -4.374,16.105 7.555,42.549 11.531,51.695 3.977,9.146 15.31,27.041 23.661,35.789 8.351,8.748 22.07,17.298 28.631,21.871 z"
       style="fill:none;stroke:#231f20;stroke-width:0.5;stroke-linecap:round;stroke-linejoin:round;stroke-miterlimit:4;stroke-dasharray:2.8, 1.8;stroke-dashoffset:0;stroke-opacity:1"
       id="path1040" />
    <path
       d="m 467.598,742.51 2.065,-2.956"
       style="fill:none;stroke:#231f20;stroke-width:0.5;stroke-linecap:round;stroke-linejoin:round;stroke-miterlimit:4;stroke-dasharray:2.8, 1.8;stroke-dashoffset:0;stroke-opacity:1"
       id="path1042" />
    <path
       d="m 495.79,761.582 1.765,-2.97"
       style="fill:none;stroke:#231f20;stroke-width:0.5;stroke-linecap:round;stroke-linejoin:round;stroke-miterlimit:4;stroke-dasharray:2.8, 1.8;stroke-dashoffset:0;stroke-opacity:1"
       id="path1044" />
    <path
       d="m 425.918,628.516 2.445,3.202"
       style="fill:none;stroke:#231f20;stroke-width:0.5;stroke-linecap:round;stroke-linejoin:round;stroke-miterlimit:4;stroke-dasharray:2.8, 1.8;stroke-dashoffset:0;stroke-opacity:1"
       id="path1046" />
    <path
       d="m 452.093,617.643 1.07,2.254"
       style="fill:none;stroke:#231f20;stroke-width:0.5;stroke-linecap:round;stroke-linejoin:round;stroke-miterlimit:4;stroke-dasharray:2.8, 1.8;stroke-dashoffset:0;stroke-opacity:1"
       id="path1048" />
    <path
       d="m 582.722,750.26 c 0,-7.357 -0.596,-25.052 -9.543,-41.754 -8.947,-16.701 -26.246,-29.028 -32.011,-33.204 0,0 20.876,-1.591 17.695,-63.227"
       style="fill:none;stroke:#231f20;stroke-width:0.5;stroke-linecap:round;stroke-linejoin:round;stroke-miterlimit:4;stroke-dasharray:2.8, 1.8;stroke-dashoffset:0;stroke-opacity:1"
       id="path1050" />
    <path
       d="m 463.625,595.175 c 4.408,0.579 14.912,1.591 24.456,1.789 9.544,0.199 17.695,0 25.052,0.199 7.356,0.199 20.877,1.392 24.854,1.79 3.975,0.397 11.134,1.987 11.134,0.596 0,-1.392 -13.918,-2.983 -24.059,-3.579 -10.14,-0.596 -24.654,-0.199 -32.408,-0.596 -7.755,-0.398 -22.471,-0.97 -25.848,-1.392 -6.362,-0.795 -8.224,0.53 -3.181,1.193 z"
       style="fill:none;stroke:#231f20;stroke-width:0.5;stroke-linecap:round;stroke-linejoin:round;stroke-miterlimit:4;stroke-dasharray:2.8, 1.8;stroke-dashoffset:0;stroke-opacity:1"
       id="path1052" />
    <path
       d="m 468.198,585.631 c 5.574,-0.748 14.713,-1.79 23.263,-0.994 8.549,0.795 22.069,1.393 29.227,0.994 7.158,-0.398 21.871,-3.181 25.052,-4.175 3.181,-0.995 6.363,-2.585 5.765,-3.38 -0.595,-0.795 -3.577,1.391 -11.927,2.784 -8.351,1.39 -18.89,3.18 -26.445,2.982 -7.555,-0.199 -13.719,-1.791 -24.456,-1.592 -10.737,0.2 -17.496,0.2 -21.075,0.995 -3.579,0.795 -4.573,1.392 -4.374,2.187 0.198,0.795 2.501,0.531 4.97,0.199 z"
       style="fill:none;stroke:#231f20;stroke-width:0.5;stroke-linecap:round;stroke-linejoin:round;stroke-miterlimit:4;stroke-dasharray:2.8, 1.8;stroke-dashoffset:0;stroke-opacity:1"
       id="path1054" />
    <path
       d="m 459.251,513.855 c 2.498,3.226 13.917,6.561 20.876,3.181 6.96,-3.38 23.86,-18.69 29.825,-27.836 5.964,-9.146 5.64,-14.824 0.596,-14.315 -7.076,0.712 -17.894,-0.596 -35.391,12.128 -17.497,12.726 -20.678,20.679 -15.906,26.842 z"
       style="fill:none;stroke:#231f20;stroke-width:0.5;stroke-linecap:round;stroke-linejoin:round;stroke-miterlimit:4;stroke-dasharray:2.8, 1.8;stroke-dashoffset:0;stroke-opacity:1"
       id="path1056" />
    <path
       d="m 462.631,511.27 c 1.285,2.998 8.388,6.433 19.286,1.393 10.898,-5.041 23.263,-21.276 25.45,-24.854 2.187,-3.58 4.175,-9.346 -1.591,-8.351 -5.766,0.994 -14.315,1.789 -24.256,7.753 -9.942,5.965 -22.468,15.707 -18.889,24.059 z"
       style="fill:none;stroke:#231f20;stroke-width:0.5;stroke-linecap:round;stroke-linejoin:round;stroke-miterlimit:4;stroke-dasharray:2.8, 1.8;stroke-dashoffset:0;stroke-opacity:1"
       id="path1058" />
    <path
       d="m 462.035,539.503 c 10.934,0.421 22.865,-0.596 36.385,-11.333 13.52,-10.736 36.783,-34.595 46.724,-49.906 9.941,-15.308 17.497,-26.443 2.982,-33.6 -14.513,-7.159 -52.888,-0.995 -77.542,17.893 -24.654,18.889 -37.578,50.701 -39.765,56.467 -2.187,5.766 -4.162,12.09 0.397,13.719 5.568,1.99 15.31,6.164 30.819,6.76 z"
       style="fill:none;stroke:#231f20;stroke-width:0.5;stroke-linecap:round;stroke-linejoin:round;stroke-miterlimit:4;stroke-dasharray:2.8, 1.8;stroke-dashoffset:0;stroke-opacity:1"
       id="path1060" />
    <path
       d="m 465.613,560.778 c -12.403,1.153 -22.865,0.199 -31.017,-3.579 -8.152,-3.778 -13.918,-7.952 -17.298,-13.719 -3.38,-5.767 -5.368,-17.894 -2.783,-25.848 2.585,-7.953 12.766,-35.76 27.438,-54.478 11.532,-14.713 31.017,-25.65 41.356,-32.409 10.339,-6.76 22.07,-11.133 25.848,-12.128 3.777,-0.994 21.075,-5.568 27.836,-5.568 6.76,0 28.034,-0.596 34.595,3.381 6.562,3.977 6.363,14.115 5.567,18.49 -0.794,4.375 -3.181,14.912 -3.181,14.912 0,0 -0.396,-7.953 -0.199,-10.935 0.199,-2.982 2.187,-18.291 -3.379,-19.883 -5.568,-1.59 -17.299,-5.766 -35.789,-3.182 -18.492,2.586 -39.567,10.739 -52.093,18.691 -12.527,7.953 -31.813,22.269 -38.374,31.216 -6.561,8.947 -13.122,18.49 -19.883,35.39 -6.76,16.901 -10.339,26.047 -4.175,37.579 6.164,11.532 23.461,19.882 33.005,20.082 9.544,0.199 20.48,-1.194 25.45,-3.579 4.971,-2.386 11.731,-3.978 15.111,-4.971 3.38,-0.993 8.549,-3.976 10.339,-8.152 1.789,-4.175 5.766,-11.334 9.345,-13.123 3.579,-1.789 8.549,-5.765 10.338,-9.543 1.79,-3.778 4.772,-6.362 7.158,-7.754 2.386,-1.392 5.966,-6.363 7.159,-8.55 1.192,-2.187 3.181,-3.18 1.789,-0.397 -1.393,2.783 -4.374,7.753 -7.357,9.941 -2.982,2.186 -4.374,3.18 -6.363,6.561 -1.988,3.38 -3.976,7.357 -8.549,9.742 -4.573,2.387 -5.965,3.38 -8.549,8.153 -2.585,4.771 -5.369,11.531 -13.521,14.912 -8.151,3.379 -22.487,8.066 -29.824,8.748 z"
       style="fill:none;stroke:#231f20;stroke-width:0.5;stroke-linecap:round;stroke-linejoin:round;stroke-miterlimit:4;stroke-dasharray:2.8, 1.8;stroke-dashoffset:0;stroke-opacity:1"
       id="path1062" />
    <path
       d="m 540.136,501.046 c 5.207,-4.489 23.102,-24.77 33.838,-51.214"
       style="fill:none;stroke:#231f20;stroke-width:0.5;stroke-linecap:round;stroke-linejoin:round;stroke-miterlimit:4;stroke-dasharray:2.8, 1.8;stroke-dashoffset:0;stroke-opacity:1"
       id="path1064" />
    <path
       d="m 556.761,581.113 c -1.697,-2.783 -0.713,-5.556 0.672,-7.9 1.506,-2.554 1.384,-5.325 1.529,-8.107 0.233,-4.483 -1.25,-23.264 9.77,-38.398 15.942,-21.891 24.33,-26.075 42.82,-39.198"
       style="fill:none;stroke:#231f20;stroke-width:0.5;stroke-linecap:round;stroke-linejoin:round;stroke-miterlimit:4;stroke-dasharray:2.8, 1.8;stroke-dashoffset:0;stroke-opacity:1"
       id="path1066" />
    <path
       d="m 558.79,568.473 c 0.362,-8.745 4.411,-48.943 -18.654,-67.427"
       style="fill:none;stroke:#231f20;stroke-width:0.5;stroke-linecap:round;stroke-linejoin:round;stroke-miterlimit:4;stroke-dasharray:2.8, 1.8;stroke-dashoffset:0;stroke-opacity:1"
       id="path1068" />
    <path
       d="m 751.671,639.381 c 9.807,-16.518 12.825,-45.333 8.649,-69.49 -4.176,-24.158 -19.385,-41.455 -22.965,-44.437 -3.578,-2.983 -7.754,-4.773 -7.754,2.384 0,7.159 -0.298,32.807 0,38.176 0.299,5.368 0,8.649 4.475,11.93 4.472,3.28 5.367,11.332 5.367,16.701 0,5.368 -0.298,17.298 -4.772,19.982 -4.473,2.684 -6.859,5.965 -6.263,9.842 0.597,3.877 -0.895,24.754 -0.895,30.42 0,5.667 1.79,8.053 5.965,5.667 4.176,-2.386 12.526,-11.632 18.193,-21.175 z"
       style="fill:none;stroke:#231f20;stroke-width:0.75;stroke-linecap:round;stroke-linejoin:round;stroke-miterlimit:4;stroke-dasharray:0, 2;stroke-dashoffset:0;stroke-opacity:1"
       id="path1070" />
    <path
       d="m 742.425,687.099 c 4.398,3.382 10.141,9.246 14.912,3.281 4.772,-5.965 31.614,-33.105 36.684,-38.473 5.07,-5.368 11.334,-11.929 11.035,-23.263 -0.299,-11.333 -1.193,-34.297 -2.387,-47.718 -1.192,-13.422 -2.384,-45.333 -8.946,-54.28 -6.561,-8.947 -26.544,-24.456 -32.21,-28.333 -5.666,-3.877 -11.929,-5.07 -18.789,-1.192 -6.859,3.877 -7.766,8.624 -3.579,11.928 5.667,4.475 13.122,4.176 19.685,8.65 6.56,4.473 23.56,20.877 24.754,32.21 1.192,11.334 2.384,48.911 2.384,57.859 0,8.947 1.79,27.139 -9.543,39.069 -11.334,11.93 -18.491,19.087 -24.456,21.771 -5.965,2.684 -13.719,5.667 -14.912,8.053 -1.192,2.386 -2.386,4.473 5.368,10.438 z"
       style="fill:none;stroke:#231f20;stroke-width:0.75;stroke-linecap:round;stroke-linejoin:round;stroke-miterlimit:4;stroke-dasharray:0, 2;stroke-dashoffset:0;stroke-opacity:1"
       id="path1072" />
  </g>
</svg>
