<?xml version="1.0" encoding="UTF-8" standalone="no"?>
<!-- Created with Inkscape (http://www.inkscape.org/) -->

<svg
   version="1.1"
   id="svg2"
   width="1440"
   height="1344"
   viewBox="0 0 1440 1344"
   xmlns="http://www.w3.org/2000/svg"
   xmlns:svg="http://www.w3.org/2000/svg">
  <defs
     id="defs6" />
  <g
     id="g8">
    <path
       d="m 913.909,738.697 c -3.631,0.203 -17.524,4.868 -26.494,5.489 -8.971,0.618 -12.172,0.182 -19,-2.184 -6.829,-2.365 -27.305,-12.451 -31.784,-15.025 -4.476,-2.575 -7.673,-5.572 -10.019,-6.217 -2.348,-0.647 -10.25,-0.88 -14.092,-0.889 -3.846,-0.01 -9.822,-0.451 -12.6,-0.885 -2.775,-0.433 -18.361,-1.541 -18.361,-1.541 0,0 -7.453,2.766 -19.225,2.516 -11.318,-0.24 -15.872,-1.76 -24.547,-4.33 -7.255,-2.154 -19.845,-6.455 -22.831,-7.53 -2.988,-1.076 -24.107,-9.882 -29.446,-9.896 -5.339,-0.013 -17.31,4.656 -23.508,6.99 -6.199,2.334 -33.977,9.313 -38.677,10.157 -4.701,0.841 -15.378,1.03 -20.718,1.443 -5.339,0.415 -10.255,1.683 -14.525,1.46 -4.27,-0.224 -14.306,-0.889 -17.721,-1.325 7.465,3.648 17.266,12.215 20.245,17.347 2.976,5.133 3.178,10.045 2.312,15.168 -0.867,5.123 -3.677,18.996 -9.033,25.817 -5.355,6.821 -11.268,12.419 -14.131,15.128 -1.13,1.071 -1.289,3.2 0.416,4.272 1.706,1.072 14.182,8.483 15.757,18.83 1.564,10.241 -4.101,18.143 -9.024,22.615 -4.695,4.273 -15.829,11.065 -27.574,10.61 -11.745,-0.455 -18.137,-5.596 -21.764,-6.887 -3.629,-1.291 -27.097,-10.102 -33.709,-13.535 -6.611,-3.434 -23.67,-13.725 -26.442,-15.227 -2.773,-1.502 -11.306,-5.153 -14.72,-6.229 -3.414,-1.077 -6.83,-1.298 -10.457,-2.589 -3.628,-1.289 -12.591,-3.447 -16.859,-4.951 -4.268,-1.506 -17.279,-7.518 -22.391,-12.868 -5.112,-5.352 -8.505,-15.183 -11.683,-25.441 -3.178,-10.259 -5.927,-21.797 -6.548,-29.701 -0.621,-7.901 2.205,-28.396 3.495,-32.023 1.29,-3.627 7.718,-12.367 11.993,-13.637 4.274,-1.272 10.466,-1.256 20.072,0.262 9.606,1.518 16.866,1.963 21.138,1.547 4.272,-0.417 15.38,-1.67 20.291,-1.446 4.912,0.226 16.226,1.108 19.642,1.756 3.414,0.648 7.471,1.514 13.873,2.597 6.405,1.083 19.85,4.96 23.475,6.677 -3.617,-4.92 -3.397,-8.124 -2.537,-10.469 0.861,-2.348 6.214,-8.314 20.523,-9.133 -0.849,-1.924 0.224,-4.271 2.36,-4.053 2.134,0.22 5.337,0.014 5.337,0.014 0,0 -1.065,-0.858 -0.849,-1.924 0.217,-1.067 4.295,-9.6 10.484,-8.517 6.192,1.083 5.529,9.837 2.535,11.326 3.842,0.863 7.684,1.94 12.594,2.806 4.909,0.866 13.022,2.38 15.154,2.813 -2.13,-1.927 -13.853,-11.352 -17.899,-15.847 -4.046,-4.493 -19.811,-19.908 -13.784,-39.326 0,0 -1.49,-1.925 -1.488,-2.993 0.015,-6.172 -0.571,-9.791 -1.893,-11.75 -3.252,19.851 -23.393,33.843 -37.68,38.773 -14.746,5.09 -41.894,5.358 -51.689,4.36 -21.123,-2.161 -37.554,-12.265 -44.803,-17.409 -7.009,-4.967 -15.988,-11.57 -20.654,-25.035 -4.664,-13.465 -1.019,-35.713 6.741,-49.099 7.291,-12.582 32.743,-28.536 43.21,-29.791 8.237,-0.989 35.236,-0.769 38.864,0.521 2.447,0.873 6.399,3.219 9.173,3.867 2.774,0.647 10.467,-0.83 12.816,-1.038 2.349,-0.207 11.748,-1.038 25.596,12.023 7.344,6.923 12.994,18.595 16.201,30.99 0.087,-0.347 1.035,-5.535 0.824,-6.604 -0.211,-1.068 -2.763,-5.56 -2.759,-7.267 0.005,-1.709 0.652,-4.483 1.081,-5.551 -1.065,-1.07 -3.836,-2.785 -5.325,-4.924 -1.491,-2.139 -4.463,-9.407 -3.814,-12.823 0.65,-3.415 3.433,-6.611 6.427,-8.099 2.992,-1.486 11.982,-9.58 13.482,-11.712 1.5,-2.131 14.118,-9.788 14.118,-9.788 0,0 -16.235,2.522 -18.798,2.516 -2.564,-0.007 -12.6,-0.031 -14.946,-1.318 -2.345,-1.287 -12.392,2.746 -12.392,2.746 0,0 12.174,-0.612 14.302,2.598 2.127,3.208 0.843,4.486 -0.016,6.193 -0.858,1.707 -3.215,4.689 -5.777,4.897 -2.565,0.208 -11.953,-2.806 -14.301,-3.025 -2.348,-0.218 -7.901,-0.232 -8.537,-2.156 -0.636,-1.924 -0.207,-2.349 1.718,-4.267 -4.701,1.484 -10.892,0.827 -12.806,-2.38 -1.914,-3.208 -1.902,-8.333 -2.534,-11.753 -0.632,-3.416 -0.833,-8.543 1.737,-11.954 2.571,-3.41 3.43,-5.117 3.43,-5.117 0,0 -9.617,2.539 -15.172,3.807 -5.555,1.267 -20.292,2.514 -26.487,3.139 -6.195,0.627 -12.604,1.89 -19.436,1.234 -6.832,-0.656 -20.509,3.367 -26.279,5.275 -5.771,1.909 -12.818,1.678 -18.365,-0.259 -5.548,-1.936 -7.25,-4.502 -8.948,-8.776 -1.699,-4.277 -2.746,-11.967 -0.366,-24.986 2.38,-13.02 7.535,-24.967 8.821,-27.1 1.287,-2.133 5.369,-12.16 6.445,-15.146 1.074,-2.989 7.934,-13.649 10.932,-17.057 2.998,-3.41 16.483,-16.617 20.764,-20.238 4.28,-3.619 10.053,-6.809 13.26,-8.295 3.207,-1.486 23.307,-12.543 27.584,-14.666 4.276,-2.127 21.803,-9.131 43.383,-13.777 21.579,-4.645 33.541,-5.471 47.842,-2.659 14.301,2.811 16.003,5.164 18.547,12.86 2.544,7.693 -2.172,15.369 -5.17,18.564 -2.998,3.195 -9.415,7.451 -11.98,8.94 -2.567,1.488 -7.059,4.681 -3.006,6.613 4.052,1.932 11.722,8.998 15.129,13.49 3.405,4.492 11.074,12.201 11.685,24.16 0.613,11.959 -2.833,23.483 -18.222,29.213 12.021,-1.094 19.644,0.688 26.05,0.703 6.408,0.016 20.5,0.264 32.884,1.574 12.382,1.311 23.908,3.69 31.594,4.776 7.684,1.086 17.29,2.818 22.2,3.684 4.909,0.867 16.631,5.367 21.77,5.179 5.338,-0.201 10.895,-2.322 16.664,-3.162 4.88,-0.709 16.243,-5.514 18.169,-7.004 1.925,-1.488 20.052,-8.072 32.473,-5.9 6.19,1.084 9.606,1.732 12.811,1.527 3.203,-0.205 11.32,-1.039 16.662,-2.521 5.342,-1.483 17.516,-2.092 20.506,-2.514 2.99,-0.418 14.527,-2.1 17.517,-2.307 2.991,-0.205 9.395,0.664 9.395,0.664 0,0 15.398,-8.931 31.201,-9.533 15.805,-0.601 27.746,6.047 30.945,7.977"
       style="fill:#ffffff;fill-opacity:1;fill-rule:nonzero;stroke:none;stroke-width:0.1"
       id="path894" />
    <path
       d="m 913.909,738.697 c -3.631,0.203 -17.524,4.868 -26.494,5.489 -8.971,0.618 -12.172,0.182 -19,-2.184 -6.829,-2.365 -27.305,-12.451 -31.784,-15.025 -4.476,-2.575 -7.673,-5.572 -10.019,-6.217 -2.348,-0.647 -10.25,-0.88 -14.092,-0.889 -3.846,-0.01 -9.822,-0.451 -12.6,-0.885 -2.775,-0.433 -18.361,-1.541 -18.361,-1.541 0,0 -7.453,2.766 -19.225,2.516 -11.318,-0.24 -15.872,-1.76 -24.547,-4.33 -7.255,-2.154 -19.845,-6.455 -22.831,-7.53 -2.988,-1.076 -24.107,-9.882 -29.446,-9.896 -5.339,-0.013 -17.31,4.656 -23.508,6.99 -6.199,2.334 -33.977,9.313 -38.677,10.157 -4.701,0.841 -15.378,1.03 -20.718,1.443 -5.339,0.415 -10.255,1.683 -14.525,1.46 -4.27,-0.224 -14.306,-0.889 -17.721,-1.325 7.465,3.648 17.266,12.215 20.245,17.347 2.976,5.133 3.178,10.045 2.312,15.168 -0.867,5.123 -3.677,18.996 -9.033,25.817 -5.355,6.821 -11.268,12.419 -14.131,15.128 -1.13,1.071 -1.289,3.2 0.416,4.272 1.706,1.072 14.182,8.483 15.757,18.83 1.564,10.241 -4.101,18.143 -9.024,22.615 -4.695,4.273 -15.829,11.065 -27.574,10.61 -11.745,-0.455 -18.137,-5.596 -21.764,-6.887 -3.629,-1.291 -27.097,-10.102 -33.709,-13.535 -6.611,-3.434 -23.67,-13.725 -26.442,-15.227 -2.773,-1.502 -11.306,-5.153 -14.72,-6.229 -3.414,-1.077 -6.83,-1.298 -10.457,-2.589 -3.628,-1.289 -12.591,-3.447 -16.859,-4.951 -4.268,-1.506 -17.279,-7.518 -22.391,-12.868 -5.112,-5.352 -8.505,-15.183 -11.683,-25.441 -3.178,-10.259 -5.927,-21.797 -6.548,-29.701 -0.621,-7.901 2.205,-28.396 3.495,-32.023 1.29,-3.627 7.718,-12.367 11.993,-13.637 4.274,-1.272 10.466,-1.256 20.072,0.262 9.606,1.518 16.866,1.963 21.138,1.547 4.272,-0.417 15.38,-1.67 20.291,-1.446 4.912,0.226 16.226,1.108 19.642,1.756 3.414,0.648 7.471,1.514 13.873,2.597 6.405,1.083 19.85,4.96 23.475,6.677 -3.617,-4.92 -3.397,-8.124 -2.537,-10.469 0.861,-2.348 6.214,-8.314 20.523,-9.133 -0.849,-1.924 0.224,-4.271 2.36,-4.053 2.134,0.22 5.337,0.014 5.337,0.014 0,0 -1.065,-0.858 -0.849,-1.924 0.217,-1.067 4.295,-9.6 10.484,-8.517 6.192,1.083 5.529,9.837 2.535,11.326 3.842,0.863 7.684,1.94 12.594,2.806 4.909,0.866 13.022,2.38 15.154,2.813 -2.13,-1.927 -13.853,-11.352 -17.899,-15.847 -4.046,-4.493 -19.811,-19.908 -13.784,-39.326 0,0 -1.49,-1.925 -1.488,-2.993 0.015,-6.172 -0.571,-9.791 -1.893,-11.75 -3.252,19.851 -23.393,33.843 -37.68,38.773 -14.746,5.09 -41.894,5.358 -51.689,4.36 -21.123,-2.161 -37.554,-12.265 -44.803,-17.409 -7.009,-4.967 -15.988,-11.57 -20.654,-25.035 -4.664,-13.465 -1.019,-35.713 6.741,-49.099 7.291,-12.582 32.743,-28.536 43.21,-29.791 8.237,-0.989 35.236,-0.769 38.864,0.521 2.447,0.873 6.399,3.219 9.173,3.867 2.774,0.647 10.467,-0.83 12.816,-1.038 2.349,-0.207 11.748,-1.038 25.596,12.023 7.344,6.923 12.994,18.595 16.201,30.99 0.087,-0.347 1.035,-5.535 0.824,-6.604 -0.211,-1.068 -2.763,-5.56 -2.759,-7.267 0.005,-1.709 0.652,-4.483 1.081,-5.551 -1.065,-1.07 -3.836,-2.785 -5.325,-4.924 -1.491,-2.139 -4.463,-9.407 -3.814,-12.823 0.65,-3.415 3.433,-6.611 6.427,-8.099 2.992,-1.486 11.982,-9.58 13.482,-11.712 1.5,-2.131 14.118,-9.788 14.118,-9.788 0,0 -16.235,2.522 -18.798,2.516 -2.564,-0.007 -12.6,-0.031 -14.946,-1.318 -2.345,-1.287 -12.392,2.746 -12.392,2.746 0,0 12.174,-0.612 14.302,2.598 2.127,3.208 0.843,4.486 -0.016,6.193 -0.858,1.707 -3.215,4.689 -5.777,4.897 -2.565,0.208 -11.953,-2.806 -14.301,-3.025 -2.348,-0.218 -7.901,-0.232 -8.537,-2.156 -0.636,-1.924 -0.207,-2.349 1.718,-4.267 -4.701,1.484 -10.892,0.827 -12.806,-2.38 -1.914,-3.208 -1.902,-8.333 -2.534,-11.753 -0.632,-3.416 -0.833,-8.543 1.737,-11.954 2.571,-3.41 3.43,-5.117 3.43,-5.117 0,0 -9.617,2.539 -15.172,3.807 -5.555,1.267 -20.292,2.514 -26.487,3.139 -6.195,0.627 -12.604,1.89 -19.436,1.234 -6.832,-0.656 -20.509,3.367 -26.279,5.275 -5.771,1.909 -12.818,1.678 -18.365,-0.259 -5.548,-1.936 -7.25,-4.502 -8.948,-8.776 -1.699,-4.277 -2.746,-11.967 -0.366,-24.986 2.38,-13.02 7.535,-24.967 8.821,-27.1 1.287,-2.133 5.369,-12.16 6.445,-15.146 1.074,-2.989 7.934,-13.649 10.932,-17.057 2.998,-3.41 16.483,-16.617 20.764,-20.238 4.28,-3.619 10.053,-6.809 13.26,-8.295 3.207,-1.486 23.307,-12.543 27.584,-14.666 4.276,-2.127 21.803,-9.131 43.383,-13.777 21.579,-4.645 33.541,-5.471 47.842,-2.659 14.301,2.811 16.003,5.164 18.547,12.86 2.544,7.693 -2.172,15.369 -5.17,18.564 -2.998,3.195 -9.415,7.451 -11.98,8.94 -2.567,1.488 -7.059,4.681 -3.006,6.613 4.052,1.932 11.722,8.998 15.129,13.49 3.405,4.492 11.074,12.201 11.685,24.16 0.613,11.959 -2.833,23.483 -18.222,29.213 12.021,-1.094 19.644,0.688 26.05,0.703 6.408,0.016 20.5,0.264 32.884,1.574 12.382,1.311 23.908,3.69 31.594,4.776 7.684,1.086 17.29,2.818 22.2,3.684 4.909,0.867 16.631,5.367 21.77,5.179 5.338,-0.201 10.895,-2.322 16.664,-3.162 4.88,-0.709 16.243,-5.514 18.169,-7.004 1.925,-1.488 20.052,-8.072 32.473,-5.9 6.19,1.084 9.606,1.732 12.811,1.527 3.203,-0.205 11.32,-1.039 16.662,-2.521 5.342,-1.483 17.516,-2.092 20.506,-2.514 2.99,-0.418 14.527,-2.1 17.517,-2.307 2.991,-0.205 9.395,0.664 9.395,0.664 0,0 15.398,-8.931 31.201,-9.533 15.805,-0.601 27.746,6.047 30.945,7.977"
       style="fill:none;stroke:#231f20;stroke-width:0.75;stroke-linecap:butt;stroke-linejoin:miter;stroke-miterlimit:4;stroke-dasharray:none;stroke-opacity:1"
       id="path896" />
    <path
       d="m 424.82,588.66 c 0.167,-2.984 4.28,-3.621 6.628,-3.401 2.348,0.219 24.771,0.7 30.324,0.288 5.553,-0.415 26.488,-3.567 32.256,-4.193 5.767,-0.627 19.65,-1.875 23.714,-4 4.061,-2.126 6.625,-7.758 8.346,-7.668 2.129,0.113 6.716,4.521 9.595,6.216 3.625,2.145 7.889,5.145 8.527,6.428 0.636,1.283 4.242,11.756 3.169,13.676 -1.072,1.919 -2.142,2.556 -4.064,2.339 -1.92,-0.218 -8.544,1.26 -11.322,1.893 -2.778,0.635 -4.699,1.057 -5.77,1.696 -1.068,0.637 -1.506,4.693 -4.916,1.696 -3.408,-2.999 -10.017,-7.499 -15.995,-8.581 -5.977,-1.082 -16.653,-1.322 -24.981,-1.129 -8.331,0.193 -31.18,0.137 -39.293,-0.524 -8.114,-0.66 -16.442,-0.68 -16.218,-4.736"
       style="fill:#706d6e;fill-opacity:1;fill-rule:nonzero;stroke:none;stroke-width:0.1"
       id="path898" />
    <path
       d="m 424.82,588.66 c 0.167,-2.984 4.28,-3.621 6.628,-3.401 2.348,0.219 24.771,0.7 30.324,0.288 5.553,-0.415 26.488,-3.567 32.256,-4.193 5.767,-0.627 19.65,-1.875 23.714,-4 4.061,-2.126 6.625,-7.758 8.346,-7.668 2.129,0.113 6.716,4.521 9.595,6.216 3.625,2.145 7.889,5.145 8.527,6.428 0.636,1.283 4.242,11.756 3.169,13.676 -1.072,1.919 -2.142,2.556 -4.064,2.339 -1.92,-0.218 -8.544,1.26 -11.322,1.893 -2.778,0.635 -4.699,1.057 -5.77,1.696 -1.068,0.637 -1.506,4.693 -4.916,1.696 -3.408,-2.999 -10.017,-7.499 -15.995,-8.581 -5.977,-1.082 -16.653,-1.322 -24.981,-1.129 -8.331,0.193 -31.18,0.137 -39.293,-0.524 -8.114,-0.66 -16.442,-0.68 -16.218,-4.736 z"
       style="fill:none;stroke:#231f20;stroke-width:0.75;stroke-linecap:butt;stroke-linejoin:miter;stroke-miterlimit:4;stroke-dasharray:none;stroke-opacity:1"
       id="path900" />
    <path
       d="m 502.161,486.343 c 4.274,-1.271 15.816,-5.299 19.664,-6.785 3.845,-1.484 13.681,-6.373 20.095,-9.56 6.415,-3.188 14.534,-4.663 18.165,-5.508 3.633,-0.846 13.249,-3.811 13.249,-3.811"
       style="fill:none;stroke:#231f20;stroke-width:0.75;stroke-linecap:butt;stroke-linejoin:miter;stroke-miterlimit:4;stroke-dasharray:none;stroke-opacity:1"
       id="path902" />
    <path
       d="m 512.334,517.547 c 2.565,-0.848 8.124,-3.397 12.611,-4.24"
       style="fill:none;stroke:#231f20;stroke-width:0.75;stroke-linecap:butt;stroke-linejoin:miter;stroke-miterlimit:4;stroke-dasharray:none;stroke-opacity:1"
       id="path904" />
    <path
       d="m 537.337,510.561 c -0.851,-1.07 1.289,-3.2 4.494,-3.406 3.203,-0.205 17.088,-2.52 20.295,-3.581 3.206,-1.061 31.418,-10.387 39.323,-12.076 7.905,-1.69 10.68,-1.469 14.956,-3.166 3.58,-1.42 30.548,-3.983 41.437,-3.53 10.889,0.453 25.791,3.735 40.78,3.09 9.398,-0.406 14.609,-2.953 14.609,-2.953"
       style="fill:none;stroke:#231f20;stroke-width:0.5;stroke-linecap:butt;stroke-linejoin:miter;stroke-miterlimit:4;stroke-dasharray:none;stroke-opacity:1"
       id="path906" />
    <path
       d="m 772.227,516.261 c -2.975,-5.989 3.254,-20.709 22.9,-20.66 17.94,0.043 23.247,12.657 22.167,17.779 -1.081,5.124 -3.799,9.201 -8.356,11.085 -10.26,4.245 -33.734,-2.219 -36.711,-8.204 z"
       style="fill:none;stroke:#231f20;stroke-width:0.5;stroke-linecap:butt;stroke-linejoin:miter;stroke-miterlimit:4;stroke-dasharray:none;stroke-opacity:1"
       id="path908" />
    <path
       d="m 753.276,494.527 c 0.014,-5.338 4.51,-10.549 11.776,-13.307 7.267,-2.76 20.947,-7.209 37.818,-7.808 16.873,-0.6 34.179,-4.83 41.019,-7.161 6.84,-2.333 37.403,-12.722 43.809,-12.707 6.406,0.016 19.422,4.106 26.029,9.461"
       style="fill:none;stroke:#231f20;stroke-width:0.5;stroke-linecap:butt;stroke-linejoin:miter;stroke-miterlimit:4;stroke-dasharray:none;stroke-opacity:1"
       id="path910" />
    <path
       d="m 802.262,460.023 c 8.328,0.234 16.649,3.391 24.125,2.767 7.475,-0.621 18.373,-3.584 25.43,-7.412"
       style="fill:none;stroke:#231f20;stroke-width:0.5;stroke-linecap:butt;stroke-linejoin:miter;stroke-miterlimit:4;stroke-dasharray:none;stroke-opacity:1"
       id="path912" />
    <path
       d="m 733.869,483.279 c 1.505,-3.84 5.361,-8.955 11.559,-11.289 6.199,-2.334 39.959,-9.873 39.959,-9.873"
       style="fill:none;stroke:#231f20;stroke-width:0.5;stroke-linecap:butt;stroke-linejoin:miter;stroke-miterlimit:4;stroke-dasharray:none;stroke-opacity:1"
       id="path914" />
    <path
       d="m 712.532,475.978 c -0.221,2.99 -0.025,10.238 2.533,12.594 2.556,2.355 6.82,4.928 11.088,6.433 4.267,1.506 7.252,3.647 8.955,5.575 1.703,1.925 3.403,5.561 7.678,4.289 4.274,-1.269 7.699,-4.678 9.836,-5.313 2.136,-0.637 3.212,-4.051 -0.414,-5.555 -3.626,-1.503 -9.811,-4.507 -14.29,-7.509 -4.476,-2.998 -6.818,-5.996 -7.242,-7.278 -0.424,-1.283 -4.899,-4.855 -8.956,-5.293"
       style="fill:none;stroke:#231f20;stroke-width:0.5;stroke-linecap:butt;stroke-linejoin:miter;stroke-miterlimit:4;stroke-dasharray:none;stroke-opacity:1"
       id="path916" />
    <path
       d="m 724.655,494.38 c -3.854,4.262 -11.324,4.651 -15.811,5.709 -4.488,1.057 -10.37,4.054 -15.926,4.894 2.423,-2.337 7.17,-5.343 5.918,-17.091"
       style="fill:none;stroke:#231f20;stroke-width:0.5;stroke-linecap:butt;stroke-linejoin:miter;stroke-miterlimit:4;stroke-dasharray:none;stroke-opacity:1"
       id="path918" />
    <path
       d="m 682.067,533.283 c 2.127,3.635 -1.945,10.086 -3.232,12.005 -1.286,1.919 -3.467,1.78 -4.698,0.415 -2.131,-2.353 -4.046,-5.135 -6.175,-7.702 -2.13,-2.569 -6.333,-8.197 -7.659,-12.192 -1.906,-5.769 -8.574,-15.409 -7.498,-18.825"
       style="fill:none;stroke:#231f20;stroke-width:0.5;stroke-linecap:butt;stroke-linejoin:miter;stroke-miterlimit:4;stroke-dasharray:none;stroke-opacity:1"
       id="path920" />
    <path
       d="m 669.239,539.713 c 1.274,2.992 1.265,6.836 -2.803,10.883 -4.066,4.049 -6.224,4.49 -4.953,16.859 0.836,8.117 5.303,15.174 6.579,17.1 1.276,1.925 5.115,4.283 0.615,10.465 -4.499,6.183 -8.36,13.006 -6.233,17.069 2.125,4.063 10.851,15.616 11.699,18.393 0.848,2.779 2.764,4.706 4.481,1.721"
       style="fill:none;stroke:#231f20;stroke-width:0.5;stroke-linecap:butt;stroke-linejoin:miter;stroke-miterlimit:4;stroke-dasharray:none;stroke-opacity:1"
       id="path922" />
    <path
       d="m 645.612,568.824 c 3.846,-0.845 14.165,-1.801 18.222,-1.363 4.055,0.435 4.906,1.934 6.181,4.285 1.277,2.352 4.47,6.203 2.324,10.257 -2.145,4.052 -5.557,2.549 -7.479,2.331 -1.922,-0.219 -6.617,-1.298 -10.453,-4.297 -3.836,-2.998 -10.008,-11.769 -11.703,-17.54 -1.694,-5.769 -2.952,-15.382 -2.725,-21.147 0.229,-5.766 -1.258,-9.614 -1.037,-12.389 0.221,-2.775 0.444,-7.047 5.787,-8.742 5.343,-1.695 13.805,3.666 15.508,5.379"
       style="fill:none;stroke:#231f20;stroke-width:0.5;stroke-linecap:butt;stroke-linejoin:miter;stroke-miterlimit:4;stroke-dasharray:none;stroke-opacity:1"
       id="path924" />
    <path
       d="m 673.93,630.214 c -3.224,8.106 -11.15,18.819 -19.064,23.927 -6.925,4.466 -9.53,-0.478 -10.457,-3.016 -1.485,-4.063 -1.434,-24.775 -0.559,-33.102 0.873,-8.326 2.158,-9.39 5.154,-12.16 2.996,-2.767 16.901,-12.131 19.459,-10.843 2.56,1.288 2.127,3.849 1.266,6.41 -0.859,2.56 -4.42,8.958 -7.072,10.66 -3.637,2.34 -16.241,4.444 -18.807,5.933"
       style="fill:none;stroke:#231f20;stroke-width:0.5;stroke-linecap:butt;stroke-linejoin:miter;stroke-miterlimit:4;stroke-dasharray:none;stroke-opacity:1"
       id="path926" />
    <path
       d="M 549.272,607.969 C 551.01,595.588 548.688,584.477 547,575.931"
       style="fill:none;stroke:#231f20;stroke-width:0.75;stroke-linecap:butt;stroke-linejoin:miter;stroke-miterlimit:4;stroke-dasharray:none;stroke-opacity:1"
       id="path928" />
    <path
       d="m 595.335,576.641 c -0.16,-0.205 -0.326,-0.403 -0.499,-0.594 -2.13,-2.354 -6.399,-3.219 -10.024,-5.362 -3.625,-2.145 -16.433,-3.886 -23.054,-3.902 -6.621,-0.015 -10.464,0.19 -13.887,2.744"
       style="fill:none;stroke:#231f20;stroke-width:0.5;stroke-linecap:butt;stroke-linejoin:miter;stroke-miterlimit:4;stroke-dasharray:none;stroke-opacity:1"
       id="path930" />
    <path
       d="m 601.458,602.758 c -2.768,-3.637 -6.112,-0.869 -7.847,0.628 0.447,-0.58 0.913,-1.222 1.377,-1.925 4.354,-6.602 5.118,-18.715 0.35,-24.797 1.707,1.311 4.836,-0.39 5.269,-2.951"
       style="fill:none;stroke:#231f20;stroke-width:0.75;stroke-linecap:butt;stroke-linejoin:miter;stroke-miterlimit:4;stroke-dasharray:none;stroke-opacity:1"
       id="path932" />
    <path
       d="m 550.612,611.603 c 1.711,-1.278 6.13,-1.694 8.477,-1.261 2.349,0.432 12.595,1.953 19.646,0.474 6.324,-1.324 10.758,-2.311 14.852,-7.423"
       style="fill:none;stroke:#231f20;stroke-width:0.5;stroke-linecap:butt;stroke-linejoin:miter;stroke-miterlimit:4;stroke-dasharray:none;stroke-opacity:1"
       id="path934" />
    <path
       d="m 552.653,622.712 c 2.139,-1.917 14.749,-6.157 17.314,-7.22 2.566,-1.059 18.795,-1.02 21.993,1.123 3.199,2.143 5.38,7.273 10.505,7.498"
       style="fill:none;stroke:#231f20;stroke-width:0.5;stroke-linecap:butt;stroke-linejoin:miter;stroke-miterlimit:4;stroke-dasharray:none;stroke-opacity:1"
       id="path936" />
    <path
       d="m 546.193,556.709 c 2.349,0.006 7.69,-0.621 9.613,-1.258 1.283,-0.424 1.702,2.781 7.037,4.502 5.333,1.722 20.365,6.322 29.462,2.848 2.779,-1.061 4.276,-1.91 4.92,-3.617 0.646,-1.707 3.287,-1.702 3.287,-1.702"
       style="fill:none;stroke:#231f20;stroke-width:0.5;stroke-linecap:butt;stroke-linejoin:miter;stroke-miterlimit:4;stroke-dasharray:none;stroke-opacity:1"
       id="path938" />
    <path
       d="m 549.825,556.516 c 0.42,2.777 1.271,4.049 3.834,4.269 2.561,0.22 7.045,0.443 10.031,1.733 2.987,1.289 14.301,3.238 16.649,3.459 2.348,0.216 8.965,1.301 11.958,0.027 2.994,-1.274 4.002,-4.901 4.432,-5.969"
       style="fill:none;stroke:#231f20;stroke-width:0.5;stroke-linecap:butt;stroke-linejoin:miter;stroke-miterlimit:4;stroke-dasharray:none;stroke-opacity:1"
       id="path940" />
    <path
       d="m 620.641,502.435 c 2.994,-1.914 12.828,-5.947 15.819,-6.58 2.992,-0.633 15.599,-4.02 19.441,-3.582 3.844,0.435 8.759,-1.047 12.174,-0.399 3.416,0.649 6.341,1.877 7.892,3.436 1.705,1.713 3.414,1.717 5.554,-0.199 1.371,-1.225 4.491,-2.766 6.628,-3.188 2.137,-0.422 8.121,-2.33 10.687,-4.031"
       style="fill:none;stroke:#231f20;stroke-width:0.5;stroke-linecap:butt;stroke-linejoin:miter;stroke-miterlimit:4;stroke-dasharray:none;stroke-opacity:1"
       id="path942" />
    <path
       d="m 677.247,496.38 c -3.633,1.061 -17.211,5.633 -22.446,9.344 -3.216,2.274 -3.635,1.913 -7.051,1.904 -3.418,-0.008 -11.531,-0.456 -15.379,1.458 -3.849,1.912 -17.764,15.758 -23.149,34.75 -5.386,18.993 -2.233,39.928 10.14,45.512 -11.342,9.582 -11.913,19.41 -12.23,23.246 -0.44,5.339 0.81,18.582 1.868,22.215 1.059,3.632 6.573,19.662 6.991,23.08 0.419,3.418 8.927,16.677 9.558,20.951 0.63,4.273 3.606,10.259 9.584,10.701 5.979,0.441 8.123,-3.824 10.268,-7.022 2.143,-3.199 4.49,-2.98 9.636,-10.654 5.143,-7.676 7.297,-15.572 8.372,-18.133 1.074,-2.558 6.853,-8.31 8.14,-10.443 1.287,-2.133 3.01,-8.534 0.235,-8.541"
       style="fill:none;stroke:#231f20;stroke-width:0.5;stroke-linecap:butt;stroke-linejoin:miter;stroke-miterlimit:4;stroke-dasharray:none;stroke-opacity:1"
       id="path944" />
    <path
       d="m 619.362,589.348 51.386,0.125"
       style="fill:none;stroke:#231f20;stroke-width:0.5;stroke-linecap:butt;stroke-linejoin:miter;stroke-miterlimit:4;stroke-dasharray:none;stroke-opacity:1"
       id="path946" />
    <path
       d="m 518.735,695.022 c 6.828,2.792 19.629,7.308 22.827,9.025 3.2,1.716 17.7,10.08 28.799,12.883"
       style="fill:none;stroke:#231f20;stroke-width:0.75;stroke-linecap:butt;stroke-linejoin:miter;stroke-miterlimit:4;stroke-dasharray:none;stroke-opacity:1"
       id="path948" />
    <path
       d="m 544.206,671.38 c 3.841,0.436 9.179,1.091 12.382,0.886"
       style="fill:none;stroke:#231f20;stroke-width:0.75;stroke-linecap:butt;stroke-linejoin:miter;stroke-miterlimit:4;stroke-dasharray:none;stroke-opacity:1"
       id="path950" />
    <path
       d="m 584.124,677.885 c 6.617,1.084 13.017,3.449 19.208,3.89 6.194,0.442 14.723,4.735 17.706,8.585 0.306,0.398 0.636,0.749 0.996,1.107 0,0 -3.338,-4.315 -4.6,-12.647 -1.26,-8.332 -11.871,-35.906 -13.349,-42.743 -1.477,-6.837 -2.926,-25.633 -2.704,-29.69 0.224,-4.057 0.743,-22.315 -0.773,-33.101 -1.469,-10.468 0.696,-22.848 1.993,-29.038 1.296,-6.189 9.044,-30.303 18.254,-41.811 -4.922,4.045 -20.298,4.007 -23.929,4.426 -3.631,0.418 -20.076,1.233 -26.271,2.498"
       style="fill:none;stroke:#231f20;stroke-width:0.75;stroke-linecap:butt;stroke-linejoin:miter;stroke-miterlimit:4;stroke-dasharray:none;stroke-opacity:1"
       id="path952" />
    <path
       d="m 622.034,691.467 c 3.112,3.107 7.993,4.769 12.013,5.545 4.483,0.866 17.077,2.605 23.275,0.912 6.196,-1.694 7.701,-5.748 7.701,-5.748"
       style="fill:none;stroke:#231f20;stroke-width:0.5;stroke-linecap:butt;stroke-linejoin:miter;stroke-miterlimit:4;stroke-dasharray:none;stroke-opacity:1"
       id="path954" />
    <path
       d="m 598.85,681.123 c 4.27,0.438 6.406,0.016 9.616,-2.539 3.209,-2.555 5.981,-5.538 8.745,-0.619"
       style="fill:none;stroke:#231f20;stroke-width:0.75;stroke-linecap:butt;stroke-linejoin:miter;stroke-miterlimit:4;stroke-dasharray:none;stroke-opacity:1"
       id="path956" />
    <path
       d="m 536.721,675.42 c 5.338,0.226 13.233,3.234 18.569,4.529 5.336,1.295 19.632,5.174 26.675,7.113 7.042,1.938 17.715,4.101 23.265,4.969 5.55,0.867 11.948,4.299 16.857,5.379 4.91,1.08 18.357,3.461 26.472,3.482 8.114,0.02 12.815,-0.609 15.809,-2.525 2.994,-1.914 7.55,-4.843 9.05,-6.974"
       style="fill:none;stroke:#231f20;stroke-width:0.5;stroke-linecap:butt;stroke-linejoin:miter;stroke-miterlimit:4;stroke-dasharray:none;stroke-opacity:1"
       id="path958" />
    <path
       d="m 642.829,686.143 c 1.701,3.207 4.259,4.709 10.664,5.578 6.404,0.871 16.228,0.467 21.997,-0.586 5.767,-1.055 17.733,-3.588 21.794,-4.219 4.056,-0.631 15.525,-1.672 24.702,1.127"
       style="fill:none;stroke:#231f20;stroke-width:0.5;stroke-linecap:butt;stroke-linejoin:miter;stroke-miterlimit:4;stroke-dasharray:none;stroke-opacity:1"
       id="path960" />
    <path
       d="m 668.903,677.451 c 0.434,-2.988 0.658,-7.045 0.234,-8.115 -0.426,-1.068 -1.061,-2.992 -0.201,-5.553 0.861,-2.56 7.082,-14.504 7.728,-15.996 0.643,-1.494 4.067,-3.834 5.564,-4.685 1.495,-0.85 4.919,-2.978 4.923,-5.114 0.006,-2.134 -2.339,-4.062 -3.619,-4.279 -1.28,-0.217 -5.123,-1.294 -5.123,-1.294"
       style="fill:none;stroke:#231f20;stroke-width:0.5;stroke-linecap:butt;stroke-linejoin:miter;stroke-miterlimit:4;stroke-dasharray:none;stroke-opacity:1"
       id="path962" />
    <path
       d="m 687.071,638.629 c 3.845,-0.204 10.756,0.881 13.097,3.449 2.342,2.568 8.942,10.912 12.979,19.465"
       style="fill:none;stroke:#231f20;stroke-width:0.5;stroke-linecap:butt;stroke-linejoin:miter;stroke-miterlimit:4;stroke-dasharray:none;stroke-opacity:1"
       id="path964" />
    <path
       d="m 806.456,666.682 c -9.778,-18.817 -31.553,-21.432 -39.668,-21.452 -8.116,-0.019 -13.657,3.54 -15.698,12.286 -1.084,4.648 -1.988,9.144 -0.135,11.924"
       style="fill:none;stroke:#231f20;stroke-width:0.5;stroke-linecap:butt;stroke-linejoin:miter;stroke-miterlimit:4;stroke-dasharray:none;stroke-opacity:1"
       id="path966" />
    <path
       d="m 723.063,710.817 c -0.208,-1.921 1.291,-3.974 3.002,-5.465 1.713,-1.491 10.059,-8.518 13.477,-8.51 3.416,0.009 4.052,1.719 3.834,3.427 -0.217,1.708 -1.713,2.344 -0.655,5.764 -2.78,1.915 -2.374,10.323 -2.374,10.323"
       style="fill:none;stroke:#231f20;stroke-width:0.5;stroke-linecap:butt;stroke-linejoin:miter;stroke-miterlimit:4;stroke-dasharray:none;stroke-opacity:1"
       id="path968" />
    <path
       d="m 742.721,706.033 c 1.925,-1.064 5.558,-1.908 10.678,0.453 5.119,2.362 20.264,9.873 29.869,10.963"
       style="fill:none;stroke:#231f20;stroke-width:0.5;stroke-linecap:butt;stroke-linejoin:miter;stroke-miterlimit:4;stroke-dasharray:none;stroke-opacity:1"
       id="path970" />
    <path
       d="m 743.379,699.2 c 2.561,0.22 4.702,-1.482 4.922,-3.831 0.219,-2.348 0.875,-9.394 -0.824,-12.814 -1.701,-3.422 -3.193,-4.067 -4.26,-4.282 -0.84,-0.17 -3.423,2.588 -5.142,6.821"
       style="fill:none;stroke:#231f20;stroke-width:0.5;stroke-linecap:butt;stroke-linejoin:miter;stroke-miterlimit:4;stroke-dasharray:none;stroke-opacity:1"
       id="path972" />
    <path
       d="m 748.153,695.796 c 6.411,-2.12 18.506,2.394 23.624,5.182 5.118,2.79 20.274,5.389 29.673,4.131 9.4,-1.259 20.51,-3.582 32.892,-2.697 12.385,0.885 22.703,5.695 24.116,6.68 2.773,1.928 1.484,4.061 4.044,5.562 2.559,1.502 6.399,2.791 11.094,4.084 4.696,1.293 21.127,5.391 27.748,5.407 6.619,0.017 9.61,0.237 11.961,-0.399"
       style="fill:none;stroke:#231f20;stroke-width:0.5;stroke-linecap:butt;stroke-linejoin:miter;stroke-miterlimit:4;stroke-dasharray:none;stroke-opacity:1"
       id="path974" />
    <path
       d="m 826.61,720.973 c 5.766,0.013 21.348,3.042 27.107,5.404 5.76,2.364 18.989,6.881 26.674,7.968 7.686,1.086 25.836,1.984 33.106,-1.628"
       style="fill:none;stroke:#231f20;stroke-width:0.5;stroke-linecap:butt;stroke-linejoin:miter;stroke-miterlimit:4;stroke-dasharray:none;stroke-opacity:1"
       id="path976" />
    <path
       d="m 914.247,578.016 c 0,0 -99.961,-0.631 -126.936,4.307 -4.746,0 -58.529,-0.396 -64.064,-0.396 -5.537,0 -10.678,1.583 -10.678,8.701 0,7.117 5.537,9.096 10.281,9.096 4.745,0 60.111,0 64.461,0 26.975,4.938 126.936,4.306 126.936,4.306"
       style="fill:none;stroke:#231f20;stroke-width:0.5;stroke-linecap:butt;stroke-linejoin:miter;stroke-miterlimit:4;stroke-dasharray:none;stroke-opacity:1"
       id="path978" />
    <path
       d="M 440.408,646.732 C 390.817,612.68 410.997,563.478 420.144,541.404"
       style="fill:none;stroke:#231f20;stroke-width:0.5;stroke-linecap:butt;stroke-linejoin:miter;stroke-miterlimit:4;stroke-dasharray:none;stroke-opacity:1"
       id="path980" />
    <path
       d="m 392.905,521.418 c 0,-2.471 -2.136,-4.473 -4.772,-4.473 -2.635,0 -4.772,2.002 -4.772,4.473 0,2.471 2.137,4.474 4.772,4.474 2.636,0 4.772,-2.003 4.772,-4.474"
       style="fill:#ffffff;fill-opacity:1;fill-rule:nonzero;stroke:none;stroke-width:0.1"
       id="path982" />
    <path
       d="m 392.905,521.418 c 0,-2.471 -2.136,-4.473 -4.772,-4.473 -2.635,0 -4.772,2.002 -4.772,4.473 0,2.471 2.137,4.474 4.772,4.474 2.636,0 4.772,-2.003 4.772,-4.474 z"
       style="fill:none;stroke:#231f20;stroke-width:0.75;stroke-linecap:butt;stroke-linejoin:miter;stroke-miterlimit:4;stroke-dasharray:none;stroke-opacity:1"
       id="path984" />
    <path
       d="m 398.516,634.302 c 0.402,-1.683 -2.777,-3.886 -7.102,-4.921 -4.325,-1.035 -8.157,-0.512 -8.56,1.17 -0.404,1.681 2.776,3.885 7.102,4.92 4.324,1.037 8.157,0.513 8.56,-1.169"
       style="fill:#ffffff;fill-opacity:1;fill-rule:nonzero;stroke:none;stroke-width:0.1"
       id="path986" />
    <path
       d="m 398.516,634.302 c 0.402,-1.683 -2.777,-3.886 -7.102,-4.921 -4.325,-1.035 -8.157,-0.512 -8.56,1.17 -0.404,1.681 2.776,3.885 7.102,4.92 4.324,1.037 8.157,0.513 8.56,-1.169 z"
       style="fill:none;stroke:#231f20;stroke-width:0.75;stroke-linecap:butt;stroke-linejoin:miter;stroke-miterlimit:4;stroke-dasharray:none;stroke-opacity:1"
       id="path988" />
    <path
       d="m 511.101,656.65 c 0.155,-2.218 -3.05,-4.249 -7.157,-4.535 -4.108,-0.287 -7.564,1.279 -7.719,3.496 -0.154,2.219 3.051,4.25 7.158,4.536 4.108,0.287 7.563,-1.279 7.718,-3.497"
       style="fill:#ffffff;fill-opacity:1;fill-rule:nonzero;stroke:none;stroke-width:0.1"
       id="path990" />
    <path
       d="m 511.101,656.65 c 0.155,-2.218 -3.05,-4.249 -7.157,-4.535 -4.108,-0.287 -7.564,1.279 -7.719,3.496 -0.154,2.219 3.051,4.25 7.158,4.536 4.108,0.287 7.563,-1.279 7.718,-3.497 z"
       style="fill:none;stroke:#231f20;stroke-width:0.75;stroke-linecap:butt;stroke-linejoin:miter;stroke-miterlimit:4;stroke-dasharray:none;stroke-opacity:1"
       id="path992" />
    <path
       d="m 741.862,706.967 c 2.34,-1.557 9.428,1.447 16.187,4.429 6.761,2.983 9.379,4.532 19.106,7.238"
       style="fill:none;stroke:#231f20;stroke-width:0.5;stroke-linecap:butt;stroke-linejoin:miter;stroke-miterlimit:4;stroke-dasharray:none;stroke-opacity:1"
       id="path994" />
    <path
       d="m 673.411,701.043 c 7.494,-3.565 15.261,-7.213 19.225,-7.541 7.4,-0.61 23.234,-2.384 26.78,-3.76"
       style="fill:none;stroke:#231f20;stroke-width:0.5;stroke-linecap:butt;stroke-linejoin:miter;stroke-miterlimit:4;stroke-dasharray:none;stroke-opacity:1"
       id="path996" />
    <path
       d="m 731.645,700.912 c -1.841,1.381 -4.413,2.731 -6.203,1.736 -1.789,-0.994 -6.906,-4.302 -7.157,-7.953 -0.251,-3.651 0.993,-5.765 3.579,-6.561"
       style="fill:none;stroke:#231f20;stroke-width:0.5;stroke-linecap:butt;stroke-linejoin:miter;stroke-miterlimit:4;stroke-dasharray:none;stroke-opacity:1"
       id="path998" />
    <path
       d="m 676.504,469.779 c 3.009,4.219 20.021,14.156 35.961,8.392"
       style="fill:none;stroke:#231f20;stroke-width:0.5;stroke-linecap:butt;stroke-linejoin:miter;stroke-miterlimit:4;stroke-dasharray:none;stroke-opacity:1"
       id="path1000" />
    <path
       d="m 736.086,501.806 c -2.41,-2.623 3.866,-13.232 13.374,-9.014"
       style="fill:none;stroke:#231f20;stroke-width:0.5;stroke-linecap:butt;stroke-linejoin:miter;stroke-miterlimit:4;stroke-dasharray:none;stroke-opacity:1"
       id="path1002" />
    <path
       d="m 442.901,530.19 c 4.267,1.72 22.418,1.55 26.908,-0.788"
       style="fill:none;stroke:#231f20;stroke-width:0.5;stroke-linecap:round;stroke-linejoin:round;stroke-miterlimit:4;stroke-dasharray:2.8, 1.8;stroke-dashoffset:0;stroke-opacity:1"
       id="path1004" />
    <path
       d="m 508.861,628.371 c -6.246,-2.658 0.261,-16.463 6.015,-14.293 6.066,2.289 1.832,17.628 -6.015,14.293 z"
       style="fill:none;stroke:#231f20;stroke-width:0.5;stroke-linecap:round;stroke-linejoin:round;stroke-miterlimit:4;stroke-dasharray:2.8, 1.8;stroke-dashoffset:0;stroke-opacity:1"
       id="path1006" />
    <path
       d="m 462.953,626.551 c 5.124,0.439 24.726,-3.578 25.014,-12.324 0.232,-7.047 -10.865,-10.278 -14.709,-10.288 -12.385,-0.03 -16.671,5.725 -26.067,5.702 -5.125,-0.012 -11.745,-0.028 -12.823,4.454 -0.985,4.083 5.098,10.903 10.648,11.984 5.642,1.095 6.407,-0.411 10.251,-0.401 3.844,0.008 2.562,0.433 7.686,0.873 z"
       style="fill:none;stroke:#231f20;stroke-width:0.5;stroke-linecap:round;stroke-linejoin:round;stroke-miterlimit:4;stroke-dasharray:2.8, 1.8;stroke-dashoffset:0;stroke-opacity:1"
       id="path1008" />
    <path
       d="m 441.703,647.182 c 4.488,-1.057 16.502,-0.356 18.2,3.92"
       style="fill:none;stroke:#231f20;stroke-width:0.5;stroke-linecap:round;stroke-linejoin:round;stroke-miterlimit:4;stroke-dasharray:2.8, 1.8;stroke-dashoffset:0;stroke-opacity:1"
       id="path1010" />
    <path
       d="m 519.336,609.176 c -2.773,-0.649 -7.654,0.836 -10.647,2.324 -2.993,1.488 -7.059,4.68 -11.753,2.961 -3.934,-1.443 -2.971,-7.908 -5.953,-10.479 -2.984,-2.57 -13.653,-5.798 -23.907,-4.328 -10.254,1.469 -49.34,3.944 -49.305,-10.158 0.008,-3.33 1.048,-5.822 3.354,-7.373 6.437,-4.309 24.978,-2.268 32.119,-2.364 8.549,-0.113 13.454,-0.394 19.865,-2.087 6.411,-1.693 15.388,-5.087 18.388,-9.352 3,-4.261 3.22,-7.039 7.277,-7.029 2.076,0.005 4.777,0.453 6.463,2.059 1.744,1.671 3.842,3.406 6.765,3.099 5.981,-0.626 5.778,-4.471 7.282,-8.523 1.504,-4.055 3.225,-9.176 6.001,-8.955 2.776,0.219 5.544,3.217 6.593,10.906 0.787,5.775 2.332,7.266 5.314,9.838 2.984,2.569 4.043,5.988 3.608,9.617"
       style="fill:none;stroke:#231f20;stroke-width:0.5;stroke-linecap:round;stroke-linejoin:round;stroke-miterlimit:4;stroke-dasharray:2.8, 1.8;stroke-dashoffset:0;stroke-opacity:1"
       id="path1012" />
    <path
       d="m 510.95,560.467 c -3.02,-1.689 -4.038,-8.125 -1.685,-10.041 2.354,-1.916 7.472,1.086 7.888,5.572 0.416,4.486 -1.606,7.043 -6.203,4.469 z"
       style="fill:none;stroke:#231f20;stroke-width:0.5;stroke-linecap:round;stroke-linejoin:round;stroke-miterlimit:4;stroke-dasharray:2.8, 1.8;stroke-dashoffset:0;stroke-opacity:1"
       id="path1014" />
    <path
       d="m 517.47,600.844 c -2.212,6.347 2.225,10.116 5.771,9.063 2.437,-0.727 4.57,-2.565 2.34,-7.109"
       style="fill:none;stroke:#231f20;stroke-width:0.5;stroke-linecap:round;stroke-linejoin:round;stroke-miterlimit:4;stroke-dasharray:2.8, 1.8;stroke-dashoffset:0;stroke-opacity:1"
       id="path1016" />
    <path
       d="m 521.538,573.959 c -2.212,-6.349 2.224,-10.55 5.77,-9.498 2.437,0.728 3.554,2.558 2.339,7.111"
       style="fill:none;stroke:#231f20;stroke-width:0.5;stroke-linecap:round;stroke-linejoin:round;stroke-miterlimit:4;stroke-dasharray:2.8, 1.8;stroke-dashoffset:0;stroke-opacity:1"
       id="path1018" />
    <path
       d="m 447.735,561.808 c 3.709,0.401 12.799,5.583 15.572,7.085 2.773,1.502 9.816,3.227 16.016,0.252 6.199,-2.975 10.484,-8.088 8.785,-12.364 -1.697,-4.275 -11.94,-7.718 -22.4,-8.811 -10.462,-1.092 -25.193,-2.624 -28.619,0.999 -3.425,3.621 -5.499,8.435 0.185,11.746 4.051,2.357 6.405,0.656 10.461,1.093 z"
       style="fill:none;stroke:#231f20;stroke-width:0.5;stroke-linecap:round;stroke-linejoin:round;stroke-miterlimit:4;stroke-dasharray:2.8, 1.8;stroke-dashoffset:0;stroke-opacity:1"
       id="path1020" />
    <path
       d="m 433.868,468.666 c -1.634,-0.124 -4.2,-1.256 -5.404,-2.956 -2.548,-3.584 -1.836,-10.716 -2.245,-13.08 -0.631,-3.63 -1.687,-8.757 -0.827,-10.677 0.858,-1.92 4.489,-2.125 6.838,-1.905 2.349,0.217 14.531,-4.236 19.444,-4.439 4.911,-0.201 6.403,1.084 6.823,4.287 0.419,3.205 1.681,10.896 2.745,12.82 1.063,1.926 3.061,5.914 -0.662,8.754 -3.638,2.77 -20.948,7.637 -26.712,7.196 z"
       style="fill:none;stroke:#231f20;stroke-width:0.5;stroke-linecap:round;stroke-linejoin:round;stroke-miterlimit:4;stroke-dasharray:2.8, 1.8;stroke-dashoffset:0;stroke-opacity:1"
       id="path1022" />
    <path
       d="m 416.798,462.859 c 5.374,-0.695 4.328,-15.059 -2.315,-13.887 -5.982,1.053 -2.517,14.51 2.315,13.887 z"
       style="fill:none;stroke:#231f20;stroke-width:0.5;stroke-linecap:round;stroke-linejoin:round;stroke-miterlimit:4;stroke-dasharray:2.8, 1.8;stroke-dashoffset:0;stroke-opacity:1"
       id="path1024" />
    <path
       d="m 422.932,487.326 c -3.463,-0.416 -1.398,-4.008 -2.12,-6.305 -0.531,-1.678 -3.788,-6.797 -2.33,-8.121 1.285,-1.172 3.306,1.93 5.224,3.43 1.919,1.498 3.944,2.572 4.154,4.494 0.162,1.502 -0.751,1.066 -0.967,2.027 -0.215,0.959 0.175,4.965 -3.961,4.475 z"
       style="fill:none;stroke:#231f20;stroke-width:0.5;stroke-linecap:round;stroke-linejoin:round;stroke-miterlimit:4;stroke-dasharray:2.8, 1.8;stroke-dashoffset:0;stroke-opacity:1"
       id="path1026" />
    <path
       d="m 536.119,397.376 c 2.989,0.221 5.149,-10.023 8.36,-13.218 2.583,-2.571 10.273,-9.371 14.977,-11.284 4.703,-1.908 10.051,-6.166 10.273,-10.009 0.225,-3.844 -10.457,-9.889 -18.928,-10.053"
       style="fill:none;stroke:#231f20;stroke-width:0.5;stroke-linecap:round;stroke-linejoin:round;stroke-miterlimit:4;stroke-dasharray:2.8, 1.8;stroke-dashoffset:0;stroke-opacity:1"
       id="path1028" />
    <path
       d="m 713.847,499.128 c 2.847,8.671 14.777,15.034 22.843,10.853 1.475,-0.764 2.503,-4.764 1.234,-6.109"
       style="fill:none;stroke:#231f20;stroke-width:0.5;stroke-linecap:round;stroke-linejoin:round;stroke-miterlimit:4;stroke-dasharray:2.8, 1.8;stroke-dashoffset:0;stroke-opacity:1"
       id="path1030" />
    <path
       d="m 896.368,488.441 c 0.445,-7.258 6.882,-20.551 17.359,-25.436"
       style="fill:none;stroke:#231f20;stroke-width:0.5;stroke-linecap:round;stroke-linejoin:round;stroke-miterlimit:4;stroke-dasharray:2.8, 1.8;stroke-dashoffset:0;stroke-opacity:1"
       id="path1032" />
    <path
       d="m 863.002,509.648 c 4.913,0.012 4.928,-7.035 0.231,-7.047 -4.697,-0.01 -5.143,7.034 -0.231,7.047 z"
       style="fill:none;stroke:#231f20;stroke-width:0.5;stroke-linecap:round;stroke-linejoin:round;stroke-miterlimit:4;stroke-dasharray:2.8, 1.8;stroke-dashoffset:0;stroke-opacity:1"
       id="path1034" />
    <path
       d="m 874.745,511.172 c 5.337,0.014 6.851,-7.886 0.23,-7.901 -6.619,-0.016 -5.57,7.887 -0.23,7.901 z"
       style="fill:none;stroke:#231f20;stroke-width:0.5;stroke-linecap:round;stroke-linejoin:round;stroke-miterlimit:4;stroke-dasharray:2.8, 1.8;stroke-dashoffset:0;stroke-opacity:1"
       id="path1036" />
    <path
       d="m 888.553,578.027 0.104,-39.347"
       style="fill:none;stroke:#231f20;stroke-width:0.5;stroke-linecap:round;stroke-linejoin:round;stroke-miterlimit:4;stroke-dasharray:2.8, 1.8;stroke-dashoffset:0;stroke-opacity:1"
       id="path1038" />
    <path
       d="m 888.508,604.018 -0.117,46.489"
       style="fill:none;stroke:#231f20;stroke-width:0.5;stroke-linecap:round;stroke-linejoin:round;stroke-miterlimit:4;stroke-dasharray:2.8, 1.8;stroke-dashoffset:0;stroke-opacity:1"
       id="path1040" />
    <path
       d="m 913.836,593.27 -97.591,-0.239 c 0,0 -3.631,0.632 -3.623,-3 0.009,-3.629 3.849,-2.552 3.849,-2.552 l 97.379,0.238"
       style="fill:none;stroke:#231f20;stroke-width:0.5;stroke-linecap:round;stroke-linejoin:round;stroke-miterlimit:4;stroke-dasharray:2.8, 1.8;stroke-dashoffset:0;stroke-opacity:1"
       id="path1042" />
    <path
       d="m 717.46,644.256 c 3.423,-2.555 12.398,-5.095 18.585,-2.518"
       style="fill:none;stroke:#231f20;stroke-width:0.5;stroke-linecap:round;stroke-linejoin:round;stroke-miterlimit:4;stroke-dasharray:2.8, 1.8;stroke-dashoffset:0;stroke-opacity:1"
       id="path1044" />
    <path
       d="m 550.801,352.812 c -2.78,0.228 -6.219,1.607 -7.959,2.299 -3.207,1.273 -11.108,1.467 -17.732,3.158 -6.624,1.693 -22.867,7.205 -29.494,9.967 -6.627,2.76 -19.03,9.349 -25.442,11.683 -4.488,1.637 -29.72,15.516 -36.78,20.623 -7.06,5.11 -23.96,17.661 -23.995,31.762 -0.015,5.979 7.735,11.016 9.587,9.418 3.37,-2.914 -1.264,-7.264 -1.47,-10.467 -0.205,-3.203 2.16,-9.818 17.354,-22.808 15.193,-12.989 23.533,-17.881 36.361,-24.041 12.829,-6.162 17.1,-6.364 29.072,-12.102 11.412,-5.465 29.709,-10.392 37.613,-11.652 7.625,-1.217 15.717,1.648 17.096,-4.871 l 1.864,-10.27"
       style="fill:none;stroke:#231f20;stroke-width:0.5;stroke-linecap:round;stroke-linejoin:round;stroke-miterlimit:4;stroke-dasharray:2.8, 1.8;stroke-dashoffset:0;stroke-opacity:1"
       id="path1046" />
    <path
       d="m 754.544,496.826 c 2.133,1.074 6.626,-0.241 9.62,-1.086 2.991,-0.848 24.573,-6.133 32.047,-6.756 7.477,-0.623 20.081,-2.088 28.192,-1.426 8.115,0.66 15.373,1.318 20.713,1.119 5.34,-0.201 13.668,-0.609 17.724,-0.599 4.059,0.011 10.036,1.093 15.16,1.105 5.126,0.014 15.165,-0.391 19.864,-0.805 4.699,-0.416 11.951,2.592 15.574,6.016"
       style="fill:none;stroke:#231f20;stroke-width:0.5;stroke-linecap:round;stroke-linejoin:round;stroke-miterlimit:4;stroke-dasharray:2.8, 1.8;stroke-dashoffset:0;stroke-opacity:1"
       id="path1048" />
    <path
       d="m 691.461,534.428 c 5.737,-0.793 9.001,-12.791 7.52,-17.919 -1.483,-5.13 -5.517,-14.963 -13.844,-15.625 -8.327,-0.66 -16.879,3.378 -17.967,11.917 -0.857,6.73 8.937,23.758 24.291,21.627 z"
       style="fill:none;stroke:#231f20;stroke-width:0.5;stroke-linecap:round;stroke-linejoin:round;stroke-miterlimit:4;stroke-dasharray:2.8, 1.8;stroke-dashoffset:0;stroke-opacity:1"
       id="path1050" />
    <path
       d="m 667.387,511.52 c 2.34,3.421 17.919,2.538 22.859,-8.769"
       style="fill:none;stroke:#231f20;stroke-width:0.5;stroke-linecap:round;stroke-linejoin:round;stroke-miterlimit:4;stroke-dasharray:2.8, 1.8;stroke-dashoffset:0;stroke-opacity:1"
       id="path1052" />
    <path
       d="m 678.624,632.203 c 1.929,-2.986 7.268,-14.311 6.249,-22.836 -1.256,-10.467 -8.859,-15.384 -9.14,-17.96 -0.417,-3.845 9.008,-20.919 8.617,-30.303 -0.252,-6.027 -10.08,-15.187 -10.08,-15.187"
       style="fill:none;stroke:#231f20;stroke-width:0.5;stroke-linecap:round;stroke-linejoin:round;stroke-miterlimit:4;stroke-dasharray:2.8, 1.8;stroke-dashoffset:0;stroke-opacity:1"
       id="path1054" />
    <path
       d="m 517.113,535.532 c 2.966,5.042 10.317,9.386 13.733,9.609"
       style="fill:none;stroke:#231f20;stroke-width:0.5;stroke-linecap:round;stroke-linejoin:round;stroke-miterlimit:4;stroke-dasharray:2.8, 1.8;stroke-dashoffset:0;stroke-opacity:1"
       id="path1056" />
    <path
       d="m 482.371,720.133 c -3.72,-1.505 -5.535,-7.061 -3.816,-11.541 1.719,-4.481 10.27,-7.877 12.406,-8.513 2.137,-0.636 7.262,-0.408 5.331,3.431 -1.073,2.133 -6.727,2.732 -7.704,6.6 -0.431,1.708 2.784,5.16 -0.449,9.183 -0.857,1.064 -3.635,1.699 -5.768,0.84 z"
       style="fill:none;stroke:#231f20;stroke-width:0.5;stroke-linecap:round;stroke-linejoin:round;stroke-miterlimit:4;stroke-dasharray:2.8, 1.8;stroke-dashoffset:0;stroke-opacity:1"
       id="path1058" />
    <path
       d="m 441.424,697.823 c 4.916,-2.124 33.764,-9.741 49.537,2.256"
       style="fill:none;stroke:#231f20;stroke-width:0.5;stroke-linecap:round;stroke-linejoin:round;stroke-miterlimit:4;stroke-dasharray:2.8, 1.8;stroke-dashoffset:0;stroke-opacity:1"
       id="path1060" />
    <path
       d="m 425.367,714.441 c 5.979,0.228 48.9,0.973 52.745,0.983"
       style="fill:none;stroke:#231f20;stroke-width:0.5;stroke-linecap:round;stroke-linejoin:round;stroke-miterlimit:4;stroke-dasharray:2.8, 1.8;stroke-dashoffset:0;stroke-opacity:1"
       id="path1062" />
    <path
       d="m 491.219,763.814 c 6.25,3.125 9.145,-14.214 11.182,-25.908 1.299,-7.47 -4.893,-7.914 -7.67,-7.066 -2.779,0.848 -19.012,2.303 -22.002,2.295 -2.99,-0.006 -6.34,2.338 -4.928,6.395 2.58,7.409 3.231,16.269 4.925,18.956"
       style="fill:none;stroke:#231f20;stroke-width:0.5;stroke-linecap:round;stroke-linejoin:round;stroke-miterlimit:4;stroke-dasharray:2.8, 1.8;stroke-dashoffset:0;stroke-opacity:1"
       id="path1064" />
    <path
       d="m 492.047,780.377 c 7.468,-0.302 9.421,-10.229 2.811,-14.515 -6.609,-4.286 -21.119,-9.233 -23.046,-6.889 -1.928,2.343 -1.08,5.121 0.62,8.329 0.898,1.69 4.013,4.589 8.05,7.554 3.624,2.665 6.54,5.722 11.565,5.521 z"
       style="fill:none;stroke:#231f20;stroke-width:0.5;stroke-linecap:round;stroke-linejoin:round;stroke-miterlimit:4;stroke-dasharray:2.8, 1.8;stroke-dashoffset:0;stroke-opacity:1"
       id="path1066" />
    <path
       d="m 417.824,742.398 c 3.204,0.007 7.05,-1.051 8.756,-0.193 1.707,0.858 6.184,3.645 9.173,4.08 2.989,0.434 9.183,0.236 12.818,-2.104 3.637,-2.339 10.055,-7.449 13.902,-8.935 3.848,-1.486 12.604,-1.037 14.324,-6.586 1.723,-5.548 1.735,-10.674 1.315,-13.236"
       style="fill:none;stroke:#231f20;stroke-width:0.5;stroke-linecap:round;stroke-linejoin:round;stroke-miterlimit:4;stroke-dasharray:2.8, 1.8;stroke-dashoffset:0;stroke-opacity:1"
       id="path1068" />
    <path
       d="m 412.706,740.183 c -0.632,-3.845 1.75,-17.44 1.75,-17.44"
       style="fill:none;stroke:#231f20;stroke-width:0.5;stroke-linecap:round;stroke-linejoin:round;stroke-miterlimit:4;stroke-dasharray:2.8, 1.8;stroke-dashoffset:0;stroke-opacity:1"
       id="path1070" />
    <path
       d="m 406.635,689.41 c 3.65,-2.326 9.815,3.654 11.089,6.86 1.273,3.207 4.34,15.339 0.795,24.133 -1.289,3.201 -4.922,4.046 -5.766,-0.014 -0.844,-4.059 -2.602,-8.588 -4.03,-11.114 -2.552,-4.49 -7.434,-16.461 -2.088,-19.865 z"
       style="fill:none;stroke:#231f20;stroke-width:0.5;stroke-linecap:round;stroke-linejoin:round;stroke-miterlimit:4;stroke-dasharray:2.8, 1.8;stroke-dashoffset:0;stroke-opacity:1"
       id="path1072" />
    <path
       d="m 417.725,696.057 c 2.358,-4.051 15.809,-2.952 20.077,-1.66 4.268,1.292 4.691,2.788 2.335,5.558 -1.051,1.233 -4.949,4.413 -9.056,8.453 -5.104,5.027 -10.005,11.461 -12.776,12.208"
       style="fill:none;stroke:#231f20;stroke-width:0.5;stroke-linecap:round;stroke-linejoin:round;stroke-miterlimit:4;stroke-dasharray:2.8, 1.8;stroke-dashoffset:0;stroke-opacity:1"
       id="path1074" />
    <path
       d="m 710.329,678.619 c 0.009,-3.63 -5.754,-4.926 -10.239,-4.723 -4.486,0.204 -13.416,1.176 -14.109,5.946 -0.65,4.482 6.365,6.515 8.527,6.213 4.487,-0.629 15.811,-3.805 15.821,-7.436 z"
       style="fill:none;stroke:#231f20;stroke-width:0.5;stroke-linecap:round;stroke-linejoin:round;stroke-miterlimit:4;stroke-dasharray:2.8, 1.8;stroke-dashoffset:0;stroke-opacity:1"
       id="path1076" />
    <path
       d="m 403.658,771.833 c -1.695,-5.343 -2.091,-17.944 -0.803,-20.931 1.289,-2.986 3.651,-8.533 7.927,-10.23 4.274,-1.697 7.044,1.084 7.893,3.223 0.849,2.136 -2.58,7.041 -4.724,10.666 -2.144,3.625 -3.862,7.251 -2.804,11.097 1.059,3.846 4.677,8.767 7.236,10.482 2.558,1.714 7.399,3.467 15.788,5.804 8.537,2.369 19.205,5.813 26.458,9.247 3.533,1.67 10.238,5.144 13.223,7.073 2.984,1.929 9.541,5.976 11.727,7.297 4.265,2.572 8.103,4.503 10.662,6.217 2.558,1.716 7.037,4.289 11.731,5.795 4.694,1.506 13.872,3.238 16.22,4.097 2.347,0.859 6.826,3.008 9.6,3.868 2.775,0.86 13.874,2.169 18.146,2.18 4.272,0.01 8.18,0.168 8.748,3.223 0.803,4.327 -1.076,3.414 -2.572,4.051 -1.496,0.638 -6.838,1.479 -11.322,1.468 -4.485,-0.011 -13.446,-3.235 -16.004,-4.736 -2.559,-1.501 -6.611,-4.074 -12.374,-5.156 -5.763,-1.082 -14.939,-3.668 -21.978,-7.314 -7.037,-3.649 -14.284,-9.432 -17.481,-12.002 -3.197,-2.57 -6.18,-5.354 -13.007,-8.359 -6.825,-3.008 -14.291,-6.656 -20.483,-7.312 -6.191,-0.655 -13.662,-1.955 -19.848,-4.319 -6.188,-2.365 -20.263,-10.086 -21.959,-15.429 z"
       style="fill:none;stroke:#231f20;stroke-width:0.5;stroke-linecap:round;stroke-linejoin:round;stroke-miterlimit:4;stroke-dasharray:2.8, 1.8;stroke-dashoffset:0;stroke-opacity:1"
       id="path1078" />
    <path
       d="m 704.108,657.632 c 1.391,-0.597 4.037,-2.9 3.838,-5.087"
       style="fill:none;stroke:#231f20;stroke-width:0.5;stroke-linecap:round;stroke-linejoin:round;stroke-miterlimit:4;stroke-dasharray:2.8, 1.8;stroke-dashoffset:0;stroke-opacity:1"
       id="path1080" />
    <path
       d="m 669.136,669.55 c 4.07,-4.902 11.149,-18.124 12.878,-26.236 0,0 2.072,13.68 7.241,14.079"
       style="fill:none;stroke:#231f20;stroke-width:0.5;stroke-linecap:round;stroke-linejoin:round;stroke-miterlimit:4;stroke-dasharray:2.8, 1.8;stroke-dashoffset:0;stroke-opacity:1"
       id="path1082" />
    <path
       d="m 687.505,668.1 c 0.218,-1.707 4.915,-1.483 7.482,-3.184 2.566,-1.703 8.129,-5.961 9.621,-4.462 1.49,1.499 -0.434,2.774 -1.932,3.839 -1.497,1.064 -7.912,4.465 -10.476,5.1 -2.564,0.634 -4.912,0.416 -4.695,-1.293 z"
       style="fill:none;stroke:#231f20;stroke-width:0.5;stroke-linecap:round;stroke-linejoin:round;stroke-miterlimit:4;stroke-dasharray:2.8, 1.8;stroke-dashoffset:0;stroke-opacity:1"
       id="path1084" />
    <path
       d="m 663.547,684.271 c 0.656,2.557 4.106,2.787 7.256,1.94 4.702,-1.27 8.117,-0.621 10.254,-1.043 2.135,-0.422 4.49,-2.551 4.71,-4.9 0.22,-2.348 0.87,-6.618 -3.186,-7.268 -5.789,-0.93 -11.106,0.613 -12.176,1.678 -1.071,1.066 -1.504,3.841 -2.576,5.547 -1.073,1.705 -4.929,1.522 -4.282,4.046 z"
       style="fill:none;stroke:#231f20;stroke-width:0.5;stroke-linecap:round;stroke-linejoin:round;stroke-miterlimit:4;stroke-dasharray:2.8, 1.8;stroke-dashoffset:0;stroke-opacity:1"
       id="path1086" />
    <path
       d="m 747.493,682.717 c 1.917,1.713 4.034,2.837 5.537,-0.576 1.504,-3.413 1.933,-4.481 1.724,-6.616 -0.207,-2.136 -3.184,-7.482 -7.029,-7.064 -3.844,0.418 -3.644,5.824 -3.228,10.31"
       style="fill:none;stroke:#231f20;stroke-width:0.5;stroke-linecap:round;stroke-linejoin:round;stroke-miterlimit:4;stroke-dasharray:2.8, 1.8;stroke-dashoffset:0;stroke-opacity:1"
       id="path1088" />
    <path
       d="m 754.754,676.166 c 0.625,5.98 3.823,8.338 6.591,11.761 2.769,3.424 6.816,7.277 11.297,8.356 4.482,1.078 9.175,3.653 17.935,1.325 8.761,-2.328 14.324,-6.372 16.465,-8.501 0.005,-2.35 -3.377,-2.625 -1.694,-5.557 1.715,-2.986 3.863,-8.106 -0.613,-11.533 -4.477,-3.428 -23.895,-9.029 -27.096,-10.745 -3.197,-1.715 -8.317,-4.504 -11.521,-4.298 -3.203,0.205 -6.625,2.546 -8.342,5.745 -1.717,3.199 -3.444,11.096 -3.444,11.096"
       style="fill:none;stroke:#231f20;stroke-width:0.5;stroke-linecap:round;stroke-linejoin:round;stroke-miterlimit:4;stroke-dasharray:2.8, 1.8;stroke-dashoffset:0;stroke-opacity:1"
       id="path1090" />
    <path
       d="m 901.344,724.145 c -5.117,-3.002 -9.279,-8.834 -11.715,-12.842 -1.15,-1.895 2.832,-5.084 7.401,-5.275 4.771,-0.198 13.285,-0.658 16.467,-0.658"
       style="fill:none;stroke:#231f20;stroke-width:0.5;stroke-linecap:round;stroke-linejoin:round;stroke-miterlimit:4;stroke-dasharray:2.8, 1.8;stroke-dashoffset:0;stroke-opacity:1"
       id="path1092" />
    <path
       d="m 809.432,672.028 c 0.008,-2.969 8.975,-1.686 11.963,-1.253 2.988,0.435 8.537,1.516 11.315,1.31 2.777,-0.208 10.675,0.881 12.169,0.884 1.495,0.004 5.34,-0.627 5.551,0.867 0.209,1.496 -10.262,3.819 -13.252,4.238 -2.99,0.42 -11.107,1.682 -14.097,1.461 -2.989,-0.221 -4.485,0.631 -5.557,1.908 -2.99,-0.007 -8.102,-5.572 -8.092,-9.415 z"
       style="fill:none;stroke:#231f20;stroke-width:0.5;stroke-linecap:round;stroke-linejoin:round;stroke-miterlimit:4;stroke-dasharray:2.8, 1.8;stroke-dashoffset:0;stroke-opacity:1"
       id="path1094" />
    <path
       d="m 812.872,487.609 -0.391,-14.906"
       style="fill:none;stroke:#231f20;stroke-width:0.5;stroke-linecap:round;stroke-linejoin:round;stroke-miterlimit:4;stroke-dasharray:2.8, 1.8;stroke-dashoffset:0;stroke-opacity:1"
       id="path1096" />
    <path
       d="m 415.752,773.697 -4.82,5.489"
       style="fill:none;stroke:#231f20;stroke-width:0.5;stroke-linecap:round;stroke-linejoin:round;stroke-miterlimit:4;stroke-dasharray:2.8, 1.8;stroke-dashoffset:0;stroke-opacity:1"
       id="path1098" />
    <path
       d="m 415.752,416.523 6.087,5.076"
       style="fill:none;stroke:#231f20;stroke-width:0.5;stroke-linecap:round;stroke-linejoin:round;stroke-miterlimit:4;stroke-dasharray:2.8, 1.8;stroke-dashoffset:0;stroke-opacity:1"
       id="path1100" />
    <path
       d="m 749.858,644.975 0.117,-128.577"
       style="fill:none;stroke:#231f20;stroke-width:0.5;stroke-linecap:round;stroke-linejoin:round;stroke-miterlimit:4;stroke-dasharray:2.8, 1.8;stroke-dashoffset:0;stroke-opacity:1"
       id="path1102" />
    <path
       d="m 496.723,701.588 c 2.781,-2.129 8.549,-2.541 15.164,-0.817 6.617,1.725 24.107,10.309 29.439,12.885 5.332,2.575 28.167,8.824 34.989,13.539 6.822,4.715 10.006,12.837 9.33,26.93 -0.674,14.093 -11.795,20.686 -17.354,23.234 -5.558,2.549 -13.146,4.85 -19.407,5.022 -11.035,0.3 -11.035,7.453 -6.69,13.067 3.084,3.986 8.093,8.989 17.267,12.641 9.173,3.653 12.147,15.406 1.448,24.136 l 2.295,12.015"
       style="fill:none;stroke:#231f20;stroke-width:0.5;stroke-linecap:round;stroke-linejoin:round;stroke-miterlimit:4;stroke-dasharray:2.8, 1.8;stroke-dashoffset:0;stroke-opacity:1"
       id="path1104" />
    <path
       d="m 513.297,782.796 -4.079,24.336"
       style="fill:none;stroke:#231f20;stroke-width:0.5;stroke-linecap:round;stroke-linejoin:round;stroke-miterlimit:4;stroke-dasharray:2.8, 1.8;stroke-dashoffset:0;stroke-opacity:1"
       id="path1106" />
    <path
       d="m 868.551,700.908 c 0.977,-2.799 -0.08,-5.713 -2.361,-6.51 -2.281,-0.795 -4.922,0.829 -5.898,3.627 -0.977,2.8 0.082,5.715 2.361,6.511 2.281,0.796 4.922,-0.829 5.898,-3.628 z"
       style="fill:none;stroke:#231f20;stroke-width:0.5;stroke-linecap:round;stroke-linejoin:round;stroke-miterlimit:4;stroke-dasharray:2.8, 1.8;stroke-dashoffset:0;stroke-opacity:1"
       id="path1108" />
    <path
       d="m 793.161,652.469 c 12.211,-3.106 88.884,-1.845 120.336,-1.845"
       style="fill:none;stroke:#231f20;stroke-width:0.5;stroke-linecap:round;stroke-linejoin:round;stroke-miterlimit:4;stroke-dasharray:2.8, 1.8;stroke-dashoffset:0;stroke-opacity:1"
       id="path1110" />
    <path
       d="m 860.364,711.505 c 5.252,-1.103 23.849,-2.907 29.738,-2.468"
       style="fill:none;stroke:#231f20;stroke-width:0.5;stroke-linecap:round;stroke-linejoin:round;stroke-miterlimit:4;stroke-dasharray:2.8, 1.8;stroke-dashoffset:0;stroke-opacity:1"
       id="path1112" />
    <path
       d="m 738.075,685.094 c -2.141,1.917 -7.27,3.826 -10.688,4.458 -3.42,0.633 -4.91,-1.079 -6.827,-2.792 l -3.915,-4.963 c -1.41,-2.567 3.031,-4.002 3.031,-4.002 -2.386,-0.398 -5.715,-3.392 -6.302,-6.404 -0.635,-2.138 -1.088,-6.434 -0.872,-7.928 0.216,-1.494 1.075,-3.2 2.571,-3.625 1.496,-0.422 10.257,-2.11 13.883,-1.033 3.628,1.077 5.035,2.687 6.03,5.67 l 1.036,3.961 c 0.754,3.394 -2.031,4.986 -3.422,5.382 0,0 5.969,-1.984 7.955,6.762"
       style="fill:none;stroke:#231f20;stroke-width:0.5;stroke-linecap:round;stroke-linejoin:round;stroke-miterlimit:4;stroke-dasharray:2.8, 1.8;stroke-dashoffset:0;stroke-opacity:1"
       id="path1114" />
    <path
       d="m 685.28,671.035 c -2.373,-2.966 -3.58,-10.14 2.982,-13.123 6.561,-2.982 18.887,-2.783 20.08,5.369 1.194,8.152 -11.779,10.631 -14.959,11.427 -3.181,0.795 -6.512,-1.685 -8.103,-3.673 z"
       style="fill:none;stroke:#231f20;stroke-width:0.5;stroke-linecap:round;stroke-linejoin:round;stroke-miterlimit:4;stroke-dasharray:2.8, 1.8;stroke-dashoffset:0;stroke-opacity:1"
       id="path1116" />
    <path
       d="m 456.715,436.443 c 4.189,-0.918 12.838,-5.69 18.504,-12.25 5.666,-6.563 26.245,-22.07 30.42,-23.859 4.176,-1.792 4.176,-5.952 4.176,-8.948 0,-5.369 -0.597,-11.334 -0.597,-11.334"
       style="fill:none;stroke:#231f20;stroke-width:0.5;stroke-linecap:round;stroke-linejoin:round;stroke-miterlimit:4;stroke-dasharray:2.8, 1.8;stroke-dashoffset:0;stroke-opacity:1"
       id="path1118" />
    <path
       d="m 555.012,355.781 c -1.162,5.652 -8.216,10.254 -18.654,12.939 -10.438,2.684 -16.402,6.561 -18.192,7.754 -1.79,1.194 -9.544,4.473 -14.017,5.367 -4.475,0.895 -12.229,2.088 -11.93,6.86 0.298,4.773 0.895,11.334 1.491,12.824 0.597,1.492 4.828,3.254 7.124,1.742"
       style="fill:none;stroke:#231f20;stroke-width:0.5;stroke-linecap:round;stroke-linejoin:round;stroke-miterlimit:4;stroke-dasharray:2.8, 1.8;stroke-dashoffset:0;stroke-opacity:1"
       id="path1120" />
    <path
       d="m 509.721,394.089 c 0.69,4.157 2.778,3.559 5.462,2.963 2.685,-0.596 14.614,-3.281 20.936,0.324"
       style="fill:none;stroke:#231f20;stroke-width:0.5;stroke-linecap:round;stroke-linejoin:round;stroke-miterlimit:4;stroke-dasharray:2.8, 1.8;stroke-dashoffset:0;stroke-opacity:1"
       id="path1122" />
    <path
       d="m 431.048,467.8 c -0.565,3.514 0.766,5.594 2.716,7.092 3.877,2.982 13.719,5.369 20.877,5.07 7.157,-0.298 12.525,-1.193 17.297,-3.877 4.772,-2.683 11.334,-4.175 15.807,-2.384 4.474,1.789 9.841,2.384 14.316,2.086 4.473,-0.297 12.887,-1.52 13.899,-4.934"
       style="fill:none;stroke:#231f20;stroke-width:0.5;stroke-linecap:round;stroke-linejoin:round;stroke-miterlimit:4;stroke-dasharray:2.8, 1.8;stroke-dashoffset:0;stroke-opacity:1"
       id="path1124" />
    <path
       d="m 487.745,473.701 c -9.842,-2.686 -7.754,-11.334 -7.158,-14.317 0.597,-2.982 1.568,-7.109 5.695,-7.959"
       style="fill:none;stroke:#231f20;stroke-width:0.5;stroke-linecap:round;stroke-linejoin:round;stroke-miterlimit:4;stroke-dasharray:2.8, 1.8;stroke-dashoffset:0;stroke-opacity:1"
       id="path1126" />
    <path
       d="m 513.122,463.003 c -0.426,-5.675 -4.186,-12.175 -22.833,-11.923 -9.691,0.13 -22.526,6.216 -29.709,10.39"
       style="fill:none;stroke:#231f20;stroke-width:0.5;stroke-linecap:round;stroke-linejoin:round;stroke-miterlimit:4;stroke-dasharray:2.8, 1.8;stroke-dashoffset:0;stroke-opacity:1"
       id="path1128" />
    <path
       d="m 490.289,451.08 c -5.029,-0.743 -6.74,-12.491 -0.257,-15.456 6.959,-3.181 17.099,-1.789 26.752,9.114"
       style="fill:none;stroke:#231f20;stroke-width:0.5;stroke-linecap:round;stroke-linejoin:round;stroke-miterlimit:4;stroke-dasharray:2.8, 1.8;stroke-dashoffset:0;stroke-opacity:1"
       id="path1130" />
    <path
       d="m 697.576,512.5 c 2.829,1.497 11.84,6.113 20.732,4.922 6.538,-0.875 7.944,-5.745 8.236,-6.789"
       style="fill:none;stroke:#231f20;stroke-width:0.5;stroke-linecap:round;stroke-linejoin:round;stroke-miterlimit:4;stroke-dasharray:2.8, 1.8;stroke-dashoffset:0;stroke-opacity:1"
       id="path1132" />
    <path
       d="m 719.868,517.115 c 2.392,3.211 9.916,12.808 13.726,15.14 5.488,3.356 10.438,8.053 29.725,8.251 19.285,0.199 150.178,-2.286 150.178,-2.286"
       style="fill:none;stroke:#231f20;stroke-width:0.5;stroke-linecap:round;stroke-linejoin:round;stroke-miterlimit:4;stroke-dasharray:2.8, 1.8;stroke-dashoffset:0;stroke-opacity:1"
       id="path1134" />
    <path
       d="m 817.413,511.582 c 9.232,0.393 89.089,-0.797 96.084,-1.195"
       style="fill:none;stroke:#231f20;stroke-width:0.5;stroke-linecap:round;stroke-linejoin:round;stroke-miterlimit:4;stroke-dasharray:2.8, 1.8;stroke-dashoffset:0;stroke-opacity:1"
       id="path1136" />
    <path
       d="m 770.391,519.267 c -0.159,-1.499 -2.787,-2.449 -5.869,-2.121 -3.082,0.328 -5.452,1.807 -5.293,3.305 0.16,1.5 2.787,2.447 5.869,2.121 3.082,-0.328 5.451,-1.807 5.293,-3.305 z"
       style="fill:none;stroke:#231f20;stroke-width:0.5;stroke-linecap:round;stroke-linejoin:round;stroke-miterlimit:4;stroke-dasharray:2.8, 1.8;stroke-dashoffset:0;stroke-opacity:1"
       id="path1138" />
    <path
       d="m 733.944,510.973 c 3.228,2.195 13.766,8.16 38.283,5.288"
       style="fill:none;stroke:#231f20;stroke-width:0.5;stroke-linecap:round;stroke-linejoin:round;stroke-miterlimit:4;stroke-dasharray:2.8, 1.8;stroke-dashoffset:0;stroke-opacity:1"
       id="path1140" />
    <path
       d="m 546.5,827.391 c -5.371,-5.645 -20.282,-13.698 -37.282,-20.259 -12.317,-4.755 -16.701,-3.878 -17.298,-7.157 -0.595,-3.282 2.664,-19.925 3.219,-20.39 2.205,-1.853 34.705,9.536 45.86,14.086 6.929,2.827 30.058,5.521 36.31,6.215"
       style="fill:none;stroke:#231f20;stroke-width:0.5;stroke-linecap:round;stroke-linejoin:round;stroke-miterlimit:4;stroke-dasharray:2.8, 1.8;stroke-dashoffset:0;stroke-opacity:1"
       id="path1142" />
    <path
       d="m 487.284,719.93 c 2.763,4.492 8.092,9.204 11.291,10.706 3.199,1.503 6.19,0.87 8.11,1.942 1.919,1.071 6.185,3.219 6.607,5.782 0.419,2.564 0.38,4.954 1.894,10.681 2.648,10.016 29.556,26.165 50.845,27.85 4.96,0.392 13.38,3.689 13.38,3.689"
       style="fill:none;stroke:#231f20;stroke-width:0.5;stroke-linecap:round;stroke-linejoin:round;stroke-miterlimit:4;stroke-dasharray:2.8, 1.8;stroke-dashoffset:0;stroke-opacity:1"
       id="path1144" />
    <path
       d="m 538.114,629.375 c -3.565,-4.237 -17.157,6.281 -22.215,10.076 -2.603,1.951 -4.743,4.26 -4.092,7.079"
       style="fill:none;stroke:#231f20;stroke-width:0.5;stroke-linecap:round;stroke-linejoin:round;stroke-miterlimit:4;stroke-dasharray:2.8, 1.8;stroke-dashoffset:0;stroke-opacity:1"
       id="path1146" />
    <path
       d="m 586.626,416.714 c -4.741,-1.318 -7.75,-2.111 -12.749,-2.802 -8.689,-1.2 -25.097,1.63 -33.406,5.086 -2.565,1.49 -10.824,5.056 -14.257,11.457 -3.432,6.396 -7.288,11.298 -9.43,14.283 -2.143,2.984 -4.294,9.597 -4.088,12.59 0.206,2.99 0.074,13.406 5.941,15.388 2.441,0.828 16.245,-6.367 28.423,-8.472 8.339,-1.442 31.198,-8.038 35.915,-15.928 8.363,-13.986 -2.918,-29.69 -9.098,-34.404 -2.656,-2.024 -6.734,-3.662 -9.85,-4.508 -10.097,-3.496 -24.87,-9.33 -27.908,-12.028 0,0 17.163,-2.798 26.881,-4.949"
       style="fill:none;stroke:#231f20;stroke-width:0.5;stroke-linecap:round;stroke-linejoin:round;stroke-miterlimit:4;stroke-dasharray:2.8, 1.8;stroke-dashoffset:0;stroke-opacity:1"
       id="path1148" />
    <path
       d="m 912.538,671.035 c -2.297,-0.13 -12.327,-0.398 -18.323,-0.723 -2.804,-0.15 -22.849,0.159 -26.267,0.364 -3.418,0.205 -18.864,-1.093 -18.238,5.529 0.624,6.621 16.279,9.415 22.042,10.496 5.764,1.082 16.655,1.749 21.778,1.762 5.125,0.012 10.06,-0.527 19.406,-3.312 5.109,-1.521 14.051,-4.967 13.918,-8.549 -0.199,-5.368 -7.455,-5.178 -14.316,-5.567"
       style="fill:#ffffff;fill-opacity:1;fill-rule:nonzero;stroke:none;stroke-width:0.1"
       id="path1150" />
    <path
       d="m 912.538,671.035 c -2.297,-0.13 -12.327,-0.398 -18.323,-0.723 -2.804,-0.15 -22.849,0.159 -26.267,0.364 -3.418,0.205 -18.864,-1.093 -18.238,5.529 0.624,6.621 16.279,9.415 22.042,10.496 5.764,1.082 16.655,1.749 21.778,1.762 5.125,0.012 10.06,-0.527 19.406,-3.312 5.109,-1.521 14.051,-4.967 13.918,-8.549 -0.199,-5.368 -7.455,-5.178 -14.316,-5.567 z"
       style="fill:none;stroke:#231f20;stroke-width:0.5;stroke-linecap:round;stroke-linejoin:round;stroke-miterlimit:4;stroke-dasharray:2.8, 1.8;stroke-dashoffset:0;stroke-opacity:1"
       id="path1152" />
    <path
       d="m 870.129,686.396 c 10.575,1.411 11.59,-16.067 1.453,-15.847"
       style="fill:none;stroke:#231f20;stroke-width:0.5;stroke-linecap:round;stroke-linejoin:round;stroke-miterlimit:4;stroke-dasharray:2.8, 1.8;stroke-dashoffset:0;stroke-opacity:1"
       id="path1154" />
    <path
       d="m 901.008,687.949 c 7.534,-1.324 9.768,-16.93 0.389,-17.323"
       style="fill:none;stroke:#231f20;stroke-width:0.5;stroke-linecap:round;stroke-linejoin:round;stroke-miterlimit:4;stroke-dasharray:2.8, 1.8;stroke-dashoffset:0;stroke-opacity:1"
       id="path1156" />
  </g>
</svg>
