<?xml version="1.0" encoding="UTF-8" standalone="no"?>
<!-- Created with Inkscape (http://www.inkscape.org/) -->

<svg
   version="1.1"
   id="svg2"
   width="1440"
   height="1344"
   viewBox="0 0 1440 1344"
   xmlns="http://www.w3.org/2000/svg"
   xmlns:svg="http://www.w3.org/2000/svg">
  <defs
     id="defs6" />
  <g
     id="g8">
    <path
       d="m 964.036,614.768 c -4.031,0 -6.863,-2.654 -6.863,-6.531 l 10e-4,-0.005 c -0.455,-0.031 -0.943,-0.176 -1.459,-0.446 -0.752,2.65 -2.361,4.299 -5.832,4.304 -6.621,0.01 -16.443,-0.434 -19.218,-2.57 -2.776,-2.137 -4.481,-10.039 0.646,-12.599 5.125,-2.561 13.658,-2.264 18.793,-1.701 l -0.428,-2.776 c -4.056,-0.638 -11.531,-0.432 -14.306,-0.006 -2.777,0.426 -6.194,-1.284 -6.831,-5.77 -0.64,-4.484 2.352,-9.822 4.488,-11.101 2.137,-1.281 9.214,-3.854 16.444,-2.77 9.049,1.358 11.769,6.307 11.962,11.278 l 0.216,-0.325 c 1.193,-5.666 4.469,-6.714 7.75,-6.119 3.281,0.598 4.776,9.684 4.776,22.821 0,13.122 -3.579,14.316 -10.139,14.316"
       style="fill:#ffffff;fill-opacity:1;fill-rule:nonzero;stroke:none;stroke-width:0.1"
       id="path892" />
    <path
       d="m 949.415,710.75 c -7.266,10.887 -23.502,27.964 -31.833,32.873 -8.33,4.908 -29.046,11.732 -40.579,11.087 -4.571,-0.255 -12.304,-1.046 -20.965,-5.013 -13.704,-6.286 -29.979,-11.992 -36.684,-14.443 -11.102,-4.062 -21.779,-6.202 -24.982,-6.203 -11.96,3.411 -41.216,3.613 -51.894,3.609 0.64,1.281 1.707,2.99 -0.002,4.057 -1.708,1.067 -3.844,0.853 -6.406,0.424 -2.563,-0.428 -12.885,-2.921 -15.374,-5.559 -3.629,-3.844 -7.254,-12.602 -8.534,-16.873 -2.136,0.639 -5.552,0.211 -7.474,-0.217 -1.922,-0.427 -5.525,-0.702 -7.688,-0.43 -6.834,0.852 -24.996,10.18 -32.251,12.373 -9.184,2.772 -22.317,4.261 -39.293,2.546 -7.775,-0.784 -10.891,-1.286 -10.891,-1.286 0,0 5.764,4.274 6.83,10.039 1.065,5.767 -0.859,11.532 -2.997,15.588 -2.138,4.057 -7.267,15.373 -7.058,27.545 0.208,12.172 2.981,18.58 8.318,26.271 5.028,7.255 7.255,11.748 7.038,18.154 -0.215,6.406 -3.42,11.103 -8.975,15.585 -5.553,4.482 -18.154,7.467 -21.999,8.533 -3.845,1.066 -12.174,3.412 -21.784,3.834 -9.608,0.423 -34.593,-1.081 -54.452,-4.293 -19.859,-3.211 -52.101,-10.271 -77.937,-19.037 -25.836,-8.767 -45.906,-17.745 -49.962,-20.095 -4.057,-2.35 -20.071,-7.483 -27.97,-13.038 -7.898,-5.555 -18.57,-18.586 -20.918,-22.217 -2.347,-3.631 -13.825,-22.075 -18.14,-27.556 -5.549,-7.049 -12.381,-13.031 -17.503,-17.731 -5.124,-4.7 -8.965,-10.681 -10.032,-12.817 -1.067,-2.135 -4.054,-8.757 -8.11,-12.176 -4.056,-3.418 -6.832,-4.914 -8.325,-7.691 -1.494,-2.777 -8.534,-19.222 -10.881,-25.844 -2.346,-6.621 -3.411,-13.668 -2.555,-16.871 0.855,-3.203 3.205,-5.338 6.196,-6.19 2.989,-0.853 8.543,-3.841 17.299,-5.118 8.756,-1.278 21.355,0.649 24.984,1.505 3.63,0.855 8.968,4.488 12.17,5.771 3.203,1.282 11.317,3.635 17.082,4.278 5.766,0.643 13.24,0.432 19.005,1.716 -1.92,-4.486 -3.839,-11.533 -4.052,-13.882 -0.212,-2.35 -3.2,-4.487 -5.336,-6.409 -2.135,-1.923 -3.201,-5.127 -2.987,-6.195 -1.493,-1.922 -10.671,-15.593 -12.377,-21.146 -1.706,-5.553 -0.849,-11.104 1.074,-14.52 1.924,-3.417 8.121,-14.518 13.462,-20.923 5.342,-6.403 11.964,-12.168 15.171,-20.494 3.206,-8.327 4.49,-16.654 4.066,-21.14 1.496,-2.562 8.333,-11.314 7.056,-23.059 -4.698,2.346 -13.883,6.4 -19.008,7.893 -5.127,1.493 -12.815,2.129 -18.154,3.623 -5.339,1.493 -17.512,4.263 -20.93,5.756 -3.417,1.494 -10.253,5.762 -13.243,7.041 -2.99,1.281 -14.096,5.975 -17.727,7.041 -3.631,1.065 -7.475,1.065 -13.453,-0.86 -5.979,-1.924 -11.53,-4.916 -12.81,-6.839 -1.281,-1.922 -1.28,-4.058 -0.851,-9.184 0.43,-5.123 2.355,-13.665 3.21,-17.082 0.856,-3.416 5.986,-14.945 7.055,-17.506 1.068,-2.564 3.633,-7.261 5.342,-8.968 1.709,-1.707 6.835,-4.695 7.478,-6.616 0.641,-1.921 2.353,-10.89 6.839,-14.306 4.485,-3.414 4.7,-5.123 8.118,-7.256 3.417,-2.135 5.553,-2.988 9.825,-6.617 4.272,-3.629 9.833,-7.596 11.109,-11.1 0.855,-2.349 1.19,-5.15 3.421,-9.609 2.778,-5.551 12.821,-19.854 28.203,-36.077 15.382,-16.224 20.508,-17.93 26.062,-20.917 5.132,-2.76 16.445,-5.973 21.998,-6.397 5.552,-0.426 18.577,1.716 22.635,1.076 4.058,-0.638 6.621,-1.064 8.757,-3.2 2.137,-2.134 5.341,-4.694 10.467,-7.042 5.126,-2.347 34.6,-14.08 65.352,-14.068 23.917,0.011 43.4,5.219 46.123,6.853 3.202,1.924 10.461,7.265 10.459,12.391 -0.002,5.125 -1.926,10.676 -4.279,18.149 -1.604,5.099 -5.04,18.557 -1.296,34.595 2.345,10.037 6.831,11.32 7.682,17.514 0.851,6.193 -0.006,12.172 -5.56,18.363 -5.555,6.191 -17.117,12.298 -30.759,16.43 -10.164,3.079 -25.414,5.543 -26.696,5.755 -1.28,0.214 -4.057,1.706 -4.059,4.055 -0.001,2.35 3.631,0.856 4.698,1.497 1.068,0.642 5.124,3.846 -0.643,7.688 -5.768,3.841 -22.213,7.251 -29.687,8.743 -7.475,1.492 -19.434,3.623 -27.55,4.474 -8.115,0.85 -23.704,0.63 -23.704,0.63 0,0 7.473,1.925 11.742,7.265 4.268,5.342 -2.993,9.822 -2.993,9.822 0,0 7.686,2.78 6.617,5.983 2.563,-0.64 7.474,-1.277 13.667,-1.489 6.194,-0.21 15.376,-0.208 21.569,-0.418 6.194,-0.212 14.947,1.927 20.072,4.28 5.124,2.351 18.147,8.547 24.553,10.686 6.406,2.138 12.599,3.208 17.296,5.132 4.697,1.924 22.04,21.772 30.949,38.452 6.615,12.388 6.185,17.727 6.185,17.727 0,0 -3.211,14.947 -9.621,26.476 -4.274,7.686 -11.109,12.594 -13.886,15.584 -2.778,2.987 -4.702,6.616 -8.546,9.818 -3.846,3.202 -9.614,6.617 -12.176,7.256 -2.563,0.64 -5.98,1.279 -5.98,1.279 0,0 -20.077,10.242 -26.484,11.734 -6.408,1.493 -17.3,5.546 -19.222,6.398 -1.922,0.854 -13.455,2.558 -18.153,2.343 -4.698,-0.216 -11.744,-2.354 -11.744,-2.354 0,0 3.843,2.351 -1.069,2.989 1.28,1.922 4.695,7.049 0.21,9.396 5.979,-0.425 16.016,-0.848 20.927,-0.632 4.912,0.216 14.475,0.553 23.064,-0.631 5.506,-0.759 12.692,1.466 17.296,4.919 3.988,2.984 16.865,11.538 26.688,12.397 -1.921,-2.35 -4.483,-4.273 -3.199,-9.184 1.282,-4.912 5.342,-8.967 10.468,-11.314 5.126,-2.347 7.476,-4.482 28.617,-4.26 21.141,0.223 38.865,3.22 38.865,3.22 0,0 -7.256,-13.243 -10.453,-27.765 -3.197,-14.523 -3.62,-26.482 -3.83,-32.675 -0.211,-6.194 1.073,-15.374 1.076,-20.928 0.002,-5.551 -2.131,-12.172 -0.842,-29.897 1.288,-17.723 6.421,-36.301 20.739,-57.436 -5.34,1.493 -13.458,4.479 -28.19,2.552 -14.734,-1.928 -14.094,-0.434 -24.344,-2.573 -10.25,-2.14 -32.458,-5.992 -36.94,-9.412 -4.483,-3.418 -6.83,-9.399 -5.973,-15.804 0.857,-6.406 15.168,-14.302 27.769,-18.567 1.283,-3.631 2.993,-6.619 6.196,-8.114 3.204,-1.493 16.019,-7.039 22.854,-8.105 6.833,-1.064 11.104,1.072 12.597,3.21 4.485,0.856 23.918,-2.126 33.315,-2.763 9.397,-0.636 19.219,-1.701 32.458,1.721 13.24,3.423 17.082,7.055 19.643,8.124 2.563,1.068 14.733,5.345 19.644,5.986 4.912,0.644 8.756,1.073 11.746,-1.062 2.99,-2.134 5.982,-5.123 14.098,-8.323 8.116,-3.2 26.484,-9.385 37.802,-10.448 11.319,-1.062 27.119,0.866 33.952,3.43 6.833,2.566 10.463,3.422 15.8,4.279 5.34,0.856 12.174,0.432 18.154,-0.207 5.979,-0.638 30.751,-1.909 36.303,-2.761 5.553,-0.852 10.465,-1.491 16.444,-1.487 5.979,0.002 21.781,2.571 35.017,10.05 13.239,7.48 29.033,22.86 34.583,29.911"
       style="fill:#ffffff;fill-opacity:1;fill-rule:nonzero;stroke:none;stroke-width:0.1"
       id="path894" />
    <path
       d="m 949.415,710.75 c -7.266,10.887 -23.502,27.964 -31.833,32.873 -8.33,4.908 -29.046,11.732 -40.579,11.087 -4.571,-0.255 -12.304,-1.046 -20.965,-5.013 -13.704,-6.286 -29.979,-11.992 -36.684,-14.443 -11.102,-4.062 -21.779,-6.202 -24.982,-6.203 -11.96,3.411 -41.216,3.613 -51.894,3.609 0.64,1.281 1.707,2.99 -0.002,4.057 -1.708,1.067 -3.844,0.853 -6.406,0.424 -2.563,-0.428 -12.885,-2.921 -15.374,-5.559 -3.629,-3.844 -7.254,-12.602 -8.534,-16.873 -2.136,0.639 -5.552,0.211 -7.474,-0.217 -1.922,-0.427 -5.525,-0.702 -7.688,-0.43 -6.834,0.852 -24.996,10.18 -32.251,12.373 -9.184,2.772 -22.317,4.261 -39.293,2.546 -7.775,-0.784 -10.891,-1.286 -10.891,-1.286 0,0 5.764,4.274 6.83,10.039 1.065,5.767 -0.859,11.532 -2.997,15.588 -2.138,4.057 -7.267,15.373 -7.058,27.545 0.208,12.172 2.981,18.58 8.318,26.271 5.028,7.255 7.255,11.748 7.038,18.154 -0.215,6.406 -3.42,11.103 -8.975,15.585 -5.553,4.482 -18.154,7.467 -21.999,8.533 -3.845,1.066 -12.174,3.412 -21.784,3.834 -9.608,0.423 -34.593,-1.081 -54.452,-4.293 -19.859,-3.211 -52.101,-10.271 -77.937,-19.037 -25.836,-8.767 -45.906,-17.745 -49.962,-20.095 -4.057,-2.35 -20.071,-7.483 -27.97,-13.038 -7.898,-5.555 -18.57,-18.586 -20.918,-22.217 -2.347,-3.631 -13.825,-22.075 -18.14,-27.556 -5.549,-7.049 -12.381,-13.031 -17.503,-17.731 -5.124,-4.7 -8.965,-10.681 -10.032,-12.817 -1.067,-2.135 -4.054,-8.757 -8.11,-12.176 -4.056,-3.418 -6.832,-4.914 -8.325,-7.691 -1.494,-2.777 -8.534,-19.222 -10.881,-25.844 -2.346,-6.621 -3.411,-13.668 -2.555,-16.871 0.855,-3.203 3.205,-5.338 6.196,-6.19 2.989,-0.853 8.543,-3.841 17.299,-5.118 8.756,-1.278 21.355,0.649 24.984,1.505 3.63,0.855 8.968,4.488 12.17,5.771 3.203,1.282 11.317,3.635 17.082,4.278 5.766,0.643 13.24,0.432 19.005,1.716 -1.92,-4.486 -3.839,-11.533 -4.052,-13.882 -0.212,-2.35 -3.2,-4.487 -5.336,-6.409 -2.135,-1.923 -3.201,-5.127 -2.987,-6.195 -1.493,-1.922 -10.671,-15.593 -12.377,-21.146 -1.706,-5.553 -0.849,-11.104 1.074,-14.52 1.924,-3.417 8.121,-14.518 13.462,-20.923 5.342,-6.403 11.964,-12.168 15.171,-20.494 3.206,-8.327 4.49,-16.654 4.066,-21.14 1.496,-2.562 8.333,-11.314 7.056,-23.059 -4.698,2.346 -13.883,6.4 -19.008,7.893 -5.127,1.493 -12.815,2.129 -18.154,3.623 -5.339,1.493 -17.512,4.263 -20.93,5.756 -3.417,1.494 -10.253,5.762 -13.243,7.041 -2.99,1.281 -14.096,5.975 -17.727,7.041 -3.631,1.065 -7.475,1.065 -13.453,-0.86 -5.979,-1.924 -11.53,-4.916 -12.81,-6.839 -1.281,-1.922 -1.28,-4.058 -0.851,-9.184 0.43,-5.123 2.355,-13.665 3.21,-17.082 0.856,-3.416 5.986,-14.945 7.055,-17.506 1.068,-2.564 3.633,-7.261 5.342,-8.968 1.709,-1.707 6.835,-4.695 7.478,-6.616 0.641,-1.921 2.353,-10.89 6.839,-14.306 4.485,-3.414 4.7,-5.123 8.118,-7.256 3.417,-2.135 5.553,-2.988 9.825,-6.617 4.272,-3.629 9.833,-7.596 11.109,-11.1 0.855,-2.349 1.19,-5.15 3.421,-9.609 2.778,-5.551 12.821,-19.854 28.203,-36.077 15.382,-16.224 20.508,-17.93 26.062,-20.917 5.132,-2.76 16.445,-5.973 21.998,-6.397 5.552,-0.426 18.577,1.716 22.635,1.076 4.058,-0.638 6.621,-1.064 8.757,-3.2 2.137,-2.134 5.341,-4.694 10.467,-7.042 5.126,-2.347 34.6,-14.08 65.352,-14.068 23.917,0.011 43.4,5.219 46.123,6.853 3.202,1.924 10.461,7.265 10.459,12.391 -0.002,5.125 -1.926,10.676 -4.279,18.149 -1.604,5.099 -5.04,18.557 -1.296,34.595 2.345,10.037 6.831,11.32 7.682,17.514 0.851,6.193 -0.006,12.172 -5.56,18.363 -5.555,6.191 -17.117,12.298 -30.759,16.43 -10.164,3.079 -25.414,5.543 -26.696,5.755 -1.28,0.214 -4.057,1.706 -4.059,4.055 -0.001,2.35 3.631,0.856 4.698,1.497 1.068,0.642 5.124,3.846 -0.643,7.688 -5.768,3.841 -22.213,7.251 -29.687,8.743 -7.475,1.492 -19.434,3.623 -27.55,4.474 -8.115,0.85 -23.704,0.63 -23.704,0.63 0,0 7.473,1.925 11.742,7.265 4.268,5.342 -2.993,9.822 -2.993,9.822 0,0 7.686,2.78 6.617,5.983 2.563,-0.64 7.474,-1.277 13.667,-1.489 6.194,-0.21 15.376,-0.208 21.569,-0.418 6.194,-0.212 14.947,1.927 20.072,4.28 5.124,2.351 18.147,8.547 24.553,10.686 6.406,2.138 12.599,3.208 17.296,5.132 4.697,1.924 22.04,21.772 30.949,38.452 6.615,12.388 6.185,17.727 6.185,17.727 0,0 -3.211,14.947 -9.621,26.476 -4.274,7.686 -11.109,12.594 -13.886,15.584 -2.778,2.987 -4.702,6.616 -8.546,9.818 -3.846,3.202 -9.614,6.617 -12.176,7.256 -2.563,0.64 -5.98,1.279 -5.98,1.279 0,0 -20.077,10.242 -26.484,11.734 -6.408,1.493 -17.3,5.546 -19.222,6.398 -1.922,0.854 -13.455,2.558 -18.153,2.343 -4.698,-0.216 -11.744,-2.354 -11.744,-2.354 0,0 3.843,2.351 -1.069,2.989 1.28,1.922 4.695,7.049 0.21,9.396 5.979,-0.425 16.016,-0.848 20.927,-0.632 4.912,0.216 14.475,0.553 23.064,-0.631 5.506,-0.759 12.692,1.466 17.296,4.919 3.988,2.984 16.865,11.538 26.688,12.397 -1.921,-2.35 -4.483,-4.273 -3.199,-9.184 1.282,-4.912 5.342,-8.967 10.468,-11.314 5.126,-2.347 7.476,-4.482 28.617,-4.26 21.141,0.223 38.865,3.22 38.865,3.22 0,0 -7.256,-13.243 -10.453,-27.765 -3.197,-14.523 -3.62,-26.482 -3.83,-32.675 -0.211,-6.194 1.073,-15.374 1.076,-20.928 0.002,-5.551 -2.131,-12.172 -0.842,-29.897 1.288,-17.723 6.421,-36.301 20.739,-57.436 -5.34,1.493 -13.458,4.479 -28.19,2.552 -14.734,-1.928 -14.094,-0.434 -24.344,-2.573 -10.25,-2.14 -32.458,-5.992 -36.94,-9.412 -4.483,-3.418 -6.83,-9.399 -5.973,-15.804 0.857,-6.406 15.168,-14.302 27.769,-18.567 1.283,-3.631 2.993,-6.619 6.196,-8.114 3.204,-1.493 16.019,-7.039 22.854,-8.105 6.833,-1.064 11.104,1.072 12.597,3.21 4.485,0.856 23.918,-2.126 33.315,-2.763 9.397,-0.636 19.219,-1.701 32.458,1.721 13.24,3.423 17.082,7.055 19.643,8.124 2.563,1.068 14.733,5.345 19.644,5.986 4.912,0.644 8.756,1.073 11.746,-1.062 2.99,-2.134 5.982,-5.123 14.098,-8.323 8.116,-3.2 26.484,-9.385 37.802,-10.448 11.319,-1.062 27.119,0.866 33.952,3.43 6.833,2.566 10.463,3.422 15.8,4.279 5.34,0.856 12.174,0.432 18.154,-0.207 5.979,-0.638 30.751,-1.909 36.303,-2.761 5.553,-0.852 10.465,-1.491 16.444,-1.487 5.979,0.002 21.781,2.571 35.017,10.05 13.239,7.48 29.033,22.86 34.583,29.911"
       style="fill:none;stroke:#231f20;stroke-width:0.75;stroke-linecap:butt;stroke-linejoin:miter;stroke-miterlimit:4;stroke-dasharray:none;stroke-opacity:1"
       id="path896" />
    <path
       d="m 548.877,518.177 c 0.003,-4.911 2.995,-8.969 8.974,-8.965 5.98,0.002 8.326,4.488 8.325,8.759 -0.002,4.272 -2.993,7.687 -6.623,7.686 -3.631,-0.003 -10.677,-2.569 -10.676,-7.48"
       style="fill:#ffffff;fill-opacity:1;fill-rule:nonzero;stroke:none;stroke-width:0.1"
       id="path898" />
    <path
       d="m 548.877,518.177 c 0.003,-4.911 2.995,-8.969 8.974,-8.965 5.98,0.002 8.326,4.488 8.325,8.759 -0.002,4.272 -2.993,7.687 -6.623,7.686 -3.631,-0.003 -10.677,-2.569 -10.676,-7.48 z"
       style="fill:none;stroke:#231f20;stroke-width:0.75;stroke-linecap:butt;stroke-linejoin:miter;stroke-miterlimit:4;stroke-dasharray:none;stroke-opacity:1"
       id="path900" />
    <path
       d="m 509.17,490.614 c 10e-4,-4.059 4.273,-4.698 5.555,-4.697 1.28,0.001 4.27,0.642 4.268,3.847 -0.001,3.201 -2.564,4.696 -4.273,4.696 -1.707,-10e-4 -5.552,-1.497 -5.55,-3.846"
       style="fill:#ffffff;fill-opacity:1;fill-rule:nonzero;stroke:none;stroke-width:0.1"
       id="path902" />
    <path
       d="m 509.17,490.614 c 10e-4,-4.059 4.273,-4.698 5.555,-4.697 1.28,0.001 4.27,0.642 4.268,3.847 -0.001,3.201 -2.564,4.696 -4.273,4.696 -1.707,-10e-4 -5.552,-1.497 -5.55,-3.846 z"
       style="fill:none;stroke:#231f20;stroke-width:0.75;stroke-linecap:butt;stroke-linejoin:miter;stroke-miterlimit:4;stroke-dasharray:none;stroke-opacity:1"
       id="path904" />
    <path
       d="m 574.443,667.244 c 6.406,0.003 7.263,-4.695 7.264,-6.616 10e-4,-1.922 -1.919,-8.33 -5.549,-8.332 -3.631,-0.001 -6.837,4.269 -6.837,8.113 -0.002,3.843 2.986,6.835 5.122,6.835"
       style="fill:#ffffff;fill-opacity:1;fill-rule:nonzero;stroke:none;stroke-width:0.1"
       id="path906" />
    <path
       d="m 574.443,667.244 c 6.406,0.003 7.263,-4.695 7.264,-6.616 10e-4,-1.922 -1.919,-8.33 -5.549,-8.332 -3.631,-0.001 -6.837,4.269 -6.837,8.113 -0.002,3.843 2.986,6.835 5.122,6.835 z"
       style="fill:none;stroke:#231f20;stroke-width:0.75;stroke-linecap:butt;stroke-linejoin:miter;stroke-miterlimit:4;stroke-dasharray:none;stroke-opacity:1"
       id="path908" />
    <path
       d="m 518.272,687.294 c 1.068,-2.774 6.62,-1.705 8.115,-1.063 1.493,0.641 4.462,3.831 2.987,6.194 -2.137,3.415 -12.171,-2.354 -11.102,-5.131"
       style="fill:#ffffff;fill-opacity:1;fill-rule:nonzero;stroke:none;stroke-width:0.1"
       id="path910" />
    <path
       d="m 518.272,687.294 c 1.068,-2.774 6.62,-1.705 8.115,-1.063 1.493,0.641 4.462,3.831 2.987,6.194 -2.137,3.415 -12.171,-2.354 -11.102,-5.131 z"
       style="fill:none;stroke:#231f20;stroke-width:0.75;stroke-linecap:butt;stroke-linejoin:miter;stroke-miterlimit:4;stroke-dasharray:none;stroke-opacity:1"
       id="path912" />
    <path
       d="m 541.07,676.191 c 1.703,-2.438 -2.287,-6.443 -3.654,-7.324 -1.368,-0.88 -5.673,-1.558 -6.807,0.986 -1.637,3.682 8.756,8.776 10.461,6.338"
       style="fill:#ffffff;fill-opacity:1;fill-rule:nonzero;stroke:none;stroke-width:0.1"
       id="path914" />
    <path
       d="m 541.07,676.191 c 1.703,-2.438 -2.287,-6.443 -3.654,-7.324 -1.368,-0.88 -5.673,-1.558 -6.807,0.986 -1.637,3.682 8.756,8.776 10.461,6.338 z"
       style="fill:none;stroke:#231f20;stroke-width:0.75;stroke-linecap:butt;stroke-linejoin:miter;stroke-miterlimit:4;stroke-dasharray:none;stroke-opacity:1"
       id="path916" />
    <path
       d="m 503.889,523.127 c 1.55,2.538 6.819,0.489 8.175,-0.411 1.355,-0.898 3.703,-4.571 1.827,-6.63 -2.716,-2.976 -11.552,4.502 -10.002,7.041"
       style="fill:#ffffff;fill-opacity:1;fill-rule:nonzero;stroke:none;stroke-width:0.1"
       id="path918" />
    <path
       d="m 503.889,523.127 c 1.55,2.538 6.819,0.489 8.175,-0.411 1.355,-0.898 3.703,-4.571 1.827,-6.63 -2.716,-2.976 -11.552,4.502 -10.002,7.041 z"
       style="fill:none;stroke:#231f20;stroke-width:0.75;stroke-linecap:butt;stroke-linejoin:miter;stroke-miterlimit:4;stroke-dasharray:none;stroke-opacity:1"
       id="path920" />
    <path
       d="m 549.114,464.364 c 5.552,-1.28 33.959,-11.305 41.647,-12.797"
       style="fill:none;stroke:#231f20;stroke-width:0.75;stroke-linecap:butt;stroke-linejoin:miter;stroke-miterlimit:4;stroke-dasharray:none;stroke-opacity:1"
       id="path922" />
    <path
       d="m 638.964,592.743 53.173,0.022"
       style="fill:none;stroke:#231f20;stroke-width:0.75;stroke-linecap:butt;stroke-linejoin:miter;stroke-miterlimit:4;stroke-dasharray:none;stroke-opacity:1"
       id="path924" />
    <path
       d="m 535.136,698.407 c 7.261,1.924 24.771,6.416 35.232,11.118 4.357,1.964 8.64,3.594 17.768,7.569 10.009,4.355 20.757,9.258 26.429,10.601"
       style="fill:none;stroke:#231f20;stroke-width:0.75;stroke-linecap:butt;stroke-linejoin:miter;stroke-miterlimit:4;stroke-dasharray:none;stroke-opacity:1"
       id="path926" />
    <path
       d="m 510.414,676.503 c 0.596,-2.088 -7.286,-2.573 -11.632,-2.983 -4.345,-0.409 -5.589,0.075 -5.666,0.895 -0.078,0.82 1.041,1.665 5.386,2.074 4.347,0.41 11.315,2.101 11.912,0.014"
       style="fill:#ffffff;fill-opacity:1;fill-rule:nonzero;stroke:none;stroke-width:0.1"
       id="path928" />
    <path
       d="m 510.414,676.503 c 0.596,-2.088 -7.286,-2.573 -11.632,-2.983 -4.345,-0.409 -5.589,0.075 -5.666,0.895 -0.078,0.82 1.041,1.665 5.386,2.074 4.347,0.41 11.315,2.101 11.912,0.014 z"
       style="fill:none;stroke:#231f20;stroke-width:0.75;stroke-linecap:butt;stroke-linejoin:miter;stroke-miterlimit:4;stroke-dasharray:none;stroke-opacity:1"
       id="path930" />
    <path
       d="m 420.078,593.293 c 4.278,0.583 27.761,1.08 32.031,1.508 4.271,0.429 40.787,3.434 45.912,4.717 5.125,1.284 7.475,-1.491 7.475,-1.491 0,0 4.486,-6.619 1.499,-11.318 -2.988,-4.699 -6.619,-3.846 -9.822,-2.781 -3.204,1.067 -13.027,2.344 -17.513,2.984 -4.484,0.639 -21.995,1.058 -27.761,1.269 -5.766,0.212 -35.089,1.134 -42.497,2.331 -7.902,1.279 -21.355,-0.435 -21.996,1.059 1.068,1.282 13.814,-0.841 32.672,1.722"
       style="fill:#706d6e;fill-opacity:1;fill-rule:nonzero;stroke:none;stroke-width:0.1"
       id="path932" />
    <path
       d="m 420.078,593.293 c 4.278,0.583 27.761,1.08 32.031,1.508 4.271,0.429 40.787,3.434 45.912,4.717 5.125,1.284 7.475,-1.491 7.475,-1.491 0,0 4.486,-6.619 1.499,-11.318 -2.988,-4.699 -6.619,-3.846 -9.822,-2.781 -3.204,1.067 -13.027,2.344 -17.513,2.984 -4.484,0.639 -21.995,1.058 -27.761,1.269 -5.766,0.212 -35.089,1.134 -42.497,2.331 -7.902,1.279 -21.355,-0.435 -21.996,1.059 1.068,1.282 13.814,-0.841 32.672,1.722 z"
       style="fill:none;stroke:#231f20;stroke-width:0.75;stroke-linecap:butt;stroke-linejoin:miter;stroke-miterlimit:4;stroke-dasharray:none;stroke-opacity:1"
       id="path934" />
    <path
       d="m 392.174,536.524 c 0.223,2.447 2.481,2.592 4.65,2.092 5.553,-1.28 42.932,-21.551 42.932,-21.551"
       style="fill:none;stroke:#231f20;stroke-width:0.5;stroke-linecap:butt;stroke-linejoin:miter;stroke-miterlimit:4;stroke-dasharray:none;stroke-opacity:1"
       id="path936" />
    <path
       d="m 448.235,669.969 c -9.609,-2.353 -16.868,-5.773 -22.206,-8.552 -5.337,-2.778 -16.226,-9.189 -18.787,-10.898 -2.562,-1.71 -9.18,-6.197 -14.731,-9.402 -5.551,-3.206 -31.595,-23.931 -34.796,-30.765 -3.2,-6.835 -1.275,-14.309 1.289,-18.365 2.565,-4.057 9.189,-14.731 14.316,-20.281 5.128,-5.55 11.965,-13.877 13.674,-16.652 1.709,-2.774 3.494,-7.719 4.491,-16.655 0.429,-3.843 8.332,-10.031 11.324,-12.381 2.99,-2.348 18.583,-13.231 30.33,-14.936"
       style="fill:none;stroke:#231f20;stroke-width:0.5;stroke-linecap:butt;stroke-linejoin:miter;stroke-miterlimit:4;stroke-dasharray:none;stroke-opacity:1"
       id="path938" />
    <path
       d="m 322.552,433.519 c 3.632,-1.708 8.33,-2.985 11.106,-3.198 2.777,-0.213 6.407,-0.212 11.533,-4.053 5.127,-3.842 5.169,-7.525 5.986,-13.451 0.857,-6.193 -1.277,-12.813 3.64,-25.625"
       style="fill:none;stroke:#231f20;stroke-width:0.5;stroke-linecap:butt;stroke-linejoin:miter;stroke-miterlimit:4;stroke-dasharray:none;stroke-opacity:1"
       id="path940" />
    <path
       d="m 372.97,533.781 c 6.837,-7.472 10.194,-11.187 15.534,-15.456 5.34,-4.27 17.09,-14.728 18.799,-16.65 1.709,-1.92 7.477,-6.188 9.399,-6.828"
       style="fill:none;stroke:#231f20;stroke-width:0.5;stroke-linecap:butt;stroke-linejoin:miter;stroke-miterlimit:4;stroke-dasharray:none;stroke-opacity:1"
       id="path942" />
    <path
       d="m 379.966,508.072 c 5.767,-3.202 17.301,-8.962 22.854,-10.456 5.553,-1.492 17.085,-3.622 21.57,-3.621"
       style="fill:none;stroke:#231f20;stroke-width:0.5;stroke-linecap:butt;stroke-linejoin:miter;stroke-miterlimit:4;stroke-dasharray:none;stroke-opacity:1"
       id="path944" />
    <path
       d="m 616.792,508.168 c 4.271,-4.695 10.896,-14.517 15.808,-16.65 4.912,-2.133 6.836,-5.763 23.707,-8.318 16.871,-2.556 31.179,-1.056 41.002,-1.051 9.823,0.004 17.725,-0.419 25.626,-0.63 7.901,-0.211 21.783,-2.981 27.335,-3.832 5.553,-0.853 11.14,-2.378 26.482,-3.407 15.803,-1.061 28.403,-1.056 38.653,-0.41 10.249,0.644 20.874,-0.12 23.917,-0.418 4.271,-0.424 11.532,-3.625 20.718,-8.534 9.183,-4.908 21.572,-10.455 35.025,-9.168 13.453,1.288 21.992,10.686 25.619,15.387 4.096,5.307 16.865,14.528 21.133,19.014 4.27,4.486 8.325,10.039 8.325,10.039"
       style="fill:none;stroke:#231f20;stroke-width:0.5;stroke-linecap:butt;stroke-linejoin:miter;stroke-miterlimit:4;stroke-dasharray:none;stroke-opacity:1"
       id="path946" />
    <path
       d="m 587.961,510.72 c 7.262,-4.696 27.553,-14.298 41.221,-16.854"
       style="fill:none;stroke:#231f20;stroke-width:0.5;stroke-linecap:butt;stroke-linejoin:miter;stroke-miterlimit:4;stroke-dasharray:none;stroke-opacity:1"
       id="path948" />
    <path
       d="m 740.225,501.386 c 0.867,-3.47 8.116,-5.122 10.252,-5.335 2.135,-0.212 6.406,0.002 10.248,3.208 3.844,3.204 7.897,10.68 1.488,17.511 -6.41,6.832 -12.812,-1.072 -15.16,-2.568 -2.349,-1.495 -5.125,-4.274 -5.977,-6.836 -0.853,-2.563 -1.28,-4.272 -0.851,-5.98 z"
       style="fill:none;stroke:#231f20;stroke-width:0.5;stroke-linecap:butt;stroke-linejoin:miter;stroke-miterlimit:4;stroke-dasharray:none;stroke-opacity:1"
       id="path950" />
    <path
       d="m 705.858,464.214 c 11.746,-0.635 15.804,-3.197 28.832,-5.54 13.027,-2.343 27.123,-6.181 34.597,-6.178 7.474,0.002 13.026,1.926 20.927,1.717 7.902,-0.211 19.647,-1.701 19.647,-1.701"
       style="fill:none;stroke:#231f20;stroke-width:0.5;stroke-linecap:butt;stroke-linejoin:miter;stroke-miterlimit:4;stroke-dasharray:none;stroke-opacity:1"
       id="path952" />
    <path
       d="m 702.85,507.35 c -2.361,-1.689 -2.986,-6.194 -3.199,-8.117 -0.213,-1.921 0.429,-4.696 2.564,-4.91 2.136,-0.213 7.477,-2.346 11.319,0.433 3.842,2.778 5.976,6.835 2.558,11.106 -2.564,3.201 -11.747,2.556 -13.242,1.488 z"
       style="fill:none;stroke:#231f20;stroke-width:0.5;stroke-linecap:butt;stroke-linejoin:miter;stroke-miterlimit:4;stroke-dasharray:none;stroke-opacity:1"
       id="path954" />
    <path
       d="m 682.573,485.346 c 5.978,1.283 24.982,5.349 32.244,5.352"
       style="fill:none;stroke:#231f20;stroke-width:0.5;stroke-linecap:butt;stroke-linejoin:miter;stroke-miterlimit:4;stroke-dasharray:none;stroke-opacity:1"
       id="path956" />
    <path
       d="m 666.556,486.834 c 3.417,1.07 14.52,4.491 19.644,5.347"
       style="fill:none;stroke:#231f20;stroke-width:0.5;stroke-linecap:butt;stroke-linejoin:miter;stroke-miterlimit:4;stroke-dasharray:none;stroke-opacity:1"
       id="path958" />
    <path
       d="m 691.1,519.517 c -3.633,6.405 -9.612,8.325 -18.582,7.467 -8.969,-0.859 -17.293,-7.482 -22.415,-14.743 -1.921,-2.565 -3.841,-5.983 -3.841,-5.983 0,0 1.068,-2.134 5.553,-4.481 3.832,-2.007 12.814,-4.693 17.301,-5.545 4.484,-0.852 11.531,-1.704 15.162,-2.556 3.631,-0.853 5.98,-1.281 8.97,-1.279 2.989,0.002 6.192,1.498 7.686,2.353"
       style="fill:none;stroke:#231f20;stroke-width:0.5;stroke-linecap:butt;stroke-linejoin:miter;stroke-miterlimit:4;stroke-dasharray:none;stroke-opacity:1"
       id="path960" />
    <path
       d="m 634.274,575.016 c 3.205,-5.123 11.111,-13.662 12.819,-14.73 1.709,-1.067 5.554,-4.695 7.476,-2.986 0.426,3.203 2.559,6.62 5.121,8.544 2.562,1.924 10.033,8.547 8.323,13.031 -1.71,4.483 -5.98,3.626 -9.611,4.053 -3.631,0.425 -11.96,0.422 -14.308,0.42 -2.349,-10e-4 -4.697,-1.496 -6.191,-3.419 -1.494,-1.923 -3.629,-4.913 -3.629,-4.913 0,0 -4.27,-1.496 -6.618,-4.273 -2.349,-2.778 -5.549,-8.33 -3.624,-13.668 1.924,-5.338 4.781,-8.62 5.556,-12.171 1.071,-4.911 1.073,-9.396 -0.422,-11.745 -1.494,-2.35 -2.56,-5.34 -2.56,-7.262 0.002,-1.922 1.497,-4.482 2.779,-5.979 1.283,-1.494 3.418,-4.481 6.196,-4.695 2.775,-0.213 9.394,2.141 12.597,3.636 3.202,1.497 5.551,3.206 7.686,6.623 2.133,3.418 6.402,9.399 6.187,12.602 -0.217,3.204 -0.217,3.416 -2.566,6.405 -2.35,2.99 -4.914,6.832 -4.916,12.811"
       style="fill:none;stroke:#231f20;stroke-width:0.5;stroke-linecap:butt;stroke-linejoin:miter;stroke-miterlimit:4;stroke-dasharray:none;stroke-opacity:1"
       id="path962" />
    <path
       d="m 688.991,697.204 c 1.709,-1.921 1.824,-4.499 -1.379,-4.287 -3.203,0.212 -36.946,5.75 -41.003,5.536 -4.058,-0.216 -6.62,0.637 -9.822,-2.141 -3.203,-2.776 -12.808,-13.244 -18.143,-21.575 -5.335,-8.331 -9.389,-16.661 -10.882,-21.36 -1.492,-4.698 -5.332,-18.153 -6.183,-23.706 -0.853,-5.553 -1.063,-13.454 1.289,-20.073 2.352,-6.619 4.275,-8.754 4.49,-12.811 0.215,-4.057 -1.706,-6.193 -3.199,-9.184 -1.494,-2.989 -2.559,-9.824 -2.129,-16.657 0.43,-6.834 3.854,-25.625 7.488,-33.097 3.633,-7.472 12.818,-14.73 16.877,-17.718 4.059,-2.988 8.332,-7.683 9.401,-10.886 1.07,-3.203 4.7,-4.484 6.408,-4.27 1.709,0.215 4.484,1.498 4.484,1.498"
       style="fill:none;stroke:#231f20;stroke-width:0.5;stroke-linecap:butt;stroke-linejoin:miter;stroke-miterlimit:4;stroke-dasharray:none;stroke-opacity:1"
       id="path964" />
    <path
       d="m 635.114,610.039 c 3.416,3.205 12.596,9.401 13.877,10.042 1.281,0.641 2.562,0.641 3.843,-0.853 1.283,-1.494 11.744,-10.231 14.315,-15.369 1.282,-2.563 2.564,-5.124 -0.426,-5.767 -2.988,-0.641 -7.473,-1.497 -14.521,1.277 -7.048,2.772 -17.088,10.029 -19.653,13.444 -2.562,3.416 -5.134,9.428 -5.769,12.598 -0.428,2.135 1.492,4.698 1.277,7.047 -0.215,2.349 -0.43,5.552 0.423,10.892 0.852,5.338 3.199,11.105 2.769,16.657 -0.429,5.552 1.917,10.251 4.48,11.533 2.563,1.283 6.405,2.139 8.757,-1.277 2.349,-3.416 3.632,-5.123 7.692,-12.383 4.061,-7.258 8.763,-17.72 8.764,-19.429 0,-1.708 -2.133,-4.912 -5.123,-6.835 -2.989,-1.924 -6.832,-4.274 -7.044,-7.05 -0.212,-2.777 0.216,-4.699 0.216,-4.699"
       style="fill:none;stroke:#231f20;stroke-width:0.5;stroke-linecap:butt;stroke-linejoin:miter;stroke-miterlimit:4;stroke-dasharray:none;stroke-opacity:1"
       id="path966" />
    <path
       d="m 692.741,685.231 c 0.002,-4.698 3.42,-6.191 4.914,-7.045 1.495,-0.853 8.543,-1.064 11.531,2.781 2.987,3.845 2.346,6.408 0.21,8.115 -2.137,1.707 -5.761,3.594 -11.106,2.772 -2.776,-0.429 -5.551,-2.779 -5.549,-6.623 z"
       style="fill:none;stroke:#231f20;stroke-width:0.5;stroke-linecap:butt;stroke-linejoin:miter;stroke-miterlimit:4;stroke-dasharray:none;stroke-opacity:1"
       id="path968" />
    <path
       d="m 716.149,691.007 c -5.338,-0.003 -22.772,4.475 -27.685,6.395 -4.912,1.92 -12.386,4.479 -18.155,8.748 -5.767,4.268 -9.61,4.267 -15.164,3.838 -5.551,-0.43 -10.81,-1.073 -19.215,-6.629 -10.675,-7.051 -19.211,-19.013 -25.828,-26.49"
       style="fill:none;stroke:#231f20;stroke-width:0.5;stroke-linecap:butt;stroke-linejoin:miter;stroke-miterlimit:4;stroke-dasharray:none;stroke-opacity:1"
       id="path970" />
    <path
       d="m 631.518,690.905 c 4.273,-4.696 11.897,-14.877 17.024,-18.719 5.126,-3.841 19.009,-10.029 27.976,-3.618"
       style="fill:none;stroke:#231f20;stroke-width:0.5;stroke-linecap:butt;stroke-linejoin:miter;stroke-miterlimit:4;stroke-dasharray:none;stroke-opacity:1"
       id="path972" />
    <path
       d="m 742.478,732.66 c -1.067,-3.632 -3.626,-11.736 -4.265,-16.22"
       style="fill:none;stroke:#231f20;stroke-width:0.5;stroke-linecap:butt;stroke-linejoin:miter;stroke-miterlimit:4;stroke-dasharray:none;stroke-opacity:1"
       id="path974" />
    <path
       d="m 712.162,714.709 c 3.418,-4.697 13.029,-6.741 25.838,1.505 8.967,5.77 56.798,12.837 56.798,12.837"
       style="fill:none;stroke:#231f20;stroke-width:0.5;stroke-linecap:butt;stroke-linejoin:miter;stroke-miterlimit:4;stroke-dasharray:none;stroke-opacity:1"
       id="path976" />
    <path
       d="m 733.604,691.161 c 7.898,7.904 29.172,15.24 32.161,16.309 2.989,1.07 20.712,6.843 28.826,7.486 8.115,0.645 16.016,0.007 24.13,0.865 8.115,0.857 16.588,3.43 24.341,8.551 7.767,5.129 17.72,11.113 20.282,12.395 2.563,1.281 9.608,4.701 12.811,5.344 3.203,0.642 8.328,-0.211 12.387,-0.849 4.056,-0.64 12.599,-1.703 14.949,-2.13 2.348,-0.425 11.553,-3.045 21.144,-9.814 10.895,-7.684 17.946,-16.863 24.783,-26.897"
       style="fill:none;stroke:#231f20;stroke-width:0.5;stroke-linecap:butt;stroke-linejoin:miter;stroke-miterlimit:4;stroke-dasharray:none;stroke-opacity:1"
       id="path978" />
    <path
       d="m 715.801,690.366 c -1.179,-2.516 0.43,-4.698 2.353,-6.192 1.923,-1.494 15.594,-11.312 18.798,-12.592 3.203,-1.279 7.902,-2.559 10.037,-1.49 2.135,1.069 3.201,3.418 2.986,7.048 -0.215,3.63 -10.469,11.741 -16.235,13.874 -5.767,2.133 -16.231,2.983 -17.939,-0.648 z"
       style="fill:none;stroke:#231f20;stroke-width:0.5;stroke-linecap:butt;stroke-linejoin:miter;stroke-miterlimit:4;stroke-dasharray:none;stroke-opacity:1"
       id="path980" />
    <path
       d="m 728.226,597.691 c 19.859,0.649 173.612,5.197 178.524,5.199 4.912,0.002 13.454,-0.635 15.589,-0.848 2.135,-0.212 5.126,-0.425 5.768,-4.269 0.642,-3.843 0.216,-7.046 -0.424,-8.541 -0.639,-1.495 -2.135,-3.204 -5.765,-3.419 -3.629,-0.216 -15.374,-1.074 -20.712,-1.291 -5.34,-0.215 -172.332,-5.409 -172.332,-5.409"
       style="fill:none;stroke:#231f20;stroke-width:0.5;stroke-linecap:butt;stroke-linejoin:miter;stroke-miterlimit:4;stroke-dasharray:none;stroke-opacity:1"
       id="path982" />
    <path
       d="m 753.609,668.6 c 0.003,-6.834 5.132,-15.373 15.595,-14.729 10.464,0.646 26.91,8.126 23.694,23.714 -2.995,14.52 -22.68,9.346 -29.044,5.113 -4.584,-3.045 -10.248,-7.265 -10.245,-14.098 z"
       style="fill:none;stroke:#231f20;stroke-width:0.5;stroke-linecap:butt;stroke-linejoin:miter;stroke-miterlimit:4;stroke-dasharray:none;stroke-opacity:1"
       id="path984" />
    <path
       d="m 617.512,685.627 c -16.656,-0.22 -32.111,-6.857 -35.74,-11.557"
       style="fill:none;stroke:#231f20;stroke-width:0.5;stroke-linecap:butt;stroke-linejoin:miter;stroke-miterlimit:4;stroke-dasharray:none;stroke-opacity:1"
       id="path986" />
    <path
       d="m 447.166,672.958 c -4.913,0.852 -12.814,1.062 -17.511,-0.435 -4.697,-1.497 -25.194,-9.754 -37.785,-31.754"
       style="fill:none;stroke:#231f20;stroke-width:0.5;stroke-linecap:butt;stroke-linejoin:miter;stroke-miterlimit:4;stroke-dasharray:none;stroke-opacity:1"
       id="path988" />
    <path
       d="m 351.514,629.354 c 5.765,3.206 14.946,8.762 16.44,10.044 1.494,1.282 11.1,8.547 13.448,11.751 2.348,3.205 12.594,13.031 16.863,16.877 4.27,3.846 15.371,12.392 19.855,14.316 4.483,1.925 21.994,2.145 29.256,0.012"
       style="fill:none;stroke:#231f20;stroke-width:0.5;stroke-linecap:butt;stroke-linejoin:miter;stroke-miterlimit:4;stroke-dasharray:none;stroke-opacity:1"
       id="path990" />
    <path
       d="m 418.12,682.342 c -4.699,-0.002 -16.442,-3.424 -16.442,-3.424 -8.968,-3.848 -16.012,-9.189 -16.012,-9.189 0,0 9.822,1.072 12.384,2.355 2.563,1.282 4.91,3.418 6.832,4.06 1.922,0.641 6.201,1.924 6.201,1.924"
       style="fill:none;stroke:#231f20;stroke-width:0.5;stroke-linecap:butt;stroke-linejoin:miter;stroke-miterlimit:4;stroke-dasharray:none;stroke-opacity:1"
       id="path992" />
    <path
       d="m 351.45,785.292 c -1.278,-7.688 0.65,-22.683 0.011,-25.673 -0.639,-2.99 -2.133,-5.553 -5.336,-6.836 -3.203,-1.283 -19.498,-5.133 -21.633,-5.988"
       style="fill:none;stroke:#231f20;stroke-width:0.5;stroke-linecap:butt;stroke-linejoin:miter;stroke-miterlimit:4;stroke-dasharray:none;stroke-opacity:1"
       id="path994" />
    <path
       d="m 697.082,503.163 c 0.305,-0.002 0.557,0.243 0.559,0.55 0.004,0.307 -0.243,0.557 -0.55,0.559 -0.305,0.003 -0.557,-0.242 -0.56,-0.55 -0.002,-0.307 0.244,-0.556 0.551,-0.559"
       style="fill:#231f20;fill-opacity:1;fill-rule:nonzero;stroke:none;stroke-width:0.1"
       id="path996" />
    <path
       d="m 697.082,503.163 c 0.305,-0.002 0.557,0.243 0.559,0.55 0.004,0.307 -0.243,0.557 -0.55,0.559 -0.305,0.003 -0.557,-0.242 -0.56,-0.55 -0.002,-0.307 0.244,-0.556 0.551,-0.559 z"
       style="fill:none;stroke:#231f20;stroke-width:0.5;stroke-linecap:butt;stroke-linejoin:miter;stroke-miterlimit:4;stroke-dasharray:none;stroke-opacity:1"
       id="path998" />
    <path
       d="m 700.5,499.534 c 0.307,-0.002 0.557,0.244 0.561,0.55 0.002,0.306 -0.244,0.557 -0.551,0.559 -0.306,0.004 -0.558,-0.242 -0.56,-0.55 -0.003,-0.306 0.244,-0.557 0.55,-0.559"
       style="fill:#231f20;fill-opacity:1;fill-rule:nonzero;stroke:none;stroke-width:0.1"
       id="path1000" />
    <path
       d="m 700.5,499.534 c 0.307,-0.002 0.557,0.244 0.561,0.55 0.002,0.306 -0.244,0.557 -0.551,0.559 -0.306,0.004 -0.558,-0.242 -0.56,-0.55 -0.003,-0.306 0.244,-0.557 0.55,-0.559 z"
       style="fill:none;stroke:#231f20;stroke-width:0.5;stroke-linecap:butt;stroke-linejoin:miter;stroke-miterlimit:4;stroke-dasharray:none;stroke-opacity:1"
       id="path1002" />
    <path
       d="m 690.813,688.947 c 0.307,-0.003 0.556,0.243 0.559,0.55 0.002,0.307 -0.243,0.557 -0.55,0.56 -0.307,0.003 -0.557,-0.244 -0.56,-0.551 -0.002,-0.306 0.243,-0.557 0.551,-0.559"
       style="fill:#231f20;fill-opacity:1;fill-rule:nonzero;stroke:none;stroke-width:0.1"
       id="path1004" />
    <path
       d="m 690.813,688.947 c 0.307,-0.003 0.556,0.243 0.559,0.55 0.002,0.307 -0.243,0.557 -0.55,0.56 -0.307,0.003 -0.557,-0.244 -0.56,-0.551 -0.002,-0.306 0.243,-0.557 0.551,-0.559 z"
       style="fill:none;stroke:#231f20;stroke-width:0.5;stroke-linecap:butt;stroke-linejoin:miter;stroke-miterlimit:4;stroke-dasharray:none;stroke-opacity:1"
       id="path1006" />
    <path
       d="m 687.396,687.664 c 0.307,-0.002 0.558,0.243 0.561,0.55 0.003,0.307 -0.245,0.557 -0.55,0.56 -0.307,0.003 -0.559,-0.243 -0.561,-0.55 -0.003,-0.307 0.244,-0.558 0.55,-0.56"
       style="fill:#231f20;fill-opacity:1;fill-rule:nonzero;stroke:none;stroke-width:0.1"
       id="path1008" />
    <path
       d="m 687.396,687.664 c 0.307,-0.002 0.558,0.243 0.561,0.55 0.003,0.307 -0.245,0.557 -0.55,0.56 -0.307,0.003 -0.559,-0.243 -0.561,-0.55 -0.003,-0.307 0.244,-0.558 0.55,-0.56 z"
       style="fill:none;stroke:#231f20;stroke-width:0.5;stroke-linecap:butt;stroke-linejoin:miter;stroke-miterlimit:4;stroke-dasharray:none;stroke-opacity:1"
       id="path1010" />
    <path
       d="m 689.534,682.967 c 0.306,-0.003 0.556,0.243 0.56,0.55 0.002,0.306 -0.244,0.558 -0.552,0.56 -0.305,0.003 -0.557,-0.243 -0.559,-0.55 -0.003,-0.307 0.244,-0.558 0.551,-0.56"
       style="fill:#231f20;fill-opacity:1;fill-rule:nonzero;stroke:none;stroke-width:0.1"
       id="path1012" />
    <path
       d="m 689.534,682.967 c 0.306,-0.003 0.556,0.243 0.56,0.55 0.002,0.306 -0.244,0.558 -0.552,0.56 -0.305,0.003 -0.557,-0.243 -0.559,-0.55 -0.003,-0.307 0.244,-0.558 0.551,-0.56 z"
       style="fill:none;stroke:#231f20;stroke-width:0.5;stroke-linecap:butt;stroke-linejoin:miter;stroke-miterlimit:4;stroke-dasharray:none;stroke-opacity:1"
       id="path1014" />
    <path
       d="m 692.739,678.056 c 0.306,-0.002 0.556,0.244 0.56,0.55 0.002,0.308 -0.244,0.558 -0.55,0.56 -0.307,0.003 -0.558,-0.243 -0.561,-0.55 -0.002,-0.306 0.244,-0.557 0.551,-0.56"
       style="fill:#231f20;fill-opacity:1;fill-rule:nonzero;stroke:none;stroke-width:0.1"
       id="path1016" />
    <path
       d="m 692.739,678.056 c 0.306,-0.002 0.556,0.244 0.56,0.55 0.002,0.308 -0.244,0.558 -0.55,0.56 -0.307,0.003 -0.558,-0.243 -0.561,-0.55 -0.002,-0.306 0.244,-0.557 0.551,-0.56 z"
       style="fill:none;stroke:#231f20;stroke-width:0.5;stroke-linecap:butt;stroke-linejoin:miter;stroke-miterlimit:4;stroke-dasharray:none;stroke-opacity:1"
       id="path1018" />
    <path
       d="m 695.086,681.474 c 0.307,-0.002 0.558,0.244 0.56,0.55 0.003,0.308 -0.243,0.558 -0.55,0.56 -0.306,0.003 -0.558,-0.243 -0.56,-0.55 -0.002,-0.306 0.244,-0.557 0.55,-0.56"
       style="fill:#231f20;fill-opacity:1;fill-rule:nonzero;stroke:none;stroke-width:0.1"
       id="path1020" />
    <path
       d="m 695.086,681.474 c 0.307,-0.002 0.558,0.244 0.56,0.55 0.003,0.308 -0.243,0.558 -0.55,0.56 -0.306,0.003 -0.558,-0.243 -0.56,-0.55 -0.002,-0.306 0.244,-0.557 0.55,-0.56 z"
       style="fill:none;stroke:#231f20;stroke-width:0.5;stroke-linecap:butt;stroke-linejoin:miter;stroke-miterlimit:4;stroke-dasharray:none;stroke-opacity:1"
       id="path1022" />
    <path
       d="m 685.263,682.538 c 0.306,-0.002 0.557,0.244 0.56,0.55 0.002,0.307 -0.244,0.558 -0.551,0.56 -0.307,0.003 -0.557,-0.243 -0.56,-0.55 -0.002,-0.306 0.244,-0.558 0.551,-0.56"
       style="fill:#231f20;fill-opacity:1;fill-rule:nonzero;stroke:none;stroke-width:0.1"
       id="path1024" />
    <path
       d="m 685.263,682.538 c 0.306,-0.002 0.557,0.244 0.56,0.55 0.002,0.307 -0.244,0.558 -0.551,0.56 -0.307,0.003 -0.557,-0.243 -0.56,-0.55 -0.002,-0.306 0.244,-0.558 0.551,-0.56 z"
       style="fill:none;stroke:#231f20;stroke-width:0.5;stroke-linecap:butt;stroke-linejoin:miter;stroke-miterlimit:4;stroke-dasharray:none;stroke-opacity:1"
       id="path1026" />
    <path
       d="m 698.901,714.081 c 7.754,-4.772 14.017,-11.631 41.753,-2.684 27.736,8.947 41.511,13.76 49.088,16.871 0,0 15.034,-4.644 33.226,1.918 18.193,6.561 40.263,17.596 54.876,19.087 14.614,1.492 30.067,-2.68 44.559,-9.094"
       style="fill:none;stroke:#231f20;stroke-width:0.5;stroke-linecap:butt;stroke-linejoin:miter;stroke-miterlimit:4;stroke-dasharray:none;stroke-opacity:1"
       id="path1028" />
    <path
       d="m 755.566,715.389 c 0,-0.723 -1.175,-1.308 -2.624,-1.308 -1.449,0 -2.624,0.585 -2.624,1.308 0,0.722 1.175,1.308 2.624,1.308 1.449,0 2.624,-0.586 2.624,-1.308"
       style="fill:#ffffff;fill-opacity:1;fill-rule:nonzero;stroke:none;stroke-width:0.1"
       id="path1030" />
    <path
       d="m 755.566,715.389 c 0,-0.723 -1.175,-1.308 -2.624,-1.308 -1.449,0 -2.624,0.585 -2.624,1.308 0,0.722 1.175,1.308 2.624,1.308 1.449,0 2.624,-0.586 2.624,-1.308 z"
       style="fill:none;stroke:#231f20;stroke-width:0.5;stroke-linecap:butt;stroke-linejoin:miter;stroke-miterlimit:4;stroke-dasharray:none;stroke-opacity:1"
       id="path1032" />
    <path
       d="m 838.477,735.328 c 0,-1.028 -1.027,-1.861 -2.295,-1.861 -1.266,0 -2.293,0.833 -2.293,1.861 0,1.028 1.027,1.862 2.293,1.862 1.268,0 2.295,-0.834 2.295,-1.862"
       style="fill:#ffffff;fill-opacity:1;fill-rule:nonzero;stroke:none;stroke-width:0.1"
       id="path1034" />
    <path
       d="m 838.477,735.328 c 0,-1.028 -1.027,-1.861 -2.295,-1.861 -1.266,0 -2.293,0.833 -2.293,1.861 0,1.028 1.027,1.862 2.293,1.862 1.268,0 2.295,-0.834 2.295,-1.862 z"
       style="fill:none;stroke:#231f20;stroke-width:0.5;stroke-linecap:butt;stroke-linejoin:miter;stroke-miterlimit:4;stroke-dasharray:none;stroke-opacity:1"
       id="path1036" />
    <path
       d="m 693.248,492.397 c 9.866,-0.119 20.162,0.961 25.038,-1.101 3.519,-1.488 4.474,-7.456 -0.895,-9.544"
       style="fill:none;stroke:#231f20;stroke-width:0.5;stroke-linecap:butt;stroke-linejoin:miter;stroke-miterlimit:4;stroke-dasharray:none;stroke-opacity:1"
       id="path1038" />
    <path
       d="m 692.443,463.734 c 9.44,3.106 15.405,5.194 24.948,3.405 9.544,-1.789 29.488,-6.25 39.032,-7.144 9.544,-0.896 17.931,-0.931 23.3,-1.207 11.631,-0.596 13.93,-4.659 17.852,-5.006 0,0 7.499,5.006 14.955,5.901 7.456,0.895 25.052,-0.597 36.087,-2.386 11.034,-1.789 35.413,-5.507 43.057,-7.972"
       style="fill:none;stroke:#231f20;stroke-width:0.5;stroke-linecap:butt;stroke-linejoin:miter;stroke-miterlimit:4;stroke-dasharray:none;stroke-opacity:1"
       id="path1040" />
    <path
       d="m 845.038,458.155 c 0,-1.297 -1.071,-2.35 -2.391,-2.35 -1.32,0 -2.391,1.053 -2.391,2.35 0,1.297 1.071,2.347 2.391,2.347 1.32,0 2.391,-1.05 2.391,-2.347"
       style="fill:#ffffff;fill-opacity:1;fill-rule:nonzero;stroke:none;stroke-width:0.1"
       id="path1042" />
    <path
       d="m 845.038,458.155 c 0,-1.297 -1.071,-2.35 -2.391,-2.35 -1.32,0 -2.391,1.053 -2.391,2.35 0,1.297 1.071,2.347 2.391,2.347 1.32,0 2.391,-1.05 2.391,-2.347 z"
       style="fill:none;stroke:#231f20;stroke-width:0.5;stroke-linecap:butt;stroke-linejoin:miter;stroke-miterlimit:4;stroke-dasharray:none;stroke-opacity:1"
       id="path1044" />
    <path
       d="m 515.126,548.487 c 2.776,0.002 3.627,5.127 3.626,7.689 -10e-4,2.563 2.766,26.696 -2.146,26.694 -4.912,-0.002 -3.834,-24.133 -3.833,-26.482 10e-4,-2.349 0.217,-7.902 2.353,-7.901 z"
       style="fill:none;stroke:#231f20;stroke-width:0.5;stroke-linecap:round;stroke-linejoin:round;stroke-miterlimit:4;stroke-dasharray:2.8, 1.8;stroke-dashoffset:0;stroke-opacity:1"
       id="path1046" />
    <path
       d="m 501.25,534.387 c 6.193,0.003 7.899,5.129 8.965,10.681 1.066,5.554 1.271,25.413 -3.854,26.052 -5.126,0.638 -14.445,-8.395 -16.008,-20.934 -0.878,-7.048 4.705,-15.801 10.897,-15.799 z"
       style="fill:none;stroke:#231f20;stroke-width:0.5;stroke-linecap:round;stroke-linejoin:round;stroke-miterlimit:4;stroke-dasharray:2.8, 1.8;stroke-dashoffset:0;stroke-opacity:1"
       id="path1048" />
    <path
       d="m 480.303,582.427 c -1.066,-2.776 1.924,-5.339 1.713,-9.395 -0.213,-4.057 -2.13,-15.162 -2.13,-16.445 10e-4,-1.281 1.71,-3.842 4.486,-1.279 2.108,1.949 9.175,15.593 10.67,18.796 1.493,3.205 0.638,4.484 -2.139,6.406 -2.776,1.922 -11.92,3.698 -12.6,1.917 z"
       style="fill:none;stroke:#231f20;stroke-width:0.5;stroke-linecap:round;stroke-linejoin:round;stroke-miterlimit:4;stroke-dasharray:2.8, 1.8;stroke-dashoffset:0;stroke-opacity:1"
       id="path1050" />
    <path
       d="m 495.858,664.009 c 3.846,-2.988 13.03,-8.75 22.853,-9.6"
       style="fill:none;stroke:#231f20;stroke-width:0.5;stroke-linecap:round;stroke-linejoin:round;stroke-miterlimit:4;stroke-dasharray:2.8, 1.8;stroke-dashoffset:0;stroke-opacity:1"
       id="path1052" />
    <path
       d="m 363.91,606.297 c -2.208,-2.323 1.284,-6.193 2.778,-6.833 1.496,-0.64 10.787,-4.547 13.241,-2.771 3.223,2.331 1.708,3.632 0.212,5.126 -1.495,1.493 -12.176,8.75 -16.231,4.478 z"
       style="fill:none;stroke:#231f20;stroke-width:0.5;stroke-linecap:round;stroke-linejoin:round;stroke-miterlimit:4;stroke-dasharray:2.8, 1.8;stroke-dashoffset:0;stroke-opacity:1"
       id="path1054" />
    <path
       d="m 368.189,586.651 c -1.173,-3.537 3.205,-4.695 5.127,-5.336 1.922,-0.641 6.834,-1.492 9.396,1.285 2.561,2.777 -0.43,4.484 -2.992,5.552 -2.563,1.066 -10.038,2.985 -11.531,-1.501 z"
       style="fill:none;stroke:#231f20;stroke-width:0.5;stroke-linecap:round;stroke-linejoin:round;stroke-miterlimit:4;stroke-dasharray:2.8, 1.8;stroke-dashoffset:0;stroke-opacity:1"
       id="path1056" />
    <path
       d="m 339.412,458.725 c -1.366,2.315 1.921,4.273 2.133,5.981 0.213,1.708 -0.214,3.095 -0.642,5.017 -0.428,1.922 2.455,0.641 3.523,0.002 1.069,-0.641 2.884,-0.534 2.458,-3.096 -0.426,-2.562 -2.989,-2.563 -3.202,-4.273 -0.213,-1.707 1.283,-5.123 1.283,-5.123"
       style="fill:none;stroke:#231f20;stroke-width:0.5;stroke-linecap:round;stroke-linejoin:round;stroke-miterlimit:4;stroke-dasharray:2.8, 1.8;stroke-dashoffset:0;stroke-opacity:1"
       id="path1058" />
    <path
       d="m 302.529,461.114 c 2.777,-1.92 7.202,-5.818 9.337,-5.817 2.136,0 5.186,0.409 7.688,-0.211 4.272,-1.066 3.42,-5.978 5.555,-6.404 2.136,-0.427 2.774,4.912 5.123,5.341 2.349,0.429 8.007,0.323 13.134,-3.305 0.428,-1.28 -4.804,-1.817 -4.376,-4.38 0.428,-2.561 3.419,-2.987 6.835,-3.413 3.417,-0.427 5.553,0.429 10.679,-3.413 5.127,-3.841 9.401,-9.819 11.324,-14.516 1.924,-4.697 0.004,-9.183 3.211,-19.432 3.208,-10.249 9.403,-14.73 14.315,-18.146 4.914,-3.414 19.652,-11.951 42.719,-20.269 23.066,-8.319 81.797,-20.039 89.272,-20.678 7.473,-0.637 7.473,0.432 7.686,1.926 0.213,1.495 -2.777,2.561 -7.262,3.201 -4.485,0.638 -29.898,4.045 -61.293,12.147 -31.395,8.101 -57.58,19.275 -72.193,33.497 -8.118,7.897 -8.977,18.788 -9.62,24.553 -0.642,5.766 -5.64,18.243 -12.395,22.846 -4.7,3.2 -13.241,2.557 -14.737,3.838 -1.495,1.279 0.64,3.843 -0.643,6.191 -1.282,2.348 -2.991,4.485 -7.476,4.055 -4.484,-0.43 -10.529,-2.293 -13.452,-1.714 -2.837,0.56 -2.831,3.603 -6.195,2.987 -4.697,-0.855 -7.901,1.065 -11.533,4.48"
       style="fill:none;stroke:#231f20;stroke-width:0.5;stroke-linecap:round;stroke-linejoin:round;stroke-miterlimit:4;stroke-dasharray:2.8, 1.8;stroke-dashoffset:0;stroke-opacity:1"
       id="path1060" />
    <path
       d="m 302.038,467.252 c 1.066,3.416 2.346,7.047 -1.714,13.026 -4.06,5.976 -13.645,11.972 -16.662,15.369 -1.71,1.92 -0.431,5.551 -2.78,6.617 -2.349,1.068 -4.971,-0.582 -5.552,2.135 -0.642,2.988 5.217,2.176 5.764,3.632 0.639,1.708 1.707,3.844 -1.072,8.968 -1.869,3.449 -5.343,10.035 -3.422,12.384 1.922,2.35 5.123,4.914 11.103,4.063 5.98,-0.853 20.931,-7.252 29.047,-11.092 8.117,-3.841 22.855,-11.736 26.273,-14.298 3.417,-2.561 4.914,-6.831 4.488,-10.249 -0.425,-3.416 -0.425,-5.765 1.071,-7.26 1.495,-1.494 2.777,-2.775 1.496,-4.056 -1.494,-1.496 -5.553,3.629 -6.621,5.549 -1.069,1.921 1.064,7.902 0.208,10.464 -0.855,2.563 -7.263,6.617 -12.603,9.391 -5.34,2.773 -32.892,14.721 -39.086,16.213 -6.193,1.493 -8.968,-1.711 -8.753,-5.77 0.215,-4.056 3.848,-9.18 2.995,-12.382 -0.853,-3.206 0.643,-7.047 1.284,-8.116 0.642,-1.068 2.158,-4.27 3.206,-5.763 1.495,-2.137 4.313,-3.489 6.196,-7.26 1.069,-2.134 6.349,-6.123 7.692,-9.179 1.496,-3.417 2.565,-8.54 1.499,-12.598"
       style="fill:none;stroke:#231f20;stroke-width:0.5;stroke-linecap:round;stroke-linejoin:round;stroke-miterlimit:4;stroke-dasharray:2.8, 1.8;stroke-dashoffset:0;stroke-opacity:1"
       id="path1062" />
    <path
       d="m 296.487,463.192 c 1.376,-3.303 5.127,-2.348 6.621,-1.92 1.495,0.428 4.483,3.206 5.551,3.633 1.068,0.427 2.134,2.35 -0.428,2.135 -2.563,-0.213 -4.699,-0.002 -6.62,0.212 -1.922,0.211 -6.193,-1.499 -5.124,-4.06 z"
       style="fill:none;stroke:#231f20;stroke-width:0.5;stroke-linecap:round;stroke-linejoin:round;stroke-miterlimit:4;stroke-dasharray:2.8, 1.8;stroke-dashoffset:0;stroke-opacity:1"
       id="path1064" />
    <path
       d="m 301.595,505.477 c 0.701,-1.314 7.741,0.877 6.405,3.205 -1.616,2.822 -6.819,-2.432 -6.405,-3.205 z"
       style="fill:none;stroke:#231f20;stroke-width:0.5;stroke-linecap:round;stroke-linejoin:round;stroke-miterlimit:4;stroke-dasharray:2.8, 1.8;stroke-dashoffset:0;stroke-opacity:1"
       id="path1066" />
    <path
       d="m 312.057,511.034 c 0.855,-2.35 9.182,0.643 8.327,2.565 -0.855,1.921 -9.182,-0.218 -8.327,-2.565 z"
       style="fill:none;stroke:#231f20;stroke-width:0.5;stroke-linecap:round;stroke-linejoin:round;stroke-miterlimit:4;stroke-dasharray:2.8, 1.8;stroke-dashoffset:0;stroke-opacity:1"
       id="path1068" />
    <path
       d="m 320.815,504.416 c 0.922,-2.755 3.417,-0.638 4.698,-0.425 1.282,0.215 3.964,0.797 5.34,-0.424 1.921,-1.708 4.27,0.215 2.348,2.137 -1.923,1.92 -4.273,2.987 -6.622,2.559 -1.935,-0.354 -6.405,-1.924 -5.764,-3.847 z"
       style="fill:none;stroke:#231f20;stroke-width:0.5;stroke-linecap:round;stroke-linejoin:round;stroke-miterlimit:4;stroke-dasharray:2.8, 1.8;stroke-dashoffset:0;stroke-opacity:1"
       id="path1070" />
    <path
       d="m 323.812,486.479 c 0.642,-1.708 2.99,0.216 4.271,0.43 1.281,0.213 5.979,1.07 6.191,3.205 0.213,2.136 -3.892,4.871 -5.34,3.629 -1.494,-1.282 0.321,-2.309 0.002,-3.418 -0.427,-1.494 -5.598,-2.577 -5.124,-3.846 z"
       style="fill:none;stroke:#231f20;stroke-width:0.5;stroke-linecap:round;stroke-linejoin:round;stroke-miterlimit:4;stroke-dasharray:2.8, 1.8;stroke-dashoffset:0;stroke-opacity:1"
       id="path1072" />
    <path
       d="m 326.379,476.231 c 0.395,-2.355 4.058,-2.348 5.98,-1.92 1.922,0.428 9.182,3.42 8.967,4.914 -0.215,1.496 -8.329,0.852 -10.037,0.637 -1.708,-0.214 -5.124,-2.35 -4.91,-3.631 z"
       style="fill:none;stroke:#231f20;stroke-width:0.5;stroke-linecap:round;stroke-linejoin:round;stroke-miterlimit:4;stroke-dasharray:2.8, 1.8;stroke-dashoffset:0;stroke-opacity:1"
       id="path1074" />
    <path
       d="m 307.171,447.606 c 4.698,1.07 11.533,-1.916 16.231,-1.914 4.698,0.002 14.52,2.568 18.577,4.279 4.057,1.709 10.461,3.848 14.305,6.838 3.842,2.992 3.842,4.486 3.199,8.972 -0.643,4.483 -3.849,11.958 -4.491,14.945 -0.641,2.989 -0.43,6.192 -2.14,11.745 -1.71,5.551 -7.291,22.658 -10.283,27.139"
       style="fill:none;stroke:#231f20;stroke-width:0.5;stroke-linecap:round;stroke-linejoin:round;stroke-miterlimit:4;stroke-dasharray:2.8, 1.8;stroke-dashoffset:0;stroke-opacity:1"
       id="path1076" />
    <path
       d="m 376.97,524.3 c 5.341,-5.977 19.924,-20.921 30.388,-22.625"
       style="fill:none;stroke:#231f20;stroke-width:0.5;stroke-linecap:round;stroke-linejoin:round;stroke-miterlimit:4;stroke-dasharray:2.8, 1.8;stroke-dashoffset:0;stroke-opacity:1"
       id="path1078" />
    <path
       d="m 387.449,486.079 c -6.645,-2.686 -6.828,-11.748 -7.04,-15.379 -0.213,-3.629 0.217,-9.182 6.412,-13.664 6.195,-4.483 11.533,-5.12 15.377,-4.051 3.844,1.069 11.954,10.256 10.67,18.797 -1.285,8.541 -12.18,19.647 -25.419,14.297 z"
       style="fill:none;stroke:#231f20;stroke-width:0.5;stroke-linecap:round;stroke-linejoin:round;stroke-miterlimit:4;stroke-dasharray:2.8, 1.8;stroke-dashoffset:0;stroke-opacity:1"
       id="path1080" />
    <path
       d="m 414.784,485.45 6.547,-13.946"
       style="fill:none;stroke:#231f20;stroke-width:0.5;stroke-linecap:round;stroke-linejoin:round;stroke-miterlimit:4;stroke-dasharray:2.8, 1.8;stroke-dashoffset:0;stroke-opacity:1"
       id="path1082" />
    <path
       d="m 418.624,494.549 c -2.135,-3.205 -3.841,-7.605 -4.267,-10.594 -0.425,-2.99 -3.414,-5.126 -4.055,-5.555"
       style="fill:none;stroke:#231f20;stroke-width:0.5;stroke-linecap:round;stroke-linejoin:round;stroke-miterlimit:4;stroke-dasharray:2.8, 1.8;stroke-dashoffset:0;stroke-opacity:1"
       id="path1084" />
    <path
       d="m 415.028,409.426 c -0.445,-3.603 8.545,-5.335 12.389,-5.76 3.843,-0.425 9.395,1.071 9.181,4.702 -0.216,3.63 -12.388,4.265 -14.523,4.265 -2.136,-0.002 -6.833,-1.498 -7.047,-3.207 z"
       style="fill:none;stroke:#231f20;stroke-width:0.5;stroke-linecap:round;stroke-linejoin:round;stroke-miterlimit:4;stroke-dasharray:2.8, 1.8;stroke-dashoffset:0;stroke-opacity:1"
       id="path1086" />
    <path
       d="m 441.071,433.782 c -2.561,-3.632 -1.917,-9.184 -1.062,-12.6 0.856,-3.416 2.567,-11.744 5.131,-13.879 2.563,-2.135 17.515,-9.815 19.865,-11.522 2.349,-1.708 8.329,-1.493 6.617,7.049 -1.143,5.717 -12.474,20.282 -12.263,26.475"
       style="fill:none;stroke:#231f20;stroke-width:0.5;stroke-linecap:round;stroke-linejoin:round;stroke-miterlimit:4;stroke-dasharray:2.8, 1.8;stroke-dashoffset:0;stroke-opacity:1"
       id="path1088" />
    <path
       d="m 412.911,468.035 c 4.271,1.284 9.352,4.605 13.623,4.606 4.271,0.002 9.397,-1.704 14.737,-4.264 5.339,-2.56 14.311,-8.11 17.303,-12.806 2.991,-4.697 1.498,-8.328 -1.49,-11.106 -2.989,-2.777 -5.977,-6.836 -8.539,-7.904 -2.563,-1.069 -7.474,-2.779 -7.474,-2.779 0,0 -3.843,1.279 -11.96,2.771 -8.114,1.492 -19.94,2.981 -29.547,-0.654"
       style="fill:none;stroke:#231f20;stroke-width:0.5;stroke-linecap:round;stroke-linejoin:round;stroke-miterlimit:4;stroke-dasharray:2.8, 1.8;stroke-dashoffset:0;stroke-opacity:1"
       id="path1090" />
    <path
       d="m 452.387,439.551 c 3.419,-4.054 6.624,-10.246 10.684,-15.584 4.059,-5.336 13.246,-13.875 18.586,-16.862 5.34,-2.987 14.951,-7.468 22.212,-6.61 7.259,0.856 10.887,8.332 12.594,11.322 1.707,2.992 1.986,6.543 0.491,8.678"
       style="fill:none;stroke:#231f20;stroke-width:0.5;stroke-linecap:round;stroke-linejoin:round;stroke-miterlimit:4;stroke-dasharray:2.8, 1.8;stroke-dashoffset:0;stroke-opacity:1"
       id="path1092" />
    <path
       d="m 460.138,450.018 c 5.124,2.139 9.328,1.714 12.531,1.074 3.204,-0.639 12.815,-3.197 12.815,-3.197"
       style="fill:none;stroke:#231f20;stroke-width:0.5;stroke-linecap:round;stroke-linejoin:round;stroke-miterlimit:4;stroke-dasharray:2.8, 1.8;stroke-dashoffset:0;stroke-opacity:1"
       id="path1094" />
    <path
       d="m 505.696,466.908 c -6.193,-0.003 -16.376,0.206 -19.153,0.421 -2.776,0.211 -6.405,-1.499 -6.831,-5.342 -0.426,-3.846 0.417,-7.916 2.995,-10.891 2.777,-3.201 6.195,-7.898 11.322,-11.954 5.127,-4.056 20.508,-17.288 24.566,-19.849 4.059,-2.562 18.58,-3.197 22.852,-2.127 4.27,1.069 10.46,5.77 10.673,9.828 0.211,4.057 -3.209,13.539 -12.609,19.64 -4.271,2.775 -9.185,5.763 -12.176,8.751 -2.99,2.989 -9.61,3.841 -13.455,5.333 -3.844,1.493 -12.601,4.132 -16.232,6.266"
       style="fill:none;stroke:#231f20;stroke-width:0.5;stroke-linecap:round;stroke-linejoin:round;stroke-miterlimit:4;stroke-dasharray:2.8, 1.8;stroke-dashoffset:0;stroke-opacity:1"
       id="path1096" />
    <path
       d="m 508.021,525.432 c 1.92,4.059 3.053,7.465 6.897,9.174 3.842,1.711 8.328,0.432 10.677,-0.636"
       style="fill:none;stroke:#231f20;stroke-width:0.5;stroke-linecap:round;stroke-linejoin:round;stroke-miterlimit:4;stroke-dasharray:2.8, 1.8;stroke-dashoffset:0;stroke-opacity:1"
       id="path1098" />
    <path
       d="m 527.518,532.477 c -4.7,2.773 -5.983,8.325 -3.209,13.879 2.773,5.555 8.753,5.769 15.587,5.559 6.833,-0.211 11.52,-2.131 11.52,-2.131"
       style="fill:none;stroke:#231f20;stroke-width:0.5;stroke-linecap:round;stroke-linejoin:round;stroke-miterlimit:4;stroke-dasharray:2.8, 1.8;stroke-dashoffset:0;stroke-opacity:1"
       id="path1100" />
    <path
       d="m 567.916,573.921 c -6.62,-0.003 -11.799,-1.926 -16.496,-7.266 -4.695,-5.341 -4.064,-12.175 1.491,-14.949"
       style="fill:none;stroke:#231f20;stroke-width:0.5;stroke-linecap:round;stroke-linejoin:round;stroke-miterlimit:4;stroke-dasharray:2.8, 1.8;stroke-dashoffset:0;stroke-opacity:1"
       id="path1102" />
    <path
       d="m 900.6,498.676 c 4.701,-6.832 14.526,-12.806 24.136,-12.802 9.609,0.003 17.935,5.132 17.935,5.132"
       style="fill:none;stroke:#231f20;stroke-width:0.5;stroke-linecap:round;stroke-linejoin:round;stroke-miterlimit:4;stroke-dasharray:2.8, 1.8;stroke-dashoffset:0;stroke-opacity:1"
       id="path1104" />
    <path
       d="m 886.292,498.03 c 3.846,-4.91 29.265,-20.703 41.437,-20.057"
       style="fill:none;stroke:#231f20;stroke-width:0.5;stroke-linecap:round;stroke-linejoin:round;stroke-miterlimit:4;stroke-dasharray:2.8, 1.8;stroke-dashoffset:0;stroke-opacity:1"
       id="path1106" />
    <path
       d="m 759.284,498.188 c 7.901,0.432 20.234,0.438 27.922,-0.199 7.688,-0.639 16.444,-0.848 21.142,-1.913 4.698,-1.067 7.475,-1.279 12.387,-0.422 4.91,0.856 17.297,1.073 21.353,1.29 4.057,0.215 27.12,1.506 44.204,1.086 10.891,-0.27 28.714,2.2 31.39,3.642 5.551,2.993 24.126,11.541 32.028,12.613"
       style="fill:none;stroke:#231f20;stroke-width:0.5;stroke-linecap:round;stroke-linejoin:round;stroke-miterlimit:4;stroke-dasharray:2.8, 1.8;stroke-dashoffset:0;stroke-opacity:1"
       id="path1108" />
    <path
       d="m 722.294,481.519 c 3.201,7.476 11.314,11.536 26.902,14.745"
       style="fill:none;stroke:#231f20;stroke-width:0.5;stroke-linecap:round;stroke-linejoin:round;stroke-miterlimit:4;stroke-dasharray:2.8, 1.8;stroke-dashoffset:0;stroke-opacity:1"
       id="path1110" />
    <path
       d="m 747.067,478.326 c 1.064,7.261 6.088,15.167 8.435,18.157"
       style="fill:none;stroke:#231f20;stroke-width:0.5;stroke-linecap:round;stroke-linejoin:round;stroke-miterlimit:4;stroke-dasharray:2.8, 1.8;stroke-dashoffset:0;stroke-opacity:1"
       id="path1112" />
    <path
       d="m 813.26,495.223 0.004,-21.354"
       style="fill:none;stroke:#231f20;stroke-width:0.5;stroke-linecap:round;stroke-linejoin:round;stroke-miterlimit:4;stroke-dasharray:2.8, 1.8;stroke-dashoffset:0;stroke-opacity:1"
       id="path1114" />
    <path
       d="m 738.934,523.594 c 10e-4,-3.228 11.319,-3.993 11.745,-2.131 1.279,5.553 -11.747,6.403 -11.745,2.131 z"
       style="fill:none;stroke:#231f20;stroke-width:0.5;stroke-linecap:round;stroke-linejoin:round;stroke-miterlimit:4;stroke-dasharray:2.8, 1.8;stroke-dashoffset:0;stroke-opacity:1"
       id="path1116" />
    <path
       d="m 652.021,521.209 -0.638,-6.834"
       style="fill:none;stroke:#231f20;stroke-width:0.5;stroke-linecap:round;stroke-linejoin:round;stroke-miterlimit:4;stroke-dasharray:2.8, 1.8;stroke-dashoffset:0;stroke-opacity:1"
       id="path1118" />
    <path
       d="m 662.704,506.052 c 0.282,-3.93 4.701,-3.628 9.826,-4.052 5.125,-0.426 10.25,-0.423 14.306,2.782 4.057,3.203 4.909,6.193 1.491,8.755 -3.418,2.561 -5.981,2.773 -10.037,2.559 -4.057,-0.217 -15.8,-7.054 -15.586,-10.044 z"
       style="fill:none;stroke:#231f20;stroke-width:0.5;stroke-linecap:round;stroke-linejoin:round;stroke-miterlimit:4;stroke-dasharray:2.8, 1.8;stroke-dashoffset:0;stroke-opacity:1"
       id="path1120" />
    <path
       d="m 666.944,581.009 c 4.484,0.644 17.297,1.501 21.782,0.009 4.485,-1.494 7.478,-6.402 2.568,-10.677 -4.911,-4.272 -12.156,-9.72 -14.516,-11.964 -4.057,-3.845 -8.749,-17.087 -14.944,-17.089"
       style="fill:none;stroke:#231f20;stroke-width:0.5;stroke-linecap:round;stroke-linejoin:round;stroke-miterlimit:4;stroke-dasharray:2.8, 1.8;stroke-dashoffset:0;stroke-opacity:1"
       id="path1122" />
    <path
       d="m 705.468,575.684 0.01,-24.131"
       style="fill:none;stroke:#231f20;stroke-width:0.5;stroke-linecap:round;stroke-linejoin:round;stroke-miterlimit:4;stroke-dasharray:2.8, 1.8;stroke-dashoffset:0;stroke-opacity:1"
       id="path1124" />
    <path
       d="m 660.514,640.16 c 4.485,-1.707 15.961,-11.279 19.014,-19.212 1.068,-2.776 7.049,-5.763 8.971,-7.044 1.923,-1.28 4.914,-3.628 4.916,-8.326 0.001,-4.698 -11.317,-5.557 -14.52,-5.985 -3.202,-0.428 -7.26,-1.284 -10.463,-0.858"
       style="fill:none;stroke:#231f20;stroke-width:0.5;stroke-linecap:round;stroke-linejoin:round;stroke-miterlimit:4;stroke-dasharray:2.8, 1.8;stroke-dashoffset:0;stroke-opacity:1"
       id="path1126" />
    <path
       d="m 647.254,688.629 c -1.407,-3.176 3.846,-8.113 8.119,-10.46 4.272,-2.347 12.602,-5.761 17.085,-1.488 4.482,4.273 -0.645,8.755 -3.208,10.676 -2.564,1.921 -13.863,4.266 -17.726,4.264 -2.564,-10e-4 -3.416,-1.069 -4.27,-2.992 z"
       style="fill:none;stroke:#231f20;stroke-width:0.5;stroke-linecap:round;stroke-linejoin:round;stroke-miterlimit:4;stroke-dasharray:2.8, 1.8;stroke-dashoffset:0;stroke-opacity:1"
       id="path1128" />
    <path
       d="m 648.114,672.546 c 0.642,-2.776 1.072,-7.389 1.072,-9.525"
       style="fill:none;stroke:#231f20;stroke-width:0.5;stroke-linecap:round;stroke-linejoin:round;stroke-miterlimit:4;stroke-dasharray:2.8, 1.8;stroke-dashoffset:0;stroke-opacity:1"
       id="path1130" />
    <path
       d="m 705.444,633.342 0.01,-23.276"
       style="fill:none;stroke:#231f20;stroke-width:0.5;stroke-linecap:round;stroke-linejoin:round;stroke-miterlimit:4;stroke-dasharray:2.8, 1.8;stroke-dashoffset:0;stroke-opacity:1"
       id="path1132" />
    <path
       d="m 881.506,714.138 c 6.832,2.138 16.228,2.356 25.198,0.224 8.969,-2.132 23.922,-11.736 42.936,-31.374"
       style="fill:none;stroke:#231f20;stroke-width:0.5;stroke-linecap:round;stroke-linejoin:round;stroke-miterlimit:4;stroke-dasharray:2.8, 1.8;stroke-dashoffset:0;stroke-opacity:1"
       id="path1134" />
    <path
       d="m 864.838,709.86 c 3.204,-2.348 10.475,-0.636 16.668,4.278 1.493,3.203 3.627,5.553 6.616,8.545 2.988,2.991 11.955,9.614 13.877,10.683 1.919,1.069 3.628,2.35 6.832,1.283 3.203,-1.065 18.103,-6.97 37.011,-27.213"
       style="fill:none;stroke:#231f20;stroke-width:0.5;stroke-linecap:round;stroke-linejoin:round;stroke-miterlimit:4;stroke-dasharray:2.8, 1.8;stroke-dashoffset:0;stroke-opacity:1"
       id="path1136" />
    <path
       d="m 767.07,684.376 c 6.191,4.274 13.011,6.871 18.134,7.727 5.126,0.856 16.015,2.569 26.052,1.505 10.038,-1.064 20.501,-1.486 35.02,5.141 14.518,6.625 18.361,10.685 25.405,17.52 7.044,6.837 21.645,19.714 28.264,23.348"
       style="fill:none;stroke:#231f20;stroke-width:0.5;stroke-linecap:round;stroke-linejoin:round;stroke-miterlimit:4;stroke-dasharray:2.8, 1.8;stroke-dashoffset:0;stroke-opacity:1"
       id="path1138" />
    <path
       d="m 749.975,676.926 11.317,4.062"
       style="fill:none;stroke:#231f20;stroke-width:0.5;stroke-linecap:round;stroke-linejoin:round;stroke-miterlimit:4;stroke-dasharray:2.8, 1.8;stroke-dashoffset:0;stroke-opacity:1"
       id="path1140" />
    <path
       d="m 748.948,579.976 0.015,-40.363"
       style="fill:none;stroke:#231f20;stroke-width:0.5;stroke-linecap:round;stroke-linejoin:round;stroke-miterlimit:4;stroke-dasharray:2.8, 1.8;stroke-dashoffset:0;stroke-opacity:1"
       id="path1142" />
    <path
       d="m 809.752,715.377 0.009,-21.341"
       style="fill:none;stroke:#231f20;stroke-width:0.5;stroke-linecap:round;stroke-linejoin:round;stroke-miterlimit:4;stroke-dasharray:2.8, 1.8;stroke-dashoffset:0;stroke-opacity:1"
       id="path1144" />
    <path
       d="m 742.723,655.141 c 0.001,-2.135 4.273,-3.841 8.543,-3.84 4.272,0.002 4.697,2.137 4.697,3.419 0,1.281 -3.418,4.056 -6.835,4.055 -3.417,-0.002 -6.405,-1.498 -6.405,-3.634 z"
       style="fill:none;stroke:#231f20;stroke-width:0.5;stroke-linecap:round;stroke-linejoin:round;stroke-miterlimit:4;stroke-dasharray:2.8, 1.8;stroke-dashoffset:0;stroke-opacity:1"
       id="path1146" />
    <path
       d="m 748.918,648.097 0.021,-49.543"
       style="fill:none;stroke:#231f20;stroke-width:0.5;stroke-linecap:round;stroke-linejoin:round;stroke-miterlimit:4;stroke-dasharray:2.8, 1.8;stroke-dashoffset:0;stroke-opacity:1"
       id="path1148" />
    <path
       d="m 785.633,658.161 c 0.428,-1.708 5.34,-1.706 7.261,-1.065 1.922,0.642 10.978,3.982 10.034,7.051 -0.855,2.776 -8.328,0.638 -10.037,-0.004 -1.708,-0.642 -5.123,-2.778 -5.123,-2.778 0,0 -2.562,-1.496 -2.135,-3.204 z"
       style="fill:none;stroke:#231f20;stroke-width:0.5;stroke-linecap:round;stroke-linejoin:round;stroke-miterlimit:4;stroke-dasharray:2.8, 1.8;stroke-dashoffset:0;stroke-opacity:1"
       id="path1150" />
    <path
       d="m 785.271,529.807 c -0.68,-2.69 11.747,-4.906 14.311,-5.119 2.561,-0.213 12.598,-0.85 13.024,1.927 0.426,2.776 -7.69,3.413 -11.746,4.051 -4.058,0.641 -14.604,2.998 -15.589,-0.859 z"
       style="fill:none;stroke:#231f20;stroke-width:0.5;stroke-linecap:round;stroke-linejoin:round;stroke-miterlimit:4;stroke-dasharray:2.8, 1.8;stroke-dashoffset:0;stroke-opacity:1"
       id="path1152" />
    <path
       d="m 816.21,592.389 c 0,-1.922 2.991,-2.135 4.271,-2.135 1.281,0.002 83.926,-0.39 86.915,-0.39 2.989,0.002 4.27,1.71 4.269,3.205 0,1.494 -1.709,2.989 -4.486,2.987 -2.775,-0.001 -87.126,-1.744 -87.126,-1.744 0,0 -3.843,-10e-4 -3.843,-1.923 z"
       style="fill:none;stroke:#231f20;stroke-width:0.5;stroke-linecap:round;stroke-linejoin:round;stroke-miterlimit:4;stroke-dasharray:2.8, 1.8;stroke-dashoffset:0;stroke-opacity:1"
       id="path1154" />
    <path
       d="m 810.818,525.179 c 12.173,-0.636 36.94,1.013 60.727,8.107 22.541,6.723 43.6,15.324 52.202,20.564"
       style="fill:none;stroke:#231f20;stroke-width:0.5;stroke-linecap:round;stroke-linejoin:round;stroke-miterlimit:4;stroke-dasharray:2.8, 1.8;stroke-dashoffset:0;stroke-opacity:1"
       id="path1156" />
    <path
       d="m 802.586,662.428 c 13.88,1.714 54.887,-3.106 69.76,-4.884 20.554,-2.457 54.564,-11.551 66.428,-16.946"
       style="fill:none;stroke:#231f20;stroke-width:0.5;stroke-linecap:round;stroke-linejoin:round;stroke-miterlimit:4;stroke-dasharray:2.8, 1.8;stroke-dashoffset:0;stroke-opacity:1"
       id="path1158" />
    <path
       d="m 949.471,572.797 c -7.23,-1.084 -14.307,1.489 -16.444,2.77 -2.136,1.279 -5.128,6.617 -4.488,11.101 0.637,4.486 4.054,6.196 6.831,5.77 2.775,-0.426 10.25,-0.632 14.306,0.006 5.412,0.85 11.078,-0.343 11.675,-6.01 0.597,-5.666 -1.391,-12.064 -11.88,-13.637 z"
       style="fill:none;stroke:#231f20;stroke-width:0.5;stroke-linecap:round;stroke-linejoin:round;stroke-miterlimit:4;stroke-dasharray:2.8, 1.8;stroke-dashoffset:0;stroke-opacity:1"
       id="path1160" />
    <path
       d="m 950.104,595.22 c -5.135,-0.563 -13.668,-0.86 -18.793,1.701 -5.127,2.56 -3.422,10.462 -0.646,12.599 2.775,2.136 12.597,2.58 19.218,2.57 4.907,-0.007 6.1,-3.287 6.398,-8.059 0.298,-4.772 -2.214,-8.377 -6.177,-8.811 z"
       style="fill:none;stroke:#231f20;stroke-width:0.5;stroke-linecap:round;stroke-linejoin:round;stroke-miterlimit:4;stroke-dasharray:2.8, 1.8;stroke-dashoffset:0;stroke-opacity:1"
       id="path1162" />
    <path
       d="m 556.376,627.853 c -1.92,-7.902 0.636,-21.05 14.305,-24.888"
       style="fill:none;stroke:#231f20;stroke-width:0.5;stroke-linecap:round;stroke-linejoin:round;stroke-miterlimit:4;stroke-dasharray:2.8, 1.8;stroke-dashoffset:0;stroke-opacity:1"
       id="path1164" />
    <path
       d="m 521.6,583.569 c 4.182,1.494 9.263,3.888 8.662,10.463 -0.6,6.575 -5.98,7.769 -8.073,8.365"
       style="fill:none;stroke:#231f20;stroke-width:0.5;stroke-linecap:round;stroke-linejoin:round;stroke-miterlimit:4;stroke-dasharray:2.8, 1.8;stroke-dashoffset:0;stroke-opacity:1"
       id="path1166" />
    <path
       d="m 548.905,573.59 c -5.721,0 -11.82,-0.327 -22.472,-0.327 -2.99,0 -4.486,1.706 -4.699,4.269 -0.215,2.562 -0.434,14.521 -0.435,16.871 -10e-4,2.349 1.702,16.23 2.129,17.938 0.426,1.709 1.877,1.955 5.552,1.925 4.076,-0.034 13.53,-0.088 19.314,-0.162"
       style="fill:none;stroke:#231f20;stroke-width:0.5;stroke-linecap:round;stroke-linejoin:round;stroke-miterlimit:4;stroke-dasharray:2.8, 1.8;stroke-dashoffset:0;stroke-opacity:1"
       id="path1168" />
    <path
       d="m 530.298,592.605 c 4.078,-0.035 22.357,-0.716 28.14,-0.791"
       style="fill:none;stroke:#231f20;stroke-width:0.5;stroke-linecap:round;stroke-linejoin:round;stroke-miterlimit:4;stroke-dasharray:2.8, 1.8;stroke-dashoffset:0;stroke-opacity:1"
       id="path1170" />
    <path
       d="m 515.53,601.662 c 1.923,0 2.136,1.495 2.135,4.271 -0.002,2.776 -0.652,25.412 -0.652,25.412 0,0 -0.214,1.922 -1.495,1.921 -1.281,0 -2.989,-1.923 -3.202,-4.272 -0.213,-2.349 -0.849,-13.241 -1.061,-16.23 -0.212,-2.99 2.354,-11.104 4.275,-11.102 z"
       style="fill:none;stroke:#231f20;stroke-width:0.5;stroke-linecap:round;stroke-linejoin:round;stroke-miterlimit:4;stroke-dasharray:2.8, 1.8;stroke-dashoffset:0;stroke-opacity:1"
       id="path1172" />
    <path
       d="m 523.838,651.825 c -2.134,-3.204 -2.344,-11.936 -0.208,-15.139 2.138,-3.203 12.604,-7.042 19.009,-7.039 6.406,0.003 8.115,1.498 7.473,4.274"
       style="fill:none;stroke:#231f20;stroke-width:0.5;stroke-linecap:round;stroke-linejoin:round;stroke-miterlimit:4;stroke-dasharray:2.8, 1.8;stroke-dashoffset:0;stroke-opacity:1"
       id="path1174" />
    <path
       d="m 496.096,606.138 c -0.639,-2.778 -5.337,-3.206 -8.327,-4.061 -2.989,-0.856 -7.474,-1.926 -9.183,-0.004 -1.708,1.921 1.065,8.115 0.423,12.173 -0.643,4.056 -0.643,5.551 -3.207,9.181 -2.565,3.629 -2.566,6.192 -1.072,7.26 1.496,1.068 3.417,1.069 5.768,-1.492 2.349,-2.563 12.819,-16.012 14.101,-18.147 0,0 2.17,-1.994 1.497,-4.91 z"
       style="fill:none;stroke:#231f20;stroke-width:0.5;stroke-linecap:round;stroke-linejoin:round;stroke-miterlimit:4;stroke-dasharray:2.8, 1.8;stroke-dashoffset:0;stroke-opacity:1"
       id="path1176" />
    <path
       d="m 496.08,645.644 c -4.651,-3.105 -5.548,-10.039 -4.051,-15.591 1.496,-5.552 6.285,-13.324 11.964,-14.943 4.486,-1.279 5.765,1.496 6.192,4.273 0.752,4.899 0.1,15.156 -3.213,21.781 -2.35,4.696 -5.769,7.898 -10.892,4.48 z"
       style="fill:none;stroke:#231f20;stroke-width:0.5;stroke-linecap:round;stroke-linejoin:round;stroke-miterlimit:4;stroke-dasharray:2.8, 1.8;stroke-dashoffset:0;stroke-opacity:1"
       id="path1178" />
    <path
       d="m 363.889,655.84 c 0,0 15.798,10.684 21.777,13.889"
       style="fill:none;stroke:#231f20;stroke-width:0.5;stroke-linecap:round;stroke-linejoin:round;stroke-miterlimit:4;stroke-dasharray:2.8, 1.8;stroke-dashoffset:0;stroke-opacity:1"
       id="path1180" />
    <path
       d="m 551.147,712.159 c -1.279,-1.923 -1.706,-5.205 -1.065,-7.34 -3.843,0.213 -19.217,-2.357 -26.264,-4.708 -7.045,-2.353 -17.293,-9.831 -24.553,-11.33 -7.26,-1.497 -8.541,-0.429 -9.185,6.19 -0.643,6.62 -0.646,11.318 -2.356,16.229 -1.71,4.911 -2.78,10.676 -2.141,13.026 0.64,2.349 6.831,8.331 8.108,16.659 1.278,8.329 1.274,17.725 3.835,21.571 2.561,3.844 9.396,1.925 12.172,0.431 2.777,-1.493 12.175,-6.615 17.514,-7.68 5.34,-1.065 10.038,0.858 16.443,1.501 6.406,0.644 13.026,-0.208 14.735,-0.634"
       style="fill:none;stroke:#231f20;stroke-width:0.5;stroke-linecap:round;stroke-linejoin:round;stroke-miterlimit:4;stroke-dasharray:2.8, 1.8;stroke-dashoffset:0;stroke-opacity:1"
       id="path1182" />
    <path
       d="m 485.156,724.225 c -5.765,-0.856 -41.424,-10.48 -46.121,-12.619 -4.697,-2.137 -5.764,-3.418 -3.841,-6.407 1.923,-2.99 9.4,-11.314 10.255,-12.382 0.855,-1.067 2.35,-1.708 4.272,-1.92 1.922,-0.213 13.882,-4.052 22.425,-3.835 8.541,0.217 17.934,7.695 17.934,7.695"
       style="fill:none;stroke:#231f20;stroke-width:0.5;stroke-linecap:round;stroke-linejoin:round;stroke-miterlimit:4;stroke-dasharray:2.8, 1.8;stroke-dashoffset:0;stroke-opacity:1"
       id="path1184" />
    <path
       d="m 371.771,704.532 c 1.498,-8.114 10.895,-11.74 17.088,-11.739 6.193,0.003 14.947,5.773 15.156,14.955 0.21,9.183 -6.198,13.238 -15.595,13.661 -9.396,0.423 -18.148,-8.763 -16.649,-16.877 z"
       style="fill:none;stroke:#231f20;stroke-width:0.5;stroke-linecap:round;stroke-linejoin:round;stroke-miterlimit:4;stroke-dasharray:2.8, 1.8;stroke-dashoffset:0;stroke-opacity:1"
       id="path1186" />
    <path
       d="m 336.977,669.496 c 1.057,-7.341 6.837,-9.607 9.186,-9.392 2.349,0.214 18.791,3.851 22.844,11.327 4.055,7.476 3.413,10.252 0.636,15.162 -2.779,4.911 -11.749,8.323 -15.807,7.894 -4.057,-0.427 -12.807,-12.177 -14.301,-14.526 -1.494,-2.35 -3.201,-5.981 -2.558,-10.465 z"
       style="fill:none;stroke:#231f20;stroke-width:0.5;stroke-linecap:round;stroke-linejoin:round;stroke-miterlimit:4;stroke-dasharray:2.8, 1.8;stroke-dashoffset:0;stroke-opacity:1"
       id="path1188" />
    <path
       d="m 411.892,766.691 c -4.102,-6.682 16.409,-14.928 19.437,-9.388 3.494,6.394 -15.262,16.163 -19.437,9.388 z"
       style="fill:none;stroke:#231f20;stroke-width:0.5;stroke-linecap:round;stroke-linejoin:round;stroke-miterlimit:4;stroke-dasharray:2.8, 1.8;stroke-dashoffset:0;stroke-opacity:1"
       id="path1190" />
    <path
       d="m 358.585,764.387 c 5.766,-1.279 15.726,-4.545 20.638,-5.183 4.911,-0.64 14.095,-4.266 15.591,-7.041 1.496,-2.776 2.78,-8.969 -2.557,-13.455 -5.337,-4.486 -10.247,-8.546 -17.507,-10.684 -7.259,-2.139 -26.477,-5.137 -26.477,-5.137"
       style="fill:none;stroke:#231f20;stroke-width:0.5;stroke-linecap:round;stroke-linejoin:round;stroke-miterlimit:4;stroke-dasharray:2.8, 1.8;stroke-dashoffset:0;stroke-opacity:1"
       id="path1192" />
    <path
       d="m 326.992,734.691 c 4.699,-1.92 18.817,-8.728 22.562,-13.298 1.923,-2.348 2.732,-3.997 0.43,-5.979 -4.123,-3.552 -14.089,-13.033 -15.369,-15.596 -1.281,-2.562 0.429,-4.484 -0.211,-6.62 -0.639,-2.136 -2.561,-2.99 -3.84,-7.475 -1.28,-4.486 1.072,-12.172 0.433,-15.375 -0.64,-3.203 -1.489,-14.59 -3.622,-20.57"
       style="fill:none;stroke:#231f20;stroke-width:0.5;stroke-linecap:round;stroke-linejoin:round;stroke-miterlimit:4;stroke-dasharray:2.8, 1.8;stroke-dashoffset:0;stroke-opacity:1"
       id="path1194" />
    <path
       d="m 302.808,673.753 c -1.728,-2.764 6.428,-4.769 6.834,-2.987 0.639,2.776 -5.767,4.695 -6.834,2.987 z"
       style="fill:none;stroke:#231f20;stroke-width:0.5;stroke-linecap:round;stroke-linejoin:round;stroke-miterlimit:4;stroke-dasharray:2.8, 1.8;stroke-dashoffset:0;stroke-opacity:1"
       id="path1196" />
    <path
       d="m 313.914,669.059 c -0.213,-2.35 7.261,-3.201 8.114,-1.278 0.854,1.923 -7.902,3.627 -8.114,1.278 z"
       style="fill:none;stroke:#231f20;stroke-width:0.5;stroke-linecap:round;stroke-linejoin:round;stroke-miterlimit:4;stroke-dasharray:2.8, 1.8;stroke-dashoffset:0;stroke-opacity:1"
       id="path1198" />
    <path
       d="m 320.529,680.379 c -1.707,-3.203 2.565,-4.696 4.7,-5.122 2.136,-0.426 3.631,0.001 3.417,1.922 -0.215,1.923 -6.41,6.405 -8.117,3.2 z"
       style="fill:none;stroke:#231f20;stroke-width:0.5;stroke-linecap:round;stroke-linejoin:round;stroke-miterlimit:4;stroke-dasharray:2.8, 1.8;stroke-dashoffset:0;stroke-opacity:1"
       id="path1200" />
    <path
       d="m 319.449,708.568 c -0.426,-2.777 10.679,-3.626 10.678,-1.278 -0.001,2.35 -10.251,4.054 -10.678,1.278 z"
       style="fill:none;stroke:#231f20;stroke-width:0.5;stroke-linecap:round;stroke-linejoin:round;stroke-miterlimit:4;stroke-dasharray:2.8, 1.8;stroke-dashoffset:0;stroke-opacity:1"
       id="path1202" />
    <path
       d="m 317.745,697.89 c -1.113,-1.783 1.931,-3.37 3.419,-3.415 2.175,-0.06 1.937,-3.87 3.632,-4.057 1.922,-0.212 2.988,2.137 -0.002,5.126 -2.992,2.988 -5.982,4.055 -7.049,2.346 z"
       style="fill:none;stroke:#231f20;stroke-width:0.5;stroke-linecap:round;stroke-linejoin:round;stroke-miterlimit:4;stroke-dasharray:2.8, 1.8;stroke-dashoffset:0;stroke-opacity:1"
       id="path1204" />
    <path
       d="m 301.295,714.967 c 0.729,-2.602 3.845,-1.281 5.767,-0.852 1.921,0.427 7.261,-0.21 7.687,1.284 0.426,1.495 -1.069,2.136 -3.631,2.348 -2.563,0.212 -10.892,1.063 -9.823,-2.78 z"
       style="fill:none;stroke:#231f20;stroke-width:0.5;stroke-linecap:round;stroke-linejoin:round;stroke-miterlimit:4;stroke-dasharray:2.8, 1.8;stroke-dashoffset:0;stroke-opacity:1"
       id="path1206" />
    <path
       d="m 330.145,665.008 c -4.058,-0.428 -11.744,-2.78 -16.869,-4.705 -5.124,-1.924 -6.832,-4.487 -10.889,-4.702 -4.057,-0.216 -10.036,-1.927 -11.531,-0.645 -1.495,1.28 -2.992,6.405 -2.566,10.249 0.425,3.844 2.344,11.532 2.343,14.736 -0.002,3.203 7.256,10.466 9.604,13.03 2.347,2.564 8.919,7.545 11.1,11.109 1.554,2.53 0.637,8.115 -0.005,10.25"
       style="fill:none;stroke:#231f20;stroke-width:0.5;stroke-linecap:round;stroke-linejoin:round;stroke-miterlimit:4;stroke-dasharray:2.8, 1.8;stroke-dashoffset:0;stroke-opacity:1"
       id="path1208" />
    <path
       d="m 304.926,713.608 c 1.495,-1.708 4.061,-6.753 0.645,-10.598 -3.414,-3.846 -9.819,-8.546 -11.954,-10.469 -2.135,-1.923 -6.19,-8.544 -8.325,-10.04 -2.135,-1.496 -5.551,-2.138 -5.977,-4.06 -0.426,-1.922 2.351,-3.843 4.059,-4.696 1.709,-0.853 2.777,-1.921 1.284,-5.124 -1.493,-3.205 -5.973,-14.098 -5.332,-16.019 0.641,-1.921 2.777,-2.989 5.98,-3.201 3.204,-0.212 11.532,0.005 15.802,0.86 4.271,0.857 11.317,4.49 16.441,6.414 5.124,1.924 11.957,3.422 11.957,3.422"
       style="fill:none;stroke:#231f20;stroke-width:0.5;stroke-linecap:round;stroke-linejoin:round;stroke-miterlimit:4;stroke-dasharray:2.8, 1.8;stroke-dashoffset:0;stroke-opacity:1"
       id="path1210" />
    <path
       d="m 304.497,717.823 c 0.426,2.777 5.551,3.554 7.687,3.981 2.135,0.429 11.528,6.412 13.236,9.188 1.707,2.778 1.706,6.621 4.054,7.477 2.349,0.855 9.395,3.207 13.239,3.422 3.843,0.215 8.875,-1.378 14.519,3.209 2.849,2.31 1.279,6.621 1.492,8.543 0.213,1.922 0.852,4.057 0.851,5.979 0,1.922 -2.137,5.125 -0.43,7.688 1.707,2.563 7.684,9.613 14.088,14.74 6.405,5.128 14.517,10.684 30.958,17.524 16.44,6.841 37.15,16.459 52.097,20.949 14.172,4.264 37.152,10.907 47.829,13.26 10.676,2.353 40.997,8.559 44.201,9.201 3.202,0.641 7.046,1.07 7.047,-1.065 10e-4,-2.135 -3.415,-4.913 -9.181,-5.556 -5.765,-0.643 -15.801,-2.356 -20.925,-2.998 -5.126,-0.643 -30.962,-6.846 -39.29,-9.199 -8.327,-2.352 -30.533,-8.988 -46.334,-14.968 -11.736,-4.442 -20.283,-7.055 -31.172,-12.185 -9.234,-4.348 -24.339,-13.036 -32.238,-20.087 -7.898,-7.051 -12.808,-11.536 -13.021,-14.313 -0.211,-2.775 1.712,-8.114 0.86,-12.812 -0.853,-4.699 -3.626,-10.252 -12.168,-12.391 -8.54,-2.139 -13.726,-1.66 -17.509,-2.356 -4.698,-0.856 -3.842,-4.7 -6.831,-7.05 -2.988,-2.35 -10.246,-8.546 -14.943,-10.47"
       style="fill:none;stroke:#231f20;stroke-width:0.5;stroke-linecap:round;stroke-linejoin:round;stroke-miterlimit:4;stroke-dasharray:2.8, 1.8;stroke-dashoffset:0;stroke-opacity:1"
       id="path1212" />
    <path
       d="m 506.686,789.793 c 4.913,-2.347 14.403,-8.009 16.252,-24.551 0.428,-3.844 0.428,-5.766 -4.269,-6.835"
       style="fill:none;stroke:#231f20;stroke-width:0.5;stroke-linecap:round;stroke-linejoin:round;stroke-miterlimit:4;stroke-dasharray:2.8, 1.8;stroke-dashoffset:0;stroke-opacity:1"
       id="path1214" />
    <path
       d="m 503.061,803.886 c 6.756,0 28.527,-1.526 38.668,3.842 10.02,5.305 12.44,11.205 17.029,21.063 1.856,3.988 8.879,9.367 16.5,9.367 7.619,0 28.092,-4.034 33.77,-8.517 5.678,-4.482 0.8,-24.215 -1.984,-32.649"
       style="fill:none;stroke:#231f20;stroke-width:0.5;stroke-linecap:round;stroke-linejoin:round;stroke-miterlimit:4;stroke-dasharray:2.8, 1.8;stroke-dashoffset:0;stroke-opacity:1"
       id="path1216" />
    <path
       d="m 461.799,780.767 c 4.483,-2.487 9.419,-9.707 5.754,-20.601"
       style="fill:none;stroke:#231f20;stroke-width:0.5;stroke-linecap:round;stroke-linejoin:round;stroke-miterlimit:4;stroke-dasharray:2.8, 1.8;stroke-dashoffset:0;stroke-opacity:1"
       id="path1218" />
    <path
       d="m 427.656,764.988 c 4.022,1.583 16.43,5.987 16.43,5.987 -0.89,0 -2.974,0.452 -4.457,0.897 -5.171,1.551 -8.23,2.224 -10.158,5.264 -0.856,1.349 -0.803,3.775 -0.148,5.092 2.299,4.622 13.05,6.401 18.834,7.315 10.519,1.664 22.177,4.335 32.576,3.757 1.779,-0.098 3.163,-0.395 3.891,-1.186"
       style="fill:none;stroke:#231f20;stroke-width:0.5;stroke-linecap:round;stroke-linejoin:round;stroke-miterlimit:4;stroke-dasharray:2.8, 1.8;stroke-dashoffset:0;stroke-opacity:1"
       id="path1220" />
    <path
       d="m 416.446,758.69 c -6.539,-4.347 -18.13,-12.026 -21.159,-16.004"
       style="fill:none;stroke:#231f20;stroke-width:0.5;stroke-linecap:round;stroke-linejoin:round;stroke-miterlimit:4;stroke-dasharray:2.8, 1.8;stroke-dashoffset:0;stroke-opacity:1"
       id="path1222" />
    <path
       d="m 369.551,726.743 c 0,0 -0.141,-9.945 2.656,-16.703"
       style="fill:none;stroke:#231f20;stroke-width:0.5;stroke-linecap:round;stroke-linejoin:round;stroke-miterlimit:4;stroke-dasharray:2.8, 1.8;stroke-dashoffset:0;stroke-opacity:1"
       id="path1224" />
    <path
       d="m 386.967,734.429 c -6.259,-4.007 -5.384,-12.815 3.261,-13.152"
       style="fill:none;stroke:#231f20;stroke-width:0.5;stroke-linecap:round;stroke-linejoin:round;stroke-miterlimit:4;stroke-dasharray:2.8, 1.8;stroke-dashoffset:0;stroke-opacity:1"
       id="path1226" />
    <path
       d="m 470.428,720.723 c -5.091,2.168 -24.733,14.831 -27.417,18.708 -2.684,3.878 -3.595,10.738 2.456,15.568 4.567,-0.645 10.652,0.352 13.837,1.461 4.91,1.71 10.889,4.062 17.292,11.539 6.404,7.477 15.156,14.313 18.786,16.451 3.629,2.136 11.744,3.635 12.596,7.052 0.853,3.417 0.209,11.746 -4.917,12.384 -5.125,0.638 -10.888,-4.916 -14.944,-8.548 -4.056,-3.632 -12.167,-12.177 -17.506,-13.888 -5.338,-1.711 -8.969,0.424 -14.306,-1.714 -3.87,-1.55 -8.973,-5.143 -12.219,-8.761"
       style="fill:none;stroke:#231f20;stroke-width:0.5;stroke-linecap:round;stroke-linejoin:round;stroke-miterlimit:4;stroke-dasharray:2.8, 1.8;stroke-dashoffset:0;stroke-opacity:1"
       id="path1228" />
    <path
       d="m 403.035,702.878 c 4.388,2.554 4.955,5.968 32.159,6.498"
       style="fill:none;stroke:#231f20;stroke-width:0.5;stroke-linecap:round;stroke-linejoin:round;stroke-miterlimit:4;stroke-dasharray:2.8, 1.8;stroke-dashoffset:0;stroke-opacity:1"
       id="path1230" />
    <path
       d="m 388.859,692.793 c -1.917,-5.554 2.855,-6.747 7.925,-6.448 5.07,0.298 17.968,0.601 28.167,0.271 9.397,-0.85 20.714,1.93 21.994,4.92"
       style="fill:none;stroke:#231f20;stroke-width:0.5;stroke-linecap:round;stroke-linejoin:round;stroke-miterlimit:4;stroke-dasharray:2.8, 1.8;stroke-dashoffset:0;stroke-opacity:1"
       id="path1232" />
    <path
       d="m 744.305,698.41 c -0.072,-5.206 1.611,-14.752 8.226,-20.567"
       style="fill:none;stroke:#231f20;stroke-width:0.5;stroke-linecap:round;stroke-linejoin:round;stroke-miterlimit:4;stroke-dasharray:2.8, 1.8;stroke-dashoffset:0;stroke-opacity:1"
       id="path1234" />
    <path
       d="m 697.655,678.186 c 4.228,-10.63 16.84,-26.139 34.053,-28.823 17.212,-2.684 29.578,-3.163 53.943,-3.814 30.478,-0.813 77.12,-3.666 86.701,-4.661 19.361,-2.014 52.58,-9.924 65.234,-15.46"
       style="fill:none;stroke:#231f20;stroke-width:0.5;stroke-linecap:round;stroke-linejoin:round;stroke-miterlimit:4;stroke-dasharray:2.8, 1.8;stroke-dashoffset:0;stroke-opacity:1"
       id="path1236" />
    <path
       d="M 805.631,662.682 V 644.825"
       style="fill:none;stroke:#231f20;stroke-width:0.5;stroke-linecap:round;stroke-linejoin:round;stroke-miterlimit:4;stroke-dasharray:2.8, 1.8;stroke-dashoffset:0;stroke-opacity:1"
       id="path1238" />
    <path
       d="M 881.506,714.138 V 656.153"
       style="fill:none;stroke:#231f20;stroke-width:0.5;stroke-linecap:round;stroke-linejoin:round;stroke-miterlimit:4;stroke-dasharray:2.8, 1.8;stroke-dashoffset:0;stroke-opacity:1"
       id="path1240" />
    <path
       d="M 882.03,639.587 V 602.279"
       style="fill:none;stroke:#231f20;stroke-width:0.5;stroke-linecap:round;stroke-linejoin:round;stroke-miterlimit:4;stroke-dasharray:2.8, 1.8;stroke-dashoffset:0;stroke-opacity:1"
       id="path1242" />
    <path
       d="M 883.504,583.949 V 550.686"
       style="fill:none;stroke:#231f20;stroke-width:0.5;stroke-linecap:round;stroke-linejoin:round;stroke-miterlimit:4;stroke-dasharray:2.8, 1.8;stroke-dashoffset:0;stroke-opacity:1"
       id="path1244" />
    <path
       d="m 883.504,537.055 c 0,0 -0.095,-26.029 2.788,-39.025"
       style="fill:none;stroke:#231f20;stroke-width:0.5;stroke-linecap:round;stroke-linejoin:round;stroke-miterlimit:4;stroke-dasharray:2.8, 1.8;stroke-dashoffset:0;stroke-opacity:1"
       id="path1246" />
    <path
       d="m 702.85,507.35 c 2.199,6.315 6.941,15.001 17.226,21.227 11.333,6.859 32.01,16.441 66.258,11.053 24.719,-3.888 59.93,-2.38 89.561,8.288 19.773,7.118 34.801,13.049 43.105,17.4"
       style="fill:none;stroke:#231f20;stroke-width:0.5;stroke-linecap:round;stroke-linejoin:round;stroke-miterlimit:4;stroke-dasharray:2.8, 1.8;stroke-dashoffset:0;stroke-opacity:1"
       id="path1248" />
    <path
       d="m 758.782,519.147 c 6.029,2.868 21.959,5.493 39.496,5.701"
       style="fill:none;stroke:#231f20;stroke-width:0.5;stroke-linecap:round;stroke-linejoin:round;stroke-miterlimit:4;stroke-dasharray:2.8, 1.8;stroke-dashoffset:0;stroke-opacity:1"
       id="path1250" />
    <path
       d="m 548.294,614.104 c 5.066,-2.319 10.144,-12.734 10.144,-22.29 0,-9.555 -6.248,-15.782 -9.533,-18.224"
       style="fill:none;stroke:#231f20;stroke-width:0.5;stroke-linecap:round;stroke-linejoin:round;stroke-miterlimit:4;stroke-dasharray:2.8, 1.8;stroke-dashoffset:0;stroke-opacity:1"
       id="path1252" />
    <path
       d="m 477.232,621.148 c -2.881,5.161 -12.664,11.733 -27.749,12.267 -14.325,0.439 -31.822,-12.285 -33.043,-20.039 -1.03,-6.552 2.166,-13.784 9.87,-15.907 11.93,-3.287 30.677,1.971 36.691,3.245 6.014,1.275 13.602,1.777 15.595,7.766"
       style="fill:none;stroke:#231f20;stroke-width:0.5;stroke-linecap:round;stroke-linejoin:round;stroke-miterlimit:4;stroke-dasharray:2.8, 1.8;stroke-dashoffset:0;stroke-opacity:1"
       id="path1254" />
    <path
       d="m 436.703,550.676 c 6.879,-1.718 14.787,-2.463 21.22,-1.82 11.93,1.193 22.368,9.246 22.965,16.105 0.596,6.86 2.952,15.402 -20.445,17.245 l -9.081,0.65 c -17,0.298 -28.034,1.789 -31.017,-3.579 -1.369,-2.466 -2.173,-6.188 -2.062,-10.038 0.173,-6.961 8.988,-17.03 18.42,-18.563 z"
       style="fill:none;stroke:#231f20;stroke-width:0.5;stroke-linecap:round;stroke-linejoin:round;stroke-miterlimit:4;stroke-dasharray:2.8, 1.8;stroke-dashoffset:0;stroke-opacity:1"
       id="path1256" />
    <path
       d="m 376.143,412.288 c 10.799,2.957 32.869,7.729 37.641,11.308 4.772,3.578 -1.825,5.719 -8.023,9.012 l -4.837,2.438 c -4.699,2.774 -8.972,7.256 -11.322,10.033 -2.351,2.774 -6.195,3.627 -7.689,4.48 -3.085,1.769 -15.807,8.322 -23.281,9.601"
       style="fill:none;stroke:#231f20;stroke-width:0.5;stroke-linecap:round;stroke-linejoin:round;stroke-miterlimit:4;stroke-dasharray:2.8, 1.8;stroke-dashoffset:0;stroke-opacity:1"
       id="path1258" />
    <path
       d="m 414.954,424.727 c 7.479,-4.71 30.186,-17.424 30.186,-17.424 0.199,-2.541 -0.493,-4.123 0.199,-6.397 1.475,-4.849 5.635,-8.305 10.084,-10.677 3.263,-2.076 6.822,-2.67 10.381,-1.187 2.966,0.89 3.362,2.966 3.362,6.13"
       style="fill:none;stroke:#231f20;stroke-width:0.5;stroke-linecap:round;stroke-linejoin:round;stroke-miterlimit:4;stroke-dasharray:2.8, 1.8;stroke-dashoffset:0;stroke-opacity:1"
       id="path1260" />
    <path
       d="m 549.788,422.397 c 2.975,0.006 7.15,-2.082 5.958,-5.362 -1.193,-3.281 -4.175,-21.474 -2.386,-32.508 1.789,-11.035 6.56,-17 1.491,-18.789 -5.07,-1.79 -51.49,0.018 -62.578,36.544"
       style="fill:none;stroke:#231f20;stroke-width:0.5;stroke-linecap:round;stroke-linejoin:round;stroke-miterlimit:4;stroke-dasharray:2.8, 1.8;stroke-dashoffset:0;stroke-opacity:1"
       id="path1262" />
    <path
       d="m 469.166,392.008 c 9.932,-4.499 43.935,-18.14 53.85,-21.312"
       style="fill:none;stroke:#231f20;stroke-width:0.5;stroke-linecap:round;stroke-linejoin:round;stroke-miterlimit:4;stroke-dasharray:2.8, 1.8;stroke-dashoffset:0;stroke-opacity:1"
       id="path1264" />
    <path
       d="m 389.411,455.352 c -3.97,2.783 -7.498,-5.793 -4.575,-7.046"
       style="fill:none;stroke:#231f20;stroke-width:0.5;stroke-linecap:round;stroke-linejoin:round;stroke-miterlimit:4;stroke-dasharray:2.8, 1.8;stroke-dashoffset:0;stroke-opacity:1"
       id="path1266" />
    <path
       d="m 400.626,498.312 c -4.438,-0.454 -5.344,-5.858 -4.149,-10.964"
       style="fill:none;stroke:#231f20;stroke-width:0.5;stroke-linecap:round;stroke-linejoin:round;stroke-miterlimit:4;stroke-dasharray:2.8, 1.8;stroke-dashoffset:0;stroke-opacity:1"
       id="path1268" />
    <path
       d="m 353.241,510.682 c -4.154,-1.862 -1.491,-11.631 1.79,-16.701 3.281,-5.07 9.543,-7.755 15.508,-6.264 5.965,1.491 7.598,10.482 3.579,15.211 -5.07,5.965 -12.228,11.631 -20.877,7.754 z"
       style="fill:none;stroke:#231f20;stroke-width:0.5;stroke-linecap:round;stroke-linejoin:round;stroke-miterlimit:4;stroke-dasharray:2.8, 1.8;stroke-dashoffset:0;stroke-opacity:1"
       id="path1270" />
    <path
       d="m 607.044,796.992 h 6.859"
       style="fill:none;stroke:#231f20;stroke-width:0.5;stroke-linecap:round;stroke-linejoin:round;stroke-miterlimit:4;stroke-dasharray:2.8, 1.8;stroke-dashoffset:0;stroke-opacity:1"
       id="path1272" />
    <path
       d="m 607.044,796.992 c -2.649,-14.419 -23.403,-30.123 -28.973,-31.35 -4.301,-0.541 -7.292,-1.479 -11.141,-3.372 -9.935,-4.883 -21.987,-21.364 -24.118,-31.188 -2.133,-9.823 0.648,-17.51 7.694,-18.789 7.047,-1.278 13.455,-0.208 20.713,5.988 7.258,6.197 8.539,5.343 15.158,5.345 1.272,10e-4 2.632,0.235 3.929,0.881 2.583,1.285 19.32,8.308 21.261,15.481 1.648,6.085 -5.41,24.97 -5.857,29.452"
       style="fill:none;stroke:#231f20;stroke-width:0.5;stroke-linecap:round;stroke-linejoin:round;stroke-miterlimit:4;stroke-dasharray:2.8, 1.8;stroke-dashoffset:0;stroke-opacity:1"
       id="path1274" />
    <path
       d="m 559.014,852.986 c -1.777,-4.996 -2.672,-10.961 -3.865,-16.627 -0.789,-3.746 0.769,-6.319 3.553,-7.547"
       style="fill:none;stroke:#231f20;stroke-width:0.5;stroke-linecap:round;stroke-linejoin:round;stroke-miterlimit:4;stroke-dasharray:2.8, 1.8;stroke-dashoffset:0;stroke-opacity:1"
       id="path1276" />
    <path
       d="m 589.219,772.408 c 6.957,-0.444 20.328,-3.938 23.729,-4.657"
       style="fill:none;stroke:#231f20;stroke-width:0.5;stroke-linecap:round;stroke-linejoin:round;stroke-miterlimit:4;stroke-dasharray:2.8, 1.8;stroke-dashoffset:0;stroke-opacity:1"
       id="path1278" />
    <path
       d="m 498.678,599.662 c -2.948,1.246 -6.855,1.585 -18.387,-0.006 -11.532,-1.59 -79.53,-5.169 -85.495,-5.368 -5.965,-0.199 -7.39,-0.596 -7.39,-2.717 0,-2.12 3.811,-2.452 9.378,-2.652 5.567,-0.198 85.304,-5.539 90.665,-5.964 5.361,-0.426 8.351,-1.59 12.19,0.297"
       style="fill:none;stroke:#231f20;stroke-width:0.5;stroke-linecap:round;stroke-linejoin:round;stroke-miterlimit:4;stroke-dasharray:2.8, 1.8;stroke-dashoffset:0;stroke-opacity:1"
       id="path1280" />
    <path
       d="m 415.273,595.319 c 0.396,22.106 -5.313,19.377 -8.747,17.659 -4.391,-2.198 -8.819,-4.367 -17.496,-8.948 -4.396,-2.32 -7.555,-3.699 -7.357,-7.356 0.199,-3.657 0.719,-6.056 1.85,-11.279 0.776,-3.58 4.094,-5.488 8.489,-7.809 8.677,-4.58 10.123,-5.223 14.514,-7.42 3.434,-1.718 9.143,-4.448 8.747,17.659"
       style="fill:none;stroke:#231f20;stroke-width:0.5;stroke-linecap:round;stroke-linejoin:round;stroke-miterlimit:4;stroke-dasharray:2.8, 1.8;stroke-dashoffset:0;stroke-opacity:1"
       id="path1282" />
    <path
       d="m 955.386,607.609 c 6.263,3.878 8.65,-11.333 0.597,-8.052"
       style="fill:none;stroke:#231f20;stroke-width:0.5;stroke-linecap:round;stroke-linejoin:round;stroke-miterlimit:4;stroke-dasharray:2.8, 1.8;stroke-dashoffset:0;stroke-opacity:1"
       id="path1284" />
    <path
       d="m 955.684,592.698 c 13.123,5.07 12.824,-10.141 5.965,-8.948"
       style="fill:none;stroke:#231f20;stroke-width:0.5;stroke-linecap:round;stroke-linejoin:round;stroke-miterlimit:4;stroke-dasharray:2.8, 1.8;stroke-dashoffset:0;stroke-opacity:1"
       id="path1286" />
    <path
       d="m 959.86,596.276 c 0,-1.152 -1.201,-2.087 -2.684,-2.087 -1.482,0 -2.684,0.935 -2.684,2.087 0,1.154 1.202,2.088 2.684,2.088 1.483,0 2.684,-0.934 2.684,-2.088 z"
       style="fill:none;stroke:#231f20;stroke-width:0.5;stroke-linecap:round;stroke-linejoin:round;stroke-miterlimit:4;stroke-dasharray:2.8, 1.8;stroke-dashoffset:0;stroke-opacity:1"
       id="path1288" />
    <path
       d="m 957.173,608.237 c 0,3.877 2.832,6.531 6.863,6.531 6.56,0 10.139,-1.194 10.139,-14.316 0,-13.137 -1.495,-22.223 -4.776,-22.821 -3.281,-0.595 -6.557,0.453 -7.75,6.119"
       style="fill:none;stroke:#231f20;stroke-width:0.5;stroke-linecap:round;stroke-linejoin:round;stroke-miterlimit:4;stroke-dasharray:2.8, 1.8;stroke-dashoffset:0;stroke-opacity:1"
       id="path1290" />
  </g>
</svg>
