<?xml version="1.0" encoding="UTF-8" standalone="no"?>
<!-- Created with Inkscape (http://www.inkscape.org/) -->

<svg
   version="1.1"
   id="svg2"
   width="1440"
   height="1344"
   viewBox="0 0 1440 1344"
   xmlns="http://www.w3.org/2000/svg"
   xmlns:svg="http://www.w3.org/2000/svg">
  <defs
     id="defs6" />
  <g
     id="g8">
    <path
       d="m 299.604,870.309 c -3.047,1.116 -3.502,3.511 -4.338,4.816 -0.836,1.304 -2.162,3.437 -4.168,6.26 -2.007,2.822 -3.528,3.316 -9.994,5.078 -6.466,1.762 -11.243,-1.172 -11.52,-5.621 -0.277,-4.449 3.974,-9.498 5.864,-11.053 0,0 10.535,-5.578 12.372,-5.83 1.838,-0.252 5.202,0.47 8.43,-1.878 3.227,-2.351 5.12,-2.339 7.584,-1.978 0,0 0.172,0.595 0.806,-0.555 0.634,-1.148 1.267,-2.298 6.813,-2.269 5.546,0.027 4.319,-1.914 5.849,-2.636 1.531,-0.722 1.606,-0.979 1.351,-1.12 -0.255,-0.14 -3.266,0.063 -1.855,-0.923 1.41,-0.988 12.458,-3.087 13.379,-3.246 0.919,-0.157 11.642,-2.27 15.256,1.988 0,0 2.664,1.869 1.762,3.204 -0.903,1.333 -1.652,3.717 -0.84,3.033 0.811,-0.684 3.066,-3.205 5.526,-2.713 0,0 -2.922,-0.38 -1.122,-2.918 1.799,-2.537 1.786,-3.842 11.321,-5.611 9.533,-1.769 11.78,-0.829 13.346,-0.831 1.567,-0.003 10.393,-0.428 13.374,1.716 2.98,2.142 5.428,1.328 5.777,0.753 0.349,-0.573 0.557,-2.456 3.001,-3.205 2.446,-0.75 5.304,-2.071 5.304,-2.071 0,0 3.8,-1.65 5.104,-2.953"
       style="fill:none;stroke:#231f20;stroke-width:0.5;stroke-linecap:round;stroke-linejoin:round;stroke-miterlimit:4;stroke-dasharray:none;stroke-opacity:1"
       id="path382" />
    <path
       d="m 291.098,881.385 c -0.49,0.828 -2.415,4.046 -1.159,6.054 0,0 1.64,3.852 5.511,5.738 3.873,1.885 7.815,3.644 13.28,4.843 5.466,1.2 10.037,1.972 12.989,2.384 2.952,0.413 8.961,1.081 10.26,1.263 1.297,0.184 6.838,1.158 11.412,1.016 4.573,-0.142 7.873,-0.237 12.849,-2.254 4.975,-2.018 6.301,-2.519 4.95,-4.596 0,0 -2.101,-1.358 -3.608,-2.006 -1.507,-0.648 -3.478,-1.903 -4.205,-2.488 -0.728,-0.583 -5.679,-4.013 -6.519,-4.211 -0.84,-0.196 -0.889,0.193 -2.01,-1.158 -1.12,-1.349 -3.55,-2.59 -4.004,-2.64 0,0 -1.607,-0.621 -3.265,0.064 -1.66,0.682 -3.252,1.303 -3.711,1.383 0,0 3.595,-0.964 1.054,-2.666"
       style="fill:none;stroke:#231f20;stroke-width:0.5;stroke-linecap:round;stroke-linejoin:round;stroke-miterlimit:4;stroke-dasharray:none;stroke-opacity:1"
       id="path384" />
    <path
       d="m 328.877,880.692 c 0.328,-0.02 5.307,1.096 5.307,1.096 2.816,1.385 3.867,1.233 4.813,1.238 0,0 1.575,0.162 1.579,-1.16 0,0 -0.155,-0.594 0.288,-1.065 0.444,-0.471 0.185,-1.314 0.156,-1.397 0,0 -0.165,-0.398 0.133,-0.076 0.296,0.322 1.832,1.821 2.638,2.521 0,0 0.81,0.571 0.751,0.797 -0.058,0.226 -0.306,1.114 -0.17,1.381 0.136,0.265 0.759,2.216 2.242,3.059"
       style="fill:none;stroke:#231f20;stroke-width:0.5;stroke-linecap:round;stroke-linejoin:round;stroke-miterlimit:4;stroke-dasharray:none;stroke-opacity:1"
       id="path386" />
    <path
       d="m 350.378,889.245 c 0.418,0.147 2.294,1.365 5.519,1.088 3.226,-0.277 3.298,-2.494 3.225,-2.692 -0.075,-0.2 -0.239,-0.549 -0.301,-0.616 0,0 0.751,1.58 1.781,2.322 1.031,0.743 3.068,1.986 4.904,1.423 1.832,-0.562 1.888,-3.17 1.744,-3.617 -0.145,-0.446 -1.051,-3.061 -1.593,-3.767 -0.543,-0.708 -1.531,-2.102 -1.689,-2.222"
       style="fill:none;stroke:#231f20;stroke-width:0.5;stroke-linecap:round;stroke-linejoin:round;stroke-miterlimit:4;stroke-dasharray:none;stroke-opacity:1"
       id="path388" />
    <path
       d="m 366.822,889.697 c -0.022,0.537 -0.005,2.512 1.426,3.076 0,0 -1.914,2.94 0.587,3.597 2.502,0.655 7.436,0.512 7.567,0.501 0.132,-0.011 -0.1,0.028 0.318,0.176 0.42,0.148 2.728,0.339 4.812,-0.344 0,0 0.531,-0.256 1.93,-0.151 1.399,0.105 2.973,0.316 4.032,-0.457 0,0 3.072,0.679 4.989,-1.951 0,0 3.229,-0.375 2.763,-3.739 0,0 3.863,-2.748 2.125,-6.179 0,0 1.571,-2.156 0.493,-4.515 0,0 0.869,-0.536 0.831,-2.43 -0.037,-1.895 -0.183,-4.724 -0.172,-5.032 0.014,-0.31 0.039,-3.376 -0.577,-3.466 0,0 1.037,-2.259 -0.84,-3.819 0,0 5.092,-2.502 5.64,-2.741 0,0 4.067,-1.09 5.37,-1.613"
       style="fill:none;stroke:#231f20;stroke-width:0.5;stroke-linecap:round;stroke-linejoin:round;stroke-miterlimit:4;stroke-dasharray:none;stroke-opacity:1"
       id="path390" />
    <path
       d="m 359.321,875.428 c -0.135,0.445 -0.668,0.806 -0.824,1.044 0,0 -0.255,0.235 0.172,0.57 0.427,0.335 1.758,1.295 2.525,2.304 0.767,1.01 0.889,1.651 1.591,1.827 0.703,0.175 1.408,0.301 1.511,-0.478 0,0 -0.013,-0.245 -0.418,-0.554 0,0 -1.816,-1.045 -1.032,-4.309 0.783,-3.264 1.371,-4.056 1.917,-4.654 0.547,-0.597 2.262,-1.898 3.385,-2.213 0,0 0.448,-0.569 0.992,-1.101 0.542,-0.533 2.667,-2.242 4.102,-2.184 1.432,0.059 2.908,0.673 3.831,2.079 0.921,1.409 1.083,2.231 1.155,2.886 0.071,0.655 0.424,0.801 0.497,0.608 0.073,-0.193 0.708,-2.974 1.05,-3.351 0.341,-0.378 0.919,-0.942 5.082,-2.209 0,0 1.435,-0.008 2.649,-0.97 0,0 0.409,-0.441 -1.121,-0.535 0,0 -0.843,0.651 -1.249,1.059 -0.409,0.408 -2.562,1.169 -3.418,1.363 -0.854,0.194 -4.492,1.385 -4.864,0.88 -0.371,-0.504 -1.372,-1.556 -1.917,-1.839 -0.541,-0.283 -2.18,-0.904 -3.755,0.11 -1.574,1.012 -1.492,1.374 -2.823,2.039 -1.333,0.664 -5.437,2.912 -6.552,3.846 -1.114,0.934 -2.11,2.558 -2.486,3.782"
       style="fill:#231f20;fill-opacity:1;fill-rule:nonzero;stroke:none;stroke-width:0.1"
       id="path392" />
    <path
       d="m 359.321,875.428 c -0.135,0.445 -0.668,0.806 -0.824,1.044 0,0 -0.255,0.235 0.172,0.57 0.427,0.335 1.758,1.295 2.525,2.304 0.767,1.01 0.889,1.651 1.591,1.827 0.703,0.175 1.408,0.301 1.511,-0.478 0,0 -0.013,-0.245 -0.418,-0.554 0,0 -1.816,-1.045 -1.032,-4.309 0.783,-3.264 1.371,-4.056 1.917,-4.654 0.547,-0.597 2.262,-1.898 3.385,-2.213 0,0 0.448,-0.569 0.992,-1.101 0.542,-0.533 2.667,-2.242 4.102,-2.184 1.432,0.059 2.908,0.673 3.831,2.079 0.921,1.409 1.083,2.231 1.155,2.886 0.071,0.655 0.424,0.801 0.497,0.608 0.073,-0.193 0.708,-2.974 1.05,-3.351 0.341,-0.378 0.919,-0.942 5.082,-2.209 0,0 1.435,-0.008 2.649,-0.97 0,0 0.409,-0.441 -1.121,-0.535 0,0 -0.843,0.651 -1.249,1.059 -0.409,0.408 -2.562,1.169 -3.418,1.363 -0.854,0.194 -4.492,1.385 -4.864,0.88 -0.371,-0.504 -1.372,-1.556 -1.917,-1.839 -0.541,-0.283 -2.18,-0.904 -3.755,0.11 -1.574,1.012 -1.492,1.374 -2.823,2.039 -1.333,0.664 -5.437,2.912 -6.552,3.846 -1.114,0.934 -2.11,2.558 -2.486,3.782 z"
       style="fill:none;stroke:#231f20;stroke-width:0.25;stroke-linecap:round;stroke-linejoin:round;stroke-miterlimit:4;stroke-dasharray:none;stroke-opacity:1"
       id="path394" />
    <path
       d="m 326.042,880.202 c 0.206,0.971 0.64,1.919 0.747,2.119 0.107,0.199 0.123,0.559 0.325,0.045 0.199,-0.513 0.601,-1.166 1.824,-1.556 0,0 0.294,0.01 -0.042,-0.182 -0.333,-0.194 -0.699,-0.436 -2.078,-2.254 -1.378,-1.817 -1.587,-2.316 -1.858,-2.881 -0.271,-0.567 -0.173,2.277 0.074,2.629 0.246,0.353 0.945,1.246 0.98,1.574 0.036,0.327 0.028,0.506 0.028,0.506"
       style="fill:#231f20;fill-opacity:1;fill-rule:nonzero;stroke:none;stroke-width:0.1"
       id="path396" />
    <path
       d="m 326.042,880.202 c 0.206,0.971 0.64,1.919 0.747,2.119 0.107,0.199 0.123,0.559 0.325,0.045 0.199,-0.513 0.601,-1.166 1.824,-1.556 0,0 0.294,0.01 -0.042,-0.182 -0.333,-0.194 -0.699,-0.436 -2.078,-2.254 -1.378,-1.817 -1.587,-2.316 -1.858,-2.881 -0.271,-0.567 -0.173,2.277 0.074,2.629 0.246,0.353 0.945,1.246 0.98,1.574 0.036,0.327 0.028,0.506 0.028,0.506 z"
       style="fill:none;stroke:#231f20;stroke-width:0.25;stroke-linecap:round;stroke-linejoin:round;stroke-miterlimit:4;stroke-dasharray:none;stroke-opacity:1"
       id="path398" />
    <path
       d="m 341.272,877.538 c -0.52,0.795 -0.952,1.822 -0.52,1.578 0.435,-0.243 0.509,-0.437 0.82,-0.88 0.312,-0.445 1.464,-1.508 1.838,-1.068 0.373,0.438 1.046,0.76 1.293,0.313 0.247,-0.446 0.744,-2.254 -0.202,-2.292 0,0 -0.24,0.284 -0.825,0.228 -0.585,-0.056 -0.681,-0.093 -1.086,0.217 -0.403,0.309 -1.091,1.163 -1.166,1.388 -0.073,0.226 -0.152,0.516 -0.152,0.516"
       style="fill:#231f20;fill-opacity:1;fill-rule:nonzero;stroke:none;stroke-width:0.1"
       id="path400" />
    <path
       d="m 341.272,877.538 c -0.52,0.795 -0.952,1.822 -0.52,1.578 0.435,-0.243 0.509,-0.437 0.82,-0.88 0.312,-0.445 1.464,-1.508 1.838,-1.068 0.373,0.438 1.046,0.76 1.293,0.313 0.247,-0.446 0.744,-2.254 -0.202,-2.292 0,0 -0.24,0.284 -0.825,0.228 -0.585,-0.056 -0.681,-0.093 -1.086,0.217 -0.403,0.309 -1.091,1.163 -1.166,1.388 -0.073,0.226 -0.152,0.516 -0.152,0.516 z"
       style="fill:none;stroke:#231f20;stroke-width:0.25;stroke-linecap:round;stroke-linejoin:round;stroke-miterlimit:4;stroke-dasharray:none;stroke-opacity:1"
       id="path402" />
    <path
       d="m 321.428,864.4 c 0.635,-0.187 1.375,0.424 1.652,1.365 0.276,0.94 -0.014,1.854 -0.649,2.042 -0.636,0.187 -1.375,-0.425 -1.651,-1.365 -0.278,-0.94 0.013,-1.854 0.648,-2.042"
       style="fill:#231f20;fill-opacity:1;fill-rule:nonzero;stroke:none;stroke-width:0.1"
       id="path404" />
    <path
       d="m 321.428,864.4 c 0.635,-0.187 1.375,0.424 1.652,1.365 0.276,0.94 -0.014,1.854 -0.649,2.042 -0.636,0.187 -1.375,-0.425 -1.651,-1.365 -0.278,-0.94 0.013,-1.854 0.648,-2.042 z"
       style="fill:none;stroke:#231f20;stroke-width:0.25;stroke-linecap:round;stroke-linejoin:round;stroke-miterlimit:4;stroke-dasharray:none;stroke-opacity:1"
       id="path406" />
    <path
       d="m 327.281,849.956 c -2.779,2.564 -7.312,3.294 -8.631,3.631 0,0 -4.514,-0.135 -0.671,-1.472 3.841,-1.337 9.302,-2.159 9.302,-2.159"
       style="fill:#231f20;fill-opacity:1;fill-rule:nonzero;stroke:none;stroke-width:0.1"
       id="path408" />
    <path
       d="m 327.281,849.956 c -2.779,2.564 -7.312,3.294 -8.631,3.631 0,0 -4.514,-0.135 -0.671,-1.472 3.841,-1.337 9.302,-2.159 9.302,-2.159 z"
       style="fill:none;stroke:#231f20;stroke-width:0.25;stroke-linecap:round;stroke-linejoin:round;stroke-miterlimit:4;stroke-dasharray:none;stroke-opacity:1"
       id="path410" />
    <path
       d="m 314.756,876.332 c -0.166,-0.756 -0.527,-1.979 -1.068,-1.648 -0.54,0.332 -1.576,1.401 -1.534,2.699 0.042,1.3 0.176,3.019 1.389,4.147 1.211,1.129 1.877,1.891 5.182,2.719 3.306,0.826 4.806,1.807 5.852,2.231 1.047,0.425 3.651,1.331 4.363,1.545 0.714,0.215 3.91,1.037 4.586,1.224 0.677,0.188 6.307,1.885 7.126,2.202 0.819,0.317 2.489,1.036 3.443,0.759 0.954,-0.278 2.111,-0.46 2.817,-2.645 0,0 0.189,-2.66 -2.217,-1.967 0,0 -0.55,0.282 -0.577,0.355 0,0 0.25,0.45 -0.264,0.758 -0.516,0.309 -0.842,0.467 -2.973,0.266 -2.133,-0.202 -4.131,-0.409 -4.908,-0.553 -0.777,-0.143 -3.632,-0.632 -5.194,-1.311 -1.562,-0.678 -3.873,-1.891 -5.135,-2.41 -1.263,-0.519 -3.858,-1.351 -4.828,-1.858 -0.969,-0.507 -3.006,-1.512 -3.862,-2.405 -0.855,-0.893 -1.624,-1.501 -2.198,-4.108"
       style="fill:#231f20;fill-opacity:1;fill-rule:nonzero;stroke:none;stroke-width:0.1"
       id="path412" />
    <path
       d="m 314.756,876.332 c -0.166,-0.756 -0.527,-1.979 -1.068,-1.648 -0.54,0.332 -1.576,1.401 -1.534,2.699 0.042,1.3 0.176,3.019 1.389,4.147 1.211,1.129 1.877,1.891 5.182,2.719 3.306,0.826 4.806,1.807 5.852,2.231 1.047,0.425 3.651,1.331 4.363,1.545 0.714,0.215 3.91,1.037 4.586,1.224 0.677,0.188 6.307,1.885 7.126,2.202 0.819,0.317 2.489,1.036 3.443,0.759 0.954,-0.278 2.111,-0.46 2.817,-2.645 0,0 0.189,-2.66 -2.217,-1.967 0,0 -0.55,0.282 -0.577,0.355 0,0 0.25,0.45 -0.264,0.758 -0.516,0.309 -0.842,0.467 -2.973,0.266 -2.133,-0.202 -4.131,-0.409 -4.908,-0.553 -0.777,-0.143 -3.632,-0.632 -5.194,-1.311 -1.562,-0.678 -3.873,-1.891 -5.135,-2.41 -1.263,-0.519 -3.858,-1.351 -4.828,-1.858 -0.969,-0.507 -3.006,-1.512 -3.862,-2.405 -0.855,-0.893 -1.624,-1.501 -2.198,-4.108 z"
       style="fill:none;stroke:#231f20;stroke-width:0.25;stroke-linecap:round;stroke-linejoin:round;stroke-miterlimit:4;stroke-dasharray:none;stroke-opacity:1"
       id="path414" />
  </g>
</svg>
