<?xml version="1.0" encoding="UTF-8" standalone="no"?>
<!-- Created with Inkscape (http://www.inkscape.org/) -->

<svg
   version="1.1"
   id="svg2"
   width="1440"
   height="1344"
   viewBox="0 0 1440 1344"
   xmlns="http://www.w3.org/2000/svg"
   xmlns:svg="http://www.w3.org/2000/svg">
  <defs
     id="defs6" />
  <g
     id="g8">
    <g
       id="g12">
    <path
       d="m 892.839,576.596 c 19.832,-11.297 32.166,8.74 36.526,18.131 4.357,9.389 5.326,23.52 6.287,36.363 0.959,12.846 -2.936,20.56 -9.119,24.251 5.599,2.245 9.349,14.981 9.738,20.935 0.391,5.953 0.391,19.398 -7.205,27.464 -2.727,2.689 -1.363,7.49 -0.584,9.603 0.777,2.113 0.193,9.219 -4.48,11.908 -4.674,2.689 -8.272,0.841 -10.128,2.305 -2.921,2.304 -0.595,6.902 -2.921,9.603 -3.311,3.841 -10.498,4.207 -13.049,5.378 -2.922,1.344 -7.985,5.186 -11.297,9.027 -3.311,3.841 -8.373,7.49 -11.49,5.762 1.168,4.033 -5.065,15.748 -15.971,18.822 -10.906,3.073 -27.654,0.575 -44.988,-13.445 -2.727,5.186 -14.996,8.643 -20.645,7.875 -5.648,-0.768 -15.191,-5.762 -26.099,-15.749 -10.905,-9.988 -20.254,-21.319 -19.28,-29.002 -3.506,2.69 -9.933,-5.186 -11.881,-7.106 -1.947,-1.921 -11.49,-12.676 -14.218,-16.325 -2.727,-3.649 -8.764,-13.252 -9.737,-16.901 2.336,8.835 -0.779,15.749 -1.947,18.245 -1.17,2.497 -4.285,9.219 -8.764,13.637 8.764,-4.61 20.838,-1.345 26.682,2.113 5.842,3.456 24.539,22.663 30.967,40.908 6.426,18.247 7.746,29.896 2.336,49.552 -3.699,13.445 -9.154,15.749 -14.217,19.014 -5.064,3.265 -24.746,16.158 -76.932,30.73 -22.005,6.146 -46.935,7.491 -51.609,8.835 -6.623,3.073 -27.656,5.186 -33.5,5.762 -5.842,0.576 -28.238,3.649 -49.078,3.073 -20.84,-0.576 -41.485,2.689 -71.477,-2.497 -29.994,-5.186 -86.085,-11.908 -100.302,-12.868 -14.218,-0.96 -81.41,-11.524 -99.717,-16.325 -18.307,-4.802 -50.443,-13.253 -69.529,-27.465 -19.086,-14.213 -35.641,-33.61 -39.926,-56.466 -4.285,-22.856 -1.753,-37.836 4.479,-52.432 6.19,-14.496 9.933,-19.976 11.102,-21.704 -4.48,4.225 -13.634,6.53 -19.087,3.65 -5.453,-2.882 -5.258,-13.061 -2.726,-21.896 2.532,-8.835 18.697,-40.525 37.783,-66.453 19.086,-25.928 45.963,-58.578 54.144,-68.182 8.179,-9.602 10.711,-12.292 12.659,-15.364 1.947,-3.072 6.427,-7.107 11.101,-9.795 4.674,-2.69 8.375,-9.22 14.607,-13.829 6.233,-4.609 13.244,-12.868 17.334,-16.325 4.09,-3.457 12.27,-9.411 15.97,-10.948 3.701,-1.537 16.944,-4.224 19.281,-3.649 2.338,0.577 10.712,2.497 14.023,4.034 3.311,1.536 6.427,3.979 10.711,3.84 5.844,-0.192 10.128,-4.992 13.245,-6.722 3.115,-1.727 22.397,-1.152 28.239,-1.152 5.844,0 22.203,-1.536 50.443,6.145 18.697,5.379 39.342,12.678 62.713,22.856 26.877,11.704 35.641,21.703 36.615,24.008 0.974,2.304 1.752,4.418 -0.779,6.914 6.427,-0.385 20.645,7.299 19.477,15.749 6.425,1.921 21.033,13.253 28.824,17.862 7.789,4.609 13.633,9.027 17.139,10.564 3.505,1.536 11.294,4.993 14.8,9.026 3.506,4.033 8.393,9.657 10.711,9.986 1.365,0.194 -0.193,-5.377 0.975,-9.025 1.168,-3.65 2.922,-9.987 2.338,-14.981 -0.586,-4.994 -3.701,-27.081 -3.117,-30.346 0.585,-3.265 1.363,-4.801 0.585,-6.531 -0.781,-1.728 -6.83,-17.435 -6.622,-20.55 0.388,-5.761 8.144,-8.006 7.79,-14.596 -0.195,-3.648 -1.168,-6.338 1.168,-8.067 1.102,-0.81 17.51,-3.919 22.204,-4.994 8.373,-1.92 22.718,-11.138 31.744,-14.404 6.922,-2.503 23.957,-5.185 29.799,-5.762 5.843,-0.576 12.66,-1.152 15.97,-1.728 3.311,-0.576 15.192,-0.961 19.672,-0.576 4.479,0.384 17.527,-0.385 21.229,-1.922 3.699,-1.535 11.49,-6.337 17.918,-8.449 6.425,-2.114 26.486,-4.418 33.109,-4.61 6.621,-0.192 24.93,-0.192 33.887,2.881 8.959,3.072 11.297,7.298 14.412,8.258 3.117,0.961 19.088,2.882 31.357,11.717 12.27,8.834 15.58,18.052 15.58,22.47 0,4.418 -1.558,14.212 -6.232,20.166 -4.674,5.955 -18.891,17.287 -25.318,20.743 -6.428,3.458 -11.295,4.994 -15.192,9.027 -3.894,4.033 -16.359,13.828 -28.433,15.75 11.099,1.152 24.539,3.84 27.265,4.609 2.727,0.768 14.996,7.491 12.658,19.59 z m -302.086,161.82 c 21.618,-12.676 51.041,-16.238 57.079,-16.046 3.015,0.097 4.947,0.426 7.068,0.991 -2.143,-1.153 -11.547,-7.329 -16.221,-11.17 -4.674,-3.841 -10.238,-9.162 -13.615,-15.521 -2.137,2.437 -4.072,3.614 -4.889,4.19 -1.361,0.96 -3.699,1.728 -5.257,2.112 -1.557,0.384 -2.143,2.305 -0.584,2.881 3.007,1.11 5.841,5.57 5.064,8.835 -0.779,3.265 -4.285,9.219 -15.191,8.066 -10.909,-1.152 -15.583,-9.218 -14.413,-12.291 1.168,-3.074 4.09,-4.61 8.375,-6.723 1.424,-0.702 -0.585,-1.92 -2.921,-3.265 -2.338,-1.344 -5.899,-4.111 -8.571,-6.914 -4.029,-4.226 -4.09,-7.01 -5.648,-7.01 0,6.146 -4.479,20.838 -20.838,28.521 -0.143,0.067 -0.283,0.133 -0.424,0.198 8.375,-0.192 16.588,1.915 24.184,5.564 7.595,3.649 9.318,6.524 8.57,13.444 -0.168,1.539 -0.813,2.905 -1.768,4.138"
       style="fill:#ffffff;fill-opacity:1;fill-rule:nonzero;stroke:none;stroke-width:0.1"
       id="path726" />
    <path
       d="m 892.839,576.596 c 19.832,-11.297 32.166,8.74 36.526,18.131 4.357,9.389 5.326,23.52 6.287,36.363 0.959,12.846 -2.936,20.56 -9.119,24.251 5.599,2.245 9.349,14.981 9.738,20.935 0.391,5.953 0.391,19.398 -7.205,27.464 -2.727,2.689 -1.363,7.49 -0.584,9.603 0.777,2.113 0.193,9.219 -4.48,11.908 -4.674,2.689 -8.272,0.841 -10.128,2.305 -2.921,2.304 -0.595,6.902 -2.921,9.603 -3.311,3.841 -10.498,4.207 -13.049,5.378 -2.922,1.344 -7.985,5.186 -11.297,9.027 -3.311,3.841 -8.373,7.49 -11.49,5.762 1.168,4.033 -5.065,15.748 -15.971,18.822 -10.906,3.073 -27.654,0.575 -44.988,-13.445 -2.727,5.186 -14.996,8.643 -20.645,7.875 -5.648,-0.768 -15.191,-5.762 -26.099,-15.749 -10.905,-9.988 -20.254,-21.319 -19.28,-29.002 -3.506,2.69 -9.933,-5.186 -11.881,-7.106 -1.947,-1.921 -11.49,-12.676 -14.218,-16.325 -2.727,-3.649 -8.764,-13.252 -9.737,-16.901 2.336,8.835 -0.779,15.749 -1.947,18.245 -1.17,2.497 -4.285,9.219 -8.764,13.637 8.764,-4.61 20.838,-1.345 26.682,2.113 5.842,3.456 24.539,22.663 30.967,40.908 6.426,18.247 7.746,29.896 2.336,49.552 -3.699,13.445 -9.154,15.749 -14.217,19.014 -5.064,3.265 -24.746,16.158 -76.932,30.73 -22.005,6.146 -46.935,7.491 -51.609,8.835 -6.623,3.073 -27.656,5.186 -33.5,5.762 -5.842,0.576 -28.238,3.649 -49.078,3.073 -20.84,-0.576 -41.485,2.689 -71.477,-2.497 -29.994,-5.186 -86.085,-11.908 -100.302,-12.868 -14.218,-0.96 -81.41,-11.524 -99.717,-16.325 -18.307,-4.802 -50.443,-13.253 -69.529,-27.465 -19.086,-14.213 -35.641,-33.61 -39.926,-56.466 -4.285,-22.856 -1.753,-37.836 4.479,-52.432 6.19,-14.496 9.933,-19.976 11.102,-21.704 -4.48,4.225 -13.634,6.53 -19.087,3.65 -5.453,-2.882 -5.258,-13.061 -2.726,-21.896 2.532,-8.835 18.697,-40.525 37.783,-66.453 19.086,-25.928 45.963,-58.578 54.144,-68.182 8.179,-9.602 10.711,-12.292 12.659,-15.364 1.947,-3.072 6.427,-7.107 11.101,-9.795 4.674,-2.69 8.375,-9.22 14.607,-13.829 6.233,-4.609 13.244,-12.868 17.334,-16.325 4.09,-3.457 12.27,-9.411 15.97,-10.948 3.701,-1.537 16.944,-4.224 19.281,-3.649 2.338,0.577 10.712,2.497 14.023,4.034 3.311,1.536 6.427,3.979 10.711,3.84 5.844,-0.192 10.128,-4.992 13.245,-6.722 3.115,-1.727 22.397,-1.152 28.239,-1.152 5.844,0 22.203,-1.536 50.443,6.145 18.697,5.379 39.342,12.678 62.713,22.856 26.877,11.704 35.641,21.703 36.615,24.008 0.974,2.304 1.752,4.418 -0.779,6.914 6.427,-0.385 20.645,7.299 19.477,15.749 6.425,1.921 21.033,13.253 28.824,17.862 7.789,4.609 13.633,9.027 17.139,10.564 3.505,1.536 11.294,4.993 14.8,9.026 3.506,4.033 8.393,9.657 10.711,9.986 1.365,0.194 -0.193,-5.377 0.975,-9.025 1.168,-3.65 2.922,-9.987 2.338,-14.981 -0.586,-4.994 -3.701,-27.081 -3.117,-30.346 0.585,-3.265 1.363,-4.801 0.585,-6.531 -0.781,-1.728 -6.83,-17.435 -6.622,-20.55 0.388,-5.761 8.144,-8.006 7.79,-14.596 -0.195,-3.648 -1.168,-6.338 1.168,-8.067 1.102,-0.81 17.51,-3.919 22.204,-4.994 8.373,-1.92 22.718,-11.138 31.744,-14.404 6.922,-2.503 23.957,-5.185 29.799,-5.762 5.843,-0.576 12.66,-1.152 15.97,-1.728 3.311,-0.576 15.192,-0.961 19.672,-0.576 4.479,0.384 17.527,-0.385 21.229,-1.922 3.699,-1.535 11.49,-6.337 17.918,-8.449 6.425,-2.114 26.486,-4.418 33.109,-4.61 6.621,-0.192 24.93,-0.192 33.887,2.881 8.959,3.072 11.297,7.298 14.412,8.258 3.117,0.961 19.088,2.882 31.357,11.717 12.27,8.834 15.58,18.052 15.58,22.47 0,4.418 -1.558,14.212 -6.232,20.166 -4.674,5.955 -18.891,17.287 -25.318,20.743 -6.428,3.458 -11.295,4.994 -15.192,9.027 -3.894,4.033 -16.359,13.828 -28.433,15.75 11.099,1.152 24.539,3.84 27.265,4.609 2.727,0.768 14.996,7.491 12.658,19.59 z m -302.086,161.82 c 21.618,-12.676 51.041,-16.238 57.079,-16.046 3.015,0.097 4.947,0.426 7.068,0.991 -2.143,-1.153 -11.547,-7.329 -16.221,-11.17 -4.674,-3.841 -10.238,-9.162 -13.615,-15.521 -2.137,2.437 -4.072,3.614 -4.889,4.19 -1.361,0.96 -3.699,1.728 -5.257,2.112 -1.557,0.384 -2.143,2.305 -0.584,2.881 3.007,1.11 5.841,5.57 5.064,8.835 -0.779,3.265 -4.285,9.219 -15.191,8.066 -10.909,-1.152 -15.583,-9.218 -14.413,-12.291 1.168,-3.074 4.09,-4.61 8.375,-6.723 1.424,-0.702 -0.585,-1.92 -2.921,-3.265 -2.338,-1.344 -5.899,-4.111 -8.571,-6.914 -4.029,-4.226 -4.09,-7.01 -5.648,-7.01 0,6.146 -4.479,20.838 -20.838,28.521 -0.143,0.067 -0.283,0.133 -0.424,0.198 8.375,-0.192 16.588,1.915 24.184,5.564 7.595,3.649 9.318,6.524 8.57,13.444 -0.168,1.539 -0.813,2.905 -1.768,4.138 z"
       style="fill:none;stroke:#231f20;stroke-width:0.75;stroke-linecap:butt;stroke-linejoin:miter;stroke-miterlimit:4;stroke-dasharray:none;stroke-opacity:1"
       id="path728" />
    <path
       d="m 660.9,777.187 c -9.738,1.536 -23.779,4.338 -29.232,4.53 -5.454,0.192 -15.192,2.305 -24.54,4.802 -9.349,2.497 -40.705,11.908 -64.855,12.868 -24.15,0.96 -37.004,0.96 -62.323,-11.332 -25.319,-12.292 -33.888,-26.12 -42.653,-32.266"
       style="fill:none;stroke:#231f20;stroke-width:0.5;stroke-linecap:butt;stroke-linejoin:miter;stroke-miterlimit:4;stroke-dasharray:none;stroke-opacity:1"
       id="path730" />
    <path
       d="m 504.878,724.686 c -1.168,1.92 -0.778,4.791 0,6.903 -4.089,-2.112 -17.527,-6.146 -24.344,-6.53 -6.817,-0.384 -19.476,1.152 -24.345,2.305 -4.869,1.153 -10.711,3.841 -13.244,7.49 -2.532,3.649 -3.7,12.676 -2.337,16.902 1.364,4.225 6.622,11.331 13.244,17.093 6.622,5.762 12.659,10.372 23.761,15.557 11.101,5.186 19.865,8.835 28.24,10.563 8.375,1.729 24.54,2.689 38.951,1.537 14.412,-1.152 25.125,-6.146 28.824,-7.682 2.051,-0.853 9.836,-4.34 18.905,-9.388 7.273,-4.045 15.234,-9.242 22.775,-13.852 7.777,-4.753 9.152,-4.963 11.49,-4.801 5.649,0.384 7.985,4.417 12.854,7.874 4.869,3.457 12.66,7.875 20.06,8.451 7.401,0.576 17.723,1.344 19.866,1.152 2.142,-0.192 2.338,0.961 0.195,2.305 -2.143,1.344 -8.57,4.994 -35.252,9.795 -26.682,4.802 -65.828,11.716 -74.398,12.868 -8.569,1.153 -30.381,4.418 -46.158,4.418 -15.775,0 -32.525,-5.57 -51.027,-14.981 -18.502,-9.412 -38.173,-23.624 -61.738,-30.346 -23.566,-6.722 -67.193,-11.908 -79.852,-13.636 -12.66,-1.729 -36.81,-4.994 -44.211,-6.914 -7.4,-1.921 -22.786,-6.723 -27.071,-12.676 -4.285,-5.954 -6.622,-16.326 -6.038,-24.584 0.584,-8.259 6.817,-22.088 11.491,-32.459 4.632,-10.281 6.817,-15.941 9.154,-24.968 2.337,-9.026 3.3,-22.47 3.3,-22.47"
       style="fill:none;stroke:#231f20;stroke-width:0.5;stroke-linecap:butt;stroke-linejoin:miter;stroke-miterlimit:4;stroke-dasharray:none;stroke-opacity:1"
       id="path732" />
    <path
       d="m 590.753,738.416 c -2.384,3.077 -6.693,5.329 -10.308,7.386 -5.063,2.881 -29.932,16.054 -33.693,17.862 -7.206,3.456 -10.456,5.095 -23.956,4.225 -17.278,-1.11 -30.187,-6.914 -39.34,-11.332"
       style="fill:none;stroke:#231f20;stroke-width:0.5;stroke-linecap:butt;stroke-linejoin:miter;stroke-miterlimit:4;stroke-dasharray:none;stroke-opacity:1"
       id="path734" />
    <path
       d="m 597.265,704.163 c 4.09,-0.96 10.836,-0.807 17.069,1.69"
       style="fill:none;stroke:#231f20;stroke-width:0.5;stroke-linecap:butt;stroke-linejoin:miter;stroke-miterlimit:4;stroke-dasharray:none;stroke-opacity:1"
       id="path736" />
    <path
       d="m 701.587,717.377 c -6.623,4.225 -17.097,10.965 -22.789,11.331 -8.959,0.577 -14.412,-2.497 -19.474,-4.033 -1.744,-0.528 -3.121,-0.966 -4.424,-1.314"
       style="fill:none;stroke:#231f20;stroke-width:0.75;stroke-linecap:round;stroke-linejoin:round;stroke-miterlimit:4;stroke-dasharray:none;stroke-opacity:1"
       id="path738" />
    <path
       d="m 490.077,723.402 c 0.39,-1.249 1.947,-1.608 3.895,-1.416 1.948,0.192 13.633,1.056 16.847,0.96 3.213,-0.095 7.206,0.096 16.75,-1.632 9.202,-1.668 14.704,-3.553 17.528,-5.186 2.824,-1.632 2.922,-2.304 4.188,-2.977 1.265,-0.672 3.31,-0.384 5.841,-0.863 2.534,-0.481 7.012,-2.401 9.836,-4.514 2.825,-2.113 7.596,-7.683 9.153,-10.467 1.558,-2.786 3.117,-8.163 4.285,-9.316 1.168,-1.152 2.07,-0.864 2.461,-0.288"
       style="fill:none;stroke:#231f20;stroke-width:0.5;stroke-linecap:butt;stroke-linejoin:miter;stroke-miterlimit:4;stroke-dasharray:none;stroke-opacity:1"
       id="path740" />
    <path
       d="m 437.297,755.789 c -3.408,-5.954 -5.648,-14.789 -6.622,-18.822 -0.973,-4.033 -7.595,-16.133 -8.764,-21.319 -1.169,-5.185 -2.142,-9.411 -2.921,-11.524 -0.779,-2.113 -1.948,-6.337 -2.24,-9.411 -0.682,1.249 -1.448,1.153 -1.851,1.153 -0.973,0 -1.85,-0.865 -2.726,-2.881 0.876,4.993 1.948,8.162 3.7,12.964 1.65,4.52 3.232,10.185 3.409,12.58 0.292,4.033 -1.418,8.919 -3.214,13.252 -1.753,4.226 -2.434,6.53 -5.258,8.643 3.7,1.44 14.801,7.971 18.112,9.795 3.311,1.824 5.162,3.169 8.375,5.57"
       style="fill:#706d6e;fill-opacity:1;fill-rule:nonzero;stroke:none;stroke-width:0.1"
       id="path742" />
    <path
       d="m 437.297,755.789 c -3.408,-5.954 -5.648,-14.789 -6.622,-18.822 -0.973,-4.033 -7.595,-16.133 -8.764,-21.319 -1.169,-5.185 -2.142,-9.411 -2.921,-11.524 -0.779,-2.113 -1.948,-6.337 -2.24,-9.411 -0.682,1.249 -1.448,1.153 -1.851,1.153 -0.973,0 -1.85,-0.865 -2.726,-2.881 0.876,4.993 1.948,8.162 3.7,12.964 1.65,4.52 3.232,10.185 3.409,12.58 0.292,4.033 -1.418,8.919 -3.214,13.252 -1.753,4.226 -2.434,6.53 -5.258,8.643 3.7,1.44 14.801,7.971 18.112,9.795 3.311,1.824 5.162,3.169 8.375,5.57 z"
       style="fill:none;stroke:#231f20;stroke-width:0.75;stroke-linecap:butt;stroke-linejoin:miter;stroke-miterlimit:4;stroke-dasharray:none;stroke-opacity:1"
       id="path744" />
    <path
       d="m 289.475,536.647 c 0.194,3.65 -1.753,7.395 -3.506,11.14 -1.753,3.745 -10.907,20.743 -11.978,26.409 -1.071,5.666 -0.876,10.946 -0.681,15.844 0.194,4.898 2.142,17.863 3.213,23.527 1.071,5.666 2.672,22.094 3.019,26.217 0.487,5.761 -1.071,12.004 -1.851,16.517 -0.778,4.513 -7.303,35.723 -4.187,48.015 3.117,12.292 16.944,19.207 23.761,23.24 5.757,3.409 12.855,5.186 23.955,8.066 11.101,2.881 26.877,5.378 32.915,5.762 6.037,0.385 22.787,1.153 29.603,0.192 6.817,-0.96 23.566,-2.304 27.072,-1.152"
       style="fill:none;stroke:#231f20;stroke-width:0.5;stroke-linecap:butt;stroke-linejoin:miter;stroke-miterlimit:4;stroke-dasharray:none;stroke-opacity:1"
       id="path746" />
    <path
       d="m 197.938,658.222 c -7.012,3.841 -17.334,12.868 -21.424,16.517 -4.09,3.649 -9.543,7.875 -13.438,6.722 -3.896,-1.152 -4.675,-3.649 -4.48,-6.146 0.195,-2.497 0.974,-9.603 4.674,-19.206 3.701,-9.603 15.776,-29.577 22.398,-39.948 6.622,-10.371 24.15,-35.916 28.629,-42.254 4.48,-6.338 16.36,-20.551 18.502,-24.199 2.143,-3.649 16.075,-21.121 18.023,-24.001"
       style="fill:none;stroke:#231f20;stroke-width:0.5;stroke-linecap:butt;stroke-linejoin:miter;stroke-miterlimit:4;stroke-dasharray:none;stroke-opacity:1"
       id="path748" />
    <path
       d="m 170.866,687.607 c 4.674,-5.762 21.618,-24.583 33.694,-35.723 12.074,-11.14 22.202,-21.127 25.123,-24.584"
       style="fill:none;stroke:#231f20;stroke-width:0.5;stroke-linecap:butt;stroke-linejoin:miter;stroke-miterlimit:4;stroke-dasharray:none;stroke-opacity:1"
       id="path750" />
    <path
       d="m 365.236,565.84 c 2.806,-1.386 0.779,-5.377 -0.779,-7.49 -1.558,-2.113 -3.506,-4.994 -5.064,-6.53 -1.558,-1.536 -7.596,-1.729 -8.569,-0.96 -0.974,0.768 -2.727,3.264 -0.389,5.762 2.337,2.496 6.816,6.337 9.153,7.681 2.337,1.346 3.701,2.498 5.648,1.537 z"
       style="fill:none;stroke:#231f20;stroke-width:0.5;stroke-linecap:butt;stroke-linejoin:miter;stroke-miterlimit:4;stroke-dasharray:none;stroke-opacity:1"
       id="path752" />
    <path
       d="m 516.954,538.76 c 4.285,0 17.723,-2.881 26.878,-2.304 9.153,0.576 16.943,1.727 22.787,4.032 -9.155,-4.993 -23.567,-4.993 -27.657,-4.993 -4.089,0 -14.997,1.92 -20.061,2.304 -5.063,0.385 -8.563,-1.326 -12.464,-3.457 -4.346,-2.371 -10.322,-2.497 -12.465,-1.343 -2.118,1.139 -4.09,2.88 -4.09,2.88 0,0 5.649,-1.728 8.18,-1.343 2.532,0.382 12.076,4.224 18.892,4.224"
       style="fill:#706d6e;fill-opacity:1;fill-rule:nonzero;stroke:none;stroke-width:0.1"
       id="path754" />
    <path
       d="m 516.954,538.76 c 4.285,0 17.723,-2.881 26.878,-2.304 9.153,0.576 16.943,1.727 22.787,4.032 -9.155,-4.993 -23.567,-4.993 -27.657,-4.993 -4.089,0 -14.997,1.92 -20.061,2.304 -5.063,0.385 -8.563,-1.326 -12.464,-3.457 -4.346,-2.371 -10.322,-2.497 -12.465,-1.343 -2.118,1.139 -4.09,2.88 -4.09,2.88 0,0 5.649,-1.728 8.18,-1.343 2.532,0.382 12.076,4.224 18.892,4.224 z"
       style="fill:none;stroke:#231f20;stroke-width:0.75;stroke-linecap:butt;stroke-linejoin:miter;stroke-miterlimit:4;stroke-dasharray:none;stroke-opacity:1"
       id="path756" />
    <path
       d="m 412.173,692.985 c -3.116,-3.457 -7.79,-6.338 -8.959,-10.756 -1.169,-4.417 -2.337,-7.106 -5.064,-9.603 -2.726,-2.497 -3.365,-4.453 -2.531,-5.569 1.503,-2.017 2.607,-0.056 4.09,0 2.525,0.095 2.931,-1.106 3.31,-4.61 0.604,-5.568 -2.556,-0.456 -3.505,-4.225 -0.737,-2.893 0.389,-5.954 1.947,-9.988 1.558,-4.032 1.169,-6.721 0.195,-7.874 -0.973,-1.152 -2.142,1.921 -3.116,-1.345 -0.974,-3.265 0.585,-6.913 1.753,-10.37 1.168,-3.458 2.532,-8.451 0.779,-14.213 -1.753,-5.762 1.753,-11.908 3.895,-14.98 2.143,-3.074 3.701,-4.61 4.479,-9.412 0.78,-4.801 2.727,-7.874 1.169,-10.563 -1.558,-2.689 -4.09,-5.762 -2.921,-8.259 1.168,-2.497 3.31,-2.497 4.869,-3.073 1.558,-0.576 6.232,-2.496 9.933,-6.146 3.7,-3.649 5.484,-6.854 11.49,-9.602 5.922,-2.714 20.255,-5.379 23.566,-5.955 3.311,-0.576 16.165,-3.265 21.229,-4.992 5.064,-1.73 8.959,-4.227 11.101,-5.571"
       style="fill:none;stroke:#231f20;stroke-width:0.5;stroke-linecap:butt;stroke-linejoin:miter;stroke-miterlimit:4;stroke-dasharray:none;stroke-opacity:1"
       id="path758" />
    <path
       d="m 412.173,692.985 c -1.363,-3.841 -2.365,-11.829 1.948,-17.67 4.585,-6.211 12.464,1.729 13.828,3.266 1.363,1.536 4.09,4.993 4.675,7.105"
       style="fill:none;stroke:#231f20;stroke-width:0.5;stroke-linecap:butt;stroke-linejoin:miter;stroke-miterlimit:4;stroke-dasharray:none;stroke-opacity:1"
       id="path760" />
    <path
       d="m 612.642,568.985 c -2.531,3.457 -7.932,2.347 -11.746,0.889 -6.039,-2.305 -19.867,-14.981 -27.072,-19.399 -7.205,-4.416 -14.801,-9.41 -26.877,-8.834 -12.074,0.576 -26.877,5.186 -32.525,6.53 -5.648,1.344 -13.633,0.768 -14.023,-3.073 -5.063,4.993 -19.086,17.478 -21.813,19.399 -2.727,1.919 -5.842,9.795 -20.06,15.939 -13.256,5.732 -23.761,5.57 -31.746,14.406 -7.431,8.216 -10.322,20.358 -12.659,32.842 -2.337,12.484 -2.703,32.716 -1.169,36.491 1.169,2.882 10.128,7.875 12.659,9.988 2.533,2.113 0.974,3.073 0.974,3.073"
       style="fill:none;stroke:#231f20;stroke-width:0.5;stroke-linecap:butt;stroke-linejoin:miter;stroke-miterlimit:4;stroke-dasharray:none;stroke-opacity:1"
       id="path762" />
    <path
       d="m 437.492,538.184 c -0.438,-5.204 2.142,-7.49 4.48,-8.451 2.337,-0.96 4.674,-2.305 7.595,-2.497 2.922,-0.193 6.427,1.345 8.959,2.306 2.532,0.958 5.453,2.496 8.375,2.879 2.921,0.384 8.958,-0.383 10.907,1.153 1.947,1.536 3.21,2.268 2.142,3.841 -2.081,3.064 -22.982,3.841 -28.046,4.226 -5.063,0.384 -13.828,3.457 -14.412,-3.457 z"
       style="fill:none;stroke:#231f20;stroke-width:0.5;stroke-linecap:butt;stroke-linejoin:miter;stroke-miterlimit:4;stroke-dasharray:none;stroke-opacity:1"
       id="path764" />
    <path
       d="m 542.273,628.26 c 0,0 1.631,6.369 1.169,9.796 -1.474,10.911 -1.559,13.06 -3.116,20.358 -1.346,6.308 -3.506,9.795 -6.428,12.292 -2.921,2.497 -8.959,8.45 -15.581,14.404 -6.622,5.954 -19.086,20.359 -19.086,20.359 0,0 -1.184,1.935 -2.143,0.96 -0.719,-0.732 0.39,-1.728 0.39,-1.728 0,0 4.285,-5.954 6.232,-8.259 1.948,-2.305 24.151,-24.968 26.488,-31.306 2.337,-6.338 -0.39,-20.166 -0.78,-24.2 -0.389,-4.033 3.578,-9.147 7.986,-13.636 1.566,-1.594 3.809,-1.641 4.869,0.96 z"
       style="fill:none;stroke:#231f20;stroke-width:0.5;stroke-linecap:butt;stroke-linejoin:miter;stroke-miterlimit:4;stroke-dasharray:none;stroke-opacity:1"
       id="path766" />
    <path
       d="m 875.117,757.326 c -6.233,-7.107 -21.813,-22.088 -26.682,-26.121 -4.869,-4.033 -10.711,-13.444 -13.633,-17.477 -2.922,-4.034 -6.623,-9.988 -11.685,-14.405 -5.065,-4.417 -9.35,-10.564 -10.323,-12.292"
       style="fill:none;stroke:#231f20;stroke-width:0.5;stroke-linecap:butt;stroke-linejoin:miter;stroke-miterlimit:4;stroke-dasharray:none;stroke-opacity:1"
       id="path768" />
    <path
       d="m 814.158,762.703 c -0.391,-8.066 -3.701,-22.855 -10.323,-35.531"
       style="fill:none;stroke:#231f20;stroke-width:0.5;stroke-linecap:butt;stroke-linejoin:miter;stroke-miterlimit:4;stroke-dasharray:none;stroke-opacity:1"
       id="path770" />
    <path
       d="m 914.027,727.364 c -7.207,-5.186 -22.94,-16.134 -28.977,-22.279 -6.039,-6.146 -7.011,-10.948 -8.57,-16.326 -1.559,-5.377 -1.947,-9.219 -7.4,-14.788 -5.454,-5.57 -28.629,-20.935 -35.057,-24.2"
       style="fill:none;stroke:#231f20;stroke-width:0.5;stroke-linecap:butt;stroke-linejoin:miter;stroke-miterlimit:4;stroke-dasharray:none;stroke-opacity:1"
       id="path772" />
    <path
       d="m 926.533,655.341 c -7.205,0.768 -10.907,1.344 -16.164,-0.768 -5.258,-2.113 -12.27,-6.53 -13.633,-7.683"
       style="fill:none;stroke:#231f20;stroke-width:0.5;stroke-linecap:butt;stroke-linejoin:miter;stroke-miterlimit:4;stroke-dasharray:none;stroke-opacity:1"
       id="path774" />
    <path
       d="m 831.296,602.332 c 6.038,-0.96 9.932,-2.304 18.307,-0.96 8.375,1.343 13.828,3.648 16.555,5.185 2.726,1.537 6.683,2.774 9.543,-0.384 3.31,-3.649 6.232,-9.602 7.402,-12.484 1.168,-2.881 6.621,-14.403 9.736,-17.093"
       style="fill:none;stroke:#231f20;stroke-width:0.5;stroke-linecap:butt;stroke-linejoin:miter;stroke-miterlimit:4;stroke-dasharray:none;stroke-opacity:1"
       id="path776" />
    <path
       d="m 852.916,552.397 c -4.286,1.152 -40.317,12.483 -45.77,12.676 4.285,2.496 7.596,10.755 6.428,15.556 2.92,-6.914 7.984,-10.755 9.736,-11.715 1.754,-0.96 9.154,-3.265 11.686,-4.611 2.533,-1.344 4.869,-4.801 8.375,-7.105 3.505,-2.305 6.232,-3.266 9.545,-4.801"
       style="fill:#706d6e;fill-opacity:1;fill-rule:nonzero;stroke:none;stroke-width:0.1"
       id="path778" />
    <path
       d="m 852.916,552.397 c -4.286,1.152 -40.317,12.483 -45.77,12.676 4.285,2.496 7.596,10.755 6.428,15.556 2.92,-6.914 7.984,-10.755 9.736,-11.715 1.754,-0.96 9.154,-3.265 11.686,-4.611 2.533,-1.344 4.869,-4.801 8.375,-7.105 3.505,-2.305 6.232,-3.266 9.545,-4.801 z"
       style="fill:none;stroke:#231f20;stroke-width:0.75;stroke-linecap:butt;stroke-linejoin:miter;stroke-miterlimit:4;stroke-dasharray:none;stroke-opacity:1"
       id="path780" />
    <path
       d="m 788.253,592.729 c 8.959,0.192 12.465,-1.921 15.971,-3.649 3.506,-1.729 7.986,-4.226 9.35,-8.451"
       style="fill:none;stroke:#231f20;stroke-width:0.5;stroke-linecap:butt;stroke-linejoin:miter;stroke-miterlimit:4;stroke-dasharray:none;stroke-opacity:1"
       id="path782" />
    <path
       d="m 778.906,605.597 c -1.754,-3.649 -1.364,-11.331 -0.389,-15.557 0.973,-4.225 5.258,-16.517 9.543,-19.59 4.283,-3.073 7.596,-3.842 11.879,-4.034 4.285,-0.191 7.207,-1.343 7.207,-1.343"
       style="fill:none;stroke:#231f20;stroke-width:0.5;stroke-linecap:butt;stroke-linejoin:miter;stroke-miterlimit:4;stroke-dasharray:none;stroke-opacity:1"
       id="path784" />
    <path
       d="m 673.345,630.757 c 2.143,-5.761 3.313,-16.71 2.338,-23.432"
       style="fill:none;stroke:#231f20;stroke-width:0.5;stroke-linecap:butt;stroke-linejoin:miter;stroke-miterlimit:4;stroke-dasharray:none;stroke-opacity:1"
       id="path786" />
    <path
       d="m 679.773,631.717 c 2.92,-8.451 2.92,-19.783 2.531,-25.544"
       style="fill:none;stroke:#231f20;stroke-width:0.5;stroke-linecap:butt;stroke-linejoin:miter;stroke-miterlimit:4;stroke-dasharray:none;stroke-opacity:1"
       id="path788" />
    <path
       d="m 681.525,582.034 c 3.117,-1.536 4.09,-5.629 4.09,-5.629"
       style="fill:none;stroke:#231f20;stroke-width:0.5;stroke-linecap:butt;stroke-linejoin:miter;stroke-miterlimit:4;stroke-dasharray:none;stroke-opacity:1"
       id="path790" />
    <path
       d="m 639.191,528.004 c 6.232,3.65 6.889,1.729 10.783,2.881 3.897,1.153 18.113,6.53 24.346,13.637 6.232,7.106 6.621,9.41 10.517,17.669 3.895,8.259 9.932,23.432 11.686,26.505 1.752,3.072 4.049,7.863 8.334,10.167"
       style="fill:none;stroke:#231f20;stroke-width:0.5;stroke-linecap:butt;stroke-linejoin:miter;stroke-miterlimit:4;stroke-dasharray:none;stroke-opacity:1"
       id="path792" />
    <path
       d="m 676.267,500.54 c -2.922,16.133 2.143,34.57 8.18,48.591 6.037,14.02 10.336,22.909 12.269,25.928 3.702,5.762 9.155,10.947 12.272,12.867 2.689,1.658 2.531,2.498 1.363,3.651 -1.17,1.152 -3.324,4.115 -4.492,6.42"
       style="fill:none;stroke:#231f20;stroke-width:0.5;stroke-linecap:butt;stroke-linejoin:miter;stroke-miterlimit:4;stroke-dasharray:none;stroke-opacity:1"
       id="path794" />
    <path
       d="m 759.101,549.768 c 2.531,-3.842 0.328,-7.936 -2.203,-9.471 -2.531,-1.537 -5.842,-1.345 -9.543,1.344 -3.701,2.689 -3.117,5.186 -3.311,6.722 -0.195,1.536 0.584,8.45 1.752,9.602 1.168,1.153 3.569,1.922 7.075,-1.92"
       style="fill:none;stroke:#231f20;stroke-width:0.5;stroke-linecap:butt;stroke-linejoin:miter;stroke-miterlimit:4;stroke-dasharray:none;stroke-opacity:1"
       id="path796" />
    <path
       d="m 680.345,538.184 c -3.894,-3.842 -11.285,-6.914 -21.021,-8.836 -8.479,-1.674 -13.244,-10.371 -14.996,-13.828 -1.754,-3.456 -4.676,-15.026 -7.207,-16.755"
       style="fill:none;stroke:#231f20;stroke-width:0.5;stroke-linecap:butt;stroke-linejoin:miter;stroke-miterlimit:4;stroke-dasharray:none;stroke-opacity:1"
       id="path798" />
    <path
       d="m 660.882,479.413 c 7.594,0.384 24.539,1.921 31.744,0.768 7.208,-1.153 26.098,-9.411 32.721,-12.292 6.621,-2.881 30.967,-10.756 35.252,-11.523"
       style="fill:none;stroke:#231f20;stroke-width:0.5;stroke-linecap:butt;stroke-linejoin:miter;stroke-miterlimit:4;stroke-dasharray:none;stroke-opacity:1"
       id="path800" />
    <path
       d="m 693.017,480.049 c -3.117,-1.92 -6.428,-4.477 -8.18,-6.207 -1.753,-1.727 -1.949,-3.388 -1.363,-3.965"
       style="fill:none;stroke:#231f20;stroke-width:0.5;stroke-linecap:butt;stroke-linejoin:miter;stroke-miterlimit:4;stroke-dasharray:none;stroke-opacity:1"
       id="path802" />
    <path
       d="m 715.947,471.889 c 1.17,-1.728 2.388,-4 -0.338,-6.305 -2.727,-2.304 -5.483,-3.83 -7.041,-4.406"
       style="fill:none;stroke:#231f20;stroke-width:0.5;stroke-linecap:butt;stroke-linejoin:miter;stroke-miterlimit:4;stroke-dasharray:none;stroke-opacity:1"
       id="path804" />
    <path
       d="m 773.648,455.981 c 8.373,-0.385 21.617,-0.768 27.461,-1.729 5.842,-0.96 20.644,-0.767 27.461,0"
       style="fill:none;stroke:#231f20;stroke-width:0.5;stroke-linecap:butt;stroke-linejoin:miter;stroke-miterlimit:4;stroke-dasharray:none;stroke-opacity:1"
       id="path806" />
    <path
       d="m 844.734,462.32 c 1.662,1.3 4.162,2.496 8.642,0.767"
       style="fill:none;stroke:#231f20;stroke-width:0.5;stroke-linecap:butt;stroke-linejoin:miter;stroke-miterlimit:4;stroke-dasharray:none;stroke-opacity:1"
       id="path808" />
    <path
       d="m 745.601,609.63 c -1.947,-6.338 -6.621,-12.483 -12.853,-15.172 -6.233,-2.69 -19.477,-2.114 -24.93,1.92 -5.453,4.035 -9.738,10.564 -11.102,22.279 -1.363,11.717 -0.777,18.822 0.196,21.896 0.974,3.072 4.869,11.523 5.648,15.94 0.779,4.418 9.154,25.16 9.738,29.002"
       style="fill:none;stroke:#231f20;stroke-width:0.75;stroke-linecap:round;stroke-linejoin:miter;stroke-miterlimit:4;stroke-dasharray:none;stroke-opacity:1"
       id="path810" />
    <path
       d="m 852.916,552.397 c -6.819,-0.769 -33.5,-8.451 -39.149,-9.604 -5.646,-1.152 -24.691,-4.28 -33.109,-3.841 -7.401,0.383 -9.739,1.921 -12.074,3.841 -2.338,1.92 -11.491,6.915 -17.918,16.133 -6.428,9.219 -8.959,18.054 -8.18,29.961 0.779,11.908 3.506,17.286 3.115,20.743"
       style="fill:none;stroke:#231f20;stroke-width:0.5;stroke-linecap:butt;stroke-linejoin:miter;stroke-miterlimit:4;stroke-dasharray:none;stroke-opacity:1"
       id="path812" />
    <path
       d="m 698.982,645.869 c 0.709,-0.621 1.238,-1.202 1.562,-1.805 -0.003,-0.005 1.625,2.635 3.768,3.403 -0.973,0.767 -3.055,4.033 -1.887,8.45"
       style="fill:none;stroke:#231f20;stroke-width:0.75;stroke-linecap:round;stroke-linejoin:miter;stroke-miterlimit:4;stroke-dasharray:none;stroke-opacity:1"
       id="path814" />
    <path
       d="m 704.119,647.467 c 13.049,-1.729 22.396,-2.689 39.925,-13.061"
       style="fill:none;stroke:#231f20;stroke-width:0.5;stroke-linecap:butt;stroke-linejoin:miter;stroke-miterlimit:4;stroke-dasharray:none;stroke-opacity:1"
       id="path816" />
    <path
       d="m 700.548,644.069 c 0.483,-0.88 0.528,-1.798 0.065,-2.941 -0.779,-1.92 -4.674,-9.602 -4.674,-9.602"
       style="fill:none;stroke:#231f20;stroke-width:0.5;stroke-linecap:butt;stroke-linejoin:miter;stroke-miterlimit:4;stroke-dasharray:none;stroke-opacity:1"
       id="path818" />
    <path
       d="m 748.134,725.827 c 3.7,-4.033 6.621,-10.179 8.18,-13.444 1.559,-3.265 4.478,-3.841 6.426,-10.372 1.285,-4.314 3.506,-9.794 3.701,-15.364 0.176,-5.023 -0.584,-11.908 0.195,-16.325 0.778,-4.418 3.699,-9.411 4.283,-11.716"
       style="fill:none;stroke:#231f20;stroke-width:0.5;stroke-linecap:butt;stroke-linejoin:miter;stroke-miterlimit:4;stroke-dasharray:none;stroke-opacity:1"
       id="path820" />
    <path
       d="m 559.767,715.27 c -16.101,7.515 -25.576,9.218 -36.581,9.789 -11.101,0.576 -29.798,-1.152 -36.031,-1.92 -6.232,-0.769 -15.191,-0.769 -24.929,-3.073 -9.737,-2.305 -12.269,-6.338 -14.217,-8.836 -1.947,-2.496 -2.337,-6.914 -8.764,-13.252 -6.427,-6.337 -8.88,-5.989 -13.634,-7.106 -4.089,-0.96 -7.108,0.576 -8.861,3.841"
       style="fill:none;stroke:#231f20;stroke-width:0.75;stroke-linecap:round;stroke-linejoin:round;stroke-miterlimit:4;stroke-dasharray:none;stroke-opacity:1"
       id="path822" />
    <path
       d="m 744.628,544.704 c 0.389,-4.995 0.389,-15.162 0,-18.043 -0.39,-2.882 0.973,-3.075 3.506,-4.035 2.532,-0.96 13.049,-4.993 30.188,-4.417 17.138,0.577 28.435,4.995 34.472,7.106 6.038,2.113 18.891,7.875 26.487,9.795 7.595,1.922 13.635,1.922 20.644,1.346 7.012,-0.577 8.959,-1.346 9.739,-2.69 0.779,-1.345 1.363,-4.224 5.843,-3.649 4.479,0.577 13.438,-2.881 17.139,-5.378 3.699,-2.496 14.801,-10.755 17.527,-14.02 2.727,-3.265 8.764,-10.756 10.907,-16.134 2.142,-5.377 0.195,-11.907 -2.143,-15.749 -2.336,-3.841 -6.621,-8.834 -11.684,-11.138 -3.798,-1.73 -3.701,-3.651 -8.959,-4.034 -5.259,-0.384 -13.828,-0.768 -16.361,0.96 -2.531,1.728 -3.894,1.728 -5.064,1.728 -1.168,0 -1.596,-0.664 -0.389,-1.344 0.67,-0.377 2.508,-1.263 3.043,-1.993 1.023,-1.395 13.941,-7.931 21.109,-5.063"
       style="fill:none;stroke:#231f20;stroke-width:0.5;stroke-linecap:butt;stroke-linejoin:miter;stroke-miterlimit:4;stroke-dasharray:none;stroke-opacity:1"
       id="path824" />
    <path
       d="m 637.689,498.043 c 5.063,-0.768 5.469,2.88 8.779,6.53 3.313,3.649 5.453,3.265 14.414,0.961 8.957,-2.306 39.731,-13.446 56.09,-21.32 16.36,-7.874 23.762,-9.987 39.147,-15.556 15.386,-5.571 21.812,-5.762 26.486,-6.147 4.676,-0.384 13.439,0.576 18.699,0.193 5.258,-0.384 14.022,-1.92 20.838,-0.768 3.123,0.527 12.27,1.151 15.582,1.344 3.311,0.191 7.315,-0.795 7.596,-1.537 0.197,-0.524 0,-1.344 -4.092,-1.92 -4.09,-0.576 -9.932,-2.114 -11.686,-3.65 -1.751,-1.536 -0.777,-2.497 0.391,-2.881 1.168,-0.383 5.842,0 8.375,0.193 2.531,0.191 10.928,1.599 11.686,-0.193 1.142,-2.708 -1.559,-2.305 -3.313,-4.416 -1.752,-2.114 -0.389,-2.69 1.17,-3.074 1.559,-0.384 8.59,0.12 12.074,1.152 4.934,1.461 8.305,4.341 10.713,6.338 0.711,0.591 1.252,1.191 1.727,2.059"
       style="fill:none;stroke:#231f20;stroke-width:0.5;stroke-linecap:butt;stroke-linejoin:miter;stroke-miterlimit:4;stroke-dasharray:none;stroke-opacity:1"
       id="path826" />
    <path
       d="m 879.523,463.015 c 0.227,-0.507 -0.166,-1.024 -1.875,-1.464 -4.479,-1.152 -17.334,3.907 -20.838,4.033 -2.84,0.104 -2.879,-0.275 -3.31,-1.728 -0.592,-1.986 1.558,-3.648 4.089,-4.225 2.532,-0.577 10.493,-2.949 12.659,-3.65 3.806,-1.231 10.502,-3.498 15.168,-2.498"
       style="fill:none;stroke:#231f20;stroke-width:0.5;stroke-linecap:butt;stroke-linejoin:miter;stroke-miterlimit:4;stroke-dasharray:none;stroke-opacity:1"
       id="path828" />
    <path
       d="m 678.416,549.647 c 1.082,1.201 5.951,1.668 6.259,-0.089"
       style="fill:none;stroke:#231f20;stroke-width:0.5;stroke-linecap:butt;stroke-linejoin:miter;stroke-miterlimit:4;stroke-dasharray:none;stroke-opacity:1"
       id="path830" />
    <path
       d="m 276.69,566.77 c 3.83,-4.536 13.152,-18.023 14.342,-24.57 1.19,-6.545 -0.559,-7.694 -3.156,-9.004"
       style="fill:none;stroke:#231f20;stroke-width:0.5;stroke-linecap:butt;stroke-linejoin:miter;stroke-miterlimit:4;stroke-dasharray:none;stroke-opacity:1"
       id="path832" />
    <path
       d="m 625.064,696.67 c -0.387,-5.202 -2.252,-9.103 -2.252,-9.103 0.016,10.315 -13.428,9.942 -19.379,8.95 -6.26,-1.043 -18.555,-10.902 -20.656,-16.908 -2.141,-6.111 -2.531,-14.005 -0.578,-19.659 3.115,-9.027 6.129,-8.819 8.959,-8.834 3.945,-0.021 8.22,3.002 11.531,6.267 3.311,3.265 15.176,16.726 18.072,23.694 0.807,1.941 1.613,4.203 2.051,6.49"
       style="fill:none;stroke:#231f20;stroke-width:0.5;stroke-linecap:butt;stroke-linejoin:miter;stroke-miterlimit:4;stroke-dasharray:none;stroke-opacity:1"
       id="path834" />
    <path
       d="m 725.347,467.889 5.352,10.145"
       style="fill:none;stroke:#231f20;stroke-width:0.5;stroke-linecap:butt;stroke-linejoin:miter;stroke-miterlimit:4;stroke-dasharray:none;stroke-opacity:1"
       id="path836" />
    <path
       d="m 783.744,455.551 c 4.353,-2.013 12.88,-6.773 18.236,-7.765 5.355,-0.992 18.447,-2.777 23.803,-3.371 5.355,-0.596 24.795,-0.2 28.365,0 3.57,0.197 9.916,0.298 12.594,-0.149"
       style="fill:none;stroke:#231f20;stroke-width:0.5;stroke-linecap:butt;stroke-linejoin:miter;stroke-miterlimit:4;stroke-dasharray:none;stroke-opacity:1"
       id="path838" />
    <path
       d="m 818.06,578.156 c 0,0 -2.107,4.514 1.654,5.985 3.76,1.469 10.27,-1.367 13.795,-2.681 3.524,-1.313 14.963,-4.083 17.951,-5.176 2.991,-1.096 5.233,-2.076 7.272,-1.45 2.041,0.624 5.266,2.099 2.492,3.622 -2.771,1.52 -13.998,3.964 -20.949,5.306 -6.951,1.34 -12.621,2.243 -16.981,6.133 -4.361,3.892 -6.767,10.871 -7.361,17.088 -0.592,6.217 4.805,11.423 9.854,13.309 5.047,1.888 14.902,1.81 22.418,4.214 7.515,2.404 20.082,6.801 22.767,7.744 2.684,0.94 5.795,1.666 5.795,1.666 0,0 7.188,-5.534 9.154,-7.14 2.887,-2.36 4.77,-3.701 7.346,-5.522 2.83,-1.998 6.432,-3.918 10.994,-6.24 2.09,-1.062 3.213,4.514 3.522,7.925 0.273,3.02 -1.463,3.186 -2.696,3.041 -2.027,-0.239 -3.214,-0.188 -7.808,1.454 -4.592,1.643 -7.477,2.631 -10.871,6.619 -3.395,3.99 -4.563,5.285 -4.424,9.461 0.14,4.176 0.617,9.956 3.639,13.038 3.025,3.082 10.521,10.15 13.058,12.426 3.17,2.844 5.748,8.993 6.838,11.406 0,0 2.533,8.655 3.416,11.968 0.883,3.313 5.055,16.025 5.387,17.415 0.332,1.389 0.131,2.998 -1.065,0.65 -1.197,-2.346 -5.781,-13.02 -6.879,-16.438 -1.099,-3.419 -5.574,-13.879 -7.959,-17.501 -2.384,-3.623 -11.449,-12.226 -12.968,-14.677 -1.518,-2.451 -6.924,-8.727 -10.596,-12.661 -3.674,-3.934 -13.139,-8.999 -16.689,-10.898 -3.549,-1.9 -16.858,-5.328 -25.747,-5.365 -8.89,-0.037 -11.88,1.059 -14.093,5.361 -2.217,4.301 -1.84,11.154 -0.102,14.245 1.736,3.092 10.5,14.054 14.504,19.056 4.002,5.002 12,14.149 15.234,16.693 3.233,2.545 7.555,7.224 8.54,9.786 0.984,2.562 4.248,9.177 6.087,11.411 1.838,2.235 9.27,7.531 11.1,8.48 1.828,0.949 7.303,2.512 8.926,4.641 0,0 -7.535,-4.76 -11.705,-3.977 -4.172,0.783 -6.084,2.726 -4.881,5.93 1.205,3.204 2.074,4.803 1.433,5.129 -0.638,0.326 -2.375,-2.444 -3.791,-5.324 -1.414,-2.881 -5,-9.171 -6.629,-12.158 -1.63,-2.985 -4.662,-7.138 -7.685,-10.22 -3.025,-3.081 -12.324,-14.467 -14.699,-16.591 -2.373,-2.123 -8.737,-7.856 -14.664,-12.414 -5.928,-4.558 -15.492,-8.658 -19.336,-7.236 -3.846,1.423 -6.135,9.689 -5.651,16.861 0.487,7.171 2.573,13.581 9.602,22.2 7.031,8.62 14.807,16.59 19.779,22.441 4.975,5.851 11.254,14.476 14.168,17.345 2.916,2.868 11.223,10.406 8.24,12.572 -2.98,2.166 -8.312,-8.181 -12.521,-12.324 -4.209,-4.143 -15.24,-17.55 -17.621,-20.53 -2.381,-2.98 -8.975,-10.746 -11.028,-12.979 -2.052,-2.233 -4.974,-5.851 -8.611,-5.393 -3.637,0.457 -10.035,2.86 -12.549,11.346 -2.511,8.486 -2.912,13.849 -3.793,14.168 -0.881,0.321 -3.521,-1.2 -5.523,-3.201 -2.002,-2.001 1.682,-6.964 3.543,-9.85 2.431,-3.77 6.769,-10.764 7.818,-13.344 1.051,-2.579 1.346,-5.9 -0.099,-12.637 -1.448,-6.736 -2.496,-17.545 -2.303,-20.009 0.195,-2.465 1.59,-15.543 -0.805,-20.45 -2.396,-4.909 -5.408,-6.705 -9.371,-6.78 -3.965,-0.076 -10.822,-0.449 -17.201,5.278 -6.381,5.726 -12.965,12.848 -13.793,16.603 -0.826,3.755 -3.494,18.45 -4.549,20.493 -1.053,2.043 -2.222,3.338 -2.222,3.338 0,0 -0.545,-1.174 0.376,-6.643 0.918,-5.47 2.059,-10.513 2.151,-12.334 0.092,-1.822 -0.033,-4.284 -0.692,-5.885 -0.654,-1.602 -0.668,-3.423 1.133,-5.792 1.803,-2.371 7.864,-8.097 11.696,-10.911 3.832,-2.815 7.355,-4.45 8.388,-9.064 1.035,-4.614 -2.855,-8.759 -4.906,-10.884 -2.053,-2.126 -6.248,-4.45 -14.404,-6.634 -8.158,-2.184 -16.735,-3.508 -20.59,-3.263 0,0 6.068,-4.547 14.201,-5.468 8.133,-0.921 12.977,-2.074 12.965,-3.466 -0.002,-0.319 -0.293,-0.756 -0.854,-1.255"
       style="fill:none;stroke:#231f20;stroke-width:0.5;stroke-linecap:butt;stroke-linejoin:miter;stroke-miterlimit:4;stroke-dasharray:none;stroke-opacity:1"
       id="path840" />
    <path
       d="m 926.533,655.341 c 6.183,-3.691 10.078,-11.405 9.119,-24.251 -0.961,-12.843 -1.93,-26.974 -6.287,-36.363 -4.36,-9.391 -16.694,-29.428 -36.526,-18.131 2.338,-12.099 -9.931,-18.822 -12.658,-19.59 -2.726,-0.769 -16.166,-3.457 -27.265,-4.609 12.074,-1.922 24.539,-11.717 28.433,-15.75 3.897,-4.033 8.764,-5.569 15.192,-9.027 6.427,-3.456 20.644,-14.788 25.318,-20.743 4.674,-5.954 6.232,-15.748 6.232,-20.166 0,-4.418 -3.31,-13.636 -15.58,-22.47 -12.269,-8.835 -28.24,-10.756 -31.357,-11.717 -3.115,-0.96 -5.453,-5.186 -14.412,-8.258 -8.957,-3.073 -27.266,-3.073 -33.887,-2.881 -6.623,0.192 -26.684,2.496 -33.109,4.61 -6.428,2.112 -14.219,6.914 -17.918,8.449 -3.702,1.537 -16.75,2.306 -21.229,1.922 -4.48,-0.385 -16.361,0 -19.672,0.576 -3.31,0.576 -10.127,1.152 -15.97,1.728 -5.842,0.577 -22.877,3.259 -29.799,5.762 -9.026,3.266 -23.371,12.484 -31.744,14.404 -4.694,1.075 -21.102,4.184 -22.204,4.994 -2.336,1.729 -1.363,4.419 -1.168,8.067 0.354,6.59 -7.402,8.835 -7.79,14.596 -0.208,3.115 5.841,18.822 6.622,20.55 0.778,1.73 0,3.266 -0.585,6.531 -0.584,3.265 2.531,25.352 3.117,30.346 0.584,4.994 -1.17,11.331 -2.338,14.981 -1.168,3.648 0.39,9.219 -0.975,9.025 -2.318,-0.329 -7.205,-5.953 -10.711,-9.986 -3.506,-4.033 -11.295,-7.49 -14.8,-9.026 -3.506,-1.537 -9.35,-5.955 -17.139,-10.564 -7.791,-4.609 -22.399,-15.941 -28.824,-17.862 1.168,-8.45 -13.05,-16.134 -19.477,-15.749 2.531,-2.496 1.753,-4.61 0.779,-6.914 -0.974,-2.305 -9.738,-12.304 -36.615,-24.008 -23.371,-10.178 -44.016,-17.477 -62.713,-22.856 -28.24,-7.681 -44.599,-6.145 -50.443,-6.145 -5.842,0 -25.124,-0.575 -28.239,1.152 -3.117,1.73 -7.401,6.53 -13.245,6.722 -4.284,0.139 -7.4,-2.304 -10.711,-3.84 -3.311,-1.537 -11.685,-3.457 -14.023,-4.034 -2.337,-0.575 -15.58,2.112 -19.281,3.649 -3.7,1.537 -11.88,7.491 -15.97,10.948 -4.09,3.457 -11.101,11.716 -17.334,16.325 -6.232,4.609 -9.933,11.139 -14.607,13.829 -4.674,2.688 -9.154,6.723 -11.101,9.795 -1.948,3.072 -4.48,5.762 -12.659,15.364 -8.181,9.604 -35.058,42.254 -54.144,68.182 -19.086,25.928 -35.251,57.618 -37.783,66.453 -2.532,8.835 -2.727,19.014 2.726,21.896 5.453,2.88 14.607,0.575 19.087,-3.65 -1.169,1.728 -4.912,7.208 -11.102,21.704 -6.232,14.596 -8.764,29.576 -4.479,52.432 4.285,22.856 20.84,42.253 39.926,56.466 19.086,14.212 51.222,22.663 69.529,27.465 18.307,4.801 85.499,15.365 99.717,16.325 14.217,0.96 70.308,7.682 100.302,12.868 29.992,5.186 50.637,1.921 71.477,2.497 20.84,0.576 43.236,-2.497 49.078,-3.073 5.844,-0.576 26.877,-2.689 33.5,-5.762 4.674,-1.344 29.604,-2.689 51.609,-8.835 52.186,-14.572 71.868,-27.465 76.932,-30.73 5.063,-3.265 10.518,-5.569 14.217,-19.014 5.41,-19.656 4.09,-31.305 -2.336,-49.552 -6.428,-18.245 -25.125,-37.452 -30.967,-40.908 -5.844,-3.458 -17.918,-6.723 -26.682,-2.113 4.479,-4.418 7.594,-11.14 8.764,-13.637 1.168,-2.496 4.283,-9.41 1.947,-18.245 0.973,3.649 7.01,13.252 9.737,16.901 2.728,3.649 12.271,14.404 14.218,16.325 1.948,1.92 8.375,9.796 11.881,7.106 -0.974,7.683 8.375,19.014 19.28,29.002 10.908,9.987 20.451,14.981 26.099,15.749 5.649,0.768 17.918,-2.689 20.645,-7.875 17.334,14.02 34.082,16.518 44.988,13.445 10.906,-3.074 17.139,-14.789 15.971,-18.822 3.117,1.728 8.179,-1.921 11.49,-5.762 3.312,-3.841 8.375,-7.683 11.297,-9.027 2.551,-1.171 9.738,-1.537 13.049,-5.378 2.326,-2.701 0,-7.299 2.921,-9.603 1.856,-1.464 5.454,0.384 10.128,-2.305 4.673,-2.689 5.257,-9.795 4.48,-11.908 -0.779,-2.113 -2.143,-6.914 0.584,-9.603 7.596,-8.066 7.596,-21.511 7.205,-27.464 -0.389,-5.954 -4.139,-18.69 -9.738,-20.935 z"
       style="fill:none;stroke:#231f20;stroke-width:0.75;stroke-linecap:butt;stroke-linejoin:miter;stroke-miterlimit:4;stroke-dasharray:none;stroke-opacity:1"
       id="path842" />
    <path
       d="m 728.624,466.938 c 0,-0.568 -0.46,-1.029 -1.029,-1.029 -0.566,0 -1.027,0.461 -1.027,1.029 0,0.568 0.461,1.029 1.027,1.029 0.569,0 1.029,-0.461 1.029,-1.029"
       style="fill:#231f20;fill-opacity:1;fill-rule:nonzero;stroke:none;stroke-width:0.1"
       id="path844" />
    <path
       d="m 249.866,524.416 c 1.948,3.073 3.189,3.204 6.5,2.82 3.31,-0.384 11.295,-0.575 14.022,-1.152 2.727,-0.576 7.206,-1.537 10.712,0.384 3.505,1.921 7.985,7.49 8.375,10.179"
       style="fill:none;stroke:#231f20;stroke-width:0.5;stroke-linecap:round;stroke-linejoin:round;stroke-miterlimit:4;stroke-dasharray:2.8, 1.8;stroke-dashoffset:0;stroke-opacity:1"
       id="path846" />
    <path
       d="m 339.236,473.267 c 3.992,0.864 8.569,4.609 10.127,6.05 1.558,1.44 2.982,3.541 2.434,4.993 -0.584,1.536 -1.655,1.345 -2.336,0.576 -0.633,-0.714 -1.461,-1.728 -3.214,-3.745 -1.753,-2.017 -5.063,-3.744 -7.498,-4.321 l -1.461,-0.577 c -3.018,-1.151 -4.285,-1.824 -8.375,0.481 -4.089,2.304 -4.869,4.13 -7.985,4.898 -3.116,0.768 -4.674,0.576 -6.622,-1.729 -1.947,-2.305 -2.044,-2.977 -2.824,-2.593 -0.778,0.384 -0.908,3.397 -1.266,4.993 -0.358,1.6 -0.597,2.281 -1.845,3 -1.656,0.961 -5.069,-1.271 -6.724,0.074 -1.388,1.128 -0.876,3.169 -1.363,5.569 -0.487,2.4 -2.142,4.994 -4.188,6.242 -2.045,1.248 -4.71,2.594 -4.71,2.594 l -1.327,1.728 c -3.116,3.073 -12.075,13.829 -14.997,15.653 -2.921,1.824 -4.674,2.689 -5.55,3.937 -0.877,1.248 -0.585,5.378 -2.435,7.106 -1.85,1.728 -12.367,9.219 -20.158,20.743 -7.79,11.524 -15.093,30.538 -16.457,33.419 -1.363,2.881 -2.921,6.146 -7.011,9.795 -4.09,3.648 -15.094,22.471 -17.821,28.521 -2.726,6.049 -2.239,6.338 -1.07,7.106 1.168,0.768 3.992,-1.729 5.745,-3.072 1.753,-1.345 13.049,-9.124 13.925,-9.796 0.876,-0.672 2.009,-1.021 2.629,-0.48 0.877,0.768 0.505,1.375 -0.876,3.072 -1.558,1.92 -19.963,18.055 -23.274,20.936 -3.311,2.88 -12.172,10.659 -13.536,11.907 -1.363,1.249 -3.214,0.864 -3.895,-0.096 -0.682,-0.959 -0.194,-4.034 1.071,-7.394 1.266,-3.361 5.259,-10.564 8.083,-15.461 2.824,-4.897 12.836,-20.581 16.36,-26.216 3.116,-4.994 11.454,-12.119 13.341,-15.654 1.947,-3.649 4.005,-8.756 6.135,-13.54 2.142,-4.801 6.621,-14.788 9.251,-19.014 2.629,-4.225 11.199,-15.652 15.58,-19.686 4.382,-4.034 8.473,-7.586 9.057,-8.643 0.584,-1.057 1.266,-2.496 -0.584,-4.033 -1.851,-1.536 -1.656,-3.169 -0.682,-4.13 0.974,-0.96 2.629,-0.671 3.506,-0.288 0.876,0.385 1.947,0 3.895,-0.768 1.819,-0.72 3.408,-1.92 5.355,-3.649 1.948,-1.728 13.05,-13.444 13.05,-13.444 l 1.557,-1.633 c 2.533,-1.44 5.843,-3.457 6.331,-5.569 0.486,-2.113 0.291,-7.299 1.558,-8.836 1.266,-1.536 3.797,-1.248 4.966,-0.864 1.169,0.385 2.76,0.93 3.91,0.13 1.214,-0.846 1.737,-5.027 1.933,-6.084 0.194,-1.056 0.133,-2.519 1.265,-2.881 1.583,-0.504 2.49,1.766 3.506,2.881 1.315,1.441 2.727,1.633 6.817,0.865 4.09,-0.768 6.427,-2.785 9.543,-3.842 3.116,-1.056 5.161,-0.288 7.108,0.192 z"
       style="fill:none;stroke:#231f20;stroke-width:0.5;stroke-linecap:round;stroke-linejoin:round;stroke-miterlimit:4;stroke-dasharray:2.8, 1.8;stroke-dashoffset:0;stroke-opacity:1"
       id="path848" />
    <path
       d="m 312.067,482.39 c 1.966,-0.3 2.531,1.056 3.7,2.593 1.169,1.537 2.532,2.4 2.24,3.553 -0.292,1.152 -1.461,1.632 -2.337,1.345 -0.621,-0.205 -1.655,-3.266 -2.24,-3.65 -0.584,-0.385 -0.681,0.673 -0.681,1.728 0,1.057 0.097,2.786 -1.267,2.69 -1.362,-0.096 -0.778,-1.825 -0.681,-3.745 0.097,-1.921 0,-4.322 1.266,-4.514 z"
       style="fill:none;stroke:#231f20;stroke-width:0.5;stroke-linecap:round;stroke-linejoin:round;stroke-miterlimit:4;stroke-dasharray:2.8, 1.8;stroke-dashoffset:0;stroke-opacity:1"
       id="path850" />
    <path
       d="m 285.58,519.649 c -0.092,-0.941 0.413,-1.543 1.46,-1.524 0.609,0.012 1.595,0.612 2.24,0.468 1.753,-0.384 4.053,-0.053 5.453,1.921 1.363,1.92 2.337,3.457 1.363,4.994 -0.973,1.535 -3.505,4.034 -5.453,1.92 -1.947,-2.113 -4.936,-6.47 -5.063,-7.779 z"
       style="fill:none;stroke:#231f20;stroke-width:0.5;stroke-linecap:round;stroke-linejoin:round;stroke-miterlimit:4;stroke-dasharray:2.8, 1.8;stroke-dashoffset:0;stroke-opacity:1"
       id="path852" />
    <path
       d="m 366.527,564.293 c 2.142,7.491 2.994,21.522 4.162,29.396 1.169,7.875 4.675,28.617 4.87,36.3 0.194,7.683 3.31,12.676 6.621,17.093 3.311,4.418 12.27,15.739 14.023,19.388"
       style="fill:none;stroke:#231f20;stroke-width:0.5;stroke-linecap:round;stroke-linejoin:round;stroke-miterlimit:4;stroke-dasharray:2.8, 1.8;stroke-dashoffset:0;stroke-opacity:1"
       id="path854" />
    <path
       d="m 402.825,581.782 c 1.753,-2.881 1.558,-6.723 -1.948,-13.061 -3.505,-6.338 -8.667,-10.539 -10.906,-11.715 -2.922,-1.537 -3.895,0.768 -4.675,2.496"
       style="fill:none;stroke:#231f20;stroke-width:0.5;stroke-linecap:round;stroke-linejoin:round;stroke-miterlimit:4;stroke-dasharray:2.8, 1.8;stroke-dashoffset:0;stroke-opacity:1"
       id="path856" />
    <path
       d="m 409.703,588.625 c -7.985,-7.107 -14.809,-16.332 -16.032,-17.983 -2.142,-2.882 -14.205,-11.116 -21.618,-11.524 -3.506,-0.192 -6.607,-0.192 -6.607,-0.192"
       style="fill:none;stroke:#231f20;stroke-width:0.5;stroke-linecap:round;stroke-linejoin:round;stroke-miterlimit:4;stroke-dasharray:2.8, 1.8;stroke-dashoffset:0;stroke-opacity:1"
       id="path858" />
    <path
       d="m 365.175,559.372 c 0,0 2.398,-3.519 1.425,-8.321 -1.2,-5.912 -8.57,-16.9 -13.245,-21.127 -4.673,-4.224 -10.485,-6.877 -13.048,-7.298 -3.506,-0.575 -6.037,-1.536 -6.427,-4.801 -0.39,-3.265 -1.948,-4.993 -4.869,-5.377 -2.903,-0.384 -8.375,1.344 -9.738,3.264 -1.364,1.921 -3.311,2.689 -5.258,2.881 -1.948,0.193 -4.091,0.576 -5.064,1.729 -0.974,1.152 -1.576,2.616 -4.48,2.112 -1.538,-0.267 -1.617,-1.209 0.902,-5.498 3.971,-6.763 1.046,-13.324 3.967,-17.74 2.337,-3.53 5.843,-4.802 9.933,-5.187 4.09,-0.384 9.826,-1.089 13.916,-0.512"
       style="fill:none;stroke:#231f20;stroke-width:0.5;stroke-linecap:round;stroke-linejoin:round;stroke-miterlimit:4;stroke-dasharray:2.8, 1.8;stroke-dashoffset:0;stroke-opacity:1"
       id="path860" />
    <path
       d="m 336.73,493.241 c 5.842,-0.385 11.756,-0.768 13.899,-3.265 2.143,-2.497 5.648,-9.219 2.726,-17.669"
       style="fill:none;stroke:#231f20;stroke-width:0.5;stroke-linecap:round;stroke-linejoin:round;stroke-miterlimit:4;stroke-dasharray:2.8, 1.8;stroke-dashoffset:0;stroke-opacity:1"
       id="path862" />
    <path
       d="m 353.355,509.758 c 1.127,-5.293 4.48,-7.875 9.934,-7.875 5.453,0 13.827,2.882 19.67,8.451 5.843,5.571 6.428,12.292 3.895,17.094 -2.531,4.802 -9.153,0.961 -12.854,-0.192 -3.7,-1.152 -11.296,-2.882 -15.191,-5.57 -3.895,-2.689 -6.232,-8.258 -5.454,-11.908 z"
       style="fill:none;stroke:#231f20;stroke-width:0.5;stroke-linecap:round;stroke-linejoin:round;stroke-miterlimit:4;stroke-dasharray:2.8, 1.8;stroke-dashoffset:0;stroke-opacity:1"
       id="path864" />
    <path
       d="m 396.981,464.816 c 3.507,3.073 2.922,6.145 1.169,9.411"
       style="fill:none;stroke:#231f20;stroke-width:0.5;stroke-linecap:round;stroke-linejoin:round;stroke-miterlimit:4;stroke-dasharray:2.8, 1.8;stroke-dashoffset:0;stroke-opacity:1"
       id="path866" />
    <path
       d="m 397.372,476.34 c 0.194,-2.689 2.337,-3.842 6.622,-4.801 4.284,-0.961 15.191,-0.769 30.382,1.92 15.191,2.689 20.673,4.432 24.15,9.411"
       style="fill:none;stroke:#231f20;stroke-width:0.5;stroke-linecap:round;stroke-linejoin:round;stroke-miterlimit:4;stroke-dasharray:2.8, 1.8;stroke-dashoffset:0;stroke-opacity:1"
       id="path868" />
    <path
       d="m 375.547,494.585 c 2.922,1.538 6.829,1.153 10.333,-0.576 3.507,-1.727 7.207,-2.304 10.518,-1.343 3.311,0.959 6.171,-0.578 6.171,-0.578"
       style="fill:none;stroke:#231f20;stroke-width:0.5;stroke-linecap:round;stroke-linejoin:round;stroke-miterlimit:4;stroke-dasharray:2.8, 1.8;stroke-dashoffset:0;stroke-opacity:1"
       id="path870" />
    <path
       d="m 370.689,480.374 c -2.142,-1.346 -6.621,-4.731 -6.232,-10.494"
       style="fill:none;stroke:#231f20;stroke-width:0.5;stroke-linecap:round;stroke-linejoin:round;stroke-miterlimit:4;stroke-dasharray:2.8, 1.8;stroke-dashoffset:0;stroke-opacity:1"
       id="path872" />
    <path
       d="m 382.959,476.34 c 8.375,-1.345 13.633,-1.728 16.555,1.728 2.921,3.458 3.505,9.411 2.921,15.941 -0.584,6.531 -3.7,14.597 -7.79,15.173 -4.09,0.576 -7.791,-0.385 -11.491,-4.417 -3.7,-4.033 -8.959,-11.716 -10.517,-14.789 -1.558,-3.072 -3.7,-8.259 -1.558,-9.987 2.143,-1.729 3.505,-2.305 11.88,-3.649 z"
       style="fill:none;stroke:#231f20;stroke-width:0.5;stroke-linecap:round;stroke-linejoin:round;stroke-miterlimit:4;stroke-dasharray:2.8, 1.8;stroke-dashoffset:0;stroke-opacity:1"
       id="path874" />
    <path
       d="m 458.526,482.87 c 3.117,-0.384 10.319,1.89 13.633,4.557 2.242,1.806 3.7,2.933 6.233,6.582"
       style="fill:none;stroke:#231f20;stroke-width:0.5;stroke-linecap:round;stroke-linejoin:round;stroke-miterlimit:4;stroke-dasharray:2.8, 1.8;stroke-dashoffset:0;stroke-opacity:1"
       id="path876" />
    <path
       d="m 426.85,691.159 5.774,-5.473 3.22,9.274"
       style="fill:none;stroke:#231f20;stroke-width:0.5;stroke-linecap:round;stroke-linejoin:round;stroke-miterlimit:4;stroke-dasharray:2.8, 1.8;stroke-dashoffset:0;stroke-opacity:1"
       id="path878" />
    <path
       d="m 655.4,615.194 c 0.894,1.68 2.943,4.256 3.924,5.385 2.336,2.687 9.543,6.721 10.515,7.297 0.975,0.578 2.143,1.537 1.559,2.881 -0.584,1.345 -2.531,0.769 -6.621,-0.383 -4.09,-1.153 -9.33,-2.948 -12.856,-3.074 -5.453,-0.192 -12.904,-4.614 -16.656,-7.587 -5.234,-4.149 -13.336,-8.547 -17.037,-13.923 -3.699,-5.377 -6.426,-12.485 -7.4,-25.545 -0.975,-13.06 8.777,-4.237 10.322,-3.073 3.31,2.496 6.689,5.681 14.607,14.596 9.049,10.189 17.008,18.467 19.643,23.426 z"
       style="fill:none;stroke:#231f20;stroke-width:0.5;stroke-linecap:round;stroke-linejoin:round;stroke-miterlimit:4;stroke-dasharray:2.8, 1.8;stroke-dashoffset:0;stroke-opacity:1"
       id="path880" />
    <path
       d="m 518.317,547.161 c -6.427,7.298 -8.034,14.286 -3.895,19.832 4.87,6.53 21.82,12.802 30.773,13.443 13.437,0.961 18.502,1.537 24.734,1.537 6.231,0 19.67,-1.344 23.955,-1.92 4.285,-0.576 10.127,-1.152 11.686,-4.418 1.558,-3.265 0,-4.417 0,-4.417"
       style="fill:none;stroke:#231f20;stroke-width:0.5;stroke-linecap:round;stroke-linejoin:round;stroke-miterlimit:4;stroke-dasharray:2.8, 1.8;stroke-dashoffset:0;stroke-opacity:1"
       id="path882" />
    <path
       d="m 507.79,497.659 c 2.142,0.576 5.354,1.951 6.438,1.344 1.363,-0.768 1.168,-3.356 1.168,-3.356"
       style="fill:none;stroke:#231f20;stroke-width:0.5;stroke-linecap:round;stroke-linejoin:round;stroke-miterlimit:4;stroke-dasharray:2.8, 1.8;stroke-dashoffset:0;stroke-opacity:1"
       id="path884" />
    <path
       d="m 485.013,490.745 c -2.726,0.576 -5.447,-0.426 -4.09,-2.881 1.169,-2.114 4.09,-4.652 4.09,-4.652"
       style="fill:none;stroke:#231f20;stroke-width:0.5;stroke-linecap:round;stroke-linejoin:round;stroke-miterlimit:4;stroke-dasharray:2.8, 1.8;stroke-dashoffset:0;stroke-opacity:1"
       id="path886" />
    <path
       d="m 478.392,494.009 c 4.09,-3.264 8.763,-4.993 18.112,-2.112 9.349,2.881 12.66,5.762 12.854,9.795 0.195,4.033 -7.595,7.934 -7.595,7.934"
       style="fill:none;stroke:#231f20;stroke-width:0.5;stroke-linecap:round;stroke-linejoin:round;stroke-miterlimit:4;stroke-dasharray:2.8, 1.8;stroke-dashoffset:0;stroke-opacity:1"
       id="path888" />
    <path
       d="m 478.392,494.009 c 2.142,4.802 6.037,14.021 12.464,15.942 6.427,1.921 16.165,-1.729 21.034,-3.265 4.869,-1.537 9.933,-3.074 11.491,-0.77 1.558,2.306 0,4.418 -2.727,7.108 -2.726,2.688 -8.569,6.53 -10.712,9.986 -2.142,3.458 -6.232,8.068 -15.775,8.068 -3.855,0 -7.259,-1.068 -9.348,-2.113"
       style="fill:none;stroke:#231f20;stroke-width:0.5;stroke-linecap:round;stroke-linejoin:round;stroke-miterlimit:4;stroke-dasharray:2.8, 1.8;stroke-dashoffset:0;stroke-opacity:1"
       id="path890" />
    <path
       d="m 539.916,528.435 c -2.198,-1.161 0.245,-3.372 1.049,-2.592 0.805,0.783 1.906,1.562 6.968,2.1 5.063,0.538 9.553,2.563 12.26,4.61 2.709,2.047 5.459,6.582 4.273,6.891 -2.531,-3.649 -8.384,-7.893 -13.429,-9.135 -5.453,-1.344 -6.363,0.556 -11.121,-1.874 z"
       style="fill:none;stroke:#231f20;stroke-width:0.5;stroke-linecap:round;stroke-linejoin:round;stroke-miterlimit:4;stroke-dasharray:2.8, 1.8;stroke-dashoffset:0;stroke-opacity:1"
       id="path892" />
    <path
       d="m 482.676,573.139 c 6.44,-0.191 14.802,-2.113 16.555,-2.881 1.753,-0.768 3.505,-1.537 3.311,-3.65 -0.299,-3.258 -9.933,-6.338 -11.686,-6.338 -1.752,0 -7.4,0.576 -9.154,1.921 -1.752,1.345 -4.089,2.689 -7.79,2.497 -3.7,-0.191 -4.869,0.192 -6.232,2.689 -1.364,2.497 -1.948,4.801 0.974,5.186 2.921,0.385 7.595,0.768 14.022,0.576 z"
       style="fill:none;stroke:#231f20;stroke-width:0.5;stroke-linecap:round;stroke-linejoin:round;stroke-miterlimit:4;stroke-dasharray:2.8, 1.8;stroke-dashoffset:0;stroke-opacity:1"
       id="path894" />
    <path
       d="m 450.316,583.525 c 10.211,6.268 22.316,4.401 32.166,5.171 11.27,0.881 33.303,0.961 37.783,0.191"
       style="fill:none;stroke:#231f20;stroke-width:0.5;stroke-linecap:round;stroke-linejoin:round;stroke-miterlimit:4;stroke-dasharray:2.8, 1.8;stroke-dashoffset:0;stroke-opacity:1"
       id="path896" />
    <path
       d="m 550.258,712.767 c 7.206,-4.225 9.318,-9.003 13.244,-18.246 3.505,-8.258 12.853,-8.354 14.8,-6.434"
       style="fill:none;stroke:#231f20;stroke-width:0.5;stroke-linecap:round;stroke-linejoin:round;stroke-miterlimit:4;stroke-dasharray:2.8, 1.8;stroke-dashoffset:0;stroke-opacity:1"
       id="path898" />
    <path
       d="m 491.83,698.17 c 5.258,-2.88 12.659,-7.106 19.865,-8.835 7.206,-1.728 13.828,-3.649 19.671,-3.84 5.842,-0.192 13.829,-2.881 19.476,-3.266 5.648,-0.384 14.474,0.961 13.304,10.948"
       style="fill:none;stroke:#231f20;stroke-width:0.5;stroke-linecap:round;stroke-linejoin:round;stroke-miterlimit:4;stroke-dasharray:2.8, 1.8;stroke-dashoffset:0;stroke-opacity:1"
       id="path900" />
    <path
       d="m 443.334,702.588 c 4.48,-5.186 10.128,-11.908 15.582,-14.021 5.453,-2.112 9.932,-1.344 13.438,0 3.505,1.345 7.012,2.881 9.348,4.61 2.338,1.729 8.18,3.649 10.128,4.993 1.947,1.345 3.895,4.802 2.921,9.219 -0.974,4.418 -4.284,11.898 -9.543,15.547"
       style="fill:none;stroke:#231f20;stroke-width:0.5;stroke-linecap:round;stroke-linejoin:round;stroke-miterlimit:4;stroke-dasharray:2.8, 1.8;stroke-dashoffset:0;stroke-opacity:1"
       id="path902" />
    <path
       d="m 482.843,598.196 c -5.064,1.537 -7.762,-0.473 -14.189,1.832 -6.428,2.304 -13.244,8.066 -18.113,17.861 -4.869,9.795 -5.589,15.354 -4.09,20.551 3.7,13.636 1.169,27.656 -0.195,31.113 -1.363,3.458 -4.869,3.842 -7.011,3.458"
       style="fill:none;stroke:#231f20;stroke-width:0.5;stroke-linecap:round;stroke-linejoin:round;stroke-miterlimit:4;stroke-dasharray:2.8, 1.8;stroke-dashoffset:0;stroke-opacity:1"
       id="path904" />
    <path
       d="m 546.095,649.003 16.627,2.497"
       style="fill:none;stroke:#231f20;stroke-width:0.5;stroke-linecap:round;stroke-linejoin:round;stroke-miterlimit:4;stroke-dasharray:2.8, 1.8;stroke-dashoffset:0;stroke-opacity:1"
       id="path906" />
    <path
       d="m 606.349,617.313 c 7.004,-0.229 8.569,-7.875 7.791,-11.14 -0.543,-2.274 -6.428,-9.987 -13.635,-7.49 -7.207,2.497 -5.841,8.835 -4.478,11.14 1.363,2.304 4.478,7.681 10.322,7.49 z"
       style="fill:none;stroke:#231f20;stroke-width:0.5;stroke-linecap:round;stroke-linejoin:round;stroke-miterlimit:4;stroke-dasharray:2.8, 1.8;stroke-dashoffset:0;stroke-opacity:1"
       id="path908" />
    <path
       d="m 546.557,661.679 c -2.141,-3.649 0,-8.067 -0.389,-11.332 -0.389,-3.265 -0.78,-14.788 2.142,-20.358 2.922,-5.571 6.037,-8.643 9.934,-7.875 3.894,0.768 7.205,5.57 7.984,10.372 0.779,4.802 0.779,12.292 -2.726,17.669 -1.752,2.689 -1.168,4.418 -0.975,6.53 0.195,2.113 0,10.564 -1.168,13.253 -1.168,2.688 -2.531,3.457 -4.674,1.536 -2.143,-1.921 -7.985,-6.146 -10.128,-9.795 z"
       style="fill:none;stroke:#231f20;stroke-width:0.5;stroke-linecap:round;stroke-linejoin:round;stroke-miterlimit:4;stroke-dasharray:2.8, 1.8;stroke-dashoffset:0;stroke-opacity:1"
       id="path910" />
    <path
       d="m 788.253,592.729 c 2.534,4.227 5.424,11.26 -2.14,14.404 -3.701,1.537 -6.328,0.467 -7.207,-1.536"
       style="fill:none;stroke:#231f20;stroke-width:0.5;stroke-linecap:round;stroke-linejoin:round;stroke-miterlimit:4;stroke-dasharray:2.8, 1.8;stroke-dashoffset:0;stroke-opacity:1"
       id="path912" />
    <path
       d="m 819.621,631.596 c -7.789,-3.457 -29.03,-15.82 -32.536,-18.509 -3.505,-2.689 -8.959,-3.649 -8.959,1.921 0,5.571 7.188,18.412 9.934,20.742 2.816,2.393 6.816,3.65 10.906,2.882 4.09,-0.769 22.787,-7.875 25.123,-8.643 2.338,-0.768 3.506,-1.729 2.143,-2.881 -1.363,-1.152 -10.711,-10.18 -12.27,-17.67 -1.558,-7.49 -1.668,-13.462 -0.195,-20.358 0.779,-3.65 -0.193,-6.146 -0.973,-6.722"
       style="fill:none;stroke:#231f20;stroke-width:0.5;stroke-linecap:round;stroke-linejoin:round;stroke-miterlimit:4;stroke-dasharray:2.8, 1.8;stroke-dashoffset:0;stroke-opacity:1"
       id="path914" />
    <path
       d="m 796.824,619.112 c -1.364,-4.032 -3.35,-13.961 -6.076,-16.842 4.478,0.385 7.634,-0.706 9.191,-1.667 1.559,-0.96 5.455,-1.536 7.791,-1.345 2.338,0.194 5.002,-2.111 5.002,-2.111"
       style="fill:none;stroke:#231f20;stroke-width:0.5;stroke-linecap:round;stroke-linejoin:round;stroke-miterlimit:4;stroke-dasharray:2.8, 1.8;stroke-dashoffset:0;stroke-opacity:1"
       id="path916" />
    <path
       d="m 837.529,540.104 c 0.931,-2.442 3.699,-0.959 4.869,-0.769 1.168,0.193 15.58,2.115 18.891,2.306 3.31,0.191 4.285,1.921 2.337,3.266 -1.947,1.343 -6.816,3.648 -12.269,2.303 -5.453,-1.344 -14.412,-5.569 -13.828,-7.106 z"
       style="fill:none;stroke:#231f20;stroke-width:0.5;stroke-linecap:round;stroke-linejoin:round;stroke-miterlimit:4;stroke-dasharray:2.8, 1.8;stroke-dashoffset:0;stroke-opacity:1"
       id="path918" />
    <path
       d="m 889.541,526.506 c -5.647,0 -11.698,-0.806 -14.62,-5.032 -2.921,-4.225 -7.009,-17.477 -8.179,-27.08 -0.967,-7.965 -2.532,-19.59 0.974,-23.816 3.506,-4.226 8.104,-4.623 8.104,-4.623"
       style="fill:none;stroke:#231f20;stroke-width:0.5;stroke-linecap:round;stroke-linejoin:round;stroke-miterlimit:4;stroke-dasharray:2.8, 1.8;stroke-dashoffset:0;stroke-opacity:1"
       id="path920" />
    <path
       d="m 787.669,539.145 c 2.727,3.648 4.979,3.504 8.764,4.801 4.481,1.536 8.375,5.762 11.492,5.569 2.33,-0.143 0.196,-5.569 -1.558,-7.874"
       style="fill:none;stroke:#231f20;stroke-width:0.5;stroke-linecap:round;stroke-linejoin:round;stroke-miterlimit:4;stroke-dasharray:2.8, 1.8;stroke-dashoffset:0;stroke-opacity:1"
       id="path922" />
    <path
       d="m 708.208,579.862 c 2.143,4.416 4.286,6.914 9.153,6.529 4.869,-0.385 14.998,-3.457 20.06,-11.14 4.705,-7.135 6.358,-10.914 8.889,-16.868"
       style="fill:none;stroke:#231f20;stroke-width:0.5;stroke-linecap:round;stroke-linejoin:round;stroke-miterlimit:4;stroke-dasharray:2.8, 1.8;stroke-dashoffset:0;stroke-opacity:1"
       id="path924" />
    <path
       d="m 692.238,597.723 c -5.258,-2.113 -20.645,-5.762 -31.162,-5.379 -3.311,1.537 -5.842,7.49 -2.727,13.446 4.078,7.79 11.881,14.595 17.723,15.171 5.844,0.577 10.908,-0.96 14.023,-7.49 3.117,-6.529 3.311,-13.443 1.363,-18.629 -1.947,-5.185 -4.966,-10.379 -5.843,-11.332 -1.752,-1.921 -17.139,-3.457 -24.733,-2.113 -4.48,5.379 -1.17,9.219 0.194,10.947"
       style="fill:none;stroke:#231f20;stroke-width:0.5;stroke-linecap:round;stroke-linejoin:round;stroke-miterlimit:4;stroke-dasharray:2.8, 1.8;stroke-dashoffset:0;stroke-opacity:1"
       id="path926" />
    <path
       d="m 695.865,629.221 c -3.504,-3.265 -4.602,-5.379 -3.239,-7.49 1.364,-2.113 3.834,0 3.834,0"
       style="fill:none;stroke:#231f20;stroke-width:0.5;stroke-linecap:round;stroke-linejoin:round;stroke-miterlimit:4;stroke-dasharray:2.8, 1.8;stroke-dashoffset:0;stroke-opacity:1"
       id="path928" />
    <path
       d="m 660.882,581.397 c -6.039,-6.146 -11.101,-14.981 -14.218,-22.279 -3.116,-7.298 -5.454,-19.973 -2.532,-22.855 2.92,-2.881 8.18,-0.768 13.828,2.882 5.649,3.648 12.854,9.602 20.059,19.589 7.207,9.987 8.377,14.597 7.596,17.671"
       style="fill:none;stroke:#231f20;stroke-width:0.5;stroke-linecap:round;stroke-linejoin:round;stroke-miterlimit:4;stroke-dasharray:2.8, 1.8;stroke-dashoffset:0;stroke-opacity:1"
       id="path930" />
    <path
       d="m 688.537,558.159 c 3.701,-2.69 8.716,-4.035 12.076,-1.922 3.158,1.987 8.373,5.955 10.127,7.875 1.285,1.408 3.117,1.728 4.285,0.961 1.168,-0.77 1.557,-4.033 0.389,-7.108 -1.168,-3.072 -1.004,-8.787 -0.196,-11.715 1.17,-4.225 3.574,-5.048 7.207,-8.066 3.699,-3.074 4.674,-6.914 7.789,-10.756 3.118,-3.842 9.678,-7.106 13.963,-8.066"
       style="fill:none;stroke:#231f20;stroke-width:0.5;stroke-linecap:round;stroke-linejoin:round;stroke-miterlimit:4;stroke-dasharray:2.8, 1.8;stroke-dashoffset:0;stroke-opacity:1"
       id="path932" />
    <path
       d="m 708.208,579.862 c 2.059,0.585 3.829,1.082 4.674,1.152 2.336,0.192 12.659,-0.769 19.866,-8.451 7.205,-7.683 10.162,-15.274 11.332,-22.188"
       style="fill:none;stroke:#231f20;stroke-width:0.5;stroke-linecap:round;stroke-linejoin:round;stroke-miterlimit:4;stroke-dasharray:2.8, 1.8;stroke-dashoffset:0;stroke-opacity:1"
       id="path934" />
    <path
       d="m 744.621,525.24 c 0,-6.722 -1.545,-12.445 -5.252,-22.012 -2.532,-6.53 -4.635,-19.089 -6.582,-26.004"
       style="fill:none;stroke:#231f20;stroke-width:0.5;stroke-linecap:round;stroke-linejoin:round;stroke-miterlimit:4;stroke-dasharray:2.8, 1.8;stroke-dashoffset:0;stroke-opacity:1"
       id="path936" />
    <path
       d="m 616.476,732.549 c 0.633,-2.868 6.037,-1.728 9.152,-1.344 3.118,0.384 19.088,3.073 26.879,4.802 7.789,1.728 12.817,3.306 19.086,9.027 5.258,4.801 11.881,14.212 7.985,20.166 -3.895,5.954 -13.633,4.033 -23.76,-0.768 -10.127,-4.802 -18.309,-11.716 -24.15,-16.902 -5.844,-5.185 -7.987,-8.258 -10.518,-10.179 -2.531,-1.92 -5.018,-3.245 -4.674,-4.802 z"
       style="fill:none;stroke:#231f20;stroke-width:0.5;stroke-linecap:round;stroke-linejoin:round;stroke-miterlimit:4;stroke-dasharray:2.8, 1.8;stroke-dashoffset:0;stroke-opacity:1"
       id="path938" />
    <path
       d="M 370.044,502.965 C 358.413,496.23 341.913,492.829 341.913,492.829"
       style="fill:none;stroke:#231f20;stroke-width:0.5;stroke-linecap:round;stroke-linejoin:round;stroke-miterlimit:4;stroke-dasharray:2.8, 1.8;stroke-dashoffset:0;stroke-opacity:1"
       id="path940" />
    <path
       d="m 380.392,529.434 c 4.057,5.068 3.623,21.016 4.904,30.068 0.975,6.879 3.684,6.417 5.71,8.643"
       style="fill:none;stroke:#231f20;stroke-width:0.5;stroke-linecap:round;stroke-linejoin:round;stroke-miterlimit:4;stroke-dasharray:2.8, 1.8;stroke-dashoffset:0;stroke-opacity:1"
       id="path942" />
    <path
       d="m 260.232,605.86 c -0.61,1.121 -0.856,2.465 -0.754,3.674 0.114,1.352 0.393,13.157 0.393,17.189 0,4.034 -1.168,14.79 -3.311,22.664 -2.142,7.874 -11.296,25.736 -12.075,34.187 -0.779,8.45 1.603,20.389 9.55,24.968"
       style="fill:none;stroke:#231f20;stroke-width:0.5;stroke-linecap:round;stroke-linejoin:round;stroke-miterlimit:4;stroke-dasharray:2.8, 1.8;stroke-dashoffset:0;stroke-opacity:1"
       id="path944" />
    <path
       d="m 276.487,637.347 c 0,-3.609 -0.048,-8.6 -0.649,-13.831"
       style="fill:none;stroke:#231f20;stroke-width:0.5;stroke-linecap:round;stroke-linejoin:round;stroke-miterlimit:4;stroke-dasharray:2.8, 1.8;stroke-dashoffset:0;stroke-opacity:1"
       id="path946" />
    <path
       d="m 226.859,614.432 c 4.401,-3.766 15.502,-10.387 28.643,-11.319"
       style="fill:none;stroke:#231f20;stroke-width:0.5;stroke-linecap:round;stroke-linejoin:round;stroke-miterlimit:4;stroke-dasharray:2.8, 1.8;stroke-dashoffset:0;stroke-opacity:1"
       id="path948" />
    <path
       d="m 254.879,715.834 -101.167,15.471 c 8.754,-1.339 20.491,8.849 24.061,23.725 3.347,13.942 2.289,31.254 -6.811,39.823"
       style="fill:none;stroke:#231f20;stroke-width:0.5;stroke-linecap:round;stroke-linejoin:round;stroke-miterlimit:4;stroke-dasharray:2.8, 1.8;stroke-dashoffset:0;stroke-opacity:1"
       id="path950" />
    <path
       d="m 434.191,870.209 5.351,-96.1"
       style="fill:none;stroke:#231f20;stroke-width:0.5;stroke-linecap:round;stroke-linejoin:round;stroke-miterlimit:4;stroke-dasharray:2.8, 1.8;stroke-dashoffset:0;stroke-opacity:1"
       id="path952" />
    <path
       d="m 531.466,877.285 -2.84,-69.81"
       style="fill:none;stroke:#231f20;stroke-width:0.5;stroke-linecap:round;stroke-linejoin:round;stroke-miterlimit:4;stroke-dasharray:2.8, 1.8;stroke-dashoffset:0;stroke-opacity:1"
       id="path954" />
    <path
       d="M 589.041,873.872 571.837,802.995"
       style="fill:none;stroke:#231f20;stroke-width:0.5;stroke-linecap:round;stroke-linejoin:round;stroke-miterlimit:4;stroke-dasharray:2.8, 1.8;stroke-dashoffset:0;stroke-opacity:1"
       id="path956" />
    <path
       d="m 684.074,727.329 c 0.359,17.427 -3.117,39.778 -8.168,50.804 0,0 24.906,0.685 42.431,-6.104 10.098,-3.912 19.209,-16.239 26.891,-35.449"
       style="fill:none;stroke:#231f20;stroke-width:0.5;stroke-linecap:round;stroke-linejoin:round;stroke-miterlimit:4;stroke-dasharray:2.8, 1.8;stroke-dashoffset:0;stroke-opacity:1"
       id="path958" />
    <path
       d="m 581.169,785.322 c -0.541,-16.805 -0.878,-24.674 -6.289,-36.411"
       style="fill:none;stroke:#231f20;stroke-width:0.5;stroke-linecap:round;stroke-linejoin:round;stroke-miterlimit:4;stroke-dasharray:2.8, 1.8;stroke-dashoffset:0;stroke-opacity:1"
       id="path960" />
    <path
       d="m 628.89,761.182 c -6.31,-7.826 -12.68,-26.558 -13.582,-32.96"
       style="fill:none;stroke:#231f20;stroke-width:0.5;stroke-linecap:round;stroke-linejoin:round;stroke-miterlimit:4;stroke-dasharray:2.8, 1.8;stroke-dashoffset:0;stroke-opacity:1"
       id="path962" />
    <path
       d="m 456.872,555.02 c 4.23,4.535 1.817,13.49 -5.39,20.336 -7.207,6.845 -16.479,8.407 -20.71,3.49 -4.23,-4.916 -1.816,-14.292 5.391,-20.605 7.206,-6.316 16.479,-7.758 20.709,-3.221 z"
       style="fill:none;stroke:#231f20;stroke-width:0.5;stroke-linecap:round;stroke-linejoin:round;stroke-miterlimit:4;stroke-dasharray:2.8, 1.8;stroke-dashoffset:0;stroke-opacity:1"
       id="path964" />
    <path
       d="m 541.298,579.991 c 0,0 4.437,1.537 12.349,3.804 4.884,1.401 12.909,3.183 17.45,3.556 9.348,0.769 22.397,0.96 22.983,-7.298"
       style="fill:none;stroke:#231f20;stroke-width:0.5;stroke-linecap:round;stroke-linejoin:round;stroke-miterlimit:4;stroke-dasharray:2.8, 1.8;stroke-dashoffset:0;stroke-opacity:1"
       id="path966" />
    <path
       d="m 402.291,495.354 8.526,35.174 c 0.514,1.818 1.894,3.355 4.667,4.008 4.09,0.959 12.465,-0.962 18.502,-4.994 6.038,-4.034 12.465,-6.532 18.892,-6.723 6.427,-0.193 12.075,1.92 17.139,4.609 5.064,2.689 10.462,6.297 14.607,5.186 2.142,-0.576 1.753,-2.305 0.195,-3.649"
       style="fill:none;stroke:#231f20;stroke-width:0.5;stroke-linecap:round;stroke-linejoin:round;stroke-miterlimit:4;stroke-dasharray:2.8, 1.8;stroke-dashoffset:0;stroke-opacity:1"
       id="path968" />
    <path
       d="m 388.242,521.572 c 4.125,3.668 15.689,2.867 20.017,-1.401"
       style="fill:none;stroke:#231f20;stroke-width:0.5;stroke-linecap:round;stroke-linejoin:round;stroke-miterlimit:4;stroke-dasharray:2.8, 1.8;stroke-dashoffset:0;stroke-opacity:1"
       id="path970" />
    <path
       d="m 402.547,487.495 c 6.3,0.376 26.535,0.265 33.027,-2.668 3.96,-1.915 4.793,-5.541 5.748,-9.936"
       style="fill:none;stroke:#231f20;stroke-width:0.5;stroke-linecap:round;stroke-linejoin:round;stroke-miterlimit:4;stroke-dasharray:2.8, 1.8;stroke-dashoffset:0;stroke-opacity:1"
       id="path972" />
    <path
       d="m 190.035,666.342 c 4.782,1.806 21.26,3.794 29.778,-6.621 9.749,-11.921 9.804,-24.627 8.974,-31.404"
       style="fill:none;stroke:#231f20;stroke-width:0.5;stroke-linecap:round;stroke-linejoin:round;stroke-miterlimit:4;stroke-dasharray:2.8, 1.8;stroke-dashoffset:0;stroke-opacity:1"
       id="path974" />
    <path
       d="m 255.146,717.34 c -17.633,7.372 -49.802,15.475 -59.124,15.673 -8.979,0.191 -12.694,-3.173 -12.901,-6.205 -0.297,-4.343 0.734,-9.196 4.769,-14.026 7.041,-8.431 20.485,-18.102 36.428,-26.165 3.694,-1.867 8.399,-3.985 20.356,-4.661"
       style="fill:none;stroke:#231f20;stroke-width:0.5;stroke-linecap:round;stroke-linejoin:round;stroke-miterlimit:4;stroke-dasharray:2.8, 1.8;stroke-dashoffset:0;stroke-opacity:1"
       id="path976" />
    <path
       d="m 183.121,726.808 c -0.587,-3.712 46.025,-27.713 62.426,-30.847"
       style="fill:none;stroke:#231f20;stroke-width:0.5;stroke-linecap:round;stroke-linejoin:round;stroke-miterlimit:4;stroke-dasharray:2.8, 1.8;stroke-dashoffset:0;stroke-opacity:1"
       id="path978" />
    <path
       d="M 183.879,808.831 C 194.073,801.409 210.7,776.65 202.554,732.33"
       style="fill:none;stroke:#231f20;stroke-width:0.5;stroke-linecap:round;stroke-linejoin:round;stroke-miterlimit:4;stroke-dasharray:2.8, 1.8;stroke-dashoffset:0;stroke-opacity:1"
       id="path980" />
    <path
       d="m 299.704,852.544 c 2.039,-16.587 -3.485,-83.912 -23.137,-114.019"
       style="fill:none;stroke:#231f20;stroke-width:0.5;stroke-linecap:round;stroke-linejoin:round;stroke-miterlimit:4;stroke-dasharray:2.8, 1.8;stroke-dashoffset:0;stroke-opacity:1"
       id="path982" />
    <path
       d="m 354.066,860.874 c 0.041,-11.032 2.62,-80.57 27.017,-104.967"
       style="fill:none;stroke:#231f20;stroke-width:0.5;stroke-linecap:round;stroke-linejoin:round;stroke-miterlimit:4;stroke-dasharray:2.8, 1.8;stroke-dashoffset:0;stroke-opacity:1"
       id="path984" />
    <path
       d="m 708.859,847.336 25.639,-89.822"
       style="fill:none;stroke:#231f20;stroke-width:0.5;stroke-linecap:round;stroke-linejoin:round;stroke-miterlimit:4;stroke-dasharray:2.8, 1.8;stroke-dashoffset:0;stroke-opacity:1"
       id="path986" />
    <path
       d="m 367.685,569.557 c -15.958,-0.976 -32.008,-3.763 -32.421,-10.299 -0.595,-9.424 20.033,-21.025 31.336,-8.207"
       style="fill:none;stroke:#231f20;stroke-width:0.5;stroke-linecap:round;stroke-linejoin:round;stroke-miterlimit:4;stroke-dasharray:2.8, 1.8;stroke-dashoffset:0;stroke-opacity:1"
       id="path988" />
    <path
       d="m 276.022,625.285 c -0.344,-5.181 -6.015,-11.282 -9.982,-15.249 -3.967,-3.967 -17.653,-10.512 -20.43,-12.496 -2.777,-1.983 -1.191,-4.562 1.407,-9.229 1.452,-2.607 10.856,-16.584 13.543,-19.991 2.329,-2.953 7.688,-16.097 14.264,-24.883 4.233,-5.655 7.481,-10.956 11.191,-12.69"
       style="fill:none;stroke:#231f20;stroke-width:0.5;stroke-linecap:round;stroke-linejoin:round;stroke-miterlimit:4;stroke-dasharray:2.8, 1.8;stroke-dashoffset:0;stroke-opacity:1"
       id="path990" />
    <path
       d="m 247.646,587.259 c 2.922,-1.223 12.008,-5.194 25.515,-2.415"
       style="fill:none;stroke:#231f20;stroke-width:0.5;stroke-linecap:round;stroke-linejoin:round;stroke-miterlimit:4;stroke-dasharray:2.8, 1.8;stroke-dashoffset:0;stroke-opacity:1"
       id="path992" />
    <path
       d="m 447.616,663.771 c 2.691,1.208 17.369,5.175 25.898,2.398 8.529,-2.776 18.11,-10.314 21.62,-14.281 3.51,-3.967 13.686,-15.669 18.05,-18.446 4.364,-2.777 12.447,-5.902 16.066,-9.522 4.562,-4.561 3.173,-8.529 0.199,-11.504 -2.975,-2.975 -12.102,-3.527 -17.559,-4.322 -7.363,-1.073 -14.996,-2.881 -20.644,-5.379 -5.648,-2.496 -12.331,-7.568 -18.502,-9.41 -6.428,-1.92 -12.465,-3.073 -19.476,1.153 -7.012,4.225 -14.803,13.445 -17.724,17.093 -2.92,3.649 -5.258,10.18 -6.426,14.405 -1.169,4.225 -3.896,20.358 -0.196,31.114 3.702,10.755 7.207,12.868 10.907,16.517 3.7,3.649 11.819,9.969 13.633,12.292 1.948,2.496 2.143,4.417 2.143,4.417"
       style="fill:none;stroke:#231f20;stroke-width:0.5;stroke-linecap:round;stroke-linejoin:round;stroke-miterlimit:4;stroke-dasharray:2.8, 1.8;stroke-dashoffset:0;stroke-opacity:1"
       id="path994" />
    <path
       d="m 536.947,684.801 c -2.42,11.888 -0.16,31.551 0.245,34.355 0,0 -2.795,-28.678 26.069,-24.072"
       style="fill:none;stroke:#231f20;stroke-width:0.5;stroke-linecap:round;stroke-linejoin:round;stroke-miterlimit:4;stroke-dasharray:2.8, 1.8;stroke-dashoffset:0;stroke-opacity:1"
       id="path996" />
    <path
       d="m 500.01,569.874 c 7.401,0.384 13.633,1.344 21.229,4.418 2.7,1.091 5.543,2.376 8.062,3.503 5.257,2.348 23.949,10.819 22.958,16.969 -0.992,6.149 -27.17,12.124 -36.5,11.631 -10.277,-0.545 -27.41,-7.687 -34.057,-11.553 -7.596,-4.418 -14.996,-7.683 -23.37,-6.722 -8.375,0.96 -12.66,4.609 -18.503,11.908 -5.843,7.297 -8.958,10.37 -10.517,12.676 -1.558,2.304 -7.595,14.596 -7.401,26.888 0.195,12.292 1.948,21.511 7.011,28.041 5.064,6.53 15.466,12.058 18.503,18.053 2.337,4.61 1.2,13.809 -9.687,10.875"
       style="fill:none;stroke:#231f20;stroke-width:0.5;stroke-linecap:round;stroke-linejoin:round;stroke-miterlimit:4;stroke-dasharray:2.8, 1.8;stroke-dashoffset:0;stroke-opacity:1"
       id="path998" />
    <path
       d="m 581.019,686.996 c 0.992,-4.958 0.961,-10.704 0.961,-10.704 -0.609,-2.628 -2.787,-4.038 -4.572,-3.14 -1.785,0.898 -4.918,10.472 -4.088,13.988"
       style="fill:none;stroke:#231f20;stroke-width:0.5;stroke-linecap:round;stroke-linejoin:round;stroke-miterlimit:4;stroke-dasharray:2.8, 1.8;stroke-dashoffset:0;stroke-opacity:1"
       id="path1000" />
    <path
       d="m 605.103,659.927 c -1.869,-3.477 -2.861,-10.419 5.867,-11.411 7.637,-0.868 18.711,-1.288 25.326,1.547"
       style="fill:none;stroke:#231f20;stroke-width:0.5;stroke-linecap:round;stroke-linejoin:round;stroke-miterlimit:4;stroke-dasharray:2.8, 1.8;stroke-dashoffset:0;stroke-opacity:1"
       id="path1002" />
    <path
       d="m 638.679,712.191 c -8.379,-18.384 -8.699,-37.181 -4.369,-49.898 1.342,-3.945 2.246,-12.983 2.049,-15.165 -0.197,-2.182 1.189,-3.372 3.57,-2.975 2.381,0.396 6.934,0.013 9.274,-0.593 6.726,-1.744 14.093,0.21 17.25,0.833 4.431,0.877 13.076,3.578 23.058,11.14 9.117,6.914 19.989,21.511 21.352,24.968"
       style="fill:none;stroke:#231f20;stroke-width:0.5;stroke-linecap:round;stroke-linejoin:round;stroke-miterlimit:4;stroke-dasharray:2.8, 1.8;stroke-dashoffset:0;stroke-opacity:1"
       id="path1004" />
    <path
       d="m 702.326,582.159 c 3.105,-0.131 14.884,-5.08 8.785,-17.778"
       style="fill:none;stroke:#231f20;stroke-width:0.5;stroke-linecap:round;stroke-linejoin:round;stroke-miterlimit:4;stroke-dasharray:2.8, 1.8;stroke-dashoffset:0;stroke-opacity:1"
       id="path1006" />
    <path
       d="m 803.314,522.163 c -1.135,-4.756 -4.357,-14.1 -4.904,-20.823 -0.594,-7.339 0.595,-37.884 0.595,-37.884"
       style="fill:none;stroke:#231f20;stroke-width:0.5;stroke-linecap:round;stroke-linejoin:round;stroke-miterlimit:4;stroke-dasharray:2.8, 1.8;stroke-dashoffset:0;stroke-opacity:1"
       id="path1008" />
    <path
       d="m 785.947,590.086 c 0,0 0.285,-0.859 3.177,-0.775 2.893,0.085 5.999,0.165 9.954,-1.045 3.951,-1.208 8.006,-3.168 9.482,-6.072 1.477,-2.904 5.606,-8.528 -4.523,-16.266"
       style="fill:none;stroke:#231f20;stroke-width:0.5;stroke-linecap:round;stroke-linejoin:round;stroke-miterlimit:4;stroke-dasharray:2.8, 1.8;stroke-dashoffset:0;stroke-opacity:1"
       id="path1010" />
    <path
       d="m 779.494,586.6 c 0,0 4.437,1.023 8.759,6.129"
       style="fill:none;stroke:#231f20;stroke-width:0.5;stroke-linecap:round;stroke-linejoin:round;stroke-miterlimit:4;stroke-dasharray:2.8, 1.8;stroke-dashoffset:0;stroke-opacity:1"
       id="path1012" />
    <path
       d="m 799.015,620.475 c 0,0 12.237,-4.717 17.817,-4.473"
       style="fill:none;stroke:#231f20;stroke-width:0.5;stroke-linecap:round;stroke-linejoin:round;stroke-miterlimit:4;stroke-dasharray:2.8, 1.8;stroke-dashoffset:0;stroke-opacity:1"
       id="path1014" />
    <path
       d="m 778.683,612.482 c -0.504,-2.049 -0.687,-5.189 -0.596,-9.569"
       style="fill:none;stroke:#231f20;stroke-width:0.5;stroke-linecap:round;stroke-linejoin:round;stroke-miterlimit:4;stroke-dasharray:2.8, 1.8;stroke-dashoffset:0;stroke-opacity:1"
       id="path1016" />
    <path
       d="m 780.093,584.821 c 5.227,2.008 14.946,3.222 21.69,-0.545 4.961,-2.774 11.646,-9.028 -0.233,-17.981"
       style="fill:none;stroke:#231f20;stroke-width:0.5;stroke-linecap:round;stroke-linejoin:round;stroke-miterlimit:4;stroke-dasharray:2.8, 1.8;stroke-dashoffset:0;stroke-opacity:1"
       id="path1018" />
    <path
       d="m 616.449,732.945 c -6.686,4.416 -33.713,26.073 -37.002,31.645"
       style="fill:none;stroke:#231f20;stroke-width:0.5;stroke-linecap:round;stroke-linejoin:round;stroke-miterlimit:4;stroke-dasharray:2.8, 1.8;stroke-dashoffset:0;stroke-opacity:1"
       id="path1020" />
    <path
       d="m 614.892,599.701 c 2.981,0.168 9.162,3.372 14.174,6.486 5.012,3.116 9.65,6.343 12.994,5.61 2.318,-0.509 2.453,-1.661 3.94,-2.216 2.171,-0.816 6.265,0.687 8.707,4.423"
       style="fill:none;stroke:#231f20;stroke-width:0.5;stroke-linecap:round;stroke-linejoin:round;stroke-miterlimit:4;stroke-dasharray:2.8, 1.8;stroke-dashoffset:0;stroke-opacity:1"
       id="path1022" />
    <path
       d="m 437.505,483.564 1.286,14.472"
       style="fill:none;stroke:#231f20;stroke-width:0.5;stroke-linecap:round;stroke-linejoin:round;stroke-miterlimit:4;stroke-dasharray:2.8, 1.8;stroke-dashoffset:0;stroke-opacity:1"
       id="path1024" />
    <path
       d="m 441.565,525.368 c -3.917,-4.103 -5.203,-10.727 -5.843,-13.979 -0.641,-3.248 -1.007,-7.98 1.031,-10.668 2.038,-2.685 7.687,-13.666 30.372,-4.742"
       style="fill:none;stroke:#231f20;stroke-width:0.5;stroke-linecap:round;stroke-linejoin:round;stroke-miterlimit:4;stroke-dasharray:2.8, 1.8;stroke-dashoffset:0;stroke-opacity:1"
       id="path1026" />
    <path
       d="m 484.819,528.965 c -7.923,-4.624 -28.399,-29.234 -11.948,-40.964"
       style="fill:none;stroke:#231f20;stroke-width:0.5;stroke-linecap:round;stroke-linejoin:round;stroke-miterlimit:4;stroke-dasharray:2.8, 1.8;stroke-dashoffset:0;stroke-opacity:1"
       id="path1028" />
    <path
       d="m 520.462,519.547 c -1.931,3.379 -4.671,5.582 -0.864,8.503 3.807,2.923 8.746,1.882 11.315,1.459 2.569,-0.423 5.935,1.991 0.854,4.14 -7.679,3.244 -26.828,-5.637 -11.305,-14.102 z"
       style="fill:none;stroke:#231f20;stroke-width:0.5;stroke-linecap:round;stroke-linejoin:round;stroke-miterlimit:4;stroke-dasharray:2.8, 1.8;stroke-dashoffset:0;stroke-opacity:1"
       id="path1030" />
    <path
       d="m 579.447,764.59 c 0,0 -2.862,7.745 -7.971,11.154 -5.109,3.409 -17.505,10.442 -27.024,10.719 -9.516,0.277 -28.97,-1.144 -35.533,-2.474 -6.56,-1.33 -26.451,-6.307 -36.279,-14.531 -9.825,-8.223 -21.229,-16.231 -19.738,-22.571 1.492,-6.341 16.698,-9.242 26.009,-9.126 9.313,0.114 20.903,6.738 33.612,8.407 13.493,1.772 23.396,-0.006 26.143,-2.009 2.746,-2.003 1.33,-3.969 -2.427,-3.145 -3.755,0.825 -17.012,2.722 -27.575,-1.142 -10.561,-3.863 -28.303,-11.221 -42.317,-7.933 -14.011,3.288 -16.739,6.277 -18.053,11.231 -1.314,4.954 0.142,9.687 5.148,13.598 5.008,3.911 13.43,10.959 16.035,13.112 2.607,2.154 13.195,8.196 18.97,10.126 5.775,1.93 18.517,5.78 25.07,6.517 6.553,0.737 28.977,1.539 33.731,1.104 4.754,-0.436 21.527,-6.713 26.025,-11.107 4.5,-4.393 7.605,-14.985 3.779,-18.713 -3.826,-3.729 -13.316,4.739 -19.998,8.953 -6.681,4.214 -21.129,6.513 -36.617,5.061 -15.485,-1.451 -30.836,-7.651 -39.028,-12.328 -8.191,-4.676 -13.611,-9.573 -12.075,-12.948 1.535,-3.375 6.081,-4.008 11.266,-1.68 5.185,2.328 10.353,3.469 10.353,3.469"
       style="fill:none;stroke:#231f20;stroke-width:0.5;stroke-linecap:round;stroke-linejoin:round;stroke-miterlimit:4;stroke-dasharray:2.8, 1.8;stroke-dashoffset:0;stroke-opacity:1"
       id="path1032" />
    <path
       d="m 460.646,759.451 c -8.033,-5.246 -4.978,-26.626 40.998,-15.747"
       style="fill:none;stroke:#231f20;stroke-width:0.5;stroke-linecap:round;stroke-linejoin:round;stroke-miterlimit:4;stroke-dasharray:2.8, 1.8;stroke-dashoffset:0;stroke-opacity:1"
       id="path1034" />
    <path
       d="m 468.301,768.905 1.615,-1.697"
       style="fill:none;stroke:#231f20;stroke-width:0.5;stroke-linecap:round;stroke-linejoin:round;stroke-miterlimit:4;stroke-dasharray:2.8, 1.8;stroke-dashoffset:0;stroke-opacity:1"
       id="path1036" />
    <path
       d="m 451.955,755.481 2.948,-2.122"
       style="fill:none;stroke:#231f20;stroke-width:0.5;stroke-linecap:round;stroke-linejoin:round;stroke-miterlimit:4;stroke-dasharray:2.8, 1.8;stroke-dashoffset:0;stroke-opacity:1"
       id="path1038" />
    <path
       d="m 504.878,731.589 c 0,0 12.457,4.844 25.144,4.732 9.319,-0.083 20.404,-1.566 27.538,-2.025 7.137,-0.458 12.686,-0.903 12.703,0.284 0.018,1.188 -3.929,2.608 -8.463,4.628 -4.533,2.018 -13.124,11.196 -26.574,13.688 -13.448,2.49 -24.564,1.399 -32.139,-1.502 -7.574,-2.901 -11.755,-4.249 -12.134,-3.06 -0.378,1.191 7.396,4.288 13.363,5.818 5.97,1.531 18.697,4.192 27.003,2.735 8.307,-1.457 16.774,-5.686 21.679,-9.291 4.906,-3.605 12.316,-7.696 15.142,-9.038 5.518,-2.622 10.318,-0.091 10.871,-2.867 0.553,-2.777 -7.625,-5.673 -11.588,-5.242 -3.963,0.431 -29.914,2.64 -33.675,3.069 -3.762,0.429 -12.487,0.308 -18.252,-0.828 -5.766,-1.135 -10.618,-1.101 -10.618,-1.101 z"
       style="fill:none;stroke:#231f20;stroke-width:0.5;stroke-linecap:round;stroke-linejoin:round;stroke-miterlimit:4;stroke-dasharray:2.8, 1.8;stroke-dashoffset:0;stroke-opacity:1"
       id="path1040" />
    <path
       d="m 490.43,877.628 1.198,-76.616"
       style="fill:none;stroke:#231f20;stroke-width:0.5;stroke-linecap:round;stroke-linejoin:round;stroke-miterlimit:4;stroke-dasharray:2.8, 1.8;stroke-dashoffset:0;stroke-opacity:1"
       id="path1042" />
    <path
       d="m 745.632,609.238 c -1.89,-1.685 -6.841,-4.076 -14.117,-5.009 -9.433,-1.211 -14.787,-0.847 -22.332,6.496 -7.547,7.344 -5.24,14.501 -3.807,19.524 1.432,5.021 6.477,6.48 10.643,5.162 4.168,-1.319 9.488,-5.537 14.721,-7.506 5.232,-1.971 11.551,-2.235 14.982,-1.405 3.436,0.829 6.774,3.052 8.729,6.571 1.955,3.517 -2.498,9.016 -4.627,10.746 -2.127,1.731 -13.432,7.818 -15.565,8.907 -2.135,1.088 -5.549,2.722 -9.945,2.007 -4.396,-0.715 -8.369,-1.86 -9.32,-0.248 -0.952,1.616 -1.155,3.117 -0.174,4.929 0.976,1.812 6.82,9.156 7.902,10.541 1.082,1.382 3.481,6.826 3.293,10.255 -0.185,3.428 -1.008,7.719 0.836,10.811 1.846,3.09 9.315,12.991 10.828,14.693 1.512,1.702 3.787,4.682 4.963,4.458 1.176,-0.223 2.881,-1.307 3.283,-4.416 0.405,-3.11 1.227,-7.507 3.135,-10.093 1.906,-2.586 4.426,-8.818 3.74,-14.382 -0.687,-5.563 -1.582,-10.162 0.616,-16.82 2.197,-6.657 6.542,-12.261 9.943,-15.608 3.4,-3.349 8.547,-2.638 10.264,-2.224 1.716,0.415 6.359,4.983 4.8,11.1 -1.556,6.118 -3.955,14.383 -1.978,20.473 1.976,6.089 3.763,16.356 -0.555,24.53 -2.215,4.195 -3.359,8.488 -3.447,10.845 -0.088,2.357 -1.777,5.583 -3.051,6.986 -1.273,1.402 -3.609,3.884 -4.889,4.858 -1.275,0.975 -2.226,2.588 -1.888,4.835 0.34,2.246 1.537,4.593 3.263,6.185 1.725,1.593 20.979,15.403 22.192,16.21 4.674,3.108 7.91,2.961 9.658,2.494 0.856,-0.228 4.701,-1.537 4.908,-2.502 0.205,-0.966 1.018,-6.435 0.033,-9.104 -0.984,-2.67 -7.402,-14.936 -9.9,-19.307 -2.496,-4.372 -3.822,-9.287 -2.877,-11.544 0.947,-2.257 5.334,-2.613 7.699,-1.668 2.364,0.945 7.309,3.262 12.834,11.036 5.524,7.775 8.676,13.747 9.991,17.164 1.312,3.417 4.339,7.248 7.259,10.653 2.92,3.404 7.565,8.507 8.647,9.784 1.08,1.277 2.804,2.655 7.521,3.046 4.715,0.39 11.772,-1.057 14.231,-1.613 2.459,-0.555 4.17,-0.889 3.933,-3.887 -0.24,-2.997 -4.865,-5.53 -8.203,-7.86 -3.34,-2.33 -11.205,-8.157 -13.898,-10.171 -2.694,-2.013 -4.322,-4.892 -6.389,-8.946 -2.068,-4.053 -5.316,-8.418 -11.033,-13.514 -5.717,-5.095 -16.731,-16.36 -19.781,-22.869 -3.051,-6.509 -4.168,-12.39 -3.455,-17.002 0.712,-4.611 3.252,-8.486 8.195,-6.384 4.943,2.103 10.111,5.596 14.654,11.129 4.543,5.533 13.072,14.248 15.445,16.371 2.374,2.123 9.274,7.637 12.639,13.394 3.367,5.756 7.397,14.185 9.789,18.879 2.395,4.694 5.756,10.022 8.987,12.031 3.228,2.009 5.386,4.134 8.914,3.034 3.525,-1.098 5.859,-3.688 4.982,-6.251 -0.877,-2.564 -3.461,-4.256 -7.652,-6.044 -4.192,-1.787 -5.951,-7.664 -5.217,-9.49 0.734,-1.827 5.332,-2.827 8.238,-1.137 2.906,1.691 11.182,5.48 13.656,6.96 2.477,1.48 11.077,5.481 12.344,3.222 1.268,-2.26 -5.611,-5.311 -7.762,-6.257 -2.15,-0.947 -17.095,-8.432 -20.652,-11.081 -3.555,-2.65 -7.359,-9.795 -6.631,-12.264 0.731,-2.47 3.053,-6.772 -0.299,-10.815 -3.353,-4.043 -22.543,-19.742 -27.609,-23.878 -5.066,-4.137 -13.58,-10.71 -16.07,-14.01 -2.489,-3.3 -4.244,-8.642 -3.828,-10.144 0.416,-1.503 0.713,-4.61 4.24,-5.497 3.527,-0.884 9.859,0.673 11.357,0.554 1.498,-0.119 3.641,-0.136 8.91,2.713 5.272,2.85 16.246,9.189 21.956,13.213 5.707,4.024 15.414,12.408 20.603,18.472 5.189,6.063 8.67,12.997 9.787,18.664 1.117,5.668 4.484,11.853 8.168,16.964 3.682,5.112 7.666,7.758 8.098,8.075 0.429,0.318 1.818,-0.335 2.884,-0.772 1.069,-0.437 2.987,-1.63 2.965,-4.201 -0.019,-2.57 -0.293,-9.851 -1.066,-12.951 -0.773,-3.099 -1.904,-10.48 -2.891,-13.257 -0.986,-2.777 -3.502,-9.504 -5.67,-12.807 -2.17,-3.303 -5.285,-4.564 -7.33,-5.833 -2.045,-1.268 -7.103,-4.228 -11.961,-9.115 -4.859,-4.887 -6.738,-12.262 -5.591,-16.342 1.144,-4.08 4.533,-8.926 11.5,-8.338 6.966,0.585 9.564,4.208 12.046,6.543 2.483,2.337 6.358,4.878 8.711,4.429 2.354,-0.446 4.5,0.071 5.297,-7.217 0.799,-7.289 0.869,-11.895 -0.066,-21.74 -0.936,-9.846 -3.488,-21.287 -5.76,-24.053 -2.271,-2.767 -5.291,-5.42 -6.762,-1.981 -1.474,3.439 -6.627,15.368 -8.107,17.844 -1.479,2.474 -6.367,7.332 -9.135,9.389 -2.769,2.056 -8.517,6.281 -10.652,7.369 -2.133,1.088 -7.473,2.951 -13.07,-0.645 -5.598,-3.599 -11.088,-6.982 -12.481,-7.079 -1.393,-0.094 -5.477,-1.882 -7.838,-2.399 -2.359,-0.517 -6.646,-0.803 -8.57,-0.254 -1.924,0.552 -7.473,3.059 -13.057,1.283 -5.584,-1.775 -7.658,-6.687 -7.482,-11.722 0.174,-5.035 1.951,-10.511 7.504,-12.484 5.554,-1.971 13.898,-3.216 21.193,-1.559 7.297,1.654 14.49,3.845 16.1,4.368 1.611,0.523 5.47,0.813 7.152,-3.161 1.682,-3.977 3.023,-10.201 4.615,-12.141 1.592,-1.939 4.658,-6.783 2.6,-9.874 -2.061,-3.089 -7.111,-5.191 -14.182,-5.456 -7.07,-0.265 -12.531,-0.007 -15.726,2.268 -3.194,2.273 -7.569,4.236 -10.348,5.116 -2.777,0.878 -10.139,4.579 -11.518,6.303 -1.376,1.724 -4.355,4.426 -5.75,4.223 -1.392,-0.203 -4.171,0.461 -3.984,-2.86"
       style="fill:none;stroke:#231f20;stroke-width:0.75;stroke-linecap:round;stroke-linejoin:round;stroke-miterlimit:4;stroke-dasharray:0, 2;stroke-dashoffset:0;stroke-opacity:1"
       id="path1044" />
  </g>
</svg>
