<?xml version="1.0" encoding="UTF-8" standalone="no"?>
<!-- Created with Inkscape (http://www.inkscape.org/) -->

<svg
   version="1.1"
   id="svg2"
   width="1440"
   height="1344"
   viewBox="0 0 1440 1344"
   xmlns="http://www.w3.org/2000/svg"
   xmlns:svg="http://www.w3.org/2000/svg">
  <defs
     id="defs6" />
  <g
     id="g8">
    <path
       d="m 660.988,754.181 c 0.841,15.722 -22.062,16.947 -22.062,16.947 0,0 9.034,2.26 21.04,8.816 12.006,6.557 25.08,1.059 25.08,1.059 -20.246,-6.802 -24.058,-26.822 -24.058,-26.822 z m -88.719,-14.976 c -1.552,3.12 -6.941,3.439 -13.253,2.603 9.602,4.957 5.231,11.444 2.765,13.085 1.103,-0.55 2.188,-0.963 3.18,-1.164 5.134,-1.037 17.541,-0.43 27.567,1.493 -8.038,-2.323 -16.059,-8.125 -19.176,-11.739 -1.238,-1.438 -1.656,-2.888 -1.083,-4.278 z M 270.257,843.128 C 228.316,826.4 199.671,805.744 187.496,794.787 171.659,780.536 169.21,766.011 171.674,752.99 c 6.82,-36.04 24.552,-54.811 37.271,-68.163 12.94,-13.585 30.345,-30.503 30.046,-31.261 -0.298,-0.758 -9.739,5.936 -16.595,12.749 -6.856,6.812 -29.519,31.49 -37.794,40.7 -8.275,9.21 -22.512,27.506 -26.066,33.369 l -3.275,-114.317 c 10.517,-15.519 32.275,-37.828 37.684,-42.759 5.41,-4.931 11.132,-8.847 16.096,-12.463 4.963,-3.618 8.573,-8.453 17.174,-16.39 8.601,-7.939 22.231,-23.107 25.409,-26.373 3.178,-3.263 6.173,-6.451 10.626,-13.46 6.898,-10.857 19.941,-25.013 37.377,-32.428 3.699,-1.571 9.593,-5.41 12.545,-6.516 3.706,-1.386 16.806,-4.357 34.263,-5.441 10.33,-0.642 26.695,0.146 31.3,0.219 8.097,0.128 7.202,12.509 7.202,12.509 22.757,-8.437 37.286,6.086 40.764,10.028 3.476,3.939 4.352,-5.391 4.808,-9.714 0.457,-4.323 9.399,-4.284 13.911,-3.493 4.512,0.789 19.998,4.258 25.153,7.422 5.154,3.163 10.881,10.593 10.881,10.593 4.346,-2.295 8.343,-1.477 18.063,0.238 9.719,1.715 15.837,3.623 19.657,7.545 3.82,3.92 5.075,4.885 9.702,4.637 4.629,-0.247 11.762,-5.097 25.259,-6.679 13.496,-1.582 33.91,4.034 45.076,10.313 11.166,6.28 12.924,10.226 15.917,13.159 2.995,2.936 6.99,6.933 7.801,6.03 1.863,-2.072 -3.628,-5.993 -3.677,-10.891 -0.038,-3.789 3.198,-7.437 7.213,-10.392 -5.194,-4.93 -12.862,-13.288 -7.902,-21.805 4.96,-8.517 22.105,-35.596 33.275,-38.395 18.322,-4.592 44.534,-7.691 67.522,-8.768 9.471,-0.443 44.127,-4.249 58.312,10.292 0,0 9.463,-3.084 24.603,-2.862 15.141,0.224 48.255,2.235 58.577,2.37 10.322,0.138 25.145,-2.374 34.708,-3.574 9.563,-1.198 27.513,3.342 38.075,11.202 10.563,7.86 11.621,11.586 20.93,8.852 l 26.707,97.594 c -6.995,7.421 -34.94,18.543 -39.981,20.704 -5.041,2.16 -9.443,3.427 -13.044,3.619 -3.599,0.192 -26.165,-0.663 -37.705,-0.833 2.34,0.125 4.374,0.535 5.752,1.252 5.835,3.041 2.585,9.136 -0.355,12.654 -0.159,0.191 -0.322,0.371 -0.461,0.507 -0.579,2 -3.143,4.455 -4.887,5.408 0.562,0.092 1.095,0.183 1.594,0.27 16.275,2.851 36.333,12.796 52.036,30.811 15.702,18.015 9.384,34.463 5.916,40.132 -3.467,5.67 -8.345,4.217 -8.345,4.217 3.96,3.559 7.801,11.238 10.906,24.439 3.105,13.203 -4.386,26.973 -9.942,32.069 -5.555,5.095 -15.093,-0.222 -15.093,-0.222 -1.184,3.49 2.831,8.076 4.436,12.446 1.606,4.369 5.466,18.903 -1.114,24.055 -6.58,5.15 -12.879,2.743 -12.879,2.743 0,0 2.593,3.634 3.136,7.374 0.543,3.741 -8.107,8.661 -12.026,12.298 -3.919,3.638 -8.021,3.857 -13.167,3.788 -5.145,-0.067 -10.295,-6.647 -10.295,-6.647 3.662,10.773 -2.938,15.582 -19.199,19.193 -16.26,3.613 -19.597,-7.522 -19.597,-7.522 7.993,27.682 -39.37,13.76 -50.905,9.578 -11.535,-4.182 -11.383,-14.132 -11.383,-14.132 -18.523,6.132 -29.948,-15.196 -33.969,-26.293 -4.022,-11.097 -7.442,-36.622 -7.442,-36.622 0,0 5.637,28.491 -20.193,32.615 0,0 21.541,-3.234 23.68,10.241 1.402,8.832 2.553,16.711 2.791,24.484 0.205,6.702 -0.17,12.749 -1.019,18.172 -3.85,23.035 -47.489,31.845 -66.77,36.647 -19.282,4.802 -45.381,10.371 -73.231,13.636 -27.849,3.265 -73.035,3.841 -98.353,3.458 -25.319,-0.385 -38.173,-0.769 -55.702,-2.882 -17.638,-2.131 -61.424,-9.783 -67.462,-10.936 -6.038,-1.152 -29.5,-5 -42.5,-7 -9.364,-1.441 -40,-4 -73.243,-17.26"
       style="fill:#ffffff;fill-opacity:1;fill-rule:nonzero;stroke:none;stroke-width:0.1"
       id="path728" />
    <path
       d="m 722.066,774.568 c 0,0 -9.268,-0.19 -20.455,2.122 -11.189,2.312 -16.565,4.313 -16.565,4.313"
       style="fill:none;stroke:#231f20;stroke-width:0.75;stroke-linecap:butt;stroke-linejoin:miter;stroke-miterlimit:4;stroke-dasharray:none;stroke-opacity:1"
       id="path730" />
    <path
       d="m 855.997,592.735 c 9.365,-1.702 13.055,-2.093 24.412,-1.837 3.071,-0.639 6.31,-0.898 9.133,-0.741"
       style="fill:none;stroke:#231f20;stroke-width:0.5;stroke-linecap:butt;stroke-linejoin:miter;stroke-miterlimit:4;stroke-dasharray:none;stroke-opacity:1"
       id="path732" />
    <path
       d="m 849.856,667.587 c 5.152,-4.917 17.614,-8.161 27.807,-5.611 10.193,2.549 13.879,8.799 17.185,12.748 3.306,3.949 7.204,4.514 11.966,1.94 4.762,-2.577 20.626,-4.479 33.978,8.744"
       style="fill:none;stroke:#231f20;stroke-width:0.5;stroke-linecap:butt;stroke-linejoin:miter;stroke-miterlimit:4;stroke-dasharray:none;stroke-opacity:1"
       id="path734" />
    <path
       d="m 862.151,624.209 c -0.549,2.609 11.902,4.008 21.293,5.998 9.411,1.996 24.569,6.165 24.15,7.992 -0.418,1.828 -27.099,-5.255 -34.583,-5.372 -7.485,-0.115 -10.952,-2.251 -19.469,7.23 -8.519,9.481 -20.67,28.181 -16.889,36.231 3.783,8.049 12.42,10.423 20.744,11.784 8.324,1.359 19.835,9.255 25.808,14.866 5.973,5.612 10.565,9.492 16.652,7.62 6.09,-1.873 17.78,-0.587 20.494,2.257 2.458,2.576 -0.107,2.842 -1.975,1.652 -1.87,-1.189 -5.01,-2.052 -9.84,-0.763 -4.83,1.29 -9.363,3.338 -8.831,8.465 0.533,5.13 2.463,15.52 3.956,20.934 1.362,4.947 4.365,9.309 3.106,9.891 -1.257,0.583 -4.45,-9.141 -6.82,-16.654 -2.64,-8.369 -6.211,-14.882 -19.589,-23.966 -13.38,-9.084 -27.283,-13.499 -30.961,-9.95 -3.679,3.549 5.241,20.866 10.269,28.075 5.027,7.209 14.881,22.33 18.48,27.139 3.926,5.244 10.834,13.531 12.14,15.062 1.788,2.096 0.565,3.322 -1.731,1.382 -2.024,-1.712 -23.066,-21.46 -28.823,-27.857 -5.757,-6.396 -20.898,-19.513 -26.093,-15.366 -5.193,4.145 -4.176,23.173 0.011,29.138 4.187,5.965 25.591,30.092 26.999,32.337 1.41,2.246 -0.435,1.485 -2.088,-0.49 -1.652,-1.974 -11.208,-13.497 -15.056,-17.933 -3.846,-4.436 -4.723,-4.734 -7.205,-6.148 -2.481,-1.414 -8.15,-3.168 -11.712,-0.406 -4.044,3.14 -8.478,9.436 -8.374,20.218 0.089,9.27 1.067,13.524 -0.296,13.77 -1.362,0.243 -2.383,-2.797 -2.721,-9.139 -0.34,-6.343 0.43,-14.464 1.048,-18.966 0.619,-4.502 2.303,-7.918 3.19,-9.226 0.618,-0.908 2.368,-2.59 1.553,-4.953 -0.815,-2.363 -2.623,-7.252 -1.895,-22.591 0.727,-15.339 1.569,-25.354 2.016,-29.848 0.446,-4.494 -0.157,-12.541 -7.386,-15.937 -7.229,-3.395 -24.263,-0.423 -30.529,14.182 -6.269,14.603 -5.112,26.575 -4.633,38.756 0.479,12.18 -4.763,23.462 -5.88,25.069 -1.119,1.607 -3.939,3.476 -2.987,-1.216 0.951,-4.692 4.437,-23.101 4.469,-28.947 0.031,-5.848 -0.869,-13.021 -1.358,-15.744 -0.488,-2.724 -3.856,-4.608 -5.778,-5.193 -1.923,-0.585 -2.14,-1.431 -0.76,-1.334 1.381,0.098 4.503,0.618 5.283,-4.065 0.782,-4.683 7.373,-19.648 9.122,-22.319 1.749,-2.673 2.855,-7.718 -1.01,-12.497 -3.867,-4.779 -10.558,-10.954 -19.413,-6.181 0,0 6.815,-7.586 -0.489,-12.353 -7.303,-4.766 -10.651,-6.307 -10.651,-6.307 0,0 4.809,-0.084 8.662,1.256 3.853,1.342 9.265,3.08 6.811,-1.224 -0.06,-0.106 -0.213,-0.281 -0.452,-0.514"
       style="fill:none;stroke:#231f20;stroke-width:0.5;stroke-linecap:butt;stroke-linejoin:miter;stroke-miterlimit:4;stroke-dasharray:none;stroke-opacity:1"
       id="path736" />
    <path
       d="m 783.67,804.868 c 2.186,-3.12 2.28,-7.767 2.376,-12.414 0.097,-4.646 5.164,-19.186 6.404,-24.926 1.241,-5.739 3.884,-21.522 2.617,-35.551 -1.266,-14.028 7.68,-29.122 9.131,-30.919"
       style="fill:none;stroke:#231f20;stroke-width:0.5;stroke-linecap:butt;stroke-linejoin:miter;stroke-miterlimit:4;stroke-dasharray:none;stroke-opacity:1"
       id="path738" />
    <path
       d="m 845.958,809.422 c -1.549,-2.552 -9.267,-15.033 -10.413,-26.834"
       style="fill:none;stroke:#231f20;stroke-width:0.5;stroke-linecap:butt;stroke-linejoin:miter;stroke-miterlimit:4;stroke-dasharray:none;stroke-opacity:1"
       id="path740" />
    <path
       d="m 884.754,797.751 c -3.881,-6.584 -11.249,-12.55 -14.582,-17.014 -3.332,-4.464 -18.672,-27.712 -21.996,-32.003"
       style="fill:none;stroke:#231f20;stroke-width:0.5;stroke-linecap:butt;stroke-linejoin:miter;stroke-miterlimit:4;stroke-dasharray:none;stroke-opacity:1"
       id="path742" />
    <path
       d="m 917.106,780.938 c -3.456,-3.729 -8.582,-6.376 -13.854,-8.502 -5.271,-2.125 -7.772,-3.881 -9.978,-9.781 -2.206,-5.899 -8.27,-29.298 -24.033,-41.178"
       style="fill:none;stroke:#231f20;stroke-width:0.5;stroke-linecap:butt;stroke-linejoin:miter;stroke-miterlimit:4;stroke-dasharray:none;stroke-opacity:1"
       id="path744" />
    <path
       d="m 912.394,731.205 c 2.528,2.271 8.757,7.939 14.269,10.489"
       style="fill:none;stroke:#231f20;stroke-width:0.5;stroke-linecap:butt;stroke-linejoin:miter;stroke-miterlimit:4;stroke-dasharray:none;stroke-opacity:1"
       id="path746" />
    <path
       d="m 735.273,688.412 c 0,0 4.168,10.434 9.022,11.207 0,0 -6.739,-0.672 -6.574,2.414 z"
       style="fill:none;stroke:#231f20;stroke-width:0.75;stroke-linecap:butt;stroke-linejoin:miter;stroke-miterlimit:4;stroke-dasharray:none;stroke-opacity:1"
       id="path748" />
    <path
       d="m 744.295,699.619 c 3.79,0.14 10.312,-0.037 13.54,-3.991 3.228,-3.955 5.777,-7.7 5.777,-7.7"
       style="fill:none;stroke:#231f20;stroke-width:0.5;stroke-linecap:butt;stroke-linejoin:miter;stroke-miterlimit:4;stroke-dasharray:none;stroke-opacity:1"
       id="path750" />
    <path
       d="m 742.259,741.953 -4.602,-40.276"
       style="fill:none;stroke:#231f20;stroke-width:0.75;stroke-linecap:butt;stroke-linejoin:miter;stroke-miterlimit:4;stroke-dasharray:none;stroke-opacity:1"
       id="path752" />
    <path
       d="m 735.273,688.412 c -1.05,-3.555 -2.209,-9.166 -2.193,-12.09 0,0 -6.104,-4.83 -11.936,-20.679 -0.264,-1.001 0.358,-4.795 0.507,-6.589 0.075,-0.896 0.139,-1.985 0.02,-2.859 1.941,-3.061 9.657,-14.638 25.105,-11.133 9.658,2.191 14.45,14.104 15.335,16.975"
       style="fill:none;stroke:#231f20;stroke-width:0.75;stroke-linecap:butt;stroke-linejoin:miter;stroke-miterlimit:4;stroke-dasharray:none;stroke-opacity:1"
       id="path754" />
    <path
       d="m 719.762,644.571 c 1.203,-2.713 12.226,-18.175 23.877,-10.031"
       style="fill:none;stroke:#231f20;stroke-width:0.5;stroke-linecap:butt;stroke-linejoin:miter;stroke-miterlimit:4;stroke-dasharray:none;stroke-opacity:1"
       id="path756" />
    <path
       d="m 709.091,603.238 c 0.941,0.995 1.84,1.878 2.594,2.498 3.237,2.664 15.574,4.325 22.092,5.653 9.484,1.932 8.693,-1.368 14.596,0.509 2.866,0.91 17.03,5.02 26.724,10.304 9.697,5.284 28.18,18.221 31.268,20.506 3.087,2.284 6.473,5.327 4.689,8.128 -1.784,2.804 -9.722,1.424 -13.575,-0.691 -3.853,-2.114 -14.494,-8.25 -32.538,-17.729 -18.041,-9.481 -26.069,-12.533 -36.356,-14.433 -10.288,-1.899 -16.208,-1.712 -20.262,-2.784"
       style="fill:none;stroke:#231f20;stroke-width:0.5;stroke-linecap:butt;stroke-linejoin:miter;stroke-miterlimit:4;stroke-dasharray:none;stroke-opacity:1"
       id="path758" />
    <path
       d="m 810.21,623.183 c 4.139,4.311 6.096,5.325 6.096,5.325 5.555,-2.23 13.588,-1.499 17.952,-1.861 4.365,-0.362 15.671,-1.096 17.736,-1.076 2.062,0.017 3.075,-0.1 4.713,-3.477 3.019,-6.22 15.513,-13.991 17.869,-14.729 0,0 -10.21,-3.602 -20.653,-3.559 -10.44,0.042 -20.46,3.156 -25.415,9.353 -4.955,6.195 -9.65,12.683 -18.298,10.024"
       style="fill:#706d6e;fill-opacity:1;fill-rule:nonzero;stroke:none;stroke-width:0.1"
       id="path760" />
    <path
       d="m 810.21,623.183 c 4.139,4.311 6.096,5.325 6.096,5.325 5.555,-2.23 13.588,-1.499 17.952,-1.861 4.365,-0.362 15.671,-1.096 17.736,-1.076 2.062,0.017 3.075,-0.1 4.713,-3.477 3.019,-6.22 15.513,-13.991 17.869,-14.729 0,0 -10.21,-3.602 -20.653,-3.559 -10.44,0.042 -20.46,3.156 -25.415,9.353 -4.955,6.195 -9.65,12.683 -18.298,10.024 z"
       style="fill:none;stroke:#231f20;stroke-width:0.5;stroke-linecap:butt;stroke-linejoin:miter;stroke-miterlimit:4;stroke-dasharray:none;stroke-opacity:1"
       id="path762" />
    <path
       d="m 856.124,623.205 6.027,1.004"
       style="fill:none;stroke:#231f20;stroke-width:0.5;stroke-linecap:butt;stroke-linejoin:miter;stroke-miterlimit:4;stroke-dasharray:none;stroke-opacity:1"
       id="path764" />
    <path
       d="m 658.338,744.181 c -0.148,-1.297 -0.575,-2.045 -1.338,-2.076 -3.619,-0.15 -3.577,7.067 -12.12,8.041 -6.993,0.795 -16.458,0.879 -30.815,-4.026 -14.359,-4.906 -31.969,-12.733 -37.181,-10.563 -2.589,1.076 -4.082,2.334 -4.63,3.675"
       style="fill:none;stroke:#231f20;stroke-width:0.5;stroke-linecap:butt;stroke-linejoin:miter;stroke-miterlimit:4;stroke-dasharray:none;stroke-opacity:1"
       id="path766" />
    <path
       d="m 660.988,754.181 c -0.245,-3.163 -2.342,-8.34 -2.962,-11.25 -0.621,-2.911 -1.395,-20.576 -1.304,-31.755 0.083,-10.278 -1.282,-28.615 -1.45,-35.515"
       style="fill:none;stroke:#231f20;stroke-width:0.5;stroke-linecap:butt;stroke-linejoin:miter;stroke-miterlimit:4;stroke-dasharray:none;stroke-opacity:1"
       id="path768" />
    <path
       d="m 577.632,719.254 c 15.21,7.954 53.637,29.039 79.741,16.298"
       style="fill:none;stroke:#231f20;stroke-width:0.5;stroke-linecap:butt;stroke-linejoin:miter;stroke-miterlimit:4;stroke-dasharray:none;stroke-opacity:1"
       id="path770" />
    <path
       d="m 582.517,690.386 c 18.309,14.493 50.675,33.734 74.35,32.813 0,0 0.271,-10.67 -5.109,-14.852 -5.382,-4.182 -24.265,-13.315 -34.755,-19.804 -10.489,-6.488 -24.981,-20.326 -27.337,-22.606 -2.357,-2.28 -2.951,-0.529 -3.518,1.735 -0.567,2.266 -3.484,24.899 -5.179,35.003 -1.913,11.417 -6.155,29.554 -8.685,36.502"
       style="fill:none;stroke:#231f20;stroke-width:0.5;stroke-linecap:butt;stroke-linejoin:miter;stroke-miterlimit:4;stroke-dasharray:none;stroke-opacity:1"
       id="path772" />
    <path
       d="m 708.325,615.242 c 0,0 -9.857,-4.287 -24.472,-13.993 -14.615,-9.706 -26.48,-19.386 -26.362,-20.423 0.116,-1.038 13.348,5.303 20.172,7.517 6.822,2.215 25.944,11.177 31.428,14.895"
       style="fill:none;stroke:#231f20;stroke-width:0.5;stroke-linecap:butt;stroke-linejoin:miter;stroke-miterlimit:4;stroke-dasharray:none;stroke-opacity:1"
       id="path774" />
    <path
       d="m 756.513,526.195 c 2.574,-0.044 8.799,-5.113 8.402,-10.078 -0.521,-6.505 -18.963,-18.818 -24.788,-13.458 -3.768,3.466 3.717,11.664 6.148,15.315 2.43,3.651 5.601,8.296 10.238,8.221 z"
       style="fill:none;stroke:#231f20;stroke-width:0.5;stroke-linecap:butt;stroke-linejoin:miter;stroke-miterlimit:4;stroke-dasharray:none;stroke-opacity:1"
       id="path776" />
    <path
       d="m 688.922,567.457 c -0.807,-5.459 1.576,-28.451 12.304,-36.761"
       style="fill:none;stroke:#231f20;stroke-width:0.5;stroke-linecap:butt;stroke-linejoin:miter;stroke-miterlimit:4;stroke-dasharray:none;stroke-opacity:1"
       id="path778" />
    <path
       d="m 674.193,551.738 c 4.305,0.804 9.042,-0.656 10.698,-5.041 1.655,-4.385 1.101,-11.576 -6.5,-15.468 -7.601,-3.892 -17.377,-0.274 -21.08,7.659 -3.701,7.934 1.891,12.11 4.737,12.733 2.091,-2.626 7.468,-2.323 12.145,0.117 z"
       style="fill:none;stroke:#231f20;stroke-width:0.5;stroke-linecap:butt;stroke-linejoin:miter;stroke-miterlimit:4;stroke-dasharray:none;stroke-opacity:1"
       id="path780" />
    <path
       d="m 748.296,538.642 c 2.889,3.652 6.166,7.085 8.012,12.661 5.22,15.77 -1.842,25.926 -11.243,30.858 -8.027,4.211 -14.85,1.997 -18.18,0.799 -3.33,-1.197 -13.807,-4.248 -18.632,-10.866 -4.822,-6.619 -4.987,-19.332 -2.711,-28.22 2.275,-8.889 6.644,-16.689 11.398,-18.317 6.838,-2.342 13.265,-2.684 22.434,5.106"
       style="fill:none;stroke:#231f20;stroke-width:0.5;stroke-linecap:butt;stroke-linejoin:miter;stroke-miterlimit:4;stroke-dasharray:none;stroke-opacity:1"
       id="path782" />
    <path
       d="m 777.468,564.441 c 1.988,-0.538 4.424,2.343 4.687,4.048 0.263,1.704 -0.809,4.169 -2.524,4.26 -1.715,0.091 -4.729,-1.639 -5.002,-3.514 -0.271,-1.876 0.465,-4.151 2.839,-4.794 z"
       style="fill:none;stroke:#231f20;stroke-width:0.5;stroke-linecap:butt;stroke-linejoin:miter;stroke-miterlimit:4;stroke-dasharray:none;stroke-opacity:1"
       id="path784" />
    <path
       d="m 944.049,461.5 c 2.749,-3.24 10.31,3.286 6.025,6.557 -3.635,2.774 -9.025,-3.018 -6.025,-6.557"
       style="fill:#ffffff;fill-opacity:1;fill-rule:nonzero;stroke:none;stroke-width:0.1"
       id="path786" />
    <path
       d="m 944.049,461.5 c 2.749,-3.24 10.31,3.286 6.025,6.557 -3.635,2.774 -9.025,-3.018 -6.025,-6.557 z"
       style="fill:none;stroke:#231f20;stroke-width:0.5;stroke-linecap:butt;stroke-linejoin:miter;stroke-miterlimit:4;stroke-dasharray:none;stroke-opacity:1"
       id="path788" />
    <path
       d="m 891.758,448.002 c -0.047,-0.852 -1.004,-1.494 -2.14,-1.432 -1.136,0.06 -2.02,0.801 -1.974,1.652 0.044,0.852 1.003,1.494 2.139,1.434 1.136,-0.062 2.019,-0.803 1.975,-1.654"
       style="fill:#ffffff;fill-opacity:1;fill-rule:nonzero;stroke:none;stroke-width:0.1"
       id="path790" />
    <path
       d="m 891.758,448.002 c -0.047,-0.852 -1.004,-1.494 -2.14,-1.432 -1.136,0.06 -2.02,0.801 -1.974,1.652 0.044,0.852 1.003,1.494 2.139,1.434 1.136,-0.062 2.019,-0.803 1.975,-1.654 z"
       style="fill:none;stroke:#231f20;stroke-width:0.5;stroke-linecap:butt;stroke-linejoin:miter;stroke-miterlimit:4;stroke-dasharray:none;stroke-opacity:1"
       id="path792" />
    <path
       d="m 875.727,448.789 c 0.058,-1.779 -2.45,-2.764 -5.196,-2.189 -2.369,0.498 -3.928,1.989 -3.771,3.335 0.155,1.285 1.859,2.201 4.049,2.085 2.506,-0.134 4.859,-1.553 4.918,-3.231"
       style="fill:#ffffff;fill-opacity:1;fill-rule:nonzero;stroke:none;stroke-width:0.1"
       id="path794" />
    <path
       d="m 875.727,448.789 c 0.058,-1.779 -2.45,-2.764 -5.196,-2.189 -2.369,0.498 -3.928,1.989 -3.771,3.335 0.155,1.285 1.859,2.201 4.049,2.085 2.506,-0.134 4.859,-1.553 4.918,-3.231 z"
       style="fill:none;stroke:#231f20;stroke-width:0.5;stroke-linecap:butt;stroke-linejoin:miter;stroke-miterlimit:4;stroke-dasharray:none;stroke-opacity:1"
       id="path796" />
    <path
       d="m 779.755,449.323 c 0.685,-1.245 0.566,-2.624 -0.265,-3.081 -0.83,-0.458 -2.06,0.182 -2.743,1.429 -0.686,1.245 -0.568,2.626 0.263,3.084 0.832,0.455 2.061,-0.184 2.745,-1.432"
       style="fill:#ffffff;fill-opacity:1;fill-rule:nonzero;stroke:none;stroke-width:0.1"
       id="path798" />
    <path
       d="m 779.755,449.323 c 0.685,-1.245 0.566,-2.624 -0.265,-3.081 -0.83,-0.458 -2.06,0.182 -2.743,1.429 -0.686,1.245 -0.568,2.626 0.263,3.084 0.832,0.455 2.061,-0.184 2.745,-1.432 z"
       style="fill:none;stroke:#231f20;stroke-width:0.5;stroke-linecap:butt;stroke-linejoin:miter;stroke-miterlimit:4;stroke-dasharray:none;stroke-opacity:1"
       id="path800" />
    <path
       d="m 873.932,590.834 c 5.997,-3.847 10.424,-7.866 23.498,-7.705 13.074,0.161 34.449,1.253 37.534,1.088 3.085,-0.164 5.784,-1.169 7.759,-2.822 1.974,-1.652 5.761,-4.775 13.573,-6.569 7.812,-1.793 20.688,-11.765 24.092,-18.824"
       style="fill:none;stroke:#231f20;stroke-width:0.5;stroke-linecap:butt;stroke-linejoin:miter;stroke-miterlimit:4;stroke-dasharray:none;stroke-opacity:1"
       id="path802" />
    <path
       d="m 618.227,473.418 c 3.921,-8.605 7.647,-16.139 2.907,-17.949 -4.738,-1.808 -21.262,-1.895 -25.984,4.999 -2.199,3.212 -3.643,9.994 2.275,14.577 5.919,4.583 10.928,6.636 12.783,7.569 1.855,0.932 4.302,-1.042 8.019,-9.196"
       style="fill:#ffffff;fill-opacity:1;fill-rule:nonzero;stroke:none;stroke-width:0.1"
       id="path804" />
    <path
       d="m 618.227,473.418 c 3.921,-8.605 7.647,-16.139 2.907,-17.949 -4.738,-1.808 -21.262,-1.895 -25.984,4.999 -2.199,3.212 -3.643,9.994 2.275,14.577 5.919,4.583 10.928,6.636 12.783,7.569 1.855,0.932 4.302,-1.042 8.019,-9.196 z"
       style="fill:none;stroke:#231f20;stroke-width:0.75;stroke-linecap:butt;stroke-linejoin:miter;stroke-miterlimit:4;stroke-dasharray:none;stroke-opacity:1"
       id="path806" />
    <path
       d="m 530.43,509.743 c -10.167,2.777 -18.826,4.788 -29.593,12.411 -10.767,7.624 -32.996,22.736 -37.06,27.08 -4.067,4.344 -9.501,12.025 -7.983,14.695 1.518,2.67 7.653,1.655 14.302,0.611 6.649,-1.043 10.518,-2.624 13.855,-4.522 3.337,-1.898 27.052,-18.122 33.087,-21.022 6.033,-2.903 21.346,-12.318 33.831,-16.766 12.482,-4.448 21.584,-7.858 34.681,-0.822 13.097,7.036 24.399,12.619 28.607,17.38 4.209,4.761 10.225,14.41 11.336,15.898 1.112,1.487 3.251,2.921 5.006,-2.846 1.754,-5.767 9.827,-31.641 19.698,-52.798 9.871,-21.157 15.619,-32.062 20.872,-40.482 2.969,-4.76 7.61,-12.213 12.609,-12.804"
       style="fill:none;stroke:#231f20;stroke-width:0.5;stroke-linecap:butt;stroke-linejoin:miter;stroke-miterlimit:4;stroke-dasharray:none;stroke-opacity:1"
       id="path808" />
    <path
       d="m 640.478,507.324 c -2.613,-4.184 -6.77,-11.183 -4.971,-19.358 1.799,-8.176 9.486,-18.729 13.481,-21.179 3.995,-2.448 14.126,-3.253 18.846,-3.117"
       style="fill:none;stroke:#231f20;stroke-width:0.5;stroke-linecap:butt;stroke-linejoin:miter;stroke-miterlimit:4;stroke-dasharray:none;stroke-opacity:1"
       id="path810" />
    <path
       d="m 648.971,534.006 c 3.94,-3.477 6.689,-6.719 7.742,-9.525 1.054,-2.807 4.735,-14.35 6.977,-20.658 2.24,-6.31 6.632,-20.641 13.178,-26.835"
       style="fill:none;stroke:#231f20;stroke-width:0.5;stroke-linecap:butt;stroke-linejoin:miter;stroke-miterlimit:4;stroke-dasharray:none;stroke-opacity:1"
       id="path812" />
    <path
       d="m 927.172,490.416 c 11.706,-0.229 37.291,-1.597 46.243,-2.978"
       style="fill:none;stroke:#231f20;stroke-width:0.5;stroke-linecap:butt;stroke-linejoin:miter;stroke-miterlimit:4;stroke-dasharray:none;stroke-opacity:1"
       id="path814" />
    <path
       d="m 813.22,503.222 c -1.554,2.275 -3.846,5.234 -10.01,5.692 -6.165,0.459 -15.353,2.239 -25.385,-2.124 -10.031,-4.364 -25.879,-11.381 -19.197,-30.716"
       style="fill:none;stroke:#231f20;stroke-width:0.5;stroke-linecap:butt;stroke-linejoin:miter;stroke-miterlimit:4;stroke-dasharray:none;stroke-opacity:1"
       id="path816" />
    <path
       d="m 775.053,458.159 c 1.164,1.654 2.326,1.721 4.615,0.998 1.011,-0.32 17.523,-2.526 27.729,-2.169 10.204,0.356 22.034,2.176 27.449,4.594 0,0 5.94,-4.702 17.686,-4.427 11.748,0.273 23.032,2.438 34.288,-2.126"
       style="fill:none;stroke:#231f20;stroke-width:0.5;stroke-linecap:butt;stroke-linejoin:miter;stroke-miterlimit:4;stroke-dasharray:none;stroke-opacity:1"
       id="path818" />
    <path
       d="m 824.835,482.966 c -0.704,-8.344 -2.477,-15.464 -3.993,-18.058 -2.554,-4.376 -16.279,-5.448 -17.704,-7.925"
       style="fill:none;stroke:#231f20;stroke-width:0.5;stroke-linecap:butt;stroke-linejoin:miter;stroke-miterlimit:4;stroke-dasharray:none;stroke-opacity:1"
       id="path820" />
    <path
       d="m 758.688,476.022 c 6.391,-5.682 14.091,-13.569 16.365,-17.863"
       style="fill:none;stroke:#231f20;stroke-width:0.5;stroke-linecap:butt;stroke-linejoin:miter;stroke-miterlimit:4;stroke-dasharray:none;stroke-opacity:1"
       id="path822" />
    <path
       d="m 435.87,506.612 c 1.815,-1.629 1.404,-9.051 1.091,-11.988 -0.345,-3.248 -4.728,-9.287 -6.358,-11.822"
       style="fill:none;stroke:#231f20;stroke-width:0.5;stroke-linecap:butt;stroke-linejoin:miter;stroke-miterlimit:4;stroke-dasharray:none;stroke-opacity:1"
       id="path824" />
    <path
       d="m 442.455,514.297 c 2.711,2.373 5.799,4.307 8.331,4.171 5.656,-0.302 21.19,-5.602 29.668,-20.667"
       style="fill:none;stroke:#231f20;stroke-width:0.5;stroke-linecap:butt;stroke-linejoin:miter;stroke-miterlimit:4;stroke-dasharray:none;stroke-opacity:1"
       id="path826" />
    <path
       d="m 435.907,506.573 c 0.429,1.195 3.2,4.795 6.55,7.724 1.5,1.231 6.539,-0.373 8.783,-3.417 2.243,-3.043 7.114,-5.195 12.398,-9.258 5.283,-4.064 9.556,-7.546 9.151,-12.001"
       style="fill:none;stroke:#231f20;stroke-width:0.5;stroke-linecap:butt;stroke-linejoin:miter;stroke-miterlimit:4;stroke-dasharray:none;stroke-opacity:1"
       id="path828" />
    <path
       d="m 554.789,495.89 c 5.207,0.926 5.116,2.477 5.209,4.191 0.091,1.714 -2.938,3.026 -5.657,3.342 -2.718,0.315 -5.52,-0.165 -5.378,-3.955 0.141,-3.79 3.458,-3.998 5.826,-3.578"
       style="fill:#ffffff;fill-opacity:1;fill-rule:nonzero;stroke:none;stroke-width:0.1"
       id="path830" />
    <path
       d="m 554.789,495.89 c 5.207,0.926 5.116,2.477 5.209,4.191 0.091,1.714 -2.938,3.026 -5.657,3.342 -2.718,0.315 -5.52,-0.165 -5.378,-3.955 0.141,-3.79 3.458,-3.998 5.826,-3.578 z"
       style="fill:none;stroke:#231f20;stroke-width:0.75;stroke-linecap:butt;stroke-linejoin:miter;stroke-miterlimit:4;stroke-dasharray:none;stroke-opacity:1"
       id="path832" />
    <path
       d="m 597.876,509.178 c -0.071,-1.326 -1.482,-2.521 -3.152,-2.669 -1.669,-0.148 -2.966,0.807 -2.895,2.132 0.07,1.326 1.483,2.523 3.152,2.669 1.668,0.148 2.966,-0.806 2.895,-2.132"
       style="fill:#ffffff;fill-opacity:1;fill-rule:nonzero;stroke:none;stroke-width:0.1"
       id="path834" />
    <path
       d="m 597.876,509.178 c -0.071,-1.326 -1.482,-2.521 -3.152,-2.669 -1.669,-0.148 -2.966,0.807 -2.895,2.132 0.07,1.326 1.483,2.523 3.152,2.669 1.668,0.148 2.966,-0.806 2.895,-2.132 z"
       style="fill:none;stroke:#231f20;stroke-width:0.75;stroke-linecap:butt;stroke-linejoin:miter;stroke-miterlimit:4;stroke-dasharray:none;stroke-opacity:1"
       id="path836" />
    <path
       d="m 823.911,495.478 c -0.213,-2.215 -0.329,-7.901 0.909,-12.464"
       style="fill:none;stroke:#231f20;stroke-width:0.5;stroke-linecap:butt;stroke-linejoin:miter;stroke-miterlimit:4;stroke-dasharray:none;stroke-opacity:1"
       id="path838" />
    <path
       d="m 849.708,601.506 c 2.928,0.45 4.654,0.267 5.654,-3.567 0.998,-3.836 1.512,-13.491 -3.801,-13.207 -2.781,0.148 -5.184,5.951 -5.108,7.322 0.072,1.371 -0.905,8.817 3.255,9.452 z"
       style="fill:none;stroke:#231f20;stroke-width:0.5;stroke-linecap:butt;stroke-linejoin:miter;stroke-miterlimit:4;stroke-dasharray:none;stroke-opacity:1"
       id="path840" />
    <path
       d="m 158.572,718.55 c 10.532,-8.815 48.597,-45.232 61.438,-65.343"
       style="fill:none;stroke:#231f20;stroke-width:0.5;stroke-linecap:butt;stroke-linejoin:miter;stroke-miterlimit:4;stroke-dasharray:none;stroke-opacity:1"
       id="path842" />
    <path
       d="m 158.414,723.629 c 3.977,-2.792 14.281,-12.625 15.635,-11.408 1.355,1.216 -10.742,14.5 -10.623,21.115"
       style="fill:none;stroke:#231f20;stroke-width:0.5;stroke-linecap:butt;stroke-linejoin:miter;stroke-miterlimit:4;stroke-dasharray:none;stroke-opacity:1"
       id="path844" />
    <path
       d="m 625.5,511.812 c 2.287,-1.64 4.832,-3.041 7.195,-4.098 6.549,-2.929 10.164,0.16 11.697,4.719"
       style="fill:none;stroke:#231f20;stroke-width:0.5;stroke-linecap:butt;stroke-linejoin:miter;stroke-miterlimit:4;stroke-dasharray:none;stroke-opacity:1"
       id="path846" />
    <path
       d="m 158.636,631.301 c 6.815,-7.585 17.441,-21.047 25.473,-29.985 8.032,-8.939 25.762,-24.585 33.835,-32.752 8.073,-8.168 20.243,-21.712 26.584,-28.497 6.342,-6.786 17.12,-17.42 20.675,-23.282 3.554,-5.864 17.061,-23.346 26.097,-27.956 9.037,-4.609 18.561,-9.759 21.55,-11.724 0,0 2.491,-2.462 0.906,-1.943"
       style="fill:none;stroke:#231f20;stroke-width:0.5;stroke-linecap:butt;stroke-linejoin:miter;stroke-miterlimit:4;stroke-dasharray:none;stroke-opacity:1"
       id="path848" />
    <path
       d="m 246.289,553.012 c -1.313,0.202 -1.314,3.446 -9.745,9.742 -8.431,6.296 -19.397,13.414 -26.87,21.55 -7.473,8.136 -13.305,14.809 -16.351,18.925 -3.047,4.116 -5.658,9.93 -5.658,9.93"
       style="fill:none;stroke:#231f20;stroke-width:0.5;stroke-linecap:butt;stroke-linejoin:miter;stroke-miterlimit:4;stroke-dasharray:none;stroke-opacity:1"
       id="path850" />
    <path
       d="m 281.569,620.345 c -5.773,-8.288 -14.936,-15.704 -16.392,-20.44 -1.457,-4.735 9.536,-11.34 21.334,-15.753 11.798,-4.413 21.489,-3.212 25.043,-4.261 3.555,-1.05 8.884,-4.258 7.834,-7.811 -1.049,-3.555 -6.835,-5.652 -8.549,-5.559 -1.713,0.091 -6.106,1.527 -8.975,2.541 -2.868,1.015 -3.132,-0.692 -4.251,-2.352 -1.121,-1.657 -2.538,-2.442 -4.577,-1.989 -2.038,0.452 -10.365,2.274 -14.938,3.549 -4.574,1.276 -6.034,2.901 -11.903,8.888 -5.869,5.986 -35.06,35.568 -35.06,35.568 0,0 24.065,-12.478 34.635,-15.957"
       style="fill:none;stroke:#231f20;stroke-width:0.5;stroke-linecap:butt;stroke-linejoin:miter;stroke-miterlimit:4;stroke-dasharray:none;stroke-opacity:1"
       id="path852" />
    <path
       d="m 385.613,592.091 c 2.05,-0.882 2.691,-7.537 -2.151,-14.498 -4.842,-6.962 -8.873,-5.199 -10.199,-4.268 -1.325,0.93 -3.047,4.117 0.286,8.581 3.334,4.464 8.87,11.559 12.064,10.185 z"
       style="fill:none;stroke:#231f20;stroke-width:0.5;stroke-linecap:butt;stroke-linejoin:miter;stroke-miterlimit:4;stroke-dasharray:none;stroke-opacity:1"
       id="path854" />
    <path
       d="m 495.764,811.58 c 9.247,4.148 33.858,11.085 50.612,10.963 16.755,-0.123 82.961,-1.341 92.219,-1.835"
       style="fill:none;stroke:#231f20;stroke-width:0.5;stroke-linecap:butt;stroke-linejoin:miter;stroke-miterlimit:4;stroke-dasharray:none;stroke-opacity:1"
       id="path856" />
    <path
       d="m 375.159,750.294 c 0,0 -4.657,-0.268 -18.933,-3.63 -14.276,-3.363 -39.34,-12.337 -50.903,-19.627 -11.565,-7.289 -14.885,-17.943 -15.605,-28.219 -0.721,-10.276 3.131,-31.456 2.386,-48.607 -0.744,-17.151 -10.535,-29.866 -10.535,-29.866 7.199,9.243 6.329,28.371 6.347,38.341 0.017,9.972 -2.864,17.174 -8.323,27.608 -5.459,10.434 -16.607,27.019 -15.157,44.475 1.349,16.269 29.134,33.685 53.258,41.163 24.123,7.479 49.395,7.503 79.045,9.013 29.649,1.509 36.475,6.99 69.906,21.362 33.432,14.373 50.102,20.702 62.113,23.498 12.011,2.796 45.944,0.811 68.562,-0.57 22.619,-1.381 40.168,-1.116 48.758,-1.232 8.59,-0.115 27.638,-2.336 27.229,-5.15 -0.408,-2.816 -13.917,-4.673 -22.498,-6.019 -8.58,-1.346 -16.625,-7.105 -23.438,-13.961 -6.813,-6.856 -14.004,-15.709 -21.493,-16.129 -7.068,-0.395 -18.939,2.647 -27.921,8.283 -8.982,5.638 -20.881,17.792 -25.021,20.765 -4.139,2.971 -18.617,5.464 -33.445,1.443 -14.828,-4.021 -32.293,-12.37 -41.32,-17.217 -9.027,-4.847 -34.764,-23.241 -36.134,-42.423 -1.369,-19.18 13.921,-22.576 20.255,-23.086 6.334,-0.511 13.2,-0.705 14.58,-0.608 1.38,0.098 3.04,-1.022 2.948,-2.735 -0.092,-1.715 -0.044,-4.184 -0.044,-4.184"
       style="fill:none;stroke:#231f20;stroke-width:0.5;stroke-linecap:butt;stroke-linejoin:miter;stroke-miterlimit:4;stroke-dasharray:none;stroke-opacity:1"
       id="path858" />
    <path
       d="m 409.347,753.108 c 0,0 -25.985,-0.503 -34.188,-2.814 0,0 14.435,-0.085 19.747,-3.634 5.312,-3.551 14.732,-13.853 16.857,-19.123"
       style="fill:none;stroke:#231f20;stroke-width:0.5;stroke-linecap:butt;stroke-linejoin:miter;stroke-miterlimit:4;stroke-dasharray:none;stroke-opacity:1"
       id="path860" />
    <path
       d="m 409.347,753.108 c 7.653,1.654 25.214,5.358 35.311,17.367 -2.337,-2.511 -7.492,-14.728 -8.523,-17.94 -1.031,-3.209 -5.521,-22.912 -9.595,-28.368 -4.075,-5.455 -4.925,-8.504 -7.441,-16.965 -2.515,-8.46 -6.081,-24.115 -2.359,-28.068 3.579,-3.8 8.433,-3.029 11.035,0.616 0,0 -2.305,-4.519 -5.653,-6.06 -3.349,-1.54 -2.549,-5.881 -2.549,-5.881 0,0 -4.072,-2.188 -6.462,-1.89 -2.391,0.3 -3.374,1.212 -4.164,5.724 -0.79,4.514 0.258,17.694 2.078,26.02 1.821,8.326 5.289,22.836 0.738,29.874 0,0 0.571,4.266 -2.637,8.563 -3.208,4.298 -10.348,12.244 -9.742,13.931 0.606,1.686 7.453,1.148 9.963,3.077"
       style="fill:#706d6e;fill-opacity:1;fill-rule:nonzero;stroke:none;stroke-width:0.1"
       id="path862" />
    <path
       d="m 409.347,753.108 c 7.653,1.654 25.214,5.358 35.311,17.367 -2.337,-2.511 -7.492,-14.728 -8.523,-17.94 -1.031,-3.209 -5.521,-22.912 -9.595,-28.368 -4.075,-5.455 -4.925,-8.504 -7.441,-16.965 -2.515,-8.46 -6.081,-24.115 -2.359,-28.068 3.579,-3.8 8.433,-3.029 11.035,0.616 0,0 -2.305,-4.519 -5.653,-6.06 -3.349,-1.54 -2.549,-5.881 -2.549,-5.881 0,0 -4.072,-2.188 -6.462,-1.89 -2.391,0.3 -3.374,1.212 -4.164,5.724 -0.79,4.514 0.258,17.694 2.078,26.02 1.821,8.326 5.289,22.836 0.738,29.874 0,0 0.571,4.266 -2.637,8.563 -3.208,4.298 -10.348,12.244 -9.742,13.931 0.606,1.686 7.453,1.148 9.963,3.077 z"
       style="fill:none;stroke:#231f20;stroke-width:0.75;stroke-linecap:butt;stroke-linejoin:miter;stroke-miterlimit:4;stroke-dasharray:none;stroke-opacity:1"
       id="path864" />
    <path
       d="m 444.658,770.475 c 10.097,12.01 21.591,21.195 34.182,28.429 12.594,7.236 27.532,13.313 41.293,16.703 13.763,3.391 25.312,3.977 37.48,0.06 12.168,-3.917 24.183,-7.481 31.04,-7.848 6.857,-0.367 16.268,-1.214 21.524,-5.793"
       style="fill:none;stroke:#231f20;stroke-width:0.5;stroke-linecap:butt;stroke-linejoin:miter;stroke-miterlimit:4;stroke-dasharray:none;stroke-opacity:1"
       id="path866" />
    <path
       d="m 410.56,667.051 c -0.501,-3.547 -2.886,-6.341 -4.691,-7.965 -1.806,-1.623 -2.703,-5.528 -2.408,-9.67 0.294,-4.142 1.156,-10.548 4.159,-12.256 3.003,-1.707 10.181,-5.702 13.851,1.838 3.669,7.54 5.229,17.428 4.729,24.16"
       style="fill:none;stroke:#231f20;stroke-width:0.5;stroke-linecap:butt;stroke-linejoin:miter;stroke-miterlimit:4;stroke-dasharray:none;stroke-opacity:1"
       id="path868" />
    <path
       d="m 559,741.806 c -7.391,-0.978 -16.061,-3.534 -21.419,-5.008 -9.945,-2.733 -28.816,-8.429 -44.292,-11.729 -15.476,-3.298 -20.393,-2.003 -25.382,-2.081 -4.989,-0.077 -13.756,-6.485 -19.465,-13.572 -5.708,-7.087 -16.529,-23.013 -20.667,-29.666"
       style="fill:none;stroke:#231f20;stroke-width:0.75;stroke-linecap:butt;stroke-linejoin:miter;stroke-miterlimit:4;stroke-dasharray:none;stroke-opacity:1"
       id="path870" />
    <path
       d="m 419.573,667.809 c 1.586,-2.492 5.048,-5.255 6.627,-4.651"
       style="fill:none;stroke:#231f20;stroke-width:0.5;stroke-linecap:butt;stroke-linejoin:miter;stroke-miterlimit:4;stroke-dasharray:none;stroke-opacity:1"
       id="path872" />
    <path
       d="m 540.461,607.367 c 1.671,2.317 3.192,4.461 9.304,2.592"
       style="fill:none;stroke:#231f20;stroke-width:0.5;stroke-linecap:butt;stroke-linejoin:miter;stroke-miterlimit:4;stroke-dasharray:none;stroke-opacity:1"
       id="path874" />
    <path
       d="m 592.533,755.224 c 1.266,0.242 2.495,0.506 3.666,0.791 10.45,2.535 35.046,12.533 42.727,15.113"
       style="fill:none;stroke:#231f20;stroke-width:0.75;stroke-linecap:butt;stroke-linejoin:miter;stroke-miterlimit:4;stroke-dasharray:none;stroke-opacity:1"
       id="path876" />
    <path
       d="m 479.96,765.15 c 5.343,3.496 18.08,10.207 24.569,12.611 6.489,2.404 18.755,6.735 25.042,5.366 6.288,-1.368 16.131,-13.412 18.364,-16.626 1.853,-2.662 8.355,-8.879 13.818,-11.596"
       style="fill:none;stroke:#231f20;stroke-width:0.5;stroke-linecap:butt;stroke-linejoin:miter;stroke-miterlimit:4;stroke-dasharray:none;stroke-opacity:1"
       id="path878" />
    <path
       d="m 158.823,794.006 c 2.633,-2.204 7.449,-15.414 8.332,-17.809 1.216,-3.303 3.076,-6.906 1.813,-8.267 -1.824,-1.966 -0.814,-5.197 -0.798,-8.119 0.015,-2.923 1.506,-11.984 5.478,-15.67"
       style="fill:none;stroke:#231f20;stroke-width:0.5;stroke-linecap:butt;stroke-linejoin:miter;stroke-miterlimit:4;stroke-dasharray:none;stroke-opacity:1"
       id="path880" />
    <path
       d="m 889.593,609.978 c -4.487,-0.738 -10.698,-1.626 -15.017,-2.613"
       style="fill:none;stroke:#231f20;stroke-width:0.5;stroke-linecap:butt;stroke-linejoin:miter;stroke-miterlimit:4;stroke-dasharray:none;stroke-opacity:1"
       id="path882" />
    <path
       d="m 721.144,655.643 c 0,0 -1.926,-3.103 -2.307,-6.158 -0.306,-2.47 -0.195,-5.326 1.737,-5.006 0.667,0.11 0.973,0.806 1.095,1.697"
       style="fill:none;stroke:#231f20;stroke-width:0.5;stroke-linecap:butt;stroke-linejoin:miter;stroke-miterlimit:4;stroke-dasharray:none;stroke-opacity:1"
       id="path884" />
    <path
       d="m 498.34,588.17 c 5.241,1.399 18.425,3.617 22.441,4.777 4.016,1.16 13.384,2.196 17.27,1.483 5.277,-0.97 13.157,-7.924 16.142,-9.973 2.984,-2.051 11.379,-9.034 16.231,-11.527 4.854,-2.493 9.61,-0.342 11.49,2.652 1.878,2.994 -1.91,6.119 -4.469,9.694 -2.559,3.575 -8.403,6.81 -11.903,8.889 -3.498,2.077 -10.46,4.433 -14.789,7.071 0,0 -3.78,2.517 -5.278,3.456 -1.496,0.939 -4.879,1.979 -9.779,0.351 -4.901,-1.628 -16.355,-6.861 -19.712,-8.573 -2.445,-1.247 -5.729,-2.425 -10.086,-2.577 -1.576,-1.564 -4.163,-3.716 -7.558,-5.723 z"
       style="fill:none;stroke:#231f20;stroke-width:0.5;stroke-linecap:butt;stroke-linejoin:miter;stroke-miterlimit:4;stroke-dasharray:none;stroke-opacity:1"
       id="path886" />
    <path
       d="m 980.272,566.667 c -6.995,7.421 -34.94,18.543 -39.981,20.704 -5.041,2.16 -9.443,3.427 -13.044,3.619 -3.599,0.192 -26.165,-0.663 -37.705,-0.833 2.34,0.125 4.374,0.535 5.752,1.252 5.835,3.041 2.585,9.136 -0.355,12.654 -0.159,0.191 -0.322,0.371 -0.461,0.507 -0.579,2 -3.143,4.455 -4.887,5.408 0.562,0.092 1.095,0.183 1.594,0.27 16.275,2.851 36.333,12.796 52.036,30.811 15.702,18.015 9.384,34.463 5.916,40.132 -3.467,5.67 -8.345,4.217 -8.345,4.217 3.96,3.559 7.801,11.238 10.906,24.439 3.105,13.203 -4.386,26.973 -9.942,32.069 -5.555,5.095 -15.093,-0.222 -15.093,-0.222 -1.184,3.49 2.831,8.076 4.436,12.446 1.606,4.369 5.466,18.903 -1.114,24.055 -6.58,5.15 -12.879,2.743 -12.879,2.743 0,0 2.593,3.634 3.136,7.374 0.543,3.741 -8.107,8.661 -12.026,12.298 -3.919,3.638 -8.021,3.857 -13.167,3.788 -5.145,-0.067 -10.295,-6.647 -10.295,-6.647 3.662,10.773 -2.938,15.582 -19.199,19.193 -16.26,3.613 -19.597,-7.522 -19.597,-7.522 7.993,27.682 -39.37,13.76 -50.905,9.578 -11.535,-4.182 -11.383,-14.132 -11.383,-14.132 -18.523,6.132 -29.948,-15.196 -33.969,-26.293 -4.022,-11.097 -7.442,-36.622 -7.442,-36.622 0,0 5.637,28.491 -20.193,32.615 0,0 21.541,-3.234 23.68,10.241 1.402,8.832 2.553,16.711 2.791,24.484 0.205,6.702 -0.17,12.749 -1.019,18.172 -3.85,23.035 -47.489,31.845 -66.77,36.647 -19.282,4.802 -45.381,10.371 -73.231,13.636 -27.849,3.265 -73.035,3.841 -98.353,3.458 -25.319,-0.385 -38.173,-0.769 -55.702,-2.882 -17.638,-2.131 -61.424,-9.783 -67.462,-10.936 -6.038,-1.152 -29.5,-5 -42.5,-7 -9.364,-1.441 -40,-4 -73.243,-17.26 -41.941,-16.728 -70.586,-37.384 -82.761,-48.341 -15.837,-14.251 -18.286,-28.776 -15.822,-41.797 6.82,-36.04 24.552,-54.811 37.271,-68.163 12.94,-13.585 30.345,-30.503 30.046,-31.261 -0.298,-0.758 -9.739,5.936 -16.595,12.749 -6.856,6.812 -29.519,31.49 -37.794,40.7 -8.275,9.21 -22.512,27.506 -26.066,33.369"
       style="fill:none;stroke:#231f20;stroke-width:0.75;stroke-linecap:butt;stroke-linejoin:miter;stroke-miterlimit:4;stroke-dasharray:none;stroke-opacity:1"
       id="path888" />
    <path
       d="m 155.261,626.067 c 10.517,-15.519 32.275,-37.828 37.684,-42.759 5.41,-4.931 11.132,-8.847 16.096,-12.463 4.963,-3.618 8.573,-8.453 17.174,-16.39 8.601,-7.939 22.231,-23.107 25.409,-26.373 3.178,-3.263 6.173,-6.451 10.626,-13.46 6.898,-10.857 19.941,-25.013 37.377,-32.428 3.699,-1.571 9.593,-5.41 12.545,-6.516 3.706,-1.386 16.806,-4.357 34.263,-5.441 10.33,-0.642 26.695,0.146 31.3,0.219 8.097,0.128 7.202,12.509 7.202,12.509 22.757,-8.437 37.286,6.086 40.764,10.028 3.476,3.939 4.352,-5.391 4.808,-9.714 0.457,-4.323 9.399,-4.284 13.911,-3.493 4.512,0.789 19.998,4.258 25.153,7.422 5.154,3.163 10.881,10.593 10.881,10.593 4.346,-2.295 8.343,-1.477 18.063,0.238 9.719,1.715 15.837,3.623 19.657,7.545 3.82,3.92 5.075,4.885 9.702,4.637 4.629,-0.247 11.762,-5.097 25.259,-6.679 13.496,-1.582 33.91,4.034 45.076,10.313 11.166,6.28 12.924,10.226 15.917,13.159 2.995,2.936 6.99,6.933 7.801,6.03 1.863,-2.072 -3.628,-5.993 -3.677,-10.891 -0.038,-3.789 3.198,-7.437 7.213,-10.392 -5.194,-4.93 -12.862,-13.288 -7.902,-21.805 4.96,-8.517 22.105,-35.596 33.275,-38.395 18.322,-4.592 44.534,-7.691 67.522,-8.768 9.471,-0.443 44.127,-4.249 58.312,10.292 0,0 9.463,-3.084 24.603,-2.862 15.141,0.224 48.255,2.235 58.577,2.37 10.322,0.138 25.145,-2.374 34.708,-3.574 9.563,-1.198 27.513,3.342 38.075,11.202 10.563,7.86 11.621,11.586 20.93,8.852"
       style="fill:none;stroke:#231f20;stroke-width:0.75;stroke-linecap:butt;stroke-linejoin:miter;stroke-miterlimit:4;stroke-dasharray:none;stroke-opacity:1"
       id="path890" />
    <path
       d="m 685.046,781.003 c 0,0 -13.074,5.498 -25.08,-1.059 -12.006,-6.556 -21.04,-8.816 -21.04,-8.816 0,0 22.903,-1.225 22.062,-16.947 0,0 3.812,20.02 24.058,26.822 z"
       style="fill:none;stroke:#231f20;stroke-width:0.75;stroke-linecap:butt;stroke-linejoin:miter;stroke-miterlimit:4;stroke-dasharray:none;stroke-opacity:1"
       id="path892" />
    <path
       d="m 572.269,739.205 c -1.552,3.12 -6.941,3.439 -13.253,2.603 9.602,4.957 5.231,11.444 2.765,13.085 1.103,-0.55 2.188,-0.963 3.18,-1.164 5.134,-1.037 17.541,-0.43 27.567,1.493 -8.038,-2.323 -16.059,-8.125 -19.176,-11.739 -1.238,-1.438 -1.656,-2.888 -1.083,-4.278 z"
       style="fill:none;stroke:#231f20;stroke-width:0.75;stroke-linecap:butt;stroke-linejoin:miter;stroke-miterlimit:4;stroke-dasharray:none;stroke-opacity:1"
       id="path894" />
    <path
       d="m 270.257,843.128 c -9.928,-19.007 -11.777,-51.345 1.173,-98.29"
       style="fill:none;stroke:#231f20;stroke-width:0.5;stroke-linecap:round;stroke-linejoin:round;stroke-miterlimit:4;stroke-dasharray:2.8, 1.8;stroke-dashoffset:0;stroke-opacity:1"
       id="path896" />
    <path
       d="m 429.057,874.731 c -0.403,-7.52 -6.743,-90.311 -6.743,-90.311"
       style="fill:none;stroke:#231f20;stroke-width:0.5;stroke-linecap:round;stroke-linejoin:round;stroke-miterlimit:4;stroke-dasharray:2.8, 1.8;stroke-dashoffset:0;stroke-opacity:1"
       id="path898" />
    <path
       d="m 481.15,880.535 -9.705,-76.171"
       style="fill:none;stroke:#231f20;stroke-width:0.5;stroke-linecap:round;stroke-linejoin:round;stroke-miterlimit:4;stroke-dasharray:2.8, 1.8;stroke-dashoffset:0;stroke-opacity:1"
       id="path900" />
    <path
       d="m 515.043,881.273 c 0,0 -5.617,-51.121 -6.525,-61.698"
       style="fill:none;stroke:#231f20;stroke-width:0.5;stroke-linecap:round;stroke-linejoin:round;stroke-miterlimit:4;stroke-dasharray:2.8, 1.8;stroke-dashoffset:0;stroke-opacity:1"
       id="path902" />
    <path
       d="m 547.788,881.074 c 0,0 -5.958,-47.511 -6.305,-54.006"
       style="fill:none;stroke:#231f20;stroke-width:0.5;stroke-linecap:round;stroke-linejoin:round;stroke-miterlimit:4;stroke-dasharray:2.8, 1.8;stroke-dashoffset:0;stroke-opacity:1"
       id="path904" />
    <path
       d="m 686.481,843.219 c -23.17,2.609 -40.149,11.672 -47.166,20.006 -3.647,4.33 -5.867,7.973 -7.267,11.031"
       style="fill:none;stroke:#231f20;stroke-width:0.5;stroke-linecap:round;stroke-linejoin:round;stroke-miterlimit:4;stroke-dasharray:2.8, 1.8;stroke-dashoffset:0;stroke-opacity:1"
       id="path906" />
    <path
       d="m 746.421,789.035 c 1.845,16.537 -29.956,21.825 -46.567,38.138 -12.001,11.786 -19.593,23.818 -22.348,37.737"
       style="fill:none;stroke:#231f20;stroke-width:0.5;stroke-linecap:round;stroke-linejoin:round;stroke-miterlimit:4;stroke-dasharray:2.8, 1.8;stroke-dashoffset:0;stroke-opacity:1"
       id="path908" />
    <path
       d="m 662.855,814.753 c 7.337,-3.818 24.689,-12.631 32.658,-36.709"
       style="fill:none;stroke:#231f20;stroke-width:0.5;stroke-linecap:round;stroke-linejoin:round;stroke-miterlimit:4;stroke-dasharray:2.8, 1.8;stroke-dashoffset:0;stroke-opacity:1"
       id="path910" />
    <path
       d="m 687.281,656.111 c 9.498,-1.466 19.001,2.755 22.106,15.958 3.105,13.201 8.523,37.593 5.103,56.971 -3.421,19.379 -10.413,29.693 -19.317,29.826 -8.904,0.134 -20.589,-13.295 -18.41,-30.209 2.18,-16.912 1.59,-34.364 -2.773,-45.442 -4.362,-11.078 -3.708,-24.481 13.291,-27.104 z"
       style="fill:none;stroke:#231f20;stroke-width:0.5;stroke-linecap:round;stroke-linejoin:round;stroke-miterlimit:4;stroke-dasharray:2.8, 1.8;stroke-dashoffset:0;stroke-opacity:1"
       id="path912" />
    <path
       d="m 880.409,590.898 c -5.036,1.045 -9.386,3.102 -10.094,5.972 -1.484,6.01 3.847,9.16 10.578,9.75 6.22,0.545 10.356,1.281 13.559,-2.016"
       style="fill:none;stroke:#231f20;stroke-width:0.5;stroke-linecap:round;stroke-linejoin:round;stroke-miterlimit:4;stroke-dasharray:2.8, 1.8;stroke-dashoffset:0;stroke-opacity:1"
       id="path914" />
    <path
       d="m 701.534,630.518 c -1.079,3.926 2.632,8.24 5.787,9.361 3.154,1.121 9.9,2.025 14.337,1.735"
       style="fill:none;stroke:#231f20;stroke-width:0.5;stroke-linecap:round;stroke-linejoin:round;stroke-miterlimit:4;stroke-dasharray:2.8, 1.8;stroke-dashoffset:0;stroke-opacity:1"
       id="path916" />
    <path
       d="m 704.802,563.814 c -2.101,4.108 -8.588,15.416 -8.499,17.086 0.089,1.672 0.071,3.735 2.062,4.789 1.99,1.055 20.801,8.043 23.677,8.792 2.876,0.749 7.79,1.001 9.56,-2.059 1.772,-3.059 4.482,-7.82 4.482,-7.82"
       style="fill:none;stroke:#231f20;stroke-width:0.5;stroke-linecap:round;stroke-linejoin:round;stroke-miterlimit:4;stroke-dasharray:2.8, 1.8;stroke-dashoffset:0;stroke-opacity:1"
       id="path918" />
    <path
       d="m 731.174,593.03 c 4.8,-0.841 17.373,5.628 23.708,14.474"
       style="fill:none;stroke:#231f20;stroke-width:0.5;stroke-linecap:round;stroke-linejoin:round;stroke-miterlimit:4;stroke-dasharray:2.8, 1.8;stroke-dashoffset:0;stroke-opacity:1"
       id="path920" />
    <path
       d="m 702.678,587.473 c -1.347,-0.53 -5.823,1.34 -0.591,7.559 0.36,0.427 3.91,4.928 7.004,8.206"
       style="fill:none;stroke:#231f20;stroke-width:0.5;stroke-linecap:round;stroke-linejoin:round;stroke-miterlimit:4;stroke-dasharray:2.8, 1.8;stroke-dashoffset:0;stroke-opacity:1"
       id="path922" />
    <path
       d="m 816.306,628.508 c 0,0 1.47,0.954 -1.993,3.718 -3.462,2.764 -12.331,5.688 -18.687,2.546 -6.322,-3.792 -4.626,-18.646 -9.111,-25.368 -3.74,-5.608 -9.548,-10.122 -14.046,-14.653 -4.496,-4.531 -8.983,-13.703 -11.568,-13.823 -1.565,-0.072 -4.186,13.375 -4.419,16.225 -0.235,2.848 -2.054,12.229 -2.473,16.513"
       style="fill:none;stroke:#231f20;stroke-width:0.5;stroke-linecap:round;stroke-linejoin:round;stroke-miterlimit:4;stroke-dasharray:2.8, 1.8;stroke-dashoffset:0;stroke-opacity:1"
       id="path924" />
    <path
       d="m 784.742,606.999 c 1.485,-3.561 9.408,-14.309 13.02,-14.245 3.614,0.065 6.925,8.913 6.543,13.833 -0.383,4.919 0.171,10.435 4.958,15.594 0.326,0.35 0.64,0.683 0.942,0.998"
       style="fill:none;stroke:#231f20;stroke-width:0.5;stroke-linecap:round;stroke-linejoin:round;stroke-miterlimit:4;stroke-dasharray:2.8, 1.8;stroke-dashoffset:0;stroke-opacity:1"
       id="path926" />
    <path
       d="m 781.607,641.336 c -1.16,1.338 2.432,8.238 7.104,13.661 4.675,5.423 13.393,16.561 21.926,17.008 8.534,0.447 13.526,-2.658 14.116,-8.491 0,0 11.543,-10.803 16.845,-22.56 5.303,-11.759 -0.264,-14.54 -1.691,-14.721"
       style="fill:none;stroke:#231f20;stroke-width:0.5;stroke-linecap:round;stroke-linejoin:round;stroke-miterlimit:4;stroke-dasharray:2.8, 1.8;stroke-dashoffset:0;stroke-opacity:1"
       id="path928" />
    <path
       d="m 811.448,649.933 c 2.44,0.882 10.21,8.718 13.305,13.581"
       style="fill:none;stroke:#231f20;stroke-width:0.5;stroke-linecap:round;stroke-linejoin:round;stroke-miterlimit:4;stroke-dasharray:2.8, 1.8;stroke-dashoffset:0;stroke-opacity:1"
       id="path930" />
    <path
       d="m 808.978,619.231 c 1.046,1.623 5.442,2.932 10.25,-1.193 4.808,-4.125 7.525,-8.783 5.493,-10.608 -2.031,-1.826 -5.294,-1.695 -8.282,1.86 -3.514,4.186 -9.711,6.451 -7.461,9.941 z"
       style="fill:none;stroke:#231f20;stroke-width:0.5;stroke-linecap:round;stroke-linejoin:round;stroke-miterlimit:4;stroke-dasharray:2.8, 1.8;stroke-dashoffset:0;stroke-opacity:1"
       id="path932" />
    <path
       d="m 802.14,597.003 c -0.008,-6.932 1.67,-27.123 2.092,-31.272"
       style="fill:none;stroke:#231f20;stroke-width:0.5;stroke-linecap:round;stroke-linejoin:round;stroke-miterlimit:4;stroke-dasharray:2.8, 1.8;stroke-dashoffset:0;stroke-opacity:1"
       id="path934" />
    <path
       d="m 576.884,735.557 c -0.568,2.266 2.625,10.519 8.742,12.427 6.12,1.907 17.958,5.503 23.79,7.667 11.032,4.093 18.269,7.276 29.962,7.338 11.692,0.062 15.942,-0.852 17.615,-8.161 1.053,-4.61 1.603,-8.431 1.345,-10.647"
       style="fill:none;stroke:#231f20;stroke-width:0.5;stroke-linecap:round;stroke-linejoin:round;stroke-miterlimit:4;stroke-dasharray:2.8, 1.8;stroke-dashoffset:0;stroke-opacity:1"
       id="path936" />
    <path
       d="m 655.272,675.661 c -0.016,-0.605 -0.022,-1.123 -0.016,-1.539 0.069,-5.162 4.034,-13.561 21.915,-14.033"
       style="fill:none;stroke:#231f20;stroke-width:0.5;stroke-linecap:round;stroke-linejoin:round;stroke-miterlimit:4;stroke-dasharray:2.8, 1.8;stroke-dashoffset:0;stroke-opacity:1"
       id="path938" />
    <path
       d="m 655.273,675.676 c -6.037,-4.842 -25.173,-15.51 -29.605,-18.023 -4.433,-2.514 -7.925,-3.531 -6.547,-6.698 1.377,-3.169 14.4,-18.698 39.176,-18.302"
       style="fill:none;stroke:#231f20;stroke-width:0.5;stroke-linecap:round;stroke-linejoin:round;stroke-miterlimit:4;stroke-dasharray:2.8, 1.8;stroke-dashoffset:0;stroke-opacity:1"
       id="path940" />
    <path
       d="m 666.186,661.763 c -1.196,-1.743 -2.872,-20.221 -3.082,-24.162"
       style="fill:none;stroke:#231f20;stroke-width:0.5;stroke-linecap:round;stroke-linejoin:round;stroke-miterlimit:4;stroke-dasharray:2.8, 1.8;stroke-dashoffset:0;stroke-opacity:1"
       id="path942" />
    <path
       d="m 698.348,640.874 c 0,0 2.216,6.069 -1.364,6.605 -3.582,0.536 -9.582,0.857 -12.732,-0.178 -3.15,-1.036 -7.012,-2.549 -9.602,-2.754 -2.59,-0.205 -4.845,-0.601 -7.934,-3.702 -3.089,-3.099 -11.437,-8.155 -8.952,-13.101 0.82,-1.63 6.684,1.406 10.352,3.915 3.105,2.128 10.275,8.906 16.168,9.794 5.892,0.889 11.882,0.396 14.064,-0.579 z"
       style="fill:none;stroke:#231f20;stroke-width:0.5;stroke-linecap:round;stroke-linejoin:round;stroke-miterlimit:4;stroke-dasharray:2.8, 1.8;stroke-dashoffset:0;stroke-opacity:1"
       id="path944" />
    <path
       d="m 698.786,642.448 c 1.541,0.04 2.8,-2.522 3.298,-7.49"
       style="fill:none;stroke:#231f20;stroke-width:0.5;stroke-linecap:round;stroke-linejoin:round;stroke-miterlimit:4;stroke-dasharray:2.8, 1.8;stroke-dashoffset:0;stroke-opacity:1"
       id="path946" />
    <path
       d="m 661.58,628.027 c -0.065,-2.461 0.875,-5.777 1.721,-7.628"
       style="fill:none;stroke:#231f20;stroke-width:0.5;stroke-linecap:round;stroke-linejoin:round;stroke-miterlimit:4;stroke-dasharray:2.8, 1.8;stroke-dashoffset:0;stroke-opacity:1"
       id="path948" />
    <path
       d="m 576.446,569.772 c 3.664,1.312 31.598,9.522 43.11,-7.241"
       style="fill:none;stroke:#231f20;stroke-width:0.5;stroke-linecap:round;stroke-linejoin:round;stroke-miterlimit:4;stroke-dasharray:2.8, 1.8;stroke-dashoffset:0;stroke-opacity:1"
       id="path950" />
    <path
       d="m 602.181,572.483 c 3.676,3.492 20.321,17.085 23.576,19.787 3.577,2.968 12.995,8.188 13.422,7.8 0.245,-0.222 -1.225,-4.984 -5.476,-10.795 -6.144,-8.399 -12.841,-15.727 -16.542,-23.828"
       style="fill:none;stroke:#231f20;stroke-width:0.5;stroke-linecap:round;stroke-linejoin:round;stroke-miterlimit:4;stroke-dasharray:2.8, 1.8;stroke-dashoffset:0;stroke-opacity:1"
       id="path952" />
    <path
       d="m 619.107,556.87 c 0.082,1.542 -0.459,4.64 0.449,5.661 0.909,1.02 10.647,12.706 19.451,23.065 8.806,10.361 16.566,20.432 19.43,25.778 2.863,5.349 5.306,12.438 10.503,13.193 5.198,0.753 18.96,4.144 24.348,5.231 5.387,1.087 7.975,1.293 9.598,-0.512 1.623,-1.806 7.289,-12.949 5.045,-21.415 -2.245,-8.468 -10.256,-18.191 -15.79,-22.021 -5.534,-3.83 -26.158,-13.386 -35.725,-18.72 -9.57,-5.334 -22.924,-12.666 -26.732,-13.149"
       style="fill:none;stroke:#231f20;stroke-width:0.5;stroke-linecap:round;stroke-linejoin:round;stroke-miterlimit:4;stroke-dasharray:2.8, 1.8;stroke-dashoffset:0;stroke-opacity:1"
       id="path954" />
    <path
       d="m 597.033,617.235 c 4.323,0.031 10.64,-6.756 8.505,-14.551 -2.135,-7.794 -9.418,-21.845 -16.763,-20.936 -7.344,0.908 -5.568,15.631 -4.857,18.482 1.313,5.259 7.439,16.964 13.115,17.005 z"
       style="fill:none;stroke:#231f20;stroke-width:0.5;stroke-linecap:round;stroke-linejoin:round;stroke-miterlimit:4;stroke-dasharray:2.8, 1.8;stroke-dashoffset:0;stroke-opacity:1"
       id="path956" />
    <path
       d="m 562.427,558.4 c 4.951,1.474 15.585,6.1 15.302,9.67 -0.165,2.071 -4.626,3.514 -12.533,0.326 -7.906,-3.188 -17.939,-13.999 -18.493,-17.922 -0.552,-3.925 1.828,-3.558 5.324,-0.112 4.223,4.16 6.732,6.946 10.4,8.038 z"
       style="fill:none;stroke:#231f20;stroke-width:0.5;stroke-linecap:round;stroke-linejoin:round;stroke-miterlimit:4;stroke-dasharray:2.8, 1.8;stroke-dashoffset:0;stroke-opacity:1"
       id="path958" />
    <path
       d="m 546.717,548.623 c -1.859,-3.723 -4.679,-11.481 -3.255,-23.418"
       style="fill:none;stroke:#231f20;stroke-width:0.5;stroke-linecap:round;stroke-linejoin:round;stroke-miterlimit:4;stroke-dasharray:2.8, 1.8;stroke-dashoffset:0;stroke-opacity:1"
       id="path960" />
    <path
       d="m 605.868,554.188 c -6.098,-2.813 -14.858,-7.802 -12.876,-12.548 1.981,-4.748 8.418,-0.107 10.9,1.308 2.482,1.414 11.247,8.005 12.693,9.12 1.927,1.487 4.766,2.324 7.824,1.645 0,0 -0.251,1.731 -2.785,2.555 -2.536,0.823 -6.521,1.263 -9.257,0.495 -2.825,-0.795 -4.084,-1.461 -6.499,-2.575 z"
       style="fill:none;stroke:#231f20;stroke-width:0.5;stroke-linecap:round;stroke-linejoin:round;stroke-miterlimit:4;stroke-dasharray:2.8, 1.8;stroke-dashoffset:0;stroke-opacity:1"
       id="path962" />
    <path
       d="m 674.168,551.723 c 0.294,0.154 0.586,0.317 0.874,0.486 5.327,3.154 6.837,8.918 5.082,11.418 -1.759,2.501 -8.86,1.504 -12.95,-1.026 -4.088,-2.532 -6.907,-7.024 -5.692,-10.011 0.145,-0.358 0.335,-0.677 0.562,-0.964"
       style="fill:none;stroke:#231f20;stroke-width:0.5;stroke-linecap:round;stroke-linejoin:round;stroke-miterlimit:4;stroke-dasharray:2.8, 1.8;stroke-dashoffset:0;stroke-opacity:1"
       id="path964" />
    <path
       d="m 731.483,578.932 c 4.629,-0.248 7.749,-2.992 12.577,-12.362 4.828,-9.368 7.658,-23.962 3.422,-29.236 -4.235,-5.274 -13.279,-10.465 -20.517,-10.765 -7.236,-0.301 -16.743,5.194 -16.765,20.839 -0.024,15.643 11.853,32.028 21.283,31.524 z"
       style="fill:none;stroke:#231f20;stroke-width:0.5;stroke-linecap:round;stroke-linejoin:round;stroke-miterlimit:4;stroke-dasharray:2.8, 1.8;stroke-dashoffset:0;stroke-opacity:1"
       id="path966" />
    <path
       d="m 739.374,530.663 c -1.166,-2.803 2.861,-9.465 8.96,-9.74"
       style="fill:none;stroke:#231f20;stroke-width:0.5;stroke-linecap:round;stroke-linejoin:round;stroke-miterlimit:4;stroke-dasharray:2.8, 1.8;stroke-dashoffset:0;stroke-opacity:1"
       id="path968" />
    <path
       d="m 837.862,571.871 c 0,0 3.229,-0.688 7.037,-0.205 3.809,0.486 45.264,7.38 61.063,-2.575"
       style="fill:none;stroke:#231f20;stroke-width:0.5;stroke-linecap:round;stroke-linejoin:round;stroke-miterlimit:4;stroke-dasharray:2.8, 1.8;stroke-dashoffset:0;stroke-opacity:1"
       id="path970" />
    <path
       d="m 797.885,563.693 c 14.503,4.383 28.963,11.174 39.977,8.178 4.69,-2.314 10.216,-8.283 10.25,-10.863 0.034,-2.581 -3.06,-12.214 -10.17,-13.381 -7.11,-1.168 -9.638,-0.171 -20.984,3.013 -11.348,3.186 -17.807,4.563 -19.638,5.692 -1.83,1.128 -5.649,3.909 0.565,7.361 z"
       style="fill:none;stroke:#231f20;stroke-width:0.5;stroke-linecap:round;stroke-linejoin:round;stroke-miterlimit:4;stroke-dasharray:2.8, 1.8;stroke-dashoffset:0;stroke-opacity:1"
       id="path972" />
    <path
       d="m 757.308,567.569 c 5.77,-2.186 26.075,-8.258 40.577,-3.876"
       style="fill:none;stroke:#231f20;stroke-width:0.5;stroke-linecap:round;stroke-linejoin:round;stroke-miterlimit:4;stroke-dasharray:2.8, 1.8;stroke-dashoffset:0;stroke-opacity:1"
       id="path974" />
    <path
       d="m 835.936,547.345 c 7.285,0.947 9.484,1.087 16.778,0.052 7.294,-1.034 10.544,1.886 20.08,1.764 9.534,-0.123 20.097,-0.3 33.616,-3.086"
       style="fill:none;stroke:#231f20;stroke-width:0.5;stroke-linecap:round;stroke-linejoin:round;stroke-miterlimit:4;stroke-dasharray:2.8, 1.8;stroke-dashoffset:0;stroke-opacity:1"
       id="path976" />
    <path
       d="m 793.337,562.673 -9.421,-50.175"
       style="fill:none;stroke:#231f20;stroke-width:0.5;stroke-linecap:round;stroke-linejoin:round;stroke-miterlimit:4;stroke-dasharray:2.8, 1.8;stroke-dashoffset:0;stroke-opacity:1"
       id="path978" />
    <path
       d="m 876.92,510.724 c 19.445,0.012 40.03,-0.441 54.849,-4.609"
       style="fill:none;stroke:#231f20;stroke-width:0.5;stroke-linecap:round;stroke-linejoin:round;stroke-miterlimit:4;stroke-dasharray:2.8, 1.8;stroke-dashoffset:0;stroke-opacity:1"
       id="path980" />
    <path
       d="m 763.376,512.593 c 5.124,-0.617 28.704,0.354 34.342,-0.291 5.638,-0.645 13.992,-1.78 27.2,-2.486 6.104,-0.325 20.909,0.493 39.069,0.794"
       style="fill:none;stroke:#231f20;stroke-width:0.5;stroke-linecap:round;stroke-linejoin:round;stroke-miterlimit:4;stroke-dasharray:2.8, 1.8;stroke-dashoffset:0;stroke-opacity:1"
       id="path982" />
    <path
       d="m 863.964,509.406 c 0.881,-5.205 14.268,-3.213 12.907,2.662 -1.363,5.875 -13.827,2.761 -12.907,-2.662 z"
       style="fill:none;stroke:#231f20;stroke-width:0.5;stroke-linecap:round;stroke-linejoin:round;stroke-miterlimit:4;stroke-dasharray:2.8, 1.8;stroke-dashoffset:0;stroke-opacity:1"
       id="path984" />
    <path
       d="m 914.474,583.596 c -3.24,-2.752 -8.588,-9.515 -8.73,-18.618 -0.143,-9.104 0.998,-31.625 1.142,-36.506 0.186,-6.199 9.777,-22.141 32.446,-23.395 22.801,-1.262 30.016,-1.26 40.002,-4.202"
       style="fill:none;stroke:#231f20;stroke-width:0.5;stroke-linecap:round;stroke-linejoin:round;stroke-miterlimit:4;stroke-dasharray:2.8, 1.8;stroke-dashoffset:0;stroke-opacity:1"
       id="path986" />
    <path
       d="m 905.784,566.006 c 4.718,4.39 14.766,12.277 28.3,11.382 13.534,-0.896 38.244,-14.594 45.974,-27.556"
       style="fill:none;stroke:#231f20;stroke-width:0.5;stroke-linecap:round;stroke-linejoin:round;stroke-miterlimit:4;stroke-dasharray:2.8, 1.8;stroke-dashoffset:0;stroke-opacity:1"
       id="path988" />
    <path
       d="m 695.869,488.602 c -4.346,15.188 -9.507,24.494 -12.159,26.356 -1.91,1.341 -10.72,8.482 -15.518,12.003 -4.796,3.522 -10.988,4.361 -12.9,3.097 -0.835,-0.551 -0.684,-1.937 -0.684,-1.937"
       style="fill:none;stroke:#231f20;stroke-width:0.5;stroke-linecap:round;stroke-linejoin:round;stroke-miterlimit:4;stroke-dasharray:2.8, 1.8;stroke-dashoffset:0;stroke-opacity:1"
       id="path990" />
    <path
       d="m 897.419,484.022 c 12.293,4.926 31.272,10.964 36.483,2.306 5.21,-8.66 -2.547,-18.689 -13.481,-25.452 -10.933,-6.766 -15.971,-9.334 -26.195,-7.628 -10.223,1.708 -12.934,4.044 -14.608,8.906 -1.674,4.859 1.331,15.27 17.801,21.868 z"
       style="fill:none;stroke:#231f20;stroke-width:0.5;stroke-linecap:round;stroke-linejoin:round;stroke-miterlimit:4;stroke-dasharray:2.8, 1.8;stroke-dashoffset:0;stroke-opacity:1"
       id="path992" />
    <path
       d="m 814.055,501.055 c -1.745,1.125 -5.354,2.021 -9.645,1.348 -4.291,-0.673 -13.485,-3.792 -14.933,-4.36 -1.448,-0.567 -3.582,-1.871 -7.438,-1.665 -3.857,0.206 -10.976,-0.315 -13.409,-4.827 -2.433,-4.511 -2.993,-10.154 2.315,-17.013 5.305,-6.859 9.221,-10.808 16.44,-10.807 7.221,0.001 9.599,3.484 14.39,3.872 4.791,0.389 11.335,-0.219 13.872,-0.999 2.536,-0.78 6.205,0.312 6.107,5.733 -0.096,5.42 -1.03,21.715 -1.508,24.835"
       style="fill:none;stroke:#231f20;stroke-width:0.5;stroke-linecap:round;stroke-linejoin:round;stroke-miterlimit:4;stroke-dasharray:2.8, 1.8;stroke-dashoffset:0;stroke-opacity:1"
       id="path994" />
    <path
       d="m 775.053,458.159 c 0,0 -5.67,-6.401 -21.407,-8.139 -15.738,-1.737 -42.017,1.368 -47.819,2.727 -9.507,2.227 -10.638,0.395 -15.058,1.321 -4.42,0.923 -5.419,1.492 -8.205,4.048 -2.787,2.557 -8.018,7.65 -7.912,12.802 0.104,5.151 4.409,8.532 7.29,10.956 2.88,2.424 9.28,6.38 14.46,6.792 5.179,0.41 11.815,0.615 14.932,-0.456 8.523,-2.925 13.259,-2.77 21.895,-2.03 8.636,0.742 12.686,-0.679 18.33,-4.417 1.732,-1.149 4.302,-3.228 7.129,-5.741"
       style="fill:none;stroke:#231f20;stroke-width:0.5;stroke-linecap:round;stroke-linejoin:round;stroke-miterlimit:4;stroke-dasharray:2.8, 1.8;stroke-dashoffset:0;stroke-opacity:1"
       id="path996" />
    <path
       d="m 702.242,488.974 c -2.44,-1.007 -3.216,-2.684 -1.894,-6.881 1.322,-4.197 1.339,-7.119 3.133,-8.935 1.793,-1.815 5.298,-6.988 6.38,-9.281 1.081,-2.292 4.931,-4.217 7.613,-2.297 2.681,1.92 12.638,9.083 7.796,24.146"
       style="fill:none;stroke:#231f20;stroke-width:0.5;stroke-linecap:round;stroke-linejoin:round;stroke-miterlimit:4;stroke-dasharray:2.8, 1.8;stroke-dashoffset:0;stroke-opacity:1"
       id="path998" />
    <path
       d="m 737.648,475.903 c 2.189,-0.436 9.705,-3.046 8.595,-10.016 -0.518,-3.239 -8.056,-3.39 -10.46,-2.708 -3.727,1.06 -7.926,6.099 -6.525,9.806 1.402,3.706 6.911,3.21 8.39,2.918 z"
       style="fill:none;stroke:#231f20;stroke-width:0.5;stroke-linecap:round;stroke-linejoin:round;stroke-miterlimit:4;stroke-dasharray:2.8, 1.8;stroke-dashoffset:0;stroke-opacity:1"
       id="path1000" />
    <path
       d="m 715.676,460.857 c 4.539,-2.691 7.286,-5.931 7.025,-7.636 -0.263,-1.705 -1.35,-2.61 -3.565,-2.369"
       style="fill:none;stroke:#231f20;stroke-width:0.5;stroke-linecap:round;stroke-linejoin:round;stroke-miterlimit:4;stroke-dasharray:2.8, 1.8;stroke-dashoffset:0;stroke-opacity:1"
       id="path1002" />
    <path
       d="m 426.225,493.498 c 1.896,2.974 6.425,13.734 8.986,13.425 0.247,-0.029 0.466,-0.137 0.659,-0.311"
       style="fill:none;stroke:#231f20;stroke-width:0.5;stroke-linecap:round;stroke-linejoin:round;stroke-miterlimit:4;stroke-dasharray:2.8, 1.8;stroke-dashoffset:0;stroke-opacity:1"
       id="path1004" />
    <path
       d="m 471.764,542.743 c -4.158,0.957 -10.889,0.458 -12.138,-3.602 -1.249,-4.059 1.176,-6.939 10.357,-12.072 9.182,-5.132 18.57,-6.767 24.567,-0.504"
       style="fill:none;stroke:#231f20;stroke-width:0.5;stroke-linecap:round;stroke-linejoin:round;stroke-miterlimit:4;stroke-dasharray:2.8, 1.8;stroke-dashoffset:0;stroke-opacity:1"
       id="path1006" />
    <path
       d="m 516.482,513.901 c -1.426,-2.307 -1.635,-7.053 -1.427,-10.788"
       style="fill:none;stroke:#231f20;stroke-width:0.5;stroke-linecap:round;stroke-linejoin:round;stroke-miterlimit:4;stroke-dasharray:2.8, 1.8;stroke-dashoffset:0;stroke-opacity:1"
       id="path1008" />
    <path
       d="m 484.948,559.412 c 8.115,0.635 22.371,0.389 33.446,-4.673 11.076,-5.063 11.823,-7.164 10.819,-9.862 -1.003,-2.697 -8.482,-8.183 -13.541,-5.169"
       style="fill:none;stroke:#231f20;stroke-width:0.5;stroke-linecap:round;stroke-linejoin:round;stroke-miterlimit:4;stroke-dasharray:2.8, 1.8;stroke-dashoffset:0;stroke-opacity:1"
       id="path1010" />
    <path
       d="m 457.739,581.017 c 3.674,-8.448 20.602,-16.573 30.887,-17.124 10.287,-0.549 26.933,-1.096 32.975,-3.825 6.044,-2.729 18.894,-0.321 27.226,4.39 8.331,4.712 14.222,10.255 17.859,10.75"
       style="fill:none;stroke:#231f20;stroke-width:0.5;stroke-linecap:round;stroke-linejoin:round;stroke-miterlimit:4;stroke-dasharray:2.8, 1.8;stroke-dashoffset:0;stroke-opacity:1"
       id="path1012" />
    <path
       d="m 465.143,583.458 c 3.437,-5.47 7.917,-11.684 22.473,-9.54 14.554,2.145 26.881,4.409 44.538,3.465 17.656,-0.944 25.959,-2.662 30.781,-3.668"
       style="fill:none;stroke:#231f20;stroke-width:0.5;stroke-linecap:round;stroke-linejoin:round;stroke-miterlimit:4;stroke-dasharray:2.8, 1.8;stroke-dashoffset:0;stroke-opacity:1"
       id="path1014" />
    <path
       d="m 391.476,524.905 c 6.38,-3.554 9.949,-3.627 12.7,-3.601 2.752,0.025 7.571,0.112 9.227,-4.276 1.657,-4.385 2.322,-17.658 -7.987,-23.984 -10.308,-6.327 -21.796,-8.978 -33.68,0.254 -11.885,9.23 -12.355,19.744 -9.273,25.938 3.082,6.195 13.654,14.227 29.013,5.669 z"
       style="fill:none;stroke:#231f20;stroke-width:0.5;stroke-linecap:round;stroke-linejoin:round;stroke-miterlimit:4;stroke-dasharray:2.8, 1.8;stroke-dashoffset:0;stroke-opacity:1"
       id="path1016" />
    <path
       d="m 384.691,527.755 c -0.588,7.171 6.658,30.164 21.264,26.805 11.91,-2.74 9.42,-32.823 5.879,-35.184"
       style="fill:none;stroke:#231f20;stroke-width:0.5;stroke-linecap:round;stroke-linejoin:round;stroke-miterlimit:4;stroke-dasharray:2.8, 1.8;stroke-dashoffset:0;stroke-opacity:1"
       id="path1018" />
    <path
       d="m 830.111,503.221 c 6.467,0.653 11.444,1.837 14.759,1.146 3.315,-0.694 14.964,-4.668 15.234,-6.875 0.269,-2.206 -15.76,-7.796 -18.989,-7.881 -3.227,-0.086 -21.391,7.46 -23.014,8.45 -1.623,0.989 -6.228,4.071 -4.881,5.161 1.348,1.088 5.901,-0.573 7.957,-0.684 2.058,-0.11 6.513,0.438 8.934,0.683 z"
       style="fill:none;stroke:#231f20;stroke-width:0.5;stroke-linecap:round;stroke-linejoin:round;stroke-miterlimit:4;stroke-dasharray:2.8, 1.8;stroke-dashoffset:0;stroke-opacity:1"
       id="path1020" />
    <path
       d="m 824.82,483.014 c 0.652,-2.402 1.68,-4.492 3.266,-5.599 4.599,-3.212 9.878,-1.796 11.787,-1.405 2.999,0.614 3.994,2.366 3.827,4.05 -0.169,1.686 -0.862,9.817 -0.862,9.817"
       style="fill:none;stroke:#231f20;stroke-width:0.5;stroke-linecap:round;stroke-linejoin:round;stroke-miterlimit:4;stroke-dasharray:2.8, 1.8;stroke-dashoffset:0;stroke-opacity:1"
       id="path1022" />
    <path
       d="m 843.7,480.06 c 0.282,-1.949 1.736,-3.703 7.968,-2.876 6.234,0.828 9.801,2.442 9.448,7.876 -0.355,5.435 -1.15,9.86 -1.15,9.86"
       style="fill:none;stroke:#231f20;stroke-width:0.5;stroke-linecap:round;stroke-linejoin:round;stroke-miterlimit:4;stroke-dasharray:2.8, 1.8;stroke-dashoffset:0;stroke-opacity:1"
       id="path1024" />
    <path
       d="m 858.334,495.707 c 2.146,-0.814 7.585,-2.781 14.076,-1.967 6.489,0.813 9.28,2.341 9.267,4.533 -0.011,2.191 -1.55,5.584 -4.732,5.539 -2.449,-0.034 -5.935,-0.069 -11.614,-2.602 -3.067,-1.368 -6.423,-2.29 -11.741,0.302"
       style="fill:none;stroke:#231f20;stroke-width:0.5;stroke-linecap:round;stroke-linejoin:round;stroke-miterlimit:4;stroke-dasharray:2.8, 1.8;stroke-dashoffset:0;stroke-opacity:1"
       id="path1026" />
    <path
       d="m 881.677,498.273 c 0.451,-3.634 1.628,-12.981 0.245,-14.712 -1.381,-1.73 -2.518,-2.873 -3.125,-2.851 -0.607,0.024 -13.519,-0.006 -19.373,-0.849"
       style="fill:none;stroke:#231f20;stroke-width:0.5;stroke-linecap:round;stroke-linejoin:round;stroke-miterlimit:4;stroke-dasharray:2.8, 1.8;stroke-dashoffset:0;stroke-opacity:1"
       id="path1028" />
    <path
       d="m 201.401,692.746 c 5.361,4.317 32.18,13.972 51.352,-8.456 19.173,-22.427 11.19,-36.699 8.385,-40.933 -2.805,-4.234 -12.522,-12.353 -20.305,-8.468"
       style="fill:none;stroke:#231f20;stroke-width:0.5;stroke-linecap:round;stroke-linejoin:round;stroke-miterlimit:4;stroke-dasharray:2.8, 1.8;stroke-dashoffset:0;stroke-opacity:1"
       id="path1030" />
    <path
       d="m 220.993,644.984 c -2.64,-1.148 -14.271,3.087 -23.29,12.851 -9.019,9.766 -15.995,19.165 -19.434,17.543 -3.439,-1.621 5.834,-16.299 11.574,-29.5 5.742,-13.2 10.533,-29.701 7.172,-34.679"
       style="fill:none;stroke:#231f20;stroke-width:0.5;stroke-linecap:round;stroke-linejoin:round;stroke-miterlimit:4;stroke-dasharray:2.8, 1.8;stroke-dashoffset:0;stroke-opacity:1"
       id="path1032" />
    <path
       d="m 226.143,639.941 c 3.578,-2.432 11.902,-8.888 14.118,-6.041 2.215,2.848 -1.195,4.189 -4.84,5.932 -3.647,1.742 -12.052,8.509 -14.679,14.838 0,0 -5.298,-7.453 5.401,-14.729 z"
       style="fill:none;stroke:#231f20;stroke-width:0.5;stroke-linecap:round;stroke-linejoin:round;stroke-miterlimit:4;stroke-dasharray:2.8, 1.8;stroke-dashoffset:0;stroke-opacity:1"
       id="path1034" />
    <path
       d="m 239.259,545.771 c 2.062,0.224 3.79,-0.077 5.589,-1.339 3.976,-2.791 1.601,-6.402 3.106,-7.974 1.505,-1.573 5.108,0.832 9.094,-1.789 3.986,-2.621 10.249,-10.863 13.204,-16.694 2.955,-5.831 12.88,-16.331 21.761,-23.854 8.881,-7.524 33.218,-15.359 43.331,-15.9 10.114,-0.54 21.22,-1.82 26.651,-3.143 5.43,-1.321 14.002,-1.78 15.449,2.785 1.447,4.565 -3.087,9.793 -5.404,11.464 -2.318,1.671 -3.347,1.726 -4.096,0.561 -0.75,-1.163 0.701,-2.961 2.514,-4.431 1.811,-1.473 4.254,-4.01 3.478,-5.688 -0.778,-1.678 -8.681,-1.597 -13.589,-0.133 -4.906,1.466 -6.351,0.167 -22.183,3.076 -15.833,2.911 -37.925,7.701 -47.3,18.862 -9.374,11.159 -13.483,17.912 -15.25,20.24 -1.766,2.329 -3.388,4.136 -4.616,3.686 0,0 -3.053,7.21 -7.4,9.506 -4.347,2.294 -8.749,3.562 -10.625,3.834 -1.876,0.273 -2.345,1.158 -2.119,2.176 0.227,1.02 0.453,2.038 -1.531,3.52 -1.983,1.482 -3.986,2.621 -3.731,4.155 0.253,1.533 1.435,1.125 2.472,1.242 1.039,0.116 1.895,2.479 -1.215,2.987 -2.541,0.415 -16.694,2.771 -12.35,-1.963"
       style="fill:none;stroke:#231f20;stroke-width:0.5;stroke-linecap:round;stroke-linejoin:round;stroke-miterlimit:4;stroke-dasharray:2.8, 1.8;stroke-dashoffset:0;stroke-opacity:1"
       id="path1036" />
    <path
       d="m 248.994,551.39 c 5.774,-1.473 15.579,-4.573 25.902,-14.065 10.323,-9.491 21.051,-21.069 40.29,-27.769 19.24,-6.701 45.661,-17.193 52.834,-21.375"
       style="fill:none;stroke:#231f20;stroke-width:0.5;stroke-linecap:round;stroke-linejoin:round;stroke-miterlimit:4;stroke-dasharray:2.8, 1.8;stroke-dashoffset:0;stroke-opacity:1"
       id="path1038" />
    <path
       d="m 331.619,494.332 c 1.591,-1.332 3.836,-0.206 4.118,0.888 0.22,0.848 -0.901,2.455 -2.263,2.7 -1.361,0.246 -2.606,-0.548 -3.455,-0.332 0,0 0.283,-2.155 1.6,-3.256 z"
       style="fill:none;stroke:#231f20;stroke-width:0.5;stroke-linecap:round;stroke-linejoin:round;stroke-miterlimit:4;stroke-dasharray:2.8, 1.8;stroke-dashoffset:0;stroke-opacity:1"
       id="path1040" />
    <path
       d="m 187.665,613.159 c 0,0 3.547,2.046 5.559,1.079 2.011,-0.969 12.885,-13.252 18.831,-20.778 9.5,-12.026 18.31,-17.654 23.432,-21.538 5.121,-3.884 10.044,-8.273 10.945,-10.727 0.9,-2.455 1.171,-8.386 -0.143,-8.183"
       style="fill:none;stroke:#231f20;stroke-width:0.5;stroke-linecap:round;stroke-linejoin:round;stroke-miterlimit:4;stroke-dasharray:2.8, 1.8;stroke-dashoffset:0;stroke-opacity:1"
       id="path1042" />
    <path
       d="m 156.082,652.667 c 5.651,-6.835 24.271,-27.434 31.583,-39.508"
       style="fill:none;stroke:#231f20;stroke-width:0.5;stroke-linecap:round;stroke-linejoin:round;stroke-miterlimit:4;stroke-dasharray:2.8, 1.8;stroke-dashoffset:0;stroke-opacity:1"
       id="path1044" />
    <path
       d="m 196.326,627.53 c 5.129,-10.467 45.323,-56.109 73.322,-75.828"
       style="fill:none;stroke:#231f20;stroke-width:0.5;stroke-linecap:round;stroke-linejoin:round;stroke-miterlimit:4;stroke-dasharray:2.8, 1.8;stroke-dashoffset:0;stroke-opacity:1"
       id="path1046" />
    <path
       d="m 235.39,610.556 c -2.935,4.335 -5.53,10.49 -7.277,13.162 -1.748,2.672 0.492,5.99 5.705,3.821 5.213,-2.169 23.603,-15.404 32.616,-25.145"
       style="fill:none;stroke:#231f20;stroke-width:0.5;stroke-linecap:round;stroke-linejoin:round;stroke-miterlimit:4;stroke-dasharray:2.8, 1.8;stroke-dashoffset:0;stroke-opacity:1"
       id="path1048" />
    <path
       d="m 185.877,654.322 c 5.543,-6.293 35.699,-34.16 45.591,-41.933"
       style="fill:none;stroke:#231f20;stroke-width:0.5;stroke-linecap:round;stroke-linejoin:round;stroke-miterlimit:4;stroke-dasharray:2.8, 1.8;stroke-dashoffset:0;stroke-opacity:1"
       id="path1050" />
    <path
       d="m 270.813,572.535 c -2.214,-1.867 -3.876,-4.013 -2.743,-8.543 1.134,-4.53 1.406,-12.281 1.955,-14.889 0.548,-2.607 0.989,-4.265 1.508,-8.891"
       style="fill:none;stroke:#231f20;stroke-width:0.5;stroke-linecap:round;stroke-linejoin:round;stroke-miterlimit:4;stroke-dasharray:2.8, 1.8;stroke-dashoffset:0;stroke-opacity:1"
       id="path1052" />
    <path
       d="m 278.098,568.27 c 4.669,-5.923 36.298,-31.682 68.012,-33.377"
       style="fill:none;stroke:#231f20;stroke-width:0.5;stroke-linecap:round;stroke-linejoin:round;stroke-miterlimit:4;stroke-dasharray:2.8, 1.8;stroke-dashoffset:0;stroke-opacity:1"
       id="path1054" />
    <path
       d="m 296.819,518.709 c 1.604,2.058 5.696,7.856 8.617,4.606 2.92,-3.25 8.651,-11.809 9.852,-11.873 1.199,-0.064 4.459,3.028 6.057,3.974 1.598,0.947 4.655,0.267 7.392,3.215 2.736,2.949 4.38,4.75 7.483,4.929 3.105,0.179 6.906,3.758 9.058,8.628 2.151,4.87 2.021,12.098 2.971,13.766 0.948,1.668 19.09,23.929 23.482,32.119"
       style="fill:none;stroke:#231f20;stroke-width:0.5;stroke-linecap:round;stroke-linejoin:round;stroke-miterlimit:4;stroke-dasharray:2.8, 1.8;stroke-dashoffset:0;stroke-opacity:1"
       id="path1056" />
    <path
       d="m 362.544,564.571 c -2.568,1.385 -7.792,13.01 -2.806,19.447 4.985,6.44 13.847,11.984 21.482,6.59"
       style="fill:none;stroke:#231f20;stroke-width:0.5;stroke-linecap:round;stroke-linejoin:round;stroke-miterlimit:4;stroke-dasharray:2.8, 1.8;stroke-dashoffset:0;stroke-opacity:1"
       id="path1058" />
    <path
       d="m 271.502,608.517 c 15.343,-2.036 69.039,-17.815 87.029,-26.591"
       style="fill:none;stroke:#231f20;stroke-width:0.5;stroke-linecap:round;stroke-linejoin:round;stroke-miterlimit:4;stroke-dasharray:2.8, 1.8;stroke-dashoffset:0;stroke-opacity:1"
       id="path1060" />
    <path
       d="m 427.775,679.75 c 0,0 10.301,-3.475 10.309,-16.196 0.007,-12.722 -5.705,-23.076 -4.711,-33.444 0.993,-10.367 8.68,-20.922 13.475,-27.71 4.794,-6.789 15.957,-16.669 13.508,-20.664 -2.448,-3.995 -20.44,6.765 -28.941,14.956 -8.501,8.19 -17.739,20.614 -13.024,38.723"
       style="fill:none;stroke:#231f20;stroke-width:0.5;stroke-linecap:round;stroke-linejoin:round;stroke-miterlimit:4;stroke-dasharray:2.8, 1.8;stroke-dashoffset:0;stroke-opacity:1"
       id="path1062" />
    <path
       d="m 403.616,653.855 c -4.259,-13.674 -8.004,-25.853 -10.247,-32.437 -2.243,-6.584 -6.285,-27.514 -3.159,-33.354 3.126,-5.84 11.894,-9.06 14.514,-5.073 2.619,3.985 0.154,12.541 5.493,15.427 3.687,1.993 10.577,8.641 7.246,22.581"
       style="fill:none;stroke:#231f20;stroke-width:0.5;stroke-linecap:round;stroke-linejoin:round;stroke-miterlimit:4;stroke-dasharray:2.8, 1.8;stroke-dashoffset:0;stroke-opacity:1"
       id="path1064" />
    <path
       d="m 426.2,663.158 c 0.818,0.312 2.71,9.53 4.981,14.714"
       style="fill:none;stroke:#231f20;stroke-width:0.5;stroke-linecap:round;stroke-linejoin:round;stroke-miterlimit:4;stroke-dasharray:2.8, 1.8;stroke-dashoffset:0;stroke-opacity:1"
       id="path1066" />
    <path
       d="m 395.661,582.748 c 2.755,-1.998 3.854,-3.948 4.234,-12.908 0.381,-8.961 0.273,-15.327 0.273,-15.327"
       style="fill:none;stroke:#231f20;stroke-width:0.5;stroke-linecap:round;stroke-linejoin:round;stroke-miterlimit:4;stroke-dasharray:2.8, 1.8;stroke-dashoffset:0;stroke-opacity:1"
       id="path1068" />
    <path
       d="m 444.231,703.883 c 4.43,-3.246 12.625,-12.113 10.99,-25.258 -1.508,-12.126 -13.43,-16.473 -17.137,-15.071"
       style="fill:none;stroke:#231f20;stroke-width:0.5;stroke-linecap:round;stroke-linejoin:round;stroke-miterlimit:4;stroke-dasharray:2.8, 1.8;stroke-dashoffset:0;stroke-opacity:1"
       id="path1070" />
    <path
       d="m 536.984,690.243 c -5.417,-4.869 -23.371,-3.048 -42.473,-3.404 -19.1,-0.353 -35.997,-7.702 -40.072,-11.713 0,0 14.872,0.167 23.751,-10.622 8.878,-10.79 9.578,-26.642 7.348,-39.417"
       style="fill:none;stroke:#231f20;stroke-width:0.5;stroke-linecap:round;stroke-linejoin:round;stroke-miterlimit:4;stroke-dasharray:2.8, 1.8;stroke-dashoffset:0;stroke-opacity:1"
       id="path1072" />
    <path
       d="m 525.46,733.373 c 2.715,-2.088 5.462,-8.595 8.497,-16.151"
       style="fill:none;stroke:#231f20;stroke-width:0.5;stroke-linecap:round;stroke-linejoin:round;stroke-miterlimit:4;stroke-dasharray:2.8, 1.8;stroke-dashoffset:0;stroke-opacity:1"
       id="path1074" />
    <path
       d="m 577.881,622.386 c 6.311,1.709 6.08,7.583 6.327,12.212 0.248,4.628 0.522,9.771 -3.792,19.112 -4.314,9.342 -8.521,17.475 -11.087,24.146 -2.566,6.669 -8.066,22.779 -10.237,27.192 -2.171,4.414 -3.955,6.401 -8.836,8.38 -4.879,1.981 -12.78,5.325 -14.323,5.407 -1.542,0.083 -3.339,-1.367 -2.444,-10.355 0.895,-8.986 6.751,-31.306 11.791,-46.359 5.039,-15.053 18.822,-43.468 32.601,-39.735 z"
       style="fill:none;stroke:#231f20;stroke-width:0.5;stroke-linecap:round;stroke-linejoin:round;stroke-miterlimit:4;stroke-dasharray:2.8, 1.8;stroke-dashoffset:0;stroke-opacity:1"
       id="path1076" />
    <path
       d="m 550.468,640.183 c 7.034,-13.933 12.629,-24.227 13.062,-25.798 0.431,-1.57 0.258,-4.827 -1.341,-5.773 -1.597,-0.946 -4.35,-0.971 -9.265,0.324 -4.917,1.294 -8.596,3.209 -10.666,9.509 -2.071,6.299 -3.36,17.543 -3.599,22.714 -0.241,5.17 -1.87,19.696 -1.004,19.822 0.866,0.127 10.423,-16.065 12.813,-20.798 z"
       style="fill:none;stroke:#231f20;stroke-width:0.5;stroke-linecap:round;stroke-linejoin:round;stroke-miterlimit:4;stroke-dasharray:2.8, 1.8;stroke-dashoffset:0;stroke-opacity:1"
       id="path1078" />
    <path
       d="m 545.672,648.742 c -2.338,5.919 -4.577,15.494 -3.52,15.954 1.056,0.458 3.816,-4.558 3.816,-4.558"
       style="fill:none;stroke:#231f20;stroke-width:0.5;stroke-linecap:round;stroke-linejoin:round;stroke-miterlimit:4;stroke-dasharray:2.8, 1.8;stroke-dashoffset:0;stroke-opacity:1"
       id="path1080" />
    <path
       d="m 560.871,619.938 c 1.289,-2.547 2.787,-3.152 3.5,-2.675 0.713,0.477 -0.304,3.123 0.265,4.972 0.409,1.322 -1.598,4.414 -2.391,7.793"
       style="fill:none;stroke:#231f20;stroke-width:0.5;stroke-linecap:round;stroke-linejoin:round;stroke-miterlimit:4;stroke-dasharray:2.8, 1.8;stroke-dashoffset:0;stroke-opacity:1"
       id="path1082" />
    <path
       d="m 575.15,590.556 c 1.165,2.518 -2.016,7.329 -5.325,9.74 -3.311,2.412 -12.18,7.433 -15.201,8.225"
       style="fill:none;stroke:#231f20;stroke-width:0.5;stroke-linecap:round;stroke-linejoin:round;stroke-miterlimit:4;stroke-dasharray:2.8, 1.8;stroke-dashoffset:0;stroke-opacity:1"
       id="path1084" />
    <path
       d="m 537.619,605.628 c 1.281,1.479 4.955,2.657 7.147,1.852 2.192,-0.805 10.218,-5.016 13.383,-6.904 3.166,-1.888 7.694,-4.022 10.706,-5.557 3.012,-1.536 8.656,-5.277 7.473,-8.136"
       style="fill:none;stroke:#231f20;stroke-width:0.5;stroke-linecap:round;stroke-linejoin:round;stroke-miterlimit:4;stroke-dasharray:2.8, 1.8;stroke-dashoffset:0;stroke-opacity:1"
       id="path1086" />
    <path
       d="m 505.9,593.893 c -1.626,-0.058 -3.401,0.028 -5.338,0.307 -5.947,0.856 -13.414,3.122 -15.466,9.764 -2.052,6.645 -3.424,16.345 0.442,21.123 3.866,4.78 9.289,6.551 15.415,5.365 6.125,-1.187 8.161,-4.905 14.205,-7.635 6.042,-2.732 24.288,-5.355 30.651,-12.151"
       style="fill:none;stroke:#231f20;stroke-width:0.5;stroke-linecap:round;stroke-linejoin:round;stroke-miterlimit:4;stroke-dasharray:2.8, 1.8;stroke-dashoffset:0;stroke-opacity:1"
       id="path1088" />
    <path
       d="m 498.333,588.211 c -2.139,-1.236 -4.6,-2.399 -7.335,-3.298 -7.087,-2.329 -17.233,-3.98 -21.055,-3.13 -3.822,0.848 -4.345,1.311 -6.855,3.062 -1.731,1.209 -2.926,2.102 -1.409,3.955 1.518,1.852 10.368,8.282 13.313,10.248 2.02,1.348 5.759,4.062 11.041,2.754"
       style="fill:none;stroke:#231f20;stroke-width:0.5;stroke-linecap:round;stroke-linejoin:round;stroke-miterlimit:4;stroke-dasharray:2.8, 1.8;stroke-dashoffset:0;stroke-opacity:1"
       id="path1090" />
    <path
       d="m 620.999,792.304 c -0.223,-4.253 -6.479,-26.802 -9.089,-31.209"
       style="fill:none;stroke:#231f20;stroke-width:0.5;stroke-linecap:round;stroke-linejoin:round;stroke-miterlimit:4;stroke-dasharray:2.8, 1.8;stroke-dashoffset:0;stroke-opacity:1"
       id="path1092" />
    <path
       d="m 565.34,776.917 c 0,0 1.61,-15.904 1.459,-23.459"
       style="fill:none;stroke:#231f20;stroke-width:0.5;stroke-linecap:round;stroke-linejoin:round;stroke-miterlimit:4;stroke-dasharray:2.8, 1.8;stroke-dashoffset:0;stroke-opacity:1"
       id="path1094" />
    <path
       d="m 876.871,512.068 1.881,36.989"
       style="fill:none;stroke:#231f20;stroke-width:0.5;stroke-linecap:round;stroke-linejoin:round;stroke-miterlimit:4;stroke-dasharray:2.8, 1.8;stroke-dashoffset:0;stroke-opacity:1"
       id="path1096" />
    <path
       d="m 849.29,586.051 c -0.784,-4.004 -3.116,-11.835 -5.122,-14.458"
       style="fill:none;stroke:#231f20;stroke-width:0.5;stroke-linecap:round;stroke-linejoin:round;stroke-miterlimit:4;stroke-dasharray:2.8, 1.8;stroke-dashoffset:0;stroke-opacity:1"
       id="path1098" />
    <path
       d="m 437.744,591.393 c -0.468,-10.487 -5.405,-44.949 -23.238,-52.232"
       style="fill:none;stroke:#231f20;stroke-width:0.5;stroke-linecap:round;stroke-linejoin:round;stroke-miterlimit:4;stroke-dasharray:2.8, 1.8;stroke-dashoffset:0;stroke-opacity:1"
       id="path1100" />
    <path
       d="m 664.184,822.255 c 11.781,2.901 25.549,4.372 36.382,4.248"
       style="fill:none;stroke:#231f20;stroke-width:0.5;stroke-linecap:round;stroke-linejoin:round;stroke-miterlimit:4;stroke-dasharray:2.8, 1.8;stroke-dashoffset:0;stroke-opacity:1"
       id="path1102" />
    <path
       d="m 703.332,660.643 c 11.616,6.161 26.58,17.498 31.663,26.78"
       style="fill:none;stroke:#231f20;stroke-width:0.5;stroke-linecap:round;stroke-linejoin:round;stroke-miterlimit:4;stroke-dasharray:2.8, 1.8;stroke-dashoffset:0;stroke-opacity:1"
       id="path1104" />
    <path
       d="m 477.825,770.25 c 3.936,2.883 18.784,10.514 28.099,14.314 9.315,3.799 24.133,11.479 31.721,8.103 5.709,-2.541 11.552,-14.689 14.75,-19.159 3.199,-4.467 10.882,-15.905 11.213,-19.362"
       style="fill:none;stroke:#231f20;stroke-width:0.5;stroke-linecap:round;stroke-linejoin:round;stroke-miterlimit:4;stroke-dasharray:2.8, 1.8;stroke-dashoffset:0;stroke-opacity:1"
       id="path1106" />
    <path
       d="m 476.701,752.431 c 0.257,-1.123 1.997,-1.224 6.226,0.699 3.688,1.677 13.574,6.323 20.244,8.889 6.671,2.564 17.745,7.13 21.64,2.796 3.894,-4.334 6.019,-9.604 6.487,-10.489 0.468,-0.885 0.071,-1.895 -2.403,-3.139 -2.473,-1.242 -21.362,-7.28 -28.907,-10.144 -7.545,-2.864 -18.343,-8.832 -19.235,-9.287 -1.679,-0.856 -1.146,-2.085 0.262,-1.472 1.408,0.612 16.209,7.298 24.44,10.123 8.23,2.826 21.497,6.587 27.515,6.609 6.018,0.023 10.251,2.03 10.542,4.25 0.29,2.219 -0.358,2.942 -2.866,4.279 -2.507,1.337 -8.562,5.443 -10.16,9.311 -1.474,3.565 1.36,9.382 -5.931,8.053 -7.292,-1.33 -32.409,-11.333 -38.249,-14.459 -5.841,-3.127 -9.884,-4.802 -9.605,-6.019 z"
       style="fill:none;stroke:#231f20;stroke-width:0.5;stroke-linecap:round;stroke-linejoin:round;stroke-miterlimit:4;stroke-dasharray:2.8, 1.8;stroke-dashoffset:0;stroke-opacity:1"
       id="path1108" />
    <path
       d="m 519.856,755.754 c 0.77,-1.65 -0.22,-4.114 -6.582,-4.935 -6.361,-0.819 -20.542,-5.606 -27.096,-10.027 -6.553,-4.419 -18.175,-7.151 -26.22,-5.689 -8.044,1.461 -14.986,11.503 -12.615,22.077 2.37,10.575 15.54,20.573 19.474,24.23 3.935,3.658 18.477,12.809 27.325,16.72 8.848,3.911 27.233,10.148 35.922,11.101 8.689,0.955 22.399,1.769 28.309,-5.896 5.908,-7.666 9.199,-20.863 9.818,-23.733 0.621,-2.87 -0.577,-3.58 -1.714,-3.132 -1.137,0.447 -1.881,1.003 -2.636,3.752 -0.756,2.747 -4.431,18.416 -9.103,22.662 -4.672,4.247 -15.612,7.023 -26.198,4.366 -10.585,-2.658 -32.072,-11.437 -38.727,-15.335 -6.654,-3.9 -14.127,-6.208 -18.149,-9.087 -4.022,-2.88 -5.101,-6.175 -9.598,-10.704 -4.496,-4.531 -11.852,-11.874 -11.733,-16.908 0.117,-5.035 2.269,-14.906 9.324,-16.1 7.795,-1.32 14.305,-0.119 17.108,1.664 2.804,1.784 10.746,8.064 15.092,9.766 4.346,1.702 18.499,5.974 21.091,6.222 2.593,0.248 5.983,0.969 6.908,-1.014 z"
       style="fill:none;stroke:#231f20;stroke-width:0.5;stroke-linecap:round;stroke-linejoin:round;stroke-miterlimit:4;stroke-dasharray:2.8, 1.8;stroke-dashoffset:0;stroke-opacity:1"
       id="path1110" />
    <path
       d="m 454.989,764.508 c 0.703,-0.683 -0.036,-2.448 -0.876,-3.693 -0.841,-1.244 -2.443,-7.089 0.619,-12.54 3.06,-5.449 10.97,-7.032 16.865,-5.284 5.896,1.747 14.434,5.293 19.152,7.061"
       style="fill:none;stroke:#231f20;stroke-width:0.5;stroke-linecap:round;stroke-linejoin:round;stroke-miterlimit:4;stroke-dasharray:2.8, 1.8;stroke-dashoffset:0;stroke-opacity:1"
       id="path1112" />
    <path
       d="m 450.223,763.952 2.762,-2.111"
       style="fill:none;stroke:#231f20;stroke-width:0.5;stroke-linecap:round;stroke-linejoin:round;stroke-miterlimit:4;stroke-dasharray:2.8, 1.8;stroke-dashoffset:0;stroke-opacity:1"
       id="path1114" />
    <path
       d="m 463.948,778.884 1.814,-2.477"
       style="fill:none;stroke:#231f20;stroke-width:0.5;stroke-linecap:round;stroke-linejoin:round;stroke-miterlimit:4;stroke-dasharray:2.8, 1.8;stroke-dashoffset:0;stroke-opacity:1"
       id="path1116" />
    <path
       d="m 762.13,652.054 c -2.024,-1.976 -10.048,-8.025 -16.563,-9.062 -7.283,-1.158 -15.708,2.042 -15.397,7.871 0.313,5.829 1.91,16.401 6.03,13.087 4.12,-3.315 5.896,-5.473 11.571,-5.432 5.676,0.04 8.232,2.826 8.063,6.102 -0.168,3.275 -4.019,5.2 -6.861,6.727 -2.842,1.527 -8.259,6.287 -5.143,9.902 3.115,3.615 7.043,6.329 10.019,4.106 2.975,-2.222 12.356,-13.703 20.193,-8.129 6.971,4.957 0.572,13.896 -1.367,16.234 -1.938,2.338 -7.116,14.821 -13.143,14.627 -6.027,-0.193 -12.715,-3.103 -13.698,7.437 -0.986,10.54 -0.182,22.357 3.78,22.49 3.961,0.132 10.192,-15.157 15.464,-13.031 5.27,2.124 3.931,18.871 -0.603,24.099 -4.535,5.228 -8.267,9.381 -8.316,14.885 -0.05,5.504 5.735,26.878 14.846,26.885 6.361,0.003 12.024,-25.914 12.094,-27.809 0.071,-1.896 -0.506,-35.214 1.02,-45.267 1.525,-10.053 14.943,-29.165 24.601,-25.383 4.49,1.759 2.834,10.755 1.479,21.238 -1.557,12.061 -3.716,23.75 -3.97,31.844 -0.345,10.973 -1.792,17.975 -2.238,22.468 -0.447,4.493 -2.042,16.632 -3.412,19.78 -2.297,5.28 -7.797,8.498 -8.471,11.972 -0.674,3.473 0.171,9.618 5.043,10.732 4.872,1.115 19.673,4.621 23.851,5.601 4.178,0.981 12.958,1.199 14.354,-1.627 1.396,-2.824 -0.024,-6.875 -4.511,-10.416 -4.488,-3.543 -12.077,-16.889 -8.63,-26.358 3.449,-9.467 12.146,-10.792 15.099,-6.995 2.952,3.796 9.766,15.465 11.856,22.402 2.09,6.937 4.719,11.094 9.152,13.608 4.43,2.513 11.344,3.175 14.821,-2.512 3.477,-5.686 -0.255,-14.426 -10.689,-19.886 -4.213,-2.204 -7.285,-8.362 -11.409,-14.003 -4.757,-6.506 -10.418,-12.619 -12.716,-15.995 -4.291,-6.303 -3.06,-12.214 -2.178,-15.012 0.883,-2.798 2.731,-3.584 6.964,-1.575 4.233,2.008 13.11,10.472 22.98,21.464 9.871,10.99 12.69,15.481 15.085,21.713 2.397,6.232 9.026,14.474 13.348,14.931 4.322,0.457 6.126,-1.187 7.188,-3.823 1.063,-2.634 4.422,-3.742 5.997,-3.586 0.497,0.048 0.57,-0.406 0.57,-0.406 0,0 1.593,-4.18 -2.932,-8.408 -4.524,-4.228 -14.894,-8.487 -16.893,-13.71 -1.998,-5.222 -3.948,-11.733 -12.073,-23.25 -9.115,-12.921 -26.338,-23.175 -21.671,-32.364 3.58,-7.048 13.487,-1.753 24.312,7.811 10.827,9.565 16.226,23.717 18.634,33.387 2.407,9.67 4.956,15.551 10.876,16.954 5.921,1.402 12.65,1.901 14.298,-2.656 1.649,-4.558 -3.069,-12.385 -8.532,-18.11 -5.463,-5.725 -11.241,-10.917 -11.084,-17.63 0.156,-6.712 1.544,-9.71 5.162,-9.559 3.618,0.15 7.05,3.234 9.66,7.047 2.611,3.815 6.574,7.213 12.631,1.56 6.06,-5.652 9.937,-19.957 4.003,-28.064 -5.934,-8.106 -11.62,-8.318 -16.012,-6.879 -4.393,1.437 -9.265,0.323 -12.569,-0.361 -3.302,-0.682 -4.655,-0.267 -5.473,3.732 -0.818,3.998 -1.32,7.462 -5.281,7.33 -3.963,-0.132 -5.049,-4.372 -6.11,-11.364 -1.06,-6.991 -3.975,-19.728 -17.157,-18.68 -13.181,1.048 -26.87,7.269 -30.144,2.128 -4.128,-6.485 4.992,-19.178 9.03,-24.035 4.039,-4.858 11.278,-10.919 14.355,-11.255 3.077,-0.335 4.679,3.877 8.656,4.351 3.98,0.476 9.174,-2.038 15.973,2.929 6.799,4.965 8.958,10.007 9.907,11.677 0.949,1.667 2.853,1.909 4.314,0.284 1.46,-1.625 2.421,-6.146 9.676,-5.502 7.256,0.643 14.884,8.314 23.752,16.608 0,0 7.419,3.729 4.692,-11.94 -2.729,-15.67 -8.771,-22.569 -17.4,-26.404 -8.629,-3.837 -22.032,-10.17 -29.846,-11.643 -7.815,-1.473 -31.86,-2.608 -32.886,2.273"
       style="fill:none;stroke:#231f20;stroke-width:0.75;stroke-linecap:round;stroke-linejoin:round;stroke-miterlimit:4;stroke-dasharray:0, 2;stroke-dashoffset:0;stroke-opacity:1"
       id="path1118" />
  </g>
</svg>
