<?xml version="1.0" encoding="UTF-8" standalone="no"?>
<!-- Created with Inkscape (http://www.inkscape.org/) -->

<svg
   version="1.1"
   id="svg2"
   width="1440"
   height="1344"
   viewBox="0 0 1440 1344"
   xmlns="http://www.w3.org/2000/svg"
   xmlns:svg="http://www.w3.org/2000/svg">
  <defs
     id="defs6" />
  <g
     id="g8">
    <path
       d="m 922.77,455.54 c -12.367,0.502 -29.6,-9.902 -39.066,-16.921 -9.469,-7.019 -28.623,-5.537 -40.744,-2.853 -12.122,2.685 -20.852,2.696 -29.827,1.012 -8.974,-1.685 -22.07,-1.666 -27.888,-0.446 -5.819,1.22 -14.793,-0.706 -24.977,0.279 -10.184,0.983 -31.035,3.437 -40.734,4.422 -9.698,0.983 -19.152,3.906 -24.723,8.763 -5.57,4.859 -11.869,9.233 -18.656,11.425 -6.787,2.193 -10.418,6.804 -12.352,10.687 -1.935,3.882 -4.353,8.736 -4.353,8.736 -2.425,-0.238 -4.609,-0.963 -16.975,0.752 -12.363,1.715 -11.381,11.414 -10.889,16.746 0.494,5.336 0.5,10.913 -2.644,15.767 -3.146,4.855 -3.62,12.373 -4.338,19.892 -0.717,7.518 -1.197,10.671 -3.611,17.95 -2.416,7.278 -13.327,7.536 -17.698,3.419 -4.372,-4.116 -13.839,-11.62 -18.691,-13.311 -4.854,-1.691 -19.646,-2.64 -24.982,-3.359 -5.336,-0.72 -11.161,-3.137 -15.287,-6.042 -4.127,-2.904 -9.219,-2.896 -9.219,-2.896 2.181,-0.974 0.481,-2.669 -2.674,-4.847 -3.156,-2.178 -16.261,-9.192 -26.697,-15.482 -10.436,-6.29 -27.418,-11.359 -36.152,-13.529 -8.733,-2.171 -11.646,-4.833 -23.535,-9.183 -11.889,-4.348 -40.268,-8.915 -42.693,-9.154 -2.426,-0.24 -16.738,-3.614 -28.862,-2.869 -12.124,0.745 -19.146,7.787 -19.146,7.787 -0.489,-2.909 -3.887,-5.087 -6.8,-7.266 -2.913,-2.178 -27.648,-1.901 -38.316,-0.432 -10.668,1.471 -19.47,7.303 -26.903,10.871 -7.431,3.567 -12.929,2.604 -18.419,7.138 -5.491,4.534 -14.859,10.044 -20.025,15.225 -5.166,5.182 -16.785,21.04 -24.532,30.105 -7.747,9.065 -23.249,21.372 -29.707,27.848 -6.457,6.475 -46.953,56.004 -58.421,73.156 -3.386,5.067 -7.738,15.207 -7.723,25.878 0.014,10.67 2.611,17.132 6.811,21.796 4.498,4.992 9.734,10.918 18.469,3.618 0,0 -12.258,14.092 -18.422,29.178 -6.758,16.54 -3.811,42.726 0.075,53.932 6.295,18.15 15.598,35.447 40.154,49.017 24.556,13.569 99.328,33.343 136.195,38.787 36.868,5.445 86.671,12.488 132.266,15.334 45.594,2.846 124.811,2.735 159.404,0.099 34.592,-2.635 50.112,-4.596 88.247,-15.967 38.138,-11.371 59.142,-20.13 64.617,-35.981 5.474,-15.851 4.498,-20.7 3.187,-32.985 -1.31,-12.285 -2.773,-30.681 -20.43,-43.298 -19.42,-13.876 -33.308,-1.569 -41.388,-1.234 0,0 17.442,-10.372 22.596,-24.606 0,0 8.103,13.245 17.491,21.315 9.389,8.071 23.625,15.164 25.876,5.46 0,0 2.609,16.81 17.5,29.076 14.888,12.266 46.912,20.951 44.943,0.26 0,0 8.42,8.395 25.229,6.108 16.81,-2.287 22.279,-21.371 18.394,-25.245 0,0 13.594,8.386 17.785,0.944 4.194,-7.442 7.102,-7.77 9.366,-8.096 2.261,-0.327 10.66,-5.512 0.943,-18.432 0,0 12.617,5.155 18.414,-11.665 5.795,-16.822 13.851,-36.557 -1.68,-44.618 0,0 15.201,3.212 18.723,-22.336 3.521,-25.549 -1.676,-43.002 -12.037,-52.364 -10.36,-9.362 -16.502,-8.707 -20.055,-5.792 0,0 6.449,-12.295 -5.525,-20.038 -11.973,-7.743 -36.875,-10.295 -40.432,-10.29 0,0 7.135,-2.531 13.572,-5.192 10.989,-4.543 18.59,-13.151 21.606,-19.533 6.947,-1.321 17.574,-6.253 29.433,-14.489 15.748,-10.935 25.196,-18.223 26.147,-31.804 0.951,-13.581 3.105,-32.742 -15.082,-32.232 -0.268,0.009 -0.535,0.016 -0.807,0.025 z M 545.34,729.852 c -3.683,-0.456 -7.754,-0.449 -11.876,-0.227 3.148,-0.121 5.569,-1.704 8.234,-3.405 2.665,-1.701 5.33,-3.888 7.269,-3.89 1.94,-0.003 8.002,0.473 12.362,-3.897 0.255,-0.257 0.487,-0.507 0.699,-0.752 -0.935,5.197 0.689,9.883 3.601,11.657 2.913,1.775 9.545,5.16 11.002,6.775 1.458,1.615 5.02,4.52 12.133,5.156 7.115,0.637 13.377,1.594 20.381,1.103 -11.713,0.691 -21.332,0.633 -31.291,1.257 -4.228,0.264 -7.654,1.634 -10.534,3.403 0.382,-10.689 -10.337,-15.742 -21.98,-17.18 z m 100.178,17.319 c -8.009,-3.627 -14.317,-6.527 -29.35,-5.294 -2.433,0.2 -4.773,0.361 -7.023,0.495 7.023,-0.495 12.111,-2.441 16.311,-5.519 4.201,-3.078 4.514,-8.736 2.895,-10.998 -0.811,-1.13 -1.175,-2.059 -1.878,-2.552 -1.037,-1.647 -2.494,-2.938 0.088,-4.881 2.586,-1.944 5.178,2.741 6.799,5.81 1.622,3.069 12.4,23.64 30.045,29.327 2.318,0.746 4.569,1.157 6.728,1.305 -9.692,-0.924 -16.608,-4.067 -24.615,-7.693"
       style="fill:#ffffff;fill-opacity:1;fill-rule:nonzero;stroke:none;stroke-width:0.1"
       id="path728" />
    <path
       d="m 149.791,690.222 c 21.107,-20.436 57.266,-48.182 57.266,-48.182 -20.391,11.205 -52.904,40.645 -59.941,46.243 -7.038,5.597 -12.014,-0.69 -15.07,-5.082 -6.842,-9.836 -6.55,-28.027 1.592,-40.971 9.037,-14.365 28.856,-41.334 46.775,-59.547 17.92,-18.213 32.208,-31.813 34.144,-34.241 1.937,-2.427 6.053,-6.959 5.805,-10.516"
       style="fill:none;stroke:#231f20;stroke-width:0.5;stroke-linecap:butt;stroke-linejoin:miter;stroke-miterlimit:4;stroke-dasharray:none;stroke-opacity:1"
       id="path730" />
    <path
       d="m 922.77,455.54 c -12.367,0.502 -29.6,-9.902 -39.066,-16.921 -9.469,-7.019 -28.623,-5.537 -40.744,-2.853 -12.122,2.685 -20.852,2.696 -29.827,1.012 -8.974,-1.685 -22.07,-1.666 -27.888,-0.446 -5.819,1.22 -14.793,-0.706 -24.977,0.279 -10.184,0.983 -31.035,3.437 -40.734,4.422 -9.698,0.983 -19.152,3.906 -24.723,8.763 -5.57,4.859 -11.869,9.233 -18.656,11.425 -6.787,2.193 -10.418,6.804 -12.352,10.687 -1.935,3.882 -4.353,8.736 -4.353,8.736 -2.425,-0.238 -4.609,-0.963 -16.975,0.752 -12.363,1.715 -11.381,11.414 -10.889,16.746 0.494,5.336 0.5,10.913 -2.644,15.767 -3.146,4.855 -3.62,12.373 -4.338,19.892 -0.717,7.518 -1.197,10.671 -3.611,17.95 -2.416,7.278 -13.327,7.536 -17.698,3.419 -4.372,-4.116 -13.839,-11.62 -18.691,-13.311 -4.854,-1.691 -19.646,-2.64 -24.982,-3.359 -5.336,-0.72 -11.161,-3.137 -15.287,-6.042 -4.127,-2.904 -9.219,-2.896 -9.219,-2.896 2.181,-0.974 0.481,-2.669 -2.674,-4.847 -3.156,-2.178 -16.261,-9.192 -26.697,-15.482 -10.436,-6.29 -27.418,-11.359 -36.152,-13.529 -8.733,-2.171 -11.646,-4.833 -23.535,-9.183 -11.889,-4.348 -40.268,-8.915 -42.693,-9.154 -2.426,-0.24 -16.738,-3.614 -28.862,-2.869 -12.124,0.745 -19.146,7.787 -19.146,7.787 -0.489,-2.909 -3.887,-5.087 -6.8,-7.266 -2.913,-2.178 -27.648,-1.901 -38.316,-0.432 -10.668,1.471 -19.47,7.303 -26.903,10.871 -7.431,3.567 -12.929,2.604 -18.419,7.138 -5.491,4.534 -14.859,10.044 -20.025,15.225 -5.166,5.182 -16.785,21.04 -24.532,30.105 -7.747,9.065 -23.249,21.372 -29.707,27.848 -6.457,6.475 -46.953,56.004 -58.421,73.156 -3.386,5.067 -7.738,15.207 -7.723,25.878 0.014,10.67 2.611,17.132 6.811,21.796 4.498,4.992 9.734,10.918 18.469,3.618 0,0 -12.258,14.092 -18.422,29.178 -6.758,16.54 -3.811,42.726 0.075,53.932 6.295,18.15 15.598,35.447 40.154,49.017 24.556,13.569 99.328,33.343 136.195,38.787 36.868,5.445 86.671,12.488 132.266,15.334 45.594,2.846 124.811,2.735 159.404,0.099 34.592,-2.635 50.112,-4.596 88.247,-15.967 38.138,-11.371 59.142,-20.13 64.617,-35.981 5.474,-15.851 4.498,-20.7 3.187,-32.985 -1.31,-12.285 -2.773,-30.681 -20.43,-43.298 -19.42,-13.876 -33.308,-1.569 -41.388,-1.234 0,0 17.442,-10.372 22.596,-24.606 0,0 8.103,13.245 17.491,21.315 9.389,8.071 23.625,15.164 25.876,5.46 0,0 2.609,16.81 17.5,29.076 14.888,12.266 46.912,20.951 44.943,0.26 0,0 8.42,8.395 25.229,6.108 16.81,-2.287 22.279,-21.371 18.394,-25.245 0,0 13.594,8.386 17.785,0.944 4.194,-7.442 7.102,-7.77 9.366,-8.096 2.261,-0.327 10.66,-5.512 0.943,-18.432 0,0 12.617,5.155 18.414,-11.665 5.795,-16.822 13.851,-36.557 -1.68,-44.618 0,0 15.201,3.212 18.723,-22.336 3.521,-25.549 -1.676,-43.002 -12.037,-52.364 -10.36,-9.362 -16.502,-8.707 -20.055,-5.792 0,0 6.449,-12.295 -5.525,-20.038 -11.973,-7.743 -36.875,-10.295 -40.432,-10.29 0,0 7.135,-2.531 13.572,-5.192 10.989,-4.543 18.59,-13.151 21.606,-19.533 6.947,-1.321 17.574,-6.253 29.433,-14.489 15.748,-10.935 25.196,-18.223 26.147,-31.804 0.951,-13.581 3.105,-32.742 -15.082,-32.232 -0.268,0.009 -0.535,0.016 -0.807,0.025"
       style="fill:none;stroke:#231f20;stroke-width:0.75;stroke-linecap:butt;stroke-linejoin:miter;stroke-miterlimit:4;stroke-dasharray:none;stroke-opacity:1"
       id="path732" />
    <path
       d="m 342.958,574.613 c 4.664,3.714 10.356,7.098 12.294,5.479 1.937,-1.618 -0.655,-6.142 -4.865,-10.663 -4.21,-4.52 -8.419,-8.395 -11.97,-4.833 -3.552,3.562 2.416,8.326 4.541,10.017 z"
       style="fill:none;stroke:#231f20;stroke-width:0.5;stroke-linecap:butt;stroke-linejoin:miter;stroke-miterlimit:4;stroke-dasharray:none;stroke-opacity:1"
       id="path734" />
    <path
       d="m 569.529,742.751 c 4.85,0.64 7.102,-6.477 2.251,-8.41 -4.854,-1.933 -7.104,7.771 -2.251,8.41"
       style="fill:#ffffff;fill-opacity:1;fill-rule:nonzero;stroke:none;stroke-width:0.1"
       id="path736" />
    <path
       d="m 569.529,742.751 c 4.85,0.64 7.102,-6.477 2.251,-8.41 -4.854,-1.933 -7.104,7.771 -2.251,8.41 z"
       style="fill:none;stroke:#231f20;stroke-width:0.75;stroke-linecap:butt;stroke-linejoin:miter;stroke-miterlimit:4;stroke-dasharray:none;stroke-opacity:1"
       id="path738" />
    <path
       d="m 631.586,498.142 c 0.172,2.322 7.127,9.126 13.588,5.236 6.463,-3.888 17.448,-8.754 21.651,-9.408 4.203,-0.652 8.728,-0.981 8.722,-5.508 -0.005,-4.525 -6.649,-7.694 -16.097,-7.818"
       style="fill:none;stroke:#231f20;stroke-width:0.5;stroke-linecap:butt;stroke-linejoin:miter;stroke-miterlimit:4;stroke-dasharray:none;stroke-opacity:1"
       id="path740" />
    <path
       d="m 761.861,476.701 c 10.349,0.168 22.632,-0.679 25.852,-8.766 3.223,-8.088 -2.931,-17.134 -11.99,-20.353 -9.058,-3.221 -26.179,-7.651 -32.328,3.601 -5.482,10.031 0.035,25.22 18.466,25.518 z"
       style="fill:none;stroke:#231f20;stroke-width:0.5;stroke-linecap:butt;stroke-linejoin:miter;stroke-miterlimit:4;stroke-dasharray:none;stroke-opacity:1"
       id="path742" />
    <path
       d="M 660.851,614.907 C 653.401,604.57 634.605,554.556 630.844,536.21"
       style="fill:none;stroke:#231f20;stroke-width:0.5;stroke-linecap:butt;stroke-linejoin:miter;stroke-miterlimit:4;stroke-dasharray:none;stroke-opacity:1"
       id="path744" />
    <path
       d="m 627.06,517.943 c 8.767,5.495 20.735,9.359 27.526,9.672 6.79,0.314 12.938,3.862 14.899,19.38 1.963,15.517 3.285,35.562 5.557,41.701 2.271,6.141 4.376,14.112 4.961,23.752"
       style="fill:none;stroke:#231f20;stroke-width:0.5;stroke-linecap:butt;stroke-linejoin:miter;stroke-miterlimit:4;stroke-dasharray:none;stroke-opacity:1"
       id="path746" />
    <path
       d="m 645.663,525.994 c 5.367,1.217 11.306,-0.113 13.607,-0.73 2.081,-0.557 6.301,-2.555 8.365,-0.86 2.063,1.694 5.306,3.734 6.719,4.589"
       style="fill:none;stroke:#231f20;stroke-width:0.5;stroke-linecap:butt;stroke-linejoin:miter;stroke-miterlimit:4;stroke-dasharray:none;stroke-opacity:1"
       id="path748" />
    <path
       d="m 629.604,512.79 c 3.221,3.296 13.051,9.951 19.961,8.851 6.91,-1.101 8.51,-4.211 9.344,-5.75"
       style="fill:none;stroke:#231f20;stroke-width:0.5;stroke-linecap:butt;stroke-linejoin:miter;stroke-miterlimit:4;stroke-dasharray:none;stroke-opacity:1"
       id="path750" />
    <path
       d="m 660.229,513.202 c 1.082,-2.127 1.565,-4.068 1.683,-6.008 0.12,-1.94 2.903,-5.581 8.97,-1.831 6.068,3.75 14.2,10.044 17.366,19.376 3.166,9.331 -3.13,15.645 -5.433,16.376 -1.387,0.44 -4.483,1.524 -4.733,-3.6"
       style="fill:none;stroke:#231f20;stroke-width:0.5;stroke-linecap:butt;stroke-linejoin:miter;stroke-miterlimit:4;stroke-dasharray:none;stroke-opacity:1"
       id="path752" />
    <path
       d="m 502.863,513.366 c 1.677,1.364 2.166,4.275 2.331,6.375"
       style="fill:none;stroke:#231f20;stroke-width:0.5;stroke-linecap:butt;stroke-linejoin:miter;stroke-miterlimit:4;stroke-dasharray:none;stroke-opacity:1"
       id="path754" />
    <path
       d="m 748.795,555.572 c 0.786,2.149 7.364,1.54 6.059,-2.676 -0.975,-3.151 -7.033,0.01 -6.059,2.676 z"
       style="fill:none;stroke:#231f20;stroke-width:0.5;stroke-linecap:butt;stroke-linejoin:miter;stroke-miterlimit:4;stroke-dasharray:none;stroke-opacity:1"
       id="path756" />
    <path
       d="m 755.577,549.257 c 7.007,1.076 6.922,7.265 7.29,10.539 0.368,3.273 -0.729,6.291 -3.505,8.25 -3.165,2.234 -4.846,3.159 -7.873,5.346 -2.069,1.493 -3.09,2.126 -4.846,3.645 -1.504,1.3 -3.269,2.914 -4.725,2.31 -1.457,-0.604 -2.924,-9.575 -1.355,-14.791 1.568,-5.216 6.402,-16.62 15.014,-15.299 z"
       style="fill:none;stroke:#231f20;stroke-width:0.5;stroke-linecap:butt;stroke-linejoin:miter;stroke-miterlimit:4;stroke-dasharray:none;stroke-opacity:1"
       id="path758" />
    <path
       d="m 625.147,565.545 c -0.745,-3.453 -1.033,-26.749 -0.482,-32.378"
       style="fill:none;stroke:#231f20;stroke-width:0.5;stroke-linecap:butt;stroke-linejoin:miter;stroke-miterlimit:4;stroke-dasharray:none;stroke-opacity:1"
       id="path760" />
    <path
       d="m 477.572,536.755 c -13.189,-4.213 -13.072,-4.17 -17.954,-6.602 -4.854,-2.419 -11.651,-7.745 -18.927,-8.381 -7.276,-0.635 -19.396,2.937 -18.255,9.403 1.141,6.465 11.505,9.158 13.768,9.107 3.543,-0.078 6.773,-2.508 15.987,-3.006 9.214,-0.498 20.664,-2.03 25.381,-0.521"
       style="fill:none;stroke:#231f20;stroke-width:0.5;stroke-linecap:butt;stroke-linejoin:miter;stroke-miterlimit:4;stroke-dasharray:none;stroke-opacity:1"
       id="path762" />
    <path
       d="m 474.445,726.881 c -0.456,-0.363 0.644,-1.456 10.812,-13.595 10.168,-12.14 25.825,-29.945 28.57,-32.374 2.745,-2.429 9.92,-12.141 11.135,-14.242 1.023,-1.771 2.258,-3.398 4.363,-1.3 2.105,2.099 2.275,8.242 -0.791,11.803 -3.067,3.561 -10.663,5.188 -14.377,8.75 -3.713,3.562 -24.213,26.224 -27.603,29.624 -3.39,3.4 -11.3,11.979 -12.109,11.334 z"
       style="fill:none;stroke:#231f20;stroke-width:0.5;stroke-linecap:butt;stroke-linejoin:miter;stroke-miterlimit:4;stroke-dasharray:none;stroke-opacity:1"
       id="path764" />
    <path
       d="m 698.327,477.275 c 1.916,-0.337 5.009,-0.653 7.919,-1.627 2.908,-0.974 14.221,-3.415 13.405,-8.911 -0.817,-5.496 -11.003,-6.775 -13.426,-5.801 -2.424,0.974 -3.391,2.915 -6.463,2.111 -3.072,-0.805 -5.01,1.462 -8.4,4.376 -3.391,2.915 -8.393,9.55 -6.773,12.782 1.621,3.232 7.766,-1.88 13.738,-2.93 z"
       style="fill:none;stroke:#231f20;stroke-width:0.5;stroke-linecap:butt;stroke-linejoin:miter;stroke-miterlimit:4;stroke-dasharray:none;stroke-opacity:1"
       id="path766" />
    <path
       d="m 691.489,479.642 c -2.287,0.943 -2.049,2.658 0.543,5.078 2.59,2.422 10.678,5.967 16.174,5.475 5.497,-0.492 11.634,-4.22 14.376,-9.882 2.74,-5.661 -4.695,-4.995 -7.443,-4.507 -2.748,0.488 -10.859,0.278 -15.075,1.194"
       style="fill:none;stroke:#231f20;stroke-width:0.5;stroke-linecap:butt;stroke-linejoin:miter;stroke-miterlimit:4;stroke-dasharray:none;stroke-opacity:1"
       id="path768" />
    <path
       d="m 833.512,615.957 c 7.272,-2.92 23.283,1.907 28.137,4.325 4.853,2.419 8.982,6.535 11.404,4.107 2.42,-2.429 11.453,-17.639 24.131,-27.276"
       style="fill:none;stroke:#231f20;stroke-width:0.5;stroke-linecap:butt;stroke-linejoin:miter;stroke-miterlimit:4;stroke-dasharray:none;stroke-opacity:1"
       id="path770" />
    <path
       d="m 895.43,672.13 c 0,0 7.44,3.465 15.123,5.475"
       style="fill:none;stroke:#231f20;stroke-width:0.5;stroke-linecap:butt;stroke-linejoin:miter;stroke-miterlimit:4;stroke-dasharray:none;stroke-opacity:1"
       id="path772" />
    <path
       d="m 830.19,667.372 c 13.588,5.073 25.244,17.182 31.072,23.236 5.83,6.054 12.395,17.928 17.012,25.923 4.619,7.997 9.236,14.86 15.545,17.357"
       style="fill:none;stroke:#231f20;stroke-width:0.5;stroke-linecap:butt;stroke-linejoin:miter;stroke-miterlimit:4;stroke-dasharray:none;stroke-opacity:1"
       id="path774" />
    <path
       d="m 815.446,702.312 c 5.353,11.876 30.133,44.577 50.279,57.16"
       style="fill:none;stroke:#231f20;stroke-width:0.5;stroke-linecap:butt;stroke-linejoin:miter;stroke-miterlimit:4;stroke-dasharray:none;stroke-opacity:1"
       id="path776" />
    <path
       d="m 807.989,745.487 c 4.385,12.847 8.519,21.894 14.113,33.122"
       style="fill:none;stroke:#231f20;stroke-width:0.5;stroke-linecap:butt;stroke-linejoin:miter;stroke-miterlimit:4;stroke-dasharray:none;stroke-opacity:1"
       id="path778" />
    <path
       d="m 759.659,749.273 c 1.028,-14.631 6.839,-21.43 5.85,-34.28 -0.987,-12.851 -0.296,-37.83 5.757,-44.871"
       style="fill:none;stroke:#231f20;stroke-width:0.5;stroke-linecap:butt;stroke-linejoin:miter;stroke-miterlimit:4;stroke-dasharray:none;stroke-opacity:1"
       id="path780" />
    <path
       d="m 819.348,591.997 c -0.535,0.496 12.836,-0.774 25.608,-1.438 12.769,-0.664 18.752,-1.967 19.724,-0.513 0.971,1.454 -0.644,3.073 -2.744,4.046 -2.1,0.972 -7.6,-0.474 -19.238,0.027 -11.641,0.501 -24.082,3.913 -27.94,20.732 -3.855,16.819 10.705,24.235 14.102,25.362 3.396,1.128 15.037,3.051 21.025,6.276 5.985,3.224 15.047,9.355 18.768,9.835 3.717,0.48 6.305,0.8 7.596,-1.466 1.291,-2.265 3.062,-5.824 6.617,-7.608 3.554,-1.782 11.109,-5.575 15.185,-7.943 3.526,-2.049 8.082,-6.789 7.6,0.636 -0.158,2.426 0.652,5.012 2.111,6.949 0,0 1.619,0.967 -9.052,0.821 -10.67,-0.146 -15.35,6.327 -18.575,13.445 -3.22,7.118 -0.463,15.035 5.369,22.626 5.83,7.59 12.309,16.634 13.446,18.735 0,0 0.978,5.98 -1.444,9.701 0,0 -0.818,-7.596 -3.732,-10.18 -2.914,-2.582 -8.418,-8.718 -15.225,-20.833 -6.808,-12.116 -12.634,-17.604 -20.08,-23.414 -7.445,-5.809 -37.529,-14.659 -42.523,-3.011 -4.994,11.647 7.803,30.059 17.189,38.129 9.391,8.069 19.422,14.199 23.475,21.63 4.051,7.432 11.502,18.09 17.648,19.86 0,0 -8.898,-4.029 -10.189,-3.381 -1.293,0.649 0.168,4.688 0.654,5.334 0,0 -16.029,-17.599 -27.527,-31.486 -11.498,-13.887 -31.072,-25.01 -37.69,-14.497 -5.806,9.223 5.541,30.871 12.502,37.812 6.961,6.942 22.178,21.632 26.065,25.669 3.885,4.036 5.181,5.65 3.404,7.27 -1.775,1.619 -5.494,0.978 -9.543,-4.19 -4.051,-5.167 -8.91,-11.465 -13.277,-14.531 -4.371,-3.066 -11.823,-14.048 -18.447,-11.453 -6.624,2.596 -9.042,9.229 -8.385,15.371 0.656,6.142 0.826,12.447 -0.307,12.61 -1.129,0.163 -3.076,-3.39 -2.115,-10.02 0.963,-6.63 -1.299,-4.364 1.113,-12.935 2.414,-8.572 5.479,-14.234 2.563,-18.757 -2.916,-4.523 -5.192,-12.602 -6.344,-27.151 -1.154,-14.548 -4.729,-28.447 -13.787,-30.697 -9.055,-2.25 -17.778,2.45 -23.58,14.26 -5.805,11.809 -4.338,20.861 -5.135,28.298 -0.799,7.438 -3.375,14.07 -4.346,13.748 -0.971,-0.321 4.018,-17.143 1.907,-24.253 -2.113,-7.11 -4.215,-7.754 -4.702,-8.238 -0.486,-0.484 -0.486,-0.969 0.482,-2.426 0.968,-1.456 13.071,-16.831 15.975,-20.716 2.906,-3.883 4.193,-8.25 -1.15,-14.224 -5.344,-5.974 -12.137,-8.552 -17.798,-9.352 -5.657,-0.8 -14.224,1.313 -14.711,-0.141 -0.487,-1.454 4.362,-1.947 9.859,-1.954 5.498,-0.008 9.539,0.632 8.722,-4.863 0,0 0.244,-0.864 -1.988,-2.147"
       style="fill:none;stroke:#231f20;stroke-width:0.5;stroke-linecap:butt;stroke-linejoin:miter;stroke-miterlimit:4;stroke-dasharray:none;stroke-opacity:1"
       id="path782" />
    <path
       d="m 745,443.3 c 6.303,-0.857 18.547,-2.572 29.704,-1.497 11.156,1.076 20.007,1.064 28.375,1.9 8.367,0.837 18.224,5.031 36.029,1.265"
       style="fill:none;stroke:#231f20;stroke-width:0.5;stroke-linecap:butt;stroke-linejoin:miter;stroke-miterlimit:4;stroke-dasharray:none;stroke-opacity:1"
       id="path784" />
    <path
       d="m 686.846,476.847 c 0,-0.468 -0.381,-0.847 -0.849,-0.847 -0.468,10e-4 -0.848,0.38 -0.848,0.849 10e-4,0.468 0.383,0.848 0.851,0.847 0.467,-0.001 0.848,-0.381 0.846,-0.849"
       style="fill:#231f20;fill-opacity:1;fill-rule:nonzero;stroke:none;stroke-width:0.1"
       id="path786" />
    <path
       d="m 726.455,462.373 c -0.001,-0.463 -0.376,-0.836 -0.839,-0.836 -0.463,0.001 -0.839,0.376 -0.838,0.839 10e-4,0.463 0.377,0.837 0.84,0.836 0.463,0 0.838,-0.377 0.837,-0.839"
       style="fill:#231f20;fill-opacity:1;fill-rule:nonzero;stroke:none;stroke-width:0.1"
       id="path788" />
    <path
       d="m 734.356,461.988 c 0,-0.469 -0.382,-0.848 -0.85,-0.846 -0.468,0 -0.847,0.381 -0.847,0.848 0,0.468 0.383,0.847 0.849,0.847 0.469,0 0.849,-0.381 0.848,-0.849"
       style="fill:#231f20;fill-opacity:1;fill-rule:nonzero;stroke:none;stroke-width:0.1"
       id="path790" />
    <path
       d="m 737.627,460.285 c 0,-0.469 -0.378,-0.848 -0.849,-0.846 -0.468,0 -0.849,0.381 -0.848,0.85 0.001,0.468 0.382,0.845 0.85,0.845 0.47,0 0.848,-0.381 0.847,-0.849"
       style="fill:#231f20;fill-opacity:1;fill-rule:nonzero;stroke:none;stroke-width:0.1"
       id="path792" />
    <path
       d="m 740.899,458.462 c -0.002,-0.468 -0.381,-0.848 -0.85,-0.847 -0.468,10e-4 -0.849,0.381 -0.847,0.849 0,0.469 0.38,0.85 0.849,0.848 0.469,0 0.848,-0.381 0.848,-0.85"
       style="fill:#231f20;fill-opacity:1;fill-rule:nonzero;stroke:none;stroke-width:0.1"
       id="path794" />
    <path
       d="m 715.797,456.194 c -0.002,-0.468 -0.382,-0.848 -0.851,-0.847 -0.467,0.001 -0.848,0.381 -0.846,0.849 0,0.468 0.381,0.847 0.85,0.846 0.466,0 0.847,-0.38 0.847,-0.848"
       style="fill:#231f20;fill-opacity:1;fill-rule:nonzero;stroke:none;stroke-width:0.1"
       id="path796" />
    <path
       d="m 716.044,459.831 c 0,-0.468 -0.381,-0.848 -0.85,-0.847 -0.467,0 -0.848,0.381 -0.848,0.85 0.002,0.467 0.383,0.846 0.85,0.846 0.469,-0.001 0.849,-0.382 0.848,-0.849"
       style="fill:#231f20;fill-opacity:1;fill-rule:nonzero;stroke:none;stroke-width:0.1"
       id="path798" />
    <path
       d="m 714.475,464.683 c 0,-0.469 -0.381,-0.849 -0.849,-0.848 -0.469,0.001 -0.848,0.381 -0.848,0.85 0,0.469 0.382,0.85 0.849,0.848 0.471,0 0.848,-0.381 0.848,-0.85"
       style="fill:#231f20;fill-opacity:1;fill-rule:nonzero;stroke:none;stroke-width:0.1"
       id="path800" />
    <path
       d="m 715.332,470.745 c 0,-0.468 -0.382,-0.848 -0.849,-0.847 -0.469,10e-4 -0.849,0.381 -0.849,0.849 10e-4,0.467 0.383,0.848 0.851,0.846 0.469,0 0.847,-0.381 0.847,-0.848"
       style="fill:#231f20;fill-opacity:1;fill-rule:nonzero;stroke:none;stroke-width:0.1"
       id="path802" />
    <path
       d="m 718.119,469.164 c -10e-4,-0.469 -0.38,-0.848 -0.85,-0.847 -0.468,0 -0.849,0.381 -0.848,0.849 10e-4,0.47 0.382,0.847 0.85,0.847 0.47,0 0.849,-0.381 0.848,-0.849"
       style="fill:#231f20;fill-opacity:1;fill-rule:nonzero;stroke:none;stroke-width:0.1"
       id="path804" />
    <path
       d="m 684.903,474.061 c 0,-0.469 -0.38,-0.848 -0.85,-0.847 -0.468,10e-4 -0.847,0.38 -0.847,0.849 10e-4,0.47 0.38,0.849 0.849,0.847 0.47,0 0.849,-0.379 0.848,-0.849"
       style="fill:#231f20;fill-opacity:1;fill-rule:nonzero;stroke:none;stroke-width:0.1"
       id="path806" />
    <path
       d="m 685.87,471.029 c -0.002,-0.47 -0.381,-0.848 -0.852,-0.847 -0.468,0 -0.846,0.38 -0.845,0.849 0,0.469 0.38,0.847 0.849,0.847 0.469,-0.002 0.848,-0.38 0.848,-0.849"
       style="fill:#231f20;fill-opacity:1;fill-rule:nonzero;stroke:none;stroke-width:0.1"
       id="path808" />
    <path
       d="m 673.741,555.395 c 0,-0.47 -0.381,-0.848 -0.85,-0.847 -0.469,0 -0.847,0.38 -0.847,0.849 10e-4,0.469 0.38,0.847 0.849,0.847 0.469,-10e-4 0.85,-0.381 0.848,-0.849"
       style="fill:#231f20;fill-opacity:1;fill-rule:nonzero;stroke:none;stroke-width:0.1"
       id="path810" />
    <path
       d="m 673.895,550.868 c 0,-0.469 -0.381,-0.847 -0.85,-0.847 -0.468,0.001 -0.847,0.381 -0.847,0.85 0.002,0.469 0.381,0.847 0.851,0.846 0.467,0 0.848,-0.38 0.846,-0.849"
       style="fill:#231f20;fill-opacity:1;fill-rule:nonzero;stroke:none;stroke-width:0.1"
       id="path812" />
    <path
       d="m 677.411,555.115 c 0,-0.469 -0.383,-0.848 -0.85,-0.847 -0.471,10e-4 -0.849,0.38 -0.848,0.849 0,0.469 0.38,0.847 0.85,0.847 0.469,-0.001 0.848,-0.38 0.848,-0.849"
       style="fill:#231f20;fill-opacity:1;fill-rule:nonzero;stroke:none;stroke-width:0.1"
       id="path814" />
    <path
       d="m 677.565,550.588 c 0,-0.468 -0.381,-0.847 -0.85,-0.846 -0.469,0.001 -0.848,0.38 -0.847,0.849 10e-4,0.469 0.38,0.847 0.849,0.846 0.469,-10e-4 0.85,-0.38 0.848,-0.849"
       style="fill:#231f20;fill-opacity:1;fill-rule:nonzero;stroke:none;stroke-width:0.1"
       id="path816" />
    <path
       d="m 705.021,467.243 c -10e-4,-0.469 -0.382,-0.849 -0.85,-0.848 -0.467,0.001 -0.848,0.381 -0.848,0.85 0.002,0.468 0.383,0.848 0.85,0.847 0.468,-10e-4 0.849,-0.38 0.848,-0.849"
       style="fill:#231f20;fill-opacity:1;fill-rule:nonzero;stroke:none;stroke-width:0.1"
       id="path818" />
    <path
       d="m 395.151,712.863 c -2.087,-7.058 -4.726,-16.707 -6.998,-16.497 -2.667,0.246 -3.619,13.342 -10.88,23.295 -7.261,9.953 -8.718,8.257 -10.174,7.532 -1.456,-0.725 0.471,-9.701 3.616,-15.282 3.145,-5.582 7.419,-17.019 8.445,-30.083 0.477,-6.063 -0.99,-14.306 -3.656,-13.089 -2.314,1.055 -4.809,2.658 -6.816,-1.288 -0.949,-2.339 0.011,-9.373 3.886,-13.015 3.875,-3.644 15.256,-15.542 13.55,-21.36 -1.706,-5.817 -8.763,-23.268 -3.927,-33.459 4.835,-10.192 4.587,-14.315 24.451,-29.378 19.864,-15.062 29.554,-22.109 51.129,-27.474 21.575,-5.365 38.057,-11.451 39.511,-12.181 1.454,-0.729 3.152,-0.003 9.215,0.473 6.063,0.476 20.13,1.911 28.613,-1.495"
       style="fill:none;stroke:#231f20;stroke-width:0.5;stroke-linecap:butt;stroke-linejoin:miter;stroke-miterlimit:4;stroke-dasharray:none;stroke-opacity:1"
       id="path820" />
    <path
       d="m 380.206,746.396 c 1.782,-0.455 3.176,-0.964 4.135,-1.525 5.815,-3.403 14.035,-21.845 11.843,-28.631 -0.325,-1.005 -0.67,-2.152 -1.033,-3.377 -1.744,-5.879 1.211,-10.522 2.602,-6.49 5.556,16.129 14.84,42.809 19.591,54.457 -4.858,-5.571 -26.935,-12.33 -37.138,-14.434"
       style="fill:#706d6e;fill-opacity:1;fill-rule:nonzero;stroke:none;stroke-width:0.1"
       id="path822" />
    <path
       d="m 380.206,746.396 c 1.782,-0.455 3.176,-0.964 4.135,-1.525 5.815,-3.403 14.035,-21.845 11.843,-28.631 -0.325,-1.005 -0.67,-2.152 -1.033,-3.377 -1.744,-5.879 1.211,-10.522 2.602,-6.49 5.556,16.129 14.84,42.809 19.591,54.457 -4.858,-5.571 -26.935,-12.33 -37.138,-14.434 z"
       style="fill:none;stroke:#231f20;stroke-width:0.75;stroke-linecap:butt;stroke-linejoin:miter;stroke-miterlimit:4;stroke-dasharray:none;stroke-opacity:1"
       id="path824" />
    <path
       d="m 223.606,544.873 c 0,0 31.445,-6.004 37.982,-6.439 5.578,-0.372 0.38,11.397 -1.189,16.491 -1.569,5.095 -8.933,28.143 -10.383,31.782 -1.45,3.64 -1.81,5.581 0.138,11.64 1.949,6.06 15.934,36.111 8.469,72.738 -7.467,36.629 -8.671,42.45 9.29,53.823 17.961,11.371 46.589,20.546 67.69,22.699 17.621,1.798 35.745,1.058 44.631,-1.217"
       style="fill:none;stroke:#231f20;stroke-width:0.5;stroke-linecap:butt;stroke-linejoin:miter;stroke-miterlimit:4;stroke-dasharray:none;stroke-opacity:1"
       id="path826" />
    <path
       d="m 473.702,734.98 c -10.242,-2.632 -18.557,-2.564 -32.147,-1.83 -18.429,0.996 -21.572,7.79 -22.291,13.854 -0.719,6.064 4.437,21.191 15.562,29.806 11.125,8.614 28.641,18.632 38.346,22.014 21.687,7.555 39.297,8.432 57.483,7.436 18.186,-0.995 49.198,-21.409 63.253,-28.219 14.055,-6.81 14.302,-4.142 20.854,-0.757 6.552,3.386 28.154,16.694 38.825,17.648 10.671,0.955 15.521,0.706 15.525,3.859 0.005,3.152 -20.846,6.091 -28.606,6.83 -7.757,0.738 -38.552,2.964 -60.373,6.147 -21.821,3.183 -54.066,8.079 -81.228,6.662 -27.162,-1.417 -37.114,-8.436 -74.98,-33.117 -37.864,-24.682 -73.99,-20.267 -117.649,-26.268 -43.658,-6 -61.618,-16.403 -69.142,-21.242 -7.525,-4.839 -9.487,-20.599 -1.993,-37.584 7.493,-16.986 19.828,-40.526 24.607,-66.568"
       style="fill:none;stroke:#231f20;stroke-width:0.5;stroke-linecap:butt;stroke-linejoin:miter;stroke-miterlimit:4;stroke-dasharray:none;stroke-opacity:1"
       id="path828" />
    <path
       d="m 417.344,760.83 c 4.858,5.57 18.462,23.011 37.147,32.2 18.686,9.189 40.762,15.463 57.253,15.924 16.49,0.462 26.429,-1.977 45.337,-7.339 18.908,-5.361 55.281,-7.352 68.861,-6.644"
       style="fill:none;stroke:#231f20;stroke-width:0.5;stroke-linecap:butt;stroke-linejoin:miter;stroke-miterlimit:4;stroke-dasharray:none;stroke-opacity:1"
       id="path830" />
    <path
       d="m 555.895,801.951 c 13.545,-6.415 40.439,-22.701 46.984,-24.408"
       style="fill:none;stroke:#231f20;stroke-width:0.5;stroke-linecap:butt;stroke-linejoin:miter;stroke-miterlimit:4;stroke-dasharray:none;stroke-opacity:1"
       id="path832" />
    <path
       d="m 397.742,706.34 c -1.847,-5.362 -3.286,-9.566 -4.014,-11.679 1.251,-2.476 4.257,-4.317 7.448,-5.683 3.769,-1.409 12.191,3.23 16.32,7.832 1.296,1.695 2.052,3.193 3.156,2.663 0,0 4.387,15.028 12.882,20.837 8.496,5.808 23.051,9.182 37.6,8.918 14.55,-0.262 29.104,2.385 38.076,2.372 6.134,-0.009 15.326,-1.495 24.248,-1.975"
       style="fill:none;stroke:#231f20;stroke-width:0.75;stroke-linecap:butt;stroke-linejoin:miter;stroke-miterlimit:4;stroke-dasharray:none;stroke-opacity:1"
       id="path834" />
    <path
       d="m 393.728,694.661 c -2.922,-8.484 -4.152,-20.85 0.694,-23.524 4.847,-2.674 12.614,2.165 15.531,7.496 2.918,5.33 3.404,6.3 0.495,7.274 -1.574,0.528 -5.548,1.467 -9.292,3.075"
       style="fill:none;stroke:#231f20;stroke-width:0.5;stroke-linecap:butt;stroke-linejoin:miter;stroke-miterlimit:4;stroke-dasharray:none;stroke-opacity:1"
       id="path836" />
    <path
       d="m 417.496,696.81 -5.1,-12.596"
       style="fill:none;stroke:#231f20;stroke-width:0.5;stroke-linecap:butt;stroke-linejoin:miter;stroke-miterlimit:4;stroke-dasharray:none;stroke-opacity:1"
       id="path838" />
    <path
       d="m 407.641,675.516 c -8.618,-9.478 -11.534,-13.03 -10.903,-24.348 0.632,-11.318 4.477,-35.249 15.452,-48.522 10.975,-13.272 21.321,-13.287 35.21,-23.976 13.889,-10.69 25.197,-16.203 34.566,-21.389 9.37,-5.186 12.923,-8.425 23.913,-10.381 10.99,-1.955 21.656,-5.202 25.21,-7.471 3.553,-2.269 7.431,-3.567 11.313,-1.956 3.883,1.611 7.118,3.87 10.678,5.158 3.558,1.288 16.17,3.211 22.641,5.465 6.469,2.254 9.387,7.423 11.655,10.33 2.268,2.907 3.888,5.492 7.444,6.133 3.559,0.642 6.791,0.637 7.764,2.253 0,0 5.584,-2.929 6.822,-9.069"
       style="fill:none;stroke:#231f20;stroke-width:0.5;stroke-linecap:butt;stroke-linejoin:miter;stroke-miterlimit:4;stroke-dasharray:none;stroke-opacity:1"
       id="path840" />
    <path
       d="m 511.633,557.482 c -0.974,-2.909 -0.452,-8.04 0.248,-11.78"
       style="fill:none;stroke:#231f20;stroke-width:0.5;stroke-linecap:butt;stroke-linejoin:miter;stroke-miterlimit:4;stroke-dasharray:none;stroke-opacity:1"
       id="path842" />
    <path
       d="m 567.32,747.032 c 2.88,-1.769 6.306,-3.139 10.534,-3.403 9.959,-0.624 19.578,-0.566 31.291,-1.257 -7.004,0.491 -13.266,-0.466 -20.381,-1.103 -7.113,-0.636 -10.675,-3.541 -12.133,-5.156 -1.457,-1.615 -8.089,-5 -11.002,-6.775 -2.912,-1.774 -4.536,-6.46 -3.601,-11.657 -0.212,0.245 -0.444,0.495 -0.699,0.752 -4.36,4.37 -10.422,3.894 -12.362,3.897 -1.939,0.002 -4.604,2.189 -7.269,3.89 -2.665,1.701 -5.086,3.284 -8.234,3.405 4.122,-0.222 8.193,-0.229 11.876,0.227 11.643,1.438 22.362,6.491 21.98,17.18 z"
       style="fill:none;stroke:#231f20;stroke-width:0.75;stroke-linecap:butt;stroke-linejoin:miter;stroke-miterlimit:4;stroke-dasharray:none;stroke-opacity:1"
       id="path844" />
    <path
       d="m 442.874,590.924 c 5.275,3.022 24.684,9.542 36.329,12.921 11.645,3.379 25.473,7.239 30.563,5.777 5.09,-1.462 12.603,-5.352 16.479,-8.268 3.875,-2.916 6.538,-6.557 5.81,-7.283 -0.729,-0.727 -6.54,5.829 -12.114,8.504 -5.573,2.675 -10.907,3.41 -23.036,0.76 -12.129,-2.65 -33.964,-9.652 -38.089,-11.102 -4.124,-1.448 -8.485,-2.634 -13.823,-2.637"
       style="fill:none;stroke:#231f20;stroke-width:0.5;stroke-linecap:butt;stroke-linejoin:miter;stroke-miterlimit:4;stroke-dasharray:none;stroke-opacity:1"
       id="path846" />
    <path
       d="m 670.123,754.862 c 10.631,0.739 19.236,-4.772 23.573,-7.758"
       style="fill:none;stroke:#231f20;stroke-width:0.75;stroke-linecap:butt;stroke-linejoin:miter;stroke-miterlimit:4;stroke-dasharray:none;stroke-opacity:1"
       id="path848" />
    <path
       d="m 670.133,754.864 c -2.159,-0.148 -4.41,-0.559 -6.728,-1.305 -17.645,-5.687 -28.423,-26.258 -30.045,-29.327 -1.621,-3.069 -4.213,-7.754 -6.799,-5.81 -2.582,1.943 -1.125,3.234 -0.088,4.881 0.703,0.493 1.067,1.422 1.878,2.552 1.619,2.262 1.306,7.92 -2.895,10.998 -4.2,3.078 -9.288,5.024 -16.311,5.519 2.25,-0.134 4.59,-0.295 7.023,-0.495 15.033,-1.233 21.341,1.667 29.35,5.294 8.007,3.626 14.923,6.769 24.615,7.693 z"
       style="fill:none;stroke:#231f20;stroke-width:0.75;stroke-linecap:butt;stroke-linejoin:miter;stroke-miterlimit:4;stroke-dasharray:none;stroke-opacity:1"
       id="path850" />
    <path
       d="m 464.876,762.703 c 5.584,4.114 19.656,9.187 29.358,11.113 9.703,1.927 23.529,4.332 34.677,-1.261 11.147,-5.593 21.32,-13.368 26.409,-16.042 3.278,-1.723 6.753,-6.264 11.987,-9.476"
       style="fill:none;stroke:#231f20;stroke-width:0.5;stroke-linecap:butt;stroke-linejoin:miter;stroke-miterlimit:4;stroke-dasharray:none;stroke-opacity:1"
       id="path852" />
    <path
       d="m 473.702,734.982 -2.568,-5.754"
       style="fill:none;stroke:#231f20;stroke-width:0.5;stroke-linecap:butt;stroke-linejoin:miter;stroke-miterlimit:4;stroke-dasharray:none;stroke-opacity:1"
       id="path854" />
    <path
       d="m 626.489,723.312 c -0.688,-0.484 -1.7,-0.523 -3.801,0.126 -4.199,1.3 -19.713,6.009 -29.092,5.376 -9.377,-0.633 -18.279,-7.896 -21.515,-10.639 -3.239,-2.744 -5.862,-5.265 -5.862,-5.265"
       style="fill:none;stroke:#231f20;stroke-width:0.5;stroke-linecap:butt;stroke-linejoin:miter;stroke-miterlimit:4;stroke-dasharray:none;stroke-opacity:1"
       id="path856" />
    <path
       d="m 563.684,714.143 c 2.568,-1.134 5.801,-2.108 8.052,-10.356"
       style="fill:none;stroke:#231f20;stroke-width:0.5;stroke-linecap:butt;stroke-linejoin:miter;stroke-miterlimit:4;stroke-dasharray:none;stroke-opacity:1"
       id="path858" />
    <path
       d="m 627.567,717.984 c -0.373,-11.042 0.908,-18.642 -12.863,-39.801 -13.77,-21.159 -29.318,-40.699 -31.746,-43.121 -2.428,-2.421 -4.37,-2.741 -6.309,-3.062 -1.941,-0.321 -4.53,-1.125 -5.654,3.403 -1.126,4.528 -2.57,12.937 -2.709,28.781 -0.14,15.843 2.802,38.957 4.103,43.805 0,0 4.834,5.488 16.988,8.383 19.567,4.661 38.19,1.612 38.19,1.612 z"
       style="fill:none;stroke:#231f20;stroke-width:0.5;stroke-linecap:butt;stroke-linejoin:miter;stroke-miterlimit:4;stroke-dasharray:none;stroke-opacity:1"
       id="path860" />
    <path
       d="m 695.728,622.312 c 3.064,-3.847 7.562,-7.082 14.106,-9.091 8.726,-2.68 16.755,-0.227 21.102,3.122 5.341,4.116 8.148,12.145 5.653,11.081"
       style="fill:none;stroke:#231f20;stroke-width:0.5;stroke-linecap:butt;stroke-linejoin:miter;stroke-miterlimit:4;stroke-dasharray:none;stroke-opacity:1"
       id="path862" />
    <path
       d="m 716.292,722.498 c -3.414,-13.737 -16.092,-61.976 -19.5,-71.429 -3.409,-9.453 -5.664,-20.899 -3.672,-24.73 0.725,-1.395 1.588,-2.745 2.608,-4.027"
       style="fill:none;stroke:#231f20;stroke-width:0.75;stroke-linecap:butt;stroke-linejoin:miter;stroke-miterlimit:4;stroke-dasharray:none;stroke-opacity:1"
       id="path864" />
    <path
       d="m 699.35,659.255 c -13.595,-10.165 -24.864,-5.567 -38.443,-4.901 -13.579,0.665 -25.873,-4.653 -30.728,-8.041 -4.854,-3.388 -11.652,-8.391 -14.555,-4.021 -2.905,4.369 0.661,10.831 3.42,17.778 2.757,6.948 4.076,24.729 5.341,36.183"
       style="fill:none;stroke:#231f20;stroke-width:0.5;stroke-linecap:butt;stroke-linejoin:miter;stroke-miterlimit:4;stroke-dasharray:none;stroke-opacity:1"
       id="path866" />
    <path
       d="m 702.737,671.214 c 2.484,-4.637 3.129,-5.77 1.347,-7.384 -1.778,-1.613 -4.734,-4.575 -4.734,-4.575"
       style="fill:none;stroke:#231f20;stroke-width:0.75;stroke-linecap:butt;stroke-linejoin:miter;stroke-miterlimit:4;stroke-dasharray:none;stroke-opacity:1"
       id="path868" />
    <path
       d="m 705.021,665.178 c 3.591,-2.162 6.502,-1.681 10.381,-1.848 3.88,-0.167 4.525,-0.815 10.18,-3.248 5.655,-2.433 10.862,-5.672 18.743,-7.302"
       style="fill:none;stroke:#231f20;stroke-width:0.5;stroke-linecap:butt;stroke-linejoin:miter;stroke-miterlimit:4;stroke-dasharray:none;stroke-opacity:1"
       id="path870" />
    <path
       d="m 695.986,622.005 c -2.79,0.454 -6.347,0.136 -6.835,-2.45 -0.489,-2.586 1.447,-5.336 12.113,-8.1 10.666,-2.764 22.117,-6.442 27.154,-4.081 5.5,2.58 7.114,8.424 6.399,13.02"
       style="fill:none;stroke:#231f20;stroke-width:0.5;stroke-linecap:butt;stroke-linejoin:miter;stroke-miterlimit:4;stroke-dasharray:none;stroke-opacity:1"
       id="path872" />
    <path
       d="m 885.53,543.676 c -11.154,0.986 -28.668,4.832 -47.75,2.758 -19.078,-2.075 -24.578,-2.39 -36.059,-4.96 -11.48,-2.572 -13.379,-4.087 -22.99,-1.428 -7.635,2.113 -8.127,4.098 -8.123,6.28 0.002,1.49 0.247,3.88 5.908,4.721 5.6,0.832 15.686,4.181 25.713,5.784 10.025,1.603 17.139,2.724 22.961,3.362 5.82,0.639 21.623,3.462 30.701,4.855"
       style="fill:none;stroke:#231f20;stroke-width:0.5;stroke-linecap:butt;stroke-linejoin:miter;stroke-miterlimit:4;stroke-dasharray:none;stroke-opacity:1"
       id="path874" />
    <path
       d="m 762.555,563.655 c 3.947,-4.834 7.094,-8.961 19.1,-7.28 12.006,1.68 25.107,5.542 28.867,6.507 3.76,0.964 9.221,4.228 11.637,-3.049"
       style="fill:none;stroke:#231f20;stroke-width:0.5;stroke-linecap:butt;stroke-linejoin:miter;stroke-miterlimit:4;stroke-dasharray:none;stroke-opacity:1"
       id="path876" />
    <path
       d="m 730.54,608.679 c 0,0 6.382,-10.097 8.323,-12.355 2.154,-2.298 4.12,-5.408 5.211,-7.564 2.252,-4.459 5.803,-11.001 10.442,-17.458"
       style="fill:none;stroke:#231f20;stroke-width:0.5;stroke-linecap:butt;stroke-linejoin:miter;stroke-miterlimit:4;stroke-dasharray:none;stroke-opacity:1"
       id="path878" />
    <path
       d="m 734.29,614.03 c 2.542,-1.655 4.665,-3.185 7.714,-2.148 4.728,1.61 13.498,3.708 26.774,17.269"
       style="fill:none;stroke:#231f20;stroke-width:0.5;stroke-linecap:butt;stroke-linejoin:miter;stroke-miterlimit:4;stroke-dasharray:none;stroke-opacity:1"
       id="path880" />
    <path
       d="m 801.922,578.098 c -5.588,1.045 -13.244,2.221 -20.994,7.701 -9.849,6.966 -11.626,9.392 -14.203,15.54 -2.504,5.968 -2.56,16.809 2.038,27.786"
       style="fill:none;stroke:#231f20;stroke-width:0.5;stroke-linecap:butt;stroke-linejoin:miter;stroke-miterlimit:4;stroke-dasharray:none;stroke-opacity:1"
       id="path882" />
    <path
       d="m 801.909,578.101 c 10.058,7.008 5.865,13.319 1.078,18.565 2.545,-2.176 5.453,-3.987 11.226,-4.068 -1.144,-0.095 -1.75,-0.78 -0.783,-2.803 1.934,-4.045 8.008,-11.16 25.819,-19.596 -3.407,0.667 -7.598,1.239 -13.073,1.633 -13.74,0.989 -14.707,3.739 -20.201,5.363 -1.172,0.347 -2.537,0.621 -4.066,0.906"
       style="fill:#706d6e;fill-opacity:1;fill-rule:nonzero;stroke:none;stroke-width:0.1"
       id="path884" />
    <path
       d="m 801.909,578.101 c 10.058,7.008 5.865,13.319 1.078,18.565 2.545,-2.176 5.453,-3.987 11.226,-4.068 -1.144,-0.095 -1.75,-0.78 -0.783,-2.803 1.934,-4.045 8.008,-11.16 25.819,-19.596 -3.407,0.667 -7.598,1.239 -13.073,1.633 -13.74,0.989 -14.707,3.739 -20.201,5.363 -1.172,0.347 -2.537,0.621 -4.066,0.906 z"
       style="fill:none;stroke:#231f20;stroke-width:0.75;stroke-linecap:butt;stroke-linejoin:miter;stroke-miterlimit:4;stroke-dasharray:none;stroke-opacity:1"
       id="path886" />
    <path
       d="m 851.227,566.785 c -3.402,1.172 -6.803,2.402 -11.967,3.411"
       style="fill:none;stroke:#231f20;stroke-width:0.75;stroke-linecap:butt;stroke-linejoin:miter;stroke-miterlimit:4;stroke-dasharray:none;stroke-opacity:1"
       id="path888" />
    <path
       d="m 819.35,591.998 c -1.746,0.271 -3.709,0.731 -4.996,0.619"
       style="fill:none;stroke:#231f20;stroke-width:0.5;stroke-linecap:butt;stroke-linejoin:miter;stroke-miterlimit:4;stroke-dasharray:none;stroke-opacity:1"
       id="path890" />
    <path
       d="m 812.834,469.486 c 0,-0.462 -0.376,-0.838 -0.837,-0.836 -0.463,0 -0.838,0.375 -0.836,0.838 0,0.463 0.375,0.838 0.838,0.838 0.462,-0.002 0.835,-0.377 0.835,-0.84"
       style="fill:#231f20;fill-opacity:1;fill-rule:nonzero;stroke:none;stroke-width:0.1"
       id="path892" />
    <path
       d="m 820.635,469.597 c -0.002,-0.462 -0.377,-0.836 -0.84,-0.836 -0.464,10e-4 -0.837,0.377 -0.837,0.84 0,0.463 0.376,0.837 0.839,0.836 0.463,0 0.838,-0.376 0.838,-0.84"
       style="fill:#231f20;fill-opacity:1;fill-rule:nonzero;stroke:none;stroke-width:0.1"
       id="path894" />
    <path
       d="m 802.778,469.212 c -0.002,-0.462 -0.377,-0.838 -0.84,-0.838 -0.463,0.002 -0.838,0.377 -0.836,0.84 0,0.462 0.375,0.837 0.838,0.836 0.463,0 0.838,-0.376 0.838,-0.838"
       style="fill:#231f20;fill-opacity:1;fill-rule:nonzero;stroke:none;stroke-width:0.1"
       id="path896" />
    <path
       d="M 627.002,706.431 C 605.918,696.06 581.639,677.118 568.346,660.401"
       style="fill:none;stroke:#231f20;stroke-width:0.5;stroke-linecap:butt;stroke-linejoin:miter;stroke-miterlimit:4;stroke-dasharray:none;stroke-opacity:1"
       id="path898" />
    <path
       d="m 661.965,716.755 c 8.35,0.971 19.713,-6.818 18.393,-26.216 -1.319,-19.398 -14.271,-31.667 -21.061,-31.657 -6.79,0.009 -12.923,8.101 -13.215,29.765 -0.292,21.664 10.385,27.469 15.883,28.108 z"
       style="fill:none;stroke:#231f20;stroke-width:0.5;stroke-linecap:round;stroke-linejoin:round;stroke-miterlimit:4;stroke-dasharray:2.8, 1.8;stroke-dashoffset:0;stroke-opacity:1"
       id="path900" />
    <path
       d="m 429.29,575.785 c 3.039,5.128 13.254,-0.666 21.654,-6.174 8.399,-5.508 17.766,-11.989 13.877,-18.45 -3.889,-6.46 -19.4,-0.619 -24.891,3.592 -5.491,4.211 -14.853,13.925 -10.64,21.032 z"
       style="fill:none;stroke:#231f20;stroke-width:0.5;stroke-linecap:round;stroke-linejoin:round;stroke-miterlimit:4;stroke-dasharray:2.8, 1.8;stroke-dashoffset:0;stroke-opacity:1"
       id="path902" />
    <path
       d="m 358.098,534.821 c 9.981,3.088 26.841,2.874 28.446,-5.535 1.605,-8.41 -2.604,-12.285 -15.545,-17.763 -12.941,-5.478 -27.495,-8.043 -30.39,2.307 -2.896,10.35 13.587,19.784 17.489,20.991 z"
       style="fill:none;stroke:#231f20;stroke-width:0.5;stroke-linecap:round;stroke-linejoin:round;stroke-miterlimit:4;stroke-dasharray:2.8, 1.8;stroke-dashoffset:0;stroke-opacity:1"
       id="path904" />
    <path
       d="m 552.014,704.299 c 3.805,-0.883 2.568,-12.937 2.879,-21.667 0.311,-8.73 4.174,-22.317 8.689,-29.759 4.516,-7.443 7.069,-30.405 -1.341,-32.979 -8.409,-2.574 -16.489,0.994 -23.261,13.938 -6.77,12.942 -9.984,27.172 -4.466,43.008 5.52,15.836 13.297,28.435 17.5,27.459 z"
       style="fill:none;stroke:#231f20;stroke-width:0.5;stroke-linecap:round;stroke-linejoin:round;stroke-miterlimit:4;stroke-dasharray:2.8, 1.8;stroke-dashoffset:0;stroke-opacity:1"
       id="path906" />
    <path
       d="m 636.836,552.213 c 5.93,12.74 10.375,20.356 18.138,22.285 7.763,1.929 15.526,4.828 12.933,-1.636 -2.596,-6.463 -4.544,-12.28 -4.231,-18.1 0.317,-5.821 0.625,-15.198 -6.489,-17.127 -7.117,-1.93 -19.085,-5.469 -22.97,-9.668 -3.886,-4.198 -6.469,-0.637 -4.196,5.826 2.273,6.463 3.087,10.412 6.815,18.42 z"
       style="fill:none;stroke:#231f20;stroke-width:0.5;stroke-linecap:round;stroke-linejoin:round;stroke-miterlimit:4;stroke-dasharray:2.8, 1.8;stroke-dashoffset:0;stroke-opacity:1"
       id="path908" />
    <path
       d="m 844.749,557.417 c 6.425,1.474 15.525,4.504 16.492,0.947 0.963,-3.558 -5.51,-7.43 -12.947,-8.712 -7.438,-1.282 -16.167,1.317 -16.485,3.58 -0.322,2.264 8.121,3.08 12.94,4.185 z"
       style="fill:none;stroke:#231f20;stroke-width:0.5;stroke-linecap:round;stroke-linejoin:round;stroke-miterlimit:4;stroke-dasharray:2.8, 1.8;stroke-dashoffset:0;stroke-opacity:1"
       id="path910" />
    <path
       d="m 636.271,609.444 c 10.091,9.758 27.512,19.684 33.982,22.586 6.47,2.9 9.388,9.039 -2.577,7.763 -11.965,-1.276 -36.562,-10.218 -47.886,-24.183 -12.309,-15.178 -17.841,-40.392 -14.61,-42.659 3.229,-2.268 16.75,9.036 19.992,13.881 3.241,4.846 3.405,15.172 11.099,22.612 z"
       style="fill:none;stroke:#231f20;stroke-width:0.5;stroke-linecap:round;stroke-linejoin:round;stroke-miterlimit:4;stroke-dasharray:2.8, 1.8;stroke-dashoffset:0;stroke-opacity:1"
       id="path912" />
    <path
       d="m 677.036,626.523 c 4.09,-1.369 6.453,-9.062 -0.356,-22.309 -6.808,-13.247 -17.486,-18.729 -21.362,-15.814 -3.876,2.916 1.646,21.339 5.533,26.507 3.888,5.167 10.366,13.565 16.185,11.616 z"
       style="fill:none;stroke:#231f20;stroke-width:0.5;stroke-linecap:round;stroke-linejoin:round;stroke-miterlimit:4;stroke-dasharray:2.8, 1.8;stroke-dashoffset:0;stroke-opacity:1"
       id="path914" />
    <path
       d="m 624.135,771.648 c 8.633,7.145 32.767,22.713 38.573,13.652 5.808,-9.062 -10.696,-17.769 -22.995,-26.158 -12.297,-8.389 -33.324,-15.796 -34.289,-12.238 -0.964,3.558 13.672,20.572 18.711,24.744 z"
       style="fill:none;stroke:#231f20;stroke-width:0.5;stroke-linecap:round;stroke-linejoin:round;stroke-miterlimit:4;stroke-dasharray:2.8, 1.8;stroke-dashoffset:0;stroke-opacity:1"
       id="path916" />
    <path
       d="m 692.532,610.011 c 4.855,0.214 12.932,-1.634 13.242,-10.365 0.311,-8.73 -18.444,-9.673 -21.022,-4.497 -2.582,5.177 0.666,14.548 7.78,14.862 z"
       style="fill:none;stroke:#231f20;stroke-width:0.5;stroke-linecap:round;stroke-linejoin:round;stroke-miterlimit:4;stroke-dasharray:2.8, 1.8;stroke-dashoffset:0;stroke-opacity:1"
       id="path918" />
    <path
       d="m 763.797,473.789 c 6.131,-0.386 15.844,-0.024 18.098,-6.169 2.254,-6.147 -1.963,-15.193 -13.606,-17.764 -11.643,-2.571 -21.017,-0.94 -23.267,9.085 -2.248,10.027 6.529,15.615 18.775,14.848 z"
       style="fill:none;stroke:#231f20;stroke-width:0.5;stroke-linecap:round;stroke-linejoin:round;stroke-miterlimit:4;stroke-dasharray:2.8, 1.8;stroke-dashoffset:0;stroke-opacity:1"
       id="path920" />
    <path
       d="m 746.406,467.75 c 3.153,-2.672 24.949,-0.977 27.478,5.109"
       style="fill:none;stroke:#231f20;stroke-width:0.5;stroke-linecap:round;stroke-linejoin:round;stroke-miterlimit:4;stroke-dasharray:2.8, 1.8;stroke-dashoffset:0;stroke-opacity:1"
       id="path922" />
    <path
       d="m 747.765,472.25 c -4.664,-0.049 -5.946,8.681 7.314,10.281 13.257,1.597 20.994,-4.28 11.946,-5.86"
       style="fill:none;stroke:#231f20;stroke-width:0.5;stroke-linecap:round;stroke-linejoin:round;stroke-miterlimit:4;stroke-dasharray:2.8, 1.8;stroke-dashoffset:0;stroke-opacity:1"
       id="path924" />
    <path
       d="m 671.068,521.448 c 3.743,5.039 3.892,10.664 3.576,14.222 -0.319,3.558 2.593,5.171 3.881,0.642 1.288,-4.529 -1.855,-13.992 -4.874,-17.454 -3.256,-3.729 -7.584,-5.727 -12.857,-5.667 -5.276,0.06 -5.799,0.955 -5.799,1.643 10e-4,1.055 3.799,0.892 6.648,1.363 2.848,0.47 6.443,1.238 9.425,5.251 z"
       style="fill:none;stroke:#231f20;stroke-width:0.5;stroke-linecap:round;stroke-linejoin:round;stroke-miterlimit:4;stroke-dasharray:2.8, 1.8;stroke-dashoffset:0;stroke-opacity:1"
       id="path926" />
    <path
       d="m 481.588,518.157 c 6.038,2.284 16.333,3.049 19.559,-1.644 3.228,-4.692 2.19,-6.437 -0.011,-8.083 -2.589,-1.936 -12.777,-3.863 -17.142,-4.503 -4.367,-0.64 -7.278,-1.121 -9.536,1.631 -2.26,2.751 -5.648,7.767 7.13,12.599 z"
       style="fill:none;stroke:#231f20;stroke-width:0.5;stroke-linecap:round;stroke-linejoin:round;stroke-miterlimit:4;stroke-dasharray:2.8, 1.8;stroke-dashoffset:0;stroke-opacity:1"
       id="path928" />
    <path
       d="m 511.668,524.905 c 1.512,1.348 2.591,3.068 5.501,3.226 2.91,0.158 6.952,0.152 8.407,0.15 1.455,-0.002 5.498,0.153 5.496,-1.14 -0.002,-1.293 -2.267,-1.452 -4.207,-1.449 -1.94,0.003 -3.338,0.063 -5.336,-0.963 -2.703,-1.387 -6.309,-2.899 -7.766,-4.515 -1.458,-1.615 -5.179,-4.519 -8.569,-0.473 -3.389,4.046 -3.708,7.28 -2.413,8.087 1.294,0.806 3.395,0.157 4.362,-1.461 0.968,-1.618 1.447,-4.206 4.525,-1.462 z"
       style="fill:none;stroke:#231f20;stroke-width:0.5;stroke-linecap:round;stroke-linejoin:round;stroke-miterlimit:4;stroke-dasharray:2.8, 1.8;stroke-dashoffset:0;stroke-opacity:1"
       id="path930" />
    <path
       d="m 472.855,535.246 c -3.24,-4.684 -7.729,-20.151 1.711,-20.885"
       style="fill:none;stroke:#231f20;stroke-width:0.5;stroke-linecap:round;stroke-linejoin:round;stroke-miterlimit:4;stroke-dasharray:2.8, 1.8;stroke-dashoffset:0;stroke-opacity:1"
       id="path932" />
    <path
       d="m 257.836,513.946 c 3.608,-2.011 8.561,-4.215 9.535,-2.276 0.972,1.939 -5.976,4.212 -7.753,5.346 -1.777,1.133 -5.652,4.211 -6.624,2.757 -0.972,-1.454 3.258,-4.943 4.842,-5.827 z"
       style="fill:none;stroke:#231f20;stroke-width:0.5;stroke-linecap:round;stroke-linejoin:round;stroke-miterlimit:4;stroke-dasharray:2.8, 1.8;stroke-dashoffset:0;stroke-opacity:1"
       id="path934" />
    <path
       d="m 607.645,572.884 c -1.337,-1.713 -1.986,-3.49 -1.019,-5.594 0.966,-2.102 3.871,-6.473 7.265,-6.638 3.395,-0.166 11.537,2.135 13.486,8.922 1.95,6.787 -0.987,13.448 -0.663,20.441"
       style="fill:none;stroke:#231f20;stroke-width:0.5;stroke-linecap:round;stroke-linejoin:round;stroke-miterlimit:4;stroke-dasharray:2.8, 1.8;stroke-dashoffset:0;stroke-opacity:1"
       id="path936" />
    <path
       d="m 358.678,479.71 c 2.74,2.08 5.815,4.664 6.302,5.956 0.487,1.292 -0.45,24.412 15.878,24.874 16.33,0.462 18.244,-17.809 18.076,-22.012 -0.148,-3.718 -2.594,-5.978 -0.818,-7.11 1.777,-1.136 6.144,-3.936 6.144,-3.936"
       style="fill:none;stroke:#231f20;stroke-width:0.5;stroke-linecap:round;stroke-linejoin:round;stroke-miterlimit:4;stroke-dasharray:2.8, 1.8;stroke-dashoffset:0;stroke-opacity:1"
       id="path938" />
    <path
       d="m 366.622,497.181 c 0.868,2.727 2.586,5.615 5.818,4.964 3.232,-0.651 18.589,-2.45 20.367,-2.454 1.778,-0.002 4.451,-0.188 5.123,-3.414"
       style="fill:none;stroke:#231f20;stroke-width:0.5;stroke-linecap:round;stroke-linejoin:round;stroke-miterlimit:4;stroke-dasharray:2.8, 1.8;stroke-dashoffset:0;stroke-opacity:1"
       id="path940" />
    <path
       d="m 365.257,488.767 c 2.473,-2.297 7.798,-9.579 33.059,-3.322"
       style="fill:none;stroke:#231f20;stroke-width:0.5;stroke-linecap:round;stroke-linejoin:round;stroke-miterlimit:4;stroke-dasharray:2.8, 1.8;stroke-dashoffset:0;stroke-opacity:1"
       id="path942" />
    <path
       d="m 397.93,496.277 c 0,0 12.332,-0.006 16.536,0.312 4.203,0.319 10.347,0.471 11.959,-2.925 1.612,-3.399 2.7,-7.086 -2.761,-9.05 -5.823,-2.095 -17.195,-3.725 -26.15,-2.406"
       style="fill:none;stroke:#231f20;stroke-width:0.5;stroke-linecap:round;stroke-linejoin:round;stroke-miterlimit:4;stroke-dasharray:2.8, 1.8;stroke-dashoffset:0;stroke-opacity:1"
       id="path944" />
    <path
       d="m 437.785,521.728 c -0.012,-5.609 -0.829,-12.076 -3.906,-15.466 -3.076,-3.39 -6.045,-8.412 -6.353,-15.517"
       style="fill:none;stroke:#231f20;stroke-width:0.5;stroke-linecap:round;stroke-linejoin:round;stroke-miterlimit:4;stroke-dasharray:2.8, 1.8;stroke-dashoffset:0;stroke-opacity:1"
       id="path946" />
    <path
       d="m 427.206,487.147 c 6.162,0.362 37.519,6.958 56.788,16.78"
       style="fill:none;stroke:#231f20;stroke-width:0.5;stroke-linecap:round;stroke-linejoin:round;stroke-miterlimit:4;stroke-dasharray:2.8, 1.8;stroke-dashoffset:0;stroke-opacity:1"
       id="path948" />
    <path
       d="m 394.609,503.792 c -5.337,11.586 1.165,36.312 31.538,32.73 0,0 3.457,15.164 16.802,10.892"
       style="fill:none;stroke:#231f20;stroke-width:0.5;stroke-linecap:round;stroke-linejoin:round;stroke-miterlimit:4;stroke-dasharray:2.8, 1.8;stroke-dashoffset:0;stroke-opacity:1"
       id="path950" />
    <path
       d="m 383.67,518.735 c 1.103,1.214 8.683,0.546 9.273,-5.623"
       style="fill:none;stroke:#231f20;stroke-width:0.5;stroke-linecap:round;stroke-linejoin:round;stroke-miterlimit:4;stroke-dasharray:2.8, 1.8;stroke-dashoffset:0;stroke-opacity:1"
       id="path952" />
    <path
       d="m 543.218,696.001 c -12.017,-1.667 -33.714,0.546 -39.328,0.827 -7.096,0.355 -20.264,1.814 -28.221,8.016"
       style="fill:none;stroke:#231f20;stroke-width:0.5;stroke-linecap:round;stroke-linejoin:round;stroke-miterlimit:4;stroke-dasharray:2.8, 1.8;stroke-dashoffset:0;stroke-opacity:1"
       id="path954" />
    <path
       d="m 526.506,664.713 c -6.578,-14.203 -13.066,-28.906 -11.782,-35.859 1.161,-6.29 2.09,-8.411 7.425,-7.609 5.337,0.801 13.556,1.266 16.335,13.553"
       style="fill:none;stroke:#231f20;stroke-width:0.5;stroke-linecap:round;stroke-linejoin:round;stroke-miterlimit:4;stroke-dasharray:2.8, 1.8;stroke-dashoffset:0;stroke-opacity:1"
       id="path956" />
    <path
       d="m 691.565,497.169 c -1.783,-2.746 -6.074,-7.039 -9.065,-7.748 -3.396,-0.802 -4.47,0.529 -7.569,1.485"
       style="fill:none;stroke:#231f20;stroke-width:0.5;stroke-linecap:round;stroke-linejoin:round;stroke-miterlimit:4;stroke-dasharray:2.8, 1.8;stroke-dashoffset:0;stroke-opacity:1"
       id="path958" />
    <path
       d="m 665.788,494.184 c 0,0 -1.547,1.569 -2.191,3.671 -0.643,2.103 3.566,5.735 7.285,7.508"
       style="fill:none;stroke:#231f20;stroke-width:0.5;stroke-linecap:round;stroke-linejoin:round;stroke-miterlimit:4;stroke-dasharray:2.8, 1.8;stroke-dashoffset:0;stroke-opacity:1"
       id="path960" />
    <path
       d="m 926.096,463.56 c -17.949,0.574 -36.916,3.588 -46.217,14.592 -9.441,11.168 -18.142,32.034 -16.914,43.916 1.229,11.88 17.975,20.102 17.975,20.102 1.377,0.357 3.24,0.314 5.504,-0.116"
       style="fill:none;stroke:#231f20;stroke-width:0.5;stroke-linecap:round;stroke-linejoin:round;stroke-miterlimit:4;stroke-dasharray:2.8, 1.8;stroke-dashoffset:0;stroke-opacity:1"
       id="path962" />
    <path
       d="m 859.954,449.565 c 8.961,2.231 19.595,5.721 22.072,3.606 1.846,-1.574 2.906,-3.883 2.174,-6.55 0,0 -3.418,1.625 -7.28,-2.415 -3.474,-3.638 -14.562,-8.467 -21.832,-6.032 -7.271,2.435 -12.603,5.111 -14.543,5.841 -1.937,0.729 -2.664,2.429 0.247,2.424 2.91,-0.004 12.486,1.463 19.162,3.126 z"
       style="fill:none;stroke:#231f20;stroke-width:0.5;stroke-linecap:round;stroke-linejoin:round;stroke-miterlimit:4;stroke-dasharray:2.8, 1.8;stroke-dashoffset:0;stroke-opacity:1"
       id="path964" />
    <path
       d="m 669.112,798.791 c 10.671,0.469 41.826,3.778 74.807,-42.201"
       style="fill:none;stroke:#231f20;stroke-width:0.5;stroke-linecap:round;stroke-linejoin:round;stroke-miterlimit:4;stroke-dasharray:2.8, 1.8;stroke-dashoffset:0;stroke-opacity:1"
       id="path966" />
    <path
       d="m 355.357,482.285 c 0.002,1.939 -1.444,7.761 -8.716,9.955 -7.272,2.191 -13.574,4.869 -21.809,11.67 -8.235,6.801 -27.142,13.133 -33.445,14.111 -6.303,0.979 -19.878,5.363 -26.418,10.465 -6.54,5.102 -10.897,10.928 -10.897,10.928"
       style="fill:none;stroke:#231f20;stroke-width:0.5;stroke-linecap:round;stroke-linejoin:round;stroke-miterlimit:4;stroke-dasharray:2.8, 1.8;stroke-dashoffset:0;stroke-opacity:1"
       id="path968" />
    <path
       d="m 351.918,506.743 c 3.549,-3.767 2.932,-12.598 -1.136,-16.5"
       style="fill:none;stroke:#231f20;stroke-width:0.5;stroke-linecap:round;stroke-linejoin:round;stroke-miterlimit:4;stroke-dasharray:2.8, 1.8;stroke-dashoffset:0;stroke-opacity:1"
       id="path970" />
    <path
       d="m 352.683,488.536 c -2.571,0.223 -4.512,-0.422 -7.91,-2.519 -3.398,-2.096 -4.046,-3.064 -10.351,-3.057 -6.305,0.01 -15.682,0.346 -25.698,4.887 -10.017,4.54 -18.095,8.917 -20.84,11.184 -2.745,2.267 -7.105,5.669 -13.41,5.354 -6.306,-0.315 -10.833,-0.794 -14.063,1.313 -3.231,2.106 -10.819,9.552 -11.944,13.92 -1.126,4.366 -2.088,10.188 -8.227,12.783 -6.14,2.596 -20.523,6.01 -16.634,12.472 0,0 -4.85,0.491 -4.047,-3.227 0.803,-3.72 6.297,-5.668 10.014,-7.29 3.716,-1.622 13.252,-3.009 14.618,-8.508 1.253,-5.042 0.717,-7.681 4.429,-11.889 3.713,-4.208 9.687,-9.713 11.14,-10.685 1.454,-0.973 1.938,-1.944 5.818,-1.626 3.88,0.318 9.702,1.12 20.848,-5.04 11.146,-6.159 17.284,-10.532 20.999,-12.802 3.715,-2.267 5.978,-2.433 12.605,-3.088 6.628,-0.656 16.811,-1.963 21.015,-1.162 4.205,0.803 4.86,2.869 6.474,4.68 1.295,1.453 3.396,2.707 7.516,0.053"
       style="fill:none;stroke:#231f20;stroke-width:0.5;stroke-linecap:round;stroke-linejoin:round;stroke-miterlimit:4;stroke-dasharray:2.8, 1.8;stroke-dashoffset:0;stroke-opacity:1"
       id="path972" />
    <path
       d="m 368.029,666.009 c -2.192,-6.787 -5.404,-16.41 -7.622,-41.627 -2.219,-25.217 -4.472,-38.577 -6.151,-43.897"
       style="fill:none;stroke:#231f20;stroke-width:0.5;stroke-linecap:round;stroke-linejoin:round;stroke-miterlimit:4;stroke-dasharray:2.8, 1.8;stroke-dashoffset:0;stroke-opacity:1"
       id="path974" />
    <path
       d="m 300.088,515.745 c 0.999,2.263 2.216,5.171 1.249,7.84 -0.966,2.669 -2.419,4.126 0.735,4.849 3.153,0.723 39.872,2.035 48.315,40.995"
       style="fill:none;stroke:#231f20;stroke-width:0.5;stroke-linecap:round;stroke-linejoin:round;stroke-miterlimit:4;stroke-dasharray:2.8, 1.8;stroke-dashoffset:0;stroke-opacity:1"
       id="path976" />
    <path
       d="m 267.109,526.994 c 0.124,2.136 1.993,2.684 3.197,2.94 2.264,0.482 3.4,3.39 4.372,4.844 0.972,1.453 2.819,2.766 5.011,0.155 2.583,-3.076 0.532,-10.766 -6.935,-10.951"
       style="fill:none;stroke:#231f20;stroke-width:0.5;stroke-linecap:round;stroke-linejoin:round;stroke-miterlimit:4;stroke-dasharray:2.8, 1.8;stroke-dashoffset:0;stroke-opacity:1"
       id="path978" />
    <path
       d="m 286.877,518.99 c -0.093,2.353 1.316,2.954 1.688,4.128 0.573,1.805 0.923,4.743 3.077,3.714 1.696,-0.811 1.011,-2.21 0.04,-3.503 -0.972,-1.293 -0.857,-2.639 -0.295,-5.308"
       style="fill:none;stroke:#231f20;stroke-width:0.5;stroke-linecap:round;stroke-linejoin:round;stroke-miterlimit:4;stroke-dasharray:2.8, 1.8;stroke-dashoffset:0;stroke-opacity:1"
       id="path980" />
    <path
       d="m 621.967,874.615 c 0,0 -8.222,-32.071 8.287,-68.118"
       style="fill:none;stroke:#231f20;stroke-width:0.5;stroke-linecap:round;stroke-linejoin:round;stroke-miterlimit:4;stroke-dasharray:2.8, 1.8;stroke-dashoffset:0;stroke-opacity:1"
       id="path982" />
    <path
       d="m 520.814,878.572 -5.178,-59.986"
       style="fill:none;stroke:#231f20;stroke-width:0.5;stroke-linecap:round;stroke-linejoin:round;stroke-miterlimit:4;stroke-dasharray:2.8, 1.8;stroke-dashoffset:0;stroke-opacity:1"
       id="path984" />
    <path
       d="m 480.795,878.091 1.044,-61.789"
       style="fill:none;stroke:#231f20;stroke-width:0.5;stroke-linecap:round;stroke-linejoin:round;stroke-miterlimit:4;stroke-dasharray:2.8, 1.8;stroke-dashoffset:0;stroke-opacity:1"
       id="path986" />
    <path
       d="m 438.836,876.393 5.699,-77.737"
       style="fill:none;stroke:#231f20;stroke-width:0.5;stroke-linecap:round;stroke-linejoin:round;stroke-miterlimit:4;stroke-dasharray:2.8, 1.8;stroke-dashoffset:0;stroke-opacity:1"
       id="path988" />
    <path
       d="m 379.443,870.834 8.971,-101.407"
       style="fill:none;stroke:#231f20;stroke-width:0.5;stroke-linecap:round;stroke-linejoin:round;stroke-miterlimit:4;stroke-dasharray:2.8, 1.8;stroke-dashoffset:0;stroke-opacity:1"
       id="path990" />
    <path
       d="m 159.702,814.791 c 15.196,-15.063 54.942,-55.998 73.197,-81.902"
       style="fill:none;stroke:#231f20;stroke-width:0.5;stroke-linecap:round;stroke-linejoin:round;stroke-miterlimit:4;stroke-dasharray:2.8, 1.8;stroke-dashoffset:0;stroke-opacity:1"
       id="path992" />
    <path
       d="m 231.042,727.439 c -32.482,19.744 -99.598,45.893 -99.598,45.893"
       style="fill:none;stroke:#231f20;stroke-width:0.5;stroke-linecap:round;stroke-linejoin:round;stroke-miterlimit:4;stroke-dasharray:2.8, 1.8;stroke-dashoffset:0;stroke-opacity:1"
       id="path994" />
    <path
       d="m 142.189,769.039 c 12.792,7.922 28.653,21.073 22.336,40.928"
       style="fill:none;stroke:#231f20;stroke-width:0.5;stroke-linecap:round;stroke-linejoin:round;stroke-miterlimit:4;stroke-dasharray:2.8, 1.8;stroke-dashoffset:0;stroke-opacity:1"
       id="path996" />
    <path
       d="m 171.423,756.766 c 3.874,-18.149 11.134,-29.071 27.846,-43.644 16.712,-14.574 23.727,-26.709 26.627,-34.23"
       style="fill:none;stroke:#231f20;stroke-width:0.5;stroke-linecap:round;stroke-linejoin:round;stroke-miterlimit:4;stroke-dasharray:2.8, 1.8;stroke-dashoffset:0;stroke-opacity:1"
       id="path998" />
    <path
       d="m 175.458,743.35 50,-30.265"
       style="fill:none;stroke:#231f20;stroke-width:0.5;stroke-linecap:round;stroke-linejoin:round;stroke-miterlimit:4;stroke-dasharray:2.8, 1.8;stroke-dashoffset:0;stroke-opacity:1"
       id="path1000" />
    <path
       d="m 231.649,710.624 c -0.737,3.854 -6.187,4.886 -7.892,-0.205 -1.704,-5.089 -4.632,-18.18 4.072,-36.138 8.705,-17.957 14.754,-28.15 12.068,-40.757 -2.685,-12.606 -4.401,-25.456 2.142,-28.618 6.544,-3.161 11.128,1.693 11.128,1.693"
       style="fill:none;stroke:#231f20;stroke-width:0.5;stroke-linecap:round;stroke-linejoin:round;stroke-miterlimit:4;stroke-dasharray:2.8, 1.8;stroke-dashoffset:0;stroke-opacity:1"
       id="path1002" />
    <path
       d="m 388.153,587.665 c -4.278,-1.873 -4.279,-2.358 -6.469,-7.933 -2.19,-5.574 -5.511,-13.44 -7.54,-15.994 -2.308,-2.907 -7.535,-12.357 -5.113,-14.058 2.423,-1.701 3.404,5.573 5.592,9.692 2.188,4.12 6.076,9.691 8.989,11.628 2.912,1.936 6.447,6.085 6.875,13.586"
       style="fill:none;stroke:#231f20;stroke-width:0.5;stroke-linecap:round;stroke-linejoin:round;stroke-miterlimit:4;stroke-dasharray:2.8, 1.8;stroke-dashoffset:0;stroke-opacity:1"
       id="path1004" />
    <path
       d="m 349.719,566.666 c 6.965,-2.661 24.917,1.921 31.965,13.066"
       style="fill:none;stroke:#231f20;stroke-width:0.5;stroke-linecap:round;stroke-linejoin:round;stroke-miterlimit:4;stroke-dasharray:2.8, 1.8;stroke-dashoffset:0;stroke-opacity:1"
       id="path1006" />
    <path
       d="m 371.819,552.1 c 2.296,-8.975 2.693,-12.889 2.973,-15.662"
       style="fill:none;stroke:#231f20;stroke-width:0.5;stroke-linecap:round;stroke-linejoin:round;stroke-miterlimit:4;stroke-dasharray:2.8, 1.8;stroke-dashoffset:0;stroke-opacity:1"
       id="path1008" />
    <path
       d="m 237.837,611.686 c -6.701,0.026 -23.674,1.02 -24.892,-2.374 -1.217,-3.393 5.842,-7.446 10.203,-10.362"
       style="fill:none;stroke:#231f20;stroke-width:0.5;stroke-linecap:round;stroke-linejoin:round;stroke-miterlimit:4;stroke-dasharray:2.8, 1.8;stroke-dashoffset:0;stroke-opacity:1"
       id="path1010" />
    <path
       d="m 263.802,539.628 c -14.08,9.977 -23.523,20.661 -37.807,37.656 -14.284,16.995 -16.458,22.333 -15.243,24.271 1.215,1.939 9.434,3.05 42.27,-23.626"
       style="fill:none;stroke:#231f20;stroke-width:0.5;stroke-linecap:round;stroke-linejoin:round;stroke-miterlimit:4;stroke-dasharray:2.8, 1.8;stroke-dashoffset:0;stroke-opacity:1"
       id="path1012" />
    <path
       d="m 236.123,542.544 c 1.466,1.824 -0.471,4.171 -1.681,5.628 -1.211,1.456 -6.296,6.313 -11.14,10.685 -4.844,4.372 -9.694,4.379 -11.14,10.686 -1.446,6.307 -6.05,8.981 -12.35,12.385 -6.3,3.404 -9.929,9.714 -12.107,12.627 -2.179,2.913 2.185,2.422 2.677,7.272 0.492,4.849 -6.289,11.163 -10.89,15.777 -4.601,4.614 -11.868,9.717 -11.868,9.717 l 0.73,2.666 c 0,0 0.731,2.303 -3.63,5.341 -4.364,3.039 -4.593,10.191 -2.649,12.613 1.943,2.422 6.549,0.961 10.908,-2.682 4.36,-3.644 17.685,-13.12 24.953,-17.981 7.268,-4.86 11.752,-7.08 18.786,-6.605 7.032,0.475 6.07,6.572 0.378,6.377 -1.714,-0.057 -3.766,-0.4 -6.797,0.211 -2.853,0.574 -4.363,1.219 -13.811,8.264 -9.448,7.046 -24.466,18.707 -30.282,21.868 -5.815,3.161 -11.636,2.926 -16.25,-1.675 -2.67,-2.663 -5.1,-5.813 -2.925,-11.393 2.174,-5.581 13.791,-22.087 21.778,-33.253 7.986,-11.167 10.158,-18.929 19.12,-26.217 8.963,-7.288 15.016,-13.844 19.131,-18.7 4.117,-4.855 11.866,-12.384 15.742,-15.057 3.876,-2.673 8.935,-5.691 2.932,-6.629"
       style="fill:none;stroke:#231f20;stroke-width:0.5;stroke-linecap:round;stroke-linejoin:round;stroke-miterlimit:4;stroke-dasharray:2.8, 1.8;stroke-dashoffset:0;stroke-opacity:1"
       id="path1014" />
    <path
       d="m 576.165,578.815 c -2.903,0.116 -4.898,4.13 2.622,5.574 7.518,1.445 14.604,-1.075 21.391,-3.751 6.785,-2.678 3.381,-9.705 3.381,-9.705 -10.332,10.28 -35.879,8.053 -52.128,6.863 -16.249,-1.19 -24.012,-3.361 -28.865,-5.537 -4.853,-2.176 -6.315,-6.538 -7.288,-9.447 -0.974,-2.909 -1.954,-5.615 -3.645,-5.33 -1.455,0.245 -0.722,4.123 0.01,7.032 0.731,2.909 3.646,6.543 7.53,9.205 3.884,2.662 12.378,7.257 19.656,9.43 7.277,2.172 14.314,4.587 16.982,5.31 2.669,0.725 4.852,0.722 6.061,-1.463 1.21,-2.184 3.566,-4.839 13.779,-3.577"
       style="fill:none;stroke:#231f20;stroke-width:0.5;stroke-linecap:round;stroke-linejoin:round;stroke-miterlimit:4;stroke-dasharray:2.8, 1.8;stroke-dashoffset:0;stroke-opacity:1"
       id="path1016" />
    <path
       d="m 458.031,571.095 c 0.516,2.467 7.797,6.337 19.919,3.895 12.122,-2.443 21.087,-7.305 20.838,-12.397 -0.25,-5.093 -14.363,-6.635 -19.612,-3.785"
       style="fill:none;stroke:#231f20;stroke-width:0.5;stroke-linecap:round;stroke-linejoin:round;stroke-miterlimit:4;stroke-dasharray:2.8, 1.8;stroke-dashoffset:0;stroke-opacity:1"
       id="path1018" />
    <path
       d="m 433.589,587.176 c 3.378,-1.731 7.76,-0.253 10.914,0.955 3.154,1.209 -2.421,2.914 -8.963,6.561 -6.542,3.646 -15.498,15.299 -22.511,29.617 -7.012,14.316 -8.698,22.564 -3.589,34.197 5.108,11.633 13.126,22.291 17.259,29.56 4.133,7.27 -6.047,11.407 -6.047,11.407"
       style="fill:none;stroke:#231f20;stroke-width:0.5;stroke-linecap:round;stroke-linejoin:round;stroke-miterlimit:4;stroke-dasharray:2.8, 1.8;stroke-dashoffset:0;stroke-opacity:1"
       id="path1020" />
    <path
       d="m 455.901,591.282 c 12.853,-2.7 37.826,-6.13 61.839,-2.041"
       style="fill:none;stroke:#231f20;stroke-width:0.5;stroke-linecap:round;stroke-linejoin:round;stroke-miterlimit:4;stroke-dasharray:2.8, 1.8;stroke-dashoffset:0;stroke-opacity:1"
       id="path1022" />
    <path
       d="m 532.186,594.42 c -0.251,-6.062 -10.393,-25.186 -35.717,-27.153"
       style="fill:none;stroke:#231f20;stroke-width:0.5;stroke-linecap:round;stroke-linejoin:round;stroke-miterlimit:4;stroke-dasharray:2.8, 1.8;stroke-dashoffset:0;stroke-opacity:1"
       id="path1024" />
    <path
       d="m 413.623,666.851 c 1.342,2.357 5.292,3.767 10.624,2.304 5.333,-1.462 8.966,-4.378 8.953,-14.077 -0.013,-9.701 2.808,-58.64 33.257,-55.191"
       style="fill:none;stroke:#231f20;stroke-width:0.5;stroke-linecap:round;stroke-linejoin:round;stroke-miterlimit:4;stroke-dasharray:2.8, 1.8;stroke-dashoffset:0;stroke-opacity:1"
       id="path1026" />
    <path
       d="m 433.393,649.513 c 1.021,6.775 9.271,10.159 17.276,12.33 8.006,2.171 35.906,11.347 43.642,-6.366 7.734,-17.714 8.643,-24.554 21.15,-30.004"
       style="fill:none;stroke:#231f20;stroke-width:0.5;stroke-linecap:round;stroke-linejoin:round;stroke-miterlimit:4;stroke-dasharray:2.8, 1.8;stroke-dashoffset:0;stroke-opacity:1"
       id="path1028" />
    <path
       d="m 426.637,694.812 c 5.16,-2.63 6.613,-3.844 6.842,-13.545 0.229,-9.701 -0.687,-14.918 -2.055,-17.157"
       style="fill:none;stroke:#231f20;stroke-width:0.5;stroke-linecap:round;stroke-linejoin:round;stroke-miterlimit:4;stroke-dasharray:2.8, 1.8;stroke-dashoffset:0;stroke-opacity:1"
       id="path1030" />
    <path
       d="m 431.535,691.276 c 6.807,-0.8 65.99,8.331 48.327,36.728 l -0.756,1.34"
       style="fill:none;stroke:#231f20;stroke-width:0.5;stroke-linecap:round;stroke-linejoin:round;stroke-miterlimit:4;stroke-dasharray:2.8, 1.8;stroke-dashoffset:0;stroke-opacity:1"
       id="path1032" />
    <path
       d="m 507.1,609.936 c 3.881,1.625 6.794,3.318 10.187,1.858 3.393,-1.46 9.208,-6.047 11.386,-8.261 2.207,-2.244 5.812,-5.1 3.218,-8.205"
       style="fill:none;stroke:#231f20;stroke-width:0.5;stroke-linecap:round;stroke-linejoin:round;stroke-miterlimit:4;stroke-dasharray:2.8, 1.8;stroke-dashoffset:0;stroke-opacity:1"
       id="path1034" />
    <path
       d="m 513.866,612.303 c 3.666,1.431 9.729,2.15 12.394,0.206 2.665,-1.944 7.039,-5.598 8.234,-8.257 1.037,-2.309 2.702,-5.528 -1.748,-6.569"
       style="fill:none;stroke:#231f20;stroke-width:0.5;stroke-linecap:round;stroke-linejoin:round;stroke-miterlimit:4;stroke-dasharray:2.8, 1.8;stroke-dashoffset:0;stroke-opacity:1"
       id="path1036" />
    <path
       d="m 522.617,613.637 c 0.254,3.241 3.417,10.512 11.175,9.047 7.757,-1.466 16.232,-10.936 12.101,-17.235 -4.131,-6.3 -11.199,-6.922 -11.199,-6.922"
       style="fill:none;stroke:#231f20;stroke-width:0.5;stroke-linecap:round;stroke-linejoin:round;stroke-miterlimit:4;stroke-dasharray:2.8, 1.8;stroke-dashoffset:0;stroke-opacity:1"
       id="path1038" />
    <path
       d="m 437.894,584.885 c 10.907,-3.653 20.395,-7.015 35.185,-9.218"
       style="fill:none;stroke:#231f20;stroke-width:0.5;stroke-linecap:round;stroke-linejoin:round;stroke-miterlimit:4;stroke-dasharray:2.8, 1.8;stroke-dashoffset:0;stroke-opacity:1"
       id="path1040" />
    <path
       d="m 562.026,717.682 c 3.375,-3.916 1.049,-6.142 -1.916,-3.855 -3.149,2.429 -7.996,4.618 -11.391,4.623 -3.394,0.005 -4.604,1.947 -9.209,4.135 -4.605,2.189 -14.058,5.112 -27.881,5.132 -13.822,0.019 -22.292,-0.701 -30.547,-1.899"
       style="fill:none;stroke:#231f20;stroke-width:0.5;stroke-linecap:round;stroke-linejoin:round;stroke-miterlimit:4;stroke-dasharray:2.8, 1.8;stroke-dashoffset:0;stroke-opacity:1"
       id="path1042" />
    <path
       d="m 546.368,718.837 c 2.904,-9.684 4.511,-15.829 8.877,-16.158 4.364,-0.33 12.775,2.892 16.166,-0.993"
       style="fill:none;stroke:#231f20;stroke-width:0.5;stroke-linecap:round;stroke-linejoin:round;stroke-miterlimit:4;stroke-dasharray:2.8, 1.8;stroke-dashoffset:0;stroke-opacity:1"
       id="path1044" />
    <path
       d="m 631.819,647.359 c -3.109,-11.391 -3.258,-23.554 -3.258,-23.554 -11.934,1.434 -35.096,11.567 -40.974,16.768"
       style="fill:none;stroke:#231f20;stroke-width:0.5;stroke-linecap:round;stroke-linejoin:round;stroke-miterlimit:4;stroke-dasharray:2.8, 1.8;stroke-dashoffset:0;stroke-opacity:1"
       id="path1046" />
    <path
       d="m 675.15,652.908 c 0,0 -0.044,-9.453 -0.341,-13.729 0,0 11.947,-0.221 17.592,-7.343"
       style="fill:none;stroke:#231f20;stroke-width:0.5;stroke-linecap:round;stroke-linejoin:round;stroke-miterlimit:4;stroke-dasharray:2.8, 1.8;stroke-dashoffset:0;stroke-opacity:1"
       id="path1048" />
    <path
       d="m 740.2,566.154 c -7.141,11.064 -14.039,16.852 -20.094,23.166 -6.053,6.313 -11.031,1.228 -14.554,-3.01 -3.522,-4.24 -4.83,-8.62 -4.503,-11.998 0.717,-7.397 3.188,-29.198 23.209,-49.705 11.382,-11.656 19.868,-13.446 29.789,-16.053 4.575,-1.202 8.745,-2.108 13.593,-3.327 8.853,-2.227 25.96,-5.282 34.185,-5.868 10.425,-0.742 17.453,-3.904 18.902,-8.029 1.518,-4.317 2.416,-6.067 11.147,-6.321 8.73,-0.254 31.632,4.562 51.931,-10.623"
       style="fill:none;stroke:#231f20;stroke-width:0.5;stroke-linecap:round;stroke-linejoin:round;stroke-miterlimit:4;stroke-dasharray:2.8, 1.8;stroke-dashoffset:0;stroke-opacity:1"
       id="path1050" />
    <path
       d="m 825.698,560.251 c -2.063,-0.236 -4.75,0.918 -2.444,3.098 2.307,2.179 6.311,3.992 11.645,3.257 5.334,-0.735 7.18,-1.632 9.103,-3.491"
       style="fill:none;stroke:#231f20;stroke-width:0.5;stroke-linecap:round;stroke-linejoin:round;stroke-miterlimit:4;stroke-dasharray:2.8, 1.8;stroke-dashoffset:0;stroke-opacity:1"
       id="path1052" />
    <path
       d="m 770.313,557.025 c 0,0 2.05,-4.131 2.87,-6.871"
       style="fill:none;stroke:#231f20;stroke-width:0.5;stroke-linecap:round;stroke-linejoin:round;stroke-miterlimit:4;stroke-dasharray:2.8, 1.8;stroke-dashoffset:0;stroke-opacity:1"
       id="path1054" />
    <path
       d="m 753.991,541.285 c 5.091,-0.008 11.611,2.767 16.664,5.841"
       style="fill:none;stroke:#231f20;stroke-width:0.5;stroke-linecap:round;stroke-linejoin:round;stroke-miterlimit:4;stroke-dasharray:2.8, 1.8;stroke-dashoffset:0;stroke-opacity:1"
       id="path1056" />
    <path
       d="m 738.85,596.315 c -0.826,0.87 -1.68,1.621 -2.523,2.156 -3.069,1.945 -8.241,3.407 -11.155,0.663 -2.913,-2.744 -1.466,-8.89 2.732,-12.776 4.196,-3.885 9.288,-4.701 14.014,-7.011"
       style="fill:none;stroke:#231f20;stroke-width:0.5;stroke-linecap:round;stroke-linejoin:round;stroke-miterlimit:4;stroke-dasharray:2.8, 1.8;stroke-dashoffset:0;stroke-opacity:1"
       id="path1058" />
    <path
       d="m 716.682,607.548 c -3.625,-1.607 -8.582,-6.571 -9.719,-9.783 -0.995,-2.81 -1.037,-5.556 1.067,-3.942 2.102,1.614 10.098,4.983 15.955,-1.08"
       style="fill:none;stroke:#231f20;stroke-width:0.5;stroke-linecap:round;stroke-linejoin:round;stroke-miterlimit:4;stroke-dasharray:2.8, 1.8;stroke-dashoffset:0;stroke-opacity:1"
       id="path1060" />
    <path
       d="m 768.763,629.125 c 0.139,0.329 0.282,0.658 0.427,0.987 5.027,11.31 17.002,18.729 28.154,15.804 11.149,-2.926 12.436,-7.13 13.229,-18.61 0.793,-11.48 -1.002,-27.411 2.545,-34.692"
       style="fill:none;stroke:#231f20;stroke-width:0.5;stroke-linecap:round;stroke-linejoin:round;stroke-miterlimit:4;stroke-dasharray:2.8, 1.8;stroke-dashoffset:0;stroke-opacity:1"
       id="path1062" />
    <path
       d="m 765.999,620.276 c 4.15,1.913 11.105,4.247 16.441,4.321 4.852,0.066 8.73,1.121 5.803,-11.809"
       style="fill:none;stroke:#231f20;stroke-width:0.5;stroke-linecap:round;stroke-linejoin:round;stroke-miterlimit:4;stroke-dasharray:2.8, 1.8;stroke-dashoffset:0;stroke-opacity:1"
       id="path1064" />
    <path
       d="m 788.997,622.067 c 4.113,2.354 11.654,10.821 16.388,20.398"
       style="fill:none;stroke:#231f20;stroke-width:0.5;stroke-linecap:round;stroke-linejoin:round;stroke-miterlimit:4;stroke-dasharray:2.8, 1.8;stroke-dashoffset:0;stroke-opacity:1"
       id="path1066" />
    <path
       d="m 811.545,597.436 c -3.433,3.522 -13.285,10.81 -15.222,12.268 -1.94,1.458 -2.233,1.62 -5.817,2.595 -4.468,1.215 -9.212,1.953 -11.638,1.795 -2.425,-0.159 -3.72,-0.965 -3.72,-0.965 l 9.524,-9.876"
       style="fill:none;stroke:#231f20;stroke-width:0.5;stroke-linecap:round;stroke-linejoin:round;stroke-miterlimit:4;stroke-dasharray:2.8, 1.8;stroke-dashoffset:0;stroke-opacity:1"
       id="path1068" />
    <path
       d="m 765.274,607.18 c 1.301,3.698 5.209,9.996 12.795,6.833"
       style="fill:none;stroke:#231f20;stroke-width:0.5;stroke-linecap:round;stroke-linejoin:round;stroke-miterlimit:4;stroke-dasharray:2.8, 1.8;stroke-dashoffset:0;stroke-opacity:1"
       id="path1070" />
    <path
       d="m 802.985,596.664 c -2.943,2.513 -5.406,5.508 -11.037,6.903 -5.807,1.437 -8.731,-0.634 -10.672,-2.087 0,0 0.062,-11.315 -4.344,-12.765"
       style="fill:none;stroke:#231f20;stroke-width:0.5;stroke-linecap:round;stroke-linejoin:round;stroke-miterlimit:4;stroke-dasharray:2.8, 1.8;stroke-dashoffset:0;stroke-opacity:1"
       id="path1072" />
    <path
       d="m 781.137,598.596 c 3.854,2.071 9.192,4.165 14.522,0.762 5.33,-3.402 9.203,-8.42 7.257,-12.62 -1.945,-4.2 -5.013,-7.875 -5.013,-7.875"
       style="fill:none;stroke:#231f20;stroke-width:0.5;stroke-linecap:round;stroke-linejoin:round;stroke-miterlimit:4;stroke-dasharray:2.8, 1.8;stroke-dashoffset:0;stroke-opacity:1"
       id="path1074" />
    <path
       d="m 780.672,595.23 c 5.446,1.07 9.162,1.065 12.395,-0.879 3.23,-1.945 6.049,-5.77 4.353,-8.251 -2.158,-3.15 -4.054,-6.149 -4.054,-6.149"
       style="fill:none;stroke:#231f20;stroke-width:0.5;stroke-linecap:round;stroke-linejoin:round;stroke-miterlimit:4;stroke-dasharray:2.8, 1.8;stroke-dashoffset:0;stroke-opacity:1"
       id="path1076" />
    <path
       d="m 717.648,486.304 c 8.173,-1.793 22.074,-3.428 28.542,-2.629 6.467,0.799 12.131,4.672 22.15,2.071 10.02,-2.602 21.326,-9.731 31.026,-10.875 9.697,-1.147 16.488,-0.186 21.178,-0.516 4.687,-0.33 12.767,-1.796 12.605,-3.412 -0.164,-1.617 -3.4,-0.878 -5.66,-0.801 -3,0.104 -4.979,-2.686 -5.02,-5.167 -0.039,-2.267 4.188,-10.19 8.229,-11.489 4.039,-1.299 13.422,1.435 20.051,2.881 6.63,1.447 14.714,2.568 19.242,2.56 4.525,-0.006 6.629,0.477 8.73,0.311 2.102,-0.164 2.426,1.29 2.428,2.422 0.002,1.132 -1.449,3.398 -7.752,5.508 -6.301,2.109 -8.08,2.275 -8.08,2.275"
       style="fill:none;stroke:#231f20;stroke-width:0.5;stroke-linecap:round;stroke-linejoin:round;stroke-miterlimit:4;stroke-dasharray:2.8, 1.8;stroke-dashoffset:0;stroke-opacity:1"
       id="path1078" />
    <path
       d="m 865.317,469.443 c -3.233,0.812 -10.824,2.318 -16.002,2.609 -3.815,0.214 -10.508,-0.308 -16.166,-1.109"
       style="fill:none;stroke:#231f20;stroke-width:0.5;stroke-linecap:round;stroke-linejoin:round;stroke-miterlimit:4;stroke-dasharray:2.8, 1.8;stroke-dashoffset:0;stroke-opacity:1"
       id="path1080" />
    <path
       d="m 859.374,484.593 -0.899,-13.726"
       style="fill:none;stroke:#231f20;stroke-width:0.5;stroke-linecap:round;stroke-linejoin:round;stroke-miterlimit:4;stroke-dasharray:2.8, 1.8;stroke-dashoffset:0;stroke-opacity:1"
       id="path1082" />
    <path
       d="m 687.661,492.694 c -0.867,-0.761 0.636,-3.499 11.398,-4.132"
       style="fill:none;stroke:#231f20;stroke-width:0.5;stroke-linecap:round;stroke-linejoin:round;stroke-miterlimit:4;stroke-dasharray:2.8, 1.8;stroke-dashoffset:0;stroke-opacity:1"
       id="path1084" />
    <path
       d="m 500.455,727.539 c 0.255,-4.899 0.918,-27.676 5.537,-30.844"
       style="fill:none;stroke:#231f20;stroke-width:0.5;stroke-linecap:round;stroke-linejoin:round;stroke-miterlimit:4;stroke-dasharray:2.8, 1.8;stroke-dashoffset:0;stroke-opacity:1"
       id="path1086" />
    <path
       d="m 780.102,532.485 -1.768,-29.796"
       style="fill:none;stroke:#231f20;stroke-width:0.5;stroke-linecap:round;stroke-linejoin:round;stroke-miterlimit:4;stroke-dasharray:2.8, 1.8;stroke-dashoffset:0;stroke-opacity:1"
       id="path1088" />
    <path
       d="m 691.792,498.181 c 0.972,2.182 1.828,8.27 1.89,10.626 0.256,9.618 7.73,15.111 11.42,15.665 2.668,0.401 4.772,0.964 9.943,0.309 5.172,-0.654 8.241,-2.112 10.179,-3.409 1.448,-0.968 7.946,-7.19 6.126,-13.103 -2.436,-7.918 -12.082,-20.512 -13.702,-21.965"
       style="fill:none;stroke:#231f20;stroke-width:0.5;stroke-linecap:round;stroke-linejoin:round;stroke-miterlimit:4;stroke-dasharray:2.8, 1.8;stroke-dashoffset:0;stroke-opacity:1"
       id="path1090" />
    <path
       d="m 563.352,715.686 c -0.079,5.411 0.654,9.29 3.81,11.468 3.155,2.178 9.462,4.351 11.648,6.046 2.185,1.694 7.767,5.082 12.86,5.317 5.092,0.235 16.008,1.917 21.825,-0.031 5.818,-1.948 15.566,-4.647 12.978,-15.183"
       style="fill:none;stroke:#231f20;stroke-width:0.5;stroke-linecap:round;stroke-linejoin:round;stroke-miterlimit:4;stroke-dasharray:2.8, 1.8;stroke-dashoffset:0;stroke-opacity:1"
       id="path1092" />
    <path
       d="m 684.217,596.572 c -1.892,-1.258 -9.373,-6.241 -10.509,-13.497"
       style="fill:none;stroke:#231f20;stroke-width:0.5;stroke-linecap:round;stroke-linejoin:round;stroke-miterlimit:4;stroke-dasharray:2.8, 1.8;stroke-dashoffset:0;stroke-opacity:1"
       id="path1094" />
    <path
       d="m 692.018,592.03 c -0.164,-3.68 -4.732,-33.743 -14.432,-33.569 -4.953,0.089 -5.904,8.604 -5.475,12.565"
       style="fill:none;stroke:#231f20;stroke-width:0.5;stroke-linecap:round;stroke-linejoin:round;stroke-miterlimit:4;stroke-dasharray:2.8, 1.8;stroke-dashoffset:0;stroke-opacity:1"
       id="path1096" />
    <path
       d="m 747.075,552.524 c 1.711,-4.106 3.187,-11.516 14.304,-15.036 8.387,-2.654 17.208,-7.299 30.549,-4.165 13.342,3.133 34.692,10.014 47.428,12.664"
       style="fill:none;stroke:#231f20;stroke-width:0.5;stroke-linecap:round;stroke-linejoin:round;stroke-miterlimit:4;stroke-dasharray:2.8, 1.8;stroke-dashoffset:0;stroke-opacity:1"
       id="path1098" />
    <path
       d="m 664.932,795.968 c 2.945,-13.424 4.637,-29.61 4.613,-41.16"
       style="fill:none;stroke:#231f20;stroke-width:0.5;stroke-linecap:round;stroke-linejoin:round;stroke-miterlimit:4;stroke-dasharray:2.8, 1.8;stroke-dashoffset:0;stroke-opacity:1"
       id="path1100" />
    <path
       d="m 559.954,774.937 c 2.903,-4.37 2.414,-7.521 -1.469,-10.184 -3.885,-2.661 -8.247,-0.958 -11.744,3.829 -1.668,2.285 -4.971,9.047 -16.363,12.944 -11.392,3.896 -37.587,0.052 -55.3,-7.198 -17.713,-7.25 -28.398,-17.905 -26.706,-21.787 1.692,-3.883 6.058,-2.919 16.733,0.704 10.676,3.622 29.596,7.476 41.724,9.399 12.128,1.923 17.695,-4.633 24.721,-9.735 7.025,-5.103 16.966,-7.056 16.966,-7.056 0,0 -5.582,-2.903 -16.251,-1.917 -10.669,0.984 -29.583,1.496 -46.567,-5.028 -4.46,-1.713 -8.35,-2.992 -11.996,-3.928"
       style="fill:none;stroke:#231f20;stroke-width:0.5;stroke-linecap:round;stroke-linejoin:round;stroke-miterlimit:4;stroke-dasharray:2.8, 1.8;stroke-dashoffset:0;stroke-opacity:1"
       id="path1102" />
    <path
       d="m 463.068,752.562 c 5.194,3.346 15.386,8.424 25.331,10.107 9.945,1.684 18.919,2.884 22.799,3.121 3.881,0.237 8.247,1.686 15.271,-4.387 7.024,-6.072 14.053,-9.235 20.355,-11.425 6.302,-2.192 7.512,-2.921 7.51,-4.376 -0.002,-1.456 -5.828,-5.569 -17.951,-4.825 -12.124,0.744 -22.064,2.699 -32.008,1.015 -9.945,-1.684 -25.347,-6.352 -31.656,-9.01"
       style="fill:none;stroke:#231f20;stroke-width:0.5;stroke-linecap:round;stroke-linejoin:round;stroke-miterlimit:4;stroke-dasharray:2.8, 1.8;stroke-dashoffset:0;stroke-opacity:1"
       id="path1104" />
    <path
       d="m 616.467,778.198 c -2.928,-8.914 -11.962,-26.209 -17.291,-35.371"
       style="fill:none;stroke:#231f20;stroke-width:0.5;stroke-linecap:round;stroke-linejoin:round;stroke-miterlimit:4;stroke-dasharray:2.8, 1.8;stroke-dashoffset:0;stroke-opacity:1"
       id="path1106" />
    <path
       d="m 557.186,755.28 c 0,0 0.564,4.139 1.299,9.473"
       style="fill:none;stroke:#231f20;stroke-width:0.5;stroke-linecap:round;stroke-linejoin:round;stroke-miterlimit:4;stroke-dasharray:2.8, 1.8;stroke-dashoffset:0;stroke-opacity:1"
       id="path1108" />
    <path
       d="m 561.606,771.463 c 4.396,-6.72 16.793,-15.379 41.62,-21.4"
       style="fill:none;stroke:#231f20;stroke-width:0.5;stroke-linecap:round;stroke-linejoin:round;stroke-miterlimit:4;stroke-dasharray:2.8, 1.8;stroke-dashoffset:0;stroke-opacity:1"
       id="path1110" />
    <path
       d="m 498.575,756.35 c 7.752,0.603 19.404,2.398 19.396,-2.937 -0.008,-5.335 -14.553,-2.162 -27.168,-5.539 -12.615,-3.377 -26.691,-11.118 -39.543,-10.857 -12.852,0.26 -24.241,5.854 -25.445,12.161 -1.204,6.306 9.973,21.568 21.138,28.585 11.165,7.016 27.665,14.511 41.249,17.159 13.584,2.649 30.079,6.506 40.261,4.308 10.182,-2.196 20.359,-8.273 24.473,-13.128 4.116,-4.857 8.232,-10.683 7.018,-11.165 -1.213,-0.484 -3.489,2.689 -6.295,6.798 -2.986,4.369 -5.084,6.959 -12.353,10.687 -7.084,3.634 -12.601,6.162 -20.848,5.365 -9.383,-0.907 -23.929,-2.23 -41.882,-8.024 -17.954,-5.795 -30.576,-14.507 -36.89,-21.127 -6.315,-6.619 -8.749,-13.729 -7.3,-17.773 1.449,-4.044 10.978,-10.524 19.386,-9.566 8.408,0.958 20.898,7.471 24.388,9.412 6.832,3.801 15.241,5.239 20.415,5.641 z"
       style="fill:none;stroke:#231f20;stroke-width:0.5;stroke-linecap:round;stroke-linejoin:round;stroke-miterlimit:4;stroke-dasharray:2.8, 1.8;stroke-dashoffset:0;stroke-opacity:1"
       id="path1112" />
    <path
       d="m 447.25,773.647 c -5.405,-6.466 -9.299,-16.483 -7.85,-20.527 1.45,-4.045 11.736,-12.736 40.563,-1.484"
       style="fill:none;stroke:#231f20;stroke-width:0.5;stroke-linecap:round;stroke-linejoin:round;stroke-miterlimit:4;stroke-dasharray:2.8, 1.8;stroke-dashoffset:0;stroke-opacity:1"
       id="path1114" />
    <path
       d="m 563.278,794.615 -3.324,-19.678"
       style="fill:none;stroke:#231f20;stroke-width:0.5;stroke-linecap:round;stroke-linejoin:round;stroke-miterlimit:4;stroke-dasharray:2.8, 1.8;stroke-dashoffset:0;stroke-opacity:1"
       id="path1116" />
    <path
       d="m 443.549,775.373 2.669,-2.378"
       style="fill:none;stroke:#231f20;stroke-width:0.5;stroke-linecap:round;stroke-linejoin:round;stroke-miterlimit:4;stroke-dasharray:2.8, 1.8;stroke-dashoffset:0;stroke-opacity:1"
       id="path1118" />
    <path
       d="m 456.426,783.149 2.388,-1.882"
       style="fill:none;stroke:#231f20;stroke-width:0.5;stroke-linecap:round;stroke-linejoin:round;stroke-miterlimit:4;stroke-dasharray:2.8, 1.8;stroke-dashoffset:0;stroke-opacity:1"
       id="path1120" />
    <path
       d="m 736.483,627.361 c -0.498,-0.286 -1.12,-0.594 -1.895,-0.918 -4.902,-2.045 -12.294,-5.804 -19.568,-4.176 -7.271,1.627 -9.855,3.571 -10.98,9.554 -1.124,5.983 0.517,22.309 8.601,22.298 8.084,-0.012 7.106,-5.831 16.151,-9.562 9.05,-3.73 14.708,-4.223 20.049,0.619 5.343,4.842 3.083,8.24 1.63,10.021 -1.451,1.781 -12.592,12.304 -16.469,14.411 -3.876,2.108 -4.685,2.27 -9.698,1.308 -5.012,-0.963 -8.085,-1.121 -10.02,2.438 -1.936,3.56 2.758,6.949 6.482,10.015 3.721,3.067 8.9,6.615 10.358,7.907 1.456,1.291 3.56,4.037 -0.475,8.084 -4.035,4.048 -11.303,9.555 -6.439,18.924 4.863,9.369 12.472,18.574 18.131,17.919 5.659,-0.655 10.974,-12.787 11.605,-24.913 0.629,-12.125 -4.072,-21.173 -0.531,-32.494 3.54,-11.321 9.027,-18.762 17.761,-16.515 8.733,2.247 8.098,11.467 4.715,20.364 -3.383,8.896 3.436,27.316 4.09,32.812 0.654,5.496 0.99,14.387 -3.848,23.771 -4.836,9.382 -4.828,15.526 -1.101,21.665 3.726,6.137 13.437,12.59 22.494,14.679 9.055,2.089 13.418,1.598 10.016,-5.025 -3.407,-6.624 -8.756,-17.933 -10.385,-26.014 -1.627,-8.081 0.472,-10.185 4.189,-10.838 3.717,-0.652 9.383,4.837 14.24,10.327 4.858,5.489 5.965,8.252 9.643,16.719 2.943,6.776 6.322,13.086 14.324,11.619 8,-1.465 15.274,-2.931 16.971,-3.176 1.697,-0.245 4.844,-3.644 1.201,-7.034 -3.641,-3.39 -10.191,-5.563 -25.006,-21.305 -14.816,-15.741 -37.398,-37.049 -31.109,-48.455 6.289,-11.407 24.258,6.028 31.789,14.505 7.529,8.477 25.74,25.183 28.902,31.969 3.162,6.785 7.301,18.662 12.151,17.443 4.847,-1.22 3.625,-8.493 0.711,-10.671 -2.914,-2.179 -5.584,-4.843 -3.889,-6.543 1.695,-1.699 8.006,2.657 12.615,4.105 4.61,1.449 9.934,-5.834 4.11,-8.493 -5.823,-2.659 -14.797,-4.587 -16.993,-13.313 -2.195,-8.727 -8.521,-23.026 -21.138,-29.313 -12.619,-6.287 -33.256,-23.719 -30.362,-34.392 2.895,-10.674 24.244,-4.157 42.459,14.975 18.215,19.131 20.161,22.767 23.567,30.522 3.404,7.755 7.543,18.176 8.517,21.57 0.975,3.394 3.885,3.632 6.061,-0.979 2.176,-4.609 8.867,-17.714 9.172,-30.325 0.201,-8.244 -3.885,-4.521 -8.088,-4.677 -4.205,-0.155 -7.6,-0.312 -13.43,-6.932 -5.828,-6.621 -6.967,-11.631 -4.066,-17.94 2.902,-6.309 11.467,-8.423 17.291,-4.227 5.826,4.195 8.58,8.232 13.908,2.243 5.326,-5.989 7.092,-14.884 4.486,-28.783 -2.607,-13.9 -11.363,-32.479 -18.785,-21.799 -7.422,10.681 -17.424,26.215 -19.68,30.098 -2.259,3.883 -8.394,8.742 -12.769,1.473 -4.375,-7.269 -11.338,-14.211 -20.07,-15.491 -8.733,-1.282 -11.637,0.339 -15.84,1.477 -4.203,1.137 -10.018,4.378 -12.942,-4.832 -2.921,-9.211 -0.673,-18.751 6.76,-21.511 7.434,-2.759 15.201,1.11 18.272,0.621 3.068,-0.49 5.168,-1.947 13.42,1.76 8.248,3.706 16.195,7.595 17.134,-2.126 0.795,-8.247 2.248,-10.027 4.668,-12.94 2.42,-2.913 5.485,-9.222 -0.502,-11.639 -5.984,-2.417 -10.666,0.662 -16.324,1.478 -5.658,0.816 -11.482,-2.087 -18.59,1.642 -7.107,3.729 -11.152,3.087 -16.16,5.843 -3.408,1.875 -7.49,3.751 -8.627,4.809"
       style="fill:none;stroke:#231f20;stroke-width:0.75;stroke-linecap:round;stroke-linejoin:round;stroke-miterlimit:4;stroke-dasharray:0, 2;stroke-dashoffset:0;stroke-opacity:1"
       id="path1122" />
  </g>
</svg>
