<?xml version="1.0" encoding="UTF-8" standalone="no"?>
<!-- Created with Inkscape (http://www.inkscape.org/) -->

<svg
   version="1.1"
   id="svg2"
   width="1440"
   height="1344"
   viewBox="0 0 1440 1344"
   xmlns="http://www.w3.org/2000/svg"
   xmlns:svg="http://www.w3.org/2000/svg">
  <defs
     id="defs6" />
  <g
     id="g8">
    <path
       d="m 710.704,660.874 c -17.22,-19.135 -44.31,-43.972 -52.737,-48.929 -8.425,-4.956 -23.139,-11.205 -36.701,-31.991 -13.56,-20.786 -14.917,-28.563 -24.708,-40.571 -9.791,-12.007 -14.813,-17.648 -14.942,-26.622 -0.129,-8.976 -1.301,-12.144 -4.881,-16.797 -3.578,-4.653 -11.799,-6.697 -17.58,-9.679 -5.785,-2.984 -13.492,-7.205 -20.966,-10.695 -7.474,-3.489 -31.363,-13.006 -40.098,-12.632 -8.736,0.374 -15.028,-0.675 -22.035,-2.705 -7.008,-2.027 -40.12,-10.934 -59.013,-12.871 -18.891,-1.935 -38.799,-0.248 -63.424,10.112 -24.626,10.36 -46.166,26.093 -67.204,40.379 -21.037,14.285 -40.92,33.193 -53.495,49.525 -12.575,16.332 -23.038,19.111 -35.93,41.26 -12.89,22.148 -14.447,30.132 -10.146,35.28 4.301,5.146 15.727,2.866 15.727,2.866 -12.722,8.812 -40.162,30.777 -53.731,68.196 -13.568,37.419 -6.953,70.485 8.51,94.205 15.464,23.72 48.613,29.717 61.913,32.795 13.3,3.078 45.93,11.737 59.485,13.848 13.554,2.111 75.97,14.299 98.954,18.713 22.983,4.413 62.573,18.98 99.905,20.179 37.333,1.199 77.809,3.166 121.554,-4.042 43.745,-7.208 73.939,-17.012 97.114,-27.633 23.174,-10.62 46.61,-22.935 51.044,-28.214 4.431,-5.279 17.332,-28.155 21.851,-40.467 4.523,-12.311 2.342,-31.74 1.204,-37.575 -1.139,-5.835 -7.55,-16.587 -13.045,-23.205 -5.495,-6.617 -18.411,-20.846 -27.254,-31.144 0,0 -2.153,-2.452 -19.371,-21.586 z M 576.795,551.71 c 5.808,1.044 18.363,8.837 28.533,22.869 6.102,8.419 13.561,19.88 20.146,29.769 6.271,9.276 15.966,29.863 12.46,51.16 -3.502,21.297 -10.184,38.351 -11.18,40.279 -0.583,1.386 -1.349,2.986 -2.227,4.667 -0.161,-7.447 -4.138,-25.443 -5.551,-28.856 -1.411,-3.413 -3.311,-6.51 -8.658,-5.769 -5.345,0.741 -9.068,1.179 -11.038,1.112 1.48,-1.012 2.685,-2.044 3.466,-3.148 3.338,-4.725 7.03,-15.898 3.273,-27.326 4.136,-20.588 -3.677,-30.237 -9.783,-33.225 -6.107,-2.987 -19.445,-9.299 -29.253,-13.627 -5.23,-2.307 -9.418,-3.669 -12.709,-4.527 16.291,4.051 25.221,-0.098 28.994,-4.805 4.106,-5.122 3.299,-17.905 -3.711,-26.078 -0.878,-1.022 -1.888,-1.903 -2.996,-2.664"
       style="fill:#ffffff;fill-opacity:1;fill-rule:nonzero;stroke:none;stroke-width:0.1"
       id="path728" />
    <path
       d="m 710.704,660.874 c -17.22,-19.135 -44.31,-43.972 -52.737,-48.929 -8.425,-4.956 -23.139,-11.205 -36.701,-31.991 -13.56,-20.786 -14.917,-28.563 -24.708,-40.571 -9.791,-12.007 -14.813,-17.648 -14.942,-26.622 -0.129,-8.976 -1.301,-12.144 -4.881,-16.797 -3.578,-4.653 -11.799,-6.697 -17.58,-9.679 -5.785,-2.984 -13.492,-7.205 -20.966,-10.695 -7.474,-3.489 -31.363,-13.006 -40.098,-12.632 -8.736,0.374 -15.028,-0.675 -22.035,-2.705 -7.008,-2.027 -40.12,-10.934 -59.013,-12.871 -18.891,-1.935 -38.799,-0.248 -63.424,10.112 -24.626,10.36 -46.166,26.093 -67.204,40.379 -21.037,14.285 -40.92,33.193 -53.495,49.525 -12.575,16.332 -23.038,19.111 -35.93,41.26 -12.89,22.148 -14.447,30.132 -10.146,35.28 4.301,5.146 15.727,2.866 15.727,2.866 -12.722,8.812 -40.162,30.777 -53.731,68.196 -13.568,37.419 -6.953,70.485 8.51,94.205 15.464,23.72 48.613,29.717 61.913,32.795 13.3,3.078 45.93,11.737 59.485,13.848 13.554,2.111 75.97,14.299 98.954,18.713 22.983,4.413 62.573,18.98 99.905,20.179 37.333,1.199 77.809,3.166 121.554,-4.042 43.745,-7.208 73.939,-17.012 97.114,-27.633 23.174,-10.62 46.61,-22.935 51.044,-28.214 4.431,-5.279 17.332,-28.155 21.851,-40.467 4.523,-12.311 2.342,-31.74 1.204,-37.575 -1.139,-5.835 -7.55,-16.587 -13.045,-23.205 -5.495,-6.617 -18.411,-20.846 -27.254,-31.144 0,0 -2.153,-2.452 -19.371,-21.586 z M 576.795,551.71 c 5.808,1.044 18.363,8.837 28.533,22.869 6.102,8.419 13.561,19.88 20.146,29.769 6.271,9.276 15.966,29.863 12.46,51.16 -3.502,21.297 -10.184,38.351 -11.18,40.279 -0.583,1.386 -1.349,2.986 -2.227,4.667 -0.161,-7.447 -4.138,-25.443 -5.551,-28.856 -1.411,-3.413 -3.311,-6.51 -8.658,-5.769 -5.345,0.741 -9.068,1.179 -11.038,1.112 1.48,-1.012 2.685,-2.044 3.466,-3.148 3.338,-4.725 7.03,-15.898 3.273,-27.326 4.136,-20.588 -3.677,-30.237 -9.783,-33.225 -6.107,-2.987 -19.445,-9.299 -29.253,-13.627 -5.23,-2.307 -9.418,-3.669 -12.709,-4.527 16.291,4.051 25.221,-0.098 28.994,-4.805 4.106,-5.122 3.299,-17.905 -3.711,-26.078 -0.878,-1.022 -1.888,-1.903 -2.996,-2.664"
       style="fill:none;stroke:#231f20;stroke-width:0.75;stroke-linecap:butt;stroke-linejoin:miter;stroke-miterlimit:4;stroke-dasharray:none;stroke-opacity:1"
       id="path730" />
    <path
       d="m 799.665,547.161 c -3.579,-2.811 -6.752,-1.884 -9.002,-0.383 2.407,-1.382 4.668,-3.293 6.359,-5.992 3.525,-5.622 0.464,-11.15 -3.652,-17.993 -4.118,-6.842 -9.779,-19.525 -14.231,-25.403 -4.451,-5.877 -15.15,-16.519 -23.791,-23.582 -8.642,-7.061 -20.467,-5.269 -26.646,-2.437 -6.18,2.832 -9.408,2.466 -13.29,2.581 -3.882,0.112 -15.851,0.284 -25.276,4.206 -9.426,3.924 -13.54,9.531 -19.136,17.382 -5.597,7.85 -11.231,18.612 -11.832,27.82 -0.602,9.209 8.096,24.678 15.895,34.316 7.801,9.639 19.058,14.469 21.422,19.348 2.365,4.881 9.181,15.477 9.973,16.78 0.794,1.303 5.302,2.654 5.302,2.654 -2.58,-0.518 -5.49,-0.554 -6.782,-0.571 -1.294,-0.016 -6.113,10.27 -4.675,24.516 1.436,14.246 4.711,23.665 13.46,35.094 8.747,11.428 17.331,10.243 17.331,10.243 -1.479,1.921 -2.478,4.173 0.351,10.675 2.829,6.502 18.112,25.289 26.089,33.636 7.978,8.346 10.398,8.862 14.738,10.857 4.34,1.994 5.339,-0.256 5.339,-0.256 4.891,22.373 31.864,24.493 44.004,23.353 12.14,-1.14 31.608,-6.391 34.875,-8.937 3.267,-2.546 -0.738,-5.668 -0.738,-5.668 27.229,7.62 30.374,-10.934 30.374,-10.934 10.256,7.243 16.611,3.282 20.678,1.232 4.069,-2.051 7.499,-4.756 8.562,-12.179 1.064,-7.424 -0.625,-14.398 -1.893,-16.516 -1.267,-2.117 -1.089,-3.409 -1.089,-3.409 3.878,0.211 5.871,-3.967 7.237,-9.771 1.368,-5.803 -0.112,-16.655 -1.495,-22.331 -1.382,-5.677 -4.168,-15.574 -4.766,-19.461 -0.599,-3.888 0.401,-5.606 1.08,-8.718 1.013,-4.638 2.276,-13.875 -0.866,-21.028 -3.144,-7.154 -7.298,-10.926 -9.068,-11.756 -1.769,-0.83 -5.5,0.254 -5.5,0.254 6.877,-6.865 2.13,-27.783 0.436,-34.433 -1.693,-6.65 -2.8,-8.766 -7.066,-16.5 -4.884,-8.849 -8.935,-15.876 -14.488,-17.887 -5.553,-2.01 -9.05,-0.357 -11.496,1.31 -2.445,1.667 -2.707,3.119 -3.014,8.207 -0.307,5.09 -3.778,11.109 -3.778,11.109 0,0 -1.197,-1.228 1.036,-5.323 2.237,-4.095 2.039,-7.734 1.856,-12.344 -0.184,-4.611 -3.326,-5.62 -11.076,-6.446 -7.748,-0.826 -14.124,4.672 -16.352,8.281 -2.23,3.61 -5.477,11.087 -9.929,18.064 4.852,-8.48 1.909,-12.895 -0.068,-13.825 -3.979,-1.869 -14.912,9.27 -14.912,9.27 -1.073,-1.831 -6.913,-2.982 -10.49,2.895"
       style="fill:#ffffff;fill-opacity:1;fill-rule:nonzero;stroke:none;stroke-width:0.1"
       id="path732" />
    <path
       d="m 799.665,547.161 c -3.579,-2.811 -6.752,-1.884 -9.002,-0.383 2.407,-1.382 4.668,-3.293 6.359,-5.992 3.525,-5.622 0.464,-11.15 -3.652,-17.993 -4.118,-6.842 -9.779,-19.525 -14.231,-25.403 -4.451,-5.877 -15.15,-16.519 -23.791,-23.582 -8.642,-7.061 -20.467,-5.269 -26.646,-2.437 -6.18,2.832 -9.408,2.466 -13.29,2.581 -3.882,0.112 -15.851,0.284 -25.276,4.206 -9.426,3.924 -13.54,9.531 -19.136,17.382 -5.597,7.85 -11.231,18.612 -11.832,27.82 -0.602,9.209 8.096,24.678 15.895,34.316 7.801,9.639 19.058,14.469 21.422,19.348 2.365,4.881 9.181,15.477 9.973,16.78 0.794,1.303 5.302,2.654 5.302,2.654 -2.58,-0.518 -5.49,-0.554 -6.782,-0.571 -1.294,-0.016 -6.113,10.27 -4.675,24.516 1.436,14.246 4.711,23.665 13.46,35.094 8.747,11.428 17.331,10.243 17.331,10.243 -1.479,1.921 -2.478,4.173 0.351,10.675 2.829,6.502 18.112,25.289 26.089,33.636 7.978,8.346 10.398,8.862 14.738,10.857 4.34,1.994 5.339,-0.256 5.339,-0.256 4.891,22.373 31.864,24.493 44.004,23.353 12.14,-1.14 31.608,-6.391 34.875,-8.937 3.267,-2.546 -0.738,-5.668 -0.738,-5.668 27.229,7.62 30.374,-10.934 30.374,-10.934 10.256,7.243 16.611,3.282 20.678,1.232 4.069,-2.051 7.499,-4.756 8.562,-12.179 1.064,-7.424 -0.625,-14.398 -1.893,-16.516 -1.267,-2.117 -1.089,-3.409 -1.089,-3.409 3.878,0.211 5.871,-3.967 7.237,-9.771 1.368,-5.803 -0.112,-16.655 -1.495,-22.331 -1.382,-5.677 -4.168,-15.574 -4.766,-19.461 -0.599,-3.888 0.401,-5.606 1.08,-8.718 1.013,-4.638 2.276,-13.875 -0.866,-21.028 -3.144,-7.154 -7.298,-10.926 -9.068,-11.756 -1.769,-0.83 -5.5,0.254 -5.5,0.254 6.877,-6.865 2.13,-27.783 0.436,-34.433 -1.693,-6.65 -2.8,-8.766 -7.066,-16.5 -4.884,-8.849 -8.935,-15.876 -14.488,-17.887 -5.553,-2.01 -9.05,-0.357 -11.496,1.31 -2.445,1.667 -2.707,3.119 -3.014,8.207 -0.307,5.09 -3.778,11.109 -3.778,11.109 0,0 -1.197,-1.228 1.036,-5.323 2.237,-4.095 2.039,-7.734 1.856,-12.344 -0.184,-4.611 -3.326,-5.62 -11.076,-6.446 -7.748,-0.826 -14.124,4.672 -16.352,8.281 -2.23,3.61 -5.477,11.087 -9.929,18.064 4.852,-8.48 1.909,-12.895 -0.068,-13.825 -3.979,-1.869 -14.912,9.27 -14.912,9.27 -1.073,-1.831 -6.913,-2.982 -10.49,2.895 z"
       style="fill:none;stroke:#231f20;stroke-width:0.75;stroke-linecap:butt;stroke-linejoin:miter;stroke-miterlimit:4;stroke-dasharray:none;stroke-opacity:1"
       id="path734" />
    <path
       d="m 621.586,631.373 c 4.813,2.189 1.802,10.855 -3.18,8.689 -4.985,-2.165 -0.837,-10.519 3.18,-8.689"
       style="fill:#ffffff;fill-opacity:1;fill-rule:nonzero;stroke:none;stroke-width:0.1"
       id="path736" />
    <path
       d="m 621.586,631.373 c 4.813,2.189 1.802,10.855 -3.18,8.689 -4.985,-2.165 -0.837,-10.519 3.18,-8.689 z"
       style="fill:none;stroke:#231f20;stroke-width:0.5;stroke-linecap:butt;stroke-linejoin:miter;stroke-miterlimit:4;stroke-dasharray:none;stroke-opacity:1"
       id="path738" />
    <path
       d="m 624.51,700.485 c -3.568,6.827 -9.183,15.402 -13.495,19.031 -5.393,4.539 -14.636,6.606 -20.987,10.405 -6.355,3.8 -34.822,30.36 -79.977,14.753"
       style="fill:none;stroke:#231f20;stroke-width:0.5;stroke-linecap:butt;stroke-linejoin:miter;stroke-miterlimit:4;stroke-dasharray:none;stroke-opacity:1"
       id="path740" />
    <path
       d="m 581.477,696.346 c 3.701,-2.511 9.287,-5.541 13.643,-4.84 4.357,0.702 9.306,5.614 7.795,10.123 -1.512,4.508 -11.28,9.72 -19.758,15.433 -8.481,5.713 -22.024,15.404 -34.661,17.67 -12.64,2.265 -26.711,2.573 -28.648,2.387 -1.938,-0.187 -3.424,2.219 -0.52,2.741 2.903,0.522 17.609,1.032 27.987,-1.424 10.381,-2.456 17.844,-4.464 26.496,-11.144 8.653,-6.682 15.338,-10.962 21.506,-12.986 6.169,-2.025 11.059,-5.034 13.868,-9.849 2.808,-4.815 3.692,-10.786 -1.757,-14.574 -5.45,-3.787 -12.847,-6.791 -18.871,-3.634 -6.022,3.158 -11.857,8.021 -13.043,8.728 -3.992,2.375 -11.656,5.067 -11.602,7.89 0.024,1.294 2.92,0.191 7.454,-1.361 4.261,-1.457 6.713,-2.855 10.111,-5.16 z"
       style="fill:none;stroke:#231f20;stroke-width:0.5;stroke-linecap:butt;stroke-linejoin:miter;stroke-miterlimit:4;stroke-dasharray:none;stroke-opacity:1"
       id="path742" />
    <path
       d="m 576.569,675.427 c 7.641,-2.314 17.178,-5.002 22.681,-8.53"
       style="fill:none;stroke:#231f20;stroke-width:0.75;stroke-linecap:butt;stroke-linejoin:miter;stroke-miterlimit:4;stroke-dasharray:none;stroke-opacity:1"
       id="path744" />
    <path
       d="m 482.026,713.632 c 5.287,1.63 7.2,3.051 17.883,2.054 10.683,-0.996 26.229,-2.901 33.687,-4.586 7.457,-1.684 17.694,-5.597 23.469,-14.74 5.773,-9.143 9.766,-17.984 19.502,-20.941 -2.048,0.4 -4.896,-0.441 -8.052,-2.357 -3.057,-1.009 -8.658,-5.769 -10.27,-6.112 -1.612,-0.344 -3.92,3.344 -2.963,5.167 3.861,8.526 1.074,20.743 -5.867,28.189 -9.833,10.546 -37.013,11.819 -48.991,12.962 -6.526,0.622 -12.758,0.864 -18.398,0.364 z"
       style="fill:none;stroke:#231f20;stroke-width:0.75;stroke-linecap:butt;stroke-linejoin:miter;stroke-miterlimit:4;stroke-dasharray:none;stroke-opacity:1"
       id="path746" />
    <path
       d="m 423.102,703.559 c -5.86,-8.922 6.533,-18.025 17.464,-13.037 4.772,2.178 9.398,5.731 13.592,9.183"
       style="fill:none;stroke:#231f20;stroke-width:0.5;stroke-linecap:butt;stroke-linejoin:miter;stroke-miterlimit:4;stroke-dasharray:none;stroke-opacity:1"
       id="path748" />
    <path
       d="m 423.102,703.559 c 5.427,5.566 10.914,14.641 15.06,23.796 3.459,7.641 6.24,14.499 9.574,20.315 4.241,8.386 10.346,18.429 14.018,20.745 -7.813,-4.693 -13.808,-9.69 -18.1,-15.122 -5.69,-7.2 -10.498,-11.404 -16.822,-13.468 4.122,-5.124 9.754,-15.739 -3.73,-36.266"
       style="fill:#706d6e;fill-opacity:1;fill-rule:nonzero;stroke:none;stroke-width:0.1"
       id="path750" />
    <path
       d="m 423.102,703.559 c 5.427,5.566 10.914,14.641 15.06,23.796 3.459,7.641 6.24,14.499 9.574,20.315 4.241,8.386 10.346,18.429 14.018,20.745 -7.813,-4.693 -13.808,-9.69 -18.1,-15.122 -5.69,-7.2 -10.498,-11.404 -16.822,-13.468 4.122,-5.124 9.754,-15.739 -3.73,-36.266 z"
       style="fill:none;stroke:#231f20;stroke-width:0.75;stroke-linecap:butt;stroke-linejoin:miter;stroke-miterlimit:4;stroke-dasharray:none;stroke-opacity:1"
       id="path752" />
    <path
       d="m 426.845,739.829 c -4.281,-1.398 -9.254,-1.809 -15.661,-1.497 -15.855,0.769 -42.346,-1.183 -75.601,-5.16 -33.256,-3.976 -53.846,-12.321 -61.147,-23.084 -7.301,-10.763 -10.108,-23.976 -6,-36.939 3.368,-10.628 -1.155,-11.008 4.522,-25.165 1.424,-3.552 2.664,-7.006 3.75,-10.313"
       style="fill:none;stroke:#231f20;stroke-width:0.5;stroke-linecap:butt;stroke-linejoin:miter;stroke-miterlimit:4;stroke-dasharray:none;stroke-opacity:1"
       id="path754" />
    <path
       d="m 651.721,735.965 c -5.506,6.307 -13.892,17.519 -24.163,24.18 -7.758,5.032 -39.684,18.577 -55.587,23.226 -15.903,4.649 -46.046,10.088 -73.416,1.012 -15.068,-4.997 -27.29,-10.252 -36.827,-15.983"
       style="fill:none;stroke:#231f20;stroke-width:0.5;stroke-linecap:butt;stroke-linejoin:miter;stroke-miterlimit:4;stroke-dasharray:none;stroke-opacity:1"
       id="path756" />
    <path
       d="m 590.819,776.85 c 9.705,-1.203 19.449,-4.636 34.072,-10.271 14.621,-5.636 33.758,-10.245 45.103,-12.365"
       style="fill:none;stroke:#231f20;stroke-width:0.5;stroke-linecap:butt;stroke-linejoin:miter;stroke-miterlimit:4;stroke-dasharray:none;stroke-opacity:1"
       id="path758" />
    <path
       d="m 428.391,710.023 c 2.135,-5.399 8.491,-12.067 25.767,-10.318 5.235,4.308 10.223,8.839 14.933,10.903 3.807,1.667 8.159,2.604 12.901,3.023"
       style="fill:none;stroke:#231f20;stroke-width:0.75;stroke-linecap:butt;stroke-linejoin:miter;stroke-miterlimit:4;stroke-dasharray:none;stroke-opacity:1"
       id="path760" />
    <path
       d="m 202.571,626.804 c 9.24,-1.824 27.336,-13.721 29.567,-17.573"
       style="fill:none;stroke:#231f20;stroke-width:0.75;stroke-linecap:butt;stroke-linejoin:miter;stroke-miterlimit:4;stroke-dasharray:none;stroke-opacity:1"
       id="path762" />
    <path
       d="m 186.916,608.371 c 3.082,-4.373 5.308,-7.163 7.772,-10.285 14.518,-18.386 63.778,-57.155 82.682,-75.348 23.234,-22.36 50.747,-41.091 56.595,-45.364 12.729,-9.296 26.078,-22.486 28.761,-23.398"
       style="fill:none;stroke:#231f20;stroke-width:0.5;stroke-linecap:butt;stroke-linejoin:miter;stroke-miterlimit:4;stroke-dasharray:none;stroke-opacity:1"
       id="path764" />
    <path
       d="m 356.812,550.177 c 4.466,-0.222 9.3,-6.673 9.094,-9.586 -0.205,-2.913 -2.882,-2.219 -6.777,-1.055 -3.895,1.163 -9.257,3.277 -12.415,3.723 -3.158,0.445 -9.214,-0.117 -9.009,2.797 0.105,1.471 15.224,4.314 19.107,4.121 z"
       style="fill:none;stroke:#231f20;stroke-width:0.5;stroke-linecap:butt;stroke-linejoin:miter;stroke-miterlimit:4;stroke-dasharray:none;stroke-opacity:1"
       id="path766" />
    <path
       d="m 465.487,557.958 c -3.28,-0.274 -6.613,-0.329 -9.823,-0.145 -11.488,0.664 -17.196,4.473 -16.432,8.038 0.763,3.566 8.136,8.672 19.339,4.933 11.203,-3.739 18.773,-5.18 30.601,-5.231"
       style="fill:none;stroke:#231f20;stroke-width:0.5;stroke-linecap:butt;stroke-linejoin:miter;stroke-miterlimit:4;stroke-dasharray:none;stroke-opacity:1"
       id="path768" />
    <path
       d="m 465.504,557.962 c 3.937,-2.885 6.973,-6.444 7.773,-12.214 0.557,-4.006 3.055,-18.07 17.933,-16.898 -4.822,5.722 -7.044,12.549 -7.114,18.005 -0.102,8.083 6.403,17.865 9.074,21.003 -2.46,-1.348 -4.628,-2.643 -6.381,-3.831 -4.735,-3.205 -12.843,-5.362 -21.285,-6.065"
       style="fill:#706d6e;fill-opacity:1;fill-rule:nonzero;stroke:none;stroke-width:0.1"
       id="path770" />
    <path
       d="m 465.504,557.962 c 3.937,-2.885 6.973,-6.444 7.773,-12.214 0.557,-4.006 3.055,-18.07 17.933,-16.898 -4.822,5.722 -7.044,12.549 -7.114,18.005 -0.102,8.083 6.403,17.865 9.074,21.003 -2.46,-1.348 -4.628,-2.643 -6.381,-3.831 -4.735,-3.205 -12.843,-5.362 -21.285,-6.065 z"
       style="fill:none;stroke:#231f20;stroke-width:0.75;stroke-linecap:butt;stroke-linejoin:miter;stroke-miterlimit:4;stroke-dasharray:none;stroke-opacity:1"
       id="path772" />
    <path
       d="m 554.284,585.092 c -2.875,-0.748 -5.053,-1.11 -6.627,-1.38 -3.375,-0.578 -14.844,-2.612 -26.626,-4.216 -1.2,-0.164 -2.514,-0.336 -3.893,-0.52 -8.356,-3.193 -17.241,-7.427 -23.976,-11.122"
       style="fill:none;stroke:#231f20;stroke-width:0.75;stroke-linecap:butt;stroke-linejoin:miter;stroke-miterlimit:4;stroke-dasharray:none;stroke-opacity:1"
       id="path774" />
    <path
       d="m 595.851,563.721 c 1.22,1.204 15.245,-2.647 3.778,-20.335"
       style="fill:none;stroke:#231f20;stroke-width:0.5;stroke-linecap:butt;stroke-linejoin:miter;stroke-miterlimit:4;stroke-dasharray:none;stroke-opacity:1"
       id="path776" />
    <path
       d="m 528.88,546.936 c 4.682,0.544 14.867,0.673 21.501,0.272 5.803,-0.351 18.42,-0.989 26.18,4.333"
       style="fill:none;stroke:#231f20;stroke-width:0.5;stroke-linecap:butt;stroke-linejoin:miter;stroke-miterlimit:4;stroke-dasharray:none;stroke-opacity:1"
       id="path778" />
    <path
       d="m 520.409,513.854 c 1.243,3.726 5.999,11.224 12.779,12.118 6.778,0.893 26.314,3.081 32.272,5.096 5.956,2.015 15.21,7.023 9.584,7.168"
       style="fill:none;stroke:#231f20;stroke-width:0.5;stroke-linecap:round;stroke-linejoin:round;stroke-miterlimit:4;stroke-dasharray:2.8, 1.8;stroke-dashoffset:0;stroke-opacity:1"
       id="path780" />
    <path
       d="m 458.571,570.784 c 5.82,0.073 16.94,2.963 22.426,3.84 4.926,0.788 23.793,2.796 36.122,4.358"
       style="fill:none;stroke:#231f20;stroke-width:0.5;stroke-linecap:butt;stroke-linejoin:miter;stroke-miterlimit:4;stroke-dasharray:none;stroke-opacity:1"
       id="path782" />
    <path
       d="m 547.657,583.712 c 2.419,0.354 4.474,4.099 2.498,6.984 -1.978,2.886 -6.903,8.804 -13.046,8.727 -6.142,-0.078 -22.459,-1.091 -31.837,-1.049 -9.378,0.043 -29.757,0.595 -41.899,1.896 -12.143,1.302 -28.863,6.588 -33.119,10.738 -4.255,4.149 -13.149,16.972 -13.983,31.835 -0.834,14.864 0.819,24.747 2.389,28.486 1.569,3.738 6.499,10.268 13.912,12.14 7.414,1.872 16.116,4.085 20.447,6.887 4.329,2.804 8.877,11.273 2.677,10.626"
       style="fill:none;stroke:#231f20;stroke-width:0.5;stroke-linecap:butt;stroke-linejoin:miter;stroke-miterlimit:4;stroke-dasharray:none;stroke-opacity:1"
       id="path784" />
    <path
       d="m 474.157,699.268 c 4.455,-0.019 12.867,-3.51 18.372,-13.748 4.893,-9.099 8.933,-16.054 13.315,-17.293 4.381,-1.237 14.598,-3.695 16.935,-9.486 2.336,-5.791 3.103,-15.321 -5.524,-23.513 -8.628,-8.194 -30.341,-17.038 -32.171,-13.019 -1.877,4.123 4.589,7.82 8.126,9.481 3.536,1.661 14.329,4.708 18.299,10.417 3.97,5.708 2.625,9.734 0.811,12.621 -1.815,2.887 -4.757,5.437 -9.949,6.826 -5.191,1.39 -7.81,3.944 -10.802,10.374 -2.991,6.429 -7.876,16.355 -15.302,18.219"
       style="fill:none;stroke:#231f20;stroke-width:0.5;stroke-linecap:butt;stroke-linejoin:miter;stroke-miterlimit:4;stroke-dasharray:none;stroke-opacity:1"
       id="path786" />
    <path
       d="m 422.496,702.49 c 1.378,3.989 2.13,8.365 -1.119,9.617 -3.249,1.252 -7.539,-4.784 -11.919,-16.319 -4.381,-11.535 -5.97,-26.59 -5.569,-58.274 0.4,-31.684 4.468,-39.751 11.122,-48.526 7.892,-10.409 25.862,-15.078 49.435,-17.587"
       style="fill:none;stroke:#231f20;stroke-width:0.5;stroke-linecap:butt;stroke-linejoin:miter;stroke-miterlimit:4;stroke-dasharray:none;stroke-opacity:1"
       id="path788" />
    <path
       d="m 577.252,675.22 c -0.217,0.078 -0.447,0.142 -0.687,0.191"
       style="fill:none;stroke:#231f20;stroke-width:0.5;stroke-linecap:butt;stroke-linejoin:miter;stroke-miterlimit:4;stroke-dasharray:none;stroke-opacity:1"
       id="path790" />
    <path
       d="m 731.094,665.74 c 3.871,-5.53 15.45,-19.934 17.087,-34.222"
       style="fill:none;stroke:#231f20;stroke-width:0.5;stroke-linecap:butt;stroke-linejoin:miter;stroke-miterlimit:4;stroke-dasharray:none;stroke-opacity:1"
       id="path792" />
    <path
       d="m 777.611,720.652 c 3.114,-6.509 3.059,-11.845 0.489,-19.396 -2.573,-7.55 -3.943,-14.358 -4.4,-16.547"
       style="fill:none;stroke:#231f20;stroke-width:0.5;stroke-linecap:butt;stroke-linejoin:miter;stroke-miterlimit:4;stroke-dasharray:none;stroke-opacity:1"
       id="path794" />
    <path
       d="M 855.752,729.4 C 843.127,717.842 790.774,657.763 786.229,633.696"
       style="fill:none;stroke:#231f20;stroke-width:0.5;stroke-linecap:butt;stroke-linejoin:miter;stroke-miterlimit:4;stroke-dasharray:none;stroke-opacity:1"
       id="path796" />
    <path
       d="m 886.126,718.466 c 0.227,-5.171 1.288,-12.433 -21.5,-32.365"
       style="fill:none;stroke:#231f20;stroke-width:0.5;stroke-linecap:butt;stroke-linejoin:miter;stroke-miterlimit:4;stroke-dasharray:none;stroke-opacity:1"
       id="path798" />
    <path
       d="m 912.384,687.594 c -10.353,-5.871 -24.51,-17.933 -27.097,-24.271 -2.588,-6.339 -9.092,-28.975 -16.793,-33.68 -7.702,-4.705 -19.034,-9.942 -30.182,-10.567"
       style="fill:none;stroke:#231f20;stroke-width:0.5;stroke-linecap:butt;stroke-linejoin:miter;stroke-miterlimit:4;stroke-dasharray:none;stroke-opacity:1"
       id="path800" />
    <path
       d="m 711.76,596.458 4.593,1.189"
       style="fill:none;stroke:#231f20;stroke-width:0.5;stroke-linecap:butt;stroke-linejoin:miter;stroke-miterlimit:4;stroke-dasharray:none;stroke-opacity:1"
       id="path802" />
    <path
       d="m 799.666,547.153 c -0.446,0.735 -0.857,1.577 -1.219,2.543 -3.263,8.69 -9.517,23.647 -12.726,28.214 -3.211,4.567 -7.115,6.458 -11.724,6.642 -4.61,0.185 -17.925,-1.681 -23.967,-3.455 -6.039,-1.774 -10.86,-4.261 -11.068,-6.931 -0.208,-2.67 3.748,-8.683 10.35,-12.965 6.603,-4.282 15.737,-4.368 17.419,-9.078"
       style="fill:none;stroke:#231f20;stroke-width:0.5;stroke-linecap:butt;stroke-linejoin:miter;stroke-miterlimit:4;stroke-dasharray:none;stroke-opacity:1"
       id="path804" />
    <path
       d="m 716.353,597.647 15.704,4.807 c 0,0 8.943,2.296 7.913,7.133 -1.032,4.837 -11.047,10.531 -10.122,14.18 0.922,3.65 9.32,-8.37 11.772,-10.521 2.454,-2.152 5.638,-4.779 13.353,-1.044 7.713,3.735 10.973,14.447 9.617,25.828 -1.357,11.382 -4.619,20.072 -8.327,25.602 -3.708,5.531 -5.71,10.356 -4.755,11.581 0.955,1.224 5.653,-7.947 7.413,-10.819 3.096,-5.055 8.544,-4.501 13.835,-1.038 5.292,3.462 13.874,15.211 21.936,29.864 8.061,14.653 15.878,29.303 18.56,28.125 2.683,-1.179 -9.928,-20.255 -14.914,-28.806 -4.984,-8.552 -19.465,-33.229 -23.216,-43.462 -3.752,-10.234 -3.873,-19.936 0.796,-24.727 4.669,-4.791 13.137,-3.229 28.75,8.609 15.615,11.838 27.365,22.415 31.131,31.436 3.767,9.021 11.127,21.482 15.892,28.333 4.763,6.851 14.046,20.792 16.245,19.365 2.202,-1.428 -6.426,-9.54 -10.475,-15.412 -4.048,-5.871 -14.535,-20.555 -16.182,-24.456 -1.649,-3.901 -1.634,-5.114 -0.159,-6.551 1.471,-1.436 3.172,-1.657 6.791,-0.155 3.619,1.5 15.913,7.476 23.129,12.175 7.215,4.699 16.12,10.147 18.996,12.851 2.876,2.704 7.637,9.797 8.349,11.019 0.712,1.221 2.891,1.491 2.925,-1.176 0.032,-2.667 -3.721,-12.658 -17.454,-19.865 -13.732,-7.206 -25.542,-12.933 -32.514,-17.872 -6.969,-4.939 -8.36,-10.048 -10.482,-14.926 -2.12,-4.877 -5.512,-5.163 -7.683,-6.16 -2.169,-0.998 -6.716,-5.905 -11.274,-9.843 -4.558,-3.938 -14.616,-14.009 -10.85,-24.147 3.767,-10.138 17.882,-14.082 28.781,-12.975 10.9,1.108 19.681,5.567 32.772,16.663 16.557,14.033 23.804,35.466 24.743,37.903 0,0 -2.265,-12.639 -6.762,-21.427 -4.498,-8.787 -5.157,-14.131 -9.008,-16.362 -3.854,-2.231 -23.579,-14.85 -24.535,-16.074 -0.955,-1.224 -0.371,-8.978 5.04,-14.972 5.411,-5.996 9.568,-8.611 11.038,-9.804 1.47,-1.195 2.082,-2.083 1.021,-4.111 -1.183,-2.258 -2.059,-4.876 -3.339,-4.407 -3.385,1.241 0.917,4.134 -1.528,5.802 -2.446,1.666 -14.942,11.694 -19.086,13.339 -4.143,1.645 -16.793,4.638 -22.611,4.565 -5.82,-0.074 -17.487,1.961 -2.207,-17.247 0,0 -17.005,21.942 -23.723,15.706 -5.034,-4.671 6.857,-24.65 8.381,-29.966 1.523,-5.316 1.443,-7.692 0.125,-9.942"
       style="fill:none;stroke:#231f20;stroke-width:0.5;stroke-linecap:butt;stroke-linejoin:miter;stroke-miterlimit:4;stroke-dasharray:none;stroke-opacity:1"
       id="path806" />
    <path
       d="m 825.372,568.468 c 5.913,-7.443 19.158,-19.159 20.641,-21.323"
       style="fill:none;stroke:#231f20;stroke-width:0.5;stroke-linecap:butt;stroke-linejoin:miter;stroke-miterlimit:4;stroke-dasharray:none;stroke-opacity:1"
       id="path808" />
    <path
       d="m 755.35,572.797 c 7.419,-1.846 23.32,-2.979 32.056,-22.634 0,0 1.238,-1.934 3.285,-3.35"
       style="fill:none;stroke:#231f20;stroke-width:0.5;stroke-linecap:butt;stroke-linejoin:miter;stroke-miterlimit:4;stroke-dasharray:none;stroke-opacity:1"
       id="path810" />
    <path
       d="m 774.436,549.756 c 0,0 8.895,1.023 16.196,-3.013"
       style="fill:none;stroke:#231f20;stroke-width:0.5;stroke-linecap:butt;stroke-linejoin:miter;stroke-miterlimit:4;stroke-dasharray:none;stroke-opacity:1"
       id="path812" />
    <path
       d="m 774.449,549.627 c -6.525,-1.353 -12.879,-5.638 -17.839,-9.433 -6.125,-4.685 -17.352,0.993 -22.945,2.136 -14.563,2.974 -22.51,8.568 -26.275,12.459 -0.405,2.318 -0.024,4.931 1.298,6.627 0.504,0.646 1.111,1.294 1.754,1.76 3.527,-7.151 9.457,-15.807 18.687,-16.903 9.229,-1.095 17.461,5.28 18.809,9.415 0.285,-0.242 0.52,-0.467 0.747,-0.697 0,0 5.583,-2.216 9.103,-2.535 2.504,-0.227 6.412,-0.252 8.857,-0.331 0.994,-0.031 1.747,-0.071 2.063,-0.137 1.095,-0.229 3.778,-1.407 5.741,-2.361"
       style="fill:#706d6e;fill-opacity:1;fill-rule:nonzero;stroke:none;stroke-width:0.1"
       id="path814" />
    <path
       d="m 774.449,549.627 c -6.525,-1.353 -12.879,-5.638 -17.839,-9.433 -6.125,-4.685 -17.352,0.993 -22.945,2.136 -14.563,2.974 -22.51,8.568 -26.275,12.459 -0.405,2.318 -0.024,4.931 1.298,6.627 0.504,0.646 1.111,1.294 1.754,1.76 3.527,-7.151 9.457,-15.807 18.687,-16.903 9.229,-1.095 17.461,5.28 18.809,9.415 0.285,-0.242 0.52,-0.467 0.747,-0.697 0,0 5.583,-2.216 9.103,-2.535 2.504,-0.227 6.412,-0.252 8.857,-0.331 0.994,-0.031 1.747,-0.071 2.063,-0.137 1.095,-0.229 3.778,-1.407 5.741,-2.361 z"
       style="fill:none;stroke:#231f20;stroke-width:0.75;stroke-linecap:butt;stroke-linejoin:miter;stroke-miterlimit:4;stroke-dasharray:none;stroke-opacity:1"
       id="path816" />
    <path
       d="m 668.727,498.897 c 2.439,-0.526 10.762,2.853 17.131,17.121 6.368,14.268 10.363,24.262 12.385,27.44 2.021,3.178 4.27,7.451 6.75,12.817 2.478,5.367 6.066,12.406 8.429,14.294 2.29,1.832 4.805,3.577 9.082,0.964 4.276,-2.614 13.088,-8.929 16.015,-10.225 2.692,-1.194 6.642,-3.105 9.458,-5.641"
       style="fill:none;stroke:#231f20;stroke-width:0.5;stroke-linecap:butt;stroke-linejoin:miter;stroke-miterlimit:4;stroke-dasharray:none;stroke-opacity:1"
       id="path818" />
    <path
       d="m 774.46,549.5 c 1.537,0.289 3.081,0.408 4.621,0.312"
       style="fill:none;stroke:#231f20;stroke-width:0.5;stroke-linecap:butt;stroke-linejoin:miter;stroke-miterlimit:4;stroke-dasharray:none;stroke-opacity:1"
       id="path820" />
    <path
       d="m 705.309,556.962 c 0.481,-0.627 1.135,-1.391 1.994,-2.243"
       style="fill:none;stroke:#231f20;stroke-width:0.5;stroke-linecap:butt;stroke-linejoin:miter;stroke-miterlimit:4;stroke-dasharray:none;stroke-opacity:1"
       id="path822" />
    <path
       d="m 710.448,563.183 c 1.193,0.873 2.515,1.156 3.556,-0.245 1.602,-2.163 6.912,-9.735 12.388,-11.243 5.478,-1.507 14.224,0.54 17.03,7.126"
       style="fill:none;stroke:#231f20;stroke-width:0.5;stroke-linecap:butt;stroke-linejoin:miter;stroke-miterlimit:4;stroke-dasharray:none;stroke-opacity:1"
       id="path824" />
    <path
       d="m 707.618,554.303 c -0.055,0.182 -0.101,0.367 -0.143,0.555"
       style="fill:none;stroke:#231f20;stroke-width:0.5;stroke-linecap:butt;stroke-linejoin:miter;stroke-miterlimit:4;stroke-dasharray:none;stroke-opacity:1"
       id="path826" />
    <path
       d="m 663.294,508.763 c 5.633,3.646 10.921,7.472 13.899,11.632 2.978,4.161 4.268,7.915 5.069,11.463 0.588,2.604 1.512,5.112 3.327,5.377 1.816,0.266 4.079,0.715 6.558,-6.861 2.477,-7.576 7.18,-15.302 13.426,-20.074"
       style="fill:none;stroke:#231f20;stroke-width:0.5;stroke-linecap:butt;stroke-linejoin:miter;stroke-miterlimit:4;stroke-dasharray:none;stroke-opacity:1"
       id="path828" />
    <path
       d="m 721.914,493.556 c 4.37,-0.43 8.307,4.713 11.165,8.871 1.884,2.743 4.441,6.39 7.655,8.672 -0.516,-8.385 0.329,-16.816 1.762,-24.559 1.43,-7.742 9.202,-15.121 9.202,-15.121"
       style="fill:none;stroke:#231f20;stroke-width:0.5;stroke-linecap:butt;stroke-linejoin:miter;stroke-miterlimit:4;stroke-dasharray:none;stroke-opacity:1"
       id="path830" />
    <path
       d="m 712.123,481.548 c -4.249,0.311 -6.925,0.883 -12.351,8.09 -5.426,7.207 -4.092,14.566 -1.68,17.804 1.549,2.081 5.886,4.036 10.887,2.078 3.899,-1.527 9.611,-5.559 12.935,-15.964"
       style="fill:none;stroke:#231f20;stroke-width:0.5;stroke-linecap:butt;stroke-linejoin:miter;stroke-miterlimit:4;stroke-dasharray:none;stroke-opacity:1"
       id="path832" />
    <path
       d="m 711.834,474.071 c -0.39,3.589 -0.792,6.493 1.598,9.313 2.391,2.82 7.057,7.729 8.482,10.172"
       style="fill:none;stroke:#231f20;stroke-width:0.5;stroke-linecap:butt;stroke-linejoin:miter;stroke-miterlimit:4;stroke-dasharray:none;stroke-opacity:1"
       id="path834" />
    <path
       d="m 707.268,491.309 c 1.682,2.103 3.229,3.679 4.576,2.605 1.347,-1.075 -0.449,-2.796 -1.281,-4.14 -0.832,-1.343 -3.473,-3.56 -4.33,-2.843 -0.857,0.716 -0.195,2.834 1.035,4.378 z"
       style="fill:none;stroke:#231f20;stroke-width:0.5;stroke-linecap:butt;stroke-linejoin:miter;stroke-miterlimit:4;stroke-dasharray:none;stroke-opacity:1"
       id="path836" />
    <path
       d="m 752.997,538.33 c 0,0 9.931,-17.973 15.825,-24.007"
       style="fill:none;stroke:#231f20;stroke-width:0.5;stroke-linecap:butt;stroke-linejoin:miter;stroke-miterlimit:4;stroke-dasharray:none;stroke-opacity:1"
       id="path838" />
    <path
       d="m 794.281,524.321 c -0.449,6.643 -2.967,14.008 -11.365,16.569 -8.401,2.562 -18.689,1.098 -21.863,-6.824"
       style="fill:none;stroke:#231f20;stroke-width:0.5;stroke-linecap:butt;stroke-linejoin:miter;stroke-miterlimit:4;stroke-dasharray:none;stroke-opacity:1"
       id="path840" />
    <path
       d="m 768.489,531.007 c 4.721,0.666 18.397,2.582 16.964,-23.045"
       style="fill:none;stroke:#231f20;stroke-width:0.5;stroke-linecap:butt;stroke-linejoin:miter;stroke-miterlimit:4;stroke-dasharray:none;stroke-opacity:1"
       id="path842" />
    <path
       d="m 425.155,561.749 c 1.533,0.55 3.786,1.247 4.606,-0.343 0.82,-1.59 0.429,-2.275 -1.957,-3.465 -2.386,-1.191 -4.339,-1.735 -4.513,-0.657 -0.174,1.078 -0.326,3.677 1.864,4.465 z"
       style="fill:none;stroke:#231f20;stroke-width:0.5;stroke-linecap:butt;stroke-linejoin:miter;stroke-miterlimit:4;stroke-dasharray:none;stroke-opacity:1"
       id="path844" />
    <path
       d="m 527.9,712.188 c 0.418,3.267 -36.442,6.883 -60.792,14.659 -23.457,7.491 -12.36,31.275 0.726,39.331 5.119,3.151 9.247,4.971 15.268,7.61 15.574,6.829 41.774,13.19 57.465,12.581 15.69,-0.61 34.349,-5.871 52.386,-12.919 18.036,-7.048 31.378,-13.67 38.908,-21.012 6.634,-6.468 12.911,-14.628 16.366,-15.799 5.522,-1.87 15.521,0.035 22.932,2.069 7.414,2.033 21.748,6.418 24.322,7.259 2.576,0.841 4.992,1.679 1.868,5.844 -3.126,4.164 -23.782,13.927 -49.913,21.843 -26.13,7.914 -78.891,24.871 -99.438,26.067 -20.549,1.195 -41.531,-1.738 -66.565,-11.979 -31.843,-13.027 -28.22,-16.866 -65.909,-28.256 -37.689,-11.39 -44.988,-9.542 -66.295,-12.236 -21.309,-2.695 -71.701,-6.727 -87.236,-24.87 -8.792,-10.269 -10.148,-21.939 -8.533,-34.788 0.969,-7.71 2.092,-16.369 5.88,-23.935 10.152,-20.278 13.808,-27.44 17.366,-25.982"
       style="fill:none;stroke:#231f20;stroke-width:0.5;stroke-linecap:butt;stroke-linejoin:miter;stroke-miterlimit:4;stroke-dasharray:none;stroke-opacity:1"
       id="path846" />
    <path
       d="m 675.181,625.259 c 1.381,5.838 0.792,14.075 0.692,21.997 -0.101,7.921 4.139,17.837 7.447,24.831 3.306,6.995 13.517,17.794 15.609,18.629 2.091,0.835 5.301,2.1 9.261,-3.601 5.704,-8.212 6.746,-9.292 9.36,-11.523 1.404,-1.196 3.916,-2.699 7.423,1.225"
       style="fill:none;stroke:#231f20;stroke-width:0.5;stroke-linecap:round;stroke-linejoin:round;stroke-miterlimit:4;stroke-dasharray:2.8, 1.8;stroke-dashoffset:0;stroke-opacity:1"
       id="path848" />
    <path
       d="m 625.461,604.328 c 4.383,6.581 8.371,12.454 11.299,16.242 7.319,9.47 13.862,28.954 21.405,46.187 7.543,17.234 12.32,23.115 17.369,32.88 5.05,9.764 10.832,12.747 20.537,12.547 9.703,-0.201 19.728,-0.398 19.728,-0.398"
       style="fill:none;stroke:#231f20;stroke-width:0.5;stroke-linecap:round;stroke-linejoin:round;stroke-miterlimit:4;stroke-dasharray:2.8, 1.8;stroke-dashoffset:0;stroke-opacity:1"
       id="path850" />
    <path
       d="m 698.846,748.435 c 14.451,7.943 58.791,16.866 72.64,15.124"
       style="fill:none;stroke:#231f20;stroke-width:0.5;stroke-linecap:round;stroke-linejoin:round;stroke-miterlimit:4;stroke-dasharray:2.8, 1.8;stroke-dashoffset:0;stroke-opacity:1"
       id="path852" />
    <path
       d="m 692.105,744.47 c 5.93,-8.657 32.06,-42.491 39.642,-60.074"
       style="fill:none;stroke:#231f20;stroke-width:0.5;stroke-linecap:round;stroke-linejoin:round;stroke-miterlimit:4;stroke-dasharray:2.8, 1.8;stroke-dashoffset:0;stroke-opacity:1"
       id="path854" />
    <path
       d="m 626.754,695.787 c -0.994,1.927 -0.347,5.012 0.865,8.418 1.952,5.481 6.153,8.808 8.61,8.249 3.215,-0.732 37.443,-7.349 42.07,-8.258"
       style="fill:none;stroke:#231f20;stroke-width:0.5;stroke-linecap:round;stroke-linejoin:round;stroke-miterlimit:4;stroke-dasharray:2.8, 1.8;stroke-dashoffset:0;stroke-opacity:1"
       id="path856" />
    <path
       d="m 633.233,711.709 c -9.641,10.391 -23.133,22.588 -27.57,28.353 -1.645,2.135 -3.831,5.128 -6.515,8.352"
       style="fill:none;stroke:#231f20;stroke-width:0.5;stroke-linecap:round;stroke-linejoin:round;stroke-miterlimit:4;stroke-dasharray:2.8, 1.8;stroke-dashoffset:0;stroke-opacity:1"
       id="path858" />
    <path
       d="m 606.029,636.5 c -0.319,-0.972 -0.692,-1.943 -1.124,-2.914 -5.502,-12.357 -18.144,-22.702 -30.24,-24.957 -12.098,-2.255 -33.052,-7.369 -38.169,0.973"
       style="fill:none;stroke:#231f20;stroke-width:0.5;stroke-linecap:round;stroke-linejoin:round;stroke-miterlimit:4;stroke-dasharray:2.8, 1.8;stroke-dashoffset:0;stroke-opacity:1"
       id="path860" />
    <path
       d="m 643.819,774.755 c 0,0 27.726,57.609 35.933,75.235"
       style="fill:none;stroke:#231f20;stroke-width:0.5;stroke-linecap:round;stroke-linejoin:round;stroke-miterlimit:4;stroke-dasharray:2.8, 1.8;stroke-dashoffset:0;stroke-opacity:1"
       id="path862" />
    <path
       d="m 547.998,799.721 3.11,75.748"
       style="fill:none;stroke:#231f20;stroke-width:0.5;stroke-linecap:round;stroke-linejoin:round;stroke-miterlimit:4;stroke-dasharray:2.8, 1.8;stroke-dashoffset:0;stroke-opacity:1"
       id="path864" />
    <path
       d="m 514.268,797.641 -2.642,78.108"
       style="fill:none;stroke:#231f20;stroke-width:0.5;stroke-linecap:round;stroke-linejoin:round;stroke-miterlimit:4;stroke-dasharray:2.8, 1.8;stroke-dashoffset:0;stroke-opacity:1"
       id="path866" />
    <path
       d="m 494.233,792.463 -5.884,82.631"
       style="fill:none;stroke:#231f20;stroke-width:0.5;stroke-linecap:round;stroke-linejoin:round;stroke-miterlimit:4;stroke-dasharray:2.8, 1.8;stroke-dashoffset:0;stroke-opacity:1"
       id="path868" />
    <path
       d="m 376.757,750.184 c 12.647,22.795 26.451,56.275 45.412,65.569 18.961,9.294 34.292,10.608 54.616,-29.954"
       style="fill:none;stroke:#231f20;stroke-width:0.5;stroke-linecap:round;stroke-linejoin:round;stroke-miterlimit:4;stroke-dasharray:2.8, 1.8;stroke-dashoffset:0;stroke-opacity:1"
       id="path870" />
    <path
       d="m 390.599,752.768 c 17.471,27.237 31.737,49.731 44.318,52.152 12.581,2.423 22.711,-15.018 27.592,-25.735"
       style="fill:none;stroke:#231f20;stroke-width:0.5;stroke-linecap:round;stroke-linejoin:round;stroke-miterlimit:4;stroke-dasharray:2.8, 1.8;stroke-dashoffset:0;stroke-opacity:1"
       id="path872" />
    <path
       d="m 399.816,859.957 c -9.302,-21.322 -19.559,-64.239 -13.49,-91.596"
       style="fill:none;stroke:#231f20;stroke-width:0.5;stroke-linecap:round;stroke-linejoin:round;stroke-miterlimit:4;stroke-dasharray:2.8, 1.8;stroke-dashoffset:0;stroke-opacity:1"
       id="path874" />
    <path
       d="m 419.766,865.224 c 4.545,-14.198 -1.277,-38.866 1.124,-50.143"
       style="fill:none;stroke:#231f20;stroke-width:0.5;stroke-linecap:round;stroke-linejoin:round;stroke-miterlimit:4;stroke-dasharray:2.8, 1.8;stroke-dashoffset:0;stroke-opacity:1"
       id="path876" />
    <path
       d="m 440.555,870.021 c 5.994,-13.216 20.124,-43.987 30.112,-73.01"
       style="fill:none;stroke:#231f20;stroke-width:0.5;stroke-linecap:round;stroke-linejoin:round;stroke-miterlimit:4;stroke-dasharray:2.8, 1.8;stroke-dashoffset:0;stroke-opacity:1"
       id="path878" />
    <path
       d="m 229.308,824.433 c 18.34,-16.059 41.95,-29.835 57.163,-88.248"
       style="fill:none;stroke:#231f20;stroke-width:0.5;stroke-linecap:round;stroke-linejoin:round;stroke-miterlimit:4;stroke-dasharray:2.8, 1.8;stroke-dashoffset:0;stroke-opacity:1"
       id="path880" />
    <path
       d="m 151.555,688.129 c 8.905,8.554 16.755,27.085 26.843,47.584 10.088,20.499 19.724,31.876 28.673,33.992 9.061,2.142 26.404,8.74 44.955,-0.726 18.552,-9.466 29.406,-15.867 29.406,-15.867"
       style="fill:none;stroke:#231f20;stroke-width:0.5;stroke-linecap:round;stroke-linejoin:round;stroke-miterlimit:4;stroke-dasharray:2.8, 1.8;stroke-dashoffset:0;stroke-opacity:1"
       id="path882" />
    <path
       d="m 282.96,748.435 c -12.96,5.573 -33.095,12.433 -39.573,13.321 -6.478,0.889 -18.747,-0.56 -32.204,-10.431 -13.456,-9.871 -22.992,-22.925 -29.856,-42.737 -6.863,-19.812 4.317,-32.406 40.941,-39.056"
       style="fill:none;stroke:#231f20;stroke-width:0.5;stroke-linecap:round;stroke-linejoin:round;stroke-miterlimit:4;stroke-dasharray:2.8, 1.8;stroke-dashoffset:0;stroke-opacity:1"
       id="path884" />
    <path
       d="m 252.88,697.181 c -3.605,8.062 -16.32,16.308 -28.176,7.751 -11.856,-8.557 -16.403,-27.454 6.674,-36.863"
       style="fill:none;stroke:#231f20;stroke-width:0.5;stroke-linecap:round;stroke-linejoin:round;stroke-miterlimit:4;stroke-dasharray:2.8, 1.8;stroke-dashoffset:0;stroke-opacity:1"
       id="path886" />
    <path
       d="m 276.708,637.671 c 3.239,-9.871 5.103,-18.442 6.39,-24.482 1.719,-8.063 4.218,-30.66 8.884,-37.719 5.934,-8.981 11.807,-13.11 19.64,-18.831"
       style="fill:none;stroke:#231f20;stroke-width:0.5;stroke-linecap:round;stroke-linejoin:round;stroke-miterlimit:4;stroke-dasharray:2.8, 1.8;stroke-dashoffset:0;stroke-opacity:1"
       id="path888" />
    <path
       d="m 555.27,672.084 c -0.439,-0.973 -0.966,-1.9 -1.584,-2.767 -6.035,-8.483 -19.854,-13.803 -32.209,-8.463"
       style="fill:none;stroke:#231f20;stroke-width:0.5;stroke-linecap:round;stroke-linejoin:round;stroke-miterlimit:4;stroke-dasharray:2.8, 1.8;stroke-dashoffset:0;stroke-opacity:1"
       id="path890" />
    <path
       d="m 252.896,694.624 c -4.519,-7.824 -10.885,-22.213 -5.152,-34.509 5.734,-12.296 18.283,-30.415 29.642,-65.679"
       style="fill:none;stroke:#231f20;stroke-width:0.5;stroke-linecap:round;stroke-linejoin:round;stroke-miterlimit:4;stroke-dasharray:2.8, 1.8;stroke-dashoffset:0;stroke-opacity:1"
       id="path892" />
    <path
       d="m 163.152,666.734 c 14.242,-5.083 67.95,-14.604 93.284,-23.129"
       style="fill:none;stroke:#231f20;stroke-width:0.5;stroke-linecap:round;stroke-linejoin:round;stroke-miterlimit:4;stroke-dasharray:2.8, 1.8;stroke-dashoffset:0;stroke-opacity:1"
       id="path894" />
    <path
       d="m 180.494,645.427 c 5.089,1.533 51.103,-3.059 84.594,-19.208"
       style="fill:none;stroke:#231f20;stroke-width:0.5;stroke-linecap:round;stroke-linejoin:round;stroke-miterlimit:4;stroke-dasharray:2.8, 1.8;stroke-dashoffset:0;stroke-opacity:1"
       id="path896" />
    <path
       d="m 185.567,660.932 c 4.645,3.548 18.694,16.61 60.745,3.181"
       style="fill:none;stroke:#231f20;stroke-width:0.5;stroke-linecap:round;stroke-linejoin:round;stroke-miterlimit:4;stroke-dasharray:2.8, 1.8;stroke-dashoffset:0;stroke-opacity:1"
       id="path898" />
    <path
       d="m 389.457,461.827 c -32.865,-9.388 -54.629,24.047 -63.02,35.582 -8.392,11.535 -39.284,38.064 -57.151,50.934 -17.867,12.871 -45.3,34.35 -57.053,43.175 -11.753,8.825 -15.254,17.269 -13.345,19.718 1.909,2.45 8.251,-0.381 12.397,-2.268 4.147,-1.888 10.455,-3.067 18.254,-5.105 9.733,-2.545 7.035,-7.299 1.764,-5.314 -6.747,2.542 -10.976,4.955 -12.891,2.99 -1.915,-1.964 -0.684,-3.403 0.546,-4.843 1.231,-1.44 7.67,-12.029 28.223,-26.321 20.552,-14.291 53.833,-37.879 67.841,-52.497 14.008,-14.616 18.671,-18.922 23.873,-27.588 5.203,-8.664 19.039,-28.861 52.931,-24.068"
       style="fill:none;stroke:#231f20;stroke-width:0.5;stroke-linecap:round;stroke-linejoin:round;stroke-miterlimit:4;stroke-dasharray:2.8, 1.8;stroke-dashoffset:0;stroke-opacity:1"
       id="path900" />
    <path
       d="m 285.787,597.526 c -0.267,1.936 -2.868,1.07 -4.747,-0.53 -1.829,-1.556 -13.708,-9.147 -18.291,-11.145 -4.582,-1.998 -7.41,-5.308 -5.246,-7.099 2.338,-1.936 16.163,-12.407 21.074,-17.195 4.911,-4.788 17.019,-14.782 26.485,-15.39"
       style="fill:none;stroke:#231f20;stroke-width:0.5;stroke-linecap:round;stroke-linejoin:round;stroke-miterlimit:4;stroke-dasharray:2.8, 1.8;stroke-dashoffset:0;stroke-opacity:1"
       id="path902" />
    <path
       d="m 405.599,681.269 c -7.194,-6.396 -24.601,-29.898 -31.173,-47.2 -6.572,-17.302 -7.597,-32.109 -5.811,-39.119 1.786,-7.011 5.907,-26.118 21.353,-20.102 15.445,6.016 24.996,8.828 29.839,9.374"
       style="fill:none;stroke:#231f20;stroke-width:0.5;stroke-linecap:round;stroke-linejoin:round;stroke-miterlimit:4;stroke-dasharray:2.8, 1.8;stroke-dashoffset:0;stroke-opacity:1"
       id="path904" />
    <path
       d="m 404.666,619.869 c -7.036,0.154 -14.075,-36.768 -8.249,-42.567"
       style="fill:none;stroke:#231f20;stroke-width:0.5;stroke-linecap:round;stroke-linejoin:round;stroke-miterlimit:4;stroke-dasharray:2.8, 1.8;stroke-dashoffset:0;stroke-opacity:1"
       id="path906" />
    <path
       d="m 379.199,575.031 c -1.8,-3.495 -1.392,-16.585 1.281,-17.037 2.674,-0.451 11.332,8.542 6.247,15.92"
       style="fill:none;stroke:#231f20;stroke-width:0.5;stroke-linecap:round;stroke-linejoin:round;stroke-miterlimit:4;stroke-dasharray:2.8, 1.8;stroke-dashoffset:0;stroke-opacity:1"
       id="path908" />
    <path
       d="m 323.825,546.212 c 0.221,1.701 5.36,2.403 9.522,-0.697 4.162,-3.1 7.566,-3.785 10.967,-4.227 3.4,-0.442 5.832,-0.896 8.047,-3.536 2.217,-2.64 4.908,-4.545 7.588,-5.482 2.679,-0.936 13.366,-6.941 0.835,-11.652"
       style="fill:none;stroke:#231f20;stroke-width:0.5;stroke-linecap:round;stroke-linejoin:round;stroke-miterlimit:4;stroke-dasharray:2.8, 1.8;stroke-dashoffset:0;stroke-opacity:1"
       id="path910" />
    <path
       d="m 339.335,510.405 c -5.408,5.752 -24.755,23.232 -30.912,30.672 -6.157,7.441 -6,14.233 -4.567,15.949 1.434,1.715 6.038,2.016 13.15,-4.199 7.111,-6.216 7.609,-7.18 8.372,-10.08 0.765,-2.901 7.889,-10.086 11.784,-11.25 3.895,-1.163 12.9,-3.717 15.343,-5.142 2.444,-1.423 6.615,-6.094 10.265,-6.175 4.612,-0.102 9.941,0.126 14.566,-1.271 4.626,-1.397 4.322,3.45 4.491,9.273 0.169,5.822 4.236,10.238 5.393,14.619 1.157,4.379 -10.064,9.573 -12.495,10.028 -2.431,0.454 -9.73,2.302 -16.756,1.728 -7.025,-0.574 -19.773,-5.298 -25.799,-8.285"
       style="fill:none;stroke:#231f20;stroke-width:0.5;stroke-linecap:round;stroke-linejoin:round;stroke-miterlimit:4;stroke-dasharray:2.8, 1.8;stroke-dashoffset:0;stroke-opacity:1"
       id="path912" />
    <path
       d="m 321.672,486.2 c 2.763,5.344 8.125,13.919 11.238,17.111 3.112,3.192 10.651,9.587 14.893,24.923"
       style="fill:none;stroke:#231f20;stroke-width:0.5;stroke-linecap:round;stroke-linejoin:round;stroke-miterlimit:4;stroke-dasharray:2.8, 1.8;stroke-dashoffset:0;stroke-opacity:1"
       id="path914" />
    <path
       d="m 339.947,511.239 c 5.222,0.715 9.587,0.77 14.958,-2.072 5.372,-2.842 21.37,-15.089 29.568,-24.041 8.197,-8.949 10.002,-11.029 7.972,-16.712 -2.03,-5.686 -7.507,-15.66 -9.422,-19.866"
       style="fill:none;stroke:#231f20;stroke-width:0.5;stroke-linecap:round;stroke-linejoin:round;stroke-miterlimit:4;stroke-dasharray:2.8, 1.8;stroke-dashoffset:0;stroke-opacity:1"
       id="path916" />
    <path
       d="m 368.637,499.431 c 5.762,2.465 17.859,9.675 29.246,10.547"
       style="fill:none;stroke:#231f20;stroke-width:0.5;stroke-linecap:round;stroke-linejoin:round;stroke-miterlimit:4;stroke-dasharray:2.8, 1.8;stroke-dashoffset:0;stroke-opacity:1"
       id="path918" />
    <path
       d="m 372.293,519.859 c -3.916,-2.033 -10.398,-11.043 -2.679,-19.99"
       style="fill:none;stroke:#231f20;stroke-width:0.5;stroke-linecap:round;stroke-linejoin:round;stroke-miterlimit:4;stroke-dasharray:2.8, 1.8;stroke-dashoffset:0;stroke-opacity:1"
       id="path920" />
    <path
       d="m 380.995,520.15 c 2.906,-2.532 11.694,-3.923 17.41,1.208 6.394,5.74 2.756,24.385 -11.499,20.437"
       style="fill:none;stroke:#231f20;stroke-width:0.5;stroke-linecap:round;stroke-linejoin:round;stroke-miterlimit:4;stroke-dasharray:2.8, 1.8;stroke-dashoffset:0;stroke-opacity:1"
       id="path922" />
    <path
       d="m 388.434,517.888 c 4.857,-1.283 7.727,-3.077 9.38,-5.967"
       style="fill:none;stroke:#231f20;stroke-width:0.5;stroke-linecap:round;stroke-linejoin:round;stroke-miterlimit:4;stroke-dasharray:2.8, 1.8;stroke-dashoffset:0;stroke-opacity:1"
       id="path924" />
    <path
       d="m 402.841,515.755 c 5.66,3.715 13.971,7.615 16.303,2.146 2.332,-5.467 -7.167,-8.659 -12.176,-8.884 -5.009,-0.225 -9.497,0.011 -9.562,1.819 -0.064,1.809 4.532,4.327 5.435,4.919 z"
       style="fill:none;stroke:#231f20;stroke-width:0.5;stroke-linecap:round;stroke-linejoin:round;stroke-miterlimit:4;stroke-dasharray:2.8, 1.8;stroke-dashoffset:0;stroke-opacity:1"
       id="path926" />
    <path
       d="m 389.124,542.239 c 1.839,5.055 8.041,13.219 13.163,17.324 5.122,4.107 10.561,8.703 14.602,8.754 4.042,0.051 6.054,-1.668 8.756,-1.991 2.78,-0.334 7.275,0.091 8.611,-3.286 1.336,-3.379 2.695,-21.308 -4.644,-29.162 -7.338,-7.854 -19.575,-14.02 -22.265,-15.503"
       style="fill:none;stroke:#231f20;stroke-width:0.5;stroke-linecap:round;stroke-linejoin:round;stroke-miterlimit:4;stroke-dasharray:2.8, 1.8;stroke-dashoffset:0;stroke-opacity:1"
       id="path928" />
    <path
       d="m 432.865,564.842 c 2.793,0.503 5.469,1.655 7.785,3.458"
       style="fill:none;stroke:#231f20;stroke-width:0.5;stroke-linecap:round;stroke-linejoin:round;stroke-miterlimit:4;stroke-dasharray:2.8, 1.8;stroke-dashoffset:0;stroke-opacity:1"
       id="path930" />
    <path
       d="m 450.873,558.315 c -0.981,-4.294 -2.568,-8.591 -3.014,-9.816 -0.692,-1.901 -1.197,-3.601 -1.244,-6.042 -0.044,-2.286 0.077,-3.998 2.536,-6.714 2.461,-2.718 5.902,-6.392 9.293,-6.026 3.39,0.365 10.729,4.564 15.478,12.547"
       style="fill:none;stroke:#231f20;stroke-width:0.5;stroke-linecap:round;stroke-linejoin:round;stroke-miterlimit:4;stroke-dasharray:2.8, 1.8;stroke-dashoffset:0;stroke-opacity:1"
       id="path932" />
    <path
       d="m 445.651,524.865 c 7.233,-0.925 14.592,-3.211 14.39,-6.366 -0.202,-3.155 -8.398,-7.139 -15.672,-7.231 -7.275,-0.092 -12.692,6.388 -12.247,9.546 0.445,3.158 8.662,4.673 13.529,4.051 z"
       style="fill:none;stroke:#231f20;stroke-width:0.5;stroke-linecap:round;stroke-linejoin:round;stroke-miterlimit:4;stroke-dasharray:2.8, 1.8;stroke-dashoffset:0;stroke-opacity:1"
       id="path934" />
    <path
       d="m 414.176,510.714 c 8.348,1.975 14.437,2.814 20.456,4.813"
       style="fill:none;stroke:#231f20;stroke-width:0.5;stroke-linecap:round;stroke-linejoin:round;stroke-miterlimit:4;stroke-dasharray:2.8, 1.8;stroke-dashoffset:0;stroke-opacity:1"
       id="path936" />
    <path
       d="m 432.511,514.871 c -3.625,-6.709 -6.384,-18.626 -5.285,-28.8 0.811,-7.508 5.025,-27.755 2.56,-36.794"
       style="fill:none;stroke:#231f20;stroke-width:0.5;stroke-linecap:round;stroke-linejoin:round;stroke-miterlimit:4;stroke-dasharray:2.8, 1.8;stroke-dashoffset:0;stroke-opacity:1"
       id="path938" />
    <path
       d="m 392.412,475.306 c 6.799,1.438 16.716,3.504 22.791,2.612 6.074,-0.895 30.54,1.355 35.134,2.383 4.596,1.028 12.053,2.191 16.451,-0.422"
       style="fill:none;stroke:#231f20;stroke-width:0.5;stroke-linecap:round;stroke-linejoin:round;stroke-miterlimit:4;stroke-dasharray:2.8, 1.8;stroke-dashoffset:0;stroke-opacity:1"
       id="path940" />
    <path
       d="m 483.117,529.908 c -8.859,-4.197 -21.578,-14.785 -22.641,-26.682 -1.062,-11.896 5.558,-13.835 10.659,-14.498"
       style="fill:none;stroke:#231f20;stroke-width:0.5;stroke-linecap:round;stroke-linejoin:round;stroke-miterlimit:4;stroke-dasharray:2.8, 1.8;stroke-dashoffset:0;stroke-opacity:1"
       id="path942" />
    <path
       d="m 544.715,496.531 c -6.041,-1.775 -10.168,-1.342 -14.785,-0.673 -4.616,0.67 -21.158,4.583 -26.501,5.242 -5.344,0.661 -15.803,-4.368 -22.456,-7.801 -4.819,-2.486 -12.314,-4.278 -13.471,-8.659 -1.158,-4.38 -1.108,-8.26 1.62,-13.074 2.729,-4.818 5.894,-5.748 16.556,-5.127 10.663,0.62 20.835,1.249 33.395,5.758 9.6,3.445 22.933,8.293 26.545,10.521 3.609,2.229 10.111,5.948 6.683,8.33 -3.425,2.382 -6.708,3.536 -10.845,4.696"
       style="fill:none;stroke:#231f20;stroke-width:0.5;stroke-linecap:round;stroke-linejoin:round;stroke-miterlimit:4;stroke-dasharray:2.8, 1.8;stroke-dashoffset:0;stroke-opacity:1"
       id="path944" />
    <path
       d="m 491.228,528.864 c 2.332,-2.75 5.271,-5.24 8.87,-7.191 11.07,-6.004 24.04,-8.912 29.713,-9.972 5.673,-1.059 15.085,-3.851 17.036,-4.796 0,0 -4.577,-8.788 -0.681,-10.195 3.901,-1.406 17.331,-2.207 24.442,10.656 7.115,12.863 12.777,25.222 9.01,29.216 -3.77,3.995 -21.184,0.218 -39.777,0.145 -18.592,-0.073 -32.865,3.627 -32.776,9.286 0.09,5.66 17.522,7.983 23.659,8.545 6.137,0.563 13.566,1.303 13.566,1.303"
       style="fill:none;stroke:#231f20;stroke-width:0.5;stroke-linecap:round;stroke-linejoin:round;stroke-miterlimit:4;stroke-dasharray:2.8, 1.8;stroke-dashoffset:0;stroke-opacity:1"
       id="path946" />
    <path
       d="m 559.946,557.837 c 6.594,1.668 9.014,3.187 9.789,5.945 0.995,3.55 -1.897,9.353 -7.732,10.411 -5.588,1.015 -8.293,3.937 -2.642,4.494 5.651,0.556 15.239,-3.364 15.831,-11.764 0.591,-8.401 -9.127,-10.638 -14.892,-11.507 -4.678,-0.705 -16.075,-0.846 -16.01,0.445 0.128,2.59 9.222,0.349 15.656,1.976 z"
       style="fill:none;stroke:#231f20;stroke-width:0.5;stroke-linecap:round;stroke-linejoin:round;stroke-miterlimit:4;stroke-dasharray:2.8, 1.8;stroke-dashoffset:0;stroke-opacity:1"
       id="path948" />
    <path
       d="m 504.491,519.486 c -4.834,-1.375 -8.422,-5.055 -9.972,-20.072"
       style="fill:none;stroke:#231f20;stroke-width:0.5;stroke-linecap:round;stroke-linejoin:round;stroke-miterlimit:4;stroke-dasharray:2.8, 1.8;stroke-dashoffset:0;stroke-opacity:1"
       id="path950" />
    <path
       d="m 583.78,611.774 c -1.899,-0.884 -6.287,-17.432 -1.181,-15.028"
       style="fill:none;stroke:#231f20;stroke-width:0.5;stroke-linecap:round;stroke-linejoin:round;stroke-miterlimit:4;stroke-dasharray:2.8, 1.8;stroke-dashoffset:0;stroke-opacity:1"
       id="path952" />
    <path
       d="m 559.772,605.913 c 1.54,-2.627 0.222,-11.608 -2.111,-19.848"
       style="fill:none;stroke:#231f20;stroke-width:0.5;stroke-linecap:round;stroke-linejoin:round;stroke-miterlimit:4;stroke-dasharray:2.8, 1.8;stroke-dashoffset:0;stroke-opacity:1"
       id="path954" />
    <path
       d="m 456.954,702.033 c 5.273,1.697 8.825,2.065 13.378,0.022 4.552,-2.045 8.178,-7.496 5.656,-12.54 -2.524,-5.044 -5.252,-6.695 -19.279,-9.783 -14.027,-3.087 -26.147,-16.336 -26.564,-34.45 -0.396,-17.144 11.897,-33.156 23.374,-32.849 11.475,0.307 28.671,8.446 31.565,9.776"
       style="fill:none;stroke:#231f20;stroke-width:0.5;stroke-linecap:round;stroke-linejoin:round;stroke-miterlimit:4;stroke-dasharray:2.8, 1.8;stroke-dashoffset:0;stroke-opacity:1"
       id="path956" />
    <path
       d="m 458.63,600.936 c 5.296,-0.723 22.147,3.918 35.797,11.206 13.65,7.287 16.028,11.034 18.58,13.816 2.552,2.781 13.464,9.224 22.28,15.317 8.815,6.094 15.348,13.614 20.928,19.829"
       style="fill:none;stroke:#231f20;stroke-width:0.5;stroke-linecap:round;stroke-linejoin:round;stroke-miterlimit:4;stroke-dasharray:2.8, 1.8;stroke-dashoffset:0;stroke-opacity:1"
       id="path958" />
    <path
       d="m 568.515,673.062 c -2.118,-1.287 -4.409,-2.967 -6.56,-5.419 -5.74,-6.539 -3.441,-5.967 -9.015,-15.959 -4.268,-7.652 -25.265,-22.145 -21.888,-33.582 4.258,-14.414 18.404,-10.599 29.55,-9.65 11.143,0.948 28.824,8.933 35.336,18.231 6.514,9.298 8.586,24.197 2.988,32.373 -5.6,8.175 -23.882,21.848 -42.594,-0.59"
       style="fill:none;stroke:#231f20;stroke-width:0.5;stroke-linecap:round;stroke-linejoin:round;stroke-miterlimit:4;stroke-dasharray:2.8, 1.8;stroke-dashoffset:0;stroke-opacity:1"
       id="path960" />
    <path
       d="m 548.866,646.529 c 11.384,2.499 19.785,2.929 25.645,-0.231 5.863,-3.159 10.558,-3.745 15.144,-8.377 4.584,-4.631 5.019,-5.829 7.285,-9.7"
       style="fill:none;stroke:#231f20;stroke-width:0.5;stroke-linecap:round;stroke-linejoin:round;stroke-miterlimit:4;stroke-dasharray:2.8, 1.8;stroke-dashoffset:0;stroke-opacity:1"
       id="path962" />
    <path
       d="m 539.83,606.686 c -1.112,0.651 -3.832,-4.396 -0.508,-7.492"
       style="fill:none;stroke:#231f20;stroke-width:0.5;stroke-linecap:round;stroke-linejoin:round;stroke-miterlimit:4;stroke-dasharray:2.8, 1.8;stroke-dashoffset:0;stroke-opacity:1"
       id="path964" />
    <path
       d="m 513.007,625.958 c 4.739,-3.982 9.03,-10.394 19.219,-10.913"
       style="fill:none;stroke:#231f20;stroke-width:0.5;stroke-linecap:round;stroke-linejoin:round;stroke-miterlimit:4;stroke-dasharray:2.8, 1.8;stroke-dashoffset:0;stroke-opacity:1"
       id="path966" />
    <path
       d="m 488.625,598.73 c 10.612,3.771 16.872,7.407 20.879,10.207 4.006,2.8 7.661,7.858 7.974,8.671 0.314,0.811 0.18,0.785 4.289,0.768"
       style="fill:none;stroke:#231f20;stroke-width:0.5;stroke-linecap:round;stroke-linejoin:round;stroke-miterlimit:4;stroke-dasharray:2.8, 1.8;stroke-dashoffset:0;stroke-opacity:1"
       id="path968" />
    <path
       d="m 727.803,488.052 c 2.151,4.26 5.442,10.74 7.381,10.766 1.94,0.023 1.685,-8.469 0.046,-13.098 -1.639,-4.629 -7.72,-11.787 -11.278,-9.478 -2.202,1.426 2.779,9.689 3.851,11.81 z"
       style="fill:none;stroke:#231f20;stroke-width:0.5;stroke-linecap:round;stroke-linejoin:round;stroke-miterlimit:4;stroke-dasharray:2.8, 1.8;stroke-dashoffset:0;stroke-opacity:1"
       id="path970" />
    <path
       d="m 740.747,511.109 c 1.668,1.184 3.51,2.006 5.532,2.156 5.937,0.439 23.024,1.261 27.149,1.071 4.125,-0.19 7.03,0.331 7.055,-1.73 0.026,-2.061 -0.536,-9.666 -1.768,-15.765"
       style="fill:none;stroke:#231f20;stroke-width:0.5;stroke-linecap:round;stroke-linejoin:round;stroke-miterlimit:4;stroke-dasharray:2.8, 1.8;stroke-dashoffset:0;stroke-opacity:1"
       id="path972" />
    <path
       d="m 459.593,517.265 c 0,0 3.354,-0.327 7.004,-0.412"
       style="fill:none;stroke:#231f20;stroke-width:0.5;stroke-linecap:round;stroke-linejoin:round;stroke-miterlimit:4;stroke-dasharray:2.8, 1.8;stroke-dashoffset:0;stroke-opacity:1"
       id="path974" />
    <path
       d="m 599.148,748.414 c -4.566,5.479 -10.569,11.625 -17.796,15.35 -11.473,5.918 -29.249,11.756 -47.427,10.799 -18.177,-0.957 -37.11,-6.047 -48.821,-13.228 -11.248,-6.896 -13.668,-12.298 -14.586,-16.433 -0.918,-4.134 -1.335,-9.475 6.955,-13.007 8.29,-3.534 41.255,-2.147 54.6,-2.706 13.345,-0.559 29.887,-4.473 38.455,-10.67 8.564,-6.197 12.251,-10.031 10.351,-13.208 -1.9,-3.176 -7.529,0.875 -14.377,5.397 -6.847,4.521 -21.455,8.944 -36.261,9.97 -14.806,1.025 -37.394,3.65 -49.798,6.403 -12.403,2.753 -18.293,8.257 -19.336,14.065 -1.044,5.807 4.908,14.612 23.954,23.584 19.045,8.972 36.464,12.344 51.253,12.774 14.788,0.43 47.77,-5.678 62.884,-26.286"
       style="fill:none;stroke:#231f20;stroke-width:0.5;stroke-linecap:round;stroke-linejoin:round;stroke-miterlimit:4;stroke-dasharray:2.8, 1.8;stroke-dashoffset:0;stroke-opacity:1"
       id="path976" />
    <path
       d="m 473.819,751.927 c -1.51,-2.277 -5.398,-13.842 6.442,-16.764 11.84,-2.922 40.452,-3.373 53.101,-6.04"
       style="fill:none;stroke:#231f20;stroke-width:0.5;stroke-linecap:round;stroke-linejoin:round;stroke-miterlimit:4;stroke-dasharray:2.8, 1.8;stroke-dashoffset:0;stroke-opacity:1"
       id="path978" />
    <path
       d="m 598.963,771.101 c 0.28,-9.212 0.971,-34.976 -2.181,-44.428"
       style="fill:none;stroke:#231f20;stroke-width:0.5;stroke-linecap:round;stroke-linejoin:round;stroke-miterlimit:4;stroke-dasharray:2.8, 1.8;stroke-dashoffset:0;stroke-opacity:1"
       id="path980" />
    <path
       d="m 464.623,750.686 c 0,0 3.976,-2.523 6.505,-3.648"
       style="fill:none;stroke:#231f20;stroke-width:0.5;stroke-linecap:round;stroke-linejoin:round;stroke-miterlimit:4;stroke-dasharray:2.8, 1.8;stroke-dashoffset:0;stroke-opacity:1"
       id="path982" />
    <path
       d="m 483.687,764.07 c 0,0 0.668,-1.047 1.417,-2.735"
       style="fill:none;stroke:#231f20;stroke-width:0.5;stroke-linecap:round;stroke-linejoin:round;stroke-miterlimit:4;stroke-dasharray:2.8, 1.8;stroke-dashoffset:0;stroke-opacity:1"
       id="path984" />
    <path
       d="m 598.509,736.505 c -6.932,5.077 -31.703,20.608 -52.882,20.502 -21.179,-0.106 -58.603,-6.888 -58.663,-14.969 -0.058,-8.08 19.308,-3.874 30.786,-3.729"
       style="fill:none;stroke:#231f20;stroke-width:0.5;stroke-linecap:round;stroke-linejoin:round;stroke-miterlimit:4;stroke-dasharray:2.8, 1.8;stroke-dashoffset:0;stroke-opacity:1"
       id="path986" />
    <path
       d="m 524.883,521.147 c -11.891,-2.607 -34.703,4.928 -35.264,23.676 -0.56,18.747 26.209,24.259 39.611,25.561 13.403,1.302 18.302,-2.356 20.606,-5.722 2.307,-3.366 -0.716,-7.449 -2.161,-7.465 0,0 1.24,3.734 -1.219,6.291 -2.457,2.556 -7.844,6.529 -20.095,3.626 -12.25,-2.903 -31.254,-8.803 -32.264,-18.355 -1.012,-9.551 4.851,-27.398 39.887,-22.684"
       style="fill:none;stroke:#231f20;stroke-width:0.5;stroke-linecap:round;stroke-linejoin:round;stroke-miterlimit:4;stroke-dasharray:2.8, 1.8;stroke-dashoffset:0;stroke-opacity:1"
       id="path988" />
    <path
       d="m 490.6,551.221 3.677,-1.451"
       style="fill:none;stroke:#231f20;stroke-width:0.5;stroke-linecap:round;stroke-linejoin:round;stroke-miterlimit:4;stroke-dasharray:2.8, 1.8;stroke-dashoffset:0;stroke-opacity:1"
       id="path990" />
    <path
       d="m 505.95,564.926 1.202,-3.973 c 13.104,3.173 38.638,9.09 39.739,-3.798"
       style="fill:none;stroke:#231f20;stroke-width:0.5;stroke-linecap:round;stroke-linejoin:round;stroke-miterlimit:4;stroke-dasharray:2.8, 1.8;stroke-dashoffset:0;stroke-opacity:1"
       id="path992" />
    <path
       d="m 825.067,534.996 c 2.4,1.971 -1.33,9.199 -6.237,13.745 -4.909,4.546 -14.595,22.612 -11.489,26.29 3.108,3.677 13.226,-10.262 16.424,-13.859 3.198,-3.597 11.771,-14.734 14.435,-18.098 4.109,-5.192 12.544,-13.106 15.253,-8.931 1.902,2.934 -3.93,22.989 -11.231,25.08 -7.302,2.09 -10.488,4.718 -13.928,8.312 -3.441,3.594 -6.412,8.407 -5,11.82 1.411,3.413 12.35,1.369 15.785,-1.741 3.434,-3.109 7.849,-6.933 14.428,-9.518 6.582,-2.585 12.37,-5.166 12.287,-12.698 -0.093,-8.512 -0.506,-17.468 4.369,-19.347 4.872,-1.878 7.479,3.577 9.855,6.915 1.998,2.808 3.205,15.077 5.571,19.715 2.367,4.638 6.149,12.446 6.321,18.027 0.171,5.579 -2.332,11.854 -6.696,11.556 -4.361,-0.298 -3.063,-7.072 -3.519,-9.261 -0.457,-2.188 -2.35,-6.092 -7.445,-5.914 -5.093,0.178 -11.694,4.218 -12.75,10.995 -1.054,6.776 4.936,12.431 10.731,14.444 5.796,2.014 14.98,4.554 18.887,2.421 3.906,-2.134 10.226,-3.266 12.818,2.83 2.59,6.095 1.056,12.382 -1.179,16.476 -2.235,4.095 -5.448,8.905 -3.091,14.27 2.359,5.365 10.397,21.716 12.263,27.56 1.866,5.844 1.347,8.505 -1.584,10.165 -2.93,1.661 -5.564,-1.04 -9.394,-4.968 -3.831,-3.929 -12.175,-15.433 -13.753,-24.911 -1.576,-9.479 -4.358,-18.863 -10.38,-22.928 -6.403,-4.323 -19.442,-16.01 -23.065,-17.268 -3.622,-1.259 -13.83,0.553 -17.446,-1.191 -3.615,-1.743 -9.624,-5.942 -14.004,-4.785 -4.381,1.157 -6.858,5.249 -7.885,9.844 -1.029,4.595 2.243,14.337 9.478,17.581 7.233,3.244 14.26,3.818 25.656,3.962 11.398,0.144 19.782,8.253 22.638,12.655 2.854,4.401 2.437,6.01 1.356,7.778 -1.362,2.225 -5.846,2.108 -9.712,0.847 -3.864,-1.262 -9.192,-1.814 -10.927,1.074 -1.734,2.889 1.483,7.416 4.725,10.003 3.086,2.463 14.681,8.916 20.722,10.691 6.04,1.774 17.879,5.319 22.398,12.409 4.518,7.09 5.632,14.865 2.176,19.671 -3.457,4.807 -7.588,5.482 -9.2,-1.329 -1.611,-6.811 -1.093,-9.472 -12.634,-17.378 -11.54,-7.907 -32.946,-22.001 -35.417,-18.394 -2.471,3.606 3.962,12.661 7.791,16.832 3.826,4.171 20.065,22.083 21.997,24.772 1.526,2.121 2.622,3.671 -0.318,6.06 -2.94,2.387 -6.365,4.769 -9.982,3.026 -3.615,-1.743 -7.688,-5.676 -16.999,-17.434 -9.309,-11.758 -20.485,-29.361 -24.766,-35.963 -4.282,-6.603 -7.87,-10.528 -13.626,-15.694 -5.755,-5.165 -7.57,-15.132 -15.507,-20.325 -7.937,-5.193 -11.557,-6.694 -16.233,-1.175 -5.434,6.411 4.021,27.213 15.495,40.454 11.473,13.241 16.872,27.376 23.315,35.703 6.442,8.327 16.301,14.999 18.939,17.458 2.636,2.459 4.048,5.871 -0.344,7.999 -4.393,2.127 -19.669,1.934 -24.271,1.391 -4.599,-0.544 -12.795,-4.528 -14.636,-12.312 -1.842,-7.784 -9.329,-29.462 -12.423,-34.109 -3.094,-4.647 -9.406,-23.401 -16.693,-22.523 -7.287,0.878 -5.717,11.083 -3.872,18.625 1.845,7.541 6.787,19.487 4.334,21.639 -2.453,2.151 -8.702,-2.293 -15.154,-9.892 -6.452,-7.6 -12.397,-16.891 -12.354,-20.285 0.044,-3.395 2.029,-7.008 6.449,-11.318 4.42,-4.309 9.09,-9.343 11.123,-16.593 1.57,-5.604 6.254,-24.779 -1.076,-30.085 -7.383,-5.345 -13.034,-5.015 -18.796,9.705 -5.765,14.721 -8.794,24.141 -9.542,25.829 -0.749,1.688 -1.977,2.886 -3.644,0.439 -1.667,-2.446 -11.216,-14.45 -13.257,-25.632 -2.041,-11.182 0.672,-14.785 5.268,-13.757 4.594,1.028 18.621,4.116 19.191,-2.668 0.571,-6.783 -20.535,-6.322 -19.733,-12.133"
       style="fill:none;stroke:#231f20;stroke-width:0.75;stroke-linecap:round;stroke-linejoin:round;stroke-miterlimit:4;stroke-dasharray:0, 2;stroke-dashoffset:0;stroke-opacity:1"
       id="path994" />
    <path
       d="m 798.106,550.598 c -4.019,4.007 -15.685,16.559 -19.104,21.649 -3.246,4.834 -9.034,4.736 -14.007,4.916 -4.973,0.18 -16.871,1.242 -17.07,-2.156 -0.298,-5.056 11.392,-9.072 16.497,-10.098 5.107,-1.027 11.078,-5.905 13.825,-9.647 1.234,-1.683 -1.9,-3.178 -6.517,-2.509"
       style="fill:none;stroke:#231f20;stroke-width:0.75;stroke-linecap:round;stroke-linejoin:round;stroke-miterlimit:4;stroke-dasharray:0, 2;stroke-dashoffset:0;stroke-opacity:1"
       id="path996" />
  </g>
</svg>
