<?xml version="1.0" encoding="UTF-8" standalone="no"?>
<!-- Created with Inkscape (http://www.inkscape.org/) -->

<svg
   version="1.1"
   id="svg2"
   width="1440"
   height="1344"
   viewBox="0 0 1440 1344"
   xmlns="http://www.w3.org/2000/svg"
   xmlns:svg="http://www.w3.org/2000/svg">
  <defs
     id="defs6" />
  <g
     id="g8">
    <path
       d="m 164.898,804.323 c 19.074,7.108 65.484,20.098 88.768,26.151 23.282,6.052 98.464,21.62 123.687,28.075 25.223,6.455 61.501,10.649 103.149,13.857 45.916,3.536 104.441,9.007 167.484,-4.925 63.044,-13.932 118.214,-35.207 131.212,-55.003 13.609,-20.722 4.865,-51.758 -15.517,-78.585 -20.382,-26.828 -21.675,-26.827 -30.729,-29.41 0,0 2.906,-2.911 -1.297,-7.759 -4.207,-4.848 -18.118,-21.655 -21.35,-18.421 -3.231,3.235 0.01,20.694 7.772,23.924 0,0 -11.965,-0.965 -19.4,0.978 0,0 9.374,-5.178 8.401,-11.967 -0.974,-6.79 -3.564,-17.135 -4.861,-23.924 -1.295,-6.79 -23.942,-37.174 -27.825,-43.315 -3.883,-6.142 -15.204,-11.31 -21.348,-16.804 -6.147,-5.494 -23.614,-27.472 -23.934,-17.772 0,0 -9.378,-0.966 -12.938,-8.401 -3.558,-7.436 -19.406,-15.51 -21.992,-16.803 0,0 8.404,-0.974 4.196,-12.613 -4.208,-11.637 -13.912,-21.01 -18.44,-21.008 -4.525,0.002 -10.992,1.298 -10.992,1.298 0,0 7.758,-7.44 3.873,-17.462 -3.885,-10.021 -7.768,-13.575 -15.851,-15.188 -8.085,-1.614 -28.782,-10.659 -49.478,-17.116 -20.696,-6.457 -44.627,-14.853 -64.997,-14.843 -20.369,0.008 -49.467,5.84 -59.49,5.522 -10.023,-0.319 -40.743,-6.126 -56.258,3.905 -15.516,10.031 -28.442,27.497 -32.321,29.762 -3.879,2.264 -25.911,17.586 -56.559,53.375 -32.963,38.49 -54.608,78.272 -57.839,85.063 -3.231,6.791 -4.841,17.785 14.878,9.046 0,0 -16.077,16.352 -27.792,35.58 -48.226,79.158 -23.878,106.71 -2.212,114.783 z M 592.379,701.07 c 5.575,-6.307 5.331,-10.915 10.663,-19.405 5.331,-8.49 7.269,-12.371 9.937,-10.432 2.668,1.939 15.041,15.029 24.26,23.027 4.709,4.084 13.349,9.542 24.379,12.26 -8.176,-1.481 -18.872,7.542 -23.721,11.585 -3.511,2.929 -9.815,7.976 -16.969,13.559 8.698,-11.975 -4.822,-23.758 -11.974,-25.185 -8.894,-1.775 -23.284,0.391 -25.672,2.021 3.695,-2.418 6.916,-4.961 9.097,-7.43"
       style="fill:#ffffff;fill-opacity:1;fill-rule:nonzero;stroke:none;stroke-width:0.1"
       id="path728" />
    <path
       d="m 164.898,804.323 c 19.074,7.108 65.484,20.098 88.768,26.151 23.282,6.052 98.464,21.62 123.687,28.075 25.223,6.455 61.501,10.649 103.149,13.857 45.916,3.536 104.441,9.007 167.484,-4.925 63.044,-13.932 118.214,-35.207 131.212,-55.003 13.609,-20.722 4.865,-51.758 -15.517,-78.585 -20.382,-26.828 -21.675,-26.827 -30.729,-29.41 0,0 2.906,-2.911 -1.297,-7.759 -4.207,-4.848 -18.118,-21.655 -21.35,-18.421 -3.231,3.235 0.01,20.694 7.772,23.924 0,0 -11.965,-0.965 -19.4,0.978 0,0 9.374,-5.178 8.401,-11.967 -0.974,-6.79 -3.564,-17.135 -4.861,-23.924 -1.295,-6.79 -23.942,-37.174 -27.825,-43.315 -3.883,-6.142 -15.204,-11.31 -21.348,-16.804 -6.147,-5.494 -23.614,-27.472 -23.934,-17.772 0,0 -9.378,-0.966 -12.938,-8.401 -3.558,-7.436 -19.406,-15.51 -21.992,-16.803 0,0 8.404,-0.974 4.196,-12.613 -4.208,-11.637 -13.912,-21.01 -18.44,-21.008 -4.525,0.002 -10.992,1.298 -10.992,1.298 0,0 7.758,-7.44 3.873,-17.462 -3.885,-10.021 -7.768,-13.575 -15.851,-15.188 -8.085,-1.614 -28.782,-10.659 -49.478,-17.116 -20.696,-6.457 -44.627,-14.853 -64.997,-14.843 -20.369,0.008 -49.467,5.84 -59.49,5.522 -10.023,-0.319 -40.743,-6.126 -56.258,3.905 -15.516,10.031 -28.442,27.497 -32.321,29.762 -3.879,2.264 -25.911,17.586 -56.559,53.375 -32.963,38.49 -54.608,78.272 -57.839,85.063 -3.231,6.791 -4.841,17.785 14.878,9.046 0,0 -16.077,16.352 -27.792,35.58 -48.226,79.158 -23.878,106.71 -2.212,114.783 z M 592.379,701.07 c 5.575,-6.307 5.331,-10.915 10.663,-19.405 5.331,-8.49 7.269,-12.371 9.937,-10.432 2.668,1.939 15.041,15.029 24.26,23.027 4.709,4.084 13.349,9.542 24.379,12.26 -8.176,-1.481 -18.872,7.542 -23.721,11.585 -3.511,2.929 -9.815,7.976 -16.969,13.559 8.698,-11.975 -4.822,-23.758 -11.974,-25.185 -8.894,-1.775 -23.284,0.391 -25.672,2.021 3.695,-2.418 6.916,-4.961 9.097,-7.43 z"
       style="fill:none;stroke:#231f20;stroke-width:0.75;stroke-linecap:butt;stroke-linejoin:miter;stroke-miterlimit:4;stroke-dasharray:none;stroke-opacity:1"
       id="path730" />
    <path
       d="m 868.958,445.837 c -28.862,-9.445 -52.87,-9.191 -61.356,-8.461 -8.488,0.732 -29.582,7.046 -41.947,13.598 -12.364,6.554 -22.061,14.318 -26.908,17.715 -11.407,-18.021 -34.195,-3.864 -29.582,8.986 -2.424,0.244 -13.336,3.643 -20.853,4.86 -17.458,3.887 -18.886,65.483 -12.307,75.522 -1.448,-0.291 -2.903,-0.335 -4.391,-0.098 -10.67,1.703 -5.764,38.38 -1.393,51.23 4.059,11.939 20.102,30.243 26.648,27.814 3.465,-1.285 5.262,-8.124 5.897,-16.259 0.734,12.363 10.108,19.162 10.108,19.162 -14.063,3.644 -3.627,21.099 4.866,34.191 8.493,13.091 18.684,24.968 26.689,31.755 8.005,6.787 11.399,1.208 11.399,1.208 -3.152,4.851 -0.481,10.185 10.436,20.365 10.916,10.18 27.17,21.328 42.449,25.686 15.28,4.358 14.789,-5.099 14.789,-5.099 13.102,12.604 39.047,8.955 40.502,8.227 1.456,-0.728 4.608,-1.942 15.032,-5.827 10.425,-3.885 7.756,-12.128 7.756,-12.128 2.668,2.666 10.427,2.663 16.73,-4.373 6.301,-7.035 0.236,-11.882 0.236,-11.882 9.461,4.845 13.098,4.844 20.369,-3.405 7.272,-8.248 -1.218,-15.761 -1.218,-15.761 2.181,0.969 8.972,1.45 14.062,-4.13 5.09,-5.579 5.571,-15.764 3.145,-19.886 -2.428,-4.121 -6.071,-15.032 0.474,-23.037 6.543,-8.006 4.84,-23.04 3.625,-26.677 -1.215,-3.637 -5.093,-3.393 -5.093,-3.393 0,0 1.453,-2.668 2.179,-4.123 0.727,-1.455 -5.586,-17.457 -15.537,-39.521 -9.951,-22.063 -15.533,-28.85 -23.295,-34.91 -7.763,-6.059 -16.49,0.008 -16.49,0.008 1.693,-7.518 -19.914,-18.965 -31.684,-14.108 2.416,-1.053 4.846,-2.144 7.264,-3.261 8.162,-2.024 16.893,-4.938 19.067,-23.126 2.173,-18.189 2.412,-31.526 -11.901,-41.219"
       style="fill:#ffffff;fill-opacity:1;fill-rule:nonzero;stroke:none;stroke-width:0.1"
       id="path732" />
    <path
       d="m 868.958,445.837 c -28.862,-9.445 -52.87,-9.191 -61.356,-8.461 -8.488,0.732 -29.582,7.046 -41.947,13.598 -12.364,6.554 -22.061,14.318 -26.908,17.715 -11.407,-18.021 -34.195,-3.864 -29.582,8.986 -2.424,0.244 -13.336,3.643 -20.853,4.86 -17.458,3.887 -18.886,65.483 -12.307,75.522 -1.448,-0.291 -2.903,-0.335 -4.391,-0.098 -10.67,1.703 -5.764,38.38 -1.393,51.23 4.059,11.939 20.102,30.243 26.648,27.814 3.465,-1.285 5.262,-8.124 5.897,-16.259 0.734,12.363 10.108,19.162 10.108,19.162 -14.063,3.644 -3.627,21.099 4.866,34.191 8.493,13.091 18.684,24.968 26.689,31.755 8.005,6.787 11.399,1.208 11.399,1.208 -3.152,4.851 -0.481,10.185 10.436,20.365 10.916,10.18 27.17,21.328 42.449,25.686 15.28,4.358 14.789,-5.099 14.789,-5.099 13.102,12.604 39.047,8.955 40.502,8.227 1.456,-0.728 4.608,-1.942 15.032,-5.827 10.425,-3.885 7.756,-12.128 7.756,-12.128 2.668,2.666 10.427,2.663 16.73,-4.373 6.301,-7.035 0.236,-11.882 0.236,-11.882 9.461,4.845 13.098,4.844 20.369,-3.405 7.272,-8.248 -1.218,-15.761 -1.218,-15.761 2.181,0.969 8.972,1.45 14.062,-4.13 5.09,-5.579 5.571,-15.764 3.145,-19.886 -2.428,-4.121 -6.071,-15.032 0.474,-23.037 6.543,-8.006 4.84,-23.04 3.625,-26.677 -1.215,-3.637 -5.093,-3.393 -5.093,-3.393 0,0 1.453,-2.668 2.179,-4.123 0.727,-1.455 -5.586,-17.457 -15.537,-39.521 -9.951,-22.063 -15.533,-28.85 -23.295,-34.91 -7.763,-6.059 -16.49,0.008 -16.49,0.008 1.693,-7.518 -19.914,-18.965 -31.684,-14.108 2.416,-1.053 4.846,-2.144 7.264,-3.261 8.162,-2.024 16.893,-4.938 19.067,-23.126 2.173,-18.189 2.412,-31.526 -11.901,-41.219"
       style="fill:none;stroke:#231f20;stroke-width:0.75;stroke-linecap:butt;stroke-linejoin:miter;stroke-miterlimit:4;stroke-dasharray:none;stroke-opacity:1"
       id="path734" />
    <path
       d="m 868.725,465.48 c -14.312,-9.693 -23.916,-9.751 -43.848,-7.772"
       style="fill:none;stroke:#231f20;stroke-width:0.75;stroke-linecap:butt;stroke-linejoin:miter;stroke-miterlimit:4;stroke-dasharray:none;stroke-opacity:1"
       id="path736" />
    <path
       d="m 854.295,533.086 c -12.181,5.028 -33.3,27.96 -33.3,27.96 -5.094,-1.696 -7.537,6.578 -7.537,6.578 0.763,-1.957 -0.454,-3.864 -1.192,-5.12 -3.236,-5.495 -11.642,-14.995 -11.642,-14.995 0.957,-0.161 1.927,-0.3 2.904,-0.422 6.226,-0.784 12.73,-0.953 18.187,-2.289 9.067,-2.221 20.703,-6.531 32.58,-11.712"
       style="fill:#706d6e;fill-opacity:1;fill-rule:nonzero;stroke:none;stroke-width:0.1"
       id="path738" />
    <path
       d="m 854.295,533.086 c -12.181,5.028 -33.3,27.96 -33.3,27.96 -5.094,-1.696 -7.537,6.578 -7.537,6.578 0.763,-1.957 -0.454,-3.864 -1.192,-5.12 -3.236,-5.495 -11.642,-14.995 -11.642,-14.995 0.957,-0.161 1.927,-0.3 2.904,-0.422 6.226,-0.784 12.73,-0.953 18.187,-2.289 9.067,-2.221 20.703,-6.531 32.58,-11.712 z"
       style="fill:none;stroke:#231f20;stroke-width:0.75;stroke-linecap:butt;stroke-linejoin:miter;stroke-miterlimit:4;stroke-dasharray:none;stroke-opacity:1"
       id="path740" />
    <path
       d="m 673.697,513.419 c 11.642,6.785 20.702,24.242 24.585,31.353 3.884,7.112 20.697,30.061 38.168,30.053 7.76,-0.003 19.388,-23.934 22.297,-30.08 2.906,-6.145 5.812,-17.786 9.367,-20.698 3.555,-2.912 10.407,-5.738 25.218,-1.627 16.036,4.451 40.895,14.184 68.227,7.405"
       style="fill:none;stroke:#231f20;stroke-width:0.5;stroke-linecap:butt;stroke-linejoin:miter;stroke-miterlimit:4;stroke-dasharray:none;stroke-opacity:1"
       id="path742" />
    <path
       d="m 753.651,554.811 c -6.538,4.489 -17.53,8.697 -22.706,-0.678 -5.179,-9.373 14.54,-21.346 19.389,-23.611 4.85,-2.265 13.39,-5.176 14.618,-1.622"
       style="fill:none;stroke:#231f20;stroke-width:0.5;stroke-linecap:butt;stroke-linejoin:miter;stroke-miterlimit:4;stroke-dasharray:none;stroke-opacity:1"
       id="path744" />
    <path
       d="m 695.221,578.239 c -4.691,-9.672 -11.41,-18.61 -19.242,-20.188"
       style="fill:none;stroke:#231f20;stroke-width:0.75;stroke-linecap:butt;stroke-linejoin:miter;stroke-miterlimit:4;stroke-dasharray:none;stroke-opacity:1"
       id="path746" />
    <path
       d="m 695.221,578.239 c 6.928,8.537 23.937,12.922 23.937,12.922 -9.216,-2.179 -16.879,9.483 -16.389,14.572 -0.167,-2.393 -0.407,-4.669 -0.71,-6.731 -0.771,-5.291 -3.193,-13.248 -6.838,-20.763 z"
       style="fill:none;stroke:#231f20;stroke-width:0.75;stroke-linecap:butt;stroke-linejoin:miter;stroke-miterlimit:4;stroke-dasharray:none;stroke-opacity:1"
       id="path748" />
    <path
       d="m 702.766,620.744 c 0.379,-4.851 0.344,-10.144 0.003,-15.011"
       style="fill:none;stroke:#231f20;stroke-width:0.75;stroke-linecap:butt;stroke-linejoin:miter;stroke-miterlimit:4;stroke-dasharray:none;stroke-opacity:1"
       id="path750" />
    <path
       d="m 712.874,639.906 c 4.123,-10e-4 7.275,-2.913 14.306,-4.129 7.033,-1.215 13.336,-3.885 16.002,-6.312"
       style="fill:none;stroke:#231f20;stroke-width:0.5;stroke-linecap:butt;stroke-linejoin:miter;stroke-miterlimit:4;stroke-dasharray:none;stroke-opacity:1"
       id="path752" />
    <path
       d="m 755.828,707.06 c 4.362,-5.337 12.356,-24.014 12.835,-40.746"
       style="fill:none;stroke:#231f20;stroke-width:0.5;stroke-linecap:butt;stroke-linejoin:miter;stroke-miterlimit:4;stroke-dasharray:none;stroke-opacity:1"
       id="path754" />
    <path
       d="m 823.502,748.012 c -5.097,-14.305 -19.416,-36.609 -19.66,-40.489"
       style="fill:none;stroke:#231f20;stroke-width:0.5;stroke-linecap:butt;stroke-linejoin:miter;stroke-miterlimit:4;stroke-dasharray:none;stroke-opacity:1"
       id="path756" />
    <path
       d="m 886.792,738.284 c -7.038,-8.727 -20.62,-15.269 -30.567,-27.389 -9.949,-12.121 -38.814,-31.993 -44.643,-48.238"
       style="fill:none;stroke:#231f20;stroke-width:0.5;stroke-linecap:butt;stroke-linejoin:miter;stroke-miterlimit:4;stroke-dasharray:none;stroke-opacity:1"
       id="path758" />
    <path
       d="m 922.909,702.863 c -9.219,-6.059 -23.774,-17.693 -25.473,-20.601 -1.699,-2.91 -1.705,-17.46 -12.863,-26.912 -11.16,-9.453 -20.862,-11.631 -29.108,-13.81 -8.246,-2.179 -15.765,-8.723 -23.283,-9.447"
       style="fill:none;stroke:#231f20;stroke-width:0.5;stroke-linecap:butt;stroke-linejoin:miter;stroke-miterlimit:4;stroke-dasharray:none;stroke-opacity:1"
       id="path760" />
    <path
       d="m 939.122,625.74 c -4.366,-0.968 -11.838,-0.075 -16.006,-0.478 -7.518,-0.723 -14.067,-4.601 -19.645,-4.841"
       style="fill:none;stroke:#231f20;stroke-width:0.5;stroke-linecap:butt;stroke-linejoin:miter;stroke-miterlimit:4;stroke-dasharray:none;stroke-opacity:1"
       id="path762" />
    <path
       d="m 885.979,547.194 c -1.937,7.033 -3.385,22.554 -4.838,27.89 -1.453,5.335 -2.904,12.126 -12.363,10.19 -9.457,-1.935 -25.221,-3.384 -41.221,7.536"
       style="fill:none;stroke:#231f20;stroke-width:0.5;stroke-linecap:butt;stroke-linejoin:miter;stroke-miterlimit:4;stroke-dasharray:none;stroke-opacity:1"
       id="path764" />
    <path
       d="m 678.768,492.926 c 10.668,-3.399 63.86,-19.631 72.102,-26.909"
       style="fill:none;stroke:#231f20;stroke-width:0.5;stroke-linecap:butt;stroke-linejoin:miter;stroke-miterlimit:4;stroke-dasharray:none;stroke-opacity:1"
       id="path766" />
    <path
       d="m 709.165,477.675 c 2.425,-0.243 24.732,-5.589 29.582,-8.986"
       style="fill:none;stroke:#231f20;stroke-width:0.75;stroke-linecap:butt;stroke-linejoin:miter;stroke-miterlimit:4;stroke-dasharray:none;stroke-opacity:1"
       id="path768" />
    <path
       d="m 738.747,468.689 c 15.274,-4.613 42.377,-6.652 69.97,-7.399"
       style="fill:none;stroke:#231f20;stroke-width:0.5;stroke-linecap:butt;stroke-linejoin:miter;stroke-miterlimit:4;stroke-dasharray:none;stroke-opacity:1"
       id="path770" />
    <path
       d="m 751.212,465.869 c 8.627,-5.918 41.359,-19.27 62.941,-20.008 21.582,-0.737 30.799,1.683 53.84,7.978"
       style="fill:none;stroke:#231f20;stroke-width:0.5;stroke-linecap:butt;stroke-linejoin:miter;stroke-miterlimit:4;stroke-dasharray:none;stroke-opacity:1"
       id="path772" />
    <path
       d="m 903.758,722.029 c -2.668,-1.697 -5.58,-5.333 -7.277,-7.029"
       style="fill:none;stroke:#231f20;stroke-width:0.5;stroke-linecap:butt;stroke-linejoin:miter;stroke-miterlimit:4;stroke-dasharray:none;stroke-opacity:1"
       id="path774" />
    <path
       d="m 783.872,617.607 c 3.246,-1.316 8.623,-4.496 13.871,-4.756 5.584,-5.681 3.306,-9.844 1.607,-11.056 -2.264,-1.616 -8.164,-0.724 -9.619,0.489 -1.455,1.214 -5.334,4.125 -9.94,4.37 0.216,3.989 1.637,7.897 4.081,10.953 z"
       style="fill:none;stroke:#231f20;stroke-width:0.5;stroke-linecap:butt;stroke-linejoin:miter;stroke-miterlimit:4;stroke-dasharray:none;stroke-opacity:1"
       id="path776" />
    <path
       d="m 719.158,591.161 c 2.581,0.544 9.719,4.314 13.19,6.757"
       style="fill:none;stroke:#231f20;stroke-width:0.5;stroke-linecap:butt;stroke-linejoin:miter;stroke-miterlimit:4;stroke-dasharray:none;stroke-opacity:1"
       id="path778" />
    <path
       d="m 451.383,754.366 c 0.289,0.559 0.575,1.084 0.857,1.571 6.309,10.91 32.511,36.846 70.586,42.892 38.075,6.045 49.956,0.947 75.173,-5.854 25.216,-6.801 44.128,-12.872 52.13,-14.815 8.001,-1.944 11.639,-1.461 19.4,-1.465 7.76,-0.003 13.579,-0.49 22.066,-1.707"
       style="fill:none;stroke:#231f20;stroke-width:0.5;stroke-linecap:butt;stroke-linejoin:miter;stroke-miterlimit:4;stroke-dasharray:none;stroke-opacity:1"
       id="path780" />
    <path
       d="m 451.372,754.339 c -0.891,-1.653 -2.529,-1.552 -4.227,-3.168 0,0 -2.427,-3.718 -10.673,-6.139 -8.246,-2.421 -2.317,-10.238 -1.46,-12.124 2.423,-5.336 3.052,-10.872 0.476,-20.128 -2.429,-8.729 -4.324,-10.78 -4.586,-13.459 0.678,0.422 1.572,0.778 2.664,0.788 3.97,14.593 11.639,42.299 17.806,54.23"
       style="fill:#706d6e;fill-opacity:1;fill-rule:nonzero;stroke:none;stroke-width:0.1"
       id="path782" />
    <path
       d="m 451.372,754.339 c -0.891,-1.653 -2.529,-1.552 -4.227,-3.168 0,0 -2.427,-3.718 -10.673,-6.139 -8.246,-2.421 -2.317,-10.238 -1.46,-12.124 2.423,-5.336 3.052,-10.872 0.476,-20.128 -2.429,-8.729 -4.324,-10.78 -4.586,-13.459 0.678,0.422 1.572,0.778 2.664,0.788 3.97,14.593 11.639,42.299 17.806,54.23 z"
       style="fill:none;stroke:#231f20;stroke-width:0.75;stroke-linecap:butt;stroke-linejoin:miter;stroke-miterlimit:4;stroke-dasharray:none;stroke-opacity:1"
       id="path784" />
    <path
       d="m 530.071,730.44 c 0,0 -14.067,-2.419 -28.132,-3.867 -14.065,-1.449 -39.713,4.158 -43.399,18.692 -3.687,14.534 23.537,33.212 33.725,38.058 10.187,4.845 31.773,14.293 56.023,14.039 24.25,-0.253 38.796,-6.807 45.101,-9.477 6.303,-2.671 12.123,-2.431 24.73,-10.439 12.606,-8.008 19.878,-14.316 26.181,-19.169 6.304,-4.853 12.607,-6.069 19.643,-0.979 7.034,5.09 16.252,10.663 30.802,8.717 14.549,-1.947 24.49,-4.134 24.976,-0.254 0.487,3.88 -1.935,9.943 -11.148,13.1 -9.215,3.156 -36.371,10.444 -41.949,11.659 -5.577,1.214 -19.641,2.676 -39.038,7.292 -19.398,4.616 -36.128,10.443 -52.619,12.148 -16.488,1.705 -51.891,4.146 -95.793,-16.932 -43.902,-21.078 -53.119,-25.196 -79.798,-33.429 -26.679,-8.233 -44.868,-11.621 -77.85,-17.183 -32.982,-5.563 -54.119,-8.861 -59.912,-32.953 -2.916,-12.124 7.988,-32.984 10.653,-37.835 2.666,-4.851 19.95,-35.171 19.95,-35.171 0,0 2.265,4.203 -4.195,17.461 -6.461,13.26 -6.128,35.894 -1.596,47.531 4.532,11.638 17.147,21.979 33.315,27.145 16.169,5.167 67.259,11.287 86.983,13.218 19.724,1.932 37.509,6.127 40.421,9.359"
       style="fill:none;stroke:#231f20;stroke-width:0.5;stroke-linecap:butt;stroke-linejoin:miter;stroke-miterlimit:4;stroke-dasharray:none;stroke-opacity:1"
       id="path786" />
    <path
       d="m 246.538,618.047 c -0.728,-1.455 -16.244,7.282 -22.305,11.65 -6.06,4.368 -11.393,9.22 -17.697,11.89 -6.304,2.671 -12.065,2.72 -14.065,-0.479 -2.427,-3.879 18.658,-32.746 22.535,-38.567 3.878,-5.822 7.27,-11.886 14.3,-18.679 7.028,-6.793 14.056,-18.679 22.296,-29.838 8.24,-11.158 27.011,-33.093 39.132,-43.041"
       style="fill:none;stroke:#231f20;stroke-width:0.5;stroke-linecap:butt;stroke-linejoin:miter;stroke-miterlimit:4;stroke-dasharray:none;stroke-opacity:1"
       id="path788" />
    <path
       d="m 194.902,653.96 c 0,0 24.241,-18.198 35.151,-24.993 10.909,-6.795 17.213,-9.466 16.485,-10.92"
       style="fill:none;stroke:#231f20;stroke-width:0.75;stroke-linecap:butt;stroke-linejoin:miter;stroke-miterlimit:4;stroke-dasharray:none;stroke-opacity:1"
       id="path790" />
    <path
       d="m 198.582,651.217 c 2.787,4.033 13.458,7.262 25.096,3.7 11.639,-3.562 34.431,-10.038 22.86,-36.87"
       style="fill:none;stroke:#231f20;stroke-width:0.5;stroke-linecap:butt;stroke-linejoin:miter;stroke-miterlimit:4;stroke-dasharray:none;stroke-opacity:1"
       id="path792" />
    <path
       d="m 373.017,561.246 c 5.01,2.835 11.157,5.006 13.419,0.64 2.261,-4.366 -8.066,-18.026 -18.113,-12.279 -5.657,3.237 -0.157,8.893 4.694,11.639 z"
       style="fill:none;stroke:#231f20;stroke-width:0.5;stroke-linecap:butt;stroke-linejoin:miter;stroke-miterlimit:4;stroke-dasharray:none;stroke-opacity:1"
       id="path794" />
    <path
       d="m 661.635,706.526 c 10.586,2.61 23.381,2.708 37.042,-3.321"
       style="fill:none;stroke:#231f20;stroke-width:0.75;stroke-linecap:butt;stroke-linejoin:miter;stroke-miterlimit:4;stroke-dasharray:none;stroke-opacity:1"
       id="path796" />
    <path
       d="m 433.541,700.109 c 0.797,0.008 1.69,-0.177 2.668,-0.667 4.364,-2.184 10.425,-5.582 18.916,0.962 8.49,6.543 10.919,14.303 17.71,17.695 6.791,3.391 15.037,4.115 25.466,5.808 10.428,1.693 21.342,4.841 32.981,4.108 11.638,-0.733 24.732,-6.559 33.945,-10.2 5.609,-2.217 12.384,-5.601 18.086,-9.334"
       style="fill:none;stroke:#231f20;stroke-width:0.75;stroke-linecap:butt;stroke-linejoin:miter;stroke-miterlimit:4;stroke-dasharray:none;stroke-opacity:1"
       id="path798" />
    <path
       d="m 509.621,552.697 c -5.575,4.61 -14.304,7.766 -27.398,9.47 -13.094,1.703 -37.348,-7.259 -45.1,9.72 -7.839,17.166 -16.469,48.992 -15.248,66.937 1.022,15.031 0.743,34.434 -2.892,42.196 -3.633,7.762 -1.446,17.46 3.162,20.126 4.609,2.666 6.547,-0.73 7.031,-3.398 0,0 0.604,0.877 1.707,1.563"
       style="fill:none;stroke:#231f20;stroke-width:0.5;stroke-linecap:butt;stroke-linejoin:miter;stroke-miterlimit:4;stroke-dasharray:none;stroke-opacity:1"
       id="path800" />
    <path
       d="m 509.652,552.614 c 1.174,-1.445 1.059,-2.858 1.058,-4.404 0,-1.611 -2.89,-2.628 -5.749,-2.933 2.595,-2.885 7.808,-4.828 9.747,-5.435 1.94,-0.607 4.486,-0.851 3.032,1.939 -1.453,2.789 0.993,8.064 3.036,9.004 -3.288,-1.263 -7.16,-1.391 -11.124,1.829 z"
       style="fill:none;stroke:#231f20;stroke-width:0.75;stroke-linecap:butt;stroke-linejoin:miter;stroke-miterlimit:4;stroke-dasharray:none;stroke-opacity:1"
       id="path802" />
    <path
       d="m 594.18,564.219 c -21.186,-12.924 -27.814,-10.82 -35.573,-10.331 -7.761,0.488 -28.614,2.438 -34.193,-1.198 -1.1,-0.716 -2.318,-1.397 -3.624,-1.899"
       style="fill:none;stroke:#231f20;stroke-width:0.75;stroke-linecap:butt;stroke-linejoin:miter;stroke-miterlimit:4;stroke-dasharray:none;stroke-opacity:1"
       id="path804" />
    <path
       d="m 457.157,702.091 c -0.821,-5.083 -9.558,-20.356 -20.47,-20.109 -7.31,0.166 -7.511,15.766 -7.511,15.766"
       style="fill:none;stroke:#231f20;stroke-width:0.5;stroke-linecap:butt;stroke-linejoin:miter;stroke-miterlimit:4;stroke-dasharray:none;stroke-opacity:1"
       id="path806" />
    <path
       d="m 454.582,695.723 c 1.267,-2.352 0.781,-4.535 -4.313,-8.655 -5.094,-4.12 -19.165,-15.511 -18.691,-42.671 0.472,-27.161 17.925,-41.718 26.169,-46.087 8.243,-4.369 27.154,-11.652 33.216,-13.595 6.062,-1.943 14.307,-2.673 21.338,-5.829 7.031,-3.156 13.819,-7.766 21.091,-13.59 7.272,-5.823 22.55,-6.8 33.22,-4.865 10.672,1.936 25.066,10.589 34.443,19.143 5.58,5.09 11.596,10.209 13.569,11.996 2.529,2.289 9.336,0.346 6.246,-5.227"
       style="fill:none;stroke:#231f20;stroke-width:0.5;stroke-linecap:butt;stroke-linejoin:miter;stroke-miterlimit:4;stroke-dasharray:none;stroke-opacity:1"
       id="path808" />
    <path
       d="m 676.997,639.434 c 2.515,-0.372 4.478,-1.543 5.402,-3.9"
       style="fill:none;stroke:#231f20;stroke-width:0.5;stroke-linecap:butt;stroke-linejoin:miter;stroke-miterlimit:4;stroke-dasharray:none;stroke-opacity:1"
       id="path810" />
    <path
       d="m 669.72,646.186 c 0,0 2.115,-2.533 7.28,-6.759"
       style="fill:none;stroke:#231f20;stroke-width:0.5;stroke-linecap:butt;stroke-linejoin:miter;stroke-miterlimit:4;stroke-dasharray:none;stroke-opacity:1"
       id="path812" />
    <path
       d="m 517.798,762.456 c 8.57,1.29 23.238,5.266 35.246,3.379 13.416,-2.107 26.507,-9.712 34.266,-13.595 7.758,-3.884 14.871,-6.15 25.214,-14.076 2.855,-2.189 5.698,-4.388 8.42,-6.513"
       style="fill:none;stroke:#231f20;stroke-width:0.5;stroke-linecap:butt;stroke-linejoin:miter;stroke-miterlimit:4;stroke-dasharray:none;stroke-opacity:1"
       id="path814" />
    <path
       d="m 594.586,756.278 c -7.273,4.368 -19.07,13.265 -36.367,16.182 -17.296,2.919 -31.525,0.016 -43.974,-4.668 -12.452,-4.682 -25.711,-10.334 -23.934,-15.994 1.775,-5.659 4.201,-5.984 13.254,-3.886 9.055,2.098 28.619,7.423 40.42,5.64 11.8,-1.783 18.428,-5.667 27.965,-10.198 9.535,-4.53 17.293,-8.899 21.172,-9.709 0,0 -2.428,-4.363 -14.067,-2.741 -11.639,1.621 -34.917,6.482 -41.708,4.06 -6.79,-2.422 -7.762,-5.614 -9.056,-6.846"
       style="fill:none;stroke:#231f20;stroke-width:0.5;stroke-linecap:round;stroke-linejoin:round;stroke-miterlimit:4;stroke-dasharray:2.8, 1.8;stroke-dashoffset:0;stroke-opacity:1"
       id="path816" />
    <path
       d="m 503.565,747.912 c 3.206,0.762 10.835,5.169 14.553,6.298 3.719,1.131 16.978,4.358 30.232,2.089 13.256,-2.27 25.378,-9.55 30.389,-12.462 5.01,-2.913 11.961,-6.795 18.588,-7.607 6.629,-0.811 12.932,-2.431 13.092,-5.502 0.161,-3.072 -4.85,-1.938 -9.862,-2.259 -5.013,-0.322 -12.125,-2.905 -15.846,-4.035 -3.718,-1.13 -12.449,0.814 -20.207,3.889 -7.758,3.075 -12.445,4.37 -18.75,5.02 -8.517,0.878 -9.54,-2.744 -12.81,-0.499"
       style="fill:none;stroke:#231f20;stroke-width:0.5;stroke-linecap:round;stroke-linejoin:round;stroke-miterlimit:4;stroke-dasharray:2.8, 1.8;stroke-dashoffset:0;stroke-opacity:1"
       id="path818" />
    <path
       d="m 602.835,765.004 c -0.412,-1.606 -1.94,-1.454 -4.526,0.164 -2.584,1.618 -3.17,6.105 -5.17,8.894 -1.867,2.609 -10.501,11.322 -19.392,13.104 -8.892,1.782 -32.01,2.601 -47.046,-0.464 -15.036,-3.065 -35.41,-10.331 -47.539,-20.996 -12.13,-10.664 -15.205,-18.423 -10.357,-23.436 4.847,-5.015 18.101,-10.679 28.449,-8.743 10.347,1.935 18.595,6.943 28.782,9.687 10.185,2.744 25.172,4.079 36.05,-0.501 2.545,-1.072 2.909,-4.043 -1.618,-3.071 -4.526,0.972 -16.327,4.534 -28.777,-0.473 -12.45,-5.006 -28.619,-9.202 -37.187,-9.036 -8.568,0.165 -31.523,4.54 -32.487,16.343 -0.621,7.588 9.708,19.396 28.951,29.733 19.243,10.338 38.645,15.665 56.751,15.495 18.108,-0.17 31.647,-2.394 37.828,-6.16 5.111,-3.114 7.656,-6.632 9.534,-10.998 1.697,-3.946 5.171,-6.307 5.978,-6.954 0.808,-0.647 2.201,-0.93 1.776,-2.588 z"
       style="fill:none;stroke:#231f20;stroke-width:0.5;stroke-linecap:round;stroke-linejoin:round;stroke-miterlimit:4;stroke-dasharray:2.8, 1.8;stroke-dashoffset:0;stroke-opacity:1"
       id="path820" />
    <path
       d="m 600.032,785.704 c 1.679,-5.988 2.594,-15.857 2.092,-18.844"
       style="fill:none;stroke:#231f20;stroke-width:0.5;stroke-linecap:round;stroke-linejoin:round;stroke-miterlimit:4;stroke-dasharray:2.8, 1.8;stroke-dashoffset:0;stroke-opacity:1"
       id="path822" />
    <path
       d="m 601.647,763.86 c 0,0 -0.906,-12.244 -2.451,-17.269"
       style="fill:none;stroke:#231f20;stroke-width:0.5;stroke-linecap:round;stroke-linejoin:round;stroke-miterlimit:4;stroke-dasharray:2.8, 1.8;stroke-dashoffset:0;stroke-opacity:1"
       id="path824" />
    <path
       d="m 473.561,760.307 c -2.862,-3.372 -7.017,-11.085 1.549,-15.777 8.567,-4.692 15.84,-8.091 26.188,-6.155 10.347,1.935 18.878,3.376 23.86,4.592"
       style="fill:none;stroke:#231f20;stroke-width:0.5;stroke-linecap:round;stroke-linejoin:round;stroke-miterlimit:4;stroke-dasharray:2.8, 1.8;stroke-dashoffset:0;stroke-opacity:1"
       id="path826" />
    <path
       d="m 509.684,552.53 c -0.381,0.454 -0.901,0.903 -1.611,1.348 -2.842,1.781 -10.09,3.189 -20.637,4.649 -9.327,1.29 -23.644,1.344 -27.162,-2.17 -3.518,-3.515 1.178,-8.306 2.59,-9.295 2.922,-2.045 5.65,-3.319 7.589,-3.805 1.749,-0.439 4.498,-1.75 8.003,0.117 4.081,2.175 8.611,4.604 12.248,3.875 3.637,-0.729 8.486,-1.943 11.881,-2.066 0.741,-0.027 1.546,0.003 2.351,0.089"
       style="fill:none;stroke:#231f20;stroke-width:0.5;stroke-linecap:butt;stroke-linejoin:miter;stroke-miterlimit:4;stroke-dasharray:none;stroke-opacity:1"
       id="path828" />
    <path
       d="m 453.506,561.52 c 0.586,-2.13 2.646,-4.192 6.768,-5.163"
       style="fill:none;stroke:#231f20;stroke-width:0.5;stroke-linecap:butt;stroke-linejoin:miter;stroke-miterlimit:4;stroke-dasharray:none;stroke-opacity:1"
       id="path830" />
    <path
       d="m 601.89,683.588 c -0.556,-0.942 -1.559,-2.808 -2.19,-5.054 -3.03,-3.018 -7.815,1.318 -9.752,5.804 -1.94,4.488 -4.847,8.369 -8.119,12.129 -3.272,3.761 -6.543,8.975 -7.028,10.553 -0.484,1.576 -1.795,2.81 -3.878,4.245 -1.743,1.201 -9.456,5.339 -15.881,7.524 -6.425,2.186 -18.548,5.344 -25.337,6.316 -6.79,0.974 -8.609,0.61 -11.155,0.248 -2.547,-0.363 -2.667,1.092 -2.339,1.813"
       style="fill:none;stroke:#231f20;stroke-width:0.5;stroke-linecap:butt;stroke-linejoin:miter;stroke-miterlimit:4;stroke-dasharray:none;stroke-opacity:1"
       id="path832" />
    <path
       d="m 605.838,701.185 c 3.033,2.303 9.456,-7.279 5.454,-9.46 -4.003,-2.181 -7.329,8.036 -5.454,9.46"
       style="fill:#ffffff;fill-opacity:1;fill-rule:nonzero;stroke:none;stroke-width:0.1"
       id="path834" />
    <path
       d="m 605.838,701.185 c 3.033,2.303 9.456,-7.279 5.454,-9.46 -4.003,-2.181 -7.329,8.036 -5.454,9.46 z"
       style="fill:none;stroke:#231f20;stroke-width:0.75;stroke-linecap:butt;stroke-linejoin:miter;stroke-miterlimit:4;stroke-dasharray:none;stroke-opacity:1"
       id="path836" />
    <path
       d="m 643.71,639.642 c -7.307,1.153 -9.331,6.303 -11.339,11.819 -1.601,4.397 -1.909,8.199 -1.869,11.378 -0.314,-11.256 -7.23,-22.044 -12.325,-25.8 -2.387,-1.761 -5.467,-3.921 -9.071,-5.469 -1.44,-0.574 -4.27,-3.619 1.672,-3.015 5.941,0.603 17.365,-0.217 32.932,11.087 z"
       style="fill:none;stroke:#231f20;stroke-width:0.5;stroke-linecap:butt;stroke-linejoin:miter;stroke-miterlimit:4;stroke-dasharray:none;stroke-opacity:1"
       id="path838" />
    <path
       d="m 607.561,666.007 c -1.254,-1.561 -1.982,-4.834 0.928,-4.229 2.91,0.605 9.095,3.512 18.798,8.6 9.702,5.088 13.218,7.633 15.042,15.15 1.82,7.516 1.459,10.184 11.888,14.666 10.43,4.481 18.553,5.326 30.556,2.775 12.003,-2.552 17.577,-9.587 15.026,-20.983 -2.551,-11.397 -5.586,-17.337 -8.255,-21.215 -2.668,-3.879 -8.092,-7.189 -15.04,-10.178 -2.89,-1.245 -4.634,-2.819 -6.806,-4.425"
       style="fill:none;stroke:#231f20;stroke-width:0.5;stroke-linecap:butt;stroke-linejoin:miter;stroke-miterlimit:4;stroke-dasharray:none;stroke-opacity:1"
       id="path840" />
    <path
       d="m 547.729,630.522 c 2.161,-0.47 4.971,0.362 4.852,6.667 -0.118,6.305 0.371,16.005 0.13,19.036 -0.242,3.032 -0.722,10.064 -4.843,14.31 -4.121,4.246 -12.121,10.19 -15.514,13.587 -3.394,3.397 -9.09,9.219 -11.998,13.585 -2.908,4.367 -5.21,7.52 -6.787,6.914 -1.576,-0.605 3.756,-7.034 6.664,-10.915 2.908,-3.881 9.574,-12.25 13.694,-15.768 4.121,-3.519 9.697,-8.129 12.241,-13.95 2.543,-5.821 2.905,-9.822 1.932,-13.581 -0.971,-3.758 -2.306,-9.335 -2.673,-12.002 -0.364,-2.667 -0.487,-7.275 2.302,-7.883 z"
       style="fill:none;stroke:#231f20;stroke-width:0.5;stroke-linecap:butt;stroke-linejoin:miter;stroke-miterlimit:4;stroke-dasharray:none;stroke-opacity:1"
       id="path842" />
    <path
       d="m 529.338,528.848 c 2.096,-5.18 3.207,-11.593 3.525,-14.642"
       style="fill:none;stroke:#231f20;stroke-width:0.5;stroke-linecap:butt;stroke-linejoin:miter;stroke-miterlimit:4;stroke-dasharray:none;stroke-opacity:1"
       id="path844" />
    <path
       d="m 461.026,482.419 c 4.593,3.125 16.053,7.481 28.834,6.264"
       style="fill:none;stroke:#231f20;stroke-width:0.5;stroke-linecap:butt;stroke-linejoin:miter;stroke-miterlimit:4;stroke-dasharray:none;stroke-opacity:1"
       id="path846" />
    <path
       d="m 718.077,702.227 c 5.011,0.482 9.964,0.702 14.875,2.256"
       style="fill:none;stroke:#231f20;stroke-width:0.75;stroke-linecap:butt;stroke-linejoin:miter;stroke-miterlimit:4;stroke-dasharray:none;stroke-opacity:1"
       id="path848" />
    <path
       d="m 466.033,756.762 3.627,-1.264"
       style="fill:none;stroke:#231f20;stroke-width:0.5;stroke-linecap:round;stroke-linejoin:round;stroke-miterlimit:4;stroke-dasharray:2.8, 1.8;stroke-dashoffset:0;stroke-opacity:1"
       id="path850" />
    <path
       d="m 475.57,766.236 2.57,-1.442"
       style="fill:none;stroke:#231f20;stroke-width:0.5;stroke-linecap:round;stroke-linejoin:round;stroke-miterlimit:4;stroke-dasharray:2.8, 1.8;stroke-dashoffset:0;stroke-opacity:1"
       id="path852" />
    <path
       d="m 813.458,567.624 c 0,0 -1.432,2.762 1.359,6.64 2.791,3.88 4.004,4.849 10.064,0.602 6.061,-4.246 22.911,-14.075 26.061,-15.289 3.152,-1.214 3.639,-0.972 3.881,-0.244 0.242,0.728 0.242,2.183 -3.272,3.76 -3.515,1.578 -15.517,6.433 -21.82,11.043 -6.305,4.611 -13.695,14.799 -12.844,19.77 0.852,4.971 4.531,13.421 12.858,12.604 9.943,-0.974 21.824,-1.464 33.466,2.168 11.641,3.632 16.247,-0.371 19.762,-3.04 3.516,-2.669 14.547,-9.585 16.971,-10.678 2.424,-1.092 5.576,-2.306 5.699,-0.73 0.121,1.577 0.85,2.91 -1.453,4.123 -2.305,1.214 -14.549,5.1 -17.455,10.314 -2.908,5.215 -3.633,11.036 -0.115,15.521 3.517,4.484 10.674,11.271 14.798,14.664 4.124,3.393 13.463,8.603 17.708,8.358 0,0 -7.635,12.371 0.009,24.856 0,0 -1.261,-0.364 -5.463,-14.426 -2.064,-6.91 -20.334,-22.504 -31.052,-29.934 -11.887,-8.24 -46.446,-14.53 -55.538,-8.706 -9.089,5.825 -10.662,18.071 -3.261,24.009 7.398,5.938 18.193,14.542 23.166,17.45 4.973,2.908 15.765,7.995 18.558,15.269 2.791,7.274 5.948,14.062 13.709,18.061 4.496,2.315 13.237,5.927 20.43,9.168 5.225,2.354 9.686,4.59 10.86,5.61 0,0 -24.815,-12.839 -30.924,-9.687 -3.303,1.705 -3.028,5.822 -3.028,5.822 0,0 -4.582,-7.278 -10.676,-12.727 -6.914,-6.18 -10.107,-8.887 -15.445,-12.764 -5.336,-3.877 -8.894,-9.212 -16.82,-15.19 -7.924,-5.978 -15.848,-12.441 -22.317,-12.761 -6.466,-0.32 -10.99,0.167 -11.636,6.634 -0.643,6.466 -2.094,16.329 3.406,25.056 5.5,8.727 18.6,21.008 23.615,26.179 5.014,5.172 21.838,25.857 26.848,26.663 0,0 -6.365,0.051 -20.859,-13.57 -16.336,-15.351 -25.233,-26.34 -30.247,-29.895 -5.013,-3.555 -9.861,-0.319 -12.607,5.341 -2.746,5.659 -3.228,11.802 -2.418,16.814 0.811,5.012 2.27,10.023 1.137,10.347 -1.131,0.323 -4.69,-4.525 -5.34,-11.8 -0.651,-7.275 2.578,-17.623 4.516,-20.372 1.939,-2.749 1.777,-6.953 1.451,-11.64 -0.324,-4.688 -3.082,-23.279 -4.055,-28.291 -0.971,-5.011 -4.531,-12.768 -9.867,-14.868 -5.336,-2.1 -12.287,1.783 -16.002,5.18 -3.719,3.397 -14.867,16.173 -18.742,28.624 0,0 1.451,-10.186 -4.695,-14.063 0,0 10.343,-5.502 17.939,-13.75 7.595,-8.249 11.472,-12.94 8.56,-16.979 -2.911,-4.04 -16.499,-22.303 -37.027,-16.797 0,0 4.524,-3.235 7.758,-3.398 3.232,-0.164 7.433,-4.53 3.068,-7.438 -1.092,-0.727 -2.343,-1.121 -3.656,-1.302"
       style="fill:none;stroke:#231f20;stroke-width:0.5;stroke-linecap:butt;stroke-linejoin:miter;stroke-miterlimit:4;stroke-dasharray:none;stroke-opacity:1"
       id="path854" />
    <path
       d="m 832.778,518.846 c 16.219,0.044 35.89,-3.573 39.76,-24.592 3.871,-21.018 -5.19,-35.241 -35.907,-36.843 -30.718,-1.605 -52.373,15.544 -53.017,24.596 -0.641,9.053 12.295,15.191 22.968,23.593 10.674,8.402 17.098,13.22 26.196,13.246 z"
       style="fill:none;stroke:#231f20;stroke-width:0.5;stroke-linecap:round;stroke-linejoin:round;stroke-miterlimit:4;stroke-dasharray:2.8, 1.8;stroke-dashoffset:0;stroke-opacity:1"
       id="path856" />
    <path
       d="m 697.458,543.253 c -1.754,-3.191 -0.473,-7.533 0.82,-10.121 1.293,-2.588 1.615,-7.113 0.318,-12.61 -1.297,-5.497 2.903,-16.169 10.985,-21.669 8.078,-5.5 15.519,0.641 16.49,2.257 0.971,1.616 1.943,10.021 -5.49,17.138 -7.434,7.118 -0.641,13.581 3.242,17.136 3.881,3.555 6.993,10.67 6.267,15.277"
       style="fill:none;stroke:#231f20;stroke-width:0.5;stroke-linecap:round;stroke-linejoin:round;stroke-miterlimit:4;stroke-dasharray:2.8, 1.8;stroke-dashoffset:0;stroke-opacity:1"
       id="path858" />
    <path
       d="m 812.52,510.191 c 1.818,-12.031 2.309,-38.098 1.244,-50.445"
       style="fill:none;stroke:#231f20;stroke-width:0.5;stroke-linecap:round;stroke-linejoin:round;stroke-miterlimit:4;stroke-dasharray:2.8, 1.8;stroke-dashoffset:0;stroke-opacity:1"
       id="path860" />
    <path
       d="m 687.646,619.305 c 4.682,0.5 9.214,-3.157 7.755,-10.188 -1.458,-7.033 -9.465,-18.184 -16.012,-14.786 -6.546,3.398 1.466,24.25 8.257,24.974 z"
       style="fill:none;stroke:#231f20;stroke-width:0.5;stroke-linecap:round;stroke-linejoin:round;stroke-miterlimit:4;stroke-dasharray:2.8, 1.8;stroke-dashoffset:0;stroke-opacity:1"
       id="path862" />
    <path
       d="m 674.042,567.901 c 5.121,-6.589 22.133,14.827 18.44,19.635 -4.847,6.306 -23.529,-13.085 -18.44,-19.635 z"
       style="fill:none;stroke:#231f20;stroke-width:0.5;stroke-linecap:round;stroke-linejoin:round;stroke-miterlimit:4;stroke-dasharray:2.8, 1.8;stroke-dashoffset:0;stroke-opacity:1"
       id="path864" />
    <path
       d="m 783.874,617.612 c 3.056,3.823 7.714,6.324 13.626,6.009 6.315,-0.336 12.61,0.722 16.245,-4.857 3.636,-5.579 3.875,-10.914 -0.008,-19.158 -3.885,-8.243 -5.342,-14.79 -18.193,-13.571 -12.852,1.218 -16.243,11.647 -15.753,20.619"
       style="fill:none;stroke:#231f20;stroke-width:0.5;stroke-linecap:round;stroke-linejoin:round;stroke-miterlimit:4;stroke-dasharray:2.8, 1.8;stroke-dashoffset:0;stroke-opacity:1"
       id="path866" />
    <path
       d="m 797.741,612.851 c 4.621,-0.229 9.144,1.808 12.031,9.38"
       style="fill:none;stroke:#231f20;stroke-width:0.5;stroke-linecap:round;stroke-linejoin:round;stroke-miterlimit:4;stroke-dasharray:2.8, 1.8;stroke-dashoffset:0;stroke-opacity:1"
       id="path868" />
    <path
       d="m 781.04,596.883 c 6.263,0.795 22.914,0.074 29.744,-3.574"
       style="fill:none;stroke:#231f20;stroke-width:0.5;stroke-linecap:round;stroke-linejoin:round;stroke-miterlimit:4;stroke-dasharray:2.8, 1.8;stroke-dashoffset:0;stroke-opacity:1"
       id="path870" />
    <path
       d="m 800.626,547.512 c 0,0 -1.702,6.996 2.664,10.146 4.367,3.151 5.582,7.03 3.402,12.124 -2.18,5.093 -5.164,8.764 -8.717,10.543 -3.103,1.554 -11.164,1.833 -13.346,1.834 -2.183,10e-4 -4.849,0.73 -2.666,2.184"
       style="fill:none;stroke:#231f20;stroke-width:0.5;stroke-linecap:round;stroke-linejoin:round;stroke-miterlimit:4;stroke-dasharray:2.8, 1.8;stroke-dashoffset:0;stroke-opacity:1"
       id="path872" />
    <path
       d="m 800.624,547.509 c -5.145,0.86 -9.938,2.353 -13.582,5.549 -7.799,6.838 -8.495,11.345 -10.42,18.677 -1.811,6.899 -1.207,11.399 5.341,12.608 6.547,1.209 18.43,-0.898 23.762,-6.801 6.002,-6.643 7.033,-8.134 7.733,-9.918"
       style="fill:none;stroke:#231f20;stroke-width:0.5;stroke-linecap:round;stroke-linejoin:round;stroke-miterlimit:4;stroke-dasharray:2.8, 1.8;stroke-dashoffset:0;stroke-opacity:1"
       id="path874" />
    <path
       d="m 782.604,582.374 c -1.211,0.512 -4.039,-4.092 0.326,-4.579 4.365,-0.487 12.125,-0.733 14.305,-3.159 2.181,-2.426 3.392,-9.944 2.178,-13.824 -1.215,-3.879 -3.049,-7.14 2.015,-7.205"
       style="fill:none;stroke:#231f20;stroke-width:0.5;stroke-linecap:round;stroke-linejoin:round;stroke-miterlimit:4;stroke-dasharray:2.8, 1.8;stroke-dashoffset:0;stroke-opacity:1"
       id="path876" />
    <path
       d="M 724.639,845.223 C 723.626,821.858 742.073,762.515 769.85,742.7"
       style="fill:none;stroke:#231f20;stroke-width:0.5;stroke-linecap:round;stroke-linejoin:round;stroke-miterlimit:4;stroke-dasharray:2.8, 1.8;stroke-dashoffset:0;stroke-opacity:1"
       id="path878" />
    <path
       d="m 638.08,730.301 c 31.516,-18.201 62.586,-8.061 69.652,33.901"
       style="fill:none;stroke:#231f20;stroke-width:0.5;stroke-linecap:round;stroke-linejoin:round;stroke-miterlimit:4;stroke-dasharray:2.8, 1.8;stroke-dashoffset:0;stroke-opacity:1"
       id="path880" />
    <path
       d="m 494.656,690.531 c 5.823,4.363 10.041,15.886 4.368,24.403 -4.847,7.277 -11.395,7.28 -11.395,7.28"
       style="fill:none;stroke:#231f20;stroke-width:0.5;stroke-linecap:round;stroke-linejoin:round;stroke-miterlimit:4;stroke-dasharray:2.8, 1.8;stroke-dashoffset:0;stroke-opacity:1"
       id="path882" />
    <path
       d="m 590.811,875.484 -1.189,-67.96"
       style="fill:none;stroke:#231f20;stroke-width:0.5;stroke-linecap:round;stroke-linejoin:round;stroke-miterlimit:4;stroke-dasharray:2.8, 1.8;stroke-dashoffset:0;stroke-opacity:1"
       id="path884" />
    <path
       d="m 536.912,876.069 5.337,-65.567"
       style="fill:none;stroke:#231f20;stroke-width:0.5;stroke-linecap:round;stroke-linejoin:round;stroke-miterlimit:4;stroke-dasharray:2.8, 1.8;stroke-dashoffset:0;stroke-opacity:1"
       id="path886" />
    <path
       d="m 501.483,874.019 3.182,-70.893"
       style="fill:none;stroke:#231f20;stroke-width:0.5;stroke-linecap:round;stroke-linejoin:round;stroke-miterlimit:4;stroke-dasharray:2.8, 1.8;stroke-dashoffset:0;stroke-opacity:1"
       id="path888" />
    <path
       d="m 462.691,870.939 8.163,-81.9"
       style="fill:none;stroke:#231f20;stroke-width:0.5;stroke-linecap:round;stroke-linejoin:round;stroke-miterlimit:4;stroke-dasharray:2.8, 1.8;stroke-dashoffset:0;stroke-opacity:1"
       id="path890" />
    <path
       d="m 368.503,856.385 c 1.569,-11.898 6.177,-10.688 17.811,-23.303 11.635,-12.615 21.572,-23.047 21.321,-41.72 -0.25,-18.672 -0.202,-19.548 4.013,-27.842"
       style="fill:none;stroke:#231f20;stroke-width:0.5;stroke-linecap:round;stroke-linejoin:round;stroke-miterlimit:4;stroke-dasharray:2.8, 1.8;stroke-dashoffset:0;stroke-opacity:1"
       id="path892" />
    <path
       d="m 398.341,819.12 c 3.729,-5.724 11.487,-5.449 22.399,-5.938 10.912,-0.49 33.243,1.597 48.741,-24.8"
       style="fill:none;stroke:#231f20;stroke-width:0.5;stroke-linecap:round;stroke-linejoin:round;stroke-miterlimit:4;stroke-dasharray:2.8, 1.8;stroke-dashoffset:0;stroke-opacity:1"
       id="path894" />
    <path
       d="m 323.627,846.301 3.992,-102.853"
       style="fill:none;stroke:#231f20;stroke-width:0.5;stroke-linecap:round;stroke-linejoin:round;stroke-miterlimit:4;stroke-dasharray:2.8, 1.8;stroke-dashoffset:0;stroke-opacity:1"
       id="path896" />
    <path
       d="m 201.992,722.78 c 12.218,2.345 18.498,3.157 23.496,3.189 2.612,0.016 6.063,-0.973 10.913,-0.247 4.85,0.725 27.415,4.34 35.896,1.675"
       style="fill:none;stroke:#231f20;stroke-width:0.5;stroke-linecap:round;stroke-linejoin:round;stroke-miterlimit:4;stroke-dasharray:2.8, 1.8;stroke-dashoffset:0;stroke-opacity:1"
       id="path898" />
    <path
       d="m 265.871,685.153 c -6.286,7.902 -15.981,17.606 -18.568,15.667 -2.588,-1.939 -0.652,-10.346 11.949,-31.369 12.601,-21.022 20.031,-34.928 24.876,-44.953 4.846,-10.027 3.55,-16.17 -0.334,-23.604 -3.883,-7.435 -12.294,-17.131 -2.6,-30.716 9.694,-13.584 15.834,-21.025 18.096,-25.552 2.261,-4.527 14.22,-13.909 17.775,-16.821 3.556,-2.911 14.871,-6.15 12.937,8.077"
       style="fill:none;stroke:#231f20;stroke-width:0.5;stroke-linecap:round;stroke-linejoin:round;stroke-miterlimit:4;stroke-dasharray:2.8, 1.8;stroke-dashoffset:0;stroke-opacity:1"
       id="path900" />
    <path
       d="m 292.217,636.457 c 0,0 6.461,-11.966 5.163,-22.636 -1.297,-10.669 -0.978,-17.459 -0.978,-17.459 0,0 -26.838,-4.839 -41.061,3.898"
       style="fill:none;stroke:#231f20;stroke-width:0.5;stroke-linecap:round;stroke-linejoin:round;stroke-miterlimit:4;stroke-dasharray:2.8, 1.8;stroke-dashoffset:0;stroke-opacity:1"
       id="path902" />
    <path
       d="m 296.402,596.362 c 2.588,0.645 3.879,-2.265 4.201,-7.762 0.32,-5.497 5.162,-24.9 11.625,-31.692 6.464,-6.793 8.728,-6.471 11.959,-11.323 3.231,-4.851 8.4,-15.199 11.631,-18.111 3.232,-2.912 23.049,-14.803 39.873,8.47"
       style="fill:none;stroke:#231f20;stroke-width:0.5;stroke-linecap:round;stroke-linejoin:round;stroke-miterlimit:4;stroke-dasharray:2.8, 1.8;stroke-dashoffset:0;stroke-opacity:1"
       id="path904" />
    <path
       d="m 185.173,729.012 c 5.874,-18.79 13.95,-35.607 17.503,-42.399 3.554,-6.791 8.408,-10.744 13.905,-11.071 14.59,0.976 31.57,-1.311 45.823,-11.384"
       style="fill:none;stroke:#231f20;stroke-width:0.5;stroke-linecap:round;stroke-linejoin:round;stroke-miterlimit:4;stroke-dasharray:2.8, 1.8;stroke-dashoffset:0;stroke-opacity:1"
       id="path906" />
    <path
       d="m 249.811,686.861 c -10.528,3.537 -33.53,11.989 -53.942,14.231"
       style="fill:none;stroke:#231f20;stroke-width:0.5;stroke-linecap:round;stroke-linejoin:round;stroke-miterlimit:4;stroke-dasharray:2.8, 1.8;stroke-dashoffset:0;stroke-opacity:1"
       id="path908" />
    <path
       d="m 202.397,722.857 c 0,0 33.612,-20.815 43.931,-24.17"
       style="fill:none;stroke:#231f20;stroke-width:0.5;stroke-linecap:round;stroke-linejoin:round;stroke-miterlimit:4;stroke-dasharray:2.8, 1.8;stroke-dashoffset:0;stroke-opacity:1"
       id="path910" />
    <path
       d="m 230.501,725.208 c 4.521,-8.862 11.631,-18.242 16.802,-24.388"
       style="fill:none;stroke:#231f20;stroke-width:0.5;stroke-linecap:round;stroke-linejoin:round;stroke-miterlimit:4;stroke-dasharray:2.8, 1.8;stroke-dashoffset:0;stroke-opacity:1"
       id="path912" />
    <path
       d="m 252.756,604.141 c -3.953,2.473 -18.102,10.355 -23.92,15.531 -5.817,5.175 -16.716,14.154 -21.012,9.385 -2.911,-3.232 3.227,-12.933 5.166,-15.198 1.939,-2.265 4.524,-8.409 10.988,-13.262 6.464,-4.853 14.869,-9.06 19.07,-13.911 4.202,-4.852 12.928,-13.587 15.19,-15.851 2.262,-2.264 4.524,-6.468 5.492,-10.349 0.968,-3.88 6.138,-11.32 11.955,-18.112 5.817,-6.793 11.956,-16.172 13.248,-19.083 1.293,-2.911 8.403,-9.056 10.343,-8.411 1.94,0.645 -1.605,4.844 -5.247,14.875 -4.844,13.341 -9.695,13.1 -14.784,21.105 -5.088,8.005 -7.51,15.281 -14.055,21.346 -6.545,6.065 -14.301,14.071 -21.816,19.41 -7.515,5.338 -15.273,10.676 -19.636,16.256 -4.362,5.58 -6.543,8.248 -5.087,10.43 1.455,2.182 4.607,-0.487 8.97,-3.884 4.364,-3.397 18.215,-11.336 22.062,-13.105 3.523,-1.62 4.786,-2.722 5.658,-1.053 0.855,1.636 -0.318,2.462 -2.585,3.881 z"
       style="fill:none;stroke:#231f20;stroke-width:0.5;stroke-linecap:round;stroke-linejoin:round;stroke-miterlimit:4;stroke-dasharray:2.8, 1.8;stroke-dashoffset:0;stroke-opacity:1"
       id="path914" />
    <path
       d="m 313.016,531.1 c 4.21,-6.69 12.609,-24.64 44.617,-26.754"
       style="fill:none;stroke:#231f20;stroke-width:0.5;stroke-linecap:round;stroke-linejoin:round;stroke-miterlimit:4;stroke-dasharray:2.8, 1.8;stroke-dashoffset:0;stroke-opacity:1"
       id="path916" />
    <path
       d="m 326.612,545.908 c 4.528,2.423 7.92,-4.691 3.877,-7.277 -4.043,-2.585 -8.405,4.854 -3.877,7.277 z"
       style="fill:none;stroke:#231f20;stroke-width:0.5;stroke-linecap:round;stroke-linejoin:round;stroke-miterlimit:4;stroke-dasharray:2.8, 1.8;stroke-dashoffset:0;stroke-opacity:1"
       id="path918" />
    <path
       d="m 364.279,545.406 c 5.013,-0.205 15.519,-4.049 14.547,-7.443 -0.971,-3.395 -6.144,-1.938 -10.67,0.166 -4.525,2.105 -8.731,0.137 -10.67,-0.803 -2.668,-1.292 -6.706,-0.922 -7.274,2.59 -0.483,2.99 1.013,4.445 6.146,5.17 0.849,0.121 2.91,0.525 7.921,0.32 z"
       style="fill:none;stroke:#231f20;stroke-width:0.5;stroke-linecap:round;stroke-linejoin:round;stroke-miterlimit:4;stroke-dasharray:2.8, 1.8;stroke-dashoffset:0;stroke-opacity:1"
       id="path920" />
    <path
       d="m 353.339,544.447 c -1.661,-0.732 -3.367,0.237 -1.749,3.551 1.618,3.314 5.015,9.698 14.072,14.786 9.055,5.089 17.544,7.914 23.607,8.154"
       style="fill:none;stroke:#231f20;stroke-width:0.5;stroke-linecap:round;stroke-linejoin:round;stroke-miterlimit:4;stroke-dasharray:2.8, 1.8;stroke-dashoffset:0;stroke-opacity:1"
       id="path922" />
    <path
       d="m 300.009,514.995 c -2.441,-0.377 -2.351,-4.318 1.043,-4.804 3.395,-0.487 5.335,0.16 11.154,-3.723 5.818,-3.884 9.212,-7.279 10.181,-8.735 0.969,-1.455 2.747,-2.91 4.848,-3.235 2.102,-0.325 3.557,-1.135 5.011,-3.236 1.454,-2.102 1.614,-4.366 5.17,-5.338 3.557,-0.971 5.337,1.777 9.379,3.392 4.042,1.615 6.144,2.422 8.407,0.966 2.263,-1.456 5.495,-3.883 5.495,-3.883 -3.88,1.295 -11.32,-6.3 -17.948,-6.296 -6.66,0.002 -13.9,5.018 -19.072,10.678 -5.171,5.66 -13.574,13.1 -17.13,14.881 -3.555,1.781 -4.688,1.457 -5.819,1.296 -1.132,-0.162 -4.643,-1.813 -9.147,1.375 -3.523,2.494 1.875,5.741 7.695,6.547 5.82,0.807 17.139,4.681 19.353,7.675"
       style="fill:none;stroke:#231f20;stroke-width:0.5;stroke-linecap:round;stroke-linejoin:round;stroke-miterlimit:4;stroke-dasharray:2.8, 1.8;stroke-dashoffset:0;stroke-opacity:1"
       id="path924" />
    <path
       d="m 435.184,575.525 c -6.307,-3.877 -10.919,-15.03 -22.321,-23.998 -11.401,-8.967 -17.948,-8.964 -26.435,-6.777 0,0 4.852,5.332 4.128,11.638 -0.725,6.305 -3.627,24.009 -3.133,44.136 0.493,20.127 4.141,41.708 9.481,54.316 5.341,12.607 15.239,24.543 21.06,28.905"
       style="fill:none;stroke:#231f20;stroke-width:0.5;stroke-linecap:round;stroke-linejoin:round;stroke-miterlimit:4;stroke-dasharray:2.8, 1.8;stroke-dashoffset:0;stroke-opacity:1"
       id="path926" />
    <path
       d="m 629.11,589.423 c -0.524,6.265 3.174,16.432 5.303,19.721 4.003,6.182 9.509,10.47 10.674,11.635 1.699,1.697 4.306,0.054 1.517,-2.734 -2.789,-2.787 -7.074,-7.249 -1.885,-5.753 6.307,1.816 12.615,7.269 14.676,8.966 2.063,1.696 5.579,3.756 6.792,2.301 1.212,-1.456 -3.94,-6.52 -3.853,-9.686"
       style="fill:none;stroke:#231f20;stroke-width:0.5;stroke-linecap:round;stroke-linejoin:round;stroke-miterlimit:4;stroke-dasharray:2.8, 1.8;stroke-dashoffset:0;stroke-opacity:1"
       id="path928" />
    <path
       d="m 642.797,618.714 c 0.109,3.521 5.203,9.702 8.479,12.247 2.524,1.962 17.254,9.729 25.721,8.473"
       style="fill:none;stroke:#231f20;stroke-width:0.5;stroke-linecap:round;stroke-linejoin:round;stroke-miterlimit:4;stroke-dasharray:2.8, 1.8;stroke-dashoffset:0;stroke-opacity:1"
       id="path930" />
    <path
       d="m 609.792,628.484 c -5.928,-3.2 -11.065,-14.798 -7.026,-20.943 4.039,-6.145 13.252,-6.796 20.369,-0.494 7.117,6.302 15.469,19.497 11.814,23.436 -2.103,2.265 -11.875,-0.519 -11.875,-0.519"
       style="fill:none;stroke:#231f20;stroke-width:0.5;stroke-linecap:round;stroke-linejoin:round;stroke-miterlimit:4;stroke-dasharray:2.8, 1.8;stroke-dashoffset:0;stroke-opacity:1"
       id="path932" />
    <path
       d="m 718.922,764.44 c 10.375,-3.776 31.62,-10.968 46.588,-18.261"
       style="fill:none;stroke:#231f20;stroke-width:0.5;stroke-linecap:round;stroke-linejoin:round;stroke-miterlimit:4;stroke-dasharray:2.8, 1.8;stroke-dashoffset:0;stroke-opacity:1"
       id="path934" />
    <path
       d="m 635.834,764.937 c 2.527,-3.384 8.462,-14.299 6.276,-22.664 -2.186,-8.366 -6.92,-19.033 -7.89,-21.094"
       style="fill:none;stroke:#231f20;stroke-width:0.5;stroke-linecap:round;stroke-linejoin:round;stroke-miterlimit:4;stroke-dasharray:2.8, 1.8;stroke-dashoffset:0;stroke-opacity:1"
       id="path936" />
    <path
       d="m 601.624,763.873 c 5.939,-3.033 16.361,-14.193 20.603,-18.803 4.242,-4.609 15.749,-15.442 17.231,-11.124"
       style="fill:none;stroke:#231f20;stroke-width:0.5;stroke-linecap:round;stroke-linejoin:round;stroke-miterlimit:4;stroke-dasharray:2.8, 1.8;stroke-dashoffset:0;stroke-opacity:1"
       id="path938" />
    <path
       d="m 452.891,584.975 c 6.948,-0.38 13.417,-2.755 16.488,-4.372 3.071,-1.618 5.01,-2.752 3.068,-7.762 -1.943,-5.01 -7.602,-9.049 -16.332,-8.399 -8.73,0.65 -10.497,3.903 -12.93,6.634 -1.295,1.454 -3.555,4.69 -0.643,8.245 2.912,3.556 5.743,5.906 10.349,5.654 z"
       style="fill:none;stroke:#231f20;stroke-width:0.5;stroke-linecap:round;stroke-linejoin:round;stroke-miterlimit:4;stroke-dasharray:2.8, 1.8;stroke-dashoffset:0;stroke-opacity:1"
       id="path940" />
    <path
       d="m 464.302,710.035 c 3.518,-0.098 7.72,-3.656 7.555,-9.153 -0.163,-5.497 -5.015,-8.89 -17.305,-16.967 -12.291,-8.078 -16.34,-25.861 -16.021,-35.884 0.319,-10.023 4.191,-26.676 15.341,-37.997 11.15,-11.323 15.408,-12.149 18.101,-12.781 2.653,-0.622 3.394,-1.78 0.322,-2.102 -3.071,-0.321 -7.341,-0.267 -7.341,-0.267"
       style="fill:none;stroke:#231f20;stroke-width:0.5;stroke-linecap:round;stroke-linejoin:round;stroke-miterlimit:4;stroke-dasharray:2.8, 1.8;stroke-dashoffset:0;stroke-opacity:1"
       id="path942" />
    <path
       d="m 493.878,595.99 c 6.427,-0.366 32.737,-1.591 51.535,7.98"
       style="fill:none;stroke:#231f20;stroke-width:0.5;stroke-linecap:round;stroke-linejoin:round;stroke-miterlimit:4;stroke-dasharray:2.8, 1.8;stroke-dashoffset:0;stroke-opacity:1"
       id="path944" />
    <path
       d="m 474.234,596.175 c 4.003,0.914 9.097,1.881 12.249,2.486 3.153,0.605 21.465,9.448 25.589,11.265 4.123,1.817 11.157,4.36 19.766,5.205 8.609,0.845 20.613,0.476 25.098,-0.861 4.484,-1.335 6.668,-2.427 7.152,-4.246 0.484,-1.819 -7.125,-23.037 -55.223,-29.804"
       style="fill:none;stroke:#231f20;stroke-width:0.5;stroke-linecap:round;stroke-linejoin:round;stroke-miterlimit:4;stroke-dasharray:2.8, 1.8;stroke-dashoffset:0;stroke-opacity:1"
       id="path946" />
    <path
       d="m 481.088,588.286 c 4.422,2.252 29.839,-1.314 38.71,-6.149"
       style="fill:none;stroke:#231f20;stroke-width:0.5;stroke-linecap:round;stroke-linejoin:round;stroke-miterlimit:4;stroke-dasharray:2.8, 1.8;stroke-dashoffset:0;stroke-opacity:1"
       id="path948" />
    <path
       d="m 456.293,685.061 c 2.825,-3.089 3.91,-18.246 3.178,-26.854 -0.731,-8.608 -1.343,-19.399 3.867,-29.829 5.209,-10.43 11.632,-16.617 22.667,-12.863 11.036,3.754 27.043,9.445 37.596,17.322 10.552,7.876 12.497,18.91 6.438,27.278 -6.059,8.369 -17.329,19.408 -31.757,21.476 -14.428,2.067 -23.676,4.097 -38.822,-10.792"
       style="fill:none;stroke:#231f20;stroke-width:0.5;stroke-linecap:round;stroke-linejoin:round;stroke-miterlimit:4;stroke-dasharray:2.8, 1.8;stroke-dashoffset:0;stroke-opacity:1"
       id="path950" />
    <path
       d="m 482.678,597.927 c 5.261,2.673 20.421,11.275 26.485,14.304 6.064,3.029 17.706,6.782 27.527,6.899"
       style="fill:none;stroke:#231f20;stroke-width:0.5;stroke-linecap:round;stroke-linejoin:round;stroke-miterlimit:4;stroke-dasharray:2.8, 1.8;stroke-dashoffset:0;stroke-opacity:1"
       id="path952" />
    <path
       d="m 522.837,632.281 c 0.883,-4.536 -1.143,-11.413 -6.275,-17.028"
       style="fill:none;stroke:#231f20;stroke-width:0.5;stroke-linecap:round;stroke-linejoin:round;stroke-miterlimit:4;stroke-dasharray:2.8, 1.8;stroke-dashoffset:0;stroke-opacity:1"
       id="path954" />
    <path
       d="m 464.93,691.034 c 7.772,0.389 26.081,0.382 34.083,-1.077 8.002,-1.458 19.506,-2.667 26.781,-3.277"
       style="fill:none;stroke:#231f20;stroke-width:0.5;stroke-linecap:round;stroke-linejoin:round;stroke-miterlimit:4;stroke-dasharray:2.8, 1.8;stroke-dashoffset:0;stroke-opacity:1"
       id="path956" />
    <path
       d="m 599.696,678.523 c -0.826,-2.925 -1.032,-6.507 1.157,-9.588 3.877,-5.458 10.062,-3.041 10.913,1.811"
       style="fill:none;stroke:#231f20;stroke-width:0.5;stroke-linecap:round;stroke-linejoin:round;stroke-miterlimit:4;stroke-dasharray:2.8, 1.8;stroke-dashoffset:0;stroke-opacity:1"
       id="path958" />
    <path
       d="m 514.416,726.883 c -1.93,-4.801 -3.145,-9.772 0.49,-15.715 3.635,-5.942 12.309,-9.828 28.126,-7.772 16.733,2.175 23.42,7.499 23.474,10.17"
       style="fill:none;stroke:#231f20;stroke-width:0.5;stroke-linecap:round;stroke-linejoin:round;stroke-miterlimit:4;stroke-dasharray:2.8, 1.8;stroke-dashoffset:0;stroke-opacity:1"
       id="path960" />
    <path
       d="m 517.239,725.348 c -0.994,-2.54 -3.695,-9.978 1.425,-15.636 5.817,-6.429 31.884,-7.896 45.286,5.18"
       style="fill:none;stroke:#231f20;stroke-width:0.5;stroke-linecap:round;stroke-linejoin:round;stroke-miterlimit:4;stroke-dasharray:2.8, 1.8;stroke-dashoffset:0;stroke-opacity:1"
       id="path962" />
    <path
       d="m 545.069,703.685 c 2.205,-4.777 6.931,-11.933 36.76,-7.218"
       style="fill:none;stroke:#231f20;stroke-width:0.5;stroke-linecap:round;stroke-linejoin:round;stroke-miterlimit:4;stroke-dasharray:2.8, 1.8;stroke-dashoffset:0;stroke-opacity:1"
       id="path964" />
    <path
       d="m 630.502,662.819 c 0.051,4.247 0.73,7.333 -0.265,9.138"
       style="fill:none;stroke:#231f20;stroke-width:0.5;stroke-linecap:round;stroke-linejoin:round;stroke-miterlimit:4;stroke-dasharray:2.8, 1.8;stroke-dashoffset:0;stroke-opacity:1"
       id="path966" />
    <path
       d="m 669.698,646.168 c -3.113,-2.3 -7.102,-4.668 -16.6,-6.235 -3.836,-0.633 -6.881,-0.689 -9.334,-0.301"
       style="fill:none;stroke:#231f20;stroke-width:0.5;stroke-linecap:round;stroke-linejoin:round;stroke-miterlimit:4;stroke-dasharray:2.8, 1.8;stroke-dashoffset:0;stroke-opacity:1"
       id="path968" />
    <path
       d="m 609.049,631.544 c -4.15,-1.782 -9.044,-2.811 -14.519,-1.648 0,0 13.308,7.353 12.367,32.106"
       style="fill:none;stroke:#231f20;stroke-width:0.5;stroke-linecap:round;stroke-linejoin:round;stroke-miterlimit:4;stroke-dasharray:2.8, 1.8;stroke-dashoffset:0;stroke-opacity:1"
       id="path970" />
    <path
       d="m 519.643,575.036 c 5.994,2.268 30.489,9.774 43.949,10.496 13.459,0.721 30.192,0.35 37.103,1.196 6.912,0.845 13.582,3.024 13.826,7.39 0.245,4.364 -6.18,8.611 -13.577,7.887 -7.397,-0.724 -44.355,-8.269 -65.532,-22.06"
       style="fill:none;stroke:#231f20;stroke-width:0.5;stroke-linecap:round;stroke-linejoin:round;stroke-miterlimit:4;stroke-dasharray:2.8, 1.8;stroke-dashoffset:0;stroke-opacity:1"
       id="path972" />
    <path
       d="M 569.829,594.829 C 566.991,591.957 561.297,587.3 555.35,584.54"
       style="fill:none;stroke:#231f20;stroke-width:0.5;stroke-linecap:round;stroke-linejoin:round;stroke-miterlimit:4;stroke-dasharray:2.8, 1.8;stroke-dashoffset:0;stroke-opacity:1"
       id="path974" />
    <path
       d="m 562.335,605.403 c 4.539,-1.685 24.855,-2.395 39.072,6.073"
       style="fill:none;stroke:#231f20;stroke-width:0.5;stroke-linecap:round;stroke-linejoin:round;stroke-miterlimit:4;stroke-dasharray:2.8, 1.8;stroke-dashoffset:0;stroke-opacity:1"
       id="path976" />
    <path
       d="m 538.26,615.526 c -1.697,-0.065 -3.026,3.12 -0.237,4.33 2.789,1.212 4.609,2.181 11.398,1.208 6.79,-0.973 11.639,-2.551 12.488,-2.915 0.849,-0.364 2.302,-1.092 1.918,-7.475"
       style="fill:none;stroke:#231f20;stroke-width:0.5;stroke-linecap:round;stroke-linejoin:round;stroke-miterlimit:4;stroke-dasharray:2.8, 1.8;stroke-dashoffset:0;stroke-opacity:1"
       id="path978" />
    <path
       d="m 542.016,621.24 c -1.445,1.405 0.86,6.375 4.258,10.011"
       style="fill:none;stroke:#231f20;stroke-width:0.5;stroke-linecap:round;stroke-linejoin:round;stroke-miterlimit:4;stroke-dasharray:2.8, 1.8;stroke-dashoffset:0;stroke-opacity:1"
       id="path980" />
    <path
       d="m 551.124,631.006 c 4.242,-4.973 21.977,-23.046 46.337,-1.535"
       style="fill:none;stroke:#231f20;stroke-width:0.5;stroke-linecap:round;stroke-linejoin:round;stroke-miterlimit:4;stroke-dasharray:2.8, 1.8;stroke-dashoffset:0;stroke-opacity:1"
       id="path982" />
    <path
       d="m 555.767,626.418 c 9.055,-2.33 25.255,-9.822 40.015,3.25"
       style="fill:none;stroke:#231f20;stroke-width:0.5;stroke-linecap:round;stroke-linejoin:round;stroke-miterlimit:4;stroke-dasharray:2.8, 1.8;stroke-dashoffset:0;stroke-opacity:1"
       id="path984" />
    <path
       d="m 552.688,647.738 c 3.883,6.909 12.998,10.907 19.421,3.992 6.424,-6.914 6.924,-19.072 -1.962,-29.043"
       style="fill:none;stroke:#231f20;stroke-width:0.5;stroke-linecap:round;stroke-linejoin:round;stroke-miterlimit:4;stroke-dasharray:2.8, 1.8;stroke-dashoffset:0;stroke-opacity:1"
       id="path986" />
    <path
       d="m 574.276,648.831 c 4.26,3.503 9.938,9.557 16.144,8.347 8.73,-1.701 11.399,2.178 16.516,1.328"
       style="fill:none;stroke:#231f20;stroke-width:0.5;stroke-linecap:round;stroke-linejoin:round;stroke-miterlimit:4;stroke-dasharray:2.8, 1.8;stroke-dashoffset:0;stroke-opacity:1"
       id="path988" />
    <path
       d="m 551.139,664.956 c 1.942,4.606 2.914,9.699 42.432,14.33"
       style="fill:none;stroke:#231f20;stroke-width:0.5;stroke-linecap:round;stroke-linejoin:round;stroke-miterlimit:4;stroke-dasharray:2.8, 1.8;stroke-dashoffset:0;stroke-opacity:1"
       id="path990" />
    <path
       d="m 577.579,677.061 c -0.004,-4.114 -1.098,-9.449 -2.918,-13.207 -2.018,-4.166 -2.142,-8.584 -2.552,-12.124"
       style="fill:none;stroke:#231f20;stroke-width:0.5;stroke-linecap:round;stroke-linejoin:round;stroke-miterlimit:4;stroke-dasharray:2.8, 1.8;stroke-dashoffset:0;stroke-opacity:1"
       id="path992" />
    <path
       d="m 529.466,687.053 c 2.768,-0.263 13.922,-0.026 15.741,-0.027 1.819,-10e-4 2.669,1.211 0.245,3.031 -2.424,1.82 -9.316,9.338 -11.506,12.796"
       style="fill:none;stroke:#231f20;stroke-width:0.5;stroke-linecap:round;stroke-linejoin:round;stroke-miterlimit:4;stroke-dasharray:2.8, 1.8;stroke-dashoffset:0;stroke-opacity:1"
       id="path994" />
    <path
       d="m 592.207,563.035 c 0.472,-6.616 -4.269,-12.812 -8.019,-15.585 -6.064,-4.484 -14.629,-1.759 -20.01,-6.417 -1.819,-1.576 0.241,-3.396 1.466,-1.947 0.722,0.854 3.138,2.611 9.204,2.791 12.125,0.358 25.78,10.992 18.643,21.925"
       style="fill:none;stroke:#231f20;stroke-width:0.5;stroke-linecap:round;stroke-linejoin:round;stroke-miterlimit:4;stroke-dasharray:2.8, 1.8;stroke-dashoffset:0;stroke-opacity:1"
       id="path996" />
    <path
       d="m 552.419,545.767 c -6.07,0.515 -18.065,1.705 -19.643,-2.174 -1.578,-3.879 3.027,-9.095 10.301,-13.099 7.273,-4.005 17.696,-12.376 19.029,-13.468 1.334,-1.092 2.908,-4.366 -0.367,-7.396 -3.276,-3.03 -7.519,-3.877 -8.851,0.731 -1.332,4.609 -5.329,11.885 -11.511,15.647 -6.182,3.762 -12.97,7.523 -14.546,9.1 -1.576,1.577 -2.544,3.396 -2.058,7.155 0.487,3.758 4.61,5.696 6.429,6.181 1.819,0.484 10.064,2.541 16.006,2.054 5.941,-0.488 14.075,-1.599 15.882,-1.826 1.94,-0.243 3.822,-0.41 3.698,-1.76 -0.122,-1.334 -2.001,-1.636 -4.547,-1.514 -2.547,0.123 -4.229,-0.106 -9.822,0.369 z"
       style="fill:none;stroke:#231f20;stroke-width:0.5;stroke-linecap:round;stroke-linejoin:round;stroke-miterlimit:4;stroke-dasharray:2.8, 1.8;stroke-dashoffset:0;stroke-opacity:1"
       id="path998" />
    <path
       d="m 377.048,541.034 c 4.044,1.455 6.307,2.747 9.38,3.716"
       style="fill:none;stroke:#231f20;stroke-width:0.5;stroke-linecap:round;stroke-linejoin:round;stroke-miterlimit:4;stroke-dasharray:2.8, 1.8;stroke-dashoffset:0;stroke-opacity:1"
       id="path1000" />
    <path
       d="m 401.878,544.925 c 1.844,-10.853 2.602,-25.443 -6.94,-34.815"
       style="fill:none;stroke:#231f20;stroke-width:0.5;stroke-linecap:round;stroke-linejoin:round;stroke-miterlimit:4;stroke-dasharray:2.8, 1.8;stroke-dashoffset:0;stroke-opacity:1"
       id="path1002" />
    <path
       d="m 416.984,547.484 c -6.018,-9.201 -8.091,-18.425 -0.334,-23.926 7.758,-5.501 12.609,-2.431 15.683,0.801 3.072,3.232 9.871,21.821 -0.473,29.262 -4.225,3.041 -12.72,-2.841 -14.876,-6.137 z"
       style="fill:none;stroke:#231f20;stroke-width:0.5;stroke-linecap:round;stroke-linejoin:round;stroke-miterlimit:4;stroke-dasharray:2.8, 1.8;stroke-dashoffset:0;stroke-opacity:1"
       id="path1004" />
    <path
       d="m 441.857,493.962 c 7.112,-2.589 11.477,-2.107 14.063,-2.593 2.587,-0.487 5.981,-2.752 6.303,-5.824 0.322,-3.072 -1.294,-3.555 -5.66,-4.524 -4.365,-0.968 -8.569,-1.613 -13.582,-2.419 -5.011,-0.806 -10.347,-2.259 -13.741,0.653 -3.393,2.911 -4.525,5.661 -4.361,9.379 0.164,3.719 0.515,9.516 3.561,10.022 3.881,0.644 7.972,-2.711 13.417,-4.694 z"
       style="fill:none;stroke:#231f20;stroke-width:0.5;stroke-linecap:round;stroke-linejoin:round;stroke-miterlimit:4;stroke-dasharray:2.8, 1.8;stroke-dashoffset:0;stroke-opacity:1"
       id="path1006" />
    <path
       d="m 490.043,513.825 c 4.688,0.483 9.053,0.643 15.844,2.903 6.791,2.26 19.078,1.932 25.218,-3.244 6.141,-5.176 3.389,-12.774 -4.373,-17.297 -7.761,-4.523 -25.384,-6.455 -32.982,-7.422 -7.6,-0.967 -9.538,2.43 -10.667,7.119 -1.13,4.688 4.856,15.355 6.96,17.941 2.103,2.587 2.589,7.274 3.884,9.861 1.295,2.586 3.559,6.141 5.177,7.433 1.616,1.292 8.731,3.231 14.713,3.388 5.982,0.159 12.769,-4.208 18.749,-7.444 5.981,-3.235 15.352,-12.617 21.682,-19.074 0,0 -5.686,-0.009 -10.535,1.609 -4.849,1.618 -12.283,6.634 -12.608,3.886"
       style="fill:none;stroke:#231f20;stroke-width:0.5;stroke-linecap:round;stroke-linejoin:round;stroke-miterlimit:4;stroke-dasharray:2.8, 1.8;stroke-dashoffset:0;stroke-opacity:1"
       id="path1008" />
    <path
       d="m 508.597,533.994 c 0.368,-3.04 0.928,-12.896 1.049,-16.375"
       style="fill:none;stroke:#231f20;stroke-width:0.5;stroke-linecap:round;stroke-linejoin:round;stroke-miterlimit:4;stroke-dasharray:2.8, 1.8;stroke-dashoffset:0;stroke-opacity:1"
       id="path1010" />
    <path
       d="m 499.104,531.119 c 2.426,2.909 7.6,5.817 6.955,8.404 -0.645,2.587 -5.817,5.499 -11.638,4.208 -5.82,-1.29 -12.612,-4.035 -18.432,-4.032 -5.82,0.002 -9.538,1.459 -14.87,6.634 -5.333,5.176 -7.595,6.794 -12.768,8.413 -5.173,1.618 -12.354,5.306 -12.809,-5.347"
       style="fill:none;stroke:#231f20;stroke-width:0.5;stroke-linecap:round;stroke-linejoin:round;stroke-miterlimit:4;stroke-dasharray:2.8, 1.8;stroke-dashoffset:0;stroke-opacity:1"
       id="path1012" />
    <path
       d="m 454.564,551.944 c -0.558,-4.476 1.214,-17.088 4.444,-25.657 3.23,-8.569 6.785,-10.673 15.354,-11.162 8.567,-0.489 16.96,0.895 16.96,0.895"
       style="fill:none;stroke:#231f20;stroke-width:0.5;stroke-linecap:round;stroke-linejoin:round;stroke-miterlimit:4;stroke-dasharray:2.8, 1.8;stroke-dashoffset:0;stroke-opacity:1"
       id="path1014" />
    <path
       d="m 428.058,521.232 c -2.843,-4.468 -7.466,-16.074 -1.604,-24.095"
       style="fill:none;stroke:#231f20;stroke-width:0.5;stroke-linecap:round;stroke-linejoin:round;stroke-miterlimit:4;stroke-dasharray:2.8, 1.8;stroke-dashoffset:0;stroke-opacity:1"
       id="path1016" />
    <path
       d="m 423.632,506.739 c -1.006,4.044 -5.369,7.118 -10.381,6.473 -5.013,-0.644 -15.845,-2.579 -19.725,-3.386 -3.88,-0.806 -10.671,-0.804 -10.511,-5.492 0.16,-4.688 0.311,-26.352 -0.014,-31.525"
       style="fill:none;stroke:#231f20;stroke-width:0.5;stroke-linecap:round;stroke-linejoin:round;stroke-miterlimit:4;stroke-dasharray:2.8, 1.8;stroke-dashoffset:0;stroke-opacity:1"
       id="path1018" />
    <path
       d="m 426.122,496.486 c -3.017,1.041 -9.737,1.236 -14.427,-2.319"
       style="fill:none;stroke:#231f20;stroke-width:0.5;stroke-linecap:round;stroke-linejoin:round;stroke-miterlimit:4;stroke-dasharray:2.8, 1.8;stroke-dashoffset:0;stroke-opacity:1"
       id="path1020" />
    <path
       d="m 431.943,477.864 c -5.775,-0.063 -6.907,-2.163 -10.302,-1.03 -3.394,1.133 -8.568,1.458 -9.7,1.621 -1.131,0.162 -1.833,0.826 -2.479,2.765"
       style="fill:none;stroke:#231f20;stroke-width:0.5;stroke-linecap:round;stroke-linejoin:round;stroke-miterlimit:4;stroke-dasharray:2.8, 1.8;stroke-dashoffset:0;stroke-opacity:1"
       id="path1022" />
    <path
       d="m 391.064,489.978 c 3.262,1.418 10.538,4.648 14.419,4.97 3.88,0.321 8.406,-0.004 8.081,-4.854 -0.326,-4.85 -0.974,-8.244 -5.177,-9.212 -1.052,-0.243 -4.417,-0.699 -6.273,-0.684 -5.166,0.042 -6.985,0.204 -9.247,1.983 -2.263,1.779 -2.585,5.498 -1.289,10.025 1.295,4.524 7.925,8.565 12.453,9.047 4.527,0.484 7.595,-3.56 8.904,-6.281"
       style="fill:none;stroke:#231f20;stroke-width:0.5;stroke-linecap:round;stroke-linejoin:round;stroke-miterlimit:4;stroke-dasharray:2.8, 1.8;stroke-dashoffset:0;stroke-opacity:1"
       id="path1024" />
    <path
       d="m 383.042,503.361 c 0.057,1.961 -3.419,6.149 -7.785,6.151 -4.364,0.002 -12.126,-1.451 -14.227,-2.096 -2.102,-0.646 -3.557,-0.969 -3.236,-4.686 0.322,-3.719 1.772,-13.26 2.903,-16.331 1.131,-3.071 16.855,-6.315 22.492,-2.921"
       style="fill:none;stroke:#231f20;stroke-width:0.5;stroke-linecap:round;stroke-linejoin:round;stroke-miterlimit:4;stroke-dasharray:2.8, 1.8;stroke-dashoffset:0;stroke-opacity:1"
       id="path1026" />
    <path
       d="m 360.697,486.399 c 0.809,1.456 2.157,1.77 3.88,0.808 2.243,-1.255 6.143,-1.622 10.67,-0.491 4.527,1.13 7.952,1.936 7.946,-0.972"
       style="fill:none;stroke:#231f20;stroke-width:0.5;stroke-linecap:round;stroke-linejoin:round;stroke-miterlimit:4;stroke-dasharray:2.8, 1.8;stroke-dashoffset:0;stroke-opacity:1"
       id="path1028" />
    <path
       d="m 295.43,550.691 c 3.538,-1.537 14.507,1.988 17.755,5.233"
       style="fill:none;stroke:#231f20;stroke-width:0.5;stroke-linecap:round;stroke-linejoin:round;stroke-miterlimit:4;stroke-dasharray:2.8, 1.8;stroke-dashoffset:0;stroke-opacity:1"
       id="path1030" />
    <path
       d="m 583.94,620.988 c -0.329,-6.487 0.106,-15.712 2.787,-15.062"
       style="fill:none;stroke:#231f20;stroke-width:0.5;stroke-linecap:round;stroke-linejoin:round;stroke-miterlimit:4;stroke-dasharray:2.8, 1.8;stroke-dashoffset:0;stroke-opacity:1"
       id="path1032" />
    <path
       d="m 185.173,729.012 c 0,0 -18.371,-6.17 -36.314,-4.424"
       style="fill:none;stroke:#231f20;stroke-width:0.5;stroke-linecap:round;stroke-linejoin:round;stroke-miterlimit:4;stroke-dasharray:2.8, 1.8;stroke-dashoffset:0;stroke-opacity:1"
       id="path1034" />
    <path
       d="m 175.491,732.744 c 6.421,5.727 27.501,30.8 26.881,41.706 -4.683,16.016 -13.772,29.348 -18.644,36.165 0,0 -11.846,-47.079 -41.996,-64.858 l 62.787,-24.203"
       style="fill:none;stroke:#231f20;stroke-width:0.5;stroke-linecap:round;stroke-linejoin:round;stroke-miterlimit:4;stroke-dasharray:2.8, 1.8;stroke-dashoffset:0;stroke-opacity:1"
       id="path1036" />
    <path
       d="m 694.403,733.646 c -7.353,-8.537 -9.943,-21.753 -10.307,-26.109"
       style="fill:none;stroke:#231f20;stroke-width:0.5;stroke-linecap:round;stroke-linejoin:round;stroke-miterlimit:4;stroke-dasharray:2.8, 1.8;stroke-dashoffset:0;stroke-opacity:1"
       id="path1038" />
    <path
       d="m 732.481,597.935 c -3.933,-0.544 -8.388,0.822 -10.57,0.823 -2.911,10e-4 -9.538,1.621 -10.991,9.866 -1.451,8.247 -2.416,19.564 2.92,20.37 5.334,0.805 17.78,-9.87 22.629,-11.004 4.85,-1.134 12.449,-0.167 17.137,3.225 4.691,3.393 7.766,8.888 3.726,12.932 -4.042,4.043 -16.203,11.104 -20.366,11.973 -7.758,1.619 -23.13,-2.555 -18.912,6.314 4.693,9.865 12.136,22.142 16.179,28.606 4.045,6.466 11.325,16.001 11.647,16.485 0.326,0.485 0.81,1.293 1.295,0.485 0.484,-0.808 4.681,-14.067 6.132,-21.181 1.451,-7.114 6.295,-28.456 10.494,-32.823 4.202,-4.367 9.053,-5.34 12.61,-3.077 3.556,2.261 6.631,6.139 4.047,13.092 -2.584,6.954 -1.126,11.965 0.976,15.359 2.106,3.394 2.752,8.89 0.492,14.227 -2.26,5.336 -4.197,11.479 -5.65,16.492 -1.453,5.012 -4.688,5.498 -7.758,6.147 -3.072,0.648 -7.92,5.5 -3.553,10.186 4.367,4.687 22.157,17.289 28.948,21.166 6.793,3.877 15.687,9.855 17.463,6.782 1.779,-3.073 -5.18,-13.901 -10.356,-22.79 -5.178,-8.89 -10.033,-20.366 -5.346,-24.733 4.688,-4.367 9.055,-0.004 18.112,12.764 9.06,12.767 16.013,17.129 17.795,24.727 1.783,7.597 2.591,10.345 11.322,11.958 8.73,1.612 20.855,-3.082 25.381,-5.024 4.525,-1.942 8.888,-2.913 6.787,-5.338 -2.104,-2.424 -7.762,-5.978 -14.069,-7.268 -6.306,-1.29 -12.613,-9.371 -18.437,-16.644 -5.822,-7.272 -23.539,-22.131 -29.111,-26.015 -6.955,-4.847 -13.768,-19.495 -8.422,-28.773 4.847,-8.409 21.347,11.792 27.332,17.448 5.982,5.656 16.492,11.794 22.478,15.51 5.983,3.715 12.289,10.341 17.145,20.039 4.853,9.697 8.576,15.84 13.265,17.292 4.688,1.453 8.891,1.775 10.022,-1.62 1.131,-3.396 0.32,-6.791 -5.016,-9.699 -5.336,-2.907 -8.41,-7.756 -6.957,-11.475 1.453,-3.719 10.024,-1.62 14.551,1.772 4.527,3.393 13.584,10.017 16.494,10.016 2.91,-0.002 9.535,-4.369 5.979,-7.601 -3.559,-3.232 -13.422,-9.856 -18.596,-11.955 -5.176,-2.099 -12.611,-1.449 -17.141,-3.872 -4.527,-2.423 -9.218,-7.918 -7.765,-10.829 1.455,-2.91 6.142,-3.882 7.111,-6.631 0.971,-2.749 0.158,-8.731 -5.18,-12.931 -5.336,-4.201 -12.451,-5.976 -17.623,-6.459 -5.173,-0.482 -7.599,-1.775 -11.804,-4.683 -4.205,-2.908 -13.098,-5.976 -18.92,-9.529 -5.821,-3.555 -7.278,-7.434 -6.633,-12.123 0.644,-4.688 1.449,-9.7 11.475,-7.765 10.025,1.936 21.343,8.882 27.326,9.041 5.98,0.16 13.42,-1.137 22.961,8.074 9.541,9.211 14.39,6.297 17.951,17.451 3.56,11.154 4.053,17.782 9.711,25.863 5.664,8.08 10.838,13.251 15.365,10.177 4.525,-3.073 3.877,-7.599 -0.652,-14.872 -4.532,-7.273 -7.284,-15.032 -1.627,-18.591 5.658,-3.56 7.595,-4.046 9.371,-12.614 1.773,-8.57 -0.653,-11.803 -8.897,-10.829 -8.244,0.974 -19.724,0.01 -26.353,-4.029 -6.629,-4.039 -12.131,-10.342 -11.809,-14.707 0.32,-4.364 5.815,-14.876 15.354,-10.677 9.541,4.2 16.978,7.916 19.402,4.681 2.424,-3.235 -1.781,-3.879 -3.725,-11.315 -1.943,-7.436 -7.121,-15.032 -10.193,-19.396 -3.072,-4.364 -4.855,-11.799 -5.342,-16.811 -0.488,-5.011 -3.4,-14.709 -7.927,-12.606 -4.526,2.103 -3.391,8.892 -1.286,15.197 2.104,6.304 5.18,13.254 -0.314,19.077 -5.496,5.822 -12.766,13.586 -15.838,15.689 -3.07,2.102 -7.433,1.78 -12.285,-0.319 -4.852,-2.099 -11.805,-5.975 -20.213,-5.002 -8.404,0.974 -11.799,4.854 -14.385,5.988 -2.586,1.133 -6.627,0.973 -9.052,-1.936 -2.428,-2.909 -3.559,-4.525 -1.299,-10.346 2.261,-5.821 7.109,-10.834 21.658,-14.074 14.547,-3.241 20.853,-1.627 23.439,-1.628 2.586,-10e-4 5.819,-1.781 4.848,-4.529 -0.971,-2.748 -1.943,-6.303 -0.004,-10.831 1.938,-4.528 5.168,-9.542 2.744,-10.348 -2.426,-0.807 -8.408,0.326 -11.64,-2.097 -3.237,-2.423 -5.825,-4.686 -12.289,-0.479 -6.463,4.206 -13.833,11.163 -16.096,13.264 -2.262,2.102 -2.164,4.851 -5.072,7.924 -2.909,3.072 -5.657,5.661 -8.567,5.824 -2.91,0.162 -5.336,-1.938 -3.72,-5.01 1.617,-3.073 4.201,-6.307 4.201,-6.307"
       style="fill:none;stroke:#231f20;stroke-width:0.75;stroke-linecap:round;stroke-linejoin:round;stroke-miterlimit:4;stroke-dasharray:0, 2;stroke-dashoffset:0;stroke-opacity:1"
       id="path1040" />
  </g>
</svg>
