<?xml version="1.0" encoding="UTF-8" standalone="no"?>
<!-- Created with Inkscape (http://www.inkscape.org/) -->

<svg
   version="1.1"
   id="svg2"
   width="1440"
   height="1344"
   viewBox="0 0 1440 1344"
   xmlns="http://www.w3.org/2000/svg"
   xmlns:svg="http://www.w3.org/2000/svg">
  <defs
     id="defs6" />
  <g
     id="g8">
    <path
       d="m 240.226,592.508 c -18.74,13.469 -55.871,56.384 -65.241,102.47 -4.406,21.652 -2.69,38.41 0.844,50.948 5.234,18.547 15.835,28.884 27.758,40.534 30.275,29.588 101.425,39.251 127.134,39.534 21.617,0.239 29.975,4.908 34.06,6.459 4.083,1.551 20.035,6.799 37.949,8.009 21.029,1.419 15.042,2.568 30.804,6.369 15.761,3.801 55.176,9.126 87.306,10.68 32.13,1.554 65.15,-4.091 89.413,-8.327 24.264,-4.235 68.213,-7.495 121.36,-36.249 51.121,-27.662 39.943,-65.088 39.178,-68.74 -0.299,-1.435 -2.516,-4.042 -2.516,-4.042 0,0 -134.791,-210.211 -137.117,-213.1 -2.328,-2.888 -10.287,-10.216 -26.207,-23.717 -15.77,-13.373 -48.548,-39.351 -67.806,-45.758 -15.234,-5.066 -52.74,-11.134 -66.174,-12.527 -13.434,-1.391 -30.774,0.469 -47.143,3.099 -16.37,2.632 -52.064,17.101 -72.748,27.976 -20.685,10.874 -38.846,24.063 -44.911,31.532 -3.289,4.051 -12.818,15.344 -19.937,19.52 -6.831,4.01 -11.124,6.299 -28.314,20.451 -17.191,14.152 -22.308,28.731 -24.286,37.174 -1.978,8.444 3.084,8.846 6.594,7.705 m 313.082,72.318 c 0.728,-0.988 1.466,-2.074 2.182,-3.212 3.422,-5.437 6.707,-26.709 5.572,-33.207 -1.703,-9.783 -21.154,-20.241 -22.807,-21.207 -0.06,-0.035 -0.135,-0.08 -0.257,-0.115 5.023,1.86 14.652,5.351 19.42,6.136 4.769,0.785 17.839,1.887 19.69,5.157 0.575,1.013 1.08,2.191 1.507,3.561 0.176,0.565 0.337,1.129 0.481,1.711 -0.386,-1.231 -2.751,-3.298 -4.075,-4.221 -1.619,-1.128 -3.689,-0.973 -4.67,-0.784 -1.463,0.283 -4.986,5.264 -5.703,14.768 -0.787,10.447 5.207,14.135 7.643,14.048 2.435,-0.087 4.775,-1.327 6.567,-4.094 -0.085,0.431 -0.203,0.839 -0.325,1.235 -1.244,4.039 -0.301,7.26 0.733,9.294 0.013,0.023 -2.132,-2.714 -4.167,-2.296 -10.002,2.06 -18.24,8.291 -21.791,13.226"
       style="fill:#ffffff;fill-opacity:1;fill-rule:nonzero;stroke:none;stroke-width:0.1"
       id="path726" />
    <path
       d="m 240.226,592.508 c -18.74,13.469 -55.871,56.384 -65.241,102.47 -4.406,21.652 -2.69,38.41 0.844,50.948 5.234,18.547 15.835,28.884 27.758,40.534 30.275,29.588 101.425,39.251 127.134,39.534 21.617,0.239 29.975,4.908 34.06,6.459 4.083,1.551 20.035,6.799 37.949,8.009 21.029,1.419 15.042,2.568 30.804,6.369 15.761,3.801 55.176,9.126 87.306,10.68 32.13,1.554 65.15,-4.091 89.413,-8.327 24.264,-4.235 68.213,-7.495 121.36,-36.249 51.121,-27.662 39.943,-65.088 39.178,-68.74 -0.299,-1.435 -2.516,-4.042 -2.516,-4.042 0,0 -134.791,-210.211 -137.117,-213.1 -2.328,-2.888 -10.287,-10.216 -26.207,-23.717 -15.77,-13.373 -48.548,-39.351 -67.806,-45.758 -15.234,-5.066 -52.74,-11.134 -66.174,-12.527 -13.434,-1.391 -30.774,0.469 -47.143,3.099 -16.37,2.632 -52.064,17.101 -72.748,27.976 -20.685,10.874 -38.846,24.063 -44.911,31.532 -3.289,4.051 -12.818,15.344 -19.937,19.52 -6.831,4.01 -11.124,6.299 -28.314,20.451 -17.191,14.152 -22.308,28.731 -24.286,37.174 -1.978,8.444 3.084,8.846 6.594,7.705 m 313.082,72.318 c 0.728,-0.988 1.466,-2.074 2.182,-3.212 3.422,-5.437 6.707,-26.709 5.572,-33.207 -1.703,-9.783 -21.154,-20.241 -22.807,-21.207 -0.06,-0.035 -0.135,-0.08 -0.257,-0.115 5.023,1.86 14.652,5.351 19.42,6.136 4.769,0.785 17.839,1.887 19.69,5.157 0.575,1.013 1.08,2.191 1.507,3.561 0.176,0.565 0.337,1.129 0.481,1.711 -0.386,-1.231 -2.751,-3.298 -4.075,-4.221 -1.619,-1.128 -3.689,-0.973 -4.67,-0.784 -1.463,0.283 -4.986,5.264 -5.703,14.768 -0.787,10.447 5.207,14.135 7.643,14.048 2.435,-0.087 4.775,-1.327 6.567,-4.094 -0.085,0.431 -0.203,0.839 -0.325,1.235 -1.244,4.039 -0.301,7.26 0.733,9.294 0.013,0.023 -2.132,-2.714 -4.167,-2.296 -10.002,2.06 -18.24,8.291 -21.791,13.226 z"
       style="fill:none;stroke:#231f20;stroke-width:0.75;stroke-linecap:butt;stroke-linejoin:miter;stroke-miterlimit:4;stroke-dasharray:none;stroke-opacity:1"
       id="path728" />
    <path
       d="m 898.203,605.13 c 4.25,6.413 13.709,14.058 14.826,16.609 1.121,2.551 2.492,7.131 2.763,10.233 0.272,3.101 1.95,6.819 1.862,7.893 -0.086,1.071 0.738,5.127 -3.647,5.532 0,0 2.998,-0.164 4.729,0.767 1.732,0.932 6.08,4.279 6.762,6.409 0.681,2.129 1.33,8.116 1.285,11.439 -0.045,3.321 -0.196,12.429 0.406,15.954 0.602,3.524 1.516,6.614 1.014,8.444 -0.5,1.83 -0.911,2.802 -5.03,0.201 0,0 3.375,2.936 5.209,9.33 1.834,6.393 -0.714,19.082 -1.418,21.559 -0.703,2.477 -2.615,9.155 -3.304,12.275 -0.694,3.119 -2.114,7.324 -4.678,7.693 -2.564,0.369 -2.533,1.976 -7.606,0.035 0,0 4.43,2.06 4.233,8.599 -0.199,6.538 -5.371,10.706 -7.674,13.534 -2.305,2.829 -5.248,5.883 -9.512,7.034 -4.261,1.151 -7.222,3.242 -13.755,3.364 -6.534,0.122 -11.518,-2.998 -14.698,-6.795 0,0 2.467,5.845 -3.17,8.093 -5.634,2.248 -9.912,2.65 -15.808,2.439 -5.895,-0.211 -18.692,-3.735 -27.282,-16.216 -2.558,7.481 -20.853,3.96 -28.048,0.669 -7.194,-3.291 -29.155,-16.62 -33.352,-40.643 -4.088,-0.591 -8.723,-11.555 -10.463,-14.634 -1.742,-3.079 -9.666,-19.817 -11.008,-25.776 -1.156,-3.461 1.385,-6.141 1.385,-6.141 0,0 -3.691,-2.318 -5.238,-5.589 -1.545,-3.27 -2.694,-7.709 -5.608,-10.967 -4.656,-5.202 -3.668,-9.232 -1.898,-13.643 1.77,-4.411 5.488,-9.392 5.887,-11.887 0.398,-2.495 1.379,-4.412 4.105,-4.211 -3.287,-6.734 -2.924,-12.734 -0.332,-15.75 5.873,-6.84 14.652,-12.625 26.561,-20.266 11.14,-7.144 46.451,-26.916 52.863,-22.476 7.027,-4.776 20.242,3.145 24.488,13.916 10.16,-9.184 33.701,-1.802 34.432,11.453 5.17,-7.49 13.828,0.049 15.957,3.898 0.951,1.72 2.781,4.633 4.762,7.622"
       style="fill:#ffffff;fill-opacity:1;fill-rule:nonzero;stroke:none;stroke-width:0.1"
       id="path730" />
    <path
       d="m 268.856,538.832 c 5.073,-2.287 11.314,-4.954 16.975,-8.198 5.659,-3.245 8.977,-4.962 11.905,-6.873 2.929,-1.909 10.16,-8.991 13.871,-11.858 3.711,-2.868 15.234,-11.662 24.41,-17.776 9.176,-6.113 25.572,-16.043 29.867,-18.716 4.294,-2.674 26.537,-13.735 31.415,-16.024 4.877,-2.287 20.874,-9.721 24.774,-10.859"
       style="fill:none;stroke:#231f20;stroke-width:0.5;stroke-linecap:butt;stroke-linejoin:miter;stroke-miterlimit:4;stroke-dasharray:none;stroke-opacity:1"
       id="path732" />
    <path
       d="m 240.226,592.508 c 1.562,-1.146 8.004,-5.156 9.659,-5.15"
       style="fill:none;stroke:#231f20;stroke-width:0.5;stroke-linecap:butt;stroke-linejoin:miter;stroke-miterlimit:4;stroke-dasharray:none;stroke-opacity:1"
       id="path734" />
    <path
       d="m 654.242,739.785 c 1.853,-1.05 5.283,-1.842 9.162,-2.212 3.896,-0.37 9.744,-1.79 11.406,-3.224"
       style="fill:none;stroke:#231f20;stroke-width:0.5;stroke-linecap:butt;stroke-linejoin:miter;stroke-miterlimit:4;stroke-dasharray:none;stroke-opacity:1"
       id="path736" />
    <path
       d="m 479.851,734.523 c 7.182,6.748 27.182,23.336 59.689,28.444 25.42,3.997 39.133,3.98 72.471,-5.505 29.653,-8.442 41.936,-16.945 43.696,-18.86 1.759,-1.914 8.808,-12.069 9.795,-15.522"
       style="fill:none;stroke:#231f20;stroke-width:0.5;stroke-linecap:butt;stroke-linejoin:miter;stroke-miterlimit:4;stroke-dasharray:none;stroke-opacity:1"
       id="path738" />
    <path
       d="m 579.254,653.873 c 0.436,0.854 0.885,1.49 1.187,1.876 1.355,1.733 2.324,3.081 1.932,4.04 -0.393,0.959 -4.473,-1.936 -8.952,-1.76 -4.48,0.176 -8.757,1.343 -12.974,6.004 -4.595,5.073 -11.436,11.537 -22.365,17.974 -11.028,6.492 -32.194,15.924 -36.29,17.638 -4.097,1.714 -15.958,9.739 -16.833,22.796 -0.412,6.144 2.484,13.069 3.843,14.419 2.717,2.698 21.758,15.25 41.995,20.123 22.312,5.372 38.931,5.707 54.718,2.69 15.787,-3.017 47.572,-13.852 57.729,-21.499 10.154,-7.647 12.527,-17.434 14.302,-23.381 1.774,-5.948 4.346,-16.886 5.325,-18.228 0.978,-1.34 2.154,-3.257 4.492,-3.248 2.336,0.008 4.08,2.703 4.851,4.818 0.772,2.115 5.805,10.2 9.877,15.016 4.075,4.816 8.735,8.482 11.45,11.564 3.025,3.438 2.902,5.196 2.119,6.73 -0.786,1.533 -5.098,9.009 -21.284,14.522 -16.185,5.512 -30.035,11.417 -41.15,15.603 -11.117,4.186 -46.023,16.163 -72.316,16.07 -26.291,-0.093 -46.323,-8.23 -56.823,-13.069 -10.499,-4.839 -32.854,-16.826 -81.892,-28.139 -28.162,-6.498 -56.643,-9.036 -80.18,-17.185 C 331.39,715.566 316.73,708.3 305.669,697.055 295.185,686.4 288.83,663.276 300.061,634.207 c 3.047,-2.829 8.61,-11.109 10.178,-13.792 1.568,-2.684 12.541,-21.084 15.282,-24.915"
       style="fill:none;stroke:#231f20;stroke-width:0.5;stroke-linecap:butt;stroke-linejoin:miter;stroke-miterlimit:4;stroke-dasharray:none;stroke-opacity:1"
       id="path740" />
    <path
       d="m 579.096,623.63 c 1.926,7.438 1.223,14.476 -0.209,19.748"
       style="fill:none;stroke:#231f20;stroke-width:0.5;stroke-linecap:butt;stroke-linejoin:miter;stroke-miterlimit:4;stroke-dasharray:none;stroke-opacity:1"
       id="path742" />
    <path
       d="m 518.582,527.616 c -5.467,3.822 -15.558,12.033 -14.728,33.174 0.357,9.029 3.25,16.914 4.219,18.261 0.969,1.348 16.294,18.112 32.045,25.082 15.751,6.97 23.735,6.998 26.848,7.584 2.62,0.495 7.174,1.268 10.156,6.66"
       style="fill:none;stroke:#231f20;stroke-width:0.5;stroke-linecap:butt;stroke-linejoin:miter;stroke-miterlimit:4;stroke-dasharray:none;stroke-opacity:1"
       id="path744" />
    <path
       d="m 555.291,555.499 c 10.14,-3.421 22.447,-1.944 34.253,6.651 10.739,7.816 18.748,12.827 33.635,54.905 4.604,12.992 8.746,28.324 11.957,47.53 1.555,9.29 2.67,15.759 -3.404,25.725 -6.074,9.966 -13.686,14.164 -18.758,16.643 -5.072,2.479 -31.613,17.173 -50.699,17.106 -10.713,-0.038 -18.293,-4.482 -21.203,-7.373"
       style="fill:none;stroke:#231f20;stroke-width:0.5;stroke-linecap:butt;stroke-linejoin:miter;stroke-miterlimit:4;stroke-dasharray:none;stroke-opacity:1"
       id="path746" />
    <path
       d="m 538.032,607.068 c -2.322,-1.375 -13.96,-8.41 -19.013,-12.036 -5.245,-3.764 -12.528,-9.456 -14.86,-10.905 -2.332,-1.449 -4.567,-2.705 -4.567,-2.705"
       style="fill:none;stroke:#231f20;stroke-width:0.5;stroke-linecap:butt;stroke-linejoin:miter;stroke-miterlimit:4;stroke-dasharray:none;stroke-opacity:1"
       id="path748" />
    <path
       d="m 467.889,703.559 c 3.41,-0.564 16.076,-2.537 26.816,-10.085 1.855,-1.242 3.516,-2.677 7.218,-3.047 4.877,-0.488 12.762,-1.3 18.904,-3.487 5.759,-2.05 21.113,-6.514 32.453,-22.065"
       style="fill:none;stroke:#231f20;stroke-width:0.5;stroke-linecap:butt;stroke-linejoin:miter;stroke-miterlimit:4;stroke-dasharray:none;stroke-opacity:1"
       id="path750" />
    <path
       d="m 462.364,696.529 c 5.072,-2.287 23.133,-11.52 34.066,-22.256 0.99,-0.974 1.954,-1.721 2.631,-0.374 0.677,1.347 4.058,9.031 3.447,16.519"
       style="fill:none;stroke:#231f20;stroke-width:0.5;stroke-linecap:butt;stroke-linejoin:miter;stroke-miterlimit:4;stroke-dasharray:none;stroke-opacity:1"
       id="path752" />
    <path
       d="m 479.851,734.523 c -3.787,-2.894 -12.042,-8.877 -15.615,-17.437 -3.535,-8.475 -4.417,-17.109 -3.825,-19.028 0.59,-1.918 1.953,-1.529 1.953,-1.529 0,0 1.886,4.577 2.61,5.291 0.723,0.713 2.915,1.739 2.915,1.739 0,0 1.93,4.808 2.508,6.347 0.58,1.538 2.709,4.811 3.191,6.349 0.481,1.538 0.861,4.325 1.633,6.056 0.773,1.731 2.52,3.37 2.905,4.619 0.385,1.25 0.763,4.517 1.725,7.593"
       style="fill:#706d6e;fill-opacity:1;fill-rule:nonzero;stroke:none;stroke-width:0.1"
       id="path754" />
    <path
       d="m 479.851,734.523 c -3.787,-2.894 -12.042,-8.877 -15.615,-17.437 -3.535,-8.475 -4.417,-17.109 -3.825,-19.028 0.59,-1.918 1.953,-1.529 1.953,-1.529 0,0 1.886,4.577 2.61,5.291 0.723,0.713 2.915,1.739 2.915,1.739 0,0 1.93,4.808 2.508,6.347 0.58,1.538 2.709,4.811 3.191,6.349 0.481,1.538 0.861,4.325 1.633,6.056 0.773,1.731 2.52,3.37 2.905,4.619 0.385,1.25 0.763,4.517 1.725,7.593 z"
       style="fill:none;stroke:#231f20;stroke-width:0.75;stroke-linecap:butt;stroke-linejoin:miter;stroke-miterlimit:4;stroke-dasharray:none;stroke-opacity:1"
       id="path756" />
    <path
       d="m 482.706,592.309 c 0,0 -4.093,0.852 -7.411,2.568 -3.317,1.716 -6.064,7.084 -6.064,7.084 0,0 -4.926,1.01 -13.077,8.022 -18.903,16.258 -23.536,35.262 -22.156,40.638 1.284,5.016 0.934,10.855 -5.301,11.601 0,0 -4.208,10.795 -2.3,16.51 1.156,3.46 4.476,1.072 6.036,0.597 1.56,-0.474 5.749,-0.939 8.158,5.983 2.409,6.923 1.301,12.093 5.202,15.576 2.912,2.603 5.938,-1.144 7.969,4.637 1.361,3.876 0.539,8.855 2.871,13.551 1.801,3.632 2.126,4.593 -0.016,4.513 -17.137,-0.636 -65.994,-3.204 -98.991,-12.737 -33.822,-9.771 -52.57,-27.628 -51.631,-48.199 1.059,-23.236 3.119,-34.333 15.007,-56.414 3.342,-8.44 5.895,-14.192 10.4,-21.281 4.505,-7.092 12.435,-18.491 17.714,-24.042 5.278,-5.552 10.163,-9.953 11.726,-11.195 1.562,-1.242 14.435,-6.287 18.431,-7.232"
       style="fill:none;stroke:#231f20;stroke-width:0.5;stroke-linecap:butt;stroke-linejoin:miter;stroke-miterlimit:4;stroke-dasharray:none;stroke-opacity:1"
       id="path758" />
    <path
       d="m 519.416,673.299 c -3.513,1.908 -8.44,6.11 -7.238,8.905 1.738,4.04 10.323,-0.347 17.933,-4.354 5.221,-2.742 14.639,-8.399 13.479,-11.284"
       style="fill:none;stroke:#231f20;stroke-width:0.5;stroke-linecap:butt;stroke-linejoin:miter;stroke-miterlimit:4;stroke-dasharray:none;stroke-opacity:1"
       id="path760" />
    <path
       d="m 869.97,765.239 c 1.203,-9.407 -9.527,-37.821 -23.685,-54.388"
       style="fill:none;stroke:#231f20;stroke-width:0.5;stroke-linecap:butt;stroke-linejoin:miter;stroke-miterlimit:4;stroke-dasharray:none;stroke-opacity:1"
       id="path762" />
    <path
       d="m 911.376,739.503 c -3.208,-1.729 -22.644,-25.621 -27.66,-38.699 -5.015,-13.078 -4.974,-24.41 -17.588,-37.323 -12.613,-12.913 -24.486,-14.684 -24.486,-14.684"
       style="fill:none;stroke:#231f20;stroke-width:0.5;stroke-linecap:butt;stroke-linejoin:miter;stroke-miterlimit:4;stroke-dasharray:none;stroke-opacity:1"
       id="path764" />
    <path
       d="m 913.384,683.046 10.108,5.606"
       style="fill:none;stroke:#231f20;stroke-width:0.5;stroke-linecap:butt;stroke-linejoin:miter;stroke-miterlimit:4;stroke-dasharray:none;stroke-opacity:1"
       id="path766" />
    <path
       d="m 880.451,634.53 c 4.48,0.015 19.257,6.598 23.34,8.725 4.082,2.128 7.097,3.284 10.216,2.142"
       style="fill:none;stroke:#231f20;stroke-width:0.5;stroke-linecap:butt;stroke-linejoin:miter;stroke-miterlimit:4;stroke-dasharray:none;stroke-opacity:1"
       id="path768" />
    <path
       d="m 877.484,593.61 c -7.088,21.102 -21.158,33.92 -34.611,38.098 -13.455,4.179 -30.436,9.974 -35.094,5.925"
       style="fill:none;stroke:#231f20;stroke-width:0.5;stroke-linecap:butt;stroke-linejoin:miter;stroke-miterlimit:4;stroke-dasharray:none;stroke-opacity:1"
       id="path770" />
    <path
       d="m 830.146,596.516 c 0,0 8.793,-8.036 9.969,-9.76 1.174,-1.725 2.937,-4.599 2.937,-4.599"
       style="fill:none;stroke:#231f20;stroke-width:0.5;stroke-linecap:butt;stroke-linejoin:miter;stroke-miterlimit:4;stroke-dasharray:none;stroke-opacity:1"
       id="path772" />
    <path
       d="m 773.025,611.678 c 9.76,-5.918 39.623,-23.676 45.539,-43.437"
       style="fill:none;stroke:#231f20;stroke-width:0.5;stroke-linecap:butt;stroke-linejoin:miter;stroke-miterlimit:4;stroke-dasharray:none;stroke-opacity:1"
       id="path774" />
    <path
       d="m 739.472,626.733 c 1.164,1.156 10.303,5.03 12.836,5.039"
       style="fill:none;stroke:#231f20;stroke-width:0.5;stroke-linecap:butt;stroke-linejoin:miter;stroke-miterlimit:4;stroke-dasharray:none;stroke-opacity:1"
       id="path776" />
    <path
       d="m 742.224,673.03 c 3.9,-1.33 16.033,-17.229 20.35,-25.856"
       style="fill:none;stroke:#231f20;stroke-width:0.5;stroke-linecap:butt;stroke-linejoin:miter;stroke-miterlimit:4;stroke-dasharray:none;stroke-opacity:1"
       id="path778" />
    <path
       d="m 762.31,719.581 c 1.961,-3.45 4.143,-14.391 4.555,-20.343"
       style="fill:none;stroke:#231f20;stroke-width:0.5;stroke-linecap:butt;stroke-linejoin:miter;stroke-miterlimit:4;stroke-dasharray:none;stroke-opacity:1"
       id="path780" />
    <path
       d="m 823.71,759.555 c -1.132,-9.607 -6.175,-15.579 -11.195,-27.697 -5.019,-12.117 -20.277,-47.703 -20.199,-69.022"
       style="fill:none;stroke:#231f20;stroke-width:0.5;stroke-linecap:butt;stroke-linejoin:miter;stroke-miterlimit:4;stroke-dasharray:none;stroke-opacity:1"
       id="path782" />
    <path
       d="m 519.705,540.295 2.524,2.314"
       style="fill:none;stroke:#231f20;stroke-width:0.5;stroke-linecap:butt;stroke-linejoin:miter;stroke-miterlimit:4;stroke-dasharray:none;stroke-opacity:1"
       id="path784" />
    <path
       d="m 543.59,666.758 c 2.05,-1.05 7.824,-8.999 8.048,-17.258 0.225,-8.257 2.072,-18.898 0.67,-23.621 -1.539,-5.191 -11.642,-11.757 -16.119,-12.541 -4.477,-0.785 -8.377,-1.212 -10.903,-1 -4.286,0.37 -17.692,-8.704 -22.162,-11.216 -4.471,-2.513 -23.341,-8.534 -28.969,-14.123 -1.358,-1.542 11.419,-6.875 13.174,-7.252 1.754,-0.379 4.579,-0.752 5.747,-0.748"
       style="fill:none;stroke:#231f20;stroke-width:0.5;stroke-linecap:butt;stroke-linejoin:miter;stroke-miterlimit:4;stroke-dasharray:none;stroke-opacity:1"
       id="path786" />
    <path
       d="m 517.616,525.499 c -6.432,1.513 -14.636,8.015 -17.967,13.574 -3.331,5.556 -6.841,6.697 -10.572,14.943 -3.73,8.245 -2.763,9.978 -2.763,9.978 0,0 4.666,2.512 5.825,5.014 1.159,2.5 2.12,5.961 0.937,9.991 3.502,1.164 6.613,2.519 6.613,2.519 l 2.352,-4.024 c 0,0 0.066,-18.054 0.673,-24.581 0.609,-6.53 3.173,-15.355 6.693,-19.184 3.519,-3.828 5.668,-5.742 8.209,-8.23"
       style="fill:#706d6e;fill-opacity:1;fill-rule:nonzero;stroke:none;stroke-width:0.1"
       id="path788" />
    <path
       d="m 517.616,525.499 c -6.432,1.513 -14.636,8.015 -17.967,13.574 -3.331,5.556 -6.841,6.697 -10.572,14.943 -3.73,8.245 -2.763,9.978 -2.763,9.978 0,0 4.666,2.512 5.825,5.014 1.159,2.5 2.12,5.961 0.937,9.991 3.502,1.164 6.613,2.519 6.613,2.519 l 2.352,-4.024 c 0,0 0.066,-18.054 0.673,-24.581 0.609,-6.53 3.173,-15.355 6.693,-19.184 3.519,-3.828 5.668,-5.742 8.209,-8.23 z"
       style="fill:none;stroke:#231f20;stroke-width:0.75;stroke-linecap:butt;stroke-linejoin:miter;stroke-miterlimit:4;stroke-dasharray:none;stroke-opacity:1"
       id="path790" />
    <path
       d="m 517.616,525.499 c 9.366,-4.768 30.228,-11.032 53.2,-8.262"
       style="fill:none;stroke:#231f20;stroke-width:0.5;stroke-linecap:butt;stroke-linejoin:miter;stroke-miterlimit:4;stroke-dasharray:none;stroke-opacity:1"
       id="path792" />
    <path
       d="m 474.059,586.805 c -3.314,0.757 -10.54,-3.746 -9.812,-6.564 0.791,-3.071 22.067,-16.247 22.067,-16.247"
       style="fill:none;stroke:#231f20;stroke-width:0.5;stroke-linecap:butt;stroke-linejoin:miter;stroke-miterlimit:4;stroke-dasharray:none;stroke-opacity:1"
       id="path794" />
    <path
       d="m 379.273,542.489 c 5.062,0.593 10.906,0.229 15.39,-1.099 4.484,-1.329 10.529,-3.036 10.147,-5.342 -0.381,-2.306 -10.908,0.538 -13.638,1.488 -2.73,0.951 -5.071,2.095 -11.899,4.953 z"
       style="fill:none;stroke:#231f20;stroke-width:0.5;stroke-linecap:butt;stroke-linejoin:miter;stroke-miterlimit:4;stroke-dasharray:none;stroke-opacity:1"
       id="path796" />
    <path
       d="m 414.264,533.969 c -2.148,1.337 -9.428,2.078 -9.428,2.078"
       style="fill:none;stroke:#231f20;stroke-width:0.5;stroke-linecap:butt;stroke-linejoin:miter;stroke-miterlimit:4;stroke-dasharray:none;stroke-opacity:1"
       id="path798" />
    <path
       d="m 860.328,621.975 c -2.135,0.469 -1.2,4.629 -0.946,6.766 0.254,2.137 2.641,3.701 4.789,3.982 2.147,0.281 5.801,0.856 5.801,0.856 0,0 3.106,5.726 5.422,9.219 2.314,3.492 12.775,12.937 15.621,16.204 2.848,3.268 7.225,8.221 8.418,8.949 1.191,0.727 2.922,1.659 3.256,2.296 0.334,0.637 -2.398,3.473 -1.031,7.839 1.367,4.367 3.949,10.747 4.865,13.836 0.914,3.09 4.15,9.992 3.195,10.439 -0.957,0.447 -4.291,-6.026 -4.881,-8.908 -0.589,-2.881 -6.927,-15.296 -9.925,-20.918 -2.998,-5.621 -12.621,-16.047 -17.106,-20.998 -4.484,-4.953 -11.705,-12.959 -16.334,-14.158 -4.629,-1.199 -11.398,-2.357 -17.472,-0.636 -6.075,1.72 -11.27,4.602 -14.086,8.619 -2.819,4.016 -3.821,7.678 -1.569,13.528 2.25,5.85 9.028,13.008 12.613,15.726 3.586,2.718 6.295,4.381 6.975,6.404 0.682,2.023 1.022,8.765 2.574,11.522 1.551,2.756 10.668,14.798 14.389,19.014 3.721,4.215 8.1,9.168 10.273,10.841 2.174,1.674 6.42,5.344 8.397,7.985 1.978,2.641 8.322,9.593 6.631,10.803 -1.692,1.21 -7.274,-5.113 -8.924,-7.439 -1.65,-2.326 -5.363,-6.113 -6.451,-6.95 -1.086,-0.837 -1.221,-2.334 -4.391,-5.703 -3.17,-3.368 -12.262,-14.018 -14.457,-16.869 -2.195,-2.852 -9.426,-11.394 -13.035,-15.397 -3.611,-4.004 -9.35,-7.217 -12.232,-6.735 -2.885,0.483 -3.707,2.319 -3.5,7.672 0.209,5.352 2.347,16.668 7.046,27.293 4.698,10.624 7.389,17.002 11.69,23.563 4.301,6.562 7.547,14 8.215,15.38 0.668,1.38 -0.502,1.831 -1.498,0.135 -0.994,-1.695 -4.522,-6.986 -6.928,-9.618 -2.406,-2.634 -7.422,-13.039 -8.664,-16.444 -1.242,-3.405 -9.026,-24.363 -11.035,-28.611 -2.008,-4.247 -4.098,-12.885 -4.598,-16.733 -0.5,-3.846 -2.496,-13.129 -5.469,-17.466 -2.972,-4.336 -10.523,-12.873 -18.498,-15.295 -7.972,-2.422 -10.968,-2.258 -14.353,0.055 -3.385,2.312 -4.385,6.081 -5.031,11.664 -0.645,5.583 -0.782,9.763 -1.065,11.804 -0.283,2.041 0.068,3.64 0.983,6.731 0.914,3.09 3.001,11.513 4.24,14.704 1.238,3.19 4.506,11.807 6.345,18.521 1.838,6.715 5.325,15.541 5.905,17.887 0.58,2.346 1.941,6.392 1.302,6.618 -0.638,0.225 -4.336,-8.383 -5.466,-11.575 -1.129,-3.192 -4.586,-16.091 -7.075,-23.114 -2.488,-7.024 -6.097,-16.705 -7.863,-19.458 -1.766,-2.752 -3.209,-5.51 -8.135,-5.418 0,0 0.172,-2.253 2.411,-2.83 2.238,-0.578 2.308,-2.615 2.587,-4.87 0.278,-2.254 1.598,-11.921 2.829,-14.836 1.23,-2.915 3.984,-10.359 3.816,-13.57 -0.166,-3.211 -2.557,-4.987 -8.027,-5.421 -5.473,-0.433 -11.897,-0.312 -12.26,-2.448 -0.359,-2.135 1.859,-3.677 4.096,-4.468 2.234,-0.792 10.511,-5.018 12.748,-5.703 2.236,-0.686 11.384,-4.178 15.33,-5.215 3.943,-1.039 14.67,-6.059 19.859,-9.262 5.19,-3.205 12.568,-9.556 14.856,-13.242 2.289,-3.685 6.152,-9.112 8.052,-10.541 1.901,-1.428 4.319,-3.938 3.547,-5.102"
       style="fill:none;stroke:#231f20;stroke-width:0.5;stroke-linecap:butt;stroke-linejoin:miter;stroke-miterlimit:4;stroke-dasharray:none;stroke-opacity:1"
       id="path800" />
    <path
       d="m 847.298,594.795 c 0.885,-0.632 1.631,-0.888 1.912,-0.144 0.565,1.489 -2.289,3.685 -3.982,4.681 -1.697,0.996 -8.59,4.661 -10.922,6.096 -2.328,1.438 -10.371,6.73 -13.314,9.783 -2.942,3.055 -10.403,10.909 -12.188,12.763 -1.787,1.855 -4.619,5.12 -5.332,7.064 -0.713,1.941 -0.039,3.643 1.156,4.477 1.194,0.835 3.905,1.898 4.733,1.09 0.935,-0.911 0.185,-1.611 -1.227,-2.656"
       style="fill:none;stroke:#231f20;stroke-width:0.5;stroke-linecap:butt;stroke-linejoin:miter;stroke-miterlimit:4;stroke-dasharray:none;stroke-opacity:1"
       id="path802" />
    <path
       d="m 898.203,605.13 c 4.25,6.413 13.709,14.058 14.826,16.609 1.121,2.551 2.492,7.131 2.763,10.233 0.272,3.101 1.95,6.819 1.862,7.893 -0.086,1.071 0.738,5.127 -3.647,5.532 0,0 2.998,-0.164 4.729,0.767 1.732,0.932 6.08,4.279 6.762,6.409 0.681,2.129 1.33,8.116 1.285,11.439 -0.045,3.321 -0.196,12.429 0.406,15.954 0.602,3.524 1.516,6.614 1.014,8.444 -0.5,1.83 -0.911,2.802 -5.03,0.201 0,0 3.375,2.936 5.209,9.33 1.834,6.393 -0.714,19.082 -1.418,21.559 -0.703,2.477 -2.615,9.155 -3.304,12.275 -0.694,3.119 -2.114,7.324 -4.678,7.693 -2.564,0.369 -2.533,1.976 -7.606,0.035 0,0 4.43,2.06 4.233,8.599 -0.199,6.538 -5.371,10.706 -7.674,13.534 -2.305,2.829 -5.248,5.883 -9.512,7.034 -4.261,1.151 -7.222,3.242 -13.755,3.364 -6.534,0.122 -11.518,-2.998 -14.698,-6.795 0,0 2.467,5.845 -3.17,8.093 -5.634,2.248 -9.912,2.65 -15.808,2.439 -5.895,-0.211 -18.692,-3.735 -27.282,-16.216 -2.558,7.481 -20.853,3.96 -28.048,0.669 -7.194,-3.291 -29.155,-16.62 -33.352,-40.643 -4.088,-0.591 -8.723,-11.555 -10.463,-14.634 -1.742,-3.079 -9.666,-19.817 -11.008,-25.776 -1.156,-3.461 1.385,-6.141 1.385,-6.141 0,0 -3.691,-2.318 -5.238,-5.589 -1.545,-3.27 -2.694,-7.709 -5.608,-10.967 -4.656,-5.202 -3.668,-9.232 -1.898,-13.643 1.77,-4.411 5.488,-9.392 5.887,-11.887 0.398,-2.495 1.379,-4.412 4.105,-4.211 -3.287,-6.734 -2.924,-12.734 -0.332,-15.75 5.873,-6.84 14.652,-12.625 26.561,-20.266 11.14,-7.144 46.451,-26.916 52.863,-22.476 7.027,-4.776 20.242,3.145 24.488,13.916 10.16,-9.184 33.701,-1.802 34.432,11.453 5.17,-7.49 13.828,0.049 15.957,3.898 0.951,1.72 2.781,4.633 4.762,7.622 z"
       style="fill:none;stroke:#231f20;stroke-width:0.78;stroke-linecap:butt;stroke-linejoin:miter;stroke-miterlimit:4;stroke-dasharray:none;stroke-opacity:1"
       id="path804" />
    <path
       d="m 654.71,637.573 c -2.119,-18.272 -4.906,-37.854 -32.679,-64.649 -5.981,-5.765 -12.192,-13.259 -14.76,-11.576 -1.897,1.241 7.174,15.937 13.443,30.237 5.362,12.215 9.789,22.855 12.629,30.547 3.422,9.286 9.061,28.86 9.776,43.249 0.726,14.599 -1.041,18.434 1.681,19.597 1.362,0.581 6.762,-6.86 7.635,-10.537 1.186,-4.989 4.059,-21.532 2.275,-36.868 z"
       style="fill:none;stroke:#231f20;stroke-width:0.5;stroke-linecap:round;stroke-linejoin:round;stroke-miterlimit:4;stroke-dasharray:2.8, 1.8;stroke-dashoffset:0;stroke-opacity:1"
       id="path806" />
    <path
       d="m 519.319,673.298 c 2.245,-1.24 14.923,-6.669 19.404,-7.038 2.734,-0.224 4.384,-0.56 4.867,0.306"
       style="fill:none;stroke:#231f20;stroke-width:0.5;stroke-linecap:round;stroke-linejoin:round;stroke-miterlimit:4;stroke-dasharray:2.8, 1.8;stroke-dashoffset:0;stroke-opacity:1"
       id="path808" />
    <path
       d="m 509.464,631.874 12.076,-0.622 c 0.082,-6.527 0.211,-11.05 0.211,-11.05 0,0 1.003,-8.064 4.704,-7.858"
       style="fill:none;stroke:#231f20;stroke-width:0.5;stroke-linecap:round;stroke-linejoin:round;stroke-miterlimit:4;stroke-dasharray:2.8, 1.8;stroke-dashoffset:0;stroke-opacity:1"
       id="path810" />
    <path
       d="m 519.502,673.202 c -8.27,-1.758 -11.392,4.354 -16.447,0.519 -2.993,-2.273 -2.308,-8.075 -0.352,-10.564 1.957,-2.491 6.058,-5.549 6.081,-11.887 0.024,-6.338 0.658,-20.164 0.658,-20.164 0,0 -1.151,-4.807 -1.143,-7.304 0.01,-2.496 0.607,-6.143 1.779,-7.098 1.172,-0.957 7.306,-0.647 11.562,7.243"
       style="fill:none;stroke:#231f20;stroke-width:0.5;stroke-linecap:round;stroke-linejoin:round;stroke-miterlimit:4;stroke-dasharray:2.8, 1.8;stroke-dashoffset:0;stroke-opacity:1"
       id="path812" />
    <path
       d="m 472.551,573.067 c 0.313,-5.952 5.599,-13.424 14.759,-14.928"
       style="fill:none;stroke:#231f20;stroke-width:0.5;stroke-linecap:round;stroke-linejoin:round;stroke-miterlimit:4;stroke-dasharray:2.8, 1.8;stroke-dashoffset:0;stroke-opacity:1"
       id="path814" />
    <path
       d="m 462.612,574.473 c -4.986,5.649 -13.657,6.674 -17.941,6.276 -4.283,-0.401 -8.456,-4.161 -8.456,-4.161 0,0 -11.599,2.937 -16.589,9.45 -4.453,5.805 -27.172,27.369 8.299,74.165 0.965,0.861 0.772,1.923 0.772,1.923"
       style="fill:none;stroke:#231f20;stroke-width:0.5;stroke-linecap:round;stroke-linejoin:round;stroke-miterlimit:4;stroke-dasharray:2.8, 1.8;stroke-dashoffset:0;stroke-opacity:1"
       id="path816" />
    <path
       d="m 458.307,660.502 c -3.387,-4.321 -0.69,-16.093 2.799,-19.772 2.541,-2.68 11.479,-5.193 19.899,-9.148 10.145,-4.767 15.42,-9.357 18.341,-9.347 3.914,0.014 7.582,3.868 7.332,19.04 -0.25,15.172 -4.749,20.726 -12.934,22.042 -8.185,1.315 -32.722,0.652 -35.437,-2.815 z"
       style="fill:none;stroke:#231f20;stroke-width:0.5;stroke-linecap:round;stroke-linejoin:round;stroke-miterlimit:4;stroke-dasharray:2.8, 1.8;stroke-dashoffset:0;stroke-opacity:1"
       id="path818" />
    <path
       d="m 541.593,492.969 c 5.638,2.709 13.909,4.432 17.987,8.094 3.08,2.772 4.066,6.16 -2.373,9.596 -6.44,3.433 -24.75,4.33 -27.87,5.279 -3.12,0.949 -7.993,2.084 -8.75,-4.064 -0.156,-1.269 -0.327,-2.832 -0.5,-4.543"
       style="fill:none;stroke:#231f20;stroke-width:0.5;stroke-linecap:round;stroke-linejoin:round;stroke-miterlimit:4;stroke-dasharray:2.8, 1.8;stroke-dashoffset:0;stroke-opacity:1"
       id="path820" />
    <path
       d="m 466.203,577.943 c -2.138,-1.353 -3.433,-3.247 -5.625,-6.359 -1.356,-1.925 -11.082,-5.416 -14.773,-7.734 -3.693,-2.317 -13.074,-10.285 -5.389,-18.073 5.474,-5.55 25.346,-7.209 30.609,-8.534"
       style="fill:none;stroke:#231f20;stroke-width:0.5;stroke-linecap:round;stroke-linejoin:round;stroke-miterlimit:4;stroke-dasharray:2.8, 1.8;stroke-dashoffset:0;stroke-opacity:1"
       id="path822" />
    <path
       d="m 520.837,513.18 c -0.403,3.839 -2.237,9.634 -8.278,10.381 -6.04,0.746 -17.508,-5.633 -18.866,-6.981 -1.359,-1.349 -10.098,-9.693 -20.987,-13.135 -15.369,-4.856 -33.397,-2.867 -48.716,6.934 -10.151,6.495 -12.578,19.552 -12.346,21.084 0.38,2.498 8.959,5.194 12.25,5.613 3.114,0.395 12.266,1.004 22.788,-0.304 8.068,-0.998 20.06,0.071 24.343,0.471 4.284,0.398 16.943,0.443 21.035,-0.118 1.685,-0.232 3.237,-0.398 4.691,-0.513"
       style="fill:none;stroke:#231f20;stroke-width:0.5;stroke-linecap:round;stroke-linejoin:round;stroke-miterlimit:4;stroke-dasharray:2.8, 1.8;stroke-dashoffset:0;stroke-opacity:1"
       id="path824" />
    <path
       d="m 424.088,510.284 c 1.18,-2.877 0.992,-4.895 -2.52,-3.178 -3.512,1.716 -4.4,3.236 -8.296,5.156 -2.382,1.174 -3.12,1.141 -3.12,1.141 0,0 -3.714,3.637 -4.114,6.324 -0.399,2.688 -2.55,4.984 -4.114,6.708 -1.564,1.724 -0.943,4.763 0.172,6.339 1.356,1.925 3.495,2.892 4.478,0.207 1.144,-3.117 1.967,-4.986 2.166,-6.33 0.784,-1.533 3.603,-0.084 4.389,-2.001"
       style="fill:none;stroke:#231f20;stroke-width:0.5;stroke-linecap:round;stroke-linejoin:round;stroke-miterlimit:4;stroke-dasharray:2.8, 1.8;stroke-dashoffset:0;stroke-opacity:1"
       id="path826" />
    <path
       d="m 382.2,541.154 c -2.329,-2.121 -2.706,-5.772 3.736,-9.782 6.441,-4.011 12.771,-3.989 15.29,-0.33"
       style="fill:none;stroke:#231f20;stroke-width:0.5;stroke-linecap:round;stroke-linejoin:round;stroke-miterlimit:4;stroke-dasharray:2.8, 1.8;stroke-dashoffset:0;stroke-opacity:1"
       id="path828" />
    <path
       d="M 362.793,548.647 377.004,524.03"
       style="fill:none;stroke:#231f20;stroke-width:0.5;stroke-linecap:round;stroke-linejoin:round;stroke-miterlimit:4;stroke-dasharray:2.8, 1.8;stroke-dashoffset:0;stroke-opacity:1"
       id="path830" />
    <path
       d="m 373.308,522.493 c -1.548,-2.696 0.019,-4.994 1.971,-6.332 1.952,-1.336 16.793,-11.848 22.843,-15.285 6.05,-3.434 20.882,-11.833 22.249,-12.596 1.366,-0.764 7.603,-2.087 8.184,-1.124 0.58,0.962 -0.4,2.88 -5.086,6.128 -4.687,3.248 -22.447,13.556 -27.329,16.997 -4.882,3.44 -15.427,11.085 -17.38,12.614 -1.953,1.529 -3.904,2.291 -5.452,-0.402 z"
       style="fill:none;stroke:#231f20;stroke-width:0.5;stroke-linecap:round;stroke-linejoin:round;stroke-miterlimit:4;stroke-dasharray:2.8, 1.8;stroke-dashoffset:0;stroke-opacity:1"
       id="path832" />
    <path
       d="m 340.507,571.544 c -6.429,0.746 -35.675,-1.001 -36.577,-2.069 -4.268,-5.049 2.696,-14.545 5.695,-17.98 5.576,-6.383 22.171,-14.51 35.212,-19.117 7.929,-2.797 29.075,-15.07 29.075,-15.07"
       style="fill:none;stroke:#231f20;stroke-width:0.5;stroke-linecap:round;stroke-linejoin:round;stroke-miterlimit:4;stroke-dasharray:2.8, 1.8;stroke-dashoffset:0;stroke-opacity:1"
       id="path834" />
    <path
       d="m 295.754,648.345 c -2.705,6.669 -7.333,9.87 -13.013,9.87 -7.575,0 -11.903,-12.804 -9.468,-26.141 2.435,-13.338 23.082,-53.262 30.657,-62.599"
       style="fill:none;stroke:#231f20;stroke-width:0.5;stroke-linecap:round;stroke-linejoin:round;stroke-miterlimit:4;stroke-dasharray:2.8, 1.8;stroke-dashoffset:0;stroke-opacity:1"
       id="path836" />
    <path
       d="m 703.777,705.893 c 3.947,4.854 13.9,15.808 47.933,8.209"
       style="fill:none;stroke:#231f20;stroke-width:0.5;stroke-linecap:round;stroke-linejoin:round;stroke-miterlimit:4;stroke-dasharray:2.8, 1.8;stroke-dashoffset:0;stroke-opacity:1"
       id="path838" />
    <path
       d="m 695.613,727.578 c 7.465,3.931 49.916,28.419 76.531,30.921"
       style="fill:none;stroke:#231f20;stroke-width:0.5;stroke-linecap:round;stroke-linejoin:round;stroke-miterlimit:4;stroke-dasharray:2.8, 1.8;stroke-dashoffset:0;stroke-opacity:1"
       id="path840" />
    <path
       d="m 703.013,705.157 c 1.694,4.574 6.307,22.165 6.873,23.761 0.565,1.596 0.721,4.716 6.643,5.768 7.094,1.26 26.758,4.427 45.012,-4.699"
       style="fill:none;stroke:#231f20;stroke-width:0.5;stroke-linecap:round;stroke-linejoin:round;stroke-miterlimit:4;stroke-dasharray:2.8, 1.8;stroke-dashoffset:0;stroke-opacity:1"
       id="path842" />
    <path
       d="m 677.568,744.795 43.42,73.688"
       style="fill:none;stroke:#231f20;stroke-width:0.5;stroke-linecap:round;stroke-linejoin:round;stroke-miterlimit:4;stroke-dasharray:2.8, 1.8;stroke-dashoffset:0;stroke-opacity:1"
       id="path844" />
    <path
       d="m 646.796,683.742 c 1.86,2.064 12.864,15.236 14.106,18.766"
       style="fill:none;stroke:#231f20;stroke-width:0.5;stroke-linecap:round;stroke-linejoin:round;stroke-miterlimit:4;stroke-dasharray:2.8, 1.8;stroke-dashoffset:0;stroke-opacity:1"
       id="path846" />
    <path
       d="m 666.548,693.397 c 0.159,-4.021 1.543,-29.647 1.049,-37.76"
       style="fill:none;stroke:#231f20;stroke-width:0.5;stroke-linecap:round;stroke-linejoin:round;stroke-miterlimit:4;stroke-dasharray:2.8, 1.8;stroke-dashoffset:0;stroke-opacity:1"
       id="path848" />
    <path
       d="m 618.597,732.336 c 6.619,-5.142 20.223,-14.923 26.611,-47.373"
       style="fill:none;stroke:#231f20;stroke-width:0.5;stroke-linecap:round;stroke-linejoin:round;stroke-miterlimit:4;stroke-dasharray:2.8, 1.8;stroke-dashoffset:0;stroke-opacity:1"
       id="path850" />
    <path
       d="m 659.896,571.401 -3.943,26.957"
       style="fill:none;stroke:#231f20;stroke-width:0.5;stroke-linecap:round;stroke-linejoin:round;stroke-miterlimit:4;stroke-dasharray:2.8, 1.8;stroke-dashoffset:0;stroke-opacity:1"
       id="path852" />
    <path
       d="m 576.363,521.469 c 6.547,0.992 42.74,13.59 64.172,40.815 1.316,1.674 1.463,4.215 2.156,6.679 2.848,10.129 11.588,26.547 14.685,31.936 3.096,5.389 14.129,24.25 26.545,37.93 12.414,13.68 13.961,16.759 16.663,23.875 2.701,7.115 15.857,31.17 19.734,36.177 3.877,5.008 2.89,8.27 -1.209,11.136 -4.102,2.866 -8.578,2.275 -13.045,-1.582 -4.465,-3.858 -14.354,-15.801 -22.686,-27.738 -8.615,-12.346 -20.523,-33.3 -21.88,-35.225 -1.356,-1.926 -5.235,-6.453 -6.788,-8.091"
       style="fill:none;stroke:#231f20;stroke-width:0.5;stroke-linecap:round;stroke-linejoin:round;stroke-miterlimit:4;stroke-dasharray:2.8, 1.8;stroke-dashoffset:0;stroke-opacity:1"
       id="path854" />
    <path
       d="m 590.451,526.15 c 3.511,1.338 5.642,-3.983 1.279,-5.569 -5.02,-1.826 -18.645,-6.348 -23.008,-6.745 -4.365,-0.396 -10.115,-4.759 -4.76,-10.711 5.356,-5.95 13.487,-9.124 18.645,-8.132 5.156,0.992 13.201,3.2 19.988,6.361"
       style="fill:none;stroke:#231f20;stroke-width:0.5;stroke-linecap:round;stroke-linejoin:round;stroke-miterlimit:4;stroke-dasharray:2.8, 1.8;stroke-dashoffset:0;stroke-opacity:1"
       id="path856" />
    <path
       d="m 561.568,531.911 c 15.521,4.106 40.598,14.748 54.767,35.288 0,0 15.661,6.142 21.016,1.184 3.115,-2.884 4.162,-5.147 1.549,-8.102"
       style="fill:none;stroke:#231f20;stroke-width:0.5;stroke-linecap:round;stroke-linejoin:round;stroke-miterlimit:4;stroke-dasharray:2.8, 1.8;stroke-dashoffset:0;stroke-opacity:1"
       id="path858" />
    <path
       d="m 440.18,558.829 c 4.028,-0.924 9.188,-6.231 33.063,10.785"
       style="fill:none;stroke:#231f20;stroke-width:0.5;stroke-linecap:round;stroke-linejoin:round;stroke-miterlimit:4;stroke-dasharray:2.8, 1.8;stroke-dashoffset:0;stroke-opacity:1"
       id="path860" />
    <path
       d="m 485.621,558.495 c 1.976,-3.403 3.959,-8.163 5.943,-10.94 1.983,-2.776 4.027,-9.123 6.148,-12.496 2.122,-3.371 5.75,-9.657 13.883,-11.442"
       style="fill:none;stroke:#231f20;stroke-width:0.5;stroke-linecap:round;stroke-linejoin:round;stroke-miterlimit:4;stroke-dasharray:2.8, 1.8;stroke-dashoffset:0;stroke-opacity:1"
       id="path862" />
    <path
       d="m 514.904,503.329 c -0.964,-3.911 -2.847,-12.907 0.615,-22.633"
       style="fill:none;stroke:#231f20;stroke-width:0.5;stroke-linecap:round;stroke-linejoin:round;stroke-miterlimit:4;stroke-dasharray:2.8, 1.8;stroke-dashoffset:0;stroke-opacity:1"
       id="path864" />
    <path
       d="m 433.942,505.229 c 5.307,-13.042 10.999,-29.211 29.7,-26.208 7.117,1.144 19.306,7.315 26.217,10.503 12.872,5.935 27.735,15.328 30.258,17.834"
       style="fill:none;stroke:#231f20;stroke-width:0.5;stroke-linecap:round;stroke-linejoin:round;stroke-miterlimit:4;stroke-dasharray:2.8, 1.8;stroke-dashoffset:0;stroke-opacity:1"
       id="path866" />
    <path
       d="m 423.73,487.268 c 6.147,-3.184 9.007,-4.812 23.544,-4.593"
       style="fill:none;stroke:#231f20;stroke-width:0.5;stroke-linecap:round;stroke-linejoin:round;stroke-miterlimit:4;stroke-dasharray:2.8, 1.8;stroke-dashoffset:0;stroke-opacity:1"
       id="path868" />
    <path
       d="M 433.405,483.471 420.331,448.825"
       style="fill:none;stroke:#231f20;stroke-width:0.5;stroke-linecap:round;stroke-linejoin:round;stroke-miterlimit:4;stroke-dasharray:2.8, 1.8;stroke-dashoffset:0;stroke-opacity:1"
       id="path870" />
    <path
       d="m 408.737,454.12 14.993,33.148"
       style="fill:none;stroke:#231f20;stroke-width:0.5;stroke-linecap:round;stroke-linejoin:round;stroke-miterlimit:4;stroke-dasharray:2.8, 1.8;stroke-dashoffset:0;stroke-opacity:1"
       id="path872" />
    <path
       d="M 380.352,512.626 359.855,479.119"
       style="fill:none;stroke:#231f20;stroke-width:0.5;stroke-linecap:round;stroke-linejoin:round;stroke-miterlimit:4;stroke-dasharray:2.8, 1.8;stroke-dashoffset:0;stroke-opacity:1"
       id="path874" />
    <path
       d="M 402.045,498.651 384.513,465.596"
       style="fill:none;stroke:#231f20;stroke-width:0.5;stroke-linecap:round;stroke-linejoin:round;stroke-miterlimit:4;stroke-dasharray:2.8, 1.8;stroke-dashoffset:0;stroke-opacity:1"
       id="path876" />
    <path
       d="m 314.857,570.844 c -1.573,-3.576 -6.14,-18.695 18.737,-33.984"
       style="fill:none;stroke:#231f20;stroke-width:0.5;stroke-linecap:round;stroke-linejoin:round;stroke-miterlimit:4;stroke-dasharray:2.8, 1.8;stroke-dashoffset:0;stroke-opacity:1"
       id="path878" />
    <path
       d="m 340.75,533.893 c -1.916,5.729 -2.259,20.477 15.268,20.145"
       style="fill:none;stroke:#231f20;stroke-width:0.5;stroke-linecap:round;stroke-linejoin:round;stroke-miterlimit:4;stroke-dasharray:2.8, 1.8;stroke-dashoffset:0;stroke-opacity:1"
       id="path880" />
    <path
       d="m 175.591,692.983 c 6.023,7.455 25.119,23.728 45.014,25.549 19.894,1.82 22.993,-0.074 29.358,5.458"
       style="fill:none;stroke:#231f20;stroke-width:0.5;stroke-linecap:round;stroke-linejoin:round;stroke-miterlimit:4;stroke-dasharray:2.8, 1.8;stroke-dashoffset:0;stroke-opacity:1"
       id="path882" />
    <path
       d="m 292.831,822.155 c 0.333,-11.934 -7.802,-31.272 -19.791,-51.324 -11.99,-20.052 -23.684,-37.852 -47.3,-51.923"
       style="fill:none;stroke:#231f20;stroke-width:0.5;stroke-linecap:round;stroke-linejoin:round;stroke-miterlimit:4;stroke-dasharray:2.8, 1.8;stroke-dashoffset:0;stroke-opacity:1"
       id="path884" />
    <path
       d="M 413.663,841.449 C 386.831,827.665 379.141,820.493 343.23,784.76 307.32,749.026 285.212,743.969 273.374,739.664 261.536,735.359 235.673,715.621 234.244,699.217"
       style="fill:none;stroke:#231f20;stroke-width:0.5;stroke-linecap:round;stroke-linejoin:round;stroke-miterlimit:4;stroke-dasharray:2.8, 1.8;stroke-dashoffset:0;stroke-opacity:1"
       id="path886" />
    <path
       d="m 202.758,633.427 c 0,0 50.541,-9.612 78.63,-23.129"
       style="fill:none;stroke:#231f20;stroke-width:0.5;stroke-linecap:round;stroke-linejoin:round;stroke-miterlimit:4;stroke-dasharray:2.8, 1.8;stroke-dashoffset:0;stroke-opacity:1"
       id="path888" />
    <path
       d="m 178.93,681.129 c 18.744,-10.724 43.974,-27.164 59.769,-32.457 12.613,-4.226 22.646,-10.356 34.024,-12.386"
       style="fill:none;stroke:#231f20;stroke-width:0.5;stroke-linecap:round;stroke-linejoin:round;stroke-miterlimit:4;stroke-dasharray:2.8, 1.8;stroke-dashoffset:0;stroke-opacity:1"
       id="path890" />
    <path
       d="m 205.601,665.372 c 18.295,1.161 42.895,-1.813 52.868,-3.312 9.973,-1.5 30.403,-4.242 35.852,-3.219"
       style="fill:none;stroke:#231f20;stroke-width:0.5;stroke-linecap:round;stroke-linejoin:round;stroke-miterlimit:4;stroke-dasharray:2.8, 1.8;stroke-dashoffset:0;stroke-opacity:1"
       id="path892" />
    <path
       d="m 222.198,665.452 c 16.772,-6.568 33.494,-14.027 42.183,-15.54 3.421,-0.596 6.629,-1.219 9.26,-1.766"
       style="fill:none;stroke:#231f20;stroke-width:0.5;stroke-linecap:round;stroke-linejoin:round;stroke-miterlimit:4;stroke-dasharray:2.8, 1.8;stroke-dashoffset:0;stroke-opacity:1"
       id="path894" />
    <path
       d="m 211.218,665.409 c 1.513,8.692 5.895,19.343 17.989,29.757 12.093,10.412 24.563,15.688 32.519,22.522 7.957,6.833 16.234,13.67 29.685,17.349 13.45,3.679 27.197,9.611 40.897,20.042 13.699,10.43 29.604,24.739 40.382,38.03 10.778,13.291 20.289,24.962 35.003,30.582 14.715,5.621 30.167,2.253 34.111,-6.06 3.943,-8.313 8.594,-22.723 12.86,-31.032 4.264,-8.31 21.471,-28.136 25.694,-32.589"
       style="fill:none;stroke:#231f20;stroke-width:0.5;stroke-linecap:round;stroke-linejoin:round;stroke-miterlimit:4;stroke-dasharray:2.8, 1.8;stroke-dashoffset:0;stroke-opacity:1"
       id="path896" />
    <path
       d="m 329.759,753.123 c 6.561,-12.784 18.105,-23.983 25.236,-30.012"
       style="fill:none;stroke:#231f20;stroke-width:0.5;stroke-linecap:round;stroke-linejoin:round;stroke-miterlimit:4;stroke-dasharray:2.8, 1.8;stroke-dashoffset:0;stroke-opacity:1"
       id="path898" />
    <path
       d="m 441.795,848.565 c 4.948,-12.158 15.446,-47.936 21.655,-57.832 6.209,-9.895 27.485,-32.281 27.485,-32.281"
       style="fill:none;stroke:#231f20;stroke-width:0.5;stroke-linecap:round;stroke-linejoin:round;stroke-miterlimit:4;stroke-dasharray:2.8, 1.8;stroke-dashoffset:0;stroke-opacity:1"
       id="path900" />
    <path
       d="m 460.868,851.761 10.819,-71.828"
       style="fill:none;stroke:#231f20;stroke-width:0.5;stroke-linecap:round;stroke-linejoin:round;stroke-miterlimit:4;stroke-dasharray:2.8, 1.8;stroke-dashoffset:0;stroke-opacity:1"
       id="path902" />
    <path
       d="m 480.434,854.221 14.178,-94.002"
       style="fill:none;stroke:#231f20;stroke-width:0.5;stroke-linecap:round;stroke-linejoin:round;stroke-miterlimit:4;stroke-dasharray:2.8, 1.8;stroke-dashoffset:0;stroke-opacity:1"
       id="path904" />
    <path
       d="m 521.953,857.561 -0.161,-86.125"
       style="fill:none;stroke:#231f20;stroke-width:0.5;stroke-linecap:round;stroke-linejoin:round;stroke-miterlimit:4;stroke-dasharray:2.8, 1.8;stroke-dashoffset:0;stroke-opacity:1"
       id="path906" />
    <path
       d="M 589.656,852.501 560.91,777.64"
       style="fill:none;stroke:#231f20;stroke-width:0.5;stroke-linecap:round;stroke-linejoin:round;stroke-miterlimit:4;stroke-dasharray:2.8, 1.8;stroke-dashoffset:0;stroke-opacity:1"
       id="path908" />
    <path
       d="m 236.123,664.429 c 8.834,14.454 28.618,26.675 38.327,39.533 6.371,8.438 17.719,24.303 21.374,32.592"
       style="fill:none;stroke:#231f20;stroke-width:0.5;stroke-linecap:round;stroke-linejoin:round;stroke-miterlimit:4;stroke-dasharray:2.8, 1.8;stroke-dashoffset:0;stroke-opacity:1"
       id="path910" />
    <path
       d="m 244.272,663.771 c 2.615,5.493 19.268,19.929 26.247,27.936 5.313,6.094 10.268,10.697 16.704,24.37 2.018,4.286 1.139,5.241 8.497,20.155"
       style="fill:none;stroke:#231f20;stroke-width:0.5;stroke-linecap:round;stroke-linejoin:round;stroke-miterlimit:4;stroke-dasharray:2.8, 1.8;stroke-dashoffset:0;stroke-opacity:1"
       id="path912" />
    <path
       d="M 468.899,502.398 V 480.505"
       style="fill:none;stroke:#231f20;stroke-width:0.5;stroke-linecap:round;stroke-linejoin:round;stroke-miterlimit:4;stroke-dasharray:2.8, 1.8;stroke-dashoffset:0;stroke-opacity:1"
       id="path914" />
    <path
       d="m 574.81,515.163 c 2.467,0.699 9.863,-2.193 11.297,-6.589 1.307,-4.007 0.645,-11.732 -8.027,-13.532"
       style="fill:none;stroke:#231f20;stroke-width:0.5;stroke-linecap:round;stroke-linejoin:round;stroke-miterlimit:4;stroke-dasharray:2.8, 1.8;stroke-dashoffset:0;stroke-opacity:1"
       id="path916" />
    <path
       d="m 512.479,462.784 c -3.315,-0.254 -6.973,-0.848 -10.207,-2.257 -8.611,-3.751 -15.962,-2.553 -18.494,-2.562 0,0 -4.484,1.137 -9.93,-0.803 -11.478,-3.306 -16.727,-6.013 -43.043,0.232 -26.315,6.245 -46.805,17.12 -56.758,22.654 -9.953,5.534 -14.255,10.322 -20.696,14.14 -6.442,3.818 -33.184,20.434 -40.61,27.322 -7.426,6.887 -15.046,13.582 -19.338,15.489 -4.292,1.906 -13.651,4.753 -17.36,7.237 -2.16,1.444 -10.548,8.413 -14.262,12.241 -3.715,3.828 -11.595,10.295 -10.185,15.713 1.153,4.422 21.401,6.414 24.525,4.312 2.812,-1.892 1.57,-3.451 -0.764,-4.42 -2.333,-0.968 -11.683,-0.617 -12.835,-5.423 -1.15,-4.805 5.686,-10.352 11.934,-14.363 6.246,-4.01 16.584,-8.2 21.267,-10.488 4.682,-2.288 19.716,-12.606 32.802,-22.548 13.085,-9.94 26.94,-17.574 32.215,-21.781 5.274,-4.207 9.769,-8.608 27.135,-17.381 17.366,-8.773 46.422,-19.043 58.309,-20.537 11.885,-1.494 25.115,2.201 28.229,2.981 3.113,0.779 5.747,1.855 7.896,1.755 2.017,-0.093 12.907,-0.673 21.909,4.553"
       style="fill:none;stroke:#231f20;stroke-width:0.5;stroke-linecap:round;stroke-linejoin:round;stroke-miterlimit:4;stroke-dasharray:2.8, 1.8;stroke-dashoffset:0;stroke-opacity:1"
       id="path918" />
    <path
       d="m 517.427,462.953 c -2.755,0.249 -11.902,-2.235 -13.209,5.897 -1.425,8.861 5.227,9.872 9.002,11.033 3.775,1.162 15.23,6.293 20.27,9.35 8.662,5.252 17.164,5.226 20.275,3.935 4.193,-1.74 12.172,-3.981 10.99,-11.068 -0.992,-5.95 -12.959,-12.297 -15.67,-13.685 -7.245,-3.711 -12.541,-5.149 -17.064,-4.152 -1.746,-1.733 -7.942,-2.122 -11.839,-1.559 z"
       style="fill:none;stroke:#231f20;stroke-width:0.5;stroke-linecap:round;stroke-linejoin:round;stroke-miterlimit:4;stroke-dasharray:2.8, 1.8;stroke-dashoffset:0;stroke-opacity:1"
       id="path920" />
    <path
       d="m 616.871,750.284 c 2.408,-7.235 3.117,-31.373 -3.813,-43.468"
       style="fill:none;stroke:#231f20;stroke-width:0.5;stroke-linecap:round;stroke-linejoin:round;stroke-miterlimit:4;stroke-dasharray:2.8, 1.8;stroke-dashoffset:0;stroke-opacity:1"
       id="path922" />
    <path
       d="m 618.529,732.06 c -4.668,3.073 -13.383,10.511 -15.346,12.48 -1.961,1.971 -5.23,4.816 -12.416,6.773 -7.185,1.957 -30.701,3.654 -39.195,2.753 -8.495,-0.9 -20.912,-4.229 -28.32,-6.666 -7.409,-2.438 -30.732,-13.496 -32.468,-18.119 -1.736,-4.624 0.239,-10.116 4.18,-14.942 3.939,-4.825 14.43,-12.486 27.968,-18.815 13.53,-6.326 30.546,-14.174 37.314,-20.521 6.767,-6.345 10.906,-6.767 13.732,-5.219 2.826,1.548 14.787,7.086 19.352,8.42 4.568,1.336 8.695,3.328 4.996,4.411 -3.702,1.084 -10.407,4.092 -14.371,3.461 -5.657,-0.899 -12.827,-7.516 -16.965,-7.312 -4.139,0.203 -11.995,6.986 -21.375,11.567 -9.383,4.581 -25.744,8.261 -34.263,13.728 -8.521,5.468 -17.485,12.695 -16.629,20.396 0.857,7.699 15.678,14.997 24.615,18.1 8.934,3.1 26.578,7.103 41.828,7.143 15.242,0.041 31.351,-1.674 37.89,-7.363 6.539,-5.689 13.217,-10.275 19.348,-13.113"
       style="fill:none;stroke:#231f20;stroke-width:0.5;stroke-linecap:round;stroke-linejoin:round;stroke-miterlimit:4;stroke-dasharray:2.8, 1.8;stroke-dashoffset:0;stroke-opacity:1"
       id="path924" />
    <path
       d="m 500.16,732.438 c -2.388,-4.456 -2.811,-11.054 7.243,-18.499 10.051,-7.441 30.783,-15.504 38.2,-18.554 7.416,-3.051 22.215,-10.323 35.836,-10.015"
       style="fill:none;stroke:#231f20;stroke-width:0.5;stroke-linecap:round;stroke-linejoin:round;stroke-miterlimit:4;stroke-dasharray:2.8, 1.8;stroke-dashoffset:0;stroke-opacity:1"
       id="path926" />
    <path
       d="m 497.606,735.049 2.554,-2.611"
       style="fill:none;stroke:#231f20;stroke-width:0.5;stroke-linecap:round;stroke-linejoin:round;stroke-miterlimit:4;stroke-dasharray:2.8, 1.8;stroke-dashoffset:0;stroke-opacity:1"
       id="path928" />
    <path
       d="m 511.438,742.416 1.428,-2.448"
       style="fill:none;stroke:#231f20;stroke-width:0.5;stroke-linecap:round;stroke-linejoin:round;stroke-miterlimit:4;stroke-dasharray:2.8, 1.8;stroke-dashoffset:0;stroke-opacity:1"
       id="path930" />
    <path
       d="m 616.837,717.34 c -6.642,5.051 -16.445,11.168 -32.117,14.195 -15.679,3.029 -20.687,2.796 -41.594,-0.781 -20.919,-3.578 -23.966,-6.225 -24.392,-11.063 -0.426,-4.837 10.053,-9.638 34.685,-11.535"
       style="fill:none;stroke:#231f20;stroke-width:0.5;stroke-linecap:round;stroke-linejoin:round;stroke-miterlimit:4;stroke-dasharray:2.8, 1.8;stroke-dashoffset:0;stroke-opacity:1"
       id="path932" />
    <path
       d="m 589.023,659.521 c 4.141,-0.002 8.215,-0.544 11.539,-2.808 5.447,-3.709 6.543,-7.436 12.188,-3.022 5.642,4.414 12.339,21.562 12.984,25.515 0.642,3.953 -0.451,7.022 -5.891,9.196 -5.441,2.176 -14.806,7.63 -22.211,11.556 -7.408,3.927 -21.129,8.713 -30.058,9.343 -8.932,0.629 -13.944,1.272 -14.155,-1.145 -0.212,-2.418 3.274,-3.285 8.938,-3.266 5.662,0.019 18.295,-1.915 27.227,-6.057 8.931,-4.141 24.177,-13.746 26.794,-16.589 2.616,-2.845 4.799,-6.568 1.983,-10.969 -2.817,-4.401 -9.328,-10.135 -15.205,-7.744 -5.881,2.392 -12.129,2.199 -16.104,0.814 -3.984,-1.388 -5.574,-1.902 -4.996,-4.193 0.444,-1.762 4.412,-0.629 6.967,-0.631 z"
       style="fill:none;stroke:#231f20;stroke-width:0.5;stroke-linecap:round;stroke-linejoin:round;stroke-miterlimit:4;stroke-dasharray:2.8, 1.8;stroke-dashoffset:0;stroke-opacity:1"
       id="path934" />
    <path
       d="m 502.703,663.157 c 4.741,-2.964 20.993,-11.071 18.837,-31.905"
       style="fill:none;stroke:#231f20;stroke-width:0.5;stroke-linecap:round;stroke-linejoin:round;stroke-miterlimit:4;stroke-dasharray:2.8, 1.8;stroke-dashoffset:0;stroke-opacity:1"
       id="path936" />
    <path
       d="m 585.222,606.546 c 6.465,0.882 18.094,3.662 19.678,-1.294 1.586,-4.955 -5.484,-9.558 -7.635,-15.527 -2.15,-5.969 -9.404,-18.519 -12.545,-21.121 -3.142,-2.598 -14.357,-6.438 -18.099,-6.258 -3.741,0.177 -11.235,2.718 -9.664,5.508 1.57,2.792 3.742,0.221 8.47,-0.35 4.727,-0.569 15.553,0.485 19.867,8.057 4.313,7.571 5.082,15.32 1.34,16.692 -3.744,1.371 -13.197,3.905 -15.375,8.861 -2.177,4.955 -2.578,7.734 0.18,6.754 2.76,-0.98 7.746,-2.146 13.783,-1.322 z"
       style="fill:none;stroke:#231f20;stroke-width:0.5;stroke-linecap:round;stroke-linejoin:round;stroke-miterlimit:4;stroke-dasharray:2.8, 1.8;stroke-dashoffset:0;stroke-opacity:1"
       id="path938" />
    <path
       d="m 576.363,521.469 c -21.653,-5.701 -35.668,4.348 -35.668,4.348 12.816,-3.102 20.873,6.094 20.873,6.094 -3.938,-0.621 -38.241,1.355 -43.389,10.671 -7.501,13.571 -6.562,23.23 5.442,36.62 11.997,13.382 24.808,13.05 30.721,12.287 5.911,-0.765 11.269,-18.819 13.827,-17.412 3.747,2.056 -4.587,25.408 -10.697,27.564 -6.112,2.154 -19.365,-3.59 -28.357,-10.283 -8.072,-6.006 -15.157,-13.599 -18.49,-22.768 -3.334,-9.167 -3.456,-17.185 1.637,-27.038 5.944,-11.5 18.964,-13.009 28.433,-15.735"
       style="fill:none;stroke:#231f20;stroke-width:0.5;stroke-linecap:round;stroke-linejoin:round;stroke-miterlimit:4;stroke-dasharray:2.8, 1.8;stroke-dashoffset:0;stroke-opacity:1"
       id="path940" />
    <path
       d="m 514.371,551.074 c 0.414,9.386 4.827,18.253 12.016,25.557 8.852,8.993 29.289,16.278 32.296,11.557"
       style="fill:none;stroke:#231f20;stroke-width:0.5;stroke-linecap:round;stroke-linejoin:round;stroke-miterlimit:4;stroke-dasharray:2.8, 1.8;stroke-dashoffset:0;stroke-opacity:1"
       id="path942" />
    <path
       d="m 508.845,552.235 4.996,0.868"
       style="fill:none;stroke:#231f20;stroke-width:0.5;stroke-linecap:round;stroke-linejoin:round;stroke-miterlimit:4;stroke-dasharray:2.8, 1.8;stroke-dashoffset:0;stroke-opacity:1"
       id="path944" />
    <path
       d="m 516.812,535.216 3.887,4.917"
       style="fill:none;stroke:#231f20;stroke-width:0.5;stroke-linecap:round;stroke-linejoin:round;stroke-miterlimit:4;stroke-dasharray:2.8, 1.8;stroke-dashoffset:0;stroke-opacity:1"
       id="path946" />
    <path
       d="m 837.099,582.879 c -0.771,-1.164 -3.894,-1.963 -7.264,1.101 -3.371,3.062 -9.673,9.821 -12.746,11.595 -3.074,1.77 -12.369,8.799 -16.841,10.275 -4.471,1.479 -11.541,7.181 -15.231,10.464 -3.687,3.282 -6.525,6.228 -14.387,9.696 -7.863,3.468 -14.578,5.308 -14.757,7.133 -0.18,1.824 0.279,3.529 -1.657,3.029 -1.939,-0.498 -8.072,-1.99 -9.588,-2.819 -1.515,-0.829 -3.254,-2.081 -3.876,-1.106 -0.626,0.976 0.244,1.602 1.107,2.015 0.865,0.412 2.164,1.137 1.855,1.785 -0.308,0.65 -2.675,0.159 -2.742,2.302 -0.066,2.145 0.219,5.995 0.799,8.341 0.58,2.346 1.963,7.57 1.15,9.941 -0.812,2.372 -1.904,7.106 0.26,8.244 2.164,1.138 4.901,-1.484 6.449,-4.62 1.549,-3.135 5.475,-10.816 6.084,-12.647 0.61,-1.834 4.639,-4.051 7.637,-4.107 2.998,-0.056 6.311,-0.547 8.934,2.296 2.822,3.056 2.886,5.303 0.5,9.526 -2.385,4.222 -6.869,10.734 -8.323,13.225 -1.453,2.491 -3.226,5.096 -7.679,7.536 -4.453,2.439 -6.248,3.866 -5.862,7.394 0.389,3.528 3.002,11.513 3.889,13.104 0.887,1.59 4.135,3.458 5.803,0.963 1.668,-2.496 4.459,-7.904 7.123,-8.596 2.666,-0.694 5.703,1.285 7.363,4.147 1.66,2.861 2.041,6.068 2.041,11.746 -0.002,5.677 -0.008,16.712 0.444,23.666 0.451,6.955 3.888,13.212 6.726,16.051 2.838,2.839 9.049,8.4 11.973,10.06 2.924,1.66 11.109,3.97 13.476,4.568 2.369,0.599 6.129,1.279 6.75,0.089 0.621,-1.191 0.057,-2.787 -1.166,-5.121 -1.222,-2.334 -12.841,-22.149 -14.525,-26.296 -1.686,-4.146 -6.52,-16.375 -10.24,-26.269 -3.721,-9.893 -8.469,-23.195 -8.862,-26.937 -0.39,-3.742 -1.168,-10.905 -0.476,-14.025 0.693,-3.12 4.429,-9.51 10.886,-7.917 6.458,1.593 10.84,6.761 12.713,9.511 1.871,2.75 3.252,7.867 3.2,10.76 -0.053,2.893 -0.639,5.904 2.627,14.413 3.265,8.509 9.808,26.063 12.062,32.02 2.254,5.957 7.916,16.564 9.699,20.279 1.783,3.717 5.065,7.298 5.119,10.296 0.057,2.999 -0.195,6.646 1.266,10.261 1.459,3.615 3.111,6.048 6.66,6.839 3.551,0.79 7.756,2.211 9.27,2.933 1.511,0.722 4.078,0.459 6.314,-0.333 2.235,-0.791 6.365,-3.332 6.322,-5.581 -0.041,-2.249 -4.214,-7.742 -6.546,-12.09 -2.33,-4.349 -11.086,-19.933 -12.76,-23.544 -1.674,-3.611 -5.274,-12.757 -7.596,-16.57 -2.32,-3.813 -7.48,-10.573 -8.641,-15.264 -1.158,-4.692 -0.419,-5.349 0.95,-6.553 1.371,-1.204 6.402,-1.298 9.463,1.858 3.056,3.157 10.626,12.657 15.365,19.746 4.74,7.089 11.656,16.065 14.955,20.503 3.297,4.438 7.326,8.005 7.6,11.213 0.275,3.209 0.953,10.802 1.863,13.677 0.912,2.876 2.039,5.962 5.047,6.333 3.006,0.373 6.043,-3.433 6.023,-4.397 -0.017,-0.963 0.227,-5.039 3.635,-6.174 3.406,-1.135 9.92,-2.222 10.746,-3.951 0.824,-1.729 1.062,-6.126 -1.58,-9.933 -2.641,-3.807 -6.883,-7.156 -10.012,-8.383 -3.129,-1.227 -6.314,-5.346 -7.535,-7.679 -1.223,-2.335 -3.098,-5.192 -5.018,-4.727 -1.919,0.464 -3.201,0.595 -5.804,-1.177 -2.606,-1.773 -12.287,-9.626 -15.912,-14.379 -3.623,-4.753 -4.969,-7.942 -4.272,-10.74 0.699,-2.798 4.19,-5.22 6.877,-4.735 2.686,0.485 7.203,1.473 8.4,2.414 1.196,0.942 2.694,0.806 2.438,-1.438 -0.258,-2.245 -3.289,-9.687 -11.344,-16.5 -8.056,-6.812 -14.515,-8.62 -18.472,-8.224 -3.957,0.395 -9.991,-1.421 -12.313,-5.341 -2.324,-3.921 -3.289,-9.686 2.408,-14.401 5.698,-4.712 15.151,-3.283 21.938,-1.266 6.787,2.015 15.896,7.951 18.57,13.364 2.672,5.414 5.539,9.752 8.82,13.44 3.284,3.688 7.084,6.403 7.444,14.217 0.361,7.813 0.625,16.164 4.799,21.656 4.171,5.493 10.847,12.974 12.074,15.522 1.224,2.548 4.933,6.014 6.961,5.655 2.029,-0.359 2.803,-10.551 2.666,-12.155 -0.137,-1.605 1.357,-13.31 -0.41,-16.169 -1.768,-2.859 -6.629,-5.018 -9.276,-9.04 -2.644,-4.021 -2.699,-6.912 -1.347,-9.08 1.351,-2.168 5.015,-1.058 6.418,-0.442 1.404,0.617 5.085,2.69 5.437,-1.387 0.354,-4.077 -0.002,-11.676 -5.174,-18.864 -5.168,-7.188 -11.283,-7.717 -15.791,-8.062 -4.506,-0.343 -10.515,-0.98 -15.41,-4.853 -4.893,-3.872 -9.25,-7.755 -7.768,-14.425 1.483,-6.669 12.782,-3.987 16.459,-2.021 3.68,1.966 9.955,5.277 12.123,6.629 2.168,1.352 4.643,1.949 5.797,0.642 1.155,-1.307 0.534,-5.903 -0.8,-8.448 -1.334,-2.546 -7.342,-8.755 -10.692,-10.298 -3.349,-1.545 -6.847,-5.229 -6.791,-7.908 0.059,-2.68 0.416,-6.437 -0.68,-7.808 -1.097,-1.372 -2.406,-2.634 -5.177,-1.832 -2.77,0.802 -5.53,2.139 -7.061,6.238 -1.529,4.1 -4.519,10.371 -6.82,13.305 -2.303,2.936 -3.117,5.2 -4.608,5.763 -1.488,0.565 -3.515,1.031 -3.849,0.289 -0.336,-0.744 -0.733,-4.809 -2.867,-4.34"
       style="fill:none;stroke:#231f20;stroke-width:0.75;stroke-linecap:round;stroke-linejoin:round;stroke-miterlimit:4;stroke-dasharray:0, 2;stroke-dashoffset:0;stroke-opacity:1"
       id="path948" />
    <path
       d="m 752.136,610.93 c 0,0 -5.384,-1.508 -8.648,1.555 -3.264,3.059 -1.795,7.103 -1.115,9.125 0.679,2.023 2.841,3.055 6.89,1.801 4.047,-1.254 6.578,-3.338 8.375,-4.657 1.797,-1.319 6.567,-4.086 9.229,-4.886 2.664,-0.8 6.25,-3.866 8.007,-7.221 1.758,-3.354 5.249,-5.775 9.694,-8.644 4.445,-2.87 15.976,-10.69 19.248,-13.323 3.271,-2.632 5.586,-4.925 7.033,-7.736 1.447,-2.814 1.942,-4.966 1.182,-5.488 -0.758,-0.52 -4.768,2.769 -6.875,4.628 -2.11,1.862 -4.93,5.664 -8.85,7.988 -3.922,2.322 -10.812,6.094 -13.777,7.97 -2.965,1.877 -6.092,6.54 -8.184,9.259 -2.092,2.717 -5.635,8.033 -8.513,8.73 -2.879,0.696 -5.649,1.604 -7.577,1.641 -1.927,0.036 -3.613,1.459 -4.881,2.448 -1.267,0.988 -4.456,2.334 -5.88,0.646 -1.424,-1.687 4.642,-3.836 4.642,-3.836 z"
       style="fill:none;stroke:#231f20;stroke-width:0.75;stroke-linecap:round;stroke-linejoin:round;stroke-miterlimit:4;stroke-dasharray:0, 2;stroke-dashoffset:0;stroke-opacity:1"
       id="path950" />
    <path
       d="m 808.134,637.949 c -1.103,-0.816 -2.636,-3.486 -0.427,-5.67 2.209,-2.183 9.697,-8.429 11.486,-10.177 1.789,-1.747 7.057,-6.453 8.424,-7.764 1.369,-1.311 4.9,-1.484 6.084,-1.293 1.181,0.192 5.259,0.653 5.406,2.684 0.145,2.033 -0.313,6.221 1.637,7.361 1.949,1.143 7.601,-0.248 9.5,-1.89 1.896,-1.644 4.201,-4.471 7.287,-5.6 3.084,-1.129 8.545,-7.018 10.164,-12.082 1.621,-5.064 1.482,-12.455 -0.629,-16.486 -2.111,-4.031 -6.664,-6.837 -7.705,-5.213 -1.039,1.629 -4.156,6.828 -6.287,7.404 -2.133,0.574 -6.299,1.189 -8.53,2.193 -2.232,1.007 -3.697,2.856 -3.24,4.348 0.457,1.49 1.555,2.969 3.24,1.439 0.842,-0.766 1.87,-1.776 2.754,-2.408"
       style="fill:none;stroke:#231f20;stroke-width:0.75;stroke-linecap:round;stroke-linejoin:round;stroke-miterlimit:4;stroke-dasharray:0, 2;stroke-dashoffset:0;stroke-opacity:1"
       id="path952" />
  </g>
</svg>
